<?xml version="1.0" encoding="UTF-8" standalone="no"?>
<svg xmlns="http://www.w3.org/2000/svg" width="915" height="2000" viewBox="0 0 915 2000">
<rect width="915" height="2000" fill="#ffffff"/>
<path d="M129.14,374.88L126.23,401.49L129.75,405.93L101.47,401.48L76.53,390.72L24.7,358.58L25.56,275.54L52.83,282.22L60.78,281.72L64.56,271.6L54.88,276.11L51.46,262.66L66.17,266.63L74.41,265.56L81.53,246.07L89.83,236.95L99.81,230.13L108.19,227.71L96.38,249.84L80.72,273.47L74.4,297.56L90.37,321.28L96.02,324.39L103.39,326.37L107.33,330.24L110.12,336.4L111.35,342.16L114.16,346.39L121.82,348.18L128.29,356.47L129.14,374.88Z" fill-rule="evenodd" fill="#4682b4" fill-opacity="0.471"/>
<polyline points="129.14,374.88 126.23,401.49 129.75,405.93 101.47,401.48 76.53,390.72 24.7,358.58 25.56,275.54 52.83,282.22 60.78,281.72 64.56,271.6 54.88,276.11 51.46,262.66 66.17,266.63 74.41,265.56 81.53,246.07 89.83,236.95 99.81,230.13 108.19,227.71 96.38,249.84 80.72,273.47 74.4,297.56 90.37,321.28 96.02,324.39 103.39,326.37 107.33,330.24 110.12,336.4 111.35,342.16 114.16,346.39 121.82,348.18 128.29,356.47 129.14,374.88" fill="none" stroke="#1e1e1e" stroke-width="1.78" stroke-linecap="round" stroke-linejoin="round"/>
<text x="17.72" y="341.99" font-family="sans-serif" font-size="14" stroke="#ffffff" stroke-opacity="0.784" stroke-width="2.33" stroke-linejoin="round" paint-order="stroke" fill="#141414">Lake Skadar</text>
</svg>
