<?xml version="1.0" encoding="UTF-8" standalone="no"?>
<svg xmlns="http://www.w3.org/2000/svg" width="915" height="2000" viewBox="0 0 915 2000">
<rect width="915" height="2000" fill="#ffffff"/>
<path d="M172.98,1904.79L171.55,1901.71L173.85,1899.01L175.09,1902.32L172.98,1904.79Z" fill-rule="evenodd" fill="#4682b4" fill-opacity="0.471"/>
<polyline points="172.98,1904.79 171.55,1901.71 173.85,1899.01 175.09,1902.32 172.98,1904.79" fill="none" stroke="#1e1e1e" stroke-width="1.78" stroke-linecap="round" stroke-linejoin="round"/>
<path d="M172.54,1831.55L168.13,1829.14L165.46,1831.43L163.26,1822.14L165.23,1816.66L169.72,1817.44L175.16,1821.91L175.98,1825.76L172.54,1831.55Z" fill-rule="evenodd" fill="#4682b4" fill-opacity="0.471"/>
<polyline points="172.54,1831.55 168.13,1829.14 165.46,1831.43 163.26,1822.14 165.23,1816.66 169.72,1817.44 175.16,1821.91 175.98,1825.76 172.54,1831.55" fill="none" stroke="#1e1e1e" stroke-width="1.78" stroke-linecap="round" stroke-linejoin="round"/>
<path d="M190.49,594.57L189.59,591.98L192.52,590.52L191.98,593.21L190.49,594.57Z" fill-rule="evenodd" fill="#4682b4" fill-opacity="0.471"/>
<polyline points="190.49,594.57 189.59,591.98 192.52,590.52 191.98,593.21 190.49,594.57" fill="none" stroke="#1e1e1e" stroke-width="1.78" stroke-linecap="round" stroke-linejoin="round"/>
<path d="M13.78,1421.84L14.68,1415.78L16.74,1414.58L20.42,1420.7L26.5,1423.76L28.32,1429.89L24.59,1441.03L20.8,1439.31L18.89,1429.85L15.87,1428.62L13.78,1421.84Z" fill-rule="evenodd" fill="#4682b4" fill-opacity="0.471"/>
<polyline points="13.78,1421.84 14.68,1415.78 16.74,1414.58 20.42,1420.7 26.5,1423.76 28.32,1429.89 24.59,1441.03 20.8,1439.31 18.89,1429.85 15.87,1428.62 13.78,1421.84" fill="none" stroke="#1e1e1e" stroke-width="1.78" stroke-linecap="round" stroke-linejoin="round"/>
<path d="M340.2,1982.68L340.2,1982.68Z" fill-rule="evenodd" fill="#4682b4" fill-opacity="0.471"/>
<polyline points="340.2,1982.68 340.2,1982.68" fill="none" stroke="#1e1e1e" stroke-width="1.78" stroke-linecap="round" stroke-linejoin="round"/>
<path d="M244.41,1982.31L240.95,1977.35L236.97,1976.61L239.84,1973.48L237.67,1968.64L241.33,1963.33L232.97,1965.77L234.3,1963.86L231.56,1962.28L230.77,1965.99L229.22,1966.78L228.12,1964.57L228.06,1966.35L226.84,1967L227.05,1963.83L222.52,1964.02L213.22,1959.18L213.91,1950.24L218.72,1940.61L218.03,1937.43L213.87,1933.27L208.99,1931.87L205.31,1939.46L203.5,1939.33L202.99,1936.5L205.65,1936.63L203.02,1934.99L205.25,1932.49L204.53,1924.04L197.52,1913.72L191.18,1912.11L197.97,1910.29L203.38,1897.46L212.38,1886.7L214.06,1881.77L216.13,1884.79L226.12,1882.78L234.76,1888.22L251.92,1881.97L258.21,1885.28L265.76,1882.41L270.84,1887.07L274.82,1887.9L286.54,1881.74L301.07,1867.16L307.38,1869.45L307.95,1871.43L314.43,1871.52L317.91,1881.25L325.12,1885.92L328.1,1884.81L328.78,1886.89L332.16,1886.65L331.95,1889.15L336.04,1889.46L335.06,1887.26L337.12,1884.85L340.97,1888.91L340.63,1891.64L346.6,1895.49L348.83,1893.01L347.56,1889.04L351.23,1891.03L351.3,1895.07L355.56,1897.51L354.73,1903.79L351.13,1903.32L352.39,1904.88L349.5,1908.19L350.64,1911.11L347.08,1912.32L347.76,1918.26L343.75,1918.62L344.77,1921.47L342.77,1921.51L342.57,1924.32L328.98,1931.11L319.29,1931.38L312.97,1934.26L308.67,1939.62L299.41,1942.03L296.01,1949.22L300.97,1955.11L298.37,1955.97L297.62,1962.24L301.31,1964.2L302.66,1967.76L306.05,1966.63L308.17,1969.77L305.39,1968.88L302.8,1973.92L300.17,1970.81L296.46,1973.37L299.18,1973.85L298.61,1976.31L301.86,1981.44L305.77,1979.85L304.3,1978.56L305.76,1975.52L307.57,1982.58L244.41,1982.31Z" fill-rule="evenodd" fill="#4682b4" fill-opacity="0.471"/>
<polyline points="244.41,1982.31 240.95,1977.35 236.97,1976.61 239.84,1973.48 237.67,1968.64 241.33,1963.33 232.97,1965.77 234.3,1963.86 231.56,1962.28 230.77,1965.99 229.22,1966.78 228.12,1964.57 228.06,1966.35 226.84,1967 227.05,1963.83 222.52,1964.02 213.22,1959.18 213.91,1950.24 218.72,1940.61 218.03,1937.43 213.87,1933.27 208.99,1931.87 205.31,1939.46 203.5,1939.33 202.99,1936.5 205.65,1936.63 203.02,1934.99 205.25,1932.49 204.53,1924.04 197.52,1913.72 191.18,1912.11 197.97,1910.29 203.38,1897.46 212.38,1886.7 214.06,1881.77 216.13,1884.79 226.12,1882.78 234.76,1888.22 251.92,1881.97 258.21,1885.28 265.76,1882.41 270.84,1887.07 274.82,1887.9 286.54,1881.74 301.07,1867.16 307.38,1869.45 307.95,1871.43 314.43,1871.52 317.91,1881.25 325.12,1885.92 328.1,1884.81 328.78,1886.89 332.16,1886.65 331.95,1889.15 336.04,1889.46 335.06,1887.26 337.12,1884.85 340.97,1888.91 340.63,1891.64 346.6,1895.49 348.83,1893.01 347.56,1889.04 351.23,1891.03 351.3,1895.07 355.56,1897.51 354.73,1903.79 351.13,1903.32 352.39,1904.88 349.5,1908.19 350.64,1911.11 347.08,1912.32 347.76,1918.26 343.75,1918.62 344.77,1921.47 342.77,1921.51 342.57,1924.32 328.98,1931.11 319.29,1931.38 312.97,1934.26 308.67,1939.62 299.41,1942.03 296.01,1949.22 300.97,1955.11 298.37,1955.97 297.62,1962.24 301.31,1964.2 302.66,1967.76 306.05,1966.63 308.17,1969.77 305.39,1968.88 302.8,1973.92 300.17,1970.81 296.46,1973.37 299.18,1973.85 298.61,1976.31 301.86,1981.44 305.77,1979.85 304.3,1978.56 305.76,1975.52 307.57,1982.58 244.41,1982.31" fill="none" stroke="#1e1e1e" stroke-width="1.78" stroke-linecap="round" stroke-linejoin="round"/>
<path d="M143.92,1906.07L142.88,1908.11L138.42,1907.85L133.68,1896.29L130.82,1894.16L131.33,1890.94L137.34,1893.04L143.92,1906.07Z" fill-rule="evenodd" fill="#4682b4" fill-opacity="0.471"/>
<polyline points="143.92,1906.07 142.88,1908.11 138.42,1907.85 133.68,1896.29 130.82,1894.16 131.33,1890.94 137.34,1893.04 143.92,1906.07" fill="none" stroke="#1e1e1e" stroke-width="1.78" stroke-linecap="round" stroke-linejoin="round"/>
<path d="M87.61,1843.58L82.63,1855.12L78.69,1853L77.2,1856.12L72.94,1856.97L70.56,1856.56L68.9,1852.7L65.3,1853.16L64.07,1842.49L67.57,1835.8L78.44,1841.22L88.47,1836.62L93.12,1837.48L93.99,1839.38L87.61,1843.58Z" fill-rule="evenodd" fill="#4682b4" fill-opacity="0.471"/>
<polyline points="87.61,1843.58 82.63,1855.12 78.69,1853 77.2,1856.12 72.94,1856.97 70.56,1856.56 68.9,1852.7 65.3,1853.16 64.07,1842.49 67.57,1835.8 78.44,1841.22 88.47,1836.62 93.12,1837.48 93.99,1839.38 87.61,1843.58" fill="none" stroke="#1e1e1e" stroke-width="1.78" stroke-linecap="round" stroke-linejoin="round"/>
<path d="M118.43,1118.8L110.93,1105.66L111.12,1104.41L113.1,1109.34L114.63,1108.37L115.51,1111.22L117.96,1111.69L118.43,1118.8Z" fill-rule="evenodd" fill="#4682b4" fill-opacity="0.471"/>
<polyline points="118.43,1118.8 110.93,1105.66 111.12,1104.41 113.1,1109.34 114.63,1108.37 115.51,1111.22 117.96,1111.69 118.43,1118.8" fill="none" stroke="#1e1e1e" stroke-width="1.78" stroke-linecap="round" stroke-linejoin="round"/>
<path d="M445.38,1982.83L433.76,1973.15L429.27,1973.86L428.01,1979.48L420.69,1971.22L426.13,1971.59L426.33,1975.04L427.83,1971.57L422.39,1967.74L409.36,1964.18L407.05,1957.82L401.3,1958.91L399.13,1957.03L397.87,1959.53L388.77,1961.47L388.16,1959.47L384.81,1959.02L382.31,1954.1L385.79,1954.29L387.11,1956.96L386.77,1952.52L381.58,1952.47L379.07,1950.31L376.81,1956.12L376.28,1951.81L374.06,1951.64L374.27,1954.94L368.62,1954.15L367.43,1949.62L369.93,1945.18L367.89,1946.51L367.97,1941.93L376.52,1923.21L376.48,1919.36L374.02,1917.5L376.98,1912.74L374.71,1910.61L374.2,1914.82L366.96,1917.76L368.43,1919.41L365.57,1917.87L363.64,1911.45L368.71,1905.57L369.28,1901.77L375.29,1903.84L375.61,1899.29L378.36,1899.34L377.7,1895.56L380.96,1895.16L378.68,1886.82L373.89,1886.02L375.6,1883.57L374.02,1882.57L378.66,1880.82L379.91,1873.68L382.66,1873.05L383.95,1869.61L381.56,1858.33L384.91,1853.75L387.23,1853.9L387.16,1843.48L383.07,1834.13L378.76,1834.83L377.69,1837.6L372.25,1833.61L371.63,1835.99L369.09,1836.2L366.35,1833.69L367.93,1831.86L362.23,1831.39L356.47,1827.54L356.04,1822.78L353.56,1820.74L354.76,1818.93L346.91,1820.39L343.85,1815.23L342.54,1817.3L340.43,1814.92L334.74,1816.32L331.94,1809.74L336.85,1810.87L335.22,1807.55L340.23,1800.56L343.11,1798.55L346.53,1799.61L344.99,1797.4L345.84,1789.17L334.83,1774.45L333.34,1766.37L324.71,1755.14L323.47,1748.59L309.72,1727.52L295.76,1717.92L287.84,1717.06L284.12,1717.92L283.14,1721.08L279.64,1719.06L278.55,1721.57L275.95,1720.8L274.34,1716.56L279.6,1715.91L278.31,1713.13L272.81,1710.87L274.89,1710.36L273.45,1707.08L266.2,1704.87L266.29,1713.74L263.31,1711.63L261.71,1699.2L256.3,1697.91L252.36,1699.44L254.19,1696.14L252.73,1693.3L255.4,1691.07L253.57,1686.92L249.51,1685.27L245.1,1686.33L239.03,1679.77L236.46,1680.96L234.93,1677.74L227.9,1677.67L228.49,1672.5L212.96,1668.25L206.99,1668.93L198.2,1658.97L174.47,1645.89L168.02,1638.1L145.34,1629.88L137.29,1623.86L131.99,1622.6L121.43,1612.18L114.74,1610.17L109.49,1602.82L101.07,1596.95L102.28,1595.14L100.22,1595.42L95.74,1586.61L86.4,1577.54L81.83,1567.86L69.74,1555.64L65.92,1549.31L66.05,1544.89L69.49,1544.82L66.52,1541.61L67.13,1537.87L62.16,1521.26L58.45,1519.05L48,1498.11L36.13,1485.92L31.82,1478.26L25.59,1475.88L26.73,1473L31.31,1473.48L34.57,1467.64L41.46,1464.11L45.91,1469.08L52.32,1468.28L65.26,1483.08L69.91,1485.37L82.92,1505.32L85.5,1516.97L83.26,1517.01L84.82,1520.23L83.62,1528.2L88.14,1532.39L90.21,1540.73L105.65,1538.22L112.7,1533.37L114.94,1530.15L115.39,1527.51L120.67,1526.8L122.5,1523.8L119.46,1515.06L121.09,1509.34L118.89,1505.47L122.45,1499.77L119.15,1490.39L120.61,1480.15L126.92,1469.78L127.15,1459.84L124.68,1457.11L120.58,1458.05L120.39,1455.5L113.6,1452.09L98.65,1433.08L94.18,1436.97L96.53,1434.17L92.93,1425.79L87.64,1423.41L83.78,1425.26L81.71,1422.76L74.59,1410.69L74.72,1406.02L70.44,1403.36L70.89,1391.27L56.78,1349.71L47.1,1337.86L40.62,1334.23L41.69,1330.88L38.55,1327.12L43.77,1315.9L59.19,1294.64L66.26,1277L70.55,1227.31L63.94,1211.24L73.72,1205.41L79.31,1196.3L91.35,1152.9L105.74,1140.33L116.2,1126.39L120.22,1117.28L119.82,1108.68L117.41,1104.7L112.19,1102.82L117.57,1102.66L107.91,1098.57L110.65,1104.76L105.82,1094.65L104.32,1071.33L110.68,1058.88L112.76,1038.11L111.6,1023.91L104.7,1006.97L102.43,1005.58L104.24,1002.84L114.3,1002.24L118.96,997.14L121.05,982.36L124.51,978.61L126.46,969.75L139.41,952.08L143.47,937.98L141.47,919.7L129.14,900.33L118.88,894.42L114.25,898.79L114.85,895.2L111.93,894.42L109.87,899.24L112.79,902.43L109.19,901L110.99,903.48L107.18,898.25L102.71,897.27L99.58,889.38L94.82,887.01L96.14,862.68L95.26,860.19L93.41,861.7L90.54,857.52L92.01,859.33L97.06,855.21L96.7,854.55L94.65,855.74L90.59,856.23L90.47,855.73L92.61,855.93L96.69,854.47L92.57,855.89L90.19,855.62L88.42,853.77L92.53,855.81L96.98,854.28L97.22,851.47L93.67,852.72L97.31,850.21L95.12,846.25L88.8,842.37L82.04,829.81L87.48,833.33L90.2,838.3L95.46,840.45L106.74,837.92L109.34,834.97L109.5,831.32L106.66,835.88L105.05,834.24L102.25,836.77L101.22,835.55L114.09,816.86L129.17,802.48L137.8,787.72L140.94,778.25L142.23,762.53L140.15,751.04L135.27,746.06L120.15,741.37L108.89,716.61L117.09,719.48L123.53,724.6L136.44,728.54L154.47,727.87L163.43,723.84L169.34,717.36L175.8,698.37L177.46,698.3L175.75,697.02L176.11,693.78L176.66,696.83L181.13,697.24L180.73,688.47L177.78,681.47L179.62,684.45L183.9,682.03L179.92,680.13L178.72,677.13L172.12,689.66L174.51,691.32L171.65,690.74L170.19,685.58L170.28,670.62L172.7,667.41L174.18,663.55L176.44,663.84L174.96,663.03L173.6,663.81L170.59,669.43L176.59,638.32L172.49,614.77L170.4,612.06L173.98,610.78L172.59,610.52L174.4,600L180.44,598.75L183.54,600.36L181.03,599.62L180.47,602.09L181.72,602.99L179.99,604.62L173.76,605.7L173.42,609.97L189.38,604.9L189.48,597.9L194.28,591.81L191.19,586.44L187.4,587.11L188.3,590.67L191.91,589.59L188.07,593.4L187.79,601.07L187.81,596.16L183.83,602.41L181.25,602.4L185.04,599.27L186.57,592.89L183.78,573.29L181.22,571.29L179.91,573.25L181.42,570.69L179.12,569.84L179.2,574.31L173.36,572.4L150.36,554.34L111.85,540.03L96.8,538L80.95,546.91L77.83,547.36L74.93,545.06L74.38,547.62L43.03,520.77L23.14,510.61L28.22,17.17L886.78,17.17L907,1980.52L445.38,1982.83Z" fill-rule="evenodd" fill="#4682b4" fill-opacity="0.471"/>
<polyline points="445.38,1982.83 433.76,1973.15 429.27,1973.86 428.01,1979.48 420.69,1971.22 426.13,1971.59 426.33,1975.04 427.83,1971.57 422.39,1967.74 409.36,1964.18 407.05,1957.82 401.3,1958.91 399.13,1957.03 397.87,1959.53 388.77,1961.47 388.16,1959.47 384.81,1959.02 382.31,1954.1 385.79,1954.29 387.11,1956.96 386.77,1952.52 381.58,1952.47 379.07,1950.31 376.81,1956.12 376.28,1951.81 374.06,1951.64 374.27,1954.94 368.62,1954.15 367.43,1949.62 369.93,1945.18 367.89,1946.51 367.97,1941.93 376.52,1923.21 376.48,1919.36 374.02,1917.5 376.98,1912.74 374.71,1910.61 374.2,1914.82 366.96,1917.76 368.43,1919.41 365.57,1917.87 363.64,1911.45 368.71,1905.57 369.28,1901.77 375.29,1903.84 375.61,1899.29 378.36,1899.34 377.7,1895.56 380.96,1895.16 378.68,1886.82 373.89,1886.02 375.6,1883.57 374.02,1882.57 378.66,1880.82 379.91,1873.68 382.66,1873.05 383.95,1869.61 381.56,1858.33 384.91,1853.75 387.23,1853.9 387.16,1843.48 383.07,1834.13 378.76,1834.83 377.69,1837.6 372.25,1833.61 371.63,1835.99 369.09,1836.2 366.35,1833.69 367.93,1831.86 362.23,1831.39 356.47,1827.54 356.04,1822.78 353.56,1820.74 354.76,1818.93 346.91,1820.39 343.85,1815.23 342.54,1817.3 340.43,1814.92 334.74,1816.32 331.94,1809.74 336.85,1810.87 335.22,1807.55 340.23,1800.56 343.11,1798.55 346.53,1799.61 344.99,1797.4 345.84,1789.17 334.83,1774.45 333.34,1766.37 324.71,1755.14 323.47,1748.59 309.72,1727.52 295.76,1717.92 287.84,1717.06 284.12,1717.92 283.14,1721.08 279.64,1719.06 278.55,1721.57 275.95,1720.8 274.34,1716.56 279.6,1715.91 278.31,1713.13 272.81,1710.87 274.89,1710.36 273.45,1707.08 266.2,1704.87 266.29,1713.74 263.31,1711.63 261.71,1699.2 256.3,1697.91 252.36,1699.44 254.19,1696.14 252.73,1693.3 255.4,1691.07 253.57,1686.92 249.51,1685.27 245.1,1686.33 239.03,1679.77 236.46,1680.96 234.93,1677.74 227.9,1677.67 228.49,1672.5 212.96,1668.25 206.99,1668.93 198.2,1658.97 174.47,1645.89 168.02,1638.1 145.34,1629.88 137.29,1623.86 131.99,1622.6 121.43,1612.18 114.74,1610.17 109.49,1602.82 101.07,1596.95 102.28,1595.14 100.22,1595.42 95.74,1586.61 86.4,1577.54 81.83,1567.86 69.74,1555.64 65.92,1549.31 66.05,1544.89 69.49,1544.82 66.52,1541.61 67.13,1537.87 62.16,1521.26 58.45,1519.05 48,1498.11 36.13,1485.92 31.82,1478.26 25.59,1475.88 26.73,1473 31.31,1473.48 34.57,1467.64 41.46,1464.11 45.91,1469.08 52.32,1468.28 65.26,1483.08 69.91,1485.37 82.92,1505.32 85.5,1516.97 83.26,1517.01 84.82,1520.23 83.62,1528.2 88.14,1532.39 90.21,1540.73 105.65,1538.22 112.7,1533.37 114.94,1530.15 115.39,1527.51 120.67,1526.8 122.5,1523.8 119.46,1515.06 121.09,1509.34 118.89,1505.47 122.45,1499.77 119.15,1490.39 120.61,1480.15 126.92,1469.78 127.15,1459.84 124.68,1457.11 120.58,1458.05 120.39,1455.5 113.6,1452.09 98.65,1433.08 94.18,1436.97 96.53,1434.17 92.93,1425.79 87.64,1423.41 83.78,1425.26 81.71,1422.76 74.59,1410.69 74.72,1406.02 70.44,1403.36 70.89,1391.27 56.78,1349.71 47.1,1337.86 40.62,1334.23 41.69,1330.88 38.55,1327.12 43.77,1315.9 59.19,1294.64 66.26,1277 70.55,1227.31 63.94,1211.24 73.72,1205.41 79.31,1196.3 91.35,1152.9 105.74,1140.33 116.2,1126.39 120.22,1117.28 119.82,1108.68 117.41,1104.7 112.19,1102.82 117.57,1102.66 107.91,1098.57 110.65,1104.76 105.82,1094.65 104.32,1071.33 110.68,1058.88 112.76,1038.11 111.6,1023.91 104.7,1006.97 102.43,1005.58 104.24,1002.84 114.3,1002.24 118.96,997.14 121.05,982.36 124.51,978.61 126.46,969.75 139.41,952.08 143.47,937.98 141.47,919.7 129.14,900.33 118.88,894.42 114.25,898.79 114.85,895.2 111.93,894.42 109.87,899.24 112.79,902.43 109.19,901 110.99,903.48 107.18,898.25 102.71,897.27 99.58,889.38 94.82,887.01 96.14,862.68 95.26,860.19 93.41,861.7 90.54,857.52 92.01,859.33 97.06,855.21 96.7,854.55 94.65,855.74 90.59,856.23 90.47,855.73 92.61,855.93 96.69,854.47 92.57,855.89 90.19,855.62 88.42,853.77 92.53,855.81 96.98,854.28 97.22,851.47 93.67,852.72 97.31,850.21 95.12,846.25 88.8,842.37 82.04,829.81 87.48,833.33 90.2,838.3 95.46,840.45 106.74,837.92 109.34,834.97 109.5,831.32 106.66,835.88 105.05,834.24 102.25,836.77 101.22,835.55 114.09,816.86 129.17,802.48 137.8,787.72 140.94,778.25 142.23,762.53 140.15,751.04 135.27,746.06 120.15,741.37 108.89,716.61 117.09,719.48 123.53,724.6 136.44,728.54 154.47,727.87 163.43,723.84 169.34,717.36 175.8,698.37 177.46,698.3 175.75,697.02 176.11,693.78 176.66,696.83 181.13,697.24 180.73,688.47 177.78,681.47 179.62,684.45 183.9,682.03 179.92,680.13 178.72,677.13 172.12,689.66 174.51,691.32 171.65,690.74 170.19,685.58 170.28,670.62 172.7,667.41 174.18,663.55 176.44,663.84 174.96,663.03 173.6,663.81 170.59,669.43 176.59,638.32 172.49,614.77 170.4,612.06 173.98,610.78 172.59,610.52 174.4,600 180.44,598.75 183.54,600.36 181.03,599.62 180.47,602.09 181.72,602.99 179.99,604.62 173.76,605.7 173.42,609.97 189.38,604.9 189.48,597.9 194.28,591.81 191.19,586.44 187.4,587.11 188.3,590.67 191.91,589.59 188.07,593.4 187.79,601.07 187.81,596.16 183.83,602.41 181.25,602.4 185.04,599.27 186.57,592.89 183.78,573.29 181.22,571.29 179.91,573.25 181.42,570.69 179.12,569.84 179.2,574.31 173.36,572.4 150.36,554.34 111.85,540.03 96.8,538 80.95,546.91 77.83,547.36 74.93,545.06 74.38,547.62 43.03,520.77 23.14,510.61 28.22,17.17 886.78,17.17 907,1980.52 445.38,1982.83" fill="none" stroke="#1e1e1e" stroke-width="1.78" stroke-linecap="round" stroke-linejoin="round"/>
</svg>
