<?xml version="1.0" encoding="UTF-8" standalone="no"?>
<svg xmlns="http://www.w3.org/2000/svg" width="1003" height="2000" viewBox="0 0 1003 2000">
<rect width="1003" height="2000" fill="#ffffff"/>
<path d="M450.05,1256.03L453.72,1251.74L454.63,1249.22L453.53,1248.38L454.55,1247.89L458.6,1256.5L458.32,1258.29L457.28,1259.28L455.43,1258.82L450.05,1256.03Z" fill-rule="evenodd" fill="#4682b4" fill-opacity="0.471"/>
<polyline points="450.05,1256.03 453.72,1251.74 454.63,1249.22 453.53,1248.38 454.55,1247.89 458.6,1256.5 458.32,1258.29 457.28,1259.28 455.43,1258.82 450.05,1256.03" fill="none" stroke="#1e1e1e" stroke-width="1.44" stroke-linecap="round" stroke-linejoin="round"/>
<path d="M34.53,60.87L35.37,58.67L38.88,59.74L38.51,61.66L40.23,63.88L40.72,68.7L36.92,65.55L36.46,71.11L28.25,73.92L25.97,70.63L22.33,68.44L24.35,65.33L22.08,64.35L21.76,62.05L24.34,61.03L25.68,58.02L30.05,60.12L32.94,59.54L34.53,60.87Z" fill-rule="evenodd" fill="#4682b4" fill-opacity="0.471"/>
<polyline points="34.53,60.87 35.37,58.67 38.88,59.74 38.51,61.66 40.23,63.88 40.72,68.7 36.92,65.55 36.46,71.11 28.25,73.92 25.97,70.63 22.33,68.44 24.35,65.33 22.08,64.35 21.76,62.05 24.34,61.03 25.68,58.02 30.05,60.12 32.94,59.54 34.53,60.87" fill="none" stroke="#1e1e1e" stroke-width="1.44" stroke-linecap="round" stroke-linejoin="round"/>
<path d="M182.66,747.88L170.81,740.54L164.54,738.32L159.23,732.94L157.89,728.26L158.97,721.79L160.58,719.38L167.73,716.64L178.76,716.24L189.91,718.63L198.84,719.09L201.25,720.51L201.84,724.72L201,728.16L198.06,730.44L196.4,733.69L201.2,741.57L199.8,746.37L196.82,749.46L191.19,751.42L182.66,747.88Z" fill-rule="evenodd" fill="#4682b4" fill-opacity="0.471"/>
<polyline points="182.66,747.88 170.81,740.54 164.54,738.32 159.23,732.94 157.89,728.26 158.97,721.79 160.58,719.38 167.73,716.64 178.76,716.24 189.91,718.63 198.84,719.09 201.25,720.51 201.84,724.72 201,728.16 198.06,730.44 196.4,733.69 201.2,741.57 199.8,746.37 196.82,749.46 191.19,751.42 182.66,747.88" fill="none" stroke="#1e1e1e" stroke-width="1.44" stroke-linecap="round" stroke-linejoin="round"/>
<path d="M859.37,1980.4L859.35,1977.67L856.61,1977.96L855.04,1975.12L855.23,1973.08L853.08,1972.18L849.42,1964.91L850.03,1957.36L852.5,1953.7L856.94,1951.34L858.44,1953.09L862.63,1950.74L871.57,1951.4L872.74,1950.67L875.74,1951.76L880.99,1956.11L884.16,1956.05L884.36,1957.62L887.06,1958.37L890.96,1966.78L889.17,1970.71L889.64,1972.01L887.3,1974.07L887.89,1975.2L883.45,1981L881.97,1981.81L880.21,1981.14L877.65,1982.81L876.37,1980.25L872.73,1982.59L871.04,1979.9L868.92,1980.04L868,1978.29L865.8,1979.69L862.51,1977.95L859.37,1980.4Z" fill-rule="evenodd" fill="#4682b4" fill-opacity="0.471"/>
<polyline points="859.37,1980.4 859.35,1977.67 856.61,1977.96 855.04,1975.12 855.23,1973.08 853.08,1972.18 849.42,1964.91 850.03,1957.36 852.5,1953.7 856.94,1951.34 858.44,1953.09 862.63,1950.74 871.57,1951.4 872.74,1950.67 875.74,1951.76 880.99,1956.11 884.16,1956.05 884.36,1957.62 887.06,1958.37 890.96,1966.78 889.17,1970.71 889.64,1972.01 887.3,1974.07 887.89,1975.2 883.45,1981 881.97,1981.81 880.21,1981.14 877.65,1982.81 876.37,1980.25 872.73,1982.59 871.04,1979.9 868.92,1980.04 868,1978.29 865.8,1979.69 862.51,1977.95 859.37,1980.4" fill="none" stroke="#1e1e1e" stroke-width="1.44" stroke-linecap="round" stroke-linejoin="round"/>
<path d="M24.53,56.69L21.15,55.9L22.4,53.74L25.66,52.69L27.33,55.41L24.53,56.69Z" fill-rule="evenodd" fill="#4682b4" fill-opacity="0.471"/>
<polyline points="24.53,56.69 21.15,55.9 22.4,53.74 25.66,52.69 27.33,55.41 24.53,56.69" fill="none" stroke="#1e1e1e" stroke-width="1.44" stroke-linecap="round" stroke-linejoin="round"/>
<path d="M203.85,742.71L202.9,740.32L204.65,738.32L203.85,742.71Z" fill-rule="evenodd" fill="#4682b4" fill-opacity="0.471"/>
<polyline points="203.85,742.71 202.9,740.32 204.65,738.32 203.85,742.71" fill="none" stroke="#1e1e1e" stroke-width="1.44" stroke-linecap="round" stroke-linejoin="round"/>
<path d="M186.08,619.5L181.91,619.07L181.97,616.7L185.19,615.53L186.98,618.07L186.08,619.5Z" fill-rule="evenodd" fill="#4682b4" fill-opacity="0.471"/>
<polyline points="186.08,619.5 181.91,619.07 181.97,616.7 185.19,615.53 186.98,618.07 186.08,619.5" fill="none" stroke="#1e1e1e" stroke-width="1.44" stroke-linecap="round" stroke-linejoin="round"/>
<path d="M188.56,702.35L193.51,701.86L195.58,703.05L195.11,707.66L192.31,711.15L187.13,712.49L184.34,711.43L175.51,711.89L169.98,710.54L168.12,708.98L169.95,704.96L176.6,698.6L177.42,696.03L187,689.96L192.52,691.82L185.28,693.62L185.67,694.91L189.51,696.94L190.11,699.46L187.61,700.91L188.56,702.35Z" fill-rule="evenodd" fill="#4682b4" fill-opacity="0.471"/>
<polyline points="188.56,702.35 193.51,701.86 195.58,703.05 195.11,707.66 192.31,711.15 187.13,712.49 184.34,711.43 175.51,711.89 169.98,710.54 168.12,708.98 169.95,704.96 176.6,698.6 177.42,696.03 187,689.96 192.52,691.82 185.28,693.62 185.67,694.91 189.51,696.94 190.11,699.46 187.61,700.91 188.56,702.35" fill="none" stroke="#1e1e1e" stroke-width="1.44" stroke-linecap="round" stroke-linejoin="round"/>
<path d="M405.04,400.36L403.31,395.91L406.04,391.43L408.44,390.58L415.97,392.08L415.95,395.37L412.3,401.48L407.66,402.14L405.04,400.36Z" fill-rule="evenodd" fill="#4682b4" fill-opacity="0.471"/>
<polyline points="405.04,400.36 403.31,395.91 406.04,391.43 408.44,390.58 415.97,392.08 415.95,395.37 412.3,401.48 407.66,402.14 405.04,400.36" fill="none" stroke="#1e1e1e" stroke-width="1.44" stroke-linecap="round" stroke-linejoin="round"/>
<path d="M442.24,1264.36L439.5,1267.48L437.23,1267.22L442.24,1264.36Z" fill-rule="evenodd" fill="#4682b4" fill-opacity="0.471"/>
<polyline points="442.24,1264.36 439.5,1267.48 437.23,1267.22 442.24,1264.36" fill="none" stroke="#1e1e1e" stroke-width="1.44" stroke-linecap="round" stroke-linejoin="round"/>
<path d="M811.67,1710.83L814.63,1700.42L815.98,1706.58L817.59,1702.85L816.6,1702.43L817.84,1700.2L817.19,1701.05L816.23,1698.13L815.46,1698.59L816.28,1697.35L817.73,1698.88L818.17,1701.4L815.58,1713.99L812.91,1715.22L811.67,1710.83Z" fill-rule="evenodd" fill="#4682b4" fill-opacity="0.471"/>
<polyline points="811.67,1710.83 814.63,1700.42 815.98,1706.58 817.59,1702.85 816.6,1702.43 817.84,1700.2 817.19,1701.05 816.23,1698.13 815.46,1698.59 816.28,1697.35 817.73,1698.88 818.17,1701.4 815.58,1713.99 812.91,1715.22 811.67,1710.83" fill="none" stroke="#1e1e1e" stroke-width="1.44" stroke-linecap="round" stroke-linejoin="round"/>
<path d="M202.71,703.58L207.82,699.43L209.84,692.94L211.43,692.86L213.25,696.85L213.22,701.5L206.93,706.97L204.97,706.63L202.71,703.58Z" fill-rule="evenodd" fill="#4682b4" fill-opacity="0.471"/>
<polyline points="202.71,703.58 207.82,699.43 209.84,692.94 211.43,692.86 213.25,696.85 213.22,701.5 206.93,706.97 204.97,706.63 202.71,703.58" fill="none" stroke="#1e1e1e" stroke-width="1.44" stroke-linecap="round" stroke-linejoin="round"/>
<path d="M555.15,1063.22L548.2,1071.57L543.81,1073.53L538.06,1072.88L537.57,1064.09L538.73,1058.82L543.22,1057.67L546.33,1053.6L551.66,1056.37L554.4,1056.4L555.92,1059.55L555.15,1063.22Z" fill-rule="evenodd" fill="#4682b4" fill-opacity="0.471"/>
<polyline points="555.15,1063.22 548.2,1071.57 543.81,1073.53 538.06,1072.88 537.57,1064.09 538.73,1058.82 543.22,1057.67 546.33,1053.6 551.66,1056.37 554.4,1056.4 555.92,1059.55 555.15,1063.22" fill="none" stroke="#1e1e1e" stroke-width="1.44" stroke-linecap="round" stroke-linejoin="round"/>
<path d="M19.49,29.73L20.52,31.55L20,33.48L22.67,32.9L21.7,34.62L20.22,33.87L19.03,37.84L21.19,41.36L18.92,51.75L15.14,50.55L8.93,45.1L10.13,44.08L8.84,34.82L11.29,33.8L11.1,31.83L13.33,28.42L12.51,25.64L10.1,23.82L9.26,18.92L13.79,19.38L17.65,21.2L19.98,24.55L19.49,29.73Z" fill-rule="evenodd" fill="#4682b4" fill-opacity="0.471"/>
<polyline points="19.49,29.73 20.52,31.55 20,33.48 22.67,32.9 21.7,34.62 20.22,33.87 19.03,37.84 21.19,41.36 18.92,51.75 15.14,50.55 8.93,45.1 10.13,44.08 8.84,34.82 11.29,33.8 11.1,31.83 13.33,28.42 12.51,25.64 10.1,23.82 9.26,18.92 13.79,19.38 17.65,21.2 19.98,24.55 19.49,29.73" fill="none" stroke="#1e1e1e" stroke-width="1.44" stroke-linecap="round" stroke-linejoin="round"/>
<path d="M224.83,802.96L226.17,801.37L227.56,801.33L226.49,803.29L224.83,802.96Z" fill-rule="evenodd" fill="#4682b4" fill-opacity="0.471"/>
<polyline points="224.83,802.96 226.17,801.37 227.56,801.33 226.49,803.29 224.83,802.96" fill="none" stroke="#1e1e1e" stroke-width="1.44" stroke-linecap="round" stroke-linejoin="round"/>
<path d="M556.71,1087.03L557.1,1089.73L556.26,1088.03L556.71,1087.03Z" fill-rule="evenodd" fill="#4682b4" fill-opacity="0.471"/>
<polyline points="556.71,1087.03 557.1,1089.73 556.26,1088.03 556.71,1087.03" fill="none" stroke="#1e1e1e" stroke-width="1.44" stroke-linecap="round" stroke-linejoin="round"/>
<path d="M461.95,1241.85L457.38,1247.17L455.46,1246.72L456.43,1244.19L460.07,1242L459.22,1237.02L461.96,1234.11L469.72,1233.26L470.46,1231.3L474.66,1229.18L479.51,1234.42L478.67,1235.99L476.05,1235.75L470.58,1238.26L468.99,1241.22L461.95,1241.85Z" fill-rule="evenodd" fill="#4682b4" fill-opacity="0.471"/>
<polyline points="461.95,1241.85 457.38,1247.17 455.46,1246.72 456.43,1244.19 460.07,1242 459.22,1237.02 461.96,1234.11 469.72,1233.26 470.46,1231.3 474.66,1229.18 479.51,1234.42 478.67,1235.99 476.05,1235.75 470.58,1238.26 468.99,1241.22 461.95,1241.85" fill="none" stroke="#1e1e1e" stroke-width="1.44" stroke-linecap="round" stroke-linejoin="round"/>
<path d="M271.93,324.59L280.01,326.62L283.38,328.59L284.57,327.96L286.54,330.16L289.13,329.78L290.5,333.53L292.8,335.51L290.56,337.98L292.28,339.04L294.24,345.17L291.77,348.57L292.53,350.59L291.81,353.15L288.72,356.25L285.24,368.05L281.05,371.25L276.27,372.73L269.38,371.32L266.99,372.11L260.85,369.51L248.45,370.94L247.29,368.65L243.65,368.21L243.04,367.1L248.05,356.86L247.06,355.13L247.6,353.98L245.01,350.27L246.44,347.23L244.4,341.57L245.68,340.73L247.65,333.19L251.33,333.28L251.78,331.47L255.72,330.28L255.86,327.43L260.37,329.36L271.93,324.59Z" fill-rule="evenodd" fill="#4682b4" fill-opacity="0.471"/>
<polyline points="271.93,324.59 280.01,326.62 283.38,328.59 284.57,327.96 286.54,330.16 289.13,329.78 290.5,333.53 292.8,335.51 290.56,337.98 292.28,339.04 294.24,345.17 291.77,348.57 292.53,350.59 291.81,353.15 288.72,356.25 285.24,368.05 281.05,371.25 276.27,372.73 269.38,371.32 266.99,372.11 260.85,369.51 248.45,370.94 247.29,368.65 243.65,368.21 243.04,367.1 248.05,356.86 247.06,355.13 247.6,353.98 245.01,350.27 246.44,347.23 244.4,341.57 245.68,340.73 247.65,333.19 251.33,333.28 251.78,331.47 255.72,330.28 255.86,327.43 260.37,329.36 271.93,324.59" fill="none" stroke="#1e1e1e" stroke-width="1.44" stroke-linecap="round" stroke-linejoin="round"/>
<path d="M204.12,667.06L202.22,670.49L201.64,666.1L199.59,663.74L198.75,660.07L197.18,659.28L199.27,656.61L201.21,657.5L203.87,662.17L204.12,667.06Z" fill-rule="evenodd" fill="#4682b4" fill-opacity="0.471"/>
<polyline points="204.12,667.06 202.22,670.49 201.64,666.1 199.59,663.74 198.75,660.07 197.18,659.28 199.27,656.61 201.21,657.5 203.87,662.17 204.12,667.06" fill="none" stroke="#1e1e1e" stroke-width="1.44" stroke-linecap="round" stroke-linejoin="round"/>
<path d="M344.43,357.04L344.44,359.26L343.32,358.72L344.43,357.04Z" fill-rule="evenodd" fill="#4682b4" fill-opacity="0.471"/>
<polyline points="344.43,357.04 344.44,359.26 343.32,358.72 344.43,357.04" fill="none" stroke="#1e1e1e" stroke-width="1.44" stroke-linecap="round" stroke-linejoin="round"/>
<path d="M513.79,1163.57L509.91,1161.3L510.03,1157.74L511.4,1158.38L513.79,1163.57Z" fill-rule="evenodd" fill="#4682b4" fill-opacity="0.471"/>
<polyline points="513.79,1163.57 509.91,1161.3 510.03,1157.74 511.4,1158.38 513.79,1163.57" fill="none" stroke="#1e1e1e" stroke-width="1.44" stroke-linecap="round" stroke-linejoin="round"/>
<path d="M520.36,1245.96L527.26,1252.9L529.83,1253.92L531.32,1259.71L530.14,1262.05L531.66,1263.14L531.83,1265.94L535.91,1267.78L537.41,1270.46L541.64,1273.62L542.49,1275.71L541.25,1277.83L553.15,1278.65L555.08,1279.97L550.48,1288.77L546.37,1293.38L547.4,1296.86L546.46,1299.4L544.92,1299.51L546.11,1303.69L544.79,1307.23L541.92,1309.7L534.67,1311.86L530.94,1311.29L529.99,1314.63L528.95,1314.99L525.04,1314.38L522.23,1312.27L519.32,1313.75L518.58,1311.55L513.04,1316.22L500.38,1316.93L497.92,1314.17L499.89,1308.07L497.55,1306.99L495.17,1310.36L491.44,1311.77L490.89,1309.58L492.38,1310.08L492.02,1308.81L493.42,1307.82L490.13,1305.77L491.92,1304.98L491.33,1303.68L489.16,1306.5L488.63,1305.03L487.35,1304.8L486.1,1307.03L486.21,1305.01L484.86,1304.64L481.33,1309.17L481.41,1301.58L483.47,1299.62L486.15,1293.67L488.2,1292.99L492.41,1297.8L494.47,1296.72L490.27,1293.49L487.54,1292.69L486.25,1293.32L485.47,1292.67L481.35,1300.88L474.29,1305.52L473.15,1302.19L471.7,1304.03L470.16,1302.7L468.24,1305.37L467.13,1304.84L468.88,1301.75L476.8,1296.91L477.23,1298.23L481.22,1297.97L481.82,1294.05L480.75,1288.25L480,1290.47L476.98,1292.55L476.24,1291.07L477.19,1286.77L472.71,1282.14L469.13,1281.44L468.26,1279.2L465.19,1278.52L462.29,1280.5L453.85,1288.41L452.53,1292.07L448.2,1294.56L447.23,1294.42L447.89,1292.01L444.27,1291.17L446.77,1284.67L441.03,1286.42L447.47,1276.62L449.91,1267.69L453.63,1264.04L458.3,1262.9L462.56,1258.78L463.85,1256.59L463.41,1251.19L464.64,1247.81L471.67,1245.96L471.97,1243.17L474.88,1241.91L473.26,1239.57L475.98,1237.36L478.59,1236.84L481.25,1234.11L485.16,1234.6L486.14,1238.57L488.92,1241.62L492.48,1239.58L501.86,1237.77L504.8,1235.26L515.77,1236.19L518.84,1239.4L521.25,1245.14L520.36,1245.96Z" fill-rule="evenodd" fill="#4682b4" fill-opacity="0.471"/>
<polyline points="520.36,1245.96 527.26,1252.9 529.83,1253.92 531.32,1259.71 530.14,1262.05 531.66,1263.14 531.83,1265.94 535.91,1267.78 537.41,1270.46 541.64,1273.62 542.49,1275.71 541.25,1277.83 553.15,1278.65 555.08,1279.97 550.48,1288.77 546.37,1293.38 547.4,1296.86 546.46,1299.4 544.92,1299.51 546.11,1303.69 544.79,1307.23 541.92,1309.7 534.67,1311.86 530.94,1311.29 529.99,1314.63 528.95,1314.99 525.04,1314.38 522.23,1312.27 519.32,1313.75 518.58,1311.55 513.04,1316.22 500.38,1316.93 497.92,1314.17 499.89,1308.07 497.55,1306.99 495.17,1310.36 491.44,1311.77 490.89,1309.58 492.38,1310.08 492.02,1308.81 493.42,1307.82 490.13,1305.77 491.92,1304.98 491.33,1303.68 489.16,1306.5 488.63,1305.03 487.35,1304.8 486.1,1307.03 486.21,1305.01 484.86,1304.64 481.33,1309.17 481.41,1301.58 483.47,1299.62 486.15,1293.67 488.2,1292.99 492.41,1297.8 494.47,1296.72 490.27,1293.49 487.54,1292.69 486.25,1293.32 485.47,1292.67 481.35,1300.88 474.29,1305.52 473.15,1302.19 471.7,1304.03 470.16,1302.7 468.24,1305.37 467.13,1304.84 468.88,1301.75 476.8,1296.91 477.23,1298.23 481.22,1297.97 481.82,1294.05 480.75,1288.25 480,1290.47 476.98,1292.55 476.24,1291.07 477.19,1286.77 472.71,1282.14 469.13,1281.44 468.26,1279.2 465.19,1278.52 462.29,1280.5 453.85,1288.41 452.53,1292.07 448.2,1294.56 447.23,1294.42 447.89,1292.01 444.27,1291.17 446.77,1284.67 441.03,1286.42 447.47,1276.62 449.91,1267.69 453.63,1264.04 458.3,1262.9 462.56,1258.78 463.85,1256.59 463.41,1251.19 464.64,1247.81 471.67,1245.96 471.97,1243.17 474.88,1241.91 473.26,1239.57 475.98,1237.36 478.59,1236.84 481.25,1234.11 485.16,1234.6 486.14,1238.57 488.92,1241.62 492.48,1239.58 501.86,1237.77 504.8,1235.26 515.77,1236.19 518.84,1239.4 521.25,1245.14 520.36,1245.96" fill="none" stroke="#1e1e1e" stroke-width="1.44" stroke-linecap="round" stroke-linejoin="round"/>
<path d="M215.39,790.23L217.67,789.24L219.34,790.94L216.05,791.86L215.39,790.23Z" fill-rule="evenodd" fill="#4682b4" fill-opacity="0.471"/>
<polyline points="215.39,790.23 217.67,789.24 219.34,790.94 216.05,791.86 215.39,790.23" fill="none" stroke="#1e1e1e" stroke-width="1.44" stroke-linecap="round" stroke-linejoin="round"/>
<path d="M551.82,1082.35L548.31,1077.18L549.53,1077.28L551.63,1079.55L552.51,1081.27L551.82,1082.35Z" fill-rule="evenodd" fill="#4682b4" fill-opacity="0.471"/>
<polyline points="551.82,1082.35 548.31,1077.18 549.53,1077.28 551.63,1079.55 552.51,1081.27 551.82,1082.35" fill="none" stroke="#1e1e1e" stroke-width="1.44" stroke-linecap="round" stroke-linejoin="round"/>
<path d="M435.84,977.12L433.02,979.06L433.36,976.73L435.84,977.12Z" fill-rule="evenodd" fill="#4682b4" fill-opacity="0.471"/>
<polyline points="435.84,977.12 433.02,979.06 433.36,976.73 435.84,977.12" fill="none" stroke="#1e1e1e" stroke-width="1.44" stroke-linecap="round" stroke-linejoin="round"/>
<path d="M380.66,651.63L360.63,671.91L356.49,672.65L355.21,674.39L352.03,674.34L351.97,672.78L349.86,672.04L337.85,671.81L332.05,673.68L329.87,672.42L321.85,672.68L313.61,667.7L312.44,665.97L313.7,659.4L330.97,644.18L337.08,642.68L344.55,635.05L350.3,631.01L357.22,629.94L370.01,624.23L371.53,622.66L378.6,622.34L380.45,620.83L383.47,620.99L387.77,619.32L391.19,620.32L392.54,619.47L393.18,621.76L395.6,619.59L396.54,624.85L392.16,629.51L389.57,634.59L384.75,639.17L382.61,642.98L380.66,651.63Z" fill-rule="evenodd" fill="#4682b4" fill-opacity="0.471"/>
<polyline points="380.66,651.63 360.63,671.91 356.49,672.65 355.21,674.39 352.03,674.34 351.97,672.78 349.86,672.04 337.85,671.81 332.05,673.68 329.87,672.42 321.85,672.68 313.61,667.7 312.44,665.97 313.7,659.4 330.97,644.18 337.08,642.68 344.55,635.05 350.3,631.01 357.22,629.94 370.01,624.23 371.53,622.66 378.6,622.34 380.45,620.83 383.47,620.99 387.77,619.32 391.19,620.32 392.54,619.47 393.18,621.76 395.6,619.59 396.54,624.85 392.16,629.51 389.57,634.59 384.75,639.17 382.61,642.98 380.66,651.63" fill="none" stroke="#1e1e1e" stroke-width="1.44" stroke-linecap="round" stroke-linejoin="round"/>
<path d="M166.74,575.32L165.67,574.07L166.87,572.61L170.58,573.39L169.98,574.52L166.74,575.32Z" fill-rule="evenodd" fill="#4682b4" fill-opacity="0.471"/>
<polyline points="166.74,575.32 165.67,574.07 166.87,572.61 170.58,573.39 169.98,574.52 166.74,575.32" fill="none" stroke="#1e1e1e" stroke-width="1.44" stroke-linecap="round" stroke-linejoin="round"/>
<path d="M339.81,965.91L339.27,963.79L340.01,963.55L340.86,964.58L339.81,965.91Z" fill-rule="evenodd" fill="#4682b4" fill-opacity="0.471"/>
<polyline points="339.81,965.91 339.27,963.79 340.01,963.55 340.86,964.58 339.81,965.91" fill="none" stroke="#1e1e1e" stroke-width="1.44" stroke-linecap="round" stroke-linejoin="round"/>
<path d="M186.44,717.01L183.82,716.93L183.53,716.25L186.44,717.01Z" fill-rule="evenodd" fill="#4682b4" fill-opacity="0.471"/>
<polyline points="186.44,717.01 183.82,716.93 183.53,716.25 186.44,717.01" fill="none" stroke="#1e1e1e" stroke-width="1.44" stroke-linecap="round" stroke-linejoin="round"/>
<path d="M343.94,969.08L341.72,969.33L341.45,968.19L343.41,966.19L343.94,969.08Z" fill-rule="evenodd" fill="#4682b4" fill-opacity="0.471"/>
<polyline points="343.94,969.08 341.72,969.33 341.45,968.19 343.41,966.19 343.94,969.08" fill="none" stroke="#1e1e1e" stroke-width="1.44" stroke-linecap="round" stroke-linejoin="round"/>
<path d="M278.86,213.5L277.47,212.96L278.42,211.59L279.21,212.28L278.86,213.5Z" fill-rule="evenodd" fill="#4682b4" fill-opacity="0.471"/>
<polyline points="278.86,213.5 277.47,212.96 278.42,211.59 279.21,212.28 278.86,213.5" fill="none" stroke="#1e1e1e" stroke-width="1.44" stroke-linecap="round" stroke-linejoin="round"/>
<path d="M456.7,727.58L456.66,729.18L454.58,731.48L458.03,737.13L457.02,738.74L457.92,738.99L459.55,749.69L462.15,752.13L461.88,753.72L463.49,755.89L463.49,759.3L464.62,761.06L464.09,766.08L465.29,768.61L464.64,769.38L466.01,770.52L466.7,774.16L468.09,774.06L469.45,775.9L469.92,786.13L471.69,789.5L470.47,789.84L469.93,794.83L473.44,796.42L471.91,798.64L469.39,798.39L468.29,799.37L471.39,809.81L466.41,813.31L466.27,816.04L464.55,816.67L463.5,819.33L459.1,820.86L458.65,818.32L456.38,817.74L454.93,821.97L447.44,812.65L450.01,804.11L447.59,800.68L448.64,792.96L444.77,785.64L442.65,776.95L443.22,762.95L440.89,757.05L435.96,753.25L436.59,748.01L433.59,746.21L433.16,744.78L434.34,741.03L431.75,737.02L431.55,733.91L428.36,730.12L430.76,725.54L427.73,720.17L429.94,718.96L431.45,715.96L430.52,714.09L432.3,710.56L431.25,707.17L434.31,699.18L433.5,696.97L438.42,693.42L435.34,691L436.66,686.87L434.97,679.52L436.77,670.85L435.87,669.2L438.17,667.05L441.79,666.87L443.62,668.53L440.94,676.15L441.4,681.45L444.5,684.4L448.95,684.21L450,686.12L449.59,690.78L451.13,695.21L451.49,702.22L447.47,707.81L449.64,711.12L448.6,711.91L449.86,712.43L449.45,715.11L451.59,718.81L450.79,719.53L452.25,720.15L451.35,721.86L452.79,722.79L452.48,724.54L456.7,727.58Z" fill-rule="evenodd" fill="#4682b4" fill-opacity="0.471"/>
<polyline points="456.7,727.58 456.66,729.18 454.58,731.48 458.03,737.13 457.02,738.74 457.92,738.99 459.55,749.69 462.15,752.13 461.88,753.72 463.49,755.89 463.49,759.3 464.62,761.06 464.09,766.08 465.29,768.61 464.64,769.38 466.01,770.52 466.7,774.16 468.09,774.06 469.45,775.9 469.92,786.13 471.69,789.5 470.47,789.84 469.93,794.83 473.44,796.42 471.91,798.64 469.39,798.39 468.29,799.37 471.39,809.81 466.41,813.31 466.27,816.04 464.55,816.67 463.5,819.33 459.1,820.86 458.65,818.32 456.38,817.74 454.93,821.97 447.44,812.65 450.01,804.11 447.59,800.68 448.64,792.96 444.77,785.64 442.65,776.95 443.22,762.95 440.89,757.05 435.96,753.25 436.59,748.01 433.59,746.21 433.16,744.78 434.34,741.03 431.75,737.02 431.55,733.91 428.36,730.12 430.76,725.54 427.73,720.17 429.94,718.96 431.45,715.96 430.52,714.09 432.3,710.56 431.25,707.17 434.31,699.18 433.5,696.97 438.42,693.42 435.34,691 436.66,686.87 434.97,679.52 436.77,670.85 435.87,669.2 438.17,667.05 441.79,666.87 443.62,668.53 440.94,676.15 441.4,681.45 444.5,684.4 448.95,684.21 450,686.12 449.59,690.78 451.13,695.21 451.49,702.22 447.47,707.81 449.64,711.12 448.6,711.91 449.86,712.43 449.45,715.11 451.59,718.81 450.79,719.53 452.25,720.15 451.35,721.86 452.79,722.79 452.48,724.54 456.7,727.58" fill="none" stroke="#1e1e1e" stroke-width="1.44" stroke-linecap="round" stroke-linejoin="round"/>
<path d="M356.13,964.16L355.71,963.52L355.02,964.41L354.47,961.61L353.04,962.18L354.17,958.98L356.7,961.38L356.13,964.16Z" fill-rule="evenodd" fill="#4682b4" fill-opacity="0.471"/>
<polyline points="356.13,964.16 355.71,963.52 355.02,964.41 354.47,961.61 353.04,962.18 354.17,958.98 356.7,961.38 356.13,964.16" fill="none" stroke="#1e1e1e" stroke-width="1.44" stroke-linecap="round" stroke-linejoin="round"/>
<path d="M298.39,192.21L299.94,192.15L300.24,193.97L298.98,193.84L298.39,192.21Z" fill-rule="evenodd" fill="#4682b4" fill-opacity="0.471"/>
<polyline points="298.39,192.21 299.94,192.15 300.24,193.97 298.98,193.84 298.39,192.21" fill="none" stroke="#1e1e1e" stroke-width="1.44" stroke-linecap="round" stroke-linejoin="round"/>
<path d="M276.74,244.14L274.6,243.7L273.73,245.02L270.32,243.16L266.62,245.91L262.81,246.91L259.01,245.33L257.98,248.55L259.61,249.75L259.75,252.26L262.35,253.91L262.61,256.87L255.55,262.13L251.35,260.7L250.16,256.24L251.6,250.95L251.29,247.53L249.19,244.99L244.96,243.16L240.45,238.35L238.53,234.59L235.05,231.91L232.89,225.33L234.5,223.71L233.89,221.07L235.03,218.39L234.16,216.36L235.01,210.78L233.99,210.31L235.34,209.59L238.95,202.01L248.22,195.06L251.59,194.95L252.61,193.02L257.17,193.67L258.64,192.77L261.35,195.83L262.9,195.24L265.37,196.41L270.76,202.68L270.33,204.89L271.98,206.51L272.82,210.52L273.97,210.74L273.73,212.52L274.66,212.64L273.7,213.76L277.35,217.23L277.25,220.45L280.75,222.44L279.97,224.63L279.64,222.85L278.31,222.26L275.64,224.95L275.28,230.46L275.84,231.35L276.69,230.75L276.26,233.69L279.18,236.92L281.63,236.03L283.35,233.82L286.96,236.3L285.9,238.51L282.3,238.9L280.08,241.08L278.08,241.3L276.74,244.14Z" fill-rule="evenodd" fill="#4682b4" fill-opacity="0.471"/>
<polyline points="276.74,244.14 274.6,243.7 273.73,245.02 270.32,243.16 266.62,245.91 262.81,246.91 259.01,245.33 257.98,248.55 259.61,249.75 259.75,252.26 262.35,253.91 262.61,256.87 255.55,262.13 251.35,260.7 250.16,256.24 251.6,250.95 251.29,247.53 249.19,244.99 244.96,243.16 240.45,238.35 238.53,234.59 235.05,231.91 232.89,225.33 234.5,223.71 233.89,221.07 235.03,218.39 234.16,216.36 235.01,210.78 233.99,210.31 235.34,209.59 238.95,202.01 248.22,195.06 251.59,194.95 252.61,193.02 257.17,193.67 258.64,192.77 261.35,195.83 262.9,195.24 265.37,196.41 270.76,202.68 270.33,204.89 271.98,206.51 272.82,210.52 273.97,210.74 273.73,212.52 274.66,212.64 273.7,213.76 277.35,217.23 277.25,220.45 280.75,222.44 279.97,224.63 279.64,222.85 278.31,222.26 275.64,224.95 275.28,230.46 275.84,231.35 276.69,230.75 276.26,233.69 279.18,236.92 281.63,236.03 283.35,233.82 286.96,236.3 285.9,238.51 282.3,238.9 280.08,241.08 278.08,241.3 276.74,244.14" fill="none" stroke="#1e1e1e" stroke-width="1.44" stroke-linecap="round" stroke-linejoin="round"/>
<path d="M195.56,653.12L193.15,650.73L192.74,647.19L195.16,646.97L197.94,648.57L198.62,651.33L195.56,653.12Z" fill-rule="evenodd" fill="#4682b4" fill-opacity="0.471"/>
<polyline points="195.56,653.12 193.15,650.73 192.74,647.19 195.16,646.97 197.94,648.57 198.62,651.33 195.56,653.12" fill="none" stroke="#1e1e1e" stroke-width="1.44" stroke-linecap="round" stroke-linejoin="round"/>
<path d="M239.45,816.41L236.88,815.05L238.71,812.74L240.34,814.72L239.45,816.41Z" fill-rule="evenodd" fill="#4682b4" fill-opacity="0.471"/>
<polyline points="239.45,816.41 236.88,815.05 238.71,812.74 240.34,814.72 239.45,816.41" fill="none" stroke="#1e1e1e" stroke-width="1.44" stroke-linecap="round" stroke-linejoin="round"/>
<path d="M158.31,557.27L155.9,555.89L157.2,553.08L160.21,552.8L160.98,554.04L160.35,556.66L158.31,557.27Z" fill-rule="evenodd" fill="#4682b4" fill-opacity="0.471"/>
<polyline points="158.31,557.27 155.9,555.89 157.2,553.08 160.21,552.8 160.98,554.04 160.35,556.66 158.31,557.27" fill="none" stroke="#1e1e1e" stroke-width="1.44" stroke-linecap="round" stroke-linejoin="round"/>
<path d="M187.02,645.11L185.71,648.18L185.55,646.28L187.02,645.11Z" fill-rule="evenodd" fill="#4682b4" fill-opacity="0.471"/>
<polyline points="187.02,645.11 185.71,648.18 185.55,646.28 187.02,645.11" fill="none" stroke="#1e1e1e" stroke-width="1.44" stroke-linecap="round" stroke-linejoin="round"/>
<path d="M296.15,190.48L305.42,181.72L306.52,179.26L305.55,177.61L306,175.06L312.02,174.66L315.91,175.68L321.41,174.26L322.38,179.19L321.76,182.58L313.82,183.89L310.94,187L302.14,188.51L297.68,191.66L296.15,190.48Z" fill-rule="evenodd" fill="#4682b4" fill-opacity="0.471"/>
<polyline points="296.15,190.48 305.42,181.72 306.52,179.26 305.55,177.61 306,175.06 312.02,174.66 315.91,175.68 321.41,174.26 322.38,179.19 321.76,182.58 313.82,183.89 310.94,187 302.14,188.51 297.68,191.66 296.15,190.48" fill="none" stroke="#1e1e1e" stroke-width="1.44" stroke-linecap="round" stroke-linejoin="round"/>
<path d="M270.85,165.4L271.69,162.68L271.9,165.15L270.85,165.4Z" fill-rule="evenodd" fill="#4682b4" fill-opacity="0.471"/>
<polyline points="270.85,165.4 271.69,162.68 271.9,165.15 270.85,165.4" fill="none" stroke="#1e1e1e" stroke-width="1.44" stroke-linecap="round" stroke-linejoin="round"/>
<path d="M509.2,1228.87L504.73,1228.34L502.22,1223.44L504.82,1223.31L508.98,1226.16L509.2,1228.87Z" fill-rule="evenodd" fill="#4682b4" fill-opacity="0.471"/>
<polyline points="509.2,1228.87 504.73,1228.34 502.22,1223.44 504.82,1223.31 508.98,1226.16 509.2,1228.87" fill="none" stroke="#1e1e1e" stroke-width="1.44" stroke-linecap="round" stroke-linejoin="round"/>
<path d="M493.54,1046.91L492.88,1045.71L493.82,1044.36L494.41,1045L493.54,1046.91Z" fill-rule="evenodd" fill="#4682b4" fill-opacity="0.471"/>
<polyline points="493.54,1046.91 492.88,1045.71 493.82,1044.36 494.41,1045 493.54,1046.91" fill="none" stroke="#1e1e1e" stroke-width="1.44" stroke-linecap="round" stroke-linejoin="round"/>
<path d="M687.45,1535.14L695.69,1537.78L695.56,1539.05L696.32,1538.11L697.67,1538.84L700.72,1542.59L701.74,1545.22L701.19,1546.66L702.29,1546.35L704.82,1549.17L705.7,1554.96L703.76,1558.05L705.71,1560.06L705.88,1564.5L707.92,1564.12L708.68,1566.61L713.89,1569.76L716.25,1569.48L722.43,1565.93L726.28,1565.31L729.24,1572.24L732.67,1575.61L732.15,1577.22L727.09,1576.7L718.78,1578.51L716.11,1578.01L714.92,1579.81L712.84,1579.39L711.61,1580.53L716.04,1588.06L721.9,1592.96L730.32,1596.71L734.66,1599.32L734.32,1600.36L735,1599.82L740.9,1603.52L742.15,1606.25L741.06,1606.84L742.7,1606.65L745.15,1609.58L747.63,1615.11L746.9,1616.1L748.63,1619.04L748.44,1624.83L740.47,1633.8L737.15,1634.62L733.72,1637.8L726.32,1635.37L718.64,1629.65L707.53,1626.24L704.46,1623.1L700.3,1622.29L696.55,1624.07L687.02,1620.44L683.3,1618.59L682.76,1617.31L676.79,1615.84L674.82,1611.16L665.65,1609.46L662.99,1607.53L660.55,1607.25L657.35,1603.82L656.89,1596.32L659.59,1594.68L663.67,1589.75L661.89,1586.93L661.52,1581.83L656.17,1574.21L657.74,1563.57L659.14,1563.1L660.43,1559.71L658.79,1552.63L661.82,1545.81L669.79,1537.78L671.99,1537.97L672.9,1536.34L681.87,1537.42L687.45,1535.14Z" fill-rule="evenodd" fill="#4682b4" fill-opacity="0.471"/>
<polyline points="687.45,1535.14 695.69,1537.78 695.56,1539.05 696.32,1538.11 697.67,1538.84 700.72,1542.59 701.74,1545.22 701.19,1546.66 702.29,1546.35 704.82,1549.17 705.7,1554.96 703.76,1558.05 705.71,1560.06 705.88,1564.5 707.92,1564.12 708.68,1566.61 713.89,1569.76 716.25,1569.48 722.43,1565.93 726.28,1565.31 729.24,1572.24 732.67,1575.61 732.15,1577.22 727.09,1576.7 718.78,1578.51 716.11,1578.01 714.92,1579.81 712.84,1579.39 711.61,1580.53 716.04,1588.06 721.9,1592.96 730.32,1596.71 734.66,1599.32 734.32,1600.36 735,1599.82 740.9,1603.52 742.15,1606.25 741.06,1606.84 742.7,1606.65 745.15,1609.58 747.63,1615.11 746.9,1616.1 748.63,1619.04 748.44,1624.83 740.47,1633.8 737.15,1634.62 733.72,1637.8 726.32,1635.37 718.64,1629.65 707.53,1626.24 704.46,1623.1 700.3,1622.29 696.55,1624.07 687.02,1620.44 683.3,1618.59 682.76,1617.31 676.79,1615.84 674.82,1611.16 665.65,1609.46 662.99,1607.53 660.55,1607.25 657.35,1603.82 656.89,1596.32 659.59,1594.68 663.67,1589.75 661.89,1586.93 661.52,1581.83 656.17,1574.21 657.74,1563.57 659.14,1563.1 660.43,1559.71 658.79,1552.63 661.82,1545.81 669.79,1537.78 671.99,1537.97 672.9,1536.34 681.87,1537.42 687.45,1535.14" fill="none" stroke="#1e1e1e" stroke-width="1.44" stroke-linecap="round" stroke-linejoin="round"/>
<path d="M348.6,953.89L354.4,950.96L356.95,952.68L353.15,955.89L348.55,955.96L348.6,953.89Z" fill-rule="evenodd" fill="#4682b4" fill-opacity="0.471"/>
<polyline points="348.6,953.89 354.4,950.96 356.95,952.68 353.15,955.89 348.55,955.96 348.6,953.89" fill="none" stroke="#1e1e1e" stroke-width="1.44" stroke-linecap="round" stroke-linejoin="round"/>
<path d="M134.76,707.38L133.45,708.23L131.47,707.34L132.41,706.71L134.76,707.38Z" fill-rule="evenodd" fill="#4682b4" fill-opacity="0.471"/>
<polyline points="134.76,707.38 133.45,708.23 131.47,707.34 132.41,706.71 134.76,707.38" fill="none" stroke="#1e1e1e" stroke-width="1.44" stroke-linecap="round" stroke-linejoin="round"/>
<path d="M227.46,137.63L222.36,140.8L219.77,144.89L221.02,146.15L222.71,145.93L227.93,141.6L228.86,146.07L225.42,150.69L220.92,152.85L216.35,152.32L212.05,149.94L208.54,144.14L210.77,139.28L215.86,135L220.7,135.03L227.46,137.63Z" fill-rule="evenodd" fill="#4682b4" fill-opacity="0.471"/>
<polyline points="227.46,137.63 222.36,140.8 219.77,144.89 221.02,146.15 222.71,145.93 227.93,141.6 228.86,146.07 225.42,150.69 220.92,152.85 216.35,152.32 212.05,149.94 208.54,144.14 210.77,139.28 215.86,135 220.7,135.03 227.46,137.63" fill="none" stroke="#1e1e1e" stroke-width="1.44" stroke-linecap="round" stroke-linejoin="round"/>
<path d="M191.41,625.71L190.31,624.21L192.2,622L193.14,625.06L191.41,625.71Z" fill-rule="evenodd" fill="#4682b4" fill-opacity="0.471"/>
<polyline points="191.41,625.71 190.31,624.21 192.2,622 193.14,625.06 191.41,625.71" fill="none" stroke="#1e1e1e" stroke-width="1.44" stroke-linecap="round" stroke-linejoin="round"/>
<path d="M968.19,1784.86L969.87,1782.76L967.84,1781.19L975.21,1782.21L976.55,1781.68L976.7,1780.4L978.64,1780.1L976.78,1785.18L976.67,1787.47L978.17,1788.45L975.91,1789.05L974.98,1791.13L974.29,1790.14L971.07,1790.17L968.19,1784.86Z" fill-rule="evenodd" fill="#4682b4" fill-opacity="0.471"/>
<polyline points="968.19,1784.86 969.87,1782.76 967.84,1781.19 975.21,1782.21 976.55,1781.68 976.7,1780.4 978.64,1780.1 976.78,1785.18 976.67,1787.47 978.17,1788.45 975.91,1789.05 974.98,1791.13 974.29,1790.14 971.07,1790.17 968.19,1784.86" fill="none" stroke="#1e1e1e" stroke-width="1.44" stroke-linecap="round" stroke-linejoin="round"/>
<path d="M487.53,963.55L482.52,960.56L479.75,954.04L483.97,950.64L491.44,950.26L494.78,954.91L496.18,962.08L492.8,964.03L487.53,963.55Z" fill-rule="evenodd" fill="#4682b4" fill-opacity="0.471"/>
<polyline points="487.53,963.55 482.52,960.56 479.75,954.04 483.97,950.64 491.44,950.26 494.78,954.91 496.18,962.08 492.8,964.03 487.53,963.55" fill="none" stroke="#1e1e1e" stroke-width="1.44" stroke-linecap="round" stroke-linejoin="round"/>
<path d="M199.38,707.61L199.39,705.87L200.79,705.35L200.94,707.14L199.38,707.61Z" fill-rule="evenodd" fill="#4682b4" fill-opacity="0.471"/>
<polyline points="199.38,707.61 199.39,705.87 200.79,705.35 200.94,707.14 199.38,707.61" fill="none" stroke="#1e1e1e" stroke-width="1.44" stroke-linecap="round" stroke-linejoin="round"/>
<path d="M263.4,983.03L258.81,979.55L259.84,977.45L260.95,977.24L263.16,979.3L263.4,983.03Z" fill-rule="evenodd" fill="#4682b4" fill-opacity="0.471"/>
<polyline points="263.4,983.03 258.81,979.55 259.84,977.45 260.95,977.24 263.16,979.3 263.4,983.03" fill="none" stroke="#1e1e1e" stroke-width="1.44" stroke-linecap="round" stroke-linejoin="round"/>
<path d="M545.73,1044.86L545.58,1043.16L546.94,1043.25L547.16,1044.9L545.73,1044.86Z" fill-rule="evenodd" fill="#4682b4" fill-opacity="0.471"/>
<polyline points="545.73,1044.86 545.58,1043.16 546.94,1043.25 547.16,1044.9 545.73,1044.86" fill="none" stroke="#1e1e1e" stroke-width="1.44" stroke-linecap="round" stroke-linejoin="round"/>
<path d="M293.36,960.28L291.9,959.5L293.39,958.16L293.36,960.28Z" fill-rule="evenodd" fill="#4682b4" fill-opacity="0.471"/>
<polyline points="293.36,960.28 291.9,959.5 293.39,958.16 293.36,960.28" fill="none" stroke="#1e1e1e" stroke-width="1.44" stroke-linecap="round" stroke-linejoin="round"/>
<path d="M144.81,713.18L141.55,712.85L141.41,711.78L144.81,713.18Z" fill-rule="evenodd" fill="#4682b4" fill-opacity="0.471"/>
<polyline points="144.81,713.18 141.55,712.85 141.41,711.78 144.81,713.18" fill="none" stroke="#1e1e1e" stroke-width="1.44" stroke-linecap="round" stroke-linejoin="round"/>
<path d="M340.17,961.52L340.03,959.77L342.17,959.62L340.17,961.52Z" fill-rule="evenodd" fill="#4682b4" fill-opacity="0.471"/>
<polyline points="340.17,961.52 340.03,959.77 342.17,959.62 340.17,961.52" fill="none" stroke="#1e1e1e" stroke-width="1.44" stroke-linecap="round" stroke-linejoin="round"/>
<path d="M308.43,960.97L306.54,959.69L308.46,958.99L308.43,960.97Z" fill-rule="evenodd" fill="#4682b4" fill-opacity="0.471"/>
<polyline points="308.43,960.97 306.54,959.69 308.46,958.99 308.43,960.97" fill="none" stroke="#1e1e1e" stroke-width="1.44" stroke-linecap="round" stroke-linejoin="round"/>
<path d="M258.16,844.27L255.52,843.61L253.04,841.26L258.58,842.89L258.16,844.27Z" fill-rule="evenodd" fill="#4682b4" fill-opacity="0.471"/>
<polyline points="258.16,844.27 255.52,843.61 253.04,841.26 258.58,842.89 258.16,844.27" fill="none" stroke="#1e1e1e" stroke-width="1.44" stroke-linecap="round" stroke-linejoin="round"/>
<path d="M454.74,954.19L459.29,936.72L461.64,935.26L467.13,936.22L467.93,938.04L465.77,944.15L465.18,953.32L461.67,957.63L457.13,957.21L454.74,954.19Z" fill-rule="evenodd" fill="#4682b4" fill-opacity="0.471"/>
<polyline points="454.74,954.19 459.29,936.72 461.64,935.26 467.13,936.22 467.93,938.04 465.77,944.15 465.18,953.32 461.67,957.63 457.13,957.21 454.74,954.19" fill="none" stroke="#1e1e1e" stroke-width="1.44" stroke-linecap="round" stroke-linejoin="round"/>
<path d="M124.86,720.42L121.24,719.64L120.68,718.28L122.29,715.93L125.02,718.4L124.86,720.42Z" fill-rule="evenodd" fill="#4682b4" fill-opacity="0.471"/>
<polyline points="124.86,720.42 121.24,719.64 120.68,718.28 122.29,715.93 125.02,718.4 124.86,720.42" fill="none" stroke="#1e1e1e" stroke-width="1.44" stroke-linecap="round" stroke-linejoin="round"/>
<path d="M505.32,1232.01L506.43,1233.12L504.85,1233.94L505.32,1232.01Z" fill-rule="evenodd" fill="#4682b4" fill-opacity="0.471"/>
<polyline points="505.32,1232.01 506.43,1233.12 504.85,1233.94 505.32,1232.01" fill="none" stroke="#1e1e1e" stroke-width="1.44" stroke-linecap="round" stroke-linejoin="round"/>
<path d="M49.11,120.87L47.01,118.93L43.42,109.51L49.59,105.65L53.46,107.26L55.13,111.99L52.54,116.18L52.16,119.99L49.11,120.87Z" fill-rule="evenodd" fill="#4682b4" fill-opacity="0.471"/>
<polyline points="49.11,120.87 47.01,118.93 43.42,109.51 49.59,105.65 53.46,107.26 55.13,111.99 52.54,116.18 52.16,119.99 49.11,120.87" fill="none" stroke="#1e1e1e" stroke-width="1.44" stroke-linecap="round" stroke-linejoin="round"/>
<path d="M477.26,1296.4L476,1296.7L476,1295.68L477.74,1294.84L477.26,1296.4Z" fill-rule="evenodd" fill="#4682b4" fill-opacity="0.471"/>
<polyline points="477.26,1296.4 476,1296.7 476,1295.68 477.74,1294.84 477.26,1296.4" fill="none" stroke="#1e1e1e" stroke-width="1.44" stroke-linecap="round" stroke-linejoin="round"/>
<path d="M167.56,531.07L172.73,535.96L176.5,535.22L176.71,538.11L175.6,540.23L172.65,539.92L166.05,536.08L161.72,529.53L167.56,531.07Z" fill-rule="evenodd" fill="#4682b4" fill-opacity="0.471"/>
<polyline points="167.56,531.07 172.73,535.96 176.5,535.22 176.71,538.11 175.6,540.23 172.65,539.92 166.05,536.08 161.72,529.53 167.56,531.07" fill="none" stroke="#1e1e1e" stroke-width="1.44" stroke-linecap="round" stroke-linejoin="round"/>
<path d="M255.16,838.74L253.18,837.8L253.87,836.61L256.75,837.56L255.16,838.74Z" fill-rule="evenodd" fill="#4682b4" fill-opacity="0.471"/>
<polyline points="255.16,838.74 253.18,837.8 253.87,836.61 256.75,837.56 255.16,838.74" fill="none" stroke="#1e1e1e" stroke-width="1.44" stroke-linecap="round" stroke-linejoin="round"/>
<path d="M184.43,713.19L182.35,713.75L181.88,713.07L184.65,711.68L184.43,713.19Z" fill-rule="evenodd" fill="#4682b4" fill-opacity="0.471"/>
<polyline points="184.43,713.19 182.35,713.75 181.88,713.07 184.65,711.68 184.43,713.19" fill="none" stroke="#1e1e1e" stroke-width="1.44" stroke-linecap="round" stroke-linejoin="round"/>
<path d="M459.78,1040.24L451.2,1038.08L450.43,1038.82L446.21,1037.71L444.76,1033.14L440.33,1030.73L438.35,1020.3L438.96,1018.37L437.78,1017.99L437.03,1014.69L435.11,1014.38L433.66,1012.52L430.23,1006.04L432.96,1004.53L434.48,992.63L441.47,985.75L441.18,982.22L443.21,980.98L439.38,974.38L445.58,974.41L447.44,972.22L449.72,972.83L451.58,976.38L453.1,976.28L454.69,979.11L453.55,982.11L457.58,985.23L457.9,990.89L461.61,993.96L460.99,999.54L464.94,1005.4L468.78,1005.55L471.63,1004.19L471.68,1003.2L479.96,1003.87L483.46,1007.05L484.85,1012.5L487.06,1015.87L486.87,1017.92L489.06,1019.6L492.49,1018.81L492.52,1023.53L497.72,1028.72L507.18,1030.9L514.73,1025.58L520.13,1028.09L524.47,1033.37L527.98,1035.18L526.92,1036.22L524.27,1035.51L523.51,1036.56L523.17,1040.47L525.36,1043.28L524.42,1048.21L523.48,1047.26L524.07,1045.91L519.86,1046.87L509.95,1041.54L503.4,1039.97L500.74,1035.9L495.82,1035.34L492.15,1031.73L480.03,1032.67L473.03,1037.61L470.09,1037.93L468.2,1039.95L469.12,1041.99L467.31,1042.52L465.7,1041.07L464.34,1042.69L461.72,1042.65L459.78,1040.24Z" fill-rule="evenodd" fill="#4682b4" fill-opacity="0.471"/>
<polyline points="459.78,1040.24 451.2,1038.08 450.43,1038.82 446.21,1037.71 444.76,1033.14 440.33,1030.73 438.35,1020.3 438.96,1018.37 437.78,1017.99 437.03,1014.69 435.11,1014.38 433.66,1012.52 430.23,1006.04 432.96,1004.53 434.48,992.63 441.47,985.75 441.18,982.22 443.21,980.98 439.38,974.38 445.58,974.41 447.44,972.22 449.72,972.83 451.58,976.38 453.1,976.28 454.69,979.11 453.55,982.11 457.58,985.23 457.9,990.89 461.61,993.96 460.99,999.54 464.94,1005.4 468.78,1005.55 471.63,1004.19 471.68,1003.2 479.96,1003.87 483.46,1007.05 484.85,1012.5 487.06,1015.87 486.87,1017.92 489.06,1019.6 492.49,1018.81 492.52,1023.53 497.72,1028.72 507.18,1030.9 514.73,1025.58 520.13,1028.09 524.47,1033.37 527.98,1035.18 526.92,1036.22 524.27,1035.51 523.51,1036.56 523.17,1040.47 525.36,1043.28 524.42,1048.21 523.48,1047.26 524.07,1045.91 519.86,1046.87 509.95,1041.54 503.4,1039.97 500.74,1035.9 495.82,1035.34 492.15,1031.73 480.03,1032.67 473.03,1037.61 470.09,1037.93 468.2,1039.95 469.12,1041.99 467.31,1042.52 465.7,1041.07 464.34,1042.69 461.72,1042.65 459.78,1040.24" fill="none" stroke="#1e1e1e" stroke-width="1.44" stroke-linecap="round" stroke-linejoin="round"/>
<path d="M263.48,848.72L265.24,853.17L264.65,853.53L264.35,852.51L263.11,853.72L266.64,856.26L268.19,855.43L267.26,852.3L268.36,853.24L267.68,857.52L265.26,858.82L266.34,861.77L267.85,862.92L271.83,861.47L272.38,864.95L277.01,868.1L278.71,867.48L279.25,865.98L280.34,866.58L279.51,863.81L277.75,863.91L279.23,863.21L276.5,863.75L278.99,862.79L280.64,865.75L280.73,870.45L282.61,872.19L284.66,871.82L287.26,877.42L292.97,877.77L296.97,880.42L299.99,887.22L307.86,892.37L309.93,892.37L311.71,890.45L317.93,891.9L318.25,890.92L315.89,894.84L313.43,896.09L314.35,899.06L317.49,899.68L319.08,903.04L322.83,902.4L324.93,906.92L329.39,908.18L332.27,911.28L335.82,911.74L337.28,908.98L339.19,911.43L340.72,915.23L340.4,919.21L343.98,925.94L342.12,928.45L342.19,930.29L344.77,931.76L343,934.21L341.08,934.5L339.8,939.29L337.98,941.56L339.17,943.62L338.62,947.04L339.98,946.46L340.47,944.65L341.23,946.64L340.47,948.38L342.19,948.07L342.63,946.5L340.98,943.09L342.85,940.2L343.25,938.3L342.3,937.49L346.83,935.07L348.33,932.66L352.13,935.48L356.11,945.36L353.28,947.86L351.59,945.79L349.62,945.54L349.61,946.62L350.85,946.61L350.37,950.36L347.55,951.06L346.33,949.3L343.64,951.32L344.64,953.86L343.57,956.14L339.64,958.36L338.23,961.32L338.37,967.4L335.75,966.78L333.06,967.65L330.77,966.13L330.33,964.26L326.58,960.95L325.98,958.53L323.31,958.87L322.64,957.73L320.05,957.96L316.58,955.86L312.83,955.9L310.88,954.21L306.34,955.8L302.28,954.73L300.64,955.81L295.49,951.41L293.13,953.04L292.77,956.91L289.38,958.25L287.68,960.76L287.62,962.11L291.25,964.39L290.61,967.63L285.36,970.47L284.22,969.71L284.65,967.33L280.54,966.78L278.84,968.27L278.7,973.82L276.47,973.99L277.67,975.63L277.22,977L273.17,977.49L272.12,973.91L270.03,973.65L268.61,974.63L268.67,978.83L267.27,979.47L265.8,978.54L266.86,976.51L265.4,975.78L265.62,973.98L257.94,973.73L257.3,972.02L258.24,970.75L256,970.29L253.29,966.78L249.88,965.25L247.68,962.84L246.59,953.48L251.01,954.33L253.07,952.16L253.84,948.63L252.29,943.45L241.84,933.86L243.79,932.09L242.84,921.9L240.93,920.48L239.28,920.68L238.93,919.21L237.81,919.01L238.84,917.8L238.11,914.39L235.33,913.76L237.79,908.82L237.66,904.98L236.47,903.31L238.19,899.52L237.45,896.43L241.27,892.75L238.98,890.87L237.84,888.07L239.23,885.72L236.7,881.72L237.49,874.17L240.03,868.3L239.17,867.86L237.19,869.66L235.32,869.12L229.83,863.55L225.51,856.71L223.21,848.58L219.55,850.88L213.63,852.58L211.16,857.78L203.03,863.87L199.26,863.18L196.26,858.22L194.11,858.64L188.8,855.65L187.08,856.06L186.59,857.35L182.49,851.78L183.19,850.08L182.37,846.88L180.15,843.71L177.18,843.06L176.63,839.45L177.78,831.51L181.89,826.35L183.58,817.3L184.98,816.63L184.27,815.34L186.22,813.24L184.17,809.21L181.78,798.6L183.15,791.92L185.66,789.49L191.51,788.08L192.95,785.86L195.18,785.4L205.06,787.36L209.44,790L209.35,791.07L210.74,790.51L215.45,793.43L222.54,795L224.52,797.85L222.28,799.07L222.19,801.06L226.76,808.71L226.53,810.62L230.17,811.31L230.99,813.02L233.48,813.73L238.96,821.44L240.91,822.45L243.19,821.8L241.56,824.05L242.91,827.48L238.32,834.45L239.58,836.25L241.44,835.7L242.9,837.37L246.19,838.06L242.31,840.87L242.29,842.02L243.28,843.18L245.34,843.23L249.8,848.17L254.91,850.59L259.98,856.74L260.78,855.84L264.19,857.24L261.84,854.09L261.47,849.67L259.19,845.49L259.85,844.62L263.48,848.72Z" fill-rule="evenodd" fill="#4682b4" fill-opacity="0.471"/>
<polyline points="263.48,848.72 265.24,853.17 264.65,853.53 264.35,852.51 263.11,853.72 266.64,856.26 268.19,855.43 267.26,852.3 268.36,853.24 267.68,857.52 265.26,858.82 266.34,861.77 267.85,862.92 271.83,861.47 272.38,864.95 277.01,868.1 278.71,867.48 279.25,865.98 280.34,866.58 279.51,863.81 277.75,863.91 279.23,863.21 276.5,863.75 278.99,862.79 280.64,865.75 280.73,870.45 282.61,872.19 284.66,871.82 287.26,877.42 292.97,877.77 296.97,880.42 299.99,887.22 307.86,892.37 309.93,892.37 311.71,890.45 317.93,891.9 318.25,890.92 315.89,894.84 313.43,896.09 314.35,899.06 317.49,899.68 319.08,903.04 322.83,902.4 324.93,906.92 329.39,908.18 332.27,911.28 335.82,911.74 337.28,908.98 339.19,911.43 340.72,915.23 340.4,919.21 343.98,925.94 342.12,928.45 342.19,930.29 344.77,931.76 343,934.21 341.08,934.5 339.8,939.29 337.98,941.56 339.17,943.62 338.62,947.04 339.98,946.46 340.47,944.65 341.23,946.64 340.47,948.38 342.19,948.07 342.63,946.5 340.98,943.09 342.85,940.2 343.25,938.3 342.3,937.49 346.83,935.07 348.33,932.66 352.13,935.48 356.11,945.36 353.28,947.86 351.59,945.79 349.62,945.54 349.61,946.62 350.85,946.61 350.37,950.36 347.55,951.06 346.33,949.3 343.64,951.32 344.64,953.86 343.57,956.14 339.64,958.36 338.23,961.32 338.37,967.4 335.75,966.78 333.06,967.65 330.77,966.13 330.33,964.26 326.58,960.95 325.98,958.53 323.31,958.87 322.64,957.73 320.05,957.96 316.58,955.86 312.83,955.9 310.88,954.21 306.34,955.8 302.28,954.73 300.64,955.81 295.49,951.41 293.13,953.04 292.77,956.91 289.38,958.25 287.68,960.76 287.62,962.11 291.25,964.39 290.61,967.63 285.36,970.47 284.22,969.71 284.65,967.33 280.54,966.78 278.84,968.27 278.7,973.82 276.47,973.99 277.67,975.63 277.22,977 273.17,977.49 272.12,973.91 270.03,973.65 268.61,974.63 268.67,978.83 267.27,979.47 265.8,978.54 266.86,976.51 265.4,975.78 265.62,973.98 257.94,973.73 257.3,972.02 258.24,970.75 256,970.29 253.29,966.78 249.88,965.25 247.68,962.84 246.59,953.48 251.01,954.33 253.07,952.16 253.84,948.63 252.29,943.45 241.84,933.86 243.79,932.09 242.84,921.9 240.93,920.48 239.28,920.68 238.93,919.21 237.81,919.01 238.84,917.8 238.11,914.39 235.33,913.76 237.79,908.82 237.66,904.98 236.47,903.31 238.19,899.52 237.45,896.43 241.27,892.75 238.98,890.87 237.84,888.07 239.23,885.72 236.7,881.72 237.49,874.17 240.03,868.3 239.17,867.86 237.19,869.66 235.32,869.12 229.83,863.55 225.51,856.71 223.21,848.58 219.55,850.88 213.63,852.58 211.16,857.78 203.03,863.87 199.26,863.18 196.26,858.22 194.11,858.64 188.8,855.65 187.08,856.06 186.59,857.35 182.49,851.78 183.19,850.08 182.37,846.88 180.15,843.71 177.18,843.06 176.63,839.45 177.78,831.51 181.89,826.35 183.58,817.3 184.98,816.63 184.27,815.34 186.22,813.24 184.17,809.21 181.78,798.6 183.15,791.92 185.66,789.49 191.51,788.08 192.95,785.86 195.18,785.4 205.06,787.36 209.44,790 209.35,791.07 210.74,790.51 215.45,793.43 222.54,795 224.52,797.85 222.28,799.07 222.19,801.06 226.76,808.71 226.53,810.62 230.17,811.31 230.99,813.02 233.48,813.73 238.96,821.44 240.91,822.45 243.19,821.8 241.56,824.05 242.91,827.48 238.32,834.45 239.58,836.25 241.44,835.7 242.9,837.37 246.19,838.06 242.31,840.87 242.29,842.02 243.28,843.18 245.34,843.23 249.8,848.17 254.91,850.59 259.98,856.74 260.78,855.84 264.19,857.24 261.84,854.09 261.47,849.67 259.19,845.49 259.85,844.62 263.48,848.72" fill="none" stroke="#1e1e1e" stroke-width="1.44" stroke-linecap="round" stroke-linejoin="round"/>
<path d="M29.07,89.38L34.01,89.45L35.12,91.44L39.74,93.12L40.93,96.78L38.38,101.29L36.33,100.23L36.64,96.77L35.22,94.21L30.88,93.36L29.76,92.12L29.07,89.38Z" fill-rule="evenodd" fill="#4682b4" fill-opacity="0.471"/>
<polyline points="29.07,89.38 34.01,89.45 35.12,91.44 39.74,93.12 40.93,96.78 38.38,101.29 36.33,100.23 36.64,96.77 35.22,94.21 30.88,93.36 29.76,92.12 29.07,89.38" fill="none" stroke="#1e1e1e" stroke-width="1.44" stroke-linecap="round" stroke-linejoin="round"/>
<path d="M408.99,907.83L406.22,905.87L404.07,905.79L402.21,907.16L400.32,904.29L395.27,903.07L393.72,900.25L389.91,898.32L386.52,892.73L383.48,893.01L378.21,890.48L378.76,886.96L376.13,883.67L376.23,880.34L377.74,877.83L379.75,876.93L383.86,877.61L392.25,875.03L395.65,871.52L400.23,872.44L401.92,871.32L408.92,870.57L410.52,872.5L414.94,869.99L415.55,870.6L417.16,867.31L420.2,867.49L421.32,865.54L420.53,864.14L422.45,864.06L423.7,860.92L427.7,859.71L430.87,856.05L433.95,846.11L439.73,844.62L444.34,845.11L447.37,847.34L450.44,855.84L450.2,861.67L452.8,863.54L452.43,866.79L454.57,870.93L455.71,877.55L457,878.13L456.18,881.67L457.37,883.89L459.25,885.26L462.79,885.47L474.76,892.64L479.3,896.94L481.46,902.14L480.37,908.06L478.71,908.46L478.54,910.23L472.67,914.26L463.13,916.12L453.88,913.85L448.77,917.08L448.03,916.12L443.9,916.66L441.39,915.58L434.96,919.26L432.65,919.2L422.03,913.8L416.66,913.14L409.42,909.73L408.99,907.83Z" fill-rule="evenodd" fill="#4682b4" fill-opacity="0.471"/>
<polyline points="408.99,907.83 406.22,905.87 404.07,905.79 402.21,907.16 400.32,904.29 395.27,903.07 393.72,900.25 389.91,898.32 386.52,892.73 383.48,893.01 378.21,890.48 378.76,886.96 376.13,883.67 376.23,880.34 377.74,877.83 379.75,876.93 383.86,877.61 392.25,875.03 395.65,871.52 400.23,872.44 401.92,871.32 408.92,870.57 410.52,872.5 414.94,869.99 415.55,870.6 417.16,867.31 420.2,867.49 421.32,865.54 420.53,864.14 422.45,864.06 423.7,860.92 427.7,859.71 430.87,856.05 433.95,846.11 439.73,844.62 444.34,845.11 447.37,847.34 450.44,855.84 450.2,861.67 452.8,863.54 452.43,866.79 454.57,870.93 455.71,877.55 457,878.13 456.18,881.67 457.37,883.89 459.25,885.26 462.79,885.47 474.76,892.64 479.3,896.94 481.46,902.14 480.37,908.06 478.71,908.46 478.54,910.23 472.67,914.26 463.13,916.12 453.88,913.85 448.77,917.08 448.03,916.12 443.9,916.66 441.39,915.58 434.96,919.26 432.65,919.2 422.03,913.8 416.66,913.14 409.42,909.73 408.99,907.83" fill="none" stroke="#1e1e1e" stroke-width="1.44" stroke-linecap="round" stroke-linejoin="round"/>
<path d="M516.35,1128.55L514.53,1130.15L511.79,1126.61L513.48,1126.53L516.35,1128.55Z" fill-rule="evenodd" fill="#4682b4" fill-opacity="0.471"/>
<polyline points="516.35,1128.55 514.53,1130.15 511.79,1126.61 513.48,1126.53 516.35,1128.55" fill="none" stroke="#1e1e1e" stroke-width="1.44" stroke-linecap="round" stroke-linejoin="round"/>
<path d="M359.39,965.21L358.42,964.1L359.83,963.69L359.39,965.21Z" fill-rule="evenodd" fill="#4682b4" fill-opacity="0.471"/>
<polyline points="359.39,965.21 358.42,964.1 359.83,963.69 359.39,965.21" fill="none" stroke="#1e1e1e" stroke-width="1.44" stroke-linecap="round" stroke-linejoin="round"/>
<path d="M324.9,960.79L324.37,959.6L326.13,958.95L324.9,960.79Z" fill-rule="evenodd" fill="#4682b4" fill-opacity="0.471"/>
<polyline points="324.9,960.79 324.37,959.6 326.13,958.95 324.9,960.79" fill="none" stroke="#1e1e1e" stroke-width="1.44" stroke-linecap="round" stroke-linejoin="round"/>
<path d="M359.84,963.6L357.48,962.12L358.91,961.81L359.84,963.6Z" fill-rule="evenodd" fill="#4682b4" fill-opacity="0.471"/>
<polyline points="359.84,963.6 357.48,962.12 358.91,961.81 359.84,963.6" fill="none" stroke="#1e1e1e" stroke-width="1.44" stroke-linecap="round" stroke-linejoin="round"/>
<path d="M55.9,486.52L59.01,492.58L63.15,493.45L65.06,496.44L68.29,495.72L70.5,498.3L69.31,501.91L76.48,521.39L77.51,527.22L76.92,532.16L79.97,541.71L78.28,550.29L84.51,559.29L83.28,565.43L85.57,573.64L85.44,579.75L87.59,587.73L91.27,590.6L101.76,592.53L107.59,591.32L113.45,592.25L121.67,589.18L122.62,584.57L125.14,581.19L128.8,579.08L129.84,572.74L131.26,571.37L130.66,561.51L128.65,557.56L132,545.74L128.96,538.01L129.72,532.82L132.16,530.14L140.49,526.28L147.69,530.41L155.76,529.53L157.8,530.34L156.69,532.34L151.99,532.76L148.9,534.86L148.15,537.32L150.01,540.54L148.87,543.11L151.86,544.62L154.56,550.47L153.72,553.9L150.81,554.92L154.2,556.13L153.68,558.3L154.86,562.82L156.99,562.85L154.62,564.89L155.33,571.88L160.04,576.88L163.69,585.86L166.65,584.33L169.8,579.45L172.76,580.69L175.13,583.38L174.24,588.2L176.12,592.79L177.96,594.38L177.02,597.32L179.81,602.39L179.13,608.68L180.46,610.49L179.13,614.84L174.27,614.23L173.62,615.92L176.08,618.62L181.03,620.27L185.28,623.21L187.66,626.38L189.45,631.45L189.53,638.54L185.66,637.09L183.84,634.18L181.96,635.12L182.78,639.32L185.67,642.14L184.67,643.07L184.47,649.06L188.71,655.51L189.13,661.16L192.77,667.54L192.14,670.84L193.39,671.47L195.28,670.22L197.14,671.37L195.86,675.95L200.07,681.47L201.47,680.89L202.54,677.1L201.81,676.02L202.78,674.96L203.13,687.57L199.75,688.64L192.01,686.41L183.3,685.65L178.54,687.5L176.42,688.82L173.56,698.16L171.74,698.6L165.51,705.38L163.95,709.26L162.59,708.67L160.67,710.42L158.87,710.39L158.72,709.07L151.33,710.27L145.02,703.65L142.6,704.02L143.29,704.41L141.31,705.5L135.05,704.45L132.81,706.38L127.91,704.39L115.68,706.04L109.27,709.92L108.72,712.13L110.15,712.66L110.97,714.73L108.33,717.82L106.6,717.88L103.7,715.89L95.5,718.78L94.68,721.14L96.12,724.79L92.44,728.46L86.98,728.58L80.49,724.98L76.12,724.02L73.73,718.31L76.84,716.2L76.96,705.73L74.77,704.72L73.43,701.34L71.55,700.49L70.77,697.11L68.73,696.97L65.55,694.67L64.53,692.18L61.72,689.95L55.7,674.96L47.86,664.08L46.25,658.6L41.94,654.46L41.89,650.11L47.05,638.52L45.73,627.65L48.41,618.07L48.43,612.57L44.56,604.48L41.44,593.92L38.54,589.44L38.68,579.61L31.98,560.88L30.65,544.85L22.93,533.37L19.89,521.81L16.22,513.23L15.58,508.15L12.7,504.35L14.85,495.47L15.05,480.87L16.38,479.32L15.73,471.87L17.19,467.71L20.8,464.13L21.19,460.53L19.97,460.28L21.47,456.47L28.69,452.15L28.61,451.01L31.27,448.79L33.37,448.88L32.41,450.48L33.88,451.79L33.73,454.53L36.81,455.77L37.21,458.38L39.11,458.8L38.85,461L41.59,463.15L40.86,464.92L42.06,468.27L47.52,471.41L49.46,474.11L49.32,477.16L51.32,478.79L53.14,484.28L55.9,486.52Z" fill-rule="evenodd" fill="#4682b4" fill-opacity="0.471"/>
<polyline points="55.9,486.52 59.01,492.58 63.15,493.45 65.06,496.44 68.29,495.72 70.5,498.3 69.31,501.91 76.48,521.39 77.51,527.22 76.92,532.16 79.97,541.71 78.28,550.29 84.51,559.29 83.28,565.43 85.57,573.64 85.44,579.75 87.59,587.73 91.27,590.6 101.76,592.53 107.59,591.32 113.45,592.25 121.67,589.18 122.62,584.57 125.14,581.19 128.8,579.08 129.84,572.74 131.26,571.37 130.66,561.51 128.65,557.56 132,545.74 128.96,538.01 129.72,532.82 132.16,530.14 140.49,526.28 147.69,530.41 155.76,529.53 157.8,530.34 156.69,532.34 151.99,532.76 148.9,534.86 148.15,537.32 150.01,540.54 148.87,543.11 151.86,544.62 154.56,550.47 153.72,553.9 150.81,554.92 154.2,556.13 153.68,558.3 154.86,562.82 156.99,562.85 154.62,564.89 155.33,571.88 160.04,576.88 163.69,585.86 166.65,584.33 169.8,579.45 172.76,580.69 175.13,583.38 174.24,588.2 176.12,592.79 177.96,594.38 177.02,597.32 179.81,602.39 179.13,608.68 180.46,610.49 179.13,614.84 174.27,614.23 173.62,615.92 176.08,618.62 181.03,620.27 185.28,623.21 187.66,626.38 189.45,631.45 189.53,638.54 185.66,637.09 183.84,634.18 181.96,635.12 182.78,639.32 185.67,642.14 184.67,643.07 184.47,649.06 188.71,655.51 189.13,661.16 192.77,667.54 192.14,670.84 193.39,671.47 195.28,670.22 197.14,671.37 195.86,675.95 200.07,681.47 201.47,680.89 202.54,677.1 201.81,676.02 202.78,674.96 203.13,687.57 199.75,688.64 192.01,686.41 183.3,685.65 178.54,687.5 176.42,688.82 173.56,698.16 171.74,698.6 165.51,705.38 163.95,709.26 162.59,708.67 160.67,710.42 158.87,710.39 158.72,709.07 151.33,710.27 145.02,703.65 142.6,704.02 143.29,704.41 141.31,705.5 135.05,704.45 132.81,706.38 127.91,704.39 115.68,706.04 109.27,709.92 108.72,712.13 110.15,712.66 110.97,714.73 108.33,717.82 106.6,717.88 103.7,715.89 95.5,718.78 94.68,721.14 96.12,724.79 92.44,728.46 86.98,728.58 80.49,724.98 76.12,724.02 73.73,718.31 76.84,716.2 76.96,705.73 74.77,704.72 73.43,701.34 71.55,700.49 70.77,697.11 68.73,696.97 65.55,694.67 64.53,692.18 61.72,689.95 55.7,674.96 47.86,664.08 46.25,658.6 41.94,654.46 41.89,650.11 47.05,638.52 45.73,627.65 48.41,618.07 48.43,612.57 44.56,604.48 41.44,593.92 38.54,589.44 38.68,579.61 31.98,560.88 30.65,544.85 22.93,533.37 19.89,521.81 16.22,513.23 15.58,508.15 12.7,504.35 14.85,495.47 15.05,480.87 16.38,479.32 15.73,471.87 17.19,467.71 20.8,464.13 21.19,460.53 19.97,460.28 21.47,456.47 28.69,452.15 28.61,451.01 31.27,448.79 33.37,448.88 32.41,450.48 33.88,451.79 33.73,454.53 36.81,455.77 37.21,458.38 39.11,458.8 38.85,461 41.59,463.15 40.86,464.92 42.06,468.27 47.52,471.41 49.46,474.11 49.32,477.16 51.32,478.79 53.14,484.28 55.9,486.52" fill="none" stroke="#1e1e1e" stroke-width="1.44" stroke-linecap="round" stroke-linejoin="round"/>
<path d="M553.63,1098.84L551.25,1098.08L553.78,1095.69L554.98,1097.55L553.63,1098.84Z" fill-rule="evenodd" fill="#4682b4" fill-opacity="0.471"/>
<polyline points="553.63,1098.84 551.25,1098.08 553.78,1095.69 554.98,1097.55 553.63,1098.84" fill="none" stroke="#1e1e1e" stroke-width="1.44" stroke-linecap="round" stroke-linejoin="round"/>
<path d="M562.33,1094.2L560.55,1096.11L559.3,1094.03L562.07,1090.13L568.42,1090.65L569.16,1093.28L562.33,1094.2Z" fill-rule="evenodd" fill="#4682b4" fill-opacity="0.471"/>
<polyline points="562.33,1094.2 560.55,1096.11 559.3,1094.03 562.07,1090.13 568.42,1090.65 569.16,1093.28 562.33,1094.2" fill="none" stroke="#1e1e1e" stroke-width="1.44" stroke-linecap="round" stroke-linejoin="round"/>
<path d="M443.77,614.36L442.73,615.31L445.11,618.72L442.3,620.54L444.69,624.15L442.05,625.82L443.19,628.13L446.05,628.11L447.56,630.6L444.28,635.51L444.49,637.19L446.63,638.29L446.71,641.97L444.08,644.53L443.51,650.17L439.09,651.54L437.15,650.85L436.63,649.44L434.43,649.74L431.68,648.06L434.42,646.51L432.16,637.41L429.94,634.7L430.19,630.3L428.65,627.19L427.76,620.77L429.42,617.01L429.73,610.66L428.36,609.08L429.55,606.82L427.21,602.04L428.37,599.86L426.75,594.77L427.46,592.06L425.91,589.84L424.77,582.78L419.4,572.53L419.37,565.62L416.61,558.52L416.6,551.2L415.57,546.31L413.94,544.59L413.27,539.55L414.36,538.46L413.43,536.78L414.39,533.25L412.24,526.18L410.59,524.97L408.67,517.61L410.3,514.81L415.22,516.94L417.11,515.82L419.5,517.04L421.82,524.59L424.18,528.26L423.61,530.64L427.47,542.77L427.68,547.94L430.5,550.42L432.67,556.81L431.03,559.78L432.53,561.47L431.76,563.67L434.32,568.93L435.19,574.23L437.57,576.69L436.11,579.62L437.96,585.1L438.04,589.72L443.13,592.89L443.95,594.73L442.27,597.91L445.44,605.12L444.17,609.46L444.78,611.44L443.1,612.84L443.77,614.36Z" fill-rule="evenodd" fill="#4682b4" fill-opacity="0.471"/>
<polyline points="443.77,614.36 442.73,615.31 445.11,618.72 442.3,620.54 444.69,624.15 442.05,625.82 443.19,628.13 446.05,628.11 447.56,630.6 444.28,635.51 444.49,637.19 446.63,638.29 446.71,641.97 444.08,644.53 443.51,650.17 439.09,651.54 437.15,650.85 436.63,649.44 434.43,649.74 431.68,648.06 434.42,646.51 432.16,637.41 429.94,634.7 430.19,630.3 428.65,627.19 427.76,620.77 429.42,617.01 429.73,610.66 428.36,609.08 429.55,606.82 427.21,602.04 428.37,599.86 426.75,594.77 427.46,592.06 425.91,589.84 424.77,582.78 419.4,572.53 419.37,565.62 416.61,558.52 416.6,551.2 415.57,546.31 413.94,544.59 413.27,539.55 414.36,538.46 413.43,536.78 414.39,533.25 412.24,526.18 410.59,524.97 408.67,517.61 410.3,514.81 415.22,516.94 417.11,515.82 419.5,517.04 421.82,524.59 424.18,528.26 423.61,530.64 427.47,542.77 427.68,547.94 430.5,550.42 432.67,556.81 431.03,559.78 432.53,561.47 431.76,563.67 434.32,568.93 435.19,574.23 437.57,576.69 436.11,579.62 437.96,585.1 438.04,589.72 443.13,592.89 443.95,594.73 442.27,597.91 445.44,605.12 444.17,609.46 444.78,611.44 443.1,612.84 443.77,614.36" fill="none" stroke="#1e1e1e" stroke-width="1.44" stroke-linecap="round" stroke-linejoin="round"/>
<path d="M235.19,812.42L234.42,810.77L236.17,809.65L236.69,811.08L235.19,812.42Z" fill-rule="evenodd" fill="#4682b4" fill-opacity="0.471"/>
<polyline points="235.19,812.42 234.42,810.77 236.17,809.65 236.69,811.08 235.19,812.42" fill="none" stroke="#1e1e1e" stroke-width="1.44" stroke-linecap="round" stroke-linejoin="round"/>
<path d="M494.97,1223.08L489.98,1220.24L484.26,1209.54L485.42,1208.1L484.88,1206.52L487.95,1204.37L491.28,1204.32L492.88,1209.22L501.24,1222.28L499.76,1223.69L494.97,1223.08Z" fill-rule="evenodd" fill="#4682b4" fill-opacity="0.471"/>
<polyline points="494.97,1223.08 489.98,1220.24 484.26,1209.54 485.42,1208.1 484.88,1206.52 487.95,1204.37 491.28,1204.32 492.88,1209.22 501.24,1222.28 499.76,1223.69 494.97,1223.08" fill="none" stroke="#1e1e1e" stroke-width="1.44" stroke-linecap="round" stroke-linejoin="round"/>
<path d="M294.46,236.77L296.27,237L296.4,238.16L294.46,236.77Z" fill-rule="evenodd" fill="#4682b4" fill-opacity="0.471"/>
<polyline points="294.46,236.77 296.27,237 296.4,238.16 294.46,236.77" fill="none" stroke="#1e1e1e" stroke-width="1.44" stroke-linecap="round" stroke-linejoin="round"/>
<path d="M291.63,238.8L289.33,238.62L291.07,236.67L294.09,236.18L291.63,238.8Z" fill-rule="evenodd" fill="#4682b4" fill-opacity="0.471"/>
<polyline points="291.63,238.8 289.33,238.62 291.07,236.67 294.09,236.18 291.63,238.8" fill="none" stroke="#1e1e1e" stroke-width="1.44" stroke-linecap="round" stroke-linejoin="round"/>
<path d="M530.2,1224.97L526.54,1227.18L523.3,1224.78L524.24,1225.09L523.8,1222.96L523.23,1224.07L523.55,1222.15L525.85,1219.3L531.38,1220.41L530.2,1224.97Z" fill-rule="evenodd" fill="#4682b4" fill-opacity="0.471"/>
<polyline points="530.2,1224.97 526.54,1227.18 523.3,1224.78 524.24,1225.09 523.8,1222.96 523.23,1224.07 523.55,1222.15 525.85,1219.3 531.38,1220.41 530.2,1224.97" fill="none" stroke="#1e1e1e" stroke-width="1.44" stroke-linecap="round" stroke-linejoin="round"/>
<path d="M512.72,1106.47L508.38,1109.01L502.95,1108.74L494.19,1117.82L490.88,1118.2L486.86,1115.93L486.89,1111.77L491.09,1110.42L491.87,1109.02L496.43,1106.83L499.06,1102.08L501.72,1100.26L507.68,1101.72L512.27,1104.91L512.72,1106.47Z" fill-rule="evenodd" fill="#4682b4" fill-opacity="0.471"/>
<polyline points="512.72,1106.47 508.38,1109.01 502.95,1108.74 494.19,1117.82 490.88,1118.2 486.86,1115.93 486.89,1111.77 491.09,1110.42 491.87,1109.02 496.43,1106.83 499.06,1102.08 501.72,1100.26 507.68,1101.72 512.27,1104.91 512.72,1106.47" fill="none" stroke="#1e1e1e" stroke-width="1.44" stroke-linecap="round" stroke-linejoin="round"/>
<path d="M738.93,1725.62L746.89,1726.07L748,1727.45L751.93,1726.88L752.9,1728.37L752.45,1732.26L749.29,1734.23L749.27,1743.37L748.39,1745.48L749.64,1748.2L748.97,1749.3L750.23,1750.57L750.76,1758.97L755.06,1766.57L759.64,1769.24L762.06,1769.41L762.84,1768.19L765.5,1769.77L770.11,1769.48L770.81,1772.12L776.39,1775.2L778.36,1777.94L778.38,1779.78L785.21,1779.81L787.04,1782.08L785.8,1783.94L786.35,1784.75L788.23,1784.04L788.73,1781.73L789.93,1782.22L788.55,1787.84L784.11,1789.01L783.43,1792.2L780.06,1794.97L779.17,1797.25L780.1,1806.72L778.71,1809.27L779.51,1809.9L778.42,1812.76L775.44,1814.4L774.05,1816.83L774.56,1817.69L772.81,1818.7L769.13,1818.57L767.24,1817.12L764.41,1817.62L751.38,1811.81L750.19,1812.18L749.23,1809.92L747.39,1809.5L745.41,1806.5L744.24,1806.31L743.12,1802.67L739.11,1798.79L733.22,1797.09L731.51,1790.63L729.25,1788.83L727.68,1786.08L728.06,1784.86L723.97,1782.69L717.23,1767.69L715.98,1763.17L716.65,1759.56L722.27,1749.59L723.91,1744.5L722.74,1738.6L723.53,1733.31L729.79,1729.32L737.76,1727.16L738.93,1725.62Z" fill-rule="evenodd" fill="#4682b4" fill-opacity="0.471"/>
<polyline points="738.93,1725.62 746.89,1726.07 748,1727.45 751.93,1726.88 752.9,1728.37 752.45,1732.26 749.29,1734.23 749.27,1743.37 748.39,1745.48 749.64,1748.2 748.97,1749.3 750.23,1750.57 750.76,1758.97 755.06,1766.57 759.64,1769.24 762.06,1769.41 762.84,1768.19 765.5,1769.77 770.11,1769.48 770.81,1772.12 776.39,1775.2 778.36,1777.94 778.38,1779.78 785.21,1779.81 787.04,1782.08 785.8,1783.94 786.35,1784.75 788.23,1784.04 788.73,1781.73 789.93,1782.22 788.55,1787.84 784.11,1789.01 783.43,1792.2 780.06,1794.97 779.17,1797.25 780.1,1806.72 778.71,1809.27 779.51,1809.9 778.42,1812.76 775.44,1814.4 774.05,1816.83 774.56,1817.69 772.81,1818.7 769.13,1818.57 767.24,1817.12 764.41,1817.62 751.38,1811.81 750.19,1812.18 749.23,1809.92 747.39,1809.5 745.41,1806.5 744.24,1806.31 743.12,1802.67 739.11,1798.79 733.22,1797.09 731.51,1790.63 729.25,1788.83 727.68,1786.08 728.06,1784.86 723.97,1782.69 717.23,1767.69 715.98,1763.17 716.65,1759.56 722.27,1749.59 723.91,1744.5 722.74,1738.6 723.53,1733.31 729.79,1729.32 737.76,1727.16 738.93,1725.62" fill="none" stroke="#1e1e1e" stroke-width="1.44" stroke-linecap="round" stroke-linejoin="round"/>
<path d="M37,88.19L36.52,89.38L29.98,88.1L32.8,85.88L37,88.19Z" fill-rule="evenodd" fill="#4682b4" fill-opacity="0.471"/>
<polyline points="37,88.19 36.52,89.38 29.98,88.1 32.8,85.88 37,88.19" fill="none" stroke="#1e1e1e" stroke-width="1.44" stroke-linecap="round" stroke-linejoin="round"/>
<path d="M316.97,223.84L321.57,228.94L320.31,232.02L313.48,232.2L311.76,228.69L312.37,227L316.97,223.84Z" fill-rule="evenodd" fill="#4682b4" fill-opacity="0.471"/>
<polyline points="316.97,223.84 321.57,228.94 320.31,232.02 313.48,232.2 311.76,228.69 312.37,227 316.97,223.84" fill="none" stroke="#1e1e1e" stroke-width="1.44" stroke-linecap="round" stroke-linejoin="round"/>
<path d="M356.31,959.43L358.49,959.39L359.02,960.92L358.01,960.27L358.16,961.65L356.31,959.43Z" fill-rule="evenodd" fill="#4682b4" fill-opacity="0.471"/>
<polyline points="356.31,959.43 358.49,959.39 359.02,960.92 358.01,960.27 358.16,961.65 356.31,959.43" fill="none" stroke="#1e1e1e" stroke-width="1.44" stroke-linecap="round" stroke-linejoin="round"/>
</svg>
