<?xml version="1.0" encoding="UTF-8" standalone="no"?>
<svg xmlns="http://www.w3.org/2000/svg" width="2000" height="1650" viewBox="0 0 2000 1650">
<rect width="2000" height="1650" fill="#ffffff"/>
<path d="M160.78,382.36L192.55,382.42L208.41,396.83L234.89,396.88L256.1,375.34L272,368.17L282.6,360.99L303.76,368.22L309.09,346.65L346.19,317.93L351.51,303.55L335.66,281.95L330.41,253.16L314.57,224.37L314.61,202.79L298.75,188.37L309.38,159.62L346.49,116.51L351.81,94.94L346.53,87.74L357.15,58.98L357.17,44.59L399.51,37.46L431.27,23.11L462.95,80.7L505.27,87.94L531.73,80.78L568.76,88.01L584.66,59.25L616.43,37.7L642.87,52.1L669.33,37.74L727.55,9L732.83,16.2L775.15,37.8L791.02,30.62L812.18,37.82L828.04,66.6L870.37,81L870.36,109.78L880.94,109.78L891.52,145.75L912.68,167.33L965.6,174.53L981.48,196.12L997.35,224.89L1013.23,224.89L1039.7,210.5L1055.57,217.69L1087.33,217.69L1103.21,224.88L1113.79,210.49L1150.84,217.67L1193.18,196.07L1203.77,210.46L1219.65,210.45L1277.88,224.8L1288.47,239.18L1288.48,253.57L1336.14,275.12L1357.29,253.52L1383.76,260.69L1394.34,253.49L1410.22,246.28L1426.08,231.88L1436.67,231.87L1479.03,246.21L1484.33,253.4L1521.37,246.17L1531.97,253.35L1553.17,274.9L1595.55,303.62L1632.61,303.57L1648.47,289.16L1685.55,303.49L1696.14,303.48L1711.99,289.07L1727.93,325.01L1706.8,353.82L1701.55,382.6L1685.71,411.4L1675.11,404.22L1669.86,433L1669.91,468.97L1675.25,497.73L1696.44,497.7L1707.02,490.49L1722.92,497.66L1749.4,497.62L1781.21,519.14L1797.1,519.11L1813.02,533.47L1844.82,547.8L1887.21,554.91L1956.02,533.19L1966.66,554.75L1977.33,590.69L1987.94,597.86L1977.38,612.27L1913.9,655.57L1892.72,662.8L1866.22,655.66L1823.85,662.93L1797.37,670.18L1765.62,691.81L1749.77,720.61L1733.9,735.02L1723.35,763.82L1707.47,778.23L1718.1,799.79L1718.14,821.37L1707.55,828.58L1702.28,850.17L1712.94,886.12L1681.24,950.91L1686.59,986.87L1670.71,1001.28L1649.5,1001.31L1665.44,1022.87L1665.57,1109.19L1623.18,1138.03L1586.12,1188.43L1549.01,1202.86L1480.01,1166.98L1453.48,1159.81L1426.98,1174.22L1416.36,1167.04L1400.43,1145.47L1379.19,1109.52L1363.27,1102.34L1357.99,1131.12L1347.39,1138.32L1342.1,1159.91L1326.2,1174.31L1331.52,1188.69L1326.25,1246.24L1331.58,1275.01L1320.97,1282.21L1331.6,1303.79L1326.31,1318.18L1310.4,1339.77L1299.81,1361.36L1283.89,1368.56L1257.36,1368.57L1236.13,1354.2L1220.21,1368.59L1214.91,1368.6L1188.37,1361.42L1172.46,1375.81L1167.16,1397.39L1140.63,1390.21L1119.4,1375.83L1098.17,1383.02L1061.03,1383.03L1029.19,1390.23L992.04,1361.45L981.43,1368.65L923.05,1419L923.05,1426.19L907.12,1440.57L896.5,1490.93L880.57,1490.92L848.74,1462.14L827.52,1433.36L800.98,1433.35L790.37,1426.15L769.12,1462.1L785.03,1498.08L785.03,1505.27L758.48,1519.65L747.85,1541.22L753.15,1562.8L747.81,1613.16L684.09,1620.31L657.55,1613.1L604.45,1620.25L588.52,1627.42L561.97,1627.4L551.34,1641.78L503.56,1634.53L487.65,1620.13L450.49,1612.89L386.78,1612.81L339.02,1598.35L323.09,1598.33L301.87,1591.1L238.16,1591L211.63,1583.76L185.11,1569.33L169.21,1554.91L163.94,1533.32L185.17,1533.36L174.6,1511.76L179.92,1504.58L158.74,1475.76L153.47,1454.17L180.05,1432.64L180.06,1425.45L185.39,1411.07L153.59,1389.43L148.38,1339.07L153.74,1310.3L116.69,1267.07L100.79,1259.85L42.45,1252.53L26.52,1259.69L74.42,1180.67L106.23,1187.92L169.94,1159.27L212.42,1130.57L233.67,1109.03L254.9,1101.87L260.21,1094.69L292.08,1065.97L297.39,1058.78L276.25,1015.59L270.98,994L244.56,943.6L228.65,943.57L228.7,914.8L218.14,893.2L218.21,850.04L207.62,842.83L144.08,813.94L128.16,821.1L112.22,842.65L69.81,849.76L32.66,871.26L11.44,878.41L11.52,842.44L38.1,806.53L38.16,777.76L54.1,756.21L59.45,734.64L70.09,713.08L133.74,677.24L154.95,670.09L176.19,641.35L165.65,612.56L133.88,605.31L107.44,583.67L86.31,554.86L81.05,533.27L86.41,504.5L97.02,497.33L128.85,468.62L139.44,468.64L155.35,454.29L166.01,418.34L160.78,382.36Z" fill-rule="evenodd" fill="#4682b4" fill-opacity="0.471"/>
<polyline points="160.78,382.36 192.55,382.42 208.41,396.83 234.89,396.88 256.1,375.34 272,368.17 282.6,360.99 303.76,368.22 309.09,346.65 346.19,317.93 351.51,303.55 335.66,281.95 330.41,253.16 314.57,224.37 314.61,202.79 298.75,188.37 309.38,159.62 346.49,116.51 351.81,94.94 346.53,87.74 357.15,58.98 357.17,44.59 399.51,37.46 431.27,23.11 462.95,80.7 505.27,87.94 531.73,80.78 568.76,88.01 584.66,59.25 616.43,37.7 642.87,52.1 669.33,37.74 727.55,9 732.83,16.2 775.15,37.8 791.02,30.62 812.18,37.82 828.04,66.6 870.37,81 870.36,109.78 880.94,109.78 891.52,145.75 912.68,167.33 965.6,174.53 981.48,196.12 997.35,224.89 1013.23,224.89 1039.7,210.5 1055.57,217.69 1087.33,217.69 1103.21,224.88 1113.79,210.49 1150.84,217.67 1193.18,196.07 1203.77,210.46 1219.65,210.45 1277.88,224.8 1288.47,239.18 1288.48,253.57 1336.14,275.12 1357.29,253.52 1383.76,260.69 1394.34,253.49 1410.22,246.28 1426.08,231.88 1436.67,231.87 1479.03,246.21 1484.33,253.4 1521.37,246.17 1531.97,253.35 1553.17,274.9 1595.55,303.62 1632.61,303.57 1648.47,289.16 1685.55,303.49 1696.14,303.48 1711.99,289.07 1727.93,325.01 1706.8,353.82 1701.55,382.6 1685.71,411.4 1675.11,404.22 1669.86,433 1669.91,468.97 1675.25,497.73 1696.44,497.7 1707.02,490.49 1722.92,497.66 1749.4,497.62 1781.21,519.14 1797.1,519.11 1813.02,533.47 1844.82,547.8 1887.21,554.91 1956.02,533.19 1966.66,554.75 1977.33,590.69 1987.94,597.86 1977.38,612.27 1913.9,655.57 1892.72,662.8 1866.22,655.66 1823.85,662.93 1797.37,670.18 1765.62,691.81 1749.77,720.61 1733.9,735.02 1723.35,763.82 1707.47,778.23 1718.1,799.79 1718.14,821.37 1707.55,828.58 1702.28,850.17 1712.94,886.12 1681.24,950.91 1686.59,986.87 1670.71,1001.28 1649.5,1001.31 1665.44,1022.87 1665.57,1109.19 1623.18,1138.03 1586.12,1188.43 1549.01,1202.86 1480.01,1166.98 1453.48,1159.81 1426.98,1174.22 1416.36,1167.04 1400.43,1145.47 1379.19,1109.52 1363.27,1102.34 1357.99,1131.12 1347.39,1138.32 1342.1,1159.91 1326.2,1174.31 1331.52,1188.69 1326.25,1246.24 1331.58,1275.01 1320.97,1282.21 1331.6,1303.79 1326.31,1318.18 1310.4,1339.77 1299.81,1361.36 1283.89,1368.56 1257.36,1368.57 1236.13,1354.2 1220.21,1368.59 1214.91,1368.6 1188.37,1361.42 1172.46,1375.81 1167.16,1397.39 1140.63,1390.21 1119.4,1375.83 1098.17,1383.02 1061.03,1383.03 1029.19,1390.23 992.04,1361.45 981.43,1368.65 923.05,1419 923.05,1426.19 907.12,1440.57 896.5,1490.93 880.57,1490.92 848.74,1462.14 827.52,1433.36 800.98,1433.35 790.37,1426.15 769.12,1462.1 785.03,1498.08 785.03,1505.27 758.48,1519.65 747.85,1541.22 753.15,1562.8 747.81,1613.16 684.09,1620.31 657.55,1613.1 604.45,1620.25 588.52,1627.42 561.97,1627.4 551.34,1641.78 503.56,1634.53 487.65,1620.13 450.49,1612.89 386.78,1612.81 339.02,1598.35 323.09,1598.33 301.87,1591.1 238.16,1591 211.63,1583.76 185.11,1569.33 169.21,1554.91 163.94,1533.32 185.17,1533.36 174.6,1511.76 179.92,1504.58 158.74,1475.76 153.47,1454.17 180.05,1432.64 180.06,1425.45 185.39,1411.07 153.59,1389.43 148.38,1339.07 153.74,1310.3 116.69,1267.07 100.79,1259.85 42.45,1252.53 26.52,1259.69 74.42,1180.67 106.23,1187.92 169.94,1159.27 212.42,1130.57 233.67,1109.03 254.9,1101.87 260.21,1094.69 292.08,1065.97 297.39,1058.78 276.25,1015.59 270.98,994 244.56,943.6 228.65,943.57 228.7,914.8 218.14,893.2 218.21,850.04 207.62,842.83 144.08,813.94 128.16,821.1 112.22,842.65 69.81,849.76 32.66,871.26 11.44,878.41 11.52,842.44 38.1,806.53 38.16,777.76 54.1,756.21 59.45,734.64 70.09,713.08 133.74,677.24 154.95,670.09 176.19,641.35 165.65,612.56 133.88,605.31 107.44,583.67 86.31,554.86 81.05,533.27 86.41,504.5 97.02,497.33 128.85,468.62 139.44,468.64 155.35,454.29 166.01,418.34 160.78,382.36" fill="none" stroke="#1e1e1e" stroke-width="3.89" stroke-linecap="round" stroke-linejoin="round"/>
<text x="835.31" y="811.32" font-family="sans-serif" font-size="14" stroke="#ffffff" stroke-opacity="0.784" stroke-width="2.33" stroke-linejoin="round" paint-order="stroke" fill="#141414">Andorra</text>
</svg>
