<?xml version="1.0" encoding="UTF-8" standalone="no"?>
<svg xmlns="http://www.w3.org/2000/svg" width="1814" height="2000" viewBox="0 0 1814 2000">
<rect width="1814" height="2000" fill="#ffffff"/>
<polyline points="1776.82,1401.2 1766,1402.83 1755.54,1400.87" fill="none" stroke="#1e1e1e" stroke-width="1.17" stroke-linecap="round" stroke-linejoin="round"/>
<polyline points="1303.66,1978.32 1304.03,1974.13 1299.27,1972.15 1294.59,1968.32 1289.2,1966.09 1289.42,1963.38 1286.53,1963.64 1282.34,1961.19 1279.55,1961.75 1274.92,1956.78 1271.26,1955.03 1263.21,1953.38 1256.12,1954.69 1250.82,1952.8 1238.07,1945.76 1232.59,1941.39 1229.52,1941.37 1226.96,1937.96 1220,1934.81 1212.91,1929.77 1203.22,1917.02 1200.56,1911.33" fill="none" stroke="#1e1e1e" stroke-width="1.17" stroke-linecap="round" stroke-linejoin="round"/>
<polyline points="1200.56,1911.32 1196.05,1908.37 1189.18,1900.01 1180.64,1894.39 1174.53,1886.83 1169.98,1884.91 1168.46,1881.28 1159.67,1876.27 1155.02,1865.98 1151.67,1861.05 1147.06,1859.82 1141.8,1849.79 1136.76,1844.84 1130.4,1842.57 1128.62,1839.48 1119.82,1833.74 1114.13,1828.61 1108.93,1826.36 1105.69,1819.73 1100.33,1814.06 1094.02,1809.69 1088.04,1808.37 1079.57,1797.5 1077.95,1787.16 1070.58,1779.62 1071.2,1776.1 1067.24,1766.11 1064.94,1763.03 1064.65,1760.94 1065.88,1759.19 1063.77,1752.77 1064.77,1747.51 1066.65,1744.19 1074.46,1734.29 1076.86,1714.98 1080.55,1709.4 1083.92,1686.88" fill="none" stroke="#1e1e1e" stroke-width="1.17" stroke-linecap="round" stroke-linejoin="round"/>
<polyline points="1083.92,1686.87 1084.84,1656.25 1083.76,1636.64 1085.73,1630.03 1083.42,1625.78 1086.56,1616.16 1087.39,1605.73 1091.39,1597.88 1090.6,1580.84 1087.13,1575.6 1085.08,1568.13 1081.21,1561.34 1078.25,1553.07 1077.81,1540.46 1075.11,1537.92 1073.75,1532.59 1069.51,1525.85 1069.12,1522.37 1068.02,1521.3 1066.8,1521.32 1069.95,1509.29 1065.32,1503.66 1062.36,1494.78 1063.43,1490.01 1059.18,1487.57 1058.06,1474.35 1055.93,1468.64 1055.72,1464.68 1053.99,1461.48 1047.61,1460.26 1043.86,1455.26 1037.58,1435.59 1037.02,1428.03 1034.88,1420.85 1033.11,1417.97 1032.61,1414.89 1033.79,1409.68 1031.43,1403.25 1027.6,1397.63" fill="none" stroke="#1e1e1e" stroke-width="1.17" stroke-linecap="round" stroke-linejoin="round"/>
<polyline points="1027.6,1397.62 1020.63,1386.38 1014.41,1383.55 1008.78,1378.69 1004.35,1373.34 997.89,1359.77 997.34,1352.09 999.12,1338.44 996.01,1319.31 988.4,1284.68 988.14,1280.88 991.06,1274.1 989.14,1260.09 981.16,1248.39 974.43,1246.64 967.91,1243.55 960.11,1232.32 963.74,1229.63 968.7,1228.32 971.27,1221.9 971.85,1214.71" fill="none" stroke="#1e1e1e" stroke-width="1.17" stroke-linecap="round" stroke-linejoin="round"/>
<polyline points="998.78,1184.54 1003.44,1183.47 1013.14,1188.25 1019.03,1189.49 1026.78,1188.69 1031.14,1191.41 1041.85,1195.37 1050.29,1196.4 1066.17,1207.15 1074.81,1207.38 1104.8,1202.73 1109.18,1200.89 1110.91,1199.35 1112.61,1195.58 1119.35,1192.85 1121.97,1187.89 1125.69,1184.71 1132.42,1181.29 1132.74,1179.56 1131.91,1177.17 1134.85,1168.23 1134.38,1164.94 1143.46,1158.85 1150.39,1157.48 1174.02,1162.74 1177.84,1165.04 1181.18,1168.51 1183.73,1167.71 1191.82,1172.31 1200.96,1172.67 1205.55,1174.36 1208.77,1172.81 1209.78,1175.26 1213.48,1175.12 1218.79,1180.68 1219.73,1183.55 1222.68,1183.57 1223.53,1185.04 1223.53,1187.61 1229.02,1191.05 1229.34,1194.05 1233.06,1195.86 1231.97,1198.33 1235.56,1198.63 1240.07,1201.85 1242.16,1202.5 1242.84,1199.58 1245.19,1200.75 1247.57,1198.91 1252.14,1200.57 1255.25,1198.79 1257.49,1202.2 1258.71,1202.14 1259.18,1199.71 1265.3,1206.88 1267.74,1208.73 1270.72,1208.76 1271.57,1210.74 1273.64,1212.54 1274.82,1212.6 1276.45,1210.78 1277.33,1212.85 1279.04,1212.18 1283.17,1212.91 1285.07,1214.9 1287.45,1213.95 1300.55,1213.07 1313.9,1217.99 1322.4,1219.35 1329.5,1219.5 1333.29,1218.16 1335.55,1220.32 1345.71,1221.32 1349.08,1224.38 1351.58,1225.02 1359.15,1229.42 1361.39,1232.09 1362.58,1230 1363.74,1230.74 1366.58,1235.02 1368.65,1235.82 1369.7,1238.49 1375.92,1239.73 1377.76,1242.5 1378.61,1247.77 1381.09,1250.85 1390.2,1255.93 1395.92,1262.62 1399.26,1264.7 1401.8,1270.23 1403.54,1271.48 1408.29,1272.58 1412.54,1275.53 1413.44,1274.47 1419.02,1280.89 1423.16,1282.54 1431.22,1290.49 1433.12,1294.81 1437.69,1298.87 1440.62,1300.32 1446.1,1297.91 1452.69,1300.77 1460.23,1298.97 1461.42,1299.36 1462.59,1301.26 1470.96,1303.96 1473.31,1312.08 1475.63,1311.92 1475.59,1314.86 1477.81,1314.56 1480.67,1315.37 1485.7,1318.54 1494.55,1330.1 1499.72,1331.9 1505.62,1332.13 1507.86,1333.08 1515.68,1339.18 1526.14,1343.78 1537.59,1346.51 1541.77,1354.12 1553.94,1365.47 1558.4,1373.44 1561.84,1375.54 1562.2,1376.99 1560.52,1381.2 1560.51,1383.92 1567.64,1391.63 1570.67,1392.76 1573.03,1397.19 1578.1,1398.57 1583.89,1401.62 1590.07,1400.74 1592.58,1401.93 1598.1,1409.85 1604.66,1414.03 1607.18,1416.64 1617.14,1418.94 1621.04,1422.04 1624,1426.68 1628.4,1436.98 1627.92,1440.42 1629.77,1440.94 1633.5,1445.48 1636.12,1446.2 1641.61,1443.74 1644.59,1445.23 1647.67,1444.18 1651.2,1444.28" fill="none" stroke="#1e1e1e" stroke-width="1.17" stroke-linecap="round" stroke-linejoin="round"/>
<polyline points="553.61,523.81 556.46,527.38 555.26,533.86 555.58,537.53 558.57,540.18 563.4,541.33 572.67,541 584.81,535.26 594.86,534.22 598.51,535.01 604.59,540.67 602.26,542.4 602.18,544.96 603.8,547.2 606.79,547.72 609.51,550.23 610.21,557.24 609.88,570.13 612.67,588.18 616.3,592.66 625.51,599.88 629.31,604.17 629.49,605.44 628.39,607.28 629.06,610.3 631.83,616.6 633.99,624.83 640.67,630.95 641.38,632.96 639.68,653.41 643.83,665.24 644.56,675.54 641.26,682.8 640.7,691.17 638.3,693.16 625.86,697.87 616.84,695.91 612.68,698.3 608.27,698.98 591.29,698.33 583.37,702.28 577.78,703.15 572.23,703.25 566.61,700.7 564.7,701.07 559.47,704.78 554.6,705.23 549.89,709.51 546.91,710.51 537.77,711.42 534.02,715.54 530.12,726.72 524.72,729.08 516.43,728.78 506.91,731.41 499.07,736.43 497.32,736.43 492.72,734.43 476.64,738.89 467.71,739.55 457.96,737.73 435.47,739.09 427.03,740.66 419.56,740.98 416.18,742.85 413.78,745.61 407.96,755.01 405.43,755.84 398.66,756.16 395.2,758.08 392.58,761.71 389.53,770.45" fill="none" stroke="#1e1e1e" stroke-width="1.17" stroke-linecap="round" stroke-linejoin="round"/>
<polyline points="1788.92,827.8 1789.01,823.79" fill="none" stroke="#1e1e1e" stroke-width="1.17" stroke-linecap="round" stroke-linejoin="round"/>
<polyline points="1789.15,817.22 1780.45,814.11 1778.47,810.28 1778.8,805.04 1780.54,799.9 1782.76,796.33 1789.71,790.3" fill="none" stroke="#1e1e1e" stroke-width="1.17" stroke-linecap="round" stroke-linejoin="round"/>
<polyline points="1790.96,731.03 1787.62,728.18 1785.78,724.83 1781.49,722.16 1777.36,713.52 1768.65,702.91 1766.28,701.05 1763.13,700.09 1756.56,699.63 1754.03,698.29 1747.72,691.92 1746.88,688.83 1747.44,684.49 1751.48,678.16 1753.09,674.09 1752.56,671.1 1757.15,666.2 1761.24,660.26 1764.33,658.58 1770.01,646.91 1770.81,633.71 1769.69,628.9 1771.7,625.98 1770.31,623.81 1769.84,620.82 1769.98,614.53 1771.48,612.15 1774.22,610.23 1773.08,606.2 1773.9,596.33 1771.04,591.02 1770.8,588.26 1773.55,583.45 1778.49,580.6 1781,577.69 1782.53,574.23 1783.03,550.53 1782.27,546.8 1776.44,537.88 1776.44,534.76 1778.16,527.58 1778.16,525.68 1776.79,522.9 1776.95,513.32 1772.3,501.75 1773.24,477.95 1774.27,475.33 1773.78,473.02 1777.93,467.8 1781.53,452.52 1783.49,450.99 1784.57,448.86 1783.24,446.08 1778.58,443.11 1780.7,438.76 1781.18,435.57 1780.63,424.9 1781.76,423.18 1786.73,419.86 1790.81,411.5 1792.88,410.56 1793.84,407.64 1797.82,405.88" fill="none" stroke="#1e1e1e" stroke-width="1.17" stroke-linecap="round" stroke-linejoin="round"/>
<polyline points="1799.26,338 1792.93,336.3 1790.39,336.84 1790.49,335.5 1787.14,331.07 1783.85,330.52 1783.21,329.2 1783.79,325.16 1782.25,322.4 1772.71,312.28 1772.48,311.15 1774.86,307.86 1773.86,307.15 1765.96,306.71 1764.85,305.4 1764.74,299.49 1759.71,293.86 1759.85,291.36 1761.14,289.1 1764.85,285.97 1764.87,285.17 1762.95,284.52 1759.74,285.06 1758.51,284.49 1757.95,283.08 1759.2,274.57 1762.09,272.61 1761.32,271.45 1756.32,271.07 1761.3,267.21 1754.74,267.2 1753.36,265.97 1753.79,264.51 1757.94,263.62 1759.45,262.22 1754.58,260.36 1752.24,256.14 1752.47,251.06 1756.08,244.63 1753.01,241.47 1754.83,237.39 1754.55,235.42 1752.85,234.23 1750.07,234.17 1750.35,232.12 1747.13,229.25 1746.28,226.63 1747.1,222.06 1748.32,220.67 1750.35,220.24 1748.51,216.95 1751.63,205.42 1749.99,204.88 1750.03,202.53 1752.57,198.76 1760.35,193.18 1770.91,181.96 1774.06,177.09 1773.37,173.59 1773.68,162.52 1776.63,157.89 1777.74,152.78 1777.72,147.64 1776.13,145.27 1770.75,141.2 1770.42,130.54 1769.07,126.41 1764.58,121.36 1765.18,119.3 1761.36,118.65 1758.4,116.36 1758.63,114.3 1760.13,112.7 1759.98,110.36 1757.52,107.17 1756.54,107.15 1755.2,108.72 1753.2,101.59 1748.36,99.51 1748.13,98.52 1749.88,96.56 1749.87,95.05 1746.69,96.49 1740.02,94.85 1738,96.8 1735.06,95.84 1728.6,96.61 1725.66,97.19 1721.21,99.89 1712.68,102.33 1708.17,99.2 1705.27,100.26 1693.92,95.96 1687.65,82.88 1688.81,81.16 1685.85,74.01 1686.97,70.46 1686.36,67.35 1682.28,57.99 1683.27,53.07 1680.4,47.43 1680.51,41.57 1682.66,37.19 1680.35,26.14 1676.83,15.85" fill="none" stroke="#1e1e1e" stroke-width="1.17" stroke-linecap="round" stroke-linejoin="round"/>
<polyline points="1110.78,959.63 1114.24,950.69 1123.52,941.88 1126.99,936.04 1127.55,929.55 1125.55,923.67 1128.49,917.21 1133.17,902.52 1134.15,897.41 1134.91,882.18 1136.08,877.15 1142.86,863.54 1143.03,851.26 1144.11,841.53 1143.77,837.88 1139.47,834.77 1138.03,831.3 1133.26,812.89 1131.09,800.08 1132.1,787.3 1138.08,775.9 1141.41,772.24 1141.88,769.25 1140.43,766.09 1139.56,761.23 1135.26,754.21 1133.66,748.8 1133.63,728.91 1134.36,725.55 1131.77,716.31 1127.66,706.72 1128.06,696.56 1124.45,687.86 1120.96,683.84 1118.41,678.91 1114.82,666.34 1114.28,659.97 1115.32,647.72 1114.37,641.84 1116.26,636.42 1116.48,633.27 1115.43,624.99 1115.68,619.9 1121.05,604.93 1121.86,599.75 1120.47,588.96 1124.71,584.98 1125.38,583.55 1125.62,575 1131.77,565.89 1132.32,563.8 1130.43,551.36 1133.66,541.74 1132.08,536.49 1134.54,527.64 1133.86,509.13 1132.65,502.97 1120.37,468.71 1120.09,453.22 1119.18,450.05 1116.05,443.92 1115.06,438.25 1109.67,423.23 1108.7,417.67 1102.78,410.71 1101.26,405.6 1100.36,392.91 1098.97,386.81 1099.95,386.81 1096.96,376.93 1101.2,374.3 1102.49,372.35 1103.63,366.88 1107.84,359.12 1108.18,343.3 1113.87,325.96 1115.01,313.62 1118.3,303.91 1116.01,298.72 1112.49,285.79 1112.24,276.42 1114.54,272.76 1122.16,267.37 1125.09,263.59 1126.44,243.35 1123.37,238.34 1117.52,203.48 1118.42,202.39 1114.1,197.25 1111.97,189.01 1097.74,168.86 1088.27,159.39 1083.84,156.26 1078.78,154.31 1063.35,153.31 1060.89,152.09 1059.59,149.3 1059.66,146.02 1062.13,136.48 1061.87,125.62 1057.51,119.73 1058.53,116.75 1057.46,113.9 1055.31,111.74 1050.62,109.69 1045.65,103.94 1042.34,101.32 1041.31,98.79 1038.75,98.87 1038.52,93.61 1035.99,91.45 1034.71,88.04 1034.14,84.31 1034.85,81.84 1030.77,75.93 1030.82,73.03 1033.89,70.94 1031.7,69.34 1032.87,60.55 1032.58,56.88 1031.78,54.09 1026.37,44.42 1024.46,37.13 1019.33,33.7 1018.22,32.26 1018.91,30.03 1017.23,29.19 1011.75,31.15 1007.83,29.68 1006.62,27.55 1002.33,28.16 996.11,25.82 992.02,22.26 983.8,8.96" fill="none" stroke="#1e1e1e" stroke-width="1.17" stroke-linecap="round" stroke-linejoin="round"/>
<polyline points="534.47,432.15 530.13,378.92 531.85,365.9 531.88,351.15 533.08,342.78 539.02,327.73 540.66,319.64 540.08,304.74 540.81,299.77 544.76,289.29 544.54,285.46 533.77,226.79 532.46,224.7 525.08,221.5 516.2,215.59 505.92,203.79 504.39,198.54 506.74,191.84 510.81,185.44 525.17,169.3 528.37,162.34 527.32,154.7 520.16,144.98 517.69,136.47 516.26,133.98 513.75,131.68 505.14,127.05 502.65,124.81 500.55,120.98 502.4,111.43 499.43,108.98 502.64,103.73 499.51,102.08 502.91,98.28 501.69,93.68 498.8,89.33 491.67,85.68 485.26,75.98 478.65,69.63 474.49,66.55 471.01,65.17" fill="none" stroke="#1e1e1e" stroke-width="1.17" stroke-linecap="round" stroke-linejoin="round"/>
<polyline points="20.21,18.12 15.09,20.53 13.18,26.44 11.39,27.56" fill="none" stroke="#1e1e1e" stroke-width="1.17" stroke-linecap="round" stroke-linejoin="round"/>
<polyline points="440.23,1873.61 451.85,1871.23 454.87,1869.32 461.49,1859.69 464.94,1852.9 471.3,1845.37" fill="none" stroke="#1e1e1e" stroke-width="1.17" stroke-linecap="round" stroke-linejoin="round"/>
<polyline points="646.7,1357.82 643.72,1367.35 640.59,1373.98 634.78,1380 633.75,1382.52 629.54,1384.1 628.23,1386.1 625.45,1392.42 624.36,1397.48 620.11,1403.87 616.36,1412.35 613.28,1414.36 610.18,1418.32 603.98,1421.82 600.7,1427.84 598.43,1429.35 597.36,1432.8 584.4,1440.34 579.97,1447.16 574.63,1448.83 566.79,1454.83 562.83,1455.34 556.27,1459.94 545.75,1460.03 540.81,1463.92 539.1,1463.05 537.11,1463.97 537.85,1469.73 534.4,1473.69 520.07,1480 519.13,1481.8 519.78,1487.77 516.78,1489.97 515.35,1495.81 511.66,1498.8 510.87,1514.59 511.85,1517.73 516.14,1523.56 517.4,1527.84 520.92,1531.45 525.1,1533.39 540.22,1535.23 540.75,1541.22 546.53,1548.58 549.56,1559 549.06,1565.28 547.94,1567.85 544.16,1570.05 546.96,1582.71 545.14,1586.37 548.79,1589.6 548.75,1592.89 545.07,1598.02 541.47,1611.98 540.91,1617.95 543.38,1622.41 542.5,1624.62 538.56,1625.5 537.72,1628.48 534.87,1629.41 533.3,1632.61 536.91,1638.13 537.84,1642.3 535.03,1647.26 537.21,1656.38 535.23,1668.99 536.1,1668.99 534.42,1673.71 533.68,1679.16 533.53,1690.93 537.43,1709.41 536.5,1713.71 541.33,1725.66 544.41,1738.45 544.35,1752.5 543.76,1753.59 541.23,1754.39 535.65,1761.44 533.22,1762.63 525.62,1763.9 523.93,1766.75 517.81,1771.58 513.3,1776.89 512.61,1779.57 504.01,1796.89 501.56,1800.38 492.68,1808.43 485.06,1811.48 481.55,1814.38 479.05,1818.3 471.3,1845.37" fill="none" stroke="#1e1e1e" stroke-width="1.17" stroke-linecap="round" stroke-linejoin="round"/>
<polyline points="440.23,1873.61 426,1878.26 416.84,1879.76 410.02,1883.93 402.54,1885.74 399.19,1888.79 397.48,1894.38 394.43,1894.89 388.32,1893.94 385.18,1895.61 382.04,1896.11 372.67,1894.14 367.53,1896.28 364.3,1895.71 354.05,1884.12 327.51,1869.72 315.23,1859.85 303.33,1853.44 304.61,1849.28 301.35,1845.01 299.42,1839.3 297.34,1837.35 288.63,1835.09 281.15,1830.93 275.32,1832.55 273.5,1831.9 267.85,1834.18 267.83,1833.1 266.42,1833.68 261.66,1833.19 258.17,1830.28 256.36,1831.32 253.75,1829.45 232.74,1833.66 225.52,1838.06 215.26,1841.49 213.86,1845.85 209.14,1848.02 205.92,1852.52 195.1,1857.17 187.73,1862.8 180.88,1864.6 174.77,1870.15 171.45,1871.96 156.65,1870.55 150.7,1867.83 149.28,1867.94 145.42,1870.36 136.45,1870.2 126.5,1871.38 124.9,1868.06 118.35,1864.6 116.31,1860.6 115.02,1860.2 112.07,1861.67 104.84,1859.36 90.35,1862.95 84.75,1865.78 78.32,1870.84 70.17,1875.47 68.4,1878.27 64.87,1878.25 60.66,1876.75" fill="none" stroke="#1e1e1e" stroke-width="1.17" stroke-linecap="round" stroke-linejoin="round"/>
<polyline points="833.05,1330.82 843.42,1320.65 844.63,1317.5 844.61,1308.55 845.56,1303.61 846.15,1302.43 848.8,1301.83 849.39,1300.65 848.94,1289.48 845.53,1283.32 847.98,1267.25 853.28,1260.57 858.49,1251.24 860.85,1249.19 862.74,1243.81 868.62,1234.46 869.94,1229.7 873.82,1227.51 877.14,1221.05 875.89,1213.28 873.79,1210.56 873.76,1174.62 875.27,1166.16 880.06,1156.78 881.32,1150.93 880.79,1148.12 878.57,1146.92 871.3,1137 869.27,1131.7 869.36,1126.65 871.43,1123.7 869.9,1122.41 869.46,1120.73 869.73,1114.89 873.29,1106.38 877.13,1102.68 878.8,1099.39 877.05,1097.43 875.12,1089.71 875.21,1086.68 877,1084.4 876.08,1082.76 871.25,1081.68 872.22,1079.8 867.65,1078.47 865.46,1074.79 866.38,1071.25 863.8,1068.36 853.67,1063.37 855.16,1055.95 850.96,1045.89 850.45,1042.45 851.93,1039.18 857.79,1036.12 857.58,1033.75 855.84,1033.43 851.93,1035.25 851.92,1029.88 852.44,1028.7 855.37,1026.71 856.24,1021.81 855.65,1019.32 847.66,1006.41 847.91,1001.69 846.86,999.15 842.21,998.74 839.17,997.26 838.23,994.94 839.51,992.28 843.08,989.8 844.13,990.86 845.95,989.37 846.79,987.4 847.02,982.4 846.26,979.52 842.93,974.78 841.44,970 836.28,964.11 836.05,956.61 835.3,954.26 825.21,947.49 823.66,944.85 822.45,944.28 814.88,945.35 808.83,942.93 807.06,943.41 805.39,938.4 803.9,937.26 801.31,938.49 798.72,937.54 795.74,940.8 787.04,935.49 772.07,931.21 766.77,928.88 761,931.1 758.58,930.65 755.5,931.97 752.32,931.66 747.83,928.83 742.18,920.96 735.14,920 731.32,914.04 727.75,912.18 727.77,909 731.29,906.15 725.3,901.95 723.64,898.26 720.3,895.68 710.78,883.5 703.32,879.02 703.84,870.66 697.6,862.81 695.16,861.16 690.84,860.52 688.15,857.01 687.26,848.49 688.12,845.37 694.01,841.06 688.56,819.43 686.46,818.37 685.23,815.76 683.43,805.64 682.19,804.52 677.98,803.61 673.13,798.53 671.06,790.55 668.42,786.78 663.21,784.16 649.72,782.41 647.92,783.94 643.94,781.01 642.02,780.79 637.67,782.03 635.11,779.86 631.48,782.32 628.34,783.16 618.27,782.16 614.33,780.23 612.8,780.56 611.93,784.18 609.59,788.08 607.86,789.62 605.65,790.22 592.34,791.49 584.75,790.19 580.46,792.48 571.92,791.47 570.07,793.45 565.66,792.5 554.77,793.85 549.64,795.58 543.17,794.61 540.97,795.66 536.25,793.27 526.76,792.84 523.27,788.93 518.42,787.9 516.31,785.31 513.65,784.53 513.33,782.49 508.59,781.53 497.12,776.78 491.48,775.42 490.39,775.45 489.98,776.85 490.59,779.89 490.12,781.09 488.09,782.28 476.91,781.42 471.06,782.94 469.37,784.07 464.8,783.5 460.89,788.06 445.86,790.61 435.14,789.83 432.24,791.69 427.79,787.94 424.09,786.01 418.96,781.05 414.04,778.31 407.67,777.25 401.82,778.8 396.03,777.4 395.11,776.63 393.64,772.07 389.52,769.59 384.29,770.87 378.42,770.19 376.21,767.47 372.89,758.97 368.31,755.08 356.91,757.48 351.37,755.21 349.36,750.33 344.47,747.93 333.14,731.15 328.2,728.09 326.17,723.87 316.1,721.05 313.99,719.28 314.69,716.14 304.5,714.31 303.17,711.09 294.66,707.58 282.41,706.46 270.61,703.57 263.34,705.08 255.6,704.61 252.12,706.24 247.14,710.76 238.74,726.23 232.97,729.28" fill="none" stroke="#1e1e1e" stroke-width="1.17" stroke-linecap="round" stroke-linejoin="round"/>
<polyline points="1093.47,1259.97 1096.61,1260.53 1105.37,1264.96 1115.98,1268.5 1116.87,1270.18 1122.84,1274.89 1127.06,1283.73 1130.43,1286.26 1131.27,1295.71 1135.19,1299.76 1139.75,1310.58 1138.92,1315.63 1135.95,1320.06 1139.82,1326.03 1136.82,1332.97 1138.81,1334.36 1137.63,1337.63 1149.36,1360.78 1157.79,1384.09 1166.11,1427.53 1167.98,1431.88 1174.55,1441.32 1194.02,1458.23 1210.99,1465.67 1215.18,1469.09 1223.42,1481.17 1224.87,1486.51 1229.88,1493.25 1230.72,1507.14 1233.27,1511.27 1233.54,1513.63 1237.42,1518.3 1241.07,1525.09 1244.52,1528.31 1246.23,1532.59 1249.28,1535.7 1252.74,1537.62 1255.36,1537.04 1257.12,1537.9 1258.11,1539.22 1258.16,1542.1" fill="none" stroke="#1e1e1e" stroke-width="1.17" stroke-linecap="round" stroke-linejoin="round"/>
<polyline points="1658.86,1989.02 1657.42,1987.66 1657.29,1984.73 1654.75,1983.11 1654.93,1980.94 1657.61,1977.29 1656.19,1972.57 1656.88,1970.26 1660.71,1967.43 1659.84,1963.36 1660.46,1956.6 1661.76,1952.52 1665.43,1945.67 1665.93,1940.51 1667.83,1934.98 1667.17,1927.65 1668.17,1925.58 1662.54,1919.62 1657.72,1916.47 1651.24,1915.36 1644.11,1916.45 1641.74,1915.74 1640.1,1913.9 1640,1907.24 1638.61,1905.65 1632.52,1903.13 1629.27,1900.37 1623.37,1892.01 1621.58,1886.44 1615.91,1880.08 1599.07,1873.14 1589.93,1865.5 1583.91,1861.53 1582.64,1859.34 1581.2,1852.56 1576.59,1844.84 1568.57,1836.5 1557.79,1832.31 1557.01,1827.34 1555.28,1825.48 1548.95,1822.76 1546.34,1816.8 1536.55,1800.57 1534.21,1798.5 1531.21,1797.66 1525.19,1788.69 1521.51,1788 1519.3,1786.1 1514.86,1787.9 1511.92,1787.31 1500.12,1777.32 1498.35,1770.77 1494.2,1769.45 1493.64,1768.38 1494.15,1764.87 1490.44,1756.92 1491.37,1751.79 1494.17,1745.61 1487.28,1743.39 1486.85,1737.88 1484.13,1734.89 1482.83,1729.09 1481.4,1727.02 1486.05,1727.09 1481.31,1719.2 1475.44,1711.53 1471.64,1708.26 1458.02,1700.83 1453.37,1689.5 1449.75,1684.91 1446.48,1676.14 1445.37,1674.89 1442.09,1674.36 1441.62,1671.15 1440.22,1668.89 1436.36,1667.58 1428.07,1667.44 1424.49,1663.65 1421.33,1653.74 1416.81,1648.25 1413.91,1639.43 1408.71,1630.8 1402.65,1628.7 1400.66,1625.73 1399.32,1614.43 1396.59,1607.89 1394.72,1605.92 1392.33,1605.47 1389.4,1606.27 1388.8,1603.4 1387.21,1601.83 1382.8,1599.78 1379.1,1596.77 1378.54,1595.44 1379.15,1592.73 1375.09,1584.21 1371.79,1580.61 1365.69,1582.24 1364.07,1580.5 1362.99,1576.75 1361.73,1575.17 1359.44,1574.52 1357.28,1575.61 1349.89,1564.47 1338.41,1551.73 1336.62,1551.57 1335.56,1548.74 1332.67,1544.76 1329.81,1546.77 1327.49,1546.29 1323.25,1542.71 1320.13,1541.36 1317.67,1543.76 1315.52,1544.58 1313.03,1544.37 1305.12,1542.03 1296.43,1537.41 1292.13,1539.42 1288.15,1538.46 1285.66,1538.69 1280.55,1541.71 1267.71,1541.17 1261.63,1542.79 1259.04,1542.1" fill="none" stroke="#1e1e1e" stroke-width="1.17" stroke-linecap="round" stroke-linejoin="round"/>
<polyline points="1777.47,1370.58 1774.58,1370.75 1772.88,1377.61 1774.47,1378.94 1774.09,1380.97 1769.91,1380.96 1769.29,1384.17 1766.63,1384.23 1764.72,1388.14 1763.07,1387.33 1760.03,1393.94 1755.76,1399.87 1753.21,1401.13 1752,1397.72 1750.09,1399.01 1746.96,1404.62 1742.27,1404 1741.19,1402.39 1741.33,1399.57 1736.49,1403.42 1731.75,1404.65 1727.1,1407.4 1720.2,1404.09 1713.05,1407.28 1707.31,1408.58 1699.84,1413.63 1685.37,1417.16 1681.39,1419.11 1675.57,1423.92 1666.9,1424.41 1661.06,1428.68 1655.31,1428.57 1656,1426.33 1655.39,1424.54 1649.61,1426.52" fill="none" stroke="#1e1e1e" stroke-width="1.17" stroke-linecap="round" stroke-linejoin="round"/>
<polyline points="663.1,1203.96 664.04,1200.99 667.41,1201.87 668.52,1203.01 670.7,1200.18 671.8,1199.96 673.34,1200.99 678.36,1211.9 679.54,1213.25 682.33,1214.29 684.41,1218.7 687.13,1218.8 688.8,1222.7 690.23,1230.48 693.3,1240.64 692.3,1243.36 693.58,1245.59 694.15,1248.95 694.38,1262.93 693.3,1265.64 695.32,1268.52 695.29,1278.96 695.82,1280.86 697.95,1282.57 698.27,1286.48 696.32,1293.76 698.26,1295.18 700.1,1299.01 702.19,1299.64 701.93,1301.47 703.66,1307.6 702.26,1308.8 702.28,1316.93 701.11,1318.88 702.05,1321.35 703.84,1321.7 704.21,1322.91 702.59,1323.79 702.49,1325.18 704.88,1333.2 707.19,1335.48 707.16,1337.06 702.64,1340.98 702.41,1344.16 704.28,1346.59 702.92,1349.18 704.36,1352.93 700.5,1357.67 700.59,1361.9 698.58,1359.94 697.89,1367.29 698.63,1369.88 696.07,1371.9 694.99,1381.48 692,1384.71 693.94,1388.42 694.98,1392.85 694.3,1396.69 691.11,1398.61 692.05,1402.02 691.1,1402.98 689.22,1402.63 687.94,1410.02 685.92,1412.22 685.46,1413.91 686.6,1418.51 684.31,1421.62 683.74,1423.46 684.25,1425.81 682.68,1430.28 683.03,1432.6 686.54,1436.28 687.84,1439.82 686.9,1445.76 687.56,1448.08 684.69,1449.09 686.61,1450.06 684.63,1451.63 683.68,1453.53 685.52,1456.26 681.28,1461.02 681.26,1463.62 687.59,1473.37 691.85,1474.24 693.51,1475.85 692.33,1479.27 694.59,1479.92 695.93,1482.21 699.21,1484.7 698.2,1486.39 703.81,1489.93 705.92,1490.38 707.75,1488.04 712.45,1488.97 714.49,1488.57 719.01,1494.58 722.45,1496.68 726.07,1497.3 724.17,1500.36 728.61,1500.91 732.57,1503.02 732.95,1503.9 731.38,1504.28 728.95,1510.06 736.26,1521.14 736.84,1524.58 735.63,1532.68 735.85,1535.92 743.08,1546.62 744.67,1550.32 741.65,1553.82 742.03,1556.29 743.25,1558.65 749.48,1565.74 754.02,1567.22 753.15,1572.01 753.85,1573.68 757.59,1576.88 762.14,1578 763.23,1579.43 763.85,1583.36 762.97,1586 774.35,1593.28 772.45,1596.17 775.18,1597.43 781.71,1603.09 786.22,1603.11 787.41,1603.8 789.62,1608.13 794.36,1607.04 799.27,1610.01 801.69,1609.25 810.64,1609.97 819.64,1612.57 825.75,1613.38 830.72,1616.83 836.44,1617.89 837.26,1620.22 835.21,1623.47 840.45,1635.15 843.21,1637.81 847.49,1639.7 848.83,1644.71 854.35,1646.22 861.23,1656.26 867.01,1660.4 868.93,1663.02 871.44,1670.04 874.94,1675.28 877.48,1684.29 876.38,1686.5 876.5,1689.55 877.49,1695.7 880.34,1698.31 878.78,1702.11 883.94,1731.17 885.17,1734.38 889.22,1737.17 894.67,1745.56 896.65,1750.67 900.07,1753 900.72,1758.37 906.18,1776.7 908.04,1780.24 908.62,1783.76 910.91,1786.17 914.37,1794.62 916.37,1797.24 918.98,1798.32 921.86,1804.69 925.16,1806.33 939.18,1819.18 943.14,1824.16 946.28,1829.71 948.83,1838.02 955.5,1845.03 963.06,1856.48 967.05,1858.24 969.66,1864.95 973.83,1870.9 974.95,1876.88 976.48,1879.24 985.87,1885.86 987.28,1890.15 989.1,1891.46 991.61,1898.45 995.3,1899.74 1000.46,1910.65 1009.51,1917.7 1011.39,1922.65 1016.57,1926.19 1029.12,1939.93 1034.49,1941.25 1046.82,1947.48 1064.82,1950.89 1076.53,1950.33 1084.23,1947.86 1089.9,1948.79 1096.07,1948.36 1098.26,1949.83 1120.2,1956.53 1143.89,1956.36 1154.93,1954.3 1157.76,1955.04 1160.24,1958.73 1168.49,1961.29 1171.68,1957.25 1193.51,1957.4 1198.68,1960.42 1204.84,1962.36 1216.69,1961.7 1220.46,1960.58 1221.48,1961.66 1223.5,1959.91 1226.82,1959.07 1230.53,1959.28 1233.75,1960.68 1238.59,1956.67 1240.07,1957.65 1246.62,1956.73 1253.56,1961.93 1257.14,1961.08 1260.56,1962.6 1267.68,1969.56 1278.12,1975.94 1281.63,1975.03 1292.06,1975.32 1295.26,1977.8 1299.78,1979.21 1301.87,1977.35 1308.35,1980.18 1311.3,1982.95 1323.52,1980.33 1325.48,1976.52 1351.07,1969.81 1353.32,1970.84 1360.51,1968.85 1368.14,1968.93 1384.42,1975.99 1388.51,1978.07 1390.72,1981.07 1399.95,1985.05" fill="none" stroke="#1e1e1e" stroke-width="1.17" stroke-linecap="round" stroke-linejoin="round"/>
<polyline points="1036.92,1001.85 1033.93,998.46 1033.92,995.82 1035.99,989.04 1035.11,985.28 1031.12,978 1030.16,974.09 1032.37,963.26 1032.21,959.32 1029.19,952.43 1019.25,942.71 1014.89,936.53 1012.51,928.76 1012.02,920.77 1010.25,918.91 1011.48,916.75 1013.97,917.84 1016.6,916.52 1016.67,915.57 1014.95,913.81 1017.84,912.92 1017.55,910.34 1019.79,908.89 1016.89,906.91 1018.83,904.94 1015.6,903.53 1014.98,900 1013.04,901.99 1009.88,900.51 1007.15,897.94 1006.26,899 1002.8,894.88 1001.92,890.57 999.44,886.12 992.65,885.12 994.6,882.07 991.35,879.74 989.04,873.73 986.78,871.32 988.7,869.85 990.74,870.25 991.63,868.28 994.5,870.36 995.62,868.8 995.61,863.36 998.52,862.38 997.59,860.99 995.61,860.4 996.59,859.33 991.65,858.51 993.79,856.26 996.59,855.49 996.17,853.55 996.74,851.94 1000,850.39 1001.54,843.59 1003.69,844.32 1004.76,843.89 1003.41,840.63 1005.55,841.23 1007.15,840.41 1013.39,832.92 1015.16,831.8 1017.81,832.5 1019.03,831.81 1020.98,827.89 1021.03,823.4 1019.06,819.91 1020.38,818.79 1021.83,814.92 1022.1,805.34 1020.16,802.01 1019.12,797.16 1017.54,794.35 1014.29,792.23 1014.49,788.78 1013.09,784.75 1008.49,778.33 997.32,773.88 995.8,771.41 989.42,770.54 982.48,763.5 972.44,747.74 969.93,742.4 968.58,740.83 964.17,739.08 962.36,737.56 965.64,730.81 964.96,726.47 962.29,722.47 955.63,715.91 952,714.04 945.91,715.12 943.63,713.54 940.68,710.16 938.32,703.63 936.15,704.71 933.52,708.02 928.55,708.05 926.62,704.12 927.44,699.44 931.25,696.27 931.41,691.63 932.48,687.7 928.58,680.43 926.81,675.32 925.67,666.55 926.41,662.18 925.16,658.92 925.67,652.66 924.3,648.36 918.75,646.67 915.94,643.7 913.96,638.16 911.64,634.44 912.93,628.03 907.58,622.51 906.92,620.93 907.09,615.11 905.98,613.65 899.39,609 897.25,611.09 895.38,608.12 891.62,606.55 889,604.24 888.62,601.86 889.82,597.6 889.45,595.33 886.63,593.12 879.02,590.73 877.73,587.44 874.45,587.67 867.83,585.45 862.44,580.58 860.25,573.35 860.56,555.28 856.09,551.11 857.95,546.16 858.1,542.82 856.93,540.6 858.6,536.48 858.09,534.04 852.33,530.02 850.27,524.01 848.31,526.07 847.55,524.61 848.3,523.11 843.95,520.66 843.42,519.71 846.03,515.12 844.39,513.26 842.32,513.9 841.45,509.31 837.19,508.65 838.51,506.37 835.82,506.35 835.01,501.88 830.27,500.69 826.49,496.32 825.7,494.46 827.11,490.54 824.71,489.53 825.34,488.92 824.71,487.47 822.58,488.48 821.69,480.48 822.21,477.76 812.37,472.12 810.21,468.99 807.83,462.08 805.9,458.82 802.42,455.76 802.06,454.38 802.81,452.67 806.16,451.26 806.93,450.39 806.4,449.33 800.05,446.64 798.04,448.96 795.99,447.61 795.15,445.63 794.44,438.38 784.33,431.75 780.49,430.57 779.46,424.35 773.2,417.11 773.46,409.38 770.49,399.93 770.78,396.31 775.38,397.52 775.54,394.38 777.08,389.64 774.49,384.85 770.68,383.01 771.49,379.69 770.38,371.41 768.65,367.89 765.15,365.46 760.09,364.76 756.86,362.68 755.41,356.51 746.35,343.07 744.66,332.61 742.03,325.41 744.39,318.48 740.69,314.13 741.56,310.38 738.43,310.27 738.42,308.84 740.55,304.96 740.23,303.07 737.59,302.5 736.52,300.65 737.12,293.6 740.5,292.52 739.67,287.08 739.55,276.47 741.24,270.35 736.77,263.37 731.61,260.94 727.39,256.29 724.54,256.02 727.57,252.45 726.98,251.04 723.54,251.97 722.19,239.92 720.08,236.57 722.47,232.11 719.59,227.19 723.05,222.77 715.51,217.31 719.75,215.54 720.42,214.25 717.95,211.57 715.46,205.85 717.4,199.34 713.16,152.75 708.23,137.01 707.16,124.45 707.6,121.3 708.62,119.93 709.11,108.05 713.09,95.02 715,91.77 713.09,88.36 713.93,85.15 712.68,82.02 712.8,78.47 713.86,71.72 713.42,66.34 711.84,61.3 713.79,54.79 711.78,47.32 713.72,40.84 711.15,33.55 709.31,32.82 708.74,27.52 706.75,25.11 710.32,15.27 713.59,10.56 713.46,9.33" fill="none" stroke="#1e1e1e" stroke-width="1.17" stroke-linecap="round" stroke-linejoin="round"/>
<polyline points="1785.46,992.04 1770.66,992.03 1763.3,1000.42 1760.66,1002.51 1754.17,1004.14 1751.37,1006.2 1743.85,1014.34 1737.88,1017.46 1729.03,1026.91 1724.25,1030.55 1718.68,1033.36 1709.09,1035.92 1703.54,1038.3 1698.79,1039.12 1689.52,1042.58 1680.91,1050.9 1678.56,1056.53 1673.1,1060.84 1670.73,1062 1659.16,1063.27 1637.43,1080.53 1628.7,1084.98 1617.12,1093.44 1599.52,1098.96 1594.46,1104.19 1592.51,1105.04 1589.75,1110.43 1585.99,1129.51 1584.22,1133.9 1581.82,1137.43 1569.65,1147.43 1566.42,1151.38 1561.77,1162.28 1561.22,1165.72 1565.96,1177.82 1566.28,1180.71 1563.19,1193.08 1563.25,1202.13 1566.57,1215.13 1568.04,1217.86 1576.08,1227.43 1578.85,1235.44 1581.22,1236.39 1581.23,1238.17 1585.35,1248.36 1584.61,1260.17 1583.72,1262.12 1581.32,1264.36 1582.15,1269.47 1584.54,1274.88 1586.79,1278.03 1589.86,1276.01 1591.64,1277 1594.41,1282.1 1603.42,1285.97 1612.26,1295.37 1616.86,1297.11 1618.73,1299.14 1621.14,1303.34 1620.06,1305.28 1625.27,1306.27 1630.88,1311.23 1634.59,1322.11 1636.03,1330.96 1641.04,1339.49 1642.43,1349.14 1644.07,1353.59 1650.03,1358.56 1650.09,1361.06 1648.75,1363.12 1655.52,1366.08 1657.89,1367.73 1658.58,1369.22 1655.46,1372.62 1654.93,1377.31 1652.27,1385.06 1655.99,1391.48 1655.82,1397.06 1657.81,1409.27 1657.48,1412.63 1651.58,1420.63 1649.64,1427.61 1650.5,1440.88 1654.89,1452.16 1655.72,1458.81 1654.62,1461.21 1646.73,1467.74 1645.36,1476.41 1632.13,1495.94 1632.2,1503.93 1628.37,1509.86 1626.55,1517.06 1624.05,1521.53 1624.9,1528.01 1618.99,1533.34 1618.51,1536.55 1616.45,1541.29 1613.88,1553.57 1614.79,1555.56 1615.18,1560.91 1616.64,1563.57 1613.85,1567.44 1611.46,1574.81 1612.87,1576.97 1612.47,1580.28 1616.47,1583.17 1617.54,1586.79 1620.91,1592.36 1616.91,1593.28 1620.81,1598.29 1626.47,1601.35 1626.42,1604.41 1628.21,1605.33 1631.6,1609.83 1637.45,1612.18 1636.7,1620.65 1639.31,1629.32 1637.43,1630.07 1640.14,1635.83 1636.04,1639.6 1637.17,1642.2 1632.91,1645.48 1632.12,1647.61 1635.33,1649.18 1635.77,1646.63 1637,1648.5 1639.76,1658.01 1643,1663.98 1642.42,1666.99 1645.64,1669.27 1648.65,1672.84 1650.86,1677.01 1651.68,1681 1650.66,1685.01 1652.9,1687.97 1653.61,1690.75 1651.43,1694.92 1652.67,1695.48 1653.25,1698.98 1656.44,1704.85 1658.45,1706.16 1658.87,1707.53 1657.36,1717.11 1657.27,1738.69 1661.37,1744.42 1662.18,1749.85 1667.66,1751.58 1675.9,1761.94 1687.35,1781.12 1692.24,1783.33 1698.27,1791.15 1703.95,1791.26 1707.67,1796.63 1711.88,1798.42 1716.95,1804.39 1724.33,1809.42 1726.61,1813.34 1736.8,1822.49 1742.66,1830.23 1751.53,1835.86 1754.36,1842.13 1758.56,1844.2 1760.25,1847.03 1767.03,1865.53" fill="none" stroke="#1e1e1e" stroke-width="1.17" stroke-linecap="round" stroke-linejoin="round"/>
<polyline points="1523.48,1005.22 1525.61,999.36 1526.2,993.29 1524.73,980.54 1521.11,971.04 1518.16,968.04 1518.24,962.54 1514.1,950.16 1514.13,947.8 1516.6,944.67 1522.53,939.95 1528.5,937.57 1534.71,936.18 1536.13,934.99 1536.26,926.7 1537.26,925.4 1535,921.63 1534.67,904.59 1533.36,901.56 1530.24,897.65 1529.97,894.59 1534.25,886.44 1536.12,878.34 1533.66,874.1 1532.49,869.73 1529.25,863.76 1520.94,843.81 1521.99,839.15 1515.27,814.99 1513.36,812.69 1505.59,807.01 1504.02,806.2 1501.98,807.55 1500.57,806.68 1492.56,797.03 1490.9,792.95 1490.7,788.28 1486.7,790.11 1484.78,784.46 1475.89,774.87 1472.42,769.13 1469.57,750.44 1467.89,744.54 1464.01,738.48 1466.73,728.73 1471.23,719.79 1472.81,713.73 1472.94,707.85 1471.41,693.31 1473.67,676.82 1473.44,669.31 1474.75,657.85 1477.41,649.64 1478.44,648.66 1481.86,628.95 1486.13,620 1483.3,619.06 1486.87,608.02 1487.52,601.68 1486.47,595.46 1481.45,586.11 1482.24,584.47 1484.42,583.28 1483.05,580.61 1478.93,576.44 1477.8,573.84 1476.36,566.92 1475.72,558.32 1469.82,549.56 1467.7,541.47 1461.88,537.67 1461.25,535.09 1460.98,525.25 1464.08,519.36 1463.08,513.92 1464,507.6 1473.01,482.57 1473.31,479.9 1476.38,475.86 1476.46,470.43 1475.46,465.48 1477.59,459.1 1475.59,456.06 1476.69,453.16 1476.35,451.37 1473.74,447.6 1475.15,444.6 1470.46,435.38 1467.03,432.51 1468.94,427.31 1467.81,426.22 1463.92,425.41 1462.86,424.48 1458.75,417.65 1456.85,410.42 1455.64,408.88 1453.57,409.18 1452.03,406.87 1449.84,398.63 1442.02,394.79 1438.09,391.54 1429.47,379.74 1415.9,367.64 1407.38,363.33 1404.95,359.43 1396.26,354.57 1388.16,346.69 1382.08,344.55 1371.16,335.81 1362.93,327.84 1360.56,328.24 1356.73,325.36 1353.25,324.27 1348.95,325.51 1347.26,325.28 1346.2,321.84 1343.58,320.66 1343.02,317.25 1338.13,316.78 1334.27,314.62 1328.34,307.72 1326.45,301.71 1321.16,295.21 1314.8,282.78 1310.87,278.81 1309.49,272.36 1306.41,266.94 1302.22,262.42 1296.77,249.29 1296.12,246.98 1296.01,232.52 1297.89,230.56 1303.69,227.57 1305.75,224.14 1313.01,219.98 1316.56,215.01 1319.82,214.2 1322.89,208.38 1328.87,209.99 1330.21,208.68 1332.42,203.32 1334.96,201.3 1337.47,196.65 1337.5,188.38 1338.73,186.8 1342.45,186.3 1345.17,184.99 1345.33,181.86 1343.99,175.42 1345.48,172.41 1350.8,167.53 1354.49,162.85 1355.04,154.67 1356.97,151.91 1361.99,149 1364.24,144.56 1369.28,140.9 1370.03,136.93 1368.2,131.95 1370.15,125.46 1370.29,113.16 1372.45,102.7 1372.01,99.84 1368.61,94.16 1364.67,61.49 1365.34,50.76 1364.36,47.82 1362.65,45.86 1347.96,43.86 1341.34,40.07 1339.63,40.66 1332.9,34.28 1332.22,32.77 1332.66,28.2 1325.93,29.19 1322.4,28.65 1319.72,27.16 1318.58,21.04 1315.02,19.3 1312.77,15.81 1311.4,15.01 1304.13,13.99 1301.66,10.72" fill="none" stroke="#1e1e1e" stroke-width="1.17" stroke-linecap="round" stroke-linejoin="round"/>
<polyline points="1263.97,10.39 1262.38,10.38" fill="none" stroke="#1e1e1e" stroke-width="1.17" stroke-linecap="round" stroke-linejoin="round"/>
<polyline points="1256.08,10.32 1254.63,10.84 1252.35,10.29" fill="none" stroke="#1e1e1e" stroke-width="1.17" stroke-linecap="round" stroke-linejoin="round"/>
<polyline points="515.79,10.69 504.53,27.04 501.4,29.99 493.71,33.96 491.65,37.47 480.57,48.58 467.84,70.97 464.14,75.04 457.39,78.05 447.88,84.16 443.63,85.7 438.09,86.3 429.47,82.04 427.58,79.5 423.26,79.58 421.42,77.44 418.77,77.38 414.24,79.1 411.33,82.31 406.79,83.71 400.31,87.45 392.47,88.89 376.75,88.92 371.47,89.82 367.7,92.1 357.99,102.85 354.52,105.35 351.23,105.94 348.74,103.32 347.54,105.71 344.49,108.64 343.88,110.86 345.05,117.61 343.43,125.81 340.95,129.87 337.15,132.42 331.7,133.34 329.16,135.57 326.01,145.19 322.02,147.42 319.29,146.42 315.41,141.73 312.55,140.54 309.56,141.05 307.54,142.69 306.83,145.01 307.74,147.62 302.22,146.54 292.74,142.72 287.91,144.95 280.12,152.48 279.21,157.43 279.82,159.11 284.21,161.82 292.42,176.9 282.47,180.1 286.24,187.49 287.66,195.51 287.37,199.88 285.83,202.92 280.45,208.02 274.32,215.88 271.16,217.61 265.29,219.07 263.8,225.16 258.95,226.78 253.57,231.81 248.99,229.49 242.96,228.07 230.78,227.22" fill="none" stroke="#1e1e1e" stroke-width="1.17" stroke-linecap="round" stroke-linejoin="round"/>
<text x="841.23" y="1711.65" font-family="sans-serif" font-size="14" stroke="#ffffff" stroke-opacity="0.784" stroke-width="2.33" stroke-linejoin="round" paint-order="stroke" fill="#141414">Cubango</text>
<text x="824.62" y="544.66" font-family="sans-serif" font-size="14" stroke="#ffffff" stroke-opacity="0.784" stroke-width="2.33" stroke-linejoin="round" paint-order="stroke" fill="#141414">Kwango</text>
<text x="671.2" y="885.33" font-family="sans-serif" font-size="14" stroke="#ffffff" stroke-opacity="0.784" stroke-width="2.33" stroke-linejoin="round" paint-order="stroke" fill="#141414">Cuanza</text>
<text x="1452.53" y="461.9" font-family="sans-serif" font-size="14" stroke="#ffffff" stroke-opacity="0.784" stroke-width="2.33" stroke-linejoin="round" paint-order="stroke" fill="#141414">Kasai</text>
<text x="1619.98" y="1398.84" font-family="sans-serif" font-size="14" stroke="#ffffff" stroke-opacity="0.784" stroke-width="2.33" stroke-linejoin="round" paint-order="stroke" fill="#141414">Zambezi</text>
<text x="512.62" y="1582.74" font-family="sans-serif" font-size="14" stroke="#ffffff" stroke-opacity="0.784" stroke-width="2.33" stroke-linejoin="round" paint-order="stroke" fill="#141414">Cunene</text>
<text x="1454.54" y="1746.65" font-family="sans-serif" font-size="14" stroke="#ffffff" stroke-opacity="0.784" stroke-width="2.33" stroke-linejoin="round" paint-order="stroke" fill="#141414">Cuando</text>
<text x="1097.27" y="457.35" font-family="sans-serif" font-size="14" stroke="#ffffff" stroke-opacity="0.784" stroke-width="2.33" stroke-linejoin="round" paint-order="stroke" fill="#141414">Kwilu</text>
<text x="1051.8" y="1542.56" font-family="sans-serif" font-size="14" stroke="#ffffff" stroke-opacity="0.784" stroke-width="2.33" stroke-linejoin="round" paint-order="stroke" fill="#141414">Cuito</text>
<text x="1737.47" y="181.13" font-family="sans-serif" font-size="14" stroke="#ffffff" stroke-opacity="0.784" stroke-width="2.33" stroke-linejoin="round" paint-order="stroke" fill="#141414">Sankuru</text>
<text x="1285.59" y="1228.28" font-family="sans-serif" font-size="14" stroke="#ffffff" stroke-opacity="0.784" stroke-width="2.33" stroke-linejoin="round" paint-order="stroke" fill="#141414">Lungwebungu</text>
<text x="588.3" y="702.92" font-family="sans-serif" font-size="14" stroke="#ffffff" stroke-opacity="0.784" stroke-width="2.33" stroke-linejoin="round" paint-order="stroke" fill="#141414">Lucala</text>
<text x="317.92" y="123.87" font-family="sans-serif" font-size="14" stroke="#ffffff" stroke-opacity="0.784" stroke-width="2.33" stroke-linejoin="round" paint-order="stroke" fill="#141414">Congo</text>
<text x="509.67" y="231.27" font-family="sans-serif" font-size="14" stroke="#ffffff" stroke-opacity="0.784" stroke-width="2.33" stroke-linejoin="round" paint-order="stroke" fill="#141414">Inkisi</text>
<text x="426.04" y="1870.76" font-family="sans-serif" font-size="14" stroke="#ffffff" stroke-opacity="0.784" stroke-width="2.33" stroke-linejoin="round" paint-order="stroke" fill="#141414">Cunene</text>
<text x="1732.65" y="1409.81" font-family="sans-serif" font-size="14" stroke="#ffffff" stroke-opacity="0.784" stroke-width="2.33" stroke-linejoin="round" paint-order="stroke" fill="#141414">Dongwe</text>
<text x="2" y="28.75" font-family="sans-serif" font-size="14" stroke="#ffffff" stroke-opacity="0.784" stroke-width="2.33" stroke-linejoin="round" paint-order="stroke" fill="#141414">Kouilou</text>
</svg>
