<?xml version="1.0" encoding="UTF-8" standalone="no"?>
<svg xmlns="http://www.w3.org/2000/svg" width="1814" height="2000" viewBox="0 0 1814 2000">
<rect width="1814" height="2000" fill="#ffffff"/>
<path d="M52.94,1777.26L51.83,1779.7L53.91,1785.4L53.71,1791.8L54.79,1792.97L55.02,1795.74L56.01,1795.53L55.8,1796.17L53.56,1794.98L50.9,1791.41L45.66,1778.79L45.14,1774.99L45.77,1772.34L49.66,1768.62L51.9,1769.71L52.18,1775.86L52.94,1777.26Z" fill-rule="evenodd" fill="#4682b4" fill-opacity="0.471"/>
<polyline points="52.94,1777.26 51.83,1779.7 53.91,1785.4 53.71,1791.8 54.79,1792.97 55.02,1795.74 56.01,1795.53 55.8,1796.17 53.56,1794.98 50.9,1791.41 45.66,1778.79 45.14,1774.99 45.77,1772.34 49.66,1768.62 51.9,1769.71 52.18,1775.86 52.94,1777.26" fill="none" stroke="#1e1e1e" stroke-width="1.17" stroke-linecap="round" stroke-linejoin="round"/>
<path d="M229.25,671.72L225.86,673.05L229.84,667.88L229.25,671.72Z" fill-rule="evenodd" fill="#4682b4" fill-opacity="0.471"/>
<polyline points="229.25,671.72 225.86,673.05 229.84,667.88 229.25,671.72" fill="none" stroke="#1e1e1e" stroke-width="1.17" stroke-linecap="round" stroke-linejoin="round"/>
<path d="M71.68,1990.65L68.07,1981.12L67.75,1969.83L64.96,1961.9L64.15,1956.47L62.68,1953.54L62.97,1950.37L61.66,1945.85L61.38,1940.32L59.16,1934.08L58.88,1928.98L57.6,1925.09L58.15,1909.83L57.57,1906.42L58.48,1902.97L58.5,1896.91L59.95,1894.2L58.99,1890.07L59.42,1883.33L58.49,1876.7L58.96,1870.69L58.04,1856.01L58.28,1844.92L59.48,1831.49L60.48,1829.59L62.02,1821.34L59.19,1805.76L59.94,1804.62L60.66,1805.99L62.85,1805.39L61.28,1806.06L61.92,1806.02L62.1,1807.53L61.1,1813.99L63.2,1813.54L64.67,1811.52L66.88,1801.18L66.97,1797.33L64.17,1787.95L64.73,1785.92L64.98,1788.21L66.48,1788.49L66.24,1792.85L67.17,1795.46L66.45,1783.57L65.2,1780.71L65.66,1779.98L66.25,1782.02L66.54,1760.47L60.59,1711.83L62.54,1698.1L59.36,1691.74L52.07,1681.08L52.04,1676.63L54.36,1669.53L57.94,1664.03L60.4,1665.57L65.39,1663.48L68.57,1663.37L68.13,1664.29L65.31,1663.69L62.34,1665.17L62.86,1666.26L64.71,1666.77L67.96,1666.36L72.19,1664.12L74.02,1659.71L75.94,1658.42L76.12,1654.95L78.35,1648.07L79.27,1648.36L83.06,1645.98L87.82,1641.2L88.91,1635.73L90.92,1632.02L92.3,1620.06L91.93,1607.36L93.57,1600.85L95.01,1599.19L94.45,1591.15L95.13,1589.78L94.93,1583.87L100.3,1578.72L101.27,1579.23L104.58,1576.6L106.59,1578.21L108.43,1575.99L108.67,1572.61L107.01,1568.6L105.78,1567.75L104.83,1569.33L102.57,1569.36L103.23,1566.11L104.45,1561.92L105.92,1560.72L106.29,1557.53L110.16,1552.8L109.43,1547.71L110.45,1543.68L113.32,1542.2L114.3,1540.01L114.78,1535.44L116.3,1534.62L115.77,1527.71L117.08,1525.84L120.62,1524.84L122.51,1521.01L123.02,1518.07L125.97,1514L126.15,1512.5L124.98,1510.84L125.65,1509.75L123.73,1505.82L124.27,1504.01L126.82,1501.43L126.25,1495.85L127.54,1494.01L127.23,1490.44L128.06,1489.22L127.49,1488.36L129.29,1483.92L128.86,1481.91L129.99,1479.7L129.74,1478.49L132.06,1473.38L132.18,1469.45L133.22,1469.28L134.5,1464.19L134.85,1455.41L133.97,1453.43L134.81,1451.16L136.22,1449.99L135.46,1447.3L136.31,1446.46L134.08,1443.25L134.08,1439.95L131.14,1435.82L131.58,1435.02L130.7,1432.25L130.77,1431.44L132.3,1431.91L134.64,1430.63L136.02,1427.37L133.47,1419.38L134.43,1413.27L136.39,1412.43L138.71,1409.37L139.87,1400.59L142.95,1396.43L141.94,1389.97L142.3,1387.08L147.68,1385.9L148.96,1386.64L148.71,1386.06L149.85,1385.36L152.39,1385.19L151.47,1387.17L153.4,1387.25L154.39,1386.49L155,1387.19L157.29,1382.18L155.98,1381.8L156.71,1379.94L156.12,1378.15L157.19,1377.65L156.11,1376.7L156.78,1373.23L156.11,1370.45L157.52,1367.73L156.68,1367L157.79,1361.27L157.18,1357.32L157.4,1355.86L158.13,1355.6L157.48,1354.22L158.34,1353.38L158.03,1351.09L156.67,1350.75L157.9,1349.42L156.73,1348.1L157.99,1348.02L157.5,1346.2L159.42,1345.58L159.78,1342.1L158.6,1341.83L160.21,1340.59L158.04,1338.26L159.12,1336.11L158.36,1335.08L159.34,1332.7L157.19,1331.57L157.95,1329.28L157.04,1328.86L157.78,1325.95L156.01,1324.88L156.97,1323.18L156.5,1320.43L157.66,1321.08L158.58,1320.69L159.91,1317.74L160.54,1319.1L161.69,1319.14L161.46,1318.56L163.07,1318.04L163.4,1316.99L164.15,1317.34L166.03,1315.63L168.04,1311.5L170.97,1310.6L173.09,1308.81L172.7,1306.37L173.34,1305.16L171.34,1301.6L173.85,1301.98L174.14,1300.65L173.3,1299.53L174.31,1297.07L175.94,1296.87L179.06,1294.14L180.66,1293.82L181.12,1290.08L181.99,1290.54L182.48,1292.88L183.71,1293L186.05,1291.51L186.85,1288.86L189.19,1288.54L189.87,1287.49L191.15,1287.74L193.17,1281.91L195.82,1279.45L198.1,1278.89L199.12,1275.97L204.13,1274.24L206.45,1268.31L209.65,1265.29L209.83,1263.49L213.19,1261.47L213.48,1259.92L215.79,1258.17L216.44,1256.4L218.23,1256.38L218.21,1253.45L212.41,1239.26L212.81,1234.82L216.99,1232.78L221.75,1226.62L226.45,1222.34L229.07,1220.98L231.36,1217.68L234.29,1216.38L237.27,1212.47L239.95,1211.15L241.62,1206.09L248.28,1200.24L249.17,1200.31L248.98,1202.51L251.04,1203.42L252.23,1202.74L253.42,1203.84L257.74,1200.74L258.05,1199.57L257.18,1198.89L257.78,1198.13L260.4,1198.98L262.78,1197.65L263.64,1200.04L267.17,1202.38L270.13,1201.51L274.47,1198.69L276.43,1196.31L277.01,1193.68L278.2,1193.7L283.69,1189.99L287.23,1186.51L288.33,1181.94L286.55,1177.72L287.8,1176.9L292.6,1167.12L295.26,1163.88L301.9,1158.75L296.84,1163.26L298.5,1164.29L301.35,1162.92L301.88,1160.74L302.59,1160.92L311.82,1147.49L311.63,1143.74L314.3,1133.97L317.31,1131.58L319.13,1128.16L319.29,1122.17L320.87,1118.36L321.37,1111.58L326.46,1106.78L327.44,1099.42L328.52,1096.96L328.67,1090.83L330.65,1085.66L330.43,1082.3L331.2,1079.31L328.57,1062.23L328.28,1058.88L329.1,1057.48L326.63,1052.16L327.98,1051.17L328.9,1048.44L327.95,1044.54L328.32,1040.94L329,1040.5L328.77,1039.01L330.32,1034.55L329.6,1030.98L330.42,1030.38L331.43,1025.66L329.9,1018.2L330.64,1015.94L334.34,1013.12L333.82,1004.15L334.97,1001.74L335.74,989.49L338.04,977.79L337.76,973.86L339.06,970.91L337.61,963.5L334.39,956.25L317.9,933.93L319.73,931.95L319.46,932.61L321.19,932.4L322.72,929.02L325.49,927.3L326.78,924.51L325.67,921.36L306.19,897.32L290.25,881.01L292.7,876.94L289.75,865.56L281.69,856.37L279.22,851.16L279.49,848.71L277.29,845.85L276.66,842.58L265.53,831.99L265.48,830.15L258.36,822.61L258.61,821.79L261.32,821.69L262.69,818.63L258.26,809.88L258.37,806.52L254.72,799.5L241.3,780.61L241.13,779.1L242.49,779.28L244.42,778.27L246.93,774.72L247.03,773.42L245.34,768.84L240.49,762L241.82,761.06L241.24,759.07L242.41,757.59L237.19,748.81L236.9,747.61L238.32,745.33L238.1,741.21L233.31,730.73L234.29,731.97L234.97,731.67L225.65,718.61L223.06,713.5L219.21,708.31L216.19,701.83L211.9,696.89L210.97,694.62L211.4,686.5L214,685.26L218.55,676.18L231.65,662.38L233.17,661.52L235.17,661.93L233.51,662.51L234.73,662.05L235.28,662.91L233.36,662.66L231.71,663.48L231.83,665.57L229.03,666.65L226.39,669.56L226.26,670.89L224.93,671.11L224.1,672.81L220.62,675.6L218.61,678.42L219.08,678.79L216.92,679.71L215.13,682.98L215.51,684.51L213.5,686.05L214.5,686.85L212.83,686.81L212.96,686.13L212.05,686.82L213.34,688.28L212.15,691.57L213.75,692.3L212.85,693.17L213.84,694.87L213.03,695.32L213.01,696.68L214.24,696.82L214.77,693.58L215.83,691.92L219.46,689.32L222.38,682.08L224.05,681.28L224.5,678.74L225.18,678.11L225.33,678.74L226.58,675.77L229.73,675.2L231.75,675.94L232.77,675.34L233.72,673.45L234.05,668.45L236.15,666.71L236.24,665.04L239.76,662.12L240.61,660.18L240.31,657.06L241.6,656.15L240.34,657.3L240.8,658.26L241.92,656.88L242.92,653.25L241.88,655.85L241.32,655.99L242.05,653.51L244.33,650.28L248.75,646.81L243.29,652.23L244.11,654.05L246.31,651.88L247.42,652.37L250.27,650.29L251.01,650.49L252.56,647.31L254.02,646.22L256.7,646.32L259,647.98L261.04,647.76L263.37,648.76L267.66,644.83L270.3,634.28L269.99,630.21L269.44,628.08L266.83,626.12L263.94,621.12L263.42,614.25L259.89,604.62L261.14,603.96L263.89,605.09L265.47,603.81L266.47,600.85L265.51,596.53L266.81,596.39L266.65,593.59L261.66,582.83L247.67,562.13L247.25,559.41L247.83,558.47L247,556.19L240.11,547.77L238.61,543.22L234.9,536.76L235.61,536.43L235.45,535.35L230.76,529.4L230.29,524.98L227.1,521.48L222.89,514.36L223.99,513.22L223.7,511.82L218.47,504.36L216.55,497.74L216.88,496.39L212.39,488.13L211.44,483.52L208.1,479.55L207.99,478.51L209.03,477.83L208.65,476.01L205.08,470.39L203.12,463.87L198.85,455.81L195.39,441.6L186.54,431.97L186.2,428.89L187,425.25L184.88,415.3L185.75,409.39L183.8,404.63L182.41,397.61L183.02,394.99L182.47,392.71L172.25,378.86L170.54,374.81L145.58,348.77L143.2,345.36L142.21,341.04L134.34,329.46L118.37,296.82L100.79,271.89L100.59,266.07L115.4,257.23L118.77,253.18L117.06,249.5L109.27,240.07L102.55,234.56L93.13,223.73L85.27,212.96L81.95,206.01L80.52,198.53L82.76,193.96L83.84,188.32L85.55,185.37L86.81,184.75L86.48,185.47L88.13,185.32L89.81,186.55L91.11,186.23L92.46,184.3L92.79,180.73L88.89,166.45L82.79,153.5L84.04,153.45L84.42,151.65L82.37,147.49L77.51,140.91L78.57,137.08L52.16,100.64L42.49,89.38L41.24,86.22L31.65,75.87L31.41,73.52L31.97,73.45L32.81,74.5L31.78,74.56L32.12,75.77L32.59,75.25L33.66,75.77L33.57,74.49L35.43,75.64L35.54,70.85L33.02,67.1L26.63,61.87L25.1,58.49L25.19,57.46L28.1,57.56L29.46,56.28L31.34,52.79L31.43,50.46L27.9,44.3L23.31,39.19L8.16,25.78L8,18.38L1806,18.38L1764.38,1991.11L71.68,1990.65Z" fill-rule="evenodd" fill="#4682b4" fill-opacity="0.471"/>
<polyline points="71.68,1990.65 68.07,1981.12 67.75,1969.83 64.96,1961.9 64.15,1956.47 62.68,1953.54 62.97,1950.37 61.66,1945.85 61.38,1940.32 59.16,1934.08 58.88,1928.98 57.6,1925.09 58.15,1909.83 57.57,1906.42 58.48,1902.97 58.5,1896.91 59.95,1894.2 58.99,1890.07 59.42,1883.33 58.49,1876.7 58.96,1870.69 58.04,1856.01 58.28,1844.92 59.48,1831.49 60.48,1829.59 62.02,1821.34 59.19,1805.76 59.94,1804.62 60.66,1805.99 62.85,1805.39 61.28,1806.06 61.92,1806.02 62.1,1807.53 61.1,1813.99 63.2,1813.54 64.67,1811.52 66.88,1801.18 66.97,1797.33 64.17,1787.95 64.73,1785.92 64.98,1788.21 66.48,1788.49 66.24,1792.85 67.17,1795.46 66.45,1783.57 65.2,1780.71 65.66,1779.98 66.25,1782.02 66.54,1760.47 60.59,1711.83 62.54,1698.1 59.36,1691.74 52.07,1681.08 52.04,1676.63 54.36,1669.53 57.94,1664.03 60.4,1665.57 65.39,1663.48 68.57,1663.37 68.13,1664.29 65.31,1663.69 62.34,1665.17 62.86,1666.26 64.71,1666.77 67.96,1666.36 72.19,1664.12 74.02,1659.71 75.94,1658.42 76.12,1654.95 78.35,1648.07 79.27,1648.36 83.06,1645.98 87.82,1641.2 88.91,1635.73 90.92,1632.02 92.3,1620.06 91.93,1607.36 93.57,1600.85 95.01,1599.19 94.45,1591.15 95.13,1589.78 94.93,1583.87 100.3,1578.72 101.27,1579.23 104.58,1576.6 106.59,1578.21 108.43,1575.99 108.67,1572.61 107.01,1568.6 105.78,1567.75 104.83,1569.33 102.57,1569.36 103.23,1566.11 104.45,1561.92 105.92,1560.72 106.29,1557.53 110.16,1552.8 109.43,1547.71 110.45,1543.68 113.32,1542.2 114.3,1540.01 114.78,1535.44 116.3,1534.62 115.77,1527.71 117.08,1525.84 120.62,1524.84 122.51,1521.01 123.02,1518.07 125.97,1514 126.15,1512.5 124.98,1510.84 125.65,1509.75 123.73,1505.82 124.27,1504.01 126.82,1501.43 126.25,1495.85 127.54,1494.01 127.23,1490.44 128.06,1489.22 127.49,1488.36 129.29,1483.92 128.86,1481.91 129.99,1479.7 129.74,1478.49 132.06,1473.38 132.18,1469.45 133.22,1469.28 134.5,1464.19 134.85,1455.41 133.97,1453.43 134.81,1451.16 136.22,1449.99 135.46,1447.3 136.31,1446.46 134.08,1443.25 134.08,1439.95 131.14,1435.82 131.58,1435.02 130.7,1432.25 130.77,1431.44 132.3,1431.91 134.64,1430.63 136.02,1427.37 133.47,1419.38 134.43,1413.27 136.39,1412.43 138.71,1409.37 139.87,1400.59 142.95,1396.43 141.94,1389.97 142.3,1387.08 147.68,1385.9 148.96,1386.64 148.71,1386.06 149.85,1385.36 152.39,1385.19 151.47,1387.17 153.4,1387.25 154.39,1386.49 155,1387.19 157.29,1382.18 155.98,1381.8 156.71,1379.94 156.12,1378.15 157.19,1377.65 156.11,1376.7 156.78,1373.23 156.11,1370.45 157.52,1367.73 156.68,1367 157.79,1361.27 157.18,1357.32 157.4,1355.86 158.13,1355.6 157.48,1354.22 158.34,1353.38 158.03,1351.09 156.67,1350.75 157.9,1349.42 156.73,1348.1 157.99,1348.02 157.5,1346.2 159.42,1345.58 159.78,1342.1 158.6,1341.83 160.21,1340.59 158.04,1338.26 159.12,1336.11 158.36,1335.08 159.34,1332.7 157.19,1331.57 157.95,1329.28 157.04,1328.86 157.78,1325.95 156.01,1324.88 156.97,1323.18 156.5,1320.43 157.66,1321.08 158.58,1320.69 159.91,1317.74 160.54,1319.1 161.69,1319.14 161.46,1318.56 163.07,1318.04 163.4,1316.99 164.15,1317.34 166.03,1315.63 168.04,1311.5 170.97,1310.6 173.09,1308.81 172.7,1306.37 173.34,1305.16 171.34,1301.6 173.85,1301.98 174.14,1300.65 173.3,1299.53 174.31,1297.07 175.94,1296.87 179.06,1294.14 180.66,1293.82 181.12,1290.08 181.99,1290.54 182.48,1292.88 183.71,1293 186.05,1291.51 186.85,1288.86 189.19,1288.54 189.87,1287.49 191.15,1287.74 193.17,1281.91 195.82,1279.45 198.1,1278.89 199.12,1275.97 204.13,1274.24 206.45,1268.31 209.65,1265.29 209.83,1263.49 213.19,1261.47 213.48,1259.92 215.79,1258.17 216.44,1256.4 218.23,1256.38 218.21,1253.45 212.41,1239.26 212.81,1234.82 216.99,1232.78 221.75,1226.62 226.45,1222.34 229.07,1220.98 231.36,1217.68 234.29,1216.38 237.27,1212.47 239.95,1211.15 241.62,1206.09 248.28,1200.24 249.17,1200.31 248.98,1202.51 251.04,1203.42 252.23,1202.74 253.42,1203.84 257.74,1200.74 258.05,1199.57 257.18,1198.89 257.78,1198.13 260.4,1198.98 262.78,1197.65 263.64,1200.04 267.17,1202.38 270.13,1201.51 274.47,1198.69 276.43,1196.31 277.01,1193.68 278.2,1193.7 283.69,1189.99 287.23,1186.51 288.33,1181.94 286.55,1177.72 287.8,1176.9 292.6,1167.12 295.26,1163.88 301.9,1158.75 296.84,1163.26 298.5,1164.29 301.35,1162.92 301.88,1160.74 302.59,1160.92 311.82,1147.49 311.63,1143.74 314.3,1133.97 317.31,1131.58 319.13,1128.16 319.29,1122.17 320.87,1118.36 321.37,1111.58 326.46,1106.78 327.44,1099.42 328.52,1096.96 328.67,1090.83 330.65,1085.66 330.43,1082.3 331.2,1079.31 328.57,1062.23 328.28,1058.88 329.1,1057.48 326.63,1052.16 327.98,1051.17 328.9,1048.44 327.95,1044.54 328.32,1040.94 329,1040.5 328.77,1039.01 330.32,1034.55 329.6,1030.98 330.42,1030.38 331.43,1025.66 329.9,1018.2 330.64,1015.94 334.34,1013.12 333.82,1004.15 334.97,1001.74 335.74,989.49 338.04,977.79 337.76,973.86 339.06,970.91 337.61,963.5 334.39,956.25 317.9,933.93 319.73,931.95 319.46,932.61 321.19,932.4 322.72,929.02 325.49,927.3 326.78,924.51 325.67,921.36 306.19,897.32 290.25,881.01 292.7,876.94 289.75,865.56 281.69,856.37 279.22,851.16 279.49,848.71 277.29,845.85 276.66,842.58 265.53,831.99 265.48,830.15 258.36,822.61 258.61,821.79 261.32,821.69 262.69,818.63 258.26,809.88 258.37,806.52 254.72,799.5 241.3,780.61 241.13,779.1 242.49,779.28 244.42,778.27 246.93,774.72 247.03,773.42 245.34,768.84 240.49,762 241.82,761.06 241.24,759.07 242.41,757.59 237.19,748.81 236.9,747.61 238.32,745.33 238.1,741.21 233.31,730.73 234.29,731.97 234.97,731.67 225.65,718.61 223.06,713.5 219.21,708.31 216.19,701.83 211.9,696.89 210.97,694.62 211.4,686.5 214,685.26 218.55,676.18 231.65,662.38 233.17,661.52 235.17,661.93 233.51,662.51 234.73,662.05 235.28,662.91 233.36,662.66 231.71,663.48 231.83,665.57 229.03,666.65 226.39,669.56 226.26,670.89 224.93,671.11 224.1,672.81 220.62,675.6 218.61,678.42 219.08,678.79 216.92,679.71 215.13,682.98 215.51,684.51 213.5,686.05 214.5,686.85 212.83,686.81 212.96,686.13 212.05,686.82 213.34,688.28 212.15,691.57 213.75,692.3 212.85,693.17 213.84,694.87 213.03,695.32 213.01,696.68 214.24,696.82 214.77,693.58 215.83,691.92 219.46,689.32 222.38,682.08 224.05,681.28 224.5,678.74 225.18,678.11 225.33,678.74 226.58,675.77 229.73,675.2 231.75,675.94 232.77,675.34 233.72,673.45 234.05,668.45 236.15,666.71 236.24,665.04 239.76,662.12 240.61,660.18 240.31,657.06 241.6,656.15 240.34,657.3 240.8,658.26 241.92,656.88 242.92,653.25 241.88,655.85 241.32,655.99 242.05,653.51 244.33,650.28 248.75,646.81 243.29,652.23 244.11,654.05 246.31,651.88 247.42,652.37 250.27,650.29 251.01,650.49 252.56,647.31 254.02,646.22 256.7,646.32 259,647.98 261.04,647.76 263.37,648.76 267.66,644.83 270.3,634.28 269.99,630.21 269.44,628.08 266.83,626.12 263.94,621.12 263.42,614.25 259.89,604.62 261.14,603.96 263.89,605.09 265.47,603.81 266.47,600.85 265.51,596.53 266.81,596.39 266.65,593.59 261.66,582.83 247.67,562.13 247.25,559.41 247.83,558.47 247,556.19 240.11,547.77 238.61,543.22 234.9,536.76 235.61,536.43 235.45,535.35 230.76,529.4 230.29,524.98 227.1,521.48 222.89,514.36 223.99,513.22 223.7,511.82 218.47,504.36 216.55,497.74 216.88,496.39 212.39,488.13 211.44,483.52 208.1,479.55 207.99,478.51 209.03,477.83 208.65,476.01 205.08,470.39 203.12,463.87 198.85,455.81 195.39,441.6 186.54,431.97 186.2,428.89 187,425.25 184.88,415.3 185.75,409.39 183.8,404.63 182.41,397.61 183.02,394.99 182.47,392.71 172.25,378.86 170.54,374.81 145.58,348.77 143.2,345.36 142.21,341.04 134.34,329.46 118.37,296.82 100.79,271.89 100.59,266.07 115.4,257.23 118.77,253.18 117.06,249.5 109.27,240.07 102.55,234.56 93.13,223.73 85.27,212.96 81.95,206.01 80.52,198.53 82.76,193.96 83.84,188.32 85.55,185.37 86.81,184.75 86.48,185.47 88.13,185.32 89.81,186.55 91.11,186.23 92.46,184.3 92.79,180.73 88.89,166.45 82.79,153.5 84.04,153.45 84.42,151.65 82.37,147.49 77.51,140.91 78.57,137.08 52.16,100.64 42.49,89.38 41.24,86.22 31.65,75.87 31.41,73.52 31.97,73.45 32.81,74.5 31.78,74.56 32.12,75.77 32.59,75.25 33.66,75.77 33.57,74.49 35.43,75.64 35.54,70.85 33.02,67.1 26.63,61.87 25.1,58.49 25.19,57.46 28.1,57.56 29.46,56.28 31.34,52.79 31.43,50.46 27.9,44.3 23.31,39.19 8.16,25.78 8,18.38 1806,18.38 1764.38,1991.11 71.68,1990.65" fill="none" stroke="#1e1e1e" stroke-width="1.17" stroke-linecap="round" stroke-linejoin="round"/>
<path d="M231.01,673.11L230.32,671.78L230.81,673.07L231.63,672.7L231.01,673.11Z" fill-rule="evenodd" fill="#4682b4" fill-opacity="0.471"/>
<polyline points="231.01,673.11 230.32,671.78 230.81,673.07 231.63,672.7 231.01,673.11" fill="none" stroke="#1e1e1e" stroke-width="1.17" stroke-linecap="round" stroke-linejoin="round"/>
</svg>
