<?xml version="1.0" encoding="UTF-8" standalone="no"?>
<svg xmlns="http://www.w3.org/2000/svg" width="2000" height="1992" viewBox="0 0 2000 1992">
<rect width="2000" height="1992" fill="#ffffff"/>
<polyline points="100.72,1518.97 126.72,1481.1 130.53,1472.8 135.04,1465.42 155.26,1447.66 160.99,1437.56 155.39,1410.38 135.15,1389.72 90.21,1365.48 67.38,1358.65 19.13,1353.48" fill="none" stroke="#1e1e1e" stroke-width="1.9" stroke-linecap="round" stroke-linejoin="round"/>
<polyline points="47.84,410.48 36.25,397.12" fill="none" stroke="#1e1e1e" stroke-width="1.9" stroke-linecap="round" stroke-linejoin="round"/>
<polyline points="1067.1,16.56 1077.11,22.53 1103.28,28.63 1127.53,45.37 1141.72,52.02 1209.6,59.75 1248.94,73.44 1269.6,71.64 1277.62,73.3 1283.37,76.84 1294.88,87.75 1296.21,90.08 1307.84,95.09 1313.73,107.26 1318.52,121.81 1327.32,134.11 1332.71,136.28 1346.45,137.45 1352.34,138.89 1373.55,157.62 1379.24,160.51 1394.44,159.17 1402.26,159.76 1408.23,163.03 1411.23,170.33 1412.18,187.2 1414.41,193.53 1427.7,200.55 1441.24,199.91 1451.8,203.48 1456.24,223.44 1462.1,230.46 1502.1,247.34 1522.82,265.78 1531.19,268.92 1538.09,267.09 1546.07,263.01 1554.39,261.07 1562.18,265.62 1578.98,287.55 1585.58,292.11 1589.23,286.56 1589.12,276.71 1585.11,268.36 1598.5,261.57 1607.77,273.12 1615.13,290.37 1622.53,300.67 1623.17,297.66 1628.33,291.98 1635.63,286.58 1642.56,284.1 1650.97,287.41 1662.36,302.26 1667.95,305.59 1673.07,302.95 1685.23,291.51 1692.5,288.94 1701.16,292.34 1716.75,307.46 1723.9,310.84 1736.53,313.2 1766.74,326.09 1785.53,331.78" fill="none" stroke="#1e1e1e" stroke-width="1.9" stroke-linecap="round" stroke-linejoin="round"/>
<polyline points="1784.52,331.5 1792.62,332.26 1813.56,329.66 1842.45,322.13 1866.1,317.52 1922.94,301.43 1962.11,305.03" fill="none" stroke="#1e1e1e" stroke-width="1.9" stroke-linecap="round" stroke-linejoin="round"/>
<polyline points="47.84,410.48 53.86,413.03 66,414.8 72.47,416.87 75.65,417.35 82.7,416.36 85.71,417.09 86.53,420.58 86,426.08 86.65,431.26 91.04,433.58 94.39,437.05 99.84,452.12 103.09,455.64 109.88,456.73 113.98,459.38 121.66,466.84 153.49,482.42 158.95,486.8 160,495.6 165.32,505.87 168.36,523.64 173.22,527.46 178.87,529.5 183.49,533.34 185.54,538.74 190.89,561.22 164.71,591.12 156.39,607.48 156.77,626.71 153.11,623.73 144.02,620.56 146.84,626.27 148.38,632.05 134.02,633.54 120.76,642.44 99.58,666.98 101.84,677.55 114.55,692.21 138.77,713.72 138.68,719.18 128.75,751.28 123.31,760.12 118.93,773.12 124.98,785.77 141.15,801.64 167.78,837.48 176.83,859.48 165.5,867.99 171.78,882.2 190.5,905.98 194.3,915.08 188.3,925.33 160.47,930.9 151.9,938.73 159.39,961.92 187.13,977.82 242.89,994.68 309.32,1032.65 382.85,1046.06 392.6,1042.76 414.13,1028.06 427.17,1024.69 433.13,1026.41 440.82,1034 446,1035.81 452.47,1035 465,1031.41 482.56,1029.38 519.5,1019.63 540.17,1019.81 562.59,1027.02 647.07,1077.45 682.25,1108.64 698.01,1126.39 704.77,1138.04 709.82,1157.13 714.98,1162.49 724.23,1169.43 726.14,1177.24 726.33,1186.16 728.47,1190.86 736.73,1185.82 758.8,1211.69 770.13,1218.7 773.16,1219.16 780.06,1218.12 783.03,1218.75 785.96,1221.46 789.53,1227.68 827.05,1277.52 842.34,1303.81 849.47,1334.08 857.91,1346.5 869.1,1353.02 882.24,1355.59 896.45,1356.05 894.55,1359.66 892.14,1361.99 905.15,1371.38 912.49,1388.67 930.89,1465.49 938.4,1481.64 951.26,1493.09 946.22,1502.73 948.53,1508.45 964.2,1519.97 967.46,1520.62 974.09,1520.37 978.98,1521.74 984.64,1531.3 1006.9,1546.59 1010.28,1550.63 1012.4,1556.38 1017.38,1564.68 1023.69,1572.19 1029.3,1575.46 1034.38,1583.15 1049.41,1616.87 1054.71,1624.57 1059.01,1633.15 1065.49,1672.96 1069.59,1685.06 1085.73,1680.02 1150.32,1701.29 1156.18,1696.84 1161.86,1694.62 1167.61,1695.29 1169.38,1700.32 1167.8,1707.82 1167.67,1714.65 1173.88,1717.62 1182.51,1719.35 1190.76,1724.49 1194.3,1733.06 1188.95,1744.83 1193.16,1752.94 1204.3,1760.35 1210.23,1766.58 1217.74,1790.07 1220.89,1796.83 1226.79,1801.1 1241.67,1807.79 1244.66,1813.09 1243.43,1821.39 1239,1834.81 1240.19,1843.4 1247.41,1851.92 1260.59,1860.74 1274.7,1867.69 1291.96,1872.15 1304.9,1879.58 1312.5,1881.25 1329.65,1881.74 1365.16,1890.2 1420.53,1890.4 1466.89,1908.18 1598.25,1934.58 1639.54,1952.81 1675.82,1961.52 1723.33,1954.67 1734.21,1949.2 1766.15,1925.24 1778.04,1919.22 1786.24,1917.19 1810.43,1915.87 1825.42,1910.73 1832.09,1909.75 1840.53,1911.57 1905.84,1939.53 1917.08,1942.47 1928.37,1941.6 1941.58,1935.91 1951.56,1929.4 1961.08,1921.33 1969.54,1911.55 1976.39,1900.03 1990.13,1870.38" fill="none" stroke="#1e1e1e" stroke-width="1.9" stroke-linecap="round" stroke-linejoin="round"/>
<text x="819.99" y="1306.77" font-family="sans-serif" font-size="14" stroke="#ffffff" stroke-opacity="0.784" stroke-width="2.33" stroke-linejoin="round" paint-order="stroke" fill="#141414">Aras</text>
<text x="1421.58" y="207.2" font-family="sans-serif" font-size="14" stroke="#ffffff" stroke-opacity="0.784" stroke-width="2.33" stroke-linejoin="round" paint-order="stroke" fill="#141414">Kura</text>
<text x="115.23" y="1402.42" font-family="sans-serif" font-size="14" stroke="#ffffff" stroke-opacity="0.784" stroke-width="2.33" stroke-linejoin="round" paint-order="stroke" fill="#141414">Murat</text>
<text x="1852.88" y="322.46" font-family="sans-serif" font-size="14" stroke="#ffffff" stroke-opacity="0.784" stroke-width="2.33" stroke-linejoin="round" paint-order="stroke" fill="#141414">Kura</text>
</svg>
