<?xml version="1.0" encoding="UTF-8" standalone="no"?>
<svg xmlns="http://www.w3.org/2000/svg" width="2000" height="1030" viewBox="0 0 2000 1030">
<rect width="2000" height="1030" fill="#ffffff"/>
<path d="M1678.3,837.11L1682.27,818.26L1694.15,806.98L1708.45,777.64L1715.3,776.27L1707.77,765.69L1707.26,758.59L1698.42,746.92L1699.94,732.26L1704.75,724.23L1702.13,707.85L1695.15,690.5L1696.45,684.08L1687.91,657.8L1676.55,637.6L1688.23,630.83L1688.82,625.94L1697.45,619.27L1715.32,616.01L1722.41,615.75L1732.82,609.74L1736.42,604.37L1747.82,597.94L1756.1,576.28L1748.21,568.34L1752.99,554.68L1752.51,548.71L1762.01,539.73L1762.95,531.45L1757.23,520.81L1746.19,515.62L1741.06,500.09L1743.55,479.4L1734.59,475.25L1754.14,467.01L1763.79,456.52L1755.92,448.22L1766.31,444.06L1774.81,424.25L1787.11,418.14L1796.52,421.13L1811.01,437.76L1823.65,421.87L1828.23,411.56L1839.83,407.32L1839.62,390.85L1854.31,388.71L1871.38,378.21L1881.83,365.75L1892.64,366.75L1893.43,373.08L1906.1,376.24L1922.08,359.37L1929.19,345.92L1936.02,352.71L1932.03,358.15L1930.77,378.81L1941.52,378.29L1954.71,386.64L1938.86,400.9L1944.54,404.37L1938.53,414.78L1944.16,417.13L1936.28,435.87L1919.59,444.16L1930.48,451.13L1936.03,462.1L1931.01,467.59L1934.56,473.41L1936.97,492.03L1943.11,499.22L1929.86,501.36L1898.19,508.84L1887.84,508.56L1886.55,497.01L1879.28,503.33L1876.88,511.68L1857.03,513.31L1849.11,493.43L1836.19,491.75L1827.65,486.49L1818.1,486.9L1805.34,488.93L1802.71,504.39L1789.44,512.8L1781.1,512.38L1779.61,525.55L1798.42,528.91L1818.02,538.96L1829.18,534.37L1833.81,536.42L1848.77,572.85L1835.51,582.04L1840.47,591.56L1835.09,601.91L1820.55,611.51L1817.78,617.99L1803.29,617.09L1798.05,625.17L1789.33,616.54L1784.61,618.97L1788.25,633.81L1782.64,639.27L1790.24,645.34L1797.68,666.01L1795.14,672.48L1786.22,678.08L1784.95,690.86L1780.52,694.78L1783.62,702.15L1789.92,700.78L1790.87,717.96L1806.78,714.7L1810.17,722.8L1794.31,733.93L1796.16,741.72L1808.88,747.2L1797.95,760.75L1802.54,766.93L1799.72,773.04L1792.45,769.96L1772.37,772.63L1754.27,773.33L1743.78,786.46L1741.52,787.66L1740.91,791.81L1727.8,796.79L1724.14,808.53L1708.04,823.34L1697.26,829.72L1694.12,835.07L1678.3,837.11Z" fill-rule="evenodd" fill="#4682b4" fill-opacity="0.471"/>
<polyline points="1678.3,837.11 1682.27,818.26 1694.15,806.98 1708.45,777.64 1715.3,776.27 1707.77,765.69 1707.26,758.59 1698.42,746.92 1699.94,732.26 1704.75,724.23 1702.13,707.85 1695.15,690.5 1696.45,684.08 1687.91,657.8 1676.55,637.6 1688.23,630.83 1688.82,625.94 1697.45,619.27 1715.32,616.01 1722.41,615.75 1732.82,609.74 1736.42,604.37 1747.82,597.94 1756.1,576.28 1748.21,568.34 1752.99,554.68 1752.51,548.71 1762.01,539.73 1762.95,531.45 1757.23,520.81 1746.19,515.62 1741.06,500.09 1743.55,479.4 1734.59,475.25 1754.14,467.01 1763.79,456.52 1755.92,448.22 1766.31,444.06 1774.81,424.25 1787.11,418.14 1796.52,421.13 1811.01,437.76 1823.65,421.87 1828.23,411.56 1839.83,407.32 1839.62,390.85 1854.31,388.71 1871.38,378.21 1881.83,365.75 1892.64,366.75 1893.43,373.08 1906.1,376.24 1922.08,359.37 1929.19,345.92 1936.02,352.71 1932.03,358.15 1930.77,378.81 1941.52,378.29 1954.71,386.64 1938.86,400.9 1944.54,404.37 1938.53,414.78 1944.16,417.13 1936.28,435.87 1919.59,444.16 1930.48,451.13 1936.03,462.1 1931.01,467.59 1934.56,473.41 1936.97,492.03 1943.11,499.22 1929.86,501.36 1898.19,508.84 1887.84,508.56 1886.55,497.01 1879.28,503.33 1876.88,511.68 1857.03,513.31 1849.11,493.43 1836.19,491.75 1827.65,486.49 1818.1,486.9 1805.34,488.93 1802.71,504.39 1789.44,512.8 1781.1,512.38 1779.61,525.55 1798.42,528.91 1818.02,538.96 1829.18,534.37 1833.81,536.42 1848.77,572.85 1835.51,582.04 1840.47,591.56 1835.09,601.91 1820.55,611.51 1817.78,617.99 1803.29,617.09 1798.05,625.17 1789.33,616.54 1784.61,618.97 1788.25,633.81 1782.64,639.27 1790.24,645.34 1797.68,666.01 1795.14,672.48 1786.22,678.08 1784.95,690.86 1780.52,694.78 1783.62,702.15 1789.92,700.78 1790.87,717.96 1806.78,714.7 1810.17,722.8 1794.31,733.93 1796.16,741.72 1808.88,747.2 1797.95,760.75 1802.54,766.93 1799.72,773.04 1792.45,769.96 1772.37,772.63 1754.27,773.33 1743.78,786.46 1741.52,787.66 1740.91,791.81 1727.8,796.79 1724.14,808.53 1708.04,823.34 1697.26,829.72 1694.12,835.07 1678.3,837.11" fill="none" stroke="#1e1e1e" stroke-width="1.42" stroke-linecap="round" stroke-linejoin="round"/>
<path d="M824.24,748.77L827.62,740.94L843.43,737.33L845.38,748.94L856.31,751.65L866.01,749.84L870.3,755.48L878.97,754.42L896.02,758.26L902.83,772.14L916.85,775.57L930.34,781.98L932.15,776.75L975.01,767.87L972.73,760.01L982.42,751.41L988.28,754.04L1004.08,749.92L1015.29,761.14L1020.9,756.65L1044.86,761.1L1059.92,767.42L1068.83,764.77L1076.51,771.85L1088.49,771.8L1088.81,784.53L1101.84,788.95L1108.77,795.28L1112.16,807.61L1119.11,815.8L1128.34,820.61L1137.01,817.18L1141.57,811.16L1152.28,808.46L1158.09,800.18L1168.53,797.1L1170.73,785.48L1179.4,784.66L1192.8,771.81L1207.79,766.04L1218.15,757.32L1223.93,772.6L1233.65,775.48L1250.47,774.16L1259.43,775.91L1264.59,780.33L1265.52,792.67L1292.33,775.45L1301.35,781.31L1316.38,779.95L1323.87,785.07L1327.09,779.02L1349.51,777.14L1363.39,769.03L1372.83,768.86L1378.61,764.63L1385.16,773.49L1397.6,782.97L1409.14,785.36L1413.82,789.38L1420.8,805.7L1429.99,816.73L1425.93,830.29L1428.46,840.72L1422.2,847.22L1417.67,863.04L1431.89,868.72L1435.66,888.85L1432.37,902.77L1441.57,912.3L1429.07,916.7L1419.89,931.87L1413.72,920.02L1405.18,929.55L1395.38,928.25L1385.35,941.55L1381.44,952.48L1379.41,967.12L1370.46,971.03L1363.99,969.28L1344.64,983.09L1342.69,989.49L1319.87,997.73L1320.34,1010.83L1314.79,1019.52L1308.11,1004.65L1300.55,999.53L1295.72,1004.47L1282.76,1000.54L1274.65,992.41L1248.16,998.38L1241.65,993.59L1229.84,998.22L1224.37,994.17L1208.15,996.59L1200.01,981.7L1179.08,975.91L1170.1,980.48L1153.77,969.38L1138.03,965.01L1124.4,967.34L1115.41,971.51L1094.77,965.26L1088.85,966.03L1064.61,956.77L1057.92,959.41L1051.73,954.19L1044.79,956.45L1040.66,949.35L1033.2,952.73L1015.95,951.26L1006.69,944.52L993.82,954.25L976.07,951.62L960.64,947.11L952.93,941.1L934.43,936.18L919.51,938L894.07,932.64L868.37,932.49L869.18,926.13L850.22,918.14L842.22,922.94L831.75,914.62L830.81,903.76L837.03,896.7L837.39,885.1L848.97,879.95L860.52,877.42L870.5,880.48L885.44,870.09L891.05,874.62L897.47,872.4L902.39,862.7L885.28,852.13L882.25,845.37L870.78,838.57L869.88,819.47L856.13,811.89L846.5,800.97L841.5,787.83L852.1,769.95L838.09,768.34L835.61,759.72L824.24,748.77Z" fill-rule="evenodd" fill="#4682b4" fill-opacity="0.471"/>
<polyline points="824.24,748.77 827.62,740.94 843.43,737.33 845.38,748.94 856.31,751.65 866.01,749.84 870.3,755.48 878.97,754.42 896.02,758.26 902.83,772.14 916.85,775.57 930.34,781.98 932.15,776.75 975.01,767.87 972.73,760.01 982.42,751.41 988.28,754.04 1004.08,749.92 1015.29,761.14 1020.9,756.65 1044.86,761.1 1059.92,767.42 1068.83,764.77 1076.51,771.85 1088.49,771.8 1088.81,784.53 1101.84,788.95 1108.77,795.28 1112.16,807.61 1119.11,815.8 1128.34,820.61 1137.01,817.18 1141.57,811.16 1152.28,808.46 1158.09,800.18 1168.53,797.1 1170.73,785.48 1179.4,784.66 1192.8,771.81 1207.79,766.04 1218.15,757.32 1223.93,772.6 1233.65,775.48 1250.47,774.16 1259.43,775.91 1264.59,780.33 1265.52,792.67 1292.33,775.45 1301.35,781.31 1316.38,779.95 1323.87,785.07 1327.09,779.02 1349.51,777.14 1363.39,769.03 1372.83,768.86 1378.61,764.63 1385.16,773.49 1397.6,782.97 1409.14,785.36 1413.82,789.38 1420.8,805.7 1429.99,816.73 1425.93,830.29 1428.46,840.72 1422.2,847.22 1417.67,863.04 1431.89,868.72 1435.66,888.85 1432.37,902.77 1441.57,912.3 1429.07,916.7 1419.89,931.87 1413.72,920.02 1405.18,929.55 1395.38,928.25 1385.35,941.55 1381.44,952.48 1379.41,967.12 1370.46,971.03 1363.99,969.28 1344.64,983.09 1342.69,989.49 1319.87,997.73 1320.34,1010.83 1314.79,1019.52 1308.11,1004.65 1300.55,999.53 1295.72,1004.47 1282.76,1000.54 1274.65,992.41 1248.16,998.38 1241.65,993.59 1229.84,998.22 1224.37,994.17 1208.15,996.59 1200.01,981.7 1179.08,975.91 1170.1,980.48 1153.77,969.38 1138.03,965.01 1124.4,967.34 1115.41,971.51 1094.77,965.26 1088.85,966.03 1064.61,956.77 1057.92,959.41 1051.73,954.19 1044.79,956.45 1040.66,949.35 1033.2,952.73 1015.95,951.26 1006.69,944.52 993.82,954.25 976.07,951.62 960.64,947.11 952.93,941.1 934.43,936.18 919.51,938 894.07,932.64 868.37,932.49 869.18,926.13 850.22,918.14 842.22,922.94 831.75,914.62 830.81,903.76 837.03,896.7 837.39,885.1 848.97,879.95 860.52,877.42 870.5,880.48 885.44,870.09 891.05,874.62 897.47,872.4 902.39,862.7 885.28,852.13 882.25,845.37 870.78,838.57 869.88,819.47 856.13,811.89 846.5,800.97 841.5,787.83 852.1,769.95 838.09,768.34 835.61,759.72 824.24,748.77" fill="none" stroke="#1e1e1e" stroke-width="1.42" stroke-linecap="round" stroke-linejoin="round"/>
<path d="M1332.96,191.34L1340.26,184.48L1340.27,156.78L1344.55,147.34L1352.38,143.46L1357.68,136.25L1364.94,115.9L1378.53,117.13L1383.54,120.77L1397.2,124.99L1402.04,120.77L1397.21,113.75L1400.13,100.22L1400.47,81.12L1405.16,70.16L1400.45,45.18L1407,29.69L1411.36,26.6L1421.83,33.86L1441.25,34.54L1445.24,37.07L1453.02,54.48L1461.47,47.92L1472.54,48.39L1477.71,38.53L1496.39,38.8L1510.93,49.65L1521.01,49.75L1530.02,55.12L1532.95,63.27L1540.14,65.32L1549.13,69.55L1559.46,69.25L1567.72,73.88L1576.13,83.36L1592.92,84.72L1599.05,75.91L1610.91,77.03L1630.78,89.49L1652.93,110.09L1677.76,121.21L1693.03,120.29L1709.91,122.67L1721,121.88L1743.88,125.87L1755.97,119.4L1764.77,98.45L1768.3,94.19L1781.21,96.29L1787.2,91.92L1800.49,102.98L1815.5,101.97L1820.87,106.23L1821.43,119.32L1833.25,118.43L1846.75,127.58L1878.79,125.38L1883.74,141.64L1883.58,159.63L1888.86,161.26L1888.38,177.77L1892.74,191.42L1880.54,206.6L1878.67,214.55L1869.46,225.09L1873.21,236.53L1868.54,254.35L1869.38,261.8L1886.24,271.15L1882.95,275.42L1890.86,290.41L1898.07,295.32L1897.25,304.35L1905.51,320.82L1905.55,327.19L1929.19,345.92L1922.08,359.37L1906.1,376.24L1893.43,373.08L1892.64,366.75L1881.83,365.75L1871.38,378.21L1854.31,388.71L1839.62,390.85L1839.83,407.32L1828.23,411.56L1823.65,421.87L1811.01,437.76L1796.52,421.13L1787.11,418.14L1774.81,424.25L1766.31,444.06L1755.92,448.22L1763.79,456.52L1754.14,467.01L1734.59,475.25L1743.55,479.4L1741.06,500.09L1746.19,515.62L1757.23,520.81L1762.95,531.45L1762.01,539.73L1752.51,548.71L1752.99,554.68L1748.21,568.34L1756.1,576.28L1747.82,597.94L1736.42,604.37L1732.82,609.74L1722.41,615.75L1715.32,616.01L1708.02,610.28L1702,597.77L1697.76,578.07L1693.45,584.97L1682.8,591.33L1677.2,583.29L1659.47,582.4L1648.7,577.89L1645.77,565.63L1638.08,562.14L1631.33,564.23L1631.23,553.38L1634.55,546.9L1624.18,538.25L1613.54,536.72L1606.1,541.07L1599.64,536.03L1600.44,529.26L1596.56,517.78L1587.45,516.56L1576.45,510.9L1569,497.26L1557.26,500.22L1545.42,499.81L1542.17,491.67L1531.85,491.58L1510.71,471.93L1499.12,471.11L1490.89,473.56L1487.92,485.24L1474.52,482.2L1468.08,486.48L1468.81,495.82L1449.32,501.89L1430.26,504.94L1424.88,500.57L1403.92,508.87L1398.29,516.85L1385.42,515.23L1381.21,505.96L1370.37,505.05L1357.66,512.02L1350.21,503.55L1343.4,488.32L1345.88,472.56L1342.49,465.51L1354.43,458.94L1357.84,453.26L1350.33,440.67L1330.88,432.78L1316.28,429.28L1302.56,417.15L1289.47,412.86L1277.67,393.2L1277,381.23L1281.13,372.94L1280.12,355.36L1283.97,345.2L1283.07,334.74L1285.69,326.84L1295.83,321.45L1308.38,326.49L1321.36,342.74L1334.98,351.12L1341.58,342.77L1347.61,345.28L1373.89,335.81L1377.65,324.14L1391.06,321.62L1401.83,323.65L1410.07,312.62L1408.07,288.71L1397.59,287.43L1402.06,263.38L1395.58,250.41L1385.19,240.15L1379.45,238.39L1377.04,229.45L1389.79,222.09L1387.42,215.4L1372.42,208.58L1362.12,201.29L1341.52,199.42L1332.96,191.34ZM1707.59,335.83L1717.81,348.56L1737.12,350.45L1743.73,346.83L1765.71,352.71L1771.39,350.99L1781.42,339.35L1790.57,337.11L1798.8,342.76L1802.53,336.24L1795.78,330.15L1795.43,321.55L1799.06,306.8L1793.72,298.4L1780.31,287.34L1770.13,288.12L1769.26,278.8L1755.33,279.35L1754.76,290.23L1732.86,297.44L1732.3,302.33L1721.62,310.22L1713.04,300.8L1709.33,315.17L1713.53,320.63L1707.59,335.83Z" fill-rule="evenodd" fill="#4682b4" fill-opacity="0.471"/>
<polyline points="1332.96,191.34 1340.26,184.48 1340.27,156.78 1344.55,147.34 1352.38,143.46 1357.68,136.25 1364.94,115.9 1378.53,117.13 1383.54,120.77 1397.2,124.99 1402.04,120.77 1397.21,113.75 1400.13,100.22 1400.47,81.12 1405.16,70.16 1400.45,45.18 1407,29.69 1411.36,26.6 1421.83,33.86 1441.25,34.54 1445.24,37.07 1453.02,54.48 1461.47,47.92 1472.54,48.39 1477.71,38.53 1496.39,38.8 1510.93,49.65 1521.01,49.75 1530.02,55.12 1532.95,63.27 1540.14,65.32 1549.13,69.55 1559.46,69.25 1567.72,73.88 1576.13,83.36 1592.92,84.72 1599.05,75.91 1610.91,77.03 1630.78,89.49 1652.93,110.09 1677.76,121.21 1693.03,120.29 1709.91,122.67 1721,121.88 1743.88,125.87 1755.97,119.4 1764.77,98.45 1768.3,94.19 1781.21,96.29 1787.2,91.92 1800.49,102.98 1815.5,101.97 1820.87,106.23 1821.43,119.32 1833.25,118.43 1846.75,127.58 1878.79,125.38 1883.74,141.64 1883.58,159.63 1888.86,161.26 1888.38,177.77 1892.74,191.42 1880.54,206.6 1878.67,214.55 1869.46,225.09 1873.21,236.53 1868.54,254.35 1869.38,261.8 1886.24,271.15 1882.95,275.42 1890.86,290.41 1898.07,295.32 1897.25,304.35 1905.51,320.82 1905.55,327.19 1929.19,345.92 1922.08,359.37 1906.1,376.24 1893.43,373.08 1892.64,366.75 1881.83,365.75 1871.38,378.21 1854.31,388.71 1839.62,390.85 1839.83,407.32 1828.23,411.56 1823.65,421.87 1811.01,437.76 1796.52,421.13 1787.11,418.14 1774.81,424.25 1766.31,444.06 1755.92,448.22 1763.79,456.52 1754.14,467.01 1734.59,475.25 1743.55,479.4 1741.06,500.09 1746.19,515.62 1757.23,520.81 1762.95,531.45 1762.01,539.73 1752.51,548.71 1752.99,554.68 1748.21,568.34 1756.1,576.28 1747.82,597.94 1736.42,604.37 1732.82,609.74 1722.41,615.75 1715.32,616.01 1708.02,610.28 1702,597.77 1697.76,578.07 1693.45,584.97 1682.8,591.33 1677.2,583.29 1659.47,582.4 1648.7,577.89 1645.77,565.63 1638.08,562.14 1631.33,564.23 1631.23,553.38 1634.55,546.9 1624.18,538.25 1613.54,536.72 1606.1,541.07 1599.64,536.03 1600.44,529.26 1596.56,517.78 1587.45,516.56 1576.45,510.9 1569,497.26 1557.26,500.22 1545.42,499.81 1542.17,491.67 1531.85,491.58 1510.71,471.93 1499.12,471.11 1490.89,473.56 1487.92,485.24 1474.52,482.2 1468.08,486.48 1468.81,495.82 1449.32,501.89 1430.26,504.94 1424.88,500.57 1403.92,508.87 1398.29,516.85 1385.42,515.23 1381.21,505.96 1370.37,505.05 1357.66,512.02 1350.21,503.55 1343.4,488.32 1345.88,472.56 1342.49,465.51 1354.43,458.94 1357.84,453.26 1350.33,440.67 1330.88,432.78 1316.28,429.28 1302.56,417.15 1289.47,412.86 1277.67,393.2 1277,381.23 1281.13,372.94 1280.12,355.36 1283.97,345.2 1283.07,334.74 1285.69,326.84 1295.83,321.45 1308.38,326.49 1321.36,342.74 1334.98,351.12 1341.58,342.77 1347.61,345.28 1373.89,335.81 1377.65,324.14 1391.06,321.62 1401.83,323.65 1410.07,312.62 1408.07,288.71 1397.59,287.43 1402.06,263.38 1395.58,250.41 1385.19,240.15 1379.45,238.39 1377.04,229.45 1389.79,222.09 1387.42,215.4 1372.42,208.58 1362.12,201.29 1341.52,199.42 1332.96,191.34" fill="none" stroke="#1e1e1e" stroke-width="1.42" stroke-linecap="round" stroke-linejoin="round"/>
<polyline points="1707.59,335.83 1717.81,348.56 1737.12,350.45 1743.73,346.83 1765.71,352.71 1771.39,350.99 1781.42,339.35 1790.57,337.11 1798.8,342.76 1802.53,336.24 1795.78,330.15 1795.43,321.55 1799.06,306.8 1793.72,298.4 1780.31,287.34 1770.13,288.12 1769.26,278.8 1755.33,279.35 1754.76,290.23 1732.86,297.44 1732.3,302.33 1721.62,310.22 1713.04,300.8 1709.33,315.17 1713.53,320.63 1707.59,335.83" fill="none" stroke="#1e1e1e" stroke-width="1.42" stroke-linecap="round" stroke-linejoin="round"/>
<path d="M1121.85,123.48L1128.76,124.19L1140.42,133.84L1150.63,144.61L1162.25,146.76L1174.3,167.62L1167.87,168.05L1167.45,175.91L1173.64,177.35L1175.21,185.95L1190.6,191.41L1194.03,188.01L1206.92,189.37L1231.02,196.58L1246.71,203.5L1250.58,196.71L1268.33,190.48L1273.79,174.69L1278.16,169.01L1286.49,179.74L1301.38,182.88L1311.89,174.85L1316.24,183.39L1321.66,181.8L1326.04,192.21L1332.96,191.34L1341.52,199.42L1362.12,201.29L1372.42,208.58L1387.42,215.4L1389.79,222.09L1377.04,229.45L1379.45,238.39L1385.19,240.15L1395.58,250.41L1402.06,263.38L1397.59,287.43L1408.07,288.71L1410.07,312.62L1401.83,323.65L1391.06,321.62L1377.65,324.14L1373.89,335.81L1347.61,345.28L1341.58,342.77L1334.98,351.12L1321.36,342.74L1308.38,326.49L1295.83,321.45L1285.69,326.84L1283.07,334.74L1283.97,345.2L1280.12,355.36L1281.13,372.94L1277,381.23L1277.67,393.2L1289.47,412.86L1302.56,417.15L1316.28,429.28L1330.88,432.78L1350.33,440.67L1357.84,453.26L1354.43,458.94L1342.49,465.51L1345.88,472.56L1343.4,488.32L1350.21,503.55L1339.29,497.75L1326.69,511.82L1319.12,510.82L1312.41,515.79L1303.34,515.56L1295.87,521.29L1293.24,530.68L1287.94,529.64L1274.99,540.68L1264.91,540.82L1264.48,546.44L1250.2,553.74L1247.23,557.89L1231.58,557.33L1216.77,541.41L1210.78,546.72L1201.71,547.56L1181.36,555.62L1176.53,551.92L1178.66,536.19L1165.19,523.21L1160.43,525.49L1152.58,520.69L1144.54,522.62L1133.91,515.22L1112.54,520.21L1103.5,524.38L1098.52,534.51L1093.23,536.03L1087.77,553.65L1088.09,568.61L1098.19,570.81L1103.54,579.76L1104.87,592.1L1091.07,613.13L1081.46,613.54L1060.7,609.13L1036.39,594.97L1032.84,587.87L1033.33,574.39L1040.13,569.14L1044.64,555.66L1034.79,546.7L1038.81,536.59L1047.36,530.96L1051.61,519.72L1032.98,516.02L1022.65,510.42L1025.15,498.07L1029.92,492.83L1026.39,486.1L1011.81,489.48L999.75,482.75L991.46,482.74L984.93,476.38L986.69,463.66L982.18,458.04L985.47,428.11L997.74,429.98L1006.76,425.49L994.49,415.76L983.97,413.14L974.21,415.75L961.67,422.46L951.4,423.56L946.15,417.19L931.65,410.03L923.94,397.28L906.65,403.57L900.67,398.67L891.63,403.86L885.8,415.8L878.31,413.51L873.12,403L855.96,387.54L850.83,371.78L854.89,363.96L860.62,365.5L863.68,357.28L875.71,349.51L882.03,336.82L903.5,333.57L919.28,316.06L934,309L942.97,309.03L962.41,302.35L979.09,302.37L996.52,291.16L1006.47,279.55L1016.9,271.69L1023.34,249.23L1020.1,241.75L1027.52,221.91L1024.54,214.8L1029.23,205.44L1036.16,199.81L1040.1,191.94L1054.74,202.39L1061.17,199.37L1076.05,207.18L1079.05,212.78L1094.45,220.57L1114.13,193.89L1112.62,189.78L1118.98,177.4L1115.71,169.18L1117.33,150.83L1112.35,144.13L1116.76,138.49L1121.85,123.48Z" fill-rule="evenodd" fill="#4682b4" fill-opacity="0.471"/>
<polyline points="1121.85,123.48 1128.76,124.19 1140.42,133.84 1150.63,144.61 1162.25,146.76 1174.3,167.62 1167.87,168.05 1167.45,175.91 1173.64,177.35 1175.21,185.95 1190.6,191.41 1194.03,188.01 1206.92,189.37 1231.02,196.58 1246.71,203.5 1250.58,196.71 1268.33,190.48 1273.79,174.69 1278.16,169.01 1286.49,179.74 1301.38,182.88 1311.89,174.85 1316.24,183.39 1321.66,181.8 1326.04,192.21 1332.96,191.34 1341.52,199.42 1362.12,201.29 1372.42,208.58 1387.42,215.4 1389.79,222.09 1377.04,229.45 1379.45,238.39 1385.19,240.15 1395.58,250.41 1402.06,263.38 1397.59,287.43 1408.07,288.71 1410.07,312.62 1401.83,323.65 1391.06,321.62 1377.65,324.14 1373.89,335.81 1347.61,345.28 1341.58,342.77 1334.98,351.12 1321.36,342.74 1308.38,326.49 1295.83,321.45 1285.69,326.84 1283.07,334.74 1283.97,345.2 1280.12,355.36 1281.13,372.94 1277,381.23 1277.67,393.2 1289.47,412.86 1302.56,417.15 1316.28,429.28 1330.88,432.78 1350.33,440.67 1357.84,453.26 1354.43,458.94 1342.49,465.51 1345.88,472.56 1343.4,488.32 1350.21,503.55 1339.29,497.75 1326.69,511.82 1319.12,510.82 1312.41,515.79 1303.34,515.56 1295.87,521.29 1293.24,530.68 1287.94,529.64 1274.99,540.68 1264.91,540.82 1264.48,546.44 1250.2,553.74 1247.23,557.89 1231.58,557.33 1216.77,541.41 1210.78,546.72 1201.71,547.56 1181.36,555.62 1176.53,551.92 1178.66,536.19 1165.19,523.21 1160.43,525.49 1152.58,520.69 1144.54,522.62 1133.91,515.22 1112.54,520.21 1103.5,524.38 1098.52,534.51 1093.23,536.03 1087.77,553.65 1088.09,568.61 1098.19,570.81 1103.54,579.76 1104.87,592.1 1091.07,613.13 1081.46,613.54 1060.7,609.13 1036.39,594.97 1032.84,587.87 1033.33,574.39 1040.13,569.14 1044.64,555.66 1034.79,546.7 1038.81,536.59 1047.36,530.96 1051.61,519.72 1032.98,516.02 1022.65,510.42 1025.15,498.07 1029.92,492.83 1026.39,486.1 1011.81,489.48 999.75,482.75 991.46,482.74 984.93,476.38 986.69,463.66 982.18,458.04 985.47,428.11 997.74,429.98 1006.76,425.49 994.49,415.76 983.97,413.14 974.21,415.75 961.67,422.46 951.4,423.56 946.15,417.19 931.65,410.03 923.94,397.28 906.65,403.57 900.67,398.67 891.63,403.86 885.8,415.8 878.31,413.51 873.12,403 855.96,387.54 850.83,371.78 854.89,363.96 860.62,365.5 863.68,357.28 875.71,349.51 882.03,336.82 903.5,333.57 919.28,316.06 934,309 942.97,309.03 962.41,302.35 979.09,302.37 996.52,291.16 1006.47,279.55 1016.9,271.69 1023.34,249.23 1020.1,241.75 1027.52,221.91 1024.54,214.8 1029.23,205.44 1036.16,199.81 1040.1,191.94 1054.74,202.39 1061.17,199.37 1076.05,207.18 1079.05,212.78 1094.45,220.57 1114.13,193.89 1112.62,189.78 1118.98,177.4 1115.71,169.18 1117.33,150.83 1112.35,144.13 1116.76,138.49 1121.85,123.48" fill="none" stroke="#1e1e1e" stroke-width="1.42" stroke-linecap="round" stroke-linejoin="round"/>
<path d="M805.58,549.51L812.79,534.61L825.89,534.73L828.69,531.39L845.32,531.9L859.55,549.6L864.03,558.23L857.13,569.79L860.86,578.04L881.99,591.28L889.52,600.68L912.72,613.14L924.65,602.72L923.19,589.99L926.77,578.4L923.78,568.66L936.95,551.87L932.96,539.13L932.49,529.4L924.47,520.02L914.92,516.61L910.87,520.71L896.01,521.01L889,514.61L895.58,507.91L897.91,495.58L903.48,488.12L913.37,467.21L899.2,440.2L890.99,428.56L880.99,425.13L878.31,413.51L885.8,415.8L891.63,403.86L900.67,398.67L906.65,403.57L923.94,397.28L931.65,410.03L946.15,417.19L951.4,423.56L961.67,422.46L974.21,415.75L983.97,413.14L994.49,415.76L1006.76,425.49L997.74,429.98L985.47,428.11L982.18,458.04L986.69,463.66L984.93,476.38L991.46,482.74L999.75,482.75L1011.81,489.48L1026.39,486.1L1029.92,492.83L1025.15,498.07L1022.65,510.42L1032.98,516.02L1051.61,519.72L1047.36,530.96L1038.81,536.59L1034.79,546.7L1044.64,555.66L1040.13,569.14L1033.33,574.39L1032.84,587.87L1036.39,594.97L1060.7,609.13L1062.49,614.36L1054.94,629.73L1057.74,634.96L1065.43,663.37L1063.96,676.85L1072.36,684.3L1078.19,683.16L1092.95,689.46L1094.95,683.46L1111.2,683.75L1116.49,676.98L1121.38,686.68L1131.06,691.48L1128.07,700.49L1145.25,722.07L1154.18,725L1164.93,733.14L1162.19,739.53L1152.22,735.12L1139.05,743.82L1135.27,750.21L1142.99,760.26L1132.15,779.04L1132.47,788.02L1127.38,790.68L1124.12,799.68L1112.16,807.61L1108.77,795.28L1101.84,788.95L1088.81,784.53L1088.49,771.8L1076.51,771.85L1068.83,764.77L1059.92,767.42L1044.86,761.1L1020.9,756.65L1015.29,761.14L1004.08,749.92L988.28,754.04L982.42,751.41L972.73,760.01L975.01,767.87L932.15,776.75L930.34,781.98L916.85,775.57L902.83,772.14L896.02,758.26L878.97,754.42L870.3,755.48L866.01,749.84L856.31,751.65L845.38,748.94L843.43,737.33L827.62,740.94L824.24,748.77L814.38,740.82L801.45,735.08L794.56,736.5L784.48,727.04L771.7,731.39L758.75,728.99L750.31,732.63L748.65,742.71L730.73,749.58L725.02,756.99L718.36,759.14L714.87,754.23L704.48,750.33L691.67,754.25L685.66,732.07L681.12,729.38L678.87,711.01L684.2,696.12L683.82,687.88L677.55,683.29L687.66,669.98L694.92,676.46L701.34,671.32L707.92,672.91L716.87,668.18L725.44,672.04L735.73,661.7L753.65,669.05L762.54,668.03L770.73,662.52L778.32,664.1L783.95,659.3L780.26,649.16L787.22,638.38L799.66,636.26L805.7,639.32L820.8,622.62L819.11,614.38L836.62,607.42L826.87,594.99L822.22,578.48L828.61,569.56L825.11,565.78L805.48,559.61L805.58,549.51Z" fill-rule="evenodd" fill="#4682b4" fill-opacity="0.471"/>
<polyline points="805.58,549.51 812.79,534.61 825.89,534.73 828.69,531.39 845.32,531.9 859.55,549.6 864.03,558.23 857.13,569.79 860.86,578.04 881.99,591.28 889.52,600.68 912.72,613.14 924.65,602.72 923.19,589.99 926.77,578.4 923.78,568.66 936.95,551.87 932.96,539.13 932.49,529.4 924.47,520.02 914.92,516.61 910.87,520.71 896.01,521.01 889,514.61 895.58,507.91 897.91,495.58 903.48,488.12 913.37,467.21 899.2,440.2 890.99,428.56 880.99,425.13 878.31,413.51 885.8,415.8 891.63,403.86 900.67,398.67 906.65,403.57 923.94,397.28 931.65,410.03 946.15,417.19 951.4,423.56 961.67,422.46 974.21,415.75 983.97,413.14 994.49,415.76 1006.76,425.49 997.74,429.98 985.47,428.11 982.18,458.04 986.69,463.66 984.93,476.38 991.46,482.74 999.75,482.75 1011.81,489.48 1026.39,486.1 1029.92,492.83 1025.15,498.07 1022.65,510.42 1032.98,516.02 1051.61,519.72 1047.36,530.96 1038.81,536.59 1034.79,546.7 1044.64,555.66 1040.13,569.14 1033.33,574.39 1032.84,587.87 1036.39,594.97 1060.7,609.13 1062.49,614.36 1054.94,629.73 1057.74,634.96 1065.43,663.37 1063.96,676.85 1072.36,684.3 1078.19,683.16 1092.95,689.46 1094.95,683.46 1111.2,683.75 1116.49,676.98 1121.38,686.68 1131.06,691.48 1128.07,700.49 1145.25,722.07 1154.18,725 1164.93,733.14 1162.19,739.53 1152.22,735.12 1139.05,743.82 1135.27,750.21 1142.99,760.26 1132.15,779.04 1132.47,788.02 1127.38,790.68 1124.12,799.68 1112.16,807.61 1108.77,795.28 1101.84,788.95 1088.81,784.53 1088.49,771.8 1076.51,771.85 1068.83,764.77 1059.92,767.42 1044.86,761.1 1020.9,756.65 1015.29,761.14 1004.08,749.92 988.28,754.04 982.42,751.41 972.73,760.01 975.01,767.87 932.15,776.75 930.34,781.98 916.85,775.57 902.83,772.14 896.02,758.26 878.97,754.42 870.3,755.48 866.01,749.84 856.31,751.65 845.38,748.94 843.43,737.33 827.62,740.94 824.24,748.77 814.38,740.82 801.45,735.08 794.56,736.5 784.48,727.04 771.7,731.39 758.75,728.99 750.31,732.63 748.65,742.71 730.73,749.58 725.02,756.99 718.36,759.14 714.87,754.23 704.48,750.33 691.67,754.25 685.66,732.07 681.12,729.38 678.87,711.01 684.2,696.12 683.82,687.88 677.55,683.29 687.66,669.98 694.92,676.46 701.34,671.32 707.92,672.91 716.87,668.18 725.44,672.04 735.73,661.7 753.65,669.05 762.54,668.03 770.73,662.52 778.32,664.1 783.95,659.3 780.26,649.16 787.22,638.38 799.66,636.26 805.7,639.32 820.8,622.62 819.11,614.38 836.62,607.42 826.87,594.99 822.22,578.48 828.61,569.56 825.11,565.78 805.48,559.61 805.58,549.51" fill="none" stroke="#1e1e1e" stroke-width="1.42" stroke-linecap="round" stroke-linejoin="round"/>
<path d="M1060.7,609.13L1081.46,613.54L1091.07,613.13L1104.87,592.1L1103.54,579.76L1098.19,570.81L1088.09,568.61L1087.77,553.65L1093.23,536.03L1098.52,534.51L1103.5,524.38L1112.54,520.21L1133.91,515.22L1144.54,522.62L1152.58,520.69L1160.43,525.49L1165.19,523.21L1178.66,536.19L1176.53,551.92L1181.36,555.62L1201.71,547.56L1210.78,546.72L1216.77,541.41L1231.58,557.33L1247.23,557.89L1250.2,553.74L1264.48,546.44L1264.91,540.82L1274.99,540.68L1287.94,529.64L1293.24,530.68L1295.87,521.29L1303.34,515.56L1312.41,515.79L1319.12,510.82L1326.69,511.82L1339.29,497.75L1350.21,503.55L1357.66,512.02L1370.37,505.05L1381.21,505.96L1385.42,515.23L1398.29,516.85L1403.92,508.87L1424.88,500.57L1430.26,504.94L1449.32,501.89L1468.81,495.82L1468.08,486.48L1474.52,482.2L1487.92,485.24L1490.89,473.56L1499.12,471.11L1510.71,471.93L1531.85,491.58L1542.17,491.67L1545.42,499.81L1557.26,500.22L1569,497.26L1576.45,510.9L1587.45,516.56L1596.56,517.78L1600.44,529.26L1599.64,536.03L1606.1,541.07L1613.54,536.72L1624.18,538.25L1634.55,546.9L1631.23,553.38L1631.33,564.23L1638.08,562.14L1645.77,565.63L1648.7,577.89L1659.47,582.4L1677.2,583.29L1682.8,591.33L1693.45,584.97L1697.76,578.07L1702,597.77L1708.02,610.28L1715.32,616.01L1697.45,619.27L1688.82,625.94L1688.23,630.83L1676.55,637.6L1687.91,657.8L1696.45,684.08L1695.15,690.5L1702.13,707.85L1704.75,724.23L1699.94,732.26L1698.42,746.92L1707.26,758.59L1707.77,765.69L1715.3,776.27L1708.45,777.64L1694.15,806.98L1682.27,818.26L1678.3,837.11L1677.28,859.62L1678.85,875.67L1691.44,890.58L1691.38,903.69L1677.41,893.69L1670.96,892.78L1656.54,883.9L1645.39,880.53L1637.19,880.79L1626.08,886.76L1609.79,891.38L1591.2,888.2L1584.56,898.13L1577.27,894.6L1565.2,903.56L1564.31,917.44L1558.74,920.59L1548.04,924.26L1533.5,909.68L1500.13,910.92L1485.61,916.15L1465.93,909.88L1453.32,909.05L1446,914.83L1441.57,912.3L1432.37,902.77L1435.66,888.85L1431.89,868.72L1417.67,863.04L1422.2,847.22L1428.46,840.72L1425.93,830.29L1429.99,816.73L1420.8,805.7L1413.82,789.38L1409.14,785.36L1397.6,782.97L1385.16,773.49L1378.61,764.63L1372.83,768.86L1363.39,769.03L1349.51,777.14L1327.09,779.02L1323.87,785.07L1316.38,779.95L1301.35,781.31L1292.33,775.45L1265.52,792.67L1264.59,780.33L1259.43,775.91L1250.47,774.16L1233.65,775.48L1223.93,772.6L1218.15,757.32L1207.79,766.04L1192.8,771.81L1179.4,784.66L1170.73,785.48L1168.53,797.1L1158.09,800.18L1152.28,808.46L1141.57,811.16L1137.01,817.18L1128.34,820.61L1119.11,815.8L1112.16,807.61L1124.12,799.68L1127.38,790.68L1132.47,788.02L1132.15,779.04L1142.99,760.26L1135.27,750.21L1139.05,743.82L1152.22,735.12L1162.19,739.53L1164.93,733.14L1154.18,725L1145.25,722.07L1128.07,700.49L1131.06,691.48L1121.38,686.68L1116.49,676.98L1111.2,683.75L1094.95,683.46L1092.95,689.46L1078.19,683.16L1072.36,684.3L1063.96,676.85L1065.43,663.37L1057.74,634.96L1054.94,629.73L1062.49,614.36L1060.7,609.13Z" fill-rule="evenodd" fill="#4682b4" fill-opacity="0.471"/>
<polyline points="1060.7,609.13 1081.46,613.54 1091.07,613.13 1104.87,592.1 1103.54,579.76 1098.19,570.81 1088.09,568.61 1087.77,553.65 1093.23,536.03 1098.52,534.51 1103.5,524.38 1112.54,520.21 1133.91,515.22 1144.54,522.62 1152.58,520.69 1160.43,525.49 1165.19,523.21 1178.66,536.19 1176.53,551.92 1181.36,555.62 1201.71,547.56 1210.78,546.72 1216.77,541.41 1231.58,557.33 1247.23,557.89 1250.2,553.74 1264.48,546.44 1264.91,540.82 1274.99,540.68 1287.94,529.64 1293.24,530.68 1295.87,521.29 1303.34,515.56 1312.41,515.79 1319.12,510.82 1326.69,511.82 1339.29,497.75 1350.21,503.55 1357.66,512.02 1370.37,505.05 1381.21,505.96 1385.42,515.23 1398.29,516.85 1403.92,508.87 1424.88,500.57 1430.26,504.94 1449.32,501.89 1468.81,495.82 1468.08,486.48 1474.52,482.2 1487.92,485.24 1490.89,473.56 1499.12,471.11 1510.71,471.93 1531.85,491.58 1542.17,491.67 1545.42,499.81 1557.26,500.22 1569,497.26 1576.45,510.9 1587.45,516.56 1596.56,517.78 1600.44,529.26 1599.64,536.03 1606.1,541.07 1613.54,536.72 1624.18,538.25 1634.55,546.9 1631.23,553.38 1631.33,564.23 1638.08,562.14 1645.77,565.63 1648.7,577.89 1659.47,582.4 1677.2,583.29 1682.8,591.33 1693.45,584.97 1697.76,578.07 1702,597.77 1708.02,610.28 1715.32,616.01 1697.45,619.27 1688.82,625.94 1688.23,630.83 1676.55,637.6 1687.91,657.8 1696.45,684.08 1695.15,690.5 1702.13,707.85 1704.75,724.23 1699.94,732.26 1698.42,746.92 1707.26,758.59 1707.77,765.69 1715.3,776.27 1708.45,777.64 1694.15,806.98 1682.27,818.26 1678.3,837.11 1677.28,859.62 1678.85,875.67 1691.44,890.58 1691.38,903.69 1677.41,893.69 1670.96,892.78 1656.54,883.9 1645.39,880.53 1637.19,880.79 1626.08,886.76 1609.79,891.38 1591.2,888.2 1584.56,898.13 1577.27,894.6 1565.2,903.56 1564.31,917.44 1558.74,920.59 1548.04,924.26 1533.5,909.68 1500.13,910.92 1485.61,916.15 1465.93,909.88 1453.32,909.05 1446,914.83 1441.57,912.3 1432.37,902.77 1435.66,888.85 1431.89,868.72 1417.67,863.04 1422.2,847.22 1428.46,840.72 1425.93,830.29 1429.99,816.73 1420.8,805.7 1413.82,789.38 1409.14,785.36 1397.6,782.97 1385.16,773.49 1378.61,764.63 1372.83,768.86 1363.39,769.03 1349.51,777.14 1327.09,779.02 1323.87,785.07 1316.38,779.95 1301.35,781.31 1292.33,775.45 1265.52,792.67 1264.59,780.33 1259.43,775.91 1250.47,774.16 1233.65,775.48 1223.93,772.6 1218.15,757.32 1207.79,766.04 1192.8,771.81 1179.4,784.66 1170.73,785.48 1168.53,797.1 1158.09,800.18 1152.28,808.46 1141.57,811.16 1137.01,817.18 1128.34,820.61 1119.11,815.8 1112.16,807.61 1124.12,799.68 1127.38,790.68 1132.47,788.02 1132.15,779.04 1142.99,760.26 1135.27,750.21 1139.05,743.82 1152.22,735.12 1162.19,739.53 1164.93,733.14 1154.18,725 1145.25,722.07 1128.07,700.49 1131.06,691.48 1121.38,686.68 1116.49,676.98 1111.2,683.75 1094.95,683.46 1092.95,689.46 1078.19,683.16 1072.36,684.3 1063.96,676.85 1065.43,663.37 1057.74,634.96 1054.94,629.73 1062.49,614.36 1060.7,609.13" fill="none" stroke="#1e1e1e" stroke-width="1.42" stroke-linecap="round" stroke-linejoin="round"/>
<path d="M269.85,565.28L278.46,571.59L299.59,574.61L306.38,561.37L315.57,565.81L326.17,566.18L330.53,571.57L344.57,575.04L351.1,583.87L370.27,577.39L379.66,576.19L383.47,583.8L374.15,590.61L374.21,596.61L384.11,595.42L402.18,616.95L398.29,628.06L407.34,630.58L434.96,630.65L438.42,624.76L458.14,617.08L470.22,619.65L462.06,631.04L474.73,631L479.83,620.28L492.2,612L511.4,613.61L505.91,600.37L518.86,587.97L534.93,592.47L551.7,589.12L560.58,564.99L584.63,562.15L605.08,561.83L621.67,565.52L626.35,558.13L663.82,550.95L665.52,555.1L676.66,552.66L681.14,556.11L695.75,558.21L705.63,554.99L709.12,558.41L712.95,555.1L710.59,544.21L702.99,529.51L707.13,522.46L727.95,510.78L721.7,525.29L730.99,527.67L745.89,524.5L752.63,529.45L769.05,525.16L777.93,542.48L789.67,551.96L795.77,547.91L805.58,549.51L805.48,559.61L825.11,565.78L828.61,569.56L822.22,578.48L826.87,594.99L836.62,607.42L819.11,614.38L820.8,622.62L805.7,639.32L799.66,636.26L787.22,638.38L780.26,649.16L783.95,659.3L778.32,664.1L770.73,662.52L762.54,668.03L753.65,669.05L735.73,661.7L725.44,672.04L716.87,668.18L707.92,672.91L701.34,671.32L694.92,676.46L687.66,669.98L677.55,683.29L683.82,687.88L684.2,696.12L678.87,711.01L681.12,729.38L685.66,732.07L691.67,754.25L682.48,755.23L676.51,761.87L667.85,761.35L661.9,766.49L651.47,765.18L639.14,769.83L609.47,786.86L601.06,785.94L596.07,792.95L586.87,793.13L582.7,785.19L570.95,785.31L561.43,777.24L538.47,787.57L532.28,779.57L523.66,777.11L514.16,789.61L507.69,793.19L498.53,791.47L492.85,783.83L483.17,783.21L462.79,790.9L448.74,790.89L443.63,799.73L436.03,806.25L429.95,804.58L424.59,813.04L426.18,819.82L418.14,832.32L420.31,845.49L409.13,851.15L404.08,865.6L377.8,861.42L365.14,864.39L358.16,858.17L351.15,860.57L344.5,852.49L336.17,856.33L329.8,854.99L338.66,842.93L328.39,836.22L313.76,822.24L289.81,833.38L264.15,827.57L263.29,816.31L269.07,805.29L269.91,796.33L253.36,787.85L254.85,782.29L247.76,773.78L236.98,775.24L224.37,790.48L226.06,799.53L219.12,800.38L207,796.53L202.58,810.96L203.47,820.73L193.74,820.71L187.12,826.06L180.98,825.81L172.48,808.6L170.15,796.89L177.27,791.94L180.81,780.48L186.84,770.62L178.02,761.64L187.1,751.9L181.73,746.06L184.78,733.83L200.23,717.61L205.18,714.81L199.49,698.1L203.71,694.53L200.69,681.3L206.75,675.92L195.83,669.49L222.48,663.82L234.9,657.94L242.21,646.24L249.83,639.42L252.92,631.67L261.62,629.38L264.07,618.24L273.7,611.48L271.33,593.42L263.31,584.51L269.85,565.28Z" fill-rule="evenodd" fill="#4682b4" fill-opacity="0.471"/>
<polyline points="269.85,565.28 278.46,571.59 299.59,574.61 306.38,561.37 315.57,565.81 326.17,566.18 330.53,571.57 344.57,575.04 351.1,583.87 370.27,577.39 379.66,576.19 383.47,583.8 374.15,590.61 374.21,596.61 384.11,595.42 402.18,616.95 398.29,628.06 407.34,630.58 434.96,630.65 438.42,624.76 458.14,617.08 470.22,619.65 462.06,631.04 474.73,631 479.83,620.28 492.2,612 511.4,613.61 505.91,600.37 518.86,587.97 534.93,592.47 551.7,589.12 560.58,564.99 584.63,562.15 605.08,561.83 621.67,565.52 626.35,558.13 663.82,550.95 665.52,555.1 676.66,552.66 681.14,556.11 695.75,558.21 705.63,554.99 709.12,558.41 712.95,555.1 710.59,544.21 702.99,529.51 707.13,522.46 727.95,510.78 721.7,525.29 730.99,527.67 745.89,524.5 752.63,529.45 769.05,525.16 777.93,542.48 789.67,551.96 795.77,547.91 805.58,549.51 805.48,559.61 825.11,565.78 828.61,569.56 822.22,578.48 826.87,594.99 836.62,607.42 819.11,614.38 820.8,622.62 805.7,639.32 799.66,636.26 787.22,638.38 780.26,649.16 783.95,659.3 778.32,664.1 770.73,662.52 762.54,668.03 753.65,669.05 735.73,661.7 725.44,672.04 716.87,668.18 707.92,672.91 701.34,671.32 694.92,676.46 687.66,669.98 677.55,683.29 683.82,687.88 684.2,696.12 678.87,711.01 681.12,729.38 685.66,732.07 691.67,754.25 682.48,755.23 676.51,761.87 667.85,761.35 661.9,766.49 651.47,765.18 639.14,769.83 609.47,786.86 601.06,785.94 596.07,792.95 586.87,793.13 582.7,785.19 570.95,785.31 561.43,777.24 538.47,787.57 532.28,779.57 523.66,777.11 514.16,789.61 507.69,793.19 498.53,791.47 492.85,783.83 483.17,783.21 462.79,790.9 448.74,790.89 443.63,799.73 436.03,806.25 429.95,804.58 424.59,813.04 426.18,819.82 418.14,832.32 420.31,845.49 409.13,851.15 404.08,865.6 377.8,861.42 365.14,864.39 358.16,858.17 351.15,860.57 344.5,852.49 336.17,856.33 329.8,854.99 338.66,842.93 328.39,836.22 313.76,822.24 289.81,833.38 264.15,827.57 263.29,816.31 269.07,805.29 269.91,796.33 253.36,787.85 254.85,782.29 247.76,773.78 236.98,775.24 224.37,790.48 226.06,799.53 219.12,800.38 207,796.53 202.58,810.96 203.47,820.73 193.74,820.71 187.12,826.06 180.98,825.81 172.48,808.6 170.15,796.89 177.27,791.94 180.81,780.48 186.84,770.62 178.02,761.64 187.1,751.9 181.73,746.06 184.78,733.83 200.23,717.61 205.18,714.81 199.49,698.1 203.71,694.53 200.69,681.3 206.75,675.92 195.83,669.49 222.48,663.82 234.9,657.94 242.21,646.24 249.83,639.42 252.92,631.67 261.62,629.38 264.07,618.24 273.7,611.48 271.33,593.42 263.31,584.51 269.85,565.28" fill="none" stroke="#1e1e1e" stroke-width="1.42" stroke-linecap="round" stroke-linejoin="round"/>
<path d="M269.85,565.28L263.85,556.82L272.29,554.14L274.85,559.85L269.85,565.28Z" fill-rule="evenodd" fill="#4682b4" fill-opacity="0.471"/>
<polyline points="269.85,565.28 263.85,556.82 272.29,554.14 274.85,559.85 269.85,565.28" fill="none" stroke="#1e1e1e" stroke-width="1.42" stroke-linecap="round" stroke-linejoin="round"/>
<path d="M718.36,759.14L725.02,756.99L730.73,749.58L748.65,742.71L750.31,732.63L758.75,728.99L771.7,731.39L784.48,727.04L794.56,736.5L801.45,735.08L814.38,740.82L824.24,748.77L835.61,759.72L838.09,768.34L852.1,769.95L841.5,787.83L846.5,800.97L856.13,811.89L869.88,819.47L870.78,838.57L882.25,845.37L885.28,852.13L902.39,862.7L897.47,872.4L891.05,874.62L885.44,870.09L870.5,880.48L860.52,877.42L848.97,879.95L837.39,885.1L837.03,896.7L830.81,903.76L831.75,914.62L816.35,912.99L809.4,914.79L795.03,913.53L790.21,907.86L777.13,905.48L760.8,897.43L753.17,891.72L746.52,869.55L734.27,865.65L727.76,854.33L733.74,847.68L729.82,835.27L724.04,827.34L716.12,826.48L709.67,830.5L704.46,819.94L695.06,815.68L699.01,807.88L691.45,801.03L688.73,779.65L694.15,775.25L708.7,774.72L712.19,762.79L718.36,759.14Z" fill-rule="evenodd" fill="#4682b4" fill-opacity="0.471"/>
<polyline points="718.36,759.14 725.02,756.99 730.73,749.58 748.65,742.71 750.31,732.63 758.75,728.99 771.7,731.39 784.48,727.04 794.56,736.5 801.45,735.08 814.38,740.82 824.24,748.77 835.61,759.72 838.09,768.34 852.1,769.95 841.5,787.83 846.5,800.97 856.13,811.89 869.88,819.47 870.78,838.57 882.25,845.37 885.28,852.13 902.39,862.7 897.47,872.4 891.05,874.62 885.44,870.09 870.5,880.48 860.52,877.42 848.97,879.95 837.39,885.1 837.03,896.7 830.81,903.76 831.75,914.62 816.35,912.99 809.4,914.79 795.03,913.53 790.21,907.86 777.13,905.48 760.8,897.43 753.17,891.72 746.52,869.55 734.27,865.65 727.76,854.33 733.74,847.68 729.82,835.27 724.04,827.34 716.12,826.48 709.67,830.5 704.46,819.94 695.06,815.68 699.01,807.88 691.45,801.03 688.73,779.65 694.15,775.25 708.7,774.72 712.19,762.79 718.36,759.14" fill="none" stroke="#1e1e1e" stroke-width="1.42" stroke-linecap="round" stroke-linejoin="round"/>
<path d="M86.8,565.83L97.08,545.7L106.03,543.49L112.06,549.76L108.74,561.6L117.94,565.01L124.89,562.33L135.44,569.54L144.61,568.07L153.43,580.44L154.35,588.34L163.56,586.12L171.37,598.81L176.73,597.91L180.05,609.29L170.87,616.77L177.37,636.89L182.51,629.24L195.35,631.64L198.71,623.92L212.36,631.21L202.26,648.78L206.09,654.55L194.45,666.06L195.83,669.49L206.75,675.92L200.69,681.3L203.71,694.53L199.49,698.1L205.18,714.81L200.23,717.61L184.78,733.83L181.73,746.06L187.1,751.9L178.02,761.64L186.84,770.62L180.81,780.48L177.27,791.94L170.15,796.89L172.48,808.6L180.98,825.81L170.6,829.12L166.31,821.45L159.15,821.15L151.27,807.7L131.1,800.83L114.63,791.48L113.97,777.6L118.59,771.43L114.03,764.86L103.46,761.39L91.91,751.49L75.42,749.23L65.82,741.66L47.22,741.15L48.81,734.48L54.23,733.24L51.68,722.63L52.82,720.06L53.58,709.61L45.03,702.08L38.51,699.89L40.87,693.26L44.23,687.05L37.85,677L37.73,669.13L31.73,661.71L45.94,646.67L50.32,634.9L57.03,627.35L64.66,626.97L70.13,618.61L64.86,611.99L63.34,601.43L66.19,594.82L50.99,589.6L43.53,576.5L50.14,580.94L60.7,577.33L65.77,582.44L74.91,576.51L91.39,575.78L86.8,565.83Z" fill-rule="evenodd" fill="#4682b4" fill-opacity="0.471"/>
<polyline points="86.8,565.83 97.08,545.7 106.03,543.49 112.06,549.76 108.74,561.6 117.94,565.01 124.89,562.33 135.44,569.54 144.61,568.07 153.43,580.44 154.35,588.34 163.56,586.12 171.37,598.81 176.73,597.91 180.05,609.29 170.87,616.77 177.37,636.89 182.51,629.24 195.35,631.64 198.71,623.92 212.36,631.21 202.26,648.78 206.09,654.55 194.45,666.06 195.83,669.49 206.75,675.92 200.69,681.3 203.71,694.53 199.49,698.1 205.18,714.81 200.23,717.61 184.78,733.83 181.73,746.06 187.1,751.9 178.02,761.64 186.84,770.62 180.81,780.48 177.27,791.94 170.15,796.89 172.48,808.6 180.98,825.81 170.6,829.12 166.31,821.45 159.15,821.15 151.27,807.7 131.1,800.83 114.63,791.48 113.97,777.6 118.59,771.43 114.03,764.86 103.46,761.39 91.91,751.49 75.42,749.23 65.82,741.66 47.22,741.15 48.81,734.48 54.23,733.24 51.68,722.63 52.82,720.06 53.58,709.61 45.03,702.08 38.51,699.89 40.87,693.26 44.23,687.05 37.85,677 37.73,669.13 31.73,661.71 45.94,646.67 50.32,634.9 57.03,627.35 64.66,626.97 70.13,618.61 64.86,611.99 63.34,601.43 66.19,594.82 50.99,589.6 43.53,576.5 50.14,580.94 60.7,577.33 65.77,582.44 74.91,576.51 91.39,575.78 86.8,565.83" fill="none" stroke="#1e1e1e" stroke-width="1.42" stroke-linecap="round" stroke-linejoin="round"/>
<path d="M1707.59,335.83L1713.53,320.63L1709.33,315.17L1713.04,300.8L1721.62,310.22L1732.3,302.33L1732.86,297.44L1754.76,290.23L1755.33,279.35L1769.26,278.8L1770.13,288.12L1780.31,287.34L1793.72,298.4L1799.06,306.8L1795.43,321.55L1795.78,330.15L1802.53,336.24L1798.8,342.76L1790.57,337.11L1781.42,339.35L1771.39,350.99L1765.71,352.71L1743.73,346.83L1737.12,350.45L1717.81,348.56L1707.59,335.83Z" fill-rule="evenodd" fill="#4682b4" fill-opacity="0.471"/>
<polyline points="1707.59,335.83 1713.53,320.63 1709.33,315.17 1713.04,300.8 1721.62,310.22 1732.3,302.33 1732.86,297.44 1754.76,290.23 1755.33,279.35 1769.26,278.8 1770.13,288.12 1780.31,287.34 1793.72,298.4 1799.06,306.8 1795.43,321.55 1795.78,330.15 1802.53,336.24 1798.8,342.76 1790.57,337.11 1781.42,339.35 1771.39,350.99 1765.71,352.71 1743.73,346.83 1737.12,350.45 1717.81,348.56 1707.59,335.83" fill="none" stroke="#1e1e1e" stroke-width="1.42" stroke-linecap="round" stroke-linejoin="round"/>
<text x="1539.37" y="309.15" font-family="sans-serif" font-size="14" stroke="#ffffff" stroke-opacity="0.784" stroke-width="2.33" stroke-linejoin="round" paint-order="stroke" fill="#141414">Lower Austria</text>
<text x="1396.22" y="688.72" font-family="sans-serif" font-size="14" stroke="#ffffff" stroke-opacity="0.784" stroke-width="2.33" stroke-linejoin="round" paint-order="stroke" fill="#141414">Styria</text>
<text x="460.16" y="694.1" font-family="sans-serif" font-size="14" stroke="#ffffff" stroke-opacity="0.784" stroke-width="2.33" stroke-linejoin="round" paint-order="stroke" fill="#141414">Tyrol</text>
<text x="1091.42" y="368.14" font-family="sans-serif" font-size="14" stroke="#ffffff" stroke-opacity="0.784" stroke-width="2.33" stroke-linejoin="round" paint-order="stroke" fill="#141414">Upper Austria</text>
<text x="1106.12" y="878.03" font-family="sans-serif" font-size="14" stroke="#ffffff" stroke-opacity="0.784" stroke-width="2.33" stroke-linejoin="round" paint-order="stroke" fill="#141414">Carinthia</text>
<text x="894.99" y="648.76" font-family="sans-serif" font-size="14" stroke="#ffffff" stroke-opacity="0.784" stroke-width="2.33" stroke-linejoin="round" paint-order="stroke" fill="#141414">Salzburg</text>
<text x="1751.17" y="575.02" font-family="sans-serif" font-size="14" stroke="#ffffff" stroke-opacity="0.784" stroke-width="2.33" stroke-linejoin="round" paint-order="stroke" fill="#141414">Burgenland</text>
<text x="75.98" y="685.97" font-family="sans-serif" font-size="14" stroke="#ffffff" stroke-opacity="0.784" stroke-width="2.33" stroke-linejoin="round" paint-order="stroke" fill="#141414">Vorarlberg</text>
<text x="1725.96" y="326.8" font-family="sans-serif" font-size="14" stroke="#ffffff" stroke-opacity="0.784" stroke-width="2.33" stroke-linejoin="round" paint-order="stroke" fill="#141414">Vienna</text>
</svg>
