<?xml version="1.0" encoding="UTF-8" standalone="no"?>
<svg xmlns="http://www.w3.org/2000/svg" width="2000" height="1483" viewBox="0 0 2000 1483">
<rect width="2000" height="1483" fill="#ffffff"/>
<polyline points="1859.19,662.95 1857.26,660.99 1859.66,661.43 1859.41,659.32 1853.92,653.89 1864.56,663.2 1864.46,670.98 1862.73,669.2 1864.11,665.22 1861.59,662.45 1859.19,662.95" fill="none" stroke="#1e1e1e" stroke-width="1.53" stroke-linecap="round" stroke-linejoin="round"/>
<polyline points="1872.96,656.67 1880.82,664.37 1878.64,663.59 1878.03,664.91 1879.71,665.96 1880.11,669.53 1877.12,668.26 1871.08,669.33 1862.56,675.57 1861.11,678.71 1856.33,680.75 1852.41,680.4 1852.84,679.59 1857.01,680.49 1860.58,677.62 1868.15,664.38 1865.22,653.76 1867.03,653.92 1872.59,659.04 1871.77,657.18 1873.24,658.36 1872.96,656.67" fill="none" stroke="#1e1e1e" stroke-width="1.53" stroke-linecap="round" stroke-linejoin="round"/>
<polyline points="1556.09,791.3 1557.29,787.56 1558.68,787.12 1559.77,789.49 1556.09,791.3" fill="none" stroke="#1e1e1e" stroke-width="1.53" stroke-linecap="round" stroke-linejoin="round"/>
<polyline points="1570.94,812.72 1573.49,809.59 1573.3,804.38 1575.03,802.87 1577.38,804.06 1580.42,807.89 1579.45,811.26 1574.61,810.72 1570.94,812.72" fill="none" stroke="#1e1e1e" stroke-width="1.53" stroke-linecap="round" stroke-linejoin="round"/>
<polyline points="1806.33,696.72 1803.26,714.9 1803.6,703.52 1804.8,699.18 1803.53,699.42 1805.28,697.26 1804.65,695.07 1806.02,696.15 1805.42,694.74 1806.33,696.72" fill="none" stroke="#1e1e1e" stroke-width="1.53" stroke-linecap="round" stroke-linejoin="round"/>
<polyline points="1543.58,873.77 1540.85,876.61 1542.31,872.56 1543.58,873.77" fill="none" stroke="#1e1e1e" stroke-width="1.53" stroke-linecap="round" stroke-linejoin="round"/>
<polyline points="1558.53,905.19 1560.41,907.49 1557.67,907.91 1558.53,905.19" fill="none" stroke="#1e1e1e" stroke-width="1.53" stroke-linecap="round" stroke-linejoin="round"/>
<polyline points="1508.34,873.09 1513.46,880.66 1510.73,877.26 1509.77,877.71 1508.34,873.09" fill="none" stroke="#1e1e1e" stroke-width="1.53" stroke-linecap="round" stroke-linejoin="round"/>
<polyline points="1655.43,682.26 1656.8,680.66 1660.24,682.17 1666.64,681.66 1661.55,684.03 1655.43,682.26" fill="none" stroke="#1e1e1e" stroke-width="1.53" stroke-linecap="round" stroke-linejoin="round"/>
<polyline points="1678.31,684 1681.32,681.85 1682.52,679.38 1680.44,684.06 1682.04,685.87 1678.31,684" fill="none" stroke="#1e1e1e" stroke-width="1.53" stroke-linecap="round" stroke-linejoin="round"/>
<polyline points="1950.37,690.58 1958.5,695.87 1957.69,699.15 1963.38,702.61" fill="none" stroke="#1e1e1e" stroke-width="1.53" stroke-linecap="round" stroke-linejoin="round"/>
<polyline points="1963.4,703.08 1962.48,703.85 1955.71,698.76 1954.23,696.09 1950.3,694.49 1949.55,691.99 1950.37,690.58" fill="none" stroke="#1e1e1e" stroke-width="1.53" stroke-linecap="round" stroke-linejoin="round"/>
<polyline points="1953.69,696.97 1959.18,702.17 1958.66,703.51 1953.15,698.19 1953.69,696.97" fill="none" stroke="#1e1e1e" stroke-width="1.53" stroke-linecap="round" stroke-linejoin="round"/>
<polyline points="1512.4,831.53 1519.05,830.4 1524.53,827.62 1525.17,825.95 1527.73,827.33 1526.96,829 1523.26,828.8 1514.72,831.74 1512.4,831.53" fill="none" stroke="#1e1e1e" stroke-width="1.53" stroke-linecap="round" stroke-linejoin="round"/>
<polyline points="1434.93,1208.83 1435.68,1220.91 1429.77,1233.09 1426.11,1237.62 1416.76,1246.12 1413.17,1247.28 1409.15,1245.07 1415.81,1244.78 1420.43,1242.93 1421.12,1240.31 1424.51,1238.32 1426.35,1234.34 1431.07,1230.1 1435.19,1221.71 1430.9,1227.48 1423.2,1234.21 1412,1239.82 1406.31,1238.45 1407.93,1231.72 1423.03,1221.08 1432.39,1207.45 1427.79,1208.91 1427.79,1207.59 1424.81,1208.41 1425.73,1206.98 1433.15,1206.78 1434.93,1208.83" fill="none" stroke="#1e1e1e" stroke-width="1.53" stroke-linecap="round" stroke-linejoin="round"/>
<polyline points="1793.92,632.46 1795.91,630.36 1793.56,627.68 1795.08,626.7 1794.13,624.26 1790.1,619.73 1791,619.75 1783.86,607.68 1778.62,603.27 1781.92,602.82 1780.59,601.06 1782.89,602.66 1783.9,601.39 1782.22,600.7 1784.75,601.34 1783.89,599.96 1784.53,599.28 1785.04,601.33 1785.42,597.88 1786.17,599.95 1786.18,598.25 1787.25,598.11 1789.34,600.48 1791.46,600.17 1794.33,606.58 1792.79,612.22 1795.78,616.42 1794.38,617.81 1797.54,621.13 1798.89,620.65 1798.33,622.49 1800.49,624.37 1800.13,627.31 1796.91,631.15 1797.47,639.8 1795.95,631.44 1793.92,632.46" fill="none" stroke="#1e1e1e" stroke-width="1.53" stroke-linecap="round" stroke-linejoin="round"/>
<polyline points="1208.04,23.38 1214.38,30.12 1222.16,35.21 1231.5,45.99 1254.06,64.12 1271.49,84.97 1295.71,119.73 1343.38,179.58 1361.62,204.87 1379.93,233.88 1386.49,242.12 1403.62,276.13 1407.64,290.45 1413.3,326.72 1417.72,338.37 1420.31,352.98 1426.36,370.83 1436.91,391.84 1461.81,416.68 1468.8,428.88 1481.25,437.45 1495.08,455.4 1506.87,460.22 1522.54,463.1 1531.03,469.36 1541.23,482.93 1541.86,484.29 1539.65,490.13 1534.56,495.12 1536.29,492.21 1535.46,490.42 1540.57,484.44 1537.69,482.98 1538.04,480.26 1536.89,480.86 1532.91,476.81 1535.6,488.26 1530.03,495.11 1529.09,504.95 1529.43,515.22 1531.86,524.34 1537.66,538.35 1541.3,543.89 1551.72,549.26 1558.99,550.92 1560.39,550.04 1560.92,551.25 1564.7,552.03 1565.18,551.22 1565.18,553.19 1565.57,551.35 1565.75,552.52 1569.2,552.92 1580.12,551.02 1582.75,556.16 1585.29,556.87 1584,557.13 1583.9,558.77 1585.53,562.6 1590.17,566.97 1602.87,568.23 1613.87,566.4 1623.29,570.87 1650.78,566.5 1656.26,563.17 1659.66,563.59 1665.71,560.75 1665.97,562.18 1665.79,560.71 1671.57,559.36 1672.01,557.68 1672.46,559.17 1679.71,557.92 1682.19,561.36 1685.23,561.59 1699.69,558.86 1703.81,556.53 1705.14,558.08 1704,561.39 1705.8,566.68 1709.83,570.37 1711.89,576.52 1719.83,585.13 1730.64,586.93 1732.88,588.83 1741.08,591.49 1744.35,591.17 1748.7,592.96 1749.34,591.63 1748.92,593.07 1751.24,593.57 1749.46,594.71 1754.72,593.59 1759.11,600.26 1762.18,609.15 1765.41,611.02 1767.4,615.59 1771.21,616.1 1770.09,613.81 1771.99,617.05 1775.35,617.04 1771.99,618.71 1775.39,624.55 1784.02,627.84 1790.88,634.15 1793.51,632.75 1791.03,635.33 1797.87,649.28 1800.42,652.05 1801.43,669.68 1800.19,670.68 1800.74,672.15 1799.54,672.27 1798.9,677.85 1802.48,688.59 1801.52,688.67 1801.02,694.12 1803.48,697.46 1803.24,699.55 1801.79,699.11 1802.16,700.48 1803.13,699.77 1802.02,700.64 1803,700.82 1803.72,705.37 1803.09,707.4 1800.7,700.94 1797.39,682.91 1794.29,677.29 1785.5,670.04 1785.91,672.42 1782.68,667.83 1780.12,667.83 1761.12,658.86 1751.81,656.2 1751.23,657.24 1750.93,656.19 1751.27,657.63 1750.86,656.18 1748.59,655.59 1741.27,655.54 1740.16,654.19 1726.18,650.69 1718.8,651.38 1713.4,653.38 1711.34,660.1 1710.44,660.32 1711.25,659.11 1709.88,657.15 1706.63,659.22 1703.9,656.22 1698.73,656.25 1691.1,660.02 1689.78,662.81 1688.04,662.79 1688.37,664.34 1687.55,663.41 1685.9,664.88 1687.76,673.67 1693.25,674.54 1693.15,677.48 1691.87,675.31 1689.74,676.52 1681.57,674.4 1687.5,673.78 1685.17,664.79 1683.03,665.59 1682.74,664.7 1682.39,665.96 1682.1,664.38 1681,664.62 1679.78,667.17 1681.06,663.64 1680.43,665.01 1680.46,663.46 1677.4,662.98 1674.19,663.59 1672.73,665.75 1669.69,659.17 1668.68,658.43 1667.36,659.59 1668.73,658.23 1667.41,657.68 1668.11,656.94 1667.03,656.07 1666.43,657.75 1666.8,655.75 1663.32,653.82 1663.66,655.41 1662.67,654.6 1663.31,653.57 1660.69,652 1654.14,650.24 1653.53,651.18 1652.14,649.7 1645.03,649.65 1641.67,651.74 1639.9,650.59 1634.12,654.61 1633.62,658.35 1634.79,660.87 1635.93,661.2 1635.6,660.53 1637.49,659.07 1636.53,659.95 1637.42,661.81 1641.67,661.65 1634.32,664.64 1636.67,665.46 1634.62,675.54 1632.3,676.92 1629.66,675.09 1631.64,678.63 1633.63,677.61 1632.54,679.61 1626.78,680.69 1623.74,679.02 1618.17,679.75 1611.76,682.27 1611,683.76 1610.41,682.73 1609.61,683.44 1611.11,684.38 1607.65,684.65 1603.54,688.54 1604.74,689.52 1603.47,688.6 1598.65,692.43 1595.33,690.01 1589.34,691.21 1584.61,694 1584.76,700.39 1583.5,697.74 1581.68,698.88 1582.28,699.84 1581.52,698.96 1576.8,701.98 1581.45,705.57 1576.15,704.77 1574.03,703.14 1573.1,705.12 1577.95,706.45 1575.09,707.4 1577.07,710.46 1574.81,708.61 1573.86,709.03 1574.44,710.84 1573.18,708.44 1573.79,710.34 1571.99,709.29 1574.2,713.65 1569.84,709.65 1567.97,711.38 1569.71,713.03 1566.12,711.07 1557.68,711.99 1551.59,716.93 1551.71,718.29 1550.39,718.48 1552.43,718.61 1551.49,719.43 1549.82,718.08 1546.45,720.34 1545.54,719.47 1541.21,720.84 1532.98,725.99 1529.78,729.93 1523.14,732.78 1520.79,736.81 1521.77,739 1521.23,748.05 1523.21,753.86 1529.4,762.83 1527.23,759.63 1522.59,761.12 1524.51,764.81 1521.94,760.95 1517.82,761.09 1512.48,765.92 1513.55,767.11 1510.78,766.75 1506.41,770.72 1503.99,774.96 1505.34,781.52 1510.94,792.51 1519.28,801.79 1524.27,805.36 1525.47,808 1523.25,812.13 1515.92,818.8 1514.65,818.85 1514.56,816.42 1513.46,816.46 1511.66,820.35 1506.83,823.5 1503.33,831.58 1507.76,851.53 1512.7,863.51 1510.1,866.81 1507.2,866.77 1504.05,868.84 1502.9,874.35 1502.99,870 1502.14,871.54 1501.29,878.9 1495.93,892.54 1495.79,897.52 1498.47,910.14 1508.26,931.09 1495.87,935.42 1489.63,939.26 1481.51,949.66 1476.86,958.19 1471.31,980.77 1467.09,992.38 1467.21,995.4 1465.83,996.16 1463.19,1005.59 1467.32,1021.53 1474.38,1033.81 1471.99,1033.15 1467.71,1025.3 1462.77,1007.95 1462.41,1015.51 1464.38,1023.19 1471.11,1033.67 1476.64,1036.11 1484.92,1045.91 1503.42,1063.78 1500.48,1072.22 1500.49,1078.11 1502.87,1084.71 1506.93,1087.62 1508.04,1090.72 1507.94,1091.9 1507.14,1089.33 1506.85,1090.91 1514.24,1104.09 1514.81,1108.29 1513.01,1114.07 1507.48,1120.83 1502.21,1123.92 1500.9,1123.92 1502.9,1122.59 1499.3,1123.53 1506.96,1117.88 1512.95,1103.07 1506.72,1099.4 1500.65,1099.78 1498.37,1096.65 1493.98,1094.83 1487.59,1094.79 1483.62,1092.32 1477,1091 1477.46,1085.37 1480.26,1078.08 1475.9,1075.69 1464.09,1073.97 1457.74,1077.34 1455.13,1082.77 1452.6,1103.76 1449.28,1159.82 1447.1,1166.98 1442.21,1172 1441.49,1170.13 1444.66,1162.95 1444.37,1154.44 1442.42,1146.93 1437.36,1140.18 1435.72,1140.98 1437.14,1146.8 1434.85,1148.82 1436.71,1153.27 1433.38,1152.78 1429.62,1158.19 1430,1163.42 1427.18,1160.93 1427.1,1149.52 1425.81,1150.88 1425.47,1165.19 1429.56,1164.74 1430.88,1166.68 1425.44,1167.85 1424.22,1165.96 1419.7,1168.16 1417.16,1166.84 1417.27,1165.54 1420.46,1165.36 1422.83,1162.62 1421.42,1159.32 1414.77,1165.31 1411.37,1166.41 1410.23,1165.08 1410.95,1163.14 1409.35,1159.44 1415.65,1147.52 1412.06,1146.37 1410.02,1156.26 1407.7,1156.2 1406.73,1158.82 1404.03,1157.73 1402.79,1154.18 1403.85,1148.54 1406.24,1149.15 1407.37,1148 1405.89,1142.75 1412.8,1135.72 1417.7,1133.23 1424.39,1125.34 1410.66,1123.35 1397.13,1130.12 1392.69,1131.09 1389.91,1128.84 1389.8,1121.11 1380.26,1106.18 1376.75,1105.56 1367.73,1107.25 1366.33,1110.15 1371.29,1118.07 1370.16,1121.41 1367.05,1121.49 1366.77,1124.48 1364.74,1126.26 1355.37,1128.52 1350.3,1131.59 1347.6,1136.06 1343.09,1134.98 1336.11,1138.3 1334.22,1142.94 1335.2,1145.12 1338.68,1146.88 1344.24,1145.67 1346.64,1147.62 1350.6,1146.08 1349.77,1151.26 1353.51,1148.55 1353.7,1144.93 1356.07,1142.65 1369.66,1134.88 1380.8,1133.82 1384.41,1135.46 1383.87,1140.41 1373.85,1147.02 1362.83,1152.07 1359.02,1156.73 1355.75,1168.43 1353.17,1188.84 1348.95,1198.84 1352.65,1199.46 1357.33,1203.13 1359.67,1216.99 1359.64,1229.47 1357.05,1233.96 1358.25,1233.84 1358.25,1235.09 1356.6,1236.47 1354.52,1248.98 1349.34,1262.62 1337.64,1278.43 1329.97,1284.08 1325.18,1278.45 1327.32,1276.22 1319.53,1272.44 1319.4,1271.56 1329.08,1275.67 1333.15,1272.85 1335.61,1268.88 1342.1,1264.48 1339.37,1261.63 1332.63,1261.2 1331.76,1259.97 1336.52,1260.33 1342.32,1257.98 1345.85,1254.22 1351.16,1244.41 1351.95,1241.12 1349.28,1236.73 1350.39,1233.35 1348.3,1228.62 1349.07,1224.04 1342.65,1227.92 1341.23,1226.35 1339.22,1227.58 1324.95,1246.54 1321.72,1255.81 1319.64,1256.16 1318.93,1259.21 1320.89,1264.77 1322.75,1256.49 1322.9,1260.83 1321.24,1265.13 1318.1,1267.9 1317.78,1270.49 1319.51,1272.13 1318.2,1271.61 1318.43,1273.65 1326.82,1276.08 1325.44,1277.18 1325.1,1278.66 1329.8,1284.22 1327.13,1290.97 1324.75,1293.44 1324.94,1300.81 1331.58,1318.02 1337.64,1325.79 1336.66,1333.16 1339.87,1373.85 1339.64,1405.19 1341.83,1420.15 1340.77,1423.49 1341.02,1435.02 1343.34,1450.11 1342.98,1460.76 1345.32,1467.28 1342.07,1466.64 1342.15,1467.91 1344.2,1467.4 1341.05,1468.45 1340.4,1472.98" fill="none" stroke="#1e1e1e" stroke-width="1.53" stroke-linecap="round" stroke-linejoin="round"/>
<polyline points="1661.21,561.42 1660.88,562.81 1659.08,563.33 1657.38,561.47 1659.26,559.52 1658.8,562.53 1661.21,561.42" fill="none" stroke="#1e1e1e" stroke-width="1.53" stroke-linecap="round" stroke-linejoin="round"/>
</svg>
