<?xml version="1.0" encoding="UTF-8" standalone="no"?>
<svg xmlns="http://www.w3.org/2000/svg" width="2000" height="1483" viewBox="0 0 2000 1483">
<rect width="2000" height="1483" fill="#ffffff"/>
<path d="M126.98,593.17L120.6,593.1L112.88,591.76L106.16,588.14L102.72,582.8L104.89,575.7L110.08,572.34L115.96,570.46L119.56,567.42L117.38,560.66L109.01,553.71L108.06,548.94L108.51,543.49L109.64,540L112.26,538.62L116.94,539.62L140.6,549.96L144.66,550.09L147.37,555.03L184.86,579.61L192.52,589.44L201.41,598.2L207.76,602.64L207.36,610.04L209.44,611.68L218,613.38L222.91,616.19L224.3,616.11L226.79,613.14L227.2,611.45L225.75,610.56L224.43,607.97L224.94,603L226.99,599.29L241.9,608.2L252.14,619.42L267.62,642.92L279.42,651.73L292.17,656.68L296.34,660.3L316.27,689.84L319.84,699.16L321.14,710.74L319.42,720.42L315.15,727.97L309.18,732.69L302.18,734.21L288.04,731.79L270.59,741.92L258.07,734.42L250.49,733.12L243.88,736.83L237.72,741.65L230.14,743.63L214.36,743.19L200.44,739.39L190.65,730.73L184.45,717.42L180.97,699.94L184.27,666.13L184.39,646.32L178.62,634.61L175.84,634.77L168.96,638.94L165.51,639.81L157.7,634.83L153.93,633.87L152.88,631.77L153.29,618.29L152.34,613.28L149.69,611.99L146.17,612.12L142.78,611.17L139.9,608.65L126.98,593.17Z" fill-rule="evenodd" fill="#4682b4" fill-opacity="0.471"/>
<polyline points="126.98,593.17 120.6,593.1 112.88,591.76 106.16,588.14 102.72,582.8 104.89,575.7 110.08,572.34 115.96,570.46 119.56,567.42 117.38,560.66 109.01,553.71 108.06,548.94 108.51,543.49 109.64,540 112.26,538.62 116.94,539.62 140.6,549.96 144.66,550.09 147.37,555.03 184.86,579.61 192.52,589.44 201.41,598.2 207.76,602.64 207.36,610.04 209.44,611.68 218,613.38 222.91,616.19 224.3,616.11 226.79,613.14 227.2,611.45 225.75,610.56 224.43,607.97 224.94,603 226.99,599.29 241.9,608.2 252.14,619.42 267.62,642.92 279.42,651.73 292.17,656.68 296.34,660.3 316.27,689.84 319.84,699.16 321.14,710.74 319.42,720.42 315.15,727.97 309.18,732.69 302.18,734.21 288.04,731.79 270.59,741.92 258.07,734.42 250.49,733.12 243.88,736.83 237.72,741.65 230.14,743.63 214.36,743.19 200.44,739.39 190.65,730.73 184.45,717.42 180.97,699.94 184.27,666.13 184.39,646.32 178.62,634.61 175.84,634.77 168.96,638.94 165.51,639.81 157.7,634.83 153.93,633.87 152.88,631.77 153.29,618.29 152.34,613.28 149.69,611.99 146.17,612.12 142.78,611.17 139.9,608.65 126.98,593.17" fill="none" stroke="#1e1e1e" stroke-width="1.53" stroke-linecap="round" stroke-linejoin="round"/>
<path d="M725.27,467.23L711.56,459.93L624.58,434.95L573.93,438.23L560,442.26L552.1,442.5L537.31,436.55L547.58,426.39L583.93,420.76L595.71,406.23L588.83,399.81L578.25,383.61L570.37,377.9L570.42,374.87L579.12,375L595.55,379.25L604.54,378.41L619.31,371.21L627.12,369.49L634.4,372.87L637.85,389.2L646.12,402.18L657.37,411.8L712.35,436.97L725.47,447.31L728.64,451.71L733.83,456.14L745.2,458.8L752.79,463.48L782.95,473.33L788.26,476.65L791.9,482.15L793.29,491.88L790.17,491.25L770.1,481.49L761.73,481.78L750.17,488.61L743.17,490.25L741.06,488.65L738.71,484.86L734.66,474.98L725.27,467.23Z" fill-rule="evenodd" fill="#4682b4" fill-opacity="0.471"/>
<polyline points="725.27,467.23 711.56,459.93 624.58,434.95 573.93,438.23 560,442.26 552.1,442.5 537.31,436.55 547.58,426.39 583.93,420.76 595.71,406.23 588.83,399.81 578.25,383.61 570.37,377.9 570.42,374.87 579.12,375 595.55,379.25 604.54,378.41 619.31,371.21 627.12,369.49 634.4,372.87 637.85,389.2 646.12,402.18 657.37,411.8 712.35,436.97 725.47,447.31 728.64,451.71 733.83,456.14 745.2,458.8 752.79,463.48 782.95,473.33 788.26,476.65 791.9,482.15 793.29,491.88 790.17,491.25 770.1,481.49 761.73,481.78 750.17,488.61 743.17,490.25 741.06,488.65 738.71,484.86 734.66,474.98 725.27,467.23" fill="none" stroke="#1e1e1e" stroke-width="1.53" stroke-linecap="round" stroke-linejoin="round"/>
<text x="167.64" y="664.54" font-family="sans-serif" font-size="14" stroke="#ffffff" stroke-opacity="0.784" stroke-width="2.33" stroke-linejoin="round" paint-order="stroke" fill="#141414">Lake Sevan</text>
<text x="566.34" y="435.27" font-family="sans-serif" font-size="14" stroke="#ffffff" stroke-opacity="0.784" stroke-width="2.33" stroke-linejoin="round" paint-order="stroke" fill="#141414">Mingevir Reservoir</text>
</svg>
