<?xml version="1.0" encoding="UTF-8" standalone="no"?>
<svg xmlns="http://www.w3.org/2000/svg" width="2000" height="1483" viewBox="0 0 2000 1483">
<rect width="2000" height="1483" fill="#ffffff"/>
<path d="M1956.19,695.07L1957.82,696.67L1957.59,699.15L1963.38,702.67L1962.17,703.95L1955.68,698.81L1953.7,695.98L1951.02,691.53L1956.19,695.07Z" fill-rule="evenodd" fill="#4682b4" fill-opacity="0.471"/>
<polyline points="1956.19,695.07 1957.82,696.67 1957.59,699.15 1963.38,702.67 1962.17,703.95 1955.68,698.81 1953.7,695.98 1951.02,691.53 1956.19,695.07" fill="none" stroke="#1e1e1e" stroke-width="1.53" stroke-linecap="round" stroke-linejoin="round"/>
<path d="M1953.73,696.81L1959.26,701.99L1958.36,703.26L1956.7,700.84L1953.14,698.07L1953.73,696.81Z" fill-rule="evenodd" fill="#4682b4" fill-opacity="0.471"/>
<polyline points="1953.73,696.81 1959.26,701.99 1958.36,703.26 1956.7,700.84 1953.14,698.07 1953.73,696.81" fill="none" stroke="#1e1e1e" stroke-width="1.53" stroke-linecap="round" stroke-linejoin="round"/>
<path d="M1875.97,659.71L1879.54,662.9L1879.56,663.73L1878.3,663.77L1877.71,665.03L1879.32,666.21L1878.77,668.71L1874.04,668.44L1868.75,670.26L1864.76,673.69L1862.67,677.47L1860.82,678.76L1860.47,677.54L1863.2,674.15L1865.81,667.05L1869.25,666.12L1871.08,664.41L1868.29,655.41L1869.56,655.78L1872.83,659.81L1873.73,658.54L1873.38,657.32L1875.97,659.71Z" fill-rule="evenodd" fill="#4682b4" fill-opacity="0.471"/>
<polyline points="1875.97,659.71 1879.54,662.9 1879.56,663.73 1878.3,663.77 1877.71,665.03 1879.32,666.21 1878.77,668.71 1874.04,668.44 1868.75,670.26 1864.76,673.69 1862.67,677.47 1860.82,678.76 1860.47,677.54 1863.2,674.15 1865.81,667.05 1869.25,666.12 1871.08,664.41 1868.29,655.41 1869.56,655.78 1872.83,659.81 1873.73,658.54 1873.38,657.32 1875.97,659.71" fill="none" stroke="#1e1e1e" stroke-width="1.53" stroke-linecap="round" stroke-linejoin="round"/>
<path d="M1859.08,663.13L1858.11,662.33L1858.4,661.5L1859.97,661.45L1856.65,655.77L1865.11,664.59L1865.47,666.23L1864.53,666.26L1863.2,663.83L1861.58,662.64L1859.69,662.28L1859.08,663.13Z" fill-rule="evenodd" fill="#4682b4" fill-opacity="0.471"/>
<polyline points="1859.08,663.13 1858.11,662.33 1858.4,661.5 1859.97,661.45 1856.65,655.77 1865.11,664.59 1865.47,666.23 1864.53,666.26 1863.2,663.83 1861.58,662.64 1859.69,662.28 1859.08,663.13" fill="none" stroke="#1e1e1e" stroke-width="1.53" stroke-linecap="round" stroke-linejoin="round"/>
<path d="M1802.91,712.69L1804.78,702.41L1804.35,708.11L1802.91,712.69Z" fill-rule="evenodd" fill="#4682b4" fill-opacity="0.471"/>
<polyline points="1802.91,712.69 1804.78,702.41 1804.35,708.11 1802.91,712.69" fill="none" stroke="#1e1e1e" stroke-width="1.53" stroke-linecap="round" stroke-linejoin="round"/>
<path d="M1804.79,702.28L1804.72,699.01L1805.62,697.34L1804.79,702.28Z" fill-rule="evenodd" fill="#4682b4" fill-opacity="0.471"/>
<polyline points="1804.79,702.28 1804.72,699.01 1805.62,697.34 1804.79,702.28" fill="none" stroke="#1e1e1e" stroke-width="1.53" stroke-linecap="round" stroke-linejoin="round"/>
<path d="M1343.1,1452.72L1340.52,1453.58L1338.56,1451.95L1336.95,1452.38L1333.03,1449.54L1331.74,1449.96L1330.11,1448.74L1327.53,1448.77L1326.25,1450.03L1323.34,1450.47L1322.36,1449.24L1321.08,1450.5L1313.62,1448.93L1312.34,1449.77L1312.03,1451.01L1311.06,1451.02L1310.11,1453.1L1308.18,1453.94L1305.91,1453.55L1303.69,1457.71L1301.44,1458.97L1301.13,1460.21L1299.85,1461.05L1299.55,1463.53L1298.26,1463.96L1296.66,1466.04L1295.04,1465.64L1289.88,1467.35L1286.65,1467.38L1284.07,1468.64L1281.51,1471.14L1273.75,1472.46L1272.15,1473.71L1271.18,1473.72L1270.19,1471.67L1268.56,1470.86L1264.03,1470.9L1261.44,1470.1L1252.65,1463.98L1252.62,1461.09L1251.32,1460.28L1249.34,1455.75L1248.95,1447.91L1247.66,1448.33L1246.36,1447.52L1245.03,1443.4L1243.41,1442.59L1240.78,1438.07L1237.87,1437.68L1237.86,1436.44L1236.56,1435.63L1236.55,1434.39L1235.57,1433.57L1235.89,1432.33L1233.29,1431.53L1231.66,1428.65L1229.71,1428.25L1228.07,1424.14L1226.44,1423.32L1225.16,1423.75L1223.53,1422.52L1223.84,1420.87L1221.88,1418.4L1221.18,1410.57L1217.61,1408.12L1214.05,1407.73L1211.8,1408.57L1209.2,1406.53L1208.86,1404.47L1207.9,1404.89L1205.91,1397.88L1204.28,1395.83L1205.24,1394.58L1204.27,1394.18L1204.26,1392.94L1205.85,1389.62L1204.86,1387.15L1205.82,1385.5L1196.77,1383.08L1194.84,1383.51L1189.38,1388.09L1183.58,1388.12L1182.28,1386.89L1178.42,1388.98L1178.43,1389.81L1176.17,1389.82L1174.24,1391.07L1172.62,1389.84L1171.01,1391.09L1167.13,1388.64L1165.19,1389.06L1162.92,1387.42L1161.32,1388.26L1157.75,1385.8L1156.45,1383.74L1156.76,1380.44L1155.79,1380.03L1155.46,1378.38L1153.51,1376.33L1152.53,1373.44L1152.83,1369.73L1149.6,1368.92L1148.95,1367.68L1147.34,1367.69L1146.36,1366.46L1140.88,1365.25L1139.26,1363.6L1139.21,1354.93L1137.59,1351.23L1138.86,1349.16L1140.79,1348.32L1141.1,1344.19L1137.2,1338.84L1137.84,1337.19L1135.58,1335.14L1132.68,1334.74L1129.77,1333.51L1128.8,1332.28L1127.52,1333.11L1123.97,1331.47L1122.03,1329.42L1122.02,1327.77L1118.79,1326.54L1119.43,1324.89L1113.31,1322.44L1110.09,1323.27L1105.26,1322.05L1104.28,1320.41L1101.39,1320.42L1100.42,1319.18L1099.46,1320.01L1096.23,1318.78L1092.05,1319.21L1090.11,1316.33L1092.02,1311.37L1087.52,1311.38L1085.9,1309.32L1082.69,1309.33L1083.32,1306.44L1079.46,1305.62L1077.2,1303.15L1073.34,1301.93L1072.05,1300.28L1070.76,1300.28L1069.14,1296.98L1068.82,1294.09L1064.31,1291.21L1060.71,1262.74L1063.6,1260.67L1064.88,1261.49L1066.5,1266.03L1073.56,1263.54L1074.84,1261.88L1079.66,1261.04L1083.18,1258.56L1082.53,1254.43L1085.72,1246.16L1091.82,1247.8L1093.1,1246.55L1098.56,1246.54L1100.8,1245.7L1104.34,1246.51L1107.86,1243.2L1109.14,1243.61L1112.35,1242.36L1118.77,1242.33L1123.59,1243.55L1125.19,1242.3L1127.43,1242.71L1130.96,1240.63L1133.2,1240.2L1133.52,1238.96L1134.48,1238.55L1144.42,1237.67L1146.33,1235.19L1153.05,1230.61L1156.23,1225.64L1159.1,1223.15L1159.1,1221.91L1161.97,1219.41L1164.19,1215.27L1166.08,1209.9L1164.79,1207.84L1163.47,1202.07L1161.87,1202.08L1160.88,1196.31L1158.29,1191.37L1159.25,1191.36L1158.91,1188.89L1157.94,1187.65L1156.99,1188.07L1156.98,1186.83L1155.05,1186.43L1155.36,1184.37L1154.72,1183.54L1155.97,1179L1154.37,1179.01L1153.08,1176.95L1152.44,1177.36L1147.94,1174.5L1146.66,1174.51L1146.98,1173.27L1144.73,1172.45L1140.89,1173.3L1139.61,1172.89L1139.61,1172.06L1137.69,1172.07L1136.4,1170.84L1135.44,1171.26L1131.27,1168.8L1130.61,1165.92L1129.65,1165.51L1129.32,1164.27L1129.96,1163.44L1128.04,1162.63L1127.07,1160.57L1126.42,1158.09L1127.05,1156.85L1125.77,1156.86L1125.44,1155.21L1124.48,1155.21L1122.23,1151.92L1119.35,1151.93L1119.03,1151.11L1118.07,1151.52L1118.38,1150.7L1111.32,1144.95L1109.41,1146.19L1107.8,1143.72L1108.76,1142.89L1107.47,1142.07L1105.24,1142.49L1105.23,1141.26L1102.34,1138.38L1102.34,1137.14L1103.61,1136.31L1100.73,1134.26L1101.69,1133.84L1102.64,1131.77L1099.75,1129.31L1100.7,1127.65L1098.78,1124.77L1099.73,1124.35L1098.45,1122.71L1100.99,1116.92L1099.39,1116.1L1100.02,1115.27L1098.74,1114.86L1098.73,1112.39L1099.37,1111.15L1100.01,1111.97L1102.24,1110.72L1102.24,1109.9L1103.84,1110.31L1103.83,1109.07L1102.88,1109.07L1102.55,1107.83L1103.19,1107.01L1104.47,1107.83L1105.74,1107.41L1105.42,1105.76L1106.38,1105.34L1105.73,1104.11L1106.68,1102.45L1108.92,1102.03L1109.87,1099.96L1110.83,1100.37L1111.14,1099.13L1113.37,1097.89L1114.97,1097.88L1114.65,1097.06L1116.56,1094.98L1117.52,1095.39L1117.52,1096.22L1119.11,1095.39L1119.74,1092.5L1122.29,1091.25L1124.51,1088.35L1128.34,1088.33L1128.98,1089.15L1131.2,1086.25L1132.8,1085.83L1135.68,1087.88L1139.82,1085.8L1141.1,1085.79L1141.74,1086.62L1142.38,1085.79L1141.73,1084.96L1142.05,1083.72L1143.01,1084.13L1145.55,1083.29L1145.86,1081.23L1146.83,1082.05L1147.14,1081.22L1151.92,1079.55L1153.82,1077.47L1154.46,1077.88L1156.05,1075.4L1161.14,1074.13L1166.87,1070.79L1172.29,1070.76L1172.29,1069.94L1174.51,1067.86L1174.5,1066.62L1168.69,1055.1L1162.9,1046.88L1067.01,938.31L1052.39,931.74L1051.12,931.74L1050.17,934.63L1048.58,935.87L1047.95,938.76L1045.41,938.77L1044.46,941.25L1040.97,943.73L1039.7,943.73L1039.38,942.49L1038.11,942.49L1034.31,949.51L1033.04,947.45L1030.5,951.58L1025.42,949.94L1022.88,951.18L1022.24,949.53L1020.01,949.11L1020.01,947.88L1018.74,947.47L1014.61,949.94L1011.12,948.71L1009.85,950.36L1008.9,949.53L1005.4,951.19L1005.08,952.42L1001.27,951.19L1000,952.01L999.36,953.66L998.09,953.66L996.51,952.01L995.55,952.42L995.23,953.25L996.19,954.9L995.23,955.72L993.64,955.31L991.42,956.96L991.42,959.44L988.56,959.44L987.92,961.09L988.88,962.74L987.6,963.98L987.6,966.45L985.38,966.86L983.79,965.63L982.83,967.28L981.56,967.69L981.24,969.75L978.38,974.29L973.61,977.59L970.11,978L966.6,981.29L965.33,980.05L963.42,980.88L962.79,982.94L958.65,981.7L955.15,985.82L953.87,986.23L952.6,985.4L949.42,988.28L947.82,991.58L945.27,992.4L943.68,991.99L942.41,994.05L937.31,996.1L933.8,1001.87L932.84,1001.87L932.53,1000.63L931.26,1000.21L927.43,1003.51L921.05,1007.2L919.13,1011.33L911.48,1015.02L907.33,1018.31L904.14,1017.88L902.23,1019.11L900.32,1018.69L897.12,1022.4L893.62,1022.38L887.87,1026.08L879.58,1026.46L878.62,1027.69L878.94,1029.34L876.07,1029.33L872.55,1032.2L867.77,1032.59L864.91,1030.1L864.27,1030.51L862.03,1032.57L861.71,1034.22L858.83,1036.27L858.5,1037.5L859.45,1039.98L854.62,1049.45L853.01,1051.51L851.1,1051.5L849.81,1053.55L848.22,1053.13L846.62,1054.36L846.93,1056.43L845.33,1057.24L845,1060.13L842.1,1065.48L840.82,1065.89L838.55,1071.65L832.8,1072.44L830.56,1074.08L825.76,1075.7L823.51,1079.4L821.59,1079.39L820.63,1080.62L819.35,1079.79L818.39,1080.2L816.45,1084.72L810.05,1086.33L809.4,1089.22L806.82,1092.09L804.27,1092.07L803.64,1091.24L802.67,1092.06L800.44,1091.63L798.19,1093.27L795,1093.66L792.74,1096.12L791.14,1096.52L789.88,1095.27L788.6,1095.26L786.65,1098.96L785.37,1099.37L784.72,1101.42L782.8,1101.82L782.15,1103.06L780.24,1103.04L777.95,1108.8L774.77,1107.54L771.87,1110.82L768.68,1109.55L768.01,1113.68L764.49,1113.65L763.53,1114.46L761.91,1117.34L761.88,1120.64L760.91,1122.28L759.94,1122.69L758.03,1121.85L756.42,1123.48L756.71,1126.79L755.05,1134.2L756.93,1138.35L755.32,1140.4L754.65,1143.28L748.85,1147.77L747.88,1149.41L744.67,1151.04L743.36,1154.33L736.96,1153.86L735.03,1155.08L734.69,1157.55L735.31,1158.79L732.41,1161.24L726.95,1163.25L725.33,1164.89L723.09,1164.87L721.8,1165.68L720.54,1164.43L720.56,1162.37L717.7,1160.27L717.08,1158.2L713.59,1154.87L694.28,1164.57L687.56,1164.91L685.62,1166.13L686.23,1169.03L685.56,1171.91L683.95,1172.72L683.59,1176.01L681.68,1175.17L680.38,1176.8L678.13,1177.19L677.8,1178.01L678.43,1178.85L679.4,1178.44L679.38,1179.68L677.14,1179.66L676.49,1180.89L676.79,1182.95L671.96,1184.55L671.62,1186.2L670.02,1186.59L668.69,1190.7L667.08,1191.1L665.13,1193.55L662.56,1193.52L662.51,1198.06L659.3,1198.85L658.94,1201.74L660.48,1207.12L657.54,1211.63L655.95,1210.37L651.72,1215.27L645.94,1216.02L644.97,1216.84L643.05,1216.4L642.75,1214.75L639.22,1214.7L635.31,1219.19L635.3,1220.02L636.89,1221.28L636.85,1224.58L634.26,1226.2L632.3,1229.06L632.28,1230.3L628.39,1233.96L628.37,1235.2L626.41,1237.65L625.73,1240.95L621.22,1241.71L620.55,1244.18L621.18,1245.02L620.19,1246.65L616.97,1247.85L616.61,1250.73L614.65,1252.77L610.13,1254.77L610.44,1255.6L609.14,1256.83L608.12,1260.53L607.16,1260.51L599.68,1266.6L596.78,1267.39L596.44,1268.62L592.25,1269.8L591.58,1271.44L589.64,1272.24L588.32,1274.7L586.37,1276.32L586.5,1267.24L585.88,1265.99L587.52,1263.54L587.56,1260.65L585.42,1253.19L582.24,1251.08L579.72,1247.74L578.19,1242.76L578.57,1238.23L578.91,1236.99L580.85,1236.61L583.78,1233.35L581.93,1228.37L582.32,1223.42L588.1,1223.09L591.03,1220.24L588.87,1214.43L588.04,1205.34L588.71,1203.28L591.93,1202.09L593.91,1198.41L592.66,1196.32L590.73,1196.3L589.78,1195.46L582.41,1195.76L581.8,1193.69L584.39,1191.66L586.31,1192.1L588.63,1186.77L586.77,1182.2L581.99,1180.48L581.37,1178.82L577.86,1177.94L578.62,1170.11L575.74,1170.07L574.83,1166.75L571.96,1165.88L571.66,1164.64L572.63,1163.83L576.16,1163.06L575.91,1158.93L571.75,1158.45L567.56,1160.45L563.43,1158.32L564.43,1155.45L561.87,1155.41L558,1157.42L557.75,1152.87L558.41,1151.64L557.16,1149.56L555.67,1142.52L558.57,1141.74L560.21,1138.87L565.33,1138.95L572.95,1142.78L575.15,1145.29L577.38,1146.15L579.04,1141.64L582.25,1141.27L585.11,1142.55L586.39,1142.16L587.32,1144.23L589.08,1155.82L591.35,1153.37L591.42,1148.83L594.34,1145.99L595.62,1146L598.84,1143.99L599.23,1139.45L600.19,1139.46L600.84,1138.24L602.75,1139.5L605.32,1138.71L604.38,1137.05L600.57,1135.34L600.26,1134.51L601.89,1132.06L605.73,1131.7L607.04,1130.07L608.94,1131.33L609.91,1130.52L615.03,1130.18L620.19,1126.53L613.18,1124.78L608.06,1125.13L603.01,1120.52L602.42,1117.21L600.84,1115.94L596.03,1116.7L592.87,1114.18L584.48,1097.96L585.13,1097.14L589.3,1095.97L589.97,1093.91L587.46,1090.99L586.54,1088.5L584.31,1087.64L582.74,1085.96L582.15,1082.65L579.33,1079.31L577.1,1078.86L576.41,1082.57L575.12,1083.37L570.97,1083.31L568.4,1084.1L566.84,1081.6L561.75,1080.69L561.81,1076.98L560.51,1078.2L559.89,1076.95L557.04,1075.67L556.74,1074.42L555.15,1073.99L553.91,1071.9L549.45,1071.01L551.39,1069.8L550.76,1068.96L548.53,1068.52L548.87,1067.28L547.33,1063.96L546.69,1063.95L547.03,1062.71L544.49,1062.26L544.83,1061.03L543.56,1060.59L545.82,1058.57L542.97,1057.28L542.05,1054.79L544,1052.76L542.55,1044.07L544.49,1042.45L546.08,1042.47L547.38,1040.84L546.42,1040.83L546.13,1039.58L547.09,1039.19L546.47,1037.94L544.25,1037.08L543.95,1036.25L544.65,1032.54L545.93,1032.15L550.69,1033.46L554.54,1031.87L558.97,1033.59L562.75,1036.54L565.63,1035.76L569.54,1030.04L573.1,1026.79L574.08,1024.75L573.16,1022.25L576.36,1021.89L578.57,1022.75L578.91,1021.52L580.82,1021.96L583.64,1024.89L583.94,1026.13L584.91,1025.32L586.49,1026.17L587.45,1025.77L589.01,1028.27L590.92,1027.88L591.9,1026.25L589.72,1023.33L589.43,1020.84L585.62,1019.96L583.75,1017.05L583.16,1014.15L581.89,1013.72L582.57,1010.84L579.11,1008.31L579.44,1007.08L582.01,1005.88L582.66,1004.65L589.7,1002.69L593.88,999.86L594.22,998.21L592.96,997.37L592.97,996.54L594.88,996.16L603.13,998.34L605.29,1002.91L606.87,1003.76L607.51,1003.35L607.21,1002.11L605.05,997.54L605.71,995.9L605.11,993L603.84,992.98L602.28,990.48L602.93,989.67L602.63,988.43L600.76,985.51L598.21,986.3L593.45,984.99L587.45,982.43L587.78,981.2L586.52,980.35L582.38,980.7L581.44,979.86L575.09,978.94L566.42,984.59L565.46,984.58L562.64,982.06L561.05,982.03L559.76,982.84L558.76,986.12L557.48,986.1L555.93,983.6L552.15,981.48L552.5,979.01L554.8,974.5L553.26,971.18L552.48,960.43L550.9,960L545.73,965.28L539.06,964.76L541.01,961.9L540.72,960.24L539.48,958.16L534.74,956.84L533.43,958.89L527.73,957.97L524.5,960.8L523.22,961.19L521.97,959.93L520.02,962.38L513.3,964.74L511.35,967.59L502.08,970.32L500.46,971.94L483.3,971.22L481.62,975.73L479.37,977.34L478.36,980.21L477.4,980.61L476.61,971.51L475.36,970.25L476.03,968.61L475.45,965.71L473.56,964.44L473.62,961.55L475.9,958.29L472.46,955.75L470.64,950.76L463.05,948.97L460.89,945.62L457.44,943.08L455.32,937.67L452.19,935.14L447.09,936.28L446.07,939.56L440.15,933.66L440.18,932.42L442.41,932.06L444.04,930.02L439.09,923.32L432.81,919.89L430.75,911.6L424.16,908.16L423.29,904.02L419.54,901.05L415.57,893.54L412.76,891.41L408.32,891.73L403.84,893.29L401.95,892.84L392.89,886.45L391.3,886.42L387.24,883.44L382.52,882.1L380.99,879.59L373.44,876.94L367.74,876.4L367.24,870.61L363.4,858.14L364.09,855.68L361.06,849.42L357.64,846.87L356.74,844.37L356.77,843.13L359.98,841.55L361.95,838.3L360.22,830.83L354.63,826.16L339.76,825.81L335.69,824.07L329.53,816.9L317.23,815.37L315.7,813.27L306.49,814.69L301.14,813.73L301.58,808.79L301.28,807.96L299.07,807.9L298.46,807.06L297.62,802.5L297.66,800.85L298.98,798.82L304.78,794.42L313.64,793.81L317.43,794.32L318.41,792.69L323.55,789.51L326.38,789.99L327.59,792.5L329.15,793.36L337.68,793.56L341.84,791.19L355.35,794.8L355.38,793.56L357.62,792.38L360.11,794.08L363.45,799.94L365.67,799.58L367.82,802.52L368.08,805L370.27,806.29L371.79,808.8L373.38,808.42L374.75,803.5L377.01,801.48L377.71,798.61L380.88,798.27L384.09,795.86L386.93,796.33L392.92,782.43L392.96,780.37L397.2,774.27L396.96,770.96L395.12,768.03L394.93,762.25L398.09,762.31L400.71,757.83L409.59,755.95L413.06,756.03L413.41,754.38L411.3,749.8L412.01,745.69L417.26,736.3L417.29,734.65L415.74,733.38L415.76,732.56L417.36,731.35L419.02,727.26L419.44,722.31L418.22,720.22L419.83,718.61L419.3,713.64L414.04,709.4L413.47,706.09L406.62,702.64L405.72,700.56L405.74,699.32L407.33,698.53L408.55,700.62L411.67,701.92L412.31,701.52L414.09,691.66L409.41,689.91L405.7,686.52L404.83,682.79L400.75,682.29L398.5,684.72L397.88,683.88L393.77,684.62L390.96,683.73L389.1,682.45L388.85,679.56L386.68,677.86L378.56,675.2L370.77,671.31L367.32,670.82L366.1,669.14L361.37,669.45L359.82,668.59L359.25,666.1L349.9,662.17L348.7,659.66L344.34,657.91L340.55,658.23L335.57,656.05L332.48,653.91L331.58,651.83L326.22,652.52L317.12,651.48L316.59,647.75L313.51,645.2L312.97,641.47L313.64,639.83L309.6,637.67L308.39,635.99L304.98,633.84L303.45,632.15L302.3,627.99L299.23,625.03L295.76,625.76L294.51,625.32L291.97,626.49L289.47,626.02L278.69,617.48L277.53,613.74L276.6,613.3L274.99,614.5L272.92,609.9L273.56,609.09L270.5,606.12L268.11,601.52L265.34,599.38L261.25,599.69L256.97,595.45L256.78,590.9L252.8,587.08L251.97,582.93L252.34,580.87L250.52,578.35L252.16,575.91L255.93,575.6L256.58,574.79L256.61,573.56L254.76,572.27L252.66,568.91L255.23,566.5L258.08,565.34L260.34,562.92L254.23,556.98L250.83,555.24L248.69,553.11L243.33,554.21L239.69,549.98L237.92,545.8L241.18,541.35L235.34,537.06L234.46,534.97L230.5,530.74L232.53,525.42L234.77,523.83L234.54,520.53L235.54,518.49L234.05,515.56L235.93,515.61L235.47,509.82L236.14,508.18L237.61,511.53L240.05,513.66L243.86,511.7L244.58,508.41L241.52,505.85L243.46,503.43L244.48,500.57L243.89,499.31L248.58,499.44L250.24,495.77L252.48,493.76L258.74,493.93L260.64,492.74L262.21,492.79L264.78,489.96L265.98,492.06L268.8,491.72L274.54,487.74L276.19,484.48L281.54,482.97L289.05,482.75L290.05,480.3L295.5,475.07L297.77,471.83L297.8,470.59L300.98,468.19L301.99,465.33L303.9,464.14L304.9,461.69L304.64,459.61L306.59,456.36L306.3,455.53L309.2,451.88L308.06,447.73L306.26,444.79L307.88,442.36L307.65,439.05L301.19,435.17L296.1,439.17L293.89,439.94L293.29,439.1L294.37,433.35L293.14,432.49L288.48,431.96L286.07,428.59L284.82,428.56L284.25,426.48L281.51,423.93L281.55,422.28L276.94,419.68L273.77,421.67L270.36,420.75L269.18,418.24L268.11,411.61L262.44,401.96L260.54,403.15L257.74,402.66L254.24,405.46L252.36,405.82L250.71,397.52L247.99,394.55L251.88,388.88L258.55,384.1L258.91,382.46L253.68,379.84L247.76,380.1L245.61,378.8L243.94,382.88L239.25,383.58L236.4,385.15L233.77,390.03L227.9,388.22L227.95,386.57L227.03,386.13L222.33,386.83L220.74,388.02L216.2,383.35L214.83,376.7L211.54,372.07L208.71,372.81L202.96,378.02L201.93,381.29L202.42,385.85L201.8,385.83L199.67,384.11L199.74,381.64L193.27,378.97L193.61,378.16L192.42,376.06L191.15,376.85L189,375.96L188.83,371L183.62,368.37L182.12,366.26L180.27,365.79L179.06,364.52L178.97,367.4L178.03,367.79L176.83,366.1L173.72,366.01L173.79,363.53L172.05,359.35L173.33,358.15L172.74,357.31L173.75,354.45L173.49,352.79L163.39,347.12L163.87,352.09L162.81,356.18L163.3,360.33L160.46,361.89L158.28,361.83L157.29,363.45L157.84,365.94L155.35,365.87L154.87,361.31L152.41,360.41L151.12,361.61L151.06,363.67L142.66,363.41L142.4,361.75L144.01,360.15L144.72,357.28L145.96,357.32L145.78,353.18L146.84,349.09L145.7,345.75L146.05,344.52L150.8,341.78L151.83,338.5L153.76,336.5L154.94,338.6L156.77,339.89L160.22,338.76L166.1,339.77L169.54,339.46L171.51,335.8L176.75,337.61L178.31,337.24L180.3,333.17L185.99,330.04L187.07,325.11L186.28,320.13L184.78,318.44L180.11,318.71L176.44,316.54L168.59,308.87L168.34,306.8L164.95,305.87L163.75,304.59L164.11,302.95L162.96,300.03L162.02,300L161.06,301.21L160.68,303.26L159.13,303.21L154.66,307.21L150.35,305.84L148.46,306.6L139.78,305.92L139.23,303.84L141.15,301.83L140.26,300.57L137.44,301.31L133.92,304.5L132.99,304.47L131.84,301.54L133.9,295.41L138.51,296.8L140.7,286.54L144.19,284.17L139.89,282.39L138.46,278.62L134.56,274.37L134.05,270.64L131.96,268.1L129.64,263.07L131.55,261.48L131.27,260.64L132.21,260.26L132.25,259.02L140.06,257.2L139.54,253.88L144.62,250.32L148.33,250.44L148.48,245.9L151.35,243.1L154.67,246.09L156.24,245.31L157.57,242.46L164.33,234.41L180.35,216.72L181.09,212.61L182.03,212.23L185.38,214.39L187.53,214.87L199.21,207.36L204.27,203.38L206.9,198.09L207.62,194.81L216.54,196.71L223.77,192.79L228.95,195.41L233.5,198.84L240.23,201.51L245.6,209.09L245.86,210.75L247.98,212.46L253.86,212.62L260.09,211.14L262.4,205.83L269.03,201.05L270.56,201.5L272.66,204.04L286.9,215.97L289.99,216.47L301.3,222.12L306.37,229.68L305,235.02L313.03,236.05L314.3,234.84L327.01,234.33L328.49,237.25L329.72,237.7L332.73,241.48L337.61,244.49L343.82,244.23L345.11,242.2L357.14,244.54L361.74,246.71L360.07,251.63L357.91,251.17L355.47,249.46L342.63,268.15L345.92,273.18L350.18,276.59L353.19,280.79L354.64,284.95L360.17,287.55L368.38,295.17L374.2,298.61L374.47,300.27L377.88,300.35L388.68,303.48L399.51,305.37L404.35,311.25L407.72,313.8L419.71,319.42L435.57,318.93L436.22,317.7L437.47,317.31L439.95,317.78L441.83,316.58L447.75,315.87L449.91,316.74L454.6,315.18L459.81,318.59L459.75,321.89L464.7,322.81L468.8,320L472.33,314.29L478.56,313.17L482.88,314.9L484.76,313.7L488.46,315.42L493.12,315.09L500.87,316.47L508.27,319.49L514.49,318.78L519.51,315.97L521.37,316.42L524.98,323.09L548.53,346.19L548.75,351.97L555.56,353.73L562.74,352.61L565.22,353.06L566.16,352.25L569.57,353.13L572.03,354.82L576.07,355.29L577.28,357.37L576.94,359.43L579.59,368.97L584.21,372.34L586.69,373.2L594.92,363.83L604.77,349.52L614.09,350.07L615.33,350.5L616.24,352.16L617.8,352.18L618.4,353.43L619.95,353.87L621.48,355.54L625.2,356.41L626.47,354.78L629.87,356.06L632.69,354.45L633.67,351.57L635.86,350.37L634.65,347.46L634.98,346.23L636.86,345.42L636.88,343.77L638.77,342.15L637.24,340.06L638.25,333.89L636.72,332.21L638.01,328.52L637.08,328.09L637.41,327.27L641.46,326.08L639.94,324L639.96,322.35L642.17,319.49L641.87,318.25L638.78,317.38L639.43,315.32L638.53,312.84L641.07,308.33L643.25,307.94L643.26,307.12L641.72,306.27L644.54,304.25L645.21,300.13L648.93,301L650.81,299.37L650.83,297.72L652.08,296.91L651.83,292.78L654.01,291.98L654.33,290.75L651.24,289.88L651.89,287.83L653.75,287.44L655.01,286.22L656.25,286.64L656.88,285.83L655.97,283.75L660.06,279.26L660.98,280.1L659.42,281.32L660.64,282.57L661.91,280.11L663.47,279.72L661.33,276.8L658.85,277.18L656.08,275.08L652.05,274.62L653.65,270.92L649.37,266.33L648.78,264.26L649.4,263.85L651.55,265.12L653.45,262.67L653.16,261.01L651.92,260.58L651.29,261.4L650.06,260.97L648.81,261.78L647.27,260.52L647.91,259.29L649.46,258.9L648.88,256.42L647.02,255.98L644.21,257.59L642.67,257.16L642.06,255.92L643.63,254.28L643.35,252.63L638.08,252.56L636.85,251.72L639.95,251.35L639.38,247.62L641.28,244.76L640.06,243.5L637.26,243.88L636.94,245.12L637.84,246.78L636.27,248.41L636.87,250.48L636.24,251.3L635.33,249.63L631.32,247.93L629.77,248.32L629.16,247.49L629.8,246.26L633.21,245.89L633.54,244.24L637.28,242.64L637.29,241.82L635.42,242.62L634.2,241.36L634.23,239.3L633.61,238.88L631.11,240.91L629.87,240.48L629.89,239.24L632.09,237.21L631.8,235.55L630.25,235.12L630.54,237.19L628.01,240.45L625.25,238.77L625.27,237.12L626.85,235.07L626.56,233.83L624.39,233.39L623.75,235.03L622.85,233.37L621.91,234.18L619.77,232.09L612.96,231.58L612.68,229.51L611.46,228.25L606.81,228.6L601.58,226.46L598.17,226.41L597.29,223.51L595.71,225.14L594.16,225.53L594.49,223.88L593.89,223.05L588.33,221.73L586.5,220.46L586.52,218.81L583.12,218.76L582.82,217.93L584.37,217.54L584.7,216.3L582.85,215.86L581.9,217.09L580.98,217.07L580.69,215.83L577,214.12L575.8,211.21L573.03,210.35L575.54,208.32L575.56,207.08L574.04,204.99L573.12,204.98L573.1,206.22L574.02,206.23L574.32,207.06L573.37,208.29L571.82,208.67L568.44,207.38L568.54,200.78L567.01,199.52L565.78,199.5L563.97,196.58L562.72,197.38L563,199.04L561.74,200.67L559.56,201.46L558.34,200.62L558.37,198.55L561.8,196.96L561.5,196.13L556.24,196.04L555.07,191.89L554.43,193.54L551.94,194.32L550.73,192.65L547.63,193.42L547.34,191.77L548.29,190.55L547.72,187.65L546.81,186.81L546.17,188.03L546.73,191.35L545.79,192.16L542.41,190.86L543.06,188.81L542.45,188.38L540.89,189.18L539.36,188.33L540.02,185.87L537.65,180.05L538.6,178.41L540.76,178.86L540.78,177.62L536.76,177.55L536.8,175.08L538.67,174.28L538.69,173.05L537.77,172.62L536.18,175.07L531.27,173.33L531.9,172.52L532.51,172.94L533.15,171.71L531.63,170.04L531.38,167.14L530.17,165.47L532.34,165.09L530.82,163.42L530.56,160.52L529.35,158.85L529.68,157.62L531.86,156.83L532.46,157.66L532.11,160.55L534.27,160.17L533.08,157.67L536.83,155.26L538.33,157.76L539.27,156.95L539.88,157.38L539.86,158.61L541.39,159.47L541.98,161.13L544.16,159.93L543.26,158.26L541.71,158.65L541.12,157.4L542.96,157.84L543.28,157.02L542.39,155.35L543.33,154.13L542.43,152.46L542.79,149.58L539.13,147.04L537.65,143.3L536.71,143.7L534.88,142.43L533.93,144.06L532.72,142.8L531.48,143.2L531.76,144.44L530.21,144.83L531.07,148.56L529.53,148.53L529.24,147.7L527.09,146.84L524.61,147.21L520.34,144.24L521.92,142.21L524.08,142.66L524.41,141.42L523.84,138.52L520.52,133.92L518.93,136.79L519.54,137.21L520.48,136.4L519.82,138.87L516.46,137.15L515.49,139.2L516.97,142.94L515.73,143.34L514.22,141.24L512.99,141.22L512.97,142.05L514.5,142.9L514.15,145.37L515.36,146.63L513.78,148.67L511.92,149.05L511.02,147.79L511.36,146.15L512.6,145.76L512.3,144.93L508.6,144.86L505.85,143.57L506.79,142.35L506.19,141.51L504.95,141.9L504.05,140.65L501.26,141.01L500.66,140.17L501,138.53L501.93,138.13L500.74,135.63L502.89,136.09L502.91,135.26L501.67,135.24L500.47,133.57L500.13,135.21L498.26,136.42L497.65,135.99L500.52,131.09L499.61,130.25L500.24,129.43L498.09,128.98L498.11,127.74L499.04,127.35L498.44,126.51L502.16,125.75L502.48,124.93L501.28,122.84L502.85,121.63L502.26,119.97L501.33,120.37L499.82,118.69L499.85,117.04L497.12,114.1L496.27,110.37L496.9,109.55L496.64,107.07L494.83,104.97L495.76,104.58L495.5,101.68L494.58,101.66L493.69,99.58L494.31,99.59L494.36,96.7L494.99,96.3L494.77,91.34L495.43,88.88L500.43,84.84L501.51,76.6L502.45,75.38L505.77,79.16L513.72,82.6L516.9,76.88L532.95,74.68L532.72,70.55L533.35,69.73L534.58,69.34L535.22,68.11L538.31,67.34L543.65,60.82L550.83,54.75L554.85,53.57L556.75,50.71L562.65,47.09L563.92,44.64L563.66,41.74L564.3,40.1L568.05,36.03L568.39,33.97L566.02,28.56L569.48,23.25L570.14,20.78L570.67,26.16L571.9,26.18L573.41,27.86L575.78,33.26L574.82,36.14L576.31,39.05L578.15,39.49L580.95,37.06L582.78,38.32L586.55,32.6L596.76,28.62L603.48,31.2L605.3,32.88L605.56,36.18L606.78,37.44L609.84,38.31L609.51,39.54L610.7,42.45L609.43,45.32L609.34,51.93L610.8,57.32L612.94,57.76L613.53,59.83L616.29,60.7L619,64.87L623.35,61.62L625.82,61.24L628.31,59.21L630.81,56.36L629.92,54.28L633.03,51.84L638.83,54.81L640.08,53.18L646.26,51.61L648.39,52.87L651.17,52.08L655.47,52.96L658.21,55.47L661.9,55.11L662.22,54.29L660.11,50.54L660.16,47.24L662.63,46.45L666.04,43.6L670.97,42.83L672.84,40.79L673.77,40.8L674.01,46.17L675.19,50.31L676.7,52.4L677.28,55.29L680.92,60.29L679.98,61.93L676.58,62.72L675.31,66.42L683.51,76.01L682.87,77.65L684.1,78.08L687.74,82.67L691.74,83.12L692.67,82.31L694.82,83.16L695.07,88.12L696.91,88.55L698.74,91.05L701.79,93.14L701.78,94.38L703.31,95.64L703.6,97.29L705.72,100.21L707.26,100.22L709.76,96.95L710.99,97.37L713.46,96.57L715.95,94.95L718.39,97.04L720.23,97.47L725.1,104.12L723.78,112.37L722.53,114.42L724.34,118.15L728.04,117.78L729.27,119.03L730.15,123.58L733.5,127.33L736.27,127.77L741.48,131.53L743.95,131.55L747.32,134.06L746.99,136.12L750.36,139.04L746.6,145.2L745.32,149.73L743.78,150.13L743.76,152.19L746.5,155.94L748.04,156.77L747.41,157.59L749.56,159.27L750.8,158.45L753.57,160.13L751.34,167.13L752.56,168.38L753.82,166.32L756.92,164.7L757.52,167.18L759.67,168.03L760.91,167.62L762.14,168.87L765.54,168.49L766.46,169.32L768.95,166.87L768.05,163.56L767.13,162.72L767.76,161.49L769,161.5L770.25,159.03L773.34,159.06L773.97,157.41L775.52,157.01L776.46,155.37L781.42,152.52L780.43,160.77L781.65,162.84L783.8,164.1L786.22,170.72L791.75,174.89L792.35,176.55L799.43,180.73L799.72,182.8L798.16,185.67L794.73,189.36L795.33,192.26L798.72,193.93L799.34,193.11L802.09,197.26L803.33,197.68L805.81,196.88L807.31,202.67L805.76,203.89L808.83,206.8L809.43,209.7L811.26,212.6L813.12,212.61L814.66,213.86L818.07,213.06L820.85,214.32L820.21,217.2L818.96,218.43L819.27,219.26L816.15,221.72L814.58,225.42L816.12,226.67L816.4,231.21L813.6,233.26L814.83,234.09L817.94,232.87L821.02,235.37L823.82,233.74L825.97,234.99L827.49,239.95L826.24,241.59L829.58,252.35L828.01,256.05L825.52,258.51L828.6,261.01L829.21,263.08L830.76,262.68L831.37,263.5L832.62,263.1L835.09,264.35L835.08,266.42L838.46,271.39L845.88,274.32L848.04,276.81L850.52,276.82L853.29,280.14L855.15,280.56L855.76,282.63L859.78,285.13L862.26,286.38L865.05,285.57L870.01,287.66L870.31,289.31L871.86,290.55L872.18,288.49L877.76,288.1L879.62,288.94L882.42,286.47L886.15,285.66L892.01,293.53L894.51,289.82L899.79,288.19L902.26,291.09L901.33,292.33L902.54,298.93L900.67,302.23L902.21,305.54L907.17,308.03L911.81,313.82L914.29,313.83L917.39,316.73L920.8,316.74L920.5,313.85L923.93,309.32L929.83,309.34L930.14,308.51L931.7,308.1L934.49,309.35L935.11,308.94L934.81,305.63L937.92,301.51L941.02,303.58L945.99,304.42L947.22,306.9L951.88,306.49L953.74,307.32L954.98,306.5L957.78,306.92L959.64,305.27L962.75,305.69L964.6,311.47L967.7,313.53L970.5,313.54L970.49,318.9L977.95,321.39L979.81,319.74L981.67,321.39L986.64,321.8L988.2,322.63L990.37,318.92L991.62,314.38L995.96,311.9L996.9,308.6L999.69,307.36L1002.17,307.77L1004.35,309.43L1009,310.25L1011.49,307.77L1017.08,309.42L1019.87,309.01L1022.35,304.05L1024.52,302.81L1026.38,299.09L1025.76,297.86L1028.24,293.73L1026.37,288.77L1027.3,284.65L1026.99,283.41L1023.57,281.35L1022.95,280.11L1021.4,280.11L1022.33,278.46L1023.57,278.46L1024.19,275.57L1028.22,275.15L1035.96,269.36L1039.38,269.77L1044.33,268.53L1045.88,266.46L1046.19,265.63L1042.46,261.92L1039.97,254.09L1041.21,252.84L1041.52,250.78L1043.99,249.95L1045.55,251.6L1049.27,253.24L1052.67,252L1053.59,247.46L1056.38,244.98L1057.3,241.67L1054.51,239.61L1055.43,238.79L1055.74,236.72L1054.81,235.9L1057.28,232.59L1056.34,227.23L1060.66,219.79L1066.84,217.71L1073.32,210.67L1075.18,209.84L1075.17,209.02L1072.07,206.14L1075.45,195.81L1079.15,193.32L1092.44,192.87L1098,189.13L1106.95,187.45L1118.08,187.4L1124.56,185.31L1133.2,180.73L1135.65,177.41L1135.64,175.35L1143.01,167.05L1145.48,165.8L1152.27,165.77L1163.06,160.75L1164.89,158.26L1171.66,154.51L1174.73,151.6L1177.48,147.04L1179.02,146.61L1182.69,141.22L1184.2,136.26L1183.57,135.02L1184.78,130.06L1186.91,125.92L1189.05,123.84L1189.65,121.77L1195.16,115.54L1196.07,113.06L1201.58,107.65L1201.57,106.41L1206.43,97.71L1212.86,92.29L1222,79.42L1226.28,75.25L1225.33,72.78L1226.53,68.65L1226.21,67.41L1229.28,66.56L1233.23,60.74L1232.29,58.28L1235.31,52.06L1237.14,50.39L1238.69,51.2L1255.43,65.09L1274.13,88.44L1284.13,101.96L1290.72,113.04L1307.61,135.15L1317.62,146.6L1321.39,152.33L1343.35,179.73L1361.6,204.68L1381.84,236.6L1386.57,242.32L1403.48,275.93L1407.73,290.31L1413.23,326.56L1417.77,338.46L1417.49,340.94L1420.16,352.87L1432.18,385.3L1436.33,392.25L1440.14,396.73L1461.34,416.2L1464.21,419.87L1468.73,428.87L1475.69,434.53L1481.35,437.32L1495.73,456.06L1506.73,460.4L1520.52,462.62L1523.35,463.81L1530.95,469.44L1541.55,484.1L1537.96,492.42L1535.48,493.71L1535.15,492.89L1536.4,492.45L1540.61,484.12L1532.97,476.83L1534.12,487.96L1529.9,495.88L1529.13,504.98L1529.32,514.88L1531.64,521.85L1532.38,527.62L1537.28,538.25L1540.83,543.55L1542.74,545.17L1552.22,549.52L1558.53,551.46L1559.44,550.2L1560.38,550.18L1560.72,551.41L1564.81,552.16L1564.83,552.98L1569.85,553.29L1576.09,551.93L1579.55,552.68L1583.72,557.13L1583.75,558.78L1586.37,564.09L1589.88,566.91L1600.26,568.34L1607.15,568.19L1613.08,566.82L1617.18,567.97L1621,570.77L1623.21,571.14L1638.53,569.14L1654.13,565.89L1672.79,559.66L1679.97,558.25L1681.92,561.09L1685.39,561.83L1699.74,559L1700.34,558.16L1703.16,558.09L1703.76,556.83L1705.03,557.63L1704.77,559.7L1703.55,560.97L1703.95,564.26L1705.26,566.7L1709.77,571.54L1711.47,576.45L1716.31,581.7L1717.89,582.07L1720.18,585.73L1723.66,586.87L1725.84,586.4L1741.68,591.77L1743.87,591.71L1753.05,594.35L1754.92,593.89L1759.18,600.38L1758.93,602.86L1759.94,605.31L1760.57,605.29L1762.25,609.38L1766.74,612.97L1767.14,615.85L1774.4,617.3L1771.93,618.61L1773.95,623.5L1776.19,625.09L1777.76,625.05L1779.06,626.67L1784.12,627.76L1784.8,629.39L1789.96,634.2L1791.85,634.15L1796.14,630.31L1795.13,627.86L1795.38,625.79L1790.13,617.68L1790.09,616.45L1786.18,611.6L1786.79,610.76L1785.8,609.14L1782.87,605.5L1779.7,604.35L1781.58,604.3L1782.17,603.05L1784.36,602.57L1787.09,599.19L1788.98,599.55L1789.96,600.76L1791.2,600.31L1793.24,605.62L1794.2,606.42L1794.26,608.48L1792.79,611.83L1795.1,615.89L1794.18,616.74L1794.22,617.98L1794.91,620.03L1798.09,621.59L1799.45,625.26L1799.5,626.91L1797.05,629.05L1797.41,630.69L1796.8,631.53L1797.79,633.15L1796.9,634.83L1795.86,631.56L1795.23,631.58L1791.55,634.57L1791.29,636.64L1792.92,638.66L1793.03,642.37L1797.25,647.21L1799.29,652.52L1798.47,656.67L1799.12,668.62L1798.88,671.11L1797.96,671.96L1798.11,677.32L1801.53,686.72L1800.77,693.35L1801.16,695.81L1802.47,697.43L1801.57,699.1L1801.93,700.75L1802.88,700.72L1803.35,706.07L1802.72,706.09L1799.94,697.09L1799.39,688.85L1796.28,679.44L1790.43,673L1782.73,667.85L1780.2,667.51L1769.34,661.61L1762.98,659.31L1754.73,656.65L1741.8,655.34L1740.82,654.13L1738.6,653.36L1727.84,650.75L1723.11,650.46L1713.11,653.2L1711.91,655.29L1711.68,658.6L1710.75,659.04L1710.39,657.4L1708.81,657.02L1707.28,658.71L1706.33,658.74L1705.98,657.1L1701.53,655.56L1694.67,657.79L1688.78,661.24L1687.28,664.17L1685.71,664.62L1685.99,666.68L1684.76,664.23L1682.56,664.28L1675.9,662.38L1671.87,664.54L1671.47,661.25L1670.52,660.86L1666.93,655.58L1662.18,654.04L1660.56,652.01L1658.68,652.47L1655.19,651.31L1654.22,650.1L1644.77,649.49L1641.96,650.38L1641.68,651.63L1639.77,650.85L1636.66,652.16L1634.2,654.69L1634.01,660.06L1635.29,661.27L1636.53,660.41L1637.5,661.63L1641.29,661.96L1635.98,663.73L1635.38,664.98L1636.33,665.37L1636.35,666.2L1634.08,676.98L1632.19,677.03L1629.62,675.02L1629.99,677.08L1632.23,679.09L1626.59,680.04L1625.94,679.23L1620.9,678.93L1615.27,680.71L1607.18,685.01L1598.53,692.63L1597.2,689.77L1595.3,688.98L1588.41,690.78L1584.37,693.34L1584.82,699.93L1583.52,697.9L1576.68,702.17L1578.29,704.2L1581.78,705.36L1572.91,702.66L1571.02,702.7L1570.09,703.54L1571.08,705.58L1572.34,705.56L1573.65,708.42L1572.1,709.28L1573.41,711.73L1571.84,712.17L1570.84,709.3L1567.41,711.44L1562.68,711.12L1560.49,711.99L1558.26,710.8L1550.53,718.38L1539.25,721.9L1533.03,726.15L1527.76,731.2L1525.23,730.83L1522.13,733.37L1520.62,737.11L1521.14,747.83L1523.14,753.99L1527.35,759.69L1522.94,760.18L1522.64,761.01L1524.61,764.69L1522.01,761.03L1517.27,760.7L1516.99,762.77L1506.7,769.56L1504.25,774.15L1504.31,777.04L1506.33,784.02L1512.2,794.23L1519.94,802.34L1524.42,805.56L1525.42,808.02L1523.58,811.35L1519.5,813.08L1515.81,818.93L1514.55,818.95L1514.5,816.48L1513.56,816.49L1513.59,818.14L1512.32,818.17L1511.72,819.83L1506.7,822.4L1503.33,828.23L1503.1,833.19L1505.51,843.88L1509.87,857.42L1512.82,862.74L1510.04,866.91L1507.19,866.96L1504.05,868.67L1503.13,870.34L1502.89,874.47L1502.2,871.59L1501.39,879.04L1497.11,888.2L1495.63,894.41L1496.06,900.6L1498.74,908.8L1498.45,910.05L1504.42,924.8L1508.34,930.92L1495.72,935.28L1489.75,939.09L1481.35,949.56L1476.73,958.3L1471.38,980.68L1463.18,1004.35L1463.25,1008.89L1464.96,1015.88L1472.89,1032.67L1471.93,1032.68L1467.67,1025.74L1462.92,1008.07L1462.41,1015.5L1464.45,1023.31L1470.99,1033.53L1476.51,1039.62L1478.44,1040.42L1482.66,1044.89L1483,1046.12L1481.72,1046.14L1480.74,1044.51L1475.34,1046.25L1473.49,1049.58L1476.08,1052.02L1475.45,1052.44L1476.44,1054.49L1481.62,1058.94L1483.26,1061.39L1485.83,1062.58L1485.56,1065.48L1490.26,1060.44L1489.85,1055.5L1490.15,1054.25L1491.41,1053.4L1493.39,1057.09L1496.63,1059.92L1495.67,1059.93L1495.38,1061.59L1497.6,1060.73L1501.78,1062.3L1503.72,1063.92L1499.36,1070.19L1499.49,1077.62L1505.79,1090.3L1516.58,1104.56L1515.01,1105.82L1514.99,1104.59L1510.46,1101.78L1508.54,1101.4L1506.9,1098.95L1501.1,1096.17L1496.3,1095.84L1495.31,1094.2L1494.03,1093.81L1493.99,1091.75L1490.5,1092.64L1488.25,1091.85L1486.98,1092.28L1486.64,1091.05L1485.35,1090.66L1484.69,1089.43L1484.23,1081.18L1480.35,1077.95L1475.84,1075.55L1466.55,1073.64L1461.46,1074.96L1457.67,1077.5L1455.79,1079.59L1452.66,1103.58L1451.92,1117.22L1452.57,1117.62L1451.36,1122.18L1451.06,1143.24L1449.4,1159.78L1447.27,1166.83L1445.36,1167.68L1444.12,1170.59L1442.22,1171.86L1441.26,1171.46L1442.16,1168.15L1444.37,1165.63L1444.51,1154.49L1442.85,1150.38L1442.48,1147.09L1437.25,1140.15L1435.66,1141L1437.03,1146.76L1434.82,1148.86L1436.81,1153.37L1433.28,1152.6L1429.52,1158.02L1429.92,1163.38L1427.33,1160.94L1427.15,1149.39L1425.9,1151.06L1425.02,1156.85L1425.47,1165.1L1429.62,1164.62L1430.93,1166.67L1425.51,1167.99L1424.2,1165.94L1422.62,1167.62L1419.75,1168.07L1417.17,1166.87L1417.15,1165.63L1420.35,1165.17L1422.87,1162.66L1422.51,1160.19L1421.54,1159.38L1419.63,1160.23L1419.34,1162.3L1414.9,1165.25L1411.4,1166.54L1410.1,1164.91L1411.03,1163.25L1409.38,1159.55L1412.83,1154.55L1415.6,1147.49L1412.07,1146.31L1410.84,1149.63L1409.97,1156.24L1408.68,1155.44L1406.81,1158.77L1403.91,1157.57L1402.9,1154.28L1403.78,1148.49L1405.05,1148.06L1406.35,1149.28L1407.29,1148.03L1405.94,1142.68L1407.52,1141.83L1412.87,1135.56L1417.64,1133.43L1424.24,1125.49L1419.1,1123.91L1410.77,1123.21L1401.87,1126.64L1397.12,1130.01L1392.66,1130.9L1389.75,1128.87L1389.64,1121.03L1380.17,1106.3L1376.65,1105.52L1367.73,1107.29L1366.49,1110.19L1368.13,1113.89L1371.38,1117.97L1371.09,1120.04L1370.15,1121.29L1366.95,1121.33L1366.67,1124.64L1364.78,1126.31L1355.21,1128.5L1350.45,1131.45L1347.63,1136.02L1343.14,1134.84L1336.14,1138.22L1334.28,1142.79L1335.26,1145.25L1338.8,1146.86L1341.03,1145.6L1344.23,1145.56L1346.49,1147.59L1350.63,1145.89L1350.35,1149.2L1349.09,1150.45L1349.74,1151.27L1351.33,1150.84L1353.54,1148.75L1353.82,1145.03L1356.03,1142.52L1369.68,1134.92L1380.86,1133.95L1384.4,1135.55L1383.83,1140.51L1374,1146.83L1362.86,1151.93L1359.09,1156.93L1355.71,1168.53L1353.08,1188.79L1349.04,1198.75L1352.57,1199.53L1357.43,1203.19L1359.53,1217.19L1359.68,1229.58L1357.17,1234.15L1358.13,1233.72L1358.15,1234.96L1356.56,1236.63L1354.47,1249.04L1349.5,1262.73L1337.16,1278.98L1333.96,1280.25L1336.2,1279.4L1339.36,1274.82L1335.86,1277.34L1327.53,1279.5L1324.68,1284.08L1323.77,1288.21L1323.11,1286.57L1323.7,1282.44L1323.04,1280.79L1325.24,1276.23L1327.17,1276.2L1333.23,1272.83L1335.76,1269.09L1338.32,1268.23L1342.13,1264.47L1340.2,1263.67L1339.21,1261.61L1332.78,1261.28L1331.8,1260.05L1336.62,1260.41L1339.82,1259.54L1342.37,1257.86L1345.86,1254.1L1351.83,1243.3L1349.18,1236.72L1350.43,1233.41L1348.44,1228.48L1349.03,1223.93L1342.65,1227.72L1341.36,1226.5L1339.13,1227.76L1334.37,1232.77L1330.92,1239.42L1324.9,1246.51L1321.79,1255.62L1319.55,1256.06L1318.94,1259.37L1319.63,1263.08L1320.93,1264.72L1322.45,1256.85L1323.1,1257.26L1321.9,1265.12L1318.09,1269.7L1318.12,1272.18L1318.46,1273.82L1319.74,1273.4L1322.02,1275.44L1321.06,1275.86L1319.49,1279.18L1321.17,1286.18L1322.46,1286.58L1324.1,1289.04L1323.52,1294.82L1325.21,1302.23L1331.51,1317.85L1333.14,1320.31L1336.39,1322.75L1337.71,1325.62L1336.51,1333.07L1339.9,1373.9L1339.62,1405.28L1341.74,1420.12L1340.82,1424.26L1340.94,1434.99L1343.1,1452.72Z" fill-rule="evenodd" fill="#4682b4" fill-opacity="0.471"/>
<polyline points="1343.1,1452.72 1340.52,1453.58 1338.56,1451.95 1336.95,1452.38 1333.03,1449.54 1331.74,1449.96 1330.11,1448.74 1327.53,1448.77 1326.25,1450.03 1323.34,1450.47 1322.36,1449.24 1321.08,1450.5 1313.62,1448.93 1312.34,1449.77 1312.03,1451.01 1311.06,1451.02 1310.11,1453.1 1308.18,1453.94 1305.91,1453.55 1303.69,1457.71 1301.44,1458.97 1301.13,1460.21 1299.85,1461.05 1299.55,1463.53 1298.26,1463.96 1296.66,1466.04 1295.04,1465.64 1289.88,1467.35 1286.65,1467.38 1284.07,1468.64 1281.51,1471.14 1273.75,1472.46 1272.15,1473.71 1271.18,1473.72 1270.19,1471.67 1268.56,1470.86 1264.03,1470.9 1261.44,1470.1 1252.65,1463.98 1252.62,1461.09 1251.32,1460.28 1249.34,1455.75 1248.95,1447.91 1247.66,1448.33 1246.36,1447.52 1245.03,1443.4 1243.41,1442.59 1240.78,1438.07 1237.87,1437.68 1237.86,1436.44 1236.56,1435.63 1236.55,1434.39 1235.57,1433.57 1235.89,1432.33 1233.29,1431.53 1231.66,1428.65 1229.71,1428.25 1228.07,1424.14 1226.44,1423.32 1225.16,1423.75 1223.53,1422.52 1223.84,1420.87 1221.88,1418.4 1221.18,1410.57 1217.61,1408.12 1214.05,1407.73 1211.8,1408.57 1209.2,1406.53 1208.86,1404.47 1207.9,1404.89 1205.91,1397.88 1204.28,1395.83 1205.24,1394.58 1204.27,1394.18 1204.26,1392.94 1205.85,1389.62 1204.86,1387.15 1205.82,1385.5 1196.77,1383.08 1194.84,1383.51 1189.38,1388.09 1183.58,1388.12 1182.28,1386.89 1178.42,1388.98 1178.43,1389.81 1176.17,1389.82 1174.24,1391.07 1172.62,1389.84 1171.01,1391.09 1167.13,1388.64 1165.19,1389.06 1162.92,1387.42 1161.32,1388.26 1157.75,1385.8 1156.45,1383.74 1156.76,1380.44 1155.79,1380.03 1155.46,1378.38 1153.51,1376.33 1152.53,1373.44 1152.83,1369.73 1149.6,1368.92 1148.95,1367.68 1147.34,1367.69 1146.36,1366.46 1140.88,1365.25 1139.26,1363.6 1139.21,1354.93 1137.59,1351.23 1138.86,1349.16 1140.79,1348.32 1141.1,1344.19 1137.2,1338.84 1137.84,1337.19 1135.58,1335.14 1132.68,1334.74 1129.77,1333.51 1128.8,1332.28 1127.52,1333.11 1123.97,1331.47 1122.03,1329.42 1122.02,1327.77 1118.79,1326.54 1119.43,1324.89 1113.31,1322.44 1110.09,1323.27 1105.26,1322.05 1104.28,1320.41 1101.39,1320.42 1100.42,1319.18 1099.46,1320.01 1096.23,1318.78 1092.05,1319.21 1090.11,1316.33 1092.02,1311.37 1087.52,1311.38 1085.9,1309.32 1082.69,1309.33 1083.32,1306.44 1079.46,1305.62 1077.2,1303.15 1073.34,1301.93 1072.05,1300.28 1070.76,1300.28 1069.14,1296.98 1068.82,1294.09 1064.31,1291.21 1060.71,1262.74 1063.6,1260.67 1064.88,1261.49 1066.5,1266.03 1073.56,1263.54 1074.84,1261.88 1079.66,1261.04 1083.18,1258.56 1082.53,1254.43 1085.72,1246.16 1091.82,1247.8 1093.1,1246.55 1098.56,1246.54 1100.8,1245.7 1104.34,1246.51 1107.86,1243.2 1109.14,1243.61 1112.35,1242.36 1118.77,1242.33 1123.59,1243.55 1125.19,1242.3 1127.43,1242.71 1130.96,1240.63 1133.2,1240.2 1133.52,1238.96 1134.48,1238.55 1144.42,1237.67 1146.33,1235.19 1153.05,1230.61 1156.23,1225.64 1159.1,1223.15 1159.1,1221.91 1161.97,1219.41 1164.19,1215.27 1166.08,1209.9 1164.79,1207.84 1163.47,1202.07 1161.87,1202.08 1160.88,1196.31 1158.29,1191.37 1159.25,1191.36 1158.91,1188.89 1157.94,1187.65 1156.99,1188.07 1156.98,1186.83 1155.05,1186.43 1155.36,1184.37 1154.72,1183.54 1155.97,1179 1154.37,1179.01 1153.08,1176.95 1152.44,1177.36 1147.94,1174.5 1146.66,1174.51 1146.98,1173.27 1144.73,1172.45 1140.89,1173.3 1139.61,1172.89 1139.61,1172.06 1137.69,1172.07 1136.4,1170.84 1135.44,1171.26 1131.27,1168.8 1130.61,1165.92 1129.65,1165.51 1129.32,1164.27 1129.96,1163.44 1128.04,1162.63 1127.07,1160.57 1126.42,1158.09 1127.05,1156.85 1125.77,1156.86 1125.44,1155.21 1124.48,1155.21 1122.23,1151.92 1119.35,1151.93 1119.03,1151.11 1118.07,1151.52 1118.38,1150.7 1111.32,1144.95 1109.41,1146.19 1107.8,1143.72 1108.76,1142.89 1107.47,1142.07 1105.24,1142.49 1105.23,1141.26 1102.34,1138.38 1102.34,1137.14 1103.61,1136.31 1100.73,1134.26 1101.69,1133.84 1102.64,1131.77 1099.75,1129.31 1100.7,1127.65 1098.78,1124.77 1099.73,1124.35 1098.45,1122.71 1100.99,1116.92 1099.39,1116.1 1100.02,1115.27 1098.74,1114.86 1098.73,1112.39 1099.37,1111.15 1100.01,1111.97 1102.24,1110.72 1102.24,1109.9 1103.84,1110.31 1103.83,1109.07 1102.88,1109.07 1102.55,1107.83 1103.19,1107.01 1104.47,1107.83 1105.74,1107.41 1105.42,1105.76 1106.38,1105.34 1105.73,1104.11 1106.68,1102.45 1108.92,1102.03 1109.87,1099.96 1110.83,1100.37 1111.14,1099.13 1113.37,1097.89 1114.97,1097.88 1114.65,1097.06 1116.56,1094.98 1117.52,1095.39 1117.52,1096.22 1119.11,1095.39 1119.74,1092.5 1122.29,1091.25 1124.51,1088.35 1128.34,1088.33 1128.98,1089.15 1131.2,1086.25 1132.8,1085.83 1135.68,1087.88 1139.82,1085.8 1141.1,1085.79 1141.74,1086.62 1142.38,1085.79 1141.73,1084.96 1142.05,1083.72 1143.01,1084.13 1145.55,1083.29 1145.86,1081.23 1146.83,1082.05 1147.14,1081.22 1151.92,1079.55 1153.82,1077.47 1154.46,1077.88 1156.05,1075.4 1161.14,1074.13 1166.87,1070.79 1172.29,1070.76 1172.29,1069.94 1174.51,1067.86 1174.5,1066.62 1168.69,1055.1 1162.9,1046.88 1067.01,938.31 1052.39,931.74 1051.12,931.74 1050.17,934.63 1048.58,935.87 1047.95,938.76 1045.41,938.77 1044.46,941.25 1040.97,943.73 1039.7,943.73 1039.38,942.49 1038.11,942.49 1034.31,949.51 1033.04,947.45 1030.5,951.58 1025.42,949.94 1022.88,951.18 1022.24,949.53 1020.01,949.11 1020.01,947.88 1018.74,947.47 1014.61,949.94 1011.12,948.71 1009.85,950.36 1008.9,949.53 1005.4,951.19 1005.08,952.42 1001.27,951.19 1000,952.01 999.36,953.66 998.09,953.66 996.51,952.01 995.55,952.42 995.23,953.25 996.19,954.9 995.23,955.72 993.64,955.31 991.42,956.96 991.42,959.44 988.56,959.44 987.92,961.09 988.88,962.74 987.6,963.98 987.6,966.45 985.38,966.86 983.79,965.63 982.83,967.28 981.56,967.69 981.24,969.75 978.38,974.29 973.61,977.59 970.11,978 966.6,981.29 965.33,980.05 963.42,980.88 962.79,982.94 958.65,981.7 955.15,985.82 953.87,986.23 952.6,985.4 949.42,988.28 947.82,991.58 945.27,992.4 943.68,991.99 942.41,994.05 937.31,996.1 933.8,1001.87 932.84,1001.87 932.53,1000.63 931.26,1000.21 927.43,1003.51 921.05,1007.2 919.13,1011.33 911.48,1015.02 907.33,1018.31 904.14,1017.88 902.23,1019.11 900.32,1018.69 897.12,1022.4 893.62,1022.38 887.87,1026.08 879.58,1026.46 878.62,1027.69 878.94,1029.34 876.07,1029.33 872.55,1032.2 867.77,1032.59 864.91,1030.1 864.27,1030.51 862.03,1032.57 861.71,1034.22 858.83,1036.27 858.5,1037.5 859.45,1039.98 854.62,1049.45 853.01,1051.51 851.1,1051.5 849.81,1053.55 848.22,1053.13 846.62,1054.36 846.93,1056.43 845.33,1057.24 845,1060.13 842.1,1065.48 840.82,1065.89 838.55,1071.65 832.8,1072.44 830.56,1074.08 825.76,1075.7 823.51,1079.4 821.59,1079.39 820.63,1080.62 819.35,1079.79 818.39,1080.2 816.45,1084.72 810.05,1086.33 809.4,1089.22 806.82,1092.09 804.27,1092.07 803.64,1091.24 802.67,1092.06 800.44,1091.63 798.19,1093.27 795,1093.66 792.74,1096.12 791.14,1096.52 789.88,1095.27 788.6,1095.26 786.65,1098.96 785.37,1099.37 784.72,1101.42 782.8,1101.82 782.15,1103.06 780.24,1103.04 777.95,1108.8 774.77,1107.54 771.87,1110.82 768.68,1109.55 768.01,1113.68 764.49,1113.65 763.53,1114.46 761.91,1117.34 761.88,1120.64 760.91,1122.28 759.94,1122.69 758.03,1121.85 756.42,1123.48 756.71,1126.79 755.05,1134.2 756.93,1138.35 755.32,1140.4 754.65,1143.28 748.85,1147.77 747.88,1149.41 744.67,1151.04 743.36,1154.33 736.96,1153.86 735.03,1155.08 734.69,1157.55 735.31,1158.79 732.41,1161.24 726.95,1163.25 725.33,1164.89 723.09,1164.87 721.8,1165.68 720.54,1164.43 720.56,1162.37 717.7,1160.27 717.08,1158.2 713.59,1154.87 694.28,1164.57 687.56,1164.91 685.62,1166.13 686.23,1169.03 685.56,1171.91 683.95,1172.72 683.59,1176.01 681.68,1175.17 680.38,1176.8 678.13,1177.19 677.8,1178.01 678.43,1178.85 679.4,1178.44 679.38,1179.68 677.14,1179.66 676.49,1180.89 676.79,1182.95 671.96,1184.55 671.62,1186.2 670.02,1186.59 668.69,1190.7 667.08,1191.1 665.13,1193.55 662.56,1193.52 662.51,1198.06 659.3,1198.85 658.94,1201.74 660.48,1207.12 657.54,1211.63 655.95,1210.37 651.72,1215.27 645.94,1216.02 644.97,1216.84 643.05,1216.4 642.75,1214.75 639.22,1214.7 635.31,1219.19 635.3,1220.02 636.89,1221.28 636.85,1224.58 634.26,1226.2 632.3,1229.06 632.28,1230.3 628.39,1233.96 628.37,1235.2 626.41,1237.65 625.73,1240.95 621.22,1241.71 620.55,1244.18 621.18,1245.02 620.19,1246.65 616.97,1247.85 616.61,1250.73 614.65,1252.77 610.13,1254.77 610.44,1255.6 609.14,1256.83 608.12,1260.53 607.16,1260.51 599.68,1266.6 596.78,1267.39 596.44,1268.62 592.25,1269.8 591.58,1271.44 589.64,1272.24 588.32,1274.7 586.37,1276.32 586.5,1267.24 585.88,1265.99 587.52,1263.54 587.56,1260.65 585.42,1253.19 582.24,1251.08 579.72,1247.74 578.19,1242.76 578.57,1238.23 578.91,1236.99 580.85,1236.61 583.78,1233.35 581.93,1228.37 582.32,1223.42 588.1,1223.09 591.03,1220.24 588.87,1214.43 588.04,1205.34 588.71,1203.28 591.93,1202.09 593.91,1198.41 592.66,1196.32 590.73,1196.3 589.78,1195.46 582.41,1195.76 581.8,1193.69 584.39,1191.66 586.31,1192.1 588.63,1186.77 586.77,1182.2 581.99,1180.48 581.37,1178.82 577.86,1177.94 578.62,1170.11 575.74,1170.07 574.83,1166.75 571.96,1165.88 571.66,1164.64 572.63,1163.83 576.16,1163.06 575.91,1158.93 571.75,1158.45 567.56,1160.45 563.43,1158.32 564.43,1155.45 561.87,1155.41 558,1157.42 557.75,1152.87 558.41,1151.64 557.16,1149.56 555.67,1142.52 558.57,1141.74 560.21,1138.87 565.33,1138.95 572.95,1142.78 575.15,1145.29 577.38,1146.15 579.04,1141.64 582.25,1141.27 585.11,1142.55 586.39,1142.16 587.32,1144.23 589.08,1155.82 591.35,1153.37 591.42,1148.83 594.34,1145.99 595.62,1146 598.84,1143.99 599.23,1139.45 600.19,1139.46 600.84,1138.24 602.75,1139.5 605.32,1138.71 604.38,1137.05 600.57,1135.34 600.26,1134.51 601.89,1132.06 605.73,1131.7 607.04,1130.07 608.94,1131.33 609.91,1130.52 615.03,1130.18 620.19,1126.53 613.18,1124.78 608.06,1125.13 603.01,1120.52 602.42,1117.21 600.84,1115.94 596.03,1116.7 592.87,1114.18 584.48,1097.96 585.13,1097.14 589.3,1095.97 589.97,1093.91 587.46,1090.99 586.54,1088.5 584.31,1087.64 582.74,1085.96 582.15,1082.65 579.33,1079.31 577.1,1078.86 576.41,1082.57 575.12,1083.37 570.97,1083.31 568.4,1084.1 566.84,1081.6 561.75,1080.69 561.81,1076.98 560.51,1078.2 559.89,1076.95 557.04,1075.67 556.74,1074.42 555.15,1073.99 553.91,1071.9 549.45,1071.01 551.39,1069.8 550.76,1068.96 548.53,1068.52 548.87,1067.28 547.33,1063.96 546.69,1063.95 547.03,1062.71 544.49,1062.26 544.83,1061.03 543.56,1060.59 545.82,1058.57 542.97,1057.28 542.05,1054.79 544,1052.76 542.55,1044.07 544.49,1042.45 546.08,1042.47 547.38,1040.84 546.42,1040.83 546.13,1039.58 547.09,1039.19 546.47,1037.94 544.25,1037.08 543.95,1036.25 544.65,1032.54 545.93,1032.15 550.69,1033.46 554.54,1031.87 558.97,1033.59 562.75,1036.54 565.63,1035.76 569.54,1030.04 573.1,1026.79 574.08,1024.75 573.16,1022.25 576.36,1021.89 578.57,1022.75 578.91,1021.52 580.82,1021.96 583.64,1024.89 583.94,1026.13 584.91,1025.32 586.49,1026.17 587.45,1025.77 589.01,1028.27 590.92,1027.88 591.9,1026.25 589.72,1023.33 589.43,1020.84 585.62,1019.96 583.75,1017.05 583.16,1014.15 581.89,1013.72 582.57,1010.84 579.11,1008.31 579.44,1007.08 582.01,1005.88 582.66,1004.65 589.7,1002.69 593.88,999.86 594.22,998.21 592.96,997.37 592.97,996.54 594.88,996.16 603.13,998.34 605.29,1002.91 606.87,1003.76 607.51,1003.35 607.21,1002.11 605.05,997.54 605.71,995.9 605.11,993 603.84,992.98 602.28,990.48 602.93,989.67 602.63,988.43 600.76,985.51 598.21,986.3 593.45,984.99 587.45,982.43 587.78,981.2 586.52,980.35 582.38,980.7 581.44,979.86 575.09,978.94 566.42,984.59 565.46,984.58 562.64,982.06 561.05,982.03 559.76,982.84 558.76,986.12 557.48,986.1 555.93,983.6 552.15,981.48 552.5,979.01 554.8,974.5 553.26,971.18 552.48,960.43 550.9,960 545.73,965.28 539.06,964.76 541.01,961.9 540.72,960.24 539.48,958.16 534.74,956.84 533.43,958.89 527.73,957.97 524.5,960.8 523.22,961.19 521.97,959.93 520.02,962.38 513.3,964.74 511.35,967.59 502.08,970.32 500.46,971.94 483.3,971.22 481.62,975.73 479.37,977.34 478.36,980.21 477.4,980.61 476.61,971.51 475.36,970.25 476.03,968.61 475.45,965.71 473.56,964.44 473.62,961.55 475.9,958.29 472.46,955.75 470.64,950.76 463.05,948.97 460.89,945.62 457.44,943.08 455.32,937.67 452.19,935.14 447.09,936.28 446.07,939.56 440.15,933.66 440.18,932.42 442.41,932.06 444.04,930.02 439.09,923.32 432.81,919.89 430.75,911.6 424.16,908.16 423.29,904.02 419.54,901.05 415.57,893.54 412.76,891.41 408.32,891.73 403.84,893.29 401.95,892.84 392.89,886.45 391.3,886.42 387.24,883.44 382.52,882.1 380.99,879.59 373.44,876.94 367.74,876.4 367.24,870.61 363.4,858.14 364.09,855.68 361.06,849.42 357.64,846.87 356.74,844.37 356.77,843.13 359.98,841.55 361.95,838.3 360.22,830.83 354.63,826.16 339.76,825.81 335.69,824.07 329.53,816.9 317.23,815.37 315.7,813.27 306.49,814.69 301.14,813.73 301.58,808.79 301.28,807.96 299.07,807.9 298.46,807.06 297.62,802.5 297.66,800.85 298.98,798.82 304.78,794.42 313.64,793.81 317.43,794.32 318.41,792.69 323.55,789.51 326.38,789.99 327.59,792.5 329.15,793.36 337.68,793.56 341.84,791.19 355.35,794.8 355.38,793.56 357.62,792.38 360.11,794.08 363.45,799.94 365.67,799.58 367.82,802.52 368.08,805 370.27,806.29 371.79,808.8 373.38,808.42 374.75,803.5 377.01,801.48 377.71,798.61 380.88,798.27 384.09,795.86 386.93,796.33 392.92,782.43 392.96,780.37 397.2,774.27 396.96,770.96 395.12,768.03 394.93,762.25 398.09,762.31 400.71,757.83 409.59,755.95 413.06,756.03 413.41,754.38 411.3,749.8 412.01,745.69 417.26,736.3 417.29,734.65 415.74,733.38 415.76,732.56 417.36,731.35 419.02,727.26 419.44,722.31 418.22,720.22 419.83,718.61 419.3,713.64 414.04,709.4 413.47,706.09 406.62,702.64 405.72,700.56 405.74,699.32 407.33,698.53 408.55,700.62 411.67,701.92 412.31,701.52 414.09,691.66 409.41,689.91 405.7,686.52 404.83,682.79 400.75,682.29 398.5,684.72 397.88,683.88 393.77,684.62 390.96,683.73 389.1,682.45 388.85,679.56 386.68,677.86 378.56,675.2 370.77,671.31 367.32,670.82 366.1,669.14 361.37,669.45 359.82,668.59 359.25,666.1 349.9,662.17 348.7,659.66 344.34,657.91 340.55,658.23 335.57,656.05 332.48,653.91 331.58,651.83 326.22,652.52 317.12,651.48 316.59,647.75 313.51,645.2 312.97,641.47 313.64,639.83 309.6,637.67 308.39,635.99 304.98,633.84 303.45,632.15 302.3,627.99 299.23,625.03 295.76,625.76 294.51,625.32 291.97,626.49 289.47,626.02 278.69,617.48 277.53,613.74 276.6,613.3 274.99,614.5 272.92,609.9 273.56,609.09 270.5,606.12 268.11,601.52 265.34,599.38 261.25,599.69 256.97,595.45 256.78,590.9 252.8,587.08 251.97,582.93 252.34,580.87 250.52,578.35 252.16,575.91 255.93,575.6 256.58,574.79 256.61,573.56 254.76,572.27 252.66,568.91 255.23,566.5 258.08,565.34 260.34,562.92 254.23,556.98 250.83,555.24 248.69,553.11 243.33,554.21 239.69,549.98 237.92,545.8 241.18,541.35 235.34,537.06 234.46,534.97 230.5,530.74 232.53,525.42 234.77,523.83 234.54,520.53 235.54,518.49 234.05,515.56 235.93,515.61 235.47,509.82 236.14,508.18 237.61,511.53 240.05,513.66 243.86,511.7 244.58,508.41 241.52,505.85 243.46,503.43 244.48,500.57 243.89,499.31 248.58,499.44 250.24,495.77 252.48,493.76 258.74,493.93 260.64,492.74 262.21,492.79 264.78,489.96 265.98,492.06 268.8,491.72 274.54,487.74 276.19,484.48 281.54,482.97 289.05,482.75 290.05,480.3 295.5,475.07 297.77,471.83 297.8,470.59 300.98,468.19 301.99,465.33 303.9,464.14 304.9,461.69 304.64,459.61 306.59,456.36 306.3,455.53 309.2,451.88 308.06,447.73 306.26,444.79 307.88,442.36 307.65,439.05 301.19,435.17 296.1,439.17 293.89,439.94 293.29,439.1 294.37,433.35 293.14,432.49 288.48,431.96 286.07,428.59 284.82,428.56 284.25,426.48 281.51,423.93 281.55,422.28 276.94,419.68 273.77,421.67 270.36,420.75 269.18,418.24 268.11,411.61 262.44,401.96 260.54,403.15 257.74,402.66 254.24,405.46 252.36,405.82 250.71,397.52 247.99,394.55 251.88,388.88 258.55,384.1 258.91,382.46 253.68,379.84 247.76,380.1 245.61,378.8 243.94,382.88 239.25,383.58 236.4,385.15 233.77,390.03 227.9,388.22 227.95,386.57 227.03,386.13 222.33,386.83 220.74,388.02 216.2,383.35 214.83,376.7 211.54,372.07 208.71,372.81 202.96,378.02 201.93,381.29 202.42,385.85 201.8,385.83 199.67,384.11 199.74,381.64 193.27,378.97 193.61,378.16 192.42,376.06 191.15,376.85 189,375.96 188.83,371 183.62,368.37 182.12,366.26 180.27,365.79 179.06,364.52 178.97,367.4 178.03,367.79 176.83,366.1 173.72,366.01 173.79,363.53 172.05,359.35 173.33,358.15 172.74,357.31 173.75,354.45 173.49,352.79 163.39,347.12 163.87,352.09 162.81,356.18 163.3,360.33 160.46,361.89 158.28,361.83 157.29,363.45 157.84,365.94 155.35,365.87 154.87,361.31 152.41,360.41 151.12,361.61 151.06,363.67 142.66,363.41 142.4,361.75 144.01,360.15 144.72,357.28 145.96,357.32 145.78,353.18 146.84,349.09 145.7,345.75 146.05,344.52 150.8,341.78 151.83,338.5 153.76,336.5 154.94,338.6 156.77,339.89 160.22,338.76 166.1,339.77 169.54,339.46 171.51,335.8 176.75,337.61 178.31,337.24 180.3,333.17 185.99,330.04 187.07,325.11 186.28,320.13 184.78,318.44 180.11,318.71 176.44,316.54 168.59,308.87 168.34,306.8 164.95,305.87 163.75,304.59 164.11,302.95 162.96,300.03 162.02,300 161.06,301.21 160.68,303.26 159.13,303.21 154.66,307.21 150.35,305.84 148.46,306.6 139.78,305.92 139.23,303.84 141.15,301.83 140.26,300.57 137.44,301.31 133.92,304.5 132.99,304.47 131.84,301.54 133.9,295.41 138.51,296.8 140.7,286.54 144.19,284.17 139.89,282.39 138.46,278.62 134.56,274.37 134.05,270.64 131.96,268.1 129.64,263.07 131.55,261.48 131.27,260.64 132.21,260.26 132.25,259.02 140.06,257.2 139.54,253.88 144.62,250.32 148.33,250.44 148.48,245.9 151.35,243.1 154.67,246.09 156.24,245.31 157.57,242.46 164.33,234.41 180.35,216.72 181.09,212.61 182.03,212.23 185.38,214.39 187.53,214.87 199.21,207.36 204.27,203.38 206.9,198.09 207.62,194.81 216.54,196.71 223.77,192.79 228.95,195.41 233.5,198.84 240.23,201.51 245.6,209.09 245.86,210.75 247.98,212.46 253.86,212.62 260.09,211.14 262.4,205.83 269.03,201.05 270.56,201.5 272.66,204.04 286.9,215.97 289.99,216.47 301.3,222.12 306.37,229.68 305,235.02 313.03,236.05 314.3,234.84 327.01,234.33 328.49,237.25 329.72,237.7 332.73,241.48 337.61,244.49 343.82,244.23 345.11,242.2 357.14,244.54 361.74,246.71 360.07,251.63 357.91,251.17 355.47,249.46 342.63,268.15 345.92,273.18 350.18,276.59 353.19,280.79 354.64,284.95 360.17,287.55 368.38,295.17 374.2,298.61 374.47,300.27 377.88,300.35 388.68,303.48 399.51,305.37 404.35,311.25 407.72,313.8 419.71,319.42 435.57,318.93 436.22,317.7 437.47,317.31 439.95,317.78 441.83,316.58 447.75,315.87 449.91,316.74 454.6,315.18 459.81,318.59 459.75,321.89 464.7,322.81 468.8,320 472.33,314.29 478.56,313.17 482.88,314.9 484.76,313.7 488.46,315.42 493.12,315.09 500.87,316.47 508.27,319.49 514.49,318.78 519.51,315.97 521.37,316.42 524.98,323.09 548.53,346.19 548.75,351.97 555.56,353.73 562.74,352.61 565.22,353.06 566.16,352.25 569.57,353.13 572.03,354.82 576.07,355.29 577.28,357.37 576.94,359.43 579.59,368.97 584.21,372.34 586.69,373.2 594.92,363.83 604.77,349.52 614.09,350.07 615.33,350.5 616.24,352.16 617.8,352.18 618.4,353.43 619.95,353.87 621.48,355.54 625.2,356.41 626.47,354.78 629.87,356.06 632.69,354.45 633.67,351.57 635.86,350.37 634.65,347.46 634.98,346.23 636.86,345.42 636.88,343.77 638.77,342.15 637.24,340.06 638.25,333.89 636.72,332.21 638.01,328.52 637.08,328.09 637.41,327.27 641.46,326.08 639.94,324 639.96,322.35 642.17,319.49 641.87,318.25 638.78,317.38 639.43,315.32 638.53,312.84 641.07,308.33 643.25,307.94 643.26,307.12 641.72,306.27 644.54,304.25 645.21,300.13 648.93,301 650.81,299.37 650.83,297.72 652.08,296.91 651.83,292.78 654.01,291.98 654.33,290.75 651.24,289.88 651.89,287.83 653.75,287.44 655.01,286.22 656.25,286.64 656.88,285.83 655.97,283.75 660.06,279.26 660.98,280.1 659.42,281.32 660.64,282.57 661.91,280.11 663.47,279.72 661.33,276.8 658.85,277.18 656.08,275.08 652.05,274.62 653.65,270.92 649.37,266.33 648.78,264.26 649.4,263.85 651.55,265.12 653.45,262.67 653.16,261.01 651.92,260.58 651.29,261.4 650.06,260.97 648.81,261.78 647.27,260.52 647.91,259.29 649.46,258.9 648.88,256.42 647.02,255.98 644.21,257.59 642.67,257.16 642.06,255.92 643.63,254.28 643.35,252.63 638.08,252.56 636.85,251.72 639.95,251.35 639.38,247.62 641.28,244.76 640.06,243.5 637.26,243.88 636.94,245.12 637.84,246.78 636.27,248.41 636.87,250.48 636.24,251.3 635.33,249.63 631.32,247.93 629.77,248.32 629.16,247.49 629.8,246.26 633.21,245.89 633.54,244.24 637.28,242.64 637.29,241.82 635.42,242.62 634.2,241.36 634.23,239.3 633.61,238.88 631.11,240.91 629.87,240.48 629.89,239.24 632.09,237.21 631.8,235.55 630.25,235.12 630.54,237.19 628.01,240.45 625.25,238.77 625.27,237.12 626.85,235.07 626.56,233.83 624.39,233.39 623.75,235.03 622.85,233.37 621.91,234.18 619.77,232.09 612.96,231.58 612.68,229.51 611.46,228.25 606.81,228.6 601.58,226.46 598.17,226.41 597.29,223.51 595.71,225.14 594.16,225.53 594.49,223.88 593.89,223.05 588.33,221.73 586.5,220.46 586.52,218.81 583.12,218.76 582.82,217.93 584.37,217.54 584.7,216.3 582.85,215.86 581.9,217.09 580.98,217.07 580.69,215.83 577,214.12 575.8,211.21 573.03,210.35 575.54,208.32 575.56,207.08 574.04,204.99 573.12,204.98 573.1,206.22 574.02,206.23 574.32,207.06 573.37,208.29 571.82,208.67 568.44,207.38 568.54,200.78 567.01,199.52 565.78,199.5 563.97,196.58 562.72,197.38 563,199.04 561.74,200.67 559.56,201.46 558.34,200.62 558.37,198.55 561.8,196.96 561.5,196.13 556.24,196.04 555.07,191.89 554.43,193.54 551.94,194.32 550.73,192.65 547.63,193.42 547.34,191.77 548.29,190.55 547.72,187.65 546.81,186.81 546.17,188.03 546.73,191.35 545.79,192.16 542.41,190.86 543.06,188.81 542.45,188.38 540.89,189.18 539.36,188.33 540.02,185.87 537.65,180.05 538.6,178.41 540.76,178.86 540.78,177.62 536.76,177.55 536.8,175.08 538.67,174.28 538.69,173.05 537.77,172.62 536.18,175.07 531.27,173.33 531.9,172.52 532.51,172.94 533.15,171.71 531.63,170.04 531.38,167.14 530.17,165.47 532.34,165.09 530.82,163.42 530.56,160.52 529.35,158.85 529.68,157.62 531.86,156.83 532.46,157.66 532.11,160.55 534.27,160.17 533.08,157.67 536.83,155.26 538.33,157.76 539.27,156.95 539.88,157.38 539.86,158.61 541.39,159.47 541.98,161.13 544.16,159.93 543.26,158.26 541.71,158.65 541.12,157.4 542.96,157.84 543.28,157.02 542.39,155.35 543.33,154.13 542.43,152.46 542.79,149.58 539.13,147.04 537.65,143.3 536.71,143.7 534.88,142.43 533.93,144.06 532.72,142.8 531.48,143.2 531.76,144.44 530.21,144.83 531.07,148.56 529.53,148.53 529.24,147.7 527.09,146.84 524.61,147.21 520.34,144.24 521.92,142.21 524.08,142.66 524.41,141.42 523.84,138.52 520.52,133.92 518.93,136.79 519.54,137.21 520.48,136.4 519.82,138.87 516.46,137.15 515.49,139.2 516.97,142.94 515.73,143.34 514.22,141.24 512.99,141.22 512.97,142.05 514.5,142.9 514.15,145.37 515.36,146.63 513.78,148.67 511.92,149.05 511.02,147.79 511.36,146.15 512.6,145.76 512.3,144.93 508.6,144.86 505.85,143.57 506.79,142.35 506.19,141.51 504.95,141.9 504.05,140.65 501.26,141.01 500.66,140.17 501,138.53 501.93,138.13 500.74,135.63 502.89,136.09 502.91,135.26 501.67,135.24 500.47,133.57 500.13,135.21 498.26,136.42 497.65,135.99 500.52,131.09 499.61,130.25 500.24,129.43 498.09,128.98 498.11,127.74 499.04,127.35 498.44,126.51 502.16,125.75 502.48,124.93 501.28,122.84 502.85,121.63 502.26,119.97 501.33,120.37 499.82,118.69 499.85,117.04 497.12,114.1 496.27,110.37 496.9,109.55 496.64,107.07 494.83,104.97 495.76,104.58 495.5,101.68 494.58,101.66 493.69,99.58 494.31,99.59 494.36,96.7 494.99,96.3 494.77,91.34 495.43,88.88 500.43,84.84 501.51,76.6 502.45,75.38 505.77,79.16 513.72,82.6 516.9,76.88 532.95,74.68 532.72,70.55 533.35,69.73 534.58,69.34 535.22,68.11 538.31,67.34 543.65,60.82 550.83,54.75 554.85,53.57 556.75,50.71 562.65,47.09 563.92,44.64 563.66,41.74 564.3,40.1 568.05,36.03 568.39,33.97 566.02,28.56 569.48,23.25 570.14,20.78 570.67,26.16 571.9,26.18 573.41,27.86 575.78,33.26 574.82,36.14 576.31,39.05 578.15,39.49 580.95,37.06 582.78,38.32 586.55,32.6 596.76,28.62 603.48,31.2 605.3,32.88 605.56,36.18 606.78,37.44 609.84,38.31 609.51,39.54 610.7,42.45 609.43,45.32 609.34,51.93 610.8,57.32 612.94,57.76 613.53,59.83 616.29,60.7 619,64.87 623.35,61.62 625.82,61.24 628.31,59.21 630.81,56.36 629.92,54.28 633.03,51.84 638.83,54.81 640.08,53.18 646.26,51.61 648.39,52.87 651.17,52.08 655.47,52.96 658.21,55.47 661.9,55.11 662.22,54.29 660.11,50.54 660.16,47.24 662.63,46.45 666.04,43.6 670.97,42.83 672.84,40.79 673.77,40.8 674.01,46.17 675.19,50.31 676.7,52.4 677.28,55.29 680.92,60.29 679.98,61.93 676.58,62.72 675.31,66.42 683.51,76.01 682.87,77.65 684.1,78.08 687.74,82.67 691.74,83.12 692.67,82.31 694.82,83.16 695.07,88.12 696.91,88.55 698.74,91.05 701.79,93.14 701.78,94.38 703.31,95.64 703.6,97.29 705.72,100.21 707.26,100.22 709.76,96.95 710.99,97.37 713.46,96.57 715.95,94.95 718.39,97.04 720.23,97.47 725.1,104.12 723.78,112.37 722.53,114.42 724.34,118.15 728.04,117.78 729.27,119.03 730.15,123.58 733.5,127.33 736.27,127.77 741.48,131.53 743.95,131.55 747.32,134.06 746.99,136.12 750.36,139.04 746.6,145.2 745.32,149.73 743.78,150.13 743.76,152.19 746.5,155.94 748.04,156.77 747.41,157.59 749.56,159.27 750.8,158.45 753.57,160.13 751.34,167.13 752.56,168.38 753.82,166.32 756.92,164.7 757.52,167.18 759.67,168.03 760.91,167.62 762.14,168.87 765.54,168.49 766.46,169.32 768.95,166.87 768.05,163.56 767.13,162.72 767.76,161.49 769,161.5 770.25,159.03 773.34,159.06 773.97,157.41 775.52,157.01 776.46,155.37 781.42,152.52 780.43,160.77 781.65,162.84 783.8,164.1 786.22,170.72 791.75,174.89 792.35,176.55 799.43,180.73 799.72,182.8 798.16,185.67 794.73,189.36 795.33,192.26 798.72,193.93 799.34,193.11 802.09,197.26 803.33,197.68 805.81,196.88 807.31,202.67 805.76,203.89 808.83,206.8 809.43,209.7 811.26,212.6 813.12,212.61 814.66,213.86 818.07,213.06 820.85,214.32 820.21,217.2 818.96,218.43 819.27,219.26 816.15,221.72 814.58,225.42 816.12,226.67 816.4,231.21 813.6,233.26 814.83,234.09 817.94,232.87 821.02,235.37 823.82,233.74 825.97,234.99 827.49,239.95 826.24,241.59 829.58,252.35 828.01,256.05 825.52,258.51 828.6,261.01 829.21,263.08 830.76,262.68 831.37,263.5 832.62,263.1 835.09,264.35 835.08,266.42 838.46,271.39 845.88,274.32 848.04,276.81 850.52,276.82 853.29,280.14 855.15,280.56 855.76,282.63 859.78,285.13 862.26,286.38 865.05,285.57 870.01,287.66 870.31,289.31 871.86,290.55 872.18,288.49 877.76,288.1 879.62,288.94 882.42,286.47 886.15,285.66 892.01,293.53 894.51,289.82 899.79,288.19 902.26,291.09 901.33,292.33 902.54,298.93 900.67,302.23 902.21,305.54 907.17,308.03 911.81,313.82 914.29,313.83 917.39,316.73 920.8,316.74 920.5,313.85 923.93,309.32 929.83,309.34 930.14,308.51 931.7,308.1 934.49,309.35 935.11,308.94 934.81,305.63 937.92,301.51 941.02,303.58 945.99,304.42 947.22,306.9 951.88,306.49 953.74,307.32 954.98,306.5 957.78,306.92 959.64,305.27 962.75,305.69 964.6,311.47 967.7,313.53 970.5,313.54 970.49,318.9 977.95,321.39 979.81,319.74 981.67,321.39 986.64,321.8 988.2,322.63 990.37,318.92 991.62,314.38 995.96,311.9 996.9,308.6 999.69,307.36 1002.17,307.77 1004.35,309.43 1009,310.25 1011.49,307.77 1017.08,309.42 1019.87,309.01 1022.35,304.05 1024.52,302.81 1026.38,299.09 1025.76,297.86 1028.24,293.73 1026.37,288.77 1027.3,284.65 1026.99,283.41 1023.57,281.35 1022.95,280.11 1021.4,280.11 1022.33,278.46 1023.57,278.46 1024.19,275.57 1028.22,275.15 1035.96,269.36 1039.38,269.77 1044.33,268.53 1045.88,266.46 1046.19,265.63 1042.46,261.92 1039.97,254.09 1041.21,252.84 1041.52,250.78 1043.99,249.95 1045.55,251.6 1049.27,253.24 1052.67,252 1053.59,247.46 1056.38,244.98 1057.3,241.67 1054.51,239.61 1055.43,238.79 1055.74,236.72 1054.81,235.9 1057.28,232.59 1056.34,227.23 1060.66,219.79 1066.84,217.71 1073.32,210.67 1075.18,209.84 1075.17,209.02 1072.07,206.14 1075.45,195.81 1079.15,193.32 1092.44,192.87 1098,189.13 1106.95,187.45 1118.08,187.4 1124.56,185.31 1133.2,180.73 1135.65,177.41 1135.64,175.35 1143.01,167.05 1145.48,165.8 1152.27,165.77 1163.06,160.75 1164.89,158.26 1171.66,154.51 1174.73,151.6 1177.48,147.04 1179.02,146.61 1182.69,141.22 1184.2,136.26 1183.57,135.02 1184.78,130.06 1186.91,125.92 1189.05,123.84 1189.65,121.77 1195.16,115.54 1196.07,113.06 1201.58,107.65 1201.57,106.41 1206.43,97.71 1212.86,92.29 1222,79.42 1226.28,75.25 1225.33,72.78 1226.53,68.65 1226.21,67.41 1229.28,66.56 1233.23,60.74 1232.29,58.28 1235.31,52.06 1237.14,50.39 1238.69,51.2 1255.43,65.09 1274.13,88.44 1284.13,101.96 1290.72,113.04 1307.61,135.15 1317.62,146.6 1321.39,152.33 1343.35,179.73 1361.6,204.68 1381.84,236.6 1386.57,242.32 1403.48,275.93 1407.73,290.31 1413.23,326.56 1417.77,338.46 1417.49,340.94 1420.16,352.87 1432.18,385.3 1436.33,392.25 1440.14,396.73 1461.34,416.2 1464.21,419.87 1468.73,428.87 1475.69,434.53 1481.35,437.32 1495.73,456.06 1506.73,460.4 1520.52,462.62 1523.35,463.81 1530.95,469.44 1541.55,484.1 1537.96,492.42 1535.48,493.71 1535.15,492.89 1536.4,492.45 1540.61,484.12 1532.97,476.83 1534.12,487.96 1529.9,495.88 1529.13,504.98 1529.32,514.88 1531.64,521.85 1532.38,527.62 1537.28,538.25 1540.83,543.55 1542.74,545.17 1552.22,549.52 1558.53,551.46 1559.44,550.2 1560.38,550.18 1560.72,551.41 1564.81,552.16 1564.83,552.98 1569.85,553.29 1576.09,551.93 1579.55,552.68 1583.72,557.13 1583.75,558.78 1586.37,564.09 1589.88,566.91 1600.26,568.34 1607.15,568.19 1613.08,566.82 1617.18,567.97 1621,570.77 1623.21,571.14 1638.53,569.14 1654.13,565.89 1672.79,559.66 1679.97,558.25 1681.92,561.09 1685.39,561.83 1699.74,559 1700.34,558.16 1703.16,558.09 1703.76,556.83 1705.03,557.63 1704.77,559.7 1703.55,560.97 1703.95,564.26 1705.26,566.7 1709.77,571.54 1711.47,576.45 1716.31,581.7 1717.89,582.07 1720.18,585.73 1723.66,586.87 1725.84,586.4 1741.68,591.77 1743.87,591.71 1753.05,594.35 1754.92,593.89 1759.18,600.38 1758.93,602.86 1759.94,605.31 1760.57,605.29 1762.25,609.38 1766.74,612.97 1767.14,615.85 1774.4,617.3 1771.93,618.61 1773.95,623.5 1776.19,625.09 1777.76,625.05 1779.06,626.67 1784.12,627.76 1784.8,629.39 1789.96,634.2 1791.85,634.15 1796.14,630.31 1795.13,627.86 1795.38,625.79 1790.13,617.68 1790.09,616.45 1786.18,611.6 1786.79,610.76 1785.8,609.14 1782.87,605.5 1779.7,604.35 1781.58,604.3 1782.17,603.05 1784.36,602.57 1787.09,599.19 1788.98,599.55 1789.96,600.76 1791.2,600.31 1793.24,605.62 1794.2,606.42 1794.26,608.48 1792.79,611.83 1795.1,615.89 1794.18,616.74 1794.22,617.98 1794.91,620.03 1798.09,621.59 1799.45,625.26 1799.5,626.91 1797.05,629.05 1797.41,630.69 1796.8,631.53 1797.79,633.15 1796.9,634.83 1795.86,631.56 1795.23,631.58 1791.55,634.57 1791.29,636.64 1792.92,638.66 1793.03,642.37 1797.25,647.21 1799.29,652.52 1798.47,656.67 1799.12,668.62 1798.88,671.11 1797.96,671.96 1798.11,677.32 1801.53,686.72 1800.77,693.35 1801.16,695.81 1802.47,697.43 1801.57,699.1 1801.93,700.75 1802.88,700.72 1803.35,706.07 1802.72,706.09 1799.94,697.09 1799.39,688.85 1796.28,679.44 1790.43,673 1782.73,667.85 1780.2,667.51 1769.34,661.61 1762.98,659.31 1754.73,656.65 1741.8,655.34 1740.82,654.13 1738.6,653.36 1727.84,650.75 1723.11,650.46 1713.11,653.2 1711.91,655.29 1711.68,658.6 1710.75,659.04 1710.39,657.4 1708.81,657.02 1707.28,658.71 1706.33,658.74 1705.98,657.1 1701.53,655.56 1694.67,657.79 1688.78,661.24 1687.28,664.17 1685.71,664.62 1685.99,666.68 1684.76,664.23 1682.56,664.28 1675.9,662.38 1671.87,664.54 1671.47,661.25 1670.52,660.86 1666.93,655.58 1662.18,654.04 1660.56,652.01 1658.68,652.47 1655.19,651.31 1654.22,650.1 1644.77,649.49 1641.96,650.38 1641.68,651.63 1639.77,650.85 1636.66,652.16 1634.2,654.69 1634.01,660.06 1635.29,661.27 1636.53,660.41 1637.5,661.63 1641.29,661.96 1635.98,663.73 1635.38,664.98 1636.33,665.37 1636.35,666.2 1634.08,676.98 1632.19,677.03 1629.62,675.02 1629.99,677.08 1632.23,679.09 1626.59,680.04 1625.94,679.23 1620.9,678.93 1615.27,680.71 1607.18,685.01 1598.53,692.63 1597.2,689.77 1595.3,688.98 1588.41,690.78 1584.37,693.34 1584.82,699.93 1583.52,697.9 1576.68,702.17 1578.29,704.2 1581.78,705.36 1572.91,702.66 1571.02,702.7 1570.09,703.54 1571.08,705.58 1572.34,705.56 1573.65,708.42 1572.1,709.28 1573.41,711.73 1571.84,712.17 1570.84,709.3 1567.41,711.44 1562.68,711.12 1560.49,711.99 1558.26,710.8 1550.53,718.38 1539.25,721.9 1533.03,726.15 1527.76,731.2 1525.23,730.83 1522.13,733.37 1520.62,737.11 1521.14,747.83 1523.14,753.99 1527.35,759.69 1522.94,760.18 1522.64,761.01 1524.61,764.69 1522.01,761.03 1517.27,760.7 1516.99,762.77 1506.7,769.56 1504.25,774.15 1504.31,777.04 1506.33,784.02 1512.2,794.23 1519.94,802.34 1524.42,805.56 1525.42,808.02 1523.58,811.35 1519.5,813.08 1515.81,818.93 1514.55,818.95 1514.5,816.48 1513.56,816.49 1513.59,818.14 1512.32,818.17 1511.72,819.83 1506.7,822.4 1503.33,828.23 1503.1,833.19 1505.51,843.88 1509.87,857.42 1512.82,862.74 1510.04,866.91 1507.19,866.96 1504.05,868.67 1503.13,870.34 1502.89,874.47 1502.2,871.59 1501.39,879.04 1497.11,888.2 1495.63,894.41 1496.06,900.6 1498.74,908.8 1498.45,910.05 1504.42,924.8 1508.34,930.92 1495.72,935.28 1489.75,939.09 1481.35,949.56 1476.73,958.3 1471.38,980.68 1463.18,1004.35 1463.25,1008.89 1464.96,1015.88 1472.89,1032.67 1471.93,1032.68 1467.67,1025.74 1462.92,1008.07 1462.41,1015.5 1464.45,1023.31 1470.99,1033.53 1476.51,1039.62 1478.44,1040.42 1482.66,1044.89 1483,1046.12 1481.72,1046.14 1480.74,1044.51 1475.34,1046.25 1473.49,1049.58 1476.08,1052.02 1475.45,1052.44 1476.44,1054.49 1481.62,1058.94 1483.26,1061.39 1485.83,1062.58 1485.56,1065.48 1490.26,1060.44 1489.85,1055.5 1490.15,1054.25 1491.41,1053.4 1493.39,1057.09 1496.63,1059.92 1495.67,1059.93 1495.38,1061.59 1497.6,1060.73 1501.78,1062.3 1503.72,1063.92 1499.36,1070.19 1499.49,1077.62 1505.79,1090.3 1516.58,1104.56 1515.01,1105.82 1514.99,1104.59 1510.46,1101.78 1508.54,1101.4 1506.9,1098.95 1501.1,1096.17 1496.3,1095.84 1495.31,1094.2 1494.03,1093.81 1493.99,1091.75 1490.5,1092.64 1488.25,1091.85 1486.98,1092.28 1486.64,1091.05 1485.35,1090.66 1484.69,1089.43 1484.23,1081.18 1480.35,1077.95 1475.84,1075.55 1466.55,1073.64 1461.46,1074.96 1457.67,1077.5 1455.79,1079.59 1452.66,1103.58 1451.92,1117.22 1452.57,1117.62 1451.36,1122.18 1451.06,1143.24 1449.4,1159.78 1447.27,1166.83 1445.36,1167.68 1444.12,1170.59 1442.22,1171.86 1441.26,1171.46 1442.16,1168.15 1444.37,1165.63 1444.51,1154.49 1442.85,1150.38 1442.48,1147.09 1437.25,1140.15 1435.66,1141 1437.03,1146.76 1434.82,1148.86 1436.81,1153.37 1433.28,1152.6 1429.52,1158.02 1429.92,1163.38 1427.33,1160.94 1427.15,1149.39 1425.9,1151.06 1425.02,1156.85 1425.47,1165.1 1429.62,1164.62 1430.93,1166.67 1425.51,1167.99 1424.2,1165.94 1422.62,1167.62 1419.75,1168.07 1417.17,1166.87 1417.15,1165.63 1420.35,1165.17 1422.87,1162.66 1422.51,1160.19 1421.54,1159.38 1419.63,1160.23 1419.34,1162.3 1414.9,1165.25 1411.4,1166.54 1410.1,1164.91 1411.03,1163.25 1409.38,1159.55 1412.83,1154.55 1415.6,1147.49 1412.07,1146.31 1410.84,1149.63 1409.97,1156.24 1408.68,1155.44 1406.81,1158.77 1403.91,1157.57 1402.9,1154.28 1403.78,1148.49 1405.05,1148.06 1406.35,1149.28 1407.29,1148.03 1405.94,1142.68 1407.52,1141.83 1412.87,1135.56 1417.64,1133.43 1424.24,1125.49 1419.1,1123.91 1410.77,1123.21 1401.87,1126.64 1397.12,1130.01 1392.66,1130.9 1389.75,1128.87 1389.64,1121.03 1380.17,1106.3 1376.65,1105.52 1367.73,1107.29 1366.49,1110.19 1368.13,1113.89 1371.38,1117.97 1371.09,1120.04 1370.15,1121.29 1366.95,1121.33 1366.67,1124.64 1364.78,1126.31 1355.21,1128.5 1350.45,1131.45 1347.63,1136.02 1343.14,1134.84 1336.14,1138.22 1334.28,1142.79 1335.26,1145.25 1338.8,1146.86 1341.03,1145.6 1344.23,1145.56 1346.49,1147.59 1350.63,1145.89 1350.35,1149.2 1349.09,1150.45 1349.74,1151.27 1351.33,1150.84 1353.54,1148.75 1353.82,1145.03 1356.03,1142.52 1369.68,1134.92 1380.86,1133.95 1384.4,1135.55 1383.83,1140.51 1374,1146.83 1362.86,1151.93 1359.09,1156.93 1355.71,1168.53 1353.08,1188.79 1349.04,1198.75 1352.57,1199.53 1357.43,1203.19 1359.53,1217.19 1359.68,1229.58 1357.17,1234.15 1358.13,1233.72 1358.15,1234.96 1356.56,1236.63 1354.47,1249.04 1349.5,1262.73 1337.16,1278.98 1333.96,1280.25 1336.2,1279.4 1339.36,1274.82 1335.86,1277.34 1327.53,1279.5 1324.68,1284.08 1323.77,1288.21 1323.11,1286.57 1323.7,1282.44 1323.04,1280.79 1325.24,1276.23 1327.17,1276.2 1333.23,1272.83 1335.76,1269.09 1338.32,1268.23 1342.13,1264.47 1340.2,1263.67 1339.21,1261.61 1332.78,1261.28 1331.8,1260.05 1336.62,1260.41 1339.82,1259.54 1342.37,1257.86 1345.86,1254.1 1351.83,1243.3 1349.18,1236.72 1350.43,1233.41 1348.44,1228.48 1349.03,1223.93 1342.65,1227.72 1341.36,1226.5 1339.13,1227.76 1334.37,1232.77 1330.92,1239.42 1324.9,1246.51 1321.79,1255.62 1319.55,1256.06 1318.94,1259.37 1319.63,1263.08 1320.93,1264.72 1322.45,1256.85 1323.1,1257.26 1321.9,1265.12 1318.09,1269.7 1318.12,1272.18 1318.46,1273.82 1319.74,1273.4 1322.02,1275.44 1321.06,1275.86 1319.49,1279.18 1321.17,1286.18 1322.46,1286.58 1324.1,1289.04 1323.52,1294.82 1325.21,1302.23 1331.51,1317.85 1333.14,1320.31 1336.39,1322.75 1337.71,1325.62 1336.51,1333.07 1339.9,1373.9 1339.62,1405.28 1341.74,1420.12 1340.82,1424.26 1340.94,1434.99 1343.1,1452.72" fill="none" stroke="#1e1e1e" stroke-width="1.53" stroke-linecap="round" stroke-linejoin="round"/>
<path d="M1686.38,668.55L1687.83,674.06L1689.11,674.85L1692.56,674.36L1692.59,675.59L1690.38,675.24L1689.14,676.09L1688.49,675.28L1682.18,674.61L1682.16,673.79L1687.52,674.07L1686.38,668.55Z" fill-rule="evenodd" fill="#4682b4" fill-opacity="0.471"/>
<polyline points="1686.38,668.55 1687.83,674.06 1689.11,674.85 1692.56,674.36 1692.59,675.59 1690.38,675.24 1689.14,676.09 1688.49,675.28 1682.18,674.61 1682.16,673.79 1687.52,674.07 1686.38,668.55" fill="none" stroke="#1e1e1e" stroke-width="1.53" stroke-linecap="round" stroke-linejoin="round"/>
<path d="M1679.56,683.34L1680.49,682.91L1680.21,684.15L1679.56,683.34Z" fill-rule="evenodd" fill="#4682b4" fill-opacity="0.471"/>
<polyline points="1679.56,683.34 1680.49,682.91 1680.21,684.15 1679.56,683.34" fill="none" stroke="#1e1e1e" stroke-width="1.53" stroke-linecap="round" stroke-linejoin="round"/>
<path d="M1655.29,682.27L1657.45,680.57L1660.33,682.15L1662.19,681.28L1666.28,681.19L1666.3,682.01L1662.25,683.76L1660.34,682.98L1656.57,683.07L1655.29,682.27Z" fill-rule="evenodd" fill="#4682b4" fill-opacity="0.471"/>
<polyline points="1655.29,682.27 1657.45,680.57 1660.33,682.15 1662.19,681.28 1666.28,681.19 1666.3,682.01 1662.25,683.76 1660.34,682.98 1656.57,683.07 1655.29,682.27" fill="none" stroke="#1e1e1e" stroke-width="1.53" stroke-linecap="round" stroke-linejoin="round"/>
<path d="M1572.8,805.44L1575.27,802.91L1577.53,804.93L1578.48,804.91L1578.84,806.97L1580.13,808.18L1579.24,811.09L1572.6,811.22L1573.51,809.55L1572.8,805.44Z" fill-rule="evenodd" fill="#4682b4" fill-opacity="0.471"/>
<polyline points="1572.8,805.44 1575.27,802.91 1577.53,804.93 1578.48,804.91 1578.84,806.97 1580.13,808.18 1579.24,811.09 1572.6,811.22 1573.51,809.55 1572.8,805.44" fill="none" stroke="#1e1e1e" stroke-width="1.53" stroke-linecap="round" stroke-linejoin="round"/>
<path d="M1556.08,791.33L1557.31,789.65L1557.27,787.59L1558.52,787.15L1559.82,788.78L1559.53,790.02L1557.62,789.65L1556.08,791.33Z" fill-rule="evenodd" fill="#4682b4" fill-opacity="0.471"/>
<polyline points="1556.08,791.33 1557.31,789.65 1557.27,787.59 1558.52,787.15 1559.82,788.78 1559.53,790.02 1557.62,789.65 1556.08,791.33" fill="none" stroke="#1e1e1e" stroke-width="1.53" stroke-linecap="round" stroke-linejoin="round"/>
<path d="M1560.58,906.82L1560.6,907.64L1559.66,908.07L1557.75,908.11L1557.72,906.46L1558.66,905.62L1560.58,906.82Z" fill-rule="evenodd" fill="#4682b4" fill-opacity="0.471"/>
<polyline points="1560.58,906.82 1560.6,907.64 1559.66,908.07 1557.75,908.11 1557.72,906.46 1558.66,905.62 1560.58,906.82" fill="none" stroke="#1e1e1e" stroke-width="1.53" stroke-linecap="round" stroke-linejoin="round"/>
<path d="M1542.53,875.8L1541.92,876.64L1540.95,875.83L1541.22,873.35L1542.15,872.5L1543.44,873.72L1543.47,874.96L1542.53,875.8Z" fill-rule="evenodd" fill="#4682b4" fill-opacity="0.471"/>
<polyline points="1542.53,875.8 1541.92,876.64 1540.95,875.83 1541.22,873.35 1542.15,872.5 1543.44,873.72 1543.47,874.96 1542.53,875.8" fill="none" stroke="#1e1e1e" stroke-width="1.53" stroke-linecap="round" stroke-linejoin="round"/>
<path d="M1512.25,831.38L1519.19,830.42L1514.78,831.74L1512.25,831.38Z" fill-rule="evenodd" fill="#4682b4" fill-opacity="0.471"/>
<polyline points="1512.25,831.38 1519.19,830.42 1514.78,831.74 1512.25,831.38" fill="none" stroke="#1e1e1e" stroke-width="1.53" stroke-linecap="round" stroke-linejoin="round"/>
<path d="M1522.01,829.13L1524.51,827.43L1525.43,825.77L1527.68,827.38L1527.08,829.04L1525.82,829.47L1524.22,828.68L1522.01,829.13Z" fill-rule="evenodd" fill="#4682b4" fill-opacity="0.471"/>
<polyline points="1522.01,829.13 1524.51,827.43 1525.43,825.77 1527.68,827.38 1527.08,829.04 1525.82,829.47 1524.22,828.68 1522.01,829.13" fill="none" stroke="#1e1e1e" stroke-width="1.53" stroke-linecap="round" stroke-linejoin="round"/>
<path d="M1514.51,955.58L1513.25,956.01L1513.54,954.77L1514.49,954.34L1514.51,955.58Z" fill-rule="evenodd" fill="#4682b4" fill-opacity="0.471"/>
<polyline points="1514.51,955.58 1513.25,956.01 1513.54,954.77 1514.49,954.34 1514.51,955.58" fill="none" stroke="#1e1e1e" stroke-width="1.53" stroke-linecap="round" stroke-linejoin="round"/>
<path d="M1509.24,874.94L1510.21,876.4L1509.26,876.01L1509.24,874.94Z" fill-rule="evenodd" fill="#4682b4" fill-opacity="0.471"/>
<polyline points="1509.24,874.94 1510.21,876.4 1509.26,876.01 1509.24,874.94" fill="none" stroke="#1e1e1e" stroke-width="1.53" stroke-linecap="round" stroke-linejoin="round"/>
<path d="M1487.58,1053.06L1487.24,1051.83L1487.87,1051.4L1489.49,1053.02L1487.58,1053.06Z" fill-rule="evenodd" fill="#4682b4" fill-opacity="0.471"/>
<polyline points="1487.58,1053.06 1487.24,1051.83 1487.87,1051.4 1489.49,1053.02 1487.58,1053.06" fill="none" stroke="#1e1e1e" stroke-width="1.53" stroke-linecap="round" stroke-linejoin="round"/>
<path d="M1484.38,1052.7L1483.41,1051.48L1483.36,1049L1483.98,1047.75L1484.94,1047.74L1486.23,1048.95L1486.29,1052.25L1484.38,1052.7Z" fill-rule="evenodd" fill="#4682b4" fill-opacity="0.471"/>
<polyline points="1484.38,1052.7 1483.41,1051.48 1483.36,1049 1483.98,1047.75 1484.94,1047.74 1486.23,1048.95 1486.29,1052.25 1484.38,1052.7" fill="none" stroke="#1e1e1e" stroke-width="1.53" stroke-linecap="round" stroke-linejoin="round"/>
<path d="M1423.1,1221.28L1432.52,1207.51L1431.87,1207.11L1427.72,1208.82L1425.78,1207.2L1426.73,1206.36L1432.82,1206.68L1434.11,1207.07L1436.15,1214.47L1436.21,1218.19L1435,1223.16L1428.13,1235.65L1417.68,1245.71L1413.21,1247.43L1410.94,1245.4L1412.85,1244.54L1415.42,1244.92L1420.53,1242.78L1421.47,1241.11L1421.13,1240.29L1424.31,1238.18L1426.5,1234.43L1430.94,1230.65L1434.04,1223.59L1425.2,1232.8L1418.51,1236.62L1416.27,1237.06L1412.14,1240.01L1406.34,1238.44L1407.85,1231.82L1413.88,1226.78L1417.71,1225.48L1420.55,1222.55L1423.1,1221.28Z" fill-rule="evenodd" fill="#4682b4" fill-opacity="0.471"/>
<polyline points="1423.1,1221.28 1432.52,1207.51 1431.87,1207.11 1427.72,1208.82 1425.78,1207.2 1426.73,1206.36 1432.82,1206.68 1434.11,1207.07 1436.15,1214.47 1436.21,1218.19 1435,1223.16 1428.13,1235.65 1417.68,1245.71 1413.21,1247.43 1410.94,1245.4 1412.85,1244.54 1415.42,1244.92 1420.53,1242.78 1421.47,1241.11 1421.13,1240.29 1424.31,1238.18 1426.5,1234.43 1430.94,1230.65 1434.04,1223.59 1425.2,1232.8 1418.51,1236.62 1416.27,1237.06 1412.14,1240.01 1406.34,1238.44 1407.85,1231.82 1413.88,1226.78 1417.71,1225.48 1420.55,1222.55 1423.1,1221.28" fill="none" stroke="#1e1e1e" stroke-width="1.53" stroke-linecap="round" stroke-linejoin="round"/>
<path d="M29.69,913.03L32.6,911.48L52.15,906.36L55.01,906.46L58.23,904.91L60.12,905.39L65.54,904.75L68.86,900.31L73.84,903.37L75.25,908.78L76.87,908.01L79.05,909.32L86.33,909.97L93.73,906.9L98.94,902.94L107.26,900.73L107.01,898.66L108.7,895.41L110.01,894.21L115.11,893.55L117.06,891.95L118.14,887.86L120.08,886.68L120.78,884.64L124.95,883.12L125.85,884.8L131.51,886.62L131.79,887.87L137.39,891.35L139.81,895.14L143.54,897.73L144.69,901.89L147.77,904.87L147.04,908.16L148.27,909.43L148.5,912.33L150.95,915.29L151.19,917.78L157.98,924.59L158.83,927.92L161.66,928.83L162.9,930.1L163.46,932.59L159.54,936.19L158.85,937.83L159.34,942.79L162.8,944.14L162.77,944.96L158.72,953.1L158.86,958.88L158.2,959.69L160.02,962.63L157.97,967.53L162.04,969.71L170.56,972.03L174.12,970.07L174.95,963.49L180.46,959.93L189.36,960.19L195.1,959.53L200.48,960.5L201.05,963L199.06,965.83L198.95,969.54L197.97,970.76L197.92,972.41L200.69,975.79L201.5,980.76L207.18,982.58L211.2,986.82L211.12,989.7L212.69,990.57L224.46,990.9L226.33,992.19L229.5,992.69L232.91,996.08L234.82,996.14L237.96,997.87L240.51,997.94L243.76,1007.11L249.85,1006.04L252.23,1012.29L255.24,1007L258.51,1003.79L262.07,1001.4L264.95,1001.06L266.25,999.86L266.61,998.22L270.15,997.07L272.15,993.41L272.53,990.94L273.51,990.14L277.67,989.42L279.53,991.12L281.14,990.33L286.47,980.97L290.63,980.25L293.8,980.74L296.31,982.05L297.54,983.73L300.73,983.39L301.09,981.75L304.61,981.01L311.42,975.81L317.82,974.32L318.52,971.86L321.75,969.87L323.72,967.03L330.05,968.42L331.66,967.63L332.59,968.48L333.88,968.09L334.82,968.53L336.64,972.29L341.43,971.57L343.27,974.51L349.94,975.07L351.19,975.93L350.81,978.81L352.33,981.73L353.59,982.18L354.57,981.37L356.79,981.42L358,984.34L358.94,984.77L358.84,989.31L361.89,995.16L361.81,998.88L363.06,999.73L362.63,1004.67L364.77,1008.85L362.44,1013.34L360.82,1014.54L360.75,1017.43L364.17,1021.22L368.25,1024.2L369.14,1027.11L368.79,1028.34L365.24,1030.33L363.54,1035.24L361.6,1036.44L360.89,1039.72L357.04,1040.46L356.3,1044.99L354.98,1047.02L355.24,1049.5L353.86,1054.01L353.78,1057.73L352.17,1058.1L351.82,1059.75L352.98,1064.73L358.33,1068.15L360.89,1067.8L361.51,1068.64L365.97,1069.15L367.22,1070L370.11,1069.24L374.56,1070.17L384.31,1076.98L384.27,1078.63L385.83,1080.73L388.04,1081.61L389.33,1081.22L390.28,1081.65L391.19,1083.74L393.1,1084.19L394.35,1085.46L396.58,1085.5L399.09,1087.62L399.05,1089.68L399.98,1090.94L409.13,1096.09L413.29,1096.18L415.49,1097.87L417.72,1097.92L419.54,1102.91L418.55,1104.54L419.66,1112.41L413.81,1117.24L414.9,1126.35L413.85,1130.86L414.07,1135.41L417.15,1141.25L417.41,1144.15L419.24,1148.73L419.5,1151.62L418.52,1152.84L418.43,1156.97L418.74,1157.8L423.18,1159.54L425.32,1164.54L424.6,1168.65L422.31,1171.08L423.23,1172.75L422.89,1173.98L425.41,1176.1L426.61,1180.25L432.29,1184.49L437.38,1186.25L438.67,1185.86L439.47,1194.13L440.72,1195.81L440.26,1202.82L440.83,1206.54L444.65,1208.27L448.41,1212.47L448.51,1224.03L451.3,1229.04L451.46,1237.3L450.79,1238.94L454.29,1240.66L454.55,1243.97L456.12,1245.65L455.43,1248.11L455.98,1253.08L459.76,1256.87L463.14,1265.19L461.09,1271.34L460.67,1276.7L461.89,1280.44L461.54,1281.67L459.9,1283.29L458.31,1282.44L456.38,1282.81L455.77,1280.74L450.37,1277.33L450.74,1274.86L440.51,1272.18L437.67,1269.24L436.46,1265.5L435.18,1265.06L433.9,1265.03L432.58,1266.66L431.55,1269.94L428.3,1271.53L425.76,1270.24L424.15,1270.21L422.84,1271.42L421.25,1270.56L416.74,1271.29L414.83,1270.02L410.99,1269.52L408.12,1268.23L404.66,1264.85L404.36,1263.61L403.41,1263.17L400.82,1263.95L397.35,1260.57L392.44,1265.01L391.41,1268.29L390.44,1268.27L388.47,1270.29L386.56,1269.42L385.59,1269.82L384.02,1268.13L380.8,1268.47L379.58,1265.14L375.13,1262.98L372.87,1263.35L370.03,1261.22L371.37,1258.77L366.64,1254.54L364.71,1254.49L361.44,1257.31L359.5,1257.68L355.68,1256.36L354.73,1255.51L354.46,1253.44L352.23,1252.56L351.25,1252.95L351.34,1249.24L350.4,1247.98L346.18,1249.95L346.53,1248.72L345.28,1247.45L343.64,1248.65L337.61,1245.62L330.85,1246.29L324.51,1242.84L322.35,1239.07L318.5,1238.98L317.9,1236.9L316.63,1236.45L312.42,1238L311.15,1237.15L308.89,1237.92L306.69,1235.8L301.88,1235.68L301.18,1238.14L298.94,1237.68L292.8,1239.18L292.14,1239.99L291.52,1239.14L292.19,1237.92L291.65,1233.78L291.03,1232.94L290.37,1233.75L289.41,1233.31L287.54,1231.2L285.61,1231.15L282.46,1229.01L281.62,1224.03L277.1,1225.16L276.38,1228.03L273.81,1228.38L272.16,1229.99L271.2,1229.96L267.05,1229.03L266.13,1227.35L262.62,1226.44L262.32,1225.6L254.73,1221.28L253.11,1221.65L251.23,1219.95L248.34,1220.28L246.46,1218.58L241.01,1218.02L235.71,1212.51L236.08,1210.46L235.47,1209.21L239.83,1202.3L239.95,1197.76L241.93,1195.75L242,1192.86L241.08,1191.6L239.15,1191.55L236.55,1193.13L235.93,1192.29L234.65,1192.25L233.45,1188.92L229.96,1187.59L228.73,1185.9L225.26,1183.74L224.4,1180L225.15,1175.89L219.56,1169.55L214.82,1166.94L212.7,1162.75L210.49,1161.45L209.93,1158.54L212.25,1155.72L213.34,1151.21L209.41,1142.84L204.58,1143.53L202.68,1143.06L197.51,1144.57L194.63,1144.49L194.68,1142.84L201.52,1138.49L202.54,1136.45L200.1,1132.26L195.69,1129.65L194.08,1130.02L193.32,1134.54L189.08,1137.31L184.95,1135.96L176.96,1135.72L173.54,1132.32L171.62,1132.27L167.32,1125.95L163.11,1127.89L161.52,1127.43L161.29,1124.53L158.77,1123.22L157.24,1120.69L153.43,1119.75L151.75,1122.6L149.47,1123.77L146.95,1122.45L145.51,1117.04L146.93,1112.54L145.19,1106.71L146.23,1103.85L145.95,1102.6L142.49,1100.84L141.88,1099.59L144.59,1094.71L143.99,1093.46L140.83,1092.12L137.6,1093.26L136.66,1092.82L137.01,1091.59L138.94,1091.24L140.27,1089.63L140.34,1087.15L139.44,1085.47L134.06,1083.66L133.52,1080.34L132.31,1078.24L132.13,1073.69L127.93,1075.21L125.12,1073.06L127.14,1069.82L127.57,1066.12L123.22,1062.27L118.17,1060.46L119.01,1053.88L118.08,1053.02L114.55,1053.74L113.72,1049.58L112.12,1049.53L109.63,1047.8L107.48,1044.84L107.52,1043.61L106.27,1042.74L104.02,1043.5L103.13,1041.4L99.63,1040.88L99.35,1039.63L95.29,1037.03L89.58,1036.02L90.01,1032.73L88.24,1028.13L88.92,1026.91L90.5,1027.37L91.16,1026.57L92.75,1026.62L93.77,1024.59L91.58,1023.28L84.26,1023.04L84.01,1020.97L82.14,1019.67L84.82,1015.63L84.86,1014.39L82.05,1012.65L81.45,1011.39L81.79,1010.58L83.05,1011.03L85.96,1009.88L83.41,1009.8L81.85,1008.93L81.89,1007.69L85.69,1008.22L86.38,1006.6L82.41,1001.51L81.88,998.19L79.33,998.11L73.46,992.55L73.18,991.3L75.77,990.15L76.14,988.51L72.7,986.74L74.1,982.66L73.24,979.74L73.62,978.1L75.62,975.28L74.37,974.41L72.88,971.47L67.85,969.65L67.24,968.81L70.92,963.15L71.31,961.09L70.41,959.41L69.46,959.38L68.38,963.06L63.57,964.14L62.63,963.7L63.05,960.82L65.35,958.42L65.39,957.18L63.87,955.07L61.65,954.99L60.23,959.49L57.34,960.22L52.7,956.35L46.66,956.14L44.81,954.43L43.03,950.65L42.27,944.85L44.88,942.87L45.96,939.19L45.38,937.52L44.12,937.06L41.56,937.8L40.01,936.51L40.4,934.46L42.4,931.64L41.81,930.38L39.2,932.35L38.59,931.51L41.31,926.23L40.07,925.36L38.79,925.73L35.64,924.8L36.97,923.19L34.5,921.04L34.58,918.57L33.03,917.69L29.54,917.57L29.25,916.73L31.57,913.92L29.69,913.03Z" fill-rule="evenodd" fill="#4682b4" fill-opacity="0.471"/>
<polyline points="29.69,913.03 32.6,911.48 52.15,906.36 55.01,906.46 58.23,904.91 60.12,905.39 65.54,904.75 68.86,900.31 73.84,903.37 75.25,908.78 76.87,908.01 79.05,909.32 86.33,909.97 93.73,906.9 98.94,902.94 107.26,900.73 107.01,898.66 108.7,895.41 110.01,894.21 115.11,893.55 117.06,891.95 118.14,887.86 120.08,886.68 120.78,884.64 124.95,883.12 125.85,884.8 131.51,886.62 131.79,887.87 137.39,891.35 139.81,895.14 143.54,897.73 144.69,901.89 147.77,904.87 147.04,908.16 148.27,909.43 148.5,912.33 150.95,915.29 151.19,917.78 157.98,924.59 158.83,927.92 161.66,928.83 162.9,930.1 163.46,932.59 159.54,936.19 158.85,937.83 159.34,942.79 162.8,944.14 162.77,944.96 158.72,953.1 158.86,958.88 158.2,959.69 160.02,962.63 157.97,967.53 162.04,969.71 170.56,972.03 174.12,970.07 174.95,963.49 180.46,959.93 189.36,960.19 195.1,959.53 200.48,960.5 201.05,963 199.06,965.83 198.95,969.54 197.97,970.76 197.92,972.41 200.69,975.79 201.5,980.76 207.18,982.58 211.2,986.82 211.12,989.7 212.69,990.57 224.46,990.9 226.33,992.19 229.5,992.69 232.91,996.08 234.82,996.14 237.96,997.87 240.51,997.94 243.76,1007.11 249.85,1006.04 252.23,1012.29 255.24,1007 258.51,1003.79 262.07,1001.4 264.95,1001.06 266.25,999.86 266.61,998.22 270.15,997.07 272.15,993.41 272.53,990.94 273.51,990.14 277.67,989.42 279.53,991.12 281.14,990.33 286.47,980.97 290.63,980.25 293.8,980.74 296.31,982.05 297.54,983.73 300.73,983.39 301.09,981.75 304.61,981.01 311.42,975.81 317.82,974.32 318.52,971.86 321.75,969.87 323.72,967.03 330.05,968.42 331.66,967.63 332.59,968.48 333.88,968.09 334.82,968.53 336.64,972.29 341.43,971.57 343.27,974.51 349.94,975.07 351.19,975.93 350.81,978.81 352.33,981.73 353.59,982.18 354.57,981.37 356.79,981.42 358,984.34 358.94,984.77 358.84,989.31 361.89,995.16 361.81,998.88 363.06,999.73 362.63,1004.67 364.77,1008.85 362.44,1013.34 360.82,1014.54 360.75,1017.43 364.17,1021.22 368.25,1024.2 369.14,1027.11 368.79,1028.34 365.24,1030.33 363.54,1035.24 361.6,1036.44 360.89,1039.72 357.04,1040.46 356.3,1044.99 354.98,1047.02 355.24,1049.5 353.86,1054.01 353.78,1057.73 352.17,1058.1 351.82,1059.75 352.98,1064.73 358.33,1068.15 360.89,1067.8 361.51,1068.64 365.97,1069.15 367.22,1070 370.11,1069.24 374.56,1070.17 384.31,1076.98 384.27,1078.63 385.83,1080.73 388.04,1081.61 389.33,1081.22 390.28,1081.65 391.19,1083.74 393.1,1084.19 394.35,1085.46 396.58,1085.5 399.09,1087.62 399.05,1089.68 399.98,1090.94 409.13,1096.09 413.29,1096.18 415.49,1097.87 417.72,1097.92 419.54,1102.91 418.55,1104.54 419.66,1112.41 413.81,1117.24 414.9,1126.35 413.85,1130.86 414.07,1135.41 417.15,1141.25 417.41,1144.15 419.24,1148.73 419.5,1151.62 418.52,1152.84 418.43,1156.97 418.74,1157.8 423.18,1159.54 425.32,1164.54 424.6,1168.65 422.31,1171.08 423.23,1172.75 422.89,1173.98 425.41,1176.1 426.61,1180.25 432.29,1184.49 437.38,1186.25 438.67,1185.86 439.47,1194.13 440.72,1195.81 440.26,1202.82 440.83,1206.54 444.65,1208.27 448.41,1212.47 448.51,1224.03 451.3,1229.04 451.46,1237.3 450.79,1238.94 454.29,1240.66 454.55,1243.97 456.12,1245.65 455.43,1248.11 455.98,1253.08 459.76,1256.87 463.14,1265.19 461.09,1271.34 460.67,1276.7 461.89,1280.44 461.54,1281.67 459.9,1283.29 458.31,1282.44 456.38,1282.81 455.77,1280.74 450.37,1277.33 450.74,1274.86 440.51,1272.18 437.67,1269.24 436.46,1265.5 435.18,1265.06 433.9,1265.03 432.58,1266.66 431.55,1269.94 428.3,1271.53 425.76,1270.24 424.15,1270.21 422.84,1271.42 421.25,1270.56 416.74,1271.29 414.83,1270.02 410.99,1269.52 408.12,1268.23 404.66,1264.85 404.36,1263.61 403.41,1263.17 400.82,1263.95 397.35,1260.57 392.44,1265.01 391.41,1268.29 390.44,1268.27 388.47,1270.29 386.56,1269.42 385.59,1269.82 384.02,1268.13 380.8,1268.47 379.58,1265.14 375.13,1262.98 372.87,1263.35 370.03,1261.22 371.37,1258.77 366.64,1254.54 364.71,1254.49 361.44,1257.31 359.5,1257.68 355.68,1256.36 354.73,1255.51 354.46,1253.44 352.23,1252.56 351.25,1252.95 351.34,1249.24 350.4,1247.98 346.18,1249.95 346.53,1248.72 345.28,1247.45 343.64,1248.65 337.61,1245.62 330.85,1246.29 324.51,1242.84 322.35,1239.07 318.5,1238.98 317.9,1236.9 316.63,1236.45 312.42,1238 311.15,1237.15 308.89,1237.92 306.69,1235.8 301.88,1235.68 301.18,1238.14 298.94,1237.68 292.8,1239.18 292.14,1239.99 291.52,1239.14 292.19,1237.92 291.65,1233.78 291.03,1232.94 290.37,1233.75 289.41,1233.31 287.54,1231.2 285.61,1231.15 282.46,1229.01 281.62,1224.03 277.1,1225.16 276.38,1228.03 273.81,1228.38 272.16,1229.99 271.2,1229.96 267.05,1229.03 266.13,1227.35 262.62,1226.44 262.32,1225.6 254.73,1221.28 253.11,1221.65 251.23,1219.95 248.34,1220.28 246.46,1218.58 241.01,1218.02 235.71,1212.51 236.08,1210.46 235.47,1209.21 239.83,1202.3 239.95,1197.76 241.93,1195.75 242,1192.86 241.08,1191.6 239.15,1191.55 236.55,1193.13 235.93,1192.29 234.65,1192.25 233.45,1188.92 229.96,1187.59 228.73,1185.9 225.26,1183.74 224.4,1180 225.15,1175.89 219.56,1169.55 214.82,1166.94 212.7,1162.75 210.49,1161.45 209.93,1158.54 212.25,1155.72 213.34,1151.21 209.41,1142.84 204.58,1143.53 202.68,1143.06 197.51,1144.57 194.63,1144.49 194.68,1142.84 201.52,1138.49 202.54,1136.45 200.1,1132.26 195.69,1129.65 194.08,1130.02 193.32,1134.54 189.08,1137.31 184.95,1135.96 176.96,1135.72 173.54,1132.32 171.62,1132.27 167.32,1125.95 163.11,1127.89 161.52,1127.43 161.29,1124.53 158.77,1123.22 157.24,1120.69 153.43,1119.75 151.75,1122.6 149.47,1123.77 146.95,1122.45 145.51,1117.04 146.93,1112.54 145.19,1106.71 146.23,1103.85 145.95,1102.6 142.49,1100.84 141.88,1099.59 144.59,1094.71 143.99,1093.46 140.83,1092.12 137.6,1093.26 136.66,1092.82 137.01,1091.59 138.94,1091.24 140.27,1089.63 140.34,1087.15 139.44,1085.47 134.06,1083.66 133.52,1080.34 132.31,1078.24 132.13,1073.69 127.93,1075.21 125.12,1073.06 127.14,1069.82 127.57,1066.12 123.22,1062.27 118.17,1060.46 119.01,1053.88 118.08,1053.02 114.55,1053.74 113.72,1049.58 112.12,1049.53 109.63,1047.8 107.48,1044.84 107.52,1043.61 106.27,1042.74 104.02,1043.5 103.13,1041.4 99.63,1040.88 99.35,1039.63 95.29,1037.03 89.58,1036.02 90.01,1032.73 88.24,1028.13 88.92,1026.91 90.5,1027.37 91.16,1026.57 92.75,1026.62 93.77,1024.59 91.58,1023.28 84.26,1023.04 84.01,1020.97 82.14,1019.67 84.82,1015.63 84.86,1014.39 82.05,1012.65 81.45,1011.39 81.79,1010.58 83.05,1011.03 85.96,1009.88 83.41,1009.8 81.85,1008.93 81.89,1007.69 85.69,1008.22 86.38,1006.6 82.41,1001.51 81.88,998.19 79.33,998.11 73.46,992.55 73.18,991.3 75.77,990.15 76.14,988.51 72.7,986.74 74.1,982.66 73.24,979.74 73.62,978.1 75.62,975.28 74.37,974.41 72.88,971.47 67.85,969.65 67.24,968.81 70.92,963.15 71.31,961.09 70.41,959.41 69.46,959.38 68.38,963.06 63.57,964.14 62.63,963.7 63.05,960.82 65.35,958.42 65.39,957.18 63.87,955.07 61.65,954.99 60.23,959.49 57.34,960.22 52.7,956.35 46.66,956.14 44.81,954.43 43.03,950.65 42.27,944.85 44.88,942.87 45.96,939.19 45.38,937.52 44.12,937.06 41.56,937.8 40.01,936.51 40.4,934.46 42.4,931.64 41.81,930.38 39.2,932.35 38.59,931.51 41.31,926.23 40.07,925.36 38.79,925.73 35.64,924.8 36.97,923.19 34.5,921.04 34.58,918.57 33.03,917.69 29.54,917.57 29.25,916.73 31.57,913.92 29.69,913.03" fill="none" stroke="#1e1e1e" stroke-width="1.53" stroke-linecap="round" stroke-linejoin="round"/>
<text x="898.66" y="669.33" font-family="sans-serif" font-size="14" stroke="#ffffff" stroke-opacity="0.784" stroke-width="2.33" stroke-linejoin="round" paint-order="stroke" fill="#141414">Azerbaijan</text>
</svg>
