<?xml version="1.0" encoding="UTF-8" standalone="no"?>
<svg xmlns="http://www.w3.org/2000/svg" width="2000" height="1667" viewBox="0 0 2000 1667">
<rect width="2000" height="1667" fill="#ffffff"/>
<path d="M284.16,454.91L287.94,460.75L289.26,467.54L285.95,472.91L276.66,468.23L271.61,468.25L270.04,476.64L269.13,476.78L268.72,466.64L274.21,464.69L281.32,464.98L286.43,463.89L282.81,458.14L281.92,456.93L276.27,458.87L273.79,454.84L268.33,453.18L268.99,447.18L267.89,443.71L260.93,439.93L258.98,439.82L246.63,450.43L244.61,445.45L244.9,443.32L245.96,441.43L249.16,442.2L259.4,435.17L263.87,433.37L267.95,436.42L275.21,449.27L284.16,454.91Z" fill-rule="evenodd" fill="#4682b4" fill-opacity="0.471"/>
<polyline points="284.16,454.91 287.94,460.75 289.26,467.54 285.95,472.91 276.66,468.23 271.61,468.25 270.04,476.64 269.13,476.78 268.72,466.64 274.21,464.69 281.32,464.98 286.43,463.89 282.81,458.14 281.92,456.93 276.27,458.87 273.79,454.84 268.33,453.18 268.99,447.18 267.89,443.71 260.93,439.93 258.98,439.82 246.63,450.43 244.61,445.45 244.9,443.32 245.96,441.43 249.16,442.2 259.4,435.17 263.87,433.37 267.95,436.42 275.21,449.27 284.16,454.91" fill="none" stroke="#1e1e1e" stroke-width="1.32" stroke-linecap="round" stroke-linejoin="round"/>
<text x="208.64" y="459.64" font-family="sans-serif" font-size="14" stroke="#ffffff" stroke-opacity="0.784" stroke-width="2.33" stroke-linejoin="round" paint-order="stroke" fill="#141414">Kauno marios</text>
</svg>
