<?xml version="1.0" encoding="UTF-8" standalone="no"?>
<svg xmlns="http://www.w3.org/2000/svg" width="2000" height="1613" viewBox="0 0 2000 1613">
<rect width="2000" height="1613" fill="#ffffff"/>
<polyline points="841.13,134.39 845.47,133.38 840.25,132.75 840.29,128.07 843.36,127.5 844.05,129.52 845.29,127.7 845.42,130.94 846.18,128.22 846.08,130.26 847.04,129.58 845.49,126.37 850.17,127.37 848.97,131.79 850.44,132.5 848.67,132.81 850.34,132.97 846.24,134.93 850.44,133.18 848.47,135.36 850.44,139.75 845.39,139.53 845.61,137.91 844.61,137.53 845.18,139.57 842.63,140.3 843.85,138.18 841.51,135.66 842.47,136.33 843.85,135.85 841.13,134.39" fill="none" stroke="#1e1e1e" stroke-width="1.79" stroke-linecap="round" stroke-linejoin="round"/>
<polyline points="831.08,131.85 829.23,134.18 833.95,133.51 832.88,134.89 834.2,134.03 835.82,137.4 833.24,138.75 832.71,137.37 831.51,140.83 828.08,141.69 826.4,140.83 831.33,139.46 828.25,138.62 831.83,138.41 829.36,137.58 831.5,136.8 829.95,137.09 831.65,135.76 831.24,135.15 829.03,137.49 829.74,135.68 828.46,134.41 827.94,136.97 827.59,135.33 825.35,136.41 826.95,134.71 824.89,136.07 826.58,133.88 824.82,136.03 821.49,136.49 825.46,134.38 823.28,134.79 823.01,132.59 820.69,134.71 822.58,131.61 824.6,131.35 823.66,132.2 824.29,131.6 824.15,133.04 824.88,133.1 826.25,130.92 827.4,132.43 829.34,130.75 828.88,132.1 829.47,133.03 829.15,131.13 831.08,131.85" fill="none" stroke="#1e1e1e" stroke-width="1.79" stroke-linecap="round" stroke-linejoin="round"/>
<polyline points="834.76,146.65 837.08,145.18 836.7,144.41 831.99,147.48 833.28,145.75 830.94,147.01 830.85,146.19 832.86,145.47 832.06,145.03 830.61,146.4 831.73,145.16 829.52,145.02 831.26,144.46 828.21,143.01 830.79,141.04 833.16,144.95 835.24,144.05 836.03,142.93 833.21,143.51 835.01,142.68 832.56,143.31 831.85,141.97 832.86,142.84 834.13,142.38 831.61,141.63 834.13,141.27 831.14,140.95 834.11,140.86 832.62,139.57 834.96,138.34 833.79,139.42 835.88,139.15 835.13,140.96 838.28,142.87 837.01,144.7 839.37,145.35 834.76,146.65" fill="none" stroke="#1e1e1e" stroke-width="1.79" stroke-linecap="round" stroke-linejoin="round"/>
<polyline points="797.37,115.73 798.51,111.72 797.39,115.67 799.53,112.68 798.96,115.05 799.88,113.11 801.24,114.6 800.03,112.62 806.09,115.18 808.6,119.03 807.66,120.08 807.98,118.72 807.36,118.3 807.07,120.16 806.74,118.12 806.52,120.22 806.21,118.31 805.5,120.39 805.31,118.38 804.78,120.46 805.14,116.95 797.37,115.73" fill="none" stroke="#1e1e1e" stroke-width="1.79" stroke-linecap="round" stroke-linejoin="round"/>
<polyline points="585.4,105.92 606.77,110.06 606.28,108.65 609.15,110.27 609.8,108.99 615.47,112.61 612.57,112.48 611.62,114.49 607.89,113.96 608.22,112.47 606.23,113.95 606.84,112.41 606.1,113.96 605.86,112.28 604.61,113.51 594.94,109.33 580.37,108.6 577.76,106.82 581.26,99.66 585.4,105.92" fill="none" stroke="#1e1e1e" stroke-width="1.79" stroke-linecap="round" stroke-linejoin="round"/>
<polyline points="700.66,106.59 703.76,104.93 708.65,107.16 703.96,108.16 700.66,106.59" fill="none" stroke="#1e1e1e" stroke-width="1.79" stroke-linecap="round" stroke-linejoin="round"/>
<polyline points="42.68,336.4 153.9,275.81 221.39,231.34 228.13,224.84 229.15,220.65 232.53,219.73 235.2,222.85 239.63,220.62 294.98,185.72 310.16,173.51 323.61,167.18 325.98,165.35 324.6,164.16 327.4,165.36 353.7,154.25 359.62,150.21 355.92,135.38 364.35,127.12 381.24,129.2 384.24,136.95 383.82,141.83 392.23,143.06 452.78,123.52 460.37,114.3 460.98,117.22 460.84,114.64 470.87,112.56 480.93,106.33 486.94,105.42 485.22,106.73 488.33,111.28 489.62,106.63 489.87,108.3 495.5,105.85 495.13,104.26 495.68,105.83 497.09,103.77 511.11,101.16 518.69,97.46 520.99,93.89 521.55,95.59 521.83,93.85 529.9,93.22 531.21,94.96 531.36,93.31 531.42,95.03 533.79,93.61 534.87,95.21 544.05,95.68 542.65,99.46 544.4,99.61 545.47,96.7 546.24,100.33 547.47,98.17 546.63,100.84 548.85,98.89 547.7,100.94 552.4,100.14 550.05,103.55 551.85,101.69 551,104.16 555.44,104.51 555.76,103.83 552.81,101.08 557.65,105.24 561.36,110.52 568.51,110.72 568.35,112.24 571.55,112.07 576.09,116.16 611.07,123.87 610.23,122.4 615.71,130.98 618.89,131.29 618.46,132.91 622.74,135.98 624.01,134.2 624.1,138.35 629.4,141.54 645.9,142.64 644.41,148.6 650.91,151.88 652.24,140.45 661.12,141.45 670.48,146.26 669.66,149.71 673.7,157.04 675.53,155.28 673.5,146.86 675.19,146.85 676.09,152.17 676.32,147.13 678.22,148.37 679.98,146.63 679.23,148.81 680.99,149.39 680.86,147.01 681.39,149.73 683.89,149.1 683.94,151.25 687.18,152.53 699.33,152.3 699.42,148.26 700.45,150.26 699.94,148.11 700.8,149.66 701.53,146.77 702.86,147.99 703.68,144.36 711.49,142.51 724.08,131.97 730.59,131.39 730.04,129.23 730.66,131.39 733.98,130.99 742.36,127.58 744.52,129.77 747.14,117.08 749.61,113.89 746.94,109.5 748.26,104.73 746.7,102.23 748.82,103.67 751.82,98.55 749.72,96.01 751.05,97.87 752.88,97.45 752.17,95.92 752.92,97.42 760.98,96.4 762.38,99.48 763.3,96.89 762.91,99.56 764.18,98.19 765.98,100.33 766.62,98.92 766.45,100.4 773.6,100.26 774.31,104.89 776.31,102.05 776.86,105.28 775.07,105.17 774.37,108.73 775.32,113.27 780.15,112.06 778.1,107.71 780.19,106.72 781.7,117.54 782.88,116.88 789.93,128.99 812.45,132.75 812.99,135.48 810.7,134.72 812.41,136.42 813.56,136.23 812.6,134.53 813.23,134.1 814.98,136.99 819.83,138.82 819.61,140.63 820.02,138.99 821.74,140.19 820.47,141.26 821.96,140.37 822.17,143.66 823.2,142.02 823.28,144.88 825.92,145.39 824.44,146.64 825.91,145.48 827.37,146.73 825.96,147.38 828.08,147.45 827.12,148.98 828.38,148.12 829.16,151.77 829.43,150.84 831.42,153.72 830.75,152.37 836.51,157.3 835.87,155.94 837.74,157.77 839.57,157.5 838.71,158.51 841.11,159.42 839.57,157.44 836.07,156.06 839.35,155.96 841.37,158.67 840.96,157.3 839.33,155.89 837.42,156.08 836.52,155.35 839.81,155.74 841.66,157.42 839.88,155.85 841.39,155.39 843.91,159.16 843.36,157.75 845.18,158.35 845.71,157.44 843.23,157.65 842.9,155.93 845.82,155.74 843.82,155.61 844.46,154.01 845.82,153.91 844.49,153.97 842.21,156.07 842.76,152.35 841.55,155.04 839.38,155.11 841.08,154.57 840.12,153.68 840.92,152.87 838.66,153.98 838.69,155.45 837.91,154.81 839.43,151.61 837.84,152.01 838.33,154.66 835.13,154.42 834.67,153.94 835.41,153.97 837.1,151.88 835.26,153.96 836.32,152.05 834.62,153.86 833.75,153.71 835.45,151.74 833.73,153.68 832.6,152.61 834.59,152.16 833.19,152.92 832,151.95 838.32,151.28 838.31,149.91 831.93,151.62 831.29,149.6 834.05,150.89 834.67,149.53 834.13,150.84 832.45,150.34 833.39,149.24 831.09,148.36 834.3,147.4 833.91,149 834.76,149.04 836.08,147 837.02,148.62 836.71,147.09 839.69,145.79 837.12,149.18 840.54,148.26 840.16,146.26 840.99,148.35 839.55,149.03 840.78,148.27 841.32,149.16 840.3,149.15 840.2,150.44 842.15,149.71 840.97,150.6 840.93,151.58 842.31,149.7 842.35,151.84 843.13,149.96 846.21,151.84 845.73,149.75 842.42,149.53 844.55,148.56 843.77,147.66 841.62,149.12 839.95,145.51 841.52,145.39 838.6,143.35 842.07,144.39 842.77,147.06 842.3,144.48 844.72,145.32 844.93,148.51 845.91,147.37 847.2,149.29 845.86,149.36 846.75,155.18 847.25,152.7 848.03,155.54 846.79,155.77 846.74,157.48 848.66,157.44 846.78,156.72 848.14,155.58 847.47,153.41 849.18,152.09 849.4,154.29 850.13,153.58 849.45,154.21 849.29,152.1 847.62,152.46 847.02,151.36 850.33,152.11 847.67,151.31 849.29,149.05 851.41,150.15 850.87,150.78 851.86,151.85 850.97,150.75 853.15,149.95 850.89,148.51 847.77,149.05 846.85,147.09 848.82,147.01 846.18,144.85 848.94,144.33 848.71,145.14 850.96,145 847.08,144.04 852.15,144.33 853.26,146.19 853.07,147.34 854.67,146.77 854.18,148.32 854.77,149.15 856.08,149.44 854.97,146.6 859.04,148.68 853.89,146.1 854.33,144.5 843.84,142.81 842.2,141.45 846.29,142.61 844.39,140.97 855.52,140.23 857.78,143.19 858.36,141.15 854.75,140.16 856.53,139.55 859.51,142.69 861.57,143.14 857.51,140.17 861.3,141.95 863.08,141.41 861.36,141.88 858.69,139.87 849.82,138.2 851.3,134.01 860.94,139.82 863.22,138.5 868.33,138.08 866.44,137.35 864.05,138.58 863.51,137.31 864.32,134.74 863.64,138.07 860.31,138.99 858.78,137.21 861.28,136.33 858.82,137.14 858.74,136.29 862.06,136.03 862.83,135.03 861,135.74 861.3,134.34 858.15,136.59 852.38,132.91 854.42,126.05 855.67,133.27 855.73,131.54 857.52,133.53 859.06,133.35 855.91,131.5 858.57,132.06 857.58,130.4 860.76,132.57 861.37,131.98 858.05,130.37 861.05,131.13 861.85,128.82 860.87,131.18 859.23,130.42 860.65,127.98 859.14,130.23 855.65,130.25 857.27,128.51 859.22,128.55 855.4,129.14 855.78,126.78 858.74,126.61 855.77,125.82 858.94,125.93 855.73,125.46 856.33,123.42 857.97,124.3 856.62,122.69 858.91,124.42 857.03,122.56 863.51,122.05 860.58,123.31 861.26,123.36 860.52,123.64 861.03,123.95 860.16,124.91 860.28,126.22 862.63,122.91 864.66,123 864.36,125.29 865.37,125.83 865.02,123.18 868.25,124.48 867.98,127.58 865.73,127.41 867.8,128.13 864.5,129.72 864.43,128 863.79,127.95 862.99,130.9 864.4,133.38 864.45,129.97 868.15,128.39 866.93,129.33 867.68,130.19 869.67,127.62 869.86,129.36 868.41,131.43 867.14,131.62 868.1,132.92 867.23,131.42 868.27,131.72 869.25,130.23 870.98,130.85 871.32,133.19 869.4,133.22 870.06,136.25 871.59,133.88 871.91,137.17 871.95,134.31 875.24,132.52 872.18,123.47 885.07,122.71 885.25,116.46 879.42,107.04 871.73,103.3 867.03,103.37 863.23,97.71 858.4,98.07 855.72,100.48 856.69,103.19 855.62,100.47 850.37,100.88 840.75,107.42 818.14,101.28 809.26,96.76 804.56,97.08 790.76,86.83 788.1,81.8 790.47,79.11 781.78,76.88 781.61,73.41 780.45,76.26 780.12,74.26 771.82,71.58 773.71,68.08 771.55,59.45 770.01,71.01 753.51,53.14 733.17,64.06 727.67,62.33 728.93,66.2 726.74,67.43 730.11,73.18 728.87,72.29 724.51,81.82 724.37,87.42 724.3,85.66 716.42,106.12 713.08,107.27 702.45,103.46 695.34,108.92 673.11,113.16 654.93,97.35 655.51,93.54 649.27,93.84 644.69,89.86 638.92,92.72 630.64,89.9 628.08,80.82 625.49,82.58 626.59,79.92 624.77,82.61 626.36,80.04 624.3,76.76 622.32,77.3 624.32,76.36 621.79,76.7 623.61,76.14 622.14,73.84 610.8,64.04 609.14,63.27 608.25,65.31 608.04,62.52 605.75,64.18 611.74,55.99 620.27,61.4 621.45,63.3 618.85,67.06 619.82,68.34 623.21,64.5 627.47,67.72 628.97,65.88 624.25,61.15 631.59,56.86 630.7,55.33 620.74,59.27 614.6,54.8 622.64,49.46 626.36,50.62 627.85,42.04 624.99,45.5 620.5,39.51 618.67,40.58 621.6,45.64 619.89,48.04 611.36,53.08 604.79,52.87 605.47,55.99 603.2,54.13 600.44,56.92 598.5,55.39 596.7,59.34 601.97,61.52 602.4,63.39 596.61,59.9 590.39,62.34 588.65,66.55 584.69,68.03 573.39,68.98 567.35,66.11 568.93,69.15 563.86,67.88 557.83,70.02 556.37,68.4 556.86,70.38 549.36,62.23 545.08,61.75 532.1,50.91 516.91,24.65 504.28,16.97" fill="none" stroke="#1e1e1e" stroke-width="1.79" stroke-linecap="round" stroke-linejoin="round"/>
</svg>
