<?xml version="1.0" encoding="UTF-8" standalone="no"?>
<svg xmlns="http://www.w3.org/2000/svg" width="988" height="2000" viewBox="0 0 988 2000">
<rect width="988" height="2000" fill="#ffffff"/>
<path d="M278.25,1983.2L286.81,1978.44L290.29,1979.08L291.88,1978.45L293.78,1975.9L295.37,1975.59L298.53,1976.55L301.39,1974.96L305.19,1975.6L307.73,1973.69L312.79,1974.02L315.33,1972.11L321.03,1971.8L325.47,1969.26L333.08,1968.95L331.81,1967.68L334.98,1966.09L329.92,1963.21L330.24,1961.3L328.65,1960.66L328.65,1959.7L330.56,1959.39L331.2,1954.93L329.3,1953.65L329.3,1951.1L327.4,1952.05L327.08,1951.1L328.04,1949.51L325.82,1948.23L328.04,1946L326.47,1939.31L327.42,1935.8L324.26,1935.16L323.94,1932.61L322.05,1931.65L324.58,1928.15L321.1,1928.46L320.79,1926.55L322.37,1925.28L323.33,1922.41L324.91,1923.37L325.54,1922.1L324.28,1921.78L323.65,1920.5L321.43,1920.18L321.43,1918.27L317.64,1915.71L317.33,1913.16L318.91,1911.25L315.43,1910.61L316.07,1908.7L317.33,1908.38L317.34,1906.79L315.75,1907.42L312.27,1905.51L311.95,1906.78L310.69,1906.46L310.37,1905.5L312.91,1903.92L312.59,1902.64L310.06,1902.95L308.48,1901.36L306.58,1901.36L305.95,1898.81L304.05,1897.85L302.15,1899.44L301.52,1899.12L301.52,1897.52L298.67,1897.52L299.31,1895.61L298.05,1892.74L298.68,1892.42L300.58,1894.34L301.21,1894.02L300.58,1890.51L301.54,1888.6L300.27,1887.96L301.22,1886.69L298.38,1883.82L299.97,1881.27L298.38,1881.27L296.48,1882.54L294.91,1878.39L293.64,1878.71L292.37,1880.94L291.42,1880.94L290.79,1878.07L287.32,1875.83L287.32,1874.88L289.53,1875.84L290.17,1873.29L288.59,1872.65L285.73,1874.87L285.74,1873.28L283.52,1872.64L280.05,1866.58L277.84,1865.62L276.57,1866.25L274.99,1864.34L272.15,1862.74L272.79,1858.28L270.26,1858.59L269.94,1857.96L271.21,1856.37L269.95,1855.41L269.64,1852.54L272.8,1852.87L274.07,1850.64L273.44,1850L271.22,1850.31L270.28,1848.4L271.55,1847.77L271.55,1846.17L268.7,1844.26L267.76,1842.66L265.23,1843.29L265.86,1841.06L264.6,1839.15L263.02,1840.1L261.12,1838.82L261.12,1837.87L263.02,1838.19L266.83,1834.38L266.83,1832.46L265.88,1832.14L265.25,1830.55L266.52,1829.28L266.21,1826.09L268.11,1825.78L267.79,1828.96L269.05,1828.01L269.38,1825.14L271.59,1824.19L275.7,1824.2L276.34,1823.24L276.03,1821.65L275.4,1819.74L274.13,1819.1L274.14,1817.82L274.77,1816.87L276.35,1816.55L276.99,1814.96L275.41,1815.28L271.62,1812.09L273.52,1807.63L272.9,1805.08L267.2,1803.48L267.53,1800.29L270.06,1797.11L273.23,1795.21L273.23,1794.25L269.75,1794.56L268.49,1793.28L269.45,1789.46L268.2,1781.18L269.15,1779.91L271.05,1779.27L271.68,1777.68L270.11,1774.81L271.07,1770.04L270.75,1769.4L269.49,1769.71L264.11,1768.11L262.22,1764.92L263.19,1758.55L261.61,1757.59L259.09,1751.54L256.88,1748.35L256.27,1740.38L282.82,1740.76L283.97,1633.12L283.41,1598.41L285.64,1586.95L285.34,1576.76L287.25,1569.76L285.05,1563.38L284.76,1548.74L282.58,1536.95L282.02,1496.84L284.24,1492.38L284.24,1490.47L283.63,1480.29L281.76,1470.1L281.12,1307.12L274.2,1303.6L274.21,1301.69L277.68,1294.06L277.38,1287.69L279.92,1277.19L282.76,1275.93L284.65,1273.07L288.76,1266.39L289.39,1262.89L278.09,1246.64L279.24,1140.66L276.43,1131.1L277.08,1118.69L275.52,1113.92L275.53,1109.78L277.13,1094.19L276.2,1086.87L274.01,1082.41L272.46,1070.95L271.21,1068.08L263.69,1058.2L261.19,1049.92L258.06,1046.73L242.69,1035.56L237.36,1030.14L230.47,1019.94L213.87,1001.76L210.13,992.84L207.96,982.01L207.68,967.69L205.22,947.31L203.34,945.4L201.45,947.62L198.62,949.21L197.05,949.2L195.8,947.93L194.25,940.92L188.63,929.77L198.09,912.61L197.81,901.15L200.02,896.7L199.71,894.79L197.52,892.87L196.59,888.1L197.24,880.46L196.67,858.18L199.84,845.46L196.72,839.72L194.36,785.93L131.17,745.64L125.23,743.07L113.97,736.35L104.29,728.68L83.35,714.28L13.72,663.71L16.43,616.93L21.47,608.36L23.39,599.14L23.74,590.54L21.33,566.98L22.32,556.47L24.53,552.03L46.2,529.2L49.41,509.79L54.12,504.71L53.5,501.21L49.48,491.01L56.75,472.25L56.77,466.84L59.92,460.16L67.44,454.14L70.26,452.88L74.34,448.44L75.9,448.13L77.17,444.63L77.18,441.76L76.25,439.85L77.19,439.22L77.51,437.31L79.38,437L80.64,435.73L80,437.95L86.25,437.34L88.44,437.99L90.29,444.36L93.08,449.15L96.21,449.16L101.84,446.95L103.4,447.27L104.97,445.69L106.53,446.01L107.46,447.92L109.65,447.93L114.95,450.82L117.44,455.6L119.94,455.61L119.32,454.33L120.88,454.02L121.51,452.11L121.2,450.52L120.58,451.47L119.33,450.51L120.9,448.61L119.65,447.97L119.33,449.56L118.71,449.55L114.97,446.04L115.91,444.13L114.67,440.94L115.93,439.68L111.88,435.2L114.39,432.67L111.58,432.02L111.27,430.74L112.53,429.79L111.6,427.24L109.72,426.92L107.86,423.73L106.61,423.72L105.37,422.44L104.11,422.76L105.98,424.68L103.48,426.26L102.54,425.94L102.23,424.34L100.36,424.34L100.05,423.7L101.3,423.7L101.93,422.75L101.31,421.16L102.25,419.89L101.63,419.25L103.5,418.62L103.51,417.98L106.63,417.67L109.44,418.64L111.01,417.37L113.19,418.33L115.69,417.07L115.07,415.79L116.95,415.16L117.27,413.57L121.03,409.44L126.34,409.14L127.28,410.1L128.53,409.47L130.71,411.71L130.7,412.98L133.2,413.94L134.76,412.67L134.14,412.03L135.7,411.72L135.71,410.77L134.46,409.81L133.83,410.44L132.59,409.16L133.53,408.53L132.28,407.25L133.54,406.3L132.92,404.39L131.67,404.38L132.93,401.52L132.3,400.57L132.93,398.98L131.69,398.02L132.94,398.02L133.26,396.43L132.63,395.47L133.57,395.79L134.51,393.57L132.65,391.01L131.71,391.33L131.09,389.74L129.22,389.41L125.17,386.85L125.79,385.9L127.67,385.58L127.67,384.95L126.11,385.26L125.8,382.71L127.99,383.04L127.37,381.44L128.31,381.13L128.31,379.22L131.13,376.36L132.07,377.32L133.64,375.41L134.57,375.1L135.51,376.06L137.7,375.43L137.38,377.02L138,377.34L138.94,376.39L139.56,377.03L139.56,379.57L138.61,380.84L139.86,381.8L140.8,380.21L141.74,380.85L142.68,379.58L144.55,381.82L145.79,382.14L146.73,381.19L151.73,380.25L153.6,381.53L153.92,380.57L155.79,380.26L156.41,382.49L157.35,381.54L160.16,382.19L160.15,384.41L160.78,383.78L162.96,385.7L165.46,385.39L166.39,386.34L167.65,384.12L173.28,381.27L172.34,380.63L172.97,379.36L172.04,377.13L170.79,376.49L171.73,375.21L170.8,374.26L170.81,372.35L167.68,372.34L165.82,369.78L166.76,368.83L165.82,367.24L166.76,367.24L166.14,365.01L167.08,365.01L166.77,363.74L168.03,362.15L173.96,363.12L176.43,371.09L178.93,370.78L179.55,372.05L181.43,371.1L180.49,370.46L180.81,369.83L184.24,368.24L184.56,368.88L183.62,369.52L184.86,371.75L186.11,372.39L186.42,371.43L187.36,371.44L187.67,372.71L188.6,372.71L188.3,371.12L191.42,369.86L191.11,369.22L189.55,369.21L190.8,367.31L194.24,368.59L193,365.4L191.75,365.4L193.31,363.81L190.5,362.85L190.51,359.35L188.64,359.66L188.33,358.7L189.27,357.75L187.71,356.79L186.47,353.6L187.1,352.97L186.47,352.65L186.48,350.1L186.8,349.15L189.61,348.83L189.6,350.11L191.16,350.11L191.48,349.16L194.29,348.53L194.93,344.71L195.55,345.03L197.11,343.12L196.18,340.89L196.81,339.94L198.68,340.58L198.99,341.54L201.18,341.86L202.43,341.23L203.36,342.5L203.99,342.19L205.24,339.32L203.99,338.68L205.56,337.09L207.74,337.1L208.69,335.19L207.13,334.87L204.95,330.41L205.9,327.86L204.65,327.54L206.84,326.59L205.9,325.63L206.22,324.36L207.15,324.68L206.84,323.72L208.09,323.73L208.41,321.82L210.91,321.5L212.16,320.55L212.15,321.51L213.71,322.78L214.34,321.51L213.09,321.51L212.78,319.92L214.03,319.6L216.21,321.2L217.78,319.61L219.96,319.62L220.59,318.66L220.28,316.11L221.84,316.44L221.85,315.48L223.09,315.17L223.41,313.57L224.66,312.94L224.97,313.9L225.6,313.26L226.53,313.9L227.46,317.72L228.39,317.41L228.4,315.81L229.95,318.37L230.89,317.09L233.7,316.15L235.88,319.65L235.25,320.93L236.19,321.88L238.38,320.62L239.64,315.2L242.14,314.25L242.76,315.21L241.2,315.84L241.19,319.67L242.75,320.31L242.75,319.03L244.93,319.99L245.87,319.04L248.67,320.96L249.3,320.64L250.23,322.55L250.86,320.96L252.11,321.92L252.42,320.97L253.67,321.29L253.05,320.01L256.17,319.38L254.92,318.1L255.86,318.11L255.86,315.88L257.11,316.52L257.43,315.56L255.87,313.97L257.43,313.97L259.3,316.52L261.79,317.16L261.48,317.8L262.72,318.44L263.35,319.72L262.72,321.31L261.47,320.35L262.4,322.9L263.34,323.86L264.59,321.63L265.53,321.63L267.08,323.86L264.89,326.41L265.83,327.04L265.2,328L265.83,328.32L265.51,329.59L266.45,329.91L266.45,327.36L267.7,327.37L268.32,329.92L269.88,331.51L268.94,332.15L268.62,336.29L269.56,335.97L270.49,337.88L273.29,340.12L274.85,340.44L277.35,339.49L279.22,341.08L280.47,340.13L281.41,340.45L282.04,338.86L283.6,338.86L285.79,336.64L286.1,338.55L287.03,338.23L291.09,339.83L292.65,339.2L294.21,336.97L295.15,337.29L297.97,334.43L299.53,334.43L301.08,336.03L303.27,336.35L305.46,334.13L307.65,329.67L308.59,329.35L310.14,331.59L312.33,331.27L313.89,331.91L314.82,333.5L318.26,332.55L320.75,333.51L321.38,331.92L323.25,331.61L326.37,332.89L327.31,331.93L332.93,330.67L335.43,327.49L343.24,328.13L348.86,324.64L349.48,326.87L357.29,324.33L360.72,326.88L363.22,326.25L369.46,329.12L383.19,332.64L384.12,332L391.3,332.65L400.04,331.7L402.54,330.43L437.52,293.83L454.38,277.27L456.87,275.36L462.8,274.09L478.09,259.44L487.76,254.67L495.25,249.89L492.44,248.3L492.44,246.38L493.38,245.75L491.5,243.84L492.13,242.88L489.95,237.47L491.19,236.19L492.75,236.51L491.82,233.96L493.06,231.1L495.25,231.73L496.18,230.78L497.74,227.27L496.81,225.68L502.11,222.5L502.42,221.22L504.29,219.95L502.73,217.72L503.35,216.76L506.47,216.44L509.9,214.85L513.33,215.49L514.27,214.21L513.02,212.3L513.02,208.8L512.08,208.8L512.4,207.52L511.77,206.89L512.08,205.93L517.07,203.06L514.27,200.83L515.82,193.51L519.56,192.23L522.99,187.77L522.68,185.22L520.81,181.72L522.68,179.81L524.24,180.12L525.17,177.89L521.74,175.67L522.36,173.43L519.56,171.52L519.25,169.93L520.49,169.61L521.12,168.34L522.05,168.66L521.74,167.38L522.99,166.43L522.99,165.47L522.05,165.15L525.17,161.97L526.41,161.97L525.17,163.56L527.35,164.83L527.66,163.56L529.22,162.28L530.47,161.96L533.27,162.92L533.89,161.01L532.33,159.1L532.33,156.87L535.76,154.95L536.38,153.04L539.81,154L540.44,155.59L541.37,154.95L541.68,152.72L540.43,149.22L540.74,148.26L538.56,145.71L539.18,144.12L538.25,142.21L536.69,141.25L534.2,142.21L534.2,141.25L533.26,140.94L533.89,140.3L532.95,139.02L532.95,137.11L531.39,135.84L532.95,132.65L529.83,130.74L528.27,131.06L528.59,130.11L527.34,127.56L528.27,123.73L522.97,121.82L524.53,120.23L522.97,115.13L518.92,112.27L518.92,110.35L520.79,105.89L518.61,103.03L520.79,100.79L518.61,98.88L518.92,97.61L516.11,94.42L516.43,92.83L515.8,92.19L519.23,89.64L519.23,86.46L516.11,83.91L514.55,79.77L515.49,79.13L517.05,79.45L518.91,75.62L518.29,74.67L515.8,74.35L514.24,73.07L513.31,70.84L516.73,70.52L517.04,69.57L516.11,69.57L515.8,67.97L521.71,65.74L525.14,67.34L527.01,66.7L531.68,67.33L532.92,66.7L534.79,63.51L540.4,67.33L541.64,67.33L543.82,60.96L554.41,62.86L555.03,60.63L556.9,60.31L556.9,57.12L558.76,54.26L559.7,54.25L560.94,56.8L565.62,58.08L566.24,60.94L569.66,58.71L573.71,59.03L574.02,58.07L574.96,58.71L576.2,58.07L577.45,59.34L581.49,52.65L583.36,51.37L584.61,52.64L585.85,52.96L588.03,52L592.7,53.91L593.64,52.95L596.13,53.27L603.29,50.4L605.46,50.39L607.33,51.03L608.58,52.94L610.14,53.58L610.46,58.99L613.57,57.71L613.26,56.76L617.3,50.7L617.6,47.83L618.85,45.6L619.78,45.28L621.02,40.5L620.71,39.22L622.26,35.72L625.06,34.44L626.3,31.57L627.86,32.52L627.86,33.8L629.42,36.03L631.29,36.66L634.4,36.02L637.51,31.55L638.75,28.05L642.17,24.86L646.84,22.94L648.08,21.66L649.95,21.34L653.68,22.29L657.11,21.65L656.48,20.69L657.42,20.05L656.79,18.46L655.86,18.78L655.86,20.37L655.24,20.38L654.3,19.42L654.3,17.51L657.72,17.82L663.64,21.96L668,23.86L672.37,27.68L674.24,31.82L684.22,39.77L688.59,45.5L692.02,47.4L694.52,52.5L697.95,56.32L711.35,61.39L713.22,62.98L717.29,72.85L726.96,80.8L726.65,84.62L731.65,90.03L739.13,92.24L744.43,96.05L746.61,96.68L747.86,97.96L747.87,102.1L748.81,103.69L751.93,104.96L760.67,110.99L764.1,114.8L767.23,120.85L771.6,124.66L776.28,127.2L780.66,131.65L782.23,136.42L788.78,138.32L790.03,140.55L792.53,142.45L792.53,144.68L789.42,146.6L788.49,148.83L789.12,150.42L793.49,154.55L796.01,161.24L795.39,163.47L796.65,167.29L797.58,168.24L801.64,168.55L803.84,176.83L803.53,178.42L806.04,182.55L809.47,184.46L813.84,183.49L816.96,184.43L825.68,182.82L834.42,186.29L840.65,186.59L846.6,191.99L849.71,192.3L856.88,191.32L859.07,191.95L865.01,199.57L871.58,206.24L870.67,211.98L871.62,215.16L875.68,217.69L883.78,217.67L885.35,219.25L884.74,223.71L880.7,228.19L880.41,232.33L881.03,233.6L882.6,235.51L890.1,238.67L898.85,244.69L888.59,252.69L884.88,263.85L872.78,282.68L857.64,326.36L926.07,424.51L930.74,421.63L935.75,423.2L935.13,424.48L935.17,435.94L936.47,446.76L935.88,456.95L941.52,459.47L944.97,462.64L950.08,489.69L944.53,508.81L944.87,515.49L942.07,518.37L942.72,523.78L949,531.08L953.12,545.07L952.5,546.66L953.45,549.52L958.17,554.6L962.55,554.58L966.31,556.15L970.08,560.28L971.03,563.45L972.7,587.32L973.98,594.64L972.75,599.1L969.64,604.21L967.15,606.13L964.69,616.32L961.89,620.16L961,632.57L961.36,643.39L958.57,651.05L956.39,653.6L954.51,653.93L923.45,636.86L917.84,641.02L903.15,649.04L898.16,652.87L899.73,654.14L901.32,662.09L900.39,663.37L895.39,666.25L898.86,674.52L890.49,697.46L894.9,704.45L896.49,709.54L896.18,711.13L899.32,713.98L900.27,716.53L912.83,724.44L920.67,725.36L922.24,726.31L921.94,730.45L917.62,747.65L916.37,749.25L905.11,755.02L902.31,758.85L899.23,774.14L899.26,783.05L900.22,787.82L899.29,792.28L897.43,797.7L895.25,800.57L886.18,807.28L885.56,809.83L886.83,813.01L886.84,815.56L884.97,818.11L873.09,828.02L867.76,828.03L859.28,825.2L855.2,825.21L851.14,827.45L828.58,835.16L825.77,836.76L823.88,836.77L820.44,839.32L814.19,846.02L811.71,855.58L811.72,858.12L813.94,866.71L816.77,871.8L823.38,877.19L821.5,880.37L816.19,886.75L808.68,892.82L799.26,890.3L792.68,893.82L791.43,895.1L789.56,899.88L789.27,909.74L788.34,911.97L777.7,925.69L771.14,938.11L763.31,943.86L758.29,944.51L756.11,952.47L752.67,958.84L751.74,963.3L759.02,988.11L760.02,1012.29L753.13,1019.95L749.07,1028.55L748.45,1032.37L749.4,1039.37L748.16,1042.87L740.64,1055.3L739.09,1061.03L738.16,1070.26L719.64,1076.35L708.95,1076.69L702.04,1078.93L695.75,1073.21L679.72,1075.47L673.76,1078.66L672.82,1082.48L642.33,1080.93L641.08,1082.53L642.34,1083.48L642.97,1086.34L644.86,1086.02L645.17,1086.98L644.55,1089.21L643.6,1088.57L642.03,1089.53L642.66,1091.44L641.09,1092.71L639.84,1092.71L640.78,1093.98L644.24,1094.94L643.93,1096.21L640.47,1097.8L640.47,1098.44L643.62,1101.62L641.74,1103.53L641.74,1104.8L644.88,1105.12L644.57,1106.07L642.06,1107.35L644.57,1109.89L643.63,1112.76L638.92,1114.67L639.87,1116.26L641.44,1116.58L641.13,1118.81L642.39,1120.4L642.39,1121.67L639.25,1124.86L639.25,1127.72L634.85,1128.36L633.6,1129.96L634.23,1132.5L636.43,1133.45L636.74,1132.18L638,1132.18L638.95,1134.09L638.01,1138.54L638.96,1140.45L638.64,1142.68L633.3,1143.96L633.3,1144.6L636.76,1145.86L637.08,1146.82L634.88,1151.6L635.83,1154.78L634.89,1158.92L635.21,1159.55L637.41,1159.23L637.41,1161.78L637.1,1163.05L634.9,1164.96L632.07,1164.01L629.87,1164.33L628.3,1167.52L628.61,1169.43L625.47,1171.34L627.36,1172.93L626.42,1176.11L627.05,1178.02L630.2,1182.15L633.04,1184.06L631.78,1185.34L631.47,1192.02L630.53,1193.93L631.16,1194.88L635.57,1195.51L631.17,1198.07L628.66,1203.8L632.75,1204.43L632.43,1206.66L629.92,1208.25L629.29,1207.62L627.4,1209.53L627.41,1211.44L633.7,1213.02L632.13,1217.48L634.03,1220.98L632.14,1224.8L634.35,1226.39L632.15,1228.62L632.46,1231.16L631.84,1231.8L633.41,1234.66L633.42,1236.89L635.94,1239.43L634.37,1243.26L635,1245.8L634.06,1247.71L633.12,1248.03L632.8,1250.58L635.64,1251.21L636.27,1252.48L637.84,1253.12L638.16,1254.39L635.96,1256.94L635.34,1262.35L633.13,1262.67L632.19,1263.63L632.82,1264.9L634.71,1264.9L635.34,1265.85L632.83,1271.27L630.31,1273.5L631.58,1277.95L628.12,1280.18L627.49,1282.73L624.97,1282.73L623.4,1281.46L621.82,1281.78L620.25,1285.29L618.68,1286.88L622.15,1293.88L622.16,1298.01L619.64,1303.11L617.76,1304.07L615.24,1308.21L616.19,1316.48L615.57,1318.07L614.31,1318.71L615.25,1320.62L617.15,1321.89L618.09,1324.12L622.84,1341.62L624.73,1343.85L626.31,1344.16L629.77,1347.34L632.93,1351.79L633.56,1353.38L632.3,1354.66L633.89,1361.02L630.12,1371.85L630.44,1373.12L626.97,1374.4L626.03,1375.68L625.72,1385.22L627.93,1387.77L627.62,1389.36L625.42,1392.23L625.42,1393.5L627,1395.09L627,1396.05L625.74,1397.96L625.11,1401.78L622.6,1405.92L622.29,1412.29L620.4,1418.97L620.72,1421.84L618.53,1433.62L616.64,1438.71L615.07,1439.99L616.65,1441.58L616.65,1442.53L613.5,1445.08L614.45,1448.58L613.19,1450.5L610.04,1450.82L609.72,1452.09L610.67,1453.68L609.41,1458.78L609.73,1461.32L620.16,1478.5L624.89,1483.91L624.27,1487.41L627.43,1495.37L625.86,1499.19L624.3,1512.24L622.43,1531.99L622.13,1544.72L625.91,1546.63L628.46,1565.73L629.73,1567.64L631.31,1567.63L631.94,1569.23L635.1,1570.18L636.36,1572.09L639.52,1574.31L642.36,1574.31L642.99,1574.94L642.68,1576.85L644.58,1579.4L644.58,1580.99L645.84,1581.31L645.85,1585.45L646.8,1588.31L646.17,1591.5L646.5,1599.46L647.13,1600.09L646.5,1602.64L641.45,1603.6L635.14,1602.97L631.03,1604.57L631.09,1650.11L632.68,1657.75L634.89,1659.65L640,1697.23L629.58,1706.16L635.28,1716.66L636.24,1725.9L635.93,1726.85L632.77,1728.45L626.14,1734.19L623.94,1746.61L621.1,1754.58L624.58,1759.35L629.96,1762.53L630.28,1763.81L629.04,1785.79L629.68,1790.88L628.11,1799.17L627.81,1808.09L636.35,1814.13L643.31,1813.8L646.17,1820.17L642.7,1826.86L643.65,1832.59L643.34,1837.06L638.92,1839.61L632.91,1845.03L629.76,1851.73L626.6,1855.87L628.18,1859.69L629.78,1869.89L631.68,1875.62L633.27,1876.57L632.32,1877.21L632,1878.81L630.42,1879.44L630.74,1881.04L630.11,1881.99L627.26,1883.27L626.63,1886.78L624.73,1887.42L624.74,1888.37L623.15,1888.69L622.21,1890.29L619.04,1892.52L619.05,1896.66L620.95,1897.62L621.9,1897.3L623.48,1898.89L622.85,1899.53L623.17,1900.8L624.75,1902.39L624.75,1903.67L623.49,1903.99L622.54,1906.54L618.75,1910.37L620.66,1920.56L619.08,1929.8L619.41,1938.72L575.08,1943.55L564.94,1943.23L564.31,1943.87L557.98,1944.19L545.62,1943.24L542.46,1943.88L542.46,1945.48L538.34,1945.16L536.12,1945.48L536.44,1946.43L535.81,1946.75L533.59,1946.44L528.21,1947.39L528.21,1948.35L530.74,1948.03L531.37,1949.94L518.07,1948.03L501.92,1947.08L474.05,1948.99L432.87,1954.07L340.99,1969.6L323.25,1974.04L316.91,1974.67L278.25,1983.2Z" fill-rule="evenodd" fill="#4682b4" fill-opacity="0.471"/>
<polyline points="278.25,1983.2 286.81,1978.44 290.29,1979.08 291.88,1978.45 293.78,1975.9 295.37,1975.59 298.53,1976.55 301.39,1974.96 305.19,1975.6 307.73,1973.69 312.79,1974.02 315.33,1972.11 321.03,1971.8 325.47,1969.26 333.08,1968.95 331.81,1967.68 334.98,1966.09 329.92,1963.21 330.24,1961.3 328.65,1960.66 328.65,1959.7 330.56,1959.39 331.2,1954.93 329.3,1953.65 329.3,1951.1 327.4,1952.05 327.08,1951.1 328.04,1949.51 325.82,1948.23 328.04,1946 326.47,1939.31 327.42,1935.8 324.26,1935.16 323.94,1932.61 322.05,1931.65 324.58,1928.15 321.1,1928.46 320.79,1926.55 322.37,1925.28 323.33,1922.41 324.91,1923.37 325.54,1922.1 324.28,1921.78 323.65,1920.5 321.43,1920.18 321.43,1918.27 317.64,1915.71 317.33,1913.16 318.91,1911.25 315.43,1910.61 316.07,1908.7 317.33,1908.38 317.34,1906.79 315.75,1907.42 312.27,1905.51 311.95,1906.78 310.69,1906.46 310.37,1905.5 312.91,1903.92 312.59,1902.64 310.06,1902.95 308.48,1901.36 306.58,1901.36 305.95,1898.81 304.05,1897.85 302.15,1899.44 301.52,1899.12 301.52,1897.52 298.67,1897.52 299.31,1895.61 298.05,1892.74 298.68,1892.42 300.58,1894.34 301.21,1894.02 300.58,1890.51 301.54,1888.6 300.27,1887.96 301.22,1886.69 298.38,1883.82 299.97,1881.27 298.38,1881.27 296.48,1882.54 294.91,1878.39 293.64,1878.71 292.37,1880.94 291.42,1880.94 290.79,1878.07 287.32,1875.83 287.32,1874.88 289.53,1875.84 290.17,1873.29 288.59,1872.65 285.73,1874.87 285.74,1873.28 283.52,1872.64 280.05,1866.58 277.84,1865.62 276.57,1866.25 274.99,1864.34 272.15,1862.74 272.79,1858.28 270.26,1858.59 269.94,1857.96 271.21,1856.37 269.95,1855.41 269.64,1852.54 272.8,1852.87 274.07,1850.64 273.44,1850 271.22,1850.31 270.28,1848.4 271.55,1847.77 271.55,1846.17 268.7,1844.26 267.76,1842.66 265.23,1843.29 265.86,1841.06 264.6,1839.15 263.02,1840.1 261.12,1838.82 261.12,1837.87 263.02,1838.19 266.83,1834.38 266.83,1832.46 265.88,1832.14 265.25,1830.55 266.52,1829.28 266.21,1826.09 268.11,1825.78 267.79,1828.96 269.05,1828.01 269.38,1825.14 271.59,1824.19 275.7,1824.2 276.34,1823.24 276.03,1821.65 275.4,1819.74 274.13,1819.1 274.14,1817.82 274.77,1816.87 276.35,1816.55 276.99,1814.96 275.41,1815.28 271.62,1812.09 273.52,1807.63 272.9,1805.08 267.2,1803.48 267.53,1800.29 270.06,1797.11 273.23,1795.21 273.23,1794.25 269.75,1794.56 268.49,1793.28 269.45,1789.46 268.2,1781.18 269.15,1779.91 271.05,1779.27 271.68,1777.68 270.11,1774.81 271.07,1770.04 270.75,1769.4 269.49,1769.71 264.11,1768.11 262.22,1764.92 263.19,1758.55 261.61,1757.59 259.09,1751.54 256.88,1748.35 256.27,1740.38 282.82,1740.76 283.97,1633.12 283.41,1598.41 285.64,1586.95 285.34,1576.76 287.25,1569.76 285.05,1563.38 284.76,1548.74 282.58,1536.95 282.02,1496.84 284.24,1492.38 284.24,1490.47 283.63,1480.29 281.76,1470.1 281.12,1307.12 274.2,1303.6 274.21,1301.69 277.68,1294.06 277.38,1287.69 279.92,1277.19 282.76,1275.93 284.65,1273.07 288.76,1266.39 289.39,1262.89 278.09,1246.64 279.24,1140.66 276.43,1131.1 277.08,1118.69 275.52,1113.92 275.53,1109.78 277.13,1094.19 276.2,1086.87 274.01,1082.41 272.46,1070.95 271.21,1068.08 263.69,1058.2 261.19,1049.92 258.06,1046.73 242.69,1035.56 237.36,1030.14 230.47,1019.94 213.87,1001.76 210.13,992.84 207.96,982.01 207.68,967.69 205.22,947.31 203.34,945.4 201.45,947.62 198.62,949.21 197.05,949.2 195.8,947.93 194.25,940.92 188.63,929.77 198.09,912.61 197.81,901.15 200.02,896.7 199.71,894.79 197.52,892.87 196.59,888.1 197.24,880.46 196.67,858.18 199.84,845.46 196.72,839.72 194.36,785.93 131.17,745.64 125.23,743.07 113.97,736.35 104.29,728.68 83.35,714.28 13.72,663.71 16.43,616.93 21.47,608.36 23.39,599.14 23.74,590.54 21.33,566.98 22.32,556.47 24.53,552.03 46.2,529.2 49.41,509.79 54.12,504.71 53.5,501.21 49.48,491.01 56.75,472.25 56.77,466.84 59.92,460.16 67.44,454.14 70.26,452.88 74.34,448.44 75.9,448.13 77.17,444.63 77.18,441.76 76.25,439.85 77.19,439.22 77.51,437.31 79.38,437 80.64,435.73 80,437.95 86.25,437.34 88.44,437.99 90.29,444.36 93.08,449.15 96.21,449.16 101.84,446.95 103.4,447.27 104.97,445.69 106.53,446.01 107.46,447.92 109.65,447.93 114.95,450.82 117.44,455.6 119.94,455.61 119.32,454.33 120.88,454.02 121.51,452.11 121.2,450.52 120.58,451.47 119.33,450.51 120.9,448.61 119.65,447.97 119.33,449.56 118.71,449.55 114.97,446.04 115.91,444.13 114.67,440.94 115.93,439.68 111.88,435.2 114.39,432.67 111.58,432.02 111.27,430.74 112.53,429.79 111.6,427.24 109.72,426.92 107.86,423.73 106.61,423.72 105.37,422.44 104.11,422.76 105.98,424.68 103.48,426.26 102.54,425.94 102.23,424.34 100.36,424.34 100.05,423.7 101.3,423.7 101.93,422.75 101.31,421.16 102.25,419.89 101.63,419.25 103.5,418.62 103.51,417.98 106.63,417.67 109.44,418.64 111.01,417.37 113.19,418.33 115.69,417.07 115.07,415.79 116.95,415.16 117.27,413.57 121.03,409.44 126.34,409.14 127.28,410.1 128.53,409.47 130.71,411.71 130.7,412.98 133.2,413.94 134.76,412.67 134.14,412.03 135.7,411.72 135.71,410.77 134.46,409.81 133.83,410.44 132.59,409.16 133.53,408.53 132.28,407.25 133.54,406.3 132.92,404.39 131.67,404.38 132.93,401.52 132.3,400.57 132.93,398.98 131.69,398.02 132.94,398.02 133.26,396.43 132.63,395.47 133.57,395.79 134.51,393.57 132.65,391.01 131.71,391.33 131.09,389.74 129.22,389.41 125.17,386.85 125.79,385.9 127.67,385.58 127.67,384.95 126.11,385.26 125.8,382.71 127.99,383.04 127.37,381.44 128.31,381.13 128.31,379.22 131.13,376.36 132.07,377.32 133.64,375.41 134.57,375.1 135.51,376.06 137.7,375.43 137.38,377.02 138,377.34 138.94,376.39 139.56,377.03 139.56,379.57 138.61,380.84 139.86,381.8 140.8,380.21 141.74,380.85 142.68,379.58 144.55,381.82 145.79,382.14 146.73,381.19 151.73,380.25 153.6,381.53 153.92,380.57 155.79,380.26 156.41,382.49 157.35,381.54 160.16,382.19 160.15,384.41 160.78,383.78 162.96,385.7 165.46,385.39 166.39,386.34 167.65,384.12 173.28,381.27 172.34,380.63 172.97,379.36 172.04,377.13 170.79,376.49 171.73,375.21 170.8,374.26 170.81,372.35 167.68,372.34 165.82,369.78 166.76,368.83 165.82,367.24 166.76,367.24 166.14,365.01 167.08,365.01 166.77,363.74 168.03,362.15 173.96,363.12 176.43,371.09 178.93,370.78 179.55,372.05 181.43,371.1 180.49,370.46 180.81,369.83 184.24,368.24 184.56,368.88 183.62,369.52 184.86,371.75 186.11,372.39 186.42,371.43 187.36,371.44 187.67,372.71 188.6,372.71 188.3,371.12 191.42,369.86 191.11,369.22 189.55,369.21 190.8,367.31 194.24,368.59 193,365.4 191.75,365.4 193.31,363.81 190.5,362.85 190.51,359.35 188.64,359.66 188.33,358.7 189.27,357.75 187.71,356.79 186.47,353.6 187.1,352.97 186.47,352.65 186.48,350.1 186.8,349.15 189.61,348.83 189.6,350.11 191.16,350.11 191.48,349.16 194.29,348.53 194.93,344.71 195.55,345.03 197.11,343.12 196.18,340.89 196.81,339.94 198.68,340.58 198.99,341.54 201.18,341.86 202.43,341.23 203.36,342.5 203.99,342.19 205.24,339.32 203.99,338.68 205.56,337.09 207.74,337.1 208.69,335.19 207.13,334.87 204.95,330.41 205.9,327.86 204.65,327.54 206.84,326.59 205.9,325.63 206.22,324.36 207.15,324.68 206.84,323.72 208.09,323.73 208.41,321.82 210.91,321.5 212.16,320.55 212.15,321.51 213.71,322.78 214.34,321.51 213.09,321.51 212.78,319.92 214.03,319.6 216.21,321.2 217.78,319.61 219.96,319.62 220.59,318.66 220.28,316.11 221.84,316.44 221.85,315.48 223.09,315.17 223.41,313.57 224.66,312.94 224.97,313.9 225.6,313.26 226.53,313.9 227.46,317.72 228.39,317.41 228.4,315.81 229.95,318.37 230.89,317.09 233.7,316.15 235.88,319.65 235.25,320.93 236.19,321.88 238.38,320.62 239.64,315.2 242.14,314.25 242.76,315.21 241.2,315.84 241.19,319.67 242.75,320.31 242.75,319.03 244.93,319.99 245.87,319.04 248.67,320.96 249.3,320.64 250.23,322.55 250.86,320.96 252.11,321.92 252.42,320.97 253.67,321.29 253.05,320.01 256.17,319.38 254.92,318.1 255.86,318.11 255.86,315.88 257.11,316.52 257.43,315.56 255.87,313.97 257.43,313.97 259.3,316.52 261.79,317.16 261.48,317.8 262.72,318.44 263.35,319.72 262.72,321.31 261.47,320.35 262.4,322.9 263.34,323.86 264.59,321.63 265.53,321.63 267.08,323.86 264.89,326.41 265.83,327.04 265.2,328 265.83,328.32 265.51,329.59 266.45,329.91 266.45,327.36 267.7,327.37 268.32,329.92 269.88,331.51 268.94,332.15 268.62,336.29 269.56,335.97 270.49,337.88 273.29,340.12 274.85,340.44 277.35,339.49 279.22,341.08 280.47,340.13 281.41,340.45 282.04,338.86 283.6,338.86 285.79,336.64 286.1,338.55 287.03,338.23 291.09,339.83 292.65,339.2 294.21,336.97 295.15,337.29 297.97,334.43 299.53,334.43 301.08,336.03 303.27,336.35 305.46,334.13 307.65,329.67 308.59,329.35 310.14,331.59 312.33,331.27 313.89,331.91 314.82,333.5 318.26,332.55 320.75,333.51 321.38,331.92 323.25,331.61 326.37,332.89 327.31,331.93 332.93,330.67 335.43,327.49 343.24,328.13 348.86,324.64 349.48,326.87 357.29,324.33 360.72,326.88 363.22,326.25 369.46,329.12 383.19,332.64 384.12,332 391.3,332.65 400.04,331.7 402.54,330.43 437.52,293.83 454.38,277.27 456.87,275.36 462.8,274.09 478.09,259.44 487.76,254.67 495.25,249.89 492.44,248.3 492.44,246.38 493.38,245.75 491.5,243.84 492.13,242.88 489.95,237.47 491.19,236.19 492.75,236.51 491.82,233.96 493.06,231.1 495.25,231.73 496.18,230.78 497.74,227.27 496.81,225.68 502.11,222.5 502.42,221.22 504.29,219.95 502.73,217.72 503.35,216.76 506.47,216.44 509.9,214.85 513.33,215.49 514.27,214.21 513.02,212.3 513.02,208.8 512.08,208.8 512.4,207.52 511.77,206.89 512.08,205.93 517.07,203.06 514.27,200.83 515.82,193.51 519.56,192.23 522.99,187.77 522.68,185.22 520.81,181.72 522.68,179.81 524.24,180.12 525.17,177.89 521.74,175.67 522.36,173.43 519.56,171.52 519.25,169.93 520.49,169.61 521.12,168.34 522.05,168.66 521.74,167.38 522.99,166.43 522.99,165.47 522.05,165.15 525.17,161.97 526.41,161.97 525.17,163.56 527.35,164.83 527.66,163.56 529.22,162.28 530.47,161.96 533.27,162.92 533.89,161.01 532.33,159.1 532.33,156.87 535.76,154.95 536.38,153.04 539.81,154 540.44,155.59 541.37,154.95 541.68,152.72 540.43,149.22 540.74,148.26 538.56,145.71 539.18,144.12 538.25,142.21 536.69,141.25 534.2,142.21 534.2,141.25 533.26,140.94 533.89,140.3 532.95,139.02 532.95,137.11 531.39,135.84 532.95,132.65 529.83,130.74 528.27,131.06 528.59,130.11 527.34,127.56 528.27,123.73 522.97,121.82 524.53,120.23 522.97,115.13 518.92,112.27 518.92,110.35 520.79,105.89 518.61,103.03 520.79,100.79 518.61,98.88 518.92,97.61 516.11,94.42 516.43,92.83 515.8,92.19 519.23,89.64 519.23,86.46 516.11,83.91 514.55,79.77 515.49,79.13 517.05,79.45 518.91,75.62 518.29,74.67 515.8,74.35 514.24,73.07 513.31,70.84 516.73,70.52 517.04,69.57 516.11,69.57 515.8,67.97 521.71,65.74 525.14,67.34 527.01,66.7 531.68,67.33 532.92,66.7 534.79,63.51 540.4,67.33 541.64,67.33 543.82,60.96 554.41,62.86 555.03,60.63 556.9,60.31 556.9,57.12 558.76,54.26 559.7,54.25 560.94,56.8 565.62,58.08 566.24,60.94 569.66,58.71 573.71,59.03 574.02,58.07 574.96,58.71 576.2,58.07 577.45,59.34 581.49,52.65 583.36,51.37 584.61,52.64 585.85,52.96 588.03,52 592.7,53.91 593.64,52.95 596.13,53.27 603.29,50.4 605.46,50.39 607.33,51.03 608.58,52.94 610.14,53.58 610.46,58.99 613.57,57.71 613.26,56.76 617.3,50.7 617.6,47.83 618.85,45.6 619.78,45.28 621.02,40.5 620.71,39.22 622.26,35.72 625.06,34.44 626.3,31.57 627.86,32.52 627.86,33.8 629.42,36.03 631.29,36.66 634.4,36.02 637.51,31.55 638.75,28.05 642.17,24.86 646.84,22.94 648.08,21.66 649.95,21.34 653.68,22.29 657.11,21.65 656.48,20.69 657.42,20.05 656.79,18.46 655.86,18.78 655.86,20.37 655.24,20.38 654.3,19.42 654.3,17.51 657.72,17.82 663.64,21.96 668,23.86 672.37,27.68 674.24,31.82 684.22,39.77 688.59,45.5 692.02,47.4 694.52,52.5 697.95,56.32 711.35,61.39 713.22,62.98 717.29,72.85 726.96,80.8 726.65,84.62 731.65,90.03 739.13,92.24 744.43,96.05 746.61,96.68 747.86,97.96 747.87,102.1 748.81,103.69 751.93,104.96 760.67,110.99 764.1,114.8 767.23,120.85 771.6,124.66 776.28,127.2 780.66,131.65 782.23,136.42 788.78,138.32 790.03,140.55 792.53,142.45 792.53,144.68 789.42,146.6 788.49,148.83 789.12,150.42 793.49,154.55 796.01,161.24 795.39,163.47 796.65,167.29 797.58,168.24 801.64,168.55 803.84,176.83 803.53,178.42 806.04,182.55 809.47,184.46 813.84,183.49 816.96,184.43 825.68,182.82 834.42,186.29 840.65,186.59 846.6,191.99 849.71,192.3 856.88,191.32 859.07,191.95 865.01,199.57 871.58,206.24 870.67,211.98 871.62,215.16 875.68,217.69 883.78,217.67 885.35,219.25 884.74,223.71 880.7,228.19 880.41,232.33 881.03,233.6 882.6,235.51 890.1,238.67 898.85,244.69 888.59,252.69 884.88,263.85 872.78,282.68 857.64,326.36 926.07,424.51 930.74,421.63 935.75,423.2 935.13,424.48 935.17,435.94 936.47,446.76 935.88,456.95 941.52,459.47 944.97,462.64 950.08,489.69 944.53,508.81 944.87,515.49 942.07,518.37 942.72,523.78 949,531.08 953.12,545.07 952.5,546.66 953.45,549.52 958.17,554.6 962.55,554.58 966.31,556.15 970.08,560.28 971.03,563.45 972.7,587.32 973.98,594.64 972.75,599.1 969.64,604.21 967.15,606.13 964.69,616.32 961.89,620.16 961,632.57 961.36,643.39 958.57,651.05 956.39,653.6 954.51,653.93 923.45,636.86 917.84,641.02 903.15,649.04 898.16,652.87 899.73,654.14 901.32,662.09 900.39,663.37 895.39,666.25 898.86,674.52 890.49,697.46 894.9,704.45 896.49,709.54 896.18,711.13 899.32,713.98 900.27,716.53 912.83,724.44 920.67,725.36 922.24,726.31 921.94,730.45 917.62,747.65 916.37,749.25 905.11,755.02 902.31,758.85 899.23,774.14 899.26,783.05 900.22,787.82 899.29,792.28 897.43,797.7 895.25,800.57 886.18,807.28 885.56,809.83 886.83,813.01 886.84,815.56 884.97,818.11 873.09,828.02 867.76,828.03 859.28,825.2 855.2,825.21 851.14,827.45 828.58,835.16 825.77,836.76 823.88,836.77 820.44,839.32 814.19,846.02 811.71,855.58 811.72,858.12 813.94,866.71 816.77,871.8 823.38,877.19 821.5,880.37 816.19,886.75 808.68,892.82 799.26,890.3 792.68,893.82 791.43,895.1 789.56,899.88 789.27,909.74 788.34,911.97 777.7,925.69 771.14,938.11 763.31,943.86 758.29,944.51 756.11,952.47 752.67,958.84 751.74,963.3 759.02,988.11 760.02,1012.29 753.13,1019.95 749.07,1028.55 748.45,1032.37 749.4,1039.37 748.16,1042.87 740.64,1055.3 739.09,1061.03 738.16,1070.26 719.64,1076.35 708.95,1076.69 702.04,1078.93 695.75,1073.21 679.72,1075.47 673.76,1078.66 672.82,1082.48 642.33,1080.93 641.08,1082.53 642.34,1083.48 642.97,1086.34 644.86,1086.02 645.17,1086.98 644.55,1089.21 643.6,1088.57 642.03,1089.53 642.66,1091.44 641.09,1092.71 639.84,1092.71 640.78,1093.98 644.24,1094.94 643.93,1096.21 640.47,1097.8 640.47,1098.44 643.62,1101.62 641.74,1103.53 641.74,1104.8 644.88,1105.12 644.57,1106.07 642.06,1107.35 644.57,1109.89 643.63,1112.76 638.92,1114.67 639.87,1116.26 641.44,1116.58 641.13,1118.81 642.39,1120.4 642.39,1121.67 639.25,1124.86 639.25,1127.72 634.85,1128.36 633.6,1129.96 634.23,1132.5 636.43,1133.45 636.74,1132.18 638,1132.18 638.95,1134.09 638.01,1138.54 638.96,1140.45 638.64,1142.68 633.3,1143.96 633.3,1144.6 636.76,1145.86 637.08,1146.82 634.88,1151.6 635.83,1154.78 634.89,1158.92 635.21,1159.55 637.41,1159.23 637.41,1161.78 637.1,1163.05 634.9,1164.96 632.07,1164.01 629.87,1164.33 628.3,1167.52 628.61,1169.43 625.47,1171.34 627.36,1172.93 626.42,1176.11 627.05,1178.02 630.2,1182.15 633.04,1184.06 631.78,1185.34 631.47,1192.02 630.53,1193.93 631.16,1194.88 635.57,1195.51 631.17,1198.07 628.66,1203.8 632.75,1204.43 632.43,1206.66 629.92,1208.25 629.29,1207.62 627.4,1209.53 627.41,1211.44 633.7,1213.02 632.13,1217.48 634.03,1220.98 632.14,1224.8 634.35,1226.39 632.15,1228.62 632.46,1231.16 631.84,1231.8 633.41,1234.66 633.42,1236.89 635.94,1239.43 634.37,1243.26 635,1245.8 634.06,1247.71 633.12,1248.03 632.8,1250.58 635.64,1251.21 636.27,1252.48 637.84,1253.12 638.16,1254.39 635.96,1256.94 635.34,1262.35 633.13,1262.67 632.19,1263.63 632.82,1264.9 634.71,1264.9 635.34,1265.85 632.83,1271.27 630.31,1273.5 631.58,1277.95 628.12,1280.18 627.49,1282.73 624.97,1282.73 623.4,1281.46 621.82,1281.78 620.25,1285.29 618.68,1286.88 622.15,1293.88 622.16,1298.01 619.64,1303.11 617.76,1304.07 615.24,1308.21 616.19,1316.48 615.57,1318.07 614.31,1318.71 615.25,1320.62 617.15,1321.89 618.09,1324.12 622.84,1341.62 624.73,1343.85 626.31,1344.16 629.77,1347.34 632.93,1351.79 633.56,1353.38 632.3,1354.66 633.89,1361.02 630.12,1371.85 630.44,1373.12 626.97,1374.4 626.03,1375.68 625.72,1385.22 627.93,1387.77 627.62,1389.36 625.42,1392.23 625.42,1393.5 627,1395.09 627,1396.05 625.74,1397.96 625.11,1401.78 622.6,1405.92 622.29,1412.29 620.4,1418.97 620.72,1421.84 618.53,1433.62 616.64,1438.71 615.07,1439.99 616.65,1441.58 616.65,1442.53 613.5,1445.08 614.45,1448.58 613.19,1450.5 610.04,1450.82 609.72,1452.09 610.67,1453.68 609.41,1458.78 609.73,1461.32 620.16,1478.5 624.89,1483.91 624.27,1487.41 627.43,1495.37 625.86,1499.19 624.3,1512.24 622.43,1531.99 622.13,1544.72 625.91,1546.63 628.46,1565.73 629.73,1567.64 631.31,1567.63 631.94,1569.23 635.1,1570.18 636.36,1572.09 639.52,1574.31 642.36,1574.31 642.99,1574.94 642.68,1576.85 644.58,1579.4 644.58,1580.99 645.84,1581.31 645.85,1585.45 646.8,1588.31 646.17,1591.5 646.5,1599.46 647.13,1600.09 646.5,1602.64 641.45,1603.6 635.14,1602.97 631.03,1604.57 631.09,1650.11 632.68,1657.75 634.89,1659.65 640,1697.23 629.58,1706.16 635.28,1716.66 636.24,1725.9 635.93,1726.85 632.77,1728.45 626.14,1734.19 623.94,1746.61 621.1,1754.58 624.58,1759.35 629.96,1762.53 630.28,1763.81 629.04,1785.79 629.68,1790.88 628.11,1799.17 627.81,1808.09 636.35,1814.13 643.31,1813.8 646.17,1820.17 642.7,1826.86 643.65,1832.59 643.34,1837.06 638.92,1839.61 632.91,1845.03 629.76,1851.73 626.6,1855.87 628.18,1859.69 629.78,1869.89 631.68,1875.62 633.27,1876.57 632.32,1877.21 632,1878.81 630.42,1879.44 630.74,1881.04 630.11,1881.99 627.26,1883.27 626.63,1886.78 624.73,1887.42 624.74,1888.37 623.15,1888.69 622.21,1890.29 619.04,1892.52 619.05,1896.66 620.95,1897.62 621.9,1897.3 623.48,1898.89 622.85,1899.53 623.17,1900.8 624.75,1902.39 624.75,1903.67 623.49,1903.99 622.54,1906.54 618.75,1910.37 620.66,1920.56 619.08,1929.8 619.41,1938.72 575.08,1943.55 564.94,1943.23 564.31,1943.87 557.98,1944.19 545.62,1943.24 542.46,1943.88 542.46,1945.48 538.34,1945.16 536.12,1945.48 536.44,1946.43 535.81,1946.75 533.59,1946.44 528.21,1947.39 528.21,1948.35 530.74,1948.03 531.37,1949.94 518.07,1948.03 501.92,1947.08 474.05,1948.99 432.87,1954.07 340.99,1969.6 323.25,1974.04 316.91,1974.67 278.25,1983.2" fill="none" stroke="#1e1e1e" stroke-width="1.52" stroke-linecap="round" stroke-linejoin="round"/>
<text x="478.8" y="901.1" font-family="sans-serif" font-size="14" stroke="#ffffff" stroke-opacity="0.784" stroke-width="2.33" stroke-linejoin="round" paint-order="stroke" fill="#141414">Benin</text>
</svg>
