<?xml version="1.0" encoding="UTF-8" standalone="no"?>
<svg xmlns="http://www.w3.org/2000/svg" width="2000" height="1030" viewBox="0 0 2000 1030">
<rect width="2000" height="1030" fill="#ffffff"/>
<path d="M19.74,728.43L23.3,722.61L25.62,722.64L27.96,721.37L26.84,718.09L26.26,718.08L26.32,713.52L31.08,705.11L36.34,701.92L37.49,702.59L39.25,701.31L43.88,702.02L45.06,700.73L45.68,697.48L45.13,694.86L51.05,685.81L53.47,678.67L52.97,672.14L54.19,667.59L53.14,659.76L67.7,654.08L70.08,649.54L89.21,649.14L97.89,650.55L99.65,648.62L109.54,645.48L110.15,643.53L112.46,644.21L114.8,642.28L115.4,640.33L116.5,645.56L118.23,646.24L122.87,645.64L137.88,651.04L141.3,655.65L140.66,660.85L144.67,664.81L144.04,668.72L149.2,674L149.75,676.61L161.83,684.58L163.58,683.95L168.87,677.49L171.79,675.56L178.19,673.68L182.24,674.38L189.83,669.9L193.31,669.94L198.55,668.04L203.77,668.1L206.11,666.17L209.06,660.99L209.68,657.73L206.93,644.01L208.12,641.41L208.16,637.5L209.89,638.82L214.54,637.57L216.9,633.03L222.14,631.13L223.32,629.19L226.22,628.57L233.26,620.82L239.06,620.23L246.04,617.04L249.53,616.43L255.89,617.15L257.07,615.2L257.7,609.99L257.13,609.33L261.23,604.81L262.43,600.91L261.36,592.42L261.97,589.82L265.44,589.86L267.78,587.27L267.24,584.01L273.08,578.85L269.69,570.34L267.38,569.66L266.83,567.05L265.1,566.38L266.29,563.78L264.59,559.85L265.77,557.91L260.04,551.98L260.07,549.37L261.83,546.78L260.7,543.51L259.53,545.46L253.74,545.4L252.6,543.43L252.62,541.47L249.74,540.79L247.48,535.55L242.26,536.15L237.64,535.45L236.5,534.13L237.12,529.57L233.69,526.28L234.29,523.67L233.73,522.36L234.91,520.42L233.17,520.4L229.72,518.41L228.55,519.7L225.13,515.1L225.81,505.98L227.55,505.34L225.31,498.15L225.91,496.2L230.57,493.64L232.33,491.05L231.77,489.09L233.53,486.5L233.55,485.2L229.53,481.89L232.49,476.06L231.35,474.74L234.86,470.21L237.19,468.93L238.91,470.26L244.12,469.66L247.04,467.08L249.4,462.54L252.29,462.57L258.09,460.68L259.26,458.73L259.3,455.47L262.2,454.2L264.03,445.09L262.89,443.77L258.28,442.42L257.14,441.1L258.31,439.16L258.33,437.2L256.61,435.88L257.21,433.93L251.49,428L248.61,427.32L246.91,424.04L245.76,424.03L244.61,422.72L245.78,421.42L245.81,418.82L247.58,414.92L247.03,412.96L245.31,411.64L246.47,411L246.5,408.39L247.67,407.1L249.41,405.81L252.3,405.84L252.89,404.54L251.77,401.27L254.67,400L262.24,394.21L265.75,389.68L269.8,389.07L271.57,385.83L274.46,385.2L276.21,383.92L273.94,379.98L274.53,378.03L278.02,376.11L277.49,371.54L282.73,367.03L282.77,362.47L283.95,360.52L285.17,353.36L290.94,354.07L297.88,352.18L301.96,348.31L303.7,347.68L302,344.4L299.13,343.07L299.15,341.11L302.65,337.23L300.93,335.26L300.39,331.34L298.67,330.67L298.69,328.72L299.86,326.77L300.47,323.52L299.91,322.21L301.68,318.31L302.3,313.1L304.61,313.12L308.13,307.29L307.59,303.37L308.19,301.42L309.34,300.78L313.38,301.47L315.7,299.54L320.33,298.28L326.71,294.43L325.62,287.9L326.78,286.6L326.79,285.3L330.26,284.68L332.6,280.79L334.93,278.2L338.99,275.63L340.76,271.74L345.41,267.87L347.71,267.89L350.04,265.95L356.94,267.97L359.82,267.34L362.12,268.02L369.1,261.56L371.4,261.58L372.57,260.28L374.29,260.95L375.46,259.01L379.52,256.43L384.71,256.48L388.8,249.34L393.44,246.12L396.91,244.84L399.3,235.08L402.2,232.5L402.79,230.55L402.25,226.63L404.57,224.04L406.88,224.06L411.51,221.49L409.25,216.26L412.13,215.63L413.88,213.03L414.48,210.43L416.8,208.49L418.52,209.16L423.15,207.24L423.16,205.28L426.06,203.35L426.67,198.79L426.11,196.83L429.01,194.9L433.66,189.07L433.15,181.24L434.9,177.99L434.38,170.16L433.24,169.5L439.03,164.98L440.75,165.65L442.48,165.01L445.41,159.16L443.7,156.54L442.55,156.53L440.27,153.91L438.55,153.24L439.14,150.64L441.46,149.35L442.05,147.4L447.25,144.18L447.85,140.92L451.33,137.69L453.09,133.14L455.99,129.9L459.46,127.97L459.47,126.02L465.27,120.84L465.86,118.89L465.29,117.58L466.46,115.64L465.89,114.33L467.05,113.03L468.79,111.74L474.51,115.04L478.54,115.07L481.97,118.36L483.12,117.71L483.15,114.45L492.43,104.09L491.3,100.82L491.32,98.21L496.52,94.99L502.26,96.33L504.02,91.13L506.91,88.54L506.93,86.58L509.25,83.34L514.45,78.81L516.21,74.91L517.93,74.92L516.8,72.3L517.98,67.1L519.71,67.11L525.47,64.54L531.22,64.58L534.08,66.55L539.86,62.68L543.89,61.4L546.17,64.02L547.33,62.72L553.06,64.72L554.23,62.11L555.38,62.77L556.53,62.13L559.97,62.8L562.3,58.9L562.89,56.3L565.77,54.36L570.94,55.04L572.66,56.36L578.98,57.05L585.29,59.04L588.72,62.97L590.45,61.68L592.17,61.69L594.48,59.75L595.65,57.14L601.43,50.66L602.57,51.97L606.03,50.68L607.74,52.65L612.34,53.33L615.2,55.3L614.64,52.69L616.96,48.79L618.11,48.79L620.42,46.85L620.42,45.54L622.73,44.25L623.32,41.65L625.05,39.7L624.49,37.74L620.47,36.41L618.2,31.19L617.06,30.53L617.06,29.22L619.36,29.24L621.67,27.29L622.26,25.34L623.4,26L626.85,25.36L627.44,22.76L629.17,21.46L630.92,16.25L630.93,13.65L633.81,13.66L637.8,19.55L642.97,18.92L645.85,17.63L648.14,19.6L651.58,20.92L653.29,24.19L657.86,28.13L664.76,26.86L669.37,24.92L670.51,25.58L671.08,28.19L672.8,28.2L675.66,32.12L675.64,35.38L679.65,38.01L685.94,44.56L685.36,47.16L689.93,51.75L690.49,55.66L693.37,55.68L696.23,56.99L700.85,53.1L703.15,52.46L707.75,53.13L714.65,51.85L718.65,56.43L724.98,55.8L726.72,51.25L733.04,50.62L736.5,48.02L742.22,56.52L744.51,57.18L746.23,59.14L747.95,59.8L747.37,61.76L750.81,65.03L752.54,64.38L757.71,65.05L763.43,73.55L764.56,78.77L763.4,81.37L767.42,84.65L772.01,85.97L773.74,85.97L779.51,77.51L780.67,74.25L784.7,72.96L787,73.62L790.45,72.98L795.62,73.65L801.36,76.27L807.13,71.07L810.58,70.43L820.37,64.58L820.95,60.67L818.1,49.58L820.41,48.94L825.58,49.6L836.5,48.97L837.64,50.28L842.24,50.29L844.54,51.6L846.83,54.21L853.72,58.14L857.16,61.41L857.73,65.97L856.57,67.93L862.31,71.85L863.46,73.81L868.06,76.43L869.78,79.04L874.95,78.39L876.67,79.05L889.33,76.46L891.05,75.16L896.22,82.34L897.37,81.69L901.98,74.52L906,73.88L908.3,74.53L909.45,72.58L912.91,71.28L916.36,68.67L920.38,73.9L925.55,73.9L931.29,82.38L937.04,86.95L945.08,101.96L950.25,107.18L952.55,105.87L956,111.75L957.72,112.4L961.17,122.18L961.17,126.75L962.89,129.36L963.46,131.96L965.19,133.92L968.07,135.23L973.82,134.58L978.42,133.27L980.73,130.01L984.18,129.36L989.36,132.62L993.38,131.32L999.71,132.63L1001.44,134.58L1002.01,133.93L1004.32,133.93L1005.47,135.23L1007.77,143.06L1011.22,145.01L1019.85,144.36L1028.48,142.4L1030.21,141.1L1032.51,137.18L1034.24,137.18L1039.99,132.61L1041.14,132.61L1052.65,136.52L1054.95,139.78L1056.68,139.78L1065.31,143.03L1067.04,142.37L1069.92,143.02L1076.83,148.23L1077.41,150.19L1078.56,150.19L1079.14,154.1L1080.29,156.05L1083.17,156.05L1084.9,160.61L1087.2,160.61L1087.78,158.65L1089.5,158.65L1095.83,153.43L1103.3,144.94L1108.48,144.28L1110.2,145.58L1115.96,144.92L1118.83,142.31L1120.56,142.3L1124.58,138.38L1126.3,137.73L1130.33,138.37L1132.63,136.41L1133.78,136.41L1134.93,135.11L1135.5,131.84L1139.52,129.88L1141.82,126.62L1146.99,122.69L1151.02,123.34L1152.75,124.64L1153.9,127.89L1156.21,129.85L1165.42,130.48L1166.57,131.78L1167.15,134.39L1174.07,138.93L1179.83,141.53L1183.86,142.82L1185.01,142.17L1188.47,144.77L1194.21,141.49L1195.95,145.4L1198.84,148.65L1204.58,144.72L1206.31,144.06L1208.04,146.02L1209.76,144.05L1213.21,142.74L1215.51,143.38L1216.09,144.69L1217.82,145.33L1220.69,144.67L1221.28,146.63L1223.01,147.93L1224.73,147.27L1225.88,147.92L1228.75,144L1230.47,143.34L1240.26,145.26L1240.25,140.7L1242.55,140.69L1243.13,141.34L1246.58,141.33L1252.35,145.87L1254.07,145.21L1256.96,147.16L1259.83,146.5L1260.41,147.8L1262.72,148.44L1266.18,151.04L1263.9,156.26L1270.81,158.19L1271.39,157.54L1274.26,157.53L1277.71,155.56L1279.43,152.94L1277.69,150.34L1280.56,149.03L1281.13,147.72L1284,145.75L1283.43,147.06L1285.16,148.36L1286.31,148.35L1288.05,150.3L1291.5,150.94L1293.82,154.19L1293.25,156.8L1293.84,159.41L1296.73,161.35L1297.89,163.95L1301.35,165.24L1302.51,167.85L1304.24,169.14L1307.12,169.13L1308.28,171.74L1311.75,173.68L1314.05,173.67L1316.92,171.05L1318.65,171.69L1319.19,164.51L1320.91,161.9L1324.35,160.58L1324.36,161.23L1329.54,161.21L1330.68,159.9L1336.44,160.52L1337.58,158.56L1339.89,159.86L1341.06,164.41L1345.69,168.3L1346.84,168.3L1349.15,170.9L1354.33,170.22L1354.93,174.13L1360.7,176.71L1365.32,179.94L1367.04,179.28L1366.45,174.72L1368.16,172.1L1369.89,172.1L1371.04,173.39L1376.23,174.02L1376.81,175.32L1379.12,175.96L1381.99,175.29L1383.14,173.98L1386.03,175.92L1388.93,179.82L1391.23,179.81L1392.37,178.5L1393.53,179.14L1398.12,177.16L1409.08,180.36L1412.54,180.34L1413.68,179.03L1414.83,179.02L1415.4,177.06L1417.7,176.4L1417.69,175.09L1421.71,173.11L1429.8,178.28L1435.01,182.81L1441.92,184.08L1445.37,182.75L1449.38,179.46L1448.2,175.56L1449.34,172.29L1449.85,162.51L1455.01,159.87L1457.3,157.9L1457.87,155.94L1461.89,154.61L1462.43,149.39L1465.86,146.1L1468.13,141.52L1468.12,139.57L1466.39,138.93L1467.52,136.31L1466.92,132.4L1469.22,132.39L1469.79,131.08L1472.66,130.41L1476.1,127.78L1479,131.02L1481.3,131L1481.87,130.35L1488.79,132.91L1492.24,132.23L1495.12,132.87L1496.26,130.9L1499.71,131.53L1502.61,134.12L1507.2,132.78L1513.54,133.39L1517.55,130.75L1519.85,130.73L1521.59,133.33L1522.19,135.93L1521.63,138.55L1522.22,141.15L1525.11,142.43L1528.56,141.76L1531.44,142.39L1533.16,141.72L1537.23,146.26L1543.01,149.47L1546.49,153.36L1553.97,153.3L1560.94,161.07L1564.4,161.7L1566.69,160.37L1568.42,160.36L1570.73,162.3L1573.62,162.93L1573.07,166.19L1574.83,170.74L1577.72,171.37L1581.71,166.77L1586.89,167.38L1588.63,168.67L1592.67,169.29L1592.14,175.16L1593.87,175.8L1598.57,186.2L1603.18,187.46L1607.86,195.25L1603.36,208.98L1609.74,213.49L1614.34,212.8L1618.96,214.06L1629.41,223.1L1631.14,223.74L1632.28,222.42L1633.44,222.41L1635.19,225L1640.96,225.6L1641.57,229.51L1643.32,232.76L1645.11,239.26L1646.83,238.59L1652.61,239.84L1653.74,237.88L1656.04,237.21L1656.03,235.9L1657.75,234.58L1663.5,233.88L1664.64,232.56L1666.37,232.55L1667.54,233.84L1668.14,236.44L1669.87,236.43L1676.82,240.92L1679.13,241.55L1682.01,240.87L1686.06,242.79L1686.07,244.1L1684.37,246.72L1682.07,247.39L1682.1,250L1683.86,253.9L1683.33,258.47L1682.2,261.09L1680.48,261.76L1678.2,264.39L1672.4,261.18L1671.27,263.15L1669.55,263.81L1667.85,267.09L1664.96,266.47L1664.35,263.21L1657.42,261.32L1654.54,262L1649.96,265.3L1647.08,265.33L1644.79,267.95L1644.24,269.92L1645.41,271.86L1642.53,273.19L1642.56,276.45L1640.85,277.77L1637.43,283.02L1636.87,284.33L1638.03,284.97L1636.89,286.28L1642.09,287.54L1644.42,290.78L1651.92,290.71L1657.72,293.92L1658.31,295.87L1660.04,295.85L1662.34,294.53L1664.03,291.25L1666.91,290.57L1670.38,291.19L1671.51,289.23L1676.68,287.22L1688.3,295.59L1691.82,302.07L1691.86,305.99L1693.02,306.63L1692.45,307.94L1693.66,313.14L1693.1,315.1L1693.7,317.71L1697.79,322.23L1697.83,326.79L1696.68,327.46L1696.17,333.98L1692.16,337.28L1692.78,341.19L1694.54,344.43L1692.32,353.58L1690.61,355.55L1690.62,356.86L1687.74,357.54L1689.52,362.74L1688.96,364.7L1689.56,367.3L1686.13,370.6L1676.93,373.94L1675.78,375.26L1675.24,378.52L1670.64,381.17L1668.96,386.41L1669.55,387.71L1666.67,389.04L1662.09,392.99L1659.2,392.37L1656.9,393.69L1656.92,396.3L1651.26,408.74L1651.31,413.96L1652.47,414.6L1652.49,416.55L1654.24,419.14L1658.9,422.36L1663.57,428.19L1661.29,431.47L1655.56,436.74L1653.31,443.93L1656.81,446.51L1656.83,449.12L1658.01,451.71L1661.49,452.98L1663.84,456.88L1662.72,461.45L1666.8,464.67L1669.17,470.52L1670.91,471.81L1680.14,469.76L1681.36,476.27L1685.48,483.41L1687.27,489.26L1688.42,489.25L1692.5,491.82L1694.26,495.06L1698.9,496.32L1700.66,498.26L1703.65,508.66L1707.7,508.62L1712.86,504L1716.32,502.67L1720.37,502.63L1722.09,501.3L1723.22,498.69L1722.63,498.04L1724.35,496.07L1726.65,494.74L1729.54,494.71L1731.3,497.3L1734.2,497.92L1735.37,499.21L1737.69,499.84L1741.15,499.15L1740.02,501.12L1738.99,514.17L1747.7,517.34L1757.53,516.59L1759.83,515.26L1760.97,513.29L1769.66,514.5L1769.71,519.07L1776.08,520.3L1782.41,516.97L1785.3,516.29L1788.17,514.3L1789.92,515.59L1792.78,512.95L1801.49,515.46L1803.24,517.4L1805.57,518.02L1814.75,511.4L1815.87,508.13L1817.58,506.15L1821.07,507.41L1821.66,508.71L1825.11,506.72L1826.87,509.3L1829.2,510.58L1830.41,515.13L1832.16,516.42L1835.6,513.77L1840.22,513.06L1844.88,515.61L1858.18,514.8L1860.47,513.47L1861.64,514.11L1865.17,519.29L1867.48,518.61L1869.24,520.54L1872.73,522.45L1874.45,521.13L1876.78,522.41L1880.24,521.71L1882.57,522.33L1884.86,520.35L1887.74,519.66L1888.88,518.34L1892.96,520.25L1898.71,517.57L1899.85,516.25L1900.38,512.33L1901.51,510.36L1904.39,509.67L1909.05,511.57L1911.34,509.59L1914.8,508.89L1915.98,510.83L1916.02,514.09L1918.42,520.58L1917.96,530.37L1920.92,534.89L1923.81,534.86L1924.98,536.15L1927.3,536.12L1929.64,538.04L1929.68,541.3L1930.86,543.24L1928.57,545.23L1926.89,549.16L1930.38,551.07L1936.84,558.16L1938.04,560.76L1936.98,568.59L1937.58,570.54L1934.19,576.46L1933.75,587.55L1936.68,590.12L1936.12,591.43L1942.58,598.52L1943.87,608.28L1955.63,621.17L1959.13,623.08L1962.61,623.03L1965.52,624.3L1976.64,632.62L1979.01,636.5L1979.06,639.76L1976.77,642.4L1976.79,643.71L1972.18,645.72L1969.86,645.1L1966.98,646.45L1964.08,646.49L1961.73,644.56L1960.59,645.88L1957.69,645.27L1957.12,645.93L1955.93,643.99L1953.02,643.37L1951.26,641.44L1951.24,640.14L1948.92,640.17L1947.78,641.49L1944.88,640.87L1943.74,642.84L1937.98,645.53L1933.93,646.23L1931.68,651.48L1929.37,652.16L1928.81,653.47L1929.42,655.42L1933.47,654.71L1934.64,656L1941.03,657.22L1941.66,660.48L1946.92,664.32L1948.11,666.26L1948.71,668.21L1948.22,674.74L1947.09,676.71L1947.68,678L1946.58,681.93L1943.13,684.58L1942.59,687.85L1940.89,690.48L1942.08,693.07L1940.41,698.31L1937.55,701.61L1928.31,704.34L1928.33,706.29L1923.74,710.27L1923.18,711.58L1923.24,716.14L1924.42,718.08L1923.87,720.05L1925.62,720.68L1926.83,724.57L1926.26,725.88L1928.63,729.11L1928.67,732.37L1927.53,734.34L1927.01,738.92L1921.35,750.07L1922.55,753.32L1925.5,756.54L1924.95,759.16L1926.74,763.05L1926.25,769.57L1930.4,776.69L1929.87,780.61L1931.06,782.55L1934.61,787.72L1937.52,788.34L1938.67,787.67L1945.1,790.2L1949.78,793.4L1950.36,792.74L1953.29,794.65L1956.19,794.61L1956.25,799.18L1954.55,802.46L1954.06,809.64L1962.24,812.79L1968.71,818.58L1969.95,824.43L1971.74,828.32L1970.02,829.64L1970.08,834.21L1973.01,836.12L1975.93,836.74L1978.87,839.31L1979.54,846.47L1977.82,847.8L1977.27,850.41L1974.98,853.05L1976.18,855.64L1975.61,856.3L1978.55,858.87L1978.01,862.14L1976.3,864.12L1977.5,867.36L1975.87,875.86L1978.81,878.43L1978.85,881.04L1977.23,890.19L1970.89,894.84L1970.47,906.59L1943.3,919.34L1921.17,917.67L1902.49,912.68L1890.13,901.1L1867.83,885.07L1847.94,874.87L1838.67,877.59L1827.65,879.67L1808.24,911.84L1749.83,945.08L1739.36,945.84L1731.25,949.83L1693.34,941.08L1673.64,951.05L1625.41,959.96L1624.25,959.31L1619.6,960.66L1616.11,960.69L1599.76,954.3L1589.23,947.87L1566.97,929.79L1548.57,958.62L1525.94,968.57L1502.05,964.83L1493.86,958.37L1489.18,955.79L1465.27,948.12L1434.42,947.01L1412.32,949.1L1386.09,942.07L1361.21,969.58L1326.25,963.23L1303.57,968.54L1306.46,964.62L1225,973.4L1178.43,974.83L1164.47,978.12L1153.99,978.15L1148.74,976.2L1138.83,967.74L1122.54,972.34L1115.54,961.27L1087.59,955.44L1065.47,947.63L1022.98,917.67L1012.5,907.24L989.82,889.63L953.19,892.22L953.19,894.18L952.02,895.48L951.44,898.09L948.53,901.35L948.53,905.91L946.78,910.48L942.71,913.73L921.17,926.1L896.74,920.86L890.93,918.89L874.63,925.39L862.98,935.15L853.62,958.6L854.19,964.47L857.68,966.43L860,970.35L859.41,972.96L857.08,975.56L857.65,978.82L789.48,999.52L772.58,1003.38L755.69,1002.03L728.3,1008.45L689.28,1007.64L667.77,999.07L664.85,999.7L667.14,1009.5L666.5,1021.23L636.24,1015.22L612.91,1020.96L610.61,1015.08L605.38,1011.79L604.85,1003.31L603.12,1000.04L601.37,1000.04L597.86,1002.62L594.95,1003.26L593.19,1004.55L591.44,1004.54L590.27,1005.84L586.77,1007.13L583.87,1005.15L582.14,1002.53L572.26,999.22L571.1,997.25L565.85,999.83L559.46,996.53L554.81,995.85L554.2,1000.41L547.15,1009.5L541.9,1010.12L541.92,1008.16L539.59,1006.84L536.68,1006.82L533.78,1004.85L527.95,1006.77L523.89,1003.48L524.49,1000.22L525.66,999.58L526.26,996.97L528.61,994.38L535.04,991.16L537.97,987.27L539.76,981.41L541.52,978.81L542.12,975.56L539.82,971.63L538.07,971.62L531.7,967.01L524.7,968.92L517.74,964.97L514.83,964.95L511.36,961.66L507.87,961.64L503.81,959.65L495.67,957.64L493.94,956.33L492.21,953.05L492.24,949.14L488.76,947.16L482.35,949.07L474.8,947.06L471.88,948.34L467.23,947.66L466.63,948.96L464.9,947.64L461.99,947.62L454.96,954.09L443.32,953.35L441.57,954.64L433.44,951.31L426.52,944.08L425.98,938.21L427.17,935.61L424.27,933.63L420.82,929.04L410.9,932.22L405.69,929.57L391.73,928.15L388.34,917.04L385.44,915.06L357.43,925.24L353.93,925.87L353.39,921.95L349.9,921.27L346.38,924.49L335.28,930.26L328.25,935.41L325.34,935.39L317.1,945.09L314.77,945.07L312.46,943.74L308.96,943.71L306.66,941.73L300.83,942.33L294.44,941.61L285.68,944.79L281.02,944.74L279.25,947.33L276.92,947.31L270.55,943.98L269.42,940.71L267.68,940.69L256.58,944.49L243.17,946.96L240.85,946.29L237.43,939.73L228.74,935.72L224.14,930.46L223.58,928.5L225.5,912.21L219.16,906.93L219.2,903.02L221.04,893.91L211.77,890.55L206.01,885.92L201.34,887.82L196.1,888.42L192.59,889.68L194.43,881.23L193.89,877.96L191.61,874.02L182.89,873.27L177.79,861.47L174.88,862.09L164.33,869.8L162.55,873.04L160.2,874.97L157.29,874.93L153.79,876.2L133.56,866.17L137.73,857.75L138.94,853.2L137.91,842.1L137.35,840.79L134.46,839.45L129.86,835.48L121.25,826.9L117.15,829.46L114.79,832.04L103.57,846.9L98.88,850.1L98.25,854L96.47,856.59L94.14,857.21L94.19,853.3L92.46,851.98L90.79,846.09L91.98,843.49L92.75,829.16L90.47,825.21L91.66,823.27L93.52,813.52L92.98,810.25L94.75,808.31L94.85,800.49L97.2,798.56L96.65,795.95L94.91,795.27L94.37,792.01L96.14,790.07L95.62,785.5L96.23,782.9L97.4,782.26L96.86,779L94,775.7L95.18,773.76L94.04,772.44L93.51,768.52L94.73,763.32L93.6,761.35L93.07,757.43L91.92,756.11L91.42,750.24L79.79,751.39L78.08,748.76L76.34,749.39L74.06,746.1L70.57,746.71L57.32,738.71L52.78,730.83L41.72,733.29L33.62,731.88L30.7,733.14L28.97,732.47L27.84,729.84L23.78,729.79L22.06,728.46L19.74,728.43Z" fill-rule="evenodd" fill="#4682b4" fill-opacity="0.471"/>
<polyline points="19.74,728.43 23.3,722.61 25.62,722.64 27.96,721.37 26.84,718.09 26.26,718.08 26.32,713.52 31.08,705.11 36.34,701.92 37.49,702.59 39.25,701.31 43.88,702.02 45.06,700.73 45.68,697.48 45.13,694.86 51.05,685.81 53.47,678.67 52.97,672.14 54.19,667.59 53.14,659.76 67.7,654.08 70.08,649.54 89.21,649.14 97.89,650.55 99.65,648.62 109.54,645.48 110.15,643.53 112.46,644.21 114.8,642.28 115.4,640.33 116.5,645.56 118.23,646.24 122.87,645.64 137.88,651.04 141.3,655.65 140.66,660.85 144.67,664.81 144.04,668.72 149.2,674 149.75,676.61 161.83,684.58 163.58,683.95 168.87,677.49 171.79,675.56 178.19,673.68 182.24,674.38 189.83,669.9 193.31,669.94 198.55,668.04 203.77,668.1 206.11,666.17 209.06,660.99 209.68,657.73 206.93,644.01 208.12,641.41 208.16,637.5 209.89,638.82 214.54,637.57 216.9,633.03 222.14,631.13 223.32,629.19 226.22,628.57 233.26,620.82 239.06,620.23 246.04,617.04 249.53,616.43 255.89,617.15 257.07,615.2 257.7,609.99 257.13,609.33 261.23,604.81 262.43,600.91 261.36,592.42 261.97,589.82 265.44,589.86 267.78,587.27 267.24,584.01 273.08,578.85 269.69,570.34 267.38,569.66 266.83,567.05 265.1,566.38 266.29,563.78 264.59,559.85 265.77,557.91 260.04,551.98 260.07,549.37 261.83,546.78 260.7,543.51 259.53,545.46 253.74,545.4 252.6,543.43 252.62,541.47 249.74,540.79 247.48,535.55 242.26,536.15 237.64,535.45 236.5,534.13 237.12,529.57 233.69,526.28 234.29,523.67 233.73,522.36 234.91,520.42 233.17,520.4 229.72,518.41 228.55,519.7 225.13,515.1 225.81,505.98 227.55,505.34 225.31,498.15 225.91,496.2 230.57,493.64 232.33,491.05 231.77,489.09 233.53,486.5 233.55,485.2 229.53,481.89 232.49,476.06 231.35,474.74 234.86,470.21 237.19,468.93 238.91,470.26 244.12,469.66 247.04,467.08 249.4,462.54 252.29,462.57 258.09,460.68 259.26,458.73 259.3,455.47 262.2,454.2 264.03,445.09 262.89,443.77 258.28,442.42 257.14,441.1 258.31,439.16 258.33,437.2 256.61,435.88 257.21,433.93 251.49,428 248.61,427.32 246.91,424.04 245.76,424.03 244.61,422.72 245.78,421.42 245.81,418.82 247.58,414.92 247.03,412.96 245.31,411.64 246.47,411 246.5,408.39 247.67,407.1 249.41,405.81 252.3,405.84 252.89,404.54 251.77,401.27 254.67,400 262.24,394.21 265.75,389.68 269.8,389.07 271.57,385.83 274.46,385.2 276.21,383.92 273.94,379.98 274.53,378.03 278.02,376.11 277.49,371.54 282.73,367.03 282.77,362.47 283.95,360.52 285.17,353.36 290.94,354.07 297.88,352.18 301.96,348.31 303.7,347.68 302,344.4 299.13,343.07 299.15,341.11 302.65,337.23 300.93,335.26 300.39,331.34 298.67,330.67 298.69,328.72 299.86,326.77 300.47,323.52 299.91,322.21 301.68,318.31 302.3,313.1 304.61,313.12 308.13,307.29 307.59,303.37 308.19,301.42 309.34,300.78 313.38,301.47 315.7,299.54 320.33,298.28 326.71,294.43 325.62,287.9 326.78,286.6 326.79,285.3 330.26,284.68 332.6,280.79 334.93,278.2 338.99,275.63 340.76,271.74 345.41,267.87 347.71,267.89 350.04,265.95 356.94,267.97 359.82,267.34 362.12,268.02 369.1,261.56 371.4,261.58 372.57,260.28 374.29,260.95 375.46,259.01 379.52,256.43 384.71,256.48 388.8,249.34 393.44,246.12 396.91,244.84 399.3,235.08 402.2,232.5 402.79,230.55 402.25,226.63 404.57,224.04 406.88,224.06 411.51,221.49 409.25,216.26 412.13,215.63 413.88,213.03 414.48,210.43 416.8,208.49 418.52,209.16 423.15,207.24 423.16,205.28 426.06,203.35 426.67,198.79 426.11,196.83 429.01,194.9 433.66,189.07 433.15,181.24 434.9,177.99 434.38,170.16 433.24,169.5 439.03,164.98 440.75,165.65 442.48,165.01 445.41,159.16 443.7,156.54 442.55,156.53 440.27,153.91 438.55,153.24 439.14,150.64 441.46,149.35 442.05,147.4 447.25,144.18 447.85,140.92 451.33,137.69 453.09,133.14 455.99,129.9 459.46,127.97 459.47,126.02 465.27,120.84 465.86,118.89 465.29,117.58 466.46,115.64 465.89,114.33 467.05,113.03 468.79,111.74 474.51,115.04 478.54,115.07 481.97,118.36 483.12,117.71 483.15,114.45 492.43,104.09 491.3,100.82 491.32,98.21 496.52,94.99 502.26,96.33 504.02,91.13 506.91,88.54 506.93,86.58 509.25,83.34 514.45,78.81 516.21,74.91 517.93,74.92 516.8,72.3 517.98,67.1 519.71,67.11 525.47,64.54 531.22,64.58 534.08,66.55 539.86,62.68 543.89,61.4 546.17,64.02 547.33,62.72 553.06,64.72 554.23,62.11 555.38,62.77 556.53,62.13 559.97,62.8 562.3,58.9 562.89,56.3 565.77,54.36 570.94,55.04 572.66,56.36 578.98,57.05 585.29,59.04 588.72,62.97 590.45,61.68 592.17,61.69 594.48,59.75 595.65,57.14 601.43,50.66 602.57,51.97 606.03,50.68 607.74,52.65 612.34,53.33 615.2,55.3 614.64,52.69 616.96,48.79 618.11,48.79 620.42,46.85 620.42,45.54 622.73,44.25 623.32,41.65 625.05,39.7 624.49,37.74 620.47,36.41 618.2,31.19 617.06,30.53 617.06,29.22 619.36,29.24 621.67,27.29 622.26,25.34 623.4,26 626.85,25.36 627.44,22.76 629.17,21.46 630.92,16.25 630.93,13.65 633.81,13.66 637.8,19.55 642.97,18.92 645.85,17.63 648.14,19.6 651.58,20.92 653.29,24.19 657.86,28.13 664.76,26.86 669.37,24.92 670.51,25.58 671.08,28.19 672.8,28.2 675.66,32.12 675.64,35.38 679.65,38.01 685.94,44.56 685.36,47.16 689.93,51.75 690.49,55.66 693.37,55.68 696.23,56.99 700.85,53.1 703.15,52.46 707.75,53.13 714.65,51.85 718.65,56.43 724.98,55.8 726.72,51.25 733.04,50.62 736.5,48.02 742.22,56.52 744.51,57.18 746.23,59.14 747.95,59.8 747.37,61.76 750.81,65.03 752.54,64.38 757.71,65.05 763.43,73.55 764.56,78.77 763.4,81.37 767.42,84.65 772.01,85.97 773.74,85.97 779.51,77.51 780.67,74.25 784.7,72.96 787,73.62 790.45,72.98 795.62,73.65 801.36,76.27 807.13,71.07 810.58,70.43 820.37,64.58 820.95,60.67 818.1,49.58 820.41,48.94 825.58,49.6 836.5,48.97 837.64,50.28 842.24,50.29 844.54,51.6 846.83,54.21 853.72,58.14 857.16,61.41 857.73,65.97 856.57,67.93 862.31,71.85 863.46,73.81 868.06,76.43 869.78,79.04 874.95,78.39 876.67,79.05 889.33,76.46 891.05,75.16 896.22,82.34 897.37,81.69 901.98,74.52 906,73.88 908.3,74.53 909.45,72.58 912.91,71.28 916.36,68.67 920.38,73.9 925.55,73.9 931.29,82.38 937.04,86.95 945.08,101.96 950.25,107.18 952.55,105.87 956,111.75 957.72,112.4 961.17,122.18 961.17,126.75 962.89,129.36 963.46,131.96 965.19,133.92 968.07,135.23 973.82,134.58 978.42,133.27 980.73,130.01 984.18,129.36 989.36,132.62 993.38,131.32 999.71,132.63 1001.44,134.58 1002.01,133.93 1004.32,133.93 1005.47,135.23 1007.77,143.06 1011.22,145.01 1019.85,144.36 1028.48,142.4 1030.21,141.1 1032.51,137.18 1034.24,137.18 1039.99,132.61 1041.14,132.61 1052.65,136.52 1054.95,139.78 1056.68,139.78 1065.31,143.03 1067.04,142.37 1069.92,143.02 1076.83,148.23 1077.41,150.19 1078.56,150.19 1079.14,154.1 1080.29,156.05 1083.17,156.05 1084.9,160.61 1087.2,160.61 1087.78,158.65 1089.5,158.65 1095.83,153.43 1103.3,144.94 1108.48,144.28 1110.2,145.58 1115.96,144.92 1118.83,142.31 1120.56,142.3 1124.58,138.38 1126.3,137.73 1130.33,138.37 1132.63,136.41 1133.78,136.41 1134.93,135.11 1135.5,131.84 1139.52,129.88 1141.82,126.62 1146.99,122.69 1151.02,123.34 1152.75,124.64 1153.9,127.89 1156.21,129.85 1165.42,130.48 1166.57,131.78 1167.15,134.39 1174.07,138.93 1179.83,141.53 1183.86,142.82 1185.01,142.17 1188.47,144.77 1194.21,141.49 1195.95,145.4 1198.84,148.65 1204.58,144.72 1206.31,144.06 1208.04,146.02 1209.76,144.05 1213.21,142.74 1215.51,143.38 1216.09,144.69 1217.82,145.33 1220.69,144.67 1221.28,146.63 1223.01,147.93 1224.73,147.27 1225.88,147.92 1228.75,144 1230.47,143.34 1240.26,145.26 1240.25,140.7 1242.55,140.69 1243.13,141.34 1246.58,141.33 1252.35,145.87 1254.07,145.21 1256.96,147.16 1259.83,146.5 1260.41,147.8 1262.72,148.44 1266.18,151.04 1263.9,156.26 1270.81,158.19 1271.39,157.54 1274.26,157.53 1277.71,155.56 1279.43,152.94 1277.69,150.34 1280.56,149.03 1281.13,147.72 1284,145.75 1283.43,147.06 1285.16,148.36 1286.31,148.35 1288.05,150.3 1291.5,150.94 1293.82,154.19 1293.25,156.8 1293.84,159.41 1296.73,161.35 1297.89,163.95 1301.35,165.24 1302.51,167.85 1304.24,169.14 1307.12,169.13 1308.28,171.74 1311.75,173.68 1314.05,173.67 1316.92,171.05 1318.65,171.69 1319.19,164.51 1320.91,161.9 1324.35,160.58 1324.36,161.23 1329.54,161.21 1330.68,159.9 1336.44,160.52 1337.58,158.56 1339.89,159.86 1341.06,164.41 1345.69,168.3 1346.84,168.3 1349.15,170.9 1354.33,170.22 1354.93,174.13 1360.7,176.71 1365.32,179.94 1367.04,179.28 1366.45,174.72 1368.16,172.1 1369.89,172.1 1371.04,173.39 1376.23,174.02 1376.81,175.32 1379.12,175.96 1381.99,175.29 1383.14,173.98 1386.03,175.92 1388.93,179.82 1391.23,179.81 1392.37,178.5 1393.53,179.14 1398.12,177.16 1409.08,180.36 1412.54,180.34 1413.68,179.03 1414.83,179.02 1415.4,177.06 1417.7,176.4 1417.69,175.09 1421.71,173.11 1429.8,178.28 1435.01,182.81 1441.92,184.08 1445.37,182.75 1449.38,179.46 1448.2,175.56 1449.34,172.29 1449.85,162.51 1455.01,159.87 1457.3,157.9 1457.87,155.94 1461.89,154.61 1462.43,149.39 1465.86,146.1 1468.13,141.52 1468.12,139.57 1466.39,138.93 1467.52,136.31 1466.92,132.4 1469.22,132.39 1469.79,131.08 1472.66,130.41 1476.1,127.78 1479,131.02 1481.3,131 1481.87,130.35 1488.79,132.91 1492.24,132.23 1495.12,132.87 1496.26,130.9 1499.71,131.53 1502.61,134.12 1507.2,132.78 1513.54,133.39 1517.55,130.75 1519.85,130.73 1521.59,133.33 1522.19,135.93 1521.63,138.55 1522.22,141.15 1525.11,142.43 1528.56,141.76 1531.44,142.39 1533.16,141.72 1537.23,146.26 1543.01,149.47 1546.49,153.36 1553.97,153.3 1560.94,161.07 1564.4,161.7 1566.69,160.37 1568.42,160.36 1570.73,162.3 1573.62,162.93 1573.07,166.19 1574.83,170.74 1577.72,171.37 1581.71,166.77 1586.89,167.38 1588.63,168.67 1592.67,169.29 1592.14,175.16 1593.87,175.8 1598.57,186.2 1603.18,187.46 1607.86,195.25 1603.36,208.98 1609.74,213.49 1614.34,212.8 1618.96,214.06 1629.41,223.1 1631.14,223.74 1632.28,222.42 1633.44,222.41 1635.19,225 1640.96,225.6 1641.57,229.51 1643.32,232.76 1645.11,239.26 1646.83,238.59 1652.61,239.84 1653.74,237.88 1656.04,237.21 1656.03,235.9 1657.75,234.58 1663.5,233.88 1664.64,232.56 1666.37,232.55 1667.54,233.84 1668.14,236.44 1669.87,236.43 1676.82,240.92 1679.13,241.55 1682.01,240.87 1686.06,242.79 1686.07,244.1 1684.37,246.72 1682.07,247.39 1682.1,250 1683.86,253.9 1683.33,258.47 1682.2,261.09 1680.48,261.76 1678.2,264.39 1672.4,261.18 1671.27,263.15 1669.55,263.81 1667.85,267.09 1664.96,266.47 1664.35,263.21 1657.42,261.32 1654.54,262 1649.96,265.3 1647.08,265.33 1644.79,267.95 1644.24,269.92 1645.41,271.86 1642.53,273.19 1642.56,276.45 1640.85,277.77 1637.43,283.02 1636.87,284.33 1638.03,284.97 1636.89,286.28 1642.09,287.54 1644.42,290.78 1651.92,290.71 1657.72,293.92 1658.31,295.87 1660.04,295.85 1662.34,294.53 1664.03,291.25 1666.91,290.57 1670.38,291.19 1671.51,289.23 1676.68,287.22 1688.3,295.59 1691.82,302.07 1691.86,305.99 1693.02,306.63 1692.45,307.94 1693.66,313.14 1693.1,315.1 1693.7,317.71 1697.79,322.23 1697.83,326.79 1696.68,327.46 1696.17,333.98 1692.16,337.28 1692.78,341.19 1694.54,344.43 1692.32,353.58 1690.61,355.55 1690.62,356.86 1687.74,357.54 1689.52,362.74 1688.96,364.7 1689.56,367.3 1686.13,370.6 1676.93,373.94 1675.78,375.26 1675.24,378.52 1670.64,381.17 1668.96,386.41 1669.55,387.71 1666.67,389.04 1662.09,392.99 1659.2,392.37 1656.9,393.69 1656.92,396.3 1651.26,408.74 1651.31,413.96 1652.47,414.6 1652.49,416.55 1654.24,419.14 1658.9,422.36 1663.57,428.19 1661.29,431.47 1655.56,436.74 1653.31,443.93 1656.81,446.51 1656.83,449.12 1658.01,451.71 1661.49,452.98 1663.84,456.88 1662.72,461.45 1666.8,464.67 1669.17,470.52 1670.91,471.81 1680.14,469.76 1681.36,476.27 1685.48,483.41 1687.27,489.26 1688.42,489.25 1692.5,491.82 1694.26,495.06 1698.9,496.32 1700.66,498.26 1703.65,508.66 1707.7,508.62 1712.86,504 1716.32,502.67 1720.37,502.63 1722.09,501.3 1723.22,498.69 1722.63,498.04 1724.35,496.07 1726.65,494.74 1729.54,494.71 1731.3,497.3 1734.2,497.92 1735.37,499.21 1737.69,499.84 1741.15,499.15 1740.02,501.12 1738.99,514.17 1747.7,517.34 1757.53,516.59 1759.83,515.26 1760.97,513.29 1769.66,514.5 1769.71,519.07 1776.08,520.3 1782.41,516.97 1785.3,516.29 1788.17,514.3 1789.92,515.59 1792.78,512.95 1801.49,515.46 1803.24,517.4 1805.57,518.02 1814.75,511.4 1815.87,508.13 1817.58,506.15 1821.07,507.41 1821.66,508.71 1825.11,506.72 1826.87,509.3 1829.2,510.58 1830.41,515.13 1832.16,516.42 1835.6,513.77 1840.22,513.06 1844.88,515.61 1858.18,514.8 1860.47,513.47 1861.64,514.11 1865.17,519.29 1867.48,518.61 1869.24,520.54 1872.73,522.45 1874.45,521.13 1876.78,522.41 1880.24,521.71 1882.57,522.33 1884.86,520.35 1887.74,519.66 1888.88,518.34 1892.96,520.25 1898.71,517.57 1899.85,516.25 1900.38,512.33 1901.51,510.36 1904.39,509.67 1909.05,511.57 1911.34,509.59 1914.8,508.89 1915.98,510.83 1916.02,514.09 1918.42,520.58 1917.96,530.37 1920.92,534.89 1923.81,534.86 1924.98,536.15 1927.3,536.12 1929.64,538.04 1929.68,541.3 1930.86,543.24 1928.57,545.23 1926.89,549.16 1930.38,551.07 1936.84,558.16 1938.04,560.76 1936.98,568.59 1937.58,570.54 1934.19,576.46 1933.75,587.55 1936.68,590.12 1936.12,591.43 1942.58,598.52 1943.87,608.28 1955.63,621.17 1959.13,623.08 1962.61,623.03 1965.52,624.3 1976.64,632.62 1979.01,636.5 1979.06,639.76 1976.77,642.4 1976.79,643.71 1972.18,645.72 1969.86,645.1 1966.98,646.45 1964.08,646.49 1961.73,644.56 1960.59,645.88 1957.69,645.27 1957.12,645.93 1955.93,643.99 1953.02,643.37 1951.26,641.44 1951.24,640.14 1948.92,640.17 1947.78,641.49 1944.88,640.87 1943.74,642.84 1937.98,645.53 1933.93,646.23 1931.68,651.48 1929.37,652.16 1928.81,653.47 1929.42,655.42 1933.47,654.71 1934.64,656 1941.03,657.22 1941.66,660.48 1946.92,664.32 1948.11,666.26 1948.71,668.21 1948.22,674.74 1947.09,676.71 1947.68,678 1946.58,681.93 1943.13,684.58 1942.59,687.85 1940.89,690.48 1942.08,693.07 1940.41,698.31 1937.55,701.61 1928.31,704.34 1928.33,706.29 1923.74,710.27 1923.18,711.58 1923.24,716.14 1924.42,718.08 1923.87,720.05 1925.62,720.68 1926.83,724.57 1926.26,725.88 1928.63,729.11 1928.67,732.37 1927.53,734.34 1927.01,738.92 1921.35,750.07 1922.55,753.32 1925.5,756.54 1924.95,759.16 1926.74,763.05 1926.25,769.57 1930.4,776.69 1929.87,780.61 1931.06,782.55 1934.61,787.72 1937.52,788.34 1938.67,787.67 1945.1,790.2 1949.78,793.4 1950.36,792.74 1953.29,794.65 1956.19,794.61 1956.25,799.18 1954.55,802.46 1954.06,809.64 1962.24,812.79 1968.71,818.58 1969.95,824.43 1971.74,828.32 1970.02,829.64 1970.08,834.21 1973.01,836.12 1975.93,836.74 1978.87,839.31 1979.54,846.47 1977.82,847.8 1977.27,850.41 1974.98,853.05 1976.18,855.64 1975.61,856.3 1978.55,858.87 1978.01,862.14 1976.3,864.12 1977.5,867.36 1975.87,875.86 1978.81,878.43 1978.85,881.04 1977.23,890.19 1970.89,894.84 1970.47,906.59 1943.3,919.34 1921.17,917.67 1902.49,912.68 1890.13,901.1 1867.83,885.07 1847.94,874.87 1838.67,877.59 1827.65,879.67 1808.24,911.84 1749.83,945.08 1739.36,945.84 1731.25,949.83 1693.34,941.08 1673.64,951.05 1625.41,959.96 1624.25,959.31 1619.6,960.66 1616.11,960.69 1599.76,954.3 1589.23,947.87 1566.97,929.79 1548.57,958.62 1525.94,968.57 1502.05,964.83 1493.86,958.37 1489.18,955.79 1465.27,948.12 1434.42,947.01 1412.32,949.1 1386.09,942.07 1361.21,969.58 1326.25,963.23 1303.57,968.54 1306.46,964.62 1225,973.4 1178.43,974.83 1164.47,978.12 1153.99,978.15 1148.74,976.2 1138.83,967.74 1122.54,972.34 1115.54,961.27 1087.59,955.44 1065.47,947.63 1022.98,917.67 1012.5,907.24 989.82,889.63 953.19,892.22 953.19,894.18 952.02,895.48 951.44,898.09 948.53,901.35 948.53,905.91 946.78,910.48 942.71,913.73 921.17,926.1 896.74,920.86 890.93,918.89 874.63,925.39 862.98,935.15 853.62,958.6 854.19,964.47 857.68,966.43 860,970.35 859.41,972.96 857.08,975.56 857.65,978.82 789.48,999.52 772.58,1003.38 755.69,1002.03 728.3,1008.45 689.28,1007.64 667.77,999.07 664.85,999.7 667.14,1009.5 666.5,1021.23 636.24,1015.22 612.91,1020.96 610.61,1015.08 605.38,1011.79 604.85,1003.31 603.12,1000.04 601.37,1000.04 597.86,1002.62 594.95,1003.26 593.19,1004.55 591.44,1004.54 590.27,1005.84 586.77,1007.13 583.87,1005.15 582.14,1002.53 572.26,999.22 571.1,997.25 565.85,999.83 559.46,996.53 554.81,995.85 554.2,1000.41 547.15,1009.5 541.9,1010.12 541.92,1008.16 539.59,1006.84 536.68,1006.82 533.78,1004.85 527.95,1006.77 523.89,1003.48 524.49,1000.22 525.66,999.58 526.26,996.97 528.61,994.38 535.04,991.16 537.97,987.27 539.76,981.41 541.52,978.81 542.12,975.56 539.82,971.63 538.07,971.62 531.7,967.01 524.7,968.92 517.74,964.97 514.83,964.95 511.36,961.66 507.87,961.64 503.81,959.65 495.67,957.64 493.94,956.33 492.21,953.05 492.24,949.14 488.76,947.16 482.35,949.07 474.8,947.06 471.88,948.34 467.23,947.66 466.63,948.96 464.9,947.64 461.99,947.62 454.96,954.09 443.32,953.35 441.57,954.64 433.44,951.31 426.52,944.08 425.98,938.21 427.17,935.61 424.27,933.63 420.82,929.04 410.9,932.22 405.69,929.57 391.73,928.15 388.34,917.04 385.44,915.06 357.43,925.24 353.93,925.87 353.39,921.95 349.9,921.27 346.38,924.49 335.28,930.26 328.25,935.41 325.34,935.39 317.1,945.09 314.77,945.07 312.46,943.74 308.96,943.71 306.66,941.73 300.83,942.33 294.44,941.61 285.68,944.79 281.02,944.74 279.25,947.33 276.92,947.31 270.55,943.98 269.42,940.71 267.68,940.69 256.58,944.49 243.17,946.96 240.85,946.29 237.43,939.73 228.74,935.72 224.14,930.46 223.58,928.5 225.5,912.21 219.16,906.93 219.2,903.02 221.04,893.91 211.77,890.55 206.01,885.92 201.34,887.82 196.1,888.42 192.59,889.68 194.43,881.23 193.89,877.96 191.61,874.02 182.89,873.27 177.79,861.47 174.88,862.09 164.33,869.8 162.55,873.04 160.2,874.97 157.29,874.93 153.79,876.2 133.56,866.17 137.73,857.75 138.94,853.2 137.91,842.1 137.35,840.79 134.46,839.45 129.86,835.48 121.25,826.9 117.15,829.46 114.79,832.04 103.57,846.9 98.88,850.1 98.25,854 96.47,856.59 94.14,857.21 94.19,853.3 92.46,851.98 90.79,846.09 91.98,843.49 92.75,829.16 90.47,825.21 91.66,823.27 93.52,813.52 92.98,810.25 94.75,808.31 94.85,800.49 97.2,798.56 96.65,795.95 94.91,795.27 94.37,792.01 96.14,790.07 95.62,785.5 96.23,782.9 97.4,782.26 96.86,779 94,775.7 95.18,773.76 94.04,772.44 93.51,768.52 94.73,763.32 93.6,761.35 93.07,757.43 91.92,756.11 91.42,750.24 79.79,751.39 78.08,748.76 76.34,749.39 74.06,746.1 70.57,746.71 57.32,738.71 52.78,730.83 41.72,733.29 33.62,731.88 30.7,733.14 28.97,732.47 27.84,729.84 23.78,729.79 22.06,728.46 19.74,728.43" fill="none" stroke="#1e1e1e" stroke-width="1.87" stroke-linecap="round" stroke-linejoin="round"/>
<text x="977.64" y="576.66" font-family="sans-serif" font-size="14" stroke="#ffffff" stroke-opacity="0.784" stroke-width="2.33" stroke-linejoin="round" paint-order="stroke" fill="#141414">Bhutan</text>
</svg>
