<?xml version="1.0" encoding="UTF-8" standalone="no"?>
<svg xmlns="http://www.w3.org/2000/svg" width="1813" height="2000" viewBox="0 0 1813 2000">
<rect width="1813" height="2000" fill="#ffffff"/>
<polyline points="1225.32,1163.83 1224.99,1160.58 1222.23,1158.84 1219.07,1158.8 1214.74,1155.7 1198.97,1150.78 1187.23,1139.73 1180.5,1137.16 1176.78,1133.63 1171.63,1134.14 1167.42,1132.25 1162.73,1132.41 1155.02,1129.89 1149.87,1122.76 1136.88,1114.14 1123.42,1099.34 1118.2,1098.21 1113.18,1095.95 1108.43,1099.23 1096.59,1099.15 1091.83,1101.58 1084.25,1100.83 1079.54,1098.44 1070.97,1090.09 1065.96,1087.39 1060.78,1086.48 1055.97,1084.22 1046.67,1076.7 1036.71,1074.88 1033.72,1066.16 1031.23,1064.12 1030.46,1058.35 1026.52,1055.03 1025.52,1050.05 1016.29,1040.96 1011.43,1039.6 1008.55,1034.11 995.51,1021.3 990.67,1006.07 987.53,1003.3 986.45,994.26 981.64,988.03 978.07,981.25 971.85,974.96 968.09,961.62 965.85,958.28 961.81,955.7 958.72,951.67" fill="none" stroke="#1e1e1e" stroke-width="1.18" stroke-linecap="round" stroke-linejoin="round"/>
<polyline points="958.71,951.67 958.37,948.81 956.72,946.39 956.74,941.33 955.88,939.21 956.36,936.79 955.5,934.08 954.2,931.46 950.2,927.34 947.65,922.63 949.26,909.55 946.98,905.44 943.7,902.12 934.59,897.59 933.11,892.83 932.64,887.53 933.78,877.54 930.76,874.71 929.43,870.84 923.28,839.59 919.84,833.17 918.5,827.36 916.01,821.94 913.19,818.42 904.42,815.14 901.02,811.62 893.6,809.66 890.65,804.53 885.34,789.59 882.71,776.13 878.48,769.9 876.16,746.32 868.4,728.4 865.17,725.86 861.52,718.65 859.21,710.78 858.52,702.71 857.91,677.19 859.9,669.84 860.69,661.78 857.9,643.41 857.07,629.86 860.03,622.42 859.33,617.65 856.52,613.28 852.26,601.72 848.79,577.98 841.26,570.25" fill="none" stroke="#1e1e1e" stroke-width="1.18" stroke-linecap="round" stroke-linejoin="round"/>
<polyline points="786.84,426.57 786.63,437.69 784.55,442.73 791.4,458.33 790.05,469.09 790.55,473.62 792.68,477.5 791.67,482.07 792.36,486.36 795.54,491.06 796.69,496.41 796.55,501.59 799.86,505.72 805.71,515.78 809.6,518.84 811.37,523.21 810.58,528.37 813.01,533.12 814.03,538.18 818.49,544.1 818.66,549.06 820.01,550.45 823.86,551.95 827.85,561.45 831.31,565.57 841.26,570.23" fill="none" stroke="#1e1e1e" stroke-width="1.18" stroke-linecap="round" stroke-linejoin="round"/>
<polyline points="1715.98,708.89 1718.83,699.45 1720.2,689.59 1735.39,651.63 1737.8,648.03 1741.45,645.35 1751.09,630.65 1753.18,625.74 1754.44,621.34 1755.34,605.46 1759.06,598.03 1764.45,590.49 1765.29,587.59 1763.68,574.72 1764.3,567.32 1766.6,562.39 1773.2,553.56 1784.76,533.48 1789.92,527.32" fill="none" stroke="#1e1e1e" stroke-width="1.18" stroke-linecap="round" stroke-linejoin="round"/>
<polyline points="1791.4,477.78 1789.52,473.47 1786.24,455.59 1781.53,443.73 1779.44,429.8 1771.29,422.35 1768.72,421.22 1762.36,420.26 1747.46,411.59 1746.85,406.85 1742.88,397.6 1739.84,396.12 1733.23,394.68 1721.62,387.21 1715.85,387.58 1714.65,384.89 1709.8,384.4 1707.9,383.02 1707.45,365.62 1705.5,359.11 1704.03,356.77 1699.13,353.49 1696.53,347.59 1689,337.13 1681.16,333.17 1678.3,328 1674.91,324.25 1672.78,314.45 1671.27,310.93 1669.35,308.65 1663.52,306.95 1656.5,296.29 1659.33,282.45 1659.31,278.16 1658.13,274.78 1659.99,269.97 1659.99,264.74 1657.74,261.83 1652.91,263.92 1648.82,264.71 1645.31,261.24 1639.69,252.94 1635.88,251.04 1635.01,249.73 1634.77,246.7 1637,237 1634.59,228.09 1631.83,224.57 1628.29,225.07 1621.55,214.62" fill="none" stroke="#1e1e1e" stroke-width="1.18" stroke-linecap="round" stroke-linejoin="round"/>
<polyline points="1178.8,875.27 1177.87,870.19 1175.33,865.9 1173.84,860.94 1165.26,858.83 1160.61,843.86 1156.32,838.28 1152.6,834.44 1141.67,825.91 1133.08,823.98 1128.85,821.46 1124.8,817.28 1123.07,814.32 1121.46,804.52 1120.09,801.64 1118.02,799.34 1111.45,796.25 1110.23,793.81 1106.41,774.9 1103.91,742.38 1102.23,737.24 1088.33,727.34 1085.57,726.31 1081.16,710.08 1078.53,704.48 1069.93,695.45 1064.02,691.89 1062.07,682.93 1059.14,676.73 1058.62,671.65 1057.71,670.14 1053.36,666.56 1048.29,664.59 1044.66,666.05 1038.96,672.19 1035.94,673.57 1032.6,673.02 1030.08,671.59 1022.4,660.47 1017.83,658.1 1012.74,642.33 1009.86,638.76 996.67,630.29 991.61,626.12 990.04,623.52 987.21,613.44 984.47,607.97 980.91,602.98 976.54,598.61 965.64,590.91 957.02,588.03 951.66,582.7 941.21,576.15 935.79,565.33 928.89,562.44 926.93,559.34 919.99,552.11 912.7,549.28 910.66,541.54 902.6,529.17 900.35,524.27 895.63,522.47 893.11,524.51 883.43,525.97 880.42,525.26 878.46,523.56 875.86,518.33 870.4,511.27 868.12,505.73 868,500.05 866.47,496.16 867.06,493.13 866.54,490.79 862.73,485.01 859.43,477.45 858.74,470.01 851.59,466.44 849.37,464.4 840.65,463.05 836.43,460.83 828.42,450.29 820.24,441.32 800.33,436.7 797.13,435.12 795.07,431.74 797.87,429" fill="none" stroke="#1e1e1e" stroke-width="1.18" stroke-linecap="round" stroke-linejoin="round"/>
<polyline points="1137.16,1891.57 1146.05,1900.27 1148.91,1906.46 1156.52,1913.53 1158.63,1917.72 1169.07,1919.3 1177.98,1921.7 1182.19,1924.57 1190.86,1925.73 1199.02,1929.48 1210.24,1931.22 1216.68,1934.72 1225.66,1941.03 1240.4,1941.95 1243.68,1944.74 1244.55,1942.75 1247.27,1944.8 1249.62,1943.74 1253.42,1944.02 1264.84,1946.53 1267.26,1948.07 1270.8,1952.35 1276.18,1955.15 1282.14,1955.56 1283.48,1953.73 1285.39,1953.72 1290.73,1958.04 1292.51,1960.81 1295.25,1960.32 1300.37,1966.4 1303.24,1968.1 1309.3,1968.51 1311.76,1969.46 1326.21,1978.32 1333.84,1978.74 1343.36,1981.89" fill="none" stroke="#1e1e1e" stroke-width="1.18" stroke-linecap="round" stroke-linejoin="round"/>
<polyline points="1345.29,1981.92 1353.02,1978.68 1356.42,1978.19 1361.98,1979.87 1365.35,1982.24" fill="none" stroke="#1e1e1e" stroke-width="1.18" stroke-linecap="round" stroke-linejoin="round"/>
<polyline points="816.01,1207.01 823.55,1195.13 827.05,1185.65 827.04,1181.5 825.51,1178.97 817.51,1177.63 813.12,1175.17 811.47,1173.33 810.38,1170.89 810.18,1165.01 812.46,1156.6 808.72,1146.53 801.33,1140.26 789.15,1126.35 784.42,1122.65 779.32,1120.76 770.96,1115.82 758.39,1103.57 750.43,1100 736.96,1085.58 734.87,1082.01 731.08,1066 727.41,1060.56 729.91,1052.62 735.36,1042.92 734.91,1041.51 731.46,1039.39 731.21,1034.76 733.34,1030.25 739.24,1025.05 740.1,1020.54 744.7,1009.76 744.61,1006.24 742.92,1003.19 745.81,997.54 742.42,997.34 742.65,995.62 745.78,991.45 745.61,983.3 746.78,980.29 745.51,977.2 747.69,969.59 747.05,967.31 744.3,963.55 743.65,960.49 743.63,955.32 744.73,952.56 743.71,947.62 742.11,944.87 737.69,940.6 739.57,939.14 741.49,938.96 745.5,940.55 745.59,938.12 744.74,936.46 741.46,933.49 747.1,933.12 747.59,931.42" fill="none" stroke="#1e1e1e" stroke-width="1.18" stroke-linecap="round" stroke-linejoin="round"/>
<polyline points="314.06,81.49 328.89,62.64 336.73,50.41 350.6,39.87 363.45,23.23 371.4,16.83 379.72,13.58" fill="none" stroke="#1e1e1e" stroke-width="1.18" stroke-linecap="round" stroke-linejoin="round"/>
<polyline points="1369.63,471.15 1367.22,466.83 1364.74,457.91 1352.64,444.21 1349.91,439.53 1343.08,422.87 1333.65,410.43 1326.92,403.9 1325.13,398.8 1318.79,386.84 1315,382.31 1308.62,378.46 1305.85,375.77 1304.26,373.24 1302.73,364.11 1300.93,361.41 1294.8,356.58 1293.57,353.67 1293.34,350.4 1294.55,333.99 1293.45,331.48 1287.48,324.19 1285.5,323.25 1274.14,321.46 1267,314.51 1260.71,311.35 1259.09,309.32 1253.9,309.86 1248.64,307.67 1244.25,299.88 1231.73,293.99 1227.8,291.1 1220.72,281.94 1217.12,278.54 1211.9,277.16 1206.95,278.03 1198.77,275.6 1192.67,275.98 1190.45,276.95 1183.57,272.69 1181.32,268.32 1178.58,267.97 1172.38,269.55 1157.46,266.69 1154.95,264.89 1145.1,252.76 1142.51,247.75 1141.67,240.79 1142.84,230.22 1140.97,227.13 1140.26,223.94 1138.82,198.96 1139.96,192.74 1146.13,181.93 1146.23,169.16 1147.92,166.57 1153.19,163.28 1155.21,159.16 1162.93,148.13 1163.56,144.83 1162.81,139.29 1164.81,135.59 1165.38,132.71 1163.71,126.41 1164.97,124.1 1165.21,121.71 1163.97,112.76 1157.77,107.89 1153.74,95.97 1145.77,91.38 1143.13,86.09 1140.91,76.53 1133.88,70.9 1132.58,66.22 1137.56,58 1139.05,52.57 1139.29,31.15 1140.16,27.98 1142.27,25.79 1143.35,26.91 1145.36,24.94 1149.67,16.37 1151.34,9.96" fill="none" stroke="#1e1e1e" stroke-width="1.18" stroke-linecap="round" stroke-linejoin="round"/>
<polyline points="747.62,1839.81 751.12,1845.3 750.07,1862.59 751.65,1869.54 755.71,1873.33 762.89,1876.43 767.77,1882.71 769.12,1888.16 765.05,1895.91 766.87,1898.5 771.64,1902.17 770.73,1908.21 773.99,1910.91 775.34,1915.21 785.03,1925.58 784.84,1927.77 782.14,1932.27 781.23,1938.39 781.59,1940.61 785.11,1943 788.81,1950.97 793.33,1953.55 795.17,1956.87 795.66,1960.92 794.61,1964.5 796.31,1966.57 796.86,1973.54 799.44,1974.8 799.84,1978.7" fill="none" stroke="#1e1e1e" stroke-width="1.18" stroke-linecap="round" stroke-linejoin="round"/>
<polyline points="1416.2,786.85 1412.98,782.11 1412.76,776.36 1414.22,769.94 1411.78,757.09 1410.03,750.82 1404.65,738.75 1397.57,718.44 1394.01,714.12 1391.17,704.5 1386.38,697.66 1385.83,692.21 1382.64,689.71 1381.94,684.69 1378,680.52 1376.55,673.69 1370.3,664.04 1361.11,659.17 1362.15,655.22 1359.48,652.49 1359.02,649.22 1354.53,644.07 1352.63,638.41 1351.75,632.5 1349.43,627.22 1338.85,624.01 1330.99,618.18 1326.07,616.3 1315.07,608.26 1304.7,599.25 1285.64,589.48 1271.58,587.12 1269.45,585.02 1269.09,578.5 1265.73,577.75 1256.27,580.87 1255.07,583.36 1253.15,585.05 1247.06,584.72 1241.09,585.41 1226.7,581.22 1222.94,581.76 1211.08,587.23 1199.95,588.21 1190.25,582.83 1180.8,582.42 1171.03,585.47 1155.97,587.6 1152.27,585.39 1148.92,574.53 1136.54,564.22 1131.38,560.94 1115.82,544.5 1114.44,539.87 1114.71,533.92 1113.77,528.65 1110.2,527.86 1108.29,525.45 1106.55,525.33 1105.61,527.3 1099.73,524.63 1093.26,525.71 1090.85,526.9 1085.27,526.86 1082.26,527.8 1070.37,524.89 1062.97,516.64 1049.82,515.66 1042.79,513.12 1037.36,509.19 1035.15,503.22 1029.64,500.97 1023.5,503.73 1020.21,504.31 1019.25,507.44 1012.55,502.68 1009.91,497.51 1005.17,495.28 997.07,484.34 995.04,483.41 991.86,483.88 988.27,482.9 985.87,479.75 983.25,472.04 978.71,467.16 978.83,462.56 973.4,453.48 965.87,451.5 962.65,453.34 960.54,455.67 955.29,457.37 949.96,461.27 939.95,461.35 933.92,457.27 929,455.76 923.47,451.67 922.49,449.01 918.96,446.92 918.05,442.54 915.58,439.82 907.38,438.41 898.92,432.16 890.59,427.61 869.7,424.57 860.76,426.73 852.3,437.92 849.71,437.88 844.86,434.88 837.54,436.96 834.39,432.71 825.66,432.42 823.42,429.85 819.81,434.42 818.28,433.91 814.22,429.6 809.54,427.52 806.45,427.77 802.49,430.74 800.4,431.35 799.04,431.03 797.55,426.37 795.38,425.8 789.49,426.92 786.06,426.44 781.01,423.36 775,415.24 769.57,412.76 769.17,410.22 772.5,401.03 771.93,394.83 768.83,392.59 766.7,392.28 766.32,393.29 760.93,389.79 754.37,389.36 743.95,384.2 740.41,380.19 741.47,376.12 740.23,372.83 737.84,373.09 737.28,373.95 736.43,379.1 734.68,379.62 733.05,378.85 732.36,377.22 733.42,375.14 728.77,370.22 725.23,362.2 718.32,359.9 715.09,361.12 705.89,358.94 699.7,358.7 695.33,357 692.55,352.87 692.78,350.16 695.4,345.81 695.14,343.98 694.19,342.4 692.23,341.73" fill="none" stroke="#1e1e1e" stroke-width="1.18" stroke-linecap="round" stroke-linejoin="round"/>
<polyline points="1592.44,759.05 1591.55,762.34 1591.4,768.95 1588.13,772.18 1586.34,780.39 1581.37,788.53 1581.16,797.6 1579.06,805.52 1578.95,811.11 1581.5,816.15 1582.57,822.78 1582.01,829.81 1583.08,834.45 1582.2,838.92 1577.63,843.51 1572.26,847.12 1566.74,855.07 1561.02,854.89 1555.56,853.35 1551.03,850.37 1546.14,848.83 1540.07,848.1 1534.47,845.7 1531.12,841.48 1526.84,838.5 1522.33,839.93 1504.86,839.66 1494.24,841.41 1488.46,840.98 1483.13,838.14 1476.89,837.07 1470.31,837.36 1461.64,830.18 1446.88,824.87 1441.94,819.51 1424.77,811.27 1422.21,808.41 1419.07,793.59 1416.21,786.85" fill="none" stroke="#1e1e1e" stroke-width="1.18" stroke-linecap="round" stroke-linejoin="round"/>
<polyline points="417.14,1116.02 414.92,1114.01 414.19,1111.31 414.54,1108.25 415.62,1105.07 418.74,1100.52 419.12,1091.59 422.7,1083.86 425.45,1079.68 428.85,1077.94 437.37,1076.71 444.41,1073.44 447.67,1070.76 449.55,1067.79 449.93,1065.3 448.62,1056.02 448.52,1042.82 447.18,1038.58 441.1,1027.1 440.85,1023.38 442.64,1015.83 443,997.4 437.84,989.48 432.72,987.46 432.4,980.91 426.55,973.9 421.19,965.77 422.19,953.31 421.47,944.34 424.83,937.7 424.79,934.39 421.28,930.46 419.2,924.63 417.81,922.97 411.62,920.33 406.39,915.43 397.45,911.36 381.57,898.98 366.99,891.38 363.72,890.77 356.72,891.21 354.32,889.35 351.75,885.17 344.63,882.35 340.55,873.83 337.03,869.56 329.67,863.15 329.93,859.8 338.03,848.39 337.62,844.61 329.19,835.32 325.58,834.81 322.48,829.43 316.92,826.75 312.59,821.11 306.35,815.32 302.52,813.37 302.01,811.13 302.89,809.39 308.17,805.59 311.57,801.64 313.15,794.1 315.68,789.51 319.15,777.74 322.78,769.03 331.96,752.76 334.29,746.36 338.47,741.89 339.69,738.89 338.88,733.13 333.88,727.37 332.85,722.23 331.11,720.37 328.91,714.98 327.72,709.24 328.21,706.52 334.44,702.92 336.23,700.81 336.81,698.41 334.98,691.04 335.37,682.1 331.38,659.82 334.91,642.14 338.6,635.63 338.97,632.66 336.91,628.83 336.98,625.94 339.84,616.85 345.65,611.43 355.44,596.24 355.42,593.33 352.85,589.53 350.18,576 349.97,570.85 352.15,565.84 358.22,556.11 365.22,549.58 376.77,535.42 378.52,529.71 383.41,526.33 388.89,515.77 391.28,513.43 398.65,512.44 405.34,495.24 412.81,460.84 413.06,457.04 409.97,447.58 415.5,439.13 415.56,436.75 414.03,432.56 413.69,423.48 414.02,420.54 418.3,411.73 416.13,403.9 420.33,394.06 418.84,386.72 419.01,383.5 421.11,376.62 421.68,370.48 420.76,363.02 418.59,355.78 415.37,350.26 412.3,347.02 410.04,348.01 409.07,347.67 407.04,341.52 407.56,338.52 415.28,337.31 419.48,333.74 421.11,330.35 420.38,328.3 416.88,324.28 416.81,321.45 418.77,320.15 426.96,320.15 432.52,313.79 440,313.05 442.39,311.99 444.35,309.11 443.36,298.36 444.18,295.57 447.64,291.46 447.74,281.19 449.17,278.28 452.49,276.87 465.82,275.84 475.74,276.84 479.47,275.5 487.39,270.49 501.95,268.05 503.02,261.87 510.94,259.85 512.58,257.04 508.91,251.77 509.39,248.29 515.89,239.13 516.93,236.36 515.49,228.4 515.86,224.9 517.71,224.37 522.7,225.27 526.17,222.2 526.89,211.94 529.71,205.4" fill="none" stroke="#1e1e1e" stroke-width="1.18" stroke-linecap="round" stroke-linejoin="round"/>
<polyline points="21.45,472.72 28.83,471.09 33.78,464.47 38.69,462.29 42.07,457.58 45.36,459.88 50.11,456.54 57.45,454.4 59.48,452.4 59.8,449.5 58.69,445.92 62.66,446.39 65.7,452.35 67.3,453.8 73.4,455.66 77.76,453.5 81.79,454.21 82.81,453.36 81.13,448.34 84.95,441.85 88.11,446.96 87.48,451.96 86.79,452.5 87.21,454.21 89.49,456.65 96.42,457.02 97.61,456.5 103.74,448.66 106.18,446.47 108.99,445.54 112.73,446.2 121.55,451.29 126.32,451.41 128.76,449.9 130.34,445.99 133.08,445.75 139.32,448.1 141.83,447.22 146.52,443.9 148.64,439.83 151.07,439.31 157.75,440.79 161.05,439.93 167.18,439.77 170.44,436.73 173.08,428.59 174.7,426.47 178.13,425.69 185.24,429.26 188.23,428.77 190.01,427.55 192.59,423.07 198.93,405.91 202,401.31 219.01,391.81 222.64,387.59 224.49,371.76 226.71,367.58 231.12,365.34 242.05,363.6 245.93,361.54 252.55,360.89 258.47,357.67 260.51,354.36 261.62,350.43 261.22,346.93 258.69,344.89 260.04,342.54 262.6,341.75 259.48,335.73 261.06,333.37 267.3,328.94 268.15,322.81 269.34,320.65 274.24,317.68 283.55,317.82 286.84,317.15 289.64,315.47 298.41,304.16 300.34,303.23 301.51,291.9 304.82,288.52 309.73,285.48 315.24,283.73 320.41,284.32 328.14,289.66 335.03,291.35 338.68,296.58 341.71,298.25 345.1,297.91 348.48,296.15 356.71,289.72 364.53,286.52 371.19,270.16 376.14,266.89 382.41,266.45 394.95,267.63 401.18,266.46 405.5,263.3 406.75,260.03 406.99,255.71 408.41,253.25 411.78,253.44 422.23,257.32 429.56,253.87 431.26,252.35 430.49,249.1 427.97,244.72 428.51,240.67 430.57,239.96 433.46,241.48 439.45,246.63 441.8,247.35 444.09,246.25 446.92,243.4 451.09,237.18 452.89,235.81 456.02,234.78 457.59,236.03 461.48,236.19 465.65,234.67 472.56,225.1 475.23,224.62 476.82,226.57 479.65,227.85 481.25,226.72 481.69,223.44 483.75,222.7 485.7,225.41 487.82,226.41 492.18,224.81 494.7,220.2 497.57,205.22 498.88,204.99 503.66,208.99 503.64,210.59 500.73,214.01 502.77,215.86 505.51,215.48 516.08,209 518.68,201.29 520.57,198.43 523.51,197.32 525.87,198.5 528.25,203.42 531.99,206.9 534.28,205.6 536.05,202.77 537.69,196.7 540.69,190.24 539.49,187.86 537.99,187.59 533.41,188.96 531.5,187.31 531.47,186.35 536.15,184.82 542.13,179.91 545.48,178.52 557.46,181.43 562.62,181.66 564.48,177.39 563.76,174.65 559.66,169.99 556.88,169.22 555.5,167.98 558.47,162.41 560.29,161.13 561.94,161.97 566.38,167.67 568.15,168.35 578.45,164.99 581.81,162.36 583.18,159.81 583.24,153.13 581.44,146.86 581.79,144.49 585.23,143.34 594.65,145.46 603.52,138.92 616.2,132.56 620.46,124.97 625.19,120.5 635.29,118.27" fill="none" stroke="#1e1e1e" stroke-width="1.18" stroke-linecap="round" stroke-linejoin="round"/>
<polyline points="500.16,1455.32 505.42,1450.75 510.79,1442.78 506.16,1436.43 505.71,1434.73 507.49,1431.62 514.64,1427.6 517.27,1423.85 519.76,1422.75 527.93,1422.34 531.06,1423.01 533.47,1424.94 535.17,1429.98 538.87,1434.29 540.48,1440.46 542.57,1442.78 550.65,1447.99 555.68,1453.15 561.85,1456.54 570.76,1456.34 573.37,1457.42 583.57,1452.08 594.32,1444.72 595.32,1442.3 595.21,1432.15 601.79,1430.91 606.5,1425.95 608.61,1420.73 609.9,1420.1 618.1,1420.09 623.81,1415.51 626.78,1414.92 627.48,1412.03 629.2,1411.63 636.88,1416.49 639.83,1425.28 645.59,1429.92 650.36,1436.38 661.67,1444.62 667.98,1445.76 681.1,1453.56 684.54,1454.69 688.31,1453.08 689.7,1454.27 692.83,1454.26 703.71,1450.59 707.92,1450.23 711.68,1451.21 714.08,1453.18 717.93,1459.48 718.56,1462.6 721.35,1465.56 720.17,1473.8 721.15,1479.41 722.58,1482.32 734.54,1497.94 737.6,1503.82 742.4,1517.35 745.16,1529.41 754.15,1542.61 756.38,1546.85 759.75,1556.68 761.4,1564.65 761.95,1573.66 760.09,1582.78 762.01,1586.28 765,1609.85 769.89,1612.59 778.32,1614.38 783.36,1618.25 789.55,1618.68 795.52,1617.93 800.76,1618.94 804.72,1624.71 805.52,1629.69 808.02,1631.06 809.23,1635.93 809.99,1645.97 811.52,1650.51 818.12,1659.15 818.8,1662.83 817.66,1669.01 819.22,1677.97 823.85,1682.81 830.63,1681.86 834.53,1683.51 835.01,1686.22 836.26,1687.09 843.65,1686.92 842.32,1690.12 846.05,1694.26 846.81,1703.99 847.96,1708.52 849.8,1712.66 852.12,1711.75 857.02,1713.89 858.44,1715.7 855.43,1716.35 856.12,1718.9 858.2,1721.25 860.84,1721.17 869.84,1724.93 876.9,1722.29 887.95,1721.86 894.59,1727.01 904.39,1728.73 911.78,1734.17 921.27,1734.36 932.73,1741.3 941.37,1748.85 951.76,1755.6 960.13,1759.31 962.54,1763.41 968.71,1769.34 979.95,1777.35 982.58,1781 994.98,1813.14 995.36,1815.51 994.4,1818.57 998.7,1818.87 1001.01,1820.18 1001.39,1822.22 1004.86,1828.24 1006.37,1838.42 1009.88,1846.52 1010.75,1852.14 1010.35,1854.85 1011.27,1856.68 1011.28,1861.38 1012.29,1864.04 1014.24,1866.11 1020.77,1869.34 1026.66,1873.64 1028.3,1875.41 1029.45,1879.15 1032.02,1879.86 1034.15,1881.5 1034.77,1884.67 1033.04,1888.78 1034.05,1890.13 1042.42,1892.72 1048.09,1899.13 1055.38,1901.73 1059.83,1907.38 1069.44,1914.15 1080.61,1917.13 1081.38,1921.34 1083.88,1921.7 1086.91,1925.32 1087.99,1927.96 1085.23,1933.16 1085.24,1935.04 1090.45,1938.16 1093.48,1938.76 1094.21,1940.32 1093.16,1945.55 1095.77,1947.25 1094.05,1950.74 1096.46,1952.09 1098.8,1956.68 1102.54,1960.87 1103.94,1964.49 1108.23,1967.55 1108.73,1969.38 1112.88,1974.23 1115.79,1979.27" fill="none" stroke="#1e1e1e" stroke-width="1.18" stroke-linecap="round" stroke-linejoin="round"/>
<polyline points="1550.8,740.52 1551.06,728.81 1554.1,724.86 1554.25,718.17 1557.59,712.04 1557.97,709.21 1556.04,705.47 1552.13,701.12 1551.85,692.65 1549.18,679.86 1551.43,667.07 1554.42,665.28 1553.42,662.14 1558.51,655.65 1562.34,573.3 1562.94,571.13 1571.56,556.99 1573.54,550.47 1575.79,505.15 1574,498.61 1577.13,493.51 1577.39,490.26 1575.83,481.68 1576.93,478.91 1574.49,470.8 1573.59,464.5 1573.98,461.38 1576.94,456.44 1576.1,447.45 1577.13,441.65 1579.09,435.59 1584.61,426.21 1583.67,420.17 1584.9,413.54 1582.35,403.76 1582.21,400.64 1583.63,397.51 1589.3,391.17 1590.4,385.06 1599.31,378.14 1600.99,375.91 1602.44,370.43 1607.91,364.52 1613.59,344.2 1614.26,337.64 1610.7,328.24 1609.97,323.76 1611.01,319.35 1613.24,313.25 1616.3,307.86 1621.05,304.83 1624.52,298.49 1623.06,291.3 1622.65,277.86 1623.85,272.67 1627.21,269.96 1625.19,267.87 1618.71,266.13 1617.36,264.07 1617.48,259.03 1622.6,249.98 1621.55,237.8 1620.85,235.15 1618.17,232.74 1617.31,229.78 1617.23,223.79 1622.6,212.61" fill="none" stroke="#1e1e1e" stroke-width="1.18" stroke-linecap="round" stroke-linejoin="round"/>
<polyline points="1622.6,212.61 1626.29,203.94 1630.96,197.43 1632.11,191.35 1631.09,189.13 1634.37,180.61 1636.68,168.04 1635.93,155.91 1637.43,151.14 1644.29,147.64 1653.37,145.9 1655.94,144.36 1666.78,133.91 1670.09,128.34 1671.35,108.35 1673.46,101.43 1683.11,84.17 1685.66,78.24 1692.02,53.47 1692.42,40.04 1691.54,34.18 1686.56,24.21 1685.92,19.06" fill="none" stroke="#1e1e1e" stroke-width="1.18" stroke-linecap="round" stroke-linejoin="round"/>
<polyline points="513.59,1188.5 522.56,1193.17 525.59,1196.32 526.68,1199.22 525.82,1207.28 527.9,1209.46 535,1213.8 538.61,1219.01 550.76,1223.18 553.38,1225.36 557.21,1230.39 557.98,1233.28 561.95,1240.2 566.57,1242.9 567.54,1244.33 568.47,1247.96 569.77,1248.32 579.11,1245.88 582.15,1245.88 584.72,1249.7 593.28,1254.34 602.13,1261.9 603.24,1264.45 610.8,1269.45 615.93,1276.18 617.55,1280.49 629.66,1289.73 635.86,1300.36 640.24,1304.87 644.1,1305.85 646.05,1307.87 652.34,1310.86 654.35,1317.03 658.73,1316.97 660.55,1323.44 666.69,1328.57 667.58,1339.15 669.45,1341.35 679.89,1340.86 688.86,1346.31 692.68,1346.88 694.35,1345.29 697.15,1336.9 701.72,1332.13 706.95,1328.43 714.58,1324.71 727.85,1321.35 730.51,1322.06 734.13,1326.75 736.99,1327.84 743.79,1327.71 746.37,1329.49 749.28,1334.08 751.04,1334.6 753.3,1339.69 762.02,1348.23 773.38,1348.1 784.61,1339.65 787.79,1338.46 790.81,1339.51 792.88,1344.15 797.91,1349.89 798,1358.29 802.32,1369.98 806.25,1374.18 811.98,1377.59 814.02,1380.96 815.04,1386.96 816.04,1388.52 819.84,1389.98 826.13,1390.89 830.16,1395.53 833.1,1396.35 833.97,1397.49 840.17,1419.79 842.14,1422.58 849.43,1423.2 851.58,1422.65 854.69,1420.36 856.33,1416.63 857.62,1405.78 859.23,1402.68 860.98,1401.36 869.33,1402.69 878.16,1401.64" fill="none" stroke="#1e1e1e" stroke-width="1.18" stroke-linecap="round" stroke-linejoin="round"/>
<polyline points="877.18,1401.64 883.04,1400.79 886.28,1406.41 888.08,1408.21 892.61,1410.33 898,1411.23 903.15,1410.07 905.12,1407.55 904.82,1394.1 905.76,1390.97 907.78,1388.53 911.15,1386.78 924.5,1384.26 931.93,1381.33 933.55,1375.7 937.02,1371.86 941.3,1369.1 951.17,1366.43 955.95,1360.85 962.77,1356.69 964.53,1354.46 969.04,1344.32 976,1337.26 979.78,1326.65 989.06,1315.86 992.32,1306.84 994.52,1303.22 1000.05,1297.88 1000.69,1296.03 999.75,1285.72 1005.25,1273.49 1005.53,1264.86 1006.86,1258.93 1012.43,1248.12 1010.87,1239.28 1011.17,1237.1 1015,1229.44 1017.29,1212.22 1015.39,1186.36 1013.95,1179.3 1014.34,1176.91 1018.85,1167.19 1020.06,1150.65 1022.87,1142.99 1023.15,1140.23 1020.08,1134.44 1018.81,1127.5 1016.58,1125.03 1007.3,1124.18 998.52,1117.58 995.23,1117.27 992.63,1118.53 990.15,1118.01 988.57,1116.01 985.88,1109.51 980.81,1103.5 975.09,1087.58 974.73,1077.16 973.7,1074.14 971.96,1071.3 963.31,1062.04 960.69,1060.51 957.78,1060.29 953.34,1061.82 942.25,1057.9 938.36,1054.78 929.52,1051.93 906.65,1037.72 899.27,1035.83 890.12,1030.51 874.87,1027.72 871.15,1016.09 860.03,1004.66 858.9,995.11 856.24,990.13 846.49,984.49 844.85,985.07 837.18,983.83 834.71,982.99 828.75,978.42 820.04,977.01 818.1,975.47 817.06,972.89 816.98,965.81 816.08,963.99 808.67,961.96 801.57,957.32 795.38,954.75 789.29,950.86 782.81,945.43 772.75,943.43 760.35,934.87 755.72,934.46 752.88,932.58 747.2,931.22" fill="none" stroke="#1e1e1e" stroke-width="1.18" stroke-linecap="round" stroke-linejoin="round"/>
<polyline points="694.97,345.07 685.4,346.83 683.29,347.99 672.86,359.19 671.12,362.89 672.17,365.1 679.64,362.9 681.08,370.38 680.53,373.24 672.53,381.23 668.04,377.01 668.75,383.02 669.88,385.84 675.18,392.11 676.38,398.07 675.44,399.27 670.86,400.44 669.03,402.31 670.12,404.08 674.09,406.75 674.96,409.35 669.35,415.68 669.5,418.04 684.97,441.9 687.92,448.91 689.06,463.16 694.27,475.31 692.82,480 690.37,484.35 689.46,488.79 692.57,491.8 689.53,495.69 691.04,504.33 690.56,506.33 688.51,507.52 682.92,507.95 680.5,509.04 678.68,511.74 682.31,516.86 680.51,522.64 674.76,523.56 668.21,523.21 664,525.21 663.83,528.2 668.13,531.42 669.07,533.63 662.97,543.52 663.07,554.26 661.93,558.07 657.96,563.83 660.29,567.91 658.72,572.9 651.6,579.88 651.54,584.29 654.98,584.34 655.71,585.16 655.55,586.98 649.77,595.6 647.67,603.64 651.23,604.99 649.63,611.47 650.25,615.02 656.76,621.46 668.7,629.3 669.52,631.86 669.43,637.6 671.47,643.54 666.46,645.75 666.03,647.69 667.57,648.77 673.42,647.53 676.64,649.52 680.35,657.57 688.89,670.79 692.71,674.5 693.74,676.88 693.48,679.07 690.75,684.97 691.57,688.21 698.05,697.22 700.57,703.7 704.18,708.9 704.82,711.72 699.35,710.83 698.44,713.87 700.11,717.87 702.42,719.87 702.12,722.3 697.27,742.22 691.19,753.62 691.47,757.48 690.84,759.25 687.21,757.35 681.49,757.65 685.11,763.26 685.96,769.03 686.85,769.67 688.44,768.86 689.79,770.6 690.47,777.05 694.53,784.11 693.15,788.4 698.8,794.42 700.51,797.81 700.03,805.47 693.66,810.69 695.96,813.12 699.56,813.6 696.38,819.31 698,822.75 700.42,832.64 706.56,839.34 710.71,851.34 718.98,857.96 719.65,859.41 719.35,862.9 723.56,868.82 727.56,879.78 729.47,890.57 733.06,900.53 736.42,919.28 741.16,926.11 747.2,931.22" fill="none" stroke="#1e1e1e" stroke-width="1.18" stroke-linecap="round" stroke-linejoin="round"/>
<polyline points="635.29,118.27 636.4,120.4 632.98,126.77 630.88,128.89 627.28,129.65 629.41,134.27 628.58,138.57 630.45,143.54 629.59,153.17 636.83,159.63 637.7,163.89 636.51,172.21 634.37,179.02 635.12,180.94 640.91,182.44 645.81,186.57 647.02,188.76 648.04,201.54 650,204.31 650.08,206.15 643.88,213.78 643.79,216.44 645.22,222.07 644.11,224.79 636.32,231.84 635.85,235.52 641.49,241.55 640.62,243.83 637.34,246.7 637.57,250.34 639.46,253.06 646.53,257.74 646.02,259.65 642.6,264.46 642.46,265.93 647.73,279.9 651.72,284.09 656.81,282.64 661.93,285.89 662.93,287.78 661.85,291.93 662.52,295.9 665.99,297.02 670.12,300.43 666.7,301.61 666.36,303 666.98,306.67 665.12,311.81 665.23,317.23 666.08,319.3 670.73,323.45 672.64,323.92 673.78,322.53 675.1,313.39 675.99,312.2 678.1,311.58 678.1,316.33 680.21,318.37 685.15,320.84 686.52,325.69 689.17,330.6 689.93,339.67 692.23,341.73" fill="none" stroke="#1e1e1e" stroke-width="1.18" stroke-linecap="round" stroke-linejoin="round"/>
<polyline points="635.29,118.27 637.49,112.13 639.57,109.24 645.02,106.52 646.77,103.08 648.22,95.73 651.19,90.42 649.03,83.89 648,74.23 643.86,60.83 643.23,54.69 643.7,48.64 648,39.27 648.62,35.81 647.82,33.5 642.52,28.15 637.93,16.37 633.85,12.83 631.15,11.85 627.29,11.86 626.33,10.27" fill="none" stroke="#1e1e1e" stroke-width="1.18" stroke-linecap="round" stroke-linejoin="round"/>
<polyline points="1768.41,1247.37 1765.28,1254.42 1767.12,1257.16 1767.61,1273.96" fill="none" stroke="#1e1e1e" stroke-width="1.18" stroke-linecap="round" stroke-linejoin="round"/>
<polyline points="1765.69,1338.38 1763.81,1339.35 1765.5,1344.19 1764.95,1344.96 1759.59,1345.73 1758.66,1347.73 1753.04,1352.1 1752.57,1359.17 1750.71,1361.89 1752.38,1364.9 1753.81,1365.25 1754.12,1366.64 1749.7,1372.49 1744.75,1376.41 1743.63,1378.32 1744.08,1382.11 1747.03,1383.12 1737.67,1387.92 1736.57,1392.97 1731.34,1390.89 1729.57,1392.82 1729.32,1395.97 1730.04,1402.57 1732.34,1404.36 1735.25,1405.3 1733.68,1408.96 1734.62,1410.36 1736.08,1410.66 1740.5,1409.43 1748.06,1412.25 1752.25,1414.95 1763.36,1416.51" fill="none" stroke="#1e1e1e" stroke-width="1.18" stroke-linecap="round" stroke-linejoin="round"/>
<polyline points="1760.79,1502.48 1757.44,1504.66 1755.85,1506.78 1757.13,1510.62 1756.66,1511.89 1749.4,1510.68 1743.12,1516.67 1738.56,1518.23 1732.95,1518.39 1732.78,1519.91 1735.35,1522.37 1734.11,1527.5 1732.46,1529.45 1727.62,1532.87 1722.76,1534.08 1720.48,1535.92 1715.43,1545.43 1710.26,1547.77 1708.55,1550.47 1702.58,1554.23 1697.01,1560.73 1693.86,1562.12 1688.12,1560.77 1685.7,1563.88 1679.13,1566.31 1674.59,1572.53 1669.98,1574.39 1667.47,1577.76 1659.67,1580.7 1659.67,1583.08 1662.62,1583.83 1664.86,1586.62 1665.1,1588.2 1659.91,1589.83 1658.82,1592.31 1659.62,1595.08 1662.27,1597.04 1664.69,1595.17 1666.14,1595.11 1668.14,1596.89 1668.76,1598.31 1667.32,1602.37 1667.52,1606.14 1669.41,1612.39 1674.49,1617.47 1682.25,1621.24 1681.79,1623.88 1679.47,1628.11 1679.1,1631.13 1679.63,1638.55 1681.12,1642.17 1681.27,1649.15 1683.62,1653.74 1682.42,1659.91 1684.52,1662.71 1685.72,1662.57 1687.14,1657.42 1689.01,1656.33 1691.22,1656.76 1693.1,1658.17 1694.89,1662.29 1699.03,1665.98 1699.35,1667.42 1698.26,1668.52 1693.56,1669.73 1687.61,1675.1 1688.48,1676.04 1694.89,1677.14 1697.22,1678.77 1698.69,1681.08 1698.97,1683.78 1691.66,1688.34 1690.32,1690.21 1690.7,1691.9 1693.69,1693.36 1699.94,1699.65 1700.87,1699.68 1701.54,1697.09 1704.03,1699.42 1704.16,1702.66 1702.78,1706.08 1698.83,1711.81 1698.89,1713.95 1700.94,1718.54 1701.6,1725.2 1700.84,1732.15 1698.73,1738.43 1695.43,1743.01 1690.65,1746.96 1690.51,1748.84 1693.53,1753.22 1695.74,1753.96 1697.19,1755.46 1696,1759.33 1686.37,1773.42 1683.45,1781.59 1683.52,1784.9 1684.6,1787.58 1688.38,1790.03 1684.4,1798.82 1684.91,1801.37 1690.15,1808.65 1683.86,1818.46 1684.09,1826.94 1681.13,1832.69 1684.2,1837.36 1685.14,1840.83 1679.73,1849.94 1675.83,1862.09 1678.47,1877.03 1676.78,1886.28 1678.19,1893.23 1679.46,1895.09 1681.56,1895.93 1687.64,1896.84 1688.87,1898.45 1690.1,1903.46 1696.86,1913.43 1693.31,1916.82 1695.61,1938.91 1697.47,1943.56 1702.31,1950.27 1702.84,1953.52 1701.48,1954.94 1692.48,1953.71 1686.17,1954.45 1681.47,1957.53 1679.82,1961.96 1682.7,1966.64 1688.28,1969.03 1690.4,1975.71 1694.79,1976.27 1697.07,1978.14 1700.13,1984.93 1699.93,1986.69 1696.68,1989.6" fill="none" stroke="#1e1e1e" stroke-width="1.18" stroke-linecap="round" stroke-linejoin="round"/>
<text x="1030.63" y="529.21" font-family="sans-serif" font-size="14" stroke="#ffffff" stroke-opacity="0.784" stroke-width="2.33" stroke-linejoin="round" paint-order="stroke" fill="#141414">Guaporé</text>
<text x="986.18" y="1132.94" font-family="sans-serif" font-size="14" stroke="#ffffff" stroke-opacity="0.784" stroke-width="2.33" stroke-linejoin="round" paint-order="stroke" fill="#141414">Grande</text>
<text x="313.87" y="661.83" font-family="sans-serif" font-size="14" stroke="#ffffff" stroke-opacity="0.784" stroke-width="2.33" stroke-linejoin="round" paint-order="stroke" fill="#141414">Beni</text>
<text x="764.67" y="1648.76" font-family="sans-serif" font-size="14" stroke="#ffffff" stroke-opacity="0.784" stroke-width="2.33" stroke-linejoin="round" paint-order="stroke" fill="#141414">Pilcomayo</text>
<text x="277.53" y="305.17" font-family="sans-serif" font-size="14" stroke="#ffffff" stroke-opacity="0.784" stroke-width="2.33" stroke-linejoin="round" paint-order="stroke" fill="#141414">Madre de Dios</text>
<text x="832.2" y="778.97" font-family="sans-serif" font-size="14" stroke="#ffffff" stroke-opacity="0.784" stroke-width="2.33" stroke-linejoin="round" paint-order="stroke" fill="#141414">San Miguel</text>
<text x="1671.58" y="1712.33" font-family="sans-serif" font-size="14" stroke="#ffffff" stroke-opacity="0.784" stroke-width="2.33" stroke-linejoin="round" paint-order="stroke" fill="#141414">Paraná</text>
<text x="627.55" y="632.2" font-family="sans-serif" font-size="14" stroke="#ffffff" stroke-opacity="0.784" stroke-width="2.33" stroke-linejoin="round" paint-order="stroke" fill="#141414">Mamoré</text>
<text x="961.25" y="645.69" font-family="sans-serif" font-size="14" stroke="#ffffff" stroke-opacity="0.784" stroke-width="2.33" stroke-linejoin="round" paint-order="stroke" fill="#141414">San Martin</text>
<text x="1138.53" y="275.49" font-family="sans-serif" font-size="14" stroke="#ffffff" stroke-opacity="0.784" stroke-width="2.33" stroke-linejoin="round" paint-order="stroke" fill="#141414">Jiparaná</text>
<text x="1538.3" y="474.24" font-family="sans-serif" font-size="14" stroke="#ffffff" stroke-opacity="0.784" stroke-width="2.33" stroke-linejoin="round" paint-order="stroke" fill="#141414">Juruena</text>
<text x="1647.14" y="356.78" font-family="sans-serif" font-size="14" stroke="#ffffff" stroke-opacity="0.784" stroke-width="2.33" stroke-linejoin="round" paint-order="stroke" fill="#141414">Teles Pires</text>
<text x="693.07" y="1084.13" font-family="sans-serif" font-size="14" stroke="#ffffff" stroke-opacity="0.784" stroke-width="2.33" stroke-linejoin="round" paint-order="stroke" fill="#141414">Yapacani</text>
<text x="600.39" y="254.48" font-family="sans-serif" font-size="14" stroke="#ffffff" stroke-opacity="0.784" stroke-width="2.33" stroke-linejoin="round" paint-order="stroke" fill="#141414">Guaporé</text>
<text x="1213.98" y="1948.9" font-family="sans-serif" font-size="14" stroke="#ffffff" stroke-opacity="0.784" stroke-width="2.33" stroke-linejoin="round" paint-order="stroke" fill="#141414">Verde</text>
<text x="1635.83" y="131.59" font-family="sans-serif" font-size="14" stroke="#ffffff" stroke-opacity="0.784" stroke-width="2.33" stroke-linejoin="round" paint-order="stroke" fill="#141414">Tapajós</text>
<text x="735.12" y="1916.35" font-family="sans-serif" font-size="14" stroke="#ffffff" stroke-opacity="0.784" stroke-width="2.33" stroke-linejoin="round" paint-order="stroke" fill="#141414">Bermejo</text>
<text x="609.05" y="68.6" font-family="sans-serif" font-size="14" stroke="#ffffff" stroke-opacity="0.784" stroke-width="2.33" stroke-linejoin="round" paint-order="stroke" fill="#141414">Madeira</text>
<text x="325.79" y="51.49" font-family="sans-serif" font-size="14" stroke="#ffffff" stroke-opacity="0.784" stroke-width="2.33" stroke-linejoin="round" paint-order="stroke" fill="#141414">Ituxi</text>
</svg>
