<?xml version="1.0" encoding="UTF-8" standalone="no"?>
<svg xmlns="http://www.w3.org/2000/svg" width="2000" height="1907" viewBox="0 0 2000 1907">
<rect width="2000" height="1907" fill="#ffffff"/>
<polyline points="278.78,1256.19 272.31,1255.7 278.37,1254.06 278.78,1256.19" fill="none" stroke="#1e1e1e" stroke-width="1.78" stroke-linecap="round" stroke-linejoin="round"/>
<polyline points="223.84,1297.96 220.33,1297.44 218.25,1294.08 222.27,1294.83 223.84,1297.96" fill="none" stroke="#1e1e1e" stroke-width="1.78" stroke-linecap="round" stroke-linejoin="round"/>
<polyline points="256.51,1315.84 254.67,1315.15 255.05,1312.86 257.65,1313.13 256.51,1315.84" fill="none" stroke="#1e1e1e" stroke-width="1.78" stroke-linecap="round" stroke-linejoin="round"/>
<polyline points="249.44,1308.54 245.03,1309.39 243.45,1303.72 246.3,1304.14 249.44,1308.54" fill="none" stroke="#1e1e1e" stroke-width="1.78" stroke-linecap="round" stroke-linejoin="round"/>
<polyline points="173.39,1258.83 169.51,1257.17 168.84,1255.96 175.79,1254.81 176.47,1257.7 173.39,1258.83" fill="none" stroke="#1e1e1e" stroke-width="1.78" stroke-linecap="round" stroke-linejoin="round"/>
<polyline points="130.72,1229.73 128.75,1226.4 132.11,1228.47 130.72,1229.73" fill="none" stroke="#1e1e1e" stroke-width="1.78" stroke-linecap="round" stroke-linejoin="round"/>
<polyline points="106.85,1186.43 113.06,1189.4 108.05,1188.87 106.85,1186.43" fill="none" stroke="#1e1e1e" stroke-width="1.78" stroke-linecap="round" stroke-linejoin="round"/>
<polyline points="1225.01,1852.67 1222.24,1846.85 1223.66,1844.28 1228.72,1852.94 1225.01,1852.67" fill="none" stroke="#1e1e1e" stroke-width="1.78" stroke-linecap="round" stroke-linejoin="round"/>
<polyline points="1132.73,1809.09 1135.04,1801.48 1137.83,1800.92 1151.77,1814.04 1140.73,1812.21 1139.65,1813.83 1141.82,1816.44 1133.74,1816.72 1125.57,1806.59 1132.73,1809.09" fill="none" stroke="#1e1e1e" stroke-width="1.78" stroke-linecap="round" stroke-linejoin="round"/>
<polyline points="1130.99,1793.42 1128.62,1795.92 1126.3,1794.8 1128.18,1791.87 1130.99,1793.42" fill="none" stroke="#1e1e1e" stroke-width="1.78" stroke-linecap="round" stroke-linejoin="round"/>
<polyline points="269.02,1571.35 268.38,1575.51 265.67,1575.16 265.19,1573.4 269.02,1571.35" fill="none" stroke="#1e1e1e" stroke-width="1.78" stroke-linecap="round" stroke-linejoin="round"/>
<polyline points="61.17,1113.04 58.87,1115.38 59.45,1112.02 61.17,1113.04" fill="none" stroke="#1e1e1e" stroke-width="1.78" stroke-linecap="round" stroke-linejoin="round"/>
<polyline points="117.88,1114.64 121.24,1119.87 118.73,1118.16 117.33,1119.66 116.27,1117.36 117.88,1114.64" fill="none" stroke="#1e1e1e" stroke-width="1.78" stroke-linecap="round" stroke-linejoin="round"/>
<polyline points="81.45,1091.55 90.37,1100.27 95.85,1109.4 94.12,1111.72 97,1113.6 96.59,1116.82 93.52,1116.59 96.92,1121.32 96.62,1125.82 92.67,1122.51 91.96,1117.81 72.39,1099.83 72.27,1097.17 74.05,1096.87 79.97,1100.52 79.3,1095.29 81.45,1091.55" fill="none" stroke="#1e1e1e" stroke-width="1.78" stroke-linecap="round" stroke-linejoin="round"/>
<polyline points="101.42,1119.89 102.8,1125.16 101.68,1126.08 101.42,1119.89" fill="none" stroke="#1e1e1e" stroke-width="1.78" stroke-linecap="round" stroke-linejoin="round"/>
<polyline points="67.11,1083.55 70.2,1084.98 70,1088.28 67.25,1086.54 67.11,1083.55" fill="none" stroke="#1e1e1e" stroke-width="1.78" stroke-linecap="round" stroke-linejoin="round"/>
<polyline points="65.91,1082.51 60.55,1080.26 62.83,1083.55 61.52,1085.02 58.45,1082.29 56.77,1073.89 53.4,1070.92 54.72,1067.34 57.52,1069.03 57.97,1072.38 64.04,1076.24 65.91,1082.51" fill="none" stroke="#1e1e1e" stroke-width="1.78" stroke-linecap="round" stroke-linejoin="round"/>
<polyline points="911.36,1644.22 912.96,1644.32 914.89,1647.38 911.65,1646.99 911.36,1644.22" fill="none" stroke="#1e1e1e" stroke-width="1.78" stroke-linecap="round" stroke-linejoin="round"/>
<polyline points="29.48,1146.1 31.75,1145.79 33.92,1148.68 30.38,1148.18 29.48,1146.1" fill="none" stroke="#1e1e1e" stroke-width="1.78" stroke-linecap="round" stroke-linejoin="round"/>
<polyline points="41.15,1071.29 38.46,1069 34.92,1062.8 42.09,1069.58 41.15,1071.29" fill="none" stroke="#1e1e1e" stroke-width="1.78" stroke-linecap="round" stroke-linejoin="round"/>
<polyline points="47.18,1084.53 49.98,1093.18 38.51,1079.68 40.66,1073.99 50.88,1082.39 52.83,1086.71 50.78,1087.55 47.18,1084.53" fill="none" stroke="#1e1e1e" stroke-width="1.78" stroke-linecap="round" stroke-linejoin="round"/>
<polyline points="38.9,1117.37 42.73,1117.45 43.87,1120.85 42.31,1120.77 38.9,1117.37" fill="none" stroke="#1e1e1e" stroke-width="1.78" stroke-linecap="round" stroke-linejoin="round"/>
<polyline points="551.22,1743.28 552.63,1745.83 551.25,1751.22 553.26,1754.33 550.1,1753.5 549.04,1756.77 546.6,1754.37 548.19,1747.04 546.15,1746.29 551.22,1743.28" fill="none" stroke="#1e1e1e" stroke-width="1.78" stroke-linecap="round" stroke-linejoin="round"/>
<polyline points="406.94,1754.48 403.67,1753.93 402.28,1757.42 399.09,1757.81 400.26,1760.89 396.44,1761.02 399.18,1753.88 402.41,1752.32 406.93,1744.4 417.23,1746.2 420.91,1750.21 415.77,1755.02 407.23,1751.1 406.94,1754.48" fill="none" stroke="#1e1e1e" stroke-width="1.78" stroke-linecap="round" stroke-linejoin="round"/>
<polyline points="638.54,1750.03 637.2,1747.12 638.93,1743.28 641.05,1747.88 638.54,1750.03" fill="none" stroke="#1e1e1e" stroke-width="1.78" stroke-linecap="round" stroke-linejoin="round"/>
<polyline points="556.46,1764.86 552.73,1765.52 552.22,1764.35 556.46,1764.86" fill="none" stroke="#1e1e1e" stroke-width="1.78" stroke-linecap="round" stroke-linejoin="round"/>
<polyline points="742.34,1625.85 734.5,1622.78 734.96,1620.46 740.49,1620.36 743.65,1622.71 742.34,1625.85" fill="none" stroke="#1e1e1e" stroke-width="1.78" stroke-linecap="round" stroke-linejoin="round"/>
<polyline points="648.38,1752.72 645.88,1750.19 641.66,1751.13 640.31,1749.99 649.16,1747.82 648.38,1752.72" fill="none" stroke="#1e1e1e" stroke-width="1.78" stroke-linecap="round" stroke-linejoin="round"/>
<polyline points="744.82,1638.51 741.53,1636.03 741.91,1633.95 744.44,1634.75 744.82,1638.51" fill="none" stroke="#1e1e1e" stroke-width="1.78" stroke-linecap="round" stroke-linejoin="round"/>
<polyline points="638.97,1758.26 638.11,1755 643.7,1755.59 642.18,1758.01 638.97,1758.26" fill="none" stroke="#1e1e1e" stroke-width="1.78" stroke-linecap="round" stroke-linejoin="round"/>
<polyline points="509.84,1763.36 508.65,1761.38 511.42,1759.42 511.62,1761.35 514.54,1760.92 514.7,1756.97 516.23,1757.97 517.32,1756.22 521.29,1760.67 518.37,1759.85 516.26,1762.63 509.84,1763.36" fill="none" stroke="#1e1e1e" stroke-width="1.78" stroke-linecap="round" stroke-linejoin="round"/>
<polyline points="504.45,1656.38 500.33,1655.86 503.92,1653.32 504.45,1656.38" fill="none" stroke="#1e1e1e" stroke-width="1.78" stroke-linecap="round" stroke-linejoin="round"/>
<polyline points="496.04,1649.52 491.24,1648.99 492.03,1646.19 496.04,1649.52" fill="none" stroke="#1e1e1e" stroke-width="1.78" stroke-linecap="round" stroke-linejoin="round"/>
<polyline points="655.02,1743.6 647.91,1745.48 647.62,1742.64 655.02,1743.6" fill="none" stroke="#1e1e1e" stroke-width="1.78" stroke-linecap="round" stroke-linejoin="round"/>
<polyline points="498.87,1615.54 495.48,1617.14 494.61,1615.11 498.87,1615.54" fill="none" stroke="#1e1e1e" stroke-width="1.78" stroke-linecap="round" stroke-linejoin="round"/>
<polyline points="1045.65,1757 1047.39,1752.99 1052.58,1752.37 1050.52,1754.09 1053.03,1758.59 1050.72,1759.49 1045.65,1757" fill="none" stroke="#1e1e1e" stroke-width="1.78" stroke-linecap="round" stroke-linejoin="round"/>
<polyline points="1083.52,1773.35 1080.35,1774.75 1082.82,1779.77 1077.08,1778.8 1072.59,1773.09 1064.86,1771.08 1056.62,1762.27 1059.36,1761.8 1064.31,1765.92 1066.85,1765.02 1077.14,1773.86 1077.41,1769.53 1083.52,1773.35" fill="none" stroke="#1e1e1e" stroke-width="1.78" stroke-linecap="round" stroke-linejoin="round"/>
<polyline points="831.34,1734.13 832.58,1732.65 832.16,1735.97 828.32,1736.04 830.13,1732.46 831.34,1734.13" fill="none" stroke="#1e1e1e" stroke-width="1.78" stroke-linecap="round" stroke-linejoin="round"/>
<polyline points="1260.9,1881.65 1266.57,1887.11 1263.28,1886.36 1260.9,1881.65" fill="none" stroke="#1e1e1e" stroke-width="1.78" stroke-linecap="round" stroke-linejoin="round"/>
<polyline points="554.16,1752.05 558.41,1746.57 564.32,1744.28 564.38,1746.93 569.48,1744.37 566.23,1748.1 570.25,1746.82 571.4,1748.84 567.63,1749.31 564.04,1752.92 559.84,1752.72 562.86,1754.19 560.19,1757.2 562.71,1758.07 561.93,1759.9 558.78,1759.8 558.75,1756.3 554.91,1754.55 554.16,1752.05" fill="none" stroke="#1e1e1e" stroke-width="1.78" stroke-linecap="round" stroke-linejoin="round"/>
<polyline points="226.26,1270.64 227.07,1267.41 242.67,1269.78 247.38,1279.69 243.92,1281.44 243.4,1286.52 240.26,1286.36 235.74,1281.79 234.62,1283.97 231.41,1283.77 233.07,1286.1 231.09,1288.24 226.39,1286.72 222.8,1289.47 212.97,1287.39 217.87,1278.84 219.35,1278.33 220.19,1280.92 222.69,1279.48 219.9,1275.83 221.51,1272.69 231.9,1274.99 231.97,1272.94 226.26,1270.64" fill="none" stroke="#1e1e1e" stroke-width="1.78" stroke-linecap="round" stroke-linejoin="round"/>
<polyline points="1108.42,1774.54 1123.11,1787.61 1122.94,1790.43 1118.58,1791.72 1122.2,1794.67 1117.62,1796.75 1118.43,1800.06 1084.37,1776.97 1083.76,1775.29 1094.42,1780.27 1077.36,1760.54 1087.43,1762.68 1089.1,1761.36 1095.34,1765.6 1096.01,1768.64 1108.42,1774.54" fill="none" stroke="#1e1e1e" stroke-width="1.78" stroke-linecap="round" stroke-linejoin="round"/>
<polyline points="602.43,1377.37 606.76,1383.44 599.62,1385.83 598.38,1391.95 600.77,1393.85 596.06,1396.23 594.91,1391.95 589.57,1390.84 592.54,1395.86 590.1,1396.29 590.75,1397.88 587.76,1397.42 588.87,1399.86 583.2,1403.6 579.48,1400.93 578.91,1404.33 571.65,1405.57 565.62,1403.81 564.89,1405.7 549.94,1408.79 537.01,1408.22 535.01,1406.31 533.35,1408.13 514.97,1407.97 501.69,1410.91 487.36,1407.9 481.5,1410.55 477.39,1409.64 475.3,1412.35 474.66,1410.21 465.03,1407.08 422.79,1401.55 421.28,1398.3 418.09,1398.98 416.26,1395.87 415.76,1398.92 412.67,1396.83 411.22,1394.79 412.53,1392.25 408.14,1395.9 408.76,1390.15 406.54,1390.77 405.32,1388.71 406.8,1385.45 402.5,1390.81 399.86,1382.89 398.44,1385.34 392.73,1382.55 393.74,1377.91 391.38,1378.65 391.09,1374.77 388.91,1377.02 389.56,1382.05 388.93,1379.19 384.97,1381.11 387.69,1375.23 386.16,1373.53 384.25,1375.55 384.18,1372.19 383.03,1374.05 382.05,1371.23 379.73,1372.87 381.18,1377.6 378.94,1374.95 377.24,1376.6 375.03,1375.14 375.89,1369.12 372.87,1373.81 369.92,1372.68 369.1,1369.52 365.27,1368.02 363.54,1369.36 362.47,1357.45 367.29,1358.05 370.5,1364.3 378.2,1361.21 383.02,1362.75 382.51,1360.43 375.64,1359.14 375.4,1349.14 385.77,1343.32 390.7,1345.96 388.67,1344.29 390.62,1343.11 381.12,1339.92 383.37,1336.26 381.87,1334.05 384.13,1333.16 380.77,1331.04 379.68,1327.18 379.25,1329.23 375.9,1327.43 373.13,1319.15 375.5,1316.71 415.08,1323.17 420.92,1321.47 428.18,1323.14 429.16,1320.5 433.57,1319.88 432.49,1321.25 436.19,1322.96 436.5,1321.01 437.58,1320.82 449.44,1325.83 459.48,1325.18 457.69,1327.9 460.86,1326.58 462.11,1328.92 463.5,1325.3 469.85,1329.6 474.16,1327.11 483.92,1329.42 484.42,1331.66 485.99,1329.49 491.27,1331.06 492.39,1333.91 494.17,1331.97 499.11,1332.26 500.05,1336.14 502.65,1333.81 506.6,1336.18 510.61,1335.51 511.15,1337.67 513.44,1335.77 519.52,1338.37 519.5,1341.26 521.41,1338.32 527.15,1339.15 528.21,1347.2 525.5,1348.94 526.89,1349.67 531.16,1349.86 529.53,1344.28 530.85,1339.34 533.14,1341.68 534.71,1340.11 543.84,1341.84 544.9,1343.91 546.08,1342.18 550.27,1342.73 550.52,1348.44 552.29,1344.49 557.37,1347.06 558.82,1344.73 562.77,1347.88 565.34,1346.58 569.09,1351.22 557.88,1352.77 555.08,1354.94 558.7,1355.99 559.16,1358.07 559.67,1354.58 567.1,1354.87 564.84,1357.94 567.47,1358.22 570.82,1354.69 571.83,1358.44 572.94,1356.34 575.03,1358.27 574.36,1361.54 576.35,1358.54 578,1360.06 575.21,1354.54 577.58,1354.11 579.09,1356.41 579.73,1352.95 583.58,1358.87 585.61,1356.44 587.72,1360.99 589.08,1359.81 592.69,1362.15 591.37,1365.32 595.5,1364.48 609.24,1372.98 605.65,1378.52 602.43,1377.37" fill="none" stroke="#1e1e1e" stroke-width="1.78" stroke-linecap="round" stroke-linejoin="round"/>
<polyline points="315.46,1468.58 312.76,1468.03 311.2,1469.8 313.34,1465.34 315.46,1468.58" fill="none" stroke="#1e1e1e" stroke-width="1.78" stroke-linecap="round" stroke-linejoin="round"/>
<polyline points="337.66,1478.72 338.38,1482.5 336.87,1483.56 333.97,1479.82 337.66,1478.72" fill="none" stroke="#1e1e1e" stroke-width="1.78" stroke-linecap="round" stroke-linejoin="round"/>
<polyline points="371.35,1478.76 370.08,1479.95 367.14,1476.73 365.39,1483.07 362.51,1480.41 367.85,1473.4 371.35,1478.76" fill="none" stroke="#1e1e1e" stroke-width="1.78" stroke-linecap="round" stroke-linejoin="round"/>
<polyline points="357.04,1471.46 357.92,1479.79 355.28,1476.77 351.11,1481.92 352.25,1477.43 349.03,1481.29 346.88,1476.96 344.66,1480.2 344.71,1476.28 342.73,1474.98 342.48,1480.68 339.59,1481.05 341.15,1476.96 338.53,1473.8 335.28,1476.72 334.91,1473 329.64,1474.97 331.26,1471.2 327.99,1472.18 327.85,1469.54 321.89,1473.55 321.52,1470.9 325.96,1467.79 325.8,1464.79 327.8,1467.07 331.86,1464.22 333.46,1469.53 335.17,1467.53 336.73,1471.64 339.83,1473.02 344.8,1470.3 347.73,1474.86 349.93,1471.93 350.86,1474.07 354.37,1473.45 353.07,1475.55 356.74,1474.54 357.04,1471.46" fill="none" stroke="#1e1e1e" stroke-width="1.78" stroke-linecap="round" stroke-linejoin="round"/>
<polyline points="359.31,1475.99 362.7,1476.94 359.05,1478.26 359.31,1475.99" fill="none" stroke="#1e1e1e" stroke-width="1.78" stroke-linecap="round" stroke-linejoin="round"/>
<polyline points="372.88,1475.61 375.59,1478.4 371.91,1478.68 372.88,1475.61" fill="none" stroke="#1e1e1e" stroke-width="1.78" stroke-linecap="round" stroke-linejoin="round"/>
<polyline points="512.09,1522.04 526.26,1525.62 527.34,1530.37 520.91,1529.77 520.32,1532.37 517.49,1530.64 517.9,1533.24 514.46,1531.17 515.17,1533.83 510.44,1533.99 507.17,1531.51 498.82,1532.19 487.22,1528.09 491.69,1526.73 490.87,1524.47 493.54,1525.66 493.31,1522.13 495.55,1523.73 500.71,1520.62 503.05,1520.97 503.18,1523.03 506.07,1521.3 505.19,1525.8 507.23,1527.14 508.25,1521.82 510.37,1522.02 510.64,1524.92 512.09,1522.04" fill="none" stroke="#1e1e1e" stroke-width="1.78" stroke-linecap="round" stroke-linejoin="round"/>
<polyline points="502.62,1641.62 494.09,1641.51 492.59,1638.84 491.75,1641.16 489.59,1637.52 488.85,1639.29 488.29,1637.97 487.12,1637.65 488.98,1645.23 487.77,1647.72 485.55,1647.28 485.75,1644.68 483.73,1646 474.73,1640.2 478.38,1637.72 475.03,1636.12 474.4,1632.65 477.8,1633.26 477.06,1631.62 480.74,1631.38 484.35,1628.06 491.2,1628.07 486.3,1623.48 487.36,1620.7 491.91,1622.01 493.23,1620.05 503.59,1619.02 506.28,1616.68 511.51,1619.38 511.08,1617.03 514.94,1615.36 513.53,1611.77 513.19,1614.92 509.93,1615.76 507.7,1614.88 507.14,1610.67 503.35,1612.69 500.08,1610.47 499.56,1611.99 497.42,1610.03 495.03,1611.05 494.71,1607.39 490.74,1607.12 491.47,1603.28 488.35,1605.53 488.11,1601.54 483.05,1599.41 478.41,1606.83 475.92,1600.29 473.95,1602.1 469.75,1600.34 473.67,1595.79 479.83,1595.75 480.42,1598.9 484.86,1595.65 486.94,1596.36 486.88,1594.1 489.75,1594.09 490.49,1597.79 492.92,1593.76 493.2,1595.18 498.29,1593.52 497.76,1596.07 503.24,1593.2 505.49,1594.76 504.41,1598.16 508.01,1595.7 510.3,1599.77 512.63,1595.58 516.81,1598.39 518.66,1596.41 523.76,1603.33 537.96,1607.65 539.27,1605.66 544.03,1610.11 546.3,1608.2 549.11,1610.17 548.45,1612.87 552.89,1610.86 561.1,1611.75 560.67,1613.61 562.28,1612.46 582.5,1619.35 593.62,1618.64 601.05,1614.58 607.18,1615.54 614.19,1612.06 612.8,1610.03 619.57,1610.42 621.59,1612.5 621.65,1609.89 629.79,1608.21 655.11,1608.6 663.16,1606 668.16,1609.39 668.55,1606.19 682.05,1604.54 678.79,1607.1 680.87,1609.51 688.75,1610.23 689.25,1612.44 697.75,1612.11 704.07,1615.61 708.67,1614.87 707.04,1616.09 709.14,1618.08 711.82,1615.42 714.38,1616.7 713.92,1619.77 717.18,1619.73 716.03,1616.51 721.89,1618.65 726.44,1616.6 727.19,1621.18 729.35,1621.37 727.41,1626.11 730.69,1624.09 731.68,1620.51 740.92,1636.19 738.78,1641.1 742.18,1639.66 744.03,1644.7 744.85,1642.93 749.6,1643 751.15,1645.4 757.16,1645.21 759.96,1648.6 753.91,1652.4 751.46,1647.87 747.61,1651.89 730.02,1652.15 729.99,1654.09 725.57,1653.17 724.88,1655.02 722.37,1654.09 722.95,1651.32 720.71,1655.2 718.39,1655.4 715.23,1654.9 715.68,1652.87 711.94,1654.61 711.78,1651.84 709.99,1651.62 709.42,1654.16 699.73,1651.41 700,1649.12 697.78,1648.9 697.63,1650.79 682.58,1646.73 680.6,1645.89 681.08,1643.42 678.98,1645.46 675.34,1643.37 660.08,1643.93 658.99,1640.46 656.77,1643.28 652.27,1643.49 645.53,1640.49 638.35,1642.71 633.31,1648.6 628.91,1650.54 627.23,1648.65 626.79,1652.68 624.71,1649.38 613.96,1656.69 612.24,1655.02 610.01,1658.99 608.13,1657.86 602.94,1661.55 597.84,1659.8 597.44,1662.13 595.56,1660.59 594.96,1662.45 593.11,1661.23 588.74,1663.75 588.28,1661.65 585.82,1663.63 580.87,1660.94 586.68,1656.92 587.09,1654.81 584.64,1656.5 583.02,1654.87 585.41,1652.39 575.03,1657.65 556.31,1654.32 553.17,1656.87 552.23,1654.28 543.73,1656.41 544.41,1652.86 540.63,1655.05 532.45,1653.46 516.86,1644.9 512.86,1644.2 512.97,1646.81 510.64,1643.79 507.91,1645.21 502.62,1641.62" fill="none" stroke="#1e1e1e" stroke-width="1.78" stroke-linecap="round" stroke-linejoin="round"/>
<polyline points="516.65,1648.27 525.22,1652.12 525.88,1655.07 516.65,1648.27" fill="none" stroke="#1e1e1e" stroke-width="1.78" stroke-linecap="round" stroke-linejoin="round"/>
<polyline points="153.76,1603.81 151.5,1597.44 154.75,1595.61 151.71,1595.77 154.18,1593 152.35,1592.6 152.81,1589.37 155.21,1587.46 161.52,1593.75 163.09,1591.75 162.14,1596.74 164.22,1596.92 162.07,1598.81 164.99,1600.24 162,1611.4 156.75,1609.73 149.82,1615.65 153.76,1603.81" fill="none" stroke="#1e1e1e" stroke-width="1.78" stroke-linecap="round" stroke-linejoin="round"/>
<polyline points="16.12,1562.64 30.73,1556.67 36.52,1559.14 34.64,1563.72 29.35,1566.96 21.66,1569.55 20.22,1567.43 16.01,1567.33" fill="none" stroke="#1e1e1e" stroke-width="1.78" stroke-linecap="round" stroke-linejoin="round"/>
<polyline points="275.77,1570.72 275.11,1565.02 278.96,1567.22 276.35,1568.02 275.77,1570.72" fill="none" stroke="#1e1e1e" stroke-width="1.78" stroke-linecap="round" stroke-linejoin="round"/>
<polyline points="464.85,1595.76 467.14,1601.34 459.08,1600.24 464.85,1595.76" fill="none" stroke="#1e1e1e" stroke-width="1.78" stroke-linecap="round" stroke-linejoin="round"/>
<polyline points="34.96,1118.22 29.01,1117.41 28.59,1116.12 31.89,1115.22 34.96,1118.22" fill="none" stroke="#1e1e1e" stroke-width="1.78" stroke-linecap="round" stroke-linejoin="round"/>
<polyline points="53.63,1111.53 54.1,1107.09 56.75,1108.91 56.66,1116.69 53.63,1111.53" fill="none" stroke="#1e1e1e" stroke-width="1.78" stroke-linecap="round" stroke-linejoin="round"/>
<polyline points="34.39,1091.12 38.5,1099.58 39.63,1098.27 42.01,1100.85 43.66,1099.88 46.2,1104.13 48.71,1103.38 51.01,1107.36 48.87,1110.88 44.12,1106.03 39.61,1107.87 36.96,1103.19 34.7,1104.26 31.73,1096.55 34.39,1091.12" fill="none" stroke="#1e1e1e" stroke-width="1.78" stroke-linecap="round" stroke-linejoin="round"/>
<polyline points="67.72,1119.88 67.54,1122.96 66.17,1120.76 67.72,1119.88" fill="none" stroke="#1e1e1e" stroke-width="1.78" stroke-linecap="round" stroke-linejoin="round"/>
<polyline points="108.58,1129.62 111.56,1131.37 109.09,1133.38 108.15,1132.93 108.58,1129.62" fill="none" stroke="#1e1e1e" stroke-width="1.78" stroke-linecap="round" stroke-linejoin="round"/>
<polyline points="266.86,1313.31 264.48,1312.82 262.44,1314.73 259.95,1312.23 262.44,1310.34 259.53,1309.58 260.51,1306.58 262.87,1306.43 258.9,1302.16 262.32,1299.14 266.18,1301.03 285.6,1299.87 291.52,1301.01 292.59,1303.61 296.74,1302.3 302.05,1304.64 303.15,1307.09 307.39,1307.93 305.43,1310.17 309.05,1311.09 307.66,1312.93 309.23,1315.1 311.65,1310.18 317.9,1313.07 314.92,1316.42 316.81,1319.02 313.82,1319.31 315.28,1324.09 319,1319.85 320.87,1321.38 323.26,1313.41 328.38,1323.01 333.82,1326.19 334.99,1331.34 335.5,1328.63 338.88,1329.28 339.46,1334.94 343.01,1338.59 340.27,1340.47 343.39,1340.67 345.61,1343.04 344.32,1344.78 347.81,1346.31 350.2,1350.87 351.32,1349.44 354.56,1351.27 357.73,1359.43 355.27,1360.52 352.66,1354.63 351.28,1362.66 349.01,1362.14 346.22,1355.72 345.12,1359.32 341.54,1358.14 341.48,1351.28 339.54,1355.53 337.07,1355.93 334.12,1354.55 332.68,1350.74 316.87,1345.86 314.68,1344.02 315.97,1341.72 311.39,1341.17 313.87,1339.4 313.01,1336.28 309.56,1338.71 305.18,1332.14 304.26,1334.84 302.17,1334.48 303.24,1329.52 301.15,1330.54 301.14,1328.48 299.05,1328.67 297.47,1332.36 294.03,1328.74 291.82,1329.66 292.33,1327.23 289.92,1328.47 288.99,1325.34 287.6,1327.51 284.58,1323.77 283.27,1325.66 281.95,1323.05 279.57,1324.23 279.31,1321.86 275.55,1322.88 274.05,1319.16 272.14,1321.84 266.26,1319.82 263.33,1321.06 261.6,1316.94 266.86,1313.31" fill="none" stroke="#1e1e1e" stroke-width="1.78" stroke-linecap="round" stroke-linejoin="round"/>
<polyline points="895.65,1587.47 895.72,1590.5 894.57,1591.59 892.08,1585.52 895.65,1587.47" fill="none" stroke="#1e1e1e" stroke-width="1.78" stroke-linecap="round" stroke-linejoin="round"/>
<polyline points="109.92,1147.84 110.42,1145.6 115.3,1147.1 114.49,1147.78 109.92,1147.84" fill="none" stroke="#1e1e1e" stroke-width="1.78" stroke-linecap="round" stroke-linejoin="round"/>
<polyline points="860.88,1736 876,1738.6 865.52,1739.01 860.88,1736" fill="none" stroke="#1e1e1e" stroke-width="1.78" stroke-linecap="round" stroke-linejoin="round"/>
<polyline points="862.7,1734.07 857.47,1734.49 857.3,1731.94 860.82,1731.34 862.7,1734.07" fill="none" stroke="#1e1e1e" stroke-width="1.78" stroke-linecap="round" stroke-linejoin="round"/>
<polyline points="743.67,1631.3 741,1629.35 741.46,1627.18 743.31,1628.08 743.67,1631.3" fill="none" stroke="#1e1e1e" stroke-width="1.78" stroke-linecap="round" stroke-linejoin="round"/>
<polyline points="283.8,1544.28 280.32,1551.51 271.38,1558.56 269.69,1557.83 269.53,1565.18 265.99,1565.85 265.28,1569.79 260.29,1568.45 261.77,1574.08 257.38,1573.82 255.95,1569.89 254.32,1571.49 252.41,1568.87 252.75,1572.41 250.45,1573.27 246.34,1572.98 246.66,1570.57 241.31,1573.72 239.61,1570.44 239.65,1574.85 234.48,1572.43 234.08,1575.23 231.59,1575.4 231.62,1573.4 209.57,1580.04 205.2,1578.73 204.47,1580.73 186.44,1580.04 188.78,1574.98 199.96,1567.81 200.14,1559.2 196.05,1551.21 185.65,1556.06 181.77,1548.3 178.09,1546.88 190.83,1539.85 192.99,1536.51 199.79,1534.09 210.96,1533.65 212.8,1531.2 215.38,1533.91 216.22,1530.45 218.93,1530.94 217.61,1533.02 220.28,1534.22 222.85,1530.48 240.94,1530.84 247.3,1528.91 248.59,1530.96 243.52,1531.1 245.53,1533.44 254.09,1533.8 251.57,1538.91 248.86,1537.91 249.01,1542.69 246.54,1542.05 248.58,1544.6 253.74,1544.89 256.58,1537.57 263.93,1534.46 265.91,1536.25 268.85,1533.35 269.17,1536.32 271.43,1533.54 276.02,1532.74 273.4,1535.82 276.3,1535.78 275.39,1541.01 278.43,1535.66 282.57,1535.14 279.17,1540.38 283.59,1540.77 280.69,1545.68 283.8,1544.28" fill="none" stroke="#1e1e1e" stroke-width="1.78" stroke-linecap="round" stroke-linejoin="round"/>
<polyline points="1172.6,1819.29 1176.1,1820.2 1174.8,1825.98 1172.46,1825.42 1171.61,1820.34 1162.11,1819.01 1157.41,1815.84 1164.07,1813.21 1167.05,1814.63 1165.23,1810.84 1166.75,1810.61 1172.07,1813.73 1172.6,1819.29" fill="none" stroke="#1e1e1e" stroke-width="1.78" stroke-linecap="round" stroke-linejoin="round"/>
<polyline points="200.44,1277.24 191.97,1276.86 189.88,1274.6 186.35,1276.3 185.63,1273.62 187.43,1271.92 193.45,1272.86 195.36,1269.36 198.95,1271.03 202.95,1269.66 203.63,1273.37 208.15,1276.25 204.23,1277.66 205.22,1281.24 201.99,1283.46 198.8,1280.82 200.44,1277.24" fill="none" stroke="#1e1e1e" stroke-width="1.78" stroke-linecap="round" stroke-linejoin="round"/>
<polyline points="290.24,1228.95 310.88,1231.19 323.14,1238.88 329.33,1240.36 336.19,1246.31 342.69,1246.35 347.71,1249.64 356.08,1249.62 349.1,1252.41 319.22,1253.24 300.12,1248.71 296.19,1244.99 295.37,1250.17 282.98,1251.83 282.72,1254.87 277.06,1250.38 264.45,1248.09 261.42,1242.46 272.28,1241 277.96,1245.56 281.34,1245.84 278.53,1244.64 279.01,1243.32 287.72,1245.62 290.36,1243.35 287.72,1236.74 289.56,1235.59 285.97,1232.84 278.71,1232 290.24,1228.95" fill="none" stroke="#1e1e1e" stroke-width="1.78" stroke-linecap="round" stroke-linejoin="round"/>
<polyline points="566.87,1759.9 567.17,1750.9 572.22,1750.51 575.26,1747.7 572.08,1744.52 578.87,1745.58 578.82,1750.55 583.33,1743.45 588.82,1744.88 590.24,1748.33 592.26,1746.21 593.6,1747.83 595.82,1744.63 595.94,1748.95 609.7,1746.27 610.15,1748.84 614.37,1749.64 618.27,1746.82 620.42,1750.03 624.29,1749.5 627.92,1751.83 624.64,1754.87 624.55,1761.33 620.41,1764.68 616.83,1773.12 608.45,1778.72 603.05,1778.36 598.82,1781.57 595.84,1779.91 601.75,1775.82 599.87,1772.01 598.47,1776.69 594.2,1774.45 595.29,1771.58 588.89,1771.52 581.86,1775.45 580.36,1773.97 577.07,1775.61 578.74,1780.6 576.32,1781.48 576.89,1779.38 574.43,1778.88 572.87,1774.06 570.74,1776.02 567.42,1775.06 565.35,1767.47 561.1,1766.5 561.92,1763.8 567.69,1766.47 568.96,1762.82 566.87,1759.9" fill="none" stroke="#1e1e1e" stroke-width="1.78" stroke-linecap="round" stroke-linejoin="round"/>
<polyline points="415.17,1445.9 418.23,1448.6 420.78,1447.73 420.87,1450.21 422.77,1449.28 426.92,1454.36 427.13,1457.12 432.51,1460.79 436.56,1460.82 441.25,1465.9 444.95,1462.49 447.51,1463.66 450.51,1461.34 457,1461.14 445.02,1457.36 445.38,1454.17 442.26,1451.79 445.07,1449.03 439.31,1449.37 439.67,1447.11 437.51,1447.59 438.36,1444.87 435.46,1442.81 438.43,1440.67 436.15,1438.99 436.59,1436.42 434.23,1438.38 432.74,1436.52 431.73,1440.72 427.71,1438.97 427.17,1442.73 417.23,1432.69 422.31,1429.1 424.56,1433.56 425.01,1431.23 427.96,1432.96 429.01,1430.5 432.32,1434 430.42,1427.06 433.86,1428.62 434.66,1426.13 437.44,1428.06 436.85,1425.79 438.45,1425.42 440.77,1430.09 442.22,1426.04 445.05,1429.86 442.86,1430.81 444.47,1433.39 441.2,1435.74 443.72,1439.13 441.72,1440.43 443.39,1442 448.96,1440.82 446.85,1444.24 447.7,1446.83 451.53,1441.97 460.18,1438.48 461.01,1436.12 462.42,1441.22 464.41,1440.51 465.68,1442.81 467.3,1440.74 469.06,1442.71 473.55,1442.41 474.11,1440.73 478.05,1442.27 476.95,1438.81 479.39,1437.51 480.21,1442.39 483.19,1437.85 484.8,1441.91 487.02,1439.92 486.52,1441.76 488.79,1440.9 489.64,1443.47 491.59,1442.2 492.55,1445.67 488.78,1449.58 490.25,1450.71 487.91,1451.08 489.33,1453.16 492.22,1451.62 491.65,1453.29 496.57,1455.65 494.25,1458.46 498.5,1456.92 499.94,1461.98 504.64,1462.1 507.83,1465.39 503.1,1464.15 500.74,1466.58 494.29,1463.38 491.4,1463.39 497.49,1465.7 499.54,1469.97 505.73,1471.81 506.7,1474.39 505.85,1476.54 504.2,1476.5 504.03,1477.44 506.84,1477.21 509.15,1474.07 510.82,1475.35 509.46,1477.73 512.23,1476.89 514.1,1479.57 514.92,1477.75 517.63,1481.11 529.25,1478.69 531.73,1475.93 531.95,1480.08 536.6,1475.95 537.91,1478.09 545.74,1478.77 547.36,1481.32 548.4,1478.69 563.69,1480.32 564.94,1482.09 565.15,1480.08 569.94,1478.21 571.25,1479.89 577.29,1479.29 578.47,1482.79 584.62,1480.71 590.26,1482.19 589.56,1479.25 596.53,1478.49 597.69,1479.29 595.17,1481.14 595.25,1481.8 600.61,1479.67 598.39,1482.39 600.69,1483.66 600.98,1487.99 605.63,1482.19 607.94,1483.64 605.91,1485.05 607.66,1486.05 613.61,1484.41 617.33,1486.33 618.9,1484.47 638.03,1485.48 663.15,1490.64 666.12,1493.91 670.49,1491.39 672.22,1494.11 675.46,1492.94 675.92,1495.45 678.3,1493.44 684.58,1494.22 688.09,1496.65 690.1,1495.61 690.79,1497.62 692.7,1495.66 706.41,1496.01 711.86,1499.17 713.75,1497.09 725.28,1497.27 731.81,1494.85 750.4,1499.52 757.99,1505.16 752.96,1504.1 754.61,1505.72 750.65,1504.65 748.99,1506.99 740.87,1507.72 738.78,1509.85 734.7,1508.26 732.28,1510.67 729.54,1508.89 728.62,1511.52 716.67,1512.51 713.91,1510.21 709.95,1511.82 709.73,1509.39 707.59,1509.1 707.62,1511.67 703.37,1512.54 700.87,1510.27 699.59,1512.47 691.27,1510.98 691.25,1512.47 686.45,1512.7 683.49,1512.18 683.4,1508.88 680.42,1511.94 679.43,1508.56 679.39,1510.69 676.47,1511.71 670.99,1512.38 669.9,1510.37 668.98,1512.4 659.94,1512.35 655.93,1510.04 652.61,1511.57 648.83,1508.44 648.63,1511.08 644.52,1510.21 643.36,1512.67 627.18,1511.41 625.82,1512.9 624.48,1510.67 621.83,1511.89 616.61,1509.78 614.91,1511.7 606.84,1508.38 604.14,1510.43 599.13,1508.39 590.8,1509.04 549.85,1501.69 523.55,1501.53 498.73,1505.68 486.5,1504.89 456.26,1495.68 449.41,1495.72 449.44,1493.48 439.78,1490.08 429.32,1492.21 424.59,1489.58 424.23,1487.27 422.27,1488.42 413.5,1483.98 414.26,1485.33 409.52,1480.31 397.83,1474.87 395.92,1478.2 393.48,1477.24 390.63,1479.16 384.42,1474.4 380.83,1475.74 377.37,1473.99 379.35,1472.16 377.54,1468.27 375.32,1469.91 370.32,1468.22 367.44,1465.16 369.14,1463.41 365.98,1464.46 361.45,1462.52 362.02,1459.78 359.09,1459.72 360.19,1460.81 359.93,1461.58 342.98,1455.79 343.77,1452.92 341.23,1453.89 339.92,1452.03 346.22,1449.73 348.57,1452.19 352.81,1450.27 355.18,1451.52 354.95,1454.97 357.37,1452.72 365.54,1457.09 363.46,1450.39 367.59,1454.3 369.7,1449.94 370.62,1456.05 371.78,1453.03 374.33,1455.29 372.21,1449 376.64,1453.25 376.65,1447.51 381.37,1450.93 382.06,1445.63 385.84,1448.34 384.96,1443.64 388.64,1445.3 389.64,1443.74 391.2,1447.11 391.99,1442.58 398.45,1444.85 406.9,1444.2 407.63,1447.05 409.22,1444.47 414.66,1447.28 415.17,1445.9" fill="none" stroke="#1e1e1e" stroke-width="1.78" stroke-linecap="round" stroke-linejoin="round"/>
<polyline points="25.97,1144.94 26.84,1145.51 25.94,1145.94" fill="none" stroke="#1e1e1e" stroke-width="1.78" stroke-linecap="round" stroke-linejoin="round"/>
<polyline points="910.01,1770.45 888.18,1762.92 882.27,1768.22 878.8,1765.62 878.63,1762 870.37,1761.51 869.04,1758.79 866.94,1761.47 864.5,1760.38 862.79,1755.24 853.92,1752.66 848.12,1752.49 847.72,1749.16 843.83,1746.55 842.7,1748.55 840.26,1747.53 839.98,1744.7 834.65,1740.41 831.05,1742.66 834.59,1745.15 834.83,1741.72 838.31,1744.61 835.3,1747.2 839.47,1752.75 846.5,1751.65 850.12,1753.96 853.7,1753.41 851.91,1755.72 854.03,1758.84 848.75,1757.01 849.24,1758.14 852.01,1758.88 853.72,1760.51 851.68,1760.24 842.92,1754.69 823.59,1747.55 823.83,1743.27 821.01,1741.32 822.79,1739.64 817.72,1739.77 822.79,1735.26 823.53,1738.4 825.71,1737.33 825.14,1744.28 826.17,1739.87 831.42,1738.69 841.13,1730.07 843.77,1730.19 843.09,1726.46 846.52,1732.09 849.1,1727.75 852.92,1727.56 857.86,1729.8 852.02,1736.74 844.75,1736.37 848.58,1739.84 855.74,1738.57 866.93,1741.37 879.94,1739.59 880.12,1742.78 884.29,1745.06 887.11,1743.45 894.18,1747.21 910.28,1749.92 916.66,1753.95 965.91,1767.36 959.09,1767.96 960.73,1773.77 972.31,1773.74 971.36,1771.67 980.77,1773.08 984.2,1774.52 986.27,1778.95 989.28,1775.54 995.89,1774.3 998.73,1780.51 996.71,1779.7 996.19,1781.77 1003.17,1778.98 1016.83,1784.99 1017.51,1787.24 1021.63,1787.1 1021.58,1788.72 1035.37,1793.51 1032.9,1796.95 1034.36,1801.48 1037.8,1801.92 1039.43,1804.6 1036.41,1808.68 1034.02,1805.59 1031.01,1807.52 1030.63,1802.73 1032.93,1801.84 1030.54,1798.93 1028.2,1803.3 1024.78,1803.41 1025.45,1801.49 1022.71,1799.57 1018.48,1799.88 1015.55,1805.14 1016.22,1802.72 1013.72,1801.17 1010.9,1804.86 1011.68,1798.27 996.05,1792.21 991.04,1792.63 984.24,1787.45 974.32,1787.9 972.22,1785.54 964.81,1784.26 957.47,1784.26 955.78,1786.23 954.15,1783.44 942.01,1783.5 926.35,1775.44 915.26,1776.36 909.78,1772.52 910.01,1770.45" fill="none" stroke="#1e1e1e" stroke-width="1.78" stroke-linecap="round" stroke-linejoin="round"/>
<polyline points="1286.03,1898.03 1283.63,1896.32 1279.04,1886.01 1270.47,1880.14 1275.19,1881.01 1272.2,1876.2 1276,1880.59 1278.21,1880.36 1280.14,1874.68 1278.53,1872.09 1281.82,1867.63 1278.38,1859.72 1272.68,1858.09 1269.88,1852.54 1265.81,1851.39 1265.28,1853.86 1256.93,1855.88 1256.27,1857.8 1240.17,1847.18 1231,1845.26 1227.75,1840.56 1221.8,1839.17 1219.01,1841.05 1218.48,1839.37 1215.19,1840.1 1212.16,1835.89 1209.17,1838.08 1194.81,1833.8 1200.09,1829.68 1193.82,1827.44 1194.85,1824.07 1203.7,1824.32 1208.69,1831.36 1204.37,1822 1217.55,1818.21 1231.48,1819.36 1232.99,1818.45 1233.96,1815.8 1230.73,1818.41 1215.4,1816.62 1201.62,1820.5 1192.6,1814.06 1188.15,1805.5 1187.06,1797.84 1184.24,1801.53 1187.28,1809.79 1177.89,1807.21 1173.83,1802.99 1167.67,1802.48 1147.71,1790.4 1146.05,1784.83 1141.86,1784.33 1141.07,1779.46 1138.42,1780.85 1129.17,1774.51 1127.81,1771.49 1116.27,1767.87 1101.95,1755.78 1099.99,1748.91 1105.18,1748.57 1105.35,1744.79 1108.02,1742.61 1107.23,1738.83 1098.12,1744.32 1099.42,1746.77 1096.12,1746.48 1093.42,1744.87 1092.46,1740.79 1086.24,1738.24 1085.52,1734.7 1088.66,1733.34 1085.59,1732.62 1084.72,1727.39 1076.95,1730.26 1074.07,1728.84 1072.6,1730.7 1066.62,1728.2 1066.13,1725.43 1063.67,1726.9 1060.64,1725.32 1059.4,1725.43 1061.34,1730.57 1059.42,1730.03 1053.22,1739.16 1038.23,1723.1 1018.85,1713.62 1010.19,1706.21 1012.59,1711.49 1020.51,1715.01 1021.29,1718.63 1036.61,1729.2 1042.77,1742.51 1047.79,1747.47 1042.87,1751.11 1043.21,1757.26 1036.14,1749.94 1036.42,1747.96 1039.44,1748.48 1039.87,1745.7 1036.76,1739.98 1037.72,1736.46 1033.38,1732.37 1030.03,1732.74 1029.64,1735.97 1025.42,1735.77 1021.54,1733.55 1020.05,1729.67 1016.56,1732.7 1014.25,1731.83 1014.43,1728.47 1010.48,1730.11 1009.08,1726.22 1005.98,1727.7 1000.72,1724.81 999.96,1718.51 996.19,1722.2 983.58,1719.7 957.21,1707.33 935.45,1701.96 930.99,1698.34 930.54,1699.8 915.16,1696.02 908.54,1690.78 883.46,1683.28 883.06,1680.15 880.29,1681.33 875.44,1678.13 878.67,1677.92 878.95,1672.13 885.22,1672.1 883.97,1668.7 887.55,1666.29 874.17,1659.36 869.68,1653.41 865.71,1654.43 860.79,1648.84 859.31,1652.48 841.01,1651.67 834.26,1647.71 826.99,1638.95 785.32,1620.69 768.2,1604.54 759.91,1604.05 746.39,1610.29 745.72,1608.69 726.53,1608.87 715.63,1604.5 710.25,1605.77 706.63,1601.62 692.67,1602.2 677.42,1588.92 673.5,1589.41 662.32,1586.48 660.71,1583.21 667.17,1587.24 670.23,1579.76 668.5,1578.09 670.91,1574.88 675.91,1574.09 673.07,1569.29 669.21,1569.29 669.38,1573.39 664.5,1570.3 664.66,1566.04 667.46,1565.09 664.65,1563.18 666.19,1562.06 659,1559.2 660.96,1557.46 673.19,1560.26 676.73,1563.16 675.21,1564.92 682.14,1566.4 685.99,1571.39 694.34,1574.51 692.2,1576.5 696.86,1577.62 744.49,1574.03 746.46,1576.43 760.22,1579.79 776.45,1580.77 791.51,1585.65 796.96,1584.69 801.44,1589.08 803.29,1587.68 810.84,1590 814.42,1593.26 822.63,1595.75 822.86,1598.07 825.29,1596.98 840.52,1604.33 854.66,1613.05 855.11,1615.1 880.46,1624.18 886.07,1633.27 885.22,1641.92 895.04,1646.98 895.14,1651 899.96,1651.98 898.55,1648.21 900.24,1647.39 906.16,1654.82 908.37,1652.98 916.35,1654.44 917.33,1652.75 920.53,1657.35 926.56,1658.8 927.45,1656.78 922.97,1647.98 919.16,1645 920.34,1643.83 922.13,1646.25 923.88,1644.32 933.03,1651.89 941.14,1653.69 960.44,1664.97 965.88,1664.22 975.49,1674.34 981.31,1676.49 985.94,1681.41 995.77,1683.52 986.5,1674.68 1001.5,1681.93 1003.42,1686.22 1002.06,1687.43 1013.78,1693.84 1014.89,1699.08 1016.61,1697.64 1021.61,1703.97 1023.02,1704.31 1021.78,1702.21 1028.2,1707.03 1034.82,1706.49 1009.63,1688.89 1016,1690.95 1012.91,1684.32 1016.46,1679.41 1021.32,1677.62 1016.26,1672.56 1012.22,1675.44 1011.64,1681.99 1007.47,1683.13 986.78,1669.74 978.68,1660.15 958.51,1651.52 936.99,1637.82 945.43,1641.25 944.62,1638.65 962.48,1649.37 974.39,1652.12 973.21,1648.55 969.4,1647.97 965.14,1641.34 953.31,1636.92 949.83,1631.72 944.45,1632.67 941.96,1631 939.78,1633.44 933.41,1629.83 933.04,1634.06 917.23,1623.31 912.56,1616.78 915.19,1616.36 914.37,1614.81 907.23,1612.89 905.14,1609.06 907.02,1607.31 897.46,1600.4 897.5,1594.5 900.14,1594.78 900.16,1590.37 901.98,1590.96 897.14,1588.79 895.98,1590.97 892.02,1576.91 886.86,1576.67 883.23,1578.89 883.67,1576.91 880.76,1574.64 883.81,1576.95 886.57,1573.64 880.5,1572.83 879.02,1570.43 876.06,1572.64 871.31,1570.6 871.71,1562.31 875.67,1559.9 872.46,1560.02 872.47,1558.47 878.49,1555.74 876.57,1554.13 875.7,1555.66 872.55,1548.23 869.9,1554.17 871.71,1557.17 869.72,1563.22 864.64,1564.12 858.78,1553.9 849.3,1547.74 841.83,1533.69 838.3,1533.64 834.05,1522.05 829.78,1519.67 828.14,1514.27 820.38,1508.93 810.85,1507.43 809.12,1504.17 804.62,1503.21 801.16,1495.93 791.09,1490.32 790.22,1487.2 786.36,1487.46 784.11,1484.13 780.97,1485.51 775.53,1482.81 774.13,1479.67 762.24,1474.27 753.16,1474.52 750.6,1471.22 745.4,1470.25 736.26,1458.07 731.41,1455.78 728.84,1457.47 716.01,1447.75 713,1434.51 698.3,1429.58 697.51,1424.05 690.83,1418.8 686.66,1404.75 668.63,1391.86 669.22,1387.36 667.26,1387.09 667.86,1388.97 663.93,1387.07 666.27,1386.55 666.12,1383.56 660.35,1379.91 656.26,1371.64 635.73,1349.81 633.79,1342.93 621.36,1334.82 617.01,1327.54 607.35,1320.68 603.19,1313.05 594.32,1315.45 563.78,1309.89 548.48,1309.47 541.98,1306.84 534.89,1308.03 515.49,1299.35 511.2,1288.29 506.94,1283.38 503.28,1287.09 501.45,1285.14 492.73,1286.11 485.82,1283.88 479.59,1286.84 479.78,1281.95 474.67,1280.74 471.59,1275.69 461.35,1270.37 459.68,1271.68 460.59,1270.27 457.76,1270.71 454.06,1267.5 450.97,1268.41 444.89,1261.37 442.37,1261.01 437,1254.21 428.31,1248.45 425.72,1239.16 421.8,1241.95 423.49,1242.95 422.19,1244.11 409,1240.76 396.9,1242.06 392.86,1240.67 391.46,1242.47 389.09,1243.03 391.6,1241.48 378.19,1241.2 381.48,1239.42 378.71,1236.39 373.96,1240.09 376.51,1240.01 374.97,1241.43 360.14,1238.24 359.86,1236.22 354.17,1236.22 361.61,1230.7 373.28,1230.61 374.5,1227.49 370.82,1226.21 372.45,1223.54 375.93,1225.07 376.86,1222.89 372.06,1223.08 374.03,1222.06 381.23,1221.16 380.45,1224.12 382.5,1225.61 383.81,1220.94 385.02,1222.87 397.05,1223.22 391.14,1219.67 399.26,1219.97 394.92,1216.34 380.3,1215.12 378.99,1211.35 374.7,1210.28 363.65,1211.31 363.75,1209.78 363.23,1210.83 360.39,1210.72 362.55,1209.81 356.62,1208.02 334.55,1205.93 315.39,1213.85 311.55,1221.52 307.64,1223.93 296.68,1222.8 281.97,1229.86 271.37,1227.79 264.11,1233.06 259.42,1231.92 251.58,1234.98 250.08,1233.77 252.38,1232.73 252.92,1231.64 249.82,1230.58 240.45,1231.16 238.39,1228.7 232.28,1229.19 225.79,1225.34 223.78,1228.37 219.46,1227.09 217.87,1230.17 214.97,1229.68 221.94,1232.57 225.07,1231.75 226,1234.2 230.49,1235.72 235.21,1235.51 238.27,1237.06 237.31,1238.25 246.79,1239.5 248.36,1244.97 245.05,1249.49 225.95,1252.49 214.88,1247.04 215.95,1250.14 223.97,1254.46 216.37,1259.26 205.56,1257.84 202.47,1253.7 198.74,1253.38 199.88,1250.3 197.13,1251.92 193.02,1248.66 189.11,1255.67 183.06,1251.79 178.16,1253.73 181.29,1245.36 172.9,1243.27 170.23,1244.4 169.94,1248.13 166.73,1248.62 169.12,1244.14 168.13,1236.83 165.81,1236.53 166.9,1239.83 161.93,1241.76 162.57,1244.54 159.62,1247.1 156.33,1243.85 160.4,1238.57 153.29,1238.04 153.1,1233.33 151.61,1238.75 149.69,1238.08 148.71,1240.97 144.43,1241.92 146.86,1237.63 146.34,1233.66 140.91,1238.56 139.92,1235.42 135.49,1233.83 135.85,1231.56 141.98,1231.42 135.39,1226.36 136.1,1224.94 147.11,1231.31 146.51,1228.71 155.09,1225.55 151.22,1221.12 150.51,1213.63 157.51,1211.71 149.48,1209.25 145.91,1210.34 147.81,1214.21 144.12,1216.87 147.78,1220.28 144.42,1223.77 143.21,1215.02 140.26,1215.45 141.69,1219.47 140.74,1222.3 140.02,1218.99 136.81,1218.72 140.51,1209.71 136.38,1209.69 129.54,1204.57 127.53,1206.42 123.81,1202.04 122.46,1198.29 124.35,1196.12 129.23,1195.27 131.46,1197.18 133.46,1197.14 129.62,1193.21 132.34,1188.83 129.33,1189.03 127.48,1193.06 119.39,1188.19 118.99,1185.34 126.73,1182.23 127.46,1177.58 120.29,1179.09 122.45,1176.6 119.51,1173.67 122.26,1175.15 124.03,1170.3 121.04,1167.3 120.73,1162.98 124.1,1162.4 123.14,1160.51 124.82,1159.69 119.81,1154.05 122.58,1151.82 117.55,1149.07 122,1145.06 126.63,1147.48 148.73,1147.6 140.34,1142.54 139.53,1144.15 135.02,1143.59 130.17,1138.06 119.89,1139.63 114.51,1137.6 112.95,1134.45 115.68,1136.2 121.46,1133.25 124.67,1135.19 127.37,1133.9 125.08,1130.38 136.94,1140.68 135.2,1137.05 137.04,1131.83 133.64,1129.29 136,1127.24 131.76,1127.07 131.61,1122.78 126.35,1118.19 135.84,1119.33 135.71,1115.41 141.04,1112.4 140.98,1109.09 133.48,1103.87 132.04,1104.83 135.38,1113.05 134.11,1117.33 131.41,1118.52 126.85,1115.68 125.12,1118.52 109.35,1098.96 106.81,1103.03 102.49,1102 100.44,1099.34 101.79,1098.1 99.59,1098.5 90.58,1087.54 92.89,1084.95 92.38,1081.7 105.98,1079.56 108.04,1086.11 112.51,1089.6 115.59,1087.77 109.96,1082.5 115.73,1084.91 107.3,1074.37 107.48,1070.96 89.1,1055.05 87.23,1054.98 87.78,1057.19 97.75,1066.65 102.91,1078.32 93.23,1079.49 91.1,1076.08 90.77,1081.09 86.22,1079.26 87.97,1083.43 66.85,1070.34 64.11,1066.39 62.71,1067.26 54.68,1057.32 52.44,1058.74 52.49,1056.81 49.07,1061.7 47.89,1059.93 37.19,1062.17 37,1059.21 34.17,1059.63 32.12,1055.89 28.07,1055.81" fill="none" stroke="#1e1e1e" stroke-width="1.78" stroke-linecap="round" stroke-linejoin="round"/>
<polyline points="28.11,1053.84 29.21,1054 28.15,1052.25" fill="none" stroke="#1e1e1e" stroke-width="1.78" stroke-linecap="round" stroke-linejoin="round"/>
</svg>
