<?xml version="1.0" encoding="UTF-8" standalone="no"?>
<svg xmlns="http://www.w3.org/2000/svg" width="1946" height="2000" viewBox="0 0 1946 2000">
<rect width="1946" height="2000" fill="#ffffff"/>
<path d="M996.59,765.68L988.37,773.16L978.73,776.27L972.47,772.52L972.41,767.64L975.48,764.34L983.7,760.85L987.9,762.12L995.71,755.21L998.55,756.23L996.59,765.68Z" fill-rule="evenodd" fill="#4682b4" fill-opacity="0.471"/>
<polyline points="996.59,765.68 988.37,773.16 978.73,776.27 972.47,772.52 972.41,767.64 975.48,764.34 983.7,760.85 987.9,762.12 995.71,755.21 998.55,756.23 996.59,765.68" fill="none" stroke="#1e1e1e" stroke-width="1.32" stroke-linecap="round" stroke-linejoin="round"/>
<path d="M1497,12.72L1497,13.23L1495.67,12.69L1497,12.72Z" fill-rule="evenodd" fill="#4682b4" fill-opacity="0.471"/>
<polyline points="1497,12.72 1497,13.23 1495.67,12.69 1497,12.72" fill="none" stroke="#1e1e1e" stroke-width="1.32" stroke-linecap="round" stroke-linejoin="round"/>
<path d="M1490.36,12.61L1481.82,18.96L1481.6,20.8L1484.18,26.13L1481.13,30.98L1468.8,41.09L1468.25,45.21L1466.03,43.91L1464.2,44.64L1462.59,46.84L1461.21,49.81L1464.71,50.82L1466.71,54.03L1462.5,52.5L1459.67,55.39L1456.72,54.45L1453.78,56.5L1452.79,53.82L1453.42,48.8L1459.93,42.6L1461.4,37.6L1465.26,38.99L1466.06,38.11L1465.44,34.86L1469.4,33.39L1470.45,32.08L1469.87,30.47L1474.71,27.12L1476.45,24.73L1477.05,21.62L1469.58,25.89L1467.16,25.85L1465.62,24.04L1466.14,21.76L1468.67,18.55L1467.28,18.53L1467.3,17.13L1471.57,15.74L1467.37,12.74L1490.36,12.61Z" fill-rule="evenodd" fill="#4682b4" fill-opacity="0.471"/>
<polyline points="1490.36,12.61 1481.82,18.96 1481.6,20.8 1484.18,26.13 1481.13,30.98 1468.8,41.09 1468.25,45.21 1466.03,43.91 1464.2,44.64 1462.59,46.84 1461.21,49.81 1464.71,50.82 1466.71,54.03 1462.5,52.5 1459.67,55.39 1456.72,54.45 1453.78,56.5 1452.79,53.82 1453.42,48.8 1459.93,42.6 1461.4,37.6 1465.26,38.99 1466.06,38.11 1465.44,34.86 1469.4,33.39 1470.45,32.08 1469.87,30.47 1474.71,27.12 1476.45,24.73 1477.05,21.62 1469.58,25.89 1467.16,25.85 1465.62,24.04 1466.14,21.76 1468.67,18.55 1467.28,18.53 1467.3,17.13 1471.57,15.74 1467.37,12.74 1490.36,12.61" fill="none" stroke="#1e1e1e" stroke-width="1.32" stroke-linecap="round" stroke-linejoin="round"/>
<path d="M1660.62,1985.79L1659.25,1984.47L1658.75,1985.74L1646.04,1985.45L1645.12,1984.2L1640.65,1985.32L1630.03,1985.08L1632.26,1980.53L1638.96,1972.86L1640,1964.99L1644.24,1968.08L1646.93,1972.02L1650.12,1981.45L1656.53,1979.31L1664.04,1978.92L1671.58,1986.05L1660.62,1985.79Z" fill-rule="evenodd" fill="#4682b4" fill-opacity="0.471"/>
<polyline points="1660.62,1985.79 1659.25,1984.47 1658.75,1985.74 1646.04,1985.45 1645.12,1984.2 1640.65,1985.32 1630.03,1985.08 1632.26,1980.53 1638.96,1972.86 1640,1964.99 1644.24,1968.08 1646.93,1972.02 1650.12,1981.45 1656.53,1979.31 1664.04,1978.92 1671.58,1986.05 1660.62,1985.79" fill="none" stroke="#1e1e1e" stroke-width="1.32" stroke-linecap="round" stroke-linejoin="round"/>
<text x="1417.45" y="37.86" font-family="sans-serif" font-size="14" stroke="#ffffff" stroke-opacity="0.784" stroke-width="2.33" stroke-linejoin="round" paint-order="stroke" fill="#141414">Lake Kariba</text>
<text x="1606.07" y="1986.75" font-family="sans-serif" font-size="14" stroke="#ffffff" stroke-opacity="0.784" stroke-width="2.33" stroke-linejoin="round" paint-order="stroke" fill="#141414">Vaal Dam</text>
<text x="944.26" y="773.72" font-family="sans-serif" font-size="14" stroke="#ffffff" stroke-opacity="0.784" stroke-width="2.33" stroke-linejoin="round" paint-order="stroke" fill="#141414">Lake Xau</text>
</svg>
