<?xml version="1.0" encoding="UTF-8" standalone="no"?>
<svg xmlns="http://www.w3.org/2000/svg" width="2000" height="1286" viewBox="0 0 2000 1286">
<rect width="2000" height="1286" fill="#ffffff"/>
<path d="M194.9,1221.44L193.76,1222.09L194.1,1221.26L194.9,1221.44Z" fill-rule="evenodd" fill="#4682b4" fill-opacity="0.471"/>
<polyline points="194.9,1221.44 193.76,1222.09 194.1,1221.26 194.9,1221.44" fill="none" stroke="#1e1e1e" stroke-width="1.52" stroke-linecap="round" stroke-linejoin="round"/>
<path d="M195.86,1221.65L197.26,1221.36L200.54,1217.25L206.24,1216.58L205.3,1205.62L206.07,1201.02L207.05,1199.79L205.36,1193.01L203.51,1191.69L202.63,1189.56L206.91,1183.38L208.16,1183.84L211.82,1177.22L211.26,1175.11L207.01,1169.51L208.38,1165.77L206.52,1164.87L206.92,1161.94L206.41,1158.14L205.49,1157.28L206.82,1154.79L209.06,1153.6L209.85,1148.16L207.45,1144.3L206.3,1140.48L207.03,1137.14L209.87,1136.81L209.7,1132.18L211.07,1128.43L209.23,1126.7L209.36,1122.5L207.53,1120.34L207.57,1119.08L205.07,1118.58L204.49,1116.89L204.29,1113.1L205.29,1111.44L204.71,1109.75L206.11,1104.74L205.59,1101.36L204.08,1099.22L205.46,1095.05L207.37,1094.27L207.72,1093.02L215.57,1093.25L215.63,1091.15L214.74,1089.44L216.33,1088.65L217.65,1086.59L218.7,1082.84L223.22,1078.76L228.18,1070.08L229.74,1070.55L230.41,1068.89L232.02,1067.67L231.18,1064.28L231.86,1062.2L228.72,1051.6L226.88,1050.29L226.96,1047.35L225.45,1045.62L224.6,1042.23L223.03,1042.61L222.11,1041.74L220.49,1043.37L218.36,1041.21L217.09,1042.01L213.99,1040.66L212.71,1041.46L211.18,1040.15L210.6,1038.87L211.25,1038.05L211.07,1033.42L208.63,1031.25L204.21,1021.87L204.99,1016.85L202.97,1010.9L203.35,1008.81L201.54,1006.65L200.37,1003.68L200.73,1002.42L197.15,996.43L195.61,995.54L194.32,996.77L193.09,996.31L191.99,991.23L192.67,989.57L191.75,988.7L191.5,986.59L192.19,984.51L190.41,981.51L190.77,979.84L189.59,977.7L187.73,977.23L186.53,975.51L184.8,970.83L186.1,969.19L186.14,967.93L185.21,967.48L185.03,963.27L186.56,954.07L185.35,952.77L185.9,945.22L182.52,943.43L183.25,940.09L184.51,939.71L184.01,935.49L180.65,933.29L177.81,934.04L175.02,933.53L173.42,934.74L171.25,934.25L166.69,930.33L164.61,926.9L164.66,925.22L162.51,924.31L162.14,925.98L160.54,927.19L156.47,927.48L151.56,924.8L149.38,924.73L147.56,922.99L144.11,923.72L141.68,921.54L140.85,918.15L139.31,917.68L137.56,913.84L132.22,914.92L131.57,915.74L126.27,915.56L122.63,912.5L116.8,909.36L115.05,905.94L111.99,904.16L110.81,902.01L106.49,900.61L105.22,901.4L101.52,900.02L98.58,894.87L95.77,894.78L91.22,891.26L88.57,886.54L85.86,883.92L83.99,883.86L79.7,881.61L78.56,878.62L74.91,875.97L74.34,874.69L76.23,873.92L73.02,867.92L73.39,866.25L71.99,861.57L72.99,859.93L72.13,857.8L67.54,855.53L62.88,854.95L56.57,840L56.96,837.92L53.94,835.28L54,833.61L52.23,831.02L49.71,831.77L48.9,828.38L46.46,827.03L43.52,822.29L42.07,819.3L42.76,817.64L38.81,814.97L38.58,812.86L35.61,808.97L34.03,809.75L33.44,808.89L32.49,809.28L30.05,807.93L32.07,803.8L35.84,802.67L38.31,803.18L38.96,802.37L42.7,802.08L44.04,799.61L45.59,799.67L47.4,800.99L50.55,799.85L52.59,803.7L59.25,800.16L62.54,794.81L61.54,788.05L64.8,783.96L64.87,781.86L68.65,780.32L67.93,774.4L72.94,773.32L77.28,773.47L79.73,774.4L81.01,773.19L82.17,766.92L83.15,765.27L86,763.69L86.15,759.49L86.86,756.99L88.47,755.37L88.23,753.26L89.2,752.03L88.35,749.9L89.42,745.73L90.68,745.36L92.3,743.31L92.03,742.04L92.99,741.23L94.37,737.08L92.97,732.82L92.06,732.37L90.98,727.71L85.58,722.48L82.93,718.6L81.06,718.95L78.67,716.35L77.14,715.87L73.36,709.01L70.01,707.21L68.28,703.79L62.17,701.47L59.06,701.78L58.22,699.22L59.24,696.74L58.67,695.46L59.41,692.12L62,688.85L62.85,682.57L65.47,678.46L65.3,674.67L67.49,673.91L68.53,670.58L64.29,668.33L66.48,667.57L66.85,665.9L65.97,664.61L69.82,660.54L71.53,655.98L69.46,653.38L66.71,652.44L66.17,650.32L67.12,649.51L68.98,649.58L70.58,647.96L70.35,645.85L72.04,641.7L73.95,640.09L75.29,637.19L78.71,636.47L78.81,633.53L80.18,629.8L78.45,626.37L76.01,625.45L73.4,620.73L72.89,617.77L68.11,613.39L67.69,607.91L66.82,606.2L65.01,605.29L65.1,602.78L62.69,601.01L62.32,594.27L62.98,593.03L65.77,592.71L70.49,589.94L72,590.83L73.55,590.47L77.68,587.25L78.35,585.59L79.28,585.62L82.13,583.2L83.67,583.26L86.55,580.42L87.24,578.34L86.42,575.37L88.37,572.49L90.21,572.56L92.76,570.12L99.06,574.97L100.31,574.59L105.1,578.54L104,574.72L107.98,566.45L109.49,567.34L111.7,565.73L113.83,566.65L118.81,565.13L125.01,572.91L129.08,570.95L131.53,571.45L133.31,573.61L134.83,574.08L135.68,576.21L135.33,577.46L136.52,578.76L137.8,577.54L137.54,575.85L142.26,573.07L142.33,570.97L144.17,571.03L145.03,573.16L147.91,569.89L150.03,570.8L152.86,569.21L155.26,570.97L157.43,570.62L160.32,566.93L160.07,565.24L161.63,564.45L162.95,561.97L162.39,560.27L164.94,557.41L166.16,557.87L166.8,557.05L168.82,551.65L166.41,549.89L167.05,549.07L165.67,544.4L170.01,543.28L169.45,541.58L170.38,541.19L170.18,537.82L171.13,537.01L170.71,531.11L188.79,523.28L190.99,521.66L195.5,515.08L206.44,509.11L206.9,504.08L210.07,500.82L213.44,490.83L217.52,488.01L224.02,486.11L225.31,484.04L226.23,484.07L233.46,478.4L234.53,473.39L236.44,470.92L237.79,466.76L237.32,462.12L238.33,458.79L235.38,454.92L241.44,447.11L241.52,444.17L240.59,444.56L238.78,443.67L234.6,439.76L233.67,440.16L232.78,439.29L225.78,437.82L221.75,439.38L219.99,436.8L216.68,434.6L215.52,432.47L211.88,431.51L208.28,428.88L208.33,427.2L205.95,425.03L204.78,423.31L204.53,421.2L200.98,417.31L200.54,411.83L199.04,410.94L198.78,409.25L194.25,407.43L194.29,406.17L193.09,405.29L192.53,403.59L193.59,399L191.52,396.84L191.85,396.01L189.52,392.15L188.82,385.4L184.34,381.9L181.3,381.38L178.62,379.19L176.34,374.08L171.56,370.56L171.12,365.08L167.52,363.28L164.27,359.81L160.31,359.27L160.34,358.43L157.66,356.24L152.45,356.91L144.51,356.64L140.67,352.73L140.8,348.95L139.08,345.53L139.17,343.01L132.56,339.85L129.44,341.84L127.61,341.78L120.1,338.16L118.03,335.99L116.99,330.91L113.79,326.18L106.75,326.77L101.09,322.79L100.91,319.42L98.27,316.39L98.43,311.77L96.08,309.16L95.58,306.2L93.53,303.61L93.06,299.81L91.9,298.08L92.68,293.07L90.05,290.03L88.95,286.63L88.54,281.15L89.48,280.34L91.5,274.95L88.56,271.9L90.82,268.19L89.27,260.57L87.56,257.15L90.42,253.88L90.79,251.8L88.76,249.2L88.25,246.24L86.52,243.65L84.68,244.01L81.37,243.05L77.54,239.55L77.22,239.96L75.52,236.53L72.51,235.58L69.55,233.37L70.21,232.14L66.14,226.94L65.55,218.09L64.75,215.12L62.41,212.51L64.04,209.63L63.93,204.16L65.27,200.84L63.16,200.34L57.95,193.42L57.19,189.19L56.03,187.89L53.31,179.38L52.43,178.5L53.19,174.33L54.16,172.68L55.39,172.31L59.33,164.04L63.19,149.89L65.19,136.5L63.62,129.72L70.17,124.49L69.39,121.1L71.01,118.21L71.87,111.09L71.69,107.72L70.51,106.84L71.23,103.92L73.39,102.74L71.05,100.55L72,99.32L71.15,97.61L80.91,95.44L81.32,92.51L89.14,93.63L94.35,91.72L101.27,92.8L108.26,91.79L108.62,90.12L110.75,89.77L112.07,86.45L110.62,84.72L111.89,83.08L108.65,80.45L109,79.2L115.68,78.17L117.55,76.55L123.83,78.45L124.25,75.1L125.77,74.73L136.04,75.08L135.5,72.96L137.39,70.92L134.45,68.3L136.02,66.67L136.23,60.37L135.04,59.91L133.34,56.49L136.37,38.51L137.59,38.13L139.04,39.86L139.5,35.25L138.01,34.78L137.75,33.51L136.23,33.88L136.05,30.09L137.92,28.47L138.48,29.75L139.7,29.37L139.42,28.52L141.83,28.6L141.9,26.5L140.15,24.76L141.39,23.96L142.25,25.25L143.77,24.88L144.41,23.64L142.69,21.06L143.91,20.68L145.49,18.63L145.89,15.7L145.01,14.83L145.64,14.01L147.68,16.18L150.82,12.5L152.01,12.96L154.17,11.35L157.08,14.39L160.63,16.61L172.04,17.83L174.71,19.18L180.3,23.56L188.7,34.35L193.41,37.86L210.63,46.81L216.51,52.04L222.04,58.51L227.36,62.46L237.58,64.03L248.74,64.36L260.04,70.16L263.29,72.77L264.71,75.76L265.21,79.55L263.59,83.29L253.44,99.81L250.68,100.99L219.98,106.38L216.29,108.37L212.84,112.05L208.32,131.25L203.79,140.36L200.06,153.27L199.94,157.05L201.52,164.67L205.88,170.69L210.32,174.19L217.82,176.95L227.16,178.91L242.44,185.25L245.78,185.35L255.42,187.74L261.09,190.84L264.41,191.36L289.7,187.87L301.08,181.88L315.19,175.95L322.2,174.88L325.59,172.87L328.94,172.11L361.08,172.1L371.71,171.1L378.97,171.7L393.71,176.67L402.48,177.3L413.17,187.22L426.7,192.57L432.97,196.91L436.6,197.41L441.78,196.68L451.55,193.53L460.99,192.05L474.3,193.59L476.4,194.89L475.78,195.72L479.01,200.83L484.11,203.45L492.56,206.14L506.38,213.56L511.2,215.33L527.83,219.01L539.97,219.23L568.32,230.65L571.02,232.37L571.6,234.06L575.79,237.92L587,239.78L599.66,246.29L602.69,246.75L612.44,245.22L616.38,245.7L622.5,243.27L630.41,242.54L638.95,240.14L644.12,239.8L650.17,241.56L655.65,240.79L664.23,235.44L666.1,231.69L669.47,229.63L674.4,224.23L693.27,219.84L702.14,214.06L718.81,216.35L739.08,223.29L749.93,231.38L760.16,241.56L765.89,245.4L770.74,247.54L776.21,247.59L783.83,243.88L793,237.65L797.26,236.42L800,236.02L810,238.62L815.47,238.66L823.38,237.03L830.09,232.04L834.36,229.96L842.87,228.76L855.61,231.35L860.13,237.26L869.82,243.62L883.77,248.3L886.81,248.74L902.93,243.34L908.1,242.94L911.74,243.37L918.42,246.34L929.96,249.31L941.18,260.27L949.37,264.49L959.09,272.49L969.12,275.86L973.69,276.29L980.99,275.03L991.64,271.26L998.33,267.06L1010.19,264.11L1021.13,266.21L1025.39,264.94L1039.06,255.68L1054.24,248.09L1063.04,245.55L1074.29,245.94L1088.85,239.17L1093.39,234.53L1098.81,224.01L1109.42,219.34L1112.45,217.23L1120,209.21L1124.2,200.36L1130.83,192.35L1134.73,184.34L1141.36,176.32L1155.83,165.31L1168.21,158.51L1174.83,153.42L1180.51,142.46L1181.39,138.25L1188.58,128.95L1198.51,122.15L1206.36,120.83L1213.93,121.61L1218.15,120.73L1238.02,111.31L1249.13,103.64L1271.42,97.1L1277.47,97.46L1281.41,99.1L1284.74,99.48L1290.16,98.16L1295,98.1L1302.23,96.34L1310.34,92.88L1323.29,89.77L1337.82,92.11L1347.74,88.61L1354.37,87.68L1366.97,81.62L1372.39,80.7L1376.03,81.49L1385.68,80.92L1389.88,79.18L1414.99,63.65L1424.88,59.28L1432.63,54.11L1455.29,55.81L1466.37,51.41L1475.68,49.14L1482.03,50.28L1486.92,53.55L1491.15,53.89L1494.75,52.56L1501.41,53.69L1503.54,54.91L1506.26,54.85L1508.69,56.06L1512.09,59.78L1516.95,61.36L1526.93,62.42L1530.53,61.5L1536.78,57.59L1539.19,57.12L1541.65,59.17L1541.41,62.12L1543.56,64.17L1542.07,65.04L1541.2,66.74L1541.88,70.09L1545.92,75.47L1545.99,78.83L1565.76,85.13L1570.48,93.43L1579.19,104.58L1600.23,99.47L1643.55,103.04L1651.96,88.95L1653.14,88.08L1662.09,95L1673.75,124.54L1680.45,126.47L1687.06,124.61L1713.88,120.51L1735.75,102.23L1744.19,111.65L1747.76,130.47L1755.2,146.65L1761.07,170.86L1767.81,173.18L1798.63,189.05L1835.55,204.27L1869.91,205.65L1899.9,212.18L1939.88,208.64L1938.26,214.17L1940.07,222.09L1939.83,223.78L1938.38,225.94L1937.76,225.54L1936.59,226.84L1935.77,229.4L1937.85,244.46L1941.46,251.89L1939.45,254.91L1940.22,259.51L1939.05,260.81L1938.67,267.13L1940.08,272.13L1946.54,282.4L1949.73,286.07L1950.46,289.4L1951.74,291.04L1950.1,296.15L1950.47,297.81L1949.18,304.17L1946.3,308.9L1945.48,311.45L1945.83,312.7L1939.54,324.28L1935.34,334.53L1930.08,341.03L1925.04,345.41L1920.53,347.25L1912.14,360.59L1910.82,366.52L1908.22,361.99L1906.02,360.38L1898.96,359.37L1894.63,357.84L1886.77,351.38L1880.31,349.92L1876.88,347.94L1873.84,348.46L1870.13,346.9L1862.47,346.32L1860.05,346.82L1854.62,349.1L1852.17,348.77L1846.14,351.07L1844.07,353.24L1843.16,353.27L1842.2,352.04L1838.58,353.42L1836.5,355.17L1822.48,356.04L1820.88,353.99L1818.72,353.21L1815.06,353.33L1812.64,354.25L1802.55,363.39L1797.42,365.65L1795.65,367.81L1789.73,383.96L1790.13,386.89L1789.29,389.44L1787.81,391.17L1784.97,398.4L1783.15,408.97L1780,416.21L1778.92,420.86L1776.22,422.63L1775.16,428.12L1772.52,431.99L1767.67,433.81L1766.1,432.6L1764.6,433.48L1763.65,432.67L1760.92,433.59L1757.95,436.62L1753.36,436.75L1753.09,438.02L1752.46,437.62L1748.53,439.42L1746.82,443.67L1742.23,443.8L1741.94,444.65L1744.09,444.59L1743.81,445.44L1739.47,443.88L1736.95,441.43L1737.54,440.57L1733.17,437.75L1730.74,438.66L1727.05,437.93L1727.07,438.77L1724.64,439.68L1721.67,442.7L1720.15,443.16L1720.18,444.42L1715.58,444.13L1712.48,442.96L1711.28,443.83L1709.1,442.63L1709.07,441.37L1707.51,440.57L1706.65,442.7L1704.84,443.59L1704.19,442.34L1700.57,444.54L1699.1,446.68L1696.04,446.77L1692.6,444.34L1689.57,445.68L1677.58,443.9L1671.17,444.9L1670.29,446.61L1667.56,447.52L1664.76,445.91L1664.16,446.34L1666.33,447.55L1666.05,448.4L1662.95,447.22L1662.35,447.65L1667.03,450.89L1669.17,450.42L1670.32,447.45L1672.21,449.5L1677.36,447.26L1679.15,445.54L1682.83,445.44L1697.28,447.57L1698.23,448.39L1703.77,449.5L1708.96,448.52L1714.53,450.47L1719.98,448.21L1722.44,448.56L1723.62,446.85L1727,447.18L1729.71,445.42L1729.68,444.58L1731.8,443.68L1733.65,444.05L1736.5,447.33L1738.99,448.52L1743.61,449.23L1745.55,452.95L1749.21,452.01L1753.25,453.99L1754.76,453.11L1755.15,456.04L1753.52,463.23L1753.37,468.7L1752.51,470.83L1750.7,471.72L1747.8,488.2L1746.62,489.91L1745.4,500.87L1744.52,502.16L1742.69,502.63L1741.84,505.18L1739.74,506.92L1738.98,512.83L1739.69,526.68L1745.43,555.51L1743.07,558.94L1742.53,561.48L1744.71,573.19L1743.62,578.26L1745.41,587.04L1741.41,587.15L1739.1,592.68L1741.68,607.32L1745.78,621.49L1745.84,623.59L1743.75,625.76L1742.3,629.16L1742.72,632.93L1746.42,643.75L1746.33,651.32L1744.51,652.63L1740.16,651.5L1728.13,652.26L1721.9,650.33L1717.94,652.12L1716.67,650.89L1713.29,651.82L1709.24,650.25L1708.01,650.71L1704.9,649.95L1703.96,649.14L1700.89,650.06L1699.33,649.26L1696.88,650.17L1695.93,649.35L1694.08,649.4L1691.06,652L1689.62,655.82L1688.56,662.58L1688.95,665.51L1689.62,667.59L1693.08,670.02L1694.33,670.41L1696.77,669.08L1697.72,669.9L1696.51,671.19L1695.58,670.8L1694.68,672.08L1694.02,670.42L1691.86,670.48L1690.35,671.78L1688.91,676.02L1685.79,674.84L1685.14,673.59L1682.98,673.65L1678.5,679.65L1675.41,679.73L1674.15,678.92L1671.11,680.68L1670.76,679.43L1669.53,679.46L1666.81,682.05L1665.36,685.87L1664.31,693.05L1665.57,706.04L1669.14,712.68L1671.05,714.73L1668.29,715.64L1664.79,711.95L1660.43,710.8L1657.35,711.71L1654.93,713.88L1653.64,711.81L1650.23,711.47L1647.18,713.23L1643.25,717.11L1642.01,717.14L1635.74,713.93L1630.2,715.32L1628.07,716.64L1624.17,722.19L1621.23,728.57L1619.44,744.58L1618.8,743.75L1615.71,744.25L1616.04,745.08L1618.54,745.86L1616.69,746.33L1615.82,748.87L1614.57,748.48L1615.44,745.94L1615.1,744.68L1613.86,744.29L1613,747.25L1611.74,746.44L1612.63,744.74L1611.68,743.92L1609.58,746.91L1610.2,746.9L1609.92,748.17L1608.99,748.19L1608.8,753.24L1609.45,754.9L1608.23,755.77L1612.98,759.86L1614.54,760.25L1615.2,761.91L1617.95,760.17L1616.67,758.51L1617.58,757.65L1617.25,756.82L1618.79,756.36L1622.95,761.73L1623.9,762.55L1624.51,762.11L1628.63,765.79L1628.38,768.32L1629.01,768.73L1632.41,768.23L1634.21,765.66L1635.05,761.86L1637.2,760.96L1637.78,759.69L1636.19,758.05L1637.71,756.75L1643.69,760.39L1647.75,761.55L1650.82,760.21L1649.83,757.71L1651.28,753.89L1651.9,753.88L1652.9,756.37L1657.66,760.88L1659.54,761.67L1663.87,761.14L1664.98,756.07L1666.88,757.7L1667.56,759.79L1671.86,758.42L1671.96,762.2L1671.07,763.9L1673.28,765.1L1672.67,765.54L1673.62,766.36L1670.86,767.69L1670.59,769.38L1670.95,771.05L1674.13,774.33L1680.38,775.85L1681.27,774.14L1683.13,774.1L1684.62,771.96L1685.79,768.98L1685.15,768.58L1684.57,769.86L1683.93,769.03L1685.14,768.16L1687.31,768.1L1687.65,768.93L1686.13,770.23L1686.78,771.48L1688.63,771.01L1687.76,773.13L1689.05,775.2L1691.88,776.39L1693.39,775.09L1694.35,775.9L1695.87,775.02L1696.52,775.84L1695.68,779.23L1691.02,779.35L1689.86,782.33L1690.89,786.08L1695.29,788.07L1693.15,789.38L1693.2,791.06L1691.65,791.52L1692.39,795.71L1697.59,804.4L1698.21,804.38L1697.93,805.65L1698.92,807.72L1700.83,809.35L1703.95,810.11L1705.49,809.65L1706.66,806.68L1708.53,807.04L1711.28,805.29L1711.95,806.95L1712.22,805.68L1715.02,805.61L1715.05,806.87L1713.84,808.16L1714.49,808.98L1713.27,809.86L1714.21,810.25L1711.77,812L1714.28,812.77L1713.42,815.32L1715.59,815.26L1718.15,817.71L1714.43,818.23L1712.31,820.39L1710.45,820.44L1711.75,822.51L1709.33,825.1L1706.86,825.58L1706.26,826.44L1706.37,830.64L1707.37,833.13L1708.03,834.38L1710.22,835.16L1707.76,836.07L1706.2,835.69L1705.38,839.91L1707.03,843.65L1710.5,845.24L1712.05,845.2L1711.71,843.95L1712.64,843.92L1713.92,845.15L1713.95,846.41L1716.17,848.03L1714.02,848.93L1714.41,851.86L1715.66,851.82L1716.66,854.32L1718.57,855.95L1722,856.27L1724.25,858.73L1725.17,858.29L1727.08,859.92L1727.13,861.6L1728.74,863.65L1730.61,863.6L1730.04,865.3L1731.88,864.41L1733.77,865.2L1732.87,866.48L1734.75,866.85L1734.79,868.11L1735.72,868.08L1734.83,869.79L1735.8,871.02L1737.67,870.97L1737.09,872.67L1738.36,873.47L1739.58,872.6L1740.23,873.42L1737.78,874.75L1737.82,876.43L1742.23,877.99L1741.95,879.26L1742.59,879.66L1743.83,879.62L1744.42,878.35L1745.07,879.17L1744.47,880.03L1746.07,881.66L1745.82,883.77L1752.44,886.52L1754.14,891.52L1756.01,891.47L1756.98,892.7L1757.36,894.79L1755.82,895.67L1757.4,896.47L1757.46,898.57L1761.31,902.24L1762.88,902.62L1765.03,901.29L1766.31,902.52L1767.54,902.06L1768.5,902.87L1767.28,903.75L1770.78,906.17L1771.17,908.68L1773.4,910.3L1773.15,912.41L1774.73,913.2L1774.77,914.46L1775.72,914.85L1775.43,915.7L1779.57,918.52L1781.42,917.63L1782.69,918.43L1783.03,919.26L1781.24,922.25L1782.19,922.65L1783.21,925.56L1784.77,925.51L1786.69,927.14L1786.47,930.09L1788.37,930.87L1790.33,933.75L1788.79,934.64L1791.03,936.26L1791.14,940.03L1792.14,942.11L1792.76,942.09L1792.8,943.35L1796.35,947.02L1797.1,951.21L1796.5,952.06L1795.55,951.67L1794.03,952.98L1791.83,952.63L1789.36,953.54L1784.03,952.86L1780.85,951.27L1778.92,949.23L1778.32,950.08L1778.68,951.76L1775.62,953.95L1774.36,953.56L1772.54,955.3L1772.79,953.19L1771.84,952.8L1769.09,954.98L1767.51,954.61L1765.26,952.15L1763.48,955.56L1762.79,953.48L1761.53,953.1L1760.08,956.92L1758.83,956.96L1755.3,953.7L1754.22,948.68L1750.13,947.54L1748.58,948L1747.31,947.2L1747.58,945.93L1744.77,946.01L1743.44,943.11L1742.21,943.56L1741.65,946.1L1742.66,948.59L1740.2,949.92L1739.54,948.68L1740.13,947.4L1741.36,946.95L1741.33,945.69L1740.07,945.3L1738,949.56L1735.82,949.62L1733.24,946.75L1732.01,947.63L1732.06,949.31L1730.81,949.34L1729.63,951.9L1729.77,956.94L1731.64,956.89L1730.19,960.71L1730.55,962.38L1732.14,963.6L1733.36,962.3L1734.94,963.1L1735.39,968.13L1731.63,967.82L1730.01,965.76L1728.45,965.8L1728.5,967.48L1729.81,969.55L1729.2,970.4L1726.67,969.21L1726.31,967.54L1725.36,967.15L1722.27,968.49L1721.59,966.41L1717.52,966.1L1717.18,965.27L1719.63,963.1L1719.28,961.85L1716.45,961.09L1715.58,963.63L1714.63,963.24L1713.3,960.33L1708.28,959.63L1706.43,960.52L1707.62,958.38L1704.11,955.53L1703.19,956.4L1703.24,958.08L1696.96,956.99L1695.42,957.87L1694.14,956.64L1691.02,956.72L1691.35,957.55L1693.55,957.92L1693.89,959.17L1692.98,960.03L1692,958.38L1689.22,959.71L1687.65,959.33L1686.5,963.14L1684.62,963.19L1684.38,965.72L1683.44,965.75L1683.38,963.65L1682.13,963.68L1681.24,965.38L1679.69,965.84L1679.05,965.44L1679.32,963.75L1677.76,963.79L1676.22,964.67L1675.04,967.22L1673.77,966.41L1673.73,965.15L1673.11,965.17L1672.53,966.87L1668.42,965.29L1667.83,966.57L1670.7,968.59L1670.4,969.44L1668.82,968.64L1669.17,969.89L1665.52,974.19L1664.26,973.8L1664.51,971.27L1663.87,970.45L1662.62,970.48L1658.71,976.88L1657.47,977.33L1657.14,976.5L1658.06,975.64L1653.66,974.91L1653.7,976.59L1651.62,980.84L1653.79,980.37L1654.77,982.02L1651.66,982.52L1649.81,983.83L1650.48,985.49L1653.29,985.42L1653.38,988.78L1651.17,988L1649.62,988.46L1647.71,987.24L1647.68,985.98L1646.43,986.01L1645.77,984.77L1643.56,983.98L1640.32,979.02L1639.28,974.84L1633.45,966.57L1632.5,966.18L1631.59,967.04L1631.63,968.72L1629.43,968.35L1627.26,969.24L1625.98,968.01L1620.33,966.88L1619.93,963.11L1618.97,962.29L1616.49,963.19L1614.92,962.81L1614.32,963.66L1613.68,963.26L1613.3,960.32L1611.43,960.37L1610.41,957.03L1609.47,956.63L1609.08,953.28L1606.58,953.33L1606.3,954.6L1605.05,954.63L1603.78,953.82L1602.75,949.64L1599.58,947.61L1597.08,947.67L1595.74,943.5L1596.01,941.81L1593.48,940.6L1592.43,935.16L1590.84,933.94L1591.12,932.67L1590.18,932.27L1590.76,930.58L1589.51,930.19L1589.8,929.34L1586.91,925.62L1583.14,924.44L1578.16,924.97L1578.09,922.03L1576.17,919.98L1574.93,920L1574.85,916.64L1572.06,917.12L1570.75,914.21L1566.36,913.46L1564.72,909.72L1561.31,910.63L1557.86,909.44L1558.13,907.76L1557.49,906.93L1554.72,908.67L1551.61,909.15L1547.51,906.72L1545.07,909.29L1541.96,909.77L1540.51,915.27L1535.86,916.62L1534.95,917.9L1535,920L1536.58,921.23L1537.91,925.41L1536.99,925.85L1532.93,925.93L1531.03,924.29L1530.66,921.77L1528.48,921.82L1526.65,923.95L1522.91,924.03L1521.93,921.95L1520.67,921.13L1520.07,922.4L1513.52,922.53L1509.05,917.16L1506.52,915.52L1501.85,915.61L1492.15,914.12L1488.46,916.71L1486.27,916.33L1483.2,918.9L1480.99,917.68L1479.8,921.07L1480.43,921.48L1480.17,924L1482.06,925.23L1481.5,928.6L1480.26,929.04L1476.02,936.26L1473.83,935.88L1472.61,937.17L1471.97,936.34L1467.91,936.41L1467.61,937.26L1468.57,938.5L1467.68,941.04L1468.98,943.95L1465.01,948.65L1463.19,952.04L1463.23,954.14L1452.25,951.39L1451.01,951.83L1449.5,954.8L1448.55,953.98L1446.69,954.85L1446.09,956.54L1443.32,958.69L1442.37,957.86L1438.31,958.35L1433.6,956.75L1429.29,960.6L1428.35,960.19L1426.49,961.07L1426.25,965.69L1421.88,966.18L1420.6,964.1L1419.05,964.97L1413.4,962.95L1412.75,961.7L1409.6,960.07L1409.25,957.56L1407.38,957.59L1404.95,962.25L1403.7,961.84L1400.02,966.52L1398.76,966.12L1397.27,970.77L1395.07,969.96L1389.45,970.04L1384.72,967.17L1381.61,968.48L1380.04,967.66L1378.17,968.11L1377.22,966.86L1375.35,967.73L1372.22,966.93L1370.37,968.64L1367.21,966.58L1363.45,965.37L1361.89,965.81L1359.68,963.74L1359.06,964.17L1356.54,962.52L1355.61,963.38L1356.25,964.21L1355.33,965.48L1355.05,968.43L1347.01,974.42L1337.46,985.47L1337.48,986.73L1340.35,990.89L1344.14,994.2L1344.47,995.46L1343.55,996.73L1342.61,996.75L1341.72,1000.12L1339.24,1002.25L1339.26,1003.51L1343.67,1006.4L1343.7,1008.08L1341.53,1009.79L1339.96,1009.39L1338.42,1011.09L1338.47,1015.71L1334.75,1018.28L1330.5,1028.84L1280.72,1029.41L1277.59,1030.29L1275.77,1035.35L1270.54,1044.65L1265.67,1059.4L1265.43,1066.13L1274.62,1075.28L1274.63,1076.54L1271.18,1076.58L1267.39,1074.51L1263.95,1074.97L1260.21,1077.53L1251.73,1076.77L1239.44,1071L1235.63,1065.15L1233.43,1064.75L1229.7,1068.14L1225.61,1067.34L1219.64,1065.29L1217.74,1063.62L1216.78,1061.11L1212.72,1062.4L1206.48,1067.08L1204.29,1067.09L1200.54,1068.8L1198.99,1071.33L1198.08,1075.96L1194.32,1076.41L1189.29,1074.77L1187.11,1076.88L1184.61,1077.74L1183.68,1079.43L1184.32,1081.95L1183.7,1082.79L1182.13,1081.96L1181.5,1082.39L1182.14,1084.48L1181.22,1086.59L1183.11,1088.68L1183.13,1091.62L1184.09,1093.71L1182.55,1097.93L1184.77,1101.27L1184.15,1102.12L1187.95,1106.29L1190.77,1105.85L1192.05,1108.79L1191.43,1110.47L1192.07,1112.57L1196.47,1112.54L1196.79,1113.37L1200.56,1113.77L1201.17,1110.82L1203.06,1111.22L1203.68,1110.38L1206.19,1110.36L1205.94,1117.93L1209.1,1120.84L1210.99,1121.25L1209.77,1125.46L1208.96,1143.12L1216.2,1143.48L1218.08,1142.62L1220.01,1148.49L1220.7,1154.79L1220.07,1155.63L1221.03,1157.31L1220.73,1158.57L1219.47,1159L1217,1164.49L1217.64,1165.32L1216.72,1169.11L1214.21,1169.55L1211.39,1171.25L1211.75,1176.71L1216.81,1180.04L1219.67,1182.95L1220.95,1185.47L1223.81,1187.96L1224.45,1190.06L1226.36,1191.72L1225.42,1192.57L1222.58,1191.76L1220.39,1193.45L1218.5,1193.47L1216.01,1197.69L1213.5,1199.39L1214.8,1204.43L1212.63,1208.65L1213.28,1211.16L1211.4,1212.86L1209.86,1217.07L1206.09,1218.36L1206.43,1222.14L1204.26,1227.2L1201.73,1226.38L1198.9,1227.67L1197,1226L1194.48,1227.28L1194.47,1226.02L1191.97,1229.4L1192.3,1230.24L1188.2,1230.69L1185.35,1229.44L1179.68,1230.32L1175.25,1228.67L1173.36,1229.1L1173.05,1230.37L1166.12,1232.09L1163.01,1238.84L1160.17,1238.85L1155.45,1242.66L1148.5,1241.44L1142.51,1241.48L1139.05,1244.86L1137.79,1244.44L1135.27,1246.56L1126.76,1248.7L1122.01,1244.94L1123.25,1241.99L1123.24,1238.63L1120.08,1238.22L1117.24,1239.08L1114.7,1234.89L1107.11,1230.29L1106.49,1233.66L1104.61,1235.35L1103.02,1234.51L1100.82,1235.78L1100.19,1237.05L1099.56,1236.21L1096.72,1236.64L1092.95,1242.11L1092.32,1241.28L1090.75,1242.54L1088.84,1240.03L1086.33,1242.98L1085.06,1242.14L1082.86,1244.25L1081.59,1242.57L1076.86,1243.43L1076.23,1242.59L1074.34,1243.85L1074.03,1246.8L1072.46,1249.74L1073.1,1253.52L1072.47,1254.37L1069.31,1253.95L1067.41,1252.28L1067.09,1250.18L1063.3,1247.67L1061.72,1248.09L1057.3,1246.84L1055.4,1244.32L1054.14,1245.16L1052.24,1244.75L1050.67,1246.01L1048.77,1246.01L1045.62,1248.54L1039.94,1248.97L1036.78,1247.29L1034.25,1247.3L1029.2,1242.68L1026.99,1243.52L1024.46,1242.69L1019.73,1246.05L1019.42,1249.83L1017.84,1251.52L1015,1259.92L1013.74,1260.34L1011.53,1257.82L1006.47,1256.14L1003.95,1256.57L1001.74,1255.73L997.63,1255.73L995.42,1257.83L990.05,1258.67L987.21,1260.77L984.05,1261.18L983.1,1265.39L977.73,1265.38L977.41,1266.64L975.2,1266.22L972.36,1268.32L970.46,1268.32L969.51,1269.16L963.51,1267.47L960.34,1271.25L955.6,1272.5L954.02,1275.44L952.12,1274.59L950.23,1275.43L947.38,1273.75L941.06,1273.73L940.12,1274.15L938.53,1277.51L936.95,1277.93L934.42,1275.4L929.69,1273.28L924,1272.85L923.05,1273.69L920.84,1272.84L921.17,1269.9L918.02,1264.85L918.97,1263.59L916.78,1257.7L915.2,1257.69L913.63,1254.32L911.42,1254.32L909.54,1252.21L908.27,1252.21L907.64,1253.04L905.44,1251.35L904.18,1249.25L905.13,1247.15L904.5,1246.73L901.67,1245.04L900.09,1246.29L898.21,1242.92L894.73,1244.17L893.48,1241.22L891.9,1240.38L890.95,1241.21L889.69,1240.79L888.13,1237.84L886.87,1237.41L887.2,1232.79L883.1,1232.77L880.25,1235.7L878.67,1236.12L877.72,1235.69L878.04,1234.85L877.1,1234.01L873.94,1234.41L868.92,1228.51L868.31,1224.72L865.79,1224.29L865.48,1222.6L863.9,1223.02L861.07,1222.16L858.54,1222.99L856.65,1221.72L854.76,1221.71L853.51,1220.44L848.47,1219.15L847.83,1219.57L844.38,1217.87L840.59,1218.26L835.56,1215.71L832.74,1213.17L830.84,1214L828.95,1213.57L828.64,1212.31L824.88,1209.34L823.63,1207.23L822.37,1206.8L821.76,1204.7L816.4,1204.66L811.64,1208.83L810.68,1211.34L808.79,1210.49L806.89,1211.74L799.98,1207.9L796.83,1208.72L793.68,1207.44L790.84,1207.83L792.06,1213.73L789.49,1220.01L790.06,1226.74L788.79,1228.83L786.25,1229.65L785.93,1230.49L782.18,1226.68L781.56,1224.99L775.27,1222.42L772.46,1219.45L772.79,1217.77L768.39,1216.05L766.54,1210.99L764.67,1208.88L764.06,1205.93L764.72,1203.41L762.85,1200.88L760.01,1200.85L759.08,1199.16L758.45,1199.57L756.25,1198.71L753.72,1199.53L752.46,1199.1L751.2,1199.93L749.95,1197.82L747.44,1196.95L745.22,1199.03L745.21,1199.87L741.12,1199.41L740.48,1200.25L739.54,1199.4L740.81,1198.57L740.51,1196.46L741.8,1193.96L737.4,1192.65L735.18,1194.31L730.77,1193.85L727.59,1197.18L726.33,1197.16L724.45,1195.46L721.36,1189.97L720.78,1184.92L722.06,1183.67L720.53,1179.03L717.39,1178.16L716.78,1176.47L713.32,1175.59L713.96,1174.76L712.73,1172.22L712.45,1168.86L710.29,1164.63L709.35,1164.62L710.68,1157.91L708.52,1154.53L709.15,1154.11L708.54,1152.01L707.29,1151.57L705.44,1148.61L708,1144.01L704.9,1140.62L702.38,1141.01L701.76,1140.16L702.1,1137.65L698.03,1136.34L694.21,1140.08L690.75,1140.04L689.15,1142.54L687.6,1140.84L686.02,1140.82L685.7,1142.08L683.49,1142.47L681.56,1145.81L679.68,1145.79L678.7,1148.3L679.27,1152.93L675.15,1155.4L672.36,1152.42L669.83,1153.23L667.33,1151.94L666.69,1152.77L663.25,1151.47L662.66,1148.52L661.72,1147.67L660.45,1148.49L657.31,1148.45L657.29,1149.71L655.73,1148.85L654.47,1149.26L651.25,1154.68L649.35,1155.49L649.96,1156.76L648.06,1157.58L646.19,1156.29L645.9,1155.03L639.95,1152.85L638.03,1155.34L633.29,1156.54L632.64,1158.21L630.11,1158.59L629.47,1159.85L627.63,1156.46L627.98,1153.94L626.4,1153.92L629,1148.07L627.44,1147.21L627.46,1145.53L624.05,1142.12L621.86,1141.67L620.94,1139.97L618.75,1139.1L619.73,1136.59L620.36,1136.6L619.76,1134.49L618.51,1134.05L617.87,1134.89L615.69,1133.17L615.68,1134.01L614.42,1134L613.46,1135.24L611.88,1135.64L611.55,1136.9L609.97,1137.29L608.66,1141.06L607.39,1141.46L605.78,1143.95L600.78,1141.78L599.51,1143.02L599.47,1145.54L596.92,1147.6L595.98,1147.17L594.68,1150.09L593.42,1150.07L594.61,1154.71L592.05,1157.2L587.66,1156.71L588.34,1153.36L586.77,1153.33L585.85,1151.22L584.9,1151.62L583.97,1150.77L584.33,1148.25L580.89,1146.94L577.72,1148.57L575.51,1148.53L575.24,1146.01L570.2,1146.34L568.96,1145.06L567.08,1144.61L565.87,1142.07L557.95,1145.3L557.24,1149.91L553.44,1151.53L552.46,1153.62L552.38,1158.24L554.52,1162.48L552.51,1169.17L554.08,1169.62L555.62,1171.74L556.16,1177.22L552.35,1178.83L548.19,1182.97L545.03,1183.33L544.44,1181.22L542.87,1180.77L542.23,1181.6L540.97,1181.58L539.74,1179.88L540.09,1177.36L538.86,1176.08L537.58,1176.9L535.94,1180.65L533.72,1181.87L532.16,1181.01L531.16,1183.93L528.3,1185.14L527.32,1187.23L524.15,1188.43L523.22,1187.57L522.27,1187.98L521.04,1185.85L520.1,1185.84L518.25,1183.7L515.1,1183.22L514.51,1181.53L514.88,1178.18L512.38,1177.29L511.76,1176.44L512.12,1174.34L510.88,1173.06L509,1172.6L506.22,1169.61L504.62,1170.84L504.84,1175.89L503.51,1180.07L500.66,1180.85L498.41,1182.91L497.5,1181.22L495.93,1181.19L494.03,1181.57L492.42,1183.22L488.02,1182.72L486.05,1186.88L483.86,1186L480.04,1188.03L470.28,1187.83L466.71,1192.81L466,1196.57L463.77,1197.79L459.53,1204.85L457.66,1203.97L456.75,1201.85L452.97,1201.77L451.74,1200.49L447.97,1199.57L435.33,1200.98L430.04,1197.93L426.16,1202.47L422.66,1203.66L421.69,1204.9L421.58,1209.94L420.62,1210.76L417.74,1212.38L416.19,1211.5L411.43,1212.66L408.32,1210.49L405.47,1211.26L401.47,1206.55L399.6,1205.67L391.36,1207.58L387.65,1204.13L386.71,1204.11L385.8,1202.41L386.14,1201.16L383.35,1199.41L380.51,1199.34L378.26,1200.97L374.81,1200.47L369.42,1201.61L363.79,1199.79L356.56,1198.78L355.95,1197.92L349.56,1201.55L348.01,1200.25L345.18,1199.76L343.9,1200.57L342.25,1203.47L340.68,1203.43L338.43,1205.06L336.81,1206.7L337.11,1207.55L331.39,1209.09L328.44,1213.64L324.3,1215.21L319.31,1200.37L317.75,1199.91L315.83,1200.7L313.99,1198.97L311.47,1198.91L311.13,1199.74L308.62,1199.26L307.65,1200.07L306.4,1199.62L305.74,1200.86L305.12,1200.43L304.46,1201.67L303.84,1201.23L302.52,1203.3L300.62,1203.67L300.58,1205.35L298.66,1206.14L298.97,1206.57L294.53,1207.29L293.54,1208.95L290.38,1209.29L290.32,1211.39L288.4,1212.6L289.75,1221.04L287.78,1223.93L287.73,1225.61L284.81,1228.48L279.37,1231.27L276.22,1231.19L273.33,1232.79L267.69,1231.37L262.93,1232.08L255.37,1231.45L249.96,1232.98L246.49,1232.88L240.53,1231.45L235.86,1229.22L234.58,1229.6L233.67,1228.31L232.71,1228.71L228.69,1226.07L225.56,1225.14L223.62,1226.76L218.25,1226.61L211.39,1223.88L208.5,1225.48L197.22,1222.62L195.86,1221.65Z" fill-rule="evenodd" fill="#4682b4" fill-opacity="0.471"/>
<polyline points="195.86,1221.65 197.26,1221.36 200.54,1217.25 206.24,1216.58 205.3,1205.62 206.07,1201.02 207.05,1199.79 205.36,1193.01 203.51,1191.69 202.63,1189.56 206.91,1183.38 208.16,1183.84 211.82,1177.22 211.26,1175.11 207.01,1169.51 208.38,1165.77 206.52,1164.87 206.92,1161.94 206.41,1158.14 205.49,1157.28 206.82,1154.79 209.06,1153.6 209.85,1148.16 207.45,1144.3 206.3,1140.48 207.03,1137.14 209.87,1136.81 209.7,1132.18 211.07,1128.43 209.23,1126.7 209.36,1122.5 207.53,1120.34 207.57,1119.08 205.07,1118.58 204.49,1116.89 204.29,1113.1 205.29,1111.44 204.71,1109.75 206.11,1104.74 205.59,1101.36 204.08,1099.22 205.46,1095.05 207.37,1094.27 207.72,1093.02 215.57,1093.25 215.63,1091.15 214.74,1089.44 216.33,1088.65 217.65,1086.59 218.7,1082.84 223.22,1078.76 228.18,1070.08 229.74,1070.55 230.41,1068.89 232.02,1067.67 231.18,1064.28 231.86,1062.2 228.72,1051.6 226.88,1050.29 226.96,1047.35 225.45,1045.62 224.6,1042.23 223.03,1042.61 222.11,1041.74 220.49,1043.37 218.36,1041.21 217.09,1042.01 213.99,1040.66 212.71,1041.46 211.18,1040.15 210.6,1038.87 211.25,1038.05 211.07,1033.42 208.63,1031.25 204.21,1021.87 204.99,1016.85 202.97,1010.9 203.35,1008.81 201.54,1006.65 200.37,1003.68 200.73,1002.42 197.15,996.43 195.61,995.54 194.32,996.77 193.09,996.31 191.99,991.23 192.67,989.57 191.75,988.7 191.5,986.59 192.19,984.51 190.41,981.51 190.77,979.84 189.59,977.7 187.73,977.23 186.53,975.51 184.8,970.83 186.1,969.19 186.14,967.93 185.21,967.48 185.03,963.27 186.56,954.07 185.35,952.77 185.9,945.22 182.52,943.43 183.25,940.09 184.51,939.71 184.01,935.49 180.65,933.29 177.81,934.04 175.02,933.53 173.42,934.74 171.25,934.25 166.69,930.33 164.61,926.9 164.66,925.22 162.51,924.31 162.14,925.98 160.54,927.19 156.47,927.48 151.56,924.8 149.38,924.73 147.56,922.99 144.11,923.72 141.68,921.54 140.85,918.15 139.31,917.68 137.56,913.84 132.22,914.92 131.57,915.74 126.27,915.56 122.63,912.5 116.8,909.36 115.05,905.94 111.99,904.16 110.81,902.01 106.49,900.61 105.22,901.4 101.52,900.02 98.58,894.87 95.77,894.78 91.22,891.26 88.57,886.54 85.86,883.92 83.99,883.86 79.7,881.61 78.56,878.62 74.91,875.97 74.34,874.69 76.23,873.92 73.02,867.92 73.39,866.25 71.99,861.57 72.99,859.93 72.13,857.8 67.54,855.53 62.88,854.95 56.57,840 56.96,837.92 53.94,835.28 54,833.61 52.23,831.02 49.71,831.77 48.9,828.38 46.46,827.03 43.52,822.29 42.07,819.3 42.76,817.64 38.81,814.97 38.58,812.86 35.61,808.97 34.03,809.75 33.44,808.89 32.49,809.28 30.05,807.93 32.07,803.8 35.84,802.67 38.31,803.18 38.96,802.37 42.7,802.08 44.04,799.61 45.59,799.67 47.4,800.99 50.55,799.85 52.59,803.7 59.25,800.16 62.54,794.81 61.54,788.05 64.8,783.96 64.87,781.86 68.65,780.32 67.93,774.4 72.94,773.32 77.28,773.47 79.73,774.4 81.01,773.19 82.17,766.92 83.15,765.27 86,763.69 86.15,759.49 86.86,756.99 88.47,755.37 88.23,753.26 89.2,752.03 88.35,749.9 89.42,745.73 90.68,745.36 92.3,743.31 92.03,742.04 92.99,741.23 94.37,737.08 92.97,732.82 92.06,732.37 90.98,727.71 85.58,722.48 82.93,718.6 81.06,718.95 78.67,716.35 77.14,715.87 73.36,709.01 70.01,707.21 68.28,703.79 62.17,701.47 59.06,701.78 58.22,699.22 59.24,696.74 58.67,695.46 59.41,692.12 62,688.85 62.85,682.57 65.47,678.46 65.3,674.67 67.49,673.91 68.53,670.58 64.29,668.33 66.48,667.57 66.85,665.9 65.97,664.61 69.82,660.54 71.53,655.98 69.46,653.38 66.71,652.44 66.17,650.32 67.12,649.51 68.98,649.58 70.58,647.96 70.35,645.85 72.04,641.7 73.95,640.09 75.29,637.19 78.71,636.47 78.81,633.53 80.18,629.8 78.45,626.37 76.01,625.45 73.4,620.73 72.89,617.77 68.11,613.39 67.69,607.91 66.82,606.2 65.01,605.29 65.1,602.78 62.69,601.01 62.32,594.27 62.98,593.03 65.77,592.71 70.49,589.94 72,590.83 73.55,590.47 77.68,587.25 78.35,585.59 79.28,585.62 82.13,583.2 83.67,583.26 86.55,580.42 87.24,578.34 86.42,575.37 88.37,572.49 90.21,572.56 92.76,570.12 99.06,574.97 100.31,574.59 105.1,578.54 104,574.72 107.98,566.45 109.49,567.34 111.7,565.73 113.83,566.65 118.81,565.13 125.01,572.91 129.08,570.95 131.53,571.45 133.31,573.61 134.83,574.08 135.68,576.21 135.33,577.46 136.52,578.76 137.8,577.54 137.54,575.85 142.26,573.07 142.33,570.97 144.17,571.03 145.03,573.16 147.91,569.89 150.03,570.8 152.86,569.21 155.26,570.97 157.43,570.62 160.32,566.93 160.07,565.24 161.63,564.45 162.95,561.97 162.39,560.27 164.94,557.41 166.16,557.87 166.8,557.05 168.82,551.65 166.41,549.89 167.05,549.07 165.67,544.4 170.01,543.28 169.45,541.58 170.38,541.19 170.18,537.82 171.13,537.01 170.71,531.11 188.79,523.28 190.99,521.66 195.5,515.08 206.44,509.11 206.9,504.08 210.07,500.82 213.44,490.83 217.52,488.01 224.02,486.11 225.31,484.04 226.23,484.07 233.46,478.4 234.53,473.39 236.44,470.92 237.79,466.76 237.32,462.12 238.33,458.79 235.38,454.92 241.44,447.11 241.52,444.17 240.59,444.56 238.78,443.67 234.6,439.76 233.67,440.16 232.78,439.29 225.78,437.82 221.75,439.38 219.99,436.8 216.68,434.6 215.52,432.47 211.88,431.51 208.28,428.88 208.33,427.2 205.95,425.03 204.78,423.31 204.53,421.2 200.98,417.31 200.54,411.83 199.04,410.94 198.78,409.25 194.25,407.43 194.29,406.17 193.09,405.29 192.53,403.59 193.59,399 191.52,396.84 191.85,396.01 189.52,392.15 188.82,385.4 184.34,381.9 181.3,381.38 178.62,379.19 176.34,374.08 171.56,370.56 171.12,365.08 167.52,363.28 164.27,359.81 160.31,359.27 160.34,358.43 157.66,356.24 152.45,356.91 144.51,356.64 140.67,352.73 140.8,348.95 139.08,345.53 139.17,343.01 132.56,339.85 129.44,341.84 127.61,341.78 120.1,338.16 118.03,335.99 116.99,330.91 113.79,326.18 106.75,326.77 101.09,322.79 100.91,319.42 98.27,316.39 98.43,311.77 96.08,309.16 95.58,306.2 93.53,303.61 93.06,299.81 91.9,298.08 92.68,293.07 90.05,290.03 88.95,286.63 88.54,281.15 89.48,280.34 91.5,274.95 88.56,271.9 90.82,268.19 89.27,260.57 87.56,257.15 90.42,253.88 90.79,251.8 88.76,249.2 88.25,246.24 86.52,243.65 84.68,244.01 81.37,243.05 77.54,239.55 77.22,239.96 75.52,236.53 72.51,235.58 69.55,233.37 70.21,232.14 66.14,226.94 65.55,218.09 64.75,215.12 62.41,212.51 64.04,209.63 63.93,204.16 65.27,200.84 63.16,200.34 57.95,193.42 57.19,189.19 56.03,187.89 53.31,179.38 52.43,178.5 53.19,174.33 54.16,172.68 55.39,172.31 59.33,164.04 63.19,149.89 65.19,136.5 63.62,129.72 70.17,124.49 69.39,121.1 71.01,118.21 71.87,111.09 71.69,107.72 70.51,106.84 71.23,103.92 73.39,102.74 71.05,100.55 72,99.32 71.15,97.61 80.91,95.44 81.32,92.51 89.14,93.63 94.35,91.72 101.27,92.8 108.26,91.79 108.62,90.12 110.75,89.77 112.07,86.45 110.62,84.72 111.89,83.08 108.65,80.45 109,79.2 115.68,78.17 117.55,76.55 123.83,78.45 124.25,75.1 125.77,74.73 136.04,75.08 135.5,72.96 137.39,70.92 134.45,68.3 136.02,66.67 136.23,60.37 135.04,59.91 133.34,56.49 136.37,38.51 137.59,38.13 139.04,39.86 139.5,35.25 138.01,34.78 137.75,33.51 136.23,33.88 136.05,30.09 137.92,28.47 138.48,29.75 139.7,29.37 139.42,28.52 141.83,28.6 141.9,26.5 140.15,24.76 141.39,23.96 142.25,25.25 143.77,24.88 144.41,23.64 142.69,21.06 143.91,20.68 145.49,18.63 145.89,15.7 145.01,14.83 145.64,14.01 147.68,16.18 150.82,12.5 152.01,12.96 154.17,11.35 157.08,14.39 160.63,16.61 172.04,17.83 174.71,19.18 180.3,23.56 188.7,34.35 193.41,37.86 210.63,46.81 216.51,52.04 222.04,58.51 227.36,62.46 237.58,64.03 248.74,64.36 260.04,70.16 263.29,72.77 264.71,75.76 265.21,79.55 263.59,83.29 253.44,99.81 250.68,100.99 219.98,106.38 216.29,108.37 212.84,112.05 208.32,131.25 203.79,140.36 200.06,153.27 199.94,157.05 201.52,164.67 205.88,170.69 210.32,174.19 217.82,176.95 227.16,178.91 242.44,185.25 245.78,185.35 255.42,187.74 261.09,190.84 264.41,191.36 289.7,187.87 301.08,181.88 315.19,175.95 322.2,174.88 325.59,172.87 328.94,172.11 361.08,172.1 371.71,171.1 378.97,171.7 393.71,176.67 402.48,177.3 413.17,187.22 426.7,192.57 432.97,196.91 436.6,197.41 441.78,196.68 451.55,193.53 460.99,192.05 474.3,193.59 476.4,194.89 475.78,195.72 479.01,200.83 484.11,203.45 492.56,206.14 506.38,213.56 511.2,215.33 527.83,219.01 539.97,219.23 568.32,230.65 571.02,232.37 571.6,234.06 575.79,237.92 587,239.78 599.66,246.29 602.69,246.75 612.44,245.22 616.38,245.7 622.5,243.27 630.41,242.54 638.95,240.14 644.12,239.8 650.17,241.56 655.65,240.79 664.23,235.44 666.1,231.69 669.47,229.63 674.4,224.23 693.27,219.84 702.14,214.06 718.81,216.35 739.08,223.29 749.93,231.38 760.16,241.56 765.89,245.4 770.74,247.54 776.21,247.59 783.83,243.88 793,237.65 797.26,236.42 800,236.02 810,238.62 815.47,238.66 823.38,237.03 830.09,232.04 834.36,229.96 842.87,228.76 855.61,231.35 860.13,237.26 869.82,243.62 883.77,248.3 886.81,248.74 902.93,243.34 908.1,242.94 911.74,243.37 918.42,246.34 929.96,249.31 941.18,260.27 949.37,264.49 959.09,272.49 969.12,275.86 973.69,276.29 980.99,275.03 991.64,271.26 998.33,267.06 1010.19,264.11 1021.13,266.21 1025.39,264.94 1039.06,255.68 1054.24,248.09 1063.04,245.55 1074.29,245.94 1088.85,239.17 1093.39,234.53 1098.81,224.01 1109.42,219.34 1112.45,217.23 1120,209.21 1124.2,200.36 1130.83,192.35 1134.73,184.34 1141.36,176.32 1155.83,165.31 1168.21,158.51 1174.83,153.42 1180.51,142.46 1181.39,138.25 1188.58,128.95 1198.51,122.15 1206.36,120.83 1213.93,121.61 1218.15,120.73 1238.02,111.31 1249.13,103.64 1271.42,97.1 1277.47,97.46 1281.41,99.1 1284.74,99.48 1290.16,98.16 1295,98.1 1302.23,96.34 1310.34,92.88 1323.29,89.77 1337.82,92.11 1347.74,88.61 1354.37,87.68 1366.97,81.62 1372.39,80.7 1376.03,81.49 1385.68,80.92 1389.88,79.18 1414.99,63.65 1424.88,59.28 1432.63,54.11 1455.29,55.81 1466.37,51.41 1475.68,49.14 1482.03,50.28 1486.92,53.55 1491.15,53.89 1494.75,52.56 1501.41,53.69 1503.54,54.91 1506.26,54.85 1508.69,56.06 1512.09,59.78 1516.95,61.36 1526.93,62.42 1530.53,61.5 1536.78,57.59 1539.19,57.12 1541.65,59.17 1541.41,62.12 1543.56,64.17 1542.07,65.04 1541.2,66.74 1541.88,70.09 1545.92,75.47 1545.99,78.83 1565.76,85.13 1570.48,93.43 1579.19,104.58 1600.23,99.47 1643.55,103.04 1651.96,88.95 1653.14,88.08 1662.09,95 1673.75,124.54 1680.45,126.47 1687.06,124.61 1713.88,120.51 1735.75,102.23 1744.19,111.65 1747.76,130.47 1755.2,146.65 1761.07,170.86 1767.81,173.18 1798.63,189.05 1835.55,204.27 1869.91,205.65 1899.9,212.18 1939.88,208.64 1938.26,214.17 1940.07,222.09 1939.83,223.78 1938.38,225.94 1937.76,225.54 1936.59,226.84 1935.77,229.4 1937.85,244.46 1941.46,251.89 1939.45,254.91 1940.22,259.51 1939.05,260.81 1938.67,267.13 1940.08,272.13 1946.54,282.4 1949.73,286.07 1950.46,289.4 1951.74,291.04 1950.1,296.15 1950.47,297.81 1949.18,304.17 1946.3,308.9 1945.48,311.45 1945.83,312.7 1939.54,324.28 1935.34,334.53 1930.08,341.03 1925.04,345.41 1920.53,347.25 1912.14,360.59 1910.82,366.52 1908.22,361.99 1906.02,360.38 1898.96,359.37 1894.63,357.84 1886.77,351.38 1880.31,349.92 1876.88,347.94 1873.84,348.46 1870.13,346.9 1862.47,346.32 1860.05,346.82 1854.62,349.1 1852.17,348.77 1846.14,351.07 1844.07,353.24 1843.16,353.27 1842.2,352.04 1838.58,353.42 1836.5,355.17 1822.48,356.04 1820.88,353.99 1818.72,353.21 1815.06,353.33 1812.64,354.25 1802.55,363.39 1797.42,365.65 1795.65,367.81 1789.73,383.96 1790.13,386.89 1789.29,389.44 1787.81,391.17 1784.97,398.4 1783.15,408.97 1780,416.21 1778.92,420.86 1776.22,422.63 1775.16,428.12 1772.52,431.99 1767.67,433.81 1766.1,432.6 1764.6,433.48 1763.65,432.67 1760.92,433.59 1757.95,436.62 1753.36,436.75 1753.09,438.02 1752.46,437.62 1748.53,439.42 1746.82,443.67 1742.23,443.8 1741.94,444.65 1744.09,444.59 1743.81,445.44 1739.47,443.88 1736.95,441.43 1737.54,440.57 1733.17,437.75 1730.74,438.66 1727.05,437.93 1727.07,438.77 1724.64,439.68 1721.67,442.7 1720.15,443.16 1720.18,444.42 1715.58,444.13 1712.48,442.96 1711.28,443.83 1709.1,442.63 1709.07,441.37 1707.51,440.57 1706.65,442.7 1704.84,443.59 1704.19,442.34 1700.57,444.54 1699.1,446.68 1696.04,446.77 1692.6,444.34 1689.57,445.68 1677.58,443.9 1671.17,444.9 1670.29,446.61 1667.56,447.52 1664.76,445.91 1664.16,446.34 1666.33,447.55 1666.05,448.4 1662.95,447.22 1662.35,447.65 1667.03,450.89 1669.17,450.42 1670.32,447.45 1672.21,449.5 1677.36,447.26 1679.15,445.54 1682.83,445.44 1697.28,447.57 1698.23,448.39 1703.77,449.5 1708.96,448.52 1714.53,450.47 1719.98,448.21 1722.44,448.56 1723.62,446.85 1727,447.18 1729.71,445.42 1729.68,444.58 1731.8,443.68 1733.65,444.05 1736.5,447.33 1738.99,448.52 1743.61,449.23 1745.55,452.95 1749.21,452.01 1753.25,453.99 1754.76,453.11 1755.15,456.04 1753.52,463.23 1753.37,468.7 1752.51,470.83 1750.7,471.72 1747.8,488.2 1746.62,489.91 1745.4,500.87 1744.52,502.16 1742.69,502.63 1741.84,505.18 1739.74,506.92 1738.98,512.83 1739.69,526.68 1745.43,555.51 1743.07,558.94 1742.53,561.48 1744.71,573.19 1743.62,578.26 1745.41,587.04 1741.41,587.15 1739.1,592.68 1741.68,607.32 1745.78,621.49 1745.84,623.59 1743.75,625.76 1742.3,629.16 1742.72,632.93 1746.42,643.75 1746.33,651.32 1744.51,652.63 1740.16,651.5 1728.13,652.26 1721.9,650.33 1717.94,652.12 1716.67,650.89 1713.29,651.82 1709.24,650.25 1708.01,650.71 1704.9,649.95 1703.96,649.14 1700.89,650.06 1699.33,649.26 1696.88,650.17 1695.93,649.35 1694.08,649.4 1691.06,652 1689.62,655.82 1688.56,662.58 1688.95,665.51 1689.62,667.59 1693.08,670.02 1694.33,670.41 1696.77,669.08 1697.72,669.9 1696.51,671.19 1695.58,670.8 1694.68,672.08 1694.02,670.42 1691.86,670.48 1690.35,671.78 1688.91,676.02 1685.79,674.84 1685.14,673.59 1682.98,673.65 1678.5,679.65 1675.41,679.73 1674.15,678.92 1671.11,680.68 1670.76,679.43 1669.53,679.46 1666.81,682.05 1665.36,685.87 1664.31,693.05 1665.57,706.04 1669.14,712.68 1671.05,714.73 1668.29,715.64 1664.79,711.95 1660.43,710.8 1657.35,711.71 1654.93,713.88 1653.64,711.81 1650.23,711.47 1647.18,713.23 1643.25,717.11 1642.01,717.14 1635.74,713.93 1630.2,715.32 1628.07,716.64 1624.17,722.19 1621.23,728.57 1619.44,744.58 1618.8,743.75 1615.71,744.25 1616.04,745.08 1618.54,745.86 1616.69,746.33 1615.82,748.87 1614.57,748.48 1615.44,745.94 1615.1,744.68 1613.86,744.29 1613,747.25 1611.74,746.44 1612.63,744.74 1611.68,743.92 1609.58,746.91 1610.2,746.9 1609.92,748.17 1608.99,748.19 1608.8,753.24 1609.45,754.9 1608.23,755.77 1612.98,759.86 1614.54,760.25 1615.2,761.91 1617.95,760.17 1616.67,758.51 1617.58,757.65 1617.25,756.82 1618.79,756.36 1622.95,761.73 1623.9,762.55 1624.51,762.11 1628.63,765.79 1628.38,768.32 1629.01,768.73 1632.41,768.23 1634.21,765.66 1635.05,761.86 1637.2,760.96 1637.78,759.69 1636.19,758.05 1637.71,756.75 1643.69,760.39 1647.75,761.55 1650.82,760.21 1649.83,757.71 1651.28,753.89 1651.9,753.88 1652.9,756.37 1657.66,760.88 1659.54,761.67 1663.87,761.14 1664.98,756.07 1666.88,757.7 1667.56,759.79 1671.86,758.42 1671.96,762.2 1671.07,763.9 1673.28,765.1 1672.67,765.54 1673.62,766.36 1670.86,767.69 1670.59,769.38 1670.95,771.05 1674.13,774.33 1680.38,775.85 1681.27,774.14 1683.13,774.1 1684.62,771.96 1685.79,768.98 1685.15,768.58 1684.57,769.86 1683.93,769.03 1685.14,768.16 1687.31,768.1 1687.65,768.93 1686.13,770.23 1686.78,771.48 1688.63,771.01 1687.76,773.13 1689.05,775.2 1691.88,776.39 1693.39,775.09 1694.35,775.9 1695.87,775.02 1696.52,775.84 1695.68,779.23 1691.02,779.35 1689.86,782.33 1690.89,786.08 1695.29,788.07 1693.15,789.38 1693.2,791.06 1691.65,791.52 1692.39,795.71 1697.59,804.4 1698.21,804.38 1697.93,805.65 1698.92,807.72 1700.83,809.35 1703.95,810.11 1705.49,809.65 1706.66,806.68 1708.53,807.04 1711.28,805.29 1711.95,806.95 1712.22,805.68 1715.02,805.61 1715.05,806.87 1713.84,808.16 1714.49,808.98 1713.27,809.86 1714.21,810.25 1711.77,812 1714.28,812.77 1713.42,815.32 1715.59,815.26 1718.15,817.71 1714.43,818.23 1712.31,820.39 1710.45,820.44 1711.75,822.51 1709.33,825.1 1706.86,825.58 1706.26,826.44 1706.37,830.64 1707.37,833.13 1708.03,834.38 1710.22,835.16 1707.76,836.07 1706.2,835.69 1705.38,839.91 1707.03,843.65 1710.5,845.24 1712.05,845.2 1711.71,843.95 1712.64,843.92 1713.92,845.15 1713.95,846.41 1716.17,848.03 1714.02,848.93 1714.41,851.86 1715.66,851.82 1716.66,854.32 1718.57,855.95 1722,856.27 1724.25,858.73 1725.17,858.29 1727.08,859.92 1727.13,861.6 1728.74,863.65 1730.61,863.6 1730.04,865.3 1731.88,864.41 1733.77,865.2 1732.87,866.48 1734.75,866.85 1734.79,868.11 1735.72,868.08 1734.83,869.79 1735.8,871.02 1737.67,870.97 1737.09,872.67 1738.36,873.47 1739.58,872.6 1740.23,873.42 1737.78,874.75 1737.82,876.43 1742.23,877.99 1741.95,879.26 1742.59,879.66 1743.83,879.62 1744.42,878.35 1745.07,879.17 1744.47,880.03 1746.07,881.66 1745.82,883.77 1752.44,886.52 1754.14,891.52 1756.01,891.47 1756.98,892.7 1757.36,894.79 1755.82,895.67 1757.4,896.47 1757.46,898.57 1761.31,902.24 1762.88,902.62 1765.03,901.29 1766.31,902.52 1767.54,902.06 1768.5,902.87 1767.28,903.75 1770.78,906.17 1771.17,908.68 1773.4,910.3 1773.15,912.41 1774.73,913.2 1774.77,914.46 1775.72,914.85 1775.43,915.7 1779.57,918.52 1781.42,917.63 1782.69,918.43 1783.03,919.26 1781.24,922.25 1782.19,922.65 1783.21,925.56 1784.77,925.51 1786.69,927.14 1786.47,930.09 1788.37,930.87 1790.33,933.75 1788.79,934.64 1791.03,936.26 1791.14,940.03 1792.14,942.11 1792.76,942.09 1792.8,943.35 1796.35,947.02 1797.1,951.21 1796.5,952.06 1795.55,951.67 1794.03,952.98 1791.83,952.63 1789.36,953.54 1784.03,952.86 1780.85,951.27 1778.92,949.23 1778.32,950.08 1778.68,951.76 1775.62,953.95 1774.36,953.56 1772.54,955.3 1772.79,953.19 1771.84,952.8 1769.09,954.98 1767.51,954.61 1765.26,952.15 1763.48,955.56 1762.79,953.48 1761.53,953.1 1760.08,956.92 1758.83,956.96 1755.3,953.7 1754.22,948.68 1750.13,947.54 1748.58,948 1747.31,947.2 1747.58,945.93 1744.77,946.01 1743.44,943.11 1742.21,943.56 1741.65,946.1 1742.66,948.59 1740.2,949.92 1739.54,948.68 1740.13,947.4 1741.36,946.95 1741.33,945.69 1740.07,945.3 1738,949.56 1735.82,949.62 1733.24,946.75 1732.01,947.63 1732.06,949.31 1730.81,949.34 1729.63,951.9 1729.77,956.94 1731.64,956.89 1730.19,960.71 1730.55,962.38 1732.14,963.6 1733.36,962.3 1734.94,963.1 1735.39,968.13 1731.63,967.82 1730.01,965.76 1728.45,965.8 1728.5,967.48 1729.81,969.55 1729.2,970.4 1726.67,969.21 1726.31,967.54 1725.36,967.15 1722.27,968.49 1721.59,966.41 1717.52,966.1 1717.18,965.27 1719.63,963.1 1719.28,961.85 1716.45,961.09 1715.58,963.63 1714.63,963.24 1713.3,960.33 1708.28,959.63 1706.43,960.52 1707.62,958.38 1704.11,955.53 1703.19,956.4 1703.24,958.08 1696.96,956.99 1695.42,957.87 1694.14,956.64 1691.02,956.72 1691.35,957.55 1693.55,957.92 1693.89,959.17 1692.98,960.03 1692,958.38 1689.22,959.71 1687.65,959.33 1686.5,963.14 1684.62,963.19 1684.38,965.72 1683.44,965.75 1683.38,963.65 1682.13,963.68 1681.24,965.38 1679.69,965.84 1679.05,965.44 1679.32,963.75 1677.76,963.79 1676.22,964.67 1675.04,967.22 1673.77,966.41 1673.73,965.15 1673.11,965.17 1672.53,966.87 1668.42,965.29 1667.83,966.57 1670.7,968.59 1670.4,969.44 1668.82,968.64 1669.17,969.89 1665.52,974.19 1664.26,973.8 1664.51,971.27 1663.87,970.45 1662.62,970.48 1658.71,976.88 1657.47,977.33 1657.14,976.5 1658.06,975.64 1653.66,974.91 1653.7,976.59 1651.62,980.84 1653.79,980.37 1654.77,982.02 1651.66,982.52 1649.81,983.83 1650.48,985.49 1653.29,985.42 1653.38,988.78 1651.17,988 1649.62,988.46 1647.71,987.24 1647.68,985.98 1646.43,986.01 1645.77,984.77 1643.56,983.98 1640.32,979.02 1639.28,974.84 1633.45,966.57 1632.5,966.18 1631.59,967.04 1631.63,968.72 1629.43,968.35 1627.26,969.24 1625.98,968.01 1620.33,966.88 1619.93,963.11 1618.97,962.29 1616.49,963.19 1614.92,962.81 1614.32,963.66 1613.68,963.26 1613.3,960.32 1611.43,960.37 1610.41,957.03 1609.47,956.63 1609.08,953.28 1606.58,953.33 1606.3,954.6 1605.05,954.63 1603.78,953.82 1602.75,949.64 1599.58,947.61 1597.08,947.67 1595.74,943.5 1596.01,941.81 1593.48,940.6 1592.43,935.16 1590.84,933.94 1591.12,932.67 1590.18,932.27 1590.76,930.58 1589.51,930.19 1589.8,929.34 1586.91,925.62 1583.14,924.44 1578.16,924.97 1578.09,922.03 1576.17,919.98 1574.93,920 1574.85,916.64 1572.06,917.12 1570.75,914.21 1566.36,913.46 1564.72,909.72 1561.31,910.63 1557.86,909.44 1558.13,907.76 1557.49,906.93 1554.72,908.67 1551.61,909.15 1547.51,906.72 1545.07,909.29 1541.96,909.77 1540.51,915.27 1535.86,916.62 1534.95,917.9 1535,920 1536.58,921.23 1537.91,925.41 1536.99,925.85 1532.93,925.93 1531.03,924.29 1530.66,921.77 1528.48,921.82 1526.65,923.95 1522.91,924.03 1521.93,921.95 1520.67,921.13 1520.07,922.4 1513.52,922.53 1509.05,917.16 1506.52,915.52 1501.85,915.61 1492.15,914.12 1488.46,916.71 1486.27,916.33 1483.2,918.9 1480.99,917.68 1479.8,921.07 1480.43,921.48 1480.17,924 1482.06,925.23 1481.5,928.6 1480.26,929.04 1476.02,936.26 1473.83,935.88 1472.61,937.17 1471.97,936.34 1467.91,936.41 1467.61,937.26 1468.57,938.5 1467.68,941.04 1468.98,943.95 1465.01,948.65 1463.19,952.04 1463.23,954.14 1452.25,951.39 1451.01,951.83 1449.5,954.8 1448.55,953.98 1446.69,954.85 1446.09,956.54 1443.32,958.69 1442.37,957.86 1438.31,958.35 1433.6,956.75 1429.29,960.6 1428.35,960.19 1426.49,961.07 1426.25,965.69 1421.88,966.18 1420.6,964.1 1419.05,964.97 1413.4,962.95 1412.75,961.7 1409.6,960.07 1409.25,957.56 1407.38,957.59 1404.95,962.25 1403.7,961.84 1400.02,966.52 1398.76,966.12 1397.27,970.77 1395.07,969.96 1389.45,970.04 1384.72,967.17 1381.61,968.48 1380.04,967.66 1378.17,968.11 1377.22,966.86 1375.35,967.73 1372.22,966.93 1370.37,968.64 1367.21,966.58 1363.45,965.37 1361.89,965.81 1359.68,963.74 1359.06,964.17 1356.54,962.52 1355.61,963.38 1356.25,964.21 1355.33,965.48 1355.05,968.43 1347.01,974.42 1337.46,985.47 1337.48,986.73 1340.35,990.89 1344.14,994.2 1344.47,995.46 1343.55,996.73 1342.61,996.75 1341.72,1000.12 1339.24,1002.25 1339.26,1003.51 1343.67,1006.4 1343.7,1008.08 1341.53,1009.79 1339.96,1009.39 1338.42,1011.09 1338.47,1015.71 1334.75,1018.28 1330.5,1028.84 1280.72,1029.41 1277.59,1030.29 1275.77,1035.35 1270.54,1044.65 1265.67,1059.4 1265.43,1066.13 1274.62,1075.28 1274.63,1076.54 1271.18,1076.58 1267.39,1074.51 1263.95,1074.97 1260.21,1077.53 1251.73,1076.77 1239.44,1071 1235.63,1065.15 1233.43,1064.75 1229.7,1068.14 1225.61,1067.34 1219.64,1065.29 1217.74,1063.62 1216.78,1061.11 1212.72,1062.4 1206.48,1067.08 1204.29,1067.09 1200.54,1068.8 1198.99,1071.33 1198.08,1075.96 1194.32,1076.41 1189.29,1074.77 1187.11,1076.88 1184.61,1077.74 1183.68,1079.43 1184.32,1081.95 1183.7,1082.79 1182.13,1081.96 1181.5,1082.39 1182.14,1084.48 1181.22,1086.59 1183.11,1088.68 1183.13,1091.62 1184.09,1093.71 1182.55,1097.93 1184.77,1101.27 1184.15,1102.12 1187.95,1106.29 1190.77,1105.85 1192.05,1108.79 1191.43,1110.47 1192.07,1112.57 1196.47,1112.54 1196.79,1113.37 1200.56,1113.77 1201.17,1110.82 1203.06,1111.22 1203.68,1110.38 1206.19,1110.36 1205.94,1117.93 1209.1,1120.84 1210.99,1121.25 1209.77,1125.46 1208.96,1143.12 1216.2,1143.48 1218.08,1142.62 1220.01,1148.49 1220.7,1154.79 1220.07,1155.63 1221.03,1157.31 1220.73,1158.57 1219.47,1159 1217,1164.49 1217.64,1165.32 1216.72,1169.11 1214.21,1169.55 1211.39,1171.25 1211.75,1176.71 1216.81,1180.04 1219.67,1182.95 1220.95,1185.47 1223.81,1187.96 1224.45,1190.06 1226.36,1191.72 1225.42,1192.57 1222.58,1191.76 1220.39,1193.45 1218.5,1193.47 1216.01,1197.69 1213.5,1199.39 1214.8,1204.43 1212.63,1208.65 1213.28,1211.16 1211.4,1212.86 1209.86,1217.07 1206.09,1218.36 1206.43,1222.14 1204.26,1227.2 1201.73,1226.38 1198.9,1227.67 1197,1226 1194.48,1227.28 1194.47,1226.02 1191.97,1229.4 1192.3,1230.24 1188.2,1230.69 1185.35,1229.44 1179.68,1230.32 1175.25,1228.67 1173.36,1229.1 1173.05,1230.37 1166.12,1232.09 1163.01,1238.84 1160.17,1238.85 1155.45,1242.66 1148.5,1241.44 1142.51,1241.48 1139.05,1244.86 1137.79,1244.44 1135.27,1246.56 1126.76,1248.7 1122.01,1244.94 1123.25,1241.99 1123.24,1238.63 1120.08,1238.22 1117.24,1239.08 1114.7,1234.89 1107.11,1230.29 1106.49,1233.66 1104.61,1235.35 1103.02,1234.51 1100.82,1235.78 1100.19,1237.05 1099.56,1236.21 1096.72,1236.64 1092.95,1242.11 1092.32,1241.28 1090.75,1242.54 1088.84,1240.03 1086.33,1242.98 1085.06,1242.14 1082.86,1244.25 1081.59,1242.57 1076.86,1243.43 1076.23,1242.59 1074.34,1243.85 1074.03,1246.8 1072.46,1249.74 1073.1,1253.52 1072.47,1254.37 1069.31,1253.95 1067.41,1252.28 1067.09,1250.18 1063.3,1247.67 1061.72,1248.09 1057.3,1246.84 1055.4,1244.32 1054.14,1245.16 1052.24,1244.75 1050.67,1246.01 1048.77,1246.01 1045.62,1248.54 1039.94,1248.97 1036.78,1247.29 1034.25,1247.3 1029.2,1242.68 1026.99,1243.52 1024.46,1242.69 1019.73,1246.05 1019.42,1249.83 1017.84,1251.52 1015,1259.92 1013.74,1260.34 1011.53,1257.82 1006.47,1256.14 1003.95,1256.57 1001.74,1255.73 997.63,1255.73 995.42,1257.83 990.05,1258.67 987.21,1260.77 984.05,1261.18 983.1,1265.39 977.73,1265.38 977.41,1266.64 975.2,1266.22 972.36,1268.32 970.46,1268.32 969.51,1269.16 963.51,1267.47 960.34,1271.25 955.6,1272.5 954.02,1275.44 952.12,1274.59 950.23,1275.43 947.38,1273.75 941.06,1273.73 940.12,1274.15 938.53,1277.51 936.95,1277.93 934.42,1275.4 929.69,1273.28 924,1272.85 923.05,1273.69 920.84,1272.84 921.17,1269.9 918.02,1264.85 918.97,1263.59 916.78,1257.7 915.2,1257.69 913.63,1254.32 911.42,1254.32 909.54,1252.21 908.27,1252.21 907.64,1253.04 905.44,1251.35 904.18,1249.25 905.13,1247.15 904.5,1246.73 901.67,1245.04 900.09,1246.29 898.21,1242.92 894.73,1244.17 893.48,1241.22 891.9,1240.38 890.95,1241.21 889.69,1240.79 888.13,1237.84 886.87,1237.41 887.2,1232.79 883.1,1232.77 880.25,1235.7 878.67,1236.12 877.72,1235.69 878.04,1234.85 877.1,1234.01 873.94,1234.41 868.92,1228.51 868.31,1224.72 865.79,1224.29 865.48,1222.6 863.9,1223.02 861.07,1222.16 858.54,1222.99 856.65,1221.72 854.76,1221.71 853.51,1220.44 848.47,1219.15 847.83,1219.57 844.38,1217.87 840.59,1218.26 835.56,1215.71 832.74,1213.17 830.84,1214 828.95,1213.57 828.64,1212.31 824.88,1209.34 823.63,1207.23 822.37,1206.8 821.76,1204.7 816.4,1204.66 811.64,1208.83 810.68,1211.34 808.79,1210.49 806.89,1211.74 799.98,1207.9 796.83,1208.72 793.68,1207.44 790.84,1207.83 792.06,1213.73 789.49,1220.01 790.06,1226.74 788.79,1228.83 786.25,1229.65 785.93,1230.49 782.18,1226.68 781.56,1224.99 775.27,1222.42 772.46,1219.45 772.79,1217.77 768.39,1216.05 766.54,1210.99 764.67,1208.88 764.06,1205.93 764.72,1203.41 762.85,1200.88 760.01,1200.85 759.08,1199.16 758.45,1199.57 756.25,1198.71 753.72,1199.53 752.46,1199.1 751.2,1199.93 749.95,1197.82 747.44,1196.95 745.22,1199.03 745.21,1199.87 741.12,1199.41 740.48,1200.25 739.54,1199.4 740.81,1198.57 740.51,1196.46 741.8,1193.96 737.4,1192.65 735.18,1194.31 730.77,1193.85 727.59,1197.18 726.33,1197.16 724.45,1195.46 721.36,1189.97 720.78,1184.92 722.06,1183.67 720.53,1179.03 717.39,1178.16 716.78,1176.47 713.32,1175.59 713.96,1174.76 712.73,1172.22 712.45,1168.86 710.29,1164.63 709.35,1164.62 710.68,1157.91 708.52,1154.53 709.15,1154.11 708.54,1152.01 707.29,1151.57 705.44,1148.61 708,1144.01 704.9,1140.62 702.38,1141.01 701.76,1140.16 702.1,1137.65 698.03,1136.34 694.21,1140.08 690.75,1140.04 689.15,1142.54 687.6,1140.84 686.02,1140.82 685.7,1142.08 683.49,1142.47 681.56,1145.81 679.68,1145.79 678.7,1148.3 679.27,1152.93 675.15,1155.4 672.36,1152.42 669.83,1153.23 667.33,1151.94 666.69,1152.77 663.25,1151.47 662.66,1148.52 661.72,1147.67 660.45,1148.49 657.31,1148.45 657.29,1149.71 655.73,1148.85 654.47,1149.26 651.25,1154.68 649.35,1155.49 649.96,1156.76 648.06,1157.58 646.19,1156.29 645.9,1155.03 639.95,1152.85 638.03,1155.34 633.29,1156.54 632.64,1158.21 630.11,1158.59 629.47,1159.85 627.63,1156.46 627.98,1153.94 626.4,1153.92 629,1148.07 627.44,1147.21 627.46,1145.53 624.05,1142.12 621.86,1141.67 620.94,1139.97 618.75,1139.1 619.73,1136.59 620.36,1136.6 619.76,1134.49 618.51,1134.05 617.87,1134.89 615.69,1133.17 615.68,1134.01 614.42,1134 613.46,1135.24 611.88,1135.64 611.55,1136.9 609.97,1137.29 608.66,1141.06 607.39,1141.46 605.78,1143.95 600.78,1141.78 599.51,1143.02 599.47,1145.54 596.92,1147.6 595.98,1147.17 594.68,1150.09 593.42,1150.07 594.61,1154.71 592.05,1157.2 587.66,1156.71 588.34,1153.36 586.77,1153.33 585.85,1151.22 584.9,1151.62 583.97,1150.77 584.33,1148.25 580.89,1146.94 577.72,1148.57 575.51,1148.53 575.24,1146.01 570.2,1146.34 568.96,1145.06 567.08,1144.61 565.87,1142.07 557.95,1145.3 557.24,1149.91 553.44,1151.53 552.46,1153.62 552.38,1158.24 554.52,1162.48 552.51,1169.17 554.08,1169.62 555.62,1171.74 556.16,1177.22 552.35,1178.83 548.19,1182.97 545.03,1183.33 544.44,1181.22 542.87,1180.77 542.23,1181.6 540.97,1181.58 539.74,1179.88 540.09,1177.36 538.86,1176.08 537.58,1176.9 535.94,1180.65 533.72,1181.87 532.16,1181.01 531.16,1183.93 528.3,1185.14 527.32,1187.23 524.15,1188.43 523.22,1187.57 522.27,1187.98 521.04,1185.85 520.1,1185.84 518.25,1183.7 515.1,1183.22 514.51,1181.53 514.88,1178.18 512.38,1177.29 511.76,1176.44 512.12,1174.34 510.88,1173.06 509,1172.6 506.22,1169.61 504.62,1170.84 504.84,1175.89 503.51,1180.07 500.66,1180.85 498.41,1182.91 497.5,1181.22 495.93,1181.19 494.03,1181.57 492.42,1183.22 488.02,1182.72 486.05,1186.88 483.86,1186 480.04,1188.03 470.28,1187.83 466.71,1192.81 466,1196.57 463.77,1197.79 459.53,1204.85 457.66,1203.97 456.75,1201.85 452.97,1201.77 451.74,1200.49 447.97,1199.57 435.33,1200.98 430.04,1197.93 426.16,1202.47 422.66,1203.66 421.69,1204.9 421.58,1209.94 420.62,1210.76 417.74,1212.38 416.19,1211.5 411.43,1212.66 408.32,1210.49 405.47,1211.26 401.47,1206.55 399.6,1205.67 391.36,1207.58 387.65,1204.13 386.71,1204.11 385.8,1202.41 386.14,1201.16 383.35,1199.41 380.51,1199.34 378.26,1200.97 374.81,1200.47 369.42,1201.61 363.79,1199.79 356.56,1198.78 355.95,1197.92 349.56,1201.55 348.01,1200.25 345.18,1199.76 343.9,1200.57 342.25,1203.47 340.68,1203.43 338.43,1205.06 336.81,1206.7 337.11,1207.55 331.39,1209.09 328.44,1213.64 324.3,1215.21 319.31,1200.37 317.75,1199.91 315.83,1200.7 313.99,1198.97 311.47,1198.91 311.13,1199.74 308.62,1199.26 307.65,1200.07 306.4,1199.62 305.74,1200.86 305.12,1200.43 304.46,1201.67 303.84,1201.23 302.52,1203.3 300.62,1203.67 300.58,1205.35 298.66,1206.14 298.97,1206.57 294.53,1207.29 293.54,1208.95 290.38,1209.29 290.32,1211.39 288.4,1212.6 289.75,1221.04 287.78,1223.93 287.73,1225.61 284.81,1228.48 279.37,1231.27 276.22,1231.19 273.33,1232.79 267.69,1231.37 262.93,1232.08 255.37,1231.45 249.96,1232.98 246.49,1232.88 240.53,1231.45 235.86,1229.22 234.58,1229.6 233.67,1228.31 232.71,1228.71 228.69,1226.07 225.56,1225.14 223.62,1226.76 218.25,1226.61 211.39,1223.88 208.5,1225.48 197.22,1222.62 195.86,1221.65" fill="none" stroke="#1e1e1e" stroke-width="1.52" stroke-linecap="round" stroke-linejoin="round"/>
<path d="M1733.77,865.2L1734.38,864.76L1733.77,865.2Z" fill-rule="evenodd" fill="#4682b4" fill-opacity="0.471"/>
<polyline points="1733.77,865.2 1734.38,864.76 1733.77,865.2" fill="none" stroke="#1e1e1e" stroke-width="1.52" stroke-linecap="round" stroke-linejoin="round"/>
<path d="M1735.21,444.84L1734.54,442.76L1736.34,441.45L1740.74,445.53L1740.78,446.79L1741.98,445.91L1743.83,446.28L1742.96,447.98L1738.02,446.86L1735.21,444.84Z" fill-rule="evenodd" fill="#4682b4" fill-opacity="0.471"/>
<polyline points="1735.21,444.84 1734.54,442.76 1736.34,441.45 1740.74,445.53 1740.78,446.79 1741.98,445.91 1743.83,446.28 1742.96,447.98 1738.02,446.86 1735.21,444.84" fill="none" stroke="#1e1e1e" stroke-width="1.52" stroke-linecap="round" stroke-linejoin="round"/>
<path d="M1685.34,763.95L1683.48,764L1684.07,762.72L1685.61,762.26L1686.25,763.09L1685.34,763.95Z" fill-rule="evenodd" fill="#4682b4" fill-opacity="0.471"/>
<polyline points="1685.34,763.95 1683.48,764 1684.07,762.72 1685.61,762.26 1686.25,763.09 1685.34,763.95" fill="none" stroke="#1e1e1e" stroke-width="1.52" stroke-linecap="round" stroke-linejoin="round"/>
<path d="M1667.33,450.47L1666.09,450.08L1666.07,449.24L1667.91,449.19L1668.49,447.91L1669.71,447.88L1669.14,449.58L1667.33,450.47Z" fill-rule="evenodd" fill="#4682b4" fill-opacity="0.471"/>
<polyline points="1667.33,450.47 1666.09,450.08 1666.07,449.24 1667.91,449.19 1668.49,447.91 1669.71,447.88 1669.14,449.58 1667.33,450.47" fill="none" stroke="#1e1e1e" stroke-width="1.52" stroke-linecap="round" stroke-linejoin="round"/>
<text x="887.1" y="645.15" font-family="sans-serif" font-size="14" stroke="#ffffff" stroke-opacity="0.784" stroke-width="2.33" stroke-linejoin="round" paint-order="stroke" fill="#141414">Bulgaria</text>
</svg>
