<?xml version="1.0" encoding="UTF-8" standalone="no"?>
<svg xmlns="http://www.w3.org/2000/svg" width="2000" height="1286" viewBox="0 0 2000 1286">
<rect width="2000" height="1286" fill="#ffffff"/>
<polyline points="1686.52,763.11 1683.34,764.04 1684.59,762.28 1686.52,763.11" fill="none" stroke="#1e1e1e" stroke-width="1.52" stroke-linecap="round" stroke-linejoin="round"/>
<polyline points="1946.43,147.76 1946.45,148.28" fill="none" stroke="#1e1e1e" stroke-width="1.52" stroke-linecap="round" stroke-linejoin="round"/>
<polyline points="1946.5,149.58 1946.59,151.94" fill="none" stroke="#1e1e1e" stroke-width="1.52" stroke-linecap="round" stroke-linejoin="round"/>
<polyline points="1946.62,152.92 1946.05,153.56 1946.67,154.01" fill="none" stroke="#1e1e1e" stroke-width="1.52" stroke-linecap="round" stroke-linejoin="round"/>
<polyline points="1946.71,155.13 1946.89,159.99" fill="none" stroke="#1e1e1e" stroke-width="1.52" stroke-linecap="round" stroke-linejoin="round"/>
<polyline points="1946.95,161.67 1944.96,162.79 1945.79,164.97 1944.73,163.91 1943.64,164.99 1944.73,165.6 1944.46,166.11 1943.16,164.95 1942.04,166.35 1942.82,170.84 1941.15,178.34 1942.31,179.05 1942.02,180.74 1945.6,183.27 1941.92,181.5 1941.1,178.95 1938.2,182.41 1932.18,180.4 1931.31,182.52 1928.71,178.4 1927.01,179.3 1926.69,182.03 1924.85,179.85 1922.92,180.75 1922.42,178.69 1920.01,178.48 1922.15,179.29 1922.72,181.53 1924.23,180.62 1926.32,182.88 1928.2,182.1 1927.84,180.17 1928.93,180.04 1930.55,184.83 1932.63,183.69 1932.56,181.91 1937.43,183.36 1938.7,184.38 1938.25,185.77 1940.16,186.4 1943.52,183.27 1941.93,187.28 1939.56,188.32 1940.51,191.73 1938.19,200.98 1939.93,207.9 1938.14,215.49 1940.07,222.18 1939.76,224.79 1936.78,226.61 1935.84,230.1 1937.89,244.23 1941.45,251.62 1939.58,255 1940.28,259.38 1938.59,266.12 1941.92,275.65 1950.18,286.53 1951.71,290.15" fill="none" stroke="#1e1e1e" stroke-width="1.52" stroke-linecap="round" stroke-linejoin="round"/>
<polyline points="1951.8,292.56 1949.07,304.24 1946.3,308.78 1944.24,316.05 1939.37,324.02 1937.58,330.23 1929.64,341.66 1925.14,345.65 1920.3,347.2 1912.18,359.58 1911.01,368.88 1909.3,363.51 1906.09,360.45 1894.33,357.56 1886.74,351.22 1876.95,348.79 1876.8,347.77 1874.91,349.22 1867.73,346.38 1862.3,346.23 1855.5,348.94 1852.01,348.69 1845.88,351.04 1844.11,353.17 1840.82,352.44 1836.59,355.02 1822.36,356.33 1820.62,353.96 1818.44,355.13 1819.81,353.72 1818.69,353.11 1812.73,354.44 1802.36,363.41 1797.62,365.34 1794.99,369.11 1789.96,382.83 1790.15,388.41 1787.3,392.22 1786.1,398.37 1785.69,397.17 1784.87,398.63 1783.49,408.97 1780.01,416.14 1779.59,420.64 1776.07,422.94 1774.86,430.5 1774.89,429.62 1773.42,430.49 1773.97,431.43 1771.8,433.16 1772.26,432.18 1771.21,431.95 1769.75,433.37 1769.81,434.37 1766.75,434.09 1766.2,432.77 1764.56,433.93 1763.57,432.8 1757.99,436.51 1753.31,436.82 1750.41,439.79 1748.93,439.11 1746.98,442.88 1747.2,446.96 1746.4,443.28 1744.49,443.25 1745.01,444.37 1743.41,443.13 1742.17,443.95 1745.95,445.24 1743.44,445.55 1736.42,441.59 1740.67,445.34 1740.68,446.72 1742.1,445.88 1744.77,446.35 1742.89,448.01 1737.9,447.05 1734.77,443.94 1733.92,444.4 1737.46,447.8 1744.63,449.22 1745.5,452.55 1754.72,453.21 1755.01,454.8 1753.35,468.49 1750.67,471.79 1748.97,478.7 1745.99,499.46 1744.48,502.04 1742.59,502.49 1738.85,509.69 1739.82,526.63 1745.57,555.32 1742.62,560.6 1744.77,573.17 1743.61,579.37 1745.35,587.02 1741.29,587.5 1739.18,593.05 1740.9,604.3 1745.71,621.48 1745.69,623.74 1742.32,629.71 1746.39,643.59 1746.54,651.15 1744.45,652.75 1740.1,651.59 1728.17,652.04 1722.13,650.42 1717.94,652.15 1716.6,650.98 1713.35,651.83 1704.93,650.54 1706.23,650.14 1703.89,649.34 1693.65,649.78 1689.76,655.3 1688.74,665.21 1689.51,667.38 1693.11,670.15 1696.64,669.17 1697.76,669.98 1697.32,670.7 1694.18,672.35 1695.06,671.21 1693.9,670.35 1690.84,671.18 1688.38,676.24 1685.08,673.63 1682.6,673.93 1678.13,680.64 1674.24,679.04 1671.01,680.68 1669.11,679.51 1665.45,685.35 1664.31,693.15 1665.41,705.04 1669.48,712.95 1671.53,714.29 1670.78,715.83 1667.38,716.5 1668.38,715.46 1666.83,713.5 1660.38,710.68 1657.29,711.51 1655.15,713.91 1653.38,711.58 1650.36,711.26 1642.29,717.34 1636.06,713.8 1631.09,714.93 1629.88,717 1629.77,715.69 1629.62,716.76 1628.69,716.3 1624.05,722.21 1621.35,728.37 1619.96,746.87 1618.71,743.84 1615.7,744.4 1618.69,746.05 1618.03,750.5 1618.45,746.1 1616.8,746.13 1615.67,748.99 1614.62,748.54 1615.1,744.81 1613.77,744.25 1612.62,747.18 1611.61,743.59 1608.6,750.4 1608.85,753.67 1611.67,756.18 1609.49,754.72 1607.49,755.43 1609.99,757.33 1610.96,756.51 1610.4,757.53 1614.48,760.32 1615.71,763.06 1618.13,759.99 1616.65,759.14 1618.89,755.34 1622.95,761.76 1628.27,764.89 1628.76,769.35 1632.34,768.16 1633.16,765.95 1635.37,765.21 1634.29,764.37 1635.14,761.86 1637.63,759.74 1635.45,757.8 1637.36,757.31 1636.68,756.69 1644.75,760.98 1649.42,761.16 1651.08,759.93 1650.07,757.69 1648.52,758.33 1651.82,753.64 1652.12,755.62 1656.49,759.96 1661.64,761.67 1664.45,760.36 1664.52,755.89 1665.38,754.95 1667.67,759.65 1672.42,758.55 1671.67,761.09 1672.66,761.53 1671.06,763.52 1673.96,766.82 1671.58,766.87 1670.7,769.75 1674.73,774.55 1680.46,775.67 1680.79,774.35 1683.45,773.56 1683.86,771.06 1685.01,771.34 1685.44,768.47 1683.01,770.63 1685.16,768.17 1688.1,768.59 1686.12,770.89 1688.66,771.1 1687.76,773.06 1689.68,775.62 1691.67,776.61 1693.55,775.12 1694.07,775.84 1696.98,775.06 1695.43,779.24 1691.28,778.91 1690.21,780.71 1690.98,786.24 1695.64,788.18 1691.3,791.74 1692.39,795.63 1696.5,802.13 1697.95,802.38 1698.4,806.83 1701.05,809.33 1704.42,810.04 1706.76,806.52 1708.59,807.1 1710.97,805.29 1711.8,806.93 1712.43,805.69 1714.88,805.62 1713.13,810 1714.4,810.35 1711.03,812.23 1714.24,812.85 1713.32,815.24 1715.53,815.39 1718.25,817.81 1715.77,817.43 1713.67,819.66 1710.45,820.59 1711.79,822.92 1706.19,826.41 1707.35,833.04 1710.19,835.24 1706.14,836.05 1706.26,842.46 1710.74,845.49 1712.04,845.16 1711.77,843.87 1713.8,844.52 1713.95,846.72 1715.89,846.64 1716.33,847.95 1714.13,848.71 1713.87,851.16 1717.68,855.2 1720.62,856.61 1722.81,855.44 1722.36,856.99 1726.74,859.15 1727.47,862.33 1728.93,863.53 1730.43,862.76 1730.2,865.13 1734.12,864.59 1732.67,866.57 1735.85,867.93 1734.8,870.09 1737.68,871.11 1737.41,873.49 1739.99,873.16 1740.08,874.83 1738.07,874.66 1737.83,876.42 1740.01,877.53 1741.02,876.43 1742.67,879.67 1744.83,878.35 1745.8,883.84 1751.66,885.48 1754.33,891.57 1757.1,892.76 1757.59,894.07 1755.89,895.74 1757.53,896.88 1757.67,898.94 1762.46,902.71 1765.01,901.29 1767.08,902.61 1767.92,901.47 1768.75,903.06 1767.28,903.96 1770.66,906.15 1771.17,909.49 1773.91,910.23 1773.08,912.27 1774.83,913.24 1775.52,915.8 1779.47,918.66 1782.54,918.35 1783.12,919.87 1781.27,922.23 1783.16,925.56 1786.55,927.17 1786.44,929.98 1790.35,933.13 1788.88,935.4 1791.16,936.12 1791.71,941.94 1796.33,947.02 1797.34,951.32 1794.84,951.94 1794.6,953.9 1797.11,958.32 1800.35,960.76 1798.9,961.73 1802.05,967.46 1799.96,972.11 1801.54,975.91 1800.78,980.62 1805.33,992.62 1800.83,994.44 1795.66,990.88 1794.39,991.69 1793.5,989.33 1790.73,989.12 1786.17,992.77 1781.99,999.36 1781.42,1012.18 1785.93,1026.14 1794.14,1039.7 1802.19,1048.26 1801.61,1050.08 1803.11,1053.3 1801.64,1055.54 1804.23,1060.6 1808.65,1064.34 1810.61,1069.74 1821.22,1078.38 1823.13,1083.35 1818.55,1085.51 1817.93,1088.25 1820.22,1095.91 1821.48,1096.25 1822.87,1098.71 1821.4,1098.02 1821.05,1098.81 1822.35,1098.51 1826.59,1104.86 1830.58,1107.48 1831.51,1110.05 1835.96,1112.29 1837.44,1118.07 1839.76,1119.88 1843.48,1120.32 1843.97,1122.18 1848.72,1123.15 1850.06,1124.89 1848.29,1126.39 1850.67,1128.39 1850.05,1130.27 1852.25,1130.9 1852.15,1132.71 1854.33,1132.53 1856.53,1136.66 1861.48,1140.18 1861.26,1142.31 1864.79,1142.45 1866.68,1145.42 1873.92,1149.2 1874.65,1151.3 1877.98,1153.74 1952.46,1190.45 1971.21,1198.16 1985.62,1206" fill="none" stroke="#1e1e1e" stroke-width="1.52" stroke-linecap="round" stroke-linejoin="round"/>
</svg>
