<?xml version="1.0" encoding="UTF-8" standalone="no"?>
<svg xmlns="http://www.w3.org/2000/svg" width="1347" height="2000" viewBox="0 0 1347 2000">
<rect width="1347" height="2000" fill="#ffffff"/>
<polyline points="199.84,1986.6 200.13,1983.42 203.81,1979.33 208.46,1976.56 212.9,1969.78 217.25,1967.82 220.45,1964.44 223.56,1958.14 223.4,1957.07 221.24,1957.01 221.22,1955.55 221.31,1956.99 221.82,1956.12 222.37,1956.98 222.67,1956.04 222.73,1957.02 223.39,1957.02 223.31,1955.38 222.59,1955.1 223.61,1954.72 223.52,1952.7 225.84,1951.22 226.83,1949.16 231.11,1946.63 232.29,1942.15 233.36,1942.15 235.46,1940.02 235.49,1935.77 233.7,1928 227.41,1909.83 228.11,1906.97 229.96,1906.21 231.49,1904.15 233.04,1897 232.83,1888.16 231.64,1882.17 232.01,1879.52 229.58,1871.24 230.1,1869.45 232.27,1869.1 233.75,1867.72 235.76,1867.84 237.9,1865.48 237.55,1862.5 238.2,1861.06 237.21,1852.96 238.71,1849.59 237.03,1838.04 238.31,1836 238.19,1827.57 239.45,1825.71 241.29,1818.82 242.41,1809.36 244.97,1804.54 244.19,1800.77 247.28,1799.02 247.82,1792.72 250.65,1787.53 248.69,1779.9 250.14,1773.49 251.29,1773.34 251.76,1771.31 251.36,1767.19 252.32,1763.62 253.24,1763.77 252.64,1763.36 252.86,1761.42 256.27,1754.05 260.5,1751.64 261.56,1749.91 262.8,1743.51 263.63,1742.77 263.08,1739.73 264.86,1738.03 259.92,1726.95 256.16,1715.5 252.71,1708.85 253.15,1707.93 251.36,1704.4 251.96,1705.24 251.69,1702.49 249.34,1698.43 224.97,1671.39 208.71,1659.08 206.92,1656.9 206.13,1649.69 207.06,1651.08 207.13,1649.62 207.56,1651.28 209.52,1645.69 208.78,1641.29 197.78,1620.63 189.54,1609.59 190.66,1611.11 192.3,1611.52 197.52,1615.73 200.61,1613.31 201.22,1610.65 200.7,1608.92 203.28,1603.56 205.58,1602.98 211.12,1606.85 211.89,1608.32 213.22,1608.61 215.98,1608.05 217.81,1605.67 219.89,1605.51 220.75,1603.34 217.95,1601.73 217.4,1600.47 218.49,1599.65 216.83,1598.89 214.14,1595.51 214.66,1594.64 216.21,1595.16 218.51,1594.26 217.68,1589.45 214.74,1590.8 211.35,1590.87 206.94,1590.59 205.22,1589.3 205.06,1585.44 206.93,1586.22 207.03,1583.06 209.81,1579.32 209.94,1575.67 208.39,1573.8 207.73,1575.1 204.81,1575.42 205.56,1576.05 205.4,1577.26 197.88,1579.48 194.45,1577.58 190.81,1576.91 190.78,1575.69 188.93,1575.63 188.04,1574.54 187.72,1577.9 188.53,1578.95 189.39,1584.65 188.4,1586.74 183.88,1586.27 181.99,1584.53 176.73,1586.26 173.56,1593.55 177.13,1593.82 178.84,1595.5 172.16,1598.83 168.4,1599.75 161.32,1597.7 154.97,1593.89 149.62,1588.79 148.46,1584.55 146.76,1584.05 146.04,1584.69 143.74,1583.78 144.24,1586.13 141.79,1586.22 140.85,1587.72 141.15,1588.79 139.35,1589.84 137.72,1588.56 138.21,1587.67 137.35,1586.15 135.48,1586.58 134.85,1585.45 135.23,1587.87 134.14,1588.26 132.91,1585.95 134.15,1583.68 132.92,1580.16 133.81,1580.2 134.13,1579.31 132.37,1577.83 123.71,1578.37 123.17,1577.12 121.33,1577.03 120.12,1578.22 121.01,1579.09 120.07,1578.17 119.77,1579.13 118.63,1577.59 117.41,1577.95 115.81,1577.09 112.3,1573.24 103.17,1568.66 102.43,1567.57 100.51,1568 99.99,1566.41 98.16,1566.07 95.73,1563.18 93.93,1562.77 95.86,1559.32 95.57,1553.52 97.72,1548.91 96.93,1546.87 97.51,1545.99 95.22,1541.38 92.28,1538.05 86.67,1534.84 86.22,1532.51 83.44,1529.81 84.97,1523.8 84.05,1519.67 79.61,1515.23 77.73,1508.85 77.71,1506.06 78.72,1506.5 77.59,1504.56 80.85,1500.62 79.73,1497.38 83.81,1492.69 85.3,1488.87 88.54,1486.33 86.97,1484.71 84.35,1486.83 81.04,1492.58 78.47,1490.8 78.62,1479.31 77.21,1477.35 76.51,1478.27 74.82,1477.1 70.81,1471.66 71.27,1469.83 69.55,1471.81 67.45,1470.13 68.95,1461.74 66.35,1462.47 64.89,1464.83 59.66,1466.11 57.82,1467.58 54.55,1467.55 53.07,1462.59 57.25,1454.92 58.18,1450.94 57.63,1449.56 60.18,1448.53 60.18,1447.59 59.51,1446.92 57.21,1447.34 59.53,1447.19 60.01,1448.32 57.41,1449.45 57.64,1451.7 55.41,1456.62 53.87,1457.71 52.11,1462.29 53.77,1467.89 57.22,1468.75 57.52,1473.07 63.45,1483.64 63.49,1484.99 61.27,1486.7 58.3,1486.93 54.59,1482.57 49.75,1480.75 47.63,1478.71 48.29,1478.82 46.85,1473.71 43.32,1466.77 43.12,1464.37 38.12,1460.36 37.35,1454.13 40.96,1454.39 41.25,1451.85 42.54,1450.2 43.25,1450.52 42.56,1450.02 40.94,1451.46 40.73,1450.72 43.04,1446.99 40.7,1449.62 40.62,1454.06 36.95,1452.94 36.39,1454.18 35.59,1461.11 38.66,1464.82 39.83,1467.84 41.08,1479.41 42.49,1483.6 44.78,1485.22 48.38,1485.77 52.72,1491.05 50.38,1493.36 43.36,1495.55 22.54,1494.88 24.93,1491.54 25.96,1487.93 25.24,1485.83 22.72,1485 21.9,1483.38 23.65,1482.55 23.78,1481.73 22.42,1481.06 22.11,1479.45 19.64,1477 22.88,1474.2 26.81,1472.49 27.54,1471.2 24.5,1465.43 25.34,1462.2 22.08,1460.5 23.98,1459.92 23.93,1458.93 21.51,1456.25 21.08,1454.12 21.66,1452.62 20.48,1452.19 19.4,1453.02 18.4,1451.98 16.76,1452.85 18.09,1456.21 16.06,1457.34 14.2,1457.03 14.33,1459.1 12.53,1459.38" fill="none" stroke="#1e1e1e" stroke-width="1.24" stroke-linecap="round" stroke-linejoin="round"/>
<polyline points="131.32,1583.63 130.56,1584.71 130.74,1583.17 131.32,1583.63" fill="none" stroke="#1e1e1e" stroke-width="1.24" stroke-linecap="round" stroke-linejoin="round"/>
<polyline points="62.83,1620.41 64.36,1622.03 66.1,1620.89 70.24,1621.75 70.71,1621 74.07,1621.05 77.46,1619.43 80.34,1620.2 80.82,1621.49 82.12,1621.74 82.3,1623.11 82.96,1623.1 84.37,1627.72 85.33,1627.59 85.97,1628.58 86.66,1636.93 85.51,1642.24 80.62,1647.14 79.45,1650.55 74.47,1655.86 68.78,1668.5 67.32,1669.64 65.58,1672.85 64.31,1673.28 64.22,1676.26 63.44,1677.19 64.51,1677.95 62.06,1680.13 61.6,1681.75 56.53,1684.1 56.17,1685.11 57.47,1687.28 57.82,1691.56 55.94,1697.44 47.35,1705.95 44.75,1709.98 44.91,1711.49 40.65,1715.66 35.55,1712.29 31.56,1710.87 31.23,1711.71 30.25,1711.5 26.14,1708.93 22.4,1709.01 20.56,1710.27 14.42,1707.6 10.39,1707.18" fill="none" stroke="#1e1e1e" stroke-width="1.24" stroke-linecap="round" stroke-linejoin="round"/>
<polyline points="10.71,1670.09 12.89,1670.88 17.93,1670.39 20.34,1672.03 23.66,1670.66 25.76,1664.58 23.52,1662.82 23.2,1661.57 24.51,1659.26 27.97,1656.64 30.14,1653.56 29.51,1651.42 30.4,1648.64 30.49,1636.4 32.44,1635.13 32.75,1633.91 38.75,1627.33 40.46,1623.87 42.34,1622.56 41.94,1621.26 42.81,1621.49 44.11,1617.76 48.29,1615.7 50.93,1616.99 49.86,1618.57 51.48,1621.02 53.48,1619.9 53.51,1620.73 54.43,1620.13 58.65,1621.27 58.33,1620.31 60.13,1620.8 60.09,1619.67 61.43,1620.9 62.83,1620.41" fill="none" stroke="#1e1e1e" stroke-width="1.24" stroke-linecap="round" stroke-linejoin="round"/>
<polyline points="19.09,1477.02 21.9,1479.37 22.38,1481.22 23.52,1481.61 23.6,1482.37 21.74,1483.37 22.5,1485.01 25.34,1486.5 25.6,1488.23 23.39,1489.13 20.76,1492.03 18.27,1493.46 15.24,1492.72 13.85,1491.49 12.31,1484.7" fill="none" stroke="#1e1e1e" stroke-width="1.24" stroke-linecap="round" stroke-linejoin="round"/>
<polyline points="12.32,1483.47 15.6,1483.05 16.46,1482.26 16.98,1478.95 19.09,1477.02" fill="none" stroke="#1e1e1e" stroke-width="1.24" stroke-linecap="round" stroke-linejoin="round"/>
<polyline points="65.36,1497.51 67.15,1498.94 66.27,1497.38 67.53,1497.23 68.87,1494.4 69.72,1494.07 69.74,1496.24 68.04,1498.67 70.37,1497.06 70.89,1497.59 65.77,1501.46 65.36,1497.51" fill="none" stroke="#1e1e1e" stroke-width="1.24" stroke-linecap="round" stroke-linejoin="round"/>
<polyline points="23.72,1472.07 20.26,1474.12 19.11,1473.69 19.2,1475.04 15.29,1477.64 12.41,1473.25" fill="none" stroke="#1e1e1e" stroke-width="1.24" stroke-linecap="round" stroke-linejoin="round"/>
<polyline points="12.41,1473.17 14.89,1467.06 15.09,1464.4 18.79,1464.74 20.38,1465.65 19.51,1467.52 20.21,1467.7 19.74,1468.38 20.74,1470.61 23.72,1472.07" fill="none" stroke="#1e1e1e" stroke-width="1.24" stroke-linecap="round" stroke-linejoin="round"/>
<polyline points="61.97,1474.27 61.45,1472.15 59.02,1472.44 58.45,1468.04 59.81,1466.86 65.77,1465.18 67.2,1462.89 66.67,1470.59 72.12,1478.1 75.62,1486.42 75.69,1487.75 74.83,1487.96 75.72,1488.04 75.53,1488.75 73.79,1488.57 71.06,1486.73 70.52,1484.37 69.77,1484.49 65.55,1480.66 66.07,1479.16 63.54,1478.23 63.78,1476.74 65.19,1477.65 66.15,1477.3 66.62,1478.41 67.17,1477.64 67.83,1478.14 67.75,1476.86 66.95,1478.32 66.35,1478.03 67.1,1475.27 66.4,1477.28 65.27,1477.48 63.97,1476.51 65.26,1475.49 64.31,1476.63 62.14,1474.47 65.36,1473.01 61.97,1474.27" fill="none" stroke="#1e1e1e" stroke-width="1.24" stroke-linecap="round" stroke-linejoin="round"/>
<polyline points="17.44,1461.65 18.95,1460.32 19.66,1460.56 20.02,1463.46 17.39,1464.16 17.44,1461.65" fill="none" stroke="#1e1e1e" stroke-width="1.24" stroke-linecap="round" stroke-linejoin="round"/>
<polyline points="61.17,1472.1 61.97,1474.57 63.79,1476.28 63.38,1478.34 65.87,1479.35 65.47,1479.78 63.46,1479.06 59.09,1472.62 61.17,1472.1" fill="none" stroke="#1e1e1e" stroke-width="1.24" stroke-linecap="round" stroke-linejoin="round"/>
<polyline points="19.46,1464.83 21.23,1461.27 24.89,1462.23 24.05,1465.93 26.55,1470.01 26.51,1471.4 24.22,1471.76 20.94,1470.34 20.32,1467.54 19.69,1467.56 20.63,1465.79 19.46,1464.83" fill="none" stroke="#1e1e1e" stroke-width="1.24" stroke-linecap="round" stroke-linejoin="round"/>
<polyline points="73.5,1479.27 74.38,1479.54 74.98,1481.91 74.08,1481.84 73.5,1479.27" fill="none" stroke="#1e1e1e" stroke-width="1.24" stroke-linecap="round" stroke-linejoin="round"/>
</svg>
