<?xml version="1.0" encoding="UTF-8" standalone="no"?>
<svg xmlns="http://www.w3.org/2000/svg" width="1304" height="2000" viewBox="0 0 1304 2000">
<rect width="1304" height="2000" fill="#ffffff"/>
<path d="M49.52,1113.03L55.77,1108.9L55.59,1101.32L53.98,1099.69L53.77,1098.34L62.1,1091.08L64.8,1091.87L69.73,1088.32L69.68,1085.39L67.83,1078.5L67.77,1071.04L76.74,1050.71L89.82,1035.6L122.16,990.1L140.19,966.39L167.17,939.54L274.17,826.23L276.84,773.08L288.88,595.99L308.34,455.27L336.99,404.15L300.46,361.21L295.79,358.93L289.33,352.82L287.25,346.66L287.48,338.31L290.55,332.71L295.52,329.71L257.17,268.94L248.01,262.52L248.12,200.67L227.92,76.93L341.82,17.34L673.83,189.24L986.12,355.31L1259.75,503.14L1271.17,968.26L1265.69,965.83L1261.81,965.8L1248.78,962.2L1231.43,959.67L1218.28,960.82L1213.73,962.39L1200.24,969.78L1191.66,970.33L1186.45,968.73L1181.4,969.2L1177.84,967.81L1168.44,968.01L1166.56,968.41L1162.56,974.36L1159.08,976.51L1157.73,979.83L1155.4,981.22L1153.57,983.83L1146.46,987.27L1145.09,989.37L1145.64,993.64L1144.39,995.86L1144.53,997.21L1146,999.74L1150.3,1002.84L1153.44,1006.93L1152.91,1009.63L1153.36,1014.88L1155.07,1017.9L1153.02,1021.48L1152.85,1024.42L1155.13,1026.58L1155.27,1027.8L1154.93,1028.54L1153.17,1028.82L1152.41,1032.13L1150.91,1033.87L1147.17,1035.53L1146.39,1037.87L1148,1042L1147.56,1043.72L1145.7,1044.97L1141.11,1045.43L1139.13,1047.06L1137.77,1049.77L1133.33,1052.06L1130.92,1056.01L1125.92,1060.26L1125.77,1064.67L1127.13,1067.82L1125.26,1069.08L1121.13,1069.4L1116.25,1073.52L1117.25,1083.28L1120.89,1094.46L1093.48,1102.53L1085.64,1107.19L1083.8,1110.4L1083.18,1115.67L1090.1,1119.21L1090.96,1120.79L1091.4,1132.52L1094.08,1137.24L1090.12,1140.97L1090.67,1145L1091.65,1147.3L1093.82,1149.22L1104.39,1150.87L1105.96,1159.15L1104.4,1164.44L1097.55,1165.78L1094.15,1168.29L1090.44,1173.12L1086.05,1173.19L1080.68,1177.93L1076.3,1178.49L1075.25,1179.98L1066.9,1184.03L1049.46,1207.17L1056.09,1213.3L1055.48,1219.79L1058.05,1224.77L1065.64,1230.64L1066.61,1232.21L1067.64,1244.18L1069.49,1248.18L1075.2,1255.18L1075.13,1258.61L1066.98,1269.26L1062.29,1273.98L1059.63,1279.04L1052.41,1281.72L1049.71,1283.97L1043.18,1285.66L1039.92,1290.23L1037.56,1291.86L1034.05,1296.07L1033.4,1300.36L1030.23,1303.96L1028.49,1307.41L1022.99,1322.66L1019.56,1324.79L1019.23,1326.63L1022.5,1330.13L1024.42,1330.71L1024.49,1335.48L1026.79,1337.53L1029.24,1341.78L1031.28,1342.73L1033.47,1345.26L1035.99,1346.21L1044.48,1347.06L1058.41,1344.51L1061.36,1342.39L1068.02,1333.1L1081.54,1342.3L1097.39,1347.9L1090.75,1364.54L1087.81,1367.28L1093.8,1374.77L1094.26,1380.63L1102.41,1402.28L1102.71,1406.07L1099.97,1420.32L1104.14,1419.39L1106.97,1416.77L1110.33,1417.2L1114.01,1415.42L1116.31,1416.85L1118.07,1414.86L1119.39,1414.96L1115.97,1424.57L1112.17,1446.07L1109.73,1463.87L1110.17,1468.4L1111.78,1471.55L1120.75,1482.91L1126.45,1485.87L1136.96,1489.22L1138.31,1491.16L1138.89,1496.54L1155.67,1494.5L1158.07,1506.71L1160.8,1510.7L1161.46,1519.75L1158.48,1527.41L1157.89,1534.04L1155.64,1536.17L1154.5,1539.38L1150.83,1554.78L1149.76,1555.41L1143.23,1554.06L1139.38,1554.26L1137.16,1551.36L1129.21,1550.89L1126.9,1549.71L1123.3,1550.27L1116.88,1547.93L1114.74,1549.2L1108.36,1549.31L1106.51,1546.89L1104.36,1547.91L1100.13,1546.51L1097.14,1547.67L1093.6,1551.77L1089.15,1552.09L1083.64,1553.9L1079.59,1556.55L1078.18,1558.53L1074.32,1557.86L1072.45,1561.2L1070.53,1561.72L1068.87,1563.46L1068.68,1566.41L1066.8,1569.63L1060.89,1568.86L1057.13,1567.45L1050.76,1568.04L1046.12,1572.04L1046.21,1577.8L1045.16,1580.39L1039.26,1580.36L1034.11,1582.64L1032.68,1583.77L1031.76,1586.36L1028.17,1588.49L1026.73,1588.51L1024.66,1587.19L1022.49,1587.35L1018.9,1588.75L1017,1590.98L1011.47,1592.16L1011.18,1597.44L1009.66,1601.02L1009.51,1607.52L1011.27,1612.41L1014.21,1615.43L1015.37,1620.57L1012.77,1625.02L1011.4,1630.81L1012.4,1633.13L1011.7,1634.85L1008.33,1635.64L1006.36,1641.31L1002.52,1643.33L998.19,1644.86L990.58,1644.59L989.02,1645.59L982.71,1652.79L980.47,1656.75L980.27,1660.43L978.74,1663.15L978.52,1665.37L975.77,1667.73L974.96,1670.2L970.65,1674.3L966.32,1676.32L959.04,1673.58L956.63,1674.47L955.09,1677.07L952.09,1679.31L949.02,1685.61L945.88,1686.63L941.57,1690.73L939.79,1693.33L939.81,1695.54L938.4,1699.36L934.19,1701.86L931.15,1700.18L928.16,1703.16L928.2,1707.09L926.28,1708.58L925.33,1710.8L925.95,1712.51L925.01,1714.86L925.75,1716.57L923.22,1717.33L924.34,1720.02L920.82,1720.06L920.48,1722.03L918.19,1723.16L917.01,1726.12L913.66,1730.45L910.41,1732.21L909.34,1734.68L906.45,1736.18L905.26,1738.4L905.9,1741.96L904.82,1743.57L902.27,1742.98L899.14,1744.85L898.44,1747.81L897.35,1748.43L895.41,1748.33L894.09,1749.32L892.26,1748.85L890.94,1750.09L887.43,1750.61L884.91,1753.34L886.28,1757.51L885.68,1758.5L883.61,1757.9L878.4,1758.31L876.69,1756.73L873.42,1757.25L870.86,1755.43L869.44,1760.36L866.17,1760.51L865.45,1761.62L865.84,1765.06L867.68,1767.38L867.82,1769.34L863.94,1769.5L863.7,1770.98L861.05,1773.46L860.71,1775.67L859.15,1777.77L855.27,1778.17L850.56,1781.9L848.12,1780.93L845.34,1782.43L841.57,1780.86L836.11,1781.14L833.42,1778.7L830.5,1778.11L828.08,1779.85L822.63,1781.61L820.81,1780.76L819.21,1777.45L818.11,1776.84L817.4,1779.67L812.9,1778.96L811.58,1781.06L809.04,1781.81L808.93,1784.52L807.72,1784.53L806.61,1782.32L805.88,1782.32L803.96,1785.66L799.71,1786.17L797.9,1788.52L794.38,1787.8L792.69,1790.39L791.84,1790.52L790.74,1789.05L787.83,1790.29L785.64,1789.08L782.49,1789.95L779.45,1789.72L776.91,1791.46L774.84,1790.97L767.08,1793.96L764.04,1792.87L761.86,1793.98L758.21,1792.4L753.35,1792.17L752.13,1790.95L750.44,1791.82L750.08,1793.05L748,1790.84L746.68,1793.43L745.09,1792.08L744.73,1793.44L743.52,1793.19L742.31,1794.3L742.06,1791.85L739.87,1792.84L740.24,1794.07L738.66,1794.81L738.06,1794.57L738.54,1792.96L737.81,1792.48L737.08,1793.46L735.38,1793.47L732.46,1792.37L731.37,1793.97L727.97,1792.14L726.64,1793.86L724.69,1793.25L724.33,1793.87L721.29,1794.37L719.35,1793.64L718.26,1794.38L716.07,1793.89L715.58,1792.29L712.06,1791.81L711.09,1792.43L710.72,1791.07L709.87,1792.18L708.17,1792.06L708.66,1793.05L704.77,1792.69L701.86,1794.78L700.28,1793.92L699.55,1794.42L699.06,1792.82L697.49,1795.04L694.45,1794.55L693.84,1793.44L692.75,1794.06L692.51,1795.54L690.32,1794.31L690.32,1795.66L688.63,1798L687.29,1796.65L686.07,1797.14L687.17,1798.37L685.23,1799.97L684.86,1799.24L683.77,1799.73L682.55,1798.99L681.34,1803.18L678.67,1800.72L678.91,1803.67L678.31,1804.29L674.78,1804.66L674.42,1806.26L673.33,1805.4L672.11,1808.23L669.56,1808.23L669.08,1810.08L667.37,1810.57L667.38,1814.01L669.08,1815L670.42,1813.77L672.24,1813.89L672.97,1819.3L674.19,1819.79L676.25,1818.8L677.84,1819.17L681,1823.35L685.62,1825.19L689.04,1829.62L696.34,1832.81L696.95,1834.53L699.14,1836.25L696.95,1837.23L693.67,1840.32L692.09,1840.57L692.22,1843.03L689.79,1845.86L689.91,1848.32L688.34,1853.86L686.51,1855.22L685.42,1854.73L685.18,1855.59L684.2,1854.98L683.96,1855.72L682.5,1855.72L682.25,1856.21L683.47,1856.83L682.74,1857.2L683.11,1858.3L680.55,1859.29L680.43,1861.51L678.73,1861.51L678.49,1862.74L677.76,1862.49L676.17,1863.97L675.45,1866.68L674.11,1867.18L674.72,1868.04L673.86,1869.15L674.96,1869.76L674.23,1870.13L674.23,1871.36L672.53,1871.36L672.77,1872.1L670.95,1874.44L669.73,1873.83L669.73,1874.94L668.51,1874.94L668.02,1877.03L665.71,1876.54L666.07,1879.13L663.88,1883.32L659.86,1886.89L646.33,1891.69L642.43,1895.02L641.82,1897.24L638.77,1901.67L639.86,1907.83L637.54,1912.63L595.07,1916.4L566.02,1917.8L562.11,1920.62L561.62,1919.75L553.68,1923.92L527.69,1920.85L525.12,1922.31L523.66,1920.83L520.86,1920.57L519.63,1921.67L520.11,1923.52L518.51,1925.49L517.78,1924.99L513.99,1927.31L511.91,1926.44L508.73,1929.13L507.52,1927.15L505.31,1927.88L505.29,1931.95L503.46,1931.44L502.35,1934.4L501.13,1934.27L497.73,1930.92L496.26,1930.66L495.77,1932.26L493.94,1931.88L494.54,1933.24L493.8,1934.35L492.33,1934.34L492.34,1932.73L490.51,1933.71L490.99,1935.19L488.67,1934.31L488.65,1937.4L487.07,1935.91L485.84,1937.26L483.9,1936.26L482.42,1937.85L480.83,1937.72L479.72,1939.93L475.94,1939.41L476.04,1941.51L473.72,1941.74L473.47,1943.46L471.01,1944.68L471.74,1945.79L471.35,1948.87L468.79,1948.86L468.31,1946.88L466.97,1946.75L466.71,1948.22L465.11,1949.57L465.96,1951.06L464.36,1952.65L462.04,1952.51L461.05,1953.73L460.32,1952.99L459.71,1953.35L459.09,1955.08L459.81,1956.44L458.34,1957.41L458.45,1959.02L454.65,1959.48L453.21,1956.14L451.5,1956.13L451.02,1955.02L449.18,1956.6L450.5,1959.57L448.17,1959.8L447.06,1961.03L444.75,1960.27L443.99,1962.73L440.08,1963.07L436.91,1962.18L436.53,1963.29L435.06,1963.52L433.98,1961.91L430.29,1964.1L430.15,1966.19L426.37,1964.93L426.48,1966.16L427.7,1966.91L425.71,1969.98L427.91,1970.86L427.9,1972.22L426.17,1973.32L425.08,1972.57L425.58,1971.83L423.01,1972.05L422.5,1974.15L420.42,1974.38L419.67,1975.6L416.01,1974.83L415.66,1973.1L414.08,1971.73L414.11,1968.89L411.93,1966.03L406.71,1962.41L405.6,1962.89L404.39,1962.14L401.09,1962.23L399.65,1958.76L398.07,1958.13L397.76,1952.09L398.75,1950.62L398.28,1949.13L395.61,1947.26L393.17,1946.62L391.82,1947.22L389.76,1945.59L389.43,1942.02L390.04,1941.9L388.72,1939.42L389.47,1938.44L388.51,1936.21L389.88,1933.88L389.9,1931.91L388.3,1933.25L385.36,1933.34L385.1,1935.19L383.52,1934.93L381.91,1936.39L380.08,1936.13L379.32,1939.57L377.35,1940.91L377.45,1942.51L376.59,1943.36L372.31,1943.56L372.69,1941.97L370.51,1940.96L368.88,1944.27L367.28,1945.48L368.84,1948.21L367.6,1950.05L368.31,1951.54L369.53,1951.8L369.28,1952.53L364.46,1957.79L360.9,1958.86L360.17,1958.23L359.31,1959.33L358.46,1958.83L355.02,1960.39L353.68,1959.89L350.46,1963.3L348.5,1963.4L348,1964.88L345.54,1965.84L341.4,1964.55L339.56,1965.02L337.45,1967.1L330.23,1967.38L324.34,1969.03L322.6,1971.23L322.08,1974.43L320.6,1974.91L318.48,1977.84L314.17,1980.63L308.78,1981.05L306.07,1982.5L293.91,1985.54L292.71,1983.8L289.54,1982.77L288.56,1983.37L287.24,1981.25L286.14,1981.11L283.99,1977.51L284.01,1975.78L261.86,1976.45L255.28,1974.62L257.38,1973.54L258.14,1971.95L260.6,1970.5L264.46,1966.12L263.76,1964.01L265.62,1962.31L266.13,1960.47L265.43,1958.36L267.3,1956.05L267.28,1948.77L266.69,1947.65L267.7,1945.08L267.23,1944.08L257.37,1941.72L250.95,1930.15L244.18,1910.08L244.39,1904.29L221.45,1852.43L218.81,1850.54L215.98,1844.96L215.68,1840.76L210.65,1836.13L210.68,1834.16L204.77,1831.35L201.48,1831.78L200.04,1830.65L195.3,1830.2L196.35,1825.54L194.92,1823.79L191.31,1821.64L188.51,1822.08L186.58,1820.94L188.32,1818.88L186.16,1817.24L185.36,1814.52L182.21,1813.6L180.98,1814.56L180.02,1814.05L179.88,1814.91L178.79,1814.77L145.6,1789.29L136.48,1783.7L133.34,1776.63L126.5,1772.43L119.84,1765.91L119.76,1763.81L121.5,1762L122.05,1758.82L123.17,1757.24L122.86,1754.66L118.66,1752.36L115.17,1745.28L114.57,1744.65L110.29,1746.28L106.28,1741.04L105.6,1738.56L103.57,1737.29L102.64,1735.31L100.82,1735.64L99.44,1731.92L96.24,1728.29L93.71,1727.99L90.71,1726.2L89.35,1722.12L87.42,1721.46L82.85,1714.48L81.64,1714.58L80.09,1713.19L78.75,1713.41L75.66,1711.13L81.35,1700.2L94.78,1689.19L100.08,1678.98L104.45,1667.04L135.39,1667.68L176.21,1676.68L195.18,1671.13L200.34,1673.31L204.21,1673.5L207.43,1675.89L213.03,1673.65L213.56,1671.33L218.17,1670.18L221.91,1671.1L225.66,1670.67L226.25,1671.41L230.25,1670.87L244.34,1674.9L250.21,1678.18L263.43,1676.05L283.45,1671.31L283.58,1670.57L274.48,1664.43L271.58,1664.26L270.77,1661.79L268.22,1662.49L264.79,1657.9L262.36,1658.23L260.68,1657.59L255.6,1650.03L254.44,1646.7L250.03,1643.07L249.93,1641.47L248.62,1640.72L248.4,1639.36L244.21,1636.72L242.58,1633.26L237.54,1631.34L237.34,1628.51L235.9,1627.87L236.05,1626.16L234.86,1625.04L235.05,1620.5L230.69,1614.17L230.62,1611.35L228.11,1609.96L227.29,1608.23L225.48,1608.32L224.3,1606.58L221.78,1605.8L218.82,1602.56L219.35,1599.87L218.68,1596.8L220.39,1594.99L221.04,1592.67L220.21,1591.79L220.12,1589.83L217.87,1587.09L217.93,1583.91L213.57,1577.82L211.25,1572.51L210.12,1568.2L210.77,1565.51L213.48,1562.25L213.51,1560.16L211.96,1552.05L209.36,1549.55L209.62,1548.2L207.97,1546.09L208.85,1544.27L207.9,1543.52L208.63,1542.67L209.1,1543.41L211.15,1543.45L212,1542.61L213.57,1542.63L213.87,1538.96L215.85,1535.81L214.21,1533.2L214.21,1526.1L212.9,1525.34L211.04,1521.87L209.89,1518.3L210.9,1515.87L210.22,1513.53L208.8,1512.28L212.02,1506.69L209.06,1503.95L211.51,1501.29L210.01,1497.72L210.74,1496.87L210.28,1495.76L212.62,1492.49L212.28,1491.51L213.48,1491.4L215.58,1487.89L215.12,1486.65L216.44,1486.55L216.83,1484.84L219.49,1483.79L219.15,1482.43L220.25,1481.23L220.91,1478.05L215.68,1474.78L215.85,1471.6L214.08,1470.1L214.34,1468.75L213.16,1467.75L214.04,1465.69L212.86,1464.07L213.73,1462.37L211.62,1459.64L213.59,1456.49L216.7,1457.16L215.66,1454.93L213.99,1454.17L213.65,1453.19L215.23,1451.62L217.4,1451.41L218.86,1449.72L216.61,1448.09L215.68,1446.36L215.51,1442.44L213.61,1441.43L211.78,1443.36L209.91,1440.39L210.29,1439.17L209.04,1435.1L211.34,1433.8L211.97,1431.97L210.13,1427.9L211.35,1426.45L213.61,1427.22L214.86,1424.55L214.27,1423.56L211.41,1423.14L209.3,1420.17L211.47,1419.59L211.99,1417.15L208.93,1414.04L209.33,1411.35L205.18,1409.2L203.6,1410.52L204.3,1412L203.91,1413.22L201.05,1412.56L198.8,1411.17L191.28,1403.57L191.66,1402.47L194.32,1400.93L192.19,1399.18L193.45,1395.89L192.18,1393.42L193.92,1389.66L192.43,1386.21L194.4,1382.81L193.36,1380.96L194.5,1377.31L193.71,1374.48L190.69,1369.77L191.1,1367.09L190.51,1366.34L189.31,1366.44L188.93,1368.03L187.85,1368.25L186.92,1366.64L186.94,1365.42L188.64,1363.86L188.56,1361.9L187.51,1360.29L188.47,1353.7L185.63,1345.57L178.7,1345.81L177.54,1343.95L177.6,1340.9L176.08,1339.28L174.52,1339.37L173.27,1342.41L171.48,1342.74L170.57,1340.15L173.01,1337.51L172.81,1335.3L169.73,1334.14L166.6,1335.18L163.43,1332.8L160.57,1332.25L161.58,1329.58L161,1328.47L157.48,1331.83L155.84,1330.08L155.42,1327.14L153.02,1327.95L152.23,1325.48L154.47,1320.63L153.23,1317.06L153.87,1314.99L155.43,1314.53L154.37,1313.54L154.19,1310.47L153.02,1309.47L152.93,1308.25L152.09,1308.35L151.16,1307.23L143.39,1290.32L97.65,1289.37L45.87,1211.74L29.82,1129.79L29.07,1121.46L29.83,1119.4L32.37,1117.26L40.97,1114.05L44.39,1114.62L49.52,1113.03Z" fill-rule="evenodd" fill="#4682b4" fill-opacity="0.471"/>
<polyline points="49.52,1113.03 55.77,1108.9 55.59,1101.32 53.98,1099.69 53.77,1098.34 62.1,1091.08 64.8,1091.87 69.73,1088.32 69.68,1085.39 67.83,1078.5 67.77,1071.04 76.74,1050.71 89.82,1035.6 122.16,990.1 140.19,966.39 167.17,939.54 274.17,826.23 276.84,773.08 288.88,595.99 308.34,455.27 336.99,404.15 300.46,361.21 295.79,358.93 289.33,352.82 287.25,346.66 287.48,338.31 290.55,332.71 295.52,329.71 257.17,268.94 248.01,262.52 248.12,200.67 227.92,76.93 341.82,17.34 673.83,189.24 986.12,355.31 1259.75,503.14 1271.17,968.26 1265.69,965.83 1261.81,965.8 1248.78,962.2 1231.43,959.67 1218.28,960.82 1213.73,962.39 1200.24,969.78 1191.66,970.33 1186.45,968.73 1181.4,969.2 1177.84,967.81 1168.44,968.01 1166.56,968.41 1162.56,974.36 1159.08,976.51 1157.73,979.83 1155.4,981.22 1153.57,983.83 1146.46,987.27 1145.09,989.37 1145.64,993.64 1144.39,995.86 1144.53,997.21 1146,999.74 1150.3,1002.84 1153.44,1006.93 1152.91,1009.63 1153.36,1014.88 1155.07,1017.9 1153.02,1021.48 1152.85,1024.42 1155.13,1026.58 1155.27,1027.8 1154.93,1028.54 1153.17,1028.82 1152.41,1032.13 1150.91,1033.87 1147.17,1035.53 1146.39,1037.87 1148,1042 1147.56,1043.72 1145.7,1044.97 1141.11,1045.43 1139.13,1047.06 1137.77,1049.77 1133.33,1052.06 1130.92,1056.01 1125.92,1060.26 1125.77,1064.67 1127.13,1067.82 1125.26,1069.08 1121.13,1069.4 1116.25,1073.52 1117.25,1083.28 1120.89,1094.46 1093.48,1102.53 1085.64,1107.19 1083.8,1110.4 1083.18,1115.67 1090.1,1119.21 1090.96,1120.79 1091.4,1132.52 1094.08,1137.24 1090.12,1140.97 1090.67,1145 1091.65,1147.3 1093.82,1149.22 1104.39,1150.87 1105.96,1159.15 1104.4,1164.44 1097.55,1165.78 1094.15,1168.29 1090.44,1173.12 1086.05,1173.19 1080.68,1177.93 1076.3,1178.49 1075.25,1179.98 1066.9,1184.03 1049.46,1207.17 1056.09,1213.3 1055.48,1219.79 1058.05,1224.77 1065.64,1230.64 1066.61,1232.21 1067.64,1244.18 1069.49,1248.18 1075.2,1255.18 1075.13,1258.61 1066.98,1269.26 1062.29,1273.98 1059.63,1279.04 1052.41,1281.72 1049.71,1283.97 1043.18,1285.66 1039.92,1290.23 1037.56,1291.86 1034.05,1296.07 1033.4,1300.36 1030.23,1303.96 1028.49,1307.41 1022.99,1322.66 1019.56,1324.79 1019.23,1326.63 1022.5,1330.13 1024.42,1330.71 1024.49,1335.48 1026.79,1337.53 1029.24,1341.78 1031.28,1342.73 1033.47,1345.26 1035.99,1346.21 1044.48,1347.06 1058.41,1344.51 1061.36,1342.39 1068.02,1333.1 1081.54,1342.3 1097.39,1347.9 1090.75,1364.54 1087.81,1367.28 1093.8,1374.77 1094.26,1380.63 1102.41,1402.28 1102.71,1406.07 1099.97,1420.32 1104.14,1419.39 1106.97,1416.77 1110.33,1417.2 1114.01,1415.42 1116.31,1416.85 1118.07,1414.86 1119.39,1414.96 1115.97,1424.57 1112.17,1446.07 1109.73,1463.87 1110.17,1468.4 1111.78,1471.55 1120.75,1482.91 1126.45,1485.87 1136.96,1489.22 1138.31,1491.16 1138.89,1496.54 1155.67,1494.5 1158.07,1506.71 1160.8,1510.7 1161.46,1519.75 1158.48,1527.41 1157.89,1534.04 1155.64,1536.17 1154.5,1539.38 1150.83,1554.78 1149.76,1555.41 1143.23,1554.06 1139.38,1554.26 1137.16,1551.36 1129.21,1550.89 1126.9,1549.71 1123.3,1550.27 1116.88,1547.93 1114.74,1549.2 1108.36,1549.31 1106.51,1546.89 1104.36,1547.91 1100.13,1546.51 1097.14,1547.67 1093.6,1551.77 1089.15,1552.09 1083.64,1553.9 1079.59,1556.55 1078.18,1558.53 1074.32,1557.86 1072.45,1561.2 1070.53,1561.72 1068.87,1563.46 1068.68,1566.41 1066.8,1569.63 1060.89,1568.86 1057.13,1567.45 1050.76,1568.04 1046.12,1572.04 1046.21,1577.8 1045.16,1580.39 1039.26,1580.36 1034.11,1582.64 1032.68,1583.77 1031.76,1586.36 1028.17,1588.49 1026.73,1588.51 1024.66,1587.19 1022.49,1587.35 1018.9,1588.75 1017,1590.98 1011.47,1592.16 1011.18,1597.44 1009.66,1601.02 1009.51,1607.52 1011.27,1612.41 1014.21,1615.43 1015.37,1620.57 1012.77,1625.02 1011.4,1630.81 1012.4,1633.13 1011.7,1634.85 1008.33,1635.64 1006.36,1641.31 1002.52,1643.33 998.19,1644.86 990.58,1644.59 989.02,1645.59 982.71,1652.79 980.47,1656.75 980.27,1660.43 978.74,1663.15 978.52,1665.37 975.77,1667.73 974.96,1670.2 970.65,1674.3 966.32,1676.32 959.04,1673.58 956.63,1674.47 955.09,1677.07 952.09,1679.31 949.02,1685.61 945.88,1686.63 941.57,1690.73 939.79,1693.33 939.81,1695.54 938.4,1699.36 934.19,1701.86 931.15,1700.18 928.16,1703.16 928.2,1707.09 926.28,1708.58 925.33,1710.8 925.95,1712.51 925.01,1714.86 925.75,1716.57 923.22,1717.33 924.34,1720.02 920.82,1720.06 920.48,1722.03 918.19,1723.16 917.01,1726.12 913.66,1730.45 910.41,1732.21 909.34,1734.68 906.45,1736.18 905.26,1738.4 905.9,1741.96 904.82,1743.57 902.27,1742.98 899.14,1744.85 898.44,1747.81 897.35,1748.43 895.41,1748.33 894.09,1749.32 892.26,1748.85 890.94,1750.09 887.43,1750.61 884.91,1753.34 886.28,1757.51 885.68,1758.5 883.61,1757.9 878.4,1758.31 876.69,1756.73 873.42,1757.25 870.86,1755.43 869.44,1760.36 866.17,1760.51 865.45,1761.62 865.84,1765.06 867.68,1767.38 867.82,1769.34 863.94,1769.5 863.7,1770.98 861.05,1773.46 860.71,1775.67 859.15,1777.77 855.27,1778.17 850.56,1781.9 848.12,1780.93 845.34,1782.43 841.57,1780.86 836.11,1781.14 833.42,1778.7 830.5,1778.11 828.08,1779.85 822.63,1781.61 820.81,1780.76 819.21,1777.45 818.11,1776.84 817.4,1779.67 812.9,1778.96 811.58,1781.06 809.04,1781.81 808.93,1784.52 807.72,1784.53 806.61,1782.32 805.88,1782.32 803.96,1785.66 799.71,1786.17 797.9,1788.52 794.38,1787.8 792.69,1790.39 791.84,1790.52 790.74,1789.05 787.83,1790.29 785.64,1789.08 782.49,1789.95 779.45,1789.72 776.91,1791.46 774.84,1790.97 767.08,1793.96 764.04,1792.87 761.86,1793.98 758.21,1792.4 753.35,1792.17 752.13,1790.95 750.44,1791.82 750.08,1793.05 748,1790.84 746.68,1793.43 745.09,1792.08 744.73,1793.44 743.52,1793.19 742.31,1794.3 742.06,1791.85 739.87,1792.84 740.24,1794.07 738.66,1794.81 738.06,1794.57 738.54,1792.96 737.81,1792.48 737.08,1793.46 735.38,1793.47 732.46,1792.37 731.37,1793.97 727.97,1792.14 726.64,1793.86 724.69,1793.25 724.33,1793.87 721.29,1794.37 719.35,1793.64 718.26,1794.38 716.07,1793.89 715.58,1792.29 712.06,1791.81 711.09,1792.43 710.72,1791.07 709.87,1792.18 708.17,1792.06 708.66,1793.05 704.77,1792.69 701.86,1794.78 700.28,1793.92 699.55,1794.42 699.06,1792.82 697.49,1795.04 694.45,1794.55 693.84,1793.44 692.75,1794.06 692.51,1795.54 690.32,1794.31 690.32,1795.66 688.63,1798 687.29,1796.65 686.07,1797.14 687.17,1798.37 685.23,1799.97 684.86,1799.24 683.77,1799.73 682.55,1798.99 681.34,1803.18 678.67,1800.72 678.91,1803.67 678.31,1804.29 674.78,1804.66 674.42,1806.26 673.33,1805.4 672.11,1808.23 669.56,1808.23 669.08,1810.08 667.37,1810.57 667.38,1814.01 669.08,1815 670.42,1813.77 672.24,1813.89 672.97,1819.3 674.19,1819.79 676.25,1818.8 677.84,1819.17 681,1823.35 685.62,1825.19 689.04,1829.62 696.34,1832.81 696.95,1834.53 699.14,1836.25 696.95,1837.23 693.67,1840.32 692.09,1840.57 692.22,1843.03 689.79,1845.86 689.91,1848.32 688.34,1853.86 686.51,1855.22 685.42,1854.73 685.18,1855.59 684.2,1854.98 683.96,1855.72 682.5,1855.72 682.25,1856.21 683.47,1856.83 682.74,1857.2 683.11,1858.3 680.55,1859.29 680.43,1861.51 678.73,1861.51 678.49,1862.74 677.76,1862.49 676.17,1863.97 675.45,1866.68 674.11,1867.18 674.72,1868.04 673.86,1869.15 674.96,1869.76 674.23,1870.13 674.23,1871.36 672.53,1871.36 672.77,1872.1 670.95,1874.44 669.73,1873.83 669.73,1874.94 668.51,1874.94 668.02,1877.03 665.71,1876.54 666.07,1879.13 663.88,1883.32 659.86,1886.89 646.33,1891.69 642.43,1895.02 641.82,1897.24 638.77,1901.67 639.86,1907.83 637.54,1912.63 595.07,1916.4 566.02,1917.8 562.11,1920.62 561.62,1919.75 553.68,1923.92 527.69,1920.85 525.12,1922.31 523.66,1920.83 520.86,1920.57 519.63,1921.67 520.11,1923.52 518.51,1925.49 517.78,1924.99 513.99,1927.31 511.91,1926.44 508.73,1929.13 507.52,1927.15 505.31,1927.88 505.29,1931.95 503.46,1931.44 502.35,1934.4 501.13,1934.27 497.73,1930.92 496.26,1930.66 495.77,1932.26 493.94,1931.88 494.54,1933.24 493.8,1934.35 492.33,1934.34 492.34,1932.73 490.51,1933.71 490.99,1935.19 488.67,1934.31 488.65,1937.4 487.07,1935.91 485.84,1937.26 483.9,1936.26 482.42,1937.85 480.83,1937.72 479.72,1939.93 475.94,1939.41 476.04,1941.51 473.72,1941.74 473.47,1943.46 471.01,1944.68 471.74,1945.79 471.35,1948.87 468.79,1948.86 468.31,1946.88 466.97,1946.75 466.71,1948.22 465.11,1949.57 465.96,1951.06 464.36,1952.65 462.04,1952.51 461.05,1953.73 460.32,1952.99 459.71,1953.35 459.09,1955.08 459.81,1956.44 458.34,1957.41 458.45,1959.02 454.65,1959.48 453.21,1956.14 451.5,1956.13 451.02,1955.02 449.18,1956.6 450.5,1959.57 448.17,1959.8 447.06,1961.03 444.75,1960.27 443.99,1962.73 440.08,1963.07 436.91,1962.18 436.53,1963.29 435.06,1963.52 433.98,1961.91 430.29,1964.1 430.15,1966.19 426.37,1964.93 426.48,1966.16 427.7,1966.91 425.71,1969.98 427.91,1970.86 427.9,1972.22 426.17,1973.32 425.08,1972.57 425.58,1971.83 423.01,1972.05 422.5,1974.15 420.42,1974.38 419.67,1975.6 416.01,1974.83 415.66,1973.1 414.08,1971.73 414.11,1968.89 411.93,1966.03 406.71,1962.41 405.6,1962.89 404.39,1962.14 401.09,1962.23 399.65,1958.76 398.07,1958.13 397.76,1952.09 398.75,1950.62 398.28,1949.13 395.61,1947.26 393.17,1946.62 391.82,1947.22 389.76,1945.59 389.43,1942.02 390.04,1941.9 388.72,1939.42 389.47,1938.44 388.51,1936.21 389.88,1933.88 389.9,1931.91 388.3,1933.25 385.36,1933.34 385.1,1935.19 383.52,1934.93 381.91,1936.39 380.08,1936.13 379.32,1939.57 377.35,1940.91 377.45,1942.51 376.59,1943.36 372.31,1943.56 372.69,1941.97 370.51,1940.96 368.88,1944.27 367.28,1945.48 368.84,1948.21 367.6,1950.05 368.31,1951.54 369.53,1951.8 369.28,1952.53 364.46,1957.79 360.9,1958.86 360.17,1958.23 359.31,1959.33 358.46,1958.83 355.02,1960.39 353.68,1959.89 350.46,1963.3 348.5,1963.4 348,1964.88 345.54,1965.84 341.4,1964.55 339.56,1965.02 337.45,1967.1 330.23,1967.38 324.34,1969.03 322.6,1971.23 322.08,1974.43 320.6,1974.91 318.48,1977.84 314.17,1980.63 308.78,1981.05 306.07,1982.5 293.91,1985.54 292.71,1983.8 289.54,1982.77 288.56,1983.37 287.24,1981.25 286.14,1981.11 283.99,1977.51 284.01,1975.78 261.86,1976.45 255.28,1974.62 257.38,1973.54 258.14,1971.95 260.6,1970.5 264.46,1966.12 263.76,1964.01 265.62,1962.31 266.13,1960.47 265.43,1958.36 267.3,1956.05 267.28,1948.77 266.69,1947.65 267.7,1945.08 267.23,1944.08 257.37,1941.72 250.95,1930.15 244.18,1910.08 244.39,1904.29 221.45,1852.43 218.81,1850.54 215.98,1844.96 215.68,1840.76 210.65,1836.13 210.68,1834.16 204.77,1831.35 201.48,1831.78 200.04,1830.65 195.3,1830.2 196.35,1825.54 194.92,1823.79 191.31,1821.64 188.51,1822.08 186.58,1820.94 188.32,1818.88 186.16,1817.24 185.36,1814.52 182.21,1813.6 180.98,1814.56 180.02,1814.05 179.88,1814.91 178.79,1814.77 145.6,1789.29 136.48,1783.7 133.34,1776.63 126.5,1772.43 119.84,1765.91 119.76,1763.81 121.5,1762 122.05,1758.82 123.17,1757.24 122.86,1754.66 118.66,1752.36 115.17,1745.28 114.57,1744.65 110.29,1746.28 106.28,1741.04 105.6,1738.56 103.57,1737.29 102.64,1735.31 100.82,1735.64 99.44,1731.92 96.24,1728.29 93.71,1727.99 90.71,1726.2 89.35,1722.12 87.42,1721.46 82.85,1714.48 81.64,1714.58 80.09,1713.19 78.75,1713.41 75.66,1711.13 81.35,1700.2 94.78,1689.19 100.08,1678.98 104.45,1667.04 135.39,1667.68 176.21,1676.68 195.18,1671.13 200.34,1673.31 204.21,1673.5 207.43,1675.89 213.03,1673.65 213.56,1671.33 218.17,1670.18 221.91,1671.1 225.66,1670.67 226.25,1671.41 230.25,1670.87 244.34,1674.9 250.21,1678.18 263.43,1676.05 283.45,1671.31 283.58,1670.57 274.48,1664.43 271.58,1664.26 270.77,1661.79 268.22,1662.49 264.79,1657.9 262.36,1658.23 260.68,1657.59 255.6,1650.03 254.44,1646.7 250.03,1643.07 249.93,1641.47 248.62,1640.72 248.4,1639.36 244.21,1636.72 242.58,1633.26 237.54,1631.34 237.34,1628.51 235.9,1627.87 236.05,1626.16 234.86,1625.04 235.05,1620.5 230.69,1614.17 230.62,1611.35 228.11,1609.96 227.29,1608.23 225.48,1608.32 224.3,1606.58 221.78,1605.8 218.82,1602.56 219.35,1599.87 218.68,1596.8 220.39,1594.99 221.04,1592.67 220.21,1591.79 220.12,1589.83 217.87,1587.09 217.93,1583.91 213.57,1577.82 211.25,1572.51 210.12,1568.2 210.77,1565.51 213.48,1562.25 213.51,1560.16 211.96,1552.05 209.36,1549.55 209.62,1548.2 207.97,1546.09 208.85,1544.27 207.9,1543.52 208.63,1542.67 209.1,1543.41 211.15,1543.45 212,1542.61 213.57,1542.63 213.87,1538.96 215.85,1535.81 214.21,1533.2 214.21,1526.1 212.9,1525.34 211.04,1521.87 209.89,1518.3 210.9,1515.87 210.22,1513.53 208.8,1512.28 212.02,1506.69 209.06,1503.95 211.51,1501.29 210.01,1497.72 210.74,1496.87 210.28,1495.76 212.62,1492.49 212.28,1491.51 213.48,1491.4 215.58,1487.89 215.12,1486.65 216.44,1486.55 216.83,1484.84 219.49,1483.79 219.15,1482.43 220.25,1481.23 220.91,1478.05 215.68,1474.78 215.85,1471.6 214.08,1470.1 214.34,1468.75 213.16,1467.75 214.04,1465.69 212.86,1464.07 213.73,1462.37 211.62,1459.64 213.59,1456.49 216.7,1457.16 215.66,1454.93 213.99,1454.17 213.65,1453.19 215.23,1451.62 217.4,1451.41 218.86,1449.72 216.61,1448.09 215.68,1446.36 215.51,1442.44 213.61,1441.43 211.78,1443.36 209.91,1440.39 210.29,1439.17 209.04,1435.1 211.34,1433.8 211.97,1431.97 210.13,1427.9 211.35,1426.45 213.61,1427.22 214.86,1424.55 214.27,1423.56 211.41,1423.14 209.3,1420.17 211.47,1419.59 211.99,1417.15 208.93,1414.04 209.33,1411.35 205.18,1409.2 203.6,1410.52 204.3,1412 203.91,1413.22 201.05,1412.56 198.8,1411.17 191.28,1403.57 191.66,1402.47 194.32,1400.93 192.19,1399.18 193.45,1395.89 192.18,1393.42 193.92,1389.66 192.43,1386.21 194.4,1382.81 193.36,1380.96 194.5,1377.31 193.71,1374.48 190.69,1369.77 191.1,1367.09 190.51,1366.34 189.31,1366.44 188.93,1368.03 187.85,1368.25 186.92,1366.64 186.94,1365.42 188.64,1363.86 188.56,1361.9 187.51,1360.29 188.47,1353.7 185.63,1345.57 178.7,1345.81 177.54,1343.95 177.6,1340.9 176.08,1339.28 174.52,1339.37 173.27,1342.41 171.48,1342.74 170.57,1340.15 173.01,1337.51 172.81,1335.3 169.73,1334.14 166.6,1335.18 163.43,1332.8 160.57,1332.25 161.58,1329.58 161,1328.47 157.48,1331.83 155.84,1330.08 155.42,1327.14 153.02,1327.95 152.23,1325.48 154.47,1320.63 153.23,1317.06 153.87,1314.99 155.43,1314.53 154.37,1313.54 154.19,1310.47 153.02,1309.47 152.93,1308.25 152.09,1308.35 151.16,1307.23 143.39,1290.32 97.65,1289.37 45.87,1211.74 29.82,1129.79 29.07,1121.46 29.83,1119.4 32.37,1117.26 40.97,1114.05 44.39,1114.62 49.52,1113.03" fill="none" stroke="#1e1e1e" stroke-width="1.11" stroke-linecap="round" stroke-linejoin="round"/>
<text x="622.52" y="1021.53" font-family="sans-serif" font-size="14" stroke="#ffffff" stroke-opacity="0.784" stroke-width="2.33" stroke-linejoin="round" paint-order="stroke" fill="#141414">Chad</text>
</svg>
