<?xml version="1.0" encoding="UTF-8" standalone="no"?>
<svg xmlns="http://www.w3.org/2000/svg" width="1304" height="2000" viewBox="0 0 1304 2000">
<rect width="1304" height="2000" fill="#ffffff"/>
<polyline points="1146.43,1541.28 1143.91,1542.8 1140.31,1548.36 1137.51,1550.74 1135.02,1551.16 1126.79,1549.18 1120.23,1549.06 1116.9,1547.69 1108.97,1548.72 1106.2,1546.28 1105.12,1547.36 1098.41,1546.73 1093.65,1551.13 1083.06,1554.21 1078.04,1558.08 1075.22,1557.29 1069,1563.11 1066.17,1569.59 1062.76,1567.86 1050.76,1567.28 1048.48,1568.33 1047.16,1570.66 1045.61,1574.9 1046.81,1577.45 1045.52,1578.86 1036.16,1581.84 1028.78,1588.35 1023.82,1587.09 1019.29,1588.31 1017.35,1590.47 1013.49,1591.23 1011.86,1592.42 1009.88,1600.4 1009.95,1605.29 1011.42,1611.99 1014.79,1616.62 1014.73,1619.09 1015.66,1619.95 1012.06,1626.27 1011.97,1634.14 1008.38,1635.14 1004.51,1641.97 995.26,1644.72 991.11,1643.83 987.3,1646.26 984,1650.75 977.89,1665.35 974.76,1670.36 970.87,1674.39 966.69,1676.06 958.38,1672.8 956.67,1674.24 950.55,1681.54 949.38,1685.17 941.73,1689.91 938.76,1696.58 938.61,1699.21 937.13,1699.19 933.85,1701.66 931.04,1700.14 928.3,1702.53 925.98,1708.76 925.55,1714.8 924.84,1716.36 923.14,1716.95 924.06,1720.29 922.16,1719.46 921.51,1719.92 920.76,1722.08 917.06,1724.55 915.59,1727.67 910.96,1732.85 907.02,1735.12 905.27,1743.29 902.89,1742.66" fill="none" stroke="#1e1e1e" stroke-width="1.11" stroke-linecap="round" stroke-linejoin="round"/>
<polyline points="670.17,1816.1 668.14,1814.43 668.12,1812.62 670.93,1808.46 673.09,1808.92 673.96,1808.35 674.57,1805.96 680.55,1803.5 682.09,1801.26 686.61,1797.71 696.16,1794 704.44,1795.59 707.27,1793.38 715.91,1792.36 719.83,1794.65 720.97,1793.26 724.43,1795.01 728.82,1795.76 735.07,1793.64 747.26,1794.66 758.46,1791.8 761.69,1793.96 763.65,1793.06 768.96,1793.12 773.59,1790.8 779.23,1789.61 791.95,1789.84 793.49,1789.16 794.96,1787.01 796.7,1787.82 801.59,1785.29 804.49,1785.07 806.17,1781.9 808.29,1784.41 809.02,1783.9 809.1,1781.89 812.66,1778.89 813.64,1778.43 817.38,1779.32 817.57,1777.18 818.61,1776.79 822.01,1780.38 824.09,1781.03 831.12,1777.47 836.53,1780.95 851.26,1780.39 855.37,1777.66 858.14,1778.11 860.56,1775.49 863.72,1769.89 866.79,1768.81 867.51,1767.49 865.4,1761.73 869.93,1759.39 870.89,1755.45 874.6,1757.07 886.2,1757.73 884.59,1752.71 896.13,1747.5 897.04,1748.4 899.27,1744.61 902.32,1742.4 902.89,1742.66" fill="none" stroke="#1e1e1e" stroke-width="1.11" stroke-linecap="round" stroke-linejoin="round"/>
<polyline points="124.77,1279.1 109.46,1270.85 92.6,1264.25 65.13,1244.92 34.19,1220.51 26.75,1215.95" fill="none" stroke="#1e1e1e" stroke-width="1.11" stroke-linecap="round" stroke-linejoin="round"/>
<polyline points="1220.77,1774.47 1221.42,1779.47 1218.02,1787.03 1214.12,1798.84 1213.7,1804.33 1213.03,1806.24 1206.7,1814.87 1206.6,1820.17 1204.34,1824.61 1205.54,1828.28 1204.28,1837.18 1204.69,1841.41 1207.15,1846.26 1208.4,1850.81 1212.53,1855.39 1214.16,1859.36 1218.57,1864.74 1220.41,1870.58 1221.67,1871.47 1227.57,1881.14 1230.71,1883.05 1230.66,1885.42 1235.4,1888.2 1237.24,1891.29 1239.63,1892.98 1240.19,1894.31 1240.29,1908.58 1237.18,1910.56 1236.99,1918.84 1233.71,1923.35 1232.71,1927.55 1226.73,1929.65 1222.33,1937.37 1218.24,1938.62 1216.91,1941.66 1212.4,1944.78 1212.01,1946.81 1205.67,1944.84 1200.94,1946.65 1197.96,1949.01 1192.95,1950.2 1188.32,1952.83 1185.43,1955.87 1179.51,1956.83 1177.18,1958.96 1171.51,1969.7 1169.55,1969.34 1166.58,1972.53 1165.68,1974.79 1166.15,1980.4 1165.4,1982 1161.59,1983.04" fill="none" stroke="#1e1e1e" stroke-width="1.11" stroke-linecap="round" stroke-linejoin="round"/>
<polyline points="1158.91,1983.09 1156.89,1982.34 1155.71,1983.15" fill="none" stroke="#1e1e1e" stroke-width="1.11" stroke-linecap="round" stroke-linejoin="round"/>
<polyline points="11.72,1980.09 11.7,1980.17" fill="none" stroke="#1e1e1e" stroke-width="1.11" stroke-linecap="round" stroke-linejoin="round"/>
<polyline points="29.35,1980.6 33.43,1978.29 41.5,1977.01 44.94,1974.86 50.32,1975.37 51.9,1973.62 60.03,1974.06 67.25,1968.82 75.3,1966.82 79.49,1966.07 83.46,1966.58 92.13,1963.51 96.37,1964.75 103.48,1960.61 123.62,1961.02 127.99,1964.7 130.67,1965.45 135.81,1965.07 147.13,1961.99 151.72,1959.88 156.89,1955.85 169.92,1950.96 170.38,1948.37 175,1947.44 182.57,1943.12 184.64,1942.72 193.91,1943.32 195.29,1942.01 198.5,1941.51 204.77,1942.24 206.87,1943.54 208.06,1945.59 209.8,1945.62 209.77,1947.38 212.23,1949.95 215.63,1946.64 217.59,1946.84 222.33,1949.27 226.26,1947.12 228.22,1946.85 231.52,1948.58 234.5,1946.95 241.09,1947.89 246.12,1945.84 256.12,1944.47" fill="none" stroke="#1e1e1e" stroke-width="1.11" stroke-linecap="round" stroke-linejoin="round"/>
<polyline points="210.61,1413.74 209.48,1417.25 210.93,1419.44 210.45,1422.63 214.17,1427.62 210.22,1428.64 211.93,1433.02 209.33,1436.02 209.54,1439.1 210.32,1441.03 213.75,1442.37 217.33,1450.79 213.98,1454.98 215.58,1457.52 213.03,1458.24 212.05,1460.84 212.12,1465.66 213.91,1471.19 218.44,1477.72 219.78,1481.71 218.13,1485.06 212.47,1491.08 210.53,1495.61 209.03,1505.24 210.6,1508.62 206.94,1514.64 205.32,1524.14 206.59,1547.19 211.68,1559.11 209.6,1567.34 209.86,1571.96 219.63,1592.97 217.4,1600.02 218.01,1605.39 219.85,1606.61 223.81,1607.43 227.59,1609.78 230.26,1616.49 234.66,1621.3 235.28,1626.82 237.28,1631.46 253.68,1647.25 258.06,1653.76 265.18,1660.27 273.19,1665.25 277.39,1666.66 286.58,1675.08 285.56,1678.73 289.87,1679.57 291.3,1682.1 297.2,1685.75 299.49,1691.65 298.45,1698.75 299.37,1700.8 310.11,1703.83 324.46,1716.67 338.32,1725.4 343.86,1726.94 346.99,1729.18 352.23,1737.84 357.32,1754.43 358.32,1756.32 361.03,1757.89 365.94,1766.7 370.9,1772.2 372.4,1775.82 372.62,1778.76 374.82,1782.64 376.02,1786.92 382.81,1797 385.44,1797.03 386.24,1800.47 388.72,1801.33 391.45,1804.79 391.87,1806.62 391.97,1809.27 381.63,1824.91 378.81,1827.43 368.93,1830.5 366.84,1832.06 365.26,1836.49 363.43,1837.58 354.01,1838.49 336.62,1843.56 330.92,1848.02 319.32,1853.99 316.37,1856.95 305.66,1862.71 302.59,1865.78 301.29,1870.28 301.84,1875.29 300.93,1899.5 299.09,1909.93 289.65,1924.96 287.3,1937.12 283.53,1939.26 281.82,1943.44 275.68,1946.36 265.9,1945.51 264.16,1946.48 258.38,1943.1 256.12,1944.47" fill="none" stroke="#1e1e1e" stroke-width="1.11" stroke-linecap="round" stroke-linejoin="round"/>
<polyline points="778.46,1987.68 777.63,1986.89 776.93,1979.24 774.3,1979.54 773.58,1978.32 773.87,1975.77" fill="none" stroke="#1e1e1e" stroke-width="1.11" stroke-linecap="round" stroke-linejoin="round"/>
<polyline points="670.17,1816.1 669.75,1818.33 667.92,1819.29 662.06,1819.07 661.12,1817.34 658.66,1816.84 652.45,1812.57 642.28,1809.54 631.16,1802.1 630.19,1802.24 624.4,1797.54 616.85,1790.23 613.57,1781.57 602.74,1766.44 599.44,1763.01 595.86,1761.12 587.79,1752.9 585.31,1752.9 580.93,1746.72 571.07,1740.09 570.19,1734.96 567.22,1732.83 561.37,1730.87 553.04,1724.51 547.28,1718.15 545.58,1713.04 540.24,1709.32 534.88,1701.25 531.97,1698.17 519.87,1690.35 517.81,1686.08 516.57,1674.49 515.05,1674.25 511.46,1669.4 509.89,1662.6 493.76,1644.65 490.66,1639.5 487.91,1638.07 477.13,1626.27 475.3,1625.26 466.61,1625.2 462.04,1623.63 458.29,1620.68 450.09,1611.36 445.58,1603.54 441.99,1603.99 438.09,1601.75 435.77,1601.31 431.55,1603.92 421.37,1608 417.59,1608.1 412.83,1609.52 409.65,1612.93 403.3,1615.42 400.9,1612.64 392.29,1611.91 382.51,1609.22 372.6,1604.93 368.42,1601.47 367.67,1596.96 366.6,1596.08 359.49,1593.15 354.14,1588.56 347.19,1584.1 343.07,1582.75 334.49,1577.55 331.36,1576.94 329.96,1578.9 322.53,1574.12 312.95,1575.68 294.12,1572.07 291.78,1571.03 282.26,1561.39 280.37,1560.41 273.39,1559.74 268.3,1556.63 265.46,1551.04 264.25,1546.28 259.12,1544.6 255.22,1541.19 254.52,1539.16 254.64,1531.17 249.94,1521.89 253.25,1514.37 250.64,1506.79 246.21,1497.5 244.84,1489.97 238.48,1477.11 239.69,1469.05 243.54,1462.5 243.32,1460.04 241.07,1455.43 244.24,1449.14 244.06,1444.3 238.33,1438.9 237.44,1432.27 231.62,1432.56 227.96,1430.5 222.78,1419.03 220.77,1416.65 211.42,1414.7 208.36,1411.69 206.16,1410.72 200.5,1412.59 192.62,1405.06 192.27,1403.27 194.32,1401.75 192.74,1398.38 194.23,1383.78 192.35,1374.47 190.77,1371.44 190.82,1369.01 189.45,1368.32 189.18,1368.99 187.5,1367.73 189.29,1363.06 185.62,1347.96 184.27,1345.43 178.26,1346 176.35,1341.59 174.23,1340.15 171.72,1343.52 170.38,1341.47 172.21,1337.5 171.43,1335.46 169.54,1334.76 165.99,1335.65 161.26,1332.39 160.59,1330.25 158.89,1330.02 155.41,1331.89 154.77,1328.89 153.04,1329.17 152.37,1327.49 152.39,1318.92 151.3,1314.35 152.69,1310.88 149,1303.06" fill="none" stroke="#1e1e1e" stroke-width="1.11" stroke-linecap="round" stroke-linejoin="round"/>
<polyline points="108.14,1367.39 107.31,1374.9 109.92,1377.78 136.3,1379.46 143.91,1381.5 147.14,1383.31 147.06,1387.49 152.7,1391.7 152.69,1392.61 151.02,1393.42 157.59,1398.11 158.99,1401.24 163.23,1399.5 165.19,1401.47 165.6,1404.56 168.24,1405.07 172.49,1408.21 179.03,1409.86 184.07,1413.39 187.53,1414.49 189.96,1416.8 194.97,1419.18 201.4,1419.23 209.65,1417.14" fill="none" stroke="#1e1e1e" stroke-width="1.11" stroke-linecap="round" stroke-linejoin="round"/>
<polyline points="773.87,1975.77 773.39,1974.56 769.01,1973.18 767.62,1974.32 762.44,1972.93 760.83,1971.17 759.33,1971.89 757.42,1971.33 756.58,1972.11 754.74,1969.96 757.38,1961.92 756.69,1961.1 753.62,1960.71 753.38,1959.57 756.52,1955.96 751.82,1956.5 745.2,1950.94 740.59,1952.64 737.31,1948.45 737.09,1951.28 735.42,1950.82 731.4,1946.78 729.72,1950.16 727.79,1949.01 723.42,1943.05 723.33,1941.95 727.12,1938.38 724.24,1935.65 723.29,1933.49 727.07,1931.55 726.86,1929.45 724.66,1925.76 727.08,1923.34 726.22,1916.35 730.44,1912.96 728.03,1912.58 727.37,1911.11 727.91,1902.88 726.27,1901.87 725.41,1897.84 716.44,1889.71 714.62,1887.08 714.47,1885.17 712.73,1884.71 714.46,1881.88 712.39,1880.59 711.65,1877.46 709.27,1874.43 702.79,1869.15 696.96,1859.07 695,1849.9 691.88,1847.23 691.84,1845.26 695.13,1838.59 699.1,1835.85 696.63,1833.03 691.03,1829.13 689.89,1827.17 673.91,1819.88 672.18,1814.99 670.17,1816.1" fill="none" stroke="#1e1e1e" stroke-width="1.11" stroke-linecap="round" stroke-linejoin="round"/>
<polyline points="591.16,1987.91 585.41,1980.08 583.52,1980.19 575.58,1987.37 571.48,1984.75 562.39,1987.29 558.81,1984.78 555.37,1977.66 552.75,1975.4 547.92,1973.87 532.81,1974.19 529.48,1972.03 528.98,1968.07 535.46,1955.91 536.65,1950.66 536.12,1948.23 533.77,1946.63 534.27,1942.77 528.96,1930.03 528.87,1924.65 526.41,1920.21 527.17,1918.83 525.58,1914.46 524.77,1908.99 527.41,1885.17 529.07,1880.75 533.48,1873.76 534.96,1868.79 537.55,1866.72 537.54,1863.14 538.81,1861.99 543.88,1860.38 547.13,1850.97 552.18,1842.71 553,1839.8 554.78,1838.04 554.85,1834.95 552.63,1831.95 552.89,1829.03 556.15,1824.69 556.97,1822.27 556.48,1818.62 557.96,1815.91 555.26,1814.25 554.88,1813.01 556.11,1810.81 557.77,1809.98 557.03,1807.92 558.59,1794.86 559.85,1793.57 560.59,1793.73 562.42,1796.1 566.61,1793.21 570.35,1793.22 573.66,1790.75 577.2,1786.45 579.81,1781.73 580.34,1777.99 583.59,1775.55 586.57,1775.99 589.63,1765.55 591.97,1764.67 591.16,1757.03" fill="none" stroke="#1e1e1e" stroke-width="1.11" stroke-linecap="round" stroke-linejoin="round"/>
<polyline points="15.27,1938.74 20.88,1936.08 26.67,1931.03 36.92,1928.52 39.88,1926.66 41.11,1922.02 36.6,1910.2 37.31,1905.86 38.62,1904.21 44.08,1901.81 51.38,1895.99 61.03,1894.95 63.31,1894.09 65.27,1892.2 68.77,1884.71 74.31,1878.86 73.66,1870.4 75.94,1866 75.21,1860.15 72.01,1852.57 69.97,1849.64 65.81,1848.22 64.08,1846.8 69.81,1838.33 69.9,1834.05 74.23,1827.48 73.53,1820.45 75.27,1816.45 74.47,1815.26 68.73,1812.1 63.25,1806.94 57.81,1797.63 44.93,1793.84 43.78,1792.04 43.52,1786.25 40.69,1780.38 39.29,1775.1 31.48,1766.5 25.74,1762.1 23.97,1755.86 17.84,1746.51 13.7,1747.74" fill="none" stroke="#1e1e1e" stroke-width="1.11" stroke-linecap="round" stroke-linejoin="round"/>
<text x="328.47" y="1594.3" font-family="sans-serif" font-size="14" stroke="#ffffff" stroke-opacity="0.784" stroke-width="2.33" stroke-linejoin="round" paint-order="stroke" fill="#141414">Chari</text>
<text x="277.94" y="1710.56" font-family="sans-serif" font-size="14" stroke="#ffffff" stroke-opacity="0.784" stroke-width="2.33" stroke-linejoin="round" paint-order="stroke" fill="#141414">Logone</text>
<text x="980.47" y="1626.31" font-family="sans-serif" font-size="14" stroke="#ffffff" stroke-opacity="0.784" stroke-width="2.33" stroke-linejoin="round" paint-order="stroke" fill="#141414">Aoukalé</text>
<text x="497.91" y="1892.19" font-family="sans-serif" font-size="14" stroke="#ffffff" stroke-opacity="0.784" stroke-width="2.33" stroke-linejoin="round" paint-order="stroke" fill="#141414">Ouham</text>
<text x="751.09" y="1794.61" font-family="sans-serif" font-size="14" stroke="#ffffff" stroke-opacity="0.784" stroke-width="2.33" stroke-linejoin="round" paint-order="stroke" fill="#141414">Bahr Aouk</text>
<text x="1216.21" y="1902.19" font-family="sans-serif" font-size="14" stroke="#ffffff" stroke-opacity="0.784" stroke-width="2.33" stroke-linejoin="round" paint-order="stroke" fill="#141414">Kotto</text>
<text x="32.18" y="1854.29" font-family="sans-serif" font-size="14" stroke="#ffffff" stroke-opacity="0.784" stroke-width="2.33" stroke-linejoin="round" paint-order="stroke" fill="#141414">Bénoué</text>
<text x="688.09" y="1918.61" font-family="sans-serif" font-size="14" stroke="#ffffff" stroke-opacity="0.784" stroke-width="2.33" stroke-linejoin="round" paint-order="stroke" fill="#141414">Bamingui</text>
<text x="128.16" y="1969.11" font-family="sans-serif" font-size="14" stroke="#ffffff" stroke-opacity="0.784" stroke-width="2.33" stroke-linejoin="round" paint-order="stroke" fill="#141414">Vina</text>
<text x="2" y="1257.99" font-family="sans-serif" font-size="14" stroke="#ffffff" stroke-opacity="0.784" stroke-width="2.33" stroke-linejoin="round" paint-order="stroke" fill="#141414">Komadugu Yobe</text>
<text x="729.53" y="1987.33" font-family="sans-serif" font-size="14" stroke="#ffffff" stroke-opacity="0.784" stroke-width="2.33" stroke-linejoin="round" paint-order="stroke" fill="#141414">Koukourou</text>
</svg>
