<?xml version="1.0" encoding="UTF-8" standalone="no"?>
<svg xmlns="http://www.w3.org/2000/svg" width="2000" height="1973" viewBox="0 0 2000 1973">
<rect width="2000" height="1973" fill="#ffffff"/>
<path d="M1465.5,29.02L1465.92,28.08L1467.28,27.88L1467.16,30.49L1468.83,29.14L1469.65,30.29L1468.71,31.65L1472.55,32.29L1471.92,33.44L1473.38,33.13L1473.78,35.43L1475.03,34.81L1475.04,33.87L1476.28,35.65L1476.7,34.4L1478.15,34.83L1479.2,33.48L1480.54,35.26L1483.04,34.44L1483.86,37.37L1484.7,36.12L1485.74,36.13L1485.62,37.48L1486.56,37.07L1486.24,38.32L1488.01,38.02L1488.73,39.17L1488.1,40.42L1489.56,39.8L1490.08,40.53L1489.75,43.25L1490.78,43.98L1491.41,43.05L1491.72,43.88L1492.76,43.58L1492.85,45.35L1494.21,44.21L1494.83,45.26L1496.08,44.54L1497.22,45.48L1498.48,42.67L1498.68,45.28L1499.2,44.03L1499.93,44.04L1499.42,43.2L1500.15,41.95L1501.49,43.42L1502.34,41.34L1503.27,42.07L1503.69,41.14L1504.62,42.29L1506.6,40.63L1507.23,41.05L1506.6,41.88L1507.43,41.99L1507.32,43.25L1507.94,43.46L1508.57,42.73L1508.05,41.58L1508.99,41.59L1509.31,40.65L1510.75,42.33L1513.25,41.4L1513.68,39.94L1514.61,40.99L1516.7,39.34L1517.62,40.59L1518.05,39.45L1518.46,40.18L1520.54,39.15L1520.85,39.88L1522.73,39.16L1522.61,41.56L1524.17,41.16L1524.47,42.2L1523.75,42.41L1525.08,44.29L1526.43,44.61L1526.33,45.45L1528.2,45.46L1529.03,44.32L1531,45.27L1531.51,46.73L1533.18,46.85L1534.53,45.81L1535.08,42.48L1536.11,42.9L1537.26,42.18L1536.96,40.72L1537.69,40.62L1538.95,37.49L1539.68,37.6L1539.9,35.83L1548.14,31.91L1549.07,32.34L1549.18,31.3L1551.99,30.69L1551.79,30.06L1555.85,28.94L1562.5,29.71L1570.68,34.88L1574.11,35.11L1577.21,36.91L1580.12,37.24L1581.57,38.51L1592.66,43.17L1593.48,45.06L1592.64,46.31L1593.34,50.28L1599.96,55.12L1599.32,57.41L1599.93,59.19L1600.97,58.99L1603.87,60.57L1605,62.56L1614.04,62L1614.86,63.26L1616.73,63.9L1617.85,66.31L1619.4,67.57L1619.08,68.92L1620.11,70.29L1619.47,72.68L1622.06,73.33L1622.8,71.98L1627.05,73.26L1626.73,74.4L1627.77,74.93L1626.82,76.38L1627.96,77.23L1627.22,78.68L1627.83,79.94L1626.14,83.57L1627.28,84.31L1629.11,89.43L1628.57,92.14L1630.96,92.37L1633.65,93.74L1634.36,95.83L1639.22,99.41L1642.75,99.65L1645.07,95.18L1648.17,97.71L1648.9,97.09L1653.15,98.58L1655.43,98.28L1654.13,105.78L1657.63,109.45L1658.55,112.17L1659.69,111.65L1659.71,110.09L1661.79,109.17L1663.86,110.65L1664.8,109.61L1665.82,111.39L1664.66,113.88L1668.29,115.37L1671.58,119.14L1676.66,119.6L1677.82,118.26L1686.85,118.95L1688.8,121.99L1689.8,126.27L1691.67,125.87L1693.53,126.72L1698.11,125.5L1701.05,122.4L1701.06,121.05L1702.42,119.5L1701.91,118.87L1703.47,118.15L1703.9,116.6L1706.82,115.79L1710.86,116.13L1712.87,112.3L1715.46,112.63L1719.94,111.31L1719.64,110.37L1723.32,105.3L1722.5,103.73L1722.92,102.9L1724.48,102.7L1725.53,101.46L1724.81,100.73L1726.07,99.49L1727,100.12L1729.91,99.42L1731.8,97.56L1733.66,98.41L1733.65,99.45L1734.68,99.98L1735.08,102.27L1734.33,104.56L1736.09,105.83L1738.79,106.27L1741.08,105.14L1744.91,106.84L1746.27,105.92L1747.3,106.76L1749.28,106.05L1753.33,106.19L1754.17,104.94L1757.8,105.39L1758.51,107.38L1760.06,108.54L1762.76,108.67L1762.22,111.27L1768.13,111.63L1768.22,113.3L1769.77,114.15L1770.48,115.82L1771.21,115.62L1774.82,118.57L1775.01,120.24L1776.56,121.19L1780.32,119.77L1780.96,117.59L1780.34,116.75L1782.23,115.2L1784.09,116.26L1784.92,115.64L1785.85,116.9L1790.12,115.48L1791,110.18L1792.47,107.9L1796.11,107.62L1799.05,104.73L1800.74,101.83L1800.46,98.39L1803.82,94.56L1803.45,89.35L1802.54,87.46L1802.86,86.74L1803.68,87.47L1804.2,86.96L1805.27,84.57L1807.44,85.11L1807.53,86.47L1809.8,88.78L1812,87.03L1812.92,88.08L1814.59,87.89L1816.75,89.37L1819.05,88.46L1822.57,89.85L1822.87,91.1L1828.04,92.92L1827.82,94.07L1831.73,97.96L1833.52,96.1L1836.71,98.84L1837.65,98.33L1840.03,98.98L1837.07,104.47L1838.31,105.32L1836.9,111.66L1837.14,118.44L1840.13,120.24L1841.46,122.44L1847.81,121.15L1853.07,125.16L1854.5,127.36L1852.71,129.63L1853.12,130.16L1852.06,132.13L1855.04,135.59L1856.6,135.09L1860.33,135.75L1860.41,138.77L1863.78,143.7L1871.86,146.28L1874.46,145.26L1875.06,147.77L1874.62,150.05L1875.24,150.69L1874.28,152.55L1877.89,155.4L1878.48,157.8L1877.53,159.66L1879.56,164.26L1880.39,164.68L1881.54,163.86L1882.05,164.7L1884.45,163.17L1885.59,163.39L1886.22,162.35L1888.28,164.35L1888.15,166.74L1889.82,165.51L1891.79,166.47L1893.35,165.76L1893.86,166.91L1896.34,167.87L1897.05,169.13L1898.4,169.14L1900.03,171.97L1901.9,171.99L1903.58,170.24L1905.81,175.36L1908.51,175.07L1912.47,173.14L1912.87,174.6L1914.54,174.31L1914.51,177.32L1915.33,177.54L1916.14,179.73L1917.33,185.05L1916.34,190.14L1916.73,192.33L1914.81,196.88L1915.43,197.61L1921.43,199.24L1928.01,195.36L1932.55,197.49L1933.5,195.63L1935.78,196.17L1936.14,192.23L1937.6,191.31L1939.95,194.24L1939.71,197.67L1940.61,200.7L1942.48,200.72L1942.67,201.76L1943.6,201.98L1945.27,201.79L1946.39,203.05L1946.68,205.44L1945.3,207.82L1945.05,211.56L1947.22,212.73L1950.05,210.16L1954.72,209.9L1954.08,221.02L1952.2,222.14L1952.28,223.49L1948.93,226.78L1949.41,229.69L1947.43,230.71L1946.58,232.67L1947.09,233.3L1943.65,235.03L1943.93,237.53L1942.78,238.66L1942.75,241.15L1939.77,248.18L1938.86,255.13L1936.14,256.86L1937.46,259.89L1939.62,261.57L1941.89,262.01L1942.08,263.57L1945.37,266.31L1945.23,269.84L1946.26,270.47L1946.95,273.7L1948.28,274.75L1948.57,277.25L1947.89,281.7L1945.15,286.03L1943.18,286.42L1942.43,288.07L1941.5,288.27L1941.89,290.46L1939.89,292.61L1940.19,293.96L1937.65,299.02L1938.05,300.17L1936.77,303.16L1933.85,305L1934.9,313.1L1934.57,314.34L1933.32,314.84L1932.65,319.4L1933.76,322.42L1936.47,320.48L1939.67,322.07L1942.26,321.79L1943.77,326.37L1946.24,327.85L1947.14,330.76L1949.51,331.72L1950.13,331.83L1950.35,330.8L1952.83,331.24L1954.1,328.77L1953.39,327.41L1954.77,324.63L1955.18,325.25L1957.57,324.24L1960.26,325L1960.97,326.25L1967.03,330.68L1966.5,331.71L1968.13,334.32L1967.08,335.03L1967.28,335.66L1971.08,338.4L1972.84,339.25L1973.89,337.29L1976.06,337.94L1980.33,336.53L1980.24,343.58L1987.86,348.13L1986.58,351.02L1983.98,351.92L1984.05,354.41L1982.49,355.43L1979.48,355.39L1975.28,360.84L1968.82,363.66L1958.9,370.8L1959,371.94L1957.43,373.17L1955.37,372.42L1952.24,374.25L1950.66,376.2L1949.42,376.19L1939.04,388.09L1934.25,389.79L1932.37,391.85L1930.67,395.87L1922.53,401.27L1922.01,402.09L1922.61,404.06L1915.51,409.06L1912.6,410.27L1910.08,413.87L1906.74,416.32L1904.89,424.99L1902.79,427.45L1901.03,427.85L1899.64,431.66L1895.37,434.72L1891.59,439.03L1893.26,438.22L1892.32,438.94L1892.09,440.9L1892.19,441.42L1893.23,440.81L1892.49,442.04L1893.52,442.47L1897.04,442.19L1897.99,441.07L1898.39,442L1899.02,441.28L1902.96,441.01L1903.05,442.26L1901.27,444.1L1900.94,445.55L1901.87,445.45L1901.55,446.9L1903.94,445.79L1905.88,447.77L1903.51,447.33L1901.84,448.45L1900.39,448.23L1898.31,449.35L1897.39,448.61L1895,449.62L1891.81,448.14L1889.81,450.81L1889.27,453.49L1888.04,452.76L1886.89,453.37L1886.6,451.71L1885.46,452.11L1884.95,451.07L1882.35,452.08L1881.71,453.93L1878.91,455.25L1879.7,457.95L1877.92,460.72L1878.53,461.45L1877.59,462.79L1878.2,463.1L1877.27,463.3L1878.19,464.76L1877.42,468.58L1878.66,468.7L1877.31,469.51L1877.92,470.34L1877.19,470.65L1876.58,469.91L1876.68,470.64L1875.95,470.74L1876.77,471.57L1875.33,471.04L1875.31,472.49L1874.29,471.65L1874.48,472.58L1873.35,472.57L1874.47,473.41L1873.34,473.29L1874.16,473.92L1873.74,474.33L1872.92,473.6L1873.43,474.74L1872.6,474.63L1872.27,476.7L1871.54,477.1L1872.36,477.73L1871.94,478.66L1871.01,477.93L1871.21,479.27L1870.9,478.75L1870.17,479.36L1870.37,480.5L1868.19,480.9L1867.99,479.96L1867.47,480.58L1866.34,479.64L1865,479.73L1864.26,480.86L1861.89,480.73L1860.63,482.16L1858.66,482.35L1857.1,483.68L1855.13,483.66L1854.19,484.79L1853.16,484.47L1850.3,491.57L1851.71,495L1850.97,496.85L1851.03,500.58L1849.22,505.93L1851.14,510.3L1850.69,513.5L1852.03,514.54L1851.39,515.78L1851.78,518.68L1840.48,531.79L1834.88,554.68L1829.71,554.84L1829.49,556.38L1826.16,558.93L1826.12,562.55L1824.04,564.18L1824.55,565.32L1824,568.21L1825.23,569.98L1825,572.04L1826.93,574.75L1825.37,575.97L1825.64,579.9L1822.55,579.77L1820.45,583.26L1816.7,585.7L1811.95,586.07L1801.18,589.27L1797.72,594.61L1794.73,604.8L1789.93,609.92L1788.98,612.7L1789.26,615.9L1787.59,617.85L1786.94,620.73L1784.57,620.09L1782.29,621.52L1782.17,622.75L1784.52,624.94L1784.9,628.66L1782.32,629.05L1780.74,631.72L1781.25,633.07L1782.18,633.18L1782.49,632.26L1784.46,631.65L1785.78,633.73L1787.73,634.99L1788.4,641.09L1786.85,641.69L1787.55,643.66L1788.91,641.61L1789.83,642.85L1790.56,641.83L1790.16,640.9L1792.54,639.37L1792.76,638.34L1791.84,637.3L1792.97,637.52L1792.78,636.48L1793.81,636.49L1793.62,635.25L1794.96,634.75L1795.28,633.51L1799.18,636.34L1798.85,637.98L1799.57,638.61L1802.99,636.79L1802.8,635.54L1805.48,636.19L1807.55,635.8L1812.78,628.62L1813.22,625.11L1815.21,623.07L1815.33,621.31L1820.42,618.06L1819.55,622.29L1820.06,622.91L1818.91,624.55L1819.09,627.24L1817.33,627.43L1817.01,628.76L1817.4,630.63L1818.33,631.26L1816.55,633.2L1817.86,636.21L1813.96,644.74L1814.54,648.66L1813.98,653.82L1815.4,656.52L1813.91,660.73L1815.01,664.67L1809.75,664.62L1809.22,665.23L1810.34,667.51L1809.7,668.85L1810.29,671.95L1811.21,672.99L1810.9,673.61L1809.66,673.08L1809.32,676.89L1810.01,680.41L1808.59,687.72L1809.49,690.93L1808.02,694.01L1811.59,697.76L1809.99,703.11L1811.5,707.66L1809.56,715.38L1806.37,714.83L1802.95,717.17L1802.21,719.02L1799.93,720.34L1795.02,726.9L1785.94,727.12L1784.99,730L1783.33,731.02L1780.91,735.94L1776.13,739.41L1775.5,741.57L1773.52,743.4L1773.39,746.7L1771.24,744.72L1765.9,742.82L1764.79,739.82L1762.62,740.62L1762.12,739.17L1760.36,739.36L1758.2,738.42L1757.4,736.14L1755.35,734.68L1753.6,734.56L1752.77,735.27L1751.92,738.36L1750.78,738.25L1751.91,739.29L1751.58,741.55L1750.22,743.3L1750.39,747.11L1752.28,743.62L1753.93,743.54L1754.46,741.58L1755.08,742.2L1754.99,740.04L1755.82,739.63L1755.92,740.46L1757.69,738.41L1758.3,738.83L1757.96,742.13L1759.31,741.42L1758.99,743.07L1757.74,744.5L1757.12,744.29L1757.11,745.11L1756.08,745L1756.18,745.93L1755.26,745.09L1755.74,748.3L1754.82,748.08L1753.97,750.14L1752.11,751.25L1752.61,752.5L1751.26,753.52L1750.55,752.79L1750.03,753.19L1750.54,753.51L1749.81,755.15L1750.52,755.67L1749.07,756.59L1749.99,757.32L1751.66,755.89L1751.43,758.47L1747.9,761.22L1747.23,766.47L1746.41,766.57L1746.29,768.22L1744.63,768.82L1744.83,770.16L1743.6,769.74L1743.68,771.29L1744.71,772.33L1742.95,772.62L1742.01,774.37L1740.88,774.25L1741.17,775.8L1739.01,775.37L1739.72,776.62L1737.62,781.34L1738.43,783.2L1739.77,782.91L1741.34,779.52L1741.06,777.25L1742.4,776.95L1745.74,783.37L1740.66,787.14L1740.23,789.2L1739.31,788.06L1738.38,788.36L1737.85,790.11L1736,789.47L1733.29,792.75L1734.31,794.1L1736.07,792.87L1735.88,792.15L1737.21,792.16L1738.65,792.59L1738.33,794.03L1739.47,793.73L1736.05,796.07L1734.93,794.62L1734.41,794.92L1734.4,796.37L1736.04,796.79L1735.61,798.33L1732.73,798.31L1734.06,799.25L1733.34,799.55L1733.95,799.97L1733.12,801.1L1734.55,801.83L1735.04,805.03L1735.55,805.24L1737.01,803.19L1736.59,804.63L1737.21,804.64L1738.57,801.56L1739.6,802.29L1741.66,802L1740.83,802.61L1741.34,803.85L1740.3,804.97L1740.49,806.42L1739.45,807.75L1738.52,807.64L1739.55,808.06L1738.82,808.67L1739.44,808.68L1739.02,809.91L1737.06,810.1L1737.24,812.16L1738.08,810.83L1738.9,811.15L1740.89,807.45L1741.3,807.87L1740.05,809.51L1740.66,809.82L1741.61,807.98L1743.68,806.55L1744.52,804.39L1745.87,803.68L1745.64,805.85L1744.82,805.84L1745.54,806.36L1745.01,807.59L1743.47,807.06L1744.7,808.31L1743.76,808.92L1744.47,810.27L1744.05,811.92L1739.2,812.28L1734.95,815.44L1732.58,815.53L1731.83,818.92L1730.89,819.84L1731.25,826.75L1732.57,828.51L1732.68,827.48L1733.51,827.18L1732.88,828.72L1735.67,827.61L1735.56,828.54L1736.69,827.93L1736.27,829.47L1734.72,829.87L1733.47,831.92L1736.43,834.84L1737.23,837.21L1737.89,843.82L1736.95,845.25L1738.29,845.88L1739.1,847.54L1740.85,847.55L1741.66,848.8L1743.3,848.92L1744.32,849.96L1745.05,849.03L1747.01,849.46L1751.09,853.11L1751.7,854.04L1751.38,855.89L1750.24,855.78L1747.65,858.03L1747.62,861.01L1750.59,862.69L1752.56,861.88L1754.49,864.99L1754.47,866.44L1756.93,867.8L1756.5,870.37L1757.3,872.44L1760.59,873.4L1762.01,875.16L1763.55,875.48L1764.86,878.8L1764.54,880.24L1765.47,879.83L1768.32,883.05L1770.59,882.76L1771.61,883.39L1771.09,884.01L1773.13,885.78L1772.91,887.32L1773.73,887.64L1773.41,889.49L1773.92,889.49L1772.57,890.62L1773.89,892.59L1772.23,894.01L1770.23,898.94L1770.95,899.67L1770,901.31L1771.12,902.76L1770.29,904.3L1771.79,908.44L1770.43,910.59L1768.89,911.09L1769.57,914.7L1768.74,915.62L1768.93,917.07L1766.68,916.43L1763.48,916.92L1761.49,920.92L1761.67,923.49L1760.22,925.03L1760.4,927.81L1761.51,929.99L1760.98,931.73L1762.2,933.6L1762.07,936.38L1762.78,937.31L1761.5,942.45L1762.21,943.7L1762.07,948.13L1762.88,949.58L1759.14,953.67L1759.43,955.73L1758.08,956.75L1757.64,959.73L1756.6,961.17L1759.46,963.77L1759.85,965.21L1758.8,967.68L1756.41,970.33L1757.84,972.1L1756.58,974.36L1757.68,977.77L1757.65,981.06L1757.21,984.46L1755.97,985.48L1755.43,988.15L1755.8,992.38L1756.72,993.52L1756.38,996.82L1755.34,998.35L1756.05,999.6L1755.43,1000.11L1757.75,1004.04L1757.42,1007.03L1755.96,1009.59L1752.55,1011.42L1752,1014.92L1754.56,1016.69L1755.49,1015.98L1756.29,1017.63L1760.09,1018.6L1761.43,1018.2L1762.71,1012.33L1766.5,1002.78L1768.32,994.45L1769.78,992.2L1769.91,989.93L1771.36,989.02L1773.07,992.95L1773,1000.68L1771.2,1006.02L1768.48,1021.87L1767.33,1024.23L1766.88,1028.96L1768.04,1036.29L1766.8,1037.62L1764.98,1034.72L1762.4,1035.62L1762.59,1037.17L1761.54,1039.32L1762.36,1039.54L1762.04,1040.67L1758.62,1044.04L1756.83,1049.38L1757.7,1055.78L1755.58,1062.97L1755.66,1065.55L1756.36,1066.58L1756.03,1069.57L1756.73,1071.53L1756.54,1081.53L1758.21,1089.79L1756.44,1092.66L1756.31,1095.75L1759.64,1101.45L1759.41,1104.02L1760.33,1104.75L1761.7,1112.6L1764.94,1116.96L1765.53,1119.54L1766.66,1119.96L1767.66,1123.06L1770.19,1126.59L1771.69,1130.42L1774.33,1133.64L1774.32,1134.67L1779.19,1140.8L1781.79,1147.63L1783.23,1147.64L1784.63,1151.47L1784.52,1152.7L1783.69,1153.11L1781.76,1151.23L1780.11,1152.15L1780.86,1159.58L1782.77,1163.61L1779.87,1166.58L1778.9,1171.21L1764.66,1181.28L1764.63,1183.86L1765.45,1184.18L1764.31,1186.23L1764.27,1190.46L1765.46,1194.28L1764.82,1197.58L1766.45,1198.31L1769.49,1201.85L1772.67,1202.18L1774.18,1204.78L1773.75,1206.84L1775.37,1209.02L1778.13,1210.59L1779.22,1214.1L1778.69,1216.06L1779.28,1218.64L1780.89,1222.47L1782.42,1223.11L1782.18,1226.2L1785.81,1232.73L1785.67,1236.85L1788.09,1240.59L1788.39,1242.35L1791.44,1244.03L1793.09,1243.84L1793.2,1242.5L1794.12,1242.81L1793.48,1245.8L1794.99,1248.39L1793.19,1254.15L1795.46,1263.56L1798.72,1265.65L1798.4,1266.48L1800.83,1270.21L1810.48,1277.84L1812.26,1284.36L1818.86,1290.2L1819.75,1294.03L1822.38,1297.35L1827.87,1300.92L1839.83,1303.2L1844.72,1305.73L1846.53,1308.84L1850.09,1311.15L1851.2,1312.92L1855.58,1315.13L1858.21,1318.77L1858.69,1321.35L1861.01,1324.68L1860.57,1327.98L1864.72,1332.25L1865.48,1338.46L1867.68,1342.81L1867.7,1351.38L1865.81,1355.49L1865.37,1359L1867.38,1361.71L1867.96,1365.22L1869.66,1368.85L1872.11,1370.12L1872.91,1371.88L1873.18,1375.19L1872.45,1376.42L1873.16,1377.26L1873.23,1380.05L1874.03,1381.91L1875.76,1382.45L1876.46,1383.8L1875.51,1387.09L1877.57,1385.77L1881.14,1386.64L1883.75,1391.41L1888.33,1393.22L1887.3,1394.55L1889.34,1394.88L1890.25,1395.82L1890.03,1397.06L1891.36,1397.18L1892.88,1398.74L1892.35,1399.87L1896.22,1401.46L1897.94,1403.96L1898.65,1403.97L1900.35,1407.6L1899.11,1408.62L1900.75,1408.54L1902.68,1409.59L1905.5,1414.06L1902.87,1420.44L1904.39,1421.8L1903.75,1424.59L1901.98,1427.05L1902.58,1428.09L1806.68,1437.54L1804.32,1438.65L1731.47,1445.32L1728.89,1447.77L1723.81,1456L1719.36,1461.54L1719.35,1462.58L1718.33,1462.98L1714.08,1469.25L1708.33,1472.72L1705.43,1477.55L1696.46,1486.89L1687.27,1498.19L1684.71,1499.72L1679.76,1505.26L1676.07,1506.58L1674.52,1508.22L1673.86,1514.11L1674.66,1516.91L1676.37,1519.31L1674.29,1524.57L1674.59,1525.5L1672.44,1526L1673.86,1527.05L1674.46,1529.02L1673.11,1531.39L1674.21,1533.98L1672.35,1536.66L1673.18,1535.94L1672.65,1537.28L1676,1540.62L1677.4,1543.94L1676.16,1545.07L1676.04,1547.45L1673.78,1548.99L1675.81,1550.97L1680.69,1553.08L1687.12,1553.34L1689.99,1552.54L1694.37,1553.71L1694.77,1554.23L1694.05,1555.05L1691.91,1554.62L1690.88,1555.55L1692.5,1557.73L1693.72,1557.64L1694.63,1558.99L1695.45,1558.9L1694.64,1557.85L1695.47,1556.93L1695.91,1552.59L1692.55,1552.04L1692.14,1551.31L1693.37,1551.43L1693.58,1550.5L1692.37,1548.83L1692.48,1547.38L1688.2,1546.93L1689.94,1546.43L1690.15,1545.71L1689.77,1542.08L1691.63,1539.82L1689.68,1540.01L1689.69,1538.97L1690.43,1536.39L1690.94,1536.5L1690.82,1538.88L1692.03,1540.65L1692.85,1539.62L1691.58,1545.2L1693.92,1545.84L1693.9,1548.53L1695.74,1548.03L1697.57,1549.18L1697.32,1555.39L1697.92,1556.74L1699.04,1557.17L1701.61,1555.22L1702.31,1556.16L1701.79,1557.19L1699.65,1557.48L1698.41,1558.61L1701.56,1560.4L1700.92,1563.5L1702.73,1567.45L1703.41,1571.29L1702.06,1573.35L1703.88,1576.36L1707.14,1576.81L1708.04,1578.26L1707.42,1579.92L1710.05,1582.11L1709.22,1583.56L1708.01,1582.82L1707.57,1585.82L1706.01,1589.02L1706.21,1590.47L1702.68,1597.17L1703.16,1600.49L1702.13,1602.25L1704.45,1604.65L1704.32,1607.65L1702.89,1608.88L1702.59,1619.55L1700.86,1619.54L1700.95,1620.99L1697.33,1625.94L1700.47,1629.59L1700.95,1632.29L1702.69,1632.51L1703.19,1633.66L1703.27,1635.94L1701.5,1640.38L1701.88,1643.29L1704,1646.11L1704.48,1649.22L1703.04,1650.87L1703.82,1654.71L1702.59,1656.26L1704.41,1658.03L1705.33,1657.73L1706.93,1660.96L1705.35,1667.59L1708.19,1668.44L1709.28,1672.49L1705.91,1673.5L1705.67,1677.44L1701.5,1676.68L1700.26,1677.71L1699.72,1682.27L1697.66,1684.12L1697.33,1686.61L1695.39,1687.63L1694.04,1690.32L1693.25,1700.17L1692.62,1701.41L1689.96,1703.05L1690.22,1708.24L1688.57,1711.14L1688.13,1714.87L1686.48,1716.83L1688.79,1721.42L1688.66,1724.53L1686.81,1727.11L1687.69,1730.86L1686.35,1732.93L1685.82,1735.73L1683.87,1737.48L1683.74,1740.18L1684.75,1742.16L1684.11,1744.75L1681.15,1746.39L1681.73,1749.3L1680.7,1750.85L1680.69,1752.72L1677.91,1755.51L1676.8,1767.03L1681.63,1773.73L1680.28,1776.94L1682,1778.62L1680.04,1781.3L1682.06,1783.09L1683.66,1786.64L1682.22,1788.39L1681.7,1790.68L1683.3,1793.29L1684.94,1792.16L1686.16,1792.38L1687.77,1794.58L1687.64,1798.01L1689.58,1797.3L1695.76,1800.88L1699.84,1800.61L1701.74,1804.16L1708.42,1808.59L1710.35,1809.23L1712.9,1807.9L1713.92,1808.11L1715.03,1809.68L1714.8,1811.76L1716.22,1813.02L1715.9,1814.89L1721.96,1820.36L1724.86,1825.48L1730.43,1828.34L1733.46,1831.81L1737.36,1838.61L1739.28,1840.19L1739.86,1844.25L1742.27,1847.3L1741.75,1849.17L1742.65,1850.42L1746.31,1851.08L1747.74,1849.84L1749.47,1849.65L1751.39,1851.96L1752.72,1850.62L1756.6,1849.4L1763,1850.19L1766.07,1848.35L1769.6,1851.82L1769.07,1853.58L1771.3,1854.75L1776.6,1853.86L1780.44,1856.4L1787.23,1858.86L1789.28,1857.1L1790.81,1856.91L1792.46,1854.95L1792.08,1851.92L1789.12,1852.73L1787.81,1851.78L1785.52,1845.72L1785.35,1843.11L1787.74,1836.89L1789.79,1835.34L1792.65,1835.16L1794.81,1832.16L1796.34,1831.66L1795.74,1830.82L1797.07,1830L1797.88,1830.32L1797.56,1831.77L1799.9,1831.59L1801.51,1834.1L1802.63,1833.39L1804.65,1835.49L1808.11,1835.31L1809.65,1834.08L1812.09,1834L1811.7,1832.74L1813.84,1832.35L1813.24,1831.41L1814.27,1829.23L1817.45,1826.76L1819.38,1827.41L1821.73,1826.91L1820.39,1961.82L1819.67,1962.03L1816.44,1960.64L1811.33,1963.3L1808.5,1962.23L1805.78,1959.59L1804.24,1961.04L1802.52,1960.5L1801.82,1958.82L1799.91,1957.45L1800.85,1954.43L1799.03,1953.36L1799.75,1952.43L1801.58,1952.76L1803.72,1951.84L1804.47,1948.2L1803.37,1945.99L1807.17,1941.75L1805.75,1941.73L1806.39,1938.82L1802.91,1940.77L1798.77,1938.53L1797.36,1936.54L1796.35,1936.63L1794.19,1939.12L1792.16,1938.89L1789.6,1941.26L1788.99,1941.05L1787.34,1943.85L1782.83,1947.67L1779.37,1948.06L1777.22,1949.29L1774.79,1948.85L1773.44,1951.87L1769.8,1949.85L1767.93,1954.11L1766,1954.1L1761.5,1957.4L1759.67,1957.69L1755.67,1961.73L1754.49,1957.02L1752.18,1954.39L1750.05,1953.95L1749.86,1953.22L1739.55,1958.34L1737.62,1958.43L1735.92,1955.28L1737.35,1954.36L1737.36,1953.21L1735.22,1954.23L1733.7,1953.59L1733.73,1950.04L1732.52,1948.36L1731.06,1941.35L1729.36,1938.31L1729.98,1937.06L1729.3,1933.93L1727.09,1930.67L1724.85,1931.59L1724.35,1930.23L1722.31,1930.84L1721.51,1929.79L1721.42,1927.91L1722.46,1926.14L1719.94,1922.88L1721.78,1922.17L1720.27,1920.17L1720.32,1915.06L1719.42,1913.18L1717.59,1912.43L1716.01,1908.14L1713.05,1908.43L1712.86,1906.86L1710.45,1903.4L1710.57,1902.04L1705.11,1898.35L1703,1895.1L1701.07,1895.29L1698.41,1897.04L1695.71,1903.59L1693.68,1903.46L1691.17,1899.27L1691.71,1895.84L1688.49,1891.53L1687.17,1891.21L1685.37,1888.17L1683.04,1886.28L1682.45,1884.81L1683.57,1883.67L1683.48,1882.63L1686.34,1881.3L1688.37,1881.84L1689.52,1878.09L1691.06,1876.54L1689.65,1874.97L1689.76,1873.82L1681.16,1867.71L1682.31,1863.86L1677.35,1862.05L1674.94,1857.97L1673.42,1856.81L1672.4,1857.22L1671.6,1855.23L1669.68,1853.65L1667.35,1853.32L1665.41,1854.35L1663.08,1852.35L1660.22,1853.79L1659.32,1852.01L1656.07,1851.57L1655.57,1850.83L1656.39,1849.38L1654.05,1849.15L1653.54,1850.3L1651.7,1851.22L1651.28,1852.99L1651.98,1854.55L1650.96,1854.23L1649.22,1855.37L1644.92,1846.06L1642.69,1845.63L1641.25,1846.66L1635.77,1844.95L1633.21,1847.33L1632.5,1847.11L1631.4,1844.92L1632.94,1842.43L1631.14,1838.87L1629.72,1837.72L1629.85,1834.8L1620.9,1834.11L1617.86,1832.63L1618.24,1835.55L1616.4,1837.1L1613.65,1837.81L1612.82,1839.99L1609.37,1838.61L1608.65,1839.33L1606.42,1838.48L1604.89,1839.2L1603.26,1838.56L1601.33,1839.17L1598.49,1837.49L1599.31,1836.14L1597.8,1834.46L1597.92,1832.48L1595.59,1830.91L1593.25,1830.89L1590.82,1828.17L1589.81,1828.05L1587.7,1823.77L1587.53,1818.88L1585.82,1816.89L1586.03,1815.43L1584.82,1814.49L1583.19,1814.79L1582.51,1809.16L1583.87,1804.49L1582.56,1801.88L1578.42,1798.42L1575.98,1797.57L1576.09,1796.43L1573.96,1795.58L1573.66,1794.54L1569.9,1792.74L1570.01,1791.6L1568.59,1791.49L1564.74,1788.65L1562.3,1787.8L1562.2,1788.43L1561.08,1788.32L1558.85,1786.64L1558.96,1784.87L1557.86,1782.68L1559.2,1779.78L1558.5,1777.59L1559.63,1776.35L1556.56,1763.64L1555.63,1765.51L1553.59,1765.91L1551.65,1767.66L1547.89,1766.29L1543.8,1768.13L1541.16,1766.66L1537.48,1768.92L1538.79,1771.11L1537.87,1772.15L1538.67,1774.65L1539.88,1775.49L1540.47,1778.51L1538.73,1780.58L1538.83,1781.62L1537.49,1782.75L1535.97,1782.85L1535.73,1788.46L1536.33,1789.71L1535,1790.64L1536.21,1792.52L1532.11,1796.65L1531.48,1800.19L1529.64,1801.32L1529.22,1802.67L1526.88,1802.34L1526.77,1803.9L1525.04,1804.51L1524.31,1806.59L1522.78,1807.31L1520.85,1806.67L1519.93,1807.5L1517.08,1807.48L1512.11,1804.12L1505.77,1809.39L1503.95,1808.02L1497.13,1807.26L1495.51,1805.68L1493.79,1805.26L1491.84,1807.22L1489.61,1806.38L1488.5,1804.71L1484.53,1803.64L1482.42,1800.2L1477.23,1799.23L1474.88,1801.19L1472.74,1801.39L1465.49,1804.78L1463.47,1802.48L1459.09,1802.56L1457.98,1800.99L1456.96,1801.61L1455.14,1800.25L1452.58,1802.01L1450.85,1801.37L1444.84,1802.28L1438.84,1801.72L1431.61,1802.93L1431.72,1800.75L1432.54,1800.55L1433.05,1798.99L1429.81,1795.75L1426.76,1796.67L1424.12,1794.68L1423.72,1793.01L1422.3,1792.8L1422.22,1788.32L1418.65,1788.51L1415.79,1790.68L1412.64,1789.73L1410.3,1790.24L1407.25,1788.87L1404.7,1789.17L1399.74,1784.26L1399.65,1782.39L1398.33,1780.3L1392.63,1780.48L1391.09,1783.18L1388.24,1783.68L1386.19,1786.07L1384.56,1785.33L1383.44,1786.37L1381.51,1784.38L1382.75,1782.1L1382.46,1778.35L1380.03,1775.02L1378.1,1774.38L1376.47,1775.1L1372.31,1772.17L1369.76,1771.64L1365.8,1769.23L1366.42,1768.61L1365.72,1764.35L1363.18,1762.78L1363.81,1759.56L1361.88,1757.99L1363,1757.06L1364.02,1757.9L1365.86,1755.51L1363.42,1754.78L1363.24,1749.06L1362.12,1748.53L1362.94,1747.39L1360.92,1745.31L1361.33,1743.65L1360.63,1741.15L1361.14,1740.63L1363.07,1741.16L1363.99,1740.23L1363.7,1738.46L1364.31,1738.15L1362.78,1737.42L1361.98,1735.55L1366.57,1733.18L1364.34,1731.09L1366.49,1729.75L1366.08,1728.29L1368.24,1724.56L1366.61,1724.87L1364.58,1723.61L1359.68,1725.88L1358.15,1725.87L1356.51,1727.52L1353.04,1728.55L1347.03,1728.63L1344.17,1730.48L1342.24,1730.06L1338.67,1730.98L1337.76,1729.94L1335.62,1730.45L1335.01,1729.41L1329.81,1730.22L1328.38,1731.25L1324.71,1730.93L1323.18,1732.48L1318.8,1731.63L1318.69,1733.81L1316.96,1734.74L1314.31,1734.73L1311.25,1736.07L1310.03,1735.23L1306.67,1735.32L1304.52,1736.67L1305.53,1738.23L1300.95,1738.42L1300.84,1739.35L1297.47,1741.94L1295.63,1745.46L1290.43,1747.42L1290.52,1749.71L1289.5,1750.95L1285.94,1749.9L1283.89,1752.07L1280.73,1752.17L1279.11,1751.43L1275.13,1752.25L1274.73,1749.76L1273.41,1749.44L1272.8,1747.98L1267.41,1745.37L1265.27,1746.71L1261.81,1746.18L1258.76,1743.99L1261.11,1742.34L1264.98,1741.83L1265.29,1740.58L1266.72,1740.38L1267.44,1737.58L1269.59,1735.19L1270.21,1731.87L1271.23,1731.25L1270.83,1729.8L1272.05,1728.45L1270.53,1727.2L1271.25,1724.4L1268.71,1721.79L1269.84,1720.24L1270.16,1714.22L1268.95,1712.55L1261.12,1707.96L1255.3,1708.98L1253.68,1707.31L1249.3,1705.85L1247.67,1706.57L1246.95,1708.23L1245.63,1708.01L1244.92,1704.17L1244.21,1703.65L1245.03,1701.99L1242.5,1698.04L1243.83,1695.86L1241.9,1693.68L1239.96,1693.88L1236.71,1692L1233.65,1691.99L1231.91,1692.82L1230.39,1692.19L1227.63,1693.85L1224.76,1698.92L1222.42,1699.13L1219.46,1701.61L1218.84,1704.83L1216.38,1707.21L1205.8,1702.2L1196.62,1703.84L1194.39,1701.65L1188.27,1701.64L1182.17,1697.68L1177.79,1697.05L1172.18,1697.97L1171.16,1699.21L1168.51,1699.52L1162.79,1703.66L1162.08,1705.21L1158.92,1705.62L1154.52,1710.91L1152.59,1710.91L1148.3,1714.74L1145.45,1713.59L1144.23,1711.93L1136.58,1715.14L1132.61,1712.84L1118.96,1712.41L1116.72,1710.22L1113.97,1709.91L1111.32,1712.19L1108.46,1712.71L1105.1,1715.71L1102.55,1714.88L1098.58,1715.08L1097.36,1713.11L1096.44,1713.31L1091.04,1710.71L1090.54,1708.22L1089.52,1707.39L1085.44,1706.24L1080.04,1707.69L1078.41,1707.38L1076.37,1709.97L1076.47,1712.46L1077.79,1714.02L1077.69,1714.95L1073.82,1718.38L1072.39,1720.77L1070.86,1721.8L1068.41,1721.39L1061.79,1722.21L1061.79,1723.98L1058.22,1727.82L1054.14,1730.62L1052,1730.72L1052.42,1725.42L1053.95,1723.35L1053.95,1722L1051.91,1717.22L1048.65,1714.93L1048.04,1711.4L1048.76,1706.21L1047.03,1701.64L1047.44,1696.66L1046.01,1695.41L1043.57,1689.19L1047.85,1684.52L1053.87,1680.99L1057.13,1680.89L1059.99,1678.4L1060.6,1675.81L1059.18,1674.46L1059.99,1672.9L1057.85,1668.55L1058.67,1666.99L1058.37,1665.95L1059.18,1665.54L1058.16,1663.67L1058.68,1661.8L1058.06,1659.83L1058.78,1658.07L1057.86,1654.65L1054.2,1652.16L1055.52,1651.02L1056.14,1647.18L1057.56,1645.83L1057.26,1645L1059.1,1642.2L1059.81,1638.89L1058.69,1637.85L1058.59,1636.4L1057.57,1635.98L1058.29,1635.46L1057.57,1633.18L1056.96,1633.39L1057.37,1632.77L1056.55,1632.77L1056.35,1631.52L1055.03,1630.59L1055.54,1629.45L1054.82,1626.55L1052.58,1624.89L1052.58,1623.12L1050.34,1621.67L1050.04,1617.53L1048.51,1616.07L1049.32,1613.17L1048.41,1612.86L1049.12,1611L1048.31,1609.23L1049.12,1606.75L1047.49,1603.64L1048.41,1601.67L1046.27,1599.18L1047.29,1597.94L1045.56,1591.21L1041.48,1587.78L1039.75,1588.3L1037.81,1586.02L1036.07,1587.37L1033.62,1586.64L1030.46,1581.77L1029.03,1582.19L1027.91,1580.94L1027.61,1577.73L1026.28,1576.49L1026.38,1573.69L1024.14,1574.73L1023.32,1571.31L1019.95,1569.24L1020.16,1567.17L1017.4,1565.3L1015.87,1565.3L1015.46,1563.44L1013.73,1563.33L1013.73,1560.95L1012.71,1560.64L1013.42,1559.19L1012.3,1557.54L1012.81,1553.91L1009.34,1548.43L1009.24,1543.25L1005.26,1539.11L1006.59,1534.76L1007.1,1534.87L1006.69,1532.07L1008.53,1528.55L1008.53,1526.17L1010.06,1524.62L1010.26,1522.04L1012.2,1519.55L1012,1513.14L1011.29,1510.96L1010.47,1510.76L1010.27,1507.14L1009.55,1506.31L1010.27,1503.83L1009.76,1502.38L1011.8,1500.52L1010.78,1498.96L1012.31,1487.48L1011.7,1486.24L1013.13,1483.24L1012.31,1481.18L1014.05,1479.21L1013.44,1477.97L1014.87,1477.04L1015.99,1473.73L1015.59,1465.05L1016.4,1464.74L1016.91,1461.84L1017.94,1461.53L1017.02,1458.12L1019.68,1454.09L1018.35,1453.68L1019.27,1452.95L1018.96,1451.3L1020.7,1450.37L1020.29,1449.33L1020.9,1448.51L1019.37,1447.16L1021.82,1444.79L1020.8,1442.2L1021.42,1438.38L1019.88,1435.07L1018.15,1433.31L1018.76,1431.04L1017.84,1428.66L1019.58,1427.11L1019.38,1425.36L1018.97,1424.43L1015.9,1423.39L1015.39,1421.95L1015.49,1418.64L1013.55,1412.85L1014.78,1410.99L1011.2,1407.48L1008.44,1399.73L1006.49,1397.36L1003.63,1395.6L1003.73,1394.15L1002.4,1392.61L1003.02,1389.61L1001.18,1386.51L1001.69,1385.07L1003.73,1383.31L1003.02,1375.67L1004.55,1375.05L1003.63,1373.5L1004.55,1372.47L1003.43,1372.47L1003.63,1369.57L1005.17,1367.72L1005.37,1366.06L1006.29,1365.75L1005.99,1364.1L1007.83,1359.66L1007.52,1357.91L1009.16,1357.29L1009.47,1354.4L1011.62,1351.82L1010.9,1349.34L1012.23,1347.38L1010.39,1343.45L1012.44,1338.91L1010.9,1336.95L1012.44,1335.61L1011.72,1334.68L1012.23,1333.75L1009.78,1331.68L1010.59,1328.07L1009.16,1324.67L1006.71,1321.98L1005.37,1321.88L1005.07,1318.68L878.53,1318.77L878.22,1317.84L879.04,1316.7L877.91,1312.99L879.13,1312.06L878.62,1310.92L879.33,1309.48L878.72,1308.65L879.43,1306.79L877.79,1304.53L879.22,1303.29L879.73,1300.91L882.8,1295.95L882.49,1293.07L883.71,1291.72L883.3,1291L884.43,1290.9L884.43,1288.63L885.75,1285.74L885.65,1282.33L886.57,1281.4L886.05,1280.99L854.81,1281.04L853.59,1283.93L852.88,1289.6L775.56,1289.78L776.18,1290.91L775.77,1292.87L777.01,1295.55L774.05,1298.96L771.92,1305.27L770.49,1307.13L771.52,1310.74L771.43,1314.66L770.41,1316L770.52,1318.58L769.5,1320.24L770.32,1321.37L769.2,1322.4L770.02,1322.61L771.15,1325.08L771.36,1325.91L770.24,1327.36L771.16,1329.42L773.01,1330.45L772.4,1333.34L774.25,1334.57L773.84,1335.71L775.38,1336.94L773.85,1337.57L772.32,1340.36L769.36,1341.81L770.28,1344.18L769.27,1346.04L769.58,1347.69L768.05,1348.83L758.83,1348.86L757.41,1350.93L759.68,1357.43L761.22,1359.07L761.84,1362.58L760.92,1363.21L760.72,1365.37L759.6,1367.13L759.21,1370.96L756.96,1373.13L757.18,1378.5L754.74,1382.74L756.79,1384.18L756.39,1387.8L758.76,1393.06L698.92,1393.25L697.58,1389.44L696.65,1388.72L697.26,1386.75L696.02,1384.28L671.78,1384.78L671.92,1393.36L659.13,1393.41L658.63,1394.65L654.23,1396.01L651.67,1395.4L651.47,1394.68L649.32,1395.1L648.19,1393.04L646.44,1392.12L643.27,1392.44L640.81,1391.01L639.38,1391.11L637.54,1392.05L635.71,1394.44L632.85,1395.07L631.84,1397.35L629.8,1397.77L628.36,1396.53L627.04,1399.33L628.18,1403.56L614.89,1403.62L609.97,1402.2L604.14,1402.02L599.75,1403.18L597,1405.36L589.12,1403.74L584.72,1404.18L578.09,1407.31L573.38,1407.03L570.41,1405.28L569.17,1403.02L566.71,1402.1L566.5,1401.17L568.33,1398.17L569.46,1399.4L569.45,1398.06L566.36,1394.25L564.42,1394.06L564.29,1388.58L563.27,1389.41L562.75,1387.56L561.21,1387.88L561.41,1386.33L560.39,1386.23L559.76,1384.06L561.29,1382.09L560.87,1380.23L558.31,1380.14L558.29,1376.74L556.65,1376.64L555.84,1377.58L555.02,1377.17L556.24,1375.41L555.41,1374.58L553.78,1375.62L554.17,1370.98L548.95,1371.31L549.15,1369.66L547.4,1368.74L549.12,1364.81L547.38,1364.61L547.37,1362.96L546.14,1363.17L544.6,1362.25L545.62,1360.9L545.9,1356.05L545.08,1354.92L539.74,1352.88L536.97,1350.32L534.69,1345.68L535.18,1342.38L531.9,1341.05L530.25,1339.41L530.75,1337.55L533.51,1336.5L533.19,1334.95L530.22,1333.94L528.88,1332.5L527.87,1334.57L525.82,1334.58L525.2,1333.55L526.11,1331.59L525.39,1330.04L525.68,1326.84L522.09,1325.93L518.18,1323.38L517.25,1321.21L512.43,1320.73L512.32,1317.94L508.72,1315.28L510.23,1311.97L508.17,1309.6L508.47,1308.16L505.98,1301.88L507.2,1301.25L508.34,1303.1L509.67,1302.99L511.27,1296.69L508.81,1295.77L507.56,1292.99L504.8,1293.42L504.16,1289.82L505.69,1287.74L504.55,1285.69L505.45,1282.48L504.83,1280.84L501.53,1278.17L499.28,1279.11L497.64,1278.2L498.55,1276.75L498.43,1273.03L497.6,1271.8L495.66,1271.91L494.31,1269.96L493.86,1262.95L491.4,1262.24L489.84,1259.78L490.24,1257.2L489.2,1254.21L489.68,1250.08L486.8,1248.04L488.81,1241.83L484.17,1237.33L485.7,1235.46L483.01,1231.56L485.77,1230.51L485.87,1229.27L484.63,1228.04L481.76,1228.37L481.24,1227.34L482.96,1224.03L480.9,1222.39L482.44,1221.87L484.7,1222.88L485.61,1221.74L484.56,1216.39L483.73,1215.57L485.04,1211.64L483.69,1209.48L485.63,1207.51L486.43,1204.83L484.99,1204.11L484.98,1201.64L481.89,1198.98L479.63,1198.99L479.52,1197.34L476.65,1197.87L477.97,1196.32L477.76,1194.77L472.83,1193.98L472.93,1193.05L474.67,1193.04L475.48,1191.7L474.66,1190.67L471.69,1191.2L472.8,1189.75L473.3,1186.24L471.54,1184.3L473.38,1182.74L470.7,1181.93L471.38,1176.05L470.56,1174.92L468.3,1175.14L461.82,1171.99L459.37,1173.34L458.75,1172.21L457.12,1174.59L454.86,1174.71L451.17,1173.81L432.81,1173.83L392.31,1175.97L378.56,1174.42L351.9,1175.45L303.18,1175.43L278.07,1176.88L267.43,1179.76L258.08,1177.98L253.68,1179.05L241.98,1178.64L237.36,1177.55L236.93,1175.8L235.29,1175.1L232.84,1177.28L232.12,1176.78L230.8,1177.61L229.55,1176.08L226.58,1176.41L225.84,1173.84L224.81,1173.34L222.77,1174.49L222.66,1173.98L221.12,1174.4L221.01,1173.37L220.19,1173.17L218.25,1173.91L216.7,1173.21L216.09,1173.94L214.55,1173.64L212.51,1174.48L212.1,1173.97L210.36,1174.81L209.33,1174.51L209.63,1173.48L207.58,1173.5L206.23,1172.28L202.15,1174.79L183.1,1176.83L163.92,1176.92L163.62,1177.74L161.17,1178.8L160.44,1177.67L156.43,1176.37L154.38,1177.22L147.91,1176.25L146.9,1177.19L142.39,1177.65L141.19,1180.65L140.07,1181.39L135.03,1179.69L133.47,1178.26L126.58,1176.68L121.16,1178.08L115.45,1181.03L113.16,1178.16L108.02,1177.08L105.77,1177.73L103.34,1180.02L98.75,1182.13L89.02,1183.48L82.73,1189.52L77.52,1191.54L65.44,1193.53L52.78,1198.31L45.93,1199.84L41.61,1198.96L39.64,1197.43L42.79,1194.41L42.15,1192.35L36.01,1184.69L31.25,1180.72L24.9,1173.37L21.77,1168.67L23.49,1166.48L27.08,1166.44L29.63,1165.38L55.17,1165.09L54.98,1103.24L54.06,1103.66L53.43,1102.12L51.7,1103.38L49.72,1101.14L48.7,1101.25L49.2,1099.9L47.65,1099.1L48.56,1097.95L47.83,1096.93L51.2,1095.35L51.9,1093.59L54.15,1093.46L54.58,1094.48L57.32,1092.39L58.16,1093.41L58.25,1092.28L60.08,1090.92L60.5,1091.53L61,1090.8L62.65,1090.99L62.53,1089.55L63.34,1089.13L64.54,1085.82L64.31,1083.35L65.23,1083.64L66.56,1082.81L68.63,1084.33L69.86,1084.31L70.57,1083.59L72.31,1083.26L73.14,1083.87L73.96,1083.24L74.86,1081.27L74.73,1079.21L77.27,1076.71L77.97,1074.95L78.6,1075.66L78.8,1075.04L80.65,1075.43L81.65,1072.74L83.39,1072.52L83.27,1071.18L82.56,1071.5L82.85,1070.26L84.78,1068.18L84.86,1065.8L85.67,1064.87L86.6,1065.48L87.2,1064.03L86.58,1063.72L87.49,1062.48L89.56,1063.79L89.13,1062.46L91.89,1060.88L94.57,1062.19L96.7,1059.39L97.63,1059.79L98.85,1058.75L99.47,1059.05L100.38,1057.8L103.25,1057.36L105.52,1058.67L107.74,1054.53L110.22,1055.95L112.69,1055.92L113.8,1054.67L112.65,1052.42L112.2,1048.81L113.12,1048.6L112.89,1046.44L114.42,1044.98L116.79,1046.09L121.49,1053.46L125.86,1058.25L128.23,1059.77L130.53,1062.95L141.05,1067.27L140.76,1069.23L141.81,1071.49L141.11,1073.35L147.23,1078.85L147.41,1077.2L146.57,1075.25L144.82,1074.44L145.22,1073.41L147.89,1073.48L149.21,1072.13L150.96,1072.53L150.43,1070.99L151.13,1068.71L153.37,1067.14L155.37,1061.45L158.66,1062.45L158.68,1063.79L160.13,1065.73L162.82,1067.36L166.29,1065.26L166.57,1062.47L167.8,1062.15L166.04,1060.21L167.17,1060.82L169.22,1060.28L170.47,1062.33L171.71,1062.32L172.33,1063.45L172.73,1061.69L174.26,1061.06L171.66,1057.68L173.29,1056.84L175.56,1057.64L176.79,1056.91L176.55,1054.03L173.24,1051.69L173.74,1050.35L176.1,1049.91L175.15,1047.34L175.97,1047.23L177.18,1045.06L176.74,1041.76L177.83,1038.14L177.3,1035.68L176.37,1034.96L176.34,1032.18L177.34,1030.11L180.02,1030.09L182.15,1027.9L184.51,1027.57L185.65,1028.48L186.67,1027.96L188.95,1029.79L187.94,1031.04L189.18,1032.47L190.41,1031.94L189.93,1035.24L192.61,1036.56L194.86,1035.71L196.32,1037.24L199.3,1037.21L200.42,1036.59L200.31,1035.66L201.03,1036.17L201.95,1035.64L202.25,1034.3L205.4,1031.08L205.09,1030.26L205.9,1029.22L209.98,1026.19L212.03,1025.55L215.02,1026.66L220.34,1024.03L221.79,1025.15L222.91,1024.83L224.65,1023.79L224.54,1022.76L226.6,1023.15L228.12,1021.38L229.36,1021.78L230.79,1021.15L231.29,1019.29L234.35,1016.69L236.61,1017.39L236.4,1016.57L237.32,1015.94L237.63,1016.56L238.35,1015.83L241.02,1016.22L240.9,1014.05L246.02,1012.25L246.85,1013.28L246.77,1015.13L244.74,1018.14L245.56,1018.65L245.17,1020.3L248.49,1024.49L254.28,1028.67L249.61,1034.48L249.52,1036.23L246.24,1036.78L244.51,1038.13L244.31,1039.47L241.84,1038.98L241.04,1040.74L244.57,1045.35L245.22,1048.84L247.28,1049.44L248.11,1050.67L246.56,1060.37L247.72,1063.87L245.99,1066.15L246.84,1069.03L246.25,1072.23L247.93,1075.82L250.27,1073.74L252.73,1072.79L254.45,1070.71L256,1070.7L257.24,1071.72L262.99,1072.59L266.01,1076.59L272.18,1078.39L277.3,1076.7L284.14,1071.07L291.19,1067.82L297.95,1053.33L306,1045.64L306.81,1043.57L310.87,1038.59L312,1038.58L318.73,1032.45L321.77,1026.86L325.65,1023.22L325.52,1020.75L327.65,1016.4L334.21,1015.32L336.76,1012.62L341.16,1010.52L348.99,1012.11L351.86,1011.06L356.45,1006.9L357.02,1001.02L358.75,998.53L360.03,991.62L363.9,987.06L375.59,982.64L389.76,980.48L395.71,978.68L398.27,977.63L400.31,975.45L402.72,966.99L406.56,958.51L409.82,953.95L413.76,943.82L419.06,936.57L422.39,927.79L428.4,919.3L430.33,915.37L431.43,910.62L431.42,908.66L428.1,905.6L427.77,902.3L428.67,898.89L426.98,891.28L427.15,886.95L429.06,880.24L427.74,867.88L430.51,850.65L433.43,842.17L432.98,836.3L426.73,810.47L428.89,794.16L434.81,786.6L447.43,778.68L449.98,774.33L453.98,771.73L461.96,762.91L467.78,753.8L476.64,736.52L478.86,729.49L484.97,715.73L491.29,705.07L498.26,697.19L506.26,689.61L523.64,679.29L526.41,678.04L536.72,675.92L546.49,671.12L565.55,645.73L570.17,640.96L576.45,637.83L580.14,632.55L581.67,628.82L584.68,611.46L584.56,606.51L580.5,599.71L579.23,595.28L580.43,586.08L586.26,575.31L590.3,556.08L595.1,544.58L597.67,541.68L606.42,535.23L609.19,529.53L609.97,519.19L606.94,513.73L602.17,510.34L599.88,505.8L599.83,496.08L601.86,488.42L601.21,482.01L597.03,473.97L596.6,468.59L597.5,462.27L605.51,450.13L610.06,429L620.33,410.42L620.96,389.71L619.79,383.91L619.44,375.21L621.68,366.19L620.19,357.18L622.52,346.5L622.28,337.9L624.94,331.25L630,327.18L635.87,318.24L635.35,317.31L636.65,307.76L645.02,302.02L647.7,298.38L649.85,292.87L654.07,285.8L657.14,274.58L664.24,261.16L668.13,249.82L675.68,243.98L678.66,236.49L677.8,229.22L678.92,223.92L677.65,216.75L677.73,210.83L676.88,206.57L675.11,203.88L674.55,192.65L671.89,176.96L673.54,172.69L673.82,165.2L675.26,161.13L678.98,158.93L680.22,155.18L677.16,141.98L673.38,131.89L669.2,124.62L668.24,120.35L674.25,115.12L676.12,116.68L686.19,115.29L692.92,109.64L695.29,104.94L697.64,93.36L702.72,90.12L703.64,86.57L707.17,85.62L709.13,81.96L708.92,80.61L717.32,73.7L717,71.3L719.38,68.58L722.16,62.94L722.67,60.23L725.88,55.84L731.18,54.57L734.4,55.81L735.75,55.39L739.16,48.8L750.27,43.34L751.2,42.09L752.86,41.56L753.79,39.16L759.19,35.59L765.74,36.41L770.2,33.58L774.36,33.67L778.94,35.65L781.43,34.49L786.83,34.06L790.17,35.93L795.57,37.06L797.97,38.42L800.88,38.1L804.01,42.16L804.64,45.29L810.16,50.91L812.03,51.43L815.04,50.9L820.04,52.14L824.1,55.89L825.14,55.78L830.24,59.32L832,59L837.2,60.35L839.8,62.64L840.33,65.14L845.33,71.07L846.47,70.65L848.13,72.11L855.83,73.35L859.36,76.78L861.25,83.76L865.09,85.95L867.07,88.55L867.59,90.74L865.63,94.49L867.4,96.37L867.92,99.28L869.48,99.91L874.58,106.67L879.57,110.21L881.85,109.58L883.1,110.41L883.93,109.68L886.73,109.15L887.77,109.67L895.25,108L898.99,108.2L901.69,109.24L906.16,106.94L906.67,105.9L908.02,106.42L911.56,105.89L913.01,107.14L917.79,106.72L931.19,111.5L933.79,114.1L934.83,117.54L938.67,118.89L941.48,121.28L943.04,120.76L945.32,122.84L946.47,122.84L948.23,120.97L948.96,118.36L952.49,117.22L960.8,123.67L963.39,123.88L969.21,122.62L972.84,125.54L977.41,125.85L978.87,126.68L981.67,126.58L983.64,124.49L988.21,122.72L990.81,120.54L993.51,121.89L995.27,121.06L996.31,122.41L997.66,121.06L999.74,120.64L1001.4,122.1L1007.53,123.35L1012.41,127.41L1014.38,126.99L1021.44,128.76L1026.74,127.52L1030.89,129.81L1037.02,130.64L1040.55,132.94L1044.18,137L1047.81,138.98L1053.83,141.17L1056.95,141.07L1061.52,140.03L1066.09,140.66L1069.1,139.62L1073.46,139.52L1077.41,137.02L1080.21,133.38L1083.75,130.89L1084.37,127.76L1082.92,126.41L1083.55,123.18L1086.77,117.35L1089.37,116.62L1089.27,115.37L1091.14,114.44L1090.2,112.88L1088.85,113.08L1088.85,112.25L1087.61,112.25L1087.19,110.16L1088.65,109.23L1089.07,107.87L1088.55,103.5L1090.94,102.04L1093.54,102.57L1094.27,101.73L1095.62,101.73L1097.38,104.55L1100.08,103.62L1100.4,98.41L1103,95.18L1103.32,87.88L1107.28,81.95L1108.32,78.72L1109.77,77.47L1111.85,77.47L1114.24,80.29L1116.32,79.46L1117.47,76.33L1120.27,74.67L1120.27,73.62L1119.03,72.79L1118.93,70.81L1120.18,68.62L1121.53,67.89L1124.75,68.21L1127.25,65.81L1129.22,67.28L1132.02,74.37L1137.21,76.46L1138.66,78.03L1142.09,79.18L1147.29,76.17L1148.85,76.07L1151.02,77.53L1152.68,80.66L1154.96,82.85L1158.39,83.49L1159.53,87.24L1161.19,86.93L1165.13,89.96L1168.15,89.34L1170.32,91.74L1174.69,91.54L1175.62,90.5L1175.22,86.54L1176.05,84.88L1178.96,82.59L1183.54,82.6L1188.95,78.34L1189.68,76.57L1192.39,74.07L1200.91,73.78L1204.97,71.39L1211.62,71.51L1217.55,66.41L1218.9,67.04L1219.83,68.71L1223.58,66.64L1225.34,67.06L1226.07,68.1L1230.33,69.06L1230.85,66.35L1230.03,64.88L1230.97,62.28L1234.81,62.18L1235.85,63.44L1238.34,63.76L1240.22,62.83L1240.12,61.16L1246.47,57.73L1249.06,60.24L1250.41,60.56L1252.07,59.83L1253.33,56.92L1258.64,53.7L1260.4,54.02L1259.98,55.89L1262.69,56.11L1263.63,54.34L1262.7,52.04L1264.26,49.75L1265.51,49.03L1268.22,49.24L1269.88,48.21L1272.89,48.53L1276.23,45.72L1274.89,43.73L1271.97,44.66L1270.42,43.3L1270.73,42.47L1272.71,41.75L1272.82,39.35L1274.28,37.58L1277.5,38.73L1280.71,43.55L1281.75,43.24L1282.17,41.78L1280.93,39.58L1283.43,38.44L1288.51,40.75L1290.49,40.76L1292.04,44L1294,45.99L1299.3,47.05L1300.74,52.07L1304.58,52.6L1304.89,54.9L1303.52,57.92L1305.49,59.07L1309.34,58.67L1310.06,60.45L1312.97,60.25L1314.54,58.79L1314.43,60.25L1316.09,60.47L1317.87,57.24L1323.17,57.36L1324.52,56.12L1324.53,54.34L1329.73,54.57L1330.67,52.18L1334.42,50.84L1337.84,52.41L1338.46,53.98L1341.99,54.41L1343.96,56.93L1345.31,57.35L1347.93,51.73L1351.78,50.91L1351.47,48.51L1353.66,47.89L1354.6,46.54L1356.36,49.47L1358.64,49.79L1359.48,48.23L1362.18,48.55L1364.99,46.89L1371.86,46.19L1372.9,45.05L1372.4,41.5L1374.7,38.27L1375.13,33.79L1372.85,34.09L1370.99,29.8L1373.18,28.14L1373.83,22.51L1375.09,20.63L1375.82,20.01L1376.86,20.64L1378.11,19.39L1377.8,18.14L1376.35,18.55L1376.14,17.51L1379.06,16.79L1379.9,15.22L1379.38,14.49L1380.42,14.91L1381.13,17.42L1382.9,17.33L1382.59,16.28L1383.74,15.87L1384.16,14.2L1384.99,14.62L1385.41,13.79L1386.76,14.32L1387.91,13.8L1388.65,11.92L1390.82,13.92L1394.88,12.58L1395.61,11.95L1394.16,10.49L1394.38,8.92L1396.04,10.29L1399.26,10.41L1399.04,12.18L1400.39,13.54L1402.78,12.93L1403.82,13.46L1400.9,15.74L1403.39,16.17L1404.53,18.05L1405.25,17.95L1404.64,16.7L1405.06,15.55L1406.52,15.24L1407.55,15.88L1407.44,17.86L1408.48,16.92L1409.31,17.97L1412.43,18.3L1413.35,21.65L1415.53,21.66L1415.83,24.79L1420.2,22.93L1418.54,21.88L1420.63,20.95L1421.45,23.36L1420.3,24.81L1423.73,23.89L1422.16,26.81L1423.51,26.71L1424.95,29.95L1426.2,29.12L1426.52,27.35L1427.88,26.52L1430.37,26.54L1430.05,28.31L1432.03,28.94L1432.63,32.39L1433.89,31.25L1432.86,28.53L1435.14,29.07L1436.19,28.03L1438.57,29.6L1439.09,29.19L1438.27,28.56L1438.48,27.52L1440.37,24.29L1441.5,26.59L1442.23,25.24L1443.38,25.45L1443.78,28.17L1446.69,28.29L1448.05,26.63L1447.83,28.4L1449.28,29.77L1449.81,27.37L1451.58,27.17L1452.2,28.32L1452.72,27.8L1452.32,24.67L1453.57,24.36L1454.09,25.41L1454.92,25.41L1454.82,24.57L1456.8,23.33L1456.29,22.29L1457.01,22.19L1459.71,23.14L1459.08,25.02L1459.8,25.54L1462.2,24.3L1462.4,26.81L1463.76,24.62L1464.38,24.94L1464.48,26.61L1465.41,27.45L1464.37,27.76L1465.5,29.02ZM1465.5,29.02L1465.39,29.96L1465.5,29.02Z" fill-rule="evenodd" fill="#4682b4" fill-opacity="0.471"/>
<polyline points="1465.5,29.02 1465.92,28.08 1467.28,27.88 1467.16,30.49 1468.83,29.14 1469.65,30.29 1468.71,31.65 1472.55,32.29 1471.92,33.44 1473.38,33.13 1473.78,35.43 1475.03,34.81 1475.04,33.87 1476.28,35.65 1476.7,34.4 1478.15,34.83 1479.2,33.48 1480.54,35.26 1483.04,34.44 1483.86,37.37 1484.7,36.12 1485.74,36.13 1485.62,37.48 1486.56,37.07 1486.24,38.32 1488.01,38.02 1488.73,39.17 1488.1,40.42 1489.56,39.8 1490.08,40.53 1489.75,43.25 1490.78,43.98 1491.41,43.05 1491.72,43.88 1492.76,43.58 1492.85,45.35 1494.21,44.21 1494.83,45.26 1496.08,44.54 1497.22,45.48 1498.48,42.67 1498.68,45.28 1499.2,44.03 1499.93,44.04 1499.42,43.2 1500.15,41.95 1501.49,43.42 1502.34,41.34 1503.27,42.07 1503.69,41.14 1504.62,42.29 1506.6,40.63 1507.23,41.05 1506.6,41.88 1507.43,41.99 1507.32,43.25 1507.94,43.46 1508.57,42.73 1508.05,41.58 1508.99,41.59 1509.31,40.65 1510.75,42.33 1513.25,41.4 1513.68,39.94 1514.61,40.99 1516.7,39.34 1517.62,40.59 1518.05,39.45 1518.46,40.18 1520.54,39.15 1520.85,39.88 1522.73,39.16 1522.61,41.56 1524.17,41.16 1524.47,42.2 1523.75,42.41 1525.08,44.29 1526.43,44.61 1526.33,45.45 1528.2,45.46 1529.03,44.32 1531,45.27 1531.51,46.73 1533.18,46.85 1534.53,45.81 1535.08,42.48 1536.11,42.9 1537.26,42.18 1536.96,40.72 1537.69,40.62 1538.95,37.49 1539.68,37.6 1539.9,35.83 1548.14,31.91 1549.07,32.34 1549.18,31.3 1551.99,30.69 1551.79,30.06 1555.85,28.94 1562.5,29.71 1570.68,34.88 1574.11,35.11 1577.21,36.91 1580.12,37.24 1581.57,38.51 1592.66,43.17 1593.48,45.06 1592.64,46.31 1593.34,50.28 1599.96,55.12 1599.32,57.41 1599.93,59.19 1600.97,58.99 1603.87,60.57 1605,62.56 1614.04,62 1614.86,63.26 1616.73,63.9 1617.85,66.31 1619.4,67.57 1619.08,68.92 1620.11,70.29 1619.47,72.68 1622.06,73.33 1622.8,71.98 1627.05,73.26 1626.73,74.4 1627.77,74.93 1626.82,76.38 1627.96,77.23 1627.22,78.68 1627.83,79.94 1626.14,83.57 1627.28,84.31 1629.11,89.43 1628.57,92.14 1630.96,92.37 1633.65,93.74 1634.36,95.83 1639.22,99.41 1642.75,99.65 1645.07,95.18 1648.17,97.71 1648.9,97.09 1653.15,98.58 1655.43,98.28 1654.13,105.78 1657.63,109.45 1658.55,112.17 1659.69,111.65 1659.71,110.09 1661.79,109.17 1663.86,110.65 1664.8,109.61 1665.82,111.39 1664.66,113.88 1668.29,115.37 1671.58,119.14 1676.66,119.6 1677.82,118.26 1686.85,118.95 1688.8,121.99 1689.8,126.27 1691.67,125.87 1693.53,126.72 1698.11,125.5 1701.05,122.4 1701.06,121.05 1702.42,119.5 1701.91,118.87 1703.47,118.15 1703.9,116.6 1706.82,115.79 1710.86,116.13 1712.87,112.3 1715.46,112.63 1719.94,111.31 1719.64,110.37 1723.32,105.3 1722.5,103.73 1722.92,102.9 1724.48,102.7 1725.53,101.46 1724.81,100.73 1726.07,99.49 1727,100.12 1729.91,99.42 1731.8,97.56 1733.66,98.41 1733.65,99.45 1734.68,99.98 1735.08,102.27 1734.33,104.56 1736.09,105.83 1738.79,106.27 1741.08,105.14 1744.91,106.84 1746.27,105.92 1747.3,106.76 1749.28,106.05 1753.33,106.19 1754.17,104.94 1757.8,105.39 1758.51,107.38 1760.06,108.54 1762.76,108.67 1762.22,111.27 1768.13,111.63 1768.22,113.3 1769.77,114.15 1770.48,115.82 1771.21,115.62 1774.82,118.57 1775.01,120.24 1776.56,121.19 1780.32,119.77 1780.96,117.59 1780.34,116.75 1782.23,115.2 1784.09,116.26 1784.92,115.64 1785.85,116.9 1790.12,115.48 1791,110.18 1792.47,107.9 1796.11,107.62 1799.05,104.73 1800.74,101.83 1800.46,98.39 1803.82,94.56 1803.45,89.35 1802.54,87.46 1802.86,86.74 1803.68,87.47 1804.2,86.96 1805.27,84.57 1807.44,85.11 1807.53,86.47 1809.8,88.78 1812,87.03 1812.92,88.08 1814.59,87.89 1816.75,89.37 1819.05,88.46 1822.57,89.85 1822.87,91.1 1828.04,92.92 1827.82,94.07 1831.73,97.96 1833.52,96.1 1836.71,98.84 1837.65,98.33 1840.03,98.98 1837.07,104.47 1838.31,105.32 1836.9,111.66 1837.14,118.44 1840.13,120.24 1841.46,122.44 1847.81,121.15 1853.07,125.16 1854.5,127.36 1852.71,129.63 1853.12,130.16 1852.06,132.13 1855.04,135.59 1856.6,135.09 1860.33,135.75 1860.41,138.77 1863.78,143.7 1871.86,146.28 1874.46,145.26 1875.06,147.77 1874.62,150.05 1875.24,150.69 1874.28,152.55 1877.89,155.4 1878.48,157.8 1877.53,159.66 1879.56,164.26 1880.39,164.68 1881.54,163.86 1882.05,164.7 1884.45,163.17 1885.59,163.39 1886.22,162.35 1888.28,164.35 1888.15,166.74 1889.82,165.51 1891.79,166.47 1893.35,165.76 1893.86,166.91 1896.34,167.87 1897.05,169.13 1898.4,169.14 1900.03,171.97 1901.9,171.99 1903.58,170.24 1905.81,175.36 1908.51,175.07 1912.47,173.14 1912.87,174.6 1914.54,174.31 1914.51,177.32 1915.33,177.54 1916.14,179.73 1917.33,185.05 1916.34,190.14 1916.73,192.33 1914.81,196.88 1915.43,197.61 1921.43,199.24 1928.01,195.36 1932.55,197.49 1933.5,195.63 1935.78,196.17 1936.14,192.23 1937.6,191.31 1939.95,194.24 1939.71,197.67 1940.61,200.7 1942.48,200.72 1942.67,201.76 1943.6,201.98 1945.27,201.79 1946.39,203.05 1946.68,205.44 1945.3,207.82 1945.05,211.56 1947.22,212.73 1950.05,210.16 1954.72,209.9 1954.08,221.02 1952.2,222.14 1952.28,223.49 1948.93,226.78 1949.41,229.69 1947.43,230.71 1946.58,232.67 1947.09,233.3 1943.65,235.03 1943.93,237.53 1942.78,238.66 1942.75,241.15 1939.77,248.18 1938.86,255.13 1936.14,256.86 1937.46,259.89 1939.62,261.57 1941.89,262.01 1942.08,263.57 1945.37,266.31 1945.23,269.84 1946.26,270.47 1946.95,273.7 1948.28,274.75 1948.57,277.25 1947.89,281.7 1945.15,286.03 1943.18,286.42 1942.43,288.07 1941.5,288.27 1941.89,290.46 1939.89,292.61 1940.19,293.96 1937.65,299.02 1938.05,300.17 1936.77,303.16 1933.85,305 1934.9,313.1 1934.57,314.34 1933.32,314.84 1932.65,319.4 1933.76,322.42 1936.47,320.48 1939.67,322.07 1942.26,321.79 1943.77,326.37 1946.24,327.85 1947.14,330.76 1949.51,331.72 1950.13,331.83 1950.35,330.8 1952.83,331.24 1954.1,328.77 1953.39,327.41 1954.77,324.63 1955.18,325.25 1957.57,324.24 1960.26,325 1960.97,326.25 1967.03,330.68 1966.5,331.71 1968.13,334.32 1967.08,335.03 1967.28,335.66 1971.08,338.4 1972.84,339.25 1973.89,337.29 1976.06,337.94 1980.33,336.53 1980.24,343.58 1987.86,348.13 1986.58,351.02 1983.98,351.92 1984.05,354.41 1982.49,355.43 1979.48,355.39 1975.28,360.84 1968.82,363.66 1958.9,370.8 1959,371.94 1957.43,373.17 1955.37,372.42 1952.24,374.25 1950.66,376.2 1949.42,376.19 1939.04,388.09 1934.25,389.79 1932.37,391.85 1930.67,395.87 1922.53,401.27 1922.01,402.09 1922.61,404.06 1915.51,409.06 1912.6,410.27 1910.08,413.87 1906.74,416.32 1904.89,424.99 1902.79,427.45 1901.03,427.85 1899.64,431.66 1895.37,434.72 1891.59,439.03 1893.26,438.22 1892.32,438.94 1892.09,440.9 1892.19,441.42 1893.23,440.81 1892.49,442.04 1893.52,442.47 1897.04,442.19 1897.99,441.07 1898.39,442 1899.02,441.28 1902.96,441.01 1903.05,442.26 1901.27,444.1 1900.94,445.55 1901.87,445.45 1901.55,446.9 1903.94,445.79 1905.88,447.77 1903.51,447.33 1901.84,448.45 1900.39,448.23 1898.31,449.35 1897.39,448.61 1895,449.62 1891.81,448.14 1889.81,450.81 1889.27,453.49 1888.04,452.76 1886.89,453.37 1886.6,451.71 1885.46,452.11 1884.95,451.07 1882.35,452.08 1881.71,453.93 1878.91,455.25 1879.7,457.95 1877.92,460.72 1878.53,461.45 1877.59,462.79 1878.2,463.1 1877.27,463.3 1878.19,464.76 1877.42,468.58 1878.66,468.7 1877.31,469.51 1877.92,470.34 1877.19,470.65 1876.58,469.91 1876.68,470.64 1875.95,470.74 1876.77,471.57 1875.33,471.04 1875.31,472.49 1874.29,471.65 1874.48,472.58 1873.35,472.57 1874.47,473.41 1873.34,473.29 1874.16,473.92 1873.74,474.33 1872.92,473.6 1873.43,474.74 1872.6,474.63 1872.27,476.7 1871.54,477.1 1872.36,477.73 1871.94,478.66 1871.01,477.93 1871.21,479.27 1870.9,478.75 1870.17,479.36 1870.37,480.5 1868.19,480.9 1867.99,479.96 1867.47,480.58 1866.34,479.64 1865,479.73 1864.26,480.86 1861.89,480.73 1860.63,482.16 1858.66,482.35 1857.1,483.68 1855.13,483.66 1854.19,484.79 1853.16,484.47 1850.3,491.57 1851.71,495 1850.97,496.85 1851.03,500.58 1849.22,505.93 1851.14,510.3 1850.69,513.5 1852.03,514.54 1851.39,515.78 1851.78,518.68 1840.48,531.79 1834.88,554.68 1829.71,554.84 1829.49,556.38 1826.16,558.93 1826.12,562.55 1824.04,564.18 1824.55,565.32 1824,568.21 1825.23,569.98 1825,572.04 1826.93,574.75 1825.37,575.97 1825.64,579.9 1822.55,579.77 1820.45,583.26 1816.7,585.7 1811.95,586.07 1801.18,589.27 1797.72,594.61 1794.73,604.8 1789.93,609.92 1788.98,612.7 1789.26,615.9 1787.59,617.85 1786.94,620.73 1784.57,620.09 1782.29,621.52 1782.17,622.75 1784.52,624.94 1784.9,628.66 1782.32,629.05 1780.74,631.72 1781.25,633.07 1782.18,633.18 1782.49,632.26 1784.46,631.65 1785.78,633.73 1787.73,634.99 1788.4,641.09 1786.85,641.69 1787.55,643.66 1788.91,641.61 1789.83,642.85 1790.56,641.83 1790.16,640.9 1792.54,639.37 1792.76,638.34 1791.84,637.3 1792.97,637.52 1792.78,636.48 1793.81,636.49 1793.62,635.25 1794.96,634.75 1795.28,633.51 1799.18,636.34 1798.85,637.98 1799.57,638.61 1802.99,636.79 1802.8,635.54 1805.48,636.19 1807.55,635.8 1812.78,628.62 1813.22,625.11 1815.21,623.07 1815.33,621.31 1820.42,618.06 1819.55,622.29 1820.06,622.91 1818.91,624.55 1819.09,627.24 1817.33,627.43 1817.01,628.76 1817.4,630.63 1818.33,631.26 1816.55,633.2 1817.86,636.21 1813.96,644.74 1814.54,648.66 1813.98,653.82 1815.4,656.52 1813.91,660.73 1815.01,664.67 1809.75,664.62 1809.22,665.23 1810.34,667.51 1809.7,668.85 1810.29,671.95 1811.21,672.99 1810.9,673.61 1809.66,673.08 1809.32,676.89 1810.01,680.41 1808.59,687.72 1809.49,690.93 1808.02,694.01 1811.59,697.76 1809.99,703.11 1811.5,707.66 1809.56,715.38 1806.37,714.83 1802.95,717.17 1802.21,719.02 1799.93,720.34 1795.02,726.9 1785.94,727.12 1784.99,730 1783.33,731.02 1780.91,735.94 1776.13,739.41 1775.5,741.57 1773.52,743.4 1773.39,746.7 1771.24,744.72 1765.9,742.82 1764.79,739.82 1762.62,740.62 1762.12,739.17 1760.36,739.36 1758.2,738.42 1757.4,736.14 1755.35,734.68 1753.6,734.56 1752.77,735.27 1751.92,738.36 1750.78,738.25 1751.91,739.29 1751.58,741.55 1750.22,743.3 1750.39,747.11 1752.28,743.62 1753.93,743.54 1754.46,741.58 1755.08,742.2 1754.99,740.04 1755.82,739.63 1755.92,740.46 1757.69,738.41 1758.3,738.83 1757.96,742.13 1759.31,741.42 1758.99,743.07 1757.74,744.5 1757.12,744.29 1757.11,745.11 1756.08,745 1756.18,745.93 1755.26,745.09 1755.74,748.3 1754.82,748.08 1753.97,750.14 1752.11,751.25 1752.61,752.5 1751.26,753.52 1750.55,752.79 1750.03,753.19 1750.54,753.51 1749.81,755.15 1750.52,755.67 1749.07,756.59 1749.99,757.32 1751.66,755.89 1751.43,758.47 1747.9,761.22 1747.23,766.47 1746.41,766.57 1746.29,768.22 1744.63,768.82 1744.83,770.16 1743.6,769.74 1743.68,771.29 1744.71,772.33 1742.95,772.62 1742.01,774.37 1740.88,774.25 1741.17,775.8 1739.01,775.37 1739.72,776.62 1737.62,781.34 1738.43,783.2 1739.77,782.91 1741.34,779.52 1741.06,777.25 1742.4,776.95 1745.74,783.37 1740.66,787.14 1740.23,789.2 1739.31,788.06 1738.38,788.36 1737.85,790.11 1736,789.47 1733.29,792.75 1734.31,794.1 1736.07,792.87 1735.88,792.15 1737.21,792.16 1738.65,792.59 1738.33,794.03 1739.47,793.73 1736.05,796.07 1734.93,794.62 1734.41,794.92 1734.4,796.37 1736.04,796.79 1735.61,798.33 1732.73,798.31 1734.06,799.25 1733.34,799.55 1733.95,799.97 1733.12,801.1 1734.55,801.83 1735.04,805.03 1735.55,805.24 1737.01,803.19 1736.59,804.63 1737.21,804.64 1738.57,801.56 1739.6,802.29 1741.66,802 1740.83,802.61 1741.34,803.85 1740.3,804.97 1740.49,806.42 1739.45,807.75 1738.52,807.64 1739.55,808.06 1738.82,808.67 1739.44,808.68 1739.02,809.91 1737.06,810.1 1737.24,812.16 1738.08,810.83 1738.9,811.15 1740.89,807.45 1741.3,807.87 1740.05,809.51 1740.66,809.82 1741.61,807.98 1743.68,806.55 1744.52,804.39 1745.87,803.68 1745.64,805.85 1744.82,805.84 1745.54,806.36 1745.01,807.59 1743.47,807.06 1744.7,808.31 1743.76,808.92 1744.47,810.27 1744.05,811.92 1739.2,812.28 1734.95,815.44 1732.58,815.53 1731.83,818.92 1730.89,819.84 1731.25,826.75 1732.57,828.51 1732.68,827.48 1733.51,827.18 1732.88,828.72 1735.67,827.61 1735.56,828.54 1736.69,827.93 1736.27,829.47 1734.72,829.87 1733.47,831.92 1736.43,834.84 1737.23,837.21 1737.89,843.82 1736.95,845.25 1738.29,845.88 1739.1,847.54 1740.85,847.55 1741.66,848.8 1743.3,848.92 1744.32,849.96 1745.05,849.03 1747.01,849.46 1751.09,853.11 1751.7,854.04 1751.38,855.89 1750.24,855.78 1747.65,858.03 1747.62,861.01 1750.59,862.69 1752.56,861.88 1754.49,864.99 1754.47,866.44 1756.93,867.8 1756.5,870.37 1757.3,872.44 1760.59,873.4 1762.01,875.16 1763.55,875.48 1764.86,878.8 1764.54,880.24 1765.47,879.83 1768.32,883.05 1770.59,882.76 1771.61,883.39 1771.09,884.01 1773.13,885.78 1772.91,887.32 1773.73,887.64 1773.41,889.49 1773.92,889.49 1772.57,890.62 1773.89,892.59 1772.23,894.01 1770.23,898.94 1770.95,899.67 1770,901.31 1771.12,902.76 1770.29,904.3 1771.79,908.44 1770.43,910.59 1768.89,911.09 1769.57,914.7 1768.74,915.62 1768.93,917.07 1766.68,916.43 1763.48,916.92 1761.49,920.92 1761.67,923.49 1760.22,925.03 1760.4,927.81 1761.51,929.99 1760.98,931.73 1762.2,933.6 1762.07,936.38 1762.78,937.31 1761.5,942.45 1762.21,943.7 1762.07,948.13 1762.88,949.58 1759.14,953.67 1759.43,955.73 1758.08,956.75 1757.64,959.73 1756.6,961.17 1759.46,963.77 1759.85,965.21 1758.8,967.68 1756.41,970.33 1757.84,972.1 1756.58,974.36 1757.68,977.77 1757.65,981.06 1757.21,984.46 1755.97,985.48 1755.43,988.15 1755.8,992.38 1756.72,993.52 1756.38,996.82 1755.34,998.35 1756.05,999.6 1755.43,1000.11 1757.75,1004.04 1757.42,1007.03 1755.96,1009.59 1752.55,1011.42 1752,1014.92 1754.56,1016.69 1755.49,1015.98 1756.29,1017.63 1760.09,1018.6 1761.43,1018.2 1762.71,1012.33 1766.5,1002.78 1768.32,994.45 1769.78,992.2 1769.91,989.93 1771.36,989.02 1773.07,992.95 1773,1000.68 1771.2,1006.02 1768.48,1021.87 1767.33,1024.23 1766.88,1028.96 1768.04,1036.29 1766.8,1037.62 1764.98,1034.72 1762.4,1035.62 1762.59,1037.17 1761.54,1039.32 1762.36,1039.54 1762.04,1040.67 1758.62,1044.04 1756.83,1049.38 1757.7,1055.78 1755.58,1062.97 1755.66,1065.55 1756.36,1066.58 1756.03,1069.57 1756.73,1071.53 1756.54,1081.53 1758.21,1089.79 1756.44,1092.66 1756.31,1095.75 1759.64,1101.45 1759.41,1104.02 1760.33,1104.75 1761.7,1112.6 1764.94,1116.96 1765.53,1119.54 1766.66,1119.96 1767.66,1123.06 1770.19,1126.59 1771.69,1130.42 1774.33,1133.64 1774.32,1134.67 1779.19,1140.8 1781.79,1147.63 1783.23,1147.64 1784.63,1151.47 1784.52,1152.7 1783.69,1153.11 1781.76,1151.23 1780.11,1152.15 1780.86,1159.58 1782.77,1163.61 1779.87,1166.58 1778.9,1171.21 1764.66,1181.28 1764.63,1183.86 1765.45,1184.18 1764.31,1186.23 1764.27,1190.46 1765.46,1194.28 1764.82,1197.58 1766.45,1198.31 1769.49,1201.85 1772.67,1202.18 1774.18,1204.78 1773.75,1206.84 1775.37,1209.02 1778.13,1210.59 1779.22,1214.1 1778.69,1216.06 1779.28,1218.64 1780.89,1222.47 1782.42,1223.11 1782.18,1226.2 1785.81,1232.73 1785.67,1236.85 1788.09,1240.59 1788.39,1242.35 1791.44,1244.03 1793.09,1243.84 1793.2,1242.5 1794.12,1242.81 1793.48,1245.8 1794.99,1248.39 1793.19,1254.15 1795.46,1263.56 1798.72,1265.65 1798.4,1266.48 1800.83,1270.21 1810.48,1277.84 1812.26,1284.36 1818.86,1290.2 1819.75,1294.03 1822.38,1297.35 1827.87,1300.92 1839.83,1303.2 1844.72,1305.73 1846.53,1308.84 1850.09,1311.15 1851.2,1312.92 1855.58,1315.13 1858.21,1318.77 1858.69,1321.35 1861.01,1324.68 1860.57,1327.98 1864.72,1332.25 1865.48,1338.46 1867.68,1342.81 1867.7,1351.38 1865.81,1355.49 1865.37,1359 1867.38,1361.71 1867.96,1365.22 1869.66,1368.85 1872.11,1370.12 1872.91,1371.88 1873.18,1375.19 1872.45,1376.42 1873.16,1377.26 1873.23,1380.05 1874.03,1381.91 1875.76,1382.45 1876.46,1383.8 1875.51,1387.09 1877.57,1385.77 1881.14,1386.64 1883.75,1391.41 1888.33,1393.22 1887.3,1394.55 1889.34,1394.88 1890.25,1395.82 1890.03,1397.06 1891.36,1397.18 1892.88,1398.74 1892.35,1399.87 1896.22,1401.46 1897.94,1403.96 1898.65,1403.97 1900.35,1407.6 1899.11,1408.62 1900.75,1408.54 1902.68,1409.59 1905.5,1414.06 1902.87,1420.44 1904.39,1421.8 1903.75,1424.59 1901.98,1427.05 1902.58,1428.09 1806.68,1437.54 1804.32,1438.65 1731.47,1445.32 1728.89,1447.77 1723.81,1456 1719.36,1461.54 1719.35,1462.58 1718.33,1462.98 1714.08,1469.25 1708.33,1472.72 1705.43,1477.55 1696.46,1486.89 1687.27,1498.19 1684.71,1499.72 1679.76,1505.26 1676.07,1506.58 1674.52,1508.22 1673.86,1514.11 1674.66,1516.91 1676.37,1519.31 1674.29,1524.57 1674.59,1525.5 1672.44,1526 1673.86,1527.05 1674.46,1529.02 1673.11,1531.39 1674.21,1533.98 1672.35,1536.66 1673.18,1535.94 1672.65,1537.28 1676,1540.62 1677.4,1543.94 1676.16,1545.07 1676.04,1547.45 1673.78,1548.99 1675.81,1550.97 1680.69,1553.08 1687.12,1553.34 1689.99,1552.54 1694.37,1553.71 1694.77,1554.23 1694.05,1555.05 1691.91,1554.62 1690.88,1555.55 1692.5,1557.73 1693.72,1557.64 1694.63,1558.99 1695.45,1558.9 1694.64,1557.85 1695.47,1556.93 1695.91,1552.59 1692.55,1552.04 1692.14,1551.31 1693.37,1551.43 1693.58,1550.5 1692.37,1548.83 1692.48,1547.38 1688.2,1546.93 1689.94,1546.43 1690.15,1545.71 1689.77,1542.08 1691.63,1539.82 1689.68,1540.01 1689.69,1538.97 1690.43,1536.39 1690.94,1536.5 1690.82,1538.88 1692.03,1540.65 1692.85,1539.62 1691.58,1545.2 1693.92,1545.84 1693.9,1548.53 1695.74,1548.03 1697.57,1549.18 1697.32,1555.39 1697.92,1556.74 1699.04,1557.17 1701.61,1555.22 1702.31,1556.16 1701.79,1557.19 1699.65,1557.48 1698.41,1558.61 1701.56,1560.4 1700.92,1563.5 1702.73,1567.45 1703.41,1571.29 1702.06,1573.35 1703.88,1576.36 1707.14,1576.81 1708.04,1578.26 1707.42,1579.92 1710.05,1582.11 1709.22,1583.56 1708.01,1582.82 1707.57,1585.82 1706.01,1589.02 1706.21,1590.47 1702.68,1597.17 1703.16,1600.49 1702.13,1602.25 1704.45,1604.65 1704.32,1607.65 1702.89,1608.88 1702.59,1619.55 1700.86,1619.54 1700.95,1620.99 1697.33,1625.94 1700.47,1629.59 1700.95,1632.29 1702.69,1632.51 1703.19,1633.66 1703.27,1635.94 1701.5,1640.38 1701.88,1643.29 1704,1646.11 1704.48,1649.22 1703.04,1650.87 1703.82,1654.71 1702.59,1656.26 1704.41,1658.03 1705.33,1657.73 1706.93,1660.96 1705.35,1667.59 1708.19,1668.44 1709.28,1672.49 1705.91,1673.5 1705.67,1677.44 1701.5,1676.68 1700.26,1677.71 1699.72,1682.27 1697.66,1684.12 1697.33,1686.61 1695.39,1687.63 1694.04,1690.32 1693.25,1700.17 1692.62,1701.41 1689.96,1703.05 1690.22,1708.24 1688.57,1711.14 1688.13,1714.87 1686.48,1716.83 1688.79,1721.42 1688.66,1724.53 1686.81,1727.11 1687.69,1730.86 1686.35,1732.93 1685.82,1735.73 1683.87,1737.48 1683.74,1740.18 1684.75,1742.16 1684.11,1744.75 1681.15,1746.39 1681.73,1749.3 1680.7,1750.85 1680.69,1752.72 1677.91,1755.51 1676.8,1767.03 1681.63,1773.73 1680.28,1776.94 1682,1778.62 1680.04,1781.3 1682.06,1783.09 1683.66,1786.64 1682.22,1788.39 1681.7,1790.68 1683.3,1793.29 1684.94,1792.16 1686.16,1792.38 1687.77,1794.58 1687.64,1798.01 1689.58,1797.3 1695.76,1800.88 1699.84,1800.61 1701.74,1804.16 1708.42,1808.59 1710.35,1809.23 1712.9,1807.9 1713.92,1808.11 1715.03,1809.68 1714.8,1811.76 1716.22,1813.02 1715.9,1814.89 1721.96,1820.36 1724.86,1825.48 1730.43,1828.34 1733.46,1831.81 1737.36,1838.61 1739.28,1840.19 1739.86,1844.25 1742.27,1847.3 1741.75,1849.17 1742.65,1850.42 1746.31,1851.08 1747.74,1849.84 1749.47,1849.65 1751.39,1851.96 1752.72,1850.62 1756.6,1849.4 1763,1850.19 1766.07,1848.35 1769.6,1851.82 1769.07,1853.58 1771.3,1854.75 1776.6,1853.86 1780.44,1856.4 1787.23,1858.86 1789.28,1857.1 1790.81,1856.91 1792.46,1854.95 1792.08,1851.92 1789.12,1852.73 1787.81,1851.78 1785.52,1845.72 1785.35,1843.11 1787.74,1836.89 1789.79,1835.34 1792.65,1835.16 1794.81,1832.16 1796.34,1831.66 1795.74,1830.82 1797.07,1830 1797.88,1830.32 1797.56,1831.77 1799.9,1831.59 1801.51,1834.1 1802.63,1833.39 1804.65,1835.49 1808.11,1835.31 1809.65,1834.08 1812.09,1834 1811.7,1832.74 1813.84,1832.35 1813.24,1831.41 1814.27,1829.23 1817.45,1826.76 1819.38,1827.41 1821.73,1826.91 1820.39,1961.82 1819.67,1962.03 1816.44,1960.64 1811.33,1963.3 1808.5,1962.23 1805.78,1959.59 1804.24,1961.04 1802.52,1960.5 1801.82,1958.82 1799.91,1957.45 1800.85,1954.43 1799.03,1953.36 1799.75,1952.43 1801.58,1952.76 1803.72,1951.84 1804.47,1948.2 1803.37,1945.99 1807.17,1941.75 1805.75,1941.73 1806.39,1938.82 1802.91,1940.77 1798.77,1938.53 1797.36,1936.54 1796.35,1936.63 1794.19,1939.12 1792.16,1938.89 1789.6,1941.26 1788.99,1941.05 1787.34,1943.85 1782.83,1947.67 1779.37,1948.06 1777.22,1949.29 1774.79,1948.85 1773.44,1951.87 1769.8,1949.85 1767.93,1954.11 1766,1954.1 1761.5,1957.4 1759.67,1957.69 1755.67,1961.73 1754.49,1957.02 1752.18,1954.39 1750.05,1953.95 1749.86,1953.22 1739.55,1958.34 1737.62,1958.43 1735.92,1955.28 1737.35,1954.36 1737.36,1953.21 1735.22,1954.23 1733.7,1953.59 1733.73,1950.04 1732.52,1948.36 1731.06,1941.35 1729.36,1938.31 1729.98,1937.06 1729.3,1933.93 1727.09,1930.67 1724.85,1931.59 1724.35,1930.23 1722.31,1930.84 1721.51,1929.79 1721.42,1927.91 1722.46,1926.14 1719.94,1922.88 1721.78,1922.17 1720.27,1920.17 1720.32,1915.06 1719.42,1913.18 1717.59,1912.43 1716.01,1908.14 1713.05,1908.43 1712.86,1906.86 1710.45,1903.4 1710.57,1902.04 1705.11,1898.35 1703,1895.1 1701.07,1895.29 1698.41,1897.04 1695.71,1903.59 1693.68,1903.46 1691.17,1899.27 1691.71,1895.84 1688.49,1891.53 1687.17,1891.21 1685.37,1888.17 1683.04,1886.28 1682.45,1884.81 1683.57,1883.67 1683.48,1882.63 1686.34,1881.3 1688.37,1881.84 1689.52,1878.09 1691.06,1876.54 1689.65,1874.97 1689.76,1873.82 1681.16,1867.71 1682.31,1863.86 1677.35,1862.05 1674.94,1857.97 1673.42,1856.81 1672.4,1857.22 1671.6,1855.23 1669.68,1853.65 1667.35,1853.32 1665.41,1854.35 1663.08,1852.35 1660.22,1853.79 1659.32,1852.01 1656.07,1851.57 1655.57,1850.83 1656.39,1849.38 1654.05,1849.15 1653.54,1850.3 1651.7,1851.22 1651.28,1852.99 1651.98,1854.55 1650.96,1854.23 1649.22,1855.37 1644.92,1846.06 1642.69,1845.63 1641.25,1846.66 1635.77,1844.95 1633.21,1847.33 1632.5,1847.11 1631.4,1844.92 1632.94,1842.43 1631.14,1838.87 1629.72,1837.72 1629.85,1834.8 1620.9,1834.11 1617.86,1832.63 1618.24,1835.55 1616.4,1837.1 1613.65,1837.81 1612.82,1839.99 1609.37,1838.61 1608.65,1839.33 1606.42,1838.48 1604.89,1839.2 1603.26,1838.56 1601.33,1839.17 1598.49,1837.49 1599.31,1836.14 1597.8,1834.46 1597.92,1832.48 1595.59,1830.91 1593.25,1830.89 1590.82,1828.17 1589.81,1828.05 1587.7,1823.77 1587.53,1818.88 1585.82,1816.89 1586.03,1815.43 1584.82,1814.49 1583.19,1814.79 1582.51,1809.16 1583.87,1804.49 1582.56,1801.88 1578.42,1798.42 1575.98,1797.57 1576.09,1796.43 1573.96,1795.58 1573.66,1794.54 1569.9,1792.74 1570.01,1791.6 1568.59,1791.49 1564.74,1788.65 1562.3,1787.8 1562.2,1788.43 1561.08,1788.32 1558.85,1786.64 1558.96,1784.87 1557.86,1782.68 1559.2,1779.78 1558.5,1777.59 1559.63,1776.35 1556.56,1763.64 1555.63,1765.51 1553.59,1765.91 1551.65,1767.66 1547.89,1766.29 1543.8,1768.13 1541.16,1766.66 1537.48,1768.92 1538.79,1771.11 1537.87,1772.15 1538.67,1774.65 1539.88,1775.49 1540.47,1778.51 1538.73,1780.58 1538.83,1781.62 1537.49,1782.75 1535.97,1782.85 1535.73,1788.46 1536.33,1789.71 1535,1790.64 1536.21,1792.52 1532.11,1796.65 1531.48,1800.19 1529.64,1801.32 1529.22,1802.67 1526.88,1802.34 1526.77,1803.9 1525.04,1804.51 1524.31,1806.59 1522.78,1807.31 1520.85,1806.67 1519.93,1807.5 1517.08,1807.48 1512.11,1804.12 1505.77,1809.39 1503.95,1808.02 1497.13,1807.26 1495.51,1805.68 1493.79,1805.26 1491.84,1807.22 1489.61,1806.38 1488.5,1804.71 1484.53,1803.64 1482.42,1800.2 1477.23,1799.23 1474.88,1801.19 1472.74,1801.39 1465.49,1804.78 1463.47,1802.48 1459.09,1802.56 1457.98,1800.99 1456.96,1801.61 1455.14,1800.25 1452.58,1802.01 1450.85,1801.37 1444.84,1802.28 1438.84,1801.72 1431.61,1802.93 1431.72,1800.75 1432.54,1800.55 1433.05,1798.99 1429.81,1795.75 1426.76,1796.67 1424.12,1794.68 1423.72,1793.01 1422.3,1792.8 1422.22,1788.32 1418.65,1788.51 1415.79,1790.68 1412.64,1789.73 1410.3,1790.24 1407.25,1788.87 1404.7,1789.17 1399.74,1784.26 1399.65,1782.39 1398.33,1780.3 1392.63,1780.48 1391.09,1783.18 1388.24,1783.68 1386.19,1786.07 1384.56,1785.33 1383.44,1786.37 1381.51,1784.38 1382.75,1782.1 1382.46,1778.35 1380.03,1775.02 1378.1,1774.38 1376.47,1775.1 1372.31,1772.17 1369.76,1771.64 1365.8,1769.23 1366.42,1768.61 1365.72,1764.35 1363.18,1762.78 1363.81,1759.56 1361.88,1757.99 1363,1757.06 1364.02,1757.9 1365.86,1755.51 1363.42,1754.78 1363.24,1749.06 1362.12,1748.53 1362.94,1747.39 1360.92,1745.31 1361.33,1743.65 1360.63,1741.15 1361.14,1740.63 1363.07,1741.16 1363.99,1740.23 1363.7,1738.46 1364.31,1738.15 1362.78,1737.42 1361.98,1735.55 1366.57,1733.18 1364.34,1731.09 1366.49,1729.75 1366.08,1728.29 1368.24,1724.56 1366.61,1724.87 1364.58,1723.61 1359.68,1725.88 1358.15,1725.87 1356.51,1727.52 1353.04,1728.55 1347.03,1728.63 1344.17,1730.48 1342.24,1730.06 1338.67,1730.98 1337.76,1729.94 1335.62,1730.45 1335.01,1729.41 1329.81,1730.22 1328.38,1731.25 1324.71,1730.93 1323.18,1732.48 1318.8,1731.63 1318.69,1733.81 1316.96,1734.74 1314.31,1734.73 1311.25,1736.07 1310.03,1735.23 1306.67,1735.32 1304.52,1736.67 1305.53,1738.23 1300.95,1738.42 1300.84,1739.35 1297.47,1741.94 1295.63,1745.46 1290.43,1747.42 1290.52,1749.71 1289.5,1750.95 1285.94,1749.9 1283.89,1752.07 1280.73,1752.17 1279.11,1751.43 1275.13,1752.25 1274.73,1749.76 1273.41,1749.44 1272.8,1747.98 1267.41,1745.37 1265.27,1746.71 1261.81,1746.18 1258.76,1743.99 1261.11,1742.34 1264.98,1741.83 1265.29,1740.58 1266.72,1740.38 1267.44,1737.58 1269.59,1735.19 1270.21,1731.87 1271.23,1731.25 1270.83,1729.8 1272.05,1728.45 1270.53,1727.2 1271.25,1724.4 1268.71,1721.79 1269.84,1720.24 1270.16,1714.22 1268.95,1712.55 1261.12,1707.96 1255.3,1708.98 1253.68,1707.31 1249.3,1705.85 1247.67,1706.57 1246.95,1708.23 1245.63,1708.01 1244.92,1704.17 1244.21,1703.65 1245.03,1701.99 1242.5,1698.04 1243.83,1695.86 1241.9,1693.68 1239.96,1693.88 1236.71,1692 1233.65,1691.99 1231.91,1692.82 1230.39,1692.19 1227.63,1693.85 1224.76,1698.92 1222.42,1699.13 1219.46,1701.61 1218.84,1704.83 1216.38,1707.21 1205.8,1702.2 1196.62,1703.84 1194.39,1701.65 1188.27,1701.64 1182.17,1697.68 1177.79,1697.05 1172.18,1697.97 1171.16,1699.21 1168.51,1699.52 1162.79,1703.66 1162.08,1705.21 1158.92,1705.62 1154.52,1710.91 1152.59,1710.91 1148.3,1714.74 1145.45,1713.59 1144.23,1711.93 1136.58,1715.14 1132.61,1712.84 1118.96,1712.41 1116.72,1710.22 1113.97,1709.91 1111.32,1712.19 1108.46,1712.71 1105.1,1715.71 1102.55,1714.88 1098.58,1715.08 1097.36,1713.11 1096.44,1713.31 1091.04,1710.71 1090.54,1708.22 1089.52,1707.39 1085.44,1706.24 1080.04,1707.69 1078.41,1707.38 1076.37,1709.97 1076.47,1712.46 1077.79,1714.02 1077.69,1714.95 1073.82,1718.38 1072.39,1720.77 1070.86,1721.8 1068.41,1721.39 1061.79,1722.21 1061.79,1723.98 1058.22,1727.82 1054.14,1730.62 1052,1730.72 1052.42,1725.42 1053.95,1723.35 1053.95,1722 1051.91,1717.22 1048.65,1714.93 1048.04,1711.4 1048.76,1706.21 1047.03,1701.64 1047.44,1696.66 1046.01,1695.41 1043.57,1689.19 1047.85,1684.52 1053.87,1680.99 1057.13,1680.89 1059.99,1678.4 1060.6,1675.81 1059.18,1674.46 1059.99,1672.9 1057.85,1668.55 1058.67,1666.99 1058.37,1665.95 1059.18,1665.54 1058.16,1663.67 1058.68,1661.8 1058.06,1659.83 1058.78,1658.07 1057.86,1654.65 1054.2,1652.16 1055.52,1651.02 1056.14,1647.18 1057.56,1645.83 1057.26,1645 1059.1,1642.2 1059.81,1638.89 1058.69,1637.85 1058.59,1636.4 1057.57,1635.98 1058.29,1635.46 1057.57,1633.18 1056.96,1633.39 1057.37,1632.77 1056.55,1632.77 1056.35,1631.52 1055.03,1630.59 1055.54,1629.45 1054.82,1626.55 1052.58,1624.89 1052.58,1623.12 1050.34,1621.67 1050.04,1617.53 1048.51,1616.07 1049.32,1613.17 1048.41,1612.86 1049.12,1611 1048.31,1609.23 1049.12,1606.75 1047.49,1603.64 1048.41,1601.67 1046.27,1599.18 1047.29,1597.94 1045.56,1591.21 1041.48,1587.78 1039.75,1588.3 1037.81,1586.02 1036.07,1587.37 1033.62,1586.64 1030.46,1581.77 1029.03,1582.19 1027.91,1580.94 1027.61,1577.73 1026.28,1576.49 1026.38,1573.69 1024.14,1574.73 1023.32,1571.31 1019.95,1569.24 1020.16,1567.17 1017.4,1565.3 1015.87,1565.3 1015.46,1563.44 1013.73,1563.33 1013.73,1560.95 1012.71,1560.64 1013.42,1559.19 1012.3,1557.54 1012.81,1553.91 1009.34,1548.43 1009.24,1543.25 1005.26,1539.11 1006.59,1534.76 1007.1,1534.87 1006.69,1532.07 1008.53,1528.55 1008.53,1526.17 1010.06,1524.62 1010.26,1522.04 1012.2,1519.55 1012,1513.14 1011.29,1510.96 1010.47,1510.76 1010.27,1507.14 1009.55,1506.31 1010.27,1503.83 1009.76,1502.38 1011.8,1500.52 1010.78,1498.96 1012.31,1487.48 1011.7,1486.24 1013.13,1483.24 1012.31,1481.18 1014.05,1479.21 1013.44,1477.97 1014.87,1477.04 1015.99,1473.73 1015.59,1465.05 1016.4,1464.74 1016.91,1461.84 1017.94,1461.53 1017.02,1458.12 1019.68,1454.09 1018.35,1453.68 1019.27,1452.95 1018.96,1451.3 1020.7,1450.37 1020.29,1449.33 1020.9,1448.51 1019.37,1447.16 1021.82,1444.79 1020.8,1442.2 1021.42,1438.38 1019.88,1435.07 1018.15,1433.31 1018.76,1431.04 1017.84,1428.66 1019.58,1427.11 1019.38,1425.36 1018.97,1424.43 1015.9,1423.39 1015.39,1421.95 1015.49,1418.64 1013.55,1412.85 1014.78,1410.99 1011.2,1407.48 1008.44,1399.73 1006.49,1397.36 1003.63,1395.6 1003.73,1394.15 1002.4,1392.61 1003.02,1389.61 1001.18,1386.51 1001.69,1385.07 1003.73,1383.31 1003.02,1375.67 1004.55,1375.05 1003.63,1373.5 1004.55,1372.47 1003.43,1372.47 1003.63,1369.57 1005.17,1367.72 1005.37,1366.06 1006.29,1365.75 1005.99,1364.1 1007.83,1359.66 1007.52,1357.91 1009.16,1357.29 1009.47,1354.4 1011.62,1351.82 1010.9,1349.34 1012.23,1347.38 1010.39,1343.45 1012.44,1338.91 1010.9,1336.95 1012.44,1335.61 1011.72,1334.68 1012.23,1333.75 1009.78,1331.68 1010.59,1328.07 1009.16,1324.67 1006.71,1321.98 1005.37,1321.88 1005.07,1318.68 878.53,1318.77 878.22,1317.84 879.04,1316.7 877.91,1312.99 879.13,1312.06 878.62,1310.92 879.33,1309.48 878.72,1308.65 879.43,1306.79 877.79,1304.53 879.22,1303.29 879.73,1300.91 882.8,1295.95 882.49,1293.07 883.71,1291.72 883.3,1291 884.43,1290.9 884.43,1288.63 885.75,1285.74 885.65,1282.33 886.57,1281.4 886.05,1280.99 854.81,1281.04 853.59,1283.93 852.88,1289.6 775.56,1289.78 776.18,1290.91 775.77,1292.87 777.01,1295.55 774.05,1298.96 771.92,1305.27 770.49,1307.13 771.52,1310.74 771.43,1314.66 770.41,1316 770.52,1318.58 769.5,1320.24 770.32,1321.37 769.2,1322.4 770.02,1322.61 771.15,1325.08 771.36,1325.91 770.24,1327.36 771.16,1329.42 773.01,1330.45 772.4,1333.34 774.25,1334.57 773.84,1335.71 775.38,1336.94 773.85,1337.57 772.32,1340.36 769.36,1341.81 770.28,1344.18 769.27,1346.04 769.58,1347.69 768.05,1348.83 758.83,1348.86 757.41,1350.93 759.68,1357.43 761.22,1359.07 761.84,1362.58 760.92,1363.21 760.72,1365.37 759.6,1367.13 759.21,1370.96 756.96,1373.13 757.18,1378.5 754.74,1382.74 756.79,1384.18 756.39,1387.8 758.76,1393.06 698.92,1393.25 697.58,1389.44 696.65,1388.72 697.26,1386.75 696.02,1384.28 671.78,1384.78 671.92,1393.36 659.13,1393.41 658.63,1394.65 654.23,1396.01 651.67,1395.4 651.47,1394.68 649.32,1395.1 648.19,1393.04 646.44,1392.12 643.27,1392.44 640.81,1391.01 639.38,1391.11 637.54,1392.05 635.71,1394.44 632.85,1395.07 631.84,1397.35 629.8,1397.77 628.36,1396.53 627.04,1399.33 628.18,1403.56 614.89,1403.62 609.97,1402.2 604.14,1402.02 599.75,1403.18 597,1405.36 589.12,1403.74 584.72,1404.18 578.09,1407.31 573.38,1407.03 570.41,1405.28 569.17,1403.02 566.71,1402.1 566.5,1401.17 568.33,1398.17 569.46,1399.4 569.45,1398.06 566.36,1394.25 564.42,1394.06 564.29,1388.58 563.27,1389.41 562.75,1387.56 561.21,1387.88 561.41,1386.33 560.39,1386.23 559.76,1384.06 561.29,1382.09 560.87,1380.23 558.31,1380.14 558.29,1376.74 556.65,1376.64 555.84,1377.58 555.02,1377.17 556.24,1375.41 555.41,1374.58 553.78,1375.62 554.17,1370.98 548.95,1371.31 549.15,1369.66 547.4,1368.74 549.12,1364.81 547.38,1364.61 547.37,1362.96 546.14,1363.17 544.6,1362.25 545.62,1360.9 545.9,1356.05 545.08,1354.92 539.74,1352.88 536.97,1350.32 534.69,1345.68 535.18,1342.38 531.9,1341.05 530.25,1339.41 530.75,1337.55 533.51,1336.5 533.19,1334.95 530.22,1333.94 528.88,1332.5 527.87,1334.57 525.82,1334.58 525.2,1333.55 526.11,1331.59 525.39,1330.04 525.68,1326.84 522.09,1325.93 518.18,1323.38 517.25,1321.21 512.43,1320.73 512.32,1317.94 508.72,1315.28 510.23,1311.97 508.17,1309.6 508.47,1308.16 505.98,1301.88 507.2,1301.25 508.34,1303.1 509.67,1302.99 511.27,1296.69 508.81,1295.77 507.56,1292.99 504.8,1293.42 504.16,1289.82 505.69,1287.74 504.55,1285.69 505.45,1282.48 504.83,1280.84 501.53,1278.17 499.28,1279.11 497.64,1278.2 498.55,1276.75 498.43,1273.03 497.6,1271.8 495.66,1271.91 494.31,1269.96 493.86,1262.95 491.4,1262.24 489.84,1259.78 490.24,1257.2 489.2,1254.21 489.68,1250.08 486.8,1248.04 488.81,1241.83 484.17,1237.33 485.7,1235.46 483.01,1231.56 485.77,1230.51 485.87,1229.27 484.63,1228.04 481.76,1228.37 481.24,1227.34 482.96,1224.03 480.9,1222.39 482.44,1221.87 484.7,1222.88 485.61,1221.74 484.56,1216.39 483.73,1215.57 485.04,1211.64 483.69,1209.48 485.63,1207.51 486.43,1204.83 484.99,1204.11 484.98,1201.64 481.89,1198.98 479.63,1198.99 479.52,1197.34 476.65,1197.87 477.97,1196.32 477.76,1194.77 472.83,1193.98 472.93,1193.05 474.67,1193.04 475.48,1191.7 474.66,1190.67 471.69,1191.2 472.8,1189.75 473.3,1186.24 471.54,1184.3 473.38,1182.74 470.7,1181.93 471.38,1176.05 470.56,1174.92 468.3,1175.14 461.82,1171.99 459.37,1173.34 458.75,1172.21 457.12,1174.59 454.86,1174.71 451.17,1173.81 432.81,1173.83 392.31,1175.97 378.56,1174.42 351.9,1175.45 303.18,1175.43 278.07,1176.88 267.43,1179.76 258.08,1177.98 253.68,1179.05 241.98,1178.64 237.36,1177.55 236.93,1175.8 235.29,1175.1 232.84,1177.28 232.12,1176.78 230.8,1177.61 229.55,1176.08 226.58,1176.41 225.84,1173.84 224.81,1173.34 222.77,1174.49 222.66,1173.98 221.12,1174.4 221.01,1173.37 220.19,1173.17 218.25,1173.91 216.7,1173.21 216.09,1173.94 214.55,1173.64 212.51,1174.48 212.1,1173.97 210.36,1174.81 209.33,1174.51 209.63,1173.48 207.58,1173.5 206.23,1172.28 202.15,1174.79 183.1,1176.83 163.92,1176.92 163.62,1177.74 161.17,1178.8 160.44,1177.67 156.43,1176.37 154.38,1177.22 147.91,1176.25 146.9,1177.19 142.39,1177.65 141.19,1180.65 140.07,1181.39 135.03,1179.69 133.47,1178.26 126.58,1176.68 121.16,1178.08 115.45,1181.03 113.16,1178.16 108.02,1177.08 105.77,1177.73 103.34,1180.02 98.75,1182.13 89.02,1183.48 82.73,1189.52 77.52,1191.54 65.44,1193.53 52.78,1198.31 45.93,1199.84 41.61,1198.96 39.64,1197.43 42.79,1194.41 42.15,1192.35 36.01,1184.69 31.25,1180.72 24.9,1173.37 21.77,1168.67 23.49,1166.48 27.08,1166.44 29.63,1165.38 55.17,1165.09 54.98,1103.24 54.06,1103.66 53.43,1102.12 51.7,1103.38 49.72,1101.14 48.7,1101.25 49.2,1099.9 47.65,1099.1 48.56,1097.95 47.83,1096.93 51.2,1095.35 51.9,1093.59 54.15,1093.46 54.58,1094.48 57.32,1092.39 58.16,1093.41 58.25,1092.28 60.08,1090.92 60.5,1091.53 61,1090.8 62.65,1090.99 62.53,1089.55 63.34,1089.13 64.54,1085.82 64.31,1083.35 65.23,1083.64 66.56,1082.81 68.63,1084.33 69.86,1084.31 70.57,1083.59 72.31,1083.26 73.14,1083.87 73.96,1083.24 74.86,1081.27 74.73,1079.21 77.27,1076.71 77.97,1074.95 78.6,1075.66 78.8,1075.04 80.65,1075.43 81.65,1072.74 83.39,1072.52 83.27,1071.18 82.56,1071.5 82.85,1070.26 84.78,1068.18 84.86,1065.8 85.67,1064.87 86.6,1065.48 87.2,1064.03 86.58,1063.72 87.49,1062.48 89.56,1063.79 89.13,1062.46 91.89,1060.88 94.57,1062.19 96.7,1059.39 97.63,1059.79 98.85,1058.75 99.47,1059.05 100.38,1057.8 103.25,1057.36 105.52,1058.67 107.74,1054.53 110.22,1055.95 112.69,1055.92 113.8,1054.67 112.65,1052.42 112.2,1048.81 113.12,1048.6 112.89,1046.44 114.42,1044.98 116.79,1046.09 121.49,1053.46 125.86,1058.25 128.23,1059.77 130.53,1062.95 141.05,1067.27 140.76,1069.23 141.81,1071.49 141.11,1073.35 147.23,1078.85 147.41,1077.2 146.57,1075.25 144.82,1074.44 145.22,1073.41 147.89,1073.48 149.21,1072.13 150.96,1072.53 150.43,1070.99 151.13,1068.71 153.37,1067.14 155.37,1061.45 158.66,1062.45 158.68,1063.79 160.13,1065.73 162.82,1067.36 166.29,1065.26 166.57,1062.47 167.8,1062.15 166.04,1060.21 167.17,1060.82 169.22,1060.28 170.47,1062.33 171.71,1062.32 172.33,1063.45 172.73,1061.69 174.26,1061.06 171.66,1057.68 173.29,1056.84 175.56,1057.64 176.79,1056.91 176.55,1054.03 173.24,1051.69 173.74,1050.35 176.1,1049.91 175.15,1047.34 175.97,1047.23 177.18,1045.06 176.74,1041.76 177.83,1038.14 177.3,1035.68 176.37,1034.96 176.34,1032.18 177.34,1030.11 180.02,1030.09 182.15,1027.9 184.51,1027.57 185.65,1028.48 186.67,1027.96 188.95,1029.79 187.94,1031.04 189.18,1032.47 190.41,1031.94 189.93,1035.24 192.61,1036.56 194.86,1035.71 196.32,1037.24 199.3,1037.21 200.42,1036.59 200.31,1035.66 201.03,1036.17 201.95,1035.64 202.25,1034.3 205.4,1031.08 205.09,1030.26 205.9,1029.22 209.98,1026.19 212.03,1025.55 215.02,1026.66 220.34,1024.03 221.79,1025.15 222.91,1024.83 224.65,1023.79 224.54,1022.76 226.6,1023.15 228.12,1021.38 229.36,1021.78 230.79,1021.15 231.29,1019.29 234.35,1016.69 236.61,1017.39 236.4,1016.57 237.32,1015.94 237.63,1016.56 238.35,1015.83 241.02,1016.22 240.9,1014.05 246.02,1012.25 246.85,1013.28 246.77,1015.13 244.74,1018.14 245.56,1018.65 245.17,1020.3 248.49,1024.49 254.28,1028.67 249.61,1034.48 249.52,1036.23 246.24,1036.78 244.51,1038.13 244.31,1039.47 241.84,1038.98 241.04,1040.74 244.57,1045.35 245.22,1048.84 247.28,1049.44 248.11,1050.67 246.56,1060.37 247.72,1063.87 245.99,1066.15 246.84,1069.03 246.25,1072.23 247.93,1075.82 250.27,1073.74 252.73,1072.79 254.45,1070.71 256,1070.7 257.24,1071.72 262.99,1072.59 266.01,1076.59 272.18,1078.39 277.3,1076.7 284.14,1071.07 291.19,1067.82 297.95,1053.33 306,1045.64 306.81,1043.57 310.87,1038.59 312,1038.58 318.73,1032.45 321.77,1026.86 325.65,1023.22 325.52,1020.75 327.65,1016.4 334.21,1015.32 336.76,1012.62 341.16,1010.52 348.99,1012.11 351.86,1011.06 356.45,1006.9 357.02,1001.02 358.75,998.53 360.03,991.62 363.9,987.06 375.59,982.64 389.76,980.48 395.71,978.68 398.27,977.63 400.31,975.45 402.72,966.99 406.56,958.51 409.82,953.95 413.76,943.82 419.06,936.57 422.39,927.79 428.4,919.3 430.33,915.37 431.43,910.62 431.42,908.66 428.1,905.6 427.77,902.3 428.67,898.89 426.98,891.28 427.15,886.95 429.06,880.24 427.74,867.88 430.51,850.65 433.43,842.17 432.98,836.3 426.73,810.47 428.89,794.16 434.81,786.6 447.43,778.68 449.98,774.33 453.98,771.73 461.96,762.91 467.78,753.8 476.64,736.52 478.86,729.49 484.97,715.73 491.29,705.07 498.26,697.19 506.26,689.61 523.64,679.29 526.41,678.04 536.72,675.92 546.49,671.12 565.55,645.73 570.17,640.96 576.45,637.83 580.14,632.55 581.67,628.82 584.68,611.46 584.56,606.51 580.5,599.71 579.23,595.28 580.43,586.08 586.26,575.31 590.3,556.08 595.1,544.58 597.67,541.68 606.42,535.23 609.19,529.53 609.97,519.19 606.94,513.73 602.17,510.34 599.88,505.8 599.83,496.08 601.86,488.42 601.21,482.01 597.03,473.97 596.6,468.59 597.5,462.27 605.51,450.13 610.06,429 620.33,410.42 620.96,389.71 619.79,383.91 619.44,375.21 621.68,366.19 620.19,357.18 622.52,346.5 622.28,337.9 624.94,331.25 630,327.18 635.87,318.24 635.35,317.31 636.65,307.76 645.02,302.02 647.7,298.38 649.85,292.87 654.07,285.8 657.14,274.58 664.24,261.16 668.13,249.82 675.68,243.98 678.66,236.49 677.8,229.22 678.92,223.92 677.65,216.75 677.73,210.83 676.88,206.57 675.11,203.88 674.55,192.65 671.89,176.96 673.54,172.69 673.82,165.2 675.26,161.13 678.98,158.93 680.22,155.18 677.16,141.98 673.38,131.89 669.2,124.62 668.24,120.35 674.25,115.12 676.12,116.68 686.19,115.29 692.92,109.64 695.29,104.94 697.64,93.36 702.72,90.12 703.64,86.57 707.17,85.62 709.13,81.96 708.92,80.61 717.32,73.7 717,71.3 719.38,68.58 722.16,62.94 722.67,60.23 725.88,55.84 731.18,54.57 734.4,55.81 735.75,55.39 739.16,48.8 750.27,43.34 751.2,42.09 752.86,41.56 753.79,39.16 759.19,35.59 765.74,36.41 770.2,33.58 774.36,33.67 778.94,35.65 781.43,34.49 786.83,34.06 790.17,35.93 795.57,37.06 797.97,38.42 800.88,38.1 804.01,42.16 804.64,45.29 810.16,50.91 812.03,51.43 815.04,50.9 820.04,52.14 824.1,55.89 825.14,55.78 830.24,59.32 832,59 837.2,60.35 839.8,62.64 840.33,65.14 845.33,71.07 846.47,70.65 848.13,72.11 855.83,73.35 859.36,76.78 861.25,83.76 865.09,85.95 867.07,88.55 867.59,90.74 865.63,94.49 867.4,96.37 867.92,99.28 869.48,99.91 874.58,106.67 879.57,110.21 881.85,109.58 883.1,110.41 883.93,109.68 886.73,109.15 887.77,109.67 895.25,108 898.99,108.2 901.69,109.24 906.16,106.94 906.67,105.9 908.02,106.42 911.56,105.89 913.01,107.14 917.79,106.72 931.19,111.5 933.79,114.1 934.83,117.54 938.67,118.89 941.48,121.28 943.04,120.76 945.32,122.84 946.47,122.84 948.23,120.97 948.96,118.36 952.49,117.22 960.8,123.67 963.39,123.88 969.21,122.62 972.84,125.54 977.41,125.85 978.87,126.68 981.67,126.58 983.64,124.49 988.21,122.72 990.81,120.54 993.51,121.89 995.27,121.06 996.31,122.41 997.66,121.06 999.74,120.64 1001.4,122.1 1007.53,123.35 1012.41,127.41 1014.38,126.99 1021.44,128.76 1026.74,127.52 1030.89,129.81 1037.02,130.64 1040.55,132.94 1044.18,137 1047.81,138.98 1053.83,141.17 1056.95,141.07 1061.52,140.03 1066.09,140.66 1069.1,139.62 1073.46,139.52 1077.41,137.02 1080.21,133.38 1083.75,130.89 1084.37,127.76 1082.92,126.41 1083.55,123.18 1086.77,117.35 1089.37,116.62 1089.27,115.37 1091.14,114.44 1090.2,112.88 1088.85,113.08 1088.85,112.25 1087.61,112.25 1087.19,110.16 1088.65,109.23 1089.07,107.87 1088.55,103.5 1090.94,102.04 1093.54,102.57 1094.27,101.73 1095.62,101.73 1097.38,104.55 1100.08,103.62 1100.4,98.41 1103,95.18 1103.32,87.88 1107.28,81.95 1108.32,78.72 1109.77,77.47 1111.85,77.47 1114.24,80.29 1116.32,79.46 1117.47,76.33 1120.27,74.67 1120.27,73.62 1119.03,72.79 1118.93,70.81 1120.18,68.62 1121.53,67.89 1124.75,68.21 1127.25,65.81 1129.22,67.28 1132.02,74.37 1137.21,76.46 1138.66,78.03 1142.09,79.18 1147.29,76.17 1148.85,76.07 1151.02,77.53 1152.68,80.66 1154.96,82.85 1158.39,83.49 1159.53,87.24 1161.19,86.93 1165.13,89.96 1168.15,89.34 1170.32,91.74 1174.69,91.54 1175.62,90.5 1175.22,86.54 1176.05,84.88 1178.96,82.59 1183.54,82.6 1188.95,78.34 1189.68,76.57 1192.39,74.07 1200.91,73.78 1204.97,71.39 1211.62,71.51 1217.55,66.41 1218.9,67.04 1219.83,68.71 1223.58,66.64 1225.34,67.06 1226.07,68.1 1230.33,69.06 1230.85,66.35 1230.03,64.88 1230.97,62.28 1234.81,62.18 1235.85,63.44 1238.34,63.76 1240.22,62.83 1240.12,61.16 1246.47,57.73 1249.06,60.24 1250.41,60.56 1252.07,59.83 1253.33,56.92 1258.64,53.7 1260.4,54.02 1259.98,55.89 1262.69,56.11 1263.63,54.34 1262.7,52.04 1264.26,49.75 1265.51,49.03 1268.22,49.24 1269.88,48.21 1272.89,48.53 1276.23,45.72 1274.89,43.73 1271.97,44.66 1270.42,43.3 1270.73,42.47 1272.71,41.75 1272.82,39.35 1274.28,37.58 1277.5,38.73 1280.71,43.55 1281.75,43.24 1282.17,41.78 1280.93,39.58 1283.43,38.44 1288.51,40.75 1290.49,40.76 1292.04,44 1294,45.99 1299.3,47.05 1300.74,52.07 1304.58,52.6 1304.89,54.9 1303.52,57.92 1305.49,59.07 1309.34,58.67 1310.06,60.45 1312.97,60.25 1314.54,58.79 1314.43,60.25 1316.09,60.47 1317.87,57.24 1323.17,57.36 1324.52,56.12 1324.53,54.34 1329.73,54.57 1330.67,52.18 1334.42,50.84 1337.84,52.41 1338.46,53.98 1341.99,54.41 1343.96,56.93 1345.31,57.35 1347.93,51.73 1351.78,50.91 1351.47,48.51 1353.66,47.89 1354.6,46.54 1356.36,49.47 1358.64,49.79 1359.48,48.23 1362.18,48.55 1364.99,46.89 1371.86,46.19 1372.9,45.05 1372.4,41.5 1374.7,38.27 1375.13,33.79 1372.85,34.09 1370.99,29.8 1373.18,28.14 1373.83,22.51 1375.09,20.63 1375.82,20.01 1376.86,20.64 1378.11,19.39 1377.8,18.14 1376.35,18.55 1376.14,17.51 1379.06,16.79 1379.9,15.22 1379.38,14.49 1380.42,14.91 1381.13,17.42 1382.9,17.33 1382.59,16.28 1383.74,15.87 1384.16,14.2 1384.99,14.62 1385.41,13.79 1386.76,14.32 1387.91,13.8 1388.65,11.92 1390.82,13.92 1394.88,12.58 1395.61,11.95 1394.16,10.49 1394.38,8.92 1396.04,10.29 1399.26,10.41 1399.04,12.18 1400.39,13.54 1402.78,12.93 1403.82,13.46 1400.9,15.74 1403.39,16.17 1404.53,18.05 1405.25,17.95 1404.64,16.7 1405.06,15.55 1406.52,15.24 1407.55,15.88 1407.44,17.86 1408.48,16.92 1409.31,17.97 1412.43,18.3 1413.35,21.65 1415.53,21.66 1415.83,24.79 1420.2,22.93 1418.54,21.88 1420.63,20.95 1421.45,23.36 1420.3,24.81 1423.73,23.89 1422.16,26.81 1423.51,26.71 1424.95,29.95 1426.2,29.12 1426.52,27.35 1427.88,26.52 1430.37,26.54 1430.05,28.31 1432.03,28.94 1432.63,32.39 1433.89,31.25 1432.86,28.53 1435.14,29.07 1436.19,28.03 1438.57,29.6 1439.09,29.19 1438.27,28.56 1438.48,27.52 1440.37,24.29 1441.5,26.59 1442.23,25.24 1443.38,25.45 1443.78,28.17 1446.69,28.29 1448.05,26.63 1447.83,28.4 1449.28,29.77 1449.81,27.37 1451.58,27.17 1452.2,28.32 1452.72,27.8 1452.32,24.67 1453.57,24.36 1454.09,25.41 1454.92,25.41 1454.82,24.57 1456.8,23.33 1456.29,22.29 1457.01,22.19 1459.71,23.14 1459.08,25.02 1459.8,25.54 1462.2,24.3 1462.4,26.81 1463.76,24.62 1464.38,24.94 1464.48,26.61 1465.41,27.45 1464.37,27.76 1465.5,29.02" fill="none" stroke="#1e1e1e" stroke-width="1.05" stroke-linecap="round" stroke-linejoin="round"/>
<polyline points="1465.5,29.02 1465.39,29.96 1465.5,29.02" fill="none" stroke="#1e1e1e" stroke-width="1.05" stroke-linecap="round" stroke-linejoin="round"/>
<path d="M1902.91,444.95L1903.74,444.85L1902.91,444.95Z" fill-rule="evenodd" fill="#4682b4" fill-opacity="0.471"/>
<polyline points="1902.91,444.95 1903.74,444.85 1902.91,444.95" fill="none" stroke="#1e1e1e" stroke-width="1.05" stroke-linecap="round" stroke-linejoin="round"/>
<path d="M1785.65,1152.4L1786.17,1151.79L1787.89,1154.18L1788.08,1155.62L1787.26,1155.82L1786.83,1157.26L1786.01,1156.84L1786.65,1154.79L1785.65,1152.4Z" fill-rule="evenodd" fill="#4682b4" fill-opacity="0.471"/>
<polyline points="1785.65,1152.4 1786.17,1151.79 1787.89,1154.18 1788.08,1155.62 1787.26,1155.82 1786.83,1157.26 1786.01,1156.84 1786.65,1154.79 1785.65,1152.4" fill="none" stroke="#1e1e1e" stroke-width="1.05" stroke-linecap="round" stroke-linejoin="round"/>
<path d="M1786.08,1160.86L1786.9,1160.97L1786.08,1160.86Z" fill-rule="evenodd" fill="#4682b4" fill-opacity="0.471"/>
<polyline points="1786.08,1160.86 1786.9,1160.97 1786.08,1160.86" fill="none" stroke="#1e1e1e" stroke-width="1.05" stroke-linecap="round" stroke-linejoin="round"/>
<path d="M1746.11,799.66L1747.07,796.58L1748.93,795.36L1749.05,793.71L1750.29,792.69L1750.21,790.53L1752.51,787.04L1751.28,786.72L1753.04,784.78L1752.75,783.74L1754.63,780.87L1754.85,778.92L1753.82,779.01L1753.63,777.36L1752.69,778.38L1753.37,771.99L1756.06,770.26L1757.7,771.52L1758.95,769.88L1759.46,770.6L1758.42,771.73L1759.75,772.15L1758.92,773.69L1759.63,774.11L1757.06,774.3L1758.69,776.17L1758.68,777.51L1759.7,777.93L1759.28,779.37L1760.61,779.69L1759.27,780.61L1760.49,781.85L1758.42,782.97L1758.52,783.59L1756.24,784.19L1756.85,785.74L1754.89,786.13L1755.6,786.86L1756.22,786.35L1756.73,787.7L1758.16,788.43L1759.57,791.95L1759.35,793.8L1758.11,794.21L1757.27,795.95L1758.17,799.36L1757.64,801.11L1755.13,804.9L1753.89,805.61L1753.17,804.99L1752.13,806.01L1751.93,805.39L1750.38,806.51L1749.35,805.88L1749.88,804.44L1749.27,804.02L1750.52,802.38L1750.01,801.35L1751.25,800.84L1749.5,801.45L1749.2,799.9L1748.06,800.82L1749.12,797.73L1746.11,799.66Z" fill-rule="evenodd" fill="#4682b4" fill-opacity="0.471"/>
<polyline points="1746.11,799.66 1747.07,796.58 1748.93,795.36 1749.05,793.71 1750.29,792.69 1750.21,790.53 1752.51,787.04 1751.28,786.72 1753.04,784.78 1752.75,783.74 1754.63,780.87 1754.85,778.92 1753.82,779.01 1753.63,777.36 1752.69,778.38 1753.37,771.99 1756.06,770.26 1757.7,771.52 1758.95,769.88 1759.46,770.6 1758.42,771.73 1759.75,772.15 1758.92,773.69 1759.63,774.11 1757.06,774.3 1758.69,776.17 1758.68,777.51 1759.7,777.93 1759.28,779.37 1760.61,779.69 1759.27,780.61 1760.49,781.85 1758.42,782.97 1758.52,783.59 1756.24,784.19 1756.85,785.74 1754.89,786.13 1755.6,786.86 1756.22,786.35 1756.73,787.7 1758.16,788.43 1759.57,791.95 1759.35,793.8 1758.11,794.21 1757.27,795.95 1758.17,799.36 1757.64,801.11 1755.13,804.9 1753.89,805.61 1753.17,804.99 1752.13,806.01 1751.93,805.39 1750.38,806.51 1749.35,805.88 1749.88,804.44 1749.27,804.02 1750.52,802.38 1750.01,801.35 1751.25,800.84 1749.5,801.45 1749.2,799.9 1748.06,800.82 1749.12,797.73 1746.11,799.66" fill="none" stroke="#1e1e1e" stroke-width="1.05" stroke-linecap="round" stroke-linejoin="round"/>
<path d="M1759.39,766.89L1759.39,766.89Z" fill-rule="evenodd" fill="#4682b4" fill-opacity="0.471"/>
<polyline points="1759.39,766.89 1759.39,766.89" fill="none" stroke="#1e1e1e" stroke-width="1.05" stroke-linecap="round" stroke-linejoin="round"/>
<path d="M1758.05,767.4L1759.08,766.99L1758.75,768.74L1758.05,767.4Z" fill-rule="evenodd" fill="#4682b4" fill-opacity="0.471"/>
<polyline points="1758.05,767.4 1759.08,766.99 1758.75,768.74 1758.05,767.4" fill="none" stroke="#1e1e1e" stroke-width="1.05" stroke-linecap="round" stroke-linejoin="round"/>
<path d="M1757.6,770.48L1757.6,770.48Z" fill-rule="evenodd" fill="#4682b4" fill-opacity="0.471"/>
<polyline points="1757.6,770.48 1757.6,770.48" fill="none" stroke="#1e1e1e" stroke-width="1.05" stroke-linecap="round" stroke-linejoin="round"/>
<path d="M1756.79,769.03L1756.79,769.03Z" fill-rule="evenodd" fill="#4682b4" fill-opacity="0.471"/>
<polyline points="1756.79,769.03 1756.79,769.03" fill="none" stroke="#1e1e1e" stroke-width="1.05" stroke-linecap="round" stroke-linejoin="round"/>
<path d="M1756.06,770.06L1756.28,769.34L1756.06,770.06Z" fill-rule="evenodd" fill="#4682b4" fill-opacity="0.471"/>
<polyline points="1756.06,770.06 1756.28,769.34 1756.06,770.06" fill="none" stroke="#1e1e1e" stroke-width="1.05" stroke-linecap="round" stroke-linejoin="round"/>
<path d="M1749.93,787.02L1750.55,787.33L1749.93,787.02Z" fill-rule="evenodd" fill="#4682b4" fill-opacity="0.471"/>
<polyline points="1749.93,787.02 1750.55,787.33 1749.93,787.02" fill="none" stroke="#1e1e1e" stroke-width="1.05" stroke-linecap="round" stroke-linejoin="round"/>
<path d="M1747.84,779.27L1748.46,778.55L1747.84,779.27Z" fill-rule="evenodd" fill="#4682b4" fill-opacity="0.471"/>
<polyline points="1747.84,779.27 1748.46,778.55 1747.84,779.27" fill="none" stroke="#1e1e1e" stroke-width="1.05" stroke-linecap="round" stroke-linejoin="round"/>
<path d="M1746.23,809.87L1747.16,808.64L1746.23,809.87Z" fill-rule="evenodd" fill="#4682b4" fill-opacity="0.471"/>
<polyline points="1746.23,809.87 1747.16,808.64 1746.23,809.87" fill="none" stroke="#1e1e1e" stroke-width="1.05" stroke-linecap="round" stroke-linejoin="round"/>
<path d="M1746.09,802.35L1746.3,801.42L1746.09,802.35Z" fill-rule="evenodd" fill="#4682b4" fill-opacity="0.471"/>
<polyline points="1746.09,802.35 1746.3,801.42 1746.09,802.35" fill="none" stroke="#1e1e1e" stroke-width="1.05" stroke-linecap="round" stroke-linejoin="round"/>
<path d="M1743.4,803.76L1744.43,803.16L1743.4,803.76Z" fill-rule="evenodd" fill="#4682b4" fill-opacity="0.471"/>
<polyline points="1743.4,803.76 1744.43,803.16 1743.4,803.76" fill="none" stroke="#1e1e1e" stroke-width="1.05" stroke-linecap="round" stroke-linejoin="round"/>
<path d="M1738.15,814.23L1739.7,814.45L1740.84,812.81L1743.11,812.63L1742.47,815.61L1740.83,814.88L1739.79,815.38L1738.15,814.23Z" fill-rule="evenodd" fill="#4682b4" fill-opacity="0.471"/>
<polyline points="1738.15,814.23 1739.7,814.45 1740.84,812.81 1743.11,812.63 1742.47,815.61 1740.83,814.88 1739.79,815.38 1738.15,814.23" fill="none" stroke="#1e1e1e" stroke-width="1.05" stroke-linecap="round" stroke-linejoin="round"/>
<path d="M1738.78,790.22L1739.1,788.78L1740.32,790.44L1740.72,791.78L1739.99,792.7L1738.78,790.22Z" fill-rule="evenodd" fill="#4682b4" fill-opacity="0.471"/>
<polyline points="1738.78,790.22 1739.1,788.78 1740.32,790.44 1740.72,791.78 1739.99,792.7 1738.78,790.22" fill="none" stroke="#1e1e1e" stroke-width="1.05" stroke-linecap="round" stroke-linejoin="round"/>
<path d="M1739.48,781.05L1740.31,780.13L1739.78,781.46L1739.48,781.05Z" fill-rule="evenodd" fill="#4682b4" fill-opacity="0.471"/>
<polyline points="1739.48,781.05 1740.31,780.13 1739.78,781.46 1739.48,781.05" fill="none" stroke="#1e1e1e" stroke-width="1.05" stroke-linecap="round" stroke-linejoin="round"/>
<path d="M1735.89,801.74L1737.97,800.42L1738.06,801.96L1735.89,801.74Z" fill-rule="evenodd" fill="#4682b4" fill-opacity="0.471"/>
<polyline points="1735.89,801.74 1737.97,800.42 1738.06,801.96 1735.89,801.74" fill="none" stroke="#1e1e1e" stroke-width="1.05" stroke-linecap="round" stroke-linejoin="round"/>
<path d="M1735.68,791.01L1737.74,791.24L1735.68,791.01Z" fill-rule="evenodd" fill="#4682b4" fill-opacity="0.471"/>
<polyline points="1735.68,791.01 1737.74,791.24 1735.68,791.01" fill="none" stroke="#1e1e1e" stroke-width="1.05" stroke-linecap="round" stroke-linejoin="round"/>
<path d="M1736.5,802.78L1737.33,802.47L1736.5,802.78Z" fill-rule="evenodd" fill="#4682b4" fill-opacity="0.471"/>
<polyline points="1736.5,802.78 1737.33,802.47 1736.5,802.78" fill="none" stroke="#1e1e1e" stroke-width="1.05" stroke-linecap="round" stroke-linejoin="round"/>
<text x="1032.78" y="869.78" font-family="sans-serif" font-size="14" stroke="#ffffff" stroke-opacity="0.784" stroke-width="2.33" stroke-linejoin="round" paint-order="stroke" fill="#141414">Democratic Republic of the Congo</text>
</svg>
