<?xml version="1.0" encoding="UTF-8" standalone="no"?>
<svg xmlns="http://www.w3.org/2000/svg" width="2000" height="1973" viewBox="0 0 2000 1973">
<rect width="2000" height="1973" fill="#ffffff"/>
<path d="M194.95,1725.68L194.59,1731.06L193.76,1732.79L194.11,1739.25L191.43,1741.27L190.89,1742.9L191.98,1748.28L190.64,1752.11L191.15,1754.68L189.69,1759.28L190.09,1764.68L188.44,1767.36L190.2,1771.2L189.81,1774.62L191.66,1786.95L188.15,1806.75L184.47,1810.2L182.8,1822.15L181.48,1824.61L179.3,1826.33L177.33,1833.37L177.46,1836.08L170.24,1845.62L169.85,1847.19L167.79,1848.17L166.6,1847.42L170.27,1844.18L163.52,1850.19L159.12,1857.83L160.38,1860.88L159.58,1864.17L157.01,1866.68L152.17,1869.32L150.32,1872.93L147.17,1874.95L145.03,1875.56L143.84,1875.12L141.87,1872.14L140.15,1873.09L138.26,1872.46L138.22,1874.35L135.09,1876.57L134.24,1875.77L133.37,1876.26L131.89,1875.6L132.03,1874.01L131.39,1873.95L126.56,1878.15L125.33,1881.8L123.39,1882.75L121.22,1885.56L119.09,1886.48L117.43,1888.86L112.11,1892.91L108.65,1897.34L105.62,1898.79L105.3,1902L109.44,1912.29L109.44,1914.41L108.15,1914.41L105.77,1918.06L103.34,1919.51L103.2,1920.81L100.87,1922.98L99.17,1927.25L95.54,1928.49L94.79,1930.59L93.13,1930.99L91.21,1932.76L89.72,1936.96L86.6,1937.75L86.01,1939.67L84.31,1940.73L83.42,1940.64L82.45,1938.61L82.1,1941.32L77.49,1943.63L76.75,1945.41L77.13,1947.18L75.32,1946.9L76.75,1949.48L76.55,1952.13L72.89,1954.05L71.41,1957.02L68.25,1959.54L66.97,1958.53L66,1960.65L64.49,1960.45L64.82,1962.44L64.11,1963.67L65.35,1964.61L31.11,1965L28.33,1727.47L194.95,1725.68Z" fill-rule="evenodd" fill="#4682b4" fill-opacity="0.471"/>
<polyline points="194.95,1725.68 194.59,1731.06 193.76,1732.79 194.11,1739.25 191.43,1741.27 190.89,1742.9 191.98,1748.28 190.64,1752.11 191.15,1754.68 189.69,1759.28 190.09,1764.68 188.44,1767.36 190.2,1771.2 189.81,1774.62 191.66,1786.95 188.15,1806.75 184.47,1810.2 182.8,1822.15 181.48,1824.61 179.3,1826.33 177.33,1833.37 177.46,1836.08 170.24,1845.62 169.85,1847.19 167.79,1848.17 166.6,1847.42 170.27,1844.18 163.52,1850.19 159.12,1857.83 160.38,1860.88 159.58,1864.17 157.01,1866.68 152.17,1869.32 150.32,1872.93 147.17,1874.95 145.03,1875.56 143.84,1875.12 141.87,1872.14 140.15,1873.09 138.26,1872.46 138.22,1874.35 135.09,1876.57 134.24,1875.77 133.37,1876.26 131.89,1875.6 132.03,1874.01 131.39,1873.95 126.56,1878.15 125.33,1881.8 123.39,1882.75 121.22,1885.56 119.09,1886.48 117.43,1888.86 112.11,1892.91 108.65,1897.34 105.62,1898.79 105.3,1902 109.44,1912.29 109.44,1914.41 108.15,1914.41 105.77,1918.06 103.34,1919.51 103.2,1920.81 100.87,1922.98 99.17,1927.25 95.54,1928.49 94.79,1930.59 93.13,1930.99 91.21,1932.76 89.72,1936.96 86.6,1937.75 86.01,1939.67 84.31,1940.73 83.42,1940.64 82.45,1938.61 82.1,1941.32 77.49,1943.63 76.75,1945.41 77.13,1947.18 75.32,1946.9 76.75,1949.48 76.55,1952.13 72.89,1954.05 71.41,1957.02 68.25,1959.54 66.97,1958.53 66,1960.65 64.49,1960.45 64.82,1962.44 64.11,1963.67 65.35,1964.61 31.11,1965 28.33,1727.47 194.95,1725.68" fill="none" stroke="#1e1e1e" stroke-width="1.05" stroke-linecap="round" stroke-linejoin="round"/>
<path d="M146.93,1439.11L146.96,1439.78L146.03,1439.88L146.71,1442.98L145.98,1445.09L144.84,1446L142.87,1445.18L141.98,1445.65L144.47,1452.56L144.82,1457.48L146.87,1461.07L148.73,1462.49L149.12,1464.01L149.33,1466.93L147.4,1474.47L144.32,1477.28L137.62,1475.42L135.45,1478.47L132.87,1479.8L132.08,1479.44L130.49,1480.99L129.91,1479.69L133.85,1475.82L130.66,1478.29L129.02,1480.59L128.89,1482.27L129.64,1480.41L128.91,1483.01L128.1,1484L127.78,1483.3L128.69,1482.49L127.76,1483.14L127.35,1486.76L123.23,1491.27L122.29,1496.2L117.85,1496.49L116.01,1500.42L114.81,1500.99L112.69,1506.17L109.31,1509.21L108.92,1511.53L108.04,1511.42L108.64,1510.13L107.94,1508.9L108.58,1508.28L107.44,1507.75L108.31,1505.4L107.39,1504.35L108.04,1503.86L109.14,1504.38L108.43,1503.8L109.88,1502.71L109.61,1501.6L110.91,1499.27L112.46,1498.62L113.57,1496.34L117.64,1492.99L119.64,1489.96L121.65,1489.2L121.57,1487.7L124.14,1487.31L123.74,1486.69L122.87,1487.01L124.06,1486.6L122.62,1486.3L121.54,1486.91L112.1,1496.75L108.79,1503.23L106.93,1504.12L106.58,1509.93L117.01,1527.19L123.64,1536.6L122.45,1535.92L125.85,1543.45L125.99,1546.41L125.17,1548.9L128.88,1555.22L128.03,1556.28L128.44,1557.71L127.49,1558.38L130.94,1563.31L132.13,1566.6L130.24,1570.07L127.87,1570.66L127.99,1571.74L137.55,1585.35L140.15,1590.41L140.06,1592.82L143.21,1599.12L142.22,1601.31L140.26,1601.37L140.09,1601.96L145.17,1607.4L145.2,1608.73L153.16,1616.37L156.73,1626.3L162.48,1632.94L164.57,1641.12L162.8,1644.04L174.2,1655.82L188.14,1673.17L188.93,1675.44L187.99,1677.44L185.99,1678.67L184.88,1681.1L183.64,1681.25L183.83,1680.77L182.51,1682.19L194.31,1698.3L196.61,1703.53L197.63,1708.87L196.69,1710.99L196.88,1713.82L194.95,1725.77L28.33,1727.56L24.96,1440.45L146.93,1439.11ZM120.54,1493.64L120.84,1494.59L121.48,1494.31L120.89,1494.57L120.54,1493.64ZM119.17,1492.56L117.34,1494.54L119.78,1493.59L120.22,1490.85L119.17,1492.56Z" fill-rule="evenodd" fill="#4682b4" fill-opacity="0.471"/>
<polyline points="146.93,1439.11 146.96,1439.78 146.03,1439.88 146.71,1442.98 145.98,1445.09 144.84,1446 142.87,1445.18 141.98,1445.65 144.47,1452.56 144.82,1457.48 146.87,1461.07 148.73,1462.49 149.12,1464.01 149.33,1466.93 147.4,1474.47 144.32,1477.28 137.62,1475.42 135.45,1478.47 132.87,1479.8 132.08,1479.44 130.49,1480.99 129.91,1479.69 133.85,1475.82 130.66,1478.29 129.02,1480.59 128.89,1482.27 129.64,1480.41 128.91,1483.01 128.1,1484 127.78,1483.3 128.69,1482.49 127.76,1483.14 127.35,1486.76 123.23,1491.27 122.29,1496.2 117.85,1496.49 116.01,1500.42 114.81,1500.99 112.69,1506.17 109.31,1509.21 108.92,1511.53 108.04,1511.42 108.64,1510.13 107.94,1508.9 108.58,1508.28 107.44,1507.75 108.31,1505.4 107.39,1504.35 108.04,1503.86 109.14,1504.38 108.43,1503.8 109.88,1502.71 109.61,1501.6 110.91,1499.27 112.46,1498.62 113.57,1496.34 117.64,1492.99 119.64,1489.96 121.65,1489.2 121.57,1487.7 124.14,1487.31 123.74,1486.69 122.87,1487.01 124.06,1486.6 122.62,1486.3 121.54,1486.91 112.1,1496.75 108.79,1503.23 106.93,1504.12 106.58,1509.93 117.01,1527.19 123.64,1536.6 122.45,1535.92 125.85,1543.45 125.99,1546.41 125.17,1548.9 128.88,1555.22 128.03,1556.28 128.44,1557.71 127.49,1558.38 130.94,1563.31 132.13,1566.6 130.24,1570.07 127.87,1570.66 127.99,1571.74 137.55,1585.35 140.15,1590.41 140.06,1592.82 143.21,1599.12 142.22,1601.31 140.26,1601.37 140.09,1601.96 145.17,1607.4 145.2,1608.73 153.16,1616.37 156.73,1626.3 162.48,1632.94 164.57,1641.12 162.8,1644.04 174.2,1655.82 188.14,1673.17 188.93,1675.44 187.99,1677.44 185.99,1678.67 184.88,1681.1 183.64,1681.25 183.83,1680.77 182.51,1682.19 194.31,1698.3 196.61,1703.53 197.63,1708.87 196.69,1710.99 196.88,1713.82 194.95,1725.77 28.33,1727.56 24.96,1440.45 146.93,1439.11" fill="none" stroke="#1e1e1e" stroke-width="1.05" stroke-linecap="round" stroke-linejoin="round"/>
<polyline points="120.54,1493.64 120.84,1494.59 121.48,1494.31 120.89,1494.57 120.54,1493.64" fill="none" stroke="#1e1e1e" stroke-width="1.05" stroke-linecap="round" stroke-linejoin="round"/>
<polyline points="119.17,1492.56 117.34,1494.54 119.78,1493.59 120.22,1490.85 119.17,1492.56" fill="none" stroke="#1e1e1e" stroke-width="1.05" stroke-linecap="round" stroke-linejoin="round"/>
<path d="M21.78,1169.01L31.3,1180.77L36.05,1184.73L41.56,1191.49L42.75,1194.12L40.33,1196.98L29.74,1203.2L29.85,1207.35L42.24,1225.2L53.47,1248.54L59.02,1256.84L59.71,1259.92L79.06,1281.05L80.26,1283.95L87.5,1293.88L87.43,1297.38L89.76,1305.8L89.12,1310.01L90.58,1317.12L90.23,1321.92L96.51,1328.84L98.92,1339L101.93,1344.77L103.3,1349.44L105.83,1353.47L105.42,1355.99L107.79,1358.85L108.46,1362.15L111.63,1368.07L112.74,1373.77L116.44,1379.13L116.65,1380.13L115.85,1380.93L121.1,1388.56L121.42,1391.72L124.75,1396L124.35,1397L128.04,1404.89L132.93,1410.94L133.39,1415.2L143.33,1430.06L146.93,1439.2L24.96,1440.54L21.78,1169.01Z" fill-rule="evenodd" fill="#4682b4" fill-opacity="0.471"/>
<polyline points="21.78,1169.01 31.3,1180.77 36.05,1184.73 41.56,1191.49 42.75,1194.12 40.33,1196.98 29.74,1203.2 29.85,1207.35 42.24,1225.2 53.47,1248.54 59.02,1256.84 59.71,1259.92 79.06,1281.05 80.26,1283.95 87.5,1293.88 87.43,1297.38 89.76,1305.8 89.12,1310.01 90.58,1317.12 90.23,1321.92 96.51,1328.84 98.92,1339 101.93,1344.77 103.3,1349.44 105.83,1353.47 105.42,1355.99 107.79,1358.85 108.46,1362.15 111.63,1368.07 112.74,1373.77 116.44,1379.13 116.65,1380.13 115.85,1380.93 121.1,1388.56 121.42,1391.72 124.75,1396 124.35,1397 128.04,1404.89 132.93,1410.94 133.39,1415.2 143.33,1430.06 146.93,1439.2 24.96,1440.54 21.78,1169.01" fill="none" stroke="#1e1e1e" stroke-width="1.05" stroke-linecap="round" stroke-linejoin="round"/>
<path d="M21.33,1130.92L24.64,1142.42L24.39,1144.96L22.49,1146.54L21.5,1145.81L21.33,1130.92Z" fill-rule="evenodd" fill="#4682b4" fill-opacity="0.471"/>
<polyline points="21.33,1130.92 24.64,1142.42 24.39,1144.96 22.49,1146.54 21.5,1145.81 21.33,1130.92" fill="none" stroke="#1e1e1e" stroke-width="1.05" stroke-linecap="round" stroke-linejoin="round"/>
</svg>
