<?xml version="1.0" encoding="UTF-8" standalone="no"?>
<svg xmlns="http://www.w3.org/2000/svg" width="1580" height="2000" viewBox="0 0 1580 2000">
<rect width="1580" height="2000" fill="#ffffff"/>
<path d="M453.9,26.41L458.6,35.36L457.93,37.42L460.29,38.41L460.57,41.51L458.74,43.13L461.93,47.81L465.52,47.76L466.08,50.97L467.05,49.79L468.83,51.63L471.71,51.33L472.82,54.16L477.17,54.87L478.05,58.1L479.97,56.58L481.63,58.01L485.97,57.76L489.58,60.69L495.11,60.97L502.68,67.32L503.48,73.31L500.5,77.37L495.72,79.07L489.91,77.73L488.04,79.17L483.1,71.34L478.55,73.24L480.75,75.46L480.31,77.18L477.01,76.52L476.88,78.46L474,80.58L480.01,85.47L483.89,86.06L488.87,89.41L489.19,91.96L496.2,96.35L495.28,100.98L491.65,100.44L490.22,103.88L485.67,103.74L491.98,106.12L491.07,110.58L488.55,110.33L487.63,112.04L487.95,114.12L484.86,114.44L485.66,110.99L482.87,109.62L482.23,111.12L480.98,109.29L476.44,110.23L472.35,109.3L469.84,110.57L466.16,108.99L465.09,111.07L463.62,109.21L462.05,111.79L458.21,111.65L463.97,117.63L460.68,119.65L452.63,115.45L451.76,112.56L454.91,110.52L452.75,107.19L442.68,107.48L436.8,105.47L430.66,105.36L429.6,105.88L436.94,108.86L437.66,111.19L436.53,113.52L430.88,114.83L424.18,119.23L419.95,119.17L418.42,121.09L407.54,126.17L418.83,123.03L422.18,124.29L423.16,126.51L435.7,130.77L440,139.15L442.9,137.82L455.68,140.31L460.2,139.22L462.26,141.39L462.31,143.88L457.54,146.75L460.92,152.13L465.85,152.63L470.94,156.38L472.64,153.88L478.14,150.96L484.54,154.42L486.06,153.37L489.2,155.43L490.94,155.06L493.52,157.58L496.77,156.66L506.52,169.86L504.71,179.2L507.91,201.72L506.49,204.47L500.4,205.44L502.22,207.38L500.74,209.06L499.33,208.56L497.42,211.35L502.23,212.1L500.43,214.37L496.16,215.59L495.19,217.82L497.2,219.49L496.04,222.23L492.42,222.94L495.31,224.62L495.62,223.16L499.09,222.71L500.89,215.87L506.98,212.01L508.55,212.86L508.22,211.86L509.51,211.86L514.28,214.37L516.76,218.53L512.38,221.93L511.08,225.34L509.5,225.27L508.28,230.34L505.17,230.98L504.39,229.21L500.29,229.31L498.86,230.05L500.09,233.45L498.21,236.51L492.65,235.53L492.27,237.07L495.26,238.92L493.21,242.9L490.19,243.9L487.37,241.73L484.87,245.19L483.3,244.27L474.08,250.79L469.91,249.14L468.75,246.62L467.26,247.36L465.43,245.98L465.44,247.98L463.94,247.97L464.39,250.67L462.89,251.11L462.74,252.94L460.94,252.96L461.33,255.05L458.06,254.23L455.04,256.16L454.34,255.23L454.8,256.64L458.65,258.4L456.88,261.59L459.96,262.82L458.72,267.18L461.92,267.19L462.22,268.95L465.12,270.04L465.86,275.78L467.78,276.69L467.19,279.52L463.36,282.99L461.67,282.38L461.95,281.44L463.08,281.63L458.09,279.82L460.21,282.01L459.45,285.63L461.29,287.98L458.44,293.38L452.79,295.76L449.07,291.87L448.54,296.06L445.54,295.99L445.93,298.25L442.33,302.53L442.06,305.33L435.4,307.39L432.22,310.95L433.36,313.22L438.67,314.81L443.99,322.67L444.89,327.74L442.91,331.08L439.57,332.84L441.4,337.67L439.71,343.4L440.25,346.58L445.29,355.71L445.39,364.34L451.62,372.23L454.93,378.74L454.77,382.13L458.03,385.17L460.08,393.15L459.45,396.09L462,399.04L461.41,401.19L467.95,408.83L469.07,412.49L474.72,417.47L476.99,423.88L478.2,423.28L478.21,424.97L481.51,426.13L481.94,428.14L488.86,433.7L497.55,444.22L500.11,449.58L499.05,451.47L501.38,452.97L504.31,458.51L504.65,464.03L503.72,465.67L501.37,465.77L502.4,467.37L505.86,467.15L507.87,468.92L507.84,466.55L511.6,465.39L515.67,468.17L515.38,470.75L523.48,473.02L527.6,471.85L527.85,473.58L533.92,474.89L536.09,476.77L539.65,475.49L545.64,478.08L552.56,475.66L556.59,478.83L556.51,482.38L560.1,481.77L560.42,479.49L563.42,478.87L565.55,481.33L564.22,483L570.55,486.13L572.27,485.95L573.3,482.78L576.92,481.72L583.77,483L585.13,485.26L592.56,487.05L593.67,485.1L600.13,486.38L614.58,493.72L616.91,496.11L615.83,497.75L619.96,497.23L628.44,501.46L639.92,512.12L636.25,517.15L645.82,521.81L654.32,529.78L656.65,535.97L660.72,541.36L660.58,544.1L662.89,548.61L680.68,567.02L681.7,579.28L685.19,582.11L688.5,581.57L690.9,584.48L690.02,586L691.79,586.86L693.21,583.82L698.71,582.59L698.44,577.31L703.42,567.11L703.33,562.59L706.75,553.92L712.11,548.87L716.14,547.95L717.48,544.19L727.47,541.62L731.67,536.19L729.48,533.6L724.24,532.76L724.56,527.05L726.46,524.02L731.95,520.95L734.6,522.8L734.17,524.01L737.15,524.1L739.25,527.35L745.36,528.47L746.92,526.52L744.89,521.65L745.39,518.49L749.53,516.81L752.61,518.33L754.22,515.88L753.37,512.85L757.76,508.61L755.9,508.89L755.89,506.11L763.7,504.15L762.62,502.59L763.89,499.38L765.52,498.24L770.88,499.23L771.8,495.77L775.97,494.25L775.81,493.07L765.66,491.62L759.02,494.99L752.95,490.89L756.18,488.71L756.12,485.66L759.74,484.29L762,485.05L760.86,483.17L757.14,482.51L756.23,478.51L752.58,477.53L750.77,475.35L752.95,469.71L759.1,467.64L756.62,460.09L753.04,460.28L751.68,459.18L752.53,457.93L744.07,454.49L742.2,455.95L739.8,454.23L736.4,456.43L726.73,455.56L722.52,451.51L722.12,448.57L717.87,447.6L712.21,442.83L709.89,443L710.51,445.04L707.84,443.76L707.27,445.83L703.93,445.73L705.54,445.18L704.51,444.01L702.73,446.95L702.8,445.44L701.32,445.79L701.37,444.04L703.05,443.72L703.78,441.77L697.81,444.84L691.08,441.36L689.9,443.22L687.2,441.13L688.44,441.54L688.75,440.66L690.13,441.68L689.53,437.4L686.35,437.25L686.31,438.39L675.11,428.53L673.57,430.53L674.13,428.34L671,429.06L670.79,427.44L671.2,428.99L674.36,427.57L671.72,427.18L672.46,422.58L666.57,427.01L664.47,425.87L665.09,424.24L662.14,425.28L664.92,423.98L665.54,424.52L665.23,426.15L667.04,426.47L669.51,422.76L667.74,421.19L663.65,421.85L664.3,420.87L666.68,421L665.74,418.91L662.81,418.85L664.36,418.08L662.48,417.24L664.42,417.14L664.47,417.76L665.07,415.62L665.22,417.39L666.79,417.6L669.61,421.57L673.05,421.22L675.71,423.66L677.59,423.54L678.94,420.26L678.15,417.27L672.2,418.33L669.15,416.23L667.3,411.67L664.84,412.98L660.4,409.33L665.19,411.76L663.79,405.55L661.18,405.86L653.29,402.64L649.46,397.22L648.58,398.87L647.55,397.24L644.45,398.33L648.26,397.2L647.04,395.84L649.12,394.86L648.46,389.7L646.16,387.96L646.22,384.62L645.03,383.99L646.97,383.24L645.77,372.55L647.31,364.92L645.88,361.66L647.93,355.5L645.6,349.66L631.57,341.6L631.06,339.18L633.1,333.67L625.77,328.89L623.74,323.69L615.1,322.55L612.21,322.96L612.24,324.22L609.13,325.86L607.7,324.5L608.17,322.02L608.61,324.98L613.94,321.8L624.51,322.74L626.57,327.94L634.86,333.11L635.25,336.5L633.41,341.03L639.04,342.51L645.49,347.08L648.91,346.88L646.05,347.5L652.27,354.67L650.18,361.07L656.44,371.25L665.16,374.38L670.26,374.27L672.6,376.67L676.04,375.56L675.81,376.72L679.76,377.2L679.1,377.87L680.99,379L684.27,378.58L685.72,375.06L689.34,373.51L696.31,374.63L695.76,372.79L698.39,375.42L698.77,372.88L698.67,375.45L699.22,374.19L700.16,375.59L700.27,372.88L700.65,375.49L702.38,374.86L702.19,373.16L703.09,377.29L704.33,374.7L705.37,374.94L704.28,375.19L703.79,379.43L707.53,379.42L705.25,380.3L707.25,382.11L705.91,384.68L702.96,385.04L703.9,387.5L709.67,388.39L713.81,385.53L717.6,388.28L721.34,388.75L724.48,391.29L728.84,398.63L742.43,404.72L744.42,410.34L748.4,407.34L746.66,408.45L747.6,409.37L746.24,409.49L746.61,410.47L741.49,410.56L740.6,412.1L746.03,413.92L748.28,412.53L754.64,421.14L759.11,419.02L756.94,422.01L764.31,425.01L769.43,430.49L772.26,431.66L772.23,429.39L773,429.57L772.44,430.98L775.84,433.33L777.23,431.2L775.68,431.19L776.22,429.91L776.57,430.5L775.79,431.17L777.33,431.17L776.55,433.24L778.66,431.73L777.26,432.95L780.95,435.91L781.84,433.72L781.73,435.33L784.31,437.82L785.61,435.73L784.39,437.3L786.47,439L787.31,438.29L786.13,436.54L788.31,436.21L786.24,437.18L791.28,439.38L792.24,438.26L791.31,436.62L792.8,435.95L791.43,436.76L792.42,438.09L791.89,439.28L796.29,438.99L794.35,436.52L796.29,437.5L795.5,436.27L797.5,436.53L798.32,434.2L797.53,436.71L795.7,436.38L796.89,437.85L796.78,438.94L798.05,438.64L796.51,439.34L800.33,439.47L801.29,437.82L801.09,439.14L799.61,440.24L801.94,440.66L802.49,438.47L803.14,440.52L804.25,436.37L806.4,435.79L804.29,436.62L804.25,439.59L811.06,439.78L804.29,439.75L802.88,440.99L792.72,440.32L781.42,441.92L780.97,443.03L796.58,441.11L812.68,443.17L818.4,445.85L818.32,448.35L819.59,448.32L818.34,451.69L820.08,452.92L819.82,454.46L827.41,461.2L827.88,459L830.44,459.97L830.26,458.41L831.68,459.63L830.22,458.5L830.55,460.07L828.39,459.32L828.96,461.59L826.94,461.56L826.83,464.85L825.95,464.5L826.24,463.64L824.28,464.9L822.48,464.15L824.21,466.63L821.53,471.16L830.85,478.39L833.36,482.57L831.7,483.3L837.32,487.22L843.8,495.43L851.03,506.15L856.59,518.87L854.95,524.15L849.1,527.64L845.44,535.49L842.57,535.07L842.96,537.15L840.55,539.21L840.3,541.75L842.59,548.67L838.7,554.77L839.77,555.89L842.61,554.44L844.28,555.83L843.65,554.9L845.75,555.03L847.43,558.87L844.43,561.68L856.65,569.03L859,573.64L857.07,575.64L860.01,578.98L886.42,597.24L888.08,600.55L905.65,596.93L904.24,596.61L909.87,596.5L942.98,606.52L943.41,984.71L13.79,982.56L19.32,24.61L453.9,26.41ZM707.08,441.77L708.33,440.28L715.8,440.68L711.64,437.37L705.75,436.11L704.02,438.1L701.17,438.06L702.66,440.01L705.23,439.08L704.76,440.1L707.08,441.77ZM695.65,400.35L689.6,402.8L688.45,401.13L687.36,401.85L689.52,397.99L690.56,398.97L694.39,397.27L680.29,392.32L678.82,393.14L674.76,390.74L663.82,392.58L662.5,394.82L667.93,405.5L676.18,408.86L684.48,408.72L696.96,403.92L698.28,401.25L695.65,400.35ZM648.02,387.03L646.7,384.46L646.26,387.1L648.02,387.03ZM703.48,379.54L701.35,379.39L699.84,376.33L698.09,376.79L697.95,380.1L705.38,384.32L706.13,382.21L703.48,379.54ZM702.36,379.44L703.59,378.77L702.33,375.16L701.81,378.9L702.36,379.44ZM433.84,142.34L435.07,143.24L439.4,141.16L433.84,142.34ZM420.77,138.12L419.16,135.8L415.15,138.89L418.48,137.68L419.53,139.47L420.77,138.12ZM426.18,133.33L428.79,132.24L428.63,131.09L425.24,131.64L426.18,133.33ZM839.87,563.28L842.97,563.25L843.98,561.78L839.87,563.28ZM763.41,513.34L765.6,516.04L769.65,513.65L768.52,512.76L763.41,513.34ZM762.66,509.13L763.03,512.52L764.86,511.52L764.23,508.74L762.66,509.13ZM781.62,495.82L775.9,496.4L777.35,497.4L781.62,495.82ZM783.59,494.55L788.56,496.43L789.99,495.72L783.59,494.55ZM775.92,485.89L769.97,486.22L770.78,489.22L767.34,490.52L770.42,490.48L773.58,489.07L772.05,487.76L775.92,485.89ZM760.21,451.12L762.95,450.91L762.02,453.69L756.8,453.83L757.74,456.85L762.58,457.97L766.92,456.04L764.65,453.57L766.31,451.23L763.05,450.17L760.21,451.12ZM740.08,438.19L733.99,437.57L733.84,435.99L725.46,436.27L737.23,440.83L743.97,441.11L743.55,438.99L741.17,439.67L740.08,438.19ZM720.28,435.5L723.74,435.04L722.94,434.23L712.79,432.26L720.28,435.5Z" fill-rule="evenodd" fill="#4682b4" fill-opacity="0.471"/>
<polyline points="453.9,26.41 458.6,35.36 457.93,37.42 460.29,38.41 460.57,41.51 458.74,43.13 461.93,47.81 465.52,47.76 466.08,50.97 467.05,49.79 468.83,51.63 471.71,51.33 472.82,54.16 477.17,54.87 478.05,58.1 479.97,56.58 481.63,58.01 485.97,57.76 489.58,60.69 495.11,60.97 502.68,67.32 503.48,73.31 500.5,77.37 495.72,79.07 489.91,77.73 488.04,79.17 483.1,71.34 478.55,73.24 480.75,75.46 480.31,77.18 477.01,76.52 476.88,78.46 474,80.58 480.01,85.47 483.89,86.06 488.87,89.41 489.19,91.96 496.2,96.35 495.28,100.98 491.65,100.44 490.22,103.88 485.67,103.74 491.98,106.12 491.07,110.58 488.55,110.33 487.63,112.04 487.95,114.12 484.86,114.44 485.66,110.99 482.87,109.62 482.23,111.12 480.98,109.29 476.44,110.23 472.35,109.3 469.84,110.57 466.16,108.99 465.09,111.07 463.62,109.21 462.05,111.79 458.21,111.65 463.97,117.63 460.68,119.65 452.63,115.45 451.76,112.56 454.91,110.52 452.75,107.19 442.68,107.48 436.8,105.47 430.66,105.36 429.6,105.88 436.94,108.86 437.66,111.19 436.53,113.52 430.88,114.83 424.18,119.23 419.95,119.17 418.42,121.09 407.54,126.17 418.83,123.03 422.18,124.29 423.16,126.51 435.7,130.77 440,139.15 442.9,137.82 455.68,140.31 460.2,139.22 462.26,141.39 462.31,143.88 457.54,146.75 460.92,152.13 465.85,152.63 470.94,156.38 472.64,153.88 478.14,150.96 484.54,154.42 486.06,153.37 489.2,155.43 490.94,155.06 493.52,157.58 496.77,156.66 506.52,169.86 504.71,179.2 507.91,201.72 506.49,204.47 500.4,205.44 502.22,207.38 500.74,209.06 499.33,208.56 497.42,211.35 502.23,212.1 500.43,214.37 496.16,215.59 495.19,217.82 497.2,219.49 496.04,222.23 492.42,222.94 495.31,224.62 495.62,223.16 499.09,222.71 500.89,215.87 506.98,212.01 508.55,212.86 508.22,211.86 509.51,211.86 514.28,214.37 516.76,218.53 512.38,221.93 511.08,225.34 509.5,225.27 508.28,230.34 505.17,230.98 504.39,229.21 500.29,229.31 498.86,230.05 500.09,233.45 498.21,236.51 492.65,235.53 492.27,237.07 495.26,238.92 493.21,242.9 490.19,243.9 487.37,241.73 484.87,245.19 483.3,244.27 474.08,250.79 469.91,249.14 468.75,246.62 467.26,247.36 465.43,245.98 465.44,247.98 463.94,247.97 464.39,250.67 462.89,251.11 462.74,252.94 460.94,252.96 461.33,255.05 458.06,254.23 455.04,256.16 454.34,255.23 454.8,256.64 458.65,258.4 456.88,261.59 459.96,262.82 458.72,267.18 461.92,267.19 462.22,268.95 465.12,270.04 465.86,275.78 467.78,276.69 467.19,279.52 463.36,282.99 461.67,282.38 461.95,281.44 463.08,281.63 458.09,279.82 460.21,282.01 459.45,285.63 461.29,287.98 458.44,293.38 452.79,295.76 449.07,291.87 448.54,296.06 445.54,295.99 445.93,298.25 442.33,302.53 442.06,305.33 435.4,307.39 432.22,310.95 433.36,313.22 438.67,314.81 443.99,322.67 444.89,327.74 442.91,331.08 439.57,332.84 441.4,337.67 439.71,343.4 440.25,346.58 445.29,355.71 445.39,364.34 451.62,372.23 454.93,378.74 454.77,382.13 458.03,385.17 460.08,393.15 459.45,396.09 462,399.04 461.41,401.19 467.95,408.83 469.07,412.49 474.72,417.47 476.99,423.88 478.2,423.28 478.21,424.97 481.51,426.13 481.94,428.14 488.86,433.7 497.55,444.22 500.11,449.58 499.05,451.47 501.38,452.97 504.31,458.51 504.65,464.03 503.72,465.67 501.37,465.77 502.4,467.37 505.86,467.15 507.87,468.92 507.84,466.55 511.6,465.39 515.67,468.17 515.38,470.75 523.48,473.02 527.6,471.85 527.85,473.58 533.92,474.89 536.09,476.77 539.65,475.49 545.64,478.08 552.56,475.66 556.59,478.83 556.51,482.38 560.1,481.77 560.42,479.49 563.42,478.87 565.55,481.33 564.22,483 570.55,486.13 572.27,485.95 573.3,482.78 576.92,481.72 583.77,483 585.13,485.26 592.56,487.05 593.67,485.1 600.13,486.38 614.58,493.72 616.91,496.11 615.83,497.75 619.96,497.23 628.44,501.46 639.92,512.12 636.25,517.15 645.82,521.81 654.32,529.78 656.65,535.97 660.72,541.36 660.58,544.1 662.89,548.61 680.68,567.02 681.7,579.28 685.19,582.11 688.5,581.57 690.9,584.48 690.02,586 691.79,586.86 693.21,583.82 698.71,582.59 698.44,577.31 703.42,567.11 703.33,562.59 706.75,553.92 712.11,548.87 716.14,547.95 717.48,544.19 727.47,541.62 731.67,536.19 729.48,533.6 724.24,532.76 724.56,527.05 726.46,524.02 731.95,520.95 734.6,522.8 734.17,524.01 737.15,524.1 739.25,527.35 745.36,528.47 746.92,526.52 744.89,521.65 745.39,518.49 749.53,516.81 752.61,518.33 754.22,515.88 753.37,512.85 757.76,508.61 755.9,508.89 755.89,506.11 763.7,504.15 762.62,502.59 763.89,499.38 765.52,498.24 770.88,499.23 771.8,495.77 775.97,494.25 775.81,493.07 765.66,491.62 759.02,494.99 752.95,490.89 756.18,488.71 756.12,485.66 759.74,484.29 762,485.05 760.86,483.17 757.14,482.51 756.23,478.51 752.58,477.53 750.77,475.35 752.95,469.71 759.1,467.64 756.62,460.09 753.04,460.28 751.68,459.18 752.53,457.93 744.07,454.49 742.2,455.95 739.8,454.23 736.4,456.43 726.73,455.56 722.52,451.51 722.12,448.57 717.87,447.6 712.21,442.83 709.89,443 710.51,445.04 707.84,443.76 707.27,445.83 703.93,445.73 705.54,445.18 704.51,444.01 702.73,446.95 702.8,445.44 701.32,445.79 701.37,444.04 703.05,443.72 703.78,441.77 697.81,444.84 691.08,441.36 689.9,443.22 687.2,441.13 688.44,441.54 688.75,440.66 690.13,441.68 689.53,437.4 686.35,437.25 686.31,438.39 675.11,428.53 673.57,430.53 674.13,428.34 671,429.06 670.79,427.44 671.2,428.99 674.36,427.57 671.72,427.18 672.46,422.58 666.57,427.01 664.47,425.87 665.09,424.24 662.14,425.28 664.92,423.98 665.54,424.52 665.23,426.15 667.04,426.47 669.51,422.76 667.74,421.19 663.65,421.85 664.3,420.87 666.68,421 665.74,418.91 662.81,418.85 664.36,418.08 662.48,417.24 664.42,417.14 664.47,417.76 665.07,415.62 665.22,417.39 666.79,417.6 669.61,421.57 673.05,421.22 675.71,423.66 677.59,423.54 678.94,420.26 678.15,417.27 672.2,418.33 669.15,416.23 667.3,411.67 664.84,412.98 660.4,409.33 665.19,411.76 663.79,405.55 661.18,405.86 653.29,402.64 649.46,397.22 648.58,398.87 647.55,397.24 644.45,398.33 648.26,397.2 647.04,395.84 649.12,394.86 648.46,389.7 646.16,387.96 646.22,384.62 645.03,383.99 646.97,383.24 645.77,372.55 647.31,364.92 645.88,361.66 647.93,355.5 645.6,349.66 631.57,341.6 631.06,339.18 633.1,333.67 625.77,328.89 623.74,323.69 615.1,322.55 612.21,322.96 612.24,324.22 609.13,325.86 607.7,324.5 608.17,322.02 608.61,324.98 613.94,321.8 624.51,322.74 626.57,327.94 634.86,333.11 635.25,336.5 633.41,341.03 639.04,342.51 645.49,347.08 648.91,346.88 646.05,347.5 652.27,354.67 650.18,361.07 656.44,371.25 665.16,374.38 670.26,374.27 672.6,376.67 676.04,375.56 675.81,376.72 679.76,377.2 679.1,377.87 680.99,379 684.27,378.58 685.72,375.06 689.34,373.51 696.31,374.63 695.76,372.79 698.39,375.42 698.77,372.88 698.67,375.45 699.22,374.19 700.16,375.59 700.27,372.88 700.65,375.49 702.38,374.86 702.19,373.16 703.09,377.29 704.33,374.7 705.37,374.94 704.28,375.19 703.79,379.43 707.53,379.42 705.25,380.3 707.25,382.11 705.91,384.68 702.96,385.04 703.9,387.5 709.67,388.39 713.81,385.53 717.6,388.28 721.34,388.75 724.48,391.29 728.84,398.63 742.43,404.72 744.42,410.34 748.4,407.34 746.66,408.45 747.6,409.37 746.24,409.49 746.61,410.47 741.49,410.56 740.6,412.1 746.03,413.92 748.28,412.53 754.64,421.14 759.11,419.02 756.94,422.01 764.31,425.01 769.43,430.49 772.26,431.66 772.23,429.39 773,429.57 772.44,430.98 775.84,433.33 777.23,431.2 775.68,431.19 776.22,429.91 776.57,430.5 775.79,431.17 777.33,431.17 776.55,433.24 778.66,431.73 777.26,432.95 780.95,435.91 781.84,433.72 781.73,435.33 784.31,437.82 785.61,435.73 784.39,437.3 786.47,439 787.31,438.29 786.13,436.54 788.31,436.21 786.24,437.18 791.28,439.38 792.24,438.26 791.31,436.62 792.8,435.95 791.43,436.76 792.42,438.09 791.89,439.28 796.29,438.99 794.35,436.52 796.29,437.5 795.5,436.27 797.5,436.53 798.32,434.2 797.53,436.71 795.7,436.38 796.89,437.85 796.78,438.94 798.05,438.64 796.51,439.34 800.33,439.47 801.29,437.82 801.09,439.14 799.61,440.24 801.94,440.66 802.49,438.47 803.14,440.52 804.25,436.37 806.4,435.79 804.29,436.62 804.25,439.59 811.06,439.78 804.29,439.75 802.88,440.99 792.72,440.32 781.42,441.92 780.97,443.03 796.58,441.11 812.68,443.17 818.4,445.85 818.32,448.35 819.59,448.32 818.34,451.69 820.08,452.92 819.82,454.46 827.41,461.2 827.88,459 830.44,459.97 830.26,458.41 831.68,459.63 830.22,458.5 830.55,460.07 828.39,459.32 828.96,461.59 826.94,461.56 826.83,464.85 825.95,464.5 826.24,463.64 824.28,464.9 822.48,464.15 824.21,466.63 821.53,471.16 830.85,478.39 833.36,482.57 831.7,483.3 837.32,487.22 843.8,495.43 851.03,506.15 856.59,518.87 854.95,524.15 849.1,527.64 845.44,535.49 842.57,535.07 842.96,537.15 840.55,539.21 840.3,541.75 842.59,548.67 838.7,554.77 839.77,555.89 842.61,554.44 844.28,555.83 843.65,554.9 845.75,555.03 847.43,558.87 844.43,561.68 856.65,569.03 859,573.64 857.07,575.64 860.01,578.98 886.42,597.24 888.08,600.55 905.65,596.93 904.24,596.61 909.87,596.5 942.98,606.52 943.41,984.71 13.79,982.56 19.32,24.61 453.9,26.41" fill="none" stroke="#1e1e1e" stroke-width="1.56" stroke-linecap="round" stroke-linejoin="round"/>
<polyline points="707.08,441.77 708.33,440.28 715.8,440.68 711.64,437.37 705.75,436.11 704.02,438.1 701.17,438.06 702.66,440.01 705.23,439.08 704.76,440.1 707.08,441.77" fill="none" stroke="#1e1e1e" stroke-width="1.56" stroke-linecap="round" stroke-linejoin="round"/>
<polyline points="695.65,400.35 689.6,402.8 688.45,401.13 687.36,401.85 689.52,397.99 690.56,398.97 694.39,397.27 680.29,392.32 678.82,393.14 674.76,390.74 663.82,392.58 662.5,394.82 667.93,405.5 676.18,408.86 684.48,408.72 696.96,403.92 698.28,401.25 695.65,400.35" fill="none" stroke="#1e1e1e" stroke-width="1.56" stroke-linecap="round" stroke-linejoin="round"/>
<polyline points="648.02,387.03 646.7,384.46 646.26,387.1 648.02,387.03" fill="none" stroke="#1e1e1e" stroke-width="1.56" stroke-linecap="round" stroke-linejoin="round"/>
<polyline points="703.48,379.54 701.35,379.39 699.84,376.33 698.09,376.79 697.95,380.1 705.38,384.32 706.13,382.21 703.48,379.54" fill="none" stroke="#1e1e1e" stroke-width="1.56" stroke-linecap="round" stroke-linejoin="round"/>
<polyline points="702.36,379.44 703.59,378.77 702.33,375.16 701.81,378.9 702.36,379.44" fill="none" stroke="#1e1e1e" stroke-width="1.56" stroke-linecap="round" stroke-linejoin="round"/>
<polyline points="433.84,142.34 435.07,143.24 439.4,141.16 433.84,142.34" fill="none" stroke="#1e1e1e" stroke-width="1.56" stroke-linecap="round" stroke-linejoin="round"/>
<polyline points="420.77,138.12 419.16,135.8 415.15,138.89 418.48,137.68 419.53,139.47 420.77,138.12" fill="none" stroke="#1e1e1e" stroke-width="1.56" stroke-linecap="round" stroke-linejoin="round"/>
<polyline points="426.18,133.33 428.79,132.24 428.63,131.09 425.24,131.64 426.18,133.33" fill="none" stroke="#1e1e1e" stroke-width="1.56" stroke-linecap="round" stroke-linejoin="round"/>
<polyline points="839.87,563.28 842.97,563.25 843.98,561.78 839.87,563.28" fill="none" stroke="#1e1e1e" stroke-width="1.56" stroke-linecap="round" stroke-linejoin="round"/>
<polyline points="763.41,513.34 765.6,516.04 769.65,513.65 768.52,512.76 763.41,513.34" fill="none" stroke="#1e1e1e" stroke-width="1.56" stroke-linecap="round" stroke-linejoin="round"/>
<polyline points="762.66,509.13 763.03,512.52 764.86,511.52 764.23,508.74 762.66,509.13" fill="none" stroke="#1e1e1e" stroke-width="1.56" stroke-linecap="round" stroke-linejoin="round"/>
<polyline points="781.62,495.82 775.9,496.4 777.35,497.4 781.62,495.82" fill="none" stroke="#1e1e1e" stroke-width="1.56" stroke-linecap="round" stroke-linejoin="round"/>
<polyline points="783.59,494.55 788.56,496.43 789.99,495.72 783.59,494.55" fill="none" stroke="#1e1e1e" stroke-width="1.56" stroke-linecap="round" stroke-linejoin="round"/>
<polyline points="775.92,485.89 769.97,486.22 770.78,489.22 767.34,490.52 770.42,490.48 773.58,489.07 772.05,487.76 775.92,485.89" fill="none" stroke="#1e1e1e" stroke-width="1.56" stroke-linecap="round" stroke-linejoin="round"/>
<polyline points="760.21,451.12 762.95,450.91 762.02,453.69 756.8,453.83 757.74,456.85 762.58,457.97 766.92,456.04 764.65,453.57 766.31,451.23 763.05,450.17 760.21,451.12" fill="none" stroke="#1e1e1e" stroke-width="1.56" stroke-linecap="round" stroke-linejoin="round"/>
<polyline points="740.08,438.19 733.99,437.57 733.84,435.99 725.46,436.27 737.23,440.83 743.97,441.11 743.55,438.99 741.17,439.67 740.08,438.19" fill="none" stroke="#1e1e1e" stroke-width="1.56" stroke-linecap="round" stroke-linejoin="round"/>
<polyline points="720.28,435.5 723.74,435.04 722.94,434.23 712.79,432.26 720.28,435.5" fill="none" stroke="#1e1e1e" stroke-width="1.56" stroke-linecap="round" stroke-linejoin="round"/>
<path d="M665,414.88L663.1,415.43L665,414.88Z" fill-rule="evenodd" fill="#4682b4" fill-opacity="0.471"/>
<polyline points="665,414.88 663.1,415.43 665,414.88" fill="none" stroke="#1e1e1e" stroke-width="1.56" stroke-linecap="round" stroke-linejoin="round"/>
<path d="M442.49,12.15L444.13,16.72L446.8,17.36L454.06,26.72L19.31,24.92L19.4,10.38L442.49,12.15Z" fill-rule="evenodd" fill="#4682b4" fill-opacity="0.471"/>
<polyline points="442.49,12.15 444.13,16.72 446.8,17.36 454.06,26.72 19.31,24.92 19.4,10.38 442.49,12.15" fill="none" stroke="#1e1e1e" stroke-width="1.56" stroke-linecap="round" stroke-linejoin="round"/>
<path d="M944.51,1948.92L944.56,1989.53L8,1987.37L8.23,1946.75L944.51,1948.92ZM13.4,1972.88L9.46,1976.33L10.34,1977.04L8.24,1980.53L15.27,1987.35L17.7,1982.73L25.07,1980.84L31.2,1975.89L29.44,1969.99L25.06,1969.93L24.28,1967.35L22.72,1969.76L19.52,1969.89L21.26,1971.07L13.4,1972.88Z" fill-rule="evenodd" fill="#4682b4" fill-opacity="0.471"/>
<polyline points="944.51,1948.92 944.56,1989.53 8,1987.37 8.23,1946.75 944.51,1948.92" fill="none" stroke="#1e1e1e" stroke-width="1.56" stroke-linecap="round" stroke-linejoin="round"/>
<polyline points="13.4,1972.88 9.46,1976.33 10.34,1977.04 8.24,1980.53 15.27,1987.35 17.7,1982.73 25.07,1980.84 31.2,1975.89 29.44,1969.99 25.06,1969.93 24.28,1967.35 22.72,1969.76 19.52,1969.89 21.26,1971.07 13.4,1972.88" fill="none" stroke="#1e1e1e" stroke-width="1.56" stroke-linecap="round" stroke-linejoin="round"/>
<path d="M944.25,1989.53L944.2,1948.92L1571.77,1946.75L1572,1987.37L944.25,1989.53Z" fill-rule="evenodd" fill="#4682b4" fill-opacity="0.471"/>
<polyline points="944.25,1989.53 944.2,1948.92 1571.77,1946.75 1572,1987.37 944.25,1989.53" fill="none" stroke="#1e1e1e" stroke-width="1.56" stroke-linecap="round" stroke-linejoin="round"/>
<path d="M1285.94,983.58L1310.76,994.25L1313.62,994.87L1318.17,990.7L1317.48,983.46L1372.1,983.23L1366.15,987.53L1363.46,992.81L1363.42,997.55L1375.87,1009.69L1398.15,1021.88L1422.54,1040.71L1435.73,1060.99L1439.63,1072.26L1446.83,1084.53L1447.56,1094.75L1445.67,1097.42L1443.35,1097.13L1442.36,1103.11L1445.58,1108.8L1451,1111.95L1458.44,1112.51L1459.56,1109.6L1458.69,1105.7L1462.29,1103.19L1464.19,1098.73L1462.49,1091.98L1456.81,1082.22L1457.47,1078.51L1455.64,1071.27L1456.84,1053.16L1455.24,1048.22L1456.07,1038.23L1456.74,1039.31L1462.08,1028.08L1469.48,1022.09L1479.3,1019.98L1486.44,1016.44L1504.97,1011.96L1512.78,1011.42L1515.08,1009.52L1532.49,1010.68L1566.44,1022.08L1571.77,1947.06L944.2,1949.23L943.11,984.4L1285.94,983.58Z" fill-rule="evenodd" fill="#4682b4" fill-opacity="0.471"/>
<polyline points="1285.94,983.58 1310.76,994.25 1313.62,994.87 1318.17,990.7 1317.48,983.46 1372.1,983.23 1366.15,987.53 1363.46,992.81 1363.42,997.55 1375.87,1009.69 1398.15,1021.88 1422.54,1040.71 1435.73,1060.99 1439.63,1072.26 1446.83,1084.53 1447.56,1094.75 1445.67,1097.42 1443.35,1097.13 1442.36,1103.11 1445.58,1108.8 1451,1111.95 1458.44,1112.51 1459.56,1109.6 1458.69,1105.7 1462.29,1103.19 1464.19,1098.73 1462.49,1091.98 1456.81,1082.22 1457.47,1078.51 1455.64,1071.27 1456.84,1053.16 1455.24,1048.22 1456.07,1038.23 1456.74,1039.31 1462.08,1028.08 1469.48,1022.09 1479.3,1019.98 1486.44,1016.44 1504.97,1011.96 1512.78,1011.42 1515.08,1009.52 1532.49,1010.68 1566.44,1022.08 1571.77,1947.06 944.2,1949.23 943.11,984.4 1285.94,983.58" fill="none" stroke="#1e1e1e" stroke-width="1.56" stroke-linecap="round" stroke-linejoin="round"/>
<path d="M1563.9,583.09L1558.98,580.08L1559.05,578.9L1546.45,572.13L1540.66,565.21L1539.93,558.32L1536.02,557.24L1533.6,558.28L1530.62,556.73L1524.6,559.57L1518.12,555.4L1513.8,557.55L1504.48,555.38L1497.22,550.16L1492.75,551.97L1487.32,549.6L1482.29,544.35L1474.6,531.09L1473.86,526.61L1476.05,520.82L1473.54,519.03L1471.28,523.08L1468.44,524.42L1461.87,521.72L1457.03,517.37L1402.92,446.63L1400.17,440.32L1400.62,436.75L1403.77,437.01L1401.14,434.4L1402.01,432.66L1393.4,428.81L1389.43,429.91L1388.56,427.83L1387.63,429.39L1383.33,428.51L1384.07,433.18L1383.46,431.15L1383.26,432.54L1378.9,432.59L1375.27,429.61L1378.27,429.71L1378.72,428.23L1376.28,427.69L1374.27,429.19L1367.02,421.81L1347.13,394.26L1277.76,310.97L1260.23,284.94L1231.4,230.49L1217.06,189.99L1210.4,160.52L1210.99,157.35L1198.86,131.56L1191.99,120.33L1182.74,112.35L1165.37,106.56L1158.6,102.34L1143.58,82.43L1132.77,61.28L1124.3,38.51L1121.35,26.42L1560.68,24.61L1563.9,583.09Z" fill-rule="evenodd" fill="#4682b4" fill-opacity="0.471"/>
<polyline points="1563.9,583.09 1558.98,580.08 1559.05,578.9 1546.45,572.13 1540.66,565.21 1539.93,558.32 1536.02,557.24 1533.6,558.28 1530.62,556.73 1524.6,559.57 1518.12,555.4 1513.8,557.55 1504.48,555.38 1497.22,550.16 1492.75,551.97 1487.32,549.6 1482.29,544.35 1474.6,531.09 1473.86,526.61 1476.05,520.82 1473.54,519.03 1471.28,523.08 1468.44,524.42 1461.87,521.72 1457.03,517.37 1402.92,446.63 1400.17,440.32 1400.62,436.75 1403.77,437.01 1401.14,434.4 1402.01,432.66 1393.4,428.81 1389.43,429.91 1388.56,427.83 1387.63,429.39 1383.33,428.51 1384.07,433.18 1383.46,431.15 1383.26,432.54 1378.9,432.59 1375.27,429.61 1378.27,429.71 1378.72,428.23 1376.28,427.69 1374.27,429.19 1367.02,421.81 1347.13,394.26 1277.76,310.97 1260.23,284.94 1231.4,230.49 1217.06,189.99 1210.4,160.52 1210.99,157.35 1198.86,131.56 1191.99,120.33 1182.74,112.35 1165.37,106.56 1158.6,102.34 1143.58,82.43 1132.77,61.28 1124.3,38.51 1121.35,26.42 1560.68,24.61 1563.9,583.09" fill="none" stroke="#1e1e1e" stroke-width="1.56" stroke-linecap="round" stroke-linejoin="round"/>
<path d="M1317.51,983.76L1317.2,980.57L1319.85,975.67L1315.83,969.94L1320.13,963.15L1318.12,958.33L1315.43,956.76L1313.2,950.93L1315.83,937.3L1312.44,939.41L1309.14,936.98L1308.55,937.77L1301.85,927.9L1298.27,928.11L1292.42,925.35L1285.06,925.69L1283.96,922.46L1280.86,922.63L1276.67,919.84L1270.43,912.59L1266.91,910.89L1266.77,908.25L1263.55,905.66L1264.83,901.66L1264.04,896.52L1256.83,890.47L1256.28,887.83L1253.99,887.46L1253.33,889.67L1252.23,888.77L1253.49,886.98L1251.48,882.24L1249.95,883.55L1250.71,885.05L1248.09,885.04L1246.89,881.82L1249.13,875.45L1252.57,875.8L1254.06,873.53L1256.9,875.09L1260.76,874.08L1264.63,878.12L1269.95,875.99L1274.45,869.97L1276.76,871.17L1277.86,869.71L1279.1,872.07L1282.92,868.75L1281.81,866.76L1283.53,866.48L1284.77,867.25L1285.11,870.48L1286.93,869.4L1291.59,871.5L1294.04,869.76L1296.04,872.6L1299.32,873.88L1298.09,874L1298.92,875.35L1301.55,874.91L1298.02,877.28L1302.16,877.23L1300.08,878.3L1298.94,881.95L1301.17,886.06L1300.41,889.28L1303.47,891.56L1307.95,891.76L1312.04,898.54L1318.14,896.24L1319.76,897.61L1325.71,897.2L1328.67,904.19L1331.79,907.54L1333.26,905.4L1332.74,903.28L1336.01,902.68L1340.19,907.02L1342.55,905.99L1343.12,907.57L1345.3,906.97L1350.59,909.33L1353.22,904.94L1352.44,903.39L1349.49,902.85L1352.71,902.66L1352.94,901.54L1364.45,911.89L1366.51,916.64L1370.5,916.51L1371.45,919.13L1367.15,920.78L1365.21,920L1364.95,922.72L1357.96,924.35L1360.23,922.75L1355.72,920.84L1358.24,921.35L1357.71,919.57L1359.85,918.4L1357.92,915.67L1360.8,913.53L1356.92,914.28L1355.05,911.59L1352.57,914.31L1351.92,912.8L1354.4,908.15L1351.82,912.91L1353.08,919.23L1355.52,921.02L1358.1,926.84L1366.71,934.19L1366.66,936.39L1363.93,938.27L1362.91,935.6L1361.18,935.24L1365.41,944.31L1376.07,957.3L1381.43,967.95L1377.87,972.86L1375.2,981L1371.68,983.54L1317.51,983.76Z" fill-rule="evenodd" fill="#4682b4" fill-opacity="0.471"/>
<polyline points="1317.51,983.76 1317.2,980.57 1319.85,975.67 1315.83,969.94 1320.13,963.15 1318.12,958.33 1315.43,956.76 1313.2,950.93 1315.83,937.3 1312.44,939.41 1309.14,936.98 1308.55,937.77 1301.85,927.9 1298.27,928.11 1292.42,925.35 1285.06,925.69 1283.96,922.46 1280.86,922.63 1276.67,919.84 1270.43,912.59 1266.91,910.89 1266.77,908.25 1263.55,905.66 1264.83,901.66 1264.04,896.52 1256.83,890.47 1256.28,887.83 1253.99,887.46 1253.33,889.67 1252.23,888.77 1253.49,886.98 1251.48,882.24 1249.95,883.55 1250.71,885.05 1248.09,885.04 1246.89,881.82 1249.13,875.45 1252.57,875.8 1254.06,873.53 1256.9,875.09 1260.76,874.08 1264.63,878.12 1269.95,875.99 1274.45,869.97 1276.76,871.17 1277.86,869.71 1279.1,872.07 1282.92,868.75 1281.81,866.76 1283.53,866.48 1284.77,867.25 1285.11,870.48 1286.93,869.4 1291.59,871.5 1294.04,869.76 1296.04,872.6 1299.32,873.88 1298.09,874 1298.92,875.35 1301.55,874.91 1298.02,877.28 1302.16,877.23 1300.08,878.3 1298.94,881.95 1301.17,886.06 1300.41,889.28 1303.47,891.56 1307.95,891.76 1312.04,898.54 1318.14,896.24 1319.76,897.61 1325.71,897.2 1328.67,904.19 1331.79,907.54 1333.26,905.4 1332.74,903.28 1336.01,902.68 1340.19,907.02 1342.55,905.99 1343.12,907.57 1345.3,906.97 1350.59,909.33 1353.22,904.94 1352.44,903.39 1349.49,902.85 1352.71,902.66 1352.94,901.54 1364.45,911.89 1366.51,916.64 1370.5,916.51 1371.45,919.13 1367.15,920.78 1365.21,920 1364.95,922.72 1357.96,924.35 1360.23,922.75 1355.72,920.84 1358.24,921.35 1357.71,919.57 1359.85,918.4 1357.92,915.67 1360.8,913.53 1356.92,914.28 1355.05,911.59 1352.57,914.31 1351.92,912.8 1354.4,908.15 1351.82,912.91 1353.08,919.23 1355.52,921.02 1358.1,926.84 1366.71,934.19 1366.66,936.39 1363.93,938.27 1362.91,935.6 1361.18,935.24 1365.41,944.31 1376.07,957.3 1381.43,967.95 1377.87,972.86 1375.2,981 1371.68,983.54 1317.51,983.76" fill="none" stroke="#1e1e1e" stroke-width="1.56" stroke-linecap="round" stroke-linejoin="round"/>
<path d="M943.11,984.71L942.68,606.43L954,609.85L968.85,611.99L987.97,617.07L984.18,614.17L981.29,614.57L972.28,611.83L973.73,610.97L977.65,613.12L981.46,610.78L983.7,611.05L980.84,612.91L985.94,613.64L991,618.88L988.59,612.72L987.45,612.57L988.01,611.07L985.45,609.52L986.76,609.06L991.22,616.08L992.77,614.6L991.47,616.57L993.63,618.4L998.06,619.69L994.23,618.53L997.71,616.75L996.51,617.94L1009.21,622.98L1007.58,623.46L1008.13,624.91L1004.73,622.28L1002.8,621.79L1002.64,622.78L1001,620.73L996.51,621.08L994.07,619.67L994.5,620.77L1007.05,625.69L1014.06,631.04L1013.81,628.61L1014.42,630.21L1013.98,631.99L1011.86,633.13L1013.92,634.18L1013.15,635.52L1014.48,635.93L1014.95,639.54L1013.75,641.21L1010.57,641.62L1010.65,643.55L1015.44,642.52L1018.43,643.75L1020.71,646.33L1019.65,648.22L1020.67,649.71L1021.58,647.82L1024.61,649.42L1024.49,646.93L1026.26,646.12L1028.65,652.1L1028.77,650.64L1031.38,650.15L1039.06,651.13L1059.75,660.57L1078.11,666.61L1095.28,675.62L1120.52,694.7L1122.38,697.85L1123.47,697.48L1125.18,700.3L1123.88,703.33L1126.17,702.61L1127.48,704.72L1135.37,706.78L1137.59,709.21L1140.37,708.97L1142.66,711.69L1146.36,713.01L1153.01,722.22L1153.54,726.73L1151.39,728.28L1152.95,729.43L1153.4,727.29L1155.48,726.46L1162.62,728.34L1165.97,733.61L1175.22,740.92L1177.97,745.17L1177.02,746.26L1181.02,747.91L1180.26,750.44L1190.27,757.08L1193.5,761.6L1189.61,762.07L1194.1,768.42L1196.13,774.57L1196.88,791.98L1198.51,792.53L1199.8,803.56L1198.9,806.99L1200.62,808.03L1204.5,805.27L1207.47,810.11L1209.12,810.55L1207.65,811.92L1208.78,814.68L1216.26,814.94L1215.49,816.81L1212.77,816.02L1211.11,817.15L1218.21,817.98L1212.79,819.18L1207.52,818.36L1206.18,816.59L1204.45,817.99L1205.84,828.12L1210.37,836.03L1201.49,839.38L1200.5,841.27L1198.9,840.29L1195.55,842.12L1190.14,850.15L1191.77,850.54L1195.23,857.07L1191.54,859.63L1194.04,870.17L1190.92,872.02L1190.53,880.95L1188.91,884.01L1185.63,885.99L1183.65,886.13L1182.22,884.02L1176.87,884.41L1170.06,888.12L1167.99,891.76L1168.71,900.57L1162.62,903.23L1163.72,906.09L1161.43,909.51L1161.94,917.95L1166.01,923.43L1167.91,922.31L1174.41,924.88L1177.51,929.89L1190.39,943.07L1191.72,942.98L1191.31,944.64L1206.75,956.36L1210.28,961.51L1210.36,964.53L1217.79,968.62L1218.8,971.98L1226.66,972.63L1237.91,969.54L1249.13,970.38L1264.88,974.52L1286.65,983.88L943.11,984.71ZM1116.02,880.4L1115.69,877.92L1106.85,881.17L1114.15,883.39L1116.02,880.4Z" fill-rule="evenodd" fill="#4682b4" fill-opacity="0.471"/>
<polyline points="943.11,984.71 942.68,606.43 954,609.85 968.85,611.99 987.97,617.07 984.18,614.17 981.29,614.57 972.28,611.83 973.73,610.97 977.65,613.12 981.46,610.78 983.7,611.05 980.84,612.91 985.94,613.64 991,618.88 988.59,612.72 987.45,612.57 988.01,611.07 985.45,609.52 986.76,609.06 991.22,616.08 992.77,614.6 991.47,616.57 993.63,618.4 998.06,619.69 994.23,618.53 997.71,616.75 996.51,617.94 1009.21,622.98 1007.58,623.46 1008.13,624.91 1004.73,622.28 1002.8,621.79 1002.64,622.78 1001,620.73 996.51,621.08 994.07,619.67 994.5,620.77 1007.05,625.69 1014.06,631.04 1013.81,628.61 1014.42,630.21 1013.98,631.99 1011.86,633.13 1013.92,634.18 1013.15,635.52 1014.48,635.93 1014.95,639.54 1013.75,641.21 1010.57,641.62 1010.65,643.55 1015.44,642.52 1018.43,643.75 1020.71,646.33 1019.65,648.22 1020.67,649.71 1021.58,647.82 1024.61,649.42 1024.49,646.93 1026.26,646.12 1028.65,652.1 1028.77,650.64 1031.38,650.15 1039.06,651.13 1059.75,660.57 1078.11,666.61 1095.28,675.62 1120.52,694.7 1122.38,697.85 1123.47,697.48 1125.18,700.3 1123.88,703.33 1126.17,702.61 1127.48,704.72 1135.37,706.78 1137.59,709.21 1140.37,708.97 1142.66,711.69 1146.36,713.01 1153.01,722.22 1153.54,726.73 1151.39,728.28 1152.95,729.43 1153.4,727.29 1155.48,726.46 1162.62,728.34 1165.97,733.61 1175.22,740.92 1177.97,745.17 1177.02,746.26 1181.02,747.91 1180.26,750.44 1190.27,757.08 1193.5,761.6 1189.61,762.07 1194.1,768.42 1196.13,774.57 1196.88,791.98 1198.51,792.53 1199.8,803.56 1198.9,806.99 1200.62,808.03 1204.5,805.27 1207.47,810.11 1209.12,810.55 1207.65,811.92 1208.78,814.68 1216.26,814.94 1215.49,816.81 1212.77,816.02 1211.11,817.15 1218.21,817.98 1212.79,819.18 1207.52,818.36 1206.18,816.59 1204.45,817.99 1205.84,828.12 1210.37,836.03 1201.49,839.38 1200.5,841.27 1198.9,840.29 1195.55,842.12 1190.14,850.15 1191.77,850.54 1195.23,857.07 1191.54,859.63 1194.04,870.17 1190.92,872.02 1190.53,880.95 1188.91,884.01 1185.63,885.99 1183.65,886.13 1182.22,884.02 1176.87,884.41 1170.06,888.12 1167.99,891.76 1168.71,900.57 1162.62,903.23 1163.72,906.09 1161.43,909.51 1161.94,917.95 1166.01,923.43 1167.91,922.31 1174.41,924.88 1177.51,929.89 1190.39,943.07 1191.72,942.98 1191.31,944.64 1206.75,956.36 1210.28,961.51 1210.36,964.53 1217.79,968.62 1218.8,971.98 1226.66,972.63 1237.91,969.54 1249.13,970.38 1264.88,974.52 1286.65,983.88 943.11,984.71" fill="none" stroke="#1e1e1e" stroke-width="1.56" stroke-linecap="round" stroke-linejoin="round"/>
<polyline points="1116.02,880.4 1115.69,877.92 1106.85,881.17 1114.15,883.39 1116.02,880.4" fill="none" stroke="#1e1e1e" stroke-width="1.56" stroke-linecap="round" stroke-linejoin="round"/>
<path d="M1560.69,24.92L1121.42,26.73L1117.87,12.2L1560.6,10.38L1560.69,24.92Z" fill-rule="evenodd" fill="#4682b4" fill-opacity="0.471"/>
<polyline points="1560.69,24.92 1121.42,26.73 1117.87,12.2 1560.6,10.38 1560.69,24.92" fill="none" stroke="#1e1e1e" stroke-width="1.56" stroke-linecap="round" stroke-linejoin="round"/>
<path d="M13.79,982.25L943.41,984.4L944.51,1949.23L8.23,1947.06L13.79,982.25Z" fill-rule="evenodd" fill="#4682b4" fill-opacity="0.471"/>
<polyline points="13.79,982.25 943.41,984.4 944.51,1949.23 8.23,1947.06 13.79,982.25" fill="none" stroke="#1e1e1e" stroke-width="1.56" stroke-linecap="round" stroke-linejoin="round"/>
</svg>
