<?xml version="1.0" encoding="UTF-8" standalone="no"?>
<svg xmlns="http://www.w3.org/2000/svg" width="2000" height="1910" viewBox="0 0 2000 1910">
<rect width="2000" height="1910" fill="#ffffff"/>
<path d="M641.87,379.36L665.63,366.15L683.86,365.93L689.07,351.12L704.44,352.65L707.67,344.58L721.83,342.48L736.2,348.94L761.38,342.88L753.3,335.14L752.21,317.1L761.74,305.02L761.29,285.18L770.67,287.52L784.17,284.93L790.8,277.78L831.38,298.36L838.22,306.52L838.78,317.79L822.42,324.89L812.9,339.7L796.81,349.49L800.81,360.34L802.54,380.19L816.02,387.05L808.37,399.62L797.05,399.08L786.07,394.48L781.26,405.71L782.14,412.93L805.65,427.54L812.25,428.94L820.32,445.67L826.93,448.42L835.49,440.37L841.59,422.83L841.33,412.46L852.73,400.81L864.48,381.94L869.5,383.77L893.16,365.4L904.15,368.15L914.81,375.4L915.5,356.47L924.01,346.13L915.92,324.92L909.02,323.54L905.05,294.68L901.62,288.81L908.29,265.84L921.13,262.28L918.34,255.51L932.13,243.38L939.59,265.49L960.25,262.82L982.47,271.41L989.98,281.78L1007.21,293.05L1022.88,293.95L1040.45,310.15L1068.98,307.39L1071.81,310.98L1070.92,328.57L1073.47,343.43L1054.02,352.04L1047.41,344.4L1042.09,354.32L1044,368.29L1037.4,370.55L1027.65,362.45L1008.17,376.89L1016.67,383.2L1007.24,397.17L1016.36,398.97L1020.46,405.73L1030.53,403.47L1044.09,423.73L1043.48,432.74L1033.1,445.38L1024.27,444.49L1006.94,462.52L999.37,464.78L992.43,456.67L981.71,453.96L979.82,447.65L966.59,441.32L958.08,443.11L949.58,437.24L938.2,452.54L914.24,451.12L909.25,437.58L901.05,438.45L893.76,448.34L882.39,453.24L881.71,464.06L872.84,472.13L884.15,483L883.16,492.01L872.07,499.17L868.53,511.77L856.56,504.94L847.35,513L827.46,510.17L826.94,493.49L821.3,486.24L801.79,477.99L793.51,487.84L784.33,490.02L774.68,474.16L773.29,452.52L765.96,461.46L756.26,453.26L744.58,454.95L731.75,445.36L723.2,448.42L716.16,458.26L698.65,444.99L698.14,434.62L683.74,426.78L680.4,416.82L669.73,413.99L656.65,402.55L653.61,394.84L639.61,383.83L641.87,379.36Z" fill-rule="evenodd" fill="#4682b4" fill-opacity="0.471"/>
<polyline points="641.87,379.36 665.63,366.15 683.86,365.93 689.07,351.12 704.44,352.65 707.67,344.58 721.83,342.48 736.2,348.94 761.38,342.88 753.3,335.14 752.21,317.1 761.74,305.02 761.29,285.18 770.67,287.52 784.17,284.93 790.8,277.78 831.38,298.36 838.22,306.52 838.78,317.79 822.42,324.89 812.9,339.7 796.81,349.49 800.81,360.34 802.54,380.19 816.02,387.05 808.37,399.62 797.05,399.08 786.07,394.48 781.26,405.71 782.14,412.93 805.65,427.54 812.25,428.94 820.32,445.67 826.93,448.42 835.49,440.37 841.59,422.83 841.33,412.46 852.73,400.81 864.48,381.94 869.5,383.77 893.16,365.4 904.15,368.15 914.81,375.4 915.5,356.47 924.01,346.13 915.92,324.92 909.02,323.54 905.05,294.68 901.62,288.81 908.29,265.84 921.13,262.28 918.34,255.51 932.13,243.38 939.59,265.49 960.25,262.82 982.47,271.41 989.98,281.78 1007.21,293.05 1022.88,293.95 1040.45,310.15 1068.98,307.39 1071.81,310.98 1070.92,328.57 1073.47,343.43 1054.02,352.04 1047.41,344.4 1042.09,354.32 1044,368.29 1037.4,370.55 1027.65,362.45 1008.17,376.89 1016.67,383.2 1007.24,397.17 1016.36,398.97 1020.46,405.73 1030.53,403.47 1044.09,423.73 1043.48,432.74 1033.1,445.38 1024.27,444.49 1006.94,462.52 999.37,464.78 992.43,456.67 981.71,453.96 979.82,447.65 966.59,441.32 958.08,443.11 949.58,437.24 938.2,452.54 914.24,451.12 909.25,437.58 901.05,438.45 893.76,448.34 882.39,453.24 881.71,464.06 872.84,472.13 884.15,483 883.16,492.01 872.07,499.17 868.53,511.77 856.56,504.94 847.35,513 827.46,510.17 826.94,493.49 821.3,486.24 801.79,477.99 793.51,487.84 784.33,490.02 774.68,474.16 773.29,452.52 765.96,461.46 756.26,453.26 744.58,454.95 731.75,445.36 723.2,448.42 716.16,458.26 698.65,444.99 698.14,434.62 683.74,426.78 680.4,416.82 669.73,413.99 656.65,402.55 653.61,394.84 639.61,383.83 641.87,379.36" fill="none" stroke="#1e1e1e" stroke-width="1.55" stroke-linecap="round" stroke-linejoin="round"/>
<path d="M740.02,189.85L743.6,175.91L752.37,171.49L786.95,176.76L792.04,164.63L788.67,157.39L811.14,153.51L812.41,149.91L813.98,149.02L816.03,167.07L828.78,171.67L835.57,183.43L847.43,183.51L851.44,190.29L877.68,185.92L899.8,194.14L904.83,184.24L915.77,179.32L933.16,211.38L928.77,215.42L927.15,235.7L932.13,243.38L918.34,255.51L921.13,262.28L908.29,265.84L901.62,288.81L888.78,289.21L868.97,303.09L857.05,304.38L838.78,317.79L838.22,306.52L831.38,298.36L790.8,277.78L784.17,284.93L770.67,287.52L761.29,285.18L765.7,249.16L745.49,235.89L736.75,234.9L730.96,220.87L730.88,198.32L740.02,189.85Z" fill-rule="evenodd" fill="#4682b4" fill-opacity="0.471"/>
<polyline points="740.02,189.85 743.6,175.91 752.37,171.49 786.95,176.76 792.04,164.63 788.67,157.39 811.14,153.51 812.41,149.91 813.98,149.02 816.03,167.07 828.78,171.67 835.57,183.43 847.43,183.51 851.44,190.29 877.68,185.92 899.8,194.14 904.83,184.24 915.77,179.32 933.16,211.38 928.77,215.42 927.15,235.7 932.13,243.38 918.34,255.51 921.13,262.28 908.29,265.84 901.62,288.81 888.78,289.21 868.97,303.09 857.05,304.38 838.78,317.79 838.22,306.52 831.38,298.36 790.8,277.78 784.17,284.93 770.67,287.52 761.29,285.18 765.7,249.16 745.49,235.89 736.75,234.9 730.96,220.87 730.88,198.32 740.02,189.85" fill="none" stroke="#1e1e1e" stroke-width="1.55" stroke-linecap="round" stroke-linejoin="round"/>
<path d="M827.46,510.17L847.35,513L856.56,504.94L868.53,511.77L872.07,499.17L883.16,492.01L884.15,483L872.84,472.13L881.71,464.06L882.39,453.24L893.76,448.34L901.05,438.45L909.25,437.58L914.24,451.12L938.2,452.54L949.58,437.24L958.08,443.11L966.59,441.32L979.82,447.65L981.71,453.96L992.43,456.67L999.37,464.78L1006.94,462.52L1024.27,444.49L1033.1,445.38L1043.48,432.74L1044.09,423.73L1063.64,430.45L1076.24,432.22L1081.32,444.37L1090.16,447.95L1104.03,447.89L1107.27,469.96L1115.82,476.69L1130.75,495.09L1140.32,513.07L1148.21,509.87L1154.27,519.3L1168.49,519.66L1174.28,533.6L1190.09,532.58L1183.84,543.45L1194.03,551.93L1206.41,556.8L1212.85,569.36L1225.5,567.45L1226.54,577.36L1211.88,605.87L1195.46,616.37L1194.29,629.45L1204.81,634.32L1213.52,651.38L1192.15,639.83L1182.56,631.78L1162.81,621.55L1148.53,621.64L1153.55,611.69L1148.09,600.91L1135.15,611.34L1119.09,638.01L1108.94,642.11L1083.18,632.29L1073.35,636.83L1050.48,629.22L1042.53,622.03L1024.76,626.56L1019.36,623.41L1006.98,631.97L1001.91,643.24L1003.18,653.16L989.83,668.48L976.15,675.23L979.01,681.54L973.59,689.64L972.62,702.26L964.01,711.26L963.68,724.33L942.64,727.45L937.56,718.87L925.14,718.84L912.42,711.59L906.12,693.99L900.41,688.11L885.47,683.55L877.56,675.4L878.24,665.94L858.99,638.8L855.88,627.07L844.17,621.14L833.65,629.19L816.87,621.87L805.73,627.19L799.4,624.44L788.37,614.89L781.17,602.66L785.72,589.18L784.93,569.79L778.02,563.43L781.28,552.19L797.45,548.71L795.3,540.13L804.02,517.67L798.35,514.47L798.13,502.3L815.54,497.92L827.46,510.17Z" fill-rule="evenodd" fill="#4682b4" fill-opacity="0.471"/>
<polyline points="827.46,510.17 847.35,513 856.56,504.94 868.53,511.77 872.07,499.17 883.16,492.01 884.15,483 872.84,472.13 881.71,464.06 882.39,453.24 893.76,448.34 901.05,438.45 909.25,437.58 914.24,451.12 938.2,452.54 949.58,437.24 958.08,443.11 966.59,441.32 979.82,447.65 981.71,453.96 992.43,456.67 999.37,464.78 1006.94,462.52 1024.27,444.49 1033.1,445.38 1043.48,432.74 1044.09,423.73 1063.64,430.45 1076.24,432.22 1081.32,444.37 1090.16,447.95 1104.03,447.89 1107.27,469.96 1115.82,476.69 1130.75,495.09 1140.32,513.07 1148.21,509.87 1154.27,519.3 1168.49,519.66 1174.28,533.6 1190.09,532.58 1183.84,543.45 1194.03,551.93 1206.41,556.8 1212.85,569.36 1225.5,567.45 1226.54,577.36 1211.88,605.87 1195.46,616.37 1194.29,629.45 1204.81,634.32 1213.52,651.38 1192.15,639.83 1182.56,631.78 1162.81,621.55 1148.53,621.64 1153.55,611.69 1148.09,600.91 1135.15,611.34 1119.09,638.01 1108.94,642.11 1083.18,632.29 1073.35,636.83 1050.48,629.22 1042.53,622.03 1024.76,626.56 1019.36,623.41 1006.98,631.97 1001.91,643.24 1003.18,653.16 989.83,668.48 976.15,675.23 979.01,681.54 973.59,689.64 972.62,702.26 964.01,711.26 963.68,724.33 942.64,727.45 937.56,718.87 925.14,718.84 912.42,711.59 906.12,693.99 900.41,688.11 885.47,683.55 877.56,675.4 878.24,665.94 858.99,638.8 855.88,627.07 844.17,621.14 833.65,629.19 816.87,621.87 805.73,627.19 799.4,624.44 788.37,614.89 781.17,602.66 785.72,589.18 784.93,569.79 778.02,563.43 781.28,552.19 797.45,548.71 795.3,540.13 804.02,517.67 798.35,514.47 798.13,502.3 815.54,497.92 827.46,510.17" fill="none" stroke="#1e1e1e" stroke-width="1.55" stroke-linecap="round" stroke-linejoin="round"/>
<path d="M607.19,529.85L612.74,518.66L623.26,512.96L639.61,519.05L649.55,508.37L657.83,503.98L641.54,493.84L631.3,480.62L630.35,458.98L624.16,451.22L633.48,438.29L659.98,436.4L660.79,422.88L652.13,411.5L649.43,401.55L635.39,414.87L622.64,404.32L619.62,395.71L637.45,380.65L641.87,379.36L639.61,383.83L653.61,394.84L656.65,402.55L669.73,413.99L680.4,416.82L683.74,426.78L698.14,434.62L698.65,444.99L716.16,458.26L723.2,448.42L731.75,445.36L744.58,454.95L756.26,453.26L765.96,461.46L773.29,452.52L774.68,474.16L784.33,490.02L793.51,487.84L801.79,477.99L821.3,486.24L826.94,493.49L827.46,510.17L815.54,497.92L798.13,502.3L798.35,514.47L804.02,517.67L795.3,540.13L797.45,548.71L781.28,552.19L778.02,563.43L784.93,569.79L785.72,589.18L781.17,602.66L788.37,614.89L799.4,624.44L782.78,638.28L776.32,649.94L784.09,671.64L777.24,690.96L768.28,696.74L778.25,722.06L781.31,737.86L770.46,739.12L766.18,753.5L757.49,761.53L744.22,748.79L735.61,748.7L722.44,757.13L708.73,756.08L704.96,751.08L694.69,755.92L674.29,754.32L666.12,744.75L663.7,734.8L646.45,713.85L631.89,707.33L629.43,700.99L608.6,688.52L605.21,681.25L594.21,672.52L583.36,675.05L577.52,681.72L568.29,682.02L550.36,670L538.35,665.73L525.88,651.99L529.51,627.26L526.48,619.09L529.25,606.52L522.45,596.48L528.68,585.33L541.2,576.54L546.1,586.54L555.58,588.51L568.13,596.38L573.39,584.75L589.93,581.41L591.09,567.91L601.75,554.56L607.32,542.47L607.19,529.85Z" fill-rule="evenodd" fill="#4682b4" fill-opacity="0.471"/>
<polyline points="607.19,529.85 612.74,518.66 623.26,512.96 639.61,519.05 649.55,508.37 657.83,503.98 641.54,493.84 631.3,480.62 630.35,458.98 624.16,451.22 633.48,438.29 659.98,436.4 660.79,422.88 652.13,411.5 649.43,401.55 635.39,414.87 622.64,404.32 619.62,395.71 637.45,380.65 641.87,379.36 639.61,383.83 653.61,394.84 656.65,402.55 669.73,413.99 680.4,416.82 683.74,426.78 698.14,434.62 698.65,444.99 716.16,458.26 723.2,448.42 731.75,445.36 744.58,454.95 756.26,453.26 765.96,461.46 773.29,452.52 774.68,474.16 784.33,490.02 793.51,487.84 801.79,477.99 821.3,486.24 826.94,493.49 827.46,510.17 815.54,497.92 798.13,502.3 798.35,514.47 804.02,517.67 795.3,540.13 797.45,548.71 781.28,552.19 778.02,563.43 784.93,569.79 785.72,589.18 781.17,602.66 788.37,614.89 799.4,624.44 782.78,638.28 776.32,649.94 784.09,671.64 777.24,690.96 768.28,696.74 778.25,722.06 781.31,737.86 770.46,739.12 766.18,753.5 757.49,761.53 744.22,748.79 735.61,748.7 722.44,757.13 708.73,756.08 704.96,751.08 694.69,755.92 674.29,754.32 666.12,744.75 663.7,734.8 646.45,713.85 631.89,707.33 629.43,700.99 608.6,688.52 605.21,681.25 594.21,672.52 583.36,675.05 577.52,681.72 568.29,682.02 550.36,670 538.35,665.73 525.88,651.99 529.51,627.26 526.48,619.09 529.25,606.52 522.45,596.48 528.68,585.33 541.2,576.54 546.1,586.54 555.58,588.51 568.13,596.38 573.39,584.75 589.93,581.41 591.09,567.91 601.75,554.56 607.32,542.47 607.19,529.85" fill="none" stroke="#1e1e1e" stroke-width="1.55" stroke-linecap="round" stroke-linejoin="round"/>
<path d="M813.98,149.02L826.79,143.7L835.82,143.76L845.22,136.16L854.56,136.21L864.91,123.19L878.01,117.85L871.57,98.88L872.2,97.08L881.52,99.38L900.2,92.25L919.14,101.78L935.61,104.99L947.43,104.56L962.96,122.17L966.06,130.29L980.07,128.5L993.46,131.67L998.44,128.06L1014.33,136.17L1026.46,127.6L1043.6,135.69L1070.36,129.32L1079.39,128.84L1088.14,137.38L1091.29,147.73L1089.15,160.37L1064.59,183.88L1041.19,184.83L1026.84,187.56L1024.35,201.53L1009.05,198.84L1006.56,209.21L993.13,215.97L987.2,207.4L970.63,217.76L972.5,225.87L962.17,236.68L962.45,260.57L960.25,262.82L939.59,265.49L932.13,243.38L927.15,235.7L928.77,215.42L933.16,211.38L915.77,179.32L904.83,184.24L899.8,194.14L877.68,185.92L851.44,190.29L847.43,183.51L835.57,183.43L828.78,171.67L816.03,167.07L813.98,149.02Z" fill-rule="evenodd" fill="#4682b4" fill-opacity="0.471"/>
<polyline points="813.98,149.02 826.79,143.7 835.82,143.76 845.22,136.16 854.56,136.21 864.91,123.19 878.01,117.85 871.57,98.88 872.2,97.08 881.52,99.38 900.2,92.25 919.14,101.78 935.61,104.99 947.43,104.56 962.96,122.17 966.06,130.29 980.07,128.5 993.46,131.67 998.44,128.06 1014.33,136.17 1026.46,127.6 1043.6,135.69 1070.36,129.32 1079.39,128.84 1088.14,137.38 1091.29,147.73 1089.15,160.37 1064.59,183.88 1041.19,184.83 1026.84,187.56 1024.35,201.53 1009.05,198.84 1006.56,209.21 993.13,215.97 987.2,207.4 970.63,217.76 972.5,225.87 962.17,236.68 962.45,260.57 960.25,262.82 939.59,265.49 932.13,243.38 927.15,235.7 928.77,215.42 933.16,211.38 915.77,179.32 904.83,184.24 899.8,194.14 877.68,185.92 851.44,190.29 847.43,183.51 835.57,183.43 828.78,171.67 816.03,167.07 813.98,149.02" fill="none" stroke="#1e1e1e" stroke-width="1.55" stroke-linecap="round" stroke-linejoin="round"/>
<path d="M960.25,262.82L962.45,260.57L962.17,236.68L972.5,225.87L970.63,217.76L987.2,207.4L993.13,215.97L1006.56,209.21L1009.05,198.84L1024.35,201.53L1026.84,187.56L1041.19,184.83L1064.59,183.88L1089.15,160.37L1091.29,147.73L1088.14,137.38L1112.73,134.57L1119.49,115.61L1127.94,124.13L1126.72,130L1130.24,148.47L1135.24,150.7L1157.19,173.11L1167.49,173.95L1186.28,185.09L1215.41,197.48L1222.35,205.99L1227.2,223.98L1234.08,225.27L1233.88,236.99L1247.54,259.4L1257.56,259.3L1251.42,271.54L1258.7,279.58L1246.83,282.85L1225.84,282.59L1208.82,308.88L1202.58,312.09L1204.26,326.5L1187.24,315.81L1182.42,299.62L1174.62,304.63L1162.07,303.81L1162.27,285.78L1147.19,278.21L1133.73,279.18L1139.27,262.02L1129.84,253.96L1125.41,243.61L1114.48,246.37L1101.68,254.09L1089.15,248.72L1078.85,256.87L1079.51,266.79L1072.99,285.74L1071.81,310.98L1068.98,307.39L1040.45,310.15L1022.88,293.95L1007.21,293.05L989.98,281.78L982.47,271.41L960.25,262.82Z" fill-rule="evenodd" fill="#4682b4" fill-opacity="0.471"/>
<polyline points="960.25,262.82 962.45,260.57 962.17,236.68 972.5,225.87 970.63,217.76 987.2,207.4 993.13,215.97 1006.56,209.21 1009.05,198.84 1024.35,201.53 1026.84,187.56 1041.19,184.83 1064.59,183.88 1089.15,160.37 1091.29,147.73 1088.14,137.38 1112.73,134.57 1119.49,115.61 1127.94,124.13 1126.72,130 1130.24,148.47 1135.24,150.7 1157.19,173.11 1167.49,173.95 1186.28,185.09 1215.41,197.48 1222.35,205.99 1227.2,223.98 1234.08,225.27 1233.88,236.99 1247.54,259.4 1257.56,259.3 1251.42,271.54 1258.7,279.58 1246.83,282.85 1225.84,282.59 1208.82,308.88 1202.58,312.09 1204.26,326.5 1187.24,315.81 1182.42,299.62 1174.62,304.63 1162.07,303.81 1162.27,285.78 1147.19,278.21 1133.73,279.18 1139.27,262.02 1129.84,253.96 1125.41,243.61 1114.48,246.37 1101.68,254.09 1089.15,248.72 1078.85,256.87 1079.51,266.79 1072.99,285.74 1071.81,310.98 1068.98,307.39 1040.45,310.15 1022.88,293.95 1007.21,293.05 989.98,281.78 982.47,271.41 960.25,262.82" fill="none" stroke="#1e1e1e" stroke-width="1.55" stroke-linecap="round" stroke-linejoin="round"/>
<path d="M1071.81,310.98L1072.99,285.74L1079.51,266.79L1078.85,256.87L1089.15,248.72L1101.68,254.09L1114.48,246.37L1125.41,243.61L1129.84,253.96L1139.27,262.02L1133.73,279.18L1147.19,278.21L1162.27,285.78L1162.07,303.81L1174.62,304.63L1182.42,299.62L1187.24,315.81L1204.26,326.5L1218.11,331.34L1228.61,347.93L1246.61,358.13L1254.8,359.85L1253.95,369.33L1276.38,380.36L1281.2,389.78L1276.27,398.85L1295.17,400.44L1305.49,394.91L1308.12,404.34L1320.42,406.45L1318.15,426.76L1308.53,439.05L1308.35,450.32L1300.2,454.47L1304.72,462.98L1308.88,468.34L1305.6,484.15L1297.82,493.71L1284.22,492.06L1280.68,486.69L1241.28,493.85L1222.86,481.84L1217.89,491.35L1201.14,489.23L1195.51,497.39L1184.72,489.81L1169.29,496.67L1158.19,489.08L1151.5,479.21L1144.97,496.37L1148.21,509.87L1140.32,513.07L1130.75,495.09L1115.82,476.69L1107.27,469.96L1104.03,447.89L1090.16,447.95L1081.32,444.37L1076.24,432.22L1063.64,430.45L1044.09,423.73L1030.53,403.47L1020.46,405.73L1016.36,398.97L1007.24,397.17L1016.67,383.2L1008.17,376.89L1027.65,362.45L1037.4,370.55L1044,368.29L1042.09,354.32L1047.41,344.4L1054.02,352.04L1073.47,343.43L1070.92,328.57L1071.81,310.98Z" fill-rule="evenodd" fill="#4682b4" fill-opacity="0.471"/>
<polyline points="1071.81,310.98 1072.99,285.74 1079.51,266.79 1078.85,256.87 1089.15,248.72 1101.68,254.09 1114.48,246.37 1125.41,243.61 1129.84,253.96 1139.27,262.02 1133.73,279.18 1147.19,278.21 1162.27,285.78 1162.07,303.81 1174.62,304.63 1182.42,299.62 1187.24,315.81 1204.26,326.5 1218.11,331.34 1228.61,347.93 1246.61,358.13 1254.8,359.85 1253.95,369.33 1276.38,380.36 1281.2,389.78 1276.27,398.85 1295.17,400.44 1305.49,394.91 1308.12,404.34 1320.42,406.45 1318.15,426.76 1308.53,439.05 1308.35,450.32 1300.2,454.47 1304.72,462.98 1308.88,468.34 1305.6,484.15 1297.82,493.71 1284.22,492.06 1280.68,486.69 1241.28,493.85 1222.86,481.84 1217.89,491.35 1201.14,489.23 1195.51,497.39 1184.72,489.81 1169.29,496.67 1158.19,489.08 1151.5,479.21 1144.97,496.37 1148.21,509.87 1140.32,513.07 1130.75,495.09 1115.82,476.69 1107.27,469.96 1104.03,447.89 1090.16,447.95 1081.32,444.37 1076.24,432.22 1063.64,430.45 1044.09,423.73 1030.53,403.47 1020.46,405.73 1016.36,398.97 1007.24,397.17 1016.67,383.2 1008.17,376.89 1027.65,362.45 1037.4,370.55 1044,368.29 1042.09,354.32 1047.41,344.4 1054.02,352.04 1073.47,343.43 1070.92,328.57 1071.81,310.98" fill="none" stroke="#1e1e1e" stroke-width="1.55" stroke-linecap="round" stroke-linejoin="round"/>
<path d="M364.39,941.52L352.07,932.66L360.85,928.37L370.68,933.56L380.6,949.12L373.07,954.8L364.39,941.52Z" fill-rule="evenodd" fill="#4682b4" fill-opacity="0.471"/>
<polyline points="364.39,941.52 352.07,932.66 360.85,928.37 370.68,933.56 380.6,949.12 373.07,954.8 364.39,941.52" fill="none" stroke="#1e1e1e" stroke-width="1.55" stroke-linecap="round" stroke-linejoin="round"/>
<path d="M413.11,719.1L414.1,703.79L398.09,707.04L392.23,712.76L374.15,709.18L353.02,687.47L353,675.75L363.87,673.32L366.1,660.3L381.27,664.27L383.82,650.81L389.09,642.82L385.62,628.31L390.37,615.35L399.32,612.86L411.57,632.52L405.13,650.4L419.83,646.68L431.65,658.66L424.21,664.35L426.1,679.27L437.96,690.35L447.87,688.31L450.71,704.59L474.1,729.41L470.12,737L452.31,734.37L454.91,747.5L446.58,749.13L428.7,735.22L421.04,735.5L409.45,726.23L413.11,719.1Z" fill-rule="evenodd" fill="#4682b4" fill-opacity="0.471"/>
<polyline points="413.11,719.1 414.1,703.79 398.09,707.04 392.23,712.76 374.15,709.18 353.02,687.47 353,675.75 363.87,673.32 366.1,660.3 381.27,664.27 383.82,650.81 389.09,642.82 385.62,628.31 390.37,615.35 399.32,612.86 411.57,632.52 405.13,650.4 419.83,646.68 431.65,658.66 424.21,664.35 426.1,679.27 437.96,690.35 447.87,688.31 450.71,704.59 474.1,729.41 470.12,737 452.31,734.37 454.91,747.5 446.58,749.13 428.7,735.22 421.04,735.5 409.45,726.23 413.11,719.1" fill="none" stroke="#1e1e1e" stroke-width="1.55" stroke-linecap="round" stroke-linejoin="round"/>
<path d="M287.28,646.54L285.69,646.49L282.63,642.35L277.89,641.32L282.03,617.99L277.12,600.72L275.44,581.29L282.7,559.4L282.36,549.02L276.23,541.64L283.73,533.73L261.95,520.5L253.46,507.63L255.01,497.75L265.03,501.2L285.02,498.6L290.62,490.19L297.92,489.04L323.44,504.15L330.55,498.02L344.54,494.77L358.31,487.45L378.63,470.37L379.9,456.87L379.57,444.24L393.27,438.26L400.52,424.9L402,415.47L413.81,422.5L409.72,435.94L419.35,442.47L426.69,452.55L438.56,457.77L441.28,463.69L436.85,478.47L448.2,479.16L468.73,494.47L474.05,496.83L477.83,513.14L494.96,510.32L508.04,503.81L508.67,487.6L514.76,482.75L524.08,491.04L544.72,502.68L553.93,500.14L562.71,504.34L568.87,513.91L588.18,532.26L607.19,529.85L607.32,542.47L601.75,554.56L591.09,567.91L589.93,581.41L573.39,584.75L568.13,596.38L555.58,588.51L546.1,586.54L541.2,576.54L528.68,585.33L522.45,596.48L529.25,606.52L526.48,619.09L529.51,627.26L525.88,651.99L538.35,665.73L540,680.63L536.4,685.98L515.28,691.9L510.67,683.25L495.18,694.68L494.3,706.83L478.17,669.55L450.43,657.71L443.95,648.56L401.68,607.05L394.65,595.17L374.91,585.23L365.34,574.63L323.29,558.24L314.2,566.57L305.21,582.56L294.04,620.12L293.7,632.74L287.28,646.54Z" fill-rule="evenodd" fill="#4682b4" fill-opacity="0.471"/>
<polyline points="287.28,646.54 285.69,646.49 282.63,642.35 277.89,641.32 282.03,617.99 277.12,600.72 275.44,581.29 282.7,559.4 282.36,549.02 276.23,541.64 283.73,533.73 261.95,520.5 253.46,507.63 255.01,497.75 265.03,501.2 285.02,498.6 290.62,490.19 297.92,489.04 323.44,504.15 330.55,498.02 344.54,494.77 358.31,487.45 378.63,470.37 379.9,456.87 379.57,444.24 393.27,438.26 400.52,424.9 402,415.47 413.81,422.5 409.72,435.94 419.35,442.47 426.69,452.55 438.56,457.77 441.28,463.69 436.85,478.47 448.2,479.16 468.73,494.47 474.05,496.83 477.83,513.14 494.96,510.32 508.04,503.81 508.67,487.6 514.76,482.75 524.08,491.04 544.72,502.68 553.93,500.14 562.71,504.34 568.87,513.91 588.18,532.26 607.19,529.85 607.32,542.47 601.75,554.56 591.09,567.91 589.93,581.41 573.39,584.75 568.13,596.38 555.58,588.51 546.1,586.54 541.2,576.54 528.68,585.33 522.45,596.48 529.25,606.52 526.48,619.09 529.51,627.26 525.88,651.99 538.35,665.73 540,680.63 536.4,685.98 515.28,691.9 510.67,683.25 495.18,694.68 494.3,706.83 478.17,669.55 450.43,657.71 443.95,648.56 401.68,607.05 394.65,595.17 374.91,585.23 365.34,574.63 323.29,558.24 314.2,566.57 305.21,582.56 294.04,620.12 293.7,632.74 287.28,646.54" fill="none" stroke="#1e1e1e" stroke-width="1.55" stroke-linecap="round" stroke-linejoin="round"/>
<path d="M485.48,847.73L478.6,855.7L468.01,840.62L448.79,825.8L434.94,830.01L419.94,813.9L440.26,805.78L429.04,792.47L451.15,789.79L446.44,800.96L482.73,840.91L485.48,847.73Z" fill-rule="evenodd" fill="#4682b4" fill-opacity="0.471"/>
<polyline points="485.48,847.73 478.6,855.7 468.01,840.62 448.79,825.8 434.94,830.01 419.94,813.9 440.26,805.78 429.04,792.47 451.15,789.79 446.44,800.96 482.73,840.91 485.48,847.73" fill="none" stroke="#1e1e1e" stroke-width="1.55" stroke-linecap="round" stroke-linejoin="round"/>
<path d="M336.14,888.99L346.47,912.24L331.25,917.26L325.54,914.41L327.47,901.84L333.66,898.39L329.82,885.22L321.08,875.98L317.46,854.7L330.99,851.9L336.88,859.71L336.14,888.99Z" fill-rule="evenodd" fill="#4682b4" fill-opacity="0.471"/>
<polyline points="336.14,888.99 346.47,912.24 331.25,917.26 325.54,914.41 327.47,901.84 333.66,898.39 329.82,885.22 321.08,875.98 317.46,854.7 330.99,851.9 336.88,859.71 336.14,888.99" fill="none" stroke="#1e1e1e" stroke-width="1.55" stroke-linecap="round" stroke-linejoin="round"/>
<path d="M326.47,717L328.65,706.69L323.01,690.77L311.39,684.6L301.48,662.25L315.12,639.62L331.51,645.01L327.81,665.2L329.69,678.77L340.03,710.14L348.58,725.23L361.65,725.1L364.21,737.78L358.17,749.81L354.74,772.71L360.98,804.87L354.02,814.61L361.75,825.62L358.16,841.31L362.29,855.83L373.16,870.52L372.94,879.53L383.08,884.73L375.51,892.66L363.6,894.63L351.73,881.27L346.27,868.96L335.99,856.98L336.32,831.3L330.88,831.16L327.21,812.13L328.64,806.31L319.55,799.31L309.25,753.51L315.64,741.06L322.28,755.66L334.58,761.39L340.52,753.87L335.06,742.47L340.28,738.09L334,721.7L326.47,717Z" fill-rule="evenodd" fill="#4682b4" fill-opacity="0.471"/>
<polyline points="326.47,717 328.65,706.69 323.01,690.77 311.39,684.6 301.48,662.25 315.12,639.62 331.51,645.01 327.81,665.2 329.69,678.77 340.03,710.14 348.58,725.23 361.65,725.1 364.21,737.78 358.17,749.81 354.74,772.71 360.98,804.87 354.02,814.61 361.75,825.62 358.16,841.31 362.29,855.83 373.16,870.52 372.94,879.53 383.08,884.73 375.51,892.66 363.6,894.63 351.73,881.27 346.27,868.96 335.99,856.98 336.32,831.3 330.88,831.16 327.21,812.13 328.64,806.31 319.55,799.31 309.25,753.51 315.64,741.06 322.28,755.66 334.58,761.39 340.52,753.87 335.06,742.47 340.28,738.09 334,721.7 326.47,717" fill="none" stroke="#1e1e1e" stroke-width="1.55" stroke-linecap="round" stroke-linejoin="round"/>
<path d="M500.91,929.15L495.35,934L490.48,920.39L475.66,906.57L444.24,859.5L455.02,864.69L469.32,886.61L481.57,899.93L499.62,895.77L513.79,910.01L516.82,919.98L528.44,934.16L541.54,938.45L544.56,949.77L529.22,944.54L527.07,939.1L500.91,929.15Z" fill-rule="evenodd" fill="#4682b4" fill-opacity="0.471"/>
<polyline points="500.91,929.15 495.35,934 490.48,920.39 475.66,906.57 444.24,859.5 455.02,864.69 469.32,886.61 481.57,899.93 499.62,895.77 513.79,910.01 516.82,919.98 528.44,934.16 541.54,938.45 544.56,949.77 529.22,944.54 527.07,939.1 500.91,929.15" fill="none" stroke="#1e1e1e" stroke-width="1.55" stroke-linecap="round" stroke-linejoin="round"/>
<path d="M494.3,706.83L495.18,694.68L510.67,683.25L515.28,691.9L536.4,685.98L540,680.63L538.35,665.73L550.36,670L568.29,682.02L577.52,681.72L583.36,675.05L594.21,672.52L605.21,681.25L608.6,688.52L629.43,700.99L631.89,707.33L646.45,713.85L663.7,734.8L666.12,744.75L674.29,754.32L694.69,755.92L704.96,751.08L708.73,756.08L722.44,757.13L735.61,748.7L744.22,748.79L757.49,761.53L766.18,753.5L773.96,775.65L773.58,783.31L784.03,793.76L774.06,801.34L763.5,803.5L767.23,814.34L782.38,839.26L789.07,842.47L796.99,853.8L808.24,848.02L815.99,838.17L827.39,855.82L848.72,878.48L859.92,881.25L867.52,900.66L854.62,913.21L855.53,922.23L871.2,934.93L884.03,939.04L888.82,946.27L891.94,968.37L874.23,972.79L861.65,979.94L858.82,966.41L848.93,952.38L840.92,948.73L828.39,948.65L813.83,962.07L805.14,963.81L801.54,971.89L777.32,982.52L782,1000.13L774.52,1008.63L779.62,1015.43L789.95,1013.71L792.68,1035.36L784.51,1048.37L762.2,1053.58L744.48,1051.16L739.7,1045.26L730.34,1045.62L713.63,1039.13L703.09,1030.45L701.27,1020.52L693.61,1014.12L654.47,1001.02L635.66,987.24L630.2,985.82L621.27,1002.36L620.51,1010.92L610.96,1002.66L596.15,981.26L574.24,963.34L562,944.66L551.86,936.38L541.8,923.58L524.64,913.36L517.83,899.72L517.04,890.24L507.31,879.24L506.81,871.57L495.89,856.04L495.03,833.94L491.64,810.89L494.05,785.7L508.59,743.16L494.3,706.83Z" fill-rule="evenodd" fill="#4682b4" fill-opacity="0.471"/>
<polyline points="494.3,706.83 495.18,694.68 510.67,683.25 515.28,691.9 536.4,685.98 540,680.63 538.35,665.73 550.36,670 568.29,682.02 577.52,681.72 583.36,675.05 594.21,672.52 605.21,681.25 608.6,688.52 629.43,700.99 631.89,707.33 646.45,713.85 663.7,734.8 666.12,744.75 674.29,754.32 694.69,755.92 704.96,751.08 708.73,756.08 722.44,757.13 735.61,748.7 744.22,748.79 757.49,761.53 766.18,753.5 773.96,775.65 773.58,783.31 784.03,793.76 774.06,801.34 763.5,803.5 767.23,814.34 782.38,839.26 789.07,842.47 796.99,853.8 808.24,848.02 815.99,838.17 827.39,855.82 848.72,878.48 859.92,881.25 867.52,900.66 854.62,913.21 855.53,922.23 871.2,934.93 884.03,939.04 888.82,946.27 891.94,968.37 874.23,972.79 861.65,979.94 858.82,966.41 848.93,952.38 840.92,948.73 828.39,948.65 813.83,962.07 805.14,963.81 801.54,971.89 777.32,982.52 782,1000.13 774.52,1008.63 779.62,1015.43 789.95,1013.71 792.68,1035.36 784.51,1048.37 762.2,1053.58 744.48,1051.16 739.7,1045.26 730.34,1045.62 713.63,1039.13 703.09,1030.45 701.27,1020.52 693.61,1014.12 654.47,1001.02 635.66,987.24 630.2,985.82 621.27,1002.36 620.51,1010.92 610.96,1002.66 596.15,981.26 574.24,963.34 562,944.66 551.86,936.38 541.8,923.58 524.64,913.36 517.83,899.72 517.04,890.24 507.31,879.24 506.81,871.57 495.89,856.04 495.03,833.94 491.64,810.89 494.05,785.7 508.59,743.16 494.3,706.83" fill="none" stroke="#1e1e1e" stroke-width="1.55" stroke-linecap="round" stroke-linejoin="round"/>
<path d="M1258.7,279.58L1264.43,288.53L1283.47,281.57L1273.93,298.35L1286.46,296.86L1290.62,304.93L1302.85,305.24L1306.19,295.73L1334.8,302.59L1343.56,301.12L1359.4,313.07L1370.03,332.31L1371.41,340.85L1378.09,346.61L1401.06,349.42L1412.13,354.2L1428.65,365.2L1436.04,374.55L1454.12,365.67L1453.6,371.99L1460.25,392.16L1481.75,397.62L1482.69,413.83L1497.58,434.74L1491.22,448.38L1483.18,457.1L1478.68,469.35L1469.11,481.25L1464.96,496.2L1447.47,507.78L1440.75,502.93L1430.1,508.97L1410.02,498.03L1392.63,497.4L1385.59,491.65L1365.03,489.24L1350.93,474.11L1343.32,471.51L1333.41,461.72L1325.95,470.38L1304.72,462.98L1300.2,454.47L1308.35,450.32L1308.53,439.05L1318.15,426.76L1320.42,406.45L1308.12,404.34L1305.49,394.91L1295.17,400.44L1276.27,398.85L1281.2,389.78L1276.38,380.36L1253.95,369.33L1254.8,359.85L1246.61,358.13L1228.61,347.93L1218.11,331.34L1204.26,326.5L1202.58,312.09L1208.82,308.88L1225.84,282.59L1246.83,282.85L1258.7,279.58Z" fill-rule="evenodd" fill="#4682b4" fill-opacity="0.471"/>
<polyline points="1258.7,279.58 1264.43,288.53 1283.47,281.57 1273.93,298.35 1286.46,296.86 1290.62,304.93 1302.85,305.24 1306.19,295.73 1334.8,302.59 1343.56,301.12 1359.4,313.07 1370.03,332.31 1371.41,340.85 1378.09,346.61 1401.06,349.42 1412.13,354.2 1428.65,365.2 1436.04,374.55 1454.12,365.67 1453.6,371.99 1460.25,392.16 1481.75,397.62 1482.69,413.83 1497.58,434.74 1491.22,448.38 1483.18,457.1 1478.68,469.35 1469.11,481.25 1464.96,496.2 1447.47,507.78 1440.75,502.93 1430.1,508.97 1410.02,498.03 1392.63,497.4 1385.59,491.65 1365.03,489.24 1350.93,474.11 1343.32,471.51 1333.41,461.72 1325.95,470.38 1304.72,462.98 1300.2,454.47 1308.35,450.32 1308.53,439.05 1318.15,426.76 1320.42,406.45 1308.12,404.34 1305.49,394.91 1295.17,400.44 1276.27,398.85 1281.2,389.78 1276.38,380.36 1253.95,369.33 1254.8,359.85 1246.61,358.13 1228.61,347.93 1218.11,331.34 1204.26,326.5 1202.58,312.09 1208.82,308.88 1225.84,282.59 1246.83,282.85 1258.7,279.58" fill="none" stroke="#1e1e1e" stroke-width="1.55" stroke-linecap="round" stroke-linejoin="round"/>
<path d="M1304.72,462.98L1325.95,470.38L1333.41,461.72L1343.32,471.51L1350.93,474.11L1365.03,489.24L1385.59,491.65L1392.63,497.4L1410.02,498.03L1430.1,508.97L1440.75,502.93L1447.47,507.78L1451.74,517.17L1464.4,517.84L1468.62,524.08L1487.13,532.75L1492.99,541.66L1513.85,539.9L1520.44,552.84L1508.9,561.63L1514.45,570.09L1517.33,587.61L1508.4,600.86L1495.89,593.89L1469.82,590.31L1451.77,591.54L1448.53,606.02L1435.38,616.61L1432.34,624.32L1419.06,627.69L1410.05,640.46L1397.62,637.94L1393.7,609.61L1388.81,601.12L1365.35,601.46L1348.78,596.28L1343.29,588.24L1333.12,586.12L1324.78,579.02L1321.78,566.44L1311.6,562.95L1302.28,551.35L1290.84,547.42L1274.11,552.11L1263.74,559.43L1250.97,548.29L1236.45,552.93L1225.5,567.45L1212.85,569.36L1206.41,556.8L1194.03,551.93L1183.84,543.45L1190.09,532.58L1174.28,533.6L1168.49,519.66L1154.27,519.3L1148.21,509.87L1144.97,496.37L1151.5,479.21L1158.19,489.08L1169.29,496.67L1184.72,489.81L1195.51,497.39L1201.14,489.23L1217.89,491.35L1222.86,481.84L1241.28,493.85L1280.68,486.69L1284.22,492.06L1297.82,493.71L1305.6,484.15L1308.88,468.34L1304.72,462.98Z" fill-rule="evenodd" fill="#4682b4" fill-opacity="0.471"/>
<polyline points="1304.72,462.98 1325.95,470.38 1333.41,461.72 1343.32,471.51 1350.93,474.11 1365.03,489.24 1385.59,491.65 1392.63,497.4 1410.02,498.03 1430.1,508.97 1440.75,502.93 1447.47,507.78 1451.74,517.17 1464.4,517.84 1468.62,524.08 1487.13,532.75 1492.99,541.66 1513.85,539.9 1520.44,552.84 1508.9,561.63 1514.45,570.09 1517.33,587.61 1508.4,600.86 1495.89,593.89 1469.82,590.31 1451.77,591.54 1448.53,606.02 1435.38,616.61 1432.34,624.32 1419.06,627.69 1410.05,640.46 1397.62,637.94 1393.7,609.61 1388.81,601.12 1365.35,601.46 1348.78,596.28 1343.29,588.24 1333.12,586.12 1324.78,579.02 1321.78,566.44 1311.6,562.95 1302.28,551.35 1290.84,547.42 1274.11,552.11 1263.74,559.43 1250.97,548.29 1236.45,552.93 1225.5,567.45 1212.85,569.36 1206.41,556.8 1194.03,551.93 1183.84,543.45 1190.09,532.58 1174.28,533.6 1168.49,519.66 1154.27,519.3 1148.21,509.87 1144.97,496.37 1151.5,479.21 1158.19,489.08 1169.29,496.67 1184.72,489.81 1195.51,497.39 1201.14,489.23 1217.89,491.35 1222.86,481.84 1241.28,493.85 1280.68,486.69 1284.22,492.06 1297.82,493.71 1305.6,484.15 1308.88,468.34 1304.72,462.98" fill="none" stroke="#1e1e1e" stroke-width="1.55" stroke-linecap="round" stroke-linejoin="round"/>
<path d="M1225.5,567.45L1236.45,552.93L1250.97,548.29L1263.74,559.43L1274.11,552.11L1290.84,547.42L1302.28,551.35L1311.6,562.95L1321.78,566.44L1324.78,579.02L1333.12,586.12L1343.29,588.24L1348.78,596.28L1365.35,601.46L1388.81,601.12L1393.7,609.61L1397.62,637.94L1410.05,640.46L1419.06,627.69L1432.34,624.32L1435.38,616.61L1448.53,606.02L1451.77,591.54L1469.82,590.31L1495.89,593.89L1508.4,600.86L1543.5,610.51L1554.53,622L1571.89,617.11L1581.86,608.78L1598.97,607.49L1611.57,617.11L1626.98,623.95L1645.03,621.71L1651.47,612.98L1666.42,613.96L1665.56,629.76L1659.56,631.26L1647.66,650.94L1644.11,661.85L1648.85,673L1656.25,676.42L1661.79,681.69L1657.86,689.9L1639.72,689.91L1636.48,687.73L1622.04,669.6L1615.97,668.84L1590.63,673.49L1584.12,666.87L1575.51,666.16L1567.04,656.88L1553.23,665.3L1557.28,676.03L1549.82,684.3L1534.49,681.91L1522.42,683.06L1511.1,673.82L1513.48,665.66L1505.67,656.35L1496.9,663.28L1492.26,653.45L1479.66,659.55L1478.2,666.78L1467.48,671.49L1467.38,683.66L1455.17,695.14L1443.19,702.11L1436.49,701.32L1417.43,684.51L1410.74,684.16L1396.57,672.66L1378.61,662.57L1360.35,675.44L1353.93,671.48L1332.02,674.47L1325.87,665.98L1312.53,666.6L1313.01,653.97L1296.27,663.18L1277.8,659.78L1254.4,639.74L1246.95,658.74L1226.93,658.92L1213.52,651.38L1204.81,634.32L1194.29,629.45L1195.46,616.37L1211.88,605.87L1226.54,577.36L1225.5,567.45Z" fill-rule="evenodd" fill="#4682b4" fill-opacity="0.471"/>
<polyline points="1225.5,567.45 1236.45,552.93 1250.97,548.29 1263.74,559.43 1274.11,552.11 1290.84,547.42 1302.28,551.35 1311.6,562.95 1321.78,566.44 1324.78,579.02 1333.12,586.12 1343.29,588.24 1348.78,596.28 1365.35,601.46 1388.81,601.12 1393.7,609.61 1397.62,637.94 1410.05,640.46 1419.06,627.69 1432.34,624.32 1435.38,616.61 1448.53,606.02 1451.77,591.54 1469.82,590.31 1495.89,593.89 1508.4,600.86 1543.5,610.51 1554.53,622 1571.89,617.11 1581.86,608.78 1598.97,607.49 1611.57,617.11 1626.98,623.95 1645.03,621.71 1651.47,612.98 1666.42,613.96 1665.56,629.76 1659.56,631.26 1647.66,650.94 1644.11,661.85 1648.85,673 1656.25,676.42 1661.79,681.69 1657.86,689.9 1639.72,689.91 1636.48,687.73 1622.04,669.6 1615.97,668.84 1590.63,673.49 1584.12,666.87 1575.51,666.16 1567.04,656.88 1553.23,665.3 1557.28,676.03 1549.82,684.3 1534.49,681.91 1522.42,683.06 1511.1,673.82 1513.48,665.66 1505.67,656.35 1496.9,663.28 1492.26,653.45 1479.66,659.55 1478.2,666.78 1467.48,671.49 1467.38,683.66 1455.17,695.14 1443.19,702.11 1436.49,701.32 1417.43,684.51 1410.74,684.16 1396.57,672.66 1378.61,662.57 1360.35,675.44 1353.93,671.48 1332.02,674.47 1325.87,665.98 1312.53,666.6 1313.01,653.97 1296.27,663.18 1277.8,659.78 1254.4,639.74 1246.95,658.74 1226.93,658.92 1213.52,651.38 1204.81,634.32 1194.29,629.45 1195.46,616.37 1211.88,605.87 1226.54,577.36 1225.5,567.45" fill="none" stroke="#1e1e1e" stroke-width="1.55" stroke-linecap="round" stroke-linejoin="round"/>
<path d="M550.69,1042.72L541,1043.45L534.68,1035.68L540.35,1025.41L558.28,1032.48L550.69,1042.72Z" fill-rule="evenodd" fill="#4682b4" fill-opacity="0.471"/>
<polyline points="550.69,1042.72 541,1043.45 534.68,1035.68 540.35,1025.41 558.28,1032.48 550.69,1042.72" fill="none" stroke="#1e1e1e" stroke-width="1.55" stroke-linecap="round" stroke-linejoin="round"/>
<path d="M449.57,1002.94L455.11,999.9L451.86,985.86L458.41,980.59L466.24,991.11L462.2,999.6L469.07,1010.55L456.12,1013.44L449.57,1002.94Z" fill-rule="evenodd" fill="#4682b4" fill-opacity="0.471"/>
<polyline points="449.57,1002.94 455.11,999.9 451.86,985.86 458.41,980.59 466.24,991.11 462.2,999.6 469.07,1010.55 456.12,1013.44 449.57,1002.94" fill="none" stroke="#1e1e1e" stroke-width="1.55" stroke-linecap="round" stroke-linejoin="round"/>
<path d="M495.35,934L500.91,929.15L524.3,949.86L541.26,973.15L541.55,956.48L567.85,979.91L583.05,995.93L606.57,1016.57L608.33,1027.86L595.37,1032.17L585.4,1030.67L576.55,1039.54L559.04,1025.73L560.82,1015.85L555.11,1010.34L564.27,1001.93L553.47,993.19L543.1,997.07L532.79,978.86L515.72,962.33L506.41,961.25L497.87,953.43L502.52,945.85L495.35,934Z" fill-rule="evenodd" fill="#4682b4" fill-opacity="0.471"/>
<polyline points="495.35,934 500.91,929.15 524.3,949.86 541.26,973.15 541.55,956.48 567.85,979.91 583.05,995.93 606.57,1016.57 608.33,1027.86 595.37,1032.17 585.4,1030.67 576.55,1039.54 559.04,1025.73 560.82,1015.85 555.11,1010.34 564.27,1001.93 553.47,993.19 543.1,997.07 532.79,978.86 515.72,962.33 506.41,961.25 497.87,953.43 502.52,945.85 495.35,934" fill="none" stroke="#1e1e1e" stroke-width="1.55" stroke-linecap="round" stroke-linejoin="round"/>
<path d="M575.71,1172.92L562.27,1161.89L547.98,1144.97L558.69,1143.35L562.74,1153.33L574.24,1162.99L575.71,1172.92Z" fill-rule="evenodd" fill="#4682b4" fill-opacity="0.471"/>
<polyline points="575.71,1172.92 562.27,1161.89 547.98,1144.97 558.69,1143.35 562.74,1153.33 574.24,1162.99 575.71,1172.92" fill="none" stroke="#1e1e1e" stroke-width="1.55" stroke-linecap="round" stroke-linejoin="round"/>
<path d="M583.76,1135.19L590.1,1143.86L603.24,1152.62L586.65,1156.87L547.56,1112.52L546.78,1101.24L569.41,1121.45L581.92,1128.41L583.76,1135.19Z" fill-rule="evenodd" fill="#4682b4" fill-opacity="0.471"/>
<polyline points="583.76,1135.19 590.1,1143.86 603.24,1152.62 586.65,1156.87 547.56,1112.52 546.78,1101.24 569.41,1121.45 581.92,1128.41 583.76,1135.19" fill="none" stroke="#1e1e1e" stroke-width="1.55" stroke-linecap="round" stroke-linejoin="round"/>
<path d="M609.74,1173.45L611.77,1167.17L628.82,1176.42L639.67,1189.19L649.98,1194.29L651.16,1203.77L671.06,1221.15L661.93,1224.19L638.81,1204.95L623.39,1193.92L620.26,1185.77L609.74,1173.45Z" fill-rule="evenodd" fill="#4682b4" fill-opacity="0.471"/>
<polyline points="609.74,1173.45 611.77,1167.17 628.82,1176.42 639.67,1189.19 649.98,1194.29 651.16,1203.77 671.06,1221.15 661.93,1224.19 638.81,1204.95 623.39,1193.92 620.26,1185.77 609.74,1173.45" fill="none" stroke="#1e1e1e" stroke-width="1.55" stroke-linecap="round" stroke-linejoin="round"/>
<path d="M536.49,1172.27L521.36,1148.11L503.84,1132.47L478.53,1102.68L479.08,1091.43L496.55,1107.54L509.77,1127.17L527.37,1138.3L540.76,1168.74L554.8,1182.05L562.27,1181.72L565.04,1190.78L586.46,1210.95L574.59,1222.03L556.68,1205.51L545.9,1190.46L536.49,1172.27Z" fill-rule="evenodd" fill="#4682b4" fill-opacity="0.471"/>
<polyline points="536.49,1172.27 521.36,1148.11 503.84,1132.47 478.53,1102.68 479.08,1091.43 496.55,1107.54 509.77,1127.17 527.37,1138.3 540.76,1168.74 554.8,1182.05 562.27,1181.72 565.04,1190.78 586.46,1210.95 574.59,1222.03 556.68,1205.51 545.9,1190.46 536.49,1172.27" fill="none" stroke="#1e1e1e" stroke-width="1.55" stroke-linecap="round" stroke-linejoin="round"/>
<path d="M620.51,1010.92L621.27,1002.36L630.2,985.82L635.66,987.24L654.47,1001.02L693.61,1014.12L701.27,1020.52L703.09,1030.45L713.63,1039.13L730.34,1045.62L739.7,1045.26L744.48,1051.16L762.2,1053.58L784.51,1048.37L792.68,1035.36L789.95,1013.71L779.62,1015.43L774.52,1008.63L782,1000.13L777.32,982.52L801.54,971.89L805.14,963.81L813.83,962.07L828.39,948.65L840.92,948.73L848.93,952.38L858.82,966.41L861.65,979.94L874.23,972.79L891.94,968.37L894.77,984.6L902.78,994.09L894.07,999.47L919.12,1020.28L913.29,1027.47L909.05,1042.78L910.94,1057.21L915.44,1063.08L917,1078.41L904.07,1081.52L890.15,1088.22L893.02,1097.7L891.34,1113.46L876.1,1122.86L865.14,1114.69L853.84,1111.93L844.5,1105.57L836.83,1090.2L824.47,1103.19L821.49,1113.08L814.03,1117.09L808.46,1126.51L795.46,1133.62L792.49,1141.26L800.79,1156.64L792.93,1167.4L795.78,1175.98L781.1,1187.58L790.72,1202.08L773.76,1211.41L764.13,1236.56L750.84,1232.38L744.41,1226.01L728.03,1239.82L718,1235.21L709.65,1226.55L704.39,1232.36L696.31,1228.21L693.16,1220.06L674.75,1212.18L667.46,1198.12L655.89,1189.41L634.89,1159.83L623.92,1156.53L624.98,1150.23L615.34,1145.14L614.18,1135.66L602.95,1129.18L595.64,1120.06L590.7,1104.66L575.78,1087.75L578.96,1070.67L567.22,1057.86L571.6,1046.67L582.63,1063.07L590.72,1061.84L596.18,1042.55L617.82,1062.7L622.69,1060.97L617.73,1046.93L630.16,1034.94L637.11,1045.4L660.48,1059.68L668.27,1055.72L691.43,1062.31L695.19,1072.27L689.63,1078.06L677.66,1080.17L694.92,1095.25L702.43,1088.58L716.05,1084.22L696.16,1072.28L699.49,1062.86L695.73,1053.35L681.21,1053.18L672.56,1048.57L662.41,1034.92L654.1,1028.95L636.14,1021.95L620.51,1010.92Z" fill-rule="evenodd" fill="#4682b4" fill-opacity="0.471"/>
<polyline points="620.51,1010.92 621.27,1002.36 630.2,985.82 635.66,987.24 654.47,1001.02 693.61,1014.12 701.27,1020.52 703.09,1030.45 713.63,1039.13 730.34,1045.62 739.7,1045.26 744.48,1051.16 762.2,1053.58 784.51,1048.37 792.68,1035.36 789.95,1013.71 779.62,1015.43 774.52,1008.63 782,1000.13 777.32,982.52 801.54,971.89 805.14,963.81 813.83,962.07 828.39,948.65 840.92,948.73 848.93,952.38 858.82,966.41 861.65,979.94 874.23,972.79 891.94,968.37 894.77,984.6 902.78,994.09 894.07,999.47 919.12,1020.28 913.29,1027.47 909.05,1042.78 910.94,1057.21 915.44,1063.08 917,1078.41 904.07,1081.52 890.15,1088.22 893.02,1097.7 891.34,1113.46 876.1,1122.86 865.14,1114.69 853.84,1111.93 844.5,1105.57 836.83,1090.2 824.47,1103.19 821.49,1113.08 814.03,1117.09 808.46,1126.51 795.46,1133.62 792.49,1141.26 800.79,1156.64 792.93,1167.4 795.78,1175.98 781.1,1187.58 790.72,1202.08 773.76,1211.41 764.13,1236.56 750.84,1232.38 744.41,1226.01 728.03,1239.82 718,1235.21 709.65,1226.55 704.39,1232.36 696.31,1228.21 693.16,1220.06 674.75,1212.18 667.46,1198.12 655.89,1189.41 634.89,1159.83 623.92,1156.53 624.98,1150.23 615.34,1145.14 614.18,1135.66 602.95,1129.18 595.64,1120.06 590.7,1104.66 575.78,1087.75 578.96,1070.67 567.22,1057.86 571.6,1046.67 582.63,1063.07 590.72,1061.84 596.18,1042.55 617.82,1062.7 622.69,1060.97 617.73,1046.93 630.16,1034.94 637.11,1045.4 660.48,1059.68 668.27,1055.72 691.43,1062.31 695.19,1072.27 689.63,1078.06 677.66,1080.17 694.92,1095.25 702.43,1088.58 716.05,1084.22 696.16,1072.28 699.49,1062.86 695.73,1053.35 681.21,1053.18 672.56,1048.57 662.41,1034.92 654.1,1028.95 636.14,1021.95 620.51,1010.92" fill="none" stroke="#1e1e1e" stroke-width="1.55" stroke-linecap="round" stroke-linejoin="round"/>
<path d="M1447.47,507.78L1464.96,496.2L1469.11,481.25L1478.68,469.35L1483.18,457.1L1491.22,448.38L1497.58,434.74L1482.69,413.83L1481.75,397.62L1460.25,392.16L1453.6,371.99L1454.12,365.67L1471.73,365.8L1481.42,363.37L1487.83,369.56L1507.13,375.95L1526.4,364.74L1535.32,370.42L1541.18,364.88L1555.12,370L1558.1,376.69L1590.23,378.68L1595.7,370.44L1604.62,375.64L1610.83,385.41L1622.18,386.04L1621.29,375.24L1632.55,372.72L1635.37,359.57L1644.28,363.86L1655.47,359.07L1669.47,341.12L1676.62,338.23L1677.48,323.33L1687.56,313.14L1686.99,303.23L1701.08,302.4L1728.55,319.67L1734.18,319.06L1735.36,305.5L1737.79,302.72L1739.8,307.17L1759.02,298.95L1753.98,309.02L1758.6,327.37L1749.5,327.64L1749.27,341.17L1747.27,347.99L1747.36,351.15L1756.45,350.43L1762.81,342.12L1769.18,345.09L1771.91,362.6L1766.99,366.35L1755.82,360.82L1753.63,372.16L1771.74,377.93L1784.64,367.62L1789.44,380.55L1774.06,402.66L1783.65,407.33L1784.69,410.46L1783.8,412.29L1787.63,413.97L1789.66,418.42L1786.29,421.68L1776.58,423.78L1776.01,425.6L1777.39,429.62L1779.87,428.19L1782.17,431.28L1778.14,433.65L1780.58,441.24L1770.23,443.36L1766.05,451.15L1769.41,458.26L1780.29,462.9L1776.69,469.32L1783.12,473.18L1793.81,471.5L1805.21,462.13L1810.58,472.33L1829.4,478.05L1831.51,484.74L1825.44,492.6L1809.66,493.55L1798.55,492.1L1795.9,508.41L1801.55,517.25L1783.57,519.16L1763.57,495.41L1752.96,500.23L1748.81,509.82L1737.77,510.59L1732.65,519.75L1738.35,530.86L1728.31,534.3L1722.76,528.14L1709.87,531.2L1704.65,537.21L1687.67,541.27L1691.25,556.95L1681.53,560.82L1685.38,574.69L1670.18,575.09L1664.07,584.26L1657.65,581.27L1647,586.5L1651.47,612.98L1645.03,621.71L1626.98,623.95L1611.57,617.11L1598.97,607.49L1581.86,608.78L1571.89,617.11L1554.53,622L1543.5,610.51L1508.4,600.86L1517.33,587.61L1514.45,570.09L1508.9,561.63L1520.44,552.84L1513.85,539.9L1492.99,541.66L1487.13,532.75L1468.62,524.08L1464.4,517.84L1451.74,517.17L1447.47,507.78Z" fill-rule="evenodd" fill="#4682b4" fill-opacity="0.471"/>
<polyline points="1447.47,507.78 1464.96,496.2 1469.11,481.25 1478.68,469.35 1483.18,457.1 1491.22,448.38 1497.58,434.74 1482.69,413.83 1481.75,397.62 1460.25,392.16 1453.6,371.99 1454.12,365.67 1471.73,365.8 1481.42,363.37 1487.83,369.56 1507.13,375.95 1526.4,364.74 1535.32,370.42 1541.18,364.88 1555.12,370 1558.1,376.69 1590.23,378.68 1595.7,370.44 1604.62,375.64 1610.83,385.41 1622.18,386.04 1621.29,375.24 1632.55,372.72 1635.37,359.57 1644.28,363.86 1655.47,359.07 1669.47,341.12 1676.62,338.23 1677.48,323.33 1687.56,313.14 1686.99,303.23 1701.08,302.4 1728.55,319.67 1734.18,319.06 1735.36,305.5 1737.79,302.72 1739.8,307.17 1759.02,298.95 1753.98,309.02 1758.6,327.37 1749.5,327.64 1749.27,341.17 1747.27,347.99 1747.36,351.15 1756.45,350.43 1762.81,342.12 1769.18,345.09 1771.91,362.6 1766.99,366.35 1755.82,360.82 1753.63,372.16 1771.74,377.93 1784.64,367.62 1789.44,380.55 1774.06,402.66 1783.65,407.33 1784.69,410.46 1783.8,412.29 1787.63,413.97 1789.66,418.42 1786.29,421.68 1776.58,423.78 1776.01,425.6 1777.39,429.62 1779.87,428.19 1782.17,431.28 1778.14,433.65 1780.58,441.24 1770.23,443.36 1766.05,451.15 1769.41,458.26 1780.29,462.9 1776.69,469.32 1783.12,473.18 1793.81,471.5 1805.21,462.13 1810.58,472.33 1829.4,478.05 1831.51,484.74 1825.44,492.6 1809.66,493.55 1798.55,492.1 1795.9,508.41 1801.55,517.25 1783.57,519.16 1763.57,495.41 1752.96,500.23 1748.81,509.82 1737.77,510.59 1732.65,519.75 1738.35,530.86 1728.31,534.3 1722.76,528.14 1709.87,531.2 1704.65,537.21 1687.67,541.27 1691.25,556.95 1681.53,560.82 1685.38,574.69 1670.18,575.09 1664.07,584.26 1657.65,581.27 1647,586.5 1651.47,612.98 1645.03,621.71 1626.98,623.95 1611.57,617.11 1598.97,607.49 1581.86,608.78 1571.89,617.11 1554.53,622 1543.5,610.51 1508.4,600.86 1517.33,587.61 1514.45,570.09 1508.9,561.63 1520.44,552.84 1513.85,539.9 1492.99,541.66 1487.13,532.75 1468.62,524.08 1464.4,517.84 1451.74,517.17 1447.47,507.78" fill="none" stroke="#1e1e1e" stroke-width="1.55" stroke-linecap="round" stroke-linejoin="round"/>
<path d="M722.6,1261.84L732.95,1267.81L724.73,1275.39L708.67,1256.74L719.76,1253.7L722.6,1261.84Z" fill-rule="evenodd" fill="#4682b4" fill-opacity="0.471"/>
<polyline points="722.6,1261.84 732.95,1267.81 724.73,1275.39 708.67,1256.74 719.76,1253.7 722.6,1261.84" fill="none" stroke="#1e1e1e" stroke-width="1.55" stroke-linecap="round" stroke-linejoin="round"/>
<path d="M633.18,1259.86L636.26,1272.52L620.77,1263.29L614.73,1253.74L607.3,1250.48L608.43,1240.13L633.18,1259.86Z" fill-rule="evenodd" fill="#4682b4" fill-opacity="0.471"/>
<polyline points="633.18,1259.86 636.26,1272.52 620.77,1263.29 614.73,1253.74 607.3,1250.48 608.43,1240.13 633.18,1259.86" fill="none" stroke="#1e1e1e" stroke-width="1.55" stroke-linecap="round" stroke-linejoin="round"/>
<path d="M704.39,1232.36L709.65,1226.55L718,1235.21L728.03,1239.82L744.41,1226.01L750.84,1232.38L764.13,1236.56L773.76,1211.41L790.72,1202.08L781.1,1187.58L795.78,1175.98L792.93,1167.4L800.79,1156.64L792.49,1141.26L795.46,1133.62L808.46,1126.51L814.03,1117.09L821.49,1113.08L824.47,1103.19L836.83,1090.2L844.5,1105.57L853.84,1111.93L865.14,1114.69L876.1,1122.86L891.34,1113.46L893.02,1097.7L890.15,1088.22L904.07,1081.52L921.51,1081.57L948.59,1111.38L952.12,1124L970.88,1126.29L971.84,1137.55L987.38,1138.92L991.26,1145.68L989.31,1162.8L1011.66,1164.6L1014.59,1173.16L1023.67,1182.62L1025.95,1190.73L1005.51,1188.49L989.94,1201.1L982.16,1199.75L973.06,1214.61L963,1210.54L959.07,1231.26L978.88,1243.91L990.24,1260.13L973.32,1272.74L961.28,1279.04L961.26,1289.85L956.37,1297.05L962.22,1305.62L955.68,1315.98L928.97,1312.32L922.42,1324.47L898.34,1313.12L880.25,1351.35L874.06,1348.62L861.94,1358.92L873.56,1386.92L863.69,1399.04L850.94,1399.87L840.18,1395.31L838.6,1386.28L822.01,1375.81L824.64,1372.22L820.53,1352.82L824.95,1325.36L812.66,1310.85L809.06,1313.53L797.11,1299.92L775.1,1283.97L768.56,1287.07L749.43,1279.24L731.02,1265.54L735.04,1253.41L725.7,1245.2L714.34,1243.28L704.39,1232.36Z" fill-rule="evenodd" fill="#4682b4" fill-opacity="0.471"/>
<polyline points="704.39,1232.36 709.65,1226.55 718,1235.21 728.03,1239.82 744.41,1226.01 750.84,1232.38 764.13,1236.56 773.76,1211.41 790.72,1202.08 781.1,1187.58 795.78,1175.98 792.93,1167.4 800.79,1156.64 792.49,1141.26 795.46,1133.62 808.46,1126.51 814.03,1117.09 821.49,1113.08 824.47,1103.19 836.83,1090.2 844.5,1105.57 853.84,1111.93 865.14,1114.69 876.1,1122.86 891.34,1113.46 893.02,1097.7 890.15,1088.22 904.07,1081.52 921.51,1081.57 948.59,1111.38 952.12,1124 970.88,1126.29 971.84,1137.55 987.38,1138.92 991.26,1145.68 989.31,1162.8 1011.66,1164.6 1014.59,1173.16 1023.67,1182.62 1025.95,1190.73 1005.51,1188.49 989.94,1201.1 982.16,1199.75 973.06,1214.61 963,1210.54 959.07,1231.26 978.88,1243.91 990.24,1260.13 973.32,1272.74 961.28,1279.04 961.26,1289.85 956.37,1297.05 962.22,1305.62 955.68,1315.98 928.97,1312.32 922.42,1324.47 898.34,1313.12 880.25,1351.35 874.06,1348.62 861.94,1358.92 873.56,1386.92 863.69,1399.04 850.94,1399.87 840.18,1395.31 838.6,1386.28 822.01,1375.81 824.64,1372.22 820.53,1352.82 824.95,1325.36 812.66,1310.85 809.06,1313.53 797.11,1299.92 775.1,1283.97 768.56,1287.07 749.43,1279.24 731.02,1265.54 735.04,1253.41 725.7,1245.2 714.34,1243.28 704.39,1232.36" fill="none" stroke="#1e1e1e" stroke-width="1.55" stroke-linecap="round" stroke-linejoin="round"/>
<path d="M1651.47,612.98L1647,586.5L1657.65,581.27L1664.07,584.26L1670.18,575.09L1685.38,574.69L1681.53,560.82L1691.25,556.95L1687.67,541.27L1704.65,537.21L1709.87,531.2L1722.76,528.14L1728.31,534.3L1738.35,530.86L1732.65,519.75L1737.77,510.59L1748.81,509.82L1752.96,500.23L1763.57,495.41L1783.57,519.16L1801.55,517.25L1809.32,522.87L1808,531.48L1796.67,533.63L1792.23,543.69L1803.27,552.37L1831.12,561.41L1835.45,577.5L1848.4,585.65L1865.11,591.86L1889.77,589.22L1885.42,601.09L1909.67,604.76L1936.63,603.8L1945.48,620.17L1938.66,633.49L1919.19,631.48L1909.48,626.41L1904.67,616.21L1894.23,617.47L1897.6,632.24L1879.48,631.96L1864.16,620.75L1863.42,636.55L1849.66,653.24L1831.97,647.05L1829.23,661.11L1838.96,676.58L1835.75,695.62L1838.99,707.24L1830.97,725.53L1853.53,723L1852.76,738.35L1835.14,746.14L1828.13,756.73L1818.6,748.01L1804.15,755.68L1814.44,778.35L1809.97,778.49L1801.1,781.02L1762.42,780.82L1750.28,769.9L1733.7,759.55L1731.25,740.69L1744.71,742.56L1738.62,730.56L1740.8,717.43L1719.73,716.22L1722.7,708.47L1714.47,698.78L1696.73,690.7L1681.07,688.41L1682.14,680.71L1669.56,674.28L1656.25,676.42L1648.85,673L1644.11,661.85L1647.66,650.94L1659.56,631.26L1665.56,629.76L1666.42,613.96L1651.47,612.98Z" fill-rule="evenodd" fill="#4682b4" fill-opacity="0.471"/>
<polyline points="1651.47,612.98 1647,586.5 1657.65,581.27 1664.07,584.26 1670.18,575.09 1685.38,574.69 1681.53,560.82 1691.25,556.95 1687.67,541.27 1704.65,537.21 1709.87,531.2 1722.76,528.14 1728.31,534.3 1738.35,530.86 1732.65,519.75 1737.77,510.59 1748.81,509.82 1752.96,500.23 1763.57,495.41 1783.57,519.16 1801.55,517.25 1809.32,522.87 1808,531.48 1796.67,533.63 1792.23,543.69 1803.27,552.37 1831.12,561.41 1835.45,577.5 1848.4,585.65 1865.11,591.86 1889.77,589.22 1885.42,601.09 1909.67,604.76 1936.63,603.8 1945.48,620.17 1938.66,633.49 1919.19,631.48 1909.48,626.41 1904.67,616.21 1894.23,617.47 1897.6,632.24 1879.48,631.96 1864.16,620.75 1863.42,636.55 1849.66,653.24 1831.97,647.05 1829.23,661.11 1838.96,676.58 1835.75,695.62 1838.99,707.24 1830.97,725.53 1853.53,723 1852.76,738.35 1835.14,746.14 1828.13,756.73 1818.6,748.01 1804.15,755.68 1814.44,778.35 1809.97,778.49 1801.1,781.02 1762.42,780.82 1750.28,769.9 1733.7,759.55 1731.25,740.69 1744.71,742.56 1738.62,730.56 1740.8,717.43 1719.73,716.22 1722.7,708.47 1714.47,698.78 1696.73,690.7 1681.07,688.41 1682.14,680.71 1669.56,674.28 1656.25,676.42 1648.85,673 1644.11,661.85 1647.66,650.94 1659.56,631.26 1665.56,629.76 1666.42,613.96 1651.47,612.98" fill="none" stroke="#1e1e1e" stroke-width="1.55" stroke-linecap="round" stroke-linejoin="round"/>
<path d="M867.49,1623.97L876.1,1615.44L871.25,1595.59L883.78,1592.04L905.52,1590.32L909.44,1596.64L921.97,1593.08L930.52,1597.61L918.61,1616.51L879.03,1624.02L867.49,1623.97Z" fill-rule="evenodd" fill="#4682b4" fill-opacity="0.471"/>
<polyline points="867.49,1623.97 876.1,1615.44 871.25,1595.59 883.78,1592.04 905.52,1590.32 909.44,1596.64 921.97,1593.08 930.52,1597.61 918.61,1616.51 879.03,1624.02 867.49,1623.97" fill="none" stroke="#1e1e1e" stroke-width="1.55" stroke-linecap="round" stroke-linejoin="round"/>
<path d="M913.04,1403.3L932,1403.36L930.71,1394.34L945.42,1395.28L970.57,1408.84L949.32,1409.26L937.88,1406.53L925.44,1409.2L913.04,1403.3Z" fill-rule="evenodd" fill="#4682b4" fill-opacity="0.471"/>
<polyline points="913.04,1403.3 932,1403.36 930.71,1394.34 945.42,1395.28 970.57,1408.84 949.32,1409.26 937.88,1406.53 925.44,1409.2 913.04,1403.3" fill="none" stroke="#1e1e1e" stroke-width="1.55" stroke-linecap="round" stroke-linejoin="round"/>
<path d="M1060.6,1457.91L1080.28,1463.26L1102.24,1465.89L1121.93,1472.12L1141.01,1485.1L1134.19,1497.75L1126.67,1504.55L1103.39,1508.71L1084.35,1508.32L1071.23,1510.61L1019.69,1505.29L995.74,1488.17L981.96,1484.11L993.12,1461.13L988.21,1450.31L1026.86,1453.46L1060.6,1457.91Z" fill-rule="evenodd" fill="#4682b4" fill-opacity="0.471"/>
<polyline points="1060.6,1457.91 1080.28,1463.26 1102.24,1465.89 1121.93,1472.12 1141.01,1485.1 1134.19,1497.75 1126.67,1504.55 1103.39,1508.71 1084.35,1508.32 1071.23,1510.61 1019.69,1505.29 995.74,1488.17 981.96,1484.11 993.12,1461.13 988.21,1450.31 1026.86,1453.46 1060.6,1457.91" fill="none" stroke="#1e1e1e" stroke-width="1.55" stroke-linecap="round" stroke-linejoin="round"/>
<path d="M961.01,1458.85L968.21,1469.23L970.49,1480.04L947.24,1466.04L913.86,1452.43L914.23,1439.81L936.81,1441.68L950.55,1448.47L961.01,1458.85Z" fill-rule="evenodd" fill="#4682b4" fill-opacity="0.471"/>
<polyline points="961.01,1458.85 968.21,1469.23 970.49,1480.04 947.24,1466.04 913.86,1452.43 914.23,1439.81 936.81,1441.68 950.55,1448.47 961.01,1458.85" fill="none" stroke="#1e1e1e" stroke-width="1.55" stroke-linecap="round" stroke-linejoin="round"/>
<path d="M881.85,1432.48L890.41,1419.89L900.88,1420.84L904.12,1427.61L889.04,1433.86L881.85,1432.48Z" fill-rule="evenodd" fill="#4682b4" fill-opacity="0.471"/>
<polyline points="881.85,1432.48 890.41,1419.89 900.88,1420.84 904.12,1427.61 889.04,1433.86 881.85,1432.48" fill="none" stroke="#1e1e1e" stroke-width="1.55" stroke-linecap="round" stroke-linejoin="round"/>
<path d="M1174.38,1574.6L1157.28,1575.6L1127.66,1573.51L1110.86,1569.98L1086.85,1569.61L1062.51,1571.93L1031.9,1563.42L1023.02,1563.43L1005.92,1553.98L999.34,1556.23L979.62,1544.96L1002.3,1532.34L1019.06,1535.49L1026.62,1543.15L1036.81,1545.39L1024.96,1525.57L1039.09,1531.41L1065.7,1531.81L1070.34,1548.03L1079.56,1554.76L1094.68,1553.36L1137.12,1558.13L1164.41,1558.43L1198.33,1564.51L1222.33,1563.43L1220.45,1574.26L1174.38,1574.6Z" fill-rule="evenodd" fill="#4682b4" fill-opacity="0.471"/>
<polyline points="1174.38,1574.6 1157.28,1575.6 1127.66,1573.51 1110.86,1569.98 1086.85,1569.61 1062.51,1571.93 1031.9,1563.42 1023.02,1563.43 1005.92,1553.98 999.34,1556.23 979.62,1544.96 1002.3,1532.34 1019.06,1535.49 1026.62,1543.15 1036.81,1545.39 1024.96,1525.57 1039.09,1531.41 1065.7,1531.81 1070.34,1548.03 1079.56,1554.76 1094.68,1553.36 1137.12,1558.13 1164.41,1558.43 1198.33,1564.51 1222.33,1563.43 1220.45,1574.26 1174.38,1574.6" fill="none" stroke="#1e1e1e" stroke-width="1.55" stroke-linecap="round" stroke-linejoin="round"/>
<path d="M850.94,1399.87L863.69,1399.04L873.56,1386.92L861.94,1358.92L874.06,1348.62L880.25,1351.35L898.34,1313.12L922.42,1324.47L928.97,1312.32L955.68,1315.98L962.22,1305.62L956.37,1297.05L961.26,1289.85L961.28,1279.04L973.32,1272.74L990.24,1260.13L978.88,1243.91L959.07,1231.26L963,1210.54L973.06,1214.61L982.16,1199.75L989.94,1201.1L1005.51,1188.49L1025.95,1190.73L1045.12,1214.13L1064.32,1232.57L1080.59,1243.34L1083.27,1268.12L1091.11,1278.01L1101.85,1279.32L1110.34,1285.14L1116.26,1298.64L1133.59,1313.43L1138.48,1313.85L1151.66,1339.92L1161.16,1346.62L1175.98,1366.81L1214.06,1392.67L1224.28,1403.86L1246.82,1401.4L1261.61,1409.83L1267.24,1416.98L1268,1427.34L1256.39,1445.03L1271.49,1481.39L1286.54,1508.28L1298.41,1513.11L1314.99,1526.89L1316.51,1544.45L1322.1,1545.29L1311.72,1557.13L1297.27,1558.64L1305.65,1572.97L1291.31,1584.85L1286.28,1576.34L1274.04,1570.61L1268.06,1564.36L1240.29,1549.3L1229.75,1546.23L1225.09,1539.51L1211.23,1532.41L1208.86,1523.42L1199.65,1520.78L1191.65,1504.62L1177.8,1494.34L1171.83,1483.57L1136.55,1445.91L1130.99,1447.74L1093.31,1442.94L1079.22,1437.58L1076.58,1431.28L1052.35,1425.93L1036.96,1417.84L1016.35,1401.64L985.94,1401.19L989.55,1381.81L960.81,1378.63L926.46,1394.78L903.56,1401.47L902.56,1407.77L886.18,1414.02L865.26,1412.57L850.94,1399.87Z" fill-rule="evenodd" fill="#4682b4" fill-opacity="0.471"/>
<polyline points="850.94,1399.87 863.69,1399.04 873.56,1386.92 861.94,1358.92 874.06,1348.62 880.25,1351.35 898.34,1313.12 922.42,1324.47 928.97,1312.32 955.68,1315.98 962.22,1305.62 956.37,1297.05 961.26,1289.85 961.28,1279.04 973.32,1272.74 990.24,1260.13 978.88,1243.91 959.07,1231.26 963,1210.54 973.06,1214.61 982.16,1199.75 989.94,1201.1 1005.51,1188.49 1025.95,1190.73 1045.12,1214.13 1064.32,1232.57 1080.59,1243.34 1083.27,1268.12 1091.11,1278.01 1101.85,1279.32 1110.34,1285.14 1116.26,1298.64 1133.59,1313.43 1138.48,1313.85 1151.66,1339.92 1161.16,1346.62 1175.98,1366.81 1214.06,1392.67 1224.28,1403.86 1246.82,1401.4 1261.61,1409.83 1267.24,1416.98 1268,1427.34 1256.39,1445.03 1271.49,1481.39 1286.54,1508.28 1298.41,1513.11 1314.99,1526.89 1316.51,1544.45 1322.1,1545.29 1311.72,1557.13 1297.27,1558.64 1305.65,1572.97 1291.31,1584.85 1286.28,1576.34 1274.04,1570.61 1268.06,1564.36 1240.29,1549.3 1229.75,1546.23 1225.09,1539.51 1211.23,1532.41 1208.86,1523.42 1199.65,1520.78 1191.65,1504.62 1177.8,1494.34 1171.83,1483.57 1136.55,1445.91 1130.99,1447.74 1093.31,1442.94 1079.22,1437.58 1076.58,1431.28 1052.35,1425.93 1036.96,1417.84 1016.35,1401.64 985.94,1401.19 989.55,1381.81 960.81,1378.63 926.46,1394.78 903.56,1401.47 902.56,1407.77 886.18,1414.02 865.26,1412.57 850.94,1399.87" fill="none" stroke="#1e1e1e" stroke-width="1.55" stroke-linecap="round" stroke-linejoin="round"/>
<path d="M91.58,497.03L115.18,509.58L118.96,510.16L145.83,501.14L155.88,503.27L160.82,516.51L183.47,520.84L192.7,508.96L206.01,508.02L218.87,501.2L209.41,490.09L212.51,481.61L221.1,479.62L242.42,496.04L255.01,497.75L253.46,507.63L261.95,520.5L283.73,533.73L276.23,541.64L282.36,549.02L282.7,559.4L275.44,581.29L277.12,600.72L282.03,617.99L277.89,641.32L282.63,642.35L285.69,646.49L287.28,646.54L281.12,662.59L263.07,693.2L268,721.74L260.65,733.7L247.1,727.9L227,739.03L224.72,751.14L214.18,762.09L204.19,785.69L211.36,802.58L186.1,802.26L168.3,798.54L162.43,792.04L154.65,775.56L163.15,769.52L149.29,763.67L151.83,754.28L138.24,720.92L129.5,715.22L121.92,703.69L115.04,699.85L115.1,688.58L98.55,679L100.58,666.44L92.75,662.56L87.39,633.97L83.08,621.19L90.18,599.8L83.6,588.29L90.05,585.36L80.55,566.99L72.51,561.29L74.6,538.37L65.71,521.36L68.61,511.1L59.27,489.56L64.32,481.18L80.49,488.52L91.58,497.03Z" fill-rule="evenodd" fill="#4682b4" fill-opacity="0.471"/>
<polyline points="91.58,497.03 115.18,509.58 118.96,510.16 145.83,501.14 155.88,503.27 160.82,516.51 183.47,520.84 192.7,508.96 206.01,508.02 218.87,501.2 209.41,490.09 212.51,481.61 221.1,479.62 242.42,496.04 255.01,497.75 253.46,507.63 261.95,520.5 283.73,533.73 276.23,541.64 282.36,549.02 282.7,559.4 275.44,581.29 277.12,600.72 282.03,617.99 277.89,641.32 282.63,642.35 285.69,646.49 287.28,646.54 281.12,662.59 263.07,693.2 268,721.74 260.65,733.7 247.1,727.9 227,739.03 224.72,751.14 214.18,762.09 204.19,785.69 211.36,802.58 186.1,802.26 168.3,798.54 162.43,792.04 154.65,775.56 163.15,769.52 149.29,763.67 151.83,754.28 138.24,720.92 129.5,715.22 121.92,703.69 115.04,699.85 115.1,688.58 98.55,679 100.58,666.44 92.75,662.56 87.39,633.97 83.08,621.19 90.18,599.8 83.6,588.29 90.05,585.36 80.55,566.99 72.51,561.29 74.6,538.37 65.71,521.36 68.61,511.1 59.27,489.56 64.32,481.18 80.49,488.52 91.58,497.03" fill="none" stroke="#1e1e1e" stroke-width="1.55" stroke-linecap="round" stroke-linejoin="round"/>
<path d="M1135.1,1745.67L1117.55,1747.1L1117.15,1731.78L1128.05,1726.77L1136.67,1730.33L1152.23,1730.25L1154.59,1738.35L1146.37,1748.76L1135.1,1745.67Z" fill-rule="evenodd" fill="#4682b4" fill-opacity="0.471"/>
<polyline points="1135.1,1745.67 1117.55,1747.1 1117.15,1731.78 1128.05,1726.77 1136.67,1730.33 1152.23,1730.25 1154.59,1738.35 1146.37,1748.76 1135.1,1745.67" fill="none" stroke="#1e1e1e" stroke-width="1.55" stroke-linecap="round" stroke-linejoin="round"/>
<path d="M1473.05,1755.85L1462.01,1749.28L1453.47,1734.09L1473.17,1743.22L1479.91,1749.87L1473.05,1755.85Z" fill-rule="evenodd" fill="#4682b4" fill-opacity="0.471"/>
<polyline points="1473.05,1755.85 1462.01,1749.28 1453.47,1734.09 1473.17,1743.22 1479.91,1749.87 1473.05,1755.85" fill="none" stroke="#1e1e1e" stroke-width="1.55" stroke-linecap="round" stroke-linejoin="round"/>
<path d="M1389.71,1674.22L1399.07,1659.66L1414.6,1660.32L1427.88,1665.08L1434.93,1672.18L1442.34,1660.79L1454.01,1667.36L1458.55,1682.16L1466.07,1696.45L1473.04,1698.14L1476.52,1707.99L1489.84,1713.17L1506.26,1724.14L1506.7,1729.99L1520.7,1735.14L1535.9,1750.17L1544.11,1763.08L1554.1,1765.58L1561.27,1775.36L1571.9,1776.49L1583.54,1793.38L1590.97,1799.08L1600.79,1793L1619.68,1791.67L1628.66,1792.82L1638.92,1805.66L1653.86,1819.28L1656.68,1839.96L1653.31,1851.77L1666.83,1860.46L1683.95,1879.88L1679.1,1885.41L1663.39,1869.56L1650.58,1862.66L1617.81,1840.87L1604.72,1835.3L1585.77,1819.48L1581.24,1809.66L1584,1799.23L1574.19,1790.42L1567.97,1794.61L1548.84,1783.73L1528.16,1778.28L1525.96,1767.05L1496.51,1752.27L1491.42,1745.15L1476.05,1737.76L1456.86,1719.15L1453.42,1711.1L1429.64,1713.74L1416.14,1717.56L1371.23,1699.73L1343.7,1692.43L1322.78,1684.57L1325.29,1673.27L1309.99,1663.53L1294.81,1664.15L1287.8,1657.47L1260.96,1646.47L1246.33,1633.99L1236.14,1637.68L1221.3,1637.81L1206.09,1632.97L1197.85,1633.48L1180.64,1624.14L1184.19,1613.3L1190.43,1610.55L1198.38,1616.8L1231.33,1615.19L1241.57,1618.25L1264.01,1620.75L1320.35,1646.28L1323.78,1657.51L1337.08,1665.46L1347.57,1659.47L1373.17,1672.2L1389.71,1674.22Z" fill-rule="evenodd" fill="#4682b4" fill-opacity="0.471"/>
<polyline points="1389.71,1674.22 1399.07,1659.66 1414.6,1660.32 1427.88,1665.08 1434.93,1672.18 1442.34,1660.79 1454.01,1667.36 1458.55,1682.16 1466.07,1696.45 1473.04,1698.14 1476.52,1707.99 1489.84,1713.17 1506.26,1724.14 1506.7,1729.99 1520.7,1735.14 1535.9,1750.17 1544.11,1763.08 1554.1,1765.58 1561.27,1775.36 1571.9,1776.49 1583.54,1793.38 1590.97,1799.08 1600.79,1793 1619.68,1791.67 1628.66,1792.82 1638.92,1805.66 1653.86,1819.28 1656.68,1839.96 1653.31,1851.77 1666.83,1860.46 1683.95,1879.88 1679.1,1885.41 1663.39,1869.56 1650.58,1862.66 1617.81,1840.87 1604.72,1835.3 1585.77,1819.48 1581.24,1809.66 1584,1799.23 1574.19,1790.42 1567.97,1794.61 1548.84,1783.73 1528.16,1778.28 1525.96,1767.05 1496.51,1752.27 1491.42,1745.15 1476.05,1737.76 1456.86,1719.15 1453.42,1711.1 1429.64,1713.74 1416.14,1717.56 1371.23,1699.73 1343.7,1692.43 1322.78,1684.57 1325.29,1673.27 1309.99,1663.53 1294.81,1664.15 1287.8,1657.47 1260.96,1646.47 1246.33,1633.99 1236.14,1637.68 1221.3,1637.81 1206.09,1632.97 1197.85,1633.48 1180.64,1624.14 1184.19,1613.3 1190.43,1610.55 1198.38,1616.8 1231.33,1615.19 1241.57,1618.25 1264.01,1620.75 1320.35,1646.28 1323.78,1657.51 1337.08,1665.46 1347.57,1659.47 1373.17,1672.2 1389.71,1674.22" fill="none" stroke="#1e1e1e" stroke-width="1.55" stroke-linecap="round" stroke-linejoin="round"/>
<path d="M1323.11,1739.57L1307.78,1730.73L1301.53,1734.41L1284.54,1724.22L1295.38,1716.89L1372.07,1736.68L1382.07,1741.5L1405.33,1747.03L1423.01,1754.87L1419.83,1763.49L1389.5,1751.77L1361.98,1749.45L1344.7,1745.16L1333.36,1738.54L1323.11,1739.57Z" fill-rule="evenodd" fill="#4682b4" fill-opacity="0.471"/>
<polyline points="1323.11,1739.57 1307.78,1730.73 1301.53,1734.41 1284.54,1724.22 1295.38,1716.89 1372.07,1736.68 1382.07,1741.5 1405.33,1747.03 1423.01,1754.87 1419.83,1763.49 1389.5,1751.77 1361.98,1749.45 1344.7,1745.16 1333.36,1738.54 1323.11,1739.57" fill="none" stroke="#1e1e1e" stroke-width="1.55" stroke-linecap="round" stroke-linejoin="round"/>
<path d="M1174.94,1660.24L1167.34,1658.93L1140.35,1673.06L1130.45,1674.91L1120.52,1670.45L1091.79,1667.86L1083.52,1662.93L1056.11,1660.3L1064.33,1647.66L1077.19,1644.92L1062.32,1634.59L1073.52,1629.6L1093,1637.2L1131.96,1645.61L1145.78,1639.68L1190.3,1638.5L1218.04,1642.79L1224.35,1648.15L1231.1,1665.22L1214.94,1668.06L1174.94,1660.24Z" fill-rule="evenodd" fill="#4682b4" fill-opacity="0.471"/>
<polyline points="1174.94,1660.24 1167.34,1658.93 1140.35,1673.06 1130.45,1674.91 1120.52,1670.45 1091.79,1667.86 1083.52,1662.93 1056.11,1660.3 1064.33,1647.66 1077.19,1644.92 1062.32,1634.59 1073.52,1629.6 1093,1637.2 1131.96,1645.61 1145.78,1639.68 1190.3,1638.5 1218.04,1642.79 1224.35,1648.15 1231.1,1665.22 1214.94,1668.06 1174.94,1660.24" fill="none" stroke="#1e1e1e" stroke-width="1.55" stroke-linecap="round" stroke-linejoin="round"/>
<path d="M1291.31,1584.85L1305.65,1572.97L1297.27,1558.64L1311.72,1557.13L1322.1,1545.29L1344.32,1559.89L1356.89,1565.58L1382.46,1582.36L1392.6,1600.7L1409.28,1636.06L1398.43,1638.48L1377.49,1650.95L1366.95,1652.45L1352.42,1651.29L1330.7,1629.48L1326.89,1614.65L1309,1606.74L1291.31,1584.85Z" fill-rule="evenodd" fill="#4682b4" fill-opacity="0.471"/>
<polyline points="1291.31,1584.85 1305.65,1572.97 1297.27,1558.64 1311.72,1557.13 1322.1,1545.29 1344.32,1559.89 1356.89,1565.58 1382.46,1582.36 1392.6,1600.7 1409.28,1636.06 1398.43,1638.48 1377.49,1650.95 1366.95,1652.45 1352.42,1651.29 1330.7,1629.48 1326.89,1614.65 1309,1606.74 1291.31,1584.85" fill="none" stroke="#1e1e1e" stroke-width="1.55" stroke-linecap="round" stroke-linejoin="round"/>
<path d="M929.53,54.02L937.01,42.77L949.11,43.7L951.91,38.29L959.06,30.19L967.75,28.85L990.38,41.94L1000.62,41.95L1007.45,50.51L1021.42,60.42L1039.74,60.4L1049.38,66.25L1060.57,68.02L1074.31,93.24L1084.9,100.87L1103.25,101.25L1119.49,115.61L1112.73,134.57L1088.14,137.38L1079.39,128.84L1070.36,129.32L1043.6,135.69L1026.46,127.6L1014.33,136.17L998.44,128.06L993.46,131.67L980.07,128.5L966.06,130.29L962.96,122.17L947.43,104.56L949.94,95.55L938.47,80.2L929.53,54.02Z" fill-rule="evenodd" fill="#4682b4" fill-opacity="0.471"/>
<polyline points="929.53,54.02 937.01,42.77 949.11,43.7 951.91,38.29 959.06,30.19 967.75,28.85 990.38,41.94 1000.62,41.95 1007.45,50.51 1021.42,60.42 1039.74,60.4 1049.38,66.25 1060.57,68.02 1074.31,93.24 1084.9,100.87 1103.25,101.25 1119.49,115.61 1112.73,134.57 1088.14,137.38 1079.39,128.84 1070.36,129.32 1043.6,135.69 1026.46,127.6 1014.33,136.17 998.44,128.06 993.46,131.67 980.07,128.5 966.06,130.29 962.96,122.17 947.43,104.56 949.94,95.55 938.47,80.2 929.53,54.02" fill="none" stroke="#1e1e1e" stroke-width="1.55" stroke-linecap="round" stroke-linejoin="round"/>
<path d="M838.78,317.79L857.05,304.38L868.97,303.09L888.78,289.21L901.62,288.81L905.05,294.68L909.02,323.54L915.92,324.92L924.01,346.13L915.5,356.47L914.81,375.4L904.15,368.15L893.16,365.4L869.5,383.77L864.48,381.94L852.73,400.81L841.33,412.46L841.59,422.83L835.49,440.37L826.93,448.42L820.32,445.67L812.25,428.94L805.65,427.54L782.14,412.93L781.26,405.71L786.07,394.48L797.05,399.08L808.37,399.62L816.02,387.05L802.54,380.19L800.81,360.34L796.81,349.49L812.9,339.7L822.42,324.89L838.78,317.79Z" fill-rule="evenodd" fill="#4682b4" fill-opacity="0.471"/>
<polyline points="838.78,317.79 857.05,304.38 868.97,303.09 888.78,289.21 901.62,288.81 905.05,294.68 909.02,323.54 915.92,324.92 924.01,346.13 915.5,356.47 914.81,375.4 904.15,368.15 893.16,365.4 869.5,383.77 864.48,381.94 852.73,400.81 841.33,412.46 841.59,422.83 835.49,440.37 826.93,448.42 820.32,445.67 812.25,428.94 805.65,427.54 782.14,412.93 781.26,405.71 786.07,394.48 797.05,399.08 808.37,399.62 816.02,387.05 802.54,380.19 800.81,360.34 796.81,349.49 812.9,339.7 822.42,324.89 838.78,317.79" fill="none" stroke="#1e1e1e" stroke-width="1.55" stroke-linecap="round" stroke-linejoin="round"/>
<text x="586.59" y="869.82" font-family="sans-serif" font-size="14" stroke="#ffffff" stroke-opacity="0.784" stroke-width="2.33" stroke-linejoin="round" paint-order="stroke" fill="#141414">Lika-Senj County</text>
<text x="881.52" y="570.08" font-family="sans-serif" font-size="14" stroke="#ffffff" stroke-opacity="0.784" stroke-width="2.33" stroke-linejoin="round" paint-order="stroke" fill="#141414">Sisak-Moslavina County</text>
<text x="990.47" y="1383.81" font-family="sans-serif" font-size="14" stroke="#ffffff" stroke-opacity="0.784" stroke-width="2.33" stroke-linejoin="round" paint-order="stroke" fill="#141414">Split-Dalmatia County</text>
<text x="1526.07" y="472.49" font-family="sans-serif" font-size="14" stroke="#ffffff" stroke-opacity="0.784" stroke-width="2.33" stroke-linejoin="round" paint-order="stroke" fill="#141414">Osijek-Baranja County</text>
<text x="609.65" y="600.71" font-family="sans-serif" font-size="14" stroke="#ffffff" stroke-opacity="0.784" stroke-width="2.33" stroke-linejoin="round" paint-order="stroke" fill="#141414">Karlovac County</text>
<text x="301.37" y="563.17" font-family="sans-serif" font-size="14" stroke="#ffffff" stroke-opacity="0.784" stroke-width="2.33" stroke-linejoin="round" paint-order="stroke" fill="#141414">Primorje-Gorski Kotar County</text>
<text x="688.12" y="1098.04" font-family="sans-serif" font-size="14" stroke="#ffffff" stroke-opacity="0.784" stroke-width="2.33" stroke-linejoin="round" paint-order="stroke" fill="#141414">Zadar County</text>
<text x="805.31" y="389.23" font-family="sans-serif" font-size="14" stroke="#ffffff" stroke-opacity="0.784" stroke-width="2.33" stroke-linejoin="round" paint-order="stroke" fill="#141414">Zagreb County</text>
<text x="123.09" y="629.96" font-family="sans-serif" font-size="14" stroke="#ffffff" stroke-opacity="0.784" stroke-width="2.33" stroke-linejoin="round" paint-order="stroke" fill="#141414">Istria County</text>
<text x="784.06" y="1231.32" font-family="sans-serif" font-size="14" stroke="#ffffff" stroke-opacity="0.784" stroke-width="2.33" stroke-linejoin="round" paint-order="stroke" fill="#141414">Šibenik-Knin County</text>
<text x="1049.52" y="399.81" font-family="sans-serif" font-size="14" stroke="#ffffff" stroke-opacity="0.784" stroke-width="2.33" stroke-linejoin="round" paint-order="stroke" fill="#141414">Bjelovar-Bilogora County</text>
<text x="1660.96" y="644.06" font-family="sans-serif" font-size="14" stroke="#ffffff" stroke-opacity="0.784" stroke-width="2.33" stroke-linejoin="round" paint-order="stroke" fill="#141414">Vukovar-Syrmia County</text>
<text x="1308.75" y="637.41" font-family="sans-serif" font-size="14" stroke="#ffffff" stroke-opacity="0.784" stroke-width="2.33" stroke-linejoin="round" paint-order="stroke" fill="#141414">Brod-Posavina County</text>
<text x="1239.07" y="547.96" font-family="sans-serif" font-size="14" stroke="#ffffff" stroke-opacity="0.784" stroke-width="2.33" stroke-linejoin="round" paint-order="stroke" fill="#141414">Požega-Slavonia County</text>
<text x="986.1" y="239.76" font-family="sans-serif" font-size="14" stroke="#ffffff" stroke-opacity="0.784" stroke-width="2.33" stroke-linejoin="round" paint-order="stroke" fill="#141414">Koprivnica-Križevci County</text>
<text x="1324.88" y="1727.77" font-family="sans-serif" font-size="14" stroke="#ffffff" stroke-opacity="0.784" stroke-width="2.33" stroke-linejoin="round" paint-order="stroke" fill="#141414">Dubrovnik-Neretva County</text>
<text x="875.44" y="171.11" font-family="sans-serif" font-size="14" stroke="#ffffff" stroke-opacity="0.784" stroke-width="2.33" stroke-linejoin="round" paint-order="stroke" fill="#141414">Varaždin County</text>
<text x="722.54" y="238.71" font-family="sans-serif" font-size="14" stroke="#ffffff" stroke-opacity="0.784" stroke-width="2.33" stroke-linejoin="round" paint-order="stroke" fill="#141414">Krapina-Zagorje County</text>
<text x="931.9" y="98.17" font-family="sans-serif" font-size="14" stroke="#ffffff" stroke-opacity="0.784" stroke-width="2.33" stroke-linejoin="round" paint-order="stroke" fill="#141414">Međimurje County</text>
</svg>
