<?xml version="1.0" encoding="UTF-8" standalone="no"?>
<svg xmlns="http://www.w3.org/2000/svg" width="2000" height="1124" viewBox="0 0 2000 1124">
<rect width="2000" height="1124" fill="#ffffff"/>
<path d="M336.53,1083.41L333.13,1082.35L325.52,1077.12L320.42,1076.04L318.71,1077.06L314.48,1074.96L305.99,1072.82L295.85,1064.47L289.95,1058.21L278.94,1052.95L276.38,1053.96L273,1051.86L267.94,1046.65L264.54,1046.62L257.79,1041.39L251.82,1042.37L247.6,1039.23L244.2,1039.2L237.38,1041.21L234.84,1040.15L233.17,1037.03L224.71,1031.79L222.16,1031.76L219.62,1030.71L216.22,1030.67L212.79,1033.74L211.1,1032.69L205.97,1035.75L200.94,1028.46L195.85,1027.38L194.99,1028.41L192.46,1026.31L192.48,1024.25L188.28,1019.03L184.89,1017.97L180.7,1011.72L173.93,1008.55L171.41,1005.43L164.66,1001.22L155.3,1002.17L156.18,999.07L152.8,996.97L151.12,994.88L148.58,993.82L146.07,990.7L146.09,988.63L142.74,983.42L138.51,981.31L127.46,982.23L129.23,975.01L132.68,969.88L128.53,960.53L129.44,954.33L127.79,950.18L125.29,944.98L121.05,944.94L121.94,940.81L121.11,938.73L122.83,936.68L121.15,935.63L122.16,920.13L120.48,918.04L120.54,911.84L118,911.81L115.48,908.69L118.89,907.69L118.08,903.54L119.79,902.53L117.35,892.16L115.67,891.11L114,887.99L110.64,884.85L107.26,883.78L103.86,883.74L101.3,885.78L100.48,882.67L103.04,881.67L102.22,878.56L96.3,876.42L94.63,874.34L89.55,873.25L89.52,876.35L85.27,876.3L82.75,874.21L81.08,872.12L80.29,865.91L77.78,862.78L78.68,858.65L76.98,858.63L75.33,854.48L71.94,854.44L70.32,847.19L68.63,846.13L66.97,843.01L63.6,840.91L62.81,835.73L59.44,833.62L57.79,829.47L60.37,826.39L61.25,823.3L64.68,820.24L66.47,811.98L64.86,803.69L64.04,801.61L61.51,800.55L58.24,789.14L54.87,787.03L55.77,782.91L53.26,779.78L45.64,778.66L46.53,775.56L45.71,772.45L47.46,768.34L48.27,771.45L50.81,771.48L54.24,768.41L55.98,764.3L52.65,759.09L51.84,754.94L54.4,753.94L54.44,749.8L56.19,745.68L54.55,740.49L55.49,732.23L54.69,728.09L53.01,727.03L52.23,720.82L48.83,721.82L47.18,717.66L42.16,712.43L42.18,710.36L37.97,708.25L37.16,705.14L35.47,705.12L32.18,696.81L27.99,692.62L28.01,690.55L24.65,688.45L23.83,686.37L26.4,683.3L23.03,682.22L23.9,680.16L22.22,679.11L21.46,671.86L22.33,669.8L20.69,664.62L20.73,661.51L19.9,660.47L19.12,654.26L21.72,649.12L21.77,644.98L23.47,643.96L22.75,633.61L26.18,629.52L27.09,624.36L29.63,623.35L31.35,621.3L30.53,619.23L33.09,617.19L35.62,618.25L35.59,620.32L39.8,622.44L43.11,628.68L48.99,632.88L46.43,634.92L48.93,638.05L48.91,640.12L51.42,642.22L53.12,641.2L56.46,645.38L59.84,646.45L60.66,648.52L64.86,651.67L64.83,653.74L69.9,654.83L74.1,657.98L74.07,660.05L79.12,663.21L80.79,665.29L84.17,665.33L85.82,669.48L91.71,672.65L92.51,676.8L98.41,679.96L106.01,681.08L109.38,683.18L111.05,685.27L127.14,685.43L129.66,686.49L135.59,686.56L148.34,681.51L153.42,681.57L165.34,674.45L167.04,674.46L180.67,665.29L187.51,658.12L190.91,657.12L193.47,655.07L204.6,641.73L220.92,615L221.81,610.87L231.28,592.34L231.34,586.14L233.04,585.12L235.62,579.98L239.01,578.97L239.02,577.94L245.81,574.9L246.69,571.8L248.39,570.78L250.96,566.67L250.12,565.63L252.68,563.58L257.02,550.18L260.42,548.14L262.1,549.19L263.77,552.31L265.46,552.32L266.29,553.36L269.67,554.43L279.83,552.44L284.92,550.42L289.16,548.39L290.88,545.3L298.49,544.33L301.86,546.43L304.4,545.41L306.12,542.32L309.49,543.39L312.9,539.28L312.93,536.18L314.63,534.12L318.88,532.09L319.74,530.03L322.27,531.08L324.78,534.2L327.32,533.19L329,534.24L335.79,530.15L341.73,528.13L345.11,528.16L345.1,529.19L347.62,530.25L348.48,529.22L351.86,529.25L352.69,531.32L356.07,531.35L358.62,529.3L360.28,533.45L362.8,535.53L384.73,540.87L386.43,539.85L391.5,539.88L396.56,540.95L397.4,541.99L400.77,543.05L400.77,544.09L409.21,545.18L411.75,545.2L412.6,544.17L415.98,544.19L419.34,546.28L419.32,549.39L433.65,555.69L434.49,556.73L443.76,560.93L457.27,564.12L458.09,567.23L459.77,568.27L463.12,573.46L467.34,574.52L469.87,576.61L481.69,578.75L485.04,583.94L488.42,583.96L490.11,585L497.73,584.02L501.11,583L509.6,577.88L513.83,577.91L524.03,567.62L528.27,565.58L531.65,565.6L538.43,563.57L552.02,550.2L555.43,545.05L563.12,528.54L572.55,502.74L578.57,482.09L583.75,459.36L588.14,424.23L586.49,416.98L587.35,412.85L585.69,408.7L585.71,403.53L584.05,398.35L584.16,375.6L582.5,371.46L579.13,370.41L576.61,368.33L573.28,360.04L574.18,347.63L572.52,343.49L573.38,340.39L571.74,330.04L574.29,326.95L571.78,322.8L571.8,319.7L573.51,314.54L576.86,317.66L586.96,321.85L589.48,323.93L592.01,323.94L597.05,327.06L608.84,329.19L612.2,331.27L612.19,333.34L622.27,341.66L626.48,343.75L629,346.86L628.99,347.89L632.35,349.98L634.88,351.02L642.47,351.05L645.84,352.1L661.01,353.2L664.39,351.15L666.91,353.22L669.44,353.23L671.96,356.35L676.17,357.4L677.01,359.47L679.53,361.55L683.75,361.56L693.01,364.7L697.23,364.71L700.6,365.76L703.13,364.73L704.82,365.77L709.88,365.79L713.25,366.84L720.84,365.83L723.38,363.77L726.75,362.75L728.45,359.65L729.3,359.65L730.99,357.59L734.38,351.4L737.74,355.54L743.64,356.6L751.23,355.58L751.23,357.65L766.39,362.87L769.76,365.98L774.82,365.99L783.24,369.12L784.09,368.08L790.83,370.17L793.36,370.18L794.21,368.11L800.12,366.06L805.19,360.9L808.56,362.97L811.09,361.94L813.62,364.02L817.83,365.06L818.68,363L821.21,363L822.89,366.11L826.26,367.15L827.1,369.22L829.63,368.19L833,371.3L836.37,372.34L838.05,374.41L840.59,374.41L843.11,375.45L849.02,375.46L854.08,373.41L854.93,370.3L858.3,370.31L865.05,372.39L866.73,374.46L870.1,375.5L873.48,375.5L878.54,372.41L878.54,373.44L881.07,372.41L885.29,373.45L887.82,375.53L892.88,376.57L893.72,378.64L899.62,379.68L903,378.65L904.68,379.68L908.9,377.62L908.9,378.65L911.43,378.66L912.27,380.72L918.18,377.63L921.55,382.8L924.08,382.8L932.51,385.91L935.89,384.88L940.11,385.92L942.64,384.89L946.01,384.89L948.54,386.96L951.07,386.96L955.29,385.93L955.29,382.83L957.82,382.83L962.04,385.93L965.41,384.9L967.1,385.93L973.01,386.97L983.13,388.01L985.66,384.91L989.88,389.04L1002.53,389.04L1005.91,388.01L1005.9,384.91L1008.44,384.91L1013.5,386.97L1015.18,384.91L1018.56,383.87L1021.93,385.94L1024.46,385.94L1026.15,383.87L1031.21,386.97L1033.74,385.93L1034.59,388L1039.65,388L1044.71,389.03L1048.09,388L1050.61,385.93L1054.83,385.92L1057.36,383.85L1062.42,383.85L1064.11,382.81L1073.39,381.77L1075.07,379.7L1089.41,374.52L1094.47,376.58L1099.53,374.51L1106.28,374.5L1110.49,373.46L1114.71,374.49L1119.77,372.41L1123.14,372.41L1130.73,370.33L1137.47,366.18L1140,367.21L1143.37,365.14L1143.37,364.1L1145.9,363.06L1147.59,364.1L1150.96,363.06L1155.18,365.12L1160.24,365.11L1164.45,363.03L1176.26,360.94L1176.26,361.97L1179.64,364.03L1183,361.96L1191.44,360.9L1193.11,356.76L1194.8,355.73L1198.17,356.75L1200.7,355.71L1204.07,355.7L1206.6,352.6L1208.29,354.66L1211.65,351.55L1211.65,350.52L1217.55,349.47L1218.39,347.4L1221.75,344.29L1224.28,344.28L1229.33,341.16L1231.01,337.02L1232.69,337.02L1235.22,334.94L1236.05,330.8L1244.47,329.74L1248.68,326.63L1251.2,322.49L1252.89,324.55L1255.41,322.47L1257.93,318.33L1261.29,316.25L1263.82,316.24L1266.34,314.17L1273.08,311.04L1273.91,308.97L1276.44,308.96L1277.29,310L1278.97,307.92L1279.81,308.95L1283.18,308.94L1286.55,306.86L1288.23,306.86L1289.91,303.75L1290.75,304.78L1306.77,305.76L1307.62,306.79L1310.14,304.71L1312.67,304.7L1312.67,305.73L1313.51,305.73L1316.03,302.62L1317.72,302.61L1317.72,303.65L1319.41,304.67L1321.94,304.67L1322.78,303.63L1326.99,304.65L1327,305.68L1331.21,305.66L1332.05,304.63L1333.74,305.65L1337.95,305.64L1337.96,306.67L1343.01,305.62L1343.01,304.58L1355.65,304.53L1364.9,301.39L1367.43,301.38L1369.11,299.3L1380.05,297.18L1380.89,295.11L1385.93,291.99L1387.62,293.01L1388.45,289.91L1394.35,289.88L1396.88,291.93L1399.4,288.82L1404.45,287.76L1405.29,288.79L1406.98,288.78L1409.49,285.67L1413.71,285.65L1414.54,284.61L1414.53,281.51L1417.89,280.46L1422.96,282.5L1428.85,281.44L1428.84,279.37L1431.36,277.29L1437.25,277.26L1438.08,274.15L1440.6,273.1L1441.43,271.03L1443.97,272.05L1446.49,271L1453.24,273.04L1455.75,269.92L1462.49,269.88L1463.32,267.81L1466.67,264.69L1470.04,263.64L1471.7,260.52L1475.07,260.51L1475.91,259.47L1480.96,258.4L1486.85,258.37L1489.37,257.32L1489.37,256.29L1491.88,254.2L1493.57,254.19L1496.08,251.08L1505.3,244.82L1506.99,245.84L1510.36,245.82L1511.18,242.71L1516.24,243.72L1522.12,240.58L1522.94,237.47L1526.28,232.28L1527.98,234.34L1529.66,234.33L1533.01,232.24L1533,230.17L1535.53,230.15L1538.04,228.07L1540.57,228.05L1541.39,225.98L1543.91,224.93L1544.73,220.79L1547.25,219.74L1548.92,217.66L1550.62,219.71L1553.13,218.66L1556.51,219.67L1558.19,218.63L1563.24,218.6L1570.78,213.37L1580.03,212.28L1580.03,211.24L1583.39,210.18L1590.08,204.97L1596.74,193.54L1598.41,192.5L1600.05,186.28L1602.56,184.2L1605.93,184.17L1605.07,182.11L1608.42,180.02L1611.73,171.72L1621.79,167.51L1625.13,163.35L1626.76,156.1L1626.73,151.96L1628.4,150.91L1629.23,148.84L1633.42,147.77L1636.8,148.78L1637.65,150.84L1641.88,152.88L1641.88,153.91L1646.93,153.88L1648.62,154.9L1655.34,152.78L1656.99,148.63L1659.52,149.64L1657.86,152.76L1661.24,154.8L1664.6,153.74L1664.58,151.67L1667.09,149.58L1667.11,152.68L1668.8,153.7L1673.85,153.66L1676.37,152.61L1676.35,150.54L1679.72,151.55L1683.08,150.49L1683.06,148.42L1685.59,148.4L1685.57,146.33L1687.24,145.28L1688.9,142.16L1690.59,143.19L1690.56,139.05L1698.98,140.01L1702.33,138.95L1703.16,136.88L1705.66,134.79L1706.52,136.85L1713.21,132.65L1716.55,129.52L1715.74,132.63L1718.27,133.64L1721.62,132.58L1723.31,133.6L1725.84,133.58L1735.03,126.26L1740.02,120.01L1744.23,121.01L1747.56,116.84L1752.58,114.73L1753.41,112.65L1753.36,107.48L1757.54,105.38L1760.09,108.46L1764.28,106.35L1768.43,100.11L1771.76,96.97L1773.34,85.58L1774.17,84.54L1780.04,83.45L1780.02,81.38L1785.07,81.34L1786.74,80.29L1789.28,82.33L1797.6,72.95L1800.12,72.92L1803.46,70.82L1810.18,70.76L1813.52,68.66L1814.39,71.75L1817.77,72.75L1823.64,71.66L1827.8,67.48L1827.78,65.41L1834.48,63.28L1834.45,60.18L1838.65,60.13L1841.14,57.01L1840.29,55.98L1850.31,49.68L1853.67,49.64L1855.36,50.66L1857.03,49.61L1860.4,50.61L1862.91,49.55L1865.48,53.66L1877.2,49.4L1881.37,46.25L1884.72,45.18L1888.93,46.17L1890.6,45.12L1892.29,46.14L1899.79,40.88L1900.61,38.81L1904.78,35.66L1903.93,34.63L1904.74,32.56L1903.04,30.51L1904.7,28.42L1909.73,27.33L1910.62,32.49L1912.33,34.54L1915.69,34.51L1921.54,32.37L1926.55,29.22L1927.36,26.1L1931.57,27.09L1932.38,25.01L1936.54,20.83L1938.16,15.64L1945.68,12.45L1957.42,10.25L1964.98,10.17L1968.31,8.06L1973.35,8L1973.37,10.07L1969.23,15.29L1967.57,16.34L1966.76,19.45L1965.11,21.54L1965.98,24.63L1966.05,30.84L1961.89,33.99L1962.75,36.05L1961.1,38.13L1961.99,42.26L1964.55,46.37L1963.75,49.48L1960.42,52.62L1959.62,55.73L1957.11,56.79L1956.29,58.87L1953.8,60.97L1953.83,64.07L1948.78,63.09L1944.59,64.18L1931.99,65.35L1929.48,66.41L1925.33,70.6L1916.08,70.7L1906.07,77.01L1906.09,79.08L1901.89,79.13L1899.38,80.19L1899.4,82.25L1896.9,84.35L1889.36,86.5L1887.66,85.48L1880.96,87.62L1866.75,95.01L1855.06,103.4L1853.37,102.39L1853.39,104.45L1847.53,106.58L1845.06,111.78L1843.36,110.76L1838.36,114.95L1836.74,121.17L1838.44,123.22L1831.75,126.39L1830.1,129.51L1829.32,135.72L1830.19,138.81L1828.52,139.86L1828.55,142.97L1826.03,144.03L1825.23,148.17L1826.93,149.19L1825.27,152.31L1820.25,154.42L1817.71,153.41L1815.21,155.51L1815.23,157.58L1811.03,158.65L1806.86,161.79L1804.39,168.02L1799.36,170.14L1790.96,171.25L1782.58,175.47L1780.08,177.56L1780.11,180.66L1774.24,182.78L1771.73,184.88L1770.92,187.99L1767.55,188.02L1765.88,189.07L1764.23,193.22L1761.71,193.24L1760.05,196.36L1757.53,196.38L1751.71,204.71L1750.03,204.72L1749.21,207.83L1745.03,210.97L1745.06,214.07L1741.71,216.17L1732.52,224.52L1729.99,223.51L1725.81,227.69L1725.83,229.75L1720.8,232.9L1710.72,235.05L1681.35,247.71L1677.15,249.81L1677.16,250.84L1667.11,258.16L1660.39,260.28L1647.8,266.59L1643.59,266.62L1639.4,269.75L1636.04,270.81L1635.21,272.89L1632.69,272.91L1612.58,288.57L1599.99,295.9L1594.97,300.07L1591.63,305.26L1589.12,307.35L1579.1,320.86L1574.06,324L1566.53,332.32L1565.7,334.4L1562.34,335.45L1559.85,341.68L1558.17,342.72L1557.35,345.83L1551.47,348.97L1549.8,352.08L1549,359.33L1549.86,361.39L1548.18,362.43L1544.87,372.8L1545.75,377.96L1544.09,382.11L1544.1,384.18L1535.72,392.5L1531.5,391.5L1526.45,393.6L1523.93,395.68L1519.7,393.64L1512.11,394.72L1507.06,396.82L1496.94,397.91L1492.74,400.01L1490.2,398.99L1486.81,395.9L1482.58,394.89L1480.88,392.84L1475.82,392.86L1469.1,397.04L1468.25,396.01L1461.49,395.01L1446.36,404.4L1437.96,411.68L1430.41,422.06L1427.08,429.32L1422.92,441.75L1419.55,443.84L1415.35,447.99L1411.18,458.35L1408.67,462.5L1404.46,464.59L1401.13,474.95L1401.99,478.05L1401.16,482.19L1401.2,490.46L1402.11,503.9L1399.6,508.05L1398.78,513.22L1399.64,516.32L1398.81,519.42L1399.67,523.56L1398.84,527.7L1407.41,550.41L1406.59,556.61L1409.16,562.81L1411.71,565.9L1416.79,567.94L1424.47,582.38L1425.34,586.51L1431.3,594.75L1432.99,593.71L1439.8,604.01L1448.27,605L1448.29,609.14L1449.14,610.17L1448.31,613.28L1450.88,619.47L1469.65,647.28L1473.91,652.43L1479.01,656.54L1482.4,656.52L1484.09,657.54L1483.26,659.62L1486.65,660.63L1493.48,670.93L1495.18,670.92L1497.73,674.01L1501.97,673.98L1505.37,677.07L1507.08,680.16L1510.48,682.21L1513.9,687.36L1513.06,689.43L1520.73,696.62L1522.45,700.75L1524.99,701.76L1528.41,705.88L1527.58,708.99L1530.15,714.14L1535.26,718.24L1538.64,717.19L1539.51,720.29L1536.97,721.34L1536.99,723.4L1538.69,724.43L1538.71,728.56L1542.12,730.61L1541.27,730.62L1542.14,733.71L1544.68,734.73L1549.81,740.9L1551.53,745.03L1546.45,746.09L1543.08,748.18L1546.51,755.4L1549.9,755.38L1549.1,762.62L1550.82,765.71L1552.51,765.7L1555.07,767.75L1557.59,765.67L1558.48,771.87L1556.82,776.01L1552.57,775.01L1553.38,768.8L1549.13,767.79L1544.06,768.86L1542.39,773.01L1533.87,765.82L1525.36,760.7L1523.67,760.72L1519.42,758.67L1513.49,758.71L1500.74,752.58L1499.87,749.48L1498.17,748.46L1492.24,747.46L1488.85,748.52L1486.32,750.6L1475.29,746.52L1467.67,747.6L1464.27,745.55L1457.48,743.52L1457.48,744.56L1453.26,746.65L1450.71,744.59L1449.01,744.6L1448.18,747.71L1446.5,749.78L1446.5,750.82L1448.2,750.81L1444.81,751.86L1444.8,749.79L1441.41,749.81L1431.27,754L1428.72,752.98L1410.11,758.24L1405.87,758.26L1400.81,762.42L1401.67,765.52L1400.83,766.56L1371.13,757.39L1355.9,762.62L1348.26,761.62L1344.02,758.54L1344.85,755.43L1354.14,747.12L1364.28,740.87L1365.07,729.49L1359.13,725.38L1348.96,725.43L1339.6,714.09L1340.4,702.71L1328.49,689.32L1309.83,680.08L1313.19,671.8L1330.92,659.32L1335.99,659.3L1338.54,660.32L1345.34,667.53L1349.58,669.58L1363.09,663.32L1368.15,659.16L1372.36,652.94L1380.81,649.8L1385.89,650.81L1391.84,656.99L1396.08,659.04L1401.14,653.84L1401.13,651.77L1408.73,648.64L1413.77,641.37L1408.67,637.26L1404.41,630.04L1401.03,632.13L1399.34,631.1L1399.3,623.86L1397.6,621.8L1394.18,613.55L1387.4,611.51L1385.67,603.25L1376.37,603.29L1373.04,616.75L1371.4,627.09L1373.11,631.22L1372.27,633.29L1375.69,641.55L1376.56,646.72L1372.34,648.8L1367.29,656.07L1365.6,656.07L1362.24,661.26L1357.17,664.38L1349.57,667.52L1343.63,664.44L1340.23,660.32L1336.84,658.26L1330.9,656.22L1330.07,658.29L1312.33,669.73L1308.14,680.09L1305.61,682.16L1298.84,684.26L1292.06,681.18L1284.48,691.54L1267.5,678.16L1264.96,677.13L1262.41,674.04L1245.52,687.53L1240.44,689.61L1240.45,692.72L1235.37,692.73L1233.67,690.67L1236.21,688.59L1237.05,685.49L1232.81,683.43L1232.8,681.36L1237.88,681.35L1239.56,677.21L1239.55,672.04L1244.59,659.61L1241.19,655.49L1235.26,653.44L1224.29,663.81L1221.75,663.81L1215.84,670.03L1212.46,672.11L1209.07,672.12L1208.25,681.43L1211.66,690.73L1215.05,692.78L1216.75,694.85L1229.47,699.99L1227.81,714.47L1242.25,727.87L1242.26,730.97L1236.35,738.23L1235.51,740.3L1235.54,752.71L1230.46,754.79L1224.53,755.84L1209.3,762.08L1194.07,774.53L1188.16,782.81L1180.57,801.44L1182.27,802.47L1179.74,807.65L1180.59,810.75L1180.61,816.95L1178.08,825.23L1178.96,842.81L1175.61,859.36L1178.16,864.53L1179.87,870.73L1167.17,885.23L1166.33,889.37L1159.55,893.52L1152.78,902.84L1149.41,915.25L1150.26,919.39L1147.72,922.49L1145.17,922.5L1139.23,919.41L1130.73,917.35L1124.79,918.4L1106.97,918.42L1095.94,924.64L1090,931.88L1090,933.95L1083.21,938.09L1081.52,941.2L1077.27,942.24L1076.43,945.34L1069.64,949.48L1063.69,950.52L1062,951.56L1059.45,955.69L1056.91,962.93L1036.52,963.98L1034.83,966.05L1024.63,967.09L1016.14,970.19L1015.29,972.26L1000.85,976.4L997.45,978.46L993.2,982.6L988.95,989.84L986.41,990.87L979.61,990.87L971.11,993.97L964.31,998.1L957.51,1004.31L952.41,1006.37L950.71,1010.51L941.36,1009.47L936.26,1010.5L931.16,1010.49L926.06,1012.56L915,1021.85L911.6,1022.88L908.2,1022.88L907.35,1023.91L896.3,1020.8L897.16,1018.73L893.76,1017.69L891.21,1019.76L887.81,1018.72L886.96,1016.65L882.71,1016.64L880.16,1018.71L874.21,1020.77L874.2,1021.8L869.1,1024.9L869.09,1028L866.54,1031.1L867.39,1033.17L858.88,1036.26L854.63,1036.25L852.08,1037.28L842.73,1037.26L836.78,1035.18L833.38,1036.21L829.13,1035.17L826.58,1036.2L816.37,1036.17L808.73,1035.12L805.32,1036.15L801.92,1036.14L800.23,1035.1L777.28,1030.91L774.74,1029.87L762.84,1028.8L755.18,1032.92L737.31,1035.97L736.46,1037L732.21,1038.02L716.03,1045.2L710.91,1049.32L693.89,1054.43L682.81,1061.63L673.42,1071.94L672.55,1075.04L667.46,1072.95L663.19,1076.03L659.78,1080.16L657.22,1081.18L655.51,1084.28L656.32,1092.55L653.79,1087.37L650.39,1088.39L649.5,1095.63L641.85,1095.59L641.84,1098.7L652.04,1098.74L652.04,1099.77L638.43,1099.72L638.43,1098.68L633.32,1100.73L618.85,1101.7L612.88,1104.77L609.48,1104.76L607.75,1109.92L600.92,1115.06L596.71,1106.77L597.57,1104.7L596.73,1102.63L598.44,1100.57L595.9,1096.42L595.92,1093.32L593.38,1091.24L591.71,1083.99L595.99,1078.84L596.84,1078.85L611.28,1082.02L612.97,1086.16L616.35,1089.28L618.9,1090.32L627.42,1088.29L627.45,1082.09L624.92,1075.87L624.95,1068.63L628.39,1061.41L611.38,1060.3L606.29,1058.21L597.79,1058.17L590.96,1063.31L588.37,1071.57L582.41,1072.57L581.53,1077.74L578.13,1078.75L574.74,1075.64L577.31,1071.51L568.82,1068.37L567.12,1069.39L563.72,1068.34L562.01,1070.4L557.71,1079.68L555.16,1078.64L551.76,1078.62L518.73,1053.62L518.79,1043.28L517.14,1035L489.08,1034.83L483.93,1044.11L472.85,1047.14L466.01,1054.34L460.85,1062.58L442.14,1062.46L437.92,1058.29L432.82,1058.26L432.77,1065.5L428.34,1091.32L420.67,1093.34L418.95,1096.43L414.71,1094.33L400.26,1092.16L396.84,1094.2L395.13,1096.26L395.1,1100.4L385.73,1101.36L383.17,1102.38L362.85,1089.82L344.15,1087.61L336.53,1083.41Z" fill-rule="evenodd" fill="#4682b4" fill-opacity="0.471"/>
<polyline points="336.53,1083.41 333.13,1082.35 325.52,1077.12 320.42,1076.04 318.71,1077.06 314.48,1074.96 305.99,1072.82 295.85,1064.47 289.95,1058.21 278.94,1052.95 276.38,1053.96 273,1051.86 267.94,1046.65 264.54,1046.62 257.79,1041.39 251.82,1042.37 247.6,1039.23 244.2,1039.2 237.38,1041.21 234.84,1040.15 233.17,1037.03 224.71,1031.79 222.16,1031.76 219.62,1030.71 216.22,1030.67 212.79,1033.74 211.1,1032.69 205.97,1035.75 200.94,1028.46 195.85,1027.38 194.99,1028.41 192.46,1026.31 192.48,1024.25 188.28,1019.03 184.89,1017.97 180.7,1011.72 173.93,1008.55 171.41,1005.43 164.66,1001.22 155.3,1002.17 156.18,999.07 152.8,996.97 151.12,994.88 148.58,993.82 146.07,990.7 146.09,988.63 142.74,983.42 138.51,981.31 127.46,982.23 129.23,975.01 132.68,969.88 128.53,960.53 129.44,954.33 127.79,950.18 125.29,944.98 121.05,944.94 121.94,940.81 121.11,938.73 122.83,936.68 121.15,935.63 122.16,920.13 120.48,918.04 120.54,911.84 118,911.81 115.48,908.69 118.89,907.69 118.08,903.54 119.79,902.53 117.35,892.16 115.67,891.11 114,887.99 110.64,884.85 107.26,883.78 103.86,883.74 101.3,885.78 100.48,882.67 103.04,881.67 102.22,878.56 96.3,876.42 94.63,874.34 89.55,873.25 89.52,876.35 85.27,876.3 82.75,874.21 81.08,872.12 80.29,865.91 77.78,862.78 78.68,858.65 76.98,858.63 75.33,854.48 71.94,854.44 70.32,847.19 68.63,846.13 66.97,843.01 63.6,840.91 62.81,835.73 59.44,833.62 57.79,829.47 60.37,826.39 61.25,823.3 64.68,820.24 66.47,811.98 64.86,803.69 64.04,801.61 61.51,800.55 58.24,789.14 54.87,787.03 55.77,782.91 53.26,779.78 45.64,778.66 46.53,775.56 45.71,772.45 47.46,768.34 48.27,771.45 50.81,771.48 54.24,768.41 55.98,764.3 52.65,759.09 51.84,754.94 54.4,753.94 54.44,749.8 56.19,745.68 54.55,740.49 55.49,732.23 54.69,728.09 53.01,727.03 52.23,720.82 48.83,721.82 47.18,717.66 42.16,712.43 42.18,710.36 37.97,708.25 37.16,705.14 35.47,705.12 32.18,696.81 27.99,692.62 28.01,690.55 24.65,688.45 23.83,686.37 26.4,683.3 23.03,682.22 23.9,680.16 22.22,679.11 21.46,671.86 22.33,669.8 20.69,664.62 20.73,661.51 19.9,660.47 19.12,654.26 21.72,649.12 21.77,644.98 23.47,643.96 22.75,633.61 26.18,629.52 27.09,624.36 29.63,623.35 31.35,621.3 30.53,619.23 33.09,617.19 35.62,618.25 35.59,620.32 39.8,622.44 43.11,628.68 48.99,632.88 46.43,634.92 48.93,638.05 48.91,640.12 51.42,642.22 53.12,641.2 56.46,645.38 59.84,646.45 60.66,648.52 64.86,651.67 64.83,653.74 69.9,654.83 74.1,657.98 74.07,660.05 79.12,663.21 80.79,665.29 84.17,665.33 85.82,669.48 91.71,672.65 92.51,676.8 98.41,679.96 106.01,681.08 109.38,683.18 111.05,685.27 127.14,685.43 129.66,686.49 135.59,686.56 148.34,681.51 153.42,681.57 165.34,674.45 167.04,674.46 180.67,665.29 187.51,658.12 190.91,657.12 193.47,655.07 204.6,641.73 220.92,615 221.81,610.87 231.28,592.34 231.34,586.14 233.04,585.12 235.62,579.98 239.01,578.97 239.02,577.94 245.81,574.9 246.69,571.8 248.39,570.78 250.96,566.67 250.12,565.63 252.68,563.58 257.02,550.18 260.42,548.14 262.1,549.19 263.77,552.31 265.46,552.32 266.29,553.36 269.67,554.43 279.83,552.44 284.92,550.42 289.16,548.39 290.88,545.3 298.49,544.33 301.86,546.43 304.4,545.41 306.12,542.32 309.49,543.39 312.9,539.28 312.93,536.18 314.63,534.12 318.88,532.09 319.74,530.03 322.27,531.08 324.78,534.2 327.32,533.19 329,534.24 335.79,530.15 341.73,528.13 345.11,528.16 345.1,529.19 347.62,530.25 348.48,529.22 351.86,529.25 352.69,531.32 356.07,531.35 358.62,529.3 360.28,533.45 362.8,535.53 384.73,540.87 386.43,539.85 391.5,539.88 396.56,540.95 397.4,541.99 400.77,543.05 400.77,544.09 409.21,545.18 411.75,545.2 412.6,544.17 415.98,544.19 419.34,546.28 419.32,549.39 433.65,555.69 434.49,556.73 443.76,560.93 457.27,564.12 458.09,567.23 459.77,568.27 463.12,573.46 467.34,574.52 469.87,576.61 481.69,578.75 485.04,583.94 488.42,583.96 490.11,585 497.73,584.02 501.11,583 509.6,577.88 513.83,577.91 524.03,567.62 528.27,565.58 531.65,565.6 538.43,563.57 552.02,550.2 555.43,545.05 563.12,528.54 572.55,502.74 578.57,482.09 583.75,459.36 588.14,424.23 586.49,416.98 587.35,412.85 585.69,408.7 585.71,403.53 584.05,398.35 584.16,375.6 582.5,371.46 579.13,370.41 576.61,368.33 573.28,360.04 574.18,347.63 572.52,343.49 573.38,340.39 571.74,330.04 574.29,326.95 571.78,322.8 571.8,319.7 573.51,314.54 576.86,317.66 586.96,321.85 589.48,323.93 592.01,323.94 597.05,327.06 608.84,329.19 612.2,331.27 612.19,333.34 622.27,341.66 626.48,343.75 629,346.86 628.99,347.89 632.35,349.98 634.88,351.02 642.47,351.05 645.84,352.1 661.01,353.2 664.39,351.15 666.91,353.22 669.44,353.23 671.96,356.35 676.17,357.4 677.01,359.47 679.53,361.55 683.75,361.56 693.01,364.7 697.23,364.71 700.6,365.76 703.13,364.73 704.82,365.77 709.88,365.79 713.25,366.84 720.84,365.83 723.38,363.77 726.75,362.75 728.45,359.65 729.3,359.65 730.99,357.59 734.38,351.4 737.74,355.54 743.64,356.6 751.23,355.58 751.23,357.65 766.39,362.87 769.76,365.98 774.82,365.99 783.24,369.12 784.09,368.08 790.83,370.17 793.36,370.18 794.21,368.11 800.12,366.06 805.19,360.9 808.56,362.97 811.09,361.94 813.62,364.02 817.83,365.06 818.68,363 821.21,363 822.89,366.11 826.26,367.15 827.1,369.22 829.63,368.19 833,371.3 836.37,372.34 838.05,374.41 840.59,374.41 843.11,375.45 849.02,375.46 854.08,373.41 854.93,370.3 858.3,370.31 865.05,372.39 866.73,374.46 870.1,375.5 873.48,375.5 878.54,372.41 878.54,373.44 881.07,372.41 885.29,373.45 887.82,375.53 892.88,376.57 893.72,378.64 899.62,379.68 903,378.65 904.68,379.68 908.9,377.62 908.9,378.65 911.43,378.66 912.27,380.72 918.18,377.63 921.55,382.8 924.08,382.8 932.51,385.91 935.89,384.88 940.11,385.92 942.64,384.89 946.01,384.89 948.54,386.96 951.07,386.96 955.29,385.93 955.29,382.83 957.82,382.83 962.04,385.93 965.41,384.9 967.1,385.93 973.01,386.97 983.13,388.01 985.66,384.91 989.88,389.04 1002.53,389.04 1005.91,388.01 1005.9,384.91 1008.44,384.91 1013.5,386.97 1015.18,384.91 1018.56,383.87 1021.93,385.94 1024.46,385.94 1026.15,383.87 1031.21,386.97 1033.74,385.93 1034.59,388 1039.65,388 1044.71,389.03 1048.09,388 1050.61,385.93 1054.83,385.92 1057.36,383.85 1062.42,383.85 1064.11,382.81 1073.39,381.77 1075.07,379.7 1089.41,374.52 1094.47,376.58 1099.53,374.51 1106.28,374.5 1110.49,373.46 1114.71,374.49 1119.77,372.41 1123.14,372.41 1130.73,370.33 1137.47,366.18 1140,367.21 1143.37,365.14 1143.37,364.1 1145.9,363.06 1147.59,364.1 1150.96,363.06 1155.18,365.12 1160.24,365.11 1164.45,363.03 1176.26,360.94 1176.26,361.97 1179.64,364.03 1183,361.96 1191.44,360.9 1193.11,356.76 1194.8,355.73 1198.17,356.75 1200.7,355.71 1204.07,355.7 1206.6,352.6 1208.29,354.66 1211.65,351.55 1211.65,350.52 1217.55,349.47 1218.39,347.4 1221.75,344.29 1224.28,344.28 1229.33,341.16 1231.01,337.02 1232.69,337.02 1235.22,334.94 1236.05,330.8 1244.47,329.74 1248.68,326.63 1251.2,322.49 1252.89,324.55 1255.41,322.47 1257.93,318.33 1261.29,316.25 1263.82,316.24 1266.34,314.17 1273.08,311.04 1273.91,308.97 1276.44,308.96 1277.29,310 1278.97,307.92 1279.81,308.95 1283.18,308.94 1286.55,306.86 1288.23,306.86 1289.91,303.75 1290.75,304.78 1306.77,305.76 1307.62,306.79 1310.14,304.71 1312.67,304.7 1312.67,305.73 1313.51,305.73 1316.03,302.62 1317.72,302.61 1317.72,303.65 1319.41,304.67 1321.94,304.67 1322.78,303.63 1326.99,304.65 1327,305.68 1331.21,305.66 1332.05,304.63 1333.74,305.65 1337.95,305.64 1337.96,306.67 1343.01,305.62 1343.01,304.58 1355.65,304.53 1364.9,301.39 1367.43,301.38 1369.11,299.3 1380.05,297.18 1380.89,295.11 1385.93,291.99 1387.62,293.01 1388.45,289.91 1394.35,289.88 1396.88,291.93 1399.4,288.82 1404.45,287.76 1405.29,288.79 1406.98,288.78 1409.49,285.67 1413.71,285.65 1414.54,284.61 1414.53,281.51 1417.89,280.46 1422.96,282.5 1428.85,281.44 1428.84,279.37 1431.36,277.29 1437.25,277.26 1438.08,274.15 1440.6,273.1 1441.43,271.03 1443.97,272.05 1446.49,271 1453.24,273.04 1455.75,269.92 1462.49,269.88 1463.32,267.81 1466.67,264.69 1470.04,263.64 1471.7,260.52 1475.07,260.51 1475.91,259.47 1480.96,258.4 1486.85,258.37 1489.37,257.32 1489.37,256.29 1491.88,254.2 1493.57,254.19 1496.08,251.08 1505.3,244.82 1506.99,245.84 1510.36,245.82 1511.18,242.71 1516.24,243.72 1522.12,240.58 1522.94,237.47 1526.28,232.28 1527.98,234.34 1529.66,234.33 1533.01,232.24 1533,230.17 1535.53,230.15 1538.04,228.07 1540.57,228.05 1541.39,225.98 1543.91,224.93 1544.73,220.79 1547.25,219.74 1548.92,217.66 1550.62,219.71 1553.13,218.66 1556.51,219.67 1558.19,218.63 1563.24,218.6 1570.78,213.37 1580.03,212.28 1580.03,211.24 1583.39,210.18 1590.08,204.97 1596.74,193.54 1598.41,192.5 1600.05,186.28 1602.56,184.2 1605.93,184.17 1605.07,182.11 1608.42,180.02 1611.73,171.72 1621.79,167.51 1625.13,163.35 1626.76,156.1 1626.73,151.96 1628.4,150.91 1629.23,148.84 1633.42,147.77 1636.8,148.78 1637.65,150.84 1641.88,152.88 1641.88,153.91 1646.93,153.88 1648.62,154.9 1655.34,152.78 1656.99,148.63 1659.52,149.64 1657.86,152.76 1661.24,154.8 1664.6,153.74 1664.58,151.67 1667.09,149.58 1667.11,152.68 1668.8,153.7 1673.85,153.66 1676.37,152.61 1676.35,150.54 1679.72,151.55 1683.08,150.49 1683.06,148.42 1685.59,148.4 1685.57,146.33 1687.24,145.28 1688.9,142.16 1690.59,143.19 1690.56,139.05 1698.98,140.01 1702.33,138.95 1703.16,136.88 1705.66,134.79 1706.52,136.85 1713.21,132.65 1716.55,129.52 1715.74,132.63 1718.27,133.64 1721.62,132.58 1723.31,133.6 1725.84,133.58 1735.03,126.26 1740.02,120.01 1744.23,121.01 1747.56,116.84 1752.58,114.73 1753.41,112.65 1753.36,107.48 1757.54,105.38 1760.09,108.46 1764.28,106.35 1768.43,100.11 1771.76,96.97 1773.34,85.58 1774.17,84.54 1780.04,83.45 1780.02,81.38 1785.07,81.34 1786.74,80.29 1789.28,82.33 1797.6,72.95 1800.12,72.92 1803.46,70.82 1810.18,70.76 1813.52,68.66 1814.39,71.75 1817.77,72.75 1823.64,71.66 1827.8,67.48 1827.78,65.41 1834.48,63.28 1834.45,60.18 1838.65,60.13 1841.14,57.01 1840.29,55.98 1850.31,49.68 1853.67,49.64 1855.36,50.66 1857.03,49.61 1860.4,50.61 1862.91,49.55 1865.48,53.66 1877.2,49.4 1881.37,46.25 1884.72,45.18 1888.93,46.17 1890.6,45.12 1892.29,46.14 1899.79,40.88 1900.61,38.81 1904.78,35.66 1903.93,34.63 1904.74,32.56 1903.04,30.51 1904.7,28.42 1909.73,27.33 1910.62,32.49 1912.33,34.54 1915.69,34.51 1921.54,32.37 1926.55,29.22 1927.36,26.1 1931.57,27.09 1932.38,25.01 1936.54,20.83 1938.16,15.64 1945.68,12.45 1957.42,10.25 1964.98,10.17 1968.31,8.06 1973.35,8 1973.37,10.07 1969.23,15.29 1967.57,16.34 1966.76,19.45 1965.11,21.54 1965.98,24.63 1966.05,30.84 1961.89,33.99 1962.75,36.05 1961.1,38.13 1961.99,42.26 1964.55,46.37 1963.75,49.48 1960.42,52.62 1959.62,55.73 1957.11,56.79 1956.29,58.87 1953.8,60.97 1953.83,64.07 1948.78,63.09 1944.59,64.18 1931.99,65.35 1929.48,66.41 1925.33,70.6 1916.08,70.7 1906.07,77.01 1906.09,79.08 1901.89,79.13 1899.38,80.19 1899.4,82.25 1896.9,84.35 1889.36,86.5 1887.66,85.48 1880.96,87.62 1866.75,95.01 1855.06,103.4 1853.37,102.39 1853.39,104.45 1847.53,106.58 1845.06,111.78 1843.36,110.76 1838.36,114.95 1836.74,121.17 1838.44,123.22 1831.75,126.39 1830.1,129.51 1829.32,135.72 1830.19,138.81 1828.52,139.86 1828.55,142.97 1826.03,144.03 1825.23,148.17 1826.93,149.19 1825.27,152.31 1820.25,154.42 1817.71,153.41 1815.21,155.51 1815.23,157.58 1811.03,158.65 1806.86,161.79 1804.39,168.02 1799.36,170.14 1790.96,171.25 1782.58,175.47 1780.08,177.56 1780.11,180.66 1774.24,182.78 1771.73,184.88 1770.92,187.99 1767.55,188.02 1765.88,189.07 1764.23,193.22 1761.71,193.24 1760.05,196.36 1757.53,196.38 1751.71,204.71 1750.03,204.72 1749.21,207.83 1745.03,210.97 1745.06,214.07 1741.71,216.17 1732.52,224.52 1729.99,223.51 1725.81,227.69 1725.83,229.75 1720.8,232.9 1710.72,235.05 1681.35,247.71 1677.15,249.81 1677.16,250.84 1667.11,258.16 1660.39,260.28 1647.8,266.59 1643.59,266.62 1639.4,269.75 1636.04,270.81 1635.21,272.89 1632.69,272.91 1612.58,288.57 1599.99,295.9 1594.97,300.07 1591.63,305.26 1589.12,307.35 1579.1,320.86 1574.06,324 1566.53,332.32 1565.7,334.4 1562.34,335.45 1559.85,341.68 1558.17,342.72 1557.35,345.83 1551.47,348.97 1549.8,352.08 1549,359.33 1549.86,361.39 1548.18,362.43 1544.87,372.8 1545.75,377.96 1544.09,382.11 1544.1,384.18 1535.72,392.5 1531.5,391.5 1526.45,393.6 1523.93,395.68 1519.7,393.64 1512.11,394.72 1507.06,396.82 1496.94,397.91 1492.74,400.01 1490.2,398.99 1486.81,395.9 1482.58,394.89 1480.88,392.84 1475.82,392.86 1469.1,397.04 1468.25,396.01 1461.49,395.01 1446.36,404.4 1437.96,411.68 1430.41,422.06 1427.08,429.32 1422.92,441.75 1419.55,443.84 1415.35,447.99 1411.18,458.35 1408.67,462.5 1404.46,464.59 1401.13,474.95 1401.99,478.05 1401.16,482.19 1401.2,490.46 1402.11,503.9 1399.6,508.05 1398.78,513.22 1399.64,516.32 1398.81,519.42 1399.67,523.56 1398.84,527.7 1407.41,550.41 1406.59,556.61 1409.16,562.81 1411.71,565.9 1416.79,567.94 1424.47,582.38 1425.34,586.51 1431.3,594.75 1432.99,593.71 1439.8,604.01 1448.27,605 1448.29,609.14 1449.14,610.17 1448.31,613.28 1450.88,619.47 1469.65,647.28 1473.91,652.43 1479.01,656.54 1482.4,656.52 1484.09,657.54 1483.26,659.62 1486.65,660.63 1493.48,670.93 1495.18,670.92 1497.73,674.01 1501.97,673.98 1505.37,677.07 1507.08,680.16 1510.48,682.21 1513.9,687.36 1513.06,689.43 1520.73,696.62 1522.45,700.75 1524.99,701.76 1528.41,705.88 1527.58,708.99 1530.15,714.14 1535.26,718.24 1538.64,717.19 1539.51,720.29 1536.97,721.34 1536.99,723.4 1538.69,724.43 1538.71,728.56 1542.12,730.61 1541.27,730.62 1542.14,733.71 1544.68,734.73 1549.81,740.9 1551.53,745.03 1546.45,746.09 1543.08,748.18 1546.51,755.4 1549.9,755.38 1549.1,762.62 1550.82,765.71 1552.51,765.7 1555.07,767.75 1557.59,765.67 1558.48,771.87 1556.82,776.01 1552.57,775.01 1553.38,768.8 1549.13,767.79 1544.06,768.86 1542.39,773.01 1533.87,765.82 1525.36,760.7 1523.67,760.72 1519.42,758.67 1513.49,758.71 1500.74,752.58 1499.87,749.48 1498.17,748.46 1492.24,747.46 1488.85,748.52 1486.32,750.6 1475.29,746.52 1467.67,747.6 1464.27,745.55 1457.48,743.52 1457.48,744.56 1453.26,746.65 1450.71,744.59 1449.01,744.6 1448.18,747.71 1446.5,749.78 1446.5,750.82 1448.2,750.81 1444.81,751.86 1444.8,749.79 1441.41,749.81 1431.27,754 1428.72,752.98 1410.11,758.24 1405.87,758.26 1400.81,762.42 1401.67,765.52 1400.83,766.56 1371.13,757.39 1355.9,762.62 1348.26,761.62 1344.02,758.54 1344.85,755.43 1354.14,747.12 1364.28,740.87 1365.07,729.49 1359.13,725.38 1348.96,725.43 1339.6,714.09 1340.4,702.71 1328.49,689.32 1309.83,680.08 1313.19,671.8 1330.92,659.32 1335.99,659.3 1338.54,660.32 1345.34,667.53 1349.58,669.58 1363.09,663.32 1368.15,659.16 1372.36,652.94 1380.81,649.8 1385.89,650.81 1391.84,656.99 1396.08,659.04 1401.14,653.84 1401.13,651.77 1408.73,648.64 1413.77,641.37 1408.67,637.26 1404.41,630.04 1401.03,632.13 1399.34,631.1 1399.3,623.86 1397.6,621.8 1394.18,613.55 1387.4,611.51 1385.67,603.25 1376.37,603.29 1373.04,616.75 1371.4,627.09 1373.11,631.22 1372.27,633.29 1375.69,641.55 1376.56,646.72 1372.34,648.8 1367.29,656.07 1365.6,656.07 1362.24,661.26 1357.17,664.38 1349.57,667.52 1343.63,664.44 1340.23,660.32 1336.84,658.26 1330.9,656.22 1330.07,658.29 1312.33,669.73 1308.14,680.09 1305.61,682.16 1298.84,684.26 1292.06,681.18 1284.48,691.54 1267.5,678.16 1264.96,677.13 1262.41,674.04 1245.52,687.53 1240.44,689.61 1240.45,692.72 1235.37,692.73 1233.67,690.67 1236.21,688.59 1237.05,685.49 1232.81,683.43 1232.8,681.36 1237.88,681.35 1239.56,677.21 1239.55,672.04 1244.59,659.61 1241.19,655.49 1235.26,653.44 1224.29,663.81 1221.75,663.81 1215.84,670.03 1212.46,672.11 1209.07,672.12 1208.25,681.43 1211.66,690.73 1215.05,692.78 1216.75,694.85 1229.47,699.99 1227.81,714.47 1242.25,727.87 1242.26,730.97 1236.35,738.23 1235.51,740.3 1235.54,752.71 1230.46,754.79 1224.53,755.84 1209.3,762.08 1194.07,774.53 1188.16,782.81 1180.57,801.44 1182.27,802.47 1179.74,807.65 1180.59,810.75 1180.61,816.95 1178.08,825.23 1178.96,842.81 1175.61,859.36 1178.16,864.53 1179.87,870.73 1167.17,885.23 1166.33,889.37 1159.55,893.52 1152.78,902.84 1149.41,915.25 1150.26,919.39 1147.72,922.49 1145.17,922.5 1139.23,919.41 1130.73,917.35 1124.79,918.4 1106.97,918.42 1095.94,924.64 1090,931.88 1090,933.95 1083.21,938.09 1081.52,941.2 1077.27,942.24 1076.43,945.34 1069.64,949.48 1063.69,950.52 1062,951.56 1059.45,955.69 1056.91,962.93 1036.52,963.98 1034.83,966.05 1024.63,967.09 1016.14,970.19 1015.29,972.26 1000.85,976.4 997.45,978.46 993.2,982.6 988.95,989.84 986.41,990.87 979.61,990.87 971.11,993.97 964.31,998.1 957.51,1004.31 952.41,1006.37 950.71,1010.51 941.36,1009.47 936.26,1010.5 931.16,1010.49 926.06,1012.56 915,1021.85 911.6,1022.88 908.2,1022.88 907.35,1023.91 896.3,1020.8 897.16,1018.73 893.76,1017.69 891.21,1019.76 887.81,1018.72 886.96,1016.65 882.71,1016.64 880.16,1018.71 874.21,1020.77 874.2,1021.8 869.1,1024.9 869.09,1028 866.54,1031.1 867.39,1033.17 858.88,1036.26 854.63,1036.25 852.08,1037.28 842.73,1037.26 836.78,1035.18 833.38,1036.21 829.13,1035.17 826.58,1036.2 816.37,1036.17 808.73,1035.12 805.32,1036.15 801.92,1036.14 800.23,1035.1 777.28,1030.91 774.74,1029.87 762.84,1028.8 755.18,1032.92 737.31,1035.97 736.46,1037 732.21,1038.02 716.03,1045.2 710.91,1049.32 693.89,1054.43 682.81,1061.63 673.42,1071.94 672.55,1075.04 667.46,1072.95 663.19,1076.03 659.78,1080.16 657.22,1081.18 655.51,1084.28 656.32,1092.55 653.79,1087.37 650.39,1088.39 649.5,1095.63 641.85,1095.59 641.84,1098.7 652.04,1098.74 652.04,1099.77 638.43,1099.72 638.43,1098.68 633.32,1100.73 618.85,1101.7 612.88,1104.77 609.48,1104.76 607.75,1109.92 600.92,1115.06 596.71,1106.77 597.57,1104.7 596.73,1102.63 598.44,1100.57 595.9,1096.42 595.92,1093.32 593.38,1091.24 591.71,1083.99 595.99,1078.84 596.84,1078.85 611.28,1082.02 612.97,1086.16 616.35,1089.28 618.9,1090.32 627.42,1088.29 627.45,1082.09 624.92,1075.87 624.95,1068.63 628.39,1061.41 611.38,1060.3 606.29,1058.21 597.79,1058.17 590.96,1063.31 588.37,1071.57 582.41,1072.57 581.53,1077.74 578.13,1078.75 574.74,1075.64 577.31,1071.51 568.82,1068.37 567.12,1069.39 563.72,1068.34 562.01,1070.4 557.71,1079.68 555.16,1078.64 551.76,1078.62 518.73,1053.62 518.79,1043.28 517.14,1035 489.08,1034.83 483.93,1044.11 472.85,1047.14 466.01,1054.34 460.85,1062.58 442.14,1062.46 437.92,1058.29 432.82,1058.26 432.77,1065.5 428.34,1091.32 420.67,1093.34 418.95,1096.43 414.71,1094.33 400.26,1092.16 396.84,1094.2 395.13,1096.26 395.1,1100.4 385.73,1101.36 383.17,1102.38 362.85,1089.82 344.15,1087.61 336.53,1083.41" fill="none" stroke="#1e1e1e" stroke-width="2.12" stroke-linecap="round" stroke-linejoin="round"/>
<path d="M1278.69,732.93L1281.22,730.85L1292.24,733.92L1293.94,735.98L1297.34,737L1302.41,735.95L1307.52,742.13L1304.98,743.18L1296.51,744.24L1296.51,742.17L1287.18,740.14L1286.32,737.04L1278.69,732.93Z" fill-rule="evenodd" fill="#4682b4" fill-opacity="0.471"/>
<polyline points="1278.69,732.93 1281.22,730.85 1292.24,733.92 1293.94,735.98 1297.34,737 1302.41,735.95 1307.52,742.13 1304.98,743.18 1296.51,744.24 1296.51,742.17 1287.18,740.14 1286.32,737.04 1278.69,732.93" fill="none" stroke="#1e1e1e" stroke-width="2.12" stroke-linecap="round" stroke-linejoin="round"/>
<path d="M1259.16,719.55L1262.52,709.2L1266.75,708.15L1272.68,709.16L1271.84,712.27L1271.86,718.47L1265.1,721.6L1259.16,719.55Z" fill-rule="evenodd" fill="#4682b4" fill-opacity="0.471"/>
<polyline points="1259.16,719.55 1262.52,709.2 1266.75,708.15 1272.68,709.16 1271.84,712.27 1271.86,718.47 1265.1,721.6 1259.16,719.55" fill="none" stroke="#1e1e1e" stroke-width="2.12" stroke-linecap="round" stroke-linejoin="round"/>
<path d="M1265.19,750.55L1267.71,744.34L1271.12,749.5L1270.27,750.53L1271.97,750.53L1271.13,753.63L1267.74,753.64L1265.19,750.55Z" fill-rule="evenodd" fill="#4682b4" fill-opacity="0.471"/>
<polyline points="1265.19,750.55 1267.71,744.34 1271.12,749.5 1270.27,750.53 1271.97,750.53 1271.13,753.63 1267.74,753.64 1265.19,750.55" fill="none" stroke="#1e1e1e" stroke-width="2.12" stroke-linecap="round" stroke-linejoin="round"/>
<text x="794.4" y="681.01" font-family="sans-serif" font-size="14" stroke="#ffffff" stroke-opacity="0.784" stroke-width="2.33" stroke-linejoin="round" paint-order="stroke" fill="#141414">Cyprus</text>
</svg>
