<?xml version="1.0" encoding="UTF-8" standalone="no"?>
<svg xmlns="http://www.w3.org/2000/svg" width="2000" height="1124" viewBox="0 0 2000 1124">
<rect width="2000" height="1124" fill="#ffffff"/>
<polyline points="929.53,385.24 944.25,383.44 951.78,387.13 957.77,382.37 962.2,386.41 965.28,384.34 973.63,388.45 984.36,385.14 993.08,389.28 1026.51,383.67 1034.93,388.48 1044.83,388.82 1058.4,381.79 1071.13,382.22 1088.72,374.19 1093.73,376.64 1117.55,373.79 1147.29,364.34 1151.94,359.1 1151.17,362.7 1156.18,365.27 1175.96,360.94 1184.18,363.09 1193.2,355.93 1200.2,357.29 1217.1,349.9 1234.37,335.76 1235.8,330.72 1244.51,329.61 1251,322.65 1255.61,322.57 1257.93,316.98 1289.73,303.7 1307.73,306.38 1318.03,302.51 1328.22,306.27 1355.54,304.78 1380.4,297.05 1388.83,289.14 1396.55,291.49 1407.28,288.61 1414.14,285.25 1414.16,280.99 1428.71,281.32 1441.19,271.42 1451.49,273.32 1462.88,270.05 1471.92,260.52 1487.27,258.07 1505.05,244.6 1510.34,246.08 1522.27,240.29 1526.27,232.6 1531.3,234.04 1548.81,218.09 1563.1,218.15 1587.77,207.85 1600.01,185.63 1608.81,180.44 1611.34,171.75 1623.69,166.04 1626.34,151.74 1630.2,148.53 1636.27,147.97 1642.06,153.83 1652.56,154.15 1657.04,148.69 1661.58,155.15 1667.09,149.8 1668.39,153.79 1674.02,153.75 1676.96,150.4 1674.3,151.08 1677.74,150.04 1679.34,151.76 1685.61,148.55 1691.21,138.88 1701.76,139.9 1704.58,135.03 1707.22,137.24 1716.21,129.74 1718.52,133.83 1725.09,133.58 1739.85,120.66 1750.02,117.22 1755.37,104.23 1759.84,108.29 1765.68,104.94 1771.67,96.86 1772.12,84.51 1789.37,82.06 1793.91,74.92 1804.19,70.72 1813.79,68.44 1816.35,72.49 1824.02,71.46 1828.53,63.75 1833.15,64.44 1834.84,59.63 1850.39,50.04 1862.81,49.02 1864.29,52.99 1869.07,53.07 1882.68,45.9 1892.89,46.51 1904.6,35.96 1904.59,28.58 1909.78,27.44 1912.93,34.34 1921.41,33.62 1926.85,26.76 1932.67,26.11 1931.36,23.72 1938.39,15.8 1973.35,8.1" fill="none" stroke="#1e1e1e" stroke-width="2.12" stroke-linecap="round" stroke-linejoin="round"/>
<polyline points="1973.37,9.57 1965.04,21.22 1966.34,30.26 1961.23,38.01 1964.19,47.16 1953.56,63.77 1932.21,65.5 1926.91,71.93 1912.29,72.12 1897.49,84.42 1873.54,88.89 1848.7,105.73 1837.79,115.95 1838.47,124.8 1831.59,126.57 1825.6,152.13 1816.67,154.23 1801.56,169.31 1782.45,175.47 1771.28,188.5 1767.7,187.84 1756.42,197.76 1734.48,223.16 1720.95,233.07 1689.16,244.08 1668.21,257.28 1636.36,270.76 1595.15,300.13 1550.49,349.88 1545.96,379.15 1538.4,390.61 1492.41,399.69 1480.87,392.49 1454.72,398.35 1434.09,416.39 1422.59,442.06 1404.08,465.29 1398.52,520.54 1408.66,550.77 1409.06,562.67 1415.7,565.84 1430.58,594.25 1434.39,593.15 1439.93,603.89 1448.45,605.72 1451.43,620.5 1473.98,652.2 1483.86,657.62 1497.08,674.05 1505.67,677.71 1513.13,688.93 1517.05,688.77 1515.21,691.39 1526.91,703.24 1530.54,713.88 1539.19,717.75 1538.16,727.51 1551.32,744.66 1546.49,744.94 1544.01,749.58 1549.59,755.24 1550.75,765.34 1557.66,766.06 1557.03,775.89 1551.91,774.18 1553.23,769.54 1549.74,767.4 1540.83,773.07 1530.86,763.36 1509.28,757.35 1497.83,748.09 1486.29,750.58 1474.3,746.31 1469.35,749.3 1467.4,744.53 1459.89,743.22 1449.21,744.53 1447.75,751.94 1441.64,749.5 1440.93,753.3 1435.6,753.4 1441.56,753.75 1439.25,755.53 1428.76,753.09 1399.35,761.01 1401.95,766.51 1393.22,778.34 1364.9,790.92 1340.77,769.82 1294.88,752.13 1274.97,750.48 1269.42,754.53 1258.77,749.91 1256.14,754.7 1245.15,752.11 1219.2,757.6 1200.31,768.42 1184.75,789.49 1180.78,801.44 1182.6,802.31 1184.44,807.24 1179.89,807.54 1180.79,810.8 1186.88,808.05 1179.35,816.39 1180.06,819.29 1182.49,816.77 1178.1,824.84 1180.28,836.28 1175.71,858.36 1179.46,870.74 1153.02,903.35 1148.36,922.67 1130.49,917.68 1104.74,919.29 1081.19,941.37 1061.34,952.77 1057.29,962.8 1036.54,963.93 1035.41,967.54 1024.91,967.07 1000.98,976.33 987.09,991.02 970.51,993.91 950.6,1010.57 930.25,1010.74 913.38,1022.77 903.34,1022.74 907.23,1026.98 894.4,1020.08 896.83,1019.07 893.02,1018.69 894.32,1021.18 883.92,1017.03 869.66,1024.58 866.05,1034.43 856.7,1037.09 802.19,1036.24 762.81,1029.1 732.1,1038.03 690.24,1056.75 672.21,1074.56 672.91,1072.06 671.22,1072.29 672,1075.46 673.12,1074.73 672.64,1077.88 668.76,1078.63 672.75,1076.84 668.21,1073.15 657.39,1081.35 656.65,1092.62 653.9,1087.8 649.93,1088.53 649.59,1095.77 641.76,1095.68 641.75,1099.01 652.05,1098.94 658.56,1094.46 663.04,1092.83 663.86,1093.21 645.05,1102.53 642.71,1115.25" fill="none" stroke="#1e1e1e" stroke-width="2.12" stroke-linecap="round" stroke-linejoin="round"/>
<polyline points="564.54,1114.88 558.7,1104.71 529.47,1075.45 519.19,1076.8 507.83,1071.83 502.36,1079.38 489.72,1074.97 484.9,1075.32 482.95,1080.53 458.31,1077.77 443.69,1085.81 432.12,1085.14 428.78,1091.53 418.73,1096.08 400.38,1092.39 395.95,1094.73 394.78,1100.85 383.45,1102.13 362.5,1090.1 344.05,1087.23 323.02,1075.91 306.41,1072.96 289.45,1057.93 274.44,1052.93 257.82,1041.43 244.44,1038.87 236.81,1041.49 219.98,1030.44 206.27,1035.9 168.92,1003.47 155.19,1001.75 140.2,980.87 134.08,980.66 133.76,983.66 126.45,981.28 132.35,969.6 128.01,960.76 127.9,949.72 121.22,944.78 121.47,915.31 115.97,909.06 119.86,901.01 117.52,892.66 110.65,884.75 101.5,885.33 100.63,877.67 94.9,880.78 94.19,874.5 83.23,875.32 78.54,858.48 71.59,854.31 71.35,846.94 56.95,831.11 64.9,820.75 65.11,803.69 54.57,780.98 45.95,778.74 45.31,772.36 46.91,768.5 51.76,771.17 55.45,765.58 51.8,755.3 55.78,747.56 53.46,738.3 56.16,731.26 41.13,707.92 35.57,709.56 36.94,705.03 24.37,688.67 26.2,683.92 20.95,676.41 19.4,653.16 27.36,626.31 25.3,623.22 29.89,623.4 31.2,618.35 36,618.37 48.72,632.44 46.27,634.69 49.61,640.81 83.91,665.66 93.03,676.98 111.26,684.76 122.78,684.98 124.05,683.87 127.6,683.98 123.97,684.58 131.85,687.02 156.97,680.17 198.3,649.62 219.87,615.96 231.03,586.03 249.06,570.83 259.09,547.35 262.73,547.18 264.76,552.59 275.83,553.87 290.68,545.19 302.19,546.22 309.8,543.07 319.89,530.21 329.11,534.64 335.85,528.06 344.55,527.5 353.13,531.45 358.83,529.52 361.67,535.15 378.4,539.72 391.8,539.23 408.79,545.83 417.28,544.26 419.87,549.85 456.93,564.39 463.43,573.18 481.62,578.88 489.73,585.17 513.71,577.41 527.67,565.58 538.05,563.44 552.75,548.74 566.88,519.45 582.4,464.88 587.78,414.34 583.56,398.61 583.97,375.43 582.76,371.12 575.78,369.53 573.4,360.71 572.48,313.4 594.23,326.77 612.09,331.02 633.93,350.88 659.28,353.65 665.42,351.1 679.95,361.38 692.8,364.48 721.03,366.03 731.48,358.93 735.21,350.95 739.01,356.1 750.98,355.37 754.45,360.11 782.93,368.83 793.51,369.74 804.51,361.03 811.62,361.45 843.08,375.78 854.03,373.87 855.85,369.72 873.69,375.99 880.1,372 884.28,373.61 885.21,369.77 887.93,376.32 894.86,378.8 895.52,377.57 893.55,377 894.02,375.03 899.25,380.03 908.76,377.22 914.28,380.51 919.79,375.51 923.8,378.72 918.24,378 921.26,382.6 929.53,385.24" fill="none" stroke="#1e1e1e" stroke-width="2.12" stroke-linecap="round" stroke-linejoin="round"/>
</svg>
