<?xml version="1.0" encoding="UTF-8" standalone="no"?>
<svg xmlns="http://www.w3.org/2000/svg" width="2000" height="1139" viewBox="0 0 2000 1139">
<rect width="2000" height="1139" fill="#ffffff"/>
<polyline points="567.66,1027.34 561.88,1022.92 558.9,1016.04 556.51,1004.94 552.87,999.5 538.4,983.64 532.51,974.6 530.12,972.21 523.39,956.94 506.97,946.23 500.61,943.9 495.79,944.79 490.84,943.92 474.66,928.6 462.82,922.76 452.68,921.11" fill="none" stroke="#1e1e1e" stroke-width="1.48" stroke-linecap="round" stroke-linejoin="round"/>
<polyline points="568.15,1026.65 577.54,1032.94 584.67,1040.06 586.09,1043.82 587.24,1055.41 589.07,1058.43 596.16,1063.78 600.3,1069.05 602.08,1069.77 609.6,1069.99 610.94,1070.76 612.97,1074.69 622.11,1085.25 625.8,1087.49 630.16,1087.7 639.18,1085.86 643.38,1087.01 645.82,1089.68 647.16,1089.97 651.75,1087.52 653.59,1087.52 659.26,1093.28 662.84,1095.65 666.59,1096.78 670.22,1096.11 673.61,1092.88 676.7,1088.04 677.78,1084.64 676.08,1067.8 671.06,1047.81 661.6,1032.17 659.81,1021.77 661.29,1015.67 664.38,1012.28 676.48,1007.56 679.89,1004.03 680.76,992.49 681.6,988.66 683.85,984.71 684.4,975.94 685.59,971.69 687.53,969.65 699.42,962.15 702.99,957.24 705.82,942.99 706.36,934.67 704.64,931.74 708.76,929.06 704.73,923.07 700.83,919.66 703.48,908.3 705.27,904.06 709.13,901.5 708.21,894.78 708.56,870.66 705.58,862.67 706.82,857.42 706.8,850.49 705.81,843.55 704.09,838.31 690.67,829.69 686.27,825.76 681.56,823.92 676.91,820.89 674.86,815.35 674.03,805.35 672.34,801.06 669.23,795.74 657.56,780.27 649.71,759.49 647.18,756.34 646.88,753.02 643.19,746.06 638.99,740.03 636.87,739.51 633.68,734.57 632.62,726.6 630.18,720.16 629.83,716.13 632.73,701.43 630.64,675.8 632.09,668.41 637.44,658.67 640.23,656.52 641.89,662.56 646.69,653.24 649.65,650.63 653.78,650.72 652.19,640.06 655.85,634.62 661.99,631.28 667.76,626.9 665.47,624.07 662.35,623.84 665.87,623.25 668.75,621.68 670.32,618.95 670.06,614.93 677.15,612.79 680.44,612.94 683.67,615.14 682.66,608.73 683.86,602.84 688.43,606.35 692.9,604.46 701.56,597.38 698.23,592.65 697.74,586.5 699.76,580.46 703.8,576.11 702.47,572.58 706.25,569.94 707.81,567.14 708.4,562.31 707.96,561.48 706.56,561.96 704.01,561.1 697.15,556.25 694.49,553.41 692.41,548.9 692.31,546.13 694.48,539.63 689.87,528.21 687.41,524.63 686.99,521.77 687.8,518.83 691.3,518.31 692.89,515.84 694.5,507.86 695.63,488.27 697.13,480.34 703.43,464.37 699.29,457.25 701.45,452.98 711.42,447.97 712.81,443.9 707.72,440.9 695.95,437.24 698.29,423.15 698.14,419.22 695.49,414.78 692.71,413.93 684.7,415.75 690.25,407.94 690.84,403.84 689.48,404.27 683.15,390.48 674.87,383.96 672.65,381.15 671.25,376.28 672.85,372.7 677.57,367.58 680.32,355.63 681.84,352.61 684.54,351.42 711.52,349.95 717.72,347.51 718.59,341.13" fill="none" stroke="#1e1e1e" stroke-width="1.48" stroke-linecap="round" stroke-linejoin="round"/>
<polyline points="408.24,1122.99 407.16,1118.93 408.88,1115.88 411.55,1113.53 421.12,1110.19" fill="none" stroke="#1e1e1e" stroke-width="1.48" stroke-linecap="round" stroke-linejoin="round"/>
<polyline points="1385.4,403.95 1381.5,410.33 1377.39,421.36 1374.64,437.48 1378.77,444.61 1387.84,443.39 1397.81,440.04 1404.58,440.66 1407.42,447.48 1407.86,456.07 1405.87,472.33 1403.25,479.37 1402.64,487.65 1398.61,499.17 1397.4,505 1398.82,510.43 1409.5,517.28 1411.13,521.48 1413.92,556.09 1413.43,566.36 1414.21,571.13 1419.25,580.46 1420.96,586.42 1427.07,593.55 1432.03,604.03 1436.73,609.58 1445.66,614.73 1467.03,621.13 1494.26,637.26 1502.76,645.19 1509.32,656.48 1511.29,663.01 1512.77,670.8 1514.12,686.44 1513.58,701.51 1514.74,706.32 1518.64,713.64 1522.62,716.25 1524.8,725.51 1529.01,737.7 1527.33,763.29 1529.82,770.73 1536.65,778.86 1562.01,796.96 1569,805.38 1578.06,819.03 1585.34,832.77 1588.23,846.13 1587.79,853.09 1584.58,869.41 1582.03,877.84 1582,881.9 1583.71,887.9 1581.02,890.01 1577.85,894.13 1567.05,895.56 1564.64,897.7 1563.17,900.85 1553.1,914.66 1555.29,917.61 1555.36,922.98 1551.7,930.01 1546.74,942.81 1543.23,948.06 1524.48,955.02 1517.01,964.09 1512.49,968.32 1505.92,970.19 1501.74,972.68 1491.36,988.85 1474.54,1001.63 1471.94,1005.81 1470.42,1014.08 1466.4,1019.51 1456.61,1028.4 1449.71,1040.74 1435.89,1083.47 1432.68,1089.66 1428.2,1095.37 1427.66,1103.73 1430.76,1124.27 1430.12,1126.77" fill="none" stroke="#1e1e1e" stroke-width="1.48" stroke-linecap="round" stroke-linejoin="round"/>
<polyline points="1030.04,188.93 1032.16,192.52 1039.75,211.74 1040.44,229.25 1042.11,235.18 1045.54,240.52 1053.19,245.39 1063.27,249.34 1072.17,255.6 1076.34,267.49 1073.04,282.29 1073.4,288.84 1081.62,292.2 1087.7,295.72 1093.88,300.74 1095.64,306.45 1114.79,315.55 1123.87,323.2 1124.21,330.54" fill="none" stroke="#1e1e1e" stroke-width="1.48" stroke-linecap="round" stroke-linejoin="round"/>
<polyline points="1124.21,330.54 1124.34,333.35 1124.21,330.54" fill="none" stroke="#1e1e1e" stroke-width="1.48" stroke-linecap="round" stroke-linejoin="round"/>
<polyline points="1124.21,330.54 1122.6,333.36 1128.34,336.6 1128.35,339.34 1117.07,348.97 1114.37,352.85 1109.49,363.75 1099.99,378.01 1097.22,387.37 1099.88,396.86 1095.88,409.4 1094.8,415.26 1094.84,433.22 1093.76,438.52 1090.49,445.25 1104.19,457.16 1104.2,460.46 1096.37,466.23 1085.68,472.29 1057.14,472.28 1041.22,475.7 974.23,472.71 968.43,474.16 963.25,476.69 960.97,480.21 939.56,484.41 934.67,483.48 926.58,479.5 923.09,478.61 919.55,476.14 913.94,464.5 910.72,460.53 912.12,453.94 911.53,447.41 909.52,441.36 906.78,436.21 899.1,430.16 893.36,421.11 884.35,415.15 876.19,415.54 858.54,420.91 825.7,414.41 816.79,415.23 807.09,417.81 797.59,418.64 789.17,414.07 783.58,415.78 777.05,412.6 766.02,402.06 758.1,391.42 756.55,391.45 755.26,387.25 745.02,389.81 737.01,379.54 735.03,378.55 733.38,370.22 733.61,365.64 729.8,365.59 726.82,362.46 723.11,362.22 721.76,360.89 724.17,354.58 723.72,345.53 722.11,342.54 718.59,341.13 712.83,336.49 713.25,330.74 715.18,324.48 714.03,318.4 709.27,313.74 698.92,307.12 695.01,302.95 691.87,295.58 690.26,289.23 687.72,284.72 681.94,282.96 677.2,284.29 672.52,287.98 668.95,293.35 667.48,299.66 666.02,300.88 656.58,300.85 654.31,299.5 652.36,274.33 650.89,267.97 646.87,261.9 642.37,259.03 629.22,255.37 623.92,255.23 613.35,260.48 608.03,261.57 602.67,257.87 604.81,254.88 600.67,249.96 595.66,233.39 601.43,227.97 606.9,225.6 608.94,222.31 604.55,214.17 601.23,204.89 606.41,200.79 614.58,198.88 625.63,192.85 632.74,192.78 639.58,191.21 644.21,183.2 643.77,175.01 641.64,166.32 641.95,158.62 648.7,153.22 646.85,149.92 651.96,144.95 656.38,138.04 654.4,134.51 652.68,128.07 651.06,115.44 652.33,108.08 654.19,105.12 654.37,102.01 650.57,94.1 646.77,90.87 619.57,82.7 608.05,82.81 608.98,78.8 610.62,75.87 612.81,74.28 615.6,73.95 610.4,67.92 603.4,67.55 591.09,70.21 581.31,65.04 577.85,64.22 565.81,65.05 562.65,63.9 561.19,61.4 559.95,54.12 558.18,50.13 540.88,24.03" fill="none" stroke="#1e1e1e" stroke-width="1.48" stroke-linecap="round" stroke-linejoin="round"/>
<polyline points="1958.09,500.72 1951.33,501.96 1944.55,505.78" fill="none" stroke="#1e1e1e" stroke-width="1.48" stroke-linecap="round" stroke-linejoin="round"/>
<polyline points="1944.51,505.81 1935.6,510.08 1930.99,518.03 1930.61,528.31 1934.36,539.6 1943.33,554.85 1947.58,564.01 1949.6,573.52 1951.06,595.88 1954.03,606.4 1959.95,610.65 1960.54,613.42 1963.39,618.16" fill="none" stroke="#1e1e1e" stroke-width="1.48" stroke-linecap="round" stroke-linejoin="round"/>
<polyline points="1609.29,599.79 1619.63,596.88 1625.99,597.07 1631.83,603.37 1650.51,607.57 1659.09,615.47 1675.79,635.64 1684.85,642.55 1697.71,647.19 1704.05,646.44 1708.48,635.06 1713.33,631.19 1723.38,626 1769.91,590.23 1773.19,584.88 1774.35,577.6 1780.64,570.41 1781.64,565.29 1780.04,558.5 1780.28,554.73 1783.07,551.46 1781.03,548.82 1785.37,544.3 1795.94,537.92 1801.78,532.72 1805.24,526.1 1809.59,512.39 1812.73,511.27 1814.27,505.19 1807.45,500.4 1788.72,468.45 1782.84,460.82 1779.41,452.1 1779.09,443.38 1778.01,439.09 1774.84,437.25 1774.73,434.25 1778.64,431.12 1776.71,431.19 1785.12,397.79 1785,394.52 1779.12,391.73 1779.01,388.98 1782.06,384.74 1786.48,382.45 1786.37,379.71 1784.41,376.94 1783.46,373.32 1783.88,364.49 1780.02,364.15 1776.69,361.37 1763.17,339.93 1760.05,339.07 1740.94,312.02 1736.01,299.16 1713.76,285.55 1705.39,272.64 1703.76,272.34 1701.94,268.86 1694.04,261.65 1691.74,256.22 1694.66,253.57 1694.99,251.14 1693.48,245.49 1693.81,241.1 1696.6,234.75 1696.4,227.71 1694.48,215.28 1695.7,207.72 1690.83,204.73 1686.12,195.53 1679.46,177.91 1676.76,173.75 1669.58,166.22 1661.49,151.45 1658.65,150.03 1648.08,148.86 1636.26,140.46 1621.86,134.55 1615.38,130.66 1608.98,123.25 1604.47,125.55 1599.48,123.53 1596.65,120.43 1593.44,111.41 1588,108.61 1582.38,109.07 1570.86,112.04 1566.08,111.05 1561.12,108.19 1553.29,100.48 1549.55,91.5 1547.3,88.35 1544.06,86.25 1537.64,84.55 1534.71,81.3 1510.3,69.3 1508.96,64.26 1509.96,48.57 1507.47,43.18 1496.88,36.07 1491.94,27.32 1486.51,26.02 1480.78,26.94 1477.37,29.95 1475.47,30 1474.56,25.44 1472.53,23.73" fill="none" stroke="#1e1e1e" stroke-width="1.48" stroke-linecap="round" stroke-linejoin="round"/>
<polyline points="1467.52,23.85 1465.85,23.88" fill="none" stroke="#1e1e1e" stroke-width="1.48" stroke-linecap="round" stroke-linejoin="round"/>
<polyline points="23.89,900.03 31.05,900.49 42.83,903.67 52.2,910.26 60.99,904.97 73.96,904.43 87.45,908.02 97.74,914.95 91.35,927 115.78,928.63 124.76,931.71 130.62,931.62 132.27,933.3 133.23,937.02 135.41,937.81 141.31,938.05 145.66,941.04 148.17,941.35 148.04,944.62 145.32,944.3 143.93,945.61 142.6,948.74" fill="none" stroke="#1e1e1e" stroke-width="1.48" stroke-linecap="round" stroke-linejoin="round"/>
<polyline points="142.6,948.74 141.91,950.37" fill="none" stroke="#1e1e1e" stroke-width="1.48" stroke-linecap="round" stroke-linejoin="round"/>
<polyline points="470.19,1124.58 460.88,1118.35 430.93,1109.13 421.12,1110.19 403.07,1109.7 390.31,1100.62 372.44,1096.82 355.39,1096.33 348.38,1092.23 335.84,1080.19 329.11,1077.51 314.4,1066.37 313.37,1062.02 307.5,1056.94 305.08,1052.71 309.16,1049.55 305.67,1046.35 299.07,1042.05 292.58,1040.23 287.7,1046.17 284.68,1043.14 283.29,1038.85 290.54,1035.38 291.5,1031.78 290.14,1024.62 287.28,1017.86 275.12,998.11 270.17,993.88 259.27,990.61 257.67,989.08 247.05,989.14 243.52,986.95 234.78,994.7 231.35,995.83 227.25,995.54 216.67,992.01 215,989.84 213.53,984.8 211.01,972.35 191.08,960.68 184.34,958.49 176.11,957.43 173.54,958.12 161.2,965.96 155.21,960.68 151.44,959.49 151.56,956.48 155.41,953.62 151.42,952.07 147.22,952.76 143.81,952.25 142.6,948.74" fill="none" stroke="#1e1e1e" stroke-width="1.48" stroke-linecap="round" stroke-linejoin="round"/>
<polyline points="142.6,948.74 142.03,947.11" fill="none" stroke="#1e1e1e" stroke-width="1.48" stroke-linecap="round" stroke-linejoin="round"/>
<text x="718.04" y="386.05" font-family="sans-serif" font-size="14" stroke="#ffffff" stroke-opacity="0.784" stroke-width="2.33" stroke-linejoin="round" paint-order="stroke" fill="#141414">Elbe</text>
<text x="605.74" y="738.28" font-family="sans-serif" font-size="14" stroke="#ffffff" stroke-opacity="0.784" stroke-width="2.33" stroke-linejoin="round" paint-order="stroke" fill="#141414">Vltava</text>
<text x="1743.95" y="349.6" font-family="sans-serif" font-size="14" stroke="#ffffff" stroke-opacity="0.784" stroke-width="2.33" stroke-linejoin="round" paint-order="stroke" fill="#141414">Oder</text>
<text x="1497.78" y="777.61" font-family="sans-serif" font-size="14" stroke="#ffffff" stroke-opacity="0.784" stroke-width="2.33" stroke-linejoin="round" paint-order="stroke" fill="#141414">Morava</text>
<text x="260.68" y="1053.15" font-family="sans-serif" font-size="14" stroke="#ffffff" stroke-opacity="0.784" stroke-width="2.33" stroke-linejoin="round" paint-order="stroke" fill="#141414">Donau</text>
<text x="1914.34" y="564.02" font-family="sans-serif" font-size="14" stroke="#ffffff" stroke-opacity="0.784" stroke-width="2.33" stroke-linejoin="round" paint-order="stroke" fill="#141414">Vistula</text>
<text x="399.61" y="1120.34" font-family="sans-serif" font-size="14" stroke="#ffffff" stroke-opacity="0.784" stroke-width="2.33" stroke-linejoin="round" paint-order="stroke" fill="#141414">Inn</text>
<text x="1921.11" y="509.08" font-family="sans-serif" font-size="14" stroke="#ffffff" stroke-opacity="0.784" stroke-width="2.33" stroke-linejoin="round" paint-order="stroke" fill="#141414">Vistula</text>
</svg>
