<?xml version="1.0" encoding="UTF-8" standalone="no"?>
<svg xmlns="http://www.w3.org/2000/svg" width="1814" height="2000" viewBox="0 0 1814 2000">
<rect width="1814" height="2000" fill="#ffffff"/>
<path d="M712.57,1114.44L741.42,1154.65L730.62,1175.71L700.76,1209.72L688.72,1181.51L671.93,1135.16L712.57,1114.44Z" fill-rule="evenodd" fill="#4682b4" fill-opacity="0.471"/>
<polyline points="712.57,1114.44 741.42,1154.65 730.62,1175.71 700.76,1209.72 688.72,1181.51 671.93,1135.16 712.57,1114.44" fill="none" stroke="#1e1e1e" stroke-width="2.29" stroke-linecap="round" stroke-linejoin="round"/>
<path d="M38.76,1590.64L111.08,1645.62L129.14,1669L120.46,1707.22L85.68,1748.94L9.82,1808.36L8.54,1807.65L9.22,1578.51L11.78,1578.25L38.76,1590.64Z" fill-rule="evenodd" fill="#4682b4" fill-opacity="0.471"/>
<polyline points="38.76,1590.64 111.08,1645.62 129.14,1669 120.46,1707.22 85.68,1748.94 9.82,1808.36 8.54,1807.65 9.22,1578.51 11.78,1578.25 38.76,1590.64" fill="none" stroke="#1e1e1e" stroke-width="2.29" stroke-linecap="round" stroke-linejoin="round"/>
<text x="8.11" y="1695.39" font-family="sans-serif" font-size="14" stroke="#ffffff" stroke-opacity="0.784" stroke-width="2.33" stroke-linejoin="round" paint-order="stroke" fill="#141414">Lake Abbe</text>
<text x="658.43" y="1164.26" font-family="sans-serif" font-size="14" stroke="#ffffff" stroke-opacity="0.784" stroke-width="2.33" stroke-linejoin="round" paint-order="stroke" fill="#141414">Lake Assal</text>
</svg>
