<?xml version="1.0" encoding="UTF-8" standalone="no"?>
<svg xmlns="http://www.w3.org/2000/svg" width="2000" height="845" viewBox="0 0 2000 845">
<rect width="2000" height="845" fill="#ffffff"/>
<polyline points="160.76,227.86 157.15,225.71 156.06,217.6 167.46,216.37 168.95,223.24 162.72,223.95 160.76,227.86" fill="none" stroke="#1e1e1e" stroke-width="1.88" stroke-linecap="round" stroke-linejoin="round"/>
<polyline points="43.76,77.44 36.29,74.07 39.7,68.22 46.04,66.99 50.5,70.2 43.76,77.44" fill="none" stroke="#1e1e1e" stroke-width="1.88" stroke-linecap="round" stroke-linejoin="round"/>
<polyline points="19.37,63.8 22.12,60.46 19.38,66.03" fill="none" stroke="#1e1e1e" stroke-width="1.88" stroke-linecap="round" stroke-linejoin="round"/>
<polyline points="218.55,43.48 213.25,40.95 215.67,34.23 222.6,39.29 218.55,43.48" fill="none" stroke="#1e1e1e" stroke-width="1.88" stroke-linecap="round" stroke-linejoin="round"/>
<polyline points="233.24,99.43 230.55,98.58 232.9,94.35 234.65,95.59 233.24,99.43" fill="none" stroke="#1e1e1e" stroke-width="1.88" stroke-linecap="round" stroke-linejoin="round"/>
<polyline points="217.02,68.51 209.91,66.62 208.71,62.94 215.34,53.72 219.82,62.06 217.02,68.51" fill="none" stroke="#1e1e1e" stroke-width="1.88" stroke-linecap="round" stroke-linejoin="round"/>
<polyline points="181.86,112.27 195.79,98.73 205.57,98.25 216.25,105.83 216.71,116.83 209.74,128.28 190.88,127.7 185.85,123.07 181.86,112.27" fill="none" stroke="#1e1e1e" stroke-width="1.88" stroke-linecap="round" stroke-linejoin="round"/>
<polyline points="53.23,157.46 50.19,156.59 50.97,152.9 54.48,153.88 53.23,157.46" fill="none" stroke="#1e1e1e" stroke-width="1.88" stroke-linecap="round" stroke-linejoin="round"/>
<polyline points="935.5,115.76 922.09,115.78 917.44,110.21 902.43,109.22 889.9,97.49 886.57,90.11 897.32,79.91 901.44,67.42 916.13,63.51 923.16,51.23 937.54,36.3 940.29,28.88 949.13,22.29 957.31,11.07 966.19,8.01 971.26,30.62 969.3,30.52 964.85,48.36 951.18,65.24 949.41,71.04 950.68,86.05 945,103.15 935.5,115.76" fill="none" stroke="#1e1e1e" stroke-width="1.88" stroke-linecap="round" stroke-linejoin="round"/>
<polyline points="24.06,736.3 34.58,734.43 41.12,729.45 47.45,730.87 54.36,729 62.7,720.8 73.48,718.56 78.76,712.53 89.99,711.58 99.16,702.23 107.19,684.11 123.88,680.86 129.64,676.4 147.97,675.91 152.31,669.7 174.65,661.24 180.74,653.27 200.49,651.23 216.12,652.84 229.13,646 233,646.42 241.03,637.72 250.32,634.1 262.91,633.74 278.13,638.36 285.2,636.72 289.78,641.25 297.19,639.22 308.5,644.08 311.2,647.65 315.52,639.71 323.88,636.85 326.21,640.58 336.73,630.93 361.05,625.92 376.7,609.78 386.51,608.57 393.02,604.54 402.95,591.57 410.59,565.15 421.31,563.64 425.59,567.33 423.99,566.6 423.03,568.39 420.75,566.73 415.75,568.4 416.34,571.51 423.28,573.95 424.94,571.13 429.41,572.42 431.85,569.69 429.56,571.64 422.11,569.51 423.92,568.36 423.96,567.11 429.59,568.38 441.59,561.15 471.67,537.92 474.51,538.74 476.48,543.78 476.59,537.1 480.21,534.36 499.88,537.82 503.13,532.46 506.73,531.49 509.88,534.89 507.83,532.28 507.56,530.51 517.62,520.72 535.5,515.26 541.06,517.52 565.63,501.76 572.13,500.15 582.51,485.51 589.84,468.25 592.57,451.2 597.45,444.66 613.45,429.89 621.87,430.62 629.86,428.05 646.41,411.15 643.01,373.37 649.14,358.9 647.32,346.22 652.63,339.3 662.06,316.45 714.41,295.86 765.31,293.6 772.89,285.79 782.45,286.92 786.19,282.61 808.65,277.69 822.2,270.63 841.85,269.89 854.14,275.06 856.69,272.47 857.77,276.23 868.76,272.62 873.17,276.97 878.11,271.16 874.71,266.27 889.29,266.51 906.41,254.46 931.72,264.14 937.9,260.5 951.24,258.27 954.18,251.23 951.12,249.41 950.24,243.47 954.05,245.18 958.05,243.63 959.26,247.81 966.72,248.73 972.8,246.34 984.84,246.79 993.11,252.99 997.87,254.37 1001.52,251.59 1003.25,254.19 1009.83,252.45 1009.73,248.57 1015.12,243.52 1018.47,246.96 1016.86,247.92 1021.09,249.75 1025.26,245.93 1031.57,246.55 1039.34,240.6 1054.89,238.94 1061.56,233.67 1068.71,233.84 1075.94,226.41 1081.24,226.41 1094.25,216.73 1117.71,218.65 1124.79,217.12 1137.82,220.32 1147.76,217.94 1157.8,223.33 1167.56,224.79 1171.2,222.93 1194.36,238.96 1207.17,238.96 1213.22,241.93 1221.2,240.03 1224.02,246.06 1227.19,242.68 1238.36,243.69 1242.77,239.43 1255.07,234.58 1263.75,236.78 1279.22,229.25 1293.6,233.9 1305.23,229.25 1323.27,233.65 1334,224.02 1349.36,220.39 1366.2,205.79 1384.97,202.19 1396.92,188.25 1404.29,185.94 1409.24,189.33 1430.2,181.24 1444.09,186.53 1453.14,194.37 1462.58,198.39 1483.2,203.14 1511.45,221.27 1518.8,222.39 1528.15,214.82 1537.84,214.92 1549.26,206.62 1599,186.53 1615.91,174.63 1620.38,174.73 1626.01,181.35 1633.51,185.31 1649.37,183.77 1656.48,176.49 1674.34,173.11 1703.05,156.46 1712.75,154.33 1738.13,135.68 1754.26,129.04 1777.7,126.24 1792.48,136.96 1805.19,139.49 1814.87,151.58 1840.04,154.08 1857.81,152.83 1867.78,147.89 1883.65,134.31 1893.27,135.09 1915.41,161.02 1920.81,160.99 1928.54,165.04 1949.38,167.07 1954.08,170.76 1955.09,193.1 1941.14,198.05 1933.67,209.99 1924.79,217.13 1913.31,221.49 1891.86,246.15 1841.56,279.48 1828.65,291.58 1805.49,320.81 1791.43,332.88 1784.54,344.09 1769.6,341.1 1750.69,342.8 1737.87,349.11 1727.2,359.34 1720.56,359.8 1711.92,364.5 1696.65,379.1 1670.51,389.12 1659.03,385.84 1645.42,385.8 1643.87,381.85 1634.58,381.48 1621.03,388.76 1607.63,386.96 1582.88,391.86 1561.81,402.54 1548.79,414.41 1532.45,413.08 1504.29,443.63 1484.11,474.69 1477.02,491.44 1466.16,500.97 1453.53,503.62 1449.12,500.94 1427.12,500.63 1393.05,510 1362.86,521.93 1350.37,522.63 1317.59,517.5 1291.77,519.12 1255.92,535.35 1234.75,551.56 1219.57,568.35 1202,575.37 1175.15,597.71 1148.94,611.84 1129.04,612.58 1094.41,606.82 1081.02,614.04 1074.02,622.79 1063.13,619.51 1047.06,624.35 1037.67,631.62 1021.25,632.28 1005.93,648.74 996.42,652.49 980.49,654.02 958.55,644.08 942.78,644.95 913.01,663.89 883.16,669.93 843.92,690.63 822.64,690.76 809.93,696.58 794.45,710.21 771.89,723.01 754.84,743.8 745.88,744.79 738.63,755.85 714.13,778.82 703.98,777.74 685.12,780.87 666.64,787.4 652.72,797.79 633.16,820.84 622.86,823.86 609.33,835.19" fill="none" stroke="#1e1e1e" stroke-width="1.88" stroke-linecap="round" stroke-linejoin="round"/>
<polyline points="22.34,737.34 24.06,736.3" fill="none" stroke="#1e1e1e" stroke-width="1.88" stroke-linecap="round" stroke-linejoin="round"/>
<polyline points="1966.68,201.26 1960.88,195.74 1959.91,187.14 1960.71,183.83 1968.99,180.96 1977.41,187.15 1980.01,196.77 1972.53,202.79 1966.68,201.26" fill="none" stroke="#1e1e1e" stroke-width="1.88" stroke-linecap="round" stroke-linejoin="round"/>
<polyline points="172.03,94.35 178.68,119.86 173.77,131.73 168.36,136.72 159.78,137.08 141.68,150.27 133.83,161.65 131.89,168.92 119.18,183.43 117.67,194.54 120.8,210.39 107.91,226.13 97.98,225.92 99.72,231.77 95.73,236.25 96.06,240.08 83.07,249.15 79.3,256.85 66.97,261.28 47.59,260.57 37.69,264.27 32.98,264.15 28.4,260.31 27.45,247.17 33.32,236.84 33.79,227.53 28.06,220.93 29.47,214.56 26.22,211.69 27.47,206.67 20.8,203.64 19.99,203.87" fill="none" stroke="#1e1e1e" stroke-width="1.88" stroke-linecap="round" stroke-linejoin="round"/>
<polyline points="19.61,117.05 29.36,109.8 39.66,115.65 45.16,122.23 47,138.04 44.03,148.56 45.8,151.8 48.59,147.41 52.76,150.08 46.9,152.81 47.46,161.59 49.79,159.69 54.86,161.2 53.96,159 57.21,160.25 58.1,170.09 58.4,166.45 60.77,169.42 63.79,165.41 65.1,168.92 67.64,162.82 67.01,156.13 59.96,159 56.54,152.45 60.83,150.79 62.38,152.53 65.01,148.52 58.06,149.55 67.23,145.67 68.56,144.1 61.06,147.32 73.35,140.77 85.08,124.74 93.56,121.31 91.93,119.52 94.79,107.68 105.53,97.51 111.04,100.27 114.98,97.71 121.43,88.41 122.34,80.92 127.57,74.83 131.63,61.88 143.44,49.03 161.67,38.13 183.57,41.27 189.79,55.32 187.59,71.49 175.1,85.87 172.03,94.35" fill="none" stroke="#1e1e1e" stroke-width="1.88" stroke-linecap="round" stroke-linejoin="round"/>
<polyline points="337.3,8.99 341.78,8.97" fill="none" stroke="#1e1e1e" stroke-width="1.88" stroke-linecap="round" stroke-linejoin="round"/>
<polyline points="349.22,8.95 350.66,8.95" fill="none" stroke="#1e1e1e" stroke-width="1.88" stroke-linecap="round" stroke-linejoin="round"/>
<polyline points="352.88,8.94 346.87,17.04 348.19,37.96 345.48,43.68 350.25,49.52 355.98,51.29 390.87,29.52 395.52,30.89 405.31,27.17 425.44,26.31 440.12,20.49 444.73,22.43 459.15,21.17 465.63,26.53 477.97,31.04 513.67,33.17 527.54,30.35 540.81,30.89 548.42,23.49 556.8,19.41 561.31,20.27 563.95,16.7 567.86,17.82 569.71,22.31 577.7,24.69 581.49,23.42 587.44,26.6 593.83,26.74 612.31,19.94 631.85,23.39 638.34,19.75 645.03,20.57 646.95,22.47 648.24,29.11 647.73,28.25 645.35,28.98 643.96,26.34 643.15,30.07 647.68,28.63 647.66,34.02 654.04,34.79 651.46,38.13 654.99,47.49 668.4,63.3 672.75,74.62 671.34,90.26 664.66,102.31 665.88,113.25 668.85,121.28 672.09,123.48 660.66,136 634.01,140.67 626.13,146.02 609.97,144.19 599.89,146.05 597.54,144.3 594.81,146.59 593.56,144.47 570.49,148.31 555.65,146.4 523.64,150.57 497.95,160.47 493.47,164.53 486.52,163.22 462.37,173.61 457.7,170.94 453.31,174.15 434.54,174.27 423.93,171.59 420.85,173.92 404.36,168.06 385.45,167.08 361.7,184.37 358.03,183.76 346.67,192.04 337.7,192.36 320.11,198.19 314.34,196.69 314.4,193.14 309.68,187.76 293.52,182.97 286.34,187.29 281.54,187.27 256.55,204.79 243.99,209.03 245.75,200.52 243.14,196.24 229.52,198.8 220.43,195.87 214.96,199.12 205.99,196.55 195.67,185.41 198,168.32 211.89,155.97 215,146.27 232.52,129.09 237.28,110.54 241.3,107.84 249.24,107.75 257.54,101.92 260.02,95.42 277.23,85.72 290.67,84.62 295.73,88.88 299.59,82.55 315.23,76.52 317.2,70.2 330.38,63.83 324.27,61.05 316.38,67.48 311.32,63.66 300.27,64.26 297.11,67.55 294.2,65.5 290.3,71.72 284.03,72.12 265.95,82.16 263.99,85.61 239.33,96.27 236.44,100.44 234.67,75.73 230.61,71.42 232.83,63.61 244.52,50.75 243.72,48.69 253.96,35.07 258.24,32.43 262.68,22.5 273.94,12.91 284.06,9.6 294.24,12.8 299.1,9.11" fill="none" stroke="#1e1e1e" stroke-width="1.88" stroke-linecap="round" stroke-linejoin="round"/>
<polyline points="312.22,9.06 314.27,10.12 316.22,9.05" fill="none" stroke="#1e1e1e" stroke-width="1.88" stroke-linecap="round" stroke-linejoin="round"/>
</svg>
