<?xml version="1.0" encoding="UTF-8" standalone="no"?>
<svg xmlns="http://www.w3.org/2000/svg" width="2000" height="845" viewBox="0 0 2000 845">
<rect width="2000" height="845" fill="#ffffff"/>
<path d="M22.93,736.12L24.71,736.11L28.85,734.29L31.82,735.48L37.73,732.45L41.27,729.43L44.83,730.62L48.39,730.6L54.9,728.77L56.66,725.76L62.57,720.93L70.27,720.3L75,717.28L77.35,713.67L79.12,712.46L81.5,713.05L89.79,711.81L94.51,708.19L96.28,704.58L99.23,702.17L101.58,697.95L102.16,694.35L103.93,691.94L104.51,688.93L107.45,684.12L118.11,680.47L124.04,681.05L128.17,676.83L130.54,676.22L132.91,676.81L138.24,674.99L141.8,675.58L142.98,674.97L147.72,676.15L151.85,670.13L160.14,667.7L174.93,661.64L179.06,654.42L181.42,653.21L183.79,653.2L185.58,654.39L192.68,651.97L200.38,651.34L215.21,653.09L225.27,649.45L229.41,645.83L232.38,646.42L233.56,645.82L237.1,641L238.88,640.39L240.65,637.99L250.12,634.35L257.23,634.93L263.75,633.71L273.25,637.28L275.02,636.67L277.4,638.46L279.18,637.86L280.36,638.45L280.98,645.66L282.17,648.66L281.59,651.06L283.37,651.65L279.82,653.47L278.64,655.87L275.09,658.29L273.35,668.5L274.54,670.9L273.36,672.1L273.97,676.91L272.2,679.91L272.21,681.71L273.4,682.91L266.32,693.14L267.52,697.94L266.95,703.95L268.13,704.55L271.11,709.94L270.54,714.75L266.4,718.96L262.25,717.18L260.48,720.78L258.12,722.59L256.97,734.01L255.2,734.61L254.6,732.81L252.82,734.02L251.64,732.82L249.86,732.83L248.09,735.24L245.72,734.65L242.76,735.26L241.58,736.46L240.98,735.26L236.84,737.68L235.67,741.29L236.27,743.08L235.08,743.69L235.09,744.89L230.36,747.91L229.18,749.71L227.4,750.32L225.62,748.53L222.65,747.94L221.5,755.75L219.14,760.56L220.92,760.55L222.11,762.35L222.12,765.35L223.9,766.55L222.14,769.56L222.73,770.75L221.56,773.16L219.19,773.77L220.38,776.17L219.2,777.37L218.61,776.77L216.84,777.98L216.84,780.38L213.9,784.6L205.62,789.43L205.06,797.84L207.43,799.63L209.21,799.63L212.18,802.02L212.2,805.62L213.39,809.22L213.4,810.42L209.26,812.24L209.26,814.04L208.08,815.24L209.27,816.44L208.68,817.64L209.28,818.84L207.52,823.05L208.12,824.85L205.16,825.46L200.41,823.68L189.77,827.92L186.82,830.93L183.86,831.54L183.26,830.95L177.93,830.97L174.39,833.38L173.81,835.78L171.43,835.19L167.89,836.41L165.51,835.22L163.74,835.82L162.55,835.23L163.11,827.42L164.88,825.01L165.46,821.4L168.41,817.19L167.21,814.79L167.8,812.99L166.01,810.59L166,806.99L167.77,805.78L163,796.79L160.03,794.4L160.02,793.2L161.21,793.2L161.2,792L160.6,789L159.41,789L160,786.6L158.21,783L158.79,781.2L156.42,780.6L155.82,778.2L153.44,776.41L152.24,771.61L147.49,769.83L142.14,764.45L139.17,763.86L136.79,759.06L133.83,759.67L132.04,757.88L127.29,755.5L126.69,753.7L123.14,754.91L121.37,756.72L120.19,756.13L118.41,756.73L117.83,758.54L118.42,760.34L114.28,761.55L111.32,760.96L110.15,764.57L105.42,767.59L100.68,768.21L99.51,770.02L97.14,770.63L97.15,772.43L99.52,774.22L97.75,775.43L97.17,777.24L92.45,782.06L94.24,785.05L88.92,788.08L86.55,788.09L87.15,789.89L85.97,791.09L84.18,788.7L77.08,789.93L73.5,784.54L71.72,783.95L71.12,782.15L71.71,780.94L68.73,778.55L67.55,778.56L66.37,780.37L65.18,778.57L63.4,778.58L63.41,780.38L60.45,779.79L57.49,780.4L55.11,779.21L52.13,773.82L47.37,769.04L41.4,759.45L37.83,756.47L37.23,754.67L35.45,754.08L34.25,749.88L31.28,748.09L30.67,745.09L27.12,745.11L26.51,742.11L25.32,740.91L23.55,741.52L22.95,740.92L22.35,738.52L22.93,736.12Z" fill-rule="evenodd" fill="#4682b4" fill-opacity="0.471"/>
<polyline points="22.93,736.12 24.71,736.11 28.85,734.29 31.82,735.48 37.73,732.45 41.27,729.43 44.83,730.62 48.39,730.6 54.9,728.77 56.66,725.76 62.57,720.93 70.27,720.3 75,717.28 77.35,713.67 79.12,712.46 81.5,713.05 89.79,711.81 94.51,708.19 96.28,704.58 99.23,702.17 101.58,697.95 102.16,694.35 103.93,691.94 104.51,688.93 107.45,684.12 118.11,680.47 124.04,681.05 128.17,676.83 130.54,676.22 132.91,676.81 138.24,674.99 141.8,675.58 142.98,674.97 147.72,676.15 151.85,670.13 160.14,667.7 174.93,661.64 179.06,654.42 181.42,653.21 183.79,653.2 185.58,654.39 192.68,651.97 200.38,651.34 215.21,653.09 225.27,649.45 229.41,645.83 232.38,646.42 233.56,645.82 237.1,641 238.88,640.39 240.65,637.99 250.12,634.35 257.23,634.93 263.75,633.71 273.25,637.28 275.02,636.67 277.4,638.46 279.18,637.86 280.36,638.45 280.98,645.66 282.17,648.66 281.59,651.06 283.37,651.65 279.82,653.47 278.64,655.87 275.09,658.29 273.35,668.5 274.54,670.9 273.36,672.1 273.97,676.91 272.2,679.91 272.21,681.71 273.4,682.91 266.32,693.14 267.52,697.94 266.95,703.95 268.13,704.55 271.11,709.94 270.54,714.75 266.4,718.96 262.25,717.18 260.48,720.78 258.12,722.59 256.97,734.01 255.2,734.61 254.6,732.81 252.82,734.02 251.64,732.82 249.86,732.83 248.09,735.24 245.72,734.65 242.76,735.26 241.58,736.46 240.98,735.26 236.84,737.68 235.67,741.29 236.27,743.08 235.08,743.69 235.09,744.89 230.36,747.91 229.18,749.71 227.4,750.32 225.62,748.53 222.65,747.94 221.5,755.75 219.14,760.56 220.92,760.55 222.11,762.35 222.12,765.35 223.9,766.55 222.14,769.56 222.73,770.75 221.56,773.16 219.19,773.77 220.38,776.17 219.2,777.37 218.61,776.77 216.84,777.98 216.84,780.38 213.9,784.6 205.62,789.43 205.06,797.84 207.43,799.63 209.21,799.63 212.18,802.02 212.2,805.62 213.39,809.22 213.4,810.42 209.26,812.24 209.26,814.04 208.08,815.24 209.27,816.44 208.68,817.64 209.28,818.84 207.52,823.05 208.12,824.85 205.16,825.46 200.41,823.68 189.77,827.92 186.82,830.93 183.86,831.54 183.26,830.95 177.93,830.97 174.39,833.38 173.81,835.78 171.43,835.19 167.89,836.41 165.51,835.22 163.74,835.82 162.55,835.23 163.11,827.42 164.88,825.01 165.46,821.4 168.41,817.19 167.21,814.79 167.8,812.99 166.01,810.59 166,806.99 167.77,805.78 163,796.79 160.03,794.4 160.02,793.2 161.21,793.2 161.2,792 160.6,789 159.41,789 160,786.6 158.21,783 158.79,781.2 156.42,780.6 155.82,778.2 153.44,776.41 152.24,771.61 147.49,769.83 142.14,764.45 139.17,763.86 136.79,759.06 133.83,759.67 132.04,757.88 127.29,755.5 126.69,753.7 123.14,754.91 121.37,756.72 120.19,756.13 118.41,756.73 117.83,758.54 118.42,760.34 114.28,761.55 111.32,760.96 110.15,764.57 105.42,767.59 100.68,768.21 99.51,770.02 97.14,770.63 97.15,772.43 99.52,774.22 97.75,775.43 97.17,777.24 92.45,782.06 94.24,785.05 88.92,788.08 86.55,788.09 87.15,789.89 85.97,791.09 84.18,788.7 77.08,789.93 73.5,784.54 71.72,783.95 71.12,782.15 71.71,780.94 68.73,778.55 67.55,778.56 66.37,780.37 65.18,778.57 63.4,778.58 63.41,780.38 60.45,779.79 57.49,780.4 55.11,779.21 52.13,773.82 47.37,769.04 41.4,759.45 37.83,756.47 37.23,754.67 35.45,754.08 34.25,749.88 31.28,748.09 30.67,745.09 27.12,745.11 26.51,742.11 25.32,740.91 23.55,741.52 22.95,740.92 22.35,738.52 22.93,736.12" fill="none" stroke="#1e1e1e" stroke-width="1.88" stroke-linecap="round" stroke-linejoin="round"/>
<path d="M1973.49,200.49L1972.89,202.89L1969.92,202.27L1968.14,201.06L1966.36,201.06L1964.59,198.65L1961.04,196.23L1959.87,191.42L1960.5,183.62L1961.69,183.62L1965.26,181.23L1969.42,181.25L1975.34,184.88L1978.88,189.7L1980.04,196.31L1978.25,199.31L1975.87,200.5L1973.49,200.49Z" fill-rule="evenodd" fill="#4682b4" fill-opacity="0.471"/>
<polyline points="1973.49,200.49 1972.89,202.89 1969.92,202.27 1968.14,201.06 1966.36,201.06 1964.59,198.65 1961.04,196.23 1959.87,191.42 1960.5,183.62 1961.69,183.62 1965.26,181.23 1969.42,181.25 1975.34,184.88 1978.88,189.7 1980.04,196.31 1978.25,199.31 1975.87,200.5 1973.49,200.49" fill="none" stroke="#1e1e1e" stroke-width="1.88" stroke-linecap="round" stroke-linejoin="round"/>
<path d="M956.6,12.21L957.2,11.01L966.71,8L967.3,11L968.49,12.21L967.9,14.61L969.68,18.21L969.09,20.61L970.28,27.82L970.28,30.22L969.09,30.22L969.69,35.02L968.5,38.03L965.53,41.03L964.93,48.24L960.77,51.84L957.8,56.04L955.42,57.24L951.27,65.65L950.67,69.86L949.48,71.06L950.08,73.46L949.49,81.27L950.68,86.07L948.3,94.48L945.33,99.88L944.74,102.88L942.36,105.29L937.02,114.29L934.64,116.1L932.86,116.1L932.26,117.3L929.29,115.5L928.1,116.1L922.16,115.5L922.16,113.7L920.97,113.1L919.19,113.7L918.6,111.3L916.81,110.1L914.44,110.7L904.34,110.1L901.36,108.3L890.07,97.5L888.28,95.1L886.5,90.3L888.28,87.29L896.6,80.68L898.97,77.68L899.56,70.47L900.75,68.07L904.91,65.07L909.07,64.46L913.82,65.06L916.2,63.26L918.58,57.86L921.55,56.05L921.55,53.65L923.92,50.05L926.3,48.85L929.86,44.04L936.4,38.03L938.78,33.83L939.37,30.23L943.53,27.82L948.88,23.02L956.6,12.21Z" fill-rule="evenodd" fill="#4682b4" fill-opacity="0.471"/>
<polyline points="956.6,12.21 957.2,11.01 966.71,8 967.3,11 968.49,12.21 967.9,14.61 969.68,18.21 969.09,20.61 970.28,27.82 970.28,30.22 969.09,30.22 969.69,35.02 968.5,38.03 965.53,41.03 964.93,48.24 960.77,51.84 957.8,56.04 955.42,57.24 951.27,65.65 950.67,69.86 949.48,71.06 950.08,73.46 949.49,81.27 950.68,86.07 948.3,94.48 945.33,99.88 944.74,102.88 942.36,105.29 937.02,114.29 934.64,116.1 932.86,116.1 932.26,117.3 929.29,115.5 928.1,116.1 922.16,115.5 922.16,113.7 920.97,113.1 919.19,113.7 918.6,111.3 916.81,110.1 914.44,110.7 904.34,110.1 901.36,108.3 890.07,97.5 888.28,95.1 886.5,90.3 888.28,87.29 896.6,80.68 898.97,77.68 899.56,70.47 900.75,68.07 904.91,65.07 909.07,64.46 913.82,65.06 916.2,63.26 918.58,57.86 921.55,56.05 921.55,53.65 923.92,50.05 926.3,48.85 929.86,44.04 936.4,38.03 938.78,33.83 939.37,30.23 943.53,27.82 948.88,23.02 956.6,12.21" fill="none" stroke="#1e1e1e" stroke-width="1.88" stroke-linecap="round" stroke-linejoin="round"/>
<path d="M559.9,508.02L559.3,507.42L565.22,502.01L571.75,500.19L575.3,497.79L578.25,490.57L581.81,487.57L585.34,475.55L590.07,468.34L590.07,464.73L591.84,459.93L591.83,455.72L593.01,450.92L597.74,444.9L598.93,444.9L600.11,441.9L601.89,441.29L606.04,436.48L610.18,434.07L610.77,431.67L612.55,431.67L613.74,429.86L622.04,430.45L629.75,427.44L635.09,422.62L636.86,422.02L641.01,416.61L644.57,414.2L646.34,411.2L647.52,405.19L644.52,382.98L643.32,379.98L643.91,378.17L643.32,376.37L643.9,372.17L646.27,369.16L649.23,358.95L648.62,349.35L647.42,346.34L649.79,342.14L652.76,339.13L653.34,333.13L661.63,319.3L662.22,316.3L666.37,315.69L667.56,314.49L668.75,315.09L679.42,310.27L681.8,308.46L688.92,306.05L690.1,304.25L693.66,303.64L704.94,298.83L710.28,298.22L714.43,295.81L718,296.41L720.96,295.2L728.09,294.59L736.4,295.18L738.18,293.98L750.05,295.17L765.49,293.35L769.64,289.74L772.01,286.14L773.79,285.53L782.7,286.73L786.26,282.52L795.16,281.91L798.72,279.51L808.22,277.7L817.72,272.28L822.46,270.48L831.96,270.47L837.31,269.27L847.4,272.86L848,272.26L850.37,273.46L852.15,272.86L853.94,275.26L857.5,275.86L858.69,275.86L859.28,274.66L862.84,274.65L864.03,273.45L868.19,273.45L868.78,272.85L869.38,276.45L872.94,277.05L878.28,271.04L875.9,266.84L876.49,265.64L887.78,266.83L891.34,265.63L895.49,260.82L906.18,254.82L912.12,256.61L916.28,259.61L921.03,260.81L926.37,260.81L930.53,264.41L935.28,262.61L936.46,260.81L938.84,260.21L940.62,260.81L945.37,260.21L947.75,259L948.93,259.6L950.72,259L954.28,253.6L953.68,253L954.28,250.6L951.31,249.4L950.71,245.19L949.52,244.59L950.12,243.39L953.68,245.19L956.06,244.59L957.24,243.39L958.43,243.99L959.03,247.59L961.4,248.19L964.37,246.99L964.37,248.19L966.75,248.79L968.53,247.59L970.9,248.19L973.87,246.99L982.78,247.59L984.56,246.99L985.75,248.79L987.53,248.79L994.06,252.39L993.47,253.59L998.22,254.19L998.22,253.59L1000.59,253.59L1001.78,251.79L1004.16,254.2L1007.72,251.79L1009.5,252.39L1010.09,249.99L1009.5,248.79L1013.06,245.79L1013.06,243.99L1014.85,243.39L1017.22,244.59L1016.63,248.19L1020.78,249.99L1021.97,248.19L1026.13,245.79L1031.47,247.59L1033.85,245.19L1035.63,244.59L1039.19,240.39L1043.94,239.19L1046.32,239.79L1048.1,238.59L1050.48,239.79L1052.85,238.59L1055.82,238.59L1056.42,236.79L1061.17,234.99L1061.76,233.79L1066.51,234.39L1068.89,233.79L1074.23,230.19L1076.02,226.59L1077.8,225.99L1080.77,226.59L1095.03,216.99L1111.06,218.2L1114.03,217.6L1117.59,218.8L1120.56,217L1123.53,217.6L1124.13,217L1128.88,218.81L1137.78,220.61L1141.94,218.81L1144.32,219.42L1147.88,218.22L1150.26,219.42L1152.63,218.82L1155.01,220.62L1155.6,222.43L1157.38,223.03L1161.54,223.03L1168.07,224.84L1169.85,223.04L1171.63,223.04L1172.82,224.24L1175.2,224.84L1179.94,230.25L1182.32,231.45L1184.1,230.85L1185.29,231.45L1194.19,238.67L1200.13,239.87L1207.25,238.68L1212,241.69L1220.91,239.89L1223.28,241.7L1222.69,244.1L1223.28,245.3L1227.44,242.9L1236.35,244.11L1246.45,237.52L1248.23,238.12L1251.2,237.52L1255.36,234.53L1258.92,234.53L1262.48,236.94L1263.67,236.94L1266.64,233.94L1269.61,232.74L1276.15,232.15L1278.53,229.15L1293.37,233.97L1295.74,233.98L1304.66,229.18L1315.94,231.6L1321.87,234.01L1326.03,232.22L1334.95,223.82L1337.33,224.43L1339.71,223.23L1342.08,223.23L1346.24,220.84L1348.62,220.84L1356.35,214.85L1361.7,208.85L1366.46,205.86L1370.03,204.06L1384.88,202.29L1389.05,195.69L1396.78,188.5L1401.53,187.91L1403.32,186.11L1405.1,186.11L1406.88,188.52L1409.25,189.12L1411.04,187.32L1430.06,181.35L1434.81,183.77L1440.74,184.98L1444.9,186.79L1449.05,191.6L1459.13,197.03L1460.32,196.43L1462.69,198.23L1470.41,199.45L1474.57,201.26L1475.75,200.66L1483.47,203.08L1485.84,205.49L1490.59,207.9L1493.55,210.91L1498.3,212.12L1503.05,214.53L1511.94,221.76L1516.69,221.17L1517.87,222.37L1519.06,222.38L1522.63,220.58L1527.99,214.59L1533.33,215.21L1538.09,214.62L1544.63,208.63L1563.06,202.67L1573.77,195.49L1576.74,194.9L1585.07,190.72L1589.82,190.13L1598.74,186.55L1616.59,174.59L1620.16,174.6L1622.53,176.41L1626.08,181.22L1630.23,184.23L1633.79,185.45L1637.95,186.06L1645.68,183.68L1649.24,183.69L1651.62,182.49L1655.2,177.1L1656.39,176.5L1662.92,175.92L1664.7,176.53L1671.25,173.55L1674.81,172.96L1676.6,170.56L1680.17,169.97L1684.93,167.58L1702.79,156.23L1706.35,155.04L1709.92,155.65L1713.49,153.86L1714.09,152.06L1715.87,152.07L1720.63,149.68L1734.93,137.72L1737.9,135.93L1748.02,132.36L1753.97,128.78L1773.58,127.64L1778.34,126.46L1781.3,128.87L1783.67,129.48L1786.04,132.49L1792.56,136.72L1796.12,137.93L1797.91,136.74L1805.03,139.76L1813.9,149.4L1815.08,151.81L1824.59,152.45L1826.96,151.85L1829.93,153.07L1837.06,153.09L1840.02,154.3L1842.4,153.71L1849.53,154.34L1851.32,153.15L1857.26,153.17L1861.43,150.78L1863.8,150.79L1868.57,147.21L1875.73,139.43L1879.3,138.24L1884.07,134.06L1887.03,135.27L1892.38,134.69L1894.16,135.3L1897.12,138.32L1898.29,143.12L1903.62,147.95L1907.75,153.97L1910.71,155.78L1911.89,158.19L1914.86,160L1915.45,161.21L1917.23,160.62L1920.79,161.23L1929.09,164.87L1934.44,164.29L1936.82,164.9L1938,166.11L1942.15,166.72L1944.53,166.13L1946.9,167.34L1951.06,167.36L1954.02,170.98L1954.58,179.39L1956.33,184.8L1955.71,192.6L1950.94,195.58L1943.22,196.75L1939.64,199.14L1936.66,202.73L1936.04,206.93L1933.66,209.92L1930.68,211.71L1930.08,213.51L1922.34,218.28L1915.2,220.05L1912.82,221.85L1911.02,226.04L1903.87,231.42L1900.89,235.61L1900.28,238.61L1892.53,245.78L1885.38,251.16L1880.63,252.94L1875.26,257.72L1872.88,258.31L1872.29,259.51L1869.91,259.5L1868.12,261.9L1864.55,263.08L1858.6,267.86L1855.03,269.05L1853.24,272.05L1843.71,278.02L1842.52,279.81L1841.93,279.21L1834.77,287.59L1830.6,291.18L1828.82,291.17L1827.02,295.37L1824.64,298.36L1818.68,303.74L1815.1,309.13L1812.72,310.32L1812.71,312.13L1807.94,319.31L1791.86,333.07L1787.08,342.66L1785.29,343.25L1784.69,345.05L1778.17,343.23L1774.01,343.81L1772.24,343.21L1771.06,341.4L1768.68,341.39L1768.08,343.19L1765.7,343.78L1763.34,340.77L1761.56,341.37L1760.96,343.17L1759.77,343.16L1758.59,341.36L1756.81,341.95L1754.44,341.34L1753.24,342.54L1750.87,342.53L1749.68,344.33L1746.11,346.12L1743.73,346.11L1735.41,350.89L1729.46,355.67L1728.86,357.47L1726.48,359.86L1720.54,359.84L1708.05,367.01L1698.53,376.59L1698.52,377.79L1694.36,380.78L1690.2,382.57L1687.82,384.96L1679.51,385.53L1677.72,386.73L1674.76,386.72L1669.41,389.71L1666.44,389.1L1664.67,387.29L1658.74,386.07L1654.58,387.26L1649.84,384.85L1648.06,385.44L1645.68,384.83L1645.1,383.03L1641.54,381.22L1637.38,381.81L1634.42,381.2L1628.48,383.58L1621.94,387.17L1621.34,388.37L1618.97,388.96L1610.07,386.53L1588.1,390.08L1576.22,394.85L1567.31,400.23L1566.72,399.63L1555.42,408.01L1548.88,414.6L1534.05,412.76L1528.1,416.35L1525.12,421.74L1516.8,427.73L1502.52,445.71L1497.16,454.1L1495.97,457.7L1494.78,457.7L1490.61,464.9L1490.01,467.3L1488.23,467.89L1484.07,474.49L1476.91,491.89L1470.97,496.08L1469.78,498.48L1466.81,500.87L1453.75,503.85L1450.79,503.24L1450.2,502.04L1448.42,501.44L1441.89,501.42L1441.3,500.82L1436.55,502.01L1427.07,500.79L1421.13,501.98L1410.45,505.56L1393.24,509.74L1362.97,521.69L1350.52,522.88L1350.52,521.07L1348.74,521.67L1317.31,517.42L1302.48,517.4L1291.8,519.19L1265.1,529.96L1256.79,534.76L1245.52,542.55L1233.05,553.34L1218.8,568.94L1211.69,570.74L1196.86,578.53L1174.9,597.72L1162.45,603.12L1152.96,609.72L1147.62,612.12L1144.06,613.31L1127.46,612.7L1103.75,607.29L1095.45,606.68L1089.52,608.48L1084.18,612.68L1081.22,613.88L1078.25,619.89L1076.47,621.69L1073.51,622.89L1068.77,619.88L1064.62,619.28L1055.73,621.68L1053.35,623.48L1046.83,624.08L1044.46,628.28L1040.31,629.48L1037.94,631.89L1033.2,632.48L1029.05,630.68L1021.93,631.88L1016.6,635.49L1006.52,648.09L1004.74,649.3L998.81,650.5L995.26,652.9L989.33,653.5L978.66,652.3L962.06,645.1L952.58,643.3L943.69,644.5L935.98,647.5L921.76,658.32L912.87,663.72L904.57,664.33L903.39,665.53L897.46,665.53L887.39,667.94L874.35,674.55L858.95,684.17L844.14,689.58L834.06,688.99L822.8,690.8L810.95,696.21L790.23,712.44L784.3,714.85L779.57,718.46L773.64,721.47L761.8,733.49L759.44,738.3L754.71,744.31L749.97,743.11L745.23,744.92L742.86,746.72L741.08,749.13L738.13,756.93L734.58,758.14L733.4,759.94L729.84,762.35L729.85,763.55L713.87,779.18L703.8,778L682.48,781.63L670.63,785.25L659.98,791.87L654.06,796.68L641.65,810.51L642.24,808.11L640.45,805.71L641.64,803.31L639.86,802.71L639.26,800.91L638.08,800.31L638.07,798.51L636.89,797.91L638.07,796.11L638.07,794.91L636.88,793.71L638.06,792.5L638.06,790.7L636.88,790.7L638.06,788.9L636.28,788.3L638.05,785.3L636.27,784.7L636.27,782.3L638.04,780.49L635.67,776.3L635.66,770.89L637.43,767.89L636.83,765.48L635.65,765.49L634.46,762.49L631.5,761.89L629.71,759.49L629.71,757.09L628.52,755.89L626.16,756.5L624.97,755.3L624.96,752.89L620.81,751.1L619.02,744.5L619.62,743.3L619.02,741.5L620.2,740.89L619.6,733.09L620.78,731.28L619,729.49L619,727.68L615.44,725.29L613.66,725.29L611.88,727.1L610.7,727.1L607.14,725.3L605.95,721.7L603.58,720.51L593.48,709.72L588.15,709.12L586.37,706.73L588.73,701.32L586.94,696.52L586.94,694.72L588.12,692.91L588.11,689.91L586.33,689.31L582.18,685.72L580.99,682.72L581.58,680.31L580.98,680.32L579.2,676.12L579.79,674.31L579.15,653.3L579.74,647.29L581.52,647.89L585.66,644.28L588.62,645.47L596.91,638.25L598.09,634.05L605.2,635.24L609.35,634.63L611.13,637.03L615.28,636.42L620.61,634.01L622.99,634.6L625.36,636.4L628.32,636.4L629.51,637.6L631.88,637.59L634.26,638.79L635.45,642.39L637.23,643.59L637.23,645.39L639.01,645.99L640.2,647.79L646.73,652.58L650.28,651.37L651.46,649.57L652.65,650.17L659.16,644.15L661.53,644.15L663.9,641.74L665.08,641.74L668.64,639.34L668.63,637.53L672.19,636.33L673.97,636.93L675.15,635.72L677.52,635.12L682.27,636.31L692.94,636.9L695.9,633.89L696.49,632.09L698.27,631.49L699.45,628.48L702.41,627.88L704.19,626.07L700.03,621.88L700.03,619.48L697.06,619.48L695.28,618.28L694.1,616.48L694.69,615.28L692.31,611.68L691.71,608.08L692.3,603.87L694.08,602.67L695.86,603.87L696.45,602.67L692.88,596.07L694.66,595.46L695.84,591.86L695.24,590.06L696.43,588.26L697.01,582.25L699.38,580.45L699.97,576.84L701.16,576.24L698.78,570.24L699.37,568.44L701.73,566.03L701.14,561.83L702.32,560.63L699.35,554.03L699.34,551.02L700.53,549.82L699.93,548.02L693.4,544.43L684.5,537.83L681.53,533.03L676.78,529.44L670.85,530.05L668.47,527.65L666.68,523.45L661.34,516.25L657.18,512.06L655.99,512.06L651.25,516.27L650.08,527.08L645.95,534.89L643.58,536.7L642.39,539.1L638.25,540.91L635.29,545.72L632.92,546.32L630.55,548.73L628.77,549.33L624.03,548.74L621.07,551.74L614.54,551.76L613.95,552.96L611.58,552.36L610.99,554.76L608.62,555.37L608.62,557.77L607.44,558.97L605.07,558.98L603.88,557.78L602.1,558.98L602.7,562.58L602.11,563.19L599.74,563.79L596.77,562.6L594.99,563.2L593.81,565L594.41,566.8L593.82,568.61L591.45,571.01L587.89,571.62L585.52,571.02L583.15,569.23L581.96,571.03L578.41,572.84L577.81,570.44L572.47,569.85L572.47,566.84L570.69,566.25L568.91,568.05L563.57,567.46L561.78,562.06L560.6,562.06L560.01,563.87L558.82,564.47L557.63,562.07L555.85,562.07L554.67,560.87L554.07,558.47L555.25,556.07L554.65,554.87L549.31,549.48L549.89,543.47L552.85,544.07L552.25,536.86L552.83,533.86L551.05,532.66L551.05,529.66L554.59,523.05L554.59,520.64L561.69,512.22L561.09,508.62L559.9,508.02Z" fill-rule="evenodd" fill="#4682b4" fill-opacity="0.471"/>
<polyline points="559.9,508.02 559.3,507.42 565.22,502.01 571.75,500.19 575.3,497.79 578.25,490.57 581.81,487.57 585.34,475.55 590.07,468.34 590.07,464.73 591.84,459.93 591.83,455.72 593.01,450.92 597.74,444.9 598.93,444.9 600.11,441.9 601.89,441.29 606.04,436.48 610.18,434.07 610.77,431.67 612.55,431.67 613.74,429.86 622.04,430.45 629.75,427.44 635.09,422.62 636.86,422.02 641.01,416.61 644.57,414.2 646.34,411.2 647.52,405.19 644.52,382.98 643.32,379.98 643.91,378.17 643.32,376.37 643.9,372.17 646.27,369.16 649.23,358.95 648.62,349.35 647.42,346.34 649.79,342.14 652.76,339.13 653.34,333.13 661.63,319.3 662.22,316.3 666.37,315.69 667.56,314.49 668.75,315.09 679.42,310.27 681.8,308.46 688.92,306.05 690.1,304.25 693.66,303.64 704.94,298.83 710.28,298.22 714.43,295.81 718,296.41 720.96,295.2 728.09,294.59 736.4,295.18 738.18,293.98 750.05,295.17 765.49,293.35 769.64,289.74 772.01,286.14 773.79,285.53 782.7,286.73 786.26,282.52 795.16,281.91 798.72,279.51 808.22,277.7 817.72,272.28 822.46,270.48 831.96,270.47 837.31,269.27 847.4,272.86 848,272.26 850.37,273.46 852.15,272.86 853.94,275.26 857.5,275.86 858.69,275.86 859.28,274.66 862.84,274.65 864.03,273.45 868.19,273.45 868.78,272.85 869.38,276.45 872.94,277.05 878.28,271.04 875.9,266.84 876.49,265.64 887.78,266.83 891.34,265.63 895.49,260.82 906.18,254.82 912.12,256.61 916.28,259.61 921.03,260.81 926.37,260.81 930.53,264.41 935.28,262.61 936.46,260.81 938.84,260.21 940.62,260.81 945.37,260.21 947.75,259 948.93,259.6 950.72,259 954.28,253.6 953.68,253 954.28,250.6 951.31,249.4 950.71,245.19 949.52,244.59 950.12,243.39 953.68,245.19 956.06,244.59 957.24,243.39 958.43,243.99 959.03,247.59 961.4,248.19 964.37,246.99 964.37,248.19 966.75,248.79 968.53,247.59 970.9,248.19 973.87,246.99 982.78,247.59 984.56,246.99 985.75,248.79 987.53,248.79 994.06,252.39 993.47,253.59 998.22,254.19 998.22,253.59 1000.59,253.59 1001.78,251.79 1004.16,254.2 1007.72,251.79 1009.5,252.39 1010.09,249.99 1009.5,248.79 1013.06,245.79 1013.06,243.99 1014.85,243.39 1017.22,244.59 1016.63,248.19 1020.78,249.99 1021.97,248.19 1026.13,245.79 1031.47,247.59 1033.85,245.19 1035.63,244.59 1039.19,240.39 1043.94,239.19 1046.32,239.79 1048.1,238.59 1050.48,239.79 1052.85,238.59 1055.82,238.59 1056.42,236.79 1061.17,234.99 1061.76,233.79 1066.51,234.39 1068.89,233.79 1074.23,230.19 1076.02,226.59 1077.8,225.99 1080.77,226.59 1095.03,216.99 1111.06,218.2 1114.03,217.6 1117.59,218.8 1120.56,217 1123.53,217.6 1124.13,217 1128.88,218.81 1137.78,220.61 1141.94,218.81 1144.32,219.42 1147.88,218.22 1150.26,219.42 1152.63,218.82 1155.01,220.62 1155.6,222.43 1157.38,223.03 1161.54,223.03 1168.07,224.84 1169.85,223.04 1171.63,223.04 1172.82,224.24 1175.2,224.84 1179.94,230.25 1182.32,231.45 1184.1,230.85 1185.29,231.45 1194.19,238.67 1200.13,239.87 1207.25,238.68 1212,241.69 1220.91,239.89 1223.28,241.7 1222.69,244.1 1223.28,245.3 1227.44,242.9 1236.35,244.11 1246.45,237.52 1248.23,238.12 1251.2,237.52 1255.36,234.53 1258.92,234.53 1262.48,236.94 1263.67,236.94 1266.64,233.94 1269.61,232.74 1276.15,232.15 1278.53,229.15 1293.37,233.97 1295.74,233.98 1304.66,229.18 1315.94,231.6 1321.87,234.01 1326.03,232.22 1334.95,223.82 1337.33,224.43 1339.71,223.23 1342.08,223.23 1346.24,220.84 1348.62,220.84 1356.35,214.85 1361.7,208.85 1366.46,205.86 1370.03,204.06 1384.88,202.29 1389.05,195.69 1396.78,188.5 1401.53,187.91 1403.32,186.11 1405.1,186.11 1406.88,188.52 1409.25,189.12 1411.04,187.32 1430.06,181.35 1434.81,183.77 1440.74,184.98 1444.9,186.79 1449.05,191.6 1459.13,197.03 1460.32,196.43 1462.69,198.23 1470.41,199.45 1474.57,201.26 1475.75,200.66 1483.47,203.08 1485.84,205.49 1490.59,207.9 1493.55,210.91 1498.3,212.12 1503.05,214.53 1511.94,221.76 1516.69,221.17 1517.87,222.37 1519.06,222.38 1522.63,220.58 1527.99,214.59 1533.33,215.21 1538.09,214.62 1544.63,208.63 1563.06,202.67 1573.77,195.49 1576.74,194.9 1585.07,190.72 1589.82,190.13 1598.74,186.55 1616.59,174.59 1620.16,174.6 1622.53,176.41 1626.08,181.22 1630.23,184.23 1633.79,185.45 1637.95,186.06 1645.68,183.68 1649.24,183.69 1651.62,182.49 1655.2,177.1 1656.39,176.5 1662.92,175.92 1664.7,176.53 1671.25,173.55 1674.81,172.96 1676.6,170.56 1680.17,169.97 1684.93,167.58 1702.79,156.23 1706.35,155.04 1709.92,155.65 1713.49,153.86 1714.09,152.06 1715.87,152.07 1720.63,149.68 1734.93,137.72 1737.9,135.93 1748.02,132.36 1753.97,128.78 1773.58,127.64 1778.34,126.46 1781.3,128.87 1783.67,129.48 1786.04,132.49 1792.56,136.72 1796.12,137.93 1797.91,136.74 1805.03,139.76 1813.9,149.4 1815.08,151.81 1824.59,152.45 1826.96,151.85 1829.93,153.07 1837.06,153.09 1840.02,154.3 1842.4,153.71 1849.53,154.34 1851.32,153.15 1857.26,153.17 1861.43,150.78 1863.8,150.79 1868.57,147.21 1875.73,139.43 1879.3,138.24 1884.07,134.06 1887.03,135.27 1892.38,134.69 1894.16,135.3 1897.12,138.32 1898.29,143.12 1903.62,147.95 1907.75,153.97 1910.71,155.78 1911.89,158.19 1914.86,160 1915.45,161.21 1917.23,160.62 1920.79,161.23 1929.09,164.87 1934.44,164.29 1936.82,164.9 1938,166.11 1942.15,166.72 1944.53,166.13 1946.9,167.34 1951.06,167.36 1954.02,170.98 1954.58,179.39 1956.33,184.8 1955.71,192.6 1950.94,195.58 1943.22,196.75 1939.64,199.14 1936.66,202.73 1936.04,206.93 1933.66,209.92 1930.68,211.71 1930.08,213.51 1922.34,218.28 1915.2,220.05 1912.82,221.85 1911.02,226.04 1903.87,231.42 1900.89,235.61 1900.28,238.61 1892.53,245.78 1885.38,251.16 1880.63,252.94 1875.26,257.72 1872.88,258.31 1872.29,259.51 1869.91,259.5 1868.12,261.9 1864.55,263.08 1858.6,267.86 1855.03,269.05 1853.24,272.05 1843.71,278.02 1842.52,279.81 1841.93,279.21 1834.77,287.59 1830.6,291.18 1828.82,291.17 1827.02,295.37 1824.64,298.36 1818.68,303.74 1815.1,309.13 1812.72,310.32 1812.71,312.13 1807.94,319.31 1791.86,333.07 1787.08,342.66 1785.29,343.25 1784.69,345.05 1778.17,343.23 1774.01,343.81 1772.24,343.21 1771.06,341.4 1768.68,341.39 1768.08,343.19 1765.7,343.78 1763.34,340.77 1761.56,341.37 1760.96,343.17 1759.77,343.16 1758.59,341.36 1756.81,341.95 1754.44,341.34 1753.24,342.54 1750.87,342.53 1749.68,344.33 1746.11,346.12 1743.73,346.11 1735.41,350.89 1729.46,355.67 1728.86,357.47 1726.48,359.86 1720.54,359.84 1708.05,367.01 1698.53,376.59 1698.52,377.79 1694.36,380.78 1690.2,382.57 1687.82,384.96 1679.51,385.53 1677.72,386.73 1674.76,386.72 1669.41,389.71 1666.44,389.1 1664.67,387.29 1658.74,386.07 1654.58,387.26 1649.84,384.85 1648.06,385.44 1645.68,384.83 1645.1,383.03 1641.54,381.22 1637.38,381.81 1634.42,381.2 1628.48,383.58 1621.94,387.17 1621.34,388.37 1618.97,388.96 1610.07,386.53 1588.1,390.08 1576.22,394.85 1567.31,400.23 1566.72,399.63 1555.42,408.01 1548.88,414.6 1534.05,412.76 1528.1,416.35 1525.12,421.74 1516.8,427.73 1502.52,445.71 1497.16,454.1 1495.97,457.7 1494.78,457.7 1490.61,464.9 1490.01,467.3 1488.23,467.89 1484.07,474.49 1476.91,491.89 1470.97,496.08 1469.78,498.48 1466.81,500.87 1453.75,503.85 1450.79,503.24 1450.2,502.04 1448.42,501.44 1441.89,501.42 1441.3,500.82 1436.55,502.01 1427.07,500.79 1421.13,501.98 1410.45,505.56 1393.24,509.74 1362.97,521.69 1350.52,522.88 1350.52,521.07 1348.74,521.67 1317.31,517.42 1302.48,517.4 1291.8,519.19 1265.1,529.96 1256.79,534.76 1245.52,542.55 1233.05,553.34 1218.8,568.94 1211.69,570.74 1196.86,578.53 1174.9,597.72 1162.45,603.12 1152.96,609.72 1147.62,612.12 1144.06,613.31 1127.46,612.7 1103.75,607.29 1095.45,606.68 1089.52,608.48 1084.18,612.68 1081.22,613.88 1078.25,619.89 1076.47,621.69 1073.51,622.89 1068.77,619.88 1064.62,619.28 1055.73,621.68 1053.35,623.48 1046.83,624.08 1044.46,628.28 1040.31,629.48 1037.94,631.89 1033.2,632.48 1029.05,630.68 1021.93,631.88 1016.6,635.49 1006.52,648.09 1004.74,649.3 998.81,650.5 995.26,652.9 989.33,653.5 978.66,652.3 962.06,645.1 952.58,643.3 943.69,644.5 935.98,647.5 921.76,658.32 912.87,663.72 904.57,664.33 903.39,665.53 897.46,665.53 887.39,667.94 874.35,674.55 858.95,684.17 844.14,689.58 834.06,688.99 822.8,690.8 810.95,696.21 790.23,712.44 784.3,714.85 779.57,718.46 773.64,721.47 761.8,733.49 759.44,738.3 754.71,744.31 749.97,743.11 745.23,744.92 742.86,746.72 741.08,749.13 738.13,756.93 734.58,758.14 733.4,759.94 729.84,762.35 729.85,763.55 713.87,779.18 703.8,778 682.48,781.63 670.63,785.25 659.98,791.87 654.06,796.68 641.65,810.51 642.24,808.11 640.45,805.71 641.64,803.31 639.86,802.71 639.26,800.91 638.08,800.31 638.07,798.51 636.89,797.91 638.07,796.11 638.07,794.91 636.88,793.71 638.06,792.5 638.06,790.7 636.88,790.7 638.06,788.9 636.28,788.3 638.05,785.3 636.27,784.7 636.27,782.3 638.04,780.49 635.67,776.3 635.66,770.89 637.43,767.89 636.83,765.48 635.65,765.49 634.46,762.49 631.5,761.89 629.71,759.49 629.71,757.09 628.52,755.89 626.16,756.5 624.97,755.3 624.96,752.89 620.81,751.1 619.02,744.5 619.62,743.3 619.02,741.5 620.2,740.89 619.6,733.09 620.78,731.28 619,729.49 619,727.68 615.44,725.29 613.66,725.29 611.88,727.1 610.7,727.1 607.14,725.3 605.95,721.7 603.58,720.51 593.48,709.72 588.15,709.12 586.37,706.73 588.73,701.32 586.94,696.52 586.94,694.72 588.12,692.91 588.11,689.91 586.33,689.31 582.18,685.72 580.99,682.72 581.58,680.31 580.98,680.32 579.2,676.12 579.79,674.31 579.15,653.3 579.74,647.29 581.52,647.89 585.66,644.28 588.62,645.47 596.91,638.25 598.09,634.05 605.2,635.24 609.35,634.63 611.13,637.03 615.28,636.42 620.61,634.01 622.99,634.6 625.36,636.4 628.32,636.4 629.51,637.6 631.88,637.59 634.26,638.79 635.45,642.39 637.23,643.59 637.23,645.39 639.01,645.99 640.2,647.79 646.73,652.58 650.28,651.37 651.46,649.57 652.65,650.17 659.16,644.15 661.53,644.15 663.9,641.74 665.08,641.74 668.64,639.34 668.63,637.53 672.19,636.33 673.97,636.93 675.15,635.72 677.52,635.12 682.27,636.31 692.94,636.9 695.9,633.89 696.49,632.09 698.27,631.49 699.45,628.48 702.41,627.88 704.19,626.07 700.03,621.88 700.03,619.48 697.06,619.48 695.28,618.28 694.1,616.48 694.69,615.28 692.31,611.68 691.71,608.08 692.3,603.87 694.08,602.67 695.86,603.87 696.45,602.67 692.88,596.07 694.66,595.46 695.84,591.86 695.24,590.06 696.43,588.26 697.01,582.25 699.38,580.45 699.97,576.84 701.16,576.24 698.78,570.24 699.37,568.44 701.73,566.03 701.14,561.83 702.32,560.63 699.35,554.03 699.34,551.02 700.53,549.82 699.93,548.02 693.4,544.43 684.5,537.83 681.53,533.03 676.78,529.44 670.85,530.05 668.47,527.65 666.68,523.45 661.34,516.25 657.18,512.06 655.99,512.06 651.25,516.27 650.08,527.08 645.95,534.89 643.58,536.7 642.39,539.1 638.25,540.91 635.29,545.72 632.92,546.32 630.55,548.73 628.77,549.33 624.03,548.74 621.07,551.74 614.54,551.76 613.95,552.96 611.58,552.36 610.99,554.76 608.62,555.37 608.62,557.77 607.44,558.97 605.07,558.98 603.88,557.78 602.1,558.98 602.7,562.58 602.11,563.19 599.74,563.79 596.77,562.6 594.99,563.2 593.81,565 594.41,566.8 593.82,568.61 591.45,571.01 587.89,571.62 585.52,571.02 583.15,569.23 581.96,571.03 578.41,572.84 577.81,570.44 572.47,569.85 572.47,566.84 570.69,566.25 568.91,568.05 563.57,567.46 561.78,562.06 560.6,562.06 560.01,563.87 558.82,564.47 557.63,562.07 555.85,562.07 554.67,560.87 554.07,558.47 555.25,556.07 554.65,554.87 549.31,549.48 549.89,543.47 552.85,544.07 552.25,536.86 552.83,533.86 551.05,532.66 551.05,529.66 554.59,523.05 554.59,520.64 561.69,512.22 561.09,508.62 559.9,508.02" fill="none" stroke="#1e1e1e" stroke-width="1.88" stroke-linecap="round" stroke-linejoin="round"/>
<text x="1102.03" y="417.68" font-family="sans-serif" font-size="14" stroke="#ffffff" stroke-opacity="0.784" stroke-width="2.33" stroke-linejoin="round" paint-order="stroke" fill="#141414">East Timor</text>
</svg>
