<?xml version="1.0" encoding="UTF-8" standalone="no"?>
<svg xmlns="http://www.w3.org/2000/svg" width="2000" height="798" viewBox="0 0 2000 798">
<rect width="2000" height="798" fill="#ffffff"/>
<polyline points="1579.38,437.16 1578.09,429.83 1578.09,424.02 1582,414.02 1581.87,411.89 1576.68,409.01 1576.17,407.95 1579.53,401.86 1580.92,395.22 1590.24,387.58 1590.95,381.04 1593.03,372.68 1594.33,370.17 1596.22,368.49 1606.24,365.54 1622.12,366.74 1630.79,372.5 1635.21,374.19 1637.05,378.06 1637.85,384.47 1641.44,386.82 1641.81,392.54 1642.79,394.02 1649.84,398.48 1657.65,397.59 1659.87,397.81 1661.65,399.05 1663.02,401.63 1664.52,409.27 1666.98,413.74 1667.38,417.89 1669.71,422.39 1670.39,427.55 1673.42,430.06 1680.28,432.01 1681.78,433.45 1683.7,439.03 1685.2,440.36 1691.15,442.14 1723.12,455.83 1749.79,473.23 1753.44,474.47 1756.95,480.03 1763.69,488.07 1765.71,493.56 1768.52,496.92 1772.44,499.53 1777.18,500.96 1782.43,500.85 1787.29,499.77 1790.68,502.07 1794.66,502.85 1799.54,505.3 1804.36,503.47 1807.04,504.1 1810.57,509.83 1811.81,521.69 1821.57,528.51 1826.85,531.14 1832.95,537.04 1835.91,541.64 1837.14,546.68 1835.59,552.06 1831.2,559.51 1832.75,561.96 1833.91,567.16 1832.27,573.58 1834.75,576.43 1835.93,579.14 1833.87,583.53 1834.12,585.01 1839.91,587.29 1842.6,590.05 1845.06,595.24 1843.37,597.62 1844.37,602.35 1846.51,606.44 1850.53,611.24 1852.14,617.27 1847.31,622.74 1848.89,626.56 1848.49,627.12 1844.1,631.16 1842.46,630.33 1836.09,634.32 1834.77,640.57 1832.02,642.32 1832.88,642.98 1831.57,646.3 1831.06,654.95 1827.18,663.07 1829.55,665.05 1827.15,672.24 1828.88,679.61 1828.53,683.61 1825.11,685.33 1822.31,692.54 1815.15,697.3 1816.42,699.06 1816.6,701.1 1812.28,711.17 1809.47,714.85 1812.34,729.47 1815.43,733.92 1816.56,737.27 1816.4,741.29 1814.99,744.79 1818.94,749.17 1819.71,753.16 1824.97,757.37 1826.49,759.54 1832.34,770.95 1833.53,775.14 1832.39,777.95" fill="none" stroke="#1e1e1e" stroke-width="1.09" stroke-linecap="round" stroke-linejoin="round"/>
<polyline points="1662.53,166.89 1661.41,162.24 1656.06,152.75 1648.79,150.56 1647.03,147.97 1637.14,145.88 1635.25,142.12 1635.18,135.62 1632.78,128.89 1622.36,114.41 1610.51,105.36 1602.56,103.87 1594.55,98.16 1590.57,98.6 1587.61,94.84 1586.43,89.42 1589,80.48 1586.38,69.35 1587.48,64.57 1586.61,61.98 1583.88,60.07 1583.6,58.81 1583.45,55.81 1585.05,50.96 1582.67,48.17 1581.42,43.35 1577.91,41.32 1576.5,38.23 1575.53,37.41 1572.36,37.81 1571.09,37 1570.05,33.27 1566.73,28.56 1565.15,23.78 1559.28,15.92 1556.43,14.93 1554.98,13.47 1552.68,8.67" fill="none" stroke="#1e1e1e" stroke-width="1.09" stroke-linecap="round" stroke-linejoin="round"/>
<polyline points="1641.74,291.54 1647.13,296.77 1647.2,308.47 1649.66,323.54 1651.33,325.44 1656.22,328.12 1657.8,330.05 1660.7,330.53 1671.12,328.93 1672.13,326.58 1674.07,325.26 1679.9,323.31 1686.07,325.03 1688.46,324.24 1693.64,326.27 1699.17,324.38 1703.34,326.95 1706.38,323.56 1708.82,322.76 1710.81,317.15 1715.96,312.39 1739.57,301.67 1743.97,294.12 1749.2,289.27 1752.27,287.49 1751.18,279.78 1754.65,273.84 1755.78,269.6 1757.11,268.05 1760.76,266.3 1763.29,266.31 1766.1,261.04 1769.6,258.73 1774.44,259.9 1779.84,256.49 1782.27,257.7 1790.42,255.13 1795.45,255.14 1805.65,256.83 1810.37,256.05 1817.9,252.52 1820.36,255.87 1826.44,260.52 1828.63,261.61 1835.14,261.96 1837.13,264.83 1844.61,260.15 1852.97,257.07 1861.97,256.24 1872.95,257 1875.81,263.96 1885.53,270.03 1893,271.31 1909.28,279.12 1917.94,281.73 1930.05,289.59 1932.5,292.24 1937.44,300.59 1943.94,306.34 1953.73,312.4 1960.42,319.39 1973.52,318.91 1978.63,320.15" fill="none" stroke="#1e1e1e" stroke-width="1.09" stroke-linecap="round" stroke-linejoin="round"/>
<polyline points="1506.9,710.57 1504.24,702.68 1498.92,697.23 1497.16,693.43 1493.43,688.35 1493.83,679.34 1492.51,674.05 1489.33,670.82 1485.31,670.85 1472.7,676.35 1464.41,688.61 1462.29,690.14 1453.15,690.89 1447.01,694.35 1437.92,695.5 1426.44,691.86 1414.42,695.92 1406.41,702.1 1394.47,704.68 1392.51,707.09 1390.43,713.02 1388.6,715 1379.66,721.84 1374.9,724.39 1362.77,735.27 1359.26,741.24 1357.88,746.01 1352.36,751.96 1351.54,758.49 1347.39,759.88 1344.41,765.63 1343.13,766.65 1338.96,768.08 1338.06,767.61 1337.05,769.49 1332.02,771.06 1328.24,770.98 1321.33,768.71 1317.4,770.55 1306.35,770.85 1305.39,769.56 1304.2,770.69 1301.43,770.33 1299.44,772.74 1297.92,771.9 1297.12,768.41 1296.35,767.88 1290.95,768.04 1279.94,773.49" fill="none" stroke="#1e1e1e" stroke-width="1.09" stroke-linecap="round" stroke-linejoin="round"/>
<polyline points="1784.75,53.15 1786.33,56.41 1783.51,64.34 1780.66,66.82 1771.5,70.33 1769.88,72.76 1770.5,74.6 1776.87,79.15 1779.55,82.04 1785.19,91.9 1788.36,95.84 1794.07,100.81 1802.52,111.64 1806.57,115.48 1811.46,118.14 1814.81,124.36 1819.1,128.04 1820.09,138.36 1821.07,142.25 1822.76,145.22 1826.66,147.47 1827.19,148.9 1829.52,148.84 1834.36,151.63 1833.8,153.13 1834.85,154.79 1834.65,156.39 1833.03,155.59 1831.39,156.38 1835.99,158.43 1841.58,158.41 1846.23,153.97 1850.25,151.67 1854.61,155.6 1859.17,158.09 1869.35,159.31 1871.27,164.55 1878.98,163.19 1880.59,166.33 1888.36,176.25 1890.73,181.83 1893.61,184.53 1900.67,188.92 1901.65,190.52 1906.31,194 1913.74,197.17 1919.01,197.15 1926.24,195.78 1928.55,196.54 1931.86,199.89 1935.12,201.33 1940.58,206.25 1952.4,213.08 1958.91,214.35 1968.43,218.36 1970.2,217.76 1973.5,214.64 1974.5,210.9 1975.63,209.7 1979.1,209.52" fill="none" stroke="#1e1e1e" stroke-width="1.09" stroke-linecap="round" stroke-linejoin="round"/>
<polyline points="1605.67,788.72 1604.42,785.08 1610.24,779.13 1611.79,775.81 1610.87,765.47 1611.49,760.22 1612.91,758.73 1614.08,758.75 1617.35,760.73 1623.93,757.95 1626.28,756.13 1627.63,752.51 1625.2,746.71 1625.85,744.5 1627.52,743.35 1632.07,742.97 1641.38,746.8 1647.04,745.62 1649.29,743.98 1650.55,741.53 1658.27,740 1663.17,735.27 1670.28,734.02 1672.41,732.39 1673.35,729.59 1674.87,728.14 1684,725.98 1689.54,721.12 1692.7,720.05 1699.45,722.99 1709.41,721.29 1719.56,728.6 1720.27,730.54 1717.71,734.01 1717.05,736.53 1720.37,738.22 1718.65,741.25 1719.22,742.23 1720.59,742.55 1729.11,742.63 1729.82,743.71 1726.47,745.84 1725.84,747.68 1727.11,750.38 1731.41,754.14 1730.5,756.91 1732.95,758.5 1736.86,753.75 1736.01,750.33 1737.45,748.82 1739.75,751.36 1743.83,751.95 1763.95,758.6 1768.22,762.83 1776.26,766.68 1780.98,766.34 1785.5,764.25 1786.29,765.12 1788.37,764.7 1793.57,766.27 1810.94,769.2 1813.01,769.04 1814.51,767.17 1816.4,767.05 1819.63,774.71 1823.59,776.34 1831.14,776.91 1835.55,780.42 1846.87,780.35 1849.89,777.42 1853.15,778.9 1861.51,779.07 1863.39,779.81 1862.42,782.35 1862.79,784.91 1864.36,786.89 1869.5,788.22 1871.71,789.58" fill="none" stroke="#1e1e1e" stroke-width="1.09" stroke-linecap="round" stroke-linejoin="round"/>
<polyline points="1883.98,789.62 1886.49,788.86 1891.89,789.65" fill="none" stroke="#1e1e1e" stroke-width="1.09" stroke-linecap="round" stroke-linejoin="round"/>
<polyline points="1897.73,789.68 1900.41,788.7 1905.71,789.71" fill="none" stroke="#1e1e1e" stroke-width="1.09" stroke-linecap="round" stroke-linejoin="round"/>
<polyline points="1918.28,789.76 1920.32,789.77" fill="none" stroke="#1e1e1e" stroke-width="1.09" stroke-linecap="round" stroke-linejoin="round"/>
<polyline points="1932.85,789.82 1938.01,779.61 1946.43,779.68 1947.9,778.4 1950.18,768.49 1951.33,766.06 1954.06,764.24 1959.79,762.52 1969.78,762.57 1976.73,764.93" fill="none" stroke="#1e1e1e" stroke-width="1.09" stroke-linecap="round" stroke-linejoin="round"/>
<polyline points="1823.6,50.42 1825.55,56.86 1822.46,64.92 1821.99,75.16 1823.08,80.06 1825.88,84.38 1828.21,86.01 1844.66,91.63 1861.11,92.25 1868.28,88.23 1875.51,87.74 1878.34,84.04 1880.12,83.66 1884.9,85.36 1893.42,85.54 1895.16,86.91 1895.86,91.8 1897.25,94.54 1903.53,102.04 1905.54,103.22 1910.24,103.69 1916.69,106.91 1926.84,106.39 1932.1,107.06 1936.77,109.27 1943.88,116.88 1948.47,118.55 1958.4,119.22 1964.96,118.39 1971.32,121.03 1972.72,123.36 1972.64,126.78 1977.14,133.81 1976.69,141.68 1979.37,147.16" fill="none" stroke="#1e1e1e" stroke-width="1.09" stroke-linecap="round" stroke-linejoin="round"/>
<text x="1755.06" y="509.63" font-family="sans-serif" font-size="14" stroke="#ffffff" stroke-opacity="0.784" stroke-width="2.33" stroke-linejoin="round" paint-order="stroke" fill="#141414">Santiago</text>
<text x="1688.27" y="749.38" font-family="sans-serif" font-size="14" stroke="#ffffff" stroke-opacity="0.784" stroke-width="2.33" stroke-linejoin="round" paint-order="stroke" fill="#141414">Marañón</text>
<text x="1767.55" y="262.44" font-family="sans-serif" font-size="14" stroke="#ffffff" stroke-opacity="0.784" stroke-width="2.33" stroke-linejoin="round" paint-order="stroke" fill="#141414">Napo</text>
<text x="1804.16" y="159.63" font-family="sans-serif" font-size="14" stroke="#ffffff" stroke-opacity="0.784" stroke-width="2.33" stroke-linejoin="round" paint-order="stroke" fill="#141414">Putumayo</text>
<text x="1359.73" y="712.91" font-family="sans-serif" font-size="14" stroke="#ffffff" stroke-opacity="0.784" stroke-width="2.33" stroke-linejoin="round" paint-order="stroke" fill="#141414">Tumbes</text>
<text x="1859.33" y="98.64" font-family="sans-serif" font-size="14" stroke="#ffffff" stroke-opacity="0.784" stroke-width="2.33" stroke-linejoin="round" paint-order="stroke" fill="#141414">Caquetá</text>
<text x="1572.35" y="105.57" font-family="sans-serif" font-size="14" stroke="#ffffff" stroke-opacity="0.784" stroke-width="2.33" stroke-linejoin="round" paint-order="stroke" fill="#141414">Mira</text>
</svg>
