<?xml version="1.0" encoding="UTF-8" standalone="no"?>
<svg xmlns="http://www.w3.org/2000/svg" width="2000" height="1088" viewBox="0 0 2000 1088">
<rect width="2000" height="1088" fill="#ffffff"/>
<path d="M1418.64,1022.79L1414.25,1021.52L1416.35,1021.06L1418.64,1022.79Z" fill-rule="evenodd" fill="#4682b4" fill-opacity="0.471"/>
<polyline points="1418.64,1022.79 1414.25,1021.52 1416.35,1021.06 1418.64,1022.79" fill="none" stroke="#1e1e1e" stroke-width="2.08" stroke-linecap="round" stroke-linejoin="round"/>
<path d="M1341.48,1006.63L1341.38,1008.06L1338.63,1007.15L1341.48,1006.63Z" fill-rule="evenodd" fill="#4682b4" fill-opacity="0.471"/>
<polyline points="1341.48,1006.63 1341.38,1008.06 1338.63,1007.15 1341.48,1006.63" fill="none" stroke="#1e1e1e" stroke-width="2.08" stroke-linecap="round" stroke-linejoin="round"/>
<path d="M17.27,589.03L87.85,620.44L126.42,639.07L124.43,1078.01L14.78,1077.49L17.27,589.03Z" fill-rule="evenodd" fill="#4682b4" fill-opacity="0.471"/>
<polyline points="17.27,589.03 87.85,620.44 126.42,639.07 124.43,1078.01 14.78,1077.49 17.27,589.03" fill="none" stroke="#1e1e1e" stroke-width="2.08" stroke-linecap="round" stroke-linejoin="round"/>
<path d="M1163.31,1003.61L1164.51,1003.72L1163.57,1004.59L1163.31,1003.61Z" fill-rule="evenodd" fill="#4682b4" fill-opacity="0.471"/>
<polyline points="1163.31,1003.61 1164.51,1003.72 1163.57,1004.59 1163.31,1003.61" fill="none" stroke="#1e1e1e" stroke-width="2.08" stroke-linecap="round" stroke-linejoin="round"/>
<path d="M1156.69,994.81L1157.39,997.5L1155.94,996.98L1156.69,994.81Z" fill-rule="evenodd" fill="#4682b4" fill-opacity="0.471"/>
<polyline points="1156.69,994.81 1157.39,997.5 1155.94,996.98 1156.69,994.81" fill="none" stroke="#1e1e1e" stroke-width="2.08" stroke-linecap="round" stroke-linejoin="round"/>
<path d="M1942.9,901.48L1945.44,900.56L1942.94,902.49L1942.9,901.48Z" fill-rule="evenodd" fill="#4682b4" fill-opacity="0.471"/>
<polyline points="1942.9,901.48 1945.44,900.56 1942.94,902.49 1942.9,901.48" fill="none" stroke="#1e1e1e" stroke-width="2.08" stroke-linecap="round" stroke-linejoin="round"/>
<path d="M1984.16,869.45L1979.17,872.96L1977.73,870.66L1984.15,868.33L1984.16,869.45Z" fill-rule="evenodd" fill="#4682b4" fill-opacity="0.471"/>
<polyline points="1984.16,869.45 1979.17,872.96 1977.73,870.66 1984.15,868.33 1984.16,869.45" fill="none" stroke="#1e1e1e" stroke-width="2.08" stroke-linecap="round" stroke-linejoin="round"/>
<path d="M1984.14,866.43L1982.98,864.84L1984.14,866.43Z" fill-rule="evenodd" fill="#4682b4" fill-opacity="0.471"/>
<polyline points="1984.14,866.43 1982.98,864.84 1984.14,866.43" fill="none" stroke="#1e1e1e" stroke-width="2.08" stroke-linecap="round" stroke-linejoin="round"/>
<path d="M123.71,1078.01L125.7,638.73L174.75,662.4L253.63,711.92L258.59,718.82L258.46,731.88L255.99,732.94L259.75,734.44L266.33,759.29L281.38,774.74L312.18,768.01L355.65,771.14L380.48,766.9L419.9,775.55L440.09,784.61L459.24,785.92L485.68,794.48L490.88,793.16L505.38,799.73L549.56,794.72L588.1,801.4L600.3,798.72L630.2,801.93L664.19,811.42L669.64,806.14L690.29,808.45L790.87,856.65L888.21,910.97L967.11,944.51L1013.11,969.7L1018.82,968.98L1025.59,976.56L1061.78,995.05L1127.93,1017.16L1235.53,1036.56L1351.8,1066.68L1362.72,1066.08L1363.06,1060.12L1355.09,1055.16L1359.19,1061.33L1356.13,1063.95L1352.52,1055.16L1342.7,1062.35L1332.03,1047.17L1331.14,1049.34L1314.17,1046.13L1301.29,1035.16L1291.64,1036.69L1264.77,1031.33L1253.12,1022.24L1241.89,1025.09L1225.66,1009.77L1224.66,1009.56L1226.52,1009.8L1243.09,1024.63L1254.78,1021.06L1266.84,1029.48L1281.62,1027.29L1291.83,1029.87L1284.8,1020.62L1283.28,1023.19L1282.01,1021.3L1282.26,1017.85L1280.77,1016.08L1276.12,1019.55L1279.08,1015.11L1274.3,1014.05L1275.07,1010.39L1271.77,1016L1274.19,1017.73L1270.02,1018.08L1268.47,1015.27L1263.68,1017.56L1265.39,1015.49L1268.92,1014.23L1270.65,1017.07L1273.56,1008.79L1267.54,1003.12L1264.22,1004.95L1261.22,1004.26L1265.52,1003.62L1265.12,998.69L1256.05,994.69L1255.85,998.74L1251.55,1004.01L1253.33,998.78L1255.16,998.44L1254.69,995.61L1246.82,995.61L1247.76,994.32L1254.17,994L1251.29,991.51L1243.42,996.99L1223.25,997.8L1213.69,1007.43L1208.42,1011.48L1201.89,1006.13L1194.31,1009.36L1180.94,999.63L1175.32,1003.58L1168.56,999.97L1164.68,1003.57L1162.58,997.68L1162.27,999.65L1157.71,997.62L1161.91,996.75L1158.97,991.77L1157.47,992.55L1157.87,991.38L1151,992.12L1155.48,988.78L1154.93,981.92L1153.37,985.62L1150.43,985.59L1148.72,983.93L1148.86,986.36L1145.52,985.04L1145.43,987.68L1142.94,988.16L1142.79,986.76L1141.37,987.77L1139.95,985.84L1139.14,987.05L1135.69,984.28L1137.57,985.88L1140.47,985.79L1140.76,986.94L1141.64,986.43L1141.61,987.57L1145.45,984.89L1148.32,985.33L1148.24,984.04L1150.43,980.7L1149.1,980.34L1149.08,982.69L1147.51,982.7L1142.47,976.62L1143.89,975.31L1145.2,976.69L1144.06,977.82L1145.94,977.48L1147.54,982.32L1148.75,982.55L1148.61,980.4L1150.38,980.03L1150.82,982.07L1149.68,984.45L1152.71,985.23L1153.82,981.45L1155.35,981.34L1157.03,989.51L1160.79,989.35L1157.86,981.7L1156.12,981.28L1158.24,981.12L1158.67,976.7L1159.48,978.35L1158.48,982.76L1161.15,982.89L1161.04,988.45L1173.92,993.26L1174.86,990.7L1169.58,987.44L1175.08,990.1L1175.67,985.49L1179.83,985.56L1176.74,982.64L1173.54,985.48L1173.46,980.7L1172.23,982.73L1168.72,979.78L1171.09,980.33L1172.32,982.44L1172.8,980.41L1175.11,978.93L1172.79,977.13L1173.08,973.91L1173.59,974.74L1173.07,976L1175.47,978.86L1173.97,985.04L1174.83,983.16L1177.34,981.99L1183.95,987.21L1183.13,982.54L1185,984.39L1185.28,987.2L1187.63,987.64L1187.44,983.17L1188.45,988.48L1195.43,990.85L1196.87,985.49L1200.49,985.96L1196.9,983.04L1201.3,984L1200.74,986.58L1199.49,988.03L1208.11,986.39L1205.13,989.02L1214.92,989.47L1222.6,978.96L1212.49,983.97L1216.33,980.93L1209.91,978.4L1210.51,974.66L1203.68,974.35L1203.75,976.83L1202.57,973.32L1203.04,969.61L1200.62,971.63L1195.64,966.86L1189.75,968.1L1190.5,965.5L1188.61,965.3L1189.32,963.14L1187.11,964.03L1187.35,962.57L1189.69,963.05L1188.92,965.07L1190.84,964.79L1190.28,967.83L1194.38,963.59L1200.53,970.64L1203.43,967.83L1204.33,972.82L1208.27,972.67L1208.09,966.95L1208.42,972.42L1212.76,972.76L1213.59,977.67L1217.17,978.45L1218.73,972.82L1224.35,974.61L1228.76,972.06L1215.66,968.53L1214.47,965.54L1216.3,965.71L1218.65,968.6L1222.1,967.47L1218.18,959.85L1217.28,959.81L1215.86,963.21L1214.83,963.83L1211.41,959.23L1211.29,956.11L1215.59,963.14L1216.59,953.3L1217.49,954.14L1216.73,957.95L1225.01,967.86L1229.82,967.17L1226.13,959.73L1229.39,958.9L1229.38,960.36L1228.09,961.79L1230.32,966.17L1229.19,969.36L1233.81,978.12L1245.38,974.1L1236.78,971.86L1231.66,964.12L1238.35,971.59L1243.28,968.01L1243.53,962.59L1243.68,967.87L1241.98,969.91L1244.6,970.55L1246.45,974.54L1245.25,976.93L1240.63,978.4L1253.36,978.66L1257.36,974.37L1254.79,970.79L1257.89,973.64L1254.58,981.18L1265.12,982.52L1265.05,979.75L1269.04,979.52L1271.62,983.54L1285.21,985.36L1285.68,982.56L1285.64,985.98L1289.74,985.02L1288.57,987.42L1297.23,996.02L1296.12,993.29L1300.38,994.05L1303.6,990.47L1303.24,992.41L1301.75,993.67L1299.22,994.34L1296.4,993.62L1298.94,996.12L1296.71,997.22L1304.1,1004.05L1305.94,1000.73L1306.45,1001.6L1303.85,1004.96L1306.57,1007.99L1307.95,1005.31L1308.08,1011.99L1311.42,1011.93L1309.54,1003.82L1317.95,1003.8L1319.23,997.96L1320.02,999.33L1318.55,1003.92L1312.9,1005.68L1312.38,1014.86L1323.96,1010.44L1327.21,1001.45L1327.17,1006.5L1324.37,1010.81L1321.1,1013.23L1329.48,1013.47L1335.89,1003.6L1335.87,991.35L1345.15,991.41L1336.57,993.18L1336.32,1006.38L1335.75,1006.19L1331.8,1013.83L1334.77,1020.3L1343.33,1014.65L1352.77,1017.32L1348.97,1018.53L1355.87,1027.23L1359.55,1022.56L1366.59,1021.53L1364.27,1013.76L1351.78,1002.71L1341.67,1003.79L1341.59,1003.2L1349.64,1001.7L1347.12,991.42L1349.58,991.44L1353.87,988.36L1352.87,983.51L1354.33,988.51L1350.43,995.27L1353.71,994.66L1354.82,988.87L1358.19,993.07L1360.76,988.81L1364.62,995.08L1367.8,993.73L1364.74,995.44L1360.95,989.33L1359.93,992.69L1357.8,993.28L1354.91,989.35L1353.83,997.96L1350.53,996.5L1350.65,998.98L1366.69,1011.33L1372.21,1009.57L1368.81,1006.15L1371.74,1006.58L1372.77,1008.9L1379.61,998.34L1380,1001.16L1373.77,1007.66L1382.56,1010.1L1378.83,1012.44L1378.89,1011.72L1380.53,1011.3L1380.15,1010.31L1374.24,1008.3L1375.04,1011.39L1367.39,1012.69L1373.94,1019.53L1375.2,1019.68L1375.74,1017.22L1379.4,1015.18L1377.94,1017.13L1375.98,1017.25L1375.87,1019.46L1373.73,1020.52L1378.45,1026.07L1383.03,1019.04L1386.99,1017.12L1385.64,1017.04L1385.57,1013.81L1385.92,1016.34L1387.17,1016.04L1387.21,1017.01L1386.57,1018.01L1383.19,1019.35L1386.82,1019.03L1386.66,1021.75L1379.49,1025.86L1385.81,1026.75L1382.78,1033.79L1401.68,1029.36L1393.15,1026.54L1389.71,1022.62L1393.76,1016.84L1391.84,1016.84L1391.83,1014.65L1394.95,1010.33L1394.69,1012.85L1392.01,1014.8L1393.16,1015.59L1392.87,1016.71L1393.96,1016.6L1393.29,1025.87L1405.17,1022.1L1402.3,1022.09L1399.92,1018.75L1400.25,1017.59L1402.58,1018L1401.72,1017.2L1401.79,1015L1401.86,1017.06L1402.73,1018.08L1400.13,1017.78L1400.11,1018.72L1402.05,1019.45L1402.56,1021.91L1405.56,1021.8L1404.33,1023.27L1399.83,1024.91L1402.47,1029.8L1397.78,1034.21L1406.85,1027.78L1408.29,1032.25L1413.36,1032.33L1408.63,1033.5L1409.4,1036.23L1417.21,1035.45L1421.13,1028.03L1419.15,1023.18L1422.12,1025.44L1422.38,1020.44L1419.86,1020.04L1422.56,1020.25L1423.57,1025.02L1420.65,1026.18L1425.08,1026.4L1423.7,1028.28L1421.86,1027.62L1425.25,1031.64L1420.77,1030.69L1417.83,1035.82L1409.27,1036.76L1406.81,1028.32L1400.58,1034.29L1402.52,1036.09L1384.33,1037.05L1391.71,1043L1380.06,1037.88L1379.27,1043.23L1385.92,1051.12L1379.71,1051.59L1377.44,1038.36L1372.96,1044.02L1370.59,1050.68L1375.56,1060.25L1393.98,1071.76L1408.33,1075.21L1433.15,1068.73L1436.7,1065.85L1437.16,1061.52L1431.31,1064.53L1428.26,1061.28L1425.42,1064.18L1419.65,1058.45L1412.19,1058.33L1402.68,1063.76L1409.2,1055.57L1430.71,1054.82L1441.17,1049.92L1434.25,1045.58L1432.5,1048.08L1432.09,1043.69L1425.22,1038.62L1426,1032.53L1428.65,1035.67L1433.93,1035.15L1437.62,1038.03L1441.75,1034.8L1437.7,1038.33L1435.2,1037.67L1432.68,1035.4L1429.97,1035.98L1429.79,1039.93L1452.9,1050.49L1460.39,1046.75L1461.48,1041.34L1453.71,1038.58L1448.73,1031.19L1444.75,1031.8L1442.41,1029.02L1438.42,1029.92L1442.46,1028.68L1445.12,1031.3L1448.08,1029.09L1438.56,1015.63L1432.72,1022.96L1435.92,1015.35L1437.71,1014.98L1439.61,1015.96L1440.61,1014.59L1448.41,1020.3L1451.16,1028.68L1457.02,1028.16L1454.45,1021.68L1458.67,1017.17L1456.13,1014.31L1453.88,1017.38L1451.4,1015.61L1454.54,1007.48L1456,1009.32L1454.58,1014.13L1459.25,1010.98L1458.43,1020.57L1457.6,1021.51L1455.31,1021.33L1454.8,1022.29L1458.9,1026.86L1455.84,1029.34L1451.98,1029.18L1451.72,1030.63L1469.3,1046.72L1465.84,1035.18L1472.63,1025.87L1466.01,1024.38L1464.31,1022.51L1465.19,1019.9L1467.09,1019.8L1468,1017.13L1467.26,1020.03L1465,1020.62L1464.84,1022.73L1466.25,1024.12L1467.78,1023.91L1470.03,1025.24L1472.37,1024.85L1473.17,1025.87L1470.04,1032.14L1466.53,1035.4L1470.98,1044.79L1468.73,1051.43L1472.34,1059.58L1475.31,1057.62L1481.02,1059.58L1480.29,1058.1L1480.77,1056.18L1484.7,1055.47L1482.91,1052.93L1485.34,1048.23L1486.21,1050.29L1483.3,1052.89L1484.99,1055.63L1480.52,1058.13L1492.15,1055.34L1492.42,1056.62L1491.37,1057.08L1491.96,1058.38L1493.98,1055.59L1494.06,1058.56L1495.48,1059.11L1496.2,1058.04L1497.47,1058.03L1498.79,1060.4L1495.97,1063.06L1500.4,1061.8L1499.11,1064.03L1496.59,1064.19L1495.71,1062.44L1498.68,1060.42L1497.61,1058.21L1494.5,1059.21L1493.85,1055.81L1492.59,1058.65L1490.69,1058.52L1491.15,1056.63L1492.21,1056.53L1492.08,1055.5L1489.82,1057.68L1488.17,1057.62L1487.71,1056.45L1487.19,1057.97L1484.26,1058.85L1483.11,1057.93L1483.1,1059.19L1479.09,1061.52L1475.73,1058.49L1471.89,1061.96L1466.29,1052.09L1445.95,1060.31L1445.51,1063.2L1450.04,1064.88L1531.62,1069.17L1550.99,1075.74L1580.28,1068.13L1605.85,1067.43L1629.52,1071.02L1638.31,1064.33L1657.55,1064.09L1750.44,1072.96L1759.44,1076.78L1759.25,1073.69L1764.55,1072.35L1811.38,1077.93L1814.92,1075.45L1812.73,1068.24L1801.49,1063.76L1798.65,1055.91L1806.24,1037.47L1822.58,1028.77L1826.09,1031.15L1828.17,1026.87L1840.59,1021.26L1844.35,1014.74L1865.82,1010.13L1897.01,979.28L1901.33,965.18L1908.22,965.31L1898.96,952.5L1881.06,944.44L1878.88,938.57L1881.44,936.06L1873.85,927.98L1859.2,927.23L1858.1,923.77L1855.48,925.6L1847.86,917.15L1838.83,913.74L1832.31,902.23L1835.74,898.12L1828.81,893.85L1828.98,899.86L1825.32,902.67L1823.62,900.11L1824.22,894.76L1822.07,899.45L1819.28,898.91L1821.19,895.75L1824,894.29L1825.33,895.98L1824.4,900.39L1828.12,899.81L1827.31,895.48L1828.05,893.57L1830.02,893.57L1832.74,895.29L1830.03,889.73L1825.58,891.5L1822,887.29L1821.25,891.92L1817.28,894.35L1818.34,897.05L1815.27,898.33L1818.28,896.84L1814.7,894.1L1819.52,892.72L1819.59,890.55L1817.32,892.21L1814.56,888.52L1814.07,889.5L1812.98,889.63L1813.68,891.45L1812.94,892.34L1811.56,890.8L1809.71,891.74L1811.45,890.74L1812.47,892.34L1813.49,891.89L1812.85,889.76L1814.07,889.42L1814.47,888.41L1817.43,889.47L1817.33,892L1818.66,890.19L1820.71,891.36L1819.59,888.57L1822.5,886.75L1824.58,887.45L1825.63,891.03L1828.8,888.63L1827.45,883.49L1824.32,885.72L1820.26,883.25L1824.2,885.61L1826.42,884.55L1825.85,879.68L1820,878.78L1816.92,883.04L1817.88,879.95L1819.62,878.66L1817.6,876L1821.06,878.11L1825.79,866.17L1825.64,870.15L1831.07,872L1829.81,862.36L1832.58,862.18L1831.03,864.31L1833.33,866.52L1831.72,872.01L1830.05,874.2L1825.69,870.92L1825.52,874.06L1821.91,877.74L1827.24,878.35L1832.62,890.21L1844.16,861.75L1859.28,862.04L1874.01,865.41L1892.6,888.55L1903.08,891.66L1903.8,894.75L1918.95,894.55L1918.71,889.92L1920.14,890.13L1920.64,892.05L1922.75,892.22L1921.7,890.56L1925.05,887.13L1924.85,888.49L1922.76,890.41L1923.46,891.72L1923,892.62L1920.64,892.3L1919.75,890.17L1918.64,890.7L1919.75,893.21L1919.55,895.58L1924.72,900.4L1926.69,898.37L1927.32,901.15L1929.69,895.35L1930.41,897.37L1928.36,900.9L1926.62,901.02L1926.3,898.64L1924.71,902.15L1930.13,908.79L1939.28,896L1934.52,895.84L1935.26,890.99L1932.57,890.68L1932.84,885.56L1927.15,882.05L1926.89,880.06L1929.2,882.97L1932.06,881.46L1933.62,887.73L1936.12,884.84L1934.88,886.92L1935.38,887.65L1933.11,889.97L1936.16,890.83L1935.65,895.65L1937.62,894.05L1943.74,896.73L1939.21,891.36L1941.96,892.75L1944.54,889.13L1941.22,887.53L1942.12,884.98L1939.99,885.12L1941.93,884.66L1942.87,886.3L1944.23,884.82L1944.17,886.24L1941.57,887.3L1944.92,888.85L1941.34,893.69L1944.6,895.71L1942.84,899.77L1942.77,897.91L1939.23,898.36L1934.73,913.15L1951.24,910.99L1951.16,907.94L1956.78,910.2L1951.4,895.96L1949.84,897.17L1948.42,890.03L1949.64,888.84L1951.61,888.56L1948.62,890.01L1950.87,893.63L1950.65,895.55L1955.13,896.7L1955.75,893.34L1958.49,893.39L1956.25,890.77L1960.78,889.93L1957.45,889.76L1957.71,885.84L1956.76,887.02L1955.02,886.52L1956.54,884.58L1955.35,886.6L1956.49,886.91L1957.02,885.57L1957.83,885.64L1958.35,888.15L1957.67,889.52L1959.92,888.95L1961.16,890.23L1959.59,891.89L1956.7,890.74L1958.95,893.25L1956.05,894.82L1961.69,893.95L1961.33,895.7L1958.92,895.74L1959.6,899.76L1954.66,898.79L1957.82,905.27L1974.81,902.95L1975.97,898.67L1969.86,896.47L1971.7,892.3L1967.56,889.85L1969.28,887.92L1972.19,887.85L1968.74,883.87L1969.31,880.53L1963.7,883.98L1966.75,879.89L1972.57,877.7L1973.13,868.82L1969.43,868.97L1969.23,868.25L1969.55,868.79L1970.28,867.65L1972.77,868.1L1974.03,871.14L1972.75,877.83L1969.27,882.91L1972.75,888.08L1968.19,889.31L1972.35,892.24L1970.43,895.86L1976.21,894.16L1975.3,896.64L1984.32,900.58L1984.54,944.93L1983.63,946.58L1984.56,947.85L1985.22,1077.49L123.71,1078.01ZM1461.63,1051.74L1468.76,1051.21L1468.83,1047.85L1464.55,1046.96L1461.63,1051.74ZM1384.32,1029.64L1384.5,1027.66L1379.48,1027.77L1381.06,1031.41L1384.32,1029.64ZM1317.07,1031.61L1333.96,1029.57L1349.53,1035.46L1351.91,1032.61L1369.92,1030.89L1362.51,1024.87L1358.26,1029.46L1346.91,1028.56L1347.9,1026.95L1349.79,1026.07L1348.55,1021.05L1343,1016.69L1335.57,1021.36L1330.83,1016.48L1330.2,1023.48L1329.29,1022.1L1330.05,1016.45L1328.61,1015.78L1322.97,1017.28L1322.6,1021.2L1321.29,1017.76L1318.12,1017.57L1318.66,1020.24L1315.74,1020.3L1316.6,1019L1318.54,1019.85L1316.25,1017.56L1304.9,1022.74L1305.82,1027.76L1317.07,1031.61ZM1911.47,1024.16L1919.33,1028.76L1923.47,1028.23L1926.03,1019.75L1931.7,1017.61L1931.55,1011.79L1924.58,1003.19L1911.64,1000.46L1907.49,1004.78L1911.47,1024.16ZM1285.28,988.24L1278.82,992.58L1286.9,1004.88L1301.42,1014.22L1303.79,1010.03L1286.49,995L1289.12,995.34L1285.28,988.24ZM1179.2,997.23L1188.34,997.94L1192.59,1004.73L1206.85,1000.32L1197.08,1000.48L1179.64,993.33L1179.2,997.23ZM1175.34,995.68L1170.27,993.89L1172.67,1000.81L1175.34,995.68ZM1160.14,991.55L1162.73,996.18L1165.88,993.46L1163.48,990.42L1160.14,991.55ZM1938.17,945.26L1936.41,942.03L1928.76,947.23L1925.86,944.14L1922.2,946.21L1920.3,942.6L1915.91,947.71L1918.14,961.17L1915.8,964.79L1925.32,965.63L1930.6,962.59L1926.48,956.3L1929.22,951.71L1938.17,945.26ZM1850.3,892.95L1851.57,886.09L1842.04,885.34L1833.99,895.58L1841.14,898L1850.3,892.95ZM1968.75,1029.43L1956.34,1025.7L1949.62,1033.22L1951.82,1040.53L1948.86,1050.54L1954.11,1058.37L1953,1068.25L1966.29,1066.14L1966.93,1072.07L1979.69,1063.94L1974.38,1056.03L1975.76,1045.74L1968.75,1029.43ZM1944.28,973.51L1942.2,967.8L1938.33,966.68L1933.91,973.46L1935.6,976.25L1944.28,973.51ZM1958.77,927.83L1955.62,930.02L1958.95,934.86L1968.01,933.13L1958.77,927.83Z" fill-rule="evenodd" fill="#4682b4" fill-opacity="0.471"/>
<polyline points="123.71,1078.01 125.7,638.73 174.75,662.4 253.63,711.92 258.59,718.82 258.46,731.88 255.99,732.94 259.75,734.44 266.33,759.29 281.38,774.74 312.18,768.01 355.65,771.14 380.48,766.9 419.9,775.55 440.09,784.61 459.24,785.92 485.68,794.48 490.88,793.16 505.38,799.73 549.56,794.72 588.1,801.4 600.3,798.72 630.2,801.93 664.19,811.42 669.64,806.14 690.29,808.45 790.87,856.65 888.21,910.97 967.11,944.51 1013.11,969.7 1018.82,968.98 1025.59,976.56 1061.78,995.05 1127.93,1017.16 1235.53,1036.56 1351.8,1066.68 1362.72,1066.08 1363.06,1060.12 1355.09,1055.16 1359.19,1061.33 1356.13,1063.95 1352.52,1055.16 1342.7,1062.35 1332.03,1047.17 1331.14,1049.34 1314.17,1046.13 1301.29,1035.16 1291.64,1036.69 1264.77,1031.33 1253.12,1022.24 1241.89,1025.09 1225.66,1009.77 1224.66,1009.56 1226.52,1009.8 1243.09,1024.63 1254.78,1021.06 1266.84,1029.48 1281.62,1027.29 1291.83,1029.87 1284.8,1020.62 1283.28,1023.19 1282.01,1021.3 1282.26,1017.85 1280.77,1016.08 1276.12,1019.55 1279.08,1015.11 1274.3,1014.05 1275.07,1010.39 1271.77,1016 1274.19,1017.73 1270.02,1018.08 1268.47,1015.27 1263.68,1017.56 1265.39,1015.49 1268.92,1014.23 1270.65,1017.07 1273.56,1008.79 1267.54,1003.12 1264.22,1004.95 1261.22,1004.26 1265.52,1003.62 1265.12,998.69 1256.05,994.69 1255.85,998.74 1251.55,1004.01 1253.33,998.78 1255.16,998.44 1254.69,995.61 1246.82,995.61 1247.76,994.32 1254.17,994 1251.29,991.51 1243.42,996.99 1223.25,997.8 1213.69,1007.43 1208.42,1011.48 1201.89,1006.13 1194.31,1009.36 1180.94,999.63 1175.32,1003.58 1168.56,999.97 1164.68,1003.57 1162.58,997.68 1162.27,999.65 1157.71,997.62 1161.91,996.75 1158.97,991.77 1157.47,992.55 1157.87,991.38 1151,992.12 1155.48,988.78 1154.93,981.92 1153.37,985.62 1150.43,985.59 1148.72,983.93 1148.86,986.36 1145.52,985.04 1145.43,987.68 1142.94,988.16 1142.79,986.76 1141.37,987.77 1139.95,985.84 1139.14,987.05 1135.69,984.28 1137.57,985.88 1140.47,985.79 1140.76,986.94 1141.64,986.43 1141.61,987.57 1145.45,984.89 1148.32,985.33 1148.24,984.04 1150.43,980.7 1149.1,980.34 1149.08,982.69 1147.51,982.7 1142.47,976.62 1143.89,975.31 1145.2,976.69 1144.06,977.82 1145.94,977.48 1147.54,982.32 1148.75,982.55 1148.61,980.4 1150.38,980.03 1150.82,982.07 1149.68,984.45 1152.71,985.23 1153.82,981.45 1155.35,981.34 1157.03,989.51 1160.79,989.35 1157.86,981.7 1156.12,981.28 1158.24,981.12 1158.67,976.7 1159.48,978.35 1158.48,982.76 1161.15,982.89 1161.04,988.45 1173.92,993.26 1174.86,990.7 1169.58,987.44 1175.08,990.1 1175.67,985.49 1179.83,985.56 1176.74,982.64 1173.54,985.48 1173.46,980.7 1172.23,982.73 1168.72,979.78 1171.09,980.33 1172.32,982.44 1172.8,980.41 1175.11,978.93 1172.79,977.13 1173.08,973.91 1173.59,974.74 1173.07,976 1175.47,978.86 1173.97,985.04 1174.83,983.16 1177.34,981.99 1183.95,987.21 1183.13,982.54 1185,984.39 1185.28,987.2 1187.63,987.64 1187.44,983.17 1188.45,988.48 1195.43,990.85 1196.87,985.49 1200.49,985.96 1196.9,983.04 1201.3,984 1200.74,986.58 1199.49,988.03 1208.11,986.39 1205.13,989.02 1214.92,989.47 1222.6,978.96 1212.49,983.97 1216.33,980.93 1209.91,978.4 1210.51,974.66 1203.68,974.35 1203.75,976.83 1202.57,973.32 1203.04,969.61 1200.62,971.63 1195.64,966.86 1189.75,968.1 1190.5,965.5 1188.61,965.3 1189.32,963.14 1187.11,964.03 1187.35,962.57 1189.69,963.05 1188.92,965.07 1190.84,964.79 1190.28,967.83 1194.38,963.59 1200.53,970.64 1203.43,967.83 1204.33,972.82 1208.27,972.67 1208.09,966.95 1208.42,972.42 1212.76,972.76 1213.59,977.67 1217.17,978.45 1218.73,972.82 1224.35,974.61 1228.76,972.06 1215.66,968.53 1214.47,965.54 1216.3,965.71 1218.65,968.6 1222.1,967.47 1218.18,959.85 1217.28,959.81 1215.86,963.21 1214.83,963.83 1211.41,959.23 1211.29,956.11 1215.59,963.14 1216.59,953.3 1217.49,954.14 1216.73,957.95 1225.01,967.86 1229.82,967.17 1226.13,959.73 1229.39,958.9 1229.38,960.36 1228.09,961.79 1230.32,966.17 1229.19,969.36 1233.81,978.12 1245.38,974.1 1236.78,971.86 1231.66,964.12 1238.35,971.59 1243.28,968.01 1243.53,962.59 1243.68,967.87 1241.98,969.91 1244.6,970.55 1246.45,974.54 1245.25,976.93 1240.63,978.4 1253.36,978.66 1257.36,974.37 1254.79,970.79 1257.89,973.64 1254.58,981.18 1265.12,982.52 1265.05,979.75 1269.04,979.52 1271.62,983.54 1285.21,985.36 1285.68,982.56 1285.64,985.98 1289.74,985.02 1288.57,987.42 1297.23,996.02 1296.12,993.29 1300.38,994.05 1303.6,990.47 1303.24,992.41 1301.75,993.67 1299.22,994.34 1296.4,993.62 1298.94,996.12 1296.71,997.22 1304.1,1004.05 1305.94,1000.73 1306.45,1001.6 1303.85,1004.96 1306.57,1007.99 1307.95,1005.31 1308.08,1011.99 1311.42,1011.93 1309.54,1003.82 1317.95,1003.8 1319.23,997.96 1320.02,999.33 1318.55,1003.92 1312.9,1005.68 1312.38,1014.86 1323.96,1010.44 1327.21,1001.45 1327.17,1006.5 1324.37,1010.81 1321.1,1013.23 1329.48,1013.47 1335.89,1003.6 1335.87,991.35 1345.15,991.41 1336.57,993.18 1336.32,1006.38 1335.75,1006.19 1331.8,1013.83 1334.77,1020.3 1343.33,1014.65 1352.77,1017.32 1348.97,1018.53 1355.87,1027.23 1359.55,1022.56 1366.59,1021.53 1364.27,1013.76 1351.78,1002.71 1341.67,1003.79 1341.59,1003.2 1349.64,1001.7 1347.12,991.42 1349.58,991.44 1353.87,988.36 1352.87,983.51 1354.33,988.51 1350.43,995.27 1353.71,994.66 1354.82,988.87 1358.19,993.07 1360.76,988.81 1364.62,995.08 1367.8,993.73 1364.74,995.44 1360.95,989.33 1359.93,992.69 1357.8,993.28 1354.91,989.35 1353.83,997.96 1350.53,996.5 1350.65,998.98 1366.69,1011.33 1372.21,1009.57 1368.81,1006.15 1371.74,1006.58 1372.77,1008.9 1379.61,998.34 1380,1001.16 1373.77,1007.66 1382.56,1010.1 1378.83,1012.44 1378.89,1011.72 1380.53,1011.3 1380.15,1010.31 1374.24,1008.3 1375.04,1011.39 1367.39,1012.69 1373.94,1019.53 1375.2,1019.68 1375.74,1017.22 1379.4,1015.18 1377.94,1017.13 1375.98,1017.25 1375.87,1019.46 1373.73,1020.52 1378.45,1026.07 1383.03,1019.04 1386.99,1017.12 1385.64,1017.04 1385.57,1013.81 1385.92,1016.34 1387.17,1016.04 1387.21,1017.01 1386.57,1018.01 1383.19,1019.35 1386.82,1019.03 1386.66,1021.75 1379.49,1025.86 1385.81,1026.75 1382.78,1033.79 1401.68,1029.36 1393.15,1026.54 1389.71,1022.62 1393.76,1016.84 1391.84,1016.84 1391.83,1014.65 1394.95,1010.33 1394.69,1012.85 1392.01,1014.8 1393.16,1015.59 1392.87,1016.71 1393.96,1016.6 1393.29,1025.87 1405.17,1022.1 1402.3,1022.09 1399.92,1018.75 1400.25,1017.59 1402.58,1018 1401.72,1017.2 1401.79,1015 1401.86,1017.06 1402.73,1018.08 1400.13,1017.78 1400.11,1018.72 1402.05,1019.45 1402.56,1021.91 1405.56,1021.8 1404.33,1023.27 1399.83,1024.91 1402.47,1029.8 1397.78,1034.21 1406.85,1027.78 1408.29,1032.25 1413.36,1032.33 1408.63,1033.5 1409.4,1036.23 1417.21,1035.45 1421.13,1028.03 1419.15,1023.18 1422.12,1025.44 1422.38,1020.44 1419.86,1020.04 1422.56,1020.25 1423.57,1025.02 1420.65,1026.18 1425.08,1026.4 1423.7,1028.28 1421.86,1027.62 1425.25,1031.64 1420.77,1030.69 1417.83,1035.82 1409.27,1036.76 1406.81,1028.32 1400.58,1034.29 1402.52,1036.09 1384.33,1037.05 1391.71,1043 1380.06,1037.88 1379.27,1043.23 1385.92,1051.12 1379.71,1051.59 1377.44,1038.36 1372.96,1044.02 1370.59,1050.68 1375.56,1060.25 1393.98,1071.76 1408.33,1075.21 1433.15,1068.73 1436.7,1065.85 1437.16,1061.52 1431.31,1064.53 1428.26,1061.28 1425.42,1064.18 1419.65,1058.45 1412.19,1058.33 1402.68,1063.76 1409.2,1055.57 1430.71,1054.82 1441.17,1049.92 1434.25,1045.58 1432.5,1048.08 1432.09,1043.69 1425.22,1038.62 1426,1032.53 1428.65,1035.67 1433.93,1035.15 1437.62,1038.03 1441.75,1034.8 1437.7,1038.33 1435.2,1037.67 1432.68,1035.4 1429.97,1035.98 1429.79,1039.93 1452.9,1050.49 1460.39,1046.75 1461.48,1041.34 1453.71,1038.58 1448.73,1031.19 1444.75,1031.8 1442.41,1029.02 1438.42,1029.92 1442.46,1028.68 1445.12,1031.3 1448.08,1029.09 1438.56,1015.63 1432.72,1022.96 1435.92,1015.35 1437.71,1014.98 1439.61,1015.96 1440.61,1014.59 1448.41,1020.3 1451.16,1028.68 1457.02,1028.16 1454.45,1021.68 1458.67,1017.17 1456.13,1014.31 1453.88,1017.38 1451.4,1015.61 1454.54,1007.48 1456,1009.32 1454.58,1014.13 1459.25,1010.98 1458.43,1020.57 1457.6,1021.51 1455.31,1021.33 1454.8,1022.29 1458.9,1026.86 1455.84,1029.34 1451.98,1029.18 1451.72,1030.63 1469.3,1046.72 1465.84,1035.18 1472.63,1025.87 1466.01,1024.38 1464.31,1022.51 1465.19,1019.9 1467.09,1019.8 1468,1017.13 1467.26,1020.03 1465,1020.62 1464.84,1022.73 1466.25,1024.12 1467.78,1023.91 1470.03,1025.24 1472.37,1024.85 1473.17,1025.87 1470.04,1032.14 1466.53,1035.4 1470.98,1044.79 1468.73,1051.43 1472.34,1059.58 1475.31,1057.62 1481.02,1059.58 1480.29,1058.1 1480.77,1056.18 1484.7,1055.47 1482.91,1052.93 1485.34,1048.23 1486.21,1050.29 1483.3,1052.89 1484.99,1055.63 1480.52,1058.13 1492.15,1055.34 1492.42,1056.62 1491.37,1057.08 1491.96,1058.38 1493.98,1055.59 1494.06,1058.56 1495.48,1059.11 1496.2,1058.04 1497.47,1058.03 1498.79,1060.4 1495.97,1063.06 1500.4,1061.8 1499.11,1064.03 1496.59,1064.19 1495.71,1062.44 1498.68,1060.42 1497.61,1058.21 1494.5,1059.21 1493.85,1055.81 1492.59,1058.65 1490.69,1058.52 1491.15,1056.63 1492.21,1056.53 1492.08,1055.5 1489.82,1057.68 1488.17,1057.62 1487.71,1056.45 1487.19,1057.97 1484.26,1058.85 1483.11,1057.93 1483.1,1059.19 1479.09,1061.52 1475.73,1058.49 1471.89,1061.96 1466.29,1052.09 1445.95,1060.31 1445.51,1063.2 1450.04,1064.88 1531.62,1069.17 1550.99,1075.74 1580.28,1068.13 1605.85,1067.43 1629.52,1071.02 1638.31,1064.33 1657.55,1064.09 1750.44,1072.96 1759.44,1076.78 1759.25,1073.69 1764.55,1072.35 1811.38,1077.93 1814.92,1075.45 1812.73,1068.24 1801.49,1063.76 1798.65,1055.91 1806.24,1037.47 1822.58,1028.77 1826.09,1031.15 1828.17,1026.87 1840.59,1021.26 1844.35,1014.74 1865.82,1010.13 1897.01,979.28 1901.33,965.18 1908.22,965.31 1898.96,952.5 1881.06,944.44 1878.88,938.57 1881.44,936.06 1873.85,927.98 1859.2,927.23 1858.1,923.77 1855.48,925.6 1847.86,917.15 1838.83,913.74 1832.31,902.23 1835.74,898.12 1828.81,893.85 1828.98,899.86 1825.32,902.67 1823.62,900.11 1824.22,894.76 1822.07,899.45 1819.28,898.91 1821.19,895.75 1824,894.29 1825.33,895.98 1824.4,900.39 1828.12,899.81 1827.31,895.48 1828.05,893.57 1830.02,893.57 1832.74,895.29 1830.03,889.73 1825.58,891.5 1822,887.29 1821.25,891.92 1817.28,894.35 1818.34,897.05 1815.27,898.33 1818.28,896.84 1814.7,894.1 1819.52,892.72 1819.59,890.55 1817.32,892.21 1814.56,888.52 1814.07,889.5 1812.98,889.63 1813.68,891.45 1812.94,892.34 1811.56,890.8 1809.71,891.74 1811.45,890.74 1812.47,892.34 1813.49,891.89 1812.85,889.76 1814.07,889.42 1814.47,888.41 1817.43,889.47 1817.33,892 1818.66,890.19 1820.71,891.36 1819.59,888.57 1822.5,886.75 1824.58,887.45 1825.63,891.03 1828.8,888.63 1827.45,883.49 1824.32,885.72 1820.26,883.25 1824.2,885.61 1826.42,884.55 1825.85,879.68 1820,878.78 1816.92,883.04 1817.88,879.95 1819.62,878.66 1817.6,876 1821.06,878.11 1825.79,866.17 1825.64,870.15 1831.07,872 1829.81,862.36 1832.58,862.18 1831.03,864.31 1833.33,866.52 1831.72,872.01 1830.05,874.2 1825.69,870.92 1825.52,874.06 1821.91,877.74 1827.24,878.35 1832.62,890.21 1844.16,861.75 1859.28,862.04 1874.01,865.41 1892.6,888.55 1903.08,891.66 1903.8,894.75 1918.95,894.55 1918.71,889.92 1920.14,890.13 1920.64,892.05 1922.75,892.22 1921.7,890.56 1925.05,887.13 1924.85,888.49 1922.76,890.41 1923.46,891.72 1923,892.62 1920.64,892.3 1919.75,890.17 1918.64,890.7 1919.75,893.21 1919.55,895.58 1924.72,900.4 1926.69,898.37 1927.32,901.15 1929.69,895.35 1930.41,897.37 1928.36,900.9 1926.62,901.02 1926.3,898.64 1924.71,902.15 1930.13,908.79 1939.28,896 1934.52,895.84 1935.26,890.99 1932.57,890.68 1932.84,885.56 1927.15,882.05 1926.89,880.06 1929.2,882.97 1932.06,881.46 1933.62,887.73 1936.12,884.84 1934.88,886.92 1935.38,887.65 1933.11,889.97 1936.16,890.83 1935.65,895.65 1937.62,894.05 1943.74,896.73 1939.21,891.36 1941.96,892.75 1944.54,889.13 1941.22,887.53 1942.12,884.98 1939.99,885.12 1941.93,884.66 1942.87,886.3 1944.23,884.82 1944.17,886.24 1941.57,887.3 1944.92,888.85 1941.34,893.69 1944.6,895.71 1942.84,899.77 1942.77,897.91 1939.23,898.36 1934.73,913.15 1951.24,910.99 1951.16,907.94 1956.78,910.2 1951.4,895.96 1949.84,897.17 1948.42,890.03 1949.64,888.84 1951.61,888.56 1948.62,890.01 1950.87,893.63 1950.65,895.55 1955.13,896.7 1955.75,893.34 1958.49,893.39 1956.25,890.77 1960.78,889.93 1957.45,889.76 1957.71,885.84 1956.76,887.02 1955.02,886.52 1956.54,884.58 1955.35,886.6 1956.49,886.91 1957.02,885.57 1957.83,885.64 1958.35,888.15 1957.67,889.52 1959.92,888.95 1961.16,890.23 1959.59,891.89 1956.7,890.74 1958.95,893.25 1956.05,894.82 1961.69,893.95 1961.33,895.7 1958.92,895.74 1959.6,899.76 1954.66,898.79 1957.82,905.27 1974.81,902.95 1975.97,898.67 1969.86,896.47 1971.7,892.3 1967.56,889.85 1969.28,887.92 1972.19,887.85 1968.74,883.87 1969.31,880.53 1963.7,883.98 1966.75,879.89 1972.57,877.7 1973.13,868.82 1969.43,868.97 1969.23,868.25 1969.55,868.79 1970.28,867.65 1972.77,868.1 1974.03,871.14 1972.75,877.83 1969.27,882.91 1972.75,888.08 1968.19,889.31 1972.35,892.24 1970.43,895.86 1976.21,894.16 1975.3,896.64 1984.32,900.58 1984.54,944.93 1983.63,946.58 1984.56,947.85 1985.22,1077.49 123.71,1078.01" fill="none" stroke="#1e1e1e" stroke-width="2.08" stroke-linecap="round" stroke-linejoin="round"/>
<polyline points="1461.63,1051.74 1468.76,1051.21 1468.83,1047.85 1464.55,1046.96 1461.63,1051.74" fill="none" stroke="#1e1e1e" stroke-width="2.08" stroke-linecap="round" stroke-linejoin="round"/>
<polyline points="1384.32,1029.64 1384.5,1027.66 1379.48,1027.77 1381.06,1031.41 1384.32,1029.64" fill="none" stroke="#1e1e1e" stroke-width="2.08" stroke-linecap="round" stroke-linejoin="round"/>
<polyline points="1317.07,1031.61 1333.96,1029.57 1349.53,1035.46 1351.91,1032.61 1369.92,1030.89 1362.51,1024.87 1358.26,1029.46 1346.91,1028.56 1347.9,1026.95 1349.79,1026.07 1348.55,1021.05 1343,1016.69 1335.57,1021.36 1330.83,1016.48 1330.2,1023.48 1329.29,1022.1 1330.05,1016.45 1328.61,1015.78 1322.97,1017.28 1322.6,1021.2 1321.29,1017.76 1318.12,1017.57 1318.66,1020.24 1315.74,1020.3 1316.6,1019 1318.54,1019.85 1316.25,1017.56 1304.9,1022.74 1305.82,1027.76 1317.07,1031.61" fill="none" stroke="#1e1e1e" stroke-width="2.08" stroke-linecap="round" stroke-linejoin="round"/>
<polyline points="1911.47,1024.16 1919.33,1028.76 1923.47,1028.23 1926.03,1019.75 1931.7,1017.61 1931.55,1011.79 1924.58,1003.19 1911.64,1000.46 1907.49,1004.78 1911.47,1024.16" fill="none" stroke="#1e1e1e" stroke-width="2.08" stroke-linecap="round" stroke-linejoin="round"/>
<polyline points="1285.28,988.24 1278.82,992.58 1286.9,1004.88 1301.42,1014.22 1303.79,1010.03 1286.49,995 1289.12,995.34 1285.28,988.24" fill="none" stroke="#1e1e1e" stroke-width="2.08" stroke-linecap="round" stroke-linejoin="round"/>
<polyline points="1179.2,997.23 1188.34,997.94 1192.59,1004.73 1206.85,1000.32 1197.08,1000.48 1179.64,993.33 1179.2,997.23" fill="none" stroke="#1e1e1e" stroke-width="2.08" stroke-linecap="round" stroke-linejoin="round"/>
<polyline points="1175.34,995.68 1170.27,993.89 1172.67,1000.81 1175.34,995.68" fill="none" stroke="#1e1e1e" stroke-width="2.08" stroke-linecap="round" stroke-linejoin="round"/>
<polyline points="1160.14,991.55 1162.73,996.18 1165.88,993.46 1163.48,990.42 1160.14,991.55" fill="none" stroke="#1e1e1e" stroke-width="2.08" stroke-linecap="round" stroke-linejoin="round"/>
<polyline points="1938.17,945.26 1936.41,942.03 1928.76,947.23 1925.86,944.14 1922.2,946.21 1920.3,942.6 1915.91,947.71 1918.14,961.17 1915.8,964.79 1925.32,965.63 1930.6,962.59 1926.48,956.3 1929.22,951.71 1938.17,945.26" fill="none" stroke="#1e1e1e" stroke-width="2.08" stroke-linecap="round" stroke-linejoin="round"/>
<polyline points="1850.3,892.95 1851.57,886.09 1842.04,885.34 1833.99,895.58 1841.14,898 1850.3,892.95" fill="none" stroke="#1e1e1e" stroke-width="2.08" stroke-linecap="round" stroke-linejoin="round"/>
<polyline points="1968.75,1029.43 1956.34,1025.7 1949.62,1033.22 1951.82,1040.53 1948.86,1050.54 1954.11,1058.37 1953,1068.25 1966.29,1066.14 1966.93,1072.07 1979.69,1063.94 1974.38,1056.03 1975.76,1045.74 1968.75,1029.43" fill="none" stroke="#1e1e1e" stroke-width="2.08" stroke-linecap="round" stroke-linejoin="round"/>
<polyline points="1944.28,973.51 1942.2,967.8 1938.33,966.68 1933.91,973.46 1935.6,976.25 1944.28,973.51" fill="none" stroke="#1e1e1e" stroke-width="2.08" stroke-linecap="round" stroke-linejoin="round"/>
<polyline points="1958.77,927.83 1955.62,930.02 1958.95,934.86 1968.01,933.13 1958.77,927.83" fill="none" stroke="#1e1e1e" stroke-width="2.08" stroke-linecap="round" stroke-linejoin="round"/>
<path d="M1984.28,892.98L1979.55,889.84L1981.49,886.7L1979.22,889.25L1977.49,887.23L1980.5,887.84L1984.22,881.12L1983.24,891.85L1984.27,891.37L1984.28,892.98Z" fill-rule="evenodd" fill="#4682b4" fill-opacity="0.471"/>
<polyline points="1984.28,892.98 1979.55,889.84 1981.49,886.7 1979.22,889.25 1977.49,887.23 1980.5,887.84 1984.22,881.12 1983.24,891.85 1984.27,891.37 1984.28,892.98" fill="none" stroke="#1e1e1e" stroke-width="2.08" stroke-linecap="round" stroke-linejoin="round"/>
<path d="M1984.09,855.72L1984.08,854.43L1984.09,855.72Z" fill-rule="evenodd" fill="#4682b4" fill-opacity="0.471"/>
<polyline points="1984.09,855.72 1984.08,854.43 1984.09,855.72" fill="none" stroke="#1e1e1e" stroke-width="2.08" stroke-linecap="round" stroke-linejoin="round"/>
<path d="M1984.06,849.51L1978.22,850.03L1978.67,853.02L1977.62,853.44L1975.96,852.59L1974.18,857.67L1975.72,852.34L1978.21,853.04L1976.17,851.8L1976.77,850.33L1974.41,848.93L1976.78,847.3L1976.04,849.46L1977.1,850.48L1976.48,851.83L1978.7,849.21L1984.05,848.86L1984.06,849.51Z" fill-rule="evenodd" fill="#4682b4" fill-opacity="0.471"/>
<polyline points="1984.06,849.51 1978.22,850.03 1978.67,853.02 1977.62,853.44 1975.96,852.59 1974.18,857.67 1975.72,852.34 1978.21,853.04 1976.17,851.8 1976.77,850.33 1974.41,848.93 1976.78,847.3 1976.04,849.46 1977.1,850.48 1976.48,851.83 1978.7,849.21 1984.05,848.86 1984.06,849.51" fill="none" stroke="#1e1e1e" stroke-width="2.08" stroke-linecap="round" stroke-linejoin="round"/>
<path d="M1984.04,847.04L1981.36,845.35L1980.88,837.49L1977.36,837.42L1978.9,835.44L1969.28,836.34L1975.69,834.22L1979.25,835.32L1977.8,837.4L1979.9,835.81L1983.42,836.97L1981.4,842.73L1984.02,841.78L1984.04,847.04Z" fill-rule="evenodd" fill="#4682b4" fill-opacity="0.471"/>
<polyline points="1984.04,847.04 1981.36,845.35 1980.88,837.49 1977.36,837.42 1978.9,835.44 1969.28,836.34 1975.69,834.22 1979.25,835.32 1977.8,837.4 1979.9,835.81 1983.42,836.97 1981.4,842.73 1984.02,841.78 1984.04,847.04" fill="none" stroke="#1e1e1e" stroke-width="2.08" stroke-linecap="round" stroke-linejoin="round"/>
<path d="M1983.93,824.28L1981.8,822.84L1983.91,820.83L1982.38,823.06L1983.92,823.36L1983.93,824.28Z" fill-rule="evenodd" fill="#4682b4" fill-opacity="0.471"/>
<polyline points="1983.93,824.28 1981.8,822.84 1983.91,820.83 1982.38,823.06 1983.92,823.36 1983.93,824.28" fill="none" stroke="#1e1e1e" stroke-width="2.08" stroke-linecap="round" stroke-linejoin="round"/>
<path d="M1983.89,817.59L1977.24,815.98L1983.43,814.51L1983.89,817.59Z" fill-rule="evenodd" fill="#4682b4" fill-opacity="0.471"/>
<polyline points="1983.89,817.59 1977.24,815.98 1983.43,814.51 1983.89,817.59" fill="none" stroke="#1e1e1e" stroke-width="2.08" stroke-linecap="round" stroke-linejoin="round"/>
<path d="M1412.2,1048.15L1399.86,1046.13L1399.43,1050.55L1399.06,1046.23L1395.08,1044.48L1405.39,1045.46L1407.72,1043.69L1405.98,1042.42L1406.75,1041.14L1406.08,1042.26L1407.88,1043.43L1409.07,1047.44L1413.3,1046.96L1412.2,1048.15Z" fill-rule="evenodd" fill="#4682b4" fill-opacity="0.471"/>
<polyline points="1412.2,1048.15 1399.86,1046.13 1399.43,1050.55 1399.06,1046.23 1395.08,1044.48 1405.39,1045.46 1407.72,1043.69 1405.98,1042.42 1406.75,1041.14 1406.08,1042.26 1407.88,1043.43 1409.07,1047.44 1413.3,1046.96 1412.2,1048.15" fill="none" stroke="#1e1e1e" stroke-width="2.08" stroke-linecap="round" stroke-linejoin="round"/>
<path d="M1432.24,1048.46L1431.55,1049.44L1427.87,1045.74L1427.85,1049.9L1421.84,1045.99L1428.41,1045.25L1432.24,1048.46Z" fill-rule="evenodd" fill="#4682b4" fill-opacity="0.471"/>
<polyline points="1432.24,1048.46 1431.55,1049.44 1427.87,1045.74 1427.85,1049.9 1421.84,1045.99 1428.41,1045.25 1432.24,1048.46" fill="none" stroke="#1e1e1e" stroke-width="2.08" stroke-linecap="round" stroke-linejoin="round"/>
<path d="M1414.11,1027.72L1414.3,1032.09L1413.53,1032.28L1414.11,1027.72Z" fill-rule="evenodd" fill="#4682b4" fill-opacity="0.471"/>
<polyline points="1414.11,1027.72 1414.3,1032.09 1413.53,1032.28 1414.11,1027.72" fill="none" stroke="#1e1e1e" stroke-width="2.08" stroke-linecap="round" stroke-linejoin="round"/>
<path d="M1413.85,1021.61L1413.92,1023.16L1408.12,1023.23L1407.56,1022.42L1408.01,1021.17L1410.77,1019.93L1411.91,1017.95L1409.86,1014.82L1412.06,1017.7L1411.09,1019.78L1407.78,1021.68L1407.99,1022.91L1413.85,1021.61Z" fill-rule="evenodd" fill="#4682b4" fill-opacity="0.471"/>
<polyline points="1413.85,1021.61 1413.92,1023.16 1408.12,1023.23 1407.56,1022.42 1408.01,1021.17 1410.77,1019.93 1411.91,1017.95 1409.86,1014.82 1412.06,1017.7 1411.09,1019.78 1407.78,1021.68 1407.99,1022.91 1413.85,1021.61" fill="none" stroke="#1e1e1e" stroke-width="2.08" stroke-linecap="round" stroke-linejoin="round"/>
</svg>
