<?xml version="1.0" encoding="UTF-8" standalone="no"?>
<svg xmlns="http://www.w3.org/2000/svg" width="2000" height="1830" viewBox="0 0 2000 1830">
<rect width="2000" height="1830" fill="#ffffff"/>
<path d="M12.11,1314.97L11.62,1799.97L9.11,1801.45L11.6,1812.12L11.6,1814.8L9.84,1818.32L11.6,1819.01L11.59,1821.5L8.68,1821.5L9.19,1314.97L12.11,1314.97Z" fill-rule="evenodd" fill="#4682b4" fill-opacity="0.471"/>
<polyline points="12.11,1314.97 11.62,1799.97 9.11,1801.45 11.6,1812.12 11.6,1814.8 9.84,1818.32 11.6,1819.01 11.59,1821.5 8.68,1821.5 9.19,1314.97 12.11,1314.97" fill="none" stroke="#1e1e1e" stroke-width="1.56" stroke-linecap="round" stroke-linejoin="round"/>
<path d="M13.43,8L13.09,345.31L10.18,345.31L10.52,8L13.43,8Z" fill-rule="evenodd" fill="#4682b4" fill-opacity="0.471"/>
<polyline points="13.43,8 13.09,345.31 10.18,345.31 10.52,8 13.43,8" fill="none" stroke="#1e1e1e" stroke-width="1.56" stroke-linecap="round" stroke-linejoin="round"/>
<path d="M320.91,1315.23L318.45,1316.4L317.87,1318.26L322.57,1319.31L323.98,1317.13L322.58,1316.01L322.94,1315.24L982.56,1315.47L982.55,1822L17.61,1821.51L18.05,1820.18L20.61,1819.33L19.74,1816.58L22.07,1810.71L17.26,1799.71L17.13,1801.24L14.01,1798.54L11.31,1800.15L11.8,1314.97L320.91,1315.23Z" fill-rule="evenodd" fill="#4682b4" fill-opacity="0.471"/>
<polyline points="320.91,1315.23 318.45,1316.4 317.87,1318.26 322.57,1319.31 323.98,1317.13 322.58,1316.01 322.94,1315.24 982.56,1315.47 982.55,1822 17.61,1821.51 18.05,1820.18 20.61,1819.33 19.74,1816.58 22.07,1810.71 17.26,1799.71 17.13,1801.24 14.01,1798.54 11.31,1800.15 11.8,1314.97 320.91,1315.23" fill="none" stroke="#1e1e1e" stroke-width="1.56" stroke-linecap="round" stroke-linejoin="round"/>
<path d="M11.28,1821.5L11.29,1818.89L12.43,1819.33L12.96,1821.5L11.28,1821.5Z" fill-rule="evenodd" fill="#4682b4" fill-opacity="0.471"/>
<polyline points="11.28,1821.5 11.29,1818.89 12.43,1819.33 12.96,1821.5 11.28,1821.5" fill="none" stroke="#1e1e1e" stroke-width="1.56" stroke-linecap="round" stroke-linejoin="round"/>
<path d="M13.1,1821.5L14.58,1820.48L15.18,1821.5L13.1,1821.5Z" fill-rule="evenodd" fill="#4682b4" fill-opacity="0.471"/>
<polyline points="13.1,1821.5 14.58,1820.48 15.18,1821.5 13.1,1821.5" fill="none" stroke="#1e1e1e" stroke-width="1.56" stroke-linecap="round" stroke-linejoin="round"/>
<path d="M11.29,1810.8L12.03,1813.95L11.29,1815.42L11.29,1810.8Z" fill-rule="evenodd" fill="#4682b4" fill-opacity="0.471"/>
<polyline points="11.29,1810.8 12.03,1813.95 11.29,1815.42 11.29,1810.8" fill="none" stroke="#1e1e1e" stroke-width="1.56" stroke-linecap="round" stroke-linejoin="round"/>
<path d="M982.57,345.5L982.56,1315.78L322.8,1315.55L323.53,1314L320.26,1315.54L11.8,1315.28L12.78,345L982.57,345.5ZM402.87,1216.4L403.86,1213.88L399.68,1209.69L399.53,1207.2L397.05,1204.76L396.7,1196.02L395.87,1195.21L394.67,1198.06L392.02,1197.5L390.5,1194.62L391.82,1191.56L387.78,1190.43L387.51,1187.14L390.49,1185.97L389.62,1183.91L383.92,1183.14L381.21,1180.59L379.96,1176.3L369.54,1172.79L361.53,1175.17L357.45,1173.76L355.67,1175.11L351.53,1174.88L350.13,1178.95L344.73,1182.73L338.97,1189.4L334.83,1191.77L329.44,1191.29L327.35,1195.04L323.43,1197L321.53,1201.03L317.65,1201.11L315.52,1204.1L311.21,1205.78L307.32,1220.49L303.55,1222.85L300.19,1231.42L301.79,1233.83L300.6,1237.75L302.62,1246.04L301.11,1247.56L302.86,1248.08L302.73,1251.04L306.45,1255.39L306.39,1264.93L309.88,1267.91L308.44,1269.42L312.71,1272.02L310.81,1277.09L313.12,1276.86L314.1,1278.75L317.34,1278.34L319.31,1281.69L319.06,1296.35L315.99,1298.86L318.42,1302.42L318.13,1307.73L319.72,1308.84L320.47,1306.97L325.37,1305.62L326.51,1304.12L325.48,1299.95L326.73,1298.76L329.49,1301.2L329.75,1303.46L332.05,1302.23L333.73,1303.14L333.93,1298.16L336.85,1295.79L335.52,1291.34L337.35,1286.35L340.8,1285.5L341.54,1287.07L343.41,1286.52L344.23,1289.2L344.88,1288.02L348.01,1289.18L348.86,1286.22L353.23,1287.3L352.16,1285.79L355.79,1281.54L357.88,1282.14L357.62,1280.62L360.95,1280.44L361.29,1278.58L366.78,1277.62L367.15,1273.87L364.44,1272.46L364.44,1270.52L367.58,1270.09L367.44,1267.73L373.7,1264.86L372.23,1264.87L371.75,1262.63L374.52,1262.24L373.47,1261.46L374.25,1259.74L376.86,1260.79L375.69,1257.15L379.82,1256.43L378.52,1254.12L382.65,1251.74L384.77,1246.17L390.05,1244.87L395.32,1236.38L398.63,1235.35L397.59,1233.96L399.83,1231.09L398.06,1229.5L397.7,1225.92L400.17,1222.99L398.57,1220.1L400.47,1216.02L402.87,1216.4ZM633.43,793.05L635.5,794.62L635.29,792.44L633.43,793.05ZM612.54,781.54L616.97,781.52L619.13,786.34L621.02,784.51L623.8,784.35L624.46,788.7L625.87,788.17L626.45,785.87L624.73,781.79L628.89,778.4L630.9,778.27L632.05,780.19L633.56,778.91L632.18,776.33L634.19,774.1L634.96,768.87L632.77,765.56L633.08,762.71L638.3,757.85L642.07,758.66L646.07,754.76L644.78,751.8L642.47,752.18L643.72,749.9L640.31,750.42L637.76,746.79L633.3,749.79L631.9,749.13L636.31,742.69L640.83,742.05L640.17,740.11L641.81,738.16L646.1,739.7L644.9,737.94L645.89,735.74L642.64,735.1L638.83,731.75L637.29,734.28L633.6,734.66L630,732.39L625.45,731.02L624.11,732.44L622.45,731.24L623.21,733.61L620.74,735.75L613.88,735.51L612.84,744.15L615.12,746.88L612.19,750.67L614.19,755.61L612.34,761.49L609.62,763.22L604.68,763.33L602.01,760.65L599.8,762.54L602.95,765.22L601.95,768.12L603.87,772.44L603.25,777.57L604.35,779.71L605.91,779.64L606.15,777.98L609.54,777.67L612.54,781.54Z" fill-rule="evenodd" fill="#4682b4" fill-opacity="0.471"/>
<polyline points="982.57,345.5 982.56,1315.78 322.8,1315.55 323.53,1314 320.26,1315.54 11.8,1315.28 12.78,345 982.57,345.5" fill="none" stroke="#1e1e1e" stroke-width="1.56" stroke-linecap="round" stroke-linejoin="round"/>
<polyline points="402.87,1216.4 403.86,1213.88 399.68,1209.69 399.53,1207.2 397.05,1204.76 396.7,1196.02 395.87,1195.21 394.67,1198.06 392.02,1197.5 390.5,1194.62 391.82,1191.56 387.78,1190.43 387.51,1187.14 390.49,1185.97 389.62,1183.91 383.92,1183.14 381.21,1180.59 379.96,1176.3 369.54,1172.79 361.53,1175.17 357.45,1173.76 355.67,1175.11 351.53,1174.88 350.13,1178.95 344.73,1182.73 338.97,1189.4 334.83,1191.77 329.44,1191.29 327.35,1195.04 323.43,1197 321.53,1201.03 317.65,1201.11 315.52,1204.1 311.21,1205.78 307.32,1220.49 303.55,1222.85 300.19,1231.42 301.79,1233.83 300.6,1237.75 302.62,1246.04 301.11,1247.56 302.86,1248.08 302.73,1251.04 306.45,1255.39 306.39,1264.93 309.88,1267.91 308.44,1269.42 312.71,1272.02 310.81,1277.09 313.12,1276.86 314.1,1278.75 317.34,1278.34 319.31,1281.69 319.06,1296.35 315.99,1298.86 318.42,1302.42 318.13,1307.73 319.72,1308.84 320.47,1306.97 325.37,1305.62 326.51,1304.12 325.48,1299.95 326.73,1298.76 329.49,1301.2 329.75,1303.46 332.05,1302.23 333.73,1303.14 333.93,1298.16 336.85,1295.79 335.52,1291.34 337.35,1286.35 340.8,1285.5 341.54,1287.07 343.41,1286.52 344.23,1289.2 344.88,1288.02 348.01,1289.18 348.86,1286.22 353.23,1287.3 352.16,1285.79 355.79,1281.54 357.88,1282.14 357.62,1280.62 360.95,1280.44 361.29,1278.58 366.78,1277.62 367.15,1273.87 364.44,1272.46 364.44,1270.52 367.58,1270.09 367.44,1267.73 373.7,1264.86 372.23,1264.87 371.75,1262.63 374.52,1262.24 373.47,1261.46 374.25,1259.74 376.86,1260.79 375.69,1257.15 379.82,1256.43 378.52,1254.12 382.65,1251.74 384.77,1246.17 390.05,1244.87 395.32,1236.38 398.63,1235.35 397.59,1233.96 399.83,1231.09 398.06,1229.5 397.7,1225.92 400.17,1222.99 398.57,1220.1 400.47,1216.02 402.87,1216.4" fill="none" stroke="#1e1e1e" stroke-width="1.56" stroke-linecap="round" stroke-linejoin="round"/>
<polyline points="633.43,793.05 635.5,794.62 635.29,792.44 633.43,793.05" fill="none" stroke="#1e1e1e" stroke-width="1.56" stroke-linecap="round" stroke-linejoin="round"/>
<polyline points="612.54,781.54 616.97,781.52 619.13,786.34 621.02,784.51 623.8,784.35 624.46,788.7 625.87,788.17 626.45,785.87 624.73,781.79 628.89,778.4 630.9,778.27 632.05,780.19 633.56,778.91 632.18,776.33 634.19,774.1 634.96,768.87 632.77,765.56 633.08,762.71 638.3,757.85 642.07,758.66 646.07,754.76 644.78,751.8 642.47,752.18 643.72,749.9 640.31,750.42 637.76,746.79 633.3,749.79 631.9,749.13 636.31,742.69 640.83,742.05 640.17,740.11 641.81,738.16 646.1,739.7 644.9,737.94 645.89,735.74 642.64,735.1 638.83,731.75 637.29,734.28 633.6,734.66 630,732.39 625.45,731.02 624.11,732.44 622.45,731.24 623.21,733.61 620.74,735.75 613.88,735.51 612.84,744.15 615.12,746.88 612.19,750.67 614.19,755.61 612.34,761.49 609.62,763.22 604.68,763.33 602.01,760.65 599.8,762.54 602.95,765.22 601.95,768.12 603.87,772.44 603.25,777.57 604.35,779.71 605.91,779.64 606.15,777.98 609.54,777.67 612.54,781.54" fill="none" stroke="#1e1e1e" stroke-width="1.56" stroke-linecap="round" stroke-linejoin="round"/>
<path d="M982.58,130.65L981.38,132.6L979.02,142.14L976.19,146.97L976.54,152.53L974.34,155.83L975.66,158.22L975.26,162.49L977.16,164.71L977.6,168.6L981.7,173.9L980.83,175.47L982.25,175.76L982,179.91L982.58,180.98L982.57,345.81L12.78,345.31L13.12,8L982.58,8.5L982.58,130.65Z" fill-rule="evenodd" fill="#4682b4" fill-opacity="0.471"/>
<polyline points="982.58,130.65 981.38,132.6 979.02,142.14 976.19,146.97 976.54,152.53 974.34,155.83 975.66,158.22 975.26,162.49 977.16,164.71 977.6,168.6 981.7,173.9 980.83,175.47 982.25,175.76 982,179.91 982.58,180.98 982.57,345.81 12.78,345.31 13.12,8 982.58,8.5 982.58,130.65" fill="none" stroke="#1e1e1e" stroke-width="1.56" stroke-linecap="round" stroke-linejoin="round"/>
<path d="M1296.39,1315.43L1294.39,1328.14L1289.8,1331.38L1289.23,1333.66L1290,1358.6L1288.15,1373.25L1284.39,1384.58L1281.83,1386.72L1280.3,1410.39L1281.04,1428.74L1279.18,1442.82L1274.87,1457.29L1261.83,1480.26L1249.31,1492.32L1245.74,1500L1240.01,1506.8L1235.86,1510.08L1233.53,1509.65L1231.06,1511.42L1230.92,1516.32L1225.13,1527.13L1221.73,1529.22L1220.48,1531.99L1212.93,1535.83L1213.94,1538.93L1212.54,1539.62L1212.69,1544.22L1218.09,1555.81L1217.02,1557.86L1215.27,1557.22L1211.11,1562.39L1208.26,1562.17L1205.04,1558.81L1197.88,1557.35L1194,1553.18L1190.83,1546.36L1189.08,1546.64L1187.54,1549.26L1184.34,1549.36L1187.65,1547.78L1187.99,1543.61L1182.4,1540.9L1182.22,1544.3L1179.91,1544.2L1179.35,1542.65L1182.15,1543.77L1180.13,1538.76L1180.55,1535.23L1173.03,1540.9L1165.54,1542.24L1161.67,1546.09L1161.18,1549.23L1157.52,1551.52L1159.16,1565.72L1154.57,1567.7L1152.61,1565.65L1150.83,1569.65L1151.6,1572.85L1154.23,1573.92L1152.01,1573.53L1150.79,1571.97L1149.97,1564.79L1145.59,1564.49L1142.47,1566.19L1140.34,1564.68L1137.95,1567.57L1137.84,1571.29L1145.57,1577.02L1143.89,1578.89L1130.92,1576.79L1128.04,1586.66L1128.97,1592.16L1126.14,1596.48L1125.73,1603.58L1127.11,1605.26L1136.04,1605.03L1139.1,1608.06L1133.29,1605.53L1127.01,1608.16L1123.47,1604.32L1120.93,1597.28L1119.82,1596.62L1119.36,1597.79L1118.78,1597.25L1119.57,1596.21L1111.04,1590.99L1110.91,1592.8L1109.84,1591.62L1107.95,1592.67L1110.95,1590.83L1108.46,1590L1109.32,1589.55L1106.6,1586.34L1108.09,1579.31L1104.76,1575.72L1106.03,1566.41L1103.05,1563.71L1100.49,1557.44L1098.52,1557.15L1099.38,1555.65L1097.93,1555.44L1099.18,1552.78L1097.74,1551.74L1099.3,1552.3L1100.23,1550.02L1092.88,1548.73L1093.15,1550.58L1090.37,1551.98L1090.23,1553.8L1087.36,1552.06L1086.77,1553.66L1086.92,1551.95L1089.6,1552.49L1092.54,1550.28L1091.78,1548.98L1090.13,1549.39L1091.13,1542.4L1086.43,1540.73L1086.33,1541.87L1084.12,1542.92L1086.28,1541.73L1086,1540.06L1081,1540.1L1077.26,1537.78L1076.39,1534.21L1078.84,1531.98L1076.92,1528.81L1073.12,1535.62L1073.5,1549.05L1077.6,1558.19L1092.1,1580.2L1107.89,1617.88L1124.66,1640.36L1128.69,1655.01L1134.34,1664.86L1131.18,1668.54L1127.88,1664.84L1128.27,1666.02L1160.32,1710.07L1172.32,1731.81L1174.37,1738.18L1175.53,1752.12L1178.58,1752.05L1182.55,1755.87L1181.26,1756.74L1183.75,1761.42L1182.34,1763.55L1184.39,1775.62L1182.04,1776.53L1182.85,1779.68L1216.49,1821.98L982.24,1822L982.25,1315.47L1296.39,1315.43ZM1174.82,1755.1L1175.78,1754.42L1174.02,1754.57L1177.39,1761.43L1180.43,1763.64L1182.6,1759.94L1180.87,1757.78L1179.45,1758.12L1179.68,1753.49L1174.98,1755.7L1174.82,1755.1ZM1148.17,1563.03L1149.45,1562.24L1147.73,1560.79L1148.17,1563.03ZM1208.6,1553.73L1210.06,1555L1211.66,1551.62L1208.85,1551.7L1208.6,1553.73ZM1206.42,1551.41L1202.82,1549.78L1202.27,1550.62L1202.84,1556.2L1206.9,1554.1L1206.42,1551.41Z" fill-rule="evenodd" fill="#4682b4" fill-opacity="0.471"/>
<polyline points="1296.39,1315.43 1294.39,1328.14 1289.8,1331.38 1289.23,1333.66 1290,1358.6 1288.15,1373.25 1284.39,1384.58 1281.83,1386.72 1280.3,1410.39 1281.04,1428.74 1279.18,1442.82 1274.87,1457.29 1261.83,1480.26 1249.31,1492.32 1245.74,1500 1240.01,1506.8 1235.86,1510.08 1233.53,1509.65 1231.06,1511.42 1230.92,1516.32 1225.13,1527.13 1221.73,1529.22 1220.48,1531.99 1212.93,1535.83 1213.94,1538.93 1212.54,1539.62 1212.69,1544.22 1218.09,1555.81 1217.02,1557.86 1215.27,1557.22 1211.11,1562.39 1208.26,1562.17 1205.04,1558.81 1197.88,1557.35 1194,1553.18 1190.83,1546.36 1189.08,1546.64 1187.54,1549.26 1184.34,1549.36 1187.65,1547.78 1187.99,1543.61 1182.4,1540.9 1182.22,1544.3 1179.91,1544.2 1179.35,1542.65 1182.15,1543.77 1180.13,1538.76 1180.55,1535.23 1173.03,1540.9 1165.54,1542.24 1161.67,1546.09 1161.18,1549.23 1157.52,1551.52 1159.16,1565.72 1154.57,1567.7 1152.61,1565.65 1150.83,1569.65 1151.6,1572.85 1154.23,1573.92 1152.01,1573.53 1150.79,1571.97 1149.97,1564.79 1145.59,1564.49 1142.47,1566.19 1140.34,1564.68 1137.95,1567.57 1137.84,1571.29 1145.57,1577.02 1143.89,1578.89 1130.92,1576.79 1128.04,1586.66 1128.97,1592.16 1126.14,1596.48 1125.73,1603.58 1127.11,1605.26 1136.04,1605.03 1139.1,1608.06 1133.29,1605.53 1127.01,1608.16 1123.47,1604.32 1120.93,1597.28 1119.82,1596.62 1119.36,1597.79 1118.78,1597.25 1119.57,1596.21 1111.04,1590.99 1110.91,1592.8 1109.84,1591.62 1107.95,1592.67 1110.95,1590.83 1108.46,1590 1109.32,1589.55 1106.6,1586.34 1108.09,1579.31 1104.76,1575.72 1106.03,1566.41 1103.05,1563.71 1100.49,1557.44 1098.52,1557.15 1099.38,1555.65 1097.93,1555.44 1099.18,1552.78 1097.74,1551.74 1099.3,1552.3 1100.23,1550.02 1092.88,1548.73 1093.15,1550.58 1090.37,1551.98 1090.23,1553.8 1087.36,1552.06 1086.77,1553.66 1086.92,1551.95 1089.6,1552.49 1092.54,1550.28 1091.78,1548.98 1090.13,1549.39 1091.13,1542.4 1086.43,1540.73 1086.33,1541.87 1084.12,1542.92 1086.28,1541.73 1086,1540.06 1081,1540.1 1077.26,1537.78 1076.39,1534.21 1078.84,1531.98 1076.92,1528.81 1073.12,1535.62 1073.5,1549.05 1077.6,1558.19 1092.1,1580.2 1107.89,1617.88 1124.66,1640.36 1128.69,1655.01 1134.34,1664.86 1131.18,1668.54 1127.88,1664.84 1128.27,1666.02 1160.32,1710.07 1172.32,1731.81 1174.37,1738.18 1175.53,1752.12 1178.58,1752.05 1182.55,1755.87 1181.26,1756.74 1183.75,1761.42 1182.34,1763.55 1184.39,1775.62 1182.04,1776.53 1182.85,1779.68 1216.49,1821.98 982.24,1822 982.25,1315.47 1296.39,1315.43" fill="none" stroke="#1e1e1e" stroke-width="1.56" stroke-linecap="round" stroke-linejoin="round"/>
<polyline points="1174.82,1755.1 1175.78,1754.42 1174.02,1754.57 1177.39,1761.43 1180.43,1763.64 1182.6,1759.94 1180.87,1757.78 1179.45,1758.12 1179.68,1753.49 1174.98,1755.7 1174.82,1755.1" fill="none" stroke="#1e1e1e" stroke-width="1.56" stroke-linecap="round" stroke-linejoin="round"/>
<polyline points="1148.17,1563.03 1149.45,1562.24 1147.73,1560.79 1148.17,1563.03" fill="none" stroke="#1e1e1e" stroke-width="1.56" stroke-linecap="round" stroke-linejoin="round"/>
<polyline points="1208.6,1553.73 1210.06,1555 1211.66,1551.62 1208.85,1551.7 1208.6,1553.73" fill="none" stroke="#1e1e1e" stroke-width="1.56" stroke-linecap="round" stroke-linejoin="round"/>
<polyline points="1206.42,1551.41 1202.82,1549.78 1202.27,1550.62 1202.84,1556.2 1206.9,1554.1 1206.42,1551.41" fill="none" stroke="#1e1e1e" stroke-width="1.56" stroke-linecap="round" stroke-linejoin="round"/>
<path d="M1483.75,345.38L1484.7,348.98L1479.12,359.37L1478.12,371.95L1476.48,373.82L1475.2,372.49L1471.97,375.47L1473.57,383L1468.53,392.66L1466.41,411.54L1462.81,425.33L1460.32,429.05L1460.67,445.86L1458.14,449.96L1461.63,472.98L1458.67,479.73L1460.75,495.88L1459.47,498.76L1460.2,504.69L1455.97,509.44L1451.95,509.22L1449.02,511.99L1444.69,512.72L1443.68,516.28L1448.62,532.78L1447.92,538.07L1450.37,550L1449.79,563.01L1450.89,567.62L1447.89,581.91L1444.87,586.04L1441.18,587.57L1439.82,593.27L1452.59,629.44L1456.25,644.9L1456.25,653.36L1452.09,657.63L1449.94,657.66L1447.66,666.6L1439.16,671.69L1437.22,675.8L1432.6,678.79L1432.81,682.82L1431.29,682.96L1432.21,684.05L1430.78,683.58L1432.23,684.14L1432.39,687.39L1431.08,687.41L1430.96,685.46L1430.36,687.34L1429.26,685.64L1428.26,687.37L1428.06,684.49L1428.12,687.42L1432.42,687.51L1432.75,689.62L1426.64,702.22L1420.29,708.99L1411.65,712.97L1402.89,726.53L1393.66,732.12L1386.38,740.32L1385.1,755.58L1386.65,755.84L1392.15,764.02L1382.01,772.44L1381.24,778.3L1369.74,802.74L1365.63,803.02L1362.17,811.73L1341.73,826.02L1335.89,833.35L1334.81,835.16L1336.39,846.88L1334.7,858.24L1332.15,861.14L1328.98,861.76L1323.56,872.63L1317,873.05L1312.92,876.11L1313.75,879.7L1311.01,884.78L1309.58,895.05L1305.88,899.48L1303.96,906.12L1302.46,907.91L1300.28,906.53L1294.08,909.92L1300.72,916.84L1300.19,918.79L1296.92,917.51L1297.52,918.54L1300.58,918.86L1299.46,921.7L1305.33,923.94L1309.44,933.32L1313.61,932.74L1317.92,935.86L1320.21,931.74L1331.75,929.61L1341.74,923.12L1349.03,924.6L1350.99,922.98L1362.11,927.14L1367.74,933.59L1373.12,943.38L1379.97,966.78L1374.43,971.7L1371.15,981.46L1367.22,986.04L1366.66,991.83L1372.45,998.65L1372.76,1006.39L1377.13,1026.96L1382.16,1035.29L1389.44,1060.14L1387.1,1071.92L1388.65,1082.09L1385.41,1102.59L1387.89,1105.07L1390.41,1113.25L1388.57,1127.49L1389.48,1128.71L1386.27,1136.39L1383.57,1138.31L1381.55,1137.98L1379.61,1142.15L1371.94,1140.85L1371.87,1139.15L1370.49,1140.23L1371.31,1137.28L1369.82,1131.75L1372.88,1124.81L1369.06,1110.85L1361.31,1107.09L1360.78,1099.85L1356.54,1093.34L1357.05,1091.87L1353.72,1086.74L1348.35,1084.87L1347.69,1086.66L1345.36,1086.29L1337.19,1089.64L1335.55,1092.68L1331.95,1092.37L1329.67,1094.78L1314.56,1093.03L1308.69,1099.97L1304.08,1102.07L1299.67,1102.42L1296.93,1100.68L1292.52,1102.94L1288.03,1101.84L1282.77,1110.99L1283.72,1132.55L1282.66,1137.45L1286.3,1141.29L1289.94,1138.68L1290.88,1136.05L1295.14,1135.57L1303.88,1140.34L1315.63,1155.53L1324.65,1176.77L1326.16,1175.85L1326.16,1177.55L1327.23,1177.24L1326.26,1178.48L1327.81,1178.35L1296.12,1196.23L1291.34,1201.23L1285.98,1201.53L1283.96,1203.26L1283.27,1208.8L1280.48,1209.71L1284.68,1233.93L1284.89,1249.94L1294.41,1292.24L1296.34,1315.74L982.25,1315.78L982.27,345.5L1483.75,345.38ZM1374.12,1139.4L1375.51,1137.51L1375.66,1130.76L1374.42,1129L1371.48,1129.84L1370.36,1131.75L1372,1137.45L1374.12,1139.4ZM1283.62,1005.65L1286.86,1008.72L1290.57,1008.91L1292.47,1007.3L1297.19,1007.91L1293.38,1005.46L1291.63,1002.13L1292.58,995.45L1287.46,992.27L1282.64,993.07L1280.74,1006.53L1283.62,1005.65ZM1348.54,979.39L1352.3,979.76L1351.16,972.67L1348.54,979.39Z" fill-rule="evenodd" fill="#4682b4" fill-opacity="0.471"/>
<polyline points="1483.75,345.38 1484.7,348.98 1479.12,359.37 1478.12,371.95 1476.48,373.82 1475.2,372.49 1471.97,375.47 1473.57,383 1468.53,392.66 1466.41,411.54 1462.81,425.33 1460.32,429.05 1460.67,445.86 1458.14,449.96 1461.63,472.98 1458.67,479.73 1460.75,495.88 1459.47,498.76 1460.2,504.69 1455.97,509.44 1451.95,509.22 1449.02,511.99 1444.69,512.72 1443.68,516.28 1448.62,532.78 1447.92,538.07 1450.37,550 1449.79,563.01 1450.89,567.62 1447.89,581.91 1444.87,586.04 1441.18,587.57 1439.82,593.27 1452.59,629.44 1456.25,644.9 1456.25,653.36 1452.09,657.63 1449.94,657.66 1447.66,666.6 1439.16,671.69 1437.22,675.8 1432.6,678.79 1432.81,682.82 1431.29,682.96 1432.21,684.05 1430.78,683.58 1432.23,684.14 1432.39,687.39 1431.08,687.41 1430.96,685.46 1430.36,687.34 1429.26,685.64 1428.26,687.37 1428.06,684.49 1428.12,687.42 1432.42,687.51 1432.75,689.62 1426.64,702.22 1420.29,708.99 1411.65,712.97 1402.89,726.53 1393.66,732.12 1386.38,740.32 1385.1,755.58 1386.65,755.84 1392.15,764.02 1382.01,772.44 1381.24,778.3 1369.74,802.74 1365.63,803.02 1362.17,811.73 1341.73,826.02 1335.89,833.35 1334.81,835.16 1336.39,846.88 1334.7,858.24 1332.15,861.14 1328.98,861.76 1323.56,872.63 1317,873.05 1312.92,876.11 1313.75,879.7 1311.01,884.78 1309.58,895.05 1305.88,899.48 1303.96,906.12 1302.46,907.91 1300.28,906.53 1294.08,909.92 1300.72,916.84 1300.19,918.79 1296.92,917.51 1297.52,918.54 1300.58,918.86 1299.46,921.7 1305.33,923.94 1309.44,933.32 1313.61,932.74 1317.92,935.86 1320.21,931.74 1331.75,929.61 1341.74,923.12 1349.03,924.6 1350.99,922.98 1362.11,927.14 1367.74,933.59 1373.12,943.38 1379.97,966.78 1374.43,971.7 1371.15,981.46 1367.22,986.04 1366.66,991.83 1372.45,998.65 1372.76,1006.39 1377.13,1026.96 1382.16,1035.29 1389.44,1060.14 1387.1,1071.92 1388.65,1082.09 1385.41,1102.59 1387.89,1105.07 1390.41,1113.25 1388.57,1127.49 1389.48,1128.71 1386.27,1136.39 1383.57,1138.31 1381.55,1137.98 1379.61,1142.15 1371.94,1140.85 1371.87,1139.15 1370.49,1140.23 1371.31,1137.28 1369.82,1131.75 1372.88,1124.81 1369.06,1110.85 1361.31,1107.09 1360.78,1099.85 1356.54,1093.34 1357.05,1091.87 1353.72,1086.74 1348.35,1084.87 1347.69,1086.66 1345.36,1086.29 1337.19,1089.64 1335.55,1092.68 1331.95,1092.37 1329.67,1094.78 1314.56,1093.03 1308.69,1099.97 1304.08,1102.07 1299.67,1102.42 1296.93,1100.68 1292.52,1102.94 1288.03,1101.84 1282.77,1110.99 1283.72,1132.55 1282.66,1137.45 1286.3,1141.29 1289.94,1138.68 1290.88,1136.05 1295.14,1135.57 1303.88,1140.34 1315.63,1155.53 1324.65,1176.77 1326.16,1175.85 1326.16,1177.55 1327.23,1177.24 1326.26,1178.48 1327.81,1178.35 1296.12,1196.23 1291.34,1201.23 1285.98,1201.53 1283.96,1203.26 1283.27,1208.8 1280.48,1209.71 1284.68,1233.93 1284.89,1249.94 1294.41,1292.24 1296.34,1315.74 982.25,1315.78 982.27,345.5 1483.75,345.38" fill="none" stroke="#1e1e1e" stroke-width="1.56" stroke-linecap="round" stroke-linejoin="round"/>
<polyline points="1374.12,1139.4 1375.51,1137.51 1375.66,1130.76 1374.42,1129 1371.48,1129.84 1370.36,1131.75 1372,1137.45 1374.12,1139.4" fill="none" stroke="#1e1e1e" stroke-width="1.56" stroke-linecap="round" stroke-linejoin="round"/>
<polyline points="1283.62,1005.65 1286.86,1008.72 1290.57,1008.91 1292.47,1007.3 1297.19,1007.91 1293.38,1005.46 1291.63,1002.13 1292.58,995.45 1287.46,992.27 1282.64,993.07 1280.74,1006.53 1283.62,1005.65" fill="none" stroke="#1e1e1e" stroke-width="1.56" stroke-linecap="round" stroke-linejoin="round"/>
<polyline points="1348.54,979.39 1352.3,979.76 1351.16,972.67 1348.54,979.39" fill="none" stroke="#1e1e1e" stroke-width="1.56" stroke-linecap="round" stroke-linejoin="round"/>
<path d="M982.27,345.81L982.27,180.41L985.17,185.82L988,187.54L991.06,187.21L998.97,191.51L1011.67,192.74L1023.98,197.97L1027.65,195.43L1035.11,195.19L1043.37,200.27L1045.34,200.67L1045.98,198.98L1053.97,201.75L1064.23,208.4L1072.67,200L1072.33,196.98L1075.38,193.93L1077.45,188.9L1094.47,171.74L1098.15,159.96L1097.14,159.37L1097.37,151.41L1094.74,147.1L1095.45,145.06L1105.54,140.29L1106.44,137.05L1111.29,132.64L1109.14,131.14L1110.69,129.28L1110.82,123.31L1113.35,122.44L1116.77,115.98L1119.68,113.68L1130.86,88.32L1140.73,77.63L1143.02,70.8L1152.71,60.91L1154.94,50.27L1153.42,33.58L1152.12,31.61L1150.2,31.9L1150.18,28.51L1148.31,28.08L1147.33,22.67L1146,22.71L1145.61,19.97L1143.01,19.48L1142.03,16.91L1136.25,15.43L1129.49,18.72L1122.78,18.68L1121.86,20.17L1113.56,18.52L1110.1,20.82L1107,17.62L1104.21,18.62L1101.52,16.19L1101.61,18.44L1098.01,17.48L1098.66,19.39L1090.21,17.18L1088.38,18.41L1088.29,16.75L1084.31,19.01L1081.03,14.15L1082.76,13.35L1083.15,10.97L1078.01,8.5L1371.6,8.43L1376.95,16.08L1399.22,57.25L1400.75,66.06L1396.92,77.26L1396.02,73.93L1395.91,76.86L1394.03,74.09L1395.71,88.5L1399.3,92.83L1431.97,117.24L1481.03,170.99L1485.77,179.07L1486.35,184.57L1485.5,181.92L1485.14,182.9L1488.75,189.94L1487.87,191.77L1494.85,205.02L1502.5,227.85L1512.5,249.94L1508.97,253.35L1510.1,259.43L1508.46,260.91L1508.23,267.48L1506.04,273.71L1503.95,277.17L1495.52,282.04L1495.16,284.72L1491.45,288.66L1490.01,296.15L1488.82,296.8L1488.39,300.68L1489.6,301.49L1488.3,301.95L1487.76,301.2L1485.89,308.34L1486.72,316.56L1485.81,320.62L1483.52,320.94L1480.7,333.75L1483.83,345.69L982.27,345.81Z" fill-rule="evenodd" fill="#4682b4" fill-opacity="0.471"/>
<polyline points="982.27,345.81 982.27,180.41 985.17,185.82 988,187.54 991.06,187.21 998.97,191.51 1011.67,192.74 1023.98,197.97 1027.65,195.43 1035.11,195.19 1043.37,200.27 1045.34,200.67 1045.98,198.98 1053.97,201.75 1064.23,208.4 1072.67,200 1072.33,196.98 1075.38,193.93 1077.45,188.9 1094.47,171.74 1098.15,159.96 1097.14,159.37 1097.37,151.41 1094.74,147.1 1095.45,145.06 1105.54,140.29 1106.44,137.05 1111.29,132.64 1109.14,131.14 1110.69,129.28 1110.82,123.31 1113.35,122.44 1116.77,115.98 1119.68,113.68 1130.86,88.32 1140.73,77.63 1143.02,70.8 1152.71,60.91 1154.94,50.27 1153.42,33.58 1152.12,31.61 1150.2,31.9 1150.18,28.51 1148.31,28.08 1147.33,22.67 1146,22.71 1145.61,19.97 1143.01,19.48 1142.03,16.91 1136.25,15.43 1129.49,18.72 1122.78,18.68 1121.86,20.17 1113.56,18.52 1110.1,20.82 1107,17.62 1104.21,18.62 1101.52,16.19 1101.61,18.44 1098.01,17.48 1098.66,19.39 1090.21,17.18 1088.38,18.41 1088.29,16.75 1084.31,19.01 1081.03,14.15 1082.76,13.35 1083.15,10.97 1078.01,8.5 1371.6,8.43 1376.95,16.08 1399.22,57.25 1400.75,66.06 1396.92,77.26 1396.02,73.93 1395.91,76.86 1394.03,74.09 1395.71,88.5 1399.3,92.83 1431.97,117.24 1481.03,170.99 1485.77,179.07 1486.35,184.57 1485.5,181.92 1485.14,182.9 1488.75,189.94 1487.87,191.77 1494.85,205.02 1502.5,227.85 1512.5,249.94 1508.97,253.35 1510.1,259.43 1508.46,260.91 1508.23,267.48 1506.04,273.71 1503.95,277.17 1495.52,282.04 1495.16,284.72 1491.45,288.66 1490.01,296.15 1488.82,296.8 1488.39,300.68 1489.6,301.49 1488.3,301.95 1487.76,301.2 1485.89,308.34 1486.72,316.56 1485.81,320.62 1483.52,320.94 1480.7,333.75 1483.83,345.69 982.27,345.81" fill="none" stroke="#1e1e1e" stroke-width="1.56" stroke-linecap="round" stroke-linejoin="round"/>
<path d="M1077.71,8.5L1069.52,12.63L1066.98,20.1L1065.24,19.66L1066.06,22.25L1062.33,24.9L1058.95,31.85L1047.06,45.12L1046.47,47.55L1042.59,50.12L1042.62,74.61L1040.88,80.18L1042.18,84.46L1037.89,90.63L1031.03,95.94L1028.43,100.58L1029.1,103.08L1031.84,103.97L1033.6,106.55L1032.39,113.15L1029.52,118.74L1022.9,121.54L1018.05,118.31L1007.99,119.37L1003.8,117.8L998.32,118.49L996.26,116.86L988.56,120.93L982.27,131.16L982.27,8.5L1077.71,8.5Z" fill-rule="evenodd" fill="#4682b4" fill-opacity="0.471"/>
<polyline points="1077.71,8.5 1069.52,12.63 1066.98,20.1 1065.24,19.66 1066.06,22.25 1062.33,24.9 1058.95,31.85 1047.06,45.12 1046.47,47.55 1042.59,50.12 1042.62,74.61 1040.88,80.18 1042.18,84.46 1037.89,90.63 1031.03,95.94 1028.43,100.58 1029.1,103.08 1031.84,103.97 1033.6,106.55 1032.39,113.15 1029.52,118.74 1022.9,121.54 1018.05,118.31 1007.99,119.37 1003.8,117.8 998.32,118.49 996.26,116.86 988.56,120.93 982.27,131.16 982.27,8.5 1077.71,8.5" fill="none" stroke="#1e1e1e" stroke-width="1.56" stroke-linecap="round" stroke-linejoin="round"/>
<path d="M10.18,345L13.09,345L12.11,1315.28L9.19,1315.28L10.18,345Z" fill-rule="evenodd" fill="#4682b4" fill-opacity="0.471"/>
<polyline points="10.18,345 13.09,345 12.11,1315.28 9.19,1315.28 10.18,345" fill="none" stroke="#1e1e1e" stroke-width="1.56" stroke-linecap="round" stroke-linejoin="round"/>
</svg>
