<?xml version="1.0" encoding="UTF-8" standalone="no"?>
<svg xmlns="http://www.w3.org/2000/svg" width="2000" height="1830" viewBox="0 0 2000 1830">
<rect width="2000" height="1830" fill="#ffffff"/>
<path d="M1297.48,918.48L1299.21,918.48L1300.59,916.41L1294.03,909.86L1300.93,906.75L1302.31,908.13L1304.38,905.03L1305.76,899.51L1308.86,896.75L1309.89,893.99L1309.2,892.61L1311.27,884.33L1312.99,882.6L1313.68,880.19L1312.99,876.05L1317.13,872.94L1321.96,873.28L1324.03,872.25L1326.44,866.04L1329.2,862.24L1334.37,859.13L1335.06,857.75L1336.43,846.37L1335.39,834.3L1338.84,831.19L1341.26,826.36L1343.32,825.67L1347.46,821.53L1353.67,818.77L1361.6,812.21L1365.73,802.89L1369.87,802.54L1374.35,793.92L1379.52,780.46L1380.9,779.08L1381.93,772.53L1388.48,767L1390.2,766.66L1391.93,763.55L1390.2,760.45L1388.48,759.76L1386.75,755.62L1385.03,754.59L1387.09,739.06L1388.81,738.37L1393.29,732.5L1397.43,730.78L1398.81,728.36L1403.29,726.29L1411.22,713.87L1413.63,712.14L1415.7,712.14L1419.15,709.72L1427.07,701.78L1432.24,692.47L1432.93,689.02L1432.59,687.64L1428.45,687.64L1428.1,685.91L1429.83,685.57L1429.83,687.29L1430.52,687.29L1430.52,685.57L1430.86,687.29L1431.9,687.29L1432.58,681.08L1439.13,671.76L1448.09,665.89L1449.81,658.3L1456.36,653.47L1456.01,644.5L1452.56,629.67L1443.58,601.38L1439.78,593.1L1440.82,592.06L1441.16,587.58L1445.99,585.16L1448.05,582.06L1450.81,569.98L1449.77,562.73L1450.45,550.66L1448.38,539.62L1448.72,534.1L1443.54,516.16L1444.23,513.39L1449.4,511.67L1451.81,509.25L1453.88,509.94L1456.3,509.25L1458.36,507.87L1459.05,505.45L1460.09,505.11L1464.92,513.39L1463.89,527.19L1468.72,540.64L1481.83,545.47L1488.38,557.19L1495.28,554.43L1504.24,560.29L1527.69,566.49L1538.38,566.48L1546.31,569.24L1558.38,567.85L1563.21,571.3L1576.31,565.77L1577.34,569.22L1586.31,565.77L1865.24,565.21L1865.93,566.25L1990.05,565.78L1988.33,569.93L1985.68,683.44L1988.04,969.43L1518.6,969.45L1516.19,977.04L1519.3,991.53L1506.88,994.98L1485.15,986.71L1479.62,974.64L1467.2,968.78L1451.68,970.52L1445.81,956.72L1434.77,948.79L1420.28,946.38L1390.28,953.64L1378.21,959.85L1376.83,957.09L1373.37,943.64L1366.13,930.88L1359.91,925.36L1358.19,925.71L1349.22,923.99L1348.88,924.68L1346.12,923.3L1341.63,922.95L1338.53,926.06L1332.67,927.79L1331.98,929.17L1327.84,930.2L1326.81,931.24L1323.7,930.89L1320.6,931.58L1319.91,933.31L1318.53,933.66L1318.18,935.73L1317.49,935.73L1313.7,932.62L1310.6,933.31L1309.22,932.28L1306.11,924.69L1302.66,922.28L1300.59,922.62L1299.55,920.21L1300.59,920.21L1300.24,918.83L1297.48,918.48Z" fill-rule="evenodd" fill="#4682b4" fill-opacity="0.471"/>
<polyline points="1297.48,918.48 1299.21,918.48 1300.59,916.41 1294.03,909.86 1300.93,906.75 1302.31,908.13 1304.38,905.03 1305.76,899.51 1308.86,896.75 1309.89,893.99 1309.2,892.61 1311.27,884.33 1312.99,882.6 1313.68,880.19 1312.99,876.05 1317.13,872.94 1321.96,873.28 1324.03,872.25 1326.44,866.04 1329.2,862.24 1334.37,859.13 1335.06,857.75 1336.43,846.37 1335.39,834.3 1338.84,831.19 1341.26,826.36 1343.32,825.67 1347.46,821.53 1353.67,818.77 1361.6,812.21 1365.73,802.89 1369.87,802.54 1374.35,793.92 1379.52,780.46 1380.9,779.08 1381.93,772.53 1388.48,767 1390.2,766.66 1391.93,763.55 1390.2,760.45 1388.48,759.76 1386.75,755.62 1385.03,754.59 1387.09,739.06 1388.81,738.37 1393.29,732.5 1397.43,730.78 1398.81,728.36 1403.29,726.29 1411.22,713.87 1413.63,712.14 1415.7,712.14 1419.15,709.72 1427.07,701.78 1432.24,692.47 1432.93,689.02 1432.59,687.64 1428.45,687.64 1428.1,685.91 1429.83,685.57 1429.83,687.29 1430.52,687.29 1430.52,685.57 1430.86,687.29 1431.9,687.29 1432.58,681.08 1439.13,671.76 1448.09,665.89 1449.81,658.3 1456.36,653.47 1456.01,644.5 1452.56,629.67 1443.58,601.38 1439.78,593.1 1440.82,592.06 1441.16,587.58 1445.99,585.16 1448.05,582.06 1450.81,569.98 1449.77,562.73 1450.45,550.66 1448.38,539.62 1448.72,534.1 1443.54,516.16 1444.23,513.39 1449.4,511.67 1451.81,509.25 1453.88,509.94 1456.3,509.25 1458.36,507.87 1459.05,505.45 1460.09,505.11 1464.92,513.39 1463.89,527.19 1468.72,540.64 1481.83,545.47 1488.38,557.19 1495.28,554.43 1504.24,560.29 1527.69,566.49 1538.38,566.48 1546.31,569.24 1558.38,567.85 1563.21,571.3 1576.31,565.77 1577.34,569.22 1586.31,565.77 1865.24,565.21 1865.93,566.25 1990.05,565.78 1988.33,569.93 1985.68,683.44 1988.04,969.43 1518.6,969.45 1516.19,977.04 1519.3,991.53 1506.88,994.98 1485.15,986.71 1479.62,974.64 1467.2,968.78 1451.68,970.52 1445.81,956.72 1434.77,948.79 1420.28,946.38 1390.28,953.64 1378.21,959.85 1376.83,957.09 1373.37,943.64 1366.13,930.88 1359.91,925.36 1358.19,925.71 1349.22,923.99 1348.88,924.68 1346.12,923.3 1341.63,922.95 1338.53,926.06 1332.67,927.79 1331.98,929.17 1327.84,930.2 1326.81,931.24 1323.7,930.89 1320.6,931.58 1319.91,933.31 1318.53,933.66 1318.18,935.73 1317.49,935.73 1313.7,932.62 1310.6,933.31 1309.22,932.28 1306.11,924.69 1302.66,922.28 1300.59,922.62 1299.55,920.21 1300.59,920.21 1300.24,918.83 1297.48,918.48" fill="none" stroke="#1e1e1e" stroke-width="1.56" stroke-linecap="round" stroke-linejoin="round"/>
<path d="M1290.61,1008.87L1280.95,1006.11L1282.33,993.69L1292.68,995.76L1290.61,1008.87Z" fill-rule="evenodd" fill="#4682b4" fill-opacity="0.471"/>
<polyline points="1290.61,1008.87 1280.95,1006.11 1282.33,993.69 1292.68,995.76 1290.61,1008.87" fill="none" stroke="#1e1e1e" stroke-width="1.56" stroke-linecap="round" stroke-linejoin="round"/>
<path d="M9.72,1817.7L12.14,1813.9L8.7,1801.81L13.19,1799.4L19.74,1804.59L20.42,1819.44L9.72,1817.7Z" fill-rule="evenodd" fill="#4682b4" fill-opacity="0.471"/>
<polyline points="9.72,1817.7 12.14,1813.9 8.7,1801.81 13.19,1799.4 19.74,1804.59 20.42,1819.44 9.72,1817.7" fill="none" stroke="#1e1e1e" stroke-width="1.56" stroke-linecap="round" stroke-linejoin="round"/>
<path d="M1042.21,57.19L1042.56,50.63L1052.21,40.62L1065.99,21.97L1069.43,12.64L1077.7,8.5L1082.53,17.48L1094.93,19.2L1107,17.48L1110.44,20.24L1129.05,18.51L1135.94,15.74L1146.28,20.92L1153.52,35.08L1154.9,50.27L1150.77,64.09L1143.87,70.3L1130.78,88.61L1122.17,106.22L1119.76,113.81L1110.8,124.17L1110.11,134.18L1104.94,140.4L1096.67,143.85L1098.05,161.11L1095.29,170.78L1077.03,189.08L1072.89,199.78L1064.97,208.41L1049.11,199.78L1034.64,195.29L1025.33,197.71L1009.13,191.84L1003.27,192.53L983.28,183.9L981.91,173.89L977.43,168.02L975.36,156.28L976.05,146.96L983.29,128.32L989.83,119.69L996.38,116.58L1022.92,121.41L1029.47,118.65L1033.6,106.57L1029.12,102.77L1032.91,94.14L1041.18,86.54L1042.21,57.19Z" fill-rule="evenodd" fill="#4682b4" fill-opacity="0.471"/>
<polyline points="1042.21,57.19 1042.56,50.63 1052.21,40.62 1065.99,21.97 1069.43,12.64 1077.7,8.5 1082.53,17.48 1094.93,19.2 1107,17.48 1110.44,20.24 1129.05,18.51 1135.94,15.74 1146.28,20.92 1153.52,35.08 1154.9,50.27 1150.77,64.09 1143.87,70.3 1130.78,88.61 1122.17,106.22 1119.76,113.81 1110.8,124.17 1110.11,134.18 1104.94,140.4 1096.67,143.85 1098.05,161.11 1095.29,170.78 1077.03,189.08 1072.89,199.78 1064.97,208.41 1049.11,199.78 1034.64,195.29 1025.33,197.71 1009.13,191.84 1003.27,192.53 983.28,183.9 981.91,173.89 977.43,168.02 975.36,156.28 976.05,146.96 983.29,128.32 989.83,119.69 996.38,116.58 1022.92,121.41 1029.47,118.65 1033.6,106.57 1029.12,102.77 1032.91,94.14 1041.18,86.54 1042.21,57.19" fill="none" stroke="#1e1e1e" stroke-width="1.56" stroke-linecap="round" stroke-linejoin="round"/>
<text x="1598.34" y="781.37" font-family="sans-serif" font-size="14" stroke="#ffffff" stroke-opacity="0.784" stroke-width="2.33" stroke-linejoin="round" paint-order="stroke" fill="#141414">Región Continental</text>
<text x="1002.45" y="116.66" font-family="sans-serif" font-size="14" stroke="#ffffff" stroke-opacity="0.784" stroke-width="2.33" stroke-linejoin="round" paint-order="stroke" fill="#141414">Región Insular</text>
</svg>
