<?xml version="1.0" encoding="UTF-8" standalone="no"?>
<svg xmlns="http://www.w3.org/2000/svg" width="2000" height="1282" viewBox="0 0 2000 1282">
<rect width="2000" height="1282" fill="#ffffff"/>
<path d="M1756.37,843.83L1763.2,848.79L1776.77,844.41L1782.34,848.73L1785.08,857.72L1786.03,868.45L1784.8,877.75L1780.71,882.12L1787.06,883.39L1788.09,889.41L1787.57,896.5L1789.61,900.96L1793.54,899.29L1803.74,887.61L1814.36,882.31L1819.77,877.88L1825.52,875.29L1831.94,878.06L1835.75,877.9L1845.31,868.75L1850.22,867.36L1851.33,872.7L1854.71,879.13L1857.88,880.67L1861.28,881.2L1864.55,880.9L1878.67,872.88L1884.56,871.44L1889.79,873.4L1897.73,888.37L1900.95,892.77L1917.19,906.01L1921.27,907.85L1926.44,927.48L1928.64,932.76L1952.23,957.26L1955.96,962.64L1958.11,968.6L1957.56,975.86L1953.78,986.48L1962.39,1006.11L1964.2,1017.98L1962.54,1030.18L1957.68,1042.87L1952.72,1051.69L1902.41,1056.33L1896.08,1052.74L1892.93,1038.23L1888.96,1029.32L1880.64,1024.96L1864.78,1020.09L1878.45,1013.61L1881.11,1011.14L1881.37,1004.73L1878.57,999.8L1874.15,996.8L1866.13,995.12L1855.3,990.19L1846.72,981.46L1841.8,966.01L1834.31,959.59L1822.26,954.53L1811.1,954.14L1806.4,961.39L1806.71,969.12L1801.68,977.23L1799.98,981.51L1795.3,998.69L1790.64,986.75L1787.7,973.07L1785.24,946.57L1785.78,932.92L1784.58,927.24L1774.91,923.07L1771.76,917.47L1766.81,901.84L1750.01,870.49L1745.62,859.72L1744.77,853.52L1756.37,843.83Z" fill-rule="evenodd" fill="#4682b4" fill-opacity="0.471"/>
<polyline points="1756.37,843.83 1763.2,848.79 1776.77,844.41 1782.34,848.73 1785.08,857.72 1786.03,868.45 1784.8,877.75 1780.71,882.12 1787.06,883.39 1788.09,889.41 1787.57,896.5 1789.61,900.96 1793.54,899.29 1803.74,887.61 1814.36,882.31 1819.77,877.88 1825.52,875.29 1831.94,878.06 1835.75,877.9 1845.31,868.75 1850.22,867.36 1851.33,872.7 1854.71,879.13 1857.88,880.67 1861.28,881.2 1864.55,880.9 1878.67,872.88 1884.56,871.44 1889.79,873.4 1897.73,888.37 1900.95,892.77 1917.19,906.01 1921.27,907.85 1926.44,927.48 1928.64,932.76 1952.23,957.26 1955.96,962.64 1958.11,968.6 1957.56,975.86 1953.78,986.48 1962.39,1006.11 1964.2,1017.98 1962.54,1030.18 1957.68,1042.87 1952.72,1051.69 1902.41,1056.33 1896.08,1052.74 1892.93,1038.23 1888.96,1029.32 1880.64,1024.96 1864.78,1020.09 1878.45,1013.61 1881.11,1011.14 1881.37,1004.73 1878.57,999.8 1874.15,996.8 1866.13,995.12 1855.3,990.19 1846.72,981.46 1841.8,966.01 1834.31,959.59 1822.26,954.53 1811.1,954.14 1806.4,961.39 1806.71,969.12 1801.68,977.23 1799.98,981.51 1795.3,998.69 1790.64,986.75 1787.7,973.07 1785.24,946.57 1785.78,932.92 1784.58,927.24 1774.91,923.07 1771.76,917.47 1766.81,901.84 1750.01,870.49 1745.62,859.72 1744.77,853.52 1756.37,843.83" fill="none" stroke="#1e1e1e" stroke-width="1.51" stroke-linecap="round" stroke-linejoin="round"/>
<path d="M1744.77,853.52L1743.59,836.06L1742.58,832.57L1739.13,830.17L1726.32,813.64L1728.29,807.01L1723.62,790.35L1723.19,778.25L1724.19,774.34L1726.21,771.41L1727.07,768.52L1724.73,764.73L1720.2,761.36L1699,750.5L1685.87,750.61L1679.02,748.66L1671.76,739.99L1669.15,727.79L1669.01,699.86L1667.72,684.76L1656.4,634.49L1644.64,604.25L1624.78,568.04L1617.5,558.68L1589.11,540.19L1581.32,530.33L1578.31,516.79L1579.4,500.27L1582.76,484.36L1586.69,473.31L1595.59,457.22L1605.11,444.82L1615.68,435.58L1675.44,409.73L1748.6,398.68L1807,409.34L1808.32,416.01L1806.52,425.01L1803.59,434.22L1806.84,454.28L1827.79,483.38L1830.98,507.65L1825.63,527.73L1826.6,551.09L1823.41,579.66L1822.92,595.17L1825.73,601.78L1829.78,606.66L1845.38,648.25L1847.38,660.29L1849.07,695.9L1848.79,705.84L1846.99,715.34L1843.06,724.6L1835.82,734.66L1834.72,729.49L1835.9,717.66L1835.3,707.59L1813.09,737.11L1808.85,752.26L1799.75,769.62L1797.62,771.39L1791.73,772.13L1790.66,774.02L1791.59,779.71L1795.46,783.76L1797.29,787.56L1800.29,798.55L1798.19,801.33L1791.81,803.43L1785.59,802.5L1775.27,793.98L1769.99,792.16L1765.49,794.69L1763.51,800.82L1763.64,818.15L1762.91,824.57L1760.86,831.38L1756.37,843.83L1744.77,853.52ZM1742.05,758.21L1741.04,761.95L1750.4,766.98L1754.92,767.49L1759.79,765.62L1757.24,761.17L1754.49,758.25L1748.36,754.78L1745.34,754.38L1743.46,755.8L1742.05,758.21Z" fill-rule="evenodd" fill="#4682b4" fill-opacity="0.471"/>
<polyline points="1744.77,853.52 1743.59,836.06 1742.58,832.57 1739.13,830.17 1726.32,813.64 1728.29,807.01 1723.62,790.35 1723.19,778.25 1724.19,774.34 1726.21,771.41 1727.07,768.52 1724.73,764.73 1720.2,761.36 1699,750.5 1685.87,750.61 1679.02,748.66 1671.76,739.99 1669.15,727.79 1669.01,699.86 1667.72,684.76 1656.4,634.49 1644.64,604.25 1624.78,568.04 1617.5,558.68 1589.11,540.19 1581.32,530.33 1578.31,516.79 1579.4,500.27 1582.76,484.36 1586.69,473.31 1595.59,457.22 1605.11,444.82 1615.68,435.58 1675.44,409.73 1748.6,398.68 1807,409.34 1808.32,416.01 1806.52,425.01 1803.59,434.22 1806.84,454.28 1827.79,483.38 1830.98,507.65 1825.63,527.73 1826.6,551.09 1823.41,579.66 1822.92,595.17 1825.73,601.78 1829.78,606.66 1845.38,648.25 1847.38,660.29 1849.07,695.9 1848.79,705.84 1846.99,715.34 1843.06,724.6 1835.82,734.66 1834.72,729.49 1835.9,717.66 1835.3,707.59 1813.09,737.11 1808.85,752.26 1799.75,769.62 1797.62,771.39 1791.73,772.13 1790.66,774.02 1791.59,779.71 1795.46,783.76 1797.29,787.56 1800.29,798.55 1798.19,801.33 1791.81,803.43 1785.59,802.5 1775.27,793.98 1769.99,792.16 1765.49,794.69 1763.51,800.82 1763.64,818.15 1762.91,824.57 1760.86,831.38 1756.37,843.83 1744.77,853.52" fill="none" stroke="#1e1e1e" stroke-width="1.51" stroke-linecap="round" stroke-linejoin="round"/>
<polyline points="1742.05,758.21 1741.04,761.95 1750.4,766.98 1754.92,767.49 1759.79,765.62 1757.24,761.17 1754.49,758.25 1748.36,754.78 1745.34,754.38 1743.46,755.8 1742.05,758.21" fill="none" stroke="#1e1e1e" stroke-width="1.51" stroke-linecap="round" stroke-linejoin="round"/>
<path d="M1338.66,768.89L1347,782.2L1348.58,796.81L1345.85,833.52L1345.98,851.34L1345.05,858.93L1342.61,866.71L1328.66,885.61L1326.41,894.56L1327.64,905.13L1330.78,912.32L1332.57,918.85L1330.06,927.97L1326.22,932.57L1324.12,928.74L1322.39,920.52L1317.45,905.8L1316.22,889.68L1313.81,882.82L1307.58,875.51L1302.56,871.38L1300.07,865.2L1301.02,851.39L1284.69,829.43L1281.94,822.74L1280.99,818.21L1276.73,810.54L1275.75,803.15L1276.83,798.43L1284.71,787.55L1291.09,765.26L1295.13,757.8L1303.62,754.14L1312.34,754.18L1321.88,756.05L1330.59,760.78L1336.81,768.92L1338.66,768.89Z" fill-rule="evenodd" fill="#4682b4" fill-opacity="0.471"/>
<polyline points="1338.66,768.89 1347,782.2 1348.58,796.81 1345.85,833.52 1345.98,851.34 1345.05,858.93 1342.61,866.71 1328.66,885.61 1326.41,894.56 1327.64,905.13 1330.78,912.32 1332.57,918.85 1330.06,927.97 1326.22,932.57 1324.12,928.74 1322.39,920.52 1317.45,905.8 1316.22,889.68 1313.81,882.82 1307.58,875.51 1302.56,871.38 1300.07,865.2 1301.02,851.39 1284.69,829.43 1281.94,822.74 1280.99,818.21 1276.73,810.54 1275.75,803.15 1276.83,798.43 1284.71,787.55 1291.09,765.26 1295.13,757.8 1303.62,754.14 1312.34,754.18 1321.88,756.05 1330.59,760.78 1336.81,768.92 1338.66,768.89" fill="none" stroke="#1e1e1e" stroke-width="1.51" stroke-linecap="round" stroke-linejoin="round"/>
<text x="1675.24" y="591.4" font-family="sans-serif" font-size="14" stroke="#ffffff" stroke-opacity="0.784" stroke-width="2.33" stroke-linejoin="round" paint-order="stroke" fill="#141414">Lake Peipus</text>
<text x="1818.16" y="956.27" font-family="sans-serif" font-size="14" stroke="#ffffff" stroke-opacity="0.784" stroke-width="2.33" stroke-linejoin="round" paint-order="stroke" fill="#141414">Lake Pskov</text>
<text x="1274.74" y="828.34" font-family="sans-serif" font-size="14" stroke="#ffffff" stroke-opacity="0.784" stroke-width="2.33" stroke-linejoin="round" paint-order="stroke" fill="#141414">Võrtsjärv</text>
</svg>
