<?xml version="1.0" encoding="UTF-8" standalone="no"?>
<svg xmlns="http://www.w3.org/2000/svg" width="1362" height="2000" viewBox="0 0 1362 2000">
<rect width="1362" height="2000" fill="#ffffff"/>
<path d="M716.92,851.06L730.91,850.31L741.15,854.38L754.07,870.6L761.29,876.51L763.6,874.53L762.37,878.03L781.68,914.75L776.42,925.29L756.81,911.58L753.74,900.17L737.4,887.66L741.21,888.79L738.9,882.65L726.54,875.35L729.78,870.77L717.68,865.42L714.04,857.43L716.92,851.06Z" fill-rule="evenodd" fill="#4682b4" fill-opacity="0.471"/>
<polyline points="716.92,851.06 730.91,850.31 741.15,854.38 754.07,870.6 761.29,876.51 763.6,874.53 762.37,878.03 781.68,914.75 776.42,925.29 756.81,911.58 753.74,900.17 737.4,887.66 741.21,888.79 738.9,882.65 726.54,875.35 729.78,870.77 717.68,865.42 714.04,857.43 716.92,851.06" fill="none" stroke="#1e1e1e" stroke-width="2.19" stroke-linecap="round" stroke-linejoin="round"/>
<path d="M645.61,791.17L660.83,794.21L679.7,807.18L692.11,828.37L694.42,840.02L676.64,820.28L650.29,807.79L644.34,799.37L645.61,791.17Z" fill-rule="evenodd" fill="#4682b4" fill-opacity="0.471"/>
<polyline points="645.61,791.17 660.83,794.21 679.7,807.18 692.11,828.37 694.42,840.02 676.64,820.28 650.29,807.79 644.34,799.37 645.61,791.17" fill="none" stroke="#1e1e1e" stroke-width="2.19" stroke-linecap="round" stroke-linejoin="round"/>
<path d="M54.59,586.62L49.46,586.98L48.71,585.01L43.61,589.6L39.21,585.69L62.36,572.24L68.88,572.45L75.77,567.63L75.51,564.1L73.28,565.51L76.79,561.2L76.76,563.74L91.88,561.98L108.01,557.42L118.44,560.87L121.86,568.36L129.36,568.78L134.51,577.04L147.76,584.54L149.16,592.44L161.3,593.8L165.47,600.59L160.59,606.8L157.28,602.44L138.8,605.84L126.54,598.97L121.27,600.44L117.43,594.42L102.61,600.09L101.43,594.12L95.11,600.83L91.7,593.42L78.4,600.73L79.87,595.88L75.24,598.18L72.85,591.88L68.47,594.76L66.04,589.94L60.31,591.46L62.5,587.35L56.96,591.18L54.59,586.62Z" fill-rule="evenodd" fill="#4682b4" fill-opacity="0.471"/>
<polyline points="54.59,586.62 49.46,586.98 48.71,585.01 43.61,589.6 39.21,585.69 62.36,572.24 68.88,572.45 75.77,567.63 75.51,564.1 73.28,565.51 76.79,561.2 76.76,563.74 91.88,561.98 108.01,557.42 118.44,560.87 121.86,568.36 129.36,568.78 134.51,577.04 147.76,584.54 149.16,592.44 161.3,593.8 165.47,600.59 160.59,606.8 157.28,602.44 138.8,605.84 126.54,598.97 121.27,600.44 117.43,594.42 102.61,600.09 101.43,594.12 95.11,600.83 91.7,593.42 78.4,600.73 79.87,595.88 75.24,598.18 72.85,591.88 68.47,594.76 66.04,589.94 60.31,591.46 62.5,587.35 56.96,591.18 54.59,586.62" fill="none" stroke="#1e1e1e" stroke-width="2.19" stroke-linecap="round" stroke-linejoin="round"/>
<path d="M23.26,593.45L37.95,586.16L42.73,590.01L24.8,600.25L23.19,599.33L23.26,593.45Z" fill-rule="evenodd" fill="#4682b4" fill-opacity="0.471"/>
<polyline points="23.26,593.45 37.95,586.16 42.73,590.01 24.8,600.25 23.19,599.33 23.26,593.45" fill="none" stroke="#1e1e1e" stroke-width="2.19" stroke-linecap="round" stroke-linejoin="round"/>
<path d="M960.24,1173.32L969.53,1174.38L974.44,1198.75L971.97,1206L956.21,1216.91L965.14,1229.28L970.05,1254.97L967.05,1265.26L958.9,1268.27L954.62,1278.23L943.54,1275.78L939.51,1266.83L929.42,1259.75L927.54,1246.83L913.12,1240.65L883.8,1194.71L877.42,1154.82L869.1,1133.54L860.8,1123.6L834.94,1111.23L828.72,1117.03L830.03,1132.31L832.64,1126.2L834.52,1124.56L833.17,1137.42L830.78,1133.51L821.41,1132.18L810.2,1114.58L794.03,1117.69L785.33,1125.07L778.92,1122.6L772.08,1133.02L772.52,1145.03L767.11,1146.7L743.09,1105.08L750.72,1094.31L737.44,1072.3L738.98,1063.02L733.69,1059.74L735.57,1047.18L730.63,1046.27L731.65,1037.97L729.15,1039.5L724.92,1032.63L728.66,1017.23L723.65,1001.6L711.89,988.66L707.01,975.57L697.54,967.89L698.12,959.98L729.4,971.78L755.46,971.4L764.07,976.22L761.11,978.49L764.96,983.54L765.68,979.67L768.95,987L781.24,994.93L795.85,990.18L825.05,992.25L843.09,1009.52L853.08,1030.16L879.63,1042.2L890.3,1043.2L898.06,1053.16L914.6,1060.98L933.87,1060.81L937.71,1070.76L942.28,1070.4L947.45,1077.53L951.25,1096.67L970.23,1119.63L968.35,1123.1L980.7,1118.54L983.4,1123.05L990.44,1120.92L993.94,1124.06L984.32,1143.99L955.53,1165.56L960.24,1173.32Z" fill-rule="evenodd" fill="#4682b4" fill-opacity="0.471"/>
<polyline points="960.24,1173.32 969.53,1174.38 974.44,1198.75 971.97,1206 956.21,1216.91 965.14,1229.28 970.05,1254.97 967.05,1265.26 958.9,1268.27 954.62,1278.23 943.54,1275.78 939.51,1266.83 929.42,1259.75 927.54,1246.83 913.12,1240.65 883.8,1194.71 877.42,1154.82 869.1,1133.54 860.8,1123.6 834.94,1111.23 828.72,1117.03 830.03,1132.31 832.64,1126.2 834.52,1124.56 833.17,1137.42 830.78,1133.51 821.41,1132.18 810.2,1114.58 794.03,1117.69 785.33,1125.07 778.92,1122.6 772.08,1133.02 772.52,1145.03 767.11,1146.7 743.09,1105.08 750.72,1094.31 737.44,1072.3 738.98,1063.02 733.69,1059.74 735.57,1047.18 730.63,1046.27 731.65,1037.97 729.15,1039.5 724.92,1032.63 728.66,1017.23 723.65,1001.6 711.89,988.66 707.01,975.57 697.54,967.89 698.12,959.98 729.4,971.78 755.46,971.4 764.07,976.22 761.11,978.49 764.96,983.54 765.68,979.67 768.95,987 781.24,994.93 795.85,990.18 825.05,992.25 843.09,1009.52 853.08,1030.16 879.63,1042.2 890.3,1043.2 898.06,1053.16 914.6,1060.98 933.87,1060.81 937.71,1070.76 942.28,1070.4 947.45,1077.53 951.25,1096.67 970.23,1119.63 968.35,1123.1 980.7,1118.54 983.4,1123.05 990.44,1120.92 993.94,1124.06 984.32,1143.99 955.53,1165.56 960.24,1173.32" fill="none" stroke="#1e1e1e" stroke-width="2.19" stroke-linecap="round" stroke-linejoin="round"/>
<path d="M834.14,1229.38L848.75,1282.43L823.35,1290.67L823.28,1286.98L816.63,1287.47L817.47,1283.39L790.02,1260.49L783.95,1241.13L788.72,1230.75L786.33,1225.83L791.6,1219.55L787.42,1217.34L788.28,1211.43L792.49,1210.27L798.13,1216.94L812.66,1216.18L824.17,1220.98L834.14,1229.38Z" fill-rule="evenodd" fill="#4682b4" fill-opacity="0.471"/>
<polyline points="834.14,1229.38 848.75,1282.43 823.35,1290.67 823.28,1286.98 816.63,1287.47 817.47,1283.39 790.02,1260.49 783.95,1241.13 788.72,1230.75 786.33,1225.83 791.6,1219.55 787.42,1217.34 788.28,1211.43 792.49,1210.27 798.13,1216.94 812.66,1216.18 824.17,1220.98 834.14,1229.38" fill="none" stroke="#1e1e1e" stroke-width="2.19" stroke-linecap="round" stroke-linejoin="round"/>
<path d="M898.13,1413.9L894.62,1417.53L873.93,1416.65L868.75,1387.29L872.91,1380.65L872.78,1368.77L887.48,1380.96L898.13,1413.9Z" fill-rule="evenodd" fill="#4682b4" fill-opacity="0.471"/>
<polyline points="898.13,1413.9 894.62,1417.53 873.93,1416.65 868.75,1387.29 872.91,1380.65 872.78,1368.77 887.48,1380.96 898.13,1413.9" fill="none" stroke="#1e1e1e" stroke-width="2.19" stroke-linecap="round" stroke-linejoin="round"/>
<path d="M913.07,1511.87L928.11,1504.92L933.32,1510L935.73,1517.5L931.8,1522.68L912.14,1517.62L913.07,1511.87Z" fill-rule="evenodd" fill="#4682b4" fill-opacity="0.471"/>
<polyline points="913.07,1511.87 928.11,1504.92 933.32,1510 935.73,1517.5 931.8,1522.68 912.14,1517.62 913.07,1511.87" fill="none" stroke="#1e1e1e" stroke-width="2.19" stroke-linecap="round" stroke-linejoin="round"/>
<path d="M862.56,1718.19L860.86,1711.83L863.55,1710.87L866.31,1716.74L862.56,1718.19Z" fill-rule="evenodd" fill="#4682b4" fill-opacity="0.471"/>
<polyline points="862.56,1718.19 860.86,1711.83 863.55,1710.87 866.31,1716.74 862.56,1718.19" fill="none" stroke="#1e1e1e" stroke-width="2.19" stroke-linecap="round" stroke-linejoin="round"/>
<path d="M1107.19,317.79L1086.7,289.62L1080.05,286.7L1077.28,289.04L1083.84,316.06L1105.05,349.14L1128.66,367.16L1147.8,368.92L1158.43,375.73L1161.03,385.73L1153.98,407.86L1166.71,424.63L1154.98,439.99L1112.8,434.02L1082.17,397.4L1070.19,367.08L1059.3,351.7L1047.94,346.44L1045.46,355.38L1062.76,392.85L1064.13,411.3L1080.65,441.72L1080.14,454.39L1072.02,459.1L1063.93,456.18L1060.6,449.14L1063.03,446.98L1060.46,448.86L1050.56,431.22L1035.64,415.25L1036.14,409.47L1034.02,412L1018.74,382.09L1002.88,361.48L994.53,327.13L996.99,315L1013.54,315.58L1020.82,320.11L1030.04,341.77L1034.38,340.79L1029.49,336.05L1025.61,318.58L1038.68,287.81L1034.51,268.73L1026.23,256.81L1022.33,257.55L1024.33,281.56L1022.2,290.27L1016.13,295.72L991.84,291.69L981.97,283.42L966.02,262.88L954.09,213.23L934.71,186.54L927.39,151.09L919.67,133.53L923.87,110.55L920.56,92.3L923.85,74.96L927.01,65.92L929.81,68.22L933.99,64.27L939.42,65.11L956.61,76.95L961.95,88.39L963.95,106.38L960.56,117.27L979.81,161.12L1003.34,190.53L1015.73,251.84L1021.27,258.28L1023.26,256.83L1025.09,256.91L1027.44,190.08L1017.5,161.53L1004.03,142.65L1002.48,126.03L1012.12,82.24L1019.76,79.31L1031.62,82.3L1038.14,89.3L1037.38,104.58L1044.32,130.32L1078.21,188.21L1084.73,192.4L1087.18,199.95L1090.55,199.07L1074.32,146.29L1060.69,120.18L1060.83,102.81L1071.45,75.79L1034.77,45.58L1031.25,47.43L1023.09,35.11L1023.51,31.43L1031.16,28.44L1035.06,18.56L1041.65,18.41L1041.64,14.31L1046.58,14.28L1054.42,16.52L1055.62,14.22L1059.27,14.2L1076.73,33.55L1081.31,35.11L1082.55,32.54L1083.67,32.07L1093.53,55.71L1093.14,63.18L1097.25,66.83L1098.95,84.75L1094.11,89.67L1112.83,123.1L1124.03,129.44L1131.8,140.26L1131.25,171.83L1137.08,195.52L1148.86,188.64L1153.01,166.33L1158.96,159.65L1164.81,159.08L1198.1,189.34L1197.58,197.55L1174.18,222.11L1176.49,238.77L1171.94,242.3L1102.14,219.81L1093.36,212.41L1091.16,199.57L1088.04,200.68L1090.9,208.45L1085.59,226.32L1097.73,243.39L1150.56,266.67L1163.85,280.18L1176.99,281.26L1181.62,289.82L1172.59,323.76L1140.24,336.1L1107.19,317.79Z" fill-rule="evenodd" fill="#4682b4" fill-opacity="0.471"/>
<polyline points="1107.19,317.79 1086.7,289.62 1080.05,286.7 1077.28,289.04 1083.84,316.06 1105.05,349.14 1128.66,367.16 1147.8,368.92 1158.43,375.73 1161.03,385.73 1153.98,407.86 1166.71,424.63 1154.98,439.99 1112.8,434.02 1082.17,397.4 1070.19,367.08 1059.3,351.7 1047.94,346.44 1045.46,355.38 1062.76,392.85 1064.13,411.3 1080.65,441.72 1080.14,454.39 1072.02,459.1 1063.93,456.18 1060.6,449.14 1063.03,446.98 1060.46,448.86 1050.56,431.22 1035.64,415.25 1036.14,409.47 1034.02,412 1018.74,382.09 1002.88,361.48 994.53,327.13 996.99,315 1013.54,315.58 1020.82,320.11 1030.04,341.77 1034.38,340.79 1029.49,336.05 1025.61,318.58 1038.68,287.81 1034.51,268.73 1026.23,256.81 1022.33,257.55 1024.33,281.56 1022.2,290.27 1016.13,295.72 991.84,291.69 981.97,283.42 966.02,262.88 954.09,213.23 934.71,186.54 927.39,151.09 919.67,133.53 923.87,110.55 920.56,92.3 923.85,74.96 927.01,65.92 929.81,68.22 933.99,64.27 939.42,65.11 956.61,76.95 961.95,88.39 963.95,106.38 960.56,117.27 979.81,161.12 1003.34,190.53 1015.73,251.84 1021.27,258.28 1023.26,256.83 1025.09,256.91 1027.44,190.08 1017.5,161.53 1004.03,142.65 1002.48,126.03 1012.12,82.24 1019.76,79.31 1031.62,82.3 1038.14,89.3 1037.38,104.58 1044.32,130.32 1078.21,188.21 1084.73,192.4 1087.18,199.95 1090.55,199.07 1074.32,146.29 1060.69,120.18 1060.83,102.81 1071.45,75.79 1034.77,45.58 1031.25,47.43 1023.09,35.11 1023.51,31.43 1031.16,28.44 1035.06,18.56 1041.65,18.41 1041.64,14.31 1046.58,14.28 1054.42,16.52 1055.62,14.22 1059.27,14.2 1076.73,33.55 1081.31,35.11 1082.55,32.54 1083.67,32.07 1093.53,55.71 1093.14,63.18 1097.25,66.83 1098.95,84.75 1094.11,89.67 1112.83,123.1 1124.03,129.44 1131.8,140.26 1131.25,171.83 1137.08,195.52 1148.86,188.64 1153.01,166.33 1158.96,159.65 1164.81,159.08 1198.1,189.34 1197.58,197.55 1174.18,222.11 1176.49,238.77 1171.94,242.3 1102.14,219.81 1093.36,212.41 1091.16,199.57 1088.04,200.68 1090.9,208.45 1085.59,226.32 1097.73,243.39 1150.56,266.67 1163.85,280.18 1176.99,281.26 1181.62,289.82 1172.59,323.76 1140.24,336.1 1107.19,317.79" fill="none" stroke="#1e1e1e" stroke-width="2.19" stroke-linecap="round" stroke-linejoin="round"/>
<path d="M233.01,631.57L224.58,633.51L223.94,628.81L228.96,628.36L229.51,629.94L233.01,631.57Z" fill-rule="evenodd" fill="#4682b4" fill-opacity="0.471"/>
<polyline points="233.01,631.57 224.58,633.51 223.94,628.81 228.96,628.36 229.51,629.94 233.01,631.57" fill="none" stroke="#1e1e1e" stroke-width="2.19" stroke-linecap="round" stroke-linejoin="round"/>
<path d="M686.84,948.11L691.06,948.1L697.67,958.41L693.09,958.46L686.84,948.11Z" fill-rule="evenodd" fill="#4682b4" fill-opacity="0.471"/>
<polyline points="686.84,948.11 691.06,948.1 697.67,958.41 693.09,958.46 686.84,948.11" fill="none" stroke="#1e1e1e" stroke-width="2.19" stroke-linecap="round" stroke-linejoin="round"/>
<path d="M733.47,664.37L749.62,677.47L768.09,680.28L799.36,695.64L807.35,696.85L840.4,688.69L869.85,698.58L870.21,702.85L864.25,702.16L883.4,736.98L876.17,736.34L881.46,758.98L872.26,776.31L877.84,780.63L873.04,791.44L874.62,782.85L871.81,781.54L869.17,786.17L870.94,777.42L863.24,771.95L860.54,775.64L866.13,779.79L861.4,781.2L862.1,785.03L864.61,783.54L858.76,789.8L866.98,799.03L866.04,795.12L873.16,811.99L900,828.31L892.88,845.42L892.66,869.89L899.98,895.02L890.53,912.27L878.93,905.01L862.49,902.9L852.84,888.99L836.33,884.12L820.68,864.49L821.48,869.66L799.24,836.63L785.22,830L734.68,787.9L736.43,778.48L732.08,775.94L735.01,775.14L727.59,762.13L726.63,745.65L712.76,710.69L680.24,719.46L668.4,717.64L671.13,712.64L664.79,700.23L660.69,700.08L655.15,679.9L658.45,679.57L654.86,677.04L658.81,640.19L642.47,609.28L642.08,596.53L616.99,577.83L613.63,562.31L596.06,565.18L583.95,560.57L578.27,568.75L559.3,570.3L529.77,564.22L508.9,549.11L495.56,524.5L502.94,515.87L505.64,494.3L518.13,492.25L513.48,491.17L514.72,484.96L511.6,488.88L507.52,486.24L496.44,488.67L495.63,494.13L495.82,487.42L493.96,488.15L495.39,496.53L491.56,505.68L458.13,498.96L447.87,482.72L451.89,477.88L449.67,469.61L434.12,458.72L436.66,455.03L413.66,443.67L417.44,431.45L423.83,429.71L418.47,427.21L424.79,406.08L429.17,402.64L434.83,404.03L428.9,399.29L435.83,393.99L430.18,394.94L429.26,389.16L434.46,384.99L431.16,384.72L436.9,371.49L435.03,361.57L439.16,358.64L435.05,354.01L441.27,335.6L438.5,332.22L442.06,309.17L448.09,305.86L457.79,308.09L459.82,304.11L472.19,301.38L482.65,305.7L484.72,302.65L478.43,296.53L461.74,303.36L449.49,302.56L432.43,292.36L435.59,289.72L431.86,284.1L432.77,270.44L436.06,264.54L440.48,265.16L438.69,260.58L443.48,257.07L439.02,251.26L445.85,249.76L440.18,230.86L446.02,224.47L441.02,219.46L446.11,205.62L443.98,203.05L449.3,201.7L455.46,189.95L473.97,195.23L471.39,199.21L476.48,202.43L484.11,189.23L500.82,180.68L522.18,198.62L516.74,217.6L521.36,219.41L532.03,206.36L547.9,210.93L555.56,218.09L560.54,229.73L570.26,238.07L571.57,250.18L569.56,246.5L568.16,248.5L577.96,266.5L585.69,296.68L606.54,326.95L615.81,350.03L635.99,360.5L646.3,378.61L647.84,404.94L642.58,411.06L628.98,415.07L628.63,423.62L670.71,436.5L679.01,449.79L701.55,468.37L710.25,494.19L734.29,493.15L745.95,507.67L759.86,517.12L762.48,528.28L770.23,537.2L770.18,553.69L741.38,561.93L720.74,588.38L708.11,593.12L707.51,591.21L703.48,590.54L704.63,595.35L719.19,600.15L733.51,594.42L747.89,580.19L759.1,576.29L768.46,577.87L796.3,593.38L810.31,606.14L838.65,659.05L797.85,680.85L769.27,670.23L751.41,669.9L737,661.35L733.47,664.37Z" fill-rule="evenodd" fill="#4682b4" fill-opacity="0.471"/>
<polyline points="733.47,664.37 749.62,677.47 768.09,680.28 799.36,695.64 807.35,696.85 840.4,688.69 869.85,698.58 870.21,702.85 864.25,702.16 883.4,736.98 876.17,736.34 881.46,758.98 872.26,776.31 877.84,780.63 873.04,791.44 874.62,782.85 871.81,781.54 869.17,786.17 870.94,777.42 863.24,771.95 860.54,775.64 866.13,779.79 861.4,781.2 862.1,785.03 864.61,783.54 858.76,789.8 866.98,799.03 866.04,795.12 873.16,811.99 900,828.31 892.88,845.42 892.66,869.89 899.98,895.02 890.53,912.27 878.93,905.01 862.49,902.9 852.84,888.99 836.33,884.12 820.68,864.49 821.48,869.66 799.24,836.63 785.22,830 734.68,787.9 736.43,778.48 732.08,775.94 735.01,775.14 727.59,762.13 726.63,745.65 712.76,710.69 680.24,719.46 668.4,717.64 671.13,712.64 664.79,700.23 660.69,700.08 655.15,679.9 658.45,679.57 654.86,677.04 658.81,640.19 642.47,609.28 642.08,596.53 616.99,577.83 613.63,562.31 596.06,565.18 583.95,560.57 578.27,568.75 559.3,570.3 529.77,564.22 508.9,549.11 495.56,524.5 502.94,515.87 505.64,494.3 518.13,492.25 513.48,491.17 514.72,484.96 511.6,488.88 507.52,486.24 496.44,488.67 495.63,494.13 495.82,487.42 493.96,488.15 495.39,496.53 491.56,505.68 458.13,498.96 447.87,482.72 451.89,477.88 449.67,469.61 434.12,458.72 436.66,455.03 413.66,443.67 417.44,431.45 423.83,429.71 418.47,427.21 424.79,406.08 429.17,402.64 434.83,404.03 428.9,399.29 435.83,393.99 430.18,394.94 429.26,389.16 434.46,384.99 431.16,384.72 436.9,371.49 435.03,361.57 439.16,358.64 435.05,354.01 441.27,335.6 438.5,332.22 442.06,309.17 448.09,305.86 457.79,308.09 459.82,304.11 472.19,301.38 482.65,305.7 484.72,302.65 478.43,296.53 461.74,303.36 449.49,302.56 432.43,292.36 435.59,289.72 431.86,284.1 432.77,270.44 436.06,264.54 440.48,265.16 438.69,260.58 443.48,257.07 439.02,251.26 445.85,249.76 440.18,230.86 446.02,224.47 441.02,219.46 446.11,205.62 443.98,203.05 449.3,201.7 455.46,189.95 473.97,195.23 471.39,199.21 476.48,202.43 484.11,189.23 500.82,180.68 522.18,198.62 516.74,217.6 521.36,219.41 532.03,206.36 547.9,210.93 555.56,218.09 560.54,229.73 570.26,238.07 571.57,250.18 569.56,246.5 568.16,248.5 577.96,266.5 585.69,296.68 606.54,326.95 615.81,350.03 635.99,360.5 646.3,378.61 647.84,404.94 642.58,411.06 628.98,415.07 628.63,423.62 670.71,436.5 679.01,449.79 701.55,468.37 710.25,494.19 734.29,493.15 745.95,507.67 759.86,517.12 762.48,528.28 770.23,537.2 770.18,553.69 741.38,561.93 720.74,588.38 708.11,593.12 707.51,591.21 703.48,590.54 704.63,595.35 719.19,600.15 733.51,594.42 747.89,580.19 759.1,576.29 768.46,577.87 796.3,593.38 810.31,606.14 838.65,659.05 797.85,680.85 769.27,670.23 751.41,669.9 737,661.35 733.47,664.37" fill="none" stroke="#1e1e1e" stroke-width="2.19" stroke-linecap="round" stroke-linejoin="round"/>
<path d="M932.39,266.27L962.88,303.86L965.21,312.83L966.01,340.02L963.6,345.99L956.76,348.77L936.64,343.39L912.15,321.42L911.36,304.87L916.34,283.49L913.99,267.04L876.64,205.51L857.77,182.77L830.97,115.12L831.56,105.82L827.61,104.12L827.98,93.05L820.86,71.71L821.58,65.99L826.34,67.87L822.37,56.38L834.68,56.33L857.66,83.08L857.23,96.93L861.83,97L868.5,126.48L888.48,168.75L890.69,181.95L928.16,241.82L932.39,266.27Z" fill-rule="evenodd" fill="#4682b4" fill-opacity="0.471"/>
<polyline points="932.39,266.27 962.88,303.86 965.21,312.83 966.01,340.02 963.6,345.99 956.76,348.77 936.64,343.39 912.15,321.42 911.36,304.87 916.34,283.49 913.99,267.04 876.64,205.51 857.77,182.77 830.97,115.12 831.56,105.82 827.61,104.12 827.98,93.05 820.86,71.71 821.58,65.99 826.34,67.87 822.37,56.38 834.68,56.33 857.66,83.08 857.23,96.93 861.83,97 868.5,126.48 888.48,168.75 890.69,181.95 928.16,241.82 932.39,266.27" fill="none" stroke="#1e1e1e" stroke-width="2.19" stroke-linecap="round" stroke-linejoin="round"/>
<path d="M811.75,1851.53L786.71,1841.93L772.83,1824L778.75,1819.92L769.45,1813.92L773.79,1804.13L767.61,1798.86L769.96,1794.08L765.55,1793.08L764.77,1787.2L750.52,1780.9L753.85,1777.06L746.97,1763.3L755.36,1743.24L750.84,1732.31L764.56,1731.47L764.81,1726.8L756.68,1724L759.89,1724.02L755.17,1713.44L742.77,1711.41L744.39,1705.36L728.45,1697.62L732.65,1692.1L727.57,1685.64L730.18,1680.11L712.6,1673.76L715.43,1669.89L713.17,1656.73L708.04,1647.64L683.89,1631.87L679.69,1621.4L673.51,1620.1L679.89,1609.76L679.21,1600.63L685.99,1597.55L673.69,1587.9L670.25,1589.8L670.2,1586.17L665.97,1587.7L667.71,1584.69L663.56,1585.47L665.67,1582.3L656.65,1574.87L663.54,1566.79L673.12,1566.97L672,1559.84L660.05,1543.9L657.55,1545.35L656.68,1535.63L649.69,1535L655.66,1522.97L661.41,1525.97L660.27,1518.34L666.5,1520.46L662.56,1516.99L667.73,1514.65L668.92,1517.78L671.92,1518.09L674.05,1509.44L670.74,1510.32L676.64,1506.81L671.57,1493.99L668.58,1494.18L671.48,1488.76L674.64,1492.17L677.22,1488.87L730.51,1480.04L742.49,1486.99L749.93,1498.07L720.65,1514.73L717.45,1522.75L720.02,1529.28L728.07,1530.44L753.74,1522.84L765.69,1526.53L750.93,1534.57L725.68,1556.99L712.11,1575.53L705.51,1574.44L708.86,1572.37L699.73,1574.18L697.64,1582.45L707.61,1594.46L713.64,1594.9L717.87,1588.74L721.41,1591.99L755.64,1581.23L757.1,1584.73L773.61,1587.29L789.34,1581.28L799.53,1587.63L798.53,1603.15L812.04,1605.47L809.97,1616.22L815.7,1620.27L833.64,1622.15L847.37,1613.8L871.57,1619.04L885.9,1631.78L885.86,1638.2L876.62,1652.04L894.44,1664.39L898.46,1672.5L889.82,1682.59L888.08,1693.02L866.59,1686.06L864.57,1693.64L857.15,1693.26L841.68,1675.74L825.12,1668.31L813.55,1656.21L805.75,1654.38L802.18,1660L814.54,1676.36L824.14,1681.97L824.68,1678.44L825.06,1683.82L833.86,1684.9L842.09,1691.59L842.28,1700.74L831.87,1703.56L830.4,1710.72L851.44,1710.11L853.65,1712.71L850.15,1718.08L897.84,1725.73L900.84,1738.21L903.96,1738.39L899.91,1741.76L901.9,1752.24L911.75,1766.2L900.55,1768.63L876.57,1764.45L873.31,1768.72L875.35,1777.02L892.38,1785.04L900.35,1795.7L928.1,1792.2L932.61,1801.68L918.57,1806.87L918.44,1812.81L911.06,1812.62L912.56,1818.78L901.93,1811.71L901.04,1818.94L891.99,1815L893.99,1820.56L887.4,1823.32L875.78,1839.27L839.2,1830.23L817.08,1833.43L842.67,1840.94L846.13,1836.65L843.57,1843.61L862.64,1859.54L862.66,1887.3L870.37,1885.38L867.97,1884.16L871.14,1883.83L878.84,1861.08L908.33,1852.04L918.9,1855.67L922.22,1866.67L914.32,1875.83L913.05,1891.42L918.8,1892.4L937.91,1883.6L945.95,1897.68L941.88,1906.54L945.06,1919.18L940.78,1922.59L941.67,1928.59L953.38,1934.76L962.1,1954.53L962.92,1975.94L956.15,1982.05L956.87,1987.55L953.87,1987.56L948.69,1984.15L948.52,1987.58L944.4,1985.59L944.12,1987.6L942.11,1987.61L940.07,1982.17L928.24,1977.31L921.22,1967.05L888.87,1955.66L889.49,1951.26L884.24,1950.57L882.05,1943.09L873.64,1935.71L876.37,1929.28L871.36,1918.23L874.73,1917.07L872.93,1911.75L866.66,1910.62L846.93,1888.48L834.71,1884.9L835.12,1878.04L826.73,1878.23L825.7,1872.44L813.38,1866.9L814.67,1863.71L808.91,1865.68L806.47,1858.25L811.75,1851.53Z" fill-rule="evenodd" fill="#4682b4" fill-opacity="0.471"/>
<polyline points="811.75,1851.53 786.71,1841.93 772.83,1824 778.75,1819.92 769.45,1813.92 773.79,1804.13 767.61,1798.86 769.96,1794.08 765.55,1793.08 764.77,1787.2 750.52,1780.9 753.85,1777.06 746.97,1763.3 755.36,1743.24 750.84,1732.31 764.56,1731.47 764.81,1726.8 756.68,1724 759.89,1724.02 755.17,1713.44 742.77,1711.41 744.39,1705.36 728.45,1697.62 732.65,1692.1 727.57,1685.64 730.18,1680.11 712.6,1673.76 715.43,1669.89 713.17,1656.73 708.04,1647.64 683.89,1631.87 679.69,1621.4 673.51,1620.1 679.89,1609.76 679.21,1600.63 685.99,1597.55 673.69,1587.9 670.25,1589.8 670.2,1586.17 665.97,1587.7 667.71,1584.69 663.56,1585.47 665.67,1582.3 656.65,1574.87 663.54,1566.79 673.12,1566.97 672,1559.84 660.05,1543.9 657.55,1545.35 656.68,1535.63 649.69,1535 655.66,1522.97 661.41,1525.97 660.27,1518.34 666.5,1520.46 662.56,1516.99 667.73,1514.65 668.92,1517.78 671.92,1518.09 674.05,1509.44 670.74,1510.32 676.64,1506.81 671.57,1493.99 668.58,1494.18 671.48,1488.76 674.64,1492.17 677.22,1488.87 730.51,1480.04 742.49,1486.99 749.93,1498.07 720.65,1514.73 717.45,1522.75 720.02,1529.28 728.07,1530.44 753.74,1522.84 765.69,1526.53 750.93,1534.57 725.68,1556.99 712.11,1575.53 705.51,1574.44 708.86,1572.37 699.73,1574.18 697.64,1582.45 707.61,1594.46 713.64,1594.9 717.87,1588.74 721.41,1591.99 755.64,1581.23 757.1,1584.73 773.61,1587.29 789.34,1581.28 799.53,1587.63 798.53,1603.15 812.04,1605.47 809.97,1616.22 815.7,1620.27 833.64,1622.15 847.37,1613.8 871.57,1619.04 885.9,1631.78 885.86,1638.2 876.62,1652.04 894.44,1664.39 898.46,1672.5 889.82,1682.59 888.08,1693.02 866.59,1686.06 864.57,1693.64 857.15,1693.26 841.68,1675.74 825.12,1668.31 813.55,1656.21 805.75,1654.38 802.18,1660 814.54,1676.36 824.14,1681.97 824.68,1678.44 825.06,1683.82 833.86,1684.9 842.09,1691.59 842.28,1700.74 831.87,1703.56 830.4,1710.72 851.44,1710.11 853.65,1712.71 850.15,1718.08 897.84,1725.73 900.84,1738.21 903.96,1738.39 899.91,1741.76 901.9,1752.24 911.75,1766.2 900.55,1768.63 876.57,1764.45 873.31,1768.72 875.35,1777.02 892.38,1785.04 900.35,1795.7 928.1,1792.2 932.61,1801.68 918.57,1806.87 918.44,1812.81 911.06,1812.62 912.56,1818.78 901.93,1811.71 901.04,1818.94 891.99,1815 893.99,1820.56 887.4,1823.32 875.78,1839.27 839.2,1830.23 817.08,1833.43 842.67,1840.94 846.13,1836.65 843.57,1843.61 862.64,1859.54 862.66,1887.3 870.37,1885.38 867.97,1884.16 871.14,1883.83 878.84,1861.08 908.33,1852.04 918.9,1855.67 922.22,1866.67 914.32,1875.83 913.05,1891.42 918.8,1892.4 937.91,1883.6 945.95,1897.68 941.88,1906.54 945.06,1919.18 940.78,1922.59 941.67,1928.59 953.38,1934.76 962.1,1954.53 962.92,1975.94 956.15,1982.05 956.87,1987.55 953.87,1987.56 948.69,1984.15 948.52,1987.58 944.4,1985.59 944.12,1987.6 942.11,1987.61 940.07,1982.17 928.24,1977.31 921.22,1967.05 888.87,1955.66 889.49,1951.26 884.24,1950.57 882.05,1943.09 873.64,1935.71 876.37,1929.28 871.36,1918.23 874.73,1917.07 872.93,1911.75 866.66,1910.62 846.93,1888.48 834.71,1884.9 835.12,1878.04 826.73,1878.23 825.7,1872.44 813.38,1866.9 814.67,1863.71 808.91,1865.68 806.47,1858.25 811.75,1851.53" fill="none" stroke="#1e1e1e" stroke-width="2.19" stroke-linecap="round" stroke-linejoin="round"/>
<path d="M907.14,573.3L906.27,568.84L903.22,570.14L906.71,568.18L906.83,548.28L901.07,538.51L904.87,538.34L900.43,529.1L899.62,512.93L877.81,480.24L866.92,453.97L816.17,410.98L794.12,400.89L788.94,408.55L819.42,442.15L852.2,467L862.37,493.48L877.01,516.83L881.2,559.69L876.82,573.14L879.08,575.71L867.99,590.41L871.98,612.41L865.42,608.9L850.34,580.42L837.44,565.19L819.72,548.18L805.98,544L798.78,536.55L773.22,485.37L762.17,483.23L759.15,476.49L742.12,470.94L722.76,475.48L709.87,454.35L696.2,445.17L683.46,427.67L659.13,413.73L645.71,361.52L631.79,350.71L625.77,335.75L607.74,310.36L606.62,293.97L593.82,264.52L594.16,256.35L578.38,222.71L580.01,213.23L570.18,202.61L565.3,203.03L570.03,208.66L563.98,202.03L552.15,201.5L546,196.9L551.93,176.5L549.78,173.66L558.69,156.53L572.87,170.61L574.31,183.67L584.69,183.3L592.28,175.4L607.92,171.16L617.31,164.14L618.07,159.22L631.6,151.63L633.8,142.7L630.55,141.33L637.95,135.52L646.87,136.57L649.63,131.55L645.71,131.24L652.69,127.55L659.48,131.21L664.93,124.56L664.53,116.62L674.34,123.41L677.94,120.94L680.08,124.66L684.01,123.49L690.74,135.49L696.04,134.47L700.36,141.06L707.49,142.07L704.34,147.43L709.43,146.64L706.92,149.04L710.66,154.09L736.27,164.14L743.82,173.24L719.43,187.37L684.62,224.19L695.38,248.22L688.39,265.15L688.7,278.74L696.84,305.37L708.86,323.51L714.03,325.91L715.18,320.16L701.4,299.59L697.17,280.28L709.93,250.51L707.43,234.75L716.75,237.9L728.66,229.96L735.29,232.8L743.41,224.44L756.07,219.97L769.17,220.86L789.84,212.54L803.51,221.83L807.78,230.21L789.51,243.38L789.7,251L788.22,248.19L778.03,273.44L786.36,274.38L826.24,257.42L856.96,269.51L868.21,283.94L866.04,311.1L855.97,325.2L841.95,329.46L828.15,313.47L818.92,316.18L824.59,327.02L824.52,340.53L841.69,359.05L864.17,362.12L885.21,349.79L893.68,348.84L904.94,355.02L916.44,368.69L926.72,368.52L919.05,369.96L924.34,370.56L923.72,374.67L927.26,370.62L931.65,375.91L985.86,396.05L994.08,424.41L989.07,434.32L944.19,415.59L898.17,405.68L893.22,408.09L895.78,406.04L889.42,399.87L888.77,409.19L880.2,424.31L885.84,438.65L904.5,450.49L925.88,455.38L937.53,469.96L967.49,483.14L998.39,508.6L1015.23,515.89L1031.97,534.09L1021.74,533.46L1008.4,524.8L965.52,510.56L935.51,505.71L926.64,510.8L932.46,521.8L956.96,529.06L970.27,547.18L984.92,552.05L999.96,575.37L975.12,589.79L954.21,589.85L941.06,584.89L938.71,595.64L944.34,608.92L938.75,656.75L943.9,665.26L937.66,679.29L929.45,678L918.19,664.33L907.39,639.83L893.24,622.67L888.2,577.19L893.8,570.86L907.14,573.3Z" fill-rule="evenodd" fill="#4682b4" fill-opacity="0.471"/>
<polyline points="907.14,573.3 906.27,568.84 903.22,570.14 906.71,568.18 906.83,548.28 901.07,538.51 904.87,538.34 900.43,529.1 899.62,512.93 877.81,480.24 866.92,453.97 816.17,410.98 794.12,400.89 788.94,408.55 819.42,442.15 852.2,467 862.37,493.48 877.01,516.83 881.2,559.69 876.82,573.14 879.08,575.71 867.99,590.41 871.98,612.41 865.42,608.9 850.34,580.42 837.44,565.19 819.72,548.18 805.98,544 798.78,536.55 773.22,485.37 762.17,483.23 759.15,476.49 742.12,470.94 722.76,475.48 709.87,454.35 696.2,445.17 683.46,427.67 659.13,413.73 645.71,361.52 631.79,350.71 625.77,335.75 607.74,310.36 606.62,293.97 593.82,264.52 594.16,256.35 578.38,222.71 580.01,213.23 570.18,202.61 565.3,203.03 570.03,208.66 563.98,202.03 552.15,201.5 546,196.9 551.93,176.5 549.78,173.66 558.69,156.53 572.87,170.61 574.31,183.67 584.69,183.3 592.28,175.4 607.92,171.16 617.31,164.14 618.07,159.22 631.6,151.63 633.8,142.7 630.55,141.33 637.95,135.52 646.87,136.57 649.63,131.55 645.71,131.24 652.69,127.55 659.48,131.21 664.93,124.56 664.53,116.62 674.34,123.41 677.94,120.94 680.08,124.66 684.01,123.49 690.74,135.49 696.04,134.47 700.36,141.06 707.49,142.07 704.34,147.43 709.43,146.64 706.92,149.04 710.66,154.09 736.27,164.14 743.82,173.24 719.43,187.37 684.62,224.19 695.38,248.22 688.39,265.15 688.7,278.74 696.84,305.37 708.86,323.51 714.03,325.91 715.18,320.16 701.4,299.59 697.17,280.28 709.93,250.51 707.43,234.75 716.75,237.9 728.66,229.96 735.29,232.8 743.41,224.44 756.07,219.97 769.17,220.86 789.84,212.54 803.51,221.83 807.78,230.21 789.51,243.38 789.7,251 788.22,248.19 778.03,273.44 786.36,274.38 826.24,257.42 856.96,269.51 868.21,283.94 866.04,311.1 855.97,325.2 841.95,329.46 828.15,313.47 818.92,316.18 824.59,327.02 824.52,340.53 841.69,359.05 864.17,362.12 885.21,349.79 893.68,348.84 904.94,355.02 916.44,368.69 926.72,368.52 919.05,369.96 924.34,370.56 923.72,374.67 927.26,370.62 931.65,375.91 985.86,396.05 994.08,424.41 989.07,434.32 944.19,415.59 898.17,405.68 893.22,408.09 895.78,406.04 889.42,399.87 888.77,409.19 880.2,424.31 885.84,438.65 904.5,450.49 925.88,455.38 937.53,469.96 967.49,483.14 998.39,508.6 1015.23,515.89 1031.97,534.09 1021.74,533.46 1008.4,524.8 965.52,510.56 935.51,505.71 926.64,510.8 932.46,521.8 956.96,529.06 970.27,547.18 984.92,552.05 999.96,575.37 975.12,589.79 954.21,589.85 941.06,584.89 938.71,595.64 944.34,608.92 938.75,656.75 943.9,665.26 937.66,679.29 929.45,678 918.19,664.33 907.39,639.83 893.24,622.67 888.2,577.19 893.8,570.86 907.14,573.3" fill="none" stroke="#1e1e1e" stroke-width="2.19" stroke-linecap="round" stroke-linejoin="round"/>
<path d="M1305.61,115.74L1317.14,112.55L1323.57,106.12L1331.97,109.17L1333.61,125.54L1328,143.15L1317.93,137.95L1307.75,155.55L1285.55,160.09L1285.36,163.38L1271.98,157.63L1263.7,140.92L1262.23,119.21L1264.44,101.95L1267.79,101.73L1270.58,92L1290.02,88.94L1296.36,99.13L1292.28,108.01L1305.61,115.74Z" fill-rule="evenodd" fill="#4682b4" fill-opacity="0.471"/>
<polyline points="1305.61,115.74 1317.14,112.55 1323.57,106.12 1331.97,109.17 1333.61,125.54 1328,143.15 1317.93,137.95 1307.75,155.55 1285.55,160.09 1285.36,163.38 1271.98,157.63 1263.7,140.92 1262.23,119.21 1264.44,101.95 1267.79,101.73 1270.58,92 1290.02,88.94 1296.36,99.13 1292.28,108.01 1305.61,115.74" fill="none" stroke="#1e1e1e" stroke-width="2.19" stroke-linecap="round" stroke-linejoin="round"/>
<path d="M293.37,633.93L319.88,648.03L334.44,641.11L354.68,652L365.14,650.03L348.24,635.91L318.62,627.88L310.44,619.82L290.94,619.49L279.84,608.23L269.91,607.72L258.63,600.92L249.75,583.56L251.25,577.32L240.68,573.27L242.33,568.18L225.16,551.7L230.58,538.5L225.2,535.14L228.88,532.71L224.11,523.5L226.02,510.94L236.75,503.76L240.6,505.62L243.8,499.57L251.11,508.03L259.85,508.59L274.12,522.83L280.79,519.93L283.94,532.84L290.51,538.11L305.67,534.48L324.96,544.22L331.61,540.53L338.77,527.74L339.24,505.11L355.49,507.02L376.47,494.37L387.77,493.76L423.09,475.07L430.83,479.11L426.92,495.62L434.95,509.83L455.8,523.37L474.56,529.46L493.58,562.11L525.03,589.29L569.27,596.07L580.39,602.69L594.08,625.12L597.26,637.85L592.1,639.58L595.37,644.42L578.27,661.7L580.1,682.93L576.33,698.5L552.93,697.6L535.22,704.55L526.8,703.38L516.9,698.59L510.14,684.07L496.07,705.6L497.78,700.41L478.93,695.4L478.51,700.58L505.29,711.66L517.06,724.55L491,731.75L464.54,749.15L441.2,743.96L441.04,749.95L437.72,750.59L418.62,734.78L421.38,732.91L412.51,727.99L405.37,716.31L385.68,712.81L375.81,705.9L361.71,704.87L354.45,696.83L356.16,694.54L339.9,692.06L327.21,683.29L317.51,686.09L297.45,676.54L298.99,673.28L294.32,674.63L297.84,670.09L294.26,670.41L295.71,665.86L276.82,657.16L280.57,653.43L270.64,645.68L272.53,639.83L282.81,642.75L293.37,633.93Z" fill-rule="evenodd" fill="#4682b4" fill-opacity="0.471"/>
<polyline points="293.37,633.93 319.88,648.03 334.44,641.11 354.68,652 365.14,650.03 348.24,635.91 318.62,627.88 310.44,619.82 290.94,619.49 279.84,608.23 269.91,607.72 258.63,600.92 249.75,583.56 251.25,577.32 240.68,573.27 242.33,568.18 225.16,551.7 230.58,538.5 225.2,535.14 228.88,532.71 224.11,523.5 226.02,510.94 236.75,503.76 240.6,505.62 243.8,499.57 251.11,508.03 259.85,508.59 274.12,522.83 280.79,519.93 283.94,532.84 290.51,538.11 305.67,534.48 324.96,544.22 331.61,540.53 338.77,527.74 339.24,505.11 355.49,507.02 376.47,494.37 387.77,493.76 423.09,475.07 430.83,479.11 426.92,495.62 434.95,509.83 455.8,523.37 474.56,529.46 493.58,562.11 525.03,589.29 569.27,596.07 580.39,602.69 594.08,625.12 597.26,637.85 592.1,639.58 595.37,644.42 578.27,661.7 580.1,682.93 576.33,698.5 552.93,697.6 535.22,704.55 526.8,703.38 516.9,698.59 510.14,684.07 496.07,705.6 497.78,700.41 478.93,695.4 478.51,700.58 505.29,711.66 517.06,724.55 491,731.75 464.54,749.15 441.2,743.96 441.04,749.95 437.72,750.59 418.62,734.78 421.38,732.91 412.51,727.99 405.37,716.31 385.68,712.81 375.81,705.9 361.71,704.87 354.45,696.83 356.16,694.54 339.9,692.06 327.21,683.29 317.51,686.09 297.45,676.54 298.99,673.28 294.32,674.63 297.84,670.09 294.26,670.41 295.71,665.86 276.82,657.16 280.57,653.43 270.64,645.68 272.53,639.83 282.81,642.75 293.37,633.93" fill="none" stroke="#1e1e1e" stroke-width="2.19" stroke-linecap="round" stroke-linejoin="round"/>
<path d="M1188.93,255.44L1197.47,237.68L1207.57,231.98L1233.02,232.65L1242.16,204.26L1254.1,186.06L1271.88,185.78L1282.17,201.76L1297.87,203.89L1307.49,215.04L1310.21,232.3L1304.37,239.79L1284.24,233.74L1264,236.47L1257.6,240.83L1258.82,246.74L1282.51,264.67L1274.92,282.56L1276.07,292.31L1271.88,296.89L1276.24,301.56L1273.81,306.9L1225.75,327.67L1216.66,324.58L1212.99,289.76L1205.24,272.86L1188.93,255.44Z" fill-rule="evenodd" fill="#4682b4" fill-opacity="0.471"/>
<polyline points="1188.93,255.44 1197.47,237.68 1207.57,231.98 1233.02,232.65 1242.16,204.26 1254.1,186.06 1271.88,185.78 1282.17,201.76 1297.87,203.89 1307.49,215.04 1310.21,232.3 1304.37,239.79 1284.24,233.74 1264,236.47 1257.6,240.83 1258.82,246.74 1282.51,264.67 1274.92,282.56 1276.07,292.31 1271.88,296.89 1276.24,301.56 1273.81,306.9 1225.75,327.67 1216.66,324.58 1212.99,289.76 1205.24,272.86 1188.93,255.44" fill="none" stroke="#1e1e1e" stroke-width="2.19" stroke-linecap="round" stroke-linejoin="round"/>
<path d="M957.26,775.17L949.99,771.34L939.34,745.53L962.42,760.85L963.34,766.45L958,772.78L962.51,775.84L961.75,784.65L977.2,798.75L984.82,800.97L987.35,816.71L994.58,816.64L995.43,839.12L1008.3,858.41L1012.02,857.79L1012.05,871.56L1003.67,881.01L1001.96,889.11L996.72,886.44L987.52,892.26L987.32,876.03L981.23,857.78L952.78,824.38L956.78,778.21L952.96,775.62L957.26,775.17Z" fill-rule="evenodd" fill="#4682b4" fill-opacity="0.471"/>
<polyline points="957.26,775.17 949.99,771.34 939.34,745.53 962.42,760.85 963.34,766.45 958,772.78 962.51,775.84 961.75,784.65 977.2,798.75 984.82,800.97 987.35,816.71 994.58,816.64 995.43,839.12 1008.3,858.41 1012.02,857.79 1012.05,871.56 1003.67,881.01 1001.96,889.11 996.72,886.44 987.52,892.26 987.32,876.03 981.23,857.78 952.78,824.38 956.78,778.21 952.96,775.62 957.26,775.17" fill="none" stroke="#1e1e1e" stroke-width="2.19" stroke-linecap="round" stroke-linejoin="round"/>
<path d="M246.24,631.9L266.47,636.21L249.85,641.44L248.19,637.97L237.21,639.29L237.04,632.86L244.54,634.91L245.58,628.95L248.44,627.23L246.24,631.9Z" fill-rule="evenodd" fill="#4682b4" fill-opacity="0.471"/>
<polyline points="246.24,631.9 266.47,636.21 249.85,641.44 248.19,637.97 237.21,639.29 237.04,632.86 244.54,634.91 245.58,628.95 248.44,627.23 246.24,631.9" fill="none" stroke="#1e1e1e" stroke-width="2.19" stroke-linecap="round" stroke-linejoin="round"/>
</svg>
