<?xml version="1.0" encoding="UTF-8" standalone="no"?>
<svg xmlns="http://www.w3.org/2000/svg" width="1362" height="2000" viewBox="0 0 1362 2000">
<rect width="1362" height="2000" fill="#ffffff"/>
<path d="M651.47,1534.42L655.22,1522.59L663.66,1514.7L671.16,1512.73L672.1,1506.81L675.85,1506.81L671.16,1500.89L671.16,1493L676.78,1489.05L691.77,1487.08L697.39,1485.11L703.02,1485.1L713.32,1481.15L730.18,1479.17L742.36,1487.05L748.93,1492.96L749.87,1498.88L742.38,1504.8L722.71,1512.71L720.83,1514.69L717.09,1524.55L719.91,1528.5L728.35,1530.46L753.65,1522.55L758.34,1522.54L765.84,1526.48L763.97,1530.43L754.6,1532.41L740.55,1546.23L725.55,1556.11L719.93,1565.98L714.3,1569.93L711.49,1573.87L708.68,1571.9L698.36,1575.85L697.42,1583.74L703.99,1587.69L706.81,1593.6L711.5,1595.58L718.07,1589.65L722.76,1591.62L728.39,1587.67L744.34,1585.69L749.03,1581.74L750.91,1583.71L761.23,1585.67L766.86,1583.69L773.43,1587.62L780,1585.64L786.56,1581.68L789.38,1581.68L797.83,1585.61L801.6,1593.49L798.8,1601.39L803.5,1605.32L810.07,1605.31L812.9,1611.22L810.09,1617.15L815.74,1621.08L820.43,1621.07L822.3,1619.09L827.95,1623.02L835.45,1621.03L847.64,1613.11L856.1,1617.03L871.13,1618.96L875.84,1624.86L886.2,1632.72L886.22,1638.64L883.4,1640.62L876.86,1650.51L882.52,1656.41L895.7,1666.22L898.54,1672.13L889.2,1687.95L884.51,1689.94L876.99,1689.96L866.64,1686.05L864.78,1693.94L857.26,1693.97L848.77,1682.15L842.17,1676.25L833.7,1670.36L827.12,1668.4L812.05,1654.62L805.48,1654.64L802.67,1660.56L807.38,1664.5L814.92,1676.32L829.04,1686.15L833.73,1684.17L838.45,1690.07L842.21,1692.04L842.23,1699.93L831.9,1703.9L830.04,1709.82L836.62,1711.78L844.14,1709.79L853.55,1711.73L848.86,1715.69L849.81,1717.66L860.16,1719.6L869.57,1723.52L873.33,1721.54L880.86,1725.46L891.21,1725.42L895.91,1723.43L902.54,1737.22L899.73,1741.18L901.65,1751.03L906.38,1758.91L912.04,1762.83L912.06,1766.78L903.58,1764.84L895.12,1766.84L888.52,1764.89L876.29,1764.93L873.48,1768.88L876.33,1778.74L882.93,1782.66L891.41,1784.61L896.15,1792.48L900.87,1796.41L905.56,1792.45L910.28,1794.4L917.81,1792.4L929.1,1792.36L931.03,1802.21L928.22,1806.17L924.45,1806.19L917.87,1808.18L917.88,1812.13L911.29,1812.15L911.3,1814.13L900.93,1812.19L898.12,1818.12L893.4,1814.19L893.42,1820.11L885.9,1824.08L881.21,1831.99L880.28,1835.94L874.64,1839.9L858.62,1837.98L849.18,1832.08L836.93,1830.14L835.99,1832.12L826.56,1830.17L821.86,1834.13L839.78,1840L857.73,1857.71L862.45,1859.67L863.46,1881.36L860.65,1887.29L868.19,1887.27L871.01,1883.31L872.85,1869.5L875.66,1863.57L879.42,1861.59L887.9,1859.59L891.67,1857.6L898.26,1855.6L905.78,1851.63L913.32,1851.6L918.99,1855.53L921.87,1867.35L917.16,1869.34L913.43,1879.22L914.41,1891.05L916.31,1893.02L925.72,1887.07L934.2,1885.06L937.96,1883.07L946.52,1900.79L941.83,1906.73L944.7,1916.58L944.72,1920.52L940.01,1922.52L942.88,1930.4L953.27,1934.3L956.14,1942.18L961.86,1953.99L960.93,1957.94L961.9,1963.85L960.99,1969.77L961.96,1975.69L957.25,1979.65L957.29,1987.54L951.6,1983.62L945,1985.63L938.37,1981.71L931.74,1975.82L927.97,1977.81L921.32,1967.97L910.91,1962.09L908.08,1964.07L900.5,1956.21L894.84,1956.23L890.11,1954.27L878.74,1942.47L875.87,1928.67L875.85,1922.75L871.12,1918.82L870.16,1912.91L866.38,1910.95L853.13,1897.18L847.45,1889.3L845.57,1891.28L837.07,1885.38L835.16,1877.5L830.44,1875.53L828.56,1877.51L821,1871.61L818.17,1867.67L814.4,1867.68L809.67,1863.75L806.83,1857.83L810.6,1855.85L810.59,1849.93L803.98,1846L798.33,1847.99L792.67,1844.05L787.95,1842.09L782.29,1834.2L775.68,1828.3L773.79,1820.41L778.49,1818.43L770.01,1814.5L770.94,1806.6L772.82,1802.66L768.1,1798.72L769.98,1794.77L765.27,1792.8L765.27,1788.86L759.61,1786.89L758.67,1784.92L750.19,1780.98L753.95,1777.03L751.12,1773.09L749.23,1765.2L747.35,1763.23L750.16,1751.39L755.79,1743.49L753.91,1737.58L755.78,1731.66L765.19,1731.65L764.24,1725.73L760.48,1725.73L756.7,1715.87L748.23,1709.97L742.59,1709.97L744.47,1706.02L728.48,1698.15L732.23,1690.25L727.53,1686.31L730.34,1680.39L727.52,1676.45L720,1676.45L716.24,1674.48L711.53,1654.76L708.71,1648.84L692.74,1635.04L684.29,1631.09L679.59,1621.23L673.96,1619.26L677.71,1611.36L676.78,1607.42L684.29,1599.53L684.28,1595.58L678.65,1595.58L673.02,1589.66L670.21,1589.66L665.52,1587.69L664.58,1583.74L657.07,1577.82L658.95,1573.88L663.64,1567.96L663.65,1565.99L673.03,1565.99L672.09,1560.07L668.34,1556.13L664.59,1548.23L658.02,1546.26L657.09,1542.31L658.97,1538.37L654.28,1534.42L651.47,1534.42Z" fill-rule="evenodd" fill="#4682b4" fill-opacity="0.471"/>
<polyline points="651.47,1534.42 655.22,1522.59 663.66,1514.7 671.16,1512.73 672.1,1506.81 675.85,1506.81 671.16,1500.89 671.16,1493 676.78,1489.05 691.77,1487.08 697.39,1485.11 703.02,1485.1 713.32,1481.15 730.18,1479.17 742.36,1487.05 748.93,1492.96 749.87,1498.88 742.38,1504.8 722.71,1512.71 720.83,1514.69 717.09,1524.55 719.91,1528.5 728.35,1530.46 753.65,1522.55 758.34,1522.54 765.84,1526.48 763.97,1530.43 754.6,1532.41 740.55,1546.23 725.55,1556.11 719.93,1565.98 714.3,1569.93 711.49,1573.87 708.68,1571.9 698.36,1575.85 697.42,1583.74 703.99,1587.69 706.81,1593.6 711.5,1595.58 718.07,1589.65 722.76,1591.62 728.39,1587.67 744.34,1585.69 749.03,1581.74 750.91,1583.71 761.23,1585.67 766.86,1583.69 773.43,1587.62 780,1585.64 786.56,1581.68 789.38,1581.68 797.83,1585.61 801.6,1593.49 798.8,1601.39 803.5,1605.32 810.07,1605.31 812.9,1611.22 810.09,1617.15 815.74,1621.08 820.43,1621.07 822.3,1619.09 827.95,1623.02 835.45,1621.03 847.64,1613.11 856.1,1617.03 871.13,1618.96 875.84,1624.86 886.2,1632.72 886.22,1638.64 883.4,1640.62 876.86,1650.51 882.52,1656.41 895.7,1666.22 898.54,1672.13 889.2,1687.95 884.51,1689.94 876.99,1689.96 866.64,1686.05 864.78,1693.94 857.26,1693.97 848.77,1682.15 842.17,1676.25 833.7,1670.36 827.12,1668.4 812.05,1654.62 805.48,1654.64 802.67,1660.56 807.38,1664.5 814.92,1676.32 829.04,1686.15 833.73,1684.17 838.45,1690.07 842.21,1692.04 842.23,1699.93 831.9,1703.9 830.04,1709.82 836.62,1711.78 844.14,1709.79 853.55,1711.73 848.86,1715.69 849.81,1717.66 860.16,1719.6 869.57,1723.52 873.33,1721.54 880.86,1725.46 891.21,1725.42 895.91,1723.43 902.54,1737.22 899.73,1741.18 901.65,1751.03 906.38,1758.91 912.04,1762.83 912.06,1766.78 903.58,1764.84 895.12,1766.84 888.52,1764.89 876.29,1764.93 873.48,1768.88 876.33,1778.74 882.93,1782.66 891.41,1784.61 896.15,1792.48 900.87,1796.41 905.56,1792.45 910.28,1794.4 917.81,1792.4 929.1,1792.36 931.03,1802.21 928.22,1806.17 924.45,1806.19 917.87,1808.18 917.88,1812.13 911.29,1812.15 911.3,1814.13 900.93,1812.19 898.12,1818.12 893.4,1814.19 893.42,1820.11 885.9,1824.08 881.21,1831.99 880.28,1835.94 874.64,1839.9 858.62,1837.98 849.18,1832.08 836.93,1830.14 835.99,1832.12 826.56,1830.17 821.86,1834.13 839.78,1840 857.73,1857.71 862.45,1859.67 863.46,1881.36 860.65,1887.29 868.19,1887.27 871.01,1883.31 872.85,1869.5 875.66,1863.57 879.42,1861.59 887.9,1859.59 891.67,1857.6 898.26,1855.6 905.78,1851.63 913.32,1851.6 918.99,1855.53 921.87,1867.35 917.16,1869.34 913.43,1879.22 914.41,1891.05 916.31,1893.02 925.72,1887.07 934.2,1885.06 937.96,1883.07 946.52,1900.79 941.83,1906.73 944.7,1916.58 944.72,1920.52 940.01,1922.52 942.88,1930.4 953.27,1934.3 956.14,1942.18 961.86,1953.99 960.93,1957.94 961.9,1963.85 960.99,1969.77 961.96,1975.69 957.25,1979.65 957.29,1987.54 951.6,1983.62 945,1985.63 938.37,1981.71 931.74,1975.82 927.97,1977.81 921.32,1967.97 910.91,1962.09 908.08,1964.07 900.5,1956.21 894.84,1956.23 890.11,1954.27 878.74,1942.47 875.87,1928.67 875.85,1922.75 871.12,1918.82 870.16,1912.91 866.38,1910.95 853.13,1897.18 847.45,1889.3 845.57,1891.28 837.07,1885.38 835.16,1877.5 830.44,1875.53 828.56,1877.51 821,1871.61 818.17,1867.67 814.4,1867.68 809.67,1863.75 806.83,1857.83 810.6,1855.85 810.59,1849.93 803.98,1846 798.33,1847.99 792.67,1844.05 787.95,1842.09 782.29,1834.2 775.68,1828.3 773.79,1820.41 778.49,1818.43 770.01,1814.5 770.94,1806.6 772.82,1802.66 768.1,1798.72 769.98,1794.77 765.27,1792.8 765.27,1788.86 759.61,1786.89 758.67,1784.92 750.19,1780.98 753.95,1777.03 751.12,1773.09 749.23,1765.2 747.35,1763.23 750.16,1751.39 755.79,1743.49 753.91,1737.58 755.78,1731.66 765.19,1731.65 764.24,1725.73 760.48,1725.73 756.7,1715.87 748.23,1709.97 742.59,1709.97 744.47,1706.02 728.48,1698.15 732.23,1690.25 727.53,1686.31 730.34,1680.39 727.52,1676.45 720,1676.45 716.24,1674.48 711.53,1654.76 708.71,1648.84 692.74,1635.04 684.29,1631.09 679.59,1621.23 673.96,1619.26 677.71,1611.36 676.78,1607.42 684.29,1599.53 684.28,1595.58 678.65,1595.58 673.02,1589.66 670.21,1589.66 665.52,1587.69 664.58,1583.74 657.07,1577.82 658.95,1573.88 663.64,1567.96 663.65,1565.99 673.03,1565.99 672.09,1560.07 668.34,1556.13 664.59,1548.23 658.02,1546.26 657.09,1542.31 658.97,1538.37 654.28,1534.42 651.47,1534.42" fill="none" stroke="#1e1e1e" stroke-width="2.19" stroke-linecap="round" stroke-linejoin="round"/>
<path d="M921.38,1506.33L927.94,1504.33L933.58,1510.23L935.49,1518.11L931.76,1522.07L922.38,1520.14L920.51,1522.12L912.06,1518.21L912.98,1514.26L921.4,1510.28L921.38,1506.33Z" fill-rule="evenodd" fill="#4682b4" fill-opacity="0.471"/>
<polyline points="921.38,1506.33 927.94,1504.33 933.58,1510.23 935.49,1518.11 931.76,1522.07 922.38,1520.14 920.51,1522.12 912.06,1518.21 912.98,1514.26 921.4,1510.28 921.38,1506.33" fill="none" stroke="#1e1e1e" stroke-width="2.19" stroke-linecap="round" stroke-linejoin="round"/>
<path d="M898.56,1413.7L894.83,1417.66L881.72,1413.76L877.99,1417.72L874.24,1417.73L871.4,1405.9L873.26,1403.92L870.41,1390.12L868.54,1388.15L873.19,1380.25L870.36,1374.34L873.16,1370.38L886.28,1378.23L890.99,1388.08L889.13,1392.03L891.02,1397.94L896.67,1407.79L898.56,1413.7Z" fill-rule="evenodd" fill="#4682b4" fill-opacity="0.471"/>
<polyline points="898.56,1413.7 894.83,1417.66 881.72,1413.76 877.99,1417.72 874.24,1417.73 871.4,1405.9 873.26,1403.92 870.41,1390.12 868.54,1388.15 873.19,1380.25 870.36,1374.34 873.16,1370.38 886.28,1378.23 890.99,1388.08 889.13,1392.03 891.02,1397.94 896.67,1407.79 898.56,1413.7" fill="none" stroke="#1e1e1e" stroke-width="2.19" stroke-linecap="round" stroke-linejoin="round"/>
<path d="M836.36,1242.26L838.24,1248.17L841.99,1254.08L842.95,1261.97L844.82,1263.94L848.59,1279.71L847.68,1285.63L833.68,1287.64L826.21,1289.63L823.4,1287.67L815.93,1287.68L814.05,1281.77L805.63,1271.92L798.15,1267.99L796.28,1262.08L789.74,1260.12L788.79,1254.2L785.05,1248.29L786.91,1246.31L784.1,1238.43L788.75,1230.53L787.81,1224.61L791.53,1218.69L787.79,1216.72L788.72,1210.8L791.51,1210.8L798.05,1216.7L803.65,1218.66L812.98,1216.67L819.51,1218.63L831.66,1226.49L836.36,1242.26Z" fill-rule="evenodd" fill="#4682b4" fill-opacity="0.471"/>
<polyline points="836.36,1242.26 838.24,1248.17 841.99,1254.08 842.95,1261.97 844.82,1263.94 848.59,1279.71 847.68,1285.63 833.68,1287.64 826.21,1289.63 823.4,1287.67 815.93,1287.68 814.05,1281.77 805.63,1271.92 798.15,1267.99 796.28,1262.08 789.74,1260.12 788.79,1254.2 785.05,1248.29 786.91,1246.31 784.1,1238.43 788.75,1230.53 787.81,1224.61 791.53,1218.69 787.79,1216.72 788.72,1210.8 791.51,1210.8 798.05,1216.7 803.65,1218.66 812.98,1216.67 819.51,1218.63 831.66,1226.49 836.36,1242.26" fill="none" stroke="#1e1e1e" stroke-width="2.19" stroke-linecap="round" stroke-linejoin="round"/>
<path d="M845.08,1015.37L849.76,1027.2L853.49,1031.13L861.86,1033.08L867.45,1037.01L876.77,1040.92L879.56,1042.89L887.93,1042.86L892.59,1044.82L896.34,1052.69L912.17,1058.55L914.97,1060.52L923.34,1058.51L933.58,1060.44L934.53,1066.35L947.61,1078.13L946.7,1082.08L948.59,1089.97L954.23,1101.78L968.28,1119.47L982.25,1119.4L985.06,1123.33L987.84,1121.34L994.37,1123.28L992.55,1131.18L989.78,1135.14L984.21,1139.12L980.51,1145.05L962.88,1158.95L955.46,1166.87L959.21,1172.78L967.6,1172.74L969.47,1174.7L973.27,1188.49L972.35,1190.47L974.25,1198.35L972.42,1206.25L966.84,1208.25L962.2,1214.19L956.61,1216.19L956.62,1218.16L966.95,1231.92L966.98,1237.84L969.86,1255.58L967.06,1255.59L967.1,1263.49L958.71,1267.47L954.09,1277.35L942.88,1275.43L941.92,1269.52L929.74,1259.7L929.7,1249.84L927.82,1245.9L921.27,1241.98L915.68,1243.98L907.22,1228.23L901.61,1224.3L895.03,1210.52L892.21,1202.64L883.78,1192.8L880.95,1182.95L881.87,1179L879.98,1169.14L878.1,1165.2L877.14,1155.34L874.33,1151.41L872.43,1141.55L865.88,1129.73L859.34,1123.83L835.09,1110.09L828.59,1116.02L830.48,1129.83L833.29,1135.74L823.97,1133.79L821.18,1131.82L818.36,1123.94L810.89,1114.09L804.38,1118.05L793.21,1118.07L785.77,1125.98L779.25,1124.02L771.81,1133.89L772.76,1145.73L767.18,1147.71L766.24,1141.79L758.77,1131.94L757.83,1126.02L751.31,1122.08L748.51,1118.14L748.51,1114.19L744.78,1108.28L745.7,1100.39L750.35,1098.41L750.34,1092.49L745.68,1086.58L738.23,1074.75L738.22,1062.91L733.56,1057L734.48,1045.16L731.69,1045.17L732.61,1039.25L726.1,1033.33L727.03,1031.36L727.02,1025.44L728.88,1017.55L725.15,1005.72L720.5,995.86L713.99,987.97L712.13,987.97L707.48,976.13L698.18,968.25L696.33,964.3L701.9,960.36L709.33,962.32L712.12,966.27L715.83,964.29L729.77,972.18L736.27,970.2L745.56,972.16L755.78,972.15L759.5,974.12L763.22,980.03L767.87,982L769.74,987.91L774.38,987.9L778.11,993.82L782.76,993.81L795.76,989.84L801.34,993.78L813.42,991.78L821.78,991.76L829.22,995.69L833.89,1003.57L843.2,1009.46L845.08,1015.37Z" fill-rule="evenodd" fill="#4682b4" fill-opacity="0.471"/>
<polyline points="845.08,1015.37 849.76,1027.2 853.49,1031.13 861.86,1033.08 867.45,1037.01 876.77,1040.92 879.56,1042.89 887.93,1042.86 892.59,1044.82 896.34,1052.69 912.17,1058.55 914.97,1060.52 923.34,1058.51 933.58,1060.44 934.53,1066.35 947.61,1078.13 946.7,1082.08 948.59,1089.97 954.23,1101.78 968.28,1119.47 982.25,1119.4 985.06,1123.33 987.84,1121.34 994.37,1123.28 992.55,1131.18 989.78,1135.14 984.21,1139.12 980.51,1145.05 962.88,1158.95 955.46,1166.87 959.21,1172.78 967.6,1172.74 969.47,1174.7 973.27,1188.49 972.35,1190.47 974.25,1198.35 972.42,1206.25 966.84,1208.25 962.2,1214.19 956.61,1216.19 956.62,1218.16 966.95,1231.92 966.98,1237.84 969.86,1255.58 967.06,1255.59 967.1,1263.49 958.71,1267.47 954.09,1277.35 942.88,1275.43 941.92,1269.52 929.74,1259.7 929.7,1249.84 927.82,1245.9 921.27,1241.98 915.68,1243.98 907.22,1228.23 901.61,1224.3 895.03,1210.52 892.21,1202.64 883.78,1192.8 880.95,1182.95 881.87,1179 879.98,1169.14 878.1,1165.2 877.14,1155.34 874.33,1151.41 872.43,1141.55 865.88,1129.73 859.34,1123.83 835.09,1110.09 828.59,1116.02 830.48,1129.83 833.29,1135.74 823.97,1133.79 821.18,1131.82 818.36,1123.94 810.89,1114.09 804.38,1118.05 793.21,1118.07 785.77,1125.98 779.25,1124.02 771.81,1133.89 772.76,1145.73 767.18,1147.71 766.24,1141.79 758.77,1131.94 757.83,1126.02 751.31,1122.08 748.51,1118.14 748.51,1114.19 744.78,1108.28 745.7,1100.39 750.35,1098.41 750.34,1092.49 745.68,1086.58 738.23,1074.75 738.22,1062.91 733.56,1057 734.48,1045.16 731.69,1045.17 732.61,1039.25 726.1,1033.33 727.03,1031.36 727.02,1025.44 728.88,1017.55 725.15,1005.72 720.5,995.86 713.99,987.97 712.13,987.97 707.48,976.13 698.18,968.25 696.33,964.3 701.9,960.36 709.33,962.32 712.12,966.27 715.83,964.29 729.77,972.18 736.27,970.2 745.56,972.16 755.78,972.15 759.5,974.12 763.22,980.03 767.87,982 769.74,987.91 774.38,987.9 778.11,993.82 782.76,993.81 795.76,989.84 801.34,993.78 813.42,991.78 821.78,991.76 829.22,995.69 833.89,1003.57 843.2,1009.46 845.08,1015.37" fill="none" stroke="#1e1e1e" stroke-width="2.19" stroke-linecap="round" stroke-linejoin="round"/>
<path d="M687.04,948.52L692.61,950.49L697.25,958.38L692.61,958.38L688.89,954.44L687.04,948.52Z" fill-rule="evenodd" fill="#4682b4" fill-opacity="0.471"/>
<polyline points="687.04,948.52 692.61,950.49 697.25,958.38 692.61,958.38 688.89,954.44 687.04,948.52" fill="none" stroke="#1e1e1e" stroke-width="2.19" stroke-linecap="round" stroke-linejoin="round"/>
<path d="M31.63,587.94L38.11,586.04L40.82,591.98L31.54,595.83L26.88,599.73L23.19,599.68L23.26,593.77L31.63,587.94Z" fill-rule="evenodd" fill="#4682b4" fill-opacity="0.471"/>
<polyline points="31.63,587.94 38.11,586.04 40.82,591.98 31.54,595.83 26.88,599.73 23.19,599.68 23.26,593.77 31.63,587.94" fill="none" stroke="#1e1e1e" stroke-width="2.19" stroke-linecap="round" stroke-linejoin="round"/>
<path d="M163.5,603.03L158.85,606.94L156.12,602.97L149.65,602.91L141.31,606.78L137.65,602.8L129.34,602.73L126.61,598.76L122.9,600.7L119.26,594.74L114.64,594.7L107.24,596.6L102.59,600.5L102.64,594.59L95.2,600.43L95.24,596.49L91.57,594.48L84.16,596.38L77.66,600.26L71.28,592.3L68.49,594.25L64.84,590.26L60.2,592.19L53.76,590.15L52.88,586.19L47.34,586.13L43.61,590.04L39.98,584.08L47.38,582.19L59.46,574.42L65,574.48L80.82,560.83L84.5,562.84L91.88,562.91L92.84,558.98L103.01,557.1L118.65,561.2L119.52,567.13L122.27,569.12L129.65,569.19L135.11,577.13L139.73,577.18L147.96,585.14L147.91,591.06L161.72,595.13L163.5,603.03Z" fill-rule="evenodd" fill="#4682b4" fill-opacity="0.471"/>
<polyline points="163.5,603.03 158.85,606.94 156.12,602.97 149.65,602.91 141.31,606.78 137.65,602.8 129.34,602.73 126.61,598.76 122.9,600.7 119.26,594.74 114.64,594.7 107.24,596.6 102.59,600.5 102.64,594.59 95.2,600.43 95.24,596.49 91.57,594.48 84.16,596.38 77.66,600.26 71.28,592.3 68.49,594.25 64.84,590.26 60.2,592.19 53.76,590.15 52.88,586.19 47.34,586.13 43.61,590.04 39.98,584.08 47.38,582.19 59.46,574.42 65,574.48 80.82,560.83 84.5,562.84 91.88,562.91 92.84,558.98 103.01,557.1 118.65,561.2 119.52,567.13 122.27,569.12 129.65,569.19 135.11,577.13 139.73,577.18 147.96,585.14 147.91,591.06 161.72,595.13 163.5,603.03" fill="none" stroke="#1e1e1e" stroke-width="2.19" stroke-linecap="round" stroke-linejoin="round"/>
<path d="M1231.08,231.85L1234.73,229.84L1235.56,219.97L1240.07,212.04L1243.7,208.06L1244.56,202.13L1248.2,198.15L1249.97,192.21L1257.25,186.22L1260.9,184.22L1270.07,184.13L1273.77,188.03L1277.52,195.89L1284,201.74L1295.94,203.59L1299.63,205.53L1305.22,213.36L1307.11,219.26L1307.15,223.21L1309.07,231.08L1303.67,241L1297.23,239.09L1288.91,233.26L1264.15,235.48L1258.68,239.48L1259.68,247.36L1268.91,253.19L1272.65,259.07L1282.8,264.89L1279.23,274.79L1275.6,278.77L1276.61,288.62L1275.75,294.55L1273.04,298.52L1276.75,302.43L1274.03,306.4L1268.56,310.4L1254.84,316.46L1247.5,318.5L1239.27,322.52L1222.78,328.59L1216.32,324.71L1211.51,301.07L1213.28,293.17L1212.32,289.23L1203.9,271.55L1195.54,259.78L1189.06,253.92L1189.94,249.97L1195.4,244L1196.27,238.08L1201.74,234.08L1210.88,230.06L1231.08,231.85Z" fill-rule="evenodd" fill="#4682b4" fill-opacity="0.471"/>
<polyline points="1231.08,231.85 1234.73,229.84 1235.56,219.97 1240.07,212.04 1243.7,208.06 1244.56,202.13 1248.2,198.15 1249.97,192.21 1257.25,186.22 1260.9,184.22 1270.07,184.13 1273.77,188.03 1277.52,195.89 1284,201.74 1295.94,203.59 1299.63,205.53 1305.22,213.36 1307.11,219.26 1307.15,223.21 1309.07,231.08 1303.67,241 1297.23,239.09 1288.91,233.26 1264.15,235.48 1258.68,239.48 1259.68,247.36 1268.91,253.19 1272.65,259.07 1282.8,264.89 1279.23,274.79 1275.6,278.77 1276.61,288.62 1275.75,294.55 1273.04,298.52 1276.75,302.43 1274.03,306.4 1268.56,310.4 1254.84,316.46 1247.5,318.5 1239.27,322.52 1222.78,328.59 1216.32,324.71 1211.51,301.07 1213.28,293.17 1212.32,289.23 1203.9,271.55 1195.54,259.78 1189.06,253.92 1189.94,249.97 1195.4,244 1196.27,238.08 1201.74,234.08 1210.88,230.06 1231.08,231.85" fill="none" stroke="#1e1e1e" stroke-width="2.19" stroke-linecap="round" stroke-linejoin="round"/>
<path d="M877.73,206.44L874.04,200.54L863.93,192.68L852.86,171.01L852.86,169.04L846.39,151.3L840.88,145.4L838.1,133.57L834.41,123.71L832.54,109.91L827.95,104L827.02,98.08L827.92,92.16L826.08,90.2L821.48,76.4L822.38,70.48L824.2,66.53L823.26,58.64L827.83,54.68L835.15,56.63L838.83,62.54L858.1,84.19L857.22,96.03L861.81,97.99L867.36,115.73L870.16,133.47L876.6,141.34L877.54,149.23L881.23,157.11L888.6,168.92L890.49,182.72L894.16,184.68L901.55,200.44L906.16,206.34L910.78,216.19L915.39,220.12L930.17,245.7L931.16,261.48L933.02,267.39L939.48,275.25L947.8,289.03L954.25,292.94L966.28,312.62L966.42,340.23L964.6,344.19L959.1,348.16L948.07,348.21L937.94,344.31L926.86,332.52L914.88,324.68L911.18,318.77L911.14,308.91L914.72,283.25L914.66,267.47L911.88,261.56L901.73,247.79L894.36,239.92L880.51,214.32L877.73,206.44Z" fill-rule="evenodd" fill="#4682b4" fill-opacity="0.471"/>
<polyline points="877.73,206.44 874.04,200.54 863.93,192.68 852.86,171.01 852.86,169.04 846.39,151.3 840.88,145.4 838.1,133.57 834.41,123.71 832.54,109.91 827.95,104 827.02,98.08 827.92,92.16 826.08,90.2 821.48,76.4 822.38,70.48 824.2,66.53 823.26,58.64 827.83,54.68 835.15,56.63 838.83,62.54 858.1,84.19 857.22,96.03 861.81,97.99 867.36,115.73 870.16,133.47 876.6,141.34 877.54,149.23 881.23,157.11 888.6,168.92 890.49,182.72 894.16,184.68 901.55,200.44 906.16,206.34 910.78,216.19 915.39,220.12 930.17,245.7 931.16,261.48 933.02,267.39 939.48,275.25 947.8,289.03 954.25,292.94 966.28,312.62 966.42,340.23 964.6,344.19 959.1,348.16 948.07,348.21 937.94,344.31 926.86,332.52 914.88,324.68 911.18,318.77 911.14,308.91 914.72,283.25 914.66,267.47 911.88,261.56 901.73,247.79 894.36,239.92 880.51,214.32 877.73,206.44" fill="none" stroke="#1e1e1e" stroke-width="2.19" stroke-linecap="round" stroke-linejoin="round"/>
<path d="M1087.63,321.78L1095.05,331.59L1096,335.53L1108.99,353.19L1114.52,355.12L1123.76,360.98L1127.48,366.87L1144.97,368.71L1151.43,370.63L1156.97,374.53L1160.75,386.34L1158.05,394.25L1154.42,400.2L1153.55,406.12L1157.29,413.98L1164.68,417.87L1166.57,423.77L1162.95,431.69L1152.89,439.67L1141.81,435.81L1129.86,437.87L1113.25,434.05L1110.48,432.09L1106.74,424.23L1100.24,416.38L1097.48,416.4L1091.9,408.55L1084.49,400.71L1073.29,377.11L1070.47,367.26L1057.48,349.59L1050.1,345.69L1046.44,347.69L1045.57,355.59L1055.84,381.17L1063.29,394.93L1062.37,394.94L1064.28,406.76L1067.12,418.58L1071.79,428.41L1079.2,436.26L1081.11,446.11L1080.24,454L1076.59,457.97L1068.3,458.03L1063.68,456.08L1055.27,436.41L1050.63,430.52L1040.44,420.72L1035.8,414.83L1027.44,401.07L1019.05,381.39L1013.48,373.53L1003.3,361.75L999.58,353.88L999.55,347.96L993.91,324.31L994.8,318.39L996.62,314.44L1001.2,312.44L1013.16,316.32L1020.54,320.22L1023.33,326.12L1024.29,334.01L1028.91,337.93L1033.52,339.88L1027.95,330.04L1026.05,320.19L1026.92,312.29L1033.29,300.42L1038.71,286.58L1034.94,268.85L1027.55,261L1023.79,247.21L1027.4,235.35L1025.5,225.5L1025.46,217.61L1027.25,209.71L1028.08,195.89L1025.24,180.13L1017.81,162.41L1013.18,154.55L1003.95,142.76L1002.9,117.12L1004.7,111.19L1008.25,91.44L1011.86,81.56L1016.42,79.56L1022.83,79.53L1032.92,83.41L1035.68,85.37L1038.46,91.27L1037.59,99.17L1040.46,118.88L1044.19,130.69L1049.75,140.52L1059,154.27L1068.28,171.97L1072.9,177.86L1079.41,191.62L1083.99,191.59L1088.65,201.43L1089.63,211.28L1088.78,221.15L1085.15,227.1L1094.39,236.9L1098.11,242.79L1104.56,246.69L1117.45,252.52L1124.84,258.38L1133.1,258.32L1140.49,264.18L1146,264.14L1152.45,268.03L1158.96,277.84L1166.32,279.76L1171.83,279.71L1177.36,281.64L1181.08,287.53L1182.06,295.41L1172.2,325.09L1160.29,329.13L1153.89,333.12L1146.53,333.18L1138.29,337.19L1122.61,329.42L1106.9,317.7L1101.35,311.82L1091.1,292.16L1080.04,286.32L1077.3,288.31L1081.05,300.12L1083.9,313.91L1087.63,321.78Z" fill-rule="evenodd" fill="#4682b4" fill-opacity="0.471"/>
<polyline points="1087.63,321.78 1095.05,331.59 1096,335.53 1108.99,353.19 1114.52,355.12 1123.76,360.98 1127.48,366.87 1144.97,368.71 1151.43,370.63 1156.97,374.53 1160.75,386.34 1158.05,394.25 1154.42,400.2 1153.55,406.12 1157.29,413.98 1164.68,417.87 1166.57,423.77 1162.95,431.69 1152.89,439.67 1141.81,435.81 1129.86,437.87 1113.25,434.05 1110.48,432.09 1106.74,424.23 1100.24,416.38 1097.48,416.4 1091.9,408.55 1084.49,400.71 1073.29,377.11 1070.47,367.26 1057.48,349.59 1050.1,345.69 1046.44,347.69 1045.57,355.59 1055.84,381.17 1063.29,394.93 1062.37,394.94 1064.28,406.76 1067.12,418.58 1071.79,428.41 1079.2,436.26 1081.11,446.11 1080.24,454 1076.59,457.97 1068.3,458.03 1063.68,456.08 1055.27,436.41 1050.63,430.52 1040.44,420.72 1035.8,414.83 1027.44,401.07 1019.05,381.39 1013.48,373.53 1003.3,361.75 999.58,353.88 999.55,347.96 993.91,324.31 994.8,318.39 996.62,314.44 1001.2,312.44 1013.16,316.32 1020.54,320.22 1023.33,326.12 1024.29,334.01 1028.91,337.93 1033.52,339.88 1027.95,330.04 1026.05,320.19 1026.92,312.29 1033.29,300.42 1038.71,286.58 1034.94,268.85 1027.55,261 1023.79,247.21 1027.4,235.35 1025.5,225.5 1025.46,217.61 1027.25,209.71 1028.08,195.89 1025.24,180.13 1017.81,162.41 1013.18,154.55 1003.95,142.76 1002.9,117.12 1004.7,111.19 1008.25,91.44 1011.86,81.56 1016.42,79.56 1022.83,79.53 1032.92,83.41 1035.68,85.37 1038.46,91.27 1037.59,99.17 1040.46,118.88 1044.19,130.69 1049.75,140.52 1059,154.27 1068.28,171.97 1072.9,177.86 1079.41,191.62 1083.99,191.59 1088.65,201.43 1089.63,211.28 1088.78,221.15 1085.15,227.1 1094.39,236.9 1098.11,242.79 1104.56,246.69 1117.45,252.52 1124.84,258.38 1133.1,258.32 1140.49,264.18 1146,264.14 1152.45,268.03 1158.96,277.84 1166.32,279.76 1171.83,279.71 1177.36,281.64 1181.08,287.53 1182.06,295.41 1172.2,325.09 1160.29,329.13 1153.89,333.12 1146.53,333.18 1138.29,337.19 1122.61,329.42 1106.9,317.7 1101.35,311.82 1091.1,292.16 1080.04,286.32 1077.3,288.31 1081.05,300.12 1083.9,313.91 1087.63,321.78" fill="none" stroke="#1e1e1e" stroke-width="2.19" stroke-linecap="round" stroke-linejoin="round"/>
<path d="M1006.63,296.63L987.3,288.84L981.76,282.95L978.97,277.04L967.89,265.26L965.12,261.33L965.08,253.44L963.2,243.58L960.42,237.68L953.89,214.03L937.28,192.41L934.51,186.5L927.98,158.91L927.03,151.02L919.63,133.3L919.6,127.38L923.2,111.58L922.26,105.67L924.08,103.68L921.31,95.8L922.19,87.91L927.6,68.16L933.07,64.19L944.07,68.09L944.99,70.06L956.94,79.87L956.02,79.87L958.8,87.75L961.55,87.74L961.6,97.6L964.38,105.48L960.77,117.33L964.46,123.23L965.42,131.12L971.86,137.01L973.74,146.86L976.5,148.82L979.31,160.65L992.2,172.42L1004.21,190.11L1008.88,205.86L1008.96,219.67L1013.62,233.46L1015.56,251.2L1021.11,259.06L1023.99,280.75L1022.21,290.62L1019.47,294.58L1012.14,296.6L1006.63,296.63Z" fill-rule="evenodd" fill="#4682b4" fill-opacity="0.471"/>
<polyline points="1006.63,296.63 987.3,288.84 981.76,282.95 978.97,277.04 967.89,265.26 965.12,261.33 965.08,253.44 963.2,243.58 960.42,237.68 953.89,214.03 937.28,192.41 934.51,186.5 927.98,158.91 927.03,151.02 919.63,133.3 919.6,127.38 923.2,111.58 922.26,105.67 924.08,103.68 921.31,95.8 922.19,87.91 927.6,68.16 933.07,64.19 944.07,68.09 944.99,70.06 956.94,79.87 956.02,79.87 958.8,87.75 961.55,87.74 961.6,97.6 964.38,105.48 960.77,117.33 964.46,123.23 965.42,131.12 971.86,137.01 973.74,146.86 976.5,148.82 979.31,160.65 992.2,172.42 1004.21,190.11 1008.88,205.86 1008.96,219.67 1013.62,233.46 1015.56,251.2 1021.11,259.06 1023.99,280.75 1022.21,290.62 1019.47,294.58 1012.14,296.6 1006.63,296.63" fill="none" stroke="#1e1e1e" stroke-width="2.19" stroke-linecap="round" stroke-linejoin="round"/>
<path d="M1294.9,102.99L1292.2,106.96L1306.95,116.67L1311.49,112.68L1317.88,110.64L1318.77,108.65L1326.07,106.6L1332.53,110.48L1333.51,116.39L1333.64,128.22L1330.04,134.18L1327.4,144.07L1319.09,138.24L1316.36,140.25L1315.51,146.17L1307.37,156.12L1300.97,158.16L1294.56,158.23L1293.66,160.21L1285.41,160.3L1285.45,164.24L1278.1,162.34L1276.23,158.42L1269.79,156.51L1266.05,148.65L1263.17,134.87L1263.07,125.01L1262.1,119.1L1268.27,95.36L1273.71,89.39L1282.84,87.33L1290.18,89.22L1296.69,99.02L1294.9,102.99Z" fill-rule="evenodd" fill="#4682b4" fill-opacity="0.471"/>
<polyline points="1294.9,102.99 1292.2,106.96 1306.95,116.67 1311.49,112.68 1317.88,110.64 1318.77,108.65 1326.07,106.6 1332.53,110.48 1333.51,116.39 1333.64,128.22 1330.04,134.18 1327.4,144.07 1319.09,138.24 1316.36,140.25 1315.51,146.17 1307.37,156.12 1300.97,158.16 1294.56,158.23 1293.66,160.21 1285.41,160.3 1285.45,164.24 1278.1,162.34 1276.23,158.42 1269.79,156.51 1266.05,148.65 1263.17,134.87 1263.07,125.01 1262.1,119.1 1268.27,95.36 1273.71,89.39 1282.84,87.33 1290.18,89.22 1296.69,99.02 1294.9,102.99" fill="none" stroke="#1e1e1e" stroke-width="2.19" stroke-linecap="round" stroke-linejoin="round"/>
<path d="M1077.34,156.13L1071.74,140.38L1068.95,134.48L1063.42,128.6L1060.62,120.73L1059.63,108.89L1060.5,102.97L1065.01,91.1L1069.56,87.13L1068.56,75.3L1057.51,63.53L1047.39,55.7L1039.14,51.81L1028.11,43.98L1023.47,32.17L1029.86,30.16L1032.56,22.26L1036.19,18.29L1038.95,20.25L1042.58,16.28L1049.88,14.26L1054.46,16.2L1066.36,18.1L1071.91,27.93L1076.51,31.84L1076.52,33.82L1084.78,37.71L1085.74,43.62L1092.19,51.47L1097.85,75.1L1098.83,84.96L1097.03,88.92L1097.06,92.86L1101.72,104.67L1107.28,114.49L1112.82,120.37L1112.83,122.34L1123.88,130.15L1132.2,139.95L1133.19,149.81L1132.35,159.68L1130.58,167.59L1134.33,179.4L1134.41,189.26L1137.2,195.16L1143.62,195.11L1149.05,185.2L1151.72,175.31L1152.56,165.44L1154.36,161.48L1164.43,159.43L1177.37,173.13L1181.99,177.04L1186.59,178.97L1194.89,184.82L1197.67,188.74L1197.74,196.63L1179.58,218.49L1174.11,222.48L1174.16,228.4L1176.06,236.28L1176.09,240.22L1171.52,242.23L1160.49,240.35L1123.68,226.82L1115.41,224.91L1101.61,219.09L1093.31,213.23L1094.2,209.28L1087.66,191.57L1084.82,177.78L1077.34,156.13Z" fill-rule="evenodd" fill="#4682b4" fill-opacity="0.471"/>
<polyline points="1077.34,156.13 1071.74,140.38 1068.95,134.48 1063.42,128.6 1060.62,120.73 1059.63,108.89 1060.5,102.97 1065.01,91.1 1069.56,87.13 1068.56,75.3 1057.51,63.53 1047.39,55.7 1039.14,51.81 1028.11,43.98 1023.47,32.17 1029.86,30.16 1032.56,22.26 1036.19,18.29 1038.95,20.25 1042.58,16.28 1049.88,14.26 1054.46,16.2 1066.36,18.1 1071.91,27.93 1076.51,31.84 1076.52,33.82 1084.78,37.71 1085.74,43.62 1092.19,51.47 1097.85,75.1 1098.83,84.96 1097.03,88.92 1097.06,92.86 1101.72,104.67 1107.28,114.49 1112.82,120.37 1112.83,122.34 1123.88,130.15 1132.2,139.95 1133.19,149.81 1132.35,159.68 1130.58,167.59 1134.33,179.4 1134.41,189.26 1137.2,195.16 1143.62,195.11 1149.05,185.2 1151.72,175.31 1152.56,165.44 1154.36,161.48 1164.43,159.43 1177.37,173.13 1181.99,177.04 1186.59,178.97 1194.89,184.82 1197.67,188.74 1197.74,196.63 1179.58,218.49 1174.11,222.48 1174.16,228.4 1176.06,236.28 1176.09,240.22 1171.52,242.23 1160.49,240.35 1123.68,226.82 1115.41,224.91 1101.61,219.09 1093.31,213.23 1094.2,209.28 1087.66,191.57 1084.82,177.78 1077.34,156.13" fill="none" stroke="#1e1e1e" stroke-width="2.19" stroke-linecap="round" stroke-linejoin="round"/>
<path d="M955.59,788.1L954.64,782.19L957.38,774.29L952.75,774.31L949.03,770.38L948.07,762.49L944.35,758.56L939.67,746.75L946.16,748.69L952.66,754.58L961.95,760.46L961.05,766.38L958.31,774.28L961.1,778.21L962.06,784.13L965.77,786.08L973.23,795.91L984.37,801.77L985.34,809.66L988.15,815.57L994.64,817.5L994.71,831.31L995.68,839.2L1000.36,847.07L1005.94,850.98L1012.53,868.7L1010.71,874.63L1005.16,878.6L1002.42,886.51L995.93,886.54L989.46,890.52L986.64,884.62L987.52,874.75L986.56,868.84L980.94,857.03L977.21,853.1L973.49,851.15L969.74,841.3L959.51,833.46L953.92,827.57L953.86,813.76L955.66,803.89L955.59,788.1Z" fill-rule="evenodd" fill="#4682b4" fill-opacity="0.471"/>
<polyline points="955.59,788.1 954.64,782.19 957.38,774.29 952.75,774.31 949.03,770.38 948.07,762.49 944.35,758.56 939.67,746.75 946.16,748.69 952.66,754.58 961.95,760.46 961.05,766.38 958.31,774.28 961.1,778.21 962.06,784.13 965.77,786.08 973.23,795.91 984.37,801.77 985.34,809.66 988.15,815.57 994.64,817.5 994.71,831.31 995.68,839.2 1000.36,847.07 1005.94,850.98 1012.53,868.7 1010.71,874.63 1005.16,878.6 1002.42,886.51 995.93,886.54 989.46,890.52 986.64,884.62 987.52,874.75 986.56,868.84 980.94,857.03 977.21,853.1 973.49,851.15 969.74,841.3 959.51,833.46 953.92,827.57 953.86,813.76 955.66,803.89 955.59,788.1" fill="none" stroke="#1e1e1e" stroke-width="2.19" stroke-linecap="round" stroke-linejoin="round"/>
<path d="M651.82,808.45L649.97,804.5L646.26,800.56L644.41,794.64L646.27,790.69L661.09,794.65L671.27,800.57L679.61,806.49L682.39,812.4L682.39,816.35L687.95,820.29L688.88,824.24L691.66,826.21L694.44,838.05L692.59,838.05L677.76,820.29L663.86,812.4L651.82,808.45Z" fill-rule="evenodd" fill="#4682b4" fill-opacity="0.471"/>
<polyline points="651.82,808.45 649.97,804.5 646.26,800.56 644.41,794.64 646.27,790.69 661.09,794.65 671.27,800.57 679.61,806.49 682.39,812.4 682.39,816.35 687.95,820.29 688.88,824.24 691.66,826.21 694.44,838.05 692.59,838.05 677.76,820.29 663.86,812.4 651.82,808.45" fill="none" stroke="#1e1e1e" stroke-width="2.19" stroke-linecap="round" stroke-linejoin="round"/>
<path d="M244.55,631.3L253.8,629.39L257.47,633.36L262.1,631.42L263.92,635.38L262.04,639.31L241.72,639.17L238.93,641.12L236.21,635.18L244.55,631.3Z" fill-rule="evenodd" fill="#4682b4" fill-opacity="0.471"/>
<polyline points="244.55,631.3 253.8,629.39 257.47,633.36 262.1,631.42 263.92,635.38 262.04,639.31 241.72,639.17 238.93,641.12 236.21,635.18 244.55,631.3" fill="none" stroke="#1e1e1e" stroke-width="2.19" stroke-linecap="round" stroke-linejoin="round"/>
<path d="M716.69,849.87L734.31,849.86L746.37,857.74L755.65,871.54L763.08,877.45L776.11,907.02L780.76,912.93L781.7,916.87L779.85,920.82L774.29,924.78L766.85,918.87L763.14,916.9L754.77,909.02L751.98,905.08L751.98,899.16L743.62,895.23L735.26,881.42L727.83,871.57L720.41,865.65L716.7,865.66L713.92,859.74L714.84,851.85L716.69,849.87Z" fill-rule="evenodd" fill="#4682b4" fill-opacity="0.471"/>
<polyline points="716.69,849.87 734.31,849.86 746.37,857.74 755.65,871.54 763.08,877.45 776.11,907.02 780.76,912.93 781.7,916.87 779.85,920.82 774.29,924.78 766.85,918.87 763.14,916.9 754.77,909.02 751.98,905.08 751.98,899.16 743.62,895.23 735.26,881.42 727.83,871.57 720.41,865.65 716.7,865.66 713.92,859.74 714.84,851.85 716.69,849.87" fill="none" stroke="#1e1e1e" stroke-width="2.19" stroke-linecap="round" stroke-linejoin="round"/>
<path d="M270.32,645.29L274.04,641.37L277.72,643.37L283.26,643.4L289.76,639.5L293.49,633.61L309.17,637.65L318.35,647.57L322.97,647.6L330.39,641.72L339.63,641.78L347,645.76L354.36,651.72L361.75,651.76L365.46,649.81L362.71,645.85L347.98,635.91L336.91,633.87L333.23,629.9L318.47,627.84L310.2,619.9L298.19,621.8L290.81,619.78L286.23,613.83L280.7,611.82L279.81,607.87L269.65,607.8L258.61,601.81L254.07,591.91L255,589.94L249.52,582.01L251.4,578.08L247.73,574.11L244.04,574.08L243.16,568.16L233.98,562.17L227.58,554.23L227.64,546.34L230.47,538.47L227.73,534.5L228.7,528.59L224.15,520.67L224.18,516.72L228.85,508.87L236.25,504.98L239.01,505L243.65,501.08L249.17,503.1L252.81,509.04L261.11,509.1L268.42,519.02L273.01,521.02L281.31,521.08L284.91,534.91L291.34,538.9L297.79,538.94L306.12,535.05L315.3,541.02L325.42,545.03L329.13,543.08L333.76,539.16L333.79,533.24L336.6,527.34L336.62,523.39L339.4,521.44L339.43,515.52L336.69,511.56L339.49,505.65L350.54,507.69L364.38,503.82L365.32,501.85L379.18,494.03L385.63,494.06L396.72,488.2L404.1,486.26L413.35,478.41L420.74,474.5L425.34,474.52L430.86,478.49L427.09,496.23L431.66,506.11L439,514.03L450.97,518.02L455.56,523.96L466.62,525.97L474.9,529.95L485,543.79L488.67,551.69L489.58,555.64L493.25,561.57L501.53,569.49L506.12,575.42L525.47,589.28L536.54,591.28L545.76,595.25L557.76,595.27L571.6,597.27L584.52,605.19L593.72,624.93L597.4,638.74L594.62,644.66L589.07,648.6L580.73,658.45L578.88,664.36L578.86,672.25L579.78,676.2L578.83,691.98L576.97,695.92L572.34,699.86L555.7,697.85L535.34,703.73L527.02,703.71L515.02,695.78L513.17,693.8L512.27,685.91L510.43,683.93L505.79,687.87L503.92,697.72L498.36,699.68L480.81,695.68L478.94,699.62L500.18,709.55L510.34,715.5L517.72,723.41L501.97,731.25L493.64,731.23L477.88,739.07L464.89,748.89L454.71,748.85L446.4,744.87L440.85,744.85L440.82,750.77L434.35,748.77L426.98,740.85L421.46,732.93L416.85,730.94L408.57,719.07L400.27,715.08L385.48,713.04L376.27,705.1L361.47,705.03L357.78,703.03L354.14,693.15L348.58,695.09L335.67,689.1L330.14,685.12L321.82,685.07L317.19,687.02L299.68,677.05L294.16,673.07L294.21,665.17L286.83,663.15L284.08,659.19L276.7,657.17L280.43,653.25L275.85,647.3L270.32,645.29Z" fill-rule="evenodd" fill="#4682b4" fill-opacity="0.471"/>
<polyline points="270.32,645.29 274.04,641.37 277.72,643.37 283.26,643.4 289.76,639.5 293.49,633.61 309.17,637.65 318.35,647.57 322.97,647.6 330.39,641.72 339.63,641.78 347,645.76 354.36,651.72 361.75,651.76 365.46,649.81 362.71,645.85 347.98,635.91 336.91,633.87 333.23,629.9 318.47,627.84 310.2,619.9 298.19,621.8 290.81,619.78 286.23,613.83 280.7,611.82 279.81,607.87 269.65,607.8 258.61,601.81 254.07,591.91 255,589.94 249.52,582.01 251.4,578.08 247.73,574.11 244.04,574.08 243.16,568.16 233.98,562.17 227.58,554.23 227.64,546.34 230.47,538.47 227.73,534.5 228.7,528.59 224.15,520.67 224.18,516.72 228.85,508.87 236.25,504.98 239.01,505 243.65,501.08 249.17,503.1 252.81,509.04 261.11,509.1 268.42,519.02 273.01,521.02 281.31,521.08 284.91,534.91 291.34,538.9 297.79,538.94 306.12,535.05 315.3,541.02 325.42,545.03 329.13,543.08 333.76,539.16 333.79,533.24 336.6,527.34 336.62,523.39 339.4,521.44 339.43,515.52 336.69,511.56 339.49,505.65 350.54,507.69 364.38,503.82 365.32,501.85 379.18,494.03 385.63,494.06 396.72,488.2 404.1,486.26 413.35,478.41 420.74,474.5 425.34,474.52 430.86,478.49 427.09,496.23 431.66,506.11 439,514.03 450.97,518.02 455.56,523.96 466.62,525.97 474.9,529.95 485,543.79 488.67,551.69 489.58,555.64 493.25,561.57 501.53,569.49 506.12,575.42 525.47,589.28 536.54,591.28 545.76,595.25 557.76,595.27 571.6,597.27 584.52,605.19 593.72,624.93 597.4,638.74 594.62,644.66 589.07,648.6 580.73,658.45 578.88,664.36 578.86,672.25 579.78,676.2 578.83,691.98 576.97,695.92 572.34,699.86 555.7,697.85 535.34,703.73 527.02,703.71 515.02,695.78 513.17,693.8 512.27,685.91 510.43,683.93 505.79,687.87 503.92,697.72 498.36,699.68 480.81,695.68 478.94,699.62 500.18,709.55 510.34,715.5 517.72,723.41 501.97,731.25 493.64,731.23 477.88,739.07 464.89,748.89 454.71,748.85 446.4,744.87 440.85,744.85 440.82,750.77 434.35,748.77 426.98,740.85 421.46,732.93 416.85,730.94 408.57,719.07 400.27,715.08 385.48,713.04 376.27,705.1 361.47,705.03 357.78,703.03 354.14,693.15 348.58,695.09 335.67,689.1 330.14,685.12 321.82,685.07 317.19,687.02 299.68,677.05 294.16,673.07 294.21,665.17 286.83,663.15 284.08,659.19 276.7,657.17 280.43,653.25 275.85,647.3 270.32,645.29" fill="none" stroke="#1e1e1e" stroke-width="2.19" stroke-linecap="round" stroke-linejoin="round"/>
<path d="M737.96,788.7L734.25,786.73L731.46,767.01L727.75,763.07L728.67,757.15L725.89,751.23L724.03,743.34L717.54,725.59L717.54,719.67L713.84,713.76L711.06,711.79L684.24,717.71L680.54,719.68L670.36,719.68L670.36,711.79L667.59,709.82L664.82,699.96L661.12,699.95L660.2,694.04L657.42,688.12L655.58,680.22L654.66,672.33L656.51,664.44L657.44,638.8L654.67,632.88L650.99,621.04L641.76,607.23L642.69,597.36L633.46,591.44L624.24,581.57L615.94,577.61L613.18,569.72L614.11,563.8L610.42,561.82L608.57,563.79L598.42,565.75L588.27,563.77L583.66,561.79L577.19,569.67L552.28,569.62L533.83,565.63L508.04,549.78L495.21,524.09L501.68,518.2L505.4,506.37L505.44,494.53L513.74,492.58L514.68,486.67L507.3,486.65L494.4,488.58L493.43,502.39L490.65,506.33L476.83,506.28L463.94,500.32L455.66,498.31L449.24,488.42L447.43,480.53L450.22,474.62L443.8,466.7L433.7,458.77L433.71,456.8L427.29,450.85L415.33,446.86L412.59,442.9L417.24,431.08L420.94,427.15L418.19,425.17L423.8,405.46L431.18,401.55L428.42,399.57L430.31,387.74L433.1,381.83L433.12,375.91L436.82,371.98L435,368.03L435.02,362.11L436.87,358.17L435.05,354.22L438.75,348.32L437.87,338.45L441.56,336.49L438.82,332.53L440.69,324.65L440.74,310.84L447.19,306.92L455.46,306.95L458.22,304.99L467.42,303.05L472.02,301.09L480.27,305.07L484.88,301.14L481.22,297.18L476.62,297.16L460.99,303.03L455.48,301.03L449.04,302.98L439.88,297.03L436.21,297.01L434.39,291.09L435.32,289.12L431.67,283.18L431.7,277.27L434.47,273.33L436.34,265.45L440.02,261.52L439.14,253.62L443.77,243.78L440.15,229.95L442.91,227.99L445.7,220.11L442.05,214.18L443.91,208.27L449.43,204.34L453.13,194.49L452.22,192.52L457.73,190.57L462.31,192.56L473.31,194.57L475.11,202.47L478.79,200.51L484.33,188.69L496.27,180.83L500.86,180.85L504.51,184.8L514.58,190.75L522.81,198.67L516.34,216.4L520.92,220.36L527.37,208.54L533.8,206.59L549.38,212.54L557.61,220.45L560.35,228.35L568.59,236.25L571.33,242.18L567.65,248.09L573.15,255.99L579.55,269.81L586.85,297.44L594.18,307.32L600.59,321.13L606.1,327.06L611.6,342.85L618.02,352.72L622.62,354.7L630.89,356.68L637.32,362.6L641.91,372.47L646.51,378.39L647.42,390.23L650.18,396.15L648.33,406.01L642.81,411.92L629,415.86L627.15,421.77L630.83,425.72L650.16,427.71L652,431.66L669.49,437.58L673.17,439.55L678.7,449.42L700.81,467.17L706.34,479L706.34,484.92L710.03,494.78L716.48,492.81L733.99,492.8L739.52,496.74L744.14,504.62L749.68,510.53L755.21,512.5L759.82,516.44L761.68,528.27L769.99,536.15L770.02,553.91L757.11,557.87L749.73,557.88L744.2,559.86L734.06,569.73L729.45,577.63L720.23,585.53L721.15,587.5L708.23,593.42L711.93,595.39L711.93,599.34L719.31,599.33L730.39,595.38L746.99,581.56L756.21,577.6L762.67,575.62L771.91,579.55L787.61,589.39L795.93,593.32L810.73,607.1L815.36,613.01L818.14,620.89L825.56,630.74L833.92,650.44L838.56,658.32L827.49,666.24L818.25,668.24L808.1,676.15L798.87,680.11L790.55,680.13L777.59,672.26L769.27,670.3L753.56,670.32L747.08,668.36L736.91,660.48L734.14,662.45L734.14,666.4L745.24,674.28L754.49,678.21L761.89,678.2L771.14,682.13L785.94,690L796.12,691.96L799.82,695.89L805.37,695.88L842.34,687.9L851.59,691.82L855.3,695.76L861.78,695.74L871.04,699.66L871.05,703.6L866.43,705.59L874.8,719.37L876.68,729.23L882.25,735.13L876.71,739.09L882.3,748.94L879.53,752.89L881.41,760.78L877.72,764.74L876.82,772.63L871.29,778.57L866.64,772.66L862.93,772.67L862.95,776.62L865.74,782.53L862.04,782.54L859.28,788.47L859.28,790.44L870.44,804.21L871.38,810.13L900.17,827.79L899.26,831.74L896.49,835.69L892.81,843.59L892.83,849.51L894.71,857.4L892.91,871.21L897.6,886.98L899.47,890.92L899.5,898.81L891.2,912.65L887.49,912.66L880.04,904.79L869.83,904.83L862.4,902.88L853.08,889.09L841.93,883.21L837.3,883.22L818.69,861.56L801.96,839.9L792.68,832.03L788.04,830.06L785.26,830.07L777.83,822.19L774.12,820.22L769.48,814.31L763,814.32L751.86,800.53L743.52,796.59L737.96,788.7Z" fill-rule="evenodd" fill="#4682b4" fill-opacity="0.471"/>
<polyline points="737.96,788.7 734.25,786.73 731.46,767.01 727.75,763.07 728.67,757.15 725.89,751.23 724.03,743.34 717.54,725.59 717.54,719.67 713.84,713.76 711.06,711.79 684.24,717.71 680.54,719.68 670.36,719.68 670.36,711.79 667.59,709.82 664.82,699.96 661.12,699.95 660.2,694.04 657.42,688.12 655.58,680.22 654.66,672.33 656.51,664.44 657.44,638.8 654.67,632.88 650.99,621.04 641.76,607.23 642.69,597.36 633.46,591.44 624.24,581.57 615.94,577.61 613.18,569.72 614.11,563.8 610.42,561.82 608.57,563.79 598.42,565.75 588.27,563.77 583.66,561.79 577.19,569.67 552.28,569.62 533.83,565.63 508.04,549.78 495.21,524.09 501.68,518.2 505.4,506.37 505.44,494.53 513.74,492.58 514.68,486.67 507.3,486.65 494.4,488.58 493.43,502.39 490.65,506.33 476.83,506.28 463.94,500.32 455.66,498.31 449.24,488.42 447.43,480.53 450.22,474.62 443.8,466.7 433.7,458.77 433.71,456.8 427.29,450.85 415.33,446.86 412.59,442.9 417.24,431.08 420.94,427.15 418.19,425.17 423.8,405.46 431.18,401.55 428.42,399.57 430.31,387.74 433.1,381.83 433.12,375.91 436.82,371.98 435,368.03 435.02,362.11 436.87,358.17 435.05,354.22 438.75,348.32 437.87,338.45 441.56,336.49 438.82,332.53 440.69,324.65 440.74,310.84 447.19,306.92 455.46,306.95 458.22,304.99 467.42,303.05 472.02,301.09 480.27,305.07 484.88,301.14 481.22,297.18 476.62,297.16 460.99,303.03 455.48,301.03 449.04,302.98 439.88,297.03 436.21,297.01 434.39,291.09 435.32,289.12 431.67,283.18 431.7,277.27 434.47,273.33 436.34,265.45 440.02,261.52 439.14,253.62 443.77,243.78 440.15,229.95 442.91,227.99 445.7,220.11 442.05,214.18 443.91,208.27 449.43,204.34 453.13,194.49 452.22,192.52 457.73,190.57 462.31,192.56 473.31,194.57 475.11,202.47 478.79,200.51 484.33,188.69 496.27,180.83 500.86,180.85 504.51,184.8 514.58,190.75 522.81,198.67 516.34,216.4 520.92,220.36 527.37,208.54 533.8,206.59 549.38,212.54 557.61,220.45 560.35,228.35 568.59,236.25 571.33,242.18 567.65,248.09 573.15,255.99 579.55,269.81 586.85,297.44 594.18,307.32 600.59,321.13 606.1,327.06 611.6,342.85 618.02,352.72 622.62,354.7 630.89,356.68 637.32,362.6 641.91,372.47 646.51,378.39 647.42,390.23 650.18,396.15 648.33,406.01 642.81,411.92 629,415.86 627.15,421.77 630.83,425.72 650.16,427.71 652,431.66 669.49,437.58 673.17,439.55 678.7,449.42 700.81,467.17 706.34,479 706.34,484.92 710.03,494.78 716.48,492.81 733.99,492.8 739.52,496.74 744.14,504.62 749.68,510.53 755.21,512.5 759.82,516.44 761.68,528.27 769.99,536.15 770.02,553.91 757.11,557.87 749.73,557.88 744.2,559.86 734.06,569.73 729.45,577.63 720.23,585.53 721.15,587.5 708.23,593.42 711.93,595.39 711.93,599.34 719.31,599.33 730.39,595.38 746.99,581.56 756.21,577.6 762.67,575.62 771.91,579.55 787.61,589.39 795.93,593.32 810.73,607.1 815.36,613.01 818.14,620.89 825.56,630.74 833.92,650.44 838.56,658.32 827.49,666.24 818.25,668.24 808.1,676.15 798.87,680.11 790.55,680.13 777.59,672.26 769.27,670.3 753.56,670.32 747.08,668.36 736.91,660.48 734.14,662.45 734.14,666.4 745.24,674.28 754.49,678.21 761.89,678.2 771.14,682.13 785.94,690 796.12,691.96 799.82,695.89 805.37,695.88 842.34,687.9 851.59,691.82 855.3,695.76 861.78,695.74 871.04,699.66 871.05,703.6 866.43,705.59 874.8,719.37 876.68,729.23 882.25,735.13 876.71,739.09 882.3,748.94 879.53,752.89 881.41,760.78 877.72,764.74 876.82,772.63 871.29,778.57 866.64,772.66 862.93,772.67 862.95,776.62 865.74,782.53 862.04,782.54 859.28,788.47 859.28,790.44 870.44,804.21 871.38,810.13 900.17,827.79 899.26,831.74 896.49,835.69 892.81,843.59 892.83,849.51 894.71,857.4 892.91,871.21 897.6,886.98 899.47,890.92 899.5,898.81 891.2,912.65 887.49,912.66 880.04,904.79 869.83,904.83 862.4,902.88 853.08,889.09 841.93,883.21 837.3,883.22 818.69,861.56 801.96,839.9 792.68,832.03 788.04,830.06 785.26,830.07 777.83,822.19 774.12,820.22 769.48,814.31 763,814.32 751.86,800.53 743.52,796.59 737.96,788.7" fill="none" stroke="#1e1e1e" stroke-width="2.19" stroke-linecap="round" stroke-linejoin="round"/>
<path d="M652.02,384.31L650.18,384.31L646.52,364.58L644.68,360.63L636.41,354.71L630.9,346.81L628.15,338.92L621.72,333L614.38,319.18L608.87,313.25L607.05,305.36L606.14,293.52L596.07,273.78L594.26,256.02L588.76,248.12L587.86,238.26L580.53,228.38L576.88,218.51L578.73,212.6L572.32,202.72L548.48,200.7L545.75,194.78L552.22,171.12L557.74,159.29L558.67,155.35L570.56,167.21L573.29,173.13L574.19,183L576.94,184.98L587.95,181.05L592.54,175.14L599.87,175.15L609.05,169.24L622.81,157.42L631.06,151.51L632.9,143.62L631.99,139.67L637.49,135.73L647.56,137.71L652.15,127.85L653.98,131.79L659.47,131.8L664.06,123.91L664.06,117.99L668.64,119.96L670.47,119.96L674.13,123.91L678.71,123.91L684.21,125.88L689.7,135.75L695.2,135.74L700.7,141.66L707.11,141.66L708.03,151.52L714.45,155.46L719.03,155.46L727.28,159.4L731.87,163.34L736.45,163.34L743.79,173.2L741.96,175.17L719.97,187.03L712.63,192.95L704.39,202.82L697.05,208.74L687.88,218.6L684.21,224.52L689.72,230.44L692.47,238.33L695.23,250.17L694.31,254.11L688.8,263.98L687.89,267.92L688.81,279.76L691.56,283.7L694.32,299.49L699.83,311.32L709.03,323.15L713.62,325.12L714.54,319.21L704.43,305.4L701.67,299.48L700.75,291.59L698.91,287.65L697.07,279.76L698.9,273.84L705.33,263.97L709.91,250.16L708.99,240.3L709.9,236.35L715.41,238.32L719.08,236.35L724.58,230.42L731,230.42L735.59,232.39L743.84,224.49L760.35,218.55L765.86,220.52L774.11,218.53L786.02,212.59L789.69,212.59L797.04,216.52L806.23,224.39L808.08,230.3L806.25,234.25L801.67,238.21L789.75,244.15L789.76,248.1L776.95,273.76L785.21,273.75L787.97,271.77L798.06,269.78L802.64,265.83L820.07,257.9L829.25,257.87L834.77,263.78L848.55,265.71L856.82,269.64L863.27,275.54L867.88,283.41L869.74,289.33L867.01,297.22L867.04,307.09L863.39,316.96L856.07,324.88L845.97,328.85L838.61,328.87L831.23,317.05L827.55,313.12L821.12,313.13L819.29,317.08L823.91,326.94L823.93,336.8L826.7,342.71L842.37,358.45L849.73,360.41L865.37,362.33L876.38,354.41L886.47,348.45L894.75,350.4L902.12,352.34L911.36,364.14L926.11,373.95L928.86,371.97L930.72,375.9L944.53,379.79L966.65,389.55L974.01,389.52L986,395.37L991.59,409.16L994.44,424.92L992.63,430.85L986.2,434.83L943.77,415.3L895.87,405.63L891.25,399.73L888.5,401.71L889.44,407.63L886.69,411.58L880.29,425.41L884.94,437.23L893.24,441.15L906.16,450.97L925.52,454.84L932.92,462.7L938.48,470.56L949.55,472.49L967.1,482.27L978.2,492.08L985.59,495.99L990.23,501.88L998.56,507.76L1015.2,515.56L1028.17,527.32L1030.96,531.25L1031.91,535.19L1021.75,533.28L1008.8,525.46L971.85,511.84L934.03,506.09L925.75,512.05L931.32,519.91L936.87,523.84L953.48,527.71L961.8,531.62L966.46,541.46L972.94,547.34L983.11,551.24L985.89,553.2L996.12,568.93L998.89,570.89L999.85,576.8L994.31,576.83L991.56,580.79L977.75,586.78L975,590.74L970.37,588.79L953.77,590.84L949.13,584.94L940.82,584.97L939.02,594.85L942.73,600.75L944.62,608.63L941.9,620.48L939.23,644.16L941.12,654.02L940.21,657.97L942.99,659.93L943.93,663.87L942.13,673.74L938.46,679.68L933.83,679.7L929.2,677.74L923.63,669.88L918.99,665.95L914.34,658.08L910.6,646.25L900.37,630.51L893.89,624.62L892.94,618.7L893.85,612.78L891.05,604.9L892.89,602.92L887.28,583.21L887.27,579.26L890.93,571.36L899.23,569.36L905.69,571.31L907.47,553.55L906.53,547.63L900.96,537.79L903.72,535.81L900.92,527.92L900.89,518.06L899.02,512.15L889.75,496.4L877.71,478.69L875.85,472.77L872.14,466.87L868.43,457.02L864.72,451.11L859.18,445.21L852.72,441.28L845.35,439.33L834.27,425.55L815.83,411.78L793.72,399.99L789.13,407.89L802.96,421.67L819.58,441.37L838.95,457.1L849.11,466.94L861.15,486.63L863.01,494.51L866.71,498.45L867.65,502.39L875.05,512.23L877.85,522.09L877.9,535.9L881.66,559.56L877.1,573.38L878.02,575.35L873.42,579.31L874.36,583.25L868.83,587.22L867.95,601.03L871.68,612.85L865.21,608.93L863.34,601.04L858.71,597.11L855.92,589.23L848.5,577.41L837.39,565.61L825.38,555.77L819.82,547.89L805.98,543.98L798.58,536.1L794.88,530.19L790.25,516.39L780.99,494.71L773.6,484.86L763.47,482.9L758.85,476.99L752.4,476.99L743.18,471.09L738.58,471.09L730.29,473.07L727.52,475.05L720.15,473.08L712.78,463.22L709.09,455.33L696.19,445.47L690.67,435.61L683.3,427.72L675.02,421.8L659.37,413.9L653.86,396.15L653.86,390.23L652.02,384.31Z" fill-rule="evenodd" fill="#4682b4" fill-opacity="0.471"/>
<polyline points="652.02,384.31 650.18,384.31 646.52,364.58 644.68,360.63 636.41,354.71 630.9,346.81 628.15,338.92 621.72,333 614.38,319.18 608.87,313.25 607.05,305.36 606.14,293.52 596.07,273.78 594.26,256.02 588.76,248.12 587.86,238.26 580.53,228.38 576.88,218.51 578.73,212.6 572.32,202.72 548.48,200.7 545.75,194.78 552.22,171.12 557.74,159.29 558.67,155.35 570.56,167.21 573.29,173.13 574.19,183 576.94,184.98 587.95,181.05 592.54,175.14 599.87,175.15 609.05,169.24 622.81,157.42 631.06,151.51 632.9,143.62 631.99,139.67 637.49,135.73 647.56,137.71 652.15,127.85 653.98,131.79 659.47,131.8 664.06,123.91 664.06,117.99 668.64,119.96 670.47,119.96 674.13,123.91 678.71,123.91 684.21,125.88 689.7,135.75 695.2,135.74 700.7,141.66 707.11,141.66 708.03,151.52 714.45,155.46 719.03,155.46 727.28,159.4 731.87,163.34 736.45,163.34 743.79,173.2 741.96,175.17 719.97,187.03 712.63,192.95 704.39,202.82 697.05,208.74 687.88,218.6 684.21,224.52 689.72,230.44 692.47,238.33 695.23,250.17 694.31,254.11 688.8,263.98 687.89,267.92 688.81,279.76 691.56,283.7 694.32,299.49 699.83,311.32 709.03,323.15 713.62,325.12 714.54,319.21 704.43,305.4 701.67,299.48 700.75,291.59 698.91,287.65 697.07,279.76 698.9,273.84 705.33,263.97 709.91,250.16 708.99,240.3 709.9,236.35 715.41,238.32 719.08,236.35 724.58,230.42 731,230.42 735.59,232.39 743.84,224.49 760.35,218.55 765.86,220.52 774.11,218.53 786.02,212.59 789.69,212.59 797.04,216.52 806.23,224.39 808.08,230.3 806.25,234.25 801.67,238.21 789.75,244.15 789.76,248.1 776.95,273.76 785.21,273.75 787.97,271.77 798.06,269.78 802.64,265.83 820.07,257.9 829.25,257.87 834.77,263.78 848.55,265.71 856.82,269.64 863.27,275.54 867.88,283.41 869.74,289.33 867.01,297.22 867.04,307.09 863.39,316.96 856.07,324.88 845.97,328.85 838.61,328.87 831.23,317.05 827.55,313.12 821.12,313.13 819.29,317.08 823.91,326.94 823.93,336.8 826.7,342.71 842.37,358.45 849.73,360.41 865.37,362.33 876.38,354.41 886.47,348.45 894.75,350.4 902.12,352.34 911.36,364.14 926.11,373.95 928.86,371.97 930.72,375.9 944.53,379.79 966.65,389.55 974.01,389.52 986,395.37 991.59,409.16 994.44,424.92 992.63,430.85 986.2,434.83 943.77,415.3 895.87,405.63 891.25,399.73 888.5,401.71 889.44,407.63 886.69,411.58 880.29,425.41 884.94,437.23 893.24,441.15 906.16,450.97 925.52,454.84 932.92,462.7 938.48,470.56 949.55,472.49 967.1,482.27 978.2,492.08 985.59,495.99 990.23,501.88 998.56,507.76 1015.2,515.56 1028.17,527.32 1030.96,531.25 1031.91,535.19 1021.75,533.28 1008.8,525.46 971.85,511.84 934.03,506.09 925.75,512.05 931.32,519.91 936.87,523.84 953.48,527.71 961.8,531.62 966.46,541.46 972.94,547.34 983.11,551.24 985.89,553.2 996.12,568.93 998.89,570.89 999.85,576.8 994.31,576.83 991.56,580.79 977.75,586.78 975,590.74 970.37,588.79 953.77,590.84 949.13,584.94 940.82,584.97 939.02,594.85 942.73,600.75 944.62,608.63 941.9,620.48 939.23,644.16 941.12,654.02 940.21,657.97 942.99,659.93 943.93,663.87 942.13,673.74 938.46,679.68 933.83,679.7 929.2,677.74 923.63,669.88 918.99,665.95 914.34,658.08 910.6,646.25 900.37,630.51 893.89,624.62 892.94,618.7 893.85,612.78 891.05,604.9 892.89,602.92 887.28,583.21 887.27,579.26 890.93,571.36 899.23,569.36 905.69,571.31 907.47,553.55 906.53,547.63 900.96,537.79 903.72,535.81 900.92,527.92 900.89,518.06 899.02,512.15 889.75,496.4 877.71,478.69 875.85,472.77 872.14,466.87 868.43,457.02 864.72,451.11 859.18,445.21 852.72,441.28 845.35,439.33 834.27,425.55 815.83,411.78 793.72,399.99 789.13,407.89 802.96,421.67 819.58,441.37 838.95,457.1 849.11,466.94 861.15,486.63 863.01,494.51 866.71,498.45 867.65,502.39 875.05,512.23 877.85,522.09 877.9,535.9 881.66,559.56 877.1,573.38 878.02,575.35 873.42,579.31 874.36,583.25 868.83,587.22 867.95,601.03 871.68,612.85 865.21,608.93 863.34,601.04 858.71,597.11 855.92,589.23 848.5,577.41 837.39,565.61 825.38,555.77 819.82,547.89 805.98,543.98 798.58,536.1 794.88,530.19 790.25,516.39 780.99,494.71 773.6,484.86 763.47,482.9 758.85,476.99 752.4,476.99 743.18,471.09 738.58,471.09 730.29,473.07 727.52,475.05 720.15,473.08 712.78,463.22 709.09,455.33 696.19,445.47 690.67,435.61 683.3,427.72 675.02,421.8 659.37,413.9 653.86,396.15 653.86,390.23 652.02,384.31" fill="none" stroke="#1e1e1e" stroke-width="2.19" stroke-linecap="round" stroke-linejoin="round"/>
<text x="578.39" y="531.57" font-family="sans-serif" font-size="14" stroke="#ffffff" stroke-opacity="0.784" stroke-width="2.33" stroke-linejoin="round" paint-order="stroke" fill="#141414">Faroe Islands</text>
</svg>
