<?xml version="1.0" encoding="UTF-8" standalone="no"?>
<svg xmlns="http://www.w3.org/2000/svg" width="1186" height="2000" viewBox="0 0 1186 2000">
<rect width="1186" height="2000" fill="#ffffff"/>
<polyline points="156.15,437.97 162.19,438.35 179.36,445 184.25,445.83 189.33,449.39 193.28,450.9 198.79,456.4 202.4,457.32" fill="none" stroke="#1e1e1e" stroke-width="1.02" stroke-linecap="round" stroke-linejoin="round"/>
<polyline points="342.55,544.92 339.81,542.77 337.66,538.35 338.12,533.66 331.44,526.61 330.34,522.96 323.83,518.94 319.49,517.62 316.07,520.06 312.65,521.09 279.81,515.32 250.89,483.42 234.68,474.64 231.52,469.94 227.77,467.85 224.12,468.57 220.58,467.91 212.22,464.04 202.4,457.32" fill="none" stroke="#1e1e1e" stroke-width="1.02" stroke-linecap="round" stroke-linejoin="round"/>
<polyline points="393.03,801.31 386.8,787.4 393.56,771.4 396.27,760.47 395.52,751.26 396.91,740.69 396.59,730.77 392.96,721.59 392.66,712.52 391.23,702.65 391.74,691.13 388.47,674.55 388.81,658.12 392.9,652.23 396.03,643.56 396.18,634.22 393.08,623.08 391.51,620.7 389.46,620.02 385.45,611.28 382.1,607.23 382.68,601.33 386.15,599.03 387.86,591.31 387.26,582.96 380.23,575.21 372.16,571.41 363.59,565.04 358.13,556.78 342.56,544.93" fill="none" stroke="#1e1e1e" stroke-width="1.02" stroke-linecap="round" stroke-linejoin="round"/>
<polyline points="419.13,834.82 411.01,828.79 402.6,824.87 396.65,815.44 393.03,801.32" fill="none" stroke="#1e1e1e" stroke-width="1.02" stroke-linecap="round" stroke-linejoin="round"/>
<polyline points="1064.04,1522.32 1071.73,1525.94 1075.21,1529.75 1080.65,1544.33 1082.04,1556.14" fill="none" stroke="#1e1e1e" stroke-width="1.02" stroke-linecap="round" stroke-linejoin="round"/>
<polyline points="1087.18,1589.27 1088.91,1607.95 1101.48,1645.15 1103.44,1652.82 1104.9,1669.97 1108.31,1692.83 1112.42,1713.26 1114.38,1769.01 1119.34,1793.7 1128.66,1821.15" fill="none" stroke="#1e1e1e" stroke-width="1.02" stroke-linecap="round" stroke-linejoin="round"/>
<polyline points="1085.42,1463.32 1083.1,1464.23 1081.55,1463.36 1072.74,1453.16 1069.17,1451.49 1063.72,1451.76 1061.95,1450.95 1058.74,1445.21 1057.14,1443.68 1054.76,1443.74 1053.63,1442.23 1048,1446.2 1044.94,1452.63 1042.85,1454.13 1038.86,1455.38 1031.77,1455.21 1027.77,1457.97 1027.96,1462.23 1032.62,1477.01 1033.31,1483.43 1032.14,1488.6 1035.25,1492.76 1037.07,1500.43 1044.02,1505.02 1051.32,1505.59 1054.08,1506.74 1056.71,1508.93 1058.96,1512.28 1060.69,1518.49 1064.04,1522.32" fill="none" stroke="#1e1e1e" stroke-width="1.02" stroke-linecap="round" stroke-linejoin="round"/>
<polyline points="1087.18,1589.27 1089.17,1578.97 1084.94,1573.58 1083.37,1569.83 1082.38,1565.46 1083.57,1559.43 1082.08,1556.3" fill="none" stroke="#1e1e1e" stroke-width="1.02" stroke-linecap="round" stroke-linejoin="round"/>
<polyline points="283.34,241.56 282.86,245.39 284.13,247.78 295.1,253.31 300.24,258.91 304.27,263.84 309.56,275.83 315.04,276.56 316.38,277.57 319.56,289.52 321.61,291.82 326.78,293.66 332.52,300.42 336.16,303.35 337.2,309.34 349.54,313.76 356.98,325.85 356.95,329.3 359.18,331.57 375.15,332.56 379.79,334.24 380.13,336.96 385.58,337.65 389.93,340.43 392.96,340.94 395.81,343.23 399.62,342.91 405.28,351.08 409.49,349.48 411.17,351.47 415.7,360.77 425.77,368.41 428.45,376.59 431.46,380.74 432.41,383.92 431.84,388.33 432.46,391.26 431.47,398.65 432.48,401.96 434.01,401.99 440.12,397.89 442.54,397.86 444.14,401.3 447.33,415.86 454.31,422.77 460.36,430.99 465.22,433.05 466.5,435.49 466.34,438.8 464.45,442.42 462.07,444.32 456.99,446.03 454.53,448.04 453.18,451.31 452.67,475.37 454.63,491.37 456.67,499.35 456.75,503.87 450.79,509.73 451.54,512.02 447.35,522.74 448.09,527.4 450.41,530.72 458.96,529.14 463.8,532.56 470.26,534.42 471.13,535.81 469.77,549.72 472.22,551.42 470.43,557.23 468.32,560.35 459.96,564.02 458.49,565.63 457.47,572.25 457.82,573.59 459.13,574.38 455.91,582.03" fill="none" stroke="#1e1e1e" stroke-width="1.02" stroke-linecap="round" stroke-linejoin="round"/>
<polyline points="899.22,94.09 905.39,121.29 902.5,127.91 901.06,139.36 893.95,147.59 890.06,150.2 887.17,148.86 883.97,149.27 877.67,154.5 875.34,158.92 868.19,166.58 865.18,166.56 856.35,168.55 851.3,170.75" fill="none" stroke="#1e1e1e" stroke-width="1.02" stroke-linecap="round" stroke-linejoin="round"/>
<polyline points="852.32,187.33 848.64,209.51 844.59,218.4 841.29,222.86 837.67,225.38 831.53,225.81 822.56,235.72 814.59,239.26 797.78,252.94 794.75,253.27" fill="none" stroke="#1e1e1e" stroke-width="1.02" stroke-linecap="round" stroke-linejoin="round"/>
<polyline points="851.3,170.75 850.08,173.39 849.7,176.89 852.32,187.33" fill="none" stroke="#1e1e1e" stroke-width="1.02" stroke-linecap="round" stroke-linejoin="round"/>
<polyline points="742.12,588.09 741.45,584.25 744.25,579.84 744.7,575.32 741.05,559.69 740.56,556.49 741.12,554.33 742.51,553.57 744.12,553.92 746.41,556.75 748.86,556.57 751.48,553.09 753.19,549.09 754.42,544.71 754.49,541.15 756.56,540.98 758.41,539.72 748.23,525.22 743.18,520.18 738.99,513.04 723.74,502.2 719.3,496.63 716.26,489.23 714.52,480.9 714.9,479.09 717.09,478.18 719.98,473.69 732.34,468.13 734.38,472.41 738.95,475.66 740.01,478.09 741.05,477.96 744.84,475.46 749.94,466.26 752.27,464.89 756.63,464.74 757.84,461.44 756.68,457.81" fill="none" stroke="#1e1e1e" stroke-width="1.02" stroke-linecap="round" stroke-linejoin="round"/>
<polyline points="591.18,991.31 594.71,992 616.92,1009.4 623.79,1019.45 628.88,1023.98 633.52,1030.08 637.41,1031.17 639.05,1029.84 637.91,1026 648.9,1024.72 651.29,1025.43 656.12,1032.35 660.87,1035.55 671.12,1038.07 676.94,1047 680.77,1050.11 682.35,1052.57 684.14,1060.39 686.7,1062.83 687.61,1067.21 691.26,1069.79 693.24,1074.27 695.49,1074.39 700.56,1072.81 702.77,1075.48" fill="none" stroke="#1e1e1e" stroke-width="1.02" stroke-linecap="round" stroke-linejoin="round"/>
<polyline points="740.4,354.08 756.23,350.78 757.55,348.19 757.52,346 759.73,338.95 764.88,333.37 768.42,325.98 769.89,324.56 772.06,324.83 779.58,330.1 783.32,330.96 787.59,333.93 791.23,334.88 804.97,329.31 810.8,323.62 828.6,317.58 833.31,313.88 834.99,313.36 836.28,313.94 840.49,318.23 844.1,319.22 857.09,313.8 865.39,306.52 891.48,292.93 899.54,293.78 926.57,282.61 930.25,282.89 933.84,285.33 937.6,286.56 942.43,281.61" fill="none" stroke="#1e1e1e" stroke-width="1.02" stroke-linecap="round" stroke-linejoin="round"/>
<polyline points="1015.3,288.66 1007.04,294.23 998.52,292.04 987.43,296.1 981.82,292.49 977.8,292.26 974.05,287.24 972,288.54 968.29,287.75 961.95,287.84 957.95,283.44 954.11,281.24 952.17,282.28 947.24,282.48 942.43,281.61" fill="none" stroke="#1e1e1e" stroke-width="1.02" stroke-linecap="round" stroke-linejoin="round"/>
<polyline points="143.79,564.81 147.91,568.96 155.79,571.61 160.5,574.2 174.17,585.77 176.64,590.93 176.98,597.9" fill="none" stroke="#1e1e1e" stroke-width="1.02" stroke-linecap="round" stroke-linejoin="round"/>
<polyline points="251.65,781.21 247.3,766.83 248.87,747.64 245.84,742.84 241.73,731.5 239.61,728.4 238.97,726.25 239.62,725 239.48,719.85 237.72,716.87 233.4,714.08 232.38,712.17 231.38,704.03 223.2,691.51 221.75,685.33 222.12,682.09 217.53,674 211.95,660.47 208.21,657.65 204.38,651.94 187.88,642.93 183.55,638.7 178.89,631.08 177.29,623.93 177.98,616.11 177.5,609.59 177.85,605.75 179.13,603.28 176.98,597.9" fill="none" stroke="#1e1e1e" stroke-width="1.02" stroke-linecap="round" stroke-linejoin="round"/>
<polyline points="108.03,931.81 110.05,932.94 113.01,943.53 116.16,946.48 121.8,956.31 126.2,958 128.93,962.57 131.84,964.66 138.06,972.03 143.95,973.84 146.51,978.7 148.62,980.12 150.55,982.9 160.79,986.55 165.84,990.96 171.94,1006.11 176.61,1012.02 193.88,1020.92 199.11,1025.21 204.12,1026.25 208.32,1029.49 211.6,1029.02 217.78,1026.62 230.55,1026.42 236.63,1028.14 244.91,1033.84" fill="none" stroke="#1e1e1e" stroke-width="1.02" stroke-linecap="round" stroke-linejoin="round"/>
<polyline points="262.47,455.58 263.56,456.96 269.1,457.83 273.56,465.79 276.1,467.68 289.49,469.51 292.21,471.48 296.29,472.96 301.79,476.86 317.92,479.08 320.7,481.03 329.05,481.93 334.77,484.95 336.62,487.64 346.62,495.23 358.02,506.71 364.67,517.66 372.91,521.82 377.54,528.48 385.68,534.79 387.44,539.39 390.57,542.75 391.3,546.09 388.39,552.44 395.08,562.05 399.01,564.94 407.26,567.08 411.44,563.73 436.12,567.17 440.71,569.95 445.53,575.87 449.77,577.3 455.91,582.03 456.33,585.8 462.28,596.39 462.82,603.85 465.82,611.8 467.45,614.84 470.96,617.21 472.71,619.79 476.67,629.48 480.93,636.37 485.8,652.25 485.4,653.93 484.29,654.52 480.92,654.79 477.25,662.29 477.76,674.48 475.92,684.74 476.59,691.5 475.6,697.63 469.92,702.06 469.75,704.16 468.18,705.94 463.98,708.72 463.89,711.73 459.73,714.1 457.82,716.9 456.94,721.14 458.55,726.98 459.18,734.91 458.03,745.86 461.93,764.63 463.81,767.88 466.45,770.38 474.29,773.55 475.91,775.94 480.4,790.33 483.75,794.92 486.2,807 486.01,814.04 489.51,821.53 491.06,829.06 493.95,834.41 493.9,837.88" fill="none" stroke="#1e1e1e" stroke-width="1.02" stroke-linecap="round" stroke-linejoin="round"/>
<polyline points="251.65,781.21 255.32,790.34 257.23,792.96 259.53,794.5 268.09,796.6 270.89,798.81 272.23,807.27 273.61,810.45 284.34,822.66 287.18,824.68 296.2,827.16 298.21,828.92 301.41,833.64 302.85,840.47 306.65,844.37 307.68,848.49" fill="none" stroke="#1e1e1e" stroke-width="1.02" stroke-linecap="round" stroke-linejoin="round"/>
<polyline points="1101.03,1182.68 1102.69,1185.57" fill="none" stroke="#1e1e1e" stroke-width="1.02" stroke-linecap="round" stroke-linejoin="round"/>
<polyline points="976.61,1789.98 986.63,1797.77 991.73,1798.87 999.04,1797.28 1010.61,1796.1 1014.26,1794.51 1020.84,1789.4 1036.33,1792.73 1043.34,1797.5 1050.02,1799.93 1053.13,1802.55 1060.09,1810.99" fill="none" stroke="#1e1e1e" stroke-width="1.02" stroke-linecap="round" stroke-linejoin="round"/>
<polyline points="1064.43,1800.03 1069.14,1795.85 1079.36,1794.02 1091.47,1796.14 1115.17,1806.58 1128.66,1821.15 1141.57,1847.15 1152.6,1867.19" fill="none" stroke="#1e1e1e" stroke-width="1.02" stroke-linecap="round" stroke-linejoin="round"/>
<polyline points="1064.43,1800.03 1062.07,1802.29 1061.71,1803.74 1062.43,1808.92 1061.44,1810.53 1060.09,1810.99" fill="none" stroke="#1e1e1e" stroke-width="1.02" stroke-linecap="round" stroke-linejoin="round"/>
<polyline points="976.61,1789.98 966.91,1781.82 963.78,1780.65 953.93,1771.8 950.84,1764.22 947.61,1761.37 940.46,1760.84 936.75,1759.2 932.08,1753.65 926.29,1742.4 923.33,1738.74 920.16,1735.97 914.17,1733.88 904.7,1726.71 905.16,1722.62 904.31,1720.09 898.63,1714.92 897.35,1711.12 897.1,1702.43" fill="none" stroke="#1e1e1e" stroke-width="1.02" stroke-linecap="round" stroke-linejoin="round"/>
<polyline points="737.12,715.17 737.15,706.12 735.96,697.54 736.87,694.32 738.65,691.34 741.1,689.74 743.17,689.29 745.21,690.07 747.04,688.79 751.39,682.84 750.15,673.75 739.95,664.71 737.33,661.03 737.3,658.95" fill="none" stroke="#1e1e1e" stroke-width="1.02" stroke-linecap="round" stroke-linejoin="round"/>
<polyline points="827.81,401.95 837.56,420.8 843.13,424.47 840.38,433.75 837.48,436.56 835.58,446.85 833.73,451.61 833.45,454.9 834.87,456.7 835.7,459.95 835.32,462.24 825.46,487.52 817.19,496.53 807.44,517.5 804.31,521.06 800.91,522.28 797.3,530.29 791.38,534.7 789.64,537.31 791.46,544.97 791.69,549.55 794.33,550.47 798.43,553.44 799.4,554.94 799.14,559.59 797.32,561.02 793.39,560.38 788.41,554.02 786.64,553.33 785.05,553.84 783.93,555.97 783.64,560.14 785.95,566.55 785.15,569.48 783.64,571.1 761.76,577.11 757.19,582.94 755.83,585.93 751.22,590.5 748.88,590.92 742.12,588.09 741.67,590.82 744.61,595.14 745.38,597.14 745.55,602.3 747.69,604.79 749.05,609.25 748.83,613.1 742.6,633.77 743.83,641.14 743.45,644.34 739.97,648.99 737.3,658.95" fill="none" stroke="#1e1e1e" stroke-width="1.02" stroke-linecap="round" stroke-linejoin="round"/>
<polyline points="737.12,715.17 737.55,720.48 733.97,730.72 728.37,731.37 725.71,732.98 722,740.24 646.47,726.9 641.4,722.14 643.48,719.54 634.04,710.93 629.16,707.95 621.69,706.87 619.65,707.41 613.98,714.97 609.36,716.4 607.32,718.61 604.28,724.56 602.57,726.13 600.13,726.36 594.83,725.16 591.99,726.35 590.42,732.85 588.17,736.67 587.89,738.62 587.18,753.71 588.15,755.99 585.81,763.97 582.08,769.09 572.51,775.5 568.19,780.03 549.37,785.15 545.67,787.71 542.89,791.77 543.04,797.18 538.61,804.6 536.38,821.69" fill="none" stroke="#1e1e1e" stroke-width="1.02" stroke-linecap="round" stroke-linejoin="round"/>
<polyline points="332.15,1703.27 323.48,1694.46 316.57,1690.8 312.53,1682.05 311.39,1681.5 310.7,1684.2 313.41,1692.05 310.32,1691.9 311.36,1695.72 309.05,1695.2 305.05,1691.17 297.81,1688.91 295.19,1687.36 291.91,1682.89 287.51,1680.24 284.39,1676.67 275.74,1670.19 272.28,1665.97 267.95,1657.23 267.71,1650.14 266.85,1648.97 260.17,1645.32 257.16,1640.98" fill="none" stroke="#1e1e1e" stroke-width="1.02" stroke-linecap="round" stroke-linejoin="round"/>
<polyline points="1152.8,1867.35 1147.37,1892.54 1143.51,1904.7 1139.45,1914.44 1134.7,1921.88 1127.77,1923.76 1122.81,1924.04" fill="none" stroke="#1e1e1e" stroke-width="1.02" stroke-linecap="round" stroke-linejoin="round"/>
<polyline points="1045.56,1936.99 1056.18,1928.92 1061.06,1927.94 1070.82,1938.91 1088.97,1954.02 1096.66,1955.98 1099.55,1955.18 1114.39,1944.47 1116.62,1942 1118.48,1938.22 1119.27,1927.18 1122.81,1924.04" fill="none" stroke="#1e1e1e" stroke-width="1.02" stroke-linecap="round" stroke-linejoin="round"/>
<polyline points="1152.8,1867.35 1153.96,1860.07 1159.38,1840.92 1165.56,1830.79" fill="none" stroke="#1e1e1e" stroke-width="1.02" stroke-linecap="round" stroke-linejoin="round"/>
<text x="594.16" y="715.87" font-family="sans-serif" font-size="14" stroke="#ffffff" stroke-opacity="0.784" stroke-width="2.33" stroke-linejoin="round" paint-order="stroke" fill="#141414">Kemijoki</text>
<text x="381.82" y="572.75" font-family="sans-serif" font-size="14" stroke="#ffffff" stroke-opacity="0.784" stroke-width="2.33" stroke-linejoin="round" paint-order="stroke" fill="#141414">Tornelven</text>
<text x="374.87" y="638.55" font-family="sans-serif" font-size="14" stroke="#ffffff" stroke-opacity="0.784" stroke-width="2.33" stroke-linejoin="round" paint-order="stroke" fill="#141414">Kalix</text>
<text x="393.52" y="374.1" font-family="sans-serif" font-size="14" stroke="#ffffff" stroke-opacity="0.784" stroke-width="2.33" stroke-linejoin="round" paint-order="stroke" fill="#141414">Muonio</text>
<text x="817.4" y="325.13" font-family="sans-serif" font-size="14" stroke="#ffffff" stroke-opacity="0.784" stroke-width="2.33" stroke-linejoin="round" paint-order="stroke" fill="#141414">Lotta</text>
<text x="841.91" y="156.08" font-family="sans-serif" font-size="14" stroke="#ffffff" stroke-opacity="0.784" stroke-width="2.33" stroke-linejoin="round" paint-order="stroke" fill="#141414">Patsoyoki</text>
<text x="1083.47" y="1812.18" font-family="sans-serif" font-size="14" stroke="#ffffff" stroke-opacity="0.784" stroke-width="2.33" stroke-linejoin="round" paint-order="stroke" fill="#141414">Vuoksi</text>
<text x="113.67" y="1011.07" font-family="sans-serif" font-size="14" stroke="#ffffff" stroke-opacity="0.784" stroke-width="2.33" stroke-linejoin="round" paint-order="stroke" fill="#141414">Skelleftelven</text>
<text x="691.2" y="513.1" font-family="sans-serif" font-size="14" stroke="#ffffff" stroke-opacity="0.784" stroke-width="2.33" stroke-linejoin="round" paint-order="stroke" fill="#141414">Luirojoki</text>
<text x="160.68" y="683.03" font-family="sans-serif" font-size="14" stroke="#ffffff" stroke-opacity="0.784" stroke-width="2.33" stroke-linejoin="round" paint-order="stroke" fill="#141414">Stora Lule lv</text>
<text x="1072.63" y="1711.36" font-family="sans-serif" font-size="14" stroke="#ffffff" stroke-opacity="0.784" stroke-width="2.33" stroke-linejoin="round" paint-order="stroke" fill="#141414">Jänisjoki</text>
<text x="627.94" y="1031.95" font-family="sans-serif" font-size="14" stroke="#ffffff" stroke-opacity="0.784" stroke-width="2.33" stroke-linejoin="round" paint-order="stroke" fill="#141414">Oulu</text>
<text x="994.37" y="1462.23" font-family="sans-serif" font-size="14" stroke="#ffffff" stroke-opacity="0.784" stroke-width="2.33" stroke-linejoin="round" paint-order="stroke" fill="#141414">Jänisjoki</text>
<text x="904.15" y="1761.49" font-family="sans-serif" font-size="14" stroke="#ffffff" stroke-opacity="0.784" stroke-width="2.33" stroke-linejoin="round" paint-order="stroke" fill="#141414">Vuoksi</text>
<text x="236.61" y="1695.79" font-family="sans-serif" font-size="14" stroke="#ffffff" stroke-opacity="0.784" stroke-width="2.33" stroke-linejoin="round" paint-order="stroke" fill="#141414">Kokemäenjoki</text>
<text x="956.14" y="299.56" font-family="sans-serif" font-size="14" stroke="#ffffff" stroke-opacity="0.784" stroke-width="2.33" stroke-linejoin="round" paint-order="stroke" fill="#141414">Lotta</text>
<text x="1065.64" y="1959.5" font-family="sans-serif" font-size="14" stroke="#ffffff" stroke-opacity="0.784" stroke-width="2.33" stroke-linejoin="round" paint-order="stroke" fill="#141414">Neva</text>
<text x="249.96" y="823.55" font-family="sans-serif" font-size="14" stroke="#ffffff" stroke-opacity="0.784" stroke-width="2.33" stroke-linejoin="round" paint-order="stroke" fill="#141414">Lule lv</text>
<text x="159.15" y="452.05" font-family="sans-serif" font-size="14" stroke="#ffffff" stroke-opacity="0.784" stroke-width="2.33" stroke-linejoin="round" paint-order="stroke" fill="#141414">Kalix</text>
<text x="712.09" y="693.48" font-family="sans-serif" font-size="14" stroke="#ffffff" stroke-opacity="0.784" stroke-width="2.33" stroke-linejoin="round" paint-order="stroke" fill="#141414">Kemijoki</text>
<text x="104.15" y="582.6" font-family="sans-serif" font-size="14" stroke="#ffffff" stroke-opacity="0.784" stroke-width="2.33" stroke-linejoin="round" paint-order="stroke" fill="#141414">Stora Lule lv</text>
<text x="1121.12" y="1913.84" font-family="sans-serif" font-size="14" stroke="#ffffff" stroke-opacity="0.784" stroke-width="2.33" stroke-linejoin="round" paint-order="stroke" fill="#141414">Neva</text>
<text x="1141.24" y="1853.75" font-family="sans-serif" font-size="14" stroke="#ffffff" stroke-opacity="0.784" stroke-width="2.33" stroke-linejoin="round" paint-order="stroke" fill="#141414">Svir</text>
<text x="806.55" y="185.64" font-family="sans-serif" font-size="14" stroke="#ffffff" stroke-opacity="0.784" stroke-width="2.33" stroke-linejoin="round" paint-order="stroke" fill="#141414">Patsoyoki</text>
<text x="1083.8" y="1191.32" font-family="sans-serif" font-size="14" stroke="#ffffff" stroke-opacity="0.784" stroke-width="2.33" stroke-linejoin="round" paint-order="stroke" fill="#141414">Kem</text>
</svg>
