<?xml version="1.0" encoding="UTF-8" standalone="no"?>
<svg xmlns="http://www.w3.org/2000/svg" width="1866" height="2000" viewBox="0 0 1866 2000">
<rect width="1866" height="2000" fill="#ffffff"/>
<path d="M501.61,1041.76L499,1050.43L495.65,1054.34L502.54,1058.62L502.54,1060.58L497.23,1060.49L485.12,1062.92L479.62,1060.59L476.83,1060.87L472.92,1063.39L471.89,1065.34L464.99,1057.24L463.41,1054.35L460.43,1056.03L448.13,1059.67L449.9,1062.46L459.13,1063.86L463.41,1065.35L448.14,1073.83L438.07,1074.86L435.19,1076.17L431.65,1081.29L427.27,1095.55L424.2,1100.12L418.43,1101.89L415.63,1101.43L413.39,1100.13L410.88,1096.87L419.91,1095.37L423.36,1090.15L424.66,1083.72L424.1,1076.64L422.23,1069.46L430.71,1069.46L437.79,1068.53L443.01,1065.36L445.99,1058.64L441.42,1054.36L439.46,1054.36L439,1058.65L436.49,1063.12L432.85,1066.01L428.66,1065.36L428.1,1062.85L429.59,1059.4L430.05,1055.67L426.32,1052.13L423.25,1056.6L417.85,1058.66L422.22,1049.99L418.4,1048.5L411.51,1042.63L412.25,1041.42L419.52,1040.95L420.64,1038.34L417.84,1032.56L419.89,1030.51L423.71,1031.91L424.64,1026.78L423.14,1019.24L419.88,1013.09L421.18,1009.08L419.6,1003.02L416.61,997.15L413.35,993.43L415.49,991.47L420.06,994.08L426.21,996.22L430.4,999.66L428.64,1006.56L433.76,1009.35L439.54,1019.7L443.83,1023.89L441.41,1028.17L445.23,1025.19L452.03,1015.22L457.9,1013.07L458.83,1015.87L448.12,1032.55L450.26,1032.55L454.36,1028.36L459.49,1029.66L464.43,1034.04L467.78,1038.97L463.5,1044.01L469,1048.39L477.01,1048.66L480.73,1041.39L484.46,1043.07L486.88,1041.76L491.54,1034.87L493.69,1041.39L500.58,1035.79L503.19,1035.23L504.68,1038.96L501.61,1041.76Z" fill-rule="evenodd" fill="#4682b4" fill-opacity="0.471"/>
<polyline points="501.61,1041.76 499,1050.43 495.65,1054.34 502.54,1058.62 502.54,1060.58 497.23,1060.49 485.12,1062.92 479.62,1060.59 476.83,1060.87 472.92,1063.39 471.89,1065.34 464.99,1057.24 463.41,1054.35 460.43,1056.03 448.13,1059.67 449.9,1062.46 459.13,1063.86 463.41,1065.35 448.14,1073.83 438.07,1074.86 435.19,1076.17 431.65,1081.29 427.27,1095.55 424.2,1100.12 418.43,1101.89 415.63,1101.43 413.39,1100.13 410.88,1096.87 419.91,1095.37 423.36,1090.15 424.66,1083.72 424.1,1076.64 422.23,1069.46 430.71,1069.46 437.79,1068.53 443.01,1065.36 445.99,1058.64 441.42,1054.36 439.46,1054.36 439,1058.65 436.49,1063.12 432.85,1066.01 428.66,1065.36 428.1,1062.85 429.59,1059.4 430.05,1055.67 426.32,1052.13 423.25,1056.6 417.85,1058.66 422.22,1049.99 418.4,1048.5 411.51,1042.63 412.25,1041.42 419.52,1040.95 420.64,1038.34 417.84,1032.56 419.89,1030.51 423.71,1031.91 424.64,1026.78 423.14,1019.24 419.88,1013.09 421.18,1009.08 419.6,1003.02 416.61,997.15 413.35,993.43 415.49,991.47 420.06,994.08 426.21,996.22 430.4,999.66 428.64,1006.56 433.76,1009.35 439.54,1019.7 443.83,1023.89 441.41,1028.17 445.23,1025.19 452.03,1015.22 457.9,1013.07 458.83,1015.87 448.12,1032.55 450.26,1032.55 454.36,1028.36 459.49,1029.66 464.43,1034.04 467.78,1038.97 463.5,1044.01 469,1048.39 477.01,1048.66 480.73,1041.39 484.46,1043.07 486.88,1041.76 491.54,1034.87 493.69,1041.39 500.58,1035.79 503.19,1035.23 504.68,1038.96 501.61,1041.76" fill="none" stroke="#1e1e1e" stroke-width="1.52" stroke-linecap="round" stroke-linejoin="round"/>
<text x="389.42" y="1052.52" font-family="sans-serif" font-size="14" stroke="#ffffff" stroke-opacity="0.784" stroke-width="2.33" stroke-linejoin="round" paint-order="stroke" fill="#141414">Lac Onangué</text>
</svg>
