<?xml version="1.0" encoding="UTF-8" standalone="no"?>
<svg xmlns="http://www.w3.org/2000/svg" width="2000" height="1017" viewBox="0 0 2000 1017">
<rect width="2000" height="1017" fill="#ffffff"/>
<polyline points="734.24,1007.58 737.37,1001.31 744.7,993.36 752.81,988.91 787.41,980.8 802.17,981.96 805.98,980.57 813.91,973.67 828.51,956.95 836.92,950.94 843.58,949.94 849.55,952.44 860.87,961.13 868.66,963.17 884.59,961.71 891.73,965.25 900.09,961.65 908.44,962.73 916.4,962.35 923.7,954.44 937.93,922.31 944.78,913.78 950.26,910.06 962.14,905.38 967.79,901.9 970.2,899.04 974.21,889.3 976.67,887.05 986.49,884.1 983.68,873.03 983.97,861.12 983.32,856.33 975.92,841.31 974.31,836.54 973.66,831.04 974.34,827.71 977.19,822.22 977.83,817.93 967.91,811.29 961.21,804.62 957.85,803.1 945.13,805.96 941.9,804.65 936.67,799.03 933.16,797.74 920.38,797.7 918.04,799.49 916.23,802.21 913.91,803.36 910.28,800.56 908.24,792.21 910.27,781.08 914.35,770.36 918.37,763.39 927.85,753.33 1003.76,699.6 1031.21,669.28 1047.53,654.9 1068.74,641.35 1109.35,622.61 1118.91,620.6 1128.04,622.44 1154.87,632.62 1159.27,633.49 1163.66,633.75 1168.17,632.96 1181.52,629.21 1190.36,631.09 1205.23,641.77 1213.15,646 1239.37,648.14 1248.13,650.85 1270.89,666.24 1279.62,669.11 1308.16,674.21 1320.89,679.24 1333.24,686.51 1387.01,703.51 1395.92,708.87 1401.58,717.87 1402.42,732.51 1414.74,755.08 1417.87,758.16 1434.06,767.38 1434.65,770.5 1449.55,776.06 1453.59,780.06 1462.93,797.23 1473.19,801.49 1476.15,807.67 1474.25,819.59 1476.65,826.46 1483.27,838.09 1492.23,862.06 1495.56,873.95 1500.66,876.47 1502.13,879.21 1503.18,892 1504.32,894.59 1518.16,907.57 1523.97,910.88 1536.73,913.6 1548.66,921.49 1555.61,924.58 1588.63,927.68 1607.86,933.95 1617.87,932.88 1621.78,933.6 1624.6,935.27 1630.96,941.57 1636.66,943.89 1642.1,956.76 1646.49,962.64 1649.13,963.65 1658.68,964.72 1669.15,973.61 1671.95,974.96 1683.12,974.37 1686.04,975.9 1687.57,979.41 1688.19,987.59 1689.34,990.64 1695.86,993.92 1702.42,993.48 1707.59,995.11 1708.51,998.92" fill="none" stroke="#1e1e1e" stroke-width="1.48" stroke-linecap="round" stroke-linejoin="round"/>
<polyline points="632.74,157.21 623.51,151.7 617.24,146.8 615.12,142.71 612.02,102.48 612.8,91.88 617.94,85.18 627.21,78.31 637.83,67.25 641.62,59.65 642.68,55.59 642.43,49.28 643.83,43.19 652.02,24.17" fill="none" stroke="#1e1e1e" stroke-width="1.48" stroke-linecap="round" stroke-linejoin="round"/>
<text x="1113.64" y="631.76" font-family="sans-serif" font-size="14" stroke="#ffffff" stroke-opacity="0.784" stroke-width="2.33" stroke-linejoin="round" paint-order="stroke" fill="#141414">Kura</text>
<text x="588.62" y="95.21" font-family="sans-serif" font-size="14" stroke="#ffffff" stroke-opacity="0.784" stroke-width="2.33" stroke-linejoin="round" paint-order="stroke" fill="#141414">Kuban</text>
</svg>
