<?xml version="1.0" encoding="UTF-8" standalone="no"?>
<svg xmlns="http://www.w3.org/2000/svg" width="2000" height="1017" viewBox="0 0 2000 1017">
<rect width="2000" height="1017" fill="#ffffff"/>
<path d="M51.47,85.58L52.88,71.27L62.08,59.59L62.97,51.46L68.77,40.03L78.45,29.92L77.41,20.56L96.24,13.9L112.26,14.5L125.62,10.72L136.07,17.31L167.03,25.4L173.58,23.3L186.11,27.22L193.39,36.79L210.47,39.69L222.36,29.2L238.02,23.49L245.3,33.43L263.93,41L269.66,47.01L283.82,54.03L295.63,54.77L303.13,58.49L301.76,66.6L311.76,71.94L317.41,81.42L332.76,77.19L342.27,90.27L357.07,95.72L359.18,90.73L393.4,98.61L398.29,106.11L408.98,107.54L411.88,116.15L426.93,112.63L433.33,104.63L447.05,109.22L447.04,122.03L453.11,128.38L459.9,127.76L467.89,137.25L483.57,143.81L488.48,152.07L505.23,162.9L515.53,156.9L522.72,165.19L533.64,156.48L540.12,157.77L556.55,171.66L569.06,168.01L574.66,155.69L580.63,153.85L584.73,161.68L604.14,168.61L618.85,168.46L622.66,178.22L634.92,171.81L643.4,172.72L649.53,179.02L644.92,184.38L645.37,192.54L633.99,214.89L627.42,218.28L622.41,229.85L613.32,230.87L593.3,241.02L581.96,240.05L574.73,248.07L573.16,256.2L582.46,260.24L584.64,266.1L580.26,273.01L584.84,287.06L595.02,290.34L592.94,295.74L579.47,302.11L575.07,309.41L580.56,320.76L581.04,342.89L588.05,366.3L594.16,376.11L590.35,382.25L593.91,390.85L579.53,396.82L569.08,406.34L560.21,422.87L553.6,425.08L529.28,440.53L520.14,439.58L507.33,450.19L509.84,467.71L494.94,468.18L478.14,476.75L473.6,434.74L469.34,407.08L460.62,375.06L453.35,355.88L435.75,339.95L414.78,335.18L406.09,329.14L389.99,323.7L376.24,326.84L367.46,324.67L355.16,305.32L348.58,264.38L342.68,251.41L336.87,245.82L325.2,246.66L318.81,251.91L308.89,241.15L304.87,232.88L292.01,216.59L287.27,213.73L257.36,208.56L239.22,208.38L226.36,202.53L216.62,205.71L207.57,205.03L198.12,190.74L188.97,184.61L178.45,185.8L161.03,173.16L149.38,174.31L142.03,181.81L125.59,166.46L122.52,134.12L116.99,115.27L95.87,105.94L72.46,90.29L51.47,85.58Z" fill-rule="evenodd" fill="#4682b4" fill-opacity="0.471"/>
<polyline points="51.47,85.58 52.88,71.27 62.08,59.59 62.97,51.46 68.77,40.03 78.45,29.92 77.41,20.56 96.24,13.9 112.26,14.5 125.62,10.72 136.07,17.31 167.03,25.4 173.58,23.3 186.11,27.22 193.39,36.79 210.47,39.69 222.36,29.2 238.02,23.49 245.3,33.43 263.93,41 269.66,47.01 283.82,54.03 295.63,54.77 303.13,58.49 301.76,66.6 311.76,71.94 317.41,81.42 332.76,77.19 342.27,90.27 357.07,95.72 359.18,90.73 393.4,98.61 398.29,106.11 408.98,107.54 411.88,116.15 426.93,112.63 433.33,104.63 447.05,109.22 447.04,122.03 453.11,128.38 459.9,127.76 467.89,137.25 483.57,143.81 488.48,152.07 505.23,162.9 515.53,156.9 522.72,165.19 533.64,156.48 540.12,157.77 556.55,171.66 569.06,168.01 574.66,155.69 580.63,153.85 584.73,161.68 604.14,168.61 618.85,168.46 622.66,178.22 634.92,171.81 643.4,172.72 649.53,179.02 644.92,184.38 645.37,192.54 633.99,214.89 627.42,218.28 622.41,229.85 613.32,230.87 593.3,241.02 581.96,240.05 574.73,248.07 573.16,256.2 582.46,260.24 584.64,266.1 580.26,273.01 584.84,287.06 595.02,290.34 592.94,295.74 579.47,302.11 575.07,309.41 580.56,320.76 581.04,342.89 588.05,366.3 594.16,376.11 590.35,382.25 593.91,390.85 579.53,396.82 569.08,406.34 560.21,422.87 553.6,425.08 529.28,440.53 520.14,439.58 507.33,450.19 509.84,467.71 494.94,468.18 478.14,476.75 473.6,434.74 469.34,407.08 460.62,375.06 453.35,355.88 435.75,339.95 414.78,335.18 406.09,329.14 389.99,323.7 376.24,326.84 367.46,324.67 355.16,305.32 348.58,264.38 342.68,251.41 336.87,245.82 325.2,246.66 318.81,251.91 308.89,241.15 304.87,232.88 292.01,216.59 287.27,213.73 257.36,208.56 239.22,208.38 226.36,202.53 216.62,205.71 207.57,205.03 198.12,190.74 188.97,184.61 178.45,185.8 161.03,173.16 149.38,174.31 142.03,181.81 125.59,166.46 122.52,134.12 116.99,115.27 95.87,105.94 72.46,90.29 51.47,85.58" fill="none" stroke="#1e1e1e" stroke-width="1.48" stroke-linecap="round" stroke-linejoin="round"/>
<path d="M536.93,672.02L543.13,680.28L556.48,677.42L568.23,682.68L578.14,677.42L591.63,683.08L596,698.29L609.82,702.39L615.79,708.7L631.06,712.42L638.66,707.1L643.81,711.06L660.6,710.52L666.21,723.02L681.36,715.46L692.93,715.99L696.75,710.99L706.57,711.89L718.26,701.54L727.19,704.75L730.83,715.27L745.55,718.53L753.78,734.53L745.78,753.08L751.47,762.84L753.69,773.34L762.93,776.53L768.68,782.8L776.91,802.28L769.3,809.58L770.37,818.52L765.66,825.46L767.93,831.31L755.94,838.57L750.34,845.88L752.24,859.49L738.56,859.74L728.7,857.3L717.46,847.47L713.08,848.97L693.38,842.53L680.96,836.55L667.03,834.42L660.31,837.05L653.16,828.02L647.6,831.05L626.11,829.57L613.81,835.59L599.63,831.1L597.13,824.46L587.82,824.69L575.47,833.02L566.49,848.01L556.52,852.1L549.71,858.96L544.58,853.05L527.6,843.02L516.87,841.65L518.45,835.08L504.14,837.91L495.16,836.17L490.34,830.25L469.87,822.44L473.83,813.6L477.79,791.17L491.2,774.37L507.81,770.82L521.24,751.29L528.28,731.63L536.44,713.54L539.43,692.64L536.93,672.02Z" fill-rule="evenodd" fill="#4682b4" fill-opacity="0.471"/>
<polyline points="536.93,672.02 543.13,680.28 556.48,677.42 568.23,682.68 578.14,677.42 591.63,683.08 596,698.29 609.82,702.39 615.79,708.7 631.06,712.42 638.66,707.1 643.81,711.06 660.6,710.52 666.21,723.02 681.36,715.46 692.93,715.99 696.75,710.99 706.57,711.89 718.26,701.54 727.19,704.75 730.83,715.27 745.55,718.53 753.78,734.53 745.78,753.08 751.47,762.84 753.69,773.34 762.93,776.53 768.68,782.8 776.91,802.28 769.3,809.58 770.37,818.52 765.66,825.46 767.93,831.31 755.94,838.57 750.34,845.88 752.24,859.49 738.56,859.74 728.7,857.3 717.46,847.47 713.08,848.97 693.38,842.53 680.96,836.55 667.03,834.42 660.31,837.05 653.16,828.02 647.6,831.05 626.11,829.57 613.81,835.59 599.63,831.1 597.13,824.46 587.82,824.69 575.47,833.02 566.49,848.01 556.52,852.1 549.71,858.96 544.58,853.05 527.6,843.02 516.87,841.65 518.45,835.08 504.14,837.91 495.16,836.17 490.34,830.25 469.87,822.44 473.83,813.6 477.79,791.17 491.2,774.37 507.81,770.82 521.24,751.29 528.28,731.63 536.44,713.54 539.43,692.64 536.93,672.02" fill="none" stroke="#1e1e1e" stroke-width="1.48" stroke-linecap="round" stroke-linejoin="round"/>
<path d="M523.1,610.81L522.4,602.26L534.34,595.89L535.94,587.38L542.38,581.29L557.29,584.67L581.55,579.66L590.01,572.82L596.55,577.59L613.55,575.92L624.72,578.81L626.37,583.88L638.76,582.9L643.48,594.62L658.72,596.39L669.99,593.05L666.65,605.81L673.15,614.82L690.62,623.59L699.26,624.09L706.28,615.24L719.22,617.72L725.3,640.69L730.72,646.57L740.83,645.13L752.83,656.51L762.06,657.38L771.53,663.29L787.7,663.04L793.99,669.31L797.08,680.59L794.94,694.54L795.99,706.97L787.33,704.96L778.89,711.87L773.3,721.13L758.88,717.11L745.55,718.53L730.83,715.27L727.19,704.75L718.26,701.54L706.57,711.89L696.75,710.99L692.93,715.99L681.36,715.46L666.21,723.02L660.6,710.52L643.81,711.06L638.66,707.1L631.06,712.42L615.79,708.7L609.82,702.39L596,698.29L591.63,683.08L578.14,677.42L568.23,682.68L556.48,677.42L543.13,680.28L536.93,672.02L534.46,635.1L523.1,610.81Z" fill-rule="evenodd" fill="#4682b4" fill-opacity="0.471"/>
<polyline points="523.1,610.81 522.4,602.26 534.34,595.89 535.94,587.38 542.38,581.29 557.29,584.67 581.55,579.66 590.01,572.82 596.55,577.59 613.55,575.92 624.72,578.81 626.37,583.88 638.76,582.9 643.48,594.62 658.72,596.39 669.99,593.05 666.65,605.81 673.15,614.82 690.62,623.59 699.26,624.09 706.28,615.24 719.22,617.72 725.3,640.69 730.72,646.57 740.83,645.13 752.83,656.51 762.06,657.38 771.53,663.29 787.7,663.04 793.99,669.31 797.08,680.59 794.94,694.54 795.99,706.97 787.33,704.96 778.89,711.87 773.3,721.13 758.88,717.11 745.55,718.53 730.83,715.27 727.19,704.75 718.26,701.54 706.57,711.89 696.75,710.99 692.93,715.99 681.36,715.46 666.21,723.02 660.6,710.52 643.81,711.06 638.66,707.1 631.06,712.42 615.79,708.7 609.82,702.39 596,698.29 591.63,683.08 578.14,677.42 568.23,682.68 556.48,677.42 543.13,680.28 536.93,672.02 534.46,635.1 523.1,610.81" fill="none" stroke="#1e1e1e" stroke-width="1.48" stroke-linecap="round" stroke-linejoin="round"/>
<path d="M669.99,593.05L687.76,599.49L691.3,592.16L688.8,585.53L692.35,577.81L688.46,566.9L690.28,559.55L687.53,549.42L708.84,521.35L712.42,510.14L736.26,480.91L733.47,474.29L739.95,457.67L747.45,451.54L749.85,441.08L758.77,435.74L758.25,430.3L784.63,422.4L789.48,423.61L785.04,440.64L790.59,460.1L804.36,457.49L820.78,443.26L834.72,454.23L844.79,446.92L870.78,455.22L887.02,471.21L879.23,481.65L886.93,490.23L894.68,488.32L909.54,498.47L916.71,498.89L924.18,494.64L935.06,496.61L946.83,491.21L962.91,472.61L980.39,463.32L1006.73,464.88L1011.88,468.75L1019.9,467.59L1033.08,471.84L1039.65,464.46L1045.68,469.88L1055.99,473.35L1062.86,471.39L1063.76,485.36L1072.09,492.32L1064.1,504.76L1072.72,511.34L1083.34,512.47L1085.67,522.94L1070.2,533.85L1067.07,543.95L1067.98,559.86L1073.74,563.73L1065.15,576.17L1059.72,590.93L1053.98,599.48L1038.45,612.32L1033.58,626.29L1036.75,630.56L1033.6,640.27L1026.39,642.99L1014.86,655.03L1020.93,666.67L1002.74,674.44L994.08,682.98L973.27,691.5L953.9,696.52L943.48,702.32L912.53,707.27L891.43,705.25L881.84,714.13L876.63,714.49L867.13,706.68L857.56,710.9L835.05,704.16L832.12,709.96L820.22,715.7L807.79,714.05L795.99,706.97L794.94,694.54L797.08,680.59L793.99,669.31L787.7,663.04L771.53,663.29L762.06,657.38L752.83,656.51L740.83,645.13L730.72,646.57L725.3,640.69L719.22,617.72L706.28,615.24L699.26,624.09L690.62,623.59L673.15,614.82L666.65,605.81L669.99,593.05Z" fill-rule="evenodd" fill="#4682b4" fill-opacity="0.471"/>
<polyline points="669.99,593.05 687.76,599.49 691.3,592.16 688.8,585.53 692.35,577.81 688.46,566.9 690.28,559.55 687.53,549.42 708.84,521.35 712.42,510.14 736.26,480.91 733.47,474.29 739.95,457.67 747.45,451.54 749.85,441.08 758.77,435.74 758.25,430.3 784.63,422.4 789.48,423.61 785.04,440.64 790.59,460.1 804.36,457.49 820.78,443.26 834.72,454.23 844.79,446.92 870.78,455.22 887.02,471.21 879.23,481.65 886.93,490.23 894.68,488.32 909.54,498.47 916.71,498.89 924.18,494.64 935.06,496.61 946.83,491.21 962.91,472.61 980.39,463.32 1006.73,464.88 1011.88,468.75 1019.9,467.59 1033.08,471.84 1039.65,464.46 1045.68,469.88 1055.99,473.35 1062.86,471.39 1063.76,485.36 1072.09,492.32 1064.1,504.76 1072.72,511.34 1083.34,512.47 1085.67,522.94 1070.2,533.85 1067.07,543.95 1067.98,559.86 1073.74,563.73 1065.15,576.17 1059.72,590.93 1053.98,599.48 1038.45,612.32 1033.58,626.29 1036.75,630.56 1033.6,640.27 1026.39,642.99 1014.86,655.03 1020.93,666.67 1002.74,674.44 994.08,682.98 973.27,691.5 953.9,696.52 943.48,702.32 912.53,707.27 891.43,705.25 881.84,714.13 876.63,714.49 867.13,706.68 857.56,710.9 835.05,704.16 832.12,709.96 820.22,715.7 807.79,714.05 795.99,706.97 794.94,694.54 797.08,680.59 793.99,669.31 787.7,663.04 771.53,663.29 762.06,657.38 752.83,656.51 740.83,645.13 730.72,646.57 725.3,640.69 719.22,617.72 706.28,615.24 699.26,624.09 690.62,623.59 673.15,614.82 666.65,605.81 669.99,593.05" fill="none" stroke="#1e1e1e" stroke-width="1.48" stroke-linecap="round" stroke-linejoin="round"/>
<path d="M1553.99,415.1L1558.31,416.56L1561.22,431.24L1566.99,433.05L1585.3,421.36L1606.89,427.04L1615.08,422.95L1620.58,425.53L1628.77,421.44L1641.5,437.8L1652.15,439.84L1662.41,438.4L1666.35,446.45L1672.41,448.22L1688.02,443.13L1688.38,466.02L1677.48,486.13L1683.38,512.75L1679.25,519.08L1668.6,518.21L1659.84,523.49L1654.58,520.14L1642.84,542.97L1646.53,552.19L1654.54,561.29L1661.45,561.49L1675.46,568.87L1683.72,576.02L1683.92,583.39L1695.13,592.78L1714.85,587.56L1726.74,590.31L1734.23,599.79L1737.1,618.73L1744.4,621.62L1753.66,613.18L1768.94,622.41L1781.5,618.13L1782.67,627.8L1790.85,631.04L1801.08,626.04L1804.77,632.91L1826.05,622.11L1831.71,627.35L1829.13,636.37L1837.66,641.13L1839.96,649.21L1851.43,655.03L1856.39,648.25L1864.92,652.61L1874.07,649.96L1880.86,662.14L1877.4,670.42L1879.64,676.55L1875.11,687.2L1864.38,694.96L1848.57,714.54L1823.27,720.06L1813.52,732.03L1815.85,749.81L1822.39,763.19L1819.21,772.23L1834.15,784.93L1836.1,773.99L1844.25,783.03L1856.3,778.73L1861.43,784.38L1863.22,794.03L1856.11,790L1849.26,793.73L1851.94,804.13L1857.04,808.61L1860.09,820.93L1868.09,825.31L1875.94,825.04L1888.31,837.41L1905.9,848.81L1917.15,853.83L1930.93,856.04L1954.63,866.4L1954.66,874.56L1969.16,887.59L1970.69,896.85L1979.11,903.12L1970.58,908.9L1971.2,917.42L1961.93,926.71L1962.65,937.95L1958.9,946.64L1960.63,961.34L1953.22,974.05L1938.11,969.19L1929.33,969.13L1913.49,992.24L1906.63,988.61L1902.65,975.94L1876.83,974.14L1876.35,968.72L1853.11,948.17L1849.4,942.08L1837.24,945.6L1822.8,942.2L1803.23,942.45L1798.77,949.2L1786.63,944.15L1768.94,948.59L1754.07,949.82L1742.53,945.12L1734.42,937.59L1713.87,933.92L1696.02,922.39L1679.2,905.38L1690.37,887.21L1680.28,880.89L1673.36,883.41L1662.91,874.37L1649.28,876.67L1638.18,864.15L1624.36,859.07L1606,846.32L1598.96,855.81L1587.65,857.64L1579.85,847.73L1563.1,840.74L1559.99,831.49L1564.23,826.35L1545.03,812.41L1537.48,812.97L1521.29,788.86L1533.48,775.4L1528.36,766.97L1526.41,756.92L1531.15,748.28L1524.86,738.71L1513.7,731.18L1507.61,730.92L1498.61,715.18L1492.18,697.85L1484.64,696.44L1489.62,685.48L1477.07,679.12L1497.34,667.08L1510.83,676.89L1524.29,671.18L1527.6,663.73L1508.92,654.42L1495.34,653.53L1489.99,645.88L1490.96,636.93L1497.73,629.03L1485.29,612.59L1491.39,600.82L1483.22,595.16L1482.79,588.18L1491.35,584.52L1495.25,563.87L1497.18,545.59L1503.57,534.59L1503.99,527.2L1513.67,523.12L1520.31,511.33L1536.84,506.32L1536.24,491.97L1531.26,487.03L1529.49,471.93L1536.17,462.86L1544.1,458.8L1541.28,434.8L1553.99,415.1Z" fill-rule="evenodd" fill="#4682b4" fill-opacity="0.471"/>
<polyline points="1553.99,415.1 1558.31,416.56 1561.22,431.24 1566.99,433.05 1585.3,421.36 1606.89,427.04 1615.08,422.95 1620.58,425.53 1628.77,421.44 1641.5,437.8 1652.15,439.84 1662.41,438.4 1666.35,446.45 1672.41,448.22 1688.02,443.13 1688.38,466.02 1677.48,486.13 1683.38,512.75 1679.25,519.08 1668.6,518.21 1659.84,523.49 1654.58,520.14 1642.84,542.97 1646.53,552.19 1654.54,561.29 1661.45,561.49 1675.46,568.87 1683.72,576.02 1683.92,583.39 1695.13,592.78 1714.85,587.56 1726.74,590.31 1734.23,599.79 1737.1,618.73 1744.4,621.62 1753.66,613.18 1768.94,622.41 1781.5,618.13 1782.67,627.8 1790.85,631.04 1801.08,626.04 1804.77,632.91 1826.05,622.11 1831.71,627.35 1829.13,636.37 1837.66,641.13 1839.96,649.21 1851.43,655.03 1856.39,648.25 1864.92,652.61 1874.07,649.96 1880.86,662.14 1877.4,670.42 1879.64,676.55 1875.11,687.2 1864.38,694.96 1848.57,714.54 1823.27,720.06 1813.52,732.03 1815.85,749.81 1822.39,763.19 1819.21,772.23 1834.15,784.93 1836.1,773.99 1844.25,783.03 1856.3,778.73 1861.43,784.38 1863.22,794.03 1856.11,790 1849.26,793.73 1851.94,804.13 1857.04,808.61 1860.09,820.93 1868.09,825.31 1875.94,825.04 1888.31,837.41 1905.9,848.81 1917.15,853.83 1930.93,856.04 1954.63,866.4 1954.66,874.56 1969.16,887.59 1970.69,896.85 1979.11,903.12 1970.58,908.9 1971.2,917.42 1961.93,926.71 1962.65,937.95 1958.9,946.64 1960.63,961.34 1953.22,974.05 1938.11,969.19 1929.33,969.13 1913.49,992.24 1906.63,988.61 1902.65,975.94 1876.83,974.14 1876.35,968.72 1853.11,948.17 1849.4,942.08 1837.24,945.6 1822.8,942.2 1803.23,942.45 1798.77,949.2 1786.63,944.15 1768.94,948.59 1754.07,949.82 1742.53,945.12 1734.42,937.59 1713.87,933.92 1696.02,922.39 1679.2,905.38 1690.37,887.21 1680.28,880.89 1673.36,883.41 1662.91,874.37 1649.28,876.67 1638.18,864.15 1624.36,859.07 1606,846.32 1598.96,855.81 1587.65,857.64 1579.85,847.73 1563.1,840.74 1559.99,831.49 1564.23,826.35 1545.03,812.41 1537.48,812.97 1521.29,788.86 1533.48,775.4 1528.36,766.97 1526.41,756.92 1531.15,748.28 1524.86,738.71 1513.7,731.18 1507.61,730.92 1498.61,715.18 1492.18,697.85 1484.64,696.44 1489.62,685.48 1477.07,679.12 1497.34,667.08 1510.83,676.89 1524.29,671.18 1527.6,663.73 1508.92,654.42 1495.34,653.53 1489.99,645.88 1490.96,636.93 1497.73,629.03 1485.29,612.59 1491.39,600.82 1483.22,595.16 1482.79,588.18 1491.35,584.52 1495.25,563.87 1497.18,545.59 1503.57,534.59 1503.99,527.2 1513.67,523.12 1520.31,511.33 1536.84,506.32 1536.24,491.97 1531.26,487.03 1529.49,471.93 1536.17,462.86 1544.1,458.8 1541.28,434.8 1553.99,415.1" fill="none" stroke="#1e1e1e" stroke-width="1.48" stroke-linecap="round" stroke-linejoin="round"/>
<path d="M1151.24,732.19L1154.47,739.54L1167.8,740.23L1171.3,743.7L1188.36,740.86L1209.81,743.4L1229.19,740.13L1248.9,741.87L1255.81,738.31L1272.87,735.8L1279.74,729.12L1292.31,739.85L1302.78,743.21L1315.22,742.28L1322.66,735.2L1331.61,733.14L1342.66,736.48L1350.29,743.75L1361.22,758.73L1356.09,764.62L1367.64,780.76L1386.74,778.14L1400.15,782.19L1410.86,780.46L1420.02,772.93L1432.78,773.1L1444.5,779.88L1453.16,777.39L1471.25,767.74L1477.11,755.98L1474.79,740.89L1468.73,741.78L1463.36,733.34L1448.49,727.79L1437.51,729.16L1437.03,718.68L1442.16,714.32L1446.54,700.27L1457.95,691.91L1492.18,697.85L1498.61,715.18L1507.61,730.92L1513.7,731.18L1524.86,738.71L1531.15,748.28L1526.41,756.92L1528.36,766.97L1533.48,775.4L1521.29,788.86L1537.48,812.97L1545.03,812.41L1564.23,826.35L1559.99,831.49L1563.1,840.74L1557.37,844.36L1549.19,842.99L1546.17,851.21L1531,862.8L1522.07,867.26L1501.64,893.69L1498.38,891.04L1478.94,910.83L1468.56,916.85L1464.07,926.64L1449.77,926.52L1445.28,920L1431.86,920.24L1425.57,910.64L1418.65,915.42L1418.6,929.78L1423.39,936.69L1446.88,944.04L1441.68,947.24L1414.42,941.5L1395.12,939.87L1388.47,943.86L1377.24,935.1L1363.21,934.15L1359.76,937.69L1357.64,952.86L1351.16,948.68L1344.48,951.88L1337.67,944.99L1332.81,952.43L1322.65,957.61L1303.57,950.09L1296.47,942.8L1284.19,941L1276.07,946.14L1262.64,946.28L1252.61,936.29L1246.51,938.68L1237.71,934.89L1230.9,955.91L1220.11,957.18L1205.76,953.42L1193.81,956.23L1169.92,965.33L1173.93,954.83L1169.76,942.43L1160.04,928.91L1164.01,911.81L1170.93,900.5L1162.66,883.09L1152.09,870.35L1155.52,860.24L1153.69,845.89L1145.79,838.56L1143.71,830.43L1132.32,820.4L1118.11,825.9L1092.54,826.01L1093.38,815.53L1101.96,784.84L1100.71,761.55L1103.28,754.17L1113.98,748.3L1133.73,759.07L1137.16,750.12L1145.54,745.81L1144.63,739.99L1151.24,732.19Z" fill-rule="evenodd" fill="#4682b4" fill-opacity="0.471"/>
<polyline points="1151.24,732.19 1154.47,739.54 1167.8,740.23 1171.3,743.7 1188.36,740.86 1209.81,743.4 1229.19,740.13 1248.9,741.87 1255.81,738.31 1272.87,735.8 1279.74,729.12 1292.31,739.85 1302.78,743.21 1315.22,742.28 1322.66,735.2 1331.61,733.14 1342.66,736.48 1350.29,743.75 1361.22,758.73 1356.09,764.62 1367.64,780.76 1386.74,778.14 1400.15,782.19 1410.86,780.46 1420.02,772.93 1432.78,773.1 1444.5,779.88 1453.16,777.39 1471.25,767.74 1477.11,755.98 1474.79,740.89 1468.73,741.78 1463.36,733.34 1448.49,727.79 1437.51,729.16 1437.03,718.68 1442.16,714.32 1446.54,700.27 1457.95,691.91 1492.18,697.85 1498.61,715.18 1507.61,730.92 1513.7,731.18 1524.86,738.71 1531.15,748.28 1526.41,756.92 1528.36,766.97 1533.48,775.4 1521.29,788.86 1537.48,812.97 1545.03,812.41 1564.23,826.35 1559.99,831.49 1563.1,840.74 1557.37,844.36 1549.19,842.99 1546.17,851.21 1531,862.8 1522.07,867.26 1501.64,893.69 1498.38,891.04 1478.94,910.83 1468.56,916.85 1464.07,926.64 1449.77,926.52 1445.28,920 1431.86,920.24 1425.57,910.64 1418.65,915.42 1418.6,929.78 1423.39,936.69 1446.88,944.04 1441.68,947.24 1414.42,941.5 1395.12,939.87 1388.47,943.86 1377.24,935.1 1363.21,934.15 1359.76,937.69 1357.64,952.86 1351.16,948.68 1344.48,951.88 1337.67,944.99 1332.81,952.43 1322.65,957.61 1303.57,950.09 1296.47,942.8 1284.19,941 1276.07,946.14 1262.64,946.28 1252.61,936.29 1246.51,938.68 1237.71,934.89 1230.9,955.91 1220.11,957.18 1205.76,953.42 1193.81,956.23 1169.92,965.33 1173.93,954.83 1169.76,942.43 1160.04,928.91 1164.01,911.81 1170.93,900.5 1162.66,883.09 1152.09,870.35 1155.52,860.24 1153.69,845.89 1145.79,838.56 1143.71,830.43 1132.32,820.4 1118.11,825.9 1092.54,826.01 1093.38,815.53 1101.96,784.84 1100.71,761.55 1103.28,754.17 1113.98,748.3 1133.73,759.07 1137.16,750.12 1145.54,745.81 1144.63,739.99 1151.24,732.19" fill="none" stroke="#1e1e1e" stroke-width="1.48" stroke-linecap="round" stroke-linejoin="round"/>
<path d="M1245.7,397.66L1250.34,376.66L1261.39,369.55L1270.13,360.14L1279.88,364.69L1291.59,366.49L1301.23,362.11L1324.43,369.18L1327.24,366.43L1321.67,355.25L1324.43,347.83L1334.37,345.76L1344.42,350.66L1360.94,350.04L1372.85,345.97L1382.62,351.26L1393.91,361.94L1391.72,367.41L1398.35,389.43L1409.1,400.12L1416.21,398.44L1414.63,389.54L1417.84,377.07L1426.81,367.6L1426.91,357.5L1431.89,348.49L1448.67,346.63L1459.32,351.86L1475.32,368.64L1487.17,361.8L1509.42,362.12L1519.16,377.05L1526.65,380.39L1536.98,395.69L1538.24,401.09L1553.99,415.1L1541.28,434.8L1544.1,458.8L1536.17,462.86L1529.49,471.93L1531.26,487.03L1536.24,491.97L1536.84,506.32L1520.31,511.33L1513.67,523.12L1503.99,527.2L1503.57,534.59L1497.18,545.59L1495.25,563.87L1491.35,584.52L1482.79,588.18L1483.22,595.16L1491.39,600.82L1485.29,612.59L1497.73,629.03L1490.96,636.93L1489.99,645.88L1495.34,653.53L1508.92,654.42L1527.6,663.73L1524.29,671.18L1510.83,676.89L1497.34,667.08L1477.07,679.12L1489.62,685.48L1484.64,696.44L1457.95,691.91L1446.54,700.27L1442.16,714.32L1433.1,708.66L1416.83,704.67L1405.76,699.81L1398.02,704.21L1395.24,711.24L1381.94,711.45L1373.44,723.22L1381.39,732.03L1378.64,741.39L1383.08,747.53L1372.79,757L1361.22,758.73L1350.29,743.75L1342.66,736.48L1331.61,733.14L1322.66,735.2L1319.08,726.71L1327.59,713.79L1328.25,698.25L1331.88,688.89L1344.06,692.21L1347.05,678.59L1340.23,665.49L1333.21,659.37L1329.04,649.73L1327.38,633.06L1321.77,623.04L1334.17,624.04L1331.01,603.51L1346.28,583.12L1345.01,574.99L1360.04,560.41L1357.05,552.3L1359.52,544.12L1358.2,532.49L1351.67,517.84L1346.43,512.48L1355.12,498.77L1353.91,494.52L1336.92,488.94L1331.95,481.63L1318.75,480.26L1308.49,462.54L1282.39,458.19L1275.71,449.73L1287.67,444.94L1278.32,428.36L1271.44,426.49L1267.33,416.45L1256.36,406.48L1249.26,410.04L1244.05,403.89L1245.7,397.66Z" fill-rule="evenodd" fill="#4682b4" fill-opacity="0.471"/>
<polyline points="1245.7,397.66 1250.34,376.66 1261.39,369.55 1270.13,360.14 1279.88,364.69 1291.59,366.49 1301.23,362.11 1324.43,369.18 1327.24,366.43 1321.67,355.25 1324.43,347.83 1334.37,345.76 1344.42,350.66 1360.94,350.04 1372.85,345.97 1382.62,351.26 1393.91,361.94 1391.72,367.41 1398.35,389.43 1409.1,400.12 1416.21,398.44 1414.63,389.54 1417.84,377.07 1426.81,367.6 1426.91,357.5 1431.89,348.49 1448.67,346.63 1459.32,351.86 1475.32,368.64 1487.17,361.8 1509.42,362.12 1519.16,377.05 1526.65,380.39 1536.98,395.69 1538.24,401.09 1553.99,415.1 1541.28,434.8 1544.1,458.8 1536.17,462.86 1529.49,471.93 1531.26,487.03 1536.24,491.97 1536.84,506.32 1520.31,511.33 1513.67,523.12 1503.99,527.2 1503.57,534.59 1497.18,545.59 1495.25,563.87 1491.35,584.52 1482.79,588.18 1483.22,595.16 1491.39,600.82 1485.29,612.59 1497.73,629.03 1490.96,636.93 1489.99,645.88 1495.34,653.53 1508.92,654.42 1527.6,663.73 1524.29,671.18 1510.83,676.89 1497.34,667.08 1477.07,679.12 1489.62,685.48 1484.64,696.44 1457.95,691.91 1446.54,700.27 1442.16,714.32 1433.1,708.66 1416.83,704.67 1405.76,699.81 1398.02,704.21 1395.24,711.24 1381.94,711.45 1373.44,723.22 1381.39,732.03 1378.64,741.39 1383.08,747.53 1372.79,757 1361.22,758.73 1350.29,743.75 1342.66,736.48 1331.61,733.14 1322.66,735.2 1319.08,726.71 1327.59,713.79 1328.25,698.25 1331.88,688.89 1344.06,692.21 1347.05,678.59 1340.23,665.49 1333.21,659.37 1329.04,649.73 1327.38,633.06 1321.77,623.04 1334.17,624.04 1331.01,603.51 1346.28,583.12 1345.01,574.99 1360.04,560.41 1357.05,552.3 1359.52,544.12 1358.2,532.49 1351.67,517.84 1346.43,512.48 1355.12,498.77 1353.91,494.52 1336.92,488.94 1331.95,481.63 1318.75,480.26 1308.49,462.54 1282.39,458.19 1275.71,449.73 1287.67,444.94 1278.32,428.36 1271.44,426.49 1267.33,416.45 1256.36,406.48 1249.26,410.04 1244.05,403.89 1245.7,397.66" fill="none" stroke="#1e1e1e" stroke-width="1.48" stroke-linecap="round" stroke-linejoin="round"/>
<path d="M895.22,296.22L897.21,296.62L904.9,294.32L914.52,306L924.52,291.29L920.01,280.79L935.38,269.97L935.96,266.09L943.62,268.44L947.01,277.76L962.06,283.61L984.79,287.13L991.04,296.83L1007.53,294.12L1030.28,298.37L1043.09,306.11L1053.9,305.31L1066.73,316.93L1067.61,326.24L1073.88,326.61L1080.16,333.57L1086.99,330.83L1096.43,340.89L1116.11,347.79L1120.41,352.42L1118.48,364.85L1108.55,375.76L1098.87,381.24L1094.34,390.18L1078.37,394.12L1076.1,400.34L1059.86,415.91L1063.32,428.32L1070.2,432.57L1065.66,444.61L1066.26,455.47L1060.83,460.14L1062.86,471.39L1055.99,473.35L1045.68,469.88L1039.65,464.46L1033.08,471.84L1019.9,467.59L1011.88,468.75L1006.73,464.88L980.39,463.32L962.91,472.61L946.83,491.21L935.06,496.61L924.18,494.64L916.71,498.89L909.54,498.47L894.68,488.32L886.93,490.23L879.23,481.65L887.02,471.21L870.78,455.22L844.79,446.92L834.72,454.23L820.78,443.26L804.36,457.49L790.59,460.1L785.04,440.64L789.48,423.61L784.63,422.4L778.98,414.59L768.35,391.59L759.86,383.74L769.72,367.54L768.35,361.32L753.97,345.65L744.06,339.34L726.44,335.27L717.69,328.96L711.24,319.95L714.51,308.35L720.01,300.65L745.36,297.44L744.08,283.45L751.54,276.93L755.46,282.02L768.24,283.69L777.56,289.6L786.4,286.97L797.74,289.78L809.34,297.25L824.18,290.76L827.27,294.67L837.86,284.26L848.06,290.15L866.8,294.53L869.61,300.37L878.42,300.41L895.22,296.22Z" fill-rule="evenodd" fill="#4682b4" fill-opacity="0.471"/>
<polyline points="895.22,296.22 897.21,296.62 904.9,294.32 914.52,306 924.52,291.29 920.01,280.79 935.38,269.97 935.96,266.09 943.62,268.44 947.01,277.76 962.06,283.61 984.79,287.13 991.04,296.83 1007.53,294.12 1030.28,298.37 1043.09,306.11 1053.9,305.31 1066.73,316.93 1067.61,326.24 1073.88,326.61 1080.16,333.57 1086.99,330.83 1096.43,340.89 1116.11,347.79 1120.41,352.42 1118.48,364.85 1108.55,375.76 1098.87,381.24 1094.34,390.18 1078.37,394.12 1076.1,400.34 1059.86,415.91 1063.32,428.32 1070.2,432.57 1065.66,444.61 1066.26,455.47 1060.83,460.14 1062.86,471.39 1055.99,473.35 1045.68,469.88 1039.65,464.46 1033.08,471.84 1019.9,467.59 1011.88,468.75 1006.73,464.88 980.39,463.32 962.91,472.61 946.83,491.21 935.06,496.61 924.18,494.64 916.71,498.89 909.54,498.47 894.68,488.32 886.93,490.23 879.23,481.65 887.02,471.21 870.78,455.22 844.79,446.92 834.72,454.23 820.78,443.26 804.36,457.49 790.59,460.1 785.04,440.64 789.48,423.61 784.63,422.4 778.98,414.59 768.35,391.59 759.86,383.74 769.72,367.54 768.35,361.32 753.97,345.65 744.06,339.34 726.44,335.27 717.69,328.96 711.24,319.95 714.51,308.35 720.01,300.65 745.36,297.44 744.08,283.45 751.54,276.93 755.46,282.02 768.24,283.69 777.56,289.6 786.4,286.97 797.74,289.78 809.34,297.25 824.18,290.76 827.27,294.67 837.86,284.26 848.06,290.15 866.8,294.53 869.61,300.37 878.42,300.41 895.22,296.22" fill="none" stroke="#1e1e1e" stroke-width="1.48" stroke-linecap="round" stroke-linejoin="round"/>
<path d="M745.55,718.53L758.88,717.11L773.3,721.13L778.89,711.87L787.33,704.96L795.99,706.97L807.79,714.05L820.22,715.7L832.12,709.96L835.05,704.16L857.56,710.9L867.13,706.68L876.63,714.49L881.84,714.13L891.43,705.25L912.53,707.27L943.48,702.32L953.9,696.52L973.27,691.5L994.08,682.98L1002.74,674.44L1020.93,666.67L1033.05,664.33L1045.19,673.23L1055.59,674.76L1058.79,686.01L1067.18,689.48L1065.18,696.47L1073.87,703.82L1083.12,702.63L1084.89,712.33L1105.17,721.56L1125.13,720.3L1151.24,732.19L1144.63,739.99L1145.54,745.81L1137.16,750.12L1133.73,759.07L1113.98,748.3L1103.28,754.17L1100.71,761.55L1101.96,784.84L1093.38,815.53L1092.54,826.01L1118.11,825.9L1132.32,820.4L1143.71,830.43L1145.79,838.56L1153.69,845.89L1155.52,860.24L1152.09,870.35L1162.66,883.09L1170.93,900.5L1164.01,911.81L1160.04,928.91L1169.76,942.43L1173.93,954.83L1169.92,965.33L1165.8,961.48L1148.59,966.25L1137.2,967.48L1118.85,979.22L1110.99,987.79L1091.65,978.17L1065.93,980.19L1057.44,974L1029.97,982.59L1022.35,962.02L998.69,951.55L987.59,952.33L963.63,961.62L958.96,955.79L947.91,932.09L934.48,934.78L930.12,930.88L953.78,917.74L946.5,912.29L930.19,905.65L923.52,894.77L898.21,883.03L882.33,854.63L862.61,844.05L863.23,835.9L856.27,834.7L850.67,846.31L842.26,843.54L834.45,836.89L833.64,827.57L842.45,813.26L844.84,802.8L832.36,801.55L826.82,805.01L816.71,798.34L800.47,796.66L776.91,802.28L768.68,782.8L762.93,776.53L753.69,773.34L751.47,762.84L745.78,753.08L753.78,734.53L745.55,718.53Z" fill-rule="evenodd" fill="#4682b4" fill-opacity="0.471"/>
<polyline points="745.55,718.53 758.88,717.11 773.3,721.13 778.89,711.87 787.33,704.96 795.99,706.97 807.79,714.05 820.22,715.7 832.12,709.96 835.05,704.16 857.56,710.9 867.13,706.68 876.63,714.49 881.84,714.13 891.43,705.25 912.53,707.27 943.48,702.32 953.9,696.52 973.27,691.5 994.08,682.98 1002.74,674.44 1020.93,666.67 1033.05,664.33 1045.19,673.23 1055.59,674.76 1058.79,686.01 1067.18,689.48 1065.18,696.47 1073.87,703.82 1083.12,702.63 1084.89,712.33 1105.17,721.56 1125.13,720.3 1151.24,732.19 1144.63,739.99 1145.54,745.81 1137.16,750.12 1133.73,759.07 1113.98,748.3 1103.28,754.17 1100.71,761.55 1101.96,784.84 1093.38,815.53 1092.54,826.01 1118.11,825.9 1132.32,820.4 1143.71,830.43 1145.79,838.56 1153.69,845.89 1155.52,860.24 1152.09,870.35 1162.66,883.09 1170.93,900.5 1164.01,911.81 1160.04,928.91 1169.76,942.43 1173.93,954.83 1169.92,965.33 1165.8,961.48 1148.59,966.25 1137.2,967.48 1118.85,979.22 1110.99,987.79 1091.65,978.17 1065.93,980.19 1057.44,974 1029.97,982.59 1022.35,962.02 998.69,951.55 987.59,952.33 963.63,961.62 958.96,955.79 947.91,932.09 934.48,934.78 930.12,930.88 953.78,917.74 946.5,912.29 930.19,905.65 923.52,894.77 898.21,883.03 882.33,854.63 862.61,844.05 863.23,835.9 856.27,834.7 850.67,846.31 842.26,843.54 834.45,836.89 833.64,827.57 842.45,813.26 844.84,802.8 832.36,801.55 826.82,805.01 816.71,798.34 800.47,796.66 776.91,802.28 768.68,782.8 762.93,776.53 753.69,773.34 751.47,762.84 745.78,753.08 753.78,734.53 745.55,718.53" fill="none" stroke="#1e1e1e" stroke-width="1.48" stroke-linecap="round" stroke-linejoin="round"/>
<path d="M1073.74,563.73L1075.49,572.26L1089.6,577.64L1097.12,586.54L1108.59,577.57L1125.85,579.42L1122.76,593.8L1136.9,599.55L1148.58,580.07L1155.49,580.42L1160.32,571.07L1159.66,558.27L1173.21,564L1177.19,558.15L1190.13,558.05L1199.53,547.5L1208.5,555.19L1212.11,573.78L1218.47,577.61L1224.03,587.65L1230.61,583.32L1240.68,584L1244.79,591.33L1254.07,598.61L1261.54,597.37L1261.36,606.68L1257.13,615.27L1261.24,622.6L1268.61,612.04L1271.35,624.82L1284.6,623.89L1286.85,619.21L1305,619.38L1306.77,622.07L1321.77,623.04L1327.38,633.06L1329.04,649.73L1333.21,659.37L1340.23,665.49L1347.05,678.59L1344.06,692.21L1331.88,688.89L1328.25,698.25L1327.59,713.79L1319.08,726.71L1322.66,735.2L1315.22,742.28L1302.78,743.21L1292.31,739.85L1279.74,729.12L1272.87,735.8L1255.81,738.31L1248.9,741.87L1229.19,740.13L1209.81,743.4L1188.36,740.86L1171.3,743.7L1167.8,740.23L1154.47,739.54L1151.24,732.19L1125.13,720.3L1105.17,721.56L1084.89,712.33L1083.12,702.63L1073.87,703.82L1065.18,696.47L1067.18,689.48L1058.79,686.01L1055.59,674.76L1045.19,673.23L1033.05,664.33L1020.93,666.67L1014.86,655.03L1026.39,642.99L1033.6,640.27L1036.75,630.56L1033.58,626.29L1038.45,612.32L1053.98,599.48L1059.72,590.93L1065.15,576.17L1073.74,563.73Z" fill-rule="evenodd" fill="#4682b4" fill-opacity="0.471"/>
<polyline points="1073.74,563.73 1075.49,572.26 1089.6,577.64 1097.12,586.54 1108.59,577.57 1125.85,579.42 1122.76,593.8 1136.9,599.55 1148.58,580.07 1155.49,580.42 1160.32,571.07 1159.66,558.27 1173.21,564 1177.19,558.15 1190.13,558.05 1199.53,547.5 1208.5,555.19 1212.11,573.78 1218.47,577.61 1224.03,587.65 1230.61,583.32 1240.68,584 1244.79,591.33 1254.07,598.61 1261.54,597.37 1261.36,606.68 1257.13,615.27 1261.24,622.6 1268.61,612.04 1271.35,624.82 1284.6,623.89 1286.85,619.21 1305,619.38 1306.77,622.07 1321.77,623.04 1327.38,633.06 1329.04,649.73 1333.21,659.37 1340.23,665.49 1347.05,678.59 1344.06,692.21 1331.88,688.89 1328.25,698.25 1327.59,713.79 1319.08,726.71 1322.66,735.2 1315.22,742.28 1302.78,743.21 1292.31,739.85 1279.74,729.12 1272.87,735.8 1255.81,738.31 1248.9,741.87 1229.19,740.13 1209.81,743.4 1188.36,740.86 1171.3,743.7 1167.8,740.23 1154.47,739.54 1151.24,732.19 1125.13,720.3 1105.17,721.56 1084.89,712.33 1083.12,702.63 1073.87,703.82 1065.18,696.47 1067.18,689.48 1058.79,686.01 1055.59,674.76 1045.19,673.23 1033.05,664.33 1020.93,666.67 1014.86,655.03 1026.39,642.99 1033.6,640.27 1036.75,630.56 1033.58,626.29 1038.45,612.32 1053.98,599.48 1059.72,590.93 1065.15,576.17 1073.74,563.73" fill="none" stroke="#1e1e1e" stroke-width="1.48" stroke-linecap="round" stroke-linejoin="round"/>
<path d="M478.14,476.75L494.94,468.18L509.84,467.71L507.33,450.19L520.14,439.58L529.28,440.53L553.6,425.08L560.21,422.87L569.08,406.34L579.53,396.82L593.91,390.85L590.35,382.25L594.16,376.11L588.05,366.3L581.04,342.89L580.56,320.76L575.07,309.41L579.47,302.11L592.94,295.74L595.02,290.34L584.84,287.06L580.26,273.01L584.64,266.1L582.46,260.24L573.16,256.2L574.73,248.07L581.96,240.05L593.3,241.02L613.32,230.87L622.41,229.85L627.42,218.28L633.99,214.89L645.37,192.54L644.92,184.38L649.53,179.02L643.4,172.72L634.92,171.81L668.43,163.37L681.72,163.55L683.61,169.79L707.12,167.37L713.48,156.57L721.66,157.84L729.35,152.88L737.24,155.29L738.8,167.34L745.54,172.46L756.82,176.07L765.51,184.31L786.41,189.55L800.47,200.54L804.83,187.38L824.13,180.54L831.77,180.2L837.39,186.45L853.25,184.23L862.26,193.21L873.86,195.21L873.81,204.91L891.92,207.72L906.6,220.59L899.21,226.38L909.06,246.6L920.1,254.4L925.49,254.42L935.96,266.09L935.38,269.97L920.01,280.79L924.52,291.29L914.52,306L904.9,294.32L897.21,296.62L895.22,296.22L878.42,300.41L869.61,300.37L866.8,294.53L848.06,290.15L837.86,284.26L827.27,294.67L824.18,290.76L809.34,297.25L797.74,289.78L786.4,286.97L777.56,289.6L768.24,283.69L755.46,282.02L751.54,276.93L744.08,283.45L745.36,297.44L720.01,300.65L714.51,308.35L711.24,319.95L717.69,328.96L726.44,335.27L744.06,339.34L753.97,345.65L768.35,361.32L769.72,367.54L759.86,383.74L768.35,391.59L778.98,414.59L784.63,422.4L758.25,430.3L758.77,435.74L749.85,441.08L747.45,451.54L739.95,457.67L733.47,474.29L736.26,480.91L712.42,510.14L708.84,521.35L687.53,549.42L690.28,559.55L688.46,566.9L692.35,577.81L688.8,585.53L691.3,592.16L687.76,599.49L669.99,593.05L658.72,596.39L643.48,594.62L638.76,582.9L626.37,583.88L624.72,578.81L613.55,575.92L596.55,577.59L590.01,572.82L581.55,579.66L557.29,584.67L542.38,581.29L535.94,587.38L534.34,595.89L522.4,602.26L523.1,610.81L507.47,585.66L505.67,575.14L498.88,555.21L502.6,542.09L501.12,530.03L490.66,494.49L479.72,483.39L478.14,476.75Z" fill-rule="evenodd" fill="#4682b4" fill-opacity="0.471"/>
<polyline points="478.14,476.75 494.94,468.18 509.84,467.71 507.33,450.19 520.14,439.58 529.28,440.53 553.6,425.08 560.21,422.87 569.08,406.34 579.53,396.82 593.91,390.85 590.35,382.25 594.16,376.11 588.05,366.3 581.04,342.89 580.56,320.76 575.07,309.41 579.47,302.11 592.94,295.74 595.02,290.34 584.84,287.06 580.26,273.01 584.64,266.1 582.46,260.24 573.16,256.2 574.73,248.07 581.96,240.05 593.3,241.02 613.32,230.87 622.41,229.85 627.42,218.28 633.99,214.89 645.37,192.54 644.92,184.38 649.53,179.02 643.4,172.72 634.92,171.81 668.43,163.37 681.72,163.55 683.61,169.79 707.12,167.37 713.48,156.57 721.66,157.84 729.35,152.88 737.24,155.29 738.8,167.34 745.54,172.46 756.82,176.07 765.51,184.31 786.41,189.55 800.47,200.54 804.83,187.38 824.13,180.54 831.77,180.2 837.39,186.45 853.25,184.23 862.26,193.21 873.86,195.21 873.81,204.91 891.92,207.72 906.6,220.59 899.21,226.38 909.06,246.6 920.1,254.4 925.49,254.42 935.96,266.09 935.38,269.97 920.01,280.79 924.52,291.29 914.52,306 904.9,294.32 897.21,296.62 895.22,296.22 878.42,300.41 869.61,300.37 866.8,294.53 848.06,290.15 837.86,284.26 827.27,294.67 824.18,290.76 809.34,297.25 797.74,289.78 786.4,286.97 777.56,289.6 768.24,283.69 755.46,282.02 751.54,276.93 744.08,283.45 745.36,297.44 720.01,300.65 714.51,308.35 711.24,319.95 717.69,328.96 726.44,335.27 744.06,339.34 753.97,345.65 768.35,361.32 769.72,367.54 759.86,383.74 768.35,391.59 778.98,414.59 784.63,422.4 758.25,430.3 758.77,435.74 749.85,441.08 747.45,451.54 739.95,457.67 733.47,474.29 736.26,480.91 712.42,510.14 708.84,521.35 687.53,549.42 690.28,559.55 688.46,566.9 692.35,577.81 688.8,585.53 691.3,592.16 687.76,599.49 669.99,593.05 658.72,596.39 643.48,594.62 638.76,582.9 626.37,583.88 624.72,578.81 613.55,575.92 596.55,577.59 590.01,572.82 581.55,579.66 557.29,584.67 542.38,581.29 535.94,587.38 534.34,595.89 522.4,602.26 523.1,610.81 507.47,585.66 505.67,575.14 498.88,555.21 502.6,542.09 501.12,530.03 490.66,494.49 479.72,483.39 478.14,476.75" fill="none" stroke="#1e1e1e" stroke-width="1.48" stroke-linecap="round" stroke-linejoin="round"/>
<path d="M1361.22,758.73L1372.79,757L1383.08,747.53L1378.64,741.39L1381.39,732.03L1373.44,723.22L1381.94,711.45L1395.24,711.24L1398.02,704.21L1405.76,699.81L1416.83,704.67L1433.1,708.66L1442.16,714.32L1437.03,718.68L1437.51,729.16L1448.49,727.79L1463.36,733.34L1468.73,741.78L1474.79,740.89L1477.11,755.98L1471.25,767.74L1453.16,777.39L1444.5,779.88L1432.78,773.1L1420.02,772.93L1410.86,780.46L1400.15,782.19L1386.74,778.14L1367.64,780.76L1356.09,764.62L1361.22,758.73Z" fill-rule="evenodd" fill="#4682b4" fill-opacity="0.471"/>
<polyline points="1361.22,758.73 1372.79,757 1383.08,747.53 1378.64,741.39 1381.39,732.03 1373.44,723.22 1381.94,711.45 1395.24,711.24 1398.02,704.21 1405.76,699.81 1416.83,704.67 1433.1,708.66 1442.16,714.32 1437.03,718.68 1437.51,729.16 1448.49,727.79 1463.36,733.34 1468.73,741.78 1474.79,740.89 1477.11,755.98 1471.25,767.74 1453.16,777.39 1444.5,779.88 1432.78,773.1 1420.02,772.93 1410.86,780.46 1400.15,782.19 1386.74,778.14 1367.64,780.76 1356.09,764.62 1361.22,758.73" fill="none" stroke="#1e1e1e" stroke-width="1.48" stroke-linecap="round" stroke-linejoin="round"/>
<text x="1660.78" y="729.21" font-family="sans-serif" font-size="14" stroke="#ffffff" stroke-opacity="0.784" stroke-width="2.33" stroke-linejoin="round" paint-order="stroke" fill="#141414">Kakheti</text>
<text x="218.91" y="210.23" font-family="sans-serif" font-size="14" stroke="#ffffff" stroke-opacity="0.784" stroke-width="2.33" stroke-linejoin="round" paint-order="stroke" fill="#141414">Autonomous Republic of Abkhazia</text>
<text x="563.25" y="376.71" font-family="sans-serif" font-size="14" stroke="#ffffff" stroke-opacity="0.784" stroke-width="2.33" stroke-linejoin="round" paint-order="stroke" fill="#141414">Samegrelo-Upper Svaneti</text>
<text x="847.56" y="581.06" font-family="sans-serif" font-size="14" stroke="#ffffff" stroke-opacity="0.784" stroke-width="2.33" stroke-linejoin="round" paint-order="stroke" fill="#141414">Imereti</text>
<text x="898.24" y="826.25" font-family="sans-serif" font-size="14" stroke="#ffffff" stroke-opacity="0.784" stroke-width="2.33" stroke-linejoin="round" paint-order="stroke" fill="#141414">Samtskhe-Javakheti</text>
<text x="1269.91" y="843.01" font-family="sans-serif" font-size="14" stroke="#ffffff" stroke-opacity="0.784" stroke-width="2.33" stroke-linejoin="round" paint-order="stroke" fill="#141414">Lower Kartli</text>
<text x="1329.74" y="523.09" font-family="sans-serif" font-size="14" stroke="#ffffff" stroke-opacity="0.784" stroke-width="2.33" stroke-linejoin="round" paint-order="stroke" fill="#141414">Mtskheta-Mtianeti</text>
<text x="1133.81" y="664.82" font-family="sans-serif" font-size="14" stroke="#ffffff" stroke-opacity="0.784" stroke-width="2.33" stroke-linejoin="round" paint-order="stroke" fill="#141414">Inner Kartli</text>
<text x="482.48" y="783.02" font-family="sans-serif" font-size="14" stroke="#ffffff" stroke-opacity="0.784" stroke-width="2.33" stroke-linejoin="round" paint-order="stroke" fill="#141414">Autonomous Republic of Adjara</text>
<text x="625.98" y="659.93" font-family="sans-serif" font-size="14" stroke="#ffffff" stroke-opacity="0.784" stroke-width="2.33" stroke-linejoin="round" paint-order="stroke" fill="#141414">Guria</text>
<text x="1392.16" y="753.65" font-family="sans-serif" font-size="14" stroke="#ffffff" stroke-opacity="0.784" stroke-width="2.33" stroke-linejoin="round" paint-order="stroke" fill="#141414">Tbilisi</text>
</svg>
