<?xml version="1.0" encoding="UTF-8" standalone="no"?>
<svg xmlns="http://www.w3.org/2000/svg" width="1382" height="2000" viewBox="0 0 1382 2000">
<rect width="1382" height="2000" fill="#ffffff"/>
<path d="M887.39,1760.42L880.64,1746L872.37,1732.81L874.19,1724.51L856.14,1704.27L853.36,1685.86L861.28,1668.35L874.11,1665.26L886.04,1679.67L903.75,1676.57L908.01,1668.28L927.57,1672.23L938.86,1667.91L958.08,1657.74L963.56,1648.52L977.92,1651.25L989.5,1640.17L1003.53,1632.77L1015.1,1622L1021.2,1618.61L1021.48,1606.94L1032.46,1605.99L1055.63,1593.34L1062.96,1593.32L1075.77,1590.21L1087.68,1593.55L1093.2,1599.98L1101.45,1602.1L1105.12,1606.08L1102.42,1619.9L1105.48,1621.12L1121.02,1613.39L1150.6,1604.08L1164.03,1602.8L1175.07,1616.27L1189.48,1631.25L1197.77,1642.58L1195.07,1653.95L1197.86,1664.68L1211.02,1669.85L1208.88,1671.09L1192.38,1669L1149.91,1665.79L1121.81,1665.89L1103.49,1667.79L1082.13,1672.77L1072.98,1678.63L1061.99,1679.58L1047.96,1686.38L1045.22,1690.38L1026.9,1694.73L1019.28,1702.11L1013.19,1710.11L1003.13,1718.12L999.46,1719.67L987.25,1722.15L982.98,1727.38L968.33,1734.48L950.01,1740.65L942.07,1744.66L903.88,1753.33L893.19,1757.34L887.39,1760.42Z" fill-rule="evenodd" fill="#4682b4" fill-opacity="0.471"/>
<polyline points="887.39,1760.42 880.64,1746 872.37,1732.81 874.19,1724.51 856.14,1704.27 853.36,1685.86 861.28,1668.35 874.11,1665.26 886.04,1679.67 903.75,1676.57 908.01,1668.28 927.57,1672.23 938.86,1667.91 958.08,1657.74 963.56,1648.52 977.92,1651.25 989.5,1640.17 1003.53,1632.77 1015.1,1622 1021.2,1618.61 1021.48,1606.94 1032.46,1605.99 1055.63,1593.34 1062.96,1593.32 1075.77,1590.21 1087.68,1593.55 1093.2,1599.98 1101.45,1602.1 1105.12,1606.08 1102.42,1619.9 1105.48,1621.12 1121.02,1613.39 1150.6,1604.08 1164.03,1602.8 1175.07,1616.27 1189.48,1631.25 1197.77,1642.58 1195.07,1653.95 1197.86,1664.68 1211.02,1669.85 1208.88,1671.09 1192.38,1669 1149.91,1665.79 1121.81,1665.89 1103.49,1667.79 1082.13,1672.77 1072.98,1678.63 1061.99,1679.58 1047.96,1686.38 1045.22,1690.38 1026.9,1694.73 1019.28,1702.11 1013.19,1710.11 1003.13,1718.12 999.46,1719.67 987.25,1722.15 982.98,1727.38 968.33,1734.48 950.01,1740.65 942.07,1744.66 903.88,1753.33 893.19,1757.34 887.39,1760.42" fill="none" stroke="#1e1e1e" stroke-width="1.5" stroke-linecap="round" stroke-linejoin="round"/>
<path d="M351.27,1189.27L349.46,1182.21L355.29,1165.35L365.97,1152.19L387.26,1155L398.21,1154.11L408.26,1151.07L421.02,1156.31L445.98,1150.84L449.58,1175.39L462.65,1182.78L470.55,1191.38L490.33,1188.04L498.23,1192.04L506.45,1191.74L516.5,1186.24L518.94,1179.18L525.04,1173.67L539.94,1175.22L541.17,1166.94L539.37,1146.69L548.8,1141.79L563.11,1131.99L580.77,1105.01L594.76,1104.1L603.88,1113.31L608.42,1146.45L617.23,1151.97L631.53,1154.44L640.05,1151.99L675.64,1148.01L679.59,1140.64L687.81,1132.67L695.71,1130.52L705.45,1130.52L713.96,1133.89L723.09,1140.03L741.34,1135.11L762.33,1141.55L776.32,1138.16L781.79,1134.48L794.86,1130.79L806.73,1140.59L807.35,1152.86L805.54,1162.38L809.19,1165.75L811.63,1174.03L822.29,1187.52L840.25,1185.96L854.85,1189.32L884.99,1199.09L894.43,1198.77L899,1204.59L910.88,1208.87L916.66,1207.32L924.88,1212.52L926.73,1224.49L932.53,1232.45L938.61,1229.68L943.8,1237.95L932.54,1237.05L917.32,1238.62L905.47,1248.15L900.61,1258.59L875.96,1265.68L863.8,1275.83L815.69,1278.34L776.14,1334.52L769.45,1347.72L763.67,1355.7L751.79,1363.99L721.62,1367.38L711.57,1376.89L711.88,1386.71L717.67,1395.91L724.37,1400.82L731.39,1413.4L728.34,1419.85L718.59,1424.14L714.02,1435.19L698.47,1449.62L695.12,1457.29L678.04,1468.95L670.41,1482.76L666.14,1494.73L660.04,1500.86L654.85,1520.2L653.93,1529.1L642.94,1537.69L642.94,1545.06L645.99,1553.34L639.58,1561.01L642.93,1570.84L638.66,1573.91L636.52,1585.26L630.1,1590.17L630.41,1596.62L624.91,1604.29L633.45,1611.96L631,1622.09L625.81,1627.92L613.9,1632.21L611.15,1636.2L597.42,1623.92L592.23,1621.76L577.87,1626.66L572.99,1625.74L560.46,1636.16L559.53,1643.83L551.59,1643.83L545.8,1636.15L547.34,1630.01L536.05,1622.93L525.66,1624.46L506.43,1623.81L494.82,1627.17L489.03,1621.33L482.62,1621.02L475.31,1610.57L471.03,1612.09L454.56,1601.93L449.7,1593.02L445.73,1590.25L434.42,1597.6L421.91,1597.88L410.03,1583.73L405.45,1585.87L398.78,1567.75L390.24,1564.66L387.5,1559.43L388.15,1545.93L382.97,1540.39L388.79,1532.43L388.2,1525.06L393.4,1517.7L389.45,1509.41L377.56,1509.99L371.75,1513.97L359.86,1512.1L353.79,1498.88L348.01,1492.42L335.81,1491.78L328.48,1497.28L321.81,1481.3L325.84,1460.44L317.63,1452.13L313.35,1455.5L295.69,1446.85L290.5,1448.68L284.33,1471.98L283.98,1484.87L270.84,1494.34L263.52,1493.39L266.63,1475.91L258.73,1468.21L267.02,1450.13L278.64,1439.12L280.49,1432.69L272.6,1421.92L266.87,1405.02L267.22,1391.83L279.69,1397.7L288.54,1395.89L292.22,1387.31L304.73,1384.28L309.08,1356.67L320.37,1351.8L318.55,1346.27L310.03,1342.56L278.35,1343.38L282.03,1334.5L294.24,1326.56L297.92,1320.13L298.59,1299.26L325.76,1276.64L333.07,1276.66L337.91,1287.72L347.34,1290.51L360.76,1284.1L380.85,1285.99L393.05,1278.97L418.68,1254.48L428.42,1254.5L436.35,1250.53L439.14,1224.76L415.11,1218.58L408.14,1205.67L399.63,1198.91L377.11,1199.46L368.61,1189.93L351.27,1189.27Z" fill-rule="evenodd" fill="#4682b4" fill-opacity="0.471"/>
<polyline points="351.27,1189.27 349.46,1182.21 355.29,1165.35 365.97,1152.19 387.26,1155 398.21,1154.11 408.26,1151.07 421.02,1156.31 445.98,1150.84 449.58,1175.39 462.65,1182.78 470.55,1191.38 490.33,1188.04 498.23,1192.04 506.45,1191.74 516.5,1186.24 518.94,1179.18 525.04,1173.67 539.94,1175.22 541.17,1166.94 539.37,1146.69 548.8,1141.79 563.11,1131.99 580.77,1105.01 594.76,1104.1 603.88,1113.31 608.42,1146.45 617.23,1151.97 631.53,1154.44 640.05,1151.99 675.64,1148.01 679.59,1140.64 687.81,1132.67 695.71,1130.52 705.45,1130.52 713.96,1133.89 723.09,1140.03 741.34,1135.11 762.33,1141.55 776.32,1138.16 781.79,1134.48 794.86,1130.79 806.73,1140.59 807.35,1152.86 805.54,1162.38 809.19,1165.75 811.63,1174.03 822.29,1187.52 840.25,1185.96 854.85,1189.32 884.99,1199.09 894.43,1198.77 899,1204.59 910.88,1208.87 916.66,1207.32 924.88,1212.52 926.73,1224.49 932.53,1232.45 938.61,1229.68 943.8,1237.95 932.54,1237.05 917.32,1238.62 905.47,1248.15 900.61,1258.59 875.96,1265.68 863.8,1275.83 815.69,1278.34 776.14,1334.52 769.45,1347.72 763.67,1355.7 751.79,1363.99 721.62,1367.38 711.57,1376.89 711.88,1386.71 717.67,1395.91 724.37,1400.82 731.39,1413.4 728.34,1419.85 718.59,1424.14 714.02,1435.19 698.47,1449.62 695.12,1457.29 678.04,1468.95 670.41,1482.76 666.14,1494.73 660.04,1500.86 654.85,1520.2 653.93,1529.1 642.94,1537.69 642.94,1545.06 645.99,1553.34 639.58,1561.01 642.93,1570.84 638.66,1573.91 636.52,1585.26 630.1,1590.17 630.41,1596.62 624.91,1604.29 633.45,1611.96 631,1622.09 625.81,1627.92 613.9,1632.21 611.15,1636.2 597.42,1623.92 592.23,1621.76 577.87,1626.66 572.99,1625.74 560.46,1636.16 559.53,1643.83 551.59,1643.83 545.8,1636.15 547.34,1630.01 536.05,1622.93 525.66,1624.46 506.43,1623.81 494.82,1627.17 489.03,1621.33 482.62,1621.02 475.31,1610.57 471.03,1612.09 454.56,1601.93 449.7,1593.02 445.73,1590.25 434.42,1597.6 421.91,1597.88 410.03,1583.73 405.45,1585.87 398.78,1567.75 390.24,1564.66 387.5,1559.43 388.15,1545.93 382.97,1540.39 388.79,1532.43 388.2,1525.06 393.4,1517.7 389.45,1509.41 377.56,1509.99 371.75,1513.97 359.86,1512.1 353.79,1498.88 348.01,1492.42 335.81,1491.78 328.48,1497.28 321.81,1481.3 325.84,1460.44 317.63,1452.13 313.35,1455.5 295.69,1446.85 290.5,1448.68 284.33,1471.98 283.98,1484.87 270.84,1494.34 263.52,1493.39 266.63,1475.91 258.73,1468.21 267.02,1450.13 278.64,1439.12 280.49,1432.69 272.6,1421.92 266.87,1405.02 267.22,1391.83 279.69,1397.7 288.54,1395.89 292.22,1387.31 304.73,1384.28 309.08,1356.67 320.37,1351.8 318.55,1346.27 310.03,1342.56 278.35,1343.38 282.03,1334.5 294.24,1326.56 297.92,1320.13 298.59,1299.26 325.76,1276.64 333.07,1276.66 337.91,1287.72 347.34,1290.51 360.76,1284.1 380.85,1285.99 393.05,1278.97 418.68,1254.48 428.42,1254.5 436.35,1250.53 439.14,1224.76 415.11,1218.58 408.14,1205.67 399.63,1198.91 377.11,1199.46 368.61,1189.93 351.27,1189.27" fill="none" stroke="#1e1e1e" stroke-width="1.5" stroke-linecap="round" stroke-linejoin="round"/>
<path d="M57.75,1288.16L64.5,1276.84L81.58,1271.1L84.12,1249.63L105.87,1220.28L99.23,1210.43L100.84,1191.42L107.98,1161.08L108.31,1154.64L112.93,1141.47L115.83,1105.58L118.9,1100.08L134.87,1063.64L138.57,1052.92L144.98,1046.2L143.78,1041.9L156,1028.76L159.15,1001.47L169.44,1010.41L172.51,1002.75L181.67,992.36L189.92,980.73L212.71,977.75L214.87,969.48L206.42,955.64L206.14,948.89L211.95,940.32L229.25,942.23L246.93,923.89L246.42,894.43L219.97,745.54L233.27,754.49L234.77,760.02L245.97,766.81L248.97,776.02L256.21,786.78L266.2,790.5L270.43,796.04L269.8,804.62L272.5,813.22L282.5,817.25L287.92,828.31L284.27,831.98L285.45,841.18L292.11,848.26L300.55,865.47L304.18,868.85L306.86,886.35L310.47,896.79L323.82,900.82L332.28,913.42L338.34,918.96L345.92,922.36L347.11,932.48L357.4,942.02L359.53,941.11L370.44,951.26L377.99,968.15L388.59,980.45L391.61,987.82L389.46,997.32L385.8,1002.84L392.79,1004.69L399.18,1001.03L407.07,1004.11L415.24,1017.02L425.85,1029.92L428.56,1041.89L428.24,1049.26L414.86,1051.68L406.96,1050.74L391.44,1059.91L380.19,1059.88L375.61,1068.16L378.31,1082.27L386.5,1091.19L375.54,1097.91L370.02,1115.69L359.02,1133.76L359.62,1139.6L365.97,1152.19L355.29,1165.35L349.46,1182.21L351.27,1189.27L346.38,1196.62L333.9,1198.43L319.57,1209.13L314.66,1222.3L304,1225.03L292.74,1225.3L296.96,1238.51L307.88,1249.28L310.59,1259.42L301.13,1266.14L299.33,1259.38L291.12,1256.29L285.61,1263.94L276.48,1263.3L269.19,1257.14L258.55,1254.65L245.76,1254.6L247.39,1224.54L229.73,1224.78L221.19,1229.66L218.72,1239.78L214.15,1239.76L200.4,1253.51L186.4,1253.76L184.83,1264.5L173.56,1265.98L166.83,1274.24L163.73,1286.5L153.35,1293.21L150.26,1302.4L140.18,1309.41L138.87,1330.27L131.2,1343.74L120.32,1323.13L105.45,1312.02L98.45,1310.76L77.1,1315.87L68.59,1313.68L63.44,1306.9L57.75,1288.16Z" fill-rule="evenodd" fill="#4682b4" fill-opacity="0.471"/>
<polyline points="57.75,1288.16 64.5,1276.84 81.58,1271.1 84.12,1249.63 105.87,1220.28 99.23,1210.43 100.84,1191.42 107.98,1161.08 108.31,1154.64 112.93,1141.47 115.83,1105.58 118.9,1100.08 134.87,1063.64 138.57,1052.92 144.98,1046.2 143.78,1041.9 156,1028.76 159.15,1001.47 169.44,1010.41 172.51,1002.75 181.67,992.36 189.92,980.73 212.71,977.75 214.87,969.48 206.42,955.64 206.14,948.89 211.95,940.32 229.25,942.23 246.93,923.89 246.42,894.43 219.97,745.54 233.27,754.49 234.77,760.02 245.97,766.81 248.97,776.02 256.21,786.78 266.2,790.5 270.43,796.04 269.8,804.62 272.5,813.22 282.5,817.25 287.92,828.31 284.27,831.98 285.45,841.18 292.11,848.26 300.55,865.47 304.18,868.85 306.86,886.35 310.47,896.79 323.82,900.82 332.28,913.42 338.34,918.96 345.92,922.36 347.11,932.48 357.4,942.02 359.53,941.11 370.44,951.26 377.99,968.15 388.59,980.45 391.61,987.82 389.46,997.32 385.8,1002.84 392.79,1004.69 399.18,1001.03 407.07,1004.11 415.24,1017.02 425.85,1029.92 428.56,1041.89 428.24,1049.26 414.86,1051.68 406.96,1050.74 391.44,1059.91 380.19,1059.88 375.61,1068.16 378.31,1082.27 386.5,1091.19 375.54,1097.91 370.02,1115.69 359.02,1133.76 359.62,1139.6 365.97,1152.19 355.29,1165.35 349.46,1182.21 351.27,1189.27 346.38,1196.62 333.9,1198.43 319.57,1209.13 314.66,1222.3 304,1225.03 292.74,1225.3 296.96,1238.51 307.88,1249.28 310.59,1259.42 301.13,1266.14 299.33,1259.38 291.12,1256.29 285.61,1263.94 276.48,1263.3 269.19,1257.14 258.55,1254.65 245.76,1254.6 247.39,1224.54 229.73,1224.78 221.19,1229.66 218.72,1239.78 214.15,1239.76 200.4,1253.51 186.4,1253.76 184.83,1264.5 173.56,1265.98 166.83,1274.24 163.73,1286.5 153.35,1293.21 150.26,1302.4 140.18,1309.41 138.87,1330.27 131.2,1343.74 120.32,1323.13 105.45,1312.02 98.45,1310.76 77.1,1315.87 68.59,1313.68 63.44,1306.9 57.75,1288.16" fill="none" stroke="#1e1e1e" stroke-width="1.5" stroke-linecap="round" stroke-linejoin="round"/>
<path d="M518.57,1898.66L520.75,1869.48L524.44,1858.74L533.63,1849.23L550.15,1846.17L555.36,1838.19L566.07,1832.06L563.33,1821.62L537.04,1807.15L526.68,1782.57L515.68,1776.11L511.43,1754.92L514.82,1738.96L498.34,1722.35L480.31,1721.09L472.68,1717.09L465.04,1717.38L450.37,1721.65L443.96,1718.88L443.69,1700.46L447.97,1694.32L449.22,1679.59L454.74,1671L450.78,1666.09L443.76,1663.92L445.32,1647.96L444.72,1639.37L435.88,1632.59L419.41,1624.89L407.54,1606.75L399.62,1597.21L380.11,1587.04L374.65,1575.36L367.94,1570.74L346.6,1561.48L342.35,1555.02L341.18,1535.06L357.07,1526.82L366.85,1520.09L371.75,1513.97L377.56,1509.99L389.45,1509.41L393.4,1517.7L388.2,1525.06L388.79,1532.43L382.97,1540.39L388.15,1545.93L387.5,1559.43L390.24,1564.66L398.78,1567.75L405.45,1585.87L410.03,1583.73L421.91,1597.88L434.42,1597.6L445.73,1590.25L449.7,1593.02L454.56,1601.93L471.03,1612.09L475.31,1610.57L482.62,1621.02L489.03,1621.33L494.82,1627.17L506.43,1623.81L525.66,1624.46L536.05,1622.93L547.34,1630.01L545.8,1636.15L551.59,1643.83L559.53,1643.83L560.46,1636.16L572.99,1625.74L577.87,1626.66L592.23,1621.76L597.42,1623.92L611.15,1636.2L613.9,1632.21L625.81,1627.92L634.36,1631.92L658.47,1659.86L663.36,1668.15L671.3,1671.84L807.84,1680.38L836.55,1678.51L853.36,1685.86L856.14,1704.27L874.19,1724.51L872.37,1732.81L880.64,1746L887.39,1760.42L882.8,1762.27L880.67,1766.88L877.01,1769.95L871.51,1771.8L864.48,1775.81L863.87,1776.42L864.18,1780.11L856.25,1790.25L841.58,1795.49L824.77,1798.89L820.79,1800.43L817.74,1802.89L817.13,1805.04L810.1,1808.11L800.93,1810.27L783.81,1816.73L783.2,1820.42L783.81,1821.03L778.62,1823.8L773.73,1830.56L764.25,1839.17L759.66,1841.01L759.36,1842.24L750.18,1844.09L680.45,1847.48L672.8,1848.71L668.21,1852.39L654.75,1858.23L647.71,1864.67L639.45,1869.28L637,1869.89L634.25,1872.65L627.52,1875.42L626.6,1876.95L601.82,1878.78L594.16,1883.38L571.52,1887.66L565.09,1890.42L556.83,1891.03L545.81,1895.31L518.57,1898.66Z" fill-rule="evenodd" fill="#4682b4" fill-opacity="0.471"/>
<polyline points="518.57,1898.66 520.75,1869.48 524.44,1858.74 533.63,1849.23 550.15,1846.17 555.36,1838.19 566.07,1832.06 563.33,1821.62 537.04,1807.15 526.68,1782.57 515.68,1776.11 511.43,1754.92 514.82,1738.96 498.34,1722.35 480.31,1721.09 472.68,1717.09 465.04,1717.38 450.37,1721.65 443.96,1718.88 443.69,1700.46 447.97,1694.32 449.22,1679.59 454.74,1671 450.78,1666.09 443.76,1663.92 445.32,1647.96 444.72,1639.37 435.88,1632.59 419.41,1624.89 407.54,1606.75 399.62,1597.21 380.11,1587.04 374.65,1575.36 367.94,1570.74 346.6,1561.48 342.35,1555.02 341.18,1535.06 357.07,1526.82 366.85,1520.09 371.75,1513.97 377.56,1509.99 389.45,1509.41 393.4,1517.7 388.2,1525.06 388.79,1532.43 382.97,1540.39 388.15,1545.93 387.5,1559.43 390.24,1564.66 398.78,1567.75 405.45,1585.87 410.03,1583.73 421.91,1597.88 434.42,1597.6 445.73,1590.25 449.7,1593.02 454.56,1601.93 471.03,1612.09 475.31,1610.57 482.62,1621.02 489.03,1621.33 494.82,1627.17 506.43,1623.81 525.66,1624.46 536.05,1622.93 547.34,1630.01 545.8,1636.15 551.59,1643.83 559.53,1643.83 560.46,1636.16 572.99,1625.74 577.87,1626.66 592.23,1621.76 597.42,1623.92 611.15,1636.2 613.9,1632.21 625.81,1627.92 634.36,1631.92 658.47,1659.86 663.36,1668.15 671.3,1671.84 807.84,1680.38 836.55,1678.51 853.36,1685.86 856.14,1704.27 874.19,1724.51 872.37,1732.81 880.64,1746 887.39,1760.42 882.8,1762.27 880.67,1766.88 877.01,1769.95 871.51,1771.8 864.48,1775.81 863.87,1776.42 864.18,1780.11 856.25,1790.25 841.58,1795.49 824.77,1798.89 820.79,1800.43 817.74,1802.89 817.13,1805.04 810.1,1808.11 800.93,1810.27 783.81,1816.73 783.2,1820.42 783.81,1821.03 778.62,1823.8 773.73,1830.56 764.25,1839.17 759.66,1841.01 759.36,1842.24 750.18,1844.09 680.45,1847.48 672.8,1848.71 668.21,1852.39 654.75,1858.23 647.71,1864.67 639.45,1869.28 637,1869.89 634.25,1872.65 627.52,1875.42 626.6,1876.95 601.82,1878.78 594.16,1883.38 571.52,1887.66 565.09,1890.42 556.83,1891.03 545.81,1895.31 518.57,1898.66" fill="none" stroke="#1e1e1e" stroke-width="1.5" stroke-linecap="round" stroke-linejoin="round"/>
<path d="M943.8,1237.95L979.12,1239.41L988.54,1234.17L1005.89,1234.74L1020.22,1241.46L1029.34,1238.37L1042.12,1237.72L1060.09,1238.89L1054.67,1262.53L1051.99,1281.26L1052.93,1291.38L1056.31,1301.49L1056.33,1310.09L1059.76,1336.77L1065.91,1355.16L1069.33,1377.24L1066.61,1386.46L1040.46,1407.4L1031.35,1421.23L1028.02,1429.83L1028.05,1438.12L1035.08,1447.31L1042.14,1463.25L1043.08,1471.22L1034.9,1492.42L1024.57,1505.95L1024.29,1515.16L1031.01,1518.21L1037.46,1534.46L1028.95,1549.22L1031.41,1555.65L1047.62,1567.27L1061.37,1572.45L1077.53,1568.72L1086.08,1568.69L1091.89,1572.97L1095.28,1582.17L1095.61,1591.99L1093.2,1599.98L1087.68,1593.55L1075.77,1590.21L1062.96,1593.32L1055.63,1593.34L1032.46,1605.99L1021.48,1606.94L1021.2,1618.61L1015.1,1622L1003.53,1632.77L989.5,1640.17L977.92,1651.25L963.56,1648.52L958.08,1657.74L938.86,1667.91L927.57,1672.23L908.01,1668.28L903.75,1676.57L886.04,1679.67L874.11,1665.26L861.28,1668.35L853.36,1685.86L836.55,1678.51L807.84,1680.38L671.3,1671.84L663.36,1668.15L658.47,1659.86L634.36,1631.92L625.81,1627.92L631,1622.09L633.45,1611.96L624.91,1604.29L630.41,1596.62L630.1,1590.17L636.52,1585.26L638.66,1573.91L642.93,1570.84L639.58,1561.01L645.99,1553.34L642.94,1545.06L642.94,1537.69L653.93,1529.1L654.85,1520.2L660.04,1500.86L666.14,1494.73L670.41,1482.76L678.04,1468.95L695.12,1457.29L698.47,1449.62L714.02,1435.19L718.59,1424.14L728.34,1419.85L731.39,1413.4L724.37,1400.82L717.67,1395.91L711.88,1386.71L711.57,1376.89L721.62,1367.38L751.79,1363.99L763.67,1355.7L769.45,1347.72L776.14,1334.52L815.69,1278.34L863.8,1275.83L875.96,1265.68L900.61,1258.59L905.47,1248.15L917.32,1238.62L932.54,1237.05L943.8,1237.95Z" fill-rule="evenodd" fill="#4682b4" fill-opacity="0.471"/>
<polyline points="943.8,1237.95 979.12,1239.41 988.54,1234.17 1005.89,1234.74 1020.22,1241.46 1029.34,1238.37 1042.12,1237.72 1060.09,1238.89 1054.67,1262.53 1051.99,1281.26 1052.93,1291.38 1056.31,1301.49 1056.33,1310.09 1059.76,1336.77 1065.91,1355.16 1069.33,1377.24 1066.61,1386.46 1040.46,1407.4 1031.35,1421.23 1028.02,1429.83 1028.05,1438.12 1035.08,1447.31 1042.14,1463.25 1043.08,1471.22 1034.9,1492.42 1024.57,1505.95 1024.29,1515.16 1031.01,1518.21 1037.46,1534.46 1028.95,1549.22 1031.41,1555.65 1047.62,1567.27 1061.37,1572.45 1077.53,1568.72 1086.08,1568.69 1091.89,1572.97 1095.28,1582.17 1095.61,1591.99 1093.2,1599.98 1087.68,1593.55 1075.77,1590.21 1062.96,1593.32 1055.63,1593.34 1032.46,1605.99 1021.48,1606.94 1021.2,1618.61 1015.1,1622 1003.53,1632.77 989.5,1640.17 977.92,1651.25 963.56,1648.52 958.08,1657.74 938.86,1667.91 927.57,1672.23 908.01,1668.28 903.75,1676.57 886.04,1679.67 874.11,1665.26 861.28,1668.35 853.36,1685.86 836.55,1678.51 807.84,1680.38 671.3,1671.84 663.36,1668.15 658.47,1659.86 634.36,1631.92 625.81,1627.92 631,1622.09 633.45,1611.96 624.91,1604.29 630.41,1596.62 630.1,1590.17 636.52,1585.26 638.66,1573.91 642.93,1570.84 639.58,1561.01 645.99,1553.34 642.94,1545.06 642.94,1537.69 653.93,1529.1 654.85,1520.2 660.04,1500.86 666.14,1494.73 670.41,1482.76 678.04,1468.95 695.12,1457.29 698.47,1449.62 714.02,1435.19 718.59,1424.14 728.34,1419.85 731.39,1413.4 724.37,1400.82 717.67,1395.91 711.88,1386.71 711.57,1376.89 721.62,1367.38 751.79,1363.99 763.67,1355.7 769.45,1347.72 776.14,1334.52 815.69,1278.34 863.8,1275.83 875.96,1265.68 900.61,1258.59 905.47,1248.15 917.32,1238.62 932.54,1237.05 943.8,1237.95" fill="none" stroke="#1e1e1e" stroke-width="1.5" stroke-linecap="round" stroke-linejoin="round"/>
<path d="M1113.55,394.65L1109.33,399.57L1109.07,410.93L1110.61,420.44L1101.01,443.49L1102.53,446.86L1100.76,458.53L1107.72,461.27L1108.97,473.24L1105.97,478.77L1099.01,480.33L1091.72,471.76L1086.88,469.93L1082.66,476.7L1086.64,490.19L1094.53,497.53L1110.54,488.58L1114.78,490.41L1119.04,498.37L1113.61,503.61L1090.31,503.38L1082.45,506.16L1075.18,504.96L1074.61,515.7L1077.65,520.3L1092.78,519.94L1096.44,526.37L1085.26,533.47L1074.66,531.35L1072.56,538.72L1083.49,548.2L1088.34,548.5L1104.96,541.69L1111.57,527.24L1122.48,529.36L1138.82,527.15L1150.94,530.79L1156.1,536.91L1152.8,543.36L1170.69,550.36L1174.64,555.56L1168.06,576.14L1171.42,584.42L1165.98,586.28L1156.35,601.96L1164.88,616.05L1158.27,629.88L1148.29,636.36L1150.75,645.86L1142.92,658.17L1141.75,669.52L1153.05,694.34L1159.74,699.22L1158.56,709.04L1161.03,719.77L1160.44,725.3L1153.79,729.62L1155.03,737.28L1152.32,741.59L1146.25,741.92L1139.27,738.26L1137.17,744.71L1118.37,744.16L1118.08,750.3L1123.26,755.81L1119.63,760.11L1112.68,764.74L1098.41,762.02L1085.38,762.99L1082.03,758.09L1076.88,759.64L1068.67,755.37L1064.14,758.76L1054.43,757.25L1058.7,765.22L1055.68,771.67L1046.01,782.13L1045.42,790.1L1056.07,799.89L1055.48,805.11L1047.9,806.66L1043.03,802.08L1035.16,808.23L1030.04,822.67L1032.2,833.71L1041.31,837.98L1040.41,842.89L1027.68,845.99L1033.16,853.34L1029.86,867.15L1042.92,870.8L1052.92,865.25L1070.21,863.05L1077.5,863.95L1079.05,875.6L1073.61,882.06L1061.17,883.63L1059.06,887.93L1063.94,897.12L1062.45,907.86L1055.18,913.41L1037.58,916.22L1028.43,901.52L1013.85,896.65L1007.17,896.05L1002.9,889L984.06,879.85L977.4,885.69L970.41,884.48L968.92,897.37L966.2,903.82L960.44,904.14L954.04,891.88L947.95,884.22L940.05,879.94L937.02,883.94L924.58,884.27L920.34,889.49L910.32,889.2L904.85,884.61L912.73,879.38L927,879.66L927.89,871.68L936.66,852.64L929.96,842.53L937.85,842.52L941.48,835.15L941.45,821.34L931.12,816.45L919.29,816.48L911.72,822.93L901.71,823.56L898.35,812.83L880.14,803.35L877.1,799.36L876.78,789.55L861,781.59L855.83,776.69L854.91,769.02L860.36,762.57L864.92,766.55L878.26,762.55L878.87,770.52L887.67,769.59L891.9,759.76L898.56,755.15L903.72,760.05L907.97,757.28L912.48,736.41L899.43,728.15L900.32,721.71L908.21,724.15L911.53,716.47L929.4,708.77L931.2,699.87L942.41,697.08L944.21,688.49L937.21,670.71L941.43,661.19L938.7,656.28L940.8,646.77L931.1,644.64L917.76,638.52L913.19,626.57L905,616.76L884.39,608.51L875.91,612.51L849.55,601.5L845.6,594.45L841.06,596.6L830.76,591.4L823.18,580.05L814.4,586.5L795.32,581L794.41,585.91L787.75,587.45L785.03,592.67L774.13,590.83L758.98,583.17L750.81,589.93L735.67,585.94L715.98,591.16L711.14,583.19L700.24,582.88L694.18,578.89L684.79,580.43L673.59,589.02L665.41,585.33L651.18,584.72L639.97,589.01L633.31,596.98L628.46,592.69L622.41,581.94L629.99,559.54L622.43,545.42L616.69,529.46L601.87,514.11L588.87,498.45L604.31,488.33L606.13,477.9L596.76,467.15L597.69,444.44L599.81,440.14L609.79,434.93L619.77,440.15L626.73,430.95L640.94,441.09L650.02,440.17L653.35,419.91L648.51,409.47L647.01,396.58L657.59,395.36L663.33,392.59L646.71,382.15L633.11,378.46L630.09,368.64L636.74,355.14L647.93,347.16L662.14,343.48L666.37,338.87L665.46,327.82L674.53,322.3L686.62,330.89L678.76,335.5L677.85,342.25L683.29,345.63L696.29,349.01L692.06,354.53L703.55,379.7L702.64,393.82L728.64,377.24L745.26,357.59L743.74,349.61L749.18,341.93L758.85,340.7L778.18,328.1L794.8,323.79L811.42,322.55L813.54,327.15L823.52,332.05L837.71,318.84L842.52,301.02L851.59,307.77L854.3,301.31L851.26,284.13L857.9,279.82L866.67,287.79L889.33,288.98L892.06,295.73L900.22,296.33L909.88,291.4L915.62,292.93L935.56,293.51L943.12,296.87L953.69,292.86L967.58,290.37L978.77,295.87L986.61,289.71L996.89,293.99L995.66,283.24L1000.78,279.24L1018.6,274.89L1022.55,286.24L1029.22,293.29L1032.27,303.72L1031.09,313.55L1025.65,316.32L1023.86,324.31L1038.42,341.77L1042.71,364.17L1041.52,372.77L1035.19,378L1024.01,381.1L1027.36,387.54L1043.69,389.34L1051.84,385.02L1063.94,386.52L1075.74,392.01L1085.12,391.36L1092.66,386.43L1113.55,394.65Z" fill-rule="evenodd" fill="#4682b4" fill-opacity="0.471"/>
<polyline points="1113.55,394.65 1109.33,399.57 1109.07,410.93 1110.61,420.44 1101.01,443.49 1102.53,446.86 1100.76,458.53 1107.72,461.27 1108.97,473.24 1105.97,478.77 1099.01,480.33 1091.72,471.76 1086.88,469.93 1082.66,476.7 1086.64,490.19 1094.53,497.53 1110.54,488.58 1114.78,490.41 1119.04,498.37 1113.61,503.61 1090.31,503.38 1082.45,506.16 1075.18,504.96 1074.61,515.7 1077.65,520.3 1092.78,519.94 1096.44,526.37 1085.26,533.47 1074.66,531.35 1072.56,538.72 1083.49,548.2 1088.34,548.5 1104.96,541.69 1111.57,527.24 1122.48,529.36 1138.82,527.15 1150.94,530.79 1156.1,536.91 1152.8,543.36 1170.69,550.36 1174.64,555.56 1168.06,576.14 1171.42,584.42 1165.98,586.28 1156.35,601.96 1164.88,616.05 1158.27,629.88 1148.29,636.36 1150.75,645.86 1142.92,658.17 1141.75,669.52 1153.05,694.34 1159.74,699.22 1158.56,709.04 1161.03,719.77 1160.44,725.3 1153.79,729.62 1155.03,737.28 1152.32,741.59 1146.25,741.92 1139.27,738.26 1137.17,744.71 1118.37,744.16 1118.08,750.3 1123.26,755.81 1119.63,760.11 1112.68,764.74 1098.41,762.02 1085.38,762.99 1082.03,758.09 1076.88,759.64 1068.67,755.37 1064.14,758.76 1054.43,757.25 1058.7,765.22 1055.68,771.67 1046.01,782.13 1045.42,790.1 1056.07,799.89 1055.48,805.11 1047.9,806.66 1043.03,802.08 1035.16,808.23 1030.04,822.67 1032.2,833.71 1041.31,837.98 1040.41,842.89 1027.68,845.99 1033.16,853.34 1029.86,867.15 1042.92,870.8 1052.92,865.25 1070.21,863.05 1077.5,863.95 1079.05,875.6 1073.61,882.06 1061.17,883.63 1059.06,887.93 1063.94,897.12 1062.45,907.86 1055.18,913.41 1037.58,916.22 1028.43,901.52 1013.85,896.65 1007.17,896.05 1002.9,889 984.06,879.85 977.4,885.69 970.41,884.48 968.92,897.37 966.2,903.82 960.44,904.14 954.04,891.88 947.95,884.22 940.05,879.94 937.02,883.94 924.58,884.27 920.34,889.49 910.32,889.2 904.85,884.61 912.73,879.38 927,879.66 927.89,871.68 936.66,852.64 929.96,842.53 937.85,842.52 941.48,835.15 941.45,821.34 931.12,816.45 919.29,816.48 911.72,822.93 901.71,823.56 898.35,812.83 880.14,803.35 877.1,799.36 876.78,789.55 861,781.59 855.83,776.69 854.91,769.02 860.36,762.57 864.92,766.55 878.26,762.55 878.87,770.52 887.67,769.59 891.9,759.76 898.56,755.15 903.72,760.05 907.97,757.28 912.48,736.41 899.43,728.15 900.32,721.71 908.21,724.15 911.53,716.47 929.4,708.77 931.2,699.87 942.41,697.08 944.21,688.49 937.21,670.71 941.43,661.19 938.7,656.28 940.8,646.77 931.1,644.64 917.76,638.52 913.19,626.57 905,616.76 884.39,608.51 875.91,612.51 849.55,601.5 845.6,594.45 841.06,596.6 830.76,591.4 823.18,580.05 814.4,586.5 795.32,581 794.41,585.91 787.75,587.45 785.03,592.67 774.13,590.83 758.98,583.17 750.81,589.93 735.67,585.94 715.98,591.16 711.14,583.19 700.24,582.88 694.18,578.89 684.79,580.43 673.59,589.02 665.41,585.33 651.18,584.72 639.97,589.01 633.31,596.98 628.46,592.69 622.41,581.94 629.99,559.54 622.43,545.42 616.69,529.46 601.87,514.11 588.87,498.45 604.31,488.33 606.13,477.9 596.76,467.15 597.69,444.44 599.81,440.14 609.79,434.93 619.77,440.15 626.73,430.95 640.94,441.09 650.02,440.17 653.35,419.91 648.51,409.47 647.01,396.58 657.59,395.36 663.33,392.59 646.71,382.15 633.11,378.46 630.09,368.64 636.74,355.14 647.93,347.16 662.14,343.48 666.37,338.87 665.46,327.82 674.53,322.3 686.62,330.89 678.76,335.5 677.85,342.25 683.29,345.63 696.29,349.01 692.06,354.53 703.55,379.7 702.64,393.82 728.64,377.24 745.26,357.59 743.74,349.61 749.18,341.93 758.85,340.7 778.18,328.1 794.8,323.79 811.42,322.55 813.54,327.15 823.52,332.05 837.71,318.84 842.52,301.02 851.59,307.77 854.3,301.31 851.26,284.13 857.9,279.82 866.67,287.79 889.33,288.98 892.06,295.73 900.22,296.33 909.88,291.4 915.62,292.93 935.56,293.51 943.12,296.87 953.69,292.86 967.58,290.37 978.77,295.87 986.61,289.71 996.89,293.99 995.66,283.24 1000.78,279.24 1018.6,274.89 1022.55,286.24 1029.22,293.29 1032.27,303.72 1031.09,313.55 1025.65,316.32 1023.86,324.31 1038.42,341.77 1042.71,364.17 1041.52,372.77 1035.19,378 1024.01,381.1 1027.36,387.54 1043.69,389.34 1051.84,385.02 1063.94,386.52 1075.74,392.01 1085.12,391.36 1092.66,386.43 1113.55,394.65" fill="none" stroke="#1e1e1e" stroke-width="1.5" stroke-linecap="round" stroke-linejoin="round"/>
<path d="M1211.02,1669.85L1197.86,1664.68L1195.07,1653.95L1197.77,1642.58L1189.48,1631.25L1175.07,1616.27L1164.03,1602.8L1150.6,1604.08L1121.02,1613.39L1105.48,1621.12L1102.42,1619.9L1105.12,1606.08L1101.45,1602.1L1093.2,1599.98L1095.61,1591.99L1095.28,1582.17L1091.89,1572.97L1086.08,1568.69L1077.53,1568.72L1061.37,1572.45L1047.62,1567.27L1031.41,1555.65L1028.95,1549.22L1037.46,1534.46L1031.01,1518.21L1024.29,1515.16L1024.57,1505.95L1034.9,1492.42L1043.08,1471.22L1042.14,1463.25L1035.08,1447.31L1028.05,1438.12L1028.02,1429.83L1031.35,1421.23L1040.46,1407.4L1066.61,1386.46L1069.33,1377.24L1065.91,1355.16L1059.76,1336.77L1056.33,1310.09L1056.31,1301.49L1052.93,1291.38L1051.99,1281.26L1054.67,1262.53L1060.09,1238.89L1076.23,1242.83L1078.7,1255.1L1072.95,1263.71L1100.96,1264.54L1104.62,1266.67L1107.63,1255.01L1113.4,1253.45L1117.64,1246.69L1123.96,1224.27L1134.55,1207.67L1158.27,1201.44L1168.92,1202.94L1169.56,1210.61L1163.21,1221.67L1167.8,1226.26L1179.28,1205.66L1189.04,1211.76L1200.31,1212.94L1197.64,1230.13L1192.22,1245.19L1185.87,1256.87L1191.07,1261.14L1190.79,1267.9L1186.56,1275.28L1188.73,1286.93L1184.5,1294L1170.5,1297.43L1163.52,1303.29L1165.07,1311.87L1176.97,1317.35L1174.28,1329.02L1167.89,1332.11L1167.03,1346.23L1171.29,1344.99L1177.7,1348.34L1180.47,1353.85L1177.75,1360.61L1182.04,1367.04L1193.93,1369.14L1202.48,1373.4L1201.02,1389.36L1203.17,1393.65L1198.64,1403.79L1205.39,1413.89L1209.96,1412.34L1218.83,1419.97L1227.05,1418.1L1233.19,1427.59L1222.26,1438.07L1226.88,1450.01L1232.07,1452.14L1233.96,1464.1L1244.03,1467.43L1245.9,1474.79L1260.25,1478.41L1266.67,1482.37L1275.25,1492.15L1277.72,1497.97L1311.27,1497.2L1312.86,1509.77L1322.09,1526.91L1326.98,1527.81L1335.9,1542.5L1336.24,1548.02L1371.33,1547.84L1371.73,1565.33L1365.64,1567.51L1344.33,1578.98L1334.91,1586.09L1325.2,1598.11L1314.89,1612.89L1310.35,1620.9L1308.84,1624.89L1309.81,1634.41L1304.99,1649.47L1300.75,1655.02L1288.88,1665.51L1255.31,1669.97L1234.54,1670.67L1211.62,1669.23L1211.02,1669.85Z" fill-rule="evenodd" fill="#4682b4" fill-opacity="0.471"/>
<polyline points="1211.02,1669.85 1197.86,1664.68 1195.07,1653.95 1197.77,1642.58 1189.48,1631.25 1175.07,1616.27 1164.03,1602.8 1150.6,1604.08 1121.02,1613.39 1105.48,1621.12 1102.42,1619.9 1105.12,1606.08 1101.45,1602.1 1093.2,1599.98 1095.61,1591.99 1095.28,1582.17 1091.89,1572.97 1086.08,1568.69 1077.53,1568.72 1061.37,1572.45 1047.62,1567.27 1031.41,1555.65 1028.95,1549.22 1037.46,1534.46 1031.01,1518.21 1024.29,1515.16 1024.57,1505.95 1034.9,1492.42 1043.08,1471.22 1042.14,1463.25 1035.08,1447.31 1028.05,1438.12 1028.02,1429.83 1031.35,1421.23 1040.46,1407.4 1066.61,1386.46 1069.33,1377.24 1065.91,1355.16 1059.76,1336.77 1056.33,1310.09 1056.31,1301.49 1052.93,1291.38 1051.99,1281.26 1054.67,1262.53 1060.09,1238.89 1076.23,1242.83 1078.7,1255.1 1072.95,1263.71 1100.96,1264.54 1104.62,1266.67 1107.63,1255.01 1113.4,1253.45 1117.64,1246.69 1123.96,1224.27 1134.55,1207.67 1158.27,1201.44 1168.92,1202.94 1169.56,1210.61 1163.21,1221.67 1167.8,1226.26 1179.28,1205.66 1189.04,1211.76 1200.31,1212.94 1197.64,1230.13 1192.22,1245.19 1185.87,1256.87 1191.07,1261.14 1190.79,1267.9 1186.56,1275.28 1188.73,1286.93 1184.5,1294 1170.5,1297.43 1163.52,1303.29 1165.07,1311.87 1176.97,1317.35 1174.28,1329.02 1167.89,1332.11 1167.03,1346.23 1171.29,1344.99 1177.7,1348.34 1180.47,1353.85 1177.75,1360.61 1182.04,1367.04 1193.93,1369.14 1202.48,1373.4 1201.02,1389.36 1203.17,1393.65 1198.64,1403.79 1205.39,1413.89 1209.96,1412.34 1218.83,1419.97 1227.05,1418.1 1233.19,1427.59 1222.26,1438.07 1226.88,1450.01 1232.07,1452.14 1233.96,1464.1 1244.03,1467.43 1245.9,1474.79 1260.25,1478.41 1266.67,1482.37 1275.25,1492.15 1277.72,1497.97 1311.27,1497.2 1312.86,1509.77 1322.09,1526.91 1326.98,1527.81 1335.9,1542.5 1336.24,1548.02 1371.33,1547.84 1371.73,1565.33 1365.64,1567.51 1344.33,1578.98 1334.91,1586.09 1325.2,1598.11 1314.89,1612.89 1310.35,1620.9 1308.84,1624.89 1309.81,1634.41 1304.99,1649.47 1300.75,1655.02 1288.88,1665.51 1255.31,1669.97 1234.54,1670.67 1211.62,1669.23 1211.02,1669.85" fill="none" stroke="#1e1e1e" stroke-width="1.5" stroke-linecap="round" stroke-linejoin="round"/>
<path d="M571.74,60.59L581.08,63.36L584.7,67.97L606.41,69.22L665.52,71.39L665.52,65.86L700.2,64.64L700.2,67.71L725.23,66.48L725.23,73.23L733.67,73.23L732.47,78.76L739.41,77.22L743.93,67.7L795.49,67.97L804.54,70.73L799.12,79.03L813.61,87.31L816.63,94.07L822.96,90.68L825.06,79L830.48,69.47L838.32,70.69L847.97,69.15L850.97,61.46L870.87,55.6L869.05,47L872.64,31.94L880.48,27.93L886.81,28.23L890.75,41.13L899.19,39.89L900.38,34.05L919.07,28.79L914.53,22.04L918.74,13.12L960.66,23.79L959.17,34.55L963.7,34.23L973.06,40.35L985.12,40.33L989.93,34.17L1000.17,33.53L1003.82,42.74L1008.95,47.33L1011.43,72.52L1000.28,77.77L998.19,83.92L999.72,91.6L994.01,103.59L993.13,111.58L995.57,121.71L993.16,123.56L992.86,125.71L990.45,126.94L980.82,137.1L979.35,153.38L975.13,154.62L968.8,160.17L955.54,167.87L946.79,168.2L941.66,171.59L932.61,172.53L922.96,180.22L917.22,177.47L908.18,182.71L897.01,184.26L890.07,182.74L876.49,188.9L865.33,189.53L861.09,184.62L852.64,182.48L849.02,187.71L848.74,199.99L842.7,202.46L836.06,198.78L823.08,206.47L815.53,203.41L805.27,204.95L798.63,212.94L792.59,208.04L795,200.05L792.88,193.6L785.33,188.39L787.44,178.25L781.1,174.26L774.46,177.65L767.21,173.96L761.48,176.43L761.48,184.1L752.73,190.25L749.41,189.64L746.4,201.62L736.74,213.9L721.64,213.29L710.47,209.61L696.89,209.3L690.25,212.38L683.9,220.97L668.5,227.42L660.05,233.56L644.94,249.52L631.96,254.12L630.44,261.49L637.08,273.47L634.96,280.84L627.71,287.9L617.75,275.61L606.27,273.76L598.72,267.61L595.1,259.93L586.95,256.86L586.96,249.8L590.28,245.19L586.97,231.37L579.13,225.22L571.27,231.66L559.2,224.28L564.34,216.3L562.23,210.47L543.83,201.85L540.82,193.25L533.27,194.16L529.05,190.16L529.66,183.1L527.27,169.27L530.92,147.47L539.37,144.41L542.7,135.2L550.55,132.45L552.07,118.32L562.03,113.11L563.55,108.19L562.96,93.76L566.29,82.09L565.08,78.09L571.74,60.59Z" fill-rule="evenodd" fill="#4682b4" fill-opacity="0.471"/>
<polyline points="571.74,60.59 581.08,63.36 584.7,67.97 606.41,69.22 665.52,71.39 665.52,65.86 700.2,64.64 700.2,67.71 725.23,66.48 725.23,73.23 733.67,73.23 732.47,78.76 739.41,77.22 743.93,67.7 795.49,67.97 804.54,70.73 799.12,79.03 813.61,87.31 816.63,94.07 822.96,90.68 825.06,79 830.48,69.47 838.32,70.69 847.97,69.15 850.97,61.46 870.87,55.6 869.05,47 872.64,31.94 880.48,27.93 886.81,28.23 890.75,41.13 899.19,39.89 900.38,34.05 919.07,28.79 914.53,22.04 918.74,13.12 960.66,23.79 959.17,34.55 963.7,34.23 973.06,40.35 985.12,40.33 989.93,34.17 1000.17,33.53 1003.82,42.74 1008.95,47.33 1011.43,72.52 1000.28,77.77 998.19,83.92 999.72,91.6 994.01,103.59 993.13,111.58 995.57,121.71 993.16,123.56 992.86,125.71 990.45,126.94 980.82,137.1 979.35,153.38 975.13,154.62 968.8,160.17 955.54,167.87 946.79,168.2 941.66,171.59 932.61,172.53 922.96,180.22 917.22,177.47 908.18,182.71 897.01,184.26 890.07,182.74 876.49,188.9 865.33,189.53 861.09,184.62 852.64,182.48 849.02,187.71 848.74,199.99 842.7,202.46 836.06,198.78 823.08,206.47 815.53,203.41 805.27,204.95 798.63,212.94 792.59,208.04 795,200.05 792.88,193.6 785.33,188.39 787.44,178.25 781.1,174.26 774.46,177.65 767.21,173.96 761.48,176.43 761.48,184.1 752.73,190.25 749.41,189.64 746.4,201.62 736.74,213.9 721.64,213.29 710.47,209.61 696.89,209.3 690.25,212.38 683.9,220.97 668.5,227.42 660.05,233.56 644.94,249.52 631.96,254.12 630.44,261.49 637.08,273.47 634.96,280.84 627.71,287.9 617.75,275.61 606.27,273.76 598.72,267.61 595.1,259.93 586.95,256.86 586.96,249.8 590.28,245.19 586.97,231.37 579.13,225.22 571.27,231.66 559.2,224.28 564.34,216.3 562.23,210.47 543.83,201.85 540.82,193.25 533.27,194.16 529.05,190.16 529.66,183.1 527.27,169.27 530.92,147.47 539.37,144.41 542.7,135.2 550.55,132.45 552.07,118.32 562.03,113.11 563.55,108.19 562.96,93.76 566.29,82.09 565.08,78.09 571.74,60.59" fill="none" stroke="#1e1e1e" stroke-width="1.5" stroke-linecap="round" stroke-linejoin="round"/>
<path d="M115.35,155.46L115.98,150.55L128.1,138.32L132.68,126.05L133.02,118.68L137.89,107.34L137.32,101.81L145.17,99.08L152.15,88.66L150.37,81.9L144.98,74.81L147.13,63.76L169.75,63.86L183.01,65.45L190.56,64.86L247.54,69.38L299.1,69.55L331.07,68.42L359.11,70.95L474.01,71.82L474.01,75.51L491.8,75.23L491.81,71.54L514.43,71.58L514.44,60.52L571.74,60.59L565.08,78.09L566.29,82.09L562.96,93.76L563.55,108.19L562.03,113.11L552.07,118.32L550.55,132.45L542.7,135.2L539.37,144.41L530.92,147.47L527.27,169.27L529.66,183.1L529.05,190.16L533.27,194.16L540.82,193.25L543.83,201.85L562.23,210.47L564.34,216.3L559.2,224.28L567.95,229.82L562.2,240.25L542.56,254.05L521.07,285.95L507.43,319.71L514.97,327.7L532.48,342.77L543.95,350.76L533.06,357.81L511,355.94L514.92,363.62L514.91,370.68L498.58,371.58L493.12,383.54L497.03,396.74L496.11,409.02L490.35,413.92L493.05,427.74L496.97,439.1L494.52,453.83L490.58,460.89L479.68,469.46L449.1,477.69L433.05,485.64L423.97,485.62L418.86,472.72L409.21,458.27L400.75,455.18L374.09,468.62L350.54,451.68L334.25,434.14L314.3,432.24L279.79,441.03L260.43,440.66L242.87,444.9L233.74,461.13L224.06,461.4L217.66,474.27L170.73,481.14L167.45,470.39L160.5,468.21L160.84,458.08L158.75,451.63L162.4,447.65L168.2,434.48L176.09,429.91L177.02,422.85L172.2,417.92L167.41,407.16L167.14,399.17L173.24,386.61L171.16,378.62L163.64,370L159.18,351.56L158.35,333.75L159.3,324.24L157.53,312.26L168.15,303.4L169.68,297.57L166.68,291.73L157.33,288.31L146.79,282.43L141.38,275.04L143.86,260.62L146.91,253.87L163.25,247.19L163.27,242.28L146.07,238.52L137.63,234.18L134.96,224.96L126.86,212.64L126.59,205.27L118.52,188.95L114.31,183.41L114.34,177.57L121.62,169.31L123.78,158.57L115.35,155.46Z" fill-rule="evenodd" fill="#4682b4" fill-opacity="0.471"/>
<polyline points="115.35,155.46 115.98,150.55 128.1,138.32 132.68,126.05 133.02,118.68 137.89,107.34 137.32,101.81 145.17,99.08 152.15,88.66 150.37,81.9 144.98,74.81 147.13,63.76 169.75,63.86 183.01,65.45 190.56,64.86 247.54,69.38 299.1,69.55 331.07,68.42 359.11,70.95 474.01,71.82 474.01,75.51 491.8,75.23 491.81,71.54 514.43,71.58 514.44,60.52 571.74,60.59 565.08,78.09 566.29,82.09 562.96,93.76 563.55,108.19 562.03,113.11 552.07,118.32 550.55,132.45 542.7,135.2 539.37,144.41 530.92,147.47 527.27,169.27 529.66,183.1 529.05,190.16 533.27,194.16 540.82,193.25 543.83,201.85 562.23,210.47 564.34,216.3 559.2,224.28 567.95,229.82 562.2,240.25 542.56,254.05 521.07,285.95 507.43,319.71 514.97,327.7 532.48,342.77 543.95,350.76 533.06,357.81 511,355.94 514.92,363.62 514.91,370.68 498.58,371.58 493.12,383.54 497.03,396.74 496.11,409.02 490.35,413.92 493.05,427.74 496.97,439.1 494.52,453.83 490.58,460.89 479.68,469.46 449.1,477.69 433.05,485.64 423.97,485.62 418.86,472.72 409.21,458.27 400.75,455.18 374.09,468.62 350.54,451.68 334.25,434.14 314.3,432.24 279.79,441.03 260.43,440.66 242.87,444.9 233.74,461.13 224.06,461.4 217.66,474.27 170.73,481.14 167.45,470.39 160.5,468.21 160.84,458.08 158.75,451.63 162.4,447.65 168.2,434.48 176.09,429.91 177.02,422.85 172.2,417.92 167.41,407.16 167.14,399.17 173.24,386.61 171.16,378.62 163.64,370 159.18,351.56 158.35,333.75 159.3,324.24 157.53,312.26 168.15,303.4 169.68,297.57 166.68,291.73 157.33,288.31 146.79,282.43 141.38,275.04 143.86,260.62 146.91,253.87 163.25,247.19 163.27,242.28 146.07,238.52 137.63,234.18 134.96,224.96 126.86,212.64 126.59,205.27 118.52,188.95 114.31,183.41 114.34,177.57 121.62,169.31 123.78,158.57 115.35,155.46" fill="none" stroke="#1e1e1e" stroke-width="1.5" stroke-linecap="round" stroke-linejoin="round"/>
<path d="M56.92,1879.37L54.51,1870.76L67.39,1865.91L86.34,1869.99L97.63,1875.58L104.09,1868.23L121.82,1870.16L126.42,1868.03L133.44,1872.97L147.2,1874.57L163.42,1871.87L172.01,1867L166.24,1856.53L167.78,1853.46L161.1,1841.76L157.8,1827.32L160.32,1810.13L157.3,1800.59L168.92,1800.64L172.58,1802.81L187.26,1801.95L198.59,1797.69L207.81,1785.75L218.59,1762.15L218.63,1752.63L214.37,1748.31L224.16,1744.97L224.83,1727.78L222.74,1717.02L228.87,1710.6L228,1696.47L220.4,1688.46L220.13,1677.41L223.54,1664.53L231.77,1670.39L243.97,1673.2L250.75,1658.18L242.81,1656L240.74,1637.27L245.99,1622.25L230.74,1615.44L236.63,1592.74L244.31,1577.73L254.41,1569.48L268.74,1574.44L277.28,1575.39L288.89,1572.97L302.31,1574.55L315.74,1574.59L324.94,1559.57L346.6,1561.48L367.94,1570.74L374.65,1575.36L380.11,1587.04L399.62,1597.21L407.54,1606.75L419.41,1624.89L435.88,1632.59L444.72,1639.37L445.32,1647.96L443.76,1663.92L450.78,1666.09L454.74,1671L449.22,1679.59L447.97,1694.32L443.69,1700.46L443.96,1718.88L450.37,1721.65L465.04,1717.38L472.68,1717.09L480.31,1721.09L498.34,1722.35L514.82,1738.96L511.43,1754.92L515.68,1776.11L526.68,1782.57L537.04,1807.15L563.33,1821.62L566.07,1832.06L555.36,1838.19L550.15,1846.17L533.63,1849.23L524.44,1858.74L520.75,1869.48L518.57,1898.66L508.77,1902.64L503.24,1917.37L489.16,1919.81L483.34,1926.56L483.64,1927.48L486.7,1926.87L484.86,1928.41L478.13,1930.54L471.69,1938.83L471.38,1940.67L472.6,1942.52L475.04,1943.44L471.68,1942.82L471.37,1944.05L472.29,1944.97L467.69,1946.5L453.61,1947.09L444.42,1952.91L444.72,1954.14L436.45,1955.35L419.59,1965.46L413.16,1967.9L410.08,1973.42L407.94,1974.34L402.11,1980.78L402.1,1982.32L399.96,1983.23L399.65,1982.62L394.14,1981.99L387.71,1982.59L383.11,1984.12L382.2,1983.5L380.05,1984.11L379.13,1985.33L366.27,1986.53L361.07,1983.75L362.01,1977L356.81,1972.68L344.27,1970.19L339.08,1964.95L332.65,1962.78L329.91,1957.55L320.74,1953.84L318.32,1944.31L311.9,1941.22L312.21,1939.37L297.23,1932.57L282.56,1927.3L258.09,1921.07L156.88,1899.49L56.92,1879.37Z" fill-rule="evenodd" fill="#4682b4" fill-opacity="0.471"/>
<polyline points="56.92,1879.37 54.51,1870.76 67.39,1865.91 86.34,1869.99 97.63,1875.58 104.09,1868.23 121.82,1870.16 126.42,1868.03 133.44,1872.97 147.2,1874.57 163.42,1871.87 172.01,1867 166.24,1856.53 167.78,1853.46 161.1,1841.76 157.8,1827.32 160.32,1810.13 157.3,1800.59 168.92,1800.64 172.58,1802.81 187.26,1801.95 198.59,1797.69 207.81,1785.75 218.59,1762.15 218.63,1752.63 214.37,1748.31 224.16,1744.97 224.83,1727.78 222.74,1717.02 228.87,1710.6 228,1696.47 220.4,1688.46 220.13,1677.41 223.54,1664.53 231.77,1670.39 243.97,1673.2 250.75,1658.18 242.81,1656 240.74,1637.27 245.99,1622.25 230.74,1615.44 236.63,1592.74 244.31,1577.73 254.41,1569.48 268.74,1574.44 277.28,1575.39 288.89,1572.97 302.31,1574.55 315.74,1574.59 324.94,1559.57 346.6,1561.48 367.94,1570.74 374.65,1575.36 380.11,1587.04 399.62,1597.21 407.54,1606.75 419.41,1624.89 435.88,1632.59 444.72,1639.37 445.32,1647.96 443.76,1663.92 450.78,1666.09 454.74,1671 449.22,1679.59 447.97,1694.32 443.69,1700.46 443.96,1718.88 450.37,1721.65 465.04,1717.38 472.68,1717.09 480.31,1721.09 498.34,1722.35 514.82,1738.96 511.43,1754.92 515.68,1776.11 526.68,1782.57 537.04,1807.15 563.33,1821.62 566.07,1832.06 555.36,1838.19 550.15,1846.17 533.63,1849.23 524.44,1858.74 520.75,1869.48 518.57,1898.66 508.77,1902.64 503.24,1917.37 489.16,1919.81 483.34,1926.56 483.64,1927.48 486.7,1926.87 484.86,1928.41 478.13,1930.54 471.69,1938.83 471.38,1940.67 472.6,1942.52 475.04,1943.44 471.68,1942.82 471.37,1944.05 472.29,1944.97 467.69,1946.5 453.61,1947.09 444.42,1952.91 444.72,1954.14 436.45,1955.35 419.59,1965.46 413.16,1967.9 410.08,1973.42 407.94,1974.34 402.11,1980.78 402.1,1982.32 399.96,1983.23 399.65,1982.62 394.14,1981.99 387.71,1982.59 383.11,1984.12 382.2,1983.5 380.05,1984.11 379.13,1985.33 366.27,1986.53 361.07,1983.75 362.01,1977 356.81,1972.68 344.27,1970.19 339.08,1964.95 332.65,1962.78 329.91,1957.55 320.74,1953.84 318.32,1944.31 311.9,1941.22 312.21,1939.37 297.23,1932.57 282.56,1927.3 258.09,1921.07 156.88,1899.49 56.92,1879.37" fill="none" stroke="#1e1e1e" stroke-width="1.5" stroke-linecap="round" stroke-linejoin="round"/>
<text x="493.18" y="1361.74" font-family="sans-serif" font-size="14" stroke="#ffffff" stroke-opacity="0.784" stroke-width="2.33" stroke-linejoin="round" paint-order="stroke" fill="#141414">Ashanti Region</text>
<text x="841.72" y="549.47" font-family="sans-serif" font-size="14" stroke="#ffffff" stroke-opacity="0.784" stroke-width="2.33" stroke-linejoin="round" paint-order="stroke" fill="#141414">Northern Region</text>
<text x="252.67" y="260.9" font-family="sans-serif" font-size="14" stroke="#ffffff" stroke-opacity="0.784" stroke-width="2.33" stroke-linejoin="round" paint-order="stroke" fill="#141414">Upper West Region</text>
<text x="798.69" y="1484.42" font-family="sans-serif" font-size="14" stroke="#ffffff" stroke-opacity="0.784" stroke-width="2.33" stroke-linejoin="round" paint-order="stroke" fill="#141414">Eastern Region</text>
<text x="275.84" y="1793.59" font-family="sans-serif" font-size="14" stroke="#ffffff" stroke-opacity="0.784" stroke-width="2.33" stroke-linejoin="round" paint-order="stroke" fill="#141414">Western Region</text>
<text x="188.4" y="1091.93" font-family="sans-serif" font-size="14" stroke="#ffffff" stroke-opacity="0.784" stroke-width="2.33" stroke-linejoin="round" paint-order="stroke" fill="#141414">Bono Region</text>
<text x="1109.19" y="1476.54" font-family="sans-serif" font-size="14" stroke="#ffffff" stroke-opacity="0.784" stroke-width="2.33" stroke-linejoin="round" paint-order="stroke" fill="#141414">Volta Region</text>
<text x="567.16" y="1742.11" font-family="sans-serif" font-size="14" stroke="#ffffff" stroke-opacity="0.784" stroke-width="2.33" stroke-linejoin="round" paint-order="stroke" fill="#141414">Central Region</text>
<text x="674.41" y="141.5" font-family="sans-serif" font-size="14" stroke="#ffffff" stroke-opacity="0.784" stroke-width="2.33" stroke-linejoin="round" paint-order="stroke" fill="#141414">Upper East Region</text>
<text x="917.45" y="1676.25" font-family="sans-serif" font-size="14" stroke="#ffffff" stroke-opacity="0.784" stroke-width="2.33" stroke-linejoin="round" paint-order="stroke" fill="#141414">Greater Accra Region</text>
</svg>
