<?xml version="1.0" encoding="UTF-8" standalone="no"?>
<svg xmlns="http://www.w3.org/2000/svg" width="1382" height="2000" viewBox="0 0 1382 2000">
<rect width="1382" height="2000" fill="#ffffff"/>
<path d="M56.61,1879.37L54.51,1870.76L55.44,1868.61L67.39,1865.91L77.78,1868.72L83.59,1869.06L93.66,1873.1L97.63,1875.58L101.61,1875.29L104.09,1868.23L108.06,1868.56L110.2,1870.11L112.34,1869.5L116.32,1870.13L117.54,1869.52L118.46,1870.14L119.68,1869.53L121.21,1870.46L121.83,1868.62L123.97,1869.25L124.58,1868.33L126.42,1868.03L128.56,1869.57L130.09,1869.27L133.44,1872.97L136.18,1874.22L138.02,1873.61L137.41,1872.68L139.57,1869.93L141.1,1870.24L142.31,1873.01L144.14,1874.86L145.36,1874.26L145.06,1872.72L145.98,1873.34L145.97,1874.56L147.2,1874.57L148.12,1873.04L149.34,1874.27L152.7,1874.59L153.63,1871.53L154.25,1871.53L153.93,1873.68L155.77,1872.76L158.22,1873.39L160.35,1874.01L160.35,1875.24L161.57,1875.55L161.87,1876.48L162.79,1876.17L163.72,1873.72L163.11,1873.41L163.42,1871.87L166.18,1871.58L167.4,1872.51L168.93,1870.67L168.02,1870.66L168.95,1867.6L170.17,1868.22L170.79,1866.07L172.01,1867L171.71,1865.46L172.93,1865.16L172.94,1863.93L172.02,1864.23L171.11,1861.16L170.2,1860.84L170.19,1861.77L169.58,1861.76L168.36,1861.14L167.45,1859.3L168.99,1858.08L166.24,1856.53L167.78,1853.46L165.36,1847.62L165.67,1845.47L162.92,1845.76L162.02,1842.38L161.1,1841.76L161.11,1840.23L162.94,1840.54L162.34,1837.16L161.73,1837.16L162.04,1835.93L163.57,1835.94L160.21,1834.7L161.45,1831.94L162.37,1831.94L162.36,1833.17L163.89,1833.18L162.06,1830.71L164.2,1831.33L163.9,1829.49L162.99,1828.87L160.85,1829.17L160.55,1827.63L158.41,1827.93L157.19,1825.78L156.58,1826.7L156.28,1825.47L159.34,1824.87L158.11,1824.86L157.81,1823.32L155.07,1821.78L154.16,1819.93L154.47,1817.47L155.7,1816.86L158.45,1817.49L159.99,1814.12L160.32,1810.13L158.49,1807.66L158.5,1806.43L156.66,1805.81L157.89,1804.28L158.81,1804.59L158.81,1803.67L157.29,1802.44L157.3,1800.59L159.14,1799.37L159.45,1797.84L160.67,1797.85L162.8,1800.31L163.1,1801.85L167.69,1801.56L168.92,1800.64L170.74,1802.49L172.58,1802.81L173.19,1802.2L173.25,1788.38L165.67,1772.99L160.01,1737.04L162.21,1723.23L161.29,1723.23L160.99,1722L159.16,1722.61L158.55,1721.68L157.93,1722.3L157.65,1718L154.29,1717.37L154.6,1715.83L153.38,1714.6L152.15,1716.44L150.01,1716.43L149.4,1717.35L146.96,1715.49L146.66,1714.26L145.44,1715.18L143.6,1714.86L143.3,1713.94L139.34,1711.78L139.34,1710.85L132.33,1707.45L133.25,1706.53L132.65,1705.61L132.03,1707.14L130.81,1706.83L129.58,1708.66L127.13,1709.57L126.51,1710.8L124.99,1710.48L124.37,1712.02L122.23,1712.31L120.08,1714.15L118.86,1713.22L117.33,1714.13L113.66,1714.42L111.51,1716.87L109.37,1716.86L107.86,1714.09L106.94,1714.39L106.34,1712.55L104.82,1711.31L104.51,1711.93L101.76,1711.61L99.63,1710.37L103.4,1687.36L81.39,1689.4L83.45,1643.98L67.15,1604.61L58.55,1553L42.84,1522.53L37.04,1522.81L36.44,1522.19L37.98,1517.9L38.33,1509.92L36.54,1501.93L34.73,1498.55L18.6,1433.71L19.62,1415.3L16.27,1414.06L11.41,1410.04L11.12,1408.2L12.66,1404.83L12.37,1402.68L13.6,1400.23L14.52,1399.93L16.37,1395.65L19.12,1394.74L19.13,1391.98L20.36,1390.76L19.75,1389.22L20.67,1388.92L21.29,1387.08L20.38,1386.46L20.39,1384.62L22.53,1383.71L24.37,1381.57L25,1376.97L27.14,1375.76L24.73,1370.53L26.27,1368.08L25.36,1366.54L18.99,1361.29L20.21,1360.07L19.92,1357.92L21.17,1351.49L20.28,1347.49L48.54,1303.45L64.5,1276.84L72.13,1273.5L81.58,1271.1L84.12,1249.63L93.92,1237.4L105.87,1220.28L99.23,1210.43L100.84,1191.42L107.98,1161.08L108.31,1154.64L112.93,1141.47L115.83,1105.58L118.9,1100.08L134.87,1063.64L138.24,1059.36L138.57,1052.92L144.98,1046.2L143.78,1041.9L148.06,1036.7L154.77,1030.9L156,1028.76L156.65,1018.33L159.15,1001.47L161.58,1001.48L163.1,1002.41L165.81,1006.71L166.11,1008.86L169.14,1010.71L174.35,999.69L175.26,999.39L178.93,994.19L182.28,991.75L185.65,985.93L186.86,985.32L187.48,983.18L189.92,980.73L205.73,977.73L208.15,979.88L212.71,977.75L214.87,969.48L206.72,956.56L206.43,953.19L205.52,952.26L206.14,948.89L209.8,944.92L211.95,940.32L214.07,939.72L218.93,940.66L221.66,942.51L225,941.29L226.21,942.83L227.43,941.92L229.25,942.23L246.93,923.89L246.42,894.43L219.97,745.54L214.21,745.21L210.86,747.04L206.03,743.34L208.17,739.05L215.46,734.79L216.07,732.95L215.17,729.88L212.76,726.8L208.25,717.58L208.88,711.75L210.1,708.69L209.82,704.08L200.74,699.14L199.54,696.98L197.77,685.01L199.01,677.65L195.99,674.27L192.36,672.41L187.81,672.7L182.67,671.76L178.43,669.9L176.31,670.81L170.55,670.17L166.32,668.32L165.12,665.86L163,665.54L160.89,661.24L160.9,659.7L164.25,656.65L166.69,652.05L165.52,642.54L163.11,638.54L163.12,636.08L166.77,633.34L171.01,633.35L173.74,632.14L177.39,627.86L180.15,621.12L179.85,618.36L181.07,616.83L183.81,614.08L186.54,612.86L187.46,610.71L196.26,606.45L197.78,604.31L198.4,601.25L194.78,596.32L189.65,591.7L187.83,592.92L184.5,592.29L182.39,591.06L180.28,588.29L179.09,583.68L179.11,577.85L181.84,576.02L184.57,575.72L187.92,571.44L190.65,569.91L192.48,567.16L193.71,561.03L192.52,555.19L189.82,550.58L188.92,547.2L188.65,540.75L190.5,531.55L188.1,526.02L185.69,523.25L183.58,522.32L180.87,518.63L176.03,517.38L172.11,512.76L169.09,511.52L167.28,509.67L164.58,504.13L164.01,495.85L166.75,493.09L166.76,490.64L169.49,488.5L169.8,486.97L171.62,485.44L171.93,483.3L169.53,479.6L168.35,471L162.61,469.44L160.5,468.21L159.6,466.06L159.62,462.07L160.85,456.85L159.05,453.47L159.06,450.4L162.4,447.65L163.63,443.67L165.45,441.83L168.2,436.01L168.2,434.48L170.94,432.03L176.69,429.6L178.22,425L172.2,417.92L167.4,408.69L167.73,403.78L166.83,400.09L169.59,392.74L171.11,390.29L172.62,389.37L173.25,385.08L171.16,378.62L167.24,374.92L163.64,370L162.75,366L161.84,365.08L161.56,360.17L158.89,348.49L159.82,343.27L158.62,340.51L158.04,334.36L160.18,329.77L156.92,314.4L157.53,312.26L159.36,310.12L163.6,307.68L168.15,303.4L169.68,297.57L167.89,292.65L164.27,290.18L157.33,288.31L146.79,282.43L143.47,279.65L141.38,275.04L141.39,273.19L143.83,267.06L143.86,260.62L146.91,253.87L150.55,251.13L157.19,250.54L162.04,248.1L163.25,247.19L164.77,243.2L163.27,242.28L149.69,239.76L136.73,233.56L134.63,229.87L134.96,224.96L134.36,222.5L132.27,219.11L130.16,217.87L128.06,215.1L126.27,210.18L127.18,207.73L126.59,205.27L122.99,199.72L119.42,190.19L116.71,188.02L116.12,185.56L114.61,184.94L114.31,183.41L114.34,177.57L115.26,175.42L117.38,172.67L121.62,169.31L123.45,166.56L123.15,165.02L124.97,162.57L124.98,161.03L123.18,157.96L117.46,156.39L114.75,154.85L115.37,151.16L120.82,147.19L125.06,142.61L128.71,137.09L129.33,133.1L132.68,126.05L133.32,117.76L137.88,110.11L137.9,106.11L137,105.19L137.93,100.28L140.34,99.06L145.17,99.08L146.08,98.47L151.85,89.89L151.57,84.05L150.37,81.9L145.87,78.19L144.97,76.35L147.13,63.76L169.75,63.86L169.75,65.08L175.78,65.42L190.56,64.86L207.13,67.08L208.04,66.16L247.54,69.38L299.1,69.55L316.3,68.38L331.07,68.42L359.11,70.95L474.01,71.82L474.01,75.51L491.8,75.23L491.81,71.54L514.43,71.58L514.44,60.52L572.04,60.59L581.08,63.36L584.7,67.97L630.23,70.15L665.52,71.39L665.52,65.86L695.67,64.64L700.2,64.64L700.2,67.71L707.13,67.71L713.77,66.48L725.23,66.48L725.23,73.23L733.67,73.23L733.98,77.84L732.77,77.84L732.47,78.76L739.41,77.22L743.93,67.7L752.07,67.69L752.37,65.24L758.1,65.23L758.1,67.69L795.49,67.97L794.89,71.05L797.31,72.58L798.81,70.12L804.54,70.73L805.15,72.57L804.25,74.42L801.53,75.03L799.12,79.03L799.42,79.95L802.74,80.25L804.85,78.1L807.27,81.48L806.06,82.4L813,85.77L815.12,92.53L814.82,93.76L816.63,94.07L819.64,91.6L822.96,90.68L822.66,88.22L823.26,88.22L824.76,84.53L825.06,79L826.27,78.39L826.87,75.62L828.37,74.09L830.48,69.47L834.7,69.78L835.91,72.23L835.31,72.54L835.61,73.46L837.72,74.38L838.32,70.69L843.14,67L844.35,69.46L845.86,69.46L847.67,70.68L847.97,69.15L850.68,66.07L850.37,62.08L853.69,60.23L855.19,59.92L855.8,60.53L856.7,59.92L857,57.46L858.81,55.92L862.43,58.38L865.75,58.06L866.05,57.45L869.67,57.75L870.87,55.6L869.36,53.45L870.56,52.22L869.05,47L871.75,40.54L871.44,35.63L872.64,31.94L879.57,29.16L879.57,28.24L880.48,27.93L883.19,28.54L885.3,27.93L886.81,28.23L887.71,29.46L889.52,29.15L888.63,34.68L890.14,36.52L889.54,38.67L890.75,41.13L893.16,42.66L892.86,45.12L894.37,45.12L894.67,41.12L898.89,40.5L900.69,36.2L900.08,34.66L901.29,33.43L905.81,31.27L908.22,31.57L910.63,30.03L917.56,29.41L919.97,28.17L919.66,24.49L914.53,22.04L914.83,20.5L916.03,19.58L916.03,15.89L918.74,13.12L953.12,21.66L955.83,23.19L960.66,23.79L961.57,26.25L958.56,29.63L958.57,33.93L959.17,34.55L960.38,33.93L961.59,34.54L963.7,34.23L965.51,35.15L965.81,36.38L966.72,36.07L969.73,37.29L970.64,37.9L970.64,39.13L973.06,40.35L975.77,40.04L977.28,40.96L982.4,40.03L985.12,40.33L987.82,36.02L992.03,32.94L995.95,31.7L1000.17,33.53L1000.18,35.68L1002.3,38.13L1003.82,42.74L1008.95,47.33L1010.51,65.46L1012.02,69.14L1011.13,71.91L1011.73,73.13L1007.51,74.37L1005.11,77.14L1000.28,77.77L999.39,83.61L998.19,83.92L999.42,93.13L997.61,95.29L998.22,95.59L996.12,101.44L994.01,103.59L994.33,107.89L993.13,111.58L995.57,121.71L993.16,123.56L992.56,126.02L988.34,129.1L988.35,130.63L984.43,132.79L982.63,136.48L981.72,136.18L979.91,137.72L980.82,138.64L979.62,141.1L980.54,146.01L979.64,149.08L980.25,152.46L979.35,153.38L975.43,154.32L974.82,155.24L974.83,156.47L978.46,161.99L980.89,168.43L980.9,171.5L983.63,179.17L997.22,182.21L998.74,184.66L1014.45,189.23L1015.06,191.38L1019.29,195.05L1020.52,201.5L1037.44,207.6L1040.77,210.96L1045.3,212.18L1047.75,224.15L1048.96,225.07L1048.66,226.91L1050.18,227.83L1049.58,229.98L1048.67,230.29L1049.28,231.52L1051.1,232.43L1052.01,234.58L1052.92,235.19L1053.52,234.57L1054.43,235.49L1052.92,237.95L1053.54,241.94L1057.47,243.77L1058.68,245.61L1059.89,245.92L1059.29,247.76L1060.81,249.91L1062.92,248.67L1064.73,248.67L1064.74,249.59L1065.34,248.66L1064.12,245.29L1065.93,245.59L1065.63,244.36L1068.04,242.51L1068.95,243.13L1068.65,244.05L1070.76,244.04L1073.79,247.1L1073.79,245.87L1075.9,245.87L1077.71,246.78L1078.02,248.01L1080.13,247.7L1080.44,248.31L1083.45,247.07L1082.54,245.85L1083.75,245.84L1084.65,244.31L1085.86,244.92L1088.58,244.29L1090.1,247.97L1091,247.36L1092.52,247.97L1093.14,252.88L1091.33,255.65L1089.82,256.26L1089.83,257.8L1093.16,259.02L1093.46,259.94L1094.97,259.32L1095.28,260.85L1096.18,260.85L1097.1,265.45L1098.01,266.06L1097.72,269.75L1098.33,270.67L1099.24,270.97L1100.74,268.82L1101.95,270.04L1103.16,270.04L1104.07,272.49L1104.08,274.03L1102.27,274.03L1099.85,275.58L1099.56,277.73L1097.75,278.04L1098.66,278.96L1099.56,278.34L1100.47,279.26L1101.98,278.03L1103.79,278.94L1107.12,278.93L1108.92,277.08L1110.44,278L1113.46,277.99L1119.49,276.43L1122.21,277.34L1122.52,279.49L1120.11,280.73L1119.51,280.12L1118.91,281.35L1118,281.35L1118,282.58L1116.8,282.89L1116.5,285.04L1115,286.58L1114.69,285.66L1114.09,285.97L1115,287.5L1117.72,288.41L1117.73,289.64L1116.22,289.95L1115.62,291.49L1112.3,292.11L1111.7,293.34L1111.44,306.24L1109.63,308.4L1110.25,312.69L1108.44,314.54L1109.66,317.3L1108.47,321.91L1111.81,328.34L1112.43,331.11L1110.62,334.18L1111.23,335.41L1108.83,339.41L1110.06,345.54L1112.78,347.07L1122.16,348.57L1127.31,352.85L1128.83,355.61L1127.34,360.83L1127.95,362.98L1126.45,366.98L1123.73,367.29L1121.61,365.76L1115.57,365.48L1112.84,363.03L1111.33,364.88L1112.86,368.56L1111.96,373.16L1110.76,374.4L1111.07,376.85L1114.12,384.51L1119.57,388.49L1119.59,392.78L1111.43,394.96L1109.93,397.42L1108.74,402.95L1109.36,407.86L1108.76,410.01L1110.28,413.07L1109.68,413.69L1110.61,420.44L1108.22,427.51L1106.1,428.74L1104.9,430.59L1105.51,433.66L1102.5,437.04L1103.11,439.5L1104.33,440.72L1103.73,442.87L1101.01,443.49L1102.53,446.86L1099.24,457L1100.76,458.53L1105.29,458.83L1107.11,460.05L1109.26,467.41L1108.97,473.24L1105.97,478.77L1100.53,480.63L1099.01,480.33L1095.67,477.58L1095.06,475.43L1090.51,470.54L1086.88,469.93L1082.66,476.7L1082.37,478.85L1086.32,486.51L1086.64,490.19L1092.41,497.54L1094.53,497.53L1105.4,491.67L1109.33,488.58L1110.54,488.58L1115.39,490.71L1115.09,491.94L1116.61,495.62L1119.04,498.37L1117.84,500.83L1115.43,502.68L1109.08,504.85L1107.57,504.85L1105.74,503.02L1103.93,502.72L1098.79,503.96L1090.31,503.38L1083.66,506.47L1079.72,504.33L1075.48,504.04L1075.5,508.03L1074.3,511.71L1074.61,515.7L1076.44,519.38L1079.77,520.9L1084.61,520.58L1088.54,519.03L1092.78,519.94L1096.43,523L1097.04,526.07L1089.19,531.31L1086.46,530.7L1085.26,533.47L1079.81,533.79L1074.66,531.35L1071.94,531.67L1072.56,538.72L1076.81,543.01L1078.03,544.85L1077.73,546.07L1081.67,547.6L1081.98,548.82L1083.49,548.2L1085.61,549.42L1095.29,545.71L1097.4,543.56L1098.92,543.86L1100.13,543.55L1100.43,542.63L1101.34,543.24L1104.96,541.69L1107.67,535.24L1108.27,535.54L1109.18,534.62L1107.05,530.94L1111.57,527.24L1114.6,528.16L1114.9,527.23L1116.73,529.07L1120.05,528.75L1120.66,529.36L1128.53,527.8L1128.52,526.57L1129.13,527.18L1134.28,527.47L1134.58,528.09L1137.31,528.08L1138.82,527.15L1141.24,527.45L1141.55,528.67L1142.75,528.36L1143.06,529.9L1143.67,529.28L1144.58,530.2L1149.12,531.41L1150.94,530.79L1154.58,534.15L1155.2,536.6L1156.1,536.91L1155.51,539.67L1153.7,540.29L1153.7,541.21L1152.79,541.52L1153.4,542.75L1152.8,543.36L1154.31,543.97L1154.32,545.51L1157.35,546.11L1159.77,544.87L1161.28,545.79L1161.9,547.63L1164.02,547.62L1164.32,548.85L1165.53,548.53L1166.45,549.76L1170.69,550.36L1171.61,554.03L1174.64,555.56L1170.47,572.14L1168.06,575.53L1169.58,578.59L1169.59,580.74L1171.42,583.8L1170.52,586.87L1167.8,587.19L1165.98,586.28L1164.78,589.96L1162.37,593.66L1160.56,594.58L1156.34,601.35L1160.92,610.23L1164.88,616.05L1161.26,620.97L1158.27,629.88L1156.15,630.81L1155.55,632.96L1153.43,632.35L1147.69,635.75L1149.21,638.51L1148.91,639.73L1150.13,642.18L1149.54,644.33L1150.76,646.78L1149.86,649.24L1146.53,650.79L1143.22,656.94L1143.55,663.69L1141.73,663.39L1141.43,666.46L1141.75,669.52L1143.57,669.82L1144.19,673.2L1145.7,673.8L1145.42,679.02L1153.05,694.34L1155.78,694.63L1157.61,698L1159.74,699.22L1158.54,701.99L1159.15,702.9L1157.64,705.98L1158.86,706.59L1158.57,710.27L1159.48,710.27L1161.62,715.78L1163.45,717.62L1161.03,719.47L1160.13,721.62L1161.34,723.15L1161.35,724.68L1160.44,725.3L1158.32,724.38L1157.41,725L1157.42,726.54L1153.79,729.62L1155.32,732.99L1154.41,732.99L1153.51,735.45L1155.03,737.28L1152.32,741.59L1146.25,741.92L1145.96,744.07L1145.05,743.76L1143.83,741.31L1142.61,741.01L1142.91,738.55L1139.27,738.26L1137.76,741.03L1134.43,741.96L1133.83,742.88L1134.14,744.72L1135.65,743.18L1137.17,744.71L1136.26,746.56L1135.35,746.25L1133.24,748.1L1132.02,747.8L1132.01,745.04L1130.8,744.12L1124.73,743.53L1124.13,744.76L1122.3,742.62L1122.01,744.46L1118.37,744.16L1119.29,748.76L1118.08,750.3L1121.13,753.36L1124.77,753.65L1125.07,754.88L1123.26,755.81L1116.89,755.83L1120.23,758.27L1119.63,760.11L1146.48,802.97L1146.78,803.58L1145.87,804.2L1149.21,804.8L1150.42,803.26L1150.73,803.88L1152.85,803.87L1154.07,805.09L1153.47,806.63L1155.9,809.38L1155.3,810.61L1156.82,812.14L1157.73,811.21L1158.64,811.82L1158.65,813.97L1162.59,813.96L1164.41,812.11L1165.02,813.95L1165.93,813.94L1166.24,815.78L1169.58,817.3L1171.71,817.3L1170.5,817.91L1171.41,818.83L1174.45,819.43L1175.06,821.89L1176.89,823.11L1176.28,823.72L1176.6,825.87L1177.81,824.94L1178.72,825.86L1181.45,825.85L1182.98,828.6L1186.01,827.98L1189.05,829.5L1191.17,829.19L1194.82,831.01L1193.61,832.86L1194.53,834.39L1197.87,834.07L1199.39,835.29L1200,836.82L1199.41,840.81L1200.63,842.03L1201.25,845.71L1202.77,846.93L1202.78,847.85L1201.57,848.16L1202.19,851.23L1201.58,852.46L1202.19,853.07L1201.28,853.38L1201.6,857.37L1207.68,858.57L1209.81,861.02L1211.94,860.7L1212.24,861.93L1214.98,862.53L1214.39,865.91L1218.03,865.58L1215.91,867.43L1219.87,870.48L1218.66,872.64L1219.88,874.17L1219.3,878.77L1222.03,879.37L1221.73,881.21L1225.07,881.51L1225.38,882.43L1224.48,883.96L1225.39,884.57L1225.71,887.33L1225.11,889.79L1225.72,890.09L1225.75,896.84L1225.14,897.46L1225.75,898.68L1223.02,899L1219.68,898.1L1212.71,900.58L1211.5,901.81L1210.91,905.5L1208.18,907.35L1197.55,907.08L1197.57,911.38L1193.34,915.08L1194.25,915.38L1193.64,916.3L1193.96,918.14L1191.84,919.38L1191.23,920.91L1189.11,920.62L1188.81,921.23L1185.77,921.55L1183.35,923.71L1182.45,926.16L1184.28,928.31L1185.5,928.61L1185.5,929.53L1188.24,930.44L1190.36,930.12L1189.76,933.19L1188.25,933.81L1189.17,937.18L1188.58,941.79L1189.19,942.4L1187.99,944.24L1183.43,944.57L1184.08,955.3L1181.96,955.31L1181.66,958.38L1184.13,968.19L1185.35,968.18L1185.96,969.41L1185.97,971.25L1185.06,972.17L1185.37,974.01L1184.46,974.63L1186.92,981.06L1185.4,982.6L1186.02,984.75L1188.16,986.89L1188.77,989.34L1186.65,990.27L1185.43,989.96L1185.75,993.03L1187.59,998.85L1188.51,998.85L1187.9,1000.08L1190.04,1002.22L1189.75,1004.98L1192.2,1011.72L1193.76,1022.14L1192.86,1022.76L1193.17,1025.21L1194.7,1027.66L1193.82,1035.33L1192.6,1035.65L1192.3,1036.87L1192.91,1037.18L1192.01,1040.56L1191.74,1047.31L1193.26,1048.22L1192.05,1048.84L1192.05,1049.76L1195.7,1050.36L1194.8,1051.9L1196.02,1054.65L1196.04,1058.33L1192.39,1059.58L1192.7,1061.11L1190.28,1062.04L1190.59,1064.18L1191.81,1065.1L1191.51,1066.94L1192.44,1070.62L1194.59,1076.13L1192.77,1077.98L1189.42,1075.54L1185.17,1076.78L1183.65,1078.02L1181.56,1087.84L1182.53,1102.87L1175.85,1105.04L1173.43,1107.2L1169.78,1107.21L1163.71,1111.53L1161.89,1111.85L1163.72,1113.07L1164.03,1115.52L1162.89,1135.47L1162.28,1135.77L1164.13,1140.98L1163.52,1142.21L1164.74,1143.43L1164.45,1145.58L1165.67,1146.5L1162.94,1148.35L1162.64,1149.58L1163.55,1150.5L1162.95,1152.65L1163.57,1153.87L1165.08,1152.94L1166.3,1153.25L1166.92,1154.47L1166.32,1157.85L1167.23,1158.15L1166.93,1159.07L1168.16,1161.83L1167.56,1162.75L1168.47,1164.28L1170,1164.58L1170.61,1166.73L1171.83,1167.03L1172.45,1168.87L1177.64,1173.45L1186.75,1170.96L1187.66,1169.42L1189.48,1169.11L1192.52,1166.95L1194.04,1168.17L1194.65,1167.86L1195.88,1170.93L1197.4,1169.69L1200.44,1170.6L1200.15,1173.67L1201.99,1177.34L1200.17,1177.96L1199.57,1179.81L1201.71,1183.79L1204.81,1196.35L1203.9,1198.81L1202.39,1200.04L1203.01,1204.03L1202.41,1204.34L1201.49,1203.42L1200.89,1204.65L1200.03,1218.77L1199.12,1220.61L1197.64,1230.13L1194.62,1237.2L1192.5,1237.82L1191.59,1240.28L1192.81,1241.2L1192.83,1243.96L1191.31,1246.11L1188.88,1246.43L1189.49,1247.96L1188.59,1251.34L1186.47,1252.57L1184.97,1258.71L1185.27,1259.33L1185.88,1258.71L1187.4,1259.01L1188.02,1260.85L1191.07,1261.14L1191.68,1263.29L1190.77,1264.21L1191.69,1264.52L1191.69,1265.44L1190.79,1267.9L1186.56,1275.28L1189.02,1282.63L1187.8,1283.25L1188.73,1286.93L1185.4,1290.62L1186.62,1291.84L1184.5,1294L1180.85,1295.86L1178.41,1294.94L1171.72,1296.5L1169.29,1298.05L1167.47,1300.82L1163.52,1302.67L1164.74,1304.51L1163.83,1305.74L1165.06,1307.58L1163.85,1309.73L1164.16,1311.26L1172.39,1314.3L1172.4,1315.83L1173.62,1315.21L1175.45,1315.82L1176.97,1317.35L1177.28,1318.88L1176.37,1319.5L1176.39,1323.79L1174.28,1329.02L1167.89,1332.11L1170.34,1335.17L1170.35,1336.4L1166.69,1337.64L1166.72,1345L1167.33,1345.31L1167.03,1346.23L1169.17,1347.45L1171.3,1346.83L1170.69,1345.91L1172.21,1344.98L1177.7,1348.34L1177.41,1350.79L1178.63,1351.09L1178.63,1352.32L1181.68,1352.92L1180.47,1353.85L1181.08,1354.46L1180.17,1355.38L1178.64,1355.08L1178.65,1356.92L1177.44,1358.46L1177.75,1360.61L1180.81,1363.05L1179.89,1363.36L1182.04,1367.04L1186.31,1367.63L1189.98,1370.69L1193.93,1369.14L1195.47,1371.28L1197.29,1370.66L1203.09,1374.01L1200.68,1378.93L1202.21,1381.07L1202.23,1385.06L1201.62,1385.37L1201.02,1389.36L1202.25,1390.28L1203.17,1393.65L1201.05,1396.42L1198.64,1403.79L1200.17,1404.09L1198.96,1405.94L1201.09,1406.55L1202.62,1408.38L1205.39,1413.89L1208.44,1414.49L1207.83,1413.58L1209.35,1413.88L1209.96,1412.34L1215.15,1416.31L1215.46,1417.23L1213.63,1416.93L1213.64,1417.54L1215.78,1419.07L1220.35,1419.97L1227.05,1418.1L1231.03,1421.15L1233.19,1427.59L1224.99,1434.37L1222.26,1438.07L1224.11,1442.35L1224.43,1446.04L1226.58,1449.71L1232.07,1452.14L1233.96,1464.1L1244.03,1467.43L1245.9,1474.79L1260.25,1478.41L1266.67,1482.37L1275.25,1492.15L1277.72,1497.97L1311.27,1497.2L1312.81,1500.26L1311.92,1504.56L1312.86,1509.77L1315.31,1512.21L1315.63,1515.9L1318.1,1520.18L1317.8,1521.41L1319.63,1522.94L1322.09,1526.91L1325.46,1528.43L1326.98,1527.81L1330.67,1532.39L1330.37,1533.62L1331.29,1535.77L1335.9,1542.5L1335.93,1547.71L1371.33,1547.84L1371.73,1565.33L1355.59,1572.17L1344.33,1578.98L1334.91,1586.09L1315.5,1611.66L1309.14,1623.05L1309.81,1634.41L1309.21,1638.09L1306.51,1646.7L1304.39,1650.7L1294.97,1661.49L1288.88,1665.51L1280.64,1667.09L1251.03,1670.29L1224.46,1671.33L1218.66,1671.05L1215.9,1669.83L1214.68,1670.14L1214.69,1671.06L1213.15,1669.23L1211.62,1669.23L1210.41,1671.39L1196.66,1669.29L1145.94,1665.49L1116.32,1666.21L1103.49,1667.79L1087.92,1670.91L1082.13,1672.77L1079.08,1675.85L1072.98,1678.63L1061.99,1679.58L1061.38,1680.51L1058.63,1681.13L1056.19,1683.29L1047.96,1686.38L1045.22,1690.38L1038.5,1692.55L1026.9,1694.73L1022.94,1699.03L1020.5,1699.96L1019.28,1701.5L1018.68,1704.88L1016.24,1706.11L1014.41,1708.27L1014.41,1709.8L1010.44,1711.65L1007.4,1716.42L1004.35,1717.2L1003.13,1718.12L1002.83,1719.66L1000.38,1720.58L999.16,1719.36L992.74,1720.3L987.25,1722.15L986.64,1724.3L985.12,1724.92L982.98,1727.38L979.32,1728.31L972.6,1732.62L954.89,1739.11L943.29,1742.2L942.07,1743.13L942.07,1744.66L907.55,1752.4L906.32,1751.79L903.88,1753.33L893.8,1756.72L890.44,1759.19L882.8,1762.27L880.67,1766.88L877.01,1769.95L871.51,1771.8L863.87,1776.42L863.26,1777.96L864.49,1778.88L864.49,1779.8L861.43,1782.26L860.83,1784.1L858.69,1785.03L856.55,1789.94L854.11,1792.1L845.55,1794.87L824.77,1798.89L818.65,1801.66L817.13,1803.81L817.43,1804.73L814.99,1806.88L800.93,1810.27L783.81,1816.73L782.59,1819.5L783.81,1821.03L777.39,1824.42L774.95,1827.18L774.95,1829.33L773.73,1830.56L767.92,1833.33L766.39,1836.09L764.25,1837.94L764.25,1839.17L759.66,1841.01L758.75,1842.55L738.56,1845.01L680.45,1847.48L672.8,1848.71L667.6,1853.31L665.15,1853.62L663.62,1855.46L654.75,1858.23L654.14,1859.76L651.39,1860.99L650.47,1863.14L648.94,1864.06L641.29,1865.9L640.06,1866.82L639.45,1869.28L637,1869.89L634.25,1872.65L627.52,1875.42L626.6,1876.95L602.73,1878.47L593.86,1881.23L594.16,1883.38L579.17,1887.05L572.74,1887.36L566.93,1888.89L565.09,1890.42L554.99,1891.33L545.81,1895.31L538.77,1895.61L529.9,1897.75L518.57,1898.66L512.76,1900.49L508.77,1902.64L506.32,1909.09L506.93,1911.24L505.7,1912.46L506,1914.31L504.17,1914.61L502.94,1916.15L503.24,1917.37L489.16,1919.81L484.87,1922.26L484.26,1923.49L483.34,1927.17L484.56,1926.56L486.7,1926.87L484.56,1926.87L484.86,1928.41L474.76,1932.38L472.61,1934.84L473.22,1936.07L471.38,1940.67L472.29,1940.98L472.6,1942.52L475.04,1943.44L471.68,1942.82L471.37,1944.05L472.29,1944.97L467.69,1946.5L461.26,1946.49L457.28,1947.71L452.39,1947.4L451.16,1949.24L446.26,1950.76L444.42,1952.91L444.72,1954.45L444.11,1954.75L436.45,1955.35L436.45,1955.97L434,1956.27L430.32,1958.41L427.56,1961.17L423.89,1961.16L419.91,1962.38L419.6,1963.31L420.52,1963.61L419.59,1965.46L415.92,1966.06L413.16,1967.9L412.54,1971.28L409.78,1971.89L410.08,1973.42L407.94,1974.34L407.02,1976.18L403.03,1978.63L402.1,1982.32L400.27,1982.31L399.96,1983.23L399.65,1982.62L395.37,1981.99L384.34,1982.89L383.73,1984.12L383.11,1984.12L383.12,1983.19L380.05,1984.11L377.29,1987.48L374.54,1985.94L369.64,1985.31L367.8,1985.92L366.26,1988.07L365.35,1984.99L363.21,1983.76L361.07,1983.75L360.15,1982.83L360.77,1980.68L359.55,1980.68L359.86,1979.45L362.01,1977L360.79,1975.15L356.81,1972.68L353.75,1972.06L353.44,1972.67L348.25,1970.2L343.04,1970.49L342.73,1972.03L342.12,1972.03L342.74,1969.57L341.51,1968.64L342.13,1967.11L340.91,1966.49L340.61,1965.26L332.65,1962.78L332.66,1961.25L330.83,1958.17L323.8,1954.15L320.74,1953.84L318.91,1951.99L320.44,1951.07L318.32,1944.31L311.9,1941.22L312.52,1938.45L311.29,1939.06L297.23,1932.57L278.28,1926.36L277.36,1925.44L156.88,1899.49L56.61,1879.37Z" fill-rule="evenodd" fill="#4682b4" fill-opacity="0.471"/>
<polyline points="56.61,1879.37 54.51,1870.76 55.44,1868.61 67.39,1865.91 77.78,1868.72 83.59,1869.06 93.66,1873.1 97.63,1875.58 101.61,1875.29 104.09,1868.23 108.06,1868.56 110.2,1870.11 112.34,1869.5 116.32,1870.13 117.54,1869.52 118.46,1870.14 119.68,1869.53 121.21,1870.46 121.83,1868.62 123.97,1869.25 124.58,1868.33 126.42,1868.03 128.56,1869.57 130.09,1869.27 133.44,1872.97 136.18,1874.22 138.02,1873.61 137.41,1872.68 139.57,1869.93 141.1,1870.24 142.31,1873.01 144.14,1874.86 145.36,1874.26 145.06,1872.72 145.98,1873.34 145.97,1874.56 147.2,1874.57 148.12,1873.04 149.34,1874.27 152.7,1874.59 153.63,1871.53 154.25,1871.53 153.93,1873.68 155.77,1872.76 158.22,1873.39 160.35,1874.01 160.35,1875.24 161.57,1875.55 161.87,1876.48 162.79,1876.17 163.72,1873.72 163.11,1873.41 163.42,1871.87 166.18,1871.58 167.4,1872.51 168.93,1870.67 168.02,1870.66 168.95,1867.6 170.17,1868.22 170.79,1866.07 172.01,1867 171.71,1865.46 172.93,1865.16 172.94,1863.93 172.02,1864.23 171.11,1861.16 170.2,1860.84 170.19,1861.77 169.58,1861.76 168.36,1861.14 167.45,1859.3 168.99,1858.08 166.24,1856.53 167.78,1853.46 165.36,1847.62 165.67,1845.47 162.92,1845.76 162.02,1842.38 161.1,1841.76 161.11,1840.23 162.94,1840.54 162.34,1837.16 161.73,1837.16 162.04,1835.93 163.57,1835.94 160.21,1834.7 161.45,1831.94 162.37,1831.94 162.36,1833.17 163.89,1833.18 162.06,1830.71 164.2,1831.33 163.9,1829.49 162.99,1828.87 160.85,1829.17 160.55,1827.63 158.41,1827.93 157.19,1825.78 156.58,1826.7 156.28,1825.47 159.34,1824.87 158.11,1824.86 157.81,1823.32 155.07,1821.78 154.16,1819.93 154.47,1817.47 155.7,1816.86 158.45,1817.49 159.99,1814.12 160.32,1810.13 158.49,1807.66 158.5,1806.43 156.66,1805.81 157.89,1804.28 158.81,1804.59 158.81,1803.67 157.29,1802.44 157.3,1800.59 159.14,1799.37 159.45,1797.84 160.67,1797.85 162.8,1800.31 163.1,1801.85 167.69,1801.56 168.92,1800.64 170.74,1802.49 172.58,1802.81 173.19,1802.2 173.25,1788.38 165.67,1772.99 160.01,1737.04 162.21,1723.23 161.29,1723.23 160.99,1722 159.16,1722.61 158.55,1721.68 157.93,1722.3 157.65,1718 154.29,1717.37 154.6,1715.83 153.38,1714.6 152.15,1716.44 150.01,1716.43 149.4,1717.35 146.96,1715.49 146.66,1714.26 145.44,1715.18 143.6,1714.86 143.3,1713.94 139.34,1711.78 139.34,1710.85 132.33,1707.45 133.25,1706.53 132.65,1705.61 132.03,1707.14 130.81,1706.83 129.58,1708.66 127.13,1709.57 126.51,1710.8 124.99,1710.48 124.37,1712.02 122.23,1712.31 120.08,1714.15 118.86,1713.22 117.33,1714.13 113.66,1714.42 111.51,1716.87 109.37,1716.86 107.86,1714.09 106.94,1714.39 106.34,1712.55 104.82,1711.31 104.51,1711.93 101.76,1711.61 99.63,1710.37 103.4,1687.36 81.39,1689.4 83.45,1643.98 67.15,1604.61 58.55,1553 42.84,1522.53 37.04,1522.81 36.44,1522.19 37.98,1517.9 38.33,1509.92 36.54,1501.93 34.73,1498.55 18.6,1433.71 19.62,1415.3 16.27,1414.06 11.41,1410.04 11.12,1408.2 12.66,1404.83 12.37,1402.68 13.6,1400.23 14.52,1399.93 16.37,1395.65 19.12,1394.74 19.13,1391.98 20.36,1390.76 19.75,1389.22 20.67,1388.92 21.29,1387.08 20.38,1386.46 20.39,1384.62 22.53,1383.71 24.37,1381.57 25,1376.97 27.14,1375.76 24.73,1370.53 26.27,1368.08 25.36,1366.54 18.99,1361.29 20.21,1360.07 19.92,1357.92 21.17,1351.49 20.28,1347.49 48.54,1303.45 64.5,1276.84 72.13,1273.5 81.58,1271.1 84.12,1249.63 93.92,1237.4 105.87,1220.28 99.23,1210.43 100.84,1191.42 107.98,1161.08 108.31,1154.64 112.93,1141.47 115.83,1105.58 118.9,1100.08 134.87,1063.64 138.24,1059.36 138.57,1052.92 144.98,1046.2 143.78,1041.9 148.06,1036.7 154.77,1030.9 156,1028.76 156.65,1018.33 159.15,1001.47 161.58,1001.48 163.1,1002.41 165.81,1006.71 166.11,1008.86 169.14,1010.71 174.35,999.69 175.26,999.39 178.93,994.19 182.28,991.75 185.65,985.93 186.86,985.32 187.48,983.18 189.92,980.73 205.73,977.73 208.15,979.88 212.71,977.75 214.87,969.48 206.72,956.56 206.43,953.19 205.52,952.26 206.14,948.89 209.8,944.92 211.95,940.32 214.07,939.72 218.93,940.66 221.66,942.51 225,941.29 226.21,942.83 227.43,941.92 229.25,942.23 246.93,923.89 246.42,894.43 219.97,745.54 214.21,745.21 210.86,747.04 206.03,743.34 208.17,739.05 215.46,734.79 216.07,732.95 215.17,729.88 212.76,726.8 208.25,717.58 208.88,711.75 210.1,708.69 209.82,704.08 200.74,699.14 199.54,696.98 197.77,685.01 199.01,677.65 195.99,674.27 192.36,672.41 187.81,672.7 182.67,671.76 178.43,669.9 176.31,670.81 170.55,670.17 166.32,668.32 165.12,665.86 163,665.54 160.89,661.24 160.9,659.7 164.25,656.65 166.69,652.05 165.52,642.54 163.11,638.54 163.12,636.08 166.77,633.34 171.01,633.35 173.74,632.14 177.39,627.86 180.15,621.12 179.85,618.36 181.07,616.83 183.81,614.08 186.54,612.86 187.46,610.71 196.26,606.45 197.78,604.31 198.4,601.25 194.78,596.32 189.65,591.7 187.83,592.92 184.5,592.29 182.39,591.06 180.28,588.29 179.09,583.68 179.11,577.85 181.84,576.02 184.57,575.72 187.92,571.44 190.65,569.91 192.48,567.16 193.71,561.03 192.52,555.19 189.82,550.58 188.92,547.2 188.65,540.75 190.5,531.55 188.1,526.02 185.69,523.25 183.58,522.32 180.87,518.63 176.03,517.38 172.11,512.76 169.09,511.52 167.28,509.67 164.58,504.13 164.01,495.85 166.75,493.09 166.76,490.64 169.49,488.5 169.8,486.97 171.62,485.44 171.93,483.3 169.53,479.6 168.35,471 162.61,469.44 160.5,468.21 159.6,466.06 159.62,462.07 160.85,456.85 159.05,453.47 159.06,450.4 162.4,447.65 163.63,443.67 165.45,441.83 168.2,436.01 168.2,434.48 170.94,432.03 176.69,429.6 178.22,425 172.2,417.92 167.4,408.69 167.73,403.78 166.83,400.09 169.59,392.74 171.11,390.29 172.62,389.37 173.25,385.08 171.16,378.62 167.24,374.92 163.64,370 162.75,366 161.84,365.08 161.56,360.17 158.89,348.49 159.82,343.27 158.62,340.51 158.04,334.36 160.18,329.77 156.92,314.4 157.53,312.26 159.36,310.12 163.6,307.68 168.15,303.4 169.68,297.57 167.89,292.65 164.27,290.18 157.33,288.31 146.79,282.43 143.47,279.65 141.38,275.04 141.39,273.19 143.83,267.06 143.86,260.62 146.91,253.87 150.55,251.13 157.19,250.54 162.04,248.1 163.25,247.19 164.77,243.2 163.27,242.28 149.69,239.76 136.73,233.56 134.63,229.87 134.96,224.96 134.36,222.5 132.27,219.11 130.16,217.87 128.06,215.1 126.27,210.18 127.18,207.73 126.59,205.27 122.99,199.72 119.42,190.19 116.71,188.02 116.12,185.56 114.61,184.94 114.31,183.41 114.34,177.57 115.26,175.42 117.38,172.67 121.62,169.31 123.45,166.56 123.15,165.02 124.97,162.57 124.98,161.03 123.18,157.96 117.46,156.39 114.75,154.85 115.37,151.16 120.82,147.19 125.06,142.61 128.71,137.09 129.33,133.1 132.68,126.05 133.32,117.76 137.88,110.11 137.9,106.11 137,105.19 137.93,100.28 140.34,99.06 145.17,99.08 146.08,98.47 151.85,89.89 151.57,84.05 150.37,81.9 145.87,78.19 144.97,76.35 147.13,63.76 169.75,63.86 169.75,65.08 175.78,65.42 190.56,64.86 207.13,67.08 208.04,66.16 247.54,69.38 299.1,69.55 316.3,68.38 331.07,68.42 359.11,70.95 474.01,71.82 474.01,75.51 491.8,75.23 491.81,71.54 514.43,71.58 514.44,60.52 572.04,60.59 581.08,63.36 584.7,67.97 630.23,70.15 665.52,71.39 665.52,65.86 695.67,64.64 700.2,64.64 700.2,67.71 707.13,67.71 713.77,66.48 725.23,66.48 725.23,73.23 733.67,73.23 733.98,77.84 732.77,77.84 732.47,78.76 739.41,77.22 743.93,67.7 752.07,67.69 752.37,65.24 758.1,65.23 758.1,67.69 795.49,67.97 794.89,71.05 797.31,72.58 798.81,70.12 804.54,70.73 805.15,72.57 804.25,74.42 801.53,75.03 799.12,79.03 799.42,79.95 802.74,80.25 804.85,78.1 807.27,81.48 806.06,82.4 813,85.77 815.12,92.53 814.82,93.76 816.63,94.07 819.64,91.6 822.96,90.68 822.66,88.22 823.26,88.22 824.76,84.53 825.06,79 826.27,78.39 826.87,75.62 828.37,74.09 830.48,69.47 834.7,69.78 835.91,72.23 835.31,72.54 835.61,73.46 837.72,74.38 838.32,70.69 843.14,67 844.35,69.46 845.86,69.46 847.67,70.68 847.97,69.15 850.68,66.07 850.37,62.08 853.69,60.23 855.19,59.92 855.8,60.53 856.7,59.92 857,57.46 858.81,55.92 862.43,58.38 865.75,58.06 866.05,57.45 869.67,57.75 870.87,55.6 869.36,53.45 870.56,52.22 869.05,47 871.75,40.54 871.44,35.63 872.64,31.94 879.57,29.16 879.57,28.24 880.48,27.93 883.19,28.54 885.3,27.93 886.81,28.23 887.71,29.46 889.52,29.15 888.63,34.68 890.14,36.52 889.54,38.67 890.75,41.13 893.16,42.66 892.86,45.12 894.37,45.12 894.67,41.12 898.89,40.5 900.69,36.2 900.08,34.66 901.29,33.43 905.81,31.27 908.22,31.57 910.63,30.03 917.56,29.41 919.97,28.17 919.66,24.49 914.53,22.04 914.83,20.5 916.03,19.58 916.03,15.89 918.74,13.12 953.12,21.66 955.83,23.19 960.66,23.79 961.57,26.25 958.56,29.63 958.57,33.93 959.17,34.55 960.38,33.93 961.59,34.54 963.7,34.23 965.51,35.15 965.81,36.38 966.72,36.07 969.73,37.29 970.64,37.9 970.64,39.13 973.06,40.35 975.77,40.04 977.28,40.96 982.4,40.03 985.12,40.33 987.82,36.02 992.03,32.94 995.95,31.7 1000.17,33.53 1000.18,35.68 1002.3,38.13 1003.82,42.74 1008.95,47.33 1010.51,65.46 1012.02,69.14 1011.13,71.91 1011.73,73.13 1007.51,74.37 1005.11,77.14 1000.28,77.77 999.39,83.61 998.19,83.92 999.42,93.13 997.61,95.29 998.22,95.59 996.12,101.44 994.01,103.59 994.33,107.89 993.13,111.58 995.57,121.71 993.16,123.56 992.56,126.02 988.34,129.1 988.35,130.63 984.43,132.79 982.63,136.48 981.72,136.18 979.91,137.72 980.82,138.64 979.62,141.1 980.54,146.01 979.64,149.08 980.25,152.46 979.35,153.38 975.43,154.32 974.82,155.24 974.83,156.47 978.46,161.99 980.89,168.43 980.9,171.5 983.63,179.17 997.22,182.21 998.74,184.66 1014.45,189.23 1015.06,191.38 1019.29,195.05 1020.52,201.5 1037.44,207.6 1040.77,210.96 1045.3,212.18 1047.75,224.15 1048.96,225.07 1048.66,226.91 1050.18,227.83 1049.58,229.98 1048.67,230.29 1049.28,231.52 1051.1,232.43 1052.01,234.58 1052.92,235.19 1053.52,234.57 1054.43,235.49 1052.92,237.95 1053.54,241.94 1057.47,243.77 1058.68,245.61 1059.89,245.92 1059.29,247.76 1060.81,249.91 1062.92,248.67 1064.73,248.67 1064.74,249.59 1065.34,248.66 1064.12,245.29 1065.93,245.59 1065.63,244.36 1068.04,242.51 1068.95,243.13 1068.65,244.05 1070.76,244.04 1073.79,247.1 1073.79,245.87 1075.9,245.87 1077.71,246.78 1078.02,248.01 1080.13,247.7 1080.44,248.31 1083.45,247.07 1082.54,245.85 1083.75,245.84 1084.65,244.31 1085.86,244.92 1088.58,244.29 1090.1,247.97 1091,247.36 1092.52,247.97 1093.14,252.88 1091.33,255.65 1089.82,256.26 1089.83,257.8 1093.16,259.02 1093.46,259.94 1094.97,259.32 1095.28,260.85 1096.18,260.85 1097.1,265.45 1098.01,266.06 1097.72,269.75 1098.33,270.67 1099.24,270.97 1100.74,268.82 1101.95,270.04 1103.16,270.04 1104.07,272.49 1104.08,274.03 1102.27,274.03 1099.85,275.58 1099.56,277.73 1097.75,278.04 1098.66,278.96 1099.56,278.34 1100.47,279.26 1101.98,278.03 1103.79,278.94 1107.12,278.93 1108.92,277.08 1110.44,278 1113.46,277.99 1119.49,276.43 1122.21,277.34 1122.52,279.49 1120.11,280.73 1119.51,280.12 1118.91,281.35 1118,281.35 1118,282.58 1116.8,282.89 1116.5,285.04 1115,286.58 1114.69,285.66 1114.09,285.97 1115,287.5 1117.72,288.41 1117.73,289.64 1116.22,289.95 1115.62,291.49 1112.3,292.11 1111.7,293.34 1111.44,306.24 1109.63,308.4 1110.25,312.69 1108.44,314.54 1109.66,317.3 1108.47,321.91 1111.81,328.34 1112.43,331.11 1110.62,334.18 1111.23,335.41 1108.83,339.41 1110.06,345.54 1112.78,347.07 1122.16,348.57 1127.31,352.85 1128.83,355.61 1127.34,360.83 1127.95,362.98 1126.45,366.98 1123.73,367.29 1121.61,365.76 1115.57,365.48 1112.84,363.03 1111.33,364.88 1112.86,368.56 1111.96,373.16 1110.76,374.4 1111.07,376.85 1114.12,384.51 1119.57,388.49 1119.59,392.78 1111.43,394.96 1109.93,397.42 1108.74,402.95 1109.36,407.86 1108.76,410.01 1110.28,413.07 1109.68,413.69 1110.61,420.44 1108.22,427.51 1106.1,428.74 1104.9,430.59 1105.51,433.66 1102.5,437.04 1103.11,439.5 1104.33,440.72 1103.73,442.87 1101.01,443.49 1102.53,446.86 1099.24,457 1100.76,458.53 1105.29,458.83 1107.11,460.05 1109.26,467.41 1108.97,473.24 1105.97,478.77 1100.53,480.63 1099.01,480.33 1095.67,477.58 1095.06,475.43 1090.51,470.54 1086.88,469.93 1082.66,476.7 1082.37,478.85 1086.32,486.51 1086.64,490.19 1092.41,497.54 1094.53,497.53 1105.4,491.67 1109.33,488.58 1110.54,488.58 1115.39,490.71 1115.09,491.94 1116.61,495.62 1119.04,498.37 1117.84,500.83 1115.43,502.68 1109.08,504.85 1107.57,504.85 1105.74,503.02 1103.93,502.72 1098.79,503.96 1090.31,503.38 1083.66,506.47 1079.72,504.33 1075.48,504.04 1075.5,508.03 1074.3,511.71 1074.61,515.7 1076.44,519.38 1079.77,520.9 1084.61,520.58 1088.54,519.03 1092.78,519.94 1096.43,523 1097.04,526.07 1089.19,531.31 1086.46,530.7 1085.26,533.47 1079.81,533.79 1074.66,531.35 1071.94,531.67 1072.56,538.72 1076.81,543.01 1078.03,544.85 1077.73,546.07 1081.67,547.6 1081.98,548.82 1083.49,548.2 1085.61,549.42 1095.29,545.71 1097.4,543.56 1098.92,543.86 1100.13,543.55 1100.43,542.63 1101.34,543.24 1104.96,541.69 1107.67,535.24 1108.27,535.54 1109.18,534.62 1107.05,530.94 1111.57,527.24 1114.6,528.16 1114.9,527.23 1116.73,529.07 1120.05,528.75 1120.66,529.36 1128.53,527.8 1128.52,526.57 1129.13,527.18 1134.28,527.47 1134.58,528.09 1137.31,528.08 1138.82,527.15 1141.24,527.45 1141.55,528.67 1142.75,528.36 1143.06,529.9 1143.67,529.28 1144.58,530.2 1149.12,531.41 1150.94,530.79 1154.58,534.15 1155.2,536.6 1156.1,536.91 1155.51,539.67 1153.7,540.29 1153.7,541.21 1152.79,541.52 1153.4,542.75 1152.8,543.36 1154.31,543.97 1154.32,545.51 1157.35,546.11 1159.77,544.87 1161.28,545.79 1161.9,547.63 1164.02,547.62 1164.32,548.85 1165.53,548.53 1166.45,549.76 1170.69,550.36 1171.61,554.03 1174.64,555.56 1170.47,572.14 1168.06,575.53 1169.58,578.59 1169.59,580.74 1171.42,583.8 1170.52,586.87 1167.8,587.19 1165.98,586.28 1164.78,589.96 1162.37,593.66 1160.56,594.58 1156.34,601.35 1160.92,610.23 1164.88,616.05 1161.26,620.97 1158.27,629.88 1156.15,630.81 1155.55,632.96 1153.43,632.35 1147.69,635.75 1149.21,638.51 1148.91,639.73 1150.13,642.18 1149.54,644.33 1150.76,646.78 1149.86,649.24 1146.53,650.79 1143.22,656.94 1143.55,663.69 1141.73,663.39 1141.43,666.46 1141.75,669.52 1143.57,669.82 1144.19,673.2 1145.7,673.8 1145.42,679.02 1153.05,694.34 1155.78,694.63 1157.61,698 1159.74,699.22 1158.54,701.99 1159.15,702.9 1157.64,705.98 1158.86,706.59 1158.57,710.27 1159.48,710.27 1161.62,715.78 1163.45,717.62 1161.03,719.47 1160.13,721.62 1161.34,723.15 1161.35,724.68 1160.44,725.3 1158.32,724.38 1157.41,725 1157.42,726.54 1153.79,729.62 1155.32,732.99 1154.41,732.99 1153.51,735.45 1155.03,737.28 1152.32,741.59 1146.25,741.92 1145.96,744.07 1145.05,743.76 1143.83,741.31 1142.61,741.01 1142.91,738.55 1139.27,738.26 1137.76,741.03 1134.43,741.96 1133.83,742.88 1134.14,744.72 1135.65,743.18 1137.17,744.71 1136.26,746.56 1135.35,746.25 1133.24,748.1 1132.02,747.8 1132.01,745.04 1130.8,744.12 1124.73,743.53 1124.13,744.76 1122.3,742.62 1122.01,744.46 1118.37,744.16 1119.29,748.76 1118.08,750.3 1121.13,753.36 1124.77,753.65 1125.07,754.88 1123.26,755.81 1116.89,755.83 1120.23,758.27 1119.63,760.11 1146.48,802.97 1146.78,803.58 1145.87,804.2 1149.21,804.8 1150.42,803.26 1150.73,803.88 1152.85,803.87 1154.07,805.09 1153.47,806.63 1155.9,809.38 1155.3,810.61 1156.82,812.14 1157.73,811.21 1158.64,811.82 1158.65,813.97 1162.59,813.96 1164.41,812.11 1165.02,813.95 1165.93,813.94 1166.24,815.78 1169.58,817.3 1171.71,817.3 1170.5,817.91 1171.41,818.83 1174.45,819.43 1175.06,821.89 1176.89,823.11 1176.28,823.72 1176.6,825.87 1177.81,824.94 1178.72,825.86 1181.45,825.85 1182.98,828.6 1186.01,827.98 1189.05,829.5 1191.17,829.19 1194.82,831.01 1193.61,832.86 1194.53,834.39 1197.87,834.07 1199.39,835.29 1200,836.82 1199.41,840.81 1200.63,842.03 1201.25,845.71 1202.77,846.93 1202.78,847.85 1201.57,848.16 1202.19,851.23 1201.58,852.46 1202.19,853.07 1201.28,853.38 1201.6,857.37 1207.68,858.57 1209.81,861.02 1211.94,860.7 1212.24,861.93 1214.98,862.53 1214.39,865.91 1218.03,865.58 1215.91,867.43 1219.87,870.48 1218.66,872.64 1219.88,874.17 1219.3,878.77 1222.03,879.37 1221.73,881.21 1225.07,881.51 1225.38,882.43 1224.48,883.96 1225.39,884.57 1225.71,887.33 1225.11,889.79 1225.72,890.09 1225.75,896.84 1225.14,897.46 1225.75,898.68 1223.02,899 1219.68,898.1 1212.71,900.58 1211.5,901.81 1210.91,905.5 1208.18,907.35 1197.55,907.08 1197.57,911.38 1193.34,915.08 1194.25,915.38 1193.64,916.3 1193.96,918.14 1191.84,919.38 1191.23,920.91 1189.11,920.62 1188.81,921.23 1185.77,921.55 1183.35,923.71 1182.45,926.16 1184.28,928.31 1185.5,928.61 1185.5,929.53 1188.24,930.44 1190.36,930.12 1189.76,933.19 1188.25,933.81 1189.17,937.18 1188.58,941.79 1189.19,942.4 1187.99,944.24 1183.43,944.57 1184.08,955.3 1181.96,955.31 1181.66,958.38 1184.13,968.19 1185.35,968.18 1185.96,969.41 1185.97,971.25 1185.06,972.17 1185.37,974.01 1184.46,974.63 1186.92,981.06 1185.4,982.6 1186.02,984.75 1188.16,986.89 1188.77,989.34 1186.65,990.27 1185.43,989.96 1185.75,993.03 1187.59,998.85 1188.51,998.85 1187.9,1000.08 1190.04,1002.22 1189.75,1004.98 1192.2,1011.72 1193.76,1022.14 1192.86,1022.76 1193.17,1025.21 1194.7,1027.66 1193.82,1035.33 1192.6,1035.65 1192.3,1036.87 1192.91,1037.18 1192.01,1040.56 1191.74,1047.31 1193.26,1048.22 1192.05,1048.84 1192.05,1049.76 1195.7,1050.36 1194.8,1051.9 1196.02,1054.65 1196.04,1058.33 1192.39,1059.58 1192.7,1061.11 1190.28,1062.04 1190.59,1064.18 1191.81,1065.1 1191.51,1066.94 1192.44,1070.62 1194.59,1076.13 1192.77,1077.98 1189.42,1075.54 1185.17,1076.78 1183.65,1078.02 1181.56,1087.84 1182.53,1102.87 1175.85,1105.04 1173.43,1107.2 1169.78,1107.21 1163.71,1111.53 1161.89,1111.85 1163.72,1113.07 1164.03,1115.52 1162.89,1135.47 1162.28,1135.77 1164.13,1140.98 1163.52,1142.21 1164.74,1143.43 1164.45,1145.58 1165.67,1146.5 1162.94,1148.35 1162.64,1149.58 1163.55,1150.5 1162.95,1152.65 1163.57,1153.87 1165.08,1152.94 1166.3,1153.25 1166.92,1154.47 1166.32,1157.85 1167.23,1158.15 1166.93,1159.07 1168.16,1161.83 1167.56,1162.75 1168.47,1164.28 1170,1164.58 1170.61,1166.73 1171.83,1167.03 1172.45,1168.87 1177.64,1173.45 1186.75,1170.96 1187.66,1169.42 1189.48,1169.11 1192.52,1166.95 1194.04,1168.17 1194.65,1167.86 1195.88,1170.93 1197.4,1169.69 1200.44,1170.6 1200.15,1173.67 1201.99,1177.34 1200.17,1177.96 1199.57,1179.81 1201.71,1183.79 1204.81,1196.35 1203.9,1198.81 1202.39,1200.04 1203.01,1204.03 1202.41,1204.34 1201.49,1203.42 1200.89,1204.65 1200.03,1218.77 1199.12,1220.61 1197.64,1230.13 1194.62,1237.2 1192.5,1237.82 1191.59,1240.28 1192.81,1241.2 1192.83,1243.96 1191.31,1246.11 1188.88,1246.43 1189.49,1247.96 1188.59,1251.34 1186.47,1252.57 1184.97,1258.71 1185.27,1259.33 1185.88,1258.71 1187.4,1259.01 1188.02,1260.85 1191.07,1261.14 1191.68,1263.29 1190.77,1264.21 1191.69,1264.52 1191.69,1265.44 1190.79,1267.9 1186.56,1275.28 1189.02,1282.63 1187.8,1283.25 1188.73,1286.93 1185.4,1290.62 1186.62,1291.84 1184.5,1294 1180.85,1295.86 1178.41,1294.94 1171.72,1296.5 1169.29,1298.05 1167.47,1300.82 1163.52,1302.67 1164.74,1304.51 1163.83,1305.74 1165.06,1307.58 1163.85,1309.73 1164.16,1311.26 1172.39,1314.3 1172.4,1315.83 1173.62,1315.21 1175.45,1315.82 1176.97,1317.35 1177.28,1318.88 1176.37,1319.5 1176.39,1323.79 1174.28,1329.02 1167.89,1332.11 1170.34,1335.17 1170.35,1336.4 1166.69,1337.64 1166.72,1345 1167.33,1345.31 1167.03,1346.23 1169.17,1347.45 1171.3,1346.83 1170.69,1345.91 1172.21,1344.98 1177.7,1348.34 1177.41,1350.79 1178.63,1351.09 1178.63,1352.32 1181.68,1352.92 1180.47,1353.85 1181.08,1354.46 1180.17,1355.38 1178.64,1355.08 1178.65,1356.92 1177.44,1358.46 1177.75,1360.61 1180.81,1363.05 1179.89,1363.36 1182.04,1367.04 1186.31,1367.63 1189.98,1370.69 1193.93,1369.14 1195.47,1371.28 1197.29,1370.66 1203.09,1374.01 1200.68,1378.93 1202.21,1381.07 1202.23,1385.06 1201.62,1385.37 1201.02,1389.36 1202.25,1390.28 1203.17,1393.65 1201.05,1396.42 1198.64,1403.79 1200.17,1404.09 1198.96,1405.94 1201.09,1406.55 1202.62,1408.38 1205.39,1413.89 1208.44,1414.49 1207.83,1413.58 1209.35,1413.88 1209.96,1412.34 1215.15,1416.31 1215.46,1417.23 1213.63,1416.93 1213.64,1417.54 1215.78,1419.07 1220.35,1419.97 1227.05,1418.1 1231.03,1421.15 1233.19,1427.59 1224.99,1434.37 1222.26,1438.07 1224.11,1442.35 1224.43,1446.04 1226.58,1449.71 1232.07,1452.14 1233.96,1464.1 1244.03,1467.43 1245.9,1474.79 1260.25,1478.41 1266.67,1482.37 1275.25,1492.15 1277.72,1497.97 1311.27,1497.2 1312.81,1500.26 1311.92,1504.56 1312.86,1509.77 1315.31,1512.21 1315.63,1515.9 1318.1,1520.18 1317.8,1521.41 1319.63,1522.94 1322.09,1526.91 1325.46,1528.43 1326.98,1527.81 1330.67,1532.39 1330.37,1533.62 1331.29,1535.77 1335.9,1542.5 1335.93,1547.71 1371.33,1547.84 1371.73,1565.33 1355.59,1572.17 1344.33,1578.98 1334.91,1586.09 1315.5,1611.66 1309.14,1623.05 1309.81,1634.41 1309.21,1638.09 1306.51,1646.7 1304.39,1650.7 1294.97,1661.49 1288.88,1665.51 1280.64,1667.09 1251.03,1670.29 1224.46,1671.33 1218.66,1671.05 1215.9,1669.83 1214.68,1670.14 1214.69,1671.06 1213.15,1669.23 1211.62,1669.23 1210.41,1671.39 1196.66,1669.29 1145.94,1665.49 1116.32,1666.21 1103.49,1667.79 1087.92,1670.91 1082.13,1672.77 1079.08,1675.85 1072.98,1678.63 1061.99,1679.58 1061.38,1680.51 1058.63,1681.13 1056.19,1683.29 1047.96,1686.38 1045.22,1690.38 1038.5,1692.55 1026.9,1694.73 1022.94,1699.03 1020.5,1699.96 1019.28,1701.5 1018.68,1704.88 1016.24,1706.11 1014.41,1708.27 1014.41,1709.8 1010.44,1711.65 1007.4,1716.42 1004.35,1717.2 1003.13,1718.12 1002.83,1719.66 1000.38,1720.58 999.16,1719.36 992.74,1720.3 987.25,1722.15 986.64,1724.3 985.12,1724.92 982.98,1727.38 979.32,1728.31 972.6,1732.62 954.89,1739.11 943.29,1742.2 942.07,1743.13 942.07,1744.66 907.55,1752.4 906.32,1751.79 903.88,1753.33 893.8,1756.72 890.44,1759.19 882.8,1762.27 880.67,1766.88 877.01,1769.95 871.51,1771.8 863.87,1776.42 863.26,1777.96 864.49,1778.88 864.49,1779.8 861.43,1782.26 860.83,1784.1 858.69,1785.03 856.55,1789.94 854.11,1792.1 845.55,1794.87 824.77,1798.89 818.65,1801.66 817.13,1803.81 817.43,1804.73 814.99,1806.88 800.93,1810.27 783.81,1816.73 782.59,1819.5 783.81,1821.03 777.39,1824.42 774.95,1827.18 774.95,1829.33 773.73,1830.56 767.92,1833.33 766.39,1836.09 764.25,1837.94 764.25,1839.17 759.66,1841.01 758.75,1842.55 738.56,1845.01 680.45,1847.48 672.8,1848.71 667.6,1853.31 665.15,1853.62 663.62,1855.46 654.75,1858.23 654.14,1859.76 651.39,1860.99 650.47,1863.14 648.94,1864.06 641.29,1865.9 640.06,1866.82 639.45,1869.28 637,1869.89 634.25,1872.65 627.52,1875.42 626.6,1876.95 602.73,1878.47 593.86,1881.23 594.16,1883.38 579.17,1887.05 572.74,1887.36 566.93,1888.89 565.09,1890.42 554.99,1891.33 545.81,1895.31 538.77,1895.61 529.9,1897.75 518.57,1898.66 512.76,1900.49 508.77,1902.64 506.32,1909.09 506.93,1911.24 505.7,1912.46 506,1914.31 504.17,1914.61 502.94,1916.15 503.24,1917.37 489.16,1919.81 484.87,1922.26 484.26,1923.49 483.34,1927.17 484.56,1926.56 486.7,1926.87 484.56,1926.87 484.86,1928.41 474.76,1932.38 472.61,1934.84 473.22,1936.07 471.38,1940.67 472.29,1940.98 472.6,1942.52 475.04,1943.44 471.68,1942.82 471.37,1944.05 472.29,1944.97 467.69,1946.5 461.26,1946.49 457.28,1947.71 452.39,1947.4 451.16,1949.24 446.26,1950.76 444.42,1952.91 444.72,1954.45 444.11,1954.75 436.45,1955.35 436.45,1955.97 434,1956.27 430.32,1958.41 427.56,1961.17 423.89,1961.16 419.91,1962.38 419.6,1963.31 420.52,1963.61 419.59,1965.46 415.92,1966.06 413.16,1967.9 412.54,1971.28 409.78,1971.89 410.08,1973.42 407.94,1974.34 407.02,1976.18 403.03,1978.63 402.1,1982.32 400.27,1982.31 399.96,1983.23 399.65,1982.62 395.37,1981.99 384.34,1982.89 383.73,1984.12 383.11,1984.12 383.12,1983.19 380.05,1984.11 377.29,1987.48 374.54,1985.94 369.64,1985.31 367.8,1985.92 366.26,1988.07 365.35,1984.99 363.21,1983.76 361.07,1983.75 360.15,1982.83 360.77,1980.68 359.55,1980.68 359.86,1979.45 362.01,1977 360.79,1975.15 356.81,1972.68 353.75,1972.06 353.44,1972.67 348.25,1970.2 343.04,1970.49 342.73,1972.03 342.12,1972.03 342.74,1969.57 341.51,1968.64 342.13,1967.11 340.91,1966.49 340.61,1965.26 332.65,1962.78 332.66,1961.25 330.83,1958.17 323.8,1954.15 320.74,1953.84 318.91,1951.99 320.44,1951.07 318.32,1944.31 311.9,1941.22 312.52,1938.45 311.29,1939.06 297.23,1932.57 278.28,1926.36 277.36,1925.44 156.88,1899.49 56.61,1879.37" fill="none" stroke="#1e1e1e" stroke-width="1.5" stroke-linecap="round" stroke-linejoin="round"/>
<path d="M1007.55,1716.46L1009.23,1715.65L1007.55,1716.46Z" fill-rule="evenodd" fill="#4682b4" fill-opacity="0.471"/>
<polyline points="1007.55,1716.46 1009.23,1715.65 1007.55,1716.46" fill="none" stroke="#1e1e1e" stroke-width="1.5" stroke-linecap="round" stroke-linejoin="round"/>
<text x="610.63" y="1005.73" font-family="sans-serif" font-size="14" stroke="#ffffff" stroke-opacity="0.784" stroke-width="2.33" stroke-linejoin="round" paint-order="stroke" fill="#141414">Ghana</text>
</svg>
