<?xml version="1.0" encoding="UTF-8" standalone="no"?>
<svg xmlns="http://www.w3.org/2000/svg" width="1904" height="2000" viewBox="0 0 1904 2000">
<rect width="1904" height="2000" fill="#ffffff"/>
<path d="M1737.71,952.95L1738.64,952.94L1738.66,954.4L1737.71,952.95Z" fill-rule="evenodd" fill="#4682b4" fill-opacity="0.471"/>
<polyline points="1737.71,952.95 1738.64,952.94 1738.66,954.4 1737.71,952.95" fill="none" stroke="#1e1e1e" stroke-width="1.74" stroke-linecap="round" stroke-linejoin="round"/>
<path d="M1886.86,1024.94L1876.13,1026.01L1875.67,1026.99L1878.04,1030.85L1879.92,1031.8L1879.03,1037.15L1876.71,1038.62L1877.2,1041.05L1876.28,1042.03L1874.41,1042.04L1871.58,1039.16L1870.65,1039.65L1872.54,1042.55L1872.09,1044.01L1869.29,1045L1868.79,1041.13L1867.85,1040.16L1864.61,1043.59L1862.24,1040.7L1859.9,1040.24L1859.93,1042.66L1862.29,1046.04L1862.31,1047.5L1860.91,1048.48L1855.77,1048.53L1850.65,1050.03L1848.28,1046.17L1846.87,1046.18L1844.11,1050.57L1843.18,1051.07L1841.77,1050.11L1840.86,1053.03L1841.35,1055.94L1842.3,1056.9L1842.32,1059.33L1839.1,1064.7L1839.57,1065.18L1832.65,1075.92L1735.63,1160.71L1732.35,1160.74L1731.42,1161.71L1731.45,1165.11L1727.75,1170.48L1725.42,1170.98L1721.23,1173.93L1720.75,1172.48L1717.48,1172.99L1711.42,1176.92L1677.52,1211.63L1599.2,1260.23L1539.57,1312.54L1455.4,1346.02L1455.89,1350.87L1454.5,1353.79L1453.1,1354.77L1450.31,1359.15L1446.56,1359.65L1445.16,1361.6L1446.1,1362.08L1445.64,1363.54L1447.99,1364.99L1443.8,1370.83L1443.81,1373.26L1441.49,1376.67L1441.49,1378.12L1443.37,1379.09L1443.86,1382L1445.27,1382.96L1447.14,1382.95L1447.15,1384.41L1451.38,1385.84L1451.85,1386.81L1454.2,1387.77L1453.28,1390.69L1452.35,1392.15L1451.41,1392.15L1450.95,1393.61L1451.89,1395.06L1450.51,1399.92L1450.53,1403.32L1449.6,1404.3L1450.07,1405.75L1445.86,1407.71L1446.35,1411.11L1447.29,1411.1L1446.83,1414.5L1444.03,1416.46L1444.04,1419.37L1442.64,1419.86L1442.65,1422.29L1441.72,1424.24L1437.04,1426.69L1432.82,1426.71L1429.09,1431.1L1422.07,1434.53L1421.14,1435.99L1423.13,1459.28L1437.29,1477.66L1449.08,1488.28L1451.07,1509.63L1467.07,1518.28L1459.18,1536.29L1456.37,1537.76L1455.43,1537.28L1454.97,1539.22L1456.88,1544.55L1455.95,1546.01L1456.43,1548.44L1457.85,1550.37L1458.34,1554.25L1459.28,1555.71L1459.3,1559.59L1457.91,1563.48L1456.04,1563.98L1457.46,1567.37L1459.34,1567.36L1457.48,1570.28L1458.9,1571.73L1457.03,1574.16L1456.59,1580.96L1455.18,1580.97L1455.19,1582.91L1453.79,1583.41L1453.8,1585.83L1452.86,1586.81L1450.05,1586.82L1449.57,1585.85L1445.34,1586.36L1440.63,1583.96L1438.29,1584.45L1434.52,1583.02L1433.1,1581.57L1417.13,1580.67L1416.2,1582.62L1413.39,1585.06L1412.45,1585.06L1411.99,1587.49L1409.65,1588.96L1411.07,1591.38L1410.6,1592.35L1408.72,1592.36L1407.79,1593.34L1408.26,1594.31L1406.86,1595.28L1405.46,1598.2L1403.59,1599.67L1402.18,1599.19L1398.9,1602.12L1397.97,1604.55L1396.56,1605.04L1394.7,1609.42L1395.18,1611.36L1393.78,1613.79L1392.37,1614.28L1390.51,1616.72L1385.34,1618.68L1387.25,1624.99L1384.43,1625.48L1384.44,1626.46L1379.74,1627.93L1371.31,1633.31L1362.39,1636.74L1361.45,1638.2L1363.34,1639.17L1362.87,1640.63L1363.83,1643.54L1363.37,1646.94L1362.43,1647.43L1364.8,1650.33L1365.29,1656.15L1364.83,1657.61L1362.02,1660.54L1361.54,1659.57L1354.48,1657.17L1350.7,1652.33L1349.77,1655.73L1348.37,1657.19L1346.92,1647.97L1344.56,1646.04L1343.63,1647.5L1340.34,1648L1337.55,1655.29L1335.66,1655.3L1335.2,1657.24L1331.92,1660.66L1329.11,1661.64L1327.7,1663.58L1325.82,1663.59L1324.89,1665.05L1323.01,1665.06L1322.53,1663.6L1321.12,1663.12L1321.11,1662.15L1319.23,1660.7L1311.23,1659.28L1307.93,1656.38L1306.52,1658.32L1305.58,1657.84L1305.12,1659.3L1303.24,1660.28L1301.36,1661.25L1298.54,1661.26L1295.74,1666.13L1293.39,1668.08L1291.98,1666.14L1289.63,1666.63L1288.7,1671.98L1286.82,1671.5L1286.83,1673.44L1284.48,1675.39L1285.43,1677.33L1284.49,1678.3L1282.14,1678.8L1280.27,1680.75L1277.44,1678.33L1276.96,1676.87L1278.84,1674.92L1278.36,1672.01L1277.41,1669.1L1275.05,1666.68L1274.1,1663.29L1259.52,1662.85L1257.66,1668.68L1256.29,1681.79L1256.76,1684.71L1259.6,1688.58L1263.37,1691.48L1264.79,1694.39L1262.91,1694.88L1261.5,1693.92L1257.74,1695.38L1256.33,1696.84L1255.86,1695.87L1253.04,1697.34L1251.18,1703.66L1251.67,1711.42L1250.74,1712.88L1252.62,1714.33L1256.38,1711.41L1258.26,1712.38L1260.61,1712.37L1262.96,1711.39L1264.38,1712.84L1265.32,1712.35L1266.26,1713.32L1265.8,1714.78L1267.68,1714.77L1268.62,1716.23L1267.68,1716.72L1267.69,1717.69L1270.04,1718.16L1270.99,1720.1L1273.35,1721.55L1273.35,1724.47L1271.95,1726.9L1272.43,1729.81L1270.55,1731.27L1272.44,1732.24L1272.92,1735.15L1284.26,1748.22L1283.32,1749.2L1283.79,1750.65L1284.73,1750.65L1285.21,1751.62L1283.81,1754.05L1283.81,1756.48L1282.88,1758.42L1281.46,1757.94L1280.06,1759.4L1279.11,1758.43L1276.76,1759.41L1273.93,1757.48L1271.58,1757L1268.76,1759.92L1267.36,1763.33L1263.13,1763.34L1256.08,1766.76L1250.43,1767.26L1233.48,1766.34L1216.09,1775.62L1214.22,1780.48L1194.02,1798.49L1188.39,1807.73L1186.52,1813.08L1186.99,1814.53L1185.59,1819.39L1183.72,1822.31L1183.25,1825.71L1181.84,1825.72L1182.79,1827.66L1179.03,1834.46L1179.04,1835.92L1180.46,1837.86L1179.52,1841.26L1180.47,1842.71L1180.47,1845.63L1182.83,1846.11L1184.25,1849.02L1183.31,1849.99L1181.9,1849.51L1181.42,1848.05L1175.77,1848.55L1174.83,1850.01L1174.36,1849.04L1173.42,1850.01L1172.94,1849.04L1170.59,1848.56L1165.41,1849.55L1163.99,1849.06L1163.52,1848.09L1160.22,1847.13L1158.8,1842.76L1157.38,1841.79L1155.5,1841.8L1154.08,1839.37L1153.14,1840.35L1150.78,1837.92L1148.9,1837.93L1145.59,1835.02L1142.3,1835.03L1141.36,1836L1138.53,1835.52L1136.17,1836.49L1136.18,1837.95L1129.11,1837.96L1127.23,1837L1126.76,1839.91L1124.88,1842.83L1124.89,1845.25L1120.65,1846.23L1119.7,1845.26L1117.35,1844.78L1116.88,1845.27L1110.75,1844.31L1106.99,1846.74L1106.99,1849.17L1104.64,1849.66L1104.17,1850.63L1104.64,1854.51L1102.77,1859.37L1100.88,1860.35L1097.11,1859.87L1097.12,1862.29L1093.82,1862.3L1092.88,1863.27L1093.35,1864.73L1091.47,1869.1L1089.12,1868.62L1088.65,1871.53L1087.71,1872.51L1086.29,1872.02L1085.82,1873.48L1083.94,1873L1081.11,1875.91L1078.29,1876.4L1077.35,1880.29L1074.05,1882.72L1070.76,1882.72L1070.29,1885.15L1068.87,1884.18L1065.11,1886.62L1063.69,1886.13L1063.22,1887.59L1059.45,1887.11L1058.51,1889.54L1056.16,1890.51L1054.27,1893.43L1052.39,1892.94L1050.5,1895.37L1048.62,1895.37L1047.21,1896.83L1046.74,1899.75L1045.32,1900.23L1046.27,1904.6L1045.33,1905.58L1042.03,1906.06L1042.98,1913.83L1042.51,1915.78L1041.1,1915.78L1039.68,1917.72L1036.38,1917.72L1034.03,1919.18L1031.67,1919.19L1027.9,1920.65L1027.9,1923.56L1021.78,1925.02L1020.83,1925.99L1020.84,1928.91L1018.01,1933.28L1013.77,1933.77L1012.82,1934.74L1014.71,1939.11L1012.83,1941.05L1012.36,1942.99L1010.94,1944.45L1006.7,1945.91L1006.23,1951.25L1009.06,1952.71L1010.01,1957.08L1008.59,1959.99L1005.29,1960L1006.71,1962.91L1004.82,1963.4L1004.35,1964.37L1005.77,1964.85L1005.3,1966.8L1003.88,1968.25L1004.36,1971.17L1006.24,1974.08L1009.07,1971.65L1010.49,1973.11L1010.49,1975.05L1013.79,1978.93L1013.79,1979.9L1012.38,1980.39L1011.91,1983.3L1015.68,1983.3L1016.16,1984.27L1015.21,1986.22L1011.91,1987.68L1011.44,1991.56L1007.2,1990.11L1004.84,1991.56L1005.78,1990.11L1004.36,1987.68L1002.95,1988.65L1002.48,1990.11L1000.59,1990.6L998.7,1988.65L996.82,1988.17L995.4,1989.14L984.55,1983.8L946.34,1967.78L942.1,1964.87L940.21,1965.35L906.26,1949.32L896.36,1945.91L884.57,1939.59L850.64,1925.96L810.11,1912.8L779.95,1905.96L751.21,1901.53L737.07,1900.53L705.96,1901.43L689.45,1903.82L688.05,1899.93L686.64,1899.92L686.63,1901.87L681.45,1902.34L681.91,1903.31L685.68,1903.81L686.62,1905.75L641.37,1907.08L631.93,1908.5L551.34,1906.27L539.09,1905.25L538.62,1904.27L537.2,1904.75L499.98,1900.71L476.9,1896.71L440.66,1887.31L382.36,1862.71L361.22,1852.39L329.73,1840.05L299.24,1821.41L272.51,1803.75L248.62,1786.58L233.61,1777.74L216.73,1769.36L205.03,1759.56L198.97,1752.72L184.93,1741.44L192.01,1739.07L194.87,1734.72L195.81,1734.73L195.35,1733.75L192.01,1738.58L189.19,1738.07L188.72,1739.04L186.83,1739.03L185.89,1739.99L184.95,1739.5L185.93,1734.16L184.99,1734.16L185.45,1735.62L184.02,1738.03L184.48,1739.49L183.06,1739.97L177.92,1736.04L177.92,1735.07L179.81,1734.12L180.3,1732.66L183.13,1731.72L181.73,1730.25L181.24,1731.7L179.36,1731.69L178.88,1733.62L176.51,1735.06L166.22,1727.21L167.64,1726.25L169.99,1726.27L170.95,1723.85L169.06,1725.29L167.18,1724.79L165.75,1726.72L156.39,1720.34L154.54,1716.92L137.7,1704.65L122.77,1690.44L98.49,1669.85L54.6,1634.99L36.38,1622.2L35.92,1621.22L27.97,1616.78L23.31,1612.36L11.64,1604L15.9,1601.13L16.85,1599.19L17.86,1591.92L20.7,1589.52L24.01,1588.1L24.96,1586.16L32.04,1583.8L32.99,1582.35L33.51,1577.02L35.92,1570.73L35.95,1567.33L36.9,1565.4L36.91,1564.43L34.11,1562.46L35.56,1558.1L38.39,1556.67L38.42,1553.76L39.38,1551.83L41.27,1550.39L43.19,1546.04L45.08,1545.08L47.89,1545.11L50.74,1541.74L50.84,1531.06L52.75,1527.68L52.76,1526.22L51.38,1523.78L51.42,1519.41L48.7,1508.22L46.85,1504.8L42.19,1501.85L39.87,1498.91L40.85,1493.58L43.68,1492.64L45.11,1490.71L45.6,1488.29L44.2,1487.3L42.38,1480.98L40.05,1478.53L40.07,1477.07L37.29,1473.16L36.38,1469.27L37.36,1464.91L35.97,1463.93L33.66,1459.53L35.59,1453.24L34.67,1452.26L35.63,1449.84L37.99,1448.41L39.89,1445.51L39.9,1444.06L42.72,1444.08L51.68,1439.31L54.09,1432.05L55.5,1432.06L56.45,1430.62L56.94,1428.19L52.8,1419.42L54.23,1416.52L54.73,1413.13L53.34,1411.66L53.86,1405.84L52,1403.39L51.55,1401.45L51.58,1398.05L52.54,1396.12L52.12,1390.77L53.08,1388.35L51.24,1384.45L50.3,1383.96L50.8,1381.54L52.22,1380.09L55.51,1379.15L55.54,1375.27L57.9,1374.32L58.87,1370.44L60.75,1369.98L61.7,1368.53L64.49,1370.5L65.43,1370.5L66.38,1369.06L67.78,1370.04L68.72,1369.56L69.65,1371.03L74.8,1371.56L75.29,1369.14L79.06,1366.74L81.41,1366.28L81.42,1364.82L83.79,1362.41L85.27,1353.69L87.13,1355.16L89.02,1354.21L88.57,1351.78L89.99,1349.85L89.06,1348.87L87.66,1348.86L87.68,1346.43L88.62,1346.44L90.99,1342.58L92.86,1343.08L93.81,1342.11L23.44,1249.25L250.55,856.51L852.19,858.96L849.86,855.08L850.33,853.62L852.66,852.17L853.6,848.77L855.47,847.8L859.2,847.81L859.67,844.89L858.74,843.44L856.87,842.95L855.01,843.43L848,849.74L846.14,849.73L844.74,848.76L845.21,845.85L844.28,840.03L847.09,834.2L849.88,836.15L855.94,837.61L857.34,836.64L856.88,831.79L858.28,827.91L856.42,826.45L853.16,825.47L849.89,825.47L847.57,823.53L847.57,821.58L848.97,819.64L854.56,818.68L859.7,814.8L858.3,809.95L855.51,808L848.98,806.05L846.65,804.6L845.73,796.34L844.8,794.89L844.8,791L846.67,786.15L851.34,782.76L858.33,782.28L858.33,780.82L854.6,778.88L852.74,776.94L852.74,774.99L851.35,774.02L849.48,777.42L847.61,777.9L845.29,775.47L848.56,768.68L850.89,767.23L853.68,768.2L855.54,770.63L857.41,771.6L859.27,771.12L860.67,769.18L860.67,767.24L858.35,763.84L852.29,758.98L852.3,755.58L856.03,753.15L856.49,751.7L853.23,749.75L852.77,748.78L853.7,746.84L863.95,746.85L867.21,744.91L867.22,740.54L865.82,737.63L866.76,734.72L869.09,734.24L871.89,729.87L873.75,729.87L877.01,732.3L879.34,730.85L879.34,727.45L873.75,726.47L871.42,725.02L870.49,723.56L870.96,720.16L870.03,719.68L867.7,720.16L868.16,726.95L866.76,726.47L865.37,721.61L867.24,718.22L872.36,712.88L874.23,712.88L877.02,714.34L879.81,719.68L884,719.69L884.94,717.26L884.94,714.35L883.08,712.4L878.42,711.92L875.16,709.49L871.9,706.57L870.04,702.69L871.44,700.75L876.1,699.29L877.5,695.41L874.24,692.98L872.38,692.98L869.12,698.8L867.25,698.32L862.61,688.6L849.1,689.08L847.71,690.05L846.31,689.56L844.45,690.53L837.93,688.58L832.34,689.54L831.41,689.06L830.95,685.66L833.75,682.75L835.15,679.84L834.69,671.1L833.3,670.61L830.5,671.58L829.1,674.01L827.24,674.97L824.91,673.52L824.92,669.63L823.99,667.2L817.94,666.71L812.82,668.64L812.81,672.04L811.88,672.53L803.51,668.15L803.05,665.23L804.91,661.84L803.52,660.38L784.43,666.66L782.57,666.17L781.17,663.26L782.11,657.92L779.79,656.46L777.92,657.91L771.87,657.9L770.47,662.27L767.68,663.23L764.42,662.74L762.1,659.82L763.5,656.91L769.55,657.89L774.21,654.51L776.08,650.63L776.08,648.2L773.3,643.34L771.44,641.88L769.58,641.39L761.66,645.74L758.87,644.77L757.47,643.31L758.88,636.52L757.96,633.12L756.1,630.2L757.04,627.78L757.05,622.44L761.71,617.59L766.84,615.17L766.84,614.2L762.66,607.4L759.88,605.45L758.94,605.94L759.86,610.79L758.93,612.73L757.07,613.7L751.95,614.66L747.3,611.74L747.31,608.82L752.89,607.38L753.83,605.93L752.91,598.64L750.6,593.78L750.14,590.87L750.14,587.96L752.01,585.53L752.01,584.08L743.2,573.38L741.81,568.52L741.36,561.24L732.54,554.91L728.83,553.45L727.9,551.99L728.84,546.65L727.92,543.74L726.06,541.79L720.95,539.84L717.71,536.92L712.13,534.47L706.1,530.09L705.65,526.21L702.4,523.77L694.5,521.81L685.68,518.39L684.29,515.47L684.3,512.56L685.71,509.16L684.32,507.22L682,506.73L664.33,508.13L659.69,506.66L658.31,500.83L651.36,494.99L648.11,494.01L641.6,493.99L638.35,495.43L635.56,494.94L632.3,496.38L629.06,494.92L628.14,491.03L623.97,485.68L624.93,478.4L623.54,476.94L617.04,474.49L613.79,474.47L608.67,476.4L607.28,476.39L605.43,474.93L604.97,473.96L606.37,471.54L612.89,467.68L614.76,463.8L613.38,458.94L609.21,456.5L603.17,456.48L600.38,458.41L599.9,461.32L602.2,468.61L602.19,472.01L600.32,475.4L598.92,475.39L597.99,474.9L597.08,469.56L594.77,467.13L589.21,463.71L565.54,457.31L562.76,455.84L559.06,451.45L559.07,450L559.54,449.03L561.86,448.07L563.73,445.16L560.03,441.75L557.26,436.88L550.78,432.49L548.47,429.08L547.56,426.16L544.78,422.75L541.54,421.28L539.68,421.28L537.83,419.33L536.91,417.87L536.93,414.47L537.87,412.04L537.88,409.62L536.96,407.67L534.64,405.72L530,405.21L524.42,406.65L522.11,406.15L511.92,400.76L505.46,391.51L500.83,388.09L495.75,382.24L493,376.4L493.02,371.55L489.35,363.28L485.19,359.37L474.98,359.32L473.13,358.83L470.82,356.88L468.52,352.5L467.18,341.32L468.13,337.44L469.99,335.51L471.4,332.12L471.88,329.21L470.04,325.31L468.19,324.82L464.03,320.91L462.17,321.88L452.91,320.37L451.04,321.33L445.95,319.37L443.17,319.84L440.84,321.28L438.49,327.58L438.48,329.52L436.15,330.97L431.98,330.46L431.53,328.03L432.94,323.67L432.49,321.24L429.28,315.39L424.19,312.94L421.42,309.53L419.57,308.54L407.51,308.48L400.1,306.49L395.03,301.61L394.11,299.66L394.13,297.24L390.02,286.04L600.06,287.03L600.59,13.15L830.86,12.74L888.65,15.22L944.14,13.3L1216.48,13.43L1449.52,12.03L1452.34,383L1429.17,772.91L1428.37,800.1L1427,804.96L1419.27,944.3L1420.21,944.78L1420.68,946.72L1420.23,948.66L1423.49,948.65L1423.95,947.19L1425.82,946.69L1424.41,945.73L1426.73,943.29L1430.47,943.27L1432.79,941.32L1437,943.24L1437.94,942.75L1438.39,940.81L1437.45,938.39L1442.57,935.93L1445.84,936.89L1446.79,939.31L1448.66,940.27L1448.67,941.73L1449.61,942.69L1454.28,943.16L1455.68,944.12L1461.27,941.18L1462.19,938.75L1463.59,938.74L1465.01,942.13L1466.41,942.12L1468.73,940.65L1470.14,941.13L1470.62,943.56L1471.55,944.04L1472.48,943.55L1472.48,942.58L1470.13,939.19L1473.39,939.17L1475.71,936.25L1480.85,936.22L1484.59,937.66L1488.35,942.98L1490.19,937.14L1493.94,940.03L1494.41,941.49L1495.81,940.99L1495.33,938.08L1497.19,937.59L1497.64,934.19L1499.5,933.69L1500.91,934.66L1501.41,940.96L1503.74,939.98L1504.65,935.12L1506.51,934.62L1510.72,936.54L1516.33,936.99L1516.8,938.45L1515.43,944.28L1516.37,944.76L1520.1,943.28L1524.29,942.77L1526.61,939.85L1528.01,939.84L1529.88,940.31L1533.17,943.69L1540.17,944.14L1545.33,947.5L1554.66,946.47L1560.27,947.9L1563.53,945.93L1564.44,943.02L1565.83,941.55L1566.31,943.01L1569.12,944.44L1579.48,959.42L1581.83,960.38L1584.62,958.91L1586.96,960.35L1590.23,960.81L1594.42,957.87L1601.42,958.8L1606.06,954.4L1610.76,957.76L1622.45,961.08L1629.02,966.38L1643.09,975.02L1643.57,976.95L1641.25,979.4L1641.26,980.37L1639.86,980.86L1639.41,982.32L1645.03,985.2L1649.22,983.22L1651.07,981.27L1652.94,981.26L1654.37,985.13L1660.94,989.94L1672.67,997.13L1675.48,998.08L1684.88,1005.78L1692.85,1010.09L1698.94,1011.5L1701.31,1015.85L1700.38,1017.31L1699.45,1017.32L1699.9,1015.37L1698.5,1014.9L1696.64,1016.85L1700.42,1021.68L1700.42,1022.65L1698.08,1021.7L1696.22,1022.2L1697.17,1024.62L1694.84,1026.09L1694.86,1028.03L1691.6,1030L1690.22,1032.92L1690.24,1035.35L1691.18,1035.82L1691.2,1038.74L1692.61,1039.7L1694.48,1039.68L1696.36,1041.12L1699.15,1039.65L1699.61,1038.67L1702.9,1040.59L1708.49,1038.12L1711.26,1034.7L1714.53,1033.7L1714.5,1030.31L1711.22,1028.88L1710.71,1023.06L1709.75,1020.64L1711.61,1019.65L1712.06,1017.22L1714.86,1016.71L1715.8,1017.68L1717.2,1017.67L1722.32,1014.23L1721.84,1013.26L1724.14,1008.39L1722.27,1007.92L1722.28,1009.86L1721.35,1010.35L1719.94,1008.91L1721.31,1005.5L1725.94,999.64L1730.09,992.33L1734.21,982.59L1733.72,979.68L1731.38,979.21L1729.03,976.8L1729.37,961.27L1731.74,965.62L1735.96,968.01L1734.11,970.45L1737.36,968L1736.89,966.55L1737.81,965.08L1745.31,968.91L1748.11,968.88L1754.66,970.77L1757.93,970.26L1759.34,971.7L1762.58,968.28L1762.55,964.88L1761.6,962.46L1756.92,961.05L1754.59,961.55L1753.65,960.59L1754.08,956.21L1751.26,953.81L1742.37,951.46L1740.5,951.96L1739.1,951L1737.7,951.49L1737.71,952.95L1739.14,956.82L1737.74,956.35L1736.29,950.53L1735.77,943.26L1730.6,939.41L1729.17,935.54L1727.28,933.13L1726.35,933.62L1720.26,929.79L1718.39,930.29L1715.57,927.88L1713.21,924.02L1706.67,923.58L1703.35,916.81L1700.96,909.55L1703.29,908.08L1714.03,909.45L1718.7,910.39L1732.76,918.04L1741.22,924.77L1756.76,941.15L1785.88,962.75L1824.82,983.28L1843.14,995.25L1861.03,1010.13L1864.3,1010.59L1864.8,1013.98L1865.74,1014.46L1866.19,1013L1871.39,1018.77L1877.96,1022.11L1885.92,1023.98L1886.86,1024.94Z" fill-rule="evenodd" fill="#4682b4" fill-opacity="0.471"/>
<polyline points="1886.86,1024.94 1876.13,1026.01 1875.67,1026.99 1878.04,1030.85 1879.92,1031.8 1879.03,1037.15 1876.71,1038.62 1877.2,1041.05 1876.28,1042.03 1874.41,1042.04 1871.58,1039.16 1870.65,1039.65 1872.54,1042.55 1872.09,1044.01 1869.29,1045 1868.79,1041.13 1867.85,1040.16 1864.61,1043.59 1862.24,1040.7 1859.9,1040.24 1859.93,1042.66 1862.29,1046.04 1862.31,1047.5 1860.91,1048.48 1855.77,1048.53 1850.65,1050.03 1848.28,1046.17 1846.87,1046.18 1844.11,1050.57 1843.18,1051.07 1841.77,1050.11 1840.86,1053.03 1841.35,1055.94 1842.3,1056.9 1842.32,1059.33 1839.1,1064.7 1839.57,1065.18 1832.65,1075.92 1735.63,1160.71 1732.35,1160.74 1731.42,1161.71 1731.45,1165.11 1727.75,1170.48 1725.42,1170.98 1721.23,1173.93 1720.75,1172.48 1717.48,1172.99 1711.42,1176.92 1677.52,1211.63 1599.2,1260.23 1539.57,1312.54 1455.4,1346.02 1455.89,1350.87 1454.5,1353.79 1453.1,1354.77 1450.31,1359.15 1446.56,1359.65 1445.16,1361.6 1446.1,1362.08 1445.64,1363.54 1447.99,1364.99 1443.8,1370.83 1443.81,1373.26 1441.49,1376.67 1441.49,1378.12 1443.37,1379.09 1443.86,1382 1445.27,1382.96 1447.14,1382.95 1447.15,1384.41 1451.38,1385.84 1451.85,1386.81 1454.2,1387.77 1453.28,1390.69 1452.35,1392.15 1451.41,1392.15 1450.95,1393.61 1451.89,1395.06 1450.51,1399.92 1450.53,1403.32 1449.6,1404.3 1450.07,1405.75 1445.86,1407.71 1446.35,1411.11 1447.29,1411.1 1446.83,1414.5 1444.03,1416.46 1444.04,1419.37 1442.64,1419.86 1442.65,1422.29 1441.72,1424.24 1437.04,1426.69 1432.82,1426.71 1429.09,1431.1 1422.07,1434.53 1421.14,1435.99 1423.13,1459.28 1437.29,1477.66 1449.08,1488.28 1451.07,1509.63 1467.07,1518.28 1459.18,1536.29 1456.37,1537.76 1455.43,1537.28 1454.97,1539.22 1456.88,1544.55 1455.95,1546.01 1456.43,1548.44 1457.85,1550.37 1458.34,1554.25 1459.28,1555.71 1459.3,1559.59 1457.91,1563.48 1456.04,1563.98 1457.46,1567.37 1459.34,1567.36 1457.48,1570.28 1458.9,1571.73 1457.03,1574.16 1456.59,1580.96 1455.18,1580.97 1455.19,1582.91 1453.79,1583.41 1453.8,1585.83 1452.86,1586.81 1450.05,1586.82 1449.57,1585.85 1445.34,1586.36 1440.63,1583.96 1438.29,1584.45 1434.52,1583.02 1433.1,1581.57 1417.13,1580.67 1416.2,1582.62 1413.39,1585.06 1412.45,1585.06 1411.99,1587.49 1409.65,1588.96 1411.07,1591.38 1410.6,1592.35 1408.72,1592.36 1407.79,1593.34 1408.26,1594.31 1406.86,1595.28 1405.46,1598.2 1403.59,1599.67 1402.18,1599.19 1398.9,1602.12 1397.97,1604.55 1396.56,1605.04 1394.7,1609.42 1395.18,1611.36 1393.78,1613.79 1392.37,1614.28 1390.51,1616.72 1385.34,1618.68 1387.25,1624.99 1384.43,1625.48 1384.44,1626.46 1379.74,1627.93 1371.31,1633.31 1362.39,1636.74 1361.45,1638.2 1363.34,1639.17 1362.87,1640.63 1363.83,1643.54 1363.37,1646.94 1362.43,1647.43 1364.8,1650.33 1365.29,1656.15 1364.83,1657.61 1362.02,1660.54 1361.54,1659.57 1354.48,1657.17 1350.7,1652.33 1349.77,1655.73 1348.37,1657.19 1346.92,1647.97 1344.56,1646.04 1343.63,1647.5 1340.34,1648 1337.55,1655.29 1335.66,1655.3 1335.2,1657.24 1331.92,1660.66 1329.11,1661.64 1327.7,1663.58 1325.82,1663.59 1324.89,1665.05 1323.01,1665.06 1322.53,1663.6 1321.12,1663.12 1321.11,1662.15 1319.23,1660.7 1311.23,1659.28 1307.93,1656.38 1306.52,1658.32 1305.58,1657.84 1305.12,1659.3 1303.24,1660.28 1301.36,1661.25 1298.54,1661.26 1295.74,1666.13 1293.39,1668.08 1291.98,1666.14 1289.63,1666.63 1288.7,1671.98 1286.82,1671.5 1286.83,1673.44 1284.48,1675.39 1285.43,1677.33 1284.49,1678.3 1282.14,1678.8 1280.27,1680.75 1277.44,1678.33 1276.96,1676.87 1278.84,1674.92 1278.36,1672.01 1277.41,1669.1 1275.05,1666.68 1274.1,1663.29 1259.52,1662.85 1257.66,1668.68 1256.29,1681.79 1256.76,1684.71 1259.6,1688.58 1263.37,1691.48 1264.79,1694.39 1262.91,1694.88 1261.5,1693.92 1257.74,1695.38 1256.33,1696.84 1255.86,1695.87 1253.04,1697.34 1251.18,1703.66 1251.67,1711.42 1250.74,1712.88 1252.62,1714.33 1256.38,1711.41 1258.26,1712.38 1260.61,1712.37 1262.96,1711.39 1264.38,1712.84 1265.32,1712.35 1266.26,1713.32 1265.8,1714.78 1267.68,1714.77 1268.62,1716.23 1267.68,1716.72 1267.69,1717.69 1270.04,1718.16 1270.99,1720.1 1273.35,1721.55 1273.35,1724.47 1271.95,1726.9 1272.43,1729.81 1270.55,1731.27 1272.44,1732.24 1272.92,1735.15 1284.26,1748.22 1283.32,1749.2 1283.79,1750.65 1284.73,1750.65 1285.21,1751.62 1283.81,1754.05 1283.81,1756.48 1282.88,1758.42 1281.46,1757.94 1280.06,1759.4 1279.11,1758.43 1276.76,1759.41 1273.93,1757.48 1271.58,1757 1268.76,1759.92 1267.36,1763.33 1263.13,1763.34 1256.08,1766.76 1250.43,1767.26 1233.48,1766.34 1216.09,1775.62 1214.22,1780.48 1194.02,1798.49 1188.39,1807.73 1186.52,1813.08 1186.99,1814.53 1185.59,1819.39 1183.72,1822.31 1183.25,1825.71 1181.84,1825.72 1182.79,1827.66 1179.03,1834.46 1179.04,1835.92 1180.46,1837.86 1179.52,1841.26 1180.47,1842.71 1180.47,1845.63 1182.83,1846.11 1184.25,1849.02 1183.31,1849.99 1181.9,1849.51 1181.42,1848.05 1175.77,1848.55 1174.83,1850.01 1174.36,1849.04 1173.42,1850.01 1172.94,1849.04 1170.59,1848.56 1165.41,1849.55 1163.99,1849.06 1163.52,1848.09 1160.22,1847.13 1158.8,1842.76 1157.38,1841.79 1155.5,1841.8 1154.08,1839.37 1153.14,1840.35 1150.78,1837.92 1148.9,1837.93 1145.59,1835.02 1142.3,1835.03 1141.36,1836 1138.53,1835.52 1136.17,1836.49 1136.18,1837.95 1129.11,1837.96 1127.23,1837 1126.76,1839.91 1124.88,1842.83 1124.89,1845.25 1120.65,1846.23 1119.7,1845.26 1117.35,1844.78 1116.88,1845.27 1110.75,1844.31 1106.99,1846.74 1106.99,1849.17 1104.64,1849.66 1104.17,1850.63 1104.64,1854.51 1102.77,1859.37 1100.88,1860.35 1097.11,1859.87 1097.12,1862.29 1093.82,1862.3 1092.88,1863.27 1093.35,1864.73 1091.47,1869.1 1089.12,1868.62 1088.65,1871.53 1087.71,1872.51 1086.29,1872.02 1085.82,1873.48 1083.94,1873 1081.11,1875.91 1078.29,1876.4 1077.35,1880.29 1074.05,1882.72 1070.76,1882.72 1070.29,1885.15 1068.87,1884.18 1065.11,1886.62 1063.69,1886.13 1063.22,1887.59 1059.45,1887.11 1058.51,1889.54 1056.16,1890.51 1054.27,1893.43 1052.39,1892.94 1050.5,1895.37 1048.62,1895.37 1047.21,1896.83 1046.74,1899.75 1045.32,1900.23 1046.27,1904.6 1045.33,1905.58 1042.03,1906.06 1042.98,1913.83 1042.51,1915.78 1041.1,1915.78 1039.68,1917.72 1036.38,1917.72 1034.03,1919.18 1031.67,1919.19 1027.9,1920.65 1027.9,1923.56 1021.78,1925.02 1020.83,1925.99 1020.84,1928.91 1018.01,1933.28 1013.77,1933.77 1012.82,1934.74 1014.71,1939.11 1012.83,1941.05 1012.36,1942.99 1010.94,1944.45 1006.7,1945.91 1006.23,1951.25 1009.06,1952.71 1010.01,1957.08 1008.59,1959.99 1005.29,1960 1006.71,1962.91 1004.82,1963.4 1004.35,1964.37 1005.77,1964.85 1005.3,1966.8 1003.88,1968.25 1004.36,1971.17 1006.24,1974.08 1009.07,1971.65 1010.49,1973.11 1010.49,1975.05 1013.79,1978.93 1013.79,1979.9 1012.38,1980.39 1011.91,1983.3 1015.68,1983.3 1016.16,1984.27 1015.21,1986.22 1011.91,1987.68 1011.44,1991.56 1007.2,1990.11 1004.84,1991.56 1005.78,1990.11 1004.36,1987.68 1002.95,1988.65 1002.48,1990.11 1000.59,1990.6 998.7,1988.65 996.82,1988.17 995.4,1989.14 984.55,1983.8 946.34,1967.78 942.1,1964.87 940.21,1965.35 906.26,1949.32 896.36,1945.91 884.57,1939.59 850.64,1925.96 810.11,1912.8 779.95,1905.96 751.21,1901.53 737.07,1900.53 705.96,1901.43 689.45,1903.82 688.05,1899.93 686.64,1899.92 686.63,1901.87 681.45,1902.34 681.91,1903.31 685.68,1903.81 686.62,1905.75 641.37,1907.08 631.93,1908.5 551.34,1906.27 539.09,1905.25 538.62,1904.27 537.2,1904.75 499.98,1900.71 476.9,1896.71 440.66,1887.31 382.36,1862.71 361.22,1852.39 329.73,1840.05 299.24,1821.41 272.51,1803.75 248.62,1786.58 233.61,1777.74 216.73,1769.36 205.03,1759.56 198.97,1752.72 184.93,1741.44 192.01,1739.07 194.87,1734.72 195.81,1734.73 195.35,1733.75 192.01,1738.58 189.19,1738.07 188.72,1739.04 186.83,1739.03 185.89,1739.99 184.95,1739.5 185.93,1734.16 184.99,1734.16 185.45,1735.62 184.02,1738.03 184.48,1739.49 183.06,1739.97 177.92,1736.04 177.92,1735.07 179.81,1734.12 180.3,1732.66 183.13,1731.72 181.73,1730.25 181.24,1731.7 179.36,1731.69 178.88,1733.62 176.51,1735.06 166.22,1727.21 167.64,1726.25 169.99,1726.27 170.95,1723.85 169.06,1725.29 167.18,1724.79 165.75,1726.72 156.39,1720.34 154.54,1716.92 137.7,1704.65 122.77,1690.44 98.49,1669.85 54.6,1634.99 36.38,1622.2 35.92,1621.22 27.97,1616.78 23.31,1612.36 11.64,1604 15.9,1601.13 16.85,1599.19 17.86,1591.92 20.7,1589.52 24.01,1588.1 24.96,1586.16 32.04,1583.8 32.99,1582.35 33.51,1577.02 35.92,1570.73 35.95,1567.33 36.9,1565.4 36.91,1564.43 34.11,1562.46 35.56,1558.1 38.39,1556.67 38.42,1553.76 39.38,1551.83 41.27,1550.39 43.19,1546.04 45.08,1545.08 47.89,1545.11 50.74,1541.74 50.84,1531.06 52.75,1527.68 52.76,1526.22 51.38,1523.78 51.42,1519.41 48.7,1508.22 46.85,1504.8 42.19,1501.85 39.87,1498.91 40.85,1493.58 43.68,1492.64 45.11,1490.71 45.6,1488.29 44.2,1487.3 42.38,1480.98 40.05,1478.53 40.07,1477.07 37.29,1473.16 36.38,1469.27 37.36,1464.91 35.97,1463.93 33.66,1459.53 35.59,1453.24 34.67,1452.26 35.63,1449.84 37.99,1448.41 39.89,1445.51 39.9,1444.06 42.72,1444.08 51.68,1439.31 54.09,1432.05 55.5,1432.06 56.45,1430.62 56.94,1428.19 52.8,1419.42 54.23,1416.52 54.73,1413.13 53.34,1411.66 53.86,1405.84 52,1403.39 51.55,1401.45 51.58,1398.05 52.54,1396.12 52.12,1390.77 53.08,1388.35 51.24,1384.45 50.3,1383.96 50.8,1381.54 52.22,1380.09 55.51,1379.15 55.54,1375.27 57.9,1374.32 58.87,1370.44 60.75,1369.98 61.7,1368.53 64.49,1370.5 65.43,1370.5 66.38,1369.06 67.78,1370.04 68.72,1369.56 69.65,1371.03 74.8,1371.56 75.29,1369.14 79.06,1366.74 81.41,1366.28 81.42,1364.82 83.79,1362.41 85.27,1353.69 87.13,1355.16 89.02,1354.21 88.57,1351.78 89.99,1349.85 89.06,1348.87 87.66,1348.86 87.68,1346.43 88.62,1346.44 90.99,1342.58 92.86,1343.08 93.81,1342.11 23.44,1249.25 250.55,856.51 852.19,858.96 849.86,855.08 850.33,853.62 852.66,852.17 853.6,848.77 855.47,847.8 859.2,847.81 859.67,844.89 858.74,843.44 856.87,842.95 855.01,843.43 848,849.74 846.14,849.73 844.74,848.76 845.21,845.85 844.28,840.03 847.09,834.2 849.88,836.15 855.94,837.61 857.34,836.64 856.88,831.79 858.28,827.91 856.42,826.45 853.16,825.47 849.89,825.47 847.57,823.53 847.57,821.58 848.97,819.64 854.56,818.68 859.7,814.8 858.3,809.95 855.51,808 848.98,806.05 846.65,804.6 845.73,796.34 844.8,794.89 844.8,791 846.67,786.15 851.34,782.76 858.33,782.28 858.33,780.82 854.6,778.88 852.74,776.94 852.74,774.99 851.35,774.02 849.48,777.42 847.61,777.9 845.29,775.47 848.56,768.68 850.89,767.23 853.68,768.2 855.54,770.63 857.41,771.6 859.27,771.12 860.67,769.18 860.67,767.24 858.35,763.84 852.29,758.98 852.3,755.58 856.03,753.15 856.49,751.7 853.23,749.75 852.77,748.78 853.7,746.84 863.95,746.85 867.21,744.91 867.22,740.54 865.82,737.63 866.76,734.72 869.09,734.24 871.89,729.87 873.75,729.87 877.01,732.3 879.34,730.85 879.34,727.45 873.75,726.47 871.42,725.02 870.49,723.56 870.96,720.16 870.03,719.68 867.7,720.16 868.16,726.95 866.76,726.47 865.37,721.61 867.24,718.22 872.36,712.88 874.23,712.88 877.02,714.34 879.81,719.68 884,719.69 884.94,717.26 884.94,714.35 883.08,712.4 878.42,711.92 875.16,709.49 871.9,706.57 870.04,702.69 871.44,700.75 876.1,699.29 877.5,695.41 874.24,692.98 872.38,692.98 869.12,698.8 867.25,698.32 862.61,688.6 849.1,689.08 847.71,690.05 846.31,689.56 844.45,690.53 837.93,688.58 832.34,689.54 831.41,689.06 830.95,685.66 833.75,682.75 835.15,679.84 834.69,671.1 833.3,670.61 830.5,671.58 829.1,674.01 827.24,674.97 824.91,673.52 824.92,669.63 823.99,667.2 817.94,666.71 812.82,668.64 812.81,672.04 811.88,672.53 803.51,668.15 803.05,665.23 804.91,661.84 803.52,660.38 784.43,666.66 782.57,666.17 781.17,663.26 782.11,657.92 779.79,656.46 777.92,657.91 771.87,657.9 770.47,662.27 767.68,663.23 764.42,662.74 762.1,659.82 763.5,656.91 769.55,657.89 774.21,654.51 776.08,650.63 776.08,648.2 773.3,643.34 771.44,641.88 769.58,641.39 761.66,645.74 758.87,644.77 757.47,643.31 758.88,636.52 757.96,633.12 756.1,630.2 757.04,627.78 757.05,622.44 761.71,617.59 766.84,615.17 766.84,614.2 762.66,607.4 759.88,605.45 758.94,605.94 759.86,610.79 758.93,612.73 757.07,613.7 751.95,614.66 747.3,611.74 747.31,608.82 752.89,607.38 753.83,605.93 752.91,598.64 750.6,593.78 750.14,590.87 750.14,587.96 752.01,585.53 752.01,584.08 743.2,573.38 741.81,568.52 741.36,561.24 732.54,554.91 728.83,553.45 727.9,551.99 728.84,546.65 727.92,543.74 726.06,541.79 720.95,539.84 717.71,536.92 712.13,534.47 706.1,530.09 705.65,526.21 702.4,523.77 694.5,521.81 685.68,518.39 684.29,515.47 684.3,512.56 685.71,509.16 684.32,507.22 682,506.73 664.33,508.13 659.69,506.66 658.31,500.83 651.36,494.99 648.11,494.01 641.6,493.99 638.35,495.43 635.56,494.94 632.3,496.38 629.06,494.92 628.14,491.03 623.97,485.68 624.93,478.4 623.54,476.94 617.04,474.49 613.79,474.47 608.67,476.4 607.28,476.39 605.43,474.93 604.97,473.96 606.37,471.54 612.89,467.68 614.76,463.8 613.38,458.94 609.21,456.5 603.17,456.48 600.38,458.41 599.9,461.32 602.2,468.61 602.19,472.01 600.32,475.4 598.92,475.39 597.99,474.9 597.08,469.56 594.77,467.13 589.21,463.71 565.54,457.31 562.76,455.84 559.06,451.45 559.07,450 559.54,449.03 561.86,448.07 563.73,445.16 560.03,441.75 557.26,436.88 550.78,432.49 548.47,429.08 547.56,426.16 544.78,422.75 541.54,421.28 539.68,421.28 537.83,419.33 536.91,417.87 536.93,414.47 537.87,412.04 537.88,409.62 536.96,407.67 534.64,405.72 530,405.21 524.42,406.65 522.11,406.15 511.92,400.76 505.46,391.51 500.83,388.09 495.75,382.24 493,376.4 493.02,371.55 489.35,363.28 485.19,359.37 474.98,359.32 473.13,358.83 470.82,356.88 468.52,352.5 467.18,341.32 468.13,337.44 469.99,335.51 471.4,332.12 471.88,329.21 470.04,325.31 468.19,324.82 464.03,320.91 462.17,321.88 452.91,320.37 451.04,321.33 445.95,319.37 443.17,319.84 440.84,321.28 438.49,327.58 438.48,329.52 436.15,330.97 431.98,330.46 431.53,328.03 432.94,323.67 432.49,321.24 429.28,315.39 424.19,312.94 421.42,309.53 419.57,308.54 407.51,308.48 400.1,306.49 395.03,301.61 394.11,299.66 394.13,297.24 390.02,286.04 600.06,287.03 600.59,13.15 830.86,12.74 888.65,15.22 944.14,13.3 1216.48,13.43 1449.52,12.03 1452.34,383 1429.17,772.91 1428.37,800.1 1427,804.96 1419.27,944.3 1420.21,944.78 1420.68,946.72 1420.23,948.66 1423.49,948.65 1423.95,947.19 1425.82,946.69 1424.41,945.73 1426.73,943.29 1430.47,943.27 1432.79,941.32 1437,943.24 1437.94,942.75 1438.39,940.81 1437.45,938.39 1442.57,935.93 1445.84,936.89 1446.79,939.31 1448.66,940.27 1448.67,941.73 1449.61,942.69 1454.28,943.16 1455.68,944.12 1461.27,941.18 1462.19,938.75 1463.59,938.74 1465.01,942.13 1466.41,942.12 1468.73,940.65 1470.14,941.13 1470.62,943.56 1471.55,944.04 1472.48,943.55 1472.48,942.58 1470.13,939.19 1473.39,939.17 1475.71,936.25 1480.85,936.22 1484.59,937.66 1488.35,942.98 1490.19,937.14 1493.94,940.03 1494.41,941.49 1495.81,940.99 1495.33,938.08 1497.19,937.59 1497.64,934.19 1499.5,933.69 1500.91,934.66 1501.41,940.96 1503.74,939.98 1504.65,935.12 1506.51,934.62 1510.72,936.54 1516.33,936.99 1516.8,938.45 1515.43,944.28 1516.37,944.76 1520.1,943.28 1524.29,942.77 1526.61,939.85 1528.01,939.84 1529.88,940.31 1533.17,943.69 1540.17,944.14 1545.33,947.5 1554.66,946.47 1560.27,947.9 1563.53,945.93 1564.44,943.02 1565.83,941.55 1566.31,943.01 1569.12,944.44 1579.48,959.42 1581.83,960.38 1584.62,958.91 1586.96,960.35 1590.23,960.81 1594.42,957.87 1601.42,958.8 1606.06,954.4 1610.76,957.76 1622.45,961.08 1629.02,966.38 1643.09,975.02 1643.57,976.95 1641.25,979.4 1641.26,980.37 1639.86,980.86 1639.41,982.32 1645.03,985.2 1649.22,983.22 1651.07,981.27 1652.94,981.26 1654.37,985.13 1660.94,989.94 1672.67,997.13 1675.48,998.08 1684.88,1005.78 1692.85,1010.09 1698.94,1011.5 1701.31,1015.85 1700.38,1017.31 1699.45,1017.32 1699.9,1015.37 1698.5,1014.9 1696.64,1016.85 1700.42,1021.68 1700.42,1022.65 1698.08,1021.7 1696.22,1022.2 1697.17,1024.62 1694.84,1026.09 1694.86,1028.03 1691.6,1030 1690.22,1032.92 1690.24,1035.35 1691.18,1035.82 1691.2,1038.74 1692.61,1039.7 1694.48,1039.68 1696.36,1041.12 1699.15,1039.65 1699.61,1038.67 1702.9,1040.59 1708.49,1038.12 1711.26,1034.7 1714.53,1033.7 1714.5,1030.31 1711.22,1028.88 1710.71,1023.06 1709.75,1020.64 1711.61,1019.65 1712.06,1017.22 1714.86,1016.71 1715.8,1017.68 1717.2,1017.67 1722.32,1014.23 1721.84,1013.26 1724.14,1008.39 1722.27,1007.92 1722.28,1009.86 1721.35,1010.35 1719.94,1008.91 1721.31,1005.5 1725.94,999.64 1730.09,992.33 1734.21,982.59 1733.72,979.68 1731.38,979.21 1729.03,976.8 1729.37,961.27 1731.74,965.62 1735.96,968.01 1734.11,970.45 1737.36,968 1736.89,966.55 1737.81,965.08 1745.31,968.91 1748.11,968.88 1754.66,970.77 1757.93,970.26 1759.34,971.7 1762.58,968.28 1762.55,964.88 1761.6,962.46 1756.92,961.05 1754.59,961.55 1753.65,960.59 1754.08,956.21 1751.26,953.81 1742.37,951.46 1740.5,951.96 1739.1,951 1737.7,951.49 1737.71,952.95 1739.14,956.82 1737.74,956.35 1736.29,950.53 1735.77,943.26 1730.6,939.41 1729.17,935.54 1727.28,933.13 1726.35,933.62 1720.26,929.79 1718.39,930.29 1715.57,927.88 1713.21,924.02 1706.67,923.58 1703.35,916.81 1700.96,909.55 1703.29,908.08 1714.03,909.45 1718.7,910.39 1732.76,918.04 1741.22,924.77 1756.76,941.15 1785.88,962.75 1824.82,983.28 1843.14,995.25 1861.03,1010.13 1864.3,1010.59 1864.8,1013.98 1865.74,1014.46 1866.19,1013 1871.39,1018.77 1877.96,1022.11 1885.92,1023.98 1886.86,1024.94" fill="none" stroke="#1e1e1e" stroke-width="1.74" stroke-linecap="round" stroke-linejoin="round"/>
<text x="845.19" y="1049.12" font-family="sans-serif" font-size="14" stroke="#ffffff" stroke-opacity="0.784" stroke-width="2.33" stroke-linejoin="round" paint-order="stroke" fill="#141414">Guatemala</text>
</svg>
