<?xml version="1.0" encoding="UTF-8" standalone="no"?>
<svg xmlns="http://www.w3.org/2000/svg" width="1904" height="2000" viewBox="0 0 1904 2000">
<rect width="1904" height="2000" fill="#ffffff"/>
<path d="M1604.34,1007.22L1599.44,1014.83L1585.17,1030.35L1580.7,1040.38L1576.94,1043.83L1572.13,1044.86L1562.68,1039.92L1558.91,1042.8L1553.32,1050.98L1540.68,1053.06L1537.38,1054.36L1532,1062.82L1530.11,1068.41L1532.67,1070.96L1533.23,1072.82L1524.77,1085.87L1525.29,1092.44L1530.07,1108.56L1531.15,1116.26L1531.45,1132.27L1527.67,1134L1484.91,1170.39L1471.45,1177.32L1457.63,1180.96L1443.71,1180.89L1403.33,1174.66L1403.34,1177.94L1409.75,1177.91L1402.56,1186.8L1390.48,1197.15L1378.38,1202.06L1371.46,1194.66L1369.02,1188.09L1373.38,1176.79L1367.91,1171.24L1367.9,1168.24L1371.18,1161.37L1365.57,1155.25L1356.34,1152.28L1348.63,1154.75L1345.74,1154.76L1343.31,1148.77L1335.8,1148.51L1335.79,1145.08L1343.76,1140.76L1355.75,1127.57L1366.2,1124.81L1395.6,1125.54L1400.62,1124.66L1405.97,1121.35L1410.62,1114.47L1412.45,1107.89L1416.28,1103.01L1426.94,1101.11L1429.75,1100.09L1436.06,1095.63L1439.84,1094.61L1444.11,1095.59L1449.3,1099.71L1454.33,1100.97L1462.85,1099.64L1480.23,1092.98L1487.99,1091.36L1495,1088.75L1520.66,1064.46L1527.55,1054.42L1530.84,1051.97L1538.25,1048.78L1546.06,1043.59L1549.63,1042.57L1552.23,1040.84L1553.54,1029.83L1555.38,1027.39L1559.49,1024.37L1561.96,1023.64L1562.7,1020.77L1570.74,1021.01L1579.38,1017.24L1587.6,1011.47L1591.27,1005.73L1594.17,997.29L1600.07,994.68L1604.83,997.93L1604.34,1007.22Z" fill-rule="evenodd" fill="#4682b4" fill-opacity="0.471"/>
<polyline points="1604.34,1007.22 1599.44,1014.83 1585.17,1030.35 1580.7,1040.38 1576.94,1043.83 1572.13,1044.86 1562.68,1039.92 1558.91,1042.8 1553.32,1050.98 1540.68,1053.06 1537.38,1054.36 1532,1062.82 1530.11,1068.41 1532.67,1070.96 1533.23,1072.82 1524.77,1085.87 1525.29,1092.44 1530.07,1108.56 1531.15,1116.26 1531.45,1132.27 1527.67,1134 1484.91,1170.39 1471.45,1177.32 1457.63,1180.96 1443.71,1180.89 1403.33,1174.66 1403.34,1177.94 1409.75,1177.91 1402.56,1186.8 1390.48,1197.15 1378.38,1202.06 1371.46,1194.66 1369.02,1188.09 1373.38,1176.79 1367.91,1171.24 1367.9,1168.24 1371.18,1161.37 1365.57,1155.25 1356.34,1152.28 1348.63,1154.75 1345.74,1154.76 1343.31,1148.77 1335.8,1148.51 1335.79,1145.08 1343.76,1140.76 1355.75,1127.57 1366.2,1124.81 1395.6,1125.54 1400.62,1124.66 1405.97,1121.35 1410.62,1114.47 1412.45,1107.89 1416.28,1103.01 1426.94,1101.11 1429.75,1100.09 1436.06,1095.63 1439.84,1094.61 1444.11,1095.59 1449.3,1099.71 1454.33,1100.97 1462.85,1099.64 1480.23,1092.98 1487.99,1091.36 1495,1088.75 1520.66,1064.46 1527.55,1054.42 1530.84,1051.97 1538.25,1048.78 1546.06,1043.59 1549.63,1042.57 1552.23,1040.84 1553.54,1029.83 1555.38,1027.39 1559.49,1024.37 1561.96,1023.64 1562.7,1020.77 1570.74,1021.01 1579.38,1017.24 1587.6,1011.47 1591.27,1005.73 1594.17,997.29 1600.07,994.68 1604.83,997.93 1604.34,1007.22" fill="none" stroke="#1e1e1e" stroke-width="1.74" stroke-linecap="round" stroke-linejoin="round"/>
<path d="M78.92,937.07L89.37,951.59L90.45,962.6L70.25,946.85L60.18,943.05L49.44,945.38L43.82,951.04L36.04,967.83L30.06,974.92L31.56,961.5L35.15,952.25L46.13,932.06L23.53,924.56L18.12,922.07L18.29,903.24L26.47,903.44L33.6,905.37L42.79,914.45L47.91,917.64L57.24,918.87L65.91,924.38L78.92,937.07Z" fill-rule="evenodd" fill="#4682b4" fill-opacity="0.471"/>
<polyline points="78.92,937.07 89.37,951.59 90.45,962.6 70.25,946.85 60.18,943.05 49.44,945.38 43.82,951.04 36.04,967.83 30.06,974.92 31.56,961.5 35.15,952.25 46.13,932.06 23.53,924.56 18.12,922.07 18.29,903.24 26.47,903.44 33.6,905.37 42.79,914.45 47.91,917.64 57.24,918.87 65.91,924.38 78.92,937.07" fill="none" stroke="#1e1e1e" stroke-width="1.74" stroke-linecap="round" stroke-linejoin="round"/>
<text x="1391.26" y="1134.01" font-family="sans-serif" font-size="14" stroke="#ffffff" stroke-opacity="0.784" stroke-width="2.33" stroke-linejoin="round" paint-order="stroke" fill="#141414">Lago de Izabal</text>
<text x="2" y="939.77" font-family="sans-serif" font-size="14" stroke="#ffffff" stroke-opacity="0.784" stroke-width="2.33" stroke-linejoin="round" paint-order="stroke" fill="#141414">Presa de la Angostura</text>
</svg>
