<?xml version="1.0" encoding="UTF-8" standalone="no"?>
<svg xmlns="http://www.w3.org/2000/svg" width="2000" height="1491" viewBox="0 0 2000 1491">
<rect width="2000" height="1491" fill="#ffffff"/>
<polyline points="546.96,1110.95 545.22,1110.2 545.94,1109.62 546.96,1110.95" fill="none" stroke="#1e1e1e" stroke-width="1.43" stroke-linecap="round" stroke-linejoin="round"/>
<polyline points="115.83,537.98 120.15,523.09 123.37,521.2 127.88,520.64 133.53,510.22 141.01,511.24 144.02,508.97 145.57,510.21 144.02,513.32 140.94,513.6 139.69,518.14 137.78,519.82 136.67,519.38 137.29,517.14 134.35,516.48 134.87,513.39 134.09,514.54 134.46,516.92 137.1,517.26 136.36,519.41 138.86,522.48 134.68,525.82 134.3,529.56 130.7,533.51 130.67,536.28 132.67,539.19 132.51,542.27 126.51,539.33 119.35,542.22 115.83,537.98" fill="none" stroke="#1e1e1e" stroke-width="1.43" stroke-linecap="round" stroke-linejoin="round"/>
<polyline points="356.53,872.11 356.03,873.14 354.64,872.96 354.86,871.03 356.39,871.66 359,870.75 358.42,872.03 356.53,872.11" fill="none" stroke="#1e1e1e" stroke-width="1.43" stroke-linecap="round" stroke-linejoin="round"/>
<polyline points="346.54,870.01 346.86,875.31 343.97,870.47 345.57,866.28 349.18,864.24 350.52,860.4 353.39,857.69 354.83,859.13 357.07,859.26 354.58,860.26 350.92,865.89 348.34,866.59 346.54,870.01" fill="none" stroke="#1e1e1e" stroke-width="1.43" stroke-linecap="round" stroke-linejoin="round"/>
<polyline points="370.08,872.6 366.87,877.79 366.23,876.55 367.71,875.22 367.91,869.83 365.12,864.21 362.76,862.6 363.16,860.58 364.98,860.01 365.77,860.9 367.14,866.69 369.38,868.04 368.94,870.61 370.08,872.6" fill="none" stroke="#1e1e1e" stroke-width="1.43" stroke-linecap="round" stroke-linejoin="round"/>
<polyline points="536.57,1115.05 534.86,1114.55 535.43,1112.65 536.88,1113.15 536.57,1115.05" fill="none" stroke="#1e1e1e" stroke-width="1.43" stroke-linecap="round" stroke-linejoin="round"/>
<polyline points="534.02,1117.53 532.08,1120.8 531.88,1118.65 534.02,1117.53" fill="none" stroke="#1e1e1e" stroke-width="1.43" stroke-linecap="round" stroke-linejoin="round"/>
<polyline points="514.01,1227.64 509.58,1231.84 509.26,1235 506.01,1234.78 505.98,1233.14 509.49,1231.4 513.31,1226.8 514.01,1227.64" fill="none" stroke="#1e1e1e" stroke-width="1.43" stroke-linecap="round" stroke-linejoin="round"/>
<polyline points="500.64,1238.52 500.41,1237.53 502.83,1235.52 506.03,1234.88 506.06,1237.54 500.64,1238.52" fill="none" stroke="#1e1e1e" stroke-width="1.43" stroke-linecap="round" stroke-linejoin="round"/>
<polyline points="499.05,1239.8 497.69,1239.53 499.34,1239.05 499.41,1237.8 500.23,1238.78 499.05,1239.8" fill="none" stroke="#1e1e1e" stroke-width="1.43" stroke-linecap="round" stroke-linejoin="round"/>
<polyline points="562.89,1363.48 562.6,1362.52 564.74,1361.08 566.05,1362.04 565.6,1363.37 562.89,1363.48" fill="none" stroke="#1e1e1e" stroke-width="1.43" stroke-linecap="round" stroke-linejoin="round"/>
<polyline points="547.92,1361.53 555.16,1356.35 557.56,1356.73 552.74,1359.1 550.94,1361.68 550.71,1363.55 552.21,1366.16 553.27,1365.61 550.96,1367.45 545.74,1366.71 546.19,1363.55 545.06,1361.42 547.92,1361.53" fill="none" stroke="#1e1e1e" stroke-width="1.43" stroke-linecap="round" stroke-linejoin="round"/>
<polyline points="645.26,1362.29 656.46,1362.89 662.28,1361.65 672.27,1362.72 678.59,1369.16 688.91,1372.36 697.38,1379.64 698.05,1382.24 695.21,1386.94 694.97,1389.86 696.31,1393.93 698.88,1396.11 698.92,1398.01 688.39,1407.38 686.8,1418.9 684.77,1419.52 686.54,1419.64 688.4,1427.82 680.64,1430.5 680.77,1429.27 678.23,1426.81 679,1420.68 674.84,1412.93 670.68,1409.81 657.51,1403.75 621.31,1391.3 587.88,1382.46 575.38,1380.97 574.58,1379.89 577.45,1377.77 581.36,1378.88 586.28,1377.99 589.79,1378.87 593.14,1381.38 594.46,1379.75 595.86,1381.09 597.51,1380.18 598.21,1381.23 597.41,1379.88 596.1,1380.8 594.95,1379.55 591.04,1379.69 589.92,1377.61 584.6,1374.32 587.9,1371.2 597.99,1367.69 600.22,1368.3 601.04,1367.3 604.97,1368.79 605.76,1367.6 610.75,1365.95 613.84,1366.3 618.25,1364.51 628.96,1366.15 636.21,1365.03 636.78,1366.37 645.26,1362.29" fill="none" stroke="#1e1e1e" stroke-width="1.43" stroke-linecap="round" stroke-linejoin="round"/>
<polyline points="558.94,1372.29 562.01,1371.66 561.3,1374.29 563.03,1374.35 559.13,1374.63 557.74,1371.36 558.94,1372.29" fill="none" stroke="#1e1e1e" stroke-width="1.43" stroke-linecap="round" stroke-linejoin="round"/>
<polyline points="840,1482.86 739.07,1443.1 704.27,1432.47 690.93,1430.48 693.12,1428.97 695.82,1429 702.1,1424.68 716.91,1423.1 735.7,1430.95 731.15,1426.47 731.67,1423.74 727.25,1423.84 726.25,1421.09 724.55,1420.01 717.15,1418.05 706.27,1420.09 699.18,1413.7 705.93,1403.14 707.94,1397.64 710.78,1396.21 712.98,1393.04 715.38,1391.42 719.02,1391.93 725.11,1390.19 726.43,1391.19 731.86,1390.09 734.15,1385.63 733.56,1384.35 735.33,1383.14 732.6,1382.75 730.78,1386.15 727.65,1388.33 716.36,1384.34 706.02,1385.32 705.06,1383.82 705.77,1381.8 706.64,1382.43 707.09,1381.4 705.07,1380.43 702.63,1369.4 699.82,1366.1 696.72,1364.85 696.51,1363.18 697.06,1361.1 706.57,1355.07 706.76,1356.62 709.11,1357.06 708.87,1356.04 708.76,1357.11 706.62,1356.17 707.77,1351.87 705.82,1354.67 697.02,1358.82 693.66,1363.18 690.85,1360.39 687.69,1360.13 685.73,1358.11 683.81,1354.05 684.64,1350.38 691.54,1348.22 693.94,1340.8 699.04,1334.04 700.62,1334.69 703.7,1339.59 706.16,1340.65 709.65,1338.91 710.52,1335 707.39,1339.23 704.56,1338.98 703.27,1334.48 701.32,1332.44 702.19,1325.89 700.09,1327.64 697.28,1333.1 693.17,1335.06 673.26,1349.84 664.63,1348.68 665.92,1345.74 665.2,1345.02 662.75,1347.35 660.06,1347.25 647.9,1343.56 647.4,1342.96 647.96,1342.07 647.47,1343.84 640.65,1345.4 637.51,1341.67 632.77,1338.99 628.68,1333.36 625.91,1333.55 620.01,1329.68 618.58,1320.28 615.9,1319.89 614.97,1321.63 613.9,1321.53 597.69,1312.01 595.86,1307.77 591,1302.15 587.47,1299.89 583.19,1299.43 579.68,1293.42 574.14,1287.48 577.03,1287.81 581.58,1286.39 588.75,1280.39 592.54,1279.19 593.48,1275.86 589.21,1254.1 591.9,1244.02 590.93,1241.77 587.25,1240 587.47,1238.01 584.75,1235.69 585.04,1233.9 579.73,1223.28 566.36,1209.4 568,1206.01 567.97,1201.82 564.58,1201.37 562.92,1202.37 559.36,1200.6 555.3,1201.59 547.77,1201.09 543.3,1203.11 542.32,1206.36 537.65,1207.89 535.8,1210.93 529.72,1212.2 528.6,1214.16 521.62,1219.42 520.47,1217.89 521.47,1216.31 520.86,1213.17 523.04,1207.29 520.2,1196.93 518.08,1195.61 520.01,1192.52 519.01,1189.88 522.24,1188.32 520.37,1187.98 517.79,1189.49 515.52,1188.83 513.06,1184.88 513.78,1183.3 510.36,1175.32 502.45,1172.23 497.67,1164.57 494.72,1162.02 494.6,1159.9 492.86,1158.29 490.2,1152.09 486.84,1151.45 488.04,1150.23 486.93,1147.62 488.34,1148.17 490.27,1146.96 490.75,1142.07 488.24,1134.63 485.58,1132.2 486.02,1130.98 486.91,1132.27 488.35,1130.8 492.04,1132.52 489.56,1134.22 490.48,1134.65 490.05,1138.09 491.01,1139.29 491.1,1135.19 493.6,1131.47 496.84,1134.94 498.49,1132.53 500.46,1133.8 503.05,1132.57 503.89,1133.54 509.02,1132.41 510.83,1133.35 509.83,1134.27 510.99,1135.83 515.08,1135.59 518.73,1139.07 526.86,1150.47 528.88,1151.23 529.85,1150.49 535.99,1155.25 539.83,1154.17 543.13,1161.38 542.85,1163.82 542.01,1163.08 542.69,1161.67 541.19,1162.2 542.59,1161.8 541.85,1163.06 542.56,1164.08 543.52,1162.41 546.25,1164.37 546.43,1165.22 545.25,1165.71 543.73,1165.13 544.46,1165.94 546.43,1165.39 548.36,1167.86 547.38,1167.94 546.16,1170.16 547.29,1173.76 546.72,1175.46 547.59,1173.66 546.57,1172.41 546.88,1170.25 546.26,1170.22 548.66,1167.9 547.13,1164.49 553.49,1163.95 547.33,1162.8 546.27,1159.75 544.73,1158.72 543.26,1154.63 544.74,1153.92 546.87,1154.72 548.19,1152.45 546.45,1153.21 544.59,1151.68 541.04,1152.63 532.04,1148.92 529.38,1147.52 528.09,1143.77 531.1,1142.94 532.95,1141.39 532.91,1139.93 535.76,1139.88 536.86,1134.53 540.08,1135.29 542.81,1134.4 544.08,1131.87 548.33,1130.71 551.24,1123.92 554.37,1120.6 550.22,1111.93 547.46,1110.78 546.63,1108.92 537.63,1108.06 535.38,1111.94 530.75,1114.24 528.67,1122.46 525.68,1126.47 520.22,1123.37 512.69,1111.94 508.8,1099.86 500.55,1087.16 501.33,1077.24 500.26,1068.14 501.64,1065.97 500.03,1061.12 499.42,1046.46 504.13,1040.09 511.94,1034.59 515.63,1030.57 517.01,1024.93 515.75,1020.73 512.92,1019.7 504.38,1010.66 500.74,1011.13 498.22,1008.83 496.32,1010.06 490.83,1008.99 488.21,1006.6 487.52,998.23 488.95,996.65 485.68,985.34 481.91,980.57 481.41,978.1 482,976.71 486.6,974.58 488.46,970.15 489.38,971.13 488.65,967.87 492.96,964.54 495.95,959.38 500.71,957.15 501.89,955.08 497.44,951.65 494.07,951.71 492.52,955.07 483.16,954.77 481.44,953.61 479.42,947.74 483.7,946.44 484.31,944.67 482.9,942.11 484.78,935.31 480.45,921.54 473.58,921.3 469.36,922.77 465.29,921.51 456.87,922.1 457.89,917.89 454.46,907.68 454.4,904.84 455.8,904.81 454.13,901.59 454.93,890.09 453.52,886.66 443.52,887.74 438.93,884.72 432.61,876.45 429.73,867.56 427.05,863.52 419.14,860.54 411.85,850.08 411.05,846.52 408.52,842.9 404.42,843.15 403.88,844.58 400.49,846.49 397.72,846.06 397.95,847.5 391.7,850.37 390.28,852.77 387.4,853.73 378.96,861.23 377.1,861.95 377.25,861.01 374.84,859.76 377.75,856.34 378.24,857.53 379.93,856.94 377.97,854.58 376.68,854.41 375.16,855.67 373.73,859.52 375.32,855.02 375.71,855.81 376.69,854.35 377.7,854.47 379.92,856.17 383.26,854.32 384.7,851.78 384.07,851.17 385.05,851.43 386.97,848.3 389.06,847.21 388.29,846.72 390.05,845.9 390.13,840 392.34,838.16 393.38,833.08 396.72,831.24 395.74,830.49 401.26,826.21 400.59,821.97 401.43,811.74 405.82,794.45 403.22,788.63 401.82,780.62 393.9,773.89 397.9,767.85 398.37,765.27 393.36,762.99 392.26,760.18 394.43,754.61 398.79,755.72 400.78,754.95 400.74,752.56 397.98,751.36 397.66,749.68 398.63,748.96 400.71,750.77 401.9,750.29 402.13,749.08 400.55,747.2 402.26,747.83 403.07,746.98 402.09,746.21 402.94,745.29 402.02,746.13 402.95,747.01 402.2,747.76 400.43,747.12 401.69,750.21 400.69,750.54 398.77,748.77 397.36,749.79 397.66,751.46 400.38,752.74 400.22,754.94 393.11,753.62 391.13,754.91 392.3,751.2 389.91,750.18 391.85,748.19 389.3,746.65 388.22,742.52 389.74,742.14 391.15,745.28 392.59,744.53 393.39,742.22 398.69,745.14 399.85,744.8 393.43,742.01 391.55,745.11 390.65,744.64 389.46,741.77 388.25,742.15 387.11,743.87 386.19,743.44 384.32,739.28 389.26,736.43 388.96,731.3 388.38,736.27 383.52,738.94 385.02,744.71 378.61,761.08 374.69,764.1 357.07,771.57 349.53,769.43 342.01,757.68 332.26,749.12 317.74,738.94 316.49,736.69 317.37,734.21 310.94,734.74 302.32,730.18 298.48,726.58 295.75,726.95 287.86,719.86 286.6,714.03 282.14,710.33 274.28,712.53 271.97,714.67 267.86,713.54 267.44,710.92 268.91,709.78 270.6,710.1 269.06,707.65 269.8,705.53 272.55,703.69 275.3,706.02 279.37,704.55 283.67,708.66 283.54,705.94 280.08,703.99 278.21,703.58 275.34,705.46 272.64,702.77 271.07,697.84 271.71,696.96 274.03,697.82 274.91,694.66 272.27,694.94 268.35,692.71 268.69,688.76 270.58,686.78 271.11,684.09 272.47,687.83 276.2,686.6 277.91,689.33 281.84,686.18 281.99,691.7 282.87,690 282.14,685.8 280.17,686.04 278.03,688.72 276.53,685.98 272.81,687.26 272.4,684.27 275.05,683.81 275.27,681.57 276.02,683.04 279.48,684.07 280.58,682.57 282.24,682.96 284.73,689.1 285.81,688.13 282.17,680.45 279.31,680.66 277.73,678.42 275.42,678.34 270.57,674.68 264.9,675.64 265.96,673.56 265.41,672.45 262.02,672.08 259.69,675.78 256.16,676.44 253.94,673.93 250.82,673.37 250.56,672.12 254.1,668.63 253.51,665.92 250.46,661.82 250.94,655.25 252.42,652.93 251.54,651.98 252.64,649.62 251.44,651.86 252.04,653.16 250.24,655.23 249.64,661.23 251.93,665.61 250.15,666.42 249.59,671.44 245.24,671.21 244.85,672.59 246.1,674.34 244.09,675.37 239.12,672.88 241.45,673.26 242.15,671.06 243.92,671.53 244.05,667.66 243.4,670.02 243.85,671.4 242.2,670.68 241.16,673.03 237.18,669.27 235.81,669.3 234.02,671.28 232.89,670.62 234.08,669.13 232.4,668.66 230.98,669.61 229.93,667.79 231.01,664.33 228.61,663.21 231.37,662.33 232,660.45 233.75,659.91 234.52,656.31 236.37,655.11 234.44,656.24 233.73,659.74 231.94,660.27 231.3,662.12 228.76,661.74 229.19,659.8 230.42,659.83 230.67,657.98 230.36,659.84 229.19,659.24 228.26,663.5 230.71,664.69 229.38,667.49 226.2,667.09 226.11,666.37 227.98,666.76 228.99,665.69 226.26,663.25 227.7,659.48 227.55,656.55 226.75,656.53 227.55,655.46 226.35,653.9 226.81,651.57 226.25,653.85 227.45,655.51 226.66,656.52 227.44,656.57 227.57,659.45 226.05,663.37 228.67,665.58 227.79,666.45 226.21,665.93 225.64,666.79 226.5,667.78 229.05,667.85 227.21,669.88 225.72,669.9 223.77,666.87 220.95,665.77 222.67,671.62 221.7,673.6 219.33,673.42 211.52,667.31 200.92,663.29 197.74,664.01 195.46,666.98 192.5,665.91 189.79,666.63 186.22,670.81 186.39,674.88 186.1,670.7 183.58,671.33 183.53,670.58 181.19,672.22 183.49,670.49 183.53,668.54 181.53,665.41 182.19,661.87 180.19,657.66 184.11,646.69 181.75,635.49 157.16,609.21 143.87,601.71 138.31,603.51 136.13,602.27 135.97,600.33 140.24,600.38 142.19,598.55 143.78,598.79 145.91,597.46 145.78,596 149.33,595.66 149.83,594.96 150.38,595.44 151.34,594.57 152.37,595.37 151.68,594.49 150.47,595.29 149.85,594.79 145.71,595.86 145.9,597.26 143.63,598.62 142.31,598.26 143.58,596.26 141.74,595.96 139.85,599.16 133.78,598.35 133.55,603.31 131.1,604.42 129.59,601.48 130.52,597.99 128.22,589.07 128.34,588.04 130.09,587.78 130.21,585.38 130.5,586.49 132.74,586.47 130.54,586 133.64,583.11 131.15,578.99 131.55,576.03 133.12,575.02 135.39,577.79 136.96,575.37 139.52,575.57 140.09,573.06 141.92,572.9 145.63,569.32 152.17,566.78 154.04,564.86 156.65,566.46 162.06,565.22 163.39,568.59 166.94,568.05 166.34,570.88 167.31,572.46 168.72,572.61 171.93,571.01 172.25,568.73 173.5,568.71 173.99,566.34 172.29,561.55 173.78,566.34 173.28,568.52 171.86,568.77 171.87,570.73 168.47,572.31 166.79,571.38 167.7,567.32 163.68,568.09 162.36,564.45 158.98,564.81 158.85,558.77 158.01,558.01 160.18,557.54 160.53,556.5 158.61,552.82 160.36,556.66 157.7,558.04 158.67,558.69 158.67,564.77 156.88,565.6 153.72,564.14 151.97,565.91 149.82,566.18 148.65,562.6 151.05,558.55 149.4,557.08 149.74,554.96 153.08,554.57 155.35,556.07 153.07,554.38 149.72,554.63 149.41,556.01 146.71,556.27 145.66,554.08 146.54,553.59 148.15,554.63 149.48,551.13 148.08,554.48 146.36,553.38 144.9,555.13 142.07,554.2 141.82,552.15 143.65,548.73 144.64,536.97 148.64,536.41 148.85,534.16 156.02,526.06 155.89,526.98 156.83,526.94 155.86,526.79 159.18,517.12 160.71,518.93 162.8,519 164.51,518.02 165.31,515.61 167.13,515.68 165.28,515.55 164.48,517.82 162.49,518.84 160.78,518.76 159.45,516.76 162.1,508.38 170.94,503.05 172.02,501.29 171.49,499.59 170.2,499.43 168.19,502.85 161.89,504.73 156.48,500.99 159.27,499.77 161.66,497.42 159.63,499.02 158,495.78 160.16,491.91 159.19,490.3 160.1,491.8 157.91,495.47 154.16,495.35 152.59,498.34 149.97,493.91 145.19,490.2 140.89,492.66 138.22,492.73 136.88,495.35 136.81,499.32 138.32,501.08 142.65,502.17 143.18,508.49 140.26,509.96 134.77,508.1 132.12,508.79 128.02,515.92 118.11,520.45 110.69,528.27 109.34,533.42 110.91,538.69 108.74,539.48 104.12,536.74 100.51,532.83 97.35,526.79 96.65,521.41 99.67,522.48 104.45,517.41 107.31,502.28 111.08,506.01 112.69,503.29 114.19,502.84 116.7,506.73 118.18,507.06 119.86,506.11 117.06,506.64 115.39,503.06 113.85,502.13 112.47,502.74 111.12,505.33 110.41,501.68 108.36,500.07 108.89,497.55 115.04,497.75 119.37,500.16 121.45,499.93 123.96,493.54 119.72,489.78 127.43,488.65 130.34,486.57 132.13,486.73 131,486.17 131.5,483.14 130.56,486.01 127.95,488.08 119.72,488.95 119.11,490.68 121.08,492.72 118.07,493.83 116.46,497.14 108.69,495.84 113.2,486.36 114.19,480.96 113.48,477.3 115.58,474.62 115.51,471.72 116.7,470.44 120.37,471.81 119.32,470.42 116.43,470.02 114.95,472.17 114.85,474.63 112.74,477.68 113.38,480.84 112.39,483.86 108.57,482.91 106.42,481.16 108.47,483.32 112.53,485.33 103.54,503.11 100.68,505.46 98.43,504.06 93.36,505.99 92.2,504.92 93.98,497.64 93.04,490.98 98.24,486 100.41,489.33 101.93,490.25 98.48,485.6 100.07,484.54 103.05,485.03 101.14,484.79 101.76,482.68 101.05,484.38 99.65,484.29 97.15,485.79 95.85,487.6 91.12,488.95 90.39,476.71 96.58,474.4 95.88,473.26 98.53,472.66 103.68,468.43 108.74,469.22 111.12,468.43 117.48,460.37 121.04,460.13 123.51,458.69 124.07,451.25 132.43,450.19 134.42,453.58 139.51,454.34 138.86,462.17 141.39,470.59 138.85,474.33 141.31,471.24 141.66,468.84 139.08,462.11 140.06,454.53 137.37,453.27 134.33,453.12 133.63,449.86 129.92,448.62 129.89,444.18 123.47,440.87 121.76,437.48 121.55,435.88 126.44,431.12 125.12,429.63 120.1,433.46 119.33,435.67 121.35,440.39 126.58,445.25 126.76,446.77 123.11,447.39 115.13,452.59 110.38,451.82 103.74,445.81 98.74,444.36 98.53,441.39 99.53,441.36 99.83,440.51 100.97,441.14 101.27,438.81 100.87,441.05 99.76,440.4 98.25,441.58 98.31,444.48 100.11,445.72 90.75,447.51 88.86,449.73 89.01,452.22 92.52,457.02 92.05,460.39 88.74,461.33 80.79,467.33 77.88,468.18 75.49,467.47 72.93,463.12 72.88,454.71 70.33,449.39 71,448.07 75.99,445.83 79.31,437.78 83.17,434.9 78.99,437.53 79.11,434.48 83.25,428.21 81.85,427.3 82.25,428.3 80.29,431.03 80.91,430.01 80.04,430.61 80,429.11 78.25,429.76 77.62,431.13 79.08,430.66 79.44,431.68 78.2,431.58 79.44,432.69 78.24,433.88 77.76,438.99 75.67,444.28 74.11,445.94 70.17,447.11 68.44,449.64 63.52,443.51 65.37,437.33 63.51,432.91 65.05,437.1 64.41,439.92 58.52,437.37 64.09,440.08 62.82,442.72 53.9,437.86 53.44,435.33 51.85,434.43 50.41,435.45 48.06,435.01 49.83,435.91 48.05,436.78 51.85,437.66 50.23,438.93 52.86,438.98 51.07,440.31 49.49,439.91 48.32,442.25 49.86,441.04 51.53,441.2 51.48,442.16 54.9,439.87 57.23,441.02 53.24,444.55 49.84,445.86 50.37,446.74 49.19,447.99 50.53,447.25 50.76,447.96 52.33,445.59 58.31,441.72 63.66,445.77 68.83,455.38 68.8,467.13 63.95,470.26 56.32,463.78 53.59,462.82 49.31,465.29 46.04,464.92 43.46,467.62 37.73,470.77 34.14,474.86 25.94,478.16 21.9,477.78" fill="none" stroke="#1e1e1e" stroke-width="1.43" stroke-linecap="round" stroke-linejoin="round"/>
<polyline points="24.94,205.8 29.01,201.28 33.82,200.94 36.98,204.34 44.63,202.26 47.39,198.14 43.74,191.87 39.09,189.76 35.14,190.71 30.37,190.26 25.1,192.1" fill="none" stroke="#1e1e1e" stroke-width="1.43" stroke-linecap="round" stroke-linejoin="round"/>
<polyline points="685.93,1346.81 688.22,1343.28 692.13,1341.81 691.53,1346.98 687.24,1347.81 685.93,1346.81" fill="none" stroke="#1e1e1e" stroke-width="1.43" stroke-linecap="round" stroke-linejoin="round"/>
<polyline points="689.96,1366.17 686.34,1365.56 683.05,1361.56 681.83,1357.61 683.94,1357.24 686.14,1360.38 690.34,1362.49 689.96,1366.17" fill="none" stroke="#1e1e1e" stroke-width="1.43" stroke-linecap="round" stroke-linejoin="round"/>
<polyline points="701.78,1377.62 700.57,1375.59 700.65,1373.75 703.07,1375.45 701.78,1377.62" fill="none" stroke="#1e1e1e" stroke-width="1.43" stroke-linecap="round" stroke-linejoin="round"/>
<polyline points="699.49,1371.43 694.35,1367.84 699.78,1367.4 702.04,1371.5 699.49,1371.43" fill="none" stroke="#1e1e1e" stroke-width="1.43" stroke-linecap="round" stroke-linejoin="round"/>
<polyline points="703.54,1380.67 702.86,1379.76 703.71,1378.03 703.54,1380.67" fill="none" stroke="#1e1e1e" stroke-width="1.43" stroke-linecap="round" stroke-linejoin="round"/>
<polyline points="703.07,1375.11 700.76,1373.3 702.38,1373.64 703.07,1375.11" fill="none" stroke="#1e1e1e" stroke-width="1.43" stroke-linecap="round" stroke-linejoin="round"/>
<polyline points="704.6,1381.77 705.83,1383.07 704.86,1383.76 704.6,1381.77" fill="none" stroke="#1e1e1e" stroke-width="1.43" stroke-linecap="round" stroke-linejoin="round"/>
<polyline points="701.81,1388.2 701.11,1386.03 703.63,1387.47 701.81,1388.2" fill="none" stroke="#1e1e1e" stroke-width="1.43" stroke-linecap="round" stroke-linejoin="round"/>
<polyline points="700.88,1393.95 698.53,1391.72 699.31,1390.11 700.88,1393.95" fill="none" stroke="#1e1e1e" stroke-width="1.43" stroke-linecap="round" stroke-linejoin="round"/>
<polyline points="697.75,1390.89 697.19,1388.52 698.49,1388.35 697.75,1390.89" fill="none" stroke="#1e1e1e" stroke-width="1.43" stroke-linecap="round" stroke-linejoin="round"/>
<polyline points="702.3,1396.13 702.98,1393.53 703.76,1396.25 702.3,1396.13" fill="none" stroke="#1e1e1e" stroke-width="1.43" stroke-linecap="round" stroke-linejoin="round"/>
<polyline points="728.2,1389.62 728.07,1388.65 731.16,1386.52 730.82,1388.2 728.2,1389.62" fill="none" stroke="#1e1e1e" stroke-width="1.43" stroke-linecap="round" stroke-linejoin="round"/>
<polyline points="713.99,1387.96 712.51,1386.93 714.8,1387.63 713.99,1387.96" fill="none" stroke="#1e1e1e" stroke-width="1.43" stroke-linecap="round" stroke-linejoin="round"/>
<polyline points="692.02,1408.88 691.9,1407.75 693.83,1407.67 693.02,1408.83 692.02,1408.88" fill="none" stroke="#1e1e1e" stroke-width="1.43" stroke-linecap="round" stroke-linejoin="round"/>
<polyline points="697.98,1413.67 700.93,1416.41 700.06,1418.47 697.26,1415.25 697.98,1413.67" fill="none" stroke="#1e1e1e" stroke-width="1.43" stroke-linecap="round" stroke-linejoin="round"/>
<polyline points="709.83,1423.54 711.72,1421.95 714.26,1422.77 709.83,1423.54" fill="none" stroke="#1e1e1e" stroke-width="1.43" stroke-linecap="round" stroke-linejoin="round"/>
<polyline points="721.94,1421.07 714.22,1419.38 719.06,1418.96 721.94,1421.07" fill="none" stroke="#1e1e1e" stroke-width="1.43" stroke-linecap="round" stroke-linejoin="round"/>
<polyline points="727.5,1425.42 721.25,1419.84 724.05,1420.1 727.09,1423.84 731.53,1423.73 731.92,1424.94 727.5,1425.42" fill="none" stroke="#1e1e1e" stroke-width="1.43" stroke-linecap="round" stroke-linejoin="round"/>
<polyline points="722.63,1424.06 719.68,1422.37 722.63,1424.06" fill="none" stroke="#1e1e1e" stroke-width="1.43" stroke-linecap="round" stroke-linejoin="round"/>
<polyline points="722.36,1422.33 723.3,1423.29 721.95,1421.61 723.4,1421.93 727.2,1425.65 730.34,1425.7 731.68,1428.02 729.55,1427.95 723.35,1424.89 721.47,1422.67 716.78,1421.15 722.36,1422.33" fill="none" stroke="#1e1e1e" stroke-width="1.43" stroke-linecap="round" stroke-linejoin="round"/>
<polyline points="585.27,1367.82 587.55,1366.34 585.27,1367.82" fill="none" stroke="#1e1e1e" stroke-width="1.43" stroke-linecap="round" stroke-linejoin="round"/>
<polyline points="582.25,1376.04 583.36,1374.52 584.54,1375.77 582.96,1376.63 582.25,1376.04" fill="none" stroke="#1e1e1e" stroke-width="1.43" stroke-linecap="round" stroke-linejoin="round"/>
<polyline points="386.53,775.2 383.66,775.98 382.65,779 380.54,775.52 371.37,775.5 372.2,773.2 379.72,765.39 381.93,760.13 384.39,757.56 385.62,759.17 383.97,760.28 383.79,765.11 382.26,766.38 386.74,766.29 385.3,768.13 387.81,770.51 386.53,775.2" fill="none" stroke="#1e1e1e" stroke-width="1.43" stroke-linecap="round" stroke-linejoin="round"/>
<polyline points="392.45,773.84 387.43,775.35 388.1,770.32 385.56,768.14 387.06,766.28 382.45,766.38 384.41,763.55 383.99,760.55 385.78,759.15 384.58,756.94 387.61,752.96 386.45,748.27 387.86,744.19 389.1,746.94 391.44,748.06 389.59,749.96 391.95,751.3 390.67,754.89 393.53,754.29 391.35,760.6 393.88,764.58 393.82,766.57 390.69,767.09 389.87,770.98 390.56,772.11 392.96,771.78 392.45,773.84" fill="none" stroke="#1e1e1e" stroke-width="1.43" stroke-linecap="round" stroke-linejoin="round"/>
<polyline points="390.86,771.81 390.9,767.27 393.62,767.28 394.12,764.51 397.13,765.03 395.39,769.28 390.86,771.81" fill="none" stroke="#1e1e1e" stroke-width="1.43" stroke-linecap="round" stroke-linejoin="round"/>
<polyline points="385.87,748.62 386.78,753.73 383.45,756.4 385.87,748.62" fill="none" stroke="#1e1e1e" stroke-width="1.43" stroke-linecap="round" stroke-linejoin="round"/>
<polyline points="76.53,485.31 73.99,483.67 75.15,481.2 74.01,478.67 76.22,476.64 74.04,478.3 73.95,479.72 71.64,476.62 72.92,473.4 77.02,473.81 80.72,480.24 80.91,484.69 79.73,484.98 77.42,481.36 77.09,479.08 78.93,484.76 76.53,485.31" fill="none" stroke="#1e1e1e" stroke-width="1.43" stroke-linecap="round" stroke-linejoin="round"/>
<polyline points="75.76,496.48 74.32,495.79 70.9,488.98 70.35,489.76 69.03,488.65 72.31,484.65 76.48,487.85 76.5,491.1 74.78,493.42 75.76,496.48" fill="none" stroke="#1e1e1e" stroke-width="1.43" stroke-linecap="round" stroke-linejoin="round"/>
<polyline points="64.89,470.8 68.33,467.99 69.62,472.66 66.35,472.09 64.89,470.8" fill="none" stroke="#1e1e1e" stroke-width="1.43" stroke-linecap="round" stroke-linejoin="round"/>
<polyline points="91.02,474.98 92.06,473.63 94.99,473.17 93.79,475.24 91.02,474.98" fill="none" stroke="#1e1e1e" stroke-width="1.43" stroke-linecap="round" stroke-linejoin="round"/>
<polyline points="370.45,779.12 372.91,777.35 380.43,776.54 381.48,778.52 381.1,781.46 382.94,784.19 384.85,790.06 385.04,788.5 383.1,785.41 383.11,782.56 381.85,782.06 381.46,779.98 383.49,779.1 384.17,776.15 388.9,776.04 390.85,780.48 390.07,784.46 391.13,780.45 389.35,776.03 392.09,774.79 398.08,780.93 399.1,785.39 389.41,795.9 385.17,796.88 381.85,796.99 381.43,796.01 377.93,796.59 368.05,790.52 366.23,790.53 368.46,783.04 369.71,783.15 370.17,785.16 371.3,785.61 372.18,785.08 372.5,783 374.92,783.97 374.81,781.9 376.39,782.79 378.28,781.37 378.94,782.58 378.23,781.2 376.32,782.64 374.64,781.77 374.77,783.86 372.63,782.73 371.87,785.1 370.77,785.28 370.06,783.12 368.93,782.33 370.45,779.12" fill="none" stroke="#1e1e1e" stroke-width="1.43" stroke-linecap="round" stroke-linejoin="round"/>
<polyline points="149.71,520.14 146.82,517.92 147.03,514.93 149.08,514.4 147.01,514.75 146.72,517.51 145.6,518.21 142.26,516.5 141.11,513.73 144.12,513.5 145.72,510.27 150.98,510.57 153,512.02 155.16,511.29 151.17,516.29 149.71,520.14" fill="none" stroke="#1e1e1e" stroke-width="1.43" stroke-linecap="round" stroke-linejoin="round"/>
<polyline points="37.31,472.12 38.03,470.83 39.18,470.55 38.98,472.14 37.31,472.12" fill="none" stroke="#1e1e1e" stroke-width="1.43" stroke-linecap="round" stroke-linejoin="round"/>
<polyline points="144.81,529.2 140.75,526.63 142.73,525.41 143.17,523.63 138.25,519.92 140,518.4 140.62,515.61 149.43,520.26 144.81,529.2" fill="none" stroke="#1e1e1e" stroke-width="1.43" stroke-linecap="round" stroke-linejoin="round"/>
<polyline points="144.47,529.88 138.5,539.08 138.35,543.48 131.62,546.13 126.14,552.99 120.4,556.47 118.61,551.67 118.31,544.85 122.87,543.62 126.23,540.88 130.28,543.33 133.84,542.62 134.71,540.37 131.33,534.02 134.63,530.94 135.62,525.71 140.5,522.55 142.8,524.31 140.36,526.98 144.47,529.88" fill="none" stroke="#1e1e1e" stroke-width="1.43" stroke-linecap="round" stroke-linejoin="round"/>
<polyline points="152.97,498.54 153.59,496.38 155.47,495.24 157.81,495.91 159.43,499.1 156.07,500.88 152.97,498.54" fill="none" stroke="#1e1e1e" stroke-width="1.43" stroke-linecap="round" stroke-linejoin="round"/>
<polyline points="156.75,510.11 152.89,511.41 151.24,510.03 146.15,509.73 144.34,508.36 144.13,503.86 142.78,501.24 137.47,499.47 138.2,493.38 140.91,493.12 144.69,490.48 149.71,493.94 154.01,500.22 161.08,504.99 156.75,510.11" fill="none" stroke="#1e1e1e" stroke-width="1.43" stroke-linecap="round" stroke-linejoin="round"/>
<polyline points="107.98,466.48 103.58,464.5 96.39,464.82 95.18,462.53 99.05,460.08 99.03,457 104.48,455.22 108.53,452.11 115.06,453.46 116.25,456.84 107.98,466.48" fill="none" stroke="#1e1e1e" stroke-width="1.43" stroke-linecap="round" stroke-linejoin="round"/>
<polyline points="96.39,453.65 94.65,448.93 101.53,445.89 103.59,445.94 108.33,451.01 104.16,454.56 99.25,456.14 98.14,454.19 96.39,453.65" fill="none" stroke="#1e1e1e" stroke-width="1.43" stroke-linecap="round" stroke-linejoin="round"/>
<polyline points="116.79,497.34 118.22,493.95 119.6,494.28 121.39,492.64 123.17,493.5 120.84,499.42 116.79,497.34" fill="none" stroke="#1e1e1e" stroke-width="1.43" stroke-linecap="round" stroke-linejoin="round"/>
<polyline points="94.31,456.91 97.25,454.94 98.78,459.89 95.39,460.66 94.31,456.91" fill="none" stroke="#1e1e1e" stroke-width="1.43" stroke-linecap="round" stroke-linejoin="round"/>
<polyline points="117.84,454.81 120.11,453.58 120.98,456.45 118.02,456.67 117.84,454.81" fill="none" stroke="#1e1e1e" stroke-width="1.43" stroke-linecap="round" stroke-linejoin="round"/>
<polyline points="92.77,456.22 89.55,452.49 89.01,450.31 90.51,447.8 93.99,447.39 95.39,454.16 92.77,456.22" fill="none" stroke="#1e1e1e" stroke-width="1.43" stroke-linecap="round" stroke-linejoin="round"/>
<polyline points="153.94,522.57 156.07,521.18 154.63,525.18 152.17,526.82 153.94,522.57" fill="none" stroke="#1e1e1e" stroke-width="1.43" stroke-linecap="round" stroke-linejoin="round"/>
<polyline points="156.78,519.53 153.39,522.54 153.96,519.74 158.24,515 156.78,519.53" fill="none" stroke="#1e1e1e" stroke-width="1.43" stroke-linecap="round" stroke-linejoin="round"/>
<polyline points="264.49,685.61 263.02,684.15 265.21,682.8 264.8,680.63 258.3,676.78 260.14,675.87 262.21,672.28 265.58,672.99 264.42,675.5 266.4,676.49 266.31,679.87 268.72,684.86 264.49,685.61" fill="none" stroke="#1e1e1e" stroke-width="1.43" stroke-linecap="round" stroke-linejoin="round"/>
<polyline points="364.63,778.36 360.93,777.97 360.34,773.22 378.04,763.74 374.81,768.44 367.13,772.53 364.63,778.36" fill="none" stroke="#1e1e1e" stroke-width="1.43" stroke-linecap="round" stroke-linejoin="round"/>
<polyline points="237.75,689.46 239.96,685.34 241.59,688.41 242.59,687.02 243.76,687.49 245.04,686.46 244.48,688.23 245.74,688.86 247.15,686.31 250.34,687.03 253.02,685.13 254.95,688.82 258.64,688.85 253.9,694.54 250.59,693.83 250.49,691.65 248.7,691.7 248.06,690.56 244.38,691.93 244.71,693.23 247.14,695.39 244.45,692.26 247.79,690.93 248.34,692 250.28,691.86 250.55,694.27 253.47,695.21 250.31,699.29 241.36,695.11 237.75,689.46" fill="none" stroke="#1e1e1e" stroke-width="1.43" stroke-linecap="round" stroke-linejoin="round"/>
<polyline points="222.12,674.93 223.54,672.56 222.18,668.09 223.17,667.25 224.31,669.77 227.5,670.4 227.37,672.29 230.16,674.19 229.78,677.18 229.31,676.39 227.78,676.64 229.72,677.34 230.39,676.25 232.47,678.68 235.03,676.99 235.53,678.17 236.09,676.9 236.19,678.86 237.68,677.66 238.79,679.73 236.2,684.07 234.36,683.96 226.28,679.37 222.12,674.93" fill="none" stroke="#1e1e1e" stroke-width="1.43" stroke-linecap="round" stroke-linejoin="round"/>
<polyline points="227.46,672.22 229.67,668.05 230.9,669.81 233.93,669.34 232.67,670.56 234.08,671.53 236.78,669.42 238.99,671.25 239.01,673.61 243.49,675.9 243.3,676.93 239.36,678.6 236.65,676.83 236.68,674.24 234.75,674.86 235.56,673.41 233.86,673.85 234.5,674.77 232.4,675.19 231.84,674.54 232.42,675.26 236.72,674.75 236.37,676.8 232.41,678.54 230.25,674.13 227.46,672.22" fill="none" stroke="#1e1e1e" stroke-width="1.43" stroke-linecap="round" stroke-linejoin="round"/>
<polyline points="270.02,683.33 267.15,678.51 267.36,676.06 268.95,675.2 282.23,681.83 282.21,682.77 280.47,682.44 279.5,683.84 276.13,682.85 275.37,681.31 274.6,683.74 270.02,683.33" fill="none" stroke="#1e1e1e" stroke-width="1.43" stroke-linecap="round" stroke-linejoin="round"/>
<polyline points="246.12,674.89 245.27,671.74 249.8,671.64 250.4,666.58 252.24,665.54 253.09,668.76 249.7,672.56 252.62,679.33 249.43,679.72 244.64,677.23 244.39,675.7 246.12,674.89" fill="none" stroke="#1e1e1e" stroke-width="1.43" stroke-linecap="round" stroke-linejoin="round"/>
<polyline points="257.06,696.71 258.24,697.64 260,697.08 261.1,700.58 262.62,699.97 263.96,697.34 268.29,701.03 269.16,699.91 267.95,698.67 268.52,697.34 270.6,697.36 271.8,701 270.76,702.29 269.42,701.96 270.87,702.37 271.6,701.21 272.36,703.12 271.05,704.7 267.54,702.44 270.49,704.8 268.95,707.6 270.54,709.76 267.34,710.77 267.52,713.17 262.37,710.72 254.2,702.51 253.45,700.8 257.06,696.71" fill="none" stroke="#1e1e1e" stroke-width="1.43" stroke-linecap="round" stroke-linejoin="round"/>
<polyline points="255.72,676.63 257.75,676.5 263.66,680.01 264.95,682.17 262.34,683.96 263.29,685.76 259.48,687.77 255.06,688.26 254.07,685.47 255.16,683.71 250.47,686.81 247.17,686.08 245.77,688.63 244.64,688.07 244.88,686.12 241.29,688.02 239.91,685.02 242.56,678.98 251.71,680.94 253.87,678.2 252.23,674.25 253.97,674.53 255.72,676.63" fill="none" stroke="#1e1e1e" stroke-width="1.43" stroke-linecap="round" stroke-linejoin="round"/>
<polyline points="257.57,696.27 262.5,690.09 268.06,687.87 270.33,685.6 268.24,688.64 268.06,693.05 272.24,695.28 274.73,694.98 273.57,697.8 271.78,696.72 270.78,697.88 270.22,696.86 268.68,697 267.78,698.45 269.02,699.81 268.4,700.89 263.95,697.08 262.43,699.76 260.93,700.19 260.27,696.91 257.57,696.27" fill="none" stroke="#1e1e1e" stroke-width="1.43" stroke-linecap="round" stroke-linejoin="round"/>
<polyline points="456.62,922.23 455.23,924.82 451.94,924.98 452.18,922.1 456.62,922.23" fill="none" stroke="#1e1e1e" stroke-width="1.43" stroke-linecap="round" stroke-linejoin="round"/>
<polyline points="512.9,1023.64 505.15,1027.01 502.04,1023.72 502.56,1021.21 505.35,1017.76 512.9,1023.64" fill="none" stroke="#1e1e1e" stroke-width="1.43" stroke-linecap="round" stroke-linejoin="round"/>
<polyline points="543.56,1112.7 548.6,1113.7 548.05,1116.09 549.45,1118.17 541.7,1120.83 541.27,1113.61 543.56,1112.7" fill="none" stroke="#1e1e1e" stroke-width="1.43" stroke-linecap="round" stroke-linejoin="round"/>
<polyline points="70.83,506.29 67.17,508.76 63.67,507.71 63.73,504.97 64.86,505.56 66.02,504.82 64.87,505.47 64.45,504.46 62.75,505.25 60.52,503.14 59.13,497.61 62.45,499.86 64.04,498.89 64.48,499.79 64.03,497.58 62.53,499.71 60.26,498.21 59.13,497.17 58.6,493.55 64.49,487.8 67.8,480.69 69.14,479.61 70.34,480.67 69.82,479.73 70.71,479.41 71.87,480.49 72.06,483.62 68.61,486.89 68.33,489.01 66.96,488.97 65.2,490.25 64.48,491.98 64.96,493.01 65.94,492.85 64.51,492.06 65.16,490.36 66.59,489.88 67.31,490.78 66.53,491.5 67.31,491.69 66.54,491.46 67.34,490.87 66.74,489.44 68.15,489.13 72.47,492.74 71.81,497.8 73.52,500.14 70.77,502.65 70.83,506.29" fill="none" stroke="#1e1e1e" stroke-width="1.43" stroke-linecap="round" stroke-linejoin="round"/>
<polyline points="37.63,481.35 38.74,480.42 37.69,481.31 37.05,480.29 38.84,479.13 35.8,479.05 35.03,480.36 35.27,478.4 39.56,474.86 40.81,470.61 45.23,468.55 46.43,469.94 45.11,472.11 46.58,473.81 45.25,471.96 46.57,469.9 45.4,468.35 50.36,466.51 51.88,468.71 49.95,469.11 49.83,471.59 46.94,472.81 48.3,474.41 46.95,472.86 48.1,472.43 49.05,473.31 48.17,472.35 49.99,471.61 49.86,469.42 52.01,468.7 50.58,466.22 53.42,464.26 56.32,465.35 56.28,466.38 53.98,473.49 53.11,474.68 52.1,474.69 53.16,474.71 54.08,473.48 56.81,465.68 61.67,470.06 61.08,472.66 63.05,472.89 61.91,475.25 60.62,474.9 62.32,476.36 62.24,477.28 62.14,476.55 61.46,476.76 61.7,478.06 61.5,476.71 62.22,477.32 62.46,476.4 61.76,475.57 63.31,473.55 62.67,472.35 61.19,472.49 61.88,470.23 67.64,476.59 67.16,479.47 62.5,486.08 59.58,484.33 57.57,480.4 59.43,478.52 58.59,478.3 58.88,479.38 57.46,480.33 55.1,479.49 55.9,476.96 57.42,476.4 59.01,474.39 57.02,474.11 58.03,474.73 57.6,476.09 55.85,476.85 53.77,480.39 52.61,480.39 51.56,477.37 49.33,476.24 46.37,476.5 45.65,477.7 47.33,476.68 48.03,476.87 47.72,477.65 45.61,478.47 47.63,477.24 48.2,478.08 47.73,477.24 49.17,476.34 51.22,477.37 51.78,479.7 50.61,479.88 50.76,481.33 48.96,482.21 49.15,480.74 47.54,480.29 49.1,480.77 48.84,482.25 51.08,481.19 50.87,479.87 52.96,480.9 55.98,480.04 57.83,481.15 59.38,484.64 62.23,486.45 58.1,490.81 55.73,495.22 55.51,499.86 58.04,511.57 53.48,518.9 45.98,518.53 37.53,516.05 23.08,496.74 21.77,489.18" fill="none" stroke="#1e1e1e" stroke-width="1.43" stroke-linecap="round" stroke-linejoin="round"/>
<polyline points="21.77,489.11 24.35,486.55 22.95,487.96 23.13,489.98 23.43,487.94 27.53,482.82 27.5,484.7 28.03,485.59 28.79,485.21 28.4,485.79 29.24,486.41 28.66,486.82 29.36,487.97 28.06,490.18 28.83,489.73 29.2,485.79 27.55,484.64 27.6,482.65 32.67,478.34 35.08,478.52 34.66,480.52 36.01,481.4 34.68,481.36 34.29,482.92 34.36,482.26 35.46,482.93 34.78,481.33 36.02,481.55 35.73,479.21 38.7,479.14 36.98,480.26 37.63,481.35" fill="none" stroke="#1e1e1e" stroke-width="1.43" stroke-linecap="round" stroke-linejoin="round"/>
<polyline points="140.55,558.52 141.67,559.14 141.74,557.65 143.27,557.98 142.45,559.29 144.16,559.99 143.58,560.74 144.34,560.26 142.59,559.24 143.47,557.93 141.68,557.51 141.5,558.98 140.48,557.63 141.45,555.48 140.88,553.83 141.9,553.12 141.94,554.38 144.1,554.47 146.81,556.48 149.12,555.79 150.63,558.5 147.68,563.3 148.91,566.54 143.11,567.19 140.82,563.95 140.55,558.52" fill="none" stroke="#1e1e1e" stroke-width="1.43" stroke-linecap="round" stroke-linejoin="round"/>
<polyline points="545.06,1353.01 547.31,1351.75 548.89,1351.82 546.63,1353.13 545.06,1353.01" fill="none" stroke="#1e1e1e" stroke-width="1.43" stroke-linecap="round" stroke-linejoin="round"/>
<polyline points="567.01,1378.65 563.58,1375.12 565.13,1374.64 565.27,1376.14 566.5,1374.25 571.49,1375.53 572.75,1378.18 571.07,1379.47 567.01,1378.65" fill="none" stroke="#1e1e1e" stroke-width="1.43" stroke-linecap="round" stroke-linejoin="round"/>
<polyline points="702.95,1391.43 702.6,1388.69 704.72,1387.73 707.08,1388.76 706.78,1391.99 704.99,1393.93 702.95,1391.43" fill="none" stroke="#1e1e1e" stroke-width="1.43" stroke-linecap="round" stroke-linejoin="round"/>
</svg>
