<?xml version="1.0" encoding="UTF-8" standalone="no"?>
<svg xmlns="http://www.w3.org/2000/svg" width="1343" height="2000" viewBox="0 0 1343 2000">
<rect width="1343" height="2000" fill="#ffffff"/>
<path d="M1151.37,713.32L1152.72,718.68L1151.93,724.31L1147.43,736.93L1143.98,742.84L1143.2,752.49L1140.02,759.47L1140.03,761.62L1141.91,766.71L1145.38,770.18L1146.19,772.6L1144.08,783.06L1145.69,786L1143.59,797L1136.15,811.77L1133.23,815.8L1126.04,824.13L1120.98,827.9L1117.79,832.47L1116.73,835.69L1117.54,840.24L1117.3,850.43L1115.97,854.99L1113.85,857.68L1101.85,866.02L1098.13,873L1098.94,875.68L1101.34,877.02L1106.41,875.93L1111.48,873.77L1112.03,878.6L1109.64,885.58L1109.92,891.21L1111,895.49L1115.29,900.31L1119.56,901.1L1121.69,899.49L1121.68,896.81L1117.66,890.65L1118.73,887.7L1121.93,886.08L1129.15,890.35L1131.02,893.03L1131.3,896.52L1132.91,900.53L1140.14,908.29L1140.69,913.65L1140.16,915.8L1137.76,917.95L1132.42,919.3L1132.16,922.52L1130.03,923.87L1128.43,923.87L1126.81,916.37L1122.79,911.02L1120.92,909.68L1113.97,909.43L1109.44,913.46L1108.65,918.29L1109.46,921.24L1103.62,933.32L1102.55,936.54L1102.3,942.44L1105.78,945.92L1110.06,947.25L1111.67,948.85L1113.01,952.6L1111.68,955.82L1108.48,955.83L1105.79,951.01L1101.52,950.22L1099.12,951.03L1098.32,954.78L1095.39,956.13L1088.18,955.34L1084.17,957.76L1079.91,962.06L1076.71,962.34L1070.03,961.01L1062.28,962.64L1053.2,961.05L1050.79,957.3L1046.78,956.24L1043.57,957.05L1042.24,958.39L1042.51,959.19L1027.02,962.44L1023.82,962.18L1010.45,957.11L1005.65,957.39L990.17,968.95L987.78,972.17L988.32,976.73L987.79,978.07L984.58,980.49L982.18,981.56L978.71,981.57L968.82,978.9L965.88,978.91L964.82,979.71L958.68,988.3L946.42,1002.27L942.69,1009.51L942.16,1012.73L943.5,1018.63L951.52,1021.56L953.4,1023.44L956.62,1034.69L961.44,1042.73L964.12,1045.68L965.73,1051.3L964.94,1055.86L962.81,1061.23L955.35,1074.65L943.37,1108.18L935.63,1117.04L933.5,1120.53L932.97,1123.48L933.51,1126.97L936.46,1135.01L936.2,1143.59L934.88,1151.36L932.48,1154.59L926.87,1158.08L919.12,1166.94L911.64,1172.31L904.97,1181.97L903.64,1186L905.25,1195.11L908.47,1203.15L909.82,1209.05L910.11,1226.48L911.18,1229.16L918.42,1238.27L934.22,1250.05L937.97,1253.79L947.09,1268.26L955.94,1279.78L962.92,1296.66L964.02,1311.68L966.7,1318.38L973.13,1322.93L988.4,1329.61L994.03,1333.08L996.98,1337.1L1000.48,1346.75L1002.62,1348.35L1011.46,1352.09L1014.95,1356.11L1016.03,1362.28L1020.33,1373L1019,1377.02L1012.6,1389.1L1012.34,1392.32L1013.95,1396.07L1017.44,1399.82L1024.95,1403.56L1030.57,1404.89L1035.39,1404.08L1042.08,1404.33L1043.42,1403.79L1046.89,1399.76L1051.18,1398.68L1056.81,1402.43L1059.49,1403.22L1062.44,1405.9L1064.04,1405.9L1068.05,1402.67L1075.55,1400.78L1077.67,1393.8L1086.79,1399.41L1094.82,1400.46L1097.77,1400.19L1100.44,1398.84L1102.58,1397.49L1106.85,1392.39L1109.53,1392.38L1110.61,1395.06L1110.62,1400.16L1113.04,1403.1L1116,1409.53L1116,1411.14L1113.87,1414.63L1114.68,1418.92L1111.74,1421.61L1112.29,1424.83L1114.98,1431.26L1113.15,1449.51L1116.64,1451.37L1117.18,1452.71L1115.04,1456.21L1114.51,1458.89L1115.05,1460.23L1117.2,1461.83L1120.15,1461.83L1124.42,1458.6L1125.76,1458.06L1127.1,1458.59L1127.38,1461.54L1124.71,1465.84L1123.65,1470.13L1124.73,1472.81L1131.7,1476.02L1133.31,1477.62L1134.39,1480.03L1134.4,1483.79L1136.02,1489.42L1135.22,1490.76L1133.88,1490.23L1130.66,1490.77L1129.86,1491.85L1130.14,1494.53L1132.02,1498.01L1129.35,1502.31L1129.9,1506.87L1130.44,1508.21L1131.78,1508.74L1139.82,1507.65L1141.7,1509.26L1141.17,1512.48L1139.03,1515.7L1133.15,1519.2L1131.01,1522.43L1132.36,1526.45L1135.86,1531.54L1135.33,1535.83L1135.87,1537.17L1139.9,1540.65L1140.72,1545.21L1142.06,1545.74L1146.34,1544.39L1151.16,1541.69L1154.37,1541.68L1156.79,1543.02L1157.6,1544.09L1157.33,1545.43L1154.12,1547.86L1151.99,1552.96L1152.54,1555.91L1154.15,1557.78L1159.5,1555.89L1164.6,1556.15L1167.01,1557.48L1166.75,1560.43L1163.55,1564.47L1164.09,1568.76L1169.2,1573.04L1173.77,1580L1175.13,1584.29L1174.07,1590.73L1175.15,1593.41L1177.57,1594.21L1181.31,1592.32L1184.53,1592.31L1186.41,1594.19L1185.62,1597.14L1184.01,1599.29L1183.49,1602.51L1184.03,1605.73L1185.11,1608.14L1190.22,1612.15L1192.1,1615.64L1191.6,1626.64L1192.14,1627.98L1192.94,1629.05L1195.63,1629.58L1202.32,1625.27L1204.73,1626.33L1204.74,1629.55L1202.61,1634.93L1202.62,1638.15L1205.59,1644.58L1208.28,1645.64L1210.16,1647.52L1208.57,1654.77L1208.85,1657.99L1211.54,1660.93L1218.79,1664.4L1220.94,1666.27L1222.02,1668.42L1222.84,1675.39L1221.79,1681.84L1222.6,1684.79L1224.49,1686.66L1231.73,1688.25L1238.18,1693.06L1239.3,1706.21L1240.65,1710.5L1254.39,1729.78L1261.66,1737.27L1267.32,1744.5L1274.6,1757.36L1302.77,1756.73L1308.95,1757.78L1315.94,1762.05L1320.79,1768.21L1322.94,1769.81L1328.85,1771.13L1331,1772.47L1334.24,1777.83L1330.48,1776.5L1327,1780.81L1321.11,1782.44L1319.24,1784.32L1313.34,1787.03L1310.92,1786.5L1309.59,1788.12L1304.5,1789.48L1300.18,1784.12L1299.64,1781.44L1296.96,1781.99L1293.46,1778.78L1291.05,1779.86L1288.1,1782.82L1285.96,1782.83L1285.43,1786.59L1279.53,1787.68L1277.92,1785.54L1277.12,1787.96L1270.94,1784.76L1266.64,1784.24L1265.04,1786.39L1262.89,1786.66L1262.1,1788.81L1258.88,1790.44L1257.82,1793.12L1254.87,1794.48L1254.07,1797.7L1252.47,1799.59L1248.45,1800.94L1248.73,1803.62L1246.04,1803.9L1246.57,1801.75L1245.23,1800.41L1245.76,1798.53L1239.85,1796.94L1239.58,1795.87L1237.7,1796.14L1237.16,1794.26L1235.28,1794.54L1233.13,1793.2L1230.45,1794.28L1229.38,1793.75L1229.64,1792.68L1228.03,1792.14L1227.5,1793.22L1222.13,1792.16L1221.05,1790.82L1220.51,1791.63L1216.75,1788.69L1217.01,1787.34L1213.24,1783.33L1205.2,1786.31L1204.93,1785.23L1202.78,1784.97L1200.37,1786.86L1199.58,1789.81L1198.24,1790.62L1196.36,1789.55L1191.53,1789.57L1189.37,1786.89L1188.03,1787.43L1185.34,1783.95L1185.06,1780.73L1183.18,1778.85L1179.15,1777.25L1177.27,1777.53L1176.73,1776.19L1174.59,1776.46L1172.7,1772.97L1172.68,1765.46L1172.14,1764.12L1169.45,1762.51L1169.71,1759.56L1168.36,1757.68L1165.95,1759.84L1161.65,1756.63L1160.31,1757.17L1160.59,1760.66L1159.52,1762L1153.89,1764.43L1152.29,1767.66L1147.73,1766.06L1143.71,1767.41L1142.64,1770.1L1138.08,1770.38L1134.07,1775.22L1130.32,1777.11L1130.33,1781.41L1123.34,1778.21L1123.07,1775.25L1121.46,1774.99L1118.5,1771.77L1119.83,1770.16L1119.56,1769.09L1117.42,1769.36L1109.36,1765.62L1107.76,1770.99L1103.47,1770.2L1101.06,1771.55L1098.91,1770.21L1096.23,1772.9L1096.77,1775.32L1092.75,1776.67L1093.02,1777.74L1095.98,1779.08L1093.04,1785.26L1090.89,1785.8L1088.48,1784.46L1084.99,1785.81L1083.65,1788.23L1075.61,1790.13L1075.89,1794.16L1074.82,1796.84L1076.7,1798.72L1075.9,1800.06L1075.91,1803.02L1072.43,1807.59L1074.31,1811.34L1072.44,1812.69L1071.37,1815.38L1070.57,1815.65L1070.84,1816.99L1064.67,1819.69L1064.13,1818.88L1063.6,1819.96L1061.72,1818.62L1061.18,1820.5L1059.31,1820.51L1057.16,1822.39L1058.51,1827.49L1057.18,1829.91L1055.3,1830.18L1053.7,1832.87L1053.17,1836.9L1053.98,1839.31L1052.64,1839.85L1050.75,1837.98L1049.15,1839.86L1046.73,1840.13L1048.62,1843.35L1047.55,1845.5L1044.33,1845.24L1043.53,1847.66L1040.3,1846.59L1038.16,1848.48L1037.09,1848.21L1037.35,1844.72L1035.73,1843.92L1035.2,1844.99L1031.44,1845.54L1029.57,1847.42L1025.81,1846.62L1025,1845.55L1023.12,1846.09L1022.05,1847.97L1017.5,1850.4L1015.88,1848.25L1014.54,1848.52L1012.12,1845.57L1011.58,1842.62L1010.77,1843.96L1007.55,1843.97L1004.6,1841.83L1004.86,1839.95L1002.71,1837.27L1000.83,1837.81L1001.91,1839.95L1001.37,1840.76L999.23,1841.57L999.76,1839.96L998.69,1839.42L995.74,1840.5L991.98,1839.43L988.49,1840.51L987.95,1839.44L986.07,1839.44L984.19,1837.57L982.58,1840.52L979.36,1838.38L978.03,1844.83L976.15,1845.1L978.3,1848.05L977.23,1849.66L974.81,1848.86L971.86,1849.94L967.57,1849.14L966.49,1849.95L965.42,1848.61L964.62,1850.76L963.01,1851.57L963.28,1854.25L956.56,1851.04L956.57,1853.19L954.42,1853.73L953.35,1852.66L951.74,1852.66L949.86,1854.27L949.06,1857.5L946.65,1859.65L943.16,1860.46L934.56,1858.86L934.83,1858.05L933.76,1857.25L931.61,1858.06L929.19,1857.53L928.66,1856.72L926.24,1856.99L926.24,1858.87L923.02,1859.41L922.76,1860.22L928.93,1863.7L928.4,1867.73L927.6,1868L928.68,1873.64L927.88,1876.33L929.23,1879.82L928.15,1881.7L926.28,1881.43L926.55,1882.77L925.21,1885.19L926.55,1886.53L926.28,1888.41L924.94,1888.95L923.34,1891.91L923.61,1893.79L922,1894.87L922.54,1898.62L917.17,1896.48L916.36,1897.02L912.6,1893.8L907.23,1892.74L906.16,1893.54L905.09,1897.57L900.79,1897.31L900.52,1895.43L897.3,1895.7L893.81,1899.2L888.98,1899.74L883.34,1896.79L884.41,1895.45L881.99,1891.42L882.25,1887.93L881.45,1887.67L880.37,1883.37L874.19,1882.03L871.77,1880.16L870.7,1881.5L866.41,1882.04L860.24,1886.88L858.89,1885L855.4,1882.86L854.59,1880.98L853.25,1880.44L850.57,1881.52L846.27,1880.18L844.93,1882.33L838.49,1881.26L839.29,1874.28L837.14,1873.48L834.45,1875.09L833.11,1877.78L830.97,1879.12L831.51,1881.54L826.94,1883.42L827.22,1887.18L826.14,1889.33L818.9,1890.14L817.55,1892.29L817.82,1894.17L820.51,1896.59L818.36,1897.93L818.9,1900.62L820.25,1902.5L822.4,1902.76L823.74,1904.37L819.98,1907.6L815.15,1907.6L812.73,1906.8L805.75,1909.22L804.41,1911.37L803.34,1911.37L799.58,1908.69L796.63,1910.04L792.6,1909.77L791.25,1908.16L786.96,1909.51L787.23,1914.34L788.84,1914.88L789.92,1918.37L788.58,1919.71L788.85,1922.4L787.77,1923.74L788.04,1925.62L794.76,1929.11L795.03,1929.91L793.42,1930.45L797.45,1934.21L798.79,1933.13L800.67,1934.21L796.38,1940.39L797.19,1948.18L795.85,1951.13L793.97,1953.29L790.75,1954.63L790.48,1961.88L788.33,1961.62L788.33,1960.54L785.92,1959.2L784.04,1962.43L784.31,1964.57L783.23,1964.58L782.16,1961.35L781.35,1961.08L779.74,1962.43L779.2,1961.89L778.66,1956.52L776.78,1955.45L773.29,1955.98L771.95,1954.64L770.61,1957.06L768.46,1957.87L768.46,1960.02L766.58,1963.51L765.77,1961.36L760.4,1960.29L758.52,1957.87L754.76,1956.26L752.07,1957.34L748.31,1956.53L745.36,1958.95L742.14,1957.34L741.06,1954.39L737.03,1954.12L733,1956L733,1957.88L730.05,1965.41L730.05,1968.09L731.67,1969.97L724.95,1980.18L722,1978.04L718.51,1980.99L716.9,1983.95L715.28,1984.22L714.48,1982.61L710.99,1982.87L708.84,1986.37L708.03,1986.64L707.23,1985.29L703.2,1987.98L702.12,1987.98L702.39,1984.76L701.59,1983.68L700.24,1983.41L696.48,1985.03L694.33,1984.76L692.99,1979.12L690.84,1979.39L688.69,1974.01L686.81,1972.4L683.32,1972.94L678.75,1969.71L680.9,1968.91L680.9,1966.49L685.74,1963.8L682.51,1958.7L677.14,1957.36L676.07,1956.01L675.8,1954.94L677.95,1951.71L677.95,1949.57L677.14,1948.76L664.25,1949.83L661.03,1952.79L658.07,1946.61L657,1946.07L655.12,1946.88L651.63,1946.88L648.94,1945L642.23,1947.15L641.15,1946.61L639.81,1943.92L637.39,1943.65L636.32,1945.26L634.71,1945L631.75,1942.85L631.22,1940.7L629.34,1941.23L627.73,1940.16L623.43,1941.77L619.94,1939.08L615.91,1940.69L614.3,1940.15L611.88,1937.47L609.2,1938L604.9,1933.17L602.48,1932.09L600.34,1932.63L599.53,1933.97L594.43,1932.36L592.55,1929.94L587.18,1929.4L585.57,1927.25L582.88,1926.17L582.08,1924.56L579.39,1923.49L581.54,1921.61L578.86,1916.5L577.79,1915.96L577.79,1914.35L578.86,1913.01L574.03,1908.71L571.88,1908.71L570.81,1910.05L567.32,1909.24L567.32,1906.56L568.93,1904.41L565.98,1897.96L566.79,1895.81L564.11,1894.47L559,1894.73L559,1896.61L557.93,1898.49L557.39,1896.88L552.83,1897.69L553.63,1893.93L552.02,1893.39L552.03,1891.78L549.34,1889.63L548.81,1884.52L544.51,1885.59L541.83,1884.52L539.41,1881.56L540.49,1876.19L537.81,1874.31L535.13,1867.32L530.3,1867.86L525.47,1865.44L523.86,1861.41L522.52,1860.33L522.79,1852.81L520.91,1852.01L519.04,1852.54L519.03,1854.42L517.96,1854.15L517.43,1850.93L513.94,1847.97L513.94,1845.02L511.8,1843.41L512.07,1841.26L510.46,1839.64L508.85,1839.91L507.51,1838.03L505.89,1839.37L503.21,1836.15L498.38,1837.22L497.57,1838.56L492.21,1839.63L489.52,1841.5L486.3,1838.28L485.5,1834.79L479.86,1834.24L477.45,1835.85L476.38,1831.02L469.94,1830.47L471.28,1825.91L470.48,1824.57L471.29,1821.61L473.17,1821.35L472.37,1819.74L473.17,1817.05L476.93,1815.18L478.01,1815.98L479.62,1814.37L478.55,1812.23L480.97,1807.13L477.48,1802.02L477.22,1799.87L475.6,1802.56L476.67,1805.78L473.45,1808.46L472.65,1806.58L469.7,1804.43L464.6,1804.15L461.91,1805.49L454.94,1804.95L453.6,1803.07L453.06,1800.92L454.95,1797.7L451.47,1791.79L452.81,1788.84L452.28,1786.15L455.23,1784.28L454.97,1781.05L456.58,1778.91L456.31,1776.49L457.39,1774.35L456.32,1771.93L457.39,1769.78L458.2,1769.78L457.94,1764.68L459.01,1762.53L457.94,1761.73L458.48,1760.65L461.43,1759.05L461.7,1757.97L461.7,1757.44L459.29,1757.17L458.49,1752.6L457.42,1751.53L457.69,1750.45L455.81,1746.96L457.7,1741.33L461.19,1738.91L461.46,1737.04L461.46,1733.81L460.93,1732.47L459.59,1731.93L460.66,1730.06L459.05,1727.37L456.64,1725.76L457.18,1723.07L456.11,1721.73L456.38,1719.58L457.46,1718.24L456.65,1716.63L457.99,1716.09L457.46,1714.48L459.34,1712.34L460.42,1709.39L459.08,1704.55L459.62,1702.68L462.03,1701.6L461.23,1699.46L461.77,1698.38L459.63,1694.09L461.24,1691.14L458.83,1688.45L457.49,1688.45L456.42,1686.57L453.74,1687.91L448.11,1686.02L445.96,1688.43L444.08,1688.97L443.81,1687.89L441.4,1686.55L440.6,1685.21L439.26,1684.94L438.99,1682.79L436.05,1681.17L435.78,1679.83L434.17,1679.83L433.1,1678.76L432.83,1676.88L429.08,1679.29L428.81,1676.6L426.67,1676.6L425.86,1674.45L422.11,1671.49L421.85,1668.81L420.51,1668.27L418.63,1670.42L416.49,1669.61L415.42,1668L414.34,1668.26L413.81,1665.58L412.47,1664.23L411.4,1660.21L411.94,1658.6L414.63,1656.19L414.9,1654.58L414.1,1652.7L414.63,1651.09L415.97,1651.36L413.57,1647.86L415.18,1643.57L415.45,1640.62L413.58,1638.47L414.66,1636.06L410.37,1632.3L409.84,1629.61L408.5,1629.07L407.97,1625.58L409.04,1623.97L403.69,1616.99L403.69,1615.92L406.11,1612.43L404.5,1611.62L402.63,1608.4L397.54,1606.25L394.86,1606.24L394.33,1605.44L395.94,1601.68L398.08,1601.95L398.35,1601.15L397.01,1600.34L396.48,1597.12L393.01,1592.82L394.62,1589.34L393.82,1587.19L394.36,1586.39L392.75,1584.24L390.34,1583.16L389.27,1581.01L390.08,1578.87L389.02,1567.86L390.64,1565.45L390.64,1563.57L389.3,1560.62L389.05,1554.18L390.66,1549.62L389.33,1541.03L389.6,1538.89L391.22,1536.48L390.69,1533.26L391.76,1532.18L391.23,1529.77L389.89,1528.43L393.11,1524.67L393.11,1522.8L390.97,1521.45L391.78,1518.5L391.52,1515.55L396.62,1509.92L397.69,1509.93L398.22,1508.85L396.62,1506.71L399.58,1499.2L401.46,1497.32L400.92,1495.44L397.45,1492.76L398.52,1488.47L400.4,1485.52L400.41,1481.23L399.08,1477.74L399.35,1474.79L403.64,1473.18L404.17,1472.38L403.37,1471.3L403.64,1469.96L406.06,1467.28L407.66,1467.82L408.2,1464.34L409.27,1464.07L410.07,1467.29L411.95,1466.49L411.69,1463.27L410.35,1462.46L409.28,1463L409.01,1461.12L409.82,1459.24L411.96,1459.51L412.23,1458.71L411.43,1457.37L408.48,1457.9L408.48,1456.83L412.77,1456.83L414.11,1455.76L410.64,1445.83L411.99,1439.93L413.33,1438.86L417.34,1439.14L420.83,1436.73L421.1,1435.39L417.35,1432.16L419.77,1431.09L418.97,1427.87L421.38,1424.39L421.92,1421.97L425.4,1421.98L427.28,1417.42L426.75,1415.81L427.82,1414.47L429.7,1413.94L429.7,1410.99L431.04,1410.72L433.45,1408.04L432.12,1401.87L434.8,1401.07L438.01,1402.42L439.62,1401.08L439.89,1397.59L438.29,1396.25L435.09,1386.05L435.36,1384.98L437.23,1384.18L437.5,1382.03L435.1,1381.76L433.22,1383.37L431.61,1383.63L429.74,1382.56L429.74,1381.75L430.55,1378L432.69,1375.59L434.57,1370.49L438.32,1370.77L436.99,1368.35L434.31,1369.15L433.77,1367.81L440.2,1365.14L440.21,1361.38L436.47,1357.09L434.86,1356.28L432.18,1356.81L431.38,1356.01L428.98,1351.18L429.78,1348.76L422.29,1346.88L421.49,1345.53L425.24,1343.66L423.1,1341.78L425.24,1341.25L426.05,1338.57L427.12,1337.76L427.39,1334.81L431.68,1334.02L435.43,1332.14L436.76,1333.22L436.5,1330.8L437.3,1330.54L438.11,1331.34L441.85,1330.81L444.26,1331.35L447.48,1329.21L450.15,1328.94L450.69,1328.41L449.62,1327.6L452.03,1326.8L453.64,1321.98L457.12,1319.57L462.21,1318.5L462.75,1316.09L465.43,1314.21L466.5,1312.07L469.71,1312.34L471.05,1309.39L473.19,1310.2L476.4,1308.32L477.75,1304.57L475.34,1302.15L476.41,1300.55L477.48,1300.55L477.48,1299.74L474.54,1296.79L475.08,1294.65L473.21,1294.11L475.35,1292.23L476.96,1287.41L481.78,1285.8L483.92,1286.61L486.6,1282.59L487.67,1283.39L485.8,1285L486.86,1286.61L488.2,1284.74L489.81,1284.74L491.15,1281.79L492.22,1281.25L493.56,1283.4L495.7,1283.94L496.24,1279.92L494.9,1279.11L495.43,1278.31L496.5,1278.58L498.38,1276.16L499.18,1276.17L499.98,1278.31L500.79,1277.78L500.79,1273.75L498.38,1273.22L498.65,1271.34L497.58,1268.39L498.66,1267.58L498.39,1266.78L497.05,1266.78L496.52,1265.97L497.32,1265.17L496.52,1259.54L497.59,1258.47L498.93,1258.73L500.27,1257.93L501.07,1258.47L500.81,1254.98L501.61,1257.13L503.48,1257.93L504.02,1250.96L505.09,1249.89L508.57,1250.7L510.98,1248.82L510.18,1247.48L511.25,1246.95L514.19,1249.09L515.26,1246.95L514.46,1245.07L517.41,1243.47L515.53,1242.12L516.34,1240.78L514.2,1237.03L510.46,1236.49L509.39,1234.34L506.71,1234.34L503.77,1236.75L503.77,1238.09L502.43,1236.75L498.95,1237.01L498.42,1235.4L502.43,1232.19L500.57,1228.97L498.69,1228.16L498.42,1230.58L495.48,1228.43L497.09,1226.29L495.76,1223.87L493.88,1226.55L492.81,1226.82L491.21,1223.87L493.88,1224.94L494.42,1220.92L489.34,1218.23L489.88,1214.75L489.08,1214.21L486.94,1214.74L483.2,1210.72L480.25,1210.18L484.54,1203.48L489.37,1193.03L482.95,1189.8L477.33,1190.06L471.99,1189.25L467.44,1185.76L463.17,1183.88L461.3,1180.93L459.69,1180.12L460.77,1177.71L458.1,1172.35L458.64,1167.25L457.57,1166.45L458.64,1164.03L465.6,1156.53L462.67,1154.92L460.26,1156.8L458.92,1155.19L460.53,1153.85L459.46,1151.97L463.48,1147.41L465.08,1146.34L466.15,1147.15L467.22,1146.35L467.49,1145.54L466.42,1144.2L466.96,1143.4L470.7,1138.84L473.65,1137.24L474.45,1135.36L473.92,1132.95L473.38,1133.21L472.58,1132.14L472.85,1131.07L473.39,1130L476.33,1128.66L476.33,1127.85L472.32,1125.44L469.38,1126.77L464.31,1122.48L462.17,1121.67L462.97,1120.6L462.71,1118.72L460.03,1118.18L458.7,1115.23L453.62,1115.49L452.02,1112.81L449.62,1110.93L446.41,1110.66L446.95,1109.59L445.88,1107.98L445.08,1107.98L444.81,1109.05L442.67,1108.51L442.68,1103.68L440,1103.68L439.46,1106.9L438.12,1108.77L433.05,1107.69L433.05,1105.82L428.5,1107.15L426.9,1106.34L424.76,1107.41L422.36,1104.46L422.63,1103.39L424.5,1102.05L422.1,1100.71L421.56,1099.37L422.1,1098.56L421.3,1098.02L420.49,1098.83L421.56,1101.24L421.03,1101.78L415.15,1100.16L413.27,1104.98L412.2,1105.25L410.33,1102.84L411.67,1100.96L411.4,1100.16L406.59,1099.61L407.93,1097.74L407.4,1096.66L405.53,1096.39L405,1094.52L403.66,1095.05L400.72,1094.51L400.19,1093.44L395.65,1091.82L394.84,1092.09L395.37,1095.57L394.3,1096.91L395.1,1099.86L393.23,1097.98L390.56,1098.25L387.35,1095.83L385.48,1095.56L383.34,1097.16L381.74,1096.09L377.73,1096.89L375.86,1095.81L370.78,1095.53L368.91,1096.34L368.64,1094.46L370.79,1089.64L370.52,1088.83L368.65,1087.75L364.64,1089.63L365.72,1086.68L364.38,1085.33L362.51,1086.94L360.1,1087.2L359.83,1088.01L361.7,1090.16L360.63,1092.3L356.35,1093.9L350.74,1090.41L347.8,1091.47L344.86,1089.59L345.94,1083.43L346.75,1082.35L344.88,1078.33L346.49,1074.31L347.56,1074.04L348.89,1076.73L351.57,1077L350.5,1073.24L351.57,1072.71L353.71,1074.32L354.78,1073.79L355.05,1072.72L353.71,1071.64L352.92,1068.69L355.06,1066.28L357.73,1066.82L359.87,1065.49L362.01,1066.56L362.54,1065.76L364.15,1066.03L367.36,1063.35L369.23,1062.82L367.63,1058.53L369.24,1057.46L369.51,1056.12L368.71,1054.51L367.64,1054.51L367.91,1052.9L372.2,1046.74L373.53,1046.47L373.8,1045.13L376.48,1042.45L379.15,1041.39L381.3,1038.71L380.76,1037.1L378.09,1035.75L377.56,1034.41L378.9,1031.73L380.24,1031.2L381.58,1027.72L380.79,1023.16L382.4,1018.87L378.39,1016.72L378.93,1012.96L382.14,1010.56L380.54,1009.21L381.35,1005.46L384.56,1002.52L385.64,997.42L385.37,995.01L386.71,992.33L386.45,988.84L387.79,985.63L387.53,982.68L388.6,981.88L388.6,979.73L390.21,977.05L389.68,974.1L390.75,973.84L391.02,972.76L389.69,969.81L391.56,965.79L390.5,964.72L391.57,963.11L390.77,960.16L392.11,958.02L392.11,955.61L393.45,956.41L395.06,952.12L394.26,951.32L394.26,947.83L395.06,947.57L394,946.22L395.87,944.62L395.61,940.06L390.01,937.1L388.67,938.17L386,937.36L384.93,936.02L383.33,936.55L383.6,935.75L378.26,931.45L378.53,930.38L377.19,931.99L376.13,931.72L376.66,930.64L375.86,929.84L375.33,930.64L374.26,928.5L374.8,927.42L372.93,926.89L371.33,923.4L363.06,922.85L359.88,908.36L352.95,900.04L352.16,893.6L345.74,899.49L339.33,899.21L336.67,896.25L337.47,893.31L334.81,889.55L332.14,888.2L329.74,888.2L325.73,890.6L323.05,893.28L319.58,893.27L316.38,894.88L315.84,897.02L312.1,898.89L307.82,899.15L304.61,903.7L303.01,904.5L300.6,905.03L298.47,904.49L296.06,905.29L293.13,903.94L290.19,905.28L289.12,904.47L289.12,902.6L285.66,900.71L280.04,903.65L277.91,902.84L276.84,904.98L276.56,908.2L272.28,911.41L269.08,910.86L267.76,905.77L264.55,906.83L262.95,905.76L261.61,906.29L254.67,905.74L247.46,904.38L244.26,905.71L242.65,908.12L236.24,907.57L230.64,904.34L230.11,901.66L228.78,900.85L227.18,902.45L224.24,901.37L221.57,902.44L217.83,901.09L214.1,898.13L212.23,899.2L206.09,897.84L198.61,901.31L195.14,901.03L191.12,905.85L188.2,900.21L184.2,895.37L17.2,706.33L12.7,699.08L13.76,698.81L19.35,702.05L20.96,701.52L21.75,702.06L23.89,700.99L24.16,699.92L26.3,699.66L27.64,698.33L28.72,694.57L33.53,691.64L32.2,690.03L33.01,687.08L35.15,684.14L36.49,684.14L38.91,678.79L38.64,677.45L41.31,676.92L40.78,675.31L42.39,673.44L43.99,672.91L44.27,671.3L46.14,669.43L46.94,669.43L47.48,667.29L48.55,666.75L48.83,663.27L52.83,661.14L54.16,662.48L57.37,661.96L59.24,659.82L58.71,659.01L59.25,657.94L60.05,657.67L62.45,657.95L64.03,661.17L64.84,660.64L66.17,661.45L68.05,657.16L67.79,655.55L68.58,656.36L68.85,655.83L70.98,656.1L70.73,653.95L72.87,651.55L73.14,648.6L71.55,646.45L72.36,643.77L74.23,641.36L75.03,641.36L76.09,642.98L76.63,641.91L78.23,641.91L78.5,642.72L79.83,642.45L84.89,644.08L86.49,643.01L86.23,641.13L88.1,641.14L88.91,639L87.57,638.99L86.78,637.65L88.12,635.77L86.51,636.57L86.25,635.5L84.12,633.88L84.13,632.81L86.54,629.6L86.01,627.45L86.82,623.16L87.62,623.17L88.43,621.29L91.64,619.16L90.04,617.54L85.77,618.87L84.18,617.26L83.92,615.38L84.72,614.31L82.59,613.23L80.45,614.29L79.4,611.88L78.07,611.07L77.28,606.5L75.16,603.81L73.03,603L73.03,602.47L75.16,602.21L74.64,600.06L75.96,601.67L76.5,601.41L75.7,599.53L79.72,593.64L77.34,589.61L78.14,589.34L78.93,590.42L79.47,589.88L78.94,588.81L80.01,587.74L77.88,588L77.62,585.85L80.01,586.13L80.03,582.1L80.83,581.3L80.03,580.23L81.1,579.96L81.9,581.31L82.7,580.77L82.97,579.16L82.17,578.89L82.17,577.82L84.04,576.49L81.65,576.21L80.59,574.33L81.13,571.65L82.46,572.19L82.73,571.38L80.33,570.3L81.67,568.97L81.68,567.09L80.34,566.82L79,568.96L77.67,568.69L75.01,566.8L74.75,565.19L73.42,564.92L75.29,562.51L72.63,561.96L73.44,560.36L75.84,559.29L75.58,557.68L76.65,556.08L75.58,555.8L75.59,553.93L76.39,552.32L73.73,551.24L74.27,549.09L71.87,550.43L69.74,550.15L70.28,547.47L67.88,547.73L67.08,548.8L68.13,551.49L67.33,551.48L66.01,549.33L65.21,550.4L63.07,550.4L63.62,546.91L66.55,547.19L66.55,546.38L65.49,546.38L66.29,544.24L64.96,543.16L62.3,543.15L63.64,541.55L63.91,539.67L60.45,538.59L61.79,536.98L62.58,537.79L63.65,537.25L62.59,535.11L63.14,532.42L66.33,533.24L67.4,532.44L67.14,530.83L69.02,526.54L68.76,523.86L70.36,523.06L71.43,523.6L74.1,521.73L71.71,516.63L73.32,515.56L73.6,511.54L75.2,510.2L76.53,510.74L77.34,508.87L79.2,509.41L79.47,508.34L78.41,506.19L82.14,506.73L82.94,505.4L81.62,503.51L82.42,501.37L85.63,497.89L91.49,498.72L92.82,499.79L95.22,499.27L97.87,502.76L100,502.23L101.62,496.07L107.48,498.5L108.54,497.7L111.74,499.32L115.73,499.33L118.94,496.39L121.07,495.59L124.27,496.94L126.66,499.63L134.12,499.65L136.78,498.59L140.26,492.7L146.66,491.37L148.8,488.97L149.07,487.89L148.01,485.74L144.02,483.85L142.17,480.09L143.25,475.27L145.38,472.59L150.44,474.22L155.76,479.06L161.34,482.03L163.47,482.57L166.14,482.04L169.88,478.83L173.07,478.84L179.72,483.15L195.69,489.63L199.95,487.77L203.16,483.21L207.45,474.37L211.99,469.29L219.72,466.89L225.85,466.1L230.12,463.16L234.65,462.37L237.84,462.91L242.91,461.58L246.65,456.22L251.98,456.5L255.44,455.44L258.11,453.84L261.58,448.48L264.78,446.88L266.92,443.66L273.86,440.19L282.12,437.79L287.7,442.63L288.77,442.1L288.5,440.49L290.9,439.42L290.37,437.27L292.52,429.76L291.2,427.08L291.47,424.4L292.54,423.06L293.87,423.06L295.2,420.92L299.46,420.39L300,419.32L301.86,419.32L303.73,417.98L304,415.57L306.13,415.03L307.47,413.16L306.94,411.55L308.01,407.79L310.41,405.92L310.41,405.12L311.75,405.12L311.21,404.31L312.28,402.44L312.29,400.56L310.16,398.67L310.96,397.6L310.17,396.53L311.23,395.46L310.44,393.85L310.97,391.7L309.91,389.82L310.71,387.94L304.33,383.1L300.34,381.48L299.01,382.55L296.62,381.74L296.36,378.25L294.76,378.52L292.9,375.03L291.31,374.22L281.72,376.34L280.12,377.41L278.52,376.07L276.92,376.6L275.87,371.77L274.54,370.16L272.41,369.88L271.35,370.69L269.22,368.8L267.36,369.33L266.56,368.8L265.22,370.94L260.42,374.15L256.43,374.14L255.9,372.8L255.37,373.06L254.56,374.94L255.09,377.63L253.49,377.62L252.69,378.42L252.96,379.23L251.62,379.76L250.56,378.96L250.03,379.49L250.55,381.91L248.15,383.78L247.88,385.12L248.68,386.73L246.28,387.53L245.21,388.87L246.01,389.68L243.88,390.48L240.17,382.42L238.31,381.34L235.12,376.77L232.2,376.5L229.54,374.34L229.55,369.78L227.69,368.44L226.09,369.24L224.49,368.7L222.9,367.08L221.58,361.44L219.2,357.68L220.27,355.54L219.74,353.39L221.34,350.98L225.07,349.11L225.88,346.43L225.35,343.47L227.22,342.67L227.49,341.33L231.48,341.07L232.55,339.46L231.23,337.05L231.76,334.63L229.91,332.75L231.24,329.8L227.79,326.84L226.47,324.69L227.53,322.81L226.21,320.93L225.95,319.05L227.28,318.52L226.75,317.17L225.68,317.71L224.36,315.83L222.76,315.55L222.23,313.94L217.98,311.52L218.25,308.83L219.59,307.23L219.33,304.81L218.53,304.54L219.07,303.74L211.89,300.23L210.29,301.83L207.1,299.14L207.64,297.53L206.58,295.92L204.71,296.18L203.39,295.11L203.39,293.23L201.27,290.54L201.81,287.59L200.22,285.7L201.02,284.36L199.16,282.48L199.96,281.41L197.57,278.99L199.97,277.38L199.71,275.23L201.58,273.36L204.77,274.44L206.1,273.91L205.05,269.07L205.85,268.54L206.65,268.54L207.44,271.23L208.5,271.77L210.1,271.77L211.96,270.43L213.56,272.05L217.29,270.45L217.29,269.37L218.09,269.64L219.15,268.57L219.69,267.23L218.36,265.62L218.63,263.74L219.43,263.47L218.9,262.4L221.57,261.87L222.37,259.99L223.43,259.99L224.24,257.58L222.64,256.5L222.92,253.82L224.78,251.14L226.38,251.14L228.24,252.49L229.31,251.96L230.37,253.57L232.23,254.38L232.76,253.31L231.96,252.77L232.24,247.67L231.71,247.4L232.78,246.33L231.45,244.44L231.46,243.1L232.26,241.22L234.39,241.5L234.39,239.35L235.72,238.82L235.2,236.94L237.59,234.79L237.86,233.45L236.01,230.23L236.01,228.88L234.15,228.34L233.89,226.73L234.42,225.66L235.22,225.93L238.42,224.06L240.56,217.08L242.69,217.09L242.43,214.94L243.23,213.6L244.56,213.6L244.83,212.53L246.16,212.26L246.16,211.46L247.76,210.39L246.44,208.51L246.97,207.7L245.11,206.09L245.65,204.74L249.38,202.87L250.7,203.15L252.04,202.34L252.04,201.27L253.9,201.54L254.17,200.47L256.03,199.67L256.56,201.01L257.62,201.28L258.69,200.48L262.41,200.76L262.68,199.95L264.01,199.95L265.08,198.88L268.8,199.7L270.13,198.36L272.79,199.44L273.85,201.86L275.18,200.78L276.78,201.32L277.31,202.4L281.03,202.41L281.56,203.48L282.89,201.61L285.82,201.34L287.68,200.27L288.49,198.4L289.01,200.28L290.61,200.28L293,202.43L296.73,200.83L297.79,199.22L300.72,197.89L301.26,195.74L304.72,193.87L305.79,190.91L308.45,189.58L309.25,190.12L311.11,188.78L311.11,187.97L312.71,188.24L312.71,186.9L315.64,186.1L317.77,183.15L319.37,182.62L319.11,181.81L320.17,181.81L320.17,180.74L320.97,180.74L322.04,178.33L323.1,179.4L323.9,178.87L324.97,173.77L327.9,172.97L328.17,172.16L326.84,170.55L331.1,166.8L336.42,166.54L336.69,164.93L338.02,164.66L338.82,166.01L343.61,162.53L344.94,163.06L346.01,160.92L352.13,158.24L354.53,154.49L355.06,152.07L356.39,151.27L356.93,147.78L361.72,147.79L362.52,146.18L365.71,145.92L367.3,147.53L368.9,146.99L371.82,149.15L373.15,149.15L376.61,148.35L378.47,145.94L380.86,146.75L383,143.53L387.79,139.51L387.79,136.28L389.39,135.48L389.93,131.45L389.4,128.77L391.01,123.4L394.73,119.38L390.75,113.73L393.95,109.97L395.82,105.14L403.27,103L403.8,98.44L416.03,97.65L426.14,95.25L429.86,95.25L434.12,94.18L435.71,92.31L437.58,86.13L442.37,81.84L440.25,74.85L427.52,57.64L394.63,16.49L393.04,13.8L395.16,13L396.49,15.42L405.78,23.76L409.75,29.41L410.55,29.14L415.59,36.94L421.95,49.58L426.19,54.69L431.5,58.99L436.82,58.73L446.91,63.58L447.71,63.04L447.18,62.24L447.71,61.16L449.31,60.9L451.17,59.02L437.89,49.87L442.42,47.72L447.2,47.46L447.73,46.39L455.7,48.55L464.2,53.39L467.39,56.89L478.28,62.27L498.2,74.38L515.73,82.72L535.66,93.75L548.42,102.09L577.38,118.76L588.81,126.55L594.66,129.24L604.76,135.69L623.37,151.27L635.86,166.31L637.73,167.65L637.73,169.27L639.06,171.41L644.11,175.98L644.37,177.05L647.83,178.4L648.63,179.47L649.96,179.47L655.81,183.77L664.58,193.97L668.04,199.34L678.42,210.62L682.14,212.76L684.27,215.45L685.86,216.25L690.12,222.16L696.51,225.11L700.5,228.07L706.88,238L710.08,244.44L709.55,244.98L711.14,246.05L712.47,249.54L717,255.98L721.52,257.32L723.65,254.91L725.78,255.44L732.43,259.47L737.22,261.08L740.95,264.56L744.94,270.74L747.6,273.15L747.87,275.03L751.6,280.4L757.72,285.49L762.51,293.01L768.64,298.64L777.43,312.86L782.75,318.76L783.82,321.45L790.75,328.69L793.68,335.66L795.02,348.28L792.63,361.43L791.57,373.5L795.58,386.11L793.73,409.73L791.87,420.46L788.42,429.59L779.63,435.5L775.11,441.13L768.99,455.89L763.67,476.29L761.01,481.12L762.35,491.31L760.75,503.11L775.68,505.52L778.61,502.57L781.8,495.86L786.06,491.3L787.39,485.39L790.05,480.03L799.1,469.02L801.76,467.68L808.95,460.7L819.87,458L823.59,458L823.86,457.2L826.26,456.93L828.39,455.58L838.51,455.57L845.44,458.25L846.5,457.71L862.23,466.82L868.63,472.71L874.49,474.59L874.49,475.66L876.62,475.92L877.68,470.56L885.41,471.08L889.14,470.54L902.72,472.67L909.12,475.35L909.92,476.42L916.05,478.02L924.05,484.99L934.72,492.75L939.26,497.57L942.73,502.93L943.53,502.39L949.13,505.61L974.48,529.44L975.55,532.39L976.61,532.39L984.09,538.81L990.76,546.04L1003.84,555.41L1012.65,565.32L1017.72,569.06L1021.19,572.81L1033.49,589.68L1035.63,593.7L1039.39,605.5L1045.53,613.8L1046.08,618.36L1044.77,629.09L1046.65,639.81L1048.25,639.81L1048.52,638.2L1048.23,629.62L1050.85,608.42L1052.72,607.08L1054.84,603.59L1058.84,600.9L1065.5,601.96L1071.11,604.09L1090.06,614.77L1115.43,633.49L1128.79,646.06L1133.61,651.14L1140.57,661.59L1143.52,668.82L1146.49,684.63L1150.52,694.82L1150.01,701.52L1151.08,705.27L1150.57,711.71L1151.37,713.32Z" fill-rule="evenodd" fill="#4682b4" fill-opacity="0.471"/>
<polyline points="1151.37,713.32 1152.72,718.68 1151.93,724.31 1147.43,736.93 1143.98,742.84 1143.2,752.49 1140.02,759.47 1140.03,761.62 1141.91,766.71 1145.38,770.18 1146.19,772.6 1144.08,783.06 1145.69,786 1143.59,797 1136.15,811.77 1133.23,815.8 1126.04,824.13 1120.98,827.9 1117.79,832.47 1116.73,835.69 1117.54,840.24 1117.3,850.43 1115.97,854.99 1113.85,857.68 1101.85,866.02 1098.13,873 1098.94,875.68 1101.34,877.02 1106.41,875.93 1111.48,873.77 1112.03,878.6 1109.64,885.58 1109.92,891.21 1111,895.49 1115.29,900.31 1119.56,901.1 1121.69,899.49 1121.68,896.81 1117.66,890.65 1118.73,887.7 1121.93,886.08 1129.15,890.35 1131.02,893.03 1131.3,896.52 1132.91,900.53 1140.14,908.29 1140.69,913.65 1140.16,915.8 1137.76,917.95 1132.42,919.3 1132.16,922.52 1130.03,923.87 1128.43,923.87 1126.81,916.37 1122.79,911.02 1120.92,909.68 1113.97,909.43 1109.44,913.46 1108.65,918.29 1109.46,921.24 1103.62,933.32 1102.55,936.54 1102.3,942.44 1105.78,945.92 1110.06,947.25 1111.67,948.85 1113.01,952.6 1111.68,955.82 1108.48,955.83 1105.79,951.01 1101.52,950.22 1099.12,951.03 1098.32,954.78 1095.39,956.13 1088.18,955.34 1084.17,957.76 1079.91,962.06 1076.71,962.34 1070.03,961.01 1062.28,962.64 1053.2,961.05 1050.79,957.3 1046.78,956.24 1043.57,957.05 1042.24,958.39 1042.51,959.19 1027.02,962.44 1023.82,962.18 1010.45,957.11 1005.65,957.39 990.17,968.95 987.78,972.17 988.32,976.73 987.79,978.07 984.58,980.49 982.18,981.56 978.71,981.57 968.82,978.9 965.88,978.91 964.82,979.71 958.68,988.3 946.42,1002.27 942.69,1009.51 942.16,1012.73 943.5,1018.63 951.52,1021.56 953.4,1023.44 956.62,1034.69 961.44,1042.73 964.12,1045.68 965.73,1051.3 964.94,1055.86 962.81,1061.23 955.35,1074.65 943.37,1108.18 935.63,1117.04 933.5,1120.53 932.97,1123.48 933.51,1126.97 936.46,1135.01 936.2,1143.59 934.88,1151.36 932.48,1154.59 926.87,1158.08 919.12,1166.94 911.64,1172.31 904.97,1181.97 903.64,1186 905.25,1195.11 908.47,1203.15 909.82,1209.05 910.11,1226.48 911.18,1229.16 918.42,1238.27 934.22,1250.05 937.97,1253.79 947.09,1268.26 955.94,1279.78 962.92,1296.66 964.02,1311.68 966.7,1318.38 973.13,1322.93 988.4,1329.61 994.03,1333.08 996.98,1337.1 1000.48,1346.75 1002.62,1348.35 1011.46,1352.09 1014.95,1356.11 1016.03,1362.28 1020.33,1373 1019,1377.02 1012.6,1389.1 1012.34,1392.32 1013.95,1396.07 1017.44,1399.82 1024.95,1403.56 1030.57,1404.89 1035.39,1404.08 1042.08,1404.33 1043.42,1403.79 1046.89,1399.76 1051.18,1398.68 1056.81,1402.43 1059.49,1403.22 1062.44,1405.9 1064.04,1405.9 1068.05,1402.67 1075.55,1400.78 1077.67,1393.8 1086.79,1399.41 1094.82,1400.46 1097.77,1400.19 1100.44,1398.84 1102.58,1397.49 1106.85,1392.39 1109.53,1392.38 1110.61,1395.06 1110.62,1400.16 1113.04,1403.1 1116,1409.53 1116,1411.14 1113.87,1414.63 1114.68,1418.92 1111.74,1421.61 1112.29,1424.83 1114.98,1431.26 1113.15,1449.51 1116.64,1451.37 1117.18,1452.71 1115.04,1456.21 1114.51,1458.89 1115.05,1460.23 1117.2,1461.83 1120.15,1461.83 1124.42,1458.6 1125.76,1458.06 1127.1,1458.59 1127.38,1461.54 1124.71,1465.84 1123.65,1470.13 1124.73,1472.81 1131.7,1476.02 1133.31,1477.62 1134.39,1480.03 1134.4,1483.79 1136.02,1489.42 1135.22,1490.76 1133.88,1490.23 1130.66,1490.77 1129.86,1491.85 1130.14,1494.53 1132.02,1498.01 1129.35,1502.31 1129.9,1506.87 1130.44,1508.21 1131.78,1508.74 1139.82,1507.65 1141.7,1509.26 1141.17,1512.48 1139.03,1515.7 1133.15,1519.2 1131.01,1522.43 1132.36,1526.45 1135.86,1531.54 1135.33,1535.83 1135.87,1537.17 1139.9,1540.65 1140.72,1545.21 1142.06,1545.74 1146.34,1544.39 1151.16,1541.69 1154.37,1541.68 1156.79,1543.02 1157.6,1544.09 1157.33,1545.43 1154.12,1547.86 1151.99,1552.96 1152.54,1555.91 1154.15,1557.78 1159.5,1555.89 1164.6,1556.15 1167.01,1557.48 1166.75,1560.43 1163.55,1564.47 1164.09,1568.76 1169.2,1573.04 1173.77,1580 1175.13,1584.29 1174.07,1590.73 1175.15,1593.41 1177.57,1594.21 1181.31,1592.32 1184.53,1592.31 1186.41,1594.19 1185.62,1597.14 1184.01,1599.29 1183.49,1602.51 1184.03,1605.73 1185.11,1608.14 1190.22,1612.15 1192.1,1615.64 1191.6,1626.64 1192.14,1627.98 1192.94,1629.05 1195.63,1629.58 1202.32,1625.27 1204.73,1626.33 1204.74,1629.55 1202.61,1634.93 1202.62,1638.15 1205.59,1644.58 1208.28,1645.64 1210.16,1647.52 1208.57,1654.77 1208.85,1657.99 1211.54,1660.93 1218.79,1664.4 1220.94,1666.27 1222.02,1668.42 1222.84,1675.39 1221.79,1681.84 1222.6,1684.79 1224.49,1686.66 1231.73,1688.25 1238.18,1693.06 1239.3,1706.21 1240.65,1710.5 1254.39,1729.78 1261.66,1737.27 1267.32,1744.5 1274.6,1757.36 1302.77,1756.73 1308.95,1757.78 1315.94,1762.05 1320.79,1768.21 1322.94,1769.81 1328.85,1771.13 1331,1772.47 1334.24,1777.83 1330.48,1776.5 1327,1780.81 1321.11,1782.44 1319.24,1784.32 1313.34,1787.03 1310.92,1786.5 1309.59,1788.12 1304.5,1789.48 1300.18,1784.12 1299.64,1781.44 1296.96,1781.99 1293.46,1778.78 1291.05,1779.86 1288.1,1782.82 1285.96,1782.83 1285.43,1786.59 1279.53,1787.68 1277.92,1785.54 1277.12,1787.96 1270.94,1784.76 1266.64,1784.24 1265.04,1786.39 1262.89,1786.66 1262.1,1788.81 1258.88,1790.44 1257.82,1793.12 1254.87,1794.48 1254.07,1797.7 1252.47,1799.59 1248.45,1800.94 1248.73,1803.62 1246.04,1803.9 1246.57,1801.75 1245.23,1800.41 1245.76,1798.53 1239.85,1796.94 1239.58,1795.87 1237.7,1796.14 1237.16,1794.26 1235.28,1794.54 1233.13,1793.2 1230.45,1794.28 1229.38,1793.75 1229.64,1792.68 1228.03,1792.14 1227.5,1793.22 1222.13,1792.16 1221.05,1790.82 1220.51,1791.63 1216.75,1788.69 1217.01,1787.34 1213.24,1783.33 1205.2,1786.31 1204.93,1785.23 1202.78,1784.97 1200.37,1786.86 1199.58,1789.81 1198.24,1790.62 1196.36,1789.55 1191.53,1789.57 1189.37,1786.89 1188.03,1787.43 1185.34,1783.95 1185.06,1780.73 1183.18,1778.85 1179.15,1777.25 1177.27,1777.53 1176.73,1776.19 1174.59,1776.46 1172.7,1772.97 1172.68,1765.46 1172.14,1764.12 1169.45,1762.51 1169.71,1759.56 1168.36,1757.68 1165.95,1759.84 1161.65,1756.63 1160.31,1757.17 1160.59,1760.66 1159.52,1762 1153.89,1764.43 1152.29,1767.66 1147.73,1766.06 1143.71,1767.41 1142.64,1770.1 1138.08,1770.38 1134.07,1775.22 1130.32,1777.11 1130.33,1781.41 1123.34,1778.21 1123.07,1775.25 1121.46,1774.99 1118.5,1771.77 1119.83,1770.16 1119.56,1769.09 1117.42,1769.36 1109.36,1765.62 1107.76,1770.99 1103.47,1770.2 1101.06,1771.55 1098.91,1770.21 1096.23,1772.9 1096.77,1775.32 1092.75,1776.67 1093.02,1777.74 1095.98,1779.08 1093.04,1785.26 1090.89,1785.8 1088.48,1784.46 1084.99,1785.81 1083.65,1788.23 1075.61,1790.13 1075.89,1794.16 1074.82,1796.84 1076.7,1798.72 1075.9,1800.06 1075.91,1803.02 1072.43,1807.59 1074.31,1811.34 1072.44,1812.69 1071.37,1815.38 1070.57,1815.65 1070.84,1816.99 1064.67,1819.69 1064.13,1818.88 1063.6,1819.96 1061.72,1818.62 1061.18,1820.5 1059.31,1820.51 1057.16,1822.39 1058.51,1827.49 1057.18,1829.91 1055.3,1830.18 1053.7,1832.87 1053.17,1836.9 1053.98,1839.31 1052.64,1839.85 1050.75,1837.98 1049.15,1839.86 1046.73,1840.13 1048.62,1843.35 1047.55,1845.5 1044.33,1845.24 1043.53,1847.66 1040.3,1846.59 1038.16,1848.48 1037.09,1848.21 1037.35,1844.72 1035.73,1843.92 1035.2,1844.99 1031.44,1845.54 1029.57,1847.42 1025.81,1846.62 1025,1845.55 1023.12,1846.09 1022.05,1847.97 1017.5,1850.4 1015.88,1848.25 1014.54,1848.52 1012.12,1845.57 1011.58,1842.62 1010.77,1843.96 1007.55,1843.97 1004.6,1841.83 1004.86,1839.95 1002.71,1837.27 1000.83,1837.81 1001.91,1839.95 1001.37,1840.76 999.23,1841.57 999.76,1839.96 998.69,1839.42 995.74,1840.5 991.98,1839.43 988.49,1840.51 987.95,1839.44 986.07,1839.44 984.19,1837.57 982.58,1840.52 979.36,1838.38 978.03,1844.83 976.15,1845.1 978.3,1848.05 977.23,1849.66 974.81,1848.86 971.86,1849.94 967.57,1849.14 966.49,1849.95 965.42,1848.61 964.62,1850.76 963.01,1851.57 963.28,1854.25 956.56,1851.04 956.57,1853.19 954.42,1853.73 953.35,1852.66 951.74,1852.66 949.86,1854.27 949.06,1857.5 946.65,1859.65 943.16,1860.46 934.56,1858.86 934.83,1858.05 933.76,1857.25 931.61,1858.06 929.19,1857.53 928.66,1856.72 926.24,1856.99 926.24,1858.87 923.02,1859.41 922.76,1860.22 928.93,1863.7 928.4,1867.73 927.6,1868 928.68,1873.64 927.88,1876.33 929.23,1879.82 928.15,1881.7 926.28,1881.43 926.55,1882.77 925.21,1885.19 926.55,1886.53 926.28,1888.41 924.94,1888.95 923.34,1891.91 923.61,1893.79 922,1894.87 922.54,1898.62 917.17,1896.48 916.36,1897.02 912.6,1893.8 907.23,1892.74 906.16,1893.54 905.09,1897.57 900.79,1897.31 900.52,1895.43 897.3,1895.7 893.81,1899.2 888.98,1899.74 883.34,1896.79 884.41,1895.45 881.99,1891.42 882.25,1887.93 881.45,1887.67 880.37,1883.37 874.19,1882.03 871.77,1880.16 870.7,1881.5 866.41,1882.04 860.24,1886.88 858.89,1885 855.4,1882.86 854.59,1880.98 853.25,1880.44 850.57,1881.52 846.27,1880.18 844.93,1882.33 838.49,1881.26 839.29,1874.28 837.14,1873.48 834.45,1875.09 833.11,1877.78 830.97,1879.12 831.51,1881.54 826.94,1883.42 827.22,1887.18 826.14,1889.33 818.9,1890.14 817.55,1892.29 817.82,1894.17 820.51,1896.59 818.36,1897.93 818.9,1900.62 820.25,1902.5 822.4,1902.76 823.74,1904.37 819.98,1907.6 815.15,1907.6 812.73,1906.8 805.75,1909.22 804.41,1911.37 803.34,1911.37 799.58,1908.69 796.63,1910.04 792.6,1909.77 791.25,1908.16 786.96,1909.51 787.23,1914.34 788.84,1914.88 789.92,1918.37 788.58,1919.71 788.85,1922.4 787.77,1923.74 788.04,1925.62 794.76,1929.11 795.03,1929.91 793.42,1930.45 797.45,1934.21 798.79,1933.13 800.67,1934.21 796.38,1940.39 797.19,1948.18 795.85,1951.13 793.97,1953.29 790.75,1954.63 790.48,1961.88 788.33,1961.62 788.33,1960.54 785.92,1959.2 784.04,1962.43 784.31,1964.57 783.23,1964.58 782.16,1961.35 781.35,1961.08 779.74,1962.43 779.2,1961.89 778.66,1956.52 776.78,1955.45 773.29,1955.98 771.95,1954.64 770.61,1957.06 768.46,1957.87 768.46,1960.02 766.58,1963.51 765.77,1961.36 760.4,1960.29 758.52,1957.87 754.76,1956.26 752.07,1957.34 748.31,1956.53 745.36,1958.95 742.14,1957.34 741.06,1954.39 737.03,1954.12 733,1956 733,1957.88 730.05,1965.41 730.05,1968.09 731.67,1969.97 724.95,1980.18 722,1978.04 718.51,1980.99 716.9,1983.95 715.28,1984.22 714.48,1982.61 710.99,1982.87 708.84,1986.37 708.03,1986.64 707.23,1985.29 703.2,1987.98 702.12,1987.98 702.39,1984.76 701.59,1983.68 700.24,1983.41 696.48,1985.03 694.33,1984.76 692.99,1979.12 690.84,1979.39 688.69,1974.01 686.81,1972.4 683.32,1972.94 678.75,1969.71 680.9,1968.91 680.9,1966.49 685.74,1963.8 682.51,1958.7 677.14,1957.36 676.07,1956.01 675.8,1954.94 677.95,1951.71 677.95,1949.57 677.14,1948.76 664.25,1949.83 661.03,1952.79 658.07,1946.61 657,1946.07 655.12,1946.88 651.63,1946.88 648.94,1945 642.23,1947.15 641.15,1946.61 639.81,1943.92 637.39,1943.65 636.32,1945.26 634.71,1945 631.75,1942.85 631.22,1940.7 629.34,1941.23 627.73,1940.16 623.43,1941.77 619.94,1939.08 615.91,1940.69 614.3,1940.15 611.88,1937.47 609.2,1938 604.9,1933.17 602.48,1932.09 600.34,1932.63 599.53,1933.97 594.43,1932.36 592.55,1929.94 587.18,1929.4 585.57,1927.25 582.88,1926.17 582.08,1924.56 579.39,1923.49 581.54,1921.61 578.86,1916.5 577.79,1915.96 577.79,1914.35 578.86,1913.01 574.03,1908.71 571.88,1908.71 570.81,1910.05 567.32,1909.24 567.32,1906.56 568.93,1904.41 565.98,1897.96 566.79,1895.81 564.11,1894.47 559,1894.73 559,1896.61 557.93,1898.49 557.39,1896.88 552.83,1897.69 553.63,1893.93 552.02,1893.39 552.03,1891.78 549.34,1889.63 548.81,1884.52 544.51,1885.59 541.83,1884.52 539.41,1881.56 540.49,1876.19 537.81,1874.31 535.13,1867.32 530.3,1867.86 525.47,1865.44 523.86,1861.41 522.52,1860.33 522.79,1852.81 520.91,1852.01 519.04,1852.54 519.03,1854.42 517.96,1854.15 517.43,1850.93 513.94,1847.97 513.94,1845.02 511.8,1843.41 512.07,1841.26 510.46,1839.64 508.85,1839.91 507.51,1838.03 505.89,1839.37 503.21,1836.15 498.38,1837.22 497.57,1838.56 492.21,1839.63 489.52,1841.5 486.3,1838.28 485.5,1834.79 479.86,1834.24 477.45,1835.85 476.38,1831.02 469.94,1830.47 471.28,1825.91 470.48,1824.57 471.29,1821.61 473.17,1821.35 472.37,1819.74 473.17,1817.05 476.93,1815.18 478.01,1815.98 479.62,1814.37 478.55,1812.23 480.97,1807.13 477.48,1802.02 477.22,1799.87 475.6,1802.56 476.67,1805.78 473.45,1808.46 472.65,1806.58 469.7,1804.43 464.6,1804.15 461.91,1805.49 454.94,1804.95 453.6,1803.07 453.06,1800.92 454.95,1797.7 451.47,1791.79 452.81,1788.84 452.28,1786.15 455.23,1784.28 454.97,1781.05 456.58,1778.91 456.31,1776.49 457.39,1774.35 456.32,1771.93 457.39,1769.78 458.2,1769.78 457.94,1764.68 459.01,1762.53 457.94,1761.73 458.48,1760.65 461.43,1759.05 461.7,1757.97 461.7,1757.44 459.29,1757.17 458.49,1752.6 457.42,1751.53 457.69,1750.45 455.81,1746.96 457.7,1741.33 461.19,1738.91 461.46,1737.04 461.46,1733.81 460.93,1732.47 459.59,1731.93 460.66,1730.06 459.05,1727.37 456.64,1725.76 457.18,1723.07 456.11,1721.73 456.38,1719.58 457.46,1718.24 456.65,1716.63 457.99,1716.09 457.46,1714.48 459.34,1712.34 460.42,1709.39 459.08,1704.55 459.62,1702.68 462.03,1701.6 461.23,1699.46 461.77,1698.38 459.63,1694.09 461.24,1691.14 458.83,1688.45 457.49,1688.45 456.42,1686.57 453.74,1687.91 448.11,1686.02 445.96,1688.43 444.08,1688.97 443.81,1687.89 441.4,1686.55 440.6,1685.21 439.26,1684.94 438.99,1682.79 436.05,1681.17 435.78,1679.83 434.17,1679.83 433.1,1678.76 432.83,1676.88 429.08,1679.29 428.81,1676.6 426.67,1676.6 425.86,1674.45 422.11,1671.49 421.85,1668.81 420.51,1668.27 418.63,1670.42 416.49,1669.61 415.42,1668 414.34,1668.26 413.81,1665.58 412.47,1664.23 411.4,1660.21 411.94,1658.6 414.63,1656.19 414.9,1654.58 414.1,1652.7 414.63,1651.09 415.97,1651.36 413.57,1647.86 415.18,1643.57 415.45,1640.62 413.58,1638.47 414.66,1636.06 410.37,1632.3 409.84,1629.61 408.5,1629.07 407.97,1625.58 409.04,1623.97 403.69,1616.99 403.69,1615.92 406.11,1612.43 404.5,1611.62 402.63,1608.4 397.54,1606.25 394.86,1606.24 394.33,1605.44 395.94,1601.68 398.08,1601.95 398.35,1601.15 397.01,1600.34 396.48,1597.12 393.01,1592.82 394.62,1589.34 393.82,1587.19 394.36,1586.39 392.75,1584.24 390.34,1583.16 389.27,1581.01 390.08,1578.87 389.02,1567.86 390.64,1565.45 390.64,1563.57 389.3,1560.62 389.05,1554.18 390.66,1549.62 389.33,1541.03 389.6,1538.89 391.22,1536.48 390.69,1533.26 391.76,1532.18 391.23,1529.77 389.89,1528.43 393.11,1524.67 393.11,1522.8 390.97,1521.45 391.78,1518.5 391.52,1515.55 396.62,1509.92 397.69,1509.93 398.22,1508.85 396.62,1506.71 399.58,1499.2 401.46,1497.32 400.92,1495.44 397.45,1492.76 398.52,1488.47 400.4,1485.52 400.41,1481.23 399.08,1477.74 399.35,1474.79 403.64,1473.18 404.17,1472.38 403.37,1471.3 403.64,1469.96 406.06,1467.28 407.66,1467.82 408.2,1464.34 409.27,1464.07 410.07,1467.29 411.95,1466.49 411.69,1463.27 410.35,1462.46 409.28,1463 409.01,1461.12 409.82,1459.24 411.96,1459.51 412.23,1458.71 411.43,1457.37 408.48,1457.9 408.48,1456.83 412.77,1456.83 414.11,1455.76 410.64,1445.83 411.99,1439.93 413.33,1438.86 417.34,1439.14 420.83,1436.73 421.1,1435.39 417.35,1432.16 419.77,1431.09 418.97,1427.87 421.38,1424.39 421.92,1421.97 425.4,1421.98 427.28,1417.42 426.75,1415.81 427.82,1414.47 429.7,1413.94 429.7,1410.99 431.04,1410.72 433.45,1408.04 432.12,1401.87 434.8,1401.07 438.01,1402.42 439.62,1401.08 439.89,1397.59 438.29,1396.25 435.09,1386.05 435.36,1384.98 437.23,1384.18 437.5,1382.03 435.1,1381.76 433.22,1383.37 431.61,1383.63 429.74,1382.56 429.74,1381.75 430.55,1378 432.69,1375.59 434.57,1370.49 438.32,1370.77 436.99,1368.35 434.31,1369.15 433.77,1367.81 440.2,1365.14 440.21,1361.38 436.47,1357.09 434.86,1356.28 432.18,1356.81 431.38,1356.01 428.98,1351.18 429.78,1348.76 422.29,1346.88 421.49,1345.53 425.24,1343.66 423.1,1341.78 425.24,1341.25 426.05,1338.57 427.12,1337.76 427.39,1334.81 431.68,1334.02 435.43,1332.14 436.76,1333.22 436.5,1330.8 437.3,1330.54 438.11,1331.34 441.85,1330.81 444.26,1331.35 447.48,1329.21 450.15,1328.94 450.69,1328.41 449.62,1327.6 452.03,1326.8 453.64,1321.98 457.12,1319.57 462.21,1318.5 462.75,1316.09 465.43,1314.21 466.5,1312.07 469.71,1312.34 471.05,1309.39 473.19,1310.2 476.4,1308.32 477.75,1304.57 475.34,1302.15 476.41,1300.55 477.48,1300.55 477.48,1299.74 474.54,1296.79 475.08,1294.65 473.21,1294.11 475.35,1292.23 476.96,1287.41 481.78,1285.8 483.92,1286.61 486.6,1282.59 487.67,1283.39 485.8,1285 486.86,1286.61 488.2,1284.74 489.81,1284.74 491.15,1281.79 492.22,1281.25 493.56,1283.4 495.7,1283.94 496.24,1279.92 494.9,1279.11 495.43,1278.31 496.5,1278.58 498.38,1276.16 499.18,1276.17 499.98,1278.31 500.79,1277.78 500.79,1273.75 498.38,1273.22 498.65,1271.34 497.58,1268.39 498.66,1267.58 498.39,1266.78 497.05,1266.78 496.52,1265.97 497.32,1265.17 496.52,1259.54 497.59,1258.47 498.93,1258.73 500.27,1257.93 501.07,1258.47 500.81,1254.98 501.61,1257.13 503.48,1257.93 504.02,1250.96 505.09,1249.89 508.57,1250.7 510.98,1248.82 510.18,1247.48 511.25,1246.95 514.19,1249.09 515.26,1246.95 514.46,1245.07 517.41,1243.47 515.53,1242.12 516.34,1240.78 514.2,1237.03 510.46,1236.49 509.39,1234.34 506.71,1234.34 503.77,1236.75 503.77,1238.09 502.43,1236.75 498.95,1237.01 498.42,1235.4 502.43,1232.19 500.57,1228.97 498.69,1228.16 498.42,1230.58 495.48,1228.43 497.09,1226.29 495.76,1223.87 493.88,1226.55 492.81,1226.82 491.21,1223.87 493.88,1224.94 494.42,1220.92 489.34,1218.23 489.88,1214.75 489.08,1214.21 486.94,1214.74 483.2,1210.72 480.25,1210.18 484.54,1203.48 489.37,1193.03 482.95,1189.8 477.33,1190.06 471.99,1189.25 467.44,1185.76 463.17,1183.88 461.3,1180.93 459.69,1180.12 460.77,1177.71 458.1,1172.35 458.64,1167.25 457.57,1166.45 458.64,1164.03 465.6,1156.53 462.67,1154.92 460.26,1156.8 458.92,1155.19 460.53,1153.85 459.46,1151.97 463.48,1147.41 465.08,1146.34 466.15,1147.15 467.22,1146.35 467.49,1145.54 466.42,1144.2 466.96,1143.4 470.7,1138.84 473.65,1137.24 474.45,1135.36 473.92,1132.95 473.38,1133.21 472.58,1132.14 472.85,1131.07 473.39,1130 476.33,1128.66 476.33,1127.85 472.32,1125.44 469.38,1126.77 464.31,1122.48 462.17,1121.67 462.97,1120.6 462.71,1118.72 460.03,1118.18 458.7,1115.23 453.62,1115.49 452.02,1112.81 449.62,1110.93 446.41,1110.66 446.95,1109.59 445.88,1107.98 445.08,1107.98 444.81,1109.05 442.67,1108.51 442.68,1103.68 440,1103.68 439.46,1106.9 438.12,1108.77 433.05,1107.69 433.05,1105.82 428.5,1107.15 426.9,1106.34 424.76,1107.41 422.36,1104.46 422.63,1103.39 424.5,1102.05 422.1,1100.71 421.56,1099.37 422.1,1098.56 421.3,1098.02 420.49,1098.83 421.56,1101.24 421.03,1101.78 415.15,1100.16 413.27,1104.98 412.2,1105.25 410.33,1102.84 411.67,1100.96 411.4,1100.16 406.59,1099.61 407.93,1097.74 407.4,1096.66 405.53,1096.39 405,1094.52 403.66,1095.05 400.72,1094.51 400.19,1093.44 395.65,1091.82 394.84,1092.09 395.37,1095.57 394.3,1096.91 395.1,1099.86 393.23,1097.98 390.56,1098.25 387.35,1095.83 385.48,1095.56 383.34,1097.16 381.74,1096.09 377.73,1096.89 375.86,1095.81 370.78,1095.53 368.91,1096.34 368.64,1094.46 370.79,1089.64 370.52,1088.83 368.65,1087.75 364.64,1089.63 365.72,1086.68 364.38,1085.33 362.51,1086.94 360.1,1087.2 359.83,1088.01 361.7,1090.16 360.63,1092.3 356.35,1093.9 350.74,1090.41 347.8,1091.47 344.86,1089.59 345.94,1083.43 346.75,1082.35 344.88,1078.33 346.49,1074.31 347.56,1074.04 348.89,1076.73 351.57,1077 350.5,1073.24 351.57,1072.71 353.71,1074.32 354.78,1073.79 355.05,1072.72 353.71,1071.64 352.92,1068.69 355.06,1066.28 357.73,1066.82 359.87,1065.49 362.01,1066.56 362.54,1065.76 364.15,1066.03 367.36,1063.35 369.23,1062.82 367.63,1058.53 369.24,1057.46 369.51,1056.12 368.71,1054.51 367.64,1054.51 367.91,1052.9 372.2,1046.74 373.53,1046.47 373.8,1045.13 376.48,1042.45 379.15,1041.39 381.3,1038.71 380.76,1037.1 378.09,1035.75 377.56,1034.41 378.9,1031.73 380.24,1031.2 381.58,1027.72 380.79,1023.16 382.4,1018.87 378.39,1016.72 378.93,1012.96 382.14,1010.56 380.54,1009.21 381.35,1005.46 384.56,1002.52 385.64,997.42 385.37,995.01 386.71,992.33 386.45,988.84 387.79,985.63 387.53,982.68 388.6,981.88 388.6,979.73 390.21,977.05 389.68,974.1 390.75,973.84 391.02,972.76 389.69,969.81 391.56,965.79 390.5,964.72 391.57,963.11 390.77,960.16 392.11,958.02 392.11,955.61 393.45,956.41 395.06,952.12 394.26,951.32 394.26,947.83 395.06,947.57 394,946.22 395.87,944.62 395.61,940.06 390.01,937.1 388.67,938.17 386,937.36 384.93,936.02 383.33,936.55 383.6,935.75 378.26,931.45 378.53,930.38 377.19,931.99 376.13,931.72 376.66,930.64 375.86,929.84 375.33,930.64 374.26,928.5 374.8,927.42 372.93,926.89 371.33,923.4 363.06,922.85 359.88,908.36 352.95,900.04 352.16,893.6 345.74,899.49 339.33,899.21 336.67,896.25 337.47,893.31 334.81,889.55 332.14,888.2 329.74,888.2 325.73,890.6 323.05,893.28 319.58,893.27 316.38,894.88 315.84,897.02 312.1,898.89 307.82,899.15 304.61,903.7 303.01,904.5 300.6,905.03 298.47,904.49 296.06,905.29 293.13,903.94 290.19,905.28 289.12,904.47 289.12,902.6 285.66,900.71 280.04,903.65 277.91,902.84 276.84,904.98 276.56,908.2 272.28,911.41 269.08,910.86 267.76,905.77 264.55,906.83 262.95,905.76 261.61,906.29 254.67,905.74 247.46,904.38 244.26,905.71 242.65,908.12 236.24,907.57 230.64,904.34 230.11,901.66 228.78,900.85 227.18,902.45 224.24,901.37 221.57,902.44 217.83,901.09 214.1,898.13 212.23,899.2 206.09,897.84 198.61,901.31 195.14,901.03 191.12,905.85 188.2,900.21 184.2,895.37 17.2,706.33 12.7,699.08 13.76,698.81 19.35,702.05 20.96,701.52 21.75,702.06 23.89,700.99 24.16,699.92 26.3,699.66 27.64,698.33 28.72,694.57 33.53,691.64 32.2,690.03 33.01,687.08 35.15,684.14 36.49,684.14 38.91,678.79 38.64,677.45 41.31,676.92 40.78,675.31 42.39,673.44 43.99,672.91 44.27,671.3 46.14,669.43 46.94,669.43 47.48,667.29 48.55,666.75 48.83,663.27 52.83,661.14 54.16,662.48 57.37,661.96 59.24,659.82 58.71,659.01 59.25,657.94 60.05,657.67 62.45,657.95 64.03,661.17 64.84,660.64 66.17,661.45 68.05,657.16 67.79,655.55 68.58,656.36 68.85,655.83 70.98,656.1 70.73,653.95 72.87,651.55 73.14,648.6 71.55,646.45 72.36,643.77 74.23,641.36 75.03,641.36 76.09,642.98 76.63,641.91 78.23,641.91 78.5,642.72 79.83,642.45 84.89,644.08 86.49,643.01 86.23,641.13 88.1,641.14 88.91,639 87.57,638.99 86.78,637.65 88.12,635.77 86.51,636.57 86.25,635.5 84.12,633.88 84.13,632.81 86.54,629.6 86.01,627.45 86.82,623.16 87.62,623.17 88.43,621.29 91.64,619.16 90.04,617.54 85.77,618.87 84.18,617.26 83.92,615.38 84.72,614.31 82.59,613.23 80.45,614.29 79.4,611.88 78.07,611.07 77.28,606.5 75.16,603.81 73.03,603 73.03,602.47 75.16,602.21 74.64,600.06 75.96,601.67 76.5,601.41 75.7,599.53 79.72,593.64 77.34,589.61 78.14,589.34 78.93,590.42 79.47,589.88 78.94,588.81 80.01,587.74 77.88,588 77.62,585.85 80.01,586.13 80.03,582.1 80.83,581.3 80.03,580.23 81.1,579.96 81.9,581.31 82.7,580.77 82.97,579.16 82.17,578.89 82.17,577.82 84.04,576.49 81.65,576.21 80.59,574.33 81.13,571.65 82.46,572.19 82.73,571.38 80.33,570.3 81.67,568.97 81.68,567.09 80.34,566.82 79,568.96 77.67,568.69 75.01,566.8 74.75,565.19 73.42,564.92 75.29,562.51 72.63,561.96 73.44,560.36 75.84,559.29 75.58,557.68 76.65,556.08 75.58,555.8 75.59,553.93 76.39,552.32 73.73,551.24 74.27,549.09 71.87,550.43 69.74,550.15 70.28,547.47 67.88,547.73 67.08,548.8 68.13,551.49 67.33,551.48 66.01,549.33 65.21,550.4 63.07,550.4 63.62,546.91 66.55,547.19 66.55,546.38 65.49,546.38 66.29,544.24 64.96,543.16 62.3,543.15 63.64,541.55 63.91,539.67 60.45,538.59 61.79,536.98 62.58,537.79 63.65,537.25 62.59,535.11 63.14,532.42 66.33,533.24 67.4,532.44 67.14,530.83 69.02,526.54 68.76,523.86 70.36,523.06 71.43,523.6 74.1,521.73 71.71,516.63 73.32,515.56 73.6,511.54 75.2,510.2 76.53,510.74 77.34,508.87 79.2,509.41 79.47,508.34 78.41,506.19 82.14,506.73 82.94,505.4 81.62,503.51 82.42,501.37 85.63,497.89 91.49,498.72 92.82,499.79 95.22,499.27 97.87,502.76 100,502.23 101.62,496.07 107.48,498.5 108.54,497.7 111.74,499.32 115.73,499.33 118.94,496.39 121.07,495.59 124.27,496.94 126.66,499.63 134.12,499.65 136.78,498.59 140.26,492.7 146.66,491.37 148.8,488.97 149.07,487.89 148.01,485.74 144.02,483.85 142.17,480.09 143.25,475.27 145.38,472.59 150.44,474.22 155.76,479.06 161.34,482.03 163.47,482.57 166.14,482.04 169.88,478.83 173.07,478.84 179.72,483.15 195.69,489.63 199.95,487.77 203.16,483.21 207.45,474.37 211.99,469.29 219.72,466.89 225.85,466.1 230.12,463.16 234.65,462.37 237.84,462.91 242.91,461.58 246.65,456.22 251.98,456.5 255.44,455.44 258.11,453.84 261.58,448.48 264.78,446.88 266.92,443.66 273.86,440.19 282.12,437.79 287.7,442.63 288.77,442.1 288.5,440.49 290.9,439.42 290.37,437.27 292.52,429.76 291.2,427.08 291.47,424.4 292.54,423.06 293.87,423.06 295.2,420.92 299.46,420.39 300,419.32 301.86,419.32 303.73,417.98 304,415.57 306.13,415.03 307.47,413.16 306.94,411.55 308.01,407.79 310.41,405.92 310.41,405.12 311.75,405.12 311.21,404.31 312.28,402.44 312.29,400.56 310.16,398.67 310.96,397.6 310.17,396.53 311.23,395.46 310.44,393.85 310.97,391.7 309.91,389.82 310.71,387.94 304.33,383.1 300.34,381.48 299.01,382.55 296.62,381.74 296.36,378.25 294.76,378.52 292.9,375.03 291.31,374.22 281.72,376.34 280.12,377.41 278.52,376.07 276.92,376.6 275.87,371.77 274.54,370.16 272.41,369.88 271.35,370.69 269.22,368.8 267.36,369.33 266.56,368.8 265.22,370.94 260.42,374.15 256.43,374.14 255.9,372.8 255.37,373.06 254.56,374.94 255.09,377.63 253.49,377.62 252.69,378.42 252.96,379.23 251.62,379.76 250.56,378.96 250.03,379.49 250.55,381.91 248.15,383.78 247.88,385.12 248.68,386.73 246.28,387.53 245.21,388.87 246.01,389.68 243.88,390.48 240.17,382.42 238.31,381.34 235.12,376.77 232.2,376.5 229.54,374.34 229.55,369.78 227.69,368.44 226.09,369.24 224.49,368.7 222.9,367.08 221.58,361.44 219.2,357.68 220.27,355.54 219.74,353.39 221.34,350.98 225.07,349.11 225.88,346.43 225.35,343.47 227.22,342.67 227.49,341.33 231.48,341.07 232.55,339.46 231.23,337.05 231.76,334.63 229.91,332.75 231.24,329.8 227.79,326.84 226.47,324.69 227.53,322.81 226.21,320.93 225.95,319.05 227.28,318.52 226.75,317.17 225.68,317.71 224.36,315.83 222.76,315.55 222.23,313.94 217.98,311.52 218.25,308.83 219.59,307.23 219.33,304.81 218.53,304.54 219.07,303.74 211.89,300.23 210.29,301.83 207.1,299.14 207.64,297.53 206.58,295.92 204.71,296.18 203.39,295.11 203.39,293.23 201.27,290.54 201.81,287.59 200.22,285.7 201.02,284.36 199.16,282.48 199.96,281.41 197.57,278.99 199.97,277.38 199.71,275.23 201.58,273.36 204.77,274.44 206.1,273.91 205.05,269.07 205.85,268.54 206.65,268.54 207.44,271.23 208.5,271.77 210.1,271.77 211.96,270.43 213.56,272.05 217.29,270.45 217.29,269.37 218.09,269.64 219.15,268.57 219.69,267.23 218.36,265.62 218.63,263.74 219.43,263.47 218.9,262.4 221.57,261.87 222.37,259.99 223.43,259.99 224.24,257.58 222.64,256.5 222.92,253.82 224.78,251.14 226.38,251.14 228.24,252.49 229.31,251.96 230.37,253.57 232.23,254.38 232.76,253.31 231.96,252.77 232.24,247.67 231.71,247.4 232.78,246.33 231.45,244.44 231.46,243.1 232.26,241.22 234.39,241.5 234.39,239.35 235.72,238.82 235.2,236.94 237.59,234.79 237.86,233.45 236.01,230.23 236.01,228.88 234.15,228.34 233.89,226.73 234.42,225.66 235.22,225.93 238.42,224.06 240.56,217.08 242.69,217.09 242.43,214.94 243.23,213.6 244.56,213.6 244.83,212.53 246.16,212.26 246.16,211.46 247.76,210.39 246.44,208.51 246.97,207.7 245.11,206.09 245.65,204.74 249.38,202.87 250.7,203.15 252.04,202.34 252.04,201.27 253.9,201.54 254.17,200.47 256.03,199.67 256.56,201.01 257.62,201.28 258.69,200.48 262.41,200.76 262.68,199.95 264.01,199.95 265.08,198.88 268.8,199.7 270.13,198.36 272.79,199.44 273.85,201.86 275.18,200.78 276.78,201.32 277.31,202.4 281.03,202.41 281.56,203.48 282.89,201.61 285.82,201.34 287.68,200.27 288.49,198.4 289.01,200.28 290.61,200.28 293,202.43 296.73,200.83 297.79,199.22 300.72,197.89 301.26,195.74 304.72,193.87 305.79,190.91 308.45,189.58 309.25,190.12 311.11,188.78 311.11,187.97 312.71,188.24 312.71,186.9 315.64,186.1 317.77,183.15 319.37,182.62 319.11,181.81 320.17,181.81 320.17,180.74 320.97,180.74 322.04,178.33 323.1,179.4 323.9,178.87 324.97,173.77 327.9,172.97 328.17,172.16 326.84,170.55 331.1,166.8 336.42,166.54 336.69,164.93 338.02,164.66 338.82,166.01 343.61,162.53 344.94,163.06 346.01,160.92 352.13,158.24 354.53,154.49 355.06,152.07 356.39,151.27 356.93,147.78 361.72,147.79 362.52,146.18 365.71,145.92 367.3,147.53 368.9,146.99 371.82,149.15 373.15,149.15 376.61,148.35 378.47,145.94 380.86,146.75 383,143.53 387.79,139.51 387.79,136.28 389.39,135.48 389.93,131.45 389.4,128.77 391.01,123.4 394.73,119.38 390.75,113.73 393.95,109.97 395.82,105.14 403.27,103 403.8,98.44 416.03,97.65 426.14,95.25 429.86,95.25 434.12,94.18 435.71,92.31 437.58,86.13 442.37,81.84 440.25,74.85 427.52,57.64 394.63,16.49 393.04,13.8 395.16,13 396.49,15.42 405.78,23.76 409.75,29.41 410.55,29.14 415.59,36.94 421.95,49.58 426.19,54.69 431.5,58.99 436.82,58.73 446.91,63.58 447.71,63.04 447.18,62.24 447.71,61.16 449.31,60.9 451.17,59.02 437.89,49.87 442.42,47.72 447.2,47.46 447.73,46.39 455.7,48.55 464.2,53.39 467.39,56.89 478.28,62.27 498.2,74.38 515.73,82.72 535.66,93.75 548.42,102.09 577.38,118.76 588.81,126.55 594.66,129.24 604.76,135.69 623.37,151.27 635.86,166.31 637.73,167.65 637.73,169.27 639.06,171.41 644.11,175.98 644.37,177.05 647.83,178.4 648.63,179.47 649.96,179.47 655.81,183.77 664.58,193.97 668.04,199.34 678.42,210.62 682.14,212.76 684.27,215.45 685.86,216.25 690.12,222.16 696.51,225.11 700.5,228.07 706.88,238 710.08,244.44 709.55,244.98 711.14,246.05 712.47,249.54 717,255.98 721.52,257.32 723.65,254.91 725.78,255.44 732.43,259.47 737.22,261.08 740.95,264.56 744.94,270.74 747.6,273.15 747.87,275.03 751.6,280.4 757.72,285.49 762.51,293.01 768.64,298.64 777.43,312.86 782.75,318.76 783.82,321.45 790.75,328.69 793.68,335.66 795.02,348.28 792.63,361.43 791.57,373.5 795.58,386.11 793.73,409.73 791.87,420.46 788.42,429.59 779.63,435.5 775.11,441.13 768.99,455.89 763.67,476.29 761.01,481.12 762.35,491.31 760.75,503.11 775.68,505.52 778.61,502.57 781.8,495.86 786.06,491.3 787.39,485.39 790.05,480.03 799.1,469.02 801.76,467.68 808.95,460.7 819.87,458 823.59,458 823.86,457.2 826.26,456.93 828.39,455.58 838.51,455.57 845.44,458.25 846.5,457.71 862.23,466.82 868.63,472.71 874.49,474.59 874.49,475.66 876.62,475.92 877.68,470.56 885.41,471.08 889.14,470.54 902.72,472.67 909.12,475.35 909.92,476.42 916.05,478.02 924.05,484.99 934.72,492.75 939.26,497.57 942.73,502.93 943.53,502.39 949.13,505.61 974.48,529.44 975.55,532.39 976.61,532.39 984.09,538.81 990.76,546.04 1003.84,555.41 1012.65,565.32 1017.72,569.06 1021.19,572.81 1033.49,589.68 1035.63,593.7 1039.39,605.5 1045.53,613.8 1046.08,618.36 1044.77,629.09 1046.65,639.81 1048.25,639.81 1048.52,638.2 1048.23,629.62 1050.85,608.42 1052.72,607.08 1054.84,603.59 1058.84,600.9 1065.5,601.96 1071.11,604.09 1090.06,614.77 1115.43,633.49 1128.79,646.06 1133.61,651.14 1140.57,661.59 1143.52,668.82 1146.49,684.63 1150.52,694.82 1150.01,701.52 1151.08,705.27 1150.57,711.71 1151.37,713.32" fill="none" stroke="#1e1e1e" stroke-width="1.44" stroke-linecap="round" stroke-linejoin="round"/>
<path d="M826.24,437.88L828.91,438.68L828.64,439.22L825.71,440.29L821.45,444.86L814.8,447.54L811.33,448.08L805.74,451.04L801.48,455.07L798.55,456.14L796.96,458.02L795.36,458.56L798.81,446.22L804.94,442.99L808.13,440.31L812.66,434.4L816.65,433.86L818.78,434.39L826.24,437.88Z" fill-rule="evenodd" fill="#4682b4" fill-opacity="0.471"/>
<polyline points="826.24,437.88 828.91,438.68 828.64,439.22 825.71,440.29 821.45,444.86 814.8,447.54 811.33,448.08 805.74,451.04 801.48,455.07 798.55,456.14 796.96,458.02 795.36,458.56 798.81,446.22 804.94,442.99 808.13,440.31 812.66,434.4 816.65,433.86 818.78,434.39 826.24,437.88" fill="none" stroke="#1e1e1e" stroke-width="1.44" stroke-linecap="round" stroke-linejoin="round"/>
<path d="M801.46,423.94L802.52,420.19L804.39,417.77L811.85,423.4L814.78,427.42L808.39,431.72L803.6,438.16L798.01,442.46L791.09,450.25L787.9,452.66L783.64,453.2L783.37,452.66L790.82,443.54L800.13,428.51L801.46,423.94Z" fill-rule="evenodd" fill="#4682b4" fill-opacity="0.471"/>
<polyline points="801.46,423.94 802.52,420.19 804.39,417.77 811.85,423.4 814.78,427.42 808.39,431.72 803.6,438.16 798.01,442.46 791.09,450.25 787.9,452.66 783.64,453.2 783.37,452.66 790.82,443.54 800.13,428.51 801.46,423.94" fill="none" stroke="#1e1e1e" stroke-width="1.44" stroke-linecap="round" stroke-linejoin="round"/>
<path d="M793.47,420.73L796.65,399.26L798.52,405.43L797.46,408.12L796.93,415.36L794.8,419.92L793.47,420.73Z" fill-rule="evenodd" fill="#4682b4" fill-opacity="0.471"/>
<polyline points="793.47,420.73 796.65,399.26 798.52,405.43 797.46,408.12 796.93,415.36 794.8,419.92 793.47,420.73" fill="none" stroke="#1e1e1e" stroke-width="1.44" stroke-linecap="round" stroke-linejoin="round"/>
<path d="M771.41,496.67L769.55,500.7L771.14,488.62L771.4,480.04L775.39,473.86L776.72,468.77L777.25,461.79L781.77,455.89L790.56,453.47L792.69,453.73L793.76,455.61L793.76,457.76L787.91,464.2L786.84,468.22L780.19,479.23L776.2,482.72L771.41,496.67Z" fill-rule="evenodd" fill="#4682b4" fill-opacity="0.471"/>
<polyline points="771.41,496.67 769.55,500.7 771.14,488.62 771.4,480.04 775.39,473.86 776.72,468.77 777.25,461.79 781.77,455.89 790.56,453.47 792.69,453.73 793.76,455.61 793.76,457.76 787.91,464.2 786.84,468.22 780.19,479.23 776.2,482.72 771.41,496.67" fill="none" stroke="#1e1e1e" stroke-width="1.44" stroke-linecap="round" stroke-linejoin="round"/>
<path d="M771.65,460.72L775.64,448.91L782.83,440.86L787.62,439.78L785.5,444.88L778.04,452.94L770.86,465.28L769.53,466.09L771.65,460.72Z" fill-rule="evenodd" fill="#4682b4" fill-opacity="0.471"/>
<polyline points="771.65,460.72 775.64,448.91 782.83,440.86 787.62,439.78 785.5,444.88 778.04,452.94 770.86,465.28 769.53,466.09 771.65,460.72" fill="none" stroke="#1e1e1e" stroke-width="1.44" stroke-linecap="round" stroke-linejoin="round"/>
<path d="M779.13,492.37L778.6,492.37L778.6,490.76L784.99,479.76L786.85,479.49L786.85,481.64L785.79,483.78L779.13,492.37Z" fill-rule="evenodd" fill="#4682b4" fill-opacity="0.471"/>
<polyline points="779.13,492.37 778.6,492.37 778.6,490.76 784.99,479.76 786.85,479.49 786.85,481.64 785.79,483.78 779.13,492.37" fill="none" stroke="#1e1e1e" stroke-width="1.44" stroke-linecap="round" stroke-linejoin="round"/>
<path d="M780.73,494.79L782.86,490.76L785.26,488.88L785.26,491.03L780.73,494.79Z" fill-rule="evenodd" fill="#4682b4" fill-opacity="0.471"/>
<polyline points="780.73,494.79 782.86,490.76 785.26,488.88 785.26,491.03 780.73,494.79" fill="none" stroke="#1e1e1e" stroke-width="1.44" stroke-linecap="round" stroke-linejoin="round"/>
<path d="M784.16,438.44L784.96,438.98L782.83,440.06L784.16,438.44Z" fill-rule="evenodd" fill="#4682b4" fill-opacity="0.471"/>
<polyline points="784.16,438.44 784.96,438.98 782.83,440.06 784.16,438.44" fill="none" stroke="#1e1e1e" stroke-width="1.44" stroke-linecap="round" stroke-linejoin="round"/>
<path d="M784.19,488.35L783.66,488.08L784.46,487L784.99,487.27L784.19,488.35Z" fill-rule="evenodd" fill="#4682b4" fill-opacity="0.471"/>
<polyline points="784.19,488.35 783.66,488.08 784.46,487 784.99,487.27 784.19,488.35" fill="none" stroke="#1e1e1e" stroke-width="1.44" stroke-linecap="round" stroke-linejoin="round"/>
<path d="M781.5,438.71L782.29,436.03L783.36,435.76L784.43,436.57L781.5,438.71Z" fill-rule="evenodd" fill="#4682b4" fill-opacity="0.471"/>
<polyline points="781.5,438.71 782.29,436.03 783.36,435.76 784.43,436.57 781.5,438.71" fill="none" stroke="#1e1e1e" stroke-width="1.44" stroke-linecap="round" stroke-linejoin="round"/>
<path d="M776.74,503.64L778.87,498.28L781.53,494.79L778.6,502.03L776.74,503.64Z" fill-rule="evenodd" fill="#4682b4" fill-opacity="0.471"/>
<polyline points="776.74,503.64 778.87,498.28 781.53,494.79 778.6,502.03 776.74,503.64" fill="none" stroke="#1e1e1e" stroke-width="1.44" stroke-linecap="round" stroke-linejoin="round"/>
<path d="M773.78,447.3L777.5,439.25L779.63,436.84L781.23,436.57L780.7,438.98L773.78,447.3Z" fill-rule="evenodd" fill="#4682b4" fill-opacity="0.471"/>
<polyline points="773.78,447.3 777.5,439.25 779.63,436.84 781.23,436.57 780.7,438.98 773.78,447.3" fill="none" stroke="#1e1e1e" stroke-width="1.44" stroke-linecap="round" stroke-linejoin="round"/>
<path d="M779.66,484.33L780.46,483.25L779.66,484.33Z" fill-rule="evenodd" fill="#4682b4" fill-opacity="0.471"/>
<polyline points="779.66,484.33 780.46,483.25 779.66,484.33" fill="none" stroke="#1e1e1e" stroke-width="1.44" stroke-linecap="round" stroke-linejoin="round"/>
<path d="M776.2,489.69L777.26,485.4L778.59,483.79L779.13,484.86L778.6,486.47L776.2,489.69Z" fill-rule="evenodd" fill="#4682b4" fill-opacity="0.471"/>
<polyline points="776.2,489.69 777.26,485.4 778.59,483.79 779.13,484.86 778.6,486.47 776.2,489.69" fill="none" stroke="#1e1e1e" stroke-width="1.44" stroke-linecap="round" stroke-linejoin="round"/>
<path d="M776.47,492.64L778.33,491.03L778.6,492.64L773.81,498.82L776.47,492.64Z" fill-rule="evenodd" fill="#4682b4" fill-opacity="0.471"/>
<polyline points="776.47,492.64 778.33,491.03 778.6,492.64 773.81,498.82 776.47,492.64" fill="none" stroke="#1e1e1e" stroke-width="1.44" stroke-linecap="round" stroke-linejoin="round"/>
<path d="M773.54,501.77L774.25,500.96L773.54,501.5L774.07,499.35L777.8,495.06L773.28,504.72L772.74,504.45L773.54,501.77Z" fill-rule="evenodd" fill="#4682b4" fill-opacity="0.471"/>
<polyline points="773.54,501.77 774.25,500.96 773.54,501.5 774.07,499.35 777.8,495.06 773.28,504.72 772.74,504.45 773.54,501.77" fill="none" stroke="#1e1e1e" stroke-width="1.44" stroke-linecap="round" stroke-linejoin="round"/>
<path d="M770.6,473.6L772.46,468.77L774.85,465.28L775.65,465.55L775.12,470.11L773.26,474.94L770.07,478.43L769.8,475.21L770.6,473.6Z" fill-rule="evenodd" fill="#4682b4" fill-opacity="0.471"/>
<polyline points="770.6,473.6 772.46,468.77 774.85,465.28 775.65,465.55 775.12,470.11 773.26,474.94 770.07,478.43 769.8,475.21 770.6,473.6" fill="none" stroke="#1e1e1e" stroke-width="1.44" stroke-linecap="round" stroke-linejoin="round"/>
<path d="M768.2,473.6L767.93,472.53L769.79,467.16L772.19,464.74L773.25,462.33L773.52,463.4L768.2,473.6Z" fill-rule="evenodd" fill="#4682b4" fill-opacity="0.471"/>
<polyline points="768.2,473.6 767.93,472.53 769.79,467.16 772.19,464.74 773.25,462.33 773.52,463.4 768.2,473.6" fill="none" stroke="#1e1e1e" stroke-width="1.44" stroke-linecap="round" stroke-linejoin="round"/>
<path d="M768.21,490.77L766.61,485.94L766.87,481.65L768.2,477.09L769,478.97L769.27,484.06L768.21,490.77Z" fill-rule="evenodd" fill="#4682b4" fill-opacity="0.471"/>
<polyline points="768.21,490.77 766.61,485.94 766.87,481.65 768.2,477.09 769,478.97 769.27,484.06 768.21,490.77" fill="none" stroke="#1e1e1e" stroke-width="1.44" stroke-linecap="round" stroke-linejoin="round"/>
<path d="M766.88,500.43L768.21,493.72L768.74,497.21L767.95,499.62L766.88,500.43Z" fill-rule="evenodd" fill="#4682b4" fill-opacity="0.471"/>
<polyline points="766.88,500.43 768.21,493.72 768.74,497.21 767.95,499.62 766.88,500.43" fill="none" stroke="#1e1e1e" stroke-width="1.44" stroke-linecap="round" stroke-linejoin="round"/>
<path d="M765.55,493.72L766.34,488.89L766.88,491.84L765.55,493.72Z" fill-rule="evenodd" fill="#4682b4" fill-opacity="0.471"/>
<polyline points="765.55,493.72 766.34,488.89 766.88,491.84 765.55,493.72" fill="none" stroke="#1e1e1e" stroke-width="1.44" stroke-linecap="round" stroke-linejoin="round"/>
<path d="M766.08,498.01L766.61,496.4L766.08,498.01Z" fill-rule="evenodd" fill="#4682b4" fill-opacity="0.471"/>
<polyline points="766.08,498.01 766.61,496.4 766.08,498.01" fill="none" stroke="#1e1e1e" stroke-width="1.44" stroke-linecap="round" stroke-linejoin="round"/>
<path d="M766.08,498.01L765.28,500.16L765.28,498.02L766.08,496.94L766.08,498.01Z" fill-rule="evenodd" fill="#4682b4" fill-opacity="0.471"/>
<polyline points="766.08,498.01 765.28,500.16 765.28,498.02 766.08,496.94 766.08,498.01" fill="none" stroke="#1e1e1e" stroke-width="1.44" stroke-linecap="round" stroke-linejoin="round"/>
<path d="M765.27,479.5L765,477.36L766.33,474.94L765.27,479.5Z" fill-rule="evenodd" fill="#4682b4" fill-opacity="0.471"/>
<polyline points="765.27,479.5 765,477.36 766.33,474.94 765.27,479.5" fill="none" stroke="#1e1e1e" stroke-width="1.44" stroke-linecap="round" stroke-linejoin="round"/>
<path d="M763.95,493.46L764.48,491.31L763.95,493.46Z" fill-rule="evenodd" fill="#4682b4" fill-opacity="0.471"/>
<polyline points="763.95,493.46 764.48,491.31 763.95,493.46" fill="none" stroke="#1e1e1e" stroke-width="1.44" stroke-linecap="round" stroke-linejoin="round"/>
<path d="M763.95,495.6L764.48,493.72L763.95,495.6Z" fill-rule="evenodd" fill="#4682b4" fill-opacity="0.471"/>
<polyline points="763.95,495.6 764.48,493.72 763.95,495.6" fill="none" stroke="#1e1e1e" stroke-width="1.44" stroke-linecap="round" stroke-linejoin="round"/>
<path d="M763.41,490.77L761.81,482.99L762.08,481.12L763.14,480.04L764.48,484.87L764.21,489.16L763.41,490.77Z" fill-rule="evenodd" fill="#4682b4" fill-opacity="0.471"/>
<polyline points="763.41,490.77 761.81,482.99 762.08,481.12 763.14,480.04 764.48,484.87 764.21,489.16 763.41,490.77" fill="none" stroke="#1e1e1e" stroke-width="1.44" stroke-linecap="round" stroke-linejoin="round"/>
<path d="M763.42,503.11L763.95,500.16L763.95,503.11L763.42,503.11Z" fill-rule="evenodd" fill="#4682b4" fill-opacity="0.471"/>
<polyline points="763.42,503.11 763.95,500.16 763.95,503.11 763.42,503.11" fill="none" stroke="#1e1e1e" stroke-width="1.44" stroke-linecap="round" stroke-linejoin="round"/>
<text x="628.91" y="1023.81" font-family="sans-serif" font-size="14" stroke="#ffffff" stroke-opacity="0.784" stroke-width="2.33" stroke-linejoin="round" paint-order="stroke" fill="#141414">Guyana</text>
</svg>
