<?xml version="1.0" encoding="UTF-8" standalone="no"?>
<svg xmlns="http://www.w3.org/2000/svg" width="1343" height="2000" viewBox="0 0 1343 2000">
<rect width="1343" height="2000" fill="#ffffff"/>
<path d="M638.8,46.36L638.78,170.27L623.47,151.32L604.65,135.62L527.41,88.85L498.19,74.28L467.39,56.82L463.75,53.08L455.69,48.59L447.61,46.27L447.16,47.59L442.37,47.83L437.36,49.69L451.05,58.89L447.53,61.42L446.91,63.55L436.8,58.83L431.18,58.84L425.85,54.85L420.89,46.19L638.8,46.36Z" fill-rule="evenodd" fill="#4682b4" fill-opacity="0.471"/>
<polyline points="638.8,46.36 638.78,170.27 623.47,151.32 604.65,135.62 527.41,88.85 498.19,74.28 467.39,56.82 463.75,53.08 455.69,48.59 447.61,46.27 447.16,47.59 442.37,47.83 437.36,49.69 451.05,58.89 447.53,61.42 446.91,63.55 436.8,58.83 431.18,58.84 425.85,54.85 420.89,46.19 638.8,46.36" fill="none" stroke="#1e1e1e" stroke-width="1.44" stroke-linecap="round" stroke-linejoin="round"/>
<path d="M638.8,13.21L638.8,46.6L448.27,46.46L421,46.43L417.28,38.28L418.83,37.27L401.07,16.54L395.82,13L638.8,13.21Z" fill-rule="evenodd" fill="#4682b4" fill-opacity="0.471"/>
<polyline points="638.8,13.21 638.8,46.6 448.27,46.46 421,46.43 417.28,38.28 418.83,37.27 401.07,16.54 395.82,13 638.8,13.21" fill="none" stroke="#1e1e1e" stroke-width="1.44" stroke-linecap="round" stroke-linejoin="round"/>
<path d="M268.72,12.76L267.92,14.6L264,15.05L260.99,12.98L256.85,14.61L252.32,12.72L268.72,12.76Z" fill-rule="evenodd" fill="#4682b4" fill-opacity="0.471"/>
<polyline points="268.72,12.76 267.92,14.6 264,15.05 260.99,12.98 256.85,14.61 252.32,12.72 268.72,12.76" fill="none" stroke="#1e1e1e" stroke-width="1.44" stroke-linecap="round" stroke-linejoin="round"/>
<path d="M1330.36,713.57L1317.73,709.21L1296.21,706.48L1285.41,701.71L1276.95,699.94L1268.29,700.4L1251.07,695.13L1224.49,696.26L1217.25,694.29L1215.86,692.94L1198.35,688.94L1183.18,701.95L1172.15,705.4L1166.57,713.49L1151.2,713.45L1149.91,701.23L1150.54,695.47L1146.43,684.53L1141.85,664.48L1132.94,650.54L1115.42,633.55L1096.04,618.87L1082.63,610.26L1069.67,603.51L1058.79,600.97L1050.49,608.5L1048.16,629.75L1048.49,638.93L1048.24,639.9L1046.55,639.91L1044.64,629.05L1045.73,614.7L1039.56,605.14L1038.72,598.16L1036.19,590.27L1033.81,588.69L1032.75,586.22L1018.96,570.36L1011.45,564.08L1003.73,555.51L990.64,545.97L984.17,538.74L975.21,531.99L970.73,525.53L948.4,505.07L942.64,502.82L935.37,493.43L916.01,478.13L909.11,476.07L905.33,473.5L889.02,470.51L880.04,471.13L877.88,470.29L876.66,475.75L874.48,475.71L874.41,474.42L871.89,473.58L874.47,473.81L874.28,473.03L868.71,472.61L857.47,463.74L846.56,457.66L833.27,455.43L833.24,436.15L794.67,393.8L795.48,386.1L791.46,371.51L794.58,352.86L794.71,341.32L792.72,332.31L790.82,328.7L777.49,312.99L767.14,296.77L762.57,293.06L756.66,284.44L751.53,280.29L747.55,273.16L740.85,264.65L736.97,260.82L732.43,259.6L725.87,255.55L722.63,255.01L721.26,257.29L717.06,255.88L713.75,251.96L711.21,246.1L709.53,245.34L710.04,243.95L700.48,228.04L696.54,224.84L689.42,221.43L683.83,214.19L678.45,210.67L672.28,204.32L655.71,183.88L651.66,180.31L643.24,175.8L638.54,169.98L638.56,46.36L1327.92,45.17L1330.36,713.57Z" fill-rule="evenodd" fill="#4682b4" fill-opacity="0.471"/>
<polyline points="1330.36,713.57 1317.73,709.21 1296.21,706.48 1285.41,701.71 1276.95,699.94 1268.29,700.4 1251.07,695.13 1224.49,696.26 1217.25,694.29 1215.86,692.94 1198.35,688.94 1183.18,701.95 1172.15,705.4 1166.57,713.49 1151.2,713.45 1149.91,701.23 1150.54,695.47 1146.43,684.53 1141.85,664.48 1132.94,650.54 1115.42,633.55 1096.04,618.87 1082.63,610.26 1069.67,603.51 1058.79,600.97 1050.49,608.5 1048.16,629.75 1048.49,638.93 1048.24,639.9 1046.55,639.91 1044.64,629.05 1045.73,614.7 1039.56,605.14 1038.72,598.16 1036.19,590.27 1033.81,588.69 1032.75,586.22 1018.96,570.36 1011.45,564.08 1003.73,555.51 990.64,545.97 984.17,538.74 975.21,531.99 970.73,525.53 948.4,505.07 942.64,502.82 935.37,493.43 916.01,478.13 909.11,476.07 905.33,473.5 889.02,470.51 880.04,471.13 877.88,470.29 876.66,475.75 874.48,475.71 874.41,474.42 871.89,473.58 874.47,473.81 874.28,473.03 868.71,472.61 857.47,463.74 846.56,457.66 833.27,455.43 833.24,436.15 794.67,393.8 795.48,386.1 791.46,371.51 794.58,352.86 794.71,341.32 792.72,332.31 790.82,328.7 777.49,312.99 767.14,296.77 762.57,293.06 756.66,284.44 751.53,280.29 747.55,273.16 740.85,264.65 736.97,260.82 732.43,259.6 725.87,255.55 722.63,255.01 721.26,257.29 717.06,255.88 713.75,251.96 711.21,246.1 709.53,245.34 710.04,243.95 700.48,228.04 696.54,224.84 689.42,221.43 683.83,214.19 678.45,210.67 672.28,204.32 655.71,183.88 651.66,180.31 643.24,175.8 638.54,169.98 638.56,46.36 1327.92,45.17 1330.36,713.57" fill="none" stroke="#1e1e1e" stroke-width="1.44" stroke-linecap="round" stroke-linejoin="round"/>
<path d="M1327.92,45.4L638.56,46.6L638.57,13.21L1327.8,12.02L1327.92,45.4Z" fill-rule="evenodd" fill="#4682b4" fill-opacity="0.471"/>
<polyline points="1327.92,45.4 638.56,46.6 638.57,13.21 1327.8,12.02 1327.92,45.4" fill="none" stroke="#1e1e1e" stroke-width="1.44" stroke-linecap="round" stroke-linejoin="round"/>
</svg>
