<?xml version="1.0" encoding="UTF-8" standalone="no"?>
<svg xmlns="http://www.w3.org/2000/svg" width="2000" height="1224" viewBox="0 0 2000 1224">
<rect width="2000" height="1224" fill="#ffffff"/>
<path d="M581.36,978.97L590.61,977.05L602.58,968.51L613.8,969.54L623.67,964.7L620.39,937.12L630.51,933.95L643.42,935.83L657.32,929.79L666.68,938.27L667.62,952.88L677.91,958.03L673.74,967.15L674.4,981.34L687.56,988.62L682.17,1002.3L704.23,991.76L721.53,992.4L720.8,1004.07L729.82,1021.69L750.47,1034.44L754.72,1041.58L780.55,1059.36L796.74,1059.93L787.14,1065.68L776.24,1086.43L779.07,1093.13L798.16,1094.98L808.31,1092.98L815.52,1096.8L796.64,1135.84L801.52,1140.89L799.18,1143.37L797.62,1155.87L792.39,1156.24L767.59,1139.31L754.53,1139.59L754.72,1148.77L745.04,1157.84L743.72,1171.59L737.01,1174.02L723.44,1190.12L712.92,1194.17L704.83,1189.89L701.77,1201.95L691.26,1203.89L691.71,1213.91L681.24,1212.93L675.84,1203.68L667.77,1198.56L662.42,1205.99L632.78,1203.02L630.26,1196.73L617.55,1191.51L611.94,1196.42L603.89,1190.86L585.68,1200.55L568.05,1193.96L562.34,1188.01L553.29,1189.92L537.01,1189.18L519.98,1196.75L513.48,1187.85L498.59,1177.1L488.52,1172.28L467.38,1168.88L461.41,1163.31L471.8,1153.96L483.06,1156.72L483.26,1135.45L460.83,1126.58L456.43,1104.37L463.25,1097.86L457.97,1088.55L458.48,1079.39L470.87,1069.25L467.68,1057.49L474.4,1054.31L474.28,1034.7L481.58,1019.02L486.9,1013.72L500.99,1016.12L503.47,1008.25L521.31,1010.72L542.44,1007.82L546.99,982.47L551.46,975.05L566.77,973.27L581.36,978.97Z" fill-rule="evenodd" fill="#4682b4" fill-opacity="0.471"/>
<polyline points="581.36,978.97 590.61,977.05 602.58,968.51 613.8,969.54 623.67,964.7 620.39,937.12 630.51,933.95 643.42,935.83 657.32,929.79 666.68,938.27 667.62,952.88 677.91,958.03 673.74,967.15 674.4,981.34 687.56,988.62 682.17,1002.3 704.23,991.76 721.53,992.4 720.8,1004.07 729.82,1021.69 750.47,1034.44 754.72,1041.58 780.55,1059.36 796.74,1059.93 787.14,1065.68 776.24,1086.43 779.07,1093.13 798.16,1094.98 808.31,1092.98 815.52,1096.8 796.64,1135.84 801.52,1140.89 799.18,1143.37 797.62,1155.87 792.39,1156.24 767.59,1139.31 754.53,1139.59 754.72,1148.77 745.04,1157.84 743.72,1171.59 737.01,1174.02 723.44,1190.12 712.92,1194.17 704.83,1189.89 701.77,1201.95 691.26,1203.89 691.71,1213.91 681.24,1212.93 675.84,1203.68 667.77,1198.56 662.42,1205.99 632.78,1203.02 630.26,1196.73 617.55,1191.51 611.94,1196.42 603.89,1190.86 585.68,1200.55 568.05,1193.96 562.34,1188.01 553.29,1189.92 537.01,1189.18 519.98,1196.75 513.48,1187.85 498.59,1177.1 488.52,1172.28 467.38,1168.88 461.41,1163.31 471.8,1153.96 483.06,1156.72 483.26,1135.45 460.83,1126.58 456.43,1104.37 463.25,1097.86 457.97,1088.55 458.48,1079.39 470.87,1069.25 467.68,1057.49 474.4,1054.31 474.28,1034.7 481.58,1019.02 486.9,1013.72 500.99,1016.12 503.47,1008.25 521.31,1010.72 542.44,1007.82 546.99,982.47 551.46,975.05 566.77,973.27 581.36,978.97" fill="none" stroke="#1e1e1e" stroke-width="1.48" stroke-linecap="round" stroke-linejoin="round"/>
<path d="M1420.73,588.55L1428.71,591.32L1438.05,605.31L1442.45,598.55L1458.87,611.56L1483.33,615.21L1488.86,621.35L1507.02,621.78L1511.34,637.11L1506.23,649.32L1490.25,658.86L1490.88,674.27L1496.68,679.57L1526.26,691.4L1549.95,694.58L1551.25,700.8L1564.46,705.48L1573.43,699.83L1585.32,697.43L1582.59,690.83L1588.33,681.92L1596.3,682.12L1602.86,672.35L1611.93,671.27L1617.91,681.53L1612.99,699.19L1606.99,708.95L1597.88,709.19L1596.16,719.25L1600.68,728.31L1595.55,739.29L1579.46,745.55L1574.16,750.28L1575.32,761.93L1571.59,772.45L1564.93,780.13L1577.49,790.66L1578.25,798.14L1568.89,812.15L1561.66,809.41L1550.69,816.78L1553.83,827.96L1546.75,831.47L1545.25,840.27L1522.25,836.65L1514.34,853.93L1520.15,857.13L1503.43,891.3L1507.69,902.05L1514.01,901.91L1520.56,912.18L1508.63,930.81L1494.19,928.21L1488.83,932.92L1487.31,955.89L1480.8,961.04L1478.83,976.93L1463.82,975.58L1460.41,991.92L1449.91,1000.47L1441.51,998.55L1437.89,990.7L1427.86,993.81L1408.24,993.34L1398.95,989.75L1393.93,982.75L1369.82,989.41L1366.06,988.23L1358.18,982.51L1361.87,961.18L1354.68,943.36L1341.76,944.81L1338.49,957.38L1321.78,955.95L1311.37,952.76L1299.99,940.82L1309.67,934.02L1309.13,915.26L1312.72,905.2L1316.97,880.53L1307.63,868.99L1304.37,840.26L1305.83,821.05L1310.09,819.32L1307.6,804.35L1311.36,787.2L1301.85,780.65L1284.73,782.13L1270.25,766.05L1262.02,769.48L1257.18,746.18L1271.79,728.08L1279.26,732.99L1293.46,729.05L1296.23,723.18L1313.58,721.27L1323.37,728.64L1332.4,722.67L1338.11,723.83L1347.6,711.18L1342.52,695.83L1344.34,684.54L1341.6,672.49L1355.11,664.35L1356.64,671.41L1369.42,670.79L1381.67,655.98L1379.93,637.25L1386.15,635.89L1380.28,624.31L1393.41,612.82L1408.03,606.3L1413.7,591.18L1420.73,588.55Z" fill-rule="evenodd" fill="#4682b4" fill-opacity="0.471"/>
<polyline points="1420.73,588.55 1428.71,591.32 1438.05,605.31 1442.45,598.55 1458.87,611.56 1483.33,615.21 1488.86,621.35 1507.02,621.78 1511.34,637.11 1506.23,649.32 1490.25,658.86 1490.88,674.27 1496.68,679.57 1526.26,691.4 1549.95,694.58 1551.25,700.8 1564.46,705.48 1573.43,699.83 1585.32,697.43 1582.59,690.83 1588.33,681.92 1596.3,682.12 1602.86,672.35 1611.93,671.27 1617.91,681.53 1612.99,699.19 1606.99,708.95 1597.88,709.19 1596.16,719.25 1600.68,728.31 1595.55,739.29 1579.46,745.55 1574.16,750.28 1575.32,761.93 1571.59,772.45 1564.93,780.13 1577.49,790.66 1578.25,798.14 1568.89,812.15 1561.66,809.41 1550.69,816.78 1553.83,827.96 1546.75,831.47 1545.25,840.27 1522.25,836.65 1514.34,853.93 1520.15,857.13 1503.43,891.3 1507.69,902.05 1514.01,901.91 1520.56,912.18 1508.63,930.81 1494.19,928.21 1488.83,932.92 1487.31,955.89 1480.8,961.04 1478.83,976.93 1463.82,975.58 1460.41,991.92 1449.91,1000.47 1441.51,998.55 1437.89,990.7 1427.86,993.81 1408.24,993.34 1398.95,989.75 1393.93,982.75 1369.82,989.41 1366.06,988.23 1358.18,982.51 1361.87,961.18 1354.68,943.36 1341.76,944.81 1338.49,957.38 1321.78,955.95 1311.37,952.76 1299.99,940.82 1309.67,934.02 1309.13,915.26 1312.72,905.2 1316.97,880.53 1307.63,868.99 1304.37,840.26 1305.83,821.05 1310.09,819.32 1307.6,804.35 1311.36,787.2 1301.85,780.65 1284.73,782.13 1270.25,766.05 1262.02,769.48 1257.18,746.18 1271.79,728.08 1279.26,732.99 1293.46,729.05 1296.23,723.18 1313.58,721.27 1323.37,728.64 1332.4,722.67 1338.11,723.83 1347.6,711.18 1342.52,695.83 1344.34,684.54 1341.6,672.49 1355.11,664.35 1356.64,671.41 1369.42,670.79 1381.67,655.98 1379.93,637.25 1386.15,635.89 1380.28,624.31 1393.41,612.82 1408.03,606.3 1413.7,591.18 1420.73,588.55" fill="none" stroke="#1e1e1e" stroke-width="1.48" stroke-linecap="round" stroke-linejoin="round"/>
<path d="M796.74,1059.93L807.87,1043.35L807.36,1035.42L818.59,1002.98L814.34,994.61L828.45,996.8L831.49,975.14L825.51,966.34L821.4,940.45L822.6,934.2L831.63,918.01L830.9,900.9L825.81,891.27L825.1,872.08L814.92,854.07L821.62,839.95L831.65,839.61L847.74,830.97L856.42,817.26L857.03,810.18L843.25,778.39L842.44,771.71L833.94,762.06L834.33,748.3L844.17,727.94L845.95,717.53L842.15,692.07L846.81,676.25L849.68,671.69L844.06,662.06L861.93,666.34L876.38,673.52L884.11,662.72L893.79,659.01L902.92,649.05L913.71,648.26L923.69,634.53L932.77,633.31L944.96,638.77L955.15,650.47L945.47,661.29L940.04,674.2L950.83,677.98L962.48,675.5L978.13,662.59L991.19,666.35L1000,639.67L1015.89,644.25L1022.98,638.82L1032.37,654.66L1037.23,673.41L1050.05,689.23L1078,710.42L1084.25,707.9L1096.21,710.77L1105.51,689.87L1115.22,696.91L1136.03,704.3L1140.49,689.68L1157.79,683.31L1167.47,685.32L1177.19,691.92L1177.59,705.68L1185.99,722.71L1175.77,727.79L1165.33,740.8L1173.69,753.25L1161.15,754.59L1141.25,765.57L1149.59,773.85L1158.41,769.62L1148.2,780.12L1132.34,802.74L1142.98,812.26L1143.62,822.27L1136,840.24L1139.76,846.06L1140.13,858.98L1125.62,877.42L1110.64,864.57L1088.9,876.76L1078.6,884.31L1087.25,895.12L1098.15,892.99L1111.7,905.43L1113.18,914.18L1108.33,920.46L1112.68,928.78L1107.87,945.07L1100.99,950.52L1090.03,943.9L1068.51,960.24L1062.16,955.25L1043.18,961.55L1052.72,978.63L1038.06,996.17L1051.94,1017.41L1055.43,1027.83L1045.04,1027.02L1036.39,1035.79L1017.9,1031.65L1015.6,1037.07L998.84,1047.08L1006.07,1055.84L987.85,1066.68L988.72,1072.1L973.66,1087.11L963.52,1091.26L958.9,1084.58L935.12,1099.96L941.18,1109.57L935.97,1107.47L912.78,1109.06L896.27,1107.74L892.3,1090.62L883.91,1089.33L872.52,1105.95L876.5,1120.98L855.03,1122.94L849.74,1134.17L842.18,1136.62L825.96,1132.75L821.28,1138.13L803.23,1145.07L801.52,1140.89L796.64,1135.84L815.52,1096.8L808.31,1092.98L798.16,1094.98L779.07,1093.13L776.24,1086.43L787.14,1065.68L796.74,1059.93Z" fill-rule="evenodd" fill="#4682b4" fill-opacity="0.471"/>
<polyline points="796.74,1059.93 807.87,1043.35 807.36,1035.42 818.59,1002.98 814.34,994.61 828.45,996.8 831.49,975.14 825.51,966.34 821.4,940.45 822.6,934.2 831.63,918.01 830.9,900.9 825.81,891.27 825.1,872.08 814.92,854.07 821.62,839.95 831.65,839.61 847.74,830.97 856.42,817.26 857.03,810.18 843.25,778.39 842.44,771.71 833.94,762.06 834.33,748.3 844.17,727.94 845.95,717.53 842.15,692.07 846.81,676.25 849.68,671.69 844.06,662.06 861.93,666.34 876.38,673.52 884.11,662.72 893.79,659.01 902.92,649.05 913.71,648.26 923.69,634.53 932.77,633.31 944.96,638.77 955.15,650.47 945.47,661.29 940.04,674.2 950.83,677.98 962.48,675.5 978.13,662.59 991.19,666.35 1000,639.67 1015.89,644.25 1022.98,638.82 1032.37,654.66 1037.23,673.41 1050.05,689.23 1078,710.42 1084.25,707.9 1096.21,710.77 1105.51,689.87 1115.22,696.91 1136.03,704.3 1140.49,689.68 1157.79,683.31 1167.47,685.32 1177.19,691.92 1177.59,705.68 1185.99,722.71 1175.77,727.79 1165.33,740.8 1173.69,753.25 1161.15,754.59 1141.25,765.57 1149.59,773.85 1158.41,769.62 1148.2,780.12 1132.34,802.74 1142.98,812.26 1143.62,822.27 1136,840.24 1139.76,846.06 1140.13,858.98 1125.62,877.42 1110.64,864.57 1088.9,876.76 1078.6,884.31 1087.25,895.12 1098.15,892.99 1111.7,905.43 1113.18,914.18 1108.33,920.46 1112.68,928.78 1107.87,945.07 1100.99,950.52 1090.03,943.9 1068.51,960.24 1062.16,955.25 1043.18,961.55 1052.72,978.63 1038.06,996.17 1051.94,1017.41 1055.43,1027.83 1045.04,1027.02 1036.39,1035.79 1017.9,1031.65 1015.6,1037.07 998.84,1047.08 1006.07,1055.84 987.85,1066.68 988.72,1072.1 973.66,1087.11 963.52,1091.26 958.9,1084.58 935.12,1099.96 941.18,1109.57 935.97,1107.47 912.78,1109.06 896.27,1107.74 892.3,1090.62 883.91,1089.33 872.52,1105.95 876.5,1120.98 855.03,1122.94 849.74,1134.17 842.18,1136.62 825.96,1132.75 821.28,1138.13 803.23,1145.07 801.52,1140.89 796.64,1135.84 815.52,1096.8 808.31,1092.98 798.16,1094.98 779.07,1093.13 776.24,1086.43 787.14,1065.68 796.74,1059.93" fill="none" stroke="#1e1e1e" stroke-width="1.48" stroke-linecap="round" stroke-linejoin="round"/>
<path d="M836.46,461.84L837.67,450.18L851.47,448.61L865,443.69L868.71,434.54L879.11,436.26L885.59,433.38L896.52,440.52L912.45,464.78L926.52,465.25L931.84,477.36L947.33,474.48L946.18,484.49L950.38,497.42L932.31,506.55L926.92,514.45L915.32,524L907.92,538.57L894.92,540.59L884.8,530.95L880.9,520.09L865.61,528.34L862.52,526.24L844.42,531.12L845.1,514.03L850.49,509.9L852.56,496.57L847.54,487.78L839.4,483.97L839.56,462.28L836.46,461.84Z" fill-rule="evenodd" fill="#4682b4" fill-opacity="0.471"/>
<polyline points="836.46,461.84 837.67,450.18 851.47,448.61 865,443.69 868.71,434.54 879.11,436.26 885.59,433.38 896.52,440.52 912.45,464.78 926.52,465.25 931.84,477.36 947.33,474.48 946.18,484.49 950.38,497.42 932.31,506.55 926.92,514.45 915.32,524 907.92,538.57 894.92,540.59 884.8,530.95 880.9,520.09 865.61,528.34 862.52,526.24 844.42,531.12 845.1,514.03 850.49,509.9 852.56,496.57 847.54,487.78 839.4,483.97 839.56,462.28 836.46,461.84" fill="none" stroke="#1e1e1e" stroke-width="1.48" stroke-linecap="round" stroke-linejoin="round"/>
<path d="M1151.87,201.7L1156.8,191.66L1173.93,177.76L1175.81,169.83L1191.63,168.02L1206.5,154.96L1216.28,161.95L1227.62,157.25L1230,146.38L1238.79,138.36L1239,132.52L1249.67,119.47L1248.46,111.14L1251.9,96.5L1264.95,77.16L1276.15,66.17L1276.46,47.81L1284.78,50.21L1287.18,43.5L1298.55,46.69L1316.9,35.99L1333.12,32L1356.82,29.53L1366.97,26.02L1378.52,39.17L1389.22,35.23L1400.55,50.87L1416.77,46.39L1430.9,48.62L1448.32,62.45L1457.17,49.75L1482.22,45.03L1494.74,48.92L1502.93,32.88L1527.5,32.71L1533.3,21.72L1555.5,37.01L1557.69,46.97L1584.56,59.19L1585.13,70.02L1597.91,92.2L1599.01,101.77L1608.53,105.26L1611.28,114.36L1625.91,121.87L1635.57,120.34L1642.88,123.46L1652.58,113.99L1677.76,103.62L1689.14,104.09L1696.42,97.6L1706.02,103.13L1711.71,99.19L1724.29,102.53L1725.76,113.33L1714.75,124.13L1710.93,134.69L1698.88,130.91L1688.57,138.33L1681.72,150.23L1668.2,161.92L1640.2,164.43L1633.58,175.47L1604.34,183.82L1582.61,182.32L1577.47,177.46L1555.85,190.95L1538.63,191.8L1534.1,200.26L1535.45,209.82L1531.11,214.52L1540.6,226.38L1538.27,244.79L1528.98,252.95L1503.6,253.13L1479.54,249.92L1477.76,257.47L1455.8,248.34L1443.19,258.61L1440.89,269.09L1451.23,283.48L1448.69,295.62L1451.71,306.41L1440.95,313.72L1440.89,324.56L1433.95,327.62L1440.97,342.5L1428.98,373.6L1418.57,371.72L1419.07,383.38L1405.1,386.57L1381.42,412.43L1371.29,411.36L1363.55,401.89L1355.74,405.36L1355.59,413.7L1340.5,400.59L1317.76,400.52L1298.22,387.86L1305.1,378.6L1280.67,354.32L1281.86,338.04L1278.92,327.23L1267.96,323.2L1263.36,312.83L1282.77,300.07L1264.12,283.21L1274.45,260.56L1270.92,246.01L1277.28,241.76L1269.15,216L1261.54,208.17L1245.42,209.19L1238.9,223.86L1233.65,228.09L1224.11,220.68L1217.71,221.16L1214.19,231.62L1199.16,233.02L1194.09,226.39L1184.87,223.13L1183.98,216.05L1172.53,211.14L1163.35,212.05L1151.87,201.7Z" fill-rule="evenodd" fill="#4682b4" fill-opacity="0.471"/>
<polyline points="1151.87,201.7 1156.8,191.66 1173.93,177.76 1175.81,169.83 1191.63,168.02 1206.5,154.96 1216.28,161.95 1227.62,157.25 1230,146.38 1238.79,138.36 1239,132.52 1249.67,119.47 1248.46,111.14 1251.9,96.5 1264.95,77.16 1276.15,66.17 1276.46,47.81 1284.78,50.21 1287.18,43.5 1298.55,46.69 1316.9,35.99 1333.12,32 1356.82,29.53 1366.97,26.02 1378.52,39.17 1389.22,35.23 1400.55,50.87 1416.77,46.39 1430.9,48.62 1448.32,62.45 1457.17,49.75 1482.22,45.03 1494.74,48.92 1502.93,32.88 1527.5,32.71 1533.3,21.72 1555.5,37.01 1557.69,46.97 1584.56,59.19 1585.13,70.02 1597.91,92.2 1599.01,101.77 1608.53,105.26 1611.28,114.36 1625.91,121.87 1635.57,120.34 1642.88,123.46 1652.58,113.99 1677.76,103.62 1689.14,104.09 1696.42,97.6 1706.02,103.13 1711.71,99.19 1724.29,102.53 1725.76,113.33 1714.75,124.13 1710.93,134.69 1698.88,130.91 1688.57,138.33 1681.72,150.23 1668.2,161.92 1640.2,164.43 1633.58,175.47 1604.34,183.82 1582.61,182.32 1577.47,177.46 1555.85,190.95 1538.63,191.8 1534.1,200.26 1535.45,209.82 1531.11,214.52 1540.6,226.38 1538.27,244.79 1528.98,252.95 1503.6,253.13 1479.54,249.92 1477.76,257.47 1455.8,248.34 1443.19,258.61 1440.89,269.09 1451.23,283.48 1448.69,295.62 1451.71,306.41 1440.95,313.72 1440.89,324.56 1433.95,327.62 1440.97,342.5 1428.98,373.6 1418.57,371.72 1419.07,383.38 1405.1,386.57 1381.42,412.43 1371.29,411.36 1363.55,401.89 1355.74,405.36 1355.59,413.7 1340.5,400.59 1317.76,400.52 1298.22,387.86 1305.1,378.6 1280.67,354.32 1281.86,338.04 1278.92,327.23 1267.96,323.2 1263.36,312.83 1282.77,300.07 1264.12,283.21 1274.45,260.56 1270.92,246.01 1277.28,241.76 1269.15,216 1261.54,208.17 1245.42,209.19 1238.9,223.86 1233.65,228.09 1224.11,220.68 1217.71,221.16 1214.19,231.62 1199.16,233.02 1194.09,226.39 1184.87,223.13 1183.98,216.05 1172.53,211.14 1163.35,212.05 1151.87,201.7" fill="none" stroke="#1e1e1e" stroke-width="1.48" stroke-linecap="round" stroke-linejoin="round"/>
<path d="M1158.41,769.62L1159.3,775.04L1171.32,778.28L1191.12,790.63L1198.16,778.48L1206.95,772.14L1216.69,774.97L1223.92,784.91L1235.94,787.29L1241.55,777.63L1256.39,776.22L1262.02,769.48L1270.25,766.05L1284.73,782.13L1301.85,780.65L1311.36,787.2L1307.6,804.35L1310.09,819.32L1305.83,821.05L1304.37,840.26L1307.63,868.99L1316.97,880.53L1312.72,905.2L1309.13,915.26L1309.67,934.02L1299.99,940.82L1311.37,952.76L1321.78,955.95L1338.49,957.38L1341.76,944.81L1354.68,943.36L1361.87,961.18L1358.18,982.51L1366.06,988.23L1358.44,998.77L1362.5,1018.31L1352.38,1017.22L1349.18,1033.96L1346.04,1036.51L1341.23,1042.84L1334.55,1040.85L1328.05,1050.96L1301.18,1030.48L1287.83,1025.23L1285.62,1033.18L1275.37,1044.99L1257.39,1039.36L1249.03,1041.12L1245.49,1034.07L1233.15,1042.54L1228.52,1041.76L1218.52,1053.12L1209.26,1051.54L1195.27,1038.73L1182.33,1045.51L1170.38,1031.84L1162.66,1043.16L1153.43,1045.31L1149.31,1033.66L1123.89,1032.56L1103.72,1043.51L1090.18,1052.74L1072.81,1044.46L1055.43,1027.83L1051.94,1017.41L1038.06,996.17L1052.72,978.63L1043.18,961.55L1062.16,955.25L1068.51,960.24L1090.03,943.9L1100.99,950.52L1107.87,945.07L1112.68,928.78L1108.33,920.46L1113.18,914.18L1111.7,905.43L1098.15,892.99L1087.25,895.12L1078.6,884.31L1088.9,876.76L1110.64,864.57L1125.62,877.42L1140.13,858.98L1139.76,846.06L1136,840.24L1143.62,822.27L1142.98,812.26L1132.34,802.74L1148.2,780.12L1158.41,769.62Z" fill-rule="evenodd" fill="#4682b4" fill-opacity="0.471"/>
<polyline points="1158.41,769.62 1159.3,775.04 1171.32,778.28 1191.12,790.63 1198.16,778.48 1206.95,772.14 1216.69,774.97 1223.92,784.91 1235.94,787.29 1241.55,777.63 1256.39,776.22 1262.02,769.48 1270.25,766.05 1284.73,782.13 1301.85,780.65 1311.36,787.2 1307.6,804.35 1310.09,819.32 1305.83,821.05 1304.37,840.26 1307.63,868.99 1316.97,880.53 1312.72,905.2 1309.13,915.26 1309.67,934.02 1299.99,940.82 1311.37,952.76 1321.78,955.95 1338.49,957.38 1341.76,944.81 1354.68,943.36 1361.87,961.18 1358.18,982.51 1366.06,988.23 1358.44,998.77 1362.5,1018.31 1352.38,1017.22 1349.18,1033.96 1346.04,1036.51 1341.23,1042.84 1334.55,1040.85 1328.05,1050.96 1301.18,1030.48 1287.83,1025.23 1285.62,1033.18 1275.37,1044.99 1257.39,1039.36 1249.03,1041.12 1245.49,1034.07 1233.15,1042.54 1228.52,1041.76 1218.52,1053.12 1209.26,1051.54 1195.27,1038.73 1182.33,1045.51 1170.38,1031.84 1162.66,1043.16 1153.43,1045.31 1149.31,1033.66 1123.89,1032.56 1103.72,1043.51 1090.18,1052.74 1072.81,1044.46 1055.43,1027.83 1051.94,1017.41 1038.06,996.17 1052.72,978.63 1043.18,961.55 1062.16,955.25 1068.51,960.24 1090.03,943.9 1100.99,950.52 1107.87,945.07 1112.68,928.78 1108.33,920.46 1113.18,914.18 1111.7,905.43 1098.15,892.99 1087.25,895.12 1078.6,884.31 1088.9,876.76 1110.64,864.57 1125.62,877.42 1140.13,858.98 1139.76,846.06 1136,840.24 1143.62,822.27 1142.98,812.26 1132.34,802.74 1148.2,780.12 1158.41,769.62" fill="none" stroke="#1e1e1e" stroke-width="1.48" stroke-linecap="round" stroke-linejoin="round"/>
<path d="M770.18,447.49L772.95,452.1L771.68,465.85L781.36,483.47L787.28,483.11L795.35,494.03L798.01,510.73L788.89,520.24L809.55,547.11L823.27,563.07L823.19,572.66L833.93,574.41L831.24,592.32L823.2,606.86L821.05,627.69L827.34,656.93L846.81,676.25L842.15,692.07L845.95,717.53L844.17,727.94L834.33,748.3L816.06,751.08L819.72,756.95L806.47,771.85L796.13,778.01L797.51,783.86L782.93,785.39L773.45,790.3L778.47,802.45L766.07,813.16L749.45,816.32L745.41,794.17L733.48,788.19L729.04,777.3L713.79,785.86L701.95,795.72L689.73,790.55L690.52,775.13L676.52,775.76L674.16,780.73L658.6,771.33L656.15,763.36L641.96,776.07L630.21,778.8L626.74,764.14L627.05,745.8L631.53,733.36L621.7,708.17L630.13,697.89L632.3,686.66L639.84,678.03L632.65,665.82L630.3,653.27L637.2,647.96L633.16,617.87L637.41,600.42L629.32,593.2L622.17,580.57L615.18,575.44L606.59,581.13L600.13,578.51L595.49,568.83L589.25,569.55L588.17,551.6L584.61,545.69L606.34,516.06L608.03,500.25L617.86,502.5L629.54,495.61L631.37,487.3L643.65,495.43L645.18,505.05L653.57,509.77L663.01,519.92L681.74,512.69L674.27,502.99L686.16,499.83L699.66,482.09L709.13,490.55L718.28,479.83L713.8,456L726.73,457.42L730.76,450.38L738.67,447.97L749.31,452.26L770.18,447.49Z" fill-rule="evenodd" fill="#4682b4" fill-opacity="0.471"/>
<polyline points="770.18,447.49 772.95,452.1 771.68,465.85 781.36,483.47 787.28,483.11 795.35,494.03 798.01,510.73 788.89,520.24 809.55,547.11 823.27,563.07 823.19,572.66 833.93,574.41 831.24,592.32 823.2,606.86 821.05,627.69 827.34,656.93 846.81,676.25 842.15,692.07 845.95,717.53 844.17,727.94 834.33,748.3 816.06,751.08 819.72,756.95 806.47,771.85 796.13,778.01 797.51,783.86 782.93,785.39 773.45,790.3 778.47,802.45 766.07,813.16 749.45,816.32 745.41,794.17 733.48,788.19 729.04,777.3 713.79,785.86 701.95,795.72 689.73,790.55 690.52,775.13 676.52,775.76 674.16,780.73 658.6,771.33 656.15,763.36 641.96,776.07 630.21,778.8 626.74,764.14 627.05,745.8 631.53,733.36 621.7,708.17 630.13,697.89 632.3,686.66 639.84,678.03 632.65,665.82 630.3,653.27 637.2,647.96 633.16,617.87 637.41,600.42 629.32,593.2 622.17,580.57 615.18,575.44 606.59,581.13 600.13,578.51 595.49,568.83 589.25,569.55 588.17,551.6 584.61,545.69 606.34,516.06 608.03,500.25 617.86,502.5 629.54,495.61 631.37,487.3 643.65,495.43 645.18,505.05 653.57,509.77 663.01,519.92 681.74,512.69 674.27,502.99 686.16,499.83 699.66,482.09 709.13,490.55 718.28,479.83 713.8,456 726.73,457.42 730.76,450.38 738.67,447.97 749.31,452.26 770.18,447.49" fill="none" stroke="#1e1e1e" stroke-width="1.48" stroke-linecap="round" stroke-linejoin="round"/>
<path d="M151.09,385.13L166.57,376.97L170.87,360.02L185.22,358.89L195.86,359.28L204.88,365.87L219.08,368.89L226.14,391.67L248.33,391.61L251.73,382.54L260.37,376.16L260.78,389.11L272.25,390.33L308.09,384.81L323.01,383.61L316.82,375.07L315.79,354.18L312.36,347.4L318.42,341.75L313.21,329.07L301.73,320.36L321.01,312.62L331.42,292.5L325.36,289.39L332.97,278.36L326.96,274L345.82,259.56L357.42,254.48L369.87,258.18L378.58,265.94L394.46,267.22L420.73,297.56L426.21,312.72L450.74,327.11L457.62,343.14L467.51,339.63L495.17,366.98L512.17,371.53L515.73,375.37L538.77,373.78L547.97,376.47L549.88,392.36L547.28,423.17L557.86,428.39L554.76,442.51L543.92,463.14L548.73,476.17L540.08,485.17L539.36,493.08L545.57,506.14L540.29,516.04L542.14,521.91L525.22,534.07L524.06,548.64L512.45,549.22L512.11,564.65L505.92,563.26L505.04,551.98L498.31,549.74L498.08,534.72L504.06,532.77L514.19,521.73L514.41,511.73L501.72,486.42L491.86,486.19L480.71,492.61L463.5,492.61L450.41,497.29L443.25,490.44L429.33,505.52L418.7,501.9L418.59,495.23L404.34,479.83L395.44,495.85L381.29,497.55L376.09,501.57L360.13,497.36L342.02,498.91L334.74,497.03L322.87,507.09L307.92,506.63L313.37,494.7L309.12,486.22L276.41,511.87L273.78,505.95L261.1,505.11L250.91,489.33L227.64,493.11L206.17,501.53L193.95,488.15L200.84,477.14L196.17,466.12L211.71,457.08L198.31,415.29L193.34,412.6L180.53,416.72L159.65,403.83L139.05,398.44L141.87,383.94L151.09,385.13Z" fill-rule="evenodd" fill="#4682b4" fill-opacity="0.471"/>
<polyline points="151.09,385.13 166.57,376.97 170.87,360.02 185.22,358.89 195.86,359.28 204.88,365.87 219.08,368.89 226.14,391.67 248.33,391.61 251.73,382.54 260.37,376.16 260.78,389.11 272.25,390.33 308.09,384.81 323.01,383.61 316.82,375.07 315.79,354.18 312.36,347.4 318.42,341.75 313.21,329.07 301.73,320.36 321.01,312.62 331.42,292.5 325.36,289.39 332.97,278.36 326.96,274 345.82,259.56 357.42,254.48 369.87,258.18 378.58,265.94 394.46,267.22 420.73,297.56 426.21,312.72 450.74,327.11 457.62,343.14 467.51,339.63 495.17,366.98 512.17,371.53 515.73,375.37 538.77,373.78 547.97,376.47 549.88,392.36 547.28,423.17 557.86,428.39 554.76,442.51 543.92,463.14 548.73,476.17 540.08,485.17 539.36,493.08 545.57,506.14 540.29,516.04 542.14,521.91 525.22,534.07 524.06,548.64 512.45,549.22 512.11,564.65 505.92,563.26 505.04,551.98 498.31,549.74 498.08,534.72 504.06,532.77 514.19,521.73 514.41,511.73 501.72,486.42 491.86,486.19 480.71,492.61 463.5,492.61 450.41,497.29 443.25,490.44 429.33,505.52 418.7,501.9 418.59,495.23 404.34,479.83 395.44,495.85 381.29,497.55 376.09,501.57 360.13,497.36 342.02,498.91 334.74,497.03 322.87,507.09 307.92,506.63 313.37,494.7 309.12,486.22 276.41,511.87 273.78,505.95 261.1,505.11 250.91,489.33 227.64,493.11 206.17,501.53 193.95,488.15 200.84,477.14 196.17,466.12 211.71,457.08 198.31,415.29 193.34,412.6 180.53,416.72 159.65,403.83 139.05,398.44 141.87,383.94 151.09,385.13" fill="none" stroke="#1e1e1e" stroke-width="1.48" stroke-linecap="round" stroke-linejoin="round"/>
<path d="M1371.29,411.36L1381.42,412.43L1405.1,386.57L1419.07,383.38L1418.57,371.72L1428.98,373.6L1440.97,342.5L1433.95,327.62L1440.89,324.56L1440.95,313.72L1451.71,306.41L1448.69,295.62L1451.23,283.48L1471.37,284.72L1490.67,298.48L1493.37,306.34L1506.92,299.77L1521.19,300.27L1539.24,295.66L1556.32,296.48L1561.45,289.68L1575.27,294.32L1572.45,303.99L1573.35,316.9L1570.07,352.45L1585.68,359.54L1597.37,377.16L1615.27,375L1620.91,385.69L1635.54,386.94L1634.84,391.96L1644.87,398.76L1655.59,400.11L1667.3,388.08L1667.54,377.64L1678.07,373.15L1690.18,383.61L1696.11,384.68L1694.8,396.4L1703.41,401.97L1702.06,412.44L1713.3,412.5L1718.46,398.14L1729.85,402.77L1729.94,414.04L1737.14,427.56L1737.55,431.31L1714.6,452.51L1707.91,463.15L1705.05,479.52L1713.32,499.69L1707.51,521.16L1693.34,519.52L1686.95,523.06L1682.56,536.55L1675.27,547.62L1669.43,569.49L1664.07,579.66L1666.42,601.28L1655.26,607.46L1648.75,627.26L1643.29,634.51L1630.07,639.06L1618.49,661.49L1608.9,664.26L1611.93,671.27L1602.86,672.35L1596.3,682.12L1588.33,681.92L1582.59,690.83L1585.32,697.43L1573.43,699.83L1564.46,705.48L1551.25,700.8L1549.95,694.58L1526.26,691.4L1496.68,679.57L1490.88,674.27L1490.25,658.86L1506.23,649.32L1511.34,637.11L1507.02,621.78L1488.86,621.35L1483.33,615.21L1458.87,611.56L1442.45,598.55L1438.05,605.31L1428.71,591.32L1420.73,588.55L1427.67,581.33L1430.76,536.64L1427.47,527.11L1418.81,487.66L1418.63,448.87L1404.63,437.04L1396.27,441.78L1382.78,442.44L1375.66,437.14L1370.63,422.21L1371.29,411.36Z" fill-rule="evenodd" fill="#4682b4" fill-opacity="0.471"/>
<polyline points="1371.29,411.36 1381.42,412.43 1405.1,386.57 1419.07,383.38 1418.57,371.72 1428.98,373.6 1440.97,342.5 1433.95,327.62 1440.89,324.56 1440.95,313.72 1451.71,306.41 1448.69,295.62 1451.23,283.48 1471.37,284.72 1490.67,298.48 1493.37,306.34 1506.92,299.77 1521.19,300.27 1539.24,295.66 1556.32,296.48 1561.45,289.68 1575.27,294.32 1572.45,303.99 1573.35,316.9 1570.07,352.45 1585.68,359.54 1597.37,377.16 1615.27,375 1620.91,385.69 1635.54,386.94 1634.84,391.96 1644.87,398.76 1655.59,400.11 1667.3,388.08 1667.54,377.64 1678.07,373.15 1690.18,383.61 1696.11,384.68 1694.8,396.4 1703.41,401.97 1702.06,412.44 1713.3,412.5 1718.46,398.14 1729.85,402.77 1729.94,414.04 1737.14,427.56 1737.55,431.31 1714.6,452.51 1707.91,463.15 1705.05,479.52 1713.32,499.69 1707.51,521.16 1693.34,519.52 1686.95,523.06 1682.56,536.55 1675.27,547.62 1669.43,569.49 1664.07,579.66 1666.42,601.28 1655.26,607.46 1648.75,627.26 1643.29,634.51 1630.07,639.06 1618.49,661.49 1608.9,664.26 1611.93,671.27 1602.86,672.35 1596.3,682.12 1588.33,681.92 1582.59,690.83 1585.32,697.43 1573.43,699.83 1564.46,705.48 1551.25,700.8 1549.95,694.58 1526.26,691.4 1496.68,679.57 1490.88,674.27 1490.25,658.86 1506.23,649.32 1511.34,637.11 1507.02,621.78 1488.86,621.35 1483.33,615.21 1458.87,611.56 1442.45,598.55 1438.05,605.31 1428.71,591.32 1420.73,588.55 1427.67,581.33 1430.76,536.64 1427.47,527.11 1418.81,487.66 1418.63,448.87 1404.63,437.04 1396.27,441.78 1382.78,442.44 1375.66,437.14 1370.63,422.21 1371.29,411.36" fill="none" stroke="#1e1e1e" stroke-width="1.48" stroke-linecap="round" stroke-linejoin="round"/>
<path d="M1018.23,382.8L1029.99,371.11L1037.28,371.1L1041.17,350.24L1059.08,348.11L1064.36,334.75L1071.06,328.48L1073.25,312.62L1089.79,323.82L1095.91,317.96L1084.7,311.75L1084.68,304.24L1104.78,301.24L1108.72,306.64L1118.49,303.67L1120.96,296.15L1129.04,292.77L1127.87,283.6L1132.55,272.73L1143.11,265.15L1139.93,248.08L1130.1,235.63L1138.69,229.32L1149.26,227.16L1163.35,212.05L1172.53,211.14L1183.98,216.05L1184.87,223.13L1194.09,226.39L1199.16,233.02L1214.19,231.62L1217.71,221.16L1224.11,220.68L1233.65,228.09L1238.9,223.86L1245.42,209.19L1261.54,208.17L1269.15,216L1277.28,241.76L1270.92,246.01L1274.45,260.56L1264.12,283.21L1282.77,300.07L1263.36,312.83L1267.96,323.2L1278.92,327.23L1281.86,338.04L1280.67,354.32L1305.1,378.6L1298.22,387.86L1317.76,400.52L1340.5,400.59L1355.59,413.7L1350.91,419.61L1339.71,421.88L1337.82,445.26L1327.27,455.01L1311.36,464.42L1302.18,472.47L1285.93,478.52L1282.15,491.5L1272.03,493.71L1265.67,504.63L1258.14,511.4L1246.84,510.27L1247.04,502.76L1234.35,503.32L1220.07,485.12L1224.45,472.15L1219.55,461.77L1210.81,460.19L1199.14,445.29L1197.64,434.87L1188.08,435.38L1169.3,442.2L1170.55,458.04L1144.3,446.55L1140.32,441.15L1144.2,431.95L1140.8,426.97L1137.87,409.06L1131.41,408.26L1113.76,416.29L1103.63,411.33L1102.85,425.93L1095.28,430.14L1088.02,441.42L1075.05,432.3L1066.33,430.66L1055.1,436.11L1055.97,444.87L1045.28,444.06L1042.44,431.97L1024.14,402.39L1028.34,392.38L1018.23,382.8Z" fill-rule="evenodd" fill="#4682b4" fill-opacity="0.471"/>
<polyline points="1018.23,382.8 1029.99,371.11 1037.28,371.1 1041.17,350.24 1059.08,348.11 1064.36,334.75 1071.06,328.48 1073.25,312.62 1089.79,323.82 1095.91,317.96 1084.7,311.75 1084.68,304.24 1104.78,301.24 1108.72,306.64 1118.49,303.67 1120.96,296.15 1129.04,292.77 1127.87,283.6 1132.55,272.73 1143.11,265.15 1139.93,248.08 1130.1,235.63 1138.69,229.32 1149.26,227.16 1163.35,212.05 1172.53,211.14 1183.98,216.05 1184.87,223.13 1194.09,226.39 1199.16,233.02 1214.19,231.62 1217.71,221.16 1224.11,220.68 1233.65,228.09 1238.9,223.86 1245.42,209.19 1261.54,208.17 1269.15,216 1277.28,241.76 1270.92,246.01 1274.45,260.56 1264.12,283.21 1282.77,300.07 1263.36,312.83 1267.96,323.2 1278.92,327.23 1281.86,338.04 1280.67,354.32 1305.1,378.6 1298.22,387.86 1317.76,400.52 1340.5,400.59 1355.59,413.7 1350.91,419.61 1339.71,421.88 1337.82,445.26 1327.27,455.01 1311.36,464.42 1302.18,472.47 1285.93,478.52 1282.15,491.5 1272.03,493.71 1265.67,504.63 1258.14,511.4 1246.84,510.27 1247.04,502.76 1234.35,503.32 1220.07,485.12 1224.45,472.15 1219.55,461.77 1210.81,460.19 1199.14,445.29 1197.64,434.87 1188.08,435.38 1169.3,442.2 1170.55,458.04 1144.3,446.55 1140.32,441.15 1144.2,431.95 1140.8,426.97 1137.87,409.06 1131.41,408.26 1113.76,416.29 1103.63,411.33 1102.85,425.93 1095.28,430.14 1088.02,441.42 1075.05,432.3 1066.33,430.66 1055.1,436.11 1055.97,444.87 1045.28,444.06 1042.44,431.97 1024.14,402.39 1028.34,392.38 1018.23,382.8" fill="none" stroke="#1e1e1e" stroke-width="1.48" stroke-linecap="round" stroke-linejoin="round"/>
<path d="M1045.28,444.06L1055.97,444.87L1055.1,436.11L1066.33,430.66L1075.05,432.3L1088.02,441.42L1095.28,430.14L1102.85,425.93L1103.63,411.33L1113.76,416.29L1131.41,408.26L1137.87,409.06L1140.8,426.97L1144.2,431.95L1140.32,441.15L1144.3,446.55L1170.55,458.04L1169.3,442.2L1188.08,435.38L1197.64,434.87L1199.14,445.29L1210.81,460.19L1219.55,461.77L1224.45,472.15L1220.07,485.12L1234.35,503.32L1247.04,502.76L1246.84,510.27L1258.14,511.4L1265.67,504.63L1272.03,493.71L1282.15,491.5L1285.93,478.52L1302.18,472.47L1311.36,464.42L1327.27,455.01L1337.82,445.26L1339.71,421.88L1350.91,419.61L1355.59,413.7L1355.74,405.36L1363.55,401.89L1371.29,411.36L1370.63,422.21L1375.66,437.14L1382.78,442.44L1396.27,441.78L1404.63,437.04L1418.63,448.87L1418.81,487.66L1427.47,527.11L1430.76,536.64L1427.67,581.33L1420.73,588.55L1413.7,591.18L1408.03,606.3L1393.41,612.82L1380.28,624.31L1386.15,635.89L1379.93,637.25L1381.67,655.98L1369.42,670.79L1356.64,671.41L1355.11,664.35L1341.6,672.49L1344.34,684.54L1342.52,695.83L1347.6,711.18L1338.11,723.83L1332.4,722.67L1323.37,728.64L1313.58,721.27L1296.23,723.18L1293.46,729.05L1279.26,732.99L1271.79,728.08L1257.18,746.18L1262.02,769.48L1256.39,776.22L1241.55,777.63L1235.94,787.29L1223.92,784.91L1216.69,774.97L1206.95,772.14L1198.16,778.48L1191.12,790.63L1171.32,778.28L1159.3,775.04L1158.41,769.62L1149.59,773.85L1141.25,765.57L1161.15,754.59L1173.69,753.25L1165.33,740.8L1175.77,727.79L1185.99,722.71L1177.59,705.68L1177.19,691.92L1167.47,685.32L1172.51,674.86L1166.51,670.32L1161.56,653.68L1155.25,644.55L1155.98,627.86L1168.06,612.76L1162.56,596.96L1148.62,587.46L1136.7,583.37L1144.22,564.14L1130.2,535.87L1098.48,516.44L1086.28,498.98L1067.91,485.28L1074.63,473.58L1076.29,464.4L1065.31,464.44L1055.2,473.64L1041.37,460.74L1045.28,444.06Z" fill-rule="evenodd" fill="#4682b4" fill-opacity="0.471"/>
<polyline points="1045.28,444.06 1055.97,444.87 1055.1,436.11 1066.33,430.66 1075.05,432.3 1088.02,441.42 1095.28,430.14 1102.85,425.93 1103.63,411.33 1113.76,416.29 1131.41,408.26 1137.87,409.06 1140.8,426.97 1144.2,431.95 1140.32,441.15 1144.3,446.55 1170.55,458.04 1169.3,442.2 1188.08,435.38 1197.64,434.87 1199.14,445.29 1210.81,460.19 1219.55,461.77 1224.45,472.15 1220.07,485.12 1234.35,503.32 1247.04,502.76 1246.84,510.27 1258.14,511.4 1265.67,504.63 1272.03,493.71 1282.15,491.5 1285.93,478.52 1302.18,472.47 1311.36,464.42 1327.27,455.01 1337.82,445.26 1339.71,421.88 1350.91,419.61 1355.59,413.7 1355.74,405.36 1363.55,401.89 1371.29,411.36 1370.63,422.21 1375.66,437.14 1382.78,442.44 1396.27,441.78 1404.63,437.04 1418.63,448.87 1418.81,487.66 1427.47,527.11 1430.76,536.64 1427.67,581.33 1420.73,588.55 1413.7,591.18 1408.03,606.3 1393.41,612.82 1380.28,624.31 1386.15,635.89 1379.93,637.25 1381.67,655.98 1369.42,670.79 1356.64,671.41 1355.11,664.35 1341.6,672.49 1344.34,684.54 1342.52,695.83 1347.6,711.18 1338.11,723.83 1332.4,722.67 1323.37,728.64 1313.58,721.27 1296.23,723.18 1293.46,729.05 1279.26,732.99 1271.79,728.08 1257.18,746.18 1262.02,769.48 1256.39,776.22 1241.55,777.63 1235.94,787.29 1223.92,784.91 1216.69,774.97 1206.95,772.14 1198.16,778.48 1191.12,790.63 1171.32,778.28 1159.3,775.04 1158.41,769.62 1149.59,773.85 1141.25,765.57 1161.15,754.59 1173.69,753.25 1165.33,740.8 1175.77,727.79 1185.99,722.71 1177.59,705.68 1177.19,691.92 1167.47,685.32 1172.51,674.86 1166.51,670.32 1161.56,653.68 1155.25,644.55 1155.98,627.86 1168.06,612.76 1162.56,596.96 1148.62,587.46 1136.7,583.37 1144.22,564.14 1130.2,535.87 1098.48,516.44 1086.28,498.98 1067.91,485.28 1074.63,473.58 1076.29,464.4 1065.31,464.44 1055.2,473.64 1041.37,460.74 1045.28,444.06" fill="none" stroke="#1e1e1e" stroke-width="1.48" stroke-linecap="round" stroke-linejoin="round"/>
<path d="M547.97,376.47L563.44,374.28L570.27,369L578.86,374.17L588.49,369.35L602.22,370.02L625.93,376.69L638.27,376.9L659.23,381.82L699.48,371.57L705.13,368.31L719.09,373.08L728.95,369.03L749.1,371.78L769.05,367.83L782.9,356.29L785.21,349.22L800.09,345.19L816.03,347.42L831.92,356.3L836.57,371.77L835.4,378.85L841.23,386.82L817.35,390.38L815.03,399.54L819.11,415L809.84,415.76L796.14,408.55L789.62,414.74L795.46,421.05L779.31,434.24L779.26,440.08L770.18,447.49L749.31,452.26L738.67,447.97L730.76,450.38L726.73,457.42L713.8,456L718.28,479.83L709.13,490.55L699.66,482.09L686.16,499.83L674.27,502.99L681.74,512.69L663.01,519.92L653.57,509.77L645.18,505.05L643.65,495.43L631.37,487.3L629.54,495.61L617.86,502.5L608.03,500.25L606.34,516.06L584.61,545.69L566.56,543.68L560.22,535.63L556.24,522.62L542.14,521.91L540.29,516.04L545.57,506.14L539.36,493.08L540.08,485.17L548.73,476.17L543.92,463.14L554.76,442.51L557.86,428.39L547.28,423.17L549.88,392.36L547.97,376.47Z" fill-rule="evenodd" fill="#4682b4" fill-opacity="0.471"/>
<polyline points="547.97,376.47 563.44,374.28 570.27,369 578.86,374.17 588.49,369.35 602.22,370.02 625.93,376.69 638.27,376.9 659.23,381.82 699.48,371.57 705.13,368.31 719.09,373.08 728.95,369.03 749.1,371.78 769.05,367.83 782.9,356.29 785.21,349.22 800.09,345.19 816.03,347.42 831.92,356.3 836.57,371.77 835.4,378.85 841.23,386.82 817.35,390.38 815.03,399.54 819.11,415 809.84,415.76 796.14,408.55 789.62,414.74 795.46,421.05 779.31,434.24 779.26,440.08 770.18,447.49 749.31,452.26 738.67,447.97 730.76,450.38 726.73,457.42 713.8,456 718.28,479.83 709.13,490.55 699.66,482.09 686.16,499.83 674.27,502.99 681.74,512.69 663.01,519.92 653.57,509.77 645.18,505.05 643.65,495.43 631.37,487.3 629.54,495.61 617.86,502.5 608.03,500.25 606.34,516.06 584.61,545.69 566.56,543.68 560.22,535.63 556.24,522.62 542.14,521.91 540.29,516.04 545.57,506.14 539.36,493.08 540.08,485.17 548.73,476.17 543.92,463.14 554.76,442.51 557.86,428.39 547.28,423.17 549.88,392.36 547.97,376.47" fill="none" stroke="#1e1e1e" stroke-width="1.48" stroke-linecap="round" stroke-linejoin="round"/>
<path d="M838.89,247.93L856.45,247.63L862.92,239.34L875.13,247.75L882.41,241.53L894.39,241.18L925.57,249.65L929.77,242.99L942.89,235.52L970.19,237.24L984.12,230.59L987.46,236.01L996.66,226.42L1000.56,197.65L1011.4,186.38L1020.01,182.21L1034.71,168.01L1044.44,171.74L1048.36,183.41L1059.76,188.39L1071.14,183.35L1081.46,190.82L1085.67,202.48L1097.89,199.09L1109.32,202.79L1117.74,217.76L1130.18,202.68L1145.17,198L1151.87,201.7L1163.35,212.05L1149.26,227.16L1138.69,229.32L1130.1,235.63L1139.93,248.08L1143.11,265.15L1132.55,272.73L1127.87,283.6L1129.04,292.77L1120.96,296.15L1118.49,303.67L1108.72,306.64L1104.78,301.24L1084.68,304.24L1084.7,311.75L1095.91,317.96L1089.79,323.82L1073.25,312.62L1071.06,328.48L1064.36,334.75L1059.08,348.11L1041.17,350.24L1037.28,371.1L1029.99,371.11L1018.23,382.8L1009.81,378.22L1003.65,387.81L1001.68,397.82L992.14,402.4L979.53,379.88L982.62,368.62L977.02,366.95L977.32,348.6L958,347.74L949.33,341.88L935.6,345.18L923.01,345.14L916.59,338.03L888.9,334.15L879.38,336.6L871.86,329.89L871.34,323.21L858.81,313.96L842.73,295.08L842.2,290.91L857.07,280.58L860.18,275.18L857.48,260.57L847.44,260.5L838.89,247.93Z" fill-rule="evenodd" fill="#4682b4" fill-opacity="0.471"/>
<polyline points="838.89,247.93 856.45,247.63 862.92,239.34 875.13,247.75 882.41,241.53 894.39,241.18 925.57,249.65 929.77,242.99 942.89,235.52 970.19,237.24 984.12,230.59 987.46,236.01 996.66,226.42 1000.56,197.65 1011.4,186.38 1020.01,182.21 1034.71,168.01 1044.44,171.74 1048.36,183.41 1059.76,188.39 1071.14,183.35 1081.46,190.82 1085.67,202.48 1097.89,199.09 1109.32,202.79 1117.74,217.76 1130.18,202.68 1145.17,198 1151.87,201.7 1163.35,212.05 1149.26,227.16 1138.69,229.32 1130.1,235.63 1139.93,248.08 1143.11,265.15 1132.55,272.73 1127.87,283.6 1129.04,292.77 1120.96,296.15 1118.49,303.67 1108.72,306.64 1104.78,301.24 1084.68,304.24 1084.7,311.75 1095.91,317.96 1089.79,323.82 1073.25,312.62 1071.06,328.48 1064.36,334.75 1059.08,348.11 1041.17,350.24 1037.28,371.1 1029.99,371.11 1018.23,382.8 1009.81,378.22 1003.65,387.81 1001.68,397.82 992.14,402.4 979.53,379.88 982.62,368.62 977.02,366.95 977.32,348.6 958,347.74 949.33,341.88 935.6,345.18 923.01,345.14 916.59,338.03 888.9,334.15 879.38,336.6 871.86,329.89 871.34,323.21 858.81,313.96 842.73,295.08 842.2,290.91 857.07,280.58 860.18,275.18 857.48,260.57 847.44,260.5 838.89,247.93" fill="none" stroke="#1e1e1e" stroke-width="1.48" stroke-linecap="round" stroke-linejoin="round"/>
<path d="M770.18,447.49L779.26,440.08L779.31,434.24L795.46,421.05L789.62,414.74L796.14,408.55L809.84,415.76L819.11,415L815.03,399.54L817.35,390.38L841.23,386.82L835.4,378.85L836.57,371.77L831.92,356.3L816.03,347.42L808.59,333.59L792.16,324.69L790.67,305.49L795.5,297.19L793.73,277.99L806.03,275.6L807.54,262.69L812.38,251.47L824.08,251.98L838.89,247.93L847.44,260.5L857.48,260.57L860.18,275.18L857.07,280.58L842.2,290.91L842.73,295.08L858.81,313.96L871.34,323.21L871.86,329.89L879.38,336.6L888.9,334.15L916.59,338.03L923.01,345.14L935.6,345.18L949.33,341.88L958,347.74L977.32,348.6L977.02,366.95L982.62,368.62L979.53,379.88L992.14,402.4L1001.68,397.82L1003.65,387.81L1009.81,378.22L1018.23,382.8L1028.34,392.38L1024.14,402.39L1042.44,431.97L1045.28,444.06L1041.37,460.74L1055.2,473.64L1065.31,464.44L1076.29,464.4L1074.63,473.58L1067.91,485.28L1086.28,498.98L1098.48,516.44L1130.2,535.87L1144.22,564.14L1136.7,583.37L1148.62,587.46L1162.56,596.96L1168.06,612.76L1155.98,627.86L1155.25,644.55L1161.56,653.68L1166.51,670.32L1172.51,674.86L1167.47,685.32L1157.79,683.31L1140.49,689.68L1136.03,704.3L1115.22,696.91L1105.51,689.87L1096.21,710.77L1084.25,707.9L1078,710.42L1050.05,689.23L1037.23,673.41L1032.37,654.66L1022.98,638.82L1015.89,644.25L1000,639.67L991.19,666.35L978.13,662.59L962.48,675.5L950.83,677.98L940.04,674.2L945.47,661.29L955.15,650.47L944.96,638.77L932.77,633.31L923.69,634.53L913.71,648.26L902.92,649.05L893.79,659.01L884.11,662.72L876.38,673.52L861.93,666.34L844.06,662.06L849.68,671.69L846.81,676.25L827.34,656.93L821.05,627.69L823.2,606.86L831.24,592.32L833.93,574.41L823.19,572.66L823.27,563.07L809.55,547.11L788.89,520.24L798.01,510.73L795.35,494.03L787.28,483.11L781.36,483.47L771.68,465.85L772.95,452.1L770.18,447.49ZM836.46,461.84L839.56,462.28L839.4,483.97L847.54,487.78L852.56,496.57L850.49,509.9L845.1,514.03L844.42,531.12L862.52,526.24L865.61,528.34L880.9,520.09L884.8,530.95L894.92,540.59L907.92,538.57L915.32,524L926.92,514.45L932.31,506.55L950.38,497.42L946.18,484.49L947.33,474.48L931.84,477.36L926.52,465.25L912.45,464.78L896.52,440.52L885.59,433.38L879.11,436.26L868.71,434.54L865,443.69L851.47,448.61L837.67,450.18L836.46,461.84Z" fill-rule="evenodd" fill="#4682b4" fill-opacity="0.471"/>
<polyline points="770.18,447.49 779.26,440.08 779.31,434.24 795.46,421.05 789.62,414.74 796.14,408.55 809.84,415.76 819.11,415 815.03,399.54 817.35,390.38 841.23,386.82 835.4,378.85 836.57,371.77 831.92,356.3 816.03,347.42 808.59,333.59 792.16,324.69 790.67,305.49 795.5,297.19 793.73,277.99 806.03,275.6 807.54,262.69 812.38,251.47 824.08,251.98 838.89,247.93 847.44,260.5 857.48,260.57 860.18,275.18 857.07,280.58 842.2,290.91 842.73,295.08 858.81,313.96 871.34,323.21 871.86,329.89 879.38,336.6 888.9,334.15 916.59,338.03 923.01,345.14 935.6,345.18 949.33,341.88 958,347.74 977.32,348.6 977.02,366.95 982.62,368.62 979.53,379.88 992.14,402.4 1001.68,397.82 1003.65,387.81 1009.81,378.22 1018.23,382.8 1028.34,392.38 1024.14,402.39 1042.44,431.97 1045.28,444.06 1041.37,460.74 1055.2,473.64 1065.31,464.44 1076.29,464.4 1074.63,473.58 1067.91,485.28 1086.28,498.98 1098.48,516.44 1130.2,535.87 1144.22,564.14 1136.7,583.37 1148.62,587.46 1162.56,596.96 1168.06,612.76 1155.98,627.86 1155.25,644.55 1161.56,653.68 1166.51,670.32 1172.51,674.86 1167.47,685.32 1157.79,683.31 1140.49,689.68 1136.03,704.3 1115.22,696.91 1105.51,689.87 1096.21,710.77 1084.25,707.9 1078,710.42 1050.05,689.23 1037.23,673.41 1032.37,654.66 1022.98,638.82 1015.89,644.25 1000,639.67 991.19,666.35 978.13,662.59 962.48,675.5 950.83,677.98 940.04,674.2 945.47,661.29 955.15,650.47 944.96,638.77 932.77,633.31 923.69,634.53 913.71,648.26 902.92,649.05 893.79,659.01 884.11,662.72 876.38,673.52 861.93,666.34 844.06,662.06 849.68,671.69 846.81,676.25 827.34,656.93 821.05,627.69 823.2,606.86 831.24,592.32 833.93,574.41 823.19,572.66 823.27,563.07 809.55,547.11 788.89,520.24 798.01,510.73 795.35,494.03 787.28,483.11 781.36,483.47 771.68,465.85 772.95,452.1 770.18,447.49" fill="none" stroke="#1e1e1e" stroke-width="1.48" stroke-linecap="round" stroke-linejoin="round"/>
<polyline points="836.46,461.84 839.56,462.28 839.4,483.97 847.54,487.78 852.56,496.57 850.49,509.9 845.1,514.03 844.42,531.12 862.52,526.24 865.61,528.34 880.9,520.09 884.8,530.95 894.92,540.59 907.92,538.57 915.32,524 926.92,514.45 932.31,506.55 950.38,497.42 946.18,484.49 947.33,474.48 931.84,477.36 926.52,465.25 912.45,464.78 896.52,440.52 885.59,433.38 879.11,436.26 868.71,434.54 865,443.69 851.47,448.61 837.67,450.18 836.46,461.84" fill="none" stroke="#1e1e1e" stroke-width="1.48" stroke-linecap="round" stroke-linejoin="round"/>
<path d="M242.69,959.69L248.62,963.22L259.9,961.93L260.14,972.37L274,962.81L286.01,965.69L295.32,953.47L294.23,942.59L288.36,927.8L299.3,927.73L304.42,920.38L319.49,925.84L320.31,917.94L335.43,912.14L334.67,899.18L346.05,883.25L343.82,841.88L345.9,819.83L359.27,802.7L363.32,791.13L387.29,792.64L404.08,785.17L424.66,784.87L436.86,777.26L463.14,765.39L475.51,761.51L493.47,749.83L514.17,742.79L529.51,732.27L536.28,735.33L545.25,728.85L544.87,719.66L564.95,712.56L590.57,698.03L619.22,686.86L630.13,697.89L621.7,708.17L631.53,733.36L627.05,745.8L626.74,764.14L630.21,778.8L617.28,783.17L618.84,792.37L603.27,800.02L606.54,809.25L606.06,820.09L599.84,832.07L589.03,843.56L593.44,853.23L589.18,866.5L577.49,878.38L582.36,909.75L586.37,926.09L568.07,935.75L572.28,941.26L582.11,938.52L585.35,950.26L590.25,949.52L591.69,965.39L581.36,978.97L566.77,973.27L551.46,975.05L546.99,982.47L542.44,1007.82L521.31,1010.72L503.47,1008.25L500.99,1016.12L486.9,1013.72L481.58,1019.02L474.28,1034.7L474.4,1054.31L467.68,1057.49L470.87,1069.25L458.48,1079.39L457.97,1088.55L463.25,1097.86L456.43,1104.37L460.83,1126.58L483.26,1135.45L483.06,1156.72L471.8,1153.96L461.41,1163.31L460.43,1155.36L451.29,1137.2L437.06,1125.59L428.91,1126.64L402.7,1119.28L399.28,1127.96L387.98,1127.24L384.41,1119.63L372.78,1120.56L382.19,1105.38L364.34,1111.15L359.36,1102.66L352.91,1094.97L359.02,1083.88L349.76,1083.61L337.93,1062.41L338.54,1051.58L332.21,1050.14L328.38,1033.34L322.26,1025.23L295.78,1012.73L278.8,1001.76L269.31,1000.62L249.82,979.12L245.28,976.88L242.69,959.69Z" fill-rule="evenodd" fill="#4682b4" fill-opacity="0.471"/>
<polyline points="242.69,959.69 248.62,963.22 259.9,961.93 260.14,972.37 274,962.81 286.01,965.69 295.32,953.47 294.23,942.59 288.36,927.8 299.3,927.73 304.42,920.38 319.49,925.84 320.31,917.94 335.43,912.14 334.67,899.18 346.05,883.25 343.82,841.88 345.9,819.83 359.27,802.7 363.32,791.13 387.29,792.64 404.08,785.17 424.66,784.87 436.86,777.26 463.14,765.39 475.51,761.51 493.47,749.83 514.17,742.79 529.51,732.27 536.28,735.33 545.25,728.85 544.87,719.66 564.95,712.56 590.57,698.03 619.22,686.86 630.13,697.89 621.7,708.17 631.53,733.36 627.05,745.8 626.74,764.14 630.21,778.8 617.28,783.17 618.84,792.37 603.27,800.02 606.54,809.25 606.06,820.09 599.84,832.07 589.03,843.56 593.44,853.23 589.18,866.5 577.49,878.38 582.36,909.75 586.37,926.09 568.07,935.75 572.28,941.26 582.11,938.52 585.35,950.26 590.25,949.52 591.69,965.39 581.36,978.97 566.77,973.27 551.46,975.05 546.99,982.47 542.44,1007.82 521.31,1010.72 503.47,1008.25 500.99,1016.12 486.9,1013.72 481.58,1019.02 474.28,1034.7 474.4,1054.31 467.68,1057.49 470.87,1069.25 458.48,1079.39 457.97,1088.55 463.25,1097.86 456.43,1104.37 460.83,1126.58 483.26,1135.45 483.06,1156.72 471.8,1153.96 461.41,1163.31 460.43,1155.36 451.29,1137.2 437.06,1125.59 428.91,1126.64 402.7,1119.28 399.28,1127.96 387.98,1127.24 384.41,1119.63 372.78,1120.56 382.19,1105.38 364.34,1111.15 359.36,1102.66 352.91,1094.97 359.02,1083.88 349.76,1083.61 337.93,1062.41 338.54,1051.58 332.21,1050.14 328.38,1033.34 322.26,1025.23 295.78,1012.73 278.8,1001.76 269.31,1000.62 249.82,979.12 245.28,976.88 242.69,959.69" fill="none" stroke="#1e1e1e" stroke-width="1.48" stroke-linecap="round" stroke-linejoin="round"/>
<path d="M1724.29,102.53L1733.35,91.79L1749.93,82.46L1757.05,88.05L1757.89,96.37L1765.24,108.21L1779.18,110.22L1778.75,121.5L1785.15,129.62L1785.87,141.7L1794.99,155.55L1803.81,153.56L1819.18,155.91L1828.44,150.96L1840.2,167.62L1851.85,173.85L1850.74,180.99L1862.26,211.83L1882.5,216.03L1894.91,205.92L1924.38,204.27L1925.01,212.59L1940.5,229.04L1940.84,236.96L1929.12,256.66L1945.15,265.57L1947.06,270.92L1933.65,290.7L1927.78,290.95L1912.38,304.12L1915.53,319.01L1900.5,321.31L1889.04,342.64L1869.99,350.09L1852.62,350.77L1832.96,335.25L1822.06,343.59L1818.52,361.25L1799.2,362.38L1791.97,356.39L1788.36,365.28L1773.41,370.82L1772.49,384.62L1764.71,386.98L1762.63,399.99L1757.4,403.09L1753.03,423.27L1748.75,429.67L1737.14,427.56L1729.94,414.04L1729.85,402.77L1718.46,398.14L1713.3,412.5L1702.06,412.44L1703.41,401.97L1694.8,396.4L1696.11,384.68L1690.18,383.61L1678.07,373.15L1667.54,377.64L1667.3,388.08L1655.59,400.11L1644.87,398.76L1634.84,391.96L1635.54,386.94L1620.91,385.69L1615.27,375L1597.37,377.16L1585.68,359.54L1570.07,352.45L1573.35,316.9L1572.45,303.99L1575.27,294.32L1561.45,289.68L1556.32,296.48L1539.24,295.66L1521.19,300.27L1506.92,299.77L1493.37,306.34L1490.67,298.48L1471.37,284.72L1451.23,283.48L1440.89,269.09L1443.19,258.61L1455.8,248.34L1477.76,257.47L1479.54,249.92L1503.6,253.13L1528.98,252.95L1538.27,244.79L1540.6,226.38L1531.11,214.52L1535.45,209.82L1534.1,200.26L1538.63,191.8L1555.85,190.95L1577.47,177.46L1582.61,182.32L1604.34,183.82L1633.58,175.47L1640.2,164.43L1668.2,161.92L1681.72,150.23L1688.57,138.33L1698.88,130.91L1710.93,134.69L1714.75,124.13L1725.76,113.33L1724.29,102.53Z" fill-rule="evenodd" fill="#4682b4" fill-opacity="0.471"/>
<polyline points="1724.29,102.53 1733.35,91.79 1749.93,82.46 1757.05,88.05 1757.89,96.37 1765.24,108.21 1779.18,110.22 1778.75,121.5 1785.15,129.62 1785.87,141.7 1794.99,155.55 1803.81,153.56 1819.18,155.91 1828.44,150.96 1840.2,167.62 1851.85,173.85 1850.74,180.99 1862.26,211.83 1882.5,216.03 1894.91,205.92 1924.38,204.27 1925.01,212.59 1940.5,229.04 1940.84,236.96 1929.12,256.66 1945.15,265.57 1947.06,270.92 1933.65,290.7 1927.78,290.95 1912.38,304.12 1915.53,319.01 1900.5,321.31 1889.04,342.64 1869.99,350.09 1852.62,350.77 1832.96,335.25 1822.06,343.59 1818.52,361.25 1799.2,362.38 1791.97,356.39 1788.36,365.28 1773.41,370.82 1772.49,384.62 1764.71,386.98 1762.63,399.99 1757.4,403.09 1753.03,423.27 1748.75,429.67 1737.14,427.56 1729.94,414.04 1729.85,402.77 1718.46,398.14 1713.3,412.5 1702.06,412.44 1703.41,401.97 1694.8,396.4 1696.11,384.68 1690.18,383.61 1678.07,373.15 1667.54,377.64 1667.3,388.08 1655.59,400.11 1644.87,398.76 1634.84,391.96 1635.54,386.94 1620.91,385.69 1615.27,375 1597.37,377.16 1585.68,359.54 1570.07,352.45 1573.35,316.9 1572.45,303.99 1575.27,294.32 1561.45,289.68 1556.32,296.48 1539.24,295.66 1521.19,300.27 1506.92,299.77 1493.37,306.34 1490.67,298.48 1471.37,284.72 1451.23,283.48 1440.89,269.09 1443.19,258.61 1455.8,248.34 1477.76,257.47 1479.54,249.92 1503.6,253.13 1528.98,252.95 1538.27,244.79 1540.6,226.38 1531.11,214.52 1535.45,209.82 1534.1,200.26 1538.63,191.8 1555.85,190.95 1577.47,177.46 1582.61,182.32 1604.34,183.82 1633.58,175.47 1640.2,164.43 1668.2,161.92 1681.72,150.23 1688.57,138.33 1698.88,130.91 1710.93,134.69 1714.75,124.13 1725.76,113.33 1724.29,102.53" fill="none" stroke="#1e1e1e" stroke-width="1.48" stroke-linecap="round" stroke-linejoin="round"/>
<path d="M630.21,778.8L641.96,776.07L656.15,763.36L658.6,771.33L674.16,780.73L676.52,775.76L690.52,775.13L689.73,790.55L701.95,795.72L713.79,785.86L729.04,777.3L733.48,788.19L745.41,794.17L749.45,816.32L766.07,813.16L778.47,802.45L773.45,790.3L782.93,785.39L797.51,783.86L796.13,778.01L806.47,771.85L819.72,756.95L816.06,751.08L834.33,748.3L833.94,762.06L842.44,771.71L843.25,778.39L857.03,810.18L856.42,817.26L847.74,830.97L831.65,839.61L821.62,839.95L814.92,854.07L825.1,872.08L825.81,891.27L830.9,900.9L831.63,918.01L822.6,934.2L821.4,940.45L825.51,966.34L831.49,975.14L828.45,996.8L814.34,994.61L818.59,1002.98L807.36,1035.42L807.87,1043.35L796.74,1059.93L780.55,1059.36L754.72,1041.58L750.47,1034.44L729.82,1021.69L720.8,1004.07L721.53,992.4L704.23,991.76L682.17,1002.3L687.56,988.62L674.4,981.34L673.74,967.15L677.91,958.03L667.62,952.88L666.68,938.27L657.32,929.79L643.42,935.83L630.51,933.95L620.39,937.12L623.67,964.7L613.8,969.54L602.58,968.51L590.61,977.05L581.36,978.97L591.69,965.39L590.25,949.52L585.35,950.26L582.11,938.52L572.28,941.26L568.07,935.75L586.37,926.09L582.36,909.75L577.49,878.38L589.18,866.5L593.44,853.23L589.03,843.56L599.84,832.07L606.06,820.09L606.54,809.25L603.27,800.02L618.84,792.37L617.28,783.17L630.21,778.8Z" fill-rule="evenodd" fill="#4682b4" fill-opacity="0.471"/>
<polyline points="630.21,778.8 641.96,776.07 656.15,763.36 658.6,771.33 674.16,780.73 676.52,775.76 690.52,775.13 689.73,790.55 701.95,795.72 713.79,785.86 729.04,777.3 733.48,788.19 745.41,794.17 749.45,816.32 766.07,813.16 778.47,802.45 773.45,790.3 782.93,785.39 797.51,783.86 796.13,778.01 806.47,771.85 819.72,756.95 816.06,751.08 834.33,748.3 833.94,762.06 842.44,771.71 843.25,778.39 857.03,810.18 856.42,817.26 847.74,830.97 831.65,839.61 821.62,839.95 814.92,854.07 825.1,872.08 825.81,891.27 830.9,900.9 831.63,918.01 822.6,934.2 821.4,940.45 825.51,966.34 831.49,975.14 828.45,996.8 814.34,994.61 818.59,1002.98 807.36,1035.42 807.87,1043.35 796.74,1059.93 780.55,1059.36 754.72,1041.58 750.47,1034.44 729.82,1021.69 720.8,1004.07 721.53,992.4 704.23,991.76 682.17,1002.3 687.56,988.62 674.4,981.34 673.74,967.15 677.91,958.03 667.62,952.88 666.68,938.27 657.32,929.79 643.42,935.83 630.51,933.95 620.39,937.12 623.67,964.7 613.8,969.54 602.58,968.51 590.61,977.05 581.36,978.97 591.69,965.39 590.25,949.52 585.35,950.26 582.11,938.52 572.28,941.26 568.07,935.75 586.37,926.09 582.36,909.75 577.49,878.38 589.18,866.5 593.44,853.23 589.03,843.56 599.84,832.07 606.06,820.09 606.54,809.25 603.27,800.02 618.84,792.37 617.28,783.17 630.21,778.8" fill="none" stroke="#1e1e1e" stroke-width="1.48" stroke-linecap="round" stroke-linejoin="round"/>
<path d="M33.31,722.93L52.5,707.89L57.6,695.17L72.6,690.8L73.64,686.25L76.25,685.11L89.06,671.44L109.24,672.26L131.77,671.07L139.58,675.13L143.24,668.59L138.69,661.32L152.03,647.23L138.38,640.03L137.02,631.21L155.62,620.25L152.56,610.95L134.6,613.17L135.06,594L127.94,594.97L125.15,586.51L130.41,582.55L132.95,568.46L143.35,563.02L146.74,556.06L140.3,532.44L132.39,525.04L139.11,519.46L136.38,502.66L141.83,500.37L150.75,510.73L157.29,502.22L173.3,504.49L176.95,497.54L193.95,488.15L206.17,501.53L227.64,493.11L250.91,489.33L261.1,505.11L273.78,505.95L276.41,511.87L309.12,486.22L313.37,494.7L307.92,506.63L322.87,507.09L334.74,497.03L342.02,498.91L345.91,520.3L352.16,528.41L375.48,543.27L359.51,547.82L352.23,555.12L347.28,569.57L349.74,582.16L349.35,605.09L344.89,612.05L350.17,644.74L341.16,651.57L332.23,646.3L314.72,652.02L309.41,658.11L308.52,668.52L298.8,661.12L288.5,663.29L292.59,677.61L282.94,685.64L282.12,693.54L265.33,693L263.5,688.35L235.36,686.98L232.47,696.47L225.88,697.5L223.85,706.61L212,703.27L191.8,702.54L181.43,705.5L162.9,728.6L160.53,738.52L143.27,742.04L143.09,754.13L124.66,765.1L116.85,760.2L109.02,770.33L110.95,779.17L104.34,787.25L89.74,773.3L88.15,763.22L88.78,754.9L96.58,752.71L99.49,737.39L85.38,726.38L66.75,721.44L50.47,728.68L39.05,728.6L33.31,722.93Z" fill-rule="evenodd" fill="#4682b4" fill-opacity="0.471"/>
<polyline points="33.31,722.93 52.5,707.89 57.6,695.17 72.6,690.8 73.64,686.25 76.25,685.11 89.06,671.44 109.24,672.26 131.77,671.07 139.58,675.13 143.24,668.59 138.69,661.32 152.03,647.23 138.38,640.03 137.02,631.21 155.62,620.25 152.56,610.95 134.6,613.17 135.06,594 127.94,594.97 125.15,586.51 130.41,582.55 132.95,568.46 143.35,563.02 146.74,556.06 140.3,532.44 132.39,525.04 139.11,519.46 136.38,502.66 141.83,500.37 150.75,510.73 157.29,502.22 173.3,504.49 176.95,497.54 193.95,488.15 206.17,501.53 227.64,493.11 250.91,489.33 261.1,505.11 273.78,505.95 276.41,511.87 309.12,486.22 313.37,494.7 307.92,506.63 322.87,507.09 334.74,497.03 342.02,498.91 345.91,520.3 352.16,528.41 375.48,543.27 359.51,547.82 352.23,555.12 347.28,569.57 349.74,582.16 349.35,605.09 344.89,612.05 350.17,644.74 341.16,651.57 332.23,646.3 314.72,652.02 309.41,658.11 308.52,668.52 298.8,661.12 288.5,663.29 292.59,677.61 282.94,685.64 282.12,693.54 265.33,693 263.5,688.35 235.36,686.98 232.47,696.47 225.88,697.5 223.85,706.61 212,703.27 191.8,702.54 181.43,705.5 162.9,728.6 160.53,738.52 143.27,742.04 143.09,754.13 124.66,765.1 116.85,760.2 109.02,770.33 110.95,779.17 104.34,787.25 89.74,773.3 88.15,763.22 88.78,754.9 96.58,752.71 99.49,737.39 85.38,726.38 66.75,721.44 50.47,728.68 39.05,728.6 33.31,722.93" fill="none" stroke="#1e1e1e" stroke-width="1.48" stroke-linecap="round" stroke-linejoin="round"/>
<path d="M342.02,498.91L360.13,497.36L376.09,501.57L381.29,497.55L395.44,495.85L404.34,479.83L418.59,495.23L418.7,501.9L429.33,505.52L443.25,490.44L450.41,497.29L463.5,492.61L480.71,492.61L491.86,486.19L501.72,486.42L514.41,511.73L514.19,521.73L504.06,532.77L498.08,534.72L498.31,549.74L505.04,551.98L505.92,563.26L512.11,564.65L512.45,549.22L524.06,548.64L525.22,534.07L542.14,521.91L556.24,522.62L560.22,535.63L566.56,543.68L584.61,545.69L588.17,551.6L589.25,569.55L595.49,568.83L600.13,578.51L606.59,581.13L615.18,575.44L622.17,580.57L629.32,593.2L637.41,600.42L633.16,617.87L637.2,647.96L630.3,653.27L632.65,665.82L639.84,678.03L632.3,686.66L630.13,697.89L619.22,686.86L590.57,698.03L564.95,712.56L544.87,719.66L545.25,728.85L536.28,735.33L529.51,732.27L514.17,742.79L493.47,749.83L475.51,761.51L463.14,765.39L436.86,777.26L424.66,784.87L404.08,785.17L387.71,767.2L385.94,758.81L378.14,751.92L380.76,739.89L379.11,727.33L367.25,713.23L352.44,713.23L350.85,709.01L358,697.95L352.43,684.02L327.87,677.45L328.27,673.71L309.41,658.11L314.72,652.02L332.23,646.3L341.16,651.57L350.17,644.74L344.89,612.05L349.35,605.09L349.74,582.16L347.28,569.57L352.23,555.12L359.51,547.82L375.48,543.27L352.16,528.41L345.91,520.3L342.02,498.91Z" fill-rule="evenodd" fill="#4682b4" fill-opacity="0.471"/>
<polyline points="342.02,498.91 360.13,497.36 376.09,501.57 381.29,497.55 395.44,495.85 404.34,479.83 418.59,495.23 418.7,501.9 429.33,505.52 443.25,490.44 450.41,497.29 463.5,492.61 480.71,492.61 491.86,486.19 501.72,486.42 514.41,511.73 514.19,521.73 504.06,532.77 498.08,534.72 498.31,549.74 505.04,551.98 505.92,563.26 512.11,564.65 512.45,549.22 524.06,548.64 525.22,534.07 542.14,521.91 556.24,522.62 560.22,535.63 566.56,543.68 584.61,545.69 588.17,551.6 589.25,569.55 595.49,568.83 600.13,578.51 606.59,581.13 615.18,575.44 622.17,580.57 629.32,593.2 637.41,600.42 633.16,617.87 637.2,647.96 630.3,653.27 632.65,665.82 639.84,678.03 632.3,686.66 630.13,697.89 619.22,686.86 590.57,698.03 564.95,712.56 544.87,719.66 545.25,728.85 536.28,735.33 529.51,732.27 514.17,742.79 493.47,749.83 475.51,761.51 463.14,765.39 436.86,777.26 424.66,784.87 404.08,785.17 387.71,767.2 385.94,758.81 378.14,751.92 380.76,739.89 379.11,727.33 367.25,713.23 352.44,713.23 350.85,709.01 358,697.95 352.43,684.02 327.87,677.45 328.27,673.71 309.41,658.11 314.72,652.02 332.23,646.3 341.16,651.57 350.17,644.74 344.89,612.05 349.35,605.09 349.74,582.16 347.28,569.57 352.23,555.12 359.51,547.82 375.48,543.27 352.16,528.41 345.91,520.3 342.02,498.91" fill="none" stroke="#1e1e1e" stroke-width="1.48" stroke-linecap="round" stroke-linejoin="round"/>
<path d="M309.41,658.11L328.27,673.71L327.87,677.45L352.43,684.02L358,697.95L350.85,709.01L352.44,713.23L367.25,713.23L379.11,727.33L380.76,739.89L378.14,751.92L385.94,758.81L387.71,767.2L404.08,785.17L387.29,792.64L363.32,791.13L359.27,802.7L345.9,819.83L343.82,841.88L346.05,883.25L334.67,899.18L335.43,912.14L320.31,917.94L319.49,925.84L304.42,920.38L299.3,927.73L288.36,927.8L294.23,942.59L295.32,953.47L286.01,965.69L274,962.81L260.14,972.37L259.9,961.93L248.62,963.22L242.69,959.69L244.02,954.31L222.02,932.28L205.08,931.27L195.56,923.83L183.76,900.04L173.49,897.99L144.3,879.37L140.67,854.19L134.01,848.51L123.66,834.34L117.68,833.27L108.08,822.45L109.34,812.49L116.74,813.62L120.16,799.56L103.18,794.71L104.34,787.25L110.95,779.17L109.02,770.33L116.85,760.2L124.66,765.1L143.09,754.13L143.27,742.04L160.53,738.52L162.9,728.6L181.43,705.5L191.8,702.54L212,703.27L223.85,706.61L225.88,697.5L232.47,696.47L235.36,686.98L263.5,688.35L265.33,693L282.12,693.54L282.94,685.64L292.59,677.61L288.5,663.29L298.8,661.12L308.52,668.52L309.41,658.11Z" fill-rule="evenodd" fill="#4682b4" fill-opacity="0.471"/>
<polyline points="309.41,658.11 328.27,673.71 327.87,677.45 352.43,684.02 358,697.95 350.85,709.01 352.44,713.23 367.25,713.23 379.11,727.33 380.76,739.89 378.14,751.92 385.94,758.81 387.71,767.2 404.08,785.17 387.29,792.64 363.32,791.13 359.27,802.7 345.9,819.83 343.82,841.88 346.05,883.25 334.67,899.18 335.43,912.14 320.31,917.94 319.49,925.84 304.42,920.38 299.3,927.73 288.36,927.8 294.23,942.59 295.32,953.47 286.01,965.69 274,962.81 260.14,972.37 259.9,961.93 248.62,963.22 242.69,959.69 244.02,954.31 222.02,932.28 205.08,931.27 195.56,923.83 183.76,900.04 173.49,897.99 144.3,879.37 140.67,854.19 134.01,848.51 123.66,834.34 117.68,833.27 108.08,822.45 109.34,812.49 116.74,813.62 120.16,799.56 103.18,794.71 104.34,787.25 110.95,779.17 109.02,770.33 116.85,760.2 124.66,765.1 143.09,754.13 143.27,742.04 160.53,738.52 162.9,728.6 181.43,705.5 191.8,702.54 212,703.27 223.85,706.61 225.88,697.5 232.47,696.47 235.36,686.98 263.5,688.35 265.33,693 282.12,693.54 282.94,685.64 292.59,677.61 288.5,663.29 298.8,661.12 308.52,668.52 309.41,658.11" fill="none" stroke="#1e1e1e" stroke-width="1.48" stroke-linecap="round" stroke-linejoin="round"/>
<text x="908.66" y="876.21" font-family="sans-serif" font-size="14" stroke="#ffffff" stroke-opacity="0.784" stroke-width="2.33" stroke-linejoin="round" paint-order="stroke" fill="#141414">Bács-Kiskun</text>
<text x="1304.16" y="192.78" font-family="sans-serif" font-size="14" stroke="#ffffff" stroke-opacity="0.784" stroke-width="2.33" stroke-linejoin="round" paint-order="stroke" fill="#141414">Borsod-Abaúj-Zemplén</text>
<text x="899.8" y="522.12" font-family="sans-serif" font-size="14" stroke="#ffffff" stroke-opacity="0.784" stroke-width="2.33" stroke-linejoin="round" paint-order="stroke" fill="#141414">Pest megye</text>
<text x="1496.85" y="493.29" font-family="sans-serif" font-size="14" stroke="#ffffff" stroke-opacity="0.784" stroke-width="2.33" stroke-linejoin="round" paint-order="stroke" fill="#141414">Hajdú-Bihar</text>
<text x="1606.14" y="270.57" font-family="sans-serif" font-size="14" stroke="#ffffff" stroke-opacity="0.784" stroke-width="2.33" stroke-linejoin="round" paint-order="stroke" fill="#141414">Szabolcs-Szatmár-Bereg</text>
<text x="421.75" y="919.51" font-family="sans-serif" font-size="14" stroke="#ffffff" stroke-opacity="0.784" stroke-width="2.33" stroke-linejoin="round" paint-order="stroke" fill="#141414">Somogy</text>
<text x="1403.28" y="803.36" font-family="sans-serif" font-size="14" stroke="#ffffff" stroke-opacity="0.784" stroke-width="2.33" stroke-linejoin="round" paint-order="stroke" fill="#141414">Békés</text>
<text x="1157.18" y="585.42" font-family="sans-serif" font-size="14" stroke="#ffffff" stroke-opacity="0.784" stroke-width="2.33" stroke-linejoin="round" paint-order="stroke" fill="#141414">Jász-Nagykun-Szolnok</text>
<text x="428.4" y="636.44" font-family="sans-serif" font-size="14" stroke="#ffffff" stroke-opacity="0.784" stroke-width="2.33" stroke-linejoin="round" paint-order="stroke" fill="#141414">Veszprém</text>
<text x="702.06" y="640.6" font-family="sans-serif" font-size="14" stroke="#ffffff" stroke-opacity="0.784" stroke-width="2.33" stroke-linejoin="round" paint-order="stroke" fill="#141414">Fejér</text>
<text x="587.3" y="1095.02" font-family="sans-serif" font-size="14" stroke="#ffffff" stroke-opacity="0.784" stroke-width="2.33" stroke-linejoin="round" paint-order="stroke" fill="#141414">Baranya</text>
<text x="284.61" y="419.14" font-family="sans-serif" font-size="14" stroke="#ffffff" stroke-opacity="0.784" stroke-width="2.33" stroke-linejoin="round" paint-order="stroke" fill="#141414">Győr-Moson-Sopron</text>
<text x="1167.46" y="934.17" font-family="sans-serif" font-size="14" stroke="#ffffff" stroke-opacity="0.784" stroke-width="2.33" stroke-linejoin="round" paint-order="stroke" fill="#141414">Csongrád</text>
<text x="235.29" y="814.02" font-family="sans-serif" font-size="14" stroke="#ffffff" stroke-opacity="0.784" stroke-width="2.33" stroke-linejoin="round" paint-order="stroke" fill="#141414">Zala</text>
<text x="1166.74" y="367.57" font-family="sans-serif" font-size="14" stroke="#ffffff" stroke-opacity="0.784" stroke-width="2.33" stroke-linejoin="round" paint-order="stroke" fill="#141414">Heves</text>
<text x="699.32" y="899.71" font-family="sans-serif" font-size="14" stroke="#ffffff" stroke-opacity="0.784" stroke-width="2.33" stroke-linejoin="round" paint-order="stroke" fill="#141414">Tolna</text>
<text x="203.04" y="619.63" font-family="sans-serif" font-size="14" stroke="#ffffff" stroke-opacity="0.784" stroke-width="2.33" stroke-linejoin="round" paint-order="stroke" fill="#141414">Vas</text>
<text x="972.94" y="284.99" font-family="sans-serif" font-size="14" stroke="#ffffff" stroke-opacity="0.784" stroke-width="2.33" stroke-linejoin="round" paint-order="stroke" fill="#141414">Nógrád</text>
<text x="571.04" y="440.03" font-family="sans-serif" font-size="14" stroke="#ffffff" stroke-opacity="0.784" stroke-width="2.33" stroke-linejoin="round" paint-order="stroke" fill="#141414">Komárom-Esztergom</text>
<text x="846.3" y="494.03" font-family="sans-serif" font-size="14" stroke="#ffffff" stroke-opacity="0.784" stroke-width="2.33" stroke-linejoin="round" paint-order="stroke" fill="#141414">Budapest</text>
</svg>
