<?xml version="1.0" encoding="UTF-8" standalone="no"?>
<svg xmlns="http://www.w3.org/2000/svg" width="2000" height="1716" viewBox="0 0 2000 1716">
<rect width="2000" height="1716" fill="#ffffff"/>
<polyline points="688.67,1563.81 691.31,1563.56 688.65,1561.7 689.76,1560.15 690.83,1561.17 692.02,1561.12 691.94,1560.34 691.3,1560.92 689.84,1559.97 690.37,1559.31 691.47,1559.86 690.36,1559.21 691.39,1558.65 691.49,1559.89 692.47,1560.3 691.69,1559.9 692.45,1560.02 691.74,1559.56 692.35,1559.45 693.25,1560.44 692.55,1560.19 692.39,1561.25 692.96,1561.28 691.94,1561.33 692.35,1562.16 691.09,1564.22 692.17,1565.01 693,1564.84 693.19,1562.9 694.23,1563.69 693.62,1566.28 694.38,1565.38 695.32,1566.19 693.37,1566.39 693.18,1568.15 694.05,1566.97 696.01,1566.96 695.49,1568.61 693.11,1568.23 692.94,1569.52 693.83,1569.26 695.04,1570.44 693.52,1571.33 697.63,1571.19 696.88,1571.92 698.94,1576.27 698.33,1576.98 696.77,1572.19 695.41,1572.15 695.6,1574.94 694.83,1575.32 693.64,1574 694.33,1575.49 693.42,1576.02 692,1572.19 692.48,1571.73 689.73,1571.87 689.97,1571.14 691.64,1571.35 691.68,1569.15 690.43,1569.28 691.04,1569.25 690.49,1570.08 689.44,1568.99 689.5,1567.57 690.44,1567.21 689.35,1566.98 689.19,1568.98 688.31,1569.52 687.28,1567.49 686.33,1567.93 685.35,1566.64 686.17,1565.69 684.71,1564.56 684.94,1563.02 686.81,1564.53 686.82,1562.82 688.67,1563.81" fill="none" stroke="#1e1e1e" stroke-width="1.04" stroke-linecap="round" stroke-linejoin="round"/>
<polyline points="1052.88,1688.01 1053.31,1686.6 1055.79,1686.11 1056.95,1687.71 1057.23,1690.66 1053.83,1689.84 1052.88,1688.01" fill="none" stroke="#1e1e1e" stroke-width="1.04" stroke-linecap="round" stroke-linejoin="round"/>
<polyline points="499.42,1342.91 496.03,1346.07 498.84,1343.1 497.41,1342.63 499.42,1342.91" fill="none" stroke="#1e1e1e" stroke-width="1.04" stroke-linecap="round" stroke-linejoin="round"/>
<polyline points="470.92,1196.3 473.16,1195.49 474.06,1197.14 477.2,1198.37 481.69,1203.45 481.63,1204.94 480.13,1205.16 477.61,1203.9 475.47,1201.02 468.52,1200.45 469.78,1197.15 470.92,1196.3" fill="none" stroke="#1e1e1e" stroke-width="1.04" stroke-linecap="round" stroke-linejoin="round"/>
<polyline points="427.76,1204.17 429.44,1203.06 429.4,1203.76 427.76,1204.17" fill="none" stroke="#1e1e1e" stroke-width="1.04" stroke-linecap="round" stroke-linejoin="round"/>
<polyline points="467.62,1194.46 466.92,1193.65 467.62,1194.46" fill="none" stroke="#1e1e1e" stroke-width="1.04" stroke-linecap="round" stroke-linejoin="round"/>
<polyline points="579.59,1465.72 578.2,1463.82 577.88,1464.82 577.69,1462.05 579.59,1465.72" fill="none" stroke="#1e1e1e" stroke-width="1.04" stroke-linecap="round" stroke-linejoin="round"/>
<polyline points="565.79,1455.9 565.44,1453.25 566.55,1453.71 566.73,1454.82 565.79,1455.9" fill="none" stroke="#1e1e1e" stroke-width="1.04" stroke-linecap="round" stroke-linejoin="round"/>
<polyline points="613.98,1400.77 614.93,1399.19 613.98,1400.77" fill="none" stroke="#1e1e1e" stroke-width="1.04" stroke-linecap="round" stroke-linejoin="round"/>
<polyline points="587.89,1463.67 590.22,1464.42 587.89,1463.67" fill="none" stroke="#1e1e1e" stroke-width="1.04" stroke-linecap="round" stroke-linejoin="round"/>
<polyline points="587.38,1468.16 588.27,1465.81 587.38,1468.16" fill="none" stroke="#1e1e1e" stroke-width="1.04" stroke-linecap="round" stroke-linejoin="round"/>
<polyline points="559.15,1439 558.64,1437.71 561.85,1435.71 561.59,1438.18 559.15,1439" fill="none" stroke="#1e1e1e" stroke-width="1.04" stroke-linecap="round" stroke-linejoin="round"/>
<polyline points="552.17,1434.35 551.5,1434.25 551.46,1431.71 552.17,1431.17 553.15,1432.72 552.17,1434.35" fill="none" stroke="#1e1e1e" stroke-width="1.04" stroke-linecap="round" stroke-linejoin="round"/>
<polyline points="563.24,1452.78 562.74,1452.88 563.25,1450.73 564.93,1450.32 564.61,1451.81 563.07,1451.9 563.24,1452.78" fill="none" stroke="#1e1e1e" stroke-width="1.04" stroke-linecap="round" stroke-linejoin="round"/>
<polyline points="691.68,1577.29 691.18,1579.01 690.23,1579.45 689.79,1577.61 689.75,1579.16 691.21,1579.09 691.02,1579.76 692.74,1578.15 693.06,1578.69 691.83,1579.38 692.98,1578.79 692.96,1579.36 693.94,1579.25 691.25,1579.83 691.69,1580.71 689.73,1581.25 691.07,1581.87 691.03,1583.27 690.55,1581.94 689.65,1581.79 690.15,1584.57 688.41,1579.83 687.12,1579.3 686.48,1577.07 687.87,1575.69 689.08,1575.69 689.68,1576.23 688.89,1576.73 690.62,1577.22 689.72,1577.58 691.68,1577.29" fill="none" stroke="#1e1e1e" stroke-width="1.04" stroke-linecap="round" stroke-linejoin="round"/>
<polyline points="755.09,1580.74 753.69,1579.91 754.69,1579.72 757.98,1583.1 755.09,1580.74" fill="none" stroke="#1e1e1e" stroke-width="1.04" stroke-linecap="round" stroke-linejoin="round"/>
<polyline points="749.63,1579.36 749,1577.68 752.57,1578.35 750.9,1578.1 749.44,1578.65 749.63,1579.36" fill="none" stroke="#1e1e1e" stroke-width="1.04" stroke-linecap="round" stroke-linejoin="round"/>
<polyline points="657.17,1574.2 659.92,1575.33 658.28,1575.22 657.17,1574.2" fill="none" stroke="#1e1e1e" stroke-width="1.04" stroke-linecap="round" stroke-linejoin="round"/>
<polyline points="784.87,1674.18 783.14,1673.59 784.63,1672.88 784.87,1674.18" fill="none" stroke="#1e1e1e" stroke-width="1.04" stroke-linecap="round" stroke-linejoin="round"/>
<polyline points="666.49,1655.78 665.42,1653.39 666.49,1655.78" fill="none" stroke="#1e1e1e" stroke-width="1.04" stroke-linecap="round" stroke-linejoin="round"/>
<polyline points="786.82,1626.59 786.24,1626.85 786.73,1624.96 786.82,1626.59" fill="none" stroke="#1e1e1e" stroke-width="1.04" stroke-linecap="round" stroke-linejoin="round"/>
<polyline points="783.98,1666.93 782.38,1668.18 783.22,1666.83 782.68,1665.55 783.98,1666.93" fill="none" stroke="#1e1e1e" stroke-width="1.04" stroke-linecap="round" stroke-linejoin="round"/>
<polyline points="657.86,1649.6 657.34,1647.74 654.38,1645.81 654.04,1644.05 656.2,1644.19 658.13,1645.6 657.99,1647.78 659.18,1651.85 657.86,1649.6" fill="none" stroke="#1e1e1e" stroke-width="1.04" stroke-linecap="round" stroke-linejoin="round"/>
<polyline points="777.4,1390.53 777.94,1389.92 777.02,1390.33 772.85,1382.04 777.37,1387.7 777.4,1389.21 776.41,1388.9 777.4,1390.53" fill="none" stroke="#1e1e1e" stroke-width="1.04" stroke-linecap="round" stroke-linejoin="round"/>
<polyline points="670.43,1223.27 673.05,1218.62 671.45,1222.97 670.43,1223.27" fill="none" stroke="#1e1e1e" stroke-width="1.04" stroke-linecap="round" stroke-linejoin="round"/>
<polyline points="667.93,1233.08 665.58,1226.64 666.76,1226.05 670.87,1227.81 669.8,1230.32 670.5,1232.93 668.73,1233.79 667.93,1233.08" fill="none" stroke="#1e1e1e" stroke-width="1.04" stroke-linecap="round" stroke-linejoin="round"/>
<polyline points="700.8,1241.5 701.13,1237.99 700.8,1241.5" fill="none" stroke="#1e1e1e" stroke-width="1.04" stroke-linecap="round" stroke-linejoin="round"/>
<polyline points="553.39,1128.98 553.71,1128.21 555.06,1128.3 554.77,1129.15 553.39,1128.98" fill="none" stroke="#1e1e1e" stroke-width="1.04" stroke-linecap="round" stroke-linejoin="round"/>
<polyline points="558.8,1125.07 560.18,1124.1 564.81,1123.27 558.8,1125.07" fill="none" stroke="#1e1e1e" stroke-width="1.04" stroke-linecap="round" stroke-linejoin="round"/>
<polyline points="549.44,1113.86 547.79,1111.71 549.44,1113.86" fill="none" stroke="#1e1e1e" stroke-width="1.04" stroke-linecap="round" stroke-linejoin="round"/>
<polyline points="538.15,1103.48 537.21,1102.08 537.1,1099.21 538.76,1099.23 538.15,1103.48" fill="none" stroke="#1e1e1e" stroke-width="1.04" stroke-linecap="round" stroke-linejoin="round"/>
<polyline points="539.88,1102.73 539.23,1102.05 539.71,1101.7 539.88,1102.73" fill="none" stroke="#1e1e1e" stroke-width="1.04" stroke-linecap="round" stroke-linejoin="round"/>
<polyline points="539.18,1104.22 539.63,1103.26 539.18,1104.22" fill="none" stroke="#1e1e1e" stroke-width="1.04" stroke-linecap="round" stroke-linejoin="round"/>
<polyline points="549.04,1087.42 548.22,1088.07 546.3,1087.2 546.48,1083.76 548.8,1083.1 551.46,1083.51 551.56,1087.17 549.04,1087.42" fill="none" stroke="#1e1e1e" stroke-width="1.04" stroke-linecap="round" stroke-linejoin="round"/>
<polyline points="543.69,1083.7 542.8,1086.02 543.66,1086.16 544.02,1087.38 541.61,1087.06 541.02,1085.05 543.69,1083.7" fill="none" stroke="#1e1e1e" stroke-width="1.04" stroke-linecap="round" stroke-linejoin="round"/>
<polyline points="545.82,1086.76 544.23,1087.32 543.98,1086.14 543.03,1086.05 544.66,1083.21 546.53,1083.25 545.84,1085.52 545.13,1084.92 545.82,1086.76" fill="none" stroke="#1e1e1e" stroke-width="1.04" stroke-linecap="round" stroke-linejoin="round"/>
<polyline points="917.47,1695.86 917.49,1701.18 917.26,1699.2 915.98,1697.99 915.58,1696.27 917.47,1695.86" fill="none" stroke="#1e1e1e" stroke-width="1.04" stroke-linecap="round" stroke-linejoin="round"/>
<polyline points="870.09,1638.38 869.28,1637.35 870.13,1636.43 870.68,1637.38 870.09,1638.38" fill="none" stroke="#1e1e1e" stroke-width="1.04" stroke-linecap="round" stroke-linejoin="round"/>
<polyline points="1286.89,1556.81 1287.9,1555.93 1288.41,1553.65 1289.07,1555.89 1289.74,1555.86 1286.89,1556.81" fill="none" stroke="#1e1e1e" stroke-width="1.04" stroke-linecap="round" stroke-linejoin="round"/>
<polyline points="1277.29,1555.4 1276.85,1554.83 1277.65,1554.16 1277.29,1555.4" fill="none" stroke="#1e1e1e" stroke-width="1.04" stroke-linecap="round" stroke-linejoin="round"/>
<polyline points="1281.72,1556.57 1280.4,1556.14 1280.45,1555.07 1282.21,1555.41 1281.72,1556.57" fill="none" stroke="#1e1e1e" stroke-width="1.04" stroke-linecap="round" stroke-linejoin="round"/>
<polyline points="1345.33,1560.9 1343.45,1556.06 1345.33,1560.9" fill="none" stroke="#1e1e1e" stroke-width="1.04" stroke-linecap="round" stroke-linejoin="round"/>
<polyline points="1342.73,1551.3 1341.9,1548.12 1342.73,1551.3" fill="none" stroke="#1e1e1e" stroke-width="1.04" stroke-linecap="round" stroke-linejoin="round"/>
<polyline points="1421.17,1630.37 1419.59,1630.63 1419.64,1629.59 1420.4,1629.79 1421.27,1628.48 1421.17,1630.37" fill="none" stroke="#1e1e1e" stroke-width="1.04" stroke-linecap="round" stroke-linejoin="round"/>
<polyline points="1388.76,1622.5 1381.25,1621.81 1377.78,1620.41 1382.24,1621.93 1388.76,1622.5" fill="none" stroke="#1e1e1e" stroke-width="1.04" stroke-linecap="round" stroke-linejoin="round"/>
<polyline points="1831.17,1666.95 1830.75,1666.09 1831.17,1666.95" fill="none" stroke="#1e1e1e" stroke-width="1.04" stroke-linecap="round" stroke-linejoin="round"/>
<polyline points="1828.4,1667.81 1827.44,1666.97 1827.84,1666.54 1828.4,1667.81" fill="none" stroke="#1e1e1e" stroke-width="1.04" stroke-linecap="round" stroke-linejoin="round"/>
<polyline points="685.76,1574.81 686.25,1576.75 684.84,1576.77 685.76,1574.81" fill="none" stroke="#1e1e1e" stroke-width="1.04" stroke-linecap="round" stroke-linejoin="round"/>
<polyline points="1147.1,1702.24 1149.37,1702.37 1147.1,1702.24" fill="none" stroke="#1e1e1e" stroke-width="1.04" stroke-linecap="round" stroke-linejoin="round"/>
<polyline points="1150.5,1698.28 1151.07,1700.2 1150.5,1698.28" fill="none" stroke="#1e1e1e" stroke-width="1.04" stroke-linecap="round" stroke-linejoin="round"/>
<polyline points="1146.81,1700.09 1146.92,1702.05 1146.48,1700.3 1147.38,1698.54 1148.95,1697.65 1150.52,1697.98 1148.83,1697.97 1146.81,1700.09" fill="none" stroke="#1e1e1e" stroke-width="1.04" stroke-linecap="round" stroke-linejoin="round"/>
<polyline points="1147.52,1699.65 1148.1,1698.95 1148.33,1699.58 1148.43,1698.64 1148.52,1699.75 1149.06,1698.35 1148.67,1699.87 1149.73,1698.34 1148.81,1699.98 1150.28,1698.72 1148.91,1700.07 1150.45,1699.11 1149.04,1700.15 1150.51,1699.54 1149.15,1700.26 1150.49,1699.99 1149.28,1700.35 1150.67,1700.71 1150.95,1701.87 1149.2,1701.27 1149.14,1700.52 1149.03,1701.77 1149.02,1700.42 1148.6,1701.89 1148.9,1700.32 1148.18,1701.95 1148.78,1700.23 1147.75,1701.86 1148.68,1700.14 1147.27,1701.37 1148.55,1700.03 1147.17,1700.75 1148.37,1699.91 1147.52,1699.65" fill="none" stroke="#1e1e1e" stroke-width="1.04" stroke-linecap="round" stroke-linejoin="round"/>
<polyline points="946.01,157.93 944.63,155.23 944.82,149.86 942.84,146.14 943.03,129.77 943.84,125.83 945.35,123.06 948.19,122.37 949.13,122.83 948.1,123.76 947.8,122.48 945.81,123.56 944.82,126.97 944.8,142.58 946.14,157.23 944.81,155.18 946.01,157.93" fill="none" stroke="#1e1e1e" stroke-width="1.04" stroke-linecap="round" stroke-linejoin="round"/>
<polyline points="694.08,1563.13 694.64,1563.77 694.08,1563.13" fill="none" stroke="#1e1e1e" stroke-width="1.04" stroke-linecap="round" stroke-linejoin="round"/>
<polyline points="1149.44,1690.26 1149.6,1691.08 1148.81,1690.92 1148.92,1688.14 1149.44,1690.26" fill="none" stroke="#1e1e1e" stroke-width="1.04" stroke-linecap="round" stroke-linejoin="round"/>
<polyline points="1154.37,1686.71 1155.67,1686.89 1154.37,1686.71" fill="none" stroke="#1e1e1e" stroke-width="1.04" stroke-linecap="round" stroke-linejoin="round"/>
<polyline points="1155.06,1687.34 1154.55,1686.95 1155.8,1687.12 1155.06,1687.34" fill="none" stroke="#1e1e1e" stroke-width="1.04" stroke-linecap="round" stroke-linejoin="round"/>
<polyline points="1193.61,1651.39 1194.44,1649.94 1195.2,1650.53 1194.45,1652.23 1193.61,1651.39" fill="none" stroke="#1e1e1e" stroke-width="1.04" stroke-linecap="round" stroke-linejoin="round"/>
<polyline points="1193.55,1647.35 1194.22,1648.61 1193.72,1649.3 1193.55,1647.35" fill="none" stroke="#1e1e1e" stroke-width="1.04" stroke-linecap="round" stroke-linejoin="round"/>
<polyline points="534.88,1406.04 536.8,1405.92 535.75,1406.17 536.16,1407.01 535.12,1406.37 535.19,1407.87 535.06,1406.79 533.96,1407.02 534.98,1406.71 534.88,1406.04" fill="none" stroke="#1e1e1e" stroke-width="1.04" stroke-linecap="round" stroke-linejoin="round"/>
<polyline points="1197.88,1648 1196.62,1647.79 1197.48,1646.3 1197.88,1648" fill="none" stroke="#1e1e1e" stroke-width="1.04" stroke-linecap="round" stroke-linejoin="round"/>
<polyline points="1197.64,1645.92 1198.58,1646.38 1198.31,1646.95 1197.64,1645.92" fill="none" stroke="#1e1e1e" stroke-width="1.04" stroke-linecap="round" stroke-linejoin="round"/>
<polyline points="780.65,1670.28 780.2,1671.2 779.64,1670.29 779.54,1671.07 777.6,1670.06 779,1669.51 779.58,1670.19 781.47,1668.98 779.8,1669.95 780.65,1670.28" fill="none" stroke="#1e1e1e" stroke-width="1.04" stroke-linecap="round" stroke-linejoin="round"/>
<polyline points="783.78,1671.81 784.78,1670.15 783.78,1671.81" fill="none" stroke="#1e1e1e" stroke-width="1.04" stroke-linecap="round" stroke-linejoin="round"/>
<polyline points="954.19,1510.78 948.16,1507.53 946.93,1505.29 948.56,1504.86 957.88,1507.53 968.19,1508.6 967.84,1508.99 970.27,1511 961.19,1512.29 954.19,1510.78" fill="none" stroke="#1e1e1e" stroke-width="1.04" stroke-linecap="round" stroke-linejoin="round"/>
<polyline points="972.82,1512.07 971.73,1511.12 973.48,1511.45 972.82,1512.07" fill="none" stroke="#1e1e1e" stroke-width="1.04" stroke-linecap="round" stroke-linejoin="round"/>
<polyline points="1087.91,1613.14 1082.88,1612.41 1082.72,1610.7 1087.76,1608.58 1088.8,1610.97 1088.68,1612.81 1087.91,1613.14" fill="none" stroke="#1e1e1e" stroke-width="1.04" stroke-linecap="round" stroke-linejoin="round"/>
<polyline points="1085.94,1565.66 1087.01,1568.96 1085.6,1572.19 1084.43,1572.76 1081.33,1567.47 1081.9,1566.12 1083.58,1565.21 1085.94,1565.66" fill="none" stroke="#1e1e1e" stroke-width="1.04" stroke-linecap="round" stroke-linejoin="round"/>
<polyline points="1076.66,1588.19 1076.68,1587.01 1077.3,1587.1 1077.53,1588.01 1076.66,1588.19" fill="none" stroke="#1e1e1e" stroke-width="1.04" stroke-linecap="round" stroke-linejoin="round"/>
<polyline points="1291.77,1467.02 1294.04,1467.02 1291.77,1467.02" fill="none" stroke="#1e1e1e" stroke-width="1.04" stroke-linecap="round" stroke-linejoin="round"/>
<polyline points="1227.36,1495.42 1227.64,1494.27 1229.08,1494.27 1229.18,1493.15 1231.01,1492.63 1231.91,1491.31 1235.48,1491.25 1236.8,1490.06 1237.98,1490.12 1238.06,1489.18 1240.17,1489.34 1240.11,1488.71 1240.21,1489.32 1243.06,1487.29 1246.95,1486.92 1249.28,1485.27 1251.01,1486.46 1252.57,1486.21 1252.07,1485.28 1252.81,1486.17 1255.32,1485.81 1257.67,1487.64 1258.43,1487.84 1257.87,1487.09 1261.26,1488.75 1262.19,1490.19 1261.98,1491.45 1262.51,1490.73 1262.22,1491.85 1260.29,1493.03 1253.89,1493.93 1250.76,1495.56 1247.98,1503.23 1243.53,1506.9 1241.79,1510.08 1242.33,1510.24 1232.86,1515.84 1231.9,1517.42 1231.24,1517.26 1231.82,1518.12 1228.56,1520.77 1226.24,1521.48 1225.34,1517.77 1225.34,1518.69 1222.13,1516.06 1219.29,1515.95 1210.97,1521.66 1206.76,1521.9 1207.31,1523.02 1206.6,1522.78 1206.72,1521.89 1202.75,1521.76 1196.06,1526.84 1188.33,1529.19 1182.91,1533.06 1179.71,1532.4 1169.68,1536.42 1168.09,1535.18 1166.77,1535.32 1165.52,1537.42 1165.84,1538.12 1163.38,1538.02 1163.11,1539.19 1161.1,1537.49 1160.46,1534.93 1161.26,1531 1159.47,1526.04 1160.35,1525.26 1162.63,1526.58 1167.39,1527.3 1174.39,1523.71 1176.66,1523.79 1179.49,1522.66 1182.61,1520.62 1189.75,1519.11 1195.02,1516.04 1197.33,1512.71 1201.37,1511.06 1202.35,1511.53 1201.43,1510.99 1203.39,1507.97 1205.65,1510.79 1204.47,1511.14 1205.92,1510.86 1206.8,1511.68 1209.01,1510.98 1208.13,1510.4 1209.29,1509.53 1210,1510.52 1212.09,1509.66 1212.64,1508.79 1212.03,1509.64 1210.75,1508.78 1212.51,1506.66 1212.77,1507.7 1213.17,1506.03 1211.4,1507.47 1210.14,1505.97 1210.04,1505.27 1211.11,1504.79 1211.07,1506.06 1211.36,1504.8 1210.6,1499.45 1206.78,1495.05 1206.27,1493.12 1206.79,1492.39 1208.62,1491.53 1212.07,1492.16 1220.11,1497.46 1224,1496.82 1224.29,1495.71 1224.74,1496.42 1227.15,1495.57 1227.1,1494.04 1227.36,1495.42" fill="none" stroke="#1e1e1e" stroke-width="1.04" stroke-linecap="round" stroke-linejoin="round"/>
<polyline points="1287.46,1466.31 1289.73,1466.88 1287.46,1466.31" fill="none" stroke="#1e1e1e" stroke-width="1.04" stroke-linecap="round" stroke-linejoin="round"/>
<polyline points="1270.89,1497.77 1274.34,1497.78 1275.43,1498.87 1274.16,1501.66 1270.93,1504.07 1266.71,1505.05 1265.55,1503.01 1265.79,1500.98 1269.37,1497.17 1270.89,1497.77" fill="none" stroke="#1e1e1e" stroke-width="1.04" stroke-linecap="round" stroke-linejoin="round"/>
<polyline points="1166.44,1569.79 1166.17,1571.95 1163.92,1572.03 1162.72,1570.91 1163.33,1569.03 1164.92,1568.1 1165.79,1568.18 1166.44,1569.79" fill="none" stroke="#1e1e1e" stroke-width="1.04" stroke-linecap="round" stroke-linejoin="round"/>
<polyline points="1149.69,1572.91 1148.36,1573.7 1147.77,1572.38 1149.69,1572.91" fill="none" stroke="#1e1e1e" stroke-width="1.04" stroke-linecap="round" stroke-linejoin="round"/>
<polyline points="1158.87,1673.28 1157.56,1673.68 1157.75,1673.16 1159.92,1671.66 1158.78,1672.44 1158.87,1673.28" fill="none" stroke="#1e1e1e" stroke-width="1.04" stroke-linecap="round" stroke-linejoin="round"/>
<polyline points="1154.62,1690.28 1155.05,1688.21 1154.62,1690.28" fill="none" stroke="#1e1e1e" stroke-width="1.04" stroke-linecap="round" stroke-linejoin="round"/>
<polyline points="684.06,1569.15 684.91,1568.6 684.06,1569.15" fill="none" stroke="#1e1e1e" stroke-width="1.04" stroke-linecap="round" stroke-linejoin="round"/>
<polyline points="684.22,1567.9 685.4,1567.25 685.31,1568.6 684.22,1567.9" fill="none" stroke="#1e1e1e" stroke-width="1.04" stroke-linecap="round" stroke-linejoin="round"/>
<polyline points="683.08,1569.27 683.67,1568.78 683.68,1569.84 683.15,1570.04 683.08,1569.27" fill="none" stroke="#1e1e1e" stroke-width="1.04" stroke-linecap="round" stroke-linejoin="round"/>
<polyline points="687.04,1616.31 687.97,1616.6 687.04,1616.31" fill="none" stroke="#1e1e1e" stroke-width="1.04" stroke-linecap="round" stroke-linejoin="round"/>
<polyline points="685.48,1616.63 685.71,1617.58 685.48,1616.63" fill="none" stroke="#1e1e1e" stroke-width="1.04" stroke-linecap="round" stroke-linejoin="round"/>
<polyline points="686.24,1616.71 686.99,1616.84 686.56,1617.55 686.24,1616.71" fill="none" stroke="#1e1e1e" stroke-width="1.04" stroke-linecap="round" stroke-linejoin="round"/>
<polyline points="687.48,1615.68 687.98,1615.11 688.38,1615.91 687.48,1615.68" fill="none" stroke="#1e1e1e" stroke-width="1.04" stroke-linecap="round" stroke-linejoin="round"/>
<polyline points="687.55,1614.8 688.26,1614.13 687.55,1614.8" fill="none" stroke="#1e1e1e" stroke-width="1.04" stroke-linecap="round" stroke-linejoin="round"/>
<polyline points="687.22,1614.1 686.98,1613.38 687.8,1613.42 687.22,1614.1" fill="none" stroke="#1e1e1e" stroke-width="1.04" stroke-linecap="round" stroke-linejoin="round"/>
<polyline points="1197.06,1643.38 1196.33,1644.11 1201.51,1642.35 1207.55,1638.19 1203.71,1641.57 1200.85,1642.49 1201.03,1643.8 1200.22,1642.66 1198.04,1643.74 1198.21,1644.29 1197.58,1643.97 1197.83,1644.58 1196.17,1644.3 1194.63,1646.26 1197.06,1643.38" fill="none" stroke="#1e1e1e" stroke-width="1.04" stroke-linecap="round" stroke-linejoin="round"/>
<polyline points="1196.08,1645.7 1196.82,1644.6 1196.08,1645.7" fill="none" stroke="#1e1e1e" stroke-width="1.04" stroke-linecap="round" stroke-linejoin="round"/>
<polyline points="1153.39,1685.17 1152.74,1685.08 1153.39,1685.17" fill="none" stroke="#1e1e1e" stroke-width="1.04" stroke-linecap="round" stroke-linejoin="round"/>
<polyline points="1271.86,1556.05 1270.99,1557.45 1271.11,1559.84 1269.92,1560.38 1270.79,1555.37 1271.86,1556.05" fill="none" stroke="#1e1e1e" stroke-width="1.04" stroke-linecap="round" stroke-linejoin="round"/>
<polyline points="1172.61,1673.4 1173.54,1673.69 1174.12,1676.39 1173.37,1676.83 1171.37,1675.7 1172.61,1673.4" fill="none" stroke="#1e1e1e" stroke-width="1.04" stroke-linecap="round" stroke-linejoin="round"/>
<polyline points="1214.31,1634.47 1214.81,1633.81 1214.31,1634.47" fill="none" stroke="#1e1e1e" stroke-width="1.04" stroke-linecap="round" stroke-linejoin="round"/>
<polyline points="656.65,1547.8 657.53,1548.73 656.39,1552.16 656.65,1547.8" fill="none" stroke="#1e1e1e" stroke-width="1.04" stroke-linecap="round" stroke-linejoin="round"/>
<polyline points="642.19,41.65 642.67,42.31 641.91,42.38 642.19,41.65" fill="none" stroke="#1e1e1e" stroke-width="1.04" stroke-linecap="round" stroke-linejoin="round"/>
<polyline points="1209.76,1633.84 1210.66,1634.38 1210.08,1635.36 1209.18,1634.67 1209.76,1633.84" fill="none" stroke="#1e1e1e" stroke-width="1.04" stroke-linecap="round" stroke-linejoin="round"/>
<polyline points="1199.16,1644.66 1199.9,1645.9 1197.98,1644.8 1200.61,1642.82 1200.06,1643.28 1200.88,1644.18 1200.37,1643.5 1199.3,1643.98 1200.66,1644.19 1199.97,1644.02 1200.67,1644.58 1200.13,1645.02 1200.29,1644.45 1199.38,1644.23 1199.99,1645.55 1199.38,1644.32 1198.47,1644.66 1199.49,1645.21 1199.16,1644.66" fill="none" stroke="#1e1e1e" stroke-width="1.04" stroke-linecap="round" stroke-linejoin="round"/>
<polyline points="941.75,45.85 943.22,47.39 945.71,48.26 949.26,54.68 951.69,56.34 949.12,55.8 946.9,50.03 940.77,45.84" fill="none" stroke="#1e1e1e" stroke-width="1.04" stroke-linecap="round" stroke-linejoin="round"/>
<polyline points="1218.51,1630.94 1220.16,1630.09 1219.97,1631.27 1218.51,1630.94" fill="none" stroke="#1e1e1e" stroke-width="1.04" stroke-linecap="round" stroke-linejoin="round"/>
<polyline points="531.46,1401.46 530.29,1401.76 531.22,1401.24 530.99,1400.65 532.07,1400.71 531.46,1401.46" fill="none" stroke="#1e1e1e" stroke-width="1.04" stroke-linecap="round" stroke-linejoin="round"/>
<polyline points="534.92,1404.38 535.32,1403.87 534.62,1403.31 536.29,1403.53 535.26,1404.09 535.89,1404.8 534.92,1404.38" fill="none" stroke="#1e1e1e" stroke-width="1.04" stroke-linecap="round" stroke-linejoin="round"/>
<polyline points="531.49,1401.51 533.7,1401.69 531.82,1401.85 532.87,1401.98 532.3,1402.74 531.75,1402.07 530.81,1402.55 531.49,1401.51" fill="none" stroke="#1e1e1e" stroke-width="1.04" stroke-linecap="round" stroke-linejoin="round"/>
<polyline points="533.37,1403.98 534.83,1404.39 534.68,1405.48 535.69,1405.6 534.82,1406 533.65,1404.37 532.81,1404.98 533.37,1403.98" fill="none" stroke="#1e1e1e" stroke-width="1.04" stroke-linecap="round" stroke-linejoin="round"/>
<polyline points="780.54,1669.98 781.33,1669.2 781.45,1670.16 781.64,1669.39 782.55,1669.78 783.57,1672.07 782.06,1671.57 782.23,1670.6 781.74,1671.49 780.68,1671.46 781.22,1670.54 780.54,1669.98" fill="none" stroke="#1e1e1e" stroke-width="1.04" stroke-linecap="round" stroke-linejoin="round"/>
<polyline points="642.37,1580.86 642.13,1579.94 642.9,1580.45 642.37,1580.86" fill="none" stroke="#1e1e1e" stroke-width="1.04" stroke-linecap="round" stroke-linejoin="round"/>
<polyline points="677.29,1569.71 676.82,1567.66 675.49,1568.2 675.53,1567.07 676.71,1566.68 677.11,1568.4 678.17,1568.36 678.52,1569.22 677.12,1569.16 677.37,1569.79 678.94,1569.99 680.24,1568.24 681.99,1569.3 682.05,1568.26 683.21,1570.25 686.26,1568.16 687.36,1568.72 686.76,1569.17 686.98,1570.93 689.53,1572.21 688.29,1574.05 688.99,1574.57 688.07,1574.02 685.75,1574.69 683.52,1573.72 682.89,1574.43 683.33,1576.36 686.06,1579 685.54,1579.75 687.83,1580 689.46,1583.67 689.64,1584.97 688.91,1584.58 688.26,1585.35 689.46,1585.64 689.4,1588.17 688.69,1588.16 688.24,1589.97 689,1590.86 688.44,1591.64 689.57,1592.39 687.49,1599.84 688.22,1600.14 687.18,1600.38 687.51,1602.39 688.28,1602.42 687.22,1602.81 686.39,1606.76 687.6,1606.8 686.82,1607.08 686.5,1610.53 685.66,1611.09 687.24,1612.05 686.57,1611.78 686.57,1612.58 686.15,1611.81 686.48,1613.26 685.01,1613.98 686.34,1614.15 685.1,1614.53 685.3,1616.13 684.71,1615.23 683.98,1615.79 684.84,1616.58 683.98,1616.7 684.83,1616.81 683.63,1616.63 684.8,1617 682.69,1617.86 682.22,1619.94 680.28,1612.88 679.45,1611.51 678.39,1611.88 679.41,1611.47 677.7,1607.66 677.15,1607.57 677.35,1608.2 675.13,1605.25 672.51,1603.35 671.19,1600.38 671.22,1598.1 673.08,1596 673.13,1594.16 674.65,1591.2 674.06,1585.27 672.07,1581.01 671.15,1581.16 671.78,1580.24 671.09,1579.74 670.94,1577.56 671.55,1576.9 669.76,1577.06 671.47,1576.85 669.95,1576.78 671.26,1576.8 671.89,1575.9 670.99,1575.28 671.78,1575.55 672.1,1573.59 670.66,1572.06 672.59,1570.94 670.4,1571.74 671.38,1570.08 670.73,1569.55 672.06,1568.11 672.5,1570.45 672.08,1568.17 673.76,1567.97 673.5,1566.97 675.11,1566.37 674.77,1568 672.54,1568.92 672.78,1569.5 674.32,1569.11 672.43,1570.7 673.95,1569.83 677.29,1569.71" fill="none" stroke="#1e1e1e" stroke-width="1.04" stroke-linecap="round" stroke-linejoin="round"/>
<polyline points="1237.7,1611.56 1233.94,1618.05 1236.53,1613.69 1236.78,1611.28 1237.7,1611.56" fill="none" stroke="#1e1e1e" stroke-width="1.04" stroke-linecap="round" stroke-linejoin="round"/>
<polyline points="1168.72,1691.61 1167.97,1692.26 1168.72,1691.61" fill="none" stroke="#1e1e1e" stroke-width="1.04" stroke-linecap="round" stroke-linejoin="round"/>
<polyline points="1210.03,1636.29 1210.43,1635.18 1211.51,1635.63 1210.03,1636.29" fill="none" stroke="#1e1e1e" stroke-width="1.04" stroke-linecap="round" stroke-linejoin="round"/>
<polyline points="1211.33,1635.3 1211.04,1634.68 1212.16,1633.96 1211.33,1635.3" fill="none" stroke="#1e1e1e" stroke-width="1.04" stroke-linecap="round" stroke-linejoin="round"/>
<polyline points="1160.87,1686.75 1160.82,1685.94 1162.03,1686.92 1162.51,1686.01 1160.8,1684.61 1160.77,1682.88 1161.06,1684.88 1162.46,1685.7 1162.42,1684.78 1163.41,1684.77 1161.23,1683.51 1161.49,1681.39 1161.37,1683.01 1161.86,1683.16 1161.67,1681.63 1162.32,1681.41 1162.84,1683.79 1163.69,1684.1 1164.67,1682.62 1163.3,1682.99 1164.94,1681.45 1164.15,1680.77 1162.68,1681.77 1164.31,1680.73 1165.26,1682.28 1164.95,1683.35 1166.68,1683.58 1170.61,1688.21 1169.37,1690.17 1167.76,1690.05 1164.1,1692.61 1162.17,1692.75 1158.7,1690.51 1159.47,1690.77 1161.24,1688.19 1160.45,1687.51 1161.69,1687.3 1160.87,1686.75" fill="none" stroke="#1e1e1e" stroke-width="1.04" stroke-linecap="round" stroke-linejoin="round"/>
<polyline points="951.96,56.54 952.68,57.66 954.1,58.02 952.34,57.6 951.96,56.54" fill="none" stroke="#1e1e1e" stroke-width="1.04" stroke-linecap="round" stroke-linejoin="round"/>
<polyline points="1099.32,1680.13 1099.44,1678.94 1100.81,1679.02 1099.32,1680.13" fill="none" stroke="#1e1e1e" stroke-width="1.04" stroke-linecap="round" stroke-linejoin="round"/>
<polyline points="1201.85,1503.66 1201.56,1505.18 1200.39,1504.9 1201.15,1503.59 1201.85,1503.66" fill="none" stroke="#1e1e1e" stroke-width="1.04" stroke-linecap="round" stroke-linejoin="round"/>
<polyline points="1199.83,1501.77 1200.46,1500.96 1202.34,1501.35 1202.67,1499.08 1204.12,1500.31 1205.49,1499.17 1204.83,1501.34 1203.07,1503.36 1201.82,1501.83 1200.33,1502.53 1199.83,1501.77" fill="none" stroke="#1e1e1e" stroke-width="1.04" stroke-linecap="round" stroke-linejoin="round"/>
<polyline points="1206.38,1504.61 1203.47,1503.81 1205.99,1502.32 1206.38,1504.61" fill="none" stroke="#1e1e1e" stroke-width="1.04" stroke-linecap="round" stroke-linejoin="round"/>
<polyline points="1203.38,1505.91 1204.85,1507.18 1206.45,1505.09 1206.19,1510.51 1203.33,1507.42 1203.38,1505.91" fill="none" stroke="#1e1e1e" stroke-width="1.04" stroke-linecap="round" stroke-linejoin="round"/>
<polyline points="1209.49,1501.8 1210.73,1504.04 1210.52,1505.05 1208.82,1503.23 1209.49,1501.8" fill="none" stroke="#1e1e1e" stroke-width="1.04" stroke-linecap="round" stroke-linejoin="round"/>
<polyline points="1207.81,1502.7 1209.26,1505.49 1207.38,1504.64 1207.81,1502.7" fill="none" stroke="#1e1e1e" stroke-width="1.04" stroke-linecap="round" stroke-linejoin="round"/>
<polyline points="1207.38,1504.92 1208.69,1505.94 1208.33,1507.05 1207.27,1506.64 1207.38,1504.92" fill="none" stroke="#1e1e1e" stroke-width="1.04" stroke-linecap="round" stroke-linejoin="round"/>
<polyline points="1202.58,1498.6 1200.73,1495.65 1203.77,1493.62 1204.04,1495.75 1203.35,1498.36 1202.58,1498.6" fill="none" stroke="#1e1e1e" stroke-width="1.04" stroke-linecap="round" stroke-linejoin="round"/>
<polyline points="1199.73,1501.51 1199.37,1499.18 1201.04,1496.75 1202.28,1499.76 1199.73,1501.51" fill="none" stroke="#1e1e1e" stroke-width="1.04" stroke-linecap="round" stroke-linejoin="round"/>
<polyline points="1204.4,1495.57 1205.07,1498.45 1203.76,1497.3 1204.4,1495.57" fill="none" stroke="#1e1e1e" stroke-width="1.04" stroke-linecap="round" stroke-linejoin="round"/>
<polyline points="1203.34,1497.27 1205.37,1498.82 1204.17,1500.14 1202.2,1498.77 1203.44,1498.39 1203.34,1497.27" fill="none" stroke="#1e1e1e" stroke-width="1.04" stroke-linecap="round" stroke-linejoin="round"/>
<polyline points="1202.73,1503.4 1201.06,1503.1 1200.96,1502.29 1201.99,1502.03 1202.73,1503.4" fill="none" stroke="#1e1e1e" stroke-width="1.04" stroke-linecap="round" stroke-linejoin="round"/>
<polyline points="1202.05,1503.47 1201.26,1502.79 1202.05,1503.47" fill="none" stroke="#1e1e1e" stroke-width="1.04" stroke-linecap="round" stroke-linejoin="round"/>
<polyline points="1201.71,1504.21 1203.47,1504.07 1202.03,1505.12 1201.71,1504.21" fill="none" stroke="#1e1e1e" stroke-width="1.04" stroke-linecap="round" stroke-linejoin="round"/>
<polyline points="1203.02,1507.35 1200.67,1510.43 1200.39,1509.52 1201.72,1507 1203.02,1507.35" fill="none" stroke="#1e1e1e" stroke-width="1.04" stroke-linecap="round" stroke-linejoin="round"/>
<polyline points="1196.29,1512.06 1197.59,1510.01 1198.43,1510.64 1198.66,1511.36 1196.29,1512.06" fill="none" stroke="#1e1e1e" stroke-width="1.04" stroke-linecap="round" stroke-linejoin="round"/>
<polyline points="1199.56,1508.24 1198.43,1510.56 1197.64,1508.4 1199.56,1508.24" fill="none" stroke="#1e1e1e" stroke-width="1.04" stroke-linecap="round" stroke-linejoin="round"/>
<polyline points="1200.71,1508.59 1199.2,1509.48 1199.26,1508.48 1200.71,1508.59" fill="none" stroke="#1e1e1e" stroke-width="1.04" stroke-linecap="round" stroke-linejoin="round"/>
<polyline points="1201.49,1507.14 1199.9,1505.92 1200.62,1505.19 1201.95,1505.41 1201.49,1507.14" fill="none" stroke="#1e1e1e" stroke-width="1.04" stroke-linecap="round" stroke-linejoin="round"/>
<polyline points="1200.52,1505.15 1199.96,1506.1 1198.75,1505.57 1197.59,1506.99 1197.17,1506.54 1197.8,1504 1200.52,1505.15" fill="none" stroke="#1e1e1e" stroke-width="1.04" stroke-linecap="round" stroke-linejoin="round"/>
<polyline points="1200.26,1504.68 1197.8,1503.65 1197.5,1502.15 1198.45,1503.16 1199.65,1502.16 1200.51,1502.94 1200.26,1504.68" fill="none" stroke="#1e1e1e" stroke-width="1.04" stroke-linecap="round" stroke-linejoin="round"/>
<polyline points="1198.41,1503.04 1197.14,1501.97 1198.69,1500.44 1199.48,1502.22 1198.41,1503.04" fill="none" stroke="#1e1e1e" stroke-width="1.04" stroke-linecap="round" stroke-linejoin="round"/>
<polyline points="1199.39,1497.1 1199.66,1498.11 1198.57,1499.17 1199.39,1497.1" fill="none" stroke="#1e1e1e" stroke-width="1.04" stroke-linecap="round" stroke-linejoin="round"/>
<polyline points="1202.34,1500.58 1202.33,1501.25 1201.46,1501.02 1202.34,1500.58" fill="none" stroke="#1e1e1e" stroke-width="1.04" stroke-linecap="round" stroke-linejoin="round"/>
<polyline points="1203.88,1506.02 1203.13,1505.91 1202.71,1507.45 1201.75,1506.97 1202.03,1505.18 1203.31,1504.12 1206.21,1504.86 1205.19,1506.8 1203.88,1506.02" fill="none" stroke="#1e1e1e" stroke-width="1.04" stroke-linecap="round" stroke-linejoin="round"/>
<polyline points="1207.42,1507.8 1208.5,1509.26 1207.6,1509.09 1207.42,1507.8" fill="none" stroke="#1e1e1e" stroke-width="1.04" stroke-linecap="round" stroke-linejoin="round"/>
<polyline points="1197.91,1508.19 1197.7,1507.08 1198.78,1505.64 1201.72,1507.35 1200.8,1508.47 1197.91,1508.19" fill="none" stroke="#1e1e1e" stroke-width="1.04" stroke-linecap="round" stroke-linejoin="round"/>
<polyline points="1200.74,1508.58 1200.56,1510.59 1198.79,1511.23 1199.23,1509.52 1200.74,1508.58" fill="none" stroke="#1e1e1e" stroke-width="1.04" stroke-linecap="round" stroke-linejoin="round"/>
<polyline points="1220.47,1630.93 1220.27,1630.07 1221.03,1629.86 1220.47,1630.93" fill="none" stroke="#1e1e1e" stroke-width="1.04" stroke-linecap="round" stroke-linejoin="round"/>
<polyline points="779.5,1392.45 778.97,1393.28 779.5,1392.45" fill="none" stroke="#1e1e1e" stroke-width="1.04" stroke-linecap="round" stroke-linejoin="round"/>
<polyline points="787.85,1391.72 788.91,1391.34 787.76,1391.89 787.11,1391.19 787.85,1391.72" fill="none" stroke="#1e1e1e" stroke-width="1.04" stroke-linecap="round" stroke-linejoin="round"/>
<polyline points="563.93,1115.76 563.86,1117.01 563.93,1115.76" fill="none" stroke="#1e1e1e" stroke-width="1.04" stroke-linecap="round" stroke-linejoin="round"/>
<polyline points="563.3,1113.81 564,1113.92 563.4,1114.93 563.3,1113.81" fill="none" stroke="#1e1e1e" stroke-width="1.04" stroke-linecap="round" stroke-linejoin="round"/>
<polyline points="1139.58,1614.79 1140.04,1616.29 1137.84,1616.82 1136.12,1616.12 1135.19,1614.48 1138.24,1611.74 1139.58,1614.79" fill="none" stroke="#1e1e1e" stroke-width="1.04" stroke-linecap="round" stroke-linejoin="round"/>
<polyline points="1161.38,1686.16 1161.37,1685.17 1162.24,1685.72 1161.38,1686.16" fill="none" stroke="#1e1e1e" stroke-width="1.04" stroke-linecap="round" stroke-linejoin="round"/>
<polyline points="1158.9,1689.74 1159.14,1688.63 1158.32,1688.83 1158.81,1688.2 1159.86,1689.33 1158.9,1689.74" fill="none" stroke="#1e1e1e" stroke-width="1.04" stroke-linecap="round" stroke-linejoin="round"/>
<polyline points="992.01,1522.29 996.73,1523.51 998.81,1524.9 996.51,1527.07 992.55,1526.23 990.96,1523.92 992.01,1522.29" fill="none" stroke="#1e1e1e" stroke-width="1.04" stroke-linecap="round" stroke-linejoin="round"/>
<polyline points="1328.38,1493.85 1327.67,1491.69 1329.54,1494.57 1328.38,1493.85" fill="none" stroke="#1e1e1e" stroke-width="1.04" stroke-linecap="round" stroke-linejoin="round"/>
<polyline points="528.63,1393.75 529.1,1393.95 528.33,1393.81 528.16,1394.79 529.07,1395.19 527.25,1395.06 528.11,1394.57 527.47,1392.94 528.63,1393.75" fill="none" stroke="#1e1e1e" stroke-width="1.04" stroke-linecap="round" stroke-linejoin="round"/>
<polyline points="528.07,1395.46 528.36,1396.68 527.16,1396.19 528.07,1395.46" fill="none" stroke="#1e1e1e" stroke-width="1.04" stroke-linecap="round" stroke-linejoin="round"/>
<polyline points="529.16,1397.73 528.53,1396.74 529.65,1396.85 529.16,1397.73" fill="none" stroke="#1e1e1e" stroke-width="1.04" stroke-linecap="round" stroke-linejoin="round"/>
<polyline points="529.45,1398.21 530.52,1398.61 529.8,1398.98 529.13,1397.81 530.29,1396.8 530.39,1397.62 531.28,1397.53 529.45,1398.21" fill="none" stroke="#1e1e1e" stroke-width="1.04" stroke-linecap="round" stroke-linejoin="round"/>
<polyline points="530.37,1399.47 529.1,1399.84 529.97,1399.06 530.37,1399.47" fill="none" stroke="#1e1e1e" stroke-width="1.04" stroke-linecap="round" stroke-linejoin="round"/>
<polyline points="530.9,1400.53 530.37,1399.86 531.58,1399.96 530.9,1400.53" fill="none" stroke="#1e1e1e" stroke-width="1.04" stroke-linecap="round" stroke-linejoin="round"/>
<polyline points="458.32,1142.65 457.11,1141.23 457.15,1140.09 455.83,1139.7 456.22,1138.14 460.69,1137.56 466.38,1140.48 473.22,1147.97 475.02,1151.92 476.27,1150.59 477.78,1151.97 475.81,1153 477.91,1157.44 480.85,1160.19 480.96,1165.37 477.76,1171.92 468.34,1181.43 464.98,1183.04 462.34,1182.35 461.08,1181.06 458.98,1175.48 458.5,1171.21 455.35,1167.17 455.9,1164.51 454.76,1163.8 454.14,1161.91 451.04,1160.87 451.03,1158.29 450.39,1158.19 452.53,1156.17 455.09,1156.63 452.23,1156.16 452.51,1155.22 454.25,1154.82 457.4,1155.91 458.24,1155.31 454.14,1154.63 455.03,1153.56 452.66,1154.91 451.69,1154.2 452.59,1152.94 455.4,1152.33 457.34,1153.88 459.72,1154.32 458.12,1153.59 459.23,1152.62 455.27,1151.63 457.75,1150.03 460.04,1151.5 461.33,1154.97 462.25,1154.64 462.45,1152.89 461.69,1153.43 460.94,1152.96 461.5,1151.2 462.21,1151.56 461.86,1150.95 458.79,1150.15 457.64,1149.07 459.99,1149.17 460.3,1149.93 460.33,1148.71 461.34,1148.09 461.52,1150.31 463.21,1150.91 461.98,1149.98 462.25,1148.78 463.62,1149.19 462.37,1148.09 464.19,1147.45 465.91,1144.64 464.73,1145.19 465.47,1144.47 464.68,1144.7 464.81,1144.09 464.37,1144.92 464.78,1143.61 464.12,1144.56 463.97,1143.17 463.21,1143.03 463.3,1144.7 462.74,1143.43 462.1,1145.31 462.94,1147.05 462.83,1146.43 460.04,1147.72 459.59,1146.79 460.49,1146.19 459.3,1146.4 459.08,1145.3 459.74,1143.15 458.32,1142.65" fill="none" stroke="#1e1e1e" stroke-width="1.04" stroke-linecap="round" stroke-linejoin="round"/>
<polyline points="779.33,1652.35 779.41,1651.49 779.33,1652.35" fill="none" stroke="#1e1e1e" stroke-width="1.04" stroke-linecap="round" stroke-linejoin="round"/>
<polyline points="781.35,1653.91 780.52,1653.25 781.35,1653.91" fill="none" stroke="#1e1e1e" stroke-width="1.04" stroke-linecap="round" stroke-linejoin="round"/>
<polyline points="1196.87,1488.89 1198.47,1488.37 1198.72,1489.6 1198.55,1488.35 1200.7,1489.04 1199.55,1490.05 1197,1490.15 1196.47,1489.99 1196.87,1488.89" fill="none" stroke="#1e1e1e" stroke-width="1.04" stroke-linecap="round" stroke-linejoin="round"/>
<polyline points="1280.69,1480.64 1277.45,1480.17 1275.63,1478.55 1276.06,1476.02 1278.71,1472.91 1279.59,1474.18 1281.67,1473.91 1283.77,1476.73 1283.24,1479.54 1280.69,1480.64" fill="none" stroke="#1e1e1e" stroke-width="1.04" stroke-linecap="round" stroke-linejoin="round"/>
<polyline points="722.74,1257.97 722.37,1251.2 723.03,1250.36 724.53,1251.2 725.16,1256.65 722.74,1257.97" fill="none" stroke="#1e1e1e" stroke-width="1.04" stroke-linecap="round" stroke-linejoin="round"/>
<polyline points="564.41,1098.83 568.79,1110.38 568.34,1111.23 565.58,1111.94 565.7,1113.61 563.69,1115.6 564.56,1112.61 563.75,1112.33 563.22,1113.49 562.86,1112.08 562.75,1113.9 561.73,1111.88 561.78,1113.46 563.15,1115.02 562.89,1116.79 557.61,1112.17 554.81,1111.52 552.52,1109.55 546.16,1106.32 545.4,1105.28 545.51,1101.82 543.14,1099.85 539.9,1098.95 537.75,1095.01 541.26,1094.53 545.89,1096.98 547.49,1096.84 550.21,1094.3 551.12,1094.35 553.88,1095.98 557.12,1096.72 559.38,1098.57 562.54,1097.86 564.41,1098.83" fill="none" stroke="#1e1e1e" stroke-width="1.04" stroke-linecap="round" stroke-linejoin="round"/>
<polyline points="1223.52,1521.81 1225.62,1524.28 1224.47,1527.56 1222.98,1529.13 1219.84,1529.85 1218.64,1527.91 1221.84,1521.96 1223.22,1521.32 1223.52,1521.81" fill="none" stroke="#1e1e1e" stroke-width="1.04" stroke-linecap="round" stroke-linejoin="round"/>
<polyline points="1034.52,1539.64 1037.23,1542.06 1036.25,1544.34 1030.35,1545.29 1023.95,1543.13 1021.77,1539.24 1026.49,1535.91 1031.09,1537.27 1032.72,1536.34 1031.75,1537.31 1033.32,1537.28 1033.07,1536.48 1034.36,1537.59 1034.52,1539.64" fill="none" stroke="#1e1e1e" stroke-width="1.04" stroke-linecap="round" stroke-linejoin="round"/>
<polyline points="1020.62,323.13 1021.58,324.71 1021.2,326.08 1023.82,334.49 1023.68,336.04 1025.93,341.11 1025.79,342.84 1027.03,343.79 1026.32,344.07 1027.03,346.84 1027.84,346.82 1027.29,347.83 1029.36,348.26 1028.9,349.34 1027.72,349.57 1029.01,354.1 1030.37,355.72 1029.74,356.62 1030.59,360.96 1022.36,332.41 1020.62,323.13" fill="none" stroke="#1e1e1e" stroke-width="1.04" stroke-linecap="round" stroke-linejoin="round"/>
<polyline points="444.24,1190.08 444.58,1191.09 444.24,1190.08" fill="none" stroke="#1e1e1e" stroke-width="1.04" stroke-linecap="round" stroke-linejoin="round"/>
<polyline points="435.12,1202.38 436.04,1202 435.12,1202.38" fill="none" stroke="#1e1e1e" stroke-width="1.04" stroke-linecap="round" stroke-linejoin="round"/>
<polyline points="702.99,1634.96 702.88,1636.08 702.99,1634.96" fill="none" stroke="#1e1e1e" stroke-width="1.04" stroke-linecap="round" stroke-linejoin="round"/>
<polyline points="702.51,1624.68 702.99,1625.67 702.26,1625.99 701.67,1625.36 702.51,1624.68" fill="none" stroke="#1e1e1e" stroke-width="1.04" stroke-linecap="round" stroke-linejoin="round"/>
<polyline points="703.12,1625.43 704.32,1624.83 704.92,1625.62 703.45,1626.21 703.12,1625.43" fill="none" stroke="#1e1e1e" stroke-width="1.04" stroke-linecap="round" stroke-linejoin="round"/>
<polyline points="706.76,1632.78 707.8,1633.79 706.23,1635.63 705.73,1633.61 706.76,1632.78" fill="none" stroke="#1e1e1e" stroke-width="1.04" stroke-linecap="round" stroke-linejoin="round"/>
<polyline points="704.27,1637.67 702.71,1637.28 702.85,1638.52 702.17,1638.25 701.01,1640.78 702.33,1640.46 702.71,1641.44 701.41,1642.11 700.73,1644.3 702.82,1645.72 699.18,1643.57 700.28,1637.98 698.79,1636.33 699.96,1632.84 699.35,1632.1 700.12,1632.31 702.86,1628.85 704.11,1629.2 705.74,1627.52 705.32,1629.75 703.58,1631.98 704.21,1631.71 705.28,1633.13 702.08,1633.95 701.18,1635.25 702.65,1637.26 703.82,1637.27 703.47,1636.08 704.6,1635.74 704.69,1636.77 706.73,1637.07 707.32,1637.74 706.95,1639.04 705.74,1639.44 705.94,1638.89 704.51,1639.38 704.27,1637.67" fill="none" stroke="#1e1e1e" stroke-width="1.04" stroke-linecap="round" stroke-linejoin="round"/>
<polyline points="668.14,1578.57 668.67,1582.66 664.72,1582.07 664.15,1578.54 666.14,1576.83 663.26,1575.57 666.9,1576.47 663.7,1574.96 667,1576.43 667.03,1574.52 666.21,1573.95 667.69,1574.25 667.05,1576.44 668.86,1577.15 668.14,1578.57" fill="none" stroke="#1e1e1e" stroke-width="1.04" stroke-linecap="round" stroke-linejoin="round"/>
<polyline points="449.64,1141.91 451.07,1141.71 454.97,1138.94 456.88,1140.52 456.67,1141.52 459.43,1143.64 458.12,1146.17 456.28,1147.48 450.55,1144.98 449.64,1141.91" fill="none" stroke="#1e1e1e" stroke-width="1.04" stroke-linecap="round" stroke-linejoin="round"/>
<polyline points="447.38,1138.04 449.37,1135.91 450.05,1133.77 451.77,1133 455.71,1132.88 461.17,1134.5 447.89,1140.23 447.16,1139.69 447.38,1138.04" fill="none" stroke="#1e1e1e" stroke-width="1.04" stroke-linecap="round" stroke-linejoin="round"/>
<polyline points="983.74,69.7 982.9,66.1 984.75,64.62 983.89,66.04 986.31,66.32 986.67,66.99 985.77,67.11 985.62,67.91 986.59,69.2 988.95,69.35 989.17,70.03 987.62,73.16 987.59,70.94 985.58,71.58 986.27,72.89 985.55,74.33 984.56,74.15 983.94,72.72 985.12,71.52 983.74,69.7" fill="none" stroke="#1e1e1e" stroke-width="1.04" stroke-linecap="round" stroke-linejoin="round"/>
<polyline points="996.68,71.78 996.32,70.75 997.37,70.38 996.68,71.78" fill="none" stroke="#1e1e1e" stroke-width="1.04" stroke-linecap="round" stroke-linejoin="round"/>
<polyline points="990.71,67.57 991.38,69.59 990.69,70.84 989.43,66.49 988.93,67.81 988.86,65.88 989.82,65.03 989.91,66.35 991.67,66.55 990.71,67.57" fill="none" stroke="#1e1e1e" stroke-width="1.04" stroke-linecap="round" stroke-linejoin="round"/>
<polyline points="995.8,64.9 993.62,69.02 992.13,69.69 991.62,68.81 993.36,66.71 992.43,65.09 995.26,64.06 996.37,62.21 995.8,64.9" fill="none" stroke="#1e1e1e" stroke-width="1.04" stroke-linecap="round" stroke-linejoin="round"/>
<polyline points="982.54,56.93 983.21,55.2 985.43,56.19 985.97,61.02 984.21,57.96 982.54,56.93" fill="none" stroke="#1e1e1e" stroke-width="1.04" stroke-linecap="round" stroke-linejoin="round"/>
<polyline points="946.41,47.33 944.14,45.86" fill="none" stroke="#1e1e1e" stroke-width="1.04" stroke-linecap="round" stroke-linejoin="round"/>
<polyline points="945.39,45.87 946.59,46.68 946.41,47.33" fill="none" stroke="#1e1e1e" stroke-width="1.04" stroke-linecap="round" stroke-linejoin="round"/>
<polyline points="454.25,1152.46 452.52,1152.84 451.84,1154.03 449.2,1153.88 447.9,1152.63 448.33,1151.66 449.25,1151.84 447.5,1150.2 447.29,1147.35 449.64,1150.04 452.07,1149.85 454.3,1151.21 454.25,1152.46" fill="none" stroke="#1e1e1e" stroke-width="1.04" stroke-linecap="round" stroke-linejoin="round"/>
<polyline points="450.12,1158.19 448.22,1153.57 452.15,1154.91 451.93,1156.38 450.12,1158.19" fill="none" stroke="#1e1e1e" stroke-width="1.04" stroke-linecap="round" stroke-linejoin="round"/>
<polyline points="1208.02,1507.19 1208.65,1508.06 1208.02,1507.19" fill="none" stroke="#1e1e1e" stroke-width="1.04" stroke-linecap="round" stroke-linejoin="round"/>
<polyline points="1209.2,1506.62 1209.42,1508.18 1208.27,1507.21 1209.2,1506.62" fill="none" stroke="#1e1e1e" stroke-width="1.04" stroke-linecap="round" stroke-linejoin="round"/>
<polyline points="1208.52,1506.91 1209.04,1506.42 1209.13,1507.03 1208.52,1506.91" fill="none" stroke="#1e1e1e" stroke-width="1.04" stroke-linecap="round" stroke-linejoin="round"/>
<polyline points="1209.43,1509.42 1210.57,1508.92 1211.3,1509.94 1210.3,1510.22 1209.43,1509.42" fill="none" stroke="#1e1e1e" stroke-width="1.04" stroke-linecap="round" stroke-linejoin="round"/>
<polyline points="1206.13,1510.84 1207.01,1510.45 1207.37,1511.12 1206.77,1511.58 1206.13,1510.84" fill="none" stroke="#1e1e1e" stroke-width="1.04" stroke-linecap="round" stroke-linejoin="round"/>
<polyline points="1148.36,1703.24 1149.27,1703 1148.36,1703.24" fill="none" stroke="#1e1e1e" stroke-width="1.04" stroke-linecap="round" stroke-linejoin="round"/>
<polyline points="1149.29,1703.22 1150.33,1704.18 1148.45,1705.61 1149.29,1703.22" fill="none" stroke="#1e1e1e" stroke-width="1.04" stroke-linecap="round" stroke-linejoin="round"/>
<polyline points="1167.36,1679.1 1168.34,1679.52 1165.3,1681.76 1163.9,1678.9 1164.72,1677.23 1164.3,1677.8 1165.42,1678.52 1164.98,1679.83 1165.72,1679.04 1167.05,1679.15 1168.17,1676.62 1167.47,1677.69 1165.12,1675.93 1164.6,1677.07 1164.11,1676.75 1164.92,1676.5 1165.59,1674.46 1165.07,1672.99 1166.95,1675.29 1169,1676.37 1168.48,1679.22 1167.36,1679.1" fill="none" stroke="#1e1e1e" stroke-width="1.04" stroke-linecap="round" stroke-linejoin="round"/>
<polyline points="724.59,1260.31 723.53,1261.86 724.59,1260.31" fill="none" stroke="#1e1e1e" stroke-width="1.04" stroke-linecap="round" stroke-linejoin="round"/>
<polyline points="603.45,122.99 603.47,126.31 601.65,129.56 597.88,132.92 595.81,132.52 598.94,132.1 602.06,128.76 603.32,126.52 599.84,129.76 596.68,131.12 595.14,130.66 595.69,128.84 600,126.16 602.78,122.57 600.96,122.34 603.45,122.99" fill="none" stroke="#1e1e1e" stroke-width="1.04" stroke-linecap="round" stroke-linejoin="round"/>
<polyline points="779.49,1665.84 778.34,1665.76 779.34,1664.56 779.49,1665.84" fill="none" stroke="#1e1e1e" stroke-width="1.04" stroke-linecap="round" stroke-linejoin="round"/>
<polyline points="778.51,1663.78 779.68,1662.55 780.31,1664.42 778.51,1663.78" fill="none" stroke="#1e1e1e" stroke-width="1.04" stroke-linecap="round" stroke-linejoin="round"/>
<polyline points="778.27,1665.6 777.9,1664.94 778.55,1664.82 778.27,1665.6" fill="none" stroke="#1e1e1e" stroke-width="1.04" stroke-linecap="round" stroke-linejoin="round"/>
<polyline points="777.92,1664.64 778.72,1664.23 777.92,1664.64" fill="none" stroke="#1e1e1e" stroke-width="1.04" stroke-linecap="round" stroke-linejoin="round"/>
<polyline points="520.27,1401.35 521.58,1400.74 520.64,1401.25 521.48,1401.82 520.27,1401.35" fill="none" stroke="#1e1e1e" stroke-width="1.04" stroke-linecap="round" stroke-linejoin="round"/>
<polyline points="565.91,1455.35 565.07,1456.16 565.72,1455.28 564.35,1455.3 565.1,1454.66 565.91,1455.35" fill="none" stroke="#1e1e1e" stroke-width="1.04" stroke-linecap="round" stroke-linejoin="round"/>
<polyline points="661.21,1157.71 662.89,1159.52 661.21,1157.71" fill="none" stroke="#1e1e1e" stroke-width="1.04" stroke-linecap="round" stroke-linejoin="round"/>
<polyline points="540.72,1102.74 540.77,1101.73 541.3,1103.38 540.72,1102.74" fill="none" stroke="#1e1e1e" stroke-width="1.04" stroke-linecap="round" stroke-linejoin="round"/>
<polyline points="542.82,1083.58 543.59,1083.05 542.82,1083.58" fill="none" stroke="#1e1e1e" stroke-width="1.04" stroke-linecap="round" stroke-linejoin="round"/>
<polyline points="655.43,1141.31 655.46,1139.85 655.43,1141.31" fill="none" stroke="#1e1e1e" stroke-width="1.04" stroke-linecap="round" stroke-linejoin="round"/>
<polyline points="723.05,1259.06 724.04,1259.55 720.96,1260.77 718.97,1258.17 719.93,1258.24 720.9,1259.77 723.05,1259.06" fill="none" stroke="#1e1e1e" stroke-width="1.04" stroke-linecap="round" stroke-linejoin="round"/>
<polyline points="1197.16,1643.38 1198.66,1642.35 1201.93,1641.9 1197.16,1643.38" fill="none" stroke="#1e1e1e" stroke-width="1.04" stroke-linecap="round" stroke-linejoin="round"/>
<polyline points="1211.26,1507.84 1210.35,1508.46 1210.23,1506.15 1211.26,1507.84" fill="none" stroke="#1e1e1e" stroke-width="1.04" stroke-linecap="round" stroke-linejoin="round"/>
<polyline points="448.66,1147.53 447.5,1146.71 447.65,1145.59 448.66,1147.53" fill="none" stroke="#1e1e1e" stroke-width="1.04" stroke-linecap="round" stroke-linejoin="round"/>
<polyline points="593.86,1471.51 594.03,1470.64 593.86,1471.51" fill="none" stroke="#1e1e1e" stroke-width="1.04" stroke-linecap="round" stroke-linejoin="round"/>
<polyline points="1989.04,1644.01 1967.3,1642.56 1963.8,1643.44 1962.65,1644.63 1962.84,1645.74 1956.93,1647.62 1955.91,1649.03 1933.44,1646.24 1929.75,1647.06 1913.11,1645.81 1904.39,1647.19 1901.32,1648.15 1899.94,1649.49 1899.67,1651.58 1901.15,1652.31 1893.1,1654.87 1888.34,1659.28 1887.24,1662.47 1887.79,1666.09 1893.23,1666.46 1892.98,1667.2 1890.83,1667.97 1881.65,1668.01 1880.09,1667.31 1886.04,1665.39 1886.1,1662.35 1885.28,1660.22 1880.79,1656.31 1875.02,1654.95 1870.84,1655.02 1866.12,1655.92 1859.57,1660.28 1858.96,1663.93 1860.97,1664.72 1860.98,1667.14 1862.38,1667.45 1862.32,1668.78 1863.03,1669.18 1848.77,1669.12 1843.04,1670.27 1839.91,1672.28 1840.83,1673.65 1839.55,1674.78 1839.52,1675.84" fill="none" stroke="#1e1e1e" stroke-width="1.04" stroke-linecap="round" stroke-linejoin="round"/>
<polyline points="1827.6,1676.75 1827.05,1675.25 1830.23,1672.97 1828.47,1669.43 1828.68,1668.51 1830.83,1671.79 1830.38,1669.7 1832.08,1669.85 1831.93,1666.3 1830.34,1665.01 1830.95,1664.01 1831.67,1664.82 1831.09,1663.92 1832.54,1662.97 1831.7,1663.03 1832.68,1661.19 1830.63,1663.99 1830.02,1663.56 1830.58,1662.74 1829.45,1662.56 1830.04,1662.38 1828.89,1661.32 1830.74,1664.38 1828.79,1664.75 1829.26,1665.51 1828.55,1665.74 1829.58,1666.18 1827.74,1666.19 1828.36,1664.59 1827.56,1664.68 1826.96,1663.53 1824.86,1664.12 1824.58,1662.94 1823.83,1664.02 1824.06,1663.31 1823.12,1663.89 1822.17,1662.81 1822.09,1664.01 1826.43,1666.7 1825.96,1667.24 1827.11,1667.13 1826.66,1667.51 1818.98,1664.66 1810.86,1664.62 1808.47,1663.62 1802.65,1664.93 1801.55,1666.06 1802.35,1666.62 1802.1,1668.35 1800.08,1671.18 1801.11,1672.59 1800.74,1673.87 1794.39,1675.97 1793.5,1677.94 1795.18,1678.63 1794.78,1679.15 1769.87,1673.61 1768.55,1668.36 1768.74,1669.27 1755.75,1665.69 1735.71,1662.97 1734.58,1661.97 1724.16,1660.08 1710.1,1659.32 1707.1,1657.08 1709.19,1658.5 1709.81,1658.09 1709.17,1656.24 1710.81,1658.4 1711.61,1657.72 1711.28,1656.15 1710.21,1655.92 1711.17,1655.92 1709.98,1653.75 1708.03,1652.33 1709.49,1649.86 1709.16,1646.98 1705.62,1643.27 1701.57,1642 1695.27,1643.03 1691.39,1645.99 1694.05,1643.31 1692.21,1644.13 1688.49,1650.4 1688.28,1651.48 1691.61,1652.51 1688.28,1651.5 1688.98,1654.62 1693.65,1655.14 1693.2,1656.93 1695.81,1658.82 1695.42,1659.99 1690.47,1659.01 1690.09,1658.51 1690.6,1659.01 1691.76,1658.46 1690.69,1657.34 1690.38,1658.29 1690.05,1657.15 1679.33,1655.89 1676.9,1653.83 1678.66,1653.25 1678.66,1651.52 1677.2,1650.17 1675.05,1649.77 1667.77,1652.3 1666.53,1654.99 1668.7,1656.58 1667.6,1657.51 1665.76,1656.39 1659.03,1655.56 1658.03,1654.7 1658.77,1653.98 1658.06,1652.76 1654.32,1651.97 1644.35,1653.24 1636.32,1656.31 1640.19,1653.26 1644.1,1652.5 1644.28,1651.79 1639.21,1652.84 1636.05,1655.23 1636.15,1656.81 1637.13,1657.33 1635.58,1657.46 1635.78,1656.27 1631.4,1654.11 1631.96,1652.98 1631.29,1651.82 1628.48,1650.96 1615.75,1651.67 1611.81,1653.04 1611.28,1651.82 1611.17,1653.02 1610.36,1653.04 1611.43,1653.11 1606.27,1653.88 1599.95,1651.39 1597.51,1648.41 1593.86,1645.69 1589.08,1645.2 1585.51,1646.37 1583.72,1645.45 1582.26,1644.25 1582,1642.89 1581.52,1643.51 1580.02,1637.19 1580.26,1642.08 1582.13,1645.06 1581.08,1643.88 1580.36,1643.82 1581.27,1644.48 1580.58,1644.71 1578.96,1643.59 1583.94,1646.41 1575.84,1648.15 1571.27,1650.17 1571.19,1648.11 1574.12,1647.13 1572.86,1646.59 1568.15,1647.18 1570.36,1644.63 1570.46,1643.43 1568.13,1645.73 1566.83,1646.01 1566.8,1646.91 1560.58,1649.69 1561.31,1647.32 1562.47,1647.68 1563.55,1644.9 1562.47,1643.31 1564.1,1643.34 1565.68,1641.35 1565.11,1642.25 1565.35,1641.63 1561.78,1643.33 1563.05,1644.48 1559.59,1647.99 1558.77,1646.44 1559.37,1645.31 1558.26,1645.23 1559.25,1644.09 1558.81,1644.79 1557.96,1644.46 1558.77,1648.19 1558.06,1649.85 1559.28,1650.31 1558.26,1651.3 1556.99,1651.68 1554.8,1650.58 1557.88,1653.1 1560.65,1650.86 1565.66,1649.64 1567.08,1647.35 1569.93,1650 1564.51,1650.62 1558.09,1654.02 1553.42,1654.98 1552.79,1653.99 1548.57,1654.34 1545.31,1653.45 1535.14,1643.2 1531.13,1641.26 1526.8,1640.77 1527.56,1640.46 1526.91,1640.67 1526.61,1639.44 1525.06,1638.71 1524.16,1639.12 1524.61,1638.66 1524.18,1639.01 1523.66,1637.44 1522.63,1637.03 1512.71,1638.16 1498.47,1635.82 1488.3,1637.39 1480.65,1635.96 1479.81,1636.81 1472.53,1638.14 1465.4,1640.78 1454.01,1641.87 1449.52,1640.71 1444,1637.28 1441.29,1633.23 1441.54,1632.08 1438.92,1630.16 1438.49,1628.4 1435.5,1626.59 1430.98,1626.48 1417.04,1634.57 1416.92,1632.87 1417.41,1633.5 1417.11,1632.98 1417.95,1633.11 1418.26,1632.34 1418.39,1627.87 1418.22,1629.74 1419.31,1628.57 1419.18,1630.49 1418.29,1630.61 1420.61,1631.22 1422.78,1628.4 1420.69,1626.18 1420.68,1627.44 1419.55,1627.47 1414.91,1622.34 1413.11,1621.88 1407.59,1622.64 1411.06,1621.95 1410.18,1620.74 1407.43,1622.11 1405.41,1622.02 1403.71,1623.48 1402.44,1621.1 1402.88,1622.55 1403.76,1622.88 1403.13,1623.78 1404.2,1624.12 1399.1,1623.23 1401.77,1623.48 1400.78,1622.31 1400.36,1622.93 1397.48,1622.63 1398.09,1622.13 1395.58,1622.97 1390.32,1623.11 1393.82,1622.78 1390.64,1621.32 1390.55,1620.36 1387.87,1620.46 1387.35,1621.21 1384.8,1620.28 1382.97,1620.83 1381.89,1620.35 1382.11,1620.92 1381.14,1620.63 1381.47,1621.14 1379.26,1619.99 1369.69,1619.09 1368.91,1617.71 1370.27,1619.2 1373.8,1619.51 1369.44,1615.33 1369.31,1617.44 1367.93,1611.01 1369.11,1609.73 1367.93,1610.88 1365.82,1602.48 1362.02,1595.67 1360.91,1594.37 1358.19,1593.9 1358.36,1594.63 1357.55,1593.87 1358.21,1591.96 1356.94,1591.5 1357.15,1586.6 1356.17,1584.91 1359.84,1578.83 1359.82,1575.88 1357.37,1574.33 1356.03,1571.2 1354.64,1571.03 1352.32,1568.85 1350.73,1569.04 1350,1565.87 1348.45,1564.42 1348.75,1563.36 1347.72,1561.44 1348.3,1560.85 1347.38,1561.09 1346.86,1559.02 1344.87,1558.18 1345.37,1556.8 1343.41,1554.39 1342.89,1549.59 1343.95,1549.53 1342.82,1548.96 1343.36,1548.52 1342.82,1546.31 1345.42,1545.94 1342.19,1546.05 1341.33,1544.47 1342.9,1543.07 1344.22,1538.5 1344.28,1532.69 1342.98,1523.17 1340.82,1514.95 1337.82,1508.09 1338.48,1506.89 1337.83,1507.7 1336.24,1502.96 1333.85,1499.03 1329.23,1494.77 1330.05,1494.56 1328.73,1493.6 1328.48,1491.11 1325.6,1487.29 1326.23,1486.44 1326.85,1488.28 1327.98,1488.18 1329.63,1489.66 1328.21,1487.72 1329.36,1483.66 1325.56,1483.5 1325.07,1484.79 1322.49,1483.71 1321.96,1483.14 1322.51,1482.29 1320.86,1481.89 1319.51,1478.77 1320.64,1478.12 1319.09,1478.3 1318.31,1475.71 1316.66,1473.77 1315.31,1473.78 1312.6,1471.02 1313.84,1469.63 1312.16,1469.88 1311.74,1468.85 1310.88,1469.17 1310.01,1468.26 1309.14,1469.13 1307.46,1469.1 1305.28,1466.88 1301.04,1467.45 1299.97,1466.51 1299.15,1467.42 1298.03,1466.59 1297.08,1467.55 1296.04,1466.59 1296.4,1465.83 1295.96,1466.34 1294.34,1465.59 1291.51,1465.71 1288.6,1466.58 1285.58,1464.88 1285.39,1465.7 1282.43,1465.57 1281.97,1464.82 1281.68,1465.6 1279.99,1466.04 1276.78,1464.88 1275.52,1465.52 1273.75,1464.69 1273.04,1465.11 1272.13,1463.96 1270.31,1463.76 1268.53,1466.27 1270.29,1463.87 1269.65,1463.41 1261.53,1464.79 1261.43,1465.73 1260.78,1465.04 1255.57,1467.94 1255.19,1466.65 1255.66,1468.57 1253.98,1470.43 1253.75,1469.4 1254.81,1468.78 1253.73,1468.93 1253.63,1467.79 1253.35,1469.34 1252.76,1468.92 1253.43,1470.6 1253.06,1469.87 1251.79,1469.82 1251.91,1467.91 1245.71,1468.36 1242.6,1471.46 1241.92,1473.13 1240.94,1473.17 1241.11,1473.91 1239.91,1473.09 1240.17,1474.1 1239.52,1474.44 1239.04,1473.55 1239.21,1474.61 1238.45,1475.02 1237.61,1474.33 1238.33,1475.66 1236.39,1476.22 1235.35,1475.71 1235.2,1476.66 1234.61,1476.07 1231.49,1477.76 1231.79,1479.95 1229.26,1480.2 1229.14,1481.22 1230.47,1482.23 1229.03,1481.9 1228.49,1483.19 1225.06,1484.03 1223.09,1483.59 1219.48,1485.22 1218.3,1484.38 1217.95,1485.21 1216.04,1485.86 1211.51,1485.93 1207.81,1489.27 1207.04,1488.34 1201.92,1487.28 1197.09,1488.57 1195.2,1491.49 1190.96,1494.26 1189.88,1497.63 1186.13,1499.98 1185.14,1499.3 1185.67,1500.52 1182.61,1499.56 1185.65,1500.58 1187.97,1498.86 1186.9,1501.37 1188.1,1498.72 1189.36,1497.87 1192.11,1497.44 1192.43,1498.8 1190.85,1499.43 1190.94,1500.88 1189.61,1501.03 1190.78,1502.98 1190.52,1504.22 1189.13,1505.17 1189.96,1507.28 1189.47,1508.27 1182.85,1513.19 1176.68,1515.69 1174.94,1514.58 1171.15,1514.78 1166.66,1510.89 1157.05,1512.1 1154.55,1517.49 1148.9,1518.72 1147.07,1520.97 1143.16,1521.52 1141.04,1523.87 1139.46,1527.39 1136.16,1527.8 1134.29,1529.24 1130.36,1530.48 1128.25,1532.71 1128.27,1533.74 1128.21,1533.21 1127.05,1533.82 1128.26,1534.02 1127.05,1533.88 1123.17,1536.5 1122.17,1538.76 1122.31,1537.85 1119.26,1540.02 1117.88,1541.93 1114.25,1542.01 1112.61,1544.57 1105.46,1542.5 1100.43,1542.73 1095.07,1544.22 1093.56,1542.93 1091.19,1537.1 1088.69,1534.1 1083.83,1533.12 1076.7,1534.84 1073.03,1533.63 1070.04,1530.4 1066.52,1523.75 1060.98,1518.24 1061.66,1519.39 1058.67,1518.87 1056.63,1520.26 1051.42,1521.47 1046.12,1519.92 1044.45,1520.45 1041.15,1519.47 1033.09,1515.48 1028.66,1517.09 1025.94,1519.64 1024.43,1519.83 1024.9,1520.14 1020.44,1519.59 1015.2,1521.17 1007.92,1519.52 1005.24,1520.53 1004.71,1522.11 1001.46,1518.11 992.5,1514.06 981.07,1505.42 979.9,1502.99 979.78,1493.56 977.58,1490.44 975.95,1490.48 972.54,1488.77 968.57,1488.66 943.01,1477.42 937.9,1476.79 934.05,1474.4 927.2,1472.2 923.07,1468.95 922,1468.45 921.65,1469 922.44,1469.61 921.83,1468.53 914.42,1464.78 910.25,1459.54 909.12,1459.8 906.54,1457.09 900.68,1454.55 899.94,1452.92 897.27,1451.51 894.67,1448.12 893.15,1448.12 888.95,1443.93 889.49,1443.02 895.72,1442.09 895.86,1441.42 896.25,1442.51 895.63,1442.4 896.35,1442.86 898.12,1442.83 900.04,1440.13 898.06,1442.53 898.96,1439.98 898.78,1436.78 896.52,1435.75 895.08,1436.59 894.98,1435.72 894.92,1436.39 892.26,1435.09 891.11,1432.73 889.88,1432.93 890.57,1432.52 890,1431.88 890.21,1432.38 889.33,1432.43 889.69,1433.06 887.68,1427.56 887.09,1427.67 882.26,1421.17 880.92,1418.44 878.93,1416.83 876.57,1416.44 875.08,1414.3 867.31,1413.81 866.25,1412.19 857.84,1410.55 852.88,1408.03 852.3,1408.59 850.31,1405.83 845.95,1402.6 844.8,1399.91 841.93,1397.99 835.91,1391.83 831.63,1391.2 833.32,1391.85 827.44,1392.09 824.68,1393.34 824.97,1392.77 815.1,1390.77 814.94,1391.36 811.58,1391.66 809.62,1391.14 807.44,1392.37 801.99,1393.16 798.81,1391.16 794.77,1390.35 790.07,1391.06 790.11,1390.34 790.18,1390.98 792.44,1390.02 786.95,1385.61 783.84,1385.14 782.59,1386.63 782.12,1385.21 780.43,1384.23 781.66,1383.18 781.24,1382.21 779.22,1381.69 779.27,1380.66 776.88,1378.19 775.5,1378.02 775.44,1381.71 774.1,1381.91 772.7,1380.81 772.6,1381.52 770.5,1373.12 767.88,1367.22 765.46,1364.22 765.92,1362.58 764.75,1362.5 764.11,1360.91 763.8,1361.37 763.32,1359.06 760.94,1358.78 760.06,1357.15 762.24,1355.11 762.9,1355.31 762.45,1354.43 761.86,1354.95 760.19,1353.96 759.45,1354.82 761.63,1352.55 760.83,1352.53 761.74,1351.56 761.23,1351.44 761.77,1346.54 751.02,1332.6 743.54,1316.1 743.27,1311.9 742.23,1309.86 742.22,1307.69 741.62,1307.53 742.11,1307.03 741.41,1307.47 742.13,1304.45 741.43,1293.21 740.7,1291.26 739.41,1291.37 740.72,1290.5 740.12,1290.34 739.76,1288.02 739.11,1288.02 738.89,1286.15 737.02,1283.89 737.02,1281.16 735.2,1274.75 731.26,1272.64 728.96,1274.38 727.94,1276.78 730.11,1277.32 732.33,1279.57 733.59,1279.16 733,1279.53 726.29,1278.61 723.82,1278.97 718.92,1272.5 719.62,1271.84 718.73,1272.52 718.29,1269.98 717.14,1269.3 716.26,1267.32 715.82,1267.65 716.58,1262.83 717.74,1261.91 717.51,1261.19 718.1,1261.46 718.61,1259.07 717.98,1258.12 725.39,1266.06 725.69,1265.02 724.13,1264.72 726.51,1263.04 724.26,1262.26 726.31,1260.76 726.42,1259.33 727.3,1259.22 728,1251.05 724.88,1250.97 726.39,1250.64 724.78,1250.8 726.1,1250.21 726.06,1248.93 724.68,1247.21 720.62,1246.72 721.28,1244.42 718.4,1243.05 718.09,1240.93 712.8,1241.03 712.53,1242.02 711.47,1241.87 712.23,1243.31 713.6,1243.38 713.75,1242.52 714.1,1243.54 710.44,1242.84 710.18,1244.09 706.63,1244.66 705.68,1243.99 705.63,1245.99 702.22,1243.01 701.45,1241.37 701.86,1240.31 701.31,1240.71 700.77,1239.13 702.47,1240.02 701.29,1239 702.37,1238.21 702.55,1234.74 701.41,1235.91 703.31,1224.26 703.6,1213.94 702.52,1209.24 703.34,1209.23 702.46,1208.98 701.29,1206.48 702.73,1206.39 701.68,1206.14 696.44,1199.35 694.97,1198.73 694.08,1199.97 696.88,1204.03 691.95,1198.03 691.92,1196.83 690.13,1196.76 688.66,1194.88 687.95,1195.03 690.99,1195 687.84,1194.86 688.5,1194.72 688.13,1192.06 685.34,1187.16 679.43,1183.48 671.41,1174.2 664.95,1161.83 664.1,1161.93 664.95,1161.48 664.31,1161.61 662.98,1159.85 664.12,1160.76 665.16,1159.4 664.3,1157.49 663.19,1157.49 662.56,1156.08 663.15,1155.74 660.7,1155.67 660.63,1157.18 660.61,1155.74 659.49,1154.62 659.07,1155.01 658.41,1152.79 657.28,1152.88 655.46,1150.98 654.54,1145.36 655.02,1141.95 656.34,1141.67 656.28,1139.82 657.29,1139.12 656.37,1139.34 654.81,1137.72 655.61,1138.09 655.44,1137.22 656.23,1136.82 654.91,1137.19 654.89,1136.56 655.8,1136.49 653.69,1131.68 654.26,1132.22 654.82,1131.05 653.46,1130.94 653.94,1129.65 652.68,1126.44 649.68,1122.49 646.18,1120.33 642.55,1119.4 635.4,1120.01 629.8,1122.54 602.64,1139.74 597.74,1141.25 592.96,1134.25 592.41,1126.07 589.35,1123.79 586.88,1123.13 582.08,1123.36 580.37,1124.92 581.21,1123.61 579.66,1122.64 575.87,1124.23 573.4,1124.01 572.65,1124.98 567.51,1125.27 568.34,1123.65 568.68,1118.95 566.43,1115.63 567.65,1115.05 567.34,1111.58 568.91,1110.74 568.94,1111.57 569.04,1110.22 569.61,1110.36 568.5,1109.62 568.45,1108.65 569.11,1109.3 569.23,1108.5 568.43,1108.29 569.88,1107.84 568.43,1108.21 567.67,1107.63 567.52,1106.61 568.3,1107 566.7,1104.47 568.22,1105.66 566.23,1103.83 565.67,1102.24 566.27,1100.98 566.99,1103.44 566.78,1102.17 567.99,1102.96 569.4,1106.17 569.4,1105.12 570.65,1105.54 568.87,1104.71 569.48,1104.58 568.5,1104.08 567.93,1102.11 566.68,1101.88 566.9,1099.83 569.1,1101.4 568.15,1100.24 569.27,1100.53 567.74,1099.83 569,1099.72 566.87,1099.66 566.84,1098.7 564.8,1096.67 565.88,1096.61 566.33,1097.45 566.15,1096.69 564,1095.3 567.46,1096.55 568.47,1098.57 568.15,1097.4 569.69,1097.29 570.35,1096.19 571.24,1096.56 570.36,1096.15 568.29,1097.37 563.5,1094.49 567.4,1095.28 566.84,1094.83 568.01,1094.95 566.27,1094.53 569.32,1094.64 568.62,1094.18 569.28,1094.07 567.54,1094.03 569.65,1093.42 570.61,1094.5 569.39,1092.42 571.3,1092.4 570.59,1091.99 571.69,1091.85 571.84,1091.15 572.83,1091.63 571.95,1091.06 573.18,1090.34 574.68,1092.01 573.92,1090.84 575.5,1091.69 573.74,1090.68 574.15,1090.08 572.89,1090.33 576.73,1087.68 572.48,1090.5 573.56,1088.64 572.93,1088.95 572.73,1087.87 572.35,1090.49 571.22,1091.59 571.65,1088.28 571.13,1091.52 570.56,1090.27 570.56,1091.62 569.9,1091.84 569.81,1090.3 569.75,1092 568.58,1092.1 568.37,1091.07 566.64,1090.28 568.2,1089.9 566.76,1089.84 566.66,1089.03 567.87,1089.41 567.35,1088.92 569.37,1088.27 567,1088.79 566.96,1087.82 568.03,1087.33 566.85,1087.75 566.68,1088.79 564.18,1087.61 565.23,1086.74 566.25,1086.94 564.49,1087 565.97,1084.73 566.73,1084.8 565.79,1083.92 566.68,1083.52 565.61,1083.93 565.89,1082.83 565.9,1084.58 564.6,1086 563.07,1084.64 562.93,1086.18 563.51,1086.44 562.88,1086.67 563.92,1087.35 561.98,1088.57 562.98,1084.05 561.9,1083.22 562.03,1082.36 555.4,1081.51 555.22,1089.26 556.7,1090.13 556.62,1091.11 553.85,1092.32 553.33,1091.72 551.41,1092.05 548.54,1088.35 552.49,1088.08 552.77,1088.92 553.19,1087.68 552.49,1087.52 551.97,1085.74 552.66,1085.68 552.07,1085.07 552.76,1083.25 552.03,1082.59 552.79,1081.98 551.68,1082.7 550.14,1081.3 551.62,1082.94 544.97,1082.58 543.16,1082.84 540.79,1084.82 538.61,1084.06 536.93,1084.53 535.42,1081.87 533.76,1082.93 531.98,1081.7 529.83,1081.77 529.27,1077.62 527.56,1078.03 526.15,1077.28 524.34,1078.48 523.37,1076.15 524.31,1078.5 526.26,1077.45 529.11,1078.02 529.9,1081.97 531.81,1081.8 533.83,1083.12 535.38,1082.08 536.36,1085.05 540.51,1085.44 541.58,1087.66 546.47,1087.72 550.67,1091.71 546.07,1094.63 542.34,1093.03 537.97,1093.09 533.37,1098.35 532.46,1100.18 533.22,1102.23 532.58,1103.31 529.46,1101.3 527.55,1101.01 530.43,1102.96 533.43,1108.98 535.26,1110.54 535.98,1109.92 537.9,1113.48 539.45,1118.99 538.74,1124.74 537.17,1126.83 538.02,1129.38 537.5,1132.86 535.89,1135.83 532.22,1136.78 531.65,1137.6 524.55,1136.25 518.76,1136.28 516.39,1135.35 515.45,1136.14 512.6,1135.84 512.43,1136.69 513.84,1137.24 511.57,1136.71 507.25,1141.71 510.16,1144.67 508.95,1145.76 506.15,1145.11 503.13,1148.68 493.97,1147.9 494.33,1154.24 492.44,1155.79 493.81,1156.69 486.82,1150.26 486.14,1145.1 484.17,1145.01 481.28,1143.52 470.44,1134.85 463.25,1132.11 454.23,1131.05 450.35,1132.01 446.88,1134.62 443.4,1133.79 441.77,1135.24 442.04,1136.06 443.16,1135.31 446.91,1136.41 445.96,1139.26 446.93,1144.69 445.83,1147.27 446.52,1152.96 449.64,1161.64 451.64,1162.85 452.01,1164.22 453.48,1164.35 454.36,1165.49 454.43,1169.48 461.4,1186.79 459.22,1190.32 456.98,1187.47 452.02,1184.3 445.93,1182.47 440.97,1183.18 428.19,1189.8 423.11,1194.04 417.5,1201.34 416.27,1200.41 414.46,1201.08 413.84,1203.01 412.65,1203.15 412.87,1205.26 415.27,1205.8 417.88,1203.7 417.59,1204.26 418.34,1204.55 418.21,1203.9 419.58,1204.53 420.78,1203.84 421.08,1204.48 421.73,1202.68 422.13,1203.41 422.53,1203 422.7,1204.63 426.14,1203.19 425.71,1202 427.13,1203.68 423.92,1205.63 424.72,1207.11 423.86,1209.17 425.01,1210.3 428.01,1210.67 430.71,1210.08 433.49,1208.07 432.09,1206.97 432.99,1206.26 435.23,1206.66 433.79,1207.3 434.38,1208.16 437.56,1206.39 439.1,1203.87 442.47,1203.12 442.69,1205.36 444.63,1206.21 444.7,1207.55 447,1209.3 451.78,1208.21 450.25,1213.52 450.23,1218.19 451.27,1219.99 450.75,1220.33 451.36,1220.09 451.19,1222.86 453.41,1228.55 452.89,1229.86 453.63,1231.11 454.06,1238.82 455.62,1241.49 455.01,1242.47 456.28,1243.15 455.27,1242.63 455.23,1243.53 456.04,1243.97 456.42,1243.43 456.16,1244.02 456.95,1243.3 457.31,1244.08 455.31,1244.29 456.83,1251.25 459.36,1255 460.06,1257.58 462.3,1260.12 467.59,1262.39 466.66,1264.47 466.17,1270.26 467.91,1274.21 472.76,1277.86 477.35,1278.2 476.12,1280.74 477.83,1281.39 475.88,1281.11 475.3,1283.75 476.35,1284.54 475.4,1284.13 476.2,1284.58 475.53,1284.88 476.64,1287.35 476.69,1291.85 475.89,1290.39 475.55,1292.3 476.86,1297.37 479.58,1302.09 483.07,1305.48 486.35,1306.94 485.91,1313.15 487.16,1314.95 488.72,1315.54 486.91,1316.49 486.26,1318.68 483.29,1318.87 484.33,1318.12 484.04,1317.58 482.47,1319.37 483.29,1320.16 485.82,1319.31 487.56,1316.34 489.61,1315.99 490.03,1317.43 487.52,1321.29 486.73,1325.16 489.1,1331.08 493.32,1334.54 498.02,1341.25 497.56,1342.08 497.51,1340.93 497.58,1341.94 497.34,1341.03 496.42,1341.71 495.33,1344.74 494.96,1349.23 495.64,1350.03 495.11,1350.56 497.52,1351.28 495.61,1351.15 496.18,1353.63 500.09,1358.25 500.13,1359.85 501.7,1360.79 501.88,1360.21 502.96,1361.74 507.91,1362.93 508.68,1362.21 508.66,1363.08 512.7,1364.09 512.41,1365.15 510.31,1366.54 508.16,1366.95 511.22,1365.87 512.16,1364.02 510.88,1365.69 508.14,1365.96 507.48,1367.29 507.93,1369.14 509.45,1370.25 512.3,1374.81 515.18,1375.24 514.55,1376.91 515.26,1379.18 520.88,1383.13 520.7,1384.35 521.62,1385.84 520.72,1385.73 519.58,1389.13 521.17,1390.76 519.71,1393.05 515.97,1395.29 517.81,1393.82 517.38,1392.97 518.28,1390.75 517.81,1390.17 517,1390.89 517.57,1391.17 516.34,1390.8 518.7,1389.37 519.29,1387.83 517.49,1384.93 515.61,1386.9 515.13,1390.36 515.94,1390.68 514.04,1392.29 512.31,1391.5 513.89,1391.25 513.66,1389.88 514.44,1388.76 513.39,1389.27 515.27,1387.84 515.28,1383.18 513.29,1384.86 513.1,1389.71 510.25,1396.48 510.94,1397.29 512.18,1396.59 513.01,1394.93 512.41,1394.14 513.29,1393.1 512.81,1392.91 513.6,1393.03 514.56,1394.28 513.38,1398.09 514.31,1400.03 516.1,1398.85 516.26,1397.24 517.37,1399.22 517.03,1402.64 516.83,1401.72 516.27,1402.74 517.79,1402.95 520.23,1401.44 519.45,1401.98 519.99,1404.18 519.23,1404.99 518.78,1405.27 518.37,1403.47 516.9,1403.79 516.38,1404.85 518.74,1406.89 518.73,1408.6 518.5,1407.79 517.75,1407.94 517.69,1406.45 516.34,1406.24 515.43,1407.46 516.16,1408.97 518.78,1409.92 521.15,1406.19 522.97,1406.86 521.13,1409.91 520.98,1413.86 523.8,1412.36 523.98,1410.92 523.27,1410.2 522.17,1411.23 522.51,1412.13 521.54,1412.11 522.2,1410.65 528.05,1407.31 532.29,1409.96 533.96,1413.27 535.66,1414.01 534.86,1413.98 535.03,1414.61 537.26,1414.44 535.65,1413.87 537.96,1414.6 541.41,1417.16 546.85,1417.55 547.2,1416.07 547.17,1417.08 549.34,1417.11 548.87,1415.88 547.53,1415.84 548.87,1415.86 548.92,1413.96 551.34,1414.03 552.64,1413.06 551.18,1414.62 550.06,1414.59 549.74,1417.03 550.97,1416.69 550.88,1415.58 551.94,1415.61 551.8,1416.78 552.66,1416.78 552.5,1414.7 553.15,1414.31 553.6,1417.38 552.98,1417.56 553.67,1418.64 554.38,1418.82 554.42,1417.54 558.9,1417.05 557.08,1417.73 557.59,1418.59 557.03,1420.3 557.38,1421.85 558.25,1421.86 558.33,1418.95 559.25,1417.48 557.71,1422.46 558.92,1422.69 557.96,1422.82 558.64,1424.31 561.34,1425.83 562.11,1428.8 561.73,1431.07 561.73,1429.76 560.15,1430.78 560.98,1428.96 560.14,1427.02 558.98,1429.37 557.72,1430.18 556.29,1429.55 556.84,1429.54 556.22,1428.26 554.27,1430.4 553.46,1428.76 552.14,1428.24 550.07,1430.8 549.59,1428.29 548.76,1428.03 546.84,1430.73 544.81,1428.73 542.68,1432.45 543.28,1433.07 546.45,1432.18 548.96,1434.16 547.89,1433.95 549.05,1435.06 550.65,1434.1 550.88,1436.45 553.82,1435.27 553.75,1432.61 555.27,1432.57 555.38,1433.69 557.48,1435.07 555.21,1437.76 554.65,1436.44 553.5,1437.08 554.16,1439.92 551.77,1441.62 551.7,1443.57 554.02,1443.41 557.27,1440.55 558.61,1440.42 559.09,1439.22 558.68,1440.42 562.03,1442.44 562.27,1443.29 561.19,1443.48 561.2,1447.65 562.46,1451.08 561.62,1451.63 561.65,1454.33 561.02,1454.85 562.32,1456.83 561.24,1458.67 563.71,1461.24 564.28,1463.45 565.98,1460.4 565.85,1457.71 568.55,1457.6 569.3,1456.78 568.59,1457.62 569.24,1459.37 570.14,1457.42 570.71,1457.56 570.12,1460.19 569.09,1460.96 569.71,1461.88 569.27,1463.21 568.27,1462.06 567.37,1462.48 568.04,1461.73 567,1461.67 565.29,1464.08 567.23,1466.65 568.94,1466.82 570.83,1468.82 571.6,1468.7 570.64,1465.53 571.17,1464.69 571.98,1464.91 572.57,1463.26 573.59,1463.23 573.96,1464.07 573.49,1465.97 572.59,1466.15 572.44,1469.2 574.99,1467.82 574.54,1466.24 576.6,1465.01 578.4,1465.28 580.58,1467.18 581.44,1466.55 579.56,1464.47 578.93,1461.53 582.91,1457.91 581.08,1456.6 579.68,1454.11 579.37,1454.96 577.86,1453.02 576.09,1453.24 578.22,1449.84 577.55,1447.98 578.77,1447.13 578.52,1446.03 575.79,1449.6 575.33,1447.75 576.92,1443.41 578.8,1440.93 585.06,1440.03 585.22,1440.9 587.12,1441.33 588.32,1443.04 596.68,1445.04 600.21,1446.66 599.79,1447.45 599.57,1446.79 594.96,1446.65 594.26,1445.84 594.87,1445.7 594.55,1444.86 595.85,1445.93 597.48,1445.96 593.35,1444.79 589.18,1445.98 586.43,1448.36 587.64,1446.94 586.79,1445.93 585.91,1446.73 584.74,1445.85 587.05,1445.6 586.43,1443.84 582.4,1441.8 578.72,1445.48 578.81,1447.1 580.33,1446.46 579.5,1447.19 579.44,1448.73 580.36,1450.15 580.78,1454.15 581.17,1452.56 584.02,1453.72 584.46,1457.92 582.23,1458.68 584.9,1461.62 587.74,1459.71 589.77,1451.97 592.66,1448.25 589.78,1452.02 588.56,1456.67 590.84,1458.63 590.86,1462.84 590.81,1458.67 588.55,1456.79 587.99,1461.21 586.12,1463.64 587.49,1469.79 589.22,1471.88 590.42,1468.7 590.03,1472.05 592.03,1467.09 590.02,1472.07 591.11,1470.31 590.33,1472.48 592.53,1472.38 590.72,1472.61 590.75,1473.38 597.62,1470.5 597.86,1469.46 599.43,1469.52 599.44,1472.66 599.39,1470.92 598.71,1470.88 598.62,1472.26 598.24,1471.54 597.31,1472.16 597.41,1470.96 596.89,1472.21 596.28,1471.43 590.56,1474.09 591.98,1473.92 591.81,1474.44 593.4,1473.45 593.63,1474.06 591.88,1474.49 593.49,1477.8 595.2,1476.48 594.65,1477.11 595.3,1477.87 595.67,1477.01 596.54,1477.97 597.81,1476.86 598.21,1477.32 596.94,1478.5 597.22,1479.05 598.95,1477.16 596.98,1479.39 596.92,1478.76 596.88,1479.31 595.66,1479.01 595.92,1482.77 598.76,1482.67 597.78,1482.61 597.3,1483.68 598.34,1485.16 599.18,1484.27 598.62,1485.74 601.82,1487.43 604.71,1490.65 605.45,1490.95 606.36,1490.06 605.29,1491.41 606.66,1492.42 606.11,1491.28 606.72,1489.97 606.13,1491.44 607.24,1492.51 608.57,1492.41 607.42,1492.48 609.71,1493.99 613.04,1495.1 614.59,1492.44 613.01,1495.21 615.28,1497.04 618.16,1497.64 619.11,1496.9 619.37,1497.79 623.83,1498.21 624.48,1499.58 628.06,1501.98 635.45,1513.17 638.45,1515.18 638.5,1516.29 643.72,1522.17 644.02,1524.49 643.18,1523.62 640.13,1517.95 638.5,1518.55 638.01,1517.66 634.44,1517.02 632.3,1519.22 631.56,1519.14 629.67,1515.67 630.15,1513.64 628.72,1510.62 627.47,1510.57 626.58,1513.51 626.85,1519.37 626.28,1520.07 627.61,1519.96 626.92,1521.02 628.86,1520.57 628.85,1521.91 629.98,1520.73 628.24,1523.84 629.22,1525.68 629.5,1530.33 630.29,1528.12 635.34,1527.6 635.79,1526.6 635.32,1528.17 636.51,1530.58 635.19,1532.85 636.17,1534.28 636.03,1533.71 631.2,1533.39 629.52,1530.4 629.47,1532.13 630.59,1532.62 630.37,1533.26 629.63,1532.33 630.54,1534.54 631.23,1534.44 631.68,1537.28 631.08,1537.38 633.21,1539.6 633.74,1541.32 634.71,1541.23 633.95,1541.89 634.51,1542.19 635.5,1542.02 635.89,1540.53 636.64,1540.95 637.71,1540.22 636.81,1540.59 636.79,1542.83 637.46,1543.46 638.32,1542.92 637.71,1541.79 638.06,1541.31 638.59,1541.76 638.04,1542.06 638.57,1541.88 638.21,1541.13 638.76,1541.12 639.21,1538.99 640.69,1539.05 640.21,1546.41 640.55,1543.34 641.8,1545.17 643.34,1543.05 644.41,1543.34 644.62,1540.74 645.34,1540.95 646.48,1536.14 647.14,1536.17 646.5,1536.16 646.08,1540.06 646.57,1540.18 647.22,1537.18 648.02,1537.77 647.27,1540.33 648.56,1538.71 648.07,1540.87 646.93,1541.18 648.65,1541.51 649.31,1538.83 649.33,1540.18 646.85,1545.08 650.38,1551.18 650.96,1553.7 649.94,1555.31 650.14,1556.93 649.13,1556.94 650.01,1560.89 649.07,1561.84 648.35,1565.52 648.67,1568.67 648.05,1568.67 648.37,1569.63 647.75,1569.82 648.37,1569.89 647.78,1570.13 648.38,1570.13 647.7,1570.29 649.04,1570.92 650.06,1570.22 650.32,1570.99 649.38,1571.46 648.31,1570.84 648.27,1574.04 647.55,1574.22 648.23,1574.72 647.52,1574.73 648.16,1574.97 645.19,1578.12 644.38,1578.45 645.36,1577.04 643,1575.11 642.2,1579.19 643.45,1579.72 642.05,1579.95 641.96,1584.69 640.66,1587.74 641.21,1589.48 640.18,1589.67 641.26,1589.8 641.12,1590.93 638.62,1591.9 638.68,1590.59 640.24,1590.87 639.37,1590.67 639.72,1588.89 637.37,1589.1 637.64,1585.2 637,1585.23 635.08,1581.26 633.51,1580.71 632.06,1574.43 629.23,1572.06 627.92,1573.37 624.34,1581.84 624.77,1583.6 626.73,1585.26 625.01,1584.12 625.16,1585.22 626.79,1585.83 626.72,1586.4 626.17,1585.65 625.49,1586.27 624.88,1595.18 625.37,1596.43 626.6,1596.74 629.03,1593.69 631.64,1594.74 631.91,1596.41 635.79,1596.98 637.11,1599.11 636.58,1601.33 638.39,1603.12 636.45,1603.43 635.55,1604.57 635.72,1608.41 638.8,1615.42 639.59,1615.6 638.68,1615.56 639.39,1615.69 642.79,1622.37 646.19,1624.68 648.13,1630.77 650.67,1632.86 650.9,1634.54 650.63,1639.66 650.15,1635.29 649.26,1635.04 648.94,1635.81 647.86,1631.46 646.13,1632.52 645.48,1630.8 643.84,1630.45 643.88,1629.4 642.01,1628.6 640.86,1625.96 638.8,1626.5 638.01,1624.61 637.75,1625.69 638.7,1626.47 639.79,1629.95 642.9,1632.37 643.08,1633.98 643.83,1633.7 644.5,1630.97 645.23,1631.65 646.19,1635.12 645.23,1636.49 646.01,1638.63 647.17,1640.51 649.61,1642.12 651.24,1646.06 654.95,1647.58 655.26,1648.04 654.22,1648.67 655.08,1650.84 657.19,1652.47 660.83,1658.54 662.7,1659.18 663.57,1662.87 665,1663.67 663.51,1658.05 662.21,1658.03 663.01,1659.26 662.01,1658.42 662.07,1655.48 660.16,1652.4 662.02,1652.2 662.17,1651.35 663.6,1653.16 663.5,1654.04 663.03,1653.63 662.56,1654.26 663.71,1656 666.7,1659.08 668.85,1659.5 673.28,1664.13 673.23,1666.54 674.26,1667.76 676.9,1675.97 676.89,1679.03 675.5,1681.79 675.8,1683.82 679.28,1689.38 679.08,1693.17 677.72,1694.61 680.11,1702.74 679.55,1703.32" fill="none" stroke="#1e1e1e" stroke-width="1.04" stroke-linecap="round" stroke-linejoin="round"/>
<polyline points="680.55,1703.35 681.28,1702.19 682.2,1703.4" fill="none" stroke="#1e1e1e" stroke-width="1.04" stroke-linecap="round" stroke-linejoin="round"/>
<polyline points="704.7,1704.03 703.5,1701.12 702.76,1701.4 703.41,1701.1 703.15,1700.3 700.82,1697.7 701.44,1693.09 700.25,1687.84 700.82,1686.92 700.2,1679.57 700.35,1677.24 701.26,1676.43 700.98,1670.96 700.39,1670.74 700.86,1665.87 699.96,1664.92 700.51,1663.51 699.63,1662.56 701.86,1655.19 700.59,1653.4 703.37,1650.77 704.97,1650.58 706.24,1654.04 706.98,1654.36 707.34,1657.86 707.99,1658.37 707.43,1658.09 709.93,1657.97 708.53,1655.59 709.42,1654.94 708.44,1653.63 708.77,1652.97 706.71,1650.59 708.81,1647.92 708.12,1643.05 706.98,1642.8 705.98,1643.74 704.64,1642.61 705.47,1640.93 707.01,1640.18 707.1,1640.97 708.63,1640.21 709.66,1641.23 709.08,1640.01 709.72,1639.98 710.86,1640.99 709.25,1638.95 710.15,1638.45 710.18,1636.73 710.41,1638.19 711.81,1638.2 712.52,1639.54 713.53,1639.28 712.7,1642.83 711.41,1644.51 711.37,1645.73 712.57,1647.16 712.13,1649.38 714.23,1650.07 715.88,1653.31 717.04,1653.17 715.94,1652.1 716.79,1650.69 716.02,1649.56 717.34,1646.6 717.13,1645.11 718.15,1644.15 717.54,1643.18 718.75,1642.38 718.6,1641.57 719.53,1642.27 719.56,1641.44 721.12,1643.82 722.87,1643.04 722.05,1641.38 723.9,1640.03 724.56,1638.31 723.17,1637.15 722.82,1638.93 719.24,1640.55 717.08,1639.13 715.32,1634.84 715.14,1630.19 717.7,1627.15 716.5,1624.3 716.75,1622.77 719.2,1619.5 720.26,1619.52 722.11,1621.95 721.69,1624.34 722.95,1624.42 724.58,1622.99 724.25,1621.68 725.4,1620.52 725.07,1618.4 721.86,1616.55 723.22,1612.35 723.47,1613.22 724.2,1613 723.62,1611.3 725.88,1608.74 725.94,1599.71 727.28,1602.41 729.11,1601.52 728.33,1601.48 729.24,1600.44 728.97,1599.33 730.45,1599.43 730.47,1596.49 731,1596.39 731.35,1594.12 730.44,1593.02 734.71,1591.4 735.85,1589.82 736.85,1590.44 738.6,1588.96 739.79,1590.17 742.46,1588.52 743.25,1585.59 745.96,1583.56 746.33,1581.68 746.69,1582.59 747.76,1582.42 747.87,1581.53 747.63,1582.15 748.04,1581.66 748.53,1582.32 748.87,1581.85 748.49,1582.5 749.98,1582.54 752.67,1580.56 754.2,1580.75 753.75,1581.44 755.45,1582.49 758.19,1583.14 763.78,1587.22 763.46,1590.93 764.24,1591.17 763.41,1591.32 763.37,1592.53 765.78,1595.77 765.04,1595.7 767.52,1597.63 767.62,1602.13 769.03,1603.57 772.57,1604.84 773.55,1604.38 773.24,1603.85 773.13,1604.76 776.41,1603.66 776.43,1604.22 779.26,1604.77 781.45,1606.77 782.72,1605.62 781.47,1606.81 782.24,1607.2 782.69,1605.91 782.79,1607.36 784.83,1608.34 787.48,1606.11 790.16,1605.75 793.68,1607.66 791.81,1607.32 790.46,1605.88 788.02,1606.25 789.94,1607.19 787.91,1606.37 786.68,1607.54 788.42,1607.78 787.11,1607.69 786.47,1608.74 787.11,1608.31 787.56,1608.96 789.39,1607.69 791.12,1607.95 791.51,1608.74 790.09,1607.85 789.16,1608.32 789.44,1608.95 789.1,1608.35 786.76,1609.53 787.45,1611.31 790,1610.15 789.66,1609.4 790.07,1610.13 790.93,1609.13 791.41,1610.21 787.78,1611.44 783.97,1611.47 785.13,1611.49 783.96,1611.67 785.14,1611.62 785.96,1614.85 791.16,1612.22 790.94,1611.56 792.36,1611.35 792.52,1610.36 793.76,1610.94 793.12,1609.58 793.91,1610.7 785.94,1614.94 787.22,1621.7 786.94,1625.16 786.97,1622.92 786.24,1622.8 785.22,1624.48 783.16,1625.15 784.56,1624.92 783.6,1626.16 783.48,1628.25 782.33,1628.43 781.02,1627.47 781.27,1628.59 784.31,1630.23 784.98,1628.65 786.05,1629.16 787,1630.76 786.59,1632.22 785.44,1633.48 785.38,1635.87 784.25,1635.68 784.16,1636.39 783.87,1635.32 781.79,1635.3 783.41,1634.7 782.65,1632.4 782.48,1632.98 780.86,1632.61 777.6,1633.87 779.79,1635.31 781.16,1634.86 780.26,1636.37 780.77,1637.48 782.67,1637.62 782.39,1640.15 781.02,1642.64 777.55,1643.87 775.9,1645.68 776.48,1646.17 775.6,1646.79 776.42,1646.84 775.58,1646.81 775.68,1648.01 776.68,1648.06 776.25,1649.69 777.46,1649.75 775.51,1650.22 775.63,1651.34 774.04,1654.12 775.67,1656.48 775.69,1658.5 780.29,1658.27 778.81,1658.02 777.13,1658.95 779.84,1661.68 781.04,1661.46 780.5,1662.24 778.05,1660.76 778.82,1663.19 777.3,1664.94 777.7,1666.29 778.47,1665.88 779.58,1667.06 779.83,1667.99 778.65,1667.06 779.75,1669.06 776.75,1670.63 779.77,1671.41 778.96,1672.03 779.61,1672.92 778.52,1674.35 780.55,1675.59 780.15,1676.51 778.31,1677.08 778.15,1678.49 780.05,1679.38 780.24,1678.52 781.46,1678.5 781.14,1677.97 782.15,1677.52 782.44,1678.19 781.41,1677.92 781.92,1679.05 781,1679.28 782.2,1680.06 783.18,1678.92 784,1679.35 784.16,1678.54 785.93,1679.93 787.32,1678.36 789.43,1683.98 788.38,1684.09 788.1,1683.35 787.81,1684.52 786.23,1685.28 786.78,1687.19 788.82,1689.21 788.2,1689.07 788.78,1689.42 788.26,1689.25 787.23,1693.35 788.43,1694.36 787.16,1694.15 788.17,1696.04 788.02,1699.45 788.68,1699.5 788.01,1699.5 788.92,1699.52 788,1699.88 788.96,1700.21 788,1699.91 788.07,1703.06 787.46,1704.24 787.92,1702.38 787.44,1703.02 786.79,1704.85 788.56,1705.23 784.64,1705.25 788.13,1705.5 787.05,1705.93" fill="none" stroke="#1e1e1e" stroke-width="1.04" stroke-linecap="round" stroke-linejoin="round"/>
<polyline points="1146.93,1707.02 1148.11,1705.62 1147.8,1704.2 1148.89,1705.86 1150.57,1703.9 1149.22,1702.69 1150.04,1701.92 1149.75,1702.77 1150.4,1703.07 1158.9,1691.15 1162.7,1692.95 1168.62,1690.41 1167.03,1690.98 1167.82,1692.71 1170.67,1690.73 1170.15,1690.27 1170.54,1689.42 1171.23,1689.66 1170.87,1687.49 1166.81,1683.37 1165.12,1683.22 1165.33,1682.15 1169.61,1678.95 1168.95,1679.24 1169.78,1678.63 1169.11,1678.08 1169.48,1676.57 1169.75,1678.24 1171.36,1676.22 1170.7,1678.33 1171.35,1679.51 1171.06,1677.47 1171.9,1678.53 1172.38,1678.18 1171.28,1676 1172.19,1676.12 1173.01,1677.72 1174.56,1676.36 1174.98,1675.71 1173.65,1673.31 1174.94,1671.63 1174.88,1670.46 1177.84,1668.66 1180.18,1664.42 1180.42,1665.66 1181.63,1665.37 1181.44,1667.91 1182.76,1668.31 1181.7,1667.7 1181.78,1666.06 1182.47,1666.5 1181.96,1665.28 1183.07,1664.81 1184.37,1665.66 1183.43,1664.31 1184.6,1665.16 1186.15,1664.62 1183.73,1663.6 1181.72,1664.99 1180.35,1664.45 1181.13,1664.73 1183.58,1661.5 1183.7,1658.92 1183.49,1660.37 1184.22,1660.26 1184.03,1659.21 1184.89,1658.4 1186.75,1660.53 1187.22,1659.71 1185.55,1659.49 1185.15,1658.49 1185.59,1659.3 1186.9,1658.87 1187.94,1659.65 1187.11,1658.65 1185.54,1659.02 1186.75,1656.3 1186.02,1656.24 1186.61,1655.28 1186.05,1656.24 1186.78,1655.36 1187.05,1656.66 1188.08,1656.69 1187.05,1656.46 1188.08,1656.35 1186.98,1656.24 1187.21,1655.15 1189.61,1656.92 1189.04,1655.66 1189.34,1656.95 1187.68,1655.62 1188.9,1655.71 1188.48,1655.1 1187.3,1654.88 1193.75,1643.82 1194.14,1646.35 1192.38,1647.16 1192.01,1652.02 1192.64,1653.51 1193.15,1652.57 1194.42,1653.05 1199.51,1651.97 1196.87,1653.24 1196.89,1654 1201.84,1651.03 1201.98,1650.28 1200.97,1649.89 1200.57,1650.7 1199.49,1648.29 1200.21,1648 1201.18,1648.89 1201.02,1646.07 1202.48,1645.55 1203.93,1642.9 1210.19,1638.98 1211.07,1637.73 1210.2,1636.75 1211.71,1637.22 1213.47,1633.53 1214.1,1635.18 1215.22,1634.07 1214.79,1633.16 1213.72,1633.52 1214.93,1632.19 1213.77,1631.47 1214.16,1630.25 1213.8,1631.45 1214.88,1632.04 1214.76,1630.75 1215.08,1632.07 1215.95,1630.42 1216.19,1631.96 1216.28,1631.37 1217.87,1631.37 1216.4,1631.03 1217.98,1631.18 1218.46,1630.52 1218.52,1631.37 1219.97,1631.39 1223.07,1628.97 1221.29,1630.21 1222.18,1630.74 1226.49,1627.18 1231.19,1620.31 1231.49,1622.54 1230.08,1624.53 1232.96,1624.22 1232.8,1622.89 1231.66,1622.48 1232.8,1622.85 1233.02,1622.03 1231.49,1621.84 1231.42,1619.86 1232.3,1619.66 1233.03,1617.81 1233.91,1618.15 1232.81,1619.6 1235.01,1617.43 1236.8,1615.02 1237.76,1611.62 1239.51,1612.03 1240.15,1610.83 1241.33,1611.31 1240.96,1610.75 1242.06,1609.34 1240.91,1607.96 1241.24,1606.63 1239.16,1611.75 1236.92,1611.18 1237.91,1611.33 1238.79,1609.69 1240.76,1602.36 1241.91,1605.41 1242.11,1603.75 1240.46,1601.48 1240.66,1600.69 1240.62,1601.47 1241.45,1601.55 1241.96,1600.88 1240.98,1600.88 1243.11,1599.7 1244.34,1592.03 1250.15,1581.51 1251.17,1581.89 1252.66,1580.09 1254.09,1572.77 1256.4,1569.56 1257.47,1569.62 1256.99,1572.18 1257.61,1572.08 1258.19,1573.66 1257.95,1576.08 1258.97,1573.99 1261.17,1574.95 1261.94,1573.58 1263.39,1574.45 1264.31,1573.12 1264.24,1575.62 1265.04,1574.09 1265.21,1576.56 1266.75,1577.44 1267.32,1576.97 1266.46,1576.87 1266.5,1576.19 1268.49,1576.99 1269.46,1576.23 1269.7,1577.39 1270.41,1577.46 1271.79,1574.13 1272.23,1574.74 1274.98,1574.3 1276.14,1575.61 1276.86,1575.29 1276.15,1574.3 1277.62,1574.54 1276.12,1573.1 1277.22,1572.77 1277.1,1571.85 1276.17,1571.37 1275.1,1572.05 1275.36,1570.79 1274.76,1570.38 1274.06,1571.92 1274.13,1570.45 1273.49,1570.9 1273.25,1573.1 1272.59,1571.16 1270.58,1573.66 1269.91,1573.11 1269.31,1574.79 1267.74,1575.57 1266.21,1574.75 1266.14,1572.02 1266.86,1570.38 1267.69,1570.39 1267.08,1568.63 1267.65,1565.46 1270.6,1567.8 1270.47,1569.32 1272.62,1569.78 1273.3,1568.94 1273.32,1568.15 1271.9,1567.33 1272.49,1566.48 1270.7,1566.76 1270.53,1565.29 1269.63,1565.39 1269.24,1564.32 1267.91,1563.8 1269.22,1562.09 1269.78,1562.85 1270.77,1561.66 1271.44,1562.62 1272.04,1561.96 1272.28,1560.24 1271.56,1560.02 1272.76,1558.09 1272.36,1556.45 1273.31,1553.86 1272.63,1556.35 1273.49,1556.43 1274.28,1555.28 1273.89,1557.32 1275.33,1555.88 1275.43,1557.77 1276.71,1555.6 1277.11,1556.14 1276.66,1559.42 1278.5,1557.82 1279.07,1558.57 1279.63,1557.93 1279.79,1560.65 1280.81,1560.63 1281.57,1559.51 1281.57,1561.2 1282.54,1561.39 1282.94,1560.65 1284.95,1561.27 1285.72,1560.58 1285.04,1558.9 1283.18,1557.84 1285.26,1558.42 1285.43,1556.74 1286.44,1557.02 1286.27,1561.06 1288,1561.52 1287.34,1562.41 1285.68,1562.52 1285.69,1561.41 1282.52,1561.56 1280.9,1563.38 1280.66,1562.35 1279.09,1563.21 1278.14,1562.81 1279.09,1565.18 1277.58,1564.47 1275.33,1565.69 1277.05,1567.31 1275.32,1568.46 1277.12,1568.84 1276.15,1569.43 1276.99,1570.24 1278.31,1569.6 1278.42,1571.54 1279.24,1571.29 1280.71,1572.38 1282.18,1571.2 1281.52,1570.17 1282.2,1569.57 1282.63,1570.7 1284.18,1570.44 1284.18,1571.46 1285.36,1571.03 1283.51,1572.4 1284.79,1576.18 1283.61,1576.59 1283.58,1575.51 1282.64,1575.6 1283.51,1574.41 1282.15,1573.01 1281.14,1574.62 1280.23,1574.62 1280.62,1576.27 1279.51,1575.83 1280.13,1577.14 1279.63,1577.7 1280.29,1577.94 1279.95,1579.42 1281.03,1580.13 1281.98,1578.78 1282.16,1579.65 1283.13,1579.15 1283.57,1581.54 1284.72,1580.98 1285.16,1582.72 1283.72,1582.98 1283.48,1581.98 1281.32,1581.78 1278.76,1582.65 1277.81,1580.51 1277.17,1580.69 1277.96,1580.02 1277.11,1579.23 1278.1,1578.21 1277.61,1576.34 1276.55,1577.76 1275.02,1578.12 1275.51,1579.63 1273.94,1580.82 1274.62,1578.82 1273.75,1577.83 1276.11,1576.8 1275.52,1575.45 1274.15,1574.93 1273.31,1575.9 1272.4,1575.62 1272.62,1576.43 1271.5,1577.16 1272.23,1578.41 1268.69,1579.99 1269.56,1581 1269.55,1582.68 1270.93,1581.04 1270.46,1583.13 1269.61,1583.44 1270.31,1584.07 1269.56,1587.11 1271.04,1586.5 1271.64,1584.21 1273.48,1582.72 1274.06,1584.03 1272.82,1586.94 1274.13,1587.98 1275.12,1587.66 1274.87,1586.5 1275.79,1585.42 1276.27,1587.22 1277.46,1586.17 1277.9,1588.63 1281.08,1587.05 1284.06,1588.2 1282.01,1589.47 1280.51,1589.46 1280.38,1592.8 1279.16,1592.4 1277.59,1593.12 1277.24,1592.12 1275.03,1593.51 1275.9,1594.04 1274.94,1595.23 1275.71,1595.88 1276.26,1594.71 1277.11,1594.56 1277.69,1595.49 1279.32,1594.85 1278.78,1597.16 1279.81,1599.18 1278.59,1598.72 1278.59,1599.67 1277.48,1599.75 1277.78,1600.46 1276.72,1601.36 1279.28,1601.85 1279.27,1604.1 1280.05,1604.97 1282.67,1603.79 1280.86,1604.99 1281.22,1606.43 1280.32,1605.67 1278.78,1606.44 1278.31,1605.49 1276.15,1605.32 1276.29,1608.9 1277.84,1609.52 1275.89,1613.99 1273.67,1613.94 1273.73,1614.79 1275.02,1614.9 1275.52,1615.77 1273.06,1616.14 1274.37,1617.24 1274.15,1619.63 1273.49,1620.12 1272.87,1619.55 1272.33,1621.95 1271.58,1620.24 1271.95,1623 1270.98,1623.47 1270.38,1626.09 1267.84,1628.2 1269.33,1624.74 1268.85,1624.51 1268.29,1626.32 1264.75,1630.51 1264.61,1631.88 1265.7,1632.12 1264.22,1637.22 1264.85,1637.76 1264.81,1637.03 1264.94,1637.75 1264.22,1637.89 1264.76,1640.85 1266.12,1641.35 1266.27,1642.58 1267.5,1642.19 1267.14,1641.59 1272.92,1643.4 1273.58,1644.66 1273.3,1648.76 1275.03,1651.36 1274,1655.98 1274.2,1658.39 1274.79,1658.01 1274.72,1661.14 1274.03,1660.52 1274.01,1661.41 1274.26,1662.54 1275.18,1662.64 1274.57,1663.21 1274.97,1666.58 1273.99,1668.85 1273.06,1668.78 1273.61,1671.02 1274.81,1671.79 1274.7,1670.66 1275.8,1670.97 1275.37,1670.1 1276.58,1673.11 1275.42,1681.6 1276.05,1682.55 1275.44,1681.99 1275.31,1682.67 1276.14,1682.99 1275.15,1683.44 1276.33,1683.65 1276,1686.82 1275.08,1687.93 1275.78,1687.45 1275.79,1688.26 1275.05,1688.28 1277.06,1689.25 1277.22,1690.29 1277,1689.31 1275.1,1688.94 1275.13,1689.89 1276.57,1690.11 1275.78,1691.4 1275.65,1690.4 1274.69,1690.07 1274.7,1691.86 1275.46,1691.26 1274.57,1694.75 1274.87,1698.15 1275.69,1697.76 1275.31,1696.96 1275.81,1698.05 1274.94,1698.72 1275.47,1704.54" fill="none" stroke="#1e1e1e" stroke-width="1.04" stroke-linecap="round" stroke-linejoin="round"/>
<polyline points="625.09,38.48 625.62,42.05 627.97,47.96 622.73,49.9 618.92,54.9 614.42,67.69 615.3,72.13 617.04,75.61 615.34,73.17 614.26,68.33 614.05,70.4 616.14,75.52 617.62,76.28 624.53,84.29 623.5,88.18 626.86,95.53 626.36,98.24 624.74,100.01 622.45,100.62 624.64,99.19 626.52,95.22 616.85,91.34 617.95,87.85 616.79,87.13 613.58,86.47 611.79,87.29 609.96,94.46 608.16,109.78 606.03,113.01 606.9,108.22 605.2,104.21 604.38,106.53 604.82,107.78 603.91,107.6 602.79,109.02 602.82,110.46 602.08,109.73 601.87,106.96 601.55,110.88 603.01,111.37 599.24,111.2 600.86,110.13 600.53,109.2 598.61,110.74 597.37,110.6 597.22,109.05 599.13,105.87 598.17,105.5 597.45,108.18 595.79,108.49 595.88,105.97 596.85,105.88 596.53,104.41 601.88,99.93 598.14,99.17 593.1,101.01 592.37,100.35 592.46,98.23 590.08,93.98 586.62,94.08 586.19,94.85 587.43,97.1 587.07,98 586.21,97.97 585.5,99.24 581.46,100.48 580.65,101.67 579.43,101.3 577.47,102.1 576.87,103.34 578.03,104.49 581.32,104.46 581.01,105.87 582.87,103.61 586.72,101.69 590.75,102.08 590.53,103.43 584.58,106.29 582.38,110.67 581.35,116.22 580.04,118.9 582.27,120.21 582.69,124.04 582.49,127.46 580.78,132.73 579.15,136.39 575.7,140.54 573.51,141.97 572.28,140.35 572.9,139.77 570.8,138.37 573.39,139.65 577.13,136.78 574.37,135.39 577.3,135.01 579.93,131.42 579.68,125.81 576.92,126.63 570.87,134.98 571.32,136.53 571.96,134.29 571.93,135.48 570.51,137.35 570.51,138.93 572.77,139.72 572.26,140.4 573.46,142 571.93,144.45 571.87,146.47 573.42,151.29 574.96,153.51 574.18,183.48 574.85,192.38 573.97,192.15 574.54,192.39 573.48,193.03 573.2,196.61 574.2,214.27 575.94,222.08 575.34,224.07 575.49,235.85 577.09,242.55 576.25,249.72 580,257.54 579.45,262.07 582.17,270.06 589.38,279.79 600.8,289.65 614.76,296.98 621.01,299.14 622.41,298.41 621.06,299.05 621.94,300.99 621.7,299.2 623.04,299.1 622.24,298.73 623.51,299.65 633.11,301.56 636.46,301.92 636.77,300.87 637.83,301.11 636.71,300.9 636.64,301.8 639.12,302.13 639.1,301.23 637.83,300.7 640.07,302.53 656.3,304.33 663.22,301.7 664.55,302.17 666.86,305.11 665.14,306.03 666.44,305.33 669.63,307.94 686.91,312.8 689.26,317.31 689.62,321.63 696.49,340.3 709.76,351.76 711.13,354.07 719.05,358.63 722.38,361.52 727.05,363.78 728.79,366.67 731.6,368.95 737.31,371.58 753.45,382.83 761.35,386.62 769.94,389.61 786.27,393.3 795.98,394.29 799.12,396.29 802.94,397.15 802.61,397.93 803.74,397.71 803.43,398.23 808.91,400.37 812.67,403.07 818.02,404.73 837.28,407.91 847.62,407.4 859.31,404.8 887.91,396.37 924.56,389.46 958.29,379.27 960.63,377.93 960.84,378.98 960.81,378.03 961.84,378.83 961.48,378.16 962.42,378.53 963.37,376.45 962.57,378.83 963.26,378.73 962.88,378.19 964.92,378.61 972.04,376.19 970.74,377.27 971.54,377.9 971.85,377.11 972.68,377.27 972.26,376.91 1009.34,372.53 1023.85,369.53 1027.5,367.75 1031.08,369.53 1030.5,372.18 1021.24,374.18 1009.13,374.63 1003.43,376.47 996.7,376.47 997.58,378.77 996.34,378.83 1004.23,382.54 1015.34,384.39 1018.62,386.05 1020.55,385.15 1021.9,385.69 1023.77,384.63 1026.47,384.66 1026.94,383.29 1029.37,382.3 1030.49,380.94 1031.83,377.94 1031.46,371.56 1032.53,369.58 1032.59,366.82 1030.97,364.14 1028.28,363.9 1031.14,360.59 1031.82,357.41 1027.8,338.31 1028.24,332.89 1027.56,329.85 1025.35,329.48 1027.73,329.13 1025.37,322.72 1020.67,321.97 1025.76,322.57 1025.58,318.89 1024.86,319.64 1024.53,318.2 1023.91,318.41 1024.43,316.82 1021.94,310.64 1019.63,311.6 1021.91,310.58 1013.87,280.83 1012.19,269.47 1011.65,258.29 1012.29,246.8 1016.1,226.35 1016.94,206.91 1013.24,190.31 1013.59,183.95 1015.66,174.66 1021.06,164.23 1022.39,157.75 1026.76,150.25 1027.84,148.93 1029.03,148.96 1029.89,147.07 1030.26,145.02 1027.86,143.84 1028.49,139.97 1029.51,139.94 1029.7,138.98 1028.77,138.12 1027.24,139.43 1026.44,139.11 1027.1,136.91 1026.59,136.56 1025.09,138.16 1025.53,134.87 1024.32,135.76 1022.69,135.06 1021.22,135.99 1020.72,139.06 1019.37,138.43 1018.6,136.54 1018.2,127.95 1016.67,131.18 1012.29,129.72 1011.75,126.43 1009.29,128.35 1009.32,126.4 1006.86,125.32 1006.83,123.62 1005.87,123.85 1006.77,126.21 1006.39,129.28 1004.69,126.85 1004.27,123.82 1003.51,123.08 1002.9,125.92 1001.27,119.48 1003.38,118.42 1004.62,113.58 1001.31,115.62 1003.38,109.3 1002.8,108.54 1000.95,108.89 998.21,113.42 997.96,115.9 998.82,117.08 998.11,121.55 997.35,121.65 997.48,116.64 995.4,115.55 995.88,114.82 993.84,112.62 994.71,109.43 996.72,107.23 996.37,106.69 992.13,109.4 991.94,107.2 990.44,107.42 989.77,106.37 992.42,99.71 988.47,102.64 988.57,101.52 987.51,101.01 989.11,96.69 986.24,99.71 988.48,93.28 984.53,95.72 982.68,98.39 981.73,97.95 983.7,94.99 982.91,94.1 979.98,96.38 981.26,93.05 975.46,96.27 975.33,95.55 976.82,94.55 975.54,93.57 975.64,90.92 970.76,92.99 966.75,92.31 964.94,91.63 964.84,90.54 961.89,89.78 959.05,90.19 956.38,92.24 954.87,91.91 959.38,94.08 958.95,95.91 956.51,98.95 955.15,104.13 956.46,108.41 956.55,109.75 955.72,110.09 953.88,95.81 951.97,90.31 949.12,87.28 948.81,88.39 949.14,83.99 960.98,65.76 964.22,56.54 966.39,55.01 969.37,56.57 966.43,57.6 964.5,61.72 963.16,62.88 962.19,65.66 962.64,66.63 960.84,68.58 960.87,70.01 960.18,69.94 960.59,72.75 978.96,70.49 982.5,72.86 982.91,75.26 985.92,75.87 984.93,77.5 985.71,78.75 987.72,77.99 989.52,76.04 989.94,79.02 992.13,77.59 991.23,77.01 992.34,75.87 990.47,74.95 990.37,73.46 992.22,70.83 992.94,70.85 992.34,73.13 994.9,73.43 994.81,75.9 997.15,74.76 995.96,76.36 996.35,77.05 997.13,75.06 997.11,75.81 998.15,75.02 997.36,74.91 997.96,72.4 1000.46,71.11 1000.82,72.63 1003.02,69.41 1003.87,69.87 1003.11,72.17 1004.68,72.72 1005.1,70.44 1004.14,70.38 1005.73,68.33 1005.13,67.9 1004.03,69.77 1002.47,68.89 1002.07,70.27 1000.95,68.04 998.82,70.09 997.83,69.72 995.95,65.59 997.8,65.49 997.92,66.41 998.95,65.49 997.58,64.5 997.38,61.23 995.41,62.13 993.22,60.24 993.24,63.49 991.61,61.62 990.28,63.69 989.35,62.2 991.08,59.48 990.4,57.54 988.6,55.55 989.01,56.84 988.17,57.62 988.16,59.45 986.82,57.44 985.93,57.89 985.69,56.06 982.63,51.34 981.31,50.89 982.84,55.21 979.3,52 979.55,54 982.14,56.75 980.34,57.53 978.37,53.81 979.21,46.01" fill="none" stroke="#1e1e1e" stroke-width="1.04" stroke-linecap="round" stroke-linejoin="round"/>
<polyline points="978.01,46 977.34,47.07 976.76,46" fill="none" stroke="#1e1e1e" stroke-width="1.04" stroke-linecap="round" stroke-linejoin="round"/>
<polyline points="1173.51,1673.58 1172.56,1673.03 1172.75,1671.39 1173.14,1672.64 1174.49,1671.4 1172.94,1671.68 1174.68,1670.27 1174.78,1671.52 1173.51,1673.58" fill="none" stroke="#1e1e1e" stroke-width="1.04" stroke-linecap="round" stroke-linejoin="round"/>
</svg>
