<?xml version="1.0" encoding="UTF-8" standalone="no"?>
<svg xmlns="http://www.w3.org/2000/svg" width="2000" height="1716" viewBox="0 0 2000 1716">
<rect width="2000" height="1716" fill="#ffffff"/>
<polyline points="1895.74,614.92 1890.69,615.91 1883.7,614.39 1881.77,615.09 1876.13,620.45 1869.11,624.94 1863.97,629.38 1860.73,630.62 1856.42,633.77 1853.89,634.12 1849.66,632.56 1831.21,630.63 1811.83,633.16 1806.66,635.64 1801.88,636.31 1792.64,635.33 1788.57,633.16 1785.27,634.96 1780.9,635.29 1773.25,633.67 1767.83,629.28 1766.12,628.75 1755.8,627.86 1747.28,628.39 1728.95,625.39 1719,620.98 1716.17,619 1708.78,609.76 1703.1,607.78 1701.27,603.81 1688.35,598 1686,590.19 1682.28,583.79 1682.9,576.04 1682.22,570.43 1683.59,567.13 1685.01,555.91 1687.56,550.97 1686.53,550.02 1686.6,546.79 1682.17,541.05 1683.58,539.96 1682.46,537.37 1682.25,533.88 1682.62,531.44 1683.87,530.26 1687.97,529.55 1689.67,528.42 1690.26,526.37 1689.69,518.28 1692.3,513.07 1693.69,507.26 1696.73,502.28 1697.12,499.89 1695.44,493.11 1690.81,486.35 1690.36,483.37 1692.04,480.55 1692.27,475.22 1691.53,473.32 1691.74,468.93 1689.89,461.32 1687.88,458 1684.61,454.95 1679.15,453.41 1682.89,449.09 1682.56,444.41 1684.66,442.83 1685.17,438.41 1686.56,435.58 1684.04,424.74 1682.2,421.56 1681.73,417.79 1680.25,415.35 1678.59,414.5 1679.16,412.92 1677.62,409.79 1679.09,395.02 1678.16,392.04 1679.67,387.52 1679.45,384.72 1676.61,376.66 1674.54,374.48 1675.61,372.02 1673.86,372 1672.42,370.7 1672.78,368.32 1668.53,359.38 1666.28,358.9 1660.28,353.75 1658.37,355.45 1656.47,354.74 1650.5,348.96 1647.53,342.2 1641.01,337.16 1638.58,333.85 1637.46,331.42 1637.53,326.97 1631.14,319.27 1630.37,316.93 1628.15,315.91 1626.11,313.41 1624.24,313.42 1623.07,308.83 1621.14,308.26 1619.81,303.28 1616.89,300.21 1615.35,295.83 1610.38,290.01 1612.1,283.18 1611.51,278.65 1602.1,260.15 1599.69,258.33 1594,249.07 1592.86,242.63 1590.9,237.2 1586.77,232.94 1585.36,229.29 1574.89,220.22 1573.75,218.06" fill="none" stroke="#1e1e1e" stroke-width="1.04" stroke-linecap="round" stroke-linejoin="round"/>
<polyline points="1470.49,335.44 1468.95,334.86 1464.92,330.23 1457.19,328.29 1453.2,328.97 1450.84,331.76 1444.7,336.3 1437.13,337.04 1429.32,335.46 1420.97,332.23 1409.74,322.64 1404.33,320.99 1400.88,316.18 1391.65,310.06 1346.14,299.36 1343.5,296.24 1341.04,295.18 1335.85,290.71 1331.5,284.78 1329.75,283.97 1326.35,283.67 1324.31,282.26 1321.4,282.72 1317.96,279.32 1299.64,281.1 1297.21,280.67 1291.81,276.64 1288.05,275.63 1268.8,275.81 1265.37,273.67 1259.81,272.17 1253.65,265.26 1240.55,261.4 1239.65,259.71 1235.86,258.58 1233.13,254.11 1229.07,252.74 1224.56,252.66 1221.36,253.82 1219.68,252.88 1202.01,255.32 1198.11,257 1189.95,258.2 1187.85,259.18 1184.15,258.15 1182.86,256.12 1178.14,254.99 1171.62,251.82 1160.85,251.1 1157.39,247.77 1150,245.03 1143.71,245.98 1137.76,248.52 1136.97,250.32 1129.03,252.44 1126.71,256.26 1123.41,257.48 1122.29,260.2 1118.17,264.93 1104.85,274.35 1101.07,279.2 1098.79,286.77 1098.91,289.15 1100.83,292.23 1100.49,296.57 1099.03,301.14 1091.03,307.82 1088.82,306.65 1086.37,306.46 1078.83,307.84 1064.48,313.02 1051.81,313.58 1048.28,315.14 1046.3,314.94 1042.17,312.87 1039.43,308.17 1035.12,307.6 1029.1,309.22 1023.4,312.05 1019.93,315.04" fill="none" stroke="#1e1e1e" stroke-width="1.04" stroke-linecap="round" stroke-linejoin="round"/>
<polyline points="1935.81,1056.85 1930.26,1062.49 1929.03,1065.78 1922.75,1067.88 1918.05,1075.04 1911.49,1080.03 1909.15,1080.66 1904.98,1079.49 1901.48,1081.33 1893.15,1082.06 1863.52,1094.67 1855.37,1095.75 1850.81,1095.56 1829.66,1090.5 1817.87,1085.43 1813.22,1084.86 1807.86,1085.28 1805.07,1084.08 1801.48,1083.81 1794.19,1079.64 1788.7,1070.84 1789.61,1056.4 1787.25,1043.04 1787.39,1036.86 1783.77,1032.86 1784.42,1032.04 1782.76,1028.31 1784.55,1025.86 1783.77,1023.61 1784.5,1020.4 1783.04,1011.47 1780.22,1008.04 1771.89,1003.7 1769.37,1000.73 1766.04,995.13 1762.17,985.63" fill="none" stroke="#1e1e1e" stroke-width="1.04" stroke-linecap="round" stroke-linejoin="round"/>
<polyline points="1845.89,64.97 1838.78,60.39 1831.71,61.87 1826.74,60.55 1824.15,61.69 1820.6,61.17 1818.02,59.22 1814.01,53.19 1814.54,44.71 1813.23,36.86 1807.2,33.5 1805.52,29.31 1802.61,26.1 1800.76,25.57 1793.33,26.21 1791.48,25.44 1786.29,17.15 1778.45,13.43" fill="none" stroke="#1e1e1e" stroke-width="1.04" stroke-linecap="round" stroke-linejoin="round"/>
<polyline points="414.51,467.3 407.99,466.97 395.92,468 392.61,470.47 379.57,469.24 378,470.67 374.76,470.71 375.08,475.37 370.93,480.68 369.48,484.84 365.98,490.28 367.9,498.58" fill="none" stroke="#1e1e1e" stroke-width="1.04" stroke-linecap="round" stroke-linejoin="round"/>
<polyline points="414.66,467.32 420.91,467.02 423.15,464.53 427.17,463.18 428.55,460.04 430.47,458.82 432.44,455.74 435.26,455.99 437.82,455.21 441.47,456.7 446.67,456.32 449.39,455.17 456.73,455.82 468.22,459.3 471.67,459.48 477.2,458.03 483.88,459.38 492.79,458.96 495.21,456.34 497.05,456.08 498.45,450.17 495.18,446.29 489.93,443.51 482.31,441.62 478.9,435.76 476.41,434.92 477.24,431.89 476.83,429.13 478.05,427.3 476.37,423.75 475.4,418.99 471.37,412.98 468.97,405.49 470.08,403.49 469.94,401.61 467.41,394.94 465.53,394.07 464.89,389.4 463.79,388.87 463.82,386.26 462.59,385.01 459.73,376.22 457.55,373.98 451.44,361.76 451.01,358.64 452.77,356.93 451.98,355.86 453.62,352.49 459.56,346.69 463.48,339.78 465.5,337.91 467.87,330.68 466.51,320.85 473.31,304.09 473.34,301.97 472.06,300.86 472.87,298.39 479.69,294.49 482.16,291.26 485.5,288.94 491.77,290.12 495.07,288.77 503.46,293.05 505.73,295.26 513.46,295.88 514.38,297.13 514.17,298.2 511.86,301.14 510.47,306.2 510.78,307.84 513.4,313.04 519.11,318.64 518.33,320.92 521.23,319.6 524.29,319.6 525.55,320.36 526.68,323 531.31,324.33 533.43,332.3 543.1,340.36 544.01,340.85 546.93,340.16 552.14,343.46 560.14,352.4 563.15,354.08 564.58,356.94 567.15,358.29 570.7,364.52 574.94,366.19 581.58,372.71 585.19,374.42 590.74,375.69 595.14,379.82 596.84,380.48 599.2,380.54 600.45,379.05 602.3,380.67 609.12,380.56 612.22,378.42 616.3,370.31 618.5,369.97 621.38,366.87" fill="none" stroke="#1e1e1e" stroke-width="1.04" stroke-linecap="round" stroke-linejoin="round"/>
<polyline points="665.17,304.71 663.83,309.08 663.3,318.2 660.79,323.75 650.15,326.63 647.76,332.77 645.5,334.4 642.32,341.74 628.05,355.27 623.42,364.56 621.38,366.87" fill="none" stroke="#1e1e1e" stroke-width="1.04" stroke-linecap="round" stroke-linejoin="round"/>
<polyline points="561.11,695.4 558.56,692.44 556.39,686.36 552.86,680.21 551.22,671.38 551.94,667.2 549.67,662.49 543.73,655.57 540.56,652.92 536.31,651.03 534.94,649.37 533.11,648.9 531.52,649.55 529.4,648.04 509.68,648.11 507.37,648.61 505.76,650.25 502.44,649.74 497.93,651.12 493.85,650.14 491.19,653.4 488.15,654.2 479.1,651.69 477.56,650.76 474.7,646.85 467.12,643.28 449.52,641.42 446.85,639.86 444.98,640.71 439.84,637.19 440,632.13 438.52,631.1 436.47,631.17 434.4,632.01 430.13,635.79 424.97,636.8 419.41,639.83 416.5,644.68 415.33,649.99 409.34,659.33 411.49,663.85 413.67,664.71 415.43,668.03 415.57,673.57 416.91,677.51 421.09,683.88 422.45,687.98 421.51,688.67 423.04,698.79 422.38,699.93 419.72,700.91 412.01,709.8 408.19,711.08 402.24,711.5 397.99,710.09 393.94,712.54 390.85,710.74 388.1,712.95 383.73,713.4 379.86,712.44 378.83,713.82 379.03,715.47 374.18,720.17 374.86,725.41 373.28,724.36 371.52,725.02 367.68,721.69 363.49,721.28 359.26,721.99 357.22,728.8 358.63,729.74 360.49,733.61 363.35,735.36 365.6,738.64 373.37,743.39 373.47,745.51 372.28,747.4 374.78,751.1 379.88,753.33 381.07,755.02 383.44,754.56 390.4,760.28 390.3,761.76 391.91,763.62 409.38,772.94 410.74,775.61 414.34,776.76 419.21,784.61 422.31,786.04 426.86,790.98 437.47,796.2 439.77,795.56 441.29,797.25 444.41,798.51 446.83,802.45 455.63,807.98 460.33,813.57 465.31,816.66 468.53,822.66 468.41,824.97 470.11,828.52 467.72,831.85 460.13,834.85 458.35,836.28 458.91,840.34 455.58,840.97 452.59,845.13 452.49,846.35 454.73,846.47 455.08,848.57 457.69,851.44 460.58,849.25 461.86,849.47 463.06,851.69 465.87,854.22 472.03,853.7 474.53,856.91 475.13,870.16 474.35,873.9 477.63,884.85 480.02,890.01 478.66,894.67 478.6,905.04 480.42,906.61 483.44,911.45 481.07,915.14 482.57,916.79 481.51,918.59 481.32,923.49 481.83,924.52 485.47,925.79 489.25,925.74 490.41,929.43 493.28,931.25 496.65,936.04 498.66,936.14 499.44,939.68 501.98,940.96 502.86,944.41 512.35,952.88 512.52,954.19 510.91,955.61 499.03,961.07 497.31,963.31 498.45,966.98 492.59,970.69 491.02,968.8 485.86,967.2 481.38,962.94 473.23,960.26 471.18,960.29 467.86,962.27 466.3,963.94 464.8,967.98 463.23,967.91 459.39,965.47 456.4,964.83 454.37,965.57 452.8,963.94 444.01,962 440.12,962.37 437.26,964.01 428.39,969.56 422.63,974.83 421.46,978.03 417.75,982.77 418.7,986.76 418.05,991.91 416.28,992.86 411.64,999.11 409.96,1003.04 407.26,1005.44 408.17,1008.37 405.82,1016.65 403.28,1018.36 401.33,1021.92 400.1,1022.17" fill="none" stroke="#1e1e1e" stroke-width="1.04" stroke-linecap="round" stroke-linejoin="round"/>
<polyline points="621.58,87.29 619.9,84.34 617.07,82 611.07,79.03 600.2,77.87 597.01,75.64 590.06,74.44 588.56,72.29 591.75,68.77 592.38,67 592.25,63.75 590.22,61.79 592.74,58.8 590.09,51.54 587.11,50.02 590.67,44.29 590.6,43.05 586.74,38.69 586.85,36.86" fill="none" stroke="#1e1e1e" stroke-width="1.04" stroke-linecap="round" stroke-linejoin="round"/>
<polyline points="473.7,217.11 475.99,227.47 470.79,235.03 461.38,241.82 452.03,244.16 450.27,245.69 445.62,245.59 442.1,242.6 440.89,242.99 436.6,240.83 434.92,239.13 431.94,238.23 426.66,232.69 421.66,231.02 416.79,225.23 413.37,222.92 405.5,220.95 403.31,217.43 401.15,210.52 399.5,209.45 395.04,210.03 389.14,208.79 386.24,210.91 368.93,209.27 365.18,210.56 355.5,211.91 346.94,215.74 344.83,214.61 341.84,210.54 339.67,210.13 337.54,213.06 327.82,216.63 323.42,222 315.24,226.38 312.67,228.91 307.6,230.4 306.89,231.97 308.95,235.94 308.78,238.96 307.7,240.22 304.05,240.22 299.89,241.55 291.78,252.47" fill="none" stroke="#1e1e1e" stroke-width="1.04" stroke-linecap="round" stroke-linejoin="round"/>
<polyline points="217.32,13.08 223.66,24.03 224.32,28.4 225.37,30.25 226.88,31.3 230.72,32.04 230.04,32.84 231.77,34.31 232.61,36.84 234.34,47.92 235.21,50.29 236.9,52.06 236.34,54.2 238.42,56.01 240.49,56.43 246.99,64.6 250.53,73.1 251.43,80.56 253.77,80.03 262.65,83.79 265.17,83.14 264.95,85.87 268.1,87.53 268.5,88.78 267.61,90.39 270.37,93.7 271.52,98.1 274.69,100.67 273.64,103.68 274.63,106.19 282.43,110.77 290.82,112.97 298.64,113.64 304.98,116.69 323.23,121.95 328.85,125.01 333.87,126.67 340.66,126.26 348.8,121.9 356.55,121.2 368.16,126.83 373.18,125.39 375.94,123.08 381.15,115.11 389.64,110.29 392.5,105.35 395.46,103.61 398.52,99.17 401.2,96.83 404.11,96.29 408.85,97.85 414.91,94.9 422.9,81.94 439.94,74.89 450.72,64.49 454.49,62.67 462.69,60.82 468.77,55.66 481.23,49.52 488.37,43.49 498.19,43.33 501.92,39.58 502.48,34.94 503.76,32.8" fill="none" stroke="#1e1e1e" stroke-width="1.04" stroke-linecap="round" stroke-linejoin="round"/>
<polyline points="188.31,968.02 184.76,968.86 183.27,972.7 182.49,972.39 178.97,968.47 177.59,969.48 172.35,967.21 170.68,965.97 169.33,962.57 167.38,961.54 152.42,956.63 150.14,950.19 146.58,949.13" fill="none" stroke="#1e1e1e" stroke-width="1.04" stroke-linecap="round" stroke-linejoin="round"/>
<polyline points="126.7,930.4 127.98,919.43 132.66,914.29 132.1,907.34 135.51,904.01 132.91,900.58 131.71,894.85 132.14,889.84 129.17,886.43 127.85,880.97 124.9,877.77 119,874.82 114.83,869.83 112.86,858.44" fill="none" stroke="#1e1e1e" stroke-width="1.04" stroke-linecap="round" stroke-linejoin="round"/>
<polyline points="186.19,960.91 187.86,960.24 191.42,962.1 193.06,962.05 196.84,960.14 195.54,953.91 193.54,950.4 185.03,943.02 179.4,934.79 176.93,933.4 175.52,929.84 172.39,928.05 168.78,922.62 168.51,914.23 164.92,907.14 169.5,898.43 169.02,893.64 167.28,892.78 162.35,886.46 155.9,882.89 154.5,881.31 156.65,872.21 155.88,859.85 157.16,857.94 154.12,855.31 150.45,847.7 149.92,842.55 148.77,841.99 145.9,843.82 143.93,843.78 131.1,840.95 127.45,838.64 124.84,835.62 123.21,831.81 121,817.08 118.01,818.14 115.11,814.87 116.27,813.28 113.73,807.33 109.62,802.74" fill="none" stroke="#1e1e1e" stroke-width="1.04" stroke-linecap="round" stroke-linejoin="round"/>
<polyline points="397.29,1017.18 396.82,1015.34 397.71,1009.96 396.61,1007.2 400.23,1002.65 397.68,1000.19 397.64,998.91 399.31,994.96 399.49,991.51 397.38,982.81 399.62,979.3 399.64,977.13 394.33,971.82 393.82,970.58 395.04,966.85 394.58,965.84 391.15,961.32 386.27,958.7 382.22,949.66 378.46,945.83 377.78,939.71 374.68,937.71 373.1,926.5 374.64,922.74 374.3,920.49 371.08,916.68 363.8,918.25 362.65,919.85 358.19,918.87 352.44,909.56 349.77,896.59 346.78,894.45 342.85,894.67 340.97,891.28 336.62,888.21 336.33,883.7 334.6,878.76 337.78,873.79 336.81,866.86 341.15,862.62 334.73,849.51 331.34,846.84 323.83,845.01 317.03,841.72 309.1,841.79 304.45,840.98 301.13,838.28 293.84,836.08 291.4,833.85 287.64,827.1 282.3,825.18 277.32,826.53 275.1,828.32 268.75,829.22 267.01,830.75 264.53,835.57 262.24,834.89 258.67,835.81 255.34,839.27 253.45,839.87 253,839.27" fill="none" stroke="#1e1e1e" stroke-width="1.04" stroke-linecap="round" stroke-linejoin="round"/>
<polyline points="101.09,649.84 115.92,653.57 119.29,656.55 122.86,655.23 124.75,655.97 132.4,661.2 137.67,667.35 138.1,673.42 133.75,680.06 131.33,685.72 131.36,687.77 134.15,692.63 132.22,695.39 129.45,702.93 125.43,703.15 123.43,704.26 123.67,707.55 121.68,710.62 120.72,716.49 121.44,720.1 124.18,723.34 123.37,728.52 125.48,731.63 126.94,737.11 125.4,738.68 125.63,740.47 127.66,741.83 131.97,741.66 132.67,744.93 135.32,748.29 134.5,754.99 138.13,757.04 140.13,759.65 141.95,766.95 142.91,767.35 144.68,766.15 145.35,766.76 146.86,771.19 149.8,774.03 151.92,774.6 154.52,773.35 156.28,773.49 156.87,774.9 155,778.17 155.26,779.23 156.79,779.64 159.05,777.99 159.93,778.23 163.24,781.8 165.73,780.34 167.89,784.47 172.58,786.43 177.06,792.13 179.24,792.12 184.1,789.96 185.8,790.72 186.05,792.64 183.04,793.97 182.24,795.87 188.33,802.87 189.55,803.39 192.14,802.57 195.92,804.83 204.26,805.81 205.27,806.8 205.18,808.4 202.45,814.8 207.16,815.65 209.51,820.49 212.39,820.17 213.69,820.78 217.51,829.51 219.23,830.02 221,828.54 225.78,827.7 227.28,829.91 226.19,832.82 226.63,834.64 228.3,834.92 232.31,832.69 234.16,834.81 236.27,834.92 239.59,832.28 243.09,833.45 244.66,836.63 246.32,838.03 251.67,836.86 253.13,840.26" fill="none" stroke="#1e1e1e" stroke-width="1.04" stroke-linecap="round" stroke-linejoin="round"/>
<polyline points="294.03,1016.84 297.69,1011.09 297.74,1009.39 295.08,1008.37 294.73,1006.52 297.46,1004.68 299.26,1001.86 300.55,997.95 300.58,994.91 297.44,993.84 295.62,992.15 296.27,990.01 294.27,985.22 288.97,982.73 283.54,975.59 280.29,967.94 277.67,957.04 275.49,954.8 274.33,918.48 273.27,913.87 270.99,910.84 265.56,909.3 262.47,904.27 265.36,898.03 263.79,893.65 269.85,881.34 269.81,875.95 268.85,873.68 264.99,871.72 261.88,865.28 263,863.79 262.31,859.5 264.65,853.92 263.92,851.82 258.64,847.25 253.37,845.55 252.51,843.79 253.13,840.26" fill="none" stroke="#1e1e1e" stroke-width="1.04" stroke-linecap="round" stroke-linejoin="round"/>
<polyline points="210.38,972.18 207.77,972.7 198.04,968.92 191.65,967.52 188.58,967.93" fill="none" stroke="#1e1e1e" stroke-width="1.04" stroke-linecap="round" stroke-linejoin="round"/>
<polyline points="188.58,967.93 188.58,967.93" fill="none" stroke="#1e1e1e" stroke-width="1.04" stroke-linecap="round" stroke-linejoin="round"/>
<polyline points="188.58,967.93 185.67,959.33 179.41,955.87 171.01,956.54 165.7,953.02 162.24,954.35 160.52,954.03 157.86,952.12 153.12,946.59 149.59,946.88 146.87,949.15 145.71,948.57 144.2,945.85 136.94,941.37 134.37,936.91 132.42,935.11 131.41,932.45 125.47,929.6 120.54,924.84 119.07,919.6 119.74,917.13 122.04,915.27 122.52,912.96 121.43,907.16 121.65,893.7 120.06,890.4 119.34,886.02 115.22,879.89 114.61,875.82 111.96,872.25 111.51,862.53 113.23,854.67 111.48,852.11 110.42,845.39 108.28,838.92 110.01,834.96 109.54,832.65 104.92,824.36 103.68,820.41 103.85,816.2 112.28,795.25 109.64,786 106.14,784.65 105.3,780.4 102.86,779.19 103.68,773.4 102.28,768.06 101.06,768.7 100.37,768.06 96.99,762.12 98.28,762.23 97.55,761.19 95.14,759.85 93.82,757.26 91.7,756.17 92.96,755.14 94.98,755.69 95.04,755 91.72,753.24" fill="none" stroke="#1e1e1e" stroke-width="1.04" stroke-linecap="round" stroke-linejoin="round"/>
<polyline points="210.01,972.15 211.13,971.98 216.47,974.61 215.88,978.65 217.49,983.4 219.07,984.36 220.18,984.66 221.76,983.37 223.91,984.39 230.32,989.84 232.25,988.72 235.8,988.65 240.17,991.63 241.36,990.64 246.87,992.64 249.95,995.08 259.57,997.39 260.89,996.19 263.97,996.36 269.67,1002.91 275.71,1005.21 283.65,1006.99 293.74,1016.62 299.79,1018.77 303.3,1024.45 307.42,1026.77 309.8,1026.86 312.67,1025.03 330.82,1019.5 350.29,1020.97 352.39,1020.84 356.08,1019.14 366.47,1021.4 379.8,1021.6 383.66,1024.14 386.11,1021.28 397.21,1017.44 399.12,1017.72 400.28,1023.04" fill="none" stroke="#1e1e1e" stroke-width="1.04" stroke-linecap="round" stroke-linejoin="round"/>
<polyline points="497.34,1141.82 493.57,1140.43 489.83,1136.9 487.46,1127.51 484.87,1123.82 483.62,1120.35 483.9,1119.11 486.46,1116.49 486.64,1114.07 485.59,1111.92 479.05,1104.54 477.24,1101.14 475.22,1099.86 469.24,1100.14 467.06,1099.38 465.94,1097.41 464.65,1089.91 461.02,1085.12 438.66,1080.47 436.46,1079.32 431.72,1072.04 426.87,1069.48 425.57,1067.69 425.38,1055.79 423.96,1049.72 418.05,1047.6 413.67,1044.52 406.27,1034.28 400.28,1023.04" fill="none" stroke="#1e1e1e" stroke-width="1.04" stroke-linecap="round" stroke-linejoin="round"/>
<text x="373.75" y="781.11" font-family="sans-serif" font-size="14" stroke="#ffffff" stroke-opacity="0.784" stroke-width="2.33" stroke-linejoin="round" paint-order="stroke" fill="#141414">Karkheh</text>
<text x="1660.6" y="514.51" font-family="sans-serif" font-size="14" stroke="#ffffff" stroke-opacity="0.784" stroke-width="2.33" stroke-linejoin="round" paint-order="stroke" fill="#141414">Harirud</text>
<text x="124.98" y="780.82" font-family="sans-serif" font-size="14" stroke="#ffffff" stroke-opacity="0.784" stroke-width="2.33" stroke-linejoin="round" paint-order="stroke" fill="#141414">Tigris</text>
<text x="409.97" y="332.31" font-family="sans-serif" font-size="14" stroke="#ffffff" stroke-opacity="0.784" stroke-width="2.33" stroke-linejoin="round" paint-order="stroke" fill="#141414">Qezel Owzan</text>
<text x="1211.8" y="265.49" font-family="sans-serif" font-size="14" stroke="#ffffff" stroke-opacity="0.784" stroke-width="2.33" stroke-linejoin="round" paint-order="stroke" fill="#141414">Atrek</text>
<text x="69.32" y="883.95" font-family="sans-serif" font-size="14" stroke="#ffffff" stroke-opacity="0.784" stroke-width="2.33" stroke-linejoin="round" paint-order="stroke" fill="#141414">Euphrates</text>
<text x="326.36" y="130.04" font-family="sans-serif" font-size="14" stroke="#ffffff" stroke-opacity="0.784" stroke-width="2.33" stroke-linejoin="round" paint-order="stroke" fill="#141414">Aras</text>
<text x="358.62" y="217.4" font-family="sans-serif" font-size="14" stroke="#ffffff" stroke-opacity="0.784" stroke-width="2.33" stroke-linejoin="round" paint-order="stroke" fill="#141414">Talkeh</text>
<text x="1785.45" y="1094.4" font-family="sans-serif" font-size="14" stroke="#ffffff" stroke-opacity="0.784" stroke-width="2.33" stroke-linejoin="round" paint-order="stroke" fill="#141414">Helmand</text>
<text x="211" y="933.25" font-family="sans-serif" font-size="14" stroke="#ffffff" stroke-opacity="0.784" stroke-width="2.33" stroke-linejoin="round" paint-order="stroke" fill="#141414">Gharraf Canal</text>
<text x="389.77" y="1089.98" font-family="sans-serif" font-size="14" stroke="#ffffff" stroke-opacity="0.784" stroke-width="2.33" stroke-linejoin="round" paint-order="stroke" fill="#141414">Shatt al-Arab</text>
<text x="1765.1" y="48" font-family="sans-serif" font-size="14" stroke="#ffffff" stroke-opacity="0.784" stroke-width="2.33" stroke-linejoin="round" paint-order="stroke" fill="#141414">Amu Darya</text>
<text x="568.35" y="78.71" font-family="sans-serif" font-size="14" stroke="#ffffff" stroke-opacity="0.784" stroke-width="2.33" stroke-linejoin="round" paint-order="stroke" fill="#141414">Kura</text>
<text x="623.27" y="341.8" font-family="sans-serif" font-size="14" stroke="#ffffff" stroke-opacity="0.784" stroke-width="2.33" stroke-linejoin="round" paint-order="stroke" fill="#141414">Sefīd</text>
<text x="137.88" y="969.07" font-family="sans-serif" font-size="14" stroke="#ffffff" stroke-opacity="0.784" stroke-width="2.33" stroke-linejoin="round" paint-order="stroke" fill="#141414">Atshan</text>
</svg>
