<?xml version="1.0" encoding="UTF-8" standalone="no"?>
<svg xmlns="http://www.w3.org/2000/svg" width="759" height="2000" viewBox="0 0 759 2000">
<rect width="759" height="2000" fill="#ffffff"/>
<path d="M628.76,268.74L627.67,277.74L629.34,283.58L626.89,297.23L627.18,303.37L629.47,308.31L626.96,309.67L626.63,318.51L611.84,336.12L602.25,334.97L599.06,326.14L597.62,316.26L590.28,309.85L585.32,297.73L576.44,283.83L579.14,267.93L592.42,253.33L608.11,244.41L617.43,245.42L624.64,252.12L627.81,256L629.22,261.09L628.76,268.74Z" fill-rule="evenodd" fill="#4682b4" fill-opacity="0.471"/>
<polyline points="628.76,268.74 627.67,277.74 629.34,283.58 626.89,297.23 627.18,303.37 629.47,308.31 626.96,309.67 626.63,318.51 611.84,336.12 602.25,334.97 599.06,326.14 597.62,316.26 590.28,309.85 585.32,297.73 576.44,283.83 579.14,267.93 592.42,253.33 608.11,244.41 617.43,245.42 624.64,252.12 627.81,256 629.22,261.09 628.76,268.74" fill="none" stroke="#1e1e1e" stroke-width="1.71" stroke-linecap="round" stroke-linejoin="round"/>
<path d="M596.78,820.99L608.66,827.37L609.48,838.76L605.34,853.61L595.39,936.67L601.49,957.77L603.09,972.3L591.46,1030.49L592.79,1041.72L589.61,1046.08L582.47,1052.85L577.75,1055.57L573.78,1054.84L572.73,1048.85L577.52,1030.4L576.59,1023.66L568.28,1023.99L546.99,1046.85L535.08,1044.64L531.21,1035.36L529.34,1009.75L525.69,989.08L528.7,970.49L525.19,949.22L527.59,939.93L531.78,931.67L534.68,922.67L534.41,916.83L531.56,904.4L531.67,897.96L533.69,893.16L543.46,877.09L551.68,856.98L561.17,838.97L574.25,826.03L593.46,821L596.78,820.99Z" fill-rule="evenodd" fill="#4682b4" fill-opacity="0.471"/>
<polyline points="596.78,820.99 608.66,827.37 609.48,838.76 605.34,853.61 595.39,936.67 601.49,957.77 603.09,972.3 591.46,1030.49 592.79,1041.72 589.61,1046.08 582.47,1052.85 577.75,1055.57 573.78,1054.84 572.73,1048.85 577.52,1030.4 576.59,1023.66 568.28,1023.99 546.99,1046.85 535.08,1044.64 531.21,1035.36 529.34,1009.75 525.69,989.08 528.7,970.49 525.19,949.22 527.59,939.93 531.78,931.67 534.68,922.67 534.41,916.83 531.56,904.4 531.67,897.96 533.69,893.16 543.46,877.09 551.68,856.98 561.17,838.97 574.25,826.03 593.46,821 596.78,820.99" fill="none" stroke="#1e1e1e" stroke-width="1.71" stroke-linecap="round" stroke-linejoin="round"/>
<path d="M577.2,1109.22L583.89,1114.58L585.98,1124.31L584.46,1127.47L575.65,1137.09L574.12,1139.95L576.7,1143.68L580.34,1154.61L577.15,1157.92L566.27,1165.75L562.3,1166.82L554.85,1166.39L535.98,1163.16L529.3,1159.59L525.94,1153.6L523.84,1138.78L513.02,1121.58L510.8,1103.9L515.63,1091.15L529.09,1093.66L538.02,1082.84L555.5,1099.26L561.8,1103.58L577.2,1109.22Z" fill-rule="evenodd" fill="#4682b4" fill-opacity="0.471"/>
<polyline points="577.2,1109.22 583.89,1114.58 585.98,1124.31 584.46,1127.47 575.65,1137.09 574.12,1139.95 576.7,1143.68 580.34,1154.61 577.15,1157.92 566.27,1165.75 562.3,1166.82 554.85,1166.39 535.98,1163.16 529.3,1159.59 525.94,1153.6 523.84,1138.78 513.02,1121.58 510.8,1103.9 515.63,1091.15 529.09,1093.66 538.02,1082.84 555.5,1099.26 561.8,1103.58 577.2,1109.22" fill="none" stroke="#1e1e1e" stroke-width="1.71" stroke-linecap="round" stroke-linejoin="round"/>
<text x="525.5" y="945.68" font-family="sans-serif" font-size="14" stroke="#ffffff" stroke-opacity="0.784" stroke-width="2.33" stroke-linejoin="round" paint-order="stroke" fill="#141414">Dead Sea</text>
<text x="505.28" y="1134.24" font-family="sans-serif" font-size="14" stroke="#ffffff" stroke-opacity="0.784" stroke-width="2.33" stroke-linejoin="round" paint-order="stroke" fill="#141414">Dead Sea</text>
<text x="543.4" y="293.7" font-family="sans-serif" font-size="14" stroke="#ffffff" stroke-opacity="0.784" stroke-width="2.33" stroke-linejoin="round" paint-order="stroke" fill="#141414">Sea of Galilee</text>
</svg>
