<?xml version="1.0" encoding="UTF-8" standalone="no"?>
<svg xmlns="http://www.w3.org/2000/svg" width="759" height="2000" viewBox="0 0 759 2000">
<rect width="759" height="2000" fill="#ffffff"/>
<polyline points="602.21,334.91 608.22,322.95 609.48,311.26 610.69,293.85 610,264.79 611.17,243.5" fill="none" stroke="#1e1e1e" stroke-width="1.71" stroke-linecap="round" stroke-linejoin="round"/>
<polyline points="596.75,821.01 595.81,828.12 583.02,836.44 562.63,884.33 555.91,921.31 553.39,960.34 552.94,995.17 551.29,1006.7 540.15,1036.87 538.58,1045.27" fill="none" stroke="#1e1e1e" stroke-width="1.71" stroke-linecap="round" stroke-linejoin="round"/>
<polyline points="630.51,21.22 627.07,33.55 624.8,55.04 622.76,62.79 609.53,91.85 608.11,100.1 604.57,194.55 610.84,231.04 611.17,243.5" fill="none" stroke="#1e1e1e" stroke-width="1.71" stroke-linecap="round" stroke-linejoin="round"/>
<polyline points="602.21,334.91 597.9,339.55 597.01,342.49 597.65,344.9 600.17,346.67 595.22,349.11 594.25,354.81 597.56,369.51 597.36,371.35 595.18,375.24 594.99,379.44 596.72,383.1 600.35,385.24 600.37,388.39 597.44,388.41 597.45,392.21 599.88,396.8 601.24,409.89 603.7,416.2 601.29,419.25 600.5,416.21 597.6,423.5 594.92,420.03 596.44,430.67 597.65,433.9 591.71,433.93 591.73,437.41 595.77,437.24 599.79,443.87 603.85,448.12 603.87,451.25 599.98,452.45 597.43,455.16 595.87,458.62 595.11,462.04 598.82,464.8 600.73,465.18 600.74,468.98 595.16,472.17 597.84,475.64 591.92,479.46 594.5,480.53 595.21,482.92 591.93,482.94 591.95,486.08 594.65,488.73 595.12,490.79 593.24,492.22 589.1,493.05 591.02,498.66 595.94,505.66 598.02,514.17 595.35,514.18 595.33,510.73 592.06,510.74 592.08,514.2 594.47,519.16 594.22,534.45 598.15,541.98 596.22,547.96 596.12,557.62 597.78,567.3 601.23,573.25 597.52,575.84 595.65,580.55 601.27,580.52 593.95,612.75 595.83,618.77 595.85,622.56 592.32,624.41 590.33,626.71 590.34,629.48 592.61,632.7 585.46,645.16 585.24,651.07 589.83,657.36 582.59,663.38 580.27,672.15 581.13,695.64 585.95,707.55 587.92,724.16 590.47,729.78 590.17,733.82 588.22,736.16 582.54,738.57 581.33,742.7 592.08,783.42 587.46,789.76 587.48,793.55 596.75,821.01" fill="none" stroke="#1e1e1e" stroke-width="1.71" stroke-linecap="round" stroke-linejoin="round"/>
<polyline points="529.07,1093.6 526.69,1079.67 532.07,1067.25 538.15,1056.54 538.84,1045.55" fill="none" stroke="#1e1e1e" stroke-width="1.71" stroke-linecap="round" stroke-linejoin="round"/>
<text x="566.43" y="554.3" font-family="sans-serif" font-size="14" stroke="#ffffff" stroke-opacity="0.784" stroke-width="2.33" stroke-linejoin="round" paint-order="stroke" fill="#141414">Jordan</text>
<text x="525.56" y="934.22" font-family="sans-serif" font-size="14" stroke="#ffffff" stroke-opacity="0.784" stroke-width="2.33" stroke-linejoin="round" paint-order="stroke" fill="#141414">Jordan</text>
</svg>
