<?xml version="1.0" encoding="UTF-8" standalone="no"?>
<svg xmlns="http://www.w3.org/2000/svg" width="759" height="2000" viewBox="0 0 759 2000">
<rect width="759" height="2000" fill="#ffffff"/>
<path d="M310.79,1979.42L299.32,1944.77L294.92,1925.41L300.27,1900.97L290.59,1873.45L287.11,1840.86L277.87,1818.43L257.7,1758.3L234.98,1682.88L221.86,1650.25L184.04,1530.97L155.57,1513.03L150.8,1500.28L158.86,1466.21L142.28,1447.8L142.46,1410.64L133.89,1372.92L93.71,1282.6L63.73,1190.78L35.61,1097.94L47,1086.82L61.42,1078.78L68.45,1068.64L79.36,1062.09L81.61,1050.4L78.71,1026.97L85.33,1011.74L95.38,1001.62L105.42,993.02L122.46,975.81L124.21,972.76L145.57,955.06L154.7,951.03L166.92,935.81L160.88,929.68L158.71,928.65L147.49,918.42L134.1,907.66L164.66,861.48L184.73,825.43L202.61,789.36L200.92,779.17L208.72,774.62L210.02,772.08L222.56,772.12L228.15,782.83L212.99,789.4L212.95,801.1L219.83,813.34L228.46,818.97L241.08,796.1L252.75,801.73L261.35,822.63L276.96,809.43L284.3,812.5L287.31,823.19L300.72,829.84L294.64,838.99L299.39,847.14L296.75,870.55L301.94,878.2L323.15,897.06L337.88,904.2L331.8,915.39L329.18,932.19L330.46,951.53L322.19,974.94L311.31,988.16L303.03,1011.56L306.92,1021.75L322.98,1037.04L335.16,1032.98L335.16,1033.49L346.9,1031.97L364.72,1028.93L412.97,1030.45L419.92,1027.39L455.12,1020.73L482.45,996.24L527.94,959.98L528.86,976.27L524.59,998.17L529.41,1010.88L535.94,1014.93L533.37,1027.66L540.84,1050.04L531.76,1067.88L528.78,1089.27L533.62,1104.02L550.26,1130.94L552.97,1157.91L540.86,1185.44L537.01,1208.87L536.22,1235.85L526.66,1248.1L516.61,1248.13L509.22,1257.82L500.1,1278.72L498.82,1291.95L503.66,1305.18L501.93,1313.33L492.76,1317.93L491.91,1328.11L484.05,1332.2L481.48,1358.68L477.98,1358.69L468.84,1385.69L451.79,1405.06L443.93,1423.91L443.95,1441.22L440.01,1448.35L439.16,1466.17L425.59,1495.71L427.36,1516.07L438.81,1544.06L422.58,1563.93L418.63,1576.66L418.21,1597.54L420.86,1616.88L418.24,1637.25L425.3,1652.01L418.72,1688.17L412.11,1688.68L404.18,1700.4L398.02,1724.84L388.76,1742.16L391.41,1750.81L391.86,1778.31L376.41,1812.43L373.75,1828.21L367.57,1836.36L359.59,1874.55L363.57,1886.77L360.91,1904.09L344.95,1935.65L344.05,1952.97L333.87,1949.9L316.11,1975.86L310.79,1979.42Z" fill-rule="evenodd" fill="#4682b4" fill-opacity="0.471"/>
<polyline points="310.79,1979.42 299.32,1944.77 294.92,1925.41 300.27,1900.97 290.59,1873.45 287.11,1840.86 277.87,1818.43 257.7,1758.3 234.98,1682.88 221.86,1650.25 184.04,1530.97 155.57,1513.03 150.8,1500.28 158.86,1466.21 142.28,1447.8 142.46,1410.64 133.89,1372.92 93.71,1282.6 63.73,1190.78 35.61,1097.94 47,1086.82 61.42,1078.78 68.45,1068.64 79.36,1062.09 81.61,1050.4 78.71,1026.97 85.33,1011.74 95.38,1001.62 105.42,993.02 122.46,975.81 124.21,972.76 145.57,955.06 154.7,951.03 166.92,935.81 160.88,929.68 158.71,928.65 147.49,918.42 134.1,907.66 164.66,861.48 184.73,825.43 202.61,789.36 200.92,779.17 208.72,774.62 210.02,772.08 222.56,772.12 228.15,782.83 212.99,789.4 212.95,801.1 219.83,813.34 228.46,818.97 241.08,796.1 252.75,801.73 261.35,822.63 276.96,809.43 284.3,812.5 287.31,823.19 300.72,829.84 294.64,838.99 299.39,847.14 296.75,870.55 301.94,878.2 323.15,897.06 337.88,904.2 331.8,915.39 329.18,932.19 330.46,951.53 322.19,974.94 311.31,988.16 303.03,1011.56 306.92,1021.75 322.98,1037.04 335.16,1032.98 335.16,1033.49 346.9,1031.97 364.72,1028.93 412.97,1030.45 419.92,1027.39 455.12,1020.73 482.45,996.24 527.94,959.98 528.86,976.27 524.59,998.17 529.41,1010.88 535.94,1014.93 533.37,1027.66 540.84,1050.04 531.76,1067.88 528.78,1089.27 533.62,1104.02 550.26,1130.94 552.97,1157.91 540.86,1185.44 537.01,1208.87 536.22,1235.85 526.66,1248.1 516.61,1248.13 509.22,1257.82 500.1,1278.72 498.82,1291.95 503.66,1305.18 501.93,1313.33 492.76,1317.93 491.91,1328.11 484.05,1332.2 481.48,1358.68 477.98,1358.69 468.84,1385.69 451.79,1405.06 443.93,1423.91 443.95,1441.22 440.01,1448.35 439.16,1466.17 425.59,1495.71 427.36,1516.07 438.81,1544.06 422.58,1563.93 418.63,1576.66 418.21,1597.54 420.86,1616.88 418.24,1637.25 425.3,1652.01 418.72,1688.17 412.11,1688.68 404.18,1700.4 398.02,1724.84 388.76,1742.16 391.41,1750.81 391.86,1778.31 376.41,1812.43 373.75,1828.21 367.57,1836.36 359.59,1874.55 363.57,1886.77 360.91,1904.09 344.95,1935.65 344.05,1952.97 333.87,1949.9 316.11,1975.86 310.79,1979.42" fill="none" stroke="#1e1e1e" stroke-width="1.71" stroke-linecap="round" stroke-linejoin="round"/>
<path d="M299.13,492.83L318.15,403.77L324.64,358.97L323.8,346.75L330.66,339.63L336.7,293.3L335.86,281.59L346.99,276L362.81,288.73L377.36,277.03L388.05,250.04L392.76,250.55L400.46,264.29L402.18,280.07L418.87,283.63L416.75,319.27L411.63,336.59L404.35,343.72L399.65,365.62L375.21,372.75L379.93,384.97L369.21,398.2L372.63,413.48L386.37,425.19L414.26,426.7L418.55,417.03L431.85,415.49L444.74,426.16L435.73,435.34L407.42,456.75L397.54,458.79L388.95,465.41L383.37,473.55L380.79,482.72L378.64,494.94L373.05,509.7L355.85,517.33L354.14,502.57L346.83,497.47L317.61,492.35L316.32,496.42L299.13,492.83Z" fill-rule="evenodd" fill="#4682b4" fill-opacity="0.471"/>
<polyline points="299.13,492.83 318.15,403.77 324.64,358.97 323.8,346.75 330.66,339.63 336.7,293.3 335.86,281.59 346.99,276 362.81,288.73 377.36,277.03 388.05,250.04 392.76,250.55 400.46,264.29 402.18,280.07 418.87,283.63 416.75,319.27 411.63,336.59 404.35,343.72 399.65,365.62 375.21,372.75 379.93,384.97 369.21,398.2 372.63,413.48 386.37,425.19 414.26,426.7 418.55,417.03 431.85,415.49 444.74,426.16 435.73,435.34 407.42,456.75 397.54,458.79 388.95,465.41 383.37,473.55 380.79,482.72 378.64,494.94 373.05,509.7 355.85,517.33 354.14,502.57 346.83,497.47 317.61,492.35 316.32,496.42 299.13,492.83" fill="none" stroke="#1e1e1e" stroke-width="1.71" stroke-linecap="round" stroke-linejoin="round"/>
<path d="M276.96,809.43L286.92,802.32L317.64,797.28L315.93,787.61L336.69,776.43L354.42,776.44L347.93,788.15L361.77,789.68L380.36,775.43L390.74,776.96L401.56,791.72L436.17,799.32L447.84,794.22L454.31,781.99L462.52,780.96L469.03,790.11L468.2,808.95L464.33,822.7L468.67,829.82L458.31,849.69L444.01,842.58L432.76,844.12L420.19,835.99L409.81,839.56L391.63,859.42L376.03,869.6L357.4,878.76L337.88,904.2L323.15,897.06L301.94,878.2L296.75,870.55L299.39,847.14L294.64,838.99L300.72,829.84L287.31,823.19L284.3,812.5L276.96,809.43Z" fill-rule="evenodd" fill="#4682b4" fill-opacity="0.471"/>
<polyline points="276.96,809.43 286.92,802.32 317.64,797.28 315.93,787.61 336.69,776.43 354.42,776.44 347.93,788.15 361.77,789.68 380.36,775.43 390.74,776.96 401.56,791.72 436.17,799.32 447.84,794.22 454.31,781.99 462.52,780.96 469.03,790.11 468.2,808.95 464.33,822.7 468.67,829.82 458.31,849.69 444.01,842.58 432.76,844.12 420.19,835.99 409.81,839.56 391.63,859.42 376.03,869.6 357.4,878.76 337.88,904.2 323.15,897.06 301.94,878.2 296.75,870.55 299.39,847.14 294.64,838.99 300.72,829.84 287.31,823.19 284.3,812.5 276.96,809.43" fill="none" stroke="#1e1e1e" stroke-width="1.71" stroke-linecap="round" stroke-linejoin="round"/>
<path d="M239.64,699.89L266.81,707.6L280.67,688.28L291.88,693.4L298.36,687.81L297.97,665.92L288.04,668.44L290.68,644.01L297.15,641.99L292.43,628.75L296.33,615.01L284.72,604.81L272.67,599.18L286.55,549.32L298.7,492.83L316.32,496.42L317.61,492.35L346.83,497.47L354.14,502.57L355.85,517.33L373.05,509.7L373.05,523.45L367.46,525.48L366.6,529.04L362.29,529.55L361.43,543.81L359.27,558.06L368.31,566.72L365.29,575.37L357.97,586.57L349.78,596.75L338.58,600.81L337.7,612.52L349.33,626.78L349.76,633.91L348.89,639.51L351.9,647.65L351.03,663.94L354.91,675.65L357.06,690.93L350.56,721.97L363.08,739.8L369.56,743.36L371.72,760.16L369.56,773.91L354.42,776.44L336.69,776.43L315.93,787.61L317.64,797.28L286.92,802.32L276.96,809.43L261.35,822.63L252.75,801.73L241.08,796.1L228.46,818.97L219.83,813.34L212.95,801.1L212.99,789.4L228.15,782.83L222.56,772.12L210.02,772.08L227.44,734.47L239.64,699.89Z" fill-rule="evenodd" fill="#4682b4" fill-opacity="0.471"/>
<polyline points="239.64,699.89 266.81,707.6 280.67,688.28 291.88,693.4 298.36,687.81 297.97,665.92 288.04,668.44 290.68,644.01 297.15,641.99 292.43,628.75 296.33,615.01 284.72,604.81 272.67,599.18 286.55,549.32 298.7,492.83 316.32,496.42 317.61,492.35 346.83,497.47 354.14,502.57 355.85,517.33 373.05,509.7 373.05,523.45 367.46,525.48 366.6,529.04 362.29,529.55 361.43,543.81 359.27,558.06 368.31,566.72 365.29,575.37 357.97,586.57 349.78,596.75 338.58,600.81 337.7,612.52 349.33,626.78 349.76,633.91 348.89,639.51 351.9,647.65 351.03,663.94 354.91,675.65 357.06,690.93 350.56,721.97 363.08,739.8 369.56,743.36 371.72,760.16 369.56,773.91 354.42,776.44 336.69,776.43 315.93,787.61 317.64,797.28 286.92,802.32 276.96,809.43 261.35,822.63 252.75,801.73 241.08,796.1 228.46,818.97 219.83,813.34 212.95,801.1 212.99,789.4 228.15,782.83 222.56,772.12 210.02,772.08 227.44,734.47 239.64,699.89" fill="none" stroke="#1e1e1e" stroke-width="1.71" stroke-linecap="round" stroke-linejoin="round"/>
<path d="M272.67,599.18L284.72,604.81L296.33,615.01L292.43,628.75L297.15,641.99L290.68,644.01L288.04,668.44L297.97,665.92L298.36,687.81L291.88,693.4L280.67,688.28L266.81,707.6L239.64,699.89L244.86,682.6L258.33,649.54L272.67,599.18Z" fill-rule="evenodd" fill="#4682b4" fill-opacity="0.471"/>
<polyline points="272.67,599.18 284.72,604.81 296.33,615.01 292.43,628.75 297.15,641.99 290.68,644.01 288.04,668.44 297.97,665.92 298.36,687.81 291.88,693.4 280.67,688.28 266.81,707.6 239.64,699.89 244.86,682.6 258.33,649.54 272.67,599.18" fill="none" stroke="#1e1e1e" stroke-width="1.71" stroke-linecap="round" stroke-linejoin="round"/>
<path d="M399.55,145.13L431.12,145.11L445.62,142.04L456.72,146.09L480.17,137.9L483.16,139.93L506.26,163.81L516.51,164.8L539.11,159.64L545.47,146.88L570.21,146.79L569.74,134.57L582.08,127.39L579.91,120.27L586.18,91.21L583.98,74.92L588.22,71.34L597.05,44.82L603.91,55.99L619.73,68.13L620.08,53.36L635.4,52.26L656.17,36.86L659.52,26.15L684.16,20.9L701.25,30.46L686.06,50.94L702.36,67.13L703.36,88.51L712.34,93.54L714.99,106.25L704.05,127.21L703.67,134.34L717.79,139.84L727.2,201.39L737.59,219.65L728.28,230.92L718.99,247.79L713.66,279.4L697.56,302.94L690.31,307.06L674.18,329.06L644.7,341.96L639.2,355.23L626.33,352.24L611.38,361.49L614.85,369.61L600.73,375.28L598.63,384.97L602.97,397.68L602.65,420.08L592.87,440.49L604.1,453.16L596.42,464.91L599.05,477.12L592.23,487.84L593.59,503.62L566.05,496.61L560.87,492.55L538.52,492.12L531.17,478.4L535.44,468.21L528.94,451.94L528.07,446.85L508.72,438.25L481.68,442.39L458.48,430.72L444.74,426.16L431.85,415.49L418.55,417.03L414.26,426.7L386.37,425.19L372.63,413.48L369.21,398.2L379.93,384.97L375.21,372.75L399.65,365.62L404.35,343.72L411.63,336.59L416.75,319.27L418.87,283.63L402.18,280.07L400.46,264.29L392.76,250.55L388.05,250.04L388.48,247.49L385.91,226.61L388.04,208.79L399.13,163.98L399.55,145.13Z" fill-rule="evenodd" fill="#4682b4" fill-opacity="0.471"/>
<polyline points="399.55,145.13 431.12,145.11 445.62,142.04 456.72,146.09 480.17,137.9 483.16,139.93 506.26,163.81 516.51,164.8 539.11,159.64 545.47,146.88 570.21,146.79 569.74,134.57 582.08,127.39 579.91,120.27 586.18,91.21 583.98,74.92 588.22,71.34 597.05,44.82 603.91,55.99 619.73,68.13 620.08,53.36 635.4,52.26 656.17,36.86 659.52,26.15 684.16,20.9 701.25,30.46 686.06,50.94 702.36,67.13 703.36,88.51 712.34,93.54 714.99,106.25 704.05,127.21 703.67,134.34 717.79,139.84 727.2,201.39 737.59,219.65 728.28,230.92 718.99,247.79 713.66,279.4 697.56,302.94 690.31,307.06 674.18,329.06 644.7,341.96 639.2,355.23 626.33,352.24 611.38,361.49 614.85,369.61 600.73,375.28 598.63,384.97 602.97,397.68 602.65,420.08 592.87,440.49 604.1,453.16 596.42,464.91 599.05,477.12 592.23,487.84 593.59,503.62 566.05,496.61 560.87,492.55 538.52,492.12 531.17,478.4 535.44,468.21 528.94,451.94 528.07,446.85 508.72,438.25 481.68,442.39 458.48,430.72 444.74,426.16 431.85,415.49 418.55,417.03 414.26,426.7 386.37,425.19 372.63,413.48 369.21,398.2 379.93,384.97 375.21,372.75 399.65,365.62 404.35,343.72 411.63,336.59 416.75,319.27 418.87,283.63 402.18,280.07 400.46,264.29 392.76,250.55 388.05,250.04 388.48,247.49 385.91,226.61 388.04,208.79 399.13,163.98 399.55,145.13" fill="none" stroke="#1e1e1e" stroke-width="1.71" stroke-linecap="round" stroke-linejoin="round"/>
<path d="M50.15,1009.47L52.33,1007.45L51.47,1006.43L51.91,1005.92L52.77,1007.45L64.13,996.84L84.26,973.04L98.57,976.69L105.42,993.02L95.38,1001.62L85.33,1011.74L82.24,1019.86L75.3,1017.78L70.56,1011.13L50.15,1009.47Z" fill-rule="evenodd" fill="#4682b4" fill-opacity="0.471"/>
<polyline points="50.15,1009.47 52.33,1007.45 51.47,1006.43 51.91,1005.92 52.77,1007.45 64.13,996.84 84.26,973.04 98.57,976.69 105.42,993.02 95.38,1001.62 85.33,1011.74 82.24,1019.86 75.3,1017.78 70.56,1011.13 50.15,1009.47" fill="none" stroke="#1e1e1e" stroke-width="1.71" stroke-linecap="round" stroke-linejoin="round"/>
<path d="M84.26,973.04L117.92,932.01L145.57,955.06L124.21,972.76L122.46,975.81L105.42,993.02L98.57,976.69L84.26,973.04Z" fill-rule="evenodd" fill="#4682b4" fill-opacity="0.471"/>
<polyline points="84.26,973.04 117.92,932.01 145.57,955.06 124.21,972.76 122.46,975.81 105.42,993.02 98.57,976.69 84.26,973.04" fill="none" stroke="#1e1e1e" stroke-width="1.71" stroke-linecap="round" stroke-linejoin="round"/>
<path d="M311.31,988.16L322.19,974.94L330.46,951.53L329.18,932.19L331.8,915.39L337.88,904.2L357.4,878.76L376.03,869.6L396.4,876.73L421.53,882.31L423.72,901.14L435.85,899.1L449.31,910.28L449.33,923L460.2,941.82L472.36,946.38L483.66,956.03L487.59,966.71L509.32,975.31L482.45,996.24L455.12,1020.73L419.92,1027.39L412.97,1030.45L364.72,1028.93L346.9,1031.97L335.16,1033.49L335.16,1032.98L322.98,1037.04L306.92,1021.75L303.03,1011.56L311.31,988.16Z" fill-rule="evenodd" fill="#4682b4" fill-opacity="0.471"/>
<polyline points="311.31,988.16 322.19,974.94 330.46,951.53 329.18,932.19 331.8,915.39 337.88,904.2 357.4,878.76 376.03,869.6 396.4,876.73 421.53,882.31 423.72,901.14 435.85,899.1 449.31,910.28 449.33,923 460.2,941.82 472.36,946.38 483.66,956.03 487.59,966.71 509.32,975.31 482.45,996.24 455.12,1020.73 419.92,1027.39 412.97,1030.45 364.72,1028.93 346.9,1031.97 335.16,1033.49 335.16,1032.98 322.98,1037.04 306.92,1021.75 303.03,1011.56 311.31,988.16" fill="none" stroke="#1e1e1e" stroke-width="1.71" stroke-linecap="round" stroke-linejoin="round"/>
<path d="M388.95,465.41L397.54,458.79L407.42,456.75L435.73,435.34L444.74,426.16L458.48,430.72L481.68,442.39L508.72,438.25L528.07,446.85L528.94,451.94L535.44,468.21L531.17,478.4L538.52,492.12L539.4,497.72L516.65,507.47L499.91,517.69L497.37,535.52L491.38,549.28L475.87,541.17L470.29,548.3L439.3,540.72L432.42,544.8L419.94,536.67L420.36,527.5L407.02,516.82L404.43,499.51L406.57,487.29L386.37,469.99L388.95,465.41Z" fill-rule="evenodd" fill="#4682b4" fill-opacity="0.471"/>
<polyline points="388.95,465.41 397.54,458.79 407.42,456.75 435.73,435.34 444.74,426.16 458.48,430.72 481.68,442.39 508.72,438.25 528.07,446.85 528.94,451.94 535.44,468.21 531.17,478.4 538.52,492.12 539.4,497.72 516.65,507.47 499.91,517.69 497.37,535.52 491.38,549.28 475.87,541.17 470.29,548.3 439.3,540.72 432.42,544.8 419.94,536.67 420.36,527.5 407.02,516.82 404.43,499.51 406.57,487.29 386.37,469.99 388.95,465.41" fill="none" stroke="#1e1e1e" stroke-width="1.71" stroke-linecap="round" stroke-linejoin="round"/>
<path d="M517.02,785.92L529.55,781.81L526.89,759.42L534.65,752.78L526.78,725.32L532.78,710.54L540.54,706.95L538.72,679.47L526.62,672.89L518.81,656.62L532.16,651.49L533.36,621.96L541.52,614.8L554.44,611.19L563.46,605.56L575.12,610.6L586.28,602.92L600.08,604.39L593.22,612.05L595.44,627.32L584.75,646.71L589.98,659.92L583.54,667.08L578.87,683.89L585.02,708.81L590.24,716.93L589.89,735.26L581.3,749.04L592.2,769.87L589.74,800.93L596.34,823.81L573.39,822.38L568.25,834.62L560.83,818.36L553.88,811.76L530.53,817.95L511.86,794.59L517.02,785.92Z" fill-rule="evenodd" fill="#4682b4" fill-opacity="0.471"/>
<polyline points="517.02,785.92 529.55,781.81 526.89,759.42 534.65,752.78 526.78,725.32 532.78,710.54 540.54,706.95 538.72,679.47 526.62,672.89 518.81,656.62 532.16,651.49 533.36,621.96 541.52,614.8 554.44,611.19 563.46,605.56 575.12,610.6 586.28,602.92 600.08,604.39 593.22,612.05 595.44,627.32 584.75,646.71 589.98,659.92 583.54,667.08 578.87,683.89 585.02,708.81 590.24,716.93 589.89,735.26 581.3,749.04 592.2,769.87 589.74,800.93 596.34,823.81 573.39,822.38 568.25,834.62 560.83,818.36 553.88,811.76 530.53,817.95 511.86,794.59 517.02,785.92" fill="none" stroke="#1e1e1e" stroke-width="1.71" stroke-linecap="round" stroke-linejoin="round"/>
<path d="M24.31,1036.26L50.15,1009.47L70.56,1011.13L75.3,1017.78L82.24,1019.86L78.71,1026.97L81.61,1050.4L79.36,1062.09L68.45,1068.64L61.42,1078.78L57.19,1059.91L45.89,1058.82L24.31,1036.26Z" fill-rule="evenodd" fill="#4682b4" fill-opacity="0.471"/>
<polyline points="24.31,1036.26 50.15,1009.47 70.56,1011.13 75.3,1017.78 82.24,1019.86 78.71,1026.97 81.61,1050.4 79.36,1062.09 68.45,1068.64 61.42,1078.78 57.19,1059.91 45.89,1058.82 24.31,1036.26" fill="none" stroke="#1e1e1e" stroke-width="1.71" stroke-linecap="round" stroke-linejoin="round"/>
<path d="M419.94,536.67L432.42,544.8L439.3,540.72L470.29,548.3L475.87,541.17L491.38,549.28L495.28,559.45L509.47,556.87L524.59,572.61L533.2,574.61L541.86,586.8L557.84,599.47L554.44,611.19L541.52,614.8L533.36,621.96L532.16,651.49L518.81,656.62L526.62,672.89L502.89,673.46L493.82,667.38L483.03,667.4L452.39,658.8L465.72,638.42L433.82,638.47L420.88,628.3L428.62,613.53L435.92,591.12L424.71,572.81L427.28,561.6L414.78,543.8L419.94,536.67Z" fill-rule="evenodd" fill="#4682b4" fill-opacity="0.471"/>
<polyline points="419.94,536.67 432.42,544.8 439.3,540.72 470.29,548.3 475.87,541.17 491.38,549.28 495.28,559.45 509.47,556.87 524.59,572.61 533.2,574.61 541.86,586.8 557.84,599.47 554.44,611.19 541.52,614.8 533.36,621.96 532.16,651.49 518.81,656.62 526.62,672.89 502.89,673.46 493.82,667.38 483.03,667.4 452.39,658.8 465.72,638.42 433.82,638.47 420.88,628.3 428.62,613.53 435.92,591.12 424.71,572.81 427.28,561.6 414.78,543.8 419.94,536.67" fill="none" stroke="#1e1e1e" stroke-width="1.71" stroke-linecap="round" stroke-linejoin="round"/>
<path d="M117.92,932.01L134.1,907.66L147.49,918.42L158.71,928.65L160.88,929.68L166.92,935.81L154.7,951.03L145.57,955.06L117.92,932.01Z" fill-rule="evenodd" fill="#4682b4" fill-opacity="0.471"/>
<polyline points="117.92,932.01 134.1,907.66 147.49,918.42 158.71,928.65 160.88,929.68 166.92,935.81 154.7,951.03 145.57,955.06 117.92,932.01" fill="none" stroke="#1e1e1e" stroke-width="1.71" stroke-linecap="round" stroke-linejoin="round"/>
<path d="M349.78,596.75L357.97,586.57L366.15,592.68L386.82,599.81L407.49,580.46L424.71,572.81L435.92,591.12L428.62,613.53L402.34,622.2L398.89,613.55L389.41,612.53L386.83,625.26L369.15,636.97L364.84,646.13L351.9,647.65L348.89,639.51L349.76,633.91L349.33,626.78L337.7,612.52L338.58,600.81L349.78,596.75Z" fill-rule="evenodd" fill="#4682b4" fill-opacity="0.471"/>
<polyline points="349.78,596.75 357.97,586.57 366.15,592.68 386.82,599.81 407.49,580.46 424.71,572.81 435.92,591.12 428.62,613.53 402.34,622.2 398.89,613.55 389.41,612.53 386.83,625.26 369.15,636.97 364.84,646.13 351.9,647.65 348.89,639.51 349.76,633.91 349.33,626.78 337.7,612.52 338.58,600.81 349.78,596.75" fill="none" stroke="#1e1e1e" stroke-width="1.71" stroke-linecap="round" stroke-linejoin="round"/>
<path d="M354.42,776.44L369.56,773.91L371.72,760.16L369.56,743.36L363.08,739.8L350.56,721.97L357.06,690.93L354.91,675.65L352.75,669.54L378.21,677.19L400.64,672.09L406.68,667L424.36,666.98L435.15,672.57L452.39,658.8L483.03,667.4L493.82,667.38L502.89,673.46L526.62,672.89L538.72,679.47L540.54,706.95L532.78,710.54L526.78,725.32L534.65,752.78L526.89,759.42L529.55,781.81L517.02,785.92L500.59,784.44L491.47,771.23L478.49,763.62L460.76,760.09L443.91,762.66L433.98,772.86L393.77,766.27L390.74,776.96L380.36,775.43L361.77,789.68L347.93,788.15L354.42,776.44Z" fill-rule="evenodd" fill="#4682b4" fill-opacity="0.471"/>
<polyline points="354.42,776.44 369.56,773.91 371.72,760.16 369.56,743.36 363.08,739.8 350.56,721.97 357.06,690.93 354.91,675.65 352.75,669.54 378.21,677.19 400.64,672.09 406.68,667 424.36,666.98 435.15,672.57 452.39,658.8 483.03,667.4 493.82,667.38 502.89,673.46 526.62,672.89 538.72,679.47 540.54,706.95 532.78,710.54 526.78,725.32 534.65,752.78 526.89,759.42 529.55,781.81 517.02,785.92 500.59,784.44 491.47,771.23 478.49,763.62 460.76,760.09 443.91,762.66 433.98,772.86 393.77,766.27 390.74,776.96 380.36,775.43 361.77,789.68 347.93,788.15 354.42,776.44" fill="none" stroke="#1e1e1e" stroke-width="1.71" stroke-linecap="round" stroke-linejoin="round"/>
<path d="M15.11,1044.85L24.31,1036.26L45.89,1058.82L57.19,1059.91L61.42,1078.78L47,1086.82L35.61,1097.94L24.14,1059.17L15.11,1044.85Z" fill-rule="evenodd" fill="#4682b4" fill-opacity="0.471"/>
<polyline points="15.11,1044.85 24.31,1036.26 45.89,1058.82 57.19,1059.91 61.42,1078.78 47,1086.82 35.61,1097.94 24.14,1059.17 15.11,1044.85" fill="none" stroke="#1e1e1e" stroke-width="1.71" stroke-linecap="round" stroke-linejoin="round"/>
<path d="M351.9,647.65L364.84,646.13L369.15,636.97L386.83,625.26L389.41,612.53L398.89,613.55L402.34,622.2L428.62,613.53L420.88,628.3L433.82,638.47L465.72,638.42L452.39,658.8L435.15,672.57L424.36,666.98L406.68,667L400.64,672.09L378.21,677.19L352.75,669.54L351.03,663.94L351.9,647.65Z" fill-rule="evenodd" fill="#4682b4" fill-opacity="0.471"/>
<polyline points="351.9,647.65 364.84,646.13 369.15,636.97 386.83,625.26 389.41,612.53 398.89,613.55 402.34,622.2 428.62,613.53 420.88,628.3 433.82,638.47 465.72,638.42 452.39,658.8 435.15,672.57 424.36,666.98 406.68,667 400.64,672.09 378.21,677.19 352.75,669.54 351.03,663.94 351.9,647.65" fill="none" stroke="#1e1e1e" stroke-width="1.71" stroke-linecap="round" stroke-linejoin="round"/>
<path d="M491.38,549.28L497.37,535.52L499.91,517.69L516.65,507.47L539.4,497.72L538.52,492.12L560.87,492.55L566.05,496.61L593.59,503.62L594.18,538.23L599.43,557.04L597.39,581.49L600.5,601.84L600.08,604.39L586.28,602.92L575.12,610.6L563.46,605.56L554.44,611.19L557.84,599.47L541.86,586.8L533.2,574.61L524.59,572.61L509.47,556.87L495.28,559.45L491.38,549.28Z" fill-rule="evenodd" fill="#4682b4" fill-opacity="0.471"/>
<polyline points="491.38,549.28 497.37,535.52 499.91,517.69 516.65,507.47 539.4,497.72 538.52,492.12 560.87,492.55 566.05,496.61 593.59,503.62 594.18,538.23 599.43,557.04 597.39,581.49 600.5,601.84 600.08,604.39 586.28,602.92 575.12,610.6 563.46,605.56 554.44,611.19 557.84,599.47 541.86,586.8 533.2,574.61 524.59,572.61 509.47,556.87 495.28,559.45 491.38,549.28" fill="none" stroke="#1e1e1e" stroke-width="1.71" stroke-linecap="round" stroke-linejoin="round"/>
<path d="M357.97,586.57L365.29,575.37L368.31,566.72L359.27,558.06L361.43,543.81L361.86,529.55L363.59,528.53L366.6,529.04L367.03,525.48L373.05,523.45L373.05,509.7L378.64,494.94L380.79,482.72L383.37,473.55L386.37,469.99L406.57,487.29L404.43,499.51L407.02,516.82L420.36,527.5L419.94,536.67L414.78,543.8L427.28,561.6L424.71,572.81L407.49,580.46L386.82,599.81L366.15,592.68L357.97,586.57Z" fill-rule="evenodd" fill="#4682b4" fill-opacity="0.471"/>
<polyline points="357.97,586.57 365.29,575.37 368.31,566.72 359.27,558.06 361.43,543.81 361.86,529.55 363.59,528.53 366.6,529.04 367.03,525.48 373.05,523.45 373.05,509.7 378.64,494.94 380.79,482.72 383.37,473.55 386.37,469.99 406.57,487.29 404.43,499.51 407.02,516.82 420.36,527.5 419.94,536.67 414.78,543.8 427.28,561.6 424.71,572.81 407.49,580.46 386.82,599.81 366.15,592.68 357.97,586.57" fill="none" stroke="#1e1e1e" stroke-width="1.71" stroke-linecap="round" stroke-linejoin="round"/>
<text x="232.99" y="1303.03" font-family="sans-serif" font-size="14" stroke="#ffffff" stroke-opacity="0.784" stroke-width="2.33" stroke-linejoin="round" paint-order="stroke" fill="#141414">South District</text>
<text x="494.19" y="268.41" font-family="sans-serif" font-size="14" stroke="#ffffff" stroke-opacity="0.784" stroke-width="2.33" stroke-linejoin="round" paint-order="stroke" fill="#141414">North District</text>
<text x="237.01" y="679.59" font-family="sans-serif" font-size="14" stroke="#ffffff" stroke-opacity="0.784" stroke-width="2.33" stroke-linejoin="round" paint-order="stroke" fill="#141414">Center District</text>
<text x="302.3" y="969.64" font-family="sans-serif" font-size="14" stroke="#ffffff" stroke-opacity="0.784" stroke-width="2.33" stroke-linejoin="round" paint-order="stroke" fill="#141414">Hebron Governorate</text>
<text x="302.53" y="397.33" font-family="sans-serif" font-size="14" stroke="#ffffff" stroke-opacity="0.784" stroke-width="2.33" stroke-linejoin="round" paint-order="stroke" fill="#141414">Haifa District</text>
<text x="284.57" y="727.19" font-family="sans-serif" font-size="14" stroke="#ffffff" stroke-opacity="0.784" stroke-width="2.33" stroke-linejoin="round" paint-order="stroke" fill="#141414">Ramallah and al-Bireh Governorate</text>
<text x="284.76" y="836.01" font-family="sans-serif" font-size="14" stroke="#ffffff" stroke-opacity="0.784" stroke-width="2.33" stroke-linejoin="round" paint-order="stroke" fill="#141414">Jerusalem District</text>
<text x="381.07" y="493.5" font-family="sans-serif" font-size="14" stroke="#ffffff" stroke-opacity="0.784" stroke-width="2.33" stroke-linejoin="round" paint-order="stroke" fill="#141414">Jenin Governorate</text>
<text x="392.7" y="611.4" font-family="sans-serif" font-size="14" stroke="#ffffff" stroke-opacity="0.784" stroke-width="2.33" stroke-linejoin="round" paint-order="stroke" fill="#141414">Nablus Governorate</text>
<text x="467.05" y="553.84" font-family="sans-serif" font-size="14" stroke="#ffffff" stroke-opacity="0.784" stroke-width="2.33" stroke-linejoin="round" paint-order="stroke" fill="#141414">Tubas Governorate</text>
<text x="2" y="1045.58" font-family="sans-serif" font-size="14" stroke="#ffffff" stroke-opacity="0.784" stroke-width="2.33" stroke-linejoin="round" paint-order="stroke" fill="#141414">Khan Yunis Governorate</text>
<text x="32.86" y="968.24" font-family="sans-serif" font-size="14" stroke="#ffffff" stroke-opacity="0.784" stroke-width="2.33" stroke-linejoin="round" paint-order="stroke" fill="#141414">Gaza Governorate</text>
<text x="2" y="1073.96" font-family="sans-serif" font-size="14" stroke="#ffffff" stroke-opacity="0.784" stroke-width="2.33" stroke-linejoin="round" paint-order="stroke" fill="#141414">Rafah Governorate</text>
<text x="2" y="1003.12" font-family="sans-serif" font-size="14" stroke="#ffffff" stroke-opacity="0.784" stroke-width="2.33" stroke-linejoin="round" paint-order="stroke" fill="#141414">Deir al-Balah Governorate</text>
<text x="30.01" y="939.7" font-family="sans-serif" font-size="14" stroke="#ffffff" stroke-opacity="0.784" stroke-width="2.33" stroke-linejoin="round" paint-order="stroke" fill="#141414">North Gaza Governorate</text>
</svg>
