<?xml version="1.0" encoding="UTF-8" standalone="no"?>
<svg xmlns="http://www.w3.org/2000/svg" width="1654" height="2000" viewBox="0 0 1654 2000">
<rect width="1654" height="2000" fill="#ffffff"/>
<path d="M163.08,118.54L168.17,121.72L170.15,125.04L167.45,128.06L162.05,128.01L142.45,123.2L134.23,123.47L135.38,106.69L163.08,118.54Z" fill-rule="evenodd" fill="#4682b4" fill-opacity="0.471"/>
<polyline points="163.08,118.54 168.17,121.72 170.15,125.04 167.45,128.06 162.05,128.01 142.45,123.2 134.23,123.47 135.38,106.69 163.08,118.54" fill="none" stroke="#1e1e1e" stroke-width="1.15" stroke-linecap="round" stroke-linejoin="round"/>
<path d="M1439.53,53.14L1436.9,55.94L1405.06,72L1401.62,75.79L1395.26,80.59L1390.28,81.42L1381.15,80.18L1376.13,80.36L1372.18,81.97L1370.22,81.83L1368.87,79.61L1370.28,73.39L1374.94,73.04L1379.91,74.52L1382.12,73.69L1382.71,71.42L1384.37,69.28L1388.5,66.85L1392.88,66.96L1397.05,68.77L1405.92,62.02L1413.24,59.9L1416.63,54.21L1417.84,53.39L1433.48,46.32L1435.25,43.86L1440.14,47.46L1441.85,47.6L1442.78,45.6L1441.9,43.41L1438.23,40.79L1438.16,39.64L1449.2,32.42L1452.61,29.36L1455.5,24.89L1456.82,19.31L1457.86,18.65L1465.53,20.46L1470.35,23.44L1472.4,25.66L1472.63,27.59L1469.26,35.65L1462.92,40.9L1447.2,47.52L1444.94,47.41L1442.84,50.94L1439.53,53.14Z" fill-rule="evenodd" fill="#4682b4" fill-opacity="0.471"/>
<polyline points="1439.53,53.14 1436.9,55.94 1405.06,72 1401.62,75.79 1395.26,80.59 1390.28,81.42 1381.15,80.18 1376.13,80.36 1372.18,81.97 1370.22,81.83 1368.87,79.61 1370.28,73.39 1374.94,73.04 1379.91,74.52 1382.12,73.69 1382.71,71.42 1384.37,69.28 1388.5,66.85 1392.88,66.96 1397.05,68.77 1405.92,62.02 1413.24,59.9 1416.63,54.21 1417.84,53.39 1433.48,46.32 1435.25,43.86 1440.14,47.46 1441.85,47.6 1442.78,45.6 1441.9,43.41 1438.23,40.79 1438.16,39.64 1449.2,32.42 1452.61,29.36 1455.5,24.89 1456.82,19.31 1457.86,18.65 1465.53,20.46 1470.35,23.44 1472.4,25.66 1472.63,27.59 1469.26,35.65 1462.92,40.9 1447.2,47.52 1444.94,47.41 1442.84,50.94 1439.53,53.14" fill="none" stroke="#1e1e1e" stroke-width="1.15" stroke-linecap="round" stroke-linejoin="round"/>
<path d="M390.74,179.98L390.11,182.44L378.46,192.39L377.76,197.19L378.76,205.11L376.8,208.9L365.92,216.78L362.26,220.4L360.64,223.27L360.26,227.08L361.99,233.19L361.83,236.57L360.76,238.71L356.11,241.83L355.44,244.39L360.95,253.7L359.92,254.2L356.15,250.69L353,242.23L355.36,237.71L356.49,232.09L355.69,229.01L350.58,224.1L347.58,217.18L348.9,216.35L355.45,218.5L362.13,214.92L374.26,201.32L374.4,199.09L373.03,194.09L374.46,189.18L377.26,185.91L384.74,180.51L389.03,179.46L390.74,179.98Z" fill-rule="evenodd" fill="#4682b4" fill-opacity="0.471"/>
<polyline points="390.74,179.98 390.11,182.44 378.46,192.39 377.76,197.19 378.76,205.11 376.8,208.9 365.92,216.78 362.26,220.4 360.64,223.27 360.26,227.08 361.99,233.19 361.83,236.57 360.76,238.71 356.11,241.83 355.44,244.39 360.95,253.7 359.92,254.2 356.15,250.69 353,242.23 355.36,237.71 356.49,232.09 355.69,229.01 350.58,224.1 347.58,217.18 348.9,216.35 355.45,218.5 362.13,214.92 374.26,201.32 374.4,199.09 373.03,194.09 374.46,189.18 377.26,185.91 384.74,180.51 389.03,179.46 390.74,179.98" fill="none" stroke="#1e1e1e" stroke-width="1.15" stroke-linecap="round" stroke-linejoin="round"/>
<path d="M624.91,233.57L626.35,236.29L626.53,239.57L625.62,243.39L623.81,247.43L608.21,271.28L604.65,283.54L604.29,287.16L606.81,286.37L608.99,297.01L605.55,307.83L605.15,308.57L596.88,305.4L594.74,302.92L594.41,299.03L593.63,302.94L591.29,304.43L588.48,303.97L586.11,302.27L587.04,301.15L582.93,299.81L582.95,298.76L589.71,292.81L590.47,291.38L588.44,285.91L590.62,284.97L588.71,281.79L585,281.31L594.28,275.75L609.54,261.21L613.77,251.7L616.1,249.56L621.07,242.25L623.32,235.38L624.91,233.57Z" fill-rule="evenodd" fill="#4682b4" fill-opacity="0.471"/>
<polyline points="624.91,233.57 626.35,236.29 626.53,239.57 625.62,243.39 623.81,247.43 608.21,271.28 604.65,283.54 604.29,287.16 606.81,286.37 608.99,297.01 605.55,307.83 605.15,308.57 596.88,305.4 594.74,302.92 594.41,299.03 593.63,302.94 591.29,304.43 588.48,303.97 586.11,302.27 587.04,301.15 582.93,299.81 582.95,298.76 589.71,292.81 590.47,291.38 588.44,285.91 590.62,284.97 588.71,281.79 585,281.31 594.28,275.75 609.54,261.21 613.77,251.7 616.1,249.56 621.07,242.25 623.32,235.38 624.91,233.57" fill="none" stroke="#1e1e1e" stroke-width="1.15" stroke-linecap="round" stroke-linejoin="round"/>
<path d="M753.06,784.51L755.85,787.85L755.03,791.17L755.2,797.82L753.98,800.64L751.3,802.06L748.49,801.74L745.87,800.28L739.77,794.63L738.44,792.34L738.72,788.97L740.47,785.76L742.78,783.99L749.1,782.2L753.06,784.51Z" fill-rule="evenodd" fill="#4682b4" fill-opacity="0.471"/>
<polyline points="753.06,784.51 755.85,787.85 755.03,791.17 755.2,797.82 753.98,800.64 751.3,802.06 748.49,801.74 745.87,800.28 739.77,794.63 738.44,792.34 738.72,788.97 740.47,785.76 742.78,783.99 749.1,782.2 753.06,784.51" fill="none" stroke="#1e1e1e" stroke-width="1.15" stroke-linecap="round" stroke-linejoin="round"/>
<text x="1368.62" y="59.74" font-family="sans-serif" font-size="14" stroke="#ffffff" stroke-opacity="0.784" stroke-width="2.33" stroke-linejoin="round" paint-order="stroke" fill="#141414">Lake Balaton</text>
<text x="539.18" y="287.76" font-family="sans-serif" font-size="14" stroke="#ffffff" stroke-opacity="0.784" stroke-width="2.33" stroke-linejoin="round" paint-order="stroke" fill="#141414">Lago di Garda</text>
<text x="305.78" y="220.22" font-family="sans-serif" font-size="14" stroke="#ffffff" stroke-opacity="0.784" stroke-width="2.33" stroke-linejoin="round" paint-order="stroke" fill="#141414">Lago di Como</text>
<text x="92.75" y="126.17" font-family="sans-serif" font-size="14" stroke="#ffffff" stroke-opacity="0.784" stroke-width="2.33" stroke-linejoin="round" paint-order="stroke" fill="#141414">Lake Geneva</text>
<text x="665.28" y="798.85" font-family="sans-serif" font-size="14" stroke="#ffffff" stroke-opacity="0.784" stroke-width="2.33" stroke-linejoin="round" paint-order="stroke" fill="#141414">Lago di Bracciano</text>
</svg>
