<?xml version="1.0" encoding="UTF-8" standalone="no"?>
<svg xmlns="http://www.w3.org/2000/svg" width="1909" height="2000" viewBox="0 0 1909 2000">
<rect width="1909" height="2000" fill="#ffffff"/>
<path d="M1016.69,1038.94L1024.84,1036.74L1029.82,1037.29L1027.16,1045.24L1017.87,1052.37L1011.58,1054.93L1008.68,1061.6L1006.15,1064.34L996.13,1064.34L991.33,1065.26L984.41,1082.89L987.26,1085.72L991.93,1086L1001.26,1082.34L1009.78,1079.96L1012.22,1080.14L1011.23,1082.33L1007.2,1086.36L1001.94,1087.64L1003.89,1094.03L999.68,1094.03L1001.95,1098.42L997.51,1100.43L993.15,1100.25L989.53,1098.06L987.26,1094.04L985.45,1097.87L979.29,1098.79L976.71,1100.34L976.39,1103.63L979.02,1110.48L977.71,1114.23L975.39,1117.61L977.71,1120.53L978.66,1124.82L980.34,1125.01L984.05,1122.91L987.72,1122.72L989.36,1128.11L991.26,1128.11L991.71,1124.55L993.48,1121.99L996.2,1120.34L999.69,1119.61L998.92,1122.35L997.56,1123.91L999.51,1127.01L999.83,1130.12L998.47,1132.77L995.48,1134.5L995.48,1136.61L1000.83,1138.43L1006.17,1136.6L1003.09,1144.19L998.29,1144.19L993.21,1141.36L989.36,1140.81L987.41,1145.56L990.27,1150.31L995.84,1153.05L1001.96,1151.59L1003.14,1154.24L1001.97,1155.7L1003.92,1157.98L1006.18,1155.7L1004.91,1160.17L1006.14,1163.37L1009.49,1164.37L1014.57,1162.18L1013.3,1165.29L1012.31,1174.88L1015.85,1175.52L1016.53,1177.07L1016.03,1178.99L1013.44,1178.53L1012.31,1179.17L1012.31,1185.29L1009.32,1185.48L1008.14,1184.75L1008.28,1183.38L1004.61,1185.75L1003.47,1187.67L1003.93,1191.87L999.44,1191.05L995.49,1191.88L995.49,1181.28L989.37,1185.3L991.27,1181.28L989.37,1179.18L985.7,1179.55L984.97,1174.89L982.84,1174.89L982.66,1177.26L980.94,1181.28L973.36,1168.59L970.69,1167.4L968.47,1164.57L966.02,1157.99L961.57,1159.27L956.9,1158.72L954.18,1156.71L955.54,1153.79L952.69,1152.51L945.93,1153.79L943.3,1152.6L942.9,1145.29L938.5,1144.1L930.48,1145.75L926.9,1144.1L924,1143.73L919.05,1150.77L914.29,1148.3L913.03,1146.11L912.57,1142.45L910.94,1140.81L908.13,1139.98L906,1140.81L904.64,1142.91L901.24,1139.8L901.33,1136.69L908.77,1124.18L910.31,1119.89L909.86,1117.88L900.61,1124.36L897.85,1123.99L896.72,1120.52L896.45,1114.22L895.14,1108.19L888.48,1108.28L885.76,1104.62L889.88,1104.07L900.67,1098.41L896.27,1096.4L888.53,1096.95L885.76,1096.12L884.27,1093.47L883.73,1089.73L883.87,1081.32L877.07,1090.09L873.03,1093.74L871.22,1090.82L870.77,1084.15L869.42,1079.4L864.57,1070.71L875.67,1073.1L877.35,1071.82L878.26,1067.98L880.25,1067.34L888.18,1070.18L889.49,1069.72L889.95,1065.34L881.57,1055.83L888.46,1052.09L887.37,1043.23L892.31,1038.94L888.78,1037.48L885.66,1038.2L883.16,1040.3L881.58,1042.95L880.67,1039.85L879.5,1038.93L888.11,1023.86L887.79,1022.4L883.9,1017.56L885.53,1017.01L885.8,1015.18L890.87,1017.56L893.46,1015L894.09,1010.99L893.32,1008.88L889.61,1006.96L886.81,1002.58L885.68,998.28L886.99,996.37L897.45,1002.58L900.71,1002.67L902.38,999.84L900.98,993.45L904.7,992.08L903.02,988.61L906.65,982.58L904.38,982.12L901.53,982.67L900.72,983.67L895.42,978.19L894.29,974.54L894.43,968.6L896.51,968.6L898.82,973.26L900.95,974.54L903.66,975L906.65,973.9L906.7,971.53L901.4,962.48L901,959.56L904.71,958L904.71,955.72L902.99,953.8L904.71,951.15L904.71,949.33L901.32,944.39L900.73,946.22L899.28,947.13L896.16,946.22L893.26,943.38L892.36,938.54L895.35,940.46L898.51,941.1L901.73,940.46L904.72,938.55L897.25,934.43L891.51,927.58L890.83,922.55L898.43,923.93L906.39,933.7L911.01,934.53L913.77,932.34L912.28,928.68L906.85,922.01L913.32,919.73L906.85,917.53L909.16,912.42L907.58,909.95L899.62,905.93L897.22,902.55L896.72,898.8L898.45,889.85L900.75,889.85L906.86,892.14L903.55,898.62L903.42,900.82L911.02,896.43L913.33,896.43L916.58,907.85L919.61,911.24L925.95,904.84L923.37,897.9L924.87,891.41L930.34,881.36L933.78,880.63L934.33,878.26L931.7,874.88L932.25,872.87L935.73,869.49L941.88,865.65L945.18,853.41L955.14,844.55L957.44,839.98L957.08,832.4L957.98,829.48L960.79,828.38L969.02,828.84L973.22,830.11L976.66,832.67L974.08,834.59L974.4,836.69L968.39,836.33L964.99,839.43L962.69,843L961.78,846.29L957.13,850.94L955.32,854.78L957.44,860.17L953.91,862.46L952.83,864.47L953.42,871.87L952.56,875.89L944.82,881.37L948.98,883.38L952.51,883.01L955.36,880.82L957.44,877.16L961.56,881L964.09,885.57L961.88,885.75L957.44,887.94L959.71,894.06L950.7,891.05L946.54,890.68L944.82,893.15L945.27,902.29L944.09,905.67L940.61,907.04L942.92,913.34L935.13,916.17L932.01,918.82L930.34,922.02L934.73,923.11L938.53,925.86L932.69,928.69L929.29,932.71L930.02,935.99L936.44,936.64L932.23,943.03L936.53,942.76L939.57,941.2L944.82,936.64L943.01,931.89L943.73,927.96L946.63,926.13L951.11,927.96L970.2,915.44L967.17,921.93L957.58,931.61L953.05,946.41L944.05,961.67L944.81,968.61L940.33,968.34L936.3,969.34L933.36,971.9L932.23,976.01L934.31,983.68L930.32,989.8L932.63,1000.22L937.48,1000.86L951.11,994.1L950.2,998.57L945.85,1004.79L944.81,1007.8L947.08,1013.74L946.8,1017.03L942.91,1019.49L941.32,1015.29L938.52,1017.58L936.43,1017.58L930.32,1011.18L928.01,1011.18L926.61,1016.75L923.57,1016.84L916.55,1013.28L911.66,1015.74L909.53,1021.31L910.07,1027.62L913.29,1032.19L909.3,1035.93L906.81,1040.86L913.83,1043.06L921.12,1050.83L923.61,1051.65L932.22,1045.25L929.86,1056.49L927.46,1059.87L921.7,1058.04L920.07,1061.42L919.35,1064.89L920.3,1067.45L923.6,1068.64L921.2,1072.02L919.57,1073.02L922.24,1076.22L926,1077.41L930.31,1076.95L934.3,1074.95L934.29,1094.04L930.44,1099.34L931.26,1101.44L933.93,1103.27L942.9,1104.64L947.79,1111.12L950.06,1110.03L951.1,1100.34L952.28,1099.98L953.41,1097.33L952.73,1095.41L940.59,1087.64L943.08,1085.18L944.44,1082.35L944.81,1074.95L947.75,1079.42L952.96,1081.25L958.94,1081.07L964.11,1079.15L959.21,1068.64L953.37,1061.7L951.56,1058.23L950.83,1054.21L951.1,1049.37L957.49,1058.41L959.71,1060.15L964.83,1062.16L966.33,1061.61L966.01,1055.85L964.78,1055.85L961.43,1052.56L968.14,1047.17L966.55,1044.16L957.45,1040.87L954.37,1042.06L954.68,1033.29L953.42,1028.17L956.68,1024.98L960.71,1018.31L964.1,1015.2L964.19,1023.7L966.01,1030.27L968.13,1030.27L969.76,1025.16L970.22,1019.49L972.3,1019.49L974.93,1025.8L976.11,1031.92L977.96,1033.38L988.56,1016.93L989.33,1014.28L988.33,1010.17L983.84,1002.13L982.8,997.48L984.16,994.19L987.33,993.82L990.86,995.01L995.84,998.2L997.84,1000.39L999.15,1003.5L999.65,1007.79L998.2,1022.87L999.88,1028.99L1006.13,1030.26L1006.13,1032.18L998.57,1035.84L992.64,1042.51L989.74,1050.46L991.24,1058.04L1001.93,1049.36L1008.22,1046.71L1009.99,1044.51L1010.12,1038.94L1016.69,1038.94Z" fill-rule="evenodd" fill="#4682b4" fill-opacity="0.471"/>
<polyline points="1016.69,1038.94 1024.84,1036.74 1029.82,1037.29 1027.16,1045.24 1017.87,1052.37 1011.58,1054.93 1008.68,1061.6 1006.15,1064.34 996.13,1064.34 991.33,1065.26 984.41,1082.89 987.26,1085.72 991.93,1086 1001.26,1082.34 1009.78,1079.96 1012.22,1080.14 1011.23,1082.33 1007.2,1086.36 1001.94,1087.64 1003.89,1094.03 999.68,1094.03 1001.95,1098.42 997.51,1100.43 993.15,1100.25 989.53,1098.06 987.26,1094.04 985.45,1097.87 979.29,1098.79 976.71,1100.34 976.39,1103.63 979.02,1110.48 977.71,1114.23 975.39,1117.61 977.71,1120.53 978.66,1124.82 980.34,1125.01 984.05,1122.91 987.72,1122.72 989.36,1128.11 991.26,1128.11 991.71,1124.55 993.48,1121.99 996.2,1120.34 999.69,1119.61 998.92,1122.35 997.56,1123.91 999.51,1127.01 999.83,1130.12 998.47,1132.77 995.48,1134.5 995.48,1136.61 1000.83,1138.43 1006.17,1136.6 1003.09,1144.19 998.29,1144.19 993.21,1141.36 989.36,1140.81 987.41,1145.56 990.27,1150.31 995.84,1153.05 1001.96,1151.59 1003.14,1154.24 1001.97,1155.7 1003.92,1157.98 1006.18,1155.7 1004.91,1160.17 1006.14,1163.37 1009.49,1164.37 1014.57,1162.18 1013.3,1165.29 1012.31,1174.88 1015.85,1175.52 1016.53,1177.07 1016.03,1178.99 1013.44,1178.53 1012.31,1179.17 1012.31,1185.29 1009.32,1185.48 1008.14,1184.75 1008.28,1183.38 1004.61,1185.75 1003.47,1187.67 1003.93,1191.87 999.44,1191.05 995.49,1191.88 995.49,1181.28 989.37,1185.3 991.27,1181.28 989.37,1179.18 985.7,1179.55 984.97,1174.89 982.84,1174.89 982.66,1177.26 980.94,1181.28 973.36,1168.59 970.69,1167.4 968.47,1164.57 966.02,1157.99 961.57,1159.27 956.9,1158.72 954.18,1156.71 955.54,1153.79 952.69,1152.51 945.93,1153.79 943.3,1152.6 942.9,1145.29 938.5,1144.1 930.48,1145.75 926.9,1144.1 924,1143.73 919.05,1150.77 914.29,1148.3 913.03,1146.11 912.57,1142.45 910.94,1140.81 908.13,1139.98 906,1140.81 904.64,1142.91 901.24,1139.8 901.33,1136.69 908.77,1124.18 910.31,1119.89 909.86,1117.88 900.61,1124.36 897.85,1123.99 896.72,1120.52 896.45,1114.22 895.14,1108.19 888.48,1108.28 885.76,1104.62 889.88,1104.07 900.67,1098.41 896.27,1096.4 888.53,1096.95 885.76,1096.12 884.27,1093.47 883.73,1089.73 883.87,1081.32 877.07,1090.09 873.03,1093.74 871.22,1090.82 870.77,1084.15 869.42,1079.4 864.57,1070.71 875.67,1073.1 877.35,1071.82 878.26,1067.98 880.25,1067.34 888.18,1070.18 889.49,1069.72 889.95,1065.34 881.57,1055.83 888.46,1052.09 887.37,1043.23 892.31,1038.94 888.78,1037.48 885.66,1038.2 883.16,1040.3 881.58,1042.95 880.67,1039.85 879.5,1038.93 888.11,1023.86 887.79,1022.4 883.9,1017.56 885.53,1017.01 885.8,1015.18 890.87,1017.56 893.46,1015 894.09,1010.99 893.32,1008.88 889.61,1006.96 886.81,1002.58 885.68,998.28 886.99,996.37 897.45,1002.58 900.71,1002.67 902.38,999.84 900.98,993.45 904.7,992.08 903.02,988.61 906.65,982.58 904.38,982.12 901.53,982.67 900.72,983.67 895.42,978.19 894.29,974.54 894.43,968.6 896.51,968.6 898.82,973.26 900.95,974.54 903.66,975 906.65,973.9 906.7,971.53 901.4,962.48 901,959.56 904.71,958 904.71,955.72 902.99,953.8 904.71,951.15 904.71,949.33 901.32,944.39 900.73,946.22 899.28,947.13 896.16,946.22 893.26,943.38 892.36,938.54 895.35,940.46 898.51,941.1 901.73,940.46 904.72,938.55 897.25,934.43 891.51,927.58 890.83,922.55 898.43,923.93 906.39,933.7 911.01,934.53 913.77,932.34 912.28,928.68 906.85,922.01 913.32,919.73 906.85,917.53 909.16,912.42 907.58,909.95 899.62,905.93 897.22,902.55 896.72,898.8 898.45,889.85 900.75,889.85 906.86,892.14 903.55,898.62 903.42,900.82 911.02,896.43 913.33,896.43 916.58,907.85 919.61,911.24 925.95,904.84 923.37,897.9 924.87,891.41 930.34,881.36 933.78,880.63 934.33,878.26 931.7,874.88 932.25,872.87 935.73,869.49 941.88,865.65 945.18,853.41 955.14,844.55 957.44,839.98 957.08,832.4 957.98,829.48 960.79,828.38 969.02,828.84 973.22,830.11 976.66,832.67 974.08,834.59 974.4,836.69 968.39,836.33 964.99,839.43 962.69,843 961.78,846.29 957.13,850.94 955.32,854.78 957.44,860.17 953.91,862.46 952.83,864.47 953.42,871.87 952.56,875.89 944.82,881.37 948.98,883.38 952.51,883.01 955.36,880.82 957.44,877.16 961.56,881 964.09,885.57 961.88,885.75 957.44,887.94 959.71,894.06 950.7,891.05 946.54,890.68 944.82,893.15 945.27,902.29 944.09,905.67 940.61,907.04 942.92,913.34 935.13,916.17 932.01,918.82 930.34,922.02 934.73,923.11 938.53,925.86 932.69,928.69 929.29,932.71 930.02,935.99 936.44,936.64 932.23,943.03 936.53,942.76 939.57,941.2 944.82,936.64 943.01,931.89 943.73,927.96 946.63,926.13 951.11,927.96 970.2,915.44 967.17,921.93 957.58,931.61 953.05,946.41 944.05,961.67 944.81,968.61 940.33,968.34 936.3,969.34 933.36,971.9 932.23,976.01 934.31,983.68 930.32,989.8 932.63,1000.22 937.48,1000.86 951.11,994.1 950.2,998.57 945.85,1004.79 944.81,1007.8 947.08,1013.74 946.8,1017.03 942.91,1019.49 941.32,1015.29 938.52,1017.58 936.43,1017.58 930.32,1011.18 928.01,1011.18 926.61,1016.75 923.57,1016.84 916.55,1013.28 911.66,1015.74 909.53,1021.31 910.07,1027.62 913.29,1032.19 909.3,1035.93 906.81,1040.86 913.83,1043.06 921.12,1050.83 923.61,1051.65 932.22,1045.25 929.86,1056.49 927.46,1059.87 921.7,1058.04 920.07,1061.42 919.35,1064.89 920.3,1067.45 923.6,1068.64 921.2,1072.02 919.57,1073.02 922.24,1076.22 926,1077.41 930.31,1076.95 934.3,1074.95 934.29,1094.04 930.44,1099.34 931.26,1101.44 933.93,1103.27 942.9,1104.64 947.79,1111.12 950.06,1110.03 951.1,1100.34 952.28,1099.98 953.41,1097.33 952.73,1095.41 940.59,1087.64 943.08,1085.18 944.44,1082.35 944.81,1074.95 947.75,1079.42 952.96,1081.25 958.94,1081.07 964.11,1079.15 959.21,1068.64 953.37,1061.7 951.56,1058.23 950.83,1054.21 951.1,1049.37 957.49,1058.41 959.71,1060.15 964.83,1062.16 966.33,1061.61 966.01,1055.85 964.78,1055.85 961.43,1052.56 968.14,1047.17 966.55,1044.16 957.45,1040.87 954.37,1042.06 954.68,1033.29 953.42,1028.17 956.68,1024.98 960.71,1018.31 964.1,1015.2 964.19,1023.7 966.01,1030.27 968.13,1030.27 969.76,1025.16 970.22,1019.49 972.3,1019.49 974.93,1025.8 976.11,1031.92 977.96,1033.38 988.56,1016.93 989.33,1014.28 988.33,1010.17 983.84,1002.13 982.8,997.48 984.16,994.19 987.33,993.82 990.86,995.01 995.84,998.2 997.84,1000.39 999.15,1003.5 999.65,1007.79 998.2,1022.87 999.88,1028.99 1006.13,1030.26 1006.13,1032.18 998.57,1035.84 992.64,1042.51 989.74,1050.46 991.24,1058.04 1001.93,1049.36 1008.22,1046.71 1009.99,1044.51 1010.12,1038.94 1016.69,1038.94" fill="none" stroke="#1e1e1e" stroke-width="1.51" stroke-linecap="round" stroke-linejoin="round"/>
<path d="M528.21,1321.86L526.52,1323.13L526.42,1325.6L528.59,1329.99L528.45,1331.82L514.5,1335.43L510.59,1336.97L507.18,1340.06L513.06,1345.47L512.41,1349.49L509.08,1353.32L507.12,1357.97L507.22,1368.21L506.7,1372.86L505.15,1376.24L495.56,1378.13L494.51,1379.49L494.45,1385.52L497.34,1389.46L496.05,1395.22L492.39,1403.79L488.58,1400.95L483.95,1400.57L472.36,1401.8L468.13,1405.72L463.05,1403.23L461.23,1404.32L460.57,1410.26L453.33,1403.65L449.96,1404.28L446.27,1407.01L439.09,1408.44L440.29,1393.46L441.89,1390.73L443.83,1393.02L445.12,1388.64L442.85,1387.53L435.23,1386.59L431.08,1379.63L428.86,1377.79L424.85,1380.24L422.36,1378.86L418.74,1374.74L421.76,1369.36L419.81,1368.53L415.22,1369.42L410.78,1367.94L406.3,1364.36L402.78,1359.59L401.44,1354.47L395.35,1355.45L393.14,1351.7L391.98,1346.76L389.04,1343.82L376.22,1347.06L370.28,1346.76L367.81,1340.53L367.19,1336.14L365.51,1335.86L363.2,1336.77L360.52,1336.21L359.22,1333.28L363.66,1323.52L363.06,1316.21L361.17,1311.36L357.92,1308.14L353.21,1305.56L353.22,1303.19L364.97,1305.8L371.09,1316.06L375.17,1327.96L380.63,1335.29L384.67,1336.49L393.3,1333.88L398.59,1327.96L401.55,1326.79L403.13,1329.26L404.41,1337.31L409.13,1337.42L410.54,1338.43L408.2,1343.9L411.63,1348.12L425,1354.11L428.04,1354.58L436.22,1352.24L437.62,1353.61L437.04,1364.39L439.23,1372.07L443.9,1373.74L448.14,1369.92L450.18,1369.56L453.44,1373.77L453.16,1376.6L454.72,1382L459.12,1385.49L467.21,1382.5L468.99,1379.86L473.53,1367.63L471.48,1357.85L472.16,1356.39L475.03,1354.12L476.38,1346.17L478.43,1341.7L481.99,1338.79L487.35,1337.71L487.97,1339.82L487.35,1349.77L490.29,1352.71L488.64,1357.27L488.3,1362.48L490.02,1365.5L494.43,1363.5L497.03,1358.94L494.5,1344.22L495.37,1341.67L498.28,1338.85L498.97,1336.75L498.21,1333.91L494.39,1334.45L491.67,1333.71L487.33,1330.31L489.42,1329.4L494.18,1329.51L496.85,1331.71L502.72,1327.35L500.88,1322.77L495.44,1319.47L490.41,1318.63L481.86,1322.98L479.27,1322.79L481.97,1316.68L490.61,1311.68L492.12,1309.13L484.32,1308.01L480.55,1308.91L475.73,1311.45L471.65,1310.06L469.7,1308.32L467.5,1302.65L467.51,1299.45L472.72,1302.3L478.98,1303.88L484.2,1303.07L486.44,1298.6L487.27,1294.95L494.67,1293.15L501.21,1293.17L501.31,1290.06L500.49,1288.69L499.13,1288.96L501.1,1284.58L502.42,1283.12L506.41,1282.68L507.96,1281.5L502.31,1275.08L503.27,1274.17L503.47,1266.41L501.33,1255.07L507.45,1257.19L502.05,1243.38L500.22,1235.61L493.88,1232.3L490.72,1229.45L492.04,1225.99L484.5,1217.1L482.34,1211.34L483.63,1206.5L488.59,1200.67L488.88,1195.37L482.7,1186.49L480.05,1180.63L481.52,1175.15L487.72,1163.76L491.41,1158.74L495.13,1159.12L494.83,1165.97L491.44,1178.39L490.87,1184.51L491.63,1187.98L495.01,1193.2L495.05,1196.76L493.07,1205.89L493.9,1213.93L496.79,1216.78L500.96,1218.07L505.67,1221.01L507.83,1226.31L508.99,1232.17L511.65,1235.1L518.24,1231.47L520.54,1235.86L517.26,1241.15L517.61,1246.08L519.4,1251.57L520.47,1258.33L517.68,1266.09L519.26,1268.84L529.09,1272.25L530.94,1276.37L521.66,1282.73L516.31,1294.68L516.69,1304.46L524.32,1303.85L522.71,1309.87L524.34,1311.89L527.56,1312.63L532.36,1315.66L534.67,1315.94L534.98,1318.77L528.21,1321.86Z" fill-rule="evenodd" fill="#4682b4" fill-opacity="0.471"/>
<polyline points="528.21,1321.86 526.52,1323.13 526.42,1325.6 528.59,1329.99 528.45,1331.82 514.5,1335.43 510.59,1336.97 507.18,1340.06 513.06,1345.47 512.41,1349.49 509.08,1353.32 507.12,1357.97 507.22,1368.21 506.7,1372.86 505.15,1376.24 495.56,1378.13 494.51,1379.49 494.45,1385.52 497.34,1389.46 496.05,1395.22 492.39,1403.79 488.58,1400.95 483.95,1400.57 472.36,1401.8 468.13,1405.72 463.05,1403.23 461.23,1404.32 460.57,1410.26 453.33,1403.65 449.96,1404.28 446.27,1407.01 439.09,1408.44 440.29,1393.46 441.89,1390.73 443.83,1393.02 445.12,1388.64 442.85,1387.53 435.23,1386.59 431.08,1379.63 428.86,1377.79 424.85,1380.24 422.36,1378.86 418.74,1374.74 421.76,1369.36 419.81,1368.53 415.22,1369.42 410.78,1367.94 406.3,1364.36 402.78,1359.59 401.44,1354.47 395.35,1355.45 393.14,1351.7 391.98,1346.76 389.04,1343.82 376.22,1347.06 370.28,1346.76 367.81,1340.53 367.19,1336.14 365.51,1335.86 363.2,1336.77 360.52,1336.21 359.22,1333.28 363.66,1323.52 363.06,1316.21 361.17,1311.36 357.92,1308.14 353.21,1305.56 353.22,1303.19 364.97,1305.8 371.09,1316.06 375.17,1327.96 380.63,1335.29 384.67,1336.49 393.3,1333.88 398.59,1327.96 401.55,1326.79 403.13,1329.26 404.41,1337.31 409.13,1337.42 410.54,1338.43 408.2,1343.9 411.63,1348.12 425,1354.11 428.04,1354.58 436.22,1352.24 437.62,1353.61 437.04,1364.39 439.23,1372.07 443.9,1373.74 448.14,1369.92 450.18,1369.56 453.44,1373.77 453.16,1376.6 454.72,1382 459.12,1385.49 467.21,1382.5 468.99,1379.86 473.53,1367.63 471.48,1357.85 472.16,1356.39 475.03,1354.12 476.38,1346.17 478.43,1341.7 481.99,1338.79 487.35,1337.71 487.97,1339.82 487.35,1349.77 490.29,1352.71 488.64,1357.27 488.3,1362.48 490.02,1365.5 494.43,1363.5 497.03,1358.94 494.5,1344.22 495.37,1341.67 498.28,1338.85 498.97,1336.75 498.21,1333.91 494.39,1334.45 491.67,1333.71 487.33,1330.31 489.42,1329.4 494.18,1329.51 496.85,1331.71 502.72,1327.35 500.88,1322.77 495.44,1319.47 490.41,1318.63 481.86,1322.98 479.27,1322.79 481.97,1316.68 490.61,1311.68 492.12,1309.13 484.32,1308.01 480.55,1308.91 475.73,1311.45 471.65,1310.06 469.7,1308.32 467.5,1302.65 467.51,1299.45 472.72,1302.3 478.98,1303.88 484.2,1303.07 486.44,1298.6 487.27,1294.95 494.67,1293.15 501.21,1293.17 501.31,1290.06 500.49,1288.69 499.13,1288.96 501.1,1284.58 502.42,1283.12 506.41,1282.68 507.96,1281.5 502.31,1275.08 503.27,1274.17 503.47,1266.41 501.33,1255.07 507.45,1257.19 502.05,1243.38 500.22,1235.61 493.88,1232.3 490.72,1229.45 492.04,1225.99 484.5,1217.1 482.34,1211.34 483.63,1206.5 488.59,1200.67 488.88,1195.37 482.7,1186.49 480.05,1180.63 481.52,1175.15 487.72,1163.76 491.41,1158.74 495.13,1159.12 494.83,1165.97 491.44,1178.39 490.87,1184.51 491.63,1187.98 495.01,1193.2 495.05,1196.76 493.07,1205.89 493.9,1213.93 496.79,1216.78 500.96,1218.07 505.67,1221.01 507.83,1226.31 508.99,1232.17 511.65,1235.1 518.24,1231.47 520.54,1235.86 517.26,1241.15 517.61,1246.08 519.4,1251.57 520.47,1258.33 517.68,1266.09 519.26,1268.84 529.09,1272.25 530.94,1276.37 521.66,1282.73 516.31,1294.68 516.69,1304.46 524.32,1303.85 522.71,1309.87 524.34,1311.89 527.56,1312.63 532.36,1315.66 534.67,1315.94 534.98,1318.77 528.21,1321.86" fill="none" stroke="#1e1e1e" stroke-width="1.51" stroke-linecap="round" stroke-linejoin="round"/>
<text x="875.86" y="1050.84" font-family="sans-serif" font-size="14" stroke="#ffffff" stroke-opacity="0.784" stroke-width="2.33" stroke-linejoin="round" paint-order="stroke" fill="#141414">Lac de Kossou</text>
<text x="415.4" y="1331.58" font-family="sans-serif" font-size="14" stroke="#ffffff" stroke-opacity="0.784" stroke-width="2.33" stroke-linejoin="round" paint-order="stroke" fill="#141414">Lac de Buyo</text>
</svg>
