<?xml version="1.0" encoding="UTF-8" standalone="no"?>
<svg xmlns="http://www.w3.org/2000/svg" width="2000" height="997" viewBox="0 0 2000 997">
<rect width="2000" height="997" fill="#ffffff"/>
<polyline points="1102.9,572.76 1096.54,581.82 1087.85,571.16 1071,560.22 1086.14,555.48 1089.62,563.63 1102.9,572.76" fill="none" stroke="#1e1e1e" stroke-width="2.09" stroke-linecap="round" stroke-linejoin="round"/>
<polyline points="188.01,71.7 183.26,78.97 192.05,84.41 197.3,79.12 194.21,73.44 197.61,69.14 195.79,66.3 208.55,62.53 208.17,64.8 219.18,64.5 224.1,68.72 233.45,68.37 231.67,77.27 234.99,78.67 235.42,68.55 245.33,74.95 249.5,71.93 256.26,74.71 272.29,69.99 281.83,72.38 304.89,70.2 316.35,63.83 323.69,66.54 328.92,74.73 339.79,71.48 358.38,77.77 369.1,75.99 373.26,81.23 379.22,72.58 370.09,67.23 365.67,71.61 367.15,66.22 362.1,66.57 369.5,59.95 372.53,61.26 367.19,65.88 374.26,66.7 376.15,61.7 379.28,63.4 383.69,59.33 378.8,47.74 384.5,30.3 409.94,19.24 412.47,14.93 416.55,16.82 420.34,13.71 445.65,10.33 467.28,10.23 551.21,24.19 580.09,43.02 586.38,37.53 578.27,37.61 572.84,34.56 605.4,34.81 610.04,36.81 608.72,42.09 617.24,47.24 627.99,45.16 623.98,39.85 616.07,39.67 623.68,37.22 644.19,46.17 662.87,40.23 689.55,39.81 709.77,46.7 725.74,44.95 732.92,49.76 746.66,46.54 758.73,48.53 766.98,59.04 771.9,51.11 782.98,50.44 798.54,57.72 799.92,65.13 804.9,67.16 810.64,66.5 812.34,63.2 808.94,58.43 813.21,57.66 820.87,60.75 831.43,58.89 849.48,66.93 852.11,63.95 874.96,62.75 883.38,55.49 910.58,62.63 918.78,60.97 929.21,67.15 956.27,71.53 957.03,79.3 967.14,79.25 971.94,84.98 982.08,84.09 985.81,80.14 987.29,83.45 989.9,80.98 998.57,84.1 1008.51,96.45 1031.49,103.57 1046.8,112.47 1051.01,110.69 1051.15,106.93 1071.69,107.81 1078.9,105.43 1079.49,102.14 1092.09,102.32 1099.96,97.8 1120.69,102.21 1127.73,109.97 1131.93,106.57 1155.69,113.71 1167.1,112.82 1173.51,117.27 1187.59,106.06 1221.51,107.24 1229.63,113.61 1230.12,119.16 1223.45,126.28 1224.65,135.39 1227.66,135.8 1225.96,141.4 1235.83,145.6 1240.51,141.04 1244.05,147.63 1264.92,163.89 1269.02,162.27 1271.1,167.88 1286.91,176.55 1293.9,175.9 1296.68,179.54 1294.23,182.06 1298.93,184.06 1291.85,192.14 1300.35,197.09 1308.43,218.53 1318.69,229.44 1336.62,225.7 1341.25,221.6 1365.07,235.39 1375.77,228.14 1383.49,233.02 1396.21,232.93 1406,242.06 1412.79,254.8 1427.89,266.41 1456.18,265.2 1466.32,259.44 1483.45,281.88 1491.1,286.89 1508.55,289.55 1517.19,283.48 1529.92,292.98 1535.56,287.87 1539.22,289.99 1543.58,283.72 1561.17,283.25 1574.28,302.61 1580.47,306.53 1583.98,307.34 1587.7,302.26 1587.32,308.6 1593.84,307.79 1593.04,298.54 1598.85,302.92 1608.73,302.19 1612.87,306.73 1609.07,310.31 1612.45,312.03 1613.91,307.71 1620.68,304.82 1624.85,312.16 1625.57,307.59 1629.88,310 1633.76,306.45 1631.5,310.94 1639.57,315.54 1642.11,310.4 1643.2,313.4 1646.95,311.09 1647.5,314.7 1650.55,312.48 1660.74,316.02 1667.94,329.71 1678.82,327.21 1683.76,335.16 1682.64,347.9 1694.18,352.8 1695.59,370.01 1718.66,396.85 1725.25,416.42 1732.49,419.52 1733.2,429.28 1729.62,424.83 1726.67,426.59 1727.21,432.37 1733.97,433.76 1732.9,447.66 1737.94,447.01 1736.41,451.62 1744.14,461.82 1749.94,463.57 1756,477.48 1766.13,481.53 1762.59,486.38 1764.21,508.27 1774.14,516.17 1791.06,515.47 1796.2,520.07 1798.02,528.71 1805.12,529.59 1805.91,536.97 1799.26,539.49 1799.91,545.72 1785.88,539.54 1770.96,543.15 1764.4,552.48 1748.43,554.54 1738.61,563.33 1731.46,559.52 1724.28,560.77 1710.44,571.65 1702.88,573.61 1695.82,573.12 1693.78,569.15 1700.47,551.94 1694.69,553.48 1682.28,560.92 1683.86,574.06 1681.39,576.94 1678.07,574.73 1676.22,579.08 1678.86,581.07 1671.55,581.71 1669.29,575.69 1650.07,572.72 1645.78,568.25 1627.98,562.5 1599.14,571.47 1591.1,569.13 1552.74,574.67 1537.89,586.9 1523.25,590.05 1511.54,583.97 1512.56,579.75 1508.06,575.45 1495.83,573.6 1492.35,570.03 1468.84,574.33 1458.95,570.78 1442.56,542.75 1420.59,520.78 1407.58,513.24 1395.55,514.75 1378.81,505.64 1352.66,512.15 1336.34,510.1 1319.41,523.61 1296.72,518.57 1293.8,515.74 1274.87,514.37 1268.6,520.26 1264.42,519.76 1266.56,514.18 1278.48,510.92 1271.54,507.63 1276.42,506.27 1281.8,513.74 1285.77,514.25 1281.84,510.93 1293.84,514.91 1289.29,512.36 1292.36,512.6 1313.7,522.19 1315.92,520.32 1301.66,514.76 1302.25,512.51 1315.31,516.64 1319.62,513.29 1316.58,507.42 1323.71,511.09 1325.58,507.41 1351.76,511.61 1365.08,505.67 1358.87,495.38 1349.94,489.14 1299.06,492.71 1291.35,484.97 1284.4,484.35 1286.7,480.93 1271.91,471.2 1270.88,475.78 1278.51,482.46 1276.62,484.55 1270.16,479.37 1269.71,483.84 1261.09,488.78 1263.77,490.87 1242.48,502.49 1243.22,512.9 1237.36,523.68 1239.16,533.29 1226.28,545.2 1211.59,577.77 1207.5,578.28 1199.12,590.92 1178.36,600.58 1167.81,599.12 1164.29,589.96 1160.88,589.07 1153.19,591.98 1153.48,597.26 1147.96,594.85 1142.67,598.72 1129.1,587.65 1117.56,588.41 1105.65,594.83 1104.06,576.82 1109.24,580.89 1112.08,572.88 1114.05,581.68 1115.66,568.96 1111.56,557.26 1090.56,541.05 1081.12,547.14 1078.47,538.6 1073.36,537.27 1068.57,543.01 1069.96,549.24 1063.33,548.13 1065.5,544.22 1061.42,543.6 1051.15,551.66 1043.72,549.08 1030.4,556.39 1028.89,562.99 1027.16,559.98 1015.59,573.06 1011.37,592.53 1004.4,602.41 1006.22,609.95 1011.01,611.17 1005.16,613.19 1021.69,617.94 1022.93,622.4 1009.2,616.59 1004.65,618.41 1011.15,618.43 1017.62,621.54 997.72,619.93 994.04,650.19 996.58,646.93 1001.5,652.21 991.43,655.79 984.95,650.44 987.62,643.18 981.65,641.06 963.13,652.81 964.05,661.56 982.66,661.8 991.44,669.5 1009.36,667.38 1000.83,661.09 1005.67,663.48 1010.68,661.08 1016.56,665.09 1010.98,660.74 1013.05,657.89 1024.51,662.34 1019.99,672.62 1035.25,683.95 1034.03,697.4 1019.83,710.53 1002.3,715.25 973.09,707.6 942.07,681.81 932.1,682.37 933.56,676.26 923.26,661.02 902.41,653.59 898.56,642.87 874.26,618.87 848.27,602.64 831.67,597.47 806.58,580.14 765.38,580.83 720.2,597.64 714.12,596.81 686.32,577.34 674.06,575.01 643.47,581.62 631.97,576.66 611.26,577.12 595.23,582.12 570.9,577.67 532.44,586.61 533,577.1 521.16,572.17 511.56,561.33 490.75,549.97 484.67,539.3 484.03,526.48 451.81,507.98 455.41,499.05 451.03,482.4 458.68,462.57 453.24,449.05 442.1,440.09 428.27,438.32 419,431.12 413.77,435.4 410.15,430.7 399.5,430.6 394.26,436.96 374.66,434.06 370.32,429.27 367.53,430.99 360.68,414.79 362.02,406.06 349.55,395.92 350.92,388.55 341.7,380.21 335.64,367.64 328.57,368.53 323.24,363.51 319.49,365.85 319.58,360.75 299.62,350.17 301.13,339.15 294.6,329.51 299.44,323.62 298.27,315.85 289.57,295.54 279.22,285.1 256.22,277.17 250.68,278.4 249.81,283.64 239.44,275.55 212.22,282.06 207.5,278.3 195.57,280.18 189.4,273.76 155.09,280.53 133.07,291.52 126.04,291.8 113.22,283.72 107.55,270.63 99.49,270.69 93.89,266.54 83.66,269.97 69.14,267.15 34.2,253.37 26.72,245.72 21.55,225.38 27.04,219.72 38.43,218.89 45.23,205.14 47.52,177.96 45.49,170.32 41.36,168.33 41.89,164.97 46.81,166.13 49.44,159.57 47.42,154.61 41.67,155.26 40.89,152.31 46.29,144.11 55.98,139.09 62.02,141.72 60.97,147.48 67.51,148.45 71.28,143.91 69.67,138.61 76.6,134.21 78.09,122.6 82.99,118.46 103.61,124.22 105.23,118.1 100.19,111.52 102.65,106.38 106.66,107.33 107.96,102.96 114.35,100.54 118.65,104.95 116.78,97.82 125.61,93.7 128.93,81.73 141.11,79.2 140.65,75.79 148.26,71.15 148.71,67.41 162.9,68.72 164.65,71.73 167.9,67.95 188.01,71.7" fill="none" stroke="#1e1e1e" stroke-width="2.09" stroke-linecap="round" stroke-linejoin="round"/>
</svg>
