<?xml version="1.0" encoding="UTF-8" standalone="no"?>
<svg xmlns="http://www.w3.org/2000/svg" width="2000" height="997" viewBox="0 0 2000 997">
<rect width="2000" height="997" fill="#ffffff"/>
<path d="M1286.87,480.9L1307.29,474.85L1338.35,477.36L1363.71,486.75L1363.75,503.08L1359.65,496.22L1349.82,489.36L1335.93,489.4L1299.15,492.05L1286.87,480.9Z" fill-rule="evenodd" fill="#4682b4" fill-opacity="0.471"/>
<polyline points="1286.87,480.9 1307.29,474.85 1338.35,477.36 1363.71,486.75 1363.75,503.08 1359.65,496.22 1349.82,489.36 1335.93,489.4 1299.15,492.05 1286.87,480.9" fill="none" stroke="#1e1e1e" stroke-width="2.09" stroke-linecap="round" stroke-linejoin="round"/>
<path d="M1264,487.82L1254.14,454.33L1228.78,439.76L1232,407.96L1242.59,389.04L1237.63,352.96L1243.31,331.47L1260.43,315.97L1274.33,323.68L1298.79,309.89L1312.71,327.91L1336.41,337.31L1351.2,376.8L1365.94,393.09L1388.81,393.03L1395.3,376.69L1430.44,381.75L1428.08,416.99L1422.4,429.03L1442.88,448.74L1442.97,480.53L1425.82,482.3L1411.19,514.99L1378.47,505.62L1351.51,512.56L1335.97,510.02L1319.65,523.8L1272.21,508.43L1271.39,507.57L1302.56,514.87L1303.28,511.81L1315.55,516.94L1317.99,510.06L1315.53,508.34L1359.68,509.96L1363.75,503.94L1363.71,486.75L1338.35,477.36L1307.29,474.85L1286.87,480.9L1272.14,471.48L1264,487.82Z" fill-rule="evenodd" fill="#4682b4" fill-opacity="0.471"/>
<polyline points="1264,487.82 1254.14,454.33 1228.78,439.76 1232,407.96 1242.59,389.04 1237.63,352.96 1243.31,331.47 1260.43,315.97 1274.33,323.68 1298.79,309.89 1312.71,327.91 1336.41,337.31 1351.2,376.8 1365.94,393.09 1388.81,393.03 1395.3,376.69 1430.44,381.75 1428.08,416.99 1422.4,429.03 1442.88,448.74 1442.97,480.53 1425.82,482.3 1411.19,514.99 1378.47,505.62 1351.51,512.56 1335.97,510.02 1319.65,523.8 1272.21,508.43 1271.39,507.57 1302.56,514.87 1303.28,511.81 1315.55,516.94 1317.99,510.06 1315.53,508.34 1359.68,509.96 1363.75,503.94 1363.71,486.75 1338.35,477.36 1307.29,474.85 1286.87,480.9 1272.14,471.48 1264,487.82" fill="none" stroke="#1e1e1e" stroke-width="2.09" stroke-linecap="round" stroke-linejoin="round"/>
<path d="M1411.19,514.99L1425.82,482.3L1442.97,480.53L1442.88,448.74L1422.4,429.03L1428.08,416.99L1430.44,381.75L1454.21,410.04L1516.4,441.63L1545.75,422.62L1557.21,428.6L1584.16,425.06L1595.62,432.75L1643.06,442.87L1662.73,457.39L1713.47,474.34L1753.52,473.29L1765.82,482.68L1767.6,511.03L1779.07,516.13L1779.08,516.98L1797.94,528.92L1764.54,552.29L1742.51,561.85L1724.51,561.08L1707.39,572.33L1694.3,569.81L1668.97,575.94L1628.02,562.37L1614.96,567.57L1573.26,570.31L1566.74,573.78L1562.65,574.65L1522.63,590.26L1493.12,570.6L1468.6,574.11L1454.67,566.42L1443.16,544.11L1411.19,514.99Z" fill-rule="evenodd" fill="#4682b4" fill-opacity="0.471"/>
<polyline points="1411.19,514.99 1425.82,482.3 1442.97,480.53 1442.88,448.74 1422.4,429.03 1428.08,416.99 1430.44,381.75 1454.21,410.04 1516.4,441.63 1545.75,422.62 1557.21,428.6 1584.16,425.06 1595.62,432.75 1643.06,442.87 1662.73,457.39 1713.47,474.34 1753.52,473.29 1765.82,482.68 1767.6,511.03 1779.07,516.13 1779.08,516.98 1797.94,528.92 1764.54,552.29 1742.51,561.85 1724.51,561.08 1707.39,572.33 1694.3,569.81 1668.97,575.94 1628.02,562.37 1614.96,567.57 1573.26,570.31 1566.74,573.78 1562.65,574.65 1522.63,590.26 1493.12,570.6 1468.6,574.11 1454.67,566.42 1443.16,544.11 1411.19,514.99" fill="none" stroke="#1e1e1e" stroke-width="2.09" stroke-linecap="round" stroke-linejoin="round"/>
<path d="M1732.01,419.26L1732.82,419.26L1732.86,427.85L1732.05,427.86L1732.04,427L1727.14,427.02L1727.96,427.87L1732.96,446.75L1744.47,462.17L1750.2,463.86L1750.22,467.29L1753.52,473.29L1713.47,474.34L1662.73,457.39L1643.06,442.87L1595.62,432.75L1584.16,425.06L1557.21,428.6L1545.75,422.62L1516.4,441.63L1454.21,410.04L1430.44,381.75L1395.3,376.69L1388.81,393.03L1365.94,393.09L1351.2,376.8L1336.41,337.31L1383.5,233.22L1396.56,233.19L1427.66,266.62L1471.73,265.63L1493.02,286.18L1516.68,283.53L1527.32,292.94L1543.61,283.43L1561.57,283.37L1574.71,303.08L1609.83,308.96L1609.84,311.54L1631.05,308.01L1633.5,306.28L1637.6,312.28L1662.12,317.33L1664.6,325.05L1678.49,327.57L1682.67,348.17L1718.84,399.56L1721.3,401.27L1721.31,403.85L1723.77,404.69L1732.01,419.26Z" fill-rule="evenodd" fill="#4682b4" fill-opacity="0.471"/>
<polyline points="1732.01,419.26 1732.82,419.26 1732.86,427.85 1732.05,427.86 1732.04,427 1727.14,427.02 1727.96,427.87 1732.96,446.75 1744.47,462.17 1750.2,463.86 1750.22,467.29 1753.52,473.29 1713.47,474.34 1662.73,457.39 1643.06,442.87 1595.62,432.75 1584.16,425.06 1557.21,428.6 1545.75,422.62 1516.4,441.63 1454.21,410.04 1430.44,381.75 1395.3,376.69 1388.81,393.03 1365.94,393.09 1351.2,376.8 1336.41,337.31 1383.5,233.22 1396.56,233.19 1427.66,266.62 1471.73,265.63 1493.02,286.18 1516.68,283.53 1527.32,292.94 1543.61,283.43 1561.57,283.37 1574.71,303.08 1609.83,308.96 1609.84,311.54 1631.05,308.01 1633.5,306.28 1637.6,312.28 1662.12,317.33 1664.6,325.05 1678.49,327.57 1682.67,348.17 1718.84,399.56 1721.3,401.27 1721.31,403.85 1723.77,404.69 1732.01,419.26" fill="none" stroke="#1e1e1e" stroke-width="2.09" stroke-linecap="round" stroke-linejoin="round"/>
<path d="M1103.54,99.63L1120.66,103.05L1121.48,105.63L1155.73,113.33L1179.37,112.45L1181,113.3L1181,110.73L1183.44,109L1196.48,104.69L1229.1,112.38L1225.88,136.44L1260.98,159.59L1265.06,161.3L1265.06,162.16L1274.86,169.01L1274.87,169.87L1296.91,182.72L1297.73,186.16L1296.92,187.02L1305.95,213.64L1323.11,229.07L1331.27,225.61L1333.71,225.61L1341.05,221.3L1366.37,235.84L1383.5,233.22L1336.41,337.31L1312.71,327.91L1298.79,309.89L1274.33,323.68L1260.43,315.97L1243.31,331.47L1218.81,326.35L1204.09,306.61L1200.8,287.71L1177.08,246.49L1138.73,250.83L1106.05,190.71L1105.21,161.49L1095.4,121.97L1079.08,104.8L1079.9,104.8L1079.9,103.94L1103.54,99.63Z" fill-rule="evenodd" fill="#4682b4" fill-opacity="0.471"/>
<polyline points="1103.54,99.63 1120.66,103.05 1121.48,105.63 1155.73,113.33 1179.37,112.45 1181,113.3 1181,110.73 1183.44,109 1196.48,104.69 1229.1,112.38 1225.88,136.44 1260.98,159.59 1265.06,161.3 1265.06,162.16 1274.86,169.01 1274.87,169.87 1296.91,182.72 1297.73,186.16 1296.92,187.02 1305.95,213.64 1323.11,229.07 1331.27,225.61 1333.71,225.61 1341.05,221.3 1366.37,235.84 1383.5,233.22 1336.41,337.31 1312.71,327.91 1298.79,309.89 1274.33,323.68 1260.43,315.97 1243.31,331.47 1218.81,326.35 1204.09,306.61 1200.8,287.71 1177.08,246.49 1138.73,250.83 1106.05,190.71 1105.21,161.49 1095.4,121.97 1079.08,104.8 1079.9,104.8 1079.9,103.94 1103.54,99.63" fill="none" stroke="#1e1e1e" stroke-width="2.09" stroke-linecap="round" stroke-linejoin="round"/>
<path d="M1079.08,104.8L1095.4,121.97L1105.21,161.49L1106.05,190.71L1138.73,250.83L1070.2,289.54L962.45,303.3L959.18,305.88L939.59,306.73L927.35,296.42L807.37,284.28L786.12,298.86L734.73,281.6L757.65,238.67L762.65,169.94L777.41,121.84L774.2,85.75L766.09,59.1L783.21,50.53L810.9,66.03L812.54,62.6L825.58,60.04L825.58,59.18L842.69,66.07L874.48,62.66L882.64,55.79L912.79,62.69L945.39,67.86L972.28,85.05L984.51,82.48L984.51,81.62L983.7,81.62L985.33,80.76L985.33,79.9L1007.34,95.37L1013.04,97.08L1015.49,98.8L1017.12,98.8L1026.9,103.96L1026.9,103.1L1043.21,109.11L1079.08,104.8Z" fill-rule="evenodd" fill="#4682b4" fill-opacity="0.471"/>
<polyline points="1079.08,104.8 1095.4,121.97 1105.21,161.49 1106.05,190.71 1138.73,250.83 1070.2,289.54 962.45,303.3 959.18,305.88 939.59,306.73 927.35,296.42 807.37,284.28 786.12,298.86 734.73,281.6 757.65,238.67 762.65,169.94 777.41,121.84 774.2,85.75 766.09,59.1 783.21,50.53 810.9,66.03 812.54,62.6 825.58,60.04 825.58,59.18 842.69,66.07 874.48,62.66 882.64,55.79 912.79,62.69 945.39,67.86 972.28,85.05 984.51,82.48 984.51,81.62 983.7,81.62 985.33,80.76 985.33,79.9 1007.34,95.37 1013.04,97.08 1015.49,98.8 1017.12,98.8 1026.9,103.96 1026.9,103.1 1043.21,109.11 1079.08,104.8" fill="none" stroke="#1e1e1e" stroke-width="2.09" stroke-linecap="round" stroke-linejoin="round"/>
<path d="M766.09,59.1L774.2,85.75L777.41,121.84L762.65,169.94L757.65,238.67L734.73,281.6L694.78,256.6L657.25,252.23L617.24,263.3L560.94,258.85L504.67,244.07L537.99,21.62L551.84,24.24L578.68,42.36L579.49,42.37L580.32,37.21L578.69,37.21L578.7,34.63L595.81,36.4L596.62,35.54L607.21,37.29L607.21,38.14L609.66,36.43L608.83,42.45L624.3,46.78L671.58,40.88L673.21,41.74L676.47,41.75L690.33,40.06L711.5,46.97L762.02,51.36L766.09,59.1Z" fill-rule="evenodd" fill="#4682b4" fill-opacity="0.471"/>
<polyline points="766.09,59.1 774.2,85.75 777.41,121.84 762.65,169.94 757.65,238.67 734.73,281.6 694.78,256.6 657.25,252.23 617.24,263.3 560.94,258.85 504.67,244.07 537.99,21.62 551.84,24.24 578.68,42.36 579.49,42.37 580.32,37.21 578.69,37.21 578.7,34.63 595.81,36.4 596.62,35.54 607.21,37.29 607.21,38.14 609.66,36.43 608.83,42.45 624.3,46.78 671.58,40.88 673.21,41.74 676.47,41.75 690.33,40.06 711.5,46.97 762.02,51.36 766.09,59.1" fill="none" stroke="#1e1e1e" stroke-width="2.09" stroke-linecap="round" stroke-linejoin="round"/>
<path d="M537.99,21.62L504.67,244.07L484.23,257.75L414.78,277.26L423.01,260.11L421.47,234.32L397.89,214.47L395.52,194.7L378.47,175.72L341.25,105.96L329.89,94.74L329.16,74.98L356.86,76.82L373.96,81.18L379.82,45.12L386.4,29.68L411.71,16.89L411.71,16.03L467.96,10.22L514.37,18.97L537.99,21.62Z" fill-rule="evenodd" fill="#4682b4" fill-opacity="0.471"/>
<polyline points="537.99,21.62 504.67,244.07 484.23,257.75 414.78,277.26 423.01,260.11 421.47,234.32 397.89,214.47 395.52,194.7 378.47,175.72 341.25,105.96 329.89,94.74 329.16,74.98 356.86,76.82 373.96,81.18 379.82,45.12 386.4,29.68 411.71,16.89 411.71,16.03 467.96,10.22 514.37,18.97 537.99,21.62" fill="none" stroke="#1e1e1e" stroke-width="2.09" stroke-linecap="round" stroke-linejoin="round"/>
<path d="M45.04,146.49L76.92,133.8L79.43,123.5L78.62,122.64L105.56,117.65L117.91,96.24L133.5,80L149.87,67.2L183.27,70.82L185.66,82.01L188.91,83.74L196.34,66.6L216.72,64.99L255.8,74.63L323.49,66.36L329.16,74.98L329.89,94.74L341.25,105.96L378.47,175.72L395.52,194.7L312.34,188.33L254.59,153.68L147.76,152.26L105.91,195.84L47.25,183.46L45.04,146.49Z" fill-rule="evenodd" fill="#4682b4" fill-opacity="0.471"/>
<polyline points="45.04,146.49 76.92,133.8 79.43,123.5 78.62,122.64 105.56,117.65 117.91,96.24 133.5,80 149.87,67.2 183.27,70.82 185.66,82.01 188.91,83.74 196.34,66.6 216.72,64.99 255.8,74.63 323.49,66.36 329.16,74.98 329.89,94.74 341.25,105.96 378.47,175.72 395.52,194.7 312.34,188.33 254.59,153.68 147.76,152.26 105.91,195.84 47.25,183.46 45.04,146.49" fill="none" stroke="#1e1e1e" stroke-width="2.09" stroke-linecap="round" stroke-linejoin="round"/>
<path d="M20.86,227.97L21.7,224.54L24.16,222.84L38.87,218.63L47.25,183.46L105.91,195.84L147.76,152.26L254.59,153.68L312.34,188.33L395.52,194.7L397.89,214.47L421.47,234.32L423.01,260.11L414.78,277.26L381.18,309.78L371.32,326.07L387.58,343.32L362,405.94L354.67,400.75L333.58,367.15L319.72,361.93L319.72,361.07L299.36,349.81L298.66,324.89L299.48,324.03L289.81,295.63L267.04,278.34L243.37,279.08L243.37,278.22L213.97,280.65L213.15,281.51L211.52,281.5L191.97,273.66L173.19,276.14L131.47,292.23L108.73,272.34L76.1,269.56L29.7,249.51L29.71,248.65L28.89,248.64L28.9,247.79L26.46,246.05L27.28,245.2L26.48,243.47L27.29,243.48L27.3,242.62L25.67,241.75L26.49,240.9L25.68,240.89L21.65,232.27L22.48,229.7L20.86,227.97Z" fill-rule="evenodd" fill="#4682b4" fill-opacity="0.471"/>
<polyline points="20.86,227.97 21.7,224.54 24.16,222.84 38.87,218.63 47.25,183.46 105.91,195.84 147.76,152.26 254.59,153.68 312.34,188.33 395.52,194.7 397.89,214.47 421.47,234.32 423.01,260.11 414.78,277.26 381.18,309.78 371.32,326.07 387.58,343.32 362,405.94 354.67,400.75 333.58,367.15 319.72,361.93 319.72,361.07 299.36,349.81 298.66,324.89 299.48,324.03 289.81,295.63 267.04,278.34 243.37,279.08 243.37,278.22 213.97,280.65 213.15,281.51 211.52,281.5 191.97,273.66 173.19,276.14 131.47,292.23 108.73,272.34 76.1,269.56 29.7,249.51 29.71,248.65 28.89,248.64 28.9,247.79 26.46,246.05 27.28,245.2 26.48,243.47 27.29,243.48 27.3,242.62 25.67,241.75 26.49,240.9 25.68,240.89 21.65,232.27 22.48,229.7 20.86,227.97" fill="none" stroke="#1e1e1e" stroke-width="2.09" stroke-linecap="round" stroke-linejoin="round"/>
<path d="M362,405.94L387.58,343.32L371.32,326.07L381.18,309.78L414.78,277.26L484.23,257.75L504.67,244.07L560.94,258.85L617.24,263.3L620.26,357.83L657.53,490.24L674.51,575.34L644.24,580.43L620.53,576.94L612.36,576.92L612.35,577.78L610.72,576.91L607.44,578.62L600.08,580.32L572.28,577.67L533.81,587.01L521.59,572.36L490.59,549.92L484.13,526.7L465.36,517.18L452.32,506.82L454.78,503.4L454.79,501.68L450.77,482.76L458.19,463.88L444.38,441.49L441.94,439.76L408.47,430.19L391.29,435.27L367.62,430.02L362,405.94Z" fill-rule="evenodd" fill="#4682b4" fill-opacity="0.471"/>
<polyline points="362,405.94 387.58,343.32 371.32,326.07 381.18,309.78 414.78,277.26 484.23,257.75 504.67,244.07 560.94,258.85 617.24,263.3 620.26,357.83 657.53,490.24 674.51,575.34 644.24,580.43 620.53,576.94 612.36,576.92 612.35,577.78 610.72,576.91 607.44,578.62 600.08,580.32 572.28,577.67 533.81,587.01 521.59,572.36 490.59,549.92 484.13,526.7 465.36,517.18 452.32,506.82 454.78,503.4 454.79,501.68 450.77,482.76 458.19,463.88 444.38,441.49 441.94,439.76 408.47,430.19 391.29,435.27 367.62,430.02 362,405.94" fill="none" stroke="#1e1e1e" stroke-width="2.09" stroke-linecap="round" stroke-linejoin="round"/>
<path d="M617.24,263.3L657.25,252.23L694.78,256.6L734.73,281.6L818.6,447.56L827.5,521.46L852.82,551.56L855.26,567.89L843.77,600.53L801.27,579L777.55,578.97L714.55,596.91L689.22,579.67L674.51,575.34L657.53,490.24L620.26,357.83L617.24,263.3Z" fill-rule="evenodd" fill="#4682b4" fill-opacity="0.471"/>
<polyline points="617.24,263.3 657.25,252.23 694.78,256.6 734.73,281.6 818.6,447.56 827.5,521.46 852.82,551.56 855.26,567.89 843.77,600.53 801.27,579 777.55,578.97 714.55,596.91 689.22,579.67 674.51,575.34 657.53,490.24 620.26,357.83 617.24,263.3" fill="none" stroke="#1e1e1e" stroke-width="2.09" stroke-linecap="round" stroke-linejoin="round"/>
<path d="M843.77,600.53L855.26,567.89L852.82,551.56L827.5,521.46L818.6,447.56L734.73,281.6L786.12,298.86L807.37,284.28L927.35,296.42L939.59,306.73L959.18,305.88L984.48,419.31L998.37,423.6L999.18,475.16L1014.72,539.6L1027.8,560.22L1015.54,573.11L1004.91,600.61L1009.82,616.94L995.09,627.25L996.73,634.12L994.27,646.15L968.09,647.87L968.09,661.61L991.82,669.35L1024.55,665.05L1019.64,671.93L1026.19,677.94L1034.38,697.7L1019.64,710.59L995.09,714.89L959.08,698.56L869.12,615.16L843.77,600.53Z" fill-rule="evenodd" fill="#4682b4" fill-opacity="0.471"/>
<polyline points="843.77,600.53 855.26,567.89 852.82,551.56 827.5,521.46 818.6,447.56 734.73,281.6 786.12,298.86 807.37,284.28 927.35,296.42 939.59,306.73 959.18,305.88 984.48,419.31 998.37,423.6 999.18,475.16 1014.72,539.6 1027.8,560.22 1015.54,573.11 1004.91,600.61 1009.82,616.94 995.09,627.25 996.73,634.12 994.27,646.15 968.09,647.87 968.09,661.61 991.82,669.35 1024.55,665.05 1019.64,671.93 1026.19,677.94 1034.38,697.7 1019.64,710.59 995.09,714.89 959.08,698.56 869.12,615.16 843.77,600.53" fill="none" stroke="#1e1e1e" stroke-width="2.09" stroke-linecap="round" stroke-linejoin="round"/>
<path d="M1027.8,560.22L1014.72,539.6L999.18,475.16L998.37,423.6L984.48,419.31L959.18,305.88L962.45,303.3L1070.2,289.54L1138.73,250.83L1177.08,246.49L1200.8,287.71L1204.09,306.61L1218.81,326.35L1243.31,331.47L1237.63,352.96L1242.59,389.04L1232,407.96L1228.78,439.76L1254.14,454.33L1264,487.82L1246.85,499.02L1241.14,504.18L1242.79,511.91L1239.55,532.54L1237.1,532.54L1235.47,535.13L1211.82,578.12L1178.31,600.51L1164.39,590.21L1139.05,597.11L1114.49,577.37L1111.21,556.75L1094.03,543.01L1072.77,538.73L1072.77,539.59L1036.8,551.63L1027.8,560.22Z" fill-rule="evenodd" fill="#4682b4" fill-opacity="0.471"/>
<polyline points="1027.8,560.22 1014.72,539.6 999.18,475.16 998.37,423.6 984.48,419.31 959.18,305.88 962.45,303.3 1070.2,289.54 1138.73,250.83 1177.08,246.49 1200.8,287.71 1204.09,306.61 1218.81,326.35 1243.31,331.47 1237.63,352.96 1242.59,389.04 1232,407.96 1228.78,439.76 1254.14,454.33 1264,487.82 1246.85,499.02 1241.14,504.18 1242.79,511.91 1239.55,532.54 1237.1,532.54 1235.47,535.13 1211.82,578.12 1178.31,600.51 1164.39,590.21 1139.05,597.11 1114.49,577.37 1111.21,556.75 1094.03,543.01 1072.77,538.73 1072.77,539.59 1036.8,551.63 1027.8,560.22" fill="none" stroke="#1e1e1e" stroke-width="2.09" stroke-linecap="round" stroke-linejoin="round"/>
<text x="884.6" y="194.83" font-family="sans-serif" font-size="14" stroke="#ffffff" stroke-opacity="0.784" stroke-width="2.33" stroke-linejoin="round" paint-order="stroke" fill="#141414">Saint Ann</text>
<text x="1047.44" y="426.99" font-family="sans-serif" font-size="14" stroke="#ffffff" stroke-opacity="0.784" stroke-width="2.33" stroke-linejoin="round" paint-order="stroke" fill="#141414">Saint Catherine</text>
<text x="459.92" y="418.27" font-family="sans-serif" font-size="14" stroke="#ffffff" stroke-opacity="0.784" stroke-width="2.33" stroke-linejoin="round" paint-order="stroke" fill="#141414">Saint Elizabeth</text>
<text x="860.6" y="478.62" font-family="sans-serif" font-size="14" stroke="#ffffff" stroke-opacity="0.784" stroke-width="2.33" stroke-linejoin="round" paint-order="stroke" fill="#141414">Clarendon</text>
<text x="602.03" y="158.08" font-family="sans-serif" font-size="14" stroke="#ffffff" stroke-opacity="0.784" stroke-width="2.33" stroke-linejoin="round" paint-order="stroke" fill="#141414">Trelawny</text>
<text x="670.37" y="440.99" font-family="sans-serif" font-size="14" stroke="#ffffff" stroke-opacity="0.784" stroke-width="2.33" stroke-linejoin="round" paint-order="stroke" fill="#141414">Manchester</text>
<text x="1494.73" y="366" font-family="sans-serif" font-size="14" stroke="#ffffff" stroke-opacity="0.784" stroke-width="2.33" stroke-linejoin="round" paint-order="stroke" fill="#141414">Portland</text>
<text x="182.62" y="250.9" font-family="sans-serif" font-size="14" stroke="#ffffff" stroke-opacity="0.784" stroke-width="2.33" stroke-linejoin="round" paint-order="stroke" fill="#141414">Westmoreland</text>
<text x="1522.56" y="511.26" font-family="sans-serif" font-size="14" stroke="#ffffff" stroke-opacity="0.784" stroke-width="2.33" stroke-linejoin="round" paint-order="stroke" fill="#141414">Saint Thomas</text>
<text x="1179.2" y="225.28" font-family="sans-serif" font-size="14" stroke="#ffffff" stroke-opacity="0.784" stroke-width="2.33" stroke-linejoin="round" paint-order="stroke" fill="#141414">Saint Mary</text>
<text x="392.64" y="133.49" font-family="sans-serif" font-size="14" stroke="#ffffff" stroke-opacity="0.784" stroke-width="2.33" stroke-linejoin="round" paint-order="stroke" fill="#141414">Saint James</text>
<text x="183.49" y="136.1" font-family="sans-serif" font-size="14" stroke="#ffffff" stroke-opacity="0.784" stroke-width="2.33" stroke-linejoin="round" paint-order="stroke" fill="#141414">Hanover</text>
<text x="1270.61" y="425.38" font-family="sans-serif" font-size="14" stroke="#ffffff" stroke-opacity="0.784" stroke-width="2.33" stroke-linejoin="round" paint-order="stroke" fill="#141414">Saint Andrew</text>
<text x="1286.6" y="491.56" font-family="sans-serif" font-size="14" stroke="#ffffff" stroke-opacity="0.784" stroke-width="2.33" stroke-linejoin="round" paint-order="stroke" fill="#141414">Kingston</text>
</svg>
