<?xml version="1.0" encoding="UTF-8" standalone="no"?>
<svg xmlns="http://www.w3.org/2000/svg" width="2000" height="1563" viewBox="0 0 2000 1563">
<rect width="2000" height="1563" fill="#ffffff"/>
<path d="M721.54,85.44L722.09,91.17L720.98,94.08L716.8,100.86L711.87,105.47L710.57,109.54L711.07,112.64L710.42,115.49L708.98,117.3L703.13,120.96L699.41,122.3L696.74,127.17L695.87,127.41L690.52,124.34L690.09,123.05L690.94,121.39L689.53,119.3L692.89,119.78L690.41,117.56L684.37,115.08L682.44,112.42L681.59,109.15L681.44,106.27L685.76,102.97L686.02,94.32L684.77,91.9L681.23,90.21L680.89,88.52L682.96,85.59L681.31,82.06L681.33,79.16L680.53,78.51L681.1,77.19L683.12,74.94L689.31,71.12L702.59,71.07L709.94,73.57L717.1,78.02L720.63,82.47L721.54,85.44Z" fill-rule="evenodd" fill="#4682b4" fill-opacity="0.471"/>
<polyline points="721.54,85.44 722.09,91.17 720.98,94.08 716.8,100.86 711.87,105.47 710.57,109.54 711.07,112.64 710.42,115.49 708.98,117.3 703.13,120.96 699.41,122.3 696.74,127.17 695.87,127.41 690.52,124.34 690.09,123.05 690.94,121.39 689.53,119.3 692.89,119.78 690.41,117.56 684.37,115.08 682.44,112.42 681.59,109.15 681.44,106.27 685.76,102.97 686.02,94.32 684.77,91.9 681.23,90.21 680.89,88.52 682.96,85.59 681.31,82.06 681.33,79.16 680.53,78.51 681.1,77.19 683.12,74.94 689.31,71.12 702.59,71.07 709.94,73.57 717.1,78.02 720.63,82.47 721.54,85.44" fill="none" stroke="#1e1e1e" stroke-width="0.89" stroke-linecap="round" stroke-linejoin="round"/>
<path d="M874.28,768.25L877.49,769.72L875.91,775.25L870.79,779.15L865.93,781.47L864.89,783.23L865.91,783.66L865.63,784.3L859.77,786.45L859.44,785.93L858.23,790.49L856.74,791.69L856.66,794.69L855.45,795.71L853.84,792.67L857.37,786.16L857.99,781.56L859.19,779.34L865.94,772.44L864.28,767.92L865.96,763.3L867.3,764.02L868.91,761.13L869.53,764.13L870.53,764.52L871.22,760.3L872.02,760.62L873.06,762.04L873.44,766.78L874.28,768.25Z" fill-rule="evenodd" fill="#4682b4" fill-opacity="0.471"/>
<polyline points="874.28,768.25 877.49,769.72 875.91,775.25 870.79,779.15 865.93,781.47 864.89,783.23 865.91,783.66 865.63,784.3 859.77,786.45 859.44,785.93 858.23,790.49 856.74,791.69 856.66,794.69 855.45,795.71 853.84,792.67 857.37,786.16 857.99,781.56 859.19,779.34 865.94,772.44 864.28,767.92 865.96,763.3 867.3,764.02 868.91,761.13 869.53,764.13 870.53,764.52 871.22,760.3 872.02,760.62 873.06,762.04 873.44,766.78 874.28,768.25" fill="none" stroke="#1e1e1e" stroke-width="0.89" stroke-linecap="round" stroke-linejoin="round"/>
<path d="M307.47,37.77L310.14,39.02L307.76,42.02L305.28,42.33L300.79,40.88L300.01,39.65L300.86,38.81L299.13,36.35L298.31,31.57L294.71,31.38L293.82,30.46L296.61,29.39L299.26,29.85L305.21,34.58L307.47,37.77Z" fill-rule="evenodd" fill="#4682b4" fill-opacity="0.471"/>
<polyline points="307.47,37.77 310.14,39.02 307.76,42.02 305.28,42.33 300.79,40.88 300.01,39.65 300.86,38.81 299.13,36.35 298.31,31.57 294.71,31.38 293.82,30.46 296.61,29.39 299.26,29.85 305.21,34.58 307.47,37.77" fill="none" stroke="#1e1e1e" stroke-width="0.89" stroke-linecap="round" stroke-linejoin="round"/>
<path d="M419.81,166.88L422.3,166.42L419.3,168.88L418.18,168.82L418.53,171.77L417.25,174.04L417.41,169.7L416.24,170.55L417.49,166.55L415.68,166.63L415.92,165.23L415.08,164.63L414.02,165.09L413.57,166.9L411.33,166.01L411.36,164.72L408.6,166.73L408.41,165.42L410.91,163.17L410.3,162.65L411.19,160.81L410.46,159.69L409.2,159.58L408.14,163.51L407.58,158.63L410.04,158.26L411.51,158.84L414.01,156.74L416.59,156.13L412.68,160.61L412.61,161.72L417.64,164.44L418.13,162.71L419.6,162.8L419.62,164.44L421.09,164.83L419.16,166.53L419.81,166.88Z" fill-rule="evenodd" fill="#4682b4" fill-opacity="0.471"/>
<polyline points="419.81,166.88 422.3,166.42 419.3,168.88 418.18,168.82 418.53,171.77 417.25,174.04 417.41,169.7 416.24,170.55 417.49,166.55 415.68,166.63 415.92,165.23 415.08,164.63 414.02,165.09 413.57,166.9 411.33,166.01 411.36,164.72 408.6,166.73 408.41,165.42 410.91,163.17 410.3,162.65 411.19,160.81 410.46,159.69 409.2,159.58 408.14,163.51 407.58,158.63 410.04,158.26 411.51,158.84 414.01,156.74 416.59,156.13 412.68,160.61 412.61,161.72 417.64,164.44 418.13,162.71 419.6,162.8 419.62,164.44 421.09,164.83 419.16,166.53 419.81,166.88" fill="none" stroke="#1e1e1e" stroke-width="0.89" stroke-linecap="round" stroke-linejoin="round"/>
<path d="M310.77,360.52L314.23,359.82L311.88,362.37L310.6,361.32L309.98,361.65L310.85,362.3L310.5,363.13L295.35,367.83L297.24,370.68L296.63,372.98L291.15,372.08L292.79,371.21L294.85,371.59L292.85,370.05L291.71,367.26L289.57,365.1L291.22,363.41L293.5,368.12L295.35,365.45L297.13,365.69L297.32,364.23L299.32,365.26L301.04,363.54L307.08,363.03L308.78,360.81L310.77,360.52Z" fill-rule="evenodd" fill="#4682b4" fill-opacity="0.471"/>
<polyline points="310.77,360.52 314.23,359.82 311.88,362.37 310.6,361.32 309.98,361.65 310.85,362.3 310.5,363.13 295.35,367.83 297.24,370.68 296.63,372.98 291.15,372.08 292.79,371.21 294.85,371.59 292.85,370.05 291.71,367.26 289.57,365.1 291.22,363.41 293.5,368.12 295.35,365.45 297.13,365.69 297.32,364.23 299.32,365.26 301.04,363.54 307.08,363.03 308.78,360.81 310.77,360.52" fill="none" stroke="#1e1e1e" stroke-width="0.89" stroke-linecap="round" stroke-linejoin="round"/>
<text x="642.8" y="102.14" font-family="sans-serif" font-size="14" stroke="#ffffff" stroke-opacity="0.784" stroke-width="2.33" stroke-linejoin="round" paint-order="stroke" fill="#141414">Lake Khanka</text>
<text x="831.77" y="782.62" font-family="sans-serif" font-size="14" stroke="#ffffff" stroke-opacity="0.784" stroke-width="2.33" stroke-linejoin="round" paint-order="stroke" fill="#141414">Biwa Ko</text>
<text x="254.77" y="43.53" font-family="sans-serif" font-size="14" stroke="#ffffff" stroke-opacity="0.784" stroke-width="2.33" stroke-linejoin="round" paint-order="stroke" fill="#141414">Qagan Nur</text>
<text x="361.37" y="170.93" font-family="sans-serif" font-size="14" stroke="#ffffff" stroke-opacity="0.784" stroke-width="2.33" stroke-linejoin="round" paint-order="stroke" fill="#141414">Songhua Hu</text>
<text x="219.01" y="373.28" font-family="sans-serif" font-size="14" stroke="#ffffff" stroke-opacity="0.784" stroke-width="2.33" stroke-linejoin="round" paint-order="stroke" fill="#141414">Supung Reservoir</text>
</svg>
