<?xml version="1.0" encoding="UTF-8" standalone="no"?>
<svg xmlns="http://www.w3.org/2000/svg" width="1801" height="2000" viewBox="0 0 1801 2000">
<rect width="1801" height="2000" fill="#ffffff"/>
<path d="M9.62,1899.85L10.69,1899.16L13.51,1899.68L13.56,1898.61L10.65,1898.07L9.69,1896.33L11.74,1893.56L10.21,1890.5L12.96,1886.28L11.2,1881.48L17.81,1875.96L15.12,1871.62L15.88,1865.29L13.11,1858.37L16.83,1852.69L16.8,1846.52L23.72,1833.23L25.71,1825.2L25.85,1826.76L27.47,1825.81L27.21,1820L14.06,1811.46L15.62,1808.86L14.61,1808.86L13.98,1811.67L11.39,1809.96L13.56,1808.06L11.44,1807.71L41.76,266.26L49.36,262.49L53.15,264.68L57.26,264.03L54.05,264.87L56.69,264.83L56.32,266.43L60.94,267.89L63.54,266.95L64.82,263.53L64.38,265.97L62.94,267.41L60.35,267.98L56.98,267.51L53.89,265.56L53.8,267.53L58.8,271.42L60.87,269.21L61.59,273.31L63.27,270.08L64.06,274.19L66.14,272.5L64.81,274.03L66.87,273.15L67.88,277.16L69.36,278.06L68.42,276.05L71.58,274.59L67.23,272.52L70.65,271.32L66.51,265.13L70.03,265.6L72.22,269.15L74.41,268.31L82.95,254.47L89.89,229.11L88.55,223.94L83.83,223.87L86.64,217.23L90.11,194.17L99.41,162.65L101.52,138.47L105.51,132.32L116.25,126.41L116.86,127.3L118.9,124.94L126.07,109.78L131.56,109.01L133.83,106.64L137.9,94.39L140.8,92.68L143.68,81.85L144.38,68.52L140.78,61.77L136.56,61.3L136.31,57.37L140.88,58.83L144.43,56.44L147.16,51.93L149.32,42.03L151.34,41.21L153.82,35.23L158.22,30.34L160.68,10.87L1754.18,8.78L1793,1982.44L8,1982.44L9.62,1899.85Z" fill-rule="evenodd" fill="#4682b4" fill-opacity="0.471"/>
<polyline points="9.62,1899.85 10.69,1899.16 13.51,1899.68 13.56,1898.61 10.65,1898.07 9.69,1896.33 11.74,1893.56 10.21,1890.5 12.96,1886.28 11.2,1881.48 17.81,1875.96 15.12,1871.62 15.88,1865.29 13.11,1858.37 16.83,1852.69 16.8,1846.52 23.72,1833.23 25.71,1825.2 25.85,1826.76 27.47,1825.81 27.21,1820 14.06,1811.46 15.62,1808.86 14.61,1808.86 13.98,1811.67 11.39,1809.96 13.56,1808.06 11.44,1807.71 41.76,266.26 49.36,262.49 53.15,264.68 57.26,264.03 54.05,264.87 56.69,264.83 56.32,266.43 60.94,267.89 63.54,266.95 64.82,263.53 64.38,265.97 62.94,267.41 60.35,267.98 56.98,267.51 53.89,265.56 53.8,267.53 58.8,271.42 60.87,269.21 61.59,273.31 63.27,270.08 64.06,274.19 66.14,272.5 64.81,274.03 66.87,273.15 67.88,277.16 69.36,278.06 68.42,276.05 71.58,274.59 67.23,272.52 70.65,271.32 66.51,265.13 70.03,265.6 72.22,269.15 74.41,268.31 82.95,254.47 89.89,229.11 88.55,223.94 83.83,223.87 86.64,217.23 90.11,194.17 99.41,162.65 101.52,138.47 105.51,132.32 116.25,126.41 116.86,127.3 118.9,124.94 126.07,109.78 131.56,109.01 133.83,106.64 137.9,94.39 140.8,92.68 143.68,81.85 144.38,68.52 140.78,61.77 136.56,61.3 136.31,57.37 140.88,58.83 144.43,56.44 147.16,51.93 149.32,42.03 151.34,41.21 153.82,35.23 158.22,30.34 160.68,10.87 1754.18,8.78 1793,1982.44 8,1982.44 9.62,1899.85" fill="none" stroke="#1e1e1e" stroke-width="1.66" stroke-linecap="round" stroke-linejoin="round"/>
</svg>
