<?xml version="1.0" encoding="UTF-8" standalone="no"?>
<svg xmlns="http://www.w3.org/2000/svg" width="2000" height="1065" viewBox="0 0 2000 1065">
<rect width="2000" height="1065" fill="#ffffff"/>
<path d="M125.86,694.79L126.48,695.13L125.07,698.19L123.68,696.71L124.6,695.14L125.86,694.79Z" fill-rule="evenodd" fill="#4682b4" fill-opacity="0.471"/>
<polyline points="125.86,694.79 126.48,695.13 125.07,698.19 123.68,696.71 124.6,695.14 125.86,694.79" fill="none" stroke="#1e1e1e" stroke-width="0.81" stroke-linecap="round" stroke-linejoin="round"/>
<path d="M249.14,703.23L244.67,700.25L242.74,695.18L243.17,690.6L244.9,687.89L246.49,687.44L247.98,688.63L246.09,688.26L244.44,689.59L243.87,691.56L244.04,695.78L245.13,696.14L244.39,697.89L247.54,701.3L250.35,701.25L249.14,703.23Z" fill-rule="evenodd" fill="#4682b4" fill-opacity="0.471"/>
<polyline points="249.14,703.23 244.67,700.25 242.74,695.18 243.17,690.6 244.9,687.89 246.49,687.44 247.98,688.63 246.09,688.26 244.44,689.59 243.87,691.56 244.04,695.78 245.13,696.14 244.39,697.89 247.54,701.3 250.35,701.25 249.14,703.23" fill="none" stroke="#1e1e1e" stroke-width="0.81" stroke-linecap="round" stroke-linejoin="round"/>
<path d="M102.65,690.93L102.34,689.73L102.65,690.93Z" fill-rule="evenodd" fill="#4682b4" fill-opacity="0.471"/>
<polyline points="102.65,690.93 102.34,689.73 102.65,690.93" fill="none" stroke="#1e1e1e" stroke-width="0.81" stroke-linecap="round" stroke-linejoin="round"/>
<path d="M252.68,700.02L254.35,695.76L254.4,693.9L253.34,693.34L254.2,691.31L253.69,690.55L255.07,689.53L256.04,690.16L258.26,689.15L259.37,690.55L256.78,696.58L253.38,698.87L253.5,700.69L252.68,700.02Z" fill-rule="evenodd" fill="#4682b4" fill-opacity="0.471"/>
<polyline points="252.68,700.02 254.35,695.76 254.4,693.9 253.34,693.34 254.2,691.31 253.69,690.55 255.07,689.53 256.04,690.16 258.26,689.15 259.37,690.55 256.78,696.58 253.38,698.87 253.5,700.69 252.68,700.02" fill="none" stroke="#1e1e1e" stroke-width="0.81" stroke-linecap="round" stroke-linejoin="round"/>
<path d="M257.13,704.03L256.46,708.34L256.11,705.34L257.13,704.03Z" fill-rule="evenodd" fill="#4682b4" fill-opacity="0.471"/>
<polyline points="257.13,704.03 256.46,708.34 256.11,705.34 257.13,704.03" fill="none" stroke="#1e1e1e" stroke-width="0.81" stroke-linecap="round" stroke-linejoin="round"/>
<path d="M279.78,709.41L279.67,708.24L280.38,707.89L281.91,709.56L279.78,709.41Z" fill-rule="evenodd" fill="#4682b4" fill-opacity="0.471"/>
<polyline points="279.78,709.41 279.67,708.24 280.38,707.89 281.91,709.56 279.78,709.41" fill="none" stroke="#1e1e1e" stroke-width="0.81" stroke-linecap="round" stroke-linejoin="round"/>
<path d="M283.97,709.45L283.23,709.12L283.61,708.04L284.67,708.83L283.97,709.45Z" fill-rule="evenodd" fill="#4682b4" fill-opacity="0.471"/>
<polyline points="283.97,709.45 283.23,709.12 283.61,708.04 284.67,708.83 283.97,709.45" fill="none" stroke="#1e1e1e" stroke-width="0.81" stroke-linecap="round" stroke-linejoin="round"/>
<path d="M273.3,703.31L272.12,701.08L272.86,700.63L274.22,701.96L273.3,703.31Z" fill-rule="evenodd" fill="#4682b4" fill-opacity="0.471"/>
<polyline points="273.3,703.31 272.12,701.08 272.86,700.63 274.22,701.96 273.3,703.31" fill="none" stroke="#1e1e1e" stroke-width="0.81" stroke-linecap="round" stroke-linejoin="round"/>
<path d="M261.98,699.93L262.38,698.59L261.98,699.93Z" fill-rule="evenodd" fill="#4682b4" fill-opacity="0.471"/>
<polyline points="261.98,699.93 262.38,698.59 261.98,699.93" fill="none" stroke="#1e1e1e" stroke-width="0.81" stroke-linecap="round" stroke-linejoin="round"/>
<path d="M265.34,709.97L265.06,708.92L266.55,704.88L267.21,706.97L269,707.67L266.28,708.51L265.34,709.97Z" fill-rule="evenodd" fill="#4682b4" fill-opacity="0.471"/>
<polyline points="265.34,709.97 265.06,708.92 266.55,704.88 267.21,706.97 269,707.67 266.28,708.51 265.34,709.97" fill="none" stroke="#1e1e1e" stroke-width="0.81" stroke-linecap="round" stroke-linejoin="round"/>
<path d="M169.27,669.83L169.66,668.96L169.27,669.83Z" fill-rule="evenodd" fill="#4682b4" fill-opacity="0.471"/>
<polyline points="169.27,669.83 169.66,668.96 169.27,669.83" fill="none" stroke="#1e1e1e" stroke-width="0.81" stroke-linecap="round" stroke-linejoin="round"/>
<path d="M376.97,598.36L378.88,598.77L378.82,600.86L377.58,601.7L375.93,600.61L376.97,598.36Z" fill-rule="evenodd" fill="#4682b4" fill-opacity="0.471"/>
<polyline points="376.97,598.36 378.88,598.77 378.82,600.86 377.58,601.7 375.93,600.61 376.97,598.36" fill="none" stroke="#1e1e1e" stroke-width="0.81" stroke-linecap="round" stroke-linejoin="round"/>
<path d="M143.52,658.3L143.73,657.27L143.52,658.3Z" fill-rule="evenodd" fill="#4682b4" fill-opacity="0.471"/>
<polyline points="143.52,658.3 143.73,657.27 143.52,658.3" fill="none" stroke="#1e1e1e" stroke-width="0.81" stroke-linecap="round" stroke-linejoin="round"/>
<path d="M145.01,656.82L144.03,657.98L144.83,656.12L145.01,656.82Z" fill-rule="evenodd" fill="#4682b4" fill-opacity="0.471"/>
<polyline points="145.01,656.82 144.03,657.98 144.83,656.12 145.01,656.82" fill="none" stroke="#1e1e1e" stroke-width="0.81" stroke-linecap="round" stroke-linejoin="round"/>
<path d="M148.82,640.98L148.82,640.98Z" fill-rule="evenodd" fill="#4682b4" fill-opacity="0.471"/>
<polyline points="148.82,640.98 148.82,640.98" fill="none" stroke="#1e1e1e" stroke-width="0.81" stroke-linecap="round" stroke-linejoin="round"/>
<path d="M145.1,641.17L145.03,640.05L146.21,639.41L145.1,641.17Z" fill-rule="evenodd" fill="#4682b4" fill-opacity="0.471"/>
<polyline points="145.1,641.17 145.03,640.05 146.21,639.41 145.1,641.17" fill="none" stroke="#1e1e1e" stroke-width="0.81" stroke-linecap="round" stroke-linejoin="round"/>
<path d="M149.84,635.85L148.57,638.15L149.23,634.27L149.84,635.85Z" fill-rule="evenodd" fill="#4682b4" fill-opacity="0.471"/>
<polyline points="149.84,635.85 148.57,638.15 149.23,634.27 149.84,635.85" fill="none" stroke="#1e1e1e" stroke-width="0.81" stroke-linecap="round" stroke-linejoin="round"/>
<path d="M148.34,648.85L148.34,648.85Z" fill-rule="evenodd" fill="#4682b4" fill-opacity="0.471"/>
<polyline points="148.34,648.85 148.34,648.85" fill="none" stroke="#1e1e1e" stroke-width="0.81" stroke-linecap="round" stroke-linejoin="round"/>
<path d="M148.05,649.41L148.05,649.41Z" fill-rule="evenodd" fill="#4682b4" fill-opacity="0.471"/>
<polyline points="148.05,649.41 148.05,649.41" fill="none" stroke="#1e1e1e" stroke-width="0.81" stroke-linecap="round" stroke-linejoin="round"/>
<path d="M147.89,649.72L147.89,649.72Z" fill-rule="evenodd" fill="#4682b4" fill-opacity="0.471"/>
<polyline points="147.89,649.72 147.89,649.72" fill="none" stroke="#1e1e1e" stroke-width="0.81" stroke-linecap="round" stroke-linejoin="round"/>
<path d="M147.68,650.15L147.49,649.66L147.68,650.15Z" fill-rule="evenodd" fill="#4682b4" fill-opacity="0.471"/>
<polyline points="147.68,650.15 147.49,649.66 147.68,650.15" fill="none" stroke="#1e1e1e" stroke-width="0.81" stroke-linecap="round" stroke-linejoin="round"/>
<path d="M147.5,650.45L147.3,649.99L147.5,650.45Z" fill-rule="evenodd" fill="#4682b4" fill-opacity="0.471"/>
<polyline points="147.5,650.45 147.3,649.99 147.5,650.45" fill="none" stroke="#1e1e1e" stroke-width="0.81" stroke-linecap="round" stroke-linejoin="round"/>
<path d="M147.38,650.68L147.13,650.24L147.38,650.68Z" fill-rule="evenodd" fill="#4682b4" fill-opacity="0.471"/>
<polyline points="147.38,650.68 147.13,650.24 147.38,650.68" fill="none" stroke="#1e1e1e" stroke-width="0.81" stroke-linecap="round" stroke-linejoin="round"/>
<path d="M147.2,651.1L147.2,651.1Z" fill-rule="evenodd" fill="#4682b4" fill-opacity="0.471"/>
<polyline points="147.2,651.1 147.2,651.1" fill="none" stroke="#1e1e1e" stroke-width="0.81" stroke-linecap="round" stroke-linejoin="round"/>
<path d="M146.55,652.13L146.85,650.92L146.55,652.13Z" fill-rule="evenodd" fill="#4682b4" fill-opacity="0.471"/>
<polyline points="146.55,652.13 146.85,650.92 146.55,652.13" fill="none" stroke="#1e1e1e" stroke-width="0.81" stroke-linecap="round" stroke-linejoin="round"/>
<path d="M146.49,652.16L146,651.96L146.49,652.16Z" fill-rule="evenodd" fill="#4682b4" fill-opacity="0.471"/>
<polyline points="146.49,652.16 146,651.96 146.49,652.16" fill="none" stroke="#1e1e1e" stroke-width="0.81" stroke-linecap="round" stroke-linejoin="round"/>
<path d="M146.59,652.27L145.99,652.97L146.59,652.27Z" fill-rule="evenodd" fill="#4682b4" fill-opacity="0.471"/>
<polyline points="146.59,652.27 145.99,652.97 146.59,652.27" fill="none" stroke="#1e1e1e" stroke-width="0.81" stroke-linecap="round" stroke-linejoin="round"/>
<path d="M148.94,649.36L148.49,649.01L148.94,649.36Z" fill-rule="evenodd" fill="#4682b4" fill-opacity="0.471"/>
<polyline points="148.94,649.36 148.49,649.01 148.94,649.36" fill="none" stroke="#1e1e1e" stroke-width="0.81" stroke-linecap="round" stroke-linejoin="round"/>
<path d="M148.94,649.44L148.94,649.44Z" fill-rule="evenodd" fill="#4682b4" fill-opacity="0.471"/>
<polyline points="148.94,649.44 148.94,649.44" fill="none" stroke="#1e1e1e" stroke-width="0.81" stroke-linecap="round" stroke-linejoin="round"/>
<path d="M148.47,650.1L148.4,649.2L148.47,650.1Z" fill-rule="evenodd" fill="#4682b4" fill-opacity="0.471"/>
<polyline points="148.47,650.1 148.4,649.2 148.47,650.1" fill="none" stroke="#1e1e1e" stroke-width="0.81" stroke-linecap="round" stroke-linejoin="round"/>
<path d="M148.37,650.25L147.82,650.25L148.37,650.25Z" fill-rule="evenodd" fill="#4682b4" fill-opacity="0.471"/>
<polyline points="148.37,650.25 147.82,650.25 148.37,650.25" fill="none" stroke="#1e1e1e" stroke-width="0.81" stroke-linecap="round" stroke-linejoin="round"/>
<path d="M147.95,650.27L147.95,650.27Z" fill-rule="evenodd" fill="#4682b4" fill-opacity="0.471"/>
<polyline points="147.95,650.27 147.95,650.27" fill="none" stroke="#1e1e1e" stroke-width="0.81" stroke-linecap="round" stroke-linejoin="round"/>
<path d="M147.87,650.66L147.4,651.15L147.87,650.66Z" fill-rule="evenodd" fill="#4682b4" fill-opacity="0.471"/>
<polyline points="147.87,650.66 147.4,651.15 147.87,650.66" fill="none" stroke="#1e1e1e" stroke-width="0.81" stroke-linecap="round" stroke-linejoin="round"/>
<path d="M146.15,653.63L147.17,651.51L146.15,653.63Z" fill-rule="evenodd" fill="#4682b4" fill-opacity="0.471"/>
<polyline points="146.15,653.63 147.17,651.51 146.15,653.63" fill="none" stroke="#1e1e1e" stroke-width="0.81" stroke-linecap="round" stroke-linejoin="round"/>
<path d="M145.93,653.55L145.2,654.64L145.23,653.34L145.93,653.55Z" fill-rule="evenodd" fill="#4682b4" fill-opacity="0.471"/>
<polyline points="145.93,653.55 145.2,654.64 145.23,653.34 145.93,653.55" fill="none" stroke="#1e1e1e" stroke-width="0.81" stroke-linecap="round" stroke-linejoin="round"/>
<path d="M145.06,655.62L145.74,654.39L145.06,655.62Z" fill-rule="evenodd" fill="#4682b4" fill-opacity="0.471"/>
<polyline points="145.06,655.62 145.74,654.39 145.06,655.62" fill="none" stroke="#1e1e1e" stroke-width="0.81" stroke-linecap="round" stroke-linejoin="round"/>
<path d="M144.53,656.32L144.84,655.53L144.53,656.32Z" fill-rule="evenodd" fill="#4682b4" fill-opacity="0.471"/>
<polyline points="144.53,656.32 144.84,655.53 144.53,656.32" fill="none" stroke="#1e1e1e" stroke-width="0.81" stroke-linecap="round" stroke-linejoin="round"/>
<path d="M125.04,698.34L124.15,697.44L125.04,698.34Z" fill-rule="evenodd" fill="#4682b4" fill-opacity="0.471"/>
<polyline points="125.04,698.34 124.15,697.44 125.04,698.34" fill="none" stroke="#1e1e1e" stroke-width="0.81" stroke-linecap="round" stroke-linejoin="round"/>
<path d="M125.41,698.86L126.21,699.27L126.78,695.57L126.93,699.74L126.17,699.94L125.41,698.86Z" fill-rule="evenodd" fill="#4682b4" fill-opacity="0.471"/>
<polyline points="125.41,698.86 126.21,699.27 126.78,695.57 126.93,699.74 126.17,699.94 125.41,698.86" fill="none" stroke="#1e1e1e" stroke-width="0.81" stroke-linecap="round" stroke-linejoin="round"/>
<path d="M153.64,631.52L153.64,631.52Z" fill-rule="evenodd" fill="#4682b4" fill-opacity="0.471"/>
<polyline points="153.64,631.52 153.64,631.52" fill="none" stroke="#1e1e1e" stroke-width="0.81" stroke-linecap="round" stroke-linejoin="round"/>
<path d="M153.71,631.81L153.71,631.81Z" fill-rule="evenodd" fill="#4682b4" fill-opacity="0.471"/>
<polyline points="153.71,631.81 153.71,631.81" fill="none" stroke="#1e1e1e" stroke-width="0.81" stroke-linecap="round" stroke-linejoin="round"/>
<path d="M150.19,631.1L150.19,631.1Z" fill-rule="evenodd" fill="#4682b4" fill-opacity="0.471"/>
<polyline points="150.19,631.1 150.19,631.1" fill="none" stroke="#1e1e1e" stroke-width="0.81" stroke-linecap="round" stroke-linejoin="round"/>
<path d="M150.36,631.22L150.36,631.22Z" fill-rule="evenodd" fill="#4682b4" fill-opacity="0.471"/>
<polyline points="150.36,631.22 150.36,631.22" fill="none" stroke="#1e1e1e" stroke-width="0.81" stroke-linecap="round" stroke-linejoin="round"/>
<path d="M236.35,629.15L236.99,626.79L238.02,626.29L238.72,627.01L238.28,628.28L236.35,629.15Z" fill-rule="evenodd" fill="#4682b4" fill-opacity="0.471"/>
<polyline points="236.35,629.15 236.99,626.79 238.02,626.29 238.72,627.01 238.28,628.28 236.35,629.15" fill="none" stroke="#1e1e1e" stroke-width="0.81" stroke-linecap="round" stroke-linejoin="round"/>
<path d="M204.72,625.98L204.06,626.66L204.72,625.98Z" fill-rule="evenodd" fill="#4682b4" fill-opacity="0.471"/>
<polyline points="204.72,625.98 204.06,626.66 204.72,625.98" fill="none" stroke="#1e1e1e" stroke-width="0.81" stroke-linecap="round" stroke-linejoin="round"/>
<path d="M204.04,626.72L204.59,626.63L204.04,626.72Z" fill-rule="evenodd" fill="#4682b4" fill-opacity="0.471"/>
<polyline points="204.04,626.72 204.59,626.63 204.04,626.72" fill="none" stroke="#1e1e1e" stroke-width="0.81" stroke-linecap="round" stroke-linejoin="round"/>
<path d="M204.21,626.8L204.21,626.8Z" fill-rule="evenodd" fill="#4682b4" fill-opacity="0.471"/>
<polyline points="204.21,626.8 204.21,626.8" fill="none" stroke="#1e1e1e" stroke-width="0.81" stroke-linecap="round" stroke-linejoin="round"/>
<path d="M218.55,615.46L218.5,614.01L218.55,615.46Z" fill-rule="evenodd" fill="#4682b4" fill-opacity="0.471"/>
<polyline points="218.55,615.46 218.5,614.01 218.55,615.46" fill="none" stroke="#1e1e1e" stroke-width="0.81" stroke-linecap="round" stroke-linejoin="round"/>
<path d="M218.19,615.71L218.19,615.71Z" fill-rule="evenodd" fill="#4682b4" fill-opacity="0.471"/>
<polyline points="218.19,615.71 218.19,615.71" fill="none" stroke="#1e1e1e" stroke-width="0.81" stroke-linecap="round" stroke-linejoin="round"/>
<path d="M218.02,616.55L218.09,615.8L218.02,616.55Z" fill-rule="evenodd" fill="#4682b4" fill-opacity="0.471"/>
<polyline points="218.02,616.55 218.09,615.8 218.02,616.55" fill="none" stroke="#1e1e1e" stroke-width="0.81" stroke-linecap="round" stroke-linejoin="round"/>
<path d="M218.07,618.22L217.93,617.03L218.85,617.12L218.32,617.61L218.84,618.13L218.07,618.22Z" fill-rule="evenodd" fill="#4682b4" fill-opacity="0.471"/>
<polyline points="218.07,618.22 217.93,617.03 218.85,617.12 218.32,617.61 218.84,618.13 218.07,618.22" fill="none" stroke="#1e1e1e" stroke-width="0.81" stroke-linecap="round" stroke-linejoin="round"/>
<path d="M218.52,619.6L218.8,618.45L220.93,620.42L220.75,621.12L219.18,621.31L218.52,619.6Z" fill-rule="evenodd" fill="#4682b4" fill-opacity="0.471"/>
<polyline points="218.52,619.6 218.8,618.45 220.93,620.42 220.75,621.12 219.18,621.31 218.52,619.6" fill="none" stroke="#1e1e1e" stroke-width="0.81" stroke-linecap="round" stroke-linejoin="round"/>
<path d="M215.51,622.22L214.77,623.31L214.49,622.89L214.35,619.99L215.51,615.26L216.42,615.79L215.94,618.26L217.51,617.92L215.72,619.74L214.97,621.77L215.51,622.22Z" fill-rule="evenodd" fill="#4682b4" fill-opacity="0.471"/>
<polyline points="215.51,622.22 214.77,623.31 214.49,622.89 214.35,619.99 215.51,615.26 216.42,615.79 215.94,618.26 217.51,617.92 215.72,619.74 214.97,621.77 215.51,622.22" fill="none" stroke="#1e1e1e" stroke-width="0.81" stroke-linecap="round" stroke-linejoin="round"/>
<path d="M215.52,622.57L216.21,622.03L216.51,623.04L215.52,622.57Z" fill-rule="evenodd" fill="#4682b4" fill-opacity="0.471"/>
<polyline points="215.52,622.57 216.21,622.03 216.51,623.04 215.52,622.57" fill="none" stroke="#1e1e1e" stroke-width="0.81" stroke-linecap="round" stroke-linejoin="round"/>
<path d="M215.52,623.66L216.1,622.84L215.52,623.66Z" fill-rule="evenodd" fill="#4682b4" fill-opacity="0.471"/>
<polyline points="215.52,623.66 216.1,622.84 215.52,623.66" fill="none" stroke="#1e1e1e" stroke-width="0.81" stroke-linecap="round" stroke-linejoin="round"/>
<path d="M215.62,621.77L216.76,619.97L219.69,621.63L218.37,626.51L217.24,626.43L216.55,625.37L216.91,622.62L217.61,622.52L217.19,621.46L216.55,622.21L215.62,621.77Z" fill-rule="evenodd" fill="#4682b4" fill-opacity="0.471"/>
<polyline points="215.62,621.77 216.76,619.97 219.69,621.63 218.37,626.51 217.24,626.43 216.55,625.37 216.91,622.62 217.61,622.52 217.19,621.46 216.55,622.21 215.62,621.77" fill="none" stroke="#1e1e1e" stroke-width="0.81" stroke-linecap="round" stroke-linejoin="round"/>
<path d="M240.59,615.04L240.59,615.04Z" fill-rule="evenodd" fill="#4682b4" fill-opacity="0.471"/>
<polyline points="240.59,615.04 240.59,615.04" fill="none" stroke="#1e1e1e" stroke-width="0.81" stroke-linecap="round" stroke-linejoin="round"/>
<path d="M231.47,624.63L230.57,624.97L230.69,623.82L231.47,624.63Z" fill-rule="evenodd" fill="#4682b4" fill-opacity="0.471"/>
<polyline points="231.47,624.63 230.57,624.97 230.69,623.82 231.47,624.63" fill="none" stroke="#1e1e1e" stroke-width="0.81" stroke-linecap="round" stroke-linejoin="round"/>
<path d="M231.34,624.29L231.01,623.47L231.34,624.29Z" fill-rule="evenodd" fill="#4682b4" fill-opacity="0.471"/>
<polyline points="231.34,624.29 231.01,623.47 231.34,624.29" fill="none" stroke="#1e1e1e" stroke-width="0.81" stroke-linecap="round" stroke-linejoin="round"/>
<path d="M379.28,602.46L378.33,602.1L379.28,602.46Z" fill-rule="evenodd" fill="#4682b4" fill-opacity="0.471"/>
<polyline points="379.28,602.46 378.33,602.1 379.28,602.46" fill="none" stroke="#1e1e1e" stroke-width="0.81" stroke-linecap="round" stroke-linejoin="round"/>
<path d="M368.28,603.39L367.16,603.17L368.03,602.7L368.28,603.39Z" fill-rule="evenodd" fill="#4682b4" fill-opacity="0.471"/>
<polyline points="368.28,603.39 367.16,603.17 368.03,602.7 368.28,603.39" fill="none" stroke="#1e1e1e" stroke-width="0.81" stroke-linecap="round" stroke-linejoin="round"/>
<path d="M368.2,602.67L368.68,601.48L368.2,602.67Z" fill-rule="evenodd" fill="#4682b4" fill-opacity="0.471"/>
<polyline points="368.2,602.67 368.68,601.48 368.2,602.67" fill="none" stroke="#1e1e1e" stroke-width="0.81" stroke-linecap="round" stroke-linejoin="round"/>
<path d="M386.95,619.67L386.59,620.15L386.95,619.67Z" fill-rule="evenodd" fill="#4682b4" fill-opacity="0.471"/>
<polyline points="386.95,619.67 386.59,620.15 386.95,619.67" fill="none" stroke="#1e1e1e" stroke-width="0.81" stroke-linecap="round" stroke-linejoin="round"/>
<path d="M387.57,619.11L387.57,619.11Z" fill-rule="evenodd" fill="#4682b4" fill-opacity="0.471"/>
<polyline points="387.57,619.11 387.57,619.11" fill="none" stroke="#1e1e1e" stroke-width="0.81" stroke-linecap="round" stroke-linejoin="round"/>
<path d="M387.9,618.81L387.9,618.81Z" fill-rule="evenodd" fill="#4682b4" fill-opacity="0.471"/>
<polyline points="387.9,618.81 387.9,618.81" fill="none" stroke="#1e1e1e" stroke-width="0.81" stroke-linecap="round" stroke-linejoin="round"/>
<path d="M392.58,617.3L393.08,616.82L392.58,617.3Z" fill-rule="evenodd" fill="#4682b4" fill-opacity="0.471"/>
<polyline points="392.58,617.3 393.08,616.82 392.58,617.3" fill="none" stroke="#1e1e1e" stroke-width="0.81" stroke-linecap="round" stroke-linejoin="round"/>
<path d="M390.28,614.67L390.28,614.67Z" fill-rule="evenodd" fill="#4682b4" fill-opacity="0.471"/>
<polyline points="390.28,614.67 390.28,614.67" fill="none" stroke="#1e1e1e" stroke-width="0.81" stroke-linecap="round" stroke-linejoin="round"/>
<path d="M390.26,615.09L390.26,615.09Z" fill-rule="evenodd" fill="#4682b4" fill-opacity="0.471"/>
<polyline points="390.26,615.09 390.26,615.09" fill="none" stroke="#1e1e1e" stroke-width="0.81" stroke-linecap="round" stroke-linejoin="round"/>
<path d="M389.55,616.78L389.06,616.4L389.99,615.05L389.55,616.78Z" fill-rule="evenodd" fill="#4682b4" fill-opacity="0.471"/>
<polyline points="389.55,616.78 389.06,616.4 389.99,615.05 389.55,616.78" fill="none" stroke="#1e1e1e" stroke-width="0.81" stroke-linecap="round" stroke-linejoin="round"/>
<path d="M371.87,647.12L371.35,647.49L371.87,647.12Z" fill-rule="evenodd" fill="#4682b4" fill-opacity="0.471"/>
<polyline points="371.87,647.12 371.35,647.49 371.87,647.12" fill="none" stroke="#1e1e1e" stroke-width="0.81" stroke-linecap="round" stroke-linejoin="round"/>
<path d="M377.95,651.23L376.99,650.8L377.69,648.62L378.65,648.1L377.95,651.23Z" fill-rule="evenodd" fill="#4682b4" fill-opacity="0.471"/>
<polyline points="377.95,651.23 376.99,650.8 377.69,648.62 378.65,648.1 377.95,651.23" fill="none" stroke="#1e1e1e" stroke-width="0.81" stroke-linecap="round" stroke-linejoin="round"/>
<path d="M374.18,652.15L372.92,653.42L372.49,651.83L373.7,651.29L374.18,652.15Z" fill-rule="evenodd" fill="#4682b4" fill-opacity="0.471"/>
<polyline points="374.18,652.15 372.92,653.42 372.49,651.83 373.7,651.29 374.18,652.15" fill="none" stroke="#1e1e1e" stroke-width="0.81" stroke-linecap="round" stroke-linejoin="round"/>
<path d="M379.23,659.13L380.2,659.14L379.23,659.13Z" fill-rule="evenodd" fill="#4682b4" fill-opacity="0.471"/>
<polyline points="379.23,659.13 380.2,659.14 379.23,659.13" fill="none" stroke="#1e1e1e" stroke-width="0.81" stroke-linecap="round" stroke-linejoin="round"/>
<path d="M377.66,659.38L378.75,659.65L377.66,659.38Z" fill-rule="evenodd" fill="#4682b4" fill-opacity="0.471"/>
<polyline points="377.66,659.38 378.75,659.65 377.66,659.38" fill="none" stroke="#1e1e1e" stroke-width="0.81" stroke-linecap="round" stroke-linejoin="round"/>
<path d="M376.73,658.39L377.53,658.56L376.73,658.39Z" fill-rule="evenodd" fill="#4682b4" fill-opacity="0.471"/>
<polyline points="376.73,658.39 377.53,658.56 376.73,658.39" fill="none" stroke="#1e1e1e" stroke-width="0.81" stroke-linecap="round" stroke-linejoin="round"/>
<path d="M375.32,658.69L376.23,658.79L375.32,658.69Z" fill-rule="evenodd" fill="#4682b4" fill-opacity="0.471"/>
<polyline points="375.32,658.69 376.23,658.79 375.32,658.69" fill="none" stroke="#1e1e1e" stroke-width="0.81" stroke-linecap="round" stroke-linejoin="round"/>
<path d="M374.38,657.68L375.17,657.87L374.38,657.68Z" fill-rule="evenodd" fill="#4682b4" fill-opacity="0.471"/>
<polyline points="374.38,657.68 375.17,657.87 374.38,657.68" fill="none" stroke="#1e1e1e" stroke-width="0.81" stroke-linecap="round" stroke-linejoin="round"/>
<path d="M372.97,657.94L373.84,658.11L372.97,657.94Z" fill-rule="evenodd" fill="#4682b4" fill-opacity="0.471"/>
<polyline points="372.97,657.94 373.84,658.11 372.97,657.94" fill="none" stroke="#1e1e1e" stroke-width="0.81" stroke-linecap="round" stroke-linejoin="round"/>
<path d="M372.11,657.01L372.86,657.11L372.11,657.01Z" fill-rule="evenodd" fill="#4682b4" fill-opacity="0.471"/>
<polyline points="372.11,657.01 372.86,657.11 372.11,657.01" fill="none" stroke="#1e1e1e" stroke-width="0.81" stroke-linecap="round" stroke-linejoin="round"/>
<path d="M370.96,657.39L371.57,657.4L370.96,657.39Z" fill-rule="evenodd" fill="#4682b4" fill-opacity="0.471"/>
<polyline points="370.96,657.39 371.57,657.4 370.96,657.39" fill="none" stroke="#1e1e1e" stroke-width="0.81" stroke-linecap="round" stroke-linejoin="round"/>
<path d="M370.04,656.36L370.73,656.54L370.04,656.36Z" fill-rule="evenodd" fill="#4682b4" fill-opacity="0.471"/>
<polyline points="370.04,656.36 370.73,656.54 370.04,656.36" fill="none" stroke="#1e1e1e" stroke-width="0.81" stroke-linecap="round" stroke-linejoin="round"/>
<path d="M369.02,656.79L369.56,656.83L369.02,656.79Z" fill-rule="evenodd" fill="#4682b4" fill-opacity="0.471"/>
<polyline points="369.02,656.79 369.56,656.83 369.02,656.79" fill="none" stroke="#1e1e1e" stroke-width="0.81" stroke-linecap="round" stroke-linejoin="round"/>
<path d="M368.13,655.77L368.74,655.91L368.13,655.77Z" fill-rule="evenodd" fill="#4682b4" fill-opacity="0.471"/>
<polyline points="368.13,655.77 368.74,655.91 368.13,655.77" fill="none" stroke="#1e1e1e" stroke-width="0.81" stroke-linecap="round" stroke-linejoin="round"/>
<path d="M366.81,655.95L367.65,656.26L366.81,655.95Z" fill-rule="evenodd" fill="#4682b4" fill-opacity="0.471"/>
<polyline points="366.81,655.95 367.65,656.26 366.81,655.95" fill="none" stroke="#1e1e1e" stroke-width="0.81" stroke-linecap="round" stroke-linejoin="round"/>
<path d="M365.88,655.13L366.54,655.31L365.88,655.13Z" fill-rule="evenodd" fill="#4682b4" fill-opacity="0.471"/>
<polyline points="365.88,655.13 366.54,655.31 365.88,655.13" fill="none" stroke="#1e1e1e" stroke-width="0.81" stroke-linecap="round" stroke-linejoin="round"/>
<path d="M129.36,729.04L132.59,729.62L133.45,730.52L128.23,733.45L124.77,731.76L124.66,730.73L126.59,730.51L123.18,731.14L122.54,729.49L124.04,727.25L126.68,727.6L129.36,729.04Z" fill-rule="evenodd" fill="#4682b4" fill-opacity="0.471"/>
<polyline points="129.36,729.04 132.59,729.62 133.45,730.52 128.23,733.45 124.77,731.76 124.66,730.73 126.59,730.51 123.18,731.14 122.54,729.49 124.04,727.25 126.68,727.6 129.36,729.04" fill="none" stroke="#1e1e1e" stroke-width="0.81" stroke-linecap="round" stroke-linejoin="round"/>
<path d="M277.4,707.61L277.67,707.13L277.4,707.61Z" fill-rule="evenodd" fill="#4682b4" fill-opacity="0.471"/>
<polyline points="277.4,707.61 277.67,707.13 277.4,707.61" fill="none" stroke="#1e1e1e" stroke-width="0.81" stroke-linecap="round" stroke-linejoin="round"/>
<path d="M135.06,654.36L134.44,655.27L134.76,652.3L135.31,652.6L135.06,654.36Z" fill-rule="evenodd" fill="#4682b4" fill-opacity="0.471"/>
<polyline points="135.06,654.36 134.44,655.27 134.76,652.3 135.31,652.6 135.06,654.36" fill="none" stroke="#1e1e1e" stroke-width="0.81" stroke-linecap="round" stroke-linejoin="round"/>
<path d="M360.48,620.23L360.49,620.88L360.48,620.23Z" fill-rule="evenodd" fill="#4682b4" fill-opacity="0.471"/>
<polyline points="360.48,620.23 360.49,620.88 360.48,620.23" fill="none" stroke="#1e1e1e" stroke-width="0.81" stroke-linecap="round" stroke-linejoin="round"/>
<path d="M1769.64,492.96L1769.8,492.2L1770.65,492.24L1769.64,492.96Z" fill-rule="evenodd" fill="#4682b4" fill-opacity="0.471"/>
<polyline points="1769.64,492.96 1769.8,492.2 1770.65,492.24 1769.64,492.96" fill="none" stroke="#1e1e1e" stroke-width="0.81" stroke-linecap="round" stroke-linejoin="round"/>
<path d="M166.88,634.55L167.28,633.85L166.88,634.55Z" fill-rule="evenodd" fill="#4682b4" fill-opacity="0.471"/>
<polyline points="166.88,634.55 167.28,633.85 166.88,634.55" fill="none" stroke="#1e1e1e" stroke-width="0.81" stroke-linecap="round" stroke-linejoin="round"/>
<path d="M125.5,735.45L126.69,734.4L125.5,735.45Z" fill-rule="evenodd" fill="#4682b4" fill-opacity="0.471"/>
<polyline points="125.5,735.45 126.69,734.4 125.5,735.45" fill="none" stroke="#1e1e1e" stroke-width="0.81" stroke-linecap="round" stroke-linejoin="round"/>
<path d="M163.57,630L163.96,631.29L164.84,631.15L163.7,634.11L163.96,637.51L160.07,646.52L159.5,646.15L160.05,644.71L159.52,645.6L158.15,645.51L160.6,642.62L161.22,640.55L160.33,635.16L161.48,628.29L162.35,628.61L162.57,627.21L163.62,626.75L164.64,628.24L163.57,630Z" fill-rule="evenodd" fill="#4682b4" fill-opacity="0.471"/>
<polyline points="163.57,630 163.96,631.29 164.84,631.15 163.7,634.11 163.96,637.51 160.07,646.52 159.5,646.15 160.05,644.71 159.52,645.6 158.15,645.51 160.6,642.62 161.22,640.55 160.33,635.16 161.48,628.29 162.35,628.61 162.57,627.21 163.62,626.75 164.64,628.24 163.57,630" fill="none" stroke="#1e1e1e" stroke-width="0.81" stroke-linecap="round" stroke-linejoin="round"/>
<path d="M165.26,633.44L165.2,634.64L165.26,633.44Z" fill-rule="evenodd" fill="#4682b4" fill-opacity="0.471"/>
<polyline points="165.26,633.44 165.2,634.64 165.26,633.44" fill="none" stroke="#1e1e1e" stroke-width="0.81" stroke-linecap="round" stroke-linejoin="round"/>
<path d="M165.17,635.05L165.17,635.05Z" fill-rule="evenodd" fill="#4682b4" fill-opacity="0.471"/>
<polyline points="165.17,635.05 165.17,635.05" fill="none" stroke="#1e1e1e" stroke-width="0.81" stroke-linecap="round" stroke-linejoin="round"/>
<path d="M167.04,634.72L167.04,634.72Z" fill-rule="evenodd" fill="#4682b4" fill-opacity="0.471"/>
<polyline points="167.04,634.72 167.04,634.72" fill="none" stroke="#1e1e1e" stroke-width="0.81" stroke-linecap="round" stroke-linejoin="round"/>
<path d="M167,634.23L166.11,634.16L166.08,632.33L167.15,629.56L167,634.23Z" fill-rule="evenodd" fill="#4682b4" fill-opacity="0.471"/>
<polyline points="167,634.23 166.11,634.16 166.08,632.33 167.15,629.56 167,634.23" fill="none" stroke="#1e1e1e" stroke-width="0.81" stroke-linecap="round" stroke-linejoin="round"/>
<path d="M166.44,635.42L166.44,635.42Z" fill-rule="evenodd" fill="#4682b4" fill-opacity="0.471"/>
<polyline points="166.44,635.42 166.44,635.42" fill="none" stroke="#1e1e1e" stroke-width="0.81" stroke-linecap="round" stroke-linejoin="round"/>
<path d="M166.31,635.59L166.18,636.17L166.31,635.59Z" fill-rule="evenodd" fill="#4682b4" fill-opacity="0.471"/>
<polyline points="166.31,635.59 166.18,636.17 166.31,635.59" fill="none" stroke="#1e1e1e" stroke-width="0.81" stroke-linecap="round" stroke-linejoin="round"/>
<path d="M382.12,655.13L382.12,655.13Z" fill-rule="evenodd" fill="#4682b4" fill-opacity="0.471"/>
<polyline points="382.12,655.13 382.12,655.13" fill="none" stroke="#1e1e1e" stroke-width="0.81" stroke-linecap="round" stroke-linejoin="round"/>
<path d="M390.02,628.61L393.08,625.94L393.18,627.34L389.2,630.29L390.02,628.61Z" fill-rule="evenodd" fill="#4682b4" fill-opacity="0.471"/>
<polyline points="390.02,628.61 393.08,625.94 393.18,627.34 389.2,630.29 390.02,628.61" fill="none" stroke="#1e1e1e" stroke-width="0.81" stroke-linecap="round" stroke-linejoin="round"/>
<path d="M149.58,646.86L150.15,647.14L149.36,647.46L149.56,648.1L149.58,646.86Z" fill-rule="evenodd" fill="#4682b4" fill-opacity="0.471"/>
<polyline points="149.58,646.86 150.15,647.14 149.36,647.46 149.56,648.1 149.58,646.86" fill="none" stroke="#1e1e1e" stroke-width="0.81" stroke-linecap="round" stroke-linejoin="round"/>
<path d="M152.94,641.23L153.59,641.89L153,642.58L153.4,643.75L155.4,643.25L155.13,645.21L153.62,647.27L150.35,647.76L152.94,641.23Z" fill-rule="evenodd" fill="#4682b4" fill-opacity="0.471"/>
<polyline points="152.94,641.23 153.59,641.89 153,642.58 153.4,643.75 155.4,643.25 155.13,645.21 153.62,647.27 150.35,647.76 152.94,641.23" fill="none" stroke="#1e1e1e" stroke-width="0.81" stroke-linecap="round" stroke-linejoin="round"/>
<path d="M150.6,641.39L149.94,643.65L150.6,641.39Z" fill-rule="evenodd" fill="#4682b4" fill-opacity="0.471"/>
<polyline points="150.6,641.39 149.94,643.65 150.6,641.39" fill="none" stroke="#1e1e1e" stroke-width="0.81" stroke-linecap="round" stroke-linejoin="round"/>
<path d="M148.42,648.22L148.42,648.22Z" fill-rule="evenodd" fill="#4682b4" fill-opacity="0.471"/>
<polyline points="148.42,648.22 148.42,648.22" fill="none" stroke="#1e1e1e" stroke-width="0.81" stroke-linecap="round" stroke-linejoin="round"/>
<path d="M148.89,647.55L148.7,648.14L148.89,647.55Z" fill-rule="evenodd" fill="#4682b4" fill-opacity="0.471"/>
<polyline points="148.89,647.55 148.7,648.14 148.89,647.55" fill="none" stroke="#1e1e1e" stroke-width="0.81" stroke-linecap="round" stroke-linejoin="round"/>
<path d="M149.04,647.05L149.04,647.05Z" fill-rule="evenodd" fill="#4682b4" fill-opacity="0.471"/>
<polyline points="149.04,647.05 149.04,647.05" fill="none" stroke="#1e1e1e" stroke-width="0.81" stroke-linecap="round" stroke-linejoin="round"/>
<path d="M149.52,646.44L149.3,646.91L149.52,646.44Z" fill-rule="evenodd" fill="#4682b4" fill-opacity="0.471"/>
<polyline points="149.52,646.44 149.3,646.91 149.52,646.44" fill="none" stroke="#1e1e1e" stroke-width="0.81" stroke-linecap="round" stroke-linejoin="round"/>
<path d="M149.64,646.1L149.64,646.1Z" fill-rule="evenodd" fill="#4682b4" fill-opacity="0.471"/>
<polyline points="149.64,646.1 149.64,646.1" fill="none" stroke="#1e1e1e" stroke-width="0.81" stroke-linecap="round" stroke-linejoin="round"/>
<path d="M150.82,643.4L150.82,643.4Z" fill-rule="evenodd" fill="#4682b4" fill-opacity="0.471"/>
<polyline points="150.82,643.4 150.82,643.4" fill="none" stroke="#1e1e1e" stroke-width="0.81" stroke-linecap="round" stroke-linejoin="round"/>
<path d="M151.16,643.24L151.16,643.24Z" fill-rule="evenodd" fill="#4682b4" fill-opacity="0.471"/>
<polyline points="151.16,643.24 151.16,643.24" fill="none" stroke="#1e1e1e" stroke-width="0.81" stroke-linecap="round" stroke-linejoin="round"/>
<path d="M151.54,642.01L151.29,643.07L151.51,642.22L150.77,642.26L151.54,642.01Z" fill-rule="evenodd" fill="#4682b4" fill-opacity="0.471"/>
<polyline points="151.54,642.01 151.29,643.07 151.51,642.22 150.77,642.26 151.54,642.01" fill="none" stroke="#1e1e1e" stroke-width="0.81" stroke-linecap="round" stroke-linejoin="round"/>
<path d="M151.56,641.49L151.02,641.4L151.56,641.49Z" fill-rule="evenodd" fill="#4682b4" fill-opacity="0.471"/>
<polyline points="151.56,641.49 151.02,641.4 151.56,641.49" fill="none" stroke="#1e1e1e" stroke-width="0.81" stroke-linecap="round" stroke-linejoin="round"/>
<path d="M151.8,642.18L151.7,642.74L151.8,642.18Z" fill-rule="evenodd" fill="#4682b4" fill-opacity="0.471"/>
<polyline points="151.8,642.18 151.7,642.74 151.8,642.18" fill="none" stroke="#1e1e1e" stroke-width="0.81" stroke-linecap="round" stroke-linejoin="round"/>
<path d="M151.51,643.49L151.79,642.75L151.51,643.49Z" fill-rule="evenodd" fill="#4682b4" fill-opacity="0.471"/>
<polyline points="151.51,643.49 151.79,642.75 151.51,643.49" fill="none" stroke="#1e1e1e" stroke-width="0.81" stroke-linecap="round" stroke-linejoin="round"/>
<path d="M150.71,644.65L151.53,643.51L150.71,644.65Z" fill-rule="evenodd" fill="#4682b4" fill-opacity="0.471"/>
<polyline points="150.71,644.65 151.53,643.51 150.71,644.65" fill="none" stroke="#1e1e1e" stroke-width="0.81" stroke-linecap="round" stroke-linejoin="round"/>
<path d="M150.54,644.92L150.54,644.92Z" fill-rule="evenodd" fill="#4682b4" fill-opacity="0.471"/>
<polyline points="150.54,644.92 150.54,644.92" fill="none" stroke="#1e1e1e" stroke-width="0.81" stroke-linecap="round" stroke-linejoin="round"/>
<path d="M150.43,645.12L150.43,645.12Z" fill-rule="evenodd" fill="#4682b4" fill-opacity="0.471"/>
<polyline points="150.43,645.12 150.43,645.12" fill="none" stroke="#1e1e1e" stroke-width="0.81" stroke-linecap="round" stroke-linejoin="round"/>
<path d="M150.25,645.5L150.25,645.5Z" fill-rule="evenodd" fill="#4682b4" fill-opacity="0.471"/>
<polyline points="150.25,645.5 150.25,645.5" fill="none" stroke="#1e1e1e" stroke-width="0.81" stroke-linecap="round" stroke-linejoin="round"/>
<path d="M150.07,646.01L150.07,646.01Z" fill-rule="evenodd" fill="#4682b4" fill-opacity="0.471"/>
<polyline points="150.07,646.01 150.07,646.01" fill="none" stroke="#1e1e1e" stroke-width="0.81" stroke-linecap="round" stroke-linejoin="round"/>
<path d="M150.03,645.97L149.95,646.6L150.03,645.97Z" fill-rule="evenodd" fill="#4682b4" fill-opacity="0.471"/>
<polyline points="150.03,645.97 149.95,646.6 150.03,645.97" fill="none" stroke="#1e1e1e" stroke-width="0.81" stroke-linecap="round" stroke-linejoin="round"/>
<path d="M149.76,646.51L150.02,646.98L149.76,646.51Z" fill-rule="evenodd" fill="#4682b4" fill-opacity="0.471"/>
<polyline points="149.76,646.51 150.02,646.98 149.76,646.51" fill="none" stroke="#1e1e1e" stroke-width="0.81" stroke-linecap="round" stroke-linejoin="round"/>
<path d="M149.08,647.78L149.43,648.73L149.08,647.78Z" fill-rule="evenodd" fill="#4682b4" fill-opacity="0.471"/>
<polyline points="149.08,647.78 149.43,648.73 149.08,647.78" fill="none" stroke="#1e1e1e" stroke-width="0.81" stroke-linecap="round" stroke-linejoin="round"/>
<path d="M148.79,648.4L149.15,649.07L148.5,648.99L148.79,648.4Z" fill-rule="evenodd" fill="#4682b4" fill-opacity="0.471"/>
<polyline points="148.79,648.4 149.15,649.07 148.5,648.99 148.79,648.4" fill="none" stroke="#1e1e1e" stroke-width="0.81" stroke-linecap="round" stroke-linejoin="round"/>
<path d="M158.81,654.6L161.42,656.08L160.84,657.71L158.9,658.58L157.81,658.03L158.1,655.2L158.81,654.6Z" fill-rule="evenodd" fill="#4682b4" fill-opacity="0.471"/>
<polyline points="158.81,654.6 161.42,656.08 160.84,657.71 158.9,658.58 157.81,658.03 158.1,655.2 158.81,654.6" fill="none" stroke="#1e1e1e" stroke-width="0.81" stroke-linecap="round" stroke-linejoin="round"/>
<path d="M326.22,678.62L325.5,678.6L326.22,678.62Z" fill-rule="evenodd" fill="#4682b4" fill-opacity="0.471"/>
<polyline points="326.22,678.62 325.5,678.6 326.22,678.62" fill="none" stroke="#1e1e1e" stroke-width="0.81" stroke-linecap="round" stroke-linejoin="round"/>
<path d="M314.5,993.98L319.35,988L319.85,985.75L319.27,985L318.47,985.27L318.59,984.07L319.11,984.54L319,983.15L319.61,983.28L321.28,980.79L327.1,968.71L326.37,964.57L325.71,965.05L323.9,962.58L323.94,964.12L323.72,962.85L324.82,954.96L323.5,942.63L321.48,940.02L321.09,937.84L314.84,930.67L318.23,924.49L317.74,921.02L312.37,915.22L315.76,909.24L316.89,904.86L316.64,902.17L315.24,899.19L316.18,896.56L315.28,895.02L317.83,889.33L323.61,884.16L329.47,875.67L332.84,868.1L332.65,863L328.9,855.42L330.4,855.09L329.95,857.16L333.32,862.27L334.03,866.87L336.94,864.01L337.85,858.17L337.52,857.08L334.4,855.17L332.84,855.32L332.58,851.6L326.5,848.31L320.31,847.79L317.43,849.98L316.35,845.95L313.72,843.27L311.72,842.56L301.57,843.84L300.32,843.41L296.38,829.56L292.34,824.09L293.25,823.05L293.26,819.14L290.31,818.48L285.4,819.05L275.39,817.7L275.73,815.01L280.46,802.96L281.12,799.11L280.71,792.77L279.51,790.56L281.52,789.49L279.5,790.53L278.74,788.35L278.12,788.4L278.87,788.28L278.47,787.58L276.54,786.82L272.71,774.75L272.91,765.8L270.86,760.94L269.33,760.08L268.51,758.47L269.77,753.75L269.44,748.05L266.05,743.65L259.01,740.07L250.35,736.92L246,732.56L245.46,730.54L247.13,721.56L247.08,717.82L247.59,717.08L247.36,718.69L248.22,719.74L247.74,720.57L248.48,720.91L252,714.96L258.44,717.84L261.22,718.05L262.61,718.98L264.43,718.44L265.45,720.03L270.7,721.67L274.35,720.48L277.58,722.88L279.48,726.57L281.64,727.05L281.01,729.45L284.62,733.13L289.1,734.01L293.78,730.54L297.9,730.92L297.1,732.43L298.2,732.3L299.16,734.19L300.61,733.85L300.96,732.71L303.26,734.51L305.32,734.3L305.27,732.53L300.86,728.74L295.16,727.68L294.08,728.28L293.57,727.26L294.24,723.9L292.16,716.41L290.54,714.17L290.6,715.36L289.34,714.35L288.43,711.38L285.84,709.51L284.51,707.43L286.05,703.22L289.05,701.23L295.56,698.24L297.26,698.13L298.51,699.89L300.88,689.27L307.43,683.44L309.17,684L311.5,683.28L317.28,683.31L324.12,680.74L327.98,680.25L338,683.2L341.42,683.12L343.66,684.57L349.9,685.34L351.83,684.93L352.22,683.79L356.61,685.06L364.51,681.58L365.24,680.38L364.83,679.14L365.55,678.9L367.4,681.1L367.52,683.24L368.39,683.92L375.47,686.54L373.75,685.77L370.3,682.05L371.24,680.59L370.88,677.57L369.85,676.89L370.89,676.3L370.14,673.63L371.78,672.3L374.66,673.61L377.26,676.2L373.51,670.54L377.27,667.46L378.12,663.32L380.2,661.88L382.93,662.43L381.34,660.92L381.65,659.99L385.84,658.33L383.18,656.75L382.96,655.29L384.08,652.76L380.48,648.64L382.24,647.21L381.05,644.84L382.33,644.18L381.74,643.22L384.16,643.26L384.54,644.47L385.2,644.29L384.37,640.91L388.27,638.47L388.78,634.86L390.41,633.67L390.46,631.88L393.74,629.36L397.31,629.69L392.79,623.51L395.1,619.18L394.26,618.94L394.13,617.72L395.74,617.02L396.74,618.7L397.33,618.44L396.01,616.66L393.95,615.92L395.66,613.87L395.6,609.61L394.48,607.61L390.84,608.32L391.47,606.13L392.25,606.79L392.64,604.81L390.7,604.48L384.57,610.84L385.09,609.91L384.16,607.09L384.85,604.96L381.73,604.75L382.21,602.18L379.86,600.82L382.17,599.34L382.99,597.69L381.65,593.93L382.46,593.03L379.75,592.91L379.23,590.82L378.39,591.98L379.24,595.34L376.72,595.01L374.52,595.67L374.14,597.94L370.48,599.66L370.84,596.53L369.61,595.96L367.41,600.93L365.27,601.46L359.14,597.86L359.16,598.49L357.44,598.65L348.44,592.05L344.27,591.13L341.77,589.35L340.72,589.86L340.1,587.61L339.25,588.13L339.11,587.01L338.41,587.04L338.36,588.94L338.19,588.11L337.29,589.01L337.5,587.62L335.07,589.58L333.69,589.73L335.67,586.75L336.29,587.9L337.66,587.12L335.97,586.41L338.16,586.55L336.88,585.44L337.99,585.68L338.15,584.68L337.01,584.38L335.87,585.26L337.16,583.42L333.49,580.26L329.06,578.68L326.73,578.9L319.98,577.47L317.41,578.94L316.93,580.1L315.69,580.28L311.62,579.33L310.66,577.74L308.34,576.8L305.17,577.84L304.26,576.29L300.63,580.63L299.36,581.09L298.63,580.23L299.68,577.55L298.9,576.8L296.28,578.16L292.43,583.23L291.6,581.97L289.45,582.12L288.48,578.18L285.04,581.72L284.54,583.2L283.25,583.07L283.71,580.69L282.11,580.88L276.62,586.42L277.68,582.92L277.33,581.88L276.52,581.87L267.06,589.11L266.69,590.05L268.27,588.73L266.85,591.13L263.47,590.34L261.84,591.11L259.96,593.24L259.93,595.05L257.15,596.05L257.74,596.28L257.22,597.04L258.65,597.5L258.62,598.61L257.19,599.78L256.55,597.51L254.96,598.4L256.32,599.66L255.37,601.04L255.85,602.11L255.28,603.22L251.33,600.56L250.87,601.83L254.92,604.72L255.63,607.1L252.32,613.55L250.63,613.25L249.63,611.54L250.28,611.8L249.67,609.04L250.62,608.11L250.27,606.57L249.47,606.98L250.28,605.39L248.31,603.66L249.04,602.63L248.23,601.38L246.74,600.96L245.95,604.61L248.97,610.72L248.54,611.03L246.76,609.53L245.54,609.87L244.26,607.07L239.27,601.23L238.21,600.52L236.73,601.04L240.14,606.1L237.45,603.21L237.05,604.56L239.01,605.53L239.48,608.21L240.19,608.79L240.43,607.74L242.24,607.74L242.64,608.42L242.13,609.98L241.16,609.81L241.17,611.21L240.78,610.01L239.38,610.82L238.68,610.16L237.73,607.11L236.08,606.08L234.54,606.19L235.26,605.38L233.47,604.31L232.1,601.08L231.37,601.35L231.34,603.75L232.84,605.59L230.61,603.75L227.23,598.46L227.33,602.43L228.08,603.84L228.55,603.37L229.47,604.02L228.88,605.79L231.08,608.61L229.71,612.43L228.92,611.53L229.29,610.91L227.67,609.77L226.31,610.3L228.35,616.71L226.04,613.82L224.53,616.5L225.12,618.49L222.87,620.37L220.51,617.99L219.83,615.31L218.87,614.87L218.14,610.91L216.94,611.29L216.63,610.58L214.01,620.04L214.15,624.75L213.86,622.44L211.15,618.11L210.09,618.5L208.97,622.3L206.46,622.08L206.38,624.33L205.18,625.99L203.9,625.61L203.95,622.46L202.58,622.68L202.3,621.34L200.43,622.14L201.32,622.54L202.02,624.71L200.41,626.52L201.16,628.64L199.62,629.37L198.84,630.21L198.98,631.46L197.92,631.93L198.57,633.66L196.31,638.58L194.56,638.86L189.9,637.16L190.13,632.33L187.91,632.77L187.85,635.31L186.81,635.8L186.87,638.14L183.4,636.34L181.47,636.59L179.93,633.83L179.26,629.1L177.84,629.91L176.3,628.59L176.94,629.56L175.91,629.19L174.85,631.21L174.36,630.53L172.72,630.85L171.67,629.71L169.33,632.91L170.73,634.64L170.06,635.7L170.41,637.21L169.13,638.23L169.41,642.77L170.98,643.44L170.29,644.88L168.25,645.82L167.31,645.84L167.53,644.71L166.6,643.43L167.98,641.17L166.94,640.29L169.31,635.77L169.03,633.54L167.4,633.71L168.08,629.38L170.49,627.74L170.29,627.18L169.44,627.64L169.74,624.94L168.82,624.75L168.72,626.99L168.23,625.66L168.16,627.42L167.02,629.17L166.68,628.41L165.23,629.94L164.99,626.57L163.86,626.89L163.68,624.99L161.58,624.81L161.42,624.15L159.51,626.74L159.36,625.25L160.08,624.7L159.76,624.18L159.1,624.91L159.21,626.19L158,627.14L157.98,628.18L160.75,629.68L159.95,630.24L159.79,633.56L158.13,638.9L156.23,637.79L155.89,630.88L154.84,632.02L154.34,631.59L155.48,627.88L154.18,629.13L154.95,627.45L153.25,627.01L152.57,631.74L153.22,633.71L152.22,640.04L151.34,641.42L151.62,640.54L150.76,640.18L151.69,639.26L150.69,639.68L150.64,638.03L151.26,638.64L151.91,637.68L151.02,638.02L150.58,637.34L151.86,637.18L152,636.38L151.08,636.81L151.53,636.46L150.67,635.27L152,635.03L150.74,634.63L150.87,633.79L151.9,634.13L152.12,633.4L150.38,633.48L151.24,633.12L150.89,632.58L151.8,632.68L151.34,631.39L152.1,630.39L151.33,630.78L151.2,629.98L152.37,628.97L151.46,629.23L152.1,628.79L151.22,628.13L150.84,625.44L149.35,624.59L150.37,629.06L149.34,630.52L148.22,628.98L149.45,631.02L148.4,631.42L148.78,632.08L146.97,636.67L146.26,636.76L146.67,635.4L145.92,635.55L146.06,634.35L144.25,638.68L142.82,640L143.03,637.61L141.54,638.74L141.11,636.76L139.07,640.13L139.94,638.03L139.12,638.75L137.86,642.94L137.02,641.07L134.35,648.53L133.01,650.07L132.14,654.99L131.49,655.24L131.35,650.63L130.11,654.73L127.66,656.06L125.09,660.08L123.39,660.88L122.35,664.12L121.12,664.23L121.65,665.31L119.15,663.98L121.63,665.33L121.08,665.08L119.61,668.33L119.19,669.89L120.05,670.73L119.01,672.3L117.63,671.27L116.33,672.59L114.65,677.27L113.72,677.71L111.75,675.42L110.39,670.84L106.57,673.21L106.96,673.95L108.49,673.4L109.95,674.9L110.52,678.07L109.5,679.37L107.12,678.66L105.55,676.5L103.65,678.25L100.81,676.71L99.44,678.93L98.09,678.71L97.62,680.38L98.84,681.41L98.5,684.19L99.22,688.09L94.27,687.29L91.88,685.07L91.74,687.23L92.86,687.27L93.12,688.12L92.5,689.06L98.44,689.48L99.31,691.48L99.11,694.29L102.48,697.67L102.4,702.71L103.75,707.16L105.19,708.45L107.06,707.36L108.91,708.61L109.32,717.3L111.85,724.47L112.42,732.24L113.91,732.87L112.8,735.51L113.31,736.63L114.19,737.37L115.86,736.27L116.18,737.76L117.42,734.45L119.9,733.06L122.99,732.93L123.74,732.21L126.06,732.51L127.01,733.43L120.67,738.75L118.01,742.08L113.89,749.14L114.1,751.83L112.58,752.27L110.27,755.53L107.31,762.37L108.44,766.48L106.77,763.72L105.76,767.28L105.73,769.13L106.39,769.32L108.44,766.56L108.12,770.88L103.14,777.24L100.11,784.96L100.18,786.98L101.52,788.11L101.41,787.29L103.96,790.8L106.13,795.58L107.31,795.84L106.44,796.38L107.42,795.73L107.19,796.56L108.32,797.5L106.73,810.51L108.58,815.1L111.28,816.23L112.44,817.67L112.57,821.59L114.65,829.58L118.37,836.14L121.6,849.2L123.66,851.76L124.81,862.6L126.57,864.84L129.86,866.12L135.5,874.45L148.72,906.29L150.02,912.07L149.63,924.29L150.67,930.78L157.05,942.58L160.9,944.78L162.98,948.48L161.51,950.07L162.82,948.68L161.95,947.24L161.92,949.07L160.31,951.35L160.68,957.69L163.94,960L166.28,960.23L167.2,963.02L171.8,964.64L14.95,925.66L264.08,8L1735.92,8L1985.05,925.66L314.5,993.98Z" fill-rule="evenodd" fill="#4682b4" fill-opacity="0.471"/>
<polyline points="314.5,993.98 319.35,988 319.85,985.75 319.27,985 318.47,985.27 318.59,984.07 319.11,984.54 319,983.15 319.61,983.28 321.28,980.79 327.1,968.71 326.37,964.57 325.71,965.05 323.9,962.58 323.94,964.12 323.72,962.85 324.82,954.96 323.5,942.63 321.48,940.02 321.09,937.84 314.84,930.67 318.23,924.49 317.74,921.02 312.37,915.22 315.76,909.24 316.89,904.86 316.64,902.17 315.24,899.19 316.18,896.56 315.28,895.02 317.83,889.33 323.61,884.16 329.47,875.67 332.84,868.1 332.65,863 328.9,855.42 330.4,855.09 329.95,857.16 333.32,862.27 334.03,866.87 336.94,864.01 337.85,858.17 337.52,857.08 334.4,855.17 332.84,855.32 332.58,851.6 326.5,848.31 320.31,847.79 317.43,849.98 316.35,845.95 313.72,843.27 311.72,842.56 301.57,843.84 300.32,843.41 296.38,829.56 292.34,824.09 293.25,823.05 293.26,819.14 290.31,818.48 285.4,819.05 275.39,817.7 275.73,815.01 280.46,802.96 281.12,799.11 280.71,792.77 279.51,790.56 281.52,789.49 279.5,790.53 278.74,788.35 278.12,788.4 278.87,788.28 278.47,787.58 276.54,786.82 272.71,774.75 272.91,765.8 270.86,760.94 269.33,760.08 268.51,758.47 269.77,753.75 269.44,748.05 266.05,743.65 259.01,740.07 250.35,736.92 246,732.56 245.46,730.54 247.13,721.56 247.08,717.82 247.59,717.08 247.36,718.69 248.22,719.74 247.74,720.57 248.48,720.91 252,714.96 258.44,717.84 261.22,718.05 262.61,718.98 264.43,718.44 265.45,720.03 270.7,721.67 274.35,720.48 277.58,722.88 279.48,726.57 281.64,727.05 281.01,729.45 284.62,733.13 289.1,734.01 293.78,730.54 297.9,730.92 297.1,732.43 298.2,732.3 299.16,734.19 300.61,733.85 300.96,732.71 303.26,734.51 305.32,734.3 305.27,732.53 300.86,728.74 295.16,727.68 294.08,728.28 293.57,727.26 294.24,723.9 292.16,716.41 290.54,714.17 290.6,715.36 289.34,714.35 288.43,711.38 285.84,709.51 284.51,707.43 286.05,703.22 289.05,701.23 295.56,698.24 297.26,698.13 298.51,699.89 300.88,689.27 307.43,683.44 309.17,684 311.5,683.28 317.28,683.31 324.12,680.74 327.98,680.25 338,683.2 341.42,683.12 343.66,684.57 349.9,685.34 351.83,684.93 352.22,683.79 356.61,685.06 364.51,681.58 365.24,680.38 364.83,679.14 365.55,678.9 367.4,681.1 367.52,683.24 368.39,683.92 375.47,686.54 373.75,685.77 370.3,682.05 371.24,680.59 370.88,677.57 369.85,676.89 370.89,676.3 370.14,673.63 371.78,672.3 374.66,673.61 377.26,676.2 373.51,670.54 377.27,667.46 378.12,663.32 380.2,661.88 382.93,662.43 381.34,660.92 381.65,659.99 385.84,658.33 383.18,656.75 382.96,655.29 384.08,652.76 380.48,648.64 382.24,647.21 381.05,644.84 382.33,644.18 381.74,643.22 384.16,643.26 384.54,644.47 385.2,644.29 384.37,640.91 388.27,638.47 388.78,634.86 390.41,633.67 390.46,631.88 393.74,629.36 397.31,629.69 392.79,623.51 395.1,619.18 394.26,618.94 394.13,617.72 395.74,617.02 396.74,618.7 397.33,618.44 396.01,616.66 393.95,615.92 395.66,613.87 395.6,609.61 394.48,607.61 390.84,608.32 391.47,606.13 392.25,606.79 392.64,604.81 390.7,604.48 384.57,610.84 385.09,609.91 384.16,607.09 384.85,604.96 381.73,604.75 382.21,602.18 379.86,600.82 382.17,599.34 382.99,597.69 381.65,593.93 382.46,593.03 379.75,592.91 379.23,590.82 378.39,591.98 379.24,595.34 376.72,595.01 374.52,595.67 374.14,597.94 370.48,599.66 370.84,596.53 369.61,595.96 367.41,600.93 365.27,601.46 359.14,597.86 359.16,598.49 357.44,598.65 348.44,592.05 344.27,591.13 341.77,589.35 340.72,589.86 340.1,587.61 339.25,588.13 339.11,587.01 338.41,587.04 338.36,588.94 338.19,588.11 337.29,589.01 337.5,587.62 335.07,589.58 333.69,589.73 335.67,586.75 336.29,587.9 337.66,587.12 335.97,586.41 338.16,586.55 336.88,585.44 337.99,585.68 338.15,584.68 337.01,584.38 335.87,585.26 337.16,583.42 333.49,580.26 329.06,578.68 326.73,578.9 319.98,577.47 317.41,578.94 316.93,580.1 315.69,580.28 311.62,579.33 310.66,577.74 308.34,576.8 305.17,577.84 304.26,576.29 300.63,580.63 299.36,581.09 298.63,580.23 299.68,577.55 298.9,576.8 296.28,578.16 292.43,583.23 291.6,581.97 289.45,582.12 288.48,578.18 285.04,581.72 284.54,583.2 283.25,583.07 283.71,580.69 282.11,580.88 276.62,586.42 277.68,582.92 277.33,581.88 276.52,581.87 267.06,589.11 266.69,590.05 268.27,588.73 266.85,591.13 263.47,590.34 261.84,591.11 259.96,593.24 259.93,595.05 257.15,596.05 257.74,596.28 257.22,597.04 258.65,597.5 258.62,598.61 257.19,599.78 256.55,597.51 254.96,598.4 256.32,599.66 255.37,601.04 255.85,602.11 255.28,603.22 251.33,600.56 250.87,601.83 254.92,604.72 255.63,607.1 252.32,613.55 250.63,613.25 249.63,611.54 250.28,611.8 249.67,609.04 250.62,608.11 250.27,606.57 249.47,606.98 250.28,605.39 248.31,603.66 249.04,602.63 248.23,601.38 246.74,600.96 245.95,604.61 248.97,610.72 248.54,611.03 246.76,609.53 245.54,609.87 244.26,607.07 239.27,601.23 238.21,600.52 236.73,601.04 240.14,606.1 237.45,603.21 237.05,604.56 239.01,605.53 239.48,608.21 240.19,608.79 240.43,607.74 242.24,607.74 242.64,608.42 242.13,609.98 241.16,609.81 241.17,611.21 240.78,610.01 239.38,610.82 238.68,610.16 237.73,607.11 236.08,606.08 234.54,606.19 235.26,605.38 233.47,604.31 232.1,601.08 231.37,601.35 231.34,603.75 232.84,605.59 230.61,603.75 227.23,598.46 227.33,602.43 228.08,603.84 228.55,603.37 229.47,604.02 228.88,605.79 231.08,608.61 229.71,612.43 228.92,611.53 229.29,610.91 227.67,609.77 226.31,610.3 228.35,616.71 226.04,613.82 224.53,616.5 225.12,618.49 222.87,620.37 220.51,617.99 219.83,615.31 218.87,614.87 218.14,610.91 216.94,611.29 216.63,610.58 214.01,620.04 214.15,624.75 213.86,622.44 211.15,618.11 210.09,618.5 208.97,622.3 206.46,622.08 206.38,624.33 205.18,625.99 203.9,625.61 203.95,622.46 202.58,622.68 202.3,621.34 200.43,622.14 201.32,622.54 202.02,624.71 200.41,626.52 201.16,628.64 199.62,629.37 198.84,630.21 198.98,631.46 197.92,631.93 198.57,633.66 196.31,638.58 194.56,638.86 189.9,637.16 190.13,632.33 187.91,632.77 187.85,635.31 186.81,635.8 186.87,638.14 183.4,636.34 181.47,636.59 179.93,633.83 179.26,629.1 177.84,629.91 176.3,628.59 176.94,629.56 175.91,629.19 174.85,631.21 174.36,630.53 172.72,630.85 171.67,629.71 169.33,632.91 170.73,634.64 170.06,635.7 170.41,637.21 169.13,638.23 169.41,642.77 170.98,643.44 170.29,644.88 168.25,645.82 167.31,645.84 167.53,644.71 166.6,643.43 167.98,641.17 166.94,640.29 169.31,635.77 169.03,633.54 167.4,633.71 168.08,629.38 170.49,627.74 170.29,627.18 169.44,627.64 169.74,624.94 168.82,624.75 168.72,626.99 168.23,625.66 168.16,627.42 167.02,629.17 166.68,628.41 165.23,629.94 164.99,626.57 163.86,626.89 163.68,624.99 161.58,624.81 161.42,624.15 159.51,626.74 159.36,625.25 160.08,624.7 159.76,624.18 159.1,624.91 159.21,626.19 158,627.14 157.98,628.18 160.75,629.68 159.95,630.24 159.79,633.56 158.13,638.9 156.23,637.79 155.89,630.88 154.84,632.02 154.34,631.59 155.48,627.88 154.18,629.13 154.95,627.45 153.25,627.01 152.57,631.74 153.22,633.71 152.22,640.04 151.34,641.42 151.62,640.54 150.76,640.18 151.69,639.26 150.69,639.68 150.64,638.03 151.26,638.64 151.91,637.68 151.02,638.02 150.58,637.34 151.86,637.18 152,636.38 151.08,636.81 151.53,636.46 150.67,635.27 152,635.03 150.74,634.63 150.87,633.79 151.9,634.13 152.12,633.4 150.38,633.48 151.24,633.12 150.89,632.58 151.8,632.68 151.34,631.39 152.1,630.39 151.33,630.78 151.2,629.98 152.37,628.97 151.46,629.23 152.1,628.79 151.22,628.13 150.84,625.44 149.35,624.59 150.37,629.06 149.34,630.52 148.22,628.98 149.45,631.02 148.4,631.42 148.78,632.08 146.97,636.67 146.26,636.76 146.67,635.4 145.92,635.55 146.06,634.35 144.25,638.68 142.82,640 143.03,637.61 141.54,638.74 141.11,636.76 139.07,640.13 139.94,638.03 139.12,638.75 137.86,642.94 137.02,641.07 134.35,648.53 133.01,650.07 132.14,654.99 131.49,655.24 131.35,650.63 130.11,654.73 127.66,656.06 125.09,660.08 123.39,660.88 122.35,664.12 121.12,664.23 121.65,665.31 119.15,663.98 121.63,665.33 121.08,665.08 119.61,668.33 119.19,669.89 120.05,670.73 119.01,672.3 117.63,671.27 116.33,672.59 114.65,677.27 113.72,677.71 111.75,675.42 110.39,670.84 106.57,673.21 106.96,673.95 108.49,673.4 109.95,674.9 110.52,678.07 109.5,679.37 107.12,678.66 105.55,676.5 103.65,678.25 100.81,676.71 99.44,678.93 98.09,678.71 97.62,680.38 98.84,681.41 98.5,684.19 99.22,688.09 94.27,687.29 91.88,685.07 91.74,687.23 92.86,687.27 93.12,688.12 92.5,689.06 98.44,689.48 99.31,691.48 99.11,694.29 102.48,697.67 102.4,702.71 103.75,707.16 105.19,708.45 107.06,707.36 108.91,708.61 109.32,717.3 111.85,724.47 112.42,732.24 113.91,732.87 112.8,735.51 113.31,736.63 114.19,737.37 115.86,736.27 116.18,737.76 117.42,734.45 119.9,733.06 122.99,732.93 123.74,732.21 126.06,732.51 127.01,733.43 120.67,738.75 118.01,742.08 113.89,749.14 114.1,751.83 112.58,752.27 110.27,755.53 107.31,762.37 108.44,766.48 106.77,763.72 105.76,767.28 105.73,769.13 106.39,769.32 108.44,766.56 108.12,770.88 103.14,777.24 100.11,784.96 100.18,786.98 101.52,788.11 101.41,787.29 103.96,790.8 106.13,795.58 107.31,795.84 106.44,796.38 107.42,795.73 107.19,796.56 108.32,797.5 106.73,810.51 108.58,815.1 111.28,816.23 112.44,817.67 112.57,821.59 114.65,829.58 118.37,836.14 121.6,849.2 123.66,851.76 124.81,862.6 126.57,864.84 129.86,866.12 135.5,874.45 148.72,906.29 150.02,912.07 149.63,924.29 150.67,930.78 157.05,942.58 160.9,944.78 162.98,948.48 161.51,950.07 162.82,948.68 161.95,947.24 161.92,949.07 160.31,951.35 160.68,957.69 163.94,960 166.28,960.23 167.2,963.02 171.8,964.64 14.95,925.66 264.08,8 1735.92,8 1985.05,925.66 314.5,993.98" fill="none" stroke="#1e1e1e" stroke-width="0.81" stroke-linecap="round" stroke-linejoin="round"/>
<path d="M173.18,964.96L179.92,964.7L181.77,965.79L184.77,965.72L184.84,967.57L173.18,964.96Z" fill-rule="evenodd" fill="#4682b4" fill-opacity="0.471"/>
<polyline points="173.18,964.96 179.92,964.7 181.77,965.79 184.77,965.72 184.84,967.57 173.18,964.96" fill="none" stroke="#1e1e1e" stroke-width="0.81" stroke-linecap="round" stroke-linejoin="round"/>
<path d="M178.14,964.86L177.56,964.72L178.14,964.86Z" fill-rule="evenodd" fill="#4682b4" fill-opacity="0.471"/>
<polyline points="178.14,964.86 177.56,964.72 178.14,964.86" fill="none" stroke="#1e1e1e" stroke-width="0.81" stroke-linecap="round" stroke-linejoin="round"/>
<path d="M143.83,658.06L143.18,659.7L143.83,658.06Z" fill-rule="evenodd" fill="#4682b4" fill-opacity="0.471"/>
<polyline points="143.83,658.06 143.18,659.7 143.83,658.06" fill="none" stroke="#1e1e1e" stroke-width="0.81" stroke-linecap="round" stroke-linejoin="round"/>
<path d="M143.26,659.78L143.15,660.58L143.26,659.78Z" fill-rule="evenodd" fill="#4682b4" fill-opacity="0.471"/>
<polyline points="143.26,659.78 143.15,660.58 143.26,659.78" fill="none" stroke="#1e1e1e" stroke-width="0.81" stroke-linecap="round" stroke-linejoin="round"/>
<path d="M145.92,653.44L145.36,653.1L145.92,653.44Z" fill-rule="evenodd" fill="#4682b4" fill-opacity="0.471"/>
<polyline points="145.92,653.44 145.36,653.1 145.92,653.44" fill="none" stroke="#1e1e1e" stroke-width="0.81" stroke-linecap="round" stroke-linejoin="round"/>
<path d="M146.11,653.71L146.82,653.83L146.16,654.26L146.11,653.71Z" fill-rule="evenodd" fill="#4682b4" fill-opacity="0.471"/>
<polyline points="146.11,653.71 146.82,653.83 146.16,654.26 146.11,653.71" fill="none" stroke="#1e1e1e" stroke-width="0.81" stroke-linecap="round" stroke-linejoin="round"/>
<path d="M145,655.82L145.54,656.02L145,655.82Z" fill-rule="evenodd" fill="#4682b4" fill-opacity="0.471"/>
<polyline points="145,655.82 145.54,656.02 145,655.82" fill="none" stroke="#1e1e1e" stroke-width="0.81" stroke-linecap="round" stroke-linejoin="round"/>
<path d="M144.02,657.37L144.08,656.5L144.02,657.37Z" fill-rule="evenodd" fill="#4682b4" fill-opacity="0.471"/>
<polyline points="144.02,657.37 144.08,656.5 144.02,657.37" fill="none" stroke="#1e1e1e" stroke-width="0.81" stroke-linecap="round" stroke-linejoin="round"/>
<path d="M143.1,659L143.46,658.39L143.1,659Z" fill-rule="evenodd" fill="#4682b4" fill-opacity="0.471"/>
<polyline points="143.1,659 143.46,658.39 143.1,659" fill="none" stroke="#1e1e1e" stroke-width="0.81" stroke-linecap="round" stroke-linejoin="round"/>
</svg>
