<?xml version="1.0" encoding="UTF-8" standalone="no"?>
<svg xmlns="http://www.w3.org/2000/svg" width="2000" height="1065" viewBox="0 0 2000 1065">
<rect width="2000" height="1065" fill="#ffffff"/>
<path d="M1531.47,637.84L1529.41,641.84L1525.14,645.23L1518.18,644.3L1514.39,646.34L1510.07,644.92L1506.16,645.74L1504.83,648.2L1505.18,649.4L1507.86,650.8L1507.85,652.45L1506.59,653.1L1504.94,652.85L1502.88,650.28L1500.05,649.26L1498.91,649.94L1499.54,650.24L1498.38,651.52L1491.55,651.86L1494.95,652.25L1494.31,653.31L1488.9,653.31L1480.5,648.02L1477.78,647.57L1475.65,649.37L1477.38,648.58L1479.2,648.87L1475.93,650.17L1474.1,652.17L1473.24,651.86L1474.82,649.89L1468.54,650.11L1463.39,648.19L1459.8,645.75L1457.8,646.48L1453.39,650.16L1449.9,648.53L1445.55,651.31L1439.03,650.31L1439.15,651.66L1438.48,651.71L1430.88,647.89L1415.37,649.32L1410.02,647.52L1409.28,647.95L1410.3,648.69L1409.06,648.45L1409.27,649.78L1407.05,649.52L1407.48,650.83L1406.85,651.23L1400.71,650.68L1401.72,652.49L1401.32,653.24L1395.79,653.9L1396.9,652.93L1396.43,652.21L1392.53,651.63L1392.06,653.07L1388.61,654.73L1387.87,653.78L1385.51,653.52L1383.98,656.67L1382.83,655.89L1378.42,658.19L1380.17,655.1L1377.07,652.82L1374.4,648.62L1375.86,646.16L1376.36,648.4L1377.15,648.69L1378.14,648.37L1378.73,647.59L1378.28,646.83L1379.17,646.22L1377.6,645.05L1374.44,645.63L1371.39,649L1374,655.2L1375.48,656.23L1373.8,657.13L1373.87,658.2L1372.84,657.01L1371.95,659.21L1370.44,659.94L1370.62,659.05L1369.34,658L1369.97,655.78L1366.7,655.74L1365.88,657.1L1367.18,658.07L1365.49,659.12L1367.16,660.83L1365.23,662.99L1362.46,663.49L1361.34,662.8L1361.12,663.64L1358.86,662.46L1361.25,659.19L1360.56,658.37L1358.27,661.03L1356.2,665.86L1354.28,666.2L1351.39,664.69L1350.86,665.46L1349.88,674.3L1347.38,679.45L1348.88,682.65L1347.04,685.69L1344.76,687.26L1343.9,686.26L1342.4,686.94L1341.33,688.52L1341.69,690.2L1338.22,691.79L1337.05,693.46L1332.46,690.74L1326.68,692.6L1324.28,694.74L1324.91,697.49L1329.59,707.02L1328.17,709.44L1327.2,708.15L1326.21,708.27L1325.8,711.06L1326.96,711.65L1327.82,710.87L1330.27,712.54L1330.95,714.11L1330.33,715.21L1326.94,714.07L1328.08,716.07L1327.7,718.81L1323.55,720.94L1320,725.12L1321.44,727.79L1320.49,731.13L1321.74,734.31L1321.06,735.98L1323.01,737.4L1324.42,736.69L1324.92,735.34L1325.5,737.56L1324.93,744.9L1325.75,749.39L1327.15,752.24L1325.8,753.96L1322.75,755.51L1323.38,756.81L1325.58,755.49L1324.87,757.74L1326.26,758.9L1326.2,760.24L1324.33,758.68L1319.96,758.63L1320.23,757.78L1319.2,757.01L1321.17,754.99L1318.74,751.86L1318.8,749.8L1320.65,749.34L1317.89,746.11L1318.75,744.78L1313.92,744.92L1309.86,741.4L1310.21,739.75L1305.65,737.1L1307.14,736.54L1304.04,734.53L1300.69,728.11L1296.03,724.95L1292.26,724.28L1290.74,722.18L1290.91,717.76L1293.97,717.55L1294.31,713.88L1295.92,712.59L1290.62,710.99L1289.69,710.23L1289.99,709.05L1292.22,706.71L1293.95,708.71L1296.25,708.74L1296.79,705L1297.57,704.46L1297.13,703.18L1298.88,702.19L1298.37,699.98L1299.7,697.97L1298.81,697.52L1301.1,696.27L1300.92,697.56L1303.35,697.35L1302.52,696.93L1301.81,694.37L1297.73,691.76L1298.34,689.01L1297.01,687.62L1297.97,686.97L1298.37,684.9L1301.27,684.37L1301.32,682.84L1302.5,681.23L1305.61,685.34L1306.17,683.37L1307.48,682.46L1309.72,682.33L1311.75,683.35L1312.96,682.88L1314.85,680.08L1314.06,680.8L1312.48,680.55L1312.31,678.15L1310.76,678.67L1309.63,676.19L1311.33,674.55L1310.89,673.4L1314.63,668.3L1317.27,666.39L1320.29,666.84L1322.13,663.99L1327.64,661.72L1328.14,657.54L1333.8,654.82L1334.5,645.65L1335.16,645L1337.38,645.1L1336.04,643.35L1346.37,642.29L1347.67,639.05L1350.42,639.85L1351.78,637.73L1352.51,639.46L1351.48,640.44L1352.88,641.63L1355.7,638.86L1355.27,636.98L1356.08,636.31L1357.51,639.76L1365.69,643.52L1374.45,641.72L1382.5,637L1383.74,637.33L1386.14,636.18L1388.5,636.78L1392.59,633.16L1394.32,633.86L1393.43,634.67L1394.39,636.27L1394.17,637.43L1396.46,636.65L1398.03,634.86L1399.58,635.79L1400.46,634.25L1402.55,634.11L1412.33,636.96L1414.24,642.68L1414.84,641.55L1419.7,643.99L1420.98,640.9L1422.99,639.7L1426.75,639.84L1428.36,638.48L1428.34,640.7L1429.12,641.75L1438.63,645.1L1433.4,639.84L1432.83,637.91L1433.41,637.38L1437.34,640.35L1441.55,639.15L1443.53,639.61L1445.4,640.97L1447.99,644.7L1451.35,643.52L1452.55,640.62L1454.28,639.3L1460.84,636.85L1467.71,636.56L1468.86,635.73L1467.29,635.02L1468.05,634.05L1469.65,634.73L1471.3,633.59L1473.97,634.59L1479.37,633.23L1487.07,636.03L1490.91,634.84L1492.79,637.56L1493.48,638.05L1494.29,637.34L1495.07,638.19L1496.83,642.24L1499.27,643.24L1500.06,642.12L1499.59,640.27L1501.06,638.09L1499.72,635.43L1499.63,628.57L1500.82,630.39L1500.85,632.83L1501.92,633.37L1502.1,629.79L1503.71,628.45L1502.99,630.76L1504.27,633.21L1505.36,630.93L1505.28,628.84L1508.23,625.12L1508.69,623.04L1513.11,623.44L1515.39,622.62L1517.8,624.22L1519.34,626.96L1519.61,628.21L1518.64,629.67L1524.2,628.27L1523.81,626.87L1520.48,625.87L1516.36,621.91L1516.48,619.47L1520.94,617.38L1525.78,620.3L1527.76,620.28L1526.52,616.16L1527,615.49L1530.79,615.21L1536.21,619.51L1538.38,623.9L1537.4,627.84L1535.63,627.57L1531.16,629.51L1531.47,637.84Z" fill-rule="evenodd" fill="#4682b4" fill-opacity="0.471"/>
<polyline points="1531.47,637.84 1529.41,641.84 1525.14,645.23 1518.18,644.3 1514.39,646.34 1510.07,644.92 1506.16,645.74 1504.83,648.2 1505.18,649.4 1507.86,650.8 1507.85,652.45 1506.59,653.1 1504.94,652.85 1502.88,650.28 1500.05,649.26 1498.91,649.94 1499.54,650.24 1498.38,651.52 1491.55,651.86 1494.95,652.25 1494.31,653.31 1488.9,653.31 1480.5,648.02 1477.78,647.57 1475.65,649.37 1477.38,648.58 1479.2,648.87 1475.93,650.17 1474.1,652.17 1473.24,651.86 1474.82,649.89 1468.54,650.11 1463.39,648.19 1459.8,645.75 1457.8,646.48 1453.39,650.16 1449.9,648.53 1445.55,651.31 1439.03,650.31 1439.15,651.66 1438.48,651.71 1430.88,647.89 1415.37,649.32 1410.02,647.52 1409.28,647.95 1410.3,648.69 1409.06,648.45 1409.27,649.78 1407.05,649.52 1407.48,650.83 1406.85,651.23 1400.71,650.68 1401.72,652.49 1401.32,653.24 1395.79,653.9 1396.9,652.93 1396.43,652.21 1392.53,651.63 1392.06,653.07 1388.61,654.73 1387.87,653.78 1385.51,653.52 1383.98,656.67 1382.83,655.89 1378.42,658.19 1380.17,655.1 1377.07,652.82 1374.4,648.62 1375.86,646.16 1376.36,648.4 1377.15,648.69 1378.14,648.37 1378.73,647.59 1378.28,646.83 1379.17,646.22 1377.6,645.05 1374.44,645.63 1371.39,649 1374,655.2 1375.48,656.23 1373.8,657.13 1373.87,658.2 1372.84,657.01 1371.95,659.21 1370.44,659.94 1370.62,659.05 1369.34,658 1369.97,655.78 1366.7,655.74 1365.88,657.1 1367.18,658.07 1365.49,659.12 1367.16,660.83 1365.23,662.99 1362.46,663.49 1361.34,662.8 1361.12,663.64 1358.86,662.46 1361.25,659.19 1360.56,658.37 1358.27,661.03 1356.2,665.86 1354.28,666.2 1351.39,664.69 1350.86,665.46 1349.88,674.3 1347.38,679.45 1348.88,682.65 1347.04,685.69 1344.76,687.26 1343.9,686.26 1342.4,686.94 1341.33,688.52 1341.69,690.2 1338.22,691.79 1337.05,693.46 1332.46,690.74 1326.68,692.6 1324.28,694.74 1324.91,697.49 1329.59,707.02 1328.17,709.44 1327.2,708.15 1326.21,708.27 1325.8,711.06 1326.96,711.65 1327.82,710.87 1330.27,712.54 1330.95,714.11 1330.33,715.21 1326.94,714.07 1328.08,716.07 1327.7,718.81 1323.55,720.94 1320,725.12 1321.44,727.79 1320.49,731.13 1321.74,734.31 1321.06,735.98 1323.01,737.4 1324.42,736.69 1324.92,735.34 1325.5,737.56 1324.93,744.9 1325.75,749.39 1327.15,752.24 1325.8,753.96 1322.75,755.51 1323.38,756.81 1325.58,755.49 1324.87,757.74 1326.26,758.9 1326.2,760.24 1324.33,758.68 1319.96,758.63 1320.23,757.78 1319.2,757.01 1321.17,754.99 1318.74,751.86 1318.8,749.8 1320.65,749.34 1317.89,746.11 1318.75,744.78 1313.92,744.92 1309.86,741.4 1310.21,739.75 1305.65,737.1 1307.14,736.54 1304.04,734.53 1300.69,728.11 1296.03,724.95 1292.26,724.28 1290.74,722.18 1290.91,717.76 1293.97,717.55 1294.31,713.88 1295.92,712.59 1290.62,710.99 1289.69,710.23 1289.99,709.05 1292.22,706.71 1293.95,708.71 1296.25,708.74 1296.79,705 1297.57,704.46 1297.13,703.18 1298.88,702.19 1298.37,699.98 1299.7,697.97 1298.81,697.52 1301.1,696.27 1300.92,697.56 1303.35,697.35 1302.52,696.93 1301.81,694.37 1297.73,691.76 1298.34,689.01 1297.01,687.62 1297.97,686.97 1298.37,684.9 1301.27,684.37 1301.32,682.84 1302.5,681.23 1305.61,685.34 1306.17,683.37 1307.48,682.46 1309.72,682.33 1311.75,683.35 1312.96,682.88 1314.85,680.08 1314.06,680.8 1312.48,680.55 1312.31,678.15 1310.76,678.67 1309.63,676.19 1311.33,674.55 1310.89,673.4 1314.63,668.3 1317.27,666.39 1320.29,666.84 1322.13,663.99 1327.64,661.72 1328.14,657.54 1333.8,654.82 1334.5,645.65 1335.16,645 1337.38,645.1 1336.04,643.35 1346.37,642.29 1347.67,639.05 1350.42,639.85 1351.78,637.73 1352.51,639.46 1351.48,640.44 1352.88,641.63 1355.7,638.86 1355.27,636.98 1356.08,636.31 1357.51,639.76 1365.69,643.52 1374.45,641.72 1382.5,637 1383.74,637.33 1386.14,636.18 1388.5,636.78 1392.59,633.16 1394.32,633.86 1393.43,634.67 1394.39,636.27 1394.17,637.43 1396.46,636.65 1398.03,634.86 1399.58,635.79 1400.46,634.25 1402.55,634.11 1412.33,636.96 1414.24,642.68 1414.84,641.55 1419.7,643.99 1420.98,640.9 1422.99,639.7 1426.75,639.84 1428.36,638.48 1428.34,640.7 1429.12,641.75 1438.63,645.1 1433.4,639.84 1432.83,637.91 1433.41,637.38 1437.34,640.35 1441.55,639.15 1443.53,639.61 1445.4,640.97 1447.99,644.7 1451.35,643.52 1452.55,640.62 1454.28,639.3 1460.84,636.85 1467.71,636.56 1468.86,635.73 1467.29,635.02 1468.05,634.05 1469.65,634.73 1471.3,633.59 1473.97,634.59 1479.37,633.23 1487.07,636.03 1490.91,634.84 1492.79,637.56 1493.48,638.05 1494.29,637.34 1495.07,638.19 1496.83,642.24 1499.27,643.24 1500.06,642.12 1499.59,640.27 1501.06,638.09 1499.72,635.43 1499.63,628.57 1500.82,630.39 1500.85,632.83 1501.92,633.37 1502.1,629.79 1503.71,628.45 1502.99,630.76 1504.27,633.21 1505.36,630.93 1505.28,628.84 1508.23,625.12 1508.69,623.04 1513.11,623.44 1515.39,622.62 1517.8,624.22 1519.34,626.96 1519.61,628.21 1518.64,629.67 1524.2,628.27 1523.81,626.87 1520.48,625.87 1516.36,621.91 1516.48,619.47 1520.94,617.38 1525.78,620.3 1527.76,620.28 1526.52,616.16 1527,615.49 1530.79,615.21 1536.21,619.51 1538.38,623.9 1537.4,627.84 1535.63,627.57 1531.16,629.51 1531.47,637.84" fill="none" stroke="#1e1e1e" stroke-width="0.81" stroke-linecap="round" stroke-linejoin="round"/>
<path d="M1363.28,123.85L1362.03,123.14L1364.36,120.48L1364.93,118.15L1368.63,117.29L1373.39,114.09L1376.62,113.68L1378.16,114.48L1377.64,115.3L1375.59,115.04L1376.36,116.17L1382.32,121.78L1384.33,113.99L1382.14,114.69L1382.64,110.39L1385.14,106.91L1392.98,102.83L1394.08,103.27L1393.45,104.27L1396.04,102.59L1395.67,103.52L1396.47,103.85L1395.59,104.85L1398.32,104.88L1400.88,106.35L1401.38,105.38L1403.5,105.06L1405.02,103.47L1407.72,103.94L1410.16,106.16L1410.15,110.23L1409.14,111.28L1404.41,112.42L1400.99,115.58L1400.22,115.77L1400.94,113.89L1399.2,114.18L1397.77,118.88L1393.29,122.66L1393.01,123.5L1394.55,123.32L1396.74,120.27L1396.84,122.93L1399.05,123.93L1399.92,122.93L1400.73,126.56L1400.05,128.43L1401.53,127.63L1401.54,128.91L1403.29,128.66L1401.81,130.17L1398.37,130.23L1396.56,132.74L1394.35,132.57L1394.6,131.39L1393.64,131.33L1395.75,129.72L1394.94,128.4L1392.34,129.34L1388.85,128.24L1388.38,126.75L1386.09,128.38L1385.68,127.56L1385.49,128.77L1384.43,128.53L1383.91,127.8L1385.11,126.71L1389.04,125.77L1387.96,125.34L1381.97,126.9L1380.84,127L1380.87,126L1377.88,126.71L1376.58,127.85L1374.47,125.98L1373.65,126.13L1371.39,129.02L1368.59,130.31L1368.42,128.98L1367.71,128.92L1365.08,131.19L1363.12,129.67L1362.85,127.49L1363.9,127.97L1364.41,129.71L1366.08,128.83L1364.31,126.71L1363.28,123.85Z" fill-rule="evenodd" fill="#4682b4" fill-opacity="0.471"/>
<polyline points="1363.28,123.85 1362.03,123.14 1364.36,120.48 1364.93,118.15 1368.63,117.29 1373.39,114.09 1376.62,113.68 1378.16,114.48 1377.64,115.3 1375.59,115.04 1376.36,116.17 1382.32,121.78 1384.33,113.99 1382.14,114.69 1382.64,110.39 1385.14,106.91 1392.98,102.83 1394.08,103.27 1393.45,104.27 1396.04,102.59 1395.67,103.52 1396.47,103.85 1395.59,104.85 1398.32,104.88 1400.88,106.35 1401.38,105.38 1403.5,105.06 1405.02,103.47 1407.72,103.94 1410.16,106.16 1410.15,110.23 1409.14,111.28 1404.41,112.42 1400.99,115.58 1400.22,115.77 1400.94,113.89 1399.2,114.18 1397.77,118.88 1393.29,122.66 1393.01,123.5 1394.55,123.32 1396.74,120.27 1396.84,122.93 1399.05,123.93 1399.92,122.93 1400.73,126.56 1400.05,128.43 1401.53,127.63 1401.54,128.91 1403.29,128.66 1401.81,130.17 1398.37,130.23 1396.56,132.74 1394.35,132.57 1394.6,131.39 1393.64,131.33 1395.75,129.72 1394.94,128.4 1392.34,129.34 1388.85,128.24 1388.38,126.75 1386.09,128.38 1385.68,127.56 1385.49,128.77 1384.43,128.53 1383.91,127.8 1385.11,126.71 1389.04,125.77 1387.96,125.34 1381.97,126.9 1380.84,127 1380.87,126 1377.88,126.71 1376.58,127.85 1374.47,125.98 1373.65,126.13 1371.39,129.02 1368.59,130.31 1368.42,128.98 1367.71,128.92 1365.08,131.19 1363.12,129.67 1362.85,127.49 1363.9,127.97 1364.41,129.71 1366.08,128.83 1364.31,126.71 1363.28,123.85" fill="none" stroke="#1e1e1e" stroke-width="0.81" stroke-linecap="round" stroke-linejoin="round"/>
<path d="M1963.27,845.42L1963.13,844.91L1963.27,845.42Z" fill-rule="evenodd" fill="#4682b4" fill-opacity="0.471"/>
<polyline points="1963.27,845.42 1963.13,844.91 1963.27,845.42" fill="none" stroke="#1e1e1e" stroke-width="0.81" stroke-linecap="round" stroke-linejoin="round"/>
<path d="M1963.11,844.85L1961.88,843.85L1961.34,844.61L1953.91,844.11L1941.49,851.16L1937.95,854.77L1934.23,854.42L1936.51,852.92L1935.42,851.18L1935.99,845.52L1939.24,842.67L1939.02,840.64L1935.42,835.92L1935.82,834.9L1938,835.53L1941.6,834.92L1948.84,836.25L1960.47,835.12L1963.11,844.85Z" fill-rule="evenodd" fill="#4682b4" fill-opacity="0.471"/>
<polyline points="1963.11,844.85 1961.88,843.85 1961.34,844.61 1953.91,844.11 1941.49,851.16 1937.95,854.77 1934.23,854.42 1936.51,852.92 1935.42,851.18 1935.99,845.52 1939.24,842.67 1939.02,840.64 1935.42,835.92 1935.82,834.9 1938,835.53 1941.6,834.92 1948.84,836.25 1960.47,835.12 1963.11,844.85" fill="none" stroke="#1e1e1e" stroke-width="0.81" stroke-linecap="round" stroke-linejoin="round"/>
<path d="M1493.79,220.74L1495.09,221.05L1494.97,222.95L1492.53,223.19L1491.36,224.36L1492.49,230.6L1493.23,230.9L1493.63,230.18L1493.22,228.91L1494.23,229.16L1493.73,232.82L1488.31,233.27L1483.94,231.8L1481.63,230.25L1478.71,225.97L1478.54,219.97L1481.18,215.43L1483.17,214.63L1488.02,215.52L1487.36,214.27L1484.3,213.96L1485.08,213.28L1487.79,213.38L1490.09,215.99L1492.51,216.71L1492.74,219.65L1493.79,220.74Z" fill-rule="evenodd" fill="#4682b4" fill-opacity="0.471"/>
<polyline points="1493.79,220.74 1495.09,221.05 1494.97,222.95 1492.53,223.19 1491.36,224.36 1492.49,230.6 1493.23,230.9 1493.63,230.18 1493.22,228.91 1494.23,229.16 1493.73,232.82 1488.31,233.27 1483.94,231.8 1481.63,230.25 1478.71,225.97 1478.54,219.97 1481.18,215.43 1483.17,214.63 1488.02,215.52 1487.36,214.27 1484.3,213.96 1485.08,213.28 1487.79,213.38 1490.09,215.99 1492.51,216.71 1492.74,219.65 1493.79,220.74" fill="none" stroke="#1e1e1e" stroke-width="0.81" stroke-linecap="round" stroke-linejoin="round"/>
<path d="M1250.45,247.22L1250.06,248.58L1248.66,248.73L1245.24,244.37L1245.1,242.85L1236.66,236.49L1234.73,231.63L1232.44,234.82L1232.33,238.1L1231.4,237.1L1230.26,237.49L1229.72,235.28L1230.46,235.41L1232.36,231.95L1233.19,232.38L1232.29,231.05L1230.99,231.49L1230.94,230.76L1232.48,230.24L1233.09,228.6L1234.2,228.06L1242.54,226.99L1248.1,228.79L1249.39,230.35L1249.22,241.09L1250.55,245.02L1249.7,244.64L1248.55,245.93L1250.45,247.22Z" fill-rule="evenodd" fill="#4682b4" fill-opacity="0.471"/>
<polyline points="1250.45,247.22 1250.06,248.58 1248.66,248.73 1245.24,244.37 1245.1,242.85 1236.66,236.49 1234.73,231.63 1232.44,234.82 1232.33,238.1 1231.4,237.1 1230.26,237.49 1229.72,235.28 1230.46,235.41 1232.36,231.95 1233.19,232.38 1232.29,231.05 1230.99,231.49 1230.94,230.76 1232.48,230.24 1233.09,228.6 1234.2,228.06 1242.54,226.99 1248.1,228.79 1249.39,230.35 1249.22,241.09 1250.55,245.02 1249.7,244.64 1248.55,245.93 1250.45,247.22" fill="none" stroke="#1e1e1e" stroke-width="0.81" stroke-linecap="round" stroke-linejoin="round"/>
<path d="M1482.74,64.33L1481.91,65.9L1472.8,70.57L1469.41,69.36L1468.56,66.76L1482.74,64.33Z" fill-rule="evenodd" fill="#4682b4" fill-opacity="0.471"/>
<polyline points="1482.74,64.33 1481.91,65.9 1472.8,70.57 1469.41,69.36 1468.56,66.76 1482.74,64.33" fill="none" stroke="#1e1e1e" stroke-width="0.81" stroke-linecap="round" stroke-linejoin="round"/>
<path d="M1598.55,616.25L1598.55,616.25Z" fill-rule="evenodd" fill="#4682b4" fill-opacity="0.471"/>
<polyline points="1598.55,616.25 1598.55,616.25" fill="none" stroke="#1e1e1e" stroke-width="0.81" stroke-linecap="round" stroke-linejoin="round"/>
<path d="M1616.08,621.94L1612.43,621.2L1608.87,622.75L1603.14,617.33L1598.36,616.04L1596.68,613.69L1596.51,611.53L1604.69,610.96L1608.12,612.72L1609.2,611.18L1612.55,611.9L1616.73,611.13L1620.03,608.77L1621.64,609.35L1624.77,613.34L1624.41,616.96L1622.89,619.47L1621.85,619.26L1620.89,617.47L1620.43,617.77L1620.84,619.64L1622.8,620.21L1622.95,621.86L1622.12,622.36L1618.27,620.61L1616.08,621.94Z" fill-rule="evenodd" fill="#4682b4" fill-opacity="0.471"/>
<polyline points="1616.08,621.94 1612.43,621.2 1608.87,622.75 1603.14,617.33 1598.36,616.04 1596.68,613.69 1596.51,611.53 1604.69,610.96 1608.12,612.72 1609.2,611.18 1612.55,611.9 1616.73,611.13 1620.03,608.77 1621.64,609.35 1624.77,613.34 1624.41,616.96 1622.89,619.47 1621.85,619.26 1620.89,617.47 1620.43,617.77 1620.84,619.64 1622.8,620.21 1622.95,621.86 1622.12,622.36 1618.27,620.61 1616.08,621.94" fill="none" stroke="#1e1e1e" stroke-width="0.81" stroke-linecap="round" stroke-linejoin="round"/>
<path d="M1727.94,702.22L1729.77,703.75L1730.74,706.02L1730.55,708.54L1727.79,712.26L1725.84,712.85L1721.21,711.62L1717.77,709.22L1713.07,709.55L1708.87,707.53L1712.83,700.34L1714.14,699.59L1720.49,699.5L1727.94,702.22Z" fill-rule="evenodd" fill="#4682b4" fill-opacity="0.471"/>
<polyline points="1727.94,702.22 1729.77,703.75 1730.74,706.02 1730.55,708.54 1727.79,712.26 1725.84,712.85 1721.21,711.62 1717.77,709.22 1713.07,709.55 1708.87,707.53 1712.83,700.34 1714.14,699.59 1720.49,699.5 1727.94,702.22" fill="none" stroke="#1e1e1e" stroke-width="0.81" stroke-linecap="round" stroke-linejoin="round"/>
<path d="M1790.58,432.27L1793.41,430.28L1794.47,431.01L1794.75,432.45L1789.79,441.04L1787.97,442.45L1777.95,443.28L1776.2,442.26L1775.9,439.53L1776.73,436.45L1777.64,435.72L1783.38,432.36L1787.56,433.11L1788.69,431.1L1790.58,432.27Z" fill-rule="evenodd" fill="#4682b4" fill-opacity="0.471"/>
<polyline points="1790.58,432.27 1793.41,430.28 1794.47,431.01 1794.75,432.45 1789.79,441.04 1787.97,442.45 1777.95,443.28 1776.2,442.26 1775.9,439.53 1776.73,436.45 1777.64,435.72 1783.38,432.36 1787.56,433.11 1788.69,431.1 1790.58,432.27" fill="none" stroke="#1e1e1e" stroke-width="0.81" stroke-linecap="round" stroke-linejoin="round"/>
<path d="M1424.94,209.39L1425.74,214.44L1423.81,215.9L1421.45,215.29L1420.04,211.02L1420.83,208.6L1422.23,207.61L1424.94,209.39Z" fill-rule="evenodd" fill="#4682b4" fill-opacity="0.471"/>
<polyline points="1424.94,209.39 1425.74,214.44 1423.81,215.9 1421.45,215.29 1420.04,211.02 1420.83,208.6 1422.23,207.61 1424.94,209.39" fill="none" stroke="#1e1e1e" stroke-width="0.81" stroke-linecap="round" stroke-linejoin="round"/>
<path d="M1496.67,245.06L1494.65,243L1493.14,239.79L1493.43,236.65L1496.39,235.03L1499.31,236.35L1500.9,241.65L1498.81,245.16L1496.67,245.06Z" fill-rule="evenodd" fill="#4682b4" fill-opacity="0.471"/>
<polyline points="1496.67,245.06 1494.65,243 1493.14,239.79 1493.43,236.65 1496.39,235.03 1499.31,236.35 1500.9,241.65 1498.81,245.16 1496.67,245.06" fill="none" stroke="#1e1e1e" stroke-width="0.81" stroke-linecap="round" stroke-linejoin="round"/>
<path d="M1494.48,242.91L1494.83,243.29L1494.48,242.91Z" fill-rule="evenodd" fill="#4682b4" fill-opacity="0.471"/>
<polyline points="1494.48,242.91 1494.83,243.29 1494.48,242.91" fill="none" stroke="#1e1e1e" stroke-width="0.81" stroke-linecap="round" stroke-linejoin="round"/>
<path d="M1423.99,274.32L1425.34,275.86L1425.55,278.22L1424.29,279.01L1421.29,277.69L1422.57,274.22L1423.99,274.32Z" fill-rule="evenodd" fill="#4682b4" fill-opacity="0.471"/>
<polyline points="1423.99,274.32 1425.34,275.86 1425.55,278.22 1424.29,279.01 1421.29,277.69 1422.57,274.22 1423.99,274.32" fill="none" stroke="#1e1e1e" stroke-width="0.81" stroke-linecap="round" stroke-linejoin="round"/>
<path d="M1564.44,236.54L1556.58,246.95L1553.16,253.87L1551.82,254.56L1554.84,249.07L1556.33,243.91L1562.7,238.1L1563.14,236.79L1561.02,238.56L1564.2,233.9L1564.44,236.54Z" fill-rule="evenodd" fill="#4682b4" fill-opacity="0.471"/>
<polyline points="1564.44,236.54 1556.58,246.95 1553.16,253.87 1551.82,254.56 1554.84,249.07 1556.33,243.91 1562.7,238.1 1563.14,236.79 1561.02,238.56 1564.2,233.9 1564.44,236.54" fill="none" stroke="#1e1e1e" stroke-width="0.81" stroke-linecap="round" stroke-linejoin="round"/>
<path d="M1404.68,97.97L1404.14,94.67L1405.67,93.28L1408.65,95.89L1410.05,95.64L1409.19,96.71L1410.26,98.1L1409.31,99.31L1406.63,99.87L1404.68,97.97Z" fill-rule="evenodd" fill="#4682b4" fill-opacity="0.471"/>
<polyline points="1404.68,97.97 1404.14,94.67 1405.67,93.28 1408.65,95.89 1410.05,95.64 1409.19,96.71 1410.26,98.1 1409.31,99.31 1406.63,99.87 1404.68,97.97" fill="none" stroke="#1e1e1e" stroke-width="0.81" stroke-linecap="round" stroke-linejoin="round"/>
<path d="M1181.14,149.35L1182.07,151.87L1181.68,153.29L1179.41,154.1L1177.6,153.34L1176.21,151.1L1176.63,148.44L1178.72,147.29L1181.14,149.35Z" fill-rule="evenodd" fill="#4682b4" fill-opacity="0.471"/>
<polyline points="1181.14,149.35 1182.07,151.87 1181.68,153.29 1179.41,154.1 1177.6,153.34 1176.21,151.1 1176.63,148.44 1178.72,147.29 1181.14,149.35" fill="none" stroke="#1e1e1e" stroke-width="0.81" stroke-linecap="round" stroke-linejoin="round"/>
<path d="M1232.56,199.87L1233.55,201.04L1232.94,203.29L1231.71,204.92L1229.94,204.87L1224.8,202.17L1223.44,198.89L1224.99,197.88L1227.49,194.03L1229.29,194.82L1232.56,199.87Z" fill-rule="evenodd" fill="#4682b4" fill-opacity="0.471"/>
<polyline points="1232.56,199.87 1233.55,201.04 1232.94,203.29 1231.71,204.92 1229.94,204.87 1224.8,202.17 1223.44,198.89 1224.99,197.88 1227.49,194.03 1229.29,194.82 1232.56,199.87" fill="none" stroke="#1e1e1e" stroke-width="0.81" stroke-linecap="round" stroke-linejoin="round"/>
<path d="M1265.62,220.29L1266.48,221.56L1266.38,225.63L1265.5,226.93L1261.71,227.44L1256.77,225.51L1257.52,223.12L1260.37,219.55L1265.62,220.29Z" fill-rule="evenodd" fill="#4682b4" fill-opacity="0.471"/>
<polyline points="1265.62,220.29 1266.48,221.56 1266.38,225.63 1265.5,226.93 1261.71,227.44 1256.77,225.51 1257.52,223.12 1260.37,219.55 1265.62,220.29" fill="none" stroke="#1e1e1e" stroke-width="0.81" stroke-linecap="round" stroke-linejoin="round"/>
<path d="M1278.46,254.85L1279.21,257.41L1281.73,261.12L1280.94,261.69L1277.07,260.98L1276.05,259.16L1276.17,254.29L1277.37,253.19L1278.46,254.85Z" fill-rule="evenodd" fill="#4682b4" fill-opacity="0.471"/>
<polyline points="1278.46,254.85 1279.21,257.41 1281.73,261.12 1280.94,261.69 1277.07,260.98 1276.05,259.16 1276.17,254.29 1277.37,253.19 1278.46,254.85" fill="none" stroke="#1e1e1e" stroke-width="0.81" stroke-linecap="round" stroke-linejoin="round"/>
<path d="M1348.98,286.62L1350.3,291.43L1349.4,293.83L1348.04,294.25L1345.31,292.99L1344.34,291.1L1346.17,291.66L1345.84,289.73L1348.08,286.08L1347.22,281.56L1348.12,282.04L1348.98,286.62Z" fill-rule="evenodd" fill="#4682b4" fill-opacity="0.471"/>
<polyline points="1348.98,286.62 1350.3,291.43 1349.4,293.83 1348.04,294.25 1345.31,292.99 1344.34,291.1 1346.17,291.66 1345.84,289.73 1348.08,286.08 1347.22,281.56 1348.12,282.04 1348.98,286.62" fill="none" stroke="#1e1e1e" stroke-width="0.81" stroke-linecap="round" stroke-linejoin="round"/>
<path d="M1351.82,439.55L1355.78,440.38L1357.32,441.63L1356.08,445L1353.02,441.41L1350.99,441.09L1348.78,442.66L1346.9,446.25L1344.56,448.57L1341.13,448.07L1339.69,446.83L1343.63,444.8L1345.24,445.09L1347.93,439.09L1350.55,438.89L1351.82,439.55Z" fill-rule="evenodd" fill="#4682b4" fill-opacity="0.471"/>
<polyline points="1351.82,439.55 1355.78,440.38 1357.32,441.63 1356.08,445 1353.02,441.41 1350.99,441.09 1348.78,442.66 1346.9,446.25 1344.56,448.57 1341.13,448.07 1339.69,446.83 1343.63,444.8 1345.24,445.09 1347.93,439.09 1350.55,438.89 1351.82,439.55" fill="none" stroke="#1e1e1e" stroke-width="0.81" stroke-linecap="round" stroke-linejoin="round"/>
<path d="M1423.58,105.98L1422.26,105.9L1424.02,103.85L1423.81,102.51L1424.78,100.58L1426.89,98.65L1431.2,98.66L1433.99,100.51L1433.74,104.11L1432.7,105.55L1428.74,107.98L1427.03,107.87L1425.46,106.7L1425.07,107.23L1423.58,105.98Z" fill-rule="evenodd" fill="#4682b4" fill-opacity="0.471"/>
<polyline points="1423.58,105.98 1422.26,105.9 1424.02,103.85 1423.81,102.51 1424.78,100.58 1426.89,98.65 1431.2,98.66 1433.99,100.51 1433.74,104.11 1432.7,105.55 1428.74,107.98 1427.03,107.87 1425.46,106.7 1425.07,107.23 1423.58,105.98" fill="none" stroke="#1e1e1e" stroke-width="0.81" stroke-linecap="round" stroke-linejoin="round"/>
<path d="M1402.21,214.67L1403.92,215.75L1405.04,218.52L1404.15,220.4L1402.32,221.01L1400.87,219.5L1397.53,220.36L1400.77,215.5L1402.21,214.67Z" fill-rule="evenodd" fill="#4682b4" fill-opacity="0.471"/>
<polyline points="1402.21,214.67 1403.92,215.75 1405.04,218.52 1404.15,220.4 1402.32,221.01 1400.87,219.5 1397.53,220.36 1400.77,215.5 1402.21,214.67" fill="none" stroke="#1e1e1e" stroke-width="0.81" stroke-linecap="round" stroke-linejoin="round"/>
<path d="M1097.71,449.87L1098.41,451.81L1096.35,454.22L1093.54,453.87L1092.18,449.85L1093.11,449.52L1094.96,450.56L1097.71,449.87Z" fill-rule="evenodd" fill="#4682b4" fill-opacity="0.471"/>
<polyline points="1097.71,449.87 1098.41,451.81 1096.35,454.22 1093.54,453.87 1092.18,449.85 1093.11,449.52 1094.96,450.56 1097.71,449.87" fill="none" stroke="#1e1e1e" stroke-width="0.81" stroke-linecap="round" stroke-linejoin="round"/>
<path d="M1074.96,442.08L1075.82,444.43L1074.5,446.92L1073.42,447.32L1070.58,445.64L1071.24,443.56L1074.96,442.08Z" fill-rule="evenodd" fill="#4682b4" fill-opacity="0.471"/>
<polyline points="1074.96,442.08 1075.82,444.43 1074.5,446.92 1073.42,447.32 1070.58,445.64 1071.24,443.56 1074.96,442.08" fill="none" stroke="#1e1e1e" stroke-width="0.81" stroke-linecap="round" stroke-linejoin="round"/>
<path d="M1091,394.81L1088.7,395.03L1088.09,391.45L1088.62,391.14L1091.43,392.67L1093.46,391.75L1095.6,393.45L1095.34,394.98L1094.16,395.64L1092.55,394.56L1091.39,396.19L1091,394.81Z" fill-rule="evenodd" fill="#4682b4" fill-opacity="0.471"/>
<polyline points="1091,394.81 1088.7,395.03 1088.09,391.45 1088.62,391.14 1091.43,392.67 1093.46,391.75 1095.6,393.45 1095.34,394.98 1094.16,395.64 1092.55,394.56 1091.39,396.19 1091,394.81" fill="none" stroke="#1e1e1e" stroke-width="0.81" stroke-linecap="round" stroke-linejoin="round"/>
<path d="M784.69,383.04L788.39,383.28L788.02,386.44L783.89,387.38L782.78,386.81L783.85,385.6L782.77,381.74L783.75,381.68L784.69,383.04Z" fill-rule="evenodd" fill="#4682b4" fill-opacity="0.471"/>
<polyline points="784.69,383.04 788.39,383.28 788.02,386.44 783.89,387.38 782.78,386.81 783.85,385.6 782.77,381.74 783.75,381.68 784.69,383.04" fill="none" stroke="#1e1e1e" stroke-width="0.81" stroke-linecap="round" stroke-linejoin="round"/>
<path d="M891.21,430.16L891.76,429.31L892.11,430.86L890.33,432.47L887.76,437.44L886.65,438.55L885.54,438.28L887.58,435.74L888.57,432.28L884.76,436.71L885.7,431.61L884.83,429.91L885.62,428.66L883.97,428.73L884.6,426.01L887.74,424.41L888.07,426.1L887.34,427.88L888.16,428L888.95,425.77L888.55,424.44L890.18,424.16L890.71,426.89L890.13,430.98L891.21,430.16Z" fill-rule="evenodd" fill="#4682b4" fill-opacity="0.471"/>
<polyline points="891.21,430.16 891.76,429.31 892.11,430.86 890.33,432.47 887.76,437.44 886.65,438.55 885.54,438.28 887.58,435.74 888.57,432.28 884.76,436.71 885.7,431.61 884.83,429.91 885.62,428.66 883.97,428.73 884.6,426.01 887.74,424.41 888.07,426.1 887.34,427.88 888.16,428 888.95,425.77 888.55,424.44 890.18,424.16 890.71,426.89 890.13,430.98 891.21,430.16" fill="none" stroke="#1e1e1e" stroke-width="0.81" stroke-linecap="round" stroke-linejoin="round"/>
<path d="M1118.63,188.68L1119.05,190.76L1118.02,193.9L1117.23,193.69L1117.72,191.74L1115.65,189.69L1110.34,195.87L1107.85,196.15L1106.72,192.19L1107.92,187.65L1110.38,184.32L1113.75,184.38L1117.52,186.88L1118.63,188.68Z" fill-rule="evenodd" fill="#4682b4" fill-opacity="0.471"/>
<polyline points="1118.63,188.68 1119.05,190.76 1118.02,193.9 1117.23,193.69 1117.72,191.74 1115.65,189.69 1110.34,195.87 1107.85,196.15 1106.72,192.19 1107.92,187.65 1110.38,184.32 1113.75,184.38 1117.52,186.88 1118.63,188.68" fill="none" stroke="#1e1e1e" stroke-width="0.81" stroke-linecap="round" stroke-linejoin="round"/>
<path d="M904.78,350.68L906.42,350.15L905.97,351.92L904.22,353.65L900.06,352.16L902.28,344.3L904.11,342.21L906.37,343.16L906.25,347.04L904.19,345.81L903.83,346.36L904.78,350.68Z" fill-rule="evenodd" fill="#4682b4" fill-opacity="0.471"/>
<polyline points="904.78,350.68 906.42,350.15 905.97,351.92 904.22,353.65 900.06,352.16 902.28,344.3 904.11,342.21 906.37,343.16 906.25,347.04 904.19,345.81 903.83,346.36 904.78,350.68" fill="none" stroke="#1e1e1e" stroke-width="0.81" stroke-linecap="round" stroke-linejoin="round"/>
<path d="M905.36,362.89L905.85,364.72L904.02,367.56L899.97,363.8L900,360.5L904.31,356.34L905.76,357.18L905.36,362.89Z" fill-rule="evenodd" fill="#4682b4" fill-opacity="0.471"/>
<polyline points="905.36,362.89 905.85,364.72 904.02,367.56 899.97,363.8 900,360.5 904.31,356.34 905.76,357.18 905.36,362.89" fill="none" stroke="#1e1e1e" stroke-width="0.81" stroke-linecap="round" stroke-linejoin="round"/>
<path d="M951.28,286.48L951.99,287.51L950.5,290.4L948.53,289.8L947.12,288.14L947.08,286.6L950.2,280.92L952.02,281.58L950.78,285.32L951.28,286.48Z" fill-rule="evenodd" fill="#4682b4" fill-opacity="0.471"/>
<polyline points="951.28,286.48 951.99,287.51 950.5,290.4 948.53,289.8 947.12,288.14 947.08,286.6 950.2,280.92 952.02,281.58 950.78,285.32 951.28,286.48" fill="none" stroke="#1e1e1e" stroke-width="0.81" stroke-linecap="round" stroke-linejoin="round"/>
<path d="M1054.74,263.83L1052.12,261.44L1049.82,260.54L1050.02,258.24L1053.16,258.58L1055.27,260.67L1056.06,263.18L1054.74,263.83Z" fill-rule="evenodd" fill="#4682b4" fill-opacity="0.471"/>
<polyline points="1054.74,263.83 1052.12,261.44 1049.82,260.54 1050.02,258.24 1053.16,258.58 1055.27,260.67 1056.06,263.18 1054.74,263.83" fill="none" stroke="#1e1e1e" stroke-width="0.81" stroke-linecap="round" stroke-linejoin="round"/>
<path d="M1143.11,198.14L1144.44,198.9L1143.01,199.58L1142.53,205.38L1140.77,207.21L1139.74,207.18L1138.54,205.41L1140.07,198.7L1143.11,198.14Z" fill-rule="evenodd" fill="#4682b4" fill-opacity="0.471"/>
<polyline points="1143.11,198.14 1144.44,198.9 1143.01,199.58 1142.53,205.38 1140.77,207.21 1139.74,207.18 1138.54,205.41 1140.07,198.7 1143.11,198.14" fill="none" stroke="#1e1e1e" stroke-width="0.81" stroke-linecap="round" stroke-linejoin="round"/>
<path d="M1169.57,188.71L1169.96,190.71L1169.15,192.31L1169.96,192.7L1169.41,193.37L1166.27,194.14L1164.54,193.47L1163.89,191.84L1164.72,188.81L1166.22,188.49L1167.85,189.74L1168.77,187.95L1169.57,188.71Z" fill-rule="evenodd" fill="#4682b4" fill-opacity="0.471"/>
<polyline points="1169.57,188.71 1169.96,190.71 1169.15,192.31 1169.96,192.7 1169.41,193.37 1166.27,194.14 1164.54,193.47 1163.89,191.84 1164.72,188.81 1166.22,188.49 1167.85,189.74 1168.77,187.95 1169.57,188.71" fill="none" stroke="#1e1e1e" stroke-width="0.81" stroke-linecap="round" stroke-linejoin="round"/>
<path d="M40.41,915.04L26.47,906.3L20.51,905.18L21.3,902.28L23.22,900.85L22.2,898.95L22.98,896.09L25.62,897L29.37,896.53L30.34,897.31L30.23,899.91L32.3,904.07L39.62,909.98L42.13,913.69L49.55,918.88L49.73,921.37L46.63,918.91L42.23,919.2L40.41,915.04Z" fill-rule="evenodd" fill="#4682b4" fill-opacity="0.471"/>
<polyline points="40.41,915.04 26.47,906.3 20.51,905.18 21.3,902.28 23.22,900.85 22.2,898.95 22.98,896.09 25.62,897 29.37,896.53 30.34,897.31 30.23,899.91 32.3,904.07 39.62,909.98 42.13,913.69 49.55,918.88 49.73,921.37 46.63,918.91 42.23,919.2 40.41,915.04" fill="none" stroke="#1e1e1e" stroke-width="0.81" stroke-linecap="round" stroke-linejoin="round"/>
<path d="M1588.43,94.44L1586.18,94.86L1584.72,96.44L1580.87,103.45L1574.86,106.33L1574.57,107.91L1571.38,112.47L1568.54,114.09L1563.03,120.55L1553.48,126.63L1552.23,128.72L1551.71,133.54L1549.41,138.56L1544.4,142.79L1541.4,148.05L1540.81,147.7L1541.41,145.36L1540.74,145.87L1540.1,151.02L1541.93,155.11L1540.79,154.66L1539.98,152.62L1539.27,147.99L1538.66,149.78L1539.2,154.06L1538.29,155.69L1537.07,150.83L1538.11,146.08L1541.29,141.65L1545.26,140.24L1548.79,136.05L1551.79,125.21L1558.03,120.21L1562.08,119.14L1564.13,116.77L1565.79,113.66L1569.99,108.96L1570.37,105.85L1572.66,99.91L1577.23,97.8L1577.96,96.43L1580.53,94.97L1583.6,87.21L1589.86,82.76L1592.47,82.19L1593.61,82.33L1595.56,85.11L1599,84.79L1602,87.16L1602.91,89.52L1602.35,89.43L1599.93,87.09L1594.42,86.03L1593.56,85.09L1593.34,90.64L1590.43,92.73L1589.2,95.01L1588.43,94.44Z" fill-rule="evenodd" fill="#4682b4" fill-opacity="0.471"/>
<polyline points="1588.43,94.44 1586.18,94.86 1584.72,96.44 1580.87,103.45 1574.86,106.33 1574.57,107.91 1571.38,112.47 1568.54,114.09 1563.03,120.55 1553.48,126.63 1552.23,128.72 1551.71,133.54 1549.41,138.56 1544.4,142.79 1541.4,148.05 1540.81,147.7 1541.41,145.36 1540.74,145.87 1540.1,151.02 1541.93,155.11 1540.79,154.66 1539.98,152.62 1539.27,147.99 1538.66,149.78 1539.2,154.06 1538.29,155.69 1537.07,150.83 1538.11,146.08 1541.29,141.65 1545.26,140.24 1548.79,136.05 1551.79,125.21 1558.03,120.21 1562.08,119.14 1564.13,116.77 1565.79,113.66 1569.99,108.96 1570.37,105.85 1572.66,99.91 1577.23,97.8 1577.96,96.43 1580.53,94.97 1583.6,87.21 1589.86,82.76 1592.47,82.19 1593.61,82.33 1595.56,85.11 1599,84.79 1602,87.16 1602.91,89.52 1602.35,89.43 1599.93,87.09 1594.42,86.03 1593.56,85.09 1593.34,90.64 1590.43,92.73 1589.2,95.01 1588.43,94.44" fill="none" stroke="#1e1e1e" stroke-width="0.81" stroke-linecap="round" stroke-linejoin="round"/>
<path d="M1743.94,499.39L1746.7,499.44L1747.68,500.21L1743.71,503.07L1743.62,506.23L1741.65,507.91L1741.47,508.98L1742.81,511.67L1741.08,512.98L1737.68,512.49L1736.26,513.18L1738.69,515.3L1742.27,514.47L1737.99,516.38L1736.33,516.03L1729.84,511.53L1718.12,510.11L1715.17,506.3L1711.05,505.39L1708.45,503.34L1703.42,504L1697.94,502.91L1695.71,504.34L1693.7,504.31L1689.14,502.32L1686.21,499.8L1683.11,499.96L1679.36,497.23L1678.46,495.45L1679.08,493.57L1683.11,495.42L1684.9,492.83L1688.67,491.07L1697.26,489.92L1698.21,484.97L1701.41,482.08L1693.82,479.92L1690.8,475.46L1690.79,474.1L1689.45,472.17L1691.37,469.93L1691.52,465.8L1689,461.03L1688.59,452.47L1692.22,444.93L1694.37,444.02L1699.03,438.35L1706.94,434.79L1713.74,429.27L1714.38,427.37L1712.37,423.21L1710.12,422.1L1705.27,417.58L1702.73,416.21L1700.75,416.18L1699.34,414.45L1696.48,413.42L1690.87,413.67L1689.54,416.23L1687.26,412.31L1685.07,410.45L1683.13,409.95L1682.3,408.66L1680.82,410.98L1680.28,410.29L1678.7,410.56L1678.15,408.01L1674.57,404.73L1678.13,405.29L1679.47,406.78L1685.01,404.22L1687.59,404.82L1690.27,404.4L1690.47,402.09L1693.2,399.53L1694.09,395.76L1699.06,392.58L1699.55,393.39L1698.2,396.07L1694.97,397.81L1692.45,401.9L1692.3,403.7L1693.66,405.88L1689.41,406.42L1690.68,408.77L1689.4,409.09L1688.85,410.31L1695.63,410.78L1695.27,411.81L1698.98,411.42L1700.59,414.23L1703.46,414.7L1708.44,418.69L1718.22,423.83L1720.48,424.1L1721.79,422.86L1724.43,422.32L1726.19,423.15L1722.62,424.88L1720.4,428.51L1708.36,435.72L1706.47,439.71L1701.12,441.68L1693.24,447.61L1690.54,456.03L1690.49,460.61L1691.28,462.43L1694.93,465.84L1695.5,469.93L1697.26,474.55L1700.8,478.19L1705.96,479.67L1708.12,478.76L1709.74,476.62L1712.22,477L1715.48,476.31L1716.32,476.93L1715.23,478.87L1710.1,481.03L1705.26,480.73L1700.11,486.49L1698.88,488.67L1699.31,489.3L1701.4,490.25L1708.56,490.59L1720.2,493.46L1725.2,495.49L1726.47,497.97L1728.85,495.53L1731.76,496.54L1737.33,495.91L1743.94,499.39Z" fill-rule="evenodd" fill="#4682b4" fill-opacity="0.471"/>
<polyline points="1743.94,499.39 1746.7,499.44 1747.68,500.21 1743.71,503.07 1743.62,506.23 1741.65,507.91 1741.47,508.98 1742.81,511.67 1741.08,512.98 1737.68,512.49 1736.26,513.18 1738.69,515.3 1742.27,514.47 1737.99,516.38 1736.33,516.03 1729.84,511.53 1718.12,510.11 1715.17,506.3 1711.05,505.39 1708.45,503.34 1703.42,504 1697.94,502.91 1695.71,504.34 1693.7,504.31 1689.14,502.32 1686.21,499.8 1683.11,499.96 1679.36,497.23 1678.46,495.45 1679.08,493.57 1683.11,495.42 1684.9,492.83 1688.67,491.07 1697.26,489.92 1698.21,484.97 1701.41,482.08 1693.82,479.92 1690.8,475.46 1690.79,474.1 1689.45,472.17 1691.37,469.93 1691.52,465.8 1689,461.03 1688.59,452.47 1692.22,444.93 1694.37,444.02 1699.03,438.35 1706.94,434.79 1713.74,429.27 1714.38,427.37 1712.37,423.21 1710.12,422.1 1705.27,417.58 1702.73,416.21 1700.75,416.18 1699.34,414.45 1696.48,413.42 1690.87,413.67 1689.54,416.23 1687.26,412.31 1685.07,410.45 1683.13,409.95 1682.3,408.66 1680.82,410.98 1680.28,410.29 1678.7,410.56 1678.15,408.01 1674.57,404.73 1678.13,405.29 1679.47,406.78 1685.01,404.22 1687.59,404.82 1690.27,404.4 1690.47,402.09 1693.2,399.53 1694.09,395.76 1699.06,392.58 1699.55,393.39 1698.2,396.07 1694.97,397.81 1692.45,401.9 1692.3,403.7 1693.66,405.88 1689.41,406.42 1690.68,408.77 1689.4,409.09 1688.85,410.31 1695.63,410.78 1695.27,411.81 1698.98,411.42 1700.59,414.23 1703.46,414.7 1708.44,418.69 1718.22,423.83 1720.48,424.1 1721.79,422.86 1724.43,422.32 1726.19,423.15 1722.62,424.88 1720.4,428.51 1708.36,435.72 1706.47,439.71 1701.12,441.68 1693.24,447.61 1690.54,456.03 1690.49,460.61 1691.28,462.43 1694.93,465.84 1695.5,469.93 1697.26,474.55 1700.8,478.19 1705.96,479.67 1708.12,478.76 1709.74,476.62 1712.22,477 1715.48,476.31 1716.32,476.93 1715.23,478.87 1710.1,481.03 1705.26,480.73 1700.11,486.49 1698.88,488.67 1699.31,489.3 1701.4,490.25 1708.56,490.59 1720.2,493.46 1725.2,495.49 1726.47,497.97 1728.85,495.53 1731.76,496.54 1737.33,495.91 1743.94,499.39" fill="none" stroke="#1e1e1e" stroke-width="0.81" stroke-linecap="round" stroke-linejoin="round"/>
<path d="M297.23,171.06L301.08,167.56L303.32,168.53L306.03,171.3L304.14,171.63L300.74,173.8L299.7,177.46L300.34,179.36L299.65,180.59L301.01,185.53L300.45,186.83L296.35,190.83L292.44,192.42L290.22,195.35L288.74,198.67L289.39,199.83L291.54,198.23L293.13,197.78L294.05,198.51L292.64,198.57L288.9,201.94L283.31,201.87L281.95,204.93L280.07,206.67L275.39,216.92L272.57,220.07L272.87,221.82L274.28,222.44L274.61,223.99L284.21,226.59L284.34,227.55L276.95,226.96L273.19,225.02L272.56,223.02L269.61,222.13L265.9,225.06L264.2,228.28L261.8,230.3L258.19,230.88L256.53,230.34L255.78,227.98L257.2,226.26L262.12,221.8L265.98,220L274.27,210.98L276.97,201.79L281.55,198.29L284.27,194.99L287.52,194.41L288.43,190.64L290.6,187.08L297.15,181.32L296.46,172.56L297.23,171.06Z" fill-rule="evenodd" fill="#4682b4" fill-opacity="0.471"/>
<polyline points="297.23,171.06 301.08,167.56 303.32,168.53 306.03,171.3 304.14,171.63 300.74,173.8 299.7,177.46 300.34,179.36 299.65,180.59 301.01,185.53 300.45,186.83 296.35,190.83 292.44,192.42 290.22,195.35 288.74,198.67 289.39,199.83 291.54,198.23 293.13,197.78 294.05,198.51 292.64,198.57 288.9,201.94 283.31,201.87 281.95,204.93 280.07,206.67 275.39,216.92 272.57,220.07 272.87,221.82 274.28,222.44 274.61,223.99 284.21,226.59 284.34,227.55 276.95,226.96 273.19,225.02 272.56,223.02 269.61,222.13 265.9,225.06 264.2,228.28 261.8,230.3 258.19,230.88 256.53,230.34 255.78,227.98 257.2,226.26 262.12,221.8 265.98,220 274.27,210.98 276.97,201.79 281.55,198.29 284.27,194.99 287.52,194.41 288.43,190.64 290.6,187.08 297.15,181.32 296.46,172.56 297.23,171.06" fill="none" stroke="#1e1e1e" stroke-width="0.81" stroke-linecap="round" stroke-linejoin="round"/>
<path d="M313.11,107.23L310.97,104.68L310.98,102.37L315.61,93.47L315.79,88.03L318.72,79.14L322.21,76.36L324.09,75.87L334.89,78.18L334.75,72.88L336.81,68.9L340.43,65.26L339.77,60.86L341.38,55.94L359.28,49.98L359.19,47.47L357.33,44.88L357.14,41.34L353.36,33.85L352.86,31.52L353.63,30.74L357.08,31.55L357.2,34.12L359.34,35.75L358.27,38.02L360.13,44.54L360.77,43.52L360.38,42.35L363.26,44.31L364.14,44.29L365.09,42.84L365.19,40.6L362.67,38.58L363.18,36.84L364.77,36.56L363.97,34.03L364.56,33.3L366.27,33.69L366.74,37.02L367.81,38.41L373.38,39.4L376.77,37.48L378.6,38.45L382.65,43.34L386.83,42.44L388.87,38.83L396.14,40.44L399.91,42.25L400.07,43.89L403.91,42.14L410.34,43.53L410.52,45.42L412.72,44.04L414.71,44.46L413.2,45.99L416.39,44.82L414.86,46.87L409.06,48.22L402.86,46.48L398.02,47.26L397.02,45.86L395.43,45.3L391.2,47.66L384.57,47.5L382.75,45.62L379.27,49.82L375.8,51.07L373.62,53.22L370.87,51.48L371.23,53.41L368.96,54.23L369.22,56.58L367.73,55.54L367.84,53.53L364.08,54.06L361.4,57.9L364.38,56.75L359.85,61.91L359.07,60.1L353.36,57.86L352.44,58.56L353.85,60.26L345.73,58.35L343.98,58.7L342.31,62.77L341.6,70.98L343.39,69.98L344.02,70.64L344.59,69.88L346.95,70.82L348.48,74.37L344.55,71.64L343.06,74.64L338.21,76.89L340.77,77.09L339.76,78.72L341.24,80.54L346.43,82L343.62,83.24L340.42,82.31L338.71,80.86L338.27,79.39L337.34,79.41L335.37,84.49L335.67,85.34L336.71,85.29L336.03,87.04L332.77,87.68L333.71,90.29L332.95,94.13L332.4,91.68L330.68,90.94L330.73,89.58L323.59,89.41L320.59,91.23L319.8,92.65L317.3,92.94L318.54,105.19L319.74,107.09L322.48,108.88L326.53,109.37L325.07,109.91L327.07,113.59L326.47,114.28L325,113.5L324.18,114.08L325.9,116.12L327.72,120.94L330.48,124.06L344.29,117.13L346.57,117.6L348.67,115.45L351.12,116.03L355.75,112.87L358.49,113.73L361.2,111.52L362.03,112.25L359.84,114.89L363.62,117.99L360.99,117.88L357.91,115.24L355.56,114.92L353.42,117.51L350.3,118.01L349.18,119.21L352.3,119.46L352.93,119.64L352.56,120.16L345.07,122.77L346.94,124.97L345.83,125.19L343.78,123.83L341.19,126.4L340.69,124.45L337.86,126.58L337.26,128.74L338.2,136.4L338.7,137.06L339.99,135.46L340.86,135.64L340.49,137.92L341.82,140.44L341.67,142.03L340.34,143.75L339.51,143.4L339.96,140.72L339.25,139.08L337.62,141.11L336.94,140.89L337.57,139.08L335.76,135.83L335.59,132.92L333.39,132.17L331.47,133.31L330.47,138.23L326.81,146.71L327.51,151.13L329.04,152.73L355.57,160.75L358.14,163.61L340.17,159.02L333.09,160.11L330.88,163.29L330.75,166.34L327.97,167.51L324.14,165.97L316.63,165.27L313.54,164.09L309.27,156.73L310.95,157.46L315.48,163.84L317.71,165.01L319.84,164.37L326.76,165.71L328.85,165.33L329.62,163.91L328.96,161.74L330.13,161.68L331.13,159.96L329.33,158.67L325.49,158.83L324.97,157.22L320.64,154.04L324.48,154.97L325.34,153.55L324.49,150.67L321.03,146.09L320.73,142.18L322.35,135.14L325.08,132.05L324.69,130.05L326.35,130.55L326.65,129.94L326.09,123.06L320.28,114.64L319.21,111.7L317.66,110.41L315.48,111.2L315.59,109.6L313.62,109.02L313.11,107.23Z" fill-rule="evenodd" fill="#4682b4" fill-opacity="0.471"/>
<polyline points="313.11,107.23 310.97,104.68 310.98,102.37 315.61,93.47 315.79,88.03 318.72,79.14 322.21,76.36 324.09,75.87 334.89,78.18 334.75,72.88 336.81,68.9 340.43,65.26 339.77,60.86 341.38,55.94 359.28,49.98 359.19,47.47 357.33,44.88 357.14,41.34 353.36,33.85 352.86,31.52 353.63,30.74 357.08,31.55 357.2,34.12 359.34,35.75 358.27,38.02 360.13,44.54 360.77,43.52 360.38,42.35 363.26,44.31 364.14,44.29 365.09,42.84 365.19,40.6 362.67,38.58 363.18,36.84 364.77,36.56 363.97,34.03 364.56,33.3 366.27,33.69 366.74,37.02 367.81,38.41 373.38,39.4 376.77,37.48 378.6,38.45 382.65,43.34 386.83,42.44 388.87,38.83 396.14,40.44 399.91,42.25 400.07,43.89 403.91,42.14 410.34,43.53 410.52,45.42 412.72,44.04 414.71,44.46 413.2,45.99 416.39,44.82 414.86,46.87 409.06,48.22 402.86,46.48 398.02,47.26 397.02,45.86 395.43,45.3 391.2,47.66 384.57,47.5 382.75,45.62 379.27,49.82 375.8,51.07 373.62,53.22 370.87,51.48 371.23,53.41 368.96,54.23 369.22,56.58 367.73,55.54 367.84,53.53 364.08,54.06 361.4,57.9 364.38,56.75 359.85,61.91 359.07,60.1 353.36,57.86 352.44,58.56 353.85,60.26 345.73,58.35 343.98,58.7 342.31,62.77 341.6,70.98 343.39,69.98 344.02,70.64 344.59,69.88 346.95,70.82 348.48,74.37 344.55,71.64 343.06,74.64 338.21,76.89 340.77,77.09 339.76,78.72 341.24,80.54 346.43,82 343.62,83.24 340.42,82.31 338.71,80.86 338.27,79.39 337.34,79.41 335.37,84.49 335.67,85.34 336.71,85.29 336.03,87.04 332.77,87.68 333.71,90.29 332.95,94.13 332.4,91.68 330.68,90.94 330.73,89.58 323.59,89.41 320.59,91.23 319.8,92.65 317.3,92.94 318.54,105.19 319.74,107.09 322.48,108.88 326.53,109.37 325.07,109.91 327.07,113.59 326.47,114.28 325,113.5 324.18,114.08 325.9,116.12 327.72,120.94 330.48,124.06 344.29,117.13 346.57,117.6 348.67,115.45 351.12,116.03 355.75,112.87 358.49,113.73 361.2,111.52 362.03,112.25 359.84,114.89 363.62,117.99 360.99,117.88 357.91,115.24 355.56,114.92 353.42,117.51 350.3,118.01 349.18,119.21 352.3,119.46 352.93,119.64 352.56,120.16 345.07,122.77 346.94,124.97 345.83,125.19 343.78,123.83 341.19,126.4 340.69,124.45 337.86,126.58 337.26,128.74 338.2,136.4 338.7,137.06 339.99,135.46 340.86,135.64 340.49,137.92 341.82,140.44 341.67,142.03 340.34,143.75 339.51,143.4 339.96,140.72 339.25,139.08 337.62,141.11 336.94,140.89 337.57,139.08 335.76,135.83 335.59,132.92 333.39,132.17 331.47,133.31 330.47,138.23 326.81,146.71 327.51,151.13 329.04,152.73 355.57,160.75 358.14,163.61 340.17,159.02 333.09,160.11 330.88,163.29 330.75,166.34 327.97,167.51 324.14,165.97 316.63,165.27 313.54,164.09 309.27,156.73 310.95,157.46 315.48,163.84 317.71,165.01 319.84,164.37 326.76,165.71 328.85,165.33 329.62,163.91 328.96,161.74 330.13,161.68 331.13,159.96 329.33,158.67 325.49,158.83 324.97,157.22 320.64,154.04 324.48,154.97 325.34,153.55 324.49,150.67 321.03,146.09 320.73,142.18 322.35,135.14 325.08,132.05 324.69,130.05 326.35,130.55 326.65,129.94 326.09,123.06 320.28,114.64 319.21,111.7 317.66,110.41 315.48,111.2 315.59,109.6 313.62,109.02 313.11,107.23" fill="none" stroke="#1e1e1e" stroke-width="0.81" stroke-linecap="round" stroke-linejoin="round"/>
<path d="M431.63,48.01L431.57,51.69L429,54.71L427.57,53.06L429.77,52.07L430.85,50.49L429.73,47.62L431.63,48.01Z" fill-rule="evenodd" fill="#4682b4" fill-opacity="0.471"/>
<polyline points="431.63,48.01 431.57,51.69 429,54.71 427.57,53.06 429.77,52.07 430.85,50.49 429.73,47.62 431.63,48.01" fill="none" stroke="#1e1e1e" stroke-width="0.81" stroke-linecap="round" stroke-linejoin="round"/>
<path d="M1305.14,966.54L1306.04,967L1305.15,968.15L1299.72,969.9L1293.24,967.3L1286.66,971.29L1282.57,969.94L1280.67,970.14L1277.66,974.25L1274.82,976.38L1273.42,975.99L1272.03,974.24L1272.61,973.87L1274.05,974.96L1275.97,973.94L1275.78,972.86L1277.57,971.21L1278.86,968.41L1274.2,963.49L1272.88,963.16L1270.99,960.19L1271.79,959.66L1276.28,961.01L1283.51,961.56L1286.74,960.3L1288.57,962.85L1289.36,962.01L1294.22,962.83L1295.17,965.67L1305.14,966.54Z" fill-rule="evenodd" fill="#4682b4" fill-opacity="0.471"/>
<polyline points="1305.14,966.54 1306.04,967 1305.15,968.15 1299.72,969.9 1293.24,967.3 1286.66,971.29 1282.57,969.94 1280.67,970.14 1277.66,974.25 1274.82,976.38 1273.42,975.99 1272.03,974.24 1272.61,973.87 1274.05,974.96 1275.97,973.94 1275.78,972.86 1277.57,971.21 1278.86,968.41 1274.2,963.49 1272.88,963.16 1270.99,960.19 1271.79,959.66 1276.28,961.01 1283.51,961.56 1286.74,960.3 1288.57,962.85 1289.36,962.01 1294.22,962.83 1295.17,965.67 1305.14,966.54" fill="none" stroke="#1e1e1e" stroke-width="0.81" stroke-linecap="round" stroke-linejoin="round"/>
<path d="M1074.18,1020.51L1075.04,1021.69L1070.93,1025.4L1068.75,1024.99L1066.33,1027.68L1064.25,1026.26L1062.35,1026.42L1058.69,1024.55L1057.66,1024.66L1057.02,1026.11L1055.88,1025.35L1054.7,1026.14L1053.12,1021.48L1050.48,1017.91L1049.56,1015.16L1048.55,1014.76L1048.63,1013.45L1049.4,1012.91L1054.28,1013.37L1057.36,1017.65L1060.51,1015.45L1064.49,1015.42L1066.51,1018.66L1069.17,1020.12L1071.53,1019.75L1074.18,1020.51Z" fill-rule="evenodd" fill="#4682b4" fill-opacity="0.471"/>
<polyline points="1074.18,1020.51 1075.04,1021.69 1070.93,1025.4 1068.75,1024.99 1066.33,1027.68 1064.25,1026.26 1062.35,1026.42 1058.69,1024.55 1057.66,1024.66 1057.02,1026.11 1055.88,1025.35 1054.7,1026.14 1053.12,1021.48 1050.48,1017.91 1049.56,1015.16 1048.55,1014.76 1048.63,1013.45 1049.4,1012.91 1054.28,1013.37 1057.36,1017.65 1060.51,1015.45 1064.49,1015.42 1066.51,1018.66 1069.17,1020.12 1071.53,1019.75 1074.18,1020.51" fill="none" stroke="#1e1e1e" stroke-width="0.81" stroke-linecap="round" stroke-linejoin="round"/>
<path d="M203.1,232.64L205.89,230.02L207.17,227.37L207.61,228.3L205.64,231.96L206.85,233.61L204.08,233.08L203.66,234.46L209.33,236.66L210.75,238.81L212.79,239.77L209.72,240.66L205.33,239.22L203.19,237.18L202.43,235.12L203.1,232.64Z" fill-rule="evenodd" fill="#4682b4" fill-opacity="0.471"/>
<polyline points="203.1,232.64 205.89,230.02 207.17,227.37 207.61,228.3 205.64,231.96 206.85,233.61 204.08,233.08 203.66,234.46 209.33,236.66 210.75,238.81 212.79,239.77 209.72,240.66 205.33,239.22 203.19,237.18 202.43,235.12 203.1,232.64" fill="none" stroke="#1e1e1e" stroke-width="0.81" stroke-linecap="round" stroke-linejoin="round"/>
<path d="M1510.84,814.15L1510.32,814.97L1510.95,815.94L1510.26,816.74L1505.89,817.57L1504.34,816L1498.6,816.27L1497.1,817.12L1493.64,816.47L1487.88,817.6L1480.95,816.92L1479.03,816.02L1475.81,817.16L1473.06,816.64L1470.9,818.22L1471.1,816.79L1469.07,814.27L1469.86,811.75L1474.34,811.34L1479.33,807.8L1481.06,808.87L1494.44,810.56L1504.95,810.21L1511.07,807.1L1517.58,807.69L1514.78,810.34L1513.57,810.18L1510.84,814.15Z" fill-rule="evenodd" fill="#4682b4" fill-opacity="0.471"/>
<polyline points="1510.84,814.15 1510.32,814.97 1510.95,815.94 1510.26,816.74 1505.89,817.57 1504.34,816 1498.6,816.27 1497.1,817.12 1493.64,816.47 1487.88,817.6 1480.95,816.92 1479.03,816.02 1475.81,817.16 1473.06,816.64 1470.9,818.22 1471.1,816.79 1469.07,814.27 1469.86,811.75 1474.34,811.34 1479.33,807.8 1481.06,808.87 1494.44,810.56 1504.95,810.21 1511.07,807.1 1517.58,807.69 1514.78,810.34 1513.57,810.18 1510.84,814.15" fill="none" stroke="#1e1e1e" stroke-width="0.81" stroke-linecap="round" stroke-linejoin="round"/>
<path d="M1533.09,887.37L1536.52,887.14L1536.4,888.68L1535.56,889.34L1528.48,889.71L1526.68,891.46L1523.69,896.81L1517.86,898.76L1514.74,900.71L1514.07,901.7L1514.72,902.79L1518.1,903.01L1519.29,904L1516.45,905.21L1514.27,909.9L1510.06,915.62L1500.83,920.32L1499.8,919.2L1496.47,920.4L1491.64,920.34L1484.7,923.06L1480.46,923.15L1476.13,922.05L1475.1,923.44L1473.53,921.69L1469.21,920.76L1465.82,918.52L1463.63,919.5L1462.06,918.7L1456.59,918.52L1448.31,915.33L1447.12,915.37L1444.66,917.72L1442.59,917.78L1440.99,916.76L1438.15,910.5L1438.3,909.17L1439.32,908.46L1442.92,907.18L1450.13,907.18L1451.72,904.29L1456.49,903.46L1459.58,899.72L1473.54,894.77L1475.11,895.06L1478.09,892.52L1484.35,891.09L1490.14,888.18L1494.39,889.42L1498.76,889.21L1500.89,887.05L1510.04,882.76L1512.34,882.85L1516.18,881.61L1519.38,882.03L1524.88,880.42L1526.3,879.26L1534.14,877.93L1531.73,879.81L1529.47,880.03L1528.39,883.2L1526.21,883.96L1524.8,887.08L1526.38,888.36L1533.09,887.37Z" fill-rule="evenodd" fill="#4682b4" fill-opacity="0.471"/>
<polyline points="1533.09,887.37 1536.52,887.14 1536.4,888.68 1535.56,889.34 1528.48,889.71 1526.68,891.46 1523.69,896.81 1517.86,898.76 1514.74,900.71 1514.07,901.7 1514.72,902.79 1518.1,903.01 1519.29,904 1516.45,905.21 1514.27,909.9 1510.06,915.62 1500.83,920.32 1499.8,919.2 1496.47,920.4 1491.64,920.34 1484.7,923.06 1480.46,923.15 1476.13,922.05 1475.1,923.44 1473.53,921.69 1469.21,920.76 1465.82,918.52 1463.63,919.5 1462.06,918.7 1456.59,918.52 1448.31,915.33 1447.12,915.37 1444.66,917.72 1442.59,917.78 1440.99,916.76 1438.15,910.5 1438.3,909.17 1439.32,908.46 1442.92,907.18 1450.13,907.18 1451.72,904.29 1456.49,903.46 1459.58,899.72 1473.54,894.77 1475.11,895.06 1478.09,892.52 1484.35,891.09 1490.14,888.18 1494.39,889.42 1498.76,889.21 1500.89,887.05 1510.04,882.76 1512.34,882.85 1516.18,881.61 1519.38,882.03 1524.88,880.42 1526.3,879.26 1534.14,877.93 1531.73,879.81 1529.47,880.03 1528.39,883.2 1526.21,883.96 1524.8,887.08 1526.38,888.36 1533.09,887.37" fill="none" stroke="#1e1e1e" stroke-width="0.81" stroke-linecap="round" stroke-linejoin="round"/>
<path d="M569.1,950.9L569.94,952.28L568.21,954.12L567.47,960.04L560.37,960.74L557.94,963.22L555.59,964.27L552.85,963.1L549.54,964.81L546.92,962.94L543.3,966.17L541.75,965.73L537.79,960.93L538.1,954.9L535.14,951.72L534.31,948.61L533,949.3L529.93,956.54L528.93,951.61L530.57,948.11L532.46,938.65L540.74,920.75L543.13,917.44L546.64,915.62L550.66,915.09L553.8,918.61L556.23,919.31L559.57,922.06L560.86,924.59L561.08,929.76L560.61,931.15L558.6,931.67L558.28,933.95L563.9,938.56L563.57,940.15L561.21,941.73L560.9,945.02L564.68,946.35L569.1,950.9Z" fill-rule="evenodd" fill="#4682b4" fill-opacity="0.471"/>
<polyline points="569.1,950.9 569.94,952.28 568.21,954.12 567.47,960.04 560.37,960.74 557.94,963.22 555.59,964.27 552.85,963.1 549.54,964.81 546.92,962.94 543.3,966.17 541.75,965.73 537.79,960.93 538.1,954.9 535.14,951.72 534.31,948.61 533,949.3 529.93,956.54 528.93,951.61 530.57,948.11 532.46,938.65 540.74,920.75 543.13,917.44 546.64,915.62 550.66,915.09 553.8,918.61 556.23,919.31 559.57,922.06 560.86,924.59 561.08,929.76 560.61,931.15 558.6,931.67 558.28,933.95 563.9,938.56 563.57,940.15 561.21,941.73 560.9,945.02 564.68,946.35 569.1,950.9" fill="none" stroke="#1e1e1e" stroke-width="0.81" stroke-linecap="round" stroke-linejoin="round"/>
<path d="M1672.89,656.25L1673.94,657.92L1672.88,658.68L1666.99,654.42L1664.77,654.08L1655.98,657.49L1654.84,656.16L1651.97,655.15L1650.12,652.35L1644.58,647.97L1638.57,647.25L1637.09,646.21L1636.06,640.18L1637.61,638.31L1636.3,633.25L1634.67,632.64L1635.97,631.53L1634.58,630.73L1634.34,625.52L1639.84,617.58L1641.01,619.02L1643.3,617.68L1643.21,619.47L1647.03,618.14L1647.87,619.39L1649.56,619.12L1652.06,620.37L1653.37,619.71L1653.61,621.06L1656.51,622.21L1656.98,623.92L1658.84,624.03L1660.72,628.65L1664.2,630.87L1664.85,638.82L1667.44,646.56L1672.89,656.25Z" fill-rule="evenodd" fill="#4682b4" fill-opacity="0.471"/>
<polyline points="1672.89,656.25 1673.94,657.92 1672.88,658.68 1666.99,654.42 1664.77,654.08 1655.98,657.49 1654.84,656.16 1651.97,655.15 1650.12,652.35 1644.58,647.97 1638.57,647.25 1637.09,646.21 1636.06,640.18 1637.61,638.31 1636.3,633.25 1634.67,632.64 1635.97,631.53 1634.58,630.73 1634.34,625.52 1639.84,617.58 1641.01,619.02 1643.3,617.68 1643.21,619.47 1647.03,618.14 1647.87,619.39 1649.56,619.12 1652.06,620.37 1653.37,619.71 1653.61,621.06 1656.51,622.21 1656.98,623.92 1658.84,624.03 1660.72,628.65 1664.2,630.87 1664.85,638.82 1667.44,646.56 1672.89,656.25" fill="none" stroke="#1e1e1e" stroke-width="0.81" stroke-linecap="round" stroke-linejoin="round"/>
<path d="M1109.74,412.25L1110.86,412.15L1110.48,413.22L1106.77,415.66L1102.76,414.87L1101.26,416.09L1099.9,415.59L1096.93,416.21L1096.01,415.71L1096.6,415.13L1103.87,411.06L1103.03,410.03L1098.75,409.93L1097.72,413.27L1093.54,415.24L1093.31,418.42L1090.89,421.58L1090.42,423.77L1088.19,424.27L1087.51,426.37L1086.85,426.44L1087.16,424.8L1085.63,426.22L1086.65,429.76L1088.5,430.44L1089.56,433.38L1091.16,429.59L1096.04,430.39L1097.11,435.56L1096.66,436.7L1092.75,437.29L1092.43,435.96L1090.59,435.83L1090.19,436.74L1091.39,438.64L1084.33,441.84L1081.36,440.63L1078.64,440.56L1078,440.3L1078.25,439.39L1075.71,439.45L1076,438.62L1074.61,436.6L1071.68,438.18L1071.24,437.62L1074.19,434.45L1075.95,423.31L1075.38,421.07L1077.51,417.39L1082.11,416.6L1086.45,417.72L1086.87,416.47L1090.42,417.32L1088.69,422.92L1091.54,419.15L1092.09,414.96L1096.66,412.19L1095.78,408.31L1097.13,407.18L1107.81,408.31L1109.52,409.36L1109.74,410.11L1108.6,410.07L1105.04,415.01L1109.74,412.25Z" fill-rule="evenodd" fill="#4682b4" fill-opacity="0.471"/>
<polyline points="1109.74,412.25 1110.86,412.15 1110.48,413.22 1106.77,415.66 1102.76,414.87 1101.26,416.09 1099.9,415.59 1096.93,416.21 1096.01,415.71 1096.6,415.13 1103.87,411.06 1103.03,410.03 1098.75,409.93 1097.72,413.27 1093.54,415.24 1093.31,418.42 1090.89,421.58 1090.42,423.77 1088.19,424.27 1087.51,426.37 1086.85,426.44 1087.16,424.8 1085.63,426.22 1086.65,429.76 1088.5,430.44 1089.56,433.38 1091.16,429.59 1096.04,430.39 1097.11,435.56 1096.66,436.7 1092.75,437.29 1092.43,435.96 1090.59,435.83 1090.19,436.74 1091.39,438.64 1084.33,441.84 1081.36,440.63 1078.64,440.56 1078,440.3 1078.25,439.39 1075.71,439.45 1076,438.62 1074.61,436.6 1071.68,438.18 1071.24,437.62 1074.19,434.45 1075.95,423.31 1075.38,421.07 1077.51,417.39 1082.11,416.6 1086.45,417.72 1086.87,416.47 1090.42,417.32 1088.69,422.92 1091.54,419.15 1092.09,414.96 1096.66,412.19 1095.78,408.31 1097.13,407.18 1107.81,408.31 1109.52,409.36 1109.74,410.11 1108.6,410.07 1105.04,415.01 1109.74,412.25" fill="none" stroke="#1e1e1e" stroke-width="0.81" stroke-linecap="round" stroke-linejoin="round"/>
<path d="M924.92,265.66L926.44,267.27L923.94,272.19L924.83,278.38L922.6,282.58L919.1,284.75L917.42,287.35L915.7,285.16L914.82,285.53L915.83,286.91L914.46,288.14L915.76,289.53L913.02,289L910.36,291.99L908.61,290.56L907.38,292.26L905.48,292.2L905.04,291.36L909.21,288.45L910.61,283.66L913.58,282.44L914.62,280.51L918.1,277.52L919.59,273.02L921.85,272.14L921.58,271.27L923.3,269.62L924.92,265.66Z" fill-rule="evenodd" fill="#4682b4" fill-opacity="0.471"/>
<polyline points="924.92,265.66 926.44,267.27 923.94,272.19 924.83,278.38 922.6,282.58 919.1,284.75 917.42,287.35 915.7,285.16 914.82,285.53 915.83,286.91 914.46,288.14 915.76,289.53 913.02,289 910.36,291.99 908.61,290.56 907.38,292.26 905.48,292.2 905.04,291.36 909.21,288.45 910.61,283.66 913.58,282.44 914.62,280.51 918.1,277.52 919.59,273.02 921.85,272.14 921.58,271.27 923.3,269.62 924.92,265.66" fill="none" stroke="#1e1e1e" stroke-width="0.81" stroke-linecap="round" stroke-linejoin="round"/>
<path d="M1054.7,1026.14L1055.88,1025.35L1052.02,1037.85L1048.63,1040.9L1045.78,1040.65L1043.75,1042.97L1039.09,1041.34L1033.27,1045.31L1029.08,1045.4L1028.28,1046.62L1033.52,1052.8L1034.08,1056.85L1028.31,1056.89L1025.24,1055.21L1019.73,1049.26L1020.69,1045.53L1020.32,1044.28L1016.9,1044.09L1012.24,1042.07L1009.55,1043.74L1008.29,1043.69L997.48,1036.15L961.72,1028.88L962.4,1027.98L967.27,1028.27L969.53,1027.48L977.67,1029.07L980.1,1028L982.58,1028.89L993.45,1029.7L1003.89,1029.21L1008.75,1030.77L1010.28,1032.3L1014.23,1031.75L1017.6,1032.69L1018.68,1036.25L1024.47,1037.34L1021.85,1040.08L1023.93,1040.91L1030.89,1040.69L1041.78,1036.67L1048.54,1032.07L1054.03,1025L1054.7,1026.14Z" fill-rule="evenodd" fill="#4682b4" fill-opacity="0.471"/>
<polyline points="1054.7,1026.14 1055.88,1025.35 1052.02,1037.85 1048.63,1040.9 1045.78,1040.65 1043.75,1042.97 1039.09,1041.34 1033.27,1045.31 1029.08,1045.4 1028.28,1046.62 1033.52,1052.8 1034.08,1056.85 1028.31,1056.89 1025.24,1055.21 1019.73,1049.26 1020.69,1045.53 1020.32,1044.28 1016.9,1044.09 1012.24,1042.07 1009.55,1043.74 1008.29,1043.69 997.48,1036.15 961.72,1028.88 962.4,1027.98 967.27,1028.27 969.53,1027.48 977.67,1029.07 980.1,1028 982.58,1028.89 993.45,1029.7 1003.89,1029.21 1008.75,1030.77 1010.28,1032.3 1014.23,1031.75 1017.6,1032.69 1018.68,1036.25 1024.47,1037.34 1021.85,1040.08 1023.93,1040.91 1030.89,1040.69 1041.78,1036.67 1048.54,1032.07 1054.03,1025 1054.7,1026.14" fill="none" stroke="#1e1e1e" stroke-width="0.81" stroke-linecap="round" stroke-linejoin="round"/>
<path d="M1062.87,444.17L1063.37,447.58L1062.63,448.61L1061.29,447.98L1060.62,446.39L1057.93,445.54L1058.64,442.39L1059.52,441.55L1061.85,441.3L1062.36,441.96L1061.83,442.95L1062.87,444.17Z" fill-rule="evenodd" fill="#4682b4" fill-opacity="0.471"/>
<polyline points="1062.87,444.17 1063.37,447.58 1062.63,448.61 1061.29,447.98 1060.62,446.39 1057.93,445.54 1058.64,442.39 1059.52,441.55 1061.85,441.3 1062.36,441.96 1061.83,442.95 1062.87,444.17" fill="none" stroke="#1e1e1e" stroke-width="0.81" stroke-linecap="round" stroke-linejoin="round"/>
<path d="M1125.84,419.12L1126.59,423.38L1125.96,424.8L1123.97,425.95L1120.4,419.17L1117.65,417.84L1116.38,415.26L1117.97,415.28L1122.47,419.2L1123.15,421.84L1124.6,423.74L1125.44,422.99L1123.32,417.85L1125.25,417.61L1125.84,419.12Z" fill-rule="evenodd" fill="#4682b4" fill-opacity="0.471"/>
<polyline points="1125.84,419.12 1126.59,423.38 1125.96,424.8 1123.97,425.95 1120.4,419.17 1117.65,417.84 1116.38,415.26 1117.97,415.28 1122.47,419.2 1123.15,421.84 1124.6,423.74 1125.44,422.99 1123.32,417.85 1125.25,417.61 1125.84,419.12" fill="none" stroke="#1e1e1e" stroke-width="0.81" stroke-linecap="round" stroke-linejoin="round"/>
<path d="M613.34,747.71L616.54,743.67L619.65,733.73L626.37,726.95L628.33,719.18L630,716.34L631.58,715.8L633.12,707.51L636.5,700.63L638.12,699.74L642.09,701.27L641.32,698.14L643.14,695.99L649.18,697.9L650.48,697.42L652.28,698.45L653.44,695.43L656.55,695.53L657.75,697L660.88,692.95L663.69,692.68L663.35,695.48L660.4,699.41L657.13,700.21L654.28,698.51L652.97,699.58L651.5,699.62L648.55,702.87L645.18,704.12L641.88,716.52L637.07,718.16L635.32,721.56L632.18,724.25L628.94,736.47L630.4,745.23L628.29,748.69L623.49,752.33L625.22,753.65L623.76,758.29L625.86,762.4L625.67,764.74L624.03,767.5L622.57,767.34L623.19,768.45L619.44,780.05L617.12,783.96L613.7,787.46L611.18,788.42L606.5,787.46L605.58,785.47L606.11,781.44L607.5,779.48L609.35,779.5L610.49,776.89L607.9,766.14L607.72,760.91L613.34,747.71Z" fill-rule="evenodd" fill="#4682b4" fill-opacity="0.471"/>
<polyline points="613.34,747.71 616.54,743.67 619.65,733.73 626.37,726.95 628.33,719.18 630,716.34 631.58,715.8 633.12,707.51 636.5,700.63 638.12,699.74 642.09,701.27 641.32,698.14 643.14,695.99 649.18,697.9 650.48,697.42 652.28,698.45 653.44,695.43 656.55,695.53 657.75,697 660.88,692.95 663.69,692.68 663.35,695.48 660.4,699.41 657.13,700.21 654.28,698.51 652.97,699.58 651.5,699.62 648.55,702.87 645.18,704.12 641.88,716.52 637.07,718.16 635.32,721.56 632.18,724.25 628.94,736.47 630.4,745.23 628.29,748.69 623.49,752.33 625.22,753.65 623.76,758.29 625.86,762.4 625.67,764.74 624.03,767.5 622.57,767.34 623.19,768.45 619.44,780.05 617.12,783.96 613.7,787.46 611.18,788.42 606.5,787.46 605.58,785.47 606.11,781.44 607.5,779.48 609.35,779.5 610.49,776.89 607.9,766.14 607.72,760.91 613.34,747.71" fill="none" stroke="#1e1e1e" stroke-width="0.81" stroke-linecap="round" stroke-linejoin="round"/>
<path d="M682.95,689.38L677.68,680.8L674.5,673.46L677.44,673.41L678.16,674.76L684.46,674.22L686.6,676.82L687.28,679.47L686.92,687.13L682.95,689.38Z" fill-rule="evenodd" fill="#4682b4" fill-opacity="0.471"/>
<polyline points="682.95,689.38 677.68,680.8 674.5,673.46 677.44,673.41 678.16,674.76 684.46,674.22 686.6,676.82 687.28,679.47 686.92,687.13 682.95,689.38" fill="none" stroke="#1e1e1e" stroke-width="0.81" stroke-linecap="round" stroke-linejoin="round"/>
<path d="M729.44,693.21L728.25,691.08L730.89,688.66L731.87,686.04L728.25,674.67L727.52,674.55L725.48,677.46L724.27,677.22L724.11,677.91L723.32,677.24L721.56,679.31L717,676.52L712,671.48L709.21,672.56L705.2,672.69L703.91,673.87L702.32,673.61L696.43,667.88L696.19,665.08L698.25,658.67L703.02,656.86L708.75,652.46L710.92,652.36L712.77,654.5L714,657.95L715.16,666.66L717.53,661.03L718.06,657.62L718.54,659.03L722.99,662.16L727.08,660.82L731.5,657.76L726.19,652.67L721.6,650.03L721.71,648.34L724.15,648.12L734,651.27L734.2,653.5L731.65,661.68L734.05,666.53L736.19,668.96L738.52,669.99L746.66,671.27L750.81,670.4L752.73,668.52L751.34,665.36L751.71,663.97L750.39,663.83L750.47,663.22L754.54,661.54L755.51,659.26L757.77,659.33L759.74,657.97L760.44,658.96L761.8,658.11L764.97,658.05L761.14,663.71L754.52,670.21L753.19,669.83L752.83,673.03L753.65,675.93L749.3,685.08L746.94,686.27L744.94,686.02L743.72,687.53L738.4,688.54L736.92,690.31L733.34,691.82L732.97,693.23L729.44,693.21Z" fill-rule="evenodd" fill="#4682b4" fill-opacity="0.471"/>
<polyline points="729.44,693.21 728.25,691.08 730.89,688.66 731.87,686.04 728.25,674.67 727.52,674.55 725.48,677.46 724.27,677.22 724.11,677.91 723.32,677.24 721.56,679.31 717,676.52 712,671.48 709.21,672.56 705.2,672.69 703.91,673.87 702.32,673.61 696.43,667.88 696.19,665.08 698.25,658.67 703.02,656.86 708.75,652.46 710.92,652.36 712.77,654.5 714,657.95 715.16,666.66 717.53,661.03 718.06,657.62 718.54,659.03 722.99,662.16 727.08,660.82 731.5,657.76 726.19,652.67 721.6,650.03 721.71,648.34 724.15,648.12 734,651.27 734.2,653.5 731.65,661.68 734.05,666.53 736.19,668.96 738.52,669.99 746.66,671.27 750.81,670.4 752.73,668.52 751.34,665.36 751.71,663.97 750.39,663.83 750.47,663.22 754.54,661.54 755.51,659.26 757.77,659.33 759.74,657.97 760.44,658.96 761.8,658.11 764.97,658.05 761.14,663.71 754.52,670.21 753.19,669.83 752.83,673.03 753.65,675.93 749.3,685.08 746.94,686.27 744.94,686.02 743.72,687.53 738.4,688.54 736.92,690.31 733.34,691.82 732.97,693.23 729.44,693.21" fill="none" stroke="#1e1e1e" stroke-width="0.81" stroke-linecap="round" stroke-linejoin="round"/>
<text x="1318.93" y="676.58" font-family="sans-serif" font-size="14" stroke="#ffffff" stroke-opacity="0.784" stroke-width="2.33" stroke-linejoin="round" paint-order="stroke" fill="#141414">Lake Balkhash</text>
<text x="265.03" y="95.98" font-family="sans-serif" font-size="14" stroke="#ffffff" stroke-opacity="0.784" stroke-width="2.33" stroke-linejoin="round" paint-order="stroke" fill="#141414">Samara Reservoir</text>
<text x="1447.89" y="910.88" font-family="sans-serif" font-size="14" stroke="#ffffff" stroke-opacity="0.784" stroke-width="2.33" stroke-linejoin="round" paint-order="stroke" fill="#141414">Issyk-Kul</text>
<text x="1652.85" y="485.57" font-family="sans-serif" font-size="14" stroke="#ffffff" stroke-opacity="0.784" stroke-width="2.33" stroke-linejoin="round" paint-order="stroke" fill="#141414">Lake Zaysan</text>
<text x="474.05" y="949.35" font-family="sans-serif" font-size="14" stroke="#ffffff" stroke-opacity="0.784" stroke-width="2.33" stroke-linejoin="round" paint-order="stroke" fill="#141414">Sarygamysh Köli</text>
<text x="659.74" y="676.98" font-family="sans-serif" font-size="14" stroke="#ffffff" stroke-opacity="0.784" stroke-width="2.33" stroke-linejoin="round" paint-order="stroke" fill="#141414">North Aral Sea</text>
<text x="557.55" y="749.54" font-family="sans-serif" font-size="14" stroke="#ffffff" stroke-opacity="0.784" stroke-width="2.33" stroke-linejoin="round" paint-order="stroke" fill="#141414">South Aral Sea</text>
<text x="1625.5" y="644.73" font-family="sans-serif" font-size="14" stroke="#ffffff" stroke-opacity="0.784" stroke-width="2.33" stroke-linejoin="round" paint-order="stroke" fill="#141414">Alakol</text>
<text x="1335.37" y="124.7" font-family="sans-serif" font-size="14" stroke="#ffffff" stroke-opacity="0.784" stroke-width="2.33" stroke-linejoin="round" paint-order="stroke" fill="#141414">Lake Chany</text>
<text x="966.56" y="1045.33" font-family="sans-serif" font-size="14" stroke="#ffffff" stroke-opacity="0.784" stroke-width="2.33" stroke-linejoin="round" paint-order="stroke" fill="#141414">Aydar Ko‘l</text>
<text x="1038" y="433.23" font-family="sans-serif" font-size="14" stroke="#ffffff" stroke-opacity="0.784" stroke-width="2.33" stroke-linejoin="round" paint-order="stroke" fill="#141414">Tengiz Köli</text>
<text x="199.51" y="209.13" font-family="sans-serif" font-size="14" stroke="#ffffff" stroke-opacity="0.784" stroke-width="2.33" stroke-linejoin="round" paint-order="stroke" fill="#141414">Saratov Reservoir</text>
<text x="1472.52" y="114.93" font-family="sans-serif" font-size="14" stroke="#ffffff" stroke-opacity="0.784" stroke-width="2.33" stroke-linejoin="round" paint-order="stroke" fill="#141414">Novosibirsk Reservoir</text>
<text x="1394.64" y="820.04" font-family="sans-serif" font-size="14" stroke="#ffffff" stroke-opacity="0.784" stroke-width="2.33" stroke-linejoin="round" paint-order="stroke" fill="#141414">Kapchagay Reservoir</text>
<text x="1901.09" y="849.43" font-family="sans-serif" font-size="14" stroke="#ffffff" stroke-opacity="0.784" stroke-width="2.33" stroke-linejoin="round" paint-order="stroke" fill="#141414">Bosten Hu</text>
<text x="1391.38" y="230.61" font-family="sans-serif" font-size="14" stroke="#ffffff" stroke-opacity="0.784" stroke-width="2.33" stroke-linejoin="round" paint-order="stroke" fill="#141414">Ozero Kulundinskoye</text>
<text x="1177.96" y="242.01" font-family="sans-serif" font-size="14" stroke="#ffffff" stroke-opacity="0.784" stroke-width="2.33" stroke-linejoin="round" paint-order="stroke" fill="#141414">Siletitengiz Kli</text>
<text x="1677.17" y="712.77" font-family="sans-serif" font-size="14" stroke="#ffffff" stroke-opacity="0.784" stroke-width="2.33" stroke-linejoin="round" paint-order="stroke" fill="#141414">Ebinur Hu</text>
<text x="1170.24" y="973.29" font-family="sans-serif" font-size="14" stroke="#ffffff" stroke-opacity="0.784" stroke-width="2.33" stroke-linejoin="round" paint-order="stroke" fill="#141414">Toktogul Suu Saktagychy</text>
<text x="852.62" y="288.01" font-family="sans-serif" font-size="14" stroke="#ffffff" stroke-opacity="0.784" stroke-width="2.33" stroke-linejoin="round" paint-order="stroke" fill="#141414">Qusmuryn Köli</text>
<text x="1744.92" y="444.44" font-family="sans-serif" font-size="14" stroke="#ffffff" stroke-opacity="0.784" stroke-width="2.33" stroke-linejoin="round" paint-order="stroke" fill="#141414">Marqakol</text>
<text x="2" y="913.85" font-family="sans-serif" font-size="14" stroke="#ffffff" stroke-opacity="0.784" stroke-width="2.33" stroke-linejoin="round" paint-order="stroke" fill="#141414">Mingevir Reservoir</text>
<text x="1021.2" y="196.75" font-family="sans-serif" font-size="14" stroke="#ffffff" stroke-opacity="0.784" stroke-width="2.33" stroke-linejoin="round" paint-order="stroke" fill="#141414">Shaghalalytengiz Kli</text>
<text x="830.79" y="437.16" font-family="sans-serif" font-size="14" stroke="#ffffff" stroke-opacity="0.784" stroke-width="2.33" stroke-linejoin="round" paint-order="stroke" fill="#141414">Saryqopa Kli</text>
<text x="1297.55" y="450.51" font-family="sans-serif" font-size="14" stroke="#ffffff" stroke-opacity="0.784" stroke-width="2.33" stroke-linejoin="round" paint-order="stroke" fill="#141414">Qarasor Kli</text>
<text x="835.23" y="369.11" font-family="sans-serif" font-size="14" stroke="#ffffff" stroke-opacity="0.784" stroke-width="2.33" stroke-linejoin="round" paint-order="stroke" fill="#141414">Iken Aqsuat Kli</text>
<text x="1404.92" y="74.37" font-family="sans-serif" font-size="14" stroke="#ffffff" stroke-opacity="0.784" stroke-width="2.33" stroke-linejoin="round" paint-order="stroke" fill="#141414">Ubinskoye Lake</text>
<text x="113.16" y="243.36" font-family="sans-serif" font-size="14" stroke="#ffffff" stroke-opacity="0.784" stroke-width="2.33" stroke-linejoin="round" paint-order="stroke" fill="#141414">Volgograd Reservoir</text>
<text x="1292.93" y="296.77" font-family="sans-serif" font-size="14" stroke="#ffffff" stroke-opacity="0.784" stroke-width="2.33" stroke-linejoin="round" paint-order="stroke" fill="#141414">Shreksor Kli</text>
<text x="1123.54" y="157.83" font-family="sans-serif" font-size="14" stroke="#ffffff" stroke-opacity="0.784" stroke-width="2.33" stroke-linejoin="round" paint-order="stroke" fill="#141414">Ebeyty Lake</text>
<text x="744.89" y="391.87" font-family="sans-serif" font-size="14" stroke="#ffffff" stroke-opacity="0.784" stroke-width="2.33" stroke-linejoin="round" paint-order="stroke" fill="#141414">Yke Lake</text>
<text x="1057.23" y="400.65" font-family="sans-serif" font-size="14" stroke="#ffffff" stroke-opacity="0.784" stroke-width="2.33" stroke-linejoin="round" paint-order="stroke" fill="#141414">Qozhakl</text>
<text x="1002.93" y="267.59" font-family="sans-serif" font-size="14" stroke="#ffffff" stroke-opacity="0.784" stroke-width="2.33" stroke-linejoin="round" paint-order="stroke" fill="#141414">Imantau Kli</text>
<text x="1046.72" y="458.84" font-family="sans-serif" font-size="14" stroke="#ffffff" stroke-opacity="0.784" stroke-width="2.33" stroke-linejoin="round" paint-order="stroke" fill="#141414">Qiyakty Kli</text>
</svg>
