<?xml version="1.0" encoding="UTF-8" standalone="no"?>
<svg xmlns="http://www.w3.org/2000/svg" width="1707" height="2000" viewBox="0 0 1707 2000">
<rect width="1707" height="2000" fill="#ffffff"/>
<path d="M1163.64,1972.98L1160.33,1972.11L1158.91,1975.36L1163.64,1974.99L1163.64,1985.21L1162.22,1985.18L1161.57,1986.41L1162.79,1987.01L1163.64,1986.23L1163.64,1990.82L1129.55,1990.82L1129.43,1987.7L1128.52,1985.78L1128.66,1978.96L1126.99,1978.46L1128.12,1979.42L1127.43,1981.78L1126.58,1980.02L1125.47,1980.06L1125.7,1979.38L1124.67,1980.04L1125.78,1984.3L1126.92,1984.12L1125.51,1985L1125.24,1986.55L1126.27,1987.29L1125.48,1989.56L1124.02,1989.65L1123.9,1990.82L1121.55,1990.82L1122.18,1990.39L1121.41,1989.3L1123.12,1988.47L1124.34,1985.18L1123.76,1981.67L1122,1979.46L1122.79,1978.34L1123.4,1979.04L1124.89,1978.26L1125.24,1975.48L1126.53,1976.2L1127.12,1975.21L1127.27,1975.88L1128.18,1975.41L1128.08,1977.48L1130.34,1977.85L1132.57,1974.1L1130.7,1973.61L1130.88,1972.9L1131.44,1973.74L1133.2,1972.64L1134.15,1973.65L1133.86,1972.14L1135.45,1968.84L1133.13,1968.07L1131.99,1970.02L1130.85,1969.59L1131.4,1970.14L1132.94,1967.96L1134.09,1968.09L1132.15,1967.55L1133.73,1967.55L1133.74,1966.51L1133.9,1967.64L1136.27,1968.11L1134.7,1965.25L1132.95,1965.25L1132.68,1964.45L1132.4,1964.9L1133.67,1965.39L1135.22,1964.29L1134.88,1965.26L1136.58,1967.33L1137.35,1966.25L1136.39,1964.57L1137.76,1966.33L1138.73,1964.67L1139.79,1965.57L1141.07,1963.9L1138.99,1962.5L1139.31,1961.5L1139.11,1962.51L1141.18,1963.8L1140.37,1966.2L1142.38,1966.23L1142.97,1961.33L1141.72,1958.87L1140.43,1958.18L1138.91,1959.4L1139.54,1958.67L1138.45,1958.9L1138.24,1957.49L1136.85,1957.46L1135.67,1955.38L1136.97,1957.39L1138.34,1957.36L1138.6,1958.49L1140.68,1957.28L1141.54,1957.89L1141.77,1957.01L1141.6,1958.05L1143.28,1959.63L1144.97,1957.99L1143.25,1960.28L1143.62,1963.43L1145.03,1964.02L1146.91,1960.31L1146.14,1956.63L1146.74,1955.58L1145.42,1955.81L1148.37,1954.74L1146.4,1956.36L1147.28,1960.31L1149.28,1958.93L1149.18,1962.98L1151.33,1963.29L1149.25,1963.93L1149.11,1968.7L1153.82,1970.06L1159.14,1969.07L1163.64,1970.41L1163.64,1972.98ZM1148.18,1989.4L1148.24,1987.95L1143.55,1987.96L1144.63,1990.36L1146.79,1990.54L1148.18,1989.4ZM1150.5,1982.36L1151.84,1981.22L1147.35,1979.87L1148,1981.5L1150.5,1982.36ZM1145.6,1974.64L1141.15,1972.05L1142.6,1975.53L1145.6,1974.64ZM1147.68,1960.76L1147.53,1962.34L1148.41,1962.21L1147.68,1960.76Z" fill-rule="evenodd" fill="#4682b4" fill-opacity="0.471"/>
<polyline points="1163.64,1972.98 1160.33,1972.11 1158.91,1975.36 1163.64,1974.99 1163.64,1985.21 1162.22,1985.18 1161.57,1986.41 1162.79,1987.01 1163.64,1986.23 1163.64,1990.82 1129.55,1990.82 1129.43,1987.7 1128.52,1985.78 1128.66,1978.96 1126.99,1978.46 1128.12,1979.42 1127.43,1981.78 1126.58,1980.02 1125.47,1980.06 1125.7,1979.38 1124.67,1980.04 1125.78,1984.3 1126.92,1984.12 1125.51,1985 1125.24,1986.55 1126.27,1987.29 1125.48,1989.56 1124.02,1989.65 1123.9,1990.82 1121.55,1990.82 1122.18,1990.39 1121.41,1989.3 1123.12,1988.47 1124.34,1985.18 1123.76,1981.67 1122,1979.46 1122.79,1978.34 1123.4,1979.04 1124.89,1978.26 1125.24,1975.48 1126.53,1976.2 1127.12,1975.21 1127.27,1975.88 1128.18,1975.41 1128.08,1977.48 1130.34,1977.85 1132.57,1974.1 1130.7,1973.61 1130.88,1972.9 1131.44,1973.74 1133.2,1972.64 1134.15,1973.65 1133.86,1972.14 1135.45,1968.84 1133.13,1968.07 1131.99,1970.02 1130.85,1969.59 1131.4,1970.14 1132.94,1967.96 1134.09,1968.09 1132.15,1967.55 1133.73,1967.55 1133.74,1966.51 1133.9,1967.64 1136.27,1968.11 1134.7,1965.25 1132.95,1965.25 1132.68,1964.45 1132.4,1964.9 1133.67,1965.39 1135.22,1964.29 1134.88,1965.26 1136.58,1967.33 1137.35,1966.25 1136.39,1964.57 1137.76,1966.33 1138.73,1964.67 1139.79,1965.57 1141.07,1963.9 1138.99,1962.5 1139.31,1961.5 1139.11,1962.51 1141.18,1963.8 1140.37,1966.2 1142.38,1966.23 1142.97,1961.33 1141.72,1958.87 1140.43,1958.18 1138.91,1959.4 1139.54,1958.67 1138.45,1958.9 1138.24,1957.49 1136.85,1957.46 1135.67,1955.38 1136.97,1957.39 1138.34,1957.36 1138.6,1958.49 1140.68,1957.28 1141.54,1957.89 1141.77,1957.01 1141.6,1958.05 1143.28,1959.63 1144.97,1957.99 1143.25,1960.28 1143.62,1963.43 1145.03,1964.02 1146.91,1960.31 1146.14,1956.63 1146.74,1955.58 1145.42,1955.81 1148.37,1954.74 1146.4,1956.36 1147.28,1960.31 1149.28,1958.93 1149.18,1962.98 1151.33,1963.29 1149.25,1963.93 1149.11,1968.7 1153.82,1970.06 1159.14,1969.07 1163.64,1970.41 1163.64,1972.98" fill="none" stroke="#1e1e1e" stroke-width="1.33" stroke-linecap="round" stroke-linejoin="round"/>
<polyline points="1148.18,1989.4 1148.24,1987.95 1143.55,1987.96 1144.63,1990.36 1146.79,1990.54 1148.18,1989.4" fill="none" stroke="#1e1e1e" stroke-width="1.33" stroke-linecap="round" stroke-linejoin="round"/>
<polyline points="1150.5,1982.36 1151.84,1981.22 1147.35,1979.87 1148,1981.5 1150.5,1982.36" fill="none" stroke="#1e1e1e" stroke-width="1.33" stroke-linecap="round" stroke-linejoin="round"/>
<polyline points="1145.6,1974.64 1141.15,1972.05 1142.6,1975.53 1145.6,1974.64" fill="none" stroke="#1e1e1e" stroke-width="1.33" stroke-linecap="round" stroke-linejoin="round"/>
<polyline points="1147.68,1960.76 1147.53,1962.34 1148.41,1962.21 1147.68,1960.76" fill="none" stroke="#1e1e1e" stroke-width="1.33" stroke-linecap="round" stroke-linejoin="round"/>
<path d="M1163.45,1990.82L1163.45,1986.41L1164.72,1985.24L1163.45,1985.21L1163.45,1975.01L1168.27,1975.43L1168.95,1976.36L1169.92,1975.58L1168.87,1972.97L1166.79,1973.82L1163.45,1972.93L1163.45,1970.35L1166.15,1971.15L1169.72,1970.45L1167.92,1963.56L1168.78,1962.74L1167.76,1963.39L1167.12,1961.34L1168.09,1956.86L1169.34,1958.08L1174.19,1954.34L1176.53,1955.69L1176.9,1958.8L1179.42,1957.63L1180.55,1955.11L1180.42,1952.36L1181.88,1950.92L1181.64,1946.78L1183.9,1940.35L1185.7,1936.11L1189.51,1932.76L1189.42,1929.55L1189.96,1927.75L1191.68,1926.54L1192.9,1923.67L1192.46,1922.58L1193.49,1923.26L1193.26,1922.52L1194.62,1922.77L1195.5,1921.82L1196.02,1924.24L1197.01,1924.01L1197.1,1926.47L1198.24,1926.33L1200.46,1916.37L1210.73,1891.04L1213.93,1877.29L1226.8,1853.83L1226.24,1850.31L1228.57,1848.68L1229.28,1846.74L1231.04,1846.96L1232.95,1845.78L1238.8,1837.96L1237.78,1836.23L1238.15,1834.71L1245.52,1825.78L1246.16,1823.57L1248.31,1821.08L1259.52,1796.61L1262.74,1783.88L1266.64,1774.13L1266.25,1773.16L1268.32,1769.63L1267.31,1765.75L1267.77,1760.48L1266.36,1756.69L1269.08,1754.52L1275.13,1741.86L1280.32,1726.03L1289.05,1708.09L1288.71,1704.48L1290.68,1704.11L1296.96,1698.48L1297.93,1697.99L1298.38,1698.62L1298.71,1697.51L1301.05,1696.88L1301.72,1695.47L1307.05,1693.01L1311.36,1689.47L1319.39,1684.92L1322.33,1680.67L1321.87,1679.69L1323.74,1675.9L1322.66,1674.34L1323.18,1669.03L1321.8,1664.64L1325.69,1658.43L1325.52,1656.48L1326.97,1656.4L1330.04,1650.56L1329.05,1640.86L1330.04,1638.65L1332.59,1636.66L1332.01,1632.05L1333.98,1629.42L1337.14,1628.2L1337.34,1625.67L1339.01,1623.44L1342.78,1622.19L1345.1,1620.04L1345.9,1620.86L1346.63,1619.35L1346.06,1617.11L1344.44,1617.5L1341.97,1620.24L1338.17,1620.31L1336.72,1617.86L1334.08,1616.34L1332.18,1612.89L1330.81,1612.68L1330.68,1610.57L1331.38,1610.2L1330.5,1606.73L1332.24,1600.29L1331.79,1593.74L1334.79,1584.62L1334.68,1581.65L1698.88,1581.67L1698.85,1990.85L1163.45,1990.82Z" fill-rule="evenodd" fill="#4682b4" fill-opacity="0.471"/>
<polyline points="1163.45,1990.82 1163.45,1986.41 1164.72,1985.24 1163.45,1985.21 1163.45,1975.01 1168.27,1975.43 1168.95,1976.36 1169.92,1975.58 1168.87,1972.97 1166.79,1973.82 1163.45,1972.93 1163.45,1970.35 1166.15,1971.15 1169.72,1970.45 1167.92,1963.56 1168.78,1962.74 1167.76,1963.39 1167.12,1961.34 1168.09,1956.86 1169.34,1958.08 1174.19,1954.34 1176.53,1955.69 1176.9,1958.8 1179.42,1957.63 1180.55,1955.11 1180.42,1952.36 1181.88,1950.92 1181.64,1946.78 1183.9,1940.35 1185.7,1936.11 1189.51,1932.76 1189.42,1929.55 1189.96,1927.75 1191.68,1926.54 1192.9,1923.67 1192.46,1922.58 1193.49,1923.26 1193.26,1922.52 1194.62,1922.77 1195.5,1921.82 1196.02,1924.24 1197.01,1924.01 1197.1,1926.47 1198.24,1926.33 1200.46,1916.37 1210.73,1891.04 1213.93,1877.29 1226.8,1853.83 1226.24,1850.31 1228.57,1848.68 1229.28,1846.74 1231.04,1846.96 1232.95,1845.78 1238.8,1837.96 1237.78,1836.23 1238.15,1834.71 1245.52,1825.78 1246.16,1823.57 1248.31,1821.08 1259.52,1796.61 1262.74,1783.88 1266.64,1774.13 1266.25,1773.16 1268.32,1769.63 1267.31,1765.75 1267.77,1760.48 1266.36,1756.69 1269.08,1754.52 1275.13,1741.86 1280.32,1726.03 1289.05,1708.09 1288.71,1704.48 1290.68,1704.11 1296.96,1698.48 1297.93,1697.99 1298.38,1698.62 1298.71,1697.51 1301.05,1696.88 1301.72,1695.47 1307.05,1693.01 1311.36,1689.47 1319.39,1684.92 1322.33,1680.67 1321.87,1679.69 1323.74,1675.9 1322.66,1674.34 1323.18,1669.03 1321.8,1664.64 1325.69,1658.43 1325.52,1656.48 1326.97,1656.4 1330.04,1650.56 1329.05,1640.86 1330.04,1638.65 1332.59,1636.66 1332.01,1632.05 1333.98,1629.42 1337.14,1628.2 1337.34,1625.67 1339.01,1623.44 1342.78,1622.19 1345.1,1620.04 1345.9,1620.86 1346.63,1619.35 1346.06,1617.11 1344.44,1617.5 1341.97,1620.24 1338.17,1620.31 1336.72,1617.86 1334.08,1616.34 1332.18,1612.89 1330.81,1612.68 1330.68,1610.57 1331.38,1610.2 1330.5,1606.73 1332.24,1600.29 1331.79,1593.74 1334.79,1584.62 1334.68,1581.65 1698.88,1581.67 1698.85,1990.85 1163.45,1990.82" fill="none" stroke="#1e1e1e" stroke-width="1.33" stroke-linecap="round" stroke-linejoin="round"/>
<path d="M1698.88,1581.86L1334.69,1581.84L1334.59,1578.99L1336.76,1570.65L1335.42,1569.61L1342.97,1557.44L1351.78,1547.22L1366.28,1537.57L1368.4,1535.11L1393.21,1524.48L1408.07,1522.47L1409.13,1522.96L1409.34,1524.64L1414.94,1525.28L1416.71,1526.72L1424.48,1528.71L1431.59,1523.94L1439.81,1514.84L1445.27,1510.7L1452.82,1506.43L1458.62,1505.96L1460.5,1500.95L1469.75,1493.44L1470.17,1488.95L1468.5,1485.88L1465.51,1485.3L1463.97,1482.82L1464.78,1485.18L1462.64,1484.08L1463.37,1486.97L1462.31,1487.58L1462.02,1490.55L1461.4,1490.33L1460.72,1492.24L1459.83,1491.3L1458.98,1491.89L1460.05,1494.42L1458.99,1494.3L1458.52,1493.24L1456.47,1494.68L1458.68,1492.63L1458.26,1491.57L1460.63,1490.1L1459.17,1489.95L1458.44,1490.66L1458.09,1489.17L1459.08,1488.48L1459.61,1489.47L1460.92,1488.14L1460.41,1486.29L1459.61,1487.38L1458.82,1486.78L1459.52,1485.21L1457.61,1484.97L1458.08,1483.45L1456.57,1478.05L1449.61,1475.05L1449.77,1476.81L1446.46,1476.33L1446.64,1475.38L1445.42,1476.37L1444.33,1475.46L1445.06,1475.06L1445.09,1473.05L1442.25,1472.12L1445.12,1470.22L1445.58,1471.01L1447.69,1471.38L1446.51,1470.89L1445.47,1468.24L1446.73,1468.02L1447.14,1469.57L1448.55,1469.83L1449.48,1468.36L1450.48,1469.16L1449.5,1471.4L1450.27,1470.97L1453.41,1473.48L1454.17,1473.1L1455.28,1475.53L1455.92,1475L1456.46,1475.85L1454.29,1471.53L1453.04,1471.06L1452.68,1471.72L1452.01,1470.67L1452.27,1468.44L1453.04,1469.58L1453.25,1468.03L1455.07,1468.92L1452.22,1467.22L1451.48,1464.98L1449.37,1467.33L1448.32,1466.08L1446.31,1465.66L1447.84,1465.63L1448.81,1462.98L1449.56,1463.92L1449.86,1462.17L1448.03,1458.13L1444.53,1454.38L1448.2,1456.92L1449.27,1459.22L1449.99,1458.11L1450.58,1461.12L1453.49,1462.9L1453.71,1458.98L1454.31,1463.37L1455.33,1462.9L1454.97,1463.82L1456.28,1464.41L1457.44,1464.56L1457.39,1463.01L1458.36,1462.99L1458.53,1461.75L1459.95,1460.94L1458.56,1464.05L1460.15,1464.05L1460.01,1463.1L1461.21,1462.63L1460.22,1463.36L1461.34,1466.06L1462.68,1464.35L1463.3,1464.77L1465.14,1463.25L1464.46,1461.52L1463.12,1461.46L1464.44,1460.1L1465.3,1459.99L1465.49,1461.37L1468.49,1459.39L1471.15,1458.85L1473.89,1459.93L1471.04,1462.57L1475.94,1460.26L1477,1460.39L1475.24,1461.37L1475.72,1461.85L1477.71,1461.09L1478.24,1461.84L1478.15,1460.61L1479.21,1460.55L1479.61,1461.45L1480.2,1460.22L1482.34,1461.07L1480.67,1459.7L1477.62,1460.09L1479.39,1458.23L1481.53,1458.88L1480.69,1458.06L1481.94,1457.93L1477.92,1455.69L1482.72,1456.18L1481.89,1455.65L1481.81,1453.66L1479.7,1453.46L1482.19,1452.76L1482.84,1450.25L1483.94,1451.28L1483.95,1452.8L1483.09,1452.97L1483.51,1454.02L1484.44,1453.01L1485.43,1453.99L1486.08,1452.88L1487.09,1454.19L1486.23,1455.07L1487.02,1456.01L1491.1,1457.97L1492.29,1457.11L1493,1458.24L1493.26,1457.27L1490.58,1456.06L1490.09,1452.08L1491.93,1452.07L1493.05,1453.5L1494.54,1452.31L1492.32,1450.22L1491.27,1451.96L1490.1,1451.94L1489.53,1448.82L1490.14,1444.87L1489.42,1443.09L1490.91,1442.33L1490.1,1440.88L1489.88,1442.07L1488.99,1441.71L1489.1,1431.61L1492.46,1428.9L1497.38,1426.76L1496.65,1426.02L1497.26,1424.61L1498.49,1425.87L1499.69,1424.65L1498.68,1423.79L1498.71,1421.02L1499.78,1420.86L1498.36,1419.56L1498.48,1416.98L1496.9,1416.66L1497.74,1413.57L1499.39,1411.63L1498.9,1411.19L1501.77,1407.54L1500.86,1405.91L1501.96,1402.77L1500.9,1398.59L1503.58,1395.51L1502.83,1394.65L1505.35,1394.95L1506.4,1391.97L1508.24,1390.25L1509.1,1390.52L1508.71,1389.81L1509.82,1390.21L1509.42,1391.02L1509.34,1390.21L1507.84,1391L1510.4,1393.74L1509.32,1393.62L1509.27,1394.5L1508.36,1393.79L1507.57,1395.95L1505.7,1398.08L1503.9,1398.47L1504.09,1399.79L1503.29,1400.31L1505.18,1402.3L1505.4,1404.98L1504.32,1410.08L1505.2,1413.49L1504.42,1413.19L1503.61,1414.4L1505.08,1415.65L1506.1,1419.26L1507.06,1419.02L1509.05,1420.9L1510.86,1421.16L1510.43,1420.6L1512.02,1420.37L1512.47,1419.07L1513.81,1420.12L1516.55,1415.43L1516.16,1414.42L1518.69,1412.84L1518.3,1412.01L1519.48,1411.88L1519.69,1414.09L1520.65,1413.39L1519.9,1411.53L1521.16,1411.15L1520.45,1410.41L1521.83,1406.72L1526.07,1405.48L1525.7,1404.91L1527.28,1403.71L1527.7,1405.23L1528.24,1404.03L1531.81,1402.62L1532.34,1405.89L1533.78,1402.42L1534.5,1403.67L1535.01,1402.3L1536.2,1402.73L1537.39,1401.72L1538.64,1402.51L1538.03,1404.04L1538.7,1404.55L1543.27,1403.96L1544.03,1403.12L1544.96,1403.59L1545.04,1401.48L1542.7,1402.84L1542.84,1401.08L1541.16,1402.01L1540.42,1400.82L1539.28,1401.47L1539.39,1400.43L1542.31,1397.87L1541.94,1396.4L1544.1,1395.69L1544.25,1394.57L1545.24,1395L1548.29,1391.56L1549.41,1391.47L1550.32,1389.08L1551.73,1389.33L1554.31,1387.49L1554.13,1388.61L1555.26,1389.02L1553.82,1391.54L1555.87,1390.43L1554.72,1393.72L1557.74,1390.34L1557.55,1391.92L1558.4,1391.93L1557.84,1393.45L1559.33,1393.38L1559.24,1392.04L1561.02,1391.49L1560.33,1392.51L1560.83,1393.54L1561.52,1393.31L1560.61,1394.64L1561.18,1395.52L1559.01,1396.57L1559.07,1397.59L1558.29,1397.02L1557.44,1397.66L1557.73,1398.74L1558.74,1398.67L1557.44,1399.81L1559.32,1400.58L1558.34,1401.39L1559.64,1401.83L1559.71,1400.53L1560.58,1401.12L1559.77,1399.32L1561.14,1398.81L1560.46,1397.61L1561.95,1398.02L1562.1,1396.79L1563.39,1396.32L1563.62,1397.82L1564.49,1397.01L1564.54,1397.7L1566.8,1397.42L1567.56,1399.14L1565.64,1400.36L1565.93,1401.94L1567.11,1400.08L1567.63,1400.52L1565.95,1403.13L1566.08,1407.1L1570,1404.15L1571.61,1401.35L1573.58,1401.47L1573.33,1402.77L1574.18,1400.38L1576.29,1398.6L1575.58,1398.52L1575.83,1397.32L1579.28,1392.51L1582.11,1391.98L1582.84,1389.14L1589.83,1382.49L1588.6,1383.39L1586.62,1381.99L1587.14,1381.19L1584.45,1382.18L1584.69,1381.31L1587.17,1380.15L1588.66,1382.18L1590.4,1380.32L1590.61,1378.27L1596.93,1372.39L1596.12,1371.68L1596.77,1371.8L1597.3,1369.7L1600.04,1367.86L1608.19,1358.21L1611.2,1356.56L1616.71,1347.19L1623.43,1341.21L1628.63,1334.66L1631.09,1333.77L1631.45,1335.41L1632.74,1333.97L1631.51,1333.22L1631.14,1331.6L1633.02,1327.32L1636.4,1322.88L1638.78,1321.76L1639.64,1318.64L1643.26,1314.86L1652.69,1298.4L1658.54,1291.28L1659.2,1288.32L1662.56,1284.22L1663.79,1283.96L1662.77,1282.64L1665.34,1278.84L1670.43,1274.04L1671.84,1271.54L1673.42,1271.02L1672.95,1269.59L1676.54,1264.2L1676.11,1263.29L1681.64,1256.08L1684.09,1251.32L1683.35,1250.36L1684.82,1246.23L1684.31,1244L1685.62,1243.56L1687.63,1245.01L1690.96,1244.63L1691.93,1245.32L1691.38,1246.77L1695.08,1243.88L1698.49,1239.57L1697.9,1239.27L1695.21,1242.56L1693.6,1242.31L1692.71,1243.41L1693.37,1241.9L1692.07,1241.65L1698.37,1234.53L1696.65,1235.55L1697.45,1234.87L1696.64,1233.27L1698.91,1230.73L1698.88,1581.86ZM1446.21,1474.32L1448.06,1475.32L1448.19,1473.89L1446.25,1472.87L1446.21,1474.32ZM1479.2,1465.52L1474.27,1465.53L1472.49,1467.55L1474.01,1469.48L1475.27,1469.35L1471.23,1469.65L1470.78,1468.44L1470.46,1469.77L1469.05,1470.46L1468.96,1474.21L1468.21,1473.68L1467.95,1474.84L1468.77,1477.66L1468.03,1476.14L1468.32,1481.6L1478.6,1474.29L1484.44,1472.9L1488.75,1473.77L1489.43,1472.49L1485.51,1464.24L1483.53,1462.66L1483.16,1464.2L1482.34,1463.64L1482.77,1463.04L1481.38,1465.02L1480.69,1463.84L1480.24,1465.33L1479.82,1464.36L1479.2,1465.52ZM1463.25,1468.55L1462.57,1468.31L1462.12,1469.85L1460.16,1471.32L1461.61,1471.68L1463.25,1468.55ZM1499.88,1469.67L1498.14,1473.41L1496.99,1472.66L1496.19,1473.37L1494.41,1471.87L1490.91,1474.38L1491.09,1471.91L1488.84,1476.02L1491.45,1478.25L1495.87,1477.37L1498.79,1474.86L1501.43,1469.18L1505.12,1465.36L1504.34,1465.31L1504.23,1463.38L1502.06,1460.32L1502.1,1457.73L1500.11,1457.19L1500.8,1457.95L1499.97,1458.86L1501.68,1460.47L1500.68,1461.13L1500.72,1462.77L1502.23,1463.2L1500.18,1463.74L1499.4,1465.27L1497.6,1463.77L1500.05,1461.89L1498.18,1461.06L1497.91,1459.75L1495.32,1459.32L1495.09,1457.35L1494.42,1457.36L1495.14,1457.84L1494.25,1458.81L1496.6,1461.02L1495.57,1461.35L1493.67,1464.49L1495.29,1465.22L1494.31,1465.99L1492.78,1464.69L1494.56,1461.07L1492.34,1461.38L1491.52,1459.61L1491.23,1460.25L1489.06,1458.22L1486.8,1457.96L1487.81,1464.78L1489.33,1465.46L1492.11,1469.91L1493.53,1470.59L1495.68,1469.95L1497.81,1471.36L1499.88,1469.67ZM1455.62,1466.05L1456.12,1467.51L1457.81,1466.53L1455.62,1466.05ZM1463.04,1467.83L1466.13,1464.92L1463.04,1467.83ZM1452.52,1465.57L1454.09,1466.32L1454.24,1465.03L1452.52,1465.57ZM1470.42,1462.38L1468.42,1463.88L1469.91,1463.71L1470.42,1462.38ZM1517.37,1442.27L1516.04,1443.88L1518.85,1445.25L1520.15,1443.62L1517.37,1442.27ZM1502.91,1443.34L1505.34,1441.3L1502.84,1441.05L1502.71,1442.59L1502.02,1442.62L1502.91,1443.34ZM1513.09,1440.56L1511.92,1439.85L1511.34,1441L1512.53,1441.36L1513.09,1440.56ZM1500.97,1435.25L1503.92,1436.1L1504.18,1439.04L1506.61,1440.49L1509.88,1440.33L1510.75,1439.44L1508.59,1437.92L1512.12,1436.62L1515.02,1434.06L1518.21,1434.09L1519.92,1429.9L1516.44,1428.77L1516.41,1429.64L1513.73,1430.37L1511.49,1432.29L1508.72,1431.41L1507.66,1433.32L1508.37,1435.62L1506.27,1434.07L1506.91,1429.9L1505.6,1431.11L1506.27,1432.16L1505.58,1431.62L1501.24,1433.45L1500.97,1435.25ZM1536.09,1428.47L1536.23,1430.4L1535.02,1429.42L1534.81,1431.75L1533.68,1432.73L1536.32,1434.88L1539.45,1434.9L1539.92,1433.74L1539.04,1433.84L1539.3,1432.91L1538.02,1432.48L1536.84,1433.22L1535.73,1432.47L1535.55,1430.93L1538.16,1431.11L1539.24,1429.87L1539.07,1431.39L1542.16,1427.44L1541.3,1426.23L1537.67,1425.37L1536.56,1423.64L1536.69,1424.27L1535.56,1424.05L1537.47,1425.83L1534.03,1426.37L1535.35,1425.57L1531.97,1423.08L1531.49,1423.65L1532.61,1425.04L1531.99,1425.29L1530.61,1423.63L1530.73,1421.3L1530.51,1423.22L1528.63,1421.65L1527.49,1421.62L1528.02,1422.97L1525.51,1422.36L1525.1,1421.17L1524.56,1423.56L1523.53,1424.08L1524.59,1425.01L1523.86,1426.74L1519.83,1428.67L1520.56,1430.89L1521.8,1431.63L1520.76,1432.27L1519.7,1431.59L1518.6,1434.31L1517.83,1434.18L1518.52,1436.49L1519.86,1435.62L1518.58,1438.66L1516.13,1438.95L1519.41,1439.6L1523.45,1438.02L1522.85,1437.38L1521.01,1437.76L1522.3,1436.62L1524.09,1436.6L1523.39,1434.68L1525.79,1435.82L1526.55,1434.47L1526.72,1435.6L1525.06,1436.01L1524.74,1437.88L1526.2,1439.23L1524.88,1439.59L1524.33,1438.56L1523.87,1439.43L1526.84,1440.28L1529.66,1440.07L1531.25,1438.82L1529.37,1437.02L1530.24,1434.47L1527.23,1431.7L1528.38,1431.66L1527.66,1431.3L1529.26,1430.35L1528.93,1429.47L1532.05,1427.47L1533.69,1428.63L1536.09,1428.47ZM1500.18,1420.87L1500.35,1421.9L1501.24,1421.2L1500.81,1419.55L1500.18,1420.87ZM1523.92,1407.37L1524.24,1409.28L1524.94,1407.98L1526.18,1408.86L1526.05,1408.08L1523.92,1407.37ZM1536.16,1418.85L1534.36,1419.19L1538.85,1420.77L1536.16,1418.85ZM1536.95,1413.69L1537.36,1414.87L1546.65,1416.38L1548.4,1412.44L1547.83,1410.61L1545.54,1412.12L1544.16,1412.03L1543.77,1413.71L1542.98,1412.24L1538.16,1412.39L1538.41,1413.1L1536.95,1413.69ZM1550.46,1413.32L1552.71,1414.23L1552.52,1412.1L1551.75,1412.67L1550.17,1410.48L1550.32,1412.91L1549.53,1411.66L1550.46,1413.32ZM1561.48,1417.11L1572.06,1403.45L1565.12,1410.06L1560.15,1417.45L1561.48,1417.11ZM1546.66,1407.95L1545.53,1407.91L1545.05,1406.94L1544.34,1408.56L1542.34,1408.37L1543.42,1409.4L1542.44,1408.48L1543.89,1408.95L1546.66,1407.95ZM1547.42,1405.11L1546.2,1404.72L1547.74,1407.23L1547.42,1405.11ZM1578.95,1394.52L1579.31,1395.33L1576.21,1399.19L1579.97,1395.44L1578.95,1394.52ZM1552.44,1393.63L1552.08,1392.5L1551.28,1393.23L1551.42,1394.12L1552.44,1393.63ZM1580.98,1394.35L1584.11,1391.37L1582.97,1390.97L1583.28,1391.83L1581.32,1393.61L1580.99,1392.96L1580.98,1394.35ZM1588.57,1387.18L1600,1376.4L1598.73,1376.08L1599.32,1376.53L1598.77,1376.19L1594.04,1379.76L1588.57,1387.18ZM1612.17,1359.64L1611.77,1361.34L1611.03,1360.86L1611.71,1361.95L1615.1,1357.6L1612.12,1360.77L1612.99,1359.16L1612.17,1359.64Z" fill-rule="evenodd" fill="#4682b4" fill-opacity="0.471"/>
<polyline points="1698.88,1581.86 1334.69,1581.84 1334.59,1578.99 1336.76,1570.65 1335.42,1569.61 1342.97,1557.44 1351.78,1547.22 1366.28,1537.57 1368.4,1535.11 1393.21,1524.48 1408.07,1522.47 1409.13,1522.96 1409.34,1524.64 1414.94,1525.28 1416.71,1526.72 1424.48,1528.71 1431.59,1523.94 1439.81,1514.84 1445.27,1510.7 1452.82,1506.43 1458.62,1505.96 1460.5,1500.95 1469.75,1493.44 1470.17,1488.95 1468.5,1485.88 1465.51,1485.3 1463.97,1482.82 1464.78,1485.18 1462.64,1484.08 1463.37,1486.97 1462.31,1487.58 1462.02,1490.55 1461.4,1490.33 1460.72,1492.24 1459.83,1491.3 1458.98,1491.89 1460.05,1494.42 1458.99,1494.3 1458.52,1493.24 1456.47,1494.68 1458.68,1492.63 1458.26,1491.57 1460.63,1490.1 1459.17,1489.95 1458.44,1490.66 1458.09,1489.17 1459.08,1488.48 1459.61,1489.47 1460.92,1488.14 1460.41,1486.29 1459.61,1487.38 1458.82,1486.78 1459.52,1485.21 1457.61,1484.97 1458.08,1483.45 1456.57,1478.05 1449.61,1475.05 1449.77,1476.81 1446.46,1476.33 1446.64,1475.38 1445.42,1476.37 1444.33,1475.46 1445.06,1475.06 1445.09,1473.05 1442.25,1472.12 1445.12,1470.22 1445.58,1471.01 1447.69,1471.38 1446.51,1470.89 1445.47,1468.24 1446.73,1468.02 1447.14,1469.57 1448.55,1469.83 1449.48,1468.36 1450.48,1469.16 1449.5,1471.4 1450.27,1470.97 1453.41,1473.48 1454.17,1473.1 1455.28,1475.53 1455.92,1475 1456.46,1475.85 1454.29,1471.53 1453.04,1471.06 1452.68,1471.72 1452.01,1470.67 1452.27,1468.44 1453.04,1469.58 1453.25,1468.03 1455.07,1468.92 1452.22,1467.22 1451.48,1464.98 1449.37,1467.33 1448.32,1466.08 1446.31,1465.66 1447.84,1465.63 1448.81,1462.98 1449.56,1463.92 1449.86,1462.17 1448.03,1458.13 1444.53,1454.38 1448.2,1456.92 1449.27,1459.22 1449.99,1458.11 1450.58,1461.12 1453.49,1462.9 1453.71,1458.98 1454.31,1463.37 1455.33,1462.9 1454.97,1463.82 1456.28,1464.41 1457.44,1464.56 1457.39,1463.01 1458.36,1462.99 1458.53,1461.75 1459.95,1460.94 1458.56,1464.05 1460.15,1464.05 1460.01,1463.1 1461.21,1462.63 1460.22,1463.36 1461.34,1466.06 1462.68,1464.35 1463.3,1464.77 1465.14,1463.25 1464.46,1461.52 1463.12,1461.46 1464.44,1460.1 1465.3,1459.99 1465.49,1461.37 1468.49,1459.39 1471.15,1458.85 1473.89,1459.93 1471.04,1462.57 1475.94,1460.26 1477,1460.39 1475.24,1461.37 1475.72,1461.85 1477.71,1461.09 1478.24,1461.84 1478.15,1460.61 1479.21,1460.55 1479.61,1461.45 1480.2,1460.22 1482.34,1461.07 1480.67,1459.7 1477.62,1460.09 1479.39,1458.23 1481.53,1458.88 1480.69,1458.06 1481.94,1457.93 1477.92,1455.69 1482.72,1456.18 1481.89,1455.65 1481.81,1453.66 1479.7,1453.46 1482.19,1452.76 1482.84,1450.25 1483.94,1451.28 1483.95,1452.8 1483.09,1452.97 1483.51,1454.02 1484.44,1453.01 1485.43,1453.99 1486.08,1452.88 1487.09,1454.19 1486.23,1455.07 1487.02,1456.01 1491.1,1457.97 1492.29,1457.11 1493,1458.24 1493.26,1457.27 1490.58,1456.06 1490.09,1452.08 1491.93,1452.07 1493.05,1453.5 1494.54,1452.31 1492.32,1450.22 1491.27,1451.96 1490.1,1451.94 1489.53,1448.82 1490.14,1444.87 1489.42,1443.09 1490.91,1442.33 1490.1,1440.88 1489.88,1442.07 1488.99,1441.71 1489.1,1431.61 1492.46,1428.9 1497.38,1426.76 1496.65,1426.02 1497.26,1424.61 1498.49,1425.87 1499.69,1424.65 1498.68,1423.79 1498.71,1421.02 1499.78,1420.86 1498.36,1419.56 1498.48,1416.98 1496.9,1416.66 1497.74,1413.57 1499.39,1411.63 1498.9,1411.19 1501.77,1407.54 1500.86,1405.91 1501.96,1402.77 1500.9,1398.59 1503.58,1395.51 1502.83,1394.65 1505.35,1394.95 1506.4,1391.97 1508.24,1390.25 1509.1,1390.52 1508.71,1389.81 1509.82,1390.21 1509.42,1391.02 1509.34,1390.21 1507.84,1391 1510.4,1393.74 1509.32,1393.62 1509.27,1394.5 1508.36,1393.79 1507.57,1395.95 1505.7,1398.08 1503.9,1398.47 1504.09,1399.79 1503.29,1400.31 1505.18,1402.3 1505.4,1404.98 1504.32,1410.08 1505.2,1413.49 1504.42,1413.19 1503.61,1414.4 1505.08,1415.65 1506.1,1419.26 1507.06,1419.02 1509.05,1420.9 1510.86,1421.16 1510.43,1420.6 1512.02,1420.37 1512.47,1419.07 1513.81,1420.12 1516.55,1415.43 1516.16,1414.42 1518.69,1412.84 1518.3,1412.01 1519.48,1411.88 1519.69,1414.09 1520.65,1413.39 1519.9,1411.53 1521.16,1411.15 1520.45,1410.41 1521.83,1406.72 1526.07,1405.48 1525.7,1404.91 1527.28,1403.71 1527.7,1405.23 1528.24,1404.03 1531.81,1402.62 1532.34,1405.89 1533.78,1402.42 1534.5,1403.67 1535.01,1402.3 1536.2,1402.73 1537.39,1401.72 1538.64,1402.51 1538.03,1404.04 1538.7,1404.55 1543.27,1403.96 1544.03,1403.12 1544.96,1403.59 1545.04,1401.48 1542.7,1402.84 1542.84,1401.08 1541.16,1402.01 1540.42,1400.82 1539.28,1401.47 1539.39,1400.43 1542.31,1397.87 1541.94,1396.4 1544.1,1395.69 1544.25,1394.57 1545.24,1395 1548.29,1391.56 1549.41,1391.47 1550.32,1389.08 1551.73,1389.33 1554.31,1387.49 1554.13,1388.61 1555.26,1389.02 1553.82,1391.54 1555.87,1390.43 1554.72,1393.72 1557.74,1390.34 1557.55,1391.92 1558.4,1391.93 1557.84,1393.45 1559.33,1393.38 1559.24,1392.04 1561.02,1391.49 1560.33,1392.51 1560.83,1393.54 1561.52,1393.31 1560.61,1394.64 1561.18,1395.52 1559.01,1396.57 1559.07,1397.59 1558.29,1397.02 1557.44,1397.66 1557.73,1398.74 1558.74,1398.67 1557.44,1399.81 1559.32,1400.58 1558.34,1401.39 1559.64,1401.83 1559.71,1400.53 1560.58,1401.12 1559.77,1399.32 1561.14,1398.81 1560.46,1397.61 1561.95,1398.02 1562.1,1396.79 1563.39,1396.32 1563.62,1397.82 1564.49,1397.01 1564.54,1397.7 1566.8,1397.42 1567.56,1399.14 1565.64,1400.36 1565.93,1401.94 1567.11,1400.08 1567.63,1400.52 1565.95,1403.13 1566.08,1407.1 1570,1404.15 1571.61,1401.35 1573.58,1401.47 1573.33,1402.77 1574.18,1400.38 1576.29,1398.6 1575.58,1398.52 1575.83,1397.32 1579.28,1392.51 1582.11,1391.98 1582.84,1389.14 1589.83,1382.49 1588.6,1383.39 1586.62,1381.99 1587.14,1381.19 1584.45,1382.18 1584.69,1381.31 1587.17,1380.15 1588.66,1382.18 1590.4,1380.32 1590.61,1378.27 1596.93,1372.39 1596.12,1371.68 1596.77,1371.8 1597.3,1369.7 1600.04,1367.86 1608.19,1358.21 1611.2,1356.56 1616.71,1347.19 1623.43,1341.21 1628.63,1334.66 1631.09,1333.77 1631.45,1335.41 1632.74,1333.97 1631.51,1333.22 1631.14,1331.6 1633.02,1327.32 1636.4,1322.88 1638.78,1321.76 1639.64,1318.64 1643.26,1314.86 1652.69,1298.4 1658.54,1291.28 1659.2,1288.32 1662.56,1284.22 1663.79,1283.96 1662.77,1282.64 1665.34,1278.84 1670.43,1274.04 1671.84,1271.54 1673.42,1271.02 1672.95,1269.59 1676.54,1264.2 1676.11,1263.29 1681.64,1256.08 1684.09,1251.32 1683.35,1250.36 1684.82,1246.23 1684.31,1244 1685.62,1243.56 1687.63,1245.01 1690.96,1244.63 1691.93,1245.32 1691.38,1246.77 1695.08,1243.88 1698.49,1239.57 1697.9,1239.27 1695.21,1242.56 1693.6,1242.31 1692.71,1243.41 1693.37,1241.9 1692.07,1241.65 1698.37,1234.53 1696.65,1235.55 1697.45,1234.87 1696.64,1233.27 1698.91,1230.73 1698.88,1581.86" fill="none" stroke="#1e1e1e" stroke-width="1.33" stroke-linecap="round" stroke-linejoin="round"/>
<polyline points="1446.21,1474.32 1448.06,1475.32 1448.19,1473.89 1446.25,1472.87 1446.21,1474.32" fill="none" stroke="#1e1e1e" stroke-width="1.33" stroke-linecap="round" stroke-linejoin="round"/>
<polyline points="1479.2,1465.52 1474.27,1465.53 1472.49,1467.55 1474.01,1469.48 1475.27,1469.35 1471.23,1469.65 1470.78,1468.44 1470.46,1469.77 1469.05,1470.46 1468.96,1474.21 1468.21,1473.68 1467.95,1474.84 1468.77,1477.66 1468.03,1476.14 1468.32,1481.6 1478.6,1474.29 1484.44,1472.9 1488.75,1473.77 1489.43,1472.49 1485.51,1464.24 1483.53,1462.66 1483.16,1464.2 1482.34,1463.64 1482.77,1463.04 1481.38,1465.02 1480.69,1463.84 1480.24,1465.33 1479.82,1464.36 1479.2,1465.52" fill="none" stroke="#1e1e1e" stroke-width="1.33" stroke-linecap="round" stroke-linejoin="round"/>
<polyline points="1463.25,1468.55 1462.57,1468.31 1462.12,1469.85 1460.16,1471.32 1461.61,1471.68 1463.25,1468.55" fill="none" stroke="#1e1e1e" stroke-width="1.33" stroke-linecap="round" stroke-linejoin="round"/>
<polyline points="1499.88,1469.67 1498.14,1473.41 1496.99,1472.66 1496.19,1473.37 1494.41,1471.87 1490.91,1474.38 1491.09,1471.91 1488.84,1476.02 1491.45,1478.25 1495.87,1477.37 1498.79,1474.86 1501.43,1469.18 1505.12,1465.36 1504.34,1465.31 1504.23,1463.38 1502.06,1460.32 1502.1,1457.73 1500.11,1457.19 1500.8,1457.95 1499.97,1458.86 1501.68,1460.47 1500.68,1461.13 1500.72,1462.77 1502.23,1463.2 1500.18,1463.74 1499.4,1465.27 1497.6,1463.77 1500.05,1461.89 1498.18,1461.06 1497.91,1459.75 1495.32,1459.32 1495.09,1457.35 1494.42,1457.36 1495.14,1457.84 1494.25,1458.81 1496.6,1461.02 1495.57,1461.35 1493.67,1464.49 1495.29,1465.22 1494.31,1465.99 1492.78,1464.69 1494.56,1461.07 1492.34,1461.38 1491.52,1459.61 1491.23,1460.25 1489.06,1458.22 1486.8,1457.96 1487.81,1464.78 1489.33,1465.46 1492.11,1469.91 1493.53,1470.59 1495.68,1469.95 1497.81,1471.36 1499.88,1469.67" fill="none" stroke="#1e1e1e" stroke-width="1.33" stroke-linecap="round" stroke-linejoin="round"/>
<polyline points="1455.62,1466.05 1456.12,1467.51 1457.81,1466.53 1455.62,1466.05" fill="none" stroke="#1e1e1e" stroke-width="1.33" stroke-linecap="round" stroke-linejoin="round"/>
<polyline points="1463.04,1467.83 1466.13,1464.92 1463.04,1467.83" fill="none" stroke="#1e1e1e" stroke-width="1.33" stroke-linecap="round" stroke-linejoin="round"/>
<polyline points="1452.52,1465.57 1454.09,1466.32 1454.24,1465.03 1452.52,1465.57" fill="none" stroke="#1e1e1e" stroke-width="1.33" stroke-linecap="round" stroke-linejoin="round"/>
<polyline points="1470.42,1462.38 1468.42,1463.88 1469.91,1463.71 1470.42,1462.38" fill="none" stroke="#1e1e1e" stroke-width="1.33" stroke-linecap="round" stroke-linejoin="round"/>
<polyline points="1517.37,1442.27 1516.04,1443.88 1518.85,1445.25 1520.15,1443.62 1517.37,1442.27" fill="none" stroke="#1e1e1e" stroke-width="1.33" stroke-linecap="round" stroke-linejoin="round"/>
<polyline points="1502.91,1443.34 1505.34,1441.3 1502.84,1441.05 1502.71,1442.59 1502.02,1442.62 1502.91,1443.34" fill="none" stroke="#1e1e1e" stroke-width="1.33" stroke-linecap="round" stroke-linejoin="round"/>
<polyline points="1513.09,1440.56 1511.92,1439.85 1511.34,1441 1512.53,1441.36 1513.09,1440.56" fill="none" stroke="#1e1e1e" stroke-width="1.33" stroke-linecap="round" stroke-linejoin="round"/>
<polyline points="1500.97,1435.25 1503.92,1436.1 1504.18,1439.04 1506.61,1440.49 1509.88,1440.33 1510.75,1439.44 1508.59,1437.92 1512.12,1436.62 1515.02,1434.06 1518.21,1434.09 1519.92,1429.9 1516.44,1428.77 1516.41,1429.64 1513.73,1430.37 1511.49,1432.29 1508.72,1431.41 1507.66,1433.32 1508.37,1435.62 1506.27,1434.07 1506.91,1429.9 1505.6,1431.11 1506.27,1432.16 1505.58,1431.62 1501.24,1433.45 1500.97,1435.25" fill="none" stroke="#1e1e1e" stroke-width="1.33" stroke-linecap="round" stroke-linejoin="round"/>
<polyline points="1536.09,1428.47 1536.23,1430.4 1535.02,1429.42 1534.81,1431.75 1533.68,1432.73 1536.32,1434.88 1539.45,1434.9 1539.92,1433.74 1539.04,1433.84 1539.3,1432.91 1538.02,1432.48 1536.84,1433.22 1535.73,1432.47 1535.55,1430.93 1538.16,1431.11 1539.24,1429.87 1539.07,1431.39 1542.16,1427.44 1541.3,1426.23 1537.67,1425.37 1536.56,1423.64 1536.69,1424.27 1535.56,1424.05 1537.47,1425.83 1534.03,1426.37 1535.35,1425.57 1531.97,1423.08 1531.49,1423.65 1532.61,1425.04 1531.99,1425.29 1530.61,1423.63 1530.73,1421.3 1530.51,1423.22 1528.63,1421.65 1527.49,1421.62 1528.02,1422.97 1525.51,1422.36 1525.1,1421.17 1524.56,1423.56 1523.53,1424.08 1524.59,1425.01 1523.86,1426.74 1519.83,1428.67 1520.56,1430.89 1521.8,1431.63 1520.76,1432.27 1519.7,1431.59 1518.6,1434.31 1517.83,1434.18 1518.52,1436.49 1519.86,1435.62 1518.58,1438.66 1516.13,1438.95 1519.41,1439.6 1523.45,1438.02 1522.85,1437.38 1521.01,1437.76 1522.3,1436.62 1524.09,1436.6 1523.39,1434.68 1525.79,1435.82 1526.55,1434.47 1526.72,1435.6 1525.06,1436.01 1524.74,1437.88 1526.2,1439.23 1524.88,1439.59 1524.33,1438.56 1523.87,1439.43 1526.84,1440.28 1529.66,1440.07 1531.25,1438.82 1529.37,1437.02 1530.24,1434.47 1527.23,1431.7 1528.38,1431.66 1527.66,1431.3 1529.26,1430.35 1528.93,1429.47 1532.05,1427.47 1533.69,1428.63 1536.09,1428.47" fill="none" stroke="#1e1e1e" stroke-width="1.33" stroke-linecap="round" stroke-linejoin="round"/>
<polyline points="1500.18,1420.87 1500.35,1421.9 1501.24,1421.2 1500.81,1419.55 1500.18,1420.87" fill="none" stroke="#1e1e1e" stroke-width="1.33" stroke-linecap="round" stroke-linejoin="round"/>
<polyline points="1523.92,1407.37 1524.24,1409.28 1524.94,1407.98 1526.18,1408.86 1526.05,1408.08 1523.92,1407.37" fill="none" stroke="#1e1e1e" stroke-width="1.33" stroke-linecap="round" stroke-linejoin="round"/>
<polyline points="1536.16,1418.85 1534.36,1419.19 1538.85,1420.77 1536.16,1418.85" fill="none" stroke="#1e1e1e" stroke-width="1.33" stroke-linecap="round" stroke-linejoin="round"/>
<polyline points="1536.95,1413.69 1537.36,1414.87 1546.65,1416.38 1548.4,1412.44 1547.83,1410.61 1545.54,1412.12 1544.16,1412.03 1543.77,1413.71 1542.98,1412.24 1538.16,1412.39 1538.41,1413.1 1536.95,1413.69" fill="none" stroke="#1e1e1e" stroke-width="1.33" stroke-linecap="round" stroke-linejoin="round"/>
<polyline points="1550.46,1413.32 1552.71,1414.23 1552.52,1412.1 1551.75,1412.67 1550.17,1410.48 1550.32,1412.91 1549.53,1411.66 1550.46,1413.32" fill="none" stroke="#1e1e1e" stroke-width="1.33" stroke-linecap="round" stroke-linejoin="round"/>
<polyline points="1561.48,1417.11 1572.06,1403.45 1565.12,1410.06 1560.15,1417.45 1561.48,1417.11" fill="none" stroke="#1e1e1e" stroke-width="1.33" stroke-linecap="round" stroke-linejoin="round"/>
<polyline points="1546.66,1407.95 1545.53,1407.91 1545.05,1406.94 1544.34,1408.56 1542.34,1408.37 1543.42,1409.4 1542.44,1408.48 1543.89,1408.95 1546.66,1407.95" fill="none" stroke="#1e1e1e" stroke-width="1.33" stroke-linecap="round" stroke-linejoin="round"/>
<polyline points="1547.42,1405.11 1546.2,1404.72 1547.74,1407.23 1547.42,1405.11" fill="none" stroke="#1e1e1e" stroke-width="1.33" stroke-linecap="round" stroke-linejoin="round"/>
<polyline points="1578.95,1394.52 1579.31,1395.33 1576.21,1399.19 1579.97,1395.44 1578.95,1394.52" fill="none" stroke="#1e1e1e" stroke-width="1.33" stroke-linecap="round" stroke-linejoin="round"/>
<polyline points="1552.44,1393.63 1552.08,1392.5 1551.28,1393.23 1551.42,1394.12 1552.44,1393.63" fill="none" stroke="#1e1e1e" stroke-width="1.33" stroke-linecap="round" stroke-linejoin="round"/>
<polyline points="1580.98,1394.35 1584.11,1391.37 1582.97,1390.97 1583.28,1391.83 1581.32,1393.61 1580.99,1392.96 1580.98,1394.35" fill="none" stroke="#1e1e1e" stroke-width="1.33" stroke-linecap="round" stroke-linejoin="round"/>
<polyline points="1588.57,1387.18 1600,1376.4 1598.73,1376.08 1599.32,1376.53 1598.77,1376.19 1594.04,1379.76 1588.57,1387.18" fill="none" stroke="#1e1e1e" stroke-width="1.33" stroke-linecap="round" stroke-linejoin="round"/>
<polyline points="1612.17,1359.64 1611.77,1361.34 1611.03,1360.86 1611.71,1361.95 1615.1,1357.6 1612.12,1360.77 1612.99,1359.16 1612.17,1359.64" fill="none" stroke="#1e1e1e" stroke-width="1.33" stroke-linecap="round" stroke-linejoin="round"/>
</svg>
