<?xml version="1.0" encoding="UTF-8" standalone="no"?>
<svg xmlns="http://www.w3.org/2000/svg" width="2000" height="92" viewBox="0 0 2000 92">
<rect width="2000" height="92" fill="#ffffff"/>
<path d="M1142.22,19.43L1141.9,22.06L1138.14,25.25L1137.61,23.95L1138.14,23.02L1142.22,19.43Z" fill-rule="evenodd" fill="#4682b4" fill-opacity="0.471"/>
<polyline points="1142.22,19.43 1141.9,22.06 1138.14,25.25 1137.61,23.95 1138.14,23.02 1142.22,19.43" fill="none" stroke="#1e1e1e" stroke-width="0.5" stroke-linecap="round" stroke-linejoin="round"/>
<path d="M1154.62,84L1154.79,79.27L1153.23,76.38L1153.79,74.73L1156.06,77.23L1156.23,82.38L1157.59,84L1154.62,84Z" fill-rule="evenodd" fill="#4682b4" fill-opacity="0.471"/>
<polyline points="1154.62,84 1154.79,79.27 1153.23,76.38 1153.79,74.73 1156.06,77.23 1156.23,82.38 1157.59,84 1154.62,84" fill="none" stroke="#1e1e1e" stroke-width="0.5" stroke-linecap="round" stroke-linejoin="round"/>
<path d="M1139.04,70.53L1137.47,70.17L1138.05,68.44L1136.61,67.01L1136.02,64.24L1133.36,61.99L1131.78,58.73L1132.63,56.53L1131.38,53.98L1131.99,45.82L1134.04,50.83L1133.72,53.21L1134.75,54.11L1134.37,55.69L1135.33,57.62L1134.17,59.52L1135.27,60.75L1136.24,60.57L1138.09,62.87L1138.12,65.46L1140.62,69.78L1140.71,71.3L1140.01,71.54L1139.04,70.53Z" fill-rule="evenodd" fill="#4682b4" fill-opacity="0.471"/>
<polyline points="1139.04,70.53 1137.47,70.17 1138.05,68.44 1136.61,67.01 1136.02,64.24 1133.36,61.99 1131.78,58.73 1132.63,56.53 1131.38,53.98 1131.99,45.82 1134.04,50.83 1133.72,53.21 1134.75,54.11 1134.37,55.69 1135.33,57.62 1134.17,59.52 1135.27,60.75 1136.24,60.57 1138.09,62.87 1138.12,65.46 1140.62,69.78 1140.71,71.3 1140.01,71.54 1139.04,70.53" fill="none" stroke="#1e1e1e" stroke-width="0.5" stroke-linecap="round" stroke-linejoin="round"/>
<path d="M1146.14,30.12L1147.84,29.91L1148.25,28.75L1148.35,29.69L1149.86,29.64L1151.64,27.78L1152.19,29.24L1152.94,28.6L1153.77,29.4L1154.54,28.87L1154.6,30.12ZM1149.01,30.12L1148.82,30.12ZM1150.79,29.41L1150.79,29.41ZM1151.31,29.98L1151.31,29.98ZM1151.74,28.94L1150.9,29.24L1151.52,29.74L1151.74,28.94ZM1153.54,29.75L1154.08,29.75L1153.54,29.75Z" fill-rule="evenodd" fill="#4682b4" fill-opacity="0.471"/>
<polyline points="1146.14,30.12 1146.21,30.12" fill="none" stroke="#1e1e1e" stroke-width="0.5" stroke-linecap="round" stroke-linejoin="round"/>
<polyline points="1146.58,30.12 1146.87,30.12" fill="none" stroke="#1e1e1e" stroke-width="0.5" stroke-linecap="round" stroke-linejoin="round"/>
<polyline points="1146.95,30.12 1147.84,29.91 1148.25,28.75 1148.35,29.69 1149.86,29.64 1151.64,27.78 1152.19,29.24 1152.94,28.6 1153.77,29.4 1154.54,28.87 1154.6,30.12" fill="none" stroke="#1e1e1e" stroke-width="0.5" stroke-linecap="round" stroke-linejoin="round"/>
<polyline points="1149.01,30.12 1148.82,30.12" fill="none" stroke="#1e1e1e" stroke-width="0.5" stroke-linecap="round" stroke-linejoin="round"/>
<polyline points="1150.79,29.41 1150.79,29.41" fill="none" stroke="#1e1e1e" stroke-width="0.5" stroke-linecap="round" stroke-linejoin="round"/>
<polyline points="1151.31,29.98 1151.31,29.98" fill="none" stroke="#1e1e1e" stroke-width="0.5" stroke-linecap="round" stroke-linejoin="round"/>
<polyline points="1151.74,28.94 1150.9,29.24 1151.52,29.74 1151.74,28.94" fill="none" stroke="#1e1e1e" stroke-width="0.5" stroke-linecap="round" stroke-linejoin="round"/>
<polyline points="1153.54,29.75 1154.08,29.75 1153.54,29.75" fill="none" stroke="#1e1e1e" stroke-width="0.5" stroke-linecap="round" stroke-linejoin="round"/>
<path d="M1154.2,37.33L1152.98,37.04L1152.91,38.48L1151.22,39.17L1152.47,39.67L1150.86,40.08L1153.4,39.94L1153.82,40.57L1151.87,42.14L1150.25,41.37L1149.27,41.78L1149.95,43.69L1149.37,43.3L1148.69,44.3L1149.1,41.94L1148.27,41.33L1147.52,42.11L1147.75,41.59L1146.2,40.72L1145.48,41.35L1145.89,42.13L1144.85,42.33L1145.22,43.11L1144.68,42.52L1144.12,43.37L1144.49,42.36L1143.84,42.07L1144.02,41.07L1143.44,41.21L1143.36,39.55L1144.61,34.94L1143.79,33.88L1145.39,31.65L1145.29,30.33L1154.6,30.12L1155.98,31.99L1156.25,31.01L1158.09,30.52L1158.57,31.57L1154.9,32.75L1155.48,34.22L1154.02,36.03L1154.54,36.57L1153.63,36.4L1154.2,37.33ZM1155.32,32.03L1155.32,32.03ZM1154.37,32.3L1154.92,32.35L1154.37,32.3ZM1144.32,38.6L1144.32,38.6ZM1144.11,40.19L1144.11,40.19ZM1144.79,41.49L1144.28,40.4L1144.79,41.49ZM1144.72,37.82L1144.52,38.33L1144.72,37.82ZM1145.5,40.91L1144.95,41.17L1145.5,40.91ZM1146.54,31.78L1145.45,31.33L1146.38,31.99L1145.86,32.65L1146.54,31.78ZM1146.81,31.33L1146.81,31.33ZM1147.04,31.85L1147.04,31.85ZM1147.66,41.07L1147.21,40.78L1147.24,41.49L1147.66,41.07ZM1147.75,31.96L1147.32,32.48L1147.75,31.96ZM1148.76,30.21L1148.76,30.21ZM1149,30.62L1148.32,30.59L1149,30.62ZM1149.92,38.62L1149.92,38.62ZM1150.75,40.18L1150.38,39.38L1149.06,39.2L1149.19,39.87L1150.75,40.18ZM1153.34,30.73L1153.34,30.73Z" fill-rule="evenodd" fill="#4682b4" fill-opacity="0.471"/>
<polyline points="1154.2,37.33 1152.98,37.04 1152.91,38.48 1151.22,39.17 1152.47,39.67 1150.86,40.08 1153.4,39.94 1153.82,40.57 1151.87,42.14 1150.25,41.37 1149.27,41.78 1149.95,43.69 1149.37,43.3 1148.69,44.3 1149.1,41.94 1148.27,41.33 1147.52,42.11 1147.75,41.59 1146.2,40.72 1145.48,41.35 1145.89,42.13 1144.85,42.33 1145.22,43.11 1144.68,42.52 1144.19,43.46 1144.49,42.36 1143.84,42.07 1144.02,41.07 1143.44,41.21 1143.36,39.55 1144.61,34.94 1143.79,33.88 1145.39,31.65 1144.84,30.75 1146.14,30.12" fill="none" stroke="#1e1e1e" stroke-width="0.5" stroke-linecap="round" stroke-linejoin="round"/>
<polyline points="1146.21,30.12 1146.58,30.12" fill="none" stroke="#1e1e1e" stroke-width="0.5" stroke-linecap="round" stroke-linejoin="round"/>
<polyline points="1146.87,30.12 1146.95,30.12" fill="none" stroke="#1e1e1e" stroke-width="0.5" stroke-linecap="round" stroke-linejoin="round"/>
<polyline points="1154.6,30.12 1155.98,31.99 1156.25,31.01 1157.8,30.54 1158.65,31.47 1154.9,32.75 1155.48,34.22 1154.02,36.03 1154.54,36.57 1153.63,36.4 1154.2,37.33" fill="none" stroke="#1e1e1e" stroke-width="0.5" stroke-linecap="round" stroke-linejoin="round"/>
<polyline points="1155.32,32.03 1155.32,32.03" fill="none" stroke="#1e1e1e" stroke-width="0.5" stroke-linecap="round" stroke-linejoin="round"/>
<polyline points="1154.37,32.3 1154.92,32.35 1154.37,32.3" fill="none" stroke="#1e1e1e" stroke-width="0.5" stroke-linecap="round" stroke-linejoin="round"/>
<polyline points="1144.32,38.6 1144.32,38.6" fill="none" stroke="#1e1e1e" stroke-width="0.5" stroke-linecap="round" stroke-linejoin="round"/>
<polyline points="1144.11,40.19 1144.11,40.19" fill="none" stroke="#1e1e1e" stroke-width="0.5" stroke-linecap="round" stroke-linejoin="round"/>
<polyline points="1144.79,41.49 1144.28,40.4 1144.79,41.49" fill="none" stroke="#1e1e1e" stroke-width="0.5" stroke-linecap="round" stroke-linejoin="round"/>
<polyline points="1144.72,37.82 1144.52,38.33 1144.72,37.82" fill="none" stroke="#1e1e1e" stroke-width="0.5" stroke-linecap="round" stroke-linejoin="round"/>
<polyline points="1145.5,40.91 1144.95,41.17 1145.5,40.91" fill="none" stroke="#1e1e1e" stroke-width="0.5" stroke-linecap="round" stroke-linejoin="round"/>
<polyline points="1146.54,31.78 1145.45,31.33 1146.38,31.99 1145.86,32.65 1146.54,31.78" fill="none" stroke="#1e1e1e" stroke-width="0.5" stroke-linecap="round" stroke-linejoin="round"/>
<polyline points="1146.81,31.33 1146.81,31.33" fill="none" stroke="#1e1e1e" stroke-width="0.5" stroke-linecap="round" stroke-linejoin="round"/>
<polyline points="1147.04,31.85 1147.04,31.85" fill="none" stroke="#1e1e1e" stroke-width="0.5" stroke-linecap="round" stroke-linejoin="round"/>
<polyline points="1147.66,41.07 1147.21,40.78 1147.24,41.49 1147.66,41.07" fill="none" stroke="#1e1e1e" stroke-width="0.5" stroke-linecap="round" stroke-linejoin="round"/>
<polyline points="1147.75,31.96 1147.32,32.48 1147.75,31.96" fill="none" stroke="#1e1e1e" stroke-width="0.5" stroke-linecap="round" stroke-linejoin="round"/>
<polyline points="1148.76,30.21 1149.01,30.12" fill="none" stroke="#1e1e1e" stroke-width="0.5" stroke-linecap="round" stroke-linejoin="round"/>
<polyline points="1148.82,30.12 1148.76,30.21" fill="none" stroke="#1e1e1e" stroke-width="0.5" stroke-linecap="round" stroke-linejoin="round"/>
<polyline points="1149,30.62 1148.32,30.59 1149,30.62" fill="none" stroke="#1e1e1e" stroke-width="0.5" stroke-linecap="round" stroke-linejoin="round"/>
<polyline points="1149.92,38.62 1149.92,38.62" fill="none" stroke="#1e1e1e" stroke-width="0.5" stroke-linecap="round" stroke-linejoin="round"/>
<polyline points="1150.75,40.18 1150.38,39.38 1149.06,39.2 1149.19,39.87 1150.75,40.18" fill="none" stroke="#1e1e1e" stroke-width="0.5" stroke-linecap="round" stroke-linejoin="round"/>
<polyline points="1153.34,30.73 1153.34,30.73" fill="none" stroke="#1e1e1e" stroke-width="0.5" stroke-linecap="round" stroke-linejoin="round"/>
<path d="M1131.2,70.7L1129.22,74.58L1128.21,74.2L1128.32,74.88L1127.33,74.94L1127.44,72.97L1130.02,70.11L1131.2,70.7Z" fill-rule="evenodd" fill="#4682b4" fill-opacity="0.471"/>
<polyline points="1131.2,70.7 1129.22,74.58 1128.21,74.2 1128.32,74.88 1127.33,74.94 1127.44,72.97 1130.02,70.11 1131.2,70.7" fill="none" stroke="#1e1e1e" stroke-width="0.5" stroke-linecap="round" stroke-linejoin="round"/>
<path d="M1135.11,81.79L1134.05,83.88L1132.87,83.71L1133.54,82.1L1132.5,82.75L1133.66,81.57L1133.6,82.14L1134.61,81.17L1135.11,81.79Z" fill-rule="evenodd" fill="#4682b4" fill-opacity="0.471"/>
<polyline points="1135.11,81.79 1134.05,83.88 1132.87,83.71 1133.54,82.1 1132.5,82.75 1133.66,81.57 1133.6,82.14 1134.61,81.17 1135.11,81.79" fill="none" stroke="#1e1e1e" stroke-width="0.5" stroke-linecap="round" stroke-linejoin="round"/>
<path d="M1132.63,39.78L1130.31,41.75L1131.28,37.65L1132.27,38.11L1132.63,39.78ZM1131.53,39.33L1131.13,40.75L1131.53,39.33Z" fill-rule="evenodd" fill="#4682b4" fill-opacity="0.471"/>
<polyline points="1132.63,39.78 1130.31,41.75 1131.28,37.65 1132.27,38.11 1132.63,39.78" fill="none" stroke="#1e1e1e" stroke-width="0.5" stroke-linecap="round" stroke-linejoin="round"/>
<polyline points="1131.53,39.33 1131.13,40.75 1131.53,39.33" fill="none" stroke="#1e1e1e" stroke-width="0.5" stroke-linecap="round" stroke-linejoin="round"/>
<path d="M1133.3,33.02L1132.83,33.37L1132.54,32.46L1133.41,30.97L1135.34,30.78L1133.3,33.02Z" fill-rule="evenodd" fill="#4682b4" fill-opacity="0.471"/>
<polyline points="1133.3,33.02 1132.83,33.37 1132.54,32.46 1133.41,30.97 1135.34,30.78 1133.3,33.02" fill="none" stroke="#1e1e1e" stroke-width="0.5" stroke-linecap="round" stroke-linejoin="round"/>
<path d="M1152.19,22.3L1150.36,23.03L1151.48,23.42L1151.19,24.4L1147.74,23.29L1151.97,21.77L1152.19,22.3ZM1149.28,23.33L1148.57,23.24L1149.28,23.33Z" fill-rule="evenodd" fill="#4682b4" fill-opacity="0.471"/>
<polyline points="1152.19,22.3 1150.36,23.03 1151.48,23.42 1151.19,24.4 1147.74,23.29 1151.97,21.77 1152.19,22.3" fill="none" stroke="#1e1e1e" stroke-width="0.5" stroke-linecap="round" stroke-linejoin="round"/>
<polyline points="1149.28,23.33 1148.57,23.24 1149.28,23.33" fill="none" stroke="#1e1e1e" stroke-width="0.5" stroke-linecap="round" stroke-linejoin="round"/>
<path d="M1144.36,65.74L1144.36,65.74Z" fill-rule="evenodd" fill="#4682b4" fill-opacity="0.471"/>
<polyline points="1144.36,65.74 1144.36,65.74" fill="none" stroke="#1e1e1e" stroke-width="0.5" stroke-linecap="round" stroke-linejoin="round"/>
<path d="M1146.86,67.78L1147.16,68.35L1144.51,67.79L1143.76,66.07L1144.53,65.75L1146.86,67.78Z" fill-rule="evenodd" fill="#4682b4" fill-opacity="0.471"/>
<polyline points="1146.86,67.78 1147.16,68.35 1144.51,67.79 1143.76,66.07 1144.53,65.75 1146.86,67.78" fill="none" stroke="#1e1e1e" stroke-width="0.5" stroke-linecap="round" stroke-linejoin="round"/>
<path d="M1460.9,18.7L1459.52,19.12L1458.75,17.88L1460.13,18.3L1457.91,16.52L1460.9,18.7Z" fill-rule="evenodd" fill="#4682b4" fill-opacity="0.471"/>
<polyline points="1460.9,18.7 1459.52,19.12 1458.75,17.88 1460.13,18.3 1457.91,16.52 1460.9,18.7" fill="none" stroke="#1e1e1e" stroke-width="0.5" stroke-linecap="round" stroke-linejoin="round"/>
<path d="M1162.65,47.83L1163.26,46.14L1162.65,47.83Z" fill-rule="evenodd" fill="#4682b4" fill-opacity="0.471"/>
<polyline points="1162.65,47.83 1163.26,46.14 1162.65,47.83" fill="none" stroke="#1e1e1e" stroke-width="0.5" stroke-linecap="round" stroke-linejoin="round"/>
<path d="M1079.68,34.55L1078.42,33.17L1079.87,33.39L1079.68,34.55Z" fill-rule="evenodd" fill="#4682b4" fill-opacity="0.471"/>
<polyline points="1079.68,34.55 1078.42,33.17 1079.87,33.39 1079.68,34.55" fill="none" stroke="#1e1e1e" stroke-width="0.5" stroke-linecap="round" stroke-linejoin="round"/>
<path d="M1170.74,47L1170.65,47.93L1170.14,47.25L1170.74,47Z" fill-rule="evenodd" fill="#4682b4" fill-opacity="0.471"/>
<polyline points="1170.74,47 1170.65,47.93 1170.14,47.25 1170.74,47" fill="none" stroke="#1e1e1e" stroke-width="0.5" stroke-linecap="round" stroke-linejoin="round"/>
<path d="M728.03,36.2L729.83,37.3L730.96,36.85L731.56,38.49L728.03,36.2Z" fill-rule="evenodd" fill="#4682b4" fill-opacity="0.471"/>
<polyline points="728.03,36.2 729.83,37.3 730.96,36.85 731.56,38.49 728.03,36.2" fill="none" stroke="#1e1e1e" stroke-width="0.5" stroke-linecap="round" stroke-linejoin="round"/>
<path d="M1147.75,22.47L1146.32,22.27L1150.02,21.05L1149.86,22.04L1149.05,21.49L1147.75,22.47Z" fill-rule="evenodd" fill="#4682b4" fill-opacity="0.471"/>
<polyline points="1147.75,22.47 1146.32,22.27 1150.02,21.05 1149.86,22.04 1149.05,21.49 1147.75,22.47" fill="none" stroke="#1e1e1e" stroke-width="0.5" stroke-linecap="round" stroke-linejoin="round"/>
<path d="M739.61,40.66L738.59,41.11L738.33,40.46L739.61,40.66Z" fill-rule="evenodd" fill="#4682b4" fill-opacity="0.471"/>
<polyline points="739.61,40.66 738.59,41.11 738.33,40.46 739.61,40.66" fill="none" stroke="#1e1e1e" stroke-width="0.5" stroke-linecap="round" stroke-linejoin="round"/>
<path d="M1661.2,62.83L1660.59,63.87L1660.63,62.7L1659.89,62.26L1661.2,62.83Z" fill-rule="evenodd" fill="#4682b4" fill-opacity="0.471"/>
<polyline points="1661.2,62.83 1660.59,63.87 1660.63,62.7 1659.89,62.26 1661.2,62.83" fill="none" stroke="#1e1e1e" stroke-width="0.5" stroke-linecap="round" stroke-linejoin="round"/>
<path d="M1042.86,34.56L1041.52,35.38L1041.58,33.82L1042.86,34.56Z" fill-rule="evenodd" fill="#4682b4" fill-opacity="0.471"/>
<polyline points="1042.86,34.56 1041.52,35.38 1041.58,33.82 1042.86,34.56" fill="none" stroke="#1e1e1e" stroke-width="0.5" stroke-linecap="round" stroke-linejoin="round"/>
<path d="M1082.05,39.88L1080.17,42.88L1080.78,40.11L1079.64,38.04L1081.74,37.53L1080.66,39.36L1081.4,39.41L1081.3,40.39L1082.05,39.88Z" fill-rule="evenodd" fill="#4682b4" fill-opacity="0.471"/>
<polyline points="1082.05,39.88 1080.17,42.88 1080.78,40.11 1079.64,38.04 1081.74,37.53 1080.66,39.36 1081.4,39.41 1081.3,40.39 1082.05,39.88" fill="none" stroke="#1e1e1e" stroke-width="0.5" stroke-linecap="round" stroke-linejoin="round"/>
<path d="M1121.27,82.08L1121,80.88L1122.02,80.94L1121.27,82.08Z" fill-rule="evenodd" fill="#4682b4" fill-opacity="0.471"/>
<polyline points="1121.27,82.08 1121,80.88 1122.02,80.94 1121.27,82.08" fill="none" stroke="#1e1e1e" stroke-width="0.5" stroke-linecap="round" stroke-linejoin="round"/>
<path d="M1171.84,33.86L1170.77,34.56L1170.12,33.85L1171.84,33.86Z" fill-rule="evenodd" fill="#4682b4" fill-opacity="0.471"/>
<polyline points="1171.84,33.86 1170.77,34.56 1170.12,33.85 1171.84,33.86" fill="none" stroke="#1e1e1e" stroke-width="0.5" stroke-linecap="round" stroke-linejoin="round"/>
<path d="M1135.4,36.27L1135.03,35.77L1135.4,36.27Z" fill-rule="evenodd" fill="#4682b4" fill-opacity="0.471"/>
<polyline points="1135.4,36.27 1135.03,35.77 1135.4,36.27" fill="none" stroke="#1e1e1e" stroke-width="0.5" stroke-linecap="round" stroke-linejoin="round"/>
<path d="M1134.67,70.46L1133.66,71.55L1134.67,70.46Z" fill-rule="evenodd" fill="#4682b4" fill-opacity="0.471"/>
<polyline points="1134.67,70.46 1133.66,71.55 1134.67,70.46" fill="none" stroke="#1e1e1e" stroke-width="0.5" stroke-linecap="round" stroke-linejoin="round"/>
<path d="M1119.17,70.24L1117.88,71.14L1119.17,70.24Z" fill-rule="evenodd" fill="#4682b4" fill-opacity="0.471"/>
<polyline points="1119.17,70.24 1117.88,71.14 1119.17,70.24" fill="none" stroke="#1e1e1e" stroke-width="0.5" stroke-linecap="round" stroke-linejoin="round"/>
<path d="M1543.07,31.18L1541.9,31.57L1543.07,31.18Z" fill-rule="evenodd" fill="#4682b4" fill-opacity="0.471"/>
<polyline points="1543.07,31.18 1541.9,31.57 1543.07,31.18" fill="none" stroke="#1e1e1e" stroke-width="0.5" stroke-linecap="round" stroke-linejoin="round"/>
<path d="M800.91,74.05L801.25,74.51L799.95,74.62L799.7,75.76L796.31,76.87L796.26,75.94L795.53,76.81L795.39,76.19L794.61,77.53L795.91,78.15L796.05,79.2L795.76,78.16L794.54,77.84L795.23,79.27L793.91,77.62L793.75,78.64L794.9,80.32L793.68,82.28L794.41,80.19L793.92,79.38L793.53,80.17L793.62,78.76L791.77,81.44L791.49,83.38L790.58,81.97L789.55,82.52L791.34,80.89L790.77,80.02L791.99,80.6L791.43,80.09L792.17,79.95L791.19,79.56L792.61,79.57L791.97,78.66L793.27,78.78L791.92,76.82L793.29,77.6L793.02,76.71L793.51,77.28L794.34,76.47L793.85,75.55L794.72,75.76L795.69,74.74L795.86,75.45L799.22,75.27L799.42,74.42L798.71,74.12L800.22,73.9L800.03,72.34L800.92,72.84L800.91,74.05ZM791.66,82.03L790.97,82.31L791.66,82.03ZM791.71,81.25L790.55,81.83L791.71,81.25Z" fill-rule="evenodd" fill="#4682b4" fill-opacity="0.471"/>
<polyline points="800.91,74.05 801.25,74.51 799.95,74.62 799.7,75.76 796.31,76.87 796.26,75.94 795.53,76.81 795.39,76.19 794.61,77.53 795.91,78.15 796.05,79.2 795.76,78.16 794.54,77.84 795.23,79.27 793.91,77.62 793.75,78.64 794.9,80.32 793.68,82.28 794.41,80.19 793.92,79.38 793.53,80.17 793.62,78.76 791.77,81.44 791.49,83.38 790.58,81.97 789.55,82.52 791.34,80.89 790.77,80.02 791.99,80.6 791.43,80.09 792.17,79.95 791.19,79.56 792.61,79.57 791.97,78.66 793.27,78.78 791.92,76.82 793.29,77.6 793.02,76.71 793.51,77.28 794.34,76.47 793.85,75.55 794.72,75.76 795.69,74.74 795.86,75.45 799.22,75.27 799.42,74.42 798.71,74.12 800.22,73.9 800.03,72.34 800.92,72.84 800.91,74.05" fill="none" stroke="#1e1e1e" stroke-width="0.5" stroke-linecap="round" stroke-linejoin="round"/>
<polyline points="791.66,82.03 790.97,82.31 791.66,82.03" fill="none" stroke="#1e1e1e" stroke-width="0.5" stroke-linecap="round" stroke-linejoin="round"/>
<polyline points="791.71,81.25 790.55,81.83 791.71,81.25" fill="none" stroke="#1e1e1e" stroke-width="0.5" stroke-linecap="round" stroke-linejoin="round"/>
<path d="M735.22,8L735.27,8.74L734.93,8.06L734.47,9.13L733.29,8.98L733.62,8L735.22,8Z" fill-rule="evenodd" fill="#4682b4" fill-opacity="0.471"/>
<polyline points="735.22,8 735.27,8.74 734.93,8.06 734.47,9.13 733.29,8.98 733.62,8 735.22,8" fill="none" stroke="#1e1e1e" stroke-width="0.5" stroke-linecap="round" stroke-linejoin="round"/>
<path d="M759.68,50.44L760.25,50.34L759.79,49.7L760.4,49.82L760.43,48.18L761.17,48.08L760.99,49.77L761.8,49.85L761.08,50.19L761.84,50.28L761.68,51.45L762.65,52.22L761.77,51.85L762.52,52.76L761.79,53.12L762.27,54.4L764,55.1L762.62,55.34L761.08,51.91L760.01,51.88L760.69,50.97L759.82,51.33L759.68,50.44Z" fill-rule="evenodd" fill="#4682b4" fill-opacity="0.471"/>
<polyline points="759.68,50.44 760.25,50.34 759.79,49.7 760.4,49.82 760.43,48.18 761.17,48.08 760.99,49.77 761.8,49.85 761.08,50.19 761.84,50.28 761.68,51.45 762.65,52.22 761.77,51.85 762.52,52.76 761.79,53.12 762.27,54.4 764,55.1 762.62,55.34 761.08,51.91 760.01,51.88 760.69,50.97 759.82,51.33 759.68,50.44" fill="none" stroke="#1e1e1e" stroke-width="0.5" stroke-linecap="round" stroke-linejoin="round"/>
<path d="M1167.29,17.08L1166.64,18.85L1163.75,14.4L1163.2,12.61L1163.89,8.3L1164.1,8.82L1164.83,8.35L1165.04,14.48L1167.29,17.08Z" fill-rule="evenodd" fill="#4682b4" fill-opacity="0.471"/>
<polyline points="1167.29,17.08 1166.64,18.85 1163.75,14.4 1163.2,12.61 1163.89,8.3 1164.1,8.82 1164.83,8.35 1165.04,14.48 1167.29,17.08" fill="none" stroke="#1e1e1e" stroke-width="0.5" stroke-linecap="round" stroke-linejoin="round"/>
<path d="M1168.59,8L1167.39,9.05L1167.53,8L1168.59,8Z" fill-rule="evenodd" fill="#4682b4" fill-opacity="0.471"/>
<polyline points="1168.59,8 1167.39,9.05 1167.53,8 1168.59,8" fill="none" stroke="#1e1e1e" stroke-width="0.5" stroke-linecap="round" stroke-linejoin="round"/>
<path d="M1158.03,47.9L1160.64,45.9L1160.11,47.28L1158.03,47.9Z" fill-rule="evenodd" fill="#4682b4" fill-opacity="0.471"/>
<polyline points="1158.03,47.9 1160.64,45.9 1160.11,47.28 1158.03,47.9" fill="none" stroke="#1e1e1e" stroke-width="0.5" stroke-linecap="round" stroke-linejoin="round"/>
<path d="M1163.97,41.86L1164.1,40.04L1163.97,41.86Z" fill-rule="evenodd" fill="#4682b4" fill-opacity="0.471"/>
<polyline points="1163.97,41.86 1164.1,40.04 1163.97,41.86" fill="none" stroke="#1e1e1e" stroke-width="0.5" stroke-linecap="round" stroke-linejoin="round"/>
<text x="1089.45" y="42.31" font-family="sans-serif" font-size="14" stroke="#ffffff" stroke-opacity="0.784" stroke-width="2.33" stroke-linejoin="round" paint-order="stroke" fill="#141414">Lake Victoria</text>
<text x="1101.67" y="86" font-family="sans-serif" font-size="14" stroke="#ffffff" stroke-opacity="0.784" stroke-width="2.33" stroke-linejoin="round" paint-order="stroke" fill="#141414">Lake Malawi</text>
<text x="687.91" y="84.78" font-family="sans-serif" font-size="14" stroke="#ffffff" stroke-opacity="0.784" stroke-width="2.33" stroke-linejoin="round" paint-order="stroke" fill="#141414">Represa de Sobradinho</text>
<text x="670.75" y="58.44" font-family="sans-serif" font-size="14" stroke="#ffffff" stroke-opacity="0.784" stroke-width="2.33" stroke-linejoin="round" paint-order="stroke" fill="#141414">Represa de Tucuruí</text>
<text x="1406.33" y="24.8" font-family="sans-serif" font-size="14" stroke="#ffffff" stroke-opacity="0.784" stroke-width="2.33" stroke-linejoin="round" paint-order="stroke" fill="#141414">Danau Toba</text>
<text x="474.92" y="19" font-family="sans-serif" font-size="14" stroke="#ffffff" stroke-opacity="0.784" stroke-width="2.33" stroke-linejoin="round" paint-order="stroke" fill="#141414">Professor Doctor Ingenieur W. J. Van Blommestein Meer</text>
<text x="1604.14" y="69.96" font-family="sans-serif" font-size="14" stroke="#ffffff" stroke-opacity="0.784" stroke-width="2.33" stroke-linejoin="round" paint-order="stroke" fill="#141414">Lake Murray</text>
</svg>
