<?xml version="1.0" encoding="UTF-8" standalone="no"?>
<svg xmlns="http://www.w3.org/2000/svg" width="2000" height="92" viewBox="0 0 2000 92">
<rect width="2000" height="92" fill="#ffffff"/>
<path d="M1826.86,42.69L1826.86,42.69Z" fill-rule="evenodd" fill="#4682b4" fill-opacity="0.471"/>
<polyline points="1826.86,42.69 1826.86,42.69" fill="none" stroke="#1e1e1e" stroke-width="0.5" stroke-linecap="round" stroke-linejoin="round"/>
<path d="M1825.34,36.73L1824.93,36.3L1825.34,36.73Z" fill-rule="evenodd" fill="#4682b4" fill-opacity="0.471"/>
<polyline points="1825.34,36.73 1824.93,36.3 1825.34,36.73" fill="none" stroke="#1e1e1e" stroke-width="0.5" stroke-linecap="round" stroke-linejoin="round"/>
<path d="M1823.02,36.51L1823.02,36.51Z" fill-rule="evenodd" fill="#4682b4" fill-opacity="0.471"/>
<polyline points="1823.02,36.51 1823.02,36.51" fill="none" stroke="#1e1e1e" stroke-width="0.5" stroke-linecap="round" stroke-linejoin="round"/>
<path d="M1822.82,41.9L1822.82,41.9Z" fill-rule="evenodd" fill="#4682b4" fill-opacity="0.471"/>
<polyline points="1822.82,41.9 1822.82,41.9" fill="none" stroke="#1e1e1e" stroke-width="0.5" stroke-linecap="round" stroke-linejoin="round"/>
<path d="M1820.68,38.93L1821.16,39.15L1820.68,38.93Z" fill-rule="evenodd" fill="#4682b4" fill-opacity="0.471"/>
<polyline points="1820.68,38.93 1821.16,39.15 1820.68,38.93" fill="none" stroke="#1e1e1e" stroke-width="0.5" stroke-linecap="round" stroke-linejoin="round"/>
<path d="M1818.67,37.31L1818.67,37.31Z" fill-rule="evenodd" fill="#4682b4" fill-opacity="0.471"/>
<polyline points="1818.67,37.31 1818.67,37.31" fill="none" stroke="#1e1e1e" stroke-width="0.5" stroke-linecap="round" stroke-linejoin="round"/>
<path d="M1818.56,37.04L1818.56,37.04Z" fill-rule="evenodd" fill="#4682b4" fill-opacity="0.471"/>
<polyline points="1818.56,37.04 1818.56,37.04" fill="none" stroke="#1e1e1e" stroke-width="0.5" stroke-linecap="round" stroke-linejoin="round"/>
<path d="M1818.63,37.17L1818.63,37.17Z" fill-rule="evenodd" fill="#4682b4" fill-opacity="0.471"/>
<polyline points="1818.63,37.17 1818.63,37.17" fill="none" stroke="#1e1e1e" stroke-width="0.5" stroke-linecap="round" stroke-linejoin="round"/>
<path d="M1818.55,37.01L1818.55,37.01Z" fill-rule="evenodd" fill="#4682b4" fill-opacity="0.471"/>
<polyline points="1818.55,37.01 1818.55,37.01" fill="none" stroke="#1e1e1e" stroke-width="0.5" stroke-linecap="round" stroke-linejoin="round"/>
<path d="M1818.43,36.93L1818.43,36.93Z" fill-rule="evenodd" fill="#4682b4" fill-opacity="0.471"/>
<polyline points="1818.43,36.93 1818.43,36.93" fill="none" stroke="#1e1e1e" stroke-width="0.5" stroke-linecap="round" stroke-linejoin="round"/>
<path d="M1818.34,36.91L1818.34,36.91Z" fill-rule="evenodd" fill="#4682b4" fill-opacity="0.471"/>
<polyline points="1818.34,36.91 1818.34,36.91" fill="none" stroke="#1e1e1e" stroke-width="0.5" stroke-linecap="round" stroke-linejoin="round"/>
<path d="M1818.31,36.91L1818.31,36.91Z" fill-rule="evenodd" fill="#4682b4" fill-opacity="0.471"/>
<polyline points="1818.31,36.91 1818.31,36.91" fill="none" stroke="#1e1e1e" stroke-width="0.5" stroke-linecap="round" stroke-linejoin="round"/>
<path d="M1818.3,36.85L1818.3,36.85Z" fill-rule="evenodd" fill="#4682b4" fill-opacity="0.471"/>
<polyline points="1818.3,36.85 1818.3,36.85" fill="none" stroke="#1e1e1e" stroke-width="0.5" stroke-linecap="round" stroke-linejoin="round"/>
<path d="M1818.26,36.82L1818.26,36.82Z" fill-rule="evenodd" fill="#4682b4" fill-opacity="0.471"/>
<polyline points="1818.26,36.82 1818.26,36.82" fill="none" stroke="#1e1e1e" stroke-width="0.5" stroke-linecap="round" stroke-linejoin="round"/>
<path d="M1818.21,36.83L1818.21,36.83Z" fill-rule="evenodd" fill="#4682b4" fill-opacity="0.471"/>
<polyline points="1818.21,36.83 1818.21,36.83" fill="none" stroke="#1e1e1e" stroke-width="0.5" stroke-linecap="round" stroke-linejoin="round"/>
<path d="M1818.19,36.8L1818.19,36.8Z" fill-rule="evenodd" fill="#4682b4" fill-opacity="0.471"/>
<polyline points="1818.19,36.8 1818.19,36.8" fill="none" stroke="#1e1e1e" stroke-width="0.5" stroke-linecap="round" stroke-linejoin="round"/>
<path d="M1818.13,36.8L1818.13,36.8Z" fill-rule="evenodd" fill="#4682b4" fill-opacity="0.471"/>
<polyline points="1818.13,36.8 1818.13,36.8" fill="none" stroke="#1e1e1e" stroke-width="0.5" stroke-linecap="round" stroke-linejoin="round"/>
<path d="M1818.08,36.78L1818.08,36.78Z" fill-rule="evenodd" fill="#4682b4" fill-opacity="0.471"/>
<polyline points="1818.08,36.78 1818.08,36.78" fill="none" stroke="#1e1e1e" stroke-width="0.5" stroke-linecap="round" stroke-linejoin="round"/>
<path d="M1818.07,36.75L1818.07,36.75Z" fill-rule="evenodd" fill="#4682b4" fill-opacity="0.471"/>
<polyline points="1818.07,36.75 1818.07,36.75" fill="none" stroke="#1e1e1e" stroke-width="0.5" stroke-linecap="round" stroke-linejoin="round"/>
<path d="M1818.05,36.73L1818.05,36.73Z" fill-rule="evenodd" fill="#4682b4" fill-opacity="0.471"/>
<polyline points="1818.05,36.73 1818.05,36.73" fill="none" stroke="#1e1e1e" stroke-width="0.5" stroke-linecap="round" stroke-linejoin="round"/>
<path d="M1818.01,36.72L1818.01,36.72Z" fill-rule="evenodd" fill="#4682b4" fill-opacity="0.471"/>
<polyline points="1818.01,36.72 1818.01,36.72" fill="none" stroke="#1e1e1e" stroke-width="0.5" stroke-linecap="round" stroke-linejoin="round"/>
<path d="M1817.88,36.66L1817.88,36.66Z" fill-rule="evenodd" fill="#4682b4" fill-opacity="0.471"/>
<polyline points="1817.88,36.66 1817.88,36.66" fill="none" stroke="#1e1e1e" stroke-width="0.5" stroke-linecap="round" stroke-linejoin="round"/>
<path d="M1817.82,36.61L1817.82,36.61Z" fill-rule="evenodd" fill="#4682b4" fill-opacity="0.471"/>
<polyline points="1817.82,36.61 1817.82,36.61" fill="none" stroke="#1e1e1e" stroke-width="0.5" stroke-linecap="round" stroke-linejoin="round"/>
<path d="M1817.78,36.55L1817.78,36.55Z" fill-rule="evenodd" fill="#4682b4" fill-opacity="0.471"/>
<polyline points="1817.78,36.55 1817.78,36.55" fill="none" stroke="#1e1e1e" stroke-width="0.5" stroke-linecap="round" stroke-linejoin="round"/>
<path d="M1817.71,36.49L1817.71,36.49Z" fill-rule="evenodd" fill="#4682b4" fill-opacity="0.471"/>
<polyline points="1817.71,36.49 1817.71,36.49" fill="none" stroke="#1e1e1e" stroke-width="0.5" stroke-linecap="round" stroke-linejoin="round"/>
<path d="M1817.71,36.48L1817.71,36.48Z" fill-rule="evenodd" fill="#4682b4" fill-opacity="0.471"/>
<polyline points="1817.71,36.48 1817.71,36.48" fill="none" stroke="#1e1e1e" stroke-width="0.5" stroke-linecap="round" stroke-linejoin="round"/>
<path d="M1817.68,36.46L1817.68,36.46Z" fill-rule="evenodd" fill="#4682b4" fill-opacity="0.471"/>
<polyline points="1817.68,36.46 1817.68,36.46" fill="none" stroke="#1e1e1e" stroke-width="0.5" stroke-linecap="round" stroke-linejoin="round"/>
<path d="M1817.61,36.42L1817.61,36.42Z" fill-rule="evenodd" fill="#4682b4" fill-opacity="0.471"/>
<polyline points="1817.61,36.42 1817.61,36.42" fill="none" stroke="#1e1e1e" stroke-width="0.5" stroke-linecap="round" stroke-linejoin="round"/>
<path d="M1817.5,36.38L1817.5,36.38Z" fill-rule="evenodd" fill="#4682b4" fill-opacity="0.471"/>
<polyline points="1817.5,36.38 1817.5,36.38" fill="none" stroke="#1e1e1e" stroke-width="0.5" stroke-linecap="round" stroke-linejoin="round"/>
<path d="M1817.44,36.36L1817.44,36.36Z" fill-rule="evenodd" fill="#4682b4" fill-opacity="0.471"/>
<polyline points="1817.44,36.36 1817.44,36.36" fill="none" stroke="#1e1e1e" stroke-width="0.5" stroke-linecap="round" stroke-linejoin="round"/>
<path d="M1817.37,36.23L1817.37,36.23Z" fill-rule="evenodd" fill="#4682b4" fill-opacity="0.471"/>
<polyline points="1817.37,36.23 1817.37,36.23" fill="none" stroke="#1e1e1e" stroke-width="0.5" stroke-linecap="round" stroke-linejoin="round"/>
<path d="M1817.38,36.23L1817.38,36.23Z" fill-rule="evenodd" fill="#4682b4" fill-opacity="0.471"/>
<polyline points="1817.38,36.23 1817.38,36.23" fill="none" stroke="#1e1e1e" stroke-width="0.5" stroke-linecap="round" stroke-linejoin="round"/>
<path d="M1817.35,36.02L1816.75,35.32L1817.35,36.02Z" fill-rule="evenodd" fill="#4682b4" fill-opacity="0.471"/>
<polyline points="1817.35,36.02 1816.75,35.32 1817.35,36.02" fill="none" stroke="#1e1e1e" stroke-width="0.5" stroke-linecap="round" stroke-linejoin="round"/>
<path d="M1815.81,33.85L1815.17,32.82L1815.81,33.85Z" fill-rule="evenodd" fill="#4682b4" fill-opacity="0.471"/>
<polyline points="1815.81,33.85 1815.17,32.82 1815.81,33.85" fill="none" stroke="#1e1e1e" stroke-width="0.5" stroke-linecap="round" stroke-linejoin="round"/>
<path d="M1815.15,32.83L1815.15,32.83Z" fill-rule="evenodd" fill="#4682b4" fill-opacity="0.471"/>
<polyline points="1815.15,32.83 1815.15,32.83" fill="none" stroke="#1e1e1e" stroke-width="0.5" stroke-linecap="round" stroke-linejoin="round"/>
<path d="M1815.11,32.81L1815.11,32.81Z" fill-rule="evenodd" fill="#4682b4" fill-opacity="0.471"/>
<polyline points="1815.11,32.81 1815.11,32.81" fill="none" stroke="#1e1e1e" stroke-width="0.5" stroke-linecap="round" stroke-linejoin="round"/>
<path d="M1815.03,32.73L1815.03,32.73Z" fill-rule="evenodd" fill="#4682b4" fill-opacity="0.471"/>
<polyline points="1815.03,32.73 1815.03,32.73" fill="none" stroke="#1e1e1e" stroke-width="0.5" stroke-linecap="round" stroke-linejoin="round"/>
<path d="M1814.97,32.71L1814.97,32.71Z" fill-rule="evenodd" fill="#4682b4" fill-opacity="0.471"/>
<polyline points="1814.97,32.71 1814.97,32.71" fill="none" stroke="#1e1e1e" stroke-width="0.5" stroke-linecap="round" stroke-linejoin="round"/>
<path d="M1814.89,32.71L1814.89,32.71Z" fill-rule="evenodd" fill="#4682b4" fill-opacity="0.471"/>
<polyline points="1814.89,32.71 1814.89,32.71" fill="none" stroke="#1e1e1e" stroke-width="0.5" stroke-linecap="round" stroke-linejoin="round"/>
<path d="M1814.83,32.69L1814.83,32.69Z" fill-rule="evenodd" fill="#4682b4" fill-opacity="0.471"/>
<polyline points="1814.83,32.69 1814.83,32.69" fill="none" stroke="#1e1e1e" stroke-width="0.5" stroke-linecap="round" stroke-linejoin="round"/>
<path d="M1814.79,32.69L1814.79,32.69Z" fill-rule="evenodd" fill="#4682b4" fill-opacity="0.471"/>
<polyline points="1814.79,32.69 1814.79,32.69" fill="none" stroke="#1e1e1e" stroke-width="0.5" stroke-linecap="round" stroke-linejoin="round"/>
<path d="M1814.76,32.68L1814.76,32.68Z" fill-rule="evenodd" fill="#4682b4" fill-opacity="0.471"/>
<polyline points="1814.76,32.68 1814.76,32.68" fill="none" stroke="#1e1e1e" stroke-width="0.5" stroke-linecap="round" stroke-linejoin="round"/>
<path d="M1814.75,32.64L1814.75,32.64Z" fill-rule="evenodd" fill="#4682b4" fill-opacity="0.471"/>
<polyline points="1814.75,32.64 1814.75,32.64" fill="none" stroke="#1e1e1e" stroke-width="0.5" stroke-linecap="round" stroke-linejoin="round"/>
<path d="M1813.37,28.49L1813.37,28.49Z" fill-rule="evenodd" fill="#4682b4" fill-opacity="0.471"/>
<polyline points="1813.37,28.49 1813.37,28.49" fill="none" stroke="#1e1e1e" stroke-width="0.5" stroke-linecap="round" stroke-linejoin="round"/>
<path d="M1813.36,28.5L1813.36,28.5Z" fill-rule="evenodd" fill="#4682b4" fill-opacity="0.471"/>
<polyline points="1813.36,28.5 1813.36,28.5" fill="none" stroke="#1e1e1e" stroke-width="0.5" stroke-linecap="round" stroke-linejoin="round"/>
<path d="M1813.25,28.1L1812.7,27.98L1813.25,28.1Z" fill-rule="evenodd" fill="#4682b4" fill-opacity="0.471"/>
<polyline points="1813.25,28.1 1812.7,27.98 1813.25,28.1" fill="none" stroke="#1e1e1e" stroke-width="0.5" stroke-linecap="round" stroke-linejoin="round"/>
<path d="M1813.19,28.67L1813.19,28.67Z" fill-rule="evenodd" fill="#4682b4" fill-opacity="0.471"/>
<polyline points="1813.19,28.67 1813.19,28.67" fill="none" stroke="#1e1e1e" stroke-width="0.5" stroke-linecap="round" stroke-linejoin="round"/>
<path d="M1812.93,28.5L1812.93,28.5Z" fill-rule="evenodd" fill="#4682b4" fill-opacity="0.471"/>
<polyline points="1812.93,28.5 1812.93,28.5" fill="none" stroke="#1e1e1e" stroke-width="0.5" stroke-linecap="round" stroke-linejoin="round"/>
<path d="M1812.63,28.3L1812.63,28.3Z" fill-rule="evenodd" fill="#4682b4" fill-opacity="0.471"/>
<polyline points="1812.63,28.3 1812.63,28.3" fill="none" stroke="#1e1e1e" stroke-width="0.5" stroke-linecap="round" stroke-linejoin="round"/>
<path d="M1811.92,29.16L1811.92,29.16Z" fill-rule="evenodd" fill="#4682b4" fill-opacity="0.471"/>
<polyline points="1811.92,29.16 1811.92,29.16" fill="none" stroke="#1e1e1e" stroke-width="0.5" stroke-linecap="round" stroke-linejoin="round"/>
<path d="M1811.92,29.16L1811.92,29.16Z" fill-rule="evenodd" fill="#4682b4" fill-opacity="0.471"/>
<polyline points="1811.92,29.16 1811.92,29.16" fill="none" stroke="#1e1e1e" stroke-width="0.5" stroke-linecap="round" stroke-linejoin="round"/>
<path d="M1811.89,29.14L1811.89,29.14Z" fill-rule="evenodd" fill="#4682b4" fill-opacity="0.471"/>
<polyline points="1811.89,29.14 1811.89,29.14" fill="none" stroke="#1e1e1e" stroke-width="0.5" stroke-linecap="round" stroke-linejoin="round"/>
<path d="M1811.5,29.28L1811.5,29.28Z" fill-rule="evenodd" fill="#4682b4" fill-opacity="0.471"/>
<polyline points="1811.5,29.28 1811.5,29.28" fill="none" stroke="#1e1e1e" stroke-width="0.5" stroke-linecap="round" stroke-linejoin="round"/>
<path d="M1810.87,29.03L1810.87,29.03Z" fill-rule="evenodd" fill="#4682b4" fill-opacity="0.471"/>
<polyline points="1810.87,29.03 1810.87,29.03" fill="none" stroke="#1e1e1e" stroke-width="0.5" stroke-linecap="round" stroke-linejoin="round"/>
<path d="M1810.87,29.03L1810.87,29.03Z" fill-rule="evenodd" fill="#4682b4" fill-opacity="0.471"/>
<polyline points="1810.87,29.03 1810.87,29.03" fill="none" stroke="#1e1e1e" stroke-width="0.5" stroke-linecap="round" stroke-linejoin="round"/>
<path d="M1809.73,20.71L1809.73,20.71Z" fill-rule="evenodd" fill="#4682b4" fill-opacity="0.471"/>
<polyline points="1809.73,20.71 1809.73,20.71" fill="none" stroke="#1e1e1e" stroke-width="0.5" stroke-linecap="round" stroke-linejoin="round"/>
<path d="M1809.87,20.84L1809.87,20.84Z" fill-rule="evenodd" fill="#4682b4" fill-opacity="0.471"/>
<polyline points="1809.87,20.84 1809.87,20.84" fill="none" stroke="#1e1e1e" stroke-width="0.5" stroke-linecap="round" stroke-linejoin="round"/>
<path d="M1808.77,23.85L1808.77,23.85Z" fill-rule="evenodd" fill="#4682b4" fill-opacity="0.471"/>
<polyline points="1808.77,23.85 1808.77,23.85" fill="none" stroke="#1e1e1e" stroke-width="0.5" stroke-linecap="round" stroke-linejoin="round"/>
<path d="M1808.98,23.73L1809.53,23.66L1808.98,23.73Z" fill-rule="evenodd" fill="#4682b4" fill-opacity="0.471"/>
<polyline points="1808.98,23.73 1809.53,23.66 1808.98,23.73" fill="none" stroke="#1e1e1e" stroke-width="0.5" stroke-linecap="round" stroke-linejoin="round"/>
<path d="M1809.34,23.52L1809.34,23.52Z" fill-rule="evenodd" fill="#4682b4" fill-opacity="0.471"/>
<polyline points="1809.34,23.52 1809.34,23.52" fill="none" stroke="#1e1e1e" stroke-width="0.5" stroke-linecap="round" stroke-linejoin="round"/>
<path d="M1809.17,23.4L1809.17,23.4Z" fill-rule="evenodd" fill="#4682b4" fill-opacity="0.471"/>
<polyline points="1809.17,23.4 1809.17,23.4" fill="none" stroke="#1e1e1e" stroke-width="0.5" stroke-linecap="round" stroke-linejoin="round"/>
<path d="M1809.21,23.41L1809.21,23.41Z" fill-rule="evenodd" fill="#4682b4" fill-opacity="0.471"/>
<polyline points="1809.21,23.41 1809.21,23.41" fill="none" stroke="#1e1e1e" stroke-width="0.5" stroke-linecap="round" stroke-linejoin="round"/>
<path d="M1809.14,23.36L1809.14,23.36Z" fill-rule="evenodd" fill="#4682b4" fill-opacity="0.471"/>
<polyline points="1809.14,23.36 1809.14,23.36" fill="none" stroke="#1e1e1e" stroke-width="0.5" stroke-linecap="round" stroke-linejoin="round"/>
<path d="M1809.11,23.34L1809.11,23.34Z" fill-rule="evenodd" fill="#4682b4" fill-opacity="0.471"/>
<polyline points="1809.11,23.34 1809.11,23.34" fill="none" stroke="#1e1e1e" stroke-width="0.5" stroke-linecap="round" stroke-linejoin="round"/>
<path d="M1809.07,23.34L1809.07,23.34Z" fill-rule="evenodd" fill="#4682b4" fill-opacity="0.471"/>
<polyline points="1809.07,23.34 1809.07,23.34" fill="none" stroke="#1e1e1e" stroke-width="0.5" stroke-linecap="round" stroke-linejoin="round"/>
<path d="M1809.09,23.36L1809.09,23.36Z" fill-rule="evenodd" fill="#4682b4" fill-opacity="0.471"/>
<polyline points="1809.09,23.36 1809.09,23.36" fill="none" stroke="#1e1e1e" stroke-width="0.5" stroke-linecap="round" stroke-linejoin="round"/>
<path d="M1808.86,26.13L1808.86,26.13Z" fill-rule="evenodd" fill="#4682b4" fill-opacity="0.471"/>
<polyline points="1808.86,26.13 1808.86,26.13" fill="none" stroke="#1e1e1e" stroke-width="0.5" stroke-linecap="round" stroke-linejoin="round"/>
<path d="M1808.86,26.13L1808.83,25.27L1808.86,26.13Z" fill-rule="evenodd" fill="#4682b4" fill-opacity="0.471"/>
<polyline points="1808.86,26.13 1808.83,25.27 1808.86,26.13" fill="none" stroke="#1e1e1e" stroke-width="0.5" stroke-linecap="round" stroke-linejoin="round"/>
<path d="M1809.04,23.3L1809.04,23.3Z" fill-rule="evenodd" fill="#4682b4" fill-opacity="0.471"/>
<polyline points="1809.04,23.3 1809.04,23.3" fill="none" stroke="#1e1e1e" stroke-width="0.5" stroke-linecap="round" stroke-linejoin="round"/>
<path d="M1809.02,23.26L1809.02,23.26Z" fill-rule="evenodd" fill="#4682b4" fill-opacity="0.471"/>
<polyline points="1809.02,23.26 1809.02,23.26" fill="none" stroke="#1e1e1e" stroke-width="0.5" stroke-linecap="round" stroke-linejoin="round"/>
<path d="M1809.02,23.25L1809.02,23.25Z" fill-rule="evenodd" fill="#4682b4" fill-opacity="0.471"/>
<polyline points="1809.02,23.25 1809.02,23.25" fill="none" stroke="#1e1e1e" stroke-width="0.5" stroke-linecap="round" stroke-linejoin="round"/>
<path d="M1808.94,23.21L1808.94,23.21Z" fill-rule="evenodd" fill="#4682b4" fill-opacity="0.471"/>
<polyline points="1808.94,23.21 1808.94,23.21" fill="none" stroke="#1e1e1e" stroke-width="0.5" stroke-linecap="round" stroke-linejoin="round"/>
<path d="M1808.6,21.39L1808.7,22.06L1808.6,21.39Z" fill-rule="evenodd" fill="#4682b4" fill-opacity="0.471"/>
<polyline points="1808.6,21.39 1808.7,22.06 1808.6,21.39" fill="none" stroke="#1e1e1e" stroke-width="0.5" stroke-linecap="round" stroke-linejoin="round"/>
<path d="M1808.92,23.19L1808.92,23.19Z" fill-rule="evenodd" fill="#4682b4" fill-opacity="0.471"/>
<polyline points="1808.92,23.19 1808.92,23.19" fill="none" stroke="#1e1e1e" stroke-width="0.5" stroke-linecap="round" stroke-linejoin="round"/>
<path d="M1808.92,23.18L1808.92,23.18Z" fill-rule="evenodd" fill="#4682b4" fill-opacity="0.471"/>
<polyline points="1808.92,23.18 1808.92,23.18" fill="none" stroke="#1e1e1e" stroke-width="0.5" stroke-linecap="round" stroke-linejoin="round"/>
<path d="M1808.89,23.24L1808.89,23.24Z" fill-rule="evenodd" fill="#4682b4" fill-opacity="0.471"/>
<polyline points="1808.89,23.24 1808.89,23.24" fill="none" stroke="#1e1e1e" stroke-width="0.5" stroke-linecap="round" stroke-linejoin="round"/>
<path d="M1808.82,23.08L1808.82,23.08Z" fill-rule="evenodd" fill="#4682b4" fill-opacity="0.471"/>
<polyline points="1808.82,23.08 1808.82,23.08" fill="none" stroke="#1e1e1e" stroke-width="0.5" stroke-linecap="round" stroke-linejoin="round"/>
<path d="M1808.91,25.38L1808.91,25.38Z" fill-rule="evenodd" fill="#4682b4" fill-opacity="0.471"/>
<polyline points="1808.91,25.38 1808.91,25.38" fill="none" stroke="#1e1e1e" stroke-width="0.5" stroke-linecap="round" stroke-linejoin="round"/>
<path d="M1808.51,22.44L1808.51,22.44Z" fill-rule="evenodd" fill="#4682b4" fill-opacity="0.471"/>
<polyline points="1808.51,22.44 1808.51,22.44" fill="none" stroke="#1e1e1e" stroke-width="0.5" stroke-linecap="round" stroke-linejoin="round"/>
<path d="M1808.51,22.44L1808.51,22.44Z" fill-rule="evenodd" fill="#4682b4" fill-opacity="0.471"/>
<polyline points="1808.51,22.44 1808.51,22.44" fill="none" stroke="#1e1e1e" stroke-width="0.5" stroke-linecap="round" stroke-linejoin="round"/>
<path d="M1808.52,22.48L1808.8,23.09L1808.52,22.48Z" fill-rule="evenodd" fill="#4682b4" fill-opacity="0.471"/>
<polyline points="1808.52,22.48 1808.8,23.09 1808.52,22.48" fill="none" stroke="#1e1e1e" stroke-width="0.5" stroke-linecap="round" stroke-linejoin="round"/>
<path d="M1808.89,25.39L1808.89,25.39Z" fill-rule="evenodd" fill="#4682b4" fill-opacity="0.471"/>
<polyline points="1808.89,25.39 1808.89,25.39" fill="none" stroke="#1e1e1e" stroke-width="0.5" stroke-linecap="round" stroke-linejoin="round"/>
<path d="M1807.75,14.21L1807.75,14.21ZM1807.75,14.21L1807.75,14.21Z" fill-rule="evenodd" fill="#4682b4" fill-opacity="0.471"/>
<polyline points="1807.75,14.21 1807.75,14.21" fill="none" stroke="#1e1e1e" stroke-width="0.5" stroke-linecap="round" stroke-linejoin="round"/>
<polyline points="1807.75,14.21 1807.75,14.21" fill="none" stroke="#1e1e1e" stroke-width="0.5" stroke-linecap="round" stroke-linejoin="round"/>
<path d="M1808.75,23.58L1808.75,23.58Z" fill-rule="evenodd" fill="#4682b4" fill-opacity="0.471"/>
<polyline points="1808.75,23.58 1808.75,23.58" fill="none" stroke="#1e1e1e" stroke-width="0.5" stroke-linecap="round" stroke-linejoin="round"/>
<path d="M1808.87,25.37L1808.87,25.37Z" fill-rule="evenodd" fill="#4682b4" fill-opacity="0.471"/>
<polyline points="1808.87,25.37 1808.87,25.37" fill="none" stroke="#1e1e1e" stroke-width="0.5" stroke-linecap="round" stroke-linejoin="round"/>
<path d="M1808.83,26.09L1808.83,26.09Z" fill-rule="evenodd" fill="#4682b4" fill-opacity="0.471"/>
<polyline points="1808.83,26.09 1808.83,26.09" fill="none" stroke="#1e1e1e" stroke-width="0.5" stroke-linecap="round" stroke-linejoin="round"/>
<path d="M1808.81,26.1L1808.81,26.1Z" fill-rule="evenodd" fill="#4682b4" fill-opacity="0.471"/>
<polyline points="1808.81,26.1 1808.81,26.1" fill="none" stroke="#1e1e1e" stroke-width="0.5" stroke-linecap="round" stroke-linejoin="round"/>
<path d="M1808.79,26.1L1808.79,26.1Z" fill-rule="evenodd" fill="#4682b4" fill-opacity="0.471"/>
<polyline points="1808.79,26.1 1808.79,26.1" fill="none" stroke="#1e1e1e" stroke-width="0.5" stroke-linecap="round" stroke-linejoin="round"/>
<path d="M1807.69,14.53L1807.69,14.53Z" fill-rule="evenodd" fill="#4682b4" fill-opacity="0.471"/>
<polyline points="1807.69,14.53 1807.69,14.53" fill="none" stroke="#1e1e1e" stroke-width="0.5" stroke-linecap="round" stroke-linejoin="round"/>
<path d="M1808.75,26.12L1808.75,26.12Z" fill-rule="evenodd" fill="#4682b4" fill-opacity="0.471"/>
<polyline points="1808.75,26.12 1808.75,26.12" fill="none" stroke="#1e1e1e" stroke-width="0.5" stroke-linecap="round" stroke-linejoin="round"/>
<path d="M1807.68,14.63L1807.68,14.63Z" fill-rule="evenodd" fill="#4682b4" fill-opacity="0.471"/>
<polyline points="1807.68,14.63 1807.68,14.63" fill="none" stroke="#1e1e1e" stroke-width="0.5" stroke-linecap="round" stroke-linejoin="round"/>
<path d="M1807.44,15.48L1807.44,15.48Z" fill-rule="evenodd" fill="#4682b4" fill-opacity="0.471"/>
<polyline points="1807.44,15.48 1807.44,15.48" fill="none" stroke="#1e1e1e" stroke-width="0.5" stroke-linecap="round" stroke-linejoin="round"/>
<path d="M1807.73,15.01L1807.73,15.01Z" fill-rule="evenodd" fill="#4682b4" fill-opacity="0.471"/>
<polyline points="1807.73,15.01 1807.73,15.01" fill="none" stroke="#1e1e1e" stroke-width="0.5" stroke-linecap="round" stroke-linejoin="round"/>
<path d="M1807.73,15.07L1807.73,15.07Z" fill-rule="evenodd" fill="#4682b4" fill-opacity="0.471"/>
<polyline points="1807.73,15.07 1807.73,15.07" fill="none" stroke="#1e1e1e" stroke-width="0.5" stroke-linecap="round" stroke-linejoin="round"/>
<path d="M1807.69,14.94L1807.69,14.94Z" fill-rule="evenodd" fill="#4682b4" fill-opacity="0.471"/>
<polyline points="1807.69,14.94 1807.69,14.94" fill="none" stroke="#1e1e1e" stroke-width="0.5" stroke-linecap="round" stroke-linejoin="round"/>
<path d="M1807.69,14.97L1807.69,14.97Z" fill-rule="evenodd" fill="#4682b4" fill-opacity="0.471"/>
<polyline points="1807.69,14.97 1807.69,14.97" fill="none" stroke="#1e1e1e" stroke-width="0.5" stroke-linecap="round" stroke-linejoin="round"/>
<path d="M1808.58,23.82L1808.58,23.82Z" fill-rule="evenodd" fill="#4682b4" fill-opacity="0.471"/>
<polyline points="1808.58,23.82 1808.58,23.82" fill="none" stroke="#1e1e1e" stroke-width="0.5" stroke-linecap="round" stroke-linejoin="round"/>
<path d="M1807.51,14.92L1807.51,14.92Z" fill-rule="evenodd" fill="#4682b4" fill-opacity="0.471"/>
<polyline points="1807.51,14.92 1807.51,14.92" fill="none" stroke="#1e1e1e" stroke-width="0.5" stroke-linecap="round" stroke-linejoin="round"/>
<path d="M1808.27,21.67L1808.27,21.67Z" fill-rule="evenodd" fill="#4682b4" fill-opacity="0.471"/>
<polyline points="1808.27,21.67 1808.27,21.67" fill="none" stroke="#1e1e1e" stroke-width="0.5" stroke-linecap="round" stroke-linejoin="round"/>
<path d="M1807.06,15.59L1807.06,15.59Z" fill-rule="evenodd" fill="#4682b4" fill-opacity="0.471"/>
<polyline points="1807.06,15.59 1807.06,15.59" fill="none" stroke="#1e1e1e" stroke-width="0.5" stroke-linecap="round" stroke-linejoin="round"/>
<path d="M1808.09,20.93L1808.09,20.93Z" fill-rule="evenodd" fill="#4682b4" fill-opacity="0.471"/>
<polyline points="1808.09,20.93 1808.09,20.93" fill="none" stroke="#1e1e1e" stroke-width="0.5" stroke-linecap="round" stroke-linejoin="round"/>
<path d="M1807.45,15.48L1807.45,15.48Z" fill-rule="evenodd" fill="#4682b4" fill-opacity="0.471"/>
<polyline points="1807.45,15.48 1807.45,15.48" fill="none" stroke="#1e1e1e" stroke-width="0.5" stroke-linecap="round" stroke-linejoin="round"/>
<path d="M1807.97,20.88L1807.97,20.88Z" fill-rule="evenodd" fill="#4682b4" fill-opacity="0.471"/>
<polyline points="1807.97,20.88 1807.97,20.88" fill="none" stroke="#1e1e1e" stroke-width="0.5" stroke-linecap="round" stroke-linejoin="round"/>
<path d="M1808.01,21.35L1808.01,21.35Z" fill-rule="evenodd" fill="#4682b4" fill-opacity="0.471"/>
<polyline points="1808.01,21.35 1808.01,21.35" fill="none" stroke="#1e1e1e" stroke-width="0.5" stroke-linecap="round" stroke-linejoin="round"/>
<path d="M1807.89,20.91L1807.89,20.91Z" fill-rule="evenodd" fill="#4682b4" fill-opacity="0.471"/>
<polyline points="1807.89,20.91 1807.89,20.91" fill="none" stroke="#1e1e1e" stroke-width="0.5" stroke-linecap="round" stroke-linejoin="round"/>
<path d="M1807.79,21.26L1807.79,21.26Z" fill-rule="evenodd" fill="#4682b4" fill-opacity="0.471"/>
<polyline points="1807.79,21.26 1807.79,21.26" fill="none" stroke="#1e1e1e" stroke-width="0.5" stroke-linecap="round" stroke-linejoin="round"/>
<path d="M1806.84,14.97L1806.84,14.97Z" fill-rule="evenodd" fill="#4682b4" fill-opacity="0.471"/>
<polyline points="1806.84,14.97 1806.84,14.97" fill="none" stroke="#1e1e1e" stroke-width="0.5" stroke-linecap="round" stroke-linejoin="round"/>
<path d="M1806.8,14.97L1806.8,14.97Z" fill-rule="evenodd" fill="#4682b4" fill-opacity="0.471"/>
<polyline points="1806.8,14.97 1806.8,14.97" fill="none" stroke="#1e1e1e" stroke-width="0.5" stroke-linecap="round" stroke-linejoin="round"/>
<path d="M1806.64,15.39L1806.64,15.39Z" fill-rule="evenodd" fill="#4682b4" fill-opacity="0.471"/>
<polyline points="1806.64,15.39 1806.64,15.39" fill="none" stroke="#1e1e1e" stroke-width="0.5" stroke-linecap="round" stroke-linejoin="round"/>
<path d="M1792.58,34.2L1792.58,34.2Z" fill-rule="evenodd" fill="#4682b4" fill-opacity="0.471"/>
<polyline points="1792.58,34.2 1792.58,34.2" fill="none" stroke="#1e1e1e" stroke-width="0.5" stroke-linecap="round" stroke-linejoin="round"/>
<path d="M286.83,76.81L286.83,76.81Z" fill-rule="evenodd" fill="#4682b4" fill-opacity="0.471"/>
<polyline points="286.83,76.81 286.83,76.81" fill="none" stroke="#1e1e1e" stroke-width="0.5" stroke-linecap="round" stroke-linejoin="round"/>
<path d="M286.84,77.03L286.84,77.03Z" fill-rule="evenodd" fill="#4682b4" fill-opacity="0.471"/>
<polyline points="286.84,77.03 286.84,77.03" fill="none" stroke="#1e1e1e" stroke-width="0.5" stroke-linecap="round" stroke-linejoin="round"/>
<path d="M286.81,76.88L286.81,76.88Z" fill-rule="evenodd" fill="#4682b4" fill-opacity="0.471"/>
<polyline points="286.81,76.88 286.81,76.88" fill="none" stroke="#1e1e1e" stroke-width="0.5" stroke-linecap="round" stroke-linejoin="round"/>
<path d="M286.83,76.82L286.83,76.82Z" fill-rule="evenodd" fill="#4682b4" fill-opacity="0.471"/>
<polyline points="286.83,76.82 286.83,76.82" fill="none" stroke="#1e1e1e" stroke-width="0.5" stroke-linecap="round" stroke-linejoin="round"/>
<path d="M286.81,77.08L286.81,77.08Z" fill-rule="evenodd" fill="#4682b4" fill-opacity="0.471"/>
<polyline points="286.81,77.08 286.81,77.08" fill="none" stroke="#1e1e1e" stroke-width="0.5" stroke-linecap="round" stroke-linejoin="round"/>
<path d="M286.8,77.1L286.8,77.1Z" fill-rule="evenodd" fill="#4682b4" fill-opacity="0.471"/>
<polyline points="286.8,77.1 286.8,77.1" fill="none" stroke="#1e1e1e" stroke-width="0.5" stroke-linecap="round" stroke-linejoin="round"/>
<path d="M286.8,77.1L286.8,77.1Z" fill-rule="evenodd" fill="#4682b4" fill-opacity="0.471"/>
<polyline points="286.8,77.1 286.8,77.1" fill="none" stroke="#1e1e1e" stroke-width="0.5" stroke-linecap="round" stroke-linejoin="round"/>
<path d="M286.8,76.95L286.8,76.95Z" fill-rule="evenodd" fill="#4682b4" fill-opacity="0.471"/>
<polyline points="286.8,76.95 286.8,76.95" fill="none" stroke="#1e1e1e" stroke-width="0.5" stroke-linecap="round" stroke-linejoin="round"/>
<path d="M286.79,76.99L286.79,76.99Z" fill-rule="evenodd" fill="#4682b4" fill-opacity="0.471"/>
<polyline points="286.79,76.99 286.79,76.99" fill="none" stroke="#1e1e1e" stroke-width="0.5" stroke-linecap="round" stroke-linejoin="round"/>
<path d="M286.77,77.15L286.77,77.15Z" fill-rule="evenodd" fill="#4682b4" fill-opacity="0.471"/>
<polyline points="286.77,77.15 286.77,77.15" fill="none" stroke="#1e1e1e" stroke-width="0.5" stroke-linecap="round" stroke-linejoin="round"/>
<path d="M286.77,77.03L286.77,77.03Z" fill-rule="evenodd" fill="#4682b4" fill-opacity="0.471"/>
<polyline points="286.77,77.03 286.77,77.03" fill="none" stroke="#1e1e1e" stroke-width="0.5" stroke-linecap="round" stroke-linejoin="round"/>
<path d="M286.76,77.07L286.76,77.07Z" fill-rule="evenodd" fill="#4682b4" fill-opacity="0.471"/>
<polyline points="286.76,77.07 286.76,77.07" fill="none" stroke="#1e1e1e" stroke-width="0.5" stroke-linecap="round" stroke-linejoin="round"/>
<path d="M286.74,77.18L286.74,77.18Z" fill-rule="evenodd" fill="#4682b4" fill-opacity="0.471"/>
<polyline points="286.74,77.18 286.74,77.18" fill="none" stroke="#1e1e1e" stroke-width="0.5" stroke-linecap="round" stroke-linejoin="round"/>
<path d="M286.68,77.19L286.68,77.19Z" fill-rule="evenodd" fill="#4682b4" fill-opacity="0.471"/>
<polyline points="286.68,77.19 286.68,77.19" fill="none" stroke="#1e1e1e" stroke-width="0.5" stroke-linecap="round" stroke-linejoin="round"/>
<path d="M286.7,77.13L286.7,77.13Z" fill-rule="evenodd" fill="#4682b4" fill-opacity="0.471"/>
<polyline points="286.7,77.13 286.7,77.13" fill="none" stroke="#1e1e1e" stroke-width="0.5" stroke-linecap="round" stroke-linejoin="round"/>
<path d="M286.7,77.13L286.7,77.13Z" fill-rule="evenodd" fill="#4682b4" fill-opacity="0.471"/>
<polyline points="286.7,77.13 286.7,77.13" fill="none" stroke="#1e1e1e" stroke-width="0.5" stroke-linecap="round" stroke-linejoin="round"/>
<path d="M279.19,84L279.19,84Z" fill-rule="evenodd" fill="#4682b4" fill-opacity="0.471"/>
<polyline points="279.19,84 279.19,84" fill="none" stroke="#1e1e1e" stroke-width="0.5" stroke-linecap="round" stroke-linejoin="round"/>
<path d="M265.03,48.95L265.03,48.95Z" fill-rule="evenodd" fill="#4682b4" fill-opacity="0.471"/>
<polyline points="265.03,48.95 265.03,48.95" fill="none" stroke="#1e1e1e" stroke-width="0.5" stroke-linecap="round" stroke-linejoin="round"/>
<path d="M260.45,56.63L260.45,56.63Z" fill-rule="evenodd" fill="#4682b4" fill-opacity="0.471"/>
<polyline points="260.45,56.63 260.45,56.63" fill="none" stroke="#1e1e1e" stroke-width="0.5" stroke-linecap="round" stroke-linejoin="round"/>
<path d="M253.42,20.7L254.21,20.77L254.85,22.11L253.11,21.42L253.42,20.7Z" fill-rule="evenodd" fill="#4682b4" fill-opacity="0.471"/>
<polyline points="253.42,20.7 254.21,20.77 254.85,22.11 253.11,21.42 253.42,20.7" fill="none" stroke="#1e1e1e" stroke-width="0.5" stroke-linecap="round" stroke-linejoin="round"/>
<path d="M253.55,20.71L253.55,20.71Z" fill-rule="evenodd" fill="#4682b4" fill-opacity="0.471"/>
<polyline points="253.55,20.71 253.55,20.71" fill="none" stroke="#1e1e1e" stroke-width="0.5" stroke-linecap="round" stroke-linejoin="round"/>
<path d="M253.4,20.93L253.4,20.93Z" fill-rule="evenodd" fill="#4682b4" fill-opacity="0.471"/>
<polyline points="253.4,20.93 253.4,20.93" fill="none" stroke="#1e1e1e" stroke-width="0.5" stroke-linecap="round" stroke-linejoin="round"/>
<path d="M253.14,21.32L253.14,21.32Z" fill-rule="evenodd" fill="#4682b4" fill-opacity="0.471"/>
<polyline points="253.14,21.32 253.14,21.32" fill="none" stroke="#1e1e1e" stroke-width="0.5" stroke-linecap="round" stroke-linejoin="round"/>
<path d="M245.04,11.96L245.61,11.97L245.04,11.96Z" fill-rule="evenodd" fill="#4682b4" fill-opacity="0.471"/>
<polyline points="245.04,11.96 245.61,11.97 245.04,11.96" fill="none" stroke="#1e1e1e" stroke-width="0.5" stroke-linecap="round" stroke-linejoin="round"/>
<path d="M245.24,11.61L245.24,11.61Z" fill-rule="evenodd" fill="#4682b4" fill-opacity="0.471"/>
<polyline points="245.24,11.61 245.24,11.61" fill="none" stroke="#1e1e1e" stroke-width="0.5" stroke-linecap="round" stroke-linejoin="round"/>
<path d="M245.24,11.61L245.24,11.61Z" fill-rule="evenodd" fill="#4682b4" fill-opacity="0.471"/>
<polyline points="245.24,11.61 245.24,11.61" fill="none" stroke="#1e1e1e" stroke-width="0.5" stroke-linecap="round" stroke-linejoin="round"/>
<path d="M244.97,11.65L244.97,11.65Z" fill-rule="evenodd" fill="#4682b4" fill-opacity="0.471"/>
<polyline points="244.97,11.65 244.97,11.65" fill="none" stroke="#1e1e1e" stroke-width="0.5" stroke-linecap="round" stroke-linejoin="round"/>
<path d="M245.14,11.58L245.14,11.58Z" fill-rule="evenodd" fill="#4682b4" fill-opacity="0.471"/>
<polyline points="245.14,11.58 245.14,11.58" fill="none" stroke="#1e1e1e" stroke-width="0.5" stroke-linecap="round" stroke-linejoin="round"/>
<path d="M240.7,8.08L240.7,8.08Z" fill-rule="evenodd" fill="#4682b4" fill-opacity="0.471"/>
<polyline points="240.7,8.08 240.7,8.08" fill="none" stroke="#1e1e1e" stroke-width="0.5" stroke-linecap="round" stroke-linejoin="round"/>
<path d="M191.07,47.62L191.07,47.62Z" fill-rule="evenodd" fill="#4682b4" fill-opacity="0.471"/>
<polyline points="191.07,47.62 191.07,47.62" fill="none" stroke="#1e1e1e" stroke-width="0.5" stroke-linecap="round" stroke-linejoin="round"/>
<path d="M189.33,44.93L189.33,44.93Z" fill-rule="evenodd" fill="#4682b4" fill-opacity="0.471"/>
<polyline points="189.33,44.93 189.33,44.93" fill="none" stroke="#1e1e1e" stroke-width="0.5" stroke-linecap="round" stroke-linejoin="round"/>
<path d="M188.7,51.15L188.7,51.15Z" fill-rule="evenodd" fill="#4682b4" fill-opacity="0.471"/>
<polyline points="188.7,51.15 188.7,51.15" fill="none" stroke="#1e1e1e" stroke-width="0.5" stroke-linecap="round" stroke-linejoin="round"/>
<path d="M187.31,47.01L187.31,47.01Z" fill-rule="evenodd" fill="#4682b4" fill-opacity="0.471"/>
<polyline points="187.31,47.01 187.31,47.01" fill="none" stroke="#1e1e1e" stroke-width="0.5" stroke-linecap="round" stroke-linejoin="round"/>
<path d="M186.45,43.18L186.79,43.63L186.45,43.18Z" fill-rule="evenodd" fill="#4682b4" fill-opacity="0.471"/>
<polyline points="186.45,43.18 186.79,43.63 186.45,43.18" fill="none" stroke="#1e1e1e" stroke-width="0.5" stroke-linecap="round" stroke-linejoin="round"/>
<path d="M184.31,51.42L184.31,51.42Z" fill-rule="evenodd" fill="#4682b4" fill-opacity="0.471"/>
<polyline points="184.31,51.42 184.31,51.42" fill="none" stroke="#1e1e1e" stroke-width="0.5" stroke-linecap="round" stroke-linejoin="round"/>
<path d="M184.09,51.35L184.09,51.35Z" fill-rule="evenodd" fill="#4682b4" fill-opacity="0.471"/>
<polyline points="184.09,51.35 184.09,51.35" fill="none" stroke="#1e1e1e" stroke-width="0.5" stroke-linecap="round" stroke-linejoin="round"/>
<path d="M184.26,51.27L184.26,51.27Z" fill-rule="evenodd" fill="#4682b4" fill-opacity="0.471"/>
<polyline points="184.26,51.27 184.26,51.27" fill="none" stroke="#1e1e1e" stroke-width="0.5" stroke-linecap="round" stroke-linejoin="round"/>
<path d="M184.17,51.31L184.17,51.31Z" fill-rule="evenodd" fill="#4682b4" fill-opacity="0.471"/>
<polyline points="184.17,51.31 184.17,51.31" fill="none" stroke="#1e1e1e" stroke-width="0.5" stroke-linecap="round" stroke-linejoin="round"/>
<path d="M184.12,51.33L184.12,51.33Z" fill-rule="evenodd" fill="#4682b4" fill-opacity="0.471"/>
<polyline points="184.12,51.33 184.12,51.33" fill="none" stroke="#1e1e1e" stroke-width="0.5" stroke-linecap="round" stroke-linejoin="round"/>
<path d="M184.13,51.32L184.13,51.32Z" fill-rule="evenodd" fill="#4682b4" fill-opacity="0.471"/>
<polyline points="184.13,51.32 184.13,51.32" fill="none" stroke="#1e1e1e" stroke-width="0.5" stroke-linecap="round" stroke-linejoin="round"/>
<path d="M184.11,51.33L184.11,51.33Z" fill-rule="evenodd" fill="#4682b4" fill-opacity="0.471"/>
<polyline points="184.11,51.33 184.11,51.33" fill="none" stroke="#1e1e1e" stroke-width="0.5" stroke-linecap="round" stroke-linejoin="round"/>
<path d="M175.04,47.04L175.04,47.04Z" fill-rule="evenodd" fill="#4682b4" fill-opacity="0.471"/>
<polyline points="175.04,47.04 175.04,47.04" fill="none" stroke="#1e1e1e" stroke-width="0.5" stroke-linecap="round" stroke-linejoin="round"/>
<path d="M173.29,52.15L173.29,52.15Z" fill-rule="evenodd" fill="#4682b4" fill-opacity="0.471"/>
<polyline points="173.29,52.15 173.29,52.15" fill="none" stroke="#1e1e1e" stroke-width="0.5" stroke-linecap="round" stroke-linejoin="round"/>
<text x="221.96" y="28.38" font-family="sans-serif" font-size="14" stroke="#ffffff" stroke-opacity="0.784" stroke-width="2.33" stroke-linejoin="round" paint-order="stroke" fill="#141414">Kiribati</text>
</svg>
