<?xml version="1.0" encoding="UTF-8" standalone="no"?>
<svg xmlns="http://www.w3.org/2000/svg" width="2000" height="993" viewBox="0 0 2000 993">
<rect width="2000" height="993" fill="#ffffff"/>
<path d="M334.63,726.76L334.87,725.15L333.63,721.15L334.06,719.55L331.34,716.88L331.16,712.94L332.07,712.28L332.98,711.86L336.3,712.7L341.86,710.85L345.25,714.24L348.48,712.99L351.1,713.79L352.25,711.52L360.76,702.61L365.67,703.28L377.74,701.92L383.3,704.23L381.99,706.03L387.29,701.61L391.93,704.81L390.47,705.91L390.78,707.08L393.47,710.43L395.87,707.97L397.63,708.04L398.11,709.22L401,707.71L401.85,708.44L403.81,708.05L405.18,709.27L403.34,711.05L407.43,710.51L413.91,716.55L423.01,718.98L424.99,717.9L426.91,718.66L428.74,721.74L428.21,726.36L429.23,727.55L428.45,729.38L429.65,730.58L431.59,730.65L438.21,733.45L440.19,732.59L442.47,733.14L442.6,734.3L446.98,735.62L447.38,734.24L446.36,733.05L448.83,733.14L447.41,728.45L447.65,721.74L450.64,722.31L452.09,721.21L457.03,721.38L458.4,722.59L458.34,724.44L459.18,725.63L461.41,727.56L461.7,729.42L460.37,731.92L462.49,737.09L461.3,735.89L460.03,736.54L461.16,739.83L457.13,738.53L458.18,739.03L457.78,740.17L460.88,742.6L462.81,743.13L462.61,743.82L463.85,743.86L464.81,746.67L464.39,748.51L465.46,748.55L465.95,749.72L467.12,746.52L469.28,745.44L468.77,744.73L469.33,744.05L473.31,741.41L476.46,737.34L478.97,736.5L481.59,737.52L484.42,737.38L485.53,736.03L484.52,734.37L484.35,729.04L486.21,726.32L494.4,724.28L494.56,724.98L500.7,726.34L501.73,727.3L501.85,729.16L505.34,730.43L508.01,729.82L508.75,728.91L503.84,727.6L505.65,726.27L510.96,726.21L515.51,721.95L518.96,724.61L518.99,723.68L523.64,721.97L523.89,719.66L513.58,716.1L509.12,711.79L511.14,709.53L523.96,700.21L523.31,698.57L525.27,697.93L527.31,694.76L531.43,692.57L530.95,690.93L532.32,686.57L531.4,681.91L534.43,680.85L539.02,680.75L538.69,680.05L544.3,674.89L546.61,674.26L546.67,672.18L547.36,672.9L549.14,672.02L549.41,674.81L550.27,675.53L551.33,675.56L551.72,674.18L558.91,675.32L559.11,674.4L561.01,675.84L559.11,680.65L563.98,682.87L564.07,685.89L564.92,686.84L569.35,686.04L570.27,684.67L572.57,684.27L580.81,692.38L583.76,694.08L589.21,694.92L590.17,691.93L589.2,688.67L593.87,678.6L593.07,675.57L591.69,674.61L589.51,670.38L585.81,670.51L583.2,669.28L583.23,668.36L584.13,667.69L583.8,666.98L587.87,666.17L588.8,664.34L590.2,664.38L590.93,663.47L591.31,662.55L589.96,660.2L590.55,657.9L588.96,658.09L585.48,656.84L585.33,655.68L586.58,655.02L582.4,653.51L577.62,648.52L578.34,647.84L584.48,648.48L585.07,645.94L589.15,644.67L590.32,646.78L593.08,648.71L596.25,655.51L600.51,660.71L602.3,659.37L605.84,658.54L613.61,664.29L619.23,664.66L624.57,669.43L627.89,670.67L631.75,670.99L634.29,668.04L634.5,666.66L634.45,661.33L632.73,659.44L633.99,658.31L635.22,658.57L635.25,657.41L633.39,654.13L634.83,652.54L638.91,651.02L640.46,652.44L640.27,653.13L643.09,652.74L646.21,654.66L647.1,654.22L648.49,655.18L648.44,657.26L649.51,656.59L650.38,657.07L650.76,655.92L649.72,654.97L648.76,651.25L648.99,648.7L650.84,644.58L654.08,641.18L654.65,639.57L656.43,638.45L655.62,635.19L657.75,634.08L658.31,632.94L666.19,634.04L669.84,627.64L668.43,627.61L668.82,625.99L667.59,625.97L667.61,625.04L671.11,625.35L678.89,622.74L681.91,620.95L684.02,620.76L692.24,613.29L694.52,613.56L697.16,612.69L698.73,613.19L699.97,612.52L702.94,613.5L704.01,612.36L718.27,609.16L717.6,598.03L716.05,596.39L712.7,597.71L710.27,596.51L709.8,593.95L708.92,593.7L708.04,594.15L707.18,593.44L704.18,594.77L700.84,594.94L699.42,596.3L697.87,594.65L696.47,594.85L695.04,596.21L694.01,595.26L692.72,598.25L691.15,597.98L689.7,600.5L688.48,600.01L686.7,601.37L686.47,603.91L683.12,605L676.37,601.15L676.4,599.76L675.04,597.88L670.9,594.55L664.66,591.64L663.25,592.3L643.79,592.78L641.2,591.33L640.13,592.23L634.55,591.17L628.99,589.42L625.54,587.25L622.55,587.87L621.08,583.67L623.11,579.32L617.73,570.38L617.1,567.59L616.06,567.33L616.1,565.94L615.07,564.99L614.18,565.89L612.6,566.09L612.26,565.38L611.54,566.52L610.37,564.18L607.94,563.65L607.04,564.55L605.66,563.82L605.16,562.88L607.68,559.94L604.91,558.94L605.32,556.64L604.15,554.75L598.86,549.98L594.7,548.72L592.91,550.29L588.9,549.95L587.01,548.97L586.19,546.86L583.42,546.09L581.6,542.34L577.96,547.56L575.13,549.11L571.63,549.01L567.32,553.29L561.67,555.21L552.38,556.09L550.05,558.11L549.1,554.84L547.9,554.11L548.48,552.27L551.93,553.77L554.71,548.29L556.61,549.04L557.11,543.73L553.97,531.83L552.26,530.85L552.16,528.3L547.16,526.3L547.42,523.29L549.91,521.75L552.08,519.03L550.74,517.37L546.87,518.42L544.63,517.65L542.12,519.66L539.86,519.59L537.68,522.31L537.47,523.69L533.33,527.73L529.6,524.14L523.4,521.63L522.26,519.28L522.47,518.13L514.28,517.87L512.81,520.37L511.23,520.55L509.89,518.88L506.96,517.86L506.3,516.68L504.72,517.1L501.48,514.9L501.32,509.11L499.24,508.81L497.55,507.13L498.9,503.24L500.69,501.68L502.32,494.55L504.81,493.01L506.14,489.58L505.64,488.87L509.21,485.98L504.98,482.36L502.85,478.36L501.73,475.54L504.02,474.46L502.43,470.01L501.21,470.2L499.55,472.92L494.57,471.13L493.92,469.72L495.23,466.99L493.52,466.24L493.6,463.69L490.35,462.42L487.87,458.63L487.24,451.66L484.19,449.48L481.66,452.4L480.43,452.59L479.84,449.56L477.63,448.32L474.75,451.23L474.79,454.94L472.86,455.57L470.46,454.79L471.19,448.79L472.81,447L474.57,446.36L475.32,444.77L473.59,439.84L474.28,439.87L473.96,438.93L474.85,438.5L476.57,438.79L475.77,436.91L477.01,436.03L477.44,433.72L475.42,432.03L478.96,430.07L478.53,427.28L476.68,425.82L471.89,428.9L471.67,430.28L467.91,433.39L468.04,434.79L464.95,438.61L461.79,439.66L460.42,439.15L459.53,439.81L458.52,439.08L454.61,441.72L464.97,447.88L466.47,449.78L467.85,454.93L465.08,459.46L462.45,460.3L462.41,461.45L463.77,462.2L464.22,464.07L461.04,470.44L459.8,471.09L459.39,472.93L454.98,474.62L451.98,480.53L449.47,482.53L448.97,482.05L447.33,484.07L445.1,483.29L443.95,481.4L441.6,483.63L439.69,483.56L438.75,480.74L437.37,480.46L435.02,482.69L429.28,482.71L426.06,485.13L426.86,486.78L426.44,488.85L427.6,490.29L425.26,492.28L424.86,493.66L426.55,495.11L426.85,496.28L425.7,499.02L427.07,499.76L427.69,501.87L427.46,503.25L422.43,507.23L423.3,511.67L424.02,511.23L425.83,514.08L422.11,520.19L415.6,525.96L414.33,522.67L412.75,523.07L413.15,521.7L412.46,521.44L411.72,522.57L408.1,521.5L407.66,519.4L407.24,521.01L402.84,521.99L397.63,525.72L397.61,526.42L395.17,526.32L394.57,523.75L395.44,515.21L394.78,509.86L392.11,506.74L391.21,507.4L387.65,504.94L386.37,506.51L386.4,509.98L385.15,510.86L384.11,510.58L382.54,506.35L381.32,506.3L378.2,510.11L375.4,510.46L369.08,515.53L367.17,515.21L364.13,513L360.52,507.52L357.59,506.7L353.7,503.99L346.6,506.93L345.74,506.66L341.24,509.71L337.19,506.75L335.44,502.73L333.72,502.2L328.35,497.56L326.3,492.83L322.81,488.97L320.39,488.63L319.16,488.8L314.81,492.55L313.05,492.93L312.14,497.52L310.23,501.14L308.58,495.27L308.66,486.01L307.84,484.81L309.82,479.57L309.15,475.37L311.44,470.84L310.13,469.16L310.77,466.41L312.03,465.54L311.04,464.34L310.18,460.36L311.2,457.16L309.09,453.82L307.41,452.58L304.36,447.11L303.66,447.08L303.58,445.22L301.57,443.51L300.62,437.9L298.54,437.81L295.31,436.27L292.34,436.59L289.09,439.22L284.26,438.53L282.1,440.28L279.72,439.01L279.27,441.3L278.18,442.18L275.4,442.27L274.89,445.73L272.22,446.99L271.92,449.52L268.96,449.61L265.21,451.75L263.69,450.74L260.69,451.76L257.53,448.82L256.86,444.85L253.19,441.65L252.74,440.24L249.37,438.22L247.47,434.42L242.43,434.63L241.73,431.11L240.12,428.72L237.52,428.58L235.87,426.88L233.62,426.76L230.06,421.71L225.1,423.78L223.56,426.71L218.8,428.09L216.9,427.76L213.93,424.82L209.67,423.44L207.34,421.46L207.2,420.76L209.02,419.23L210.45,415.14L209.04,412.28L210.65,411.21L211.07,409.84L214.42,408.85L215.61,405.9L215.9,403.83L214.62,401.68L214.89,399.84L218.69,400.04L220.65,398.98L224.16,401.48L226.31,400.2L227.08,398.62L229.53,398.28L232.08,395.86L238.18,395.01L242.61,393.15L248.22,384.85L257.59,380.92L260.73,376.9L265.89,377.39L267.81,373.54L268.55,365.46L272.13,359.38L274.74,359.04L276.71,357.52L279.33,356.95L281.15,354.95L284.23,355.56L285.63,347.98L290.13,347.73L292.19,344.35L291.89,343.41L293.65,342.57L293.89,341.19L296.26,338.52L296.92,335.54L300.8,333.63L301.99,333.92L304.46,332.88L308.25,332.82L309.56,334.5L312.3,334.86L313.06,329.57L314.78,329.64L315.73,331.54L317.6,332.09L318.66,331.44L321.5,333.43L322.76,332.33L326.34,333.18L328.4,329.57L329.81,328.94L330.29,325.94L329.28,321.5L329.95,318.05L327.66,315.4L328.48,312.42L331.55,309.32L331.17,306.29L332.86,303.12L335.18,305.08L336.22,304.89L336.79,303.76L338.91,306.4L341.15,306.27L345.85,309.02L352.22,308.84L354.6,309.64L356.28,306.46L358.25,304.69L357.1,303.49L360.4,302.7L361.16,301.11L363.01,302.12L364.28,300.55L364.72,298.25L365.96,297.38L368.02,297.47L371.03,295.51L373.61,295.38L374.47,291.25L375.19,290.58L377.05,291.36L379.33,290.29L381.02,286.66L383.04,287.67L386.78,284.58L390.38,284.73L391.18,286.15L394.26,286.51L395.87,284.95L394.71,283.74L397.84,282.94L399.5,280L400.69,280.28L401.41,279.61L401.63,278.46L400.17,276.32L403.55,273.21L402.91,272.26L403.29,271.11L400.61,269.62L399.74,265.64L397.69,265.33L395.75,266.64L393.04,265.83L393.66,263.31L392.01,261.62L390.95,262.27L388.49,259.62L387.29,259.57L386.5,257.92L382.19,254.5L381.07,252.37L379.72,252.08L379.33,252.99L376.55,254.03L374.07,251.84L371.33,251.73L369.39,248.86L367.3,249.7L363.22,248.83L361.38,251.77L359.81,252.39L358.78,256.52L355.97,258.02L351.72,257.14L348.37,255.37L346.9,253.69L343.04,255.6L339.47,254.98L340.3,251.77L335.4,246.22L336.36,243.95L335.78,241.61L339.52,238.3L338.8,235.25L341.02,231.64L343.25,231.51L345.71,230L347.7,227.53L347.97,225.46L351.8,224.01L348.22,219.68L351.8,216.13L353.06,210.62L356.22,204.96L357.06,201.29L373.02,207.77L375.51,205.33L368.33,193.43L361.07,187.56L361.88,180.64L370.34,178.22L378.69,178.58L388.27,177.82L389.18,180.64L392.23,176.82L392.66,174.75L392.04,173.34L393.07,168.98L392.5,162L397.14,161.03L402.09,156.6L403.9,153.89L405.64,153.03L405.71,151.18L407.45,150.33L408.19,148.97L407.72,147.79L409.47,146.7L407.88,139.68L408.77,138.56L411.32,138.66L420.43,136.24L425.31,137.59L430.52,134.78L436.27,135.7L443.14,138.27L448.15,136.15L449.65,136.9L454.15,134.98L457.95,137.9L460.21,141.23L462.21,142.23L465.28,142.1L469.64,143.88L471.35,143.48L478,138.39L483.12,137.64L492.75,134.73L497.91,132.82L502.6,129.74L510.43,129.54L517.29,132.78L523.01,134.35L525.45,137.91L530.6,141.55L536.64,144.28L539.53,144.14L542.72,145.4L547.98,151.35L553.2,153.13L557.48,152.57L561.14,149.43L565.37,150.25L572.4,148.37L580.89,148.85L601.04,158.44L603.36,160.82L617.33,166.98L625.96,169.05L632.46,167.59L635.68,168.37L645.76,174.17L658.77,178.65L663.57,184.78L667.49,192.28L670.32,195.35L674.53,197.99L681.5,199.3L685,202.85L686.7,203.35L705.87,200.5L709.28,200.34L713.35,201.57L722.42,200.12L728.37,201.16L740.07,205.77L744.84,205.85L754.69,208.57L756.34,212.07L755.32,222.47L756.14,224.34L762.41,227.68L784.56,232.19L789.4,228.32L790.12,226.01L788.28,222.98L783.37,220.36L778.38,211.25L775.79,201.72L777.99,179.99L781.33,173.55L781.87,159.67L783.62,156.45L788.11,151.65L789.69,147.97L789.05,145.41L789.89,133.85L791.82,129.47L792.24,124.15L790.68,114.63L791.21,112.56L794.3,110.05L796.55,106.61L798.31,101.77L798.54,97.61L796.53,95.72L796.73,93.64L798.8,90.89L807.81,88.23L812.75,85.75L816.17,82.78L822.8,80.32L834.05,73.27L840.82,71.95L844.91,68.98L846.27,68.54L854.53,70.94L858.77,69.59L865.8,58.3L867.71,52.3L865.88,50.2L868.61,46.75L876.82,53.54L880.83,58.67L886.27,55.23L902.5,52.57L909.41,53.31L911.28,51.24L906.46,39.39L908.33,36.86L912.87,40.36L916.08,39.68L917.92,41.78L917.58,42.24L920.28,42.02L921.47,40.87L923.48,42.74L925.81,48.77L927,48.08L927.67,48.78L930.21,48.1L929.69,49.48L931.21,49.72L931.54,51.35L932.72,51.35L933.39,52.74L936.43,52.29L936.77,53.22L939.8,53.93L940.14,55.09L940.98,54.4L942.16,55.33L941.31,56.72L942.66,58.34L943.5,57.88L944,59.51L945.36,58.58L946.36,60.67L950.41,62.54L951.26,61.85L953.96,63.48L954.81,62.55L957.51,62.56L959.53,65.11L963.58,66.05L964.09,67.21L966.62,66.06L967.3,67.22L968.82,66.76L969.32,68.84L971.18,68.15L972.36,69.08L971.85,70.24L972.87,72.09L975.23,73.95L974.89,75.34L976.41,76.5L977.59,79.28L980.97,80.68L981.81,84.38L985.87,86.93L987.22,89.48L990.94,90.18L996.53,97.83L1000.76,101.3L1002.46,100.37L1004.49,100.6L1006.35,98.52L1009.91,99.67L1011.6,98.52L1013.47,98.98L1014.31,98.05L1017.87,98.97L1021.43,100.59L1021.26,101.52L1022.45,102.9L1023.29,102.67L1026.86,105.44L1029.74,106.13L1030.42,107.06L1029.74,107.52L1032.11,107.29L1038.57,111.67L1042.13,112.35L1044.34,114.66L1049.09,117.2L1051.64,116.72L1053.85,118.57L1056.73,118.79L1066.09,125.47L1075.26,127.74L1076.29,128.43L1076.29,130.05L1080.38,132.11L1083.44,132.56L1087.33,130.91L1093.27,130.88L1094.98,132.02L1099.9,132.22L1103.14,133.82L1106.36,133.11L1114.02,135.6L1116.22,135.11L1120.14,136.47L1122.35,136.45L1124.54,134.82L1125.9,134.8L1130.84,136.85L1139.68,137.69L1163.88,145.08L1164.73,145.07L1172.1,136.65L1176.17,121.32L1182.5,111.75L1184.37,112.42L1186.56,111.23L1194.69,110.43L1198.06,109.46L1199.74,107.82L1201.6,107.79L1203.84,110.31L1203.71,113.09L1211.52,113.91L1214.93,115.48L1217.18,117.99L1220.04,116.79L1222.92,116.75L1224.26,115.34L1227.33,116.22L1229.34,114.8L1231.71,114.53L1232.91,115.21L1234.59,114.25L1243.72,112.72L1245.42,112.92L1246.32,116.15L1249.69,114.93L1260.74,116.36L1263.64,117.24L1264.69,118.84L1263.4,122.57L1264.13,125.8L1267.71,126.43L1268.42,128.27L1270.98,128.68L1273.84,127.24L1275.71,127.44L1278.72,125.3L1283.65,125.67L1286,124.46L1286.82,122.59L1289.04,123.25L1291.39,122.27L1293.44,122.93L1294.95,121.97L1296.07,118.47L1297.75,117.75L1297.86,114.96L1301.07,113.97L1305.7,116.66L1309.27,116.81L1309.96,117.49L1313.17,116.73L1315,115.07L1319.12,117.3L1322.64,115.6L1324.7,116.71L1327.07,116.2L1332.69,117.46L1339.38,113.14L1340.5,110.33L1339.27,108.28L1340.42,106.63L1344.45,104.92L1348.23,107.14L1349.72,105.72L1351.75,105.21L1354.03,101.68L1353.49,100.07L1353.96,98.67L1355.31,98.4L1360.13,101.3L1361.62,100.1L1363.5,100.75L1364.56,102.35L1365.71,100.93L1367.95,102.26L1370.46,101.04L1372.09,98.45L1374.31,99.09L1376.8,97.17L1378.86,98.28L1380.2,97.55L1382.25,97.96L1384.05,102.31L1386.15,104.81L1387.33,104.54L1387.55,106.16L1390.71,103.99L1392.01,101.87L1392.11,99.32L1394.31,99.26L1395.81,98.06L1397.87,99.17L1401.43,99.3L1402.65,100.43L1407.2,99.61L1408.25,100.51L1407.6,101.68L1408.17,103.75L1407.35,104.93L1408.75,106.51L1412.45,105.48L1417.84,109.97L1419.87,109.91L1420.13,112.91L1427.93,112.69L1432.04,113.96L1432.32,112.1L1433.16,111.84L1435.74,112.92L1436.74,112.43L1441.59,115.76L1450.44,110.86L1450.58,109.93L1453.42,108.68L1455.82,109.3L1459.01,108.28L1461.48,105.88L1462.5,106.08L1463.62,109.06L1466.33,108.97L1468.15,107.76L1469.86,107.94L1472.16,105.78L1475.53,104.97L1476.07,105.88L1478.28,106.04L1476.64,107.72L1477.51,108.62L1479.55,108.78L1480.46,110.61L1484.01,110.26L1485.9,110.89L1487.9,109.67L1491.82,110.23L1493.21,111.34L1494.89,110.82L1495.53,109.64L1498.63,110.93L1500.22,112.73L1502.58,112.42L1503.9,111.21L1505.8,112.31L1508.65,111.28L1511.22,111.89L1514.03,109.71L1519.56,112.52L1520.7,115.96L1521.56,116.39L1524.81,116.97L1526.3,115.76L1530.19,115.39L1536.77,119.09L1537.76,118.13L1539.78,117.82L1540.59,116.63L1541.82,117.75L1542.3,121.44L1546.61,123.36L1551.96,120.85L1552.21,118.52L1556,120L1557.51,119.48L1561.23,123.51L1563.91,122.48L1565.46,123.12L1567.83,122.79L1570.26,119.69L1571.76,119.17L1573,120.28L1576.08,120.85L1579.09,119.81L1581.14,119.96L1582.44,118.52L1581.87,116.92L1585.35,114.69L1588.34,117.35L1589.63,115.68L1591.35,116.08L1592.67,115.33L1593.75,116.67L1595.42,116.14L1597.85,117.2L1598.41,118.57L1600.27,118.26L1604.06,119.73L1611.38,119.89L1614.59,115.59L1613.89,114.92L1614.46,112.35L1615.97,111.82L1618.6,113.8L1623.53,114.05L1626.53,112.77L1626.66,111.6L1628.87,111.74L1630.47,109.59L1633.22,110.16L1635,108.23L1636.37,108.41L1638.69,111.09L1640.72,111L1642.83,112.53L1643.8,115.27L1649.45,116.41L1651.99,120.01L1655.98,117.98L1657.72,118.83L1658.11,119.97L1661.03,120.76L1662.21,124.19L1665.05,126.84L1670.14,126.61L1672.74,123.94L1675.48,124.51L1676.93,126.3L1677.72,125.11L1683.71,125.99L1686.07,129.13L1687.85,127.19L1693.15,127.87L1697.17,130L1699.48,128.5L1700.04,129.63L1703.13,130.18L1703.68,131.08L1705.89,130.97L1710.64,134.22L1716.83,132.07L1720.29,133.29L1726.56,132.75L1727.57,135.95L1728.45,136.6L1730.12,135.82L1732.19,132.94L1740.61,131.13L1755.95,125.01L1754.97,129.24L1751.61,136.6L1751.75,139.37L1752.32,143.98L1754.42,148.28L1754.32,149.68L1758.58,156.41L1768.44,165.64L1770.36,166.47L1775.15,166.68L1778.77,170.67L1782.66,170L1785.32,171.94L1789.08,175.22L1790.49,179.32L1793.03,181.97L1796.72,183.86L1799.08,189.76L1802.19,190.28L1802.67,192.81L1809.5,195.91L1812.22,201.79L1815.84,202.29L1817.66,201.26L1820.08,201.59L1820.72,200.86L1821.81,201.96L1825.35,201.07L1827.63,202.1L1830.84,201.23L1834.3,201.96L1835.81,201.41L1835.52,199.34L1837.59,196.67L1840.61,195.57L1844.71,195.57L1844.95,196.72L1846.55,197.79L1848.57,197.21L1853.61,198.54L1853.93,201.08L1855.98,201.19L1857.64,200.17L1859.37,200.53L1861.01,202.29L1863.88,201.66L1867.38,202.85L1872.27,201.63L1874.61,203.58L1878.82,202.4L1879.72,203.28L1882.88,201.7L1884,203.26L1887.2,202.37L1888.82,203.66L1890.81,202.62L1891.35,203.05L1891.03,206.31L1892.39,209.02L1891.98,210.66L1894.7,216.07L1897.95,215.87L1898.13,218.87L1900.25,219.91L1901.44,222.62L1903.39,223.66L1912.33,224.04L1912.93,225.39L1912.38,227.75L1914.35,229.02L1916.76,229.1L1921.09,232.55L1923.34,235.65L1919.38,238.22L1929.89,252.64L1928.62,257.13L1928.97,265.46L1924.75,266.65L1924.63,267.58L1927.25,270.9L1926.93,274.17L1930.67,278.8L1937.71,284.16L1941.08,285.57L1941.66,286.7L1940.33,287.48L1938.49,291.07L1936.69,292.58L1932.55,292.37L1927.96,293.35L1926.31,294.62L1915.46,291.81L1913.94,292.36L1909.75,291.46L1906.84,291.64L1905.39,293.35L1903,293.73L1899.5,292.78L1897.17,294.08L1894.54,293.31L1890.32,294.72L1887.37,294.43L1884.91,296.43L1881.99,296.61L1881.37,297.8L1877.69,299.64L1876.42,301.57L1876.43,304.59L1877.83,307.98L1877.39,309.17L1875.19,309.99L1874.29,312.13L1872.11,313.19L1872.47,316.41L1870.05,319.34L1870.85,321.14L1870.13,323.74L1869.2,325.41L1868.01,325.72L1865.67,330.02L1864.13,330.35L1861.78,328.39L1856.44,328.7L1853.44,330.5L1851.49,329.68L1842.27,331.36L1839.2,335.01L1839.66,337.07L1838.57,339.22L1830.54,343.84L1828.64,343.95L1826.47,345.23L1816.66,346L1816.92,344.36L1812.85,342.49L1811.88,343.71L1808.84,345.03L1803.53,345.78L1800.59,348.95L1799.71,352.01L1796.87,353.78L1794.3,357.4L1789.08,353.5L1786.86,357.33L1784.17,358.63L1782.76,361.48L1781.27,362.72L1780.73,362.28L1781.18,364.35L1776.8,366.66L1777.6,368.7L1777.12,369.42L1774.37,369.8L1773.95,371.67L1771.48,374.12L1766.5,374.84L1762.48,373.89L1762.51,374.58L1759.29,375.9L1755.83,375.84L1754.46,379.62L1751.09,381.41L1749.13,383.83L1744.82,384.04L1744.36,385.22L1740.26,386.35L1739.63,387.54L1740.2,388.67L1738.67,389.21L1738.93,391.05L1738.1,391.79L1734.99,391.94L1733.53,390.39L1728.85,393.86L1725.11,395.2L1724.3,396.4L1722.9,396.01L1723.17,398.08L1721.62,398.39L1721.48,399.09L1722.06,400.22L1719.08,403.14L1716.68,403.72L1715.88,405.15L1716.13,406.76L1714.29,408.01L1711.98,406.96L1710.97,407.47L1710.44,410.97L1707.25,413.2L1705.7,413.28L1704.27,416.13L1701.33,416.26L1700.06,415.16L1697.19,416.69L1693.39,417.09L1691.03,418.59L1688.74,417.77L1687.57,418.75L1686.68,418.33L1685.02,419.79L1682.94,423.83L1683.69,424.95L1685.27,425.34L1685.13,426.05L1683.49,428.21L1681.26,428.77L1678.59,431.21L1675.79,438.29L1671.37,436.63L1668,438.86L1665.39,438.75L1664.4,436.01L1663.35,435.83L1660.46,437.11L1659.85,438.99L1656.54,442.84L1656.48,445.4L1655.81,445.89L1653.21,446L1652.23,447.66L1647.61,449.25L1642.38,452.72L1640.43,451.88L1638.91,452.87L1638.01,452.21L1635.3,453.95L1634.21,452.84L1633.36,453.1L1632.02,454.32L1632.44,456.15L1630.96,458.07L1628.54,458.4L1627.3,457.76L1626.28,458.5L1622.95,457.71L1620.48,461.05L1618.31,459.06L1616.43,459.83L1614.82,458.74L1612.95,459.74L1610.3,458.69L1608.4,459L1606.07,457.24L1603.98,457.09L1602.47,458.31L1597.45,458.97L1591.84,461.97L1591.73,463.6L1590.24,465.74L1592.55,471.44L1590.92,474.05L1590.83,476.14L1589.17,478.29L1589.73,483.83L1588.55,484.8L1588.56,489.43L1589.24,493.58L1587.5,498.05L1584.41,499.09L1581.61,498.97L1572.94,504.63L1571.54,504.45L1570.23,506.58L1568.51,507.34L1566.06,506.97L1561.8,509.68L1559.29,507.69L1554.27,508.8L1552.69,508.39L1546.7,511.39L1544.71,514.24L1537.51,517.74L1534.48,520.86L1532.86,524.39L1532.61,527.18L1532.6,531.81L1534.68,536.6L1536.87,539.07L1534.9,542.62L1532.06,541.33L1529.25,546.06L1529.31,547.68L1528.09,547.72L1526.92,549.38L1520.87,546.11L1520.58,547.98L1518.37,549.67L1517.15,549.72L1515.65,551.85L1514.59,551.66L1513.4,552.62L1508.87,553.01L1506.33,550.31L1502.23,553.23L1500.09,551.68L1497.52,553.38L1495.93,552.97L1495.48,555.3L1492.15,554.95L1489.64,552.94L1487.76,554.16L1484.6,553.8L1482.72,555.02L1476.96,555.43L1475.02,555.03L1474.63,553.65L1475.93,550.6L1475.38,549.69L1468.05,549.92L1467.67,549.01L1465.39,548.61L1465.51,546.99L1464.61,545.86L1459.62,548.56L1458.67,545.81L1456.24,546.34L1455.17,545.68L1454.69,547.08L1447.65,551.23L1447.36,553.32L1441.83,555.34L1439.36,554.71L1439.29,552.4L1435.63,552.51L1435.25,551.59L1436.08,549.95L1433.25,548.64L1429.46,550.6L1425.79,550.7L1425.53,553.72L1422.73,553.57L1419.35,551.58L1418.13,551.61L1417.57,550.24L1413.72,550.11L1412.48,549.22L1410.69,547.64L1411.84,545.3L1408.83,543.76L1407.91,541.93L1404.09,542.73L1400.06,542.14L1398.87,543.33L1396.08,543.4L1395.37,543.19L1395.34,541.8L1392.51,540.25L1391.46,540.28L1391.13,541.21L1386.83,543.64L1386.2,546.43L1383.81,548.35L1383.83,549.27L1380.57,551.44L1376.6,553.39L1374.68,553.44L1372.87,551.17L1370.44,551.69L1370.15,554.01L1367.09,557.56L1367.92,562.87L1366.54,563.83L1365.3,562.93L1361.45,563.02L1358.01,565.19L1357.53,567.05L1354.9,566.88L1352.32,568.79L1350.57,568.83L1350.11,571.39L1350.85,573.23L1348.31,576.76L1346.83,580.96L1348.27,582.55L1348.48,584.16L1348.54,586.71L1346.03,591.86L1347.48,594.14L1345.21,594.66L1345.68,599.74L1346.92,600.17L1343.96,601.17L1344.51,602.08L1343.64,602.56L1344.01,603.25L1342.35,607.69L1339.77,609.6L1336.59,608.51L1336.63,610.59L1331.79,613.48L1332.51,614.39L1331.85,616.25L1333.59,623.63L1336.44,625.65L1337.92,629.09L1334.83,632.4L1335.45,636.55L1334.07,637.74L1333.77,639.83L1334.95,645.82L1332.01,647.97L1330.42,647.54L1327.63,648.53L1326.26,650.18L1326.67,653.18L1325.29,654.14L1324.98,656.23L1321.16,658.62L1317.4,663.8L1317.29,666.81L1314.06,672.43L1315.49,673.56L1315.55,676.57L1314.68,677.28L1315.32,682.59L1309.78,687.34L1309.51,691.51L1305.46,691.59L1303.93,694.4L1301.3,694.92L1300.64,697.24L1299.06,697.74L1299.62,699.35L1298.41,700.53L1295.25,701.52L1293.13,701.33L1291.76,703.2L1288.59,703.73L1287.83,700.73L1285.37,701.24L1283.17,706.38L1281.45,708.49L1280.94,709.89L1281.69,711.96L1280.99,712.44L1280.11,712.45L1278.25,707.39L1276.65,706.73L1278.5,701.37L1276.35,699.79L1275.77,697.02L1272.6,697.31L1269.93,695.73L1271.1,691.78L1268.76,689.5L1266.88,692.78L1265.31,693.27L1264.97,694.43L1261.46,695.42L1260.98,697.97L1259.22,698.46L1257.5,700.58L1255.04,701.31L1252.96,703.66L1250.49,703.24L1247.28,701.44L1245.88,701.69L1243.9,699.64L1241.79,699.68L1238.47,701.58L1232.98,700.27L1231.94,701.45L1229.65,701.48L1227.56,703.6L1229.07,709.59L1224.66,710.12L1223.24,709.45L1221.26,706.47L1220.2,706.25L1220.53,704.86L1219.1,703.49L1218.58,704.19L1216.46,703.76L1212.95,705.2L1212.79,706.36L1213.86,707.27L1213.53,708.66L1211.27,711.01L1210.94,712.86L1207.96,714.53L1207.62,715.69L1207.84,718.46L1209.09,719.84L1208.4,721L1208.77,722.15L1207.38,724.03L1205.63,724.74L1204.88,721.98L1200.81,721.34L1199.91,719.96L1197.97,720.21L1197.26,719.53L1194.98,720.48L1192.32,719.82L1191.07,718.68L1190.34,716.38L1187.7,717.33L1186.67,719.89L1183.85,720.39L1181.94,722.73L1177.7,722.31L1175.6,724.19L1174.16,721.66L1172.06,723.77L1171.38,726.09L1168.22,727.75L1166.8,726.6L1166.6,724.99L1166.59,723.6L1168.16,722.19L1167.43,719.88L1165.47,718.05L1165.8,716.2L1164.55,714.36L1164.88,712.97L1161.5,710.45L1161.13,708.38L1162.85,704.65L1162.47,701.42L1164.34,695.14L1166.44,694.2L1166.26,693.27L1168.88,690.93L1169.57,689.76L1169.01,687.45L1171.28,685.81L1171.96,683.25L1170,681.42L1166.47,680.31L1165.22,678.47L1165.38,677.08L1163.79,676.86L1161.86,677.81L1160.08,675.97L1158.32,675.76L1156.7,671.61L1157.21,670.45L1154,666.55L1153.53,654.51L1155.41,649.4L1151.69,645.97L1152.38,644.34L1151.84,643.42L1149.03,643.45L1149.01,641.59L1150.22,639.27L1147.06,639.53L1144.27,641.41L1140.94,641.9L1137.09,644.48L1137.1,645.41L1131.68,648.23L1129.94,649.64L1128.38,652.66L1125.57,653.38L1124.37,657.09L1117.4,664.56L1112.66,665.52L1111.61,666.91L1110.02,666.23L1106.7,669.03L1105.12,669.04L1104.07,670.44L1101.96,670.22L1102.5,672.53L1098.65,674.87L1097.25,677.43L1097.62,679.28L1093.76,682.31L1092.88,681.62L1089.54,682.11L1090.25,684.19L1086.57,686.52L1086.59,689.53L1085.71,689.77L1083.77,690.24L1082.01,689.56L1080.95,690.26L1080.07,689.57L1076.9,689.58L1074.42,687.74L1071.6,687.99L1068.78,686.61L1066.32,687.32L1065.09,689.17L1063.51,689.88L1062.46,692.19L1060.35,692.67L1059.46,690.82L1057.7,691.29L1055.41,689.91L1053.65,690.61L1052.23,688.53L1050.82,689L1047.64,685.3L1042.19,688.79L1036.9,685.8L1036.54,684.64L1031.96,682.8L1030.02,680.95L1030.54,679.33L1026.14,677.72L1023.5,675.17L1021.74,675.41L1015.93,672.64L1012.06,676.58L1012.59,680.28L1011.18,686.99L1009.95,688.38L1008.01,687.92L1007.13,688.85L1009.6,694.17L1011.72,695.33L1011.9,696.48L1014.01,698.33L1017.01,699.95L1016.84,701.57L1018.95,702.26L1023.02,709.2L1027.79,711.51L1028.85,713.59L1027.44,713.83L1027.09,715.22L1024.79,714.76L1023.38,716.38L1021.26,716.38L1020.91,718L1019.68,718.47L1016.85,717.08L1014.91,714.77L1013.5,714.54L1011.2,712.46L1007.5,711.53L1002.91,713.16L1000.09,711.77L998.15,713.62L990.21,712.46L990.91,715.01L991.97,715.47L991.79,718.25L988.08,724.03L987.73,725.42L988.96,726.58L986.67,727.74L984.72,730.28L981.19,730.51L980.84,728.89L979.25,727.73L976.6,728.65L975.01,727.72L972.18,728.18L970.23,731.65L967.58,733.26L966.51,736.5L960.84,745.05L956.42,745.97L954.64,747.12L953.57,750.59L951.45,751.28L948.07,757.06L942.93,760.05L942.21,761.43L939.56,761.89L936.88,765.81L934.23,766.5L932.97,769.5L931.56,769.26L930.49,770.65L927.83,771.56L925.71,769.93L924.12,769.69L923.24,767.6L921.48,766.67L919.35,768.04L919.16,768.97L917.04,769.19L913.18,762.22L911.22,764.3L908.21,765.2L905.74,763.8L898.46,766.76L895.81,766.28L895.62,767.44L893.49,768.81L889.42,767.4L887.64,769L888.17,769.93L886.92,770.62L886.37,773.16L883.9,772.45L883,774.06L879.62,775.19L877,771.01L875.06,770.06L869.71,774.42L870.76,776.51L868.08,778.34L866.98,782.5L864.51,781.55L862.37,782.92L862.19,783.85L860.94,783.84L859.16,785.21L856.5,785.18L855.77,787.49L859.12,789.14L862.14,789.4L862.13,790.56L863.36,791.73L859.92,798.64L858.32,799.32L855.45,802.54L850.75,811.06L850.74,812.91L853.21,814.79L853.19,815.95L850.63,824.03L849.91,824.71L846.36,824.68L845.62,826.99L842.59,827.88L840.07,831.1L838.41,837.1L838.37,840.34L837.1,843.11L838.49,846.37L838.46,849.38L842.56,848.72L843.6,851.28L848.59,851.33L849.82,852.04L851.04,855.29L852.63,856.23L851.02,857.61L853.83,861.11L853.1,863.18L853.61,866.2L855.71,870.62L856.17,878.03L857.57,880.59L856.84,882.67L857.35,885.92L855.38,885.9L854.66,887.28L853.59,886.81L850.73,887.48L850.54,888.4L851.43,889.1L851.2,893.96L849.05,895.57L847.44,895.55L846.89,897.17L844.73,898.76L847.21,900.64L846.47,902.72L845.22,903.17L843.77,905.47L843.38,908.71L844.44,909.65L843.88,912.42L835.27,915.34L829.36,916.2L828.65,915.5L826.5,915.71L822.91,917.06L815.22,917.2L812.02,916L808.25,916.65L806.13,914.54L804.34,915.21L801.67,914.02L798.08,915.13L796.45,916.97L794.84,917.18L793.07,915.3L791.1,915.97L788.92,918.02L786.6,917.76L781.82,914.68L780.74,915.13L779.51,913.49L775.73,915.06L772.7,914.32L771.07,915.92L767.85,916.1L766.38,918.63L764.76,919.3L757.8,918.26L757.42,919.65L753.8,922.83L751.3,922.33L750.39,923.24L750.55,924.64L751.79,925.35L752.27,928.6L750.45,930.89L750.43,932.05L745.59,932.66L744.66,934.5L740.03,933.26L739.66,933.95L735.89,934.58L733.57,934.08L731.93,935.44L730.79,939.13L728.46,939.78L725.97,938.58L724.17,939.01L723.06,940.85L718.78,939.84L715.9,940.95L709.72,936.2L708.99,936.65L706.33,935.21L703.44,936.55L700.76,936.5L697.85,938.76L693.35,939.83L690.14,939.3L688.37,937.88L682.44,938.91L679.7,941.41L677.08,938.57L676.24,935.77L674.99,935.52L673.36,936.41L670.5,936.35L666.68,939.05L665.38,941.1L659.68,939.82L657.23,937.22L655.62,936.95L649.62,940.76L648.19,940.96L648.27,937.25L634.44,931.14L633.06,929.02L628.19,930.76L626.43,929.33L622.13,929.46L619.48,928L617.83,929.58L615.17,935.77L614.27,935.75L613.53,936.89L611.56,936.84L609.55,938.65L607.29,935.81L606.65,932.78L605.6,931.83L598.06,932.56L596.47,931.83L593.93,932.92L593.89,934.31L591.85,937.03L591.14,937.01L590.74,938.63L586.42,939.21L585.68,940.11L579.77,940.19L575.74,943.09L573.62,942.1L570.22,942.01L568.22,943.11L567.08,945.4L564.35,946.95L563.56,949.47L561.36,951.26L561.42,955.2L559.18,958.62L556.81,966.2L554.58,968.91L554.48,972.39L555.48,974.96L550.71,978.53L549.27,978.49L547.32,977.51L545.94,975.61L546.06,971.45L544.41,966.53L545.2,964.24L543.46,962.33L540.4,962.48L539.66,957.36L538.63,955.7L536.46,956.1L534.89,954.9L526.41,956.26L523.45,953.39L520.97,946.6L521.36,945.45L519.64,943.08L518.61,936.1L515.84,933L514.59,932.73L510.19,936.07L507.12,936.67L502.72,939.77L500.37,940.39L493,951.97L491.55,952.62L489.56,953.02L485.84,951.5L479.95,950.84L474.87,952.53L471.99,952.66L470.05,951.67L468.15,949.75L463.61,940.79L464.54,934.56L467.53,930.96L471.71,929.25L472.48,927.88L473.36,922.82L472.49,916.99L470.46,913.45L466.1,910.05L456.44,909.95L443.13,912.03L441.31,907.79L439.32,908.42L436.89,911.34L433.95,908.68L431.26,908.82L430.21,908.08L429.07,905.03L427.67,894.55L428.69,891.11L430.58,888.4L432.09,881.27L428.37,875.57L424.98,875.45L423.3,872.61L419.32,874.08L417.73,873.56L414.13,874.35L412.86,874.99L413.47,877.57L410.37,879.3L407.17,878.95L404.93,881.41L400.45,881.7L398.02,879.99L394.63,879.86L391.18,881.34L389.7,887.08L385.76,891.79L383.58,892.86L381.97,892.8L380.41,891.58L377.26,885.42L376.22,884.69L374.55,886.24L373.75,888.3L365.12,893.74L360.98,894.5L353.52,893.26L348.3,894.2L346.62,895.75L344.84,899.85L344.19,902.37L345.48,905.9L344.86,907.73L343.57,908.61L342.68,912.74L340.64,914.51L340.95,915.68L336.1,915.94L335.37,916.37L334.89,919.13L332.56,919.03L330.01,920.08L331,918.04L329.67,915.43L323.86,913.32L322.88,910.96L321.16,909.5L319.36,909.65L318.4,911.23L318.01,915.85L315.52,919.68L313.66,921.22L310.07,921.29L305.89,918.56L296.54,919.3L291.55,918.84L288.92,917.56L288.08,916.36L287.47,910.07L287.49,901.73L286.32,896.11L284.65,893.48L280.09,891.65L275.98,887.75L276.2,886.83L274.67,885.14L274.95,882.83L272.85,878.1L268.98,873.05L265.1,871.94L264.44,870.75L261.18,871.75L256.79,870.15L255.6,868.93L253.61,869.3L252.55,865.54L250.75,865.69L248.75,862.81L247.15,862.73L245.73,866.14L241.08,866.14L235.83,871.22L231.94,866.85L228.78,872.96L222.63,870.79L220.31,867.2L217.54,868.91L216.83,872.36L213.51,874.51L211.52,874.87L211.22,877.4L206.65,882.74L201.31,882.23L194.48,879.56L195.81,878L196.17,874.54L192.32,872.95L191.03,870.1L189.05,870.46L187.32,872.69L182.72,875.23L179.42,873.44L178.83,871.08L177.97,870.34L177.24,870.77L175.82,867.21L174.07,866.43L169.66,868.74L167.14,869.07L165.02,871.97L162.61,870.22L160.11,870.08L158.26,874.62L151.84,877.52L150.36,875.12L150.86,872.59L149.08,872.49L149.02,870.17L145.65,869.76L142.38,870.73L139.2,866.85L135.58,867.57L134.08,868.88L134.64,871.7L132.01,873.87L132.65,875.29L128.73,878.09L126.27,874.24L124.33,873.67L122.36,870.54L120.02,870.87L119.08,868.5L117.48,868.41L114.61,865.46L113.17,865.61L109.53,863.55L108.27,863.71L106.61,861.52L101.96,861.49L99.56,859.72L98.96,860.85L96.59,861.64L95.72,864.37L94.68,863.85L92.66,864.66L89.48,864L88.88,862.11L87.17,860.85L85.51,861.68L82.34,860.8L81.74,861.92L82.22,862.88L79.09,864.32L79.2,865.48L78.08,866.35L78.18,867.74L76.82,869.52L73.31,868.38L70.19,872.6L68.33,870.87L65.89,872.81L62.01,871.88L60.76,874.82L58.09,871.64L53.49,873.68L47.67,869.38L47.7,865.9L46.66,865.37L42.37,871.14L41.28,874.32L38.58,874.62L36.57,872.4L36.64,871.25L34.44,869.26L38.2,863.46L39.12,857.25L35.81,855.88L37.03,850.62L34.35,847.67L34.8,843.29L32.9,839.46L33.44,836.48L36.65,833.66L36.73,832.51L33.9,826.3L28.96,819.73L29.49,816.98L28.67,815.76L30.39,814.02L28.45,813.66L27.69,811.53L28.06,808.53L25.44,807.67L25.76,805.37L26.62,803.11L27.18,802.68L27.82,803.88L29.33,802.58L28.9,800.93L32.96,798.63L32.48,794.89L33.53,792.4L35.61,793.23L36.02,792.33L37.47,791.96L32.98,784.02L32.78,781.69L36.4,777.74L36.75,774.98L39.43,774.91L40.44,772.89L41.62,773.89L41.8,771.11L42.72,770.48L43.93,771.02L44.33,770.34L44.77,766.2L43.02,760.06L43.8,758.94L45.54,759.52L47.15,764.95L49.96,765.59L51.33,763.59L54.37,766.09L57.66,767.45L56.86,769.03L57.97,771.18L57.15,772.99L57.64,776.5L55.94,781.04L56.55,782.7L60.32,779.22L61.34,779.97L61.79,784.41L64.37,782.94L65.35,781.38L68.56,784.12L70.05,783.05L68.71,778.8L70.88,778.23L73.87,778.64L75.02,780.34L74.57,781.93L75.83,781.55L74.06,772.62L75.28,767.13L71.59,757.63L73.27,753.33L74.17,747.12L77.83,745.25L78.04,738.77L81.47,737.81L84.24,741.92L89.97,741.1L98.27,738.58L102.68,739.07L103.43,741.43L107.99,736.13L114.93,732.59L122.52,727L142.45,722.32L160.49,716.13L161.29,717.8L162.04,716.92L165.02,717.54L178.62,728.01L191.14,739.11L192.14,736.84L193.03,736.89L194.65,733.03L195.59,735.4L195.45,741.42L196.66,741.95L196.62,742.64L206.82,744.33L211.31,743.17L214.18,745.87L221.94,750.2L222.76,755.11L229.81,755.93L234.17,761.02L241.43,761.38L252.32,763.53L253.5,764.75L252.73,766.1L253.17,767.98L256.98,766.31L260.51,770.42L261.51,775.33L259.8,777.8L255.06,780.36L246.92,786.91L244.95,787.28L244.71,788.43L246,791.27L247.4,788.1L250.68,786.4L253.71,786.09L255.63,786.87L258.91,785.18L266.89,785.56L270.18,783.63L270.21,779.23L272.68,779.57L275.74,778.56L276.87,773.51L276.27,771.17L276.71,765.63L275.47,761.86L276.33,754.71L278.2,752.72L293.37,750.41L295.31,750.73L301.16,746.82L302.53,736.23L307.75,734.14L306.74,737.11L307.5,739.7L311.22,739.86L311.69,741.04L316.76,734.55L324.11,732.56L332.76,728.99L334.93,727.93L334.63,726.76ZM250,803.99L252.18,810.35L255.4,810.04L261.97,814.07L265.13,818.85L264.84,821.16L263.35,822.48L263.98,824.13L266.28,824.47L266.85,827.51L272.13,825.21L273.69,822.27L272.82,818.06L279,819.04L281.32,815.21L284.3,812.34L285.65,814.02L286.09,812.19L287.31,812.71L287.48,809.01L288.62,807.44L287.38,807.38L284.45,809.1L284.61,805.63L282.12,805.74L280.05,807.97L274.04,807.22L267.56,805.06L264.51,805.61L263.48,804.87L258.16,804.38L252.31,800.39L250,803.99ZM337.2,736.83L338.81,740.61L340.11,751.56L339.12,758L337.24,760.47L337.83,767.45L340.17,770.79L344.11,774.21L349.09,773.95L352.92,775.51L354.72,775.12L355.41,775.38L356.03,777.72L355.68,781.65L354.25,782.05L353.62,780.17L351.99,780.8L351.4,782.16L352.57,783.83L352.02,784.27L353.24,784.79L353.34,786.65L354.37,787.62L355.64,786.97L356.43,789.33L352.82,790.56L349.7,792.98L348.31,796.4L348.53,799.65L343.6,802.69L345.84,804.41L349.23,804.09L350.63,804.84L351.44,806.5L352.19,805.6L351.35,804.41L352.04,800.73L352.72,801.45L353.45,801.02L354.06,799.19L356.24,798.12L358.41,801.46L357.22,804.42L357.67,806.53L360.54,805.95L363.89,806.55L365.39,804.76L369.31,804.46L370.08,803.1L368.87,802.12L369.98,801.01L373,801.13L372.92,798.81L373.48,798.14L374.17,798.63L374.93,797.27L373.06,795.34L372.83,796.49L370.35,796.39L368.62,795.16L369.18,794.49L368.33,793.76L368.37,792.6L371.56,792.96L372.83,792.32L372.34,791.14L362.94,790.75L362.91,791.45L360.08,791.33L358.72,789.88L363.77,788.01L365.16,784.36L364.35,782.47L360.71,780.23L368.34,780.32L368.79,778.02L370.62,776.7L372.59,771.92L368.64,773.15L367.7,774.27L360.96,774.22L359.28,776.24L357.85,776.64L356.28,775.88L356.13,771.01L354.35,766.99L354.47,759.81L352.77,758.12L353.23,755.59L351.29,751.11L350.05,742.71L345.34,736.95L344.21,738.52L343.72,737.58L341.04,738.16L337.57,736.39L337.2,736.83ZM342.36,723.85L343.81,727.15L345.65,725.61L344.95,725.35L346.02,720.99L345.79,717.97L343.57,720.42L342.36,723.85ZM454.03,736.33L455.9,738.25L456.31,736.88L454.4,735.65L454.03,736.33ZM461.81,791.97L462.23,795.23L463.18,793.64L467.57,794.95L467.06,799.57L468.66,799.39L472.33,796.04L473.13,793.29L474.77,792.19L477.35,794.59L482.48,795.23L484.53,797.62L487.67,788.68L480.79,787.3L480.7,784.75L480.02,784.03L477.53,783.94L476.33,782.74L476.82,784.15L475.72,785.04L474.67,784.77L474.1,785.68L475.14,786.41L470.78,789.5L466.88,789.37L461.81,791.97Z" fill-rule="evenodd" fill="#4682b4" fill-opacity="0.471"/>
<polyline points="334.63,726.76 334.87,725.15 333.63,721.15 334.06,719.55 331.34,716.88 331.16,712.94 332.07,712.28 332.98,711.86 336.3,712.7 341.86,710.85 345.25,714.24 348.48,712.99 351.1,713.79 352.25,711.52 360.76,702.61 365.67,703.28 377.74,701.92 383.3,704.23 381.99,706.03 387.29,701.61 391.93,704.81 390.47,705.91 390.78,707.08 393.47,710.43 395.87,707.97 397.63,708.04 398.11,709.22 401,707.71 401.85,708.44 403.81,708.05 405.18,709.27 403.34,711.05 407.43,710.51 413.91,716.55 423.01,718.98 424.99,717.9 426.91,718.66 428.74,721.74 428.21,726.36 429.23,727.55 428.45,729.38 429.65,730.58 431.59,730.65 438.21,733.45 440.19,732.59 442.47,733.14 442.6,734.3 446.98,735.62 447.38,734.24 446.36,733.05 448.83,733.14 447.41,728.45 447.65,721.74 450.64,722.31 452.09,721.21 457.03,721.38 458.4,722.59 458.34,724.44 459.18,725.63 461.41,727.56 461.7,729.42 460.37,731.92 462.49,737.09 461.3,735.89 460.03,736.54 461.16,739.83 457.13,738.53 458.18,739.03 457.78,740.17 460.88,742.6 462.81,743.13 462.61,743.82 463.85,743.86 464.81,746.67 464.39,748.51 465.46,748.55 465.95,749.72 467.12,746.52 469.28,745.44 468.77,744.73 469.33,744.05 473.31,741.41 476.46,737.34 478.97,736.5 481.59,737.52 484.42,737.38 485.53,736.03 484.52,734.37 484.35,729.04 486.21,726.32 494.4,724.28 494.56,724.98 500.7,726.34 501.73,727.3 501.85,729.16 505.34,730.43 508.01,729.82 508.75,728.91 503.84,727.6 505.65,726.27 510.96,726.21 515.51,721.95 518.96,724.61 518.99,723.68 523.64,721.97 523.89,719.66 513.58,716.1 509.12,711.79 511.14,709.53 523.96,700.21 523.31,698.57 525.27,697.93 527.31,694.76 531.43,692.57 530.95,690.93 532.32,686.57 531.4,681.91 534.43,680.85 539.02,680.75 538.69,680.05 544.3,674.89 546.61,674.26 546.67,672.18 547.36,672.9 549.14,672.02 549.41,674.81 550.27,675.53 551.33,675.56 551.72,674.18 558.91,675.32 559.11,674.4 561.01,675.84 559.11,680.65 563.98,682.87 564.07,685.89 564.92,686.84 569.35,686.04 570.27,684.67 572.57,684.27 580.81,692.38 583.76,694.08 589.21,694.92 590.17,691.93 589.2,688.67 593.87,678.6 593.07,675.57 591.69,674.61 589.51,670.38 585.81,670.51 583.2,669.28 583.23,668.36 584.13,667.69 583.8,666.98 587.87,666.17 588.8,664.34 590.2,664.38 590.93,663.47 591.31,662.55 589.96,660.2 590.55,657.9 588.96,658.09 585.48,656.84 585.33,655.68 586.58,655.02 582.4,653.51 577.62,648.52 578.34,647.84 584.48,648.48 585.07,645.94 589.15,644.67 590.32,646.78 593.08,648.71 596.25,655.51 600.51,660.71 602.3,659.37 605.84,658.54 613.61,664.29 619.23,664.66 624.57,669.43 627.89,670.67 631.75,670.99 634.29,668.04 634.5,666.66 634.45,661.33 632.73,659.44 633.99,658.31 635.22,658.57 635.25,657.41 633.39,654.13 634.83,652.54 638.91,651.02 640.46,652.44 640.27,653.13 643.09,652.74 646.21,654.66 647.1,654.22 648.49,655.18 648.44,657.26 649.51,656.59 650.38,657.07 650.76,655.92 649.72,654.97 648.76,651.25 648.99,648.7 650.84,644.58 654.08,641.18 654.65,639.57 656.43,638.45 655.62,635.19 657.75,634.08 658.31,632.94 666.19,634.04 669.84,627.64 668.43,627.61 668.82,625.99 667.59,625.97 667.61,625.04 671.11,625.35 678.89,622.74 681.91,620.95 684.02,620.76 692.24,613.29 694.52,613.56 697.16,612.69 698.73,613.19 699.97,612.52 702.94,613.5 704.01,612.36 718.27,609.16 717.6,598.03 716.05,596.39 712.7,597.71 710.27,596.51 709.8,593.95 708.92,593.7 708.04,594.15 707.18,593.44 704.18,594.77 700.84,594.94 699.42,596.3 697.87,594.65 696.47,594.85 695.04,596.21 694.01,595.26 692.72,598.25 691.15,597.98 689.7,600.5 688.48,600.01 686.7,601.37 686.47,603.91 683.12,605 676.37,601.15 676.4,599.76 675.04,597.88 670.9,594.55 664.66,591.64 663.25,592.3 643.79,592.78 641.2,591.33 640.13,592.23 634.55,591.17 628.99,589.42 625.54,587.25 622.55,587.87 621.08,583.67 623.11,579.32 617.73,570.38 617.1,567.59 616.06,567.33 616.1,565.94 615.07,564.99 614.18,565.89 612.6,566.09 612.26,565.38 611.54,566.52 610.37,564.18 607.94,563.65 607.04,564.55 605.66,563.82 605.16,562.88 607.68,559.94 604.91,558.94 605.32,556.64 604.15,554.75 598.86,549.98 594.7,548.72 592.91,550.29 588.9,549.95 587.01,548.97 586.19,546.86 583.42,546.09 581.6,542.34 577.96,547.56 575.13,549.11 571.63,549.01 567.32,553.29 561.67,555.21 552.38,556.09 550.05,558.11 549.1,554.84 547.9,554.11 548.48,552.27 551.93,553.77 554.71,548.29 556.61,549.04 557.11,543.73 553.97,531.83 552.26,530.85 552.16,528.3 547.16,526.3 547.42,523.29 549.91,521.75 552.08,519.03 550.74,517.37 546.87,518.42 544.63,517.65 542.12,519.66 539.86,519.59 537.68,522.31 537.47,523.69 533.33,527.73 529.6,524.14 523.4,521.63 522.26,519.28 522.47,518.13 514.28,517.87 512.81,520.37 511.23,520.55 509.89,518.88 506.96,517.86 506.3,516.68 504.72,517.1 501.48,514.9 501.32,509.11 499.24,508.81 497.55,507.13 498.9,503.24 500.69,501.68 502.32,494.55 504.81,493.01 506.14,489.58 505.64,488.87 509.21,485.98 504.98,482.36 502.85,478.36 501.73,475.54 504.02,474.46 502.43,470.01 501.21,470.2 499.55,472.92 494.57,471.13 493.92,469.72 495.23,466.99 493.52,466.24 493.6,463.69 490.35,462.42 487.87,458.63 487.24,451.66 484.19,449.48 481.66,452.4 480.43,452.59 479.84,449.56 477.63,448.32 474.75,451.23 474.79,454.94 472.86,455.57 470.46,454.79 471.19,448.79 472.81,447 474.57,446.36 475.32,444.77 473.59,439.84 474.28,439.87 473.96,438.93 474.85,438.5 476.57,438.79 475.77,436.91 477.01,436.03 477.44,433.72 475.42,432.03 478.96,430.07 478.53,427.28 476.68,425.82 471.89,428.9 471.67,430.28 467.91,433.39 468.04,434.79 464.95,438.61 461.79,439.66 460.42,439.15 459.53,439.81 458.52,439.08 454.61,441.72 464.97,447.88 466.47,449.78 467.85,454.93 465.08,459.46 462.45,460.3 462.41,461.45 463.77,462.2 464.22,464.07 461.04,470.44 459.8,471.09 459.39,472.93 454.98,474.62 451.98,480.53 449.47,482.53 448.97,482.05 447.33,484.07 445.1,483.29 443.95,481.4 441.6,483.63 439.69,483.56 438.75,480.74 437.37,480.46 435.02,482.69 429.28,482.71 426.06,485.13 426.86,486.78 426.44,488.85 427.6,490.29 425.26,492.28 424.86,493.66 426.55,495.11 426.85,496.28 425.7,499.02 427.07,499.76 427.69,501.87 427.46,503.25 422.43,507.23 423.3,511.67 424.02,511.23 425.83,514.08 422.11,520.19 415.6,525.96 414.33,522.67 412.75,523.07 413.15,521.7 412.46,521.44 411.72,522.57 408.1,521.5 407.66,519.4 407.24,521.01 402.84,521.99 397.63,525.72 397.61,526.42 395.17,526.32 394.57,523.75 395.44,515.21 394.78,509.86 392.11,506.74 391.21,507.4 387.65,504.94 386.37,506.51 386.4,509.98 385.15,510.86 384.11,510.58 382.54,506.35 381.32,506.3 378.2,510.11 375.4,510.46 369.08,515.53 367.17,515.21 364.13,513 360.52,507.52 357.59,506.7 353.7,503.99 346.6,506.93 345.74,506.66 341.24,509.71 337.19,506.75 335.44,502.73 333.72,502.2 328.35,497.56 326.3,492.83 322.81,488.97 320.39,488.63 319.16,488.8 314.81,492.55 313.05,492.93 312.14,497.52 310.23,501.14 308.58,495.27 308.66,486.01 307.84,484.81 309.82,479.57 309.15,475.37 311.44,470.84 310.13,469.16 310.77,466.41 312.03,465.54 311.04,464.34 310.18,460.36 311.2,457.16 309.09,453.82 307.41,452.58 304.36,447.11 303.66,447.08 303.58,445.22 301.57,443.51 300.62,437.9 298.54,437.81 295.31,436.27 292.34,436.59 289.09,439.22 284.26,438.53 282.1,440.28 279.72,439.01 279.27,441.3 278.18,442.18 275.4,442.27 274.89,445.73 272.22,446.99 271.92,449.52 268.96,449.61 265.21,451.75 263.69,450.74 260.69,451.76 257.53,448.82 256.86,444.85 253.19,441.65 252.74,440.24 249.37,438.22 247.47,434.42 242.43,434.63 241.73,431.11 240.12,428.72 237.52,428.58 235.87,426.88 233.62,426.76 230.06,421.71 225.1,423.78 223.56,426.71 218.8,428.09 216.9,427.76 213.93,424.82 209.67,423.44 207.34,421.46 207.2,420.76 209.02,419.23 210.45,415.14 209.04,412.28 210.65,411.21 211.07,409.84 214.42,408.85 215.61,405.9 215.9,403.83 214.62,401.68 214.89,399.84 218.69,400.04 220.65,398.98 224.16,401.48 226.31,400.2 227.08,398.62 229.53,398.28 232.08,395.86 238.18,395.01 242.61,393.15 248.22,384.85 257.59,380.92 260.73,376.9 265.89,377.39 267.81,373.54 268.55,365.46 272.13,359.38 274.74,359.04 276.71,357.52 279.33,356.95 281.15,354.95 284.23,355.56 285.63,347.98 290.13,347.73 292.19,344.35 291.89,343.41 293.65,342.57 293.89,341.19 296.26,338.52 296.92,335.54 300.8,333.63 301.99,333.92 304.46,332.88 308.25,332.82 309.56,334.5 312.3,334.86 313.06,329.57 314.78,329.64 315.73,331.54 317.6,332.09 318.66,331.44 321.5,333.43 322.76,332.33 326.34,333.18 328.4,329.57 329.81,328.94 330.29,325.94 329.28,321.5 329.95,318.05 327.66,315.4 328.48,312.42 331.55,309.32 331.17,306.29 332.86,303.12 335.18,305.08 336.22,304.89 336.79,303.76 338.91,306.4 341.15,306.27 345.85,309.02 352.22,308.84 354.6,309.64 356.28,306.46 358.25,304.69 357.1,303.49 360.4,302.7 361.16,301.11 363.01,302.12 364.28,300.55 364.72,298.25 365.96,297.38 368.02,297.47 371.03,295.51 373.61,295.38 374.47,291.25 375.19,290.58 377.05,291.36 379.33,290.29 381.02,286.66 383.04,287.67 386.78,284.58 390.38,284.73 391.18,286.15 394.26,286.51 395.87,284.95 394.71,283.74 397.84,282.94 399.5,280 400.69,280.28 401.41,279.61 401.63,278.46 400.17,276.32 403.55,273.21 402.91,272.26 403.29,271.11 400.61,269.62 399.74,265.64 397.69,265.33 395.75,266.64 393.04,265.83 393.66,263.31 392.01,261.62 390.95,262.27 388.49,259.62 387.29,259.57 386.5,257.92 382.19,254.5 381.07,252.37 379.72,252.08 379.33,252.99 376.55,254.03 374.07,251.84 371.33,251.73 369.39,248.86 367.3,249.7 363.22,248.83 361.38,251.77 359.81,252.39 358.78,256.52 355.97,258.02 351.72,257.14 348.37,255.37 346.9,253.69 343.04,255.6 339.47,254.98 340.3,251.77 335.4,246.22 336.36,243.95 335.78,241.61 339.52,238.3 338.8,235.25 341.02,231.64 343.25,231.51 345.71,230 347.7,227.53 347.97,225.46 351.8,224.01 348.22,219.68 351.8,216.13 353.06,210.62 356.22,204.96 357.06,201.29 373.02,207.77 375.51,205.33 368.33,193.43 361.07,187.56 361.88,180.64 370.34,178.22 378.69,178.58 388.27,177.82 389.18,180.64 392.23,176.82 392.66,174.75 392.04,173.34 393.07,168.98 392.5,162 397.14,161.03 402.09,156.6 403.9,153.89 405.64,153.03 405.71,151.18 407.45,150.33 408.19,148.97 407.72,147.79 409.47,146.7 407.88,139.68 408.77,138.56 411.32,138.66 420.43,136.24 425.31,137.59 430.52,134.78 436.27,135.7 443.14,138.27 448.15,136.15 449.65,136.9 454.15,134.98 457.95,137.9 460.21,141.23 462.21,142.23 465.28,142.1 469.64,143.88 471.35,143.48 478,138.39 483.12,137.64 492.75,134.73 497.91,132.82 502.6,129.74 510.43,129.54 517.29,132.78 523.01,134.35 525.45,137.91 530.6,141.55 536.64,144.28 539.53,144.14 542.72,145.4 547.98,151.35 553.2,153.13 557.48,152.57 561.14,149.43 565.37,150.25 572.4,148.37 580.89,148.85 601.04,158.44 603.36,160.82 617.33,166.98 625.96,169.05 632.46,167.59 635.68,168.37 645.76,174.17 658.77,178.65 663.57,184.78 667.49,192.28 670.32,195.35 674.53,197.99 681.5,199.3 685,202.85 686.7,203.35 705.87,200.5 709.28,200.34 713.35,201.57 722.42,200.12 728.37,201.16 740.07,205.77 744.84,205.85 754.69,208.57 756.34,212.07 755.32,222.47 756.14,224.34 762.41,227.68 784.56,232.19 789.4,228.32 790.12,226.01 788.28,222.98 783.37,220.36 778.38,211.25 775.79,201.72 777.99,179.99 781.33,173.55 781.87,159.67 783.62,156.45 788.11,151.65 789.69,147.97 789.05,145.41 789.89,133.85 791.82,129.47 792.24,124.15 790.68,114.63 791.21,112.56 794.3,110.05 796.55,106.61 798.31,101.77 798.54,97.61 796.53,95.72 796.73,93.64 798.8,90.89 807.81,88.23 812.75,85.75 816.17,82.78 822.8,80.32 834.05,73.27 840.82,71.95 844.91,68.98 846.27,68.54 854.53,70.94 858.77,69.59 865.8,58.3 867.71,52.3 865.88,50.2 868.61,46.75 876.82,53.54 880.83,58.67 886.27,55.23 902.5,52.57 909.41,53.31 911.28,51.24 906.46,39.39 908.33,36.86 912.87,40.36 916.08,39.68 917.92,41.78 917.58,42.24 920.28,42.02 921.47,40.87 923.48,42.74 925.81,48.77 927,48.08 927.67,48.78 930.21,48.1 929.69,49.48 931.21,49.72 931.54,51.35 932.72,51.35 933.39,52.74 936.43,52.29 936.77,53.22 939.8,53.93 940.14,55.09 940.98,54.4 942.16,55.33 941.31,56.72 942.66,58.34 943.5,57.88 944,59.51 945.36,58.58 946.36,60.67 950.41,62.54 951.26,61.85 953.96,63.48 954.81,62.55 957.51,62.56 959.53,65.11 963.58,66.05 964.09,67.21 966.62,66.06 967.3,67.22 968.82,66.76 969.32,68.84 971.18,68.15 972.36,69.08 971.85,70.24 972.87,72.09 975.23,73.95 974.89,75.34 976.41,76.5 977.59,79.28 980.97,80.68 981.81,84.38 985.87,86.93 987.22,89.48 990.94,90.18 996.53,97.83 1000.76,101.3 1002.46,100.37 1004.49,100.6 1006.35,98.52 1009.91,99.67 1011.6,98.52 1013.47,98.98 1014.31,98.05 1017.87,98.97 1021.43,100.59 1021.26,101.52 1022.45,102.9 1023.29,102.67 1026.86,105.44 1029.74,106.13 1030.42,107.06 1029.74,107.52 1032.11,107.29 1038.57,111.67 1042.13,112.35 1044.34,114.66 1049.09,117.2 1051.64,116.72 1053.85,118.57 1056.73,118.79 1066.09,125.47 1075.26,127.74 1076.29,128.43 1076.29,130.05 1080.38,132.11 1083.44,132.56 1087.33,130.91 1093.27,130.88 1094.98,132.02 1099.9,132.22 1103.14,133.82 1106.36,133.11 1114.02,135.6 1116.22,135.11 1120.14,136.47 1122.35,136.45 1124.54,134.82 1125.9,134.8 1130.84,136.85 1139.68,137.69 1163.88,145.08 1164.73,145.07 1172.1,136.65 1176.17,121.32 1182.5,111.75 1184.37,112.42 1186.56,111.23 1194.69,110.43 1198.06,109.46 1199.74,107.82 1201.6,107.79 1203.84,110.31 1203.71,113.09 1211.52,113.91 1214.93,115.48 1217.18,117.99 1220.04,116.79 1222.92,116.75 1224.26,115.34 1227.33,116.22 1229.34,114.8 1231.71,114.53 1232.91,115.21 1234.59,114.25 1243.72,112.72 1245.42,112.92 1246.32,116.15 1249.69,114.93 1260.74,116.36 1263.64,117.24 1264.69,118.84 1263.4,122.57 1264.13,125.8 1267.71,126.43 1268.42,128.27 1270.98,128.68 1273.84,127.24 1275.71,127.44 1278.72,125.3 1283.65,125.67 1286,124.46 1286.82,122.59 1289.04,123.25 1291.39,122.27 1293.44,122.93 1294.95,121.97 1296.07,118.47 1297.75,117.75 1297.86,114.96 1301.07,113.97 1305.7,116.66 1309.27,116.81 1309.96,117.49 1313.17,116.73 1315,115.07 1319.12,117.3 1322.64,115.6 1324.7,116.71 1327.07,116.2 1332.69,117.46 1339.38,113.14 1340.5,110.33 1339.27,108.28 1340.42,106.63 1344.45,104.92 1348.23,107.14 1349.72,105.72 1351.75,105.21 1354.03,101.68 1353.49,100.07 1353.96,98.67 1355.31,98.4 1360.13,101.3 1361.62,100.1 1363.5,100.75 1364.56,102.35 1365.71,100.93 1367.95,102.26 1370.46,101.04 1372.09,98.45 1374.31,99.09 1376.8,97.17 1378.86,98.28 1380.2,97.55 1382.25,97.96 1384.05,102.31 1386.15,104.81 1387.33,104.54 1387.55,106.16 1390.71,103.99 1392.01,101.87 1392.11,99.32 1394.31,99.26 1395.81,98.06 1397.87,99.17 1401.43,99.3 1402.65,100.43 1407.2,99.61 1408.25,100.51 1407.6,101.68 1408.17,103.75 1407.35,104.93 1408.75,106.51 1412.45,105.48 1417.84,109.97 1419.87,109.91 1420.13,112.91 1427.93,112.69 1432.04,113.96 1432.32,112.1 1433.16,111.84 1435.74,112.92 1436.74,112.43 1441.59,115.76 1450.44,110.86 1450.58,109.93 1453.42,108.68 1455.82,109.3 1459.01,108.28 1461.48,105.88 1462.5,106.08 1463.62,109.06 1466.33,108.97 1468.15,107.76 1469.86,107.94 1472.16,105.78 1475.53,104.97 1476.07,105.88 1478.28,106.04 1476.64,107.72 1477.51,108.62 1479.55,108.78 1480.46,110.61 1484.01,110.26 1485.9,110.89 1487.9,109.67 1491.82,110.23 1493.21,111.34 1494.89,110.82 1495.53,109.64 1498.63,110.93 1500.22,112.73 1502.58,112.42 1503.9,111.21 1505.8,112.31 1508.65,111.28 1511.22,111.89 1514.03,109.71 1519.56,112.52 1520.7,115.96 1521.56,116.39 1524.81,116.97 1526.3,115.76 1530.19,115.39 1536.77,119.09 1537.76,118.13 1539.78,117.82 1540.59,116.63 1541.82,117.75 1542.3,121.44 1546.61,123.36 1551.96,120.85 1552.21,118.52 1556,120 1557.51,119.48 1561.23,123.51 1563.91,122.48 1565.46,123.12 1567.83,122.79 1570.26,119.69 1571.76,119.17 1573,120.28 1576.08,120.85 1579.09,119.81 1581.14,119.96 1582.44,118.52 1581.87,116.92 1585.35,114.69 1588.34,117.35 1589.63,115.68 1591.35,116.08 1592.67,115.33 1593.75,116.67 1595.42,116.14 1597.85,117.2 1598.41,118.57 1600.27,118.26 1604.06,119.73 1611.38,119.89 1614.59,115.59 1613.89,114.92 1614.46,112.35 1615.97,111.82 1618.6,113.8 1623.53,114.05 1626.53,112.77 1626.66,111.6 1628.87,111.74 1630.47,109.59 1633.22,110.16 1635,108.23 1636.37,108.41 1638.69,111.09 1640.72,111 1642.83,112.53 1643.8,115.27 1649.45,116.41 1651.99,120.01 1655.98,117.98 1657.72,118.83 1658.11,119.97 1661.03,120.76 1662.21,124.19 1665.05,126.84 1670.14,126.61 1672.74,123.94 1675.48,124.51 1676.93,126.3 1677.72,125.11 1683.71,125.99 1686.07,129.13 1687.85,127.19 1693.15,127.87 1697.17,130 1699.48,128.5 1700.04,129.63 1703.13,130.18 1703.68,131.08 1705.89,130.97 1710.64,134.22 1716.83,132.07 1720.29,133.29 1726.56,132.75 1727.57,135.95 1728.45,136.6 1730.12,135.82 1732.19,132.94 1740.61,131.13 1755.95,125.01 1754.97,129.24 1751.61,136.6 1751.75,139.37 1752.32,143.98 1754.42,148.28 1754.32,149.68 1758.58,156.41 1768.44,165.64 1770.36,166.47 1775.15,166.68 1778.77,170.67 1782.66,170 1785.32,171.94 1789.08,175.22 1790.49,179.32 1793.03,181.97 1796.72,183.86 1799.08,189.76 1802.19,190.28 1802.67,192.81 1809.5,195.91 1812.22,201.79 1815.84,202.29 1817.66,201.26 1820.08,201.59 1820.72,200.86 1821.81,201.96 1825.35,201.07 1827.63,202.1 1830.84,201.23 1834.3,201.96 1835.81,201.41 1835.52,199.34 1837.59,196.67 1840.61,195.57 1844.71,195.57 1844.95,196.72 1846.55,197.79 1848.57,197.21 1853.61,198.54 1853.93,201.08 1855.98,201.19 1857.64,200.17 1859.37,200.53 1861.01,202.29 1863.88,201.66 1867.38,202.85 1872.27,201.63 1874.61,203.58 1878.82,202.4 1879.72,203.28 1882.88,201.7 1884,203.26 1887.2,202.37 1888.82,203.66 1890.81,202.62 1891.35,203.05 1891.03,206.31 1892.39,209.02 1891.98,210.66 1894.7,216.07 1897.95,215.87 1898.13,218.87 1900.25,219.91 1901.44,222.62 1903.39,223.66 1912.33,224.04 1912.93,225.39 1912.38,227.75 1914.35,229.02 1916.76,229.1 1921.09,232.55 1923.34,235.65 1919.38,238.22 1929.89,252.64 1928.62,257.13 1928.97,265.46 1924.75,266.65 1924.63,267.58 1927.25,270.9 1926.93,274.17 1930.67,278.8 1937.71,284.16 1941.08,285.57 1941.66,286.7 1940.33,287.48 1938.49,291.07 1936.69,292.58 1932.55,292.37 1927.96,293.35 1926.31,294.62 1915.46,291.81 1913.94,292.36 1909.75,291.46 1906.84,291.64 1905.39,293.35 1903,293.73 1899.5,292.78 1897.17,294.08 1894.54,293.31 1890.32,294.72 1887.37,294.43 1884.91,296.43 1881.99,296.61 1881.37,297.8 1877.69,299.64 1876.42,301.57 1876.43,304.59 1877.83,307.98 1877.39,309.17 1875.19,309.99 1874.29,312.13 1872.11,313.19 1872.47,316.41 1870.05,319.34 1870.85,321.14 1870.13,323.74 1869.2,325.41 1868.01,325.72 1865.67,330.02 1864.13,330.35 1861.78,328.39 1856.44,328.7 1853.44,330.5 1851.49,329.68 1842.27,331.36 1839.2,335.01 1839.66,337.07 1838.57,339.22 1830.54,343.84 1828.64,343.95 1826.47,345.23 1816.66,346 1816.92,344.36 1812.85,342.49 1811.88,343.71 1808.84,345.03 1803.53,345.78 1800.59,348.95 1799.71,352.01 1796.87,353.78 1794.3,357.4 1789.08,353.5 1786.86,357.33 1784.17,358.63 1782.76,361.48 1781.27,362.72 1780.73,362.28 1781.18,364.35 1776.8,366.66 1777.6,368.7 1777.12,369.42 1774.37,369.8 1773.95,371.67 1771.48,374.12 1766.5,374.84 1762.48,373.89 1762.51,374.58 1759.29,375.9 1755.83,375.84 1754.46,379.62 1751.09,381.41 1749.13,383.83 1744.82,384.04 1744.36,385.22 1740.26,386.35 1739.63,387.54 1740.2,388.67 1738.67,389.21 1738.93,391.05 1738.1,391.79 1734.99,391.94 1733.53,390.39 1728.85,393.86 1725.11,395.2 1724.3,396.4 1722.9,396.01 1723.17,398.08 1721.62,398.39 1721.48,399.09 1722.06,400.22 1719.08,403.14 1716.68,403.72 1715.88,405.15 1716.13,406.76 1714.29,408.01 1711.98,406.96 1710.97,407.47 1710.44,410.97 1707.25,413.2 1705.7,413.28 1704.27,416.13 1701.33,416.26 1700.06,415.16 1697.19,416.69 1693.39,417.09 1691.03,418.59 1688.74,417.77 1687.57,418.75 1686.68,418.33 1685.02,419.79 1682.94,423.83 1683.69,424.95 1685.27,425.34 1685.13,426.05 1683.49,428.21 1681.26,428.77 1678.59,431.21 1675.79,438.29 1671.37,436.63 1668,438.86 1665.39,438.75 1664.4,436.01 1663.35,435.83 1660.46,437.11 1659.85,438.99 1656.54,442.84 1656.48,445.4 1655.81,445.89 1653.21,446 1652.23,447.66 1647.61,449.25 1642.38,452.72 1640.43,451.88 1638.91,452.87 1638.01,452.21 1635.3,453.95 1634.21,452.84 1633.36,453.1 1632.02,454.32 1632.44,456.15 1630.96,458.07 1628.54,458.4 1627.3,457.76 1626.28,458.5 1622.95,457.71 1620.48,461.05 1618.31,459.06 1616.43,459.83 1614.82,458.74 1612.95,459.74 1610.3,458.69 1608.4,459 1606.07,457.24 1603.98,457.09 1602.47,458.31 1597.45,458.97 1591.84,461.97 1591.73,463.6 1590.24,465.74 1592.55,471.44 1590.92,474.05 1590.83,476.14 1589.17,478.29 1589.73,483.83 1588.55,484.8 1588.56,489.43 1589.24,493.58 1587.5,498.05 1584.41,499.09 1581.61,498.97 1572.94,504.63 1571.54,504.45 1570.23,506.58 1568.51,507.34 1566.06,506.97 1561.8,509.68 1559.29,507.69 1554.27,508.8 1552.69,508.39 1546.7,511.39 1544.71,514.24 1537.51,517.74 1534.48,520.86 1532.86,524.39 1532.61,527.18 1532.6,531.81 1534.68,536.6 1536.87,539.07 1534.9,542.62 1532.06,541.33 1529.25,546.06 1529.31,547.68 1528.09,547.72 1526.92,549.38 1520.87,546.11 1520.58,547.98 1518.37,549.67 1517.15,549.72 1515.65,551.85 1514.59,551.66 1513.4,552.62 1508.87,553.01 1506.33,550.31 1502.23,553.23 1500.09,551.68 1497.52,553.38 1495.93,552.97 1495.48,555.3 1492.15,554.95 1489.64,552.94 1487.76,554.16 1484.6,553.8 1482.72,555.02 1476.96,555.43 1475.02,555.03 1474.63,553.65 1475.93,550.6 1475.38,549.69 1468.05,549.92 1467.67,549.01 1465.39,548.61 1465.51,546.99 1464.61,545.86 1459.62,548.56 1458.67,545.81 1456.24,546.34 1455.17,545.68 1454.69,547.08 1447.65,551.23 1447.36,553.32 1441.83,555.34 1439.36,554.71 1439.29,552.4 1435.63,552.51 1435.25,551.59 1436.08,549.95 1433.25,548.64 1429.46,550.6 1425.79,550.7 1425.53,553.72 1422.73,553.57 1419.35,551.58 1418.13,551.61 1417.57,550.24 1413.72,550.11 1412.48,549.22 1410.69,547.64 1411.84,545.3 1408.83,543.76 1407.91,541.93 1404.09,542.73 1400.06,542.14 1398.87,543.33 1396.08,543.4 1395.37,543.19 1395.34,541.8 1392.51,540.25 1391.46,540.28 1391.13,541.21 1386.83,543.64 1386.2,546.43 1383.81,548.35 1383.83,549.27 1380.57,551.44 1376.6,553.39 1374.68,553.44 1372.87,551.17 1370.44,551.69 1370.15,554.01 1367.09,557.56 1367.92,562.87 1366.54,563.83 1365.3,562.93 1361.45,563.02 1358.01,565.19 1357.53,567.05 1354.9,566.88 1352.32,568.79 1350.57,568.83 1350.11,571.39 1350.85,573.23 1348.31,576.76 1346.83,580.96 1348.27,582.55 1348.48,584.16 1348.54,586.71 1346.03,591.86 1347.48,594.14 1345.21,594.66 1345.68,599.74 1346.92,600.17 1343.96,601.17 1344.51,602.08 1343.64,602.56 1344.01,603.25 1342.35,607.69 1339.77,609.6 1336.59,608.51 1336.63,610.59 1331.79,613.48 1332.51,614.39 1331.85,616.25 1333.59,623.63 1336.44,625.65 1337.92,629.09 1334.83,632.4 1335.45,636.55 1334.07,637.74 1333.77,639.83 1334.95,645.82 1332.01,647.97 1330.42,647.54 1327.63,648.53 1326.26,650.18 1326.67,653.18 1325.29,654.14 1324.98,656.23 1321.16,658.62 1317.4,663.8 1317.29,666.81 1314.06,672.43 1315.49,673.56 1315.55,676.57 1314.68,677.28 1315.32,682.59 1309.78,687.34 1309.51,691.51 1305.46,691.59 1303.93,694.4 1301.3,694.92 1300.64,697.24 1299.06,697.74 1299.62,699.35 1298.41,700.53 1295.25,701.52 1293.13,701.33 1291.76,703.2 1288.59,703.73 1287.83,700.73 1285.37,701.24 1283.17,706.38 1281.45,708.49 1280.94,709.89 1281.69,711.96 1280.99,712.44 1280.11,712.45 1278.25,707.39 1276.65,706.73 1278.5,701.37 1276.35,699.79 1275.77,697.02 1272.6,697.31 1269.93,695.73 1271.1,691.78 1268.76,689.5 1266.88,692.78 1265.31,693.27 1264.97,694.43 1261.46,695.42 1260.98,697.97 1259.22,698.46 1257.5,700.58 1255.04,701.31 1252.96,703.66 1250.49,703.24 1247.28,701.44 1245.88,701.69 1243.9,699.64 1241.79,699.68 1238.47,701.58 1232.98,700.27 1231.94,701.45 1229.65,701.48 1227.56,703.6 1229.07,709.59 1224.66,710.12 1223.24,709.45 1221.26,706.47 1220.2,706.25 1220.53,704.86 1219.1,703.49 1218.58,704.19 1216.46,703.76 1212.95,705.2 1212.79,706.36 1213.86,707.27 1213.53,708.66 1211.27,711.01 1210.94,712.86 1207.96,714.53 1207.62,715.69 1207.84,718.46 1209.09,719.84 1208.4,721 1208.77,722.15 1207.38,724.03 1205.63,724.74 1204.88,721.98 1200.81,721.34 1199.91,719.96 1197.97,720.21 1197.26,719.53 1194.98,720.48 1192.32,719.82 1191.07,718.68 1190.34,716.38 1187.7,717.33 1186.67,719.89 1183.85,720.39 1181.94,722.73 1177.7,722.31 1175.6,724.19 1174.16,721.66 1172.06,723.77 1171.38,726.09 1168.22,727.75 1166.8,726.6 1166.6,724.99 1166.59,723.6 1168.16,722.19 1167.43,719.88 1165.47,718.05 1165.8,716.2 1164.55,714.36 1164.88,712.97 1161.5,710.45 1161.13,708.38 1162.85,704.65 1162.47,701.42 1164.34,695.14 1166.44,694.2 1166.26,693.27 1168.88,690.93 1169.57,689.76 1169.01,687.45 1171.28,685.81 1171.96,683.25 1170,681.42 1166.47,680.31 1165.22,678.47 1165.38,677.08 1163.79,676.86 1161.86,677.81 1160.08,675.97 1158.32,675.76 1156.7,671.61 1157.21,670.45 1154,666.55 1153.53,654.51 1155.41,649.4 1151.69,645.97 1152.38,644.34 1151.84,643.42 1149.03,643.45 1149.01,641.59 1150.22,639.27 1147.06,639.53 1144.27,641.41 1140.94,641.9 1137.09,644.48 1137.1,645.41 1131.68,648.23 1129.94,649.64 1128.38,652.66 1125.57,653.38 1124.37,657.09 1117.4,664.56 1112.66,665.52 1111.61,666.91 1110.02,666.23 1106.7,669.03 1105.12,669.04 1104.07,670.44 1101.96,670.22 1102.5,672.53 1098.65,674.87 1097.25,677.43 1097.62,679.28 1093.76,682.31 1092.88,681.62 1089.54,682.11 1090.25,684.19 1086.57,686.52 1086.59,689.53 1085.71,689.77 1083.77,690.24 1082.01,689.56 1080.95,690.26 1080.07,689.57 1076.9,689.58 1074.42,687.74 1071.6,687.99 1068.78,686.61 1066.32,687.32 1065.09,689.17 1063.51,689.88 1062.46,692.19 1060.35,692.67 1059.46,690.82 1057.7,691.29 1055.41,689.91 1053.65,690.61 1052.23,688.53 1050.82,689 1047.64,685.3 1042.19,688.79 1036.9,685.8 1036.54,684.64 1031.96,682.8 1030.02,680.95 1030.54,679.33 1026.14,677.72 1023.5,675.17 1021.74,675.41 1015.93,672.64 1012.06,676.58 1012.59,680.28 1011.18,686.99 1009.95,688.38 1008.01,687.92 1007.13,688.85 1009.6,694.17 1011.72,695.33 1011.9,696.48 1014.01,698.33 1017.01,699.95 1016.84,701.57 1018.95,702.26 1023.02,709.2 1027.79,711.51 1028.85,713.59 1027.44,713.83 1027.09,715.22 1024.79,714.76 1023.38,716.38 1021.26,716.38 1020.91,718 1019.68,718.47 1016.85,717.08 1014.91,714.77 1013.5,714.54 1011.2,712.46 1007.5,711.53 1002.91,713.16 1000.09,711.77 998.15,713.62 990.21,712.46 990.91,715.01 991.97,715.47 991.79,718.25 988.08,724.03 987.73,725.42 988.96,726.58 986.67,727.74 984.72,730.28 981.19,730.51 980.84,728.89 979.25,727.73 976.6,728.65 975.01,727.72 972.18,728.18 970.23,731.65 967.58,733.26 966.51,736.5 960.84,745.05 956.42,745.97 954.64,747.12 953.57,750.59 951.45,751.28 948.07,757.06 942.93,760.05 942.21,761.43 939.56,761.89 936.88,765.81 934.23,766.5 932.97,769.5 931.56,769.26 930.49,770.65 927.83,771.56 925.71,769.93 924.12,769.69 923.24,767.6 921.48,766.67 919.35,768.04 919.16,768.97 917.04,769.19 913.18,762.22 911.22,764.3 908.21,765.2 905.74,763.8 898.46,766.76 895.81,766.28 895.62,767.44 893.49,768.81 889.42,767.4 887.64,769 888.17,769.93 886.92,770.62 886.37,773.16 883.9,772.45 883,774.06 879.62,775.19 877,771.01 875.06,770.06 869.71,774.42 870.76,776.51 868.08,778.34 866.98,782.5 864.51,781.55 862.37,782.92 862.19,783.85 860.94,783.84 859.16,785.21 856.5,785.18 855.77,787.49 859.12,789.14 862.14,789.4 862.13,790.56 863.36,791.73 859.92,798.64 858.32,799.32 855.45,802.54 850.75,811.06 850.74,812.91 853.21,814.79 853.19,815.95 850.63,824.03 849.91,824.71 846.36,824.68 845.62,826.99 842.59,827.88 840.07,831.1 838.41,837.1 838.37,840.34 837.1,843.11 838.49,846.37 838.46,849.38 842.56,848.72 843.6,851.28 848.59,851.33 849.82,852.04 851.04,855.29 852.63,856.23 851.02,857.61 853.83,861.11 853.1,863.18 853.61,866.2 855.71,870.62 856.17,878.03 857.57,880.59 856.84,882.67 857.35,885.92 855.38,885.9 854.66,887.28 853.59,886.81 850.73,887.48 850.54,888.4 851.43,889.1 851.2,893.96 849.05,895.57 847.44,895.55 846.89,897.17 844.73,898.76 847.21,900.64 846.47,902.72 845.22,903.17 843.77,905.47 843.38,908.71 844.44,909.65 843.88,912.42 835.27,915.34 829.36,916.2 828.65,915.5 826.5,915.71 822.91,917.06 815.22,917.2 812.02,916 808.25,916.65 806.13,914.54 804.34,915.21 801.67,914.02 798.08,915.13 796.45,916.97 794.84,917.18 793.07,915.3 791.1,915.97 788.92,918.02 786.6,917.76 781.82,914.68 780.74,915.13 779.51,913.49 775.73,915.06 772.7,914.32 771.07,915.92 767.85,916.1 766.38,918.63 764.76,919.3 757.8,918.26 757.42,919.65 753.8,922.83 751.3,922.33 750.39,923.24 750.55,924.64 751.79,925.35 752.27,928.6 750.45,930.89 750.43,932.05 745.59,932.66 744.66,934.5 740.03,933.26 739.66,933.95 735.89,934.58 733.57,934.08 731.93,935.44 730.79,939.13 728.46,939.78 725.97,938.58 724.17,939.01 723.06,940.85 718.78,939.84 715.9,940.95 709.72,936.2 708.99,936.65 706.33,935.21 703.44,936.55 700.76,936.5 697.85,938.76 693.35,939.83 690.14,939.3 688.37,937.88 682.44,938.91 679.7,941.41 677.08,938.57 676.24,935.77 674.99,935.52 673.36,936.41 670.5,936.35 666.68,939.05 665.38,941.1 659.68,939.82 657.23,937.22 655.62,936.95 649.62,940.76 648.19,940.96 648.27,937.25 634.44,931.14 633.06,929.02 628.19,930.76 626.43,929.33 622.13,929.46 619.48,928 617.83,929.58 615.17,935.77 614.27,935.75 613.53,936.89 611.56,936.84 609.55,938.65 607.29,935.81 606.65,932.78 605.6,931.83 598.06,932.56 596.47,931.83 593.93,932.92 593.89,934.31 591.85,937.03 591.14,937.01 590.74,938.63 586.42,939.21 585.68,940.11 579.77,940.19 575.74,943.09 573.62,942.1 570.22,942.01 568.22,943.11 567.08,945.4 564.35,946.95 563.56,949.47 561.36,951.26 561.42,955.2 559.18,958.62 556.81,966.2 554.58,968.91 554.48,972.39 555.48,974.96 550.71,978.53 549.27,978.49 547.32,977.51 545.94,975.61 546.06,971.45 544.41,966.53 545.2,964.24 543.46,962.33 540.4,962.48 539.66,957.36 538.63,955.7 536.46,956.1 534.89,954.9 526.41,956.26 523.45,953.39 520.97,946.6 521.36,945.45 519.64,943.08 518.61,936.1 515.84,933 514.59,932.73 510.19,936.07 507.12,936.67 502.72,939.77 500.37,940.39 493,951.97 491.55,952.62 489.56,953.02 485.84,951.5 479.95,950.84 474.87,952.53 471.99,952.66 470.05,951.67 468.15,949.75 463.61,940.79 464.54,934.56 467.53,930.96 471.71,929.25 472.48,927.88 473.36,922.82 472.49,916.99 470.46,913.45 466.1,910.05 456.44,909.95 443.13,912.03 441.31,907.79 439.32,908.42 436.89,911.34 433.95,908.68 431.26,908.82 430.21,908.08 429.07,905.03 427.67,894.55 428.69,891.11 430.58,888.4 432.09,881.27 428.37,875.57 424.98,875.45 423.3,872.61 419.32,874.08 417.73,873.56 414.13,874.35 412.86,874.99 413.47,877.57 410.37,879.3 407.17,878.95 404.93,881.41 400.45,881.7 398.02,879.99 394.63,879.86 391.18,881.34 389.7,887.08 385.76,891.79 383.58,892.86 381.97,892.8 380.41,891.58 377.26,885.42 376.22,884.69 374.55,886.24 373.75,888.3 365.12,893.74 360.98,894.5 353.52,893.26 348.3,894.2 346.62,895.75 344.84,899.85 344.19,902.37 345.48,905.9 344.86,907.73 343.57,908.61 342.68,912.74 340.64,914.51 340.95,915.68 336.1,915.94 335.37,916.37 334.89,919.13 332.56,919.03 330.01,920.08 331,918.04 329.67,915.43 323.86,913.32 322.88,910.96 321.16,909.5 319.36,909.65 318.4,911.23 318.01,915.85 315.52,919.68 313.66,921.22 310.07,921.29 305.89,918.56 296.54,919.3 291.55,918.84 288.92,917.56 288.08,916.36 287.47,910.07 287.49,901.73 286.32,896.11 284.65,893.48 280.09,891.65 275.98,887.75 276.2,886.83 274.67,885.14 274.95,882.83 272.85,878.1 268.98,873.05 265.1,871.94 264.44,870.75 261.18,871.75 256.79,870.15 255.6,868.93 253.61,869.3 252.55,865.54 250.75,865.69 248.75,862.81 247.15,862.73 245.73,866.14 241.08,866.14 235.83,871.22 231.94,866.85 228.78,872.96 222.63,870.79 220.31,867.2 217.54,868.91 216.83,872.36 213.51,874.51 211.52,874.87 211.22,877.4 206.65,882.74 201.31,882.23 194.48,879.56 195.81,878 196.17,874.54 192.32,872.95 191.03,870.1 189.05,870.46 187.32,872.69 182.72,875.23 179.42,873.44 178.83,871.08 177.97,870.34 177.24,870.77 175.82,867.21 174.07,866.43 169.66,868.74 167.14,869.07 165.02,871.97 162.61,870.22 160.11,870.08 158.26,874.62 151.84,877.52 150.36,875.12 150.86,872.59 149.08,872.49 149.02,870.17 145.65,869.76 142.38,870.73 139.2,866.85 135.58,867.57 134.08,868.88 134.64,871.7 132.01,873.87 132.65,875.29 128.73,878.09 126.27,874.24 124.33,873.67 122.36,870.54 120.02,870.87 119.08,868.5 117.48,868.41 114.61,865.46 113.17,865.61 109.53,863.55 108.27,863.71 106.61,861.52 101.96,861.49 99.56,859.72 98.96,860.85 96.59,861.64 95.72,864.37 94.68,863.85 92.66,864.66 89.48,864 88.88,862.11 87.17,860.85 85.51,861.68 82.34,860.8 81.74,861.92 82.22,862.88 79.09,864.32 79.2,865.48 78.08,866.35 78.18,867.74 76.82,869.52 73.31,868.38 70.19,872.6 68.33,870.87 65.89,872.81 62.01,871.88 60.76,874.82 58.09,871.64 53.49,873.68 47.67,869.38 47.7,865.9 46.66,865.37 42.37,871.14 41.28,874.32 38.58,874.62 36.57,872.4 36.64,871.25 34.44,869.26 38.2,863.46 39.12,857.25 35.81,855.88 37.03,850.62 34.35,847.67 34.8,843.29 32.9,839.46 33.44,836.48 36.65,833.66 36.73,832.51 33.9,826.3 28.96,819.73 29.49,816.98 28.67,815.76 30.39,814.02 28.45,813.66 27.69,811.53 28.06,808.53 25.44,807.67 25.76,805.37 26.62,803.11 27.18,802.68 27.82,803.88 29.33,802.58 28.9,800.93 32.96,798.63 32.48,794.89 33.53,792.4 35.61,793.23 36.02,792.33 37.47,791.96 32.98,784.02 32.78,781.69 36.4,777.74 36.75,774.98 39.43,774.91 40.44,772.89 41.62,773.89 41.8,771.11 42.72,770.48 43.93,771.02 44.33,770.34 44.77,766.2 43.02,760.06 43.8,758.94 45.54,759.52 47.15,764.95 49.96,765.59 51.33,763.59 54.37,766.09 57.66,767.45 56.86,769.03 57.97,771.18 57.15,772.99 57.64,776.5 55.94,781.04 56.55,782.7 60.32,779.22 61.34,779.97 61.79,784.41 64.37,782.94 65.35,781.38 68.56,784.12 70.05,783.05 68.71,778.8 70.88,778.23 73.87,778.64 75.02,780.34 74.57,781.93 75.83,781.55 74.06,772.62 75.28,767.13 71.59,757.63 73.27,753.33 74.17,747.12 77.83,745.25 78.04,738.77 81.47,737.81 84.24,741.92 89.97,741.1 98.27,738.58 102.68,739.07 103.43,741.43 107.99,736.13 114.93,732.59 122.52,727 142.45,722.32 160.49,716.13 161.29,717.8 162.04,716.92 165.02,717.54 178.62,728.01 191.14,739.11 192.14,736.84 193.03,736.89 194.65,733.03 195.59,735.4 195.45,741.42 196.66,741.95 196.62,742.64 206.82,744.33 211.31,743.17 214.18,745.87 221.94,750.2 222.76,755.11 229.81,755.93 234.17,761.02 241.43,761.38 252.32,763.53 253.5,764.75 252.73,766.1 253.17,767.98 256.98,766.31 260.51,770.42 261.51,775.33 259.8,777.8 255.06,780.36 246.92,786.91 244.95,787.28 244.71,788.43 246,791.27 247.4,788.1 250.68,786.4 253.71,786.09 255.63,786.87 258.91,785.18 266.89,785.56 270.18,783.63 270.21,779.23 272.68,779.57 275.74,778.56 276.87,773.51 276.27,771.17 276.71,765.63 275.47,761.86 276.33,754.71 278.2,752.72 293.37,750.41 295.31,750.73 301.16,746.82 302.53,736.23 307.75,734.14 306.74,737.11 307.5,739.7 311.22,739.86 311.69,741.04 316.76,734.55 324.11,732.56 332.76,728.99 334.93,727.93 334.63,726.76" fill="none" stroke="#1e1e1e" stroke-width="1.26" stroke-linecap="round" stroke-linejoin="round"/>
<polyline points="250,803.99 252.18,810.35 255.4,810.04 261.97,814.07 265.13,818.85 264.84,821.16 263.35,822.48 263.98,824.13 266.28,824.47 266.85,827.51 272.13,825.21 273.69,822.27 272.82,818.06 279,819.04 281.32,815.21 284.3,812.34 285.65,814.02 286.09,812.19 287.31,812.71 287.48,809.01 288.62,807.44 287.38,807.38 284.45,809.1 284.61,805.63 282.12,805.74 280.05,807.97 274.04,807.22 267.56,805.06 264.51,805.61 263.48,804.87 258.16,804.38 252.31,800.39 250,803.99" fill="none" stroke="#1e1e1e" stroke-width="1.26" stroke-linecap="round" stroke-linejoin="round"/>
<polyline points="337.2,736.83 338.81,740.61 340.11,751.56 339.12,758 337.24,760.47 337.83,767.45 340.17,770.79 344.11,774.21 349.09,773.95 352.92,775.51 354.72,775.12 355.41,775.38 356.03,777.72 355.68,781.65 354.25,782.05 353.62,780.17 351.99,780.8 351.4,782.16 352.57,783.83 352.02,784.27 353.24,784.79 353.34,786.65 354.37,787.62 355.64,786.97 356.43,789.33 352.82,790.56 349.7,792.98 348.31,796.4 348.53,799.65 343.6,802.69 345.84,804.41 349.23,804.09 350.63,804.84 351.44,806.5 352.19,805.6 351.35,804.41 352.04,800.73 352.72,801.45 353.45,801.02 354.06,799.19 356.24,798.12 358.41,801.46 357.22,804.42 357.67,806.53 360.54,805.95 363.89,806.55 365.39,804.76 369.31,804.46 370.08,803.1 368.87,802.12 369.98,801.01 373,801.13 372.92,798.81 373.48,798.14 374.17,798.63 374.93,797.27 373.06,795.34 372.83,796.49 370.35,796.39 368.62,795.16 369.18,794.49 368.33,793.76 368.37,792.6 371.56,792.96 372.83,792.32 372.34,791.14 362.94,790.75 362.91,791.45 360.08,791.33 358.72,789.88 363.77,788.01 365.16,784.36 364.35,782.47 360.71,780.23 368.34,780.32 368.79,778.02 370.62,776.7 372.59,771.92 368.64,773.15 367.7,774.27 360.96,774.22 359.28,776.24 357.85,776.64 356.28,775.88 356.13,771.01 354.35,766.99 354.47,759.81 352.77,758.12 353.23,755.59 351.29,751.11 350.05,742.71 345.34,736.95 344.21,738.52 343.72,737.58 341.04,738.16 337.57,736.39 337.2,736.83" fill="none" stroke="#1e1e1e" stroke-width="1.26" stroke-linecap="round" stroke-linejoin="round"/>
<polyline points="342.36,723.85 343.81,727.15 345.65,725.61 344.95,725.35 346.02,720.99 345.79,717.97 343.57,720.42 342.36,723.85" fill="none" stroke="#1e1e1e" stroke-width="1.26" stroke-linecap="round" stroke-linejoin="round"/>
<polyline points="454.03,736.33 455.9,738.25 456.31,736.88 454.4,735.65 454.03,736.33" fill="none" stroke="#1e1e1e" stroke-width="1.26" stroke-linecap="round" stroke-linejoin="round"/>
<polyline points="461.81,791.97 462.23,795.23 463.18,793.64 467.57,794.95 467.06,799.57 468.66,799.39 472.33,796.04 473.13,793.29 474.77,792.19 477.35,794.59 482.48,795.23 484.53,797.62 487.67,788.68 480.79,787.3 480.7,784.75 480.02,784.03 477.53,783.94 476.33,782.74 476.82,784.15 475.72,785.04 474.67,784.77 474.1,785.68 475.14,786.41 470.78,789.5 466.88,789.37 461.81,791.97" fill="none" stroke="#1e1e1e" stroke-width="1.26" stroke-linecap="round" stroke-linejoin="round"/>
<path d="M650.7,635.31L651.11,633.01L653.39,632.83L653.68,635.85L652.43,636.74L650.7,635.31Z" fill-rule="evenodd" fill="#4682b4" fill-opacity="0.471"/>
<polyline points="650.7,635.31 651.11,633.01 653.39,632.83 653.68,635.85 652.43,636.74 650.7,635.31" fill="none" stroke="#1e1e1e" stroke-width="1.26" stroke-linecap="round" stroke-linejoin="round"/>
<text x="909.22" y="462.32" font-family="sans-serif" font-size="14" stroke="#ffffff" stroke-opacity="0.784" stroke-width="2.33" stroke-linejoin="round" paint-order="stroke" fill="#141414">Kyrgyzstan</text>
</svg>
