<?xml version="1.0" encoding="UTF-8" standalone="no"?>
<svg xmlns="http://www.w3.org/2000/svg" width="1701" height="2000" viewBox="0 0 1701 2000">
<rect width="1701" height="2000" fill="#ffffff"/>
<polyline points="1415.52,1025.3 1417.83,1023.7 1418.05,1024.77 1415.52,1025.3" fill="none" stroke="#1e1e1e" stroke-width="1.35" stroke-linecap="round" stroke-linejoin="round"/>
<polyline points="1527.58,378.36 1528.6,378.43 1529.08,380.24 1528.25,381.33 1527.9,379.87 1526.93,379.97 1527.58,378.36" fill="none" stroke="#1e1e1e" stroke-width="1.35" stroke-linecap="round" stroke-linejoin="round"/>
<polyline points="1605.88,404.17 1602.99,401.28 1599.03,401.12 1598,401.97 1597.65,395.82 1595.52,391.4 1595.87,390.45 1598.32,393.76 1598.99,398.08 1600.3,397.1 1599.39,395.63 1599.73,394.3 1603.32,397.35 1605.35,397.4 1605.32,396.34 1606.31,396.24 1605.57,399.28 1606.61,403.82 1605.88,404.17" fill="none" stroke="#1e1e1e" stroke-width="1.35" stroke-linecap="round" stroke-linejoin="round"/>
<polyline points="1610.23,407.36 1610.16,402.36 1611.44,400.6 1614.74,403.35 1613.21,408.91 1612.29,409.46 1611.85,407.79 1610.23,407.36" fill="none" stroke="#1e1e1e" stroke-width="1.35" stroke-linecap="round" stroke-linejoin="round"/>
<polyline points="1613.19,390.96 1612.06,390.81 1613.12,389.66 1613.19,390.96" fill="none" stroke="#1e1e1e" stroke-width="1.35" stroke-linecap="round" stroke-linejoin="round"/>
<polyline points="1601.71,395.51 1600.46,394.15 1600.75,391.7 1601.71,395.51" fill="none" stroke="#1e1e1e" stroke-width="1.35" stroke-linecap="round" stroke-linejoin="round"/>
<polyline points="1593.3,386.34 1588.08,381.92 1586.26,378.49 1589.7,381.06 1593.3,386.34" fill="none" stroke="#1e1e1e" stroke-width="1.35" stroke-linecap="round" stroke-linejoin="round"/>
<polyline points="1599.31,388.85 1596.56,382.88 1596.25,386.37 1594.69,385.57 1594.48,381.38 1596.15,381.35 1598.51,383.64 1599.67,381.96 1601.43,382.83 1602.07,381.98 1603.7,382.71 1603.36,382.15 1604.44,381.79 1606.7,384.53 1605.72,382.98 1606.76,381.93 1607.13,383.77 1608.47,383.43 1608.6,385.12 1607.35,384.6 1606.11,385.85 1607.92,387.82 1606.07,387.26 1603.79,389.31 1603.41,388.52 1602.62,388.76 1602.66,389.49 1600.78,388.42 1600.63,389.13 1599.61,388.93 1599.85,388.02 1599.31,388.85" fill="none" stroke="#1e1e1e" stroke-width="1.35" stroke-linecap="round" stroke-linejoin="round"/>
<polyline points="1604.67,380.28 1601.53,379.98 1603.13,379.38 1604.67,380.28" fill="none" stroke="#1e1e1e" stroke-width="1.35" stroke-linecap="round" stroke-linejoin="round"/>
<polyline points="1616.29,383.21 1614.87,381.66 1612.95,381.41 1619.03,378.22 1618.8,379.52 1620.95,379.79 1616.29,383.21" fill="none" stroke="#1e1e1e" stroke-width="1.35" stroke-linecap="round" stroke-linejoin="round"/>
<polyline points="1628.51,379.88 1626.43,380.34 1627.15,379.21 1629.58,379.14 1630.02,377.77 1632.57,376.62 1633.24,377.17 1634.81,375.92 1631.8,380.75 1631.12,379.47 1630.26,380.47 1628.51,379.88" fill="none" stroke="#1e1e1e" stroke-width="1.35" stroke-linecap="round" stroke-linejoin="round"/>
<polyline points="1598.76,376.52 1596.76,376.77 1592.59,375.46 1593.25,375.17 1592.61,374.72 1590.32,374.8 1592.35,373.67 1597.36,375.03 1598.76,376.52" fill="none" stroke="#1e1e1e" stroke-width="1.35" stroke-linecap="round" stroke-linejoin="round"/>
<polyline points="1593.34,383.89 1591.65,383.47 1589.91,380.75 1590.29,378.35 1589.46,378.29 1590.57,376.73 1593.34,383.89" fill="none" stroke="#1e1e1e" stroke-width="1.35" stroke-linecap="round" stroke-linejoin="round"/>
<polyline points="1598.56,382.85 1596.58,380 1597.33,381.02 1598.55,380.26 1598.33,381.43 1599.76,381.07 1598.56,382.85" fill="none" stroke="#1e1e1e" stroke-width="1.35" stroke-linecap="round" stroke-linejoin="round"/>
<polyline points="1598.89,372.02 1601.19,369.32 1602.52,369.32 1604.41,365.8 1603.68,366.98 1605.17,366.6 1606.14,364.65 1605.61,366.83 1607.33,365.55 1602.59,372.01 1599.09,374.09 1593.54,373.33 1590.18,371.63 1590.95,370.25 1591.18,371.66 1591.38,370.74 1595.77,369.88 1596.53,370.1 1596.26,371.37 1597.46,371 1596.6,371.84 1598.92,370.38 1598.89,372.02" fill="none" stroke="#1e1e1e" stroke-width="1.35" stroke-linecap="round" stroke-linejoin="round"/>
<polyline points="1644.23,362.86 1644.49,360.08 1645.16,359.03 1645.2,360.1 1646.03,359.64 1646.88,357.87 1646.03,357.13 1645.06,357.57 1644.58,356.44 1646.29,351.12 1647.2,349.42 1647.84,350.17 1649.14,347.53 1649.78,348.54 1650.01,346.36 1648.29,346.5 1649.05,339.68 1658.06,327.07 1653.18,342.1 1651.54,344.82 1651.32,348.55 1649.4,350.38 1647.08,360.8 1644.23,362.86" fill="none" stroke="#1e1e1e" stroke-width="1.35" stroke-linecap="round" stroke-linejoin="round"/>
<polyline points="1618.62,372.02 1621.59,368.84 1621.78,366.81 1624.28,362.39 1626.22,361.93 1626.72,363.82 1624.98,366.89 1620.07,371.82 1618.62,372.02" fill="none" stroke="#1e1e1e" stroke-width="1.35" stroke-linecap="round" stroke-linejoin="round"/>
<polyline points="1606.91,378.09 1599.99,379.87 1597.64,378.71 1610.86,375.12 1612.39,373.85 1613.89,368.5 1614.41,369.41 1616.78,366.12 1620.78,363.68 1619.74,368.75 1614.07,374.79 1610.59,376.75 1610.43,375.65 1606.91,378.09" fill="none" stroke="#1e1e1e" stroke-width="1.35" stroke-linecap="round" stroke-linejoin="round"/>
<polyline points="1638.69,341.33 1638.29,338.64 1635.59,338.21 1636.7,338.13 1636.39,336.33 1637.06,336.97 1637.27,335.69 1639.05,335.27 1638.89,334.69 1637.65,335.43 1637.66,334.41 1639.83,333.38 1639.91,331.42 1641.6,329.04 1642.41,328.88 1641.87,330.15 1643.51,330.59 1647.15,328.32 1647.53,331 1646.03,331.72 1646.11,332.99 1647.11,331.68 1645,335.58 1645.38,336.71 1644.57,337.22 1642.82,335.98 1639.41,336.03 1640.01,336.77 1643.17,336.79 1643.57,337.7 1642.98,339.35 1640.07,339.85 1638.69,341.33" fill="none" stroke="#1e1e1e" stroke-width="1.35" stroke-linecap="round" stroke-linejoin="round"/>
<polyline points="1643.99,328.76 1641.99,327.95 1641.92,326.84 1643.85,325.23 1643.13,325.17 1644.55,324.37 1644.09,325.09 1645.45,325.36 1647.36,324.34 1646.61,326.75 1643.99,328.76" fill="none" stroke="#1e1e1e" stroke-width="1.35" stroke-linecap="round" stroke-linejoin="round"/>
<polyline points="1647.42,323.53 1647.16,322.03 1649.12,320.19 1647.42,323.53" fill="none" stroke="#1e1e1e" stroke-width="1.35" stroke-linecap="round" stroke-linejoin="round"/>
<polyline points="1620.29,421.22 1625.83,415.92 1625.39,418.3 1623.15,420.96 1620.29,421.22" fill="none" stroke="#1e1e1e" stroke-width="1.35" stroke-linecap="round" stroke-linejoin="round"/>
<polyline points="1629.36,408.92 1627.42,412.27 1625.81,410.92 1627.18,409.21 1629.36,408.92" fill="none" stroke="#1e1e1e" stroke-width="1.35" stroke-linecap="round" stroke-linejoin="round"/>
<polyline points="1652.26,328.54 1652.37,327.55 1653.25,328.06 1652.62,327.19 1653.5,326.47 1653.2,328.6 1652.26,328.54" fill="none" stroke="#1e1e1e" stroke-width="1.35" stroke-linecap="round" stroke-linejoin="round"/>
<polyline points="1646.49,338.31 1645.6,337.78 1646.58,336.76 1646.49,338.31" fill="none" stroke="#1e1e1e" stroke-width="1.35" stroke-linecap="round" stroke-linejoin="round"/>
<polyline points="1609.66,301.5 1610.59,304.65 1609.05,306.24 1607.48,305.37 1607.11,307.08 1605.93,307 1605.36,310.7 1606.35,312.23 1604.67,312.04 1603.87,310.32 1603.35,312.56 1604.58,313.4 1602.2,312.8 1601.66,311.38 1603.32,311.07 1602.33,309.4 1603.55,307.61 1604.72,300.93 1606.34,300.07 1608.3,301.85 1609.66,301.5" fill="none" stroke="#1e1e1e" stroke-width="1.35" stroke-linecap="round" stroke-linejoin="round"/>
<polyline points="1608.94,319.11 1607.86,320.36 1608.09,318.53 1608.94,319.11" fill="none" stroke="#1e1e1e" stroke-width="1.35" stroke-linecap="round" stroke-linejoin="round"/>
<polyline points="1608.89,326.32 1607.38,324.32 1608.11,323.55 1607.22,322.19 1608.16,320.89 1609.1,320.88 1608.51,321.95 1609.7,324.72 1608.76,324.02 1608.59,325.67 1610.03,325.13 1608.89,326.32" fill="none" stroke="#1e1e1e" stroke-width="1.35" stroke-linecap="round" stroke-linejoin="round"/>
<polyline points="1603.49,342.53 1603.37,341.58 1602.79,342.35 1603.4,340.93 1601.93,340.29 1603.07,338.9 1604.36,340.34 1603.78,340.52 1604.31,342.05 1603.49,342.53" fill="none" stroke="#1e1e1e" stroke-width="1.35" stroke-linecap="round" stroke-linejoin="round"/>
<polyline points="1603.64,347.25 1603.04,346.31 1603.62,344.24 1604.47,345.3 1603.64,347.25" fill="none" stroke="#1e1e1e" stroke-width="1.35" stroke-linecap="round" stroke-linejoin="round"/>
<polyline points="1644.3,308.8 1648.46,306.27 1644.3,308.8" fill="none" stroke="#1e1e1e" stroke-width="1.35" stroke-linecap="round" stroke-linejoin="round"/>
<polyline points="1567.78,369.25 1567.58,367.64 1568.52,368.1 1567.82,367.24 1568.72,365.49 1570.69,365.44 1569.91,366.37 1570.73,366.64 1569.29,366.56 1569.66,367.48 1568.43,367.61 1569.11,368.55 1567.78,369.25" fill="none" stroke="#1e1e1e" stroke-width="1.35" stroke-linecap="round" stroke-linejoin="round"/>
<polyline points="1307.68,868.41 1306.15,867.53 1304.72,864.87 1307.01,866.25 1307.68,868.41" fill="none" stroke="#1e1e1e" stroke-width="1.35" stroke-linecap="round" stroke-linejoin="round"/>
<polyline points="1299.48,740.92 1298.36,740.17 1298.47,738.6 1299.73,739.03 1299.48,740.92" fill="none" stroke="#1e1e1e" stroke-width="1.35" stroke-linecap="round" stroke-linejoin="round"/>
<polyline points="1298.45,738.29 1294.81,735.72 1295.1,732.51 1296.14,733.53 1297.9,732.26 1300.12,733.91 1298.45,738.29" fill="none" stroke="#1e1e1e" stroke-width="1.35" stroke-linecap="round" stroke-linejoin="round"/>
<polyline points="1292.97,742.23 1291.52,741.28 1291.7,740.36 1292.97,742.23" fill="none" stroke="#1e1e1e" stroke-width="1.35" stroke-linecap="round" stroke-linejoin="round"/>
<polyline points="1613.75,1239.65 1611.45,1239.04 1611.8,1236.22 1613.33,1236.11 1614.36,1237.12 1614.84,1238.22 1613.75,1239.65" fill="none" stroke="#1e1e1e" stroke-width="1.35" stroke-linecap="round" stroke-linejoin="round"/>
<polyline points="1544.71,371.45 1546.29,373.34 1545.48,373.13 1545.05,374.45 1545.01,373.62 1544.1,373.91 1544.56,372.51 1545.22,372.85 1544.71,371.45" fill="none" stroke="#1e1e1e" stroke-width="1.35" stroke-linecap="round" stroke-linejoin="round"/>
<polyline points="1561.12,400.03 1560.7,400.96 1559.83,400.81 1560.86,399.91 1559.72,398.88 1561.02,398.93 1561.12,400.03" fill="none" stroke="#1e1e1e" stroke-width="1.35" stroke-linecap="round" stroke-linejoin="round"/>
<polyline points="1582.15,393.11 1584.52,392.64 1584.5,393.57 1585,391.94 1584.21,390.65 1585.53,391.69 1585.19,393.34 1586.76,392.11 1587.7,392.55 1583.13,395.37 1581.78,395.06 1582.78,394.24 1583.39,394.79 1582.73,393.91 1583.7,393.1 1581.57,394.4 1582.15,393.11" fill="none" stroke="#1e1e1e" stroke-width="1.35" stroke-linecap="round" stroke-linejoin="round"/>
<polyline points="1551.83,414.08 1553.06,414.14 1552.96,413.11 1554.27,412.36 1553.48,411.81 1555.14,411.22 1554.51,412.07 1555.58,412.39 1554.65,413.27 1555.13,415.24 1554.44,415.89 1553.94,414.7 1553.55,415.63 1554.88,417.15 1555.56,416.25 1555.56,417.01 1554.61,417.46 1553.67,416.74 1553.66,417.87 1552.32,417.47 1551.83,414.08" fill="none" stroke="#1e1e1e" stroke-width="1.35" stroke-linecap="round" stroke-linejoin="round"/>
<polyline points="1563.64,385.3 1564.28,383.99 1565.25,384.48 1565.22,383.57 1569.76,386.83 1568.21,387.32 1567.99,388.68 1567.87,386.98 1565.53,386.95 1563.64,385.3" fill="none" stroke="#1e1e1e" stroke-width="1.35" stroke-linecap="round" stroke-linejoin="round"/>
<polyline points="1540.8,415.2 1539.64,413.42 1540.68,414.57 1541.15,413.89 1542.15,415.08 1541.61,415.74 1543.01,416.42 1541.26,415.66 1541.2,414.44 1540.8,415.2" fill="none" stroke="#1e1e1e" stroke-width="1.35" stroke-linecap="round" stroke-linejoin="round"/>
<polyline points="1525.24,382.19 1526.01,382.25 1526.58,384.85 1525.93,385.03 1525.81,383.79 1524.69,386.08 1524.27,383.28 1525.22,383.45 1525.24,382.19" fill="none" stroke="#1e1e1e" stroke-width="1.35" stroke-linecap="round" stroke-linejoin="round"/>
<polyline points="1516.32,389.11 1515.1,386.51 1516.65,387.12 1516.51,388.01 1518.04,387.86 1517.97,388.7 1518.94,388.15 1518.95,389.89 1517.98,390.57 1517.46,389.79 1516.89,390.89 1516.1,390.71 1515.46,389.74 1516.32,389.11" fill="none" stroke="#1e1e1e" stroke-width="1.35" stroke-linecap="round" stroke-linejoin="round"/>
<polyline points="1522.93,384.16 1522.51,385.05 1521.62,384.14 1521.58,386.18 1520.9,386.12 1521.46,386.84 1522.89,386.49 1523.29,388.26 1519.57,387.89 1520.93,386.42 1520.06,386.32 1519.29,384.04 1521.15,384.62 1521.88,383.42 1522.93,384.16" fill="none" stroke="#1e1e1e" stroke-width="1.35" stroke-linecap="round" stroke-linejoin="round"/>
<polyline points="1541.35,409.46 1542.85,409.94 1543.27,411.17 1543.16,410.1 1543.73,410.59 1544.2,409.85 1544.6,410.43 1543.57,411.37 1544.92,410.97 1544.43,412.02 1542.26,411.75 1541.35,409.46" fill="none" stroke="#1e1e1e" stroke-width="1.35" stroke-linecap="round" stroke-linejoin="round"/>
<polyline points="1517.03,384.61 1515.81,384.38 1516.58,382.24 1517.03,384.61" fill="none" stroke="#1e1e1e" stroke-width="1.35" stroke-linecap="round" stroke-linejoin="round"/>
<polyline points="1541.61,411.6 1543.16,412.86 1543.06,413.81 1541.61,411.6" fill="none" stroke="#1e1e1e" stroke-width="1.35" stroke-linecap="round" stroke-linejoin="round"/>
<polyline points="1641.78,346.97 1641.6,350.69 1640.11,351.71 1639.73,354.41 1640.42,354.82 1639.63,355.64 1640.84,357.41 1641.67,357.26 1640.25,360.29 1638.94,359.77 1639.43,360.56 1637.89,362.87 1638.56,363.3 1636.03,369.47 1636.53,369.89 1635.38,370.13 1635.66,372.24 1633.83,374.46 1632.59,374.18 1632.81,374.92 1631.34,374.65 1628.59,376.18 1627.12,375.18 1626.99,377.01 1626.01,376.22 1623,378.08 1620.38,378.04 1623,376.53 1620.95,375.68 1613.48,378.68 1611.56,379.63 1610.9,381.23 1608.41,381.86 1609.53,381.19 1608.61,381.15 1608.48,379.37 1612.9,377.78 1614.02,376.05 1617.06,375.55 1616.58,374.81 1619.33,372.63 1625.27,369.18 1627.75,364.93 1628.79,366.45 1628.09,365.57 1628.95,361.02 1627,362.49 1625.78,359.89 1627.89,360.63 1627.58,359.13 1628.41,359.62 1628.68,357.66 1632.77,352.38 1631.81,356.57 1632.79,356.04 1634.27,351.36 1635.4,350.97 1638.32,346.74 1637.35,352.57 1638.46,354.29 1641.56,348.85 1641.31,345.9 1641.78,346.97" fill="none" stroke="#1e1e1e" stroke-width="1.35" stroke-linecap="round" stroke-linejoin="round"/>
<polyline points="1637.32,375.93 1640.19,371.36 1638.82,371.18 1638.95,370.44 1642.12,365.58 1642.34,363.64 1643.38,363.39 1641.73,367.63 1643.73,371.32 1637.04,377.56 1634.76,383.11 1630.45,386.81 1627.01,398.02 1625.26,399.08 1624.64,398.21 1625.52,397.64 1625.87,395.27 1626.75,395.02 1627.67,388.79 1629.69,386.06 1628.59,384.54 1625.94,383.53 1625.96,382.63 1629.59,384.15 1632.49,383.3 1634.13,380.6 1634.15,378.07 1635.48,376.86 1635.14,375.86 1637.32,375.93" fill="none" stroke="#1e1e1e" stroke-width="1.35" stroke-linecap="round" stroke-linejoin="round"/>
<polyline points="1539.45,418.68 1539.04,420.85 1537.87,420.74 1537.8,419.45 1539.45,418.68" fill="none" stroke="#1e1e1e" stroke-width="1.35" stroke-linecap="round" stroke-linejoin="round"/>
<polyline points="1584.02,359.35 1585.17,360.57 1587.24,359.97 1585.19,361.36 1584.02,359.35" fill="none" stroke="#1e1e1e" stroke-width="1.35" stroke-linecap="round" stroke-linejoin="round"/>
<polyline points="1562.08,393.53 1561.43,391.18 1562.13,392.33 1563.56,392.44 1564.12,394.22 1562.68,392.83 1562.48,394.04 1562.46,392.88 1562.08,393.53" fill="none" stroke="#1e1e1e" stroke-width="1.35" stroke-linecap="round" stroke-linejoin="round"/>
<polyline points="1590.84,366.21 1589.17,366.81 1588.11,365.48 1589.16,363.87 1590.61,365.56 1589.88,365.95 1590.84,366.21" fill="none" stroke="#1e1e1e" stroke-width="1.35" stroke-linecap="round" stroke-linejoin="round"/>
<polyline points="1616.81,353.81 1618.54,351.59 1618.56,350.2 1619.03,351.04 1618.39,353.14 1617.8,354.05 1616.81,353.81" fill="none" stroke="#1e1e1e" stroke-width="1.35" stroke-linecap="round" stroke-linejoin="round"/>
<polyline points="1529.13,423.5 1529.89,425.04 1528.72,425 1528.2,423.79 1529.13,423.5" fill="none" stroke="#1e1e1e" stroke-width="1.35" stroke-linecap="round" stroke-linejoin="round"/>
<polyline points="1537.97,388.87 1539.52,389.82 1538.57,389.93 1538.7,390.97 1538.33,389.91 1537.64,390.17 1537.97,388.87" fill="none" stroke="#1e1e1e" stroke-width="1.35" stroke-linecap="round" stroke-linejoin="round"/>
<polyline points="1541.74,397.06 1539.59,395.51 1540.95,394.75 1542.88,396.38 1541.74,397.06" fill="none" stroke="#1e1e1e" stroke-width="1.35" stroke-linecap="round" stroke-linejoin="round"/>
<polyline points="1551.65,402.13 1551.16,404.73 1551.93,405.39 1553.45,404.23 1553.57,405.85 1552.36,406.39 1553.84,406.77 1551.68,407.73 1553.46,407.85 1551.11,409.14 1552.34,409.28 1552.53,410.4 1551.12,410.25 1550.94,411.02 1549.27,407.24 1549.64,404.33 1548.35,402.29 1551.02,404.09 1550.54,402.53 1551.65,402.13" fill="none" stroke="#1e1e1e" stroke-width="1.35" stroke-linecap="round" stroke-linejoin="round"/>
<polyline points="1533.78,392.2 1533.85,390.75 1535.67,391.43 1533.78,392.2" fill="none" stroke="#1e1e1e" stroke-width="1.35" stroke-linecap="round" stroke-linejoin="round"/>
<polyline points="1615.57,286.46 1616.25,287.11 1615.14,286.94 1616.34,287.63 1614.59,286.91 1615.57,286.46" fill="none" stroke="#1e1e1e" stroke-width="1.35" stroke-linecap="round" stroke-linejoin="round"/>
<polyline points="1544.65,391.64 1544.59,390.55 1545.6,390.61 1544.87,391.34 1545.95,392.77 1544.97,392.49 1544.87,393.35 1545.69,393.38 1545.59,394.31 1546.59,394.05 1546.05,396.38 1546.77,395.59 1547.85,396.04 1546.65,396.6 1547.94,397.07 1547.5,397.83 1544.62,396.28 1545.83,394.94 1544.83,393.41 1543.78,393.62 1543.69,395.74 1541.97,394.38 1542.37,393.32 1543.65,393.71 1542.91,392.24 1544.13,392.2 1543.82,391.18 1544.65,391.64" fill="none" stroke="#1e1e1e" stroke-width="1.35" stroke-linecap="round" stroke-linejoin="round"/>
<polyline points="1582.14,392.9 1583.41,391.06 1583.31,392.01 1583.9,391.39 1584.38,392.08 1582.14,392.9" fill="none" stroke="#1e1e1e" stroke-width="1.35" stroke-linecap="round" stroke-linejoin="round"/>
<polyline points="1581.1,387.77 1582.48,387.88 1582.84,389.43 1580.8,389.5 1581.63,388.37 1581.1,387.77" fill="none" stroke="#1e1e1e" stroke-width="1.35" stroke-linecap="round" stroke-linejoin="round"/>
<polyline points="1570.72,389.8 1570.67,387.91 1571.91,389.28 1571.75,390.17 1570.72,389.8" fill="none" stroke="#1e1e1e" stroke-width="1.35" stroke-linecap="round" stroke-linejoin="round"/>
<polyline points="1576.4,392.21 1577.46,392.44 1578.02,391.35 1578.91,392.36 1577.83,392.39 1577.95,393.4 1576.4,392.21" fill="none" stroke="#1e1e1e" stroke-width="1.35" stroke-linecap="round" stroke-linejoin="round"/>
<polyline points="1568.22,393.73 1570.01,395.79 1567.82,394.55 1568.22,393.73" fill="none" stroke="#1e1e1e" stroke-width="1.35" stroke-linecap="round" stroke-linejoin="round"/>
<polyline points="1559.84,393.57 1561.47,395.5 1560.7,395.14 1560.56,396.23 1561.69,396.02 1559.3,397.29 1557.97,395.53 1559.77,395.52 1559.84,393.57" fill="none" stroke="#1e1e1e" stroke-width="1.35" stroke-linecap="round" stroke-linejoin="round"/>
<polyline points="1553.84,387.63 1555.2,386.87 1556.66,388.53 1556,389.14 1555.53,387.67 1553.84,387.63" fill="none" stroke="#1e1e1e" stroke-width="1.35" stroke-linecap="round" stroke-linejoin="round"/>
<polyline points="1530.52,385.97 1531.84,384.81 1532.54,386.31 1531.05,385.88 1530.42,386.88 1530.52,385.97" fill="none" stroke="#1e1e1e" stroke-width="1.35" stroke-linecap="round" stroke-linejoin="round"/>
<polyline points="1534.05,388.55 1532.21,388.46 1531.88,387.11 1533.62,386.82 1533.77,387.55 1532.84,387.51 1534.05,388.55" fill="none" stroke="#1e1e1e" stroke-width="1.35" stroke-linecap="round" stroke-linejoin="round"/>
<polyline points="1526.77,386.3 1527.07,389.65 1525.76,389.41 1524.68,387.57 1526.16,388.47 1525.53,387.21 1526.77,386.3" fill="none" stroke="#1e1e1e" stroke-width="1.35" stroke-linecap="round" stroke-linejoin="round"/>
<polyline points="1602.51,299.67 1603.26,301.7 1601.59,305.64 1601.33,303.43 1602.51,299.67" fill="none" stroke="#1e1e1e" stroke-width="1.35" stroke-linecap="round" stroke-linejoin="round"/>
<polyline points="1658.36,302.05 1656.8,301.44 1658.35,300.5" fill="none" stroke="#1e1e1e" stroke-width="1.35" stroke-linecap="round" stroke-linejoin="round"/>
<polyline points="1658.38,301.99 1658.36,302.05" fill="none" stroke="#1e1e1e" stroke-width="1.35" stroke-linecap="round" stroke-linejoin="round"/>
<polyline points="1649.45,303.92 1646.49,304.53 1649.68,303.44 1649.79,302.52 1650.97,302.67 1649.45,303.92" fill="none" stroke="#1e1e1e" stroke-width="1.35" stroke-linecap="round" stroke-linejoin="round"/>
<polyline points="1658.23,297.92 1658.3,297.9" fill="none" stroke="#1e1e1e" stroke-width="1.35" stroke-linecap="round" stroke-linejoin="round"/>
<polyline points="1658.31,298.32 1654.35,300.92 1654.13,302.19 1652.83,302.38 1651.94,301.44 1653.67,300 1649.04,301.57 1652.63,298.88 1654.03,299.03 1654.03,298.13 1655.48,298.28 1655.08,297.29 1657.74,296.89 1657.5,296.24 1658.26,296.16" fill="none" stroke="#1e1e1e" stroke-width="1.35" stroke-linecap="round" stroke-linejoin="round"/>
<polyline points="1658.28,296.99 1658.23,297.92" fill="none" stroke="#1e1e1e" stroke-width="1.35" stroke-linecap="round" stroke-linejoin="round"/>
<polyline points="1266.01,867.41 1265.03,866.47 1266.57,866.24 1266.89,864.97 1267.75,866.27 1266.01,867.41" fill="none" stroke="#1e1e1e" stroke-width="1.35" stroke-linecap="round" stroke-linejoin="round"/>
<polyline points="1573.38,363.6 1572.37,364.78 1571.63,364.04 1572.25,363.22 1573.38,363.6" fill="none" stroke="#1e1e1e" stroke-width="1.35" stroke-linecap="round" stroke-linejoin="round"/>
<polyline points="1537.9,388.64 1536.94,388.37 1536.57,386.24 1537.08,387.94 1538.54,387.32 1537.9,388.64" fill="none" stroke="#1e1e1e" stroke-width="1.35" stroke-linecap="round" stroke-linejoin="round"/>
<polyline points="1551.18,396.12 1549.16,395.96 1549.09,394.49 1548.27,394.47 1550.73,394.68 1551.18,396.12" fill="none" stroke="#1e1e1e" stroke-width="1.35" stroke-linecap="round" stroke-linejoin="round"/>
<polyline points="1506.07,391.51 1505.39,393.8 1506.07,391.51" fill="none" stroke="#1e1e1e" stroke-width="1.35" stroke-linecap="round" stroke-linejoin="round"/>
<polyline points="1605.2,370.93 1606.21,369.09 1607.4,369.29 1606.94,368.29 1607.73,368.63 1607.76,369.9 1605.2,370.93" fill="none" stroke="#1e1e1e" stroke-width="1.35" stroke-linecap="round" stroke-linejoin="round"/>
<polyline points="1643.38,347.68 1642,349.1 1642.63,345.87 1643.38,347.68" fill="none" stroke="#1e1e1e" stroke-width="1.35" stroke-linecap="round" stroke-linejoin="round"/>
<polyline points="1640.27,348.87 1639.25,346.69 1639.9,347.03 1640.32,346.14 1640.27,348.87" fill="none" stroke="#1e1e1e" stroke-width="1.35" stroke-linecap="round" stroke-linejoin="round"/>
<polyline points="1638.6,351.03 1639.07,348.27 1640.04,349.54 1638.6,351.03" fill="none" stroke="#1e1e1e" stroke-width="1.35" stroke-linecap="round" stroke-linejoin="round"/>
<polyline points="1629.36,347.28 1629.49,346.57 1630.81,346.85 1629.78,345.78 1630.82,344.76 1634.43,343.26 1636.03,340.83 1635.82,339.49 1637.38,339.93 1636.5,341.4 1637.26,340.89 1638.29,341.66 1637.32,343.12 1636.36,342.78 1637.37,344.1 1635.64,343.43 1634.09,345.79 1632.04,344.58 1633.06,345.85 1631.51,345.86 1631.98,347.15 1629.36,347.28" fill="none" stroke="#1e1e1e" stroke-width="1.35" stroke-linecap="round" stroke-linejoin="round"/>
<polyline points="1633.53,340.17 1632.66,339.49 1630.98,340.93 1629.57,339.91 1630.92,339.58 1631.07,340.45 1631.24,339.17 1633.23,339.09 1633.53,340.17" fill="none" stroke="#1e1e1e" stroke-width="1.35" stroke-linecap="round" stroke-linejoin="round"/>
<polyline points="1642.42,340.09 1642.42,344.67 1640.68,343.9 1642.23,343.71 1640.58,342.77 1642.42,340.09" fill="none" stroke="#1e1e1e" stroke-width="1.35" stroke-linecap="round" stroke-linejoin="round"/>
<polyline points="1515.57,389.92 1515.38,390.97 1514.56,390.99 1514.59,389.56 1515.57,389.92" fill="none" stroke="#1e1e1e" stroke-width="1.35" stroke-linecap="round" stroke-linejoin="round"/>
<polyline points="1634.48,323.18 1634.12,322.32 1636.01,322.24 1635.93,322.91 1634.48,323.18" fill="none" stroke="#1e1e1e" stroke-width="1.35" stroke-linecap="round" stroke-linejoin="round"/>
<polyline points="1615.17,311.7 1616.45,315.52 1613.94,315.99 1613.09,313.64 1614.66,314.68 1614,313.08 1614.63,312.9 1613.62,312.42 1615.17,311.7" fill="none" stroke="#1e1e1e" stroke-width="1.35" stroke-linecap="round" stroke-linejoin="round"/>
<polyline points="1605.26,335.45 1607.33,333.72 1608.23,334.6 1606.49,335.99 1605.26,335.45" fill="none" stroke="#1e1e1e" stroke-width="1.35" stroke-linecap="round" stroke-linejoin="round"/>
<polyline points="1558.63,444.1 1559.72,444.11 1559.24,444.92 1558.31,444.44 1558.46,442.81 1558.35,443.99 1559.6,443.63 1558.63,444.1" fill="none" stroke="#1e1e1e" stroke-width="1.35" stroke-linecap="round" stroke-linejoin="round"/>
<polyline points="1354.08,591.94 1354.57,589.63 1356.31,591.42 1355.38,590.56 1354.08,591.94" fill="none" stroke="#1e1e1e" stroke-width="1.35" stroke-linecap="round" stroke-linejoin="round"/>
<polyline points="1438.77,519.68 1439.78,522.81 1441.42,522.12 1442.03,523.2 1440.99,528.46 1438.6,531.31 1435.5,526.58 1438.45,521.88 1438.77,519.68" fill="none" stroke="#1e1e1e" stroke-width="1.35" stroke-linecap="round" stroke-linejoin="round"/>
<polyline points="1522.99,372.53 1522.24,375.49 1522.82,377.9 1521.88,376.22 1521.51,377.61 1520.7,377.31 1519.67,374.8 1518.96,375.93 1521.38,378.32 1518.99,378.33 1515.31,375.59 1515.3,371.97 1516.43,371.39 1517.36,372.71 1518.82,371.79 1521.76,371.73 1522.99,372.53" fill="none" stroke="#1e1e1e" stroke-width="1.35" stroke-linecap="round" stroke-linejoin="round"/>
<polyline points="1496.4,397.65 1498.4,400.05 1490.8,401.04 1496.4,397.65" fill="none" stroke="#1e1e1e" stroke-width="1.35" stroke-linecap="round" stroke-linejoin="round"/>
<polyline points="1554.79,371.88 1555.79,371.91 1555.39,373.62 1554.64,372.99 1554.79,371.88" fill="none" stroke="#1e1e1e" stroke-width="1.35" stroke-linecap="round" stroke-linejoin="round"/>
<polyline points="1602.93,348.95 1603.25,347.18 1603.72,349.08 1602.93,348.95" fill="none" stroke="#1e1e1e" stroke-width="1.35" stroke-linecap="round" stroke-linejoin="round"/>
<polyline points="1631.68,328.09 1631.44,326.52 1634.87,324.48 1635.11,323.12 1638.06,322.95 1637.01,324.94 1631.68,328.09" fill="none" stroke="#1e1e1e" stroke-width="1.35" stroke-linecap="round" stroke-linejoin="round"/>
<polyline points="1491.74,405.74 1490.88,402.32 1491.66,401.87 1498.85,400.8 1501.62,401.4 1501.26,402.87 1502.12,403.24 1500.8,404.93 1502.04,403.37 1503.54,403.25 1506.87,408.55 1505.8,409.23 1503.83,406.23 1506.4,410.48 1503.49,406.21 1503.59,407.15 1502.87,406.55 1502.71,404.93 1499.77,406.16 1497.92,405.82 1498.04,407.74 1493.95,407.91 1491.74,405.74" fill="none" stroke="#1e1e1e" stroke-width="1.35" stroke-linecap="round" stroke-linejoin="round"/>
<polyline points="1632.89,288.38 1632.56,286.29 1633.89,285.54 1634.08,287.48 1632.89,288.38" fill="none" stroke="#1e1e1e" stroke-width="1.35" stroke-linecap="round" stroke-linejoin="round"/>
<polyline points="1328.15,617.35 1328.84,618.27 1328.2,619.87 1325.85,621.18 1324.48,618.75 1327.05,620.5 1328.51,618.3 1328.15,617.35" fill="none" stroke="#1e1e1e" stroke-width="1.35" stroke-linecap="round" stroke-linejoin="round"/>
<polyline points="1499.36,394.18 1497.57,392.67 1499.41,387.96 1500.32,387.69 1502.33,391.79 1502.45,394.16 1499.36,394.18" fill="none" stroke="#1e1e1e" stroke-width="1.35" stroke-linecap="round" stroke-linejoin="round"/>
<polyline points="1498.28,388.15 1498.26,390.09 1497.38,389.61 1498.28,388.15" fill="none" stroke="#1e1e1e" stroke-width="1.35" stroke-linecap="round" stroke-linejoin="round"/>
<polyline points="1635.53,290.87 1639.64,291.8 1640.65,291.01 1641.93,291.68 1635.64,295.5 1634.11,292.56 1635.53,290.87" fill="none" stroke="#1e1e1e" stroke-width="1.35" stroke-linecap="round" stroke-linejoin="round"/>
<polyline points="1648.42,295.87 1643.36,296.58 1642.13,297.9 1638.14,297.09 1636.93,295.98 1639.88,293.71 1643.99,292.44 1648.42,295.87" fill="none" stroke="#1e1e1e" stroke-width="1.35" stroke-linecap="round" stroke-linejoin="round"/>
<polyline points="1439.09,473.31 1440.68,478.92 1440.15,481.27 1439.09,473.31" fill="none" stroke="#1e1e1e" stroke-width="1.35" stroke-linecap="round" stroke-linejoin="round"/>
<polyline points="1512.31,375.39 1508.92,372.53 1508.66,376.15 1507.79,377.22 1508.31,378.11 1510.97,377 1510.9,378.16 1512.27,378.32 1513.07,379.94 1506.47,378.99 1503.53,379.43 1501.78,380.94 1501.54,379.96 1499.61,379.32 1499.54,380.46 1496.51,383.56 1495.95,388.01 1491.94,388.87 1494.76,391.61 1495.09,393.27 1495.66,393.03 1496.1,396.91 1494.98,396.59 1495.69,397.5 1492,399.56 1491.9,398.87 1490.02,400.59 1488.21,398.4 1487.71,394.93 1486.62,396.12 1483.66,395.14 1482.82,396.24 1480,395.48 1480.21,396.39 1478.2,396.15 1476.8,397.85 1477.93,397.69 1479.79,399.1 1482.76,398.76 1482.59,399.72 1483.26,399.22 1483.56,399.96 1483.73,399.16 1485.05,399.09 1486.62,400.06 1489.06,407.77 1488.08,409.81 1480.25,410.24 1476.22,406.17 1476.43,408.98 1472.66,410.23 1476,412.75 1478.65,420.58 1480.64,422.31 1482.03,422.05 1479.03,423.23 1480.05,423.53 1482.18,422.22 1479.77,427.65 1481.34,428.99 1480.94,431.47 1482.6,431.5 1483.88,434.23 1481.87,434.01 1482.57,432.71 1480.93,432.86 1480.01,430.72 1478.92,430.58 1479.5,429.19 1478.35,427.95 1477.65,428.77 1478.34,430.76 1476.92,431.85 1474.65,432.46 1472.66,431.01 1472.54,428.64 1474.31,428.75 1474.33,427.23 1475.98,426.57 1474.6,424.7 1474.89,426.25 1473.38,428.2 1472.16,428.4 1471.15,426.84 1471.75,428.56 1469.37,430.39 1468.05,429.12 1469.09,430.76 1468.56,432.78 1465.27,433.63 1462.86,433 1461.18,434.3 1460.27,436.86 1461.11,437.03 1460.94,437.94 1459.43,438.32 1460.37,439.4 1457.03,441.9 1459,444.42 1456.99,445.48 1456.37,444.79 1456.48,445.74 1454.6,446.68 1453.15,444.18 1449.81,446.06 1446.8,444.94 1447.23,447.81 1445.73,448.23 1447.2,448.4 1446.8,449.52 1444.8,449.74 1444.62,451.12 1441.56,454.4 1440.35,453.85 1439.65,455.97 1440.59,456.67 1439.8,456.14 1434.86,461.35 1436.22,464.7 1435.07,464.76 1433.98,469.37 1435.89,475.27 1436.89,475.21 1438.19,477.45 1439.1,477.44 1439.64,479.8 1438.71,480.51 1439.24,481.99 1438.37,483.35 1438.95,486.78 1440.22,488.25 1439.19,488.96 1441.22,489.3 1439.53,490.97 1440.65,491.85 1438.65,492.09 1439.27,492.27 1438.81,494.4 1437.02,497.12 1434.76,504.92 1435.49,509.89 1437.05,511.59 1435.44,512.31 1436.73,512.36 1437.16,516.14 1437.9,516.49 1437.05,517.26 1437.9,518.52 1436.02,518.51 1438.41,519.21 1438.36,520.2 1435.87,524.5 1432.58,526.28 1436.19,530.35 1435.59,530.84 1437.09,536.02 1436.37,539.65 1432.95,542.1 1429.97,541.87 1429.78,542.69 1427.54,543.24 1427.08,542.8 1428.22,541.9 1427.98,537.3 1425.14,538.88 1423.39,536.93 1418.73,539.02 1415.53,538.85 1399.62,542.66 1395.01,544.39 1391.45,547.67 1387.32,548.76 1388.13,549.85 1386.8,551.96 1383.83,555.52 1381.27,557.03 1355.52,588.77 1357.07,591.3 1354.59,588.44 1352.61,588.92 1352.48,591.53 1349.92,597.58 1345.72,601.77 1344.37,602.07 1341.75,608.59 1337.36,613.81 1334,616.46 1332,617.03 1331.46,615.09 1332.48,615.94 1334,615.66 1337.86,612.82 1337.55,612.06 1335.46,611.54 1333.02,608.73 1331.78,609.69 1332.71,608.61 1331.95,607.6 1329.14,610.11 1326.59,609.81 1323.94,607.48 1317.54,598.28 1316.06,600.7 1313,602.11 1312.66,600.04 1312.46,602.84 1309.82,602.78 1302.34,608.9 1301.26,612.28 1301.26,616.85 1304.77,616.11 1300.8,621.49 1298.29,628.4 1297.59,633.89 1299.29,637.34 1297.19,639.66 1298.02,641.69 1292.82,649.15 1290.6,654.74 1289.57,655.25 1287.45,653.54 1285.58,653.83 1280.33,660.77 1276.35,672.43 1273.67,687.6 1272.56,689.26 1273.07,691.01 1271.18,701.58 1271.69,715.33 1273.03,722.18 1272.89,723.06 1271.23,721.97 1269.6,723.02 1268.55,728.05 1267.13,728.3 1266.81,730.31 1268.07,736.86 1270,736.55 1270.79,737.39 1269.96,736.61 1268.14,737.04 1270.46,742.68 1273.38,744.86 1273.8,743.22 1274.71,743.69 1275.78,742.41 1276.31,751.98 1274.61,749.69 1273.74,749.81 1270.98,755.89 1271.77,757.8 1270.75,757.36 1268.71,758.32 1267.66,757.37 1266.11,758.77 1263.33,768.48 1261.5,769.29 1261.44,767.77 1259.69,768.06 1257.2,770.67 1255.67,779.39 1256.28,782.22 1255.53,789.31 1255.91,794.27 1257.51,796.8 1251.86,798.63 1247.36,802.23 1245.64,799.47 1243.6,798.53 1239.26,801.54 1236.46,805.55 1232.67,814.66 1231.1,825.18 1232.01,826.61 1232.73,833.5 1235.97,844.35 1239,845.81 1239.82,847.22 1241.41,846.41 1242.53,846.97 1242.83,848.53 1244.06,848.16 1245.3,849.7 1246.47,849.1 1247.83,849.77 1248.6,851.89 1250.13,852.24 1250.38,854.01 1252.18,855.42 1253.41,854.36 1254.2,855.87 1253.2,856.17 1253.34,857.77 1255.06,858.97 1254.12,858.97 1253.62,860.96 1254.94,861.89 1254.33,862.86 1256.14,866.25 1262.84,873.28 1262.88,874.7 1265.29,874.47 1266.65,875.73 1274.37,904.65 1286.19,928.02 1299.21,945.97 1300.51,946.16 1301.02,943.97 1303.5,941.51 1302.73,943.46 1307.39,951.5 1323.92,972.54 1335.82,983.95 1341.67,987.91 1351.53,987.61 1357.08,990.81 1362.1,995.25 1362.95,994.9 1367.85,999.17 1371.58,999.4 1381.23,1010.63 1395,1023.21 1398.72,1024.49 1399.74,1023.83 1400.57,1025.06 1403.93,1025.68 1405.35,1025.3 1405.82,1022.89 1404.95,1022.37 1405.89,1022.43 1407.56,1019.69 1408.76,1019.45 1409,1020.56 1411.7,1020.16 1408.64,1024.69 1408.74,1027.54 1411.76,1032.76 1413.51,1032.09 1413.55,1033.58 1412.9,1032.42 1410.94,1033.76 1411.23,1034.31 1412.58,1034.42 1412.99,1036.67 1415.69,1035.33 1416.32,1032.84 1414.44,1030.21 1415.03,1029.66 1416.4,1032.8 1415.69,1035.54 1417.17,1041.13 1415.91,1042.21 1417.22,1045.14 1421.57,1050.56 1422.53,1050.53 1422.62,1052.1 1425.31,1056.06 1430.1,1057.13 1430.62,1058.32 1430.04,1057.19 1427.57,1057.91 1428.55,1060.72 1431.35,1060.76 1432.01,1062.21 1434.13,1062.83 1432.71,1063.69 1431.24,1061.61 1429.88,1061.4 1427.76,1063.32 1427.04,1065.41 1423.2,1065.88 1416.51,1076.85 1414.79,1082.06 1414.66,1085.9 1417.44,1098.53 1430.33,1125.58 1436.18,1134.08 1437.95,1135.16 1447.38,1152.25 1463.21,1174.78 1480.47,1193.06 1497.44,1208.21 1540.17,1240.59 1564.36,1255.72 1563.54,1259.56 1564.42,1264.92 1563.18,1266.17 1563.42,1270.44 1565.01,1274.64 1570.53,1282.99 1580.3,1294.15 1581.62,1295.28 1582.9,1294.59 1581.64,1295.3 1583.4,1296.26 1583.93,1295.43 1583.41,1296.45 1587.16,1301.44 1615.49,1326.1 1625.3,1332.67 1661.89,1361.18 1677.05,1370.17 1676.59,1371.29 1679.43,1370.75 1680.42,1371.34" fill="none" stroke="#1e1e1e" stroke-width="1.35" stroke-linecap="round" stroke-linejoin="round"/>
<polyline points="1657.69,268.49 1657.71,269.17" fill="none" stroke="#1e1e1e" stroke-width="1.35" stroke-linecap="round" stroke-linejoin="round"/>
<polyline points="1657.8,273.7 1657.06,273.97 1657.77,276.33 1656.54,276.69 1656.85,279.66 1656.23,280.2 1654.26,278.6 1653.43,280.37 1654.14,281.86 1652.72,282.23 1652.83,283.42 1652.15,282.64 1650.37,283.8 1651.32,285.11 1650.09,285.57 1652.48,287.81 1651.82,287.35 1651.2,288.11 1648.75,286.43 1647.13,288.57 1646.02,287.57 1647.2,288.51 1648.63,286.82 1644.98,285.62 1644.5,286.2 1645.7,287.33 1644.09,285.15 1645.05,284.67 1644.2,284.21 1644.88,283.7 1643.75,284.21 1644.32,283.18 1642.98,282.54 1642.26,282.59 1642.9,286.1 1641.14,285.35 1639.87,283.95 1639.62,281.95 1637.39,280.33 1638.03,278.89 1636.13,279.16 1635.2,277.56 1634.35,278.55 1636.08,279.99 1635.9,281.02 1633.42,281.32 1635.11,283.85 1634.16,282.52 1632.85,283.17 1633.76,283.51 1633.45,284.69 1631.05,283.93 1632.38,285.49 1631.71,286.37 1630.86,284.94 1630.64,285.62 1629.04,284.61 1631.78,287.9 1628.27,287.33 1627.62,288.05 1624.92,285.17 1625.64,287.75 1627.11,288.56 1625.5,287.89 1624.61,288.41 1622.35,286.56 1622.55,284.72 1621.65,285.12 1621.45,283.9 1620.81,284.8 1619.34,284.57 1619.33,283.27 1618.33,282.98 1618.74,282.15 1618.28,282.92 1618.09,281.68 1617.86,282.63 1616.74,281.86 1618.33,283.1 1618.26,285.99 1620.94,286.02 1621.97,287.22 1621.77,288.39 1615.86,286.04 1614.18,286.95 1619.01,290.01 1619.08,291.78 1614.96,291.21 1614.31,290.38 1613.49,290.98 1612.25,288.2 1613.26,291.33 1611.67,288.77 1611.19,290.19 1612.65,293.1 1612.57,295.11 1611.15,293.58 1611.15,291.93 1610.32,291.76 1601.74,296.47 1600.8,296.17 1601.02,306.29 1601.72,306.06 1601.94,307.2 1600.91,308.89 1600.92,311.77 1600.24,311.89 1601.43,314.77 1600.29,315.15 1600.29,316.88 1603.16,317.33 1605.05,316.41 1604.8,321.59 1605.74,324.86 1605.06,324.92 1606.31,327.57 1604.78,326.4 1604.9,329.17 1603.25,326.9 1603.85,328.7 1603.31,327.64 1602.85,328.41 1601.32,327.95 1602.93,328.77 1602.29,329.07 1603.41,330.6 1602.32,330.07 1602.18,331.13 1603.87,333.28 1603.59,335.12 1602.94,334.51 1601.58,335.55 1603.87,337 1601,339.23 1599.11,339.48 1600.95,340.05 1601.68,341.6 1602.27,344.35 1601.62,347.32 1600.74,347.59 1602.85,350.02 1603.19,351.97 1602.93,351.33 1601.3,354.98 1596.99,358.07 1596.4,359.51 1589.71,358.8 1589.11,357.89 1588.53,359.33 1588.65,358.37 1588.25,359.29 1586.44,359.21 1586.51,357.93 1576.93,358.06 1577.34,359 1576.63,359.24 1576.29,358.22 1576.22,359.07 1574.78,359.19 1575.88,361.65 1573.37,359.32 1574.89,361.3 1573.57,361.26 1573.19,359.87 1570.41,359.89 1571.04,361.16 1573.12,360.61 1572.39,362.24 1571.69,361.8 1571.87,363.1 1571.08,362.4 1571.11,363.37 1569.42,363.98 1568.54,365.42 1567.07,365.31 1567.07,366.31 1566.49,366.08 1564.68,368.24 1564.07,369.3 1565.01,369.32 1566.81,366.43 1564.42,372.58 1563.67,370.97 1562.17,372.74 1560.58,371.01 1559.31,372.02 1560.05,371.42 1559.79,369.47 1558.37,370.01 1558.82,370.44 1557.9,371.52 1558,370.21 1556.58,370.35 1556.32,371.22 1557.83,370.75 1557.34,371.34 1558.97,372.67 1558.78,374.06 1556.85,375.18 1556.86,373.53 1558.31,373.17 1557.87,371.88 1556.32,371.78 1555.79,373.09 1556.76,373.03 1555.61,373.9 1556.18,371.8 1553.71,370.98 1552.49,372.13 1552.82,370.41 1551.1,372.53 1547.87,372.19 1543.79,369.72 1541.25,369.77 1540.51,370.72 1538.96,370 1538,367.63 1541.89,360.38 1540.64,358.74 1540.85,356.52 1537.55,357.23 1536.49,356.76 1536.72,355.81 1535.38,355.72 1533.4,359.16 1533.28,358.22 1526.25,359.05 1523.86,356.35 1524.72,357.92 1523.27,358.18 1522.7,359.16 1523.35,358.65 1523.86,360.19 1526.33,360.61 1527.09,361.59 1530.78,360.74 1535.88,364.8 1535.06,365.74 1537.38,367.05 1535.9,368.09 1535.68,370.34 1530.64,371.73 1527.64,369.57 1522.56,368.62 1521.77,369.39 1521.16,368.16 1519.78,368.91 1520.91,371.38 1519.71,368.91 1518.75,368.91 1519.36,369.66 1518.7,370.54 1515.1,371.41 1513.96,374.72 1514.23,377.01 1513.47,374.59 1512.31,375.39" fill="none" stroke="#1e1e1e" stroke-width="1.35" stroke-linecap="round" stroke-linejoin="round"/>
<polyline points="1604.49,343.17 1605.83,342.75 1604.39,341.74 1604.38,340.79 1605.99,340.27 1605.05,337.54 1606.31,336.72 1606.46,337.83 1606.28,336.38 1606.97,336.59 1609.38,334.36 1608.4,334.05 1608.24,335.09 1607.68,333.55 1613.46,324.7 1614.35,325.11 1613.55,327.06 1615.52,327.53 1614.58,326.09 1615.54,325.99 1615.49,324.62 1613.97,323.46 1616.62,323.45 1617.21,322.69 1617.02,321.09 1616.15,321.45 1615.38,319.91 1615.78,319.14 1614.27,321.34 1612.67,319.22 1612.72,317.74 1613.49,317.5 1613.72,318.33 1613.49,316.97 1615.48,317.43 1615.36,316.61 1618.02,320.26 1619.41,316.44 1618.76,315.29 1617.69,315.37 1617.68,314.35 1618.87,314.27 1619.12,315.23 1619.11,314.4 1620.11,314.59 1621.05,311.87 1620.94,315.28 1622.93,315.63 1621.96,314.93 1622.4,314.04 1623.46,315.21 1626.46,315.5 1624.33,312.97 1627.33,313.13 1625.77,312.55 1625.91,311.54 1625.56,312.55 1622.68,311.44 1623.41,311.08 1622.44,310.35 1621.25,311.42 1621.57,310.14 1620.38,309.14 1621.73,309.79 1621.29,307.12 1622.26,307.78 1622.02,306.66 1622.84,307.01 1621.48,305.77 1621.31,306.89 1620.43,306.69 1619.92,304.75 1620.54,304.35 1619.84,304.68 1619.12,303.18 1619.14,302.09 1619.82,302.12 1619.13,301.78 1619.46,298.93 1621.28,300.28 1622.28,299.98 1623.17,301.51 1622.28,299.57 1624.33,298.38 1622.45,297.5 1622.46,299.33 1620.25,298.92 1620.16,297.98 1621.5,297.03 1619.89,297.78 1619.51,297.04 1620.09,296.38 1619.39,295.97 1621.12,295.2 1620.11,294.38 1620.49,293.49 1624.37,294.65 1628.8,299.48 1628.39,300.37 1629.56,299.89 1631.28,302.36 1632.57,302.6 1631.46,303.9 1633.45,303.12 1633.49,304.13 1632.17,304.55 1633.4,305.6 1633.81,304.22 1635.22,304.89 1634.69,305.25 1636.58,307.19 1635.76,307.84 1636.76,307.95 1636.94,309.96 1633.06,308.8 1634.42,309.32 1633.95,310.03 1634.59,309.44 1637.6,311.08 1637.19,312.62 1638.07,311.79 1638.49,312.97 1639.19,312.73 1638.95,311.85 1639.89,311.96 1638.83,310.9 1639.94,310.84 1640.97,311.95 1640.54,312.49 1641.65,312.6 1642.5,311.65 1640.39,311.37 1641.06,310.12 1641.59,310.77 1644.37,309.46 1643.88,310.73 1645.05,309.16 1647.63,308.8 1650.25,305.67 1651.29,305.8 1651.26,307.01 1652.18,305.61 1653.34,305.7 1652.29,309.02 1650.3,310.09 1649.58,312.81 1648.37,313.32 1647.71,314.97 1647.09,314.34 1647.19,315.45 1645.31,316.33 1645.4,315.26 1644.75,315.37 1644.26,316.46 1644.9,316.23 1645.4,317.08 1644.84,317.58 1645.22,316.79 1644.39,316.81 1644.03,318.53 1642.7,318.35 1643.74,319.16 1642.51,320.28 1640.75,320.4 1640.96,321.41 1638.52,323.36 1637.7,322.07 1638.63,320.15 1637.07,319.71 1636.98,318.35 1636.54,321.78 1632.79,322.55 1633.93,323.02 1633.72,324.21 1632.48,324.22 1632.2,325.81 1630.49,326.28 1631.4,328.59 1623.84,334.82 1623.61,336.57 1622.15,337.55 1621.67,336.46 1620.62,336.29 1622.24,337.82 1621.46,338.49 1621.78,337.49 1619.94,338.8 1618.96,337.7 1617.25,339.2 1617.94,340.54 1615.66,340.59 1616.22,341.39 1615.41,342.98 1614.27,342.48 1614.6,343.33 1613.99,342.65 1612.92,343.17 1608,347.97 1605.06,347.81 1604.49,343.17" fill="none" stroke="#1e1e1e" stroke-width="1.35" stroke-linecap="round" stroke-linejoin="round"/>
<polyline points="1610.01,413.67 1607.35,415.11 1607.56,413.62 1609.06,412.14 1609.91,412.53 1610.01,413.67" fill="none" stroke="#1e1e1e" stroke-width="1.35" stroke-linecap="round" stroke-linejoin="round"/>
<polyline points="1498.51,381.73 1498.29,383.34 1497.39,383.34 1498.51,381.73" fill="none" stroke="#1e1e1e" stroke-width="1.35" stroke-linecap="round" stroke-linejoin="round"/>
<polyline points="1607.71,307.67 1609.07,308.79 1608.59,309.59 1607.04,308.61 1607.71,307.67" fill="none" stroke="#1e1e1e" stroke-width="1.35" stroke-linecap="round" stroke-linejoin="round"/>
<polyline points="1539.51,416.48 1539.91,418.03 1538.54,418.67 1538.09,418.15 1539.18,417.8 1538.45,416.52 1536.21,415.82 1537.38,418.35 1536.66,420.5 1537.26,422.51 1534.97,424.26 1534.07,423.67 1534.61,422.95 1533.37,421.87 1533.18,420.14 1531.03,419.81 1531.99,422.39 1530.13,420.56 1529.67,421.92 1528.21,420.93 1527.58,419.68 1529.69,419.05 1527.81,418.15 1528.77,417.51 1528.09,416.14 1526.35,417.01 1525.47,415.73 1523.73,415.99 1524.49,417.81 1523.76,418.4 1524.8,420.1 1524.36,420.8 1523.12,416.9 1522.4,417.17 1522.92,418.51 1522.23,417.93 1521.86,418.6 1521.64,416.89 1520.36,416.35 1520.96,416.03 1518.69,415.42 1517.02,413.72 1519.14,413.86 1519.02,412.09 1514,405.83 1506.33,404.52 1507.35,403.19 1504.44,398.47 1507.44,393.73 1508.6,393.17 1509.46,394.35 1512.23,394.37 1511.79,392.42 1512.9,393.86 1513.02,391.86 1513.74,391.6 1511.77,389.91 1513.68,389.07 1513.31,386.62 1514.58,387.37 1513.51,390.17 1514.44,390.65 1514.21,391.86 1515.39,391.77 1515.23,393.72 1515.56,391.78 1517.81,391.45 1518.82,392.93 1520.15,390.77 1519.46,393.88 1520.52,393.67 1521.36,392.5 1520.87,391.09 1523.38,391.62 1521.96,390.55 1522.74,390.12 1525.13,391.7 1524.09,394.06 1525.19,392.22 1526.36,395.01 1527.61,395.16 1525.8,392.38 1525.81,391.66 1527.06,391.69 1525.7,390.07 1528.5,390.8 1527.85,390.18 1528.83,389.92 1529.24,391.28 1529.34,389.79 1530.71,390.5 1531.43,389.87 1531.92,391.85 1532.31,391.25 1532.74,392.71 1534.04,393.05 1533.45,397.78 1532.09,397.23 1533.48,398.25 1534.29,400.85 1535.41,401.04 1534.19,399.73 1536.04,398.75 1534.2,398.4 1534.02,397 1534.86,396 1534.84,398.24 1537.05,396.39 1536.4,399.07 1537.55,398.73 1537.1,400.08 1537.96,399.98 1537.74,398.96 1538.46,399.22 1539.07,400.1 1538.1,401.1 1539.55,401.41 1539.57,399.15 1540.65,398.43 1541.76,399.03 1541.21,399.68 1543.64,400.1 1543.9,402.21 1544.79,401.51 1545.88,402.22 1545.23,403.83 1546.95,402.97 1547.7,404.33 1547.62,406.87 1547.11,405.03 1546.08,405.51 1545.7,404.76 1545.15,405.7 1545.07,404.87 1543.15,403.99 1543.56,402.6 1542.21,403.55 1540.92,402.53 1542.01,404.47 1544.5,404.94 1544.65,407.26 1546.2,409.15 1545.13,408.29 1544.94,409.15 1544.1,408.63 1544.42,409.48 1543.69,408.64 1542.59,409.17 1541.95,407.58 1542.64,407.36 1542.63,406.32 1542.2,407.15 1540.73,406.44 1541.68,407.04 1541.56,408.68 1537.97,403.23 1538.54,403.13 1537.71,400.57 1536.21,400.85 1535.73,399.38 1535.76,401.43 1540.38,407.37 1536.48,407.43 1536.39,408.94 1538.16,407.85 1538.24,408.57 1539.88,408.04 1540.43,408.64 1539.32,408.55 1540.14,408.93 1538.33,410.03 1537.89,409.57 1538.88,408.68 1537.71,409 1537.71,408.21 1536.75,409.71 1535.64,409.93 1534.93,408.97 1535.48,410 1533.5,410.31 1533.8,411.13 1534.6,410.4 1536.09,411.5 1535.91,410.6 1536.76,411.74 1534.89,412.72 1534.39,411.85 1534.2,412.79 1534.09,411.5 1533.35,411.91 1533.35,410.61 1532.05,409.41 1533.58,409.76 1531.86,408.82 1532.14,407.77 1531.25,407.14 1531.39,410.32 1533.78,413.54 1539.51,416.48" fill="none" stroke="#1e1e1e" stroke-width="1.35" stroke-linecap="round" stroke-linejoin="round"/>
</svg>
