<?xml version="1.0" encoding="UTF-8" standalone="no"?>
<svg xmlns="http://www.w3.org/2000/svg" width="2000" height="1202" viewBox="0 0 2000 1202">
<rect width="2000" height="1202" fill="#ffffff"/>
<polyline points="654.97,161.28 657.98,166.49 658.33,171.93 656.91,174.93 657.32,176.5 656.66,175.5 657.31,176.74 655.61,175.35 653.97,176.46 652.96,174.95 651.4,175.74 650.54,173.23 648.95,173.8 648.8,171.8 645.86,173.64 645.49,172.35 642.85,172.92 644.28,169.06 642.04,164.53 642.43,162.62 644.72,161.84 645.36,160.54 643.63,159.18 644.69,158.81 643.96,157.6 645.18,155.79 647.83,154.79 648.07,156.3 654.97,161.28" fill="none" stroke="#1e1e1e" stroke-width="1.45" stroke-linecap="round" stroke-linejoin="round"/>
<polyline points="352.7,98.16 346.31,107.39 347.72,104.08 347.23,102.44 342.24,104.19 339.97,103.81 337.76,101.89 338.82,101.08 337.97,98.87 337.21,99.27 337.6,97.29 335.21,97.06 335.87,96.61 334.66,95.32 335.44,94.49 334.13,93.81 335.58,92.53 334.85,88.67 331.99,87.02 332.03,85.92 329.32,86.81 331.25,85.36 329.68,84.43 330.85,78.02 330.2,77.12 329.16,77.62 330.23,73.34 328.85,72.27 333.47,69.93 333.6,71.34 335.96,72.46 339.43,70.18 338.82,63.62 339.56,61.5 344.06,60.37 345.91,58.82 346.05,57.01 344.94,57.03 346.1,54.98 345,50.53 348.67,49.46 348.84,48.21 349.65,49.05 350.51,47.13 349.57,47.5 349.48,46.34 350.92,45.51 348.83,44.66 350.28,43.8 350.84,41.23 351.37,42.05 353.11,41.53 353.83,38.4 352.83,35.86 354.33,32.9 353.61,31.21 355.43,31.24 354.74,29.44 356,28.6 356.3,26.3 358.89,26.43 358.11,25.04 359.09,25.03 359.1,23.7 360.49,23.61 360.72,22.42 361.45,23.77 363.24,23.5 362.95,20.94" fill="none" stroke="#1e1e1e" stroke-width="1.45" stroke-linecap="round" stroke-linejoin="round"/>
<polyline points="364.75,21.01 364.92,22.13 369.54,23.1 370.81,30.76 375.26,32.2 378.76,31.11 379.5,29.93 378.73,29.07 379.65,29.03 379.06,25.9 379.95,26.13 379.31,25.07 380.38,23.38 379.44,21.54" fill="none" stroke="#1e1e1e" stroke-width="1.45" stroke-linecap="round" stroke-linejoin="round"/>
<polyline points="398.8,22.22 394.94,24.82 392.66,28.52 392.14,32.09 393.98,35.18 394.09,39.77 392.73,40.02 388.28,45.6 382.12,57.66 382.46,60.85 386.15,68.11 385.76,72.02 384.66,73.91 380.72,76.18 380.15,78.23 377.4,79.56 372.74,79.86 370.65,82.67 366.55,84.83 365.32,86.97 366.29,87.34 362.02,90.05 357.31,96.77 352.7,98.16" fill="none" stroke="#1e1e1e" stroke-width="1.45" stroke-linecap="round" stroke-linejoin="round"/>
<polyline points="48.21,1169.61 47.5,1146.77 42.92,1144.21 49.6,1148.27 56.77,1164.78 57.31,1170.08" fill="none" stroke="#1e1e1e" stroke-width="1.45" stroke-linecap="round" stroke-linejoin="round"/>
<polyline points="59.44,1170.18 58.27,1165.26 59.03,1165.62 58.94,1164.11 57.22,1162.67 58.17,1162.8 55.22,1156.94 55.81,1157.58 56.48,1156.18 54.8,1155.43 55.08,1156.64 54.61,1155.24 55.31,1154.4 54.09,1153.14 55.41,1153.42 48.95,1145.57 43.14,1143.17 44.87,1142.82 45.55,1140.42 42.11,1111.96 40.79,1090.03 41.16,1075.97 39.94,1070.76 40.2,1052.06 47.21,1026.94 48.69,1009.52 48.11,998.7 49.5,992.84 47.71,976.49 42.42,950.16 29.97,906.13 30.11,891.32 32.44,871.8 30.19,846.12 30.79,836.77 38.97,802.49 40.71,787.26 38.5,764.77 37.59,761.15 34.67,759.31" fill="none" stroke="#1e1e1e" stroke-width="1.45" stroke-linecap="round" stroke-linejoin="round"/>
<polyline points="34.72,758.35 37.3,760.8 37.68,759.32 39.01,760.73 41.28,759.64 41.25,755.89 42.11,755.82 40.92,753.38 42.44,752.24 42.19,750.22 41.06,749.99 40.92,749.04 41.09,749.95 44.34,749.32 40.93,748.6 42.55,748.44 42.34,743.86 39.41,744.33 43.08,743.46 45.47,737.53 47.13,729.3 55.75,705.92 60.03,687.76 63.39,659.8 64.37,633.43 63.61,617.27 65.39,610.6 68.49,606.6 76.9,601.34 81.89,595.85 92.3,589.31 95.68,585.52 95.01,584.45 96.3,585.96 100.22,584.58 116.13,573.81 122.72,566.84 129.21,556.75 132.99,555.19 139.33,548.45 146.18,543.4 152.39,534.94 162.97,511.88 165.52,498.07 164.85,451.95 167.82,433.65 168.3,407.33 170.88,396.09 172.86,391.78 179.98,384.4 187.99,370.67 192.39,365.87 200.96,349.97 201.85,344.99 204.28,347.32 202.72,348.3 205.31,347.84 207.41,343.17 218.94,331.59 231.13,305.86 238.19,295.63 242.53,284.77 245.95,272 251.32,264.9 257.81,260.89 285.63,253.56 318.48,253.13 332.35,250.07 455.56,191.41 473.91,184.38 485.9,182.58 479.08,200.03 476.73,217.94 479.06,237.44 486.19,257.8 494.61,270.83 506.59,284.16 514.52,290.86 534.57,304.23 535.7,305.45 535.03,306.14 544.64,312.89 546.63,316.89 550.37,320.88 554.35,329.09 557.24,332.41 558.64,332.54 557.89,333.76 559.96,336.08 560.97,341.35 567.3,349.29 585.81,361.12 592.14,368.46 605.54,374.25 614.5,374.81 617.25,378.24 614.82,383.92 614.77,387.34 615.16,388.91 616.61,388.29 617.66,389.92 619.27,390.17 617.97,394.19 617.67,392.77 616.39,392.89 624.12,406.28 625.61,419.55 628.49,424.9 627.15,431.03 627.75,438.8 633.16,450.05 639.77,469.42 642.55,472.98 641.25,472.76 640.99,474.14 642.86,474 641.5,474.49 640.85,476.64 640.4,485.01 641.86,498.86 647.6,509.02 659.36,521.55 673.78,530.35 689.6,535.09 706.85,536.65 711.08,543.22 715.38,554.12 717.82,557.69 725.49,564.88 734.61,566.87 741.17,570.62 754.72,571.95 778.22,568.35 805.49,559.53 822.15,551.65 835.15,542.35 841.8,534.96 846.98,526.64 843.99,523.52 846.75,526.03 848.98,524.14 845.18,522.1 848.93,524.06 865.49,517.65 877.23,510.92 892.59,499.15 900.82,490.9 910.18,479.08 920.46,471.03 930.89,460.77 939.8,449.21 944.52,441.03 949.46,424.28 949.54,417.37 948.03,409.87 948.56,404.74 946.3,403.15 947.73,404.34 947.85,403 948.95,403.5 949.71,402.45 946.3,402.62 947.33,401.84 947.64,389.5 946.13,361.85 942.59,339.11 941.57,309.07 939.8,299.9 937.02,295.04 938.77,286.81 937.25,277.76 939.6,270.49 939.62,266.54 943.02,261.11 943.32,258.47 939.27,246.84 939.02,239.7 936.45,225.84 932.27,217.37 933.17,193.63 932.23,192.79 933.48,193.1 934.75,190.51 931.32,191.75 933.89,191.15 933.2,176.39 932.36,175.66 934.21,175.32 934.73,176.38 934.8,174.88 932.41,175.5 933.64,174.16 930.47,163.01 930.04,156.24 930.77,157.06 930.3,153.76 933.08,144.03 932.76,139.94 934.78,135.69 934.13,133.29 935.9,133 937.01,124.95 940.29,118.96 940.54,117.58 939.62,117.11 941.13,117.72 939.8,117.11 940.95,117.41 941.76,115.63 941.44,112.34 943.3,113.26 941.58,112.31 942.56,112.82 943.68,110.61 944.78,97.42 946.68,95.14 948.62,84.92 952.77,74.79 954.3,74.88 957.28,72.32 958.67,69.39 961.59,58.3 960.9,57.11 961.72,57.6 960.99,56.94 962.08,56.73 960.68,56.11 962.46,56.67 961.16,55.93 962.33,56.1 963.41,54.75 963.34,52.25 964.92,50.3 967.6,41.49 967.37,38.2 968.37,36.17 967.53,36.48 968.1,35.23 966.85,34.25 968.5,32.95 967.72,32.56" fill="none" stroke="#1e1e1e" stroke-width="1.45" stroke-linecap="round" stroke-linejoin="round"/>
</svg>
