<?xml version="1.0" encoding="UTF-8" standalone="no"?>
<svg xmlns="http://www.w3.org/2000/svg" width="2000" height="1202" viewBox="0 0 2000 1202">
<rect width="2000" height="1202" fill="#ffffff"/>
<path d="M43.11,1120.23L45.55,1140.42L44.87,1142.82L43.14,1143.17L48.95,1145.57L55.41,1153.42L54.09,1153.14L55.31,1154.4L54.61,1155.24L55.08,1156.64L54.8,1155.43L56.48,1156.18L55.81,1157.58L55.22,1156.94L58.17,1162.8L57.22,1162.67L58.94,1164.11L59.03,1165.62L58.27,1165.26L59.44,1170.18L57.31,1170.08L56.77,1164.78L49.6,1148.27L42.92,1144.21L47.5,1146.77L48.21,1169.61L12.94,1167.77L15.55,1118.78L43.11,1120.23Z" fill-rule="evenodd" fill="#4682b4" fill-opacity="0.471"/>
<polyline points="43.11,1120.23 45.55,1140.42 44.87,1142.82 43.14,1143.17 48.95,1145.57 55.41,1153.42 54.09,1153.14 55.31,1154.4 54.61,1155.24 55.08,1156.64 54.8,1155.43 56.48,1156.18 55.81,1157.58 55.22,1156.94 58.17,1162.8 57.22,1162.67 58.94,1164.11 59.03,1165.62 58.27,1165.26 59.44,1170.18 57.31,1170.08 56.77,1164.78 49.6,1148.27 42.92,1144.21 47.5,1146.77 48.21,1169.61 12.94,1167.77 15.55,1118.78 43.11,1120.23" fill="none" stroke="#1e1e1e" stroke-width="1.45" stroke-linecap="round" stroke-linejoin="round"/>
<path d="M182.8,379.56L179.98,384.4L172.86,391.78L170.88,396.09L168.3,407.33L167.82,433.65L164.85,451.95L165.52,498.07L162.97,511.88L152.39,534.94L146.18,543.4L139.33,548.45L132.99,555.19L129.21,556.75L122.72,566.84L116.13,573.81L100.22,584.58L96.3,585.96L95.01,584.45L95.68,585.52L92.3,589.31L81.89,595.85L76.9,601.34L68.49,606.6L65.39,610.6L63.61,617.27L64.37,633.43L63.39,659.8L60.03,687.76L55.75,705.92L47.13,729.3L45.47,737.53L43.08,743.46L39.41,744.33L42.34,743.86L42.55,748.44L40.93,748.6L44.34,749.32L41.09,749.95L40.92,749.04L41.06,749.99L42.19,750.22L42.44,752.24L40.92,753.38L42.11,755.82L41.25,755.89L41.28,759.64L39.01,760.73L37.68,759.32L37.3,760.8L34.72,758.35L55.2,373.23L182.8,379.56Z" fill-rule="evenodd" fill="#4682b4" fill-opacity="0.471"/>
<polyline points="182.8,379.56 179.98,384.4 172.86,391.78 170.88,396.09 168.3,407.33 167.82,433.65 164.85,451.95 165.52,498.07 162.97,511.88 152.39,534.94 146.18,543.4 139.33,548.45 132.99,555.19 129.21,556.75 122.72,566.84 116.13,573.81 100.22,584.58 96.3,585.96 95.01,584.45 95.68,585.52 92.3,589.31 81.89,595.85 76.9,601.34 68.49,606.6 65.39,610.6 63.61,617.27 64.37,633.43 63.39,659.8 60.03,687.76 55.75,705.92 47.13,729.3 45.47,737.53 43.08,743.46 39.41,744.33 42.34,743.86 42.55,748.44 40.93,748.6 44.34,749.32 41.09,749.95 40.92,749.04 41.06,749.99 42.19,750.22 42.44,752.24 40.92,753.38 42.11,755.82 41.25,755.89 41.28,759.64 39.01,760.73 37.68,759.32 37.3,760.8 34.72,758.35 55.2,373.23 182.8,379.56" fill="none" stroke="#1e1e1e" stroke-width="1.45" stroke-linecap="round" stroke-linejoin="round"/>
<path d="M34.67,759.31L37.59,761.15L38.5,764.77L40.71,787.26L38.97,802.49L30.79,836.77L30.19,846.12L32.44,871.8L30.11,891.32L29.97,906.13L42.42,950.16L47.71,976.49L49.5,992.84L48.11,998.7L48.69,1009.52L47.21,1026.94L40.2,1052.06L39.94,1070.76L41.16,1075.97L40.79,1090.03L43.14,1120.47L15.53,1119.02L34.67,759.31Z" fill-rule="evenodd" fill="#4682b4" fill-opacity="0.471"/>
<polyline points="34.67,759.31 37.59,761.15 38.5,764.77 40.71,787.26 38.97,802.49 30.79,836.77 30.19,846.12 32.44,871.8 30.11,891.32 29.97,906.13 42.42,950.16 47.71,976.49 49.5,992.84 48.11,998.7 48.69,1009.52 47.21,1026.94 40.2,1052.06 39.94,1070.76 41.16,1075.97 40.79,1090.03 43.14,1120.47 15.53,1119.02 34.67,759.31" fill="none" stroke="#1e1e1e" stroke-width="1.45" stroke-linecap="round" stroke-linejoin="round"/>
<path d="M379.44,21.54L380.38,23.38L379.31,25.07L379.95,26.13L379.06,25.9L379.65,29.03L378.73,29.07L379.5,29.93L378.76,31.11L375.26,32.2L370.81,30.76L369.54,23.1L364.92,22.13L364.75,21.01L379.44,21.54Z" fill-rule="evenodd" fill="#4682b4" fill-opacity="0.471"/>
<polyline points="379.44,21.54 380.38,23.38 379.31,25.07 379.95,26.13 379.06,25.9 379.65,29.03 378.73,29.07 379.5,29.93 378.76,31.11 375.26,32.2 370.81,30.76 369.54,23.1 364.92,22.13 364.75,21.01 379.44,21.54" fill="none" stroke="#1e1e1e" stroke-width="1.45" stroke-linecap="round" stroke-linejoin="round"/>
<path d="M362.95,20.94L363.24,23.5L361.45,23.77L360.72,22.42L360.49,23.61L359.1,23.7L359.09,25.03L358.11,25.04L358.89,26.43L356.3,26.3L356,28.6L354.74,29.44L355.43,31.24L353.61,31.21L354.33,32.9L352.83,35.86L353.83,38.4L353.11,41.53L351.37,42.05L350.84,41.23L350.28,43.8L348.83,44.66L350.92,45.51L349.48,46.34L349.57,47.5L350.51,47.13L349.65,49.05L348.84,48.21L348.67,49.46L345,50.53L346.1,54.98L344.94,57.03L346.05,57.01L345.91,58.82L344.06,60.37L339.56,61.5L338.82,63.62L339.43,70.18L335.96,72.46L333.6,71.34L333.47,69.93L328.85,72.27L330.23,73.34L329.16,77.62L330.2,77.12L330.85,78.02L329.68,84.43L331.25,85.36L329.32,86.81L332.03,85.92L331.99,87.02L334.85,88.67L335.58,92.53L334.13,93.81L335.44,94.49L334.66,95.32L335.87,96.61L335.21,97.06L337.6,97.29L337.21,99.27L337.97,98.87L338.82,101.08L337.76,101.89L339.97,103.81L342.24,104.19L347.23,102.44L347.72,104.08L346.31,107.39L352.7,98.16L357.31,96.77L362.02,90.05L366.29,87.34L365.32,86.97L366.55,84.83L370.65,82.67L372.74,79.86L377.4,79.56L380.15,78.23L380.72,76.18L384.66,73.91L385.76,72.02L386.15,68.11L382.46,60.85L382.12,57.66L388.28,45.6L392.73,40.02L394.09,39.77L393.98,35.18L392.14,32.09L392.66,28.52L394.94,24.82L398.8,22.22L463.82,24.34L458.71,190.21L332.35,250.07L318.48,253.13L285.63,253.56L257.81,260.89L251.32,264.9L245.95,272L242.53,284.77L238.19,295.63L231.13,305.86L218.94,331.59L207.41,343.17L205.31,347.84L202.72,348.3L204.28,347.32L201.85,344.99L200.96,349.97L192.39,365.87L187.99,370.67L182.67,379.79L55.19,373.46L74.63,8L362.95,20.94Z" fill-rule="evenodd" fill="#4682b4" fill-opacity="0.471"/>
<polyline points="362.95,20.94 363.24,23.5 361.45,23.77 360.72,22.42 360.49,23.61 359.1,23.7 359.09,25.03 358.11,25.04 358.89,26.43 356.3,26.3 356,28.6 354.74,29.44 355.43,31.24 353.61,31.21 354.33,32.9 352.83,35.86 353.83,38.4 353.11,41.53 351.37,42.05 350.84,41.23 350.28,43.8 348.83,44.66 350.92,45.51 349.48,46.34 349.57,47.5 350.51,47.13 349.65,49.05 348.84,48.21 348.67,49.46 345,50.53 346.1,54.98 344.94,57.03 346.05,57.01 345.91,58.82 344.06,60.37 339.56,61.5 338.82,63.62 339.43,70.18 335.96,72.46 333.6,71.34 333.47,69.93 328.85,72.27 330.23,73.34 329.16,77.62 330.2,77.12 330.85,78.02 329.68,84.43 331.25,85.36 329.32,86.81 332.03,85.92 331.99,87.02 334.85,88.67 335.58,92.53 334.13,93.81 335.44,94.49 334.66,95.32 335.87,96.61 335.21,97.06 337.6,97.29 337.21,99.27 337.97,98.87 338.82,101.08 337.76,101.89 339.97,103.81 342.24,104.19 347.23,102.44 347.72,104.08 346.31,107.39 352.7,98.16 357.31,96.77 362.02,90.05 366.29,87.34 365.32,86.97 366.55,84.83 370.65,82.67 372.74,79.86 377.4,79.56 380.15,78.23 380.72,76.18 384.66,73.91 385.76,72.02 386.15,68.11 382.46,60.85 382.12,57.66 388.28,45.6 392.73,40.02 394.09,39.77 393.98,35.18 392.14,32.09 392.66,28.52 394.94,24.82 398.8,22.22 463.82,24.34 458.71,190.21 332.35,250.07 318.48,253.13 285.63,253.56 257.81,260.89 251.32,264.9 245.95,272 242.53,284.77 238.19,295.63 231.13,305.86 218.94,331.59 207.41,343.17 205.31,347.84 202.72,348.3 204.28,347.32 201.85,344.99 200.96,349.97 192.39,365.87 187.99,370.67 182.67,379.79 55.19,373.46 74.63,8 362.95,20.94" fill="none" stroke="#1e1e1e" stroke-width="1.45" stroke-linecap="round" stroke-linejoin="round"/>
<path d="M947.42,398.26L947.33,401.84L946.3,402.62L949.71,402.45L948.95,403.5L947.85,403L947.73,404.34L946.3,403.15L948.56,404.74L948.03,409.87L949.54,417.37L949.46,424.28L944.52,441.03L939.8,449.21L930.89,460.77L920.46,471.03L910.18,479.08L900.82,490.9L892.59,499.15L877.23,510.92L865.49,517.65L848.93,524.06L845.18,522.1L848.98,524.14L846.75,526.03L843.99,523.52L846.98,526.64L841.8,534.96L835.15,542.35L822.15,551.65L805.49,559.53L778.22,568.35L754.72,571.95L741.17,570.62L734.61,566.87L725.49,564.88L717.82,557.69L715.38,554.12L711.08,543.22L706.85,536.65L689.6,535.09L673.78,530.35L659.36,521.55L647.6,509.02L641.86,498.86L640.4,485.01L640.85,476.64L641.5,474.49L642.86,474L640.99,474.14L641.25,472.76L642.55,472.98L639.77,469.42L633.16,450.05L627.75,438.8L627.15,431.03L628.49,424.9L625.61,419.55L624.12,406.28L617.16,394.22L947.42,398.26Z" fill-rule="evenodd" fill="#4682b4" fill-opacity="0.471"/>
<polyline points="947.42,398.26 947.33,401.84 946.3,402.62 949.71,402.45 948.95,403.5 947.85,403 947.73,404.34 946.3,403.15 948.56,404.74 948.03,409.87 949.54,417.37 949.46,424.28 944.52,441.03 939.8,449.21 930.89,460.77 920.46,471.03 910.18,479.08 900.82,490.9 892.59,499.15 877.23,510.92 865.49,517.65 848.93,524.06 845.18,522.1 848.98,524.14 846.75,526.03 843.99,523.52 846.98,526.64 841.8,534.96 835.15,542.35 822.15,551.65 805.49,559.53 778.22,568.35 754.72,571.95 741.17,570.62 734.61,566.87 725.49,564.88 717.82,557.69 715.38,554.12 711.08,543.22 706.85,536.65 689.6,535.09 673.78,530.35 659.36,521.55 647.6,509.02 641.86,498.86 640.4,485.01 640.85,476.64 641.5,474.49 642.86,474 640.99,474.14 641.25,472.76 642.55,472.98 639.77,469.42 633.16,450.05 627.75,438.8 627.15,431.03 628.49,424.9 625.61,419.55 624.12,406.28 617.16,394.22 947.42,398.26" fill="none" stroke="#1e1e1e" stroke-width="1.45" stroke-linecap="round" stroke-linejoin="round"/>
<path d="M967.72,32.56L968.5,32.95L966.85,34.25L968.1,35.23L967.53,36.48L968.37,36.17L967.37,38.2L967.6,41.49L964.92,50.3L963.34,52.25L963.41,54.75L962.33,56.1L961.16,55.93L962.46,56.67L960.68,56.11L962.08,56.73L960.99,56.94L961.72,57.6L960.9,57.11L961.59,58.3L958.67,69.39L957.28,72.32L954.3,74.88L952.77,74.79L948.62,84.92L946.68,95.14L944.78,97.42L943.68,110.61L942.56,112.82L941.58,112.31L943.3,113.26L941.44,112.34L941.76,115.63L940.95,117.41L939.8,117.11L941.13,117.72L939.62,117.11L940.54,117.58L940.29,118.96L937.01,124.95L935.9,133L934.13,133.29L934.78,135.69L932.76,139.94L933.08,144.03L930.3,153.76L930.77,157.06L930.04,156.24L930.47,163.01L933.64,174.16L932.41,175.5L934.8,174.88L934.73,176.38L934.21,175.32L932.36,175.66L933.2,176.39L933.89,191.15L931.32,191.75L934.75,190.51L933.48,193.1L932.23,192.79L933.17,193.63L932.27,217.37L936.45,225.84L939.02,239.7L939.27,246.84L943.32,258.47L943.02,261.11L939.62,266.54L939.6,270.49L937.25,277.76L938.77,286.81L937.02,295.04L939.8,299.9L941.57,309.07L942.59,339.11L946.13,361.85L947.64,389.5L947.42,398.49L617.3,394.46L616.39,392.89L617.67,392.77L617.97,394.19L619.27,390.17L617.66,389.92L616.61,388.29L615.16,388.91L614.82,383.92L617.25,378.24L614.5,374.81L605.54,374.25L592.14,368.46L585.81,361.12L567.3,349.29L560.97,341.35L559.96,336.08L557.89,333.76L558.64,332.54L557.24,332.41L554.35,329.09L550.37,320.88L546.63,316.89L544.64,312.89L535.03,306.14L535.7,305.45L534.57,304.23L514.52,290.86L506.59,284.16L494.61,270.83L486.19,257.8L479.06,237.44L476.73,217.94L479.08,200.03L485.9,182.58L473.91,184.38L458.47,190.3L463.59,24.33L967.72,32.56ZM656.66,175.5L657.32,176.5L656.91,174.93L658.33,171.93L657.98,166.49L654.97,161.28L648.07,156.3L647.83,154.79L645.18,155.79L643.96,157.6L644.69,158.81L643.63,159.18L645.36,160.54L644.72,161.84L642.43,162.62L642.04,164.53L644.28,169.06L642.85,172.92L645.49,172.35L645.86,173.64L648.8,171.8L648.95,173.8L650.54,173.23L651.4,175.74L652.96,174.95L653.97,176.46L655.61,175.35L657.31,176.74L656.66,175.5Z" fill-rule="evenodd" fill="#4682b4" fill-opacity="0.471"/>
<polyline points="967.72,32.56 968.5,32.95 966.85,34.25 968.1,35.23 967.53,36.48 968.37,36.17 967.37,38.2 967.6,41.49 964.92,50.3 963.34,52.25 963.41,54.75 962.33,56.1 961.16,55.93 962.46,56.67 960.68,56.11 962.08,56.73 960.99,56.94 961.72,57.6 960.9,57.11 961.59,58.3 958.67,69.39 957.28,72.32 954.3,74.88 952.77,74.79 948.62,84.92 946.68,95.14 944.78,97.42 943.68,110.61 942.56,112.82 941.58,112.31 943.3,113.26 941.44,112.34 941.76,115.63 940.95,117.41 939.8,117.11 941.13,117.72 939.62,117.11 940.54,117.58 940.29,118.96 937.01,124.95 935.9,133 934.13,133.29 934.78,135.69 932.76,139.94 933.08,144.03 930.3,153.76 930.77,157.06 930.04,156.24 930.47,163.01 933.64,174.16 932.41,175.5 934.8,174.88 934.73,176.38 934.21,175.32 932.36,175.66 933.2,176.39 933.89,191.15 931.32,191.75 934.75,190.51 933.48,193.1 932.23,192.79 933.17,193.63 932.27,217.37 936.45,225.84 939.02,239.7 939.27,246.84 943.32,258.47 943.02,261.11 939.62,266.54 939.6,270.49 937.25,277.76 938.77,286.81 937.02,295.04 939.8,299.9 941.57,309.07 942.59,339.11 946.13,361.85 947.64,389.5 947.42,398.49 617.3,394.46 616.39,392.89 617.67,392.77 617.97,394.19 619.27,390.17 617.66,389.92 616.61,388.29 615.16,388.91 614.82,383.92 617.25,378.24 614.5,374.81 605.54,374.25 592.14,368.46 585.81,361.12 567.3,349.29 560.97,341.35 559.96,336.08 557.89,333.76 558.64,332.54 557.24,332.41 554.35,329.09 550.37,320.88 546.63,316.89 544.64,312.89 535.03,306.14 535.7,305.45 534.57,304.23 514.52,290.86 506.59,284.16 494.61,270.83 486.19,257.8 479.06,237.44 476.73,217.94 479.08,200.03 485.9,182.58 473.91,184.38 458.47,190.3 463.59,24.33 967.72,32.56" fill="none" stroke="#1e1e1e" stroke-width="1.45" stroke-linecap="round" stroke-linejoin="round"/>
<polyline points="656.66,175.5 657.32,176.5 656.91,174.93 658.33,171.93 657.98,166.49 654.97,161.28 648.07,156.3 647.83,154.79 645.18,155.79 643.96,157.6 644.69,158.81 643.63,159.18 645.36,160.54 644.72,161.84 642.43,162.62 642.04,164.53 644.28,169.06 642.85,172.92 645.49,172.35 645.86,173.64 648.8,171.8 648.95,173.8 650.54,173.23 651.4,175.74 652.96,174.95 653.97,176.46 655.61,175.35 657.31,176.74 656.66,175.5" fill="none" stroke="#1e1e1e" stroke-width="1.45" stroke-linecap="round" stroke-linejoin="round"/>
</svg>
