<?xml version="1.0" encoding="UTF-8" standalone="no"?>
<svg xmlns="http://www.w3.org/2000/svg" width="2000" height="1202" viewBox="0 0 2000 1202">
<rect width="2000" height="1202" fill="#ffffff"/>
<path d="M1878.22,10.44L1881.13,18.48L1901.12,39.04L1904.28,43.57L1906.13,48.58L1905.69,54.71L1902.54,63.68L1909.88,80.2L1911.46,90.2L1910.11,100.49L1906.06,111.21L1901.91,118.67L1859.51,122.79L1854.15,119.78L1851.44,107.56L1848.06,100.06L1841.02,96.43L1827.63,92.38L1839.13,86.86L1841.36,84.77L1841.56,79.36L1839.17,75.22L1835.44,72.7L1828.67,71.32L1819.51,67.21L1812.25,59.88L1808.03,46.87L1801.69,41.49L1791.5,37.27L1782.1,36.98L1778.16,43.12L1778.45,49.64L1772.83,60.11L1768.95,74.62L1764.97,64.57L1762.44,53.04L1760.94,41.18L1760.26,30.71L1760.66,19.19L1759.97,16.01L1878.22,10.44Z" fill-rule="evenodd" fill="#4682b4" fill-opacity="0.471"/>
<polyline points="1878.22,10.44 1881.13,18.48 1901.12,39.04 1904.28,43.57 1906.13,48.58 1905.69,54.71 1902.54,63.68 1909.88,80.2 1911.46,90.2 1910.11,100.49 1906.06,111.21 1901.91,118.67 1859.51,122.79 1854.15,119.78 1851.44,107.56 1848.06,100.06 1841.02,96.43 1827.63,92.38 1839.13,86.86 1841.36,84.77 1841.56,79.36 1839.17,75.22 1835.44,72.7 1828.67,71.32 1819.51,67.21 1812.25,59.88 1808.03,46.87 1801.69,41.49 1791.5,37.27 1782.1,36.98 1778.16,43.12 1778.45,49.64 1772.83,60.11 1768.95,74.62 1764.97,64.57 1762.44,53.04 1760.94,41.18 1760.26,30.71 1760.66,19.19 1759.97,16.01 1878.22,10.44" fill="none" stroke="#1e1e1e" stroke-width="1.45" stroke-linecap="round" stroke-linejoin="round"/>
<text x="1799.22" y="64.89" font-family="sans-serif" font-size="14" stroke="#ffffff" stroke-opacity="0.784" stroke-width="2.33" stroke-linejoin="round" paint-order="stroke" fill="#141414">Lake Pskov</text>
</svg>
