<?xml version="1.0" encoding="UTF-8" standalone="no"?>
<svg xmlns="http://www.w3.org/2000/svg" width="1555" height="2000" viewBox="0 0 1555 2000">
<rect width="1555" height="2000" fill="#ffffff"/>
<path d="M589.76,477.31L585.08,482.51L585.84,494.14L578.98,502.63L570.76,505.01L570.83,508.96L567.65,509.08L568.62,504.92L564.34,508.6L571.92,527.8L568.99,541.01L573.18,558.16L567.59,565.79L566.35,584.25L550.78,603.12L545.08,617.08L548.14,622.67L542.96,637.43L546.52,653.57L539.32,668.85L541.76,677.73L554.77,685.93L555.01,703.55L561.79,711.27L564.1,733.79L554.99,763.01L554.99,779.29L548.23,783.06L537.54,802.52L536.82,809.84L540.56,811.82L536.12,813.08L534.39,820.51L538.97,829.83L555.75,834.13L556.13,851.22L544.78,867.36L539.09,868.58L536.19,866.12L539.3,864.7L531.6,862.21L525.16,868.83L520.7,867.01L524.89,872.05L515.38,884.29L513.07,881.82L513.61,891.47L501.99,916.54L500.49,912.2L497.73,932.03L495.44,926.28L492.11,946.06L495.96,947.37L484.45,963.63L479.68,964.82L479.75,961.1L475.66,967.03L466.64,963.48L467.35,969.81L463.13,971.42L461.41,962.74L452.76,963.33L454.91,958.51L442.97,957.69L432.12,967.74L431.3,964.06L428.59,968.88L420.04,967.93L445.36,949.42L425.14,963.63L420.17,964.56L420.18,963L426.55,961.24L426.39,960.21L423.89,960.85L423.2,958.63L420.9,958.78L408.85,966.56L409.62,961.99L401.97,966.82L393.45,964.36L380.04,969.42L379.01,976.84L383.73,980.06L380.49,984.1L384.2,984.29L384.27,989.9L390.35,989.88L395.18,1016.15L394.82,1042.65L388.88,1037.95L393.89,1060.16L390.2,1060.47L390.06,1067.71L393.63,1069.96L390.16,1069.22L388.51,1102.93L384.36,1104.15L383.12,1114.34L363.66,1145.67L365.4,1141.3L362.26,1142.03L354.85,1196.15L347.72,1211.72L333.54,1215.71L326.94,1223.58L329.79,1230.31L328.54,1247.77L324.58,1247.83L324.76,1249.86L327.53,1249.33L328.48,1252.43L326.7,1263.46L323.36,1268.84L318.27,1270.89L315.5,1266.64L314.81,1271.41L311.24,1271.51L313.33,1268.78L309.82,1271.28L308.64,1273.71L308.66,1314.43L305.93,1321.1L298.85,1322.68L292.36,1356.75L284.64,1370.26L276.98,1371.29L277.3,1383.13L273.14,1381.2L273.79,1375.1L269.85,1393.52L269.87,1414.08L264.54,1431.55L257.61,1441.62L250.46,1441.85L250.3,1442.61L252.61,1444.74L223.16,1483.9L213.13,1486.83L214.54,1484.21L212.55,1486.14L209.69,1493.17L198.01,1495.03L184.42,1514.57L175.31,1555.93L170.64,1557.52L170,1554.36L170.22,1557.97L172.85,1560.86L159.2,1595.04L152.75,1651.25L141.61,1663.91L135.42,1679.32L130.28,1681.45L125.03,1706.9L118.16,1718.54L109.12,1724.75L97.37,1721.15L98.11,1731.21L108.94,1732.28L118.36,1749.47L116.96,1783.66L109.87,1811.5L102.49,1815.95L92.41,1847.46L86.65,1853.61L72.61,1855.74L54.66,1894.79L49.5,1900.89L48.22,1900.62L47.92,1898.61L20.56,1914.07L10.5,1929.95L8.19,1960.27L19.19,474.68L589.76,477.31Z" fill-rule="evenodd" fill="#4682b4" fill-opacity="0.471"/>
<polyline points="589.76,477.31 585.08,482.51 585.84,494.14 578.98,502.63 570.76,505.01 570.83,508.96 567.65,509.08 568.62,504.92 564.34,508.6 571.92,527.8 568.99,541.01 573.18,558.16 567.59,565.79 566.35,584.25 550.78,603.12 545.08,617.08 548.14,622.67 542.96,637.43 546.52,653.57 539.32,668.85 541.76,677.73 554.77,685.93 555.01,703.55 561.79,711.27 564.1,733.79 554.99,763.01 554.99,779.29 548.23,783.06 537.54,802.52 536.82,809.84 540.56,811.82 536.12,813.08 534.39,820.51 538.97,829.83 555.75,834.13 556.13,851.22 544.78,867.36 539.09,868.58 536.19,866.12 539.3,864.7 531.6,862.21 525.16,868.83 520.7,867.01 524.89,872.05 515.38,884.29 513.07,881.82 513.61,891.47 501.99,916.54 500.49,912.2 497.73,932.03 495.44,926.28 492.11,946.06 495.96,947.37 484.45,963.63 479.68,964.82 479.75,961.1 475.66,967.03 466.64,963.48 467.35,969.81 463.13,971.42 461.41,962.74 452.76,963.33 454.91,958.51 442.97,957.69 432.12,967.74 431.3,964.06 428.59,968.88 420.04,967.93 445.36,949.42 425.14,963.63 420.17,964.56 420.18,963 426.55,961.24 426.39,960.21 423.89,960.85 423.2,958.63 420.9,958.78 408.85,966.56 409.62,961.99 401.97,966.82 393.45,964.36 380.04,969.42 379.01,976.84 383.73,980.06 380.49,984.1 384.2,984.29 384.27,989.9 390.35,989.88 395.18,1016.15 394.82,1042.65 388.88,1037.95 393.89,1060.16 390.2,1060.47 390.06,1067.71 393.63,1069.96 390.16,1069.22 388.51,1102.93 384.36,1104.15 383.12,1114.34 363.66,1145.67 365.4,1141.3 362.26,1142.03 354.85,1196.15 347.72,1211.72 333.54,1215.71 326.94,1223.58 329.79,1230.31 328.54,1247.77 324.58,1247.83 324.76,1249.86 327.53,1249.33 328.48,1252.43 326.7,1263.46 323.36,1268.84 318.27,1270.89 315.5,1266.64 314.81,1271.41 311.24,1271.51 313.33,1268.78 309.82,1271.28 308.64,1273.71 308.66,1314.43 305.93,1321.1 298.85,1322.68 292.36,1356.75 284.64,1370.26 276.98,1371.29 277.3,1383.13 273.14,1381.2 273.79,1375.1 269.85,1393.52 269.87,1414.08 264.54,1431.55 257.61,1441.62 250.46,1441.85 250.3,1442.61 252.61,1444.74 223.16,1483.9 213.13,1486.83 214.54,1484.21 212.55,1486.14 209.69,1493.17 198.01,1495.03 184.42,1514.57 175.31,1555.93 170.64,1557.52 170,1554.36 170.22,1557.97 172.85,1560.86 159.2,1595.04 152.75,1651.25 141.61,1663.91 135.42,1679.32 130.28,1681.45 125.03,1706.9 118.16,1718.54 109.12,1724.75 97.37,1721.15 98.11,1731.21 108.94,1732.28 118.36,1749.47 116.96,1783.66 109.87,1811.5 102.49,1815.95 92.41,1847.46 86.65,1853.61 72.61,1855.74 54.66,1894.79 49.5,1900.89 48.22,1900.62 47.92,1898.61 20.56,1914.07 10.5,1929.95 8.19,1960.27 19.19,474.68 589.76,477.31" fill="none" stroke="#1e1e1e" stroke-width="2.24" stroke-linecap="round" stroke-linejoin="round"/>
<path d="M622.34,477.37L616.52,480.57L613.28,477.35L622.34,477.37Z" fill-rule="evenodd" fill="#4682b4" fill-opacity="0.471"/>
<polyline points="622.34,477.37 616.52,480.57 613.28,477.35 622.34,477.37" fill="none" stroke="#1e1e1e" stroke-width="2.24" stroke-linecap="round" stroke-linejoin="round"/>
<path d="M864.01,13.3L898.75,119.08L904.55,168.21L899.44,207.34L890.29,222.03L889.89,218.17L884.96,225.01L874.34,223.77L865.02,233.69L857.27,235.43L852.29,246.99L849.08,244.93L851.85,247.97L841.09,252.57L840.28,260.53L836.14,264.55L833.33,261.96L833.63,268.56L815.68,285.39L807.62,284.44L766.44,298.87L754.2,296.1L755.34,291.88L745.68,285.09L750.34,289.7L737.92,296.54L738.45,304.43L727.45,300.29L728.65,296.75L731.54,298.86L728.7,296.3L719.65,299.67L717.41,304.19L725.89,310.81L726.23,327.08L733.69,336.8L734.02,347.43L726.78,359.84L711.95,365.57L705.21,375.81L687.88,386.69L650.15,394.93L651.26,407.96L647.75,407.45L646.23,412.95L638.03,412.69L644.87,420.11L640.37,429.84L644.04,437.83L637.6,445.33L638.93,452L635.31,451.36L633.28,468.84L628.31,472.87L623.55,467.74L628.17,474.16L620.72,478.26L614.18,478.25L606.49,470.6L596.1,470.29L588.96,478.21L19.18,475.58L22.62,10.55L864.01,13.3Z" fill-rule="evenodd" fill="#4682b4" fill-opacity="0.471"/>
<polyline points="864.01,13.3 898.75,119.08 904.55,168.21 899.44,207.34 890.29,222.03 889.89,218.17 884.96,225.01 874.34,223.77 865.02,233.69 857.27,235.43 852.29,246.99 849.08,244.93 851.85,247.97 841.09,252.57 840.28,260.53 836.14,264.55 833.33,261.96 833.63,268.56 815.68,285.39 807.62,284.44 766.44,298.87 754.2,296.1 755.34,291.88 745.68,285.09 750.34,289.7 737.92,296.54 738.45,304.43 727.45,300.29 728.65,296.75 731.54,298.86 728.7,296.3 719.65,299.67 717.41,304.19 725.89,310.81 726.23,327.08 733.69,336.8 734.02,347.43 726.78,359.84 711.95,365.57 705.21,375.81 687.88,386.69 650.15,394.93 651.26,407.96 647.75,407.45 646.23,412.95 638.03,412.69 644.87,420.11 640.37,429.84 644.04,437.83 637.6,445.33 638.93,452 635.31,451.36 633.28,468.84 628.31,472.87 623.55,467.74 628.17,474.16 620.72,478.26 614.18,478.25 606.49,470.6 596.1,470.29 588.96,478.21 19.18,475.58 22.62,10.55 864.01,13.3" fill="none" stroke="#1e1e1e" stroke-width="2.24" stroke-linecap="round" stroke-linejoin="round"/>
</svg>
