<?xml version="1.0" encoding="UTF-8" standalone="no"?>
<svg xmlns="http://www.w3.org/2000/svg" width="1555" height="2000" viewBox="0 0 1555 2000">
<rect width="1555" height="2000" fill="#ffffff"/>
<path d="M315.78,1268.95L315.77,1270.16L317.77,1271.37L318.78,1270.17L322.81,1268.98L326.85,1264.17L327.92,1248.48L328.93,1247.28L328.98,1236.41L327.98,1235.2L328.99,1234L329.02,1226.76L327.02,1224.33L327.03,1223.13L330.06,1218.31L333.09,1215.91L336.1,1215.92L339.12,1214.73L340.13,1213.53L348.17,1211.15L350.21,1202.7L355.26,1196.69L355.34,1176.17L357.37,1172.56L357.39,1166.52L361.47,1150.84L366.52,1142.41L369.57,1133.98L370.57,1132.77L370.57,1133.98L371.58,1132.78L372.58,1132.78L375.61,1129.17L378.65,1120.73L380.67,1118.33L380.67,1115.91L381.68,1115.92L383.7,1111.1L386.73,1107.49L386.74,1103.86L388.75,1102.66L391.82,1085.78L391.86,1077.33L393.87,1076.13L394.91,1065.27L394.92,1062.85L388.99,1038.69L392.01,1037.49L394.99,1042.33L396.01,1038.71L395.02,1036.3L395.06,1024.23L394.1,1013.36L391.11,1008.52L392.12,1007.31L392.11,1008.52L393.12,1007.32L393.15,998.87L391.18,990.41L390.18,989.2L385.18,986.77L383.19,984.35L380.18,984.33L381.19,981.92L384.2,980.73L383.21,978.31L381.2,978.3L381.21,977.1L380.21,977.09L381.22,973.47L381.25,967.44L384.25,967.45L390.27,965.06L401.29,966.31L404.3,965.11L410.31,966.34L411.32,962.72L416.34,959.12L423.35,959.14L424.34,963.97L420.33,965.17L420.32,967.58L423.32,968.8L428.33,968.82L429.35,965.2L431.35,964L432.34,967.62L436.36,965.22L436.37,961.6L438.37,962.81L443.39,960.42L443.4,958L454.42,958.04L454.4,962.87L457.4,965.29L458.41,962.88L461.41,962.89L465.39,971.35L466.4,970.14L469.41,968.95L468.43,962.91L473.44,962.92L475.43,966.55L483.45,964.16L490.48,956.94L495.52,947.29L492.52,946.08L495.56,932.81L497.57,931.61L498.58,927.99L496.58,926.78L497.58,925.57L498.6,918.33L500.62,914.72L503.62,914.72L503.64,908.69L505.65,902.66L510.67,897.84L511.69,893.02L513.7,890.61L512.7,888.19L514.71,885.78L513.71,884.57L515.72,882.16L518.73,880.96L522.74,876.14L524.76,871.32L524.76,870.11L523.76,870.11L526.77,867.7L527.77,865.29L531.78,865.3L540.78,868.94L548.79,864.13L550.8,861.72L552.82,855.69L555.83,850.87L557.85,841.22L555.86,835.18L553.87,832.76L547.86,832.75L543.87,829.12L540.87,830.32L535.87,827.89L534.89,817.02L535.91,812.2L538.91,811L536.91,808.58L537.93,802.55L541.94,797.73L541.95,795.31L543.95,791.7L547.96,788.08L546.97,784.46L547.97,783.26L550.98,782.05L551.98,779.64L554.98,779.65L555.01,765.16L556.03,759.13L557.03,759.13L562.05,747.07L561.05,747.07L562.06,744.66L563.06,744.66L562.06,742.24L562.07,737.42L563.08,732.59L564.08,732.59L564.08,731.38L562.09,728.97L564.09,726.56L564.1,724.14L563.11,718.1L562.11,718.1L563.12,715.69L562.12,714.48L561.13,708.44L557.14,707.23L556.14,704.81L557.15,702.4L555.16,699.98L556.16,697.57L555.17,692.74L553.18,690.32L555.19,685.49L541.22,678.22L539.23,670.97L539.24,667.35L544.25,660.12L544.26,657.71L546.27,654.09L544.28,648.05L543.31,635.98L545.31,634.77L544.32,632.36L545.33,627.53L548.33,622.71L546.34,621.5L545.35,616.67L549.36,609.43L549.37,607.02L551.37,602.19L555.38,597.37L561.37,594.97L563.38,587.73L567.39,582.91L568.42,563.6L571.42,562.4L571.43,559.99L573.43,557.58L573.44,551.54L570.45,546.71L571.46,543.09L569.46,543.08L571.49,527.39L568.51,520.14L566.52,520.14L565.53,516.52L568.53,512.9L567.54,510.48L566.54,510.48L570.53,509.28L571.53,505.66L578.52,502.06L582.53,494.82L585.52,493.62L583.53,491.2L585.53,486.38L585.54,482.76L587.54,479.14L589.54,479.14L592.54,471.9L599.53,469.5L606.5,470.72L610.49,473.14L614.46,480.39L617.46,480.4L622.44,479.2L626.43,476.79L633.43,468.35L636.43,458.7L635.44,455.07L639.43,450.25L638.44,445.42L641.44,444.22L643.43,440.6L643.44,436.98L641.45,434.56L641.45,429.73L642.45,429.73L642.46,426.11L644.46,420.08L642.47,417.66L641.48,414.04L638.49,412.83L642.47,412.83L643.47,414.04L647.46,412.84L647.46,406.8L648.46,406.8L648.46,408.01L650.45,408.01L649.46,406.8L649.47,395.94L650.47,394.73L651.46,394.74L654.46,392.32L659.44,391.12L661.43,391.13L663.42,392.34L668.41,389.93L673.39,388.72L680.36,388.73L683.35,386.32L688.34,386.32L690.33,383.91L695.31,380.29L698.3,380.3L700.3,377.88L703.29,376.68L704.28,374.27L707.27,373.06L715.25,364.61L722.22,361L726.21,359.79L726.21,358.59L730.19,354.97L731.19,352.55L729.2,351.34L730.19,350.14L730.19,351.34L731.19,350.14L731.19,351.34L732.19,351.35L734.18,347.72L733.19,335.65L730.2,333.24L729.21,333.24L727.22,329.61L725.23,329.61L725.23,319.96L727.23,312.71L726.23,310.3L723.25,307.88L720.26,307.88L720.26,305.47L718.27,304.26L723.25,299.43L723.25,298.23L726.24,297.02L727.23,300.64L732.21,303.06L738.18,304.27L741.17,303.06L738.18,297.02L742.17,292.2L746.15,294.61L750.13,289.79L746.15,284.96L752.12,290.99L753.11,295.82L756.1,295.82L759.09,298.24L766.05,299.45L772.03,298.24L780.98,292.2L781.98,293.41L789.94,291L793.92,291L809.85,283.75L813.83,286.16L824.77,277.71L831.73,269.25L833.72,268.04L835.71,264.42L840.68,259.59L842.67,255.97L845.65,253.55L846.65,249.93L851.62,247.51L855.59,240.26L856.59,236.64L860.56,234.22L865.54,234.22L867.52,230.6L873.49,224.56L877.46,223.35L886.42,224.54L892.38,219.71L895.36,216.08L899.33,207.63L903.28,183.48L904.27,181.06L904.24,156.92L899.23,127.95L899.22,119.5L897.23,113.47L895.24,112.26L888.25,83.3L890.24,83.3L888.24,72.43L889.23,71.22L893.2,70.01L892.21,66.39L894.19,63.98L899.16,65.18L902.13,62.76L903.13,66.38L901.15,68.8L902.15,72.42L909.1,72.41L914.06,71.19L915.05,69.99L919.03,69.98L918.04,73.6L921.02,73.6L923.01,76.01L931.96,82.03L935.93,82.03L936.93,85.65L939.91,88.06L945.87,86.84L947.86,89.25L957.79,88.03L963.76,90.43L965.73,85.6L970.7,84.38L973.67,80.76L982.62,84.36L985.6,86.77L984.62,90.39L987.6,90.39L989.57,83.14L993.55,86.75L997.52,85.54L1000.51,89.15L1008.45,85.51L1008.44,80.68L1010.42,80.68L1012.42,83.09L1014.4,80.67L1020.36,84.28L1025.33,83.06L1027.31,79.43L1033.25,73.38L1038.22,73.37L1039.22,75.78L1042.2,76.98L1046.17,76.97L1052.15,82.99L1053.14,81.78L1058.1,80.56L1060.1,84.17L1070.03,84.15L1073.01,82.93L1076,86.54L1081.96,88.94L1085.94,88.93L1087.91,84.09L1092.87,81.66L1097.83,80.44L1099.81,78.02L1106.77,80.41L1110.74,79.19L1115.71,80.38L1121.69,86.4L1129.64,86.37L1133.62,89.98L1134.62,92.39L1137.6,92.38L1136.6,88.76L1139.57,87.55L1147.53,91.14L1148.52,88.72L1146.52,85.11L1148.5,83.89L1151.49,85.09L1153.45,80.25L1156.44,82.65L1160.42,83.85L1166.38,83.82L1169.37,87.44L1173.35,87.42L1175.35,91.03L1178.32,89.81L1181.29,87.39L1185.27,87.37L1186.27,89.78L1190.24,88.56L1192.21,84.93L1195.19,83.71L1198.18,87.32L1202.14,82.48L1207.1,81.25L1208.07,76.41L1211.04,73.99L1214.98,65.52L1214.95,59.48L1217.92,57.06L1212.9,45.01L1212.89,41.38L1215.85,37.75L1217.79,28.08L1219.77,26.87L1220.75,23.24L1226.7,22.01L1227.68,19.59L1229.66,18.37L1229.65,15.96L1231.63,14.74L1238.59,15.92L1239.57,13.5L1249.49,12.25L1250.5,15.86L1253.47,14.64L1259.46,21.86L1263.43,20.63L1265.42,23.04L1264.45,26.66L1264.48,33.91L1259.53,37.55L1261.55,43.58L1259.57,46L1260.59,50.83L1264.58,54.43L1264.59,56.84L1270.59,65.27L1273.58,67.67L1275.59,71.28L1280.56,72.46L1283.55,76.07L1287.54,78.46L1290.54,82.07L1296.5,83.25L1300.49,85.64L1308.43,84.39L1313.4,85.57L1326.35,91.54L1338.28,92.68L1344.23,91.44L1366.01,79.25L1369,80.44L1369.07,92.51L1366.17,107.01L1363.31,127.55L1360.35,131.19L1358.37,132.41L1349.41,130.05L1347.42,128.85L1344.42,125.24L1338.39,114.41L1333.41,110.82L1324.45,107.25L1319.48,108.48L1318.55,119.35L1315.61,126.61L1315.67,138.68L1312.7,141.11L1309.74,145.95L1311.78,154.39L1314.78,159.21L1312.86,171.29L1307.93,178.56L1299,182.23L1294.05,187.08L1285.12,190.75L1266.28,202.91L1260.32,204.15L1252.39,210.22L1249.44,217.48L1251.48,228.33L1256.5,237.97L1265.49,245.17L1271.46,245.14L1290.31,234.18L1299.28,238.96L1312.24,242.52L1318.21,242.49L1323.17,240.05L1332.14,243.62L1335.12,243.6L1352,236.27L1355.98,237.45L1357.03,245.9L1356.07,253.14L1359.13,266.41L1369.09,267.56L1370.09,268.76L1370.14,277.21L1374.18,286.84L1376.18,289.24L1378.17,288.03L1382.17,291.62L1384.15,290.41L1390.13,291.58L1393.13,293.97L1398.12,295.15L1406.13,303.55L1408.13,304.75L1412.12,305.93L1415.09,303.5L1418.08,304.68L1424.09,310.68L1422.14,316.73L1424.15,319.13L1423.17,321.55L1426.15,321.53L1428.12,317.9L1430.11,316.68L1436.13,325.09L1439.12,325.07L1439.07,317.83L1442.06,317.81L1445.1,326.24L1447.1,327.44L1458.07,329.78L1461.07,332.17L1467.1,339.37L1468.13,345.4L1467.23,359.9L1451.42,378.11L1442.53,390.24L1443.57,397.48L1449.62,407.09L1457.75,431.18L1459.76,434.79L1465.76,437.17L1468.78,440.77L1469.87,455.25L1472.89,460.05L1477.9,462.43L1483.88,462.39L1488.89,465.98L1502.84,464.68L1505.84,465.86L1508.85,468.25L1511.87,473.06L1513.93,481.5L1511,491.18L1503.08,498.48L1492.19,510.62L1493.3,526.31L1498.4,541.97L1503.58,569.69L1506.59,572.09L1512.58,572.04L1525.68,588.85L1536.74,599.63L1534.78,604.48L1531.8,606.91L1523.83,609.39L1517.84,609.43L1512.89,615.5L1509.9,615.52L1506.92,617.96L1498.13,646.99L1496.15,649.42L1487.2,654.31L1485.22,656.74L1482.34,674.87L1479.39,680.92L1476.41,683.36L1462.44,685.86L1457.46,688.31L1451.5,694.39L1446.57,704.08L1443.59,707.72L1437.63,712.58L1429.66,717.46L1423.7,723.54L1420.77,733.21L1421.92,758.56L1416.99,769.45L1414,770.68L1410.99,769.49L1408,770.71L1406.03,775.55L1397.04,776.82L1392.07,782.88L1389.09,785.31L1381.11,788.98L1367.1,787.86L1361.08,784.27L1359.06,780.66L1353.03,775.86L1348.02,774.69L1342.03,775.93L1334.07,784.42L1328.09,786.87L1320.08,785.7L1317.09,788.13L1318.15,800.2L1316.18,806.24L1311.18,806.27L1305.2,809.92L1302.24,818.39L1294.29,829.29L1283.33,837.8L1263.38,851.17L1247.45,869.35L1241.46,874.21L1238.49,881.46L1221.58,905.68L1219.61,912.93L1205.69,937.13L1196.71,946.83L1195.75,955.28L1197.77,958.89L1214.83,967.27L1222.87,973.27L1227.91,979.29L1233.96,988.92L1239,993.72L1242.01,994.92L1248.02,994.89L1256.03,993.65L1262.03,991.2L1272.06,991.16L1281.09,994.73L1286.16,1006.78L1297.22,1012.76L1303.26,1017.56L1305.29,1023.58L1304.36,1036.87L1310.43,1047.7L1307.44,1051.34L1301.44,1053.78L1297.43,1053.8L1286.37,1049.03L1274.36,1053.92L1270.35,1052.73L1266.34,1053.95L1259.31,1051.57L1253.29,1051.6L1248.27,1049.21L1237.24,1049.26L1229.2,1044.47L1223.16,1039.66L1215.12,1036.08L1212.12,1036.09L1204.11,1039.74L1202.11,1039.75L1199.09,1037.35L1188.01,1024.12L1181.98,1021.73L1176.97,1021.75L1173.97,1022.97L1170.96,1022.98L1165.93,1019.37L1159.91,1016.98L1151.92,1025.46L1148.95,1036.34L1134.93,1038.8L1129.94,1046.06L1121.92,1046.09L1115.91,1049.73L1112.91,1049.74L1096.85,1046.17L1087.82,1042.57L1077.74,1025.7L1071.71,1022.1L1068.71,1022.11L1060.71,1029.37L1054.72,1039.05L1049.72,1042.68L1041.69,1042.7L1030.67,1043.94L1027.66,1045.15L1024.66,1047.57L1019.67,1057.24L1016.67,1060.87L1008.66,1064.51L1002.64,1065.73L999.63,1064.53L994.6,1058.51L988.58,1056.1L983.57,1057.32L977.57,1065.78L969.59,1088.73L958.59,1108.07L955.59,1111.69L950.59,1122.57L947.58,1124.99L939.55,1123.79L933.53,1123.8L927.52,1129.84L922.52,1139.51L916.5,1145.55L906.5,1169.71L901.49,1175.75L884.43,1187.84L881.42,1192.67L882.44,1209.57L885.47,1219.22L879.46,1234.92L877.45,1236.13L873.43,1234.93L852.35,1255.47L847.33,1265.13L848.35,1275.99L851.36,1279.61L859.41,1285.64L864.43,1286.84L870.46,1285.63L878.5,1282L886.54,1280.79L885.54,1285.62L886.55,1294.06L895.61,1303.71L897.62,1307.33L902.65,1309.74L908.68,1306.11L912.7,1308.52L925.77,1309.71L928.79,1310.91L932.82,1314.53L936.85,1321.76L939.88,1333.83L944.92,1338.65L948.94,1339.85L948.95,1343.47L953.98,1345.88L963.03,1345.86L968.05,1342.23L975.1,1345.84L973.11,1356.71L962.07,1368.8L948.02,1388.14L942.99,1392.97L928.91,1395.41L909.81,1406.3L904.78,1406.31L892.7,1401.49L887.67,1400.29L884.65,1401.5L879.63,1406.34L865.54,1411.18L854.48,1418.43L852.47,1426.88L855.5,1432.91L866.58,1444.98L868.6,1452.22L866.6,1466.7L856.54,1483.61L844.47,1495.69L820.31,1515.02L801.17,1535.55L795.13,1537.96L784.05,1544L766.92,1550.04L764.91,1552.45L745.76,1562.1L739.71,1566.93L736.69,1570.55L731.64,1586.24L728.61,1607.97L723.56,1620.04L714.48,1623.65L706.41,1632.1L685.22,1650.19L663.02,1658.62L658.99,1656.2L654.95,1661.02L650.91,1662.22L643.86,1658.59L639.82,1657.38L636.8,1657.38L629.73,1659.78L626.71,1662.19L623.67,1668.22L621.63,1680.29L618.6,1687.53L612.53,1693.56L596.38,1700.77L589.3,1708L573.13,1720.04L572.12,1722.46L569.09,1723.66L553.96,1717.59L532.75,1725.99L530.72,1729.61L533.74,1735.65L532.72,1739.27L534.73,1741.69L531.69,1746.51L530.67,1750.13L534.71,1750.14L533.69,1753.76L536.71,1757.39L531.66,1761L527.62,1759.78L522.59,1754.94L510.48,1750.08L504.45,1741.62L495.38,1734.35L494.38,1731.93L495.41,1725.9L495.43,1716.24L490.4,1711.4L487.38,1708.98L482.34,1707.75L478.31,1705.33L475.27,1707.73L473.24,1712.56L473.23,1714.97L475.23,1723.43L470.16,1730.66L470.15,1734.28L467.11,1736.68L466.08,1743.92L461.02,1747.53L455.97,1748.72L456.97,1752.35L455.95,1757.17L457.95,1760.8L456.92,1768.04L449.84,1772.85L446.8,1776.46L446.79,1780.08L448.79,1784.91L446.76,1787.32L446.71,1803.02L451.73,1815.1L451.72,1818.72L444.54,1851.3L439.43,1868.18L436.35,1883.86L437.34,1888.7L441.37,1893.54L442.37,1898.37L441.35,1900.78L436.28,1903.18L434.25,1905.59L429.17,1915.23L415.01,1915.18L411.97,1917.58L411.88,1941.73L412.88,1946.56L386.6,1942.84L371.43,1942.79L354.22,1945.13L354.22,1946.34L344.03,1964.41L342.99,1970.44L338.92,1976.46L334.88,1975.23L302.47,1981.13L289.33,1979.86L285.24,1988.29L266.03,1985.78L263,1984.56L260.97,1985.76L254.92,1982.1L250.9,1976.05L245.86,1972.4L241.84,1966.34L240.85,1962.72L232.79,1956.64L227.78,1948.16L230.85,1940.93L230.87,1937.31L224.85,1927.62L215.72,1932.4L207.63,1933.57L206.65,1927.52L201.61,1923.88L199.59,1923.86L193.5,1927.45L191.47,1929.85L186.4,1932.24L177.29,1933.4L161.07,1939.34L157.03,1938.11L150.96,1939.28L143.86,1942.86L137.8,1941.61L133.77,1937.96L131.77,1934.33L124.69,1934.29L121.67,1933.06L117.62,1933.03L114.57,1935.43L113.54,1939.04L114.53,1942.67L112.48,1946.28L107.41,1948.66L102.34,1949.84L98.3,1949.81L95.29,1946.17L91.25,1944.94L83.19,1940.05L78.13,1940.02L75.07,1943.62L64.94,1945.97L60.87,1949.56L60.92,1942.32L55.86,1943.49L49.8,1942.24L39.67,1943.38L30.59,1940.9L20.47,1942.03L12.39,1939.56L8.35,1939.53L10.44,1929.88L14.54,1922.67L20.67,1914.26L27.76,1911.9L28.78,1910.7L34.87,1908.33L37.92,1905.94L39.97,1902.33L50.09,1899.99L50.1,1898.78L53.16,1895.18L55.19,1893.99L61.36,1879.54L63.38,1878.35L64.45,1871.11L66.5,1866.3L68.53,1865.1L71.59,1860.3L71.61,1857.88L73.66,1854.27L77.69,1855.51L82.74,1855.54L86.8,1853.16L91.89,1847.15L94.97,1839.93L95.98,1839.94L95.99,1838.73L98.02,1837.54L99.08,1830.3L101.12,1826.69L102.2,1815.83L110.31,1811.06L116.55,1783.33L117.62,1773.68L118.65,1771.27L118.75,1755.58L117.79,1747.12L116.82,1741.08L108.8,1732.58L105.79,1730.14L98.72,1730.1L98.78,1721.65L106.84,1724.11L109.86,1724.13L114.93,1721.75L122.04,1713.35L125.11,1707.33L125.15,1700.09L129.26,1689.25L130.32,1680.8L135.37,1679.63L136.4,1676.01L138.43,1674.82L140.47,1671.21L141.51,1665.18L143.54,1663.99L146.59,1659.18L148.62,1657.98L149.65,1654.36L152.69,1651.97L151.75,1641.1L153.8,1635.08L153.83,1630.25L155.87,1626.64L154.9,1619.39L159.01,1607.34L159.03,1603.72L158.04,1601.3L160.1,1592.86L163.15,1588.05L162.17,1584.42L164.24,1574.78L170.34,1566.36L169.34,1565.15L172.37,1562.75L173.41,1557.93L175.43,1556.74L174.45,1553.11L176.53,1541.05L180.61,1532.62L182.67,1525.39L182.69,1521.77L184.71,1520.57L194.9,1500.11L197.94,1495.3L200.97,1495.32L204,1492.92L207.01,1494.14L210.04,1492.95L213.09,1488.14L216.12,1485.74L223.19,1483.37L226.24,1476.14L229.27,1474.95L232.31,1471.34L234.35,1466.52L239.42,1460.52L244.47,1456.92L243.47,1454.5L245.5,1450.89L252.58,1444.89L250.58,1442.47L253.59,1443.69L253.6,1442.48L257.63,1441.29L264.73,1431.67L268.81,1419.62L270.88,1407.56L269.88,1406.35L269.94,1394.28L270.97,1390.66L274.01,1385.85L274.02,1383.43L277.04,1383.45L278.07,1378.62L276.07,1376.2L279.1,1372.59L284.14,1371.41L293.27,1354.55L294.3,1349.73L293.3,1348.52L296.34,1343.7L297.36,1338.88L298.4,1331.64L298.44,1323.19L305.49,1320.81L307.51,1318.4L309.56,1311.17L309.64,1291.86L310.69,1283.41L308.72,1273.74L309.74,1271.34L314.76,1271.36L315.78,1268.95Z" fill-rule="evenodd" fill="#4682b4" fill-opacity="0.471"/>
<polyline points="315.78,1268.95 315.77,1270.16 317.77,1271.37 318.78,1270.17 322.81,1268.98 326.85,1264.17 327.92,1248.48 328.93,1247.28 328.98,1236.41 327.98,1235.2 328.99,1234 329.02,1226.76 327.02,1224.33 327.03,1223.13 330.06,1218.31 333.09,1215.91 336.1,1215.92 339.12,1214.73 340.13,1213.53 348.17,1211.15 350.21,1202.7 355.26,1196.69 355.34,1176.17 357.37,1172.56 357.39,1166.52 361.47,1150.84 366.52,1142.41 369.57,1133.98 370.57,1132.77 370.57,1133.98 371.58,1132.78 372.58,1132.78 375.61,1129.17 378.65,1120.73 380.67,1118.33 380.67,1115.91 381.68,1115.92 383.7,1111.1 386.73,1107.49 386.74,1103.86 388.75,1102.66 391.82,1085.78 391.86,1077.33 393.87,1076.13 394.91,1065.27 394.92,1062.85 388.99,1038.69 392.01,1037.49 394.99,1042.33 396.01,1038.71 395.02,1036.3 395.06,1024.23 394.1,1013.36 391.11,1008.52 392.12,1007.31 392.11,1008.52 393.12,1007.32 393.15,998.87 391.18,990.41 390.18,989.2 385.18,986.77 383.19,984.35 380.18,984.33 381.19,981.92 384.2,980.73 383.21,978.31 381.2,978.3 381.21,977.1 380.21,977.09 381.22,973.47 381.25,967.44 384.25,967.45 390.27,965.06 401.29,966.31 404.3,965.11 410.31,966.34 411.32,962.72 416.34,959.12 423.35,959.14 424.34,963.97 420.33,965.17 420.32,967.58 423.32,968.8 428.33,968.82 429.35,965.2 431.35,964 432.34,967.62 436.36,965.22 436.37,961.6 438.37,962.81 443.39,960.42 443.4,958 454.42,958.04 454.4,962.87 457.4,965.29 458.41,962.88 461.41,962.89 465.39,971.35 466.4,970.14 469.41,968.95 468.43,962.91 473.44,962.92 475.43,966.55 483.45,964.16 490.48,956.94 495.52,947.29 492.52,946.08 495.56,932.81 497.57,931.61 498.58,927.99 496.58,926.78 497.58,925.57 498.6,918.33 500.62,914.72 503.62,914.72 503.64,908.69 505.65,902.66 510.67,897.84 511.69,893.02 513.7,890.61 512.7,888.19 514.71,885.78 513.71,884.57 515.72,882.16 518.73,880.96 522.74,876.14 524.76,871.32 524.76,870.11 523.76,870.11 526.77,867.7 527.77,865.29 531.78,865.3 540.78,868.94 548.79,864.13 550.8,861.72 552.82,855.69 555.83,850.87 557.85,841.22 555.86,835.18 553.87,832.76 547.86,832.75 543.87,829.12 540.87,830.32 535.87,827.89 534.89,817.02 535.91,812.2 538.91,811 536.91,808.58 537.93,802.55 541.94,797.73 541.95,795.31 543.95,791.7 547.96,788.08 546.97,784.46 547.97,783.26 550.98,782.05 551.98,779.64 554.98,779.65 555.01,765.16 556.03,759.13 557.03,759.13 562.05,747.07 561.05,747.07 562.06,744.66 563.06,744.66 562.06,742.24 562.07,737.42 563.08,732.59 564.08,732.59 564.08,731.38 562.09,728.97 564.09,726.56 564.1,724.14 563.11,718.1 562.11,718.1 563.12,715.69 562.12,714.48 561.13,708.44 557.14,707.23 556.14,704.81 557.15,702.4 555.16,699.98 556.16,697.57 555.17,692.74 553.18,690.32 555.19,685.49 541.22,678.22 539.23,670.97 539.24,667.35 544.25,660.12 544.26,657.71 546.27,654.09 544.28,648.05 543.31,635.98 545.31,634.77 544.32,632.36 545.33,627.53 548.33,622.71 546.34,621.5 545.35,616.67 549.36,609.43 549.37,607.02 551.37,602.19 555.38,597.37 561.37,594.97 563.38,587.73 567.39,582.91 568.42,563.6 571.42,562.4 571.43,559.99 573.43,557.58 573.44,551.54 570.45,546.71 571.46,543.09 569.46,543.08 571.49,527.39 568.51,520.14 566.52,520.14 565.53,516.52 568.53,512.9 567.54,510.48 566.54,510.48 570.53,509.28 571.53,505.66 578.52,502.06 582.53,494.82 585.52,493.62 583.53,491.2 585.53,486.38 585.54,482.76 587.54,479.14 589.54,479.14 592.54,471.9 599.53,469.5 606.5,470.72 610.49,473.14 614.46,480.39 617.46,480.4 622.44,479.2 626.43,476.79 633.43,468.35 636.43,458.7 635.44,455.07 639.43,450.25 638.44,445.42 641.44,444.22 643.43,440.6 643.44,436.98 641.45,434.56 641.45,429.73 642.45,429.73 642.46,426.11 644.46,420.08 642.47,417.66 641.48,414.04 638.49,412.83 642.47,412.83 643.47,414.04 647.46,412.84 647.46,406.8 648.46,406.8 648.46,408.01 650.45,408.01 649.46,406.8 649.47,395.94 650.47,394.73 651.46,394.74 654.46,392.32 659.44,391.12 661.43,391.13 663.42,392.34 668.41,389.93 673.39,388.72 680.36,388.73 683.35,386.32 688.34,386.32 690.33,383.91 695.31,380.29 698.3,380.3 700.3,377.88 703.29,376.68 704.28,374.27 707.27,373.06 715.25,364.61 722.22,361 726.21,359.79 726.21,358.59 730.19,354.97 731.19,352.55 729.2,351.34 730.19,350.14 730.19,351.34 731.19,350.14 731.19,351.34 732.19,351.35 734.18,347.72 733.19,335.65 730.2,333.24 729.21,333.24 727.22,329.61 725.23,329.61 725.23,319.96 727.23,312.71 726.23,310.3 723.25,307.88 720.26,307.88 720.26,305.47 718.27,304.26 723.25,299.43 723.25,298.23 726.24,297.02 727.23,300.64 732.21,303.06 738.18,304.27 741.17,303.06 738.18,297.02 742.17,292.2 746.15,294.61 750.13,289.79 746.15,284.96 752.12,290.99 753.11,295.82 756.1,295.82 759.09,298.24 766.05,299.45 772.03,298.24 780.98,292.2 781.98,293.41 789.94,291 793.92,291 809.85,283.75 813.83,286.16 824.77,277.71 831.73,269.25 833.72,268.04 835.71,264.42 840.68,259.59 842.67,255.97 845.65,253.55 846.65,249.93 851.62,247.51 855.59,240.26 856.59,236.64 860.56,234.22 865.54,234.22 867.52,230.6 873.49,224.56 877.46,223.35 886.42,224.54 892.38,219.71 895.36,216.08 899.33,207.63 903.28,183.48 904.27,181.06 904.24,156.92 899.23,127.95 899.22,119.5 897.23,113.47 895.24,112.26 888.25,83.3 890.24,83.3 888.24,72.43 889.23,71.22 893.2,70.01 892.21,66.39 894.19,63.98 899.16,65.18 902.13,62.76 903.13,66.38 901.15,68.8 902.15,72.42 909.1,72.41 914.06,71.19 915.05,69.99 919.03,69.98 918.04,73.6 921.02,73.6 923.01,76.01 931.96,82.03 935.93,82.03 936.93,85.65 939.91,88.06 945.87,86.84 947.86,89.25 957.79,88.03 963.76,90.43 965.73,85.6 970.7,84.38 973.67,80.76 982.62,84.36 985.6,86.77 984.62,90.39 987.6,90.39 989.57,83.14 993.55,86.75 997.52,85.54 1000.51,89.15 1008.45,85.51 1008.44,80.68 1010.42,80.68 1012.42,83.09 1014.4,80.67 1020.36,84.28 1025.33,83.06 1027.31,79.43 1033.25,73.38 1038.22,73.37 1039.22,75.78 1042.2,76.98 1046.17,76.97 1052.15,82.99 1053.14,81.78 1058.1,80.56 1060.1,84.17 1070.03,84.15 1073.01,82.93 1076,86.54 1081.96,88.94 1085.94,88.93 1087.91,84.09 1092.87,81.66 1097.83,80.44 1099.81,78.02 1106.77,80.41 1110.74,79.19 1115.71,80.38 1121.69,86.4 1129.64,86.37 1133.62,89.98 1134.62,92.39 1137.6,92.38 1136.6,88.76 1139.57,87.55 1147.53,91.14 1148.52,88.72 1146.52,85.11 1148.5,83.89 1151.49,85.09 1153.45,80.25 1156.44,82.65 1160.42,83.85 1166.38,83.82 1169.37,87.44 1173.35,87.42 1175.35,91.03 1178.32,89.81 1181.29,87.39 1185.27,87.37 1186.27,89.78 1190.24,88.56 1192.21,84.93 1195.19,83.71 1198.18,87.32 1202.14,82.48 1207.1,81.25 1208.07,76.41 1211.04,73.99 1214.98,65.52 1214.95,59.48 1217.92,57.06 1212.9,45.01 1212.89,41.38 1215.85,37.75 1217.79,28.08 1219.77,26.87 1220.75,23.24 1226.7,22.01 1227.68,19.59 1229.66,18.37 1229.65,15.96 1231.63,14.74 1238.59,15.92 1239.57,13.5 1249.49,12.25 1250.5,15.86 1253.47,14.64 1259.46,21.86 1263.43,20.63 1265.42,23.04 1264.45,26.66 1264.48,33.91 1259.53,37.55 1261.55,43.58 1259.57,46 1260.59,50.83 1264.58,54.43 1264.59,56.84 1270.59,65.27 1273.58,67.67 1275.59,71.28 1280.56,72.46 1283.55,76.07 1287.54,78.46 1290.54,82.07 1296.5,83.25 1300.49,85.64 1308.43,84.39 1313.4,85.57 1326.35,91.54 1338.28,92.68 1344.23,91.44 1366.01,79.25 1369,80.44 1369.07,92.51 1366.17,107.01 1363.31,127.55 1360.35,131.19 1358.37,132.41 1349.41,130.05 1347.42,128.85 1344.42,125.24 1338.39,114.41 1333.41,110.82 1324.45,107.25 1319.48,108.48 1318.55,119.35 1315.61,126.61 1315.67,138.68 1312.7,141.11 1309.74,145.95 1311.78,154.39 1314.78,159.21 1312.86,171.29 1307.93,178.56 1299,182.23 1294.05,187.08 1285.12,190.75 1266.28,202.91 1260.32,204.15 1252.39,210.22 1249.44,217.48 1251.48,228.33 1256.5,237.97 1265.49,245.17 1271.46,245.14 1290.31,234.18 1299.28,238.96 1312.24,242.52 1318.21,242.49 1323.17,240.05 1332.14,243.62 1335.12,243.6 1352,236.27 1355.98,237.45 1357.03,245.9 1356.07,253.14 1359.13,266.41 1369.09,267.56 1370.09,268.76 1370.14,277.21 1374.18,286.84 1376.18,289.24 1378.17,288.03 1382.17,291.62 1384.15,290.41 1390.13,291.58 1393.13,293.97 1398.12,295.15 1406.13,303.55 1408.13,304.75 1412.12,305.93 1415.09,303.5 1418.08,304.68 1424.09,310.68 1422.14,316.73 1424.15,319.13 1423.17,321.55 1426.15,321.53 1428.12,317.9 1430.11,316.68 1436.13,325.09 1439.12,325.07 1439.07,317.83 1442.06,317.81 1445.1,326.24 1447.1,327.44 1458.07,329.78 1461.07,332.17 1467.1,339.37 1468.13,345.4 1467.23,359.9 1451.42,378.11 1442.53,390.24 1443.57,397.48 1449.62,407.09 1457.75,431.18 1459.76,434.79 1465.76,437.17 1468.78,440.77 1469.87,455.25 1472.89,460.05 1477.9,462.43 1483.88,462.39 1488.89,465.98 1502.84,464.68 1505.84,465.86 1508.85,468.25 1511.87,473.06 1513.93,481.5 1511,491.18 1503.08,498.48 1492.19,510.62 1493.3,526.31 1498.4,541.97 1503.58,569.69 1506.59,572.09 1512.58,572.04 1525.68,588.85 1536.74,599.63 1534.78,604.48 1531.8,606.91 1523.83,609.39 1517.84,609.43 1512.89,615.5 1509.9,615.52 1506.92,617.96 1498.13,646.99 1496.15,649.42 1487.2,654.31 1485.22,656.74 1482.34,674.87 1479.39,680.92 1476.41,683.36 1462.44,685.86 1457.46,688.31 1451.5,694.39 1446.57,704.08 1443.59,707.72 1437.63,712.58 1429.66,717.46 1423.7,723.54 1420.77,733.21 1421.92,758.56 1416.99,769.45 1414,770.68 1410.99,769.49 1408,770.71 1406.03,775.55 1397.04,776.82 1392.07,782.88 1389.09,785.31 1381.11,788.98 1367.1,787.86 1361.08,784.27 1359.06,780.66 1353.03,775.86 1348.02,774.69 1342.03,775.93 1334.07,784.42 1328.09,786.87 1320.08,785.7 1317.09,788.13 1318.15,800.2 1316.18,806.24 1311.18,806.27 1305.2,809.92 1302.24,818.39 1294.29,829.29 1283.33,837.8 1263.38,851.17 1247.45,869.35 1241.46,874.21 1238.49,881.46 1221.58,905.68 1219.61,912.93 1205.69,937.13 1196.71,946.83 1195.75,955.28 1197.77,958.89 1214.83,967.27 1222.87,973.27 1227.91,979.29 1233.96,988.92 1239,993.72 1242.01,994.92 1248.02,994.89 1256.03,993.65 1262.03,991.2 1272.06,991.16 1281.09,994.73 1286.16,1006.78 1297.22,1012.76 1303.26,1017.56 1305.29,1023.58 1304.36,1036.87 1310.43,1047.7 1307.44,1051.34 1301.44,1053.78 1297.43,1053.8 1286.37,1049.03 1274.36,1053.92 1270.35,1052.73 1266.34,1053.95 1259.31,1051.57 1253.29,1051.6 1248.27,1049.21 1237.24,1049.26 1229.2,1044.47 1223.16,1039.66 1215.12,1036.08 1212.12,1036.09 1204.11,1039.74 1202.11,1039.75 1199.09,1037.35 1188.01,1024.12 1181.98,1021.73 1176.97,1021.75 1173.97,1022.97 1170.96,1022.98 1165.93,1019.37 1159.91,1016.98 1151.92,1025.46 1148.95,1036.34 1134.93,1038.8 1129.94,1046.06 1121.92,1046.09 1115.91,1049.73 1112.91,1049.74 1096.85,1046.17 1087.82,1042.57 1077.74,1025.7 1071.71,1022.1 1068.71,1022.11 1060.71,1029.37 1054.72,1039.05 1049.72,1042.68 1041.69,1042.7 1030.67,1043.94 1027.66,1045.15 1024.66,1047.57 1019.67,1057.24 1016.67,1060.87 1008.66,1064.51 1002.64,1065.73 999.63,1064.53 994.6,1058.51 988.58,1056.1 983.57,1057.32 977.57,1065.78 969.59,1088.73 958.59,1108.07 955.59,1111.69 950.59,1122.57 947.58,1124.99 939.55,1123.79 933.53,1123.8 927.52,1129.84 922.52,1139.51 916.5,1145.55 906.5,1169.71 901.49,1175.75 884.43,1187.84 881.42,1192.67 882.44,1209.57 885.47,1219.22 879.46,1234.92 877.45,1236.13 873.43,1234.93 852.35,1255.47 847.33,1265.13 848.35,1275.99 851.36,1279.61 859.41,1285.64 864.43,1286.84 870.46,1285.63 878.5,1282 886.54,1280.79 885.54,1285.62 886.55,1294.06 895.61,1303.71 897.62,1307.33 902.65,1309.74 908.68,1306.11 912.7,1308.52 925.77,1309.71 928.79,1310.91 932.82,1314.53 936.85,1321.76 939.88,1333.83 944.92,1338.65 948.94,1339.85 948.95,1343.47 953.98,1345.88 963.03,1345.86 968.05,1342.23 975.1,1345.84 973.11,1356.71 962.07,1368.8 948.02,1388.14 942.99,1392.97 928.91,1395.41 909.81,1406.3 904.78,1406.31 892.7,1401.49 887.67,1400.29 884.65,1401.5 879.63,1406.34 865.54,1411.18 854.48,1418.43 852.47,1426.88 855.5,1432.91 866.58,1444.98 868.6,1452.22 866.6,1466.7 856.54,1483.61 844.47,1495.69 820.31,1515.02 801.17,1535.55 795.13,1537.96 784.05,1544 766.92,1550.04 764.91,1552.45 745.76,1562.1 739.71,1566.93 736.69,1570.55 731.64,1586.24 728.61,1607.97 723.56,1620.04 714.48,1623.65 706.41,1632.1 685.22,1650.19 663.02,1658.62 658.99,1656.2 654.95,1661.02 650.91,1662.22 643.86,1658.59 639.82,1657.38 636.8,1657.38 629.73,1659.78 626.71,1662.19 623.67,1668.22 621.63,1680.29 618.6,1687.53 612.53,1693.56 596.38,1700.77 589.3,1708 573.13,1720.04 572.12,1722.46 569.09,1723.66 553.96,1717.59 532.75,1725.99 530.72,1729.61 533.74,1735.65 532.72,1739.27 534.73,1741.69 531.69,1746.51 530.67,1750.13 534.71,1750.14 533.69,1753.76 536.71,1757.39 531.66,1761 527.62,1759.78 522.59,1754.94 510.48,1750.08 504.45,1741.62 495.38,1734.35 494.38,1731.93 495.41,1725.9 495.43,1716.24 490.4,1711.4 487.38,1708.98 482.34,1707.75 478.31,1705.33 475.27,1707.73 473.24,1712.56 473.23,1714.97 475.23,1723.43 470.16,1730.66 470.15,1734.28 467.11,1736.68 466.08,1743.92 461.02,1747.53 455.97,1748.72 456.97,1752.35 455.95,1757.17 457.95,1760.8 456.92,1768.04 449.84,1772.85 446.8,1776.46 446.79,1780.08 448.79,1784.91 446.76,1787.32 446.71,1803.02 451.73,1815.1 451.72,1818.72 444.54,1851.3 439.43,1868.18 436.35,1883.86 437.34,1888.7 441.37,1893.54 442.37,1898.37 441.35,1900.78 436.28,1903.18 434.25,1905.59 429.17,1915.23 415.01,1915.18 411.97,1917.58 411.88,1941.73 412.88,1946.56 386.6,1942.84 371.43,1942.79 354.22,1945.13 354.22,1946.34 344.03,1964.41 342.99,1970.44 338.92,1976.46 334.88,1975.23 302.47,1981.13 289.33,1979.86 285.24,1988.29 266.03,1985.78 263,1984.56 260.97,1985.76 254.92,1982.1 250.9,1976.05 245.86,1972.4 241.84,1966.34 240.85,1962.72 232.79,1956.64 227.78,1948.16 230.85,1940.93 230.87,1937.31 224.85,1927.62 215.72,1932.4 207.63,1933.57 206.65,1927.52 201.61,1923.88 199.59,1923.86 193.5,1927.45 191.47,1929.85 186.4,1932.24 177.29,1933.4 161.07,1939.34 157.03,1938.11 150.96,1939.28 143.86,1942.86 137.8,1941.61 133.77,1937.96 131.77,1934.33 124.69,1934.29 121.67,1933.06 117.62,1933.03 114.57,1935.43 113.54,1939.04 114.53,1942.67 112.48,1946.28 107.41,1948.66 102.34,1949.84 98.3,1949.81 95.29,1946.17 91.25,1944.94 83.19,1940.05 78.13,1940.02 75.07,1943.62 64.94,1945.97 60.87,1949.56 60.92,1942.32 55.86,1943.49 49.8,1942.24 39.67,1943.38 30.59,1940.9 20.47,1942.03 12.39,1939.56 8.35,1939.53 10.44,1929.88 14.54,1922.67 20.67,1914.26 27.76,1911.9 28.78,1910.7 34.87,1908.33 37.92,1905.94 39.97,1902.33 50.09,1899.99 50.1,1898.78 53.16,1895.18 55.19,1893.99 61.36,1879.54 63.38,1878.35 64.45,1871.11 66.5,1866.3 68.53,1865.1 71.59,1860.3 71.61,1857.88 73.66,1854.27 77.69,1855.51 82.74,1855.54 86.8,1853.16 91.89,1847.15 94.97,1839.93 95.98,1839.94 95.99,1838.73 98.02,1837.54 99.08,1830.3 101.12,1826.69 102.2,1815.83 110.31,1811.06 116.55,1783.33 117.62,1773.68 118.65,1771.27 118.75,1755.58 117.79,1747.12 116.82,1741.08 108.8,1732.58 105.79,1730.14 98.72,1730.1 98.78,1721.65 106.84,1724.11 109.86,1724.13 114.93,1721.75 122.04,1713.35 125.11,1707.33 125.15,1700.09 129.26,1689.25 130.32,1680.8 135.37,1679.63 136.4,1676.01 138.43,1674.82 140.47,1671.21 141.51,1665.18 143.54,1663.99 146.59,1659.18 148.62,1657.98 149.65,1654.36 152.69,1651.97 151.75,1641.1 153.8,1635.08 153.83,1630.25 155.87,1626.64 154.9,1619.39 159.01,1607.34 159.03,1603.72 158.04,1601.3 160.1,1592.86 163.15,1588.05 162.17,1584.42 164.24,1574.78 170.34,1566.36 169.34,1565.15 172.37,1562.75 173.41,1557.93 175.43,1556.74 174.45,1553.11 176.53,1541.05 180.61,1532.62 182.67,1525.39 182.69,1521.77 184.71,1520.57 194.9,1500.11 197.94,1495.3 200.97,1495.32 204,1492.92 207.01,1494.14 210.04,1492.95 213.09,1488.14 216.12,1485.74 223.19,1483.37 226.24,1476.14 229.27,1474.95 232.31,1471.34 234.35,1466.52 239.42,1460.52 244.47,1456.92 243.47,1454.5 245.5,1450.89 252.58,1444.89 250.58,1442.47 253.59,1443.69 253.6,1442.48 257.63,1441.29 264.73,1431.67 268.81,1419.62 270.88,1407.56 269.88,1406.35 269.94,1394.28 270.97,1390.66 274.01,1385.85 274.02,1383.43 277.04,1383.45 278.07,1378.62 276.07,1376.2 279.1,1372.59 284.14,1371.41 293.27,1354.55 294.3,1349.73 293.3,1348.52 296.34,1343.7 297.36,1338.88 298.4,1331.64 298.44,1323.19 305.49,1320.81 307.51,1318.4 309.56,1311.17 309.64,1291.86 310.69,1283.41 308.72,1273.74 309.74,1271.34 314.76,1271.36 315.78,1268.95" fill="none" stroke="#1e1e1e" stroke-width="2.24" stroke-linecap="round" stroke-linejoin="round"/>
<path d="M562.07,738.62L561.07,738.62L561.08,736.21L562.07,738.62Z" fill-rule="evenodd" fill="#4682b4" fill-opacity="0.471"/>
<polyline points="562.07,738.62 561.07,738.62 561.08,736.21 562.07,738.62" fill="none" stroke="#1e1e1e" stroke-width="2.24" stroke-linecap="round" stroke-linejoin="round"/>
<path d="M689.45,254.74L686.46,254.74L684.47,251.12L688.45,249.91L690.44,252.33L689.45,254.74Z" fill-rule="evenodd" fill="#4682b4" fill-opacity="0.471"/>
<polyline points="689.45,254.74 686.46,254.74 684.47,251.12 688.45,249.91 690.44,252.33 689.45,254.74" fill="none" stroke="#1e1e1e" stroke-width="2.24" stroke-linecap="round" stroke-linejoin="round"/>
<text x="768.33" y="949.57" font-family="sans-serif" font-size="14" stroke="#ffffff" stroke-opacity="0.784" stroke-width="2.33" stroke-linejoin="round" paint-order="stroke" fill="#141414">Lebanon</text>
</svg>
