<?xml version="1.0" encoding="UTF-8" standalone="no"?>
<svg xmlns="http://www.w3.org/2000/svg" width="1555" height="2000" viewBox="0 0 1555 2000">
<rect width="1555" height="2000" fill="#ffffff"/>
<path d="M867.52,230.6L898.34,210.04L904.27,181.06L899.23,127.95L888.25,83.3L918.04,73.6L947.86,89.25L973.67,80.76L1025.33,83.06L1081.96,88.94L1099.81,78.02L1139.57,87.55L1153.45,80.25L1190.24,88.56L1207.1,81.25L1220.75,23.24L1247.5,12.26L1265.42,23.04L1260.59,50.83L1290.54,82.07L1326.35,91.54L1361.06,81.69L1363.31,127.55L1319.48,108.48L1307.93,178.56L1252.39,210.22L1256.5,237.97L1224.72,248.97L1185.06,284.15L1159.21,291.49L1143.45,338.63L1071.77,343.69L1029.87,314.83L983.07,311.31L928.33,319.86L904.42,305.4L899.4,266.78L867.52,230.6Z" fill-rule="evenodd" fill="#4682b4" fill-opacity="0.471"/>
<polyline points="867.52,230.6 898.34,210.04 904.27,181.06 899.23,127.95 888.25,83.3 918.04,73.6 947.86,89.25 973.67,80.76 1025.33,83.06 1081.96,88.94 1099.81,78.02 1139.57,87.55 1153.45,80.25 1190.24,88.56 1207.1,81.25 1220.75,23.24 1247.5,12.26 1265.42,23.04 1260.59,50.83 1290.54,82.07 1326.35,91.54 1361.06,81.69 1363.31,127.55 1319.48,108.48 1307.93,178.56 1252.39,210.22 1256.5,237.97 1224.72,248.97 1185.06,284.15 1159.21,291.49 1143.45,338.63 1071.77,343.69 1029.87,314.83 983.07,311.31 928.33,319.86 904.42,305.4 899.4,266.78 867.52,230.6" fill="none" stroke="#1e1e1e" stroke-width="2.24" stroke-linecap="round" stroke-linejoin="round"/>
<path d="M867.52,230.6L899.4,266.78L904.42,305.4L928.33,319.86L983.07,311.31L1029.87,314.83L1071.77,343.69L1143.45,338.63L1142.51,354.33L1101.87,414.82L1068.1,454.76L1048.27,497.06L1013.45,530.95L978.65,595L971.74,634.85L946.82,660.25L922.85,666.32L900.87,665.14L860.89,641.04L802.97,641.07L757.03,622.96L653.18,626.51L611.25,615.59L593.32,595.03L562.38,590.15L567.39,582.91L569.47,539.46L567.54,510.48L566.54,510.48L599.53,469.5L622.44,479.2L643.43,440.6L638.49,412.83L642.47,412.83L643.47,414.04L647.46,412.84L647.46,406.8L648.46,406.8L648.46,408.01L650.45,408.01L649.46,406.8L649.47,395.94L650.47,394.73L659.44,391.12L661.43,391.13L703.29,376.68L730.19,350.14L730.19,351.34L731.19,350.14L731.19,351.34L732.19,351.35L734.18,345.31L730.2,333.24L729.21,333.24L727.22,329.61L725.23,329.61L723.25,298.23L746.15,284.96L759.09,298.24L815.82,284.95L867.52,230.6Z" fill-rule="evenodd" fill="#4682b4" fill-opacity="0.471"/>
<polyline points="867.52,230.6 899.4,266.78 904.42,305.4 928.33,319.86 983.07,311.31 1029.87,314.83 1071.77,343.69 1143.45,338.63 1142.51,354.33 1101.87,414.82 1068.1,454.76 1048.27,497.06 1013.45,530.95 978.65,595 971.74,634.85 946.82,660.25 922.85,666.32 900.87,665.14 860.89,641.04 802.97,641.07 757.03,622.96 653.18,626.51 611.25,615.59 593.32,595.03 562.38,590.15 567.39,582.91 569.47,539.46 567.54,510.48 566.54,510.48 599.53,469.5 622.44,479.2 643.43,440.6 638.49,412.83 642.47,412.83 643.47,414.04 647.46,412.84 647.46,406.8 648.46,406.8 648.46,408.01 650.45,408.01 649.46,406.8 649.47,395.94 650.47,394.73 659.44,391.12 661.43,391.13 703.29,376.68 730.19,350.14 730.19,351.34 731.19,350.14 731.19,351.34 732.19,351.35 734.18,345.31 730.2,333.24 729.21,333.24 727.22,329.61 725.23,329.61 723.25,298.23 746.15,284.96 759.09,298.24 815.82,284.95 867.52,230.6" fill="none" stroke="#1e1e1e" stroke-width="2.24" stroke-linecap="round" stroke-linejoin="round"/>
<path d="M380.21,977.09L381.22,973.47L381.25,967.44L388.26,966.26L390.27,965.06L423.32,968.8L454.4,962.87L442.27,996.63L393.12,1007.32L393.13,1004.9L381.18,984.34L380.18,984.33L381.19,981.92L381.21,977.1L380.21,977.09Z" fill-rule="evenodd" fill="#4682b4" fill-opacity="0.471"/>
<polyline points="380.21,977.09 381.22,973.47 381.25,967.44 388.26,966.26 390.27,965.06 423.32,968.8 454.4,962.87 442.27,996.63 393.12,1007.32 393.13,1004.9 381.18,984.34 380.18,984.33 381.19,981.92 381.21,977.1 380.21,977.09" fill="none" stroke="#1e1e1e" stroke-width="2.24" stroke-linecap="round" stroke-linejoin="round"/>
<path d="M834.07,907.83L873.07,852.27L901.03,799.13L911.99,760.49L914.89,690.47L922.85,666.32L946.82,660.25L971.74,634.85L978.65,595L1013.45,530.95L1048.27,497.06L1068.1,454.76L1101.87,414.82L1142.51,354.33L1143.45,338.63L1159.21,291.49L1185.06,284.15L1224.72,248.97L1256.5,237.97L1290.31,234.18L1332.14,243.62L1352,236.27L1374.18,286.84L1418.08,304.68L1436.13,325.09L1458.07,329.78L1467.23,359.9L1442.53,390.24L1469.87,455.25L1505.84,465.86L1511,491.18L1492.19,510.62L1503.58,569.69L1536.74,599.63L1506.92,617.96L1498.13,646.99L1476.41,683.36L1462.44,685.86L1420.77,733.21L1418.97,765.82L1389.09,785.31L1353.03,775.86L1317.09,788.13L1316.18,806.24L1241.46,874.21L1196.71,946.83L1239,993.72L1270.05,991.17L1305.29,1023.58L1310.43,1047.7L1266.34,1053.95L1237.24,1049.26L1188.01,1024.12L1159.91,1016.98L1148.95,1036.34L1115.91,1049.73L1087.82,1042.57L1066.71,1023.32L1044.7,1042.7L1039.62,1016.15L988.48,1004.2L957.37,981.32L920.33,1011.56L908.3,1009.16L891.21,964.52L865.16,958.51L834.07,907.83Z" fill-rule="evenodd" fill="#4682b4" fill-opacity="0.471"/>
<polyline points="834.07,907.83 873.07,852.27 901.03,799.13 911.99,760.49 914.89,690.47 922.85,666.32 946.82,660.25 971.74,634.85 978.65,595 1013.45,530.95 1048.27,497.06 1068.1,454.76 1101.87,414.82 1142.51,354.33 1143.45,338.63 1159.21,291.49 1185.06,284.15 1224.72,248.97 1256.5,237.97 1290.31,234.18 1332.14,243.62 1352,236.27 1374.18,286.84 1418.08,304.68 1436.13,325.09 1458.07,329.78 1467.23,359.9 1442.53,390.24 1469.87,455.25 1505.84,465.86 1511,491.18 1492.19,510.62 1503.58,569.69 1536.74,599.63 1506.92,617.96 1498.13,646.99 1476.41,683.36 1462.44,685.86 1420.77,733.21 1418.97,765.82 1389.09,785.31 1353.03,775.86 1317.09,788.13 1316.18,806.24 1241.46,874.21 1196.71,946.83 1239,993.72 1270.05,991.17 1305.29,1023.58 1310.43,1047.7 1266.34,1053.95 1237.24,1049.26 1188.01,1024.12 1159.91,1016.98 1148.95,1036.34 1115.91,1049.73 1087.82,1042.57 1066.71,1023.32 1044.7,1042.7 1039.62,1016.15 988.48,1004.2 957.37,981.32 920.33,1011.56 908.3,1009.16 891.21,964.52 865.16,958.51 834.07,907.83" fill="none" stroke="#1e1e1e" stroke-width="2.24" stroke-linecap="round" stroke-linejoin="round"/>
<path d="M544.53,1423.02L580.92,1337.39L581.96,1321.7L624.31,1238.48L669.56,1195.08L672.62,1149.21L716.79,1121.49L693.75,1084.05L746.93,1003.2L771.99,979.06L785.01,941.64L811.05,910.25L834.07,907.83L865.16,958.51L891.21,964.52L908.3,1009.16L920.33,1011.56L957.37,981.32L988.48,1004.2L1039.62,1016.15L1044.7,1042.7L1002.64,1065.73L980.57,1060.95L950.59,1122.57L933.53,1123.8L906.5,1169.71L881.42,1192.67L885.47,1219.22L852.35,1255.47L859.41,1285.64L932.82,1314.53L948.95,1343.47L973.11,1356.71L942.99,1392.97L909.81,1406.3L865.54,1411.18L852.47,1426.88L866.6,1466.7L814.27,1521.06L789.09,1541.59L750.8,1559.69L692.36,1547.59L682.32,1511.36L657.17,1487.19L623.93,1491.98L612.82,1513.69L573.46,1555.87L555.35,1541.35L534.35,1474.91L544.53,1423.02Z" fill-rule="evenodd" fill="#4682b4" fill-opacity="0.471"/>
<polyline points="544.53,1423.02 580.92,1337.39 581.96,1321.7 624.31,1238.48 669.56,1195.08 672.62,1149.21 716.79,1121.49 693.75,1084.05 746.93,1003.2 771.99,979.06 785.01,941.64 811.05,910.25 834.07,907.83 865.16,958.51 891.21,964.52 908.3,1009.16 920.33,1011.56 957.37,981.32 988.48,1004.2 1039.62,1016.15 1044.7,1042.7 1002.64,1065.73 980.57,1060.95 950.59,1122.57 933.53,1123.8 906.5,1169.71 881.42,1192.67 885.47,1219.22 852.35,1255.47 859.41,1285.64 932.82,1314.53 948.95,1343.47 973.11,1356.71 942.99,1392.97 909.81,1406.3 865.54,1411.18 852.47,1426.88 866.6,1466.7 814.27,1521.06 789.09,1541.59 750.8,1559.69 692.36,1547.59 682.32,1511.36 657.17,1487.19 623.93,1491.98 612.82,1513.69 573.46,1555.87 555.35,1541.35 534.35,1474.91 544.53,1423.02" fill="none" stroke="#1e1e1e" stroke-width="2.24" stroke-linecap="round" stroke-linejoin="round"/>
<path d="M297.36,1338.88L344.51,1365.64L426.99,1364.75L484.39,1339.58L513.55,1338.45L520.52,1366.23L513.42,1389.15L544.53,1423.02L534.35,1474.91L555.35,1541.35L512.94,1578.67L510.89,1591.94L454.34,1625.58L439.37,1578.46L440.64,1496.37L446.78,1467.42L429.71,1452.88L411.54,1467.3L356.12,1479.16L322.9,1476.61L330.85,1501.99L304.64,1506.71L304.44,1551.37L277.06,1587.46L239.85,1570.37L226.59,1600.48L248.64,1624.74L249.46,1662.16L286.69,1681.66L338.14,1683.1L337.94,1728.97L281.13,1789.08L267.86,1817.99L233.35,1849.2L213.96,1885.31L206.64,1928.73L199.59,1923.86L143.86,1942.86L117.62,1933.03L83.19,1940.05L8.35,1939.53L28.78,1910.7L43.01,1901.14L50.09,1899.99L50.1,1898.78L53.16,1895.18L55.19,1893.99L73.66,1854.27L86.8,1853.16L89.86,1849.55L94.97,1839.93L95.98,1839.94L95.99,1838.73L98.02,1837.54L99.08,1830.3L101.12,1826.69L118.65,1771.27L114.93,1721.75L130.32,1680.8L152.7,1649.55L160.1,1592.86L178.57,1536.23L197.94,1495.3L223.19,1483.37L237.39,1462.92L239.42,1460.52L244.47,1456.92L245.5,1450.89L252.58,1444.89L250.58,1442.47L253.59,1443.69L257.63,1441.29L266.77,1425.65L269.94,1394.28L294.3,1349.73L293.3,1348.52L296.34,1343.7L297.36,1338.88Z" fill-rule="evenodd" fill="#4682b4" fill-opacity="0.471"/>
<polyline points="297.36,1338.88 344.51,1365.64 426.99,1364.75 484.39,1339.58 513.55,1338.45 520.52,1366.23 513.42,1389.15 544.53,1423.02 534.35,1474.91 555.35,1541.35 512.94,1578.67 510.89,1591.94 454.34,1625.58 439.37,1578.46 440.64,1496.37 446.78,1467.42 429.71,1452.88 411.54,1467.3 356.12,1479.16 322.9,1476.61 330.85,1501.99 304.64,1506.71 304.44,1551.37 277.06,1587.46 239.85,1570.37 226.59,1600.48 248.64,1624.74 249.46,1662.16 286.69,1681.66 338.14,1683.1 337.94,1728.97 281.13,1789.08 267.86,1817.99 233.35,1849.2 213.96,1885.31 206.64,1928.73 199.59,1923.86 143.86,1942.86 117.62,1933.03 83.19,1940.05 8.35,1939.53 28.78,1910.7 43.01,1901.14 50.09,1899.99 50.1,1898.78 53.16,1895.18 55.19,1893.99 73.66,1854.27 86.8,1853.16 89.86,1849.55 94.97,1839.93 95.98,1839.94 95.99,1838.73 98.02,1837.54 99.08,1830.3 101.12,1826.69 118.65,1771.27 114.93,1721.75 130.32,1680.8 152.7,1649.55 160.1,1592.86 178.57,1536.23 197.94,1495.3 223.19,1483.37 237.39,1462.92 239.42,1460.52 244.47,1456.92 245.5,1450.89 252.58,1444.89 250.58,1442.47 253.59,1443.69 257.63,1441.29 266.77,1425.65 269.94,1394.28 294.3,1349.73 293.3,1348.52 296.34,1343.7 297.36,1338.88" fill="none" stroke="#1e1e1e" stroke-width="2.24" stroke-linecap="round" stroke-linejoin="round"/>
<path d="M323.82,1267.78L326.85,1264.17L328.96,1240.03L328.98,1236.41L327.98,1235.2L328.99,1234L329.02,1226.76L327.02,1224.33L327.03,1223.13L340.13,1213.53L348.17,1211.15L350.21,1202.7L355.26,1196.69L355.3,1187.03L358.41,1161.7L361.47,1150.84L366.52,1142.41L369.57,1133.98L370.57,1132.77L370.57,1133.98L371.58,1132.78L372.58,1132.78L375.61,1129.17L380.67,1115.91L381.68,1115.92L394.91,1065.27L392.17,1008.45L393.12,1007.32L442.27,996.63L454.4,962.87L465.39,971.35L473.44,962.92L475.43,966.55L497.58,925.57L514.71,885.78L513.71,884.57L524.76,870.11L523.76,870.11L555.83,850.87L535.87,827.89L541.95,795.31L555.01,766.37L556.03,759.13L557.03,759.13L562.05,747.07L561.05,747.07L562.06,744.66L563.06,744.66L562.06,742.24L562.07,737.42L563.08,732.59L564.08,732.59L564.08,731.38L562.09,728.97L564.09,726.56L563.11,718.1L562.11,718.1L563.12,715.69L562.12,714.48L561.13,708.44L556.14,704.81L551.2,683.07L544.29,643.22L551.37,602.19L562.38,590.15L593.32,595.03L611.25,615.59L653.18,626.51L757.03,622.96L802.97,641.07L860.89,641.04L900.87,665.14L922.85,666.32L914.89,690.47L911.99,760.49L901.03,799.13L873.07,852.27L834.07,907.83L811.05,910.25L785.01,941.64L771.99,979.06L746.93,1003.2L693.75,1084.05L716.79,1121.49L672.62,1149.21L669.56,1195.08L624.31,1238.48L581.96,1321.7L580.92,1337.39L544.53,1423.02L513.42,1389.15L520.52,1366.23L513.55,1338.45L484.39,1339.58L426.99,1364.75L344.51,1365.64L297.36,1338.88L309.6,1300.31L309.7,1278.58L308.72,1273.74L309.74,1271.34L314.76,1271.36L315.79,1266.53L317.77,1271.37L318.78,1270.17L322.81,1268.98L323.82,1267.78Z" fill-rule="evenodd" fill="#4682b4" fill-opacity="0.471"/>
<polyline points="323.82,1267.78 326.85,1264.17 328.96,1240.03 328.98,1236.41 327.98,1235.2 328.99,1234 329.02,1226.76 327.02,1224.33 327.03,1223.13 340.13,1213.53 348.17,1211.15 350.21,1202.7 355.26,1196.69 355.3,1187.03 358.41,1161.7 361.47,1150.84 366.52,1142.41 369.57,1133.98 370.57,1132.77 370.57,1133.98 371.58,1132.78 372.58,1132.78 375.61,1129.17 380.67,1115.91 381.68,1115.92 394.91,1065.27 392.17,1008.45 393.12,1007.32 442.27,996.63 454.4,962.87 465.39,971.35 473.44,962.92 475.43,966.55 497.58,925.57 514.71,885.78 513.71,884.57 524.76,870.11 523.76,870.11 555.83,850.87 535.87,827.89 541.95,795.31 555.01,766.37 556.03,759.13 557.03,759.13 562.05,747.07 561.05,747.07 562.06,744.66 563.06,744.66 562.06,742.24 562.07,737.42 563.08,732.59 564.08,732.59 564.08,731.38 562.09,728.97 564.09,726.56 563.11,718.1 562.11,718.1 563.12,715.69 562.12,714.48 561.13,708.44 556.14,704.81 551.2,683.07 544.29,643.22 551.37,602.19 562.38,590.15 593.32,595.03 611.25,615.59 653.18,626.51 757.03,622.96 802.97,641.07 860.89,641.04 900.87,665.14 922.85,666.32 914.89,690.47 911.99,760.49 901.03,799.13 873.07,852.27 834.07,907.83 811.05,910.25 785.01,941.64 771.99,979.06 746.93,1003.2 693.75,1084.05 716.79,1121.49 672.62,1149.21 669.56,1195.08 624.31,1238.48 581.96,1321.7 580.92,1337.39 544.53,1423.02 513.42,1389.15 520.52,1366.23 513.55,1338.45 484.39,1339.58 426.99,1364.75 344.51,1365.64 297.36,1338.88 309.6,1300.31 309.7,1278.58 308.72,1273.74 309.74,1271.34 314.76,1271.36 315.79,1266.53 317.77,1271.37 318.78,1270.17 322.81,1268.98 323.82,1267.78" fill="none" stroke="#1e1e1e" stroke-width="2.24" stroke-linecap="round" stroke-linejoin="round"/>
<path d="M562.07,738.62L561.07,738.62L561.08,736.21L562.07,738.62Z" fill-rule="evenodd" fill="#4682b4" fill-opacity="0.471"/>
<polyline points="562.07,738.62 561.07,738.62 561.08,736.21 562.07,738.62" fill="none" stroke="#1e1e1e" stroke-width="2.24" stroke-linecap="round" stroke-linejoin="round"/>
<path d="M206.64,1928.73L213.96,1885.31L233.35,1849.2L267.86,1817.99L281.13,1789.08L337.94,1728.97L338.14,1683.1L286.69,1681.66L249.46,1662.16L248.64,1624.74L226.59,1600.48L239.85,1570.37L277.06,1587.46L304.44,1551.37L304.64,1506.71L330.85,1501.99L322.9,1476.61L356.12,1479.16L411.54,1467.3L429.71,1452.88L446.78,1467.42L440.64,1496.37L439.37,1578.46L454.34,1625.58L510.89,1591.94L512.94,1578.67L555.35,1541.35L573.46,1555.87L612.82,1513.69L623.93,1491.98L657.17,1487.19L682.32,1511.36L692.36,1547.59L750.8,1559.69L739.71,1566.93L728.61,1607.97L685.22,1650.19L626.71,1662.19L618.6,1687.53L569.09,1723.66L532.75,1725.99L531.66,1761L494.38,1731.93L478.31,1705.33L456.92,1768.04L446.8,1776.46L451.73,1815.1L436.35,1883.86L441.35,1900.78L411.97,1917.58L412.88,1946.56L354.22,1946.34L338.92,1976.46L285.24,1988.29L260.97,1985.76L206.64,1928.73Z" fill-rule="evenodd" fill="#4682b4" fill-opacity="0.471"/>
<polyline points="206.64,1928.73 213.96,1885.31 233.35,1849.2 267.86,1817.99 281.13,1789.08 337.94,1728.97 338.14,1683.1 286.69,1681.66 249.46,1662.16 248.64,1624.74 226.59,1600.48 239.85,1570.37 277.06,1587.46 304.44,1551.37 304.64,1506.71 330.85,1501.99 322.9,1476.61 356.12,1479.16 411.54,1467.3 429.71,1452.88 446.78,1467.42 440.64,1496.37 439.37,1578.46 454.34,1625.58 510.89,1591.94 512.94,1578.67 555.35,1541.35 573.46,1555.87 612.82,1513.69 623.93,1491.98 657.17,1487.19 682.32,1511.36 692.36,1547.59 750.8,1559.69 739.71,1566.93 728.61,1607.97 685.22,1650.19 626.71,1662.19 618.6,1687.53 569.09,1723.66 532.75,1725.99 531.66,1761 494.38,1731.93 478.31,1705.33 456.92,1768.04 446.8,1776.46 451.73,1815.1 436.35,1883.86 441.35,1900.78 411.97,1917.58 412.88,1946.56 354.22,1946.34 338.92,1976.46 285.24,1988.29 260.97,1985.76 206.64,1928.73" fill="none" stroke="#1e1e1e" stroke-width="2.24" stroke-linecap="round" stroke-linejoin="round"/>
<text x="1062.07" y="660.39" font-family="sans-serif" font-size="14" stroke="#ffffff" stroke-opacity="0.784" stroke-width="2.33" stroke-linejoin="round" paint-order="stroke" fill="#141414">Baalbek-Hermel Governorate</text>
<text x="478.85" y="986.88" font-family="sans-serif" font-size="14" stroke="#ffffff" stroke-opacity="0.784" stroke-width="2.33" stroke-linejoin="round" paint-order="stroke" fill="#141414">Mount Lebanon Governorate</text>
<text x="683.77" y="1269.21" font-family="sans-serif" font-size="14" stroke="#ffffff" stroke-opacity="0.784" stroke-width="2.33" stroke-linejoin="round" paint-order="stroke" fill="#141414">Beqaa Governorate</text>
<text x="756.39" y="474.04" font-family="sans-serif" font-size="14" stroke="#ffffff" stroke-opacity="0.784" stroke-width="2.33" stroke-linejoin="round" paint-order="stroke" fill="#141414">North Governorate</text>
<text x="327.16" y="1705.54" font-family="sans-serif" font-size="14" stroke="#ffffff" stroke-opacity="0.784" stroke-width="2.33" stroke-linejoin="round" paint-order="stroke" fill="#141414">Nabatiya Governorate</text>
<text x="200.41" y="1626.78" font-family="sans-serif" font-size="14" stroke="#ffffff" stroke-opacity="0.784" stroke-width="2.33" stroke-linejoin="round" paint-order="stroke" fill="#141414">South Governorate</text>
<text x="1007.11" y="193.47" font-family="sans-serif" font-size="14" stroke="#ffffff" stroke-opacity="0.784" stroke-width="2.33" stroke-linejoin="round" paint-order="stroke" fill="#141414">Akkar Governorate</text>
</svg>
