<?xml version="1.0" encoding="UTF-8" standalone="no"?>
<svg xmlns="http://www.w3.org/2000/svg" width="2000" height="1493" viewBox="0 0 2000 1493">
<rect width="2000" height="1493" fill="#ffffff"/>
<path d="M1101.5,939.78L1108.61,949.5L1111.57,961.08L1106.38,970.68L1089.89,963.52L1081.17,964.06L1079.29,978.69L1077.74,979.03L1076.03,961.56L1085.31,957.66L1097.61,957.44L1106.31,955.05L1102.32,950.87L1099.49,945.5L1097.84,943.49L1088.28,947.4L1083.61,940.69L1074.02,938.37L1073.34,935.35L1074.68,931.48L1074.57,927.95L1072.33,922.08L1070.78,920.74L1066.62,920.25L1059.94,916.23L1056.56,916.24L1036.29,935.78L1033.58,931.41L1032.32,927.38L1032.6,923.68L1034.24,920.32L1039.85,921.32L1056.83,908.18L1064.35,904.63L1071.71,909.48L1085.51,930.94L1101.5,939.78Z" fill-rule="evenodd" fill="#4682b4" fill-opacity="0.471"/>
<polyline points="1101.5,939.78 1108.61,949.5 1111.57,961.08 1106.38,970.68 1089.89,963.52 1081.17,964.06 1079.29,978.69 1077.74,979.03 1076.03,961.56 1085.31,957.66 1097.61,957.44 1106.31,955.05 1102.32,950.87 1099.49,945.5 1097.84,943.49 1088.28,947.4 1083.61,940.69 1074.02,938.37 1073.34,935.35 1074.68,931.48 1074.57,927.95 1072.33,922.08 1070.78,920.74 1066.62,920.25 1059.94,916.23 1056.56,916.24 1036.29,935.78 1033.58,931.41 1032.32,927.38 1032.6,923.68 1034.24,920.32 1039.85,921.32 1056.83,908.18 1064.35,904.63 1071.71,909.48 1085.51,930.94 1101.5,939.78" fill="none" stroke="#1e1e1e" stroke-width="1.55" stroke-linecap="round" stroke-linejoin="round"/>
<text x="1015.59" y="944.27" font-family="sans-serif" font-size="14" stroke="#ffffff" stroke-opacity="0.784" stroke-width="2.33" stroke-linejoin="round" paint-order="stroke" fill="#141414">Kauno marios</text>
</svg>
