<?xml version="1.0" encoding="UTF-8" standalone="no"?>
<svg xmlns="http://www.w3.org/2000/svg" width="2000" height="1493" viewBox="0 0 2000 1493">
<rect width="2000" height="1493" fill="#ffffff"/>
<polyline points="1976.18,1159.81 1972.85,1161.14 1964.99,1162.41 1946.94,1170.58 1942.95,1169.95 1934.18,1164.93 1924.27,1162.61 1914.71,1156.92 1909.86,1156.49 1908.07,1157.88 1905.67,1163 1903.42,1164.9 1900.42,1165.74 1893.22,1165.29 1888.56,1163.66 1881.5,1155.84 1879.08,1154.12 1873.73,1153.35 1868.98,1150.8 1859.49,1142.79 1855.97,1138.11 1849.35,1126.43 1842.93,1122.62 1831.19,1112.26 1831.06,1108.73 1832.9,1096.97 1830.9,1095.12 1827.89,1088.99 1836.14,1085.84 1840.18,1082.79 1843.45,1076.72 1839.48,1066.47 1837.27,1057.65 1833.85,1050.75 1826.36,1046.14 1826.22,1042.27 1827.77,1040.61 1830.66,1034.64 1804.41,1021.39 1794.98,1019.94 1789.18,1017.7 1790.04,1012.33 1795.57,1004.33 1794.85,996.65 1791.18,986.99 1792.5,980.7 1782.21,978.89 1778.87,977.61 1768.26,965.9 1764.57,966.65 1757.07,970.18 1753.46,968.28 1755.66,956.84 1755.3,950.71 1736.02,935.72 1732.34,935.15 1728.94,937.93 1726.62,938.23 1718.71,935.97 1712.89,940.85 1683.92,959.44 1674.65,962.46 1667.09,967.74 1664.59,967.39 1651.82,953.89 1639.01,946.61 1633.33,941.69 1628.02,926.64 1622.25,932.75 1615.8,942.61 1611.2,947.23 1607.29,943.82 1607.24,933.01 1605.98,927.85 1603.41,925.68 1597.79,925.66 1594.49,923.94 1591.95,920.66 1588.02,912.6 1585.12,908.91 1581.62,906.98 1574.87,905.03 1571.45,901.1 1540.63,929.66 1531.93,945.3 1526.43,941.56 1502,932.91 1497.72,930.54 1493.58,929.57 1489.9,932.57 1486.65,940.42 1484.71,950.25 1480.97,959.08 1480.73,965.91 1484.45,976.29 1485.91,982.78 1484.33,985.7 1464.73,997.78 1461.01,1001.79 1463.89,1015.26 1463.65,1021.19 1461.86,1026.55 1459.85,1027.54 1452.5,1025.66 1437.78,1029.5 1432.38,1045.56 1427.25,1047.4 1418.35,1037.14 1410.84,1034.29 1402.4,1035.3 1398.04,1034.93 1393.38,1031.07 1389.74,1030.08 1387.55,1024.55 1387.3,1021.6 1388.93,1022.57 1384.08,1017.66 1373.68,1011.95 1368.42,1007.33 1370.61,1003.43 1366.6,1004.12 1362.76,1003.55 1359.49,1002.07 1357.04,999.7 1361.48,995.73 1361.41,991.52 1357.01,989.75 1343.26,980.09 1343.2,976.19 1346.91,973.83 1354.24,964.66 1346.23,960.81 1340.82,964.17 1336.77,969.8 1332.83,972.79 1327.77,969.3 1325.56,960.72 1326.05,950.4 1329.01,941.69 1322.59,941.81 1315.96,938.53 1310.75,932.4 1308.58,924.06 1298.4,918.34 1298.15,916.05 1288.12,902.87 1282.25,898.24 1276.18,895.9 1262.19,895.05 1256.07,892.7 1238.37,876.19 1221.48,867.86 1211.21,855.41 1205.34,851.95 1187.69,847.78 1184.43,845.82 1179.73,841.26 1174.7,827.6 1171.65,825.75 1164.7,824.16 1158.92,820.09 1150.23,809.93 1145.87,800.59 1143.51,798.31 1118.46,812.81 1092.28,821.99 1080.03,820.85 1076.48,822.05 1073.75,826.14 1068.47,839.12 1064.89,844.34 1059.7,859.63 1056.75,863.01 1036.16,869.25 1027.62,879.76 1023.86,881.32 1015.3,880.94 1010.97,881.61 1008.33,885.93 1004.86,896.55 994.77,909.35 980.99,908.06" fill="none" stroke="#1e1e1e" stroke-width="1.55" stroke-linecap="round" stroke-linejoin="round"/>
<polyline points="980.99,908.06 952.93,892.6 938.61,890.17 925.28,890.44 913.56,886.95 903.93,873.33 900.75,862.3 896.96,840.8 893.77,832.17 887.65,826.5 880.42,826 872.88,827.02 865.81,826 849.1,811.99 842.34,809.88 812.1,813.94 708.38,793.34 698.3,795.93 692.09,798.81 683.3,805.48 665.62,800.21 648.97,802.23 621.61,811.58 597,815.06 590.94,814.7 577.01,810.8 567.82,804.74 523.12,817.19 462.81,808.39 427.08,816.75 418.93,826.21 412.75,830.51 405.14,831.11 396.48,828.04 389.38,821.63 386.64,812.12 386.89,802.78 385.99,796.42 382.19,793.38 373.72,794.06 364.97,800.37 362.15,801.5 358.95,800.2 351.12,794.64 339.7,791.38 333.47,787.06 322.68,777.03 300.26,771.36 294.75,766.38 289.41,758.75 267.02,739.98 254,733.05 221.08,730.86 209.61,720.84 190.63,685.24 180.99,674.85 172.86,675.81 145.44,697.29" fill="none" stroke="#1e1e1e" stroke-width="1.55" stroke-linecap="round" stroke-linejoin="round"/>
<polyline points="1940.87,322.2 1936.59,320.39 1930.08,315.08 1926.25,313.99 1923.33,316.41 1919.35,327.11 1916.98,330.3 1909.55,330.02 1905.63,323.41 1902.82,314.5 1898.57,307.31 1893.88,311.01 1883.99,315.84 1879.39,320.14 1871.46,335.3 1866.86,339.74 1861.61,342.87 1855.48,345.2 1849.1,346.07 1842.94,344.91 1838.83,342.2 1829.3,330.21 1817.38,323.33 1813.55,318.38 1807.26,301.52 1792.25,271.66 1788.23,258.13 1789.11,245.48 1784.86,238.97 1781.75,228.94 1779.69,216.97 1778.04,194.27 1776.42,185.65 1773.48,178.18 1752.23,151.44 1747.42,148.35 1734.19,145.28 1729.47,143.48 1727.92,138.58 1728.14,125.6 1729.88,115.02 1729.81,110.31 1729.28,110.78 1727.8,109.65 1725.35,106.55 1724.89,92.56 1717.9,77.36 1717.2,65.48 1715.03,55.81 1711.01,50.85 1696.29,39.26 1691.67,37.06 1684.75,24.42 1682.12,16.98" fill="none" stroke="#1e1e1e" stroke-width="1.55" stroke-linecap="round" stroke-linejoin="round"/>
<text x="1457.86" y="969.25" font-family="sans-serif" font-size="14" stroke="#ffffff" stroke-opacity="0.784" stroke-width="2.33" stroke-linejoin="round" paint-order="stroke" fill="#141414">Neris</text>
<text x="525.95" y="815.2" font-family="sans-serif" font-size="14" stroke="#ffffff" stroke-opacity="0.784" stroke-width="2.33" stroke-linejoin="round" paint-order="stroke" fill="#141414">Neman</text>
<text x="1751.11" y="261.68" font-family="sans-serif" font-size="14" stroke="#ffffff" stroke-opacity="0.784" stroke-width="2.33" stroke-linejoin="round" paint-order="stroke" fill="#141414">Daugava</text>
</svg>
