<?xml version="1.0" encoding="UTF-8" standalone="no"?>
<svg xmlns="http://www.w3.org/2000/svg" width="2000" height="1493" viewBox="0 0 2000 1493">
<rect width="2000" height="1493" fill="#ffffff"/>
<path d="M835.2,1216.08L850.16,1216.75L846.3,1196.74L872.94,1188.34L872.43,1159.79L880.72,1160.41L900.67,1149.66L916.65,1133.17L924.59,1138.9L931.17,1155.48L941.47,1149.8L953.72,1158.39L981.59,1157.86L1005.47,1160.72L1004.15,1149.87L1025.7,1144.72L1033.97,1133.29L1039.24,1115.01L1055.78,1109.27L1069.07,1123.51L1091.25,1120.01L1102.8,1110.25L1122.32,1108.44L1125.38,1123.27L1140.65,1127.75L1167.15,1127L1172.08,1121.26L1168.82,1129.27L1179.01,1160.6L1173.48,1176.62L1180.17,1182.85L1229.39,1189.27L1240.52,1173.17L1274.46,1179.64L1274.39,1201.34L1301.87,1193.01L1310.21,1195.18L1325.38,1186.98L1354.78,1175.7L1373.63,1170.83L1370.15,1181.74L1373.04,1195.97L1366.85,1204.06L1341.99,1209.58L1338.12,1217.63L1345.67,1255.2L1328.68,1256.02L1320.32,1277.83L1287.2,1297.1L1288.71,1310.79L1307.5,1317.4L1314.81,1339L1313.26,1348.15L1296.1,1367.22L1309.38,1383.61L1316.8,1412.06L1306.88,1423.04L1292.85,1428.36L1279.27,1443.37L1270.88,1444.04L1268.36,1429.79L1245.42,1418.62L1237.47,1428.98L1206.09,1448.12L1186.19,1480.26L1153.92,1484.5L1131.97,1470.35L1122.81,1454.99L1113.75,1457.32L1103.27,1443.09L1070.07,1459.77L1029.76,1469.56L1022.34,1451.87L1004.53,1445.03L996.47,1458.74L980.01,1453.02L967.56,1463.28L973.6,1472.42L967.54,1483.26L953.1,1467.82L939,1462.08L911.42,1467.13L894.64,1458.5L880.19,1459L872.5,1450.97L864.5,1440.64L861.57,1425.78L876.09,1408.16L877.54,1388.19L865.64,1359L863.42,1338.44L854.48,1325.25L842.79,1324.03L828.3,1294.81L809.06,1280.96L812.51,1266.72L805.93,1255.82L816.31,1249.62L814.74,1237.62L823.86,1220.56L835.2,1216.08Z" fill-rule="evenodd" fill="#4682b4" fill-opacity="0.471"/>
<polyline points="835.2,1216.08 850.16,1216.75 846.3,1196.74 872.94,1188.34 872.43,1159.79 880.72,1160.41 900.67,1149.66 916.65,1133.17 924.59,1138.9 931.17,1155.48 941.47,1149.8 953.72,1158.39 981.59,1157.86 1005.47,1160.72 1004.15,1149.87 1025.7,1144.72 1033.97,1133.29 1039.24,1115.01 1055.78,1109.27 1069.07,1123.51 1091.25,1120.01 1102.8,1110.25 1122.32,1108.44 1125.38,1123.27 1140.65,1127.75 1167.15,1127 1172.08,1121.26 1168.82,1129.27 1179.01,1160.6 1173.48,1176.62 1180.17,1182.85 1229.39,1189.27 1240.52,1173.17 1274.46,1179.64 1274.39,1201.34 1301.87,1193.01 1310.21,1195.18 1325.38,1186.98 1354.78,1175.7 1373.63,1170.83 1370.15,1181.74 1373.04,1195.97 1366.85,1204.06 1341.99,1209.58 1338.12,1217.63 1345.67,1255.2 1328.68,1256.02 1320.32,1277.83 1287.2,1297.1 1288.71,1310.79 1307.5,1317.4 1314.81,1339 1313.26,1348.15 1296.1,1367.22 1309.38,1383.61 1316.8,1412.06 1306.88,1423.04 1292.85,1428.36 1279.27,1443.37 1270.88,1444.04 1268.36,1429.79 1245.42,1418.62 1237.47,1428.98 1206.09,1448.12 1186.19,1480.26 1153.92,1484.5 1131.97,1470.35 1122.81,1454.99 1113.75,1457.32 1103.27,1443.09 1070.07,1459.77 1029.76,1469.56 1022.34,1451.87 1004.53,1445.03 996.47,1458.74 980.01,1453.02 967.56,1463.28 973.6,1472.42 967.54,1483.26 953.1,1467.82 939,1462.08 911.42,1467.13 894.64,1458.5 880.19,1459 872.5,1450.97 864.5,1440.64 861.57,1425.78 876.09,1408.16 877.54,1388.19 865.64,1359 863.42,1338.44 854.48,1325.25 842.79,1324.03 828.3,1294.81 809.06,1280.96 812.51,1266.72 805.93,1255.82 816.31,1249.62 814.74,1237.62 823.86,1220.56 835.2,1216.08" fill="none" stroke="#1e1e1e" stroke-width="1.55" stroke-linecap="round" stroke-linejoin="round"/>
<path d="M98.56,226.8L117.21,222.97L129.82,218.33L142.04,223.95L153.37,202.67L152.16,184.34L167,170.62L183.47,146.67L225.71,128.76L238.86,106.37L255.8,102.37L263.42,92.35L279.43,87.16L295.65,95.11L312.14,94.49L323.94,81.71L333.89,77.45L349.21,62.48L362.98,67.45L394.29,56.34L391.51,76.83L381.74,75.41L378.7,93.6L394.14,96.32L389.64,121.9L396.28,134.07L402.44,164.51L386.63,161.79L378.99,185L376.67,199.78L365,206.88L343.1,204.53L342.05,218.77L316.44,212.29L308.18,232.02L300.8,233.51L279.82,271.11L263.53,271.15L258.32,283.54L267.15,287.26L260.84,304.19L264.16,319.72L271.77,331.96L260.53,352.16L251.6,350.72L235.84,380.46L247.19,386.55L260.09,384.7L272.59,395.39L272.45,409.66L285.91,410.67L299.22,416.8L308.71,411.38L315.29,416.73L310.77,438.29L325.09,454.15L319.87,467.12L329.83,489.7L350.34,505.15L350.74,513.72L335.38,520.13L329.34,527.94L331.92,549.72L339.03,560.78L344.89,604.36L360.64,597.38L376.95,605.26L386.35,604.95L393.99,622.29L384.94,644.88L374.02,652.58L350.45,681.61L342.75,677.96L335.2,691.45L345.41,710.02L339.29,729.83L326.1,724.3L315.66,713.71L301.33,713.85L292.22,723.84L274.75,730.15L268.56,740.23L243.47,729.7L222.05,736.4L203.88,715.21L199.26,698.48L184.23,672.81L166.62,683.03L146.48,699.41L144.22,698.76L144.89,681.07L154.13,668.85L148.26,652.07L136.58,643.06L121.98,642.5L141.6,604.97L144.75,573.1L140.02,544.36L134.1,538.42L130.83,514.3L124.8,503.22L118.11,476.1L113.26,443.92L97.57,417.59L94.94,395.2L91.37,348.77L89.97,312.15L92.05,308.24L95.44,295.8L98.37,278.78L98.93,249.09L100.16,242.29L98.56,226.8Z" fill-rule="evenodd" fill="#4682b4" fill-opacity="0.471"/>
<polyline points="98.56,226.8 117.21,222.97 129.82,218.33 142.04,223.95 153.37,202.67 152.16,184.34 167,170.62 183.47,146.67 225.71,128.76 238.86,106.37 255.8,102.37 263.42,92.35 279.43,87.16 295.65,95.11 312.14,94.49 323.94,81.71 333.89,77.45 349.21,62.48 362.98,67.45 394.29,56.34 391.51,76.83 381.74,75.41 378.7,93.6 394.14,96.32 389.64,121.9 396.28,134.07 402.44,164.51 386.63,161.79 378.99,185 376.67,199.78 365,206.88 343.1,204.53 342.05,218.77 316.44,212.29 308.18,232.02 300.8,233.51 279.82,271.11 263.53,271.15 258.32,283.54 267.15,287.26 260.84,304.19 264.16,319.72 271.77,331.96 260.53,352.16 251.6,350.72 235.84,380.46 247.19,386.55 260.09,384.7 272.59,395.39 272.45,409.66 285.91,410.67 299.22,416.8 308.71,411.38 315.29,416.73 310.77,438.29 325.09,454.15 319.87,467.12 329.83,489.7 350.34,505.15 350.74,513.72 335.38,520.13 329.34,527.94 331.92,549.72 339.03,560.78 344.89,604.36 360.64,597.38 376.95,605.26 386.35,604.95 393.99,622.29 384.94,644.88 374.02,652.58 350.45,681.61 342.75,677.96 335.2,691.45 345.41,710.02 339.29,729.83 326.1,724.3 315.66,713.71 301.33,713.85 292.22,723.84 274.75,730.15 268.56,740.23 243.47,729.7 222.05,736.4 203.88,715.21 199.26,698.48 184.23,672.81 166.62,683.03 146.48,699.41 144.22,698.76 144.89,681.07 154.13,668.85 148.26,652.07 136.58,643.06 121.98,642.5 141.6,604.97 144.75,573.1 140.02,544.36 134.1,538.42 130.83,514.3 124.8,503.22 118.11,476.1 113.26,443.92 97.57,417.59 94.94,395.2 91.37,348.77 89.97,312.15 92.05,308.24 95.44,295.8 98.37,278.78 98.93,249.09 100.16,242.29 98.56,226.8" fill="none" stroke="#1e1e1e" stroke-width="1.55" stroke-linecap="round" stroke-linejoin="round"/>
<path d="M53.94,676.89L44.27,674.77L70.51,622.16L82.13,591.78L89.02,565.78L96.92,530.11L100.48,497.69L101.48,456.59L111.93,453.01L110.44,482.66L106.92,522.51L104.76,528.14L99.52,562.2L92.05,587.04L98.46,597.01L90.48,609.83L89.16,610.35L79.75,626.54L79.21,647.65L66.55,655.13L63.84,657.88L61.61,664.64L53.94,676.89Z" fill-rule="evenodd" fill="#4682b4" fill-opacity="0.471"/>
<polyline points="53.94,676.89 44.27,674.77 70.51,622.16 82.13,591.78 89.02,565.78 96.92,530.11 100.48,497.69 101.48,456.59 111.93,453.01 110.44,482.66 106.92,522.51 104.76,528.14 99.52,562.2 92.05,587.04 98.46,597.01 90.48,609.83 89.16,610.35 79.75,626.54 79.21,647.65 66.55,655.13 63.84,657.88 61.61,664.64 53.94,676.89" fill="none" stroke="#1e1e1e" stroke-width="1.55" stroke-linecap="round" stroke-linejoin="round"/>
<path d="M605.43,583L618.86,573.53L632.05,558.33L637.74,565.84L663.3,565.1L656.57,582.12L676.23,588.12L689.34,576.32L710.72,573.75L723.43,565.92L736.02,567.21L735.31,544.94L752.2,536.56L786.76,535.78L795.31,553.55L818.04,540.62L840.52,557.34L840.48,563.05L859.5,571.17L865.4,558.08L884.48,556.47L896.07,565.09L892.14,576.49L901.16,584.52L922.83,587.46L922.86,578.32L946.84,558.99L986.6,543.06L995.32,536.78L1020.21,567.6L1035.07,561.3L1051.6,583.54L1046.46,602.38L1054.24,604.08L1072.68,598.32L1096.97,601.08L1098.84,583.95L1112.81,595.87L1131.64,604.33L1136.79,600.31L1158.53,606.44L1163.88,630.38L1173.62,631.45L1170.17,646.89L1160.26,667.51L1161.36,685.2L1168.86,689.71L1172.89,706.24L1167.8,721.12L1198.78,727.72L1191.07,740.34L1199.43,764.82L1217.31,793.2L1246.08,826.01L1215.32,859.43L1224.27,869.62L1236.7,868.36L1247.66,881.37L1258.19,885.25L1261.91,895.48L1281.9,893.53L1300.8,908.71L1300.26,917.85L1281.65,926.65L1285.93,953.43L1267.89,958.21L1238.22,951.12L1234.36,960.29L1220.23,961.57L1214.06,969.62L1227.29,976.35L1212.75,1006.17L1199.99,1016.56L1187.94,1035.5L1190.12,1059.46L1185.87,1065.2L1196.23,1078.82L1174.82,1089.84L1172.08,1121.26L1167.15,1127L1140.65,1127.75L1125.38,1123.27L1122.32,1108.44L1102.8,1110.25L1091.25,1120.01L1069.07,1123.51L1055.78,1109.27L1039.24,1115.01L1033.97,1133.29L1025.7,1144.72L1004.15,1149.87L1005.47,1160.72L981.59,1157.86L953.72,1158.39L966.69,1139L955.11,1125.28L952.16,1112.14L935.92,1116.67L921.76,1093.22L935.34,1086.98L927.44,1074.4L914.88,1076.07L911.27,1066.92L921.55,1057.83L926.86,1048.14L913.76,1020.69L923.67,1015.02L915.16,1000.15L917.51,987.03L908.96,984.71L916.92,967.05L905.78,955.59L909.45,944.18L885.19,930.95L897.04,924.72L884.29,914.39L870.79,920.02L863.59,917.13L862.41,895.43L836.25,883.84L852.41,867.96L872.06,870.37L885.24,854.45L896.05,855.07L899.39,837.96L887.98,830.49L861.19,825.78L842.31,812.52L865.04,783.56L865.17,761.3L872.76,744.78L852.29,736.1L831.13,734.81L825.07,718.21L799.96,723.14L777.21,718.93L768.08,721.12L767.64,700.57L727.84,710.4L707.68,709.01L716.95,696.57L700.78,689.51L703.26,674.13L677.57,676.06L666.78,680.47L658.2,667.21L641.37,663.53L649.45,645.39L642.47,635L632.7,637.7L623.42,630.12L626.32,611.33L611.68,615.08L605.43,583Z" fill-rule="evenodd" fill="#4682b4" fill-opacity="0.471"/>
<polyline points="605.43,583 618.86,573.53 632.05,558.33 637.74,565.84 663.3,565.1 656.57,582.12 676.23,588.12 689.34,576.32 710.72,573.75 723.43,565.92 736.02,567.21 735.31,544.94 752.2,536.56 786.76,535.78 795.31,553.55 818.04,540.62 840.52,557.34 840.48,563.05 859.5,571.17 865.4,558.08 884.48,556.47 896.07,565.09 892.14,576.49 901.16,584.52 922.83,587.46 922.86,578.32 946.84,558.99 986.6,543.06 995.32,536.78 1020.21,567.6 1035.07,561.3 1051.6,583.54 1046.46,602.38 1054.24,604.08 1072.68,598.32 1096.97,601.08 1098.84,583.95 1112.81,595.87 1131.64,604.33 1136.79,600.31 1158.53,606.44 1163.88,630.38 1173.62,631.45 1170.17,646.89 1160.26,667.51 1161.36,685.2 1168.86,689.71 1172.89,706.24 1167.8,721.12 1198.78,727.72 1191.07,740.34 1199.43,764.82 1217.31,793.2 1246.08,826.01 1215.32,859.43 1224.27,869.62 1236.7,868.36 1247.66,881.37 1258.19,885.25 1261.91,895.48 1281.9,893.53 1300.8,908.71 1300.26,917.85 1281.65,926.65 1285.93,953.43 1267.89,958.21 1238.22,951.12 1234.36,960.29 1220.23,961.57 1214.06,969.62 1227.29,976.35 1212.75,1006.17 1199.99,1016.56 1187.94,1035.5 1190.12,1059.46 1185.87,1065.2 1196.23,1078.82 1174.82,1089.84 1172.08,1121.26 1167.15,1127 1140.65,1127.75 1125.38,1123.27 1122.32,1108.44 1102.8,1110.25 1091.25,1120.01 1069.07,1123.51 1055.78,1109.27 1039.24,1115.01 1033.97,1133.29 1025.7,1144.72 1004.15,1149.87 1005.47,1160.72 981.59,1157.86 953.72,1158.39 966.69,1139 955.11,1125.28 952.16,1112.14 935.92,1116.67 921.76,1093.22 935.34,1086.98 927.44,1074.4 914.88,1076.07 911.27,1066.92 921.55,1057.83 926.86,1048.14 913.76,1020.69 923.67,1015.02 915.16,1000.15 917.51,987.03 908.96,984.71 916.92,967.05 905.78,955.59 909.45,944.18 885.19,930.95 897.04,924.72 884.29,914.39 870.79,920.02 863.59,917.13 862.41,895.43 836.25,883.84 852.41,867.96 872.06,870.37 885.24,854.45 896.05,855.07 899.39,837.96 887.98,830.49 861.19,825.78 842.31,812.52 865.04,783.56 865.17,761.3 872.76,744.78 852.29,736.1 831.13,734.81 825.07,718.21 799.96,723.14 777.21,718.93 768.08,721.12 767.64,700.57 727.84,710.4 707.68,709.01 716.95,696.57 700.78,689.51 703.26,674.13 677.57,676.06 666.78,680.47 658.2,667.21 641.37,663.53 649.45,645.39 642.47,635 632.7,637.7 623.42,630.12 626.32,611.33 611.68,615.08 605.43,583" fill="none" stroke="#1e1e1e" stroke-width="1.55" stroke-linecap="round" stroke-linejoin="round"/>
<path d="M573.33,811.36L595.01,823.75L622.9,818.52L637.44,808.48L668.58,802.1L690.1,805.83L709.82,796.38L728.15,793.75L753.52,803.17L818.75,816.35L842.31,812.52L861.19,825.78L887.98,830.49L899.39,837.96L896.05,855.07L885.24,854.45L872.06,870.37L852.41,867.96L836.25,883.84L862.41,895.43L863.59,917.13L870.79,920.02L884.29,914.39L897.04,924.72L885.19,930.95L909.45,944.18L905.78,955.59L916.92,967.05L908.96,984.71L917.51,987.03L915.16,1000.15L923.67,1015.02L913.76,1020.69L926.86,1048.14L921.55,1057.83L911.27,1066.92L914.88,1076.07L927.44,1074.4L935.34,1086.98L921.76,1093.22L935.92,1116.67L952.16,1112.14L955.11,1125.28L966.69,1139L953.72,1158.39L941.47,1149.8L931.17,1155.48L924.59,1138.9L916.65,1133.17L900.67,1149.66L880.72,1160.41L872.43,1159.79L872.94,1188.34L846.3,1196.74L850.16,1216.75L835.2,1216.08L823.86,1220.56L814.74,1237.62L816.31,1249.62L805.93,1255.82L812.51,1266.72L809.06,1280.96L779.75,1276.14L769.24,1260.05L753.29,1255.32L748.75,1244.42L732.65,1254.52L716.11,1244.05L718.34,1225.23L700.47,1217.59L702.63,1205.05L697.35,1201.56L648.3,1191.73L639.68,1211.58L633.29,1216.05L632.35,1212.61L625.18,1203.36L615.43,1170.08L604.9,1164.2L602.76,1134.47L598.06,1118.4L607.32,1100.29L600.29,1085.33L619.48,1065.1L624.03,1049.76L615.89,1042.77L615.86,1024.5L620.1,1007.44L630.86,994.49L656.08,982.89L664.12,973.3L665.47,948.2L653.9,930.9L658.71,916.7L645.79,902.81L624.05,887.62L617.08,873.23L599.3,858.65L590.09,860.77L577.31,843.41L573.33,811.36Z" fill-rule="evenodd" fill="#4682b4" fill-opacity="0.471"/>
<polyline points="573.33,811.36 595.01,823.75 622.9,818.52 637.44,808.48 668.58,802.1 690.1,805.83 709.82,796.38 728.15,793.75 753.52,803.17 818.75,816.35 842.31,812.52 861.19,825.78 887.98,830.49 899.39,837.96 896.05,855.07 885.24,854.45 872.06,870.37 852.41,867.96 836.25,883.84 862.41,895.43 863.59,917.13 870.79,920.02 884.29,914.39 897.04,924.72 885.19,930.95 909.45,944.18 905.78,955.59 916.92,967.05 908.96,984.71 917.51,987.03 915.16,1000.15 923.67,1015.02 913.76,1020.69 926.86,1048.14 921.55,1057.83 911.27,1066.92 914.88,1076.07 927.44,1074.4 935.34,1086.98 921.76,1093.22 935.92,1116.67 952.16,1112.14 955.11,1125.28 966.69,1139 953.72,1158.39 941.47,1149.8 931.17,1155.48 924.59,1138.9 916.65,1133.17 900.67,1149.66 880.72,1160.41 872.43,1159.79 872.94,1188.34 846.3,1196.74 850.16,1216.75 835.2,1216.08 823.86,1220.56 814.74,1237.62 816.31,1249.62 805.93,1255.82 812.51,1266.72 809.06,1280.96 779.75,1276.14 769.24,1260.05 753.29,1255.32 748.75,1244.42 732.65,1254.52 716.11,1244.05 718.34,1225.23 700.47,1217.59 702.63,1205.05 697.35,1201.56 648.3,1191.73 639.68,1211.58 633.29,1216.05 632.35,1212.61 625.18,1203.36 615.43,1170.08 604.9,1164.2 602.76,1134.47 598.06,1118.4 607.32,1100.29 600.29,1085.33 619.48,1065.1 624.03,1049.76 615.89,1042.77 615.86,1024.5 620.1,1007.44 630.86,994.49 656.08,982.89 664.12,973.3 665.47,948.2 653.9,930.9 658.71,916.7 645.79,902.81 624.05,887.62 617.08,873.23 599.3,858.65 590.09,860.77 577.31,843.41 573.33,811.36" fill="none" stroke="#1e1e1e" stroke-width="1.55" stroke-linecap="round" stroke-linejoin="round"/>
<path d="M995.32,536.78L1001.45,528.22L1009.83,497.39L1025.63,503.66L1028.2,496.24L1046.24,492.78L1037.82,471.11L1044.24,460.82L1044.18,429.99L1039,408.31L1028.41,408.9L1021,378.08L1038.63,376.91L1044.37,362.63L1060.68,352.89L1064.1,316.91L1051.63,317.51L1037.87,306.69L1041.02,285L1055.66,266.12L1057.2,245L1066.75,242.12L1074.31,213.55L1089.89,211.78L1091.38,186.65L1074.71,144.46L1081.67,139.87L1097.18,131.82L1141.78,115.59L1146.93,128.69L1157.69,125.19L1167.59,134.82L1193.2,126.05L1212.46,118.45L1216.07,99L1232.03,80.57L1232.53,68.57L1250.24,68.38L1254.21,56.34L1278.21,54.91L1305.56,44.84L1308.46,25.95L1317.94,26.96L1318.18,43.52L1330.49,64.46L1339.79,72.89L1341.54,104.27L1368.25,129.54L1370.84,151.76L1380.45,175.01L1405.67,181.41L1425.49,170.77L1440.17,189.89L1451.76,197.08L1467.87,191.61L1479.9,189.07L1504.26,197.1L1513.58,187.74L1526.57,185.73L1531.32,198.18L1556.52,200.42L1574.56,209.09L1571.23,228.03L1594.81,239.97L1613.8,246.31L1623.71,258.6L1627.38,275.63L1640.51,276.97L1664.06,284.84L1687.54,300.13L1687.7,305.26L1674.95,306.79L1663.81,319.12L1669.81,337.79L1662.82,350.56L1642.75,354.58L1643.64,374.54L1624.31,371.66L1623.6,392.24L1617.26,406.69L1596.49,398.69L1589.85,402.86L1589.4,422.29L1576.03,439.77L1573.74,425.55L1562.63,431.54L1547.99,424.48L1542.5,436.61L1529.84,431.77L1522.28,438.23L1517.23,428.64L1504.75,431.21L1480.59,414.04L1472.27,415.36L1462.64,431.54L1450.11,431.8L1441.29,441.11L1387.64,462.65L1383.12,443.32L1358.21,434.03L1345.65,432.51L1339.33,439.46L1313.99,443.82L1300.12,440.59L1288.31,447.59L1263.8,442.19L1265.36,465L1273.15,470.62L1266.31,491.25L1267.77,505.51L1252.68,510.82L1251.68,537.66L1245.45,558.28L1244.5,590.26L1229.68,596.7L1213.77,591.72L1207.37,599.2L1212.98,611.13L1173.62,631.45L1163.88,630.38L1158.53,606.44L1136.79,600.31L1131.64,604.33L1112.81,595.87L1098.84,583.95L1096.97,601.08L1072.68,598.32L1054.24,604.08L1046.46,602.38L1051.6,583.54L1035.07,561.3L1020.21,567.6L995.32,536.78Z" fill-rule="evenodd" fill="#4682b4" fill-opacity="0.471"/>
<polyline points="995.32,536.78 1001.45,528.22 1009.83,497.39 1025.63,503.66 1028.2,496.24 1046.24,492.78 1037.82,471.11 1044.24,460.82 1044.18,429.99 1039,408.31 1028.41,408.9 1021,378.08 1038.63,376.91 1044.37,362.63 1060.68,352.89 1064.1,316.91 1051.63,317.51 1037.87,306.69 1041.02,285 1055.66,266.12 1057.2,245 1066.75,242.12 1074.31,213.55 1089.89,211.78 1091.38,186.65 1074.71,144.46 1081.67,139.87 1097.18,131.82 1141.78,115.59 1146.93,128.69 1157.69,125.19 1167.59,134.82 1193.2,126.05 1212.46,118.45 1216.07,99 1232.03,80.57 1232.53,68.57 1250.24,68.38 1254.21,56.34 1278.21,54.91 1305.56,44.84 1308.46,25.95 1317.94,26.96 1318.18,43.52 1330.49,64.46 1339.79,72.89 1341.54,104.27 1368.25,129.54 1370.84,151.76 1380.45,175.01 1405.67,181.41 1425.49,170.77 1440.17,189.89 1451.76,197.08 1467.87,191.61 1479.9,189.07 1504.26,197.1 1513.58,187.74 1526.57,185.73 1531.32,198.18 1556.52,200.42 1574.56,209.09 1571.23,228.03 1594.81,239.97 1613.8,246.31 1623.71,258.6 1627.38,275.63 1640.51,276.97 1664.06,284.84 1687.54,300.13 1687.7,305.26 1674.95,306.79 1663.81,319.12 1669.81,337.79 1662.82,350.56 1642.75,354.58 1643.64,374.54 1624.31,371.66 1623.6,392.24 1617.26,406.69 1596.49,398.69 1589.85,402.86 1589.4,422.29 1576.03,439.77 1573.74,425.55 1562.63,431.54 1547.99,424.48 1542.5,436.61 1529.84,431.77 1522.28,438.23 1517.23,428.64 1504.75,431.21 1480.59,414.04 1472.27,415.36 1462.64,431.54 1450.11,431.8 1441.29,441.11 1387.64,462.65 1383.12,443.32 1358.21,434.03 1345.65,432.51 1339.33,439.46 1313.99,443.82 1300.12,440.59 1288.31,447.59 1263.8,442.19 1265.36,465 1273.15,470.62 1266.31,491.25 1267.77,505.51 1252.68,510.82 1251.68,537.66 1245.45,558.28 1244.5,590.26 1229.68,596.7 1213.77,591.72 1207.37,599.2 1212.98,611.13 1173.62,631.45 1163.88,630.38 1158.53,606.44 1136.79,600.31 1131.64,604.33 1112.81,595.87 1098.84,583.95 1096.97,601.08 1072.68,598.32 1054.24,604.08 1046.46,602.38 1051.6,583.54 1035.07,561.3 1020.21,567.6 995.32,536.78" fill="none" stroke="#1e1e1e" stroke-width="1.55" stroke-linecap="round" stroke-linejoin="round"/>
<path d="M616.19,333.69L612.35,315.35L605.11,308.94L588.17,308.63L596.51,271.67L593.92,256.21L631.47,242.02L624.29,233.33L620.79,214.43L605.08,220.44L591.82,231.62L581.41,226.28L581.19,204.01L568.35,193.49L584.76,183.52L595.27,182L594.85,152.87L601.47,138.15L588.81,136.2L583.61,109.27L594.68,75.78L601.72,71.34L615.8,80.16L632.13,68.44L641.56,72.02L666.53,72.99L691.62,65.93L692.41,54.52L699.17,45.47L718.05,50.86L718.72,72.57L725.42,93.78L738.98,97.94L746.14,108.87L775.14,90.92L770.89,73.74L805.38,71.22L813.97,65.01L841.13,68.65L855.9,83.03L889.38,94.64L916.34,78.77L952.09,73.74L964.11,74.33L968.51,90.9L990.98,91.49L1021.37,96.05L1039.41,96.02L1040.7,106.87L1048.94,113.7L1048.02,124.55L1064.5,126.22L1081.67,139.87L1074.71,144.46L1091.38,186.65L1089.89,211.78L1074.31,213.55L1066.75,242.12L1057.2,245L1055.66,266.12L1041.02,285L1037.87,306.69L1051.63,317.51L1064.1,316.91L1060.68,352.89L1044.37,362.63L1038.63,376.91L1021,378.08L1028.41,408.9L1039,408.31L1044.18,429.99L1044.24,460.82L1037.82,471.11L1046.24,492.78L1028.2,496.24L1025.63,503.66L1009.83,497.39L1001.45,528.22L995.32,536.78L986.6,543.06L946.84,558.99L922.86,578.32L922.83,587.46L901.16,584.52L892.14,576.49L896.07,565.09L884.48,556.47L865.4,558.08L859.5,571.17L840.48,563.05L840.52,557.34L818.04,540.62L795.31,553.55L786.76,535.78L752.2,536.56L735.31,544.94L736.02,567.21L723.43,565.92L710.72,573.75L689.34,576.32L676.23,588.12L656.57,582.12L663.3,565.1L637.74,565.84L632.05,558.33L618.86,573.53L605.43,583L589.64,579.29L596.99,566.3L577.4,541.96L577.66,528.26L565.68,529.74L558.83,517.05L550.81,514.61L554.74,495.27L543.3,487.05L540.18,466.43L545.54,456.26L556.46,457.05L561.51,445.73L556.93,433.65L560.06,421.15L547.95,400.36L579.65,387.84L578.59,358.7L595.85,361.3L604.62,354.61L603.01,336.88L616.19,333.69Z" fill-rule="evenodd" fill="#4682b4" fill-opacity="0.471"/>
<polyline points="616.19,333.69 612.35,315.35 605.11,308.94 588.17,308.63 596.51,271.67 593.92,256.21 631.47,242.02 624.29,233.33 620.79,214.43 605.08,220.44 591.82,231.62 581.41,226.28 581.19,204.01 568.35,193.49 584.76,183.52 595.27,182 594.85,152.87 601.47,138.15 588.81,136.2 583.61,109.27 594.68,75.78 601.72,71.34 615.8,80.16 632.13,68.44 641.56,72.02 666.53,72.99 691.62,65.93 692.41,54.52 699.17,45.47 718.05,50.86 718.72,72.57 725.42,93.78 738.98,97.94 746.14,108.87 775.14,90.92 770.89,73.74 805.38,71.22 813.97,65.01 841.13,68.65 855.9,83.03 889.38,94.64 916.34,78.77 952.09,73.74 964.11,74.33 968.51,90.9 990.98,91.49 1021.37,96.05 1039.41,96.02 1040.7,106.87 1048.94,113.7 1048.02,124.55 1064.5,126.22 1081.67,139.87 1074.71,144.46 1091.38,186.65 1089.89,211.78 1074.31,213.55 1066.75,242.12 1057.2,245 1055.66,266.12 1041.02,285 1037.87,306.69 1051.63,317.51 1064.1,316.91 1060.68,352.89 1044.37,362.63 1038.63,376.91 1021,378.08 1028.41,408.9 1039,408.31 1044.18,429.99 1044.24,460.82 1037.82,471.11 1046.24,492.78 1028.2,496.24 1025.63,503.66 1009.83,497.39 1001.45,528.22 995.32,536.78 986.6,543.06 946.84,558.99 922.86,578.32 922.83,587.46 901.16,584.52 892.14,576.49 896.07,565.09 884.48,556.47 865.4,558.08 859.5,571.17 840.48,563.05 840.52,557.34 818.04,540.62 795.31,553.55 786.76,535.78 752.2,536.56 735.31,544.94 736.02,567.21 723.43,565.92 710.72,573.75 689.34,576.32 676.23,588.12 656.57,582.12 663.3,565.1 637.74,565.84 632.05,558.33 618.86,573.53 605.43,583 589.64,579.29 596.99,566.3 577.4,541.96 577.66,528.26 565.68,529.74 558.83,517.05 550.81,514.61 554.74,495.27 543.3,487.05 540.18,466.43 545.54,456.26 556.46,457.05 561.51,445.73 556.93,433.65 560.06,421.15 547.95,400.36 579.65,387.84 578.59,358.7 595.85,361.3 604.62,354.61 603.01,336.88 616.19,333.69" fill="none" stroke="#1e1e1e" stroke-width="1.55" stroke-linecap="round" stroke-linejoin="round"/>
<path d="M268.56,740.23L274.75,730.15L292.22,723.84L301.33,713.85L315.66,713.71L326.1,724.3L339.29,729.83L345.41,710.02L335.2,691.45L342.75,677.96L350.45,681.61L374.02,652.58L384.94,644.88L393.99,622.29L386.35,604.95L376.95,605.26L360.64,597.38L344.89,604.36L339.03,560.78L331.92,549.72L329.34,527.94L335.38,520.13L350.74,513.72L350.34,505.15L380.56,497.43L393.36,501.21L412.87,482.88L420.27,471.08L429.47,476.46L439.74,465.29L471.45,458.64L487,468.71L504.11,466.81L507.51,473.16L540.18,466.43L543.3,487.05L554.74,495.27L550.81,514.61L558.83,517.05L565.68,529.74L577.66,528.26L577.4,541.96L596.99,566.3L589.64,579.29L605.43,583L611.68,615.08L626.32,611.33L623.42,630.12L632.7,637.7L642.47,635L649.45,645.39L641.37,663.53L658.2,667.21L666.78,680.47L677.57,676.06L703.26,674.13L700.78,689.51L716.95,696.57L707.68,709.01L727.84,710.4L767.64,700.57L768.08,721.12L777.21,718.93L799.96,723.14L825.07,718.21L831.13,734.81L852.29,736.1L872.76,744.78L865.17,761.3L865.04,783.56L842.31,812.52L818.75,816.35L753.52,803.17L728.15,793.75L709.82,796.38L690.1,805.83L668.58,802.1L637.44,808.48L622.9,818.52L595.01,823.75L573.33,811.36L560.21,813.4L532.83,825.41L519.54,819.43L470.64,812.64L431.95,816.84L413.19,834.07L401.48,831.48L390.75,816.35L391.54,799.24L380.48,797.23L369.82,804.36L333.27,790.76L320.61,777.25L302.75,773.86L268.56,740.23Z" fill-rule="evenodd" fill="#4682b4" fill-opacity="0.471"/>
<polyline points="268.56,740.23 274.75,730.15 292.22,723.84 301.33,713.85 315.66,713.71 326.1,724.3 339.29,729.83 345.41,710.02 335.2,691.45 342.75,677.96 350.45,681.61 374.02,652.58 384.94,644.88 393.99,622.29 386.35,604.95 376.95,605.26 360.64,597.38 344.89,604.36 339.03,560.78 331.92,549.72 329.34,527.94 335.38,520.13 350.74,513.72 350.34,505.15 380.56,497.43 393.36,501.21 412.87,482.88 420.27,471.08 429.47,476.46 439.74,465.29 471.45,458.64 487,468.71 504.11,466.81 507.51,473.16 540.18,466.43 543.3,487.05 554.74,495.27 550.81,514.61 558.83,517.05 565.68,529.74 577.66,528.26 577.4,541.96 596.99,566.3 589.64,579.29 605.43,583 611.68,615.08 626.32,611.33 623.42,630.12 632.7,637.7 642.47,635 649.45,645.39 641.37,663.53 658.2,667.21 666.78,680.47 677.57,676.06 703.26,674.13 700.78,689.51 716.95,696.57 707.68,709.01 727.84,710.4 767.64,700.57 768.08,721.12 777.21,718.93 799.96,723.14 825.07,718.21 831.13,734.81 852.29,736.1 872.76,744.78 865.17,761.3 865.04,783.56 842.31,812.52 818.75,816.35 753.52,803.17 728.15,793.75 709.82,796.38 690.1,805.83 668.58,802.1 637.44,808.48 622.9,818.52 595.01,823.75 573.33,811.36 560.21,813.4 532.83,825.41 519.54,819.43 470.64,812.64 431.95,816.84 413.19,834.07 401.48,831.48 390.75,816.35 391.54,799.24 380.48,797.23 369.82,804.36 333.27,790.76 320.61,777.25 302.75,773.86 268.56,740.23" fill="none" stroke="#1e1e1e" stroke-width="1.55" stroke-linecap="round" stroke-linejoin="round"/>
<path d="M235.84,380.46L251.6,350.72L260.53,352.16L271.77,331.96L264.16,319.72L260.84,304.19L267.15,287.26L258.32,283.54L263.53,271.15L279.82,271.11L300.8,233.51L308.18,232.02L316.44,212.29L342.05,218.77L343.1,204.53L365,206.88L376.67,199.78L378.99,185L386.63,161.79L402.44,164.51L396.28,134.07L389.64,121.9L394.14,96.32L378.7,93.6L381.74,75.41L391.51,76.83L395.09,50.08L399.78,40.5L416.26,38.66L441.74,30.75L454.51,37.92L467.5,35.95L477.6,49.9L499.84,44.71L510.37,54.08L535.21,45.48L557.47,53.94L596.19,62.67L601.72,71.34L594.68,75.78L583.61,109.27L588.81,136.2L601.47,138.15L594.85,152.87L595.27,182L584.76,183.52L568.35,193.49L581.19,204.01L581.41,226.28L591.82,231.62L605.08,220.44L620.79,214.43L624.29,233.33L631.47,242.02L593.92,256.21L596.51,271.67L588.17,308.63L605.11,308.94L612.35,315.35L616.19,333.69L603.01,336.88L604.62,354.61L595.85,361.3L578.59,358.7L579.65,387.84L547.95,400.36L560.06,421.15L556.93,433.65L561.51,445.73L556.46,457.05L545.54,456.26L540.18,466.43L507.51,473.16L504.11,466.81L487,468.71L471.45,458.64L439.74,465.29L429.47,476.46L420.27,471.08L412.87,482.88L393.36,501.21L380.56,497.43L350.34,505.15L329.83,489.7L319.87,467.12L325.09,454.15L310.77,438.29L315.29,416.73L308.71,411.38L299.22,416.8L285.91,410.67L272.45,409.66L272.59,395.39L260.09,384.7L247.19,386.55L235.84,380.46Z" fill-rule="evenodd" fill="#4682b4" fill-opacity="0.471"/>
<polyline points="235.84,380.46 251.6,350.72 260.53,352.16 271.77,331.96 264.16,319.72 260.84,304.19 267.15,287.26 258.32,283.54 263.53,271.15 279.82,271.11 300.8,233.51 308.18,232.02 316.44,212.29 342.05,218.77 343.1,204.53 365,206.88 376.67,199.78 378.99,185 386.63,161.79 402.44,164.51 396.28,134.07 389.64,121.9 394.14,96.32 378.7,93.6 381.74,75.41 391.51,76.83 395.09,50.08 399.78,40.5 416.26,38.66 441.74,30.75 454.51,37.92 467.5,35.95 477.6,49.9 499.84,44.71 510.37,54.08 535.21,45.48 557.47,53.94 596.19,62.67 601.72,71.34 594.68,75.78 583.61,109.27 588.81,136.2 601.47,138.15 594.85,152.87 595.27,182 584.76,183.52 568.35,193.49 581.19,204.01 581.41,226.28 591.82,231.62 605.08,220.44 620.79,214.43 624.29,233.33 631.47,242.02 593.92,256.21 596.51,271.67 588.17,308.63 605.11,308.94 612.35,315.35 616.19,333.69 603.01,336.88 604.62,354.61 595.85,361.3 578.59,358.7 579.65,387.84 547.95,400.36 560.06,421.15 556.93,433.65 561.51,445.73 556.46,457.05 545.54,456.26 540.18,466.43 507.51,473.16 504.11,466.81 487,468.71 471.45,458.64 439.74,465.29 429.47,476.46 420.27,471.08 412.87,482.88 393.36,501.21 380.56,497.43 350.34,505.15 329.83,489.7 319.87,467.12 325.09,454.15 310.77,438.29 315.29,416.73 308.71,411.38 299.22,416.8 285.91,410.67 272.45,409.66 272.59,395.39 260.09,384.7 247.19,386.55 235.84,380.46" fill="none" stroke="#1e1e1e" stroke-width="1.55" stroke-linecap="round" stroke-linejoin="round"/>
<path d="M1263.8,442.19L1288.31,447.59L1300.12,440.59L1313.99,443.82L1339.33,439.46L1345.65,432.51L1358.21,434.03L1383.12,443.32L1387.64,462.65L1441.29,441.11L1450.11,431.8L1462.64,431.54L1472.27,415.36L1480.59,414.04L1504.75,431.21L1517.23,428.64L1522.28,438.23L1529.84,431.77L1542.5,436.61L1547.99,424.48L1562.63,431.54L1573.74,425.55L1576.03,439.77L1589.4,422.29L1589.85,402.86L1596.49,398.69L1617.26,406.69L1623.6,392.24L1624.31,371.66L1643.64,374.54L1642.75,354.58L1662.82,350.56L1669.81,337.79L1663.81,319.12L1674.95,306.79L1687.7,305.26L1712.55,342.18L1739.81,352.72L1748.22,364.43L1749.34,378.67L1762.39,403.94L1775.36,416.63L1788.91,417.87L1797.93,436.4L1819.46,435.62L1848.44,452.83L1869.71,453.16L1880.19,449.32L1883.37,464.62L1881.98,511.52L1869.49,530.86L1852.68,539.5L1849.78,548.18L1861.46,574.58L1857.17,589.6L1863.24,604.22L1862.1,616.83L1836.9,628.63L1826.34,641.59L1858.53,651.24L1879.15,655.02L1900.51,644.47L1917.43,652.93L1940.82,652.54L1954.13,659.98L1955.61,671.92L1938.36,687.49L1927.1,690.81L1900.64,688.45L1883.89,693.11L1879.57,707.56L1865.79,713.8L1831.16,720.24L1809.05,712.47L1791.58,715.94L1768.34,712.74L1759.84,702.17L1735.51,714.97L1741.83,698.77L1723.84,675.93L1700.09,675.54L1693.95,687.15L1682.61,688.64L1664.84,681.74L1658.08,684.22L1640.21,673.31L1633.12,687.22L1622.07,687.52L1609.45,665.59L1597.63,673.33L1574.45,720.75L1573.37,742.48L1591.14,748.88L1591.58,766L1605.76,771.33L1615.82,781.34L1603.86,822.78L1594.15,827.03L1579.04,824.56L1576.16,814.36L1565.62,811.19L1535.39,818.78L1533.59,825.67L1499.35,831.01L1469.93,832.21L1460.61,824.41L1434.15,826.64L1433.65,800.38L1414.62,795.6L1415.69,764.75L1436.36,754.09L1438.66,738.05L1429.04,729.1L1417.7,732.17L1411.05,724.87L1420.07,701.87L1405.48,704.99L1394.02,700.62L1391.52,687.53L1382.83,673.41L1357.88,677.81L1353.59,673.88L1348.33,648.84L1328.03,658.85L1325.93,648.04L1310.74,652.25L1291.43,639.94L1287.92,619.44L1299.7,603.3L1288.27,595.46L1283.86,579.53L1245.45,558.28L1251.68,537.66L1252.68,510.82L1267.77,505.51L1266.31,491.25L1273.15,470.62L1265.36,465L1263.8,442.19Z" fill-rule="evenodd" fill="#4682b4" fill-opacity="0.471"/>
<polyline points="1263.8,442.19 1288.31,447.59 1300.12,440.59 1313.99,443.82 1339.33,439.46 1345.65,432.51 1358.21,434.03 1383.12,443.32 1387.64,462.65 1441.29,441.11 1450.11,431.8 1462.64,431.54 1472.27,415.36 1480.59,414.04 1504.75,431.21 1517.23,428.64 1522.28,438.23 1529.84,431.77 1542.5,436.61 1547.99,424.48 1562.63,431.54 1573.74,425.55 1576.03,439.77 1589.4,422.29 1589.85,402.86 1596.49,398.69 1617.26,406.69 1623.6,392.24 1624.31,371.66 1643.64,374.54 1642.75,354.58 1662.82,350.56 1669.81,337.79 1663.81,319.12 1674.95,306.79 1687.7,305.26 1712.55,342.18 1739.81,352.72 1748.22,364.43 1749.34,378.67 1762.39,403.94 1775.36,416.63 1788.91,417.87 1797.93,436.4 1819.46,435.62 1848.44,452.83 1869.71,453.16 1880.19,449.32 1883.37,464.62 1881.98,511.52 1869.49,530.86 1852.68,539.5 1849.78,548.18 1861.46,574.58 1857.17,589.6 1863.24,604.22 1862.1,616.83 1836.9,628.63 1826.34,641.59 1858.53,651.24 1879.15,655.02 1900.51,644.47 1917.43,652.93 1940.82,652.54 1954.13,659.98 1955.61,671.92 1938.36,687.49 1927.1,690.81 1900.64,688.45 1883.89,693.11 1879.57,707.56 1865.79,713.8 1831.16,720.24 1809.05,712.47 1791.58,715.94 1768.34,712.74 1759.84,702.17 1735.51,714.97 1741.83,698.77 1723.84,675.93 1700.09,675.54 1693.95,687.15 1682.61,688.64 1664.84,681.74 1658.08,684.22 1640.21,673.31 1633.12,687.22 1622.07,687.52 1609.45,665.59 1597.63,673.33 1574.45,720.75 1573.37,742.48 1591.14,748.88 1591.58,766 1605.76,771.33 1615.82,781.34 1603.86,822.78 1594.15,827.03 1579.04,824.56 1576.16,814.36 1565.62,811.19 1535.39,818.78 1533.59,825.67 1499.35,831.01 1469.93,832.21 1460.61,824.41 1434.15,826.64 1433.65,800.38 1414.62,795.6 1415.69,764.75 1436.36,754.09 1438.66,738.05 1429.04,729.1 1417.7,732.17 1411.05,724.87 1420.07,701.87 1405.48,704.99 1394.02,700.62 1391.52,687.53 1382.83,673.41 1357.88,677.81 1353.59,673.88 1348.33,648.84 1328.03,658.85 1325.93,648.04 1310.74,652.25 1291.43,639.94 1287.92,619.44 1299.7,603.3 1288.27,595.46 1283.86,579.53 1245.45,558.28 1251.68,537.66 1252.68,510.82 1267.77,505.51 1266.31,491.25 1273.15,470.62 1265.36,465 1263.8,442.19" fill="none" stroke="#1e1e1e" stroke-width="1.55" stroke-linecap="round" stroke-linejoin="round"/>
<path d="M1173.62,631.45L1212.98,611.13L1207.37,599.2L1213.77,591.72L1229.68,596.7L1244.5,590.26L1245.45,558.28L1283.86,579.53L1288.27,595.46L1299.7,603.3L1287.92,619.44L1291.43,639.94L1310.74,652.25L1325.93,648.04L1328.03,658.85L1348.33,648.84L1353.59,673.88L1357.88,677.81L1382.83,673.41L1391.52,687.53L1394.02,700.62L1405.48,704.99L1420.07,701.87L1411.05,724.87L1417.7,732.17L1429.04,729.1L1438.66,738.05L1436.36,754.09L1415.69,764.75L1414.62,795.6L1433.65,800.38L1434.15,826.64L1460.61,824.41L1469.93,832.21L1499.35,831.01L1533.59,825.67L1535.39,818.78L1565.62,811.19L1576.16,814.36L1579.04,824.56L1594.15,827.03L1603.86,822.78L1615.82,781.34L1605.76,771.33L1591.58,766L1591.14,748.88L1573.37,742.48L1574.45,720.75L1597.63,673.33L1609.45,665.59L1622.07,687.52L1633.12,687.22L1640.21,673.31L1658.08,684.22L1664.84,681.74L1682.61,688.64L1693.95,687.15L1700.09,675.54L1723.84,675.93L1741.83,698.77L1735.51,714.97L1759.84,702.17L1768.34,712.74L1791.58,715.94L1809.05,712.47L1831.16,720.24L1865.79,713.8L1879.57,707.56L1883.89,693.11L1900.64,688.45L1927.1,690.81L1921.32,700.76L1923.13,713.26L1905.67,724.81L1906.86,746.48L1888.22,754.07L1880.27,750.95L1862.86,756.76L1855,747.34L1843.19,754.64L1837.42,766.28L1825.13,760.44L1816.12,764.19L1803.38,754.94L1785.64,770.41L1773,773.12L1762.5,781.47L1776.44,797.57L1765.01,807.66L1767.7,819.57L1757.44,835.9L1757.73,844.46L1729.07,849.96L1716.59,869.77L1697.79,877.21L1675.7,873.3L1660.3,885.17L1643.96,887.35L1644.64,899.9L1624.36,926.73L1617.7,948.04L1610.78,947.65L1605.19,960.36L1610.7,981.92L1607.07,1031.69L1615.55,1064.59L1618.17,1088.5L1613.11,1097.21L1591.98,1112.6L1578.25,1146.64L1573.47,1167.89L1576.12,1180.96L1565.08,1205.22L1554.56,1210.61L1551.93,1239.8L1582.28,1241.34L1593.41,1233.63L1605.13,1248.75L1601.37,1257.99L1618.89,1264.95L1631.08,1284.04L1619.26,1291.21L1629.7,1306.92L1630.56,1326.32L1606.7,1321.81L1587.24,1345.73L1578.06,1339.67L1548.07,1330.69L1541.47,1319.99L1557.73,1301.33L1551.44,1289.49L1563.7,1285.77L1555.29,1268.84L1541.73,1259.45L1539.04,1244.1L1527.56,1252.35L1519.85,1250.24L1495.45,1262.2L1486.62,1270.38L1465.64,1271.95L1452.76,1278.48L1440.36,1275.87L1436.4,1295.93L1422.95,1308.74L1401.06,1337.1L1388.13,1344.17L1375.1,1344.96L1353.74,1326.45L1324.85,1340L1314.81,1339L1307.5,1317.4L1288.71,1310.79L1287.2,1297.1L1320.32,1277.83L1328.68,1256.02L1345.67,1255.2L1338.12,1217.63L1341.99,1209.58L1366.85,1204.06L1373.04,1195.97L1370.15,1181.74L1373.63,1170.83L1354.78,1175.7L1325.38,1186.98L1310.21,1195.18L1301.87,1193.01L1274.39,1201.34L1274.46,1179.64L1240.52,1173.17L1229.39,1189.27L1180.17,1182.85L1173.48,1176.62L1179.01,1160.6L1168.82,1129.27L1172.08,1121.26L1174.82,1089.84L1196.23,1078.82L1185.87,1065.2L1190.12,1059.46L1187.94,1035.5L1199.99,1016.56L1212.75,1006.17L1227.29,976.35L1214.06,969.62L1220.23,961.57L1234.36,960.29L1238.22,951.12L1267.89,958.21L1285.93,953.43L1281.65,926.65L1300.26,917.85L1300.8,908.71L1281.9,893.53L1261.91,895.48L1258.19,885.25L1247.66,881.37L1236.7,868.36L1224.27,869.62L1215.32,859.43L1246.08,826.01L1217.31,793.2L1199.43,764.82L1191.07,740.34L1198.78,727.72L1167.8,721.12L1172.89,706.24L1168.86,689.71L1161.36,685.2L1160.26,667.51L1170.17,646.89L1173.62,631.45Z" fill-rule="evenodd" fill="#4682b4" fill-opacity="0.471"/>
<polyline points="1173.62,631.45 1212.98,611.13 1207.37,599.2 1213.77,591.72 1229.68,596.7 1244.5,590.26 1245.45,558.28 1283.86,579.53 1288.27,595.46 1299.7,603.3 1287.92,619.44 1291.43,639.94 1310.74,652.25 1325.93,648.04 1328.03,658.85 1348.33,648.84 1353.59,673.88 1357.88,677.81 1382.83,673.41 1391.52,687.53 1394.02,700.62 1405.48,704.99 1420.07,701.87 1411.05,724.87 1417.7,732.17 1429.04,729.1 1438.66,738.05 1436.36,754.09 1415.69,764.75 1414.62,795.6 1433.65,800.38 1434.15,826.64 1460.61,824.41 1469.93,832.21 1499.35,831.01 1533.59,825.67 1535.39,818.78 1565.62,811.19 1576.16,814.36 1579.04,824.56 1594.15,827.03 1603.86,822.78 1615.82,781.34 1605.76,771.33 1591.58,766 1591.14,748.88 1573.37,742.48 1574.45,720.75 1597.63,673.33 1609.45,665.59 1622.07,687.52 1633.12,687.22 1640.21,673.31 1658.08,684.22 1664.84,681.74 1682.61,688.64 1693.95,687.15 1700.09,675.54 1723.84,675.93 1741.83,698.77 1735.51,714.97 1759.84,702.17 1768.34,712.74 1791.58,715.94 1809.05,712.47 1831.16,720.24 1865.79,713.8 1879.57,707.56 1883.89,693.11 1900.64,688.45 1927.1,690.81 1921.32,700.76 1923.13,713.26 1905.67,724.81 1906.86,746.48 1888.22,754.07 1880.27,750.95 1862.86,756.76 1855,747.34 1843.19,754.64 1837.42,766.28 1825.13,760.44 1816.12,764.19 1803.38,754.94 1785.64,770.41 1773,773.12 1762.5,781.47 1776.44,797.57 1765.01,807.66 1767.7,819.57 1757.44,835.9 1757.73,844.46 1729.07,849.96 1716.59,869.77 1697.79,877.21 1675.7,873.3 1660.3,885.17 1643.96,887.35 1644.64,899.9 1624.36,926.73 1617.7,948.04 1610.78,947.65 1605.19,960.36 1610.7,981.92 1607.07,1031.69 1615.55,1064.59 1618.17,1088.5 1613.11,1097.21 1591.98,1112.6 1578.25,1146.64 1573.47,1167.89 1576.12,1180.96 1565.08,1205.22 1554.56,1210.61 1551.93,1239.8 1582.28,1241.34 1593.41,1233.63 1605.13,1248.75 1601.37,1257.99 1618.89,1264.95 1631.08,1284.04 1619.26,1291.21 1629.7,1306.92 1630.56,1326.32 1606.7,1321.81 1587.24,1345.73 1578.06,1339.67 1548.07,1330.69 1541.47,1319.99 1557.73,1301.33 1551.44,1289.49 1563.7,1285.77 1555.29,1268.84 1541.73,1259.45 1539.04,1244.1 1527.56,1252.35 1519.85,1250.24 1495.45,1262.2 1486.62,1270.38 1465.64,1271.95 1452.76,1278.48 1440.36,1275.87 1436.4,1295.93 1422.95,1308.74 1401.06,1337.1 1388.13,1344.17 1375.1,1344.96 1353.74,1326.45 1324.85,1340 1314.81,1339 1307.5,1317.4 1288.71,1310.79 1287.2,1297.1 1320.32,1277.83 1328.68,1256.02 1345.67,1255.2 1338.12,1217.63 1341.99,1209.58 1366.85,1204.06 1373.04,1195.97 1370.15,1181.74 1373.63,1170.83 1354.78,1175.7 1325.38,1186.98 1310.21,1195.18 1301.87,1193.01 1274.39,1201.34 1274.46,1179.64 1240.52,1173.17 1229.39,1189.27 1180.17,1182.85 1173.48,1176.62 1179.01,1160.6 1168.82,1129.27 1172.08,1121.26 1174.82,1089.84 1196.23,1078.82 1185.87,1065.2 1190.12,1059.46 1187.94,1035.5 1199.99,1016.56 1212.75,1006.17 1227.29,976.35 1214.06,969.62 1220.23,961.57 1234.36,960.29 1238.22,951.12 1267.89,958.21 1285.93,953.43 1281.65,926.65 1300.26,917.85 1300.8,908.71 1281.9,893.53 1261.91,895.48 1258.19,885.25 1247.66,881.37 1236.7,868.36 1224.27,869.62 1215.32,859.43 1246.08,826.01 1217.31,793.2 1199.43,764.82 1191.07,740.34 1198.78,727.72 1167.8,721.12 1172.89,706.24 1168.86,689.71 1161.36,685.2 1160.26,667.51 1170.17,646.89 1173.62,631.45" fill="none" stroke="#1e1e1e" stroke-width="1.55" stroke-linecap="round" stroke-linejoin="round"/>
<text x="1375.85" y="959.54" font-family="sans-serif" font-size="14" stroke="#ffffff" stroke-opacity="0.784" stroke-width="2.33" stroke-linejoin="round" paint-order="stroke" fill="#141414">Vilnius County</text>
<text x="745.52" y="325.5" font-family="sans-serif" font-size="14" stroke="#ffffff" stroke-opacity="0.784" stroke-width="2.33" stroke-linejoin="round" paint-order="stroke" fill="#141414">Siauliai County</text>
<text x="928.61" y="818.84" font-family="sans-serif" font-size="14" stroke="#ffffff" stroke-opacity="0.784" stroke-width="2.33" stroke-linejoin="round" paint-order="stroke" fill="#141414">Kaunas County</text>
<text x="1206.59" y="337.2" font-family="sans-serif" font-size="14" stroke="#ffffff" stroke-opacity="0.784" stroke-width="2.33" stroke-linejoin="round" paint-order="stroke" fill="#141414">Panevezys County</text>
<text x="1522.69" y="581.45" font-family="sans-serif" font-size="14" stroke="#ffffff" stroke-opacity="0.784" stroke-width="2.33" stroke-linejoin="round" paint-order="stroke" fill="#141414">Utena County</text>
<text x="1013.46" y="1306.57" font-family="sans-serif" font-size="14" stroke="#ffffff" stroke-opacity="0.784" stroke-width="2.33" stroke-linejoin="round" paint-order="stroke" fill="#141414">Alytus County</text>
<text x="162.1" y="416.25" font-family="sans-serif" font-size="14" stroke="#ffffff" stroke-opacity="0.784" stroke-width="2.33" stroke-linejoin="round" paint-order="stroke" fill="#141414">Klaipeda County</text>
<text x="383.77" y="283.84" font-family="sans-serif" font-size="14" stroke="#ffffff" stroke-opacity="0.784" stroke-width="2.33" stroke-linejoin="round" paint-order="stroke" fill="#141414">Telsiai County</text>
<text x="457.6" y="685.88" font-family="sans-serif" font-size="14" stroke="#ffffff" stroke-opacity="0.784" stroke-width="2.33" stroke-linejoin="round" paint-order="stroke" fill="#141414">Taurage County</text>
<text x="671.93" y="1029.96" font-family="sans-serif" font-size="14" stroke="#ffffff" stroke-opacity="0.784" stroke-width="2.33" stroke-linejoin="round" paint-order="stroke" fill="#141414">Marijampole County</text>
</svg>
