<?xml version="1.0" encoding="UTF-8" standalone="no"?>
<svg xmlns="http://www.w3.org/2000/svg" width="1405" height="2000" viewBox="0 0 1405 2000">
<rect width="1405" height="2000" fill="#ffffff"/>
<path d="M195.39,533.66L190.23,528.26L181.59,528.23L178.17,520.15L167.84,512.05L162.7,501.28L164.44,498.6L161.02,490.52L162.78,482.47L159.38,469.02L168.04,463.68L176.68,461.03L185.34,455.69L202.62,453.07L216.47,442.37L216.5,434.31L218.25,428.94L230.34,426.3L226.95,410.16L223.51,407.46L235.62,399.44L235.65,391.38L242.56,388.72L242.58,383.34L247.77,380.67L242.63,369.91L232.32,356.43L227.15,356.41L223.72,348.34L220.28,345.64L225.49,337.6L225.51,332.22L232.46,318.81L241.1,313.47L244.57,308.1L251.49,302.75L273.94,294.77L277.39,292.09L279.15,284.03L277.5,259.84L286.19,238.37L291.38,233.01L291.47,203.45L301.85,192.74L317.38,184.72L324.3,176.68L329.47,176.69L344.99,171.36L351.89,166.01L363.96,163.35L374.31,158L386.37,158.03L395,152.68L405.33,152.7L401.94,131.2L405.41,120.46L403.72,107.01L405.45,101.64L400.29,98.94L415.81,88.23L407.24,72.09L410.71,61.35L410.74,45.22L412.48,39.85L417.64,39.86L422.82,34.5L453.8,34.56L477.9,31.92L495.12,23.88L503.73,18.52L515.79,13.17L524.35,45.43L524.33,58.86L527.76,66.93L538.08,75.01L558.73,83.09L572.5,91.17L582.83,93.87L591.44,88.5L596.61,83.13L608.66,83.14L612.12,67.02L608.68,53.58L608.69,45.52L617.3,42.84L625.9,45.53L636.23,50.91L648.28,45.54L679.26,67.05L679.26,69.74L674.09,77.8L670.65,85.86L675.81,88.55L680.98,96.61L687.86,101.98L679.25,107.36L670.64,118.11L665.47,139.6L679.25,139.61L691.3,144.98L698.19,155.73L710.25,155.73L710.25,161.11L708.53,166.48L708.53,171.86L706.81,171.86L696.47,177.23L693.02,193.36L696.47,198.73L703.36,198.73L705.09,201.42L698.19,214.86L698.19,217.54L703.36,220.23L706.81,225.61L706.81,228.29L696.47,228.29L691.3,230.98L689.57,233.67L689.57,239.04L694.74,249.79L701.64,249.79L701.64,252.48L699.91,257.85L696.47,257.85L684.4,252.48L679.22,257.85L679.22,273.98L682.67,279.35L682.67,287.41L677.49,300.85L672.32,306.22L674.04,308.91L682.67,308.91L684.39,300.85L687.84,298.16L694.74,303.54L694.74,308.91L689.56,314.29L680.94,319.66L679.21,330.41L668.86,333.1L665.41,343.84L667.13,349.22L670.58,349.22L675.76,354.6L679.21,351.91L679.21,343.85L682.66,341.16L686.11,343.85L686.11,351.91L680.93,359.97L686.11,368.03L689.56,370.72L691.28,376.1L701.64,389.53L705.09,400.28L696.46,419.1L696.46,427.16L715.45,437.91L718.9,437.91L724.08,443.28L724.08,445.97L722.36,451.34L710.27,462.09L705.09,462.09L701.64,454.03L696.46,456.72L703.36,462.09L710.27,475.53L713.73,475.53L727.54,478.22L731,480.9L731,486.28L725.82,497.03L725.82,502.4L724.09,507.78L722.37,510.46L718.91,510.46L713.73,505.09L712,505.09L710.27,507.78L710.27,510.47L713.73,515.84L718.91,518.53L725.82,518.53L732.73,521.21L737.92,534.65L743.1,540.02L753.47,540.02L767.3,545.39L770.75,545.38L769.03,548.07L763.84,548.07L763.85,556.14L760.39,558.83L756.94,577.64L756.95,585.7L762.13,591.07L767.33,604.51L775.97,607.19L779.44,626L781.17,631.37L796.73,623.3L788.08,620.62L788.08,612.56L784.61,599.12L789.79,591.06L796.7,588.36L805.35,591.05L805.36,601.8L808.82,612.54L807.1,620.61L815.76,639.41L814.04,644.79L819.21,631.34L826.12,625.96L831.31,625.96L833.05,631.33L838.24,639.39L858.99,639.36L858.99,642.05L846.9,652.82L852.1,658.18L864.22,674.29L859.04,682.36L862.52,695.79L850.42,706.56L850.43,711.93L862.55,717.29L869.47,717.28L874.67,728.03L876.41,736.09L872.96,744.15L864.31,746.85L872.98,757.59L876.46,773.71L888.6,784.44L897.25,784.43L902.46,792.48L905.93,800.54L914.6,805.9L918.07,811.27L919.81,819.33L925.02,824.69L938.88,830.05L944.09,835.41L949.28,835.4L956.2,830.01L961.39,830L966.61,838.05L973.54,840.73L977.01,843.41L977.02,848.78L980.5,856.84L987.45,864.88L1006.48,854.09L1009.94,854.08L1015.16,862.13L1016.9,867.5L1015.19,875.57L1022.16,894.36L1029.11,899.72L1030.85,905.09L1029.15,915.84L1025.71,926.6L1027.47,937.35L1037.89,945.38L1048.28,942.67L1053.47,937.28L1056.91,929.21L1058.61,915.77L1063.79,910.38L1077.64,904.96L1101.9,904.89L1107.1,907.56L1117.56,926.34L1124.52,934.38L1128,939.74L1133.22,945.1L1138.44,953.15L1152.36,966.54L1159.34,979.95L1169.77,987.97L1181.93,993.3L1209.69,998.57L1211.46,1006.63L1214.95,1011.99L1218.41,1011.98L1228.79,1003.87L1237.46,1003.84L1240.95,1009.2L1258.29,1009.12L1261.75,1006.42L1273.81,990.25L1285.9,979.44L1289.37,979.43L1303.29,990.11L1312.02,1003.51L1318.98,1008.85L1325.92,1008.82L1331.11,1006.11L1350.24,1016.76L1355.52,1032.86L1359,1035.53L1365.9,1027.43L1369.33,1019.35L1370.99,1005.91L1374.46,1005.89L1384.89,1011.21L1390.12,1016.56L1391.9,1024.61L1390.19,1029.99L1383.29,1035.4L1374.7,1051.57L1362.58,1057.01L1353.93,1062.43L1348.77,1070.52L1354.01,1078.55L1366.19,1083.87L1367.94,1086.54L1364.51,1094.62L1357.61,1102.72L1357.66,1113.47L1368.13,1124.17L1371.68,1140.27L1368.25,1148.35L1359.61,1156.46L1347.49,1161.89L1340.58,1169.99L1340.63,1180.74L1344.15,1188.78L1342.44,1194.17L1344.21,1202.22L1342.52,1210.29L1344.32,1223.72L1353.04,1231.74L1367,1242.42L1370.5,1247.77L1360.12,1255.89L1344.4,1239.84L1333.98,1239.89L1332.26,1245.28L1341,1255.98L1351.47,1263.99L1351.52,1274.74L1339.38,1280.18L1329.01,1290.98L1306.54,1317.96L1285.73,1328.8L1273.57,1331.54L1266.66,1339.63L1261.49,1350.41L1244.2,1374.67L1233.81,1385.46L1221.67,1393.57L1213.02,1407.04L1216.53,1415.09L1228.71,1415.04L1237.43,1420.38L1237.45,1425.75L1235.76,1436.51L1232.33,1449.96L1223.72,1471.49L1218.53,1479.58L1208.2,1509.18L1204.77,1522.63L1199.6,1536.09L1189.17,1541.5L1177.03,1554.98L1173.59,1565.74L1161.44,1576.54L1154.48,1579.25L1140.55,1581.98L1133.6,1587.38L1124.95,1603.53L1123.23,1611.6L1128.48,1619.65L1137.23,1630.37L1137.26,1638.43L1132.05,1643.82L1125.08,1643.84L1118.09,1638.49L1112.86,1638.51L1100.68,1643.92L1095.47,1649.31L1097.24,1657.37L1105.97,1662.72L1132.19,1686.82L1137.45,1694.86L1132.29,1716.38L1118.38,1729.86L1113.18,1740.63L1097.53,1754.11L1094.07,1762.18L1094.09,1770.25L1102.92,1805.16L1104.67,1807.84L1109.96,1823.95L1113.51,1845.43L1111.82,1861.56L1115.36,1877.68L1111.95,1904.56L1113.78,1931.43L1112.04,1931.44L1112.07,1942.18L1113.86,1955.62L1105.12,1955.64L1099.88,1952.97L1085.86,1936.89L1075.38,1939.61L1068.38,1931.56L1052.67,1936.98L1050.9,1928.92L1045.67,1928.94L1036.9,1915.52L1029.9,1910.17L1017.67,1907.51L1015.91,1902.14L1000.21,1907.55L986.23,1902.21L984.48,1899.52L991.42,1880.7L979.21,1883.41L975.73,1888.79L972.23,1886.11L965.22,1872.69L972.2,1872.68L975.68,1864.61L961.72,1867.32L956.46,1859.27L958.19,1848.52L958.17,1840.45L942.46,1835.11L928.5,1837.82L926.74,1829.76L919.76,1827.09L918,1821.72L902.3,1824.43L897.05,1816.37L890.07,1813.7L890.06,1808.32L881.37,1827.15L867.4,1821.79L853.44,1824.49L844.73,1832.57L830.76,1832.58L823.78,1829.9L811.57,1835.28L785.39,1827.24L780.16,1829.93L774.92,1821.87L769.68,1827.25L753.98,1838.01L743.51,1838.01L738.28,1843.39L743.52,1856.82L752.25,1867.57L743.52,1872.95L741.78,1867.57L722.58,1881.01L715.59,1883.7L717.34,1870.26L703.37,1875.64L699.88,1872.95L692.9,1864.89L691.15,1875.64L691.15,1897.14L684.16,1915.95L684.16,1921.32L675.43,1926.7L668.45,1926.7L659.72,1921.32L647.49,1929.38L640.5,1945.5L642.24,1953.56L645.73,1961.62L647.47,1972.37L643.98,1975.06L630,1975.05L621.27,1969.67L610.79,1961.6L607.31,1945.48L598.58,1945.47L595.09,1940.09L584.61,1942.77L568.89,1942.76L561.9,1945.44L551.39,1966.92L542.63,1988.41L526.92,1983.02L516.43,1988.38L514.69,1980.31L516.45,1972.25L509.46,1969.56L488.5,1972.21L483.25,1977.58L471.04,1964.12L437.82,1980.18L432.59,1974.8L432.6,1969.42L437.85,1964.06L444.83,1966.76L448.35,1953.33L446.62,1947.95L439.64,1945.25L436.13,1953.3L432.63,1953.3L423.92,1942.53L423.95,1931.78L420.46,1929.08L420.49,1912.96L425.74,1910.28L425.77,1896.85L418.79,1894.14L413.57,1886.07L418.82,1880.71L424.06,1878.03L420.58,1872.65L410.11,1872.63L408.37,1867.25L385.69,1864.51L380.46,1859.12L370,1856.41L370.02,1848.34L364.79,1845.64L349.08,1845.6L343.82,1853.65L333.37,1845.56L329.88,1848.24L315.93,1842.82L307.2,1842.79L307.19,1848.17L301.93,1853.53L287.96,1856.17L277.49,1856.14L272.26,1853.43L263.55,1850.72L247.84,1850.66L235.63,1847.93L228.67,1842.53L223.47,1831.77L213.01,1829.04L207.8,1823.65L204.37,1807.51L192.17,1802.09L186.97,1794L183.48,1793.99L180.06,1777.85L195.8,1767.16L201.03,1767.18L188.9,1748.33L185.47,1732.19L181.97,1734.86L159.26,1745.52L150.53,1748.17L143.61,1734.7L136.62,1737.36L134.9,1731.98L152.37,1723.99L154.12,1724L155.9,1715.94L161.14,1713.28L166.39,1707.92L169.86,1713.31L183.82,1707.99L194.3,1705.35L201.32,1691.94L197.86,1686.55L203.11,1681.2L208.34,1678.53L211.85,1673.17L227.56,1667.85L225.84,1659.78L238.07,1651.76L248.54,1649.11L243.34,1641.03L246.85,1632.98L236.41,1630.26L248.63,1622.24L245.18,1611.48L239.98,1606.08L232.97,1616.81L226,1616.78L208.59,1614.03L206.88,1605.96L205.2,1589.83L206.96,1584.46L219.17,1579.14L243.61,1563.1L255.82,1557.77L254.11,1549.7L255.86,1547.02L252.4,1538.94L254.18,1528.2L255.94,1522.83L262.93,1514.79L271.66,1506.76L266.48,1495.99L268.23,1490.62L273.47,1485.27L282.18,1482.61L292.63,1482.64L294.35,1488.02L310.06,1474.63L303.11,1469.24L303.15,1455.8L299.7,1447.73L301.48,1434.3L304.97,1431.62L301.51,1423.55L305.01,1415.5L315.46,1412.84L312,1404.77L306.79,1402.06L301.56,1407.42L298.1,1402.04L292.88,1402.02L289.43,1393.95L282.46,1396.61L279.01,1388.54L272.03,1396.58L265.09,1391.18L265.1,1385.81L256.42,1383.09L251.2,1383.07L244.26,1377.67L235.58,1374.95L230.41,1361.5L232.19,1350.76L235.68,1345.39L232.23,1340.01L239.21,1331.97L239.23,1326.6L242.71,1323.92L246.21,1318.56L258.41,1307.85L265.4,1297.12L274.13,1286.4L265.47,1275.63L253.34,1267.52L256.83,1262.16L253.39,1251.4L246.44,1251.37L236.07,1237.9L230.85,1240.57L227.38,1237.87L211.72,1245.87L201.26,1253.9L194.31,1253.87L189.13,1245.79L168.29,1245.7L164.83,1240.31L170.06,1237.65L170.08,1232.27L166.64,1224.2L171.86,1221.53L170.19,1205.4L180.63,1200.07L175.44,1194.67L178.96,1183.94L175.52,1175.86L172.04,1175.85L163.35,1178.5L158.17,1173.1L159.92,1167.73L154.73,1165.03L151.34,1143.51L139.25,1130.02L135.84,1116.57L128.96,1103.11L122.03,1100.39L120.34,1089.63L109.99,1076.15L111.77,1065.41L106.63,1051.94L103.17,1049.24L90.97,1062.62L84.07,1054.53L75.37,1059.86L70.18,1057.15L58.02,1059.78L45.85,1065.09L42.46,1048.95L37.46,1008.61L39.24,1000.56L30.58,997.83L25.45,984.36L32.41,979.02L34.16,976.35L30.72,970.95L27.32,957.5L18.7,949.39L22.23,935.97L25.72,933.3L34.35,938.72L39.59,930.69L36.14,927.98L34.48,914.54L41.41,914.57L44.85,919.97L51.81,914.63L51.83,909.25L46.68,901.16L38,903.81L31.1,898.4L31.11,895.71L38.04,895.74L46.74,887.73L51.93,890.44L57.14,887.78L50.24,882.37L45.08,874.28L50.32,866.25L48.61,860.86L43.44,855.46L45.21,847.41L53.89,844.76L60.76,855.55L65.96,855.57L71.19,847.54L76.38,850.25L79.79,861.02L86.78,847.61L95.44,847.65L97.19,844.97L95.49,836.9L95.53,828.84L88.63,823.43L86.93,815.36L76.56,812.63L74.85,807.24L50.64,801.75L45.47,796.35L35.1,793.61L31.66,788.22L21.29,785.48L14.4,780.06L17.91,769.33L21.39,766.66L21.42,761.29L33.56,755.98L31.86,750.59L44.03,739.91L63.1,731.94L57.94,726.54L59.71,718.49L59.75,710.43L64.98,702.39L63.3,691.63L75.44,686.32L73.72,683.62L73.77,672.87L82.43,670.22L80.74,662.15L77.32,654.08L73.94,637.94L82.63,629.92L80.95,619.16L86.15,616.5L82.73,608.42L93.13,603.09L101.75,608.51L110.4,605.86L110.43,600.48L119.09,595.15L125.97,603.24L131.16,603.26L138.06,605.98L145,600.64L143.32,589.88L143.35,581.82L148.56,576.47L158.92,579.2L167.59,571.17L181.44,565.85L191.85,555.14L195.39,533.66Z" fill-rule="evenodd" fill="#4682b4" fill-opacity="0.471"/>
<polyline points="195.39,533.66 190.23,528.26 181.59,528.23 178.17,520.15 167.84,512.05 162.7,501.28 164.44,498.6 161.02,490.52 162.78,482.47 159.38,469.02 168.04,463.68 176.68,461.03 185.34,455.69 202.62,453.07 216.47,442.37 216.5,434.31 218.25,428.94 230.34,426.3 226.95,410.16 223.51,407.46 235.62,399.44 235.65,391.38 242.56,388.72 242.58,383.34 247.77,380.67 242.63,369.91 232.32,356.43 227.15,356.41 223.72,348.34 220.28,345.64 225.49,337.6 225.51,332.22 232.46,318.81 241.1,313.47 244.57,308.1 251.49,302.75 273.94,294.77 277.39,292.09 279.15,284.03 277.5,259.84 286.19,238.37 291.38,233.01 291.47,203.45 301.85,192.74 317.38,184.72 324.3,176.68 329.47,176.69 344.99,171.36 351.89,166.01 363.96,163.35 374.31,158 386.37,158.03 395,152.68 405.33,152.7 401.94,131.2 405.41,120.46 403.72,107.01 405.45,101.64 400.29,98.94 415.81,88.23 407.24,72.09 410.71,61.35 410.74,45.22 412.48,39.85 417.64,39.86 422.82,34.5 453.8,34.56 477.9,31.92 495.12,23.88 503.73,18.52 515.79,13.17 524.35,45.43 524.33,58.86 527.76,66.93 538.08,75.01 558.73,83.09 572.5,91.17 582.83,93.87 591.44,88.5 596.61,83.13 608.66,83.14 612.12,67.02 608.68,53.58 608.69,45.52 617.3,42.84 625.9,45.53 636.23,50.91 648.28,45.54 679.26,67.05 679.26,69.74 674.09,77.8 670.65,85.86 675.81,88.55 680.98,96.61 687.86,101.98 679.25,107.36 670.64,118.11 665.47,139.6 679.25,139.61 691.3,144.98 698.19,155.73 710.25,155.73 710.25,161.11 708.53,166.48 708.53,171.86 706.81,171.86 696.47,177.23 693.02,193.36 696.47,198.73 703.36,198.73 705.09,201.42 698.19,214.86 698.19,217.54 703.36,220.23 706.81,225.61 706.81,228.29 696.47,228.29 691.3,230.98 689.57,233.67 689.57,239.04 694.74,249.79 701.64,249.79 701.64,252.48 699.91,257.85 696.47,257.85 684.4,252.48 679.22,257.85 679.22,273.98 682.67,279.35 682.67,287.41 677.49,300.85 672.32,306.22 674.04,308.91 682.67,308.91 684.39,300.85 687.84,298.16 694.74,303.54 694.74,308.91 689.56,314.29 680.94,319.66 679.21,330.41 668.86,333.1 665.41,343.84 667.13,349.22 670.58,349.22 675.76,354.6 679.21,351.91 679.21,343.85 682.66,341.16 686.11,343.85 686.11,351.91 680.93,359.97 686.11,368.03 689.56,370.72 691.28,376.1 701.64,389.53 705.09,400.28 696.46,419.1 696.46,427.16 715.45,437.91 718.9,437.91 724.08,443.28 724.08,445.97 722.36,451.34 710.27,462.09 705.09,462.09 701.64,454.03 696.46,456.72 703.36,462.09 710.27,475.53 713.73,475.53 727.54,478.22 731,480.9 731,486.28 725.82,497.03 725.82,502.4 724.09,507.78 722.37,510.46 718.91,510.46 713.73,505.09 712,505.09 710.27,507.78 710.27,510.47 713.73,515.84 718.91,518.53 725.82,518.53 732.73,521.21 737.92,534.65 743.1,540.02 753.47,540.02 767.3,545.39 770.75,545.38 769.03,548.07 763.84,548.07 763.85,556.14 760.39,558.83 756.94,577.64 756.95,585.7 762.13,591.07 767.33,604.51 775.97,607.19 779.44,626 781.17,631.37 796.73,623.3 788.08,620.62 788.08,612.56 784.61,599.12 789.79,591.06 796.7,588.36 805.35,591.05 805.36,601.8 808.82,612.54 807.1,620.61 815.76,639.41 814.04,644.79 819.21,631.34 826.12,625.96 831.31,625.96 833.05,631.33 838.24,639.39 858.99,639.36 858.99,642.05 846.9,652.82 852.1,658.18 864.22,674.29 859.04,682.36 862.52,695.79 850.42,706.56 850.43,711.93 862.55,717.29 869.47,717.28 874.67,728.03 876.41,736.09 872.96,744.15 864.31,746.85 872.98,757.59 876.46,773.71 888.6,784.44 897.25,784.43 902.46,792.48 905.93,800.54 914.6,805.9 918.07,811.27 919.81,819.33 925.02,824.69 938.88,830.05 944.09,835.41 949.28,835.4 956.2,830.01 961.39,830 966.61,838.05 973.54,840.73 977.01,843.41 977.02,848.78 980.5,856.84 987.45,864.88 1006.48,854.09 1009.94,854.08 1015.16,862.13 1016.9,867.5 1015.19,875.57 1022.16,894.36 1029.11,899.72 1030.85,905.09 1029.15,915.84 1025.71,926.6 1027.47,937.35 1037.89,945.38 1048.28,942.67 1053.47,937.28 1056.91,929.21 1058.61,915.77 1063.79,910.38 1077.64,904.96 1101.9,904.89 1107.1,907.56 1117.56,926.34 1124.52,934.38 1128,939.74 1133.22,945.1 1138.44,953.15 1152.36,966.54 1159.34,979.95 1169.77,987.97 1181.93,993.3 1209.69,998.57 1211.46,1006.63 1214.95,1011.99 1218.41,1011.98 1228.79,1003.87 1237.46,1003.84 1240.95,1009.2 1258.29,1009.12 1261.75,1006.42 1273.81,990.25 1285.9,979.44 1289.37,979.43 1303.29,990.11 1312.02,1003.51 1318.98,1008.85 1325.92,1008.82 1331.11,1006.11 1350.24,1016.76 1355.52,1032.86 1359,1035.53 1365.9,1027.43 1369.33,1019.35 1370.99,1005.91 1374.46,1005.89 1384.89,1011.21 1390.12,1016.56 1391.9,1024.61 1390.19,1029.99 1383.29,1035.4 1374.7,1051.57 1362.58,1057.01 1353.93,1062.43 1348.77,1070.52 1354.01,1078.55 1366.19,1083.87 1367.94,1086.54 1364.51,1094.62 1357.61,1102.72 1357.66,1113.47 1368.13,1124.17 1371.68,1140.27 1368.25,1148.35 1359.61,1156.46 1347.49,1161.89 1340.58,1169.99 1340.63,1180.74 1344.15,1188.78 1342.44,1194.17 1344.21,1202.22 1342.52,1210.29 1344.32,1223.72 1353.04,1231.74 1367,1242.42 1370.5,1247.77 1360.12,1255.89 1344.4,1239.84 1333.98,1239.89 1332.26,1245.28 1341,1255.98 1351.47,1263.99 1351.52,1274.74 1339.38,1280.18 1329.01,1290.98 1306.54,1317.96 1285.73,1328.8 1273.57,1331.54 1266.66,1339.63 1261.49,1350.41 1244.2,1374.67 1233.81,1385.46 1221.67,1393.57 1213.02,1407.04 1216.53,1415.09 1228.71,1415.04 1237.43,1420.38 1237.45,1425.75 1235.76,1436.51 1232.33,1449.96 1223.72,1471.49 1218.53,1479.58 1208.2,1509.18 1204.77,1522.63 1199.6,1536.09 1189.17,1541.5 1177.03,1554.98 1173.59,1565.74 1161.44,1576.54 1154.48,1579.25 1140.55,1581.98 1133.6,1587.38 1124.95,1603.53 1123.23,1611.6 1128.48,1619.65 1137.23,1630.37 1137.26,1638.43 1132.05,1643.82 1125.08,1643.84 1118.09,1638.49 1112.86,1638.51 1100.68,1643.92 1095.47,1649.31 1097.24,1657.37 1105.97,1662.72 1132.19,1686.82 1137.45,1694.86 1132.29,1716.38 1118.38,1729.86 1113.18,1740.63 1097.53,1754.11 1094.07,1762.18 1094.09,1770.25 1102.92,1805.16 1104.67,1807.84 1109.96,1823.95 1113.51,1845.43 1111.82,1861.56 1115.36,1877.68 1111.95,1904.56 1113.78,1931.43 1112.04,1931.44 1112.07,1942.18 1113.86,1955.62 1105.12,1955.64 1099.88,1952.97 1085.86,1936.89 1075.38,1939.61 1068.38,1931.56 1052.67,1936.98 1050.9,1928.92 1045.67,1928.94 1036.9,1915.52 1029.9,1910.17 1017.67,1907.51 1015.91,1902.14 1000.21,1907.55 986.23,1902.21 984.48,1899.52 991.42,1880.7 979.21,1883.41 975.73,1888.79 972.23,1886.11 965.22,1872.69 972.2,1872.68 975.68,1864.61 961.72,1867.32 956.46,1859.27 958.19,1848.52 958.17,1840.45 942.46,1835.11 928.5,1837.82 926.74,1829.76 919.76,1827.09 918,1821.72 902.3,1824.43 897.05,1816.37 890.07,1813.7 890.06,1808.32 881.37,1827.15 867.4,1821.79 853.44,1824.49 844.73,1832.57 830.76,1832.58 823.78,1829.9 811.57,1835.28 785.39,1827.24 780.16,1829.93 774.92,1821.87 769.68,1827.25 753.98,1838.01 743.51,1838.01 738.28,1843.39 743.52,1856.82 752.25,1867.57 743.52,1872.95 741.78,1867.57 722.58,1881.01 715.59,1883.7 717.34,1870.26 703.37,1875.64 699.88,1872.95 692.9,1864.89 691.15,1875.64 691.15,1897.14 684.16,1915.95 684.16,1921.32 675.43,1926.7 668.45,1926.7 659.72,1921.32 647.49,1929.38 640.5,1945.5 642.24,1953.56 645.73,1961.62 647.47,1972.37 643.98,1975.06 630,1975.05 621.27,1969.67 610.79,1961.6 607.31,1945.48 598.58,1945.47 595.09,1940.09 584.61,1942.77 568.89,1942.76 561.9,1945.44 551.39,1966.92 542.63,1988.41 526.92,1983.02 516.43,1988.38 514.69,1980.31 516.45,1972.25 509.46,1969.56 488.5,1972.21 483.25,1977.58 471.04,1964.12 437.82,1980.18 432.59,1974.8 432.6,1969.42 437.85,1964.06 444.83,1966.76 448.35,1953.33 446.62,1947.95 439.64,1945.25 436.13,1953.3 432.63,1953.3 423.92,1942.53 423.95,1931.78 420.46,1929.08 420.49,1912.96 425.74,1910.28 425.77,1896.85 418.79,1894.14 413.57,1886.07 418.82,1880.71 424.06,1878.03 420.58,1872.65 410.11,1872.63 408.37,1867.25 385.69,1864.51 380.46,1859.12 370,1856.41 370.02,1848.34 364.79,1845.64 349.08,1845.6 343.82,1853.65 333.37,1845.56 329.88,1848.24 315.93,1842.82 307.2,1842.79 307.19,1848.17 301.93,1853.53 287.96,1856.17 277.49,1856.14 272.26,1853.43 263.55,1850.72 247.84,1850.66 235.63,1847.93 228.67,1842.53 223.47,1831.77 213.01,1829.04 207.8,1823.65 204.37,1807.51 192.17,1802.09 186.97,1794 183.48,1793.99 180.06,1777.85 195.8,1767.16 201.03,1767.18 188.9,1748.33 185.47,1732.19 181.97,1734.86 159.26,1745.52 150.53,1748.17 143.61,1734.7 136.62,1737.36 134.9,1731.98 152.37,1723.99 154.12,1724 155.9,1715.94 161.14,1713.28 166.39,1707.92 169.86,1713.31 183.82,1707.99 194.3,1705.35 201.32,1691.94 197.86,1686.55 203.11,1681.2 208.34,1678.53 211.85,1673.17 227.56,1667.85 225.84,1659.78 238.07,1651.76 248.54,1649.11 243.34,1641.03 246.85,1632.98 236.41,1630.26 248.63,1622.24 245.18,1611.48 239.98,1606.08 232.97,1616.81 226,1616.78 208.59,1614.03 206.88,1605.96 205.2,1589.83 206.96,1584.46 219.17,1579.14 243.61,1563.1 255.82,1557.77 254.11,1549.7 255.86,1547.02 252.4,1538.94 254.18,1528.2 255.94,1522.83 262.93,1514.79 271.66,1506.76 266.48,1495.99 268.23,1490.62 273.47,1485.27 282.18,1482.61 292.63,1482.64 294.35,1488.02 310.06,1474.63 303.11,1469.24 303.15,1455.8 299.7,1447.73 301.48,1434.3 304.97,1431.62 301.51,1423.55 305.01,1415.5 315.46,1412.84 312,1404.77 306.79,1402.06 301.56,1407.42 298.1,1402.04 292.88,1402.02 289.43,1393.95 282.46,1396.61 279.01,1388.54 272.03,1396.58 265.09,1391.18 265.1,1385.81 256.42,1383.09 251.2,1383.07 244.26,1377.67 235.58,1374.95 230.41,1361.5 232.19,1350.76 235.68,1345.39 232.23,1340.01 239.21,1331.97 239.23,1326.6 242.71,1323.92 246.21,1318.56 258.41,1307.85 265.4,1297.12 274.13,1286.4 265.47,1275.63 253.34,1267.52 256.83,1262.16 253.39,1251.4 246.44,1251.37 236.07,1237.9 230.85,1240.57 227.38,1237.87 211.72,1245.87 201.26,1253.9 194.31,1253.87 189.13,1245.79 168.29,1245.7 164.83,1240.31 170.06,1237.65 170.08,1232.27 166.64,1224.2 171.86,1221.53 170.19,1205.4 180.63,1200.07 175.44,1194.67 178.96,1183.94 175.52,1175.86 172.04,1175.85 163.35,1178.5 158.17,1173.1 159.92,1167.73 154.73,1165.03 151.34,1143.51 139.25,1130.02 135.84,1116.57 128.96,1103.11 122.03,1100.39 120.34,1089.63 109.99,1076.15 111.77,1065.41 106.63,1051.94 103.17,1049.24 90.97,1062.62 84.07,1054.53 75.37,1059.86 70.18,1057.15 58.02,1059.78 45.85,1065.09 42.46,1048.95 37.46,1008.61 39.24,1000.56 30.58,997.83 25.45,984.36 32.41,979.02 34.16,976.35 30.72,970.95 27.32,957.5 18.7,949.39 22.23,935.97 25.72,933.3 34.35,938.72 39.59,930.69 36.14,927.98 34.48,914.54 41.41,914.57 44.85,919.97 51.81,914.63 51.83,909.25 46.68,901.16 38,903.81 31.1,898.4 31.11,895.71 38.04,895.74 46.74,887.73 51.93,890.44 57.14,887.78 50.24,882.37 45.08,874.28 50.32,866.25 48.61,860.86 43.44,855.46 45.21,847.41 53.89,844.76 60.76,855.55 65.96,855.57 71.19,847.54 76.38,850.25 79.79,861.02 86.78,847.61 95.44,847.65 97.19,844.97 95.49,836.9 95.53,828.84 88.63,823.43 86.93,815.36 76.56,812.63 74.85,807.24 50.64,801.75 45.47,796.35 35.1,793.61 31.66,788.22 21.29,785.48 14.4,780.06 17.91,769.33 21.39,766.66 21.42,761.29 33.56,755.98 31.86,750.59 44.03,739.91 63.1,731.94 57.94,726.54 59.71,718.49 59.75,710.43 64.98,702.39 63.3,691.63 75.44,686.32 73.72,683.62 73.77,672.87 82.43,670.22 80.74,662.15 77.32,654.08 73.94,637.94 82.63,629.92 80.95,619.16 86.15,616.5 82.73,608.42 93.13,603.09 101.75,608.51 110.4,605.86 110.43,600.48 119.09,595.15 125.97,603.24 131.16,603.26 138.06,605.98 145,600.64 143.32,589.88 143.35,581.82 148.56,576.47 158.92,579.2 167.59,571.17 181.44,565.85 191.85,555.14 195.39,533.66" fill="none" stroke="#1e1e1e" stroke-width="2.69" stroke-linecap="round" stroke-linejoin="round"/>
<text x="577.88" y="1112.12" font-family="sans-serif" font-size="14" stroke="#ffffff" stroke-opacity="0.784" stroke-width="2.33" stroke-linejoin="round" paint-order="stroke" fill="#141414">Luxembourg</text>
</svg>
