<?xml version="1.0" encoding="UTF-8" standalone="no"?>
<svg xmlns="http://www.w3.org/2000/svg" width="2000" height="1564" viewBox="0 0 2000 1564">
<rect width="2000" height="1564" fill="#ffffff"/>
<path d="M553.01,379.63L574.25,357.47L566.05,344.24L587.26,324.11L580.64,300.75L601.07,280.6L606.99,295.85L629.54,300.03L683.02,284.1L698.67,315.6L715.19,323.78L717.34,348.12L775.31,344.29L775.6,262.18L798.24,234.89L808.76,234.92L838.69,286.7L851.45,296.87L861.16,325.27L861.83,364.8L855.01,386.08L844.43,399.23L838.4,403.27L872.27,418.55L884.26,458.1L869.92,462.13L842.02,462.07L829.91,480.29L812.56,479.22L788.49,458.88L777.25,438.57L766.73,428.39L683.04,434.12L651.92,474.51L623.21,482.46L602.74,500.58L583.94,490.33L578.4,413.25L553.01,379.63Z" fill-rule="evenodd" fill="#4682b4" fill-opacity="0.471"/>
<polyline points="553.01,379.63 574.25,357.47 566.05,344.24 587.26,324.11 580.64,300.75 601.07,280.6 606.99,295.85 629.54,300.03 683.02,284.1 698.67,315.6 715.19,323.78 717.34,348.12 775.31,344.29 775.6,262.18 798.24,234.89 808.76,234.92 838.69,286.7 851.45,296.87 861.16,325.27 861.83,364.8 855.01,386.08 844.43,399.23 838.4,403.27 872.27,418.55 884.26,458.1 869.92,462.13 842.02,462.07 829.91,480.29 812.56,479.22 788.49,458.88 777.25,438.57 766.73,428.39 683.04,434.12 651.92,474.51 623.21,482.46 602.74,500.58 583.94,490.33 578.4,413.25 553.01,379.63" fill="none" stroke="#1e1e1e" stroke-width="2.04" stroke-linecap="round" stroke-linejoin="round"/>
<text x="653.66" y="384.43" font-family="sans-serif" font-size="14" stroke="#ffffff" stroke-opacity="0.784" stroke-width="2.33" stroke-linejoin="round" paint-order="stroke" fill="#141414">City of Skopje</text>
</svg>
