<?xml version="1.0" encoding="UTF-8" standalone="no"?>
<svg xmlns="http://www.w3.org/2000/svg" width="2000" height="1564" viewBox="0 0 2000 1564">
<rect width="2000" height="1564" fill="#ffffff"/>
<path d="M420.09,1538.25L420.87,1536.23L423.17,1536.25L423.91,1539.3L420.83,1541.3L420.09,1538.25Z" fill-rule="evenodd" fill="#4682b4" fill-opacity="0.471"/>
<polyline points="420.09,1538.25 420.87,1536.23 423.17,1536.25 423.91,1539.3 420.83,1541.3 420.09,1538.25" fill="none" stroke="#1e1e1e" stroke-width="2.04" stroke-linecap="round" stroke-linejoin="round"/>
<path d="M151.58,1314.35L123.38,1308.91L121.19,1300.77L113.72,1288.5L113.76,1285.46L116.06,1284.48L118.44,1278.43L117.69,1277.41L119.24,1275.4L124.6,1274.46L125.39,1272.44L123.93,1267.35L120.19,1261.22L119.49,1257.16L116.49,1253.06L114.96,1253.04L113.49,1248.97L114.32,1243.91L109.81,1238.78L105.33,1231.62L103.87,1226.53L96.37,1217.31L97.16,1215.29L97.24,1209.21L96.52,1206.16L94.24,1205.11L93.43,1209.16L87.38,1205.02L85.13,1201.94L82.82,1203.94L81.29,1203.92L79.8,1201.87L76.77,1199.8L76.18,1187.63L74.67,1186.59L73.2,1182.52L69.43,1179.42L68.77,1172.32L65.75,1170.25L63.54,1165.14L65.08,1164.15L64.42,1157.05L65.94,1157.07L69.06,1152.04L63.11,1141.82L63.93,1137.78L61.68,1134.71L62.53,1128.64L61.08,1123.55L61.17,1117.46L64.26,1114.47L64.32,1110.41L59.79,1107.31L59.15,1099.19L60.73,1095.16L58.47,1093.1L57.81,1085.99L51.88,1074.75L53.43,1072.75L53.48,1069.71L49.7,1067.63L46.72,1063.53L51.33,1060.55L52.12,1058.54L51.38,1056.5L52.25,1049.41L56.8,1050.49L62.07,1054.62L64.29,1058.71L66.56,1059.76L68.86,1058.78L70.42,1055.76L74.28,1051.76L74.41,1042.63L78.26,1039.65L80.54,1039.68L82.85,1037.68L81.37,1034.62L86.04,1027.59L87.57,1026.6L88.36,1024.58L91.42,1023.61L93.76,1019.59L93.8,1016.55L89.29,1012.43L92.39,1008.42L92.42,1006.39L93.98,1003.37L94.04,999.32L95.61,995.28L100.95,994.34L100.99,991.3L98.12,979.1L83.82,968.76L85.38,965.74L85.44,961.69L83.96,958.63L81.66,959.61L77.11,959.55L74.84,958.5L73.35,956.45L68.76,958.41L65.72,958.37L62.74,954.27L61.26,951.21L61.31,948.17L65.15,945.18L59.22,934.96L57.04,927.83L57.9,920.75L52.09,902.42L46.05,900.3L43.01,900.26L41.54,897.2L39.29,895.14L36.97,898.14L33.93,898.1L32.44,896.05L32.47,894.02L36.33,890.02L38.66,886L34.14,883.91L30.32,885.88L27.29,884.82L22.04,880.69L20.6,875.6L21.42,871.56L22.98,868.54L26.84,864.54L32.15,864.62L35.2,863.65L35.27,858.58L33.03,856.52L33.07,853.48L29.32,850.38L24.13,842.2L24.2,838.14L34.87,834.25L37.89,835.3L41.68,835.36L48.52,834.45L51.59,832.46L54.62,832.51L58.44,830.53L63.76,829.6L68.31,829.66L71.33,830.72L73.65,827.71L75.93,827.74L77.49,824.72L84.37,820.77L88.99,815.76L92.02,815.8L94.31,814.82L95.85,812.82L101.17,811.87L98.91,810.83L99.74,805.77L97.55,799.66L97.59,796.62L99.17,792.59L97.69,789.52L93.2,785.41L93.28,779.33L88.82,773.18L91.12,771.19L82.95,759.92L78.42,758.84L76.93,756.8L78.59,746.68L77.93,739.58L74.19,736.48L73.47,733.43L71.23,731.37L71.26,729.34L73.57,726.34L78.26,716.26L78.3,713.22L81.47,703.13L79.99,701.08L80.83,695.01L79.43,686.88L76.46,682.79L76.49,680.76L73.51,677.68L72.04,674.61L72.07,672.59L69.85,668.5L70.64,666.48L69.93,663.43L71.51,658.39L73.79,657.4L73.88,651.32L74.68,648.29L74,643.22L75.55,640.2L77.08,639.2L78.65,635.17L80.92,635.2L81.76,629.13L87.15,622.11L84.22,614.97L89.57,610.99L94.86,611.07L96.43,607.04L95.76,600.94L110.82,605.21L115.38,603.24L116.15,602.24L115.43,599.19L115.52,593.1L112.54,590.02L109.74,573.76L106.06,566.62L106.85,563.59L106.96,555.48L108.58,547.39L107.1,545.34L107.86,545.35L107.93,540.29L105.16,522L107.46,518.99L110.47,520.05L113.52,518.06L114.28,517.06L114.33,514.02L120.35,515.11L123.4,513.13L130.93,514.24L132.45,513.25L147.32,530.68L151.07,532.75L152.58,532.77L155.62,530.79L160.92,529.84L173.93,515.81L184.5,515.95L190.51,518.05L195.74,522.17L199.38,533.37L206.95,531.43L211.52,528.44L216.83,526.48L233.42,527.69L239.62,514.59L240.43,509.53L239.69,508.51L241.27,502.44L243.58,498.41L250.39,496.47L255.81,484.36L260.38,480.36L263.41,479.38L270.28,472.36L267.29,470.3L265.86,463.19L254.77,443.8L259.35,438.79L263.14,436.8L264,427.69L254.4,410.34L250.67,407.26L249.95,404.21L250.05,395.09L251.62,390.04L253.3,374.85L251.84,370.78L251.18,362.66L254.23,359.66L255.01,356.62L262.63,348.6L262.67,345.56L258.95,341.46L258.26,336.39L262.8,334.41L271.93,325.39L274.2,324.4L274.22,322.38L277.28,318.35L279.54,317.37L278.07,314.31L278.87,310.26L283.43,306.26L297.71,307.43L306.77,304.48L315.81,303.57L321.95,291.47L327.23,290.51L329.48,291.54L336.27,289.59L337.75,291.63L343.01,291.68L348.26,293.76L354.28,292.81L355.78,293.84L359.55,292.86L360.32,290.84L362.6,288.84L364.14,284.8L369.44,281.81L373.24,276.78L377.02,274.78L378.56,271.76L378.61,266.69L380.13,264.68L380.15,262.65L383.91,262.69L386.92,261.7L396.02,253.68L399.8,251.68L402.79,252.73L406.56,251.75L408.8,253.79L417.07,253.87L420.85,250.86L426.12,249.89L428.37,250.93L430.65,247.91L437.43,245.94L438.19,244.93L442.71,243.96L446.49,241.96L448.01,238.93L449.51,239.96L457.79,238L460.8,238.03L463.09,233.99L465.35,233L473.68,224.96L476.69,224.98L478.96,222.97L482.78,214.89L484.29,213.89L488.09,207.84L489.59,207.85L493.38,203.82L502.42,200.85L507.71,195.82L509.97,195.84L512.24,192.82L514.54,186.75L518.3,185.77L519.82,183.75L525.83,183.8L531.09,182.82L535.56,187.92L563.31,193.18L565.53,197.25L567.77,199.29L567.76,201.32L570,203.36L568.48,205.38L570.7,210.46L572.94,212.51L577.38,223.69L580.37,225.73L581.1,228.78L584.85,230.83L585.56,235.9L587.81,236.93L587.8,238.96L590.8,239.99L591.53,243.04L593.78,244.07L595.27,246.1L596,249.15L598.25,250.18L598.23,254.23L599.73,254.24L602.71,258.31L602.68,263.38L604.16,267.45L601.07,280.6L604.04,287.72L607.77,291.8L606.99,295.85L611.51,295.87L616.78,293.88L616.01,296.91L629.54,300.03L634.06,298.03L640.83,298.07L645.35,296.07L650.65,291.03L653.66,291.04L659.69,287.02L661.21,285L660.47,282.97L664.25,278.93L668.71,288.08L673.24,286.08L683.02,284.1L677.79,276.98L679.31,274.96L677.82,271.91L675.57,270.88L675.58,267.84L674.1,263.78L671.11,260.72L670.39,254.64L668.14,252.6L668.15,250.57L673.43,247.56L674.94,245.54L674.21,242.49L678.74,237.45L679.51,234.41L682.53,230.37L681.05,227.32L680.32,221.24L682.58,220.23L681.09,219.21L685.61,216.19L688.63,212.15L687.89,211.14L691.67,206.08L693.95,200.01L690.23,191.89L691,188.85L694.01,185.82L697.01,186.85L698.53,183.82L700.79,182.81L703.79,182.83L709.1,170.69L712.86,168.68L718.12,168.7L721.13,166.68L719.64,163.64L723.41,159.6L722.67,156.55L723.43,154.53L725.69,152.51L731.71,149.5L728.72,146.44L729.48,144.42L732.49,143.42L733.23,145.45L741.5,141.43L744.5,141.44L745.24,143.47L748.99,143.48L750.49,145.52L754.24,146.54L760.22,150.62L762.46,154.68L772.23,150.66L774.48,152.7L773.74,148.64L768.52,140.51L766.3,131.38L772.31,128.36L773.08,122.28L772.33,121.27L773.1,118.23L772.35,117.21L775.36,115.2L775.37,112.15L779.12,111.15L779.86,113.18L786.61,113.21L791.87,112.21L792.62,110.18L795.62,110.19L807.61,116.31L811.35,117.34L814.36,115.32L817.35,117.36L819.6,120.4L822.6,118.38L825.6,119.41L825.59,124.47L831.58,128.54L830.82,131.58L833.02,149.84L841.28,149.86L845.04,143.78L846.55,139.73L850.31,137.71L854.81,136.71L857.81,140.77L861.56,138.75L864.56,139.77L869.06,139.78L873.57,136.75L874.33,134.72L878.08,132.7L878.84,130.68L881.09,129.67L882.59,127.64L884.84,129.68L887.08,133.73L895.33,134.76L896.08,136.79L901.34,133.76L907.33,138.83L925.34,141.9L929.84,141.9L933.59,143.94L935.09,141.91L939.59,144.95L939.59,146.98L945.59,149.02L947.09,148L949.34,150.03L956.1,149.02L956.85,151.05L960.6,152.07L962.85,158.15L966.6,158.15L968.85,157.14L968.85,154.1L971.11,154.1L976.36,150.05L977.11,147.01L980.11,143.97L979.36,141.94L980.12,137.88L983.12,133.83L986.12,132.82L985.37,129.78L987.62,129.78L989.12,126.74L992.87,129.78L998.87,130.79L1000.38,129.78L1004.88,129.78L1006.38,131.8L1010.13,133.83L1012.38,131.8L1013.88,132.82L1016.13,130.79L1018.38,125.72L1022.88,125.72L1025.88,121.66L1023.63,119.64L1025.88,118.62L1029.63,111.52L1031.87,109.5L1032.62,105.44L1034.87,105.44L1037.87,97.33L1037.87,93.27L1038.61,92.26L1045.37,96.31L1049.87,97.32L1054.36,95.29L1060.36,91.23L1061.86,89.2L1059.6,87.17L1069.34,78.04L1067.84,73.99L1067.83,68.92L1075.32,63.84L1081.32,63.84L1081.32,65.86L1085.07,66.87L1085.82,68.9L1088.07,70.92L1089.57,70.92L1091.82,72.94L1092.58,77L1094.08,80.04L1097.08,82.06L1097.83,79.02L1100.08,80.03L1100.83,78L1106.07,76.98L1107.58,83.06L1111.34,88.12L1111.34,89.13L1117.34,89.12L1122.58,86.07L1127.83,86.06L1132.32,84.03L1134.57,84.02L1139.06,79.96L1140.54,68.8L1139.78,65.76L1142.01,59.68L1141.26,57.65L1142.75,53.59L1141.99,50.55L1151.72,45.46L1156.98,49.5L1160.72,49.49L1163.73,54.56L1165.23,54.55L1171.99,59.6L1172.75,61.63L1187.75,67.67L1190.01,70.7L1197.52,74.74L1198.28,78.79L1201.28,80.81L1205.79,81.81L1206.55,84.84L1210.31,88.89L1216.32,91.91L1219.31,89.87L1223.04,83.78L1230.53,81.72L1235.04,85.76L1238.79,86.76L1239.55,89.8L1241.8,90.8L1247.79,87.74L1247.79,86.73L1250.79,87.73L1255.29,87.71L1257.53,85.68L1261.28,85.66L1265.76,82.6L1267.27,84.62L1268.77,83.6L1271,79.54L1273.25,80.54L1275.5,79.52L1281.47,74.42L1283.73,76.44L1284.49,78.47L1292,82.49L1297.22,76.38L1297.96,73.34L1301.68,67.24L1311.45,72.26L1313.71,75.29L1317.46,76.29L1319.7,74.25L1322.67,69.16L1322.66,67.14L1327.16,66.1L1328.64,64.07L1328.6,55.96L1331.6,54.93L1339.81,48.8L1342.8,48.79L1346.57,51.81L1351.81,51.78L1356.3,49.73L1358.56,51.74L1358.57,53.77L1364.56,52.72L1372.01,45.58L1372.74,42.54L1371.98,40.51L1369.73,40.53L1369.72,38.5L1373.45,36.45L1375.72,39.48L1379.46,38.44L1379.45,36.42L1380.93,34.38L1381.63,26.27L1384.62,24.22L1386.85,21.17L1390.59,21.14L1393.62,26.19L1395.12,27.2L1398.86,25.15L1403.31,19.04L1407.79,15.97L1410.78,15.95L1412.27,13.91L1415.3,19.98L1415.33,24.03L1413.09,26.07L1413.11,29.11L1410.16,36.23L1410.92,38.25L1416.21,44.3L1419.21,45.29L1426,52.35L1426.01,54.37L1429.03,56.38L1430.51,54.34L1433.5,53.31L1441.07,64.41L1444.84,67.43L1445.58,66.41L1451.59,68.39L1452.36,70.41L1456.1,70.39L1457.63,74.43L1468.17,80.44L1470.41,79.41L1471.92,81.43L1475.66,79.37L1481.72,87.44L1483.22,88.44L1484.01,93.5L1490.78,96.49L1493.8,99.51L1492.34,103.58L1496.14,110.64L1499.16,113.66L1499.94,116.7L1502.19,117.69L1503.73,121.74L1508.25,124.74L1509.75,124.73L1512.07,132.82L1518.05,130.75L1520.34,134.78L1522.6,136.79L1522.64,140.85L1524.15,142.86L1525.65,142.85L1527.93,145.87L1530.19,146.87L1529.48,151.94L1531.77,156.99L1534.04,159L1535.6,166.08L1537.87,168.09L1537.89,171.13L1539.42,174.16L1543.21,178.18L1546.29,187.28L1550.05,188.26L1557.56,188.2L1561.33,190.19L1563.59,190.18L1566.62,193.19L1568.87,193.17L1571.17,198.22L1568.95,202.29L1569.75,207.35L1572.8,213.41L1572.09,217.47L1574.4,223.53L1575.91,224.53L1580.48,231.59L1575.99,233.66L1577.52,236.68L1580.55,239.7L1586.59,242.68L1589.66,249.75L1600.23,254.72L1604.74,254.68L1610.06,260.72L1611.56,260.7L1613.11,264.74L1616.13,266.74L1616.91,269.77L1618.44,271.79L1629.79,279.79L1632.06,280.78L1636.56,279.72L1638.84,281.73L1640.37,284.75L1640.39,286.78L1643.43,289.79L1644.2,291.81L1649.48,292.77L1653.26,294.76L1656.24,292.7L1666.81,295.64L1669.87,300.67L1672.89,301.66L1674.41,303.67L1677.43,304.65L1679.73,308.68L1681.25,309.68L1682.03,312.71L1687.32,314.68L1693.38,318.67L1696.4,319.66L1701.72,324.67L1705.51,326.65L1707.75,325.62L1711.52,325.57L1713.78,326.56L1716.03,325.52L1718.3,326.51L1719.78,324.47L1722.04,324.44L1728.78,321.33L1732.54,321.29L1733.34,325.33L1735.61,326.32L1737.16,330.36L1740.93,331.33L1743.28,339.41L1745.58,342.43L1749.36,344.41L1752.37,344.37L1757.62,342.29L1759.15,344.3L1762.18,346.29L1767.45,346.23L1775.78,350.18L1777.29,350.16L1779.57,352.16L1783.32,351.1L1785.59,352.09L1789.34,351.03L1793.07,347.95L1793.77,343.88L1799.07,345.84L1799.12,349.9L1803.7,354.91L1804.49,357.94L1807.54,360.95L1810.56,361.92L1815.89,366.92L1821.18,367.87L1824.9,364.78L1831.69,365.71L1834.68,363.64L1838.44,363.6L1839.98,365.6L1845.26,366.55L1846.79,368.56L1846.85,372.61L1848.43,378.67L1845.43,379.72L1844.03,387.85L1847.81,388.82L1852.37,391.8L1851.68,396.88L1853.23,399.9L1851.86,410.05L1854.91,413.05L1853.47,418.14L1854.28,422.19L1852.19,435.39L1853.77,441.45L1853.07,445.52L1855.35,446.5L1855.39,449.54L1853.89,450.58L1852.43,453.64L1857.06,461.69L1857.1,464.73L1860.17,468.74L1864.71,469.69L1867.79,474.72L1867.09,478.79L1871.71,485.82L1871.74,487.85L1870.27,490.91L1871.09,495.97L1873.38,497.96L1871.93,502.04L1874.27,508.09L1875.11,514.16L1878.14,515.13L1881.12,512.05L1884.92,514.03L1884.93,515.04L1887.23,517.04L1888.02,520.07L1891.08,523.07L1891.88,526.1L1894.17,528.09L1893.46,531.14L1896.53,535.16L1896.57,538.2L1898.9,542.22L1901.17,543.2L1900.49,548.28L1904.38,556.34L1905.97,562.4L1904.53,567.49L1904.63,574.58L1906.93,576.58L1909.32,585.67L1913.14,588.65L1913.95,592.7L1916.28,596.72L1919.35,600.73L1922.39,601.7L1923.18,603.72L1923.31,612.84L1921.82,614.89L1923.38,617.91L1927.2,620.9L1930.19,618.83L1932.49,620.82L1937.8,621.76L1940.79,619.69L1946.16,624.68L1949.88,620.57L1952.17,622.56L1955.94,621.49L1958.33,629.57L1962.17,633.57L1962.27,640.66L1963.81,642.67L1966.85,643.64L1968.49,651.72L1970.78,653.72L1971.62,658.77L1973.93,661.78L1973.19,662.8L1974.01,666.85L1975.55,668.85L1974.07,670.9L1974.11,673.94L1974.94,679L1976.5,682.02L1972.77,685.11L1971.31,689.19L1967.51,688.23L1963.85,696.4L1960.87,699.48L1960.16,702.53L1957.19,706.63L1956.48,709.68L1954.22,710.73L1946.02,719.97L1943.89,729.13L1940.93,734.24L1938.66,734.27L1937.17,736.32L1939.5,740.34L1939.58,745.41L1935.77,744.45L1929.73,745.55L1927.44,744.57L1924.41,744.61L1922.17,746.67L1920.64,745.68L1919.93,748.73L1915.41,750.82L1914.74,756.91L1912.52,761L1916.38,766.01L1916.45,771.08L1918.01,774.1L1915.15,786.31L1916.72,790.34L1914.51,794.42L1916.12,801.5L1915.39,803.54L1916.96,807.57L1923.04,808.5L1923.09,811.54L1925.37,812.52L1927.71,816.54L1926.96,817.56L1927.76,820.59L1927.85,826.68L1930.94,830.69L1932.46,830.67L1932.5,833.71L1929.55,839.83L1930.36,842.86L1930.47,850.97L1923.66,852.08L1922.26,860.21L1925.42,869.29L1931.62,878.32L1930.29,891.52L1925.02,894.64L1922.07,900.76L1924.37,902.76L1923.64,904.79L1926.02,911.86L1925.36,918.96L1929.95,920.92L1926.99,927.05L1927.04,930.09L1930.15,935.11L1937.86,943.11L1939.45,948.16L1937.98,951.22L1938,953.25L1935.74,954.29L1931.33,964.5L1928.27,963.52L1923.05,970.69L1918.61,978.87L1920.96,983.9L1925.56,986.88L1925.62,990.93L1930.35,1003.03L1928.11,1006.1L1926.75,1017.27L1929.23,1031.43L1929.35,1039.54L1930.17,1043.58L1916.5,1045.8L1910.51,1052.98L1909.03,1056.04L1906.76,1057.09L1901.42,1056.15L1900.69,1058.19L1898.41,1058.22L1889.99,1055.29L1883.92,1056.39L1881.66,1058.45L1878.63,1059.5L1873.29,1058.56L1870.98,1056.56L1865.67,1057.64L1863.37,1056.66L1861.86,1057.69L1858.05,1056.73L1851.21,1057.83L1848.19,1059.9L1845.91,1059.93L1844.36,1057.92L1839.82,1060.01L1831.45,1060.11L1825.4,1063.23L1820.83,1063.29L1817.76,1061.3L1813.11,1054.26L1810.85,1056.32L1811.63,1057.32L1810.14,1060.38L1808.61,1059.39L1804.8,1059.43L1804.02,1057.41L1802.53,1060.47L1802.56,1062.5L1801.05,1063.53L1799.57,1067.61L1795.03,1069.69L1792.77,1071.74L1785.92,1071.83L1779.87,1074.94L1777.61,1076.99L1776.15,1082.08L1773.16,1087.18L1773.95,1089.2L1771.69,1091.26L1770.97,1095.32L1773.33,1101.37L1777.16,1103.36L1778.71,1105.36L1777.99,1109.43L1776.48,1110.46L1777.29,1114.5L1773.54,1119.62L1774.32,1120.62L1771.31,1123.7L1772.85,1125.71L1773.66,1129.75L1775.21,1131.76L1773.2,1155.1L1767.06,1151.12L1762.47,1150.16L1752.59,1152.3L1745.76,1155.42L1745.07,1161.51L1737.53,1168.69L1735.29,1172.77L1736.13,1179.86L1735.39,1181.89L1737.04,1193.03L1738.61,1197.06L1737.88,1200.11L1743.31,1208.16L1742.56,1209.18L1746.42,1213.19L1748.79,1220.26L1750.33,1221.26L1752.66,1225.29L1755.74,1227.28L1760.3,1226.21L1763.36,1227.19L1767.16,1225.12L1766.45,1230.2L1767.21,1230.19L1767.25,1233.23L1765.78,1238.31L1762.77,1241.39L1755.29,1254.66L1751.49,1256.73L1742.34,1257.84L1739.34,1261.93L1734.72,1258.94L1727.73,1247.87L1720.03,1241.87L1719.22,1237.83L1716.92,1236.84L1716.13,1233.81L1713.05,1231.81L1711.51,1229.8L1712.25,1227.76L1709.91,1223.74L1705.3,1220.74L1704.49,1215.68L1699.17,1217.77L1696.88,1217.79L1695.39,1220.85L1690.81,1220.9L1687.09,1230.06L1684.82,1232.11L1686.39,1236.15L1685.68,1241.23L1682.68,1246.33L1682.71,1249.37L1672.13,1259.61L1667.64,1268.78L1645.66,1285.22L1635.74,1285.32L1631.89,1282.31L1625.7,1274.26L1624.92,1272.24L1606.61,1273.43L1579.93,1278.74L1576.11,1278.77L1564.7,1283.94L1561.64,1282.95L1554.01,1284.03L1550.22,1287.1L1544.84,1283.09L1538.73,1283.14L1534.93,1285.2L1533.39,1284.2L1525.77,1285.27L1524.98,1282.24L1515.84,1285.35L1513.54,1284.35L1509.68,1279.32L1502.78,1275.31L1502.75,1271.26L1504.24,1267.19L1498.13,1266.23L1495.09,1268.28L1492.83,1272.35L1486.72,1271.38L1480.57,1266.36L1477.52,1266.38L1472.98,1272.49L1468.38,1269.49L1462.26,1268.52L1462.28,1270.54L1459.23,1271.58L1457.72,1274.63L1455.43,1273.63L1452.39,1276.69L1450.86,1275.69L1450.92,1283.8L1448.63,1283.82L1445.56,1282.82L1444.76,1276.75L1445.5,1272.69L1443.91,1264.59L1442.38,1263.58L1440.83,1259.54L1440.81,1256.5L1443.08,1253.44L1434.71,1257.55L1428.61,1258.61L1424,1254.58L1420.18,1253.59L1412.52,1249.59L1408.71,1250.62L1404.88,1248.62L1404.08,1242.54L1400.25,1240.54L1395.67,1240.57L1394.9,1238.54L1389.56,1238.58L1384.23,1240.63L1383.45,1238.61L1381.16,1238.62L1377.37,1241.69L1374.3,1239.68L1367.44,1240.73L1361.31,1236.71L1359.77,1234.69L1352.18,1240.81L1352.19,1243.85L1343.03,1242.89L1328.55,1247.02L1325.51,1249.06L1324.01,1254.14L1321.73,1256.17L1318.71,1263.28L1314.14,1266.35L1309.61,1277.52L1301.99,1280.6L1298.17,1279.6L1293.6,1282.66L1287.48,1278.63L1281.34,1271.56L1271.4,1267.55L1266.82,1268.58L1263,1267.59L1259.92,1262.53L1256.1,1260.52L1257.61,1256.46L1256.84,1253.42L1252.24,1249.38L1246.9,1249.4L1243.83,1244.34L1243.07,1245.36L1242.33,1252.46L1240.82,1255.51L1237.01,1257.55L1231.66,1257.57L1231.67,1259.59L1228.63,1262.65L1226.35,1266.71L1221.77,1267.74L1218.74,1272.82L1201.18,1274.9L1198.14,1277.95L1192.03,1277.97L1188.98,1280L1186.69,1277.98L1179.05,1278L1177.52,1275.98L1174.47,1277L1172.19,1282.08L1166.86,1288.17L1161.52,1289.2L1159.99,1290.22L1158.48,1295.29L1156.18,1295.29L1151.61,1297.33L1143.98,1302.42L1142.46,1305.46L1134.84,1312.57L1127.96,1313.6L1127.2,1316.64L1128.74,1320.7L1127.21,1321.71L1127.22,1325.77L1124.94,1329.83L1124.95,1334.89L1122.66,1337.94L1125.72,1340.98L1127.26,1344.01L1127.27,1353.14L1130.34,1357.19L1128.05,1357.19L1127.29,1360.23L1121.18,1366.33L1119.65,1365.31L1117.36,1368.36L1105.89,1366.35L1107.44,1379.53L1104.38,1379.53L1099.8,1381.57L1099.8,1384.61L1094.45,1385.63L1089.1,1388.68L1088.34,1391.72L1084.52,1393.75L1079.94,1400.85L1081.47,1403.89L1079.95,1408.96L1077.66,1412.01L1075.36,1414.04L1068.48,1415.06L1062.36,1420.13L1058.54,1420.14L1055.48,1422.17L1051.66,1427.24L1048.6,1428.25L1044.01,1433.33L1044.02,1450.56L1047.08,1455.63L1045.56,1461.71L1046.33,1464.75L1044.03,1466.78L1040.2,1467.79L1035.61,1472.87L1034.85,1477.93L1030.25,1479.96L1025.66,1479.97L1021.83,1480.98L1017.23,1479.97L1011.11,1484.03L1008.04,1484.03L1007.28,1482L1002.68,1478.96L998.85,1478.96L995.02,1477.94L990.43,1478.96L988.13,1475.92L982,1470.85L974.35,1468.82L972.05,1465.77L968.99,1465.77L966.69,1467.8L963.63,1466.78L959.03,1468.81L956.74,1467.79L954.44,1468.8L952.9,1474.89L944.47,1484L940.63,1493.12L943.69,1495.15L942.93,1499.21L945.22,1502.25L945.22,1509.35L936.79,1510.35L930.66,1508.32L927.59,1508.32L924.53,1509.33L922.23,1511.35L919.93,1511.35L916.09,1513.37L914.55,1519.45L911.49,1521.47L906.12,1520.45L900.75,1526.53L900.75,1527.54L897.68,1529.56L895.38,1528.55L893.08,1529.56L890.78,1532.59L890.77,1535.64L887.69,1541.71L884.62,1543.73L880.8,1540.69L870.83,1542.7L869.29,1543.71L863.93,1543.7L863.18,1534.57L861.65,1532.54L855.52,1529.49L851.7,1526.44L850.18,1520.35L844.83,1515.27L838.72,1506.13L839.49,1503.09L837.96,1501.06L834.9,1501.05L832.61,1499.02L828,1501.04L815.76,1497.96L805.8,1496.92L785.86,1501.93L768.28,1491.73L749.9,1490.65L709.14,1527.99L708.36,1530.01L699.92,1532L689.17,1537.02L682.26,1538L674.57,1543.03L673.03,1545.05L669.98,1542L651.57,1543.93L648.5,1544.93L637,1543.85L630.07,1548.88L623.19,1546.82L621.68,1541.74L615.59,1534.61L607.95,1530.51L599.52,1529.44L596.48,1526.38L588.06,1524.31L585.75,1525.3L583.43,1528.33L578.82,1531.34L568.08,1532.29L565,1534.29L564.22,1536.32L560.37,1539.33L560.35,1541.36L558.04,1543.37L553.43,1544.36L549.56,1550.41L547.25,1551.41L542.65,1551.38L539.57,1553.38L520.4,1554.26L519.66,1550.2L520.45,1547.17L519.72,1542.09L515.15,1536.99L501.52,1515.6L500.77,1512.55L501.58,1507.49L504.68,1502.44L504.73,1496.36L503.22,1493.31L498.66,1488.21L491.04,1483.08L488.81,1473.94L489.59,1472.93L489.67,1461.78L488.17,1457.71L483.63,1451.6L482.89,1447.54L481.39,1444.48L481.42,1440.43L478.38,1437.36L472.29,1433.26L467.77,1424.1L467.05,1419.03L464.77,1415.97L461.73,1413.91L451.81,1410.79L441.1,1410.7L436.52,1409.65L422.78,1405.47L416.69,1402.38L412.89,1399.3L409.07,1399.27L403.72,1398.21L402.2,1397.18L394.55,1397.11L391.48,1398.1L388.39,1401.11L383.78,1403.09L379.87,1412.18L371.38,1420.21L367.51,1425.24L364.38,1432.31L363.57,1436.36L359.71,1440.37L355.86,1442.36L352.73,1449.43L356.48,1457.58L363.3,1464.74L377.01,1471.97L387.75,1470.04L391.56,1473.11L398.37,1481.29L407.51,1487.45L411.34,1487.49L414.38,1490.55L417.43,1491.6L422.03,1491.64L425.84,1493.7L418.14,1498.7L418.12,1500.73L420.38,1504.8L417.99,1514.92L413.38,1516.9L414.21,1508.8L408.15,1501.65L406.66,1496.57L405.9,1495.55L401.31,1495.51L399.79,1494.48L397.53,1489.39L392.96,1487.32L390.7,1483.24L388.4,1483.22L386.08,1485.23L385.35,1481.17L376.91,1483.12L376.12,1485.14L366.2,1482L363.86,1486.03L362.33,1486.02L363.07,1488.05L358.47,1489.02L351.59,1486.93L346.28,1481.81L342.46,1480.75L314.26,1467.29L308.06,1474.32L297.91,1492.46L298.64,1496.52L297.84,1499.56L287.8,1506.55L282.44,1506.49L277.83,1507.45L274.03,1504.37L268.69,1502.28L262.56,1502.21L261.02,1503.21L258.73,1502.17L257.99,1500.14L245.71,1502.02L226.65,1493.69L225.12,1493.68L225.9,1492.67L231.27,1491.72L235.13,1488.72L237.48,1484.7L242.88,1481.72L244.43,1479.71L248.24,1481.78L259.77,1477.85L262.15,1470.78L258.49,1455.54L259.35,1447.43L260.89,1446.44L260.91,1444.41L265.53,1442.43L267.88,1437.39L267.18,1431.3L271.05,1427.29L274.95,1421.25L275.74,1418.22L278.05,1417.23L278.09,1413.17L277.36,1410.12L275.84,1409.09L275.87,1407.07L279.72,1404.07L282.05,1401.05L282.92,1391.94L285.26,1387.91L285.3,1383.85L283.08,1376.73L283.13,1372.68L281.65,1367.59L282.46,1363.55L281.74,1359.49L279.49,1355.41L280.34,1347.31L279.59,1346.28L279.68,1338.17L278.17,1336.13L278.24,1330.05L280.55,1328.05L279.82,1325L276.06,1319.89L276.9,1312.8L282.33,1305.76L285.48,1296.67L280.95,1291.56L277.91,1290.51L271.02,1291.45L269.54,1287.38L270.33,1285.36L265.02,1282.26L257.4,1280.14L256.7,1275.07L253.7,1269.96L247.65,1264.83L244.69,1256.68L245.48,1254.66L244.01,1249.58L242.53,1245.51L238.78,1239.38L235.75,1237.32L224.36,1233.13L195.41,1228.73L187.78,1228.63L185.52,1226.58L183.2,1228.58L171.72,1231.48L170.18,1232.47L167.84,1236.5L166.2,1245.6L166.95,1246.62L166.12,1251.68L166.86,1253.72L163.69,1262.8L161.36,1265.81L158.28,1267.8L157.46,1272.86L158.96,1274.91L153.42,1290.04L152.6,1294.09L154.04,1301.2L151.58,1314.35Z" fill-rule="evenodd" fill="#4682b4" fill-opacity="0.471"/>
<polyline points="151.58,1314.35 123.38,1308.91 121.19,1300.77 113.72,1288.5 113.76,1285.46 116.06,1284.48 118.44,1278.43 117.69,1277.41 119.24,1275.4 124.6,1274.46 125.39,1272.44 123.93,1267.35 120.19,1261.22 119.49,1257.16 116.49,1253.06 114.96,1253.04 113.49,1248.97 114.32,1243.91 109.81,1238.78 105.33,1231.62 103.87,1226.53 96.37,1217.31 97.16,1215.29 97.24,1209.21 96.52,1206.16 94.24,1205.11 93.43,1209.16 87.38,1205.02 85.13,1201.94 82.82,1203.94 81.29,1203.92 79.8,1201.87 76.77,1199.8 76.18,1187.63 74.67,1186.59 73.2,1182.52 69.43,1179.42 68.77,1172.32 65.75,1170.25 63.54,1165.14 65.08,1164.15 64.42,1157.05 65.94,1157.07 69.06,1152.04 63.11,1141.82 63.93,1137.78 61.68,1134.71 62.53,1128.64 61.08,1123.55 61.17,1117.46 64.26,1114.47 64.32,1110.41 59.79,1107.31 59.15,1099.19 60.73,1095.16 58.47,1093.1 57.81,1085.99 51.88,1074.75 53.43,1072.75 53.48,1069.71 49.7,1067.63 46.72,1063.53 51.33,1060.55 52.12,1058.54 51.38,1056.5 52.25,1049.41 56.8,1050.49 62.07,1054.62 64.29,1058.71 66.56,1059.76 68.86,1058.78 70.42,1055.76 74.28,1051.76 74.41,1042.63 78.26,1039.65 80.54,1039.68 82.85,1037.68 81.37,1034.62 86.04,1027.59 87.57,1026.6 88.36,1024.58 91.42,1023.61 93.76,1019.59 93.8,1016.55 89.29,1012.43 92.39,1008.42 92.42,1006.39 93.98,1003.37 94.04,999.32 95.61,995.28 100.95,994.34 100.99,991.3 98.12,979.1 83.82,968.76 85.38,965.74 85.44,961.69 83.96,958.63 81.66,959.61 77.11,959.55 74.84,958.5 73.35,956.45 68.76,958.41 65.72,958.37 62.74,954.27 61.26,951.21 61.31,948.17 65.15,945.18 59.22,934.96 57.04,927.83 57.9,920.75 52.09,902.42 46.05,900.3 43.01,900.26 41.54,897.2 39.29,895.14 36.97,898.14 33.93,898.1 32.44,896.05 32.47,894.02 36.33,890.02 38.66,886 34.14,883.91 30.32,885.88 27.29,884.82 22.04,880.69 20.6,875.6 21.42,871.56 22.98,868.54 26.84,864.54 32.15,864.62 35.2,863.65 35.27,858.58 33.03,856.52 33.07,853.48 29.32,850.38 24.13,842.2 24.2,838.14 34.87,834.25 37.89,835.3 41.68,835.36 48.52,834.45 51.59,832.46 54.62,832.51 58.44,830.53 63.76,829.6 68.31,829.66 71.33,830.72 73.65,827.71 75.93,827.74 77.49,824.72 84.37,820.77 88.99,815.76 92.02,815.8 94.31,814.82 95.85,812.82 101.17,811.87 98.91,810.83 99.74,805.77 97.55,799.66 97.59,796.62 99.17,792.59 97.69,789.52 93.2,785.41 93.28,779.33 88.82,773.18 91.12,771.19 82.95,759.92 78.42,758.84 76.93,756.8 78.59,746.68 77.93,739.58 74.19,736.48 73.47,733.43 71.23,731.37 71.26,729.34 73.57,726.34 78.26,716.26 78.3,713.22 81.47,703.13 79.99,701.08 80.83,695.01 79.43,686.88 76.46,682.79 76.49,680.76 73.51,677.68 72.04,674.61 72.07,672.59 69.85,668.5 70.64,666.48 69.93,663.43 71.51,658.39 73.79,657.4 73.88,651.32 74.68,648.29 74,643.22 75.55,640.2 77.08,639.2 78.65,635.17 80.92,635.2 81.76,629.13 87.15,622.11 84.22,614.97 89.57,610.99 94.86,611.07 96.43,607.04 95.76,600.94 110.82,605.21 115.38,603.24 116.15,602.24 115.43,599.19 115.52,593.1 112.54,590.02 109.74,573.76 106.06,566.62 106.85,563.59 106.96,555.48 108.58,547.39 107.1,545.34 107.86,545.35 107.93,540.29 105.16,522 107.46,518.99 110.47,520.05 113.52,518.06 114.28,517.06 114.33,514.02 120.35,515.11 123.4,513.13 130.93,514.24 132.45,513.25 147.32,530.68 151.07,532.75 152.58,532.77 155.62,530.79 160.92,529.84 173.93,515.81 184.5,515.95 190.51,518.05 195.74,522.17 199.38,533.37 206.95,531.43 211.52,528.44 216.83,526.48 233.42,527.69 239.62,514.59 240.43,509.53 239.69,508.51 241.27,502.44 243.58,498.41 250.39,496.47 255.81,484.36 260.38,480.36 263.41,479.38 270.28,472.36 267.29,470.3 265.86,463.19 254.77,443.8 259.35,438.79 263.14,436.8 264,427.69 254.4,410.34 250.67,407.26 249.95,404.21 250.05,395.09 251.62,390.04 253.3,374.85 251.84,370.78 251.18,362.66 254.23,359.66 255.01,356.62 262.63,348.6 262.67,345.56 258.95,341.46 258.26,336.39 262.8,334.41 271.93,325.39 274.2,324.4 274.22,322.38 277.28,318.35 279.54,317.37 278.07,314.31 278.87,310.26 283.43,306.26 297.71,307.43 306.77,304.48 315.81,303.57 321.95,291.47 327.23,290.51 329.48,291.54 336.27,289.59 337.75,291.63 343.01,291.68 348.26,293.76 354.28,292.81 355.78,293.84 359.55,292.86 360.32,290.84 362.6,288.84 364.14,284.8 369.44,281.81 373.24,276.78 377.02,274.78 378.56,271.76 378.61,266.69 380.13,264.68 380.15,262.65 383.91,262.69 386.92,261.7 396.02,253.68 399.8,251.68 402.79,252.73 406.56,251.75 408.8,253.79 417.07,253.87 420.85,250.86 426.12,249.89 428.37,250.93 430.65,247.91 437.43,245.94 438.19,244.93 442.71,243.96 446.49,241.96 448.01,238.93 449.51,239.96 457.79,238 460.8,238.03 463.09,233.99 465.35,233 473.68,224.96 476.69,224.98 478.96,222.97 482.78,214.89 484.29,213.89 488.09,207.84 489.59,207.85 493.38,203.82 502.42,200.85 507.71,195.82 509.97,195.84 512.24,192.82 514.54,186.75 518.3,185.77 519.82,183.75 525.83,183.8 531.09,182.82 535.56,187.92 563.31,193.18 565.53,197.25 567.77,199.29 567.76,201.32 570,203.36 568.48,205.38 570.7,210.46 572.94,212.51 577.38,223.69 580.37,225.73 581.1,228.78 584.85,230.83 585.56,235.9 587.81,236.93 587.8,238.96 590.8,239.99 591.53,243.04 593.78,244.07 595.27,246.1 596,249.15 598.25,250.18 598.23,254.23 599.73,254.24 602.71,258.31 602.68,263.38 604.16,267.45 601.07,280.6 604.04,287.72 607.77,291.8 606.99,295.85 611.51,295.87 616.78,293.88 616.01,296.91 629.54,300.03 634.06,298.03 640.83,298.07 645.35,296.07 650.65,291.03 653.66,291.04 659.69,287.02 661.21,285 660.47,282.97 664.25,278.93 668.71,288.08 673.24,286.08 683.02,284.1 677.79,276.98 679.31,274.96 677.82,271.91 675.57,270.88 675.58,267.84 674.1,263.78 671.11,260.72 670.39,254.64 668.14,252.6 668.15,250.57 673.43,247.56 674.94,245.54 674.21,242.49 678.74,237.45 679.51,234.41 682.53,230.37 681.05,227.32 680.32,221.24 682.58,220.23 681.09,219.21 685.61,216.19 688.63,212.15 687.89,211.14 691.67,206.08 693.95,200.01 690.23,191.89 691,188.85 694.01,185.82 697.01,186.85 698.53,183.82 700.79,182.81 703.79,182.83 709.1,170.69 712.86,168.68 718.12,168.7 721.13,166.68 719.64,163.64 723.41,159.6 722.67,156.55 723.43,154.53 725.69,152.51 731.71,149.5 728.72,146.44 729.48,144.42 732.49,143.42 733.23,145.45 741.5,141.43 744.5,141.44 745.24,143.47 748.99,143.48 750.49,145.52 754.24,146.54 760.22,150.62 762.46,154.68 772.23,150.66 774.48,152.7 773.74,148.64 768.52,140.51 766.3,131.38 772.31,128.36 773.08,122.28 772.33,121.27 773.1,118.23 772.35,117.21 775.36,115.2 775.37,112.15 779.12,111.15 779.86,113.18 786.61,113.21 791.87,112.21 792.62,110.18 795.62,110.19 807.61,116.31 811.35,117.34 814.36,115.32 817.35,117.36 819.6,120.4 822.6,118.38 825.6,119.41 825.59,124.47 831.58,128.54 830.82,131.58 833.02,149.84 841.28,149.86 845.04,143.78 846.55,139.73 850.31,137.71 854.81,136.71 857.81,140.77 861.56,138.75 864.56,139.77 869.06,139.78 873.57,136.75 874.33,134.72 878.08,132.7 878.84,130.68 881.09,129.67 882.59,127.64 884.84,129.68 887.08,133.73 895.33,134.76 896.08,136.79 901.34,133.76 907.33,138.83 925.34,141.9 929.84,141.9 933.59,143.94 935.09,141.91 939.59,144.95 939.59,146.98 945.59,149.02 947.09,148 949.34,150.03 956.1,149.02 956.85,151.05 960.6,152.07 962.85,158.15 966.6,158.15 968.85,157.14 968.85,154.1 971.11,154.1 976.36,150.05 977.11,147.01 980.11,143.97 979.36,141.94 980.12,137.88 983.12,133.83 986.12,132.82 985.37,129.78 987.62,129.78 989.12,126.74 992.87,129.78 998.87,130.79 1000.38,129.78 1004.88,129.78 1006.38,131.8 1010.13,133.83 1012.38,131.8 1013.88,132.82 1016.13,130.79 1018.38,125.72 1022.88,125.72 1025.88,121.66 1023.63,119.64 1025.88,118.62 1029.63,111.52 1031.87,109.5 1032.62,105.44 1034.87,105.44 1037.87,97.33 1037.87,93.27 1038.61,92.26 1045.37,96.31 1049.87,97.32 1054.36,95.29 1060.36,91.23 1061.86,89.2 1059.6,87.17 1069.34,78.04 1067.84,73.99 1067.83,68.92 1075.32,63.84 1081.32,63.84 1081.32,65.86 1085.07,66.87 1085.82,68.9 1088.07,70.92 1089.57,70.92 1091.82,72.94 1092.58,77 1094.08,80.04 1097.08,82.06 1097.83,79.02 1100.08,80.03 1100.83,78 1106.07,76.98 1107.58,83.06 1111.34,88.12 1111.34,89.13 1117.34,89.12 1122.58,86.07 1127.83,86.06 1132.32,84.03 1134.57,84.02 1139.06,79.96 1140.54,68.8 1139.78,65.76 1142.01,59.68 1141.26,57.65 1142.75,53.59 1141.99,50.55 1151.72,45.46 1156.98,49.5 1160.72,49.49 1163.73,54.56 1165.23,54.55 1171.99,59.6 1172.75,61.63 1187.75,67.67 1190.01,70.7 1197.52,74.74 1198.28,78.79 1201.28,80.81 1205.79,81.81 1206.55,84.84 1210.31,88.89 1216.32,91.91 1219.31,89.87 1223.04,83.78 1230.53,81.72 1235.04,85.76 1238.79,86.76 1239.55,89.8 1241.8,90.8 1247.79,87.74 1247.79,86.73 1250.79,87.73 1255.29,87.71 1257.53,85.68 1261.28,85.66 1265.76,82.6 1267.27,84.62 1268.77,83.6 1271,79.54 1273.25,80.54 1275.5,79.52 1281.47,74.42 1283.73,76.44 1284.49,78.47 1292,82.49 1297.22,76.38 1297.96,73.34 1301.68,67.24 1311.45,72.26 1313.71,75.29 1317.46,76.29 1319.7,74.25 1322.67,69.16 1322.66,67.14 1327.16,66.1 1328.64,64.07 1328.6,55.96 1331.6,54.93 1339.81,48.8 1342.8,48.79 1346.57,51.81 1351.81,51.78 1356.3,49.73 1358.56,51.74 1358.57,53.77 1364.56,52.72 1372.01,45.58 1372.74,42.54 1371.98,40.51 1369.73,40.53 1369.72,38.5 1373.45,36.45 1375.72,39.48 1379.46,38.44 1379.45,36.42 1380.93,34.38 1381.63,26.27 1384.62,24.22 1386.85,21.17 1390.59,21.14 1393.62,26.19 1395.12,27.2 1398.86,25.15 1403.31,19.04 1407.79,15.97 1410.78,15.95 1412.27,13.91 1415.3,19.98 1415.33,24.03 1413.09,26.07 1413.11,29.11 1410.16,36.23 1410.92,38.25 1416.21,44.3 1419.21,45.29 1426,52.35 1426.01,54.37 1429.03,56.38 1430.51,54.34 1433.5,53.31 1441.07,64.41 1444.84,67.43 1445.58,66.41 1451.59,68.39 1452.36,70.41 1456.1,70.39 1457.63,74.43 1468.17,80.44 1470.41,79.41 1471.92,81.43 1475.66,79.37 1481.72,87.44 1483.22,88.44 1484.01,93.5 1490.78,96.49 1493.8,99.51 1492.34,103.58 1496.14,110.64 1499.16,113.66 1499.94,116.7 1502.19,117.69 1503.73,121.74 1508.25,124.74 1509.75,124.73 1512.07,132.82 1518.05,130.75 1520.34,134.78 1522.6,136.79 1522.64,140.85 1524.15,142.86 1525.65,142.85 1527.93,145.87 1530.19,146.87 1529.48,151.94 1531.77,156.99 1534.04,159 1535.6,166.08 1537.87,168.09 1537.89,171.13 1539.42,174.16 1543.21,178.18 1546.29,187.28 1550.05,188.26 1557.56,188.2 1561.33,190.19 1563.59,190.18 1566.62,193.19 1568.87,193.17 1571.17,198.22 1568.95,202.29 1569.75,207.35 1572.8,213.41 1572.09,217.47 1574.4,223.53 1575.91,224.53 1580.48,231.59 1575.99,233.66 1577.52,236.68 1580.55,239.7 1586.59,242.68 1589.66,249.75 1600.23,254.72 1604.74,254.68 1610.06,260.72 1611.56,260.7 1613.11,264.74 1616.13,266.74 1616.91,269.77 1618.44,271.79 1629.79,279.79 1632.06,280.78 1636.56,279.72 1638.84,281.73 1640.37,284.75 1640.39,286.78 1643.43,289.79 1644.2,291.81 1649.48,292.77 1653.26,294.76 1656.24,292.7 1666.81,295.64 1669.87,300.67 1672.89,301.66 1674.41,303.67 1677.43,304.65 1679.73,308.68 1681.25,309.68 1682.03,312.71 1687.32,314.68 1693.38,318.67 1696.4,319.66 1701.72,324.67 1705.51,326.65 1707.75,325.62 1711.52,325.57 1713.78,326.56 1716.03,325.52 1718.3,326.51 1719.78,324.47 1722.04,324.44 1728.78,321.33 1732.54,321.29 1733.34,325.33 1735.61,326.32 1737.16,330.36 1740.93,331.33 1743.28,339.41 1745.58,342.43 1749.36,344.41 1752.37,344.37 1757.62,342.29 1759.15,344.3 1762.18,346.29 1767.45,346.23 1775.78,350.18 1777.29,350.16 1779.57,352.16 1783.32,351.1 1785.59,352.09 1789.34,351.03 1793.07,347.95 1793.77,343.88 1799.07,345.84 1799.12,349.9 1803.7,354.91 1804.49,357.94 1807.54,360.95 1810.56,361.92 1815.89,366.92 1821.18,367.87 1824.9,364.78 1831.69,365.71 1834.68,363.64 1838.44,363.6 1839.98,365.6 1845.26,366.55 1846.79,368.56 1846.85,372.61 1848.43,378.67 1845.43,379.72 1844.03,387.85 1847.81,388.82 1852.37,391.8 1851.68,396.88 1853.23,399.9 1851.86,410.05 1854.91,413.05 1853.47,418.14 1854.28,422.19 1852.19,435.39 1853.77,441.45 1853.07,445.52 1855.35,446.5 1855.39,449.54 1853.89,450.58 1852.43,453.64 1857.06,461.69 1857.1,464.73 1860.17,468.74 1864.71,469.69 1867.79,474.72 1867.09,478.79 1871.71,485.82 1871.74,487.85 1870.27,490.91 1871.09,495.97 1873.38,497.96 1871.93,502.04 1874.27,508.09 1875.11,514.16 1878.14,515.13 1881.12,512.05 1884.92,514.03 1884.93,515.04 1887.23,517.04 1888.02,520.07 1891.08,523.07 1891.88,526.1 1894.17,528.09 1893.46,531.14 1896.53,535.16 1896.57,538.2 1898.9,542.22 1901.17,543.2 1900.49,548.28 1904.38,556.34 1905.97,562.4 1904.53,567.49 1904.63,574.58 1906.93,576.58 1909.32,585.67 1913.14,588.65 1913.95,592.7 1916.28,596.72 1919.35,600.73 1922.39,601.7 1923.18,603.72 1923.31,612.84 1921.82,614.89 1923.38,617.91 1927.2,620.9 1930.19,618.83 1932.49,620.82 1937.8,621.76 1940.79,619.69 1946.16,624.68 1949.88,620.57 1952.17,622.56 1955.94,621.49 1958.33,629.57 1962.17,633.57 1962.27,640.66 1963.81,642.67 1966.85,643.64 1968.49,651.72 1970.78,653.72 1971.62,658.77 1973.93,661.78 1973.19,662.8 1974.01,666.85 1975.55,668.85 1974.07,670.9 1974.11,673.94 1974.94,679 1976.5,682.02 1972.77,685.11 1971.31,689.19 1967.51,688.23 1963.85,696.4 1960.87,699.48 1960.16,702.53 1957.19,706.63 1956.48,709.68 1954.22,710.73 1946.02,719.97 1943.89,729.13 1940.93,734.24 1938.66,734.27 1937.17,736.32 1939.5,740.34 1939.58,745.41 1935.77,744.45 1929.73,745.55 1927.44,744.57 1924.41,744.61 1922.17,746.67 1920.64,745.68 1919.93,748.73 1915.41,750.82 1914.74,756.91 1912.52,761 1916.38,766.01 1916.45,771.08 1918.01,774.1 1915.15,786.31 1916.72,790.34 1914.51,794.42 1916.12,801.5 1915.39,803.54 1916.96,807.57 1923.04,808.5 1923.09,811.54 1925.37,812.52 1927.71,816.54 1926.96,817.56 1927.76,820.59 1927.85,826.68 1930.94,830.69 1932.46,830.67 1932.5,833.71 1929.55,839.83 1930.36,842.86 1930.47,850.97 1923.66,852.08 1922.26,860.21 1925.42,869.29 1931.62,878.32 1930.29,891.52 1925.02,894.64 1922.07,900.76 1924.37,902.76 1923.64,904.79 1926.02,911.86 1925.36,918.96 1929.95,920.92 1926.99,927.05 1927.04,930.09 1930.15,935.11 1937.86,943.11 1939.45,948.16 1937.98,951.22 1938,953.25 1935.74,954.29 1931.33,964.5 1928.27,963.52 1923.05,970.69 1918.61,978.87 1920.96,983.9 1925.56,986.88 1925.62,990.93 1930.35,1003.03 1928.11,1006.1 1926.75,1017.27 1929.23,1031.43 1929.35,1039.54 1930.17,1043.58 1916.5,1045.8 1910.51,1052.98 1909.03,1056.04 1906.76,1057.09 1901.42,1056.15 1900.69,1058.19 1898.41,1058.22 1889.99,1055.29 1883.92,1056.39 1881.66,1058.45 1878.63,1059.5 1873.29,1058.56 1870.98,1056.56 1865.67,1057.64 1863.37,1056.66 1861.86,1057.69 1858.05,1056.73 1851.21,1057.83 1848.19,1059.9 1845.91,1059.93 1844.36,1057.92 1839.82,1060.01 1831.45,1060.11 1825.4,1063.23 1820.83,1063.29 1817.76,1061.3 1813.11,1054.26 1810.85,1056.32 1811.63,1057.32 1810.14,1060.38 1808.61,1059.39 1804.8,1059.43 1804.02,1057.41 1802.53,1060.47 1802.56,1062.5 1801.05,1063.53 1799.57,1067.61 1795.03,1069.69 1792.77,1071.74 1785.92,1071.83 1779.87,1074.94 1777.61,1076.99 1776.15,1082.08 1773.16,1087.18 1773.95,1089.2 1771.69,1091.26 1770.97,1095.32 1773.33,1101.37 1777.16,1103.36 1778.71,1105.36 1777.99,1109.43 1776.48,1110.46 1777.29,1114.5 1773.54,1119.62 1774.32,1120.62 1771.31,1123.7 1772.85,1125.71 1773.66,1129.75 1775.21,1131.76 1773.2,1155.1 1767.06,1151.12 1762.47,1150.16 1752.59,1152.3 1745.76,1155.42 1745.07,1161.51 1737.53,1168.69 1735.29,1172.77 1736.13,1179.86 1735.39,1181.89 1737.04,1193.03 1738.61,1197.06 1737.88,1200.11 1743.31,1208.16 1742.56,1209.18 1746.42,1213.19 1748.79,1220.26 1750.33,1221.26 1752.66,1225.29 1755.74,1227.28 1760.3,1226.21 1763.36,1227.19 1767.16,1225.12 1766.45,1230.2 1767.21,1230.19 1767.25,1233.23 1765.78,1238.31 1762.77,1241.39 1755.29,1254.66 1751.49,1256.73 1742.34,1257.84 1739.34,1261.93 1734.72,1258.94 1727.73,1247.87 1720.03,1241.87 1719.22,1237.83 1716.92,1236.84 1716.13,1233.81 1713.05,1231.81 1711.51,1229.8 1712.25,1227.76 1709.91,1223.74 1705.3,1220.74 1704.49,1215.68 1699.17,1217.77 1696.88,1217.79 1695.39,1220.85 1690.81,1220.9 1687.09,1230.06 1684.82,1232.11 1686.39,1236.15 1685.68,1241.23 1682.68,1246.33 1682.71,1249.37 1672.13,1259.61 1667.64,1268.78 1645.66,1285.22 1635.74,1285.32 1631.89,1282.31 1625.7,1274.26 1624.92,1272.24 1606.61,1273.43 1579.93,1278.74 1576.11,1278.77 1564.7,1283.94 1561.64,1282.95 1554.01,1284.03 1550.22,1287.1 1544.84,1283.09 1538.73,1283.14 1534.93,1285.2 1533.39,1284.2 1525.77,1285.27 1524.98,1282.24 1515.84,1285.35 1513.54,1284.35 1509.68,1279.32 1502.78,1275.31 1502.75,1271.26 1504.24,1267.19 1498.13,1266.23 1495.09,1268.28 1492.83,1272.35 1486.72,1271.38 1480.57,1266.36 1477.52,1266.38 1472.98,1272.49 1468.38,1269.49 1462.26,1268.52 1462.28,1270.54 1459.23,1271.58 1457.72,1274.63 1455.43,1273.63 1452.39,1276.69 1450.86,1275.69 1450.92,1283.8 1448.63,1283.82 1445.56,1282.82 1444.76,1276.75 1445.5,1272.69 1443.91,1264.59 1442.38,1263.58 1440.83,1259.54 1440.81,1256.5 1443.08,1253.44 1434.71,1257.55 1428.61,1258.61 1424,1254.58 1420.18,1253.59 1412.52,1249.59 1408.71,1250.62 1404.88,1248.62 1404.08,1242.54 1400.25,1240.54 1395.67,1240.57 1394.9,1238.54 1389.56,1238.58 1384.23,1240.63 1383.45,1238.61 1381.16,1238.62 1377.37,1241.69 1374.3,1239.68 1367.44,1240.73 1361.31,1236.71 1359.77,1234.69 1352.18,1240.81 1352.19,1243.85 1343.03,1242.89 1328.55,1247.02 1325.51,1249.06 1324.01,1254.14 1321.73,1256.17 1318.71,1263.28 1314.14,1266.35 1309.61,1277.52 1301.99,1280.6 1298.17,1279.6 1293.6,1282.66 1287.48,1278.63 1281.34,1271.56 1271.4,1267.55 1266.82,1268.58 1263,1267.59 1259.92,1262.53 1256.1,1260.52 1257.61,1256.46 1256.84,1253.42 1252.24,1249.38 1246.9,1249.4 1243.83,1244.34 1243.07,1245.36 1242.33,1252.46 1240.82,1255.51 1237.01,1257.55 1231.66,1257.57 1231.67,1259.59 1228.63,1262.65 1226.35,1266.71 1221.77,1267.74 1218.74,1272.82 1201.18,1274.9 1198.14,1277.95 1192.03,1277.97 1188.98,1280 1186.69,1277.98 1179.05,1278 1177.52,1275.98 1174.47,1277 1172.19,1282.08 1166.86,1288.17 1161.52,1289.2 1159.99,1290.22 1158.48,1295.29 1156.18,1295.29 1151.61,1297.33 1143.98,1302.42 1142.46,1305.46 1134.84,1312.57 1127.96,1313.6 1127.2,1316.64 1128.74,1320.7 1127.21,1321.71 1127.22,1325.77 1124.94,1329.83 1124.95,1334.89 1122.66,1337.94 1125.72,1340.98 1127.26,1344.01 1127.27,1353.14 1130.34,1357.19 1128.05,1357.19 1127.29,1360.23 1121.18,1366.33 1119.65,1365.31 1117.36,1368.36 1105.89,1366.35 1107.44,1379.53 1104.38,1379.53 1099.8,1381.57 1099.8,1384.61 1094.45,1385.63 1089.1,1388.68 1088.34,1391.72 1084.52,1393.75 1079.94,1400.85 1081.47,1403.89 1079.95,1408.96 1077.66,1412.01 1075.36,1414.04 1068.48,1415.06 1062.36,1420.13 1058.54,1420.14 1055.48,1422.17 1051.66,1427.24 1048.6,1428.25 1044.01,1433.33 1044.02,1450.56 1047.08,1455.63 1045.56,1461.71 1046.33,1464.75 1044.03,1466.78 1040.2,1467.79 1035.61,1472.87 1034.85,1477.93 1030.25,1479.96 1025.66,1479.97 1021.83,1480.98 1017.23,1479.97 1011.11,1484.03 1008.04,1484.03 1007.28,1482 1002.68,1478.96 998.85,1478.96 995.02,1477.94 990.43,1478.96 988.13,1475.92 982,1470.85 974.35,1468.82 972.05,1465.77 968.99,1465.77 966.69,1467.8 963.63,1466.78 959.03,1468.81 956.74,1467.79 954.44,1468.8 952.9,1474.89 944.47,1484 940.63,1493.12 943.69,1495.15 942.93,1499.21 945.22,1502.25 945.22,1509.35 936.79,1510.35 930.66,1508.32 927.59,1508.32 924.53,1509.33 922.23,1511.35 919.93,1511.35 916.09,1513.37 914.55,1519.45 911.49,1521.47 906.12,1520.45 900.75,1526.53 900.75,1527.54 897.68,1529.56 895.38,1528.55 893.08,1529.56 890.78,1532.59 890.77,1535.64 887.69,1541.71 884.62,1543.73 880.8,1540.69 870.83,1542.7 869.29,1543.71 863.93,1543.7 863.18,1534.57 861.65,1532.54 855.52,1529.49 851.7,1526.44 850.18,1520.35 844.83,1515.27 838.72,1506.13 839.49,1503.09 837.96,1501.06 834.9,1501.05 832.61,1499.02 828,1501.04 815.76,1497.96 805.8,1496.92 785.86,1501.93 768.28,1491.73 749.9,1490.65 709.14,1527.99 708.36,1530.01 699.92,1532 689.17,1537.02 682.26,1538 674.57,1543.03 673.03,1545.05 669.98,1542 651.57,1543.93 648.5,1544.93 637,1543.85 630.07,1548.88 623.19,1546.82 621.68,1541.74 615.59,1534.61 607.95,1530.51 599.52,1529.44 596.48,1526.38 588.06,1524.31 585.75,1525.3 583.43,1528.33 578.82,1531.34 568.08,1532.29 565,1534.29 564.22,1536.32 560.37,1539.33 560.35,1541.36 558.04,1543.37 553.43,1544.36 549.56,1550.41 547.25,1551.41 542.65,1551.38 539.57,1553.38 520.4,1554.26 519.66,1550.2 520.45,1547.17 519.72,1542.09 515.15,1536.99 501.52,1515.6 500.77,1512.55 501.58,1507.49 504.68,1502.44 504.73,1496.36 503.22,1493.31 498.66,1488.21 491.04,1483.08 488.81,1473.94 489.59,1472.93 489.67,1461.78 488.17,1457.71 483.63,1451.6 482.89,1447.54 481.39,1444.48 481.42,1440.43 478.38,1437.36 472.29,1433.26 467.77,1424.1 467.05,1419.03 464.77,1415.97 461.73,1413.91 451.81,1410.79 441.1,1410.7 436.52,1409.65 422.78,1405.47 416.69,1402.38 412.89,1399.3 409.07,1399.27 403.72,1398.21 402.2,1397.18 394.55,1397.11 391.48,1398.1 388.39,1401.11 383.78,1403.09 379.87,1412.18 371.38,1420.21 367.51,1425.24 364.38,1432.31 363.57,1436.36 359.71,1440.37 355.86,1442.36 352.73,1449.43 356.48,1457.58 363.3,1464.74 377.01,1471.97 387.75,1470.04 391.56,1473.11 398.37,1481.29 407.51,1487.45 411.34,1487.49 414.38,1490.55 417.43,1491.6 422.03,1491.64 425.84,1493.7 418.14,1498.7 418.12,1500.73 420.38,1504.8 417.99,1514.92 413.38,1516.9 414.21,1508.8 408.15,1501.65 406.66,1496.57 405.9,1495.55 401.31,1495.51 399.79,1494.48 397.53,1489.39 392.96,1487.32 390.7,1483.24 388.4,1483.22 386.08,1485.23 385.35,1481.17 376.91,1483.12 376.12,1485.14 366.2,1482 363.86,1486.03 362.33,1486.02 363.07,1488.05 358.47,1489.02 351.59,1486.93 346.28,1481.81 342.46,1480.75 314.26,1467.29 308.06,1474.32 297.91,1492.46 298.64,1496.52 297.84,1499.56 287.8,1506.55 282.44,1506.49 277.83,1507.45 274.03,1504.37 268.69,1502.28 262.56,1502.21 261.02,1503.21 258.73,1502.17 257.99,1500.14 245.71,1502.02 226.65,1493.69 225.12,1493.68 225.9,1492.67 231.27,1491.72 235.13,1488.72 237.48,1484.7 242.88,1481.72 244.43,1479.71 248.24,1481.78 259.77,1477.85 262.15,1470.78 258.49,1455.54 259.35,1447.43 260.89,1446.44 260.91,1444.41 265.53,1442.43 267.88,1437.39 267.18,1431.3 271.05,1427.29 274.95,1421.25 275.74,1418.22 278.05,1417.23 278.09,1413.17 277.36,1410.12 275.84,1409.09 275.87,1407.07 279.72,1404.07 282.05,1401.05 282.92,1391.94 285.26,1387.91 285.3,1383.85 283.08,1376.73 283.13,1372.68 281.65,1367.59 282.46,1363.55 281.74,1359.49 279.49,1355.41 280.34,1347.31 279.59,1346.28 279.68,1338.17 278.17,1336.13 278.24,1330.05 280.55,1328.05 279.82,1325 276.06,1319.89 276.9,1312.8 282.33,1305.76 285.48,1296.67 280.95,1291.56 277.91,1290.51 271.02,1291.45 269.54,1287.38 270.33,1285.36 265.02,1282.26 257.4,1280.14 256.7,1275.07 253.7,1269.96 247.65,1264.83 244.69,1256.68 245.48,1254.66 244.01,1249.58 242.53,1245.51 238.78,1239.38 235.75,1237.32 224.36,1233.13 195.41,1228.73 187.78,1228.63 185.52,1226.58 183.2,1228.58 171.72,1231.48 170.18,1232.47 167.84,1236.5 166.2,1245.6 166.95,1246.62 166.12,1251.68 166.86,1253.72 163.69,1262.8 161.36,1265.81 158.28,1267.8 157.46,1272.86 158.96,1274.91 153.42,1290.04 152.6,1294.09 154.04,1301.2 151.58,1314.35" fill="none" stroke="#1e1e1e" stroke-width="2.04" stroke-linecap="round" stroke-linejoin="round"/>
<text x="900.81" y="795.67" font-family="sans-serif" font-size="14" stroke="#ffffff" stroke-opacity="0.784" stroke-width="2.33" stroke-linejoin="round" paint-order="stroke" fill="#141414">North Macedonia</text>
</svg>
