<?xml version="1.0" encoding="UTF-8" standalone="no"?>
<svg xmlns="http://www.w3.org/2000/svg" width="1048" height="2000" viewBox="0 0 1048 2000">
<rect width="1048" height="2000" fill="#ffffff"/>
<polyline points="747.69,833.31 750.25,822.05 753.62,813.37 758.65,806.73 760.76,801.09 762.89,800.13 765.21,800.42" fill="none" stroke="#1e1e1e" stroke-width="1.16" stroke-linecap="round" stroke-linejoin="round"/>
<polyline points="747.69,833.31 745.71,839.83 740.99,844.65 716.6,859 712.81,861.9 703.33,872.13 699.33,878.42 698.47,883.77 698.75,887.28 693.89,896.07 688.27,910.45" fill="none" stroke="#1e1e1e" stroke-width="1.16" stroke-linecap="round" stroke-linejoin="round"/>
<polyline points="883.93,776.21 875.51,775.91 866.38,778.03 863.25,780.3 853.77,796.16 851.14,798.9 848.6,799.72 831.55,794.93 821.01,789.17 816.25,789.65 812.47,791.17 802.65,797.57 794.19,801.65 784.55,803.02 774.67,802.41 765.21,800.42" fill="none" stroke="#1e1e1e" stroke-width="1.16" stroke-linecap="round" stroke-linejoin="round"/>
<polyline points="442.54,1615.01 440.28,1603.93 436.02,1597.49 433.39,1588.46 431.75,1579.05 428.82,1570.61 422.33,1564.55 412.51,1558.49 409.39,1557.63 395.16,1557.05 386.85,1558.59 361.59,1569.14 335.73,1584.33 333.64,1587.11 331.01,1604.56 331.21,1616.59 328.03,1622.78 327.69,1632.55 325.1,1637 322.29,1647.62 312.97,1657.45 307.75,1666.29 304.5,1667.46 298.59,1667.67 295.96,1670.51 291.17,1679.05 288.53,1680.34 277.95,1681.04 269.55,1677.85 267.17,1677.36 264.29,1677.92 254.18,1684.01 243.2,1686.32 233.77,1691.51 230.49,1691.75 224.91,1684.77 220.21,1682.21 214.75,1681.28 197.45,1680.83 192.83,1682.55 185.47,1686.97 182.67,1687.46 172.33,1684.35 168.92,1681.45 164.97,1681.18 162.3,1678.73 158.87,1677.36 151.92,1678.15 148.73,1676.79 143.84,1672.59 138.38,1671.51 134.81,1673.23 133.48,1678.82 130.66,1683.86 116.79,1689.63" fill="none" stroke="#1e1e1e" stroke-width="1.16" stroke-linecap="round" stroke-linejoin="round"/>
<polyline points="659.88,1065 658.05,1060.98 655.14,1060.03 654.29,1059 654.31,1055.07 651.12,1051.64 649.59,1047.57 649.04,1037.37 647.01,1033.41 636.01,1028.53 631.75,1030.48 627.56,1030.3 625.57,1029.43 624.01,1022.21 622.63,1020.54 620.13,1019.57 614.76,1020.12 612.73,1018.64 611.81,1014.63 609.37,1011.9 608.2,1008.82 606.26,1007.68 600.7,1007.95 589.72,1003.69 588.07,1001.81 587.66,998.79 582.96,997.8 579.88,995.19 565.29,992.45 561.55,987.88 555.99,984.87 554.22,982.97 551.7,978.53 549.95,971.82 543.75,965.48 538.78,943.42 537.7,923.3 535.99,915.99 536.76,911.69 540.01,904.92 539.91,902.95 536.48,898.7 529.93,895.5 528.29,893.19 528.62,889.08 527.35,885.7 528.07,881.09 527.66,878.84 522.03,875.23 522.58,866.37 518.67,860.06 517.87,850.76 518.47,847.37 521.55,842.42 521.55,834.49 526.21,827.63 527.19,824.54 527.56,817.04 529.62,810.89 528.14,803.01 529.95,797.19 528.17,785.42 523.73,776.31 523.09,767.32 519.27,758.54 515.56,745.36 513.95,743 523.17,732.41 524.83,724.72 528.62,719.48 528.68,715.38 523.35,704.49 515.6,698.79 513.26,691.32 505.97,686.2 504.53,680.99 506.18,671.66 506.23,666.61 504.06,664.42 501.4,663.63 496.99,657.87 494.97,657.52 485.17,659.49 481.48,657.95 481.01,655.52 481.83,653.44 488.01,650.03 487.99,648.42 484.23,644.81 485.61,640.39 482.84,632.98 482.98,629.81 485.4,623.47 487.45,621.1 491.46,619.18 492.1,615.66 486.81,602.13 482.31,597.57 474.09,591.98" fill="none" stroke="#1e1e1e" stroke-width="1.16" stroke-linecap="round" stroke-linejoin="round"/>
<polyline points="636.03,1200.12 634.81,1204.18 630.14,1210.06 626.09,1211.82 622.19,1216.15 620.8,1215.37 618.91,1217.2 614.75,1215.14 611.12,1214.46 607.94,1217.14 605.56,1216.08 599.96,1217.14 595.36,1220.07 589.68,1219.36 587.49,1219.95 586.15,1222.96 583.43,1220.52 580.87,1220.59 579.57,1222.58 580.56,1225.98 578,1229.37 576.43,1230 568.7,1227.72 565.57,1225.3 564.94,1223.9 561.73,1229.73 559.79,1229.59 556.66,1226.74 551.39,1230.36 546.47,1230.74 540.91,1224.43 543.51,1220.39 535.89,1219.96 534.05,1214.97 528.61,1214.82 526.28,1213.46 525.27,1210.15 519.1,1212.93 514.2,1209.83 510.09,1211.81 506.8,1212.12 494.85,1206.64 492.66,1207.13 487.87,1211.75 484.73,1211.61 482.21,1208.6 476.8,1207.6 471.68,1205.38 470.01,1205.32 463.5,1208.26 460.91,1207.65 452.38,1202.42 448.62,1197.7 449.14,1195.44 452.35,1193.51 448.64,1186.67 450.69,1185.96 451.49,1184.06 451.31,1181.74 448.87,1178.43 443.09,1174.84 440.8,1178.48 437.5,1180.82 434.29,1184.79 433.29,1184.93 432.19,1178.89 425.93,1176.45 424.1,1169.13 422.63,1167.07 418.02,1167.09 414.33,1164.16 405.61,1163.73 398.95,1160.75 394.9,1159.81 391.78,1161.3 388.51,1161.35 385.06,1159.47 374.54,1150.08 369.97,1148.71 360.41,1148.55 355.94,1147.77 352.32,1145.82 348.54,1145.85 343.69,1140.94 335.55,1134.65 330.01,1133.71" fill="none" stroke="#1e1e1e" stroke-width="1.16" stroke-linecap="round" stroke-linejoin="round"/>
<polyline points="330.01,1133.71 326.29,1129.29 319.69,1127.65 318.38,1128.37 316.11,1136.31 314.3,1138.48 312.73,1138.86 307.28,1135.53 304.99,1130.44 300.23,1137.97 297.1,1140.95 293.04,1142.41 288.75,1141.31 282.47,1134.19 279.01,1131.18 276.77,1130.64 274.49,1131.03 270.8,1133.82 270.01,1139.88 267.99,1140.7 266.46,1139.87 264.45,1136.39 262.37,1135.85 260.01,1137.18 257.93,1140.15 255.12,1138.88 245.55,1127.52 241.04,1127.2 233.26,1133.71 231.34,1134.41 224.43,1131.8 220.91,1131.69 212.86,1133.59 201.21,1125.71 196.46,1123.93" fill="none" stroke="#1e1e1e" stroke-width="1.16" stroke-linecap="round" stroke-linejoin="round"/>
<polyline points="568.18,1461.59 570.39,1460.91 570.98,1458.58 570.9,1457.62 568.82,1456.47 567.68,1454.22 559.48,1453.7 549.69,1449.99 547.36,1448.32 549.09,1446.27 546.93,1444.39 540.39,1444.93 538.28,1441.53 535.16,1442.35 534.44,1441.88 533.45,1439.96 535.36,1437.42 534.93,1434.21 533.72,1431.89 529.76,1429.16 522.63,1426.28 517.48,1421.35 512,1419.67 510.88,1420.48 509.27,1424.76 507.26,1424.41 507.87,1421.63 503.3,1419.67 503.3,1413.31 501.48,1402.04 502.08,1396.57 506.01,1392.13 500.98,1387.71 500.36,1381.31 498.7,1380.28 494.82,1385.12 493.32,1384.33 489.26,1385.15 487.77,1384.31 489.41,1377.47 488.16,1376.46 484.44,1376.18 483.17,1374.52 477.31,1373.63 473.79,1370.94 470.76,1370.37 469.38,1368.57 470.37,1366.6 465.13,1364.84 463.56,1363.48 462.55,1359.41 458.79,1358.88 454.97,1359.54 454.66,1357.82 450.84,1354.95 448.37,1354.11 443.48,1356.61 434.47,1354.05 425.21,1353.8 422.97,1354.54 421.92,1358.28 420.25,1359.88 403.07,1361.62 399.89,1364.95 395.21,1375.71 384.96,1381.27 379.13,1380.25 374.59,1382.79 372.98,1382.27 371.33,1378.79 365.87,1378.34" fill="none" stroke="#1e1e1e" stroke-width="1.16" stroke-linecap="round" stroke-linejoin="round"/>
<polyline points="365.87,1378.34 361.8,1375.81 359.35,1375.93 349.43,1383.45 345.39,1381.27 341.23,1380.67 340.15,1382.05 336.33,1394.26 333.6,1398.88 320.36,1412.68 318.1,1413.7 301.99,1416.33 299.63,1415.58 297.01,1413.41 291.4,1413.3 281.01,1417.09 276.32,1417.02 265.48,1421.07 245.46,1424.34 231.42,1424.47 220.01,1432.95 215.24,1434.23 208.57,1437.55 198.32,1438.06 193.94,1439.28 189.97,1441.82 188.76,1437.98 186.65,1436.14 182.33,1441.28 181.09,1441.21 178.88,1437.07 174.46,1434.54 169.49,1434.89 160.63,1439.41 155.15,1446.3 145.44,1448.97 142.47,1448.34 138.78,1445.45 133.49,1444.4 131.87,1443.2 129.95,1437.34 126.67,1433.89 121.86,1423.62 117.4,1420.06 115.96,1413.49 112.53,1406.56 111.59,1400.7 106.88,1396.67 104.2,1393.2 100.84,1386.66 95.09,1383.53 93.75,1381.67 91.84,1372.43 83.42,1365.72" fill="none" stroke="#1e1e1e" stroke-width="1.16" stroke-linecap="round" stroke-linejoin="round"/>
<text x="476.28" y="852.49" font-family="sans-serif" font-size="14" stroke="#ffffff" stroke-opacity="0.784" stroke-width="2.33" stroke-linejoin="round" paint-order="stroke" fill="#141414">Betsiboka</text>
<text x="278.16" y="1667.99" font-family="sans-serif" font-size="14" stroke="#ffffff" stroke-opacity="0.784" stroke-width="2.33" stroke-linejoin="round" paint-order="stroke" fill="#141414">Onilahy</text>
<text x="455.36" y="1215.2" font-family="sans-serif" font-size="14" stroke="#ffffff" stroke-opacity="0.784" stroke-width="2.33" stroke-linejoin="round" paint-order="stroke" fill="#141414">Mania</text>
<text x="170.51" y="1444.4" font-family="sans-serif" font-size="14" stroke="#ffffff" stroke-opacity="0.784" stroke-width="2.33" stroke-linejoin="round" paint-order="stroke" fill="#141414">Mangoky</text>
<text x="417.29" y="1391.32" font-family="sans-serif" font-size="14" stroke="#ffffff" stroke-opacity="0.784" stroke-width="2.33" stroke-linejoin="round" paint-order="stroke" fill="#141414">Mananantanana</text>
<text x="782.11" y="800.44" font-family="sans-serif" font-size="14" stroke="#ffffff" stroke-opacity="0.784" stroke-width="2.33" stroke-linejoin="round" paint-order="stroke" fill="#141414">Maningory</text>
<text x="223.98" y="1146.89" font-family="sans-serif" font-size="14" stroke="#ffffff" stroke-opacity="0.784" stroke-width="2.33" stroke-linejoin="round" paint-order="stroke" fill="#141414">Tsiribihina</text>
</svg>
