<?xml version="1.0" encoding="UTF-8" standalone="no"?>
<svg xmlns="http://www.w3.org/2000/svg" width="1048" height="2000" viewBox="0 0 1048 2000">
<rect width="1048" height="2000" fill="#ffffff"/>
<path d="M761.08,1233.63L756.09,1235.59L753.84,1231.84L751.43,1230.09L749.12,1232.94L745.9,1231.91L740.52,1232L740.67,1229.42L737.32,1228.38L737.48,1225.23L731.82,1225.9L733.24,1217.3L729.2,1218.27L727.08,1214.37L720.98,1218.91L719.92,1217.61L714.4,1217.28L714.28,1215.56L709.05,1212.65L707.37,1203.88L701.71,1204.55L699.24,1210.42L694.49,1215.27L693.9,1222.15L691.58,1227.45L690.44,1237.05L685.06,1236.87L681.71,1234.56L677.27,1233.95L672.7,1234.93L669.45,1237.2L661.93,1235.87L658.97,1236.57L650.74,1240.54L648.46,1238.95L646.06,1235.06L641.76,1233.89L638.68,1231.87L638.15,1229.28L633.35,1221.08L634.88,1209.17L641.97,1192.13L640.66,1185.23L636.49,1183.06L637.07,1174.74L634.41,1166.26L634.42,1163.82L641.36,1151.51L645.16,1147.23L648.8,1148.25L656.81,1139.68L659,1134.67L658.51,1126.63L659.06,1123.62L656.92,1120.74L659.24,1116.74L661.44,1109.43L660.38,1105.26L664.47,1100.98L665.97,1097.84L668.05,1090.1L672.17,1079.79L670.57,1075.19L672.11,1067.45L667.13,1062.11L666.48,1057.81L667.86,1054.08L666.68,1047.33L672.03,1036.32L675.99,1031.89L676.55,1029.89L673.18,1025.85L671.99,1020.97L673.51,1016.96L671.03,1000.3L671.21,993.84L678.39,975.81L682.03,959.33L682.47,954.89L681.15,948.57L683.47,947.29L687.69,947.03L688.67,942.3L684.93,932.66L684.41,928.07L685.66,924.78L683.63,922.18L682.71,917.15L682.11,904.38L680.41,893.32L677.04,887.27L674.09,879.07L669.2,874.74L669.24,868.28L674.74,862.86L674.48,859.99L680.3,847.4L683.58,847.42L682.65,842.68L688.96,839.99L690.77,834.84L690.17,823.5L693.45,823.81L693.9,817.64L695.42,815.21L698.71,814.95L699.01,810.93L700.96,807.07L693.16,806.59L694.28,802.29L697.57,802.02L697.74,797.29L699.7,791.42L703.97,789.15L703.34,781.4L710.7,769.11L709.22,765.08L708.72,758.04L707.49,757.6L709.04,751.87L707.4,751.28L701.77,752.39L700.28,749.22L692.23,742.42L693.48,740.56L693.28,729.51L689.73,726.75L688.1,723.44L685.37,721.84L685.12,717.11L683.62,716.09L680.36,710.04L678.03,709.16L674.62,704.26L676.85,699.82L675.5,695.94L676.89,692.36L672.96,683.72L669.96,679.11L669.76,666.47L673.1,659.74L675.08,652.43L670.86,643.35L671.03,637.9L675.35,630.89L679.33,633.93L696.27,637.06L700.27,635.79L705.51,636.12L708.28,634.42L712.83,635.03L716.98,633.05L722.49,633.23L727.96,638.88L736.62,641.97L738.52,645.72L744.86,645.78L748.15,647.1L754.15,654.77L758.26,656.24L765.76,664.36L769.27,671.43L772.7,672.75L770.7,679.48L773.7,682.96L773.94,685.83L771.38,694.42L771.77,697.01L775.35,696.62L778.64,697.8L781.95,696.83L788.68,697.05L790.18,698.93L812.06,697.88L813.51,691.01L815.61,688.16L813.06,682.53L814.23,677.23L825.33,669.61L830.45,668.1L837.34,667.61L839.44,664.62L841.93,663.93L845.18,658.09L841.95,652.01L847.49,639.45L851.81,636.2L854.06,632.79L852.63,626.3L853.68,619.85L849.58,617.07L848.37,614.75L849.44,607.01L851.76,598.28L847.82,593.49L838.93,586.76L834.86,580.96L830.43,559.35L830.34,554.76L834.04,546.61L834.57,537.71L833.67,532.38L835.97,525.37L833.78,523.61L828.81,521.97L825.62,522.79L823.14,521.18L823.23,514.43L821.88,511.39L823.6,506.38L826.8,505.27L835.82,504.81L843.76,502.04L847.81,499.93L850.2,496.8L854.34,498.44L856.3,497.31L863.25,496.26L865.53,491.4L870.52,491.9L873.31,490.65L874.12,482.75L872.8,477.84L872.94,467.78L876.44,465.96L884.32,468.38L885.88,456.32L884.42,451.84L885.64,444.81L886.77,442.96L891.24,450.93L893.88,451.41L897.82,447.87L897.23,441.1L900.98,440.87L904.77,447.83L912.07,451.83L918.8,465.45L922.65,467.82L930.5,463.34L932.38,466.97L936.89,471.64L936.51,477.68L943.66,489.73L952.19,493.76L956.82,490.82L959.17,491.3L964.48,496.71L962.07,507.59L964.63,511.66L965.67,515.56L964.44,522.73L963.29,525.01L963.71,532.2L962.43,542.24L960.03,552.69L960.81,555.29L963.67,557.93L967.81,566.05L967.28,572.51L963.66,574.02L961.53,569.39L955.39,564.68L956.56,560.82L955.55,555.2L957.3,550.2L955.28,547.29L946.97,539.24L947.33,534.65L949.2,530.65L947.62,525.45L949.05,522.89L944.95,520.09L942.01,521.76L933.42,521.76L928.95,523.84L925.92,522.64L921.2,523.29L917.41,526.24L911.2,533.33L908.78,537.89L909.12,542.64L913.58,549.47L912.22,556.49L917.65,571.95L918.4,576.56L920.42,580.04L920.23,583.63L923.87,588.86L917.61,600.4L915.83,607.69L918.91,613.92L919.93,619.25L922.22,622.45L927.42,625.41L932.5,625.23L931.41,625.76L931.25,627.19L936.75,628.15L940.79,634.11L938.31,641.82L934.6,649.8L934.79,654.83L936.55,656.73L936.17,662.75L937.25,664.21L939.04,664.24L940.65,666.42L937.75,674.99L937.49,682.74L936.21,685.16L932.99,687.98L930.96,694.26L928.44,697.09L927.26,701.67L923.14,701.31L920.75,704.58L921.21,710.33L925.76,718.01L930.64,722.11L933.78,723.03L936.68,722.36L933.22,723.88L910.62,727.96L904.94,730.46L901.87,733.57L900.56,738.71L893.93,750.24L892.63,754.82L893.03,755.54L889.03,765.53L879.55,785.92L876.64,797.5L877.29,799.52L880.41,801.57L882.42,804.62L881.53,809.77L882.72,812.52L885.43,814.28L883.99,818.99L884.5,821.44L886.14,821.75L885.2,829.63L886.54,831.37L887.65,839.57L890.63,841.91L890.98,845.51L878.97,881.78L874.19,900.37L874.14,903.67L876.26,908.29L876.23,910.58L871.79,915.4L870.39,918.11L866.21,934.12L864.39,947.44L859.09,956.26L855.27,967.4L850.23,977.81L832.06,1026.93L829,1032.63L819.63,1056.19L815.23,1072.35L815.3,1077.94L799.71,1115.07L791.47,1150.42L790.69,1159.6L792.15,1161.77L789.12,1168.05L787.02,1175.06L766.89,1218.19L761.08,1233.63Z" fill-rule="evenodd" fill="#4682b4" fill-opacity="0.471"/>
<polyline points="761.08,1233.63 756.09,1235.59 753.84,1231.84 751.43,1230.09 749.12,1232.94 745.9,1231.91 740.52,1232 740.67,1229.42 737.32,1228.38 737.48,1225.23 731.82,1225.9 733.24,1217.3 729.2,1218.27 727.08,1214.37 720.98,1218.91 719.92,1217.61 714.4,1217.28 714.28,1215.56 709.05,1212.65 707.37,1203.88 701.71,1204.55 699.24,1210.42 694.49,1215.27 693.9,1222.15 691.58,1227.45 690.44,1237.05 685.06,1236.87 681.71,1234.56 677.27,1233.95 672.7,1234.93 669.45,1237.2 661.93,1235.87 658.97,1236.57 650.74,1240.54 648.46,1238.95 646.06,1235.06 641.76,1233.89 638.68,1231.87 638.15,1229.28 633.35,1221.08 634.88,1209.17 641.97,1192.13 640.66,1185.23 636.49,1183.06 637.07,1174.74 634.41,1166.26 634.42,1163.82 641.36,1151.51 645.16,1147.23 648.8,1148.25 656.81,1139.68 659,1134.67 658.51,1126.63 659.06,1123.62 656.92,1120.74 659.24,1116.74 661.44,1109.43 660.38,1105.26 664.47,1100.98 665.97,1097.84 668.05,1090.1 672.17,1079.79 670.57,1075.19 672.11,1067.45 667.13,1062.11 666.48,1057.81 667.86,1054.08 666.68,1047.33 672.03,1036.32 675.99,1031.89 676.55,1029.89 673.18,1025.85 671.99,1020.97 673.51,1016.96 671.03,1000.3 671.21,993.84 678.39,975.81 682.03,959.33 682.47,954.89 681.15,948.57 683.47,947.29 687.69,947.03 688.67,942.3 684.93,932.66 684.41,928.07 685.66,924.78 683.63,922.18 682.71,917.15 682.11,904.38 680.41,893.32 677.04,887.27 674.09,879.07 669.2,874.74 669.24,868.28 674.74,862.86 674.48,859.99 680.3,847.4 683.58,847.42 682.65,842.68 688.96,839.99 690.77,834.84 690.17,823.5 693.45,823.81 693.9,817.64 695.42,815.21 698.71,814.95 699.01,810.93 700.96,807.07 693.16,806.59 694.28,802.29 697.57,802.02 697.74,797.29 699.7,791.42 703.97,789.15 703.34,781.4 710.7,769.11 709.22,765.08 708.72,758.04 707.49,757.6 709.04,751.87 707.4,751.28 701.77,752.39 700.28,749.22 692.23,742.42 693.48,740.56 693.28,729.51 689.73,726.75 688.1,723.44 685.37,721.84 685.12,717.11 683.62,716.09 680.36,710.04 678.03,709.16 674.62,704.26 676.85,699.82 675.5,695.94 676.89,692.36 672.96,683.72 669.96,679.11 669.76,666.47 673.1,659.74 675.08,652.43 670.86,643.35 671.03,637.9 675.35,630.89 679.33,633.93 696.27,637.06 700.27,635.79 705.51,636.12 708.28,634.42 712.83,635.03 716.98,633.05 722.49,633.23 727.96,638.88 736.62,641.97 738.52,645.72 744.86,645.78 748.15,647.1 754.15,654.77 758.26,656.24 765.76,664.36 769.27,671.43 772.7,672.75 770.7,679.48 773.7,682.96 773.94,685.83 771.38,694.42 771.77,697.01 775.35,696.62 778.64,697.8 781.95,696.83 788.68,697.05 790.18,698.93 812.06,697.88 813.51,691.01 815.61,688.16 813.06,682.53 814.23,677.23 825.33,669.61 830.45,668.1 837.34,667.61 839.44,664.62 841.93,663.93 845.18,658.09 841.95,652.01 847.49,639.45 851.81,636.2 854.06,632.79 852.63,626.3 853.68,619.85 849.58,617.07 848.37,614.75 849.44,607.01 851.76,598.28 847.82,593.49 838.93,586.76 834.86,580.96 830.43,559.35 830.34,554.76 834.04,546.61 834.57,537.71 833.67,532.38 835.97,525.37 833.78,523.61 828.81,521.97 825.62,522.79 823.14,521.18 823.23,514.43 821.88,511.39 823.6,506.38 826.8,505.27 835.82,504.81 843.76,502.04 847.81,499.93 850.2,496.8 854.34,498.44 856.3,497.31 863.25,496.26 865.53,491.4 870.52,491.9 873.31,490.65 874.12,482.75 872.8,477.84 872.94,467.78 876.44,465.96 884.32,468.38 885.88,456.32 884.42,451.84 885.64,444.81 886.77,442.96 891.24,450.93 893.88,451.41 897.82,447.87 897.23,441.1 900.98,440.87 904.77,447.83 912.07,451.83 918.8,465.45 922.65,467.82 930.5,463.34 932.38,466.97 936.89,471.64 936.51,477.68 943.66,489.73 952.19,493.76 956.82,490.82 959.17,491.3 964.48,496.71 962.07,507.59 964.63,511.66 965.67,515.56 964.44,522.73 963.29,525.01 963.71,532.2 962.43,542.24 960.03,552.69 960.81,555.29 963.67,557.93 967.81,566.05 967.28,572.51 963.66,574.02 961.53,569.39 955.39,564.68 956.56,560.82 955.55,555.2 957.3,550.2 955.28,547.29 946.97,539.24 947.33,534.65 949.2,530.65 947.62,525.45 949.05,522.89 944.95,520.09 942.01,521.76 933.42,521.76 928.95,523.84 925.92,522.64 921.2,523.29 917.41,526.24 911.2,533.33 908.78,537.89 909.12,542.64 913.58,549.47 912.22,556.49 917.65,571.95 918.4,576.56 920.42,580.04 920.23,583.63 923.87,588.86 917.61,600.4 915.83,607.69 918.91,613.92 919.93,619.25 922.22,622.45 927.42,625.41 932.5,625.23 931.41,625.76 931.25,627.19 936.75,628.15 940.79,634.11 938.31,641.82 934.6,649.8 934.79,654.83 936.55,656.73 936.17,662.75 937.25,664.21 939.04,664.24 940.65,666.42 937.75,674.99 937.49,682.74 936.21,685.16 932.99,687.98 930.96,694.26 928.44,697.09 927.26,701.67 923.14,701.31 920.75,704.58 921.21,710.33 925.76,718.01 930.64,722.11 933.78,723.03 936.68,722.36 933.22,723.88 910.62,727.96 904.94,730.46 901.87,733.57 900.56,738.71 893.93,750.24 892.63,754.82 893.03,755.54 889.03,765.53 879.55,785.92 876.64,797.5 877.29,799.52 880.41,801.57 882.42,804.62 881.53,809.77 882.72,812.52 885.43,814.28 883.99,818.99 884.5,821.44 886.14,821.75 885.2,829.63 886.54,831.37 887.65,839.57 890.63,841.91 890.98,845.51 878.97,881.78 874.19,900.37 874.14,903.67 876.26,908.29 876.23,910.58 871.79,915.4 870.39,918.11 866.21,934.12 864.39,947.44 859.09,956.26 855.27,967.4 850.23,977.81 832.06,1026.93 829,1032.63 819.63,1056.19 815.23,1072.35 815.3,1077.94 799.71,1115.07 791.47,1150.42 790.69,1159.6 792.15,1161.77 789.12,1168.05 787.02,1175.06 766.89,1218.19 761.08,1233.63" fill="none" stroke="#1e1e1e" stroke-width="1.16" stroke-linecap="round" stroke-linejoin="round"/>
<path d="M938.07,745.78L939.64,742.22L939.07,735.32L942.76,728.2L945.11,727.38L947.37,724.12L948.96,719.55L954.25,715.34L955.76,708.04L958.02,704.35L961.99,705.42L959.16,710.11L951.99,726.93L951.51,730.51L949.13,733.34L948.25,736.63L945.9,737.3L941.61,747.42L935.43,755.64L934.68,751.04L935.84,747.32L938.07,745.78Z" fill-rule="evenodd" fill="#4682b4" fill-opacity="0.471"/>
<polyline points="938.07,745.78 939.64,742.22 939.07,735.32 942.76,728.2 945.11,727.38 947.37,724.12 948.96,719.55 954.25,715.34 955.76,708.04 958.02,704.35 961.99,705.42 959.16,710.11 951.99,726.93 951.51,730.51 949.13,733.34 948.25,736.63 945.9,737.3 941.61,747.42 935.43,755.64 934.68,751.04 935.84,747.32 938.07,745.78" fill="none" stroke="#1e1e1e" stroke-width="1.16" stroke-linecap="round" stroke-linejoin="round"/>
<path d="M932.01,762.91L930.65,762.74L930.82,760.73L932.59,761.34L932.01,762.91Z" fill-rule="evenodd" fill="#4682b4" fill-opacity="0.471"/>
<polyline points="932.01,762.91 930.65,762.74 930.82,760.73 932.59,761.34 932.01,762.91" fill="none" stroke="#1e1e1e" stroke-width="1.16" stroke-linecap="round" stroke-linejoin="round"/>
<path d="M667.18,277.8L670.44,270.47L669.89,268.6L672.22,252.77L680.2,252.81L680.64,250.66L678.26,250.35L679.66,249.64L680.94,247.34L680.11,245.9L681.8,243.89L682.94,240.58L687.54,244.36L684.17,245.35L683.04,247.5L687.49,251.85L694.38,248.3L689.93,243.37L695.95,243.99L697.18,248.6L700.09,252.08L702.47,252.39L703.15,254.99L707.07,255.59L706.76,258.9L708.3,258.77L707.01,263.37L709.79,265.55L710.04,270.02L709.47,271.17L710.87,272.04L709.86,275.49L713.61,278.54L718.32,284.63L724.34,284.82L727.42,284.27L731.35,282.28L730.67,279.69L732.5,278.69L730.7,276.66L730.92,267.01L731.91,265.58L732.22,261.98L736.43,260.72L739.56,255.13L742.36,254.58L743.92,252.14L743.23,251.99L752.2,250.49L753.36,246.18L756.7,248.51L757.68,248.23L756.72,246.5L757.71,245.35L758.69,245.65L759.7,242.49L757.94,235.56L754.34,230.91L752.86,224.99L756.39,222L757.33,226.18L759.84,227.22L761.5,230.26L768.34,233.35L769.41,237.97L774.2,236L770.57,233.81L772.4,232.96L778.42,233.74L778.7,234.32L782.76,234.22L786.52,236.42L791.73,234.46L803.47,224.79L800.89,216.83L801.66,211.22L814.19,207.47L812.94,205.72L809.15,206.11L806.51,203.78L806.14,199.01L802.93,197.39L805.37,193.38L805.01,187.47L806.78,179.85L809.2,176.99L811.74,176.15L809.98,170.08L814.83,163.93L818.89,154.03L820.51,147.84L820.7,143.52L817.82,137.28L814.46,135.22L814.27,127.57L812.75,125.39L813.74,124.68L813.64,121.5L811.26,120.18L808.3,120.58L807.92,116.96L808.62,116.83L810.21,113.67L809.51,112.94L808.51,113.94L808.54,111.49L809.57,108.18L812.41,106.05L810.61,103.57L803.68,105.95L803.87,100.9L801.24,96.68L798.29,95.93L798.59,94.2L797.11,87.69L795.39,90.12L790.21,87.61L792.9,86.06L792.94,82.59L795.21,81.46L798.57,83.66L801.81,83.27L808.14,84.49L809.92,89.42L812.29,91.76L813.39,94.22L811.79,98.68L813.04,100.14L820.71,95.03L822.83,82.79L825.51,82.38L826.54,79.08L823.88,77.02L826.75,73.16L830.69,73.93L832.16,69.33L834.68,70.95L836.98,67.65L838.48,71.14L842.31,70.17L842.78,66.43L845.79,62.85L848.56,66.21L851.61,59.9L849.83,55.97L852.55,52.54L854.02,48.52L855.13,49.98L856.46,45.52L854.09,42.74L850.81,45.15L850.73,40.53L848.76,39.93L847.06,40.63L842.56,38.98L847.24,37.31L850.55,33.16L850.8,35.04L853.62,35.8L854.85,38.85L857.95,39.18L859.54,36.75L857.17,34.55L857.2,31.95L858.05,31.81L857.92,31.23L853.39,31.75L852.98,30.59L854.67,31.05L856.54,28.62L857.51,29.78L858.94,28.65L859.36,29.23L859.11,26.92L857.97,27.48L856.71,26.45L864.17,18.46L868.41,18.37L869.23,20.12L871.49,20.73L873.95,26.4L875.13,33.49L877.8,34.54L879.29,39.04L879.25,41.35L878.69,41.2L878.11,42.49L879.17,47.56L876.17,49.69L873.22,48.78L867.68,51.16L864.21,46.63L861.19,50.35L863.25,54.85L860.11,57.27L865.58,59.94L869.39,59.99L867.5,64.15L862.96,65.82L860.06,61.02L857.36,63.01L856.31,67.61L859.1,69.96L862.36,68.56L867.02,68.48L868.33,65.61L871.6,63.92L873.67,66.69L872.08,69.85L876.02,70.63L879.44,68.36L879.62,65.33L877.13,61.83L879.72,58.4L884.2,60.92L885.51,67.73L887.6,69.92L887.95,74.98L891.43,77.92L891.53,80.67L897.05,79.16L897.09,76.71L903.39,79.98L905.04,82.31L903.6,84.74L900.52,83.25L898.24,84.52L897.63,87.83L901.59,86.88L901.38,91.64L905.92,98.78L905.67,105.71L907.62,107.76L907.73,109.35L907.54,112.66L905.18,119.56L905.56,122.74L908.96,120.77L913.33,120.98L918.71,127.99L919.61,133.2L922.21,137.86L924.6,137.75L926.64,133.46L930.7,134.82L929.54,136.82L934.24,141.95L939.01,142.75L937.85,145.33L938.47,150.1L941.06,155.33L942.73,156.37L946.84,154.42L948.89,157.92L945.9,159.6L947.51,164.53L951.99,165.76L952.88,170.97L958.81,177.27L958.86,182.75L956.62,198.14L959.89,204.25L961.31,210.91L962.81,213.53L962.72,218.43L964.46,223.22L967.25,224.13L970.09,222.31L970.85,226.94L968.64,232.81L970.64,238.32L970.78,246.1L974.89,251.36L975.6,258.73L978.1,259.78L978.89,270.02L981.74,274.83L982.51,278.73L984.45,280.07L986.14,286.72L985.31,316.38L986.4,317.84L987.43,322.46L988.68,322.77L989.08,323.93L985.65,343.02L985.54,348.92L986.61,351.82L991.44,354.64L993.3,359.14L991.85,369.62L990.09,374.48L989.37,382.81L990.9,390.33L990.03,399.66L991.46,405.3L993.23,407.06L995.53,417.9L995.26,425.08L999.03,431.34L1000.65,441.15L1003.74,446.68L1004.5,450.43L1007.37,452.65L1009.2,458.58L1009.78,464.34L1013.96,470.9L1016.29,472.53L1019.24,477.62L1023.05,481.58L1023.62,487.48L1028.28,490.45L1026.95,494.17L1030.2,498.26L1028.07,500.8L1028.52,505.99L1029.44,508.02L1028.31,509.29L1028.26,511.88L1026.55,514.14L1027.02,517.89L1025.15,521.59L1026.02,526.21L1022.51,528.44L1021.34,538.76L1012.38,557.41L1011.33,561.56L1007.28,570.39L1005.59,572.08L1005.18,578.97L1004.07,578.95L1001.95,581.35L1002.15,585.23L996.98,588.15L991.48,601.4L983.6,601.83L981.05,597.62L980.97,594.88L972.32,592L964.14,585.38L964.36,581.22L963.02,578.61L963.66,574.02L967.28,572.51L967.81,566.05L963.67,557.93L960.81,555.29L960.03,552.69L962.43,542.24L963.71,532.2L963.29,525.01L964.44,522.73L965.67,515.56L964.63,511.66L962.07,507.59L964.48,496.71L959.17,491.3L956.82,490.82L952.19,493.76L943.66,489.73L936.51,477.68L936.89,471.64L932.38,466.97L930.5,463.34L922.65,467.82L918.8,465.45L912.07,451.83L904.77,447.83L900.98,440.87L897.23,441.1L897.82,447.87L893.88,451.41L891.24,450.93L883.5,438.45L887.18,434.05L886.78,423.97L884.46,420.34L882.97,407.95L875.07,396.33L875.31,388.99L878.97,386.6L871.29,377.57L861.6,373.12L858.88,367.61L855.43,364.97L850.42,364.48L847.93,362.86L837.07,350.77L835.9,343.71L834.55,340.52L831.62,340.2L826.36,336.68L822.88,335.63L816.59,336.42L813.75,340.56L809.81,343.82L803.36,346.77L799.83,350.76L795.66,348.85L794.59,344.66L789.18,341.87L782.15,346.98L775.89,345.47L763.75,345.06L758.47,343.29L756.54,340.25L751,336.31L739.41,336.06L738.48,331.3L736.26,328.98L733.47,329.24L730.16,324.18L729.79,317.98L730.56,310.36L732.11,307.78L730.64,300.28L724.12,294.61L719.37,294L709.54,298.96L705.04,303.54L699.85,306.38L696.91,306.79L696.86,313.99L690.84,315.53L690.11,320.71L686.76,320.98L683.69,319.37L677.58,314.15L678.43,311.85L681.92,312.88L685,312.47L685.29,310.02L684.46,309.3L685.58,308.73L686.69,310.32L690.88,309.48L692.73,304.75L689.95,302.28L686.6,302.83L684.09,300.8L675.3,299.59L672.09,297.41L667.18,277.8Z" fill-rule="evenodd" fill="#4682b4" fill-opacity="0.471"/>
<polyline points="667.18,277.8 670.44,270.47 669.89,268.6 672.22,252.77 680.2,252.81 680.64,250.66 678.26,250.35 679.66,249.64 680.94,247.34 680.11,245.9 681.8,243.89 682.94,240.58 687.54,244.36 684.17,245.35 683.04,247.5 687.49,251.85 694.38,248.3 689.93,243.37 695.95,243.99 697.18,248.6 700.09,252.08 702.47,252.39 703.15,254.99 707.07,255.59 706.76,258.9 708.3,258.77 707.01,263.37 709.79,265.55 710.04,270.02 709.47,271.17 710.87,272.04 709.86,275.49 713.61,278.54 718.32,284.63 724.34,284.82 727.42,284.27 731.35,282.28 730.67,279.69 732.5,278.69 730.7,276.66 730.92,267.01 731.91,265.58 732.22,261.98 736.43,260.72 739.56,255.13 742.36,254.58 743.92,252.14 743.23,251.99 752.2,250.49 753.36,246.18 756.7,248.51 757.68,248.23 756.72,246.5 757.71,245.35 758.69,245.65 759.7,242.49 757.94,235.56 754.34,230.91 752.86,224.99 756.39,222 757.33,226.18 759.84,227.22 761.5,230.26 768.34,233.35 769.41,237.97 774.2,236 770.57,233.81 772.4,232.96 778.42,233.74 778.7,234.32 782.76,234.22 786.52,236.42 791.73,234.46 803.47,224.79 800.89,216.83 801.66,211.22 814.19,207.47 812.94,205.72 809.15,206.11 806.51,203.78 806.14,199.01 802.93,197.39 805.37,193.38 805.01,187.47 806.78,179.85 809.2,176.99 811.74,176.15 809.98,170.08 814.83,163.93 818.89,154.03 820.51,147.84 820.7,143.52 817.82,137.28 814.46,135.22 814.27,127.57 812.75,125.39 813.74,124.68 813.64,121.5 811.26,120.18 808.3,120.58 807.92,116.96 808.62,116.83 810.21,113.67 809.51,112.94 808.51,113.94 808.54,111.49 809.57,108.18 812.41,106.05 810.61,103.57 803.68,105.95 803.87,100.9 801.24,96.68 798.29,95.93 798.59,94.2 797.11,87.69 795.39,90.12 790.21,87.61 792.9,86.06 792.94,82.59 795.21,81.46 798.57,83.66 801.81,83.27 808.14,84.49 809.92,89.42 812.29,91.76 813.39,94.22 811.79,98.68 813.04,100.14 820.71,95.03 822.83,82.79 825.51,82.38 826.54,79.08 823.88,77.02 826.75,73.16 830.69,73.93 832.16,69.33 834.68,70.95 836.98,67.65 838.48,71.14 842.31,70.17 842.78,66.43 845.79,62.85 848.56,66.21 851.61,59.9 849.83,55.97 852.55,52.54 854.02,48.52 855.13,49.98 856.46,45.52 854.09,42.74 850.81,45.15 850.73,40.53 848.76,39.93 847.06,40.63 842.56,38.98 847.24,37.31 850.55,33.16 850.8,35.04 853.62,35.8 854.85,38.85 857.95,39.18 859.54,36.75 857.17,34.55 857.2,31.95 858.05,31.81 857.92,31.23 853.39,31.75 852.98,30.59 854.67,31.05 856.54,28.62 857.51,29.78 858.94,28.65 859.36,29.23 859.11,26.92 857.97,27.48 856.71,26.45 864.17,18.46 868.41,18.37 869.23,20.12 871.49,20.73 873.95,26.4 875.13,33.49 877.8,34.54 879.29,39.04 879.25,41.35 878.69,41.2 878.11,42.49 879.17,47.56 876.17,49.69 873.22,48.78 867.68,51.16 864.21,46.63 861.19,50.35 863.25,54.85 860.11,57.27 865.58,59.94 869.39,59.99 867.5,64.15 862.96,65.82 860.06,61.02 857.36,63.01 856.31,67.61 859.1,69.96 862.36,68.56 867.02,68.48 868.33,65.61 871.6,63.92 873.67,66.69 872.08,69.85 876.02,70.63 879.44,68.36 879.62,65.33 877.13,61.83 879.72,58.4 884.2,60.92 885.51,67.73 887.6,69.92 887.95,74.98 891.43,77.92 891.53,80.67 897.05,79.16 897.09,76.71 903.39,79.98 905.04,82.31 903.6,84.74 900.52,83.25 898.24,84.52 897.63,87.83 901.59,86.88 901.38,91.64 905.92,98.78 905.67,105.71 907.62,107.76 907.73,109.35 907.54,112.66 905.18,119.56 905.56,122.74 908.96,120.77 913.33,120.98 918.71,127.99 919.61,133.2 922.21,137.86 924.6,137.75 926.64,133.46 930.7,134.82 929.54,136.82 934.24,141.95 939.01,142.75 937.85,145.33 938.47,150.1 941.06,155.33 942.73,156.37 946.84,154.42 948.89,157.92 945.9,159.6 947.51,164.53 951.99,165.76 952.88,170.97 958.81,177.27 958.86,182.75 956.62,198.14 959.89,204.25 961.31,210.91 962.81,213.53 962.72,218.43 964.46,223.22 967.25,224.13 970.09,222.31 970.85,226.94 968.64,232.81 970.64,238.32 970.78,246.1 974.89,251.36 975.6,258.73 978.1,259.78 978.89,270.02 981.74,274.83 982.51,278.73 984.45,280.07 986.14,286.72 985.31,316.38 986.4,317.84 987.43,322.46 988.68,322.77 989.08,323.93 985.65,343.02 985.54,348.92 986.61,351.82 991.44,354.64 993.3,359.14 991.85,369.62 990.09,374.48 989.37,382.81 990.9,390.33 990.03,399.66 991.46,405.3 993.23,407.06 995.53,417.9 995.26,425.08 999.03,431.34 1000.65,441.15 1003.74,446.68 1004.5,450.43 1007.37,452.65 1009.2,458.58 1009.78,464.34 1013.96,470.9 1016.29,472.53 1019.24,477.62 1023.05,481.58 1023.62,487.48 1028.28,490.45 1026.95,494.17 1030.2,498.26 1028.07,500.8 1028.52,505.99 1029.44,508.02 1028.31,509.29 1028.26,511.88 1026.55,514.14 1027.02,517.89 1025.15,521.59 1026.02,526.21 1022.51,528.44 1021.34,538.76 1012.38,557.41 1011.33,561.56 1007.28,570.39 1005.59,572.08 1005.18,578.97 1004.07,578.95 1001.95,581.35 1002.15,585.23 996.98,588.15 991.48,601.4 983.6,601.83 981.05,597.62 980.97,594.88 972.32,592 964.14,585.38 964.36,581.22 963.02,578.61 963.66,574.02 967.28,572.51 967.81,566.05 963.67,557.93 960.81,555.29 960.03,552.69 962.43,542.24 963.71,532.2 963.29,525.01 964.44,522.73 965.67,515.56 964.63,511.66 962.07,507.59 964.48,496.71 959.17,491.3 956.82,490.82 952.19,493.76 943.66,489.73 936.51,477.68 936.89,471.64 932.38,466.97 930.5,463.34 922.65,467.82 918.8,465.45 912.07,451.83 904.77,447.83 900.98,440.87 897.23,441.1 897.82,447.87 893.88,451.41 891.24,450.93 883.5,438.45 887.18,434.05 886.78,423.97 884.46,420.34 882.97,407.95 875.07,396.33 875.31,388.99 878.97,386.6 871.29,377.57 861.6,373.12 858.88,367.61 855.43,364.97 850.42,364.48 847.93,362.86 837.07,350.77 835.9,343.71 834.55,340.52 831.62,340.2 826.36,336.68 822.88,335.63 816.59,336.42 813.75,340.56 809.81,343.82 803.36,346.77 799.83,350.76 795.66,348.85 794.59,344.66 789.18,341.87 782.15,346.98 775.89,345.47 763.75,345.06 758.47,343.29 756.54,340.25 751,336.31 739.41,336.06 738.48,331.3 736.26,328.98 733.47,329.24 730.16,324.18 729.79,317.98 730.56,310.36 732.11,307.78 730.64,300.28 724.12,294.61 719.37,294 709.54,298.96 705.04,303.54 699.85,306.38 696.91,306.79 696.86,313.99 690.84,315.53 690.11,320.71 686.76,320.98 683.69,319.37 677.58,314.15 678.43,311.85 681.92,312.88 685,312.47 685.29,310.02 684.46,309.3 685.58,308.73 686.69,310.32 690.88,309.48 692.73,304.75 689.95,302.28 686.6,302.83 684.09,300.8 675.3,299.59 672.09,297.41 667.18,277.8" fill="none" stroke="#1e1e1e" stroke-width="1.16" stroke-linecap="round" stroke-linejoin="round"/>
<path d="M855.26,29.18L855.26,29.18Z" fill-rule="evenodd" fill="#4682b4" fill-opacity="0.471"/>
<polyline points="855.26,29.18 855.26,29.18" fill="none" stroke="#1e1e1e" stroke-width="1.16" stroke-linecap="round" stroke-linejoin="round"/>
<path d="M755.99,219.69L753.76,218.37L751.15,212.58L754.52,211.89L756.6,214.21L754.89,216.79L755.99,219.69Z" fill-rule="evenodd" fill="#4682b4" fill-opacity="0.471"/>
<polyline points="755.99,219.69 753.76,218.37 751.15,212.58 754.52,211.89 756.6,214.21 754.89,216.79 755.99,219.69" fill="none" stroke="#1e1e1e" stroke-width="1.16" stroke-linecap="round" stroke-linejoin="round"/>
<path d="M735.29,246.45L736.7,244.88L738.5,247.2L739.31,251.24L738.74,252.67L735.51,253.51L733.15,251.33L732.9,247.29L735.29,246.45Z" fill-rule="evenodd" fill="#4682b4" fill-opacity="0.471"/>
<polyline points="735.29,246.45 736.7,244.88 738.5,247.2 739.31,251.24 738.74,252.67 735.51,253.51 733.15,251.33 732.9,247.29 735.29,246.45" fill="none" stroke="#1e1e1e" stroke-width="1.16" stroke-linecap="round" stroke-linejoin="round"/>
<path d="M733.95,239.09L732.73,233.75L735.7,231.32L739.31,235.39L738.58,238.7L733.95,239.09Z" fill-rule="evenodd" fill="#4682b4" fill-opacity="0.471"/>
<polyline points="733.95,239.09 732.73,233.75 735.7,231.32 739.31,235.39 738.58,238.7 733.95,239.09" fill="none" stroke="#1e1e1e" stroke-width="1.16" stroke-linecap="round" stroke-linejoin="round"/>
<path d="M732.63,212.85L735.71,213.88L735.67,218.21L731.61,217.74L733.12,221.65L736.59,225.42L733.9,228.28L730.67,228.83L726.36,225.48L726.63,226.64L722.69,227.47L721.31,225.58L715.99,224.53L713.77,221.2L712.84,215L713.15,211.11L715.12,209.97L711.8,204.18L720.33,207.85L724.27,205.86L721.94,199.36L725.19,196.5L729.11,197.25L730.92,199.43L728.18,207.62L733.5,209.83L732.63,212.85Z" fill-rule="evenodd" fill="#4682b4" fill-opacity="0.471"/>
<polyline points="732.63,212.85 735.71,213.88 735.67,218.21 731.61,217.74 733.12,221.65 736.59,225.42 733.9,228.28 730.67,228.83 726.36,225.48 726.63,226.64 722.69,227.47 721.31,225.58 715.99,224.53 713.77,221.2 712.84,215 713.15,211.11 715.12,209.97 711.8,204.18 720.33,207.85 724.27,205.86 721.94,199.36 725.19,196.5 729.11,197.25 730.92,199.43 728.18,207.62 733.5,209.83 732.63,212.85" fill="none" stroke="#1e1e1e" stroke-width="1.16" stroke-linecap="round" stroke-linejoin="round"/>
<path d="M600.47,1767.11L595.89,1761.04L590.24,1760.16L589.46,1756.85L583.67,1756.11L581.84,1751.06L577.76,1751.34L574.61,1746.44L566.32,1745.55L562.37,1743.1L561.58,1748.43L563.41,1752.9L561.43,1754.48L560.38,1757.94L549.85,1761.38L547.61,1765.99L548.13,1768.01L551.55,1770.75L551.54,1777.95L546.41,1782.27L546.67,1783.86L543.38,1786.88L539.83,1787.02L537.99,1788.61L528.66,1789.61L527.75,1782.69L528.67,1776.64L527.62,1769.72L525.78,1766.7L519.2,1763.53L511.44,1762.52L508.02,1759.5L501.42,1742.36L498.79,1740.05L484.82,1735.9L479.41,1730.29L467.42,1725.27L465.7,1723.4L464.63,1717.65L466.2,1713.46L470.93,1708.41L473.69,1703.22L477.89,1690.97L473.39,1685.08L472.98,1680.91L469.81,1677.6L469.41,1674.58L465.17,1670.7L468.86,1667.24L472.41,1659.75L472.66,1652.4L471.19,1647.08L471.18,1643.2L472.89,1636.57L472.35,1633.7L468.9,1628.38L459.49,1622.65L453.91,1614.89L433.37,1574.54L425.52,1568.1L414.62,1562.54L409.69,1557.38L402.12,1556.13L396.41,1556.3L381.58,1561.13L378.41,1564.32L374.44,1564.63L357.9,1570.49L332.16,1585.36L330.19,1588.11L330.35,1591.42L328.38,1594.02L325.7,1606.27L326.94,1611.59L329.34,1614.01L329.14,1621.49L326.22,1620.37L319.1,1623.59L314.61,1624.07L309.7,1623.1L305.12,1613.79L293.86,1613.18L289.49,1613.66L285.09,1610.1L280.52,1604.11L279.92,1596.78L277.73,1589.89L277.82,1586.3L279.64,1582.39L282.55,1568.84L283.12,1560.21L284.54,1556.31L288.34,1551.53L294.44,1536.65L299.39,1526.83L302.15,1523.93L304.81,1523.47L307.56,1518.85L306.87,1516.7L311.61,1511.33L312.11,1508.17L311.13,1502.71L312.68,1497.24L318.75,1491.58L317.64,1486.84L318.53,1481.95L316.38,1478.66L315.28,1474.79L316.15,1468.75L315.45,1464.59L308.32,1456.6L306.41,1452.31L307.45,1449.42L319.56,1446.16L323.92,1441.95L328.45,1441.34L333.67,1427.36L334.95,1420.02L338.01,1419.14L339.59,1415.82L343.18,1414.36L341.96,1412.35L343.67,1408.32L348.07,1407.57L349.52,1404.68L349.62,1400.08L347.58,1396.37L345.93,1389.91L352.95,1381.24L355.84,1373.61L356.21,1368.72L357.52,1364.84L366.3,1357.45L376.04,1353.8L379.11,1351.2L380.68,1346.02L377.64,1329.95L382.14,1321.45L379.92,1307.97L380.55,1302.65L378.38,1298.22L382.18,1281.97L384.98,1279.51L387.37,1275.34L388.64,1261.83L383.45,1247.8L385.43,1241.61L386.19,1233.71L388.3,1225.23L387.59,1218.49L384.59,1212.48L384.29,1207.75L381.43,1201.88L379.37,1194.72L380.11,1184.66L379.41,1180.36L381.26,1173.03L378.68,1170.18L378.11,1165.73L378.34,1159.27L380.48,1155.82L385.63,1159.37L392.5,1158.19L395.47,1158.46L400.89,1161.3L404.39,1161.14L411.01,1162.69L414.4,1166.4L418.72,1165.81L420.62,1168.81L420.77,1172.4L422.67,1176.12L427.8,1177.39L433.21,1181.82L440.07,1176.92L443.17,1176.05L446.14,1176.9L450.06,1182.91L448.33,1190.09L450.77,1191.81L450.5,1194.1L445.38,1194.55L445.4,1198.86L447.7,1201.86L452.02,1205.44L456.06,1205.43L461.32,1208.57L471.81,1204.09L472.76,1207.25L477.21,1208.1L481.12,1210.97L487.85,1211.1L491.07,1206.5L495.92,1206.35L496.73,1208.65L500.5,1208.64L504.28,1212.66L508.58,1212.08L511.81,1210.07L516.53,1211.36L518.28,1213.37L520.7,1212.36L523.26,1209.2L527.97,1209.64L528.24,1206.33L531.74,1205.9L536.73,1198.01L540.1,1196.87L544.54,1200.32L550.33,1200.75L553.03,1197.74L556.81,1195.59L560.71,1195.6L564.49,1192.73L568.25,1197.33L570.68,1196.05L570.96,1190.59L573.53,1187.01L576.63,1184.72L580.13,1188.46L581.61,1188.61L586.21,1183.74L592,1182.89L598.61,1182.63L602.38,1184.5L606.29,1185.24L609.66,1182.81L613.29,1184.97L625.96,1185.17L636.49,1183.06L640.66,1185.23L641.97,1192.13L634.88,1209.17L633.35,1221.08L638.15,1229.28L638.68,1231.87L641.76,1233.89L646.06,1235.06L648.46,1238.95L650.74,1240.54L658.97,1236.57L661.93,1235.87L669.45,1237.2L672.7,1234.93L677.27,1233.95L681.71,1234.56L685.06,1236.87L690.44,1237.05L691.58,1227.45L693.9,1222.15L694.49,1215.27L699.24,1210.42L701.71,1204.55L707.37,1203.88L709.05,1212.65L714.28,1215.56L714.4,1217.28L719.92,1217.61L720.98,1218.91L727.08,1214.37L729.2,1218.27L733.24,1217.3L731.82,1225.9L737.48,1225.23L737.32,1228.38L740.67,1229.42L740.52,1232L745.9,1231.91L749.12,1232.94L751.43,1230.09L753.84,1231.84L756.09,1235.59L761.08,1233.63L747.49,1277.28L740.36,1308.8L739.21,1316.98L726.59,1351.19L719.1,1382.43L696.71,1446.05L682.22,1479.72L682.48,1481.01L672.61,1504.95L664.48,1529.77L660.36,1553.19L659.21,1568.71L657.33,1573.88L657.17,1578.77L655.12,1589.69L651.59,1604.2L647.56,1614.97L645.66,1624.17L645.37,1629.92L639.98,1650.76L631.15,1673.03L624.8,1705.55L623.7,1716.77L621.3,1724.11L608.54,1754.03L605.77,1757.04L600.47,1767.11Z" fill-rule="evenodd" fill="#4682b4" fill-opacity="0.471"/>
<polyline points="600.47,1767.11 595.89,1761.04 590.24,1760.16 589.46,1756.85 583.67,1756.11 581.84,1751.06 577.76,1751.34 574.61,1746.44 566.32,1745.55 562.37,1743.1 561.58,1748.43 563.41,1752.9 561.43,1754.48 560.38,1757.94 549.85,1761.38 547.61,1765.99 548.13,1768.01 551.55,1770.75 551.54,1777.95 546.41,1782.27 546.67,1783.86 543.38,1786.88 539.83,1787.02 537.99,1788.61 528.66,1789.61 527.75,1782.69 528.67,1776.64 527.62,1769.72 525.78,1766.7 519.2,1763.53 511.44,1762.52 508.02,1759.5 501.42,1742.36 498.79,1740.05 484.82,1735.9 479.41,1730.29 467.42,1725.27 465.7,1723.4 464.63,1717.65 466.2,1713.46 470.93,1708.41 473.69,1703.22 477.89,1690.97 473.39,1685.08 472.98,1680.91 469.81,1677.6 469.41,1674.58 465.17,1670.7 468.86,1667.24 472.41,1659.75 472.66,1652.4 471.19,1647.08 471.18,1643.2 472.89,1636.57 472.35,1633.7 468.9,1628.38 459.49,1622.65 453.91,1614.89 433.37,1574.54 425.52,1568.1 414.62,1562.54 409.69,1557.38 402.12,1556.13 396.41,1556.3 381.58,1561.13 378.41,1564.32 374.44,1564.63 357.9,1570.49 332.16,1585.36 330.19,1588.11 330.35,1591.42 328.38,1594.02 325.7,1606.27 326.94,1611.59 329.34,1614.01 329.14,1621.49 326.22,1620.37 319.1,1623.59 314.61,1624.07 309.7,1623.1 305.12,1613.79 293.86,1613.18 289.49,1613.66 285.09,1610.1 280.52,1604.11 279.92,1596.78 277.73,1589.89 277.82,1586.3 279.64,1582.39 282.55,1568.84 283.12,1560.21 284.54,1556.31 288.34,1551.53 294.44,1536.65 299.39,1526.83 302.15,1523.93 304.81,1523.47 307.56,1518.85 306.87,1516.7 311.61,1511.33 312.11,1508.17 311.13,1502.71 312.68,1497.24 318.75,1491.58 317.64,1486.84 318.53,1481.95 316.38,1478.66 315.28,1474.79 316.15,1468.75 315.45,1464.59 308.32,1456.6 306.41,1452.31 307.45,1449.42 319.56,1446.16 323.92,1441.95 328.45,1441.34 333.67,1427.36 334.95,1420.02 338.01,1419.14 339.59,1415.82 343.18,1414.36 341.96,1412.35 343.67,1408.32 348.07,1407.57 349.52,1404.68 349.62,1400.08 347.58,1396.37 345.93,1389.91 352.95,1381.24 355.84,1373.61 356.21,1368.72 357.52,1364.84 366.3,1357.45 376.04,1353.8 379.11,1351.2 380.68,1346.02 377.64,1329.95 382.14,1321.45 379.92,1307.97 380.55,1302.65 378.38,1298.22 382.18,1281.97 384.98,1279.51 387.37,1275.34 388.64,1261.83 383.45,1247.8 385.43,1241.61 386.19,1233.71 388.3,1225.23 387.59,1218.49 384.59,1212.48 384.29,1207.75 381.43,1201.88 379.37,1194.72 380.11,1184.66 379.41,1180.36 381.26,1173.03 378.68,1170.18 378.11,1165.73 378.34,1159.27 380.48,1155.82 385.63,1159.37 392.5,1158.19 395.47,1158.46 400.89,1161.3 404.39,1161.14 411.01,1162.69 414.4,1166.4 418.72,1165.81 420.62,1168.81 420.77,1172.4 422.67,1176.12 427.8,1177.39 433.21,1181.82 440.07,1176.92 443.17,1176.05 446.14,1176.9 450.06,1182.91 448.33,1190.09 450.77,1191.81 450.5,1194.1 445.38,1194.55 445.4,1198.86 447.7,1201.86 452.02,1205.44 456.06,1205.43 461.32,1208.57 471.81,1204.09 472.76,1207.25 477.21,1208.1 481.12,1210.97 487.85,1211.1 491.07,1206.5 495.92,1206.35 496.73,1208.65 500.5,1208.64 504.28,1212.66 508.58,1212.08 511.81,1210.07 516.53,1211.36 518.28,1213.37 520.7,1212.36 523.26,1209.2 527.97,1209.64 528.24,1206.33 531.74,1205.9 536.73,1198.01 540.1,1196.87 544.54,1200.32 550.33,1200.75 553.03,1197.74 556.81,1195.59 560.71,1195.6 564.49,1192.73 568.25,1197.33 570.68,1196.05 570.96,1190.59 573.53,1187.01 576.63,1184.72 580.13,1188.46 581.61,1188.61 586.21,1183.74 592,1182.89 598.61,1182.63 602.38,1184.5 606.29,1185.24 609.66,1182.81 613.29,1184.97 625.96,1185.17 636.49,1183.06 640.66,1185.23 641.97,1192.13 634.88,1209.17 633.35,1221.08 638.15,1229.28 638.68,1231.87 641.76,1233.89 646.06,1235.06 648.46,1238.95 650.74,1240.54 658.97,1236.57 661.93,1235.87 669.45,1237.2 672.7,1234.93 677.27,1233.95 681.71,1234.56 685.06,1236.87 690.44,1237.05 691.58,1227.45 693.9,1222.15 694.49,1215.27 699.24,1210.42 701.71,1204.55 707.37,1203.88 709.05,1212.65 714.28,1215.56 714.4,1217.28 719.92,1217.61 720.98,1218.91 727.08,1214.37 729.2,1218.27 733.24,1217.3 731.82,1225.9 737.48,1225.23 737.32,1228.38 740.67,1229.42 740.52,1232 745.9,1231.91 749.12,1232.94 751.43,1230.09 753.84,1231.84 756.09,1235.59 761.08,1233.63 747.49,1277.28 740.36,1308.8 739.21,1316.98 726.59,1351.19 719.1,1382.43 696.71,1446.05 682.22,1479.72 682.48,1481.01 672.61,1504.95 664.48,1529.77 660.36,1553.19 659.21,1568.71 657.33,1573.88 657.17,1578.77 655.12,1589.69 651.59,1604.2 647.56,1614.97 645.66,1624.17 645.37,1629.92 639.98,1650.76 631.15,1673.03 624.8,1705.55 623.7,1716.77 621.3,1724.11 608.54,1754.03 605.77,1757.04 600.47,1767.11" fill="none" stroke="#1e1e1e" stroke-width="1.16" stroke-linecap="round" stroke-linejoin="round"/>
<path d="M126.12,820.59L126.22,818.43L127.74,818.84L127.38,813.97L128.14,810.36L130.3,808.46L135.83,794.16L137.59,793.13L137.44,792.27L144.67,781.54L147.12,780.35L146.7,779.35L149.33,771.99L148.84,767.26L149.67,767.54L151.16,766.51L151.27,764.78L154.21,759.71L156.66,758.39L159.63,755.18L162.44,750.12L164.49,749.08L170.47,735.64L178.38,722.18L178.94,722.74L180.41,720.28L180.93,717.69L182.69,716.09L183.75,713.34L186.2,711.44L187.12,708.56L189.15,705.8L190.78,704.34L192.02,704.62L193.71,697.7L194.54,697.4L192.91,688.95L193.31,687.8L191.89,685.23L195.82,680.3L197.74,680.13L198.51,675.38L197.6,669.5L195.91,666.22L195.08,666.23L194.62,663.08L190.09,653.66L188.91,647.79L191.62,644.45L193.2,639.55L193.52,632.07L194.98,627.89L196.76,627L200.08,627.96L202.97,627.06L217.05,628.18L221.2,629.27L226.31,629.21L228.8,630.04L240.79,629.61L243.15,631.02L238.18,630.51L236.96,631.81L237.39,633.68L239.04,633.23L246.38,636.01L248.59,636.13L251.58,631.79L254.32,630.47L255.81,627.58L260.62,625.95L262.14,626.79L263.24,626.35L263.62,623.33L273.9,616.47L290.02,599.79L292.5,598.91L300.45,592.37L306.93,590.44L307.73,603.65L308.59,606.8L304.94,615.17L306.5,620.47L312.58,621.71L316.3,620.24L313.93,617.68L317.05,611.33L321.6,610.86L323.52,609.41L325.15,605.66L329.68,603.32L329.39,600.6L322.19,599.36L318.59,597.53L324.8,596.9L327.84,597.59L331.97,596.12L340.39,594.91L338.35,598.66L341.77,594.33L347.44,596.58L345.43,604.79L344.07,607.24L339.38,607.13L338.44,610.87L345.2,610.25L354.46,612.48L360.24,610.28L357.32,606.86L356.75,603.7L353.42,601.71L355.05,597.68L358.06,593.78L357.34,589.62L362.02,586.71L360.21,584.43L359.52,585.58L358.97,584.87L358.71,587.17L358.81,582.71L358.11,580.99L359.09,582.28L358.94,581.56L359.77,581.56L358.1,578.98L358.51,578.26L359.34,579.12L361.12,576.95L362.61,571.19L360.27,572.5L360.8,570.34L363.15,569.47L363.27,566.88L368.13,569.72L375.87,569.96L376.29,570.96L380.98,568.92L389.26,567.01L392.85,565.12L401.02,568.24L401.18,572.84L404.81,578.57L412.54,577.38L416.72,585.12L421.67,580.5L421.66,576.62L417.93,576.64L417.63,573.05L421.64,572.89L423.73,576.9L426.91,575.6L423.16,571.59L413.62,572.35L410.03,573.51L409.61,570.93L421.45,558.67L434.16,556.46L440.39,558.16L442.62,563.18L440.97,566.35L441.26,569.94L440.3,570.66L440.3,573.11L439.47,571.1L438.37,572.25L438.78,571.39L437.95,571.1L437.83,576.99L438.8,577.28L453.01,570.62L455.08,568.89L457.7,564.86L453.54,559.56L450.49,559.57L450.07,557.13L451.59,555.68L453.1,551.23L457.23,544.89L461.51,540.28L468.69,534.8L473.25,528.61L475.74,528.03L476.85,529.33L477.54,529.04L486.39,521.26L489.16,520.4L493.87,516.22L495.53,515.79L495.39,514.21L496.22,513.49L508.68,504.57L521.16,493.78L533.09,485.88L538.91,483.58L540.86,484.01L542.1,487.61L541.27,492.21L542.79,496.52L548.61,499.4L552.91,500.41L554.01,505.59L551.23,510.47L547.76,512.91L540.83,515.49L538.75,517.93L538.2,522.82L545.4,525.55L547.89,525.41L551.49,522.97L554.68,523.12L558.84,519.53L562.86,519.54L567.84,521.42L571.44,520.13L568.42,509.2L566.48,507.04L569.13,495.83L567.47,495.54L562.33,499.85L559.01,494.09L555.96,493.23L556.11,490.21L552.78,488.48L553.21,481.29L561.27,470.52L565.43,469.95L573.91,463.21L576.98,458.61L576.43,454.59L580.32,453.59L581.99,452.01L582.97,448.85L585.76,446.27L590.91,443.26L593.55,443.99L599.53,439.55L598.71,436.09L596.21,434.07L594.12,436.51L592.04,436.22L589.67,438.8L587.31,438.22L586.07,434.48L597.37,420.13L603.93,413.39L611.46,407.95L611.73,411.25L614.78,414.29L616.58,414.58L613.65,418.89L614.34,419.61L613.64,420.61L613.91,423.92L618.48,428.83L613.44,438.3L602.27,452.64L603.92,457.68L603.77,461.42L601.66,469.75L604.84,475.08L608.31,474.37L609.29,472.51L609.42,473.8L611.92,473.09L611.79,470.79L616.11,466.35L617.52,461.18L619.19,460.47L620.3,461.33L621,460.04L624.2,458.04L623.51,456.75L626.3,453.88L625.75,452.58L626.72,451.58L627.01,449.57L626.17,450.72L624.93,448.55L627.71,447.13L628.56,443.82L628.15,442.24L627.73,443.1L629,438.79L632.22,434.64L632.5,432.34L633.9,431.77L635.71,429.33L636.14,428.04L634.62,425.87L642.03,416.27L641.62,414.54L642.61,412.53L643.59,411.53L645.67,411.69L646.51,410.83L647.91,408.68L648.21,405.94L651.57,400.93L648.25,397.75L647.31,390.98L649.97,387.25L646.23,382.49L646.65,382.2L644.85,381.04L645.97,379.32L643.2,375.42L644.05,373.27L643.79,369.81L645.63,363.49L646.9,361.19L654.88,354.18L653.24,347.7L658.43,342.69L660.24,343.56L664.54,348.48L669.41,349.51L670.26,347.93L672.5,346.8L673.74,348.67L676.96,347.26L677.95,345.68L677.39,344.96L678.82,339.35L678.57,334.74L677.04,333.87L675.94,330.84L672.61,328.23L674.02,326.37L673.75,324.92L672.34,326.07L670.95,325.48L673.89,324.21L681.26,329L685.44,330.18L686.94,335.37L685.54,336.37L683.27,342.4L680.95,355.92L683.3,359.24L686.23,358.4L684.44,355.36L685.3,351.91L688.65,351.07L685.63,343.86L687.05,340.7L691.97,334.83L691.43,332.09L693.13,328.22L690.92,324.75L690.11,320.71L690.84,315.53L696.86,313.99L696.91,306.79L699.85,306.38L705.04,303.54L709.54,298.96L719.37,294L724.12,294.61L730.64,300.28L732.11,307.78L730.56,310.36L729.79,317.98L730.16,324.18L733.47,329.24L736.26,328.98L738.48,331.3L739.41,336.06L751,336.31L756.54,340.25L758.47,343.29L763.75,345.06L775.89,345.47L782.15,346.98L789.18,341.87L794.59,344.66L795.66,348.85L799.83,350.76L803.36,346.77L809.81,343.82L813.75,340.56L816.59,336.42L822.88,335.63L826.36,336.68L831.62,340.2L834.55,340.52L835.9,343.71L837.07,350.77L847.93,362.86L850.42,364.48L855.43,364.97L858.88,367.61L861.6,373.12L871.29,377.57L878.97,386.6L875.31,388.99L875.07,396.33L882.97,407.95L884.46,420.34L886.78,423.97L887.18,434.05L883.5,438.45L886.77,442.96L885.64,444.81L884.42,451.84L885.88,456.32L884.32,468.38L876.44,465.96L872.94,467.78L872.8,477.84L874.12,482.75L873.31,490.65L870.52,491.9L865.53,491.4L863.25,496.26L856.3,497.31L854.34,498.44L850.2,496.8L847.81,499.93L843.76,502.04L835.82,504.81L826.8,505.27L823.6,506.38L821.88,511.39L823.23,514.43L823.14,521.18L825.62,522.79L828.81,521.97L833.78,523.61L835.97,525.37L833.67,532.38L834.57,537.71L834.04,546.61L830.34,554.76L830.43,559.35L834.86,580.96L838.93,586.76L847.82,593.49L851.76,598.28L849.44,607.01L848.37,614.75L849.58,617.07L853.68,619.85L852.63,626.3L854.06,632.79L851.81,636.2L847.49,639.45L841.95,652.01L845.18,658.09L841.93,663.93L839.44,664.62L837.34,667.61L830.45,668.1L825.33,669.61L814.23,677.23L813.06,682.53L815.61,688.16L813.51,691.01L812.06,697.88L790.18,698.93L788.68,697.05L781.95,696.83L778.64,697.8L775.35,696.62L771.77,697.01L771.38,694.42L773.94,685.83L773.7,682.96L770.7,679.48L772.7,672.75L769.27,671.43L765.76,664.36L758.26,656.24L754.15,654.77L748.15,647.1L744.86,645.78L738.52,645.72L736.62,641.97L727.96,638.88L722.49,633.23L716.98,633.05L712.83,635.03L708.28,634.42L705.51,636.12L700.27,635.79L696.27,637.06L679.33,633.93L675.35,630.89L671.03,637.9L670.86,643.35L675.08,652.43L673.1,659.74L669.76,666.47L669.96,679.11L672.96,683.72L676.89,692.36L675.5,695.94L676.85,699.82L674.62,704.26L678.03,709.16L680.36,710.04L683.62,716.09L685.12,717.11L685.37,721.84L688.1,723.44L689.73,726.75L693.28,729.51L693.48,740.56L692.23,742.42L700.28,749.22L701.77,752.39L707.4,751.28L709.04,751.87L707.49,757.6L708.72,758.04L709.22,765.08L710.7,769.11L703.34,781.4L703.97,789.15L699.7,791.42L697.74,797.29L697.57,802.02L694.28,802.29L693.16,806.59L700.96,807.07L699.01,810.93L698.71,814.95L695.42,815.21L693.9,817.64L693.45,823.81L690.17,823.5L690.77,834.84L688.96,839.99L682.65,842.68L683.58,847.42L680.3,847.4L674.48,859.99L674.74,862.86L672.27,864.71L668.88,859.53L668.63,855.36L666.62,849.9L663.08,847.01L652.68,848.39L647.6,854.1L646.89,858.26L644.7,859.54L636.49,861.65L622.26,868.48L615.97,870.32L609.28,869.72L605.88,866.69L595.51,860.63L594.71,854.89L592.81,851.59L587.49,846.12L584.76,845.54L573,847.09L556.31,856.82L553.16,862.13L553.84,867.58L550.7,866.86L549.48,860.83L546.75,858.24L540.05,857.23L533.49,859.38L531.99,853.93L533.64,849.48L529.54,842.88L526.39,843.45L524.62,845.75L516.41,842.31L510.26,841.3L497.14,846.05L490.58,847.06L484.84,846.64L482.1,844.92L476.78,851.25L469.13,852.7L466.13,855.58L462.03,854.29L456.84,854.31L456.72,858.76L454.8,859.62L450.56,856.77L439.65,862.4L437.19,860.83L433.24,865L430.5,863.72L431.72,860.13L425.85,862.02L422.03,861.75L416.7,863.06L413.55,860.64L409.86,860.08L407.79,856.22L403.16,857.96L400.19,865.87L400.91,872.18L399.41,874.19L398.35,879.22L392.64,883.7L390.63,891.03L389.15,893.76L388.76,897.93L381.44,905.72L380.11,910.75L381.77,916.05L377.98,919.37L374.74,924.99L369.83,923.58L365.33,924.04L362.46,923.06L359.99,919.77L355.35,919.52L352.5,921.26L348.86,925.59L345.46,926.76L342.9,930.65L339.48,929.25L335.36,924.54L333.27,919.11L330.69,919.99L329.5,924.73L321.64,929.82L310.26,921.88L307.22,917.17L297.37,913.25L290.2,918.48L285.85,919.81L282.39,914.54L278.03,914.15L272.67,910.76L269.28,912.66L264.87,920.46L261.08,923.37L259.53,930.42L254.36,931.05L251.8,933.95L245.98,937.31L246.86,942.47L252.29,952.88L257.94,972.33L258.4,977.06L262.7,984.62L265.31,987.03L264.3,994.65L266.53,999.21L270.74,999.31L274.13,1011.47L270.92,1016.96L270.81,1018.68L274.89,1020.22L275.08,1024.67L282.73,1044.1L282.08,1046.55L277.8,1052.19L280.55,1056.03L285.87,1059.14L287.13,1064.15L289.19,1066.56L287.31,1068.59L279.72,1067.81L276.77,1070.56L269.85,1069.34L265.25,1070.4L257.61,1077.37L249.35,1077.17L245.81,1075.92L241.72,1073.24L239.59,1076.14L237.53,1073.58L232.14,1076.52L228.87,1074.4L222.53,1076.49L216.53,1073.41L214.77,1073.43L212.55,1069.16L209.56,1068.76L207.34,1064.63L200.24,1060.13L190.17,1057.69L188.16,1058.72L181.32,1054.51L177.41,1055.72L172.63,1044.45L170.68,1021.81L171.77,1013.33L173.39,1012.15L174.16,1009.13L173.27,1004.55L170.43,995.7L159.92,974.61L160.85,972.88L160,971.03L153.44,959.65L145.82,951.15L150.75,953.52L150.98,950.64L149.04,948.52L148.98,944.07L146.61,940.81L143.72,939.13L144.54,930.65L143.31,921.78L144.91,928.07L147.06,926.17L150.77,927.83L152.8,926.94L148.37,922.42L146.76,915.27L149.89,914.93L147.76,909.65L146.1,908.24L147,904.93L143.96,902.11L143.24,899.39L139.38,896.87L138.76,892.43L140.35,889.39L138.72,873.06L140.71,869.15L141.41,861.53L140.1,856.24L137.18,853.28L131.53,850.21L130.55,848.79L129.41,837.47L126.12,820.59Z" fill-rule="evenodd" fill="#4682b4" fill-opacity="0.471"/>
<polyline points="126.12,820.59 126.22,818.43 127.74,818.84 127.38,813.97 128.14,810.36 130.3,808.46 135.83,794.16 137.59,793.13 137.44,792.27 144.67,781.54 147.12,780.35 146.7,779.35 149.33,771.99 148.84,767.26 149.67,767.54 151.16,766.51 151.27,764.78 154.21,759.71 156.66,758.39 159.63,755.18 162.44,750.12 164.49,749.08 170.47,735.64 178.38,722.18 178.94,722.74 180.41,720.28 180.93,717.69 182.69,716.09 183.75,713.34 186.2,711.44 187.12,708.56 189.15,705.8 190.78,704.34 192.02,704.62 193.71,697.7 194.54,697.4 192.91,688.95 193.31,687.8 191.89,685.23 195.82,680.3 197.74,680.13 198.51,675.38 197.6,669.5 195.91,666.22 195.08,666.23 194.62,663.08 190.09,653.66 188.91,647.79 191.62,644.45 193.2,639.55 193.52,632.07 194.98,627.89 196.76,627 200.08,627.96 202.97,627.06 217.05,628.18 221.2,629.27 226.31,629.21 228.8,630.04 240.79,629.61 243.15,631.02 238.18,630.51 236.96,631.81 237.39,633.68 239.04,633.23 246.38,636.01 248.59,636.13 251.58,631.79 254.32,630.47 255.81,627.58 260.62,625.95 262.14,626.79 263.24,626.35 263.62,623.33 273.9,616.47 290.02,599.79 292.5,598.91 300.45,592.37 306.93,590.44 307.73,603.65 308.59,606.8 304.94,615.17 306.5,620.47 312.58,621.71 316.3,620.24 313.93,617.68 317.05,611.33 321.6,610.86 323.52,609.41 325.15,605.66 329.68,603.32 329.39,600.6 322.19,599.36 318.59,597.53 324.8,596.9 327.84,597.59 331.97,596.12 340.39,594.91 338.35,598.66 341.77,594.33 347.44,596.58 345.43,604.79 344.07,607.24 339.38,607.13 338.44,610.87 345.2,610.25 354.46,612.48 360.24,610.28 357.32,606.86 356.75,603.7 353.42,601.71 355.05,597.68 358.06,593.78 357.34,589.62 362.02,586.71 360.21,584.43 359.52,585.58 358.97,584.87 358.71,587.17 358.81,582.71 358.11,580.99 359.09,582.28 358.94,581.56 359.77,581.56 358.1,578.98 358.51,578.26 359.34,579.12 361.12,576.95 362.61,571.19 360.27,572.5 360.8,570.34 363.15,569.47 363.27,566.88 368.13,569.72 375.87,569.96 376.29,570.96 380.98,568.92 389.26,567.01 392.85,565.12 401.02,568.24 401.18,572.84 404.81,578.57 412.54,577.38 416.72,585.12 421.67,580.5 421.66,576.62 417.93,576.64 417.63,573.05 421.64,572.89 423.73,576.9 426.91,575.6 423.16,571.59 413.62,572.35 410.03,573.51 409.61,570.93 421.45,558.67 434.16,556.46 440.39,558.16 442.62,563.18 440.97,566.35 441.26,569.94 440.3,570.66 440.3,573.11 439.47,571.1 438.37,572.25 438.78,571.39 437.95,571.1 437.83,576.99 438.8,577.28 453.01,570.62 455.08,568.89 457.7,564.86 453.54,559.56 450.49,559.57 450.07,557.13 451.59,555.68 453.1,551.23 457.23,544.89 461.51,540.28 468.69,534.8 473.25,528.61 475.74,528.03 476.85,529.33 477.54,529.04 486.39,521.26 489.16,520.4 493.87,516.22 495.53,515.79 495.39,514.21 496.22,513.49 508.68,504.57 521.16,493.78 533.09,485.88 538.91,483.58 540.86,484.01 542.1,487.61 541.27,492.21 542.79,496.52 548.61,499.4 552.91,500.41 554.01,505.59 551.23,510.47 547.76,512.91 540.83,515.49 538.75,517.93 538.2,522.82 545.4,525.55 547.89,525.41 551.49,522.97 554.68,523.12 558.84,519.53 562.86,519.54 567.84,521.42 571.44,520.13 568.42,509.2 566.48,507.04 569.13,495.83 567.47,495.54 562.33,499.85 559.01,494.09 555.96,493.23 556.11,490.21 552.78,488.48 553.21,481.29 561.27,470.52 565.43,469.95 573.91,463.21 576.98,458.61 576.43,454.59 580.32,453.59 581.99,452.01 582.97,448.85 585.76,446.27 590.91,443.26 593.55,443.99 599.53,439.55 598.71,436.09 596.21,434.07 594.12,436.51 592.04,436.22 589.67,438.8 587.31,438.22 586.07,434.48 597.37,420.13 603.93,413.39 611.46,407.95 611.73,411.25 614.78,414.29 616.58,414.58 613.65,418.89 614.34,419.61 613.64,420.61 613.91,423.92 618.48,428.83 613.44,438.3 602.27,452.64 603.92,457.68 603.77,461.42 601.66,469.75 604.84,475.08 608.31,474.37 609.29,472.51 609.42,473.8 611.92,473.09 611.79,470.79 616.11,466.35 617.52,461.18 619.19,460.47 620.3,461.33 621,460.04 624.2,458.04 623.51,456.75 626.3,453.88 625.75,452.58 626.72,451.58 627.01,449.57 626.17,450.72 624.93,448.55 627.71,447.13 628.56,443.82 628.15,442.24 627.73,443.1 629,438.79 632.22,434.64 632.5,432.34 633.9,431.77 635.71,429.33 636.14,428.04 634.62,425.87 642.03,416.27 641.62,414.54 642.61,412.53 643.59,411.53 645.67,411.69 646.51,410.83 647.91,408.68 648.21,405.94 651.57,400.93 648.25,397.75 647.31,390.98 649.97,387.25 646.23,382.49 646.65,382.2 644.85,381.04 645.97,379.32 643.2,375.42 644.05,373.27 643.79,369.81 645.63,363.49 646.9,361.19 654.88,354.18 653.24,347.7 658.43,342.69 660.24,343.56 664.54,348.48 669.41,349.51 670.26,347.93 672.5,346.8 673.74,348.67 676.96,347.26 677.95,345.68 677.39,344.96 678.82,339.35 678.57,334.74 677.04,333.87 675.94,330.84 672.61,328.23 674.02,326.37 673.75,324.92 672.34,326.07 670.95,325.48 673.89,324.21 681.26,329 685.44,330.18 686.94,335.37 685.54,336.37 683.27,342.4 680.95,355.92 683.3,359.24 686.23,358.4 684.44,355.36 685.3,351.91 688.65,351.07 685.63,343.86 687.05,340.7 691.97,334.83 691.43,332.09 693.13,328.22 690.92,324.75 690.11,320.71 690.84,315.53 696.86,313.99 696.91,306.79 699.85,306.38 705.04,303.54 709.54,298.96 719.37,294 724.12,294.61 730.64,300.28 732.11,307.78 730.56,310.36 729.79,317.98 730.16,324.18 733.47,329.24 736.26,328.98 738.48,331.3 739.41,336.06 751,336.31 756.54,340.25 758.47,343.29 763.75,345.06 775.89,345.47 782.15,346.98 789.18,341.87 794.59,344.66 795.66,348.85 799.83,350.76 803.36,346.77 809.81,343.82 813.75,340.56 816.59,336.42 822.88,335.63 826.36,336.68 831.62,340.2 834.55,340.52 835.9,343.71 837.07,350.77 847.93,362.86 850.42,364.48 855.43,364.97 858.88,367.61 861.6,373.12 871.29,377.57 878.97,386.6 875.31,388.99 875.07,396.33 882.97,407.95 884.46,420.34 886.78,423.97 887.18,434.05 883.5,438.45 886.77,442.96 885.64,444.81 884.42,451.84 885.88,456.32 884.32,468.38 876.44,465.96 872.94,467.78 872.8,477.84 874.12,482.75 873.31,490.65 870.52,491.9 865.53,491.4 863.25,496.26 856.3,497.31 854.34,498.44 850.2,496.8 847.81,499.93 843.76,502.04 835.82,504.81 826.8,505.27 823.6,506.38 821.88,511.39 823.23,514.43 823.14,521.18 825.62,522.79 828.81,521.97 833.78,523.61 835.97,525.37 833.67,532.38 834.57,537.71 834.04,546.61 830.34,554.76 830.43,559.35 834.86,580.96 838.93,586.76 847.82,593.49 851.76,598.28 849.44,607.01 848.37,614.75 849.58,617.07 853.68,619.85 852.63,626.3 854.06,632.79 851.81,636.2 847.49,639.45 841.95,652.01 845.18,658.09 841.93,663.93 839.44,664.62 837.34,667.61 830.45,668.1 825.33,669.61 814.23,677.23 813.06,682.53 815.61,688.16 813.51,691.01 812.06,697.88 790.18,698.93 788.68,697.05 781.95,696.83 778.64,697.8 775.35,696.62 771.77,697.01 771.38,694.42 773.94,685.83 773.7,682.96 770.7,679.48 772.7,672.75 769.27,671.43 765.76,664.36 758.26,656.24 754.15,654.77 748.15,647.1 744.86,645.78 738.52,645.72 736.62,641.97 727.96,638.88 722.49,633.23 716.98,633.05 712.83,635.03 708.28,634.42 705.51,636.12 700.27,635.79 696.27,637.06 679.33,633.93 675.35,630.89 671.03,637.9 670.86,643.35 675.08,652.43 673.1,659.74 669.76,666.47 669.96,679.11 672.96,683.72 676.89,692.36 675.5,695.94 676.85,699.82 674.62,704.26 678.03,709.16 680.36,710.04 683.62,716.09 685.12,717.11 685.37,721.84 688.1,723.44 689.73,726.75 693.28,729.51 693.48,740.56 692.23,742.42 700.28,749.22 701.77,752.39 707.4,751.28 709.04,751.87 707.49,757.6 708.72,758.04 709.22,765.08 710.7,769.11 703.34,781.4 703.97,789.15 699.7,791.42 697.74,797.29 697.57,802.02 694.28,802.29 693.16,806.59 700.96,807.07 699.01,810.93 698.71,814.95 695.42,815.21 693.9,817.64 693.45,823.81 690.17,823.5 690.77,834.84 688.96,839.99 682.65,842.68 683.58,847.42 680.3,847.4 674.48,859.99 674.74,862.86 672.27,864.71 668.88,859.53 668.63,855.36 666.62,849.9 663.08,847.01 652.68,848.39 647.6,854.1 646.89,858.26 644.7,859.54 636.49,861.65 622.26,868.48 615.97,870.32 609.28,869.72 605.88,866.69 595.51,860.63 594.71,854.89 592.81,851.59 587.49,846.12 584.76,845.54 573,847.09 556.31,856.82 553.16,862.13 553.84,867.58 550.7,866.86 549.48,860.83 546.75,858.24 540.05,857.23 533.49,859.38 531.99,853.93 533.64,849.48 529.54,842.88 526.39,843.45 524.62,845.75 516.41,842.31 510.26,841.3 497.14,846.05 490.58,847.06 484.84,846.64 482.1,844.92 476.78,851.25 469.13,852.7 466.13,855.58 462.03,854.29 456.84,854.31 456.72,858.76 454.8,859.62 450.56,856.77 439.65,862.4 437.19,860.83 433.24,865 430.5,863.72 431.72,860.13 425.85,862.02 422.03,861.75 416.7,863.06 413.55,860.64 409.86,860.08 407.79,856.22 403.16,857.96 400.19,865.87 400.91,872.18 399.41,874.19 398.35,879.22 392.64,883.7 390.63,891.03 389.15,893.76 388.76,897.93 381.44,905.72 380.11,910.75 381.77,916.05 377.98,919.37 374.74,924.99 369.83,923.58 365.33,924.04 362.46,923.06 359.99,919.77 355.35,919.52 352.5,921.26 348.86,925.59 345.46,926.76 342.9,930.65 339.48,929.25 335.36,924.54 333.27,919.11 330.69,919.99 329.5,924.73 321.64,929.82 310.26,921.88 307.22,917.17 297.37,913.25 290.2,918.48 285.85,919.81 282.39,914.54 278.03,914.15 272.67,910.76 269.28,912.66 264.87,920.46 261.08,923.37 259.53,930.42 254.36,931.05 251.8,933.95 245.98,937.31 246.86,942.47 252.29,952.88 257.94,972.33 258.4,977.06 262.7,984.62 265.31,987.03 264.3,994.65 266.53,999.21 270.74,999.31 274.13,1011.47 270.92,1016.96 270.81,1018.68 274.89,1020.22 275.08,1024.67 282.73,1044.1 282.08,1046.55 277.8,1052.19 280.55,1056.03 285.87,1059.14 287.13,1064.15 289.19,1066.56 287.31,1068.59 279.72,1067.81 276.77,1070.56 269.85,1069.34 265.25,1070.4 257.61,1077.37 249.35,1077.17 245.81,1075.92 241.72,1073.24 239.59,1076.14 237.53,1073.58 232.14,1076.52 228.87,1074.4 222.53,1076.49 216.53,1073.41 214.77,1073.43 212.55,1069.16 209.56,1068.76 207.34,1064.63 200.24,1060.13 190.17,1057.69 188.16,1058.72 181.32,1054.51 177.41,1055.72 172.63,1044.45 170.68,1021.81 171.77,1013.33 173.39,1012.15 174.16,1009.13 173.27,1004.55 170.43,995.7 159.92,974.61 160.85,972.88 160,971.03 153.44,959.65 145.82,951.15 150.75,953.52 150.98,950.64 149.04,948.52 148.98,944.07 146.61,940.81 143.72,939.13 144.54,930.65 143.31,921.78 144.91,928.07 147.06,926.17 150.77,927.83 152.8,926.94 148.37,922.42 146.76,915.27 149.89,914.93 147.76,909.65 146.1,908.24 147,904.93 143.96,902.11 143.24,899.39 139.38,896.87 138.76,892.43 140.35,889.39 138.72,873.06 140.71,869.15 141.41,861.53 140.1,856.24 137.18,853.28 131.53,850.21 130.55,848.79 129.41,837.47 126.12,820.59" fill="none" stroke="#1e1e1e" stroke-width="1.16" stroke-linecap="round" stroke-linejoin="round"/>
<path d="M357.89,589.04L357.89,589.04Z" fill-rule="evenodd" fill="#4682b4" fill-opacity="0.471"/>
<polyline points="357.89,589.04 357.89,589.04" fill="none" stroke="#1e1e1e" stroke-width="1.16" stroke-linecap="round" stroke-linejoin="round"/>
<path d="M631.56,394.36L627.38,395.35L627.55,387.15L629.65,384.14L631.46,385.01L630.88,388.74L634.5,389.77L634.49,393.22L631.56,394.36Z" fill-rule="evenodd" fill="#4682b4" fill-opacity="0.471"/>
<polyline points="631.56,394.36 627.38,395.35 627.55,387.15 629.65,384.14 631.46,385.01 630.88,388.74 634.5,389.77 634.49,393.22 631.56,394.36" fill="none" stroke="#1e1e1e" stroke-width="1.16" stroke-linecap="round" stroke-linejoin="round"/>
<path d="M616.83,459.45L615.99,460.45L615.72,460.02L619.91,454.43L622.83,453L622.54,456.17L619.75,458.46L617.25,458.59L616.83,459.45Z" fill-rule="evenodd" fill="#4682b4" fill-opacity="0.471"/>
<polyline points="616.83,459.45 615.99,460.45 615.72,460.02 619.91,454.43 622.83,453 622.54,456.17 619.75,458.46 617.25,458.59 616.83,459.45" fill="none" stroke="#1e1e1e" stroke-width="1.16" stroke-linecap="round" stroke-linejoin="round"/>
<path d="M138.65,885.83L138.73,890.85L138.65,885.83Z" fill-rule="evenodd" fill="#4682b4" fill-opacity="0.471"/>
<polyline points="138.65,885.83 138.73,890.85 138.65,885.83" fill="none" stroke="#1e1e1e" stroke-width="1.16" stroke-linecap="round" stroke-linejoin="round"/>
<path d="M348.86,925.59L352.5,921.26L355.35,919.52L359.99,919.77L362.46,923.06L365.33,924.04L369.83,923.58L374.74,924.99L377.98,919.37L381.77,916.05L380.11,910.75L381.44,905.72L388.76,897.93L389.15,893.76L390.63,891.03L392.64,883.7L398.35,879.22L399.41,874.19L400.91,872.18L400.19,865.87L403.16,857.96L407.79,856.22L409.86,860.08L413.55,860.64L416.7,863.06L422.03,861.75L425.85,862.02L431.72,860.13L430.5,863.72L433.24,865L437.19,860.83L439.65,862.4L450.56,856.77L454.8,859.62L456.72,858.76L456.84,854.31L462.03,854.29L466.13,855.58L469.13,852.7L476.78,851.25L482.1,844.92L484.84,846.64L490.58,847.06L497.14,846.05L510.26,841.3L516.41,842.31L524.62,845.75L526.39,843.45L529.54,842.88L533.64,849.48L531.99,853.93L533.49,859.38L540.05,857.23L546.75,858.24L549.48,860.83L550.7,866.86L553.84,867.58L553.16,862.13L556.31,856.82L573,847.09L584.76,845.54L587.49,846.12L592.81,851.59L594.71,854.89L595.51,860.63L597.01,862.07L605.88,866.69L609.28,869.72L615.97,870.32L622.26,868.48L636.49,861.65L644.7,859.54L646.89,858.26L647.6,854.1L652.68,848.39L663.08,847.01L666.62,849.9L668.63,855.36L668.88,859.53L672.27,864.71L669.24,868.28L669.2,874.74L674.09,879.07L677.04,887.27L680.41,893.32L682.11,904.38L682.71,917.15L683.63,922.18L685.66,924.78L684.41,928.07L684.93,932.66L688.67,942.3L687.69,947.03L683.47,947.29L681.15,948.57L682.47,954.89L682.03,959.33L678.39,975.81L671.21,993.84L671.03,1000.3L673.51,1016.96L671.99,1020.97L673.18,1025.85L676.55,1029.89L675.99,1031.89L672.03,1036.32L666.68,1047.33L667.86,1054.08L666.48,1057.81L667.13,1062.11L672.11,1067.45L670.57,1075.19L672.17,1079.79L668.05,1090.1L665.97,1097.84L664.47,1100.98L660.38,1105.26L661.44,1109.43L659.24,1116.74L656.92,1120.74L659.06,1123.62L658.51,1126.63L659,1134.67L656.81,1139.68L648.8,1148.25L645.16,1147.23L641.36,1151.51L634.42,1163.82L634.41,1166.26L637.07,1174.74L636.49,1183.06L625.96,1185.17L613.29,1184.97L609.66,1182.81L606.29,1185.24L602.38,1184.5L598.61,1182.63L592,1182.89L586.21,1183.74L581.61,1188.61L580.13,1188.46L576.63,1184.72L573.53,1187.01L570.96,1190.59L570.68,1196.05L568.25,1197.33L564.49,1192.73L560.71,1195.6L556.81,1195.59L553.03,1197.74L550.33,1200.75L544.54,1200.32L540.1,1196.87L536.73,1198.01L531.74,1205.9L528.24,1206.33L527.97,1209.64L523.26,1209.2L520.7,1212.36L518.28,1213.37L516.53,1211.36L511.81,1210.07L508.58,1212.08L504.28,1212.66L500.5,1208.64L496.73,1208.65L495.92,1206.35L491.07,1206.5L487.85,1211.1L481.12,1210.97L477.21,1208.1L472.76,1207.25L471.81,1204.09L461.32,1208.57L456.06,1205.43L452.02,1205.44L447.7,1201.86L445.4,1198.86L445.38,1194.55L450.5,1194.1L450.77,1191.81L448.33,1190.09L450.06,1182.91L446.14,1176.9L443.17,1176.05L440.07,1176.92L433.21,1181.82L427.8,1177.39L422.67,1176.12L420.77,1172.4L420.62,1168.81L418.72,1165.81L414.4,1166.4L411.01,1162.69L404.39,1161.14L400.89,1161.3L395.47,1158.46L392.5,1158.19L385.63,1159.37L380.48,1155.82L391.31,1136.53L386.66,1126.79L387.59,1123.92L386.73,1115.89L384.38,1107.44L384.45,1094.81L386.44,1088.77L385.58,1081.17L384.49,1079.6L377.43,1075.05L376.59,1071.18L377.24,1066.15L376.27,1063L367.57,1059.47L366.14,1046.71L360.84,1044.88L359.47,1042.59L354.98,1041.62L352.5,1035.9L348.26,1030.19L344.94,1021.61L341.92,1016.89L343.23,1011.72L343.26,997.66L339.13,990.08L343.29,983.45L349.1,977.96L349.49,975.95L353.01,973.77L355.97,969.16L354.59,946.21L353.05,940.62L356.95,933.85L348.86,925.59Z" fill-rule="evenodd" fill="#4682b4" fill-opacity="0.471"/>
<polyline points="348.86,925.59 352.5,921.26 355.35,919.52 359.99,919.77 362.46,923.06 365.33,924.04 369.83,923.58 374.74,924.99 377.98,919.37 381.77,916.05 380.11,910.75 381.44,905.72 388.76,897.93 389.15,893.76 390.63,891.03 392.64,883.7 398.35,879.22 399.41,874.19 400.91,872.18 400.19,865.87 403.16,857.96 407.79,856.22 409.86,860.08 413.55,860.64 416.7,863.06 422.03,861.75 425.85,862.02 431.72,860.13 430.5,863.72 433.24,865 437.19,860.83 439.65,862.4 450.56,856.77 454.8,859.62 456.72,858.76 456.84,854.31 462.03,854.29 466.13,855.58 469.13,852.7 476.78,851.25 482.1,844.92 484.84,846.64 490.58,847.06 497.14,846.05 510.26,841.3 516.41,842.31 524.62,845.75 526.39,843.45 529.54,842.88 533.64,849.48 531.99,853.93 533.49,859.38 540.05,857.23 546.75,858.24 549.48,860.83 550.7,866.86 553.84,867.58 553.16,862.13 556.31,856.82 573,847.09 584.76,845.54 587.49,846.12 592.81,851.59 594.71,854.89 595.51,860.63 597.01,862.07 605.88,866.69 609.28,869.72 615.97,870.32 622.26,868.48 636.49,861.65 644.7,859.54 646.89,858.26 647.6,854.1 652.68,848.39 663.08,847.01 666.62,849.9 668.63,855.36 668.88,859.53 672.27,864.71 669.24,868.28 669.2,874.74 674.09,879.07 677.04,887.27 680.41,893.32 682.11,904.38 682.71,917.15 683.63,922.18 685.66,924.78 684.41,928.07 684.93,932.66 688.67,942.3 687.69,947.03 683.47,947.29 681.15,948.57 682.47,954.89 682.03,959.33 678.39,975.81 671.21,993.84 671.03,1000.3 673.51,1016.96 671.99,1020.97 673.18,1025.85 676.55,1029.89 675.99,1031.89 672.03,1036.32 666.68,1047.33 667.86,1054.08 666.48,1057.81 667.13,1062.11 672.11,1067.45 670.57,1075.19 672.17,1079.79 668.05,1090.1 665.97,1097.84 664.47,1100.98 660.38,1105.26 661.44,1109.43 659.24,1116.74 656.92,1120.74 659.06,1123.62 658.51,1126.63 659,1134.67 656.81,1139.68 648.8,1148.25 645.16,1147.23 641.36,1151.51 634.42,1163.82 634.41,1166.26 637.07,1174.74 636.49,1183.06 625.96,1185.17 613.29,1184.97 609.66,1182.81 606.29,1185.24 602.38,1184.5 598.61,1182.63 592,1182.89 586.21,1183.74 581.61,1188.61 580.13,1188.46 576.63,1184.72 573.53,1187.01 570.96,1190.59 570.68,1196.05 568.25,1197.33 564.49,1192.73 560.71,1195.6 556.81,1195.59 553.03,1197.74 550.33,1200.75 544.54,1200.32 540.1,1196.87 536.73,1198.01 531.74,1205.9 528.24,1206.33 527.97,1209.64 523.26,1209.2 520.7,1212.36 518.28,1213.37 516.53,1211.36 511.81,1210.07 508.58,1212.08 504.28,1212.66 500.5,1208.64 496.73,1208.65 495.92,1206.35 491.07,1206.5 487.85,1211.1 481.12,1210.97 477.21,1208.1 472.76,1207.25 471.81,1204.09 461.32,1208.57 456.06,1205.43 452.02,1205.44 447.7,1201.86 445.4,1198.86 445.38,1194.55 450.5,1194.1 450.77,1191.81 448.33,1190.09 450.06,1182.91 446.14,1176.9 443.17,1176.05 440.07,1176.92 433.21,1181.82 427.8,1177.39 422.67,1176.12 420.77,1172.4 420.62,1168.81 418.72,1165.81 414.4,1166.4 411.01,1162.69 404.39,1161.14 400.89,1161.3 395.47,1158.46 392.5,1158.19 385.63,1159.37 380.48,1155.82 391.31,1136.53 386.66,1126.79 387.59,1123.92 386.73,1115.89 384.38,1107.44 384.45,1094.81 386.44,1088.77 385.58,1081.17 384.49,1079.6 377.43,1075.05 376.59,1071.18 377.24,1066.15 376.27,1063 367.57,1059.47 366.14,1046.71 360.84,1044.88 359.47,1042.59 354.98,1041.62 352.5,1035.9 348.26,1030.19 344.94,1021.61 341.92,1016.89 343.23,1011.72 343.26,997.66 339.13,990.08 343.29,983.45 349.1,977.96 349.49,975.95 353.01,973.77 355.97,969.16 354.59,946.21 353.05,940.62 356.95,933.85 348.86,925.59" fill="none" stroke="#1e1e1e" stroke-width="1.16" stroke-linecap="round" stroke-linejoin="round"/>
<path d="M51.93,1499.57L55.16,1500.94L54.98,1492.17L52.71,1485.03L50.85,1485.36L49.1,1491L44.46,1485.48L45.85,1481.43L44.73,1479.01L45.48,1470.08L48.17,1464.57L48.45,1465.14L52.38,1461.75L53.58,1461.73L54.15,1463.44L55.34,1462.99L55.02,1460.69L56.18,1458.51L57.25,1458.64L57.45,1455.18L59.35,1450.4L58.54,1442.8L60.68,1436.58L58.66,1428.57L62.61,1425.91L66.13,1421.53L69.86,1414.28L71.08,1414.97L73.18,1413.21L72.87,1417.95L78.14,1421.45L79.71,1419.69L75.93,1409.99L76.71,1402.08L79.34,1399.73L78.84,1394.42L77.23,1394.02L76.18,1388.01L79.42,1375.31L84.96,1371.04L86.76,1367.13L93.35,1369.3L101.86,1366.28L109.13,1368.74L111.26,1368.12L113.44,1362.77L110.85,1360.09L107.66,1361.15L112.56,1358.05L118.33,1351.2L119.48,1348.16L124.07,1334.15L126.65,1319.89L126.53,1312.71L130.96,1296.99L135.79,1288.44L137.91,1286.68L140.11,1281.91L142.28,1283.17L143.21,1282.29L143.05,1280.71L148.24,1277.76L148.91,1278.04L154.45,1262.87L155.16,1256.26L158.87,1244.14L161,1242.96L172.14,1232.17L174.28,1231.14L175.71,1227.81L176.43,1221.92L178.39,1217.58L181.3,1214.1L182.72,1209.48L192.06,1193.56L195.39,1190.94L195.64,1189.78L194.43,1189.8L193.51,1191.1L194.03,1189.95L196.98,1188.62L199.08,1184.43L199.63,1185.28L202.63,1177.78L204.77,1176.6L207.01,1172.69L207.22,1168.53L204.25,1158.24L200.96,1153.97L198.12,1154.01L196.05,1150.74L194.64,1146.31L194.44,1141.29L197.87,1135.22L196.16,1128.64L196.82,1127.63L197.93,1129.62L201.95,1127.56L203.53,1124.38L202.02,1122.68L202.1,1118.66L204.13,1118.2L206.77,1113.86L206.44,1108.98L202.85,1103.87L203.98,1097.39L204.15,1099.69L205.08,1098.67L203.15,1095.68L202.01,1091.54L196.2,1082.43L198.53,1084.41L201.37,1084.23L201.97,1078.34L199.66,1077.51L198.8,1074.07L194.9,1076.57L193.61,1080.74L190.17,1077.2L190.53,1073.76L188.23,1073.5L183.07,1063.24L177.41,1055.72L181.32,1054.51L188.16,1058.72L190.17,1057.69L200.24,1060.13L207.34,1064.63L209.56,1068.76L212.55,1069.16L214.77,1073.43L216.53,1073.41L222.53,1076.49L228.87,1074.4L232.14,1076.52L237.53,1073.58L239.59,1076.14L241.72,1073.24L245.81,1075.92L249.35,1077.17L257.61,1077.37L265.25,1070.4L269.85,1069.34L276.77,1070.56L279.72,1067.81L287.31,1068.59L289.19,1066.56L287.13,1064.15L285.87,1059.14L280.55,1056.03L277.8,1052.19L282.08,1046.55L282.73,1044.1L275.08,1024.67L274.89,1020.22L270.81,1018.68L270.92,1016.96L274.13,1011.47L270.74,999.31L266.53,999.21L264.3,994.65L265.31,987.03L262.7,984.62L258.4,977.06L257.94,972.33L252.29,952.88L246.86,942.47L245.98,937.31L251.8,933.95L254.36,931.05L259.53,930.42L261.08,923.37L264.87,920.46L269.28,912.66L272.67,910.76L278.03,914.15L282.39,914.54L285.85,919.81L290.2,918.48L297.37,913.25L307.22,917.17L310.26,921.88L321.64,929.82L329.5,924.73L330.69,919.99L333.27,919.11L335.36,924.54L339.48,929.25L342.9,930.65L345.46,926.76L348.86,925.59L356.95,933.85L353.05,940.62L354.59,946.21L355.97,969.16L353.01,973.77L349.49,975.95L349.1,977.96L343.29,983.45L339.13,990.08L343.26,997.66L343.23,1011.72L341.92,1016.89L344.94,1021.61L348.26,1030.19L352.5,1035.9L354.98,1041.62L359.47,1042.59L360.84,1044.88L366.14,1046.71L367.57,1059.47L376.27,1063L377.24,1066.15L376.59,1071.18L377.43,1075.05L384.49,1079.6L385.58,1081.17L386.44,1088.77L384.45,1094.81L384.38,1107.44L386.73,1115.89L387.59,1123.92L386.66,1126.79L391.31,1136.53L378.34,1159.27L378.68,1170.18L381.26,1173.03L379.41,1180.36L380.11,1184.66L379.37,1194.72L381.43,1201.88L384.29,1207.75L384.59,1212.48L387.59,1218.49L388.3,1225.23L386.19,1233.71L385.43,1241.61L383.45,1247.8L388.64,1261.83L387.37,1275.34L384.98,1279.51L382.18,1281.97L378.38,1298.22L380.55,1302.65L379.92,1307.97L382.14,1321.45L377.64,1329.95L380.68,1346.02L379.11,1351.2L376.04,1353.8L366.3,1357.45L357.52,1364.84L356.21,1368.72L355.84,1373.61L352.95,1381.24L345.93,1389.91L347.58,1396.37L349.62,1400.08L349.52,1404.68L348.07,1407.57L343.67,1408.32L341.96,1412.35L343.18,1414.36L339.59,1415.82L338.01,1419.14L334.95,1420.02L333.67,1427.36L328.45,1441.34L323.92,1441.95L319.56,1446.16L307.45,1449.42L306.41,1452.31L308.32,1456.6L315.45,1464.59L316.15,1468.75L315.28,1474.79L316.38,1478.66L318.53,1481.95L317.64,1486.84L318.75,1491.58L312.68,1497.24L311.13,1502.71L312.11,1508.17L311.61,1511.33L306.87,1516.7L307.56,1518.85L304.81,1523.47L302.15,1523.93L299.39,1526.83L294.44,1536.65L288.34,1551.53L284.54,1556.31L283.12,1560.21L282.55,1568.84L279.64,1582.39L277.82,1586.3L277.73,1589.89L279.92,1596.78L280.52,1604.11L285.09,1610.1L289.49,1613.66L293.86,1613.18L305.12,1613.79L309.7,1623.1L314.61,1624.07L319.1,1623.59L326.22,1620.37L329.14,1621.49L329.34,1614.01L326.94,1611.59L325.7,1606.27L328.38,1594.02L330.35,1591.42L330.19,1588.11L332.16,1585.36L357.9,1570.49L374.44,1564.63L378.41,1564.32L381.58,1561.13L396.41,1556.3L402.12,1556.13L409.69,1557.38L414.62,1562.54L425.52,1568.1L433.37,1574.54L453.91,1614.89L459.49,1622.65L468.9,1628.38L472.35,1633.7L472.89,1636.57L471.18,1643.2L471.19,1647.08L472.66,1652.4L472.41,1659.75L468.86,1667.24L465.17,1670.7L469.41,1674.58L469.81,1677.6L472.98,1680.91L473.39,1685.08L477.89,1690.97L473.69,1703.22L470.93,1708.41L466.2,1713.46L464.63,1717.65L465.7,1723.4L467.42,1725.27L479.41,1730.29L484.82,1735.9L498.79,1740.05L501.42,1742.36L508.02,1759.5L511.44,1762.52L519.2,1763.53L525.78,1766.7L527.62,1769.72L528.67,1776.64L527.75,1782.69L528.66,1789.61L537.99,1788.61L539.83,1787.02L543.38,1786.88L546.67,1783.86L546.41,1782.27L551.54,1777.95L551.55,1770.75L548.13,1768.01L547.61,1765.99L549.85,1761.38L560.38,1757.94L561.43,1754.48L563.41,1752.9L561.58,1748.43L562.37,1743.1L566.32,1745.55L574.61,1746.44L577.76,1751.34L581.84,1751.06L583.67,1756.11L589.46,1756.85L590.24,1760.16L595.89,1761.04L600.47,1767.11L598.48,1772L595.56,1783.81L591.59,1790.43L585.76,1809.01L585.62,1814.49L580.86,1829.91L577.83,1835.67L575.05,1844.17L570.71,1851.81L570.96,1861.76L566.89,1863.92L562.29,1871.56L561.37,1874.88L561.63,1877.62L563.46,1879.5L560.05,1883.1L558.47,1890.89L555.07,1887.71L549.97,1888.72L545.39,1892.03L544.47,1893.76L545.51,1896.5L542.37,1897.08L540.02,1900.97L532.43,1902.41L526.03,1905.16L524.07,1906.74L523.02,1909.63L520.8,1909.2L518.97,1910.21L515.18,1914.69L513.74,1914.69L513.74,1913.24L513.09,1912.95L511.39,1913.97L511.78,1915.7L509.56,1917.43L505.12,1917.87L498.98,1920.47L497.28,1920.47L497.02,1918.89L495.58,1918.17L489.18,1918.32L481.99,1915.73L461.87,1918.09L442.55,1924.07L425.47,1931.06L410.36,1938.21L398.38,1944.92L376.04,1960.94L371.5,1965.59L363.97,1970.55L354.36,1974.67L346.16,1976.17L321.4,1977.1L308.79,1980.39L303.04,1979.15L301.85,1976.85L302.2,1973.09L297.99,1969.08L287.91,1965.28L280.3,1961.17L276.99,1956.44L276.44,1953.84L274.34,1951.99L257.91,1942.06L246.38,1938.73L222.32,1935.85L208.83,1932.85L199.55,1932.4L200.69,1929.93L199.86,1926.04L194.66,1918.61L180.37,1907.12L176.02,1904.87L167.66,1905.29L163.01,1900.6L161.7,1900.47L161.68,1899.32L158.1,1896.05L158.34,1894.61L155.82,1892.48L157.73,1888.99L155.81,1883.68L155.3,1876.18L147.19,1868.37L146.05,1863.2L142.02,1856.63L142.22,1853.16L144.8,1850.67L142.67,1840.31L137.43,1833.04L133.85,1830.36L129.68,1824.66L117.71,1815.5L112.35,1809.24L110.04,1804.67L107.93,1797.21L107.79,1789L107.09,1786.85L107.75,1764.64L108.47,1760.59L108.4,1756.84L106.59,1751.4L107.21,1749.37L106.23,1746.07L106.1,1738.73L107.41,1738.27L107.06,1733.38L104.71,1727.37L106.26,1725.33L101.86,1715.47L103.54,1713.13L102.71,1711.42L103.73,1709.24L102.77,1707.39L104.06,1705.49L102.05,1703.94L103.98,1700.88L104.06,1698L105.2,1695.39L108.59,1693.46L113.59,1692.65L116.34,1691.16L117.63,1689.41L116.52,1686.12L115.87,1687.14L116.23,1684.68L114.44,1680.68L115.49,1680.23L115.26,1681.96L116.07,1683.39L116.85,1682.37L118.6,1677.01L118.68,1673.7L116.77,1670.27L113.43,1668.32L110.05,1663.77L109.13,1664.22L104.93,1658.39L104.68,1659.11L103.62,1659.13L100.69,1657.75L98.62,1652.74L97.62,1641.39L98.91,1639.35L99,1637.34L96.68,1626.15L97.17,1624.13L94.67,1617.27L83.92,1608.97L80.85,1607.88L80.27,1604.87L78.43,1605.62L75.29,1601.08L73.89,1596.79L64.8,1586.03L62.85,1581.32L60.03,1565.99L54.87,1553.43L52.3,1544.28L52.79,1535.5L50.87,1532.8L48.85,1518.32L44.19,1511.51L45.67,1505.44L43.74,1502.46L45.1,1497.4L48,1495.91L51.09,1496.99L51.93,1499.57Z" fill-rule="evenodd" fill="#4682b4" fill-opacity="0.471"/>
<polyline points="51.93,1499.57 55.16,1500.94 54.98,1492.17 52.71,1485.03 50.85,1485.36 49.1,1491 44.46,1485.48 45.85,1481.43 44.73,1479.01 45.48,1470.08 48.17,1464.57 48.45,1465.14 52.38,1461.75 53.58,1461.73 54.15,1463.44 55.34,1462.99 55.02,1460.69 56.18,1458.51 57.25,1458.64 57.45,1455.18 59.35,1450.4 58.54,1442.8 60.68,1436.58 58.66,1428.57 62.61,1425.91 66.13,1421.53 69.86,1414.28 71.08,1414.97 73.18,1413.21 72.87,1417.95 78.14,1421.45 79.71,1419.69 75.93,1409.99 76.71,1402.08 79.34,1399.73 78.84,1394.42 77.23,1394.02 76.18,1388.01 79.42,1375.31 84.96,1371.04 86.76,1367.13 93.35,1369.3 101.86,1366.28 109.13,1368.74 111.26,1368.12 113.44,1362.77 110.85,1360.09 107.66,1361.15 112.56,1358.05 118.33,1351.2 119.48,1348.16 124.07,1334.15 126.65,1319.89 126.53,1312.71 130.96,1296.99 135.79,1288.44 137.91,1286.68 140.11,1281.91 142.28,1283.17 143.21,1282.29 143.05,1280.71 148.24,1277.76 148.91,1278.04 154.45,1262.87 155.16,1256.26 158.87,1244.14 161,1242.96 172.14,1232.17 174.28,1231.14 175.71,1227.81 176.43,1221.92 178.39,1217.58 181.3,1214.1 182.72,1209.48 192.06,1193.56 195.39,1190.94 195.64,1189.78 194.43,1189.8 193.51,1191.1 194.03,1189.95 196.98,1188.62 199.08,1184.43 199.63,1185.28 202.63,1177.78 204.77,1176.6 207.01,1172.69 207.22,1168.53 204.25,1158.24 200.96,1153.97 198.12,1154.01 196.05,1150.74 194.64,1146.31 194.44,1141.29 197.87,1135.22 196.16,1128.64 196.82,1127.63 197.93,1129.62 201.95,1127.56 203.53,1124.38 202.02,1122.68 202.1,1118.66 204.13,1118.2 206.77,1113.86 206.44,1108.98 202.85,1103.87 203.98,1097.39 204.15,1099.69 205.08,1098.67 203.15,1095.68 202.01,1091.54 196.2,1082.43 198.53,1084.41 201.37,1084.23 201.97,1078.34 199.66,1077.51 198.8,1074.07 194.9,1076.57 193.61,1080.74 190.17,1077.2 190.53,1073.76 188.23,1073.5 183.07,1063.24 177.41,1055.72 181.32,1054.51 188.16,1058.72 190.17,1057.69 200.24,1060.13 207.34,1064.63 209.56,1068.76 212.55,1069.16 214.77,1073.43 216.53,1073.41 222.53,1076.49 228.87,1074.4 232.14,1076.52 237.53,1073.58 239.59,1076.14 241.72,1073.24 245.81,1075.92 249.35,1077.17 257.61,1077.37 265.25,1070.4 269.85,1069.34 276.77,1070.56 279.72,1067.81 287.31,1068.59 289.19,1066.56 287.13,1064.15 285.87,1059.14 280.55,1056.03 277.8,1052.19 282.08,1046.55 282.73,1044.1 275.08,1024.67 274.89,1020.22 270.81,1018.68 270.92,1016.96 274.13,1011.47 270.74,999.31 266.53,999.21 264.3,994.65 265.31,987.03 262.7,984.62 258.4,977.06 257.94,972.33 252.29,952.88 246.86,942.47 245.98,937.31 251.8,933.95 254.36,931.05 259.53,930.42 261.08,923.37 264.87,920.46 269.28,912.66 272.67,910.76 278.03,914.15 282.39,914.54 285.85,919.81 290.2,918.48 297.37,913.25 307.22,917.17 310.26,921.88 321.64,929.82 329.5,924.73 330.69,919.99 333.27,919.11 335.36,924.54 339.48,929.25 342.9,930.65 345.46,926.76 348.86,925.59 356.95,933.85 353.05,940.62 354.59,946.21 355.97,969.16 353.01,973.77 349.49,975.95 349.1,977.96 343.29,983.45 339.13,990.08 343.26,997.66 343.23,1011.72 341.92,1016.89 344.94,1021.61 348.26,1030.19 352.5,1035.9 354.98,1041.62 359.47,1042.59 360.84,1044.88 366.14,1046.71 367.57,1059.47 376.27,1063 377.24,1066.15 376.59,1071.18 377.43,1075.05 384.49,1079.6 385.58,1081.17 386.44,1088.77 384.45,1094.81 384.38,1107.44 386.73,1115.89 387.59,1123.92 386.66,1126.79 391.31,1136.53 378.34,1159.27 378.68,1170.18 381.26,1173.03 379.41,1180.36 380.11,1184.66 379.37,1194.72 381.43,1201.88 384.29,1207.75 384.59,1212.48 387.59,1218.49 388.3,1225.23 386.19,1233.71 385.43,1241.61 383.45,1247.8 388.64,1261.83 387.37,1275.34 384.98,1279.51 382.18,1281.97 378.38,1298.22 380.55,1302.65 379.92,1307.97 382.14,1321.45 377.64,1329.95 380.68,1346.02 379.11,1351.2 376.04,1353.8 366.3,1357.45 357.52,1364.84 356.21,1368.72 355.84,1373.61 352.95,1381.24 345.93,1389.91 347.58,1396.37 349.62,1400.08 349.52,1404.68 348.07,1407.57 343.67,1408.32 341.96,1412.35 343.18,1414.36 339.59,1415.82 338.01,1419.14 334.95,1420.02 333.67,1427.36 328.45,1441.34 323.92,1441.95 319.56,1446.16 307.45,1449.42 306.41,1452.31 308.32,1456.6 315.45,1464.59 316.15,1468.75 315.28,1474.79 316.38,1478.66 318.53,1481.95 317.64,1486.84 318.75,1491.58 312.68,1497.24 311.13,1502.71 312.11,1508.17 311.61,1511.33 306.87,1516.7 307.56,1518.85 304.81,1523.47 302.15,1523.93 299.39,1526.83 294.44,1536.65 288.34,1551.53 284.54,1556.31 283.12,1560.21 282.55,1568.84 279.64,1582.39 277.82,1586.3 277.73,1589.89 279.92,1596.78 280.52,1604.11 285.09,1610.1 289.49,1613.66 293.86,1613.18 305.12,1613.79 309.7,1623.1 314.61,1624.07 319.1,1623.59 326.22,1620.37 329.14,1621.49 329.34,1614.01 326.94,1611.59 325.7,1606.27 328.38,1594.02 330.35,1591.42 330.19,1588.11 332.16,1585.36 357.9,1570.49 374.44,1564.63 378.41,1564.32 381.58,1561.13 396.41,1556.3 402.12,1556.13 409.69,1557.38 414.62,1562.54 425.52,1568.1 433.37,1574.54 453.91,1614.89 459.49,1622.65 468.9,1628.38 472.35,1633.7 472.89,1636.57 471.18,1643.2 471.19,1647.08 472.66,1652.4 472.41,1659.75 468.86,1667.24 465.17,1670.7 469.41,1674.58 469.81,1677.6 472.98,1680.91 473.39,1685.08 477.89,1690.97 473.69,1703.22 470.93,1708.41 466.2,1713.46 464.63,1717.65 465.7,1723.4 467.42,1725.27 479.41,1730.29 484.82,1735.9 498.79,1740.05 501.42,1742.36 508.02,1759.5 511.44,1762.52 519.2,1763.53 525.78,1766.7 527.62,1769.72 528.67,1776.64 527.75,1782.69 528.66,1789.61 537.99,1788.61 539.83,1787.02 543.38,1786.88 546.67,1783.86 546.41,1782.27 551.54,1777.95 551.55,1770.75 548.13,1768.01 547.61,1765.99 549.85,1761.38 560.38,1757.94 561.43,1754.48 563.41,1752.9 561.58,1748.43 562.37,1743.1 566.32,1745.55 574.61,1746.44 577.76,1751.34 581.84,1751.06 583.67,1756.11 589.46,1756.85 590.24,1760.16 595.89,1761.04 600.47,1767.11 598.48,1772 595.56,1783.81 591.59,1790.43 585.76,1809.01 585.62,1814.49 580.86,1829.91 577.83,1835.67 575.05,1844.17 570.71,1851.81 570.96,1861.76 566.89,1863.92 562.29,1871.56 561.37,1874.88 561.63,1877.62 563.46,1879.5 560.05,1883.1 558.47,1890.89 555.07,1887.71 549.97,1888.72 545.39,1892.03 544.47,1893.76 545.51,1896.5 542.37,1897.08 540.02,1900.97 532.43,1902.41 526.03,1905.16 524.07,1906.74 523.02,1909.63 520.8,1909.2 518.97,1910.21 515.18,1914.69 513.74,1914.69 513.74,1913.24 513.09,1912.95 511.39,1913.97 511.78,1915.7 509.56,1917.43 505.12,1917.87 498.98,1920.47 497.28,1920.47 497.02,1918.89 495.58,1918.17 489.18,1918.32 481.99,1915.73 461.87,1918.09 442.55,1924.07 425.47,1931.06 410.36,1938.21 398.38,1944.92 376.04,1960.94 371.5,1965.59 363.97,1970.55 354.36,1974.67 346.16,1976.17 321.4,1977.1 308.79,1980.39 303.04,1979.15 301.85,1976.85 302.2,1973.09 297.99,1969.08 287.91,1965.28 280.3,1961.17 276.99,1956.44 276.44,1953.84 274.34,1951.99 257.91,1942.06 246.38,1938.73 222.32,1935.85 208.83,1932.85 199.55,1932.4 200.69,1929.93 199.86,1926.04 194.66,1918.61 180.37,1907.12 176.02,1904.87 167.66,1905.29 163.01,1900.6 161.7,1900.47 161.68,1899.32 158.1,1896.05 158.34,1894.61 155.82,1892.48 157.73,1888.99 155.81,1883.68 155.3,1876.18 147.19,1868.37 146.05,1863.2 142.02,1856.63 142.22,1853.16 144.8,1850.67 142.67,1840.31 137.43,1833.04 133.85,1830.36 129.68,1824.66 117.71,1815.5 112.35,1809.24 110.04,1804.67 107.93,1797.21 107.79,1789 107.09,1786.85 107.75,1764.64 108.47,1760.59 108.4,1756.84 106.59,1751.4 107.21,1749.37 106.23,1746.07 106.1,1738.73 107.41,1738.27 107.06,1733.38 104.71,1727.37 106.26,1725.33 101.86,1715.47 103.54,1713.13 102.71,1711.42 103.73,1709.24 102.77,1707.39 104.06,1705.49 102.05,1703.94 103.98,1700.88 104.06,1698 105.2,1695.39 108.59,1693.46 113.59,1692.65 116.34,1691.16 117.63,1689.41 116.52,1686.12 115.87,1687.14 116.23,1684.68 114.44,1680.68 115.49,1680.23 115.26,1681.96 116.07,1683.39 116.85,1682.37 118.6,1677.01 118.68,1673.7 116.77,1670.27 113.43,1668.32 110.05,1663.77 109.13,1664.22 104.93,1658.39 104.68,1659.11 103.62,1659.13 100.69,1657.75 98.62,1652.74 97.62,1641.39 98.91,1639.35 99,1637.34 96.68,1626.15 97.17,1624.13 94.67,1617.27 83.92,1608.97 80.85,1607.88 80.27,1604.87 78.43,1605.62 75.29,1601.08 73.89,1596.79 64.8,1586.03 62.85,1581.32 60.03,1565.99 54.87,1553.43 52.3,1544.28 52.79,1535.5 50.87,1532.8 48.85,1518.32 44.19,1511.51 45.67,1505.44 43.74,1502.46 45.1,1497.4 48,1495.91 51.09,1496.99 51.93,1499.57" fill="none" stroke="#1e1e1e" stroke-width="1.16" stroke-linecap="round" stroke-linejoin="round"/>
<path d="M201.84,1108.76L201.86,1110.48L201.3,1109.05L201.84,1108.76Z" fill-rule="evenodd" fill="#4682b4" fill-opacity="0.471"/>
<polyline points="201.84,1108.76 201.86,1110.48 201.3,1109.05 201.84,1108.76" fill="none" stroke="#1e1e1e" stroke-width="1.16" stroke-linecap="round" stroke-linejoin="round"/>
<text x="193.71" y="1555.1" font-family="sans-serif" font-size="14" stroke="#ffffff" stroke-opacity="0.784" stroke-width="2.33" stroke-linejoin="round" paint-order="stroke" fill="#141414">Province de Toliara</text>
<text x="395.68" y="683.93" font-family="sans-serif" font-size="14" stroke="#ffffff" stroke-opacity="0.784" stroke-width="2.33" stroke-linejoin="round" paint-order="stroke" fill="#141414">Province de Mahajanga</text>
<text x="409.15" y="1446.97" font-family="sans-serif" font-size="14" stroke="#ffffff" stroke-opacity="0.784" stroke-width="2.33" stroke-linejoin="round" paint-order="stroke" fill="#141414">Province de Fianarantsoa</text>
<text x="693.67" y="870.26" font-family="sans-serif" font-size="14" stroke="#ffffff" stroke-opacity="0.784" stroke-width="2.33" stroke-linejoin="round" paint-order="stroke" fill="#141414">Toamasina Province</text>
<text x="406.66" y="1025.62" font-family="sans-serif" font-size="14" stroke="#ffffff" stroke-opacity="0.784" stroke-width="2.33" stroke-linejoin="round" paint-order="stroke" fill="#141414">Province d’Antananarivo</text>
<text x="788.91" y="304.43" font-family="sans-serif" font-size="14" stroke="#ffffff" stroke-opacity="0.784" stroke-width="2.33" stroke-linejoin="round" paint-order="stroke" fill="#141414">Antsiranana Province</text>
</svg>
