<?xml version="1.0" encoding="UTF-8" standalone="no"?>
<svg xmlns="http://www.w3.org/2000/svg" width="827" height="2000" viewBox="0 0 827 2000">
<rect width="827" height="2000" fill="#ffffff"/>
<polyline points="132.59,115.89 136.09,137.46 136.86,140.23 140.31,145 141.08,147.87 139.79,149.66 131.07,152.32 123.43,156.96 117.89,162.48 114.25,169.84 112.36,180.19 112.45,200.04 111.37,202.63 106.75,207.57 105.67,210.34 105.18,216.14 101.29,232.9 98.79,237.35 93.33,243.68 91.35,255.5 83.85,261.58 80.36,271.97 74.47,276.65 72.5,284.76 65.23,296.36 60.82,311.23 59.61,320.95 52.12,347.7 51.25,358.22 48.84,367.07 48.71,372.52 50.47,378.21 56.06,386.27 57.31,392.48 53.43,406.39 53.87,412.34 58.4,421.07 62.25,434.18 66.55,441.72 66.42,448.1 61.1,462.62 61.09,460.89 59.16,469.51 62.71,493.94 63.01,504.17 58.67,520.08 57.24,531.64 54.99,536.18 42.98,552.94 41.56,556.95 39.98,566.68 31.2,578.81 26.35,588.02 22.68,591.35 11.73,593.84" fill="none" stroke="#1e1e1e" stroke-width="1.41" stroke-linecap="round" stroke-linejoin="round"/>
<polyline points="479.39,30.36 482.49,19.04" fill="none" stroke="#1e1e1e" stroke-width="1.41" stroke-linecap="round" stroke-linejoin="round"/>
<polyline points="20.11,1883.52 23.38,1883.02 27.5,1881.18 33.87,1874.97 40.21,1871.56 43.96,1870.91 51.53,1871.34 66.44,1874.58 74.02,1875.04 77.96,1873.93 85.17,1869.23 89.18,1867.52 94.09,1866.93 104.06,1867.47 113.07,1866.49 124.17,1858.97 135.91,1849.14 139.99,1846.61 152.68,1842.32 170.53,1832.72 174.85,1831.84 184.83,1833.65 189.92,1833.38 196.89,1831.75 203.35,1828.89 208.91,1824.55 216.88,1812.43 222.02,1807.32 228.01,1803.38 234.52,1800.79 242.63,1799.7 267.05,1801.79 271.02,1801.35 284.89,1796.69 294.01,1796.67" fill="none" stroke="#1e1e1e" stroke-width="1.41" stroke-linecap="round" stroke-linejoin="round"/>
<polyline points="737.28,383.62 736.26,384.53 731.59,383.18 727.34,374.12 721.55,368.64 713.02,364.25 676.71,352 666.39,349.78 657.65,351.23 655.94,354.84 646.49,359.55 644.66,363.84 639.83,366.56 637.9,375.37 635.33,380.63 633.19,391.76 633.14,398.38 640.73,403.01 643.02,406.93 648.62,425.46 649.44,431.08 645.92,439.75 648.91,443.87 662.63,454.35 664.13,458.67 660.17,473.85 660.47,489.86 657.81,495.15 658.74,498.48 666.38,505.42 678.21,518.79 680.79,522.72 681.16,526.88 679.03,539.16 686.2,551.77 685.99,555.26 695.82,562.58 696.69,567.11 695.3,571.67 692.22,576.37 693.11,579.13 694.74,580.76 697.06,581.51 703.1,581.85 711.28,579.3 713.46,581 716.54,586.07 719.35,586.98 719.69,582.67 722.39,582.5 730.41,585.15 736.24,581.93 749.91,578.47 752.37,576.88 756.23,568.23 759.02,564.87 762.03,562.92 760.13,557.4 764.66,554.71 777.1,552.52 781.49,549.1 789.29,539.32 792.56,537.08 802.71,539.03 811.29,542.54 815.61,542.51" fill="none" stroke="#1e1e1e" stroke-width="1.41" stroke-linecap="round" stroke-linejoin="round"/>
<polyline points="27.54,1588.9 23.39,1590.24 20.23,1589.6 18.19,1588.15" fill="none" stroke="#1e1e1e" stroke-width="1.41" stroke-linecap="round" stroke-linejoin="round"/>
<polyline points="27.33,1589.13 36.32,1582.63 46.83,1582 56.42,1585.1 61.87,1582.9 73.24,1587.12 90.89,1587.03 97.94,1590.67 108.38,1612.1 120.17,1622.47 122.58,1625.75 127.69,1636.87 139.49,1645.76 153.11,1647.92 156.8,1649.81 171.51,1668.05 183.79,1678.21 193.54,1690.32 199.49,1694.84 206.9,1698.27 209.97,1701 212.02,1710.25 219.7,1719.79 223.16,1728.11 226.37,1730.26 230.51,1731.54 238.62,1732.38 242.15,1734.53 289.8,1792.17 294.6,1795.83 299.05,1800.98 305.99,1812.1 314.27,1822.37 321.65,1834.25 326.28,1838.16 332.37,1841.32 339.53,1842.52 342.37,1843.81 344.45,1850.29 346.31,1853.03 350.24,1853.97 358.85,1851.76 373.14,1854.96 387.35,1866.46 391.19,1869.05 395.51,1870.69 411.71,1871.59 427.79,1874.64 440.92,1878.88 504.66,1914.01 523.03,1919.28 528.67,1922.11 550.45,1940.62 552.49,1943.15 555.92,1950.82 561.79,1976.03 564.07,1979.91" fill="none" stroke="#1e1e1e" stroke-width="1.41" stroke-linecap="round" stroke-linejoin="round"/>
<polyline points="653.6,1380.64 644.72,1363.88 646.14,1328.75 647.49,1320.27 648.84,1316.7" fill="none" stroke="#1e1e1e" stroke-width="1.41" stroke-linecap="round" stroke-linejoin="round"/>
<polyline points="643.78,1290.67 643.75,1298.5 644.7,1300.9 650.56,1302.78 651.84,1306.54 651.55,1309.81 648.84,1316.7" fill="none" stroke="#1e1e1e" stroke-width="1.41" stroke-linecap="round" stroke-linejoin="round"/>
<polyline points="653.6,1380.64 659.36,1386.89 662.05,1397.85 662.54,1409.71 660.08,1430.11 658.45,1435.57 652.17,1440.44 643.16,1455.08 641.61,1463.66 637.26,1472.56 635.77,1479.22 632.17,1488.64 631.35,1493.91 629.46,1498.06 616.33,1510.31 611.52,1518.17 608.42,1521.18 598.62,1523.67 582.83,1532.78 572.7,1534.48 565.93,1540.38 563.64,1541.36 559.61,1547.31 550.63,1573.47 546.91,1579.41 542.75,1580.98 530.87,1588.63 527.99,1591.46 527.42,1595.78 527.96,1611.44 524.64,1616.93 520.96,1618.98 520.89,1622.16 522.63,1627.82 525.31,1656.22 529.82,1672.49 531.64,1684.86 535.16,1691.84 537,1700.42 540.31,1708.69 539.23,1712.7 542.39,1714.43 542.4,1712.71 553.21,1720.84 559.76,1732.55 565.55,1738.8 565,1744.02 569.29,1757.28 564.82,1769.03 565.69,1776.75 567.66,1784.06 569.63,1788.09 578.42,1791.35 585.06,1796.7 605.39,1809.33 608.69,1813.29 615.28,1825.26 620.29,1841.47 626.55,1852.48 638.34,1856.72 641.63,1861.89 645.08,1863.78 651.67,1871.59 652.25,1888.32 653.21,1893.35 658.05,1903.2 659.23,1909.53 653.18,1914.67 652.57,1920 653.07,1929.61 649.63,1933.18 649.77,1934.78 650.88,1935.95 658.66,1940.65 660.11,1942.85 656.26,1950.74 655.95,1954.82 658.03,1964.34 658.34,1969.45 657.7,1973.65 654.57,1980.21" fill="none" stroke="#1e1e1e" stroke-width="1.41" stroke-linecap="round" stroke-linejoin="round"/>
<text x="508.79" y="1689.52" font-family="sans-serif" font-size="14" stroke="#ffffff" stroke-opacity="0.784" stroke-width="2.33" stroke-linejoin="round" paint-order="stroke" fill="#141414">Shire</text>
<text x="251.86" y="1796.83" font-family="sans-serif" font-size="14" stroke="#ffffff" stroke-opacity="0.784" stroke-width="2.33" stroke-linejoin="round" paint-order="stroke" fill="#141414">Zambezi</text>
<text x="13.61" y="360.81" font-family="sans-serif" font-size="14" stroke="#ffffff" stroke-opacity="0.784" stroke-width="2.33" stroke-linejoin="round" paint-order="stroke" fill="#141414">Luangwa</text>
<text x="623.62" y="501.05" font-family="sans-serif" font-size="14" stroke="#ffffff" stroke-opacity="0.784" stroke-width="2.33" stroke-linejoin="round" paint-order="stroke" fill="#141414">Ruvuma</text>
<text x="130.11" y="1846.67" font-family="sans-serif" font-size="14" stroke="#ffffff" stroke-opacity="0.784" stroke-width="2.33" stroke-linejoin="round" paint-order="stroke" fill="#141414">Mazoe</text>
<text x="622.63" y="1356.66" font-family="sans-serif" font-size="14" stroke="#ffffff" stroke-opacity="0.784" stroke-width="2.33" stroke-linejoin="round" paint-order="stroke" fill="#141414">Shire</text>
<text x="423.81" y="31.65" font-family="sans-serif" font-size="14" stroke="#ffffff" stroke-opacity="0.784" stroke-width="2.33" stroke-linejoin="round" paint-order="stroke" fill="#141414">Great Ruaha</text>
<text x="2" y="1597.11" font-family="sans-serif" font-size="14" stroke="#ffffff" stroke-opacity="0.784" stroke-width="2.33" stroke-linejoin="round" paint-order="stroke" fill="#141414">Zambezi</text>
</svg>
