<?xml version="1.0" encoding="UTF-8" standalone="no"?>
<svg xmlns="http://www.w3.org/2000/svg" width="272" height="2000" viewBox="0 0 272 2000">
<rect width="272" height="2000" fill="#ffffff"/>
<polyline points="201.77,764.62 205.37,765.06 205.26,766.74 201.1,767.19 201.77,764.62" fill="none" stroke="#1e1e1e" stroke-width="1.41" stroke-linecap="round" stroke-linejoin="round"/>
<polyline points="111.48,515.55 110.26,515.24 110.04,514.43 111.16,514.55 111.48,515.55" fill="none" stroke="#1e1e1e" stroke-width="1.41" stroke-linecap="round" stroke-linejoin="round"/>
<polyline points="66,564.29 67.41,563.76 67.88,564.63 66.01,565.27 66,564.29" fill="none" stroke="#1e1e1e" stroke-width="1.41" stroke-linecap="round" stroke-linejoin="round"/>
<polyline points="88.64,406.42 87.31,405.87 87.85,404.79 88.64,406.42" fill="none" stroke="#1e1e1e" stroke-width="1.41" stroke-linecap="round" stroke-linejoin="round"/>
<polyline points="92,434.88 90.41,434.11 91.93,433.75 92,434.88" fill="none" stroke="#1e1e1e" stroke-width="1.41" stroke-linecap="round" stroke-linejoin="round"/>
<polyline points="57.86,195.82 54.26,195.93 53.47,195.13 57.8,194.1 57.86,195.82" fill="none" stroke="#1e1e1e" stroke-width="1.41" stroke-linecap="round" stroke-linejoin="round"/>
<polyline points="91.01,452.3 87.9,451.45 90.36,451.46 91.01,452.3" fill="none" stroke="#1e1e1e" stroke-width="1.41" stroke-linecap="round" stroke-linejoin="round"/>
<polyline points="169.84,457.89 169.23,456.04 170.1,454.24 169.84,457.89" fill="none" stroke="#1e1e1e" stroke-width="1.41" stroke-linecap="round" stroke-linejoin="round"/>
<polyline points="134.77,247.74 135.67,247.57 135.58,246.97 136.23,247.84 135.71,245.94 134.71,246.31 135.48,245.44 136.69,247.43 136.2,248.83 134.3,247.93 134.77,246.64 134.77,247.74" fill="none" stroke="#1e1e1e" stroke-width="1.41" stroke-linecap="round" stroke-linejoin="round"/>
<polyline points="100.37,168.12 99.32,165.49 100.5,163.38 101.94,166.68 100.37,168.12" fill="none" stroke="#1e1e1e" stroke-width="1.41" stroke-linecap="round" stroke-linejoin="round"/>
<polyline points="80.17,122.85 78.85,120.96 80.5,122 80.17,122.85" fill="none" stroke="#1e1e1e" stroke-width="1.41" stroke-linecap="round" stroke-linejoin="round"/>
<polyline points="195.32,366.87 195.94,364.05 196.56,365.2 195.85,367.99 190.64,372.04 190.05,371.81 195.32,366.87" fill="none" stroke="#1e1e1e" stroke-width="1.41" stroke-linecap="round" stroke-linejoin="round"/>
<polyline points="87.14,397.56 86.11,396.75 86.56,394.39 87.14,397.56" fill="none" stroke="#1e1e1e" stroke-width="1.41" stroke-linecap="round" stroke-linejoin="round"/>
<polyline points="109.02,112.89 107.55,113.44 105.15,111.52 105.33,110.3 108.05,110.1 109.02,112.89" fill="none" stroke="#1e1e1e" stroke-width="1.41" stroke-linecap="round" stroke-linejoin="round"/>
<polyline points="62.85,170.4 60.35,170.35 62.85,170.4" fill="none" stroke="#1e1e1e" stroke-width="1.41" stroke-linecap="round" stroke-linejoin="round"/>
<polyline points="161.17,479.24 160.29,478.61 165.88,477 161.17,479.24" fill="none" stroke="#1e1e1e" stroke-width="1.41" stroke-linecap="round" stroke-linejoin="round"/>
<polyline points="153.54,326.33 152.61,325.58 153.82,324.88 154.26,325.59 153.54,326.33" fill="none" stroke="#1e1e1e" stroke-width="1.41" stroke-linecap="round" stroke-linejoin="round"/>
<polyline points="147.38,407.56 146.4,407.66 145.27,405.72 146.98,405.83 147.38,407.56" fill="none" stroke="#1e1e1e" stroke-width="1.41" stroke-linecap="round" stroke-linejoin="round"/>
<polyline points="172.48,453.05 172.37,452.16 174.83,450.54 172.48,453.05" fill="none" stroke="#1e1e1e" stroke-width="1.41" stroke-linecap="round" stroke-linejoin="round"/>
<polyline points="92.02,421.57 90.35,420.33 92.04,419.7 92.02,421.57" fill="none" stroke="#1e1e1e" stroke-width="1.41" stroke-linecap="round" stroke-linejoin="round"/>
<polyline points="89.85,459.17 85.99,458.58 88.37,458.16 89.85,459.17" fill="none" stroke="#1e1e1e" stroke-width="1.41" stroke-linecap="round" stroke-linejoin="round"/>
<polyline points="237.88,485.66 236.59,486.62 237.53,483.86 237.88,485.66" fill="none" stroke="#1e1e1e" stroke-width="1.41" stroke-linecap="round" stroke-linejoin="round"/>
<polyline points="168.26,380.25 167.15,379.91 167.12,379 168.44,379.21 168.26,380.25" fill="none" stroke="#1e1e1e" stroke-width="1.41" stroke-linecap="round" stroke-linejoin="round"/>
<polyline points="58.8,95.53 57.78,94.64 57.46,91.91 58.8,95.53" fill="none" stroke="#1e1e1e" stroke-width="1.41" stroke-linecap="round" stroke-linejoin="round"/>
<polyline points="75.85,196.07 74.24,194.45 75.28,193.28 76.85,193.14 77.71,194.97 75.85,196.07" fill="none" stroke="#1e1e1e" stroke-width="1.41" stroke-linecap="round" stroke-linejoin="round"/>
<polyline points="133.38,262.73 132.52,262.23 132.83,260.99 133.86,261.69 133.38,262.73" fill="none" stroke="#1e1e1e" stroke-width="1.41" stroke-linecap="round" stroke-linejoin="round"/>
<polyline points="94.05,123.33 92.66,121.88 93.49,120.44 93.24,121.91 94.05,123.33" fill="none" stroke="#1e1e1e" stroke-width="1.41" stroke-linecap="round" stroke-linejoin="round"/>
<polyline points="179.89,396.57 180.32,392.67 180.8,394.78 179.89,396.57" fill="none" stroke="#1e1e1e" stroke-width="1.41" stroke-linecap="round" stroke-linejoin="round"/>
<polyline points="141.34,285.15 141.21,287.03 140.39,285.72 141.34,285.15" fill="none" stroke="#1e1e1e" stroke-width="1.41" stroke-linecap="round" stroke-linejoin="round"/>
<polyline points="8.89,228.35 9.84,225.95 11.53,225.27 10.81,227.19 8.89,228.44" fill="none" stroke="#1e1e1e" stroke-width="1.41" stroke-linecap="round" stroke-linejoin="round"/>
<polyline points="150.91,288.8 151.38,291.49 150.64,292.18 149.4,287.8 150.01,284.78 150.89,291.03 150.91,288.8" fill="none" stroke="#1e1e1e" stroke-width="1.41" stroke-linecap="round" stroke-linejoin="round"/>
<polyline points="80.15,165.82 79.51,164.23 80.8,164.79 80.15,165.82" fill="none" stroke="#1e1e1e" stroke-width="1.41" stroke-linecap="round" stroke-linejoin="round"/>
<polyline points="65.87,167.61 64.88,167.19 64.96,166.05 66.43,166.56 65.87,167.61" fill="none" stroke="#1e1e1e" stroke-width="1.41" stroke-linecap="round" stroke-linejoin="round"/>
<polyline points="82.83,376.6 81.85,376.05 82.16,374.56 82.83,376.6" fill="none" stroke="#1e1e1e" stroke-width="1.41" stroke-linecap="round" stroke-linejoin="round"/>
<polyline points="55.13,87.27 57.13,89.07 55.96,90.15 56.83,93.09 55.18,90.5 55.46,88.52 53.48,87.21 55.13,87.27" fill="none" stroke="#1e1e1e" stroke-width="1.41" stroke-linecap="round" stroke-linejoin="round"/>
<polyline points="149.53,317.2 148.6,317.41 148.18,316.58 149.26,316.21 149.53,317.2" fill="none" stroke="#1e1e1e" stroke-width="1.41" stroke-linecap="round" stroke-linejoin="round"/>
<polyline points="236.4,474.97 236.42,470.99 234.15,464.19 236.76,469.69 236.4,474.97" fill="none" stroke="#1e1e1e" stroke-width="1.41" stroke-linecap="round" stroke-linejoin="round"/>
<polyline points="120.03,109.42 117.07,109.27 120.8,107.95 120.03,109.42" fill="none" stroke="#1e1e1e" stroke-width="1.41" stroke-linecap="round" stroke-linejoin="round"/>
<polyline points="100.69,540.56 98.78,539.85 98.18,538.76 100.69,540.56" fill="none" stroke="#1e1e1e" stroke-width="1.41" stroke-linecap="round" stroke-linejoin="round"/>
<polyline points="111.34,139.37 109.34,138.07 109.35,135.67 111.34,139.37" fill="none" stroke="#1e1e1e" stroke-width="1.41" stroke-linecap="round" stroke-linejoin="round"/>
<polyline points="106.92,124.09 107.96,123.25 108.69,124.6 107.62,124.96 106.92,124.09" fill="none" stroke="#1e1e1e" stroke-width="1.41" stroke-linecap="round" stroke-linejoin="round"/>
<polyline points="145.61,269.81 143.97,269.94 144.88,267.69 146.01,268.43 145.61,269.81" fill="none" stroke="#1e1e1e" stroke-width="1.41" stroke-linecap="round" stroke-linejoin="round"/>
<polyline points="71.57,192.82 68.57,193.72 67.6,193.02 70.59,192.18 71.57,192.82" fill="none" stroke="#1e1e1e" stroke-width="1.41" stroke-linecap="round" stroke-linejoin="round"/>
<polyline points="192.59,355.58 191.59,354.49 192.74,352.8 193.93,354.37 192.59,355.58" fill="none" stroke="#1e1e1e" stroke-width="1.41" stroke-linecap="round" stroke-linejoin="round"/>
<polyline points="63.31,222.89 61.96,222.28 64.47,220.84 65.96,221.28 63.31,222.89" fill="none" stroke="#1e1e1e" stroke-width="1.41" stroke-linecap="round" stroke-linejoin="round"/>
<polyline points="116.55,247.89 115.6,246.91 117.32,245.72 117.4,247.07 116.55,247.89" fill="none" stroke="#1e1e1e" stroke-width="1.41" stroke-linecap="round" stroke-linejoin="round"/>
<polyline points="120.87,122.39 121.18,124.49 120.22,122.69 120.87,122.39" fill="none" stroke="#1e1e1e" stroke-width="1.41" stroke-linecap="round" stroke-linejoin="round"/>
<polyline points="182.9,480.86 181.45,480.81 178.93,477.76 182.9,480.86" fill="none" stroke="#1e1e1e" stroke-width="1.41" stroke-linecap="round" stroke-linejoin="round"/>
<polyline points="95.93,275.45 95.05,275.82 94.63,275.17 95.69,274.24 95.93,275.45" fill="none" stroke="#1e1e1e" stroke-width="1.41" stroke-linecap="round" stroke-linejoin="round"/>
<polyline points="92.1,426.96 90.76,425.92 92.08,425 92.1,426.96" fill="none" stroke="#1e1e1e" stroke-width="1.41" stroke-linecap="round" stroke-linejoin="round"/>
<polyline points="98.32,220.69 96.48,221.18 98.03,220.14 98.32,220.69" fill="none" stroke="#1e1e1e" stroke-width="1.41" stroke-linecap="round" stroke-linejoin="round"/>
<polyline points="62.65,565.65 61.57,565.64 62.01,564.15 62.82,564.44 62.65,565.65" fill="none" stroke="#1e1e1e" stroke-width="1.41" stroke-linecap="round" stroke-linejoin="round"/>
<polyline points="99.07,542.63 96.57,541.7 98.01,541.41 99.07,542.63" fill="none" stroke="#1e1e1e" stroke-width="1.41" stroke-linecap="round" stroke-linejoin="round"/>
<polyline points="55.33,164.77 55.39,163.45 57.47,163.88 60.73,162.74 58.2,164.42 55.33,164.77" fill="none" stroke="#1e1e1e" stroke-width="1.41" stroke-linecap="round" stroke-linejoin="round"/>
<polyline points="178.72,333.24 183.58,341.54 177.34,332.86 178.72,333.24" fill="none" stroke="#1e1e1e" stroke-width="1.41" stroke-linecap="round" stroke-linejoin="round"/>
<polyline points="159.19,329.88 157.91,329.85 158.06,328.88 159.19,329.88" fill="none" stroke="#1e1e1e" stroke-width="1.41" stroke-linecap="round" stroke-linejoin="round"/>
<polyline points="171.95,370.98 170.65,369.28 171.86,369.47 171.95,370.98" fill="none" stroke="#1e1e1e" stroke-width="1.41" stroke-linecap="round" stroke-linejoin="round"/>
<polyline points="87.61,167.72 86.68,166.92 87.05,165.84 88.15,166.55 87.61,167.72" fill="none" stroke="#1e1e1e" stroke-width="1.41" stroke-linecap="round" stroke-linejoin="round"/>
<polyline points="94.22,147.32 92.59,145.97 92.97,143.94 94.76,145.59 94.22,147.32" fill="none" stroke="#1e1e1e" stroke-width="1.41" stroke-linecap="round" stroke-linejoin="round"/>
<polyline points="168.1,391.85 165.93,389.06 167.29,389.49 168.1,391.85" fill="none" stroke="#1e1e1e" stroke-width="1.41" stroke-linecap="round" stroke-linejoin="round"/>
<polyline points="84.19,125.07 82.67,123.72 83.12,122.67 84.26,123.19 84.19,125.07" fill="none" stroke="#1e1e1e" stroke-width="1.41" stroke-linecap="round" stroke-linejoin="round"/>
<polyline points="136.02,115.62 134.55,115.23 133.76,113.18 135.55,113.31 136.91,110.78 136.7,104.12 134.2,103.39 135.96,102.63 136.97,103.13 137.4,108.11 137.16,113.88 136.02,115.62" fill="none" stroke="#1e1e1e" stroke-width="1.41" stroke-linecap="round" stroke-linejoin="round"/>
<polyline points="62.04,61.68 64.76,65.23 63.54,66.42 62.41,62.39 61.15,61.81 62.04,61.68" fill="none" stroke="#1e1e1e" stroke-width="1.41" stroke-linecap="round" stroke-linejoin="round"/>
<polyline points="58.88,220.21 60.18,218.48 62.47,219.18 61.15,220.11 58.88,220.21" fill="none" stroke="#1e1e1e" stroke-width="1.41" stroke-linecap="round" stroke-linejoin="round"/>
<polyline points="83.64,181.61 82.19,180.47 82.3,178.83 83.84,179.82 83.64,181.61" fill="none" stroke="#1e1e1e" stroke-width="1.41" stroke-linecap="round" stroke-linejoin="round"/>
<polyline points="138.39,254.04 140.7,258.18 139.04,258.75 138.39,254.04" fill="none" stroke="#1e1e1e" stroke-width="1.41" stroke-linecap="round" stroke-linejoin="round"/>
<polyline points="122.49,372.08 121.83,373.5 120.89,371.75 122.49,372.08" fill="none" stroke="#1e1e1e" stroke-width="1.41" stroke-linecap="round" stroke-linejoin="round"/>
<polyline points="180.86,383.02 178.54,382.86 177.98,380.7 180.99,381.62 180.86,383.02" fill="none" stroke="#1e1e1e" stroke-width="1.41" stroke-linecap="round" stroke-linejoin="round"/>
<polyline points="197.74,493.28 195.7,492.36 197.3,492.17 197.74,493.28" fill="none" stroke="#1e1e1e" stroke-width="1.41" stroke-linecap="round" stroke-linejoin="round"/>
<polyline points="75.7,244.78 72.88,245.44 75.63,242.88 75.7,244.78" fill="none" stroke="#1e1e1e" stroke-width="1.41" stroke-linecap="round" stroke-linejoin="round"/>
<polyline points="91.51,439.22 89.44,438.27 91.99,438.38 91.51,439.22" fill="none" stroke="#1e1e1e" stroke-width="1.41" stroke-linecap="round" stroke-linejoin="round"/>
<polyline points="87.49,151.22 86.19,151.21 86.1,149.73 87.49,151.22" fill="none" stroke="#1e1e1e" stroke-width="1.41" stroke-linecap="round" stroke-linejoin="round"/>
<polyline points="118.75,126.93 117.1,125.62 117.62,124.1 120.06,126.03 118.75,126.93" fill="none" stroke="#1e1e1e" stroke-width="1.41" stroke-linecap="round" stroke-linejoin="round"/>
<polyline points="65.23,146.39 64.46,145.76 65.63,144.26 65.23,146.39" fill="none" stroke="#1e1e1e" stroke-width="1.41" stroke-linecap="round" stroke-linejoin="round"/>
<polyline points="90.44,455.71 87.68,454.72 90.21,454.69 90.44,455.71" fill="none" stroke="#1e1e1e" stroke-width="1.41" stroke-linecap="round" stroke-linejoin="round"/>
<polyline points="116.92,257.9 116.21,256.9 117.1,256.17 117.84,257.11 116.92,257.9" fill="none" stroke="#1e1e1e" stroke-width="1.41" stroke-linecap="round" stroke-linejoin="round"/>
<polyline points="237.53,481.49 237.33,477.52 238.02,480.87 238.72,478.32 238.61,480.43 237.53,481.49" fill="none" stroke="#1e1e1e" stroke-width="1.41" stroke-linecap="round" stroke-linejoin="round"/>
<polyline points="163.2,382.39 162.6,380.38 164.07,381.66 163.2,382.39" fill="none" stroke="#1e1e1e" stroke-width="1.41" stroke-linecap="round" stroke-linejoin="round"/>
<polyline points="89.1,278.27 86.89,278.36 88.96,277.52 89.1,278.27" fill="none" stroke="#1e1e1e" stroke-width="1.41" stroke-linecap="round" stroke-linejoin="round"/>
<polyline points="190.55,350.74 189.57,347.69 191.03,349.64 190.55,350.74" fill="none" stroke="#1e1e1e" stroke-width="1.41" stroke-linecap="round" stroke-linejoin="round"/>
<polyline points="121.14,147.02 118.09,150.19 116.25,150.26 118.9,149.17 121.15,144.96 122.28,140.45 124.81,138.09 124.99,139.62 121.14,147.02" fill="none" stroke="#1e1e1e" stroke-width="1.41" stroke-linecap="round" stroke-linejoin="round"/>
<polyline points="131.18,242.59 129.96,241.7 130.21,240.25 132.41,241.02 131.18,242.59" fill="none" stroke="#1e1e1e" stroke-width="1.41" stroke-linecap="round" stroke-linejoin="round"/>
<polyline points="91.36,416.58 89.89,415.4 90.72,413.2 91.36,416.58" fill="none" stroke="#1e1e1e" stroke-width="1.41" stroke-linecap="round" stroke-linejoin="round"/>
<polyline points="107.48,162.14 109.16,158.74 108.39,155.89 110.51,154.52 110.48,158.05 107.48,162.14" fill="none" stroke="#1e1e1e" stroke-width="1.41" stroke-linecap="round" stroke-linejoin="round"/>
<polyline points="149.81,302.02 148.87,301.7 149.89,300.62 149.31,299.78 148.57,300.27 148.75,299.36 150.54,300.24 149.81,302.02" fill="none" stroke="#1e1e1e" stroke-width="1.41" stroke-linecap="round" stroke-linejoin="round"/>
<polyline points="169.33,460 166.99,460.56 168.45,457.38 169.33,460" fill="none" stroke="#1e1e1e" stroke-width="1.41" stroke-linecap="round" stroke-linejoin="round"/>
<polyline points="152.93,278.08 150.88,282.98 152.41,278.48 151.78,276.63 152.93,278.08" fill="none" stroke="#1e1e1e" stroke-width="1.41" stroke-linecap="round" stroke-linejoin="round"/>
<polyline points="172.45,406.61 173.43,403.95 174.57,404.54 172.45,406.61" fill="none" stroke="#1e1e1e" stroke-width="1.41" stroke-linecap="round" stroke-linejoin="round"/>
<polyline points="98.04,177.87 96.41,177.29 96.32,175.82 95.86,176.37 95.9,172.62 98.79,174.43 98.04,177.87" fill="none" stroke="#1e1e1e" stroke-width="1.41" stroke-linecap="round" stroke-linejoin="round"/>
<polyline points="93.89,201.93 92.89,200.9 94.52,200.78 93.89,201.93" fill="none" stroke="#1e1e1e" stroke-width="1.41" stroke-linecap="round" stroke-linejoin="round"/>
<polyline points="169.65,334.6 168.27,333.45 169.78,333.71 169.65,334.6" fill="none" stroke="#1e1e1e" stroke-width="1.41" stroke-linecap="round" stroke-linejoin="round"/>
<polyline points="108.27,324.42 106.74,323.81 107.76,323.32 108.27,324.42" fill="none" stroke="#1e1e1e" stroke-width="1.41" stroke-linecap="round" stroke-linejoin="round"/>
<polyline points="43.64,562.08 41.87,561.5 41.68,560.57 43.64,562.08" fill="none" stroke="#1e1e1e" stroke-width="1.41" stroke-linecap="round" stroke-linejoin="round"/>
<polyline points="79.25,362.08 78.15,358.9 79.22,359.88 79.25,362.08" fill="none" stroke="#1e1e1e" stroke-width="1.41" stroke-linecap="round" stroke-linejoin="round"/>
<polyline points="92.63,239.82 91.39,238.69 93.26,237.49 93.74,238.7 92.63,239.82" fill="none" stroke="#1e1e1e" stroke-width="1.41" stroke-linecap="round" stroke-linejoin="round"/>
<polyline points="82.19,372.8 81.03,372.5 81.24,371.04 82.19,372.8" fill="none" stroke="#1e1e1e" stroke-width="1.41" stroke-linecap="round" stroke-linejoin="round"/>
<polyline points="106.83,254.21 105.9,252.73 107.44,251.22 108.21,252.15 106.83,254.21" fill="none" stroke="#1e1e1e" stroke-width="1.41" stroke-linecap="round" stroke-linejoin="round"/>
<polyline points="193.74,434.12 190.75,435.08 193.74,434.12" fill="none" stroke="#1e1e1e" stroke-width="1.41" stroke-linecap="round" stroke-linejoin="round"/>
<polyline points="63.72,96.4 62.23,96.08 62.6,93.77 63.63,93.64 63.72,96.4" fill="none" stroke="#1e1e1e" stroke-width="1.41" stroke-linecap="round" stroke-linejoin="round"/>
<polyline points="76.93,121.02 76.48,119.74 77.29,118.75 77.78,119.47 76.93,121.02" fill="none" stroke="#1e1e1e" stroke-width="1.41" stroke-linecap="round" stroke-linejoin="round"/>
<polyline points="113.27,528.43 113.14,529.87 110.56,528.28 113.27,528.43" fill="none" stroke="#1e1e1e" stroke-width="1.41" stroke-linecap="round" stroke-linejoin="round"/>
<polyline points="70.3,334.36 68.32,333.33 70.18,332.68 70.3,334.36" fill="none" stroke="#1e1e1e" stroke-width="1.41" stroke-linecap="round" stroke-linejoin="round"/>
<polyline points="89.3,148.35 88.26,145.68 89.65,147.19 89.3,148.35" fill="none" stroke="#1e1e1e" stroke-width="1.41" stroke-linecap="round" stroke-linejoin="round"/>
<polyline points="68.79,153.02 67.71,153.57 67.72,152.26 68.79,153.02" fill="none" stroke="#1e1e1e" stroke-width="1.41" stroke-linecap="round" stroke-linejoin="round"/>
<polyline points="84.37,383.9 83.1,382.65 83.62,380.22 84.37,383.9" fill="none" stroke="#1e1e1e" stroke-width="1.41" stroke-linecap="round" stroke-linejoin="round"/>
<polyline points="78.67,78.07 81.45,81.02 80.98,83.17 80.05,82.84 78.67,78.07" fill="none" stroke="#1e1e1e" stroke-width="1.41" stroke-linecap="round" stroke-linejoin="round"/>
<polyline points="128.26,129.59 129.62,127.98 129.8,129.32 128.85,129.13 130.68,128.96 131.16,127.53 130.13,127.09 131.09,126.17 133.05,127.26 130.82,130.8 128.26,129.59" fill="none" stroke="#1e1e1e" stroke-width="1.41" stroke-linecap="round" stroke-linejoin="round"/>
<polyline points="77.31,745.01 74.4,745.37 72.76,744.6 77.31,745.01" fill="none" stroke="#1e1e1e" stroke-width="1.41" stroke-linecap="round" stroke-linejoin="round"/>
<polyline points="224.32,727.9 225.45,726.34 226.14,726.9 225.64,728.4 224.32,727.9" fill="none" stroke="#1e1e1e" stroke-width="1.41" stroke-linecap="round" stroke-linejoin="round"/>
<polyline points="219.15,733.73 218.32,734.41 216.67,734.07 218.02,732.51 219.15,733.73" fill="none" stroke="#1e1e1e" stroke-width="1.41" stroke-linecap="round" stroke-linejoin="round"/>
<polyline points="11.61,881.1 10.56,882.01 10.36,879.06 11.61,881.1" fill="none" stroke="#1e1e1e" stroke-width="1.41" stroke-linecap="round" stroke-linejoin="round"/>
<polyline points="190.22,579.51 188.3,577.73 190.64,577.18 192.56,574.81 193.63,575.26 193.69,577.35 190.22,579.51" fill="none" stroke="#1e1e1e" stroke-width="1.41" stroke-linecap="round" stroke-linejoin="round"/>
<polyline points="234.1,1028.27 234.2,1026.27 235.07,1027.07 234.1,1028.27" fill="none" stroke="#1e1e1e" stroke-width="1.41" stroke-linecap="round" stroke-linejoin="round"/>
<polyline points="71.52,1028.78 72.72,1029.28 72.29,1030.14 68.26,1031.3 71.52,1028.78" fill="none" stroke="#1e1e1e" stroke-width="1.41" stroke-linecap="round" stroke-linejoin="round"/>
<polyline points="252.69,699.57 253.17,697.06 253.42,698.77 252.69,699.57" fill="none" stroke="#1e1e1e" stroke-width="1.41" stroke-linecap="round" stroke-linejoin="round"/>
<polyline points="193.4,832.48 191.56,831.64 193.04,830.43 193.96,831.47 193.4,832.48" fill="none" stroke="#1e1e1e" stroke-width="1.41" stroke-linecap="round" stroke-linejoin="round"/>
<polyline points="59.21,926.03 64.41,918.48 59.21,926.03" fill="none" stroke="#1e1e1e" stroke-width="1.41" stroke-linecap="round" stroke-linejoin="round"/>
<polyline points="63.93,1033.82 61.25,1033.97 63.93,1033.82" fill="none" stroke="#1e1e1e" stroke-width="1.41" stroke-linecap="round" stroke-linejoin="round"/>
<polyline points="169.66,685.5 169.45,684.88 169.03,685.91 168.93,681.72 170.22,682.66 169.66,685.5" fill="none" stroke="#1e1e1e" stroke-width="1.41" stroke-linecap="round" stroke-linejoin="round"/>
<polyline points="54.76,1036.18 52.7,1035.09 52.71,1034.37 54.33,1033.84 54.76,1036.18" fill="none" stroke="#1e1e1e" stroke-width="1.41" stroke-linecap="round" stroke-linejoin="round"/>
<polyline points="72.01,704.22 69.38,702.6 70.27,700.96 72.45,701.63 72.01,704.22" fill="none" stroke="#1e1e1e" stroke-width="1.41" stroke-linecap="round" stroke-linejoin="round"/>
<polyline points="197.37,823.24 198.8,820.86 199.57,821 197.37,823.24" fill="none" stroke="#1e1e1e" stroke-width="1.41" stroke-linecap="round" stroke-linejoin="round"/>
<polyline points="197.8,766.88 196.63,766.29 196.98,765.2 198.16,765.88 197.8,766.88" fill="none" stroke="#1e1e1e" stroke-width="1.41" stroke-linecap="round" stroke-linejoin="round"/>
<polyline points="238.02,718.13 234.54,718.52 237.31,716.92 238.02,718.13" fill="none" stroke="#1e1e1e" stroke-width="1.41" stroke-linecap="round" stroke-linejoin="round"/>
<polyline points="115.06,1241 114.13,1240.65 114.94,1239.44 118.82,1237.76 115.06,1241" fill="none" stroke="#1e1e1e" stroke-width="1.41" stroke-linecap="round" stroke-linejoin="round"/>
<polyline points="214.29,1264.45 213.38,1261.44 218.34,1260.09 221.63,1257.84 221.22,1260.27 214.29,1264.45" fill="none" stroke="#1e1e1e" stroke-width="1.41" stroke-linecap="round" stroke-linejoin="round"/>
<polyline points="100.32,1248.87 98.84,1248.62 100.44,1247.12 100.32,1248.87" fill="none" stroke="#1e1e1e" stroke-width="1.41" stroke-linecap="round" stroke-linejoin="round"/>
<polyline points="222.15,1063.19 219.97,1061.54 220.77,1060.27 222.44,1062.01 222.15,1063.19" fill="none" stroke="#1e1e1e" stroke-width="1.41" stroke-linecap="round" stroke-linejoin="round"/>
<polyline points="208.73,1322.14 206.03,1319.37 207.14,1319.8 206.38,1319.23 208.17,1317.77 209.67,1313.75 210.76,1302.38 210.86,1303.61 213.02,1304.5 213.68,1307.33 208.27,1318.77 208.73,1322.14" fill="none" stroke="#1e1e1e" stroke-width="1.41" stroke-linecap="round" stroke-linejoin="round"/>
<polyline points="189.57,1334.05 187.92,1334 187.54,1332.95 191.35,1331.66 189.57,1334.05" fill="none" stroke="#1e1e1e" stroke-width="1.41" stroke-linecap="round" stroke-linejoin="round"/>
<polyline points="83.42,1113.68 82.61,1113.38 84.1,1112.52 85.52,1108.75 85.39,1110.6 83.42,1113.68" fill="none" stroke="#1e1e1e" stroke-width="1.41" stroke-linecap="round" stroke-linejoin="round"/>
<polyline points="96.68,1250.38 95.55,1249.22 97.36,1247.51 98.14,1248.59 96.68,1250.38" fill="none" stroke="#1e1e1e" stroke-width="1.41" stroke-linecap="round" stroke-linejoin="round"/>
<polyline points="181.88,1104.22 183.63,1099 183.1,1103.76 181.88,1104.22" fill="none" stroke="#1e1e1e" stroke-width="1.41" stroke-linecap="round" stroke-linejoin="round"/>
<polyline points="167.25,1342.52 169.45,1340.72 170.35,1341.47 171.02,1340.68 171.45,1341.61 170.05,1343.08 167.25,1342.52" fill="none" stroke="#1e1e1e" stroke-width="1.41" stroke-linecap="round" stroke-linejoin="round"/>
<polyline points="171.67,1342.91 172.16,1339.7 173.68,1341.24 171.67,1342.91" fill="none" stroke="#1e1e1e" stroke-width="1.41" stroke-linecap="round" stroke-linejoin="round"/>
<polyline points="225.76,1058 224.48,1060.88 224.82,1058.55 225.76,1058" fill="none" stroke="#1e1e1e" stroke-width="1.41" stroke-linecap="round" stroke-linejoin="round"/>
<polyline points="210.85,1269.33 211.75,1264.96 212.59,1266.31 210.85,1269.33" fill="none" stroke="#1e1e1e" stroke-width="1.41" stroke-linecap="round" stroke-linejoin="round"/>
<polyline points="210.32,1299.37 209.84,1295.58 211.58,1296.93 211.57,1298.98 210.32,1299.37" fill="none" stroke="#1e1e1e" stroke-width="1.41" stroke-linecap="round" stroke-linejoin="round"/>
<polyline points="104.3,1245.52 103.15,1246.26 102.21,1245.62 102.91,1243.74 104.3,1245.52" fill="none" stroke="#1e1e1e" stroke-width="1.41" stroke-linecap="round" stroke-linejoin="round"/>
<polyline points="139.79,1316.54 139.64,1318.32 137.83,1317.11 139.79,1316.54" fill="none" stroke="#1e1e1e" stroke-width="1.41" stroke-linecap="round" stroke-linejoin="round"/>
<polyline points="156.52,1212.09 156.95,1210.89 158.6,1211.44 156.52,1212.09" fill="none" stroke="#1e1e1e" stroke-width="1.41" stroke-linecap="round" stroke-linejoin="round"/>
<polyline points="85.82,1250.18 85.08,1248.66 87.36,1248.72 87.61,1249.28 85.82,1250.18" fill="none" stroke="#1e1e1e" stroke-width="1.41" stroke-linecap="round" stroke-linejoin="round"/>
<polyline points="61.23,1214.53 59.99,1214.16 60.48,1210.5 61.23,1214.53" fill="none" stroke="#1e1e1e" stroke-width="1.41" stroke-linecap="round" stroke-linejoin="round"/>
<polyline points="52.49,1127.97 56,1127.39 55.43,1129.6 50.9,1129.14 53.93,1129.13 52.49,1127.97" fill="none" stroke="#1e1e1e" stroke-width="1.41" stroke-linecap="round" stroke-linejoin="round"/>
<polyline points="107.61,1154.83 105.99,1155.48 104.54,1155.1 107.61,1154.83" fill="none" stroke="#1e1e1e" stroke-width="1.41" stroke-linecap="round" stroke-linejoin="round"/>
<polyline points="173.33,1340.26 171.87,1339.41 174.09,1337.49 176.12,1338.23 173.33,1340.26" fill="none" stroke="#1e1e1e" stroke-width="1.41" stroke-linecap="round" stroke-linejoin="round"/>
<polyline points="167.54,1198.46 166.72,1188.22 164.27,1182.66 166.46,1186.69 168.32,1193.72 167.54,1198.46" fill="none" stroke="#1e1e1e" stroke-width="1.41" stroke-linecap="round" stroke-linejoin="round"/>
<polyline points="219.68,1070.14 220,1067.04 221.29,1066.72 221.11,1072.17 220.91,1070.75 219.68,1070.14" fill="none" stroke="#1e1e1e" stroke-width="1.41" stroke-linecap="round" stroke-linejoin="round"/>
<polyline points="208.74,1284.25 208.18,1281.95 209.02,1280.94 209.55,1281.41 208.29,1282.5 208.9,1282.97 208.63,1281.68 209.66,1283.64 208.74,1284.25" fill="none" stroke="#1e1e1e" stroke-width="1.41" stroke-linecap="round" stroke-linejoin="round"/>
<polyline points="165.89,1204.99 164.98,1204.18 166.61,1202.43 166.93,1203.76 165.89,1204.99" fill="none" stroke="#1e1e1e" stroke-width="1.41" stroke-linecap="round" stroke-linejoin="round"/>
<polyline points="108.33,1243.98 105.75,1241.15 109.08,1243.28 108.33,1243.98" fill="none" stroke="#1e1e1e" stroke-width="1.41" stroke-linecap="round" stroke-linejoin="round"/>
<polyline points="155.07,1169.85 154.01,1168.31 154.28,1167.44 155.67,1168.6 155.07,1169.85" fill="none" stroke="#1e1e1e" stroke-width="1.41" stroke-linecap="round" stroke-linejoin="round"/>
<polyline points="118.86,1722.39 117.58,1720.44 117.61,1718.94 118.42,1718.7 118.14,1721.77 120.46,1720.73 118.86,1722.39" fill="none" stroke="#1e1e1e" stroke-width="1.41" stroke-linecap="round" stroke-linejoin="round"/>
<polyline points="89.33,1701.6 89.88,1700.08 91.51,1701.23 90.63,1702.22 89.33,1701.6" fill="none" stroke="#1e1e1e" stroke-width="1.41" stroke-linecap="round" stroke-linejoin="round"/>
<polyline points="112.97,1716.94 114.28,1718.38 114.55,1720.56 112.14,1718.2 112.97,1716.94" fill="none" stroke="#1e1e1e" stroke-width="1.41" stroke-linecap="round" stroke-linejoin="round"/>
<polyline points="98.29,1706.17 96.68,1707.12 95.88,1705.05 98.29,1706.17" fill="none" stroke="#1e1e1e" stroke-width="1.41" stroke-linecap="round" stroke-linejoin="round"/>
<polyline points="215.21,1676.85 212.83,1682.63 215.21,1676.85" fill="none" stroke="#1e1e1e" stroke-width="1.41" stroke-linecap="round" stroke-linejoin="round"/>
<polyline points="188.18,1703.51 183.31,1708.37 184.12,1703.85 188.18,1703.51" fill="none" stroke="#1e1e1e" stroke-width="1.41" stroke-linecap="round" stroke-linejoin="round"/>
<polyline points="81.69,1666.83 80.26,1665.1 81.41,1663.04 83.19,1664.14 82.27,1663.82 83.06,1664.56 82.2,1664.72 82.77,1665.52 81.69,1666.83" fill="none" stroke="#1e1e1e" stroke-width="1.41" stroke-linecap="round" stroke-linejoin="round"/>
<polyline points="218.32,1665.9 217.05,1667.08 217.18,1664.1 217.86,1663.72 218.32,1665.9" fill="none" stroke="#1e1e1e" stroke-width="1.41" stroke-linecap="round" stroke-linejoin="round"/>
<polyline points="84.74,1677.98 82.25,1678.36 84.24,1676.98 84.74,1677.98" fill="none" stroke="#1e1e1e" stroke-width="1.41" stroke-linecap="round" stroke-linejoin="round"/>
<polyline points="214.41,1682.2 215.02,1678.9 214.41,1682.2" fill="none" stroke="#1e1e1e" stroke-width="1.41" stroke-linecap="round" stroke-linejoin="round"/>
<polyline points="159.19,1710.64 161.75,1709.89 159.62,1711.88 159.19,1710.64" fill="none" stroke="#1e1e1e" stroke-width="1.41" stroke-linecap="round" stroke-linejoin="round"/>
<polyline points="144.3,1718.44 145.8,1716.12 148.83,1716.14 147.26,1718.29 144.3,1718.44" fill="none" stroke="#1e1e1e" stroke-width="1.41" stroke-linecap="round" stroke-linejoin="round"/>
<polyline points="201.88,1693.13 202.31,1690.81 205.87,1689.47 201.88,1693.13" fill="none" stroke="#1e1e1e" stroke-width="1.41" stroke-linecap="round" stroke-linejoin="round"/>
<polyline points="105.73,1712.04 104.83,1710.9 105.49,1710.14 106.69,1711.2 105.73,1712.04" fill="none" stroke="#1e1e1e" stroke-width="1.41" stroke-linecap="round" stroke-linejoin="round"/>
<polyline points="189,1619.9 187.95,1619.53 187.07,1617.11 189.29,1619.08 189,1619.9" fill="none" stroke="#1e1e1e" stroke-width="1.41" stroke-linecap="round" stroke-linejoin="round"/>
<polyline points="124.36,1569.38 125.28,1569.32 126.11,1571.11 124.53,1570.37 124.36,1569.38" fill="none" stroke="#1e1e1e" stroke-width="1.41" stroke-linecap="round" stroke-linejoin="round"/>
<polyline points="125.83,1724.75 125.86,1723.87 124.43,1723.83 124.62,1722.92 126.91,1723.82 125.83,1724.75" fill="none" stroke="#1e1e1e" stroke-width="1.41" stroke-linecap="round" stroke-linejoin="round"/>
<polyline points="189.91,1703.4 190.61,1701.4 192.48,1700.74 189.91,1703.4" fill="none" stroke="#1e1e1e" stroke-width="1.41" stroke-linecap="round" stroke-linejoin="round"/>
<polyline points="217.68,1671.77 217.95,1668.85 218.81,1670.14 217.68,1671.77" fill="none" stroke="#1e1e1e" stroke-width="1.41" stroke-linecap="round" stroke-linejoin="round"/>
<polyline points="215.67,1658.73 214.86,1656.82 213.09,1655.8 215.21,1655.9 215.67,1658.73" fill="none" stroke="#1e1e1e" stroke-width="1.41" stroke-linecap="round" stroke-linejoin="round"/>
<polyline points="213.96,1652.04 214.08,1653.68 212.19,1652.07 211.55,1649.43 213.96,1652.04" fill="none" stroke="#1e1e1e" stroke-width="1.41" stroke-linecap="round" stroke-linejoin="round"/>
<polyline points="78.71,1656.71 77.35,1653.2 80.23,1652.18 80.21,1656.07 78.71,1656.71" fill="none" stroke="#1e1e1e" stroke-width="1.41" stroke-linecap="round" stroke-linejoin="round"/>
<polyline points="210.68,1688.27 210.3,1686.86 211.4,1686.24 210.68,1688.27" fill="none" stroke="#1e1e1e" stroke-width="1.41" stroke-linecap="round" stroke-linejoin="round"/>
<polyline points="81.08,1661.61 79.47,1661.89 79.81,1660.25 81.08,1661.61" fill="none" stroke="#1e1e1e" stroke-width="1.41" stroke-linecap="round" stroke-linejoin="round"/>
<polyline points="186.05,1591.75 184.97,1591.09 184.35,1587.65 186.21,1587.93 186.05,1591.75" fill="none" stroke="#1e1e1e" stroke-width="1.41" stroke-linecap="round" stroke-linejoin="round"/>
<polyline points="206.41,1321.26 206.5,1325.46 204.85,1325.31 206.41,1321.26" fill="none" stroke="#1e1e1e" stroke-width="1.41" stroke-linecap="round" stroke-linejoin="round"/>
<polyline points="115.55,1937.62 120.94,1939.58 120.8,1940.67 119.16,1941.36" fill="none" stroke="#1e1e1e" stroke-width="1.41" stroke-linecap="round" stroke-linejoin="round"/>
<polyline points="117.15,1941.36 115.56,1939.8 113.14,1939.15 115.55,1937.62" fill="none" stroke="#1e1e1e" stroke-width="1.41" stroke-linecap="round" stroke-linejoin="round"/>
<polyline points="109.58,1935.22 107.47,1931.58 108.28,1930.92 111.8,1935.51 109.58,1935.22" fill="none" stroke="#1e1e1e" stroke-width="1.41" stroke-linecap="round" stroke-linejoin="round"/>
<polyline points="102.17,1911.69 101.91,1915.34 100.88,1913.61 100.16,1915.01 104.76,1920.47 106.81,1929.81 98.78,1914.66 98.9,1913.06 102.17,1911.69" fill="none" stroke="#1e1e1e" stroke-width="1.41" stroke-linecap="round" stroke-linejoin="round"/>
<polyline points="126.65,1934.27 128.03,1934.73 127.99,1935.82 125.45,1938.77 127.03,1936.67 126.65,1934.27" fill="none" stroke="#1e1e1e" stroke-width="1.41" stroke-linecap="round" stroke-linejoin="round"/>
<polyline points="14.31,810.92 13.7,811.61 12.02,811.1 14.31,810.92" fill="none" stroke="#1e1e1e" stroke-width="1.41" stroke-linecap="round" stroke-linejoin="round"/>
<polyline points="31.13,931.94 33.89,931.89 35.22,932.66 31.13,931.94" fill="none" stroke="#1e1e1e" stroke-width="1.41" stroke-linecap="round" stroke-linejoin="round"/>
<polyline points="93.99,190.23 91.91,186.98 92.78,185.34 94.54,187.08 93.99,190.23" fill="none" stroke="#1e1e1e" stroke-width="1.41" stroke-linecap="round" stroke-linejoin="round"/>
<polyline points="13.4,795.53 15.1,794.9 16.01,795.64 14.26,796.16 13.4,795.53" fill="none" stroke="#1e1e1e" stroke-width="1.41" stroke-linecap="round" stroke-linejoin="round"/>
<polyline points="70.73,456.65 69.61,456.99 69.13,456.24 70.27,455.75 70.73,456.65" fill="none" stroke="#1e1e1e" stroke-width="1.41" stroke-linecap="round" stroke-linejoin="round"/>
<polyline points="137.58,1723.22 141.06,1720.96 144.8,1716.3 149.45,1715.54 148.85,1718.18 145.27,1722.05 140.78,1724.71 138.41,1724.91 137.58,1723.22" fill="none" stroke="#1e1e1e" stroke-width="1.41" stroke-linecap="round" stroke-linejoin="round"/>
<polyline points="81.37,1641.98 80.43,1645.66 78.77,1645.85 79.46,1641.8 81.37,1641.98" fill="none" stroke="#1e1e1e" stroke-width="1.41" stroke-linecap="round" stroke-linejoin="round"/>
<polyline points="134.92,1914.25 133.54,1912.54 138.3,1912.19 137.16,1915.13 134.89,1916.79 134.99,1919.08 133.8,1916.83 135.04,1915.23 134.93,1914.5 134,1915.33 133.78,1914.31 134.92,1914.25" fill="none" stroke="#1e1e1e" stroke-width="1.41" stroke-linecap="round" stroke-linejoin="round"/>
<polyline points="134.98,1919.14 135.29,1922.98 134.02,1927.59 134.98,1919.14" fill="none" stroke="#1e1e1e" stroke-width="1.41" stroke-linecap="round" stroke-linejoin="round"/>
<polyline points="78.99,596.41 81.78,595.8 82.65,596.97 81.38,596.94 79.68,600.24 78.99,596.41" fill="none" stroke="#1e1e1e" stroke-width="1.41" stroke-linecap="round" stroke-linejoin="round"/>
<polyline points="179.79,1841.92 179.65,1840.34 181.56,1839.09 186.77,1847.1 187.05,1846.19 186.83,1847.1 183.92,1846.88 179.79,1841.92" fill="none" stroke="#1e1e1e" stroke-width="1.41" stroke-linecap="round" stroke-linejoin="round"/>
<polyline points="186.3,1596.44 185.19,1597.32 184.01,1593.99 185.03,1592.87 186.3,1596.44" fill="none" stroke="#1e1e1e" stroke-width="1.41" stroke-linecap="round" stroke-linejoin="round"/>
<polyline points="198.53,1332.87 197.76,1332.14 200.37,1330.69 203.45,1326.39 202.73,1325.88 203.79,1326 202.1,1330.12 198.53,1332.87" fill="none" stroke="#1e1e1e" stroke-width="1.41" stroke-linecap="round" stroke-linejoin="round"/>
<polyline points="217.2,1022 214.54,1020.81 214.66,1020.25 217.2,1022" fill="none" stroke="#1e1e1e" stroke-width="1.41" stroke-linecap="round" stroke-linejoin="round"/>
<polyline points="191.08,1621.73 192.65,1622.92 191.03,1622.51 191.08,1621.73" fill="none" stroke="#1e1e1e" stroke-width="1.41" stroke-linecap="round" stroke-linejoin="round"/>
<polyline points="65.79,348 62.26,352.98 61.5,356.74 63.65,359.43 61.62,358.02 61.34,356.53 62.6,351.88 65.79,348" fill="none" stroke="#1e1e1e" stroke-width="1.41" stroke-linecap="round" stroke-linejoin="round"/>
<polyline points="178.68,448.46 179.46,446.97 180.42,447.11 179.35,449.27 178.68,448.46" fill="none" stroke="#1e1e1e" stroke-width="1.41" stroke-linecap="round" stroke-linejoin="round"/>
<polyline points="208.61,754.77 210.73,750.13 213.29,750.02 210.31,761.86 207.55,765.59 206.92,761.19 208.47,755.03 208.77,762.21 209.72,762.32 210.75,759.82 209.22,757.72 210.31,753.82 208.61,754.77" fill="none" stroke="#1e1e1e" stroke-width="1.41" stroke-linecap="round" stroke-linejoin="round"/>
<polyline points="147.39,397.55 148.03,401.31 147.27,401.89 145.47,400.95 145.11,398.9 147.39,397.55" fill="none" stroke="#1e1e1e" stroke-width="1.41" stroke-linecap="round" stroke-linejoin="round"/>
<polyline points="148.53,306.63 149.87,309.76 149.28,310.55 148.53,306.63" fill="none" stroke="#1e1e1e" stroke-width="1.41" stroke-linecap="round" stroke-linejoin="round"/>
<polyline points="131.33,93.51 132.51,92.6 134.02,94.46 131.96,99.22 131.33,93.51" fill="none" stroke="#1e1e1e" stroke-width="1.41" stroke-linecap="round" stroke-linejoin="round"/>
<polyline points="188.23,764.13 185.95,762.62 188.96,763.38 189.4,764.73 187.53,764.66 189.35,765.25 179.58,763.09 180.78,762.02 185.75,762.59 181.86,762.32 181.66,763.25 188.23,764.13" fill="none" stroke="#1e1e1e" stroke-width="1.41" stroke-linecap="round" stroke-linejoin="round"/>
<polyline points="186.2,1601.68 186.43,1598.38 187.04,1599.67 186.2,1601.68" fill="none" stroke="#1e1e1e" stroke-width="1.41" stroke-linecap="round" stroke-linejoin="round"/>
<polyline points="195.72,766.13 190.09,765.22 190.14,763.58 191.48,763.03 190.13,764.23 192.32,765.31 193.12,762.62 194.78,763.62 195.72,766.13" fill="none" stroke="#1e1e1e" stroke-width="1.41" stroke-linecap="round" stroke-linejoin="round"/>
<polyline points="126.4,1725.28 129.98,1725.91 128.36,1726.73 128.6,1725.97 127.78,1726.46 126.4,1725.28" fill="none" stroke="#1e1e1e" stroke-width="1.41" stroke-linecap="round" stroke-linejoin="round"/>
<polyline points="172.98,788.59 174.18,785.71 174.78,785.82 173.78,788.89 172.98,788.59" fill="none" stroke="#1e1e1e" stroke-width="1.41" stroke-linecap="round" stroke-linejoin="round"/>
<polyline points="197.3,823.76 198.59,823.07 197.49,824.92 197.3,823.76" fill="none" stroke="#1e1e1e" stroke-width="1.41" stroke-linecap="round" stroke-linejoin="round"/>
<polyline points="184.31,851.13 186.78,849.41 187.47,849.78 184.31,851.13" fill="none" stroke="#1e1e1e" stroke-width="1.41" stroke-linecap="round" stroke-linejoin="round"/>
<polyline points="42.22,932.53 43.55,934.57 43.08,935.47 36.6,935.22 39.76,934.95 39.84,933.8 42.22,932.53" fill="none" stroke="#1e1e1e" stroke-width="1.41" stroke-linecap="round" stroke-linejoin="round"/>
<polyline points="177.88,758.28 179.16,760.77 177.82,761.54 175.69,759.25 177.88,758.28" fill="none" stroke="#1e1e1e" stroke-width="1.41" stroke-linecap="round" stroke-linejoin="round"/>
<polyline points="165.97,828.54 165.48,824.3 166.1,823.37 166.8,823.63 165.97,828.54" fill="none" stroke="#1e1e1e" stroke-width="1.41" stroke-linecap="round" stroke-linejoin="round"/>
<polyline points="170.71,797.57 169.99,800.84 170.69,801.89 169.44,802.58 170.89,795.43 172.69,795.68 170.71,797.57" fill="none" stroke="#1e1e1e" stroke-width="1.41" stroke-linecap="round" stroke-linejoin="round"/>
<polyline points="204.17,808.25 204.59,805.65 206.66,801.48 204.51,808.65 207.08,802.91 206.67,805.17 208.39,804.87 208.01,806.18 206.35,805.83 207.78,806.65 205.59,809.93 204.17,808.25" fill="none" stroke="#1e1e1e" stroke-width="1.41" stroke-linecap="round" stroke-linejoin="round"/>
<polyline points="208.15,796.48 207.02,797.51 208.49,792.53 209.36,795.03 208.15,796.12 209.31,796.91 208.28,797.42 208.15,796.48" fill="none" stroke="#1e1e1e" stroke-width="1.41" stroke-linecap="round" stroke-linejoin="round"/>
<polyline points="208.09,797.54 210.3,799.14 208.87,802.14 207.42,801.59 208.09,797.54" fill="none" stroke="#1e1e1e" stroke-width="1.41" stroke-linecap="round" stroke-linejoin="round"/>
</svg>
