<?xml version="1.0" encoding="UTF-8" standalone="no"?>
<svg xmlns="http://www.w3.org/2000/svg" width="2000" height="1839" viewBox="0 0 2000 1839">
<rect width="2000" height="1839" fill="#ffffff"/>
<path d="M32.98,1248.63L40.69,1249.45L45.68,1247.85L47.09,1250.46L54.41,1254.89L55.77,1253.38L56.18,1249.27L58.14,1249.96L64.48,1249.86L68.42,1248.33L68.94,1244.35L71.23,1242.87L73.91,1243.22L76.97,1240.2L80.4,1239.37L83.28,1235L85.56,1233.76L83.34,1230.76L85.95,1224.19L87.11,1218.78L84.28,1216.48L80.89,1210.52L84.93,1206.44L82.09,1201.48L82.39,1199.79L85.79,1196.9L86.96,1194.16L86.36,1188.68L88.45,1186.34L88.31,1184.03L91.21,1181.84L94.45,1171.19L94.51,1166.82L99.33,1163.26L99.08,1157.8L103.98,1158L106.94,1160.05L109.29,1159.66L113.96,1156.82L116.57,1152.93L119.67,1151.23L121.63,1151.91L124.55,1149L124.78,1146.1L134.19,1147.08L139.88,1157L139.76,1160.14L142.06,1160.84L151.71,1174.18L157.11,1176.81L174.53,1192.26L176.07,1194.74L181.1,1197.96L182.15,1201.4L185.34,1206.85L188.89,1208.92L191.43,1213.13L193.58,1212L195.67,1202.62L199.72,1200.7L201.15,1196.88L200.43,1193.94L203.98,1189.7L209.24,1186.26L212.08,1185.51L214.08,1181.82L212.79,1175.35L215.65,1173.63L223.26,1176.69L229.6,1175.82L237.39,1173.43L242.47,1175.18L246.94,1174.48L248.99,1176L251.59,1175L259.03,1176.22L260.47,1175.18L274.12,1179.39L276.62,1181.41L278.28,1180.74L281.68,1184L290.03,1185.96L306.13,1183.08L306.87,1181.89L321.19,1183.67L323.38,1180.71L330.25,1181.64L334.64,1179.47L367.83,1178.99L363.04,1158.62L376.9,1147.26L379.32,1148.42L376.32,1163.84L376.21,1171.6L398.38,1172.21L400.51,1175.66L415.58,1188.91L431.81,1198.42L436.92,1204.37L438.47,1216.77L443.61,1231.08L450.97,1236.6L463.36,1237.63L470.81,1239.39L472.51,1241.97L474.31,1250.01L472.72,1267.31L475.2,1271.62L493.98,1286.24L501.21,1293.8L509.73,1296.05L511.33,1297.9L510.01,1304.42L506.51,1308.83L512.63,1313.7L513.05,1315.89L509.47,1318.24L496.51,1319.77L490.2,1318.29L476.41,1320.15L473.01,1319.71L469.91,1316.6L466.54,1309.97L461.71,1305.85L458.99,1306.39L456.15,1312.15L452.14,1317.63L443.6,1320.57L434.46,1319.49L432.53,1321.62L435.08,1322.9L434.89,1325.57L436.62,1327.19L436.44,1329.49L439.24,1330.53L439.63,1333.81L438.73,1336.82L439.87,1342.67L436.79,1343.45L434.84,1341.7L430.84,1341.72L431.69,1345.02L431.35,1349.5L428.6,1351L428.39,1354.39L426.62,1354.71L427.45,1359.1L430.82,1360.89L436.67,1367.1L440.64,1368.29L441.05,1370.85L443.4,1370.91L443.69,1373.83L446.38,1374.63L449.35,1373.37L454.83,1375.93L456.74,1370.03L459.48,1368.76L460.43,1363.44L462.49,1360.94L465.33,1360.41L467.64,1362.52L470.14,1361.25L474.35,1367.42L473.36,1369.58L474.25,1376.88L472.77,1379.51L468.71,1381.97L468.96,1386.22L465.38,1388.08L461.46,1394.05L461.48,1403.03L462.82,1406.22L462.52,1409L466.1,1412L467.08,1415.55L471.26,1418.44L471.81,1425.37L473.4,1427.96L472.54,1429.4L469.23,1429.2L465.25,1432.87L466.82,1436.3L465.1,1438.93L462.83,1440.34L463.92,1444.13L462.48,1444.82L457.81,1452.24L458.12,1454.19L456.73,1457.92L458.33,1460.14L455.8,1462.03L454.67,1464.55L456.64,1471.28L457,1476.02L453.22,1485.29L449.9,1485.69L449.82,1488.61L451.32,1490.59L446.87,1493.03L451.47,1498.85L452.35,1501.79L451.81,1504.45L443.07,1512.5L442.43,1514.43L439.93,1515.09L436.66,1517.81L436.85,1519.76L433.19,1523.8L430.65,1525.68L428.15,1525.98L425,1523.71L420.84,1524.21L420.65,1526.76L416.89,1534.69L411.02,1536.6L399.76,1545.06L395.05,1543.59L389.13,1538.69L375.57,1535.16L371.47,1537.47L367.86,1534.94L367.08,1537.35L362.99,1535.29L359.85,1541.16L360.01,1543.84L364.2,1546.88L364.59,1549.93L368.93,1551.87L367.72,1557.07L366.4,1557.27L366.74,1562.27L363.1,1564.97L360.1,1565.73L354.22,1563.86L346.94,1564.62L344.57,1568.57L341.68,1569.82L340.92,1571.5L336.28,1571.49L327.26,1574.87L322.8,1580.82L323.63,1584.86L320.92,1587.94L321.9,1590.89L318.91,1591.65L309.81,1589.43L306.2,1586.76L305.22,1587.71L300.11,1587.43L297.2,1585.51L295.3,1581.68L290.44,1580.92L288.88,1581.6L284.13,1577.43L283.04,1578.13L277.78,1575.04L274.21,1575.29L274.52,1573.11L269.7,1571.25L267.65,1572.04L262.54,1568.34L256.06,1566.67L251.65,1566.89L248.84,1565.7L244.92,1565.57L246.25,1568.41L243.39,1568.56L242.71,1570.97L240.42,1572.11L238.34,1570.33L236.03,1571.59L236.52,1574.77L233.76,1575.41L231.31,1577.64L224.2,1576.67L222.29,1587.31L215.81,1588.67L217.21,1592.97L212.15,1594.62L208.89,1602.91L205.77,1603.53L200.22,1602.24L195.58,1598.54L192.53,1597.22L193.59,1594.33L191.99,1589.16L189.5,1585.67L191.64,1582.33L191.01,1576.71L185.25,1574.8L181.34,1571.01L178.46,1565.31L176.05,1562.79L170.24,1562.33L168.52,1563.85L161.19,1562.73L157.6,1572.93L154.6,1573.43L153.53,1576.68L149.48,1576.89L149.67,1581.28L144.46,1586.8L140.66,1586.65L139.01,1589.15L133.35,1587.71L128.91,1585.59L126.65,1582.46L123.52,1580.27L123.85,1577.85L122.65,1575.13L112.32,1571.56L110.32,1568.07L108.02,1565.91L107.96,1561.53L110.22,1558.58L113.97,1556.9L113.72,1554.09L116,1553.57L116.13,1547.37L114.47,1544.15L115.76,1541.52L119.04,1539.7L120.06,1540.96L123.64,1540.73L122.9,1538.15L124.55,1535.66L123.46,1532.94L126.13,1531.46L125.49,1526.57L119.59,1522.82L117.64,1523.96L116.53,1518.93L118.42,1519.24L120.65,1516.78L118.6,1514.63L120.11,1512.38L118.53,1507.33L116.04,1507.23L118.57,1503.32L118.84,1499.44L123.76,1497.93L124.28,1490.66L123.33,1487.82L121.06,1485.06L123.03,1483.31L121.91,1481.57L122.87,1475.16L126.9,1475.2L129.09,1473.7L128.18,1469.78L122.61,1469.8L121.05,1467.19L123.47,1466.07L119.01,1458.97L119.96,1455.97L118.24,1454.56L114.93,1454.43L112.31,1451.66L111.83,1448.84L109.78,1447.06L111.89,1444.35L111.84,1442.64L108.32,1442.02L107.07,1440.75L107.31,1437.73L109.44,1434.65L106.99,1430.79L104.42,1430.2L101.92,1427.67L101.57,1421.46L96.84,1421.51L97.94,1417.67L90.25,1417.96L88.72,1414.86L84.2,1415.65L84.47,1417.73L82.24,1420.31L81.4,1423.43L78.03,1424.87L77.35,1427.15L73.8,1427.13L71.89,1421.95L67.56,1417.88L67.38,1416.54L70.32,1411.19L69.95,1408.87L63.04,1401.78L60.13,1400.68L57.69,1396.94L55.07,1394.76L55.51,1392.71L51.43,1388.78L50.74,1382.8L47.25,1375.97L52.78,1373.53L57.29,1370.08L58.92,1367.72L62.19,1365.67L64.65,1352.05L56.03,1344.16L56.81,1342.5L55.55,1338.92L59.62,1331.69L59.21,1327.42L60.63,1324.57L61.04,1320.34L59.45,1318.94L55.8,1307.98L47.92,1305.1L47.95,1299.03L47,1296.56L44.39,1296.93L43.65,1295.08L39.91,1294.68L35.66,1292.31L37.14,1287.88L35.23,1285.98L35.94,1283.22L33.87,1282.04L34.89,1277.47L34.66,1274.79L37.84,1274.45L40,1270.66L40.4,1266.91L42.28,1266.87L43.4,1262.67L40.28,1261.45L41.53,1259.68L39.06,1257.15L35.71,1256.03L36.08,1252.77L33.76,1252.19L32.98,1248.63Z" fill-rule="evenodd" fill="#4682b4" fill-opacity="0.471"/>
<polyline points="32.98,1248.63 40.69,1249.45 45.68,1247.85 47.09,1250.46 54.41,1254.89 55.77,1253.38 56.18,1249.27 58.14,1249.96 64.48,1249.86 68.42,1248.33 68.94,1244.35 71.23,1242.87 73.91,1243.22 76.97,1240.2 80.4,1239.37 83.28,1235 85.56,1233.76 83.34,1230.76 85.95,1224.19 87.11,1218.78 84.28,1216.48 80.89,1210.52 84.93,1206.44 82.09,1201.48 82.39,1199.79 85.79,1196.9 86.96,1194.16 86.36,1188.68 88.45,1186.34 88.31,1184.03 91.21,1181.84 94.45,1171.19 94.51,1166.82 99.33,1163.26 99.08,1157.8 103.98,1158 106.94,1160.05 109.29,1159.66 113.96,1156.82 116.57,1152.93 119.67,1151.23 121.63,1151.91 124.55,1149 124.78,1146.1 134.19,1147.08 139.88,1157 139.76,1160.14 142.06,1160.84 151.71,1174.18 157.11,1176.81 174.53,1192.26 176.07,1194.74 181.1,1197.96 182.15,1201.4 185.34,1206.85 188.89,1208.92 191.43,1213.13 193.58,1212 195.67,1202.62 199.72,1200.7 201.15,1196.88 200.43,1193.94 203.98,1189.7 209.24,1186.26 212.08,1185.51 214.08,1181.82 212.79,1175.35 215.65,1173.63 223.26,1176.69 229.6,1175.82 237.39,1173.43 242.47,1175.18 246.94,1174.48 248.99,1176 251.59,1175 259.03,1176.22 260.47,1175.18 274.12,1179.39 276.62,1181.41 278.28,1180.74 281.68,1184 290.03,1185.96 306.13,1183.08 306.87,1181.89 321.19,1183.67 323.38,1180.71 330.25,1181.64 334.64,1179.47 367.83,1178.99 363.04,1158.62 376.9,1147.26 379.32,1148.42 376.32,1163.84 376.21,1171.6 398.38,1172.21 400.51,1175.66 415.58,1188.91 431.81,1198.42 436.92,1204.37 438.47,1216.77 443.61,1231.08 450.97,1236.6 463.36,1237.63 470.81,1239.39 472.51,1241.97 474.31,1250.01 472.72,1267.31 475.2,1271.62 493.98,1286.24 501.21,1293.8 509.73,1296.05 511.33,1297.9 510.01,1304.42 506.51,1308.83 512.63,1313.7 513.05,1315.89 509.47,1318.24 496.51,1319.77 490.2,1318.29 476.41,1320.15 473.01,1319.71 469.91,1316.6 466.54,1309.97 461.71,1305.85 458.99,1306.39 456.15,1312.15 452.14,1317.63 443.6,1320.57 434.46,1319.49 432.53,1321.62 435.08,1322.9 434.89,1325.57 436.62,1327.19 436.44,1329.49 439.24,1330.53 439.63,1333.81 438.73,1336.82 439.87,1342.67 436.79,1343.45 434.84,1341.7 430.84,1341.72 431.69,1345.02 431.35,1349.5 428.6,1351 428.39,1354.39 426.62,1354.71 427.45,1359.1 430.82,1360.89 436.67,1367.1 440.64,1368.29 441.05,1370.85 443.4,1370.91 443.69,1373.83 446.38,1374.63 449.35,1373.37 454.83,1375.93 456.74,1370.03 459.48,1368.76 460.43,1363.44 462.49,1360.94 465.33,1360.41 467.64,1362.52 470.14,1361.25 474.35,1367.42 473.36,1369.58 474.25,1376.88 472.77,1379.51 468.71,1381.97 468.96,1386.22 465.38,1388.08 461.46,1394.05 461.48,1403.03 462.82,1406.22 462.52,1409 466.1,1412 467.08,1415.55 471.26,1418.44 471.81,1425.37 473.4,1427.96 472.54,1429.4 469.23,1429.2 465.25,1432.87 466.82,1436.3 465.1,1438.93 462.83,1440.34 463.92,1444.13 462.48,1444.82 457.81,1452.24 458.12,1454.19 456.73,1457.92 458.33,1460.14 455.8,1462.03 454.67,1464.55 456.64,1471.28 457,1476.02 453.22,1485.29 449.9,1485.69 449.82,1488.61 451.32,1490.59 446.87,1493.03 451.47,1498.85 452.35,1501.79 451.81,1504.45 443.07,1512.5 442.43,1514.43 439.93,1515.09 436.66,1517.81 436.85,1519.76 433.19,1523.8 430.65,1525.68 428.15,1525.98 425,1523.71 420.84,1524.21 420.65,1526.76 416.89,1534.69 411.02,1536.6 399.76,1545.06 395.05,1543.59 389.13,1538.69 375.57,1535.16 371.47,1537.47 367.86,1534.94 367.08,1537.35 362.99,1535.29 359.85,1541.16 360.01,1543.84 364.2,1546.88 364.59,1549.93 368.93,1551.87 367.72,1557.07 366.4,1557.27 366.74,1562.27 363.1,1564.97 360.1,1565.73 354.22,1563.86 346.94,1564.62 344.57,1568.57 341.68,1569.82 340.92,1571.5 336.28,1571.49 327.26,1574.87 322.8,1580.82 323.63,1584.86 320.92,1587.94 321.9,1590.89 318.91,1591.65 309.81,1589.43 306.2,1586.76 305.22,1587.71 300.11,1587.43 297.2,1585.51 295.3,1581.68 290.44,1580.92 288.88,1581.6 284.13,1577.43 283.04,1578.13 277.78,1575.04 274.21,1575.29 274.52,1573.11 269.7,1571.25 267.65,1572.04 262.54,1568.34 256.06,1566.67 251.65,1566.89 248.84,1565.7 244.92,1565.57 246.25,1568.41 243.39,1568.56 242.71,1570.97 240.42,1572.11 238.34,1570.33 236.03,1571.59 236.52,1574.77 233.76,1575.41 231.31,1577.64 224.2,1576.67 222.29,1587.31 215.81,1588.67 217.21,1592.97 212.15,1594.62 208.89,1602.91 205.77,1603.53 200.22,1602.24 195.58,1598.54 192.53,1597.22 193.59,1594.33 191.99,1589.16 189.5,1585.67 191.64,1582.33 191.01,1576.71 185.25,1574.8 181.34,1571.01 178.46,1565.31 176.05,1562.79 170.24,1562.33 168.52,1563.85 161.19,1562.73 157.6,1572.93 154.6,1573.43 153.53,1576.68 149.48,1576.89 149.67,1581.28 144.46,1586.8 140.66,1586.65 139.01,1589.15 133.35,1587.71 128.91,1585.59 126.65,1582.46 123.52,1580.27 123.85,1577.85 122.65,1575.13 112.32,1571.56 110.32,1568.07 108.02,1565.91 107.96,1561.53 110.22,1558.58 113.97,1556.9 113.72,1554.09 116,1553.57 116.13,1547.37 114.47,1544.15 115.76,1541.52 119.04,1539.7 120.06,1540.96 123.64,1540.73 122.9,1538.15 124.55,1535.66 123.46,1532.94 126.13,1531.46 125.49,1526.57 119.59,1522.82 117.64,1523.96 116.53,1518.93 118.42,1519.24 120.65,1516.78 118.6,1514.63 120.11,1512.38 118.53,1507.33 116.04,1507.23 118.57,1503.32 118.84,1499.44 123.76,1497.93 124.28,1490.66 123.33,1487.82 121.06,1485.06 123.03,1483.31 121.91,1481.57 122.87,1475.16 126.9,1475.2 129.09,1473.7 128.18,1469.78 122.61,1469.8 121.05,1467.19 123.47,1466.07 119.01,1458.97 119.96,1455.97 118.24,1454.56 114.93,1454.43 112.31,1451.66 111.83,1448.84 109.78,1447.06 111.89,1444.35 111.84,1442.64 108.32,1442.02 107.07,1440.75 107.31,1437.73 109.44,1434.65 106.99,1430.79 104.42,1430.2 101.92,1427.67 101.57,1421.46 96.84,1421.51 97.94,1417.67 90.25,1417.96 88.72,1414.86 84.2,1415.65 84.47,1417.73 82.24,1420.31 81.4,1423.43 78.03,1424.87 77.35,1427.15 73.8,1427.13 71.89,1421.95 67.56,1417.88 67.38,1416.54 70.32,1411.19 69.95,1408.87 63.04,1401.78 60.13,1400.68 57.69,1396.94 55.07,1394.76 55.51,1392.71 51.43,1388.78 50.74,1382.8 47.25,1375.97 52.78,1373.53 57.29,1370.08 58.92,1367.72 62.19,1365.67 64.65,1352.05 56.03,1344.16 56.81,1342.5 55.55,1338.92 59.62,1331.69 59.21,1327.42 60.63,1324.57 61.04,1320.34 59.45,1318.94 55.8,1307.98 47.92,1305.1 47.95,1299.03 47,1296.56 44.39,1296.93 43.65,1295.08 39.91,1294.68 35.66,1292.31 37.14,1287.88 35.23,1285.98 35.94,1283.22 33.87,1282.04 34.89,1277.47 34.66,1274.79 37.84,1274.45 40,1270.66 40.4,1266.91 42.28,1266.87 43.4,1262.67 40.28,1261.45 41.53,1259.68 39.06,1257.15 35.71,1256.03 36.08,1252.77 33.76,1252.19 32.98,1248.63" fill="none" stroke="#1e1e1e" stroke-width="1.1" stroke-linecap="round" stroke-linejoin="round"/>
<path d="M398.38,1172.21L531.53,1175.67L728.9,1178.97L725.56,1193.95L717.18,1219.05L713.59,1225.31L702.52,1239.46L700.44,1245.98L707.31,1257.95L712.95,1265.9L719.12,1287.68L718.9,1295.68L713.27,1304.21L709.72,1306.47L695.34,1302.15L691.21,1303.31L688.78,1309.1L679.45,1320.97L675.12,1327.94L657.12,1360.05L655.13,1382.1L656.65,1390.26L670.21,1405.63L670.98,1417.66L672.23,1421.32L676.43,1424.41L677.7,1426.62L674.51,1434.95L674.35,1437.37L671.17,1436.96L666.77,1439.08L660.04,1438.98L657.46,1437.73L652.44,1441.41L649.36,1441.85L646.01,1444.71L641.17,1458.84L641.22,1463.21L639.69,1470.35L635.36,1474.66L633.87,1478.88L641.07,1487.62L648.37,1489.68L654.17,1489.89L656.74,1492.36L656.99,1499.29L655.57,1506.92L657.07,1509.74L660.62,1509.91L665.63,1507.68L687.47,1504.84L692.65,1507.1L701.97,1518.76L704.03,1515.88L707.47,1515.19L711.02,1516.09L712.54,1517.69L711.99,1523.27L713.97,1526.21L714.4,1529.74L715.79,1532.07L718.63,1532.83L719.91,1534.91L725.15,1533.4L730.08,1536.98L731.83,1540.16L730.96,1542.95L728.47,1543.04L729.5,1546.46L732.54,1550.14L729.78,1552.54L729.27,1555.33L732.84,1554.52L740.67,1555.34L742.67,1556.94L745.45,1562.81L746.24,1566.34L748.26,1566.37L751.8,1568.47L755.38,1567.54L756.12,1564.99L758.38,1564.29L761.57,1565.66L762.13,1568.95L761.37,1573.56L762.89,1575.77L765.15,1575.43L764.47,1584.05L744.85,1584.81L743.33,1592.58L743.62,1598.17L742.18,1599.5L737.12,1595.18L730.36,1593.52L721.09,1592.92L715.66,1599.18L715.16,1601L717.58,1607.23L717.88,1611.98L715.34,1614.62L708.88,1626.22L707.88,1630.22L704.14,1633.58L702.18,1637.81L702.35,1643.42L699.8,1646.3L693.95,1647.08L693.02,1645.24L694.01,1642.7L693.21,1640.37L694.58,1635.89L693.06,1633.68L681.79,1629.99L678.49,1628.12L676.93,1628.83L660.08,1624.08L656.58,1619.52L653.5,1618.38L647.53,1619.38L647.47,1608.07L645.25,1605.23L639.64,1606.61L628.92,1606.8L627.77,1604.59L630.44,1601.35L627.66,1597.04L624.91,1597.85L621.86,1595.24L623.45,1592.72L627.37,1592.9L630.77,1588.82L628.54,1586.84L626.26,1588.14L625.84,1584.97L628.58,1584.41L633.06,1579.38L631.21,1576.43L628.7,1576.99L627.43,1574.9L630.22,1571.42L631.46,1568.16L628.39,1567.14L626.43,1563.58L627.53,1561.77L625.02,1555.29L627.22,1551.56L626.3,1549.96L621.02,1553.16L619.15,1558.47L613.57,1558.62L611.61,1561.87L609.83,1561.6L607.14,1566.17L607.82,1568.25L602.26,1573.14L597.1,1576.09L592.93,1576.74L590.14,1579.97L587.17,1579.55L582.11,1583.47L579.9,1586.84L578.38,1592.04L579.95,1597.42L576.54,1601.49L573.31,1602.53L570.63,1605.64L566.06,1608.23L559.78,1606.65L555.29,1611.06L541.01,1616.49L538.56,1619.73L529.49,1626.36L526.37,1627.39L517.61,1635.84L513.27,1638.31L492.78,1637.61L481.97,1641.14L474.35,1640.72L465.95,1643.2L465.9,1645.15L462.73,1647.87L459.75,1647.92L457.98,1652.39L457.9,1660.42L457.26,1662.11L454.52,1662.29L453.76,1664.1L449.5,1662.53L443.2,1656.53L444.94,1653.53L443.08,1651.54L442.55,1648.85L440.68,1647.58L438.09,1641.43L432.62,1645.68L432.07,1643.84L427.43,1643.11L426.75,1641.88L420.48,1639.89L424.33,1624.65L423.08,1622.31L424.21,1620.02L427.09,1618.88L428.4,1614.29L428.01,1610.75L430.64,1600.96L424.18,1593.13L421.93,1592.58L419.99,1594.24L416.34,1592.56L414.96,1590.82L414.48,1586.19L416.82,1583.21L417.87,1579.46L416.64,1576.51L413.97,1573.77L412.29,1574.45L407.66,1574.09L407.61,1571.53L405.79,1568.44L409.91,1561.01L412.6,1558.16L410.09,1554.21L408.91,1553.93L404.04,1549.3L403.17,1546.36L399.76,1545.06L411.02,1536.6L416.89,1534.69L420.65,1526.76L420.84,1524.21L425,1523.71L428.15,1525.98L430.65,1525.68L433.19,1523.8L436.85,1519.76L436.66,1517.81L439.93,1515.09L442.43,1514.43L443.07,1512.5L451.81,1504.45L452.35,1501.79L451.47,1498.85L446.87,1493.03L451.32,1490.59L449.82,1488.61L449.9,1485.69L453.22,1485.29L457,1476.02L456.64,1471.28L454.67,1464.55L455.8,1462.03L458.33,1460.14L456.73,1457.92L458.12,1454.19L457.81,1452.24L462.48,1444.82L463.92,1444.13L462.83,1440.34L465.1,1438.93L466.82,1436.3L465.25,1432.87L469.23,1429.2L472.54,1429.4L473.4,1427.96L471.81,1425.37L471.26,1418.44L467.08,1415.55L466.1,1412L462.52,1409L462.82,1406.22L461.48,1403.03L461.46,1394.05L465.38,1388.08L468.96,1386.22L468.71,1381.97L472.77,1379.51L474.25,1376.88L473.36,1369.58L474.35,1367.42L470.14,1361.25L467.64,1362.52L465.33,1360.41L462.49,1360.94L460.43,1363.44L459.48,1368.76L456.74,1370.03L454.83,1375.93L449.35,1373.37L446.38,1374.63L443.69,1373.83L443.4,1370.91L441.05,1370.85L440.64,1368.29L436.67,1367.1L430.82,1360.89L427.45,1359.1L426.62,1354.71L428.39,1354.39L428.6,1351L431.35,1349.5L431.69,1345.02L430.84,1341.72L434.84,1341.7L436.79,1343.45L439.87,1342.67L438.73,1336.82L439.63,1333.81L439.24,1330.53L436.44,1329.49L436.62,1327.19L434.89,1325.57L435.08,1322.9L432.53,1321.62L434.46,1319.49L443.6,1320.57L452.14,1317.63L456.15,1312.15L458.99,1306.39L461.71,1305.85L466.54,1309.97L469.91,1316.6L473.01,1319.71L476.41,1320.15L490.2,1318.29L496.51,1319.77L509.47,1318.24L513.05,1315.89L512.63,1313.7L506.51,1308.83L510.01,1304.42L511.33,1297.9L509.73,1296.05L501.21,1293.8L493.98,1286.24L475.2,1271.62L472.72,1267.31L474.31,1250.01L472.51,1241.97L470.81,1239.39L463.36,1237.63L450.97,1236.6L443.61,1231.08L438.47,1216.77L436.92,1204.37L431.81,1198.42L415.58,1188.91L400.51,1175.66L398.38,1172.21ZM515.25,1529.85L516.27,1531.94L519.87,1530.32L523.3,1530.75L525.42,1537L531.78,1539.08L533.83,1537.78L533.29,1529.5L535.24,1526.75L535.48,1521.04L534.7,1518.72L532.34,1518.06L531.11,1514.75L526.41,1518.18L523.33,1518.11L522.1,1520.03L518.69,1518.74L515.25,1529.85Z" fill-rule="evenodd" fill="#4682b4" fill-opacity="0.471"/>
<polyline points="398.38,1172.21 531.53,1175.67 728.9,1178.97 725.56,1193.95 717.18,1219.05 713.59,1225.31 702.52,1239.46 700.44,1245.98 707.31,1257.95 712.95,1265.9 719.12,1287.68 718.9,1295.68 713.27,1304.21 709.72,1306.47 695.34,1302.15 691.21,1303.31 688.78,1309.1 679.45,1320.97 675.12,1327.94 657.12,1360.05 655.13,1382.1 656.65,1390.26 670.21,1405.63 670.98,1417.66 672.23,1421.32 676.43,1424.41 677.7,1426.62 674.51,1434.95 674.35,1437.37 671.17,1436.96 666.77,1439.08 660.04,1438.98 657.46,1437.73 652.44,1441.41 649.36,1441.85 646.01,1444.71 641.17,1458.84 641.22,1463.21 639.69,1470.35 635.36,1474.66 633.87,1478.88 641.07,1487.62 648.37,1489.68 654.17,1489.89 656.74,1492.36 656.99,1499.29 655.57,1506.92 657.07,1509.74 660.62,1509.91 665.63,1507.68 687.47,1504.84 692.65,1507.1 701.97,1518.76 704.03,1515.88 707.47,1515.19 711.02,1516.09 712.54,1517.69 711.99,1523.27 713.97,1526.21 714.4,1529.74 715.79,1532.07 718.63,1532.83 719.91,1534.91 725.15,1533.4 730.08,1536.98 731.83,1540.16 730.96,1542.95 728.47,1543.04 729.5,1546.46 732.54,1550.14 729.78,1552.54 729.27,1555.33 732.84,1554.52 740.67,1555.34 742.67,1556.94 745.45,1562.81 746.24,1566.34 748.26,1566.37 751.8,1568.47 755.38,1567.54 756.12,1564.99 758.38,1564.29 761.57,1565.66 762.13,1568.95 761.37,1573.56 762.89,1575.77 765.15,1575.43 764.47,1584.05 744.85,1584.81 743.33,1592.58 743.62,1598.17 742.18,1599.5 737.12,1595.18 730.36,1593.52 721.09,1592.92 715.66,1599.18 715.16,1601 717.58,1607.23 717.88,1611.98 715.34,1614.62 708.88,1626.22 707.88,1630.22 704.14,1633.58 702.18,1637.81 702.35,1643.42 699.8,1646.3 693.95,1647.08 693.02,1645.24 694.01,1642.7 693.21,1640.37 694.58,1635.89 693.06,1633.68 681.79,1629.99 678.49,1628.12 676.93,1628.83 660.08,1624.08 656.58,1619.52 653.5,1618.38 647.53,1619.38 647.47,1608.07 645.25,1605.23 639.64,1606.61 628.92,1606.8 627.77,1604.59 630.44,1601.35 627.66,1597.04 624.91,1597.85 621.86,1595.24 623.45,1592.72 627.37,1592.9 630.77,1588.82 628.54,1586.84 626.26,1588.14 625.84,1584.97 628.58,1584.41 633.06,1579.38 631.21,1576.43 628.7,1576.99 627.43,1574.9 630.22,1571.42 631.46,1568.16 628.39,1567.14 626.43,1563.58 627.53,1561.77 625.02,1555.29 627.22,1551.56 626.3,1549.96 621.02,1553.16 619.15,1558.47 613.57,1558.62 611.61,1561.87 609.83,1561.6 607.14,1566.17 607.82,1568.25 602.26,1573.14 597.1,1576.09 592.93,1576.74 590.14,1579.97 587.17,1579.55 582.11,1583.47 579.9,1586.84 578.38,1592.04 579.95,1597.42 576.54,1601.49 573.31,1602.53 570.63,1605.64 566.06,1608.23 559.78,1606.65 555.29,1611.06 541.01,1616.49 538.56,1619.73 529.49,1626.36 526.37,1627.39 517.61,1635.84 513.27,1638.31 492.78,1637.61 481.97,1641.14 474.35,1640.72 465.95,1643.2 465.9,1645.15 462.73,1647.87 459.75,1647.92 457.98,1652.39 457.9,1660.42 457.26,1662.11 454.52,1662.29 453.76,1664.1 449.5,1662.53 443.2,1656.53 444.94,1653.53 443.08,1651.54 442.55,1648.85 440.68,1647.58 438.09,1641.43 432.62,1645.68 432.07,1643.84 427.43,1643.11 426.75,1641.88 420.48,1639.89 424.33,1624.65 423.08,1622.31 424.21,1620.02 427.09,1618.88 428.4,1614.29 428.01,1610.75 430.64,1600.96 424.18,1593.13 421.93,1592.58 419.99,1594.24 416.34,1592.56 414.96,1590.82 414.48,1586.19 416.82,1583.21 417.87,1579.46 416.64,1576.51 413.97,1573.77 412.29,1574.45 407.66,1574.09 407.61,1571.53 405.79,1568.44 409.91,1561.01 412.6,1558.16 410.09,1554.21 408.91,1553.93 404.04,1549.3 403.17,1546.36 399.76,1545.06 411.02,1536.6 416.89,1534.69 420.65,1526.76 420.84,1524.21 425,1523.71 428.15,1525.98 430.65,1525.68 433.19,1523.8 436.85,1519.76 436.66,1517.81 439.93,1515.09 442.43,1514.43 443.07,1512.5 451.81,1504.45 452.35,1501.79 451.47,1498.85 446.87,1493.03 451.32,1490.59 449.82,1488.61 449.9,1485.69 453.22,1485.29 457,1476.02 456.64,1471.28 454.67,1464.55 455.8,1462.03 458.33,1460.14 456.73,1457.92 458.12,1454.19 457.81,1452.24 462.48,1444.82 463.92,1444.13 462.83,1440.34 465.1,1438.93 466.82,1436.3 465.25,1432.87 469.23,1429.2 472.54,1429.4 473.4,1427.96 471.81,1425.37 471.26,1418.44 467.08,1415.55 466.1,1412 462.52,1409 462.82,1406.22 461.48,1403.03 461.46,1394.05 465.38,1388.08 468.96,1386.22 468.71,1381.97 472.77,1379.51 474.25,1376.88 473.36,1369.58 474.35,1367.42 470.14,1361.25 467.64,1362.52 465.33,1360.41 462.49,1360.94 460.43,1363.44 459.48,1368.76 456.74,1370.03 454.83,1375.93 449.35,1373.37 446.38,1374.63 443.69,1373.83 443.4,1370.91 441.05,1370.85 440.64,1368.29 436.67,1367.1 430.82,1360.89 427.45,1359.1 426.62,1354.71 428.39,1354.39 428.6,1351 431.35,1349.5 431.69,1345.02 430.84,1341.72 434.84,1341.7 436.79,1343.45 439.87,1342.67 438.73,1336.82 439.63,1333.81 439.24,1330.53 436.44,1329.49 436.62,1327.19 434.89,1325.57 435.08,1322.9 432.53,1321.62 434.46,1319.49 443.6,1320.57 452.14,1317.63 456.15,1312.15 458.99,1306.39 461.71,1305.85 466.54,1309.97 469.91,1316.6 473.01,1319.71 476.41,1320.15 490.2,1318.29 496.51,1319.77 509.47,1318.24 513.05,1315.89 512.63,1313.7 506.51,1308.83 510.01,1304.42 511.33,1297.9 509.73,1296.05 501.21,1293.8 493.98,1286.24 475.2,1271.62 472.72,1267.31 474.31,1250.01 472.51,1241.97 470.81,1239.39 463.36,1237.63 450.97,1236.6 443.61,1231.08 438.47,1216.77 436.92,1204.37 431.81,1198.42 415.58,1188.91 400.51,1175.66 398.38,1172.21" fill="none" stroke="#1e1e1e" stroke-width="1.1" stroke-linecap="round" stroke-linejoin="round"/>
<polyline points="515.25,1529.85 516.27,1531.94 519.87,1530.32 523.3,1530.75 525.42,1537 531.78,1539.08 533.83,1537.78 533.29,1529.5 535.24,1526.75 535.48,1521.04 534.7,1518.72 532.34,1518.06 531.11,1514.75 526.41,1518.18 523.33,1518.11 522.1,1520.03 518.69,1518.74 515.25,1529.85" fill="none" stroke="#1e1e1e" stroke-width="1.1" stroke-linecap="round" stroke-linejoin="round"/>
<path d="M457.9,1660.42L457.98,1652.39L459.75,1647.92L462.73,1647.87L465.9,1645.15L465.95,1643.2L474.35,1640.72L481.97,1641.14L492.78,1637.61L513.27,1638.31L517.61,1635.84L526.37,1627.39L529.49,1626.36L538.56,1619.73L541.01,1616.49L555.29,1611.06L559.78,1606.65L566.06,1608.23L570.63,1605.64L573.31,1602.53L576.54,1601.49L579.95,1597.42L578.38,1592.04L579.9,1586.84L582.11,1583.47L587.17,1579.55L590.14,1579.97L592.93,1576.74L597.1,1576.09L602.26,1573.14L607.82,1568.25L607.14,1566.17L609.83,1561.6L611.61,1561.87L613.57,1558.62L619.15,1558.47L621.02,1553.16L626.3,1549.96L627.22,1551.56L625.02,1555.29L627.53,1561.77L626.43,1563.58L628.39,1567.14L631.46,1568.16L630.22,1571.42L627.43,1574.9L628.7,1576.99L631.21,1576.43L633.06,1579.38L628.58,1584.41L625.84,1584.97L626.26,1588.14L628.54,1586.84L630.77,1588.82L627.37,1592.9L623.45,1592.72L621.86,1595.24L624.91,1597.85L627.66,1597.04L630.44,1601.35L627.77,1604.59L628.92,1606.8L639.64,1606.61L645.25,1605.23L647.47,1608.07L647.53,1619.38L653.5,1618.38L656.58,1619.52L660.08,1624.08L676.93,1628.83L678.49,1628.12L681.79,1629.99L693.06,1633.68L694.58,1635.89L693.21,1640.37L694.01,1642.7L693.02,1645.24L693.95,1647.08L699.8,1646.3L702.35,1643.42L702.18,1637.81L704.14,1633.58L707.88,1630.22L708.88,1626.22L715.34,1614.62L717.88,1611.98L717.58,1607.23L715.16,1601L715.66,1599.18L721.09,1592.92L730.36,1593.52L737.12,1595.18L742.18,1599.5L743.62,1598.17L743.33,1592.58L744.85,1584.81L764.47,1584.05L765.15,1575.43L762.89,1575.77L761.37,1573.56L762.13,1568.95L761.57,1565.66L758.38,1564.29L756.12,1564.99L755.38,1567.54L751.8,1568.47L748.26,1566.37L746.24,1566.34L745.45,1562.81L742.67,1556.94L740.67,1555.34L732.84,1554.52L729.27,1555.33L729.78,1552.54L732.54,1550.14L729.5,1546.46L728.47,1543.04L730.96,1542.95L731.83,1540.16L730.08,1536.98L736.21,1530.25L753.85,1522.31L759.54,1511.07L764.89,1510.16L778.73,1511.75L792.86,1509.22L807.58,1505.22L813.02,1506.11L816.41,1512.34L825.44,1523.47L828.35,1530.9L831.68,1529.83L835.29,1522.08L844.74,1510.61L852.35,1506.41L853.28,1508.23L858.84,1510.82L865.07,1518.03L868.19,1532.14L872.09,1535.08L901.99,1530.73L906.39,1529.42L908.9,1524.81L912.29,1506.72L915,1508.67L919.15,1507.96L924.59,1511.99L925.05,1516.24L926.46,1518.31L941.63,1517.51L942.93,1521.15L941.38,1525.16L944.69,1529.06L947.41,1529.43L949.54,1531.13L950.72,1537.21L955.1,1540.5L948.68,1546.08L946.17,1554.34L946.28,1556.16L951.36,1567.48L948.63,1568.45L946.26,1564.79L942.34,1564.9L941.62,1567.58L942.45,1570.5L930.78,1579.83L929.94,1582.13L933.72,1587.98L926.23,1588.32L923.61,1591.35L923.47,1597.92L915.14,1597.16L913.23,1599.34L911.07,1604.69L898.11,1603.29L893.94,1604.98L888.11,1604.46L872.74,1607.67L870.6,1607.17L867.97,1609.34L864.28,1610.17L861.41,1613.07L858.78,1613.79L857.46,1616.45L853.03,1620.32L850.16,1621.27L850.14,1624.32L843.35,1624.76L841.33,1624.13L836.91,1626.05L832.88,1624.19L831.79,1626.38L837.13,1629.46L840.58,1628.99L845.33,1631.95L848.39,1636.96L846.94,1640.36L847.27,1644.13L844.12,1651.41L846.14,1653.13L850.55,1652.92L853.51,1656.59L853.61,1659.14L855.26,1662.32L854.04,1666.08L855.1,1667.8L854.01,1670.83L855.3,1674.37L850.14,1678.23L848.56,1682.85L848.35,1696.86L843.92,1698.77L839.83,1702.03L840.03,1707.15L837.86,1710.67L831.97,1713.92L820.36,1716.39L820.44,1720.77L821.97,1723.83L819.9,1729.05L824.68,1729.34L824.3,1732.87L825.47,1736.04L825.44,1739.21L828.66,1741.19L830.43,1744.25L827.01,1753.49L825.2,1754.94L823.13,1759.55L823.04,1770.65L821.59,1772.71L823.37,1775.65L822.75,1777.11L823.69,1780.53L822,1781.62L821.01,1785.88L817.48,1792.07L816.85,1795.73L811,1791.65L809.32,1792.74L803.91,1793.06L800.45,1791.07L798.05,1791.79L793.93,1795.53L788.05,1795.72L786.51,1794.49L781.44,1796.88L779.49,1800.28L773.45,1804.49L773.4,1809.61L771.45,1812.03L772.63,1813.87L769.97,1815.8L766.87,1813.82L764.34,1814.4L762.97,1818.9L759.92,1823.63L754.15,1823.81L751.52,1822.56L745.16,1822.62L736.78,1819.84L734.63,1818.35L735.5,1816.4L732.03,1815.26L732.06,1812.21L730.53,1810.24L733.54,1808.94L735.93,1810.18L736.91,1808.12L735.13,1806.39L738.77,1802.89L735.93,1800.06L736.68,1797.38L739.81,1796.32L736.25,1792.86L736.28,1790.05L738.36,1787.03L735.36,1786.75L732.88,1783.18L729.28,1783.99L729.55,1780.95L733.42,1778.07L734.17,1776.12L732.15,1774.15L733.03,1771.23L736.63,1770.3L731.04,1767.06L731.58,1761.46L733.53,1759.29L729.36,1757.17L720.77,1763.65L717.54,1763.24L711.46,1760.73L709.05,1762.04L710.93,1774.13L708.02,1777.14L698.08,1776.28L694.14,1774.77L690.83,1771.06L687.96,1770.9L686.19,1768.93L685.05,1764.89L682.77,1764.61L680.71,1766.65L680.19,1769.57L678.5,1770.4L677.61,1773.68L679.39,1775.05L678.48,1780.16L676.77,1782.33L679.04,1791.03L681.56,1791.43L683.33,1793.28L681.6,1797.28L679.78,1798.24L679.6,1802.75L676.92,1805.39L672.37,1804.6L670.6,1802.74L663.66,1801.3L661.16,1799.43L659.57,1801.85L654.12,1804.45L650.29,1804.15L648.63,1802.78L644.89,1803.57L639.98,1810.94L636.81,1813.94L636.52,1816.5L640.8,1819.74L638.55,1825.2L635.51,1827.47L632.01,1828.03L627.6,1825.88L628.87,1822.12L623.16,1818.12L621.05,1815.52L605.58,1813.91L600.28,1814.67L597.12,1816.69L592.82,1815.52L591.66,1813.06L594.56,1812.01L595.17,1804.57L594,1803.21L590.65,1802.66L587.75,1803.59L584.16,1796.2L584.5,1790.96L576.86,1788.87L572.43,1794.64L568.38,1792.98L563.43,1788.49L557.33,1793.25L556.7,1795.07L552.23,1796.33L551.12,1798.13L551.76,1802.05L547.78,1802.95L548.22,1804.91L545.8,1805.84L546.57,1809.27L544.15,1810.44L542.02,1814.55L538.51,1816.31L535.43,1819.91L530.74,1819.82L528.99,1823.32L525.94,1825.33L523.18,1825.15L520.34,1823.26L522.2,1820.25L524.63,1813.22L522.31,1809.39L520.06,1802.14L518.04,1801.12L515.15,1801.55L513.08,1803.21L509.74,1802.16L505.79,1795.73L506.54,1788.79L502.69,1789.56L500.73,1791.23L496.5,1792.84L490.87,1792.23L489.21,1780.72L486.2,1775.65L486.62,1773.1L484.52,1770.61L479.95,1771.12L479.7,1766.23L480.78,1760.89L483.3,1760.7L484.57,1757.93L483.08,1754.84L484.73,1750.74L483.33,1749.24L479.98,1749.04L479.78,1746.96L483.22,1743.38L482.97,1738.75L488.57,1734.61L488.73,1732.78L486.67,1728.47L486.58,1722.01L485.1,1718.68L483.08,1718.15L479.11,1713.55L476.51,1712.27L473.74,1713.3L469.56,1713.08L467.07,1712.05L462.64,1712.07L461.48,1715.94L458.73,1720.75L454.75,1722.11L450.48,1725.3L445.84,1724.34L440.29,1725.91L439.27,1723.81L439.25,1719.66L444.14,1715.52L445.44,1711.16L448.37,1708.68L448.12,1704.53L449.1,1703.58L453.52,1703.68L454.79,1700.54L454.03,1697.24L454.69,1694.69L458.76,1694.3L463.94,1692.48L462.96,1688.8L465.07,1685.44L473.98,1687.35L476.62,1686.81L478.63,1682.71L472.59,1680.5L472.42,1677.69L475.45,1675.69L476.57,1673.65L468.97,1672.01L467.8,1670.64L461.61,1669.89L459.91,1666.19L459.18,1661.67L457.9,1660.42Z" fill-rule="evenodd" fill="#4682b4" fill-opacity="0.471"/>
<polyline points="457.9,1660.42 457.98,1652.39 459.75,1647.92 462.73,1647.87 465.9,1645.15 465.95,1643.2 474.35,1640.72 481.97,1641.14 492.78,1637.61 513.27,1638.31 517.61,1635.84 526.37,1627.39 529.49,1626.36 538.56,1619.73 541.01,1616.49 555.29,1611.06 559.78,1606.65 566.06,1608.23 570.63,1605.64 573.31,1602.53 576.54,1601.49 579.95,1597.42 578.38,1592.04 579.9,1586.84 582.11,1583.47 587.17,1579.55 590.14,1579.97 592.93,1576.74 597.1,1576.09 602.26,1573.14 607.82,1568.25 607.14,1566.17 609.83,1561.6 611.61,1561.87 613.57,1558.62 619.15,1558.47 621.02,1553.16 626.3,1549.96 627.22,1551.56 625.02,1555.29 627.53,1561.77 626.43,1563.58 628.39,1567.14 631.46,1568.16 630.22,1571.42 627.43,1574.9 628.7,1576.99 631.21,1576.43 633.06,1579.38 628.58,1584.41 625.84,1584.97 626.26,1588.14 628.54,1586.84 630.77,1588.82 627.37,1592.9 623.45,1592.72 621.86,1595.24 624.91,1597.85 627.66,1597.04 630.44,1601.35 627.77,1604.59 628.92,1606.8 639.64,1606.61 645.25,1605.23 647.47,1608.07 647.53,1619.38 653.5,1618.38 656.58,1619.52 660.08,1624.08 676.93,1628.83 678.49,1628.12 681.79,1629.99 693.06,1633.68 694.58,1635.89 693.21,1640.37 694.01,1642.7 693.02,1645.24 693.95,1647.08 699.8,1646.3 702.35,1643.42 702.18,1637.81 704.14,1633.58 707.88,1630.22 708.88,1626.22 715.34,1614.62 717.88,1611.98 717.58,1607.23 715.16,1601 715.66,1599.18 721.09,1592.92 730.36,1593.52 737.12,1595.18 742.18,1599.5 743.62,1598.17 743.33,1592.58 744.85,1584.81 764.47,1584.05 765.15,1575.43 762.89,1575.77 761.37,1573.56 762.13,1568.95 761.57,1565.66 758.38,1564.29 756.12,1564.99 755.38,1567.54 751.8,1568.47 748.26,1566.37 746.24,1566.34 745.45,1562.81 742.67,1556.94 740.67,1555.34 732.84,1554.52 729.27,1555.33 729.78,1552.54 732.54,1550.14 729.5,1546.46 728.47,1543.04 730.96,1542.95 731.83,1540.16 730.08,1536.98 736.21,1530.25 753.85,1522.31 759.54,1511.07 764.89,1510.16 778.73,1511.75 792.86,1509.22 807.58,1505.22 813.02,1506.11 816.41,1512.34 825.44,1523.47 828.35,1530.9 831.68,1529.83 835.29,1522.08 844.74,1510.61 852.35,1506.41 853.28,1508.23 858.84,1510.82 865.07,1518.03 868.19,1532.14 872.09,1535.08 901.99,1530.73 906.39,1529.42 908.9,1524.81 912.29,1506.72 915,1508.67 919.15,1507.96 924.59,1511.99 925.05,1516.24 926.46,1518.31 941.63,1517.51 942.93,1521.15 941.38,1525.16 944.69,1529.06 947.41,1529.43 949.54,1531.13 950.72,1537.21 955.1,1540.5 948.68,1546.08 946.17,1554.34 946.28,1556.16 951.36,1567.48 948.63,1568.45 946.26,1564.79 942.34,1564.9 941.62,1567.58 942.45,1570.5 930.78,1579.83 929.94,1582.13 933.72,1587.98 926.23,1588.32 923.61,1591.35 923.47,1597.92 915.14,1597.16 913.23,1599.34 911.07,1604.69 898.11,1603.29 893.94,1604.98 888.11,1604.46 872.74,1607.67 870.6,1607.17 867.97,1609.34 864.28,1610.17 861.41,1613.07 858.78,1613.79 857.46,1616.45 853.03,1620.32 850.16,1621.27 850.14,1624.32 843.35,1624.76 841.33,1624.13 836.91,1626.05 832.88,1624.19 831.79,1626.38 837.13,1629.46 840.58,1628.99 845.33,1631.95 848.39,1636.96 846.94,1640.36 847.27,1644.13 844.12,1651.41 846.14,1653.13 850.55,1652.92 853.51,1656.59 853.61,1659.14 855.26,1662.32 854.04,1666.08 855.1,1667.8 854.01,1670.83 855.3,1674.37 850.14,1678.23 848.56,1682.85 848.35,1696.86 843.92,1698.77 839.83,1702.03 840.03,1707.15 837.86,1710.67 831.97,1713.92 820.36,1716.39 820.44,1720.77 821.97,1723.83 819.9,1729.05 824.68,1729.34 824.3,1732.87 825.47,1736.04 825.44,1739.21 828.66,1741.19 830.43,1744.25 827.01,1753.49 825.2,1754.94 823.13,1759.55 823.04,1770.65 821.59,1772.71 823.37,1775.65 822.75,1777.11 823.69,1780.53 822,1781.62 821.01,1785.88 817.48,1792.07 816.85,1795.73 811,1791.65 809.32,1792.74 803.91,1793.06 800.45,1791.07 798.05,1791.79 793.93,1795.53 788.05,1795.72 786.51,1794.49 781.44,1796.88 779.49,1800.28 773.45,1804.49 773.4,1809.61 771.45,1812.03 772.63,1813.87 769.97,1815.8 766.87,1813.82 764.34,1814.4 762.97,1818.9 759.92,1823.63 754.15,1823.81 751.52,1822.56 745.16,1822.62 736.78,1819.84 734.63,1818.35 735.5,1816.4 732.03,1815.26 732.06,1812.21 730.53,1810.24 733.54,1808.94 735.93,1810.18 736.91,1808.12 735.13,1806.39 738.77,1802.89 735.93,1800.06 736.68,1797.38 739.81,1796.32 736.25,1792.86 736.28,1790.05 738.36,1787.03 735.36,1786.75 732.88,1783.18 729.28,1783.99 729.55,1780.95 733.42,1778.07 734.17,1776.12 732.15,1774.15 733.03,1771.23 736.63,1770.3 731.04,1767.06 731.58,1761.46 733.53,1759.29 729.36,1757.17 720.77,1763.65 717.54,1763.24 711.46,1760.73 709.05,1762.04 710.93,1774.13 708.02,1777.14 698.08,1776.28 694.14,1774.77 690.83,1771.06 687.96,1770.9 686.19,1768.93 685.05,1764.89 682.77,1764.61 680.71,1766.65 680.19,1769.57 678.5,1770.4 677.61,1773.68 679.39,1775.05 678.48,1780.16 676.77,1782.33 679.04,1791.03 681.56,1791.43 683.33,1793.28 681.6,1797.28 679.78,1798.24 679.6,1802.75 676.92,1805.39 672.37,1804.6 670.6,1802.74 663.66,1801.3 661.16,1799.43 659.57,1801.85 654.12,1804.45 650.29,1804.15 648.63,1802.78 644.89,1803.57 639.98,1810.94 636.81,1813.94 636.52,1816.5 640.8,1819.74 638.55,1825.2 635.51,1827.47 632.01,1828.03 627.6,1825.88 628.87,1822.12 623.16,1818.12 621.05,1815.52 605.58,1813.91 600.28,1814.67 597.12,1816.69 592.82,1815.52 591.66,1813.06 594.56,1812.01 595.17,1804.57 594,1803.21 590.65,1802.66 587.75,1803.59 584.16,1796.2 584.5,1790.96 576.86,1788.87 572.43,1794.64 568.38,1792.98 563.43,1788.49 557.33,1793.25 556.7,1795.07 552.23,1796.33 551.12,1798.13 551.76,1802.05 547.78,1802.95 548.22,1804.91 545.8,1805.84 546.57,1809.27 544.15,1810.44 542.02,1814.55 538.51,1816.31 535.43,1819.91 530.74,1819.82 528.99,1823.32 525.94,1825.33 523.18,1825.15 520.34,1823.26 522.2,1820.25 524.63,1813.22 522.31,1809.39 520.06,1802.14 518.04,1801.12 515.15,1801.55 513.08,1803.21 509.74,1802.16 505.79,1795.73 506.54,1788.79 502.69,1789.56 500.73,1791.23 496.5,1792.84 490.87,1792.23 489.21,1780.72 486.2,1775.65 486.62,1773.1 484.52,1770.61 479.95,1771.12 479.7,1766.23 480.78,1760.89 483.3,1760.7 484.57,1757.93 483.08,1754.84 484.73,1750.74 483.33,1749.24 479.98,1749.04 479.78,1746.96 483.22,1743.38 482.97,1738.75 488.57,1734.61 488.73,1732.78 486.67,1728.47 486.58,1722.01 485.1,1718.68 483.08,1718.15 479.11,1713.55 476.51,1712.27 473.74,1713.3 469.56,1713.08 467.07,1712.05 462.64,1712.07 461.48,1715.94 458.73,1720.75 454.75,1722.11 450.48,1725.3 445.84,1724.34 440.29,1725.91 439.27,1723.81 439.25,1719.66 444.14,1715.52 445.44,1711.16 448.37,1708.68 448.12,1704.53 449.1,1703.58 453.52,1703.68 454.79,1700.54 454.03,1697.24 454.69,1694.69 458.76,1694.3 463.94,1692.48 462.96,1688.8 465.07,1685.44 473.98,1687.35 476.62,1686.81 478.63,1682.71 472.59,1680.5 472.42,1677.69 475.45,1675.69 476.57,1673.65 468.97,1672.01 467.8,1670.64 461.61,1669.89 459.91,1666.19 459.18,1661.67 457.9,1660.42" fill="none" stroke="#1e1e1e" stroke-width="1.1" stroke-linecap="round" stroke-linejoin="round"/>
<path d="M728.9,1178.97L823.33,1179.93L840.07,1173.64L841.65,1180.19L854.37,1180.76L858.1,1181.75L860.19,1183.71L863.49,1197.66L869.8,1217.08L857.04,1237.84L849.51,1243.97L840.5,1243.55L822.43,1248.38L817.39,1248.82L814.26,1259.34L810.07,1269.12L811.52,1278.47L809.26,1281.48L808.25,1289.96L803.41,1293.79L803.15,1297.07L847.66,1325.67L855.24,1335.42L858.72,1341.87L857.65,1363.09L865.86,1367.26L874.68,1368.65L892.59,1365.71L897.89,1365.97L899.28,1370.83L897.72,1377.13L894.52,1380.03L894.39,1383.43L897.43,1389.02L894.9,1399.32L894.99,1406.24L904.42,1407.62L907.6,1406.9L911.85,1407.89L917.87,1406.58L927.4,1411.34L930.35,1411.23L950.2,1397.94L954.1,1391.76L955.64,1387.39L959.3,1383.03L962.14,1377.82L984.99,1369.96L988.29,1371.3L993.58,1381.98L997.23,1398.84L1003.36,1411.22L1002.54,1422.38L1003.13,1426.39L1000.3,1428.94L1000.3,1431L996.52,1430.64L992.15,1434.4L990.14,1434.4L986.48,1436.82L985.77,1443.13L981.75,1448.11L978.55,1450.29L973.95,1451.02L971.82,1453.56L967.8,1455.5L971.81,1460.12L970.27,1462.18L964.36,1460.71L958.2,1466.41L957.49,1469.93L960.79,1472.49L965.87,1479.05L967.16,1485L971.77,1486.95L972.6,1488.53L972.95,1493.51L971.64,1500.07L973.65,1506.03L970.67,1516.96L966.75,1519.62L962.84,1520.1L959.88,1518.88L957.28,1514.87L951.11,1518.02L947.79,1518.62L941.63,1517.51L926.46,1518.31L925.05,1516.24L924.59,1511.99L919.15,1507.96L915,1508.67L912.29,1506.72L908.9,1524.81L906.39,1529.42L901.99,1530.73L872.09,1535.08L868.19,1532.14L865.07,1518.03L858.84,1510.82L853.28,1508.23L852.35,1506.41L844.74,1510.61L835.29,1522.08L831.68,1529.83L828.35,1530.9L825.44,1523.47L816.41,1512.34L813.02,1506.11L807.58,1505.22L792.86,1509.22L778.73,1511.75L764.89,1510.16L759.54,1511.07L753.85,1522.31L736.21,1530.25L730.08,1536.98L725.15,1533.4L719.91,1534.91L718.63,1532.83L715.79,1532.07L714.4,1529.74L713.97,1526.21L711.99,1523.27L712.54,1517.69L711.02,1516.09L707.47,1515.19L704.03,1515.88L701.97,1518.76L692.65,1507.1L687.47,1504.84L665.63,1507.68L660.62,1509.91L657.07,1509.74L655.57,1506.92L656.99,1499.29L656.74,1492.36L654.17,1489.89L648.37,1489.68L641.07,1487.62L633.87,1478.88L635.36,1474.66L639.69,1470.35L641.22,1463.21L641.17,1458.84L646.01,1444.71L649.36,1441.85L652.44,1441.41L657.46,1437.73L660.04,1438.98L666.77,1439.08L671.17,1436.96L674.35,1437.37L674.51,1434.95L677.7,1426.62L676.43,1424.41L672.23,1421.32L670.98,1417.66L670.21,1405.63L656.65,1390.26L655.13,1382.1L657.12,1360.05L675.12,1327.94L679.45,1320.97L688.78,1309.1L691.21,1303.31L695.34,1302.15L709.72,1306.47L713.27,1304.21L718.9,1295.68L719.12,1287.68L712.95,1265.9L707.31,1257.95L700.44,1245.98L702.52,1239.46L713.59,1225.31L717.18,1219.05L725.56,1193.95L728.9,1178.97Z" fill-rule="evenodd" fill="#4682b4" fill-opacity="0.471"/>
<polyline points="728.9,1178.97 823.33,1179.93 840.07,1173.64 841.65,1180.19 854.37,1180.76 858.1,1181.75 860.19,1183.71 863.49,1197.66 869.8,1217.08 857.04,1237.84 849.51,1243.97 840.5,1243.55 822.43,1248.38 817.39,1248.82 814.26,1259.34 810.07,1269.12 811.52,1278.47 809.26,1281.48 808.25,1289.96 803.41,1293.79 803.15,1297.07 847.66,1325.67 855.24,1335.42 858.72,1341.87 857.65,1363.09 865.86,1367.26 874.68,1368.65 892.59,1365.71 897.89,1365.97 899.28,1370.83 897.72,1377.13 894.52,1380.03 894.39,1383.43 897.43,1389.02 894.9,1399.32 894.99,1406.24 904.42,1407.62 907.6,1406.9 911.85,1407.89 917.87,1406.58 927.4,1411.34 930.35,1411.23 950.2,1397.94 954.1,1391.76 955.64,1387.39 959.3,1383.03 962.14,1377.82 984.99,1369.96 988.29,1371.3 993.58,1381.98 997.23,1398.84 1003.36,1411.22 1002.54,1422.38 1003.13,1426.39 1000.3,1428.94 1000.3,1431 996.52,1430.64 992.15,1434.4 990.14,1434.4 986.48,1436.82 985.77,1443.13 981.75,1448.11 978.55,1450.29 973.95,1451.02 971.82,1453.56 967.8,1455.5 971.81,1460.12 970.27,1462.18 964.36,1460.71 958.2,1466.41 957.49,1469.93 960.79,1472.49 965.87,1479.05 967.16,1485 971.77,1486.95 972.6,1488.53 972.95,1493.51 971.64,1500.07 973.65,1506.03 970.67,1516.96 966.75,1519.62 962.84,1520.1 959.88,1518.88 957.28,1514.87 951.11,1518.02 947.79,1518.62 941.63,1517.51 926.46,1518.31 925.05,1516.24 924.59,1511.99 919.15,1507.96 915,1508.67 912.29,1506.72 908.9,1524.81 906.39,1529.42 901.99,1530.73 872.09,1535.08 868.19,1532.14 865.07,1518.03 858.84,1510.82 853.28,1508.23 852.35,1506.41 844.74,1510.61 835.29,1522.08 831.68,1529.83 828.35,1530.9 825.44,1523.47 816.41,1512.34 813.02,1506.11 807.58,1505.22 792.86,1509.22 778.73,1511.75 764.89,1510.16 759.54,1511.07 753.85,1522.31 736.21,1530.25 730.08,1536.98 725.15,1533.4 719.91,1534.91 718.63,1532.83 715.79,1532.07 714.4,1529.74 713.97,1526.21 711.99,1523.27 712.54,1517.69 711.02,1516.09 707.47,1515.19 704.03,1515.88 701.97,1518.76 692.65,1507.1 687.47,1504.84 665.63,1507.68 660.62,1509.91 657.07,1509.74 655.57,1506.92 656.99,1499.29 656.74,1492.36 654.17,1489.89 648.37,1489.68 641.07,1487.62 633.87,1478.88 635.36,1474.66 639.69,1470.35 641.22,1463.21 641.17,1458.84 646.01,1444.71 649.36,1441.85 652.44,1441.41 657.46,1437.73 660.04,1438.98 666.77,1439.08 671.17,1436.96 674.35,1437.37 674.51,1434.95 677.7,1426.62 676.43,1424.41 672.23,1421.32 670.98,1417.66 670.21,1405.63 656.65,1390.26 655.13,1382.1 657.12,1360.05 675.12,1327.94 679.45,1320.97 688.78,1309.1 691.21,1303.31 695.34,1302.15 709.72,1306.47 713.27,1304.21 718.9,1295.68 719.12,1287.68 712.95,1265.9 707.31,1257.95 700.44,1245.98 702.52,1239.46 713.59,1225.31 717.18,1219.05 725.56,1193.95 728.9,1178.97" fill="none" stroke="#1e1e1e" stroke-width="1.1" stroke-linecap="round" stroke-linejoin="round"/>
<path d="M840.07,1173.64L854.98,1159.08L864.15,1167.01L871.02,1168.27L881.29,1167.84L893.3,1169.6L918.15,1170.67L945.94,1161.67L954.47,1155.76L964.97,1151.66L970.1,1150.69L982.69,1143.08L993.18,1142.11L996.79,1151.44L1004.61,1158.47L1008.45,1158.47L1012.89,1160.04L1016.16,1172.03L1014.53,1174.69L1013.13,1179.66L1015.82,1180.51L1018.73,1179.9L1021.77,1181.71L1028.31,1181.1L1036.36,1181.45L1038.35,1182.3L1045.46,1175.86L1052.78,1165.31L1057.08,1157.79L1058.82,1152.33L1065.57,1149.41L1071.98,1148.78L1075.12,1146.47L1076.98,1146.46L1077.67,1142.58L1081.61,1138.09L1086.39,1136.62L1088.95,1137.58L1091.86,1136.6L1093.26,1137.44L1092.23,1141.2L1095.38,1141.43L1123.67,1138.14L1125.82,1146.36L1136.43,1147.02L1141.6,1153.89L1143.76,1163.21L1162.31,1195.91L1169.95,1201.55L1179.55,1203.65L1193.53,1199.29L1214.83,1190.86L1233.26,1188.13L1242.01,1187.31L1253.35,1188.15L1268.64,1187.36L1291.03,1193.86L1303.85,1200.11L1313.41,1207.13L1324.2,1217.15L1379.27,1229.97L1341.89,1264.64L1339.07,1264.68L1312.8,1271.73L1270.94,1299.92L1259.35,1302.49L1244.08,1301.69L1235.53,1303.48L1233.78,1337.94L1221.49,1343.52L1212.62,1338.15L1198.57,1331.36L1177.72,1325.48L1164.28,1335.65L1154.12,1345.54L1138.88,1352.68L1135.01,1355.49L1133.16,1361.32L1135.41,1362.89L1130.32,1378.2L1127.29,1383.8L1127.35,1394.48L1131.18,1404.04L1122,1407.61L1120.1,1404.47L1115.49,1404L1112.81,1408.87L1110.33,1408.4L1109.13,1403.91L1106.53,1402.71L1103.57,1399.94L1100.86,1400.92L1093.55,1400.95L1091.53,1398.05L1085.52,1396.98L1084.23,1398.68L1087.18,1400.86L1086.87,1412.51L1083.58,1415.92L1086.39,1439.33L1088.4,1440.42L1088.91,1448.55L1076.62,1448.71L1070.83,1450.07L1064.93,1450.09L1064.7,1453.73L1066.73,1461.98L1064.26,1464.54L1061.78,1464.79L1057.75,1463.22L1054.8,1463.59L1051.96,1461.9L1051.48,1460.08L1047.1,1459.36L1037.04,1450.39L1031.25,1448.22L1028.41,1445.91L1028.76,1444.33L1022.26,1438.64L1019.78,1440.1L1008.68,1437.31L1003.13,1437.92L1002.77,1434.28L1005.84,1433.31L1006.67,1431.24L1005.61,1426.51L1002.54,1422.38L1003.36,1411.22L997.23,1398.84L993.58,1381.98L988.29,1371.3L984.99,1369.96L962.14,1377.82L959.3,1383.03L955.64,1387.39L954.1,1391.76L950.2,1397.94L930.35,1411.23L927.4,1411.34L917.87,1406.58L911.85,1407.89L907.6,1406.9L904.42,1407.62L894.99,1406.24L894.9,1399.32L897.43,1389.02L894.39,1383.43L894.52,1380.03L897.72,1377.13L899.28,1370.83L897.89,1365.97L892.59,1365.71L874.68,1368.65L865.86,1367.26L857.65,1363.09L858.72,1341.87L855.24,1335.42L847.66,1325.67L803.15,1297.07L803.41,1293.79L808.25,1289.96L809.26,1281.48L811.52,1278.47L810.07,1269.12L814.26,1259.34L817.39,1248.82L822.43,1248.38L840.5,1243.55L849.51,1243.97L857.04,1237.84L869.8,1217.08L863.49,1197.66L860.19,1183.71L858.1,1181.75L854.37,1180.76L841.65,1180.19L840.07,1173.64Z" fill-rule="evenodd" fill="#4682b4" fill-opacity="0.471"/>
<polyline points="840.07,1173.64 854.98,1159.08 864.15,1167.01 871.02,1168.27 881.29,1167.84 893.3,1169.6 918.15,1170.67 945.94,1161.67 954.47,1155.76 964.97,1151.66 970.1,1150.69 982.69,1143.08 993.18,1142.11 996.79,1151.44 1004.61,1158.47 1008.45,1158.47 1012.89,1160.04 1016.16,1172.03 1014.53,1174.69 1013.13,1179.66 1015.82,1180.51 1018.73,1179.9 1021.77,1181.71 1028.31,1181.1 1036.36,1181.45 1038.35,1182.3 1045.46,1175.86 1052.78,1165.31 1057.08,1157.79 1058.82,1152.33 1065.57,1149.41 1071.98,1148.78 1075.12,1146.47 1076.98,1146.46 1077.67,1142.58 1081.61,1138.09 1086.39,1136.62 1088.95,1137.58 1091.86,1136.6 1093.26,1137.44 1092.23,1141.2 1095.38,1141.43 1123.67,1138.14 1125.82,1146.36 1136.43,1147.02 1141.6,1153.89 1143.76,1163.21 1162.31,1195.91 1169.95,1201.55 1179.55,1203.65 1193.53,1199.29 1214.83,1190.86 1233.26,1188.13 1242.01,1187.31 1253.35,1188.15 1268.64,1187.36 1291.03,1193.86 1303.85,1200.11 1313.41,1207.13 1324.2,1217.15 1379.27,1229.97 1341.89,1264.64 1339.07,1264.68 1312.8,1271.73 1270.94,1299.92 1259.35,1302.49 1244.08,1301.69 1235.53,1303.48 1233.78,1337.94 1221.49,1343.52 1212.62,1338.15 1198.57,1331.36 1177.72,1325.48 1164.28,1335.65 1154.12,1345.54 1138.88,1352.68 1135.01,1355.49 1133.16,1361.32 1135.41,1362.89 1130.32,1378.2 1127.29,1383.8 1127.35,1394.48 1131.18,1404.04 1122,1407.61 1120.1,1404.47 1115.49,1404 1112.81,1408.87 1110.33,1408.4 1109.13,1403.91 1106.53,1402.71 1103.57,1399.94 1100.86,1400.92 1093.55,1400.95 1091.53,1398.05 1085.52,1396.98 1084.23,1398.68 1087.18,1400.86 1086.87,1412.51 1083.58,1415.92 1086.39,1439.33 1088.4,1440.42 1088.91,1448.55 1076.62,1448.71 1070.83,1450.07 1064.93,1450.09 1064.7,1453.73 1066.73,1461.98 1064.26,1464.54 1061.78,1464.79 1057.75,1463.22 1054.8,1463.59 1051.96,1461.9 1051.48,1460.08 1047.1,1459.36 1037.04,1450.39 1031.25,1448.22 1028.41,1445.91 1028.76,1444.33 1022.26,1438.64 1019.78,1440.1 1008.68,1437.31 1003.13,1437.92 1002.77,1434.28 1005.84,1433.31 1006.67,1431.24 1005.61,1426.51 1002.54,1422.38 1003.36,1411.22 997.23,1398.84 993.58,1381.98 988.29,1371.3 984.99,1369.96 962.14,1377.82 959.3,1383.03 955.64,1387.39 954.1,1391.76 950.2,1397.94 930.35,1411.23 927.4,1411.34 917.87,1406.58 911.85,1407.89 907.6,1406.9 904.42,1407.62 894.99,1406.24 894.9,1399.32 897.43,1389.02 894.39,1383.43 894.52,1380.03 897.72,1377.13 899.28,1370.83 897.89,1365.97 892.59,1365.71 874.68,1368.65 865.86,1367.26 857.65,1363.09 858.72,1341.87 855.24,1335.42 847.66,1325.67 803.15,1297.07 803.41,1293.79 808.25,1289.96 809.26,1281.48 811.52,1278.47 810.07,1269.12 814.26,1259.34 817.39,1248.82 822.43,1248.38 840.5,1243.55 849.51,1243.97 857.04,1237.84 869.8,1217.08 863.49,1197.66 860.19,1183.71 858.1,1181.75 854.37,1180.76 841.65,1180.19 840.07,1173.64" fill="none" stroke="#1e1e1e" stroke-width="1.1" stroke-linecap="round" stroke-linejoin="round"/>
<path d="M906.33,27.8L1080.19,151.63L1193.67,230.64L1343.94,333.43L1446.68,402.47L1423.92,482.19L1306.11,586.42L1219.8,634.49L1344.84,735.35L1354.67,749.24L1350.28,874.76L1263.15,935.06L1275.05,982.13L1281.08,1001.19L1382.42,1008.01L1382.53,1027.38L1380.12,1042.56L1383.17,1111.05L1389.27,1140.26L1398.58,1178.25L1413.04,1227.19L1381.69,1227.75L1379.27,1229.97L1324.2,1217.15L1313.41,1207.13L1303.85,1200.11L1291.03,1193.86L1268.64,1187.36L1253.35,1188.15L1242.01,1187.31L1233.26,1188.13L1214.83,1190.86L1193.53,1199.29L1179.55,1203.65L1169.95,1201.55L1162.31,1195.91L1143.76,1163.21L1141.6,1153.89L1136.43,1147.02L1125.82,1146.36L1123.67,1138.14L1095.38,1141.43L1092.23,1141.2L1093.26,1137.44L1091.86,1136.6L1088.95,1137.58L1086.39,1136.62L1081.61,1138.09L1077.67,1142.58L1076.98,1146.46L1075.12,1146.47L1071.98,1148.78L1065.57,1149.41L1058.82,1152.33L1057.08,1157.79L1052.78,1165.31L1045.46,1175.86L1038.35,1182.3L1036.36,1181.45L1028.31,1181.1L1021.77,1181.71L1018.73,1179.9L1015.82,1180.51L1013.13,1179.66L1014.53,1174.69L1016.16,1172.03L1012.89,1160.04L1008.45,1158.47L1004.61,1158.47L996.79,1151.44L993.18,1142.11L982.69,1143.08L970.1,1150.69L964.97,1151.66L954.47,1155.76L945.94,1161.67L918.15,1170.67L893.3,1169.6L881.29,1167.84L871.02,1168.27L864.15,1167.01L854.98,1159.08L840.07,1173.64L823.33,1179.93L843.54,1079.19L811.64,1058.72L780.23,733.1L734.74,245.56L725.01,151.58L713.92,26.05L906.33,27.8Z" fill-rule="evenodd" fill="#4682b4" fill-opacity="0.471"/>
<polyline points="906.33,27.8 1080.19,151.63 1193.67,230.64 1343.94,333.43 1446.68,402.47 1423.92,482.19 1306.11,586.42 1219.8,634.49 1344.84,735.35 1354.67,749.24 1350.28,874.76 1263.15,935.06 1275.05,982.13 1281.08,1001.19 1382.42,1008.01 1382.53,1027.38 1380.12,1042.56 1383.17,1111.05 1389.27,1140.26 1398.58,1178.25 1413.04,1227.19 1381.69,1227.75 1379.27,1229.97 1324.2,1217.15 1313.41,1207.13 1303.85,1200.11 1291.03,1193.86 1268.64,1187.36 1253.35,1188.15 1242.01,1187.31 1233.26,1188.13 1214.83,1190.86 1193.53,1199.29 1179.55,1203.65 1169.95,1201.55 1162.31,1195.91 1143.76,1163.21 1141.6,1153.89 1136.43,1147.02 1125.82,1146.36 1123.67,1138.14 1095.38,1141.43 1092.23,1141.2 1093.26,1137.44 1091.86,1136.6 1088.95,1137.58 1086.39,1136.62 1081.61,1138.09 1077.67,1142.58 1076.98,1146.46 1075.12,1146.47 1071.98,1148.78 1065.57,1149.41 1058.82,1152.33 1057.08,1157.79 1052.78,1165.31 1045.46,1175.86 1038.35,1182.3 1036.36,1181.45 1028.31,1181.1 1021.77,1181.71 1018.73,1179.9 1015.82,1180.51 1013.13,1179.66 1014.53,1174.69 1016.16,1172.03 1012.89,1160.04 1008.45,1158.47 1004.61,1158.47 996.79,1151.44 993.18,1142.11 982.69,1143.08 970.1,1150.69 964.97,1151.66 954.47,1155.76 945.94,1161.67 918.15,1170.67 893.3,1169.6 881.29,1167.84 871.02,1168.27 864.15,1167.01 854.98,1159.08 840.07,1173.64 823.33,1179.93 843.54,1079.19 811.64,1058.72 780.23,733.1 734.74,245.56 725.01,151.58 713.92,26.05 906.33,27.8" fill="none" stroke="#1e1e1e" stroke-width="1.1" stroke-linecap="round" stroke-linejoin="round"/>
<path d="M1354.67,749.24L1465.26,775.01L1489.7,821.82L1512.86,853.86L1529.4,871.87L1571.89,888.85L1603.63,902.64L1665.75,885.7L1615.16,1001.39L1637.88,1045.56L1628.11,1098.05L1639.75,1118.07L1622.36,1129.23L1627.78,1160.09L1619.06,1198.88L1583.61,1233.53L1579.92,1235.81L1572.7,1237.21L1552.61,1239.18L1547.27,1241.25L1537.83,1238.45L1533.68,1236.13L1526.87,1235.32L1512.92,1239.65L1493.74,1235.72L1481.86,1238.65L1473.91,1239.18L1437.61,1227.32L1420.94,1236.73L1415.96,1227.25L1413.04,1227.19L1398.58,1178.25L1389.27,1140.26L1383.17,1111.05L1380.12,1042.56L1382.53,1027.38L1382.42,1008.01L1281.08,1001.19L1275.05,982.13L1263.15,935.06L1350.28,874.76L1354.67,749.24Z" fill-rule="evenodd" fill="#4682b4" fill-opacity="0.471"/>
<polyline points="1354.67,749.24 1465.26,775.01 1489.7,821.82 1512.86,853.86 1529.4,871.87 1571.89,888.85 1603.63,902.64 1665.75,885.7 1615.16,1001.39 1637.88,1045.56 1628.11,1098.05 1639.75,1118.07 1622.36,1129.23 1627.78,1160.09 1619.06,1198.88 1583.61,1233.53 1579.92,1235.81 1572.7,1237.21 1552.61,1239.18 1547.27,1241.25 1537.83,1238.45 1533.68,1236.13 1526.87,1235.32 1512.92,1239.65 1493.74,1235.72 1481.86,1238.65 1473.91,1239.18 1437.61,1227.32 1420.94,1236.73 1415.96,1227.25 1413.04,1227.19 1398.58,1178.25 1389.27,1140.26 1383.17,1111.05 1380.12,1042.56 1382.53,1027.38 1382.42,1008.01 1281.08,1001.19 1275.05,982.13 1263.15,935.06 1350.28,874.76 1354.67,749.24" fill="none" stroke="#1e1e1e" stroke-width="1.1" stroke-linecap="round" stroke-linejoin="round"/>
<path d="M1446.68,402.47L1583.01,492.52L1583.86,498.57L1586.21,506.15L1585.53,510.29L1586.36,515.73L1583.75,532.05L1583.91,538.23L1585.54,539.77L1591.44,539.85L1593.11,538.59L1601.25,537.63L1603.94,540.47L1605.55,545.15L1609.81,547.58L1610.7,546.83L1616.65,548.35L1622.86,551.33L1632.81,553.71L1633.89,555.74L1638.73,558.38L1641.69,562.3L1640.81,563.29L1642.77,567.96L1641.39,571.28L1642.56,572.46L1642.24,576.95L1645.48,578.8L1650.15,583.02L1654.64,584.95L1654.93,586.76L1657.4,589.59L1660.61,590.46L1663.2,589.41L1667.18,589.65L1668.97,595.9L1671.77,598.12L1674.47,593.67L1677.97,592.71L1680.79,595.65L1684.67,592.26L1686.26,592.33L1690.1,595.11L1695.78,594.81L1696.63,592.84L1699.7,592.74L1702.23,590.36L1702.32,585.99L1704.69,585.55L1707.15,587.53L1711.36,587.75L1716.02,591.12L1715.47,594.89L1716.8,597.4L1719.44,598.16L1721.23,600.64L1721.46,604.03L1723.69,606.02L1725.38,605.6L1726.76,609.31L1724.27,613.03L1725.03,615.31L1724.05,620.19L1726.73,618.52L1726.53,616.1L1728.18,614.23L1735.27,611.69L1740.86,612.22L1745.31,618.86L1749.29,618.72L1752.38,616.07L1757.06,616.15L1757.54,610.43L1760.89,611.77L1763.74,621.49L1765.38,622.88L1767.87,622.43L1769.55,624.68L1772.96,624.55L1775.29,626.05L1779.13,624.94L1781.7,626.66L1783.13,625.4L1785.9,626.39L1792.87,626.86L1799.76,631.21L1804.47,632.25L1812.42,637.53L1818.65,639.36L1822.98,639.19L1825.71,642L1824.1,647.76L1824.58,651.25L1822.78,655.08L1823.28,659.18L1825.46,662.37L1825.14,665.9L1823.61,667.9L1823.6,670.45L1827.61,676.72L1825.82,680.78L1828.07,685.91L1827.8,687.86L1821.56,689.07L1820.59,693.59L1818.47,697.91L1819.27,700.91L1821.43,703.62L1821.47,707.74L1818.19,711.74L1816.51,715.68L1812.98,719.21L1812.2,722.75L1813.48,726.34L1817.87,727.51L1823.31,732.15L1826.69,733.47L1831.17,736.94L1833.48,740.48L1838.46,741.87L1840.86,744.44L1943.94,718.87L1949.93,856.4L1829.39,858.65L1717.43,858.63L1686.6,859.5L1665.75,885.7L1603.63,902.64L1571.89,888.85L1529.4,871.87L1512.86,853.86L1489.7,821.82L1465.26,775.01L1354.67,749.24L1344.84,735.35L1219.8,634.49L1306.11,586.42L1423.92,482.19L1446.68,402.47Z" fill-rule="evenodd" fill="#4682b4" fill-opacity="0.471"/>
<polyline points="1446.68,402.47 1583.01,492.52 1583.86,498.57 1586.21,506.15 1585.53,510.29 1586.36,515.73 1583.75,532.05 1583.91,538.23 1585.54,539.77 1591.44,539.85 1593.11,538.59 1601.25,537.63 1603.94,540.47 1605.55,545.15 1609.81,547.58 1610.7,546.83 1616.65,548.35 1622.86,551.33 1632.81,553.71 1633.89,555.74 1638.73,558.38 1641.69,562.3 1640.81,563.29 1642.77,567.96 1641.39,571.28 1642.56,572.46 1642.24,576.95 1645.48,578.8 1650.15,583.02 1654.64,584.95 1654.93,586.76 1657.4,589.59 1660.61,590.46 1663.2,589.41 1667.18,589.65 1668.97,595.9 1671.77,598.12 1674.47,593.67 1677.97,592.71 1680.79,595.65 1684.67,592.26 1686.26,592.33 1690.1,595.11 1695.78,594.81 1696.63,592.84 1699.7,592.74 1702.23,590.36 1702.32,585.99 1704.69,585.55 1707.15,587.53 1711.36,587.75 1716.02,591.12 1715.47,594.89 1716.8,597.4 1719.44,598.16 1721.23,600.64 1721.46,604.03 1723.69,606.02 1725.38,605.6 1726.76,609.31 1724.27,613.03 1725.03,615.31 1724.05,620.19 1726.73,618.52 1726.53,616.1 1728.18,614.23 1735.27,611.69 1740.86,612.22 1745.31,618.86 1749.29,618.72 1752.38,616.07 1757.06,616.15 1757.54,610.43 1760.89,611.77 1763.74,621.49 1765.38,622.88 1767.87,622.43 1769.55,624.68 1772.96,624.55 1775.29,626.05 1779.13,624.94 1781.7,626.66 1783.13,625.4 1785.9,626.39 1792.87,626.86 1799.76,631.21 1804.47,632.25 1812.42,637.53 1818.65,639.36 1822.98,639.19 1825.71,642 1824.1,647.76 1824.58,651.25 1822.78,655.08 1823.28,659.18 1825.46,662.37 1825.14,665.9 1823.61,667.9 1823.6,670.45 1827.61,676.72 1825.82,680.78 1828.07,685.91 1827.8,687.86 1821.56,689.07 1820.59,693.59 1818.47,697.91 1819.27,700.91 1821.43,703.62 1821.47,707.74 1818.19,711.74 1816.51,715.68 1812.98,719.21 1812.2,722.75 1813.48,726.34 1817.87,727.51 1823.31,732.15 1826.69,733.47 1831.17,736.94 1833.48,740.48 1838.46,741.87 1840.86,744.44 1943.94,718.87 1949.93,856.4 1829.39,858.65 1717.43,858.63 1686.6,859.5 1665.75,885.7 1603.63,902.64 1571.89,888.85 1529.4,871.87 1512.86,853.86 1489.7,821.82 1465.26,775.01 1354.67,749.24 1344.84,735.35 1219.8,634.49 1306.11,586.42 1423.92,482.19 1446.68,402.47" fill="none" stroke="#1e1e1e" stroke-width="1.1" stroke-linecap="round" stroke-linejoin="round"/>
<path d="M1619.06,1198.88L1627.78,1160.09L1622.36,1129.23L1639.75,1118.07L1628.11,1098.05L1637.88,1045.56L1615.16,1001.39L1665.75,885.7L1686.6,859.5L1717.43,858.63L1829.39,858.65L1949.93,856.4L1955.23,977.95L1949.11,978.46L1949.15,998.21L1948.22,1000.91L1950.65,1051.71L1941.37,1057.56L1939.07,1060.93L1935.63,1073.2L1931.52,1080.52L1927.41,1090.75L1928.49,1097.01L1927.24,1100.58L1927.23,1108.46L1921.77,1117.29L1919.21,1131.58L1915.85,1137.78L1913.37,1139.71L1907.63,1142.13L1898.8,1143.09L1895.97,1145.39L1884.22,1160.9L1878.08,1165.02L1878.71,1169.24L1878.35,1174.95L1875.72,1179.18L1873.55,1180.6L1819.3,1174.06L1818.57,1176.52L1818.42,1185.13L1773.55,1185.65L1619.06,1198.88Z" fill-rule="evenodd" fill="#4682b4" fill-opacity="0.471"/>
<polyline points="1619.06,1198.88 1627.78,1160.09 1622.36,1129.23 1639.75,1118.07 1628.11,1098.05 1637.88,1045.56 1615.16,1001.39 1665.75,885.7 1686.6,859.5 1717.43,858.63 1829.39,858.65 1949.93,856.4 1955.23,977.95 1949.11,978.46 1949.15,998.21 1948.22,1000.91 1950.65,1051.71 1941.37,1057.56 1939.07,1060.93 1935.63,1073.2 1931.52,1080.52 1927.41,1090.75 1928.49,1097.01 1927.24,1100.58 1927.23,1108.46 1921.77,1117.29 1919.21,1131.58 1915.85,1137.78 1913.37,1139.71 1907.63,1142.13 1898.8,1143.09 1895.97,1145.39 1884.22,1160.9 1878.08,1165.02 1878.71,1169.24 1878.35,1174.95 1875.72,1179.18 1873.55,1180.6 1819.3,1174.06 1818.57,1176.52 1818.42,1185.13 1773.55,1185.65 1619.06,1198.88" fill="none" stroke="#1e1e1e" stroke-width="1.1" stroke-linecap="round" stroke-linejoin="round"/>
<path d="M515.25,1529.85L518.69,1518.74L522.1,1520.03L523.33,1518.11L526.41,1518.18L531.11,1514.75L532.34,1518.06L534.7,1518.72L535.48,1521.04L535.24,1526.75L533.29,1529.5L533.83,1537.78L531.78,1539.08L525.42,1537L523.3,1530.75L519.87,1530.32L516.27,1531.94L515.25,1529.85Z" fill-rule="evenodd" fill="#4682b4" fill-opacity="0.471"/>
<polyline points="515.25,1529.85 518.69,1518.74 522.1,1520.03 523.33,1518.11 526.41,1518.18 531.11,1514.75 532.34,1518.06 534.7,1518.72 535.48,1521.04 535.24,1526.75 533.29,1529.5 533.83,1537.78 531.78,1539.08 525.42,1537 523.3,1530.75 519.87,1530.32 516.27,1531.94 515.25,1529.85" fill="none" stroke="#1e1e1e" stroke-width="1.1" stroke-linecap="round" stroke-linejoin="round"/>
<text x="1005.93" y="637.16" font-family="sans-serif" font-size="14" stroke="#ffffff" stroke-opacity="0.784" stroke-width="2.33" stroke-linejoin="round" paint-order="stroke" fill="#141414">Timbuktu</text>
<text x="1564.45" y="696.62" font-family="sans-serif" font-size="14" stroke="#ffffff" stroke-opacity="0.784" stroke-width="2.33" stroke-linejoin="round" paint-order="stroke" fill="#141414">Kidal</text>
<text x="238.43" y="1372.43" font-family="sans-serif" font-size="14" stroke="#ffffff" stroke-opacity="0.784" stroke-width="2.33" stroke-linejoin="round" paint-order="stroke" fill="#141414">Kayes</text>
<text x="1460.22" y="1014.65" font-family="sans-serif" font-size="14" stroke="#ffffff" stroke-opacity="0.784" stroke-width="2.33" stroke-linejoin="round" paint-order="stroke" fill="#141414">Gao</text>
<text x="527.53" y="1410.87" font-family="sans-serif" font-size="14" stroke="#ffffff" stroke-opacity="0.784" stroke-width="2.33" stroke-linejoin="round" paint-order="stroke" fill="#141414">Koulikoro</text>
<text x="1752.84" y="1027.26" font-family="sans-serif" font-size="14" stroke="#ffffff" stroke-opacity="0.784" stroke-width="2.33" stroke-linejoin="round" paint-order="stroke" fill="#141414">Ménaka</text>
<text x="1031.39" y="1283.9" font-family="sans-serif" font-size="14" stroke="#ffffff" stroke-opacity="0.784" stroke-width="2.33" stroke-linejoin="round" paint-order="stroke" fill="#141414">Mopti</text>
<text x="660.63" y="1680.06" font-family="sans-serif" font-size="14" stroke="#ffffff" stroke-opacity="0.784" stroke-width="2.33" stroke-linejoin="round" paint-order="stroke" fill="#141414">Sikasso</text>
<text x="772.37" y="1391.6" font-family="sans-serif" font-size="14" stroke="#ffffff" stroke-opacity="0.784" stroke-width="2.33" stroke-linejoin="round" paint-order="stroke" fill="#141414">Ségou</text>
<text x="492.79" y="1533.65" font-family="sans-serif" font-size="14" stroke="#ffffff" stroke-opacity="0.784" stroke-width="2.33" stroke-linejoin="round" paint-order="stroke" fill="#141414">Bamako</text>
</svg>
