<?xml version="1.0" encoding="UTF-8" standalone="no"?>
<svg xmlns="http://www.w3.org/2000/svg" width="1871" height="2000" viewBox="0 0 1871 2000">
<rect width="1871" height="2000" fill="#ffffff"/>
<path d="M48.44,1675.25L40.28,1894.99L25.34,1913.64L9.66,1930.45L19.49,1674.16L48.44,1675.25Z" fill-rule="evenodd" fill="#4682b4" fill-opacity="0.471"/>
<polyline points="48.44,1675.25 40.28,1894.99 25.34,1913.64 9.66,1930.45 19.49,1674.16 48.44,1675.25" fill="none" stroke="#1e1e1e" stroke-width="1.19" stroke-linecap="round" stroke-linejoin="round"/>
<path d="M76.04,847.91L75.5,849.95L76.23,851.45L74.9,855.42L72.87,858.68L67.83,863.29L66.5,865.59L64.92,870.46L65.11,874.18L66.81,874.55L67.12,876.32L62.33,882.61L63.12,892.85L61.08,900.28L61.84,903.08L61.38,907.12L59.66,912.37L59.47,916.6L56.59,925L55.94,932.09L53.03,941.38L53.18,948.74L51.9,951.42L49.23,965.25L50.06,968.69L46.51,981.63L46.26,993.74L45.5,995.82L51.21,846.97L76.04,847.91Z" fill-rule="evenodd" fill="#4682b4" fill-opacity="0.471"/>
<polyline points="76.04,847.91 75.5,849.95 76.23,851.45 74.9,855.42 72.87,858.68 67.83,863.29 66.5,865.59 64.92,870.46 65.11,874.18 66.81,874.55 67.12,876.32 62.33,882.61 63.12,892.85 61.08,900.28 61.84,903.08 61.38,907.12 59.66,912.37 59.47,916.6 56.59,925 55.94,932.09 53.03,941.38 53.18,948.74 51.9,951.42 49.23,965.25 50.06,968.69 46.51,981.63 46.26,993.74 45.5,995.82 51.21,846.97 76.04,847.91" fill="none" stroke="#1e1e1e" stroke-width="1.19" stroke-linecap="round" stroke-linejoin="round"/>
<path d="M44.37,1025.4L46.78,1029.85L47.8,1029.46L47.67,1025.22L49.71,1019.34L49.5,1017.8L50.52,1016.75L47.1,1014.11L46.3,1011.18L48.81,1007.64L49.55,1007.86L48.33,1008.31L48.67,1008.92L52.43,1007.59L53.18,1001.44L54.48,999.19L53.83,997.83L55.13,992.65L54.79,991.14L52.58,991.88L54.11,992.42L53.85,995.93L53.34,995L53.58,992.66L52.5,992.29L53.11,991.01L52.29,990.71L51.75,987.78L52.47,986.8L53.6,986.54L53.44,987.14L55.21,988.36L55.52,990.45L57.56,988.99L58.55,986.64L59.71,986.34L61.15,979.38L64.78,977.54L64.21,976.7L65.91,971.23L66.8,969.61L68.76,968.9L69.08,970.1L69.44,969.69L69.24,971.63L70.33,972.15L72.77,976.31L73.35,984.87L74.06,985.39L63.93,1258.13L35.49,1257.05L44.37,1025.4Z" fill-rule="evenodd" fill="#4682b4" fill-opacity="0.471"/>
<polyline points="44.37,1025.4 46.78,1029.85 47.8,1029.46 47.67,1025.22 49.71,1019.34 49.5,1017.8 50.52,1016.75 47.1,1014.11 46.3,1011.18 48.81,1007.64 49.55,1007.86 48.33,1008.31 48.67,1008.92 52.43,1007.59 53.18,1001.44 54.48,999.19 53.83,997.83 55.13,992.65 54.79,991.14 52.58,991.88 54.11,992.42 53.85,995.93 53.34,995 53.58,992.66 52.5,992.29 53.11,991.01 52.29,990.71 51.75,987.78 52.47,986.8 53.6,986.54 53.44,987.14 55.21,988.36 55.52,990.45 57.56,988.99 58.55,986.64 59.71,986.34 61.15,979.38 64.78,977.54 64.21,976.7 65.91,971.23 66.8,969.61 68.76,968.9 69.08,970.1 69.44,969.69 69.24,971.63 70.33,972.15 72.77,976.31 73.35,984.87 74.06,985.39 63.93,1258.13 35.49,1257.05 44.37,1025.4" fill="none" stroke="#1e1e1e" stroke-width="1.19" stroke-linecap="round" stroke-linejoin="round"/>
<path d="M94.12,445.22L79.43,840.76L78.23,844.62L75.98,848.04L51.21,847.1L66.66,444.18L94.12,445.22Z" fill-rule="evenodd" fill="#4682b4" fill-opacity="0.471"/>
<polyline points="94.12,445.22 79.43,840.76 78.23,844.62 75.98,848.04 51.21,847.1 66.66,444.18 94.12,445.22" fill="none" stroke="#1e1e1e" stroke-width="1.19" stroke-linecap="round" stroke-linejoin="round"/>
<path d="M110.3,9.42L108.81,49.57L81.83,48.55L83.37,8.4L110.3,9.42Z" fill-rule="evenodd" fill="#4682b4" fill-opacity="0.471"/>
<polyline points="110.3,9.42 108.81,49.57 81.83,48.55 83.37,8.4 110.3,9.42" fill="none" stroke="#1e1e1e" stroke-width="1.19" stroke-linecap="round" stroke-linejoin="round"/>
<path d="M114.44,1677.61L113.34,1680.32L110.63,1700.22L107.81,1706.65L109.34,1706.3L109.63,1705.45L110.43,1705.85L110.25,1706.61L108.54,1707.04L99.67,1733.04L100.66,1744.5L100.12,1766.68L98.22,1784.7L98.37,1790.77L98.87,1787.23L100.14,1786.34L97.56,1798.65L88.82,1821.98L79.26,1838.58L40.14,1895.17L48.31,1675.25L114.44,1677.61Z" fill-rule="evenodd" fill="#4682b4" fill-opacity="0.471"/>
<polyline points="114.44,1677.61 113.34,1680.32 110.63,1700.22 107.81,1706.65 109.34,1706.3 109.63,1705.45 110.43,1705.85 110.25,1706.61 108.54,1707.04 99.67,1733.04 100.66,1744.5 100.12,1766.68 98.22,1784.7 98.37,1790.77 98.87,1787.23 100.14,1786.34 97.56,1798.65 88.82,1821.98 79.26,1838.58 40.14,1895.17 48.31,1675.25 114.44,1677.61" fill="none" stroke="#1e1e1e" stroke-width="1.19" stroke-linecap="round" stroke-linejoin="round"/>
<path d="M119.38,1259.99L123.39,1268.86L126.47,1271.55L139.53,1279.55L146.13,1286.81L153.89,1298.28L163.16,1321.08L165.54,1337.41L165.72,1343.56L167.46,1348.16L169.63,1364.23L173.62,1374.24L175.05,1375.87L179.92,1394.69L180.41,1413.27L182.79,1439.57L182.38,1461.52L180.93,1467.8L180.2,1468.16L182.08,1468.02L182.13,1468.89L181.4,1468.93L182.92,1468.94L183.11,1469.9L180.59,1480.65L177.82,1511.34L175.44,1525.37L168.01,1552.57L158.48,1577.19L128.03,1644.38L114.39,1677.75L48.3,1675.38L63.81,1257.99L119.38,1259.99Z" fill-rule="evenodd" fill="#4682b4" fill-opacity="0.471"/>
<polyline points="119.38,1259.99 123.39,1268.86 126.47,1271.55 139.53,1279.55 146.13,1286.81 153.89,1298.28 163.16,1321.08 165.54,1337.41 165.72,1343.56 167.46,1348.16 169.63,1364.23 173.62,1374.24 175.05,1375.87 179.92,1394.69 180.41,1413.27 182.79,1439.57 182.38,1461.52 180.93,1467.8 180.2,1468.16 182.08,1468.02 182.13,1468.89 181.4,1468.93 182.92,1468.94 183.11,1469.9 180.59,1480.65 177.82,1511.34 175.44,1525.37 168.01,1552.57 158.48,1577.19 128.03,1644.38 114.39,1677.75 48.3,1675.38 63.81,1257.99 119.38,1259.99" fill="none" stroke="#1e1e1e" stroke-width="1.19" stroke-linecap="round" stroke-linejoin="round"/>
<path d="M63.8,1258.12L73.93,985.3L75.24,986.26L75.54,991.17L78.2,992.88L79.37,996.08L81.33,997.55L81.69,1002.65L83.58,1006.86L86.77,1007.78L85.52,1007.05L85.89,1006.29L87.36,1007.37L87.67,1012.44L89.76,1016.9L89.46,1021.55L93.58,1025.56L94.81,1027.68L95.55,1031.5L97.74,1034.65L102.01,1037.4L101.62,1042.54L100.3,1044.26L100.64,1045.93L102.4,1046.65L103.16,1048.22L105.44,1049.03L108.35,1053.79L111.66,1056.73L112.97,1059.07L121.36,1065.9L120.99,1065.13L122.24,1062L121.27,1056.74L122.18,1049.29L121.36,1047.01L122.52,1038.98L123.15,1037.97L123.8,1039.75L128.58,1040.3L127.89,1045.54L128.37,1047.03L134.28,1054.4L134.98,1054.88L135.19,1053.34L136.18,1053.39L136.35,1060.51L140.75,1066.11L143.01,1072.01L144,1079.42L146.47,1085.44L145.27,1087.38L148.69,1091.89L149.93,1092.22L151.01,1098.08L153.67,1102.58L155.59,1103.25L158.44,1110.59L161.74,1109.39L163.05,1110.89L167.46,1121.99L166.18,1126.26L163.72,1127.99L163.44,1130.8L159.84,1133.96L158.31,1133.69L157.86,1134.88L159,1135.77L160.17,1140.57L161.78,1140.91L161.38,1144.75L163.63,1145.68L162.3,1148.71L162.18,1153L163.17,1154.79L162.31,1157.68L160.74,1159.8L152.82,1165.6L150.01,1168.57L150.59,1168.43L149.59,1171.23L150.77,1172.78L152.25,1172.32L154.47,1168.63L155.92,1170.19L156.96,1170.01L158.15,1171.79L156.21,1176.39L156.78,1177.94L157.78,1177.24L158.33,1177.92L156.66,1185.72L157.36,1187.81L153.59,1193.24L154.69,1195.68L149.48,1199.86L153.43,1195.41L151.64,1194.21L148.04,1194.97L142.68,1201.74L136.92,1210.87L134.37,1216.83L134.67,1216.16L135.25,1216.84L136.46,1212.97L138.05,1211.93L137.77,1212.98L138.49,1212.86L141.42,1210.35L142.88,1207.97L142.23,1211.07L139.99,1212.54L137.09,1216.28L137.87,1215.87L136.48,1219.75L133.98,1222.76L133.44,1224.56L131.58,1225.98L131.09,1229.34L124.5,1240.39L124.13,1243.6L126.62,1245.73L127.82,1245.96L128.87,1243.2L132.3,1242.37L133.99,1239.23L133.56,1238.38L132.8,1239.26L132.39,1237.64L133.89,1235.14L133.92,1233.23L138.94,1226.71L141.36,1226.04L134.12,1237.6L137.44,1233.85L138.93,1233.24L140.49,1230.23L144.84,1228.05L145.66,1226.5L149.03,1226.32L150.88,1225.28L151.3,1227.3L147.51,1232.01L145.72,1236.35L142.86,1238.71L141.07,1241.64L133.52,1247.35L127.3,1250.21L124.77,1250.69L121.6,1249.59L119.54,1249.82L119.08,1249.13L120.14,1249.13L118.93,1247.82L120.9,1249.3L121.48,1248.94L119.52,1247.55L113.65,1247.97L112.83,1248.9L117.55,1254.01L119.42,1260.12L63.8,1258.12ZM123.29,1209.57L122.23,1208.44L121.4,1209.69L122.84,1211.61L123.29,1209.57ZM122.15,1207.54L123.39,1209.32L122.15,1207.54ZM125.54,1195.21L126.77,1194.7L123.55,1192.89L121.16,1195.89L120.63,1199.45L121.18,1203.01L122.18,1203.73L124.71,1199.83L125.54,1195.21ZM126.68,1195.66L125.71,1195.72L125.63,1196.88L126.68,1195.66ZM130.4,1056.57L129.37,1059.47L129.62,1061.81L131.41,1063.87L133.47,1064.59L133.61,1056.83L130.4,1056.57ZM128.9,1055.38L127.91,1058.05L128.4,1059.13L128.9,1055.38ZM127.43,1053.72L126.99,1052.64L125.95,1053.18L127.43,1053.72ZM143.38,1193.91L141.23,1201.04L142.82,1200.64L144.96,1194.3L144.07,1193.18L143.38,1193.91ZM138.6,1180.12L137.43,1178.94L135.53,1179.17L133.66,1180.61L132.31,1191.41L127.69,1195.41L126.01,1199.45L126.06,1202.51L127.66,1204.44L128.26,1208.35L127.83,1211.95L129.53,1212.52L130.35,1215.55L141.23,1198.64L143.22,1190.94L142.41,1187.76L143.84,1186.3L143.94,1182.71L145.98,1178.79L146.2,1176.34L143.74,1174.5L142.18,1174.63L138.6,1180.12ZM143.78,1192.99L146.05,1192.75L145.09,1191.87L143.78,1192.99ZM148.04,1185.15L144.84,1185.78L143.51,1188.02L143.39,1190.59L146.54,1186.62L147.78,1186.94L148.04,1185.15Z" fill-rule="evenodd" fill="#4682b4" fill-opacity="0.471"/>
<polyline points="63.8,1258.12 73.93,985.3 75.24,986.26 75.54,991.17 78.2,992.88 79.37,996.08 81.33,997.55 81.69,1002.65 83.58,1006.86 86.77,1007.78 85.52,1007.05 85.89,1006.29 87.36,1007.37 87.67,1012.44 89.76,1016.9 89.46,1021.55 93.58,1025.56 94.81,1027.68 95.55,1031.5 97.74,1034.65 102.01,1037.4 101.62,1042.54 100.3,1044.26 100.64,1045.93 102.4,1046.65 103.16,1048.22 105.44,1049.03 108.35,1053.79 111.66,1056.73 112.97,1059.07 121.36,1065.9 120.99,1065.13 122.24,1062 121.27,1056.74 122.18,1049.29 121.36,1047.01 122.52,1038.98 123.15,1037.97 123.8,1039.75 128.58,1040.3 127.89,1045.54 128.37,1047.03 134.28,1054.4 134.98,1054.88 135.19,1053.34 136.18,1053.39 136.35,1060.51 140.75,1066.11 143.01,1072.01 144,1079.42 146.47,1085.44 145.27,1087.38 148.69,1091.89 149.93,1092.22 151.01,1098.08 153.67,1102.58 155.59,1103.25 158.44,1110.59 161.74,1109.39 163.05,1110.89 167.46,1121.99 166.18,1126.26 163.72,1127.99 163.44,1130.8 159.84,1133.96 158.31,1133.69 157.86,1134.88 159,1135.77 160.17,1140.57 161.78,1140.91 161.38,1144.75 163.63,1145.68 162.3,1148.71 162.18,1153 163.17,1154.79 162.31,1157.68 160.74,1159.8 152.82,1165.6 150.01,1168.57 150.59,1168.43 149.59,1171.23 150.77,1172.78 152.25,1172.32 154.47,1168.63 155.92,1170.19 156.96,1170.01 158.15,1171.79 156.21,1176.39 156.78,1177.94 157.78,1177.24 158.33,1177.92 156.66,1185.72 157.36,1187.81 153.59,1193.24 154.69,1195.68 149.48,1199.86 153.43,1195.41 151.64,1194.21 148.04,1194.97 142.68,1201.74 136.92,1210.87 134.37,1216.83 134.67,1216.16 135.25,1216.84 136.46,1212.97 138.05,1211.93 137.77,1212.98 138.49,1212.86 141.42,1210.35 142.88,1207.97 142.23,1211.07 139.99,1212.54 137.09,1216.28 137.87,1215.87 136.48,1219.75 133.98,1222.76 133.44,1224.56 131.58,1225.98 131.09,1229.34 124.5,1240.39 124.13,1243.6 126.62,1245.73 127.82,1245.96 128.87,1243.2 132.3,1242.37 133.99,1239.23 133.56,1238.38 132.8,1239.26 132.39,1237.64 133.89,1235.14 133.92,1233.23 138.94,1226.71 141.36,1226.04 134.12,1237.6 137.44,1233.85 138.93,1233.24 140.49,1230.23 144.84,1228.05 145.66,1226.5 149.03,1226.32 150.88,1225.28 151.3,1227.3 147.51,1232.01 145.72,1236.35 142.86,1238.71 141.07,1241.64 133.52,1247.35 127.3,1250.21 124.77,1250.69 121.6,1249.59 119.54,1249.82 119.08,1249.13 120.14,1249.13 118.93,1247.82 120.9,1249.3 121.48,1248.94 119.52,1247.55 113.65,1247.97 112.83,1248.9 117.55,1254.01 119.42,1260.12 63.8,1258.12" fill="none" stroke="#1e1e1e" stroke-width="1.19" stroke-linecap="round" stroke-linejoin="round"/>
<polyline points="123.29,1209.57 122.23,1208.44 121.4,1209.69 122.84,1211.61 123.29,1209.57" fill="none" stroke="#1e1e1e" stroke-width="1.19" stroke-linecap="round" stroke-linejoin="round"/>
<polyline points="122.15,1207.54 123.39,1209.32 122.15,1207.54" fill="none" stroke="#1e1e1e" stroke-width="1.19" stroke-linecap="round" stroke-linejoin="round"/>
<polyline points="125.54,1195.21 126.77,1194.7 123.55,1192.89 121.16,1195.89 120.63,1199.45 121.18,1203.01 122.18,1203.73 124.71,1199.83 125.54,1195.21" fill="none" stroke="#1e1e1e" stroke-width="1.19" stroke-linecap="round" stroke-linejoin="round"/>
<polyline points="126.68,1195.66 125.71,1195.72 125.63,1196.88 126.68,1195.66" fill="none" stroke="#1e1e1e" stroke-width="1.19" stroke-linecap="round" stroke-linejoin="round"/>
<polyline points="130.4,1056.57 129.37,1059.47 129.62,1061.81 131.41,1063.87 133.47,1064.59 133.61,1056.83 130.4,1056.57" fill="none" stroke="#1e1e1e" stroke-width="1.19" stroke-linecap="round" stroke-linejoin="round"/>
<polyline points="128.9,1055.38 127.91,1058.05 128.4,1059.13 128.9,1055.38" fill="none" stroke="#1e1e1e" stroke-width="1.19" stroke-linecap="round" stroke-linejoin="round"/>
<polyline points="127.43,1053.72 126.99,1052.64 125.95,1053.18 127.43,1053.72" fill="none" stroke="#1e1e1e" stroke-width="1.19" stroke-linecap="round" stroke-linejoin="round"/>
<polyline points="143.38,1193.91 141.23,1201.04 142.82,1200.64 144.96,1194.3 144.07,1193.18 143.38,1193.91" fill="none" stroke="#1e1e1e" stroke-width="1.19" stroke-linecap="round" stroke-linejoin="round"/>
<polyline points="138.6,1180.12 137.43,1178.94 135.53,1179.17 133.66,1180.61 132.31,1191.41 127.69,1195.41 126.01,1199.45 126.06,1202.51 127.66,1204.44 128.26,1208.35 127.83,1211.95 129.53,1212.52 130.35,1215.55 141.23,1198.64 143.22,1190.94 142.41,1187.76 143.84,1186.3 143.94,1182.71 145.98,1178.79 146.2,1176.34 143.74,1174.5 142.18,1174.63 138.6,1180.12" fill="none" stroke="#1e1e1e" stroke-width="1.19" stroke-linecap="round" stroke-linejoin="round"/>
<polyline points="143.78,1192.99 146.05,1192.75 145.09,1191.87 143.78,1192.99" fill="none" stroke="#1e1e1e" stroke-width="1.19" stroke-linecap="round" stroke-linejoin="round"/>
<polyline points="148.04,1185.15 144.84,1185.78 143.51,1188.02 143.39,1190.59 146.54,1186.62 147.78,1186.94 148.04,1185.15" fill="none" stroke="#1e1e1e" stroke-width="1.19" stroke-linecap="round" stroke-linejoin="round"/>
<path d="M350.54,453.29L339.5,457.29L336.51,459.14L324.07,471.59L320.42,477.47L312.9,486.77L307.08,491.97L299.9,496.75L287.38,509.61L284.7,511.39L282.91,514.89L277.02,518.88L275.43,521.45L276.11,523.71L274.1,526.51L261.77,534.51L260.77,534.74L259.65,533.19L258.71,534.17L259.9,533.86L260.51,534.75L259.95,535.36L251.52,539.29L243.13,544.82L242.79,546.3L237.47,550.38L228.56,560.44L225.6,566.81L225.34,570L223.83,572.26L220.57,574.78L219.82,578.78L216.41,581.82L213.21,586.52L213.79,589.13L216.1,590.06L215.55,588.78L218.62,584.59L222.82,581.53L225.09,578.82L227.38,572.94L227.9,568.44L228.73,567.98L229.68,564.11L232.89,559.08L234.09,558.23L234.25,558.72L236.86,554.34L240.78,550.76L243.46,551.36L244.58,548.55L245.79,548.25L248.29,545.16L248.95,545.15L248.94,546.34L247.6,548.69L247.77,549.95L249.02,547.8L248.2,550.2L249.17,548.75L250.88,549.19L252.85,554.54L250.51,561.34L251.16,560.94L251.5,561.93L252.07,559.87L252.97,560.03L254.65,558.76L256.32,558.75L256.04,561.07L252.56,562.99L250.81,567.55L245.98,571.29L242.88,575.09L244.03,574.36L242.47,577.95L237.87,583.4L234.19,589.59L231.45,590.29L231.44,591.99L226.85,600.29L224.7,601.06L221.56,605.85L216.8,608.44L216.74,609.34L218.01,609.64L218.09,611.4L220.06,613.68L215.84,622.64L211.79,628.53L202.95,636.23L203.83,638.1L203.55,639.63L195.48,650.94L195.45,654.5L193.92,657.38L188.11,664.74L184.24,667.75L182.88,670.21L181.3,674.5L184.28,672.5L186.61,673.09L189.65,677.43L190.62,682.24L189.78,687.24L186.94,692.55L180.35,699.07L171.69,702.59L169.95,702.58L169.52,701.13L168.86,701.25L168.36,704.49L166.52,708.16L166.51,709.2L168.47,710.11L168.37,712.75L162.35,721.11L162.46,722.69L159.88,729.63L160.34,734.32L159.37,738.37L159.71,740.11L157.44,746.13L156.9,751.77L153.73,755.67L146.83,760.13L145.24,762.95L144.86,766.23L143.07,769.78L142.79,774.08L141.35,777.39L141.53,780.18L138.9,784.76L136.23,786.91L136.19,790.43L128.9,795.33L118.36,798.65L115.34,798.67L113.06,794.63L109.09,794.26L106.39,796.37L103.65,800.41L96.92,804.86L95.44,807.45L94.06,808.1L94.89,808.59L94.51,809.86L95.1,809.1L95.79,809.76L95.67,811.24L94.12,812.76L90.36,814.19L89.38,815.96L79.28,841.24L93.99,445.21L350.54,453.29ZM242.22,552.23L242.41,553.06L242.79,551.61L242.22,552.23Z" fill-rule="evenodd" fill="#4682b4" fill-opacity="0.471"/>
<polyline points="350.54,453.29 339.5,457.29 336.51,459.14 324.07,471.59 320.42,477.47 312.9,486.77 307.08,491.97 299.9,496.75 287.38,509.61 284.7,511.39 282.91,514.89 277.02,518.88 275.43,521.45 276.11,523.71 274.1,526.51 261.77,534.51 260.77,534.74 259.65,533.19 258.71,534.17 259.9,533.86 260.51,534.75 259.95,535.36 251.52,539.29 243.13,544.82 242.79,546.3 237.47,550.38 228.56,560.44 225.6,566.81 225.34,570 223.83,572.26 220.57,574.78 219.82,578.78 216.41,581.82 213.21,586.52 213.79,589.13 216.1,590.06 215.55,588.78 218.62,584.59 222.82,581.53 225.09,578.82 227.38,572.94 227.9,568.44 228.73,567.98 229.68,564.11 232.89,559.08 234.09,558.23 234.25,558.72 236.86,554.34 240.78,550.76 243.46,551.36 244.58,548.55 245.79,548.25 248.29,545.16 248.95,545.15 248.94,546.34 247.6,548.69 247.77,549.95 249.02,547.8 248.2,550.2 249.17,548.75 250.88,549.19 252.85,554.54 250.51,561.34 251.16,560.94 251.5,561.93 252.07,559.87 252.97,560.03 254.65,558.76 256.32,558.75 256.04,561.07 252.56,562.99 250.81,567.55 245.98,571.29 242.88,575.09 244.03,574.36 242.47,577.95 237.87,583.4 234.19,589.59 231.45,590.29 231.44,591.99 226.85,600.29 224.7,601.06 221.56,605.85 216.8,608.44 216.74,609.34 218.01,609.64 218.09,611.4 220.06,613.68 215.84,622.64 211.79,628.53 202.95,636.23 203.83,638.1 203.55,639.63 195.48,650.94 195.45,654.5 193.92,657.38 188.11,664.74 184.24,667.75 182.88,670.21 181.3,674.5 184.28,672.5 186.61,673.09 189.65,677.43 190.62,682.24 189.78,687.24 186.94,692.55 180.35,699.07 171.69,702.59 169.95,702.58 169.52,701.13 168.86,701.25 168.36,704.49 166.52,708.16 166.51,709.2 168.47,710.11 168.37,712.75 162.35,721.11 162.46,722.69 159.88,729.63 160.34,734.32 159.37,738.37 159.71,740.11 157.44,746.13 156.9,751.77 153.73,755.67 146.83,760.13 145.24,762.95 144.86,766.23 143.07,769.78 142.79,774.08 141.35,777.39 141.53,780.18 138.9,784.76 136.23,786.91 136.19,790.43 128.9,795.33 118.36,798.65 115.34,798.67 113.06,794.63 109.09,794.26 106.39,796.37 103.65,800.41 96.92,804.86 95.44,807.45 94.06,808.1 94.89,808.59 94.51,809.86 95.1,809.1 95.79,809.76 95.67,811.24 94.12,812.76 90.36,814.19 89.38,815.96 79.28,841.24 93.99,445.21 350.54,453.29" fill="none" stroke="#1e1e1e" stroke-width="1.19" stroke-linecap="round" stroke-linejoin="round"/>
<polyline points="242.22,552.23 242.41,553.06 242.79,551.61 242.22,552.23" fill="none" stroke="#1e1e1e" stroke-width="1.19" stroke-linecap="round" stroke-linejoin="round"/>
<path d="M501.22,60.56L499.33,157.67L488.12,159.63L482.71,159.39L478.96,166.17L472.68,173.75L463.07,181.54L458.66,183.19L450.77,184.48L440.51,197.23L436.78,205.38L438.82,210.62L438.31,219.38L436.52,227.17L426.5,248.51L419.24,258.61L416.37,260.72L412.05,276.94L408.85,284.37L408.8,290.23L407.04,295.61L403.79,301.93L397.33,309.6L393.9,315.03L392.82,318.71L392.93,321.98L389.84,327.67L390.04,330.02L387.69,334.14L387.89,340.41L384.89,348L385.87,355.19L384.5,360.55L385.67,364.32L385.01,367.34L386.9,368.94L388.01,372.57L386.91,384.19L385.57,389.21L386.02,394.57L382.5,404.65L379.66,410.09L377.97,416.08L377.07,420.56L377.53,426.78L369.28,434.02L362.75,437.46L361.78,442.43L358.55,449.42L350.21,453.41L93.99,445.34L108.69,49.44L501.22,60.56Z" fill-rule="evenodd" fill="#4682b4" fill-opacity="0.471"/>
<polyline points="501.22,60.56 499.33,157.67 488.12,159.63 482.71,159.39 478.96,166.17 472.68,173.75 463.07,181.54 458.66,183.19 450.77,184.48 440.51,197.23 436.78,205.38 438.82,210.62 438.31,219.38 436.52,227.17 426.5,248.51 419.24,258.61 416.37,260.72 412.05,276.94 408.85,284.37 408.8,290.23 407.04,295.61 403.79,301.93 397.33,309.6 393.9,315.03 392.82,318.71 392.93,321.98 389.84,327.67 390.04,330.02 387.69,334.14 387.89,340.41 384.89,348 385.87,355.19 384.5,360.55 385.67,364.32 385.01,367.34 386.9,368.94 388.01,372.57 386.91,384.19 385.57,389.21 386.02,394.57 382.5,404.65 379.66,410.09 377.97,416.08 377.07,420.56 377.53,426.78 369.28,434.02 362.75,437.46 361.78,442.43 358.55,449.42 350.21,453.41 93.99,445.34 108.69,49.44 501.22,60.56" fill="none" stroke="#1e1e1e" stroke-width="1.19" stroke-linecap="round" stroke-linejoin="round"/>
<path d="M502,20.51L501.22,60.68L108.69,49.57L110.18,9.42L502,20.51Z" fill-rule="evenodd" fill="#4682b4" fill-opacity="0.471"/>
<polyline points="502,20.51 501.22,60.68 108.69,49.57 110.18,9.42 502,20.51" fill="none" stroke="#1e1e1e" stroke-width="1.19" stroke-linecap="round" stroke-linejoin="round"/>
<path d="M588.44,62.09L589.29,63.09L588.36,65.42L587.09,64.96L588.26,65.48L588.21,66.19L583.07,77.78L579.36,91.06L575.32,99.49L574.7,102.35L569.22,112.25L562.5,119.55L547.75,130.57L520.16,145.74L511.51,152.84L499.2,157.71L501.09,60.55L588.44,62.09Z" fill-rule="evenodd" fill="#4682b4" fill-opacity="0.471"/>
<polyline points="588.44,62.09 589.29,63.09 588.36,65.42 587.09,64.96 588.26,65.48 588.21,66.19 583.07,77.78 579.36,91.06 575.32,99.49 574.7,102.35 569.22,112.25 562.5,119.55 547.75,130.57 520.16,145.74 511.51,152.84 499.2,157.71 501.09,60.55 588.44,62.09" fill="none" stroke="#1e1e1e" stroke-width="1.19" stroke-linecap="round" stroke-linejoin="round"/>
<path d="M589.4,62.1L588.51,62.09L589.4,62.1Z" fill-rule="evenodd" fill="#4682b4" fill-opacity="0.471"/>
<polyline points="589.4,62.1 588.51,62.09 589.4,62.1" fill="none" stroke="#1e1e1e" stroke-width="1.19" stroke-linecap="round" stroke-linejoin="round"/>
<path d="M606.84,22.31L598.88,34.63L592.78,45.78L591.27,53.72L590.22,56.26L589.11,56.34L589.05,57.46L589.45,56.48L590.06,56.44L589.75,57.42L590.28,56.42L590.77,56.84L591.16,58.62L589.34,62.23L501.09,60.68L501.88,20.51L606.84,22.31Z" fill-rule="evenodd" fill="#4682b4" fill-opacity="0.471"/>
<polyline points="606.84,22.31 598.88,34.63 592.78,45.78 591.27,53.72 590.22,56.26 589.11,56.34 589.05,57.46 589.45,56.48 590.06,56.44 589.75,57.42 590.28,56.42 590.77,56.84 591.16,58.62 589.34,62.23 501.09,60.68 501.88,20.51 606.84,22.31" fill="none" stroke="#1e1e1e" stroke-width="1.19" stroke-linecap="round" stroke-linejoin="round"/>
<path d="M35.49,1256.92L63.94,1258L48.44,1675.39L19.49,1674.3L35.49,1256.92Z" fill-rule="evenodd" fill="#4682b4" fill-opacity="0.471"/>
<polyline points="35.49,1256.92 63.94,1258 48.44,1675.39 19.49,1674.3 35.49,1256.92" fill="none" stroke="#1e1e1e" stroke-width="1.19" stroke-linecap="round" stroke-linejoin="round"/>
<path d="M81.83,48.43L108.82,49.45L94.12,445.35L66.65,444.31L81.83,48.43Z" fill-rule="evenodd" fill="#4682b4" fill-opacity="0.471"/>
<polyline points="81.83,48.43 108.82,49.45 94.12,445.35 66.65,444.31 81.83,48.43" fill="none" stroke="#1e1e1e" stroke-width="1.19" stroke-linecap="round" stroke-linejoin="round"/>
</svg>
