<?xml version="1.0" encoding="UTF-8" standalone="no"?>
<svg xmlns="http://www.w3.org/2000/svg" width="1336" height="2000" viewBox="0 0 1336 2000">
<rect width="1336" height="2000" fill="#ffffff"/>
<path d="M174.07,1968.64L173.36,1970.01L177.18,1970.54L181.66,1964.67L180.05,1952.85L181.23,1945.28L180.61,1939.47L187.33,1923.09L192.91,1917.98L199.25,1915.77L200.2,1919.45L196.06,1923.18L196.56,1933.84L197.66,1935.18L196.13,1944.12L196.39,1950.52L194.46,1956.17L199.12,1965.62L196.38,1964.29L191.31,1966.1L187.72,1970.22L183.19,1971.44L182.72,1977.26L179.65,1978.85L176.13,1973.47L171.04,1973.53L174.07,1968.64Z" fill-rule="evenodd" fill="#4682b4" fill-opacity="0.471"/>
<polyline points="174.07,1968.64 173.36,1970.01 177.18,1970.54 181.66,1964.67 180.05,1952.85 181.23,1945.28 180.61,1939.47 187.33,1923.09 192.91,1917.98 199.25,1915.77 200.2,1919.45 196.06,1923.18 196.56,1933.84 197.66,1935.18 196.13,1944.12 196.39,1950.52 194.46,1956.17 199.12,1965.62 196.38,1964.29 191.31,1966.1 187.72,1970.22 183.19,1971.44 182.72,1977.26 179.65,1978.85 176.13,1973.47 171.04,1973.53 174.07,1968.64" fill="none" stroke="#1e1e1e" stroke-width="1.29" stroke-linecap="round" stroke-linejoin="round"/>
<path d="M226.37,1916.04L231.26,1913.08L249.91,1904.54L251.95,1908L249.8,1910.74L249.85,1915.39L254.59,1916.31L255.35,1919.41L260.9,1928.08L260.37,1929.24L257.64,1929.85L259.52,1935.07L256.29,1939.18L256.52,1944.02L252.15,1944.07L247.82,1947.41L242.74,1948.24L238.72,1946.74L233.09,1946.99L235.87,1935.52L228.7,1928.81L235.37,1923.5L226.37,1916.04Z" fill-rule="evenodd" fill="#4682b4" fill-opacity="0.471"/>
<polyline points="226.37,1916.04 231.26,1913.08 249.91,1904.54 251.95,1908 249.8,1910.74 249.85,1915.39 254.59,1916.31 255.35,1919.41 260.9,1928.08 260.37,1929.24 257.64,1929.85 259.52,1935.07 256.29,1939.18 256.52,1944.02 252.15,1944.07 247.82,1947.41 242.74,1948.24 238.72,1946.74 233.09,1946.99 235.87,1935.52 228.7,1928.81 235.37,1923.5 226.37,1916.04" fill="none" stroke="#1e1e1e" stroke-width="1.29" stroke-linecap="round" stroke-linejoin="round"/>
<path d="M228.18,1979.44L224.66,1973.27L220.25,1969.64L215.44,1962.32L209.61,1960.84L223.65,1948.65L230.74,1948.57L233.09,1946.99L238.72,1946.74L242.74,1948.24L247.82,1947.41L252.15,1944.07L256.52,1944.02L254.53,1945.6L253.68,1951.04L248.63,1954.78L244.28,1955.79L242.31,1958.92L245.29,1965.67L246.2,1965.28L246.52,1966L245.34,1969.75L241.73,1972.31L241,1972.12L238.68,1975.83L233.44,1978.41L228.18,1979.44Z" fill-rule="evenodd" fill="#4682b4" fill-opacity="0.471"/>
<polyline points="228.18,1979.44 224.66,1973.27 220.25,1969.64 215.44,1962.32 209.61,1960.84 223.65,1948.65 230.74,1948.57 233.09,1946.99 238.72,1946.74 242.74,1948.24 247.82,1947.41 252.15,1944.07 256.52,1944.02 254.53,1945.6 253.68,1951.04 248.63,1954.78 244.28,1955.79 242.31,1958.92 245.29,1965.67 246.2,1965.28 246.52,1966 245.34,1969.75 241.73,1972.31 241,1972.12 238.68,1975.83 233.44,1978.41 228.18,1979.44" fill="none" stroke="#1e1e1e" stroke-width="1.29" stroke-linecap="round" stroke-linejoin="round"/>
<path d="M200.39,1920.03L204.56,1918.42L211.16,1922.61L215.33,1920.82L217.7,1921.96L222.74,1917.05L226.37,1916.04L235.37,1923.5L228.7,1928.81L235.87,1935.52L233.09,1946.99L230.74,1948.57L223.65,1948.65L215.44,1946.03L209.63,1931.94L202.33,1929.7L200.39,1920.03Z" fill-rule="evenodd" fill="#4682b4" fill-opacity="0.471"/>
<polyline points="200.39,1920.03 204.56,1918.42 211.16,1922.61 215.33,1920.82 217.7,1921.96 222.74,1917.05 226.37,1916.04 235.37,1923.5 228.7,1928.81 235.87,1935.52 233.09,1946.99 230.74,1948.57 223.65,1948.65 215.44,1946.03 209.63,1931.94 202.33,1929.7 200.39,1920.03" fill="none" stroke="#1e1e1e" stroke-width="1.29" stroke-linecap="round" stroke-linejoin="round"/>
<path d="M204.79,1906.79L207.31,1904.63L207.62,1900.16L207.07,1899.97L209,1893.36L214.22,1888.26L215.27,1884.37L225.75,1893.36L223.08,1898.43L232.06,1903.76L228.27,1906.71L231.26,1913.08L226.37,1916.04L222.74,1917.05L217.7,1921.96L215.33,1920.82L214.7,1914.23L212.67,1911.15L206.11,1911.23L204.79,1906.79Z" fill-rule="evenodd" fill="#4682b4" fill-opacity="0.471"/>
<polyline points="204.79,1906.79 207.31,1904.63 207.62,1900.16 207.07,1899.97 209,1893.36 214.22,1888.26 215.27,1884.37 225.75,1893.36 223.08,1898.43 232.06,1903.76 228.27,1906.71 231.26,1913.08 226.37,1916.04 222.74,1917.05 217.7,1921.96 215.33,1920.82 214.7,1914.23 212.67,1911.15 206.11,1911.23 204.79,1906.79" fill="none" stroke="#1e1e1e" stroke-width="1.29" stroke-linecap="round" stroke-linejoin="round"/>
<path d="M204.34,1914.94L204.16,1915.52L205.25,1915.12L204.87,1913.57L202.66,1911.85L212.67,1911.15L214.7,1914.23L215.33,1920.82L211.16,1922.61L204.56,1918.42L200.39,1920.03L200,1917.9L204.34,1914.94Z" fill-rule="evenodd" fill="#4682b4" fill-opacity="0.471"/>
<polyline points="204.34,1914.94 204.16,1915.52 205.25,1915.12 204.87,1913.57 202.66,1911.85 212.67,1911.15 214.7,1914.23 215.33,1920.82 211.16,1922.61 204.56,1918.42 200.39,1920.03 200,1917.9 204.34,1914.94" fill="none" stroke="#1e1e1e" stroke-width="1.29" stroke-linecap="round" stroke-linejoin="round"/>
<path d="M200.2,1919.45L202.33,1929.7L209.63,1931.94L215.44,1946.03L223.65,1948.65L209.61,1960.84L205.78,1959.72L199.12,1965.62L194.46,1956.17L196.39,1950.52L196.13,1944.12L197.66,1935.18L196.56,1933.84L196.06,1923.18L200.2,1919.45Z" fill-rule="evenodd" fill="#4682b4" fill-opacity="0.471"/>
<polyline points="200.2,1919.45 202.33,1929.7 209.63,1931.94 215.44,1946.03 223.65,1948.65 209.61,1960.84 205.78,1959.72 199.12,1965.62 194.46,1956.17 196.39,1950.52 196.13,1944.12 197.66,1935.18 196.56,1933.84 196.06,1923.18 200.2,1919.45" fill="none" stroke="#1e1e1e" stroke-width="1.29" stroke-linecap="round" stroke-linejoin="round"/>
<path d="M238.05,1885.66L238.05,1885.66Z" fill-rule="evenodd" fill="#4682b4" fill-opacity="0.471"/>
<polyline points="238.05,1885.66 238.05,1885.66" fill="none" stroke="#1e1e1e" stroke-width="1.29" stroke-linecap="round" stroke-linejoin="round"/>
<path d="M238.05,1885.66L238.32,1893.03L237.77,1893.23L241.67,1899.78L244.62,1903.43L249.91,1904.54L231.26,1913.08L228.27,1906.71L232.06,1903.76L223.08,1898.43L225.75,1893.36L217.3,1886.67L222.88,1880.79L225.43,1880.57L232.03,1884.18L238.05,1885.66Z" fill-rule="evenodd" fill="#4682b4" fill-opacity="0.471"/>
<polyline points="238.05,1885.66 238.32,1893.03 237.77,1893.23 241.67,1899.78 244.62,1903.43 249.91,1904.54 231.26,1913.08 228.27,1906.71 232.06,1903.76 223.08,1898.43 225.75,1893.36 217.3,1886.67 222.88,1880.79 225.43,1880.57 232.03,1884.18 238.05,1885.66" fill="none" stroke="#1e1e1e" stroke-width="1.29" stroke-linecap="round" stroke-linejoin="round"/>
<path d="M182.72,1977.26L183.19,1971.44L187.72,1970.22L191.31,1966.1L196.38,1964.29L199.12,1965.62L205.78,1959.72L215.44,1962.32L220.25,1969.64L224.66,1973.27L228.18,1979.44L222.22,1982.81L211.35,1985.84L203.16,1984.77L196.22,1981.17L193.88,1983.14L190.61,1983.37L182.56,1979.01L182.72,1977.26Z" fill-rule="evenodd" fill="#4682b4" fill-opacity="0.471"/>
<polyline points="182.72,1977.26 183.19,1971.44 187.72,1970.22 191.31,1966.1 196.38,1964.29 199.12,1965.62 205.78,1959.72 215.44,1962.32 220.25,1969.64 224.66,1973.27 228.18,1979.44 222.22,1982.81 211.35,1985.84 203.16,1984.77 196.22,1981.17 193.88,1983.14 190.61,1983.37 182.56,1979.01 182.72,1977.26" fill="none" stroke="#1e1e1e" stroke-width="1.29" stroke-linecap="round" stroke-linejoin="round"/>
<text x="220.91" y="1934.69" font-family="sans-serif" font-size="14" stroke="#ffffff" stroke-opacity="0.784" stroke-width="2.33" stroke-linejoin="round" paint-order="stroke" fill="#141414">Flacq</text>
<text x="182.66" y="1967.58" font-family="sans-serif" font-size="14" stroke="#ffffff" stroke-opacity="0.784" stroke-width="2.33" stroke-linejoin="round" paint-order="stroke" fill="#141414">Grand Port</text>
<text x="143.3" y="1903.12" font-family="sans-serif" font-size="14" stroke="#ffffff" stroke-opacity="0.784" stroke-width="2.33" stroke-linejoin="round" paint-order="stroke" fill="#141414">Rivière du Rempart</text>
</svg>
