<?xml version="1.0" encoding="UTF-8" standalone="no"?>
<svg xmlns="http://www.w3.org/2000/svg" width="1336" height="2000" viewBox="0 0 1336 2000">
<rect width="1336" height="2000" fill="#ffffff"/>
<path d="M488.78,1748.03L489.85,1983.58L39.68,1988.22L35.9,1752.7L488.78,1748.03ZM177.65,1965.77L178.56,1964.45L176.98,1965.17L176.82,1967.42L177.65,1965.77ZM259.84,1936.6L259.57,1937.61L261.73,1936.56L260.67,1934.43L261.41,1933.05L259.61,1932.75L259.78,1933.42L260.8,1933.37L259.72,1933.99L260.67,1934.43L259.7,1936.1L260.49,1936.99L259.84,1936.6ZM238.29,1975.2L243.65,1970.44L241.89,1969.63L242.24,1969.08L245.46,1969.8L246.94,1967.99L247.11,1966.16L244.96,1964.24L245.12,1965.15L244.41,1964.9L245.32,1966.15L243.95,1964.37L243.6,1961.48L242.45,1961.35L242.56,1962.54L241.92,1960.71L240.66,1960.15L242.2,1959.98L242.77,1956.16L242.23,1955.16L243.56,1954.61L244.36,1956.98L247.11,1956.37L249.22,1954.39L250.1,1951.91L253.58,1951.21L253.48,1948.76L256.19,1948.92L254.24,1947.62L254.87,1946.9L254.61,1945.21L256.52,1943.93L256.4,1942.06L255.01,1941.13L256.34,1939.63L255.29,1937.75L256.95,1940.03L258.04,1940.48L258.72,1939.61L257.83,1937.37L259.47,1935.08L259.49,1934.2L258.52,1933.77L259.62,1931.8L257.36,1930.48L257.73,1929.75L260.42,1929.37L261.36,1928.1L258.66,1925.05L258,1923.1L255.47,1921.04L254.56,1915.87L251.32,1914.22L252.24,1915.46L252.1,1916.19L251.25,1916.15L250.8,1914.76L250.32,1915.77L250.06,1914.58L249.07,1914.25L248.88,1913.55L250.38,1913.55L250.34,1912.22L249.4,1912.48L248.65,1911.07L250.69,1910.86L251.24,1908.58L252.04,1908.18L249.93,1904.41L243.13,1902.82L243.13,1901.46L242.15,1901.25L243.39,1900.21L241.89,1900.49L241.26,1898.53L239.5,1897.93L239.63,1896.49L238.71,1896.37L239.26,1895.91L238.63,1895.24L239.41,1894.99L237.78,1894.57L238.4,1893.48L237.67,1892.39L238.41,1893.14L238.86,1892.71L237.94,1892.4L238.67,1891.98L238.52,1890.23L237.17,1889.57L238.12,1889.3L237.9,1887.41L236.62,1886.98L237.9,1887.4L238.19,1885.35L235.8,1885.21L234.4,1884.6L234.23,1883.47L233.81,1883.94L232.63,1883L232.03,1884.34L229.56,1882.11L228.88,1882.3L229.22,1881.22L224.89,1880.11L224.05,1880.95L220.96,1881.43L221.23,1882.55L219.72,1882.85L218.79,1885.27L219.96,1885.76L219.85,1886.6L217.31,1886.7L217.47,1884.37L214.16,1883.85L214.94,1887.53L213.23,1889.12L212.33,1891.79L209.33,1892.96L207.05,1898.5L207.87,1900.49L206.44,1901.48L206.45,1902.34L208.07,1904.61L205.35,1905.84L204.23,1908.47L204.57,1910.34L206.05,1911.25L204.48,1910.76L202.13,1911.84L204.88,1913.49L204.77,1914.6L205.89,1914.42L204.17,1915.52L204.19,1914.49L201.43,1912.83L200.85,1913.5L201.76,1914.3L200.6,1915.6L200.49,1917.62L200.22,1917.18L199.95,1917.95L200.19,1916.54L198.99,1915.81L192.65,1917.84L187.45,1922.88L187.33,1925.98L185.94,1926.05L184.65,1928.06L183.62,1931.04L184.08,1932.71L180.47,1940.16L181.22,1945.23L183.45,1946.88L180.99,1948.93L180.08,1952.8L182.18,1955.26L183.01,1954.55L182.74,1955.12L183.71,1955.28L180.07,1956.22L179.92,1957.75L183.46,1959.18L182.96,1959.86L183.94,1960.11L181.48,1961.06L182.06,1961.91L181.64,1964.62L177.41,1970.63L173.38,1970.07L174.06,1968.75L173.41,1968.15L170.95,1974.8L172.16,1975.13L173.29,1973.43L176.26,1973.37L176.78,1974.32L175.81,1973.92L179.2,1977.49L179.29,1978.56L181.82,1978.82L182.79,1977.2L182.39,1979.42L187.07,1981.07L187.38,1981.96L189.29,1982.23L190.66,1983.39L194.38,1982.96L196.18,1981.22L202.38,1984.63L206.07,1984.28L208.93,1985.24L209.35,1984.07L211.37,1985.75L215.48,1984.52L215.56,1983.93L221.43,1983.23L224.25,1980.77L225.29,1981.14L228.22,1980.02L228.13,1979.35L230,1979.64L233.66,1978.47L238.64,1975.86L238.29,1975.2ZM240.92,1889.34L240.63,1888.34L240.08,1888.82L241.24,1889.86L240.85,1890.52L239.17,1890.37L239.82,1891.66L240.86,1890.75L241.4,1891.39L241.75,1890.8L241.83,1891.41L243.44,1891.1L240.92,1889.34ZM227.02,1871.24L225.5,1871.99L227.24,1873.55L227.02,1871.24ZM235.06,1860.84L236.28,1862.32L236.11,1860.82L235.06,1860.84ZM231.5,1860.81L234.7,1860.77L233.94,1858.55L232.74,1857.91L231.46,1859.26L231.5,1860.81ZM258.41,1853.23L255.91,1853.42L255.55,1854.98L257.2,1855.92L258.41,1853.23ZM259.76,1848.67L260.34,1847.71L259.58,1847.82L259.76,1848.67Z" fill-rule="evenodd" fill="#4682b4" fill-opacity="0.471"/>
<polyline points="488.78,1748.03 489.85,1983.58 39.68,1988.22 35.9,1752.7 488.78,1748.03" fill="none" stroke="#1e1e1e" stroke-width="1.29" stroke-linecap="round" stroke-linejoin="round"/>
<polyline points="177.65,1965.77 178.56,1964.45 176.98,1965.17 176.82,1967.42 177.65,1965.77" fill="none" stroke="#1e1e1e" stroke-width="1.29" stroke-linecap="round" stroke-linejoin="round"/>
<polyline points="259.84,1936.6 259.57,1937.61 261.73,1936.56 260.67,1934.43 261.41,1933.05 259.61,1932.75 259.78,1933.42 260.8,1933.37 259.72,1933.99 260.67,1934.43 259.7,1936.1 260.49,1936.99 259.84,1936.6" fill="none" stroke="#1e1e1e" stroke-width="1.29" stroke-linecap="round" stroke-linejoin="round"/>
<polyline points="238.29,1975.2 243.65,1970.44 241.89,1969.63 242.24,1969.08 245.46,1969.8 246.94,1967.99 247.11,1966.16 244.96,1964.24 245.12,1965.15 244.41,1964.9 245.32,1966.15 243.95,1964.37 243.6,1961.48 242.45,1961.35 242.56,1962.54 241.92,1960.71 240.66,1960.15 242.2,1959.98 242.77,1956.16 242.23,1955.16 243.56,1954.61 244.36,1956.98 247.11,1956.37 249.22,1954.39 250.1,1951.91 253.58,1951.21 253.48,1948.76 256.19,1948.92 254.24,1947.62 254.87,1946.9 254.61,1945.21 256.52,1943.93 256.4,1942.06 255.01,1941.13 256.34,1939.63 255.29,1937.75 256.95,1940.03 258.04,1940.48 258.72,1939.61 257.83,1937.37 259.47,1935.08 259.49,1934.2 258.52,1933.77 259.62,1931.8 257.36,1930.48 257.73,1929.75 260.42,1929.37 261.36,1928.1 258.66,1925.05 258,1923.1 255.47,1921.04 254.56,1915.87 251.32,1914.22 252.24,1915.46 252.1,1916.19 251.25,1916.15 250.8,1914.76 250.32,1915.77 250.06,1914.58 249.07,1914.25 248.88,1913.55 250.38,1913.55 250.34,1912.22 249.4,1912.48 248.65,1911.07 250.69,1910.86 251.24,1908.58 252.04,1908.18 249.93,1904.41 243.13,1902.82 243.13,1901.46 242.15,1901.25 243.39,1900.21 241.89,1900.49 241.26,1898.53 239.5,1897.93 239.63,1896.49 238.71,1896.37 239.26,1895.91 238.63,1895.24 239.41,1894.99 237.78,1894.57 238.4,1893.48 237.67,1892.39 238.41,1893.14 238.86,1892.71 237.94,1892.4 238.67,1891.98 238.52,1890.23 237.17,1889.57 238.12,1889.3 237.9,1887.41 236.62,1886.98 237.9,1887.4 238.19,1885.35 235.8,1885.21 234.4,1884.6 234.23,1883.47 233.81,1883.94 232.63,1883 232.03,1884.34 229.56,1882.11 228.88,1882.3 229.22,1881.22 224.89,1880.11 224.05,1880.95 220.96,1881.43 221.23,1882.55 219.72,1882.85 218.79,1885.27 219.96,1885.76 219.85,1886.6 217.31,1886.7 217.47,1884.37 214.16,1883.85 214.94,1887.53 213.23,1889.12 212.33,1891.79 209.33,1892.96 207.05,1898.5 207.87,1900.49 206.44,1901.48 206.45,1902.34 208.07,1904.61 205.35,1905.84 204.23,1908.47 204.57,1910.34 206.05,1911.25 204.48,1910.76 202.13,1911.84 204.88,1913.49 204.77,1914.6 205.89,1914.42 204.17,1915.52 204.19,1914.49 201.43,1912.83 200.85,1913.5 201.76,1914.3 200.6,1915.6 200.49,1917.62 200.22,1917.18 199.95,1917.95 200.19,1916.54 198.99,1915.81 192.65,1917.84 187.45,1922.88 187.33,1925.98 185.94,1926.05 184.65,1928.06 183.62,1931.04 184.08,1932.71 180.47,1940.16 181.22,1945.23 183.45,1946.88 180.99,1948.93 180.08,1952.8 182.18,1955.26 183.01,1954.55 182.74,1955.12 183.71,1955.28 180.07,1956.22 179.92,1957.75 183.46,1959.18 182.96,1959.86 183.94,1960.11 181.48,1961.06 182.06,1961.91 181.64,1964.62 177.41,1970.63 173.38,1970.07 174.06,1968.75 173.41,1968.15 170.95,1974.8 172.16,1975.13 173.29,1973.43 176.26,1973.37 176.78,1974.32 175.81,1973.92 179.2,1977.49 179.29,1978.56 181.82,1978.82 182.79,1977.2 182.39,1979.42 187.07,1981.07 187.38,1981.96 189.29,1982.23 190.66,1983.39 194.38,1982.96 196.18,1981.22 202.38,1984.63 206.07,1984.28 208.93,1985.24 209.35,1984.07 211.37,1985.75 215.48,1984.52 215.56,1983.93 221.43,1983.23 224.25,1980.77 225.29,1981.14 228.22,1980.02 228.13,1979.35 230,1979.64 233.66,1978.47 238.64,1975.86 238.29,1975.2" fill="none" stroke="#1e1e1e" stroke-width="1.29" stroke-linecap="round" stroke-linejoin="round"/>
<polyline points="240.92,1889.34 240.63,1888.34 240.08,1888.82 241.24,1889.86 240.85,1890.52 239.17,1890.37 239.82,1891.66 240.86,1890.75 241.4,1891.39 241.75,1890.8 241.83,1891.41 243.44,1891.1 240.92,1889.34" fill="none" stroke="#1e1e1e" stroke-width="1.29" stroke-linecap="round" stroke-linejoin="round"/>
<polyline points="227.02,1871.24 225.5,1871.99 227.24,1873.55 227.02,1871.24" fill="none" stroke="#1e1e1e" stroke-width="1.29" stroke-linecap="round" stroke-linejoin="round"/>
<polyline points="235.06,1860.84 236.28,1862.32 236.11,1860.82 235.06,1860.84" fill="none" stroke="#1e1e1e" stroke-width="1.29" stroke-linecap="round" stroke-linejoin="round"/>
<polyline points="231.5,1860.81 234.7,1860.77 233.94,1858.55 232.74,1857.91 231.46,1859.26 231.5,1860.81" fill="none" stroke="#1e1e1e" stroke-width="1.29" stroke-linecap="round" stroke-linejoin="round"/>
<polyline points="258.41,1853.23 255.91,1853.42 255.55,1854.98 257.2,1855.92 258.41,1853.23" fill="none" stroke="#1e1e1e" stroke-width="1.29" stroke-linecap="round" stroke-linejoin="round"/>
<polyline points="259.76,1848.67 260.34,1847.71 259.58,1847.82 259.76,1848.67" fill="none" stroke="#1e1e1e" stroke-width="1.29" stroke-linecap="round" stroke-linejoin="round"/>
<path d="M480.87,12.2L481.61,175.41L10.62,180.27L8,17.08L480.87,12.2ZM22.2,37.41L25.44,40.84L27.24,46.24L28.39,46.58L30.54,45.38L31.19,43.4L29.84,40.92L22.2,37.41ZM9.19,17.22L8.34,17.36L8.08,19.62L13.89,29.56L17.47,34.06L19.97,35.52L18.81,32.3L16,28.78L10.84,18.84L9.19,17.22Z" fill-rule="evenodd" fill="#4682b4" fill-opacity="0.471"/>
<polyline points="480.87,12.2 481.61,175.41 10.62,180.27 8,17.08 480.87,12.2" fill="none" stroke="#1e1e1e" stroke-width="1.29" stroke-linecap="round" stroke-linejoin="round"/>
<polyline points="22.2,37.41 25.44,40.84 27.24,46.24 28.39,46.58 30.54,45.38 31.19,43.4 29.84,40.92 22.2,37.41" fill="none" stroke="#1e1e1e" stroke-width="1.29" stroke-linecap="round" stroke-linejoin="round"/>
<polyline points="9.19,17.22 8.34,17.36 8.08,19.62 13.89,29.56 17.47,34.06 19.97,35.52 18.81,32.3 16,28.78 10.84,18.84 9.19,17.22" fill="none" stroke="#1e1e1e" stroke-width="1.29" stroke-linecap="round" stroke-linejoin="round"/>
<path d="M1007.24,1231.63L1002.83,1749.21L488.62,1748.19L486.26,1230.6L1007.24,1231.63ZM580.53,1253.49L579.5,1257.53L580.41,1256.59L581.37,1252.43L581.04,1250.14L580.1,1249.57L580.53,1253.49ZM580.95,1247.35L580.05,1247.48L580.97,1248.05L582.12,1247.34L582.21,1246.03L579.72,1246.99L580.95,1247.35Z" fill-rule="evenodd" fill="#4682b4" fill-opacity="0.471"/>
<polyline points="1007.24,1231.63 1002.83,1749.21 488.62,1748.19 486.26,1230.6 1007.24,1231.63" fill="none" stroke="#1e1e1e" stroke-width="1.29" stroke-linecap="round" stroke-linejoin="round"/>
<polyline points="580.53,1253.49 579.5,1257.53 580.41,1256.59 581.37,1252.43 581.04,1250.14 580.1,1249.57 580.53,1253.49" fill="none" stroke="#1e1e1e" stroke-width="1.29" stroke-linecap="round" stroke-linejoin="round"/>
<polyline points="580.95,1247.35 580.05,1247.48 580.97,1248.05 582.12,1247.34 582.21,1246.03 579.72,1246.99 580.95,1247.35" fill="none" stroke="#1e1e1e" stroke-width="1.29" stroke-linecap="round" stroke-linejoin="round"/>
<path d="M1011.7,707.41L1007.24,1231.8L486.26,1230.77L483.86,706.37L1011.7,707.41ZM604.67,1217.94L604.17,1218.3L605.47,1218.5L604.67,1217.94ZM588.65,1189.07L587.31,1188.34L587.54,1189.82L588.65,1189.07ZM584.98,1154.31L584.42,1153.22L583.26,1153.94L584.18,1154.84L584.98,1154.31Z" fill-rule="evenodd" fill="#4682b4" fill-opacity="0.471"/>
<polyline points="1011.7,707.41 1007.24,1231.8 486.26,1230.77 483.86,706.37 1011.7,707.41" fill="none" stroke="#1e1e1e" stroke-width="1.29" stroke-linecap="round" stroke-linejoin="round"/>
<polyline points="604.67,1217.94 604.17,1218.3 605.47,1218.5 604.67,1217.94" fill="none" stroke="#1e1e1e" stroke-width="1.29" stroke-linecap="round" stroke-linejoin="round"/>
<polyline points="588.65,1189.07 587.31,1188.34 587.54,1189.82 588.65,1189.07" fill="none" stroke="#1e1e1e" stroke-width="1.29" stroke-linecap="round" stroke-linejoin="round"/>
<polyline points="584.98,1154.31 584.42,1153.22 583.26,1153.94 584.18,1154.84 584.98,1154.31" fill="none" stroke="#1e1e1e" stroke-width="1.29" stroke-linecap="round" stroke-linejoin="round"/>
<path d="M1000.66,1984.59L1002.67,1749.04L1300.1,1752.7L1296.32,1988.22L1000.66,1984.59ZM1285.54,1841.86L1286.48,1843.22L1286.33,1841.83L1285.54,1841.86ZM1274.07,1841.65L1273.17,1840.92L1272.28,1841.96L1274.07,1841.65ZM1281.95,1840.49L1283.36,1842.07L1284.34,1842.14L1281.95,1840.49ZM1280.04,1839.76L1279.37,1839.33L1279.75,1837.67L1278.9,1837.22L1283.69,1836.24L1284.46,1837L1287.97,1835.95L1289.2,1836.63L1290.33,1835.57L1292.63,1836.09L1298.63,1831.52L1298.82,1829.97L1297.78,1828.49L1298.82,1826.16L1298.26,1824.82L1290.81,1821.71L1289.39,1822.92L1289,1821.82L1287.95,1821.94L1283.69,1824.81L1282.76,1824.41L1281.99,1826.54L1280.7,1824.77L1280.24,1825.7L1278.14,1825.97L1278.73,1827.24L1276.16,1828.23L1276.18,1830L1274.87,1829.28L1274.31,1830.28L1273.75,1829.74L1273.46,1830.96L1272.85,1830.61L1273.33,1830.02L1270.76,1831.14L1270.13,1830.43L1268.3,1831.66L1269.1,1834.94L1267.51,1835.08L1268.21,1837.05L1269.97,1837.33L1269.67,1836.53L1273.14,1834.85L1273.34,1836.68L1271.83,1836.97L1271.56,1838.25L1272.82,1840.06L1276.74,1841.58L1275.88,1840.54L1276.6,1839.99L1280.04,1839.76Z" fill-rule="evenodd" fill="#4682b4" fill-opacity="0.471"/>
<polyline points="1000.66,1984.59 1002.67,1749.04 1300.1,1752.7 1296.32,1988.22 1000.66,1984.59" fill="none" stroke="#1e1e1e" stroke-width="1.29" stroke-linecap="round" stroke-linejoin="round"/>
<polyline points="1285.54,1841.86 1286.48,1843.22 1286.33,1841.83 1285.54,1841.86" fill="none" stroke="#1e1e1e" stroke-width="1.29" stroke-linecap="round" stroke-linejoin="round"/>
<polyline points="1274.07,1841.65 1273.17,1840.92 1272.28,1841.96 1274.07,1841.65" fill="none" stroke="#1e1e1e" stroke-width="1.29" stroke-linecap="round" stroke-linejoin="round"/>
<polyline points="1281.95,1840.49 1283.36,1842.07 1284.34,1842.14 1281.95,1840.49" fill="none" stroke="#1e1e1e" stroke-width="1.29" stroke-linecap="round" stroke-linejoin="round"/>
<polyline points="1280.04,1839.76 1279.37,1839.33 1279.75,1837.67 1278.9,1837.22 1283.69,1836.24 1284.46,1837 1287.97,1835.95 1289.2,1836.63 1290.33,1835.57 1292.63,1836.09 1298.63,1831.52 1298.82,1829.97 1297.78,1828.49 1298.82,1826.16 1298.26,1824.82 1290.81,1821.71 1289.39,1822.92 1289,1821.82 1287.95,1821.94 1283.69,1824.81 1282.76,1824.41 1281.99,1826.54 1280.7,1824.77 1280.24,1825.7 1278.14,1825.97 1278.73,1827.24 1276.16,1828.23 1276.18,1830 1274.87,1829.28 1274.31,1830.28 1273.75,1829.74 1273.46,1830.96 1272.85,1830.61 1273.33,1830.02 1270.76,1831.14 1270.13,1830.43 1268.3,1831.66 1269.1,1834.94 1267.51,1835.08 1268.21,1837.05 1269.97,1837.33 1269.67,1836.53 1273.14,1834.85 1273.34,1836.68 1271.83,1836.97 1271.56,1838.25 1272.82,1840.06 1276.74,1841.58 1275.88,1840.54 1276.6,1839.99 1280.04,1839.76" fill="none" stroke="#1e1e1e" stroke-width="1.29" stroke-linecap="round" stroke-linejoin="round"/>
<path d="M27.58,1235.33L486.42,1230.6L488.78,1748.19L35.9,1752.86L27.58,1235.33Z" fill-rule="evenodd" fill="#4682b4" fill-opacity="0.471"/>
<polyline points="27.58,1235.33 486.42,1230.6 488.78,1748.19 35.9,1752.86 27.58,1235.33" fill="none" stroke="#1e1e1e" stroke-width="1.29" stroke-linecap="round" stroke-linejoin="round"/>
<path d="M19.16,711.16L484.03,706.37L486.42,1230.77L27.58,1235.5L19.16,711.16Z" fill-rule="evenodd" fill="#4682b4" fill-opacity="0.471"/>
<polyline points="19.16,711.16 484.03,706.37 486.42,1230.77 27.58,1235.5 19.16,711.16" fill="none" stroke="#1e1e1e" stroke-width="1.29" stroke-linecap="round" stroke-linejoin="round"/>
<path d="M10.62,180.1L481.61,175.24L484.03,706.54L19.16,711.33L10.62,180.1Z" fill-rule="evenodd" fill="#4682b4" fill-opacity="0.471"/>
<polyline points="10.62,180.1 481.61,175.24 484.03,706.54 19.16,711.33 10.62,180.1" fill="none" stroke="#1e1e1e" stroke-width="1.29" stroke-linecap="round" stroke-linejoin="round"/>
<path d="M488.62,1748.03L1002.83,1749.05L1000.83,1984.59L489.69,1983.58L488.62,1748.03Z" fill-rule="evenodd" fill="#4682b4" fill-opacity="0.471"/>
<polyline points="488.62,1748.03 1002.83,1749.05 1000.83,1984.59 489.69,1983.58 488.62,1748.03" fill="none" stroke="#1e1e1e" stroke-width="1.29" stroke-linecap="round" stroke-linejoin="round"/>
<path d="M481.44,175.24L1016.22,176.3L1011.7,707.58L483.87,706.54L481.44,175.24Z" fill-rule="evenodd" fill="#4682b4" fill-opacity="0.471"/>
<polyline points="481.44,175.24 1016.22,176.3 1011.7,707.58 483.87,706.54 481.44,175.24" fill="none" stroke="#1e1e1e" stroke-width="1.29" stroke-linecap="round" stroke-linejoin="round"/>
<path d="M1017.61,13.26L1016.22,176.47L481.44,175.41L480.7,12.2L1017.61,13.26Z" fill-rule="evenodd" fill="#4682b4" fill-opacity="0.471"/>
<polyline points="1017.61,13.26 1016.22,176.47 481.44,175.41 480.7,12.2 1017.61,13.26" fill="none" stroke="#1e1e1e" stroke-width="1.29" stroke-linecap="round" stroke-linejoin="round"/>
<path d="M1007.07,1231.63L1308.42,1235.33L1300.1,1752.86L1002.67,1749.21L1007.07,1231.63Z" fill-rule="evenodd" fill="#4682b4" fill-opacity="0.471"/>
<polyline points="1007.07,1231.63 1308.42,1235.33 1300.1,1752.86 1002.67,1749.21 1007.07,1231.63" fill="none" stroke="#1e1e1e" stroke-width="1.29" stroke-linecap="round" stroke-linejoin="round"/>
<path d="M1011.53,707.41L1316.84,711.16L1308.42,1235.5L1007.07,1231.8L1011.53,707.41Z" fill-rule="evenodd" fill="#4682b4" fill-opacity="0.471"/>
<polyline points="1011.53,707.41 1316.84,711.16 1308.42,1235.5 1007.07,1231.8 1011.53,707.41" fill="none" stroke="#1e1e1e" stroke-width="1.29" stroke-linecap="round" stroke-linejoin="round"/>
<path d="M1016.05,176.3L1325.38,180.1L1316.84,711.33L1011.53,707.58L1016.05,176.3Z" fill-rule="evenodd" fill="#4682b4" fill-opacity="0.471"/>
<polyline points="1016.05,176.3 1325.38,180.1 1316.84,711.33 1011.53,707.58 1016.05,176.3" fill="none" stroke="#1e1e1e" stroke-width="1.29" stroke-linecap="round" stroke-linejoin="round"/>
<path d="M1325.38,180.27L1016.05,176.47L1017.44,13.26L1328,17.08L1325.38,180.27Z" fill-rule="evenodd" fill="#4682b4" fill-opacity="0.471"/>
<polyline points="1325.38,180.27 1016.05,176.47 1017.44,13.26 1328,17.08 1325.38,180.27" fill="none" stroke="#1e1e1e" stroke-width="1.29" stroke-linecap="round" stroke-linejoin="round"/>
</svg>
