<?xml version="1.0" encoding="UTF-8" standalone="no"?>
<svg xmlns="http://www.w3.org/2000/svg" width="2000" height="718" viewBox="0 0 2000 718">
<rect width="2000" height="718" fill="#ffffff"/>
<path d="M1967.38,368.42L1968.99,368.76L1968.6,371.9L1970.13,372.48L1969.06,375.55L1967.64,376.8L1960.85,375.73L1959.91,373.99L1963.05,372.02L1964.37,369.55L1967.38,368.42Z" fill-rule="evenodd" fill="#4682b4" fill-opacity="0.471"/>
<polyline points="1967.38,368.42 1968.99,368.76 1968.6,371.9 1970.13,372.48 1969.06,375.55 1967.64,376.8 1960.85,375.73 1959.91,373.99 1963.05,372.02 1964.37,369.55 1967.38,368.42" fill="none" stroke="#1e1e1e" stroke-width="0.95" stroke-linecap="round" stroke-linejoin="round"/>
<path d="M1611.3,258.88L1611.77,260.02L1608.97,260.21L1608.38,261.21L1610.3,263.01L1608.81,265.25L1602.09,266.63L1598.74,265.31L1597.49,263.11L1597.51,258.99L1594.94,258.72L1594.67,255.67L1600.02,253.46L1599.69,251.48L1604.26,253.56L1606.14,252.54L1608.69,256.09L1610.2,256L1611.3,258.88Z" fill-rule="evenodd" fill="#4682b4" fill-opacity="0.471"/>
<polyline points="1611.3,258.88 1611.77,260.02 1608.97,260.21 1608.38,261.21 1610.3,263.01 1608.81,265.25 1602.09,266.63 1598.74,265.31 1597.49,263.11 1597.51,258.99 1594.94,258.72 1594.67,255.67 1600.02,253.46 1599.69,251.48 1604.26,253.56 1606.14,252.54 1608.69,256.09 1610.2,256 1611.3,258.88" fill="none" stroke="#1e1e1e" stroke-width="0.95" stroke-linecap="round" stroke-linejoin="round"/>
<path d="M1121.68,220.92L1120.1,222.53L1119.33,221.08L1120.16,218.48L1122.66,220.38L1121.68,220.92Z" fill-rule="evenodd" fill="#4682b4" fill-opacity="0.471"/>
<polyline points="1121.68,220.92 1120.1,222.53 1119.33,221.08 1120.16,218.48 1122.66,220.38 1121.68,220.92" fill="none" stroke="#1e1e1e" stroke-width="0.95" stroke-linecap="round" stroke-linejoin="round"/>
<path d="M1119.36,230.09L1118.44,226.04L1120.49,227.11L1120.19,230.31L1119.36,230.09Z" fill-rule="evenodd" fill="#4682b4" fill-opacity="0.471"/>
<polyline points="1119.36,230.09 1118.44,226.04 1120.49,227.11 1120.19,230.31 1119.36,230.09" fill="none" stroke="#1e1e1e" stroke-width="0.95" stroke-linecap="round" stroke-linejoin="round"/>
<path d="M90.39,50.11L89.9,51.55L87.84,53.04L86.4,53.01L85.84,51.17L86.48,49.5L88.24,48.23L88.88,49.93L90.39,50.11Z" fill-rule="evenodd" fill="#4682b4" fill-opacity="0.471"/>
<polyline points="90.39,50.11 89.9,51.55 87.84,53.04 86.4,53.01 85.84,51.17 86.48,49.5 88.24,48.23 88.88,49.93 90.39,50.11" fill="none" stroke="#1e1e1e" stroke-width="0.95" stroke-linecap="round" stroke-linejoin="round"/>
<path d="M81.9,55.67L79.6,57.61L82.15,51.01L84.17,48.07L86.07,47.5L84.8,53.97L81.9,55.67Z" fill-rule="evenodd" fill="#4682b4" fill-opacity="0.471"/>
<polyline points="81.9,55.67 79.6,57.61 82.15,51.01 84.17,48.07 86.07,47.5 84.8,53.97 81.9,55.67" fill="none" stroke="#1e1e1e" stroke-width="0.95" stroke-linecap="round" stroke-linejoin="round"/>
<text x="1568.14" y="266.41" font-family="sans-serif" font-size="14" stroke="#ffffff" stroke-opacity="0.784" stroke-width="2.33" stroke-linejoin="round" paint-order="stroke" fill="#141414">Pohnpei</text>
<text x="1934.67" y="379.97" font-family="sans-serif" font-size="14" stroke="#ffffff" stroke-opacity="0.784" stroke-width="2.33" stroke-linejoin="round" paint-order="stroke" fill="#141414">Kosrae</text>
<text x="67.18" y="59.17" font-family="sans-serif" font-size="14" stroke="#ffffff" stroke-opacity="0.784" stroke-width="2.33" stroke-linejoin="round" paint-order="stroke" fill="#141414">Yap</text>
<text x="1094.17" y="227.48" font-family="sans-serif" font-size="14" stroke="#ffffff" stroke-opacity="0.784" stroke-width="2.33" stroke-linejoin="round" paint-order="stroke" fill="#141414">Chuuk</text>
</svg>
