<?xml version="1.0" encoding="UTF-8" standalone="no"?>
<svg xmlns="http://www.w3.org/2000/svg" width="1638" height="2000" viewBox="0 0 1638 2000">
<rect width="1638" height="2000" fill="#ffffff"/>
<path d="M1089.26,994.49L1094.47,978.81L1128.23,978.53L1139.08,997.98L1154.14,992.62L1179.68,969.56L1194.38,972.66L1201.36,961.51L1198.08,945.9L1210.57,911.87L1220.67,902.63L1218.58,914.39L1239.04,918.71L1258.05,948.45L1262.72,966.64L1252.62,976.55L1256.37,992.14L1219.91,991.28L1220.91,1001.04L1232.67,1017.85L1256.43,1031.9L1267.05,1027.2L1277.98,1012.72L1298.98,1019.61L1302.24,1029.99L1297.61,1048.95L1304.86,1057.98L1308.77,1082.69L1293.15,1081.6L1267.82,1087.15L1272.1,1107.95L1267.78,1118.43L1235.61,1114.92L1219.26,1128.8L1222.03,1136.59L1190.48,1149.32L1190.75,1175.39L1169.35,1179.52L1159.69,1151.59L1143.61,1151.74L1127.6,1159.06L1128.59,1118.64L1121.57,1080.9L1095.72,1081.12L1103.65,1069.32L1102.5,1038.05L1088.7,1036.86L1068.16,1027.89L1087.61,1011.45L1089.26,994.49Z" fill-rule="evenodd" fill="#4682b4" fill-opacity="0.471"/>
<polyline points="1089.26,994.49 1094.47,978.81 1128.23,978.53 1139.08,997.98 1154.14,992.62 1179.68,969.56 1194.38,972.66 1201.36,961.51 1198.08,945.9 1210.57,911.87 1220.67,902.63 1218.58,914.39 1239.04,918.71 1258.05,948.45 1262.72,966.64 1252.62,976.55 1256.37,992.14 1219.91,991.28 1220.91,1001.04 1232.67,1017.85 1256.43,1031.9 1267.05,1027.2 1277.98,1012.72 1298.98,1019.61 1302.24,1029.99 1297.61,1048.95 1304.86,1057.98 1308.77,1082.69 1293.15,1081.6 1267.82,1087.15 1272.1,1107.95 1267.78,1118.43 1235.61,1114.92 1219.26,1128.8 1222.03,1136.59 1190.48,1149.32 1190.75,1175.39 1169.35,1179.52 1159.69,1151.59 1143.61,1151.74 1127.6,1159.06 1128.59,1118.64 1121.57,1080.9 1095.72,1081.12 1103.65,1069.32 1102.5,1038.05 1088.7,1036.86 1068.16,1027.89 1087.61,1011.45 1089.26,994.49" fill="none" stroke="#1e1e1e" stroke-width="1.72" stroke-linecap="round" stroke-linejoin="round"/>
<path d="M553.15,483.57L562.44,471.26L580.72,486.38L588.09,498.16L604.91,470.25L613.23,470.3L626.33,476.24L636.5,458.7L649.65,452.9L670.56,475.16L655.16,492.03L639.87,482.83L636.72,498.46L614.75,509.41L600.71,510.63L553.15,483.57Z" fill-rule="evenodd" fill="#4682b4" fill-opacity="0.471"/>
<polyline points="553.15,483.57 562.44,471.26 580.72,486.38 588.09,498.16 604.91,470.25 613.23,470.3 626.33,476.24 636.5,458.7 649.65,452.9 670.56,475.16 655.16,492.03 639.87,482.83 636.72,498.46 614.75,509.41 600.71,510.63 553.15,483.57" fill="none" stroke="#1e1e1e" stroke-width="1.72" stroke-linecap="round" stroke-linejoin="round"/>
<path d="M1308.77,1082.69L1312.42,1120.44L1295.33,1110.25L1272.1,1107.95L1267.82,1087.15L1293.15,1081.6L1308.77,1082.69Z" fill-rule="evenodd" fill="#4682b4" fill-opacity="0.471"/>
<polyline points="1308.77,1082.69 1312.42,1120.44 1295.33,1110.25 1272.1,1107.95 1267.82,1087.15 1293.15,1081.6 1308.77,1082.69" fill="none" stroke="#1e1e1e" stroke-width="1.72" stroke-linecap="round" stroke-linejoin="round"/>
<path d="M319.3,92.45L310.83,108.62L333.55,125.9L335.38,180.04L317.48,186.95L290.94,189.81L281.05,183.78L280.87,167.48L259.71,160.62L247.25,179.32L253.17,188.55L253.64,212.68L248.69,223.03L231.56,233.16L226.99,245.47L213.78,254.37L194.81,244.9L211.05,236.72L185.67,221.91L190.31,205.7L165.63,201.32L151.27,180.18L132.44,166.11L98.04,171.27L83.51,160.53L71.13,170.69L55.28,161.21L49.41,151.95L63.74,132.06L84.86,118.18L101.65,123.75L127.28,142.54L140.89,134.34L140.54,108.25L115.12,101.21L91.58,67.46L110.97,71.79L120.31,59.59L153.56,63.52L161.88,58.47L174.56,74.36L171.79,83.43L214.79,99.87L219.37,86.26L238.94,81.39L230.72,55.82L255.22,65.36L270.87,87.79L289.94,86.79L300.47,77.82L319.3,92.45Z" fill-rule="evenodd" fill="#4682b4" fill-opacity="0.471"/>
<polyline points="319.3,92.45 310.83,108.62 333.55,125.9 335.38,180.04 317.48,186.95 290.94,189.81 281.05,183.78 280.87,167.48 259.71,160.62 247.25,179.32 253.17,188.55 253.64,212.68 248.69,223.03 231.56,233.16 226.99,245.47 213.78,254.37 194.81,244.9 211.05,236.72 185.67,221.91 190.31,205.7 165.63,201.32 151.27,180.18 132.44,166.11 98.04,171.27 83.51,160.53 71.13,170.69 55.28,161.21 49.41,151.95 63.74,132.06 84.86,118.18 101.65,123.75 127.28,142.54 140.89,134.34 140.54,108.25 115.12,101.21 91.58,67.46 110.97,71.79 120.31,59.59 153.56,63.52 161.88,58.47 174.56,74.36 171.79,83.43 214.79,99.87 219.37,86.26 238.94,81.39 230.72,55.82 255.22,65.36 270.87,87.79 289.94,86.79 300.47,77.82 319.3,92.45" fill="none" stroke="#1e1e1e" stroke-width="1.72" stroke-linecap="round" stroke-linejoin="round"/>
<path d="M1013.53,1367.12L1000.87,1352.2L1042.02,1326.54L1037.93,1318.75L1055.37,1308.86L1062.87,1291.86L1076.33,1293.07L1086.78,1311.24L1084.18,1322.99L1103.07,1328.71L1104.06,1340.43L1061.88,1343.36L1078.44,1396.68L1087.59,1418.12L1086.82,1434.42L1072.24,1472.98L1047.76,1449.69L973.53,1466.38L971.15,1437.06L1035.87,1421.08L1024.85,1382.05L1013.53,1367.12Z" fill-rule="evenodd" fill="#4682b4" fill-opacity="0.471"/>
<polyline points="1013.53,1367.12 1000.87,1352.2 1042.02,1326.54 1037.93,1318.75 1055.37,1308.86 1062.87,1291.86 1076.33,1293.07 1086.78,1311.24 1084.18,1322.99 1103.07,1328.71 1104.06,1340.43 1061.88,1343.36 1078.44,1396.68 1087.59,1418.12 1086.82,1434.42 1072.24,1472.98 1047.76,1449.69 973.53,1466.38 971.15,1437.06 1035.87,1421.08 1024.85,1382.05 1013.53,1367.12" fill="none" stroke="#1e1e1e" stroke-width="1.72" stroke-linecap="round" stroke-linejoin="round"/>
<path d="M698.35,1574.05L734.04,1576.76L750.76,1574.19L760.29,1555.31L770.67,1556.63L781.07,1544.26L796.86,1568.39L811.32,1581.43L823.07,1578.17L827.59,1591.2L837.99,1591.2L842.49,1565.13L867.79,1566.4L870.96,1571.61L861.94,1583.36L874.16,1595.07L892.24,1591.78L895.9,1611.98L876.02,1623.75L868.32,1621.15L857.89,1598.35L846.13,1597.71L838.92,1641.38L845.3,1700.04L853.02,1710.46L828.07,1718.95L814.92,1728.08L817.18,1737.2L826.26,1741.77L825.81,1763.28L846.25,1754.79L853.54,1775.64L880.8,1773.65L881.29,1793.86L894.07,1814.69L877.69,1814.72L874.98,1825.81L816.27,1828.46L799.43,1825.2L789.43,1806.94L778.97,1809.53L786.21,1849.3L780.29,1850.6L791.18,1900.81L774.3,1907.31L780.19,1937.95L758.25,1957.48L738.53,1990.03L736.25,1990.03L725.75,1984.79L713.93,1961.29L716.28,1938.48L703.1,1920.84L683.08,1904.47L690.43,1890.15L709.13,1886.31L720.11,1872.65L714.75,1835.48L717.54,1814.63L710.28,1808.74L696.28,1778.71L691.38,1752.62L702.37,1723.33L692.9,1708.3L699.3,1693.33L681.38,1636.56L690.09,1607.92L683.35,1595.51L698.35,1574.05Z" fill-rule="evenodd" fill="#4682b4" fill-opacity="0.471"/>
<polyline points="698.35,1574.05 734.04,1576.76 750.76,1574.19 760.29,1555.31 770.67,1556.63 781.07,1544.26 796.86,1568.39 811.32,1581.43 823.07,1578.17 827.59,1591.2 837.99,1591.2 842.49,1565.13 867.79,1566.4 870.96,1571.61 861.94,1583.36 874.16,1595.07 892.24,1591.78 895.9,1611.98 876.02,1623.75 868.32,1621.15 857.89,1598.35 846.13,1597.71 838.92,1641.38 845.3,1700.04 853.02,1710.46 828.07,1718.95 814.92,1728.08 817.18,1737.2 826.26,1741.77 825.81,1763.28 846.25,1754.79 853.54,1775.64 880.8,1773.65 881.29,1793.86 894.07,1814.69 877.69,1814.72 874.98,1825.81 816.27,1828.46 799.43,1825.2 789.43,1806.94 778.97,1809.53 786.21,1849.3 780.29,1850.6 791.18,1900.81 774.3,1907.31 780.19,1937.95 758.25,1957.48 738.53,1990.03 736.25,1990.03 725.75,1984.79 713.93,1961.29 716.28,1938.48 703.1,1920.84 683.08,1904.47 690.43,1890.15 709.13,1886.31 720.11,1872.65 714.75,1835.48 717.54,1814.63 710.28,1808.74 696.28,1778.71 691.38,1752.62 702.37,1723.33 692.9,1708.3 699.3,1693.33 681.38,1636.56 690.09,1607.92 683.35,1595.51 698.35,1574.05" fill="none" stroke="#1e1e1e" stroke-width="1.72" stroke-linecap="round" stroke-linejoin="round"/>
<path d="M862.74,1864.28L876.4,1861.01L886.96,1905.97L837.71,1916.46L841.34,1895.59L840.42,1869.52L862.74,1864.28Z" fill-rule="evenodd" fill="#4682b4" fill-opacity="0.471"/>
<polyline points="862.74,1864.28 876.4,1861.01 886.96,1905.97 837.71,1916.46 841.34,1895.59 840.42,1869.52 862.74,1864.28" fill="none" stroke="#1e1e1e" stroke-width="1.72" stroke-linecap="round" stroke-linejoin="round"/>
<path d="M667.3,821.21L682.85,803.68L704.5,805.06L708.52,793.99L684.23,788.69L686.49,775.02L710.38,764.02L717.49,749.05L728.96,750.39L733.43,728.24L728.64,704.77L756.84,707.44L771.38,714.63L796.07,717.91L807.98,712.7L825.62,721.18L866.17,710.07L870.19,743.3L880.37,761.53L880.4,775.21L862.32,801.96L837.57,807.85L861.93,841.06L851.75,848.24L851.77,866.49L832.28,860.64L819,882.15L808.81,877.58L787.1,886.69L768.04,887.32L767.61,881.46L736.62,868.36L721.56,869.63L714.95,859.83L701.67,857.18L699.5,846.75L684.46,842.78L667.3,821.21Z" fill-rule="evenodd" fill="#4682b4" fill-opacity="0.471"/>
<polyline points="667.3,821.21 682.85,803.68 704.5,805.06 708.52,793.99 684.23,788.69 686.49,775.02 710.38,764.02 717.49,749.05 728.96,750.39 733.43,728.24 728.64,704.77 756.84,707.44 771.38,714.63 796.07,717.91 807.98,712.7 825.62,721.18 866.17,710.07 870.19,743.3 880.37,761.53 880.4,775.21 862.32,801.96 837.57,807.85 861.93,841.06 851.75,848.24 851.77,866.49 832.28,860.64 819,882.15 808.81,877.58 787.1,886.69 768.04,887.32 767.61,881.46 736.62,868.36 721.56,869.63 714.95,859.83 701.67,857.18 699.5,846.75 684.46,842.78 667.3,821.21" fill="none" stroke="#1e1e1e" stroke-width="1.72" stroke-linecap="round" stroke-linejoin="round"/>
<path d="M901.75,1213.11L920.53,1211.1L914.67,1196.78L923.51,1162.22L935.6,1171.95L943.58,1154.33L967.63,1139.25L990.97,1165.86L1025.94,1187.18L1030.35,1177.37L1046.08,1190.96L1059.62,1210.42L1077.23,1232.46L1076.9,1248.75L1117.62,1245.17L1120.84,1307.06L1107.5,1321.51L1084.18,1322.99L1086.78,1311.24L1076.33,1293.07L1062.87,1291.86L1055.37,1308.86L1037.93,1318.75L1042.02,1326.54L1000.87,1352.2L1013.53,1367.12L983.01,1373.79L915.05,1335.59L891.27,1338.26L890.79,1323.27L902.86,1306.3L898.77,1278.93L904.07,1249.6L901.75,1213.11Z" fill-rule="evenodd" fill="#4682b4" fill-opacity="0.471"/>
<polyline points="901.75,1213.11 920.53,1211.1 914.67,1196.78 923.51,1162.22 935.6,1171.95 943.58,1154.33 967.63,1139.25 990.97,1165.86 1025.94,1187.18 1030.35,1177.37 1046.08,1190.96 1059.62,1210.42 1077.23,1232.46 1076.9,1248.75 1117.62,1245.17 1120.84,1307.06 1107.5,1321.51 1084.18,1322.99 1086.78,1311.24 1076.33,1293.07 1062.87,1291.86 1055.37,1308.86 1037.93,1318.75 1042.02,1326.54 1000.87,1352.2 1013.53,1367.12 983.01,1373.79 915.05,1335.59 891.27,1338.26 890.79,1323.27 902.86,1306.3 898.77,1278.93 904.07,1249.6 901.75,1213.11" fill="none" stroke="#1e1e1e" stroke-width="1.72" stroke-linecap="round" stroke-linejoin="round"/>
<path d="M991.74,871.94L1002.33,863.41L994.31,853.68L995.5,826.3L1010.06,820.36L1036.62,822.81L1054.16,800.54L1077.55,795.81L1099.05,776.74L1100.46,787.16L1124,800.65L1125.74,846.9L1154.78,829.69L1168.72,851.06L1164.44,866.09L1147.83,889.06L1135.45,892.44L1118.39,918.65L1102.41,918.14L1094.52,929.93L1070.49,919.03L1060.81,930.83L1045.03,892.49L1024.18,889.36L1015.03,916.13L999.45,905.79L983.04,903.92L977.68,896.77L991.74,871.94Z" fill-rule="evenodd" fill="#4682b4" fill-opacity="0.471"/>
<polyline points="991.74,871.94 1002.33,863.41 994.31,853.68 995.5,826.3 1010.06,820.36 1036.62,822.81 1054.16,800.54 1077.55,795.81 1099.05,776.74 1100.46,787.16 1124,800.65 1125.74,846.9 1154.78,829.69 1168.72,851.06 1164.44,866.09 1147.83,889.06 1135.45,892.44 1118.39,918.65 1102.41,918.14 1094.52,929.93 1070.49,919.03 1060.81,930.83 1045.03,892.49 1024.18,889.36 1015.03,916.13 999.45,905.79 983.04,903.92 977.68,896.77 991.74,871.94" fill="none" stroke="#1e1e1e" stroke-width="1.72" stroke-linecap="round" stroke-linejoin="round"/>
<path d="M1143.87,940.58L1157.9,922.85L1159.99,909.15L1173.32,912.27L1169.51,885.59L1200.05,882.66L1220.67,902.63L1210.57,911.87L1198.08,945.9L1201.36,961.51L1194.38,972.66L1179.68,969.56L1154.14,992.62L1139.08,997.98L1128.23,978.53L1094.47,978.81L1089.26,994.49L1075.85,984.82L1079.2,956.77L1097.44,961.84L1104.84,943.53L1119.01,939.5L1143.87,940.58Z" fill-rule="evenodd" fill="#4682b4" fill-opacity="0.471"/>
<polyline points="1143.87,940.58 1157.9,922.85 1159.99,909.15 1173.32,912.27 1169.51,885.59 1200.05,882.66 1220.67,902.63 1210.57,911.87 1198.08,945.9 1201.36,961.51 1194.38,972.66 1179.68,969.56 1154.14,992.62 1139.08,997.98 1128.23,978.53 1094.47,978.81 1089.26,994.49 1075.85,984.82 1079.2,956.77 1097.44,961.84 1104.84,943.53 1119.01,939.5 1143.87,940.58" fill="none" stroke="#1e1e1e" stroke-width="1.72" stroke-linecap="round" stroke-linejoin="round"/>
<path d="M1127.6,1159.06L1143.61,1151.74L1159.69,1151.59L1169.35,1179.52L1190.75,1175.39L1190.48,1149.32L1222.03,1136.59L1219.26,1128.8L1235.61,1114.92L1267.78,1118.43L1272.1,1107.95L1295.33,1110.25L1312.42,1120.44L1328.19,1131.29L1334.3,1121.43L1353.82,1113.97L1350.07,1102.29L1388.22,1117.33L1392.48,1158.98L1402.12,1175.11L1389.06,1196.18L1381.02,1196.97L1358.27,1229.26L1338.47,1222.39L1317.75,1244.2L1309.19,1240.41L1274.11,1263.04L1284.65,1280.5L1270.01,1292.42L1290.98,1318.22L1266.69,1348.52L1250.07,1311.57L1241.61,1316.89L1244.02,1331.2L1231.08,1337.22L1226.05,1368.56L1201.63,1395.56L1186.28,1389.2L1204.05,1369.46L1195.4,1359.13L1195.67,1342.18L1207.14,1323.81L1200.76,1315.4L1198.11,1276.98L1165.03,1285.79L1166.12,1305.33L1120.84,1307.06L1117.62,1245.17L1076.9,1248.75L1077.23,1232.46L1059.62,1210.42L1064,1196.71L1093.51,1197.14L1124.56,1168.86L1127.6,1159.06Z" fill-rule="evenodd" fill="#4682b4" fill-opacity="0.471"/>
<polyline points="1127.6,1159.06 1143.61,1151.74 1159.69,1151.59 1169.35,1179.52 1190.75,1175.39 1190.48,1149.32 1222.03,1136.59 1219.26,1128.8 1235.61,1114.92 1267.78,1118.43 1272.1,1107.95 1295.33,1110.25 1312.42,1120.44 1328.19,1131.29 1334.3,1121.43 1353.82,1113.97 1350.07,1102.29 1388.22,1117.33 1392.48,1158.98 1402.12,1175.11 1389.06,1196.18 1381.02,1196.97 1358.27,1229.26 1338.47,1222.39 1317.75,1244.2 1309.19,1240.41 1274.11,1263.04 1284.65,1280.5 1270.01,1292.42 1290.98,1318.22 1266.69,1348.52 1250.07,1311.57 1241.61,1316.89 1244.02,1331.2 1231.08,1337.22 1226.05,1368.56 1201.63,1395.56 1186.28,1389.2 1204.05,1369.46 1195.4,1359.13 1195.67,1342.18 1207.14,1323.81 1200.76,1315.4 1198.11,1276.98 1165.03,1285.79 1166.12,1305.33 1120.84,1307.06 1117.62,1245.17 1076.9,1248.75 1077.23,1232.46 1059.62,1210.42 1064,1196.71 1093.51,1197.14 1124.56,1168.86 1127.6,1159.06" fill="none" stroke="#1e1e1e" stroke-width="1.72" stroke-linecap="round" stroke-linejoin="round"/>
<path d="M749.32,1388.44L770,1389.13L795.18,1376.12L802.81,1401.54L815.85,1400.24L831.14,1389.16L833.38,1377.43L844.61,1368.3L864.85,1388.48L848.68,1399.58L862.18,1412.6L875.23,1416.49L870.76,1435.4L872.59,1451.69L893.76,1452.95L891.11,1480.98L893.43,1513.57L869.53,1516.22L856.91,1526.01L870.04,1555.97L870.96,1571.61L867.79,1566.4L842.49,1565.13L837.99,1591.2L827.59,1591.2L823.07,1578.17L811.32,1581.43L796.86,1568.39L781.07,1544.26L770.67,1556.63L760.29,1555.31L750.76,1574.19L734.04,1576.76L698.35,1574.05L695.65,1569.48L701.55,1560.38L699.81,1541.47L707.1,1521.29L693.67,1490.61L703.18,1478.91L705.04,1460.02L721.28,1452.9L736.18,1435.99L726.3,1425.54L732.66,1401.44L749.32,1388.44Z" fill-rule="evenodd" fill="#4682b4" fill-opacity="0.471"/>
<polyline points="749.32,1388.44 770,1389.13 795.18,1376.12 802.81,1401.54 815.85,1400.24 831.14,1389.16 833.38,1377.43 844.61,1368.3 864.85,1388.48 848.68,1399.58 862.18,1412.6 875.23,1416.49 870.76,1435.4 872.59,1451.69 893.76,1452.95 891.11,1480.98 893.43,1513.57 869.53,1516.22 856.91,1526.01 870.04,1555.97 870.96,1571.61 867.79,1566.4 842.49,1565.13 837.99,1591.2 827.59,1591.2 823.07,1578.17 811.32,1581.43 796.86,1568.39 781.07,1544.26 770.67,1556.63 760.29,1555.31 750.76,1574.19 734.04,1576.76 698.35,1574.05 695.65,1569.48 701.55,1560.38 699.81,1541.47 707.1,1521.29 693.67,1490.61 703.18,1478.91 705.04,1460.02 721.28,1452.9 736.18,1435.99 726.3,1425.54 732.66,1401.44 749.32,1388.44" fill="none" stroke="#1e1e1e" stroke-width="1.72" stroke-linecap="round" stroke-linejoin="round"/>
<path d="M983.04,903.92L999.45,905.79L1015.03,916.13L1024.18,889.36L1045.03,892.49L1060.81,930.83L1070.49,919.03L1094.52,929.93L1102.41,918.14L1118.39,918.65L1143.87,940.58L1119.01,939.5L1104.84,943.53L1097.44,961.84L1079.2,956.77L1075.85,984.82L1089.26,994.49L1087.61,1011.45L1068.16,1027.89L1088.7,1036.86L1102.5,1038.05L1103.65,1069.32L1095.72,1081.12L1071.2,1078.7L1058.29,1081.39L1023.01,1068.58L1014.03,1055.6L1016.6,1036.69L1012.51,1023.03L998.67,1013.32L982.22,1013.4L973.7,998.45L954.95,977.68L944.27,971.85L931.76,951.69L939.26,936.68L954.35,937.93L971.61,927.43L983.04,903.92Z" fill-rule="evenodd" fill="#4682b4" fill-opacity="0.471"/>
<polyline points="983.04,903.92 999.45,905.79 1015.03,916.13 1024.18,889.36 1045.03,892.49 1060.81,930.83 1070.49,919.03 1094.52,929.93 1102.41,918.14 1118.39,918.65 1143.87,940.58 1119.01,939.5 1104.84,943.53 1097.44,961.84 1079.2,956.77 1075.85,984.82 1089.26,994.49 1087.61,1011.45 1068.16,1027.89 1088.7,1036.86 1102.5,1038.05 1103.65,1069.32 1095.72,1081.12 1071.2,1078.7 1058.29,1081.39 1023.01,1068.58 1014.03,1055.6 1016.6,1036.69 1012.51,1023.03 998.67,1013.32 982.22,1013.4 973.7,998.45 954.95,977.68 944.27,971.85 931.76,951.69 939.26,936.68 954.35,937.93 971.61,927.43 983.04,903.92" fill="none" stroke="#1e1e1e" stroke-width="1.72" stroke-linecap="round" stroke-linejoin="round"/>
<path d="M428.1,196.87L442.42,119.46L448.19,107.14L461.62,107.28L490.54,118L505.44,100.54L516.72,98.04L549.93,115.92L580.89,88.12L597.34,87.58L609.34,107.86L593.7,114.93L587.52,130.54L595.22,146.23L611.71,145.04L618.12,160.72L609.39,169.79L586.74,181.38L565.01,184.48L546.26,194.77L527.77,224.6L528.13,233.08L503.12,257.62L494.26,273.84L513.25,291.61L507.93,302.64L489.74,291.39L470.5,298.37L441.12,276.55L435.47,236.72L450.02,218.63L428.1,196.87Z" fill-rule="evenodd" fill="#4682b4" fill-opacity="0.471"/>
<polyline points="428.1,196.87 442.42,119.46 448.19,107.14 461.62,107.28 490.54,118 505.44,100.54 516.72,98.04 549.93,115.92 580.89,88.12 597.34,87.58 609.34,107.86 593.7,114.93 587.52,130.54 595.22,146.23 611.71,145.04 618.12,160.72 609.39,169.79 586.74,181.38 565.01,184.48 546.26,194.77 527.77,224.6 528.13,233.08 503.12,257.62 494.26,273.84 513.25,291.61 507.93,302.64 489.74,291.39 470.5,298.37 441.12,276.55 435.47,236.72 450.02,218.63 428.1,196.87" fill="none" stroke="#1e1e1e" stroke-width="1.72" stroke-linecap="round" stroke-linejoin="round"/>
<path d="M507.93,302.64L513.25,291.61L494.26,273.84L503.12,257.62L528.13,233.08L527.77,224.6L546.26,194.77L565.01,184.48L586.74,181.38L599.16,207.53L610.84,217.39L622.19,207.02L640.34,226.03L666.81,236.58L683.61,277.72L688.75,299.25L658.22,306.94L644.65,319.26L659.35,344.1L660.56,364.96L674.44,387.18L658.65,400.15L655.52,416.43L629.18,435.85L612.13,435.1L607.19,455.27L599.02,432.41L590.28,431.7L568.34,441.97L561.08,419.11L540.19,406.56L535.03,396.74L538.64,383.08L492.85,375.51L484.69,362.39L496.53,355.99L484.93,337.63L494.61,328.59L496.95,311.67L507.93,302.64Z" fill-rule="evenodd" fill="#4682b4" fill-opacity="0.471"/>
<polyline points="507.93,302.64 513.25,291.61 494.26,273.84 503.12,257.62 528.13,233.08 527.77,224.6 546.26,194.77 565.01,184.48 586.74,181.38 599.16,207.53 610.84,217.39 622.19,207.02 640.34,226.03 666.81,236.58 683.61,277.72 688.75,299.25 658.22,306.94 644.65,319.26 659.35,344.1 660.56,364.96 674.44,387.18 658.65,400.15 655.52,416.43 629.18,435.85 612.13,435.1 607.19,455.27 599.02,432.41 590.28,431.7 568.34,441.97 561.08,419.11 540.19,406.56 535.03,396.74 538.64,383.08 492.85,375.51 484.69,362.39 496.53,355.99 484.93,337.63 494.61,328.59 496.95,311.67 507.93,302.64" fill="none" stroke="#1e1e1e" stroke-width="1.72" stroke-linecap="round" stroke-linejoin="round"/>
<path d="M1121.52,719.2L1157.58,753.41L1156,772.98L1162.35,789.21L1138.61,803.12L1154.78,829.69L1125.74,846.9L1124,800.65L1100.46,787.16L1095.69,743.53L1114.17,736.86L1121.52,719.2Z" fill-rule="evenodd" fill="#4682b4" fill-opacity="0.471"/>
<polyline points="1121.52,719.2 1157.58,753.41 1156,772.98 1162.35,789.21 1138.61,803.12 1154.78,829.69 1125.74,846.9 1124,800.65 1100.46,787.16 1095.69,743.53 1114.17,736.86 1121.52,719.2" fill="none" stroke="#1e1e1e" stroke-width="1.72" stroke-linecap="round" stroke-linejoin="round"/>
<path d="M1118.39,918.65L1135.45,892.44L1147.83,889.06L1164.44,866.09L1168.72,851.06L1173.16,852.97L1195.89,826.01L1206.57,831.76L1231.21,819.74L1238.57,806.62L1249.25,812.35L1200.05,882.66L1169.51,885.59L1173.32,912.27L1159.99,909.15L1157.9,922.85L1143.87,940.58L1118.39,918.65Z" fill-rule="evenodd" fill="#4682b4" fill-opacity="0.471"/>
<polyline points="1118.39,918.65 1135.45,892.44 1147.83,889.06 1164.44,866.09 1168.72,851.06 1173.16,852.97 1195.89,826.01 1206.57,831.76 1231.21,819.74 1238.57,806.62 1249.25,812.35 1200.05,882.66 1169.51,885.59 1173.32,912.27 1159.99,909.15 1157.9,922.85 1143.87,940.58 1118.39,918.65" fill="none" stroke="#1e1e1e" stroke-width="1.72" stroke-linecap="round" stroke-linejoin="round"/>
<path d="M1162.79,789.2L1165.25,770.28L1186.81,762.89L1183.89,778.56L1162.79,789.2Z" fill-rule="evenodd" fill="#4682b4" fill-opacity="0.471"/>
<polyline points="1162.79,789.2 1165.25,770.28 1186.81,762.89 1183.89,778.56 1162.79,789.2" fill="none" stroke="#1e1e1e" stroke-width="1.72" stroke-linecap="round" stroke-linejoin="round"/>
<path d="M1236.47,742.77L1237.46,751.88L1210.69,765.23L1218.8,741.02L1236.47,742.77Z" fill-rule="evenodd" fill="#4682b4" fill-opacity="0.471"/>
<polyline points="1236.47,742.77 1237.46,751.88 1210.69,765.23 1218.8,741.02 1236.47,742.77" fill="none" stroke="#1e1e1e" stroke-width="1.72" stroke-linecap="round" stroke-linejoin="round"/>
<path d="M226.99,245.47L231.56,233.16L248.69,223.03L253.64,212.68L253.17,188.55L247.25,179.32L259.71,160.62L280.87,167.48L281.05,183.78L290.94,189.81L317.48,186.95L335.38,180.04L333.55,125.9L356.76,108.62L379.58,120.01L371.79,151.85L373.67,174.04L400.35,192.63L428.1,196.87L450.02,218.63L435.47,236.72L441.12,276.55L441.74,298.72L410.21,312.7L393.45,328.13L384.86,318.25L371.11,335.67L359.52,321.83L343.95,313.14L319.28,331.04L310.31,347.21L315.37,359.67L295.94,374.37L289.43,371.66L277.81,361.05L282.98,337.66L266.37,339.35L262.67,325.6L253.16,320.23L246.54,299.26L225.57,277.39L231.87,265.77L226.99,245.47Z" fill-rule="evenodd" fill="#4682b4" fill-opacity="0.471"/>
<polyline points="226.99,245.47 231.56,233.16 248.69,223.03 253.64,212.68 253.17,188.55 247.25,179.32 259.71,160.62 280.87,167.48 281.05,183.78 290.94,189.81 317.48,186.95 335.38,180.04 333.55,125.9 356.76,108.62 379.58,120.01 371.79,151.85 373.67,174.04 400.35,192.63 428.1,196.87 450.02,218.63 435.47,236.72 441.12,276.55 441.74,298.72 410.21,312.7 393.45,328.13 384.86,318.25 371.11,335.67 359.52,321.83 343.95,313.14 319.28,331.04 310.31,347.21 315.37,359.67 295.94,374.37 289.43,371.66 277.81,361.05 282.98,337.66 266.37,339.35 262.67,325.6 253.16,320.23 246.54,299.26 225.57,277.39 231.87,265.77 226.99,245.47" fill="none" stroke="#1e1e1e" stroke-width="1.72" stroke-linecap="round" stroke-linejoin="round"/>
<path d="M384.26,606.99L436.08,572.41L453.24,569.99L472.96,574.11L487.97,565.78L482.83,552.7L507.77,511.87L518.6,526.96L537.97,518L545.17,494.59L553.15,483.57L600.71,510.63L614.75,509.41L622.14,519.88L608.03,532.18L617.99,555.05L628.99,550.55L633.28,568.83L647.29,576.72L647.67,587.15L627.45,590.3L626.03,608.54L597.35,625.32L602.52,642.29L633.72,648.99L632.75,665.93L623.01,676.31L596.18,670.28L592.5,694.37L578.28,710.56L571.27,704L546.97,710.98L535.56,705.03L523.12,716.65L498.4,719.04L499.17,731.43L463.3,744.11L459.62,716.05L450.02,706.82L457.74,685.4L445.49,676.8L434.01,679.93L416.47,672.56L408.37,649.65L397.12,633.87L384.26,606.99Z" fill-rule="evenodd" fill="#4682b4" fill-opacity="0.471"/>
<polyline points="384.26,606.99 436.08,572.41 453.24,569.99 472.96,574.11 487.97,565.78 482.83,552.7 507.77,511.87 518.6,526.96 537.97,518 545.17,494.59 553.15,483.57 600.71,510.63 614.75,509.41 622.14,519.88 608.03,532.18 617.99,555.05 628.99,550.55 633.28,568.83 647.29,576.72 647.67,587.15 627.45,590.3 626.03,608.54 597.35,625.32 602.52,642.29 633.72,648.99 632.75,665.93 623.01,676.31 596.18,670.28 592.5,694.37 578.28,710.56 571.27,704 546.97,710.98 535.56,705.03 523.12,716.65 498.4,719.04 499.17,731.43 463.3,744.11 459.62,716.05 450.02,706.82 457.74,685.4 445.49,676.8 434.01,679.93 416.47,672.56 408.37,649.65 397.12,633.87 384.26,606.99" fill="none" stroke="#1e1e1e" stroke-width="1.72" stroke-linecap="round" stroke-linejoin="round"/>
<path d="M658.65,400.15L674.44,387.18L660.56,364.96L659.35,344.1L682.91,342.9L701.65,347.53L747.45,348.96L771.47,330.1L781.05,344.45L817.26,339.91L839.07,353.59L848.65,328.82L872.61,315.1L886.94,292.91L907.42,296.78L904.84,307.86L886.55,315.08L879.62,335.29L897.07,341.78L913.14,316.32L931.47,322.78L955.89,325.3L955.06,336.38L967.78,351.97L977.39,354.53L941.72,384.66L942.24,408.78L921.72,416.67L912.57,426.47L885.86,406.33L860.53,420.71L845.23,425.28L843.49,437.02L827.75,447.45L828.19,459.18L858.82,455.9L878.16,504.76L872.92,512.58L852.77,530.21L821.19,539.35L797.51,527.61L772.1,511.29L765.96,515.19L750.21,499.52L762.94,484.56L725.71,483.17L725.32,467.53L717.07,444.69L705.66,455.09L679.48,436.09L670.82,415.2L658.65,400.15Z" fill-rule="evenodd" fill="#4682b4" fill-opacity="0.471"/>
<polyline points="658.65,400.15 674.44,387.18 660.56,364.96 659.35,344.1 682.91,342.9 701.65,347.53 747.45,348.96 771.47,330.1 781.05,344.45 817.26,339.91 839.07,353.59 848.65,328.82 872.61,315.1 886.94,292.91 907.42,296.78 904.84,307.86 886.55,315.08 879.62,335.29 897.07,341.78 913.14,316.32 931.47,322.78 955.89,325.3 955.06,336.38 967.78,351.97 977.39,354.53 941.72,384.66 942.24,408.78 921.72,416.67 912.57,426.47 885.86,406.33 860.53,420.71 845.23,425.28 843.49,437.02 827.75,447.45 828.19,459.18 858.82,455.9 878.16,504.76 872.92,512.58 852.77,530.21 821.19,539.35 797.51,527.61 772.1,511.29 765.96,515.19 750.21,499.52 762.94,484.56 725.71,483.17 725.32,467.53 717.07,444.69 705.66,455.09 679.48,436.09 670.82,415.2 658.65,400.15" fill="none" stroke="#1e1e1e" stroke-width="1.72" stroke-linecap="round" stroke-linejoin="round"/>
<path d="M874.98,1825.81L860.45,1852.55L862.74,1864.28L840.42,1869.52L841.34,1895.59L837.71,1916.46L886.96,1905.97L889.26,1916.39L865.09,1922.3L876.12,1968.57L832.71,1978.39L833.16,1960.13L780.19,1937.95L774.3,1907.31L791.18,1900.81L780.29,1850.6L786.21,1849.3L778.97,1809.53L789.43,1806.94L799.43,1825.2L816.27,1828.46L874.98,1825.81Z" fill-rule="evenodd" fill="#4682b4" fill-opacity="0.471"/>
<polyline points="874.98,1825.81 860.45,1852.55 862.74,1864.28 840.42,1869.52 841.34,1895.59 837.71,1916.46 886.96,1905.97 889.26,1916.39 865.09,1922.3 876.12,1968.57 832.71,1978.39 833.16,1960.13 780.19,1937.95 774.3,1907.31 791.18,1900.81 780.29,1850.6 786.21,1849.3 778.97,1809.53 789.43,1806.94 799.43,1825.2 816.27,1828.46 874.98,1825.81" fill="none" stroke="#1e1e1e" stroke-width="1.72" stroke-linecap="round" stroke-linejoin="round"/>
<path d="M826.71,1719.6L853.02,1710.46L864.82,1712.41L867.1,1724.79L836.71,1737.85L817.18,1737.2L814.92,1728.08L826.71,1719.6Z" fill-rule="evenodd" fill="#4682b4" fill-opacity="0.471"/>
<polyline points="826.71,1719.6 853.02,1710.46 864.82,1712.41 867.1,1724.79 836.71,1737.85 817.18,1737.2 814.92,1728.08 826.71,1719.6" fill="none" stroke="#1e1e1e" stroke-width="1.72" stroke-linecap="round" stroke-linejoin="round"/>
<path d="M875.23,1416.49L889.64,1422.98L901.71,1387.11L889.52,1363.02L878.74,1361.09L883.19,1339.58L915.05,1335.59L983.01,1373.79L1013.53,1367.12L1024.85,1382.05L1035.87,1421.08L971.15,1437.06L973.53,1466.38L1047.76,1449.69L1072.24,1472.98L1094.91,1490.41L1056.49,1542.83L1070.26,1575.32L1035.07,1584.03L1050.4,1648.46L1006.08,1658.5L993.12,1603.81L961.04,1611.12L974.4,1665.82L917.35,1679.71L911.88,1666.69L883.35,1673.92L876.98,1661.55L901.45,1661.5L895.98,1645.22L876.05,1642L868.32,1621.15L876.02,1623.75L895.9,1611.98L892.24,1591.78L874.16,1595.07L861.94,1583.36L870.96,1571.61L870.04,1555.97L856.91,1526.01L869.53,1516.22L893.43,1513.57L891.11,1480.98L893.76,1452.95L872.59,1451.69L870.76,1435.4L875.23,1416.49Z" fill-rule="evenodd" fill="#4682b4" fill-opacity="0.471"/>
<polyline points="875.23,1416.49 889.64,1422.98 901.71,1387.11 889.52,1363.02 878.74,1361.09 883.19,1339.58 915.05,1335.59 983.01,1373.79 1013.53,1367.12 1024.85,1382.05 1035.87,1421.08 971.15,1437.06 973.53,1466.38 1047.76,1449.69 1072.24,1472.98 1094.91,1490.41 1056.49,1542.83 1070.26,1575.32 1035.07,1584.03 1050.4,1648.46 1006.08,1658.5 993.12,1603.81 961.04,1611.12 974.4,1665.82 917.35,1679.71 911.88,1666.69 883.35,1673.92 876.98,1661.55 901.45,1661.5 895.98,1645.22 876.05,1642 868.32,1621.15 876.02,1623.75 895.9,1611.98 892.24,1591.78 874.16,1595.07 861.94,1583.36 870.96,1571.61 870.04,1555.97 856.91,1526.01 869.53,1516.22 893.43,1513.57 891.11,1480.98 893.76,1452.95 872.59,1451.69 870.76,1435.4 875.23,1416.49" fill="none" stroke="#1e1e1e" stroke-width="1.72" stroke-linecap="round" stroke-linejoin="round"/>
<path d="M990.96,1717.23L998.84,1751.09L916.7,1770.96L903.52,1770.35L888.96,1761.25L884.38,1741.06L990.96,1717.23Z" fill-rule="evenodd" fill="#4682b4" fill-opacity="0.471"/>
<polyline points="990.96,1717.23 998.84,1751.09 916.7,1770.96 903.52,1770.35 888.96,1761.25 884.38,1741.06 990.96,1717.23" fill="none" stroke="#1e1e1e" stroke-width="1.72" stroke-linecap="round" stroke-linejoin="round"/>
<path d="M334.86,494.22L351.25,480.76L346.59,469.62L357.62,463.25L369.38,434.73L383.76,438.82L397.14,453.33L412.84,421.58L422.8,429.52L450.77,431.79L458.09,442.29L472.62,433.32L492.1,455.02L525.56,431.21L539.46,442.4L551.99,463.36L562.44,471.26L545.17,494.59L537.97,518L518.6,526.96L507.77,511.87L482.83,552.7L487.97,565.78L472.96,574.11L453.24,569.99L436.08,572.41L384.26,606.99L379.9,604.33L366.11,583.29L354.75,578.58L338.99,543.82L328.98,537.81L326.99,523.44L334.86,494.22Z" fill-rule="evenodd" fill="#4682b4" fill-opacity="0.471"/>
<polyline points="334.86,494.22 351.25,480.76 346.59,469.62 357.62,463.25 369.38,434.73 383.76,438.82 397.14,453.33 412.84,421.58 422.8,429.52 450.77,431.79 458.09,442.29 472.62,433.32 492.1,455.02 525.56,431.21 539.46,442.4 551.99,463.36 562.44,471.26 545.17,494.59 537.97,518 518.6,526.96 507.77,511.87 482.83,552.7 487.97,565.78 472.96,574.11 453.24,569.99 436.08,572.41 384.26,606.99 379.9,604.33 366.11,583.29 354.75,578.58 338.99,543.82 328.98,537.81 326.99,523.44 334.86,494.22" fill="none" stroke="#1e1e1e" stroke-width="1.72" stroke-linecap="round" stroke-linejoin="round"/>
<path d="M694.82,1040.94L712.18,1040.99L717.55,1031.89L734.89,1036.49L750.88,1050.21L755.89,990.92L791.89,986.41L781.24,972.06L779.49,954.46L788.83,936.22L829.21,945.36L846.52,944.05L857.18,949.25L858.08,962.93L879.87,977.89L874.11,990.28L895.94,1013.7L891.96,1022.83L912.48,1043.64L933.89,1057.26L940.17,1072.23L958.44,1072.16L976.41,1105.32L959.08,1121.69L967.63,1139.25L943.58,1154.33L935.6,1171.95L923.51,1162.22L914.67,1196.78L920.53,1211.1L901.75,1213.11L881.61,1205.98L864.62,1209.26L853.42,1192.33L836.43,1188.43L808.72,1200.17L821.69,1239.27L808.26,1245.79L776.47,1248.37L779.62,1228.17L754.12,1227.48L749.69,1202.71L736.31,1187.69L727.87,1170.07L714.15,1126.37L695.92,1106.76L696.08,1062.45L683.63,1057.19L694.82,1040.94Z" fill-rule="evenodd" fill="#4682b4" fill-opacity="0.471"/>
<polyline points="694.82,1040.94 712.18,1040.99 717.55,1031.89 734.89,1036.49 750.88,1050.21 755.89,990.92 791.89,986.41 781.24,972.06 779.49,954.46 788.83,936.22 829.21,945.36 846.52,944.05 857.18,949.25 858.08,962.93 879.87,977.89 874.11,990.28 895.94,1013.7 891.96,1022.83 912.48,1043.64 933.89,1057.26 940.17,1072.23 958.44,1072.16 976.41,1105.32 959.08,1121.69 967.63,1139.25 943.58,1154.33 935.6,1171.95 923.51,1162.22 914.67,1196.78 920.53,1211.1 901.75,1213.11 881.61,1205.98 864.62,1209.26 853.42,1192.33 836.43,1188.43 808.72,1200.17 821.69,1239.27 808.26,1245.79 776.47,1248.37 779.62,1228.17 754.12,1227.48 749.69,1202.71 736.31,1187.69 727.87,1170.07 714.15,1126.37 695.92,1106.76 696.08,1062.45 683.63,1057.19 694.82,1040.94" fill="none" stroke="#1e1e1e" stroke-width="1.72" stroke-linecap="round" stroke-linejoin="round"/>
<path d="M857.18,949.25L874.92,941.4L880.28,958.34L910.55,987.6L920.27,968.67L931.36,964.08L954.95,977.68L973.7,998.45L982.22,1013.4L998.67,1013.32L1012.51,1023.03L1016.6,1036.69L1014.03,1055.6L1023.01,1068.58L1058.29,1081.39L1071.2,1078.7L1095.72,1081.12L1121.57,1080.9L1128.59,1118.64L1127.6,1159.06L1124.56,1168.86L1093.51,1197.14L1064,1196.71L1059.62,1210.42L1046.08,1190.96L1030.35,1177.37L1025.94,1187.18L990.97,1165.86L967.63,1139.25L959.08,1121.69L976.41,1105.32L958.44,1072.16L940.17,1072.23L933.89,1057.26L912.48,1043.64L891.96,1022.83L895.94,1013.7L874.11,990.28L879.87,977.89L858.08,962.93L857.18,949.25Z" fill-rule="evenodd" fill="#4682b4" fill-opacity="0.471"/>
<polyline points="857.18,949.25 874.92,941.4 880.28,958.34 910.55,987.6 920.27,968.67 931.36,964.08 954.95,977.68 973.7,998.45 982.22,1013.4 998.67,1013.32 1012.51,1023.03 1016.6,1036.69 1014.03,1055.6 1023.01,1068.58 1058.29,1081.39 1071.2,1078.7 1095.72,1081.12 1121.57,1080.9 1128.59,1118.64 1127.6,1159.06 1124.56,1168.86 1093.51,1197.14 1064,1196.71 1059.62,1210.42 1046.08,1190.96 1030.35,1177.37 1025.94,1187.18 990.97,1165.86 967.63,1139.25 959.08,1121.69 976.41,1105.32 958.44,1072.16 940.17,1072.23 933.89,1057.26 912.48,1043.64 891.96,1022.83 895.94,1013.7 874.11,990.28 879.87,977.89 858.08,962.93 857.18,949.25" fill="none" stroke="#1e1e1e" stroke-width="1.72" stroke-linecap="round" stroke-linejoin="round"/>
<path d="M754.12,1227.48L779.62,1228.17L776.47,1248.37L808.26,1245.79L821.69,1239.27L808.72,1200.17L836.43,1188.43L853.42,1192.33L864.62,1209.26L881.61,1205.98L901.75,1213.11L904.07,1249.6L898.77,1278.93L902.86,1306.3L890.79,1323.27L891.27,1338.26L883.19,1339.58L878.74,1361.09L889.52,1363.02L901.71,1387.11L889.64,1422.98L875.23,1416.49L862.18,1412.6L848.68,1399.58L864.85,1388.48L844.61,1368.3L833.38,1377.43L831.14,1389.16L815.85,1400.24L802.81,1401.54L795.18,1376.12L770,1389.13L749.32,1388.44L748.01,1370.84L759.7,1365.65L758.85,1340.89L744.08,1320L744.14,1288.72L757.23,1237.91L754.12,1227.48Z" fill-rule="evenodd" fill="#4682b4" fill-opacity="0.471"/>
<polyline points="754.12,1227.48 779.62,1228.17 776.47,1248.37 808.26,1245.79 821.69,1239.27 808.72,1200.17 836.43,1188.43 853.42,1192.33 864.62,1209.26 881.61,1205.98 901.75,1213.11 904.07,1249.6 898.77,1278.93 902.86,1306.3 890.79,1323.27 891.27,1338.26 883.19,1339.58 878.74,1361.09 889.52,1363.02 901.71,1387.11 889.64,1422.98 875.23,1416.49 862.18,1412.6 848.68,1399.58 864.85,1388.48 844.61,1368.3 833.38,1377.43 831.14,1389.16 815.85,1400.24 802.81,1401.54 795.18,1376.12 770,1389.13 749.32,1388.44 748.01,1370.84 759.7,1365.65 758.85,1340.89 744.08,1320 744.14,1288.72 757.23,1237.91 754.12,1227.48" fill="none" stroke="#1e1e1e" stroke-width="1.72" stroke-linecap="round" stroke-linejoin="round"/>
<path d="M667.3,821.21L684.46,842.78L699.5,846.75L701.67,857.18L714.95,859.83L721.56,869.63L736.62,868.36L767.61,881.46L768.04,887.32L763.59,902.3L749.39,908.8L766.21,928.38L779.52,921.88L788.83,936.22L779.49,954.46L781.24,972.06L791.89,986.41L755.89,990.92L750.88,1050.21L734.89,1036.49L717.55,1031.89L712.18,1040.99L694.82,1040.94L680.24,1014.81L681.2,996.57L659.93,982.14L665.83,952.84L648.52,952.11L649.03,938.43L641.59,917.54L622.13,908.31L625.42,874.44L641.81,875.18L641.88,862.14L633.09,848.41L636.72,832.79L667.3,821.21Z" fill-rule="evenodd" fill="#4682b4" fill-opacity="0.471"/>
<polyline points="667.3,821.21 684.46,842.78 699.5,846.75 701.67,857.18 714.95,859.83 721.56,869.63 736.62,868.36 767.61,881.46 768.04,887.32 763.59,902.3 749.39,908.8 766.21,928.38 779.52,921.88 788.83,936.22 779.49,954.46 781.24,972.06 791.89,986.41 755.89,990.92 750.88,1050.21 734.89,1036.49 717.55,1031.89 712.18,1040.99 694.82,1040.94 680.24,1014.81 681.2,996.57 659.93,982.14 665.83,952.84 648.52,952.11 649.03,938.43 641.59,917.54 622.13,908.31 625.42,874.44 641.81,875.18 641.88,862.14 633.09,848.41 636.72,832.79 667.3,821.21" fill="none" stroke="#1e1e1e" stroke-width="1.72" stroke-linecap="round" stroke-linejoin="round"/>
<path d="M319.3,92.45L331.49,88.06L341.38,93.42L346.48,68.71L356.31,46.68L379.64,48.3L381.56,66.58L410.95,70.2L419.03,45.52L449.03,30.87L469.48,17.4L473.6,37L496.39,49.61L514.56,49.78L541.02,39.57L557.82,46.88L572.39,65.24L593.54,73.21L597.34,87.58L580.89,88.12L549.93,115.92L516.72,98.04L505.44,100.54L490.54,118L461.62,107.28L448.19,107.14L442.42,119.46L428.1,196.87L400.35,192.63L373.67,174.04L371.79,151.85L379.58,120.01L356.76,108.62L333.55,125.9L310.83,108.62L319.3,92.45Z" fill-rule="evenodd" fill="#4682b4" fill-opacity="0.471"/>
<polyline points="319.3,92.45 331.49,88.06 341.38,93.42 346.48,68.71 356.31,46.68 379.64,48.3 381.56,66.58 410.95,70.2 419.03,45.52 449.03,30.87 469.48,17.4 473.6,37 496.39,49.61 514.56,49.78 541.02,39.57 557.82,46.88 572.39,65.24 593.54,73.21 597.34,87.58 580.89,88.12 549.93,115.92 516.72,98.04 505.44,100.54 490.54,118 461.62,107.28 448.19,107.14 442.42,119.46 428.1,196.87 400.35,192.63 373.67,174.04 371.79,151.85 379.58,120.01 356.76,108.62 333.55,125.9 310.83,108.62 319.3,92.45" fill="none" stroke="#1e1e1e" stroke-width="1.72" stroke-linecap="round" stroke-linejoin="round"/>
<path d="M866.17,710.07L888.21,706.77L885.98,693.09L890.78,668.97L917.14,650L957.54,627.7L951.35,619.91L953.42,585.36L981.2,608.05L979.48,615.88L1011.63,625.49L1017.74,616.98L1033.54,613.63L1040.49,600.55L1055.98,616.09L1063.43,612.13L1075.98,644.62L1095.34,643.82L1099.38,653.56L1127.71,672.22L1140.19,687.75L1121.52,719.2L1114.17,736.86L1095.69,743.53L1099.05,776.74L1077.55,795.81L1054.16,800.54L1036.62,822.81L1010.06,820.36L995.5,826.3L994.31,853.68L1002.33,863.41L991.74,871.94L984.56,851.77L975.72,855.72L959.25,832.33L950,842.8L935.76,820.69L932.6,801.15L918.89,797.93L917.49,772.52L893.22,781.05L880.4,775.21L880.37,761.53L870.19,743.3L866.17,710.07Z" fill-rule="evenodd" fill="#4682b4" fill-opacity="0.471"/>
<polyline points="866.17,710.07 888.21,706.77 885.98,693.09 890.78,668.97 917.14,650 957.54,627.7 951.35,619.91 953.42,585.36 981.2,608.05 979.48,615.88 1011.63,625.49 1017.74,616.98 1033.54,613.63 1040.49,600.55 1055.98,616.09 1063.43,612.13 1075.98,644.62 1095.34,643.82 1099.38,653.56 1127.71,672.22 1140.19,687.75 1121.52,719.2 1114.17,736.86 1095.69,743.53 1099.05,776.74 1077.55,795.81 1054.16,800.54 1036.62,822.81 1010.06,820.36 995.5,826.3 994.31,853.68 1002.33,863.41 991.74,871.94 984.56,851.77 975.72,855.72 959.25,832.33 950,842.8 935.76,820.69 932.6,801.15 918.89,797.93 917.49,772.52 893.22,781.05 880.4,775.21 880.37,761.53 870.19,743.3 866.17,710.07" fill="none" stroke="#1e1e1e" stroke-width="1.72" stroke-linecap="round" stroke-linejoin="round"/>
<path d="M919.44,532.68L929.07,526.14L939.09,507.2L971.14,520.11L987.79,518.08L977.15,493.36L980.16,480.97L1006.88,482.13L1021.63,457.93L1043.98,462.36L1046.46,440.18L1063.85,424.42L1053.71,413.41L1084.38,422.31L1095.48,443.73L1082.14,471.86L1072.46,524.73L1085.52,569.6L1081.76,594.39L1100,621.62L1095.34,643.82L1075.98,644.62L1063.43,612.13L1055.98,616.09L1040.49,600.55L1033.54,613.63L1017.74,616.98L1011.63,625.49L979.48,615.88L981.2,608.05L953.42,585.36L956.86,566.45L931.83,566.54L909.42,557.48L919.44,532.68Z" fill-rule="evenodd" fill="#4682b4" fill-opacity="0.471"/>
<polyline points="919.44,532.68 929.07,526.14 939.09,507.2 971.14,520.11 987.79,518.08 977.15,493.36 980.16,480.97 1006.88,482.13 1021.63,457.93 1043.98,462.36 1046.46,440.18 1063.85,424.42 1053.71,413.41 1084.38,422.31 1095.48,443.73 1082.14,471.86 1072.46,524.73 1085.52,569.6 1081.76,594.39 1100,621.62 1095.34,643.82 1075.98,644.62 1063.43,612.13 1055.98,616.09 1040.49,600.55 1033.54,613.63 1017.74,616.98 1011.63,625.49 979.48,615.88 981.2,608.05 953.42,585.36 956.86,566.45 931.83,566.54 909.42,557.48 919.44,532.68" fill="none" stroke="#1e1e1e" stroke-width="1.72" stroke-linecap="round" stroke-linejoin="round"/>
<path d="M289.43,371.66L295.94,374.37L315.37,359.67L310.31,347.21L319.28,331.04L343.95,313.14L359.52,321.83L371.11,335.67L384.86,318.25L393.45,328.13L410.21,312.7L441.74,298.72L441.12,276.55L470.5,298.37L489.74,291.39L507.93,302.64L496.95,311.67L494.61,328.59L484.93,337.63L496.53,355.99L484.69,362.39L492.85,375.51L538.64,383.08L535.03,396.74L540.19,406.56L561.08,419.11L568.34,441.97L590.28,431.7L599.02,432.41L613.23,470.3L604.91,470.25L588.09,498.16L580.72,486.38L551.99,463.36L539.46,442.4L525.56,431.21L492.1,455.02L472.62,433.32L458.09,442.29L450.77,431.79L422.8,429.52L412.84,421.58L397.14,453.33L383.76,438.82L369.38,434.73L357.62,463.25L346.59,469.62L351.25,480.76L334.86,494.22L319.87,470.54L305.21,454.68L304.66,433.16L297.49,415.46L296.48,395.89L278.28,386.48L289.43,371.66Z" fill-rule="evenodd" fill="#4682b4" fill-opacity="0.471"/>
<polyline points="289.43,371.66 295.94,374.37 315.37,359.67 310.31,347.21 319.28,331.04 343.95,313.14 359.52,321.83 371.11,335.67 384.86,318.25 393.45,328.13 410.21,312.7 441.74,298.72 441.12,276.55 470.5,298.37 489.74,291.39 507.93,302.64 496.95,311.67 494.61,328.59 484.93,337.63 496.53,355.99 484.69,362.39 492.85,375.51 538.64,383.08 535.03,396.74 540.19,406.56 561.08,419.11 568.34,441.97 590.28,431.7 599.02,432.41 613.23,470.3 604.91,470.25 588.09,498.16 580.72,486.38 551.99,463.36 539.46,442.4 525.56,431.21 492.1,455.02 472.62,433.32 458.09,442.29 450.77,431.79 422.8,429.52 412.84,421.58 397.14,453.33 383.76,438.82 369.38,434.73 357.62,463.25 346.59,469.62 351.25,480.76 334.86,494.22 319.87,470.54 305.21,454.68 304.66,433.16 297.49,415.46 296.48,395.89 278.28,386.48 289.43,371.66" fill="none" stroke="#1e1e1e" stroke-width="1.72" stroke-linecap="round" stroke-linejoin="round"/>
<path d="M977.39,354.53L990.01,347.96L1002.78,370.05L1013.75,379.77L1007.31,399.36L1053.71,413.41L1063.85,424.42L1046.46,440.18L1043.98,462.36L1021.63,457.93L1006.88,482.13L980.16,480.97L977.15,493.36L987.79,518.08L971.14,520.11L939.09,507.2L929.07,526.14L919.44,532.68L883.87,509.96L872.92,512.58L878.16,504.76L858.82,455.9L828.19,459.18L827.75,447.45L843.49,437.02L845.23,425.28L860.53,420.71L885.86,406.33L912.57,426.47L921.72,416.67L942.24,408.78L941.72,384.66L977.39,354.53Z" fill-rule="evenodd" fill="#4682b4" fill-opacity="0.471"/>
<polyline points="977.39,354.53 990.01,347.96 1002.78,370.05 1013.75,379.77 1007.31,399.36 1053.71,413.41 1063.85,424.42 1046.46,440.18 1043.98,462.36 1021.63,457.93 1006.88,482.13 980.16,480.97 977.15,493.36 987.79,518.08 971.14,520.11 939.09,507.2 929.07,526.14 919.44,532.68 883.87,509.96 872.92,512.58 878.16,504.76 858.82,455.9 828.19,459.18 827.75,447.45 843.49,437.02 845.23,425.28 860.53,420.71 885.86,406.33 912.57,426.47 921.72,416.67 942.24,408.78 941.72,384.66 977.39,354.53" fill="none" stroke="#1e1e1e" stroke-width="1.72" stroke-linecap="round" stroke-linejoin="round"/>
<path d="M614.75,509.41L636.72,498.46L639.87,482.83L655.16,492.03L670.56,475.16L649.65,452.9L636.5,458.7L626.33,476.24L613.23,470.3L607.19,455.27L612.13,435.1L629.18,435.85L655.52,416.43L658.65,400.15L670.82,415.2L679.48,436.09L705.66,455.09L717.07,444.69L725.32,467.53L725.71,483.17L762.94,484.56L750.21,499.52L765.96,515.19L772.1,511.29L797.51,527.61L821.19,539.35L826.46,564.77L822.07,583.01L811.09,587.58L804.93,627.33L776.35,619.48L745.13,618.78L740.26,633.76L714.35,618.7L714.57,693L659.98,681.71L623.01,676.31L632.75,665.93L633.72,648.99L602.52,642.29L597.35,625.32L626.03,608.54L627.45,590.3L647.67,587.15L647.29,576.72L633.28,568.83L628.99,550.55L617.99,555.05L608.03,532.18L622.14,519.88L614.75,509.41Z" fill-rule="evenodd" fill="#4682b4" fill-opacity="0.471"/>
<polyline points="614.75,509.41 636.72,498.46 639.87,482.83 655.16,492.03 670.56,475.16 649.65,452.9 636.5,458.7 626.33,476.24 613.23,470.3 607.19,455.27 612.13,435.1 629.18,435.85 655.52,416.43 658.65,400.15 670.82,415.2 679.48,436.09 705.66,455.09 717.07,444.69 725.32,467.53 725.71,483.17 762.94,484.56 750.21,499.52 765.96,515.19 772.1,511.29 797.51,527.61 821.19,539.35 826.46,564.77 822.07,583.01 811.09,587.58 804.93,627.33 776.35,619.48 745.13,618.78 740.26,633.76 714.35,618.7 714.57,693 659.98,681.71 623.01,676.31 632.75,665.93 633.72,648.99 602.52,642.29 597.35,625.32 626.03,608.54 627.45,590.3 647.67,587.15 647.29,576.72 633.28,568.83 628.99,550.55 617.99,555.05 608.03,532.18 622.14,519.88 614.75,509.41" fill="none" stroke="#1e1e1e" stroke-width="1.72" stroke-linecap="round" stroke-linejoin="round"/>
<path d="M1018.45,287.18L1014.69,315.88L1033.97,332.06L1034.03,341.84L1052.94,364.53L1068.56,352.03L1096.67,373.98L1123.29,372.45L1125.7,348.96L1139.59,341.67L1161.4,341.45L1165.96,360.96L1173.48,413.03L1205.34,408.77L1176.42,443.63L1173.04,455.4L1181.94,469L1194.1,460.39L1206.86,466.12L1195.41,499.48L1180.59,507.47L1175.91,520.55L1187.99,543.23L1178.62,570.71L1182.78,590.22L1160.64,617.17L1138.76,628.46L1154.45,658.94L1168.9,650.97L1168.04,696.6L1173.04,711.54L1194.39,687.86L1195.6,718.47L1210,704.63L1227.53,695.95L1236.47,742.77L1218.8,741.02L1210.69,765.23L1237.46,751.88L1236.97,747.33L1260.72,740.51L1264.02,757.42L1257.92,763.36L1264.48,792.61L1303.31,788.17L1303.74,755.58L1341.56,745.9L1353.73,819.37L1333,823.59L1346.53,898.34L1313.36,904.05L1324.88,933.86L1332.75,925.92L1361.08,921.58L1369.18,957.3L1357.23,959.44L1355.34,1010.31L1338.06,1014.48L1344.91,1026.11L1375,1015.87L1378.94,1039.27L1402.46,1034.97L1415.88,1038.66L1424.99,1076.3L1468.93,1066.39L1484.38,1058.93L1495.01,1101.74L1515.22,1086.35L1520.45,1102.54L1508.12,1110.61L1527.08,1143.48L1523.22,1173.54L1525.77,1189.13L1515.07,1213.46L1525.61,1247.8L1511.02,1257.87L1514.93,1274.08L1485.01,1279.88L1477.46,1259.82L1467.84,1248.26L1453.52,1249.18L1445.2,1259.75L1418.59,1249.14L1426.07,1241.84L1429.64,1215.05L1426.27,1201.42L1412.99,1209.47L1389.06,1196.18L1402.12,1175.11L1392.48,1158.98L1388.22,1117.33L1350.07,1102.29L1353.82,1113.97L1334.3,1121.43L1328.19,1131.29L1312.42,1120.44L1308.77,1082.69L1304.86,1057.98L1297.61,1048.95L1302.24,1029.99L1298.98,1019.61L1277.98,1012.72L1267.05,1027.2L1256.43,1031.9L1232.67,1017.85L1220.91,1001.04L1219.91,991.28L1256.37,992.14L1252.62,976.55L1262.72,966.64L1258.05,948.45L1239.04,918.71L1218.58,914.39L1220.67,902.63L1200.05,882.66L1249.25,812.35L1238.57,806.62L1231.21,819.74L1206.57,831.76L1195.89,826.01L1173.16,852.97L1168.72,851.06L1138.61,803.12L1162.35,789.21L1156,772.98L1157.58,753.41L1121.52,719.2L1140.19,687.75L1127.71,672.22L1099.38,653.56L1095.34,643.82L1100,621.62L1081.76,594.39L1085.52,569.6L1072.46,524.73L1082.14,471.86L1095.48,443.73L1084.38,422.31L1007.31,399.36L1013.75,379.77L1002.78,370.05L990.01,347.96L977.39,354.53L967.78,351.97L955.06,336.38L955.89,325.3L931.47,322.78L913.14,316.32L897.07,341.78L879.62,335.29L886.55,315.08L904.84,307.86L907.42,296.78L924.4,293.47L924.37,283.04L889.5,263.58L866.43,264.27L886.38,229.04L906.81,226.38L915.1,236.79L944.26,245.82L948.66,257.54L977.77,250.24L985.2,257.38L1011.73,254.63L1021.38,268.26L1018.45,287.18ZM1162.79,789.2L1183.89,778.56L1186.81,762.89L1165.25,770.28L1162.79,789.2Z" fill-rule="evenodd" fill="#4682b4" fill-opacity="0.471"/>
<polyline points="1018.45,287.18 1014.69,315.88 1033.97,332.06 1034.03,341.84 1052.94,364.53 1068.56,352.03 1096.67,373.98 1123.29,372.45 1125.7,348.96 1139.59,341.67 1161.4,341.45 1165.96,360.96 1173.48,413.03 1205.34,408.77 1176.42,443.63 1173.04,455.4 1181.94,469 1194.1,460.39 1206.86,466.12 1195.41,499.48 1180.59,507.47 1175.91,520.55 1187.99,543.23 1178.62,570.71 1182.78,590.22 1160.64,617.17 1138.76,628.46 1154.45,658.94 1168.9,650.97 1168.04,696.6 1173.04,711.54 1194.39,687.86 1195.6,718.47 1210,704.63 1227.53,695.95 1236.47,742.77 1218.8,741.02 1210.69,765.23 1237.46,751.88 1236.97,747.33 1260.72,740.51 1264.02,757.42 1257.92,763.36 1264.48,792.61 1303.31,788.17 1303.74,755.58 1341.56,745.9 1353.73,819.37 1333,823.59 1346.53,898.34 1313.36,904.05 1324.88,933.86 1332.75,925.92 1361.08,921.58 1369.18,957.3 1357.23,959.44 1355.34,1010.31 1338.06,1014.48 1344.91,1026.11 1375,1015.87 1378.94,1039.27 1402.46,1034.97 1415.88,1038.66 1424.99,1076.3 1468.93,1066.39 1484.38,1058.93 1495.01,1101.74 1515.22,1086.35 1520.45,1102.54 1508.12,1110.61 1527.08,1143.48 1523.22,1173.54 1525.77,1189.13 1515.07,1213.46 1525.61,1247.8 1511.02,1257.87 1514.93,1274.08 1485.01,1279.88 1477.46,1259.82 1467.84,1248.26 1453.52,1249.18 1445.2,1259.75 1418.59,1249.14 1426.07,1241.84 1429.64,1215.05 1426.27,1201.42 1412.99,1209.47 1389.06,1196.18 1402.12,1175.11 1392.48,1158.98 1388.22,1117.33 1350.07,1102.29 1353.82,1113.97 1334.3,1121.43 1328.19,1131.29 1312.42,1120.44 1308.77,1082.69 1304.86,1057.98 1297.61,1048.95 1302.24,1029.99 1298.98,1019.61 1277.98,1012.72 1267.05,1027.2 1256.43,1031.9 1232.67,1017.85 1220.91,1001.04 1219.91,991.28 1256.37,992.14 1252.62,976.55 1262.72,966.64 1258.05,948.45 1239.04,918.71 1218.58,914.39 1220.67,902.63 1200.05,882.66 1249.25,812.35 1238.57,806.62 1231.21,819.74 1206.57,831.76 1195.89,826.01 1173.16,852.97 1168.72,851.06 1138.61,803.12 1162.35,789.21 1156,772.98 1157.58,753.41 1121.52,719.2 1140.19,687.75 1127.71,672.22 1099.38,653.56 1095.34,643.82 1100,621.62 1081.76,594.39 1085.52,569.6 1072.46,524.73 1082.14,471.86 1095.48,443.73 1084.38,422.31 1007.31,399.36 1013.75,379.77 1002.78,370.05 990.01,347.96 977.39,354.53 967.78,351.97 955.06,336.38 955.89,325.3 931.47,322.78 913.14,316.32 897.07,341.78 879.62,335.29 886.55,315.08 904.84,307.86 907.42,296.78 924.4,293.47 924.37,283.04 889.5,263.58 866.43,264.27 886.38,229.04 906.81,226.38 915.1,236.79 944.26,245.82 948.66,257.54 977.77,250.24 985.2,257.38 1011.73,254.63 1021.38,268.26 1018.45,287.18" fill="none" stroke="#1e1e1e" stroke-width="1.72" stroke-linecap="round" stroke-linejoin="round"/>
<polyline points="1162.79,789.2 1183.89,778.56 1186.81,762.89 1165.25,770.28 1162.79,789.2" fill="none" stroke="#1e1e1e" stroke-width="1.72" stroke-linecap="round" stroke-linejoin="round"/>
<path d="M609.34,107.86L637.39,127.58L668.17,126.43L680.72,131.04L690.2,147.38L685.28,183.86L694.38,188.46L710.05,176.78L728.73,172.93L730.4,198.35L744.71,204.9L781.23,182.15L797.3,178.9L809.01,188.04L809.44,204.33L800.31,223.23L784.22,233L782.9,248.64L804.21,248.65L815.96,225.19L827.69,223.89L838.56,231.7L840.31,247.35L832.49,257.78L839.9,276.03L851.23,291.01L863.42,289.04L866.43,264.27L889.5,263.58L924.37,283.04L924.4,293.47L907.42,296.78L886.94,292.91L872.61,315.1L848.65,328.82L839.07,353.59L817.26,339.91L781.05,344.45L771.47,330.1L747.45,348.96L701.65,347.53L682.91,342.9L659.35,344.1L644.65,319.26L658.22,306.94L688.75,299.25L683.61,277.72L666.81,236.58L640.34,226.03L622.19,207.02L610.84,217.39L599.16,207.53L586.74,181.38L609.39,169.79L618.12,160.72L611.71,145.04L595.22,146.23L587.52,130.54L593.7,114.93L609.34,107.86Z" fill-rule="evenodd" fill="#4682b4" fill-opacity="0.471"/>
<polyline points="609.34,107.86 637.39,127.58 668.17,126.43 680.72,131.04 690.2,147.38 685.28,183.86 694.38,188.46 710.05,176.78 728.73,172.93 730.4,198.35 744.71,204.9 781.23,182.15 797.3,178.9 809.01,188.04 809.44,204.33 800.31,223.23 784.22,233 782.9,248.64 804.21,248.65 815.96,225.19 827.69,223.89 838.56,231.7 840.31,247.35 832.49,257.78 839.9,276.03 851.23,291.01 863.42,289.04 866.43,264.27 889.5,263.58 924.37,283.04 924.4,293.47 907.42,296.78 886.94,292.91 872.61,315.1 848.65,328.82 839.07,353.59 817.26,339.91 781.05,344.45 771.47,330.1 747.45,348.96 701.65,347.53 682.91,342.9 659.35,344.1 644.65,319.26 658.22,306.94 688.75,299.25 683.61,277.72 666.81,236.58 640.34,226.03 622.19,207.02 610.84,217.39 599.16,207.53 586.74,181.38 609.39,169.79 618.12,160.72 611.71,145.04 595.22,146.23 587.52,130.54 593.7,114.93 609.34,107.86" fill="none" stroke="#1e1e1e" stroke-width="1.72" stroke-linecap="round" stroke-linejoin="round"/>
<path d="M768.04,887.32L787.1,886.69L808.81,877.58L819,882.15L832.28,860.64L851.77,866.49L851.75,848.24L861.93,841.06L837.57,807.85L862.32,801.96L880.4,775.21L893.22,781.05L917.49,772.52L918.89,797.93L932.6,801.15L935.76,820.69L950,842.8L959.25,832.33L975.72,855.72L984.56,851.77L991.74,871.94L977.68,896.77L983.04,903.92L971.61,927.43L954.35,937.93L939.26,936.68L931.76,951.69L944.27,971.85L931.36,964.08L920.27,968.67L910.55,987.6L880.28,958.34L874.92,941.4L857.18,949.25L846.52,944.05L829.21,945.36L788.83,936.22L779.52,921.88L766.21,928.38L749.39,908.8L763.59,902.3L768.04,887.32Z" fill-rule="evenodd" fill="#4682b4" fill-opacity="0.471"/>
<polyline points="768.04,887.32 787.1,886.69 808.81,877.58 819,882.15 832.28,860.64 851.77,866.49 851.75,848.24 861.93,841.06 837.57,807.85 862.32,801.96 880.4,775.21 893.22,781.05 917.49,772.52 918.89,797.93 932.6,801.15 935.76,820.69 950,842.8 959.25,832.33 975.72,855.72 984.56,851.77 991.74,871.94 977.68,896.77 983.04,903.92 971.61,927.43 954.35,937.93 939.26,936.68 931.76,951.69 944.27,971.85 931.36,964.08 920.27,968.67 910.55,987.6 880.28,958.34 874.92,941.4 857.18,949.25 846.52,944.05 829.21,945.36 788.83,936.22 779.52,921.88 766.21,928.38 749.39,908.8 763.59,902.3 768.04,887.32" fill="none" stroke="#1e1e1e" stroke-width="1.72" stroke-linecap="round" stroke-linejoin="round"/>
<path d="M1389.06,1196.18L1412.99,1209.47L1426.27,1201.42L1429.64,1215.05L1426.07,1241.84L1418.59,1249.14L1445.2,1259.75L1453.52,1249.18L1467.84,1248.26L1477.46,1259.82L1485.01,1279.88L1508.44,1308.76L1537.6,1308.83L1540.23,1327.68L1552.31,1346.98L1570.7,1345.94L1568.69,1357.07L1591.53,1353.31L1604.39,1366.07L1583.67,1384.78L1568.18,1375.33L1552.66,1385.43L1537.36,1385.1L1515.13,1375.12L1492.13,1394.47L1494.16,1406.81L1455.1,1386.03L1463.06,1378.71L1447.92,1362.04L1441.25,1340.65L1428.96,1331.09L1419.12,1333.21L1422.62,1354.01L1401.16,1360.24L1389.38,1353.91L1398.27,1402.65L1364.61,1407.75L1354.2,1403.35L1347.36,1367.6L1320.79,1363.43L1310.69,1347.93L1318.18,1338.05L1290.98,1318.22L1270.01,1292.42L1284.65,1280.5L1274.11,1263.04L1309.19,1240.41L1317.75,1244.2L1338.47,1222.39L1358.27,1229.26L1381.02,1196.97L1389.06,1196.18Z" fill-rule="evenodd" fill="#4682b4" fill-opacity="0.471"/>
<polyline points="1389.06,1196.18 1412.99,1209.47 1426.27,1201.42 1429.64,1215.05 1426.07,1241.84 1418.59,1249.14 1445.2,1259.75 1453.52,1249.18 1467.84,1248.26 1477.46,1259.82 1485.01,1279.88 1508.44,1308.76 1537.6,1308.83 1540.23,1327.68 1552.31,1346.98 1570.7,1345.94 1568.69,1357.07 1591.53,1353.31 1604.39,1366.07 1583.67,1384.78 1568.18,1375.33 1552.66,1385.43 1537.36,1385.1 1515.13,1375.12 1492.13,1394.47 1494.16,1406.81 1455.1,1386.03 1463.06,1378.71 1447.92,1362.04 1441.25,1340.65 1428.96,1331.09 1419.12,1333.21 1422.62,1354.01 1401.16,1360.24 1389.38,1353.91 1398.27,1402.65 1364.61,1407.75 1354.2,1403.35 1347.36,1367.6 1320.79,1363.43 1310.69,1347.93 1318.18,1338.05 1290.98,1318.22 1270.01,1292.42 1284.65,1280.5 1274.11,1263.04 1309.19,1240.41 1317.75,1244.2 1338.47,1222.39 1358.27,1229.26 1381.02,1196.97 1389.06,1196.18" fill="none" stroke="#1e1e1e" stroke-width="1.72" stroke-linecap="round" stroke-linejoin="round"/>
<path d="M817.18,1737.2L836.71,1737.85L867.1,1724.79L864.82,1712.41L853.02,1710.46L845.3,1700.04L838.92,1641.38L846.13,1597.71L857.89,1598.35L868.32,1621.15L876.05,1642L895.98,1645.22L901.45,1661.5L876.98,1661.55L883.35,1673.92L911.88,1666.69L917.35,1679.71L974.4,1665.82L961.04,1611.12L993.12,1603.81L1006.08,1658.5L985.3,1670.33L984.48,1689.89L990.96,1717.23L884.38,1741.06L888.96,1761.25L903.52,1770.35L916.7,1770.96L958.46,1761.05L964.02,1785.8L925.4,1795.06L908.11,1790.54L910,1819.22L894.07,1814.69L881.29,1793.86L880.8,1773.65L853.54,1775.64L846.25,1754.79L825.81,1763.28L826.26,1741.77L817.18,1737.2Z" fill-rule="evenodd" fill="#4682b4" fill-opacity="0.471"/>
<polyline points="817.18,1737.2 836.71,1737.85 867.1,1724.79 864.82,1712.41 853.02,1710.46 845.3,1700.04 838.92,1641.38 846.13,1597.71 857.89,1598.35 868.32,1621.15 876.05,1642 895.98,1645.22 901.45,1661.5 876.98,1661.55 883.35,1673.92 911.88,1666.69 917.35,1679.71 974.4,1665.82 961.04,1611.12 993.12,1603.81 1006.08,1658.5 985.3,1670.33 984.48,1689.89 990.96,1717.23 884.38,1741.06 888.96,1761.25 903.52,1770.35 916.7,1770.96 958.46,1761.05 964.02,1785.8 925.4,1795.06 908.11,1790.54 910,1819.22 894.07,1814.69 881.29,1793.86 880.8,1773.65 853.54,1775.64 846.25,1754.79 825.81,1763.28 826.26,1741.77 817.18,1737.2" fill="none" stroke="#1e1e1e" stroke-width="1.72" stroke-linecap="round" stroke-linejoin="round"/>
<path d="M1094.91,1490.41L1124.41,1513.63L1072.56,1580.52L1097.65,1609.66L1085.66,1639.74L1050.4,1648.46L1035.07,1584.03L1070.26,1575.32L1056.49,1542.83L1094.91,1490.41Z" fill-rule="evenodd" fill="#4682b4" fill-opacity="0.471"/>
<polyline points="1094.91,1490.41 1124.41,1513.63 1072.56,1580.52 1097.65,1609.66 1085.66,1639.74 1050.4,1648.46 1035.07,1584.03 1070.26,1575.32 1056.49,1542.83 1094.91,1490.41" fill="none" stroke="#1e1e1e" stroke-width="1.72" stroke-linecap="round" stroke-linejoin="round"/>
<path d="M821.19,539.35L852.77,530.21L872.92,512.58L883.87,509.96L919.44,532.68L909.42,557.48L931.83,566.54L956.86,566.45L953.42,585.36L951.35,619.91L957.54,627.7L917.14,650L890.78,668.97L885.98,693.09L888.21,706.77L866.17,710.07L825.62,721.18L807.98,712.7L796.07,717.91L771.38,714.63L756.84,707.44L728.64,704.77L714.57,693L714.35,618.7L740.26,633.76L745.13,618.78L776.35,619.48L804.93,627.33L811.09,587.58L822.07,583.01L826.46,564.77L821.19,539.35Z" fill-rule="evenodd" fill="#4682b4" fill-opacity="0.471"/>
<polyline points="821.19,539.35 852.77,530.21 872.92,512.58 883.87,509.96 919.44,532.68 909.42,557.48 931.83,566.54 956.86,566.45 953.42,585.36 951.35,619.91 957.54,627.7 917.14,650 890.78,668.97 885.98,693.09 888.21,706.77 866.17,710.07 825.62,721.18 807.98,712.7 796.07,717.91 771.38,714.63 756.84,707.44 728.64,704.77 714.57,693 714.35,618.7 740.26,633.76 745.13,618.78 776.35,619.48 804.93,627.33 811.09,587.58 822.07,583.01 826.46,564.77 821.19,539.35" fill="none" stroke="#1e1e1e" stroke-width="1.72" stroke-linecap="round" stroke-linejoin="round"/>
<path d="M463.3,744.11L499.17,731.43L498.4,719.04L523.12,716.65L535.56,705.03L546.97,710.98L571.27,704L578.28,710.56L592.5,694.37L596.18,670.28L623.01,676.31L659.98,681.71L714.57,693L728.64,704.77L733.43,728.24L728.96,750.39L717.49,749.05L710.38,764.02L686.49,775.02L684.23,788.69L708.52,793.99L704.5,805.06L682.85,803.68L667.3,821.21L636.72,832.79L633.09,848.41L641.88,862.14L641.81,875.18L625.42,874.44L622.13,908.31L641.59,917.54L649.03,938.43L648.52,952.11L665.83,952.84L662.2,971.73L655.07,975.6L637.34,967.69L626.32,952.65L609.04,946.68L594.52,926.39L571.98,914.5L573.39,903.44L557.9,900.06L552.09,848.54L537.56,838.64L538.59,820.4L525.97,796.84L516.65,801.32L496.4,791.36L484.9,792.56L471.82,774.83L476.74,768.36L463.3,744.11Z" fill-rule="evenodd" fill="#4682b4" fill-opacity="0.471"/>
<polyline points="463.3,744.11 499.17,731.43 498.4,719.04 523.12,716.65 535.56,705.03 546.97,710.98 571.27,704 578.28,710.56 592.5,694.37 596.18,670.28 623.01,676.31 659.98,681.71 714.57,693 728.64,704.77 733.43,728.24 728.96,750.39 717.49,749.05 710.38,764.02 686.49,775.02 684.23,788.69 708.52,793.99 704.5,805.06 682.85,803.68 667.3,821.21 636.72,832.79 633.09,848.41 641.88,862.14 641.81,875.18 625.42,874.44 622.13,908.31 641.59,917.54 649.03,938.43 648.52,952.11 665.83,952.84 662.2,971.73 655.07,975.6 637.34,967.69 626.32,952.65 609.04,946.68 594.52,926.39 571.98,914.5 573.39,903.44 557.9,900.06 552.09,848.54 537.56,838.64 538.59,820.4 525.97,796.84 516.65,801.32 496.4,791.36 484.9,792.56 471.82,774.83 476.74,768.36 463.3,744.11" fill="none" stroke="#1e1e1e" stroke-width="1.72" stroke-linecap="round" stroke-linejoin="round"/>
<text x="921.45" y="773.68" font-family="sans-serif" font-size="14" stroke="#ffffff" stroke-opacity="0.784" stroke-width="2.33" stroke-linejoin="round" paint-order="stroke" fill="#141414">Administrative-Territorial Units from the Left Bank of the Dniester</text>
<text x="922.3" y="1520.44" font-family="sans-serif" font-size="14" stroke="#ffffff" stroke-opacity="0.784" stroke-width="2.33" stroke-linejoin="round" paint-order="stroke" fill="#141414">Gagauzia</text>
<text x="707.35" y="1743.43" font-family="sans-serif" font-size="14" stroke="#ffffff" stroke-opacity="0.784" stroke-width="2.33" stroke-linejoin="round" paint-order="stroke" fill="#141414">Cahul District</text>
<text x="752.43" y="1103.19" font-family="sans-serif" font-size="14" stroke="#ffffff" stroke-opacity="0.784" stroke-width="2.33" stroke-linejoin="round" paint-order="stroke" fill="#141414">Hîncești District</text>
<text x="1164.45" y="1223.49" font-family="sans-serif" font-size="14" stroke="#ffffff" stroke-opacity="0.784" stroke-width="2.33" stroke-linejoin="round" paint-order="stroke" fill="#141414">Caușeni District</text>
<text x="937.27" y="727.18" font-family="sans-serif" font-size="14" stroke="#ffffff" stroke-opacity="0.784" stroke-width="2.33" stroke-linejoin="round" paint-order="stroke" fill="#141414">Orhei District</text>
<text x="735.63" y="417.01" font-family="sans-serif" font-size="14" stroke="#ffffff" stroke-opacity="0.784" stroke-width="2.33" stroke-linejoin="round" paint-order="stroke" fill="#141414">Florești District</text>
<text x="532.77" y="793.33" font-family="sans-serif" font-size="14" stroke="#ffffff" stroke-opacity="0.784" stroke-width="2.33" stroke-linejoin="round" paint-order="stroke" fill="#141414">Ungheni District</text>
<text x="456.36" y="623.32" font-family="sans-serif" font-size="14" stroke="#ffffff" stroke-opacity="0.784" stroke-width="2.33" stroke-linejoin="round" paint-order="stroke" fill="#141414">Fălești District</text>
<text x="664.9" y="256.35" font-family="sans-serif" font-size="14" stroke="#ffffff" stroke-opacity="0.784" stroke-width="2.33" stroke-linejoin="round" paint-order="stroke" fill="#141414">Soroca District</text>
<text x="626.42" y="566.53" font-family="sans-serif" font-size="14" stroke="#ffffff" stroke-opacity="0.784" stroke-width="2.33" stroke-linejoin="round" paint-order="stroke" fill="#141414">Sîngerei District</text>
<text x="514.7" y="321.51" font-family="sans-serif" font-size="14" stroke="#ffffff" stroke-opacity="0.784" stroke-width="2.33" stroke-linejoin="round" paint-order="stroke" fill="#141414">Drochia District</text>
<text x="1319.28" y="1317.01" font-family="sans-serif" font-size="14" stroke="#ffffff" stroke-opacity="0.784" stroke-width="2.33" stroke-linejoin="round" paint-order="stroke" fill="#141414">Ștefan Vodă District</text>
<text x="355.06" y="397.59" font-family="sans-serif" font-size="14" stroke="#ffffff" stroke-opacity="0.784" stroke-width="2.33" stroke-linejoin="round" paint-order="stroke" fill="#141414">Rîșcani District</text>
<text x="269.68" y="255.73" font-family="sans-serif" font-size="14" stroke="#ffffff" stroke-opacity="0.784" stroke-width="2.33" stroke-linejoin="round" paint-order="stroke" fill="#141414">Edineț District</text>
<text x="921.08" y="1269.37" font-family="sans-serif" font-size="14" stroke="#ffffff" stroke-opacity="0.784" stroke-width="2.33" stroke-linejoin="round" paint-order="stroke" fill="#141414">Cimișlia District</text>
<text x="1108.9" y="1055.92" font-family="sans-serif" font-size="14" stroke="#ffffff" stroke-opacity="0.784" stroke-width="2.33" stroke-linejoin="round" paint-order="stroke" fill="#141414">Anenii Noi District</text>
<text x="716.13" y="1490.43" font-family="sans-serif" font-size="14" stroke="#ffffff" stroke-opacity="0.784" stroke-width="2.33" stroke-linejoin="round" paint-order="stroke" fill="#141414">Cantemir District</text>
<text x="762.53" y="636.27" font-family="sans-serif" font-size="14" stroke="#ffffff" stroke-opacity="0.784" stroke-width="2.33" stroke-linejoin="round" paint-order="stroke" fill="#141414">Telenești District</text>
<text x="138.97" y="148.66" font-family="sans-serif" font-size="14" stroke="#ffffff" stroke-opacity="0.784" stroke-width="2.33" stroke-linejoin="round" paint-order="stroke" fill="#141414">Briceni District</text>
<text x="938.64" y="1095.77" font-family="sans-serif" font-size="14" stroke="#ffffff" stroke-opacity="0.784" stroke-width="2.33" stroke-linejoin="round" paint-order="stroke" fill="#141414">Ialoveni District</text>
<text x="363.19" y="512.73" font-family="sans-serif" font-size="14" stroke="#ffffff" stroke-opacity="0.784" stroke-width="2.33" stroke-linejoin="round" paint-order="stroke" fill="#141414">Glodeni District</text>
<text x="707.24" y="802.3" font-family="sans-serif" font-size="14" stroke="#ffffff" stroke-opacity="0.784" stroke-width="2.33" stroke-linejoin="round" paint-order="stroke" fill="#141414">Calarași District</text>
<text x="765.7" y="1310.02" font-family="sans-serif" font-size="14" stroke="#ffffff" stroke-opacity="0.784" stroke-width="2.33" stroke-linejoin="round" paint-order="stroke" fill="#141414">Leova District</text>
<text x="813.02" y="891.25" font-family="sans-serif" font-size="14" stroke="#ffffff" stroke-opacity="0.784" stroke-width="2.33" stroke-linejoin="round" paint-order="stroke" fill="#141414">Strășeni District</text>
<text x="1003.3" y="866.79" font-family="sans-serif" font-size="14" stroke="#ffffff" stroke-opacity="0.784" stroke-width="2.33" stroke-linejoin="round" paint-order="stroke" fill="#141414">Criuleni District</text>
<text x="423.05" y="187.07" font-family="sans-serif" font-size="14" stroke="#ffffff" stroke-opacity="0.784" stroke-width="2.33" stroke-linejoin="round" paint-order="stroke" fill="#141414">Dondușeni District</text>
<text x="834.96" y="1709.81" font-family="sans-serif" font-size="14" stroke="#ffffff" stroke-opacity="0.784" stroke-width="2.33" stroke-linejoin="round" paint-order="stroke" fill="#141414">Taraclia District</text>
<text x="625.16" y="940.23" font-family="sans-serif" font-size="14" stroke="#ffffff" stroke-opacity="0.784" stroke-width="2.33" stroke-linejoin="round" paint-order="stroke" fill="#141414">Nisporeni District</text>
<text x="954.9" y="546.26" font-family="sans-serif" font-size="14" stroke="#ffffff" stroke-opacity="0.784" stroke-width="2.33" stroke-linejoin="round" paint-order="stroke" fill="#141414">Rezina District</text>
<text x="377.93" y="102.82" font-family="sans-serif" font-size="14" stroke="#ffffff" stroke-opacity="0.784" stroke-width="2.33" stroke-linejoin="round" paint-order="stroke" fill="#141414">Ocnița District</text>
<text x="864.7" y="453.17" font-family="sans-serif" font-size="14" stroke="#ffffff" stroke-opacity="0.784" stroke-width="2.33" stroke-linejoin="round" paint-order="stroke" fill="#141414">Șoldănești District</text>
<text x="938.71" y="987.75" font-family="sans-serif" font-size="14" stroke="#ffffff" stroke-opacity="0.784" stroke-width="2.33" stroke-linejoin="round" paint-order="stroke" fill="#141414">Chisinau Municipality</text>
<text x="944.3" y="1397.77" font-family="sans-serif" font-size="14" stroke="#ffffff" stroke-opacity="0.784" stroke-width="2.33" stroke-linejoin="round" paint-order="stroke" fill="#141414">Basarabeasca District</text>
<text x="541.3" y="491.28" font-family="sans-serif" font-size="14" stroke="#ffffff" stroke-opacity="0.784" stroke-width="2.33" stroke-linejoin="round" paint-order="stroke" fill="#141414">Bălți Municipality</text>
<text x="1202.54" y="1104.62" font-family="sans-serif" font-size="14" stroke="#ffffff" stroke-opacity="0.784" stroke-width="2.33" stroke-linejoin="round" paint-order="stroke" fill="#141414">Bender Municipality</text>
</svg>
