<?xml version="1.0" encoding="UTF-8" standalone="no"?>
<svg xmlns="http://www.w3.org/2000/svg" width="1734" height="2000" viewBox="0 0 1734 2000">
<rect width="1734" height="2000" fill="#ffffff"/>
<path d="M382.51,1990.56L368.63,1905.47L397.91,1990.56L382.51,1990.56Z" fill-rule="evenodd" fill="#4682b4" fill-opacity="0.471"/>
<polyline points="382.51,1990.56 368.63,1905.47 397.91,1990.56 382.51,1990.56" fill="none" stroke="#1e1e1e" stroke-width="8.6" stroke-linecap="round" stroke-linejoin="round"/>
<path d="M594.88,1990.58L865.85,1755.71L496.24,1570.19L723.7,1580.04L799.56,1716L1329.92,1086.18L838.28,1376.41L768.52,1061.96L1212.03,1087.82L1389.41,344.16L1725.69,288.22L1726,1990.51L594.88,1990.58Z" fill-rule="evenodd" fill="#4682b4" fill-opacity="0.471"/>
<polyline points="594.88,1990.58 865.85,1755.71 496.24,1570.19 723.7,1580.04 799.56,1716 1329.92,1086.18 838.28,1376.41 768.52,1061.96 1212.03,1087.82 1389.41,344.16 1725.69,288.22 1726,1990.51 594.88,1990.58" fill="none" stroke="#1e1e1e" stroke-width="8.6" stroke-linecap="round" stroke-linejoin="round"/>
</svg>
