<?xml version="1.0" encoding="UTF-8" standalone="no"?>
<svg xmlns="http://www.w3.org/2000/svg" width="2000" height="1974" viewBox="0 0 2000 1974">
<rect width="2000" height="1974" fill="#ffffff"/>
<polyline points="932.65,772.14 938.96,776.57 940.86,774.38 951.5,770.65 958.91,768.95 963.92,768.61 969.02,769.31 972.57,768.05 975.67,765.69 983.21,762.94 991.32,761.92 1008.23,763.77 1023.22,758.45 1037.11,751.88 1052.74,750.22" fill="none" stroke="#1e1e1e" stroke-width="1.11" stroke-linecap="round" stroke-linejoin="round"/>
<polyline points="1335.45,463.56 1341.19,470.02 1344.83,468.94 1359.96,454.83 1362.16,451.61 1367.1,449.31 1367.72,446.19 1375.02,442.21 1382.54,444.65 1389.9,449.73 1398.46,450.06 1402.38,449.24 1405.86,447.17 1410.89,434.98 1413.63,431.22 1418.55,429.76 1429.35,421.67 1435.94,415.06" fill="none" stroke="#1e1e1e" stroke-width="1.11" stroke-linecap="round" stroke-linejoin="round"/>
<polyline points="1216.94,515.97 1211.29,512.39 1204.15,511.41 1191.3,503.15 1188.02,502.24 1185.69,500.65 1183.96,496.87 1180.7,495.45 1177.27,495.93 1174.15,495.31 1172.21,496.46 1170.73,494.61 1167.28,496.14 1163.63,496.54 1162.11,495.32 1158.47,494.46 1157.07,492.58 1155.86,494.79 1153.45,491.47 1150.23,489.71 1149.7,486.39 1144.56,480.96 1143.89,477.09 1140.35,473.87 1123.39,464.67 1120.08,461.15 1116.11,452.71 1113.82,449.51 1112.65,441.6 1110.53,441 1108.32,441.64 1107.34,439.08 1108.4,433.96 1106.41,432.84 1107.21,430.69 1105.76,428.43 1106.74,426.45 1106.34,423.64 1107.68,420.9 1107.5,419.19 1106.29,417.4 1105.59,413.72 1102.24,412.06 1102.53,409.35 1101.25,409.05 1099.54,405.91 1098.19,405.71 1098.78,402.03 1096.92,401.31 1091.82,395.33 1077.48,388.28 1076.24,390.04 1074.42,386.75 1073.71,379.58" fill="none" stroke="#1e1e1e" stroke-width="1.11" stroke-linecap="round" stroke-linejoin="round"/>
<polyline points="1216.94,515.97 1225.59,515.31 1240.28,511.32 1244.74,512.27 1249.14,511.37 1253.54,509.19 1261.74,508 1269.93,501.05 1281.68,495.78 1284.55,491.41 1286.44,485.28 1290.13,484.46 1293.75,479.97 1298.01,477.87 1301.07,474.67 1311.25,472.53 1319.33,469.29 1328.21,463.89 1335.45,463.57" fill="none" stroke="#1e1e1e" stroke-width="1.11" stroke-linecap="round" stroke-linejoin="round"/>
<polyline points="1401.31,473.1 1414.76,467.37 1418.91,464.52 1422.38,460.7 1426.71,459.29 1431.34,456.27 1442.9,453.05 1446.83,448.56 1452.32,438.1 1457.22,435.52 1462,436.37 1469.74,441.83 1474.32,442.66 1497.34,436.51 1512.47,436.58 1519.75,434.97 1538.21,425.72 1543.7,421.83 1553.37,410.54 1561.46,403.7 1575.3,384.48 1587.07,373.35 1589.81,369.15 1591.07,364.72 1596.44,326.91 1602.17,319.33 1603.42,314.9 1602.22,306.64 1603.75,301.19 1603.12,295.6 1603.92,292.85 1611.72,282.19 1613.8,278.03 1617.29,259.96 1624.43,249.87 1628.23,240.52 1631.8,235.1 1633.23,229.7 1637.23,221.68 1646.48,214.1 1647.74,211.01 1650.43,208.82 1653.01,203.18 1659.45,199.25 1663.63,194.78 1664.42,192.61 1662.09,187.47 1663.27,186.11 1672.8,180.61 1675.1,178.34 1688.75,157.46 1695.99,150.12 1703.94,145.82 1708.36,145.92 1711.56,143.79 1718.4,128.37 1724.29,122.87" fill="none" stroke="#1e1e1e" stroke-width="1.11" stroke-linecap="round" stroke-linejoin="round"/>
<polyline points="1436.45,396.44 1434.95,388.82 1435.11,386 1437.11,382.41 1450.54,371.39 1457.42,369.54 1460,367.68 1468.09,355.87 1471.35,353.02 1480.03,352.48 1485.83,349.38 1489.21,346.16 1493.57,339.48 1494.84,335.71 1495.49,328.92 1493.35,324.91 1493.72,319.98 1492.59,317.67 1487.14,312.24 1485.86,308.44 1483.03,307.01 1482.42,297.45 1480.85,295.66 1476.38,293.21 1471.49,287.99 1463.88,284.46 1458.4,279.47 1451.26,276.14 1450.24,274.74 1451.15,265.09 1447.82,259.33 1450.56,250.81 1449.23,249.18 1445.67,249.35 1442.34,245.97 1440.46,245.78 1429.7,246.5 1427.86,248.5 1424.52,245.09 1420.21,244.13 1408.46,249.31 1404.52,250.2 1395.49,249.97 1393.5,248.96 1385.65,239.55 1380.82,237.67 1375.57,232.68 1361.11,234.7 1359.11,234.27 1356.9,232.86 1347.39,222.96 1345.35,222.48 1341.56,225.8 1340.39,224.35 1339.24,219.18 1336.85,216.63 1337.24,213.09 1335.69,210.95 1333.39,210.15 1330.56,210.46 1326.94,208.84 1317.18,207.12 1313.45,207.79 1309.59,210.31 1303.01,217.24 1299.14,220.15 1294.93,221.09 1290.29,218.78 1287.67,223.08 1282.81,225.17 1281.58,228.31 1279.54,229.68 1279.45,231.77 1282.17,233.51 1277.25,234.71 1278.29,237.9 1274.9,243.69 1269.82,245.86 1268.3,250.05 1266.34,251.89 1265.31,248.6 1263.51,248.47 1259.14,253.62 1256.16,254.18" fill="none" stroke="#1e1e1e" stroke-width="1.11" stroke-linecap="round" stroke-linejoin="round"/>
<text x="1552.36" y="348.93" font-family="sans-serif" font-size="14" stroke="#ffffff" stroke-opacity="0.784" stroke-width="2.33" stroke-linejoin="round" paint-order="stroke" fill="#141414">Moulouya</text>
<text x="1070.31" y="473.32" font-family="sans-serif" font-size="14" stroke="#ffffff" stroke-opacity="0.784" stroke-width="2.33" stroke-linejoin="round" paint-order="stroke" fill="#141414">Oum Er Rbia</text>
<text x="1367.96" y="251.15" font-family="sans-serif" font-size="14" stroke="#ffffff" stroke-opacity="0.784" stroke-width="2.33" stroke-linejoin="round" paint-order="stroke" fill="#141414">Oued Sebou</text>
<text x="971.3" y="768.97" font-family="sans-serif" font-size="14" stroke="#ffffff" stroke-opacity="0.784" stroke-width="2.33" stroke-linejoin="round" paint-order="stroke" fill="#141414">Sous</text>
</svg>
