<?xml version="1.0" encoding="UTF-8" standalone="no"?>
<svg xmlns="http://www.w3.org/2000/svg" width="2000" height="1974" viewBox="0 0 2000 1974">
<rect width="2000" height="1974" fill="#ffffff"/>
<path d="M1389.32,32.14L1391.15,32.2L1392.24,36.16L1395.52,37.66L1394.57,41.81L1395.36,50.03L1397.61,60.07L1398.88,62.56L1403.83,62.01L1402.72,64.57L1407.5,79.18L1410.82,81.47L1415.28,82.25L1417.45,85.64L1422.76,89.19L1428.16,98.58L1432.82,98.69L1442.84,109.65L1448.23,111.86L1458.92,119.72L1470.46,123.69L1473.24,122.53L1475.27,124.71L1478.46,125.66L1479.85,125.08L1487.85,127.04L1490.66,126.8L1498.04,129.44L1500.19,128.82L1504.03,129.87L1516.95,124.05L1520.23,124.58L1523.62,122.58L1527.21,122.57L1531.18,121.48L1541.49,116.27L1545.74,116.62L1551.23,112.93L1553.89,119.2L1559.18,120.96L1562.97,120.8L1565.39,123.88L1564.53,134.15L1565.41,139.3L1564.92,145.56L1566.16,149.1L1564.04,157.96L1565.2,162.02L1564.33,164.72L1553.72,168.76L1544.46,171.41L1542.27,171.24L1535.53,179.75L1530.85,182.6L1523.21,179.85L1519.08,174.71L1513.22,180.91L1514.1,183.93L1509.24,187.84L1505.12,188.66L1501.28,188.15L1500.83,190.69L1498.54,193.56L1491.52,189.85L1487.7,189.86L1484.31,192.51L1482.41,188.33L1478.12,187.29L1467.68,188.34L1461.65,184.44L1460.56,181.42L1459.8,172.16L1452.04,174.82L1449.61,173.84L1439.99,179.35L1434.52,178.87L1421.6,183.81L1417.79,187.38L1418.41,206.6L1416.71,211.44L1410.06,211.91L1410.05,215.23L1407.82,217.42L1404.11,217.4L1395.94,214.87L1391.68,215L1390.83,212.24L1393.12,208.32L1392.05,205.57L1389.48,203.52L1380.37,201.8L1377.54,194.58L1374.93,194.79L1373.3,191.25L1364.85,189.64L1363.19,192.47L1360.8,192.8L1359.21,190.72L1352.97,189.83L1350.84,187.76L1352.16,184.15L1351.77,177.92L1350.98,176.61L1352.69,171.39L1350.79,169.58L1351.73,164.25L1346.02,162.28L1341.16,163.73L1336.68,162.92L1326.94,156.4L1324.92,158.57L1321.88,158.65L1319.49,154.46L1316.75,153.46L1312.57,156.09L1307.49,157.27L1301.14,155.83L1308.58,130.02L1310.71,128.24L1317.9,102.83L1320.73,94.92L1323.05,92.2L1332.79,50.34L1335.01,48.69L1339.88,49.09L1346.15,49.72L1347.93,51.67L1351.52,48.91L1353.37,45.54L1359.13,43.11L1361.97,44.5L1364.96,43.35L1367.89,43.93L1373,41.79L1373.58,39.51L1376.02,38.24L1382.21,32.34L1384.73,33.59L1389.32,32.14Z" fill-rule="evenodd" fill="#4682b4" fill-opacity="0.471"/>
<polyline points="1389.32,32.14 1391.15,32.2 1392.24,36.16 1395.52,37.66 1394.57,41.81 1395.36,50.03 1397.61,60.07 1398.88,62.56 1403.83,62.01 1402.72,64.57 1407.5,79.18 1410.82,81.47 1415.28,82.25 1417.45,85.64 1422.76,89.19 1428.16,98.58 1432.82,98.69 1442.84,109.65 1448.23,111.86 1458.92,119.72 1470.46,123.69 1473.24,122.53 1475.27,124.71 1478.46,125.66 1479.85,125.08 1487.85,127.04 1490.66,126.8 1498.04,129.44 1500.19,128.82 1504.03,129.87 1516.95,124.05 1520.23,124.58 1523.62,122.58 1527.21,122.57 1531.18,121.48 1541.49,116.27 1545.74,116.62 1551.23,112.93 1553.89,119.2 1559.18,120.96 1562.97,120.8 1565.39,123.88 1564.53,134.15 1565.41,139.3 1564.92,145.56 1566.16,149.1 1564.04,157.96 1565.2,162.02 1564.33,164.72 1553.72,168.76 1544.46,171.41 1542.27,171.24 1535.53,179.75 1530.85,182.6 1523.21,179.85 1519.08,174.71 1513.22,180.91 1514.1,183.93 1509.24,187.84 1505.12,188.66 1501.28,188.15 1500.83,190.69 1498.54,193.56 1491.52,189.85 1487.7,189.86 1484.31,192.51 1482.41,188.33 1478.12,187.29 1467.68,188.34 1461.65,184.44 1460.56,181.42 1459.8,172.16 1452.04,174.82 1449.61,173.84 1439.99,179.35 1434.52,178.87 1421.6,183.81 1417.79,187.38 1418.41,206.6 1416.71,211.44 1410.06,211.91 1410.05,215.23 1407.82,217.42 1404.11,217.4 1395.94,214.87 1391.68,215 1390.83,212.24 1393.12,208.32 1392.05,205.57 1389.48,203.52 1380.37,201.8 1377.54,194.58 1374.93,194.79 1373.3,191.25 1364.85,189.64 1363.19,192.47 1360.8,192.8 1359.21,190.72 1352.97,189.83 1350.84,187.76 1352.16,184.15 1351.77,177.92 1350.98,176.61 1352.69,171.39 1350.79,169.58 1351.73,164.25 1346.02,162.28 1341.16,163.73 1336.68,162.92 1326.94,156.4 1324.92,158.57 1321.88,158.65 1319.49,154.46 1316.75,153.46 1312.57,156.09 1307.49,157.27 1301.14,155.83 1308.58,130.02 1310.71,128.24 1317.9,102.83 1320.73,94.92 1323.05,92.2 1332.79,50.34 1335.01,48.69 1339.88,49.09 1346.15,49.72 1347.93,51.67 1351.52,48.91 1353.37,45.54 1359.13,43.11 1361.97,44.5 1364.96,43.35 1367.89,43.93 1373,41.79 1373.58,39.51 1376.02,38.24 1382.21,32.34 1384.73,33.59 1389.32,32.14" fill="none" stroke="#1e1e1e" stroke-width="1.11" stroke-linecap="round" stroke-linejoin="round"/>
<path d="M1738.52,127.13L1738.14,131.94L1743.65,136.94L1748.09,138.28L1753.89,144.46L1758.96,147.22L1765.61,145.5L1765.87,151.74L1769.55,154.98L1775.04,157.31L1775.75,161.92L1779.05,162.38L1781,164L1792.57,169.28L1789.26,172.27L1787.58,177.02L1782.61,185.29L1788.49,193.84L1794.26,200.53L1800.29,202.55L1790.72,216.29L1792.3,218.72L1796.34,222.06L1799.81,226.89L1799.41,232.89L1800.22,237.09L1807.94,253.61L1804.01,284.65L1806.08,291.29L1807.5,292.93L1807.33,299.18L1802.64,301.85L1801.76,307.21L1806.59,310.37L1811.31,309.94L1813.43,315.78L1816.98,317.68L1818.11,323.45L1817.43,326.68L1819.01,328.97L1815.8,334.34L1816.03,339.89L1813.48,343.37L1811.86,349.43L1813.04,359.57L1811.97,361.89L1816.98,369.54L1819.5,370.84L1822.84,376.33L1823.46,379.08L1830.66,385.92L1835.22,387.89L1836.96,392.42L1835.46,395.16L1836.17,397.5L1834.86,401.43L1828.57,404.08L1846.28,428.8L1851.31,432.59L1861.06,436.73L1887.47,454.73L1891.49,456.45L1892.71,457.96L1886.29,467.27L1881.91,470.34L1879.87,473.26L1875.59,472.88L1872.78,474.25L1870.05,482.12L1866.73,486.17L1868.55,490.03L1867.44,495.27L1868.6,501.15L1862.34,506.59L1863.76,507.69L1871.54,504.93L1875.44,506.27L1879.15,513.17L1876.07,514.17L1871.92,517.62L1868.04,518.27L1866.05,517.08L1858.82,518.07L1857.2,517.25L1850.74,518.06L1842.07,517.42L1839.54,516.52L1832.04,518.58L1818.42,515.85L1812.59,515.94L1803.34,513.19L1799.12,513.71L1795.05,511.3L1787.73,512.66L1782.4,509.67L1769.61,515.18L1764.28,516.01L1753.13,513.07L1752.24,515.24L1749.19,514.75L1742.85,515.63L1738.91,515.32L1723.81,517.87L1717.56,522.44L1712.06,522.21L1703.16,523.47L1692.96,523.48L1687.06,524.31L1682.19,529.86L1681.09,534.67L1687.11,544.95L1686.99,546.94L1692.21,554.48L1692.83,557.75L1692.21,560.96L1694.8,563.21L1695.04,565.84L1647.22,578.82L1646.68,576.99L1657.46,567.34L1662,561.43L1652.33,563.62L1646.89,553.44L1643.57,545L1643.09,539.73L1643.69,528.99L1650.86,517.39L1642.67,521.76L1638.22,524.75L1635.67,527.52L1630.73,527.36L1618.55,523.3L1612.07,523.73L1609.49,525.96L1604.12,528.59L1600.37,525.05L1603.52,520.28L1607.16,516.68L1605.11,515.84L1597,517.27L1588.03,517L1588.58,511.56L1587.69,509.21L1581.13,510.03L1581.12,502.22L1579.73,498.45L1575.6,490.95L1568.54,485.04L1566.48,481.29L1565.54,477.62L1567.5,473.97L1558.12,468.41L1556.29,464.65L1556.33,460.28L1567.32,443.67L1571.75,435.4L1579,425.56L1584.26,421.35L1586.68,418.33L1591.1,407.68L1599.44,398.29L1602.47,396.44L1604.3,397.68L1618.28,402.46L1628.78,401.57L1662.98,392.75L1668.5,389.95L1676.06,383.74L1676.78,380.65L1672.43,373.45L1664.94,365.62L1660.14,362.55L1635.17,340.71L1638.25,338.18L1638.24,335.66L1642.22,333.35L1643.73,330.49L1649.52,324.64L1649.01,321.08L1658.56,311.19L1656.9,306.77L1640.88,308.22L1636.13,307.92L1625.31,305.39L1619.76,299.69L1615.15,297.78L1614.07,295.85L1609.91,294.05L1606.77,290.48L1604.22,290.07L1601.62,295.76L1590.4,313.11L1585.86,315.03L1581.31,321.86L1574.16,324.96L1568.58,333.68L1575.73,338.14L1571.15,344.44L1569.87,340.39L1566.84,336.68L1564.2,339.57L1560.8,340.25L1559.1,344.43L1555.15,344.86L1552.11,343.53L1549.83,344.55L1546.8,343.49L1542.9,339.8L1540.88,339.09L1543.29,330.65L1540.68,328.77L1538.89,325.53L1540.99,323.05L1551.02,317.6L1556.55,315.51L1554.42,309.24L1556.57,305.44L1559.41,302.4L1561.95,294.87L1561.21,290.39L1562.57,283.57L1569.72,278.62L1567.34,276.87L1567.61,262.93L1569.55,251.83L1562.68,250.41L1561.27,245.56L1559.19,245.65L1557.97,240.26L1563.95,239.21L1566.84,234.97L1564.88,225.1L1565.07,219.39L1570.2,216.64L1575.24,206.86L1572.57,203.26L1573.67,201.09L1572.01,198.11L1576.09,196.34L1583.07,196.16L1586.19,194.96L1586.7,189.49L1591.23,185.7L1587.83,180.54L1590.48,174.05L1590.23,168.61L1586.43,166.4L1572.86,167.67L1571.76,162.67L1565.2,162.02L1564.04,157.96L1566.16,149.1L1564.92,145.56L1565.41,139.3L1564.53,134.15L1565.39,123.88L1562.97,120.8L1566.07,119.6L1569.17,116.14L1570.55,110.5L1574.8,108.45L1577.53,108.86L1588.94,116.32L1599.28,119.04L1603.15,118.32L1606.15,119.65L1616.17,120.1L1619.21,117.83L1631.5,113.65L1637.23,106.59L1641.59,106.9L1645.09,103.14L1647.46,98.37L1649.98,92.39L1651.57,85.39L1655.45,84.93L1654.49,93.76L1656.67,100.29L1654.93,104.51L1657.14,107.45L1660.31,105.83L1660.67,106.34L1660.18,111.82L1661.26,113.76L1660.61,118.05L1665.52,124.84L1673.43,128.42L1679.63,128.49L1680.52,126.72L1675.47,121.67L1668.23,116.19L1667.73,114.89L1678.31,123.91L1685.78,127.51L1690.75,128.97L1699.93,129.67L1704.98,128.47L1709.31,126.11L1714.75,120.22L1738.52,127.13Z" fill-rule="evenodd" fill="#4682b4" fill-opacity="0.471"/>
<polyline points="1738.52,127.13 1738.14,131.94 1743.65,136.94 1748.09,138.28 1753.89,144.46 1758.96,147.22 1765.61,145.5 1765.87,151.74 1769.55,154.98 1775.04,157.31 1775.75,161.92 1779.05,162.38 1781,164 1792.57,169.28 1789.26,172.27 1787.58,177.02 1782.61,185.29 1788.49,193.84 1794.26,200.53 1800.29,202.55 1790.72,216.29 1792.3,218.72 1796.34,222.06 1799.81,226.89 1799.41,232.89 1800.22,237.09 1807.94,253.61 1804.01,284.65 1806.08,291.29 1807.5,292.93 1807.33,299.18 1802.64,301.85 1801.76,307.21 1806.59,310.37 1811.31,309.94 1813.43,315.78 1816.98,317.68 1818.11,323.45 1817.43,326.68 1819.01,328.97 1815.8,334.34 1816.03,339.89 1813.48,343.37 1811.86,349.43 1813.04,359.57 1811.97,361.89 1816.98,369.54 1819.5,370.84 1822.84,376.33 1823.46,379.08 1830.66,385.92 1835.22,387.89 1836.96,392.42 1835.46,395.16 1836.17,397.5 1834.86,401.43 1828.57,404.08 1846.28,428.8 1851.31,432.59 1861.06,436.73 1887.47,454.73 1891.49,456.45 1892.71,457.96 1886.29,467.27 1881.91,470.34 1879.87,473.26 1875.59,472.88 1872.78,474.25 1870.05,482.12 1866.73,486.17 1868.55,490.03 1867.44,495.27 1868.6,501.15 1862.34,506.59 1863.76,507.69 1871.54,504.93 1875.44,506.27 1879.15,513.17 1876.07,514.17 1871.92,517.62 1868.04,518.27 1866.05,517.08 1858.82,518.07 1857.2,517.25 1850.74,518.06 1842.07,517.42 1839.54,516.52 1832.04,518.58 1818.42,515.85 1812.59,515.94 1803.34,513.19 1799.12,513.71 1795.05,511.3 1787.73,512.66 1782.4,509.67 1769.61,515.18 1764.28,516.01 1753.13,513.07 1752.24,515.24 1749.19,514.75 1742.85,515.63 1738.91,515.32 1723.81,517.87 1717.56,522.44 1712.06,522.21 1703.16,523.47 1692.96,523.48 1687.06,524.31 1682.19,529.86 1681.09,534.67 1687.11,544.95 1686.99,546.94 1692.21,554.48 1692.83,557.75 1692.21,560.96 1694.8,563.21 1695.04,565.84 1647.22,578.82 1646.68,576.99 1657.46,567.34 1662,561.43 1652.33,563.62 1646.89,553.44 1643.57,545 1643.09,539.73 1643.69,528.99 1650.86,517.39 1642.67,521.76 1638.22,524.75 1635.67,527.52 1630.73,527.36 1618.55,523.3 1612.07,523.73 1609.49,525.96 1604.12,528.59 1600.37,525.05 1603.52,520.28 1607.16,516.68 1605.11,515.84 1597,517.27 1588.03,517 1588.58,511.56 1587.69,509.21 1581.13,510.03 1581.12,502.22 1579.73,498.45 1575.6,490.95 1568.54,485.04 1566.48,481.29 1565.54,477.62 1567.5,473.97 1558.12,468.41 1556.29,464.65 1556.33,460.28 1567.32,443.67 1571.75,435.4 1579,425.56 1584.26,421.35 1586.68,418.33 1591.1,407.68 1599.44,398.29 1602.47,396.44 1604.3,397.68 1618.28,402.46 1628.78,401.57 1662.98,392.75 1668.5,389.95 1676.06,383.74 1676.78,380.65 1672.43,373.45 1664.94,365.62 1660.14,362.55 1635.17,340.71 1638.25,338.18 1638.24,335.66 1642.22,333.35 1643.73,330.49 1649.52,324.64 1649.01,321.08 1658.56,311.19 1656.9,306.77 1640.88,308.22 1636.13,307.92 1625.31,305.39 1619.76,299.69 1615.15,297.78 1614.07,295.85 1609.91,294.05 1606.77,290.48 1604.22,290.07 1601.62,295.76 1590.4,313.11 1585.86,315.03 1581.31,321.86 1574.16,324.96 1568.58,333.68 1575.73,338.14 1571.15,344.44 1569.87,340.39 1566.84,336.68 1564.2,339.57 1560.8,340.25 1559.1,344.43 1555.15,344.86 1552.11,343.53 1549.83,344.55 1546.8,343.49 1542.9,339.8 1540.88,339.09 1543.29,330.65 1540.68,328.77 1538.89,325.53 1540.99,323.05 1551.02,317.6 1556.55,315.51 1554.42,309.24 1556.57,305.44 1559.41,302.4 1561.95,294.87 1561.21,290.39 1562.57,283.57 1569.72,278.62 1567.34,276.87 1567.61,262.93 1569.55,251.83 1562.68,250.41 1561.27,245.56 1559.19,245.65 1557.97,240.26 1563.95,239.21 1566.84,234.97 1564.88,225.1 1565.07,219.39 1570.2,216.64 1575.24,206.86 1572.57,203.26 1573.67,201.09 1572.01,198.11 1576.09,196.34 1583.07,196.16 1586.19,194.96 1586.7,189.49 1591.23,185.7 1587.83,180.54 1590.48,174.05 1590.23,168.61 1586.43,166.4 1572.86,167.67 1571.76,162.67 1565.2,162.02 1564.04,157.96 1566.16,149.1 1564.92,145.56 1565.41,139.3 1564.53,134.15 1565.39,123.88 1562.97,120.8 1566.07,119.6 1569.17,116.14 1570.55,110.5 1574.8,108.45 1577.53,108.86 1588.94,116.32 1599.28,119.04 1603.15,118.32 1606.15,119.65 1616.17,120.1 1619.21,117.83 1631.5,113.65 1637.23,106.59 1641.59,106.9 1645.09,103.14 1647.46,98.37 1649.98,92.39 1651.57,85.39 1655.45,84.93 1654.49,93.76 1656.67,100.29 1654.93,104.51 1657.14,107.45 1660.31,105.83 1660.67,106.34 1660.18,111.82 1661.26,113.76 1660.61,118.05 1665.52,124.84 1673.43,128.42 1679.63,128.49 1680.52,126.72 1675.47,121.67 1668.23,116.19 1667.73,114.89 1678.31,123.91 1685.78,127.51 1690.75,128.97 1699.93,129.67 1704.98,128.47 1709.31,126.11 1714.75,120.22 1738.52,127.13" fill="none" stroke="#1e1e1e" stroke-width="1.11" stroke-linecap="round" stroke-linejoin="round"/>
<path d="M1404.11,217.4L1407.82,217.42L1410.05,215.23L1410.06,211.91L1416.71,211.44L1418.41,206.6L1417.79,187.38L1421.6,183.81L1434.52,178.87L1439.99,179.35L1449.61,173.84L1452.04,174.82L1459.8,172.16L1460.56,181.42L1461.65,184.44L1467.68,188.34L1478.12,187.29L1482.41,188.33L1484.31,192.51L1487.7,189.86L1491.52,189.85L1498.54,193.56L1500.83,190.69L1501.28,188.15L1505.12,188.66L1509.24,187.84L1514.1,183.93L1513.22,180.91L1519.08,174.71L1523.21,179.85L1530.85,182.6L1535.53,179.75L1542.27,171.24L1544.46,171.41L1553.72,168.76L1564.33,164.72L1565.2,162.02L1571.76,162.67L1572.86,167.67L1586.43,166.4L1590.23,168.61L1590.48,174.05L1587.83,180.54L1591.23,185.7L1586.7,189.49L1586.19,194.96L1583.07,196.16L1576.09,196.34L1572.01,198.11L1573.67,201.09L1572.57,203.26L1575.24,206.86L1570.2,216.64L1565.07,219.39L1564.88,225.1L1566.84,234.97L1563.95,239.21L1557.97,240.26L1559.19,245.65L1561.27,245.56L1562.68,250.41L1569.55,251.83L1567.61,262.93L1567.34,276.87L1569.72,278.62L1562.57,283.57L1561.21,290.39L1561.95,294.87L1559.41,302.4L1556.57,305.44L1554.42,309.24L1556.55,315.51L1551.02,317.6L1540.99,323.05L1538.89,325.53L1540.68,328.77L1543.29,330.65L1540.88,339.09L1542.9,339.8L1546.8,343.49L1549.83,344.55L1552.11,343.53L1555.15,344.86L1559.1,344.43L1560.8,340.25L1564.2,339.57L1566.84,336.68L1569.87,340.39L1571.15,344.44L1575.73,338.14L1568.58,333.68L1574.16,324.96L1581.31,321.86L1585.86,315.03L1590.4,313.11L1601.62,295.76L1604.22,290.07L1606.77,290.48L1609.91,294.05L1614.07,295.85L1615.15,297.78L1619.76,299.69L1625.31,305.39L1636.13,307.92L1640.88,308.22L1656.9,306.77L1658.56,311.19L1649.01,321.08L1649.52,324.64L1643.73,330.49L1642.22,333.35L1638.24,335.66L1638.25,338.18L1635.17,340.71L1660.14,362.55L1664.94,365.62L1672.43,373.45L1676.78,380.65L1676.06,383.74L1668.5,389.95L1662.98,392.75L1628.78,401.57L1618.28,402.46L1604.3,397.68L1602.47,396.44L1599.44,398.29L1591.1,407.68L1586.68,418.33L1584.26,421.35L1579,425.56L1571.75,435.4L1567.32,443.67L1556.33,460.28L1556.29,464.65L1551.88,465.76L1546.64,463.06L1538.97,466.29L1534.12,464.76L1526.02,451.72L1512.19,439.56L1505.48,435.71L1502.79,432.37L1503.83,430.35L1498.55,428.96L1494.77,428.97L1487.64,431.35L1483.97,431.35L1477.48,430.13L1471.17,427.71L1470.77,425.74L1472.61,421.31L1470.12,413.72L1466.32,409.88L1463.87,403.35L1461.98,406.33L1445.33,405.97L1443.04,407.24L1437.17,414.05L1439.02,419.68L1431.41,424.7L1430.86,428.29L1426.92,430.14L1424.54,428.76L1417.52,435.2L1415.65,435.79L1418.85,427.88L1415.12,422.31L1411.38,420.04L1413.3,417.47L1412.86,414.04L1409.74,413.47L1408.32,407.16L1411.7,405.07L1413.22,400.79L1413.54,396.54L1411.6,394.75L1403.94,398.03L1398.28,397.81L1394.92,396.72L1390.6,393L1390.11,387.59L1387.48,384.89L1388.63,378.63L1387.88,375.74L1379.93,368.69L1375.4,368.56L1360.8,364.33L1357.84,361.23L1356.3,357.43L1353.39,355.92L1353.11,353.68L1356.91,351.46L1356.77,346.29L1353.94,339.48L1355.24,338.79L1356.64,333.32L1355.81,331.35L1360.41,326.06L1361.34,319.81L1363.09,315.39L1360.93,312.93L1357.71,311.7L1358.73,308.75L1354.59,306.35L1352.65,303.88L1358.36,295.38L1355.68,289.75L1351.5,285.49L1353,284.13L1351.49,281.25L1346.82,278.99L1343.5,273.91L1343.77,271.65L1346.33,268.53L1350.88,266.42L1349.12,262.36L1352.84,261.99L1355.9,265.62L1360.07,265.51L1363.21,263.96L1362.96,271L1374.04,270.82L1376.5,272.34L1380.81,269.43L1381.89,265.29L1388.74,266.81L1391.44,261.69L1389.11,260.96L1387.94,258.22L1393.34,252.09L1390.98,246.32L1384.1,243.48L1385.34,240.79L1380.89,238.27L1382.25,236.37L1384.91,237.22L1389.19,234.04L1395.89,231.19L1397.64,227.55L1399.39,227.5L1401.48,224.52L1400.96,221.75L1404.11,217.4Z" fill-rule="evenodd" fill="#4682b4" fill-opacity="0.471"/>
<polyline points="1404.11,217.4 1407.82,217.42 1410.05,215.23 1410.06,211.91 1416.71,211.44 1418.41,206.6 1417.79,187.38 1421.6,183.81 1434.52,178.87 1439.99,179.35 1449.61,173.84 1452.04,174.82 1459.8,172.16 1460.56,181.42 1461.65,184.44 1467.68,188.34 1478.12,187.29 1482.41,188.33 1484.31,192.51 1487.7,189.86 1491.52,189.85 1498.54,193.56 1500.83,190.69 1501.28,188.15 1505.12,188.66 1509.24,187.84 1514.1,183.93 1513.22,180.91 1519.08,174.71 1523.21,179.85 1530.85,182.6 1535.53,179.75 1542.27,171.24 1544.46,171.41 1553.72,168.76 1564.33,164.72 1565.2,162.02 1571.76,162.67 1572.86,167.67 1586.43,166.4 1590.23,168.61 1590.48,174.05 1587.83,180.54 1591.23,185.7 1586.7,189.49 1586.19,194.96 1583.07,196.16 1576.09,196.34 1572.01,198.11 1573.67,201.09 1572.57,203.26 1575.24,206.86 1570.2,216.64 1565.07,219.39 1564.88,225.1 1566.84,234.97 1563.95,239.21 1557.97,240.26 1559.19,245.65 1561.27,245.56 1562.68,250.41 1569.55,251.83 1567.61,262.93 1567.34,276.87 1569.72,278.62 1562.57,283.57 1561.21,290.39 1561.95,294.87 1559.41,302.4 1556.57,305.44 1554.42,309.24 1556.55,315.51 1551.02,317.6 1540.99,323.05 1538.89,325.53 1540.68,328.77 1543.29,330.65 1540.88,339.09 1542.9,339.8 1546.8,343.49 1549.83,344.55 1552.11,343.53 1555.15,344.86 1559.1,344.43 1560.8,340.25 1564.2,339.57 1566.84,336.68 1569.87,340.39 1571.15,344.44 1575.73,338.14 1568.58,333.68 1574.16,324.96 1581.31,321.86 1585.86,315.03 1590.4,313.11 1601.62,295.76 1604.22,290.07 1606.77,290.48 1609.91,294.05 1614.07,295.85 1615.15,297.78 1619.76,299.69 1625.31,305.39 1636.13,307.92 1640.88,308.22 1656.9,306.77 1658.56,311.19 1649.01,321.08 1649.52,324.64 1643.73,330.49 1642.22,333.35 1638.24,335.66 1638.25,338.18 1635.17,340.71 1660.14,362.55 1664.94,365.62 1672.43,373.45 1676.78,380.65 1676.06,383.74 1668.5,389.95 1662.98,392.75 1628.78,401.57 1618.28,402.46 1604.3,397.68 1602.47,396.44 1599.44,398.29 1591.1,407.68 1586.68,418.33 1584.26,421.35 1579,425.56 1571.75,435.4 1567.32,443.67 1556.33,460.28 1556.29,464.65 1551.88,465.76 1546.64,463.06 1538.97,466.29 1534.12,464.76 1526.02,451.72 1512.19,439.56 1505.48,435.71 1502.79,432.37 1503.83,430.35 1498.55,428.96 1494.77,428.97 1487.64,431.35 1483.97,431.35 1477.48,430.13 1471.17,427.71 1470.77,425.74 1472.61,421.31 1470.12,413.72 1466.32,409.88 1463.87,403.35 1461.98,406.33 1445.33,405.97 1443.04,407.24 1437.17,414.05 1439.02,419.68 1431.41,424.7 1430.86,428.29 1426.92,430.14 1424.54,428.76 1417.52,435.2 1415.65,435.79 1418.85,427.88 1415.12,422.31 1411.38,420.04 1413.3,417.47 1412.86,414.04 1409.74,413.47 1408.32,407.16 1411.7,405.07 1413.22,400.79 1413.54,396.54 1411.6,394.75 1403.94,398.03 1398.28,397.81 1394.92,396.72 1390.6,393 1390.11,387.59 1387.48,384.89 1388.63,378.63 1387.88,375.74 1379.93,368.69 1375.4,368.56 1360.8,364.33 1357.84,361.23 1356.3,357.43 1353.39,355.92 1353.11,353.68 1356.91,351.46 1356.77,346.29 1353.94,339.48 1355.24,338.79 1356.64,333.32 1355.81,331.35 1360.41,326.06 1361.34,319.81 1363.09,315.39 1360.93,312.93 1357.71,311.7 1358.73,308.75 1354.59,306.35 1352.65,303.88 1358.36,295.38 1355.68,289.75 1351.5,285.49 1353,284.13 1351.49,281.25 1346.82,278.99 1343.5,273.91 1343.77,271.65 1346.33,268.53 1350.88,266.42 1349.12,262.36 1352.84,261.99 1355.9,265.62 1360.07,265.51 1363.21,263.96 1362.96,271 1374.04,270.82 1376.5,272.34 1380.81,269.43 1381.89,265.29 1388.74,266.81 1391.44,261.69 1389.11,260.96 1387.94,258.22 1393.34,252.09 1390.98,246.32 1384.1,243.48 1385.34,240.79 1380.89,238.27 1382.25,236.37 1384.91,237.22 1389.19,234.04 1395.89,231.19 1397.64,227.55 1399.39,227.5 1401.48,224.52 1400.96,221.75 1404.11,217.4" fill="none" stroke="#1e1e1e" stroke-width="1.11" stroke-linecap="round" stroke-linejoin="round"/>
<path d="M1301.14,155.83L1307.49,157.27L1312.57,156.09L1316.75,153.46L1319.49,154.46L1321.88,158.65L1324.92,158.57L1326.94,156.4L1336.68,162.92L1341.16,163.73L1346.02,162.28L1351.73,164.25L1350.79,169.58L1352.69,171.39L1350.98,176.61L1351.77,177.92L1352.16,184.15L1350.84,187.76L1352.97,189.83L1359.21,190.72L1360.8,192.8L1363.19,192.47L1364.85,189.64L1373.3,191.25L1374.93,194.79L1377.54,194.58L1380.37,201.8L1389.48,203.52L1392.05,205.57L1393.12,208.32L1390.83,212.24L1391.68,215L1395.94,214.87L1404.11,217.4L1400.96,221.75L1401.48,224.52L1399.39,227.5L1397.64,227.55L1395.89,231.19L1389.19,234.04L1384.91,237.22L1382.25,236.37L1380.89,238.27L1385.34,240.79L1384.1,243.48L1390.98,246.32L1393.34,252.09L1387.94,258.22L1389.11,260.96L1391.44,261.69L1388.74,266.81L1381.89,265.29L1380.81,269.43L1376.5,272.34L1374.04,270.82L1362.96,271L1363.21,263.96L1360.07,265.51L1355.9,265.62L1352.84,261.99L1349.12,262.36L1350.88,266.42L1346.33,268.53L1343.77,271.65L1343.5,273.91L1346.82,278.99L1351.49,281.25L1353,284.13L1351.5,285.49L1355.68,289.75L1358.36,295.38L1352.65,303.88L1354.59,306.35L1358.73,308.75L1357.71,311.7L1360.93,312.93L1363.09,315.39L1361.34,319.81L1360.41,326.06L1355.81,331.35L1356.64,333.32L1355.24,338.79L1353.94,339.48L1356.77,346.29L1356.91,351.46L1353.11,353.68L1353.39,355.92L1356.3,357.43L1353.28,364.13L1354.45,366.88L1353.37,371.94L1356.7,376.22L1354.11,378.81L1343.48,378.3L1340.1,376.26L1337.12,376.21L1333.88,379.6L1325.59,379.94L1323.24,378.81L1321.85,375.93L1318.96,375.34L1315.21,375.96L1313.52,374.67L1309.54,374.5L1310.17,363.89L1309.23,361.67L1302.04,361.17L1298.03,359.67L1296.22,357.86L1293.02,357.67L1293.09,365.87L1291.29,369.75L1288.59,372.33L1289.87,375.34L1287.73,378.57L1291.3,384.84L1291.02,387.37L1288.56,391.26L1282.61,392.58L1281.34,395.38L1277.27,396.79L1275.8,400.8L1273.94,401.89L1271.77,398.5L1260.04,393.84L1247.31,393.68L1244.49,390.96L1245.28,385.65L1243.65,369.66L1245.02,365.66L1241.39,360.96L1241.78,358.04L1247.45,354.23L1249.03,350.23L1247.11,347.75L1242.45,346.51L1236.17,347.02L1229.09,345.69L1226.85,350.5L1224.26,347.23L1221.62,341.18L1222.25,339.05L1220.28,333.66L1218.72,332.23L1219.55,329.56L1216.98,320.73L1210.77,317.52L1207.72,312.8L1212.82,308.61L1221.11,304.11L1230.41,295.07L1238.04,285.79L1240.47,286.28L1239.35,285.37L1239.33,284.31L1244.16,278.52L1251.3,267.12L1256.1,254.43L1274.06,222.91L1286.16,196.38L1295.46,173.48L1297.32,174.1L1296.86,177.56L1300.26,178.55L1299.07,174.33L1295.56,173.34L1301.14,155.83Z" fill-rule="evenodd" fill="#4682b4" fill-opacity="0.471"/>
<polyline points="1301.14,155.83 1307.49,157.27 1312.57,156.09 1316.75,153.46 1319.49,154.46 1321.88,158.65 1324.92,158.57 1326.94,156.4 1336.68,162.92 1341.16,163.73 1346.02,162.28 1351.73,164.25 1350.79,169.58 1352.69,171.39 1350.98,176.61 1351.77,177.92 1352.16,184.15 1350.84,187.76 1352.97,189.83 1359.21,190.72 1360.8,192.8 1363.19,192.47 1364.85,189.64 1373.3,191.25 1374.93,194.79 1377.54,194.58 1380.37,201.8 1389.48,203.52 1392.05,205.57 1393.12,208.32 1390.83,212.24 1391.68,215 1395.94,214.87 1404.11,217.4 1400.96,221.75 1401.48,224.52 1399.39,227.5 1397.64,227.55 1395.89,231.19 1389.19,234.04 1384.91,237.22 1382.25,236.37 1380.89,238.27 1385.34,240.79 1384.1,243.48 1390.98,246.32 1393.34,252.09 1387.94,258.22 1389.11,260.96 1391.44,261.69 1388.74,266.81 1381.89,265.29 1380.81,269.43 1376.5,272.34 1374.04,270.82 1362.96,271 1363.21,263.96 1360.07,265.51 1355.9,265.62 1352.84,261.99 1349.12,262.36 1350.88,266.42 1346.33,268.53 1343.77,271.65 1343.5,273.91 1346.82,278.99 1351.49,281.25 1353,284.13 1351.5,285.49 1355.68,289.75 1358.36,295.38 1352.65,303.88 1354.59,306.35 1358.73,308.75 1357.71,311.7 1360.93,312.93 1363.09,315.39 1361.34,319.81 1360.41,326.06 1355.81,331.35 1356.64,333.32 1355.24,338.79 1353.94,339.48 1356.77,346.29 1356.91,351.46 1353.11,353.68 1353.39,355.92 1356.3,357.43 1353.28,364.13 1354.45,366.88 1353.37,371.94 1356.7,376.22 1354.11,378.81 1343.48,378.3 1340.1,376.26 1337.12,376.21 1333.88,379.6 1325.59,379.94 1323.24,378.81 1321.85,375.93 1318.96,375.34 1315.21,375.96 1313.52,374.67 1309.54,374.5 1310.17,363.89 1309.23,361.67 1302.04,361.17 1298.03,359.67 1296.22,357.86 1293.02,357.67 1293.09,365.87 1291.29,369.75 1288.59,372.33 1289.87,375.34 1287.73,378.57 1291.3,384.84 1291.02,387.37 1288.56,391.26 1282.61,392.58 1281.34,395.38 1277.27,396.79 1275.8,400.8 1273.94,401.89 1271.77,398.5 1260.04,393.84 1247.31,393.68 1244.49,390.96 1245.28,385.65 1243.65,369.66 1245.02,365.66 1241.39,360.96 1241.78,358.04 1247.45,354.23 1249.03,350.23 1247.11,347.75 1242.45,346.51 1236.17,347.02 1229.09,345.69 1226.85,350.5 1224.26,347.23 1221.62,341.18 1222.25,339.05 1220.28,333.66 1218.72,332.23 1219.55,329.56 1216.98,320.73 1210.77,317.52 1207.72,312.8 1212.82,308.61 1221.11,304.11 1230.41,295.07 1238.04,285.79 1240.47,286.28 1239.35,285.37 1239.33,284.31 1244.16,278.52 1251.3,267.12 1256.1,254.43 1274.06,222.91 1286.16,196.38 1295.46,173.48 1297.32,174.1 1296.86,177.56 1300.26,178.55 1299.07,174.33 1295.56,173.34 1301.14,155.83" fill="none" stroke="#1e1e1e" stroke-width="1.11" stroke-linecap="round" stroke-linejoin="round"/>
<path d="M1210.1,512.84L1213.04,508.29L1220.25,505.4L1224.61,492.37L1225.06,486.02L1222.75,481.16L1224.86,480.73L1225.81,470.67L1217.88,462.47L1219.23,457.02L1221.5,453.02L1220.68,450.52L1222.41,447.58L1223.77,442.66L1223.2,428.38L1226.98,428.72L1229.78,423.51L1229.63,421.26L1234.01,412.19L1232.74,408.9L1234.83,408.33L1234.97,403.7L1237.49,395.58L1240.53,392.62L1244.49,390.96L1247.31,393.68L1260.04,393.84L1271.77,398.5L1273.94,401.89L1275.8,400.8L1277.27,396.79L1281.34,395.38L1282.61,392.58L1288.56,391.26L1291.02,387.37L1291.3,384.84L1287.73,378.57L1289.87,375.34L1288.59,372.33L1291.29,369.75L1293.09,365.87L1293.02,357.67L1296.22,357.86L1298.03,359.67L1302.04,361.17L1309.23,361.67L1310.17,363.89L1309.54,374.5L1313.52,374.67L1315.21,375.96L1318.96,375.34L1321.85,375.93L1323.24,378.81L1325.59,379.94L1333.88,379.6L1337.12,376.21L1340.1,376.26L1343.48,378.3L1354.11,378.81L1356.7,376.22L1353.37,371.94L1354.45,366.88L1353.28,364.13L1356.3,357.43L1357.84,361.23L1360.8,364.33L1375.4,368.56L1379.93,368.69L1387.88,375.74L1388.63,378.63L1387.48,384.89L1390.11,387.59L1390.6,393L1394.92,396.72L1398.28,397.81L1403.94,398.03L1411.6,394.75L1413.54,396.54L1413.22,400.79L1411.7,405.07L1408.32,407.16L1409.74,413.47L1412.86,414.04L1413.3,417.47L1411.38,420.04L1415.12,422.31L1418.85,427.88L1415.65,435.79L1417.52,435.2L1413.98,439.15L1411.57,443.99L1410.84,456.18L1411.89,461.31L1411.11,468.74L1408.5,470.81L1409.4,474.48L1407.85,482.33L1404.04,481.66L1403.41,486.7L1401.92,488.99L1394.61,490.8L1387.92,491L1388.05,495.36L1389.39,499.29L1388.5,503.15L1395.25,505.06L1391.52,510.99L1392.63,514.66L1397.78,518.61L1397.56,522.45L1385.72,519.36L1383.12,521.95L1372.97,523.16L1365.51,532.49L1359.3,534.9L1354.7,534.5L1352.14,539.06L1350.3,554.31L1357.31,556.64L1360.46,561.31L1357.78,565.87L1358.69,570.61L1354.5,573.23L1347.15,575.8L1342.34,585.18L1336.6,589.42L1324.9,593.54L1291.51,609.1L1288.56,613.26L1285.75,613.19L1275.96,618.81L1268.2,625.17L1260.52,624.27L1260.43,631.01L1258.78,638.96L1257.22,640.18L1248.66,641.13L1230.15,640.41L1226.12,642.06L1223.2,635.77L1220.19,638.06L1212.76,638.71L1211.37,636.75L1209.36,630.58L1206.09,630.49L1207.7,625.45L1210.04,623.3L1211.57,613.37L1204.93,613.21L1201.57,606.92L1196.82,605.27L1196.85,599.86L1196.04,598.42L1190.77,598.89L1190.46,593.21L1194.24,590.38L1196.32,586.79L1203.4,586.42L1207.25,588.87L1214.63,586.64L1220.69,586.41L1223.47,584.64L1221.31,582.83L1222.25,578.45L1224.94,578.54L1224.55,574.98L1218.24,567.02L1218.73,562.66L1218.01,559.5L1219.2,557.1L1213.3,552.3L1212.26,543.6L1210.72,537.94L1213.45,526.79L1212.18,524.3L1213.81,514.63L1212.1,512.14L1210.1,512.84Z" fill-rule="evenodd" fill="#4682b4" fill-opacity="0.471"/>
<polyline points="1210.1,512.84 1213.04,508.29 1220.25,505.4 1224.61,492.37 1225.06,486.02 1222.75,481.16 1224.86,480.73 1225.81,470.67 1217.88,462.47 1219.23,457.02 1221.5,453.02 1220.68,450.52 1222.41,447.58 1223.77,442.66 1223.2,428.38 1226.98,428.72 1229.78,423.51 1229.63,421.26 1234.01,412.19 1232.74,408.9 1234.83,408.33 1234.97,403.7 1237.49,395.58 1240.53,392.62 1244.49,390.96 1247.31,393.68 1260.04,393.84 1271.77,398.5 1273.94,401.89 1275.8,400.8 1277.27,396.79 1281.34,395.38 1282.61,392.58 1288.56,391.26 1291.02,387.37 1291.3,384.84 1287.73,378.57 1289.87,375.34 1288.59,372.33 1291.29,369.75 1293.09,365.87 1293.02,357.67 1296.22,357.86 1298.03,359.67 1302.04,361.17 1309.23,361.67 1310.17,363.89 1309.54,374.5 1313.52,374.67 1315.21,375.96 1318.96,375.34 1321.85,375.93 1323.24,378.81 1325.59,379.94 1333.88,379.6 1337.12,376.21 1340.1,376.26 1343.48,378.3 1354.11,378.81 1356.7,376.22 1353.37,371.94 1354.45,366.88 1353.28,364.13 1356.3,357.43 1357.84,361.23 1360.8,364.33 1375.4,368.56 1379.93,368.69 1387.88,375.74 1388.63,378.63 1387.48,384.89 1390.11,387.59 1390.6,393 1394.92,396.72 1398.28,397.81 1403.94,398.03 1411.6,394.75 1413.54,396.54 1413.22,400.79 1411.7,405.07 1408.32,407.16 1409.74,413.47 1412.86,414.04 1413.3,417.47 1411.38,420.04 1415.12,422.31 1418.85,427.88 1415.65,435.79 1417.52,435.2 1413.98,439.15 1411.57,443.99 1410.84,456.18 1411.89,461.31 1411.11,468.74 1408.5,470.81 1409.4,474.48 1407.85,482.33 1404.04,481.66 1403.41,486.7 1401.92,488.99 1394.61,490.8 1387.92,491 1388.05,495.36 1389.39,499.29 1388.5,503.15 1395.25,505.06 1391.52,510.99 1392.63,514.66 1397.78,518.61 1397.56,522.45 1385.72,519.36 1383.12,521.95 1372.97,523.16 1365.51,532.49 1359.3,534.9 1354.7,534.5 1352.14,539.06 1350.3,554.31 1357.31,556.64 1360.46,561.31 1357.78,565.87 1358.69,570.61 1354.5,573.23 1347.15,575.8 1342.34,585.18 1336.6,589.42 1324.9,593.54 1291.51,609.1 1288.56,613.26 1285.75,613.19 1275.96,618.81 1268.2,625.17 1260.52,624.27 1260.43,631.01 1258.78,638.96 1257.22,640.18 1248.66,641.13 1230.15,640.41 1226.12,642.06 1223.2,635.77 1220.19,638.06 1212.76,638.71 1211.37,636.75 1209.36,630.58 1206.09,630.49 1207.7,625.45 1210.04,623.3 1211.57,613.37 1204.93,613.21 1201.57,606.92 1196.82,605.27 1196.85,599.86 1196.04,598.42 1190.77,598.89 1190.46,593.21 1194.24,590.38 1196.32,586.79 1203.4,586.42 1207.25,588.87 1214.63,586.64 1220.69,586.41 1223.47,584.64 1221.31,582.83 1222.25,578.45 1224.94,578.54 1224.55,574.98 1218.24,567.02 1218.73,562.66 1218.01,559.5 1219.2,557.1 1213.3,552.3 1212.26,543.6 1210.72,537.94 1213.45,526.79 1212.18,524.3 1213.81,514.63 1212.1,512.14 1210.1,512.84" fill="none" stroke="#1e1e1e" stroke-width="1.11" stroke-linecap="round" stroke-linejoin="round"/>
<path d="M1207.72,312.8L1210.77,317.52L1216.98,320.73L1219.55,329.56L1218.72,332.23L1220.28,333.66L1222.25,339.05L1221.62,341.18L1224.26,347.23L1226.85,350.5L1229.09,345.69L1236.17,347.02L1242.45,346.51L1247.11,347.75L1249.03,350.23L1247.45,354.23L1241.78,358.04L1241.39,360.96L1245.02,365.66L1243.65,369.66L1245.28,385.65L1244.49,390.96L1240.53,392.62L1237.49,395.58L1234.97,403.7L1234.83,408.33L1232.74,408.9L1234.01,412.19L1229.63,421.26L1229.78,423.51L1226.98,428.72L1223.2,428.38L1223.77,442.66L1222.41,447.58L1220.68,450.52L1221.5,453.02L1219.23,457.02L1217.88,462.47L1225.81,470.67L1224.86,480.73L1222.75,481.16L1225.06,486.02L1224.61,492.37L1220.25,505.4L1213.04,508.29L1210.1,512.84L1206.84,511.83L1201.88,508.87L1200.18,506.64L1196.14,505.78L1195.66,503.54L1193.19,502.12L1187.27,501.81L1186.67,499.04L1182.92,494.07L1177.6,496.52L1175.35,494.96L1163.77,496.7L1161.85,495.4L1158.28,495.44L1153.46,492.99L1146.55,483.28L1144.19,481.85L1144.38,478.94L1141.8,476.85L1137.89,475.97L1133.63,472.84L1130.13,468.64L1126.89,467.48L1121.5,461.85L1121.71,460.12L1117.67,456.46L1116.86,452.63L1113.73,450.94L1113.15,448.56L1108.62,451.64L1106.26,462.77L1104.62,466.75L1106.85,480.48L1099.9,489.93L1078,501.04L1071.01,508.09L1064.54,509.18L1060.64,511.31L1059.53,513.04L1056.63,512.78L1051.06,517.3L1052.05,512.67L1048.8,510.17L1046.43,505.02L1042.82,493.27L1039.13,488.79L1036.23,487.21L1033.44,487.48L1031.33,489.6L1023.52,488.96L1018.06,491.35L1009.14,487.52L1004.79,481.57L1002.12,479.86L999.67,475.23L1001.11,469.94L1003.78,467.56L996.11,461.21L994.99,461.34L997.78,459.23L997.44,458.3L1011.22,446.66L1024.87,431.83L1042.66,408.76L1044.31,405.45L1042.53,402.81L1048.27,395.91L1049.82,395.64L1051.91,392.06L1055.44,389.39L1057.88,391.77L1060.76,391.75L1065.4,389.61L1074.65,382.02L1077.72,376.71L1095.25,370.24L1110.66,363.63L1116.48,360.28L1118.47,360.26L1130.44,353.66L1133.86,353.62L1147.12,345.27L1147.22,344.34L1153.49,342.95L1157.58,343.17L1162.96,341.38L1176.48,330.08L1181.76,329.08L1191.11,320.87L1197.55,316.93L1200.73,316.49L1207.72,312.8Z" fill-rule="evenodd" fill="#4682b4" fill-opacity="0.471"/>
<polyline points="1207.72,312.8 1210.77,317.52 1216.98,320.73 1219.55,329.56 1218.72,332.23 1220.28,333.66 1222.25,339.05 1221.62,341.18 1224.26,347.23 1226.85,350.5 1229.09,345.69 1236.17,347.02 1242.45,346.51 1247.11,347.75 1249.03,350.23 1247.45,354.23 1241.78,358.04 1241.39,360.96 1245.02,365.66 1243.65,369.66 1245.28,385.65 1244.49,390.96 1240.53,392.62 1237.49,395.58 1234.97,403.7 1234.83,408.33 1232.74,408.9 1234.01,412.19 1229.63,421.26 1229.78,423.51 1226.98,428.72 1223.2,428.38 1223.77,442.66 1222.41,447.58 1220.68,450.52 1221.5,453.02 1219.23,457.02 1217.88,462.47 1225.81,470.67 1224.86,480.73 1222.75,481.16 1225.06,486.02 1224.61,492.37 1220.25,505.4 1213.04,508.29 1210.1,512.84 1206.84,511.83 1201.88,508.87 1200.18,506.64 1196.14,505.78 1195.66,503.54 1193.19,502.12 1187.27,501.81 1186.67,499.04 1182.92,494.07 1177.6,496.52 1175.35,494.96 1163.77,496.7 1161.85,495.4 1158.28,495.44 1153.46,492.99 1146.55,483.28 1144.19,481.85 1144.38,478.94 1141.8,476.85 1137.89,475.97 1133.63,472.84 1130.13,468.64 1126.89,467.48 1121.5,461.85 1121.71,460.12 1117.67,456.46 1116.86,452.63 1113.73,450.94 1113.15,448.56 1108.62,451.64 1106.26,462.77 1104.62,466.75 1106.85,480.48 1099.9,489.93 1078,501.04 1071.01,508.09 1064.54,509.18 1060.64,511.31 1059.53,513.04 1056.63,512.78 1051.06,517.3 1052.05,512.67 1048.8,510.17 1046.43,505.02 1042.82,493.27 1039.13,488.79 1036.23,487.21 1033.44,487.48 1031.33,489.6 1023.52,488.96 1018.06,491.35 1009.14,487.52 1004.79,481.57 1002.12,479.86 999.67,475.23 1001.11,469.94 1003.78,467.56 996.11,461.21 994.99,461.34 997.78,459.23 997.44,458.3 1011.22,446.66 1024.87,431.83 1042.66,408.76 1044.31,405.45 1042.53,402.81 1048.27,395.91 1049.82,395.64 1051.91,392.06 1055.44,389.39 1057.88,391.77 1060.76,391.75 1065.4,389.61 1074.65,382.02 1077.72,376.71 1095.25,370.24 1110.66,363.63 1116.48,360.28 1118.47,360.26 1130.44,353.66 1133.86,353.62 1147.12,345.27 1147.22,344.34 1153.49,342.95 1157.58,343.17 1162.96,341.38 1176.48,330.08 1181.76,329.08 1191.11,320.87 1197.55,316.93 1200.73,316.49 1207.72,312.8" fill="none" stroke="#1e1e1e" stroke-width="1.11" stroke-linecap="round" stroke-linejoin="round"/>
<path d="M909.29,632.16L915.32,622.96L914.32,621.1L918.28,617.17L924.29,608.62L925.44,605.72L925.71,596.21L928.76,593.45L936.11,583.18L962.7,552.5L964.61,547.88L965.53,541.67L970.58,535.74L973.39,529.66L971.94,524.11L974.3,516.98L973.3,514.46L970.18,513L969.18,508.77L972.99,502.96L975.57,496.09L975.69,493.32L972.35,490.01L970.58,484.05L981.29,475.35L994.99,461.34L996.11,461.21L1003.78,467.56L1001.11,469.94L999.67,475.23L1002.12,479.86L1004.79,481.57L1009.14,487.52L1018.06,491.35L1023.52,488.96L1031.33,489.6L1033.44,487.48L1036.23,487.21L1039.13,488.79L1042.82,493.27L1046.43,505.02L1048.8,510.17L1052.05,512.67L1051.06,517.3L1056.63,512.78L1059.53,513.04L1060.64,511.31L1064.54,509.18L1071.01,508.09L1078,501.04L1099.9,489.93L1106.85,480.48L1104.62,466.75L1106.26,462.77L1108.62,451.64L1113.15,448.56L1113.73,450.94L1116.86,452.63L1117.67,456.46L1121.71,460.12L1121.5,461.85L1126.89,467.48L1130.13,468.64L1133.63,472.84L1137.89,475.97L1141.8,476.85L1144.38,478.94L1144.19,481.85L1146.55,483.28L1153.46,492.99L1158.28,495.44L1161.85,495.4L1163.77,496.7L1175.35,494.96L1177.6,496.52L1182.92,494.07L1186.67,499.04L1187.27,501.81L1193.19,502.12L1195.66,503.54L1196.14,505.78L1200.18,506.64L1201.88,508.87L1206.84,511.83L1210.1,512.84L1212.1,512.14L1213.81,514.63L1212.18,524.3L1213.45,526.79L1210.72,537.94L1212.26,543.6L1213.3,552.3L1219.2,557.1L1218.01,559.5L1218.73,562.66L1218.24,567.02L1224.55,574.98L1224.94,578.54L1222.25,578.45L1221.31,582.83L1223.47,584.64L1220.69,586.41L1214.63,586.64L1207.25,588.87L1203.4,586.42L1196.32,586.79L1194.24,590.38L1190.46,593.21L1190.77,598.89L1196.04,598.42L1196.85,599.86L1196.82,605.27L1201.57,606.92L1204.93,613.21L1211.57,613.37L1210.04,623.3L1207.7,625.45L1206.09,630.49L1202.4,632.53L1200.08,635.34L1200.68,637.71L1198.59,641.17L1187.52,648.33L1183.7,649.57L1178.05,649.12L1176.83,650.98L1173.35,651.95L1171.01,654.49L1161.43,655.4L1159.79,660.18L1154.06,662.62L1148.79,666.38L1147.14,670.62L1140.57,669.11L1139.07,666.48L1127.39,673.99L1125.62,677.57L1120.79,693.46L1117.21,698.51L1113.14,700.26L1108.03,698.19L1102.59,697.83L1099.41,696.4L1089.7,699.77L1086.55,702.96L1077.95,704.86L1075.35,706.33L1071.05,706.62L1067.98,705.44L1064.13,706.52L1050.53,704.2L1046.45,704.35L1039.08,702.13L1034.9,706.36L1032.41,707.69L1032.42,713.23L1030.84,713.63L1028.79,710.07L1028.66,703.34L1025.59,698.33L1024.23,694.11L1022.07,692.26L1019.47,692.93L1011.1,699.93L1003.17,703.24L1001.93,711.82L999.21,712.61L982.54,711.41L973.7,714.83L970.76,710.86L967.93,709.27L963.64,703.45L962.38,707.81L957.96,706.34L951.38,710.01L943.57,705.89L940.52,706.01L937.33,709.03L933.14,707.43L929.14,714.93L927.44,714L923.57,716.75L920.4,716.07L917.84,709.06L918.43,705.24L914.7,703.76L914.28,697.95L908.97,696.59L908.32,691.44L909.93,688.02L909.16,684.85L909.1,676.79L906.74,675.06L906.78,669.52L909.3,663.46L908.53,660.42L909.24,656.33L911.65,650.27L911.91,645.25L911.04,639.97L909.59,637.71L906.66,637.16L909.29,632.16Z" fill-rule="evenodd" fill="#4682b4" fill-opacity="0.471"/>
<polyline points="909.29,632.16 915.32,622.96 914.32,621.1 918.28,617.17 924.29,608.62 925.44,605.72 925.71,596.21 928.76,593.45 936.11,583.18 962.7,552.5 964.61,547.88 965.53,541.67 970.58,535.74 973.39,529.66 971.94,524.11 974.3,516.98 973.3,514.46 970.18,513 969.18,508.77 972.99,502.96 975.57,496.09 975.69,493.32 972.35,490.01 970.58,484.05 981.29,475.35 994.99,461.34 996.11,461.21 1003.78,467.56 1001.11,469.94 999.67,475.23 1002.12,479.86 1004.79,481.57 1009.14,487.52 1018.06,491.35 1023.52,488.96 1031.33,489.6 1033.44,487.48 1036.23,487.21 1039.13,488.79 1042.82,493.27 1046.43,505.02 1048.8,510.17 1052.05,512.67 1051.06,517.3 1056.63,512.78 1059.53,513.04 1060.64,511.31 1064.54,509.18 1071.01,508.09 1078,501.04 1099.9,489.93 1106.85,480.48 1104.62,466.75 1106.26,462.77 1108.62,451.64 1113.15,448.56 1113.73,450.94 1116.86,452.63 1117.67,456.46 1121.71,460.12 1121.5,461.85 1126.89,467.48 1130.13,468.64 1133.63,472.84 1137.89,475.97 1141.8,476.85 1144.38,478.94 1144.19,481.85 1146.55,483.28 1153.46,492.99 1158.28,495.44 1161.85,495.4 1163.77,496.7 1175.35,494.96 1177.6,496.52 1182.92,494.07 1186.67,499.04 1187.27,501.81 1193.19,502.12 1195.66,503.54 1196.14,505.78 1200.18,506.64 1201.88,508.87 1206.84,511.83 1210.1,512.84 1212.1,512.14 1213.81,514.63 1212.18,524.3 1213.45,526.79 1210.72,537.94 1212.26,543.6 1213.3,552.3 1219.2,557.1 1218.01,559.5 1218.73,562.66 1218.24,567.02 1224.55,574.98 1224.94,578.54 1222.25,578.45 1221.31,582.83 1223.47,584.64 1220.69,586.41 1214.63,586.64 1207.25,588.87 1203.4,586.42 1196.32,586.79 1194.24,590.38 1190.46,593.21 1190.77,598.89 1196.04,598.42 1196.85,599.86 1196.82,605.27 1201.57,606.92 1204.93,613.21 1211.57,613.37 1210.04,623.3 1207.7,625.45 1206.09,630.49 1202.4,632.53 1200.08,635.34 1200.68,637.71 1198.59,641.17 1187.52,648.33 1183.7,649.57 1178.05,649.12 1176.83,650.98 1173.35,651.95 1171.01,654.49 1161.43,655.4 1159.79,660.18 1154.06,662.62 1148.79,666.38 1147.14,670.62 1140.57,669.11 1139.07,666.48 1127.39,673.99 1125.62,677.57 1120.79,693.46 1117.21,698.51 1113.14,700.26 1108.03,698.19 1102.59,697.83 1099.41,696.4 1089.7,699.77 1086.55,702.96 1077.95,704.86 1075.35,706.33 1071.05,706.62 1067.98,705.44 1064.13,706.52 1050.53,704.2 1046.45,704.35 1039.08,702.13 1034.9,706.36 1032.41,707.69 1032.42,713.23 1030.84,713.63 1028.79,710.07 1028.66,703.34 1025.59,698.33 1024.23,694.11 1022.07,692.26 1019.47,692.93 1011.1,699.93 1003.17,703.24 1001.93,711.82 999.21,712.61 982.54,711.41 973.7,714.83 970.76,710.86 967.93,709.27 963.64,703.45 962.38,707.81 957.96,706.34 951.38,710.01 943.57,705.89 940.52,706.01 937.33,709.03 933.14,707.43 929.14,714.93 927.44,714 923.57,716.75 920.4,716.07 917.84,709.06 918.43,705.24 914.7,703.76 914.28,697.95 908.97,696.59 908.32,691.44 909.93,688.02 909.16,684.85 909.1,676.79 906.74,675.06 906.78,669.52 909.3,663.46 908.53,660.42 909.24,656.33 911.65,650.27 911.91,645.25 911.04,639.97 909.59,637.71 906.66,637.16 909.29,632.16" fill="none" stroke="#1e1e1e" stroke-width="1.11" stroke-linecap="round" stroke-linejoin="round"/>
<path d="M1144.88,670.12L1147.14,670.62L1148.79,666.38L1154.06,662.62L1159.79,660.18L1161.43,655.4L1171.01,654.49L1173.35,651.95L1176.83,650.98L1178.05,649.12L1183.7,649.57L1187.52,648.33L1198.59,641.17L1200.68,637.71L1200.08,635.34L1202.4,632.53L1206.09,630.49L1209.36,630.58L1211.37,636.75L1212.76,638.71L1220.19,638.06L1223.2,635.77L1226.12,642.06L1230.15,640.41L1248.66,641.13L1257.22,640.18L1258.78,638.96L1260.43,631.01L1260.52,624.27L1268.2,625.17L1275.96,618.81L1285.75,613.19L1288.56,613.26L1291.51,609.1L1324.9,593.54L1336.6,589.42L1342.34,585.18L1347.15,575.8L1354.5,573.23L1358.69,570.61L1357.78,565.87L1360.46,561.31L1357.31,556.64L1350.3,554.31L1352.14,539.06L1354.7,534.5L1359.3,534.9L1365.51,532.49L1372.97,523.16L1383.12,521.95L1385.72,519.36L1397.56,522.45L1397.78,518.61L1392.63,514.66L1391.52,510.99L1395.25,505.06L1388.5,503.15L1389.39,499.29L1388.05,495.36L1387.92,491L1394.61,490.8L1401.92,488.99L1403.41,486.7L1404.04,481.66L1407.85,482.33L1409.4,474.48L1408.5,470.81L1411.11,468.74L1411.89,461.31L1410.84,456.18L1411.57,443.99L1413.98,439.15L1424.54,428.76L1426.92,430.14L1430.86,428.29L1431.41,424.7L1439.02,419.68L1437.17,414.05L1443.04,407.24L1445.33,405.97L1461.98,406.33L1463.87,403.35L1466.32,409.88L1470.12,413.72L1472.61,421.31L1470.77,425.74L1471.17,427.71L1477.48,430.13L1483.97,431.35L1487.64,431.35L1494.77,428.97L1498.55,428.96L1503.83,430.35L1502.79,432.37L1505.48,435.71L1512.19,439.56L1526.02,451.72L1534.12,464.76L1538.97,466.29L1546.64,463.06L1551.88,465.76L1556.29,464.65L1558.12,468.41L1567.5,473.97L1565.54,477.62L1566.48,481.29L1568.54,485.04L1575.6,490.95L1579.73,498.45L1581.12,502.22L1581.13,510.03L1587.69,509.21L1588.58,511.56L1588.03,517L1597,517.27L1605.11,515.84L1607.16,516.68L1603.52,520.28L1600.37,525.05L1604.12,528.59L1609.49,525.96L1612.07,523.73L1618.55,523.3L1630.73,527.36L1635.67,527.52L1638.22,524.75L1642.67,521.76L1650.86,517.39L1643.69,528.99L1643.09,539.73L1643.57,545L1646.89,553.44L1652.33,563.62L1662,561.43L1657.46,567.34L1646.68,576.99L1647.22,578.82L1601.34,591.53L1603.3,625.29L1597.4,629.65L1591.84,631.61L1592.2,634.64L1590.56,635.76L1592.93,640.95L1589.48,644.67L1592.01,648.26L1593.44,652.42L1591.86,655.27L1591.59,659.38L1597.55,658.58L1597.56,656.21L1602.3,653.48L1603.53,655.68L1603.49,662.42L1607.24,662.65L1610.04,659.61L1611.3,664.84L1614.74,668.39L1617.83,666.53L1619.58,672.66L1617.7,683.58L1611.58,691.13L1609.8,691.87L1607.48,695.8L1608.72,705.66L1610.56,708.61L1609.18,715.94L1606.61,719.36L1605.01,719.17L1595.61,725L1595,726.75L1590.25,729.99L1582.19,727.57L1569.35,730.49L1552.71,732.23L1532.37,741.37L1521.77,752.74L1515.17,761.84L1502.07,774.09L1465.13,794.28L1444.39,813.06L1431.55,822.71L1426.05,829.75L1425.26,833.73L1422.43,838.57L1423.11,841.98L1421.94,844.66L1409.19,862.86L1396.03,883.97L1394.49,882.3L1391.28,882.52L1386.06,880.56L1381.91,875.93L1378.66,878.79L1375.46,879.4L1374.49,877.58L1377.43,871.69L1376.91,869.47L1373,869.31L1366.99,867.49L1361.62,868.56L1359.94,870.05L1353.05,869.84L1343.83,872.71L1342.71,873.79L1337.78,874.31L1326.82,871.94L1317.47,874.4L1312.52,873.86L1302.89,874.34L1299.93,875.19L1294.29,874.79L1298.95,861.89L1296.67,857.19L1297.97,853.86L1300.54,851.03L1298.81,845L1298.41,837.49L1295.08,821.06L1298.66,817.55L1303.54,815.73L1303.83,813.22L1298.75,811.22L1289.56,814.19L1286.12,807.79L1288.25,800.75L1286.48,798.02L1276.34,787.67L1285.18,779.31L1284.99,776.01L1280.71,772.67L1273.12,763.32L1270.38,763.11L1270.21,760.08L1268.1,757.08L1264.5,759.13L1250.68,762.56L1248.09,757.73L1244.91,758.18L1245.64,760.67L1245.04,765.57L1245.71,770.84L1242.7,774.72L1240.84,772.64L1237.87,771.77L1226.87,774.6L1211.06,769.31L1196.01,791.18L1195.76,797.51L1196.98,803.17L1195.42,805.7L1193.34,804.15L1187.61,794.46L1181.57,794.81L1176.06,791.45L1173.8,793.46L1168.28,789.83L1162.27,792.41L1158.27,791.8L1163.23,786.99L1163.4,782.5L1160.16,777.92L1157.75,766.33L1151.98,769.83L1150.32,763.91L1151.08,760.47L1159.56,756.28L1164.04,750.42L1167.11,749.99L1169.46,747.58L1165.74,740.77L1163.97,734.72L1165.43,733.78L1163.72,723.5L1147.93,722.1L1150.63,720.35L1152.62,715.45L1151.22,711.9L1152.63,706.34L1147.88,707.58L1145.04,706.29L1145.38,695.86L1147.05,682.9L1142.66,674.1L1144.88,670.12Z" fill-rule="evenodd" fill="#4682b4" fill-opacity="0.471"/>
<polyline points="1144.88,670.12 1147.14,670.62 1148.79,666.38 1154.06,662.62 1159.79,660.18 1161.43,655.4 1171.01,654.49 1173.35,651.95 1176.83,650.98 1178.05,649.12 1183.7,649.57 1187.52,648.33 1198.59,641.17 1200.68,637.71 1200.08,635.34 1202.4,632.53 1206.09,630.49 1209.36,630.58 1211.37,636.75 1212.76,638.71 1220.19,638.06 1223.2,635.77 1226.12,642.06 1230.15,640.41 1248.66,641.13 1257.22,640.18 1258.78,638.96 1260.43,631.01 1260.52,624.27 1268.2,625.17 1275.96,618.81 1285.75,613.19 1288.56,613.26 1291.51,609.1 1324.9,593.54 1336.6,589.42 1342.34,585.18 1347.15,575.8 1354.5,573.23 1358.69,570.61 1357.78,565.87 1360.46,561.31 1357.31,556.64 1350.3,554.31 1352.14,539.06 1354.7,534.5 1359.3,534.9 1365.51,532.49 1372.97,523.16 1383.12,521.95 1385.72,519.36 1397.56,522.45 1397.78,518.61 1392.63,514.66 1391.52,510.99 1395.25,505.06 1388.5,503.15 1389.39,499.29 1388.05,495.36 1387.92,491 1394.61,490.8 1401.92,488.99 1403.41,486.7 1404.04,481.66 1407.85,482.33 1409.4,474.48 1408.5,470.81 1411.11,468.74 1411.89,461.31 1410.84,456.18 1411.57,443.99 1413.98,439.15 1424.54,428.76 1426.92,430.14 1430.86,428.29 1431.41,424.7 1439.02,419.68 1437.17,414.05 1443.04,407.24 1445.33,405.97 1461.98,406.33 1463.87,403.35 1466.32,409.88 1470.12,413.72 1472.61,421.31 1470.77,425.74 1471.17,427.71 1477.48,430.13 1483.97,431.35 1487.64,431.35 1494.77,428.97 1498.55,428.96 1503.83,430.35 1502.79,432.37 1505.48,435.71 1512.19,439.56 1526.02,451.72 1534.12,464.76 1538.97,466.29 1546.64,463.06 1551.88,465.76 1556.29,464.65 1558.12,468.41 1567.5,473.97 1565.54,477.62 1566.48,481.29 1568.54,485.04 1575.6,490.95 1579.73,498.45 1581.12,502.22 1581.13,510.03 1587.69,509.21 1588.58,511.56 1588.03,517 1597,517.27 1605.11,515.84 1607.16,516.68 1603.52,520.28 1600.37,525.05 1604.12,528.59 1609.49,525.96 1612.07,523.73 1618.55,523.3 1630.73,527.36 1635.67,527.52 1638.22,524.75 1642.67,521.76 1650.86,517.39 1643.69,528.99 1643.09,539.73 1643.57,545 1646.89,553.44 1652.33,563.62 1662,561.43 1657.46,567.34 1646.68,576.99 1647.22,578.82 1601.34,591.53 1603.3,625.29 1597.4,629.65 1591.84,631.61 1592.2,634.64 1590.56,635.76 1592.93,640.95 1589.48,644.67 1592.01,648.26 1593.44,652.42 1591.86,655.27 1591.59,659.38 1597.55,658.58 1597.56,656.21 1602.3,653.48 1603.53,655.68 1603.49,662.42 1607.24,662.65 1610.04,659.61 1611.3,664.84 1614.74,668.39 1617.83,666.53 1619.58,672.66 1617.7,683.58 1611.58,691.13 1609.8,691.87 1607.48,695.8 1608.72,705.66 1610.56,708.61 1609.18,715.94 1606.61,719.36 1605.01,719.17 1595.61,725 1595,726.75 1590.25,729.99 1582.19,727.57 1569.35,730.49 1552.71,732.23 1532.37,741.37 1521.77,752.74 1515.17,761.84 1502.07,774.09 1465.13,794.28 1444.39,813.06 1431.55,822.71 1426.05,829.75 1425.26,833.73 1422.43,838.57 1423.11,841.98 1421.94,844.66 1409.19,862.86 1396.03,883.97 1394.49,882.3 1391.28,882.52 1386.06,880.56 1381.91,875.93 1378.66,878.79 1375.46,879.4 1374.49,877.58 1377.43,871.69 1376.91,869.47 1373,869.31 1366.99,867.49 1361.62,868.56 1359.94,870.05 1353.05,869.84 1343.83,872.71 1342.71,873.79 1337.78,874.31 1326.82,871.94 1317.47,874.4 1312.52,873.86 1302.89,874.34 1299.93,875.19 1294.29,874.79 1298.95,861.89 1296.67,857.19 1297.97,853.86 1300.54,851.03 1298.81,845 1298.41,837.49 1295.08,821.06 1298.66,817.55 1303.54,815.73 1303.83,813.22 1298.75,811.22 1289.56,814.19 1286.12,807.79 1288.25,800.75 1286.48,798.02 1276.34,787.67 1285.18,779.31 1284.99,776.01 1280.71,772.67 1273.12,763.32 1270.38,763.11 1270.21,760.08 1268.1,757.08 1264.5,759.13 1250.68,762.56 1248.09,757.73 1244.91,758.18 1245.64,760.67 1245.04,765.57 1245.71,770.84 1242.7,774.72 1240.84,772.64 1237.87,771.77 1226.87,774.6 1211.06,769.31 1196.01,791.18 1195.76,797.51 1196.98,803.17 1195.42,805.7 1193.34,804.15 1187.61,794.46 1181.57,794.81 1176.06,791.45 1173.8,793.46 1168.28,789.83 1162.27,792.41 1158.27,791.8 1163.23,786.99 1163.4,782.5 1160.16,777.92 1157.75,766.33 1151.98,769.83 1150.32,763.91 1151.08,760.47 1159.56,756.28 1164.04,750.42 1167.11,749.99 1169.46,747.58 1165.74,740.77 1163.97,734.72 1165.43,733.78 1163.72,723.5 1147.93,722.1 1150.63,720.35 1152.62,715.45 1151.22,711.9 1152.63,706.34 1147.88,707.58 1145.04,706.29 1145.38,695.86 1147.05,682.9 1142.66,674.1 1144.88,670.12" fill="none" stroke="#1e1e1e" stroke-width="1.11" stroke-linecap="round" stroke-linejoin="round"/>
<path d="M887.99,865.75L889.05,862.99L906.47,845.7L910.64,839.4L911.11,836.89L914.46,831.64L921.99,814.27L925.45,808.88L928.71,795.96L932.94,772.5L933.19,767.48L930.93,764.57L926.39,761.64L924.6,755.43L921.46,748.81L917.49,747.6L915.81,743.76L912.65,740.05L906.31,737.36L903.01,738.13L900.52,737.19L902.51,727.97L905.26,724.95L910.33,712.58L909.67,709.67L907.87,708.34L910.06,702.67L908.72,699.76L908.97,696.59L914.28,697.95L914.7,703.76L918.43,705.24L917.84,709.06L920.4,716.07L923.57,716.75L927.44,714L929.14,714.93L933.14,707.43L937.33,709.03L940.52,706.01L943.57,705.89L951.38,710.01L957.96,706.34L962.38,707.81L963.64,703.45L967.93,709.27L970.76,710.86L973.7,714.83L982.54,711.41L999.21,712.61L1001.93,711.82L1003.17,703.24L1011.1,699.93L1019.47,692.93L1022.07,692.26L1024.23,694.11L1025.59,698.33L1028.66,703.34L1028.79,710.07L1030.84,713.63L1032.42,713.23L1032.41,707.69L1034.9,706.36L1039.08,702.13L1046.45,704.35L1050.53,704.2L1064.13,706.52L1067.98,705.44L1071.05,706.62L1075.35,706.33L1077.95,704.86L1086.55,702.96L1089.7,699.77L1099.41,696.4L1102.59,697.83L1108.03,698.19L1113.14,700.26L1117.21,698.51L1120.79,693.46L1125.62,677.57L1127.39,673.99L1139.07,666.48L1140.57,669.11L1144.88,670.12L1142.66,674.1L1147.05,682.9L1145.38,695.86L1145.04,706.29L1147.88,707.58L1152.63,706.34L1151.22,711.9L1152.62,715.45L1150.63,720.35L1147.93,722.1L1163.72,723.5L1165.43,733.78L1163.97,734.72L1165.74,740.77L1169.46,747.58L1167.11,749.99L1164.04,750.42L1159.56,756.28L1151.08,760.47L1150.32,763.91L1151.98,769.83L1157.75,766.33L1160.16,777.92L1163.4,782.5L1163.23,786.99L1158.27,791.8L1162.27,792.41L1168.28,789.83L1173.8,793.46L1176.06,791.45L1181.57,794.81L1187.61,794.46L1193.34,804.15L1195.42,805.7L1196.98,803.17L1195.76,797.51L1196.01,791.18L1211.06,769.31L1226.87,774.6L1237.87,771.77L1240.84,772.64L1242.7,774.72L1245.71,770.84L1245.04,765.57L1245.64,760.67L1244.91,758.18L1248.09,757.73L1250.68,762.56L1264.5,759.13L1268.1,757.08L1270.21,760.08L1270.38,763.11L1273.12,763.32L1280.71,772.67L1284.99,776.01L1285.18,779.31L1276.34,787.67L1286.48,798.02L1288.25,800.75L1286.12,807.79L1289.56,814.19L1298.75,811.22L1303.83,813.22L1303.54,815.73L1298.66,817.55L1295.08,821.06L1298.41,837.49L1298.81,845L1300.54,851.03L1297.97,853.86L1296.67,857.19L1298.95,861.89L1294.29,874.79L1287.82,878.22L1285.35,880.78L1274.89,879.94L1274.34,881.14L1267.8,881.67L1263.24,883.34L1260.33,887.35L1256.92,889.26L1250.36,888.59L1247.8,886.66L1243.78,886.47L1241.68,885.05L1234.45,885.31L1233.29,884.27L1228.6,885.54L1217.98,881.89L1213.96,881.95L1201.78,888.6L1191.82,899.56L1186.33,901.75L1184.03,901.52L1175.33,904L1169.57,903.81L1164.85,902.55L1160.95,903.52L1158.75,911.99L1147.51,915.41L1142.82,918.23L1137.68,922.51L1137.24,924.09L1131.27,926.53L1125.22,931.33L1121.69,935.98L1112.28,941.6L1082.43,962.52L1076.46,967.57L1067.73,977.38L1064.27,979.9L1048.92,987.22L1039.93,996.48L1040.06,1043.44L1015.18,1012.62L1011.12,1005.63L1004.98,999.44L1004.74,994.03L1001.5,990.34L986.12,988.61L980.81,981.62L977.81,979.63L978.28,973.3L976.66,971.06L974.14,960.37L975.88,958.26L975.77,955.62L972.88,954.43L974.63,949.03L973.25,943.22L981.33,940.59L977.51,945.6L979.13,947.58L985.71,941.79L983.17,937.96L991.71,931.24L990.56,923.85L985.5,917.38L982.06,905.11L982.99,901.02L977.94,895.61L977.48,893.76L969.69,886.89L963.84,885.42L959.47,886.46L957.5,891.34L946.58,894.33L944.16,896.83L940.95,895.1L937.07,888.23L934.31,889.4L933.02,894.93L930.95,894.79L928.22,890.95L926.13,895.43L921.31,893.03L919.95,890.77L916.85,890.89L912.81,893.9L911.65,895.87L904.4,896.74L896.65,888.77L899.08,885.62L900.14,881.94L894.75,881.5L887.6,885.27L886.49,881.3L887.77,879.2L887.71,872.87L885.79,868.9L887.99,865.75Z" fill-rule="evenodd" fill="#4682b4" fill-opacity="0.471"/>
<polyline points="887.99,865.75 889.05,862.99 906.47,845.7 910.64,839.4 911.11,836.89 914.46,831.64 921.99,814.27 925.45,808.88 928.71,795.96 932.94,772.5 933.19,767.48 930.93,764.57 926.39,761.64 924.6,755.43 921.46,748.81 917.49,747.6 915.81,743.76 912.65,740.05 906.31,737.36 903.01,738.13 900.52,737.19 902.51,727.97 905.26,724.95 910.33,712.58 909.67,709.67 907.87,708.34 910.06,702.67 908.72,699.76 908.97,696.59 914.28,697.95 914.7,703.76 918.43,705.24 917.84,709.06 920.4,716.07 923.57,716.75 927.44,714 929.14,714.93 933.14,707.43 937.33,709.03 940.52,706.01 943.57,705.89 951.38,710.01 957.96,706.34 962.38,707.81 963.64,703.45 967.93,709.27 970.76,710.86 973.7,714.83 982.54,711.41 999.21,712.61 1001.93,711.82 1003.17,703.24 1011.1,699.93 1019.47,692.93 1022.07,692.26 1024.23,694.11 1025.59,698.33 1028.66,703.34 1028.79,710.07 1030.84,713.63 1032.42,713.23 1032.41,707.69 1034.9,706.36 1039.08,702.13 1046.45,704.35 1050.53,704.2 1064.13,706.52 1067.98,705.44 1071.05,706.62 1075.35,706.33 1077.95,704.86 1086.55,702.96 1089.7,699.77 1099.41,696.4 1102.59,697.83 1108.03,698.19 1113.14,700.26 1117.21,698.51 1120.79,693.46 1125.62,677.57 1127.39,673.99 1139.07,666.48 1140.57,669.11 1144.88,670.12 1142.66,674.1 1147.05,682.9 1145.38,695.86 1145.04,706.29 1147.88,707.58 1152.63,706.34 1151.22,711.9 1152.62,715.45 1150.63,720.35 1147.93,722.1 1163.72,723.5 1165.43,733.78 1163.97,734.72 1165.74,740.77 1169.46,747.58 1167.11,749.99 1164.04,750.42 1159.56,756.28 1151.08,760.47 1150.32,763.91 1151.98,769.83 1157.75,766.33 1160.16,777.92 1163.4,782.5 1163.23,786.99 1158.27,791.8 1162.27,792.41 1168.28,789.83 1173.8,793.46 1176.06,791.45 1181.57,794.81 1187.61,794.46 1193.34,804.15 1195.42,805.7 1196.98,803.17 1195.76,797.51 1196.01,791.18 1211.06,769.31 1226.87,774.6 1237.87,771.77 1240.84,772.64 1242.7,774.72 1245.71,770.84 1245.04,765.57 1245.64,760.67 1244.91,758.18 1248.09,757.73 1250.68,762.56 1264.5,759.13 1268.1,757.08 1270.21,760.08 1270.38,763.11 1273.12,763.32 1280.71,772.67 1284.99,776.01 1285.18,779.31 1276.34,787.67 1286.48,798.02 1288.25,800.75 1286.12,807.79 1289.56,814.19 1298.75,811.22 1303.83,813.22 1303.54,815.73 1298.66,817.55 1295.08,821.06 1298.41,837.49 1298.81,845 1300.54,851.03 1297.97,853.86 1296.67,857.19 1298.95,861.89 1294.29,874.79 1287.82,878.22 1285.35,880.78 1274.89,879.94 1274.34,881.14 1267.8,881.67 1263.24,883.34 1260.33,887.35 1256.92,889.26 1250.36,888.59 1247.8,886.66 1243.78,886.47 1241.68,885.05 1234.45,885.31 1233.29,884.27 1228.6,885.54 1217.98,881.89 1213.96,881.95 1201.78,888.6 1191.82,899.56 1186.33,901.75 1184.03,901.52 1175.33,904 1169.57,903.81 1164.85,902.55 1160.95,903.52 1158.75,911.99 1147.51,915.41 1142.82,918.23 1137.68,922.51 1137.24,924.09 1131.27,926.53 1125.22,931.33 1121.69,935.98 1112.28,941.6 1082.43,962.52 1076.46,967.57 1067.73,977.38 1064.27,979.9 1048.92,987.22 1039.93,996.48 1040.06,1043.44 1015.18,1012.62 1011.12,1005.63 1004.98,999.44 1004.74,994.03 1001.5,990.34 986.12,988.61 980.81,981.62 977.81,979.63 978.28,973.3 976.66,971.06 974.14,960.37 975.88,958.26 975.77,955.62 972.88,954.43 974.63,949.03 973.25,943.22 981.33,940.59 977.51,945.6 979.13,947.58 985.71,941.79 983.17,937.96 991.71,931.24 990.56,923.85 985.5,917.38 982.06,905.11 982.99,901.02 977.94,895.61 977.48,893.76 969.69,886.89 963.84,885.42 959.47,886.46 957.5,891.34 946.58,894.33 944.16,896.83 940.95,895.1 937.07,888.23 934.31,889.4 933.02,894.93 930.95,894.79 928.22,890.95 926.13,895.43 921.31,893.03 919.95,890.77 916.85,890.89 912.81,893.9 911.65,895.87 904.4,896.74 896.65,888.77 899.08,885.62 900.14,881.94 894.75,881.5 887.6,885.27 886.49,881.3 887.77,879.2 887.71,872.87 885.79,868.9 887.99,865.75" fill="none" stroke="#1e1e1e" stroke-width="1.11" stroke-linecap="round" stroke-linejoin="round"/>
<path d="M678.27,1053.22L687.43,1049.08L706.75,1042.5L715.69,1037.02L718.23,1031.92L721.18,1029.61L725.38,1022.96L728.92,1020L730.26,1016.6L732.75,1013.61L740.64,1007.16L745.15,1001.44L757.13,991.63L765.16,982.27L788.58,971.04L808.14,960.51L827.81,947.31L835.87,938.71L837.53,934.77L848.75,920.65L857.91,914.28L861.86,910.63L864.57,904.06L872.83,893.98L875.75,888.07L877.72,886.24L881.38,874.8L885.79,868.9L887.71,872.87L887.77,879.2L886.49,881.3L887.6,885.27L894.75,881.5L900.14,881.94L899.08,885.62L896.65,888.77L904.4,896.74L911.65,895.87L912.81,893.9L916.85,890.89L919.95,890.77L921.31,893.03L926.13,895.43L928.22,890.95L930.95,894.79L933.02,894.93L934.31,889.4L937.07,888.23L940.95,895.1L944.16,896.83L946.58,894.33L957.5,891.34L959.47,886.46L963.84,885.42L969.69,886.89L977.48,893.76L977.94,895.61L982.99,901.02L982.06,905.11L985.5,917.38L990.56,923.85L991.71,931.24L983.17,937.96L985.71,941.79L979.13,947.58L977.51,945.6L981.33,940.59L973.25,943.22L974.63,949.03L972.88,954.43L975.77,955.62L975.88,958.26L974.14,960.37L976.66,971.06L978.28,973.3L977.81,979.63L980.81,981.62L986.12,988.61L1001.5,990.34L1004.74,994.03L1004.98,999.44L1011.12,1005.63L1015.18,1012.62L1040.06,1043.44L1040.63,1198.45L1024.07,1195.32L1016.32,1192.29L1004.93,1179.77L994.49,1175.02L981.49,1162.47L967.81,1154.14L953.98,1160.43L937.92,1163.27L930.57,1157.43L912.38,1145.45L908.31,1141.07L906.46,1138.16L906.25,1135.26L900.92,1128.75L896.6,1127.27L894.59,1130.56L888.74,1132.23L882.8,1129.67L878.07,1122.24L874.1,1122.21L871.75,1123.37L868.85,1121.63L860.2,1110.33L852.75,1108.28L836.41,1109.28L800.98,1113.7L797.04,1111.67L793.2,1111.21L783.26,1112.65L779.6,1114.7L776.69,1114.26L759.04,1115.28L745.94,1116.77L741.55,1114.05L726.13,1108.74L721.01,1107.58L711.69,1107L704.07,1103.01L700.19,1098.97L691.12,1082.14L687.47,1073.22L686.15,1064.75L679.35,1056.94L678.27,1053.22Z" fill-rule="evenodd" fill="#4682b4" fill-opacity="0.471"/>
<polyline points="678.27,1053.22 687.43,1049.08 706.75,1042.5 715.69,1037.02 718.23,1031.92 721.18,1029.61 725.38,1022.96 728.92,1020 730.26,1016.6 732.75,1013.61 740.64,1007.16 745.15,1001.44 757.13,991.63 765.16,982.27 788.58,971.04 808.14,960.51 827.81,947.31 835.87,938.71 837.53,934.77 848.75,920.65 857.91,914.28 861.86,910.63 864.57,904.06 872.83,893.98 875.75,888.07 877.72,886.24 881.38,874.8 885.79,868.9 887.71,872.87 887.77,879.2 886.49,881.3 887.6,885.27 894.75,881.5 900.14,881.94 899.08,885.62 896.65,888.77 904.4,896.74 911.65,895.87 912.81,893.9 916.85,890.89 919.95,890.77 921.31,893.03 926.13,895.43 928.22,890.95 930.95,894.79 933.02,894.93 934.31,889.4 937.07,888.23 940.95,895.1 944.16,896.83 946.58,894.33 957.5,891.34 959.47,886.46 963.84,885.42 969.69,886.89 977.48,893.76 977.94,895.61 982.99,901.02 982.06,905.11 985.5,917.38 990.56,923.85 991.71,931.24 983.17,937.96 985.71,941.79 979.13,947.58 977.51,945.6 981.33,940.59 973.25,943.22 974.63,949.03 972.88,954.43 975.77,955.62 975.88,958.26 974.14,960.37 976.66,971.06 978.28,973.3 977.81,979.63 980.81,981.62 986.12,988.61 1001.5,990.34 1004.74,994.03 1004.98,999.44 1011.12,1005.63 1015.18,1012.62 1040.06,1043.44 1040.63,1198.45 1024.07,1195.32 1016.32,1192.29 1004.93,1179.77 994.49,1175.02 981.49,1162.47 967.81,1154.14 953.98,1160.43 937.92,1163.27 930.57,1157.43 912.38,1145.45 908.31,1141.07 906.46,1138.16 906.25,1135.26 900.92,1128.75 896.6,1127.27 894.59,1130.56 888.74,1132.23 882.8,1129.67 878.07,1122.24 874.1,1122.21 871.75,1123.37 868.85,1121.63 860.2,1110.33 852.75,1108.28 836.41,1109.28 800.98,1113.7 797.04,1111.67 793.2,1111.21 783.26,1112.65 779.6,1114.7 776.69,1114.26 759.04,1115.28 745.94,1116.77 741.55,1114.05 726.13,1108.74 721.01,1107.58 711.69,1107 704.07,1103.01 700.19,1098.97 691.12,1082.14 687.47,1073.22 686.15,1064.75 679.35,1056.94 678.27,1053.22" fill="none" stroke="#1e1e1e" stroke-width="1.11" stroke-linecap="round" stroke-linejoin="round"/>
<path d="M292.55,1505.01L295.15,1500.91L295.25,1496.41L297.44,1488.58L303.13,1475.35L302.85,1471.37L305.15,1456.13L302.48,1446.87L303.59,1443.88L303.14,1435.92L305.52,1431.28L305.85,1424.55L307.81,1421.07L307.66,1419.21L310.54,1414.06L311.4,1408.54L320.18,1397.46L322.92,1392.43L324.57,1387.88L324.69,1382.86L327.48,1376.78L331.97,1362.58L334.3,1360.97L340.27,1353.05L349.18,1335.22L350.9,1328.69L351.48,1321.32L349.91,1316.62L353.18,1310.03L362.32,1299.34L368.76,1298.57L372.49,1297.29L380.34,1291.16L386.57,1284.03L389.51,1279L397.67,1278.96L403.75,1277.9L413.85,1273.96L421.31,1268.19L447.27,1254.04L456.25,1247.92L463.25,1240.79L472.17,1223.17L475.52,1212.07L482.71,1196.09L484.28,1185.32L489.29,1176.66L495.1,1168.69L500.57,1156.87L506.61,1141.64L511.4,1125.3L515.93,1116.09L526.61,1111.31L529.76,1108.11L531.65,1103.95L534.05,1102.05L536.69,1092.77L540.25,1087.35L542.86,1086.24L545.29,1083.29L586.45,1078.9L625.9,1072.23L643,1068.46L646.64,1067.23L649.13,1065.18L657.5,1060.9L676.06,1053.43L678.27,1053.22L679.35,1056.94L686.15,1064.75L687.47,1073.22L691.12,1082.14L700.19,1098.97L704.07,1103.01L711.69,1107L721.01,1107.58L726.13,1108.74L741.55,1114.05L745.94,1116.77L759.04,1115.28L776.69,1114.26L779.6,1114.7L783.26,1112.65L793.2,1111.21L797.04,1111.67L800.98,1113.7L836.41,1109.28L852.75,1108.28L860.2,1110.33L868.85,1121.63L871.75,1123.37L874.1,1122.21L878.07,1122.24L882.8,1129.67L888.74,1132.23L894.59,1130.56L896.6,1127.27L900.92,1128.75L906.25,1135.26L906.46,1138.16L908.31,1141.07L912.38,1145.45L930.57,1157.43L937.92,1163.27L953.98,1160.43L967.81,1154.14L981.49,1162.47L994.49,1175.02L1004.93,1179.77L1016.32,1192.29L1024.07,1195.32L1040.63,1198.45L1041.18,1348.39L890.81,1348.16L729.42,1346L645.53,1344.02L640.32,1557.38L626.81,1552.93L608.72,1549.41L602.07,1550.02L597.09,1551.6L575.4,1555.74L566.73,1555.61L533.92,1541.49L506.1,1534.6L484.99,1535.71L467.69,1541.17L458.38,1545.19L436.98,1550.06L431.49,1548.65L422.37,1544.58L390.92,1535.87L363.32,1536.13L338.8,1542.57L332.05,1540L326.78,1534.2L325.36,1530.95L320.48,1527.15L306.13,1522.62L296.71,1513.29L294.56,1510.41L292.55,1505.01Z" fill-rule="evenodd" fill="#4682b4" fill-opacity="0.471"/>
<polyline points="292.55,1505.01 295.15,1500.91 295.25,1496.41 297.44,1488.58 303.13,1475.35 302.85,1471.37 305.15,1456.13 302.48,1446.87 303.59,1443.88 303.14,1435.92 305.52,1431.28 305.85,1424.55 307.81,1421.07 307.66,1419.21 310.54,1414.06 311.4,1408.54 320.18,1397.46 322.92,1392.43 324.57,1387.88 324.69,1382.86 327.48,1376.78 331.97,1362.58 334.3,1360.97 340.27,1353.05 349.18,1335.22 350.9,1328.69 351.48,1321.32 349.91,1316.62 353.18,1310.03 362.32,1299.34 368.76,1298.57 372.49,1297.29 380.34,1291.16 386.57,1284.03 389.51,1279 397.67,1278.96 403.75,1277.9 413.85,1273.96 421.31,1268.19 447.27,1254.04 456.25,1247.92 463.25,1240.79 472.17,1223.17 475.52,1212.07 482.71,1196.09 484.28,1185.32 489.29,1176.66 495.1,1168.69 500.57,1156.87 506.61,1141.64 511.4,1125.3 515.93,1116.09 526.61,1111.31 529.76,1108.11 531.65,1103.95 534.05,1102.05 536.69,1092.77 540.25,1087.35 542.86,1086.24 545.29,1083.29 586.45,1078.9 625.9,1072.23 643,1068.46 646.64,1067.23 649.13,1065.18 657.5,1060.9 676.06,1053.43 678.27,1053.22 679.35,1056.94 686.15,1064.75 687.47,1073.22 691.12,1082.14 700.19,1098.97 704.07,1103.01 711.69,1107 721.01,1107.58 726.13,1108.74 741.55,1114.05 745.94,1116.77 759.04,1115.28 776.69,1114.26 779.6,1114.7 783.26,1112.65 793.2,1111.21 797.04,1111.67 800.98,1113.7 836.41,1109.28 852.75,1108.28 860.2,1110.33 868.85,1121.63 871.75,1123.37 874.1,1122.21 878.07,1122.24 882.8,1129.67 888.74,1132.23 894.59,1130.56 896.6,1127.27 900.92,1128.75 906.25,1135.26 906.46,1138.16 908.31,1141.07 912.38,1145.45 930.57,1157.43 937.92,1163.27 953.98,1160.43 967.81,1154.14 981.49,1162.47 994.49,1175.02 1004.93,1179.77 1016.32,1192.29 1024.07,1195.32 1040.63,1198.45 1041.18,1348.39 890.81,1348.16 729.42,1346 645.53,1344.02 640.32,1557.38 626.81,1552.93 608.72,1549.41 602.07,1550.02 597.09,1551.6 575.4,1555.74 566.73,1555.61 533.92,1541.49 506.1,1534.6 484.99,1535.71 467.69,1541.17 458.38,1545.19 436.98,1550.06 431.49,1548.65 422.37,1544.58 390.92,1535.87 363.32,1536.13 338.8,1542.57 332.05,1540 326.78,1534.2 325.36,1530.95 320.48,1527.15 306.13,1522.62 296.71,1513.29 294.56,1510.41 292.55,1505.01" fill="none" stroke="#1e1e1e" stroke-width="1.11" stroke-linecap="round" stroke-linejoin="round"/>
<path d="M1.42,1968.65L1.3,1966.64L4.68,1955.27L4.53,1950.06L7.78,1938.82L8.11,1932.04L15.85,1903.51L15.74,1897.65L17.74,1890.06L17.38,1882.44L20.71,1878.8L19.91,1872.36L22.14,1866.65L26.07,1863.32L29.09,1858.72L29.81,1853.45L31.72,1850.65L42.78,1825.03L47.22,1822.92L47.34,1821.07L46.45,1819.68L53.58,1814.16L59.23,1808.54L62.66,1808.89L64.64,1812.48L71.6,1811.46L76.89,1809.53L82.41,1805.89L82.47,1802.97L86.58,1798.17L92.11,1780.31L99.66,1775.32L100.89,1773.41L101.87,1767.35L103.57,1763.61L104,1754.73L106.12,1748.08L111.45,1740.97L111.83,1738.87L110.28,1736.12L112.38,1731.86L114.69,1732L121.95,1729.39L128.04,1723.65L131.01,1716.92L130.99,1713.2L129.17,1708.84L124.2,1706.16L126.11,1702.82L129.43,1700.36L135.65,1692.37L135.56,1689.71L139.66,1684.38L145.1,1674.75L151.67,1668.64L153.95,1665.19L157.79,1657.71L155,1653.44L159.67,1650.53L167.96,1639.47L170.39,1637.48L177.49,1627.94L180.73,1622.29L184.78,1619.34L187.58,1614.73L185.83,1611.31L186.82,1608.85L185.75,1604.15L181.78,1601.54L179.15,1605.1L176.75,1604.83L169.93,1611.6L165.48,1619.43L162.79,1628.16L157.29,1632.88L154.26,1636.95L152.58,1634.46L158.83,1627.27L159.23,1624.51L163.22,1620.76L163.49,1618.12L165.7,1613.48L173.98,1604.41L182.1,1598.11L185.25,1595.9L196.19,1590.95L205.86,1584.59L208.25,1578.5L210.86,1577.31L229.24,1559.23L238.9,1552.46L253.46,1534.81L262.39,1527.72L278.1,1521.9L280.16,1519.36L282.35,1511.66L288.16,1508.63L292.55,1505.01L294.56,1510.41L296.71,1513.29L306.13,1522.62L320.48,1527.15L325.36,1530.95L326.78,1534.2L332.05,1540L338.8,1542.57L363.32,1536.13L390.92,1535.87L422.37,1544.58L431.49,1548.65L436.98,1550.06L458.38,1545.19L467.69,1541.17L484.99,1535.71L506.1,1534.6L533.92,1541.49L566.73,1555.61L575.4,1555.74L597.09,1551.6L602.07,1550.02L608.72,1549.41L626.81,1552.93L640.32,1557.38L637.24,1680.56L618.15,1685.1L592.28,1697.25L567.24,1700.24L514.13,1733.83L500.49,1750.87L494.38,1768.57L501.44,1798.14L506.41,1957.76L253.85,1947.17L18.05,1933.77L10.62,1959.4L8.11,1965.37L5.2,1969.71L3.98,1976.82L-0.81,1992.37L0.4,2007.8L-3.09,2000.23L-5.48,1996.86L-3.2,1994.61L-2.09,1991.09L-3.83,1987.23L0.86,1976.88L1.42,1968.65Z" fill-rule="evenodd" fill="#4682b4" fill-opacity="0.471"/>
<polyline points="1.42,1968.65 1.3,1966.64 4.68,1955.27 4.53,1950.06 7.78,1938.82 8.11,1932.04 15.85,1903.51 15.74,1897.65 17.74,1890.06 17.38,1882.44 20.71,1878.8 19.91,1872.36 22.14,1866.65 26.07,1863.32 29.09,1858.72 29.81,1853.45 31.72,1850.65 42.78,1825.03 47.22,1822.92 47.34,1821.07 46.45,1819.68 53.58,1814.16 59.23,1808.54 62.66,1808.89 64.64,1812.48 71.6,1811.46 76.89,1809.53 82.41,1805.89 82.47,1802.97 86.58,1798.17 92.11,1780.31 99.66,1775.32 100.89,1773.41 101.87,1767.35 103.57,1763.61 104,1754.73 106.12,1748.08 111.45,1740.97 111.83,1738.87 110.28,1736.12 112.38,1731.86 114.69,1732 121.95,1729.39 128.04,1723.65 131.01,1716.92 130.99,1713.2 129.17,1708.84 124.2,1706.16 126.11,1702.82 129.43,1700.36 135.65,1692.37 135.56,1689.71 139.66,1684.38 145.1,1674.75 151.67,1668.64 153.95,1665.19 157.79,1657.71 155,1653.44 159.67,1650.53 167.96,1639.47 170.39,1637.48 177.49,1627.94 180.73,1622.29 184.78,1619.34 187.58,1614.73 185.83,1611.31 186.82,1608.85 185.75,1604.15 181.78,1601.54 179.15,1605.1 176.75,1604.83 169.93,1611.6 165.48,1619.43 162.79,1628.16 157.29,1632.88 154.26,1636.95 152.58,1634.46 158.83,1627.27 159.23,1624.51 163.22,1620.76 163.49,1618.12 165.7,1613.48 173.98,1604.41 182.1,1598.11 185.25,1595.9 196.19,1590.95 205.86,1584.59 208.25,1578.5 210.86,1577.31 229.24,1559.23 238.9,1552.46 253.46,1534.81 262.39,1527.72 278.1,1521.9 280.16,1519.36 282.35,1511.66 288.16,1508.63 292.55,1505.01 294.56,1510.41 296.71,1513.29 306.13,1522.62 320.48,1527.15 325.36,1530.95 326.78,1534.2 332.05,1540 338.8,1542.57 363.32,1536.13 390.92,1535.87 422.37,1544.58 431.49,1548.65 436.98,1550.06 458.38,1545.19 467.69,1541.17 484.99,1535.71 506.1,1534.6 533.92,1541.49 566.73,1555.61 575.4,1555.74 597.09,1551.6 602.07,1550.02 608.72,1549.41 626.81,1552.93 640.32,1557.38 637.24,1680.56 618.15,1685.1 592.28,1697.25 567.24,1700.24 514.13,1733.83 500.49,1750.87 494.38,1768.57 501.44,1798.14 506.41,1957.76 253.85,1947.17 18.05,1933.77 10.62,1959.4 8.11,1965.37 5.2,1969.71 3.98,1976.82 -0.81,1992.37 0.4,2007.8 -3.09,2000.23 -5.48,1996.86 -3.2,1994.61 -2.09,1991.09 -3.83,1987.23 0.86,1976.88 1.42,1968.65" fill="none" stroke="#1e1e1e" stroke-width="1.11" stroke-linecap="round" stroke-linejoin="round"/>
<text x="529.19" y="1309.77" font-family="sans-serif" font-size="14" stroke="#ffffff" stroke-opacity="0.784" stroke-width="2.33" stroke-linejoin="round" paint-order="stroke" fill="#141414">Laâyoune-Sakia El Hamra</text>
<text x="229.2" y="1753.66" font-family="sans-serif" font-size="14" stroke="#ffffff" stroke-opacity="0.784" stroke-width="2.33" stroke-linejoin="round" paint-order="stroke" fill="#141414">Dakhla-Oued Ed-Dahab</text>
<text x="1350.75" y="662.72" font-family="sans-serif" font-size="14" stroke="#ffffff" stroke-opacity="0.784" stroke-width="2.33" stroke-linejoin="round" paint-order="stroke" fill="#141414">Drâa-Tafilalet</text>
<text x="1665.28" y="343.73" font-family="sans-serif" font-size="14" stroke="#ffffff" stroke-opacity="0.784" stroke-width="2.33" stroke-linejoin="round" paint-order="stroke" fill="#141414">Oriental</text>
<text x="1019.53" y="838.2" font-family="sans-serif" font-size="14" stroke="#ffffff" stroke-opacity="0.784" stroke-width="2.33" stroke-linejoin="round" paint-order="stroke" fill="#141414">Souss-Massa</text>
<text x="800.73" y="1045.62" font-family="sans-serif" font-size="14" stroke="#ffffff" stroke-opacity="0.784" stroke-width="2.33" stroke-linejoin="round" paint-order="stroke" fill="#141414">Guelmim-Oued Noun</text>
<text x="1444.7" y="322.31" font-family="sans-serif" font-size="14" stroke="#ffffff" stroke-opacity="0.784" stroke-width="2.33" stroke-linejoin="round" paint-order="stroke" fill="#141414">Fez-Meknes</text>
<text x="992.96" y="602.8" font-family="sans-serif" font-size="14" stroke="#ffffff" stroke-opacity="0.784" stroke-width="2.33" stroke-linejoin="round" paint-order="stroke" fill="#141414">Marrakech-Safi</text>
<text x="1211.07" y="499.62" font-family="sans-serif" font-size="14" stroke="#ffffff" stroke-opacity="0.784" stroke-width="2.33" stroke-linejoin="round" paint-order="stroke" fill="#141414">Béni Mellal-Khénifra</text>
<text x="1053.5" y="430.07" font-family="sans-serif" font-size="14" stroke="#ffffff" stroke-opacity="0.784" stroke-width="2.33" stroke-linejoin="round" paint-order="stroke" fill="#141414">Casablanca-Settat</text>
<text x="1220.22" y="286.81" font-family="sans-serif" font-size="14" stroke="#ffffff" stroke-opacity="0.784" stroke-width="2.33" stroke-linejoin="round" paint-order="stroke" fill="#141414">Rabat-Salé-Kenitra</text>
<text x="1286.59" y="140.29" font-family="sans-serif" font-size="14" stroke="#ffffff" stroke-opacity="0.784" stroke-width="2.33" stroke-linejoin="round" paint-order="stroke" fill="#141414">Tangier-Tetouan-Al Hoceima</text>
</svg>
