<?xml version="1.0" encoding="UTF-8" standalone="no"?>
<svg xmlns="http://www.w3.org/2000/svg" width="2000" height="1871" viewBox="0 0 2000 1871">
<rect width="2000" height="1871" fill="#ffffff"/>
<polyline points="543.05,1485.14 543.24,1483.37 543.05,1485.14" fill="none" stroke="#1e1e1e" stroke-width="1.18" stroke-linecap="round" stroke-linejoin="round"/>
<polyline points="549.21,1545.76 551.25,1550.2 549.18,1547.66 549.21,1545.76" fill="none" stroke="#1e1e1e" stroke-width="1.18" stroke-linecap="round" stroke-linejoin="round"/>
<polyline points="759.97,1843.56 758.94,1843.02 757.03,1836.95 752.85,1833.26 749.08,1831.53 747.22,1829.74 745.33,1829.32 744.58,1823.78 742.85,1822.46 742.56,1817.9 741.33,1817.02 741.11,1813.45 739.66,1812.33 741,1808.55 740.72,1806.81 737.97,1804.01 735.93,1803.56 735.41,1801.99 732.53,1799.03 732.79,1797.96 731.96,1798.28 728.48,1794.77 715.93,1787 707.13,1779.86 692.61,1763.27 668.45,1738.44 636.95,1711.27 623.88,1697.04 618.81,1690.03 618.02,1687.23 619.38,1686.05 619.03,1682.93 614.78,1677.7 614.01,1674.98 610.83,1670.69 600.37,1659.93 600.27,1658.12 598.14,1655.72 597.69,1653.6 598.44,1652.14 596.53,1649.55 597.35,1644.24 592.9,1637.28 587.87,1631.95 588.87,1631.48 588.64,1630.11 584.96,1624.57 585.19,1623.24 583.27,1621.1 582.34,1618.56 575.28,1612.56 573.67,1606.71 571.31,1604.87 570.35,1602.39 568.72,1601.63 566.14,1595.82 564.53,1594.6 562.37,1582.8 560.2,1580.07 559.51,1576.45 560,1573.1 561.03,1572.06 557.63,1562.47 557.57,1561.73 558.76,1561.22 558.62,1559.5 554.91,1552.99 554.59,1548.15 555.94,1542.02 554.57,1536.15 552.05,1533.18 549.58,1532.69 548.86,1534.23 546.55,1531.93 544.66,1531.93 543.51,1531.08 543.64,1528.42 544.74,1526.73 543.46,1525.67 544.26,1524.83 544.07,1523.24 542.77,1524.25 541.45,1521.82 542.04,1519.72 540.9,1519.9 540.21,1516.53 539.31,1517.08 538.59,1516.18 538.34,1512.5 536.77,1510.43 537.57,1508.89 537.42,1505.98 535.92,1505.48 535.35,1506.52 534.33,1504.22 534.36,1500.56 533.31,1499.35 532.93,1496.78 533.18,1493.41 534.59,1492.36 534.06,1490.31 534.65,1489.85 534.98,1491.4 536.69,1492.02 538.88,1490.75 539.34,1488.85 539.9,1489.16 540.77,1491.66 539.72,1493.3 542.1,1498.01 542.95,1497.32 542.19,1494.93 543.38,1494.3 542.27,1493.88 542.7,1489.5 543.29,1491.41 544.91,1489.3 544.66,1486.76 546.14,1485.65 545.46,1481.85 542.77,1481.92 541.8,1480.46 540.91,1470.31 538.2,1466.94 538.53,1465.69 536.89,1463.09 538.17,1462.92 538.15,1460.96 534.73,1457.6 534.32,1455.61 525.35,1448.9 517.77,1446.03 513.96,1441.3 514.94,1439.82 513.88,1436.86 513.91,1432.63 514.89,1431.99 514.01,1428.17 515.76,1425.93 516.21,1422.66 510.64,1415.12 511.45,1413.97 513.7,1415.66 515.84,1414.1 517.17,1411.15 517.44,1405.83 514.2,1397.04 513.58,1392.67 507.24,1383.41 506.13,1377.28 506.49,1372.88 507.1,1372.39 506.59,1370.75 503.85,1366.89 499.64,1363.24 499.5,1361.56 497.29,1359.63 496.87,1357.48 495.73,1356.74 495.16,1355.05 495.55,1353.17 497.23,1353.38 497.92,1352.4 497.83,1349.42 496.21,1346.15 496.27,1341.39 498.24,1333.44 501.99,1327.46 501.99,1324.4 498.98,1317.46 495.39,1312.54 496.18,1307.23 491.56,1300.76 490.96,1297.82 491.5,1290.88 489.87,1287.29 489.91,1285.48 491.07,1284.53 493.21,1275.07 495.19,1271.79 494.83,1266.34 495.78,1261.29 499.26,1255.97 499.31,1254.22 496.62,1246.87 487.32,1228.64 487.68,1225.43 486.85,1219.35 487.7,1217.06 483.42,1206.26 477.47,1196.79 458.37,1174.3 461.08,1164.04 460,1158.04 443.59,1121.83 438.41,1105.47 436.14,1094.94 436.3,1087.14 438.2,1081.46 440.82,1078.19 443.9,1076.9 444.77,1075.47 442.7,1061.23 443.24,1058.99 441.69,1053.48 442.27,1051.27 441.76,1040.95 442.96,1033.49 431.86,1004.89 430.93,998.49 432.08,995.11 435.56,994.91 433.55,995.15 433.67,996.53 434.61,996.84 433.47,998.42 432.91,1003.84 435.15,1003.1 433.63,1006.08 434.08,1005.8 434.28,1006.8 435.12,1006.13 437.93,1014.98 436.58,1001.74 437.16,999.66 439.86,997.21 440.04,991.81 439.18,993.91 440.21,987.54 437.49,976.23 428.88,953.92 424.94,939.99 425.54,930.67 426.15,929.19 428.88,926.98 429,919.87 431.08,917.92 429.43,922.27 429.26,924.14 430.23,926.01 428.64,934.1 428.94,934.61 430.97,933.58 431.97,931.73 434.87,931.98 432.49,940.93 432.81,941.5 433.56,940.61 435.18,934.84 436.74,933.49 436.68,932.32 435.75,931.68 436,929.59 436.63,929.85 436.45,931.16 438.24,930.09 441.04,926.52 439.75,926.67 441.77,925.62 443.64,922.52 443.99,908.09 440.58,899.52 441.71,895.82 440.29,892.16 440.87,890.71 440.11,888.09 441.08,884.5 439.96,879.44 437.7,875.18 438.43,872.25 438,869.63 434.91,862.84 432.13,859.4 428.02,846.48 425.82,842.44 425.63,839.52 420.08,828.11 409.97,817.8 405.23,811.09 405.66,807.7 405.04,806.32 389.31,787.43 385.75,784.19 379.89,775.66 373.26,769.48 372.44,767.08 355.7,753.03 359.72,748.39 359.2,744.34 344.89,725.05 341.33,715.28 341.78,712.6 335.88,705.74 333.62,700 324.94,690.71 324.06,687.7 318.64,682.52 316.41,678.65 315.78,675.29 299.33,657.19 296.33,650.84 295.43,644.47 286.25,631.74 281.86,627.06 281.12,624.61 275.2,618.61 269.31,606.15 269.88,602.79 267.34,594.23 267.12,590.59 262.22,577.58 249.31,555.62 249.68,547.22 247.79,540.33 247.29,535.2 241.76,525.89 242.04,522.32 240.73,519.46 234.52,512.52 232.9,509.62 228.28,505.49 223.06,502.3 219.39,498.11 218.37,493.67 216.27,489.21 215.91,485.17 212.75,481.34 206.06,468.29 203.52,464.81 199.53,454.23 191.86,443.64 188.55,434.53 179.72,421 175.86,412.45 169.3,403.2 164.8,394.23 165.1,389.68 163,383.67 158.61,378.13 151.94,367.04 148.31,357.44 146.33,355.4 143.48,349.82 132.29,340.43 129.87,337.3 126.63,324.93 115.74,312.78 115.54,311.08 107.69,301.79 105.82,298.1 62.71,263.82 60.35,259.86 59.76,257.01 57.56,254.14 57.31,247.06 56.41,243.74 49.79,234.05 50.68,231.21 49.81,228.15 46.06,222.31 39.57,214.88 33.71,209.86 33.1,207.21 30.61,202.83 29.39,194.25 26.44,188.6 25.44,184.8 24.8,172.91 21.65,164.62 20.65,158.93 19.03,155.88 19.25,152.53 17.75,147.79 17.3,141.96 14.8,135.44 14.37,130.07 12.96,126.13" fill="none" stroke="#1e1e1e" stroke-width="1.18" stroke-linecap="round" stroke-linejoin="round"/>
<polyline points="12.92,125.27 13.08,109.87 12.38,106.29 13.25,102.62 13.11,96.23 14.57,93.33 13.44,88.99 13.72,81.86 12.56,74.88 12.9,68.52 11.53,53.03 12.18,30.69" fill="none" stroke="#1e1e1e" stroke-width="1.18" stroke-linecap="round" stroke-linejoin="round"/>
<polyline points="542.62,1487.42 543.23,1486.59 543.21,1488.12 542.62,1487.42" fill="none" stroke="#1e1e1e" stroke-width="1.18" stroke-linecap="round" stroke-linejoin="round"/>
</svg>
