<?xml version="1.0" encoding="UTF-8" standalone="no"?>
<svg xmlns="http://www.w3.org/2000/svg" width="2000" height="1871" viewBox="0 0 2000 1871">
<rect width="2000" height="1871" fill="#ffffff"/>
<path d="M439.16,993.02L438.21,993.96L439.16,993.02Z" fill-rule="evenodd" fill="#4682b4" fill-opacity="0.471"/>
<polyline points="439.16,993.02 438.21,993.96 439.16,993.02" fill="none" stroke="#1e1e1e" stroke-width="1.18" stroke-linecap="round" stroke-linejoin="round"/>
<path d="M550.68,1549.07L551.24,1549.82L550.56,1549.99L549.14,1547.42L549.38,1545.88L550.68,1549.07Z" fill-rule="evenodd" fill="#4682b4" fill-opacity="0.471"/>
<polyline points="550.68,1549.07 551.24,1549.82 550.56,1549.99 549.14,1547.42 549.38,1545.88 550.68,1549.07" fill="none" stroke="#1e1e1e" stroke-width="1.18" stroke-linecap="round" stroke-linejoin="round"/>
<path d="M533.02,1493.06L532.87,1492.45L533.02,1493.06Z" fill-rule="evenodd" fill="#4682b4" fill-opacity="0.471"/>
<polyline points="533.02,1493.06 532.87,1492.45 533.02,1493.06" fill="none" stroke="#1e1e1e" stroke-width="1.18" stroke-linecap="round" stroke-linejoin="round"/>
<path d="M543.29,1488.08L542.59,1487.33L542.98,1486.41L543.29,1488.08Z" fill-rule="evenodd" fill="#4682b4" fill-opacity="0.471"/>
<polyline points="543.29,1488.08 542.59,1487.33 542.98,1486.41 543.29,1488.08" fill="none" stroke="#1e1e1e" stroke-width="1.18" stroke-linecap="round" stroke-linejoin="round"/>
<path d="M543.09,1485.18L543.32,1483.34L543.09,1485.18Z" fill-rule="evenodd" fill="#4682b4" fill-opacity="0.471"/>
<polyline points="543.09,1485.18 543.32,1483.34 543.09,1485.18" fill="none" stroke="#1e1e1e" stroke-width="1.18" stroke-linecap="round" stroke-linejoin="round"/>
<path d="M12.34,74.57L15.9,75.63L19.08,77.94L19.63,76.99L22.38,76.41L25.11,71.83L27.93,72.63L28.45,71.38L31.76,70L32.97,67.49L37.69,64.98L39.8,62.89L47.91,60.84L53.34,57.53L57.46,57.96L60.16,55.85L63.36,58.62L65.09,58.09L67.19,59.22L72.14,58.4L74.29,60.61L75.29,63.32L77.05,63.55L79.53,66.67L81,66.76L82.5,67.62L83.31,69.27L85.53,69.79L87.52,68.48L90.51,69.88L92.07,68.59L96.58,67.79L100.02,65.95L102.89,68.13L105.28,65.73L106.17,66L106.67,63.99L108.12,63.62L109.92,64.62L110.62,63.82L112.63,66.35L112.14,68.67L113.22,70.01L112.85,71.71L114.63,72.25L115.02,70.85L118.23,70.57L118.88,68.7L120.97,69.53L125.79,69.34L126.79,68.53L128.13,69.24L128.52,67.85L131.32,68.35L133.43,66.11L135.95,66.93L136.94,65.97L137.39,66.41L138.14,63.01L142.89,60.98L143.71,59.41L146.98,56.98L148.17,57.39L150.47,56.23L152.97,56.44L152.91,54.9L155.79,53.56L155.9,52.64L159.22,51.44L162.19,48.71L165.96,47.49L168.41,42.79L170.32,42.87L171.58,41.29L175.33,39.61L175.37,36.7L178.13,36.13L181.65,32.31L186.18,31.83L185.7,30.78L188.18,30.38L188.81,27.59L191.1,26.12L197.81,24.95L200.91,25.45L202.92,24.15L207.35,25.06L212.41,22.88L218.55,22.19L219.62,23.54L220.92,23.03L222.71,23.58L223.08,25.71L226.87,25.12L228.65,25.67L229.3,27.33L230.62,27.44L231.6,26.17L233.69,27.02L245.57,22.76L249.58,24.16L251.84,25.92L255.37,26.1L258.06,27.55L261.74,27.88L265.41,32.36L267.32,36.74L271.1,39.98L270.67,44.6L268.93,45.12L270.33,47.53L274.02,48.32L280.45,52.25L288.54,57.5L290.22,59.74L294.72,62.97L296.77,62.75L300.53,65.84L303.47,66.36L315.88,74.39L322.69,76.78L327.46,79.55L327.8,81.07L330.02,81.92L329.92,83.3L331.71,84.63L332.4,87.82L335.98,90.17L339.17,89.15L340.52,90.18L341.68,89.99L342.94,88.11L344.81,87.13L347.92,88.27L348.92,87.78L349.84,89.13L357.19,90.44L359.17,88.08L360.23,89.27L362.71,89.2L364.6,88.68L366.01,86.8L373.43,85.51L373.39,84.13L374.26,83.8L373.49,82.75L449.05,80.52L710.28,75.25L988.52,73.3L993.2,78.2L994.81,81.72L996.27,82.18L997,87.54L999.49,88L1000.07,89.08L1002.26,89.99L1002.85,92.14L1005.48,93.82L1005.04,96.12L1008.83,100.87L1009.27,102.71L1014.38,103.02L1015.99,105.47L1017.45,105.63L1017.15,109.3L1018.17,110.99L1021.24,112.67L1027.21,118.5L1034.64,123.72L1035.37,126.48L1040.47,126.48L1042.51,131.08L1049.5,132.17L1049.79,134.16L1052.7,136.62L1053.43,137.08L1055.18,136.16L1058.82,139.24L1065.52,138.8L1067.85,140.49L1072.37,140.04L1078.05,141.59L1090.15,141.95L1091.03,140.42L1090.45,138.89L1093.52,137.37L1097.74,139.07L1098.33,137.24L1100.36,138.93L1106.62,140.65L1107.5,140.04L1107.07,138.66L1108.97,138.21L1110.27,140.05L1112.6,139.61L1115.8,142.23L1117.4,141.16L1118.27,142.09L1120.03,141.48L1121.77,141.95L1121.76,143.48L1120.16,143.78L1120.88,144.86L1123.8,144.26L1124.82,145.18L1125.41,143.81L1126.28,143.66L1128.17,143.98L1129.48,145.67L1132.53,146.76L1136.32,146.94L1140.11,145.89L1143.45,147.29L1145.06,146.54L1146.22,147.46L1146.95,147.32L1146.82,145.94L1147.4,145.79L1152.19,147.97L1156.13,147.84L1157.59,146.63L1157.6,145.4L1158.18,146.17L1161.53,146.96L1162.7,145.75L1163.72,146.52L1165.19,144.54L1171.17,144.28L1173.19,145.68L1175.78,149.83L1176.81,149.38L1175.94,148.76L1176.23,148.15L1178.71,148.63L1181,153.24L1182.31,153.87L1183.47,153.88L1185.54,150.83L1190.81,147.36L1198.66,149.88L1203.91,148.86L1205.54,146.73L1207.72,146.6L1211.79,148.32L1213.8,150.64L1218.47,150.53L1222.66,153.48L1226.92,150.31L1228.22,151.24L1231.71,151.74L1232.72,153.44L1234.45,154.37L1242.06,151.4L1243.83,149.27L1250.67,150.73L1251.98,150.29L1254.3,151.84L1256.67,148.2L1258.86,147.61L1261.76,149.49L1263.09,147.51L1266.16,147.24L1272.79,152.84L1274.69,152.25L1277.16,152.89L1279.18,154.45L1283.26,154.51L1286,156.38L1286.26,158.83L1287.54,160.99L1290.59,161.8L1291.47,161.2L1293.9,164.29L1296.95,165.1L1297.08,166.02L1299.99,166.52L1302.92,165.19L1303.19,166.87L1303.77,166.88L1304.38,164.9L1306.71,165.09L1307.7,166.63L1308.3,165.26L1310.48,165.91L1312.38,165.48L1317.15,167.54L1317.85,169.38L1319.87,170.64L1322.06,170.21L1323.07,171.15L1326.74,169.36L1327.46,169.83L1327.13,172.28L1329.03,171.54L1333.08,173.14L1334.95,175L1338.58,175.37L1344.57,174.08L1344.88,173.02L1343.72,172.39L1344.76,171.03L1344.34,169.95L1346.83,169.07L1347.7,169.54L1348.88,168.49L1350.33,168.82L1355.78,165.24L1359.43,164.38L1360.76,163.33L1364.68,164.16L1366.01,162.81L1372.13,162.61L1373.76,161.41L1376.07,162.22L1379.28,162.12L1381.65,160.02L1385.72,160.4L1387.63,159.67L1391.84,160.51L1394.77,159.49L1396.79,160.29L1399.93,164.03L1408.75,167.1L1410.9,168.98L1417.02,168.64L1418.45,170.2L1418.27,172.19L1424.36,173.22L1425.49,174.93L1839.94,102.62L1841.32,104.82L1842.9,105.5L1845.29,104.37L1851.22,105.83L1860.26,102.82L1869.69,104.73L1872.58,105.77L1878.1,110.13L1883.09,109.73L1884.8,114.4L1888.48,113.63L1891.53,114.21L1893.48,113.07L1894.9,110.52L1897.32,112L1898.56,110.37L1900.89,110.62L1902.41,109.3L1906.81,108.88L1909.57,109.45L1914.56,112.43L1917.68,111.18L1919.1,115.53L1924.32,113.15L1928.49,114.87L1931.72,114.55L1935.62,118.86L1940.77,118.16L1941.47,118.81L1940.39,120.29L1940.92,121.39L1945.7,119.15L1946.83,119.96L1949.06,125.73L1951.69,125.85L1953.49,124.7L1955.66,125.26L1956.15,127.43L1954.73,129.67L1954.96,131.21L1956.42,131.12L1956.81,128.99L1957.97,129.2L1958.42,132.13L1960.42,133.14L1961.01,136.39L1963.6,137.12L1964.07,139.59L1961.58,143.16L1961.83,143.93L1966.33,141.38L1967.2,141.57L1967.89,142.37L1967.65,144.5L1969.45,143.36L1971.12,145.27L1970.64,149.39L1972.37,149.93L1974.99,153.27L1980.8,153.84L1985.61,157.28L1984.84,158.01L1979.9,157.63L1971.27,154.78L1970.38,155.2L1968.3,159.25L1966.3,158.24L1964.09,161.82L1956.71,163.78L1954.3,162.14L1956.23,161.46L1956.03,159.46L1955.19,158.66L1949.01,162.98L1947.16,161.98L1947.79,160.93L1948.51,161.12L1948.43,159.74L1946.97,159.67L1946.01,161.62L1943.85,160.91L1944.39,158.79L1942.51,158.4L1942.25,157.47L1944.8,155.9L1943.82,155.09L1941.63,154.99L1940.67,156.94L1937.2,159.7L1936.98,158L1936.51,158.75L1934.2,158.19L1932.91,160.89L1931.17,160.66L1925.78,163.95L1925.07,163.31L1921.29,163.15L1917.32,167.27L1917.2,166.65L1914.4,167.29L1913.55,166.64L1914.07,168.2L1911.51,170.08L1910.48,170.34L1909.96,168.79L1908.82,168.28L1907.75,169.46L1907.85,170.54L1906.5,171.25L1906.57,173.09L1905.71,172.9L1905.8,174.13L1904.05,174.06L1902.61,177.06L1902.16,177.35L1901.78,176.1L1899.67,177.7L1897.62,177.92L1897.1,179.89L1895.18,180.58L1894.68,182.09L1892.18,182.6L1892.1,184.58L1890.49,184.67L1890.12,186.65L1889.55,186.32L1888.93,190.58L1887.47,190.67L1887.24,192.65L1884.71,194.08L1883.89,196.34L1881.46,195.02L1878.1,195.34L1877.46,193.17L1876.17,192.66L1875.52,194.31L1874.4,193.2L1874.64,194.43L1874.05,194.71L1872.38,192.81L1873.02,191.3L1870.59,190.28L1871.31,186.94L1868.9,185.16L1868.28,182.68L1866.7,182.01L1867.45,181.58L1867.27,178.81L1865.91,179.98L1862.54,176.78L1861.47,177.96L1860.22,176.53L1859.01,177.71L1857.19,175.8L1854.84,176.17L1853.17,177.94L1852,178.04L1848.62,182.35L1844.6,184.49L1843.41,188.88L1839.77,185.07L1836.54,185.86L1834.88,187.17L1831.31,185.5L1828.52,185.85L1828.63,186.93L1828.05,186.75L1826.51,188.99L1824.94,188.16L1825.45,190.02L1823.54,190.56L1821.8,194.02L1818.68,195.58L1815.04,199.58L1812.38,200.55L1807.63,198.99L1808.32,200.09L1807.49,202.66L1803.98,203.29L1804.23,204.22L1802.93,204.02L1802.61,204.77L1801.75,204.43L1802.01,205.21L1800.99,205.32L1800.49,207.14L1799.34,206.79L1799.3,207.71L1798.17,206.9L1798.26,208.44L1795.84,210.8L1794.24,210.74L1793.84,209.65L1790.97,212.76L1789.37,212.7L1787.84,214.79L1787.8,215.86L1789.63,217.46L1788.21,220.47L1787.35,220.13L1786.72,221.48L1783.81,221.38L1781.86,223.14L1781.29,222.81L1779.92,224.29L1780.17,225.53L1778.84,226.25L1779.08,227.63L1777.36,226.96L1776.22,230.28L1774.88,231L1774.77,230.23L1773.69,231.88L1772.84,231.23L1770.02,232.81L1770.68,234.68L1768.43,236.58L1768.83,237.67L1767.31,239.45L1765.7,239.7L1763.42,242.68L1762.11,242.63L1760.13,245.32L1757.93,245.85L1757.46,246.75L1754.44,246.03L1752.09,246.72L1751.43,249.14L1748.09,253.16L1746.79,252.96L1742.02,256.46L1738.72,255.43L1735.18,253.01L1735.9,248.91L1734.47,248.24L1733.4,245.6L1734.95,242.75L1734.63,239.37L1733.05,238.86L1733.57,236.43L1735.04,236.02L1733.69,232.91L1734.49,230.79L1733.04,230.74L1731.49,229.31L1731.53,228.09L1730.35,228.51L1730.96,227.76L1730.12,226.97L1731.21,224.71L1730.09,223.6L1730.26,222.69L1729.53,222.82L1730.02,221.3L1729.47,220.36L1726.87,219.82L1727.33,219.07L1726.62,218.58L1727.23,217.99L1726.21,217.96L1726.56,216.13L1723.22,216.02L1722.18,216.75L1720.5,214.7L1719.77,214.98L1718.96,213.12L1719.29,211.9L1718.3,211.1L1717.7,211.7L1715.72,209.95L1715.09,211.3L1713.83,209.88L1711.92,210.58L1712.71,208.62L1712.15,207.99L1713.03,207.56L1712.82,205.26L1710.85,203.35L1710.11,203.63L1709.81,199.64L1707.67,198.35L1707.74,196.21L1706.57,196.47L1705.45,195.06L1705.9,194.46L1704.68,191.97L1703.22,191.92L1701.81,190.65L1701.34,187.11L1702.39,186.38L1702.8,187.01L1703.56,186.11L1701.53,185.74L1701.59,184.06L1699.84,184.15L1699.72,183.23L1701.08,181.9L1699.25,179.85L1700.02,178.65L1698.4,179.05L1698.28,178.28L1669.33,177.36L1428.96,219.69L1363.03,218.47L1353.45,780.66L1212.05,778.73L1202.02,1760.21L1198.38,1759.87L1190.67,1762.7L1185.7,1762.19L1183.92,1764.32L1181.49,1764.91L1180.54,1766.59L1180.66,1768.12L1178.06,1771.78L1176.85,1772.22L1172.55,1771.27L1170.01,1769.25L1166.91,1768.77L1164.62,1769.82L1161.22,1773.62L1157.98,1774.21L1157.3,1775.58L1151.8,1772.48L1150.05,1772.77L1146.26,1775.19L1143.17,1775.17L1140.86,1777.45L1141.12,1778.83L1139.47,1784.03L1135.15,1786.15L1133.45,1797.94L1130.06,1802.2L1121.16,1806.9L1119.28,1806.43L1114.57,1807.78L1108.13,1806.06L1104.36,1807.11L1102.61,1808.79L1099.33,1818.43L1102.78,1827.18L1105.33,1827.66L1106.93,1829.51L1105.43,1833.18L1100.07,1832.23L1098.45,1833.14L1093.59,1838.94L1087.95,1841.22L1085.4,1841.05L1082.31,1842.27L1076.81,1840.56L1072.8,1836.4L1068.38,1836.08L1066.25,1829.63L1063.44,1827.02L1061.96,1827.01L1058.61,1825.01L1054.45,1824.84L1047.61,1822.99L1046.66,1823.75L1043.44,1822.82L1042.1,1823.43L1039.28,1822.51L1037.4,1822.97L1030.82,1821.11L1025.31,1822.64L1017.26,1822.48L1013.63,1824.77L1009.6,1824.77L1004.5,1826.61L1001.95,1829.83L996.17,1828.91L989.73,1831.67L981.68,1830.3L980.06,1828.61L973.62,1829.23L968.25,1828.32L966.24,1831.24L962.61,1830.63L958.19,1834.01L954.7,1831.11L953.08,1830.5L950.4,1830.96L945.56,1827.6L943.54,1827L940.99,1828.08L939.11,1827.62L931.69,1817.38L930.48,1817.23L927.92,1814.02L924.56,1814.64L922.27,1810.97L921.19,1810.98L920.39,1812.05L916.76,1810.84L909.77,1810.41L908.82,1809.5L903.45,1809.98L899.54,1807.24L898.2,1807.71L896.87,1810.32L895.66,1810.33L894.03,1808.19L892.28,1808.2L889.75,1811.43L885.46,1812.53L881.69,1811.17L880.46,1808.88L880.85,1805.51L879.75,1801.84L877.72,1799.55L875.29,1799.1L872.88,1799.73L871.54,1801.43L863.47,1800.56L862.14,1802.1L860.52,1801.66L855.03,1804.91L853.68,1803.7L854.46,1800.78L854.03,1796.95L855.76,1794.64L856.25,1787.89L855.43,1786.21L856.35,1782.07L855.66,1781L853.78,1780.4L850.56,1781.65L849.34,1781.35L849.04,1776.76L847.39,1772.18L843.87,1770.06L842.9,1767L845.01,1761.47L849.73,1761.13L850.8,1760.35L853.32,1754.97L853.7,1751.75L852.46,1748.7L848.51,1743.37L849.29,1739.53L847.79,1736.94L846.57,1736.33L845.6,1732.67L842.73,1728.86L839.36,1728.58L835.2,1731.83L832.23,1730.78L828.6,1732.81L826.71,1732.36L823.98,1729.32L822.19,1725.66L823.98,1714.47L823.41,1710.95L822.19,1709.74L816.24,1708.87L815.14,1707.66L814.44,1704.76L808.58,1699.61L804.28,1702.1L800.23,1702.6L797.57,1706.3L795.38,1704.18L793.76,1703.74L791.22,1706.37L787.02,1705.34L783.65,1706.29L781.4,1710.15L782.65,1713.04L782.68,1716.1L781.89,1717.8L782.47,1721.31L780.19,1722.72L779.23,1721.35L776.38,1720L774.63,1720.48L774.66,1722.93L778.06,1725.8L778.21,1727.33L775.12,1728.29L772.28,1727.71L771.08,1728.95L771.64,1730.62L774.22,1732.43L773.73,1736.73L770.77,1737.07L767.64,1734.65L765.08,1735.45L764.32,1738.98L764.75,1741.27L768.02,1744.15L769.55,1748.11L772,1750.23L766.81,1755.65L766.56,1757.64L767.96,1762.38L766.91,1764.38L765.03,1765.32L762.27,1770.72L760.94,1771.65L757.83,1771.23L757.4,1768.63L756.03,1767.12L754.02,1767.45L747.07,1771.83L746.03,1774.9L743.23,1777.24L728.22,1782.04L725.18,1785.91L724.73,1792.51L713.73,1785.46L707.19,1779.89L698.16,1770.37L692.66,1763.25L667.72,1737.76L637.15,1711.5L623.49,1696.59L619.6,1691L618.04,1687.2L619.37,1686.26L619.18,1683.05L614.74,1677.62L614.01,1675.03L610.81,1670.66L600.31,1659.84L600.55,1658.62L598.2,1655.91L597.74,1653.62L598.39,1652.08L596.42,1648.29L597.57,1645.21L595.45,1640.96L587.95,1632.09L588.88,1631.46L588.59,1630.09L586.92,1628.13L582.24,1618.44L575.32,1612.62L573.56,1606.53L571.36,1604.9L570.35,1602.32L568.7,1601.59L566.84,1597.19L564.48,1594.64L562.31,1582.76L560.35,1580.2L559.45,1576.4L560.06,1573.02L560.99,1572.08L557.63,1561.76L558.71,1561.27L558.37,1558.38L555.43,1554.62L554.98,1552.95L554.6,1548.06L555.52,1546.21L555.94,1540.69L554.61,1536.13L552.09,1533.13L550.03,1532.57L548.7,1534.13L546.61,1531.88L544.97,1531.92L543.44,1530.58L544.71,1526.57L543.46,1525.38L544.27,1524.9L544.1,1523.37L542.75,1524.17L541.46,1521.6L542.1,1519.75L540.88,1519.93L540.12,1516.43L539.18,1517.07L538.75,1516.16L538.25,1512.35L537,1511.61L536.7,1510.4L537.62,1508.69L537.42,1505.95L534.82,1505.55L533.3,1499.32L533.04,1493.67L534.64,1492.25L534.19,1490.28L536.82,1492.05L538.84,1490.78L539.48,1488.78L540.77,1491.5L539.72,1493.21L541.88,1498.05L542.95,1496.95L542.22,1494.98L543.43,1494.34L543.28,1493.74L542.33,1493.91L542.65,1490.08L543.09,1491.3L543.9,1490.82L544.95,1489.11L544.63,1486.83L546.11,1485.88L545.33,1481.77L542.74,1481.98L541.75,1480.32L540.97,1470.25L538.3,1467.1L538.68,1466.02L536.84,1463.01L538.2,1462.98L538.16,1460.99L534.66,1457.56L533.35,1454.38L526.53,1449.5L522.51,1447.45L518.38,1446.48L513.87,1441.09L514.93,1439.84L513.9,1436.96L513.93,1432.38L514.88,1432.05L513.97,1428.25L515.7,1426.07L515.64,1423.78L516.32,1423.31L510.64,1415.2L511.56,1413.95L513.67,1415.73L516.09,1413.84L517.25,1410.91L517.1,1404.35L514.18,1397.08L514.39,1394.79L513.52,1392.67L507.1,1382.74L506.14,1377.12L507.11,1371.9L504.39,1367.38L499.61,1363.22L499.57,1361.55L497.17,1359.31L495.14,1354.94L495.51,1353.25L496.75,1353.52L497.96,1352.42L497.89,1349.37L496.15,1345.9L496.18,1341.78L498.18,1333.48L502.03,1327.43L501.95,1324.23L499.02,1317.43L495.46,1312.63L496.29,1307.42L491.57,1300.66L490.94,1297.63L491.46,1290.9L489.83,1286.36L491.16,1284.19L493.14,1275.28L495.26,1271.56L494.96,1265.16L495.83,1261.32L499.42,1255.28L498.94,1252.7L487.27,1228.57L486.9,1219.42L487.66,1216.65L483.38,1206.23L477.45,1196.76L458.42,1174.37L458.75,1171.31L460.6,1167.9L461.06,1164.08L460.06,1158L445.16,1126.05L436.74,1098.2L436.4,1085.85L438.63,1080.76L441.49,1078.24L443.58,1078.03L444.63,1075.56L443.48,1069.18L443.8,1065.66L442.7,1061.27L443.19,1058.51L441.66,1053.67L442.27,1050.6L441.73,1041L443.1,1034.71L440.49,1026.24L431.78,1004.66L430.91,998.43L432.08,995.04L433.61,994.69L434.24,997.12L432.88,1003.87L434.96,1003.05L433.63,1005.68L435.06,1006.55L436.25,1009.12L437.81,1015.02L436.71,1000.56L439.84,997.12L440.28,987.65L437.14,975.22L428.84,953.94L424.93,939.86L425.52,930.69L426.18,929.15L428.93,926.94L429.02,919.92L430.37,918.05L431.08,918.33L429.26,923.72L430.17,926.14L429.5,927.07L428.85,934.26L430.94,933.59L432.01,931.73L434.83,931.96L432.84,941.47L434.79,935.62L436.82,932.97L435.8,931.63L436.03,929.64L436.35,931.16L438.56,929.72L443.31,923.64L443.82,921.49L443.33,913.73L444.02,908.37L442.93,904.13L440.55,899.46L441.71,895.77L440.35,892.15L441.13,884.5L440.01,879.49L437.62,874.68L438.4,872.37L438.05,869.63L434.9,862.7L430.78,856.4L429.64,850.79L425.88,842.5L425.06,838.1L420.56,828.77L409.94,817.78L405.23,811.2L404.9,809.53L405.7,807.68L405.09,806.32L390.88,789.19L384.75,782.96L380.3,776.07L373.17,769.42L372.53,767.15L369.9,764.48L355.66,753.02L359.78,748.46L359.22,744.36L345.02,725.42L341.44,715.46L341.77,712.55L335.87,705.72L332.82,699.1L324.87,690.65L323.48,687.04L318.64,682.46L316.07,677.97L315.99,675.53L299.3,657.15L296.38,650.84L295.45,644.46L286.93,632.69L281.89,627.06L281.09,624.64L275.32,618.73L269.32,606.27L269.91,602.73L267.33,594.27L267.06,590.46L262.18,577.65L249.23,555.51L249.65,547.25L247.68,539.99L247.37,535.57L241.72,525.84L242.01,522.01L240.17,518.56L235.25,513.39L232.81,509.51L227.63,504.96L223.08,502.38L219.34,498.09L218.31,493.54L216.95,491.91L215.68,484.63L212.83,481.52L203.58,464.75L199.59,454.21L192.16,444.25L188.62,434.6L181.14,423.58L175.96,412.62L169.25,403.25L164.85,394.25L165.1,389.65L162.99,383.62L158.74,378.28L152.09,367.38L150.25,361.03L148.23,357.44L146.41,355.52L143.44,349.83L131.75,339.9L129.6,336.78L129.66,334.79L126.66,324.97L115.73,312.87L115.51,311.05L107.12,300.99L106.29,298.58L66.66,267.37L62.89,264.17L60.86,261.04L59.81,256.95L57.51,254.15L57.34,247.11L56.47,243.93L49.78,233.97L50.7,231.78L49.81,228.15L46.06,222.34L39.61,214.82L34.03,210.48L33.15,207.15L30.79,203.42L29.19,193.69L26.48,188.6L25.43,184.82L24.91,173.5L21.42,164.01L21.26,160.64L19,155.84L19.29,152.76L17.75,147.77L17.35,142.12L14.85,135.49L14.67,131.67L12.97,126.38L13.09,109.96L12.47,106.01L13.3,101.83L13.19,96.31L14.52,93.49L13.44,88.94L13.7,81.87L12.34,74.57Z" fill-rule="evenodd" fill="#4682b4" fill-opacity="0.471"/>
<polyline points="12.34,74.57 15.9,75.63 19.08,77.94 19.63,76.99 22.38,76.41 25.11,71.83 27.93,72.63 28.45,71.38 31.76,70 32.97,67.49 37.69,64.98 39.8,62.89 47.91,60.84 53.34,57.53 57.46,57.96 60.16,55.85 63.36,58.62 65.09,58.09 67.19,59.22 72.14,58.4 74.29,60.61 75.29,63.32 77.05,63.55 79.53,66.67 81,66.76 82.5,67.62 83.31,69.27 85.53,69.79 87.52,68.48 90.51,69.88 92.07,68.59 96.58,67.79 100.02,65.95 102.89,68.13 105.28,65.73 106.17,66 106.67,63.99 108.12,63.62 109.92,64.62 110.62,63.82 112.63,66.35 112.14,68.67 113.22,70.01 112.85,71.71 114.63,72.25 115.02,70.85 118.23,70.57 118.88,68.7 120.97,69.53 125.79,69.34 126.79,68.53 128.13,69.24 128.52,67.85 131.32,68.35 133.43,66.11 135.95,66.93 136.94,65.97 137.39,66.41 138.14,63.01 142.89,60.98 143.71,59.41 146.98,56.98 148.17,57.39 150.47,56.23 152.97,56.44 152.91,54.9 155.79,53.56 155.9,52.64 159.22,51.44 162.19,48.71 165.96,47.49 168.41,42.79 170.32,42.87 171.58,41.29 175.33,39.61 175.37,36.7 178.13,36.13 181.65,32.31 186.18,31.83 185.7,30.78 188.18,30.38 188.81,27.59 191.1,26.12 197.81,24.95 200.91,25.45 202.92,24.15 207.35,25.06 212.41,22.88 218.55,22.19 219.62,23.54 220.92,23.03 222.71,23.58 223.08,25.71 226.87,25.12 228.65,25.67 229.3,27.33 230.62,27.44 231.6,26.17 233.69,27.02 245.57,22.76 249.58,24.16 251.84,25.92 255.37,26.1 258.06,27.55 261.74,27.88 265.41,32.36 267.32,36.74 271.1,39.98 270.67,44.6 268.93,45.12 270.33,47.53 274.02,48.32 280.45,52.25 288.54,57.5 290.22,59.74 294.72,62.97 296.77,62.75 300.53,65.84 303.47,66.36 315.88,74.39 322.69,76.78 327.46,79.55 327.8,81.07 330.02,81.92 329.92,83.3 331.71,84.63 332.4,87.82 335.98,90.17 339.17,89.15 340.52,90.18 341.68,89.99 342.94,88.11 344.81,87.13 347.92,88.27 348.92,87.78 349.84,89.13 357.19,90.44 359.17,88.08 360.23,89.27 362.71,89.2 364.6,88.68 366.01,86.8 373.43,85.51 373.39,84.13 374.26,83.8 373.49,82.75 449.05,80.52 710.28,75.25 988.52,73.3 993.2,78.2 994.81,81.72 996.27,82.18 997,87.54 999.49,88 1000.07,89.08 1002.26,89.99 1002.85,92.14 1005.48,93.82 1005.04,96.12 1008.83,100.87 1009.27,102.71 1014.38,103.02 1015.99,105.47 1017.45,105.63 1017.15,109.3 1018.17,110.99 1021.24,112.67 1027.21,118.5 1034.64,123.72 1035.37,126.48 1040.47,126.48 1042.51,131.08 1049.5,132.17 1049.79,134.16 1052.7,136.62 1053.43,137.08 1055.18,136.16 1058.82,139.24 1065.52,138.8 1067.85,140.49 1072.37,140.04 1078.05,141.59 1090.15,141.95 1091.03,140.42 1090.45,138.89 1093.52,137.37 1097.74,139.07 1098.33,137.24 1100.36,138.93 1106.62,140.65 1107.5,140.04 1107.07,138.66 1108.97,138.21 1110.27,140.05 1112.6,139.61 1115.8,142.23 1117.4,141.16 1118.27,142.09 1120.03,141.48 1121.77,141.95 1121.76,143.48 1120.16,143.78 1120.88,144.86 1123.8,144.26 1124.82,145.18 1125.41,143.81 1126.28,143.66 1128.17,143.98 1129.48,145.67 1132.53,146.76 1136.32,146.94 1140.11,145.89 1143.45,147.29 1145.06,146.54 1146.22,147.46 1146.95,147.32 1146.82,145.94 1147.4,145.79 1152.19,147.97 1156.13,147.84 1157.59,146.63 1157.6,145.4 1158.18,146.17 1161.53,146.96 1162.7,145.75 1163.72,146.52 1165.19,144.54 1171.17,144.28 1173.19,145.68 1175.78,149.83 1176.81,149.38 1175.94,148.76 1176.23,148.15 1178.71,148.63 1181,153.24 1182.31,153.87 1183.47,153.88 1185.54,150.83 1190.81,147.36 1198.66,149.88 1203.91,148.86 1205.54,146.73 1207.72,146.6 1211.79,148.32 1213.8,150.64 1218.47,150.53 1222.66,153.48 1226.92,150.31 1228.22,151.24 1231.71,151.74 1232.72,153.44 1234.45,154.37 1242.06,151.4 1243.83,149.27 1250.67,150.73 1251.98,150.29 1254.3,151.84 1256.67,148.2 1258.86,147.61 1261.76,149.49 1263.09,147.51 1266.16,147.24 1272.79,152.84 1274.69,152.25 1277.16,152.89 1279.18,154.45 1283.26,154.51 1286,156.38 1286.26,158.83 1287.54,160.99 1290.59,161.8 1291.47,161.2 1293.9,164.29 1296.95,165.1 1297.08,166.02 1299.99,166.52 1302.92,165.19 1303.19,166.87 1303.77,166.88 1304.38,164.9 1306.71,165.09 1307.7,166.63 1308.3,165.26 1310.48,165.91 1312.38,165.48 1317.15,167.54 1317.85,169.38 1319.87,170.64 1322.06,170.21 1323.07,171.15 1326.74,169.36 1327.46,169.83 1327.13,172.28 1329.03,171.54 1333.08,173.14 1334.95,175 1338.58,175.37 1344.57,174.08 1344.88,173.02 1343.72,172.39 1344.76,171.03 1344.34,169.95 1346.83,169.07 1347.7,169.54 1348.88,168.49 1350.33,168.82 1355.78,165.24 1359.43,164.38 1360.76,163.33 1364.68,164.16 1366.01,162.81 1372.13,162.61 1373.76,161.41 1376.07,162.22 1379.28,162.12 1381.65,160.02 1385.72,160.4 1387.63,159.67 1391.84,160.51 1394.77,159.49 1396.79,160.29 1399.93,164.03 1408.75,167.1 1410.9,168.98 1417.02,168.64 1418.45,170.2 1418.27,172.19 1424.36,173.22 1425.49,174.93 1839.94,102.62 1841.32,104.82 1842.9,105.5 1845.29,104.37 1851.22,105.83 1860.26,102.82 1869.69,104.73 1872.58,105.77 1878.1,110.13 1883.09,109.73 1884.8,114.4 1888.48,113.63 1891.53,114.21 1893.48,113.07 1894.9,110.52 1897.32,112 1898.56,110.37 1900.89,110.62 1902.41,109.3 1906.81,108.88 1909.57,109.45 1914.56,112.43 1917.68,111.18 1919.1,115.53 1924.32,113.15 1928.49,114.87 1931.72,114.55 1935.62,118.86 1940.77,118.16 1941.47,118.81 1940.39,120.29 1940.92,121.39 1945.7,119.15 1946.83,119.96 1949.06,125.73 1951.69,125.85 1953.49,124.7 1955.66,125.26 1956.15,127.43 1954.73,129.67 1954.96,131.21 1956.42,131.12 1956.81,128.99 1957.97,129.2 1958.42,132.13 1960.42,133.14 1961.01,136.39 1963.6,137.12 1964.07,139.59 1961.58,143.16 1961.83,143.93 1966.33,141.38 1967.2,141.57 1967.89,142.37 1967.65,144.5 1969.45,143.36 1971.12,145.27 1970.64,149.39 1972.37,149.93 1974.99,153.27 1980.8,153.84 1985.61,157.28 1984.84,158.01 1979.9,157.63 1971.27,154.78 1970.38,155.2 1968.3,159.25 1966.3,158.24 1964.09,161.82 1956.71,163.78 1954.3,162.14 1956.23,161.46 1956.03,159.46 1955.19,158.66 1949.01,162.98 1947.16,161.98 1947.79,160.93 1948.51,161.12 1948.43,159.74 1946.97,159.67 1946.01,161.62 1943.85,160.91 1944.39,158.79 1942.51,158.4 1942.25,157.47 1944.8,155.9 1943.82,155.09 1941.63,154.99 1940.67,156.94 1937.2,159.7 1936.98,158 1936.51,158.75 1934.2,158.19 1932.91,160.89 1931.17,160.66 1925.78,163.95 1925.07,163.31 1921.29,163.15 1917.32,167.27 1917.2,166.65 1914.4,167.29 1913.55,166.64 1914.07,168.2 1911.51,170.08 1910.48,170.34 1909.96,168.79 1908.82,168.28 1907.75,169.46 1907.85,170.54 1906.5,171.25 1906.57,173.09 1905.71,172.9 1905.8,174.13 1904.05,174.06 1902.61,177.06 1902.16,177.35 1901.78,176.1 1899.67,177.7 1897.62,177.92 1897.1,179.89 1895.18,180.58 1894.68,182.09 1892.18,182.6 1892.1,184.58 1890.49,184.67 1890.12,186.65 1889.55,186.32 1888.93,190.58 1887.47,190.67 1887.24,192.65 1884.71,194.08 1883.89,196.34 1881.46,195.02 1878.1,195.34 1877.46,193.17 1876.17,192.66 1875.52,194.31 1874.4,193.2 1874.64,194.43 1874.05,194.71 1872.38,192.81 1873.02,191.3 1870.59,190.28 1871.31,186.94 1868.9,185.16 1868.28,182.68 1866.7,182.01 1867.45,181.58 1867.27,178.81 1865.91,179.98 1862.54,176.78 1861.47,177.96 1860.22,176.53 1859.01,177.71 1857.19,175.8 1854.84,176.17 1853.17,177.94 1852,178.04 1848.62,182.35 1844.6,184.49 1843.41,188.88 1839.77,185.07 1836.54,185.86 1834.88,187.17 1831.31,185.5 1828.52,185.85 1828.63,186.93 1828.05,186.75 1826.51,188.99 1824.94,188.16 1825.45,190.02 1823.54,190.56 1821.8,194.02 1818.68,195.58 1815.04,199.58 1812.38,200.55 1807.63,198.99 1808.32,200.09 1807.49,202.66 1803.98,203.29 1804.23,204.22 1802.93,204.02 1802.61,204.77 1801.75,204.43 1802.01,205.21 1800.99,205.32 1800.49,207.14 1799.34,206.79 1799.3,207.71 1798.17,206.9 1798.26,208.44 1795.84,210.8 1794.24,210.74 1793.84,209.65 1790.97,212.76 1789.37,212.7 1787.84,214.79 1787.8,215.86 1789.63,217.46 1788.21,220.47 1787.35,220.13 1786.72,221.48 1783.81,221.38 1781.86,223.14 1781.29,222.81 1779.92,224.29 1780.17,225.53 1778.84,226.25 1779.08,227.63 1777.36,226.96 1776.22,230.28 1774.88,231 1774.77,230.23 1773.69,231.88 1772.84,231.23 1770.02,232.81 1770.68,234.68 1768.43,236.58 1768.83,237.67 1767.31,239.45 1765.7,239.7 1763.42,242.68 1762.11,242.63 1760.13,245.32 1757.93,245.85 1757.46,246.75 1754.44,246.03 1752.09,246.72 1751.43,249.14 1748.09,253.16 1746.79,252.96 1742.02,256.46 1738.72,255.43 1735.18,253.01 1735.9,248.91 1734.47,248.24 1733.4,245.6 1734.95,242.75 1734.63,239.37 1733.05,238.86 1733.57,236.43 1735.04,236.02 1733.69,232.91 1734.49,230.79 1733.04,230.74 1731.49,229.31 1731.53,228.09 1730.35,228.51 1730.96,227.76 1730.12,226.97 1731.21,224.71 1730.09,223.6 1730.26,222.69 1729.53,222.82 1730.02,221.3 1729.47,220.36 1726.87,219.82 1727.33,219.07 1726.62,218.58 1727.23,217.99 1726.21,217.96 1726.56,216.13 1723.22,216.02 1722.18,216.75 1720.5,214.7 1719.77,214.98 1718.96,213.12 1719.29,211.9 1718.3,211.1 1717.7,211.7 1715.72,209.95 1715.09,211.3 1713.83,209.88 1711.92,210.58 1712.71,208.62 1712.15,207.99 1713.03,207.56 1712.82,205.26 1710.85,203.35 1710.11,203.63 1709.81,199.64 1707.67,198.35 1707.74,196.21 1706.57,196.47 1705.45,195.06 1705.9,194.46 1704.68,191.97 1703.22,191.92 1701.81,190.65 1701.34,187.11 1702.39,186.38 1702.8,187.01 1703.56,186.11 1701.53,185.74 1701.59,184.06 1699.84,184.15 1699.72,183.23 1701.08,181.9 1699.25,179.85 1700.02,178.65 1698.4,179.05 1698.28,178.28 1669.33,177.36 1428.96,219.69 1363.03,218.47 1353.45,780.66 1212.05,778.73 1202.02,1760.21 1198.38,1759.87 1190.67,1762.7 1185.7,1762.19 1183.92,1764.32 1181.49,1764.91 1180.54,1766.59 1180.66,1768.12 1178.06,1771.78 1176.85,1772.22 1172.55,1771.27 1170.01,1769.25 1166.91,1768.77 1164.62,1769.82 1161.22,1773.62 1157.98,1774.21 1157.3,1775.58 1151.8,1772.48 1150.05,1772.77 1146.26,1775.19 1143.17,1775.17 1140.86,1777.45 1141.12,1778.83 1139.47,1784.03 1135.15,1786.15 1133.45,1797.94 1130.06,1802.2 1121.16,1806.9 1119.28,1806.43 1114.57,1807.78 1108.13,1806.06 1104.36,1807.11 1102.61,1808.79 1099.33,1818.43 1102.78,1827.18 1105.33,1827.66 1106.93,1829.51 1105.43,1833.18 1100.07,1832.23 1098.45,1833.14 1093.59,1838.94 1087.95,1841.22 1085.4,1841.05 1082.31,1842.27 1076.81,1840.56 1072.8,1836.4 1068.38,1836.08 1066.25,1829.63 1063.44,1827.02 1061.96,1827.01 1058.61,1825.01 1054.45,1824.84 1047.61,1822.99 1046.66,1823.75 1043.44,1822.82 1042.1,1823.43 1039.28,1822.51 1037.4,1822.97 1030.82,1821.11 1025.31,1822.64 1017.26,1822.48 1013.63,1824.77 1009.6,1824.77 1004.5,1826.61 1001.95,1829.83 996.17,1828.91 989.73,1831.67 981.68,1830.3 980.06,1828.61 973.62,1829.23 968.25,1828.32 966.24,1831.24 962.61,1830.63 958.19,1834.01 954.7,1831.11 953.08,1830.5 950.4,1830.96 945.56,1827.6 943.54,1827 940.99,1828.08 939.11,1827.62 931.69,1817.38 930.48,1817.23 927.92,1814.02 924.56,1814.64 922.27,1810.97 921.19,1810.98 920.39,1812.05 916.76,1810.84 909.77,1810.41 908.82,1809.5 903.45,1809.98 899.54,1807.24 898.2,1807.71 896.87,1810.32 895.66,1810.33 894.03,1808.19 892.28,1808.2 889.75,1811.43 885.46,1812.53 881.69,1811.17 880.46,1808.88 880.85,1805.51 879.75,1801.84 877.72,1799.55 875.29,1799.1 872.88,1799.73 871.54,1801.43 863.47,1800.56 862.14,1802.1 860.52,1801.66 855.03,1804.91 853.68,1803.7 854.46,1800.78 854.03,1796.95 855.76,1794.64 856.25,1787.89 855.43,1786.21 856.35,1782.07 855.66,1781 853.78,1780.4 850.56,1781.65 849.34,1781.35 849.04,1776.76 847.39,1772.18 843.87,1770.06 842.9,1767 845.01,1761.47 849.73,1761.13 850.8,1760.35 853.32,1754.97 853.7,1751.75 852.46,1748.7 848.51,1743.37 849.29,1739.53 847.79,1736.94 846.57,1736.33 845.6,1732.67 842.73,1728.86 839.36,1728.58 835.2,1731.83 832.23,1730.78 828.6,1732.81 826.71,1732.36 823.98,1729.32 822.19,1725.66 823.98,1714.47 823.41,1710.95 822.19,1709.74 816.24,1708.87 815.14,1707.66 814.44,1704.76 808.58,1699.61 804.28,1702.1 800.23,1702.6 797.57,1706.3 795.38,1704.18 793.76,1703.74 791.22,1706.37 787.02,1705.34 783.65,1706.29 781.4,1710.15 782.65,1713.04 782.68,1716.1 781.89,1717.8 782.47,1721.31 780.19,1722.72 779.23,1721.35 776.38,1720 774.63,1720.48 774.66,1722.93 778.06,1725.8 778.21,1727.33 775.12,1728.29 772.28,1727.71 771.08,1728.95 771.64,1730.62 774.22,1732.43 773.73,1736.73 770.77,1737.07 767.64,1734.65 765.08,1735.45 764.32,1738.98 764.75,1741.27 768.02,1744.15 769.55,1748.11 772,1750.23 766.81,1755.65 766.56,1757.64 767.96,1762.38 766.91,1764.38 765.03,1765.32 762.27,1770.72 760.94,1771.65 757.83,1771.23 757.4,1768.63 756.03,1767.12 754.02,1767.45 747.07,1771.83 746.03,1774.9 743.23,1777.24 728.22,1782.04 725.18,1785.91 724.73,1792.51 713.73,1785.46 707.19,1779.89 698.16,1770.37 692.66,1763.25 667.72,1737.76 637.15,1711.5 623.49,1696.59 619.6,1691 618.04,1687.2 619.37,1686.26 619.18,1683.05 614.74,1677.62 614.01,1675.03 610.81,1670.66 600.31,1659.84 600.55,1658.62 598.2,1655.91 597.74,1653.62 598.39,1652.08 596.42,1648.29 597.57,1645.21 595.45,1640.96 587.95,1632.09 588.88,1631.46 588.59,1630.09 586.92,1628.13 582.24,1618.44 575.32,1612.62 573.56,1606.53 571.36,1604.9 570.35,1602.32 568.7,1601.59 566.84,1597.19 564.48,1594.64 562.31,1582.76 560.35,1580.2 559.45,1576.4 560.06,1573.02 560.99,1572.08 557.63,1561.76 558.71,1561.27 558.37,1558.38 555.43,1554.62 554.98,1552.95 554.6,1548.06 555.52,1546.21 555.94,1540.69 554.61,1536.13 552.09,1533.13 550.03,1532.57 548.7,1534.13 546.61,1531.88 544.97,1531.92 543.44,1530.58 544.71,1526.57 543.46,1525.38 544.27,1524.9 544.1,1523.37 542.75,1524.17 541.46,1521.6 542.1,1519.75 540.88,1519.93 540.12,1516.43 539.18,1517.07 538.75,1516.16 538.25,1512.35 537,1511.61 536.7,1510.4 537.62,1508.69 537.42,1505.95 534.82,1505.55 533.3,1499.32 533.04,1493.67 534.64,1492.25 534.19,1490.28 536.82,1492.05 538.84,1490.78 539.48,1488.78 540.77,1491.5 539.72,1493.21 541.88,1498.05 542.95,1496.95 542.22,1494.98 543.43,1494.34 543.28,1493.74 542.33,1493.91 542.65,1490.08 543.09,1491.3 543.9,1490.82 544.95,1489.11 544.63,1486.83 546.11,1485.88 545.33,1481.77 542.74,1481.98 541.75,1480.32 540.97,1470.25 538.3,1467.1 538.68,1466.02 536.84,1463.01 538.2,1462.98 538.16,1460.99 534.66,1457.56 533.35,1454.38 526.53,1449.5 522.51,1447.45 518.38,1446.48 513.87,1441.09 514.93,1439.84 513.9,1436.96 513.93,1432.38 514.88,1432.05 513.97,1428.25 515.7,1426.07 515.64,1423.78 516.32,1423.31 510.64,1415.2 511.56,1413.95 513.67,1415.73 516.09,1413.84 517.25,1410.91 517.1,1404.35 514.18,1397.08 514.39,1394.79 513.52,1392.67 507.1,1382.74 506.14,1377.12 507.11,1371.9 504.39,1367.38 499.61,1363.22 499.57,1361.55 497.17,1359.31 495.14,1354.94 495.51,1353.25 496.75,1353.52 497.96,1352.42 497.89,1349.37 496.15,1345.9 496.18,1341.78 498.18,1333.48 502.03,1327.43 501.95,1324.23 499.02,1317.43 495.46,1312.63 496.29,1307.42 491.57,1300.66 490.94,1297.63 491.46,1290.9 489.83,1286.36 491.16,1284.19 493.14,1275.28 495.26,1271.56 494.96,1265.16 495.83,1261.32 499.42,1255.28 498.94,1252.7 487.27,1228.57 486.9,1219.42 487.66,1216.65 483.38,1206.23 477.45,1196.76 458.42,1174.37 458.75,1171.31 460.6,1167.9 461.06,1164.08 460.06,1158 445.16,1126.05 436.74,1098.2 436.4,1085.85 438.63,1080.76 441.49,1078.24 443.58,1078.03 444.63,1075.56 443.48,1069.18 443.8,1065.66 442.7,1061.27 443.19,1058.51 441.66,1053.67 442.27,1050.6 441.73,1041 443.1,1034.71 440.49,1026.24 431.78,1004.66 430.91,998.43 432.08,995.04 433.61,994.69 434.24,997.12 432.88,1003.87 434.96,1003.05 433.63,1005.68 435.06,1006.55 436.25,1009.12 437.81,1015.02 436.71,1000.56 439.84,997.12 440.28,987.65 437.14,975.22 428.84,953.94 424.93,939.86 425.52,930.69 426.18,929.15 428.93,926.94 429.02,919.92 430.37,918.05 431.08,918.33 429.26,923.72 430.17,926.14 429.5,927.07 428.85,934.26 430.94,933.59 432.01,931.73 434.83,931.96 432.84,941.47 434.79,935.62 436.82,932.97 435.8,931.63 436.03,929.64 436.35,931.16 438.56,929.72 443.31,923.64 443.82,921.49 443.33,913.73 444.02,908.37 442.93,904.13 440.55,899.46 441.71,895.77 440.35,892.15 441.13,884.5 440.01,879.49 437.62,874.68 438.4,872.37 438.05,869.63 434.9,862.7 430.78,856.4 429.64,850.79 425.88,842.5 425.06,838.1 420.56,828.77 409.94,817.78 405.23,811.2 404.9,809.53 405.7,807.68 405.09,806.32 390.88,789.19 384.75,782.96 380.3,776.07 373.17,769.42 372.53,767.15 369.9,764.48 355.66,753.02 359.78,748.46 359.22,744.36 345.02,725.42 341.44,715.46 341.77,712.55 335.87,705.72 332.82,699.1 324.87,690.65 323.48,687.04 318.64,682.46 316.07,677.97 315.99,675.53 299.3,657.15 296.38,650.84 295.45,644.46 286.93,632.69 281.89,627.06 281.09,624.64 275.32,618.73 269.32,606.27 269.91,602.73 267.33,594.27 267.06,590.46 262.18,577.65 249.23,555.51 249.65,547.25 247.68,539.99 247.37,535.57 241.72,525.84 242.01,522.01 240.17,518.56 235.25,513.39 232.81,509.51 227.63,504.96 223.08,502.38 219.34,498.09 218.31,493.54 216.95,491.91 215.68,484.63 212.83,481.52 203.58,464.75 199.59,454.21 192.16,444.25 188.62,434.6 181.14,423.58 175.96,412.62 169.25,403.25 164.85,394.25 165.1,389.65 162.99,383.62 158.74,378.28 152.09,367.38 150.25,361.03 148.23,357.44 146.41,355.52 143.44,349.83 131.75,339.9 129.6,336.78 129.66,334.79 126.66,324.97 115.73,312.87 115.51,311.05 107.12,300.99 106.29,298.58 66.66,267.37 62.89,264.17 60.86,261.04 59.81,256.95 57.51,254.15 57.34,247.11 56.47,243.93 49.78,233.97 50.7,231.78 49.81,228.15 46.06,222.34 39.61,214.82 34.03,210.48 33.15,207.15 30.79,203.42 29.19,193.69 26.48,188.6 25.43,184.82 24.91,173.5 21.42,164.01 21.26,160.64 19,155.84 19.29,152.76 17.75,147.77 17.35,142.12 14.85,135.49 14.67,131.67 12.97,126.38 13.09,109.96 12.47,106.01 13.3,101.83 13.19,96.31 14.52,93.49 13.44,88.94 13.7,81.87 12.34,74.57" fill="none" stroke="#1e1e1e" stroke-width="1.18" stroke-linecap="round" stroke-linejoin="round"/>
<text x="785.08" y="806.47" font-family="sans-serif" font-size="14" stroke="#ffffff" stroke-opacity="0.784" stroke-width="2.33" stroke-linejoin="round" paint-order="stroke" fill="#141414">Namibia</text>
</svg>
