<?xml version="1.0" encoding="UTF-8" standalone="no"?>
<svg xmlns="http://www.w3.org/2000/svg" width="1921" height="2000" viewBox="0 0 1921 2000">
<rect width="1921" height="2000" fill="#ffffff"/>
<path d="M1591.37,1543.92L1651,1033.3L1910.24,603.42L1471.71,45.22L875.97,53.2L8,929.84L8,8.59L1913,8.59L1912.99,1991.42L8.01,1991.42L8,1138.16L80.53,1557.78L597.86,1984.63L1067.27,1943.5L1591.37,1543.92Z" fill-rule="evenodd" fill="#4682b4" fill-opacity="0.471"/>
<polyline points="1591.37,1543.92 1651,1033.3 1910.24,603.42 1471.71,45.22 875.97,53.2 8,929.84 8,8.59 1913,8.59 1912.99,1991.42 8.01,1991.42 8,1138.16 80.53,1557.78 597.86,1984.63 1067.27,1943.5 1591.37,1543.92" fill="none" stroke="#1e1e1e" stroke-width="7.55" stroke-linecap="round" stroke-linejoin="round"/>
</svg>
