<?xml version="1.0" encoding="UTF-8" standalone="no"?>
<svg xmlns="http://www.w3.org/2000/svg" width="1921" height="2000" viewBox="0 0 1921 2000">
<rect width="1921" height="2000" fill="#ffffff"/>
<path d="M46.88,902.8L319.02,1019.44L319.02,1408.23L85.76,1447.11L46.88,1485.99L8.01,1330.47L8.01,1291.59L46.88,902.8Z" fill-rule="evenodd" fill="#4682b4" fill-opacity="0.471"/>
<polyline points="46.88,902.8 319.02,1019.44 319.02,1408.23 85.76,1447.11 46.88,1485.99 8.01,1330.47 8.01,1291.59 46.88,902.8" fill="none" stroke="#1e1e1e" stroke-width="7.55" stroke-linecap="round" stroke-linejoin="round"/>
<path d="M1485.35,47.46L1874.12,397.38L1329.84,591.77L1485.35,47.46Z" fill-rule="evenodd" fill="#4682b4" fill-opacity="0.471"/>
<polyline points="1485.35,47.46 1874.12,397.38 1329.84,591.77 1485.35,47.46" fill="none" stroke="#1e1e1e" stroke-width="7.55" stroke-linecap="round" stroke-linejoin="round"/>
<path d="M1135.45,8.58L1485.35,47.46L1329.84,591.77L1252.08,630.65L1135.45,8.58Z" fill-rule="evenodd" fill="#4682b4" fill-opacity="0.471"/>
<polyline points="1135.45,8.58 1485.35,47.46 1329.84,591.77 1252.08,630.65 1135.45,8.58" fill="none" stroke="#1e1e1e" stroke-width="7.55" stroke-linecap="round" stroke-linejoin="round"/>
<path d="M1563.1,1641.5L902.18,1408.23L979.94,1019.44L979.94,941.68L1057.69,786.16L1252.08,708.41L1796.36,825.04L1563.1,1641.5Z" fill-rule="evenodd" fill="#4682b4" fill-opacity="0.471"/>
<polyline points="1563.1,1641.5 902.18,1408.23 979.94,1019.44 979.94,941.68 1057.69,786.16 1252.08,708.41 1796.36,825.04 1563.1,1641.5" fill="none" stroke="#1e1e1e" stroke-width="7.55" stroke-linecap="round" stroke-linejoin="round"/>
<path d="M591.16,358.5L824.43,125.22L1252.08,708.41L1057.69,786.16L591.16,358.5Z" fill-rule="evenodd" fill="#4682b4" fill-opacity="0.471"/>
<polyline points="591.16,358.5 824.43,125.22 1252.08,708.41 1057.69,786.16 591.16,358.5" fill="none" stroke="#1e1e1e" stroke-width="7.55" stroke-linecap="round" stroke-linejoin="round"/>
<path d="M85.76,1447.11L319.02,1408.23L357.9,1563.75L85.76,1447.11Z" fill-rule="evenodd" fill="#4682b4" fill-opacity="0.471"/>
<polyline points="85.76,1447.11 319.02,1408.23 357.9,1563.75 85.76,1447.11" fill="none" stroke="#1e1e1e" stroke-width="7.55" stroke-linecap="round" stroke-linejoin="round"/>
<path d="M319.02,1019.44L591.16,941.68L979.94,1019.44L902.18,1408.23L746.67,1447.11L357.9,1563.75L319.02,1408.23L319.02,1019.44Z" fill-rule="evenodd" fill="#4682b4" fill-opacity="0.471"/>
<polyline points="319.02,1019.44 591.16,941.68 979.94,1019.44 902.18,1408.23 746.67,1447.11 357.9,1563.75 319.02,1408.23 319.02,1019.44" fill="none" stroke="#1e1e1e" stroke-width="7.55" stroke-linecap="round" stroke-linejoin="round"/>
<path d="M46.88,902.8L280.14,630.65L591.16,941.68L319.02,1019.44L46.88,902.8Z" fill-rule="evenodd" fill="#4682b4" fill-opacity="0.471"/>
<polyline points="46.88,902.8 280.14,630.65 591.16,941.68 319.02,1019.44 46.88,902.8" fill="none" stroke="#1e1e1e" stroke-width="7.55" stroke-linecap="round" stroke-linejoin="round"/>
<path d="M824.43,125.22L1135.45,8.58L1252.08,630.65L1252.08,708.41L824.43,125.22Z" fill-rule="evenodd" fill="#4682b4" fill-opacity="0.471"/>
<polyline points="824.43,125.22 1135.45,8.58 1252.08,630.65 1252.08,708.41 824.43,125.22" fill="none" stroke="#1e1e1e" stroke-width="7.55" stroke-linecap="round" stroke-linejoin="round"/>
<path d="M1252.08,630.65L1329.84,591.77L1874.12,397.38L1796.36,825.04L1252.08,708.41L1252.08,630.65Z" fill-rule="evenodd" fill="#4682b4" fill-opacity="0.471"/>
<polyline points="1252.08,630.65 1329.84,591.77 1874.12,397.38 1796.36,825.04 1252.08,708.41 1252.08,630.65" fill="none" stroke="#1e1e1e" stroke-width="7.55" stroke-linecap="round" stroke-linejoin="round"/>
<path d="M746.67,1447.11L902.18,1408.23L1563.1,1641.5L746.68,1991.41L746.67,1447.11Z" fill-rule="evenodd" fill="#4682b4" fill-opacity="0.471"/>
<polyline points="746.67,1447.11 902.18,1408.23 1563.1,1641.5 746.68,1991.41 746.67,1447.11" fill="none" stroke="#1e1e1e" stroke-width="7.55" stroke-linecap="round" stroke-linejoin="round"/>
<path d="M280.14,630.65L513.41,436.25L979.94,941.68L979.94,1019.44L591.16,941.68L280.14,630.65Z" fill-rule="evenodd" fill="#4682b4" fill-opacity="0.471"/>
<polyline points="280.14,630.65 513.41,436.25 979.94,941.68 979.94,1019.44 591.16,941.68 280.14,630.65" fill="none" stroke="#1e1e1e" stroke-width="7.55" stroke-linecap="round" stroke-linejoin="round"/>
<path d="M513.41,436.25L591.16,358.5L1057.69,786.16L979.94,941.68L513.41,436.25Z" fill-rule="evenodd" fill="#4682b4" fill-opacity="0.471"/>
<polyline points="513.41,436.25 591.16,358.5 1057.69,786.16 979.94,941.68 513.41,436.25" fill="none" stroke="#1e1e1e" stroke-width="7.55" stroke-linecap="round" stroke-linejoin="round"/>
<path d="M46.88,1485.99L85.76,1447.11L357.9,1563.75L746.67,1447.11L746.68,1991.41L46.88,1485.99Z" fill-rule="evenodd" fill="#4682b4" fill-opacity="0.471"/>
<polyline points="46.88,1485.99 85.76,1447.11 357.9,1563.75 746.67,1447.11 746.68,1991.41 46.88,1485.99" fill="none" stroke="#1e1e1e" stroke-width="7.55" stroke-linecap="round" stroke-linejoin="round"/>
<text x="1270.11" y="1148.63" font-family="sans-serif" font-size="14" stroke="#ffffff" stroke-opacity="0.784" stroke-width="2.33" stroke-linejoin="round" paint-order="stroke" fill="#141414">Anibare District</text>
<text x="550.07" y="1234.11" font-family="sans-serif" font-size="14" stroke="#ffffff" stroke-opacity="0.784" stroke-width="2.33" stroke-linejoin="round" paint-order="stroke" fill="#141414">Buada District</text>
<text x="953.66" y="1676.55" font-family="sans-serif" font-size="14" stroke="#ffffff" stroke-opacity="0.784" stroke-width="2.33" stroke-linejoin="round" paint-order="stroke" fill="#141414">Meneng District</text>
<text x="559.66" y="758.21" font-family="sans-serif" font-size="14" stroke="#ffffff" stroke-opacity="0.784" stroke-width="2.33" stroke-linejoin="round" paint-order="stroke" fill="#141414">Nibok District</text>
<text x="852.86" y="478.44" font-family="sans-serif" font-size="14" stroke="#ffffff" stroke-opacity="0.784" stroke-width="2.33" stroke-linejoin="round" paint-order="stroke" fill="#141414">Baitsi District</text>
<text x="459.52" y="1670.74" font-family="sans-serif" font-size="14" stroke="#ffffff" stroke-opacity="0.784" stroke-width="2.33" stroke-linejoin="round" paint-order="stroke" fill="#141414">Yaren District</text>
<text x="1552.06" y="637.91" font-family="sans-serif" font-size="14" stroke="#ffffff" stroke-opacity="0.784" stroke-width="2.33" stroke-linejoin="round" paint-order="stroke" fill="#141414">iJuw District</text>
<text x="104.9" y="1206.69" font-family="sans-serif" font-size="14" stroke="#ffffff" stroke-opacity="0.784" stroke-width="2.33" stroke-linejoin="round" paint-order="stroke" fill="#141414">Aiwo District</text>
<text x="1493.6" y="352.54" font-family="sans-serif" font-size="14" stroke="#ffffff" stroke-opacity="0.784" stroke-width="2.33" stroke-linejoin="round" paint-order="stroke" fill="#141414">Anabar District</text>
<text x="1231.38" y="264.17" font-family="sans-serif" font-size="14" stroke="#ffffff" stroke-opacity="0.784" stroke-width="2.33" stroke-linejoin="round" paint-order="stroke" fill="#141414">Anetan District</text>
<text x="1021.53" y="294.09" font-family="sans-serif" font-size="14" stroke="#ffffff" stroke-opacity="0.784" stroke-width="2.33" stroke-linejoin="round" paint-order="stroke" fill="#141414">Ewa District</text>
<text x="217.83" y="864.68" font-family="sans-serif" font-size="14" stroke="#ffffff" stroke-opacity="0.784" stroke-width="2.33" stroke-linejoin="round" paint-order="stroke" fill="#141414">Denigomodu District</text>
<text x="735.67" y="653.85" font-family="sans-serif" font-size="14" stroke="#ffffff" stroke-opacity="0.784" stroke-width="2.33" stroke-linejoin="round" paint-order="stroke" fill="#141414">Uaboe District</text>
<text x="200.23" y="1480.03" font-family="sans-serif" font-size="14" stroke="#ffffff" stroke-opacity="0.784" stroke-width="2.33" stroke-linejoin="round" paint-order="stroke" fill="#141414">Boe District</text>
</svg>
