<?xml version="1.0" encoding="UTF-8" standalone="no"?>
<svg xmlns="http://www.w3.org/2000/svg" width="2000" height="1779" viewBox="0 0 2000 1779">
<rect width="2000" height="1779" fill="#ffffff"/>
<path d="M60.67,658.86L59.48,664.04L58.01,664.24L60.67,658.86Z" fill-rule="evenodd" fill="#4682b4" fill-opacity="0.471"/>
<polyline points="60.67,658.86 59.48,664.04 58.01,664.24 60.67,658.86" fill="none" stroke="#1e1e1e" stroke-width="1.64" stroke-linecap="round" stroke-linejoin="round"/>
<path d="M60.81,663.97L60.84,664.81L60.81,663.97Z" fill-rule="evenodd" fill="#4682b4" fill-opacity="0.471"/>
<polyline points="60.81,663.97 60.84,664.81 60.81,663.97" fill="none" stroke="#1e1e1e" stroke-width="1.64" stroke-linecap="round" stroke-linejoin="round"/>
<path d="M22.67,670.16L22.5,669.01L24.46,668.99L22.67,670.16Z" fill-rule="evenodd" fill="#4682b4" fill-opacity="0.471"/>
<polyline points="22.67,670.16 22.5,669.01 24.46,668.99 22.67,670.16" fill="none" stroke="#1e1e1e" stroke-width="1.64" stroke-linecap="round" stroke-linejoin="round"/>
<path d="M24.55,668.94L22.91,667.76L19.65,669.98L19.35,669.49L19.36,668.7L22.68,667.55L21.59,666.01L25.11,668.65L24.55,668.94Z" fill-rule="evenodd" fill="#4682b4" fill-opacity="0.471"/>
<polyline points="24.55,668.94 22.91,667.76 19.65,669.98 19.35,669.49 19.36,668.7 22.68,667.55 21.59,666.01 25.11,668.65 24.55,668.94" fill="none" stroke="#1e1e1e" stroke-width="1.64" stroke-linecap="round" stroke-linejoin="round"/>
<path d="M56.81,664.4L56.24,663.13L57.77,664.27L56.81,664.4Z" fill-rule="evenodd" fill="#4682b4" fill-opacity="0.471"/>
<polyline points="56.81,664.4 56.24,663.13 57.77,664.27 56.81,664.4" fill="none" stroke="#1e1e1e" stroke-width="1.64" stroke-linecap="round" stroke-linejoin="round"/>
<path d="M215.83,1050.87L214.61,1048.69L213.29,1048.77L213.15,1049.66L215.82,1051.98L211.79,1576.72L10.63,1574.98L17.42,870.07L39.84,889.17L82.62,916.1L96.9,929.27L101.98,930.69L102.4,932.9L113.82,941.53L119.56,949.64L133.2,960.74L134.88,967.28L145.86,980.4L146.31,984.06L145.02,984.56L153.83,991.11L154.23,993.99L152.73,993.1L152.66,995.54L156.01,994.57L164.33,997.86L200.47,1023.28L215.91,1039.42L215.83,1050.87Z" fill-rule="evenodd" fill="#4682b4" fill-opacity="0.471"/>
<polyline points="215.83,1050.87 214.61,1048.69 213.29,1048.77 213.15,1049.66 215.82,1051.98 211.79,1576.72 10.63,1574.98 17.42,870.07 39.84,889.17 82.62,916.1 96.9,929.27 101.98,930.69 102.4,932.9 113.82,941.53 119.56,949.64 133.2,960.74 134.88,967.28 145.86,980.4 146.31,984.06 145.02,984.56 153.83,991.11 154.23,993.99 152.73,993.1 152.66,995.54 156.01,994.57 164.33,997.86 200.47,1023.28 215.91,1039.42 215.83,1050.87" fill="none" stroke="#1e1e1e" stroke-width="1.64" stroke-linecap="round" stroke-linejoin="round"/>
<path d="M19.23,682.41L21.9,683.68L24.25,682.53L24.82,678.73L22.31,680.08L19.72,678.3L20.69,676.77L19.27,677.67L19.28,677.12L20.2,677.33L22.21,673.8L21.52,679.32L26.1,677.25L26.29,672.31L31.45,675.37L31.37,671.93L32.32,673.98L32.04,672.23L27.15,667.6L25.57,668.42L27.11,665.56L23.04,666.06L23.99,665.17L26.24,665.25L26.28,664.42L28.05,663.23L26.82,664.84L29.01,664.44L31.89,667.07L30.43,669.1L33.22,668.06L31.08,663.52L32,663.31L34.27,668.05L35.04,660.96L31.75,659.89L30.89,658.81L31.63,658.55L31.71,659.77L34.79,659.78L33.56,657.34L26.95,657.92L27.46,661.49L26.72,658.05L23.61,659.84L26.51,661.59L26.11,662.75L24.25,660.32L21.95,661.66L23.43,659.85L22.38,658.45L19.46,658.67L22.47,658.13L24.14,659.34L24.34,658.61L20.93,656.39L20.75,652.51L19.52,652.47L20.28,651.68L22,652.28L20.97,655.1L22.39,654.6L24.38,657.98L31.04,654.07L31.16,652.48L29.85,650.46L27.57,653.11L25.73,651.23L25.18,653.31L25.62,650.88L27.85,649.32L27.6,648.17L23.54,647.69L25.7,646.71L21.31,645.3L23.72,643.07L19.62,641.77L22.17,641.21L24.26,644.15L21.59,645.41L25.41,646.2L27.95,647.63L28.12,649.73L26.23,651.04L28.27,652.19L29.01,650.57L30.7,650.01L32.28,653.65L33,649.14L29.78,646.52L31.54,644.67L29.22,644.98L28.53,643.37L26.54,644.09L27.11,643.15L29.56,642.98L29.56,644.89L30.96,642.71L33.08,643.05L31.22,643.15L31.92,645.34L30.28,646.43L31.61,646.5L34.6,649.51L37.18,647.65L36.53,645.55L34.45,645.5L36.56,645.33L38.35,641.68L35.86,639.16L32.42,640.94L31.7,638.91L30,638.92L31.86,638.71L31.87,637.06L28.91,637.19L28.22,634.02L25.82,634.25L28.15,633.86L29.94,636.77L32.32,637.19L32.51,640.66L35.54,638.79L38.07,640.13L38.78,641.71L37.24,645.62L38.88,646.37L41.56,644.5L39.24,639.89L39.72,636.54L33.96,635.07L33.97,634.43L34.05,635.14L35,634.86L35.09,635.63L36.18,635.73L35.4,635.26L35.64,633.41L36.24,633.45L36.01,635.11L37,635.91L37.03,634.54L37.98,635.73L38.72,632.73L39.29,634.26L38.09,635.46L39.91,636.48L39.78,639.98L41.76,638.77L43.83,639L42.16,638.06L42.83,636.62L42.46,638.13L44.09,637.46L43.88,639.32L41.79,639.16L40.59,641.39L42.76,644.52L46.86,644.29L51.37,646.85L56.29,646.02L55.4,644.43L57.67,643.04L55.62,645.07L59.35,645.86L60.75,644.99L62.79,645.31L64.79,641.48L64.9,643.44L63.05,645.34L63.21,647.26L65.98,644.09L66.89,644.6L66.22,646.64L67.32,645.24L68.65,646.09L70.78,644.56L72.98,645.46L71.58,645.87L70.65,644.71L68.51,646.19L67.69,645.28L67.33,646.74L66.35,646.78L65.96,645.94L66.76,644.81L66.07,644.17L63.37,647.43L62.62,646.98L62.74,645.46L60.57,645.28L60.19,646.53L60.93,646.47L61.06,647.75L63.92,649.84L61.12,647.92L60.83,646.57L55.79,649.5L59.93,647.08L56.1,646.76L52.17,649.95L53.19,650.68L52.04,653.93L52.22,650.36L47.05,653.12L45.81,655.99L48,656.19L48.51,658.95L47.27,659.62L50.71,662.75L52.4,661.44L50.24,658.61L53.26,654.91L53.6,657.13L52.81,656.41L52.92,654.96L50.33,658.71L54.96,662.18L48.34,664.22L45.39,663.17L43.41,664.84L52.13,670.58L53.31,669.28L52.4,664.53L53.77,668.93L55.78,668.86L54.84,672.91L50.7,674.49L48.4,681.38L53.34,678.2L59.95,676.73L60.02,671.82L61.95,671.2L60.38,672.08L60.64,678.28L63.58,677.31L61.65,674.48L64.19,672.62L66.44,673.78L65.79,674.91L67.1,674.33L67.35,673.03L67.71,675.32L65.44,674.99L66.06,673.65L64.24,674.95L64.37,672.74L63.81,673.89L61.9,674.56L63.8,676.29L63.68,677.65L61.03,678.7L58.47,677.89L58.1,678.76L63.37,679.59L63.94,678.08L65.58,677.99L64.01,678.19L64.68,680.39L59.15,682.09L59.24,684.03L58.74,682.26L60.58,681.11L58.84,680.83L57.18,684.31L55.66,685.39L58.54,680.75L53.55,680.21L55.54,681.8L53.25,680.32L52.19,683.77L49.75,684.92L52.79,686.01L51.41,686.58L50.21,686.15L49.59,684.83L43.97,686.15L40.66,681.75L38.29,682.45L36.99,686.94L33,685.07L32.73,689.8L34.49,691.16L31.2,693.01L31.79,698.04L37.91,704.95L48.44,708.91L51.33,706.49L51.88,708.4L58.5,706.69L58.64,709.17L60.46,710.02L62.52,709L62.02,704.59L64.83,701.98L63.93,697.58L61.76,697.18L63.41,697.13L65.13,693.6L58.82,691.14L55.96,687.51L59.17,688.16L59.64,686.47L60.05,688.57L63.42,686.62L63.04,685.23L61.44,686.36L60.47,685.65L60.66,683.42L62.58,683.65L62.09,682.07L59.3,684.12L61.26,681.73L64.35,682.61L62.32,684.1L60.84,683.53L60.92,686.09L63.01,684.99L66.86,687.99L69.57,687.59L70.37,685.91L66.81,685.27L65.91,682.77L67.34,682.59L64.34,681.09L69.04,678.48L68.55,680.78L67.63,680L67.19,681.45L68.87,683.05L66.71,683.41L67.8,684.16L70.41,683.47L70.85,685.09L73.7,683.9L72.85,682.75L74.36,681.97L70.83,680.84L71.43,683.23L69.06,681.21L72.03,680.52L72.53,677.12L75.19,674.4L75.32,675.47L74.67,675.74L76.27,676.16L75.89,677.88L77.98,677.51L77.08,676.19L77.9,674.35L76.79,674.03L76.58,672.71L78.13,670.29L79.07,670.77L79.33,669.52L79.16,670.74L78.31,671L78.2,670.29L76.66,672.76L77.47,673.34L76.87,673.96L78.04,674.26L77.27,676.39L78.71,677.14L77.87,679.07L75.57,678.03L75.25,676.91L72.74,678.74L73.03,680.51L74.97,680.97L73.5,679.3L74.99,678.34L76.85,680.79L74.83,678.45L73.78,679.75L76.16,681.71L76.23,682.93L78.37,683L80.28,679.68L79.87,681.54L81,680.8L80.67,682.42L82.86,682.31L85.06,680.55L81.77,680.25L82.4,677.42L82.79,678.65L82.13,680.17L84.5,679.45L85.27,680.71L83.06,682.58L84.34,683.23L89.58,676.78L84.99,678.01L86.27,677.2L83.8,675.6L83.79,674.39L85.46,676.78L87.87,676.6L89.82,674.82L88.19,672.98L90.13,674.88L88.82,676L89.95,676.95L88.18,679.52L90.29,683.6L90.68,678.22L91.36,679.19L93.88,677.39L92.39,672.91L93.82,674.58L94.04,676.91L94.94,674.19L96.94,676.38L98.4,675.6L97.68,676.16L100.05,677.69L97.2,677.34L96.02,676.13L92.46,679.96L94.21,680.92L97.22,678.72L96.6,679.67L94.04,681.16L91.13,681.21L99.36,685.05L99.47,681.53L100.34,684.83L98.01,685.23L102.61,689.02L104.55,684.14L101.82,680.61L103.94,682.64L100.64,673.85L98.66,675.4L97.13,674.69L98.68,675.15L98.56,673.17L103.09,672.27L100.07,671.22L99.77,669.44L96.79,672.17L94.77,670.63L93.99,667.71L93.98,667.11L94.86,667.93L94.89,670.63L97.12,672.03L97.39,670.5L99.11,669.21L96.91,669.04L96.96,667.33L97.09,668.34L98.05,668.15L96.93,668.89L100.45,669.11L100.1,670.86L102.83,668.47L101.94,668.44L103.83,667.6L102.12,665.77L100.35,666.27L102.12,665.55L100.14,664.41L102.37,664.47L103.65,665.46L102.5,666.16L104.55,667.78L107.66,665.86L103.25,664.02L104.79,663.84L104.47,661.02L101.92,662.96L100.3,659.79L101.34,660.45L102.13,662.71L103.03,660L105.02,660.09L105.04,663.87L107.55,664.83L111.95,661.34L112.9,663.43L110.96,664.49L116.52,666L117.42,668.44L118.04,667.26L117.29,665.77L117.65,664.48L119.2,665.21L120.36,663.18L120.91,663.68L119.86,665.86L117.59,664.95L119.29,667.25L117.51,669.08L120.06,670.15L119.71,668.15L121.54,671.6L121.36,669.6L122.62,669.91L122.94,673.16L125,671.9L126.23,666.45L123.61,669.57L121.35,668.74L120.09,666.97L121.07,663.66L122.16,666.29L120.41,667.45L121.59,668.61L122.39,667.57L123.85,669.05L123.14,666.58L125.87,665.46L125.03,665.4L124.33,663.98L125.63,662.99L123.68,661.18L126.47,662.99L124.54,664.18L126.87,664.29L126.79,665.66L128.29,663.26L134.14,664.17L134.68,666.42L136.64,666.24L134.78,666.71L134.72,668.81L138.03,666.56L139.68,669.3L137.87,670.6L140.82,673.73L142.63,668.88L142.1,671.95L145.55,672.09L145.38,670L146.3,671.26L145.47,672.31L147.19,672.28L144.9,672.84L145.88,673.57L145.55,674.46L147.56,673.87L145.7,674.57L145.7,673.46L144.17,672.32L142.61,673.23L145.08,675.89L144.08,676.96L145.52,676.34L143.28,678.88L142.82,676.48L142.42,679.16L140.21,679.52L142.59,679.94L140.27,680.53L142.05,683.11L139.11,684.41L138.01,688.36L137.63,685.83L129.5,685.39L129.24,687.05L130.76,685.95L129.41,687.2L128.68,686.25L127.24,690.65L129.06,691.01L129.12,689.64L130.54,689.38L129.11,689.76L130.16,691.49L124.63,692.35L118.64,689.61L119.97,691.18L118.14,692.78L120.4,692.66L114.86,694.2L113.91,696.03L117.97,695.59L121.24,698.56L122.52,694.12L122.41,696.91L124.56,695.24L127.23,697.69L130.65,696.15L132.13,698.87L137.98,694.82L131.23,699.62L132.88,701.53L134.06,705.18L131.59,705.89L131.54,705.27L134.05,704.58L132.92,703.93L132.54,701.51L131.35,702.09L130.06,697.11L127.38,698.52L127.78,700.51L124.45,696.28L122.27,699.6L120.22,699.75L118.88,698.08L119.2,701.49L120.89,701.5L116.33,701.75L116.48,704.22L121.81,704.21L122.14,702.41L125.19,701.54L126.14,703.9L126.88,702.11L128.37,702.79L128.71,705.08L127.04,706.68L128.44,704.83L125.66,704.12L125.12,701.94L122.32,704.67L122.53,705.88L117.03,705.09L121.4,705.81L122.55,708.1L124.14,706.11L122.61,705.89L123.85,704.48L126.11,705.25L124.95,709.46L121.3,709.43L119.13,706.33L118.15,707.69L119.88,709.11L117.92,707.84L116.9,708.78L118.45,708.48L118.93,711.01L121.69,711.82L122.28,713.84L119.39,712.6L118.11,709.78L115.68,711.12L117.45,712.81L118.2,715.78L120.48,716.1L116.53,716.44L117.9,719.15L119.03,718.66L120.44,720.15L120.37,722L119.49,719.45L117.79,720.97L116.48,717.1L116.13,717.85L117.06,719.65L115.63,718.4L116.61,712.58L112.59,717.05L112.69,718.03L115.2,717.23L114.13,719.41L115.92,720.5L114.73,720.71L113.99,719.39L112.83,720.99L113.95,718.64L112.83,718.28L111.08,722.3L106.85,722.75L107.64,723.79L105.52,722.48L106.62,722.59L104.15,718.9L102.32,719.93L104.09,716.36L101.69,711.4L98.21,713.97L99.4,715.83L100.18,713.96L100.31,715.39L99.44,715.93L101.9,715.32L101.14,716.11L99.34,716.04L99.3,718.36L97.71,718.44L98.38,719.39L97.08,718.96L97.63,717.21L98.88,718.54L99.58,717.16L98.01,713.73L100.83,711.65L97.33,713.53L95.07,712.41L90.04,717.88L88.82,727.73L92.63,727.34L89.88,725.28L91.53,724.2L90.06,722.15L92.47,719.41L90.12,722.33L94.31,723.69L92.36,724.27L100.24,726.99L99.72,724.84L98.86,725.64L97.71,724.67L98.62,724.62L98.9,725.55L99.69,724.75L100.26,726.05L100.46,725.37L101.64,725.57L100.16,724.44L100.35,723.44L100.18,724.36L101.85,725.15L100.48,725.88L103.97,728.08L105.49,725.8L106.56,725.98L105.55,725.83L106.21,727.24L104.01,728.24L100.05,727.45L112.34,740.09L110.45,736.27L113.2,734.33L111.14,732.46L112.01,731.79L113.78,732.28L113.48,730.15L114.71,731.61L114.19,729.23L115.92,728.28L116.24,728.76L115.43,729.24L114.38,729.12L114.77,731.77L114.06,731.73L113.61,730.25L113.85,732.44L111.43,732.36L113.39,734.1L113.6,735.95L113.65,733.61L116.83,732.35L115.82,733.38L115.2,733.05L116.27,734.23L114.74,733.27L113.77,736.01L111.95,735.56L113.59,739.51L117.02,739.26L117.27,736.71L119.52,735.1L117.43,736.8L117.69,738.71L120.41,738.51L121.25,741.73L126.14,744.16L124.09,744.18L121.32,742L120.3,742.99L121.21,749.58L122.75,750.11L122.1,749.17L123.86,747.73L123.21,749.49L122.3,749.14L122.72,750.29L121.04,749.63L120.13,743.32L117.34,741.39L114.7,741.35L116.41,742.79L113.9,742.24L112.81,747.79L112.35,742.49L110.87,744.21L111.28,746.41L116.21,751.94L114.88,751.64L121.01,768.51L122.47,787.48L121.29,793.73L123.79,787.49L132.75,788.11L133.71,790.17L137.6,787.95L147.33,794.43L156.57,796.33L156.9,797.87L145.91,801.82L154.64,815.43L159.9,821.12L169.18,825.96L180.07,824.48L180.64,825.88L173.3,829.05L167.16,843.93L157.68,850.11L145.89,854.21L138.95,858.7L144.5,864.41L149.01,865.65L160.61,864.92L161.38,868.52L134.76,871.62L121.72,868.22L108.66,860.96L103.24,860.03L102.58,850.53L104.55,848.1L106.94,850.09L98.57,836L94.66,833.58L87,824.14L80.5,820.59L73.7,814.07L58.54,812.29L61.32,807.77L61.75,799.63L63.18,798.42L64.19,803.82L63.48,797.29L61.28,799.42L55.22,818.83L47.34,829.76L29.97,838.17L28.48,843.38L23.49,848.13L17.43,868.47L19.23,682.41ZM50.24,722.83L48.33,721.2L49.49,719.17L48.29,716.17L44.97,716.89L38.5,712.56L32.12,714.78L30.18,722.64L30.85,731.27L36.17,732.8L42.34,732.53L48.03,729.99L50.24,722.83ZM21.31,706.29L24.06,710.16L24.44,706.76L28.33,704.76L25.44,699.16L21.31,706.29ZM70.61,694.3L73.06,693.35L69.6,690.29L69.77,688.64L63.45,687.3L58.41,689.75L67.49,692.33L64.8,697.73L67.36,698.13L76.37,696.94L77.83,695.41L77.15,693.94L73.5,693.46L70.68,694.38L69.2,692.59L70.61,694.3ZM86.65,687.67L86.54,689.81L87.68,687.65L88.3,688.99L90.09,687.65L92.23,687.66L91.01,690.39L92.01,688.54L93.76,688.83L94.12,684.17L91.62,685.32L89.08,683.75L89.25,685.11L87.07,685.19L89.17,684.88L87.86,680.16L84.47,683.41L82.29,682.6L85.62,685.16L80.17,683.53L81.08,685.45L79.86,684.41L79.71,686.25L79.31,683.96L80.51,682.87L79.59,682.31L77.14,684.51L78.99,683.94L78.91,685.18L77.14,685.05L77.28,683.67L75.63,683.9L71.61,688.98L75.01,687.19L72.01,689.77L76.62,691.19L79.21,690.76L79.93,688.92L82.04,690.2L83.13,688.44L82.24,689.25L82.48,691.4L80.24,689.98L79.2,691.2L77.1,691.57L81.24,694.42L87.03,692.33L87.26,689.92L86.34,690.01L86.27,688.72L85.39,688.82L84.11,686.23L85.23,686.63L85.51,688.71L86.65,687.67ZM104.45,672.04L102.23,675.15L103.31,676.25L104.45,672.04ZM28.51,664.72L27.56,667.02L29.89,668.37L31.51,667.22L28.51,664.72ZM46.07,663.02L47.79,663.69L50.53,662.83L46.66,659.92L46.07,663.02ZM50.16,649.38L52.78,649.36L55.78,646.9L50.16,649.38ZM117.91,740.84L120.72,742.15L120.15,739.19L117.73,739.17L117.91,740.84ZM112.13,702.09L114.85,701.13L114.83,699.27L112.42,699.15L113,700.17L110.99,696.97L107.61,696.03L108.72,700.64L110.32,700.62L108.69,701.38L106.07,706.55L108.07,706.06L108.53,704.42L110.31,705.46L107.41,706.95L109.85,709.55L107.3,708.35L107.2,707.13L104.5,707.96L106.57,720.07L108.52,721.56L110.2,720.54L110.82,712.71L114.17,708.59L112.83,707.64L111.93,708.87L111.24,706.81L113.55,707.34L114.01,704.98L114.62,707.7L116.11,706.55L114.6,703.97L116.24,703.26L115.02,701.24L111.16,702.98L112.13,702.09ZM118.76,697.92L116.1,696.64L115.63,701.34L118.76,697.92ZM113.47,694.45L117.68,692.77L118.41,691.3L115.99,691.06L118.19,690.18L111.66,690.13L111.68,694.63L113.65,697.64L113.47,694.45ZM127.22,683.19L126.41,681.33L125.45,681.6L124.51,680.83L125.68,681.25L125.9,679.2L123.82,681.34L124.54,689.22L126.63,684.95L131.29,682.94L129.11,681.72L127.34,682.08L127.31,683.78L125.26,683.11L125.69,682.61L127.22,683.19ZM127.81,679.04L126.73,679.03L126.48,680.67L132.77,682.38L132.83,680.41L129.14,678.04L129.92,675.09L126.47,678.78L128.15,678.26L128.91,679.71L127.81,679.04ZM118.94,681.11L121.8,678.67L115.29,678.37L116.65,677.79L115.88,675.85L114.88,676.53L115.78,675.41L110.02,673.68L110.38,668.87L106.62,673.52L108.14,672.62L107.51,673.98L109.03,674.48L109.97,673.72L109.06,675.48L106.34,675.45L107.44,676.71L110.73,675.29L110.89,678.83L107.32,679.62L109.65,677.95L110.61,678.83L110.2,676.42L105.22,677.37L106.44,674.71L104.59,673.82L104.79,676.52L104.36,675.66L103.71,677.34L105.86,679.94L104.85,680.16L107.38,682.58L108.74,681.4L108.56,682.98L111.73,680.61L111.59,682.1L117.1,682.54L118.82,680.98L117.44,680.13L118.7,680.05L118.94,681.11ZM133.82,680.4L133.45,683.59L135.55,684.62L139.23,683.06L139.08,678.42L137.86,678.24L142.32,674.58L136.91,671.52L135.11,675.06L135.56,676.67L137.3,676.17L135.41,676.98L135.16,671.77L132.31,673.19L129.6,671.71L129.1,672.47L127.87,670.44L125.31,675.64L125.31,679.16L127.2,675.6L129.85,674.72L127.39,673.9L128.94,672.71L128.57,673.27L131.95,675.6L130.65,675.16L129.86,678.02L133.37,676.63L131.89,678.38L132.49,679.52L134.72,679.76L135.13,678.07L137.8,679.26L137.2,680.6L134.92,679.96L137.87,680.94L137.42,681.61L135.71,680.8L136.35,682.61L133.82,680.4ZM115.74,672.93L118.13,677.62L122.1,676.22L120.38,671.77L113.23,670.98L114.23,667.55L116.8,667.11L112.95,666.46L110.82,668.45L111.98,670.26L110.97,673.96L115.74,672.93ZM106.48,671.66L103.92,669.15L103.63,672.5L104.09,671.17L106.48,671.66ZM118.18,670.3L116.01,670.17L114.64,669.04L114.29,670.79L118.18,670.3ZM107.71,668.42L104.44,668.62L105.96,670.07L108.72,669.99L109.56,668.36L107.71,668.42ZM136.35,669.12L132.97,670.4L137.63,670.38L137.84,667.68L136.35,669.12ZM107.72,667.83L109.64,667.73L110.61,664.21L107.68,664.81L107.72,667.83Z" fill-rule="evenodd" fill="#4682b4" fill-opacity="0.471"/>
<polyline points="19.23,682.41 21.9,683.68 24.25,682.53 24.82,678.73 22.31,680.08 19.72,678.3 20.69,676.77 19.27,677.67 19.28,677.12 20.2,677.33 22.21,673.8 21.52,679.32 26.1,677.25 26.29,672.31 31.45,675.37 31.37,671.93 32.32,673.98 32.04,672.23 27.15,667.6 25.57,668.42 27.11,665.56 23.04,666.06 23.99,665.17 26.24,665.25 26.28,664.42 28.05,663.23 26.82,664.84 29.01,664.44 31.89,667.07 30.43,669.1 33.22,668.06 31.08,663.52 32,663.31 34.27,668.05 35.04,660.96 31.75,659.89 30.89,658.81 31.63,658.55 31.71,659.77 34.79,659.78 33.56,657.34 26.95,657.92 27.46,661.49 26.72,658.05 23.61,659.84 26.51,661.59 26.11,662.75 24.25,660.32 21.95,661.66 23.43,659.85 22.38,658.45 19.46,658.67 22.47,658.13 24.14,659.34 24.34,658.61 20.93,656.39 20.75,652.51 19.52,652.47 20.28,651.68 22,652.28 20.97,655.1 22.39,654.6 24.38,657.98 31.04,654.07 31.16,652.48 29.85,650.46 27.57,653.11 25.73,651.23 25.18,653.31 25.62,650.88 27.85,649.32 27.6,648.17 23.54,647.69 25.7,646.71 21.31,645.3 23.72,643.07 19.62,641.77 22.17,641.21 24.26,644.15 21.59,645.41 25.41,646.2 27.95,647.63 28.12,649.73 26.23,651.04 28.27,652.19 29.01,650.57 30.7,650.01 32.28,653.65 33,649.14 29.78,646.52 31.54,644.67 29.22,644.98 28.53,643.37 26.54,644.09 27.11,643.15 29.56,642.98 29.56,644.89 30.96,642.71 33.08,643.05 31.22,643.15 31.92,645.34 30.28,646.43 31.61,646.5 34.6,649.51 37.18,647.65 36.53,645.55 34.45,645.5 36.56,645.33 38.35,641.68 35.86,639.16 32.42,640.94 31.7,638.91 30,638.92 31.86,638.71 31.87,637.06 28.91,637.19 28.22,634.02 25.82,634.25 28.15,633.86 29.94,636.77 32.32,637.19 32.51,640.66 35.54,638.79 38.07,640.13 38.78,641.71 37.24,645.62 38.88,646.37 41.56,644.5 39.24,639.89 39.72,636.54 33.96,635.07 33.97,634.43 34.05,635.14 35,634.86 35.09,635.63 36.18,635.73 35.4,635.26 35.64,633.41 36.24,633.45 36.01,635.11 37,635.91 37.03,634.54 37.98,635.73 38.72,632.73 39.29,634.26 38.09,635.46 39.91,636.48 39.78,639.98 41.76,638.77 43.83,639 42.16,638.06 42.83,636.62 42.46,638.13 44.09,637.46 43.88,639.32 41.79,639.16 40.59,641.39 42.76,644.52 46.86,644.29 51.37,646.85 56.29,646.02 55.4,644.43 57.67,643.04 55.62,645.07 59.35,645.86 60.75,644.99 62.79,645.31 64.79,641.48 64.9,643.44 63.05,645.34 63.21,647.26 65.98,644.09 66.89,644.6 66.22,646.64 67.32,645.24 68.65,646.09 70.78,644.56 72.98,645.46 71.58,645.87 70.65,644.71 68.51,646.19 67.69,645.28 67.33,646.74 66.35,646.78 65.96,645.94 66.76,644.81 66.07,644.17 63.37,647.43 62.62,646.98 62.74,645.46 60.57,645.28 60.19,646.53 60.93,646.47 61.06,647.75 63.92,649.84 61.12,647.92 60.83,646.57 55.79,649.5 59.93,647.08 56.1,646.76 52.17,649.95 53.19,650.68 52.04,653.93 52.22,650.36 47.05,653.12 45.81,655.99 48,656.19 48.51,658.95 47.27,659.62 50.71,662.75 52.4,661.44 50.24,658.61 53.26,654.91 53.6,657.13 52.81,656.41 52.92,654.96 50.33,658.71 54.96,662.18 48.34,664.22 45.39,663.17 43.41,664.84 52.13,670.58 53.31,669.28 52.4,664.53 53.77,668.93 55.78,668.86 54.84,672.91 50.7,674.49 48.4,681.38 53.34,678.2 59.95,676.73 60.02,671.82 61.95,671.2 60.38,672.08 60.64,678.28 63.58,677.31 61.65,674.48 64.19,672.62 66.44,673.78 65.79,674.91 67.1,674.33 67.35,673.03 67.71,675.32 65.44,674.99 66.06,673.65 64.24,674.95 64.37,672.74 63.81,673.89 61.9,674.56 63.8,676.29 63.68,677.65 61.03,678.7 58.47,677.89 58.1,678.76 63.37,679.59 63.94,678.08 65.58,677.99 64.01,678.19 64.68,680.39 59.15,682.09 59.24,684.03 58.74,682.26 60.58,681.11 58.84,680.83 57.18,684.31 55.66,685.39 58.54,680.75 53.55,680.21 55.54,681.8 53.25,680.32 52.19,683.77 49.75,684.92 52.79,686.01 51.41,686.58 50.21,686.15 49.59,684.83 43.97,686.15 40.66,681.75 38.29,682.45 36.99,686.94 33,685.07 32.73,689.8 34.49,691.16 31.2,693.01 31.79,698.04 37.91,704.95 48.44,708.91 51.33,706.49 51.88,708.4 58.5,706.69 58.64,709.17 60.46,710.02 62.52,709 62.02,704.59 64.83,701.98 63.93,697.58 61.76,697.18 63.41,697.13 65.13,693.6 58.82,691.14 55.96,687.51 59.17,688.16 59.64,686.47 60.05,688.57 63.42,686.62 63.04,685.23 61.44,686.36 60.47,685.65 60.66,683.42 62.58,683.65 62.09,682.07 59.3,684.12 61.26,681.73 64.35,682.61 62.32,684.1 60.84,683.53 60.92,686.09 63.01,684.99 66.86,687.99 69.57,687.59 70.37,685.91 66.81,685.27 65.91,682.77 67.34,682.59 64.34,681.09 69.04,678.48 68.55,680.78 67.63,680 67.19,681.45 68.87,683.05 66.71,683.41 67.8,684.16 70.41,683.47 70.85,685.09 73.7,683.9 72.85,682.75 74.36,681.97 70.83,680.84 71.43,683.23 69.06,681.21 72.03,680.52 72.53,677.12 75.19,674.4 75.32,675.47 74.67,675.74 76.27,676.16 75.89,677.88 77.98,677.51 77.08,676.19 77.9,674.35 76.79,674.03 76.58,672.71 78.13,670.29 79.07,670.77 79.33,669.52 79.16,670.74 78.31,671 78.2,670.29 76.66,672.76 77.47,673.34 76.87,673.96 78.04,674.26 77.27,676.39 78.71,677.14 77.87,679.07 75.57,678.03 75.25,676.91 72.74,678.74 73.03,680.51 74.97,680.97 73.5,679.3 74.99,678.34 76.85,680.79 74.83,678.45 73.78,679.75 76.16,681.71 76.23,682.93 78.37,683 80.28,679.68 79.87,681.54 81,680.8 80.67,682.42 82.86,682.31 85.06,680.55 81.77,680.25 82.4,677.42 82.79,678.65 82.13,680.17 84.5,679.45 85.27,680.71 83.06,682.58 84.34,683.23 89.58,676.78 84.99,678.01 86.27,677.2 83.8,675.6 83.79,674.39 85.46,676.78 87.87,676.6 89.82,674.82 88.19,672.98 90.13,674.88 88.82,676 89.95,676.95 88.18,679.52 90.29,683.6 90.68,678.22 91.36,679.19 93.88,677.39 92.39,672.91 93.82,674.58 94.04,676.91 94.94,674.19 96.94,676.38 98.4,675.6 97.68,676.16 100.05,677.69 97.2,677.34 96.02,676.13 92.46,679.96 94.21,680.92 97.22,678.72 96.6,679.67 94.04,681.16 91.13,681.21 99.36,685.05 99.47,681.53 100.34,684.83 98.01,685.23 102.61,689.02 104.55,684.14 101.82,680.61 103.94,682.64 100.64,673.85 98.66,675.4 97.13,674.69 98.68,675.15 98.56,673.17 103.09,672.27 100.07,671.22 99.77,669.44 96.79,672.17 94.77,670.63 93.99,667.71 93.98,667.11 94.86,667.93 94.89,670.63 97.12,672.03 97.39,670.5 99.11,669.21 96.91,669.04 96.96,667.33 97.09,668.34 98.05,668.15 96.93,668.89 100.45,669.11 100.1,670.86 102.83,668.47 101.94,668.44 103.83,667.6 102.12,665.77 100.35,666.27 102.12,665.55 100.14,664.41 102.37,664.47 103.65,665.46 102.5,666.16 104.55,667.78 107.66,665.86 103.25,664.02 104.79,663.84 104.47,661.02 101.92,662.96 100.3,659.79 101.34,660.45 102.13,662.71 103.03,660 105.02,660.09 105.04,663.87 107.55,664.83 111.95,661.34 112.9,663.43 110.96,664.49 116.52,666 117.42,668.44 118.04,667.26 117.29,665.77 117.65,664.48 119.2,665.21 120.36,663.18 120.91,663.68 119.86,665.86 117.59,664.95 119.29,667.25 117.51,669.08 120.06,670.15 119.71,668.15 121.54,671.6 121.36,669.6 122.62,669.91 122.94,673.16 125,671.9 126.23,666.45 123.61,669.57 121.35,668.74 120.09,666.97 121.07,663.66 122.16,666.29 120.41,667.45 121.59,668.61 122.39,667.57 123.85,669.05 123.14,666.58 125.87,665.46 125.03,665.4 124.33,663.98 125.63,662.99 123.68,661.18 126.47,662.99 124.54,664.18 126.87,664.29 126.79,665.66 128.29,663.26 134.14,664.17 134.68,666.42 136.64,666.24 134.78,666.71 134.72,668.81 138.03,666.56 139.68,669.3 137.87,670.6 140.82,673.73 142.63,668.88 142.1,671.95 145.55,672.09 145.38,670 146.3,671.26 145.47,672.31 147.19,672.28 144.9,672.84 145.88,673.57 145.55,674.46 147.56,673.87 145.7,674.57 145.7,673.46 144.17,672.32 142.61,673.23 145.08,675.89 144.08,676.96 145.52,676.34 143.28,678.88 142.82,676.48 142.42,679.16 140.21,679.52 142.59,679.94 140.27,680.53 142.05,683.11 139.11,684.41 138.01,688.36 137.63,685.83 129.5,685.39 129.24,687.05 130.76,685.95 129.41,687.2 128.68,686.25 127.24,690.65 129.06,691.01 129.12,689.64 130.54,689.38 129.11,689.76 130.16,691.49 124.63,692.35 118.64,689.61 119.97,691.18 118.14,692.78 120.4,692.66 114.86,694.2 113.91,696.03 117.97,695.59 121.24,698.56 122.52,694.12 122.41,696.91 124.56,695.24 127.23,697.69 130.65,696.15 132.13,698.87 137.98,694.82 131.23,699.62 132.88,701.53 134.06,705.18 131.59,705.89 131.54,705.27 134.05,704.58 132.92,703.93 132.54,701.51 131.35,702.09 130.06,697.11 127.38,698.52 127.78,700.51 124.45,696.28 122.27,699.6 120.22,699.75 118.88,698.08 119.2,701.49 120.89,701.5 116.33,701.75 116.48,704.22 121.81,704.21 122.14,702.41 125.19,701.54 126.14,703.9 126.88,702.11 128.37,702.79 128.71,705.08 127.04,706.68 128.44,704.83 125.66,704.12 125.12,701.94 122.32,704.67 122.53,705.88 117.03,705.09 121.4,705.81 122.55,708.1 124.14,706.11 122.61,705.89 123.85,704.48 126.11,705.25 124.95,709.46 121.3,709.43 119.13,706.33 118.15,707.69 119.88,709.11 117.92,707.84 116.9,708.78 118.45,708.48 118.93,711.01 121.69,711.82 122.28,713.84 119.39,712.6 118.11,709.78 115.68,711.12 117.45,712.81 118.2,715.78 120.48,716.1 116.53,716.44 117.9,719.15 119.03,718.66 120.44,720.15 120.37,722 119.49,719.45 117.79,720.97 116.48,717.1 116.13,717.85 117.06,719.65 115.63,718.4 116.61,712.58 112.59,717.05 112.69,718.03 115.2,717.23 114.13,719.41 115.92,720.5 114.73,720.71 113.99,719.39 112.83,720.99 113.95,718.64 112.83,718.28 111.08,722.3 106.85,722.75 107.64,723.79 105.52,722.48 106.62,722.59 104.15,718.9 102.32,719.93 104.09,716.36 101.69,711.4 98.21,713.97 99.4,715.83 100.18,713.96 100.31,715.39 99.44,715.93 101.9,715.32 101.14,716.11 99.34,716.04 99.3,718.36 97.71,718.44 98.38,719.39 97.08,718.96 97.63,717.21 98.88,718.54 99.58,717.16 98.01,713.73 100.83,711.65 97.33,713.53 95.07,712.41 90.04,717.88 88.82,727.73 92.63,727.34 89.88,725.28 91.53,724.2 90.06,722.15 92.47,719.41 90.12,722.33 94.31,723.69 92.36,724.27 100.24,726.99 99.72,724.84 98.86,725.64 97.71,724.67 98.62,724.62 98.9,725.55 99.69,724.75 100.26,726.05 100.46,725.37 101.64,725.57 100.16,724.44 100.35,723.44 100.18,724.36 101.85,725.15 100.48,725.88 103.97,728.08 105.49,725.8 106.56,725.98 105.55,725.83 106.21,727.24 104.01,728.24 100.05,727.45 112.34,740.09 110.45,736.27 113.2,734.33 111.14,732.46 112.01,731.79 113.78,732.28 113.48,730.15 114.71,731.61 114.19,729.23 115.92,728.28 116.24,728.76 115.43,729.24 114.38,729.12 114.77,731.77 114.06,731.73 113.61,730.25 113.85,732.44 111.43,732.36 113.39,734.1 113.6,735.95 113.65,733.61 116.83,732.35 115.82,733.38 115.2,733.05 116.27,734.23 114.74,733.27 113.77,736.01 111.95,735.56 113.59,739.51 117.02,739.26 117.27,736.71 119.52,735.1 117.43,736.8 117.69,738.71 120.41,738.51 121.25,741.73 126.14,744.16 124.09,744.18 121.32,742 120.3,742.99 121.21,749.58 122.75,750.11 122.1,749.17 123.86,747.73 123.21,749.49 122.3,749.14 122.72,750.29 121.04,749.63 120.13,743.32 117.34,741.39 114.7,741.35 116.41,742.79 113.9,742.24 112.81,747.79 112.35,742.49 110.87,744.21 111.28,746.41 116.21,751.94 114.88,751.64 121.01,768.51 122.47,787.48 121.29,793.73 123.79,787.49 132.75,788.11 133.71,790.17 137.6,787.95 147.33,794.43 156.57,796.33 156.9,797.87 145.91,801.82 154.64,815.43 159.9,821.12 169.18,825.96 180.07,824.48 180.64,825.88 173.3,829.05 167.16,843.93 157.68,850.11 145.89,854.21 138.95,858.7 144.5,864.41 149.01,865.65 160.61,864.92 161.38,868.52 134.76,871.62 121.72,868.22 108.66,860.96 103.24,860.03 102.58,850.53 104.55,848.1 106.94,850.09 98.57,836 94.66,833.58 87,824.14 80.5,820.59 73.7,814.07 58.54,812.29 61.32,807.77 61.75,799.63 63.18,798.42 64.19,803.82 63.48,797.29 61.28,799.42 55.22,818.83 47.34,829.76 29.97,838.17 28.48,843.38 23.49,848.13 17.43,868.47 19.23,682.41" fill="none" stroke="#1e1e1e" stroke-width="1.64" stroke-linecap="round" stroke-linejoin="round"/>
<polyline points="50.24,722.83 48.33,721.2 49.49,719.17 48.29,716.17 44.97,716.89 38.5,712.56 32.12,714.78 30.18,722.64 30.85,731.27 36.17,732.8 42.34,732.53 48.03,729.99 50.24,722.83" fill="none" stroke="#1e1e1e" stroke-width="1.64" stroke-linecap="round" stroke-linejoin="round"/>
<polyline points="21.31,706.29 24.06,710.16 24.44,706.76 28.33,704.76 25.44,699.16 21.31,706.29" fill="none" stroke="#1e1e1e" stroke-width="1.64" stroke-linecap="round" stroke-linejoin="round"/>
<polyline points="70.61,694.3 73.06,693.35 69.6,690.29 69.77,688.64 63.45,687.3 58.41,689.75 67.49,692.33 64.8,697.73 67.36,698.13 76.37,696.94 77.83,695.41 77.15,693.94 73.5,693.46 70.68,694.38 69.2,692.59 70.61,694.3" fill="none" stroke="#1e1e1e" stroke-width="1.64" stroke-linecap="round" stroke-linejoin="round"/>
<polyline points="86.65,687.67 86.54,689.81 87.68,687.65 88.3,688.99 90.09,687.65 92.23,687.66 91.01,690.39 92.01,688.54 93.76,688.83 94.12,684.17 91.62,685.32 89.08,683.75 89.25,685.11 87.07,685.19 89.17,684.88 87.86,680.16 84.47,683.41 82.29,682.6 85.62,685.16 80.17,683.53 81.08,685.45 79.86,684.41 79.71,686.25 79.31,683.96 80.51,682.87 79.59,682.31 77.14,684.51 78.99,683.94 78.91,685.18 77.14,685.05 77.28,683.67 75.63,683.9 71.61,688.98 75.01,687.19 72.01,689.77 76.62,691.19 79.21,690.76 79.93,688.92 82.04,690.2 83.13,688.44 82.24,689.25 82.48,691.4 80.24,689.98 79.2,691.2 77.1,691.57 81.24,694.42 87.03,692.33 87.26,689.92 86.34,690.01 86.27,688.72 85.39,688.82 84.11,686.23 85.23,686.63 85.51,688.71 86.65,687.67" fill="none" stroke="#1e1e1e" stroke-width="1.64" stroke-linecap="round" stroke-linejoin="round"/>
<polyline points="104.45,672.04 102.23,675.15 103.31,676.25 104.45,672.04" fill="none" stroke="#1e1e1e" stroke-width="1.64" stroke-linecap="round" stroke-linejoin="round"/>
<polyline points="28.51,664.72 27.56,667.02 29.89,668.37 31.51,667.22 28.51,664.72" fill="none" stroke="#1e1e1e" stroke-width="1.64" stroke-linecap="round" stroke-linejoin="round"/>
<polyline points="46.07,663.02 47.79,663.69 50.53,662.83 46.66,659.92 46.07,663.02" fill="none" stroke="#1e1e1e" stroke-width="1.64" stroke-linecap="round" stroke-linejoin="round"/>
<polyline points="50.16,649.38 52.78,649.36 55.78,646.9 50.16,649.38" fill="none" stroke="#1e1e1e" stroke-width="1.64" stroke-linecap="round" stroke-linejoin="round"/>
<polyline points="117.91,740.84 120.72,742.15 120.15,739.19 117.73,739.17 117.91,740.84" fill="none" stroke="#1e1e1e" stroke-width="1.64" stroke-linecap="round" stroke-linejoin="round"/>
<polyline points="112.13,702.09 114.85,701.13 114.83,699.27 112.42,699.15 113,700.17 110.99,696.97 107.61,696.03 108.72,700.64 110.32,700.62 108.69,701.38 106.07,706.55 108.07,706.06 108.53,704.42 110.31,705.46 107.41,706.95 109.85,709.55 107.3,708.35 107.2,707.13 104.5,707.96 106.57,720.07 108.52,721.56 110.2,720.54 110.82,712.71 114.17,708.59 112.83,707.64 111.93,708.87 111.24,706.81 113.55,707.34 114.01,704.98 114.62,707.7 116.11,706.55 114.6,703.97 116.24,703.26 115.02,701.24 111.16,702.98 112.13,702.09" fill="none" stroke="#1e1e1e" stroke-width="1.64" stroke-linecap="round" stroke-linejoin="round"/>
<polyline points="118.76,697.92 116.1,696.64 115.63,701.34 118.76,697.92" fill="none" stroke="#1e1e1e" stroke-width="1.64" stroke-linecap="round" stroke-linejoin="round"/>
<polyline points="113.47,694.45 117.68,692.77 118.41,691.3 115.99,691.06 118.19,690.18 111.66,690.13 111.68,694.63 113.65,697.64 113.47,694.45" fill="none" stroke="#1e1e1e" stroke-width="1.64" stroke-linecap="round" stroke-linejoin="round"/>
<polyline points="127.22,683.19 126.41,681.33 125.45,681.6 124.51,680.83 125.68,681.25 125.9,679.2 123.82,681.34 124.54,689.22 126.63,684.95 131.29,682.94 129.11,681.72 127.34,682.08 127.31,683.78 125.26,683.11 125.69,682.61 127.22,683.19" fill="none" stroke="#1e1e1e" stroke-width="1.64" stroke-linecap="round" stroke-linejoin="round"/>
<polyline points="127.81,679.04 126.73,679.03 126.48,680.67 132.77,682.38 132.83,680.41 129.14,678.04 129.92,675.09 126.47,678.78 128.15,678.26 128.91,679.71 127.81,679.04" fill="none" stroke="#1e1e1e" stroke-width="1.64" stroke-linecap="round" stroke-linejoin="round"/>
<polyline points="118.94,681.11 121.8,678.67 115.29,678.37 116.65,677.79 115.88,675.85 114.88,676.53 115.78,675.41 110.02,673.68 110.38,668.87 106.62,673.52 108.14,672.62 107.51,673.98 109.03,674.48 109.97,673.72 109.06,675.48 106.34,675.45 107.44,676.71 110.73,675.29 110.89,678.83 107.32,679.62 109.65,677.95 110.61,678.83 110.2,676.42 105.22,677.37 106.44,674.71 104.59,673.82 104.79,676.52 104.36,675.66 103.71,677.34 105.86,679.94 104.85,680.16 107.38,682.58 108.74,681.4 108.56,682.98 111.73,680.61 111.59,682.1 117.1,682.54 118.82,680.98 117.44,680.13 118.7,680.05 118.94,681.11" fill="none" stroke="#1e1e1e" stroke-width="1.64" stroke-linecap="round" stroke-linejoin="round"/>
<polyline points="133.82,680.4 133.45,683.59 135.55,684.62 139.23,683.06 139.08,678.42 137.86,678.24 142.32,674.58 136.91,671.52 135.11,675.06 135.56,676.67 137.3,676.17 135.41,676.98 135.16,671.77 132.31,673.19 129.6,671.71 129.1,672.47 127.87,670.44 125.31,675.64 125.31,679.16 127.2,675.6 129.85,674.72 127.39,673.9 128.94,672.71 128.57,673.27 131.95,675.6 130.65,675.16 129.86,678.02 133.37,676.63 131.89,678.38 132.49,679.52 134.72,679.76 135.13,678.07 137.8,679.26 137.2,680.6 134.92,679.96 137.87,680.94 137.42,681.61 135.71,680.8 136.35,682.61 133.82,680.4" fill="none" stroke="#1e1e1e" stroke-width="1.64" stroke-linecap="round" stroke-linejoin="round"/>
<polyline points="115.74,672.93 118.13,677.62 122.1,676.22 120.38,671.77 113.23,670.98 114.23,667.55 116.8,667.11 112.95,666.46 110.82,668.45 111.98,670.26 110.97,673.96 115.74,672.93" fill="none" stroke="#1e1e1e" stroke-width="1.64" stroke-linecap="round" stroke-linejoin="round"/>
<polyline points="106.48,671.66 103.92,669.15 103.63,672.5 104.09,671.17 106.48,671.66" fill="none" stroke="#1e1e1e" stroke-width="1.64" stroke-linecap="round" stroke-linejoin="round"/>
<polyline points="118.18,670.3 116.01,670.17 114.64,669.04 114.29,670.79 118.18,670.3" fill="none" stroke="#1e1e1e" stroke-width="1.64" stroke-linecap="round" stroke-linejoin="round"/>
<polyline points="107.71,668.42 104.44,668.62 105.96,670.07 108.72,669.99 109.56,668.36 107.71,668.42" fill="none" stroke="#1e1e1e" stroke-width="1.64" stroke-linecap="round" stroke-linejoin="round"/>
<polyline points="136.35,669.12 132.97,670.4 137.63,670.38 137.84,667.68 136.35,669.12" fill="none" stroke="#1e1e1e" stroke-width="1.64" stroke-linecap="round" stroke-linejoin="round"/>
<polyline points="107.72,667.83 109.64,667.73 110.61,664.21 107.68,664.81 107.72,667.83" fill="none" stroke="#1e1e1e" stroke-width="1.64" stroke-linecap="round" stroke-linejoin="round"/>
<path d="M19.45,659.42L19.44,660.19L19.45,659.42Z" fill-rule="evenodd" fill="#4682b4" fill-opacity="0.471"/>
<polyline points="19.45,659.42 19.44,660.19 19.45,659.42" fill="none" stroke="#1e1e1e" stroke-width="1.64" stroke-linecap="round" stroke-linejoin="round"/>
<path d="M19.52,651.82L19.96,651.43L19.52,651.82Z" fill-rule="evenodd" fill="#4682b4" fill-opacity="0.471"/>
<polyline points="19.52,651.82 19.96,651.43 19.52,651.82" fill="none" stroke="#1e1e1e" stroke-width="1.64" stroke-linecap="round" stroke-linejoin="round"/>
<path d="M63.41,670.37L62.97,670.62L61.89,667.66L62.68,667.43L63.41,670.37Z" fill-rule="evenodd" fill="#4682b4" fill-opacity="0.471"/>
<polyline points="63.41,670.37 62.97,670.62 61.89,667.66 62.68,667.43 63.41,670.37" fill="none" stroke="#1e1e1e" stroke-width="1.64" stroke-linecap="round" stroke-linejoin="round"/>
<path d="M101.14,663.22L100.27,664.13L98.69,664.19L99.15,663.52L100.17,664.12L101.02,663.15L100.16,662.32L101.14,663.22Z" fill-rule="evenodd" fill="#4682b4" fill-opacity="0.471"/>
<polyline points="101.14,663.22 100.27,664.13 98.69,664.19 99.15,663.52 100.17,664.12 101.02,663.15 100.16,662.32 101.14,663.22" fill="none" stroke="#1e1e1e" stroke-width="1.64" stroke-linecap="round" stroke-linejoin="round"/>
<path d="M126.52,738.09L122.14,737.44L121.79,735.82L121.17,736.95L120.18,736.64L119.8,735.42L120.98,736.76L121.45,735.59L122.57,735.94L122.16,737.27L126.52,738.09Z" fill-rule="evenodd" fill="#4682b4" fill-opacity="0.471"/>
<polyline points="126.52,738.09 122.14,737.44 121.79,735.82 121.17,736.95 120.18,736.64 119.8,735.42 120.98,736.76 121.45,735.59 122.57,735.94 122.16,737.27 126.52,738.09" fill="none" stroke="#1e1e1e" stroke-width="1.64" stroke-linecap="round" stroke-linejoin="round"/>
<path d="M113.63,701.27L112.93,700.89L113.63,701.27Z" fill-rule="evenodd" fill="#4682b4" fill-opacity="0.471"/>
<polyline points="113.63,701.27 112.93,700.89 113.63,701.27" fill="none" stroke="#1e1e1e" stroke-width="1.64" stroke-linecap="round" stroke-linejoin="round"/>
<path d="M111.45,700.09L110.63,699.65L111.45,700.09Z" fill-rule="evenodd" fill="#4682b4" fill-opacity="0.471"/>
<polyline points="111.45,700.09 110.63,699.65 111.45,700.09" fill="none" stroke="#1e1e1e" stroke-width="1.64" stroke-linecap="round" stroke-linejoin="round"/>
<path d="M320.48,1118.48L319.76,1119.52L317.54,1119.87L310.98,1113.86L317.03,1117.89L317.59,1119.84L320.48,1118.48Z" fill-rule="evenodd" fill="#4682b4" fill-opacity="0.471"/>
<polyline points="320.48,1118.48 319.76,1119.52 317.54,1119.87 310.98,1113.86 317.03,1117.89 317.59,1119.84 320.48,1118.48" fill="none" stroke="#1e1e1e" stroke-width="1.64" stroke-linecap="round" stroke-linejoin="round"/>
<path d="M759.85,1579.1L765.38,1589.63L764.59,1592.06L767.36,1593.22L767.69,1596.87L765.54,1598.78L769.29,1604.28L773.52,1604.22L774.18,1607.99L775.32,1606.6L777.42,1608.77L780.8,1608.42L782.11,1611.75L787.23,1612.58L788.27,1616.38L790.53,1614.59L792.49,1616.27L797.58,1615.98L801.84,1619.43L808.34,1619.75L817.26,1627.22L818.2,1634.27L814.7,1639.05L809.07,1641.05L802.23,1639.48L800.03,1641.17L794.22,1631.97L788.87,1634.19L791.45,1636.81L790.94,1638.83L787.05,1638.06L786.9,1640.34L783.52,1642.83L790.58,1648.59L795.15,1649.28L801.01,1653.22L801.39,1656.23L809.64,1661.39L808.56,1666.84L804.29,1666.2L802.6,1670.25L797.25,1670.09L804.68,1672.89L803.61,1678.14L800.65,1677.85L799.56,1679.86L799.93,1682.3L796.3,1682.69L797.25,1678.62L793.96,1677.01L793.2,1678.77L791.73,1676.63L786.39,1677.73L781.58,1676.64L778.62,1678.14L774.29,1676.28L773.03,1678.72L771.3,1676.53L769.46,1679.58L764.93,1679.41L771.72,1686.44L767.84,1688.82L758.36,1683.88L757.34,1680.48L761.05,1678.07L758.51,1674.15L746.65,1674.51L739.73,1672.13L732.51,1672.01L731.26,1672.63L739.9,1676.12L740.75,1678.87L739.42,1681.61L732.77,1683.15L724.89,1688.33L719.9,1688.26L718.11,1690.52L705.29,1696.5L718.58,1692.8L722.53,1694.28L723.69,1696.91L738.44,1701.92L743.51,1711.78L746.92,1710.21L761.97,1713.14L767.28,1711.86L769.71,1714.41L769.77,1717.34L764.15,1720.72L768.14,1727.06L773.94,1727.64L779.93,1732.05L781.93,1729.11L788.4,1725.67L795.94,1729.74L797.73,1728.5L801.42,1730.93L803.48,1730.49L806.51,1733.46L810.34,1732.37L821.82,1747.91L819.69,1758.91L821.4,1770.84L209.96,1767.97L211.43,1576.36L759.85,1579.1ZM736.26,1715.53L737.7,1716.59L742.81,1714.14L736.26,1715.53ZM720.87,1710.57L718.97,1707.83L714.25,1711.47L718.18,1710.05L719.42,1712.16L720.87,1710.57ZM727.24,1704.93L730.31,1703.64L730.12,1702.3L726.14,1702.94L727.24,1704.93Z" fill-rule="evenodd" fill="#4682b4" fill-opacity="0.471"/>
<polyline points="759.85,1579.1 765.38,1589.63 764.59,1592.06 767.36,1593.22 767.69,1596.87 765.54,1598.78 769.29,1604.28 773.52,1604.22 774.18,1607.99 775.32,1606.6 777.42,1608.77 780.8,1608.42 782.11,1611.75 787.23,1612.58 788.27,1616.38 790.53,1614.59 792.49,1616.27 797.58,1615.98 801.84,1619.43 808.34,1619.75 817.26,1627.22 818.2,1634.27 814.7,1639.05 809.07,1641.05 802.23,1639.48 800.03,1641.17 794.22,1631.97 788.87,1634.19 791.45,1636.81 790.94,1638.83 787.05,1638.06 786.9,1640.34 783.52,1642.83 790.58,1648.59 795.15,1649.28 801.01,1653.22 801.39,1656.23 809.64,1661.39 808.56,1666.84 804.29,1666.2 802.6,1670.25 797.25,1670.09 804.68,1672.89 803.61,1678.14 800.65,1677.85 799.56,1679.86 799.93,1682.3 796.3,1682.69 797.25,1678.62 793.96,1677.01 793.2,1678.77 791.73,1676.63 786.39,1677.73 781.58,1676.64 778.62,1678.14 774.29,1676.28 773.03,1678.72 771.3,1676.53 769.46,1679.58 764.93,1679.41 771.72,1686.44 767.84,1688.82 758.36,1683.88 757.34,1680.48 761.05,1678.07 758.51,1674.15 746.65,1674.51 739.73,1672.13 732.51,1672.01 731.26,1672.63 739.9,1676.12 740.75,1678.87 739.42,1681.61 732.77,1683.15 724.89,1688.33 719.9,1688.26 718.11,1690.52 705.29,1696.5 718.58,1692.8 722.53,1694.28 723.69,1696.91 738.44,1701.92 743.51,1711.78 746.92,1710.21 761.97,1713.14 767.28,1711.86 769.71,1714.41 769.77,1717.34 764.15,1720.72 768.14,1727.06 773.94,1727.64 779.93,1732.05 781.93,1729.11 788.4,1725.67 795.94,1729.74 797.73,1728.5 801.42,1730.93 803.48,1730.49 806.51,1733.46 810.34,1732.37 821.82,1747.91 819.69,1758.91 821.4,1770.84 209.96,1767.97 211.43,1576.36 759.85,1579.1" fill="none" stroke="#1e1e1e" stroke-width="1.64" stroke-linecap="round" stroke-linejoin="round"/>
<polyline points="736.26,1715.53 737.7,1716.59 742.81,1714.14 736.26,1715.53" fill="none" stroke="#1e1e1e" stroke-width="1.64" stroke-linecap="round" stroke-linejoin="round"/>
<polyline points="720.87,1710.57 718.97,1707.83 714.25,1711.47 718.18,1710.05 719.42,1712.16 720.87,1710.57" fill="none" stroke="#1e1e1e" stroke-width="1.64" stroke-linecap="round" stroke-linejoin="round"/>
<polyline points="727.24,1704.93 730.31,1703.64 730.12,1702.3 726.14,1702.94 727.24,1704.93" fill="none" stroke="#1e1e1e" stroke-width="1.64" stroke-linecap="round" stroke-linejoin="round"/>
<path d="M211.43,1576.72L215.46,1051.67L217.03,1053.03L215.47,1050.24L215.56,1039.05L216.93,1040.48L219,1046.01L217.32,1047.5L222.88,1047.79L223.27,1043.26L232.85,1042.26L234.23,1040.18L230.97,1038.01L234.37,1040.02L235.46,1037.8L235.22,1039.51L237.23,1039.06L236.48,1038.56L236.97,1037.57L238.96,1035.96L236.58,1038.59L239.3,1036.87L237.31,1039.32L239.5,1040.16L236.76,1039.46L234.79,1041.73L239.89,1042.6L241.51,1039.61L240.03,1042.61L242.44,1041.71L243.56,1043.36L242.28,1041.78L240.63,1043.21L242.44,1042.85L241.62,1044.75L239.18,1046.19L242.33,1048.72L243.19,1047.65L244.74,1048.04L244.93,1047.16L244.73,1048.08L243.05,1047.83L243.19,1049.78L245.11,1049.88L246.94,1048.5L246.28,1047.48L248.81,1046.66L248.63,1047.23L246.35,1047.47L246.97,1048.57L245.15,1049.91L243.18,1049.85L241,1047.67L237.5,1045.94L236.39,1043.01L234.15,1042.71L234.09,1045.87L232.52,1044.58L234.02,1042.99L230.98,1043.62L232.14,1045.91L230.87,1043.34L227.61,1043.83L232.1,1049.42L234.1,1048.67L234.36,1046.53L234.23,1048.67L238.98,1049.84L238.33,1048.13L240.72,1050.13L240.62,1050.82L242.72,1051.11L240.15,1052.09L239.84,1051.01L236.25,1050.99L234.91,1049.27L232.18,1050.28L231.11,1054.19L231.97,1051.53L232.56,1054.26L233.36,1053L234.53,1053.64L236.75,1052.77L235.79,1053.13L236.6,1053.48L235.19,1053.55L236.45,1054.45L233.36,1053.19L233.1,1054.81L239.86,1056.29L236.45,1054.97L238.91,1055.23L237.35,1054L238.83,1054.78L238.83,1052.84L239.09,1054.97L240.74,1054.14L240.16,1052.13L244.21,1052.5L240.55,1052.94L241.02,1055.85L242.62,1056.47L242.84,1054.74L247.43,1052.57L246.99,1051.59L248.68,1049.87L247.02,1051.63L247.59,1052.32L246.78,1054.05L242.99,1054.79L243.46,1056.37L245.87,1054.88L243.08,1058.43L246.18,1058.74L245.73,1060.02L247.6,1060.85L248.95,1057.58L247.33,1061.98L249.91,1061.54L249.68,1060.74L251.37,1059.56L250.56,1059.77L250.12,1061.28L251.11,1062.47L249.01,1061.65L248.55,1063.28L252.08,1065.15L255.29,1064.33L252.59,1065.31L249.01,1064.88L254.22,1069.1L255.62,1073.22L258.6,1071.66L255.82,1073.51L256.48,1075.34L259.32,1074.49L265.37,1076.5L266.74,1075.99L265.42,1076.6L262.7,1076.12L261.83,1074.98L259.88,1075.14L263.06,1077.7L261.53,1076.43L259.45,1076.75L261.21,1076.21L256.83,1076L254.69,1072.85L252.67,1073.18L254.66,1072.76L253.59,1070.97L250.52,1071.3L252.79,1070.17L253.55,1070.77L251.62,1068.33L248.71,1069.08L247.59,1067.38L245.72,1068.52L248.88,1072.02L244.51,1069.06L246.71,1067.24L245.29,1065.11L243.16,1068.23L243.19,1066.12L240.01,1066.41L239.4,1064.74L226.02,1058.37L224.88,1056L227.28,1055.69L226.83,1054.06L222.88,1053.98L225.22,1050.97L222.91,1051.98L221.15,1055.9L217.99,1054.58L269.61,1086.68L267.93,1081.79L260.76,1079.18L259.11,1076.86L260.82,1079.12L267.98,1081.78L269.29,1083.81L269.84,1081.57L269.59,1083.84L271.67,1083.04L270.6,1084.28L272.45,1085.2L274.11,1082.67L274.24,1083.33L272.3,1084.72L273.65,1085.75L276.65,1083.03L274.69,1085.7L277.61,1085.64L273.76,1085.81L273.79,1089.21L273.73,1085.82L271.17,1084.68L269.8,1086.14L280.45,1096.67L283.23,1097.74L284.89,1099.56L308.82,1116.03L337.38,1133.28L337.19,1130.65L333.16,1129.89L334.33,1128.51L333.57,1127.01L336.01,1128.85L338.36,1126.82L336.03,1128.91L338.21,1130.63L337.91,1133.75L362.12,1149.18L379.29,1163.19L381.49,1162.97L381.6,1159.89L377.01,1153.55L375.2,1153.48L375.59,1154.02L374.39,1156.06L374.8,1154.05L375.86,1153.15L370.95,1151.68L369.07,1153.04L366.02,1150.56L365.34,1147.43L362.54,1148.59L362.17,1147.38L364.24,1146.1L363.87,1144.34L363.65,1145.38L361.05,1146.95L359.63,1144.63L353.89,1143.22L355.05,1141.83L354.37,1140.84L352.76,1140.05L351.67,1141.96L350.26,1141.53L350.45,1140.11L349.19,1140.75L349.02,1140.07L350.69,1139.71L350.51,1138.91L349.2,1139.25L349.7,1138.58L348.57,1137.93L349.02,1137.47L347.79,1138.43L347.48,1136.89L349.15,1136.67L348.67,1137.88L350.65,1138.91L351.02,1141.71L352.22,1141.24L352.78,1139.88L354.72,1140.6L355.18,1141.86L353.92,1143.06L356.93,1143.31L359.71,1144.59L361.08,1146.81L363.58,1145.23L362.36,1143.95L362.56,1143.05L364.52,1142.23L363.48,1139.97L364.58,1142.31L363.96,1143.33L363.09,1143.11L363.4,1143.82L362.57,1143.16L362.51,1144.04L363.99,1144.26L364.47,1145.99L362.36,1148.04L365.44,1147.18L366.1,1150.04L367.19,1151.04L366.32,1149.23L366.73,1147.76L365.66,1146.29L366.19,1145.64L366.24,1147.48L368.76,1146.26L367.15,1145.64L368.43,1144.86L368.11,1142.89L368.58,1144.05L367.92,1145.9L368.91,1146.2L367.9,1147.34L366.82,1147.01L366.5,1149.16L369.44,1152.61L371.13,1149.9L368.38,1147.62L370.96,1148.76L371.61,1146.77L370.33,1145.72L371.4,1143.82L370.43,1144.77L368.76,1143.28L370.45,1143.33L369.7,1142.22L370.81,1140.96L369.83,1140.26L370.88,1140.92L369.76,1142.24L370.56,1142.87L369.85,1143.4L370.11,1144.37L371.54,1143.78L371.48,1145.32L370.52,1145.6L371.77,1146.67L371.44,1150.99L375.87,1152.08L377.62,1150.33L376.17,1152.29L380.15,1155.99L385.29,1149.72L383.52,1150.5L381.59,1148.43L384.61,1146.95L383.19,1146.59L382.82,1145.61L384.67,1146.87L385.91,1145.11L386.33,1145.62L384.14,1147.25L383.64,1148.64L382.3,1148.45L383.59,1150.38L384.74,1148.83L385.42,1149.46L383.25,1151.97L383.25,1156.62L384.99,1151.96L387.09,1151L386.93,1149.58L387.27,1151.06L391.16,1149.35L391.78,1149.99L393.67,1147.21L395.83,1147.82L396.04,1145.33L395.93,1147.86L393.11,1148.1L393.72,1149.87L399.72,1148.21L394.6,1150.2L393.59,1149.96L392.79,1148.49L392.05,1150.07L390.93,1150.25L391.09,1151.08L392.23,1151.39L390.93,1150.36L389.1,1150.25L387.07,1152.22L388.85,1153.97L387.8,1154.07L387.4,1155.21L388,1154.59L391.03,1154.8L388.17,1156.1L387.81,1157.98L391.04,1157.59L392.14,1160.01L393.14,1158.18L392.21,1160.06L391.01,1157.67L387.85,1158.21L388.03,1156.12L389.08,1155.28L388,1154.69L387.22,1155.15L386.92,1152.16L387.62,1151.54L385.41,1152.14L385.21,1155.17L383.5,1158.56L383.34,1160.73L383.56,1159.75L385.08,1159.93L383.49,1159.87L382.39,1164.82L382.51,1169.5L384.71,1169.17L385.67,1172.01L384.12,1171.64L384.87,1173.29L384.2,1172.37L384.43,1169.12L382.04,1170.42L381.89,1168.61L380.45,1170.51L385.7,1178.22L385.24,1182.57L387.68,1183.71L386.44,1180.65L387.42,1180.12L386.34,1179.54L387.93,1179.95L387.23,1180.46L387.2,1182.76L388.39,1184.46L390.11,1183.36L393.19,1188.12L390.03,1183.5L388.73,1184.59L387.6,1184.01L389.69,1186.81L390.86,1195.61L394.32,1199.42L394.1,1203.67L412.97,1234.52L414.42,1240.68L421.93,1248.28L421.59,1246.21L418.07,1244.13L418,1241.23L419.09,1239.8L421.25,1239.31L418.26,1241.03L418.28,1244.02L422.95,1246.59L422.38,1244.61L423,1244.25L420.21,1243.13L420.97,1243.7L421.77,1242.28L422.65,1243.49L423.13,1241.2L423.16,1242.89L422.48,1242.85L422.18,1243.91L423.27,1244.8L423.42,1243.5L424.56,1244.1L423.74,1243.41L423.75,1244.67L422.48,1244.56L423.4,1246.32L422.57,1247.94L424.67,1249.64L427.69,1249.1L425.22,1250L422.21,1248.56L432.76,1259.47L438.74,1268.6L440.89,1272.78L440.32,1279.64L442.23,1283.06L454.27,1293.59L456.54,1291.37L454.81,1293.55L455.71,1294.49L454.57,1293.83L468.05,1308.04L478.18,1321.95L480.25,1335.59L524.96,1367.61L534.69,1376.26L546.48,1393.42L563.1,1404.48L580.21,1411.73L588.6,1419.36L604.26,1428.03L605.96,1431.73L614.96,1436.99L619.14,1442.58L619.83,1445.66L617.17,1448.3L621.83,1452.71L622.54,1455.79L625.32,1455.45L641,1463.34L643.92,1467.51L651.32,1471.55L652.38,1475.25L656.72,1478.55L657.85,1483.49L661.55,1483.63L671.27,1490.07L672.91,1494.05L670.85,1495.72L673.28,1495.36L672.92,1497.2L677.82,1498.75L677.84,1500.15L680.84,1499.84L682.35,1501.7L681.7,1504.57L687.5,1507.35L688.62,1510.88L698.26,1513.14L711.99,1524.69L712.22,1527.2L717.31,1527.55L717.1,1529.46L717.86,1528.51L719.18,1530.12L717.6,1531.71L720.03,1531.17L723.98,1535.23L723.72,1537.62L725.9,1539.46L724.22,1540.51L731.03,1542.11L728.09,1544.84L732.24,1547.71L733.6,1545.88L735.78,1547.21L736.1,1549.34L734,1550.08L733.07,1553.15L734.78,1552.63L735.94,1554.53L736.96,1553.25L738.37,1556.36L740.21,1556.07L744.36,1561.82L746.32,1562.04L748.35,1567.7L751.5,1568.45L760.04,1579.46L211.43,1576.72ZM236.74,1043.05L237.62,1045.67L241.58,1044.69L240,1042.95L236.74,1043.05Z" fill-rule="evenodd" fill="#4682b4" fill-opacity="0.471"/>
<polyline points="211.43,1576.72 215.46,1051.67 217.03,1053.03 215.47,1050.24 215.56,1039.05 216.93,1040.48 219,1046.01 217.32,1047.5 222.88,1047.79 223.27,1043.26 232.85,1042.26 234.23,1040.18 230.97,1038.01 234.37,1040.02 235.46,1037.8 235.22,1039.51 237.23,1039.06 236.48,1038.56 236.97,1037.57 238.96,1035.96 236.58,1038.59 239.3,1036.87 237.31,1039.32 239.5,1040.16 236.76,1039.46 234.79,1041.73 239.89,1042.6 241.51,1039.61 240.03,1042.61 242.44,1041.71 243.56,1043.36 242.28,1041.78 240.63,1043.21 242.44,1042.85 241.62,1044.75 239.18,1046.19 242.33,1048.72 243.19,1047.65 244.74,1048.04 244.93,1047.16 244.73,1048.08 243.05,1047.83 243.19,1049.78 245.11,1049.88 246.94,1048.5 246.28,1047.48 248.81,1046.66 248.63,1047.23 246.35,1047.47 246.97,1048.57 245.15,1049.91 243.18,1049.85 241,1047.67 237.5,1045.94 236.39,1043.01 234.15,1042.71 234.09,1045.87 232.52,1044.58 234.02,1042.99 230.98,1043.62 232.14,1045.91 230.87,1043.34 227.61,1043.83 232.1,1049.42 234.1,1048.67 234.36,1046.53 234.23,1048.67 238.98,1049.84 238.33,1048.13 240.72,1050.13 240.62,1050.82 242.72,1051.11 240.15,1052.09 239.84,1051.01 236.25,1050.99 234.91,1049.27 232.18,1050.28 231.11,1054.19 231.97,1051.53 232.56,1054.26 233.36,1053 234.53,1053.64 236.75,1052.77 235.79,1053.13 236.6,1053.48 235.19,1053.55 236.45,1054.45 233.36,1053.19 233.1,1054.81 239.86,1056.29 236.45,1054.97 238.91,1055.23 237.35,1054 238.83,1054.78 238.83,1052.84 239.09,1054.97 240.74,1054.14 240.16,1052.13 244.21,1052.5 240.55,1052.94 241.02,1055.85 242.62,1056.47 242.84,1054.74 247.43,1052.57 246.99,1051.59 248.68,1049.87 247.02,1051.63 247.59,1052.32 246.78,1054.05 242.99,1054.79 243.46,1056.37 245.87,1054.88 243.08,1058.43 246.18,1058.74 245.73,1060.02 247.6,1060.85 248.95,1057.58 247.33,1061.98 249.91,1061.54 249.68,1060.74 251.37,1059.56 250.56,1059.77 250.12,1061.28 251.11,1062.47 249.01,1061.65 248.55,1063.28 252.08,1065.15 255.29,1064.33 252.59,1065.31 249.01,1064.88 254.22,1069.1 255.62,1073.22 258.6,1071.66 255.82,1073.51 256.48,1075.34 259.32,1074.49 265.37,1076.5 266.74,1075.99 265.42,1076.6 262.7,1076.12 261.83,1074.98 259.88,1075.14 263.06,1077.7 261.53,1076.43 259.45,1076.75 261.21,1076.21 256.83,1076 254.69,1072.85 252.67,1073.18 254.66,1072.76 253.59,1070.97 250.52,1071.3 252.79,1070.17 253.55,1070.77 251.62,1068.33 248.71,1069.08 247.59,1067.38 245.72,1068.52 248.88,1072.02 244.51,1069.06 246.71,1067.24 245.29,1065.11 243.16,1068.23 243.19,1066.12 240.01,1066.41 239.4,1064.74 226.02,1058.37 224.88,1056 227.28,1055.69 226.83,1054.06 222.88,1053.98 225.22,1050.97 222.91,1051.98 221.15,1055.9 217.99,1054.58 269.61,1086.68 267.93,1081.79 260.76,1079.18 259.11,1076.86 260.82,1079.12 267.98,1081.78 269.29,1083.81 269.84,1081.57 269.59,1083.84 271.67,1083.04 270.6,1084.28 272.45,1085.2 274.11,1082.67 274.24,1083.33 272.3,1084.72 273.65,1085.75 276.65,1083.03 274.69,1085.7 277.61,1085.64 273.76,1085.81 273.79,1089.21 273.73,1085.82 271.17,1084.68 269.8,1086.14 280.45,1096.67 283.23,1097.74 284.89,1099.56 308.82,1116.03 337.38,1133.28 337.19,1130.65 333.16,1129.89 334.33,1128.51 333.57,1127.01 336.01,1128.85 338.36,1126.82 336.03,1128.91 338.21,1130.63 337.91,1133.75 362.12,1149.18 379.29,1163.19 381.49,1162.97 381.6,1159.89 377.01,1153.55 375.2,1153.48 375.59,1154.02 374.39,1156.06 374.8,1154.05 375.86,1153.15 370.95,1151.68 369.07,1153.04 366.02,1150.56 365.34,1147.43 362.54,1148.59 362.17,1147.38 364.24,1146.1 363.87,1144.34 363.65,1145.38 361.05,1146.95 359.63,1144.63 353.89,1143.22 355.05,1141.83 354.37,1140.84 352.76,1140.05 351.67,1141.96 350.26,1141.53 350.45,1140.11 349.19,1140.75 349.02,1140.07 350.69,1139.71 350.51,1138.91 349.2,1139.25 349.7,1138.58 348.57,1137.93 349.02,1137.47 347.79,1138.43 347.48,1136.89 349.15,1136.67 348.67,1137.88 350.65,1138.91 351.02,1141.71 352.22,1141.24 352.78,1139.88 354.72,1140.6 355.18,1141.86 353.92,1143.06 356.93,1143.31 359.71,1144.59 361.08,1146.81 363.58,1145.23 362.36,1143.95 362.56,1143.05 364.52,1142.23 363.48,1139.97 364.58,1142.31 363.96,1143.33 363.09,1143.11 363.4,1143.82 362.57,1143.16 362.51,1144.04 363.99,1144.26 364.47,1145.99 362.36,1148.04 365.44,1147.18 366.1,1150.04 367.19,1151.04 366.32,1149.23 366.73,1147.76 365.66,1146.29 366.19,1145.64 366.24,1147.48 368.76,1146.26 367.15,1145.64 368.43,1144.86 368.11,1142.89 368.58,1144.05 367.92,1145.9 368.91,1146.2 367.9,1147.34 366.82,1147.01 366.5,1149.16 369.44,1152.61 371.13,1149.9 368.38,1147.62 370.96,1148.76 371.61,1146.77 370.33,1145.72 371.4,1143.82 370.43,1144.77 368.76,1143.28 370.45,1143.33 369.7,1142.22 370.81,1140.96 369.83,1140.26 370.88,1140.92 369.76,1142.24 370.56,1142.87 369.85,1143.4 370.11,1144.37 371.54,1143.78 371.48,1145.32 370.52,1145.6 371.77,1146.67 371.44,1150.99 375.87,1152.08 377.62,1150.33 376.17,1152.29 380.15,1155.99 385.29,1149.72 383.52,1150.5 381.59,1148.43 384.61,1146.95 383.19,1146.59 382.82,1145.61 384.67,1146.87 385.91,1145.11 386.33,1145.62 384.14,1147.25 383.64,1148.64 382.3,1148.45 383.59,1150.38 384.74,1148.83 385.42,1149.46 383.25,1151.97 383.25,1156.62 384.99,1151.96 387.09,1151 386.93,1149.58 387.27,1151.06 391.16,1149.35 391.78,1149.99 393.67,1147.21 395.83,1147.82 396.04,1145.33 395.93,1147.86 393.11,1148.1 393.72,1149.87 399.72,1148.21 394.6,1150.2 393.59,1149.96 392.79,1148.49 392.05,1150.07 390.93,1150.25 391.09,1151.08 392.23,1151.39 390.93,1150.36 389.1,1150.25 387.07,1152.22 388.85,1153.97 387.8,1154.07 387.4,1155.21 388,1154.59 391.03,1154.8 388.17,1156.1 387.81,1157.98 391.04,1157.59 392.14,1160.01 393.14,1158.18 392.21,1160.06 391.01,1157.67 387.85,1158.21 388.03,1156.12 389.08,1155.28 388,1154.69 387.22,1155.15 386.92,1152.16 387.62,1151.54 385.41,1152.14 385.21,1155.17 383.5,1158.56 383.34,1160.73 383.56,1159.75 385.08,1159.93 383.49,1159.87 382.39,1164.82 382.51,1169.5 384.71,1169.17 385.67,1172.01 384.12,1171.64 384.87,1173.29 384.2,1172.37 384.43,1169.12 382.04,1170.42 381.89,1168.61 380.45,1170.51 385.7,1178.22 385.24,1182.57 387.68,1183.71 386.44,1180.65 387.42,1180.12 386.34,1179.54 387.93,1179.95 387.23,1180.46 387.2,1182.76 388.39,1184.46 390.11,1183.36 393.19,1188.12 390.03,1183.5 388.73,1184.59 387.6,1184.01 389.69,1186.81 390.86,1195.61 394.32,1199.42 394.1,1203.67 412.97,1234.52 414.42,1240.68 421.93,1248.28 421.59,1246.21 418.07,1244.13 418,1241.23 419.09,1239.8 421.25,1239.31 418.26,1241.03 418.28,1244.02 422.95,1246.59 422.38,1244.61 423,1244.25 420.21,1243.13 420.97,1243.7 421.77,1242.28 422.65,1243.49 423.13,1241.2 423.16,1242.89 422.48,1242.85 422.18,1243.91 423.27,1244.8 423.42,1243.5 424.56,1244.1 423.74,1243.41 423.75,1244.67 422.48,1244.56 423.4,1246.32 422.57,1247.94 424.67,1249.64 427.69,1249.1 425.22,1250 422.21,1248.56 432.76,1259.47 438.74,1268.6 440.89,1272.78 440.32,1279.64 442.23,1283.06 454.27,1293.59 456.54,1291.37 454.81,1293.55 455.71,1294.49 454.57,1293.83 468.05,1308.04 478.18,1321.95 480.25,1335.59 524.96,1367.61 534.69,1376.26 546.48,1393.42 563.1,1404.48 580.21,1411.73 588.6,1419.36 604.26,1428.03 605.96,1431.73 614.96,1436.99 619.14,1442.58 619.83,1445.66 617.17,1448.3 621.83,1452.71 622.54,1455.79 625.32,1455.45 641,1463.34 643.92,1467.51 651.32,1471.55 652.38,1475.25 656.72,1478.55 657.85,1483.49 661.55,1483.63 671.27,1490.07 672.91,1494.05 670.85,1495.72 673.28,1495.36 672.92,1497.2 677.82,1498.75 677.84,1500.15 680.84,1499.84 682.35,1501.7 681.7,1504.57 687.5,1507.35 688.62,1510.88 698.26,1513.14 711.99,1524.69 712.22,1527.2 717.31,1527.55 717.1,1529.46 717.86,1528.51 719.18,1530.12 717.6,1531.71 720.03,1531.17 723.98,1535.23 723.72,1537.62 725.9,1539.46 724.22,1540.51 731.03,1542.11 728.09,1544.84 732.24,1547.71 733.6,1545.88 735.78,1547.21 736.1,1549.34 734,1550.08 733.07,1553.15 734.78,1552.63 735.94,1554.53 736.96,1553.25 738.37,1556.36 740.21,1556.07 744.36,1561.82 746.32,1562.04 748.35,1567.7 751.5,1568.45 760.04,1579.46 211.43,1576.72" fill="none" stroke="#1e1e1e" stroke-width="1.64" stroke-linecap="round" stroke-linejoin="round"/>
<polyline points="236.74,1043.05 237.62,1045.67 241.58,1044.69 240,1042.95 236.74,1043.05" fill="none" stroke="#1e1e1e" stroke-width="1.64" stroke-linecap="round" stroke-linejoin="round"/>
<path d="M319.44,1117.25L316.92,1114.2L317.75,1112.17L316.9,1112.94L315.12,1112.28L316.11,1110.16L315.05,1109.69L314.83,1108.48L316.43,1109.01L315.05,1109.43L316.18,1110.09L315.23,1112.22L316.39,1111.75L316.98,1112.81L317.68,1112.01L319.46,1113.25L320.17,1112.32L324.69,1116.02L323.13,1118.41L325.33,1118.19L324.69,1119.94L322.06,1117.69L323.73,1117.46L323.62,1115.19L318.09,1112.84L317.03,1114.14L319.44,1116.57L320.09,1114.56L321.16,1114.75L320.03,1115.15L320.42,1116.08L319.44,1117.25Z" fill-rule="evenodd" fill="#4682b4" fill-opacity="0.471"/>
<polyline points="319.44,1117.25 316.92,1114.2 317.75,1112.17 316.9,1112.94 315.12,1112.28 316.11,1110.16 315.05,1109.69 314.83,1108.48 316.43,1109.01 315.05,1109.43 316.18,1110.09 315.23,1112.22 316.39,1111.75 316.98,1112.81 317.68,1112.01 319.46,1113.25 320.17,1112.32 324.69,1116.02 323.13,1118.41 325.33,1118.19 324.69,1119.94 322.06,1117.69 323.73,1117.46 323.62,1115.19 318.09,1112.84 317.03,1114.14 319.44,1116.57 320.09,1114.56 321.16,1114.75 320.03,1115.15 320.42,1116.08 319.44,1117.25" fill="none" stroke="#1e1e1e" stroke-width="1.64" stroke-linecap="round" stroke-linejoin="round"/>
<path d="M324.99,1120.23L323.3,1121.63L324.99,1120.23Z" fill-rule="evenodd" fill="#4682b4" fill-opacity="0.471"/>
<polyline points="324.99,1120.23 323.3,1121.63 324.99,1120.23" fill="none" stroke="#1e1e1e" stroke-width="1.64" stroke-linecap="round" stroke-linejoin="round"/>
<path d="M326.88,1121.8L327.59,1122.39L328.58,1121.39L327.38,1120.74L329.84,1120.33L328.07,1119.36L328.78,1118.67L328.09,1119.34L329.69,1119.94L330.83,1122.05L336.01,1118.82L338.98,1118.37L338.5,1119.2L335.97,1118.91L335.23,1120.52L333.16,1121.85L329.97,1122.15L331.33,1123.99L329.96,1123.82L329.66,1121.28L327.65,1122.58L326.88,1121.8Z" fill-rule="evenodd" fill="#4682b4" fill-opacity="0.471"/>
<polyline points="326.88,1121.8 327.59,1122.39 328.58,1121.39 327.38,1120.74 329.84,1120.33 328.07,1119.36 328.78,1118.67 328.09,1119.34 329.69,1119.94 330.83,1122.05 336.01,1118.82 338.98,1118.37 338.5,1119.2 335.97,1118.91 335.23,1120.52 333.16,1121.85 329.97,1122.15 331.33,1123.99 329.96,1123.82 329.66,1121.28 327.65,1122.58 326.88,1121.8" fill="none" stroke="#1e1e1e" stroke-width="1.64" stroke-linecap="round" stroke-linejoin="round"/>
<path d="M332.2,1125.17L332.63,1125.74L331.82,1126.46L326.39,1124.36L328.2,1123.99L331.84,1126.41L332.2,1125.17Z" fill-rule="evenodd" fill="#4682b4" fill-opacity="0.471"/>
<polyline points="332.2,1125.17 332.63,1125.74 331.82,1126.46 326.39,1124.36 328.2,1123.99 331.84,1126.41 332.2,1125.17" fill="none" stroke="#1e1e1e" stroke-width="1.64" stroke-linecap="round" stroke-linejoin="round"/>
<path d="M283.96,1097.98L284.19,1096.1L285.05,1095.71L280.52,1092.56L288.04,1096.32L286.08,1096.49L286.36,1097.88L285.54,1097.41L285.86,1095.38L285.16,1095.47L284.29,1096.52L285.69,1098.81L283.96,1097.98Z" fill-rule="evenodd" fill="#4682b4" fill-opacity="0.471"/>
<polyline points="283.96,1097.98 284.19,1096.1 285.05,1095.71 280.52,1092.56 288.04,1096.32 286.08,1096.49 286.36,1097.88 285.54,1097.41 285.86,1095.38 285.16,1095.47 284.29,1096.52 285.69,1098.81 283.96,1097.98" fill="none" stroke="#1e1e1e" stroke-width="1.64" stroke-linecap="round" stroke-linejoin="round"/>
<path d="M286.66,1099.28L287.86,1098.31L288.89,1098.49L288.58,1097.73L289,1098.16L286.66,1099.28Z" fill-rule="evenodd" fill="#4682b4" fill-opacity="0.471"/>
<polyline points="286.66,1099.28 287.86,1098.31 288.89,1098.49 288.58,1097.73 289,1098.16 286.66,1099.28" fill="none" stroke="#1e1e1e" stroke-width="1.64" stroke-linecap="round" stroke-linejoin="round"/>
<path d="M290.61,1101.18L291.44,1100.52L290.51,1099.32L292.5,1100.61L291.57,1101.65L290.61,1101.18Z" fill-rule="evenodd" fill="#4682b4" fill-opacity="0.471"/>
<polyline points="290.61,1101.18 291.44,1100.52 290.51,1099.32 292.5,1100.61 291.57,1101.65 290.61,1101.18" fill="none" stroke="#1e1e1e" stroke-width="1.64" stroke-linecap="round" stroke-linejoin="round"/>
<path d="M295.08,1103.34L296.01,1102.03L295.26,1102.53L295.54,1103.56L295.08,1103.34Z" fill-rule="evenodd" fill="#4682b4" fill-opacity="0.471"/>
<polyline points="295.08,1103.34 296.01,1102.03 295.26,1102.53 295.54,1103.56 295.08,1103.34" fill="none" stroke="#1e1e1e" stroke-width="1.64" stroke-linecap="round" stroke-linejoin="round"/>
<path d="M297.77,1106.38L300.34,1109.63L301.8,1106.81L302.06,1108.34L300.63,1109.28L301.09,1109.85L297.77,1106.38Z" fill-rule="evenodd" fill="#4682b4" fill-opacity="0.471"/>
<polyline points="297.77,1106.38 300.34,1109.63 301.8,1106.81 302.06,1108.34 300.63,1109.28 301.09,1109.85 297.77,1106.38" fill="none" stroke="#1e1e1e" stroke-width="1.64" stroke-linecap="round" stroke-linejoin="round"/>
<path d="M308.1,1111.73L308.68,1110.28L309.96,1109.64L310.13,1110.36L308.1,1111.73Z" fill-rule="evenodd" fill="#4682b4" fill-opacity="0.471"/>
<polyline points="308.1,1111.73 308.68,1110.28 309.96,1109.64 310.13,1110.36 308.1,1111.73" fill="none" stroke="#1e1e1e" stroke-width="1.64" stroke-linecap="round" stroke-linejoin="round"/>
<path d="M322.65,1122.11L322.15,1121.42L322.65,1122.11Z" fill-rule="evenodd" fill="#4682b4" fill-opacity="0.471"/>
<polyline points="322.65,1122.11 322.15,1121.42 322.65,1122.11" fill="none" stroke="#1e1e1e" stroke-width="1.64" stroke-linecap="round" stroke-linejoin="round"/>
<path d="M1658.08,1768.9L1650.41,1735.43L1651.09,1731.7L1636.71,1701.39L1628.58,1688.19L1617.67,1678.83L1597.2,1672.08L1589.22,1667.14L1571.48,1643.77L1558.68,1618.91L1548.64,1592.15L1545.13,1577.94L1989.37,1574.62L1991.22,1766.22L1658.08,1768.9Z" fill-rule="evenodd" fill="#4682b4" fill-opacity="0.471"/>
<polyline points="1658.08,1768.9 1650.41,1735.43 1651.09,1731.7 1636.71,1701.39 1628.58,1688.19 1617.67,1678.83 1597.2,1672.08 1589.22,1667.14 1571.48,1643.77 1558.68,1618.91 1548.64,1592.15 1545.13,1577.94 1989.37,1574.62 1991.22,1766.22 1658.08,1768.9" fill="none" stroke="#1e1e1e" stroke-width="1.64" stroke-linecap="round" stroke-linejoin="round"/>
<path d="M1989.37,1574.98L1545.22,1578.3L1535.69,1539.76L1533.87,1506.61L1536.9,1488.66L1539.11,1488.11L1539.98,1483.91L1542.38,1483.2L1547.35,1473.1L1550.38,1472.68L1552.27,1468.66L1563.46,1471.11L1566.79,1457.59L1568.79,1456.57L1570.58,1457.72L1573.56,1444.26L1582.45,1421.69L1586.2,1422.02L1589.57,1419.38L1593.06,1420.71L1595.75,1419.72L1597.3,1421.54L1600.18,1414.24L1606.07,1410.76L1611.78,1404.01L1618.4,1406.95L1618.54,1408.94L1621.01,1410.3L1621,1408.53L1624.38,1408.2L1623.68,1405.42L1625.53,1403.88L1624,1401.72L1625.24,1399.1L1622.4,1398.13L1620.66,1395.23L1611.1,1339.35L1603.01,1317.38L1600.83,1301.44L1598.81,1301.81L1594.5,1297.64L1591.52,1276.54L1591.82,1261.14L1595.1,1248.65L1596.15,1247.03L1606.12,1248.32L1609.68,1246.13L1607.75,1240.89L1606.27,1213.55L1607.33,1170.72L1609.65,1168.79L1611.36,1150.55L1615.84,1132.32L1622.85,1116.4L1633.24,1101.66L1633.38,1099.62L1630.94,1097.37L1632.17,1095.47L1650.01,1087.84L1667.61,1084.72L1678.02,1086.38L1681.68,1085.12L1684.62,1078.94L1685.71,1058.1L1685.29,1053.97L1673.35,1037.01L1668.78,1027.67L1664.33,1011.88L1661.93,992.26L1662.05,970.55L1667.45,917.71L1677.02,876.62L1673.87,873.45L1670.19,860.85L1659.18,805.21L1651.48,755.38L1649.29,705.28L1655.05,653.75L1661.76,628.26L1667.61,617.06L1665.03,610.79L1666.95,607.49L1668.4,582.87L1677.7,524.19L1685.12,497.37L1692.91,483.68L1693.49,476.97L1691.47,475.49L1696.46,460.4L1978.61,458.07L1989.37,1574.98ZM1854.4,1171.68L1851.48,1173.81L1853.46,1181.78L1856.49,1181.91L1859.44,1175.31L1864.4,1173.83L1867.09,1169.5L1861.62,1165.88L1855.1,1167.21L1853.56,1169.65L1854.4,1171.68ZM1890.56,1129.12L1887.52,1118.69L1883.07,1119.99L1883.26,1124.25L1886.57,1124.8L1889.1,1129.71L1890.56,1129.12Z" fill-rule="evenodd" fill="#4682b4" fill-opacity="0.471"/>
<polyline points="1989.37,1574.98 1545.22,1578.3 1535.69,1539.76 1533.87,1506.61 1536.9,1488.66 1539.11,1488.11 1539.98,1483.91 1542.38,1483.2 1547.35,1473.1 1550.38,1472.68 1552.27,1468.66 1563.46,1471.11 1566.79,1457.59 1568.79,1456.57 1570.58,1457.72 1573.56,1444.26 1582.45,1421.69 1586.2,1422.02 1589.57,1419.38 1593.06,1420.71 1595.75,1419.72 1597.3,1421.54 1600.18,1414.24 1606.07,1410.76 1611.78,1404.01 1618.4,1406.95 1618.54,1408.94 1621.01,1410.3 1621,1408.53 1624.38,1408.2 1623.68,1405.42 1625.53,1403.88 1624,1401.72 1625.24,1399.1 1622.4,1398.13 1620.66,1395.23 1611.1,1339.35 1603.01,1317.38 1600.83,1301.44 1598.81,1301.81 1594.5,1297.64 1591.52,1276.54 1591.82,1261.14 1595.1,1248.65 1596.15,1247.03 1606.12,1248.32 1609.68,1246.13 1607.75,1240.89 1606.27,1213.55 1607.33,1170.72 1609.65,1168.79 1611.36,1150.55 1615.84,1132.32 1622.85,1116.4 1633.24,1101.66 1633.38,1099.62 1630.94,1097.37 1632.17,1095.47 1650.01,1087.84 1667.61,1084.72 1678.02,1086.38 1681.68,1085.12 1684.62,1078.94 1685.71,1058.1 1685.29,1053.97 1673.35,1037.01 1668.78,1027.67 1664.33,1011.88 1661.93,992.26 1662.05,970.55 1667.45,917.71 1677.02,876.62 1673.87,873.45 1670.19,860.85 1659.18,805.21 1651.48,755.38 1649.29,705.28 1655.05,653.75 1661.76,628.26 1667.61,617.06 1665.03,610.79 1666.95,607.49 1668.4,582.87 1677.7,524.19 1685.12,497.37 1692.91,483.68 1693.49,476.97 1691.47,475.49 1696.46,460.4 1978.61,458.07 1989.37,1574.98" fill="none" stroke="#1e1e1e" stroke-width="1.64" stroke-linecap="round" stroke-linejoin="round"/>
<polyline points="1854.4,1171.68 1851.48,1173.81 1853.46,1181.78 1856.49,1181.91 1859.44,1175.31 1864.4,1173.83 1867.09,1169.5 1861.62,1165.88 1855.1,1167.21 1853.56,1169.65 1854.4,1171.68" fill="none" stroke="#1e1e1e" stroke-width="1.64" stroke-linecap="round" stroke-linejoin="round"/>
<polyline points="1890.56,1129.12 1887.52,1118.69 1883.07,1119.99 1883.26,1124.25 1886.57,1124.8 1889.1,1129.71 1890.56,1129.12" fill="none" stroke="#1e1e1e" stroke-width="1.64" stroke-linecap="round" stroke-linejoin="round"/>
<path d="M1978.61,458.43L1696.34,460.75L1699.04,452.61L1711.86,427.28L1718.1,421.2L1721.37,421.18L1733.36,409.15L1741.86,393.59L1759.13,371.44L1772,346.77L1792.66,300.28L1793.29,286.95L1786.93,262.19L1786.55,248.79L1762.8,182.42L1753.17,138.38L1751.54,116.58L1753.41,112.98L1753.44,97.78L1766.93,62.45L1775.3,49.76L1770.35,51.72L1769.7,50.08L1774.66,39.53L1780.65,32.15L1779.59,36.85L1784.34,40.43L1786.93,35.82L1785.27,34.38L1789.54,29.1L1791.9,31.38L1798.84,31.21L1797.74,33.4L1800.35,33.56L1798.24,35.42L1796.12,35.09L1797.59,36.06L1801.44,33.89L1811.5,25.77L1818.61,26.54L1817.72,23.95L1813.14,22.83L1818.03,18.73L1799.33,16.19L1781.18,9.68L1974.27,8L1978.61,458.43ZM1780.66,43.71L1779.23,43.76L1773.72,52.21L1783.6,42.33L1795.71,37.25L1796.58,36.12L1792.44,36.38L1793.98,37.44L1790.01,36.63L1790.94,37.81L1786.7,38.06L1782.47,42.38L1783.26,41.02L1779.46,42.98L1780.66,43.71ZM1786.94,35.84L1785.67,38.7L1788.43,34.62L1786.94,35.84ZM1821.63,25.06L1821.79,23.64L1819.18,20.95L1816.3,22.47L1819.77,25.27L1821.56,24.46L1821.09,25.64L1820.25,25.36L1821.16,26.26L1821.63,25.06Z" fill-rule="evenodd" fill="#4682b4" fill-opacity="0.471"/>
<polyline points="1978.61,458.43 1696.34,460.75 1699.04,452.61 1711.86,427.28 1718.1,421.2 1721.37,421.18 1733.36,409.15 1741.86,393.59 1759.13,371.44 1772,346.77 1792.66,300.28 1793.29,286.95 1786.93,262.19 1786.55,248.79 1762.8,182.42 1753.17,138.38 1751.54,116.58 1753.41,112.98 1753.44,97.78 1766.93,62.45 1775.3,49.76 1770.35,51.72 1769.7,50.08 1774.66,39.53 1780.65,32.15 1779.59,36.85 1784.34,40.43 1786.93,35.82 1785.27,34.38 1789.54,29.1 1791.9,31.38 1798.84,31.21 1797.74,33.4 1800.35,33.56 1798.24,35.42 1796.12,35.09 1797.59,36.06 1801.44,33.89 1811.5,25.77 1818.61,26.54 1817.72,23.95 1813.14,22.83 1818.03,18.73 1799.33,16.19 1781.18,9.68 1974.27,8 1978.61,458.43" fill="none" stroke="#1e1e1e" stroke-width="1.64" stroke-linecap="round" stroke-linejoin="round"/>
<polyline points="1780.66,43.71 1779.23,43.76 1773.72,52.21 1783.6,42.33 1795.71,37.25 1796.58,36.12 1792.44,36.38 1793.98,37.44 1790.01,36.63 1790.94,37.81 1786.7,38.06 1782.47,42.38 1783.26,41.02 1779.46,42.98 1780.66,43.71" fill="none" stroke="#1e1e1e" stroke-width="1.64" stroke-linecap="round" stroke-linejoin="round"/>
<polyline points="1786.94,35.84 1785.67,38.7 1788.43,34.62 1786.94,35.84" fill="none" stroke="#1e1e1e" stroke-width="1.64" stroke-linecap="round" stroke-linejoin="round"/>
<polyline points="1821.63,25.06 1821.79,23.64 1819.18,20.95 1816.3,22.47 1819.77,25.27 1821.56,24.46 1821.09,25.64 1820.25,25.36 1821.16,26.26 1821.63,25.06" fill="none" stroke="#1e1e1e" stroke-width="1.64" stroke-linecap="round" stroke-linejoin="round"/>
<path d="M10.63,1574.62L211.79,1576.36L210.32,1767.97L8.78,1766.22L10.63,1574.62Z" fill-rule="evenodd" fill="#4682b4" fill-opacity="0.471"/>
<polyline points="10.63,1574.62 211.79,1576.36 210.32,1767.97 8.78,1766.22 10.63,1574.62" fill="none" stroke="#1e1e1e" stroke-width="1.64" stroke-linecap="round" stroke-linejoin="round"/>
</svg>
