<?xml version="1.0" encoding="UTF-8" standalone="no"?>
<svg xmlns="http://www.w3.org/2000/svg" width="2000" height="1779" viewBox="0 0 2000 1779">
<rect width="2000" height="1779" fill="#ffffff"/>
<polyline points="821.4,1770.84 819.69,1758.91 821.82,1747.91 810.34,1732.37 806.51,1733.46 803.48,1730.49 801.42,1730.93 797.73,1728.5 795.94,1729.74 788.4,1725.67 781.93,1729.11 779.93,1732.05 773.94,1727.64 768.14,1727.06 764.15,1720.72 769.77,1717.34 769.71,1714.41 767.28,1711.86 761.97,1713.14 746.92,1710.21 743.51,1711.78 738.44,1701.92 723.69,1696.91 722.53,1694.28 718.58,1692.8 705.29,1696.5 718.11,1690.52 719.9,1688.26 724.89,1688.33 732.77,1683.15 739.42,1681.61 740.75,1678.87 739.9,1676.12 731.26,1672.63 732.51,1672.01 739.73,1672.13 746.65,1674.51 758.51,1674.15 761.05,1678.07 757.34,1680.48 758.36,1683.88 767.84,1688.82 771.72,1686.44 764.93,1679.41 769.46,1679.58 771.3,1676.53 773.03,1678.72 774.29,1676.28 778.62,1678.14 781.58,1676.64 786.39,1677.73 791.73,1676.63 793.2,1678.77 793.96,1677.01 797.25,1678.62 796.3,1682.69 799.93,1682.3 799.56,1679.86 800.65,1677.85 803.61,1678.14 804.68,1672.89 797.25,1670.09 802.6,1670.25 804.29,1666.2 808.56,1666.84 809.64,1661.39 801.39,1656.23 801.01,1653.22 795.15,1649.28 790.58,1648.59 783.52,1642.83 786.9,1640.34 787.05,1638.06 790.94,1638.83 791.45,1636.81 788.87,1634.19 794.22,1631.97 800.03,1641.17 802.23,1639.48 809.07,1641.05 814.7,1639.05 818.2,1634.27 817.26,1627.22 808.34,1619.75 801.84,1619.43 797.58,1615.98 792.49,1616.27 790.53,1614.59 788.27,1616.38 787.23,1612.58 782.11,1611.75 780.8,1608.42 777.42,1608.77 775.32,1606.6 774.18,1607.99 773.52,1604.22 769.29,1604.28 765.54,1598.78 767.69,1596.87 767.36,1593.22 764.59,1592.06 765.38,1589.63 759.68,1578.78 751.5,1568.45 748.35,1567.7 746.32,1562.04 744.36,1561.82 740.21,1556.07 738.37,1556.36 736.96,1553.25 735.94,1554.53 734.78,1552.63 733.07,1553.15 734,1550.08 736.1,1549.34 735.78,1547.21 733.6,1545.88 732.24,1547.71 728.09,1544.84 731.03,1542.11 724.22,1540.51 725.9,1539.46 723.72,1537.62 723.98,1535.23 720.03,1531.17 717.6,1531.71 719.18,1530.12 717.86,1528.51 717.1,1529.46 717.31,1527.55 712.22,1527.2 711.99,1524.69 698.26,1513.14 688.62,1510.88 687.5,1507.35 681.7,1504.57 682.35,1501.7 680.84,1499.84 677.84,1500.15 677.82,1498.75 672.92,1497.2 673.28,1495.36 670.85,1495.72 672.91,1494.05 671.27,1490.07 661.55,1483.63 657.85,1483.49 656.72,1478.55 652.38,1475.25 651.32,1471.55 643.92,1467.51 641,1463.34 625.32,1455.45 622.54,1455.79 621.83,1452.71 617.17,1448.3 619.83,1445.66 619.14,1442.58 614.96,1436.99 605.96,1431.73 604.26,1428.03 588.6,1419.36 580.21,1411.73 563.1,1404.48 546.48,1393.42 534.69,1376.26 524.96,1367.61 480.25,1335.59 478.18,1321.95 468.05,1308.04 454.57,1293.83 455.71,1294.49 454.81,1293.55 456.54,1291.37 454.27,1293.59 442.23,1283.06 440.32,1279.64 440.89,1272.78 438.74,1268.6 432.76,1259.47 422.21,1248.56 425.22,1250 427.69,1249.1 424.67,1249.64 422.57,1247.94 423.4,1246.32 422.48,1244.56 423.75,1244.67 423.74,1243.41 424.56,1244.1 423.42,1243.5 423.27,1244.8 422.18,1243.91 422.48,1242.85 423.16,1242.89 423.13,1241.2 422.65,1243.49 421.77,1242.28 420.97,1243.7 420.21,1243.13 423,1244.25 422.38,1244.61 422.95,1246.59 418.28,1244.02 418.26,1241.03 421.25,1239.31 419.09,1239.8 418,1241.23 418.07,1244.13 421.59,1246.21 421.93,1248.28 414.42,1240.68 412.97,1234.52 394.1,1203.67 394.32,1199.42 390.86,1195.61 389.69,1186.81 387.6,1184.01 388.73,1184.59 390.03,1183.5 393.19,1188.12 390.11,1183.36 388.39,1184.46 387.2,1182.76 387.23,1180.46 387.93,1179.95 386.34,1179.54 387.42,1180.12 386.44,1180.65 387.68,1183.71 385.24,1182.57 385.7,1178.22 380.45,1170.51 381.89,1168.61 382.04,1170.42 384.43,1169.12 384.2,1172.37 384.87,1173.29 384.12,1171.64 385.67,1172.01 384.71,1169.17 382.51,1169.5 382.39,1164.82 383.49,1159.87 385.08,1159.93 383.56,1159.75 383.34,1160.73 383.5,1158.56 385.21,1155.17 385.41,1152.14 387.62,1151.54 386.92,1152.16 387.22,1155.15 388,1154.69 389.08,1155.28 388.03,1156.12 387.85,1158.21 391.01,1157.67 392.21,1160.06 393.14,1158.18 392.14,1160.01 391.04,1157.59 387.81,1157.98 388.17,1156.1 391.03,1154.8 388,1154.59 387.4,1155.21 387.8,1154.07 388.85,1153.97 387.07,1152.22 389.1,1150.25 390.93,1150.36 392.23,1151.39 391.09,1151.08 390.93,1150.25 392.05,1150.07 392.79,1148.49 393.59,1149.96 394.6,1150.2 399.72,1148.21 393.72,1149.87 393.11,1148.1 395.93,1147.86 396.04,1145.33 395.83,1147.82 393.67,1147.21 391.78,1149.99 391.16,1149.35 387.27,1151.06 386.93,1149.58 387.09,1151 384.99,1151.96 383.25,1156.62 383.25,1151.97 385.42,1149.46 384.74,1148.83 383.59,1150.38 382.3,1148.45 383.64,1148.64 384.14,1147.25 386.33,1145.62 385.91,1145.11 384.67,1146.87 382.82,1145.61 383.19,1146.59 384.61,1146.95 381.59,1148.43 383.52,1150.5 385.29,1149.72 380.15,1155.99 376.17,1152.29 377.62,1150.33 375.87,1152.08 371.44,1150.99 371.77,1146.67 370.52,1145.6 371.48,1145.32 371.54,1143.78 370.11,1144.37 369.85,1143.4 370.56,1142.87 369.76,1142.24 370.88,1140.92 369.83,1140.26 370.81,1140.96 369.7,1142.22 370.45,1143.33 368.76,1143.28 370.43,1144.77 371.4,1143.82 370.33,1145.72 371.61,1146.77 370.96,1148.76 368.38,1147.62 371.13,1149.9 369.44,1152.61 366.5,1149.16 366.82,1147.01 367.9,1147.34 368.91,1146.2 367.92,1145.9 368.58,1144.05 368.11,1142.89 368.43,1144.86 367.15,1145.64 368.76,1146.26 366.24,1147.48 366.19,1145.64 365.66,1146.29 366.73,1147.76 366.32,1149.23 367.19,1151.04 366.1,1150.04 365.44,1147.18 362.36,1148.04 364.47,1145.99 363.99,1144.26 362.51,1144.04 362.57,1143.16 363.4,1143.82 363.09,1143.11 363.96,1143.33 364.58,1142.31 363.48,1139.97 364.52,1142.23 362.56,1143.05 362.36,1143.95 363.58,1145.23 361.08,1146.81 359.71,1144.59 356.93,1143.31 353.92,1143.06 355.18,1141.86 354.72,1140.6 352.78,1139.88 352.22,1141.24 351.02,1141.71 350.65,1138.91 348.67,1137.88 349.15,1136.67 347.48,1136.89 347.79,1138.43 349.02,1137.47 348.57,1137.93 349.7,1138.58 349.2,1139.25 350.51,1138.91 350.69,1139.71 349.02,1140.07 349.19,1140.75 350.45,1140.11 350.26,1141.53 351.67,1141.96 352.76,1140.05 354.37,1140.84 355.05,1141.83 353.89,1143.22 359.63,1144.63 361.05,1146.95 363.65,1145.38 363.87,1144.34 364.24,1146.1 362.17,1147.38 362.54,1148.59 365.34,1147.43 366.02,1150.56 369.07,1153.04 370.95,1151.68 375.86,1153.15 374.8,1154.05 374.39,1156.06 375.59,1154.02 375.2,1153.48 377.01,1153.55 381.6,1159.89 381.49,1162.97 379.29,1163.19 362.12,1149.18 337.91,1133.75 338.21,1130.63 336.03,1128.91 338.36,1126.82 336.01,1128.85 334.49,1128.25 329.97,1122.15 333.16,1121.85 335.23,1120.52 335.97,1118.91 338.5,1119.2 338.98,1118.37 336.01,1118.82 330.83,1122.05 329.69,1119.94 328.09,1119.34 328.78,1118.67 328.07,1119.36 329.84,1120.33 327.38,1120.74 328.58,1121.39 327.59,1122.39 324.68,1119.97 325.33,1118.19 323.13,1118.41 324.69,1116.02 323.66,1115.16 320.17,1112.32 319.46,1113.25 317.68,1112.01 316.98,1112.81 316.39,1111.75 315.23,1112.22 316.18,1110.09 315.05,1109.43 316.43,1109.01 314.83,1108.48 315.05,1109.69 316.11,1110.16 315.12,1112.28 316.9,1112.94 317.75,1112.17 316.92,1114.2 320.42,1118.44 317.59,1119.84 317.03,1117.89 308.16,1111.98 310.13,1110.36 309.96,1109.64 308.68,1110.28 307.8,1112.48 301.2,1109.99 300.63,1109.28 302.06,1108.34 301.8,1106.81 300.34,1109.63 295.48,1103.48 295.26,1102.53 296.01,1102.03 294.95,1104.15 291.09,1102.18 292.5,1100.61 290.51,1099.32 291.44,1100.52 290.24,1101.48 286.53,1099.97 287.73,1098.43 289,1098.16 288.58,1097.73 288.89,1098.49 287.37,1098.49 286.25,1099.74 284.29,1096.52 285.86,1095.38 285.54,1097.41 286.36,1097.88 286.08,1096.49 288.04,1096.32 282.09,1092.86 280.52,1092.56 285.05,1095.71 284.19,1096.1 283.96,1098.02 280.45,1096.67 269.8,1086.14 271.17,1084.68 273.73,1085.82 273.79,1089.21 273.76,1085.81 277.61,1085.64 274.69,1085.7 276.65,1083.03 273.65,1085.75 272.3,1084.72 274.24,1083.33 274.11,1082.67 272.45,1085.2 270.6,1084.28 271.67,1083.04 269.59,1083.84 269.84,1081.57 269.29,1083.81 267.98,1081.78 260.82,1079.12 259.41,1076.76 261.53,1076.43 263.18,1077.7 259.88,1075.14 261.83,1074.98 262.7,1076.12 265.42,1076.6 266.74,1075.99 265.37,1076.5 259.32,1074.49 256.48,1075.34 255.82,1073.51 258.6,1071.66 255.62,1073.22 254.22,1069.1 249.01,1064.88 252.59,1065.31 255.29,1064.33 252.08,1065.15 248.55,1063.28 249.01,1061.65 251.11,1062.47 250.12,1061.28 250.56,1059.77 251.37,1059.56 249.68,1060.74 249.91,1061.54 247.33,1061.98 248.95,1057.58 247.6,1060.85 245.73,1060.02 246.18,1058.74 243.08,1058.43 245.87,1054.88 243.46,1056.37 242.99,1054.79 246.78,1054.05 247.59,1052.32 247.02,1051.63 248.68,1049.87 246.99,1051.59 247.43,1052.57 242.84,1054.74 242.62,1056.47 241.02,1055.85 240.55,1052.94 244.21,1052.5 240.06,1052.12 242.72,1051.11 240.62,1050.82 240.99,1048.24 243.18,1049.85 245.15,1049.91 246.97,1048.57 246.35,1047.47 248.46,1047.36 248.81,1046.66 246.28,1047.48 246.94,1048.5 246.52,1049.12 243.19,1049.78 243.05,1047.83 244.73,1048.08 244.93,1047.16 244.74,1048.04 243.19,1047.65 242.33,1048.72 239.18,1046.19 241.62,1044.75 242.44,1042.85 240.63,1043.21 242.28,1041.78 243.56,1043.36 242.44,1041.71 240.03,1042.61 241.51,1039.61 239.89,1042.6 234.79,1041.73 236.76,1039.46 239.5,1040.16 237.31,1039.32 239.3,1036.87 236.58,1038.59 238.96,1035.96 236.97,1037.57 236.48,1038.56 237.23,1039.06 235.22,1039.51 235.46,1037.8 234.37,1040.02 230.97,1038.01 234.23,1040.18 232.85,1042.26 223.27,1043.26 222.88,1047.79 217.32,1047.5 219,1046.01 216.93,1040.48 200.47,1023.28 164.33,997.86 156.01,994.57 152.66,995.54 152.73,993.1 154.23,993.99 153.83,991.11 145.02,984.56 146.31,984.06 145.86,980.4 134.88,967.28 133.2,960.74 119.56,949.64 113.82,941.53 102.4,932.9 101.98,930.69 96.9,929.27 82.62,916.1 39.84,889.17 17.42,870.07" fill="none" stroke="#1e1e1e" stroke-width="1.64" stroke-linecap="round" stroke-linejoin="round"/>
<polyline points="17.43,868.47 23.49,848.13 28.48,843.38 29.97,838.17 47.34,829.76 55.22,818.83 61.28,799.42 63.48,797.29 64.19,803.82 63.18,798.42 61.75,799.63 61.32,807.77 58.54,812.29 73.7,814.07 80.5,820.59 87,824.14 94.66,833.58 98.57,836 106.94,850.09 104.55,848.1 102.58,850.53 103.24,860.03 108.66,860.96 121.72,868.22 134.76,871.62 161.38,868.52 160.61,864.92 149.01,865.65 144.5,864.41 138.95,858.7 145.89,854.21 157.68,850.11 167.16,843.93 173.3,829.05 180.64,825.88 180.07,824.48 169.18,825.96 159.9,821.12 154.64,815.43 145.91,801.82 156.9,797.87 156.57,796.33 147.33,794.43 137.6,787.95 133.71,790.17 132.75,788.11 123.79,787.49 121.29,793.73 122.47,787.48 121.01,768.51 114.88,751.64 116.21,751.94 111.28,746.41 110.87,744.21 112.35,742.49 112.81,747.79 113.9,742.24 116.41,742.79 114.7,741.35 117.34,741.39 120.13,743.32 121.04,749.63 122.72,750.29 122.3,749.14 123.21,749.49 123.86,747.73 122.1,749.17 122.75,750.11 121.21,749.58 120.3,742.99 121.32,742 124.09,744.18 126.14,744.16 121.25,741.73 119.9,736.55 121.17,736.95 121.79,735.82 122.14,737.44 125.02,738.31 126.73,737.7 122.16,737.27 122.57,735.94 121.45,735.59 120.98,736.76 119.52,735.1 117.27,736.71 117.02,739.26 113.59,739.51 111.95,735.56 113.77,736.01 114.74,733.27 116.27,734.23 115.2,733.05 115.82,733.38 116.83,732.35 113.65,733.61 113.6,735.95 113.39,734.1 111.43,732.36 113.85,732.44 113.61,730.25 114.06,731.73 114.77,731.77 114.38,729.12 115.43,729.24 116.24,728.76 115.92,728.28 114.19,729.23 114.71,731.61 113.48,730.15 113.78,732.28 112.01,731.79 111.14,732.46 113.2,734.33 110.45,736.27 112.34,740.09 100.05,727.45 104.01,728.24 106.21,727.24 105.55,725.83 106.56,725.98 105.49,725.8 103.97,728.08 100.48,725.88 101.85,725.15 100.18,724.36 100.35,723.44 100.16,724.44 101.64,725.57 100.46,725.37 100.26,726.05 99.69,724.75 98.9,725.55 98.62,724.62 97.71,724.67 98.86,725.64 99.72,724.84 100.24,726.99 92.36,724.27 94.31,723.69 90.12,722.33 92.47,719.41 90.06,722.15 91.53,724.2 89.88,725.28 92.63,727.34 88.82,727.73 90.04,717.88 95.07,712.41 97.33,713.53 100.83,711.65 98.01,713.73 99.58,717.16 98.88,718.54 97.63,717.21 97.08,718.96 98.38,719.39 97.71,718.44 99.3,718.36 99.34,716.04 101.14,716.11 101.9,715.32 99.44,715.93 100.31,715.39 100.18,713.96 99.4,715.83 98.21,713.97 101.69,711.4 104.09,716.36 102.32,719.93 104.15,718.9 106.62,722.59 105.52,722.48 107.64,723.79 106.85,722.75 111.08,722.3 112.83,718.28 113.95,718.64 112.83,720.99 113.99,719.39 114.73,720.71 115.92,720.5 114.13,719.41 115.2,717.23 112.69,718.03 112.59,717.05 116.61,712.58 115.63,718.4 117.06,719.65 116.13,717.85 116.48,717.1 117.79,720.97 119.49,719.45 120.37,722 120.44,720.15 119.03,718.66 117.9,719.15 116.53,716.44 120.48,716.1 118.2,715.78 117.45,712.81 115.68,711.12 118.11,709.78 119.39,712.6 122.28,713.84 121.69,711.82 118.93,711.01 118.45,708.48 116.9,708.78 117.92,707.84 119.88,709.11 118.15,707.69 119.13,706.33 121.3,709.43 124.95,709.46 126.11,705.25 123.85,704.48 122.54,705.97 122.32,704.67 125.12,701.94 125.66,704.12 128.44,704.83 127.04,706.68 128.71,705.08 128.37,702.79 126.88,702.11 126.14,703.9 125.19,701.54 122.14,702.41 121.81,704.21 116.48,704.22 116.33,701.75 120.89,701.5 119.2,701.49 118.88,698.08 120.22,699.75 122.27,699.6 124.45,696.28 127.78,700.51 127.38,698.52 130.06,697.11 131.35,702.09 132.54,701.51 132.92,703.93 134.05,704.58 131.54,705.27 131.59,705.89 134.06,705.18 132.88,701.53 131.23,699.62 137.98,694.82 132.13,698.87 130.65,696.15 127.23,697.69 124.56,695.24 122.41,696.91 122.52,694.12 121.24,698.56 117.97,695.59 113.91,696.03 114.86,694.2 120.4,692.66 118.14,692.78 119.97,691.18 118.64,689.61 124.63,692.35 130.16,691.49 129.11,689.76 130.54,689.38 129.12,689.64 129.06,691.01 127.24,690.65 128.68,686.25 129.41,687.2 130.76,685.95 129.24,687.05 129.5,685.39 137.63,685.83 138.01,688.36 139.11,684.41 142.05,683.11 140.27,680.53 142.59,679.94 140.21,679.52 142.42,679.16 142.82,676.48 143.28,678.88 145.52,676.34 144.08,676.96 145.08,675.89 142.61,673.23 144.17,672.32 145.7,673.46 145.7,674.57 147.56,673.87 145.55,674.46 145.88,673.57 144.9,672.84 147.19,672.28 145.47,672.31 146.3,671.26 145.38,670 145.55,672.09 142.1,671.95 142.63,668.88 140.82,673.73 137.87,670.6 139.68,669.3 138.03,666.56 134.72,668.81 134.78,666.71 136.64,666.24 134.68,666.42 134.14,664.17 128.29,663.26 126.79,665.66 126.87,664.29 124.54,664.18 126.47,662.99 123.68,661.18 125.63,662.99 124.33,663.98 125.03,665.4 125.87,665.46 123.14,666.58 123.85,669.05 122.39,667.57 121.59,668.61 120.41,667.45 122.16,666.29 121.07,663.66 120.09,666.97 121.35,668.74 123.61,669.57 126.23,666.45 125,671.9 122.94,673.16 122.62,669.91 121.36,669.6 121.54,671.6 119.71,668.15 120.06,670.15 117.51,669.08 119.29,667.25 117.59,664.95 119.86,665.86 120.91,663.68 120.36,663.18 119.2,665.21 117.65,664.48 117.29,665.77 118.04,667.26 117.42,668.44 116.52,666 110.96,664.49 112.9,663.43 111.95,661.34 107.55,664.83 105.04,663.87 105.02,660.09 103.03,660 102.13,662.71 101.34,660.45 100.3,659.79 102,663.12 100.16,662.32 101.02,663.15 100.17,664.12 99.15,663.52 98.69,664.19 100.27,664.13 100.77,663.17 102.92,664.48 100.14,664.41 102.12,665.55 100.35,666.27 102.12,665.77 103.83,667.6 100.15,669.24 96.93,668.89 98.05,668.15 97.09,668.34 96.96,667.33 96.91,669.04 99.11,669.21 97.39,670.5 97.12,672.03 94.89,670.63 94.86,667.93 93.98,667.11 93.99,667.71 94.77,670.63 96.79,672.17 99.77,669.44 100.07,671.22 103.09,672.27 98.56,673.17 98.68,675.15 97.13,674.69 98.72,675.43 96.94,676.38 94.94,674.19 94.04,676.91 93.82,674.58 91.98,672.97 93.88,677.39 91.36,679.19 90.68,678.22 90.29,683.6 88.18,679.52 89.95,676.95 88.82,676 90.13,674.88 88.19,672.98 89.82,674.82 87.87,676.6 85.46,676.78 83.79,674.39 83.8,675.6 86.27,677.2 84.99,678.01 89.58,676.78 84.34,683.23 83.06,682.58 85.27,680.71 84.5,679.45 82.13,680.17 82.79,678.65 82.4,677.42 81.77,680.25 85.06,680.55 82.86,682.31 80.67,682.42 81,680.8 79.87,681.54 80.28,679.68 78.37,683 76.23,682.93 76.16,681.71 73.78,679.75 74.83,678.45 76.85,680.79 74.99,678.34 73.5,679.3 74.97,680.97 73.03,680.51 72.74,678.74 75.25,676.91 75.57,678.03 77.87,679.07 78.71,677.14 77.27,676.39 78.04,674.26 76.87,673.96 77.47,673.34 76.66,672.76 78.2,670.29 78.31,671 79.16,670.74 79.33,669.52 79.07,670.77 78.13,670.29 76.58,672.71 76.79,674.03 77.9,674.35 77.08,676.19 77.98,677.51 75.89,677.88 76.27,676.16 74.67,675.74 75.32,675.47 75.19,674.4 72.53,677.12 72.03,680.52 68.42,681.36 69.04,678.48 64.34,681.09 67.34,682.59 65.91,682.77 66.81,685.27 70.37,685.91 69.57,687.59 66.86,687.99 63.01,684.99 60.92,686.09 60.84,683.53 62.32,684.1 64.35,682.61 60.4,682.02 59.3,684.12 62.09,682.07 62.58,683.65 60.66,683.42 60.47,685.65 61.44,686.36 63.04,685.23 63.42,686.62 60.05,688.57 59.64,686.47 59.17,688.16 55.96,687.51 58.82,691.14 65.13,693.6 63.41,697.13 61.76,697.18 63.93,697.58 64.83,701.98 62.02,704.59 62.52,709 60.46,710.02 58.64,709.17 58.5,706.69 51.88,708.4 51.33,706.49 48.44,708.91 37.91,704.95 31.79,698.04 31.2,693.01 34.49,691.16 32.73,689.8 33,685.07 36.99,686.94 38.29,682.45 40.66,681.75 43.97,686.15 49.59,684.83 50.21,686.15 51.41,686.58 52.79,686.01 49.75,684.92 52.19,683.77 53.25,680.32 55.54,681.8 53.55,680.21 58.54,680.75 55.66,685.39 57.18,684.31 58.84,680.83 60.58,681.11 58.74,682.26 59.24,684.03 59.15,682.09 64.68,680.39 64.01,678.19 65.58,677.99 63.94,678.08 63.37,679.59 58.1,678.76 58.47,677.89 61.03,678.7 63.68,677.65 63.8,676.29 61.9,674.56 63.81,673.89 64.37,672.74 64.24,674.95 66.06,673.65 65.44,674.99 67.71,675.32 67.35,673.03 67.1,674.33 65.79,674.91 66.44,673.78 64.19,672.62 61.65,674.48 63.58,677.31 60.64,678.28 60.38,672.08 63.41,670.37 62.68,667.43 60.93,667.94 60.81,663.97 59.48,664.05 60.67,658.86 57.93,664.39 50.33,658.71 52.92,654.96 52.81,656.41 53.6,657.13 53.26,654.91 51.9,656.15 51.44,655.64 53.19,650.68 52.17,649.95 56.1,646.76 59.93,647.08 55.79,649.5 60.83,646.57 61.12,647.92 63.92,649.84 61.06,647.75 60.93,646.47 60.19,646.53 60.57,645.28 62.74,645.46 62.62,646.98 63.37,647.43 66.07,644.17 66.76,644.81 65.96,645.94 66.35,646.78 67.33,646.74 67.69,645.28 68.51,646.19 70.65,644.71 71.58,645.87 72.98,645.46 70.78,644.56 68.65,646.09 67.32,645.24 66.22,646.64 66.89,644.6 65.98,644.09 63.21,647.26 63.05,645.34 64.9,643.44 64.79,641.48 62.79,645.31 60.75,644.99 59.35,645.86 55.62,645.07 57.67,643.04 55.4,644.43 56.29,646.02 51.37,646.85 46.86,644.29 42.76,644.52 40.59,641.39 41.79,639.16 43.88,639.32 44.09,637.46 42.46,638.13 42.83,636.62 42.16,638.06 43.83,639 41.76,638.77 39.78,639.98 39.91,636.48 38.09,635.46 39.29,634.26 38.72,632.73 37.98,635.73 37.03,634.54 37,635.91 36.01,635.11 36.24,633.45 35.64,633.41 35.4,635.26 36.18,635.73 35.09,635.63 35,634.86 34.05,635.14 33.97,634.43 33.96,635.07 39.72,636.54 39.24,639.89 41.56,644.5 38.88,646.37 37.24,645.62 38.78,641.71 38.07,640.13 35.54,638.79 32.51,640.66 32.32,637.19 29.94,636.77 28.15,633.86 26.89,634.52 26.34,634 25.82,634.25 26.86,634.61 28.22,634.02 28.91,637.19 31.87,637.06 31.86,638.71 30,638.92 31.7,638.91 32.42,640.94 35.86,639.16 38.35,641.68 36.56,645.33 34.45,645.5 36.53,645.55 37.18,647.65 34.6,649.51 31.61,646.5 30.28,646.43 31.92,645.34 31.22,643.15 33.08,643.05 30.96,642.71 29.56,644.89 29.56,642.98 27.11,643.15 26.54,644.09 28.53,643.37 29.22,644.98 31.54,644.67 29.78,646.52 33,649.14 32.28,653.65 30.7,650.01 29.01,650.57 28.27,652.19 26.23,651.04 28.12,649.73 27.95,647.63 25.41,646.2 21.59,645.41 24.26,644.15 22.17,641.21 19.62,641.77" fill="none" stroke="#1e1e1e" stroke-width="1.64" stroke-linecap="round" stroke-linejoin="round"/>
<polyline points="19.62,642.01 23.72,643.07 21.31,645.3 25.7,646.71 23.54,647.69 27.6,648.17 27.85,649.32 25.62,650.88 25.18,653.31 25.73,651.23 27.57,653.11 29.85,650.46 31.16,652.48 31.04,654.07 24.38,657.98 22.39,654.6 20.97,655.1 22,652.28 20.28,651.68 19.52,652.24" fill="none" stroke="#1e1e1e" stroke-width="1.64" stroke-linecap="round" stroke-linejoin="round"/>
<polyline points="19.52,652.05 19.53,651.29" fill="none" stroke="#1e1e1e" stroke-width="1.64" stroke-linecap="round" stroke-linejoin="round"/>
<polyline points="19.53,651.51 19.52,651.82" fill="none" stroke="#1e1e1e" stroke-width="1.64" stroke-linecap="round" stroke-linejoin="round"/>
<polyline points="19.52,652.47 20.75,652.51 20.93,656.39 24.34,658.61 24.14,659.34 22.47,658.13 19.46,658.42" fill="none" stroke="#1e1e1e" stroke-width="1.64" stroke-linecap="round" stroke-linejoin="round"/>
<polyline points="19.44,660.19 19.45,659.42" fill="none" stroke="#1e1e1e" stroke-width="1.64" stroke-linecap="round" stroke-linejoin="round"/>
<polyline points="19.46,658.67 22.38,658.45 23.43,659.85 21.95,661.66 24.25,660.32 26.35,663.08 26.24,665.25 23.99,665.17 23.04,666.06 27.11,665.56 25.35,668.83 21.59,666.01 22.68,667.55 19.36,668.7" fill="none" stroke="#1e1e1e" stroke-width="1.64" stroke-linecap="round" stroke-linejoin="round"/>
<polyline points="19.35,669.49 19.65,669.98 22.91,667.76 24.66,669.02 22.5,669.01 23,672.42 20.2,677.33 19.28,677.12" fill="none" stroke="#1e1e1e" stroke-width="1.64" stroke-linecap="round" stroke-linejoin="round"/>
<polyline points="19.27,677.67 20.69,676.77 19.72,678.3 22.31,680.08 24.82,678.73 24.25,682.53 21.9,683.68 19.23,682.41" fill="none" stroke="#1e1e1e" stroke-width="1.64" stroke-linecap="round" stroke-linejoin="round"/>
<polyline points="1781.18,9.68 1799.33,16.19 1818.03,18.73 1813.14,22.83 1817.72,23.95 1818.61,26.54 1811.5,25.77 1801.44,33.89 1797.59,36.06 1796.12,35.09 1798.24,35.42 1800.35,33.56 1797.74,33.4 1798.84,31.21 1791.9,31.38 1789.54,29.1 1785.27,34.38 1786.93,35.82 1784.34,40.43 1779.59,36.85 1780.65,32.15 1774.66,39.53 1769.7,50.08 1770.35,51.72 1775.3,49.76 1766.93,62.45 1753.44,97.78 1753.41,112.98 1751.54,116.58 1753.17,138.38 1762.8,182.42 1786.55,248.79 1786.93,262.19 1793.29,286.95 1792.66,300.28 1772,346.77 1759.13,371.44 1741.86,393.59 1733.36,409.15 1721.37,421.18 1718.1,421.2 1711.86,427.28 1699.04,452.61 1691.47,475.49 1693.49,476.97 1692.91,483.68 1685.12,497.37 1677.7,524.19 1668.4,582.87 1666.95,607.49 1665.03,610.79 1667.61,617.06 1661.76,628.26 1655.05,653.75 1649.29,705.28 1651.48,755.38 1659.18,805.21 1670.19,860.85 1673.87,873.45 1677.02,876.62 1667.45,917.71 1662.05,970.55 1661.93,992.26 1664.33,1011.88 1668.78,1027.67 1673.35,1037.01 1685.29,1053.97 1685.71,1058.1 1684.62,1078.94 1681.68,1085.12 1678.02,1086.38 1667.61,1084.72 1650.01,1087.84 1632.17,1095.47 1630.94,1097.37 1633.38,1099.62 1633.24,1101.66 1622.85,1116.4 1615.84,1132.32 1611.36,1150.55 1609.65,1168.79 1607.33,1170.72 1606.27,1213.55 1607.75,1240.89 1609.68,1246.13 1606.12,1248.32 1596.15,1247.03 1595.1,1248.65 1591.82,1261.14 1591.52,1276.54 1594.5,1297.64 1598.81,1301.81 1600.83,1301.44 1603.01,1317.38 1611.1,1339.35 1620.66,1395.23 1622.4,1398.13 1625.24,1399.1 1624,1401.72 1625.53,1403.88 1623.68,1405.42 1624.38,1408.2 1621,1408.53 1621.01,1410.3 1618.54,1408.94 1618.4,1406.95 1611.78,1404.01 1606.07,1410.76 1600.18,1414.24 1597.3,1421.54 1595.75,1419.72 1593.06,1420.71 1589.57,1419.38 1586.2,1422.02 1582.45,1421.69 1573.56,1444.26 1570.58,1457.72 1568.79,1456.57 1566.79,1457.59 1563.46,1471.11 1552.27,1468.66 1550.38,1472.68 1547.35,1473.1 1542.38,1483.2 1539.98,1483.91 1539.11,1488.11 1536.9,1488.66 1533.87,1506.61 1535.69,1539.76 1548.64,1592.15 1558.68,1618.91 1571.48,1643.77 1589.22,1667.14 1597.2,1672.08 1617.67,1678.83 1628.58,1688.19 1636.71,1701.39 1651.09,1731.7 1650.41,1735.43 1658.08,1768.9" fill="none" stroke="#1e1e1e" stroke-width="1.64" stroke-linecap="round" stroke-linejoin="round"/>
<polyline points="737.7,1716.59 736.26,1715.53 742.81,1714.14 737.7,1716.59" fill="none" stroke="#1e1e1e" stroke-width="1.64" stroke-linecap="round" stroke-linejoin="round"/>
<polyline points="727.24,1704.93 726.14,1702.94 730.12,1702.3 730.31,1703.64 727.24,1704.93" fill="none" stroke="#1e1e1e" stroke-width="1.64" stroke-linecap="round" stroke-linejoin="round"/>
<polyline points="720.87,1710.57 719.42,1712.16 718.18,1710.05 714.25,1711.47 718.97,1707.83 720.87,1710.57" fill="none" stroke="#1e1e1e" stroke-width="1.64" stroke-linecap="round" stroke-linejoin="round"/>
<polyline points="217.03,1053.03 213.15,1049.66 213.29,1048.77 214.61,1048.69 217.03,1053.03" fill="none" stroke="#1e1e1e" stroke-width="1.64" stroke-linecap="round" stroke-linejoin="round"/>
<polyline points="107.61,696.03 110.99,696.97 113.72,701.32 110.63,699.65 111.22,700.6 108.72,700.64 107.61,696.03" fill="none" stroke="#1e1e1e" stroke-width="1.64" stroke-linecap="round" stroke-linejoin="round"/>
<polyline points="103.63,672.5 103.92,669.15 106.48,671.66 104.09,671.17 103.63,672.5" fill="none" stroke="#1e1e1e" stroke-width="1.64" stroke-linecap="round" stroke-linejoin="round"/>
<polyline points="102.83,668.47 100.1,670.86 100.59,668.39 102.83,668.47" fill="none" stroke="#1e1e1e" stroke-width="1.64" stroke-linecap="round" stroke-linejoin="round"/>
<polyline points="103.94,682.64 101.82,680.61 104.55,684.14 102.61,689.02 98.01,685.23 100.34,684.83 99.47,681.53 99.36,685.05 91.13,681.21 94.04,681.16 96.6,679.67 97.22,678.72 94.21,680.92 92.46,679.96 96.02,676.13 97.2,677.34 100.05,677.69 97.68,676.16 100.64,673.85 103.94,682.64" fill="none" stroke="#1e1e1e" stroke-width="1.64" stroke-linecap="round" stroke-linejoin="round"/>
<polyline points="30.18,722.64 32.12,714.78 38.5,712.56 44.97,716.89 48.29,716.17 49.49,719.17 48.33,721.2 50.24,722.83 48.03,729.99 42.34,732.53 36.17,732.8 30.85,731.27 30.18,722.64" fill="none" stroke="#1e1e1e" stroke-width="1.64" stroke-linecap="round" stroke-linejoin="round"/>
<polyline points="109.99,673.67 115.78,675.41 114.88,676.53 115.88,675.85 116.65,677.79 115.29,678.37 121.8,678.67 118.94,681.11 118.7,680.05 117.44,680.13 118.82,680.98 117.1,682.54 111.59,682.1 111.73,680.61 108.56,682.98 108.74,681.4 107.38,682.58 104.85,680.16 110.89,678.83 110.73,675.29 107.44,676.71 106.34,675.45 109.06,675.48 109.99,673.67" fill="none" stroke="#1e1e1e" stroke-width="1.64" stroke-linecap="round" stroke-linejoin="round"/>
<polyline points="24.06,710.16 21.31,706.29 25.44,699.16 28.33,704.76 24.44,706.76 24.06,710.16" fill="none" stroke="#1e1e1e" stroke-width="1.64" stroke-linecap="round" stroke-linejoin="round"/>
<polyline points="1883.07,1119.99 1887.52,1118.69 1890.56,1129.12 1889.1,1129.71 1886.57,1124.8 1883.26,1124.25 1883.07,1119.99" fill="none" stroke="#1e1e1e" stroke-width="1.64" stroke-linecap="round" stroke-linejoin="round"/>
<polyline points="1853.46,1181.78 1851.48,1173.81 1854.4,1171.68 1853.56,1169.65 1855.1,1167.21 1861.62,1165.88 1867.09,1169.5 1864.4,1173.83 1859.44,1175.31 1856.49,1181.91 1853.46,1181.78" fill="none" stroke="#1e1e1e" stroke-width="1.64" stroke-linecap="round" stroke-linejoin="round"/>
<polyline points="232.1,1049.42 227.61,1043.83 230.87,1043.34 232.14,1045.91 230.98,1043.62 234.02,1042.99 232.52,1044.58 234.09,1045.87 234.15,1042.71 236.39,1043.01 238.98,1049.84 234.23,1048.67 234.36,1046.53 234.1,1048.67 232.1,1049.42" fill="none" stroke="#1e1e1e" stroke-width="1.64" stroke-linecap="round" stroke-linejoin="round"/>
<polyline points="117.73,739.17 120.15,739.19 120.72,742.15 117.91,740.84 117.73,739.17" fill="none" stroke="#1e1e1e" stroke-width="1.64" stroke-linecap="round" stroke-linejoin="round"/>
<polyline points="119.74,735.22 120.77,738.48 117.69,738.71 117.43,736.8 119.74,735.22" fill="none" stroke="#1e1e1e" stroke-width="1.64" stroke-linecap="round" stroke-linejoin="round"/>
<polyline points="117.03,705.09 124.14,706.11 122.55,708.1 121.4,705.81 117.03,705.09" fill="none" stroke="#1e1e1e" stroke-width="1.64" stroke-linecap="round" stroke-linejoin="round"/>
<polyline points="108.69,701.38 111.65,700 113.73,701.45 112.42,699.15 114.83,699.27 114.85,701.13 111.16,702.98 115.02,701.24 116.24,703.26 114.6,703.97 116.11,706.55 114.62,707.7 114.01,704.98 113.55,707.34 111.24,706.81 111.93,708.87 112.83,707.64 114.17,708.59 110.82,712.71 110.2,720.54 108.52,721.56 106.57,720.07 104.5,707.96 107.2,707.13 107.3,708.35 109.85,709.55 107.41,706.95 110.31,705.46 108.53,704.42 108.07,706.06 106.07,706.55 108.69,701.38" fill="none" stroke="#1e1e1e" stroke-width="1.64" stroke-linecap="round" stroke-linejoin="round"/>
<polyline points="64.8,697.73 67.49,692.33 58.41,689.75 63.45,687.3 69.77,688.64 69.6,690.29 73.06,693.35 70.61,694.3 69.2,692.59 70.4,694.27 72.22,694.32 73.5,693.46 77.15,693.94 77.83,695.41 76.37,696.94 67.36,698.13 64.8,697.73" fill="none" stroke="#1e1e1e" stroke-width="1.64" stroke-linecap="round" stroke-linejoin="round"/>
<polyline points="110.38,668.87 110.49,673.3 109.03,674.48 107.51,673.98 108.14,672.62 106.62,673.52 110.38,668.87" fill="none" stroke="#1e1e1e" stroke-width="1.64" stroke-linecap="round" stroke-linejoin="round"/>
<polyline points="125.31,679.16 125.31,675.64 127.87,670.44 129.15,672.55 127.39,673.9 129.85,674.72 127.2,675.6 125.31,679.16" fill="none" stroke="#1e1e1e" stroke-width="1.64" stroke-linecap="round" stroke-linejoin="round"/>
<polyline points="112.95,666.46 116.8,667.11 114.23,667.55 113.23,670.98 120.38,671.77 122.1,676.22 118.13,677.62 115.74,672.93 110.97,673.96 111.98,670.26 110.82,668.45 112.95,666.46" fill="none" stroke="#1e1e1e" stroke-width="1.64" stroke-linecap="round" stroke-linejoin="round"/>
<polyline points="125.9,679.2 125.68,681.25 124.51,680.83 125.45,681.6 126.41,681.33 127.22,683.19 126.41,682.44 125.26,683.11 127.31,683.78 127.34,682.08 129.11,681.72 131.29,682.94 126.63,684.95 124.54,689.22 123.82,681.34 125.9,679.2" fill="none" stroke="#1e1e1e" stroke-width="1.64" stroke-linecap="round" stroke-linejoin="round"/>
<polyline points="129.92,675.09 129.14,678.04 132.83,680.41 132.77,682.38 126.48,680.67 126.73,679.03 128.91,679.71 128.15,678.26 126.47,678.78 129.92,675.09" fill="none" stroke="#1e1e1e" stroke-width="1.64" stroke-linecap="round" stroke-linejoin="round"/>
<polyline points="142.32,674.58 137.86,678.24 139.08,678.42 139.23,683.06 135.55,684.62 133.45,683.59 133.82,680.4 136.35,682.61 135.71,680.8 137.42,681.61 137.87,680.94 134.92,679.96 137.2,680.6 137.8,679.26 135.13,678.07 134.72,679.76 132.49,679.52 131.89,678.38 133.37,676.63 129.86,678.02 130.65,675.16 131.95,675.6 128.57,673.27 129.6,671.71 132.31,673.19 135.16,671.77 135.41,676.98 137.3,676.17 135.56,676.67 135.11,675.06 136.91,671.52 142.32,674.58" fill="none" stroke="#1e1e1e" stroke-width="1.64" stroke-linecap="round" stroke-linejoin="round"/>
<polyline points="104.44,668.62 109.56,668.36 108.72,669.99 105.96,670.07 104.44,668.62" fill="none" stroke="#1e1e1e" stroke-width="1.64" stroke-linecap="round" stroke-linejoin="round"/>
<polyline points="137.84,667.68 137.63,670.38 132.97,670.4 136.35,669.12 137.84,667.68" fill="none" stroke="#1e1e1e" stroke-width="1.64" stroke-linecap="round" stroke-linejoin="round"/>
<polyline points="114.64,669.04 116.01,670.17 118.18,670.3 114.29,670.79 114.64,669.04" fill="none" stroke="#1e1e1e" stroke-width="1.64" stroke-linecap="round" stroke-linejoin="round"/>
<polyline points="110.2,676.42 110.61,678.83 109.65,677.95 106.23,680.4 103.71,677.34 104.36,675.66 105.22,677.37 110.2,676.42" fill="none" stroke="#1e1e1e" stroke-width="1.64" stroke-linecap="round" stroke-linejoin="round"/>
<polyline points="102.23,675.15 104.45,672.04 103.31,676.25 102.23,675.15" fill="none" stroke="#1e1e1e" stroke-width="1.64" stroke-linecap="round" stroke-linejoin="round"/>
<polyline points="104.59,673.82 106.44,674.71 104.83,677.07 104.59,673.82" fill="none" stroke="#1e1e1e" stroke-width="1.64" stroke-linecap="round" stroke-linejoin="round"/>
<polyline points="102.5,666.16 105.41,664.39 107.66,665.86 104.55,667.78 102.5,666.16" fill="none" stroke="#1e1e1e" stroke-width="1.64" stroke-linecap="round" stroke-linejoin="round"/>
<polyline points="107.68,664.81 110.61,664.21 109.64,667.73 107.72,667.83 107.68,664.81" fill="none" stroke="#1e1e1e" stroke-width="1.64" stroke-linecap="round" stroke-linejoin="round"/>
<polyline points="104.47,661.02 104.79,663.84 103.25,664.02 104.97,665.29 103.89,665.65 101.17,663.53 104.47,661.02" fill="none" stroke="#1e1e1e" stroke-width="1.64" stroke-linecap="round" stroke-linejoin="round"/>
<polyline points="70.83,680.84 74.36,681.97 72.85,682.75 73.7,683.9 70.85,685.09 70.41,683.47 67.8,684.16 66.71,683.41 68.87,683.05 67.19,681.45 67.63,680 71.43,683.23 70.83,680.84" fill="none" stroke="#1e1e1e" stroke-width="1.64" stroke-linecap="round" stroke-linejoin="round"/>
<polyline points="27.15,667.6 32.04,672.23 32.32,673.98 31.37,671.93 31.45,675.37 26.29,672.31 26.1,677.25 21.52,679.32 22.71,669.89 27.15,667.6" fill="none" stroke="#1e1e1e" stroke-width="1.64" stroke-linecap="round" stroke-linejoin="round"/>
<polyline points="26.12,661.64 27.46,661.49 26.95,657.92 33.56,657.34 34.79,659.78 31.71,659.77 31.63,658.55 30.89,658.81 31.75,659.89 35.04,660.96 34.27,668.05 32,663.31 31.08,663.52 33.22,668.06 30.43,669.1 31.89,667.07 29.01,664.44 26.82,664.84 28.05,663.23 26.09,664.55 26.12,661.64" fill="none" stroke="#1e1e1e" stroke-width="1.64" stroke-linecap="round" stroke-linejoin="round"/>
<polyline points="26.72,658.05 26.86,661.8 23.61,659.84 26.72,658.05" fill="none" stroke="#1e1e1e" stroke-width="1.64" stroke-linecap="round" stroke-linejoin="round"/>
<polyline points="29.89,668.37 27.56,667.02 28.51,664.72 31.51,667.22 29.89,668.37" fill="none" stroke="#1e1e1e" stroke-width="1.64" stroke-linecap="round" stroke-linejoin="round"/>
<polyline points="48.34,664.22 55.84,661.9 56.78,664.82 55.87,668.86 53.77,668.93 52.4,664.53 53.31,669.28 52.13,670.58 43.41,664.84 45.39,663.17 48.34,664.22" fill="none" stroke="#1e1e1e" stroke-width="1.64" stroke-linecap="round" stroke-linejoin="round"/>
<polyline points="60.5,663.9 63.05,670.84 60.02,671.82 59.95,676.73 53.34,678.2 48.4,681.38 50.7,674.49 54.84,672.91 56.81,664.4 60.5,663.9" fill="none" stroke="#1e1e1e" stroke-width="1.64" stroke-linecap="round" stroke-linejoin="round"/>
<polyline points="50.71,662.75 47.27,659.62 48.51,658.95 48,656.19 45.81,655.99 47.05,653.12 52.22,650.36 51.92,656.39 50.24,658.61 52.4,661.44 50.71,662.75" fill="none" stroke="#1e1e1e" stroke-width="1.64" stroke-linecap="round" stroke-linejoin="round"/>
<polyline points="50.16,649.38 55.78,646.9 52.78,649.36 50.16,649.38" fill="none" stroke="#1e1e1e" stroke-width="1.64" stroke-linecap="round" stroke-linejoin="round"/>
<polyline points="111.68,694.63 111.66,690.13 118.19,690.18 115.99,691.06 118.41,691.3 117.68,692.77 113.47,694.45 113.65,697.64 111.68,694.63" fill="none" stroke="#1e1e1e" stroke-width="1.64" stroke-linecap="round" stroke-linejoin="round"/>
<polyline points="118.76,697.92 115.63,701.34 116.1,696.64 118.76,697.92" fill="none" stroke="#1e1e1e" stroke-width="1.64" stroke-linecap="round" stroke-linejoin="round"/>
<polyline points="18.44,763.98 18.44,764.15" fill="none" stroke="#1e1e1e" stroke-width="1.64" stroke-linecap="round" stroke-linejoin="round"/>
<polyline points="46.66,659.92 50.53,662.83 47.79,663.69 46.07,663.02 46.66,659.92" fill="none" stroke="#1e1e1e" stroke-width="1.64" stroke-linecap="round" stroke-linejoin="round"/>
<polyline points="91.01,690.39 92.23,687.66 90.09,687.65 88.3,688.99 87.68,687.65 86.54,689.81 86.65,687.67 85.51,688.71 85.23,686.63 84.11,686.23 85.39,688.82 86.27,688.72 86.34,690.01 87.26,689.92 87.03,692.33 81.24,694.42 77.1,691.57 79.2,691.2 80.24,689.98 82.48,691.4 82.24,689.25 83.13,688.44 82.04,690.2 79.93,688.92 79.21,690.76 76.62,691.19 72.01,689.77 75.01,687.19 71.61,688.98 75.63,683.9 77.28,683.67 77.14,685.05 78.91,685.18 78.99,683.94 77.14,684.51 79.59,682.31 80.51,682.87 79.31,683.96 79.71,686.25 79.86,684.41 81.08,685.45 80.17,683.53 85.62,685.16 82.29,682.6 84.47,683.41 87.86,680.16 89.17,684.88 87.07,685.19 89.25,685.11 89.08,683.75 91.62,685.32 94.12,684.17 93.76,688.83 92.01,688.54 91.01,690.39" fill="none" stroke="#1e1e1e" stroke-width="1.64" stroke-linecap="round" stroke-linejoin="round"/>
<polyline points="1773.72,52.21 1779.23,43.76 1780.66,43.71 1779.46,42.98 1783.26,41.02 1782.47,42.38 1786.7,38.06 1790.94,37.81 1790.01,36.63 1793.98,37.44 1792.44,36.38 1796.58,36.12 1795.71,37.25 1783.6,42.33 1773.72,52.21" fill="none" stroke="#1e1e1e" stroke-width="1.64" stroke-linecap="round" stroke-linejoin="round"/>
<polyline points="1819.18,20.95 1821.79,23.64 1821.16,26.26 1820.25,25.36 1821.09,25.64 1821.56,24.46 1819.77,25.27 1816.3,22.47 1819.18,20.95" fill="none" stroke="#1e1e1e" stroke-width="1.64" stroke-linecap="round" stroke-linejoin="round"/>
<polyline points="232.18,1050.28 234.91,1049.27 236.25,1050.99 239.84,1051.01 240.74,1054.14 239.09,1054.97 238.83,1052.84 238.83,1054.78 237.35,1054 238.91,1055.23 236.45,1054.97 239.86,1056.29 233.1,1054.81 233.36,1053.19 236.45,1054.45 235.19,1053.55 236.6,1053.48 235.79,1053.13 236.75,1052.77 234.53,1053.64 233.36,1053 232.56,1054.26 231.97,1051.53 231.11,1054.19 232.18,1050.28" fill="none" stroke="#1e1e1e" stroke-width="1.64" stroke-linecap="round" stroke-linejoin="round"/>
<polyline points="240.98,1050.35 236.99,1047 237.28,1045.83 241,1047.67 240.98,1050.35" fill="none" stroke="#1e1e1e" stroke-width="1.64" stroke-linecap="round" stroke-linejoin="round"/>
<polyline points="236.74,1043.05 240,1042.95 241.58,1044.69 237.62,1045.67 236.74,1043.05" fill="none" stroke="#1e1e1e" stroke-width="1.64" stroke-linecap="round" stroke-linejoin="round"/>
<polyline points="267.93,1081.79 269.61,1086.68 217.99,1054.58 221.15,1055.9 222.91,1051.98 225.22,1050.97 222.88,1053.98 226.83,1054.06 227.28,1055.69 224.88,1056 226.02,1058.37 239.4,1064.74 240.01,1066.41 243.19,1066.12 243.16,1068.23 245.29,1065.11 246.71,1067.24 244.51,1069.06 248.88,1072.02 245.72,1068.52 247.59,1067.38 248.71,1069.08 251.62,1068.33 253.55,1070.77 252.79,1070.17 250.52,1071.3 253.59,1070.97 254.66,1072.76 252.67,1073.18 254.69,1072.85 256.83,1076 261.21,1076.21 259.11,1076.86 260.76,1079.18 267.93,1081.79" fill="none" stroke="#1e1e1e" stroke-width="1.64" stroke-linecap="round" stroke-linejoin="round"/>
<polyline points="325.01,1120.22 322.86,1121.99 319.55,1119.36 320.48,1118.48 319.06,1117.4 320.04,1117.02 320.03,1115.15 321.16,1114.75 320.09,1114.56 319.44,1116.57 317.03,1114.14 318.09,1112.84 323.62,1115.19 323.73,1117.46 322.06,1117.69 325.01,1120.22" fill="none" stroke="#1e1e1e" stroke-width="1.64" stroke-linecap="round" stroke-linejoin="round"/>
<polyline points="337.19,1130.65 337.38,1133.28 308.82,1116.03 284.89,1099.56 283.21,1097.62 295.66,1103.62 300.25,1109.63 308.88,1111.93 317.54,1119.87 320.65,1119.38 322.65,1122.11 325.29,1120.17 327.65,1122.58 329.66,1121.28 329.96,1123.82 332.32,1124.11 332.08,1126.32 328.2,1123.99 326.39,1124.36 331.82,1126.46 332.82,1125.51 334.33,1128.51 333.16,1129.89 337.19,1130.65" fill="none" stroke="#1e1e1e" stroke-width="1.64" stroke-linecap="round" stroke-linejoin="round"/>
<polyline points="1786.94,35.84 1788.43,34.62 1785.67,38.7 1786.94,35.84" fill="none" stroke="#1e1e1e" stroke-width="1.64" stroke-linecap="round" stroke-linejoin="round"/>
</svg>
