<?xml version="1.0" encoding="UTF-8" standalone="no"?>
<svg xmlns="http://www.w3.org/2000/svg" width="2000" height="1611" viewBox="0 0 2000 1611">
<rect width="2000" height="1611" fill="#ffffff"/>
<polyline points="1338.39,199.13 1326.8,201.7 1322.23,200.98 1317.81,202.92 1315.17,208.43 1309.81,211.21 1308.58,213.51 1306.7,214.9 1298.13,218.37 1287.5,225.09 1285.72,229.69 1276.97,230.16 1272.79,231.77 1268.71,231.61 1266.23,230.25 1264.24,231.63 1262.45,230.72 1259.78,236.23 1256.4,237.2 1254.42,239.92 1249.24,239.75 1235.19,248.05 1226.22,254.64 1222.25,256.57 1217.92,256.58 1213.29,258.45 1211.14,260.53 1209.72,260.29 1204.37,265.82 1200.33,266.28 1199.89,268.58 1192.73,272.28 1187.35,273.21 1186.02,275.97 1182.07,276.23 1177.82,277.78 1171.24,276.01 1165.16,281.09 1159.62,284.28 1150.55,287.55 1143.49,293.51 1141.7,291.69 1133.63,295.38 1130.04,292.64 1126.46,295.39 1122.87,292.65 1121.08,299.07 1116.15,297.01 1110.32,298.18 1107.45,300.53 1098.24,302.78 1087.01,307.39 1086.25,311.56 1077.03,312.75 1071.79,315.66 1063.73,314.75 1059.24,316.59 1051.65,315.73 1044.85,316.4 1039.36,321.21 1036.82,327.61 1033.34,340.69 1034.15,354.66 1033.05,359.29 1024.68,363.27 1021.14,366.6 1013.83,368.35 1006.03,367.97 996.45,373.47 992.09,369.36 989.73,363.39 984.99,359.75 979.41,356.97 974.28,352.64 968.16,349.36 956.03,344.35 935.41,362.44 928.78,363.15 921.96,362.42 914.91,364.69 908.44,368.37 903.38,372.49 899.24,372.18 895.45,372.93 892.4,378.75 890.5,385.3 865.15,388.47 853.66,391.18 842.87,397.11 835.71,399.12 829.38,402.58 821.28,400.27 808.5,403.1" fill="none" stroke="#1e1e1e" stroke-width="1.22" stroke-linecap="round" stroke-linejoin="round"/>
<polyline points="155.08,854.46 158.49,855.35 162.43,859.23 168.43,868.15 171.08,870.87 184.33,878.17 188.57,882.06 197.46,895.05 203.25,905.43 202.44,912.35 204.74,927.84 202.16,939.97 192.84,959.09 192.36,966.25 194.13,981.86 193.68,986.35 191.17,992.24 191.28,1006.21 191.82,1008.95 195.09,1014.6 195.85,1019.04 191.28,1019.34 189.15,1020.55 169,1037.61 165.66,1043.98 165.35,1047.73 167.96,1056.32 166.91,1061.31 164.68,1065.8 157.94,1073.35 146.26,1081.4 141.19,1088.8 125.74,1099.93 124.16,1105.6 126.92,1113.64 127.21,1116.61 122.85,1127.16 122.39,1130.89 126.38,1140.6 125.12,1145.05 121.75,1151.19 121.46,1154.15 123.28,1157.65 129.82,1162.38 132.45,1165.54 129.89,1179.24 127.86,1181.28 126.99,1183.48 126.77,1190.14 131.86,1198.32 132.72,1204.94 134.65,1208.73 144.66,1213.63" fill="none" stroke="#1e1e1e" stroke-width="1.22" stroke-linecap="round" stroke-linejoin="round"/>
<polyline points="1037.5,653.99 1039.04,652.32 1040.79,651.91 1044.16,653.98 1049.74,650.04 1051.31,647.36 1052.47,639.49 1058.11,626.84 1060.22,623.97 1063.11,621.96 1069.73,620.23 1074.18,615.29 1075.78,611.67 1076.43,606.46 1079.35,601.92 1080.46,597.75 1088.73,585.11 1091.7,582.59 1108.53,587.27 1111.05,586.01 1113.99,581.5 1115.8,580.5 1121.84,579.71 1126.33,575.88 1127.93,566.02 1129.06,564.61 1130.8,558.88 1134.03,557.84 1134.02,554.36 1145.15,535.18 1149.21,530.19 1149.31,520.53 1150.71,514.8 1149.17,512.88 1149.58,509.43 1151.23,506.13 1155.45,503.03 1155.48,499.29 1153.98,492.27 1155.38,484.57 1159.97,478.32 1169.39,468.37 1173.29,460.53 1174.66,454.71 1176.79,452 1188.09,447.52 1194.22,443.41 1201.33,436.63 1204.31,430.72 1204.6,423.98 1203.55,411.74 1206.29,398.81 1207.05,390.61 1204.59,385.14 1210.6,374.94 1211.81,369.59 1217.06,365.84 1219.19,360.9 1226.63,355.72 1227.68,353.55 1232.26,349.17 1233.2,346.07 1235.58,347.05 1237.7,344.82 1236.54,343.16 1237.69,341.44 1236.1,337.37 1241.63,329.94 1239.74,326.67 1243.68,322.25 1248.64,319.97 1248.63,317.96 1251.9,317.11 1251.8,313.1 1257.73,307.63 1260.69,299.21 1265.05,291.62 1272.74,281.37 1273.78,276.31 1283.75,264.83 1287,256.36 1285.02,254.63 1285.78,252.01 1288.1,249.61 1290.82,248.56 1296.29,243.4 1297.39,239.96 1301.34,238.14 1304.6,234.85 1310.3,232.94 1309.55,232.56 1315.55,221.26 1321.03,218.97 1322.97,214 1327.66,205.81 1330.48,203.37" fill="none" stroke="#1e1e1e" stroke-width="1.22" stroke-linecap="round" stroke-linejoin="round"/>
<polyline points="1071.45,703.24 1077.32,697.51 1081.48,695.09 1084.93,694.12 1100.88,694.83 1105.71,694.28 1109.31,692.74 1110.55,690.5 1111.68,683.72 1114.28,679.73 1117.61,678.61 1126.69,679.18 1139.06,678.04 1145.62,679.03 1158.85,676.67 1174.83,670.15 1191.55,666.11 1201.69,665.03 1205.87,663.3 1209.7,658.88 1218.05,652.83 1220.14,649.8 1224.34,639.71 1228.08,633.47 1233.3,619.72 1235.48,617.17 1242.13,615.4 1251.82,606.54 1259.93,604.39 1262.4,603.03 1277.5,592.48 1280.71,589.47 1284.83,582.3 1289,559.37 1293.23,546.36 1297.28,539.11 1325.93,502.93 1348.65,486.58 1355.01,483.18 1361.84,480.75 1375.79,478.47 1387.03,480.49 1390.21,480.05 1393.81,478.32 1398.17,479.27 1419.07,472.75 1426.93,472.5 1435.6,474.49 1442.71,478.39 1448.9,483.94 1454.84,490.89 1458.96,497.21 1461.28,503.5 1462.98,517.73 1462.51,524.19 1459.76,536.9 1459.46,543.31 1461.18,563.54 1460.22,570.12 1454.87,579.5 1453.77,583.09 1452.72,598.71 1453.74,602.07 1456.04,604.72 1459.7,606.76 1468.48,609.47 1471.62,611.27 1478.86,620.54 1481.73,622.64 1485.25,623.78 1489.62,623 1497.35,617.9 1501.54,616.97 1505.16,618.55 1507.1,621.77 1507.91,625.73 1506.96,639.33 1508.47,642.69 1511.45,645.72 1515.2,647.76 1523.62,650.08 1532.83,649.94 1535.58,650.97 1537.01,655.38 1542.2,694.64 1541.69,703.34 1542.37,706.22 1544.16,708.52 1549.98,711.74 1550.84,714.03 1544.32,743.43" fill="none" stroke="#1e1e1e" stroke-width="1.22" stroke-linecap="round" stroke-linejoin="round"/>
<polyline points="1906.26,127.06 1885.18,116.68 1862.08,108.59 1823.99,83.85 1780.95,52.42 1767.75,45 1753.8,43.5 1746.14,44.39" fill="none" stroke="#1e1e1e" stroke-width="1.22" stroke-linecap="round" stroke-linejoin="round"/>
<polyline points="1746.14,44.39 1736.31,53.82 1735.44,56.15 1736.5,58.24 1736.07,59.55 1733.23,60.03 1731.73,62.33 1732.07,63.14 1734.37,63.41 1731.47,67.26 1719.01,71.6 1719.9,68.6 1719.5,67.28 1717.95,66.99 1714.71,71.65 1714.68,69.3 1709.02,70.41 1707.19,69.76 1708.06,67.12 1703.63,67.53 1685.15,76.58 1680.72,77.48 1676.24,76.53 1675.6,79.23 1674.13,79.38 1669.56,77.74 1669.58,78.97 1672.04,79.99 1674.1,82.31 1667.61,89.14 1667.64,91.4 1665.34,91.43 1662.06,93.21 1663.81,97.01 1661.55,97.22 1659.33,94.79 1657.64,98.29 1653.53,103.43 1650.91,105.53 1645.41,107.29 1644.35,111.12 1642.94,112 1640.5,111.56 1635.75,107.66 1635.3,111.33 1634.23,112.47 1631.96,113.69 1631.43,112.75 1624.79,118.97 1624.37,121.66 1621.21,127.17 1623.79,128.11 1622.81,131.78 1620.66,135.03 1615.1,136.72 1613.82,145.56 1613.11,147.52 1610.88,148.63 1601.45,146.51 1591.35,146.25 1588.72,145.51 1587.2,146.46 1583.18,143.3 1581.67,143.53 1579.37,145.6 1578.09,145.38 1577.1,142.75 1567.12,138.95 1558.8,142.31 1557.46,144.32 1553.7,144.92 1552.37,148.12 1548.86,150.8 1548.05,152.6 1549.11,155.02 1545.74,155.5 1543.55,157.23 1544.48,159.96 1541.48,160.63 1538.56,158.5 1536.96,158.42 1534.51,161.27 1532.61,161.94 1527.09,159.63 1525.23,160.83 1523.9,162.02 1524.93,164.27 1522.47,165.1 1517.31,172.23 1520.64,175.59 1517.6,180.07 1515.92,181.15 1514.11,176.46 1511.84,177.75 1508.58,181.34 1506.56,179.47 1506.35,177.97 1498.38,181.53 1495.19,180.43 1495.05,181.33 1494.19,181.46 1494.71,184.22 1492.17,184.75 1487.51,183.78 1482.74,185.72 1474.89,187.27 1473.12,185.38 1471.52,185.04 1462.23,185.11 1459.39,186.88 1458.85,188.52 1455.02,191.94 1449.69,190.93 1445.56,188.62 1444.48,191.86 1440.5,190.94 1430.15,184.43 1426.11,188.33 1419.91,189.9 1414.76,188.31 1413.64,186.03 1412.46,185.33 1396.22,182.06 1391.7,182.42 1389.33,184.51 1386.92,183.18 1382.13,184.56 1377.38,182.5 1376.03,184.6 1372.65,184.17 1364.49,187.38 1362.85,188.63 1361.6,191.05 1351.88,189.26 1343.1,194.44 1342.04,196.02 1334.35,201.78 1330.48,203.37" fill="none" stroke="#1e1e1e" stroke-width="1.22" stroke-linecap="round" stroke-linejoin="round"/>
<polyline points="525.13,855.87 541.85,839.13 543.34,835.95 543.43,832.65 541.67,829.17 533.95,821.98 533.57,817.7 544.19,762.36 544.47,752.39 545.24,749.27 553.48,731.65 556.28,720.55 555.26,714.91 552.31,715.85 550.45,715.17 549.51,713.67 550.25,700.5 549.82,678.61 551.36,675.62 559.88,671.63 563.71,668.57 566.1,656.21 564.88,649.42 569.97,640.56 568.2,637.69 569.62,633.17 569.32,623.05 573.54,606.31 572.21,589.76 572.74,583.11 573.55,580.44 575.23,578.29 579.71,575.16" fill="none" stroke="#1e1e1e" stroke-width="1.22" stroke-linecap="round" stroke-linejoin="round"/>
<polyline points="1541.46,1132.86 1541.91,1168.85 1544.93,1180.18 1545.03,1188.86 1546.47,1193.94 1545.29,1195.09 1548.83,1207.94 1561.34,1221.55 1563.88,1223.45 1568.56,1225.32 1567.98,1231.06 1564.47,1239.37 1562.73,1242.26 1557.74,1244.78 1555.82,1247.81 1554.97,1251.52 1555.06,1257.96 1553.8,1259.34 1548.01,1261.97 1546.04,1269.04 1544.36,1270.87 1541.7,1272.05 1534.89,1273.14 1534.92,1276.62 1533.54,1277 1530.98,1275.43 1529.64,1276.14 1527.45,1279.27 1523.25,1280.28 1520.4,1282.38 1510.51,1283.22 1497.99,1292.16 1490.09,1299.55 1482.38,1303.83 1445.25,1312.4 1436.17,1316.29 1431.9,1315.49 1426.55,1318.83 1425.02,1320.54 1426.99,1321.63 1427.37,1324.08 1426.32,1326.73 1423.97,1328.34 1425.12,1335.09 1427.19,1338.06 1427.5,1340.2 1426.52,1345.57 1427.56,1347.59 1432.53,1348.02 1433.19,1350.37 1430.36,1352.44 1426.42,1359.99 1422.5,1361.56 1421.38,1364.58 1416.29,1368.06 1417.65,1370.26 1412.99,1378.23 1416.43,1387.74 1415.48,1399.14 1414.18,1402.1 1411.93,1404.43 1411.18,1406.82 1414.45,1409.91 1412.91,1411.18 1411,1415.67 1406.1,1418.56 1404.07,1423.58 1397.52,1426.22 1395.38,1428.19 1394.76,1431.19 1394.69,1445.45 1400.06,1458.62 1403.14,1462.79 1404.64,1470.59 1404.28,1472.12 1401.29,1474.62 1399.18,1478.73 1399.08,1480.17 1399.97,1481.16 1403.6,1483.01 1402.88,1486.21 1400.16,1491.31 1400.3,1494.93 1401.47,1497.16 1404.3,1499.73 1405.74,1504.45 1407.81,1504.68 1410.24,1503.71 1414.68,1500.7 1415.87,1501.7 1416.22,1505.08 1414.17,1508.41 1414.02,1510.08 1416.26,1511.86 1418.06,1509.75 1420.76,1510.59 1419.67,1515.21 1424.16,1512.93 1430.41,1515.13 1433.58,1514.44 1435.42,1515.1 1437.66,1519.07 1442.78,1520.36 1445.02,1522.41 1446.35,1525.3 1446.86,1528.56 1445.78,1534.83 1446.21,1536.6 1449.29,1538.81 1449.94,1541.8 1446.05,1549.08 1439.76,1556.43 1432.14,1568.58 1429.15,1575.62 1429.22,1579.71" fill="none" stroke="#1e1e1e" stroke-width="1.22" stroke-linecap="round" stroke-linejoin="round"/>
<polyline points="1789.22,1074.13 1788.76,1075.78 1792,1078.73 1797.66,1078.99 1812.18,1074.29 1818.12,1070.64 1828.83,1068.53 1833.33,1065.48 1835.49,1064.95 1840.54,1065.89 1842.56,1063.48 1853.44,1063.67 1862.83,1056.3 1873.49,1053.24 1877.98,1052.91 1879.04,1052.03 1884.38,1052.52 1895.8,1048 1901.53,1049.45 1910.82,1043.57 1937.76,1043.15 1939.75,1044 1943.78,1047.85 1947.39,1048.73 1954.24,1047.98 1969.21,1043.31 1975.25,1040.29 1980.7,1035.7" fill="none" stroke="#1e1e1e" stroke-width="1.22" stroke-linecap="round" stroke-linejoin="round"/>
<polyline points="766.07,395.51 753.61,392.99 748.81,390.9 736.15,379.61 719.36,367.81 712.18,360.35 707.52,352.51 699.98,335.79 695.52,328.18 684.72,316.68 682.23,309.87 679.67,306.65 667.84,295.58 661,287.31 658.26,284.81 648.3,280.64 633.72,271.65 629.98,265.7 625.18,265.31 623.23,261.86 619.02,261.29 613.48,257.53 608.33,255.56 605.87,252.11 602.51,243.72 600.24,241.79 594.82,239.6 591.63,233.79 583.76,225.43 583.22,220.5 580.35,217.3 574.87,216.96 568.01,212.43 564.58,211.46 553.16,211.64 549.09,208.87 546.85,203.81 543.06,190.42 541.29,187.88 535.51,184.85 532.04,179.14 521.96,168.64 510.85,164.67 508.09,162.46 496.38,146.45 490.49,143.45 482.42,144.75 476.94,146.64 458.86,149.41 452.87,149.06 442.51,145.66 437.83,145.86 433.17,147.34 428.79,149.82 424.1,154.56 421.85,155.71 411.82,157.88 401.68,158.12 381.45,155.04 372.01,149.5 367.54,150.4 362.04,155.66 359.82,159.34 357.26,166.83 352.5,172.36 347.61,182.65 343.42,189.12 338.17,194.6 324.16,203.76 313.91,213.29 306.12,218.51 297.96,228.04 291.79,233.56 287.37,235.88 272.13,239.61 264.85,242.78 257.23,247.34 250.47,253 245.74,259.49 244.68,262.97 244.52,269.79 243.22,277.46 247.68,288.88 247.76,292.21 246.61,296.85 264.8,346.75 267.23,360.69 269.38,365.78 266.39,376 266.7,379.71 271.05,385.3 274.04,391.99 280.71,398.31 282.88,401.58 282.38,405.68 280.22,408.39 271.71,414.44 263.22,424.25" fill="none" stroke="#1e1e1e" stroke-width="1.22" stroke-linecap="round" stroke-linejoin="round"/>
<polyline points="713.14,410.68 713.62,416.49 712.08,424.14 709.54,431.51 706.89,436.44 703.61,439.6 692.12,446.76 688.82,450.89 687,455.79 683.89,470.71 682.25,474.23 677.66,479.16 659.73,486.8 653.88,486.98 643.21,489.98 635.98,489.16 625.39,485.25 621.98,484.88 618.77,486.08 611.79,497.12 604.6,500.67 603.28,502.81 602.34,509.23 599.95,511.39 589.25,515.37 586.02,518.96 584.63,523.13 583.56,536.87 583.76,541.09 586.44,549.38 586.47,553.36 583.4,562.55 582.56,571.17 579.71,575.16" fill="none" stroke="#1e1e1e" stroke-width="1.22" stroke-linecap="round" stroke-linejoin="round"/>
<polyline points="1966.9,200.76 1964.65,201.41 1961.99,199.94 1958.1,197.24 1957.1,194.39 1955.84,193.89 1950.19,196.85 1949.45,195.97 1949.18,192.83 1946.85,193.29 1946.22,192.52 1945.93,182.36 1943.79,173.37 1945.16,171.5 1945.51,168.62 1943.05,164.97 1940.15,158.25" fill="none" stroke="#1e1e1e" stroke-width="1.22" stroke-linecap="round" stroke-linejoin="round"/>
<polyline points="1888.14,247.05 1887.39,257.21 1888.9,259.7 1891.05,260.96 1926.71,261.94 1937.07,264.33 1941.51,266.61 1942.05,268.28 1941.26,270.72 1941.6,272.25 1949.41,277.65 1949.43,278.88 1947.23,280.05 1956.31,286.06 1957.41,289.47 1958.35,290.21 1963.98,287.67 1965.91,288.66 1967.42,294.37 1968.45,294.53" fill="none" stroke="#1e1e1e" stroke-width="1.22" stroke-linecap="round" stroke-linejoin="round"/>
<polyline points="1981.24,1193.89 1983.32,1193.99" fill="none" stroke="#1e1e1e" stroke-width="1.22" stroke-linecap="round" stroke-linejoin="round"/>
<polyline points="1983.58,1209.84 1978.29,1215.25 1977.06,1218.3 1976.6,1222.05 1971.86,1234.81 1970.68,1244.42 1969.51,1246.32 1961.91,1250.76 1955.91,1258.82 1948.55,1262.95 1944.56,1263.9 1943.77,1264.9 1943.04,1268.07 1939.69,1274.38 1940.03,1276.68 1943.77,1278.82 1945.18,1283.07 1945.51,1288.43 1943.42,1292.36 1944.81,1297.55 1942.36,1302 1938.99,1300.92 1937.3,1303.42 1939.08,1306.67 1935.69,1307.82 1933.52,1310.13 1935.8,1312.32 1936.97,1315.21 1934.78,1319.13 1930.08,1323.58 1924.71,1327.19 1919.67,1327.27 1905.85,1333.22 1901.49,1331.38 1898.07,1331.67 1900.27,1335.56 1893.12,1344.08 1891.03,1348.55 1891.42,1351.47 1893.81,1356.87 1893.57,1358.28 1890.48,1357.13 1890.53,1360.61 1892.68,1362.89 1891.54,1366.38 1886.13,1372.05 1882.7,1368.52 1881.81,1370.21 1880.41,1370.9 1876.52,1370.96 1875.85,1371.87 1876.02,1377.75 1874.79,1379.09 1869.84,1377.84 1869.21,1378.5 1871.67,1382.21 1870.03,1384.16 1862.65,1385.93 1864.75,1387.72 1863.84,1390.32 1860.79,1387.79 1857.37,1387.08 1855.22,1388.31 1855.89,1391.57 1854.2,1391.1 1851.36,1388.26 1849.36,1388.71 1850.29,1391.65 1848.89,1397.92 1849.8,1399.37 1852.62,1397.36 1852.79,1409.76 1851.18,1410.02 1847.8,1408.57 1846.07,1413.99 1840.62,1415.23 1841.07,1418.7 1840.49,1420.2 1839.09,1420.3 1836.05,1418.75 1827.24,1424.12 1823.07,1424.76 1819.08,1423.88 1818.35,1426.41 1813.88,1428.29 1812.64,1430.63 1811.42,1430.65 1811.39,1428.49 1805.81,1430.73 1802.94,1426.51 1802.51,1424.28 1803.44,1421.84 1799.83,1420.37 1793.72,1412.32 1790.72,1411.24 1787.06,1414.14 1784.13,1412.96 1781.48,1414.53 1777.9,1418.85 1776.44,1423.77 1769.67,1431.2 1768.61,1434.42 1768.12,1438.99 1768.92,1443.07 1771.57,1444.82 1772.24,1456.19 1775.45,1460.1 1775.67,1461.79 1774.45,1463.4 1768.42,1465.89 1762.56,1470.8 1756,1487.67 1752.18,1489.04 1747.09,1492.35 1732.57,1488.96" fill="none" stroke="#1e1e1e" stroke-width="1.22" stroke-linecap="round" stroke-linejoin="round"/>
<polyline points="1975.57,1331.55 1976.94,1349.14 1978.16,1352.48 1971.77,1374 1972.04,1376.86 1975.28,1382.97 1976.72,1387.62 1976.57,1392.59 1973.25,1401.77 1973.5,1406.49 1972.75,1408.39 1970.61,1409.19 1969.23,1413.26 1966.84,1416.54 1964.26,1424.47 1962.4,1426.25 1958.32,1427.53 1954.6,1429.76 1952.73,1432.01 1950.16,1438.85 1955.97,1445.54 1954.74,1447.45 1955.19,1449.5 1958.33,1452.27 1957.78,1454.15 1958.47,1460.83 1946.11,1478.21 1944.73,1479.29 1933.64,1481.96 1928.86,1489.92 1927.25,1491.33 1921.4,1491.62 1919.41,1492.59 1920.63,1494.9 1917.29,1501.18 1916.97,1515.67 1913.76,1531.16 1912.34,1545.82 1912.46,1547.19 1913.77,1548.69 1916.81,1549.83 1918.06,1551.62 1916.31,1555.86 1916.63,1558.37 1918.2,1560.66 1924.42,1562.95 1926.14,1567.42 1932.5,1572.24 1931.03,1583.15 1936.16,1582.55 1938.96,1585.29 1940.07,1582.64 1941.07,1581.61 1942.29,1581.74 1943.26,1583.09 1943.5,1587.36 1945.73,1589.44 1952.6,1591.85 1953.93,1595.4" fill="none" stroke="#1e1e1e" stroke-width="1.22" stroke-linecap="round" stroke-linejoin="round"/>
<polyline points="1732.57,1488.96 1729.22,1490.7 1725.41,1490 1712.8,1484.12 1709.17,1480.28 1703.48,1478.19 1702.07,1480.19 1700.67,1480.67 1690.25,1479.87 1686.08,1482.73 1684.12,1483.23 1670.97,1483.37 1665.08,1486.51 1660.44,1490.93 1657.26,1492.08 1646.33,1490.52 1638.4,1496.25 1636.31,1499.66 1631.71,1501.96 1626.66,1511.88 1621.05,1515.22 1616.71,1523.03 1612.28,1524.84 1591.71,1525.5 1592.52,1528.99 1591.89,1530.08 1583.27,1533.69 1581.82,1535.03 1580.51,1542.75 1578.54,1543.34 1574.59,1546.77 1571.78,1551.41 1568.68,1552.19 1561.08,1558.3 1556.53,1552.59 1549.75,1549.88 1549.05,1548.38 1545.93,1545.83 1541.99,1551.69 1536.39,1555.03 1534.69,1559 1531.81,1560.44 1520.12,1570.11 1517.05,1571.63 1510.1,1573.07 1506.77,1574.95 1495.08,1584.27 1491.92,1585.58 1487.38,1586.04 1475.42,1581.72 1470.11,1576.74 1460.78,1565.23 1453.77,1562.59 1449.53,1562.71 1446.29,1563.81 1443.61,1565.85 1422.57,1586.75 1421.31,1588.29 1420.84,1592.2 1419.5,1595.02 1412.86,1601.58" fill="none" stroke="#1e1e1e" stroke-width="1.22" stroke-linecap="round" stroke-linejoin="round"/>
<polyline points="1791.87,1018.71 1799.24,1014.87 1802.29,1011.21 1806.73,1007.83 1820.3,1003.96 1824.17,1001.33 1825.57,995.07 1824.07,989.87 1818.96,979.49 1819.7,973.65 1821.36,971.38 1828.54,967.9 1838.02,959.75 1842.04,958.59 1850.87,957.88 1853.88,956.61 1856.4,953.99 1860.72,943.8 1867.84,935.7 1868.17,932.89 1866.43,926.97 1866.56,924.42 1869.39,918.41 1868.12,910.63 1863.46,900.63 1860.59,896.82 1854.96,895.12 1852.57,893.3 1853.77,890.16 1859.82,881.69 1859.73,875.95 1865.2,866.94 1865.08,861.8 1863.92,857.57 1865.81,854.35 1866.06,852.12 1864.92,850.56 1857.08,846.62 1849.49,839.99 1846.02,835.71 1844.53,831.56 1841.74,827.78 1824.3,823.35 1822.67,820.99 1822.03,813.24 1817.95,805.52 1815.8,798.53 1804.9,787.39 1797,781.78 1794.3,773.51 1785.62,761.28 1780,763.19 1765.18,777.98 1758.78,778.16 1756.48,781.06 1753,782.27 1745.66,783.76 1742.31,782.57 1739.11,784.87 1731.19,782.71 1725.71,787.39 1723.28,786.97 1720.64,782.28 1715.03,778.51 1712.71,774.46 1707.73,772.61 1704.79,769.87 1701.89,768.39 1698.73,770.72 1697.98,768.54 1698.67,766.22 1684.72,760.5 1679.15,759.69 1673.46,754.93 1670.67,754.06 1662.66,757.39 1652.42,765.02 1648.52,770.27 1644.84,771.07 1634.29,778.28 1628.81,780.04 1624.07,779.64 1622.14,778.28 1618.46,772.75 1603.32,758.78 1601.83,756.55 1601.29,751.85 1598.12,749.21 1591.16,739.4 1586.56,735.29 1581.21,733.62 1572.11,732.4 1549.27,742.25 1544.31,742.59 1537.18,739.31 1527.92,739.19" fill="none" stroke="#1e1e1e" stroke-width="1.22" stroke-linecap="round" stroke-linejoin="round"/>
<polyline points="1527.92,739.19 1519.61,736.81 1510.93,736.29 1497.45,738.13 1486.12,743.7 1475.58,751.56 1447.18,766.08 1438.98,772.2 1432.28,779 1424.53,781.85 1423.52,784.64 1420.83,788.13 1414.5,790.31 1402.38,792.73 1392.06,797.92 1382.73,805.7 1374.88,815.23 1364.55,835.13 1360.93,850.9 1357.22,855.59 1352.53,859.36 1338.16,867.73 1335,868.5 1326.92,867.79 1321.47,869.24 1311.12,875.13 1305.71,875.88 1296.8,871.33 1293.66,871.52 1290.96,872.69 1286.1,876.5 1284.31,876.69 1276.57,873.68 1271.31,874.24 1266.68,876.07 1261.89,875.99 1257.62,887.58 1254.44,890.66 1251.66,891.35 1249.92,893.02 1244.66,901.92 1234.12,904.93 1233.99,911.55 1233.04,913.43 1231.2,914.57 1226.8,915.32 1223.53,917.64 1218.95,929.9 1214.18,931.68 1207.69,932.2 1201.89,933.64 1196.33,936.08 1192.83,939.19 1187.58,946.82 1183.85,949.61 1169.72,951.01 1163.24,956.41 1155.76,960.04 1150.59,964.05 1143.25,966.75 1140.63,970.42 1121.92,975.62 1116.03,980.33 1111.49,988.32 1107.04,990.49 1104.82,995.1 1102.95,996.33 1096.91,997.36 1089.12,1000.85 1074.83,1005.38 1068.91,1006.4 1056.89,1006.51 1050.96,1007.97 1047.24,1010.97 1044.33,1014.88 1039.27,1018.36 1032.91,1019.65 1019.9,1020.44 1014,1022.16 997.13,1030.06 993.89,1030.87 974.35,1030.23 969.7,1028.98 963.74,1025.46 954.43,1023.5 940.97,1015.13 937.25,1011.08 922.06,1007.6 908.87,1001.38 895.12,998.99 884.18,993.05 878.56,991.5 867.02,990.12 853.64,986.12 843.13,984.93 832.78,982.3 806.94,984.28 778.23,981.66 772.77,982.22 739.77,993.3 731.37,998.31 731.17,999.22 726.83,1002.57 721.17,1006.07 703.09,1013.57 693.47,1015.54 688.56,1019.35 687.89,1021.82" fill="none" stroke="#1e1e1e" stroke-width="1.22" stroke-linecap="round" stroke-linejoin="round"/>
<polyline points="348.13,553.82 353.55,547.5 353.88,538.41 359.6,509.02 359.27,503.4 355.94,499.31 348.77,494.31 337.71,474.32 326,465.23 315.51,459.6 302.66,457.2 293.98,457.19 290.7,455.92 284.41,446.75 277.86,440.09 274.63,433.48 263.51,426.22 262.4,419.96 256.4,412.81 251.5,411.24 241.75,406.16 237.98,402.95 232.9,403.93 229.02,403.08 220.77,394.2 217.55,392.41 197.4,388.15 186.18,381.95 184.9,380.84 183.85,376.92 182.24,374.61 177.65,371.1 176.21,368.47 174.86,367.71 172.07,359.77 169.38,357.55 162.78,348.43 155.12,344.95 144.43,338.68 142.56,338.28 138.07,340.59 135.83,339.98 132.51,337.29 126.65,328.27 123.94,317.07 93.91,288.59 85.42,274.83 78.72,273.7 75.08,272.01 73.78,270.6 72.82,266.88 70,263.03 66.72,261.19 59.1,254.11 49.93,249.06 42.9,246.66 41.21,242.85 40.7,234.03 39.27,230.09 37.85,229.52 36.28,229.96 33.63,235.27 32.53,235.3" fill="none" stroke="#1e1e1e" stroke-width="1.22" stroke-linecap="round" stroke-linejoin="round"/>
<polyline points="597.5,1564.09 599.34,1557.26 601.72,1552.96 598.65,1546.49 596.47,1535.65 600.28,1530.5 601.12,1527.77 598.84,1517.03 602.8,1509.49 604.7,1498.36 601.41,1489.43" fill="none" stroke="#1e1e1e" stroke-width="1.22" stroke-linecap="round" stroke-linejoin="round"/>
<polyline points="601.41,1489.43 601.38,1489.3" fill="none" stroke="#1e1e1e" stroke-width="1.22" stroke-linecap="round" stroke-linejoin="round"/>
<polyline points="341.84,676.22 345.56,700.31 345.11,701.75 341.06,703.46 339.83,708.86 332.66,722.1 331.94,727.36 332.74,732.63 338.31,745.45 339.46,750.29 339.59,759.71 340.15,759.37 340.72,765.2 342.07,767.53 344.53,769.36 359.76,773.62 361.71,777 361.18,791.22 364.12,794.48 368.64,795.99 373.65,795.7 380.25,793.77 387.54,789.72 398.13,786.42 402.47,786.99 425.82,800.95 431.32,807.62 432.09,809.36 432.2,814.7 433.36,816.95 435.31,818.35 453.19,821.82 464.1,821.25 466.47,821.75 477.01,829.8 488.68,831.84 491.81,833.92 497.34,839.72 502.13,846.84 504.23,848.53 506.79,849.41 517.46,849.96 522.4,851.62 529.57,862.46 549.77,864.32 556.9,861.51 560.89,860.76 578.78,860.72 583.7,862.09 589.85,867.27 606.05,864.24 608.89,864.53 616.08,869.7 619.34,870.23 621.93,871.67 624.01,873.83 628,880.66 628.4,885.01 631.28,891.5 632.18,891.71 632.76,893.12 635.56,907.34 639.21,915.01 656.58,928 658.46,930.21 664.78,940.52 675.41,951.2 679.61,959.91 687.42,970.73 689.61,976.13 693.06,996.95 692.83,999.7 688.49,1009.96 686.36,1024.34 684.86,1029.27 685.95,1037.03 680.87,1044.47 678.32,1053.76 679.34,1061.76 677.74,1086.34 678.14,1091.64 675.83,1111.87 675.93,1114.99 678.87,1122.08 679.51,1126.79 676.79,1135.88 675.97,1144.42 674.53,1148.29 674.1,1158.73 669.77,1167.88 667.73,1177.06 668.64,1185.73 667.81,1206.86 668.43,1213.87 671.68,1223.22 672.6,1238.11 677.07,1254.29 678.05,1263.38 680.93,1271.46 682.2,1280.17 685.15,1286.53 684.88,1296.14 683.08,1299.64 679.22,1301.23 675.99,1303.84 675.24,1307.55 675.84,1316.22 673.6,1324.61 673.41,1330.51 666.2,1340.65 661.33,1350.52 659.56,1362 655.19,1381.04 651.86,1388.61 649.67,1398.64 645.19,1403.93 641.28,1405.68 637.73,1408.88 640.72,1416.42 641.07,1420.01 638.4,1421.52 614.37,1425.49 608.56,1430.65 606.95,1437.57 603.97,1438.34 597.02,1438.23 593.92,1439.31 592.61,1443.29 594.8,1449.04 593.99,1450.71 588.04,1452.9 584.6,1455.86 582.41,1456.35 576.49,1455.06 575.04,1455.68 570.28,1462.15 567.53,1463.59 563.13,1462.97 556.31,1459.43 545.47,1449.69 543.19,1449.01 533.54,1449.73 530.65,1448.84 529.47,1446.26 518.17,1452.37 514.25,1449.99 513.04,1453.2 511.73,1453.49 508.57,1452.3 502.25,1453.11 496.7,1454.45 492.66,1456.77 491.3,1456.05 490.34,1452.86 489.36,1452.14 483.1,1455.57 476.34,1456.63" fill="none" stroke="#1e1e1e" stroke-width="1.22" stroke-linecap="round" stroke-linejoin="round"/>
<polyline points="567.58,1576.81 568,1568.29 565.1,1562.72 569.78,1556 571.39,1549.76 573.9,1545.75 572.04,1543.88 574.24,1537.96 574.61,1524.85 573.73,1521.32 570.6,1519.66 572.23,1517.63 575.11,1517.43 572.91,1512.91 576.85,1507.05 582.07,1505.07 583.2,1501.59 586.79,1500.23 590.04,1500.79 592.42,1499.92 593.83,1490.75 594.73,1490.93 595.72,1493.78 597.66,1492.79 599.48,1489.9 601.41,1489.43" fill="none" stroke="#1e1e1e" stroke-width="1.22" stroke-linecap="round" stroke-linejoin="round"/>
<polyline points="601.41,1489.43 603.54,1488.3 602.18,1480.99 602.48,1479.04 605.33,1479 605.96,1478.04 605.69,1475.97 600.86,1476.27 600.21,1474.99 600.96,1465.29 609.41,1465.55 611.59,1462.57 613.65,1454.56 617.28,1455.29 620.25,1452.69 620.29,1448.75 616.25,1449.8 613.04,1448.73 612.26,1447.62 616.19,1442.68 618.32,1435.95 626.57,1433.87 632.7,1424.37 635.78,1423.21 639.41,1423.32 642.06,1422.43 642.29,1418.27" fill="none" stroke="#1e1e1e" stroke-width="1.22" stroke-linecap="round" stroke-linejoin="round"/>
<polyline points="679.99,1546.41 677.07,1536.51 674.53,1533.67 672.14,1526.53 669.98,1523.68 666.01,1524.75 662.36,1523.08 659.69,1519.58 658.23,1513.37 655.46,1506.67 656.53,1498.68 651.22,1489.05 647.34,1487.96 646.46,1486.71 646.16,1483.51 645.12,1483.26 640.87,1485.03 634.49,1482.9 632.89,1484.98 630.64,1481.82 629.55,1478.19 629.6,1474.8 631.45,1467.16 632.44,1465.69 635.38,1464.22 636.76,1460.7 637.7,1453.22 640.02,1447.93 647.65,1441.63 653.2,1434.79 655.38,1430.29 658.45,1429.6 661.54,1426.28 659.25,1416.11 660.45,1401.92 659.67,1398.01 652.64,1392.19" fill="none" stroke="#1e1e1e" stroke-width="1.22" stroke-linecap="round" stroke-linejoin="round"/>
<polyline points="348.22,553.48 333.06,567.09 324.69,582.54 322.85,587.71 321.92,593.76 322.7,598.48 331.34,615.43 331.11,618.37 327.42,626.24 326.42,630.44 327.36,636.35 332.56,644.08 336.51,652.56 336.76,657.21 335.12,663.56 336.08,668.3 339.31,671.53 341.84,676.22" fill="none" stroke="#1e1e1e" stroke-width="1.22" stroke-linecap="round" stroke-linejoin="round"/>
<text x="661.94" y="1034.38" font-family="sans-serif" font-size="14" stroke="#ffffff" stroke-opacity="0.784" stroke-width="2.33" stroke-linejoin="round" paint-order="stroke" fill="#141414">Niger</text>
<text x="1114.86" y="976.28" font-family="sans-serif" font-size="14" stroke="#ffffff" stroke-opacity="0.784" stroke-width="2.33" stroke-linejoin="round" paint-order="stroke" fill="#141414">Benue</text>
<text x="418.27" y="154.55" font-family="sans-serif" font-size="14" stroke="#ffffff" stroke-opacity="0.784" stroke-width="2.33" stroke-linejoin="round" paint-order="stroke" fill="#141414">Sokoto</text>
<text x="1340.25" y="485.5" font-family="sans-serif" font-size="14" stroke="#ffffff" stroke-opacity="0.784" stroke-width="2.33" stroke-linejoin="round" paint-order="stroke" fill="#141414">Gongola</text>
<text x="1762.98" y="783.7" font-family="sans-serif" font-size="14" stroke="#ffffff" stroke-opacity="0.784" stroke-width="2.33" stroke-linejoin="round" paint-order="stroke" fill="#141414">Bénoué</text>
<text x="1032.64" y="321.99" font-family="sans-serif" font-size="14" stroke="#ffffff" stroke-opacity="0.784" stroke-width="2.33" stroke-linejoin="round" paint-order="stroke" fill="#141414">Hadejia</text>
<text x="1402.03" y="1352.39" font-family="sans-serif" font-size="14" stroke="#ffffff" stroke-opacity="0.784" stroke-width="2.33" stroke-linejoin="round" paint-order="stroke" fill="#141414">Mbam</text>
<text x="1169.75" y="447.99" font-family="sans-serif" font-size="14" stroke="#ffffff" stroke-opacity="0.784" stroke-width="2.33" stroke-linejoin="round" paint-order="stroke" fill="#141414">Bunga</text>
<text x="1486.4" y="150.21" font-family="sans-serif" font-size="14" stroke="#ffffff" stroke-opacity="0.784" stroke-width="2.33" stroke-linejoin="round" paint-order="stroke" fill="#141414">Komadugu Yobe</text>
<text x="1849.72" y="1391.74" font-family="sans-serif" font-size="14" stroke="#ffffff" stroke-opacity="0.784" stroke-width="2.33" stroke-linejoin="round" paint-order="stroke" fill="#141414">Lom</text>
<text x="150.74" y="1041.44" font-family="sans-serif" font-size="14" stroke="#ffffff" stroke-opacity="0.784" stroke-width="2.33" stroke-linejoin="round" paint-order="stroke" fill="#141414">Ogun</text>
<text x="1537.41" y="1559.01" font-family="sans-serif" font-size="14" stroke="#ffffff" stroke-opacity="0.784" stroke-width="2.33" stroke-linejoin="round" paint-order="stroke" fill="#141414">Sanaga</text>
<text x="1920.67" y="1486.3" font-family="sans-serif" font-size="14" stroke="#ffffff" stroke-opacity="0.784" stroke-width="2.33" stroke-linejoin="round" paint-order="stroke" fill="#141414">Kadéï</text>
<text x="520.75" y="722.45" font-family="sans-serif" font-size="14" stroke="#ffffff" stroke-opacity="0.784" stroke-width="2.33" stroke-linejoin="round" paint-order="stroke" fill="#141414">Kaduna</text>
<text x="606.15" y="496.03" font-family="sans-serif" font-size="14" stroke="#ffffff" stroke-opacity="0.784" stroke-width="2.33" stroke-linejoin="round" paint-order="stroke" fill="#141414">Mariga</text>
<text x="1864.78" y="1059.42" font-family="sans-serif" font-size="14" stroke="#ffffff" stroke-opacity="0.784" stroke-width="2.33" stroke-linejoin="round" paint-order="stroke" fill="#141414">Vina</text>
<text x="1753.34" y="91.73" font-family="sans-serif" font-size="14" stroke="#ffffff" stroke-opacity="0.784" stroke-width="2.33" stroke-linejoin="round" paint-order="stroke" fill="#141414">Komadugu Yobe</text>
<text x="1910.64" y="270.54" font-family="sans-serif" font-size="14" stroke="#ffffff" stroke-opacity="0.784" stroke-width="2.33" stroke-linejoin="round" paint-order="stroke" fill="#141414">Chari</text>
<text x="306.6" y="619.22" font-family="sans-serif" font-size="14" stroke="#ffffff" stroke-opacity="0.784" stroke-width="2.33" stroke-linejoin="round" paint-order="stroke" fill="#141414">Niger</text>
</svg>
