<?xml version="1.0" encoding="UTF-8" standalone="no"?>
<svg xmlns="http://www.w3.org/2000/svg" width="2000" height="1611" viewBox="0 0 2000 1611">
<rect width="2000" height="1611" fill="#ffffff"/>
<polyline points="1041.84,1602.99 1039.12,1600.27 1040.54,1594.49 1039.63,1590.54 1035.33,1586.32 1033.48,1580.21 1033.44,1577.54 1034.42,1577.95 1033.31,1576.11 1036.41,1572.3 1035.31,1569.2 1039.19,1564.68 1040.58,1561 1043.67,1558.54 1042.14,1556.99 1039.65,1559.05 1036.53,1564.59 1034.04,1562.91 1034.09,1551.89 1032.73,1550.02 1032.07,1550.9 1030.43,1549.8 1026.55,1544.61 1026.98,1542.86 1025.34,1544.77 1023.32,1543.18 1024.69,1535.12 1022.2,1535.84 1020.82,1538.11 1015.82,1539.39 1014.07,1540.8 1010.93,1540.81 1009.48,1536.07 1013.42,1528.68 1014.28,1524.85 1013.74,1523.54 1016.18,1522.53 1015.52,1520.99 1013.32,1521.41 1015.54,1521.25 1016.02,1522.33 1013.53,1523.43 1013.77,1525.59 1011.67,1530.32 1010.2,1531.38 1008.55,1535.78 1010.18,1541.13 1013.5,1541.93 1013.82,1546.08 1019.59,1556.16 1019.64,1557.46 1017.52,1559.11 1014.68,1559.35 1011.09,1555.21 1006.43,1553.5 1004.38,1551.55 1005.02,1551.66 1003.6,1546.77 1000.16,1540.15 999.95,1537.85 995.12,1534.05 994.34,1528.08 997.8,1528.3 998.06,1525.86 999.28,1524.27 999.97,1524.57 999.3,1524.1 997.76,1525.49 997.55,1524.78 999.74,1521.19 997.52,1523.73 997.47,1527.98 993.94,1526.94 992.71,1534.79 995.68,1538.31 996.82,1541.2 998.11,1552.28 999.49,1556.29 1001.7,1557.82 1005.16,1558.32 1009.36,1563.35 1007.14,1565.58 1000.43,1567.73 980.46,1567.26 982.72,1564.04 983.68,1560.57 982.98,1558.56 980.55,1557.79 979.76,1556.24 981.43,1555.42 981.54,1554.64 980.23,1554.01 979.93,1552.47 977.54,1550.14 980.62,1547.43 984.38,1545.76 985.07,1544.52 982.11,1539.01 982.89,1535.91 979.75,1534.31 981.57,1533.73 979.17,1530.23 978.74,1528.2 979.29,1526.75 978.15,1526.35 977.12,1527.15 976.16,1526.17 974.59,1527.01 975.89,1530.22 973.96,1531.32 972.17,1531.04 972.31,1533.02 967.5,1533.8 967.05,1533.26 967.74,1533.05 963.45,1532.17 964.83,1527.71 967.72,1527.3 964.4,1522.96 961.14,1526.94 957.71,1527.71 952.29,1524.96 952.37,1522.65 950.37,1519.38 945.31,1516.58 938.54,1521.09 940.8,1523.99 939.68,1529.49 940.26,1529.14 941.65,1530.51 941.92,1532.99 941.65,1537.5 939.23,1538.67 942.16,1541.08 944.11,1544.24 944.94,1547.6 942.31,1550.45 940.16,1550.66 938.79,1549.53 936.93,1551.38 936.44,1552.32 937.09,1553.17 934.67,1556.4 934.85,1558.33 937.52,1557.48 935.79,1559.19 918.43,1557.61 902.38,1557.54 888.22,1558.66 885.88,1558.18 850.36,1562.13 835.85,1565.73 833.7,1565.35 826.06,1568.6 825.6,1569.58 823.85,1569.49 818.76,1572.85 804.98,1573.02 791.76,1576.07 779.56,1574.08 777.02,1578.65 757.55,1584.55 747.42,1583.63 745.96,1585 745.17,1583.1 745.43,1579.67 748.25,1576.46 749.49,1576.74 748.78,1576.08 750.69,1573.39 747.58,1570.95 743.96,1570.13 741.56,1570.58 740.46,1572.09 735.76,1572.87 734.04,1574.19 729.27,1574.93 725.38,1583.3 722.61,1585.83 719.45,1584.33 715.33,1585.13 707.1,1582.64 702.96,1582.2 701.03,1585.67 702.64,1587.34 702.2,1588.02 696.66,1588 684.81,1589.55 677.9,1589.03 676.97,1588.29 674.01,1590.68 665.55,1592.5 663.9,1594.94 659.49,1591.18 656.03,1592.87 638.68,1593.55 636.19,1594.62 632.59,1594.91 631.7,1594.24 625.33,1596.19 604.18,1598.26 598.35,1598.04 593.55,1600.41 574.55,1601.49" fill="none" stroke="#1e1e1e" stroke-width="1.22" stroke-linecap="round" stroke-linejoin="round"/>
<polyline points="572.6,1601.47 572.11,1600 569.29,1598.63 556.06,1595.28 554.41,1594.2 555.19,1591.59 541.15,1584.98 533.19,1579.8 529.97,1575.93 509.89,1560.83 508.49,1559.07 509.8,1558.45 502.75,1552.18 483.29,1524.47 482.55,1522.28 483.62,1521.88 480.45,1517.93 479.81,1515.19 473.19,1504.13 468.11,1493.31 469.04,1491.46 466.37,1486.25 467.17,1486.4 466.71,1480.74 456.97,1460.3 456.79,1456.57 453.74,1451.26 451.98,1439.44 448.02,1422.27 448.03,1413.08 435.54,1407.75 428.56,1400.67 421.59,1390.56 422.39,1388.17 423.99,1387.59 426.48,1384.9 425.07,1381.44 418.98,1376.48 414.71,1371.11 409.21,1360.27 409.36,1354.84 403.14,1349.97 399.99,1342.65 391.24,1330.02 358.23,1294.94 341.13,1281.21 338.33,1278 335.21,1276.33 334.3,1274.71 331.56,1273.34 320.95,1264.6 307.32,1257.47 296.06,1253.49 285.5,1250.91 263.9,1247.99 249.51,1244.72 249.8,1246.13 242.64,1243.74 235.97,1242.58 234.69,1243.03 234.35,1242.08 233.18,1241.84 233.06,1242.5 225.98,1240.93 214.66,1239.8 200.72,1239.47 178.08,1241.48 146.51,1241.47 146.02,1242.7 146.11,1242.17 143.71,1241.53 143.83,1242.7 145.62,1243.1 139.56,1243.49 135.04,1245.62 134.84,1244.88 133.38,1244.86 134.33,1246.3 122.29,1244.51 110.27,1243.86 52.06,1244.57 38.76,1245.24 15.79,1247.75" fill="none" stroke="#1e1e1e" stroke-width="1.22" stroke-linecap="round" stroke-linejoin="round"/>
<polyline points="977.02,1550.17 979.72,1552.4 980.2,1554.16 981.29,1554.53 981.38,1555.26 979.61,1556.22 980.34,1557.8 983.08,1559.2 983.34,1560.86 981.23,1561.73 976.36,1565.93 973.45,1565.25 972.1,1564.08 970.67,1559.74 970.52,1556.4 974.53,1555.21 975.01,1552.03 977.02,1550.17" fill="none" stroke="#1e1e1e" stroke-width="1.22" stroke-linecap="round" stroke-linejoin="round"/>
<polyline points="1021.53,1569.44 1023.26,1570.8 1022.41,1569.31 1023.61,1569.15 1025.69,1566.1 1025.72,1568.19 1024.11,1570.53 1026.33,1568.97 1026.84,1569.47 1021.96,1573.22 1021.53,1569.44" fill="none" stroke="#1e1e1e" stroke-width="1.22" stroke-linecap="round" stroke-linejoin="round"/>
<polyline points="981.41,1545.38 978.11,1547.37 977.01,1546.97 977.1,1548.27 973.37,1550.79 970.57,1546.59 972.91,1540.65 973.08,1538.09 976.63,1538.39 978.16,1539.26 977.35,1541.06 978.02,1541.22 977.57,1541.88 978.54,1544.01 981.41,1545.38" fill="none" stroke="#1e1e1e" stroke-width="1.22" stroke-linecap="round" stroke-linejoin="round"/>
<polyline points="1018.1,1547.19 1017.58,1545.16 1015.26,1545.46 1014.67,1541.25 1015.97,1540.1 1021.67,1538.45 1023.02,1536.24 1022.57,1543.62 1027.86,1550.78 1031.28,1558.72 1031.36,1560 1030.53,1560.21 1031.39,1560.28 1031.21,1560.96 1029.54,1560.81 1026.91,1559.06 1026.37,1556.81 1025.66,1556.92 1021.58,1553.29 1022.06,1551.84 1019.63,1550.97 1019.85,1549.54 1021.21,1550.4 1022.13,1550.06 1022.58,1551.12 1023.1,1550.38 1023.75,1550.86 1023.66,1549.62 1022.91,1551.03 1022.33,1550.76 1023.02,1548.11 1022.37,1550.04 1021.29,1550.24 1020.03,1549.32 1021.26,1548.33 1020.36,1549.44 1018.26,1547.38 1021.34,1545.95 1018.1,1547.19" fill="none" stroke="#1e1e1e" stroke-width="1.22" stroke-linecap="round" stroke-linejoin="round"/>
<polyline points="975.31,1535.44 976.75,1534.15 977.43,1534.38 977.8,1537.15 975.28,1537.84 975.31,1535.44" fill="none" stroke="#1e1e1e" stroke-width="1.22" stroke-linecap="round" stroke-linejoin="round"/>
<polyline points="631.67,1595.39 632.62,1595.45 633.13,1596.95 631.67,1595.39" fill="none" stroke="#1e1e1e" stroke-width="1.22" stroke-linecap="round" stroke-linejoin="round"/>
<polyline points="1017.31,1545.12 1018.1,1547.47 1019.85,1549.1 1019.48,1551.08 1021.87,1552.03 1021.49,1552.45 1019.57,1551.77 1015.32,1545.63 1017.31,1545.12" fill="none" stroke="#1e1e1e" stroke-width="1.22" stroke-linecap="round" stroke-linejoin="round"/>
<polyline points="977.27,1538.48 978.94,1535.05 982.46,1535.94 981.69,1539.5 984.11,1543.38 984.09,1544.72 981.89,1545.08 978.73,1543.75 978.12,1541.07 977.52,1541.09 978.4,1539.39 977.27,1538.48" fill="none" stroke="#1e1e1e" stroke-width="1.22" stroke-linecap="round" stroke-linejoin="round"/>
<polyline points="1029.19,1551.89 1030.04,1552.14 1030.63,1554.41 1029.77,1554.35 1029.19,1551.89" fill="none" stroke="#1e1e1e" stroke-width="1.22" stroke-linecap="round" stroke-linejoin="round"/>
</svg>
