<?xml version="1.0" encoding="UTF-8" standalone="no"?>
<svg xmlns="http://www.w3.org/2000/svg" width="2000" height="1540" viewBox="0 0 2000 1540">
<rect width="2000" height="1540" fill="#ffffff"/>
<path d="M35.89,1090.8L55.71,1096.2L71.6,1092.51L77.69,1093.9L81.89,1096.61L91.58,1100.17L98.67,1098.16L125.89,1096.78L130.16,1094.52L169.6,1060.59L332.28,1057.07L379.31,1059.52L380.04,1050.51L380.96,1047.99L437.34,1058.45L439.08,1057.61L442.62,1053.37L443.51,1046.9L442.71,1044.21L443.12,1042.44L450.46,1038.04L455.9,1030.79L464.06,1022.21L466.29,1020.86L474.87,1020.55L480.04,1019.02L482.76,1017.81L486.52,1014.2L489.23,1007.52L492.07,995.38L498.64,985.74L498.92,978.24L500.73,973.83L499.6,969.36L500.53,966.07L504.74,957.52L510.18,948.87L512.92,940.03L515.22,935.5L526.7,928.62L527.55,875.26L528.7,872.49L529.98,851.81L536.42,851.68L541.91,579.6L550.2,579L560.2,577.17L727.71,544.08L803.31,477.73L807.17,473.57L925.92,368.19L1108.11,248.77L1108.23,249.41L1114.48,246.06L1342.99,99.28L1376.78,75.38L1458.34,22.63L1624.97,57.01L1641.93,63.17L1649.35,68.06L1723.97,130.85L1812.17,78.41L1839.98,205.22L1843.33,269.21L1853.17,275.34L1896.27,336.07L1891.29,339.46L1888.43,345.43L1888.66,354.08L1891.17,360.34L1898.19,366.3L1903.16,368.4L1943.41,410.8L1916.62,465.35L1904.39,612.25L1901.89,796.58L1902.12,851.88L1797.4,975.51L1770.87,1004.9L1753.46,1030.53L1722.4,1079.6L1709.64,1096.02L1701.44,1117.65L1701.92,1125.39L1704.67,1134.85L1699.52,1139.46L1696.66,1138.78L1688.41,1146.79L1688.7,1148.18L1690.47,1149.79L1691.07,1157.66L1683.47,1163.1L1679.56,1164.23L1675.97,1163.83L1666.36,1168.05L1664.69,1170.01L1664.01,1172.19L1665.24,1180.81L1686.46,1265.13L1653.07,1266.09L1649.94,1264.52L1649.23,1265.69L1649.78,1267.84L1648.57,1268.63L1646.44,1267.8L1646.84,1268.94L1646.01,1270.36L1644.91,1270.65L1644.72,1272.69L1643.84,1272.33L1642.87,1273.12L1641.68,1274.68L1642.55,1275.04L1640.36,1276.38L1640.9,1277.76L1638.55,1278.21L1639.7,1279.45L1639.48,1280.22L1640.2,1279.69L1641.1,1280.81L1639.89,1281.61L1639.79,1282.76L1638.4,1281.53L1636.55,1281.83L1636.59,1283.23L1637.83,1283.45L1638.36,1284.58L1634.46,1286.86L1634.13,1288.52L1634.76,1288.89L1632.92,1289.7L1633.34,1291.47L1632.21,1290.87L1631.15,1288.35L1628.69,1289.05L1628.01,1291.23L1626.14,1291.03L1626.91,1287.19L1626.41,1286.94L1625.57,1287.99L1623.72,1288.42L1624.27,1290.57L1621.74,1288.34L1619.71,1291.2L1616.58,1290.14L1616.19,1289.25L1617.79,1289.08L1616.38,1287.21L1614.81,1288.78L1613.93,1288.04L1614,1290.97L1613.73,1289.96L1611.47,1289L1608.84,1292.63L1607.94,1291.38L1606.72,1291.92L1605.95,1291.05L1605.48,1291.95L1604.6,1291.34L1604,1291.99L1603.23,1291.25L1602.89,1292.28L1603.67,1293.78L1602.69,1294.19L1601.3,1293.08L1598.64,1295.7L1596.42,1295.88L1596.27,1295.12L1595.16,1295.15L1595.01,1294.13L1593.02,1294.06L1592.32,1295.48L1593.24,1297.75L1590.72,1295.9L1590.38,1297.31L1589.39,1297.33L1591.02,1297.93L1590.7,1299.98L1591.36,1301.74L1590.6,1301.25L1589.26,1301.92L1588.59,1300.03L1588.4,1302.45L1585.69,1303.16L1587.84,1304.51L1587.64,1306.68L1584.28,1306.25L1582.33,1307.45L1583.73,1309.07L1583.39,1310.1L1581.4,1310.02L1582,1309.11L1580.99,1308.37L1579.89,1308.78L1579.57,1311.21L1576.79,1313.83L1576.33,1315.37L1577.33,1315.73L1577.23,1316.62L1573.4,1317.22L1574.8,1318.97L1573.57,1319.26L1572.16,1317.51L1570.06,1317.82L1571.36,1319.95L1569.33,1323.44L1568.21,1323.34L1567.05,1321.46L1565.69,1321.74L1565.52,1319.58L1563,1323.21L1561.37,1322.61L1559.65,1323.04L1558.88,1321.91L1558.65,1322.68L1557.41,1322.58L1558.94,1324.45L1558.45,1324.98L1558.18,1323.84L1557.18,1323.73L1557.62,1326.27L1555.78,1327.33L1556.45,1329.36L1554.11,1330.05L1554.75,1330.8L1553.93,1332.98L1552.54,1332L1552.52,1331.11L1551.79,1331.63L1552.96,1333.77L1554.57,1333.86L1554.8,1332.96L1555.44,1333.71L1554.11,1335.27L1554.18,1338.46L1552.84,1339.51L1553.36,1340.39L1552.5,1340.92L1551.47,1339.16L1551.12,1339.93L1549.74,1339.46L1549.02,1340.37L1549.41,1341.12L1548.27,1340.51L1546.72,1343.1L1547.38,1344.74L1546.66,1346.03L1547.54,1346.39L1546.7,1347.43L1547.7,1347.92L1545.47,1348.1L1546.01,1349.87L1545.31,1351.92L1544.41,1350.54L1541.41,1349.46L1538.31,1349.79L1536.42,1348.69L1534.46,1349.75L1532.83,1349.15L1532.1,1349.8L1531.93,1347.77L1530.82,1348.05L1530.36,1349.46L1528.34,1348.36L1528.38,1350.02L1527.52,1350.29L1527.48,1348.63L1525.99,1348.67L1524.97,1347.16L1523.1,1346.82L1520.52,1348.15L1522.16,1349.26L1520.17,1349.31L1519.86,1346.51L1518.84,1345.13L1515.73,1344.82L1515.01,1346.23L1514.12,1345.11L1512.26,1345.02L1510.98,1343.26L1508.4,1344.85L1508.13,1343.83L1508.03,1344.86L1509.17,1345.85L1506.1,1347.45L1505.2,1345.81L1504.22,1346.47L1499.23,1345.43L1490.72,1342.29L1487.04,1338.42L1475.96,1330.49L1471.2,1328.04L1445.68,1323.06L1434.78,1317.27L1418.35,1313.11L1408.68,1313.28L1318.88,1317.22L1295.33,1326.96L1279.36,1328.68L1263,1329.38L1239.18,1340.98L1227.88,1352.18L1224.2,1357.69L1218.27,1360.93L1212.89,1370.03L1195.91,1389.05L1161.96,1387.39L1155.14,1388.97L1147.54,1387.49L1138.84,1387.03L1136.6,1386.15L1120.44,1386.24L1115.22,1385.5L1111.24,1386.28L1071.68,1373.44L1069.93,1372.42L1067.93,1367.33L1063.82,1362.37L1057.85,1358.31L1052.01,1355.9L1047.54,1356.04L1041.34,1358.09L1039.35,1355.29L1024.81,1342.82L1021.46,1338.75L1013.39,1335.82L1008.43,1330.6L998.26,1325.38L995.66,1325.76L987.98,1324.23L976.32,1323.33L970.5,1321.92L966.16,1322.04L952.76,1330.04L947.67,1334.24L920.08,1350.6L913.86,1352.74L904.19,1351.56L898.24,1349.24L893.16,1348.71L880.68,1362.54L872.09,1365.04L858.31,1364.45L843.28,1346.64L828.2,1321.56L795.15,1288.05L776.56,1278.08L771.11,1278.54L761.54,1282.01L753.54,1277.85L721.63,1266.79L696.9,1256.81L684.5,1250.41L674.83,1252.18L662.28,1256.59L660.14,1259.87L653.48,1266.52L647.52,1268.47L644.17,1268.93L628.25,1266.77L619.19,1268.54L612.51,1268.68L607.46,1267.2L603.21,1262.54L598.98,1264.12L552.52,1274.36L523.42,1299.64L511.91,1299.41L511.43,1316.47L512.03,1323.11L511.07,1339.65L505.76,1361.72L501.54,1367.75L499.44,1372.81L495.26,1376.67L493.31,1380.33L490.4,1383.07L485.1,1392.01L463.87,1406.96L448.51,1419.75L447.77,1435.17L449.46,1453.46L446.7,1459.77L444.68,1471.21L449.41,1482.43L449.99,1489.59L442.58,1496.57L443.44,1507.96L448.38,1510.63L449.71,1517.81L440.53,1525.39L433.51,1520.75L433.44,1518.58L435.1,1516.83L435.4,1515.05L434.79,1514.39L431.54,1514.32L429.94,1513.26L430.02,1509.68L425.17,1503.82L420.17,1503.69L417.85,1501.47L411.89,1499.79L405.38,1500.26L404.03,1499.46L402.42,1493.8L400.44,1493.24L399.32,1488.1L397.38,1485.76L399.07,1483.25L397.61,1481.55L395.01,1480.72L394.44,1478.79L389.18,1474.31L386.66,1470.29L382,1467.23L381.2,1464.4L375.29,1461.56L373.35,1459.34L373.52,1457.82L369.74,1454.52L368.22,1450.53L362.19,1447.68L359.92,1444.05L352.99,1437.61L352.28,1435.93L346.54,1431.81L345.17,1431.65L345.51,1432.81L346.16,1432.06L346.25,1433.34L342.64,1433.24L340.23,1434.45L336.99,1438.82L335,1438.76L333.81,1436.94L332.14,1438.56L328.4,1447.26L327.14,1447.73L327.08,1445.56L325.25,1444.23L320.1,1445.49L316.39,1444.36L313.93,1447.48L312.57,1446.93L309.42,1447.98L309.21,1446.83L306.51,1445.22L304.67,1448.61L300.45,1447.72L299.5,1450.25L296.81,1448.63L295.51,1450.13L291.55,1449.37L289.15,1450.19L289.49,1451.22L288.12,1451.31L290.31,1453.29L289.51,1454.8L288.51,1454.89L290.3,1457.63L290.26,1458.9L288.86,1459.88L290.75,1463.39L289.85,1464.25L290.69,1465.43L289.86,1467.96L291.45,1469.15L292.01,1471.21L291.37,1471.83L293.47,1472.66L293.38,1475.6L295.23,1476.29L294.57,1477.55L295.26,1479.61L297.24,1480.18L298.49,1484.43L297.95,1485.57L296.36,1484.5L294.69,1485.98L295,1488.41L293.38,1488.11L292.6,1489.11L291.76,1487.93L290.61,1488.92L290.43,1490.58L289.29,1491.05L290.5,1492.49L290.22,1493.38L291.57,1494.32L290.81,1494.68L250.28,1436.73L250.32,1435.46L251.49,1434.22L251.04,1432.67L253.2,1431.34L254.7,1431.13L256.41,1432.21L257.58,1430.71L260.71,1430.17L260.87,1429.28L262.52,1428.31L264.1,1429.38L267.13,1428.2L268.97,1429.15L270.5,1428.05L274.21,1428.93L275.23,1428.32L274.74,1423.97L275.44,1421.44L270.88,1415.81L270.57,1405.85L268.22,1401.06L262.58,1398.33L262.67,1395.65L261.26,1392.8L255.55,1388.54L253.27,1389.74L249.56,1388.99L248.43,1389.46L242.27,1387.48L237.26,1392.29L234.56,1391.06L226.83,1403.05L189.17,1400.89L160.82,1371.96L140.52,1348.78L117.44,1347.92L118.2,1340.81L119.52,1338.94L120.13,1335.78L121.43,1301.15L127.82,1302.79L136.46,1307.32L138.71,1306.63L143.84,1308.86L146.21,1308.57L147.36,1307.59L147.69,1301.99L148.57,1301.51L150.51,1302.86L150.58,1304.39L152.11,1306.74L154.08,1306.94L157.38,1305.02L152.72,1300.01L147.62,1300.59L143.69,1299.3L141.77,1297.7L137.95,1296.92L131.45,1291.83L126.8,1290.13L126.13,1288.2L124.69,1286.99L125.38,1281.8L122.72,1276.6L120.02,1275.99L111.48,1269.17L107.2,1267.73L102.96,1268.59L95.75,1265.89L95.84,1263.72L97.09,1263.26L97.39,1262L95.85,1260.28L76.93,1259.67L74.44,1256.9L74.24,1255.62L74.97,1252.71L77.08,1249.48L77.01,1248.08L73.82,1247.44L72.87,1246.51L70.67,1242.6L64.92,1237.92L62.41,1232.72L58.93,1230.03L59.89,1224.72L57.8,1224.25L57.48,1222.97L54.23,1220.92L53.57,1215.93L50.19,1213.75L49.27,1212.19L25.62,1151.22L35.3,1122.98L30.55,1112.73L31.04,1109.95L35.64,1105.68L36.91,1101.79L35.89,1090.8ZM1586.52,1306.32L1587.24,1305.54L1586.52,1306.32Z" fill-rule="evenodd" fill="#4682b4" fill-opacity="0.471"/>
<polyline points="35.89,1090.8 55.71,1096.2 71.6,1092.51 77.69,1093.9 81.89,1096.61 91.58,1100.17 98.67,1098.16 125.89,1096.78 130.16,1094.52 169.6,1060.59 332.28,1057.07 379.31,1059.52 380.04,1050.51 380.96,1047.99 437.34,1058.45 439.08,1057.61 442.62,1053.37 443.51,1046.9 442.71,1044.21 443.12,1042.44 450.46,1038.04 455.9,1030.79 464.06,1022.21 466.29,1020.86 474.87,1020.55 480.04,1019.02 482.76,1017.81 486.52,1014.2 489.23,1007.52 492.07,995.38 498.64,985.74 498.92,978.24 500.73,973.83 499.6,969.36 500.53,966.07 504.74,957.52 510.18,948.87 512.92,940.03 515.22,935.5 526.7,928.62 527.55,875.26 528.7,872.49 529.98,851.81 536.42,851.68 541.91,579.6 550.2,579 560.2,577.17 727.71,544.08 803.31,477.73 807.17,473.57 925.92,368.19 1108.11,248.77 1108.23,249.41 1114.48,246.06 1342.99,99.28 1376.78,75.38 1458.34,22.63 1624.97,57.01 1641.93,63.17 1649.35,68.06 1723.97,130.85 1812.17,78.41 1839.98,205.22 1843.33,269.21 1853.17,275.34 1896.27,336.07 1891.29,339.46 1888.43,345.43 1888.66,354.08 1891.17,360.34 1898.19,366.3 1903.16,368.4 1943.41,410.8 1916.62,465.35 1904.39,612.25 1901.89,796.58 1902.12,851.88 1797.4,975.51 1770.87,1004.9 1753.46,1030.53 1722.4,1079.6 1709.64,1096.02 1701.44,1117.65 1701.92,1125.39 1704.67,1134.85 1699.52,1139.46 1696.66,1138.78 1688.41,1146.79 1688.7,1148.18 1690.47,1149.79 1691.07,1157.66 1683.47,1163.1 1679.56,1164.23 1675.97,1163.83 1666.36,1168.05 1664.69,1170.01 1664.01,1172.19 1665.24,1180.81 1686.46,1265.13 1653.07,1266.09 1649.94,1264.52 1649.23,1265.69 1649.78,1267.84 1648.57,1268.63 1646.44,1267.8 1646.84,1268.94 1646.01,1270.36 1644.91,1270.65 1644.72,1272.69 1643.84,1272.33 1642.87,1273.12 1641.68,1274.68 1642.55,1275.04 1640.36,1276.38 1640.9,1277.76 1638.55,1278.21 1639.7,1279.45 1639.48,1280.22 1640.2,1279.69 1641.1,1280.81 1639.89,1281.61 1639.79,1282.76 1638.4,1281.53 1636.55,1281.83 1636.59,1283.23 1637.83,1283.45 1638.36,1284.58 1634.46,1286.86 1634.13,1288.52 1634.76,1288.89 1632.92,1289.7 1633.34,1291.47 1632.21,1290.87 1631.15,1288.35 1628.69,1289.05 1628.01,1291.23 1626.14,1291.03 1626.91,1287.19 1626.41,1286.94 1625.57,1287.99 1623.72,1288.42 1624.27,1290.57 1621.74,1288.34 1619.71,1291.2 1616.58,1290.14 1616.19,1289.25 1617.79,1289.08 1616.38,1287.21 1614.81,1288.78 1613.93,1288.04 1614,1290.97 1613.73,1289.96 1611.47,1289 1608.84,1292.63 1607.94,1291.38 1606.72,1291.92 1605.95,1291.05 1605.48,1291.95 1604.6,1291.34 1604,1291.99 1603.23,1291.25 1602.89,1292.28 1603.67,1293.78 1602.69,1294.19 1601.3,1293.08 1598.64,1295.7 1596.42,1295.88 1596.27,1295.12 1595.16,1295.15 1595.01,1294.13 1593.02,1294.06 1592.32,1295.48 1593.24,1297.75 1590.72,1295.9 1590.38,1297.31 1589.39,1297.33 1591.02,1297.93 1590.7,1299.98 1591.36,1301.74 1590.6,1301.25 1589.26,1301.92 1588.59,1300.03 1588.4,1302.45 1585.69,1303.16 1587.84,1304.51 1587.64,1306.68 1584.28,1306.25 1582.33,1307.45 1583.73,1309.07 1583.39,1310.1 1581.4,1310.02 1582,1309.11 1580.99,1308.37 1579.89,1308.78 1579.57,1311.21 1576.79,1313.83 1576.33,1315.37 1577.33,1315.73 1577.23,1316.62 1573.4,1317.22 1574.8,1318.97 1573.57,1319.26 1572.16,1317.51 1570.06,1317.82 1571.36,1319.95 1569.33,1323.44 1568.21,1323.34 1567.05,1321.46 1565.69,1321.74 1565.52,1319.58 1563,1323.21 1561.37,1322.61 1559.65,1323.04 1558.88,1321.91 1558.65,1322.68 1557.41,1322.58 1558.94,1324.45 1558.45,1324.98 1558.18,1323.84 1557.18,1323.73 1557.62,1326.27 1555.78,1327.33 1556.45,1329.36 1554.11,1330.05 1554.75,1330.8 1553.93,1332.98 1552.54,1332 1552.52,1331.11 1551.79,1331.63 1552.96,1333.77 1554.57,1333.86 1554.8,1332.96 1555.44,1333.71 1554.11,1335.27 1554.18,1338.46 1552.84,1339.51 1553.36,1340.39 1552.5,1340.92 1551.47,1339.16 1551.12,1339.93 1549.74,1339.46 1549.02,1340.37 1549.41,1341.12 1548.27,1340.51 1546.72,1343.1 1547.38,1344.74 1546.66,1346.03 1547.54,1346.39 1546.7,1347.43 1547.7,1347.92 1545.47,1348.1 1546.01,1349.87 1545.31,1351.92 1544.41,1350.54 1541.41,1349.46 1538.31,1349.79 1536.42,1348.69 1534.46,1349.75 1532.83,1349.15 1532.1,1349.8 1531.93,1347.77 1530.82,1348.05 1530.36,1349.46 1528.34,1348.36 1528.38,1350.02 1527.52,1350.29 1527.48,1348.63 1525.99,1348.67 1524.97,1347.16 1523.1,1346.82 1520.52,1348.15 1522.16,1349.26 1520.17,1349.31 1519.86,1346.51 1518.84,1345.13 1515.73,1344.82 1515.01,1346.23 1514.12,1345.11 1512.26,1345.02 1510.98,1343.26 1508.4,1344.85 1508.13,1343.83 1508.03,1344.86 1509.17,1345.85 1506.1,1347.45 1505.2,1345.81 1504.22,1346.47 1499.23,1345.43 1490.72,1342.29 1487.04,1338.42 1475.96,1330.49 1471.2,1328.04 1445.68,1323.06 1434.78,1317.27 1418.35,1313.11 1408.68,1313.28 1318.88,1317.22 1295.33,1326.96 1279.36,1328.68 1263,1329.38 1239.18,1340.98 1227.88,1352.18 1224.2,1357.69 1218.27,1360.93 1212.89,1370.03 1195.91,1389.05 1161.96,1387.39 1155.14,1388.97 1147.54,1387.49 1138.84,1387.03 1136.6,1386.15 1120.44,1386.24 1115.22,1385.5 1111.24,1386.28 1071.68,1373.44 1069.93,1372.42 1067.93,1367.33 1063.82,1362.37 1057.85,1358.31 1052.01,1355.9 1047.54,1356.04 1041.34,1358.09 1039.35,1355.29 1024.81,1342.82 1021.46,1338.75 1013.39,1335.82 1008.43,1330.6 998.26,1325.38 995.66,1325.76 987.98,1324.23 976.32,1323.33 970.5,1321.92 966.16,1322.04 952.76,1330.04 947.67,1334.24 920.08,1350.6 913.86,1352.74 904.19,1351.56 898.24,1349.24 893.16,1348.71 880.68,1362.54 872.09,1365.04 858.31,1364.45 843.28,1346.64 828.2,1321.56 795.15,1288.05 776.56,1278.08 771.11,1278.54 761.54,1282.01 753.54,1277.85 721.63,1266.79 696.9,1256.81 684.5,1250.41 674.83,1252.18 662.28,1256.59 660.14,1259.87 653.48,1266.52 647.52,1268.47 644.17,1268.93 628.25,1266.77 619.19,1268.54 612.51,1268.68 607.46,1267.2 603.21,1262.54 598.98,1264.12 552.52,1274.36 523.42,1299.64 511.91,1299.41 511.43,1316.47 512.03,1323.11 511.07,1339.65 505.76,1361.72 501.54,1367.75 499.44,1372.81 495.26,1376.67 493.31,1380.33 490.4,1383.07 485.1,1392.01 463.87,1406.96 448.51,1419.75 447.77,1435.17 449.46,1453.46 446.7,1459.77 444.68,1471.21 449.41,1482.43 449.99,1489.59 442.58,1496.57 443.44,1507.96 448.38,1510.63 449.71,1517.81 440.53,1525.39 433.51,1520.75 433.44,1518.58 435.1,1516.83 435.4,1515.05 434.79,1514.39 431.54,1514.32 429.94,1513.26 430.02,1509.68 425.17,1503.82 420.17,1503.69 417.85,1501.47 411.89,1499.79 405.38,1500.26 404.03,1499.46 402.42,1493.8 400.44,1493.24 399.32,1488.1 397.38,1485.76 399.07,1483.25 397.61,1481.55 395.01,1480.72 394.44,1478.79 389.18,1474.31 386.66,1470.29 382,1467.23 381.2,1464.4 375.29,1461.56 373.35,1459.34 373.52,1457.82 369.74,1454.52 368.22,1450.53 362.19,1447.68 359.92,1444.05 352.99,1437.61 352.28,1435.93 346.54,1431.81 345.17,1431.65 345.51,1432.81 346.16,1432.06 346.25,1433.34 342.64,1433.24 340.23,1434.45 336.99,1438.82 335,1438.76 333.81,1436.94 332.14,1438.56 328.4,1447.26 327.14,1447.73 327.08,1445.56 325.25,1444.23 320.1,1445.49 316.39,1444.36 313.93,1447.48 312.57,1446.93 309.42,1447.98 309.21,1446.83 306.51,1445.22 304.67,1448.61 300.45,1447.72 299.5,1450.25 296.81,1448.63 295.51,1450.13 291.55,1449.37 289.15,1450.19 289.49,1451.22 288.12,1451.31 290.31,1453.29 289.51,1454.8 288.51,1454.89 290.3,1457.63 290.26,1458.9 288.86,1459.88 290.75,1463.39 289.85,1464.25 290.69,1465.43 289.86,1467.96 291.45,1469.15 292.01,1471.21 291.37,1471.83 293.47,1472.66 293.38,1475.6 295.23,1476.29 294.57,1477.55 295.26,1479.61 297.24,1480.18 298.49,1484.43 297.95,1485.57 296.36,1484.5 294.69,1485.98 295,1488.41 293.38,1488.11 292.6,1489.11 291.76,1487.93 290.61,1488.92 290.43,1490.58 289.29,1491.05 290.5,1492.49 290.22,1493.38 291.57,1494.32 290.81,1494.68 250.28,1436.73 250.32,1435.46 251.49,1434.22 251.04,1432.67 253.2,1431.34 254.7,1431.13 256.41,1432.21 257.58,1430.71 260.71,1430.17 260.87,1429.28 262.52,1428.31 264.1,1429.38 267.13,1428.2 268.97,1429.15 270.5,1428.05 274.21,1428.93 275.23,1428.32 274.74,1423.97 275.44,1421.44 270.88,1415.81 270.57,1405.85 268.22,1401.06 262.58,1398.33 262.67,1395.65 261.26,1392.8 255.55,1388.54 253.27,1389.74 249.56,1388.99 248.43,1389.46 242.27,1387.48 237.26,1392.29 234.56,1391.06 226.83,1403.05 189.17,1400.89 160.82,1371.96 140.52,1348.78 117.44,1347.92 118.2,1340.81 119.52,1338.94 120.13,1335.78 121.43,1301.15 127.82,1302.79 136.46,1307.32 138.71,1306.63 143.84,1308.86 146.21,1308.57 147.36,1307.59 147.69,1301.99 148.57,1301.51 150.51,1302.86 150.58,1304.39 152.11,1306.74 154.08,1306.94 157.38,1305.02 152.72,1300.01 147.62,1300.59 143.69,1299.3 141.77,1297.7 137.95,1296.92 131.45,1291.83 126.8,1290.13 126.13,1288.2 124.69,1286.99 125.38,1281.8 122.72,1276.6 120.02,1275.99 111.48,1269.17 107.2,1267.73 102.96,1268.59 95.75,1265.89 95.84,1263.72 97.09,1263.26 97.39,1262 95.85,1260.28 76.93,1259.67 74.44,1256.9 74.24,1255.62 74.97,1252.71 77.08,1249.48 77.01,1248.08 73.82,1247.44 72.87,1246.51 70.67,1242.6 64.92,1237.92 62.41,1232.72 58.93,1230.03 59.89,1224.72 57.8,1224.25 57.48,1222.97 54.23,1220.92 53.57,1215.93 50.19,1213.75 49.27,1212.19 25.62,1151.22 35.3,1122.98 30.55,1112.73 31.04,1109.95 35.64,1105.68 36.91,1101.79 35.89,1090.8" fill="none" stroke="#1e1e1e" stroke-width="1.12" stroke-linecap="round" stroke-linejoin="round"/>
<polyline points="1586.52,1306.32 1587.24,1305.54 1586.52,1306.32" fill="none" stroke="#1e1e1e" stroke-width="1.12" stroke-linecap="round" stroke-linejoin="round"/>
<text x="1136.33" y="809.86" font-family="sans-serif" font-size="14" stroke="#ffffff" stroke-opacity="0.784" stroke-width="2.33" stroke-linejoin="round" paint-order="stroke" fill="#141414">Niger</text>
</svg>
