<?xml version="1.0" encoding="UTF-8" standalone="no"?>
<svg xmlns="http://www.w3.org/2000/svg" width="665" height="2000" viewBox="0 0 665 2000">
<rect width="665" height="2000" fill="#ffffff"/>
<circle cx="409.22" cy="277.75" r="2.55" fill="#1e1e1e"/>
<circle cx="396.6" cy="249.24" r="2.55" fill="#1e1e1e"/>
<circle cx="402.44" cy="242.07" r="2.55" fill="#1e1e1e"/>
<circle cx="437.4" cy="258.6" r="2.55" fill="#1e1e1e"/>
<circle cx="437.88" cy="246.77" r="2.55" fill="#1e1e1e"/>
<circle cx="426.98" cy="267.15" r="2.55" fill="#1e1e1e"/>
<circle cx="518.05" cy="143.11" r="2.55" fill="#1e1e1e"/>
<circle cx="434.59" cy="247.03" r="2.55" fill="#1e1e1e"/>
<circle cx="452.99" cy="195.47" r="2.55" fill="#1e1e1e"/>
<circle cx="506.11" cy="148.37" r="2.55" fill="#1e1e1e"/>
<circle cx="402.75" cy="225.69" r="2.55" fill="#1e1e1e"/>
<circle cx="382.61" cy="272.69" r="2.55" fill="#1e1e1e"/>
<circle cx="426.58" cy="260.9" r="2.55" fill="#1e1e1e"/>
<circle cx="429.79" cy="264.87" r="2.55" fill="#1e1e1e"/>
<circle cx="452.36" cy="206.04" r="2.55" fill="#1e1e1e"/>
<circle cx="490.25" cy="154.87" r="2.55" fill="#1e1e1e"/>
<circle cx="481.17" cy="177.76" r="2.55" fill="#1e1e1e"/>
<circle cx="510.64" cy="153.11" r="2.55" fill="#1e1e1e"/>
<circle cx="486.19" cy="166.21" r="2.55" fill="#1e1e1e"/>
<circle cx="381.21" cy="265.2" r="2.55" fill="#1e1e1e"/>
<circle cx="383.02" cy="271.04" r="2.55" fill="#1e1e1e"/>
<circle cx="419.36" cy="267.99" r="2.55" fill="#1e1e1e"/>
<circle cx="453.99" cy="200.24" r="2.55" fill="#1e1e1e"/>
<circle cx="556.41" cy="134.75" r="2.55" fill="#1e1e1e"/>
<circle cx="601.93" cy="133.27" r="2.55" fill="#1e1e1e"/>
<circle cx="411.73" cy="222.02" r="2.55" fill="#1e1e1e"/>
<circle cx="433.98" cy="242.71" r="2.55" fill="#1e1e1e"/>
<circle cx="603.92" cy="137.52" r="2.55" fill="#1e1e1e"/>
<circle cx="400.82" cy="282" r="2.55" fill="#1e1e1e"/>
<circle cx="560.48" cy="126.85" r="2.55" fill="#1e1e1e"/>
<circle cx="525.99" cy="138.56" r="2.55" fill="#1e1e1e"/>
<circle cx="441.32" cy="213.57" r="2.55" fill="#1e1e1e"/>
<circle cx="385.77" cy="252.36" r="2.55" fill="#1e1e1e"/>
<circle cx="432.07" cy="258.53" r="2.55" fill="#1e1e1e"/>
<text x="435.17" y="255.44" font-family="sans-serif" font-size="14" stroke="#ffffff" stroke-opacity="0.784" stroke-width="2.33" stroke-linejoin="round" paint-order="stroke" fill="#141414">Oslo</text>
<text x="319.68" y="249.27" font-family="sans-serif" font-size="14" stroke="#ffffff" stroke-opacity="0.784" stroke-width="2.33" stroke-linejoin="round" paint-order="stroke" fill="#141414">Bergen</text>
<text x="386.12" y="288.13" font-family="sans-serif" font-size="14" stroke="#ffffff" stroke-opacity="0.784" stroke-width="2.33" stroke-linejoin="round" paint-order="stroke" fill="#141414">Stavanger</text>
<text x="444.41" y="210.48" font-family="sans-serif" font-size="14" stroke="#ffffff" stroke-opacity="0.784" stroke-width="2.33" stroke-linejoin="round" paint-order="stroke" fill="#141414">Trondheim</text>
<text x="529.08" y="135.46" font-family="sans-serif" font-size="14" stroke="#ffffff" stroke-opacity="0.784" stroke-width="2.33" stroke-linejoin="round" paint-order="stroke" fill="#141414">Tromsø</text>
<text x="330.66" y="222.6" font-family="sans-serif" font-size="14" stroke="#ffffff" stroke-opacity="0.784" stroke-width="2.33" stroke-linejoin="round" paint-order="stroke" fill="#141414">Ålesund</text>
<text x="305.52" y="289.78" font-family="sans-serif" font-size="14" stroke="#ffffff" stroke-opacity="0.784" stroke-width="2.33" stroke-linejoin="round" paint-order="stroke" fill="#141414">Sandnes</text>
<text x="489.28" y="163.12" font-family="sans-serif" font-size="14" stroke="#ffffff" stroke-opacity="0.784" stroke-width="2.33" stroke-linejoin="round" paint-order="stroke" fill="#141414">Bodø</text>
<text x="388.08" y="174.67" font-family="sans-serif" font-size="14" stroke="#ffffff" stroke-opacity="0.784" stroke-width="2.33" stroke-linejoin="round" paint-order="stroke" fill="#141414">Mo i Rana</text>
<text x="605.02" y="130.17" font-family="sans-serif" font-size="14" stroke="#ffffff" stroke-opacity="0.784" stroke-width="2.33" stroke-linejoin="round" paint-order="stroke" fill="#141414">Vadsø</text>
</svg>
