<?xml version="1.0" encoding="UTF-8" standalone="no"?>
<svg xmlns="http://www.w3.org/2000/svg" width="1412" height="2000" viewBox="0 0 1412 2000">
<rect width="1412" height="2000" fill="#ffffff"/>
<path d="M1308.69,249.16L1317.54,249.52L1322.57,259.98L1327.96,261.91L1329.15,275.49L1323.02,283.65L1314.93,280.57L1305.27,264.3L1308.69,249.16Z" fill-rule="evenodd" fill="#4682b4" fill-opacity="0.471"/>
<polyline points="1308.69,249.16 1317.54,249.52 1322.57,259.98 1327.96,261.91 1329.15,275.49 1323.02,283.65 1314.93,280.57 1305.27,264.3 1308.69,249.16" fill="none" stroke="#1e1e1e" stroke-width="1.63" stroke-linecap="round" stroke-linejoin="round"/>
<path d="M1314.93,280.57L1323.02,283.65L1329.15,275.49L1334.53,271.98L1349.16,276.6L1345.76,296.78L1327.69,302.26L1316.89,296.09L1314.93,280.57Z" fill-rule="evenodd" fill="#4682b4" fill-opacity="0.471"/>
<polyline points="1314.93,280.57 1323.02,283.65 1329.15,275.49 1334.53,271.98 1349.16,276.6 1345.76,296.78 1327.69,302.26 1316.89,296.09 1314.93,280.57" fill="none" stroke="#1e1e1e" stroke-width="1.63" stroke-linecap="round" stroke-linejoin="round"/>
<path d="M1179.88,469.83L1181.03,471L1178.35,475.27L1172.58,479.94L1168.73,479.17L1171.03,476.45L1170.64,475.28L1171.8,474.12L1169.86,466.36L1174.86,466.74L1176.4,465.57L1177.18,467.51L1179.88,469.83Z" fill-rule="evenodd" fill="#4682b4" fill-opacity="0.471"/>
<polyline points="1179.88,469.83 1181.03,471 1178.35,475.27 1172.58,479.94 1168.73,479.17 1171.03,476.45 1170.64,475.28 1171.8,474.12 1169.86,466.36 1174.86,466.74 1176.4,465.57 1177.18,467.51 1179.88,469.83" fill="none" stroke="#1e1e1e" stroke-width="1.63" stroke-linecap="round" stroke-linejoin="round"/>
<path d="M8.78,1987.57L8.01,1985.24L8.4,1983.69L10.73,1982.53L11.11,1984.08L8.78,1987.57Z" fill-rule="evenodd" fill="#4682b4" fill-opacity="0.471"/>
<polyline points="8.78,1987.57 8.01,1985.24 8.4,1983.69 10.73,1982.53 11.11,1984.08 8.78,1987.57" fill="none" stroke="#1e1e1e" stroke-width="1.63" stroke-linecap="round" stroke-linejoin="round"/>
<path d="M1393.05,27.69L1394.19,23.42L1395.34,23.41L1394.2,27.3L1393.05,27.69Z" fill-rule="evenodd" fill="#4682b4" fill-opacity="0.471"/>
<polyline points="1393.05,27.69 1394.19,23.42 1395.34,23.41 1394.2,27.3 1393.05,27.69" fill="none" stroke="#1e1e1e" stroke-width="1.63" stroke-linecap="round" stroke-linejoin="round"/>
<path d="M1396.47,16.04L1394.92,12.16L1397.23,11.37L1398.02,17.58L1396.87,20.3L1395.72,20.31L1396.47,16.04Z" fill-rule="evenodd" fill="#4682b4" fill-opacity="0.471"/>
<polyline points="1396.47,16.04 1394.92,12.16 1397.23,11.37 1398.02,17.58 1396.87,20.3 1395.72,20.31 1396.47,16.04" fill="none" stroke="#1e1e1e" stroke-width="1.63" stroke-linecap="round" stroke-linejoin="round"/>
<path d="M1300.36,301.95L1299.97,300.01L1298.43,299.24L1296.13,300.41L1296.51,301.57L1293.82,301.58L1290.35,297.32L1289.96,295.38L1292.65,296.54L1294.96,296.53L1298.43,298.46L1300.35,298.46L1300.36,301.95Z" fill-rule="evenodd" fill="#4682b4" fill-opacity="0.471"/>
<polyline points="1300.36,301.95 1299.97,300.01 1298.43,299.24 1296.13,300.41 1296.51,301.57 1293.82,301.58 1290.35,297.32 1289.96,295.38 1292.65,296.54 1294.96,296.53 1298.43,298.46 1300.35,298.46 1300.36,301.95" fill="none" stroke="#1e1e1e" stroke-width="1.63" stroke-linecap="round" stroke-linejoin="round"/>
<path d="M1300.36,301.95L1305.37,302.32L1308.05,299.99L1312.29,299.2L1313.82,298.03L1316.52,299.19L1317.29,300.35L1315.76,302.68L1319.24,308.11L1317.71,312.77L1316.17,312L1315.41,315.49L1312.32,313.17L1313.09,311.23L1313.86,311.23L1313.08,308.9L1313.85,310.45L1315.39,310.45L1316.54,308.11L1316.15,305.79L1313.07,306.18L1311.15,304.64L1309.61,305.03L1309.22,304.25L1307.3,304.26L1305.76,306.2L1305.38,308.53L1302.3,305.05L1300.76,304.66L1299.98,303.11L1300.36,301.95Z" fill-rule="evenodd" fill="#4682b4" fill-opacity="0.471"/>
<polyline points="1300.36,301.95 1305.37,302.32 1308.05,299.99 1312.29,299.2 1313.82,298.03 1316.52,299.19 1317.29,300.35 1315.76,302.68 1319.24,308.11 1317.71,312.77 1316.17,312 1315.41,315.49 1312.32,313.17 1313.09,311.23 1313.86,311.23 1313.08,308.9 1313.85,310.45 1315.39,310.45 1316.54,308.11 1316.15,305.79 1313.07,306.18 1311.15,304.64 1309.61,305.03 1309.22,304.25 1307.3,304.26 1305.76,306.2 1305.38,308.53 1302.3,305.05 1300.76,304.66 1299.98,303.11 1300.36,301.95" fill="none" stroke="#1e1e1e" stroke-width="1.63" stroke-linecap="round" stroke-linejoin="round"/>
<path d="M1310.01,311.24L1309.24,310.85L1312.32,310.45L1312.32,312.39L1310.01,311.24L1310.4,312.4L1309.63,313.95L1312.33,315.11L1311.95,316.28L1313.1,317.05L1311.18,319.38L1306.18,320.17L1306.56,317.07L1302.71,315.14L1304.24,313.19L1301.54,308.93L1301.92,307.77L1300.37,306.22L1301.14,305.83L1303.46,309.7L1303.85,309.31L1305.78,313.58L1306.94,314.35L1309.25,314.73L1309.24,313.57L1308.47,313.18L1308.86,312.4L1307.7,311.63L1308.85,310.85L1310.01,311.24Z" fill-rule="evenodd" fill="#4682b4" fill-opacity="0.471"/>
<polyline points="1310.01,311.24 1309.24,310.85 1312.32,310.45 1312.32,312.39 1310.01,311.24 1310.4,312.4 1309.63,313.95 1312.33,315.11 1311.95,316.28 1313.1,317.05 1311.18,319.38 1306.18,320.17 1306.56,317.07 1302.71,315.14 1304.24,313.19 1301.54,308.93 1301.92,307.77 1300.37,306.22 1301.14,305.83 1303.46,309.7 1303.85,309.31 1305.78,313.58 1306.94,314.35 1309.25,314.73 1309.24,313.57 1308.47,313.18 1308.86,312.4 1307.7,311.63 1308.85,310.85 1310.01,311.24" fill="none" stroke="#1e1e1e" stroke-width="1.63" stroke-linecap="round" stroke-linejoin="round"/>
<path d="M1308.46,308.52L1308.07,306.97L1309.23,307.75L1308.46,308.52Z" fill-rule="evenodd" fill="#4682b4" fill-opacity="0.471"/>
<polyline points="1308.46,308.52 1308.07,306.97 1309.23,307.75 1308.46,308.52" fill="none" stroke="#1e1e1e" stroke-width="1.63" stroke-linecap="round" stroke-linejoin="round"/>
<path d="M1299.61,306.61L1299.22,305.44L1297.29,305.06L1298.07,306.22L1295.38,309.33L1294.61,309.34L1294.22,306.62L1296.14,305.45L1296.14,304.68L1299.21,304.28L1300.37,305.83L1299.61,306.61Z" fill-rule="evenodd" fill="#4682b4" fill-opacity="0.471"/>
<polyline points="1299.61,306.61 1299.22,305.44 1297.29,305.06 1298.07,306.22 1295.38,309.33 1294.61,309.34 1294.22,306.62 1296.14,305.45 1296.14,304.68 1299.21,304.28 1300.37,305.83 1299.61,306.61" fill="none" stroke="#1e1e1e" stroke-width="1.63" stroke-linecap="round" stroke-linejoin="round"/>
<path d="M1290.36,303.14L1290.36,302.36L1293.44,303.52L1296.52,303.51L1296.14,304.29L1294.6,303.9L1294.21,304.68L1293.06,304.68L1290.36,303.14Z" fill-rule="evenodd" fill="#4682b4" fill-opacity="0.471"/>
<polyline points="1290.36,303.14 1290.36,302.36 1293.44,303.52 1296.52,303.51 1296.14,304.29 1294.6,303.9 1294.21,304.68 1293.06,304.68 1290.36,303.14" fill="none" stroke="#1e1e1e" stroke-width="1.63" stroke-linecap="round" stroke-linejoin="round"/>
<path d="M1251.96,336.99L1252.73,336.21L1253.11,337.38L1254.27,336.98L1256.97,338.14L1257.74,340.08L1260.82,340.85L1260.82,342.01L1264.68,346.66L1266.23,347.43L1267.76,347.04L1268.53,345.49L1267.76,345.1L1268.14,344.32L1269.3,344.32L1271.21,341.6L1275.06,338.87L1278.5,331.49L1282.73,329.15L1285.42,329.15L1288.5,326.81L1288.87,322.54L1288.09,319.05L1289.25,319.44L1288.48,320.6L1289.63,320.21L1291.17,317.11L1288.08,313.62L1285.38,312.46L1285.38,310.52L1287.69,312.85L1292.7,315.16L1293.47,314.77L1294.63,316.32L1295.41,319.42L1295.02,320.98L1293.1,322.14L1292.33,319.82L1290.02,321.76L1290.41,322.54L1289.26,324.48L1289.65,326.81L1291.58,329.13L1291.97,332.24L1293.52,333.01L1294.67,332.62L1294.67,331.45L1295.83,333.78L1294.69,338.82L1293.92,339.21L1291.6,335.73L1290.44,335.73L1288.9,334.18L1290.05,333.79L1289.67,333.02L1287.36,331.86L1282.74,331.87L1280.05,334.21L1280.06,339.64L1277.37,342.36L1276.99,343.91L1273.53,342.76L1272.76,344.31L1273.15,345.09L1270.08,347.81L1268.55,352.47L1267.78,351.7L1268.92,348.59L1264.31,350.54L1263.54,350.15L1263.92,348.99L1261.99,346.28L1261.98,343.95L1260.05,342.01L1256.59,341.64L1256.97,340.47L1256.2,338.92L1253.5,338.54L1251.96,336.99Z" fill-rule="evenodd" fill="#4682b4" fill-opacity="0.471"/>
<polyline points="1251.96,336.99 1252.73,336.21 1253.11,337.38 1254.27,336.98 1256.97,338.14 1257.74,340.08 1260.82,340.85 1260.82,342.01 1264.68,346.66 1266.23,347.43 1267.76,347.04 1268.53,345.49 1267.76,345.1 1268.14,344.32 1269.3,344.32 1271.21,341.6 1275.06,338.87 1278.5,331.49 1282.73,329.15 1285.42,329.15 1288.5,326.81 1288.87,322.54 1288.09,319.05 1289.25,319.44 1288.48,320.6 1289.63,320.21 1291.17,317.11 1288.08,313.62 1285.38,312.46 1285.38,310.52 1287.69,312.85 1292.7,315.16 1293.47,314.77 1294.63,316.32 1295.41,319.42 1295.02,320.98 1293.1,322.14 1292.33,319.82 1290.02,321.76 1290.41,322.54 1289.26,324.48 1289.65,326.81 1291.58,329.13 1291.97,332.24 1293.52,333.01 1294.67,332.62 1294.67,331.45 1295.83,333.78 1294.69,338.82 1293.92,339.21 1291.6,335.73 1290.44,335.73 1288.9,334.18 1290.05,333.79 1289.67,333.02 1287.36,331.86 1282.74,331.87 1280.05,334.21 1280.06,339.64 1277.37,342.36 1276.99,343.91 1273.53,342.76 1272.76,344.31 1273.15,345.09 1270.08,347.81 1268.55,352.47 1267.78,351.7 1268.92,348.59 1264.31,350.54 1263.54,350.15 1263.92,348.99 1261.99,346.28 1261.98,343.95 1260.05,342.01 1256.59,341.64 1256.97,340.47 1256.2,338.92 1253.5,338.54 1251.96,336.99" fill="none" stroke="#1e1e1e" stroke-width="1.63" stroke-linecap="round" stroke-linejoin="round"/>
<path d="M1293.1,322.14L1291.18,324.09L1291.56,322.54L1293.1,322.14Z" fill-rule="evenodd" fill="#4682b4" fill-opacity="0.471"/>
<polyline points="1293.1,322.14 1291.18,324.09 1291.56,322.54 1293.1,322.14" fill="none" stroke="#1e1e1e" stroke-width="1.63" stroke-linecap="round" stroke-linejoin="round"/>
<path d="M1283.11,329.15L1282.34,328.38L1282.34,326.44L1283.11,326.44L1283.5,327.6L1283.11,329.15Z" fill-rule="evenodd" fill="#4682b4" fill-opacity="0.471"/>
<polyline points="1283.11,329.15 1282.34,328.38 1282.34,326.44 1283.11,326.44 1283.5,327.6 1283.11,329.15" fill="none" stroke="#1e1e1e" stroke-width="1.63" stroke-linecap="round" stroke-linejoin="round"/>
<path d="M1291.58,328.74L1291.19,326.03L1291.58,328.74Z" fill-rule="evenodd" fill="#4682b4" fill-opacity="0.471"/>
<polyline points="1291.58,328.74 1291.19,326.03 1291.58,328.74" fill="none" stroke="#1e1e1e" stroke-width="1.63" stroke-linecap="round" stroke-linejoin="round"/>
<path d="M1285.41,324.88L1285.79,323.33L1286.56,323.71L1285.41,324.88Z" fill-rule="evenodd" fill="#4682b4" fill-opacity="0.471"/>
<polyline points="1285.41,324.88 1285.79,323.33 1286.56,323.71 1285.41,324.88" fill="none" stroke="#1e1e1e" stroke-width="1.63" stroke-linecap="round" stroke-linejoin="round"/>
<path d="M1281.56,324.89L1280.79,322.95L1281.56,322.95L1281.56,324.89Z" fill-rule="evenodd" fill="#4682b4" fill-opacity="0.471"/>
<polyline points="1281.56,324.89 1280.79,322.95 1281.56,322.95 1281.56,324.89" fill="none" stroke="#1e1e1e" stroke-width="1.63" stroke-linecap="round" stroke-linejoin="round"/>
<path d="M1272.34,330.34L1271.95,329.57L1272.72,328.79L1273.49,329.18L1273.5,330.73L1272.34,330.34Z" fill-rule="evenodd" fill="#4682b4" fill-opacity="0.471"/>
<polyline points="1272.34,330.34 1271.95,329.57 1272.72,328.79 1273.49,329.18 1273.5,330.73 1272.34,330.34" fill="none" stroke="#1e1e1e" stroke-width="1.63" stroke-linecap="round" stroke-linejoin="round"/>
<path d="M1272.74,337.72L1271.97,337.72L1271.97,336.55L1273.13,336.94L1272.74,337.72Z" fill-rule="evenodd" fill="#4682b4" fill-opacity="0.471"/>
<polyline points="1272.74,337.72 1271.97,337.72 1271.97,336.55 1273.13,336.94 1272.74,337.72" fill="none" stroke="#1e1e1e" stroke-width="1.63" stroke-linecap="round" stroke-linejoin="round"/>
<path d="M1270.41,328.41L1271.57,329.18L1271.96,330.73L1271.19,333.45L1270.04,333.45L1268.88,332.29L1268.11,333.07L1267.73,331.91L1268.49,330.35L1270.42,333.07L1270.42,331.9L1269.26,331.13L1270.41,328.41Z" fill-rule="evenodd" fill="#4682b4" fill-opacity="0.471"/>
<polyline points="1270.41,328.41 1271.57,329.18 1271.96,330.73 1271.19,333.45 1270.04,333.45 1268.88,332.29 1268.11,333.07 1267.73,331.91 1268.49,330.35 1270.42,333.07 1270.42,331.9 1269.26,331.13 1270.41,328.41" fill="none" stroke="#1e1e1e" stroke-width="1.63" stroke-linecap="round" stroke-linejoin="round"/>
<path d="M1271.21,338.88L1271.59,339.66L1270.83,340.44L1270.06,340.05L1270.05,338.89L1271.21,338.88Z" fill-rule="evenodd" fill="#4682b4" fill-opacity="0.471"/>
<polyline points="1271.21,338.88 1271.59,339.66 1270.83,340.44 1270.06,340.05 1270.05,338.89 1271.21,338.88" fill="none" stroke="#1e1e1e" stroke-width="1.63" stroke-linecap="round" stroke-linejoin="round"/>
<path d="M1266.97,337.34L1267.74,337.73L1267.35,336.18L1266.19,335.02L1267.73,334.24L1268.12,335.79L1269.27,335.4L1270.82,337.33L1269.28,337.72L1268.9,340.05L1266.59,338.51L1266.97,337.34Z" fill-rule="evenodd" fill="#4682b4" fill-opacity="0.471"/>
<polyline points="1266.97,337.34 1267.74,337.73 1267.35,336.18 1266.19,335.02 1267.73,334.24 1268.12,335.79 1269.27,335.4 1270.82,337.33 1269.28,337.72 1268.9,340.05 1266.59,338.51 1266.97,337.34" fill="none" stroke="#1e1e1e" stroke-width="1.63" stroke-linecap="round" stroke-linejoin="round"/>
<path d="M1269.01,383.89L1267.47,382.35L1267.46,380.79L1265.54,380.02L1265.15,378.47L1263.99,378.09L1261.3,379.26L1261.69,380.42L1258.22,381.59L1254.76,380.44L1253.98,379.28L1255.13,376.95L1253.98,376.56L1254.74,374.62L1253.2,373.85L1254.35,371.52L1253.58,369.58L1255.11,368.41L1257.81,368.4L1259.34,366.85L1259.35,368.4L1255.89,371.12L1255.9,375L1256.67,375.78L1258.6,375.77L1263.6,374.6L1265.13,371.88L1267.06,372.65L1266.65,363.73L1268.59,368.76L1268.6,372.26L1266.68,376.14L1267.08,380.02L1268.23,381.18L1269,380.4L1269.77,381.57L1268.62,382.34L1269.78,383.12L1269.01,383.89Z" fill-rule="evenodd" fill="#4682b4" fill-opacity="0.471"/>
<polyline points="1269.01,383.89 1267.47,382.35 1267.46,380.79 1265.54,380.02 1265.15,378.47 1263.99,378.09 1261.3,379.26 1261.69,380.42 1258.22,381.59 1254.76,380.44 1253.98,379.28 1255.13,376.95 1253.98,376.56 1254.74,374.62 1253.2,373.85 1254.35,371.52 1253.58,369.58 1255.11,368.41 1257.81,368.4 1259.34,366.85 1259.35,368.4 1255.89,371.12 1255.9,375 1256.67,375.78 1258.6,375.77 1263.6,374.6 1265.13,371.88 1267.06,372.65 1266.65,363.73 1268.59,368.76 1268.6,372.26 1266.68,376.14 1267.08,380.02 1268.23,381.18 1269,380.4 1269.77,381.57 1268.62,382.34 1269.78,383.12 1269.01,383.89" fill="none" stroke="#1e1e1e" stroke-width="1.63" stroke-linecap="round" stroke-linejoin="round"/>
<path d="M1268.9,340.83L1269.29,342.38L1268.9,340.83Z" fill-rule="evenodd" fill="#4682b4" fill-opacity="0.471"/>
<polyline points="1268.9,340.83 1269.29,342.38 1268.9,340.83" fill="none" stroke="#1e1e1e" stroke-width="1.63" stroke-linecap="round" stroke-linejoin="round"/>
<path d="M1265.05,338.51L1265.04,336.96L1266.2,336.57L1266.59,337.34L1265.43,338.12L1266.59,339.67L1265.44,339.67L1265.05,338.51Z" fill-rule="evenodd" fill="#4682b4" fill-opacity="0.471"/>
<polyline points="1265.05,338.51 1265.04,336.96 1266.2,336.57 1266.59,337.34 1265.43,338.12 1266.59,339.67 1265.44,339.67 1265.05,338.51" fill="none" stroke="#1e1e1e" stroke-width="1.63" stroke-linecap="round" stroke-linejoin="round"/>
<path d="M1265.48,356.75L1264.32,355.2L1265.86,355.58L1265.48,356.75Z" fill-rule="evenodd" fill="#4682b4" fill-opacity="0.471"/>
<polyline points="1265.48,356.75 1264.32,355.2 1265.86,355.58 1265.48,356.75" fill="none" stroke="#1e1e1e" stroke-width="1.63" stroke-linecap="round" stroke-linejoin="round"/>
<path d="M1264.36,369.94L1264.73,366.45L1265.12,369.55L1264.36,369.94Z" fill-rule="evenodd" fill="#4682b4" fill-opacity="0.471"/>
<polyline points="1264.36,369.94 1264.73,366.45 1265.12,369.55 1264.36,369.94" fill="none" stroke="#1e1e1e" stroke-width="1.63" stroke-linecap="round" stroke-linejoin="round"/>
<path d="M1263.5,333.47L1263.49,331.53L1264.65,331.92L1264.65,333.47L1263.5,333.47Z" fill-rule="evenodd" fill="#4682b4" fill-opacity="0.471"/>
<polyline points="1263.5,333.47 1263.49,331.53 1264.65,331.92 1264.65,333.47 1263.5,333.47" fill="none" stroke="#1e1e1e" stroke-width="1.63" stroke-linecap="round" stroke-linejoin="round"/>
<path d="M1263.13,338.9L1263.89,337.74L1264.66,338.51L1264.28,340.06L1263.13,338.9Z" fill-rule="evenodd" fill="#4682b4" fill-opacity="0.471"/>
<polyline points="1263.13,338.9 1263.89,337.74 1264.66,338.51 1264.28,340.06 1263.13,338.9" fill="none" stroke="#1e1e1e" stroke-width="1.63" stroke-linecap="round" stroke-linejoin="round"/>
<path d="M1260.11,364.52L1260.49,362.58L1263.56,359.47L1264.72,359.46L1263.57,361.79L1262.79,360.63L1260.11,364.52Z" fill-rule="evenodd" fill="#4682b4" fill-opacity="0.471"/>
<polyline points="1260.11,364.52 1260.49,362.58 1263.56,359.47 1264.72,359.46 1263.57,361.79 1262.79,360.63 1260.11,364.52" fill="none" stroke="#1e1e1e" stroke-width="1.63" stroke-linecap="round" stroke-linejoin="round"/>
<path d="M1260.56,393.23L1259.79,392.84L1260.56,390.9L1263.25,391.67L1263.64,392.44L1260.56,393.23Z" fill-rule="evenodd" fill="#4682b4" fill-opacity="0.471"/>
<polyline points="1260.56,393.23 1259.79,392.84 1260.56,390.9 1263.25,391.67 1263.64,392.44 1260.56,393.23" fill="none" stroke="#1e1e1e" stroke-width="1.63" stroke-linecap="round" stroke-linejoin="round"/>
<path d="M1251.57,335.83L1249.64,332.73L1248.86,328.46L1251.95,334.27L1252.34,335.44L1251.57,335.83Z" fill-rule="evenodd" fill="#4682b4" fill-opacity="0.471"/>
<polyline points="1251.57,335.83 1249.64,332.73 1248.86,328.46 1251.95,334.27 1252.34,335.44 1251.57,335.83" fill="none" stroke="#1e1e1e" stroke-width="1.63" stroke-linecap="round" stroke-linejoin="round"/>
<path d="M1245.13,380.07L1244.37,381.63L1243.21,381.63L1243.98,378.91L1245.13,379.3L1245.13,380.07Z" fill-rule="evenodd" fill="#4682b4" fill-opacity="0.471"/>
<polyline points="1245.13,380.07 1244.37,381.63 1243.21,381.63 1243.98,378.91 1245.13,379.3 1245.13,380.07" fill="none" stroke="#1e1e1e" stroke-width="1.63" stroke-linecap="round" stroke-linejoin="round"/>
<path d="M1242.44,379.3L1242.82,376.97L1243.59,376.97L1242.44,379.3Z" fill-rule="evenodd" fill="#4682b4" fill-opacity="0.471"/>
<polyline points="1242.44,379.3 1242.82,376.97 1243.59,376.97 1242.44,379.3" fill="none" stroke="#1e1e1e" stroke-width="1.63" stroke-linecap="round" stroke-linejoin="round"/>
<path d="M1237.06,328.62L1235.39,328.88L1234.23,327.72L1236.16,327.72L1237.06,328.62Z" fill-rule="evenodd" fill="#4682b4" fill-opacity="0.471"/>
<polyline points="1237.06,328.62 1235.39,328.88 1234.23,327.72 1236.16,327.72 1237.06,328.62" fill="none" stroke="#1e1e1e" stroke-width="1.63" stroke-linecap="round" stroke-linejoin="round"/>
<path d="M1238.08,328.88L1240.78,328.48L1240.78,329.26L1238.47,329.65L1238.08,328.88Z" fill-rule="evenodd" fill="#4682b4" fill-opacity="0.471"/>
<polyline points="1238.08,328.88 1240.78,328.48 1240.78,329.26 1238.47,329.65 1238.08,328.88" fill="none" stroke="#1e1e1e" stroke-width="1.63" stroke-linecap="round" stroke-linejoin="round"/>
<path d="M1231.15,326.95L1230.38,326.57L1229.99,323.46L1231.92,325.79L1231.15,326.95Z" fill-rule="evenodd" fill="#4682b4" fill-opacity="0.471"/>
<polyline points="1231.15,326.95 1230.38,326.57 1229.99,323.46 1231.92,325.79 1231.15,326.95" fill="none" stroke="#1e1e1e" stroke-width="1.63" stroke-linecap="round" stroke-linejoin="round"/>
<path d="M1222.01,370.04L1222.78,368.87L1221.62,365.77L1223.16,368.1L1223.17,369.26L1222.01,370.04Z" fill-rule="evenodd" fill="#4682b4" fill-opacity="0.471"/>
<polyline points="1222.01,370.04 1222.78,368.87 1221.62,365.77 1223.16,368.1 1223.17,369.26 1222.01,370.04" fill="none" stroke="#1e1e1e" stroke-width="1.63" stroke-linecap="round" stroke-linejoin="round"/>
<path d="M1219.76,394.49L1217.07,396.82L1215.91,396.43L1215.52,395.27L1217.83,395.27L1220.14,392.93L1219.76,394.49Z" fill-rule="evenodd" fill="#4682b4" fill-opacity="0.471"/>
<polyline points="1219.76,394.49 1217.07,396.82 1215.91,396.43 1215.52,395.27 1217.83,395.27 1220.14,392.93 1219.76,394.49" fill="none" stroke="#1e1e1e" stroke-width="1.63" stroke-linecap="round" stroke-linejoin="round"/>
<path d="M1214.75,394.11L1215.13,392.56L1217.06,394.1L1214.75,394.11Z" fill-rule="evenodd" fill="#4682b4" fill-opacity="0.471"/>
<polyline points="1214.75,394.11 1215.13,392.56 1217.06,394.1 1214.75,394.11" fill="none" stroke="#1e1e1e" stroke-width="1.63" stroke-linecap="round" stroke-linejoin="round"/>
<path d="M1214.75,391.39L1214.36,391.78L1212.82,390.23L1212.82,388.68L1214.75,391.39Z" fill-rule="evenodd" fill="#4682b4" fill-opacity="0.471"/>
<polyline points="1214.75,391.39 1214.36,391.78 1212.82,390.23 1212.82,388.68 1214.75,391.39" fill="none" stroke="#1e1e1e" stroke-width="1.63" stroke-linecap="round" stroke-linejoin="round"/>
<path d="M1211.66,387.13L1209.73,384.42L1211.26,383.64L1212.81,385.97L1212.43,387.91L1211.66,387.13Z" fill-rule="evenodd" fill="#4682b4" fill-opacity="0.471"/>
<polyline points="1211.66,387.13 1209.73,384.42 1211.26,383.64 1212.81,385.97 1212.43,387.91 1211.66,387.13" fill="none" stroke="#1e1e1e" stroke-width="1.63" stroke-linecap="round" stroke-linejoin="round"/>
<path d="M1350.18,228.86L1355.56,226.52L1357.87,226.9L1361.36,236.59L1366.77,242.4L1361.4,248.23L1350.24,247.88L1344.45,240.52L1350.18,228.86Z" fill-rule="evenodd" fill="#4682b4" fill-opacity="0.471"/>
<polyline points="1350.18,228.86 1355.56,226.52 1357.87,226.9 1361.36,236.59 1366.77,242.4 1361.4,248.23 1350.24,247.88 1344.45,240.52 1350.18,228.86" fill="none" stroke="#1e1e1e" stroke-width="1.63" stroke-linecap="round" stroke-linejoin="round"/>
<path d="M1363.87,170.61L1366.17,169.83L1370.08,191.94L1366.3,214.07L1352.44,211.78L1352.41,198.59L1362.38,188.86L1365.82,180.7L1363.87,170.61Z" fill-rule="evenodd" fill="#4682b4" fill-opacity="0.471"/>
<polyline points="1363.87,170.61 1366.17,169.83 1370.08,191.94 1366.3,214.07 1352.44,211.78 1352.41,198.59 1362.38,188.86 1365.82,180.7 1363.87,170.61" fill="none" stroke="#1e1e1e" stroke-width="1.63" stroke-linecap="round" stroke-linejoin="round"/>
<path d="M1366.17,169.83L1363.87,170.61L1356.13,154.72L1363.43,154.31L1369.23,164L1366.17,169.83Z" fill-rule="evenodd" fill="#4682b4" fill-opacity="0.471"/>
<polyline points="1366.17,169.83 1363.87,170.61 1356.13,154.72 1363.43,154.31 1369.23,164 1366.17,169.83" fill="none" stroke="#1e1e1e" stroke-width="1.63" stroke-linecap="round" stroke-linejoin="round"/>
<path d="M1352.41,198.59L1352.44,211.78L1350.93,219.16L1328.22,216.89L1327.04,205.64L1333.58,204.85L1345.47,195.5L1352.41,198.59Z" fill-rule="evenodd" fill="#4682b4" fill-opacity="0.471"/>
<polyline points="1352.41,198.59 1352.44,211.78 1350.93,219.16 1328.22,216.89 1327.04,205.64 1333.58,204.85 1345.47,195.5 1352.41,198.59" fill="none" stroke="#1e1e1e" stroke-width="1.63" stroke-linecap="round" stroke-linejoin="round"/>
<path d="M1322.9,240.58L1324.06,240.19L1322.9,240.58Z" fill-rule="evenodd" fill="#4682b4" fill-opacity="0.471"/>
<polyline points="1322.9,240.58 1324.06,240.19 1322.9,240.58" fill="none" stroke="#1e1e1e" stroke-width="1.63" stroke-linecap="round" stroke-linejoin="round"/>
<path d="M1324.44,240.19L1325.98,240.18L1337.18,255.29L1334.53,271.98L1329.15,275.49L1327.96,261.91L1322.57,259.98L1317.54,249.52L1324.44,240.19Z" fill-rule="evenodd" fill="#4682b4" fill-opacity="0.471"/>
<polyline points="1324.44,240.19 1325.98,240.18 1337.18,255.29 1334.53,271.98 1329.15,275.49 1327.96,261.91 1322.57,259.98 1317.54,249.52 1324.44,240.19" fill="none" stroke="#1e1e1e" stroke-width="1.63" stroke-linecap="round" stroke-linejoin="round"/>
<path d="M1337.18,255.29L1344.45,240.52L1350.24,247.88L1361.4,248.23L1354.88,256.79L1354.9,264.16L1348.37,269.23L1349.16,276.6L1334.53,271.98L1337.18,255.29Z" fill-rule="evenodd" fill="#4682b4" fill-opacity="0.471"/>
<polyline points="1337.18,255.29 1344.45,240.52 1350.24,247.88 1361.4,248.23 1354.88,256.79 1354.9,264.16 1348.37,269.23 1349.16,276.6 1334.53,271.98 1337.18,255.29" fill="none" stroke="#1e1e1e" stroke-width="1.63" stroke-linecap="round" stroke-linejoin="round"/>
<path d="M1325.59,240.19L1324.44,240.19L1324.82,239.41L1325.59,240.19Z" fill-rule="evenodd" fill="#4682b4" fill-opacity="0.471"/>
<polyline points="1325.59,240.19 1324.44,240.19 1324.82,239.41 1325.59,240.19" fill="none" stroke="#1e1e1e" stroke-width="1.63" stroke-linecap="round" stroke-linejoin="round"/>
<path d="M1328.22,216.89L1350.93,219.16L1350.18,228.86L1337.18,255.29L1325.21,239.41L1322.9,240.58L1312.5,236.73L1319.41,228.56L1321.69,219.63L1328.22,216.89Z" fill-rule="evenodd" fill="#4682b4" fill-opacity="0.471"/>
<polyline points="1328.22,216.89 1350.93,219.16 1350.18,228.86 1337.18,255.29 1325.21,239.41 1322.9,240.58 1312.5,236.73 1319.41,228.56 1321.69,219.63 1328.22,216.89" fill="none" stroke="#1e1e1e" stroke-width="1.63" stroke-linecap="round" stroke-linejoin="round"/>
<path d="M1350.18,228.86L1350.93,219.16L1352.44,211.78L1366.3,214.07L1366.32,222.22L1358.65,228.45L1357.87,226.9L1355.56,226.52L1350.18,228.86Z" fill-rule="evenodd" fill="#4682b4" fill-opacity="0.471"/>
<polyline points="1350.18,228.86 1350.93,219.16 1352.44,211.78 1366.3,214.07 1366.32,222.22 1358.65,228.45 1357.87,226.9 1355.56,226.52 1350.18,228.86" fill="none" stroke="#1e1e1e" stroke-width="1.63" stroke-linecap="round" stroke-linejoin="round"/>
<path d="M1207.14,436.03L1219.43,420.09L1224.85,432.49L1207.93,442.62L1207.14,436.03Z" fill-rule="evenodd" fill="#4682b4" fill-opacity="0.471"/>
<polyline points="1207.14,436.03 1219.43,420.09 1224.85,432.49 1207.93,442.62 1207.14,436.03" fill="none" stroke="#1e1e1e" stroke-width="1.63" stroke-linecap="round" stroke-linejoin="round"/>
<path d="M470.23,1482.89L469.08,1478.23L470.63,1474.74L471.4,1475.13L471.4,1480.56L470.23,1482.89Z" fill-rule="evenodd" fill="#4682b4" fill-opacity="0.471"/>
<polyline points="470.23,1482.89 469.08,1478.23 470.63,1474.74 471.4,1475.13 471.4,1480.56 470.23,1482.89" fill="none" stroke="#1e1e1e" stroke-width="1.63" stroke-linecap="round" stroke-linejoin="round"/>
<path d="M330.43,1347.33L330.04,1345.78L332.37,1345.01L332.75,1346.17L330.43,1347.33Z" fill-rule="evenodd" fill="#4682b4" fill-opacity="0.471"/>
<polyline points="330.43,1347.33 330.04,1345.78 332.37,1345.01 332.75,1346.17 330.43,1347.33" fill="none" stroke="#1e1e1e" stroke-width="1.63" stroke-linecap="round" stroke-linejoin="round"/>
<path d="M437.43,1089.57L435.5,1087.24L434.73,1084.13L436.28,1082.97L438.21,1083.75L438.2,1089.18L437.43,1089.57Z" fill-rule="evenodd" fill="#4682b4" fill-opacity="0.471"/>
<polyline points="437.43,1089.57 435.5,1087.24 434.73,1084.13 436.28,1082.97 438.21,1083.75 438.2,1089.18 437.43,1089.57" fill="none" stroke="#1e1e1e" stroke-width="1.63" stroke-linecap="round" stroke-linejoin="round"/>
<path d="M438.6,1076.77L437.06,1075.6L438.22,1073.67L438.99,1073.67L439.76,1076L438.6,1076.77Z" fill-rule="evenodd" fill="#4682b4" fill-opacity="0.471"/>
<polyline points="438.6,1076.77 437.06,1075.6 438.22,1073.67 438.99,1073.67 439.76,1076 438.6,1076.77" fill="none" stroke="#1e1e1e" stroke-width="1.63" stroke-linecap="round" stroke-linejoin="round"/>
<text x="1272.94" y="238.96" font-family="sans-serif" font-size="14" stroke="#ffffff" stroke-opacity="0.784" stroke-width="2.33" stroke-linejoin="round" paint-order="stroke" fill="#141414">Ngeremlengui</text>
<text x="1312.79" y="294.56" font-family="sans-serif" font-size="14" stroke="#ffffff" stroke-opacity="0.784" stroke-width="2.33" stroke-linejoin="round" paint-order="stroke" fill="#141414">Airai</text>
<text x="1255.59" y="341.02" font-family="sans-serif" font-size="14" stroke="#ffffff" stroke-opacity="0.784" stroke-width="2.33" stroke-linejoin="round" paint-order="stroke" fill="#141414">Koror</text>
<text x="1303.33" y="266.23" font-family="sans-serif" font-size="14" stroke="#ffffff" stroke-opacity="0.784" stroke-width="2.33" stroke-linejoin="round" paint-order="stroke" fill="#141414">Ngchesar</text>
<text x="1320.06" y="205.44" font-family="sans-serif" font-size="14" stroke="#ffffff" stroke-opacity="0.784" stroke-width="2.33" stroke-linejoin="round" paint-order="stroke" fill="#141414">Ngaraard</text>
<text x="1186.86" y="439.04" font-family="sans-serif" font-size="14" stroke="#ffffff" stroke-opacity="0.784" stroke-width="2.33" stroke-linejoin="round" paint-order="stroke" fill="#141414">Peleliu</text>
<text x="1297" y="168.56" font-family="sans-serif" font-size="14" stroke="#ffffff" stroke-opacity="0.784" stroke-width="2.33" stroke-linejoin="round" paint-order="stroke" fill="#141414">Ngarchelong</text>
<text x="1143.12" y="479.41" font-family="sans-serif" font-size="14" stroke="#ffffff" stroke-opacity="0.784" stroke-width="2.33" stroke-linejoin="round" paint-order="stroke" fill="#141414">Angaur</text>
<text x="398.29" y="1092.97" font-family="sans-serif" font-size="14" stroke="#ffffff" stroke-opacity="0.784" stroke-width="2.33" stroke-linejoin="round" paint-order="stroke" fill="#141414">Sonsorol</text>
<text x="1329" y="22.54" font-family="sans-serif" font-size="14" stroke="#ffffff" stroke-opacity="0.784" stroke-width="2.33" stroke-linejoin="round" paint-order="stroke" fill="#141414">Kayangel</text>
<text x="2" y="1991.83" font-family="sans-serif" font-size="14" stroke="#ffffff" stroke-opacity="0.784" stroke-width="2.33" stroke-linejoin="round" paint-order="stroke" fill="#141414">Hatohobei</text>
</svg>
