<?xml version="1.0" encoding="UTF-8" standalone="no"?>
<svg xmlns="http://www.w3.org/2000/svg" width="1412" height="2000" viewBox="0 0 1412 2000">
<rect width="1412" height="2000" fill="#ffffff"/>
<path d="M423.27,973.42L422.01,1988.45L8,1987.57L11.08,972.54L423.27,973.42ZM8.08,1984.39L9.65,1987.21L11.08,1984L10.73,1982.58L8.08,1984.39ZM330.48,1345.44L331.68,1347.13L332.9,1345.37L330.48,1345.44Z" fill-rule="evenodd" fill="#4682b4" fill-opacity="0.471"/>
<polyline points="423.27,973.42 422.01,1988.45 8,1987.57 11.08,972.54 423.27,973.42" fill="none" stroke="#1e1e1e" stroke-width="1.63" stroke-linecap="round" stroke-linejoin="round"/>
<polyline points="8.08,1984.39 9.65,1987.21 11.08,1984 10.73,1982.58 8.08,1984.39" fill="none" stroke="#1e1e1e" stroke-width="1.63" stroke-linecap="round" stroke-linejoin="round"/>
<polyline points="330.48,1345.44 331.68,1347.13 332.9,1345.37 330.48,1345.44" fill="none" stroke="#1e1e1e" stroke-width="1.63" stroke-linecap="round" stroke-linejoin="round"/>
<path d="M421.66,1988.45L422.92,973.42L1400.92,972.54L1404,1987.57L421.66,1988.45ZM469.09,1479.08L470.21,1482.99L471.36,1480.53L471.14,1474.74L469.09,1479.08ZM436.88,1082.75L434.95,1085.5L437.4,1089.68L438.04,1084.22L436.88,1082.75ZM439.03,1073.57L437.01,1075.18L438.43,1076.71L439.67,1075.9L439.03,1073.57Z" fill-rule="evenodd" fill="#4682b4" fill-opacity="0.471"/>
<polyline points="421.66,1988.45 422.92,973.42 1400.92,972.54 1404,1987.57 421.66,1988.45" fill="none" stroke="#1e1e1e" stroke-width="1.63" stroke-linecap="round" stroke-linejoin="round"/>
<polyline points="469.09,1479.08 470.21,1482.99 471.36,1480.53 471.14,1474.74 469.09,1479.08" fill="none" stroke="#1e1e1e" stroke-width="1.63" stroke-linecap="round" stroke-linejoin="round"/>
<polyline points="436.88,1082.75 434.95,1085.5 437.4,1089.68 438.04,1084.22 436.88,1082.75" fill="none" stroke="#1e1e1e" stroke-width="1.63" stroke-linecap="round" stroke-linejoin="round"/>
<polyline points="439.03,1073.57 437.01,1075.18 438.43,1076.71 439.67,1075.9 439.03,1073.57" fill="none" stroke="#1e1e1e" stroke-width="1.63" stroke-linecap="round" stroke-linejoin="round"/>
<path d="M1400.92,972.89L422.92,973.77L424.11,12.25L1398,11.37L1400.92,972.89ZM1168.67,479.26L1172.26,479.91L1178.29,475.34L1180.92,471.51L1176.55,465.66L1169.74,466.56L1171.66,474.03L1168.67,479.26ZM1207.56,432.32L1207.74,440.85L1206.26,442.32L1208.06,442.54L1206.31,442.82L1208.9,444.09L1207.57,444.39L1208.39,446.6L1209.25,444.16L1212.14,443.51L1210.54,443.2L1211.21,441.11L1218.51,438.26L1224.81,432.66L1225.24,431.19L1223.62,431.4L1224.72,429.39L1228.9,427.54L1225.47,427L1224.65,429.32L1222.61,429.46L1222.1,427.64L1216.01,431.19L1220.81,426.39L1221.23,427.23L1221.95,426.96L1222.86,423.95L1225.47,424.29L1223.95,422.84L1225.32,417.19L1220,419.37L1214.02,428.81L1207.56,432.32ZM1225.37,412.93L1224.26,412.1L1223.28,413.67L1219.28,410.89L1220.68,415.2L1224.89,414.71L1225.37,412.93ZM1227,410.8L1225.72,413.75L1228.85,411.76L1229.1,410.5L1227,410.8ZM1225.95,401.24L1228.75,402.53L1231.85,401.45L1230.04,397.86L1225.95,401.24ZM1216.81,396.83L1220.66,391.2L1218,395.07L1215.62,395.38L1216.81,396.83ZM1260.27,389.35L1259.67,392.91L1263.59,392.11L1260.27,389.35ZM1209.84,384.66L1212.5,387.77L1212.74,386.15L1211.1,383.8L1209.84,384.66ZM1255.05,375.65L1253.95,376.22L1254.72,380.44L1258.23,381.77L1264.53,378.18L1269.11,383.89L1269.66,380.97L1267.37,380.38L1266.68,376.18L1268.55,371.63L1267.19,362.61L1266.58,369.09L1267.65,372.17L1265.81,372.86L1264.74,369.98L1264.27,374.19L1262.76,375.12L1263.01,373.52L1258.74,375.94L1255.79,374.88L1256.08,373.53L1258.95,375.25L1258.26,373.2L1255.43,372.15L1259.96,366.76L1256.12,370.18L1255.69,368.83L1257.07,367.44L1253.67,368.42L1252.42,370.03L1254.25,370.96L1254.51,373.35L1253.29,373.04L1255.05,375.65ZM1224.25,366.85L1223.35,365.35L1221.86,365.39L1221.38,366.22L1222.81,369.21L1220.98,370.26L1223.17,369.65L1222.96,367.7L1224.94,368.01L1224.65,366.94L1221.86,366.48L1222.66,365.7L1224.25,366.85ZM1260.29,364.67L1262.52,360.95L1263.5,361.92L1264.61,358.46L1259.86,362.32L1260.29,364.67ZM1266.39,336.64L1264.81,338.46L1265.87,338.6L1266.51,340.18L1266.39,336.64ZM1249.35,331.92L1251.75,335.63L1250.39,330.44L1248.69,328.31L1249.35,331.92ZM1234.72,329.55L1241.05,329.08L1234.27,327.95L1234.72,329.55ZM1230.99,326.92L1232.49,326.89L1229.8,323.58L1230.08,326.63L1232.56,328.81L1230.99,326.92ZM1269.57,337.48L1270.94,338.63L1271.69,337.53L1266.23,333.51L1268.76,340.22L1269.57,337.48ZM1270.84,333.56L1272.2,332.52L1271.11,332.06L1271.88,330.58L1271.4,328.94L1270.4,328.44L1271,330.26L1269.21,331.48L1270.47,332.99L1268.79,330.39L1267.81,330.97L1268.67,332.25L1266.45,330.29L1268.13,334.04L1268.71,332.34L1270.84,333.56ZM1278.81,341.44L1280.49,338.23L1280.02,333.93L1282.46,331.84L1288.3,332.24L1294.64,338.77L1295.36,331.87L1294.22,330.6L1293.82,333.22L1290.98,330.18L1291.01,332.17L1290.63,329.88L1291.62,329.48L1289.44,324.5L1291.07,320.58L1292.65,319.66L1293.12,322.03L1295.93,319.7L1294.2,315.47L1285.19,310.5L1284.62,305.82L1283.89,308.8L1285.41,312.59L1291.13,316.48L1289.56,322.09L1288.08,319.14L1288.9,327.53L1286,327.8L1285.3,325.7L1284.75,326.51L1286.11,329.1L1278.91,331.08L1275.21,338.84L1267.78,344.67L1267.73,348.05L1264.51,346.69L1265.54,346.05L1261.01,340.8L1252.11,336.88L1252.7,338.53L1256.21,339.09L1256.9,342.12L1261.32,343.1L1263.65,350.49L1268.99,348.62L1267.63,353.02L1273.55,342.7L1274.63,342.28L1275.75,345.19L1278.81,341.44ZM1306.21,320.22L1308.5,318L1312.25,318.73L1313.15,316.75L1309.81,314.57L1310.01,311.41L1307.73,311.37L1309.26,314.68L1305.74,313.79L1300.6,305.73L1304.4,314.36L1302.84,315.23L1303.89,319.42L1303.63,314.85L1308.17,317.75L1305.11,320.14L1306.21,320.22ZM1307.66,310.09L1312.44,312.13L1312.01,308.39L1311.27,309.2L1311.8,310.91L1309.39,309.41L1307.66,310.09ZM1296.43,304.37L1294.15,306.49L1294.78,309.25L1297.51,308.15L1297.32,304.89L1300.23,307.26L1299.27,303.94L1296.94,304.2L1289.1,302.34L1285.96,303.89L1290.29,303.05L1294.06,305.16L1296.43,304.37ZM1327.57,309.41L1327.81,307.83L1332.19,308.28L1326.94,301.67L1325.46,303.14L1327.35,304.64L1326.84,309.54L1327.57,309.41ZM1316.75,299.15L1312.52,297.92L1312.48,299.62L1308.15,299.86L1307.06,301.6L1306.01,299.41L1306.25,302.05L1302.54,302.48L1300.51,301.84L1300.35,298.59L1289.86,295.5L1292.46,297.96L1291.17,299.75L1293.02,299.19L1293.7,301.56L1296.57,301.81L1297.21,299.54L1300.15,299.91L1299.41,303.79L1301.63,303.86L1300.7,305.04L1304.89,308.45L1308.22,304.06L1309.14,305.58L1310.28,304.23L1312.46,305.92L1316.2,305.82L1315.55,310.58L1314.36,311.09L1312.76,308.49L1314.32,311.47L1312.55,311.68L1312.46,313.22L1315.3,315.47L1319.27,308.47L1315.63,302.98L1316.75,299.15ZM1338.87,301.54L1340.69,302.39L1340.95,300.89L1338.16,298.55L1338.87,301.54ZM1342.69,299.78L1347.21,300.11L1347.66,296.92L1350.53,295.41L1348.05,284.72L1346.1,282.14L1348.02,281.49L1349.07,278.23L1348.43,269.03L1352.24,264.06L1354.95,264.11L1353.62,261.57L1357.01,261.65L1354.74,256.48L1366.94,242.96L1364.57,239.29L1359.76,236.46L1359.3,230.34L1358.83,232.61L1357.33,230.75L1359.39,224.69L1361.36,227.83L1366.65,223.16L1366.42,214.16L1364.95,211.9L1367.33,209.11L1366.72,203.8L1369.09,200.34L1368.47,193.55L1369.91,191.84L1368.28,170.94L1366.29,169.36L1369.56,163.69L1363.41,157.62L1362.97,153.79L1359.11,151.96L1356.19,154.61L1354.99,159.41L1356.95,159.26L1358.13,162.71L1359.88,162.76L1358.94,164.25L1360.28,167.56L1364.64,171.37L1362.07,175.55L1363.53,176.91L1365.63,176.15L1363.81,179.3L1365.74,181.04L1364.97,186.64L1362.83,186.06L1363.89,186.64L1362.42,188.97L1354.85,197.94L1346.79,197.24L1345.32,195.34L1343.81,196.07L1343.69,194.44L1342.33,197.59L1337.03,199.56L1338.7,201.23L1335.28,204.25L1328.64,203.33L1326.95,206.46L1329.01,213.23L1328.57,218.2L1324.7,220.76L1322.25,219L1319.26,225.86L1320.3,228.45L1324.69,230.63L1320.7,229.06L1319.32,227.73L1313.12,228.15L1313.56,233.07L1314.87,233.67L1313.24,233.48L1312.54,236.97L1314.86,239.95L1321.22,241.48L1324.72,239.27L1325.9,240.2L1324.74,239.4L1323.92,240.68L1321.95,241.22L1323.57,244.1L1319.6,246.29L1322.64,249.93L1320.07,247.57L1317.69,250.46L1315.41,250.15L1318.11,243.52L1317,242.11L1312.95,241.36L1313.2,243.69L1310.83,244.68L1307.92,243.67L1305.97,246.49L1308.74,249.37L1306.07,252.01L1307.35,254.26L1304.37,254.04L1305.64,257.82L1303.87,258.13L1303.34,261.61L1299.37,262.62L1303.1,265.45L1305.15,263.33L1306.66,264.78L1304.51,268.61L1311.07,274.32L1315.65,274.04L1316.48,276.51L1314.81,280.65L1318.73,288.47L1317.51,288.53L1316.94,294.26L1315.53,294.74L1319.53,298.22L1321.66,297.67L1322.8,300.65L1324.14,299.54L1326.58,301.84L1325.55,299.63L1326.78,299.08L1327.83,301.19L1329.33,300.72L1326.9,299.4L1336.15,299.4L1339.03,292.3L1342.8,292.77L1343.92,296.83L1347.32,296.61L1343.42,297.58L1342.69,299.78ZM1360.31,142L1358.51,141.46L1359.07,143.67L1361.11,145.51L1360.31,142ZM1394.06,23.16L1393.15,27.55L1394.43,26.51L1394.91,23.04L1394.06,23.16ZM1397.28,11.46L1395,11.96L1396.48,16L1395.76,20.38L1397.69,18.37L1397.28,11.46Z" fill-rule="evenodd" fill="#4682b4" fill-opacity="0.471"/>
<polyline points="1400.92,972.89 422.92,973.77 424.11,12.25 1398,11.37 1400.92,972.89" fill="none" stroke="#1e1e1e" stroke-width="1.63" stroke-linecap="round" stroke-linejoin="round"/>
<polyline points="1168.67,479.26 1172.26,479.91 1178.29,475.34 1180.92,471.51 1176.55,465.66 1169.74,466.56 1171.66,474.03 1168.67,479.26" fill="none" stroke="#1e1e1e" stroke-width="1.63" stroke-linecap="round" stroke-linejoin="round"/>
<polyline points="1207.56,432.32 1207.74,440.85 1206.26,442.32 1208.06,442.54 1206.31,442.82 1208.9,444.09 1207.57,444.39 1208.39,446.6 1209.25,444.16 1212.14,443.51 1210.54,443.2 1211.21,441.11 1218.51,438.26 1224.81,432.66 1225.24,431.19 1223.62,431.4 1224.72,429.39 1228.9,427.54 1225.47,427 1224.65,429.32 1222.61,429.46 1222.1,427.64 1216.01,431.19 1220.81,426.39 1221.23,427.23 1221.95,426.96 1222.86,423.95 1225.47,424.29 1223.95,422.84 1225.32,417.19 1220,419.37 1214.02,428.81 1207.56,432.32" fill="none" stroke="#1e1e1e" stroke-width="1.63" stroke-linecap="round" stroke-linejoin="round"/>
<polyline points="1225.37,412.93 1224.26,412.1 1223.28,413.67 1219.28,410.89 1220.68,415.2 1224.89,414.71 1225.37,412.93" fill="none" stroke="#1e1e1e" stroke-width="1.63" stroke-linecap="round" stroke-linejoin="round"/>
<polyline points="1227,410.8 1225.72,413.75 1228.85,411.76 1229.1,410.5 1227,410.8" fill="none" stroke="#1e1e1e" stroke-width="1.63" stroke-linecap="round" stroke-linejoin="round"/>
<polyline points="1225.95,401.24 1228.75,402.53 1231.85,401.45 1230.04,397.86 1225.95,401.24" fill="none" stroke="#1e1e1e" stroke-width="1.63" stroke-linecap="round" stroke-linejoin="round"/>
<polyline points="1216.81,396.83 1220.66,391.2 1218,395.07 1215.62,395.38 1216.81,396.83" fill="none" stroke="#1e1e1e" stroke-width="1.63" stroke-linecap="round" stroke-linejoin="round"/>
<polyline points="1260.27,389.35 1259.67,392.91 1263.59,392.11 1260.27,389.35" fill="none" stroke="#1e1e1e" stroke-width="1.63" stroke-linecap="round" stroke-linejoin="round"/>
<polyline points="1209.84,384.66 1212.5,387.77 1212.74,386.15 1211.1,383.8 1209.84,384.66" fill="none" stroke="#1e1e1e" stroke-width="1.63" stroke-linecap="round" stroke-linejoin="round"/>
<polyline points="1255.05,375.65 1253.95,376.22 1254.72,380.44 1258.23,381.77 1264.53,378.18 1269.11,383.89 1269.66,380.97 1267.37,380.38 1266.68,376.18 1268.55,371.63 1267.19,362.61 1266.58,369.09 1267.65,372.17 1265.81,372.86 1264.74,369.98 1264.27,374.19 1262.76,375.12 1263.01,373.52 1258.74,375.94 1255.79,374.88 1256.08,373.53 1258.95,375.25 1258.26,373.2 1255.43,372.15 1259.96,366.76 1256.12,370.18 1255.69,368.83 1257.07,367.44 1253.67,368.42 1252.42,370.03 1254.25,370.96 1254.51,373.35 1253.29,373.04 1255.05,375.65" fill="none" stroke="#1e1e1e" stroke-width="1.63" stroke-linecap="round" stroke-linejoin="round"/>
<polyline points="1224.25,366.85 1223.35,365.35 1221.86,365.39 1221.38,366.22 1222.81,369.21 1220.98,370.26 1223.17,369.65 1222.96,367.7 1224.94,368.01 1224.65,366.94 1221.86,366.48 1222.66,365.7 1224.25,366.85" fill="none" stroke="#1e1e1e" stroke-width="1.63" stroke-linecap="round" stroke-linejoin="round"/>
<polyline points="1260.29,364.67 1262.52,360.95 1263.5,361.92 1264.61,358.46 1259.86,362.32 1260.29,364.67" fill="none" stroke="#1e1e1e" stroke-width="1.63" stroke-linecap="round" stroke-linejoin="round"/>
<polyline points="1266.39,336.64 1264.81,338.46 1265.87,338.6 1266.51,340.18 1266.39,336.64" fill="none" stroke="#1e1e1e" stroke-width="1.63" stroke-linecap="round" stroke-linejoin="round"/>
<polyline points="1249.35,331.92 1251.75,335.63 1250.39,330.44 1248.69,328.31 1249.35,331.92" fill="none" stroke="#1e1e1e" stroke-width="1.63" stroke-linecap="round" stroke-linejoin="round"/>
<polyline points="1234.72,329.55 1241.05,329.08 1234.27,327.95 1234.72,329.55" fill="none" stroke="#1e1e1e" stroke-width="1.63" stroke-linecap="round" stroke-linejoin="round"/>
<polyline points="1230.99,326.92 1232.49,326.89 1229.8,323.58 1230.08,326.63 1232.56,328.81 1230.99,326.92" fill="none" stroke="#1e1e1e" stroke-width="1.63" stroke-linecap="round" stroke-linejoin="round"/>
<polyline points="1269.57,337.48 1270.94,338.63 1271.69,337.53 1266.23,333.51 1268.76,340.22 1269.57,337.48" fill="none" stroke="#1e1e1e" stroke-width="1.63" stroke-linecap="round" stroke-linejoin="round"/>
<polyline points="1270.84,333.56 1272.2,332.52 1271.11,332.06 1271.88,330.58 1271.4,328.94 1270.4,328.44 1271,330.26 1269.21,331.48 1270.47,332.99 1268.79,330.39 1267.81,330.97 1268.67,332.25 1266.45,330.29 1268.13,334.04 1268.71,332.34 1270.84,333.56" fill="none" stroke="#1e1e1e" stroke-width="1.63" stroke-linecap="round" stroke-linejoin="round"/>
<polyline points="1278.81,341.44 1280.49,338.23 1280.02,333.93 1282.46,331.84 1288.3,332.24 1294.64,338.77 1295.36,331.87 1294.22,330.6 1293.82,333.22 1290.98,330.18 1291.01,332.17 1290.63,329.88 1291.62,329.48 1289.44,324.5 1291.07,320.58 1292.65,319.66 1293.12,322.03 1295.93,319.7 1294.2,315.47 1285.19,310.5 1284.62,305.82 1283.89,308.8 1285.41,312.59 1291.13,316.48 1289.56,322.09 1288.08,319.14 1288.9,327.53 1286,327.8 1285.3,325.7 1284.75,326.51 1286.11,329.1 1278.91,331.08 1275.21,338.84 1267.78,344.67 1267.73,348.05 1264.51,346.69 1265.54,346.05 1261.01,340.8 1252.11,336.88 1252.7,338.53 1256.21,339.09 1256.9,342.12 1261.32,343.1 1263.65,350.49 1268.99,348.62 1267.63,353.02 1273.55,342.7 1274.63,342.28 1275.75,345.19 1278.81,341.44" fill="none" stroke="#1e1e1e" stroke-width="1.63" stroke-linecap="round" stroke-linejoin="round"/>
<polyline points="1306.21,320.22 1308.5,318 1312.25,318.73 1313.15,316.75 1309.81,314.57 1310.01,311.41 1307.73,311.37 1309.26,314.68 1305.74,313.79 1300.6,305.73 1304.4,314.36 1302.84,315.23 1303.89,319.42 1303.63,314.85 1308.17,317.75 1305.11,320.14 1306.21,320.22" fill="none" stroke="#1e1e1e" stroke-width="1.63" stroke-linecap="round" stroke-linejoin="round"/>
<polyline points="1307.66,310.09 1312.44,312.13 1312.01,308.39 1311.27,309.2 1311.8,310.91 1309.39,309.41 1307.66,310.09" fill="none" stroke="#1e1e1e" stroke-width="1.63" stroke-linecap="round" stroke-linejoin="round"/>
<polyline points="1296.43,304.37 1294.15,306.49 1294.78,309.25 1297.51,308.15 1297.32,304.89 1300.23,307.26 1299.27,303.94 1296.94,304.2 1289.1,302.34 1285.96,303.89 1290.29,303.05 1294.06,305.16 1296.43,304.37" fill="none" stroke="#1e1e1e" stroke-width="1.63" stroke-linecap="round" stroke-linejoin="round"/>
<polyline points="1327.57,309.41 1327.81,307.83 1332.19,308.28 1326.94,301.67 1325.46,303.14 1327.35,304.64 1326.84,309.54 1327.57,309.41" fill="none" stroke="#1e1e1e" stroke-width="1.63" stroke-linecap="round" stroke-linejoin="round"/>
<polyline points="1316.75,299.15 1312.52,297.92 1312.48,299.62 1308.15,299.86 1307.06,301.6 1306.01,299.41 1306.25,302.05 1302.54,302.48 1300.51,301.84 1300.35,298.59 1289.86,295.5 1292.46,297.96 1291.17,299.75 1293.02,299.19 1293.7,301.56 1296.57,301.81 1297.21,299.54 1300.15,299.91 1299.41,303.79 1301.63,303.86 1300.7,305.04 1304.89,308.45 1308.22,304.06 1309.14,305.58 1310.28,304.23 1312.46,305.92 1316.2,305.82 1315.55,310.58 1314.36,311.09 1312.76,308.49 1314.32,311.47 1312.55,311.68 1312.46,313.22 1315.3,315.47 1319.27,308.47 1315.63,302.98 1316.75,299.15" fill="none" stroke="#1e1e1e" stroke-width="1.63" stroke-linecap="round" stroke-linejoin="round"/>
<polyline points="1338.87,301.54 1340.69,302.39 1340.95,300.89 1338.16,298.55 1338.87,301.54" fill="none" stroke="#1e1e1e" stroke-width="1.63" stroke-linecap="round" stroke-linejoin="round"/>
<polyline points="1342.69,299.78 1347.21,300.11 1347.66,296.92 1350.53,295.41 1348.05,284.72 1346.1,282.14 1348.02,281.49 1349.07,278.23 1348.43,269.03 1352.24,264.06 1354.95,264.11 1353.62,261.57 1357.01,261.65 1354.74,256.48 1366.94,242.96 1364.57,239.29 1359.76,236.46 1359.3,230.34 1358.83,232.61 1357.33,230.75 1359.39,224.69 1361.36,227.83 1366.65,223.16 1366.42,214.16 1364.95,211.9 1367.33,209.11 1366.72,203.8 1369.09,200.34 1368.47,193.55 1369.91,191.84 1368.28,170.94 1366.29,169.36 1369.56,163.69 1363.41,157.62 1362.97,153.79 1359.11,151.96 1356.19,154.61 1354.99,159.41 1356.95,159.26 1358.13,162.71 1359.88,162.76 1358.94,164.25 1360.28,167.56 1364.64,171.37 1362.07,175.55 1363.53,176.91 1365.63,176.15 1363.81,179.3 1365.74,181.04 1364.97,186.64 1362.83,186.06 1363.89,186.64 1362.42,188.97 1354.85,197.94 1346.79,197.24 1345.32,195.34 1343.81,196.07 1343.69,194.44 1342.33,197.59 1337.03,199.56 1338.7,201.23 1335.28,204.25 1328.64,203.33 1326.95,206.46 1329.01,213.23 1328.57,218.2 1324.7,220.76 1322.25,219 1319.26,225.86 1320.3,228.45 1324.69,230.63 1320.7,229.06 1319.32,227.73 1313.12,228.15 1313.56,233.07 1314.87,233.67 1313.24,233.48 1312.54,236.97 1314.86,239.95 1321.22,241.48 1324.72,239.27 1325.9,240.2 1324.74,239.4 1323.92,240.68 1321.95,241.22 1323.57,244.1 1319.6,246.29 1322.64,249.93 1320.07,247.57 1317.69,250.46 1315.41,250.15 1318.11,243.52 1317,242.11 1312.95,241.36 1313.2,243.69 1310.83,244.68 1307.92,243.67 1305.97,246.49 1308.74,249.37 1306.07,252.01 1307.35,254.26 1304.37,254.04 1305.64,257.82 1303.87,258.13 1303.34,261.61 1299.37,262.62 1303.1,265.45 1305.15,263.33 1306.66,264.78 1304.51,268.61 1311.07,274.32 1315.65,274.04 1316.48,276.51 1314.81,280.65 1318.73,288.47 1317.51,288.53 1316.94,294.26 1315.53,294.74 1319.53,298.22 1321.66,297.67 1322.8,300.65 1324.14,299.54 1326.58,301.84 1325.55,299.63 1326.78,299.08 1327.83,301.19 1329.33,300.72 1326.9,299.4 1336.15,299.4 1339.03,292.3 1342.8,292.77 1343.92,296.83 1347.32,296.61 1343.42,297.58 1342.69,299.78" fill="none" stroke="#1e1e1e" stroke-width="1.63" stroke-linecap="round" stroke-linejoin="round"/>
<polyline points="1360.31,142 1358.51,141.46 1359.07,143.67 1361.11,145.51 1360.31,142" fill="none" stroke="#1e1e1e" stroke-width="1.63" stroke-linecap="round" stroke-linejoin="round"/>
<polyline points="1394.06,23.16 1393.15,27.55 1394.43,26.51 1394.91,23.04 1394.06,23.16" fill="none" stroke="#1e1e1e" stroke-width="1.63" stroke-linecap="round" stroke-linejoin="round"/>
<polyline points="1397.28,11.46 1395,11.96 1396.48,16 1395.76,20.38 1397.69,18.37 1397.28,11.46" fill="none" stroke="#1e1e1e" stroke-width="1.63" stroke-linecap="round" stroke-linejoin="round"/>
<path d="M1347.43,294.39L1347.33,296.6L1347.43,294.39Z" fill-rule="evenodd" fill="#4682b4" fill-opacity="0.471"/>
<polyline points="1347.43,294.39 1347.33,296.6 1347.43,294.39" fill="none" stroke="#1e1e1e" stroke-width="1.63" stroke-linecap="round" stroke-linejoin="round"/>
<path d="M424.45,12.25L423.27,973.77L11.08,972.89L14,11.37L424.45,12.25Z" fill-rule="evenodd" fill="#4682b4" fill-opacity="0.471"/>
<polyline points="424.45,12.25 423.27,973.77 11.08,972.89 14,11.37 424.45,12.25" fill="none" stroke="#1e1e1e" stroke-width="1.63" stroke-linecap="round" stroke-linejoin="round"/>
</svg>
