<?xml version="1.0" encoding="UTF-8" standalone="no"?>
<svg xmlns="http://www.w3.org/2000/svg" width="2000" height="837" viewBox="0 0 2000 837">
<rect width="2000" height="837" fill="#ffffff"/>
<path d="M272.02,95.19L269.73,89.47L262.81,85.41L277.42,76.43L286.68,78.83L294.86,96.32L293.83,102.36L286.86,106.01L272.02,95.19Z" fill-rule="evenodd" fill="#4682b4" fill-opacity="0.471"/>
<polyline points="272.02,95.19 269.73,89.47 262.81,85.41 277.42,76.43 286.68,78.83 294.86,96.32 293.83,102.36 286.86,106.01 272.02,95.19" fill="none" stroke="#1e1e1e" stroke-width="1.55" stroke-linecap="round" stroke-linejoin="round"/>
<path d="M316.56,123.28L322.2,121.64L315.65,109.19L324.58,109.9L331.82,118.67L341.42,120.06L344.37,124.77L333.76,128.41L326.43,135.75L322.47,133.38L316.56,123.28Z" fill-rule="evenodd" fill="#4682b4" fill-opacity="0.471"/>
<polyline points="316.56,123.28 322.2,121.64 315.65,109.19 324.58,109.9 331.82,118.67 341.42,120.06 344.37,124.77 333.76,128.41 326.43,135.75 322.47,133.38 316.56,123.28" fill="none" stroke="#1e1e1e" stroke-width="1.55" stroke-linecap="round" stroke-linejoin="round"/>
<path d="M360,246.31L361.31,248.66L353.65,256.68L347.03,255.3L350.02,252.63L353.34,252.99L351.03,249.62L353.37,246.61L360,246.31Z" fill-rule="evenodd" fill="#4682b4" fill-opacity="0.471"/>
<polyline points="360,246.31 361.31,248.66 353.65,256.68 347.03,255.3 350.02,252.63 353.34,252.99 351.03,249.62 353.37,246.61 360,246.31" fill="none" stroke="#1e1e1e" stroke-width="1.55" stroke-linecap="round" stroke-linejoin="round"/>
<path d="M356.43,164.42L365.32,175.2L361.32,180.55L352.73,174.14L356.43,164.42Z" fill-rule="evenodd" fill="#4682b4" fill-opacity="0.471"/>
<polyline points="356.43,164.42 365.32,175.2 361.32,180.55 352.73,174.14 356.43,164.42" fill="none" stroke="#1e1e1e" stroke-width="1.55" stroke-linecap="round" stroke-linejoin="round"/>
<path d="M318.97,170.27L324.71,148.16L333.66,147.2L342.51,164.69L339.17,171.38L338.45,181.11L329.53,177.37L318.97,170.27Z" fill-rule="evenodd" fill="#4682b4" fill-opacity="0.471"/>
<polyline points="318.97,170.27 324.71,148.16 333.66,147.2 342.51,164.69 339.17,171.38 338.45,181.11 329.53,177.37 318.97,170.27" fill="none" stroke="#1e1e1e" stroke-width="1.55" stroke-linecap="round" stroke-linejoin="round"/>
<path d="M339.44,247.88L339.06,256.94L328.8,254.87L322.82,256.86L314.48,266.21L309.55,258.46L298.95,257.4L300.32,249.35L307.28,249.06L306.01,238.65L300.41,233.25L284.53,227.46L276.95,220.71L270.96,224.03L265.05,215.61L269.74,206.24L281.38,197.92L279.75,193.21L269.17,189.13L272.2,180.42L265.94,175.69L253.28,187.36L252.17,207.15L241.15,222.52L234.84,224.83L235.12,232.55L247.7,235.98L255.93,244.75L260.81,261.21L256.48,264.54L255.75,276.28L252.4,283.31L249.07,285.64L230.87,279.83L218.66,270.36L196.46,268.21L184.61,254.72L175.01,252.98L167.04,255.28L142.17,256.79L135.92,249.71L134.32,240.64L126.74,234.55L123.15,225.8L111.91,222.37L98.73,211.87L95.08,211.85L82.55,204.04L78.31,193.61L62.05,196.85L63.01,64.32L93.53,55.48L92.23,50.77L84.64,47.69L80.46,31.56L82.49,24.53L88.45,23.9L89.51,15.18L100.41,17.94L105.66,23.68L111.63,21.71L115.89,27.11L121.85,26.48L126.44,32.88L134.04,35.62L141.26,43.72L146.16,53.48L162.68,57.95L172.97,53.66L175.03,42.26L186.01,31.93L244.28,83.29L256.52,84.7L255.14,94.76L246.49,101.76L243.8,109.46L247.08,114.17L257.3,121.28L254.28,129.32L240.38,127.56L240.68,132.93L248.92,139.35L251.84,150.1L260.73,158.54L268.67,161.27L276.97,157.96L286.21,164.06L308.11,155.45L315.64,172.27L309.67,173.91L304.74,167.51L287.51,167.75L282.51,174.1L283.11,184.51L280.1,190.53L290.66,196.96L289.87,221.79L302.43,227.89L316.68,227.3L328.92,231.05L335.8,247.53L339.44,247.88Z" fill-rule="evenodd" fill="#4682b4" fill-opacity="0.471"/>
<polyline points="339.44,247.88 339.06,256.94 328.8,254.87 322.82,256.86 314.48,266.21 309.55,258.46 298.95,257.4 300.32,249.35 307.28,249.06 306.01,238.65 300.41,233.25 284.53,227.46 276.95,220.71 270.96,224.03 265.05,215.61 269.74,206.24 281.38,197.92 279.75,193.21 269.17,189.13 272.2,180.42 265.94,175.69 253.28,187.36 252.17,207.15 241.15,222.52 234.84,224.83 235.12,232.55 247.7,235.98 255.93,244.75 260.81,261.21 256.48,264.54 255.75,276.28 252.4,283.31 249.07,285.64 230.87,279.83 218.66,270.36 196.46,268.21 184.61,254.72 175.01,252.98 167.04,255.28 142.17,256.79 135.92,249.71 134.32,240.64 126.74,234.55 123.15,225.8 111.91,222.37 98.73,211.87 95.08,211.85 82.55,204.04 78.31,193.61 62.05,196.85 63.01,64.32 93.53,55.48 92.23,50.77 84.64,47.69 80.46,31.56 82.49,24.53 88.45,23.9 89.51,15.18 100.41,17.94 105.66,23.68 111.63,21.71 115.89,27.11 121.85,26.48 126.44,32.88 134.04,35.62 141.26,43.72 146.16,53.48 162.68,57.95 172.97,53.66 175.03,42.26 186.01,31.93 244.28,83.29 256.52,84.7 255.14,94.76 246.49,101.76 243.8,109.46 247.08,114.17 257.3,121.28 254.28,129.32 240.38,127.56 240.68,132.93 248.92,139.35 251.84,150.1 260.73,158.54 268.67,161.27 276.97,157.96 286.21,164.06 308.11,155.45 315.64,172.27 309.67,173.91 304.74,167.51 287.51,167.75 282.51,174.1 283.11,184.51 280.1,190.53 290.66,196.96 289.87,221.79 302.43,227.89 316.68,227.3 328.92,231.05 335.8,247.53 339.44,247.88" fill="none" stroke="#1e1e1e" stroke-width="1.55" stroke-linecap="round" stroke-linejoin="round"/>
<path d="M294.3,138.6L285.65,145.6L283.95,152.97L275.06,144.2L274.15,129.43L277.8,126.76L286.73,129.83L294.3,138.6Z" fill-rule="evenodd" fill="#4682b4" fill-opacity="0.471"/>
<polyline points="294.3,138.6 285.65,145.6 283.95,152.97 275.06,144.2 274.15,129.43 277.8,126.76 286.73,129.83 294.3,138.6" fill="none" stroke="#1e1e1e" stroke-width="1.55" stroke-linecap="round" stroke-linejoin="round"/>
<path d="M988.07,244.87L1000.33,232.45L1012.59,234.13L1014.91,238.16L1026.51,238.83L1038.77,235.47L1051.03,222.71L1050.7,214.33L1045.39,199.57L1054.33,186.48L1054.99,171.38L1057.3,166.68L1067.57,163.99L1087.44,165.32L1094.07,168.67L1100.38,187.12L1110.32,189.13L1118.27,186.1L1134.5,188.77L1143.46,203.19L1152.42,212.9L1161.04,218.6L1171.99,229.32L1176.66,248.77L1180.64,252.46L1176.67,260.85L1162.09,262.21L1151.16,265.92L1147.51,261.9L1140.55,268.28L1132.26,267.95L1118.35,281.38L1110.08,300.18L1118.72,322.99L1112.76,334.4L1094.2,341.79L1089.23,348.51L1106.48,356.55L1119.08,353.18L1112.13,364.93L1105.16,369.3L1079.96,376.02L1074.32,385.09L1053.75,396.5L1050.77,404.89L1042.81,411.27L1020.25,425.37L1012.94,417.65L1010.62,409.93L1004.65,401.88L1004.64,383.09L1000,367.33L1000,349.88L996.35,337.8L995.36,319.01L989.72,313.98L985.74,304.25L979.44,299.22L975.47,283.45L980.44,268.35L980.77,260.97L989.72,253.93L988.07,244.87Z" fill-rule="evenodd" fill="#4682b4" fill-opacity="0.471"/>
<polyline points="988.07,244.87 1000.33,232.45 1012.59,234.13 1014.91,238.16 1026.51,238.83 1038.77,235.47 1051.03,222.71 1050.7,214.33 1045.39,199.57 1054.33,186.48 1054.99,171.38 1057.3,166.68 1067.57,163.99 1087.44,165.32 1094.07,168.67 1100.38,187.12 1110.32,189.13 1118.27,186.1 1134.5,188.77 1143.46,203.19 1152.42,212.9 1161.04,218.6 1171.99,229.32 1176.66,248.77 1180.64,252.46 1176.67,260.85 1162.09,262.21 1151.16,265.92 1147.51,261.9 1140.55,268.28 1132.26,267.95 1118.35,281.38 1110.08,300.18 1118.72,322.99 1112.76,334.4 1094.2,341.79 1089.23,348.51 1106.48,356.55 1119.08,353.18 1112.13,364.93 1105.16,369.3 1079.96,376.02 1074.32,385.09 1053.75,396.5 1050.77,404.89 1042.81,411.27 1020.25,425.37 1012.94,417.65 1010.62,409.93 1004.65,401.88 1004.64,383.09 1000,367.33 1000,349.88 996.35,337.8 995.36,319.01 989.72,313.98 985.74,304.25 979.44,299.22 975.47,283.45 980.44,268.35 980.77,260.97 989.72,253.93 988.07,244.87" fill="none" stroke="#1e1e1e" stroke-width="1.55" stroke-linecap="round" stroke-linejoin="round"/>
<path d="M785.06,350.71L794.67,352.4L797.01,345.36L804.64,343.69L799.68,331.27L800.36,323.22L806.67,315.85L805.69,307.46L821.95,298.76L827.91,301.45L850.8,295.78L855.12,288.4L852.16,261.22L857.15,246.47L874.38,255.21L886.97,257.9L898.23,266.3L908.51,265.97L913.15,270.34L922.76,265.31L955.93,228.09L960.9,231.44L970.18,209.64L975.81,217.35L973.49,223.39L976.47,236.81L986.74,240.84L989.72,253.93L980.77,260.97L980.44,268.35L975.47,283.45L979.44,299.22L985.74,304.25L989.72,313.98L995.36,319.01L996.35,337.8L1000,349.88L1000,367.33L1004.64,383.09L1004.65,401.88L1010.62,409.93L1012.94,417.65L1020.25,425.37L1010.62,429.73L974.11,452.2L950.53,461.93L932.61,462.25L928.62,459.9L909.03,464.59L899.74,464.25L882.12,487.38L877.14,487.04L874.48,493.75L872.47,508.51L873.46,519.92L876.44,531.33L856.18,522.25L851.53,522.91L842.24,515.86L826.3,515.16L816,518.84L807.37,515.47L795.76,508.07L787.47,499.67L794.79,490.63L798.79,477.55L797.14,470.17L801.14,461.78L800.83,449.03L793.87,443.66L794.54,435.94L784.28,418.48L783.96,410.09L776.68,402.36L775.36,394.64L767.09,384.56L757.81,378.84L764.45,372.15L774.07,374.18L778.4,363.11L783.05,360.1L785.06,350.71Z" fill-rule="evenodd" fill="#4682b4" fill-opacity="0.471"/>
<polyline points="785.06,350.71 794.67,352.4 797.01,345.36 804.64,343.69 799.68,331.27 800.36,323.22 806.67,315.85 805.69,307.46 821.95,298.76 827.91,301.45 850.8,295.78 855.12,288.4 852.16,261.22 857.15,246.47 874.38,255.21 886.97,257.9 898.23,266.3 908.51,265.97 913.15,270.34 922.76,265.31 955.93,228.09 960.9,231.44 970.18,209.64 975.81,217.35 973.49,223.39 976.47,236.81 986.74,240.84 989.72,253.93 980.77,260.97 980.44,268.35 975.47,283.45 979.44,299.22 985.74,304.25 989.72,313.98 995.36,319.01 996.35,337.8 1000,349.88 1000,367.33 1004.64,383.09 1004.65,401.88 1010.62,409.93 1012.94,417.65 1020.25,425.37 1010.62,429.73 974.11,452.2 950.53,461.93 932.61,462.25 928.62,459.9 909.03,464.59 899.74,464.25 882.12,487.38 877.14,487.04 874.48,493.75 872.47,508.51 873.46,519.92 876.44,531.33 856.18,522.25 851.53,522.91 842.24,515.86 826.3,515.16 816,518.84 807.37,515.47 795.76,508.07 787.47,499.67 794.79,490.63 798.79,477.55 797.14,470.17 801.14,461.78 800.83,449.03 793.87,443.66 794.54,435.94 784.28,418.48 783.96,410.09 776.68,402.36 775.36,394.64 767.09,384.56 757.81,378.84 764.45,372.15 774.07,374.18 778.4,363.11 783.05,360.1 785.06,350.71" fill="none" stroke="#1e1e1e" stroke-width="1.55" stroke-linecap="round" stroke-linejoin="round"/>
<path d="M1334.21,38.76L1334.24,50.5L1339.25,66.93L1334.96,73.32L1321.42,83.42L1315.49,94.5L1303.26,105.94L1288.39,115.71L1284.06,104.64L1269.45,85.21L1258.52,83.56L1253.58,92.29L1231.72,85.29L1230.37,72.54L1234.99,64.81L1221.75,64.83L1217.46,69.88L1209.52,71.9L1208.51,64.86L1188.33,70.93L1178.45,104.5L1182.76,109.86L1174.5,120.27L1171.87,134.7L1175.2,151.14L1164.27,152.16L1159.97,158.21L1152.02,156.87L1147.07,173.66L1142.44,176.34L1134.5,188.77L1118.27,186.1L1110.32,189.13L1100.38,187.12L1094.07,168.67L1087.44,165.32L1067.57,163.99L1057.3,166.68L1054.99,171.38L1054.33,186.48L1045.39,199.57L1050.7,214.33L1051.03,222.71L1038.77,235.47L1026.51,238.83L1014.91,238.16L1012.59,234.13L1000.33,232.45L988.07,244.87L986.74,240.84L976.47,236.81L973.49,223.39L975.81,217.35L970.18,209.64L960.9,231.44L955.93,228.09L922.76,265.31L913.15,270.34L908.51,265.97L898.23,266.3L886.97,257.9L874.38,255.21L857.15,246.47L852.16,261.22L855.12,288.4L850.8,295.78L827.91,301.45L821.95,298.76L805.69,307.46L806.67,315.85L800.36,323.22L799.68,331.27L804.64,343.69L797.01,345.36L794.67,352.4L785.06,350.71L792.7,345.69L792.37,338.98L786.08,335.28L782.78,324.54L794.4,316.5L784.14,304.41L780.84,297.36L759.63,290.27L747.05,279.51L745.07,274.81L746.42,264.08L761.67,261.76L774.3,245.34L779.93,242.33L783.26,234.62L792.55,226.92L803.83,223.92L804.49,219.56L823.73,208.85L853.23,195.13L871.79,187.43L878.09,188.11L902.94,177.73L916.19,178.41L921.82,174.72L937.06,174.06L940.38,171.38L952.63,169.03L954.95,166.01L969.2,160.98L974.83,161.66L990.06,156.63L1005.63,146.56L1020.86,129.11L1037.41,112.33L1041.38,105.28L1051.65,101.25L1053.31,121.38L1060.59,122.05L1076.47,90.5L1094.02,93.51L1106.91,78.74L1119.49,76.38L1126.1,64.29L1137.01,57.57L1136.68,54.21L1148.58,40.44L1144.6,32.06L1155.84,24.66L1170.39,21.96L1187.25,13.55L1190.9,19.92L1189.59,27.3L1202.5,29.63L1221.02,25.24L1224,29.26L1246.51,33.58L1258.09,31.55L1267.37,36.9L1272.33,35.54L1289.88,43.56L1303.45,44.2L1308.74,39.82L1321.97,40.46L1334.21,38.76Z" fill-rule="evenodd" fill="#4682b4" fill-opacity="0.471"/>
<polyline points="1334.21,38.76 1334.24,50.5 1339.25,66.93 1334.96,73.32 1321.42,83.42 1315.49,94.5 1303.26,105.94 1288.39,115.71 1284.06,104.64 1269.45,85.21 1258.52,83.56 1253.58,92.29 1231.72,85.29 1230.37,72.54 1234.99,64.81 1221.75,64.83 1217.46,69.88 1209.52,71.9 1208.51,64.86 1188.33,70.93 1178.45,104.5 1182.76,109.86 1174.5,120.27 1171.87,134.7 1175.2,151.14 1164.27,152.16 1159.97,158.21 1152.02,156.87 1147.07,173.66 1142.44,176.34 1134.5,188.77 1118.27,186.1 1110.32,189.13 1100.38,187.12 1094.07,168.67 1087.44,165.32 1067.57,163.99 1057.3,166.68 1054.99,171.38 1054.33,186.48 1045.39,199.57 1050.7,214.33 1051.03,222.71 1038.77,235.47 1026.51,238.83 1014.91,238.16 1012.59,234.13 1000.33,232.45 988.07,244.87 986.74,240.84 976.47,236.81 973.49,223.39 975.81,217.35 970.18,209.64 960.9,231.44 955.93,228.09 922.76,265.31 913.15,270.34 908.51,265.97 898.23,266.3 886.97,257.9 874.38,255.21 857.15,246.47 852.16,261.22 855.12,288.4 850.8,295.78 827.91,301.45 821.95,298.76 805.69,307.46 806.67,315.85 800.36,323.22 799.68,331.27 804.64,343.69 797.01,345.36 794.67,352.4 785.06,350.71 792.7,345.69 792.37,338.98 786.08,335.28 782.78,324.54 794.4,316.5 784.14,304.41 780.84,297.36 759.63,290.27 747.05,279.51 745.07,274.81 746.42,264.08 761.67,261.76 774.3,245.34 779.93,242.33 783.26,234.62 792.55,226.92 803.83,223.92 804.49,219.56 823.73,208.85 853.23,195.13 871.79,187.43 878.09,188.11 902.94,177.73 916.19,178.41 921.82,174.72 937.06,174.06 940.38,171.38 952.63,169.03 954.95,166.01 969.2,160.98 974.83,161.66 990.06,156.63 1005.63,146.56 1020.86,129.11 1037.41,112.33 1041.38,105.28 1051.65,101.25 1053.31,121.38 1060.59,122.05 1076.47,90.5 1094.02,93.51 1106.91,78.74 1119.49,76.38 1126.1,64.29 1137.01,57.57 1136.68,54.21 1148.58,40.44 1144.6,32.06 1155.84,24.66 1170.39,21.96 1187.25,13.55 1190.9,19.92 1189.59,27.3 1202.5,29.63 1221.02,25.24 1224,29.26 1246.51,33.58 1258.09,31.55 1267.37,36.9 1272.33,35.54 1289.88,43.56 1303.45,44.2 1308.74,39.82 1321.97,40.46 1334.21,38.76" fill="none" stroke="#1e1e1e" stroke-width="1.55" stroke-linecap="round" stroke-linejoin="round"/>
<path d="M526.33,441.95L532.94,449.02L530.23,464.44L522.28,458.71L519.66,449.98L513.7,446.26L522.35,440.93L526.33,441.95Z" fill-rule="evenodd" fill="#4682b4" fill-opacity="0.471"/>
<polyline points="526.33,441.95 532.94,449.02 530.23,464.44 522.28,458.71 519.66,449.98 513.7,446.26 522.35,440.93 526.33,441.95" fill="none" stroke="#1e1e1e" stroke-width="1.55" stroke-linecap="round" stroke-linejoin="round"/>
<path d="M70.17,544.83L75.9,532.8L74.98,521.38L68.76,509.26L66.22,493.14L61.3,484.38L62.36,476.33L47.19,461.46L42.5,467.47L37.91,459.04L31.65,453.63L23.69,451.56L22.08,445.84L29.42,440.19L35.4,439.23L49.76,427.93L54.8,419.58L60.47,416.26L83.07,411.06L92.79,397.71L95.17,389.67L92.61,375.56L98.63,368.56L96.14,345.39L75.76,319.08L75.79,314.72L67.87,309.63L68.27,300.24L78.23,298.63L76.61,293.25L84.6,288.61L78.69,280.51L88.37,271.52L99.98,270.26L103.65,265.93L119.59,262.01L125.28,254L135.92,249.71L142.17,256.79L167.04,255.28L175.01,252.98L184.61,254.72L196.46,268.21L218.66,270.36L230.87,279.83L249.07,285.64L252.4,283.31L256.67,290.38L269.56,296.83L288.79,297.94L299.4,296.32L311.3,303.77L319.27,302.47L318.66,354.8L321.96,358.17L323.55,371.6L321.49,383.67L312.48,395.03L310.42,406.76L315.72,409.81L328,409.2L340.62,406.25L345.31,397.88L350.25,406.63L358.77,427.47L366.72,430.2L364.99,444.95L370.94,450.35L398.49,450.81L406.13,449.17L409.43,453.55L425.72,449.26L427.33,461.34L434.93,467.75L445.87,471.83L450.55,465.47L462.47,471.9L463.84,462.17L474.14,460.54L488.39,466.63L496.39,458.28L498.1,446.54L506.76,436.84L512.05,444.24L510.35,453.63L519.96,457.69L518.93,468.76L525.87,476.84L522.86,483.87L517.53,486.54L518.16,496.27L512.18,497.93L500.18,508.95L495.17,516.98L490.42,541.46L492.39,547.84L482.72,557.53L475.76,553.48L464.19,539.67L456.89,535.95L463.22,530.95L458.95,519.86L439.71,515.08L431.1,508.67L420.82,506.61L399.93,499.13L384.99,497.05L382.36,493.01L373.06,492.3L357.48,487.19L343.2,487.45L333.25,485.05L324.25,492.05L296.36,491.9L288.07,488.84L282.4,493.5L273.1,493.12L264.5,488.37L261.22,481.31L251.59,480.58L240.27,485.88L227.06,474.4L227.09,468.7L219.14,465.29L209.16,468.59L152.51,449.44L136.58,449.34L108.99,455.19L91.02,461.44L82.64,472.45L79.23,485.18L80.81,496.6L80.32,518.4L87.51,534.56L79.77,548.59L70.17,544.83Z" fill-rule="evenodd" fill="#4682b4" fill-opacity="0.471"/>
<polyline points="70.17,544.83 75.9,532.8 74.98,521.38 68.76,509.26 66.22,493.14 61.3,484.38 62.36,476.33 47.19,461.46 42.5,467.47 37.91,459.04 31.65,453.63 23.69,451.56 22.08,445.84 29.42,440.19 35.4,439.23 49.76,427.93 54.8,419.58 60.47,416.26 83.07,411.06 92.79,397.71 95.17,389.67 92.61,375.56 98.63,368.56 96.14,345.39 75.76,319.08 75.79,314.72 67.87,309.63 68.27,300.24 78.23,298.63 76.61,293.25 84.6,288.61 78.69,280.51 88.37,271.52 99.98,270.26 103.65,265.93 119.59,262.01 125.28,254 135.92,249.71 142.17,256.79 167.04,255.28 175.01,252.98 184.61,254.72 196.46,268.21 218.66,270.36 230.87,279.83 249.07,285.64 252.4,283.31 256.67,290.38 269.56,296.83 288.79,297.94 299.4,296.32 311.3,303.77 319.27,302.47 318.66,354.8 321.96,358.17 323.55,371.6 321.49,383.67 312.48,395.03 310.42,406.76 315.72,409.81 328,409.2 340.62,406.25 345.31,397.88 350.25,406.63 358.77,427.47 366.72,430.2 364.99,444.95 370.94,450.35 398.49,450.81 406.13,449.17 409.43,453.55 425.72,449.26 427.33,461.34 434.93,467.75 445.87,471.83 450.55,465.47 462.47,471.9 463.84,462.17 474.14,460.54 488.39,466.63 496.39,458.28 498.1,446.54 506.76,436.84 512.05,444.24 510.35,453.63 519.96,457.69 518.93,468.76 525.87,476.84 522.86,483.87 517.53,486.54 518.16,496.27 512.18,497.93 500.18,508.95 495.17,516.98 490.42,541.46 492.39,547.84 482.72,557.53 475.76,553.48 464.19,539.67 456.89,535.95 463.22,530.95 458.95,519.86 439.71,515.08 431.1,508.67 420.82,506.61 399.93,499.13 384.99,497.05 382.36,493.01 373.06,492.3 357.48,487.19 343.2,487.45 333.25,485.05 324.25,492.05 296.36,491.9 288.07,488.84 282.4,493.5 273.1,493.12 264.5,488.37 261.22,481.31 251.59,480.58 240.27,485.88 227.06,474.4 227.09,468.7 219.14,465.29 209.16,468.59 152.51,449.44 136.58,449.34 108.99,455.19 91.02,461.44 82.64,472.45 79.23,485.18 80.81,496.6 80.32,518.4 87.51,534.56 79.77,548.59 70.17,544.83" fill="none" stroke="#1e1e1e" stroke-width="1.55" stroke-linecap="round" stroke-linejoin="round"/>
<path d="M1566.29,444.6L1559.27,433.22L1557.19,411.76L1552.49,398.69L1547.34,357.11L1537.03,352.8L1537.35,348.1L1531.98,334.03L1536.54,314.21L1547.13,308.8L1545.34,277.27L1558.95,281.58L1597.74,282.07L1608,277.33L1607.64,271.96L1616.24,268.23L1636.79,267.8L1648.32,252.64L1658.24,247.22L1667.86,248.85L1662.48,234.12L1666.99,209.27L1675.91,203.52L1678.52,197.13L1696.44,202.4L1709.78,217.09L1723.08,225.4L1733.44,240.44L1743.1,249.45L1743.46,254.14L1751.46,261.81L1761.74,263.43L1765.77,272.47L1775.72,272.41L1781.08,281.1L1795.09,295.44L1794.82,305.84L1783.92,312.62L1778.02,324.06L1757.85,334.25L1725.48,358.59L1726.2,368.31L1733.22,377.67L1731.93,385.39L1738.3,395.76L1754.95,406.06L1762.98,416.75L1758.04,423.83L1764.69,425.8L1768.42,439.2L1774.1,445.2L1774.13,450.57L1792.2,474.28L1810.54,487.59L1821.23,497.59L1826.01,517.02L1823.73,524.41L1833.38,527.71L1834.42,534.07L1841.78,542.08L1856.68,533.93L1865.64,533.53L1873.96,536.16L1875.55,525.75L1883.48,519.32L1894.11,519.59L1903.39,516.17L1936.35,480.37L1937.72,486.73L1944.06,491.38L1949.1,499.74L1945.83,506.47L1954.84,511.77L1953.87,515.47L1958.96,529.86L1955.35,535.92L1956.07,544.31L1960.8,555.01L1977.18,567.97L1971.9,573.04L1978.94,581.04L1972,586.13L1947.74,585.3L1928.19,593.16L1920.59,600.26L1919.97,605.97L1911.07,617.44L1920.16,632.47L1917.54,638.53L1908.54,635.91L1902.25,639.31L1899.01,652.08L1887.46,664.57L1886.19,673.31L1879.21,674.03L1872.65,687.16L1869.44,704.29L1860.11,702L1850.58,719.51L1844.29,724.25L1838.95,722.27L1823.15,695.53L1818.04,676.44L1804.68,666.46L1802.33,662.44L1789.68,660.84L1785.73,667.24L1783.53,688.06L1799.72,724.87L1789.8,735.67L1782.18,740.08L1775.19,740.79L1770.18,736.12L1760.86,736.85L1737.71,818.86L1736.05,820.54L1716.98,803.54L1701.28,791.88L1693.91,783.53L1691.19,772.8L1686.15,764.78L1686.1,753.7L1677.46,756.77L1673.1,749.07L1658.74,739.42L1655.69,729.03L1638.68,719.05L1642.92,702.25L1634.91,696.25L1633.88,691.22L1619.86,679.88L1619.5,673.84L1600.82,661.85L1606.12,656.12L1606.41,647.73L1596.35,627.99L1588.31,614.94L1584.94,603.88L1568.93,592.21L1562.87,573.45L1558.86,567.76L1559.81,558.36L1551.11,544.31L1552.72,532.22L1559.34,525.48L1569.03,538.86L1577.33,536.81L1586.64,540.46L1599.24,533.69L1614.12,520.87L1617.33,497.71L1609.68,494.39L1597.31,476L1604.62,476.97L1610.24,471.57L1612.84,460.83L1621.85,469.84L1631.79,465.77L1637.4,459.37L1635.36,448.98L1639,446.61L1646.23,432.15L1645.51,421.41L1653.16,423.72L1658.22,439.47L1671.86,445.77L1682.55,458.13L1685.61,472.2L1693.31,483.57L1707.26,485.51L1713.87,479.77L1721.53,483.75L1735.83,487.7L1739.85,494.39L1748.18,499.37L1749.58,511.44L1758.88,510.72L1749.16,496.01L1743.5,493.69L1734.48,483.34L1716.18,476.07L1697.57,474.49L1690.24,468.83L1688.51,456.42L1681.49,446.06L1672.74,424.3L1673.04,417.25L1660.65,396.18L1666.91,386.41L1652.26,376.76L1655.63,386.47L1662.94,389.45L1658,396.86L1664.04,408.91L1666.08,419.63L1662.77,420.99L1651.4,404.27L1647.41,402.28L1634.52,412.41L1636.23,422.8L1627.28,424.86L1623.32,430.58L1616.36,431.62L1610.34,422.93L1624.24,415.14L1628.53,410.09L1624.18,401.72L1629.46,395.32L1622.74,377.91L1618.44,380.95L1618.8,387.99L1625.79,390.98L1624.82,396.35L1612.19,392.72L1612.55,399.43L1605.27,403.16L1603.66,412.89L1598.01,412.58L1591.99,401.87L1583.73,409.29L1576.47,419.06L1573.47,416.38L1572.38,394.25L1565.32,374.15L1560.39,383.9L1568.74,397.62L1568.48,413.39L1576.84,428.45L1571.23,434.18L1566.29,444.6ZM1595.14,581.69L1596.53,595.1L1602.21,602.79L1603.28,616.88L1608.96,624.57L1613.01,637.3L1623.39,651.68L1628.76,663.06L1642.43,671.05L1652.7,663.28L1668.67,665.55L1676.67,669.53L1675.05,676.92L1678.12,692.01L1682.13,695.01L1699.38,686.19L1707.71,690.17L1718.33,685.42L1717.56,667.64L1715.12,646.18L1712.4,634.78L1706.73,631.79L1703.33,617.39L1693.02,616.1L1685.98,605.74L1689.6,598L1688.87,586.26L1686.18,580.23L1672.53,575.27L1651.14,550.89L1643.43,536.17L1636.1,532.18L1628.46,531.88L1626.17,539.27L1631.86,547.97L1633.26,563.39L1628.29,566.44L1614.98,561.47L1607.06,572.24L1602.72,569.91L1595.14,581.69Z" fill-rule="evenodd" fill="#4682b4" fill-opacity="0.471"/>
<polyline points="1566.29,444.6 1559.27,433.22 1557.19,411.76 1552.49,398.69 1547.34,357.11 1537.03,352.8 1537.35,348.1 1531.98,334.03 1536.54,314.21 1547.13,308.8 1545.34,277.27 1558.95,281.58 1597.74,282.07 1608,277.33 1607.64,271.96 1616.24,268.23 1636.79,267.8 1648.32,252.64 1658.24,247.22 1667.86,248.85 1662.48,234.12 1666.99,209.27 1675.91,203.52 1678.52,197.13 1696.44,202.4 1709.78,217.09 1723.08,225.4 1733.44,240.44 1743.1,249.45 1743.46,254.14 1751.46,261.81 1761.74,263.43 1765.77,272.47 1775.72,272.41 1781.08,281.1 1795.09,295.44 1794.82,305.84 1783.92,312.62 1778.02,324.06 1757.85,334.25 1725.48,358.59 1726.2,368.31 1733.22,377.67 1731.93,385.39 1738.3,395.76 1754.95,406.06 1762.98,416.75 1758.04,423.83 1764.69,425.8 1768.42,439.2 1774.1,445.2 1774.13,450.57 1792.2,474.28 1810.54,487.59 1821.23,497.59 1826.01,517.02 1823.73,524.41 1833.38,527.71 1834.42,534.07 1841.78,542.08 1856.68,533.93 1865.64,533.53 1873.96,536.16 1875.55,525.75 1883.48,519.32 1894.11,519.59 1903.39,516.17 1936.35,480.37 1937.72,486.73 1944.06,491.38 1949.1,499.74 1945.83,506.47 1954.84,511.77 1953.87,515.47 1958.96,529.86 1955.35,535.92 1956.07,544.31 1960.8,555.01 1977.18,567.97 1971.9,573.04 1978.94,581.04 1972,586.13 1947.74,585.3 1928.19,593.16 1920.59,600.26 1919.97,605.97 1911.07,617.44 1920.16,632.47 1917.54,638.53 1908.54,635.91 1902.25,639.31 1899.01,652.08 1887.46,664.57 1886.19,673.31 1879.21,674.03 1872.65,687.16 1869.44,704.29 1860.11,702 1850.58,719.51 1844.29,724.25 1838.95,722.27 1823.15,695.53 1818.04,676.44 1804.68,666.46 1802.33,662.44 1789.68,660.84 1785.73,667.24 1783.53,688.06 1799.72,724.87 1789.8,735.67 1782.18,740.08 1775.19,740.79 1770.18,736.12 1760.86,736.85 1737.71,818.86 1736.05,820.54 1716.98,803.54 1701.28,791.88 1693.91,783.53 1691.19,772.8 1686.15,764.78 1686.1,753.7 1677.46,756.77 1673.1,749.07 1658.74,739.42 1655.69,729.03 1638.68,719.05 1642.92,702.25 1634.91,696.25 1633.88,691.22 1619.86,679.88 1619.5,673.84 1600.82,661.85 1606.12,656.12 1606.41,647.73 1596.35,627.99 1588.31,614.94 1584.94,603.88 1568.93,592.21 1562.87,573.45 1558.86,567.76 1559.81,558.36 1551.11,544.31 1552.72,532.22 1559.34,525.48 1569.03,538.86 1577.33,536.81 1586.64,540.46 1599.24,533.69 1614.12,520.87 1617.33,497.71 1609.68,494.39 1597.31,476 1604.62,476.97 1610.24,471.57 1612.84,460.83 1621.85,469.84 1631.79,465.77 1637.4,459.37 1635.36,448.98 1639,446.61 1646.23,432.15 1645.51,421.41 1653.16,423.72 1658.22,439.47 1671.86,445.77 1682.55,458.13 1685.61,472.2 1693.31,483.57 1707.26,485.51 1713.87,479.77 1721.53,483.75 1735.83,487.7 1739.85,494.39 1748.18,499.37 1749.58,511.44 1758.88,510.72 1749.16,496.01 1743.5,493.69 1734.48,483.34 1716.18,476.07 1697.57,474.49 1690.24,468.83 1688.51,456.42 1681.49,446.06 1672.74,424.3 1673.04,417.25 1660.65,396.18 1666.91,386.41 1652.26,376.76 1655.63,386.47 1662.94,389.45 1658,396.86 1664.04,408.91 1666.08,419.63 1662.77,420.99 1651.4,404.27 1647.41,402.28 1634.52,412.41 1636.23,422.8 1627.28,424.86 1623.32,430.58 1616.36,431.62 1610.34,422.93 1624.24,415.14 1628.53,410.09 1624.18,401.72 1629.46,395.32 1622.74,377.91 1618.44,380.95 1618.8,387.99 1625.79,390.98 1624.82,396.35 1612.19,392.72 1612.55,399.43 1605.27,403.16 1603.66,412.89 1598.01,412.58 1591.99,401.87 1583.73,409.29 1576.47,419.06 1573.47,416.38 1572.38,394.25 1565.32,374.15 1560.39,383.9 1568.74,397.62 1568.48,413.39 1576.84,428.45 1571.23,434.18 1566.29,444.6" fill="none" stroke="#1e1e1e" stroke-width="1.55" stroke-linecap="round" stroke-linejoin="round"/>
<polyline points="1595.14,581.69 1596.53,595.1 1602.21,602.79 1603.28,616.88 1608.96,624.57 1613.01,637.3 1623.39,651.68 1628.76,663.06 1642.43,671.05 1652.7,663.28 1668.67,665.55 1676.67,669.53 1675.05,676.92 1678.12,692.01 1682.13,695.01 1699.38,686.19 1707.71,690.17 1718.33,685.42 1717.56,667.64 1715.12,646.18 1712.4,634.78 1706.73,631.79 1703.33,617.39 1693.02,616.1 1685.98,605.74 1689.6,598 1688.87,586.26 1686.18,580.23 1672.53,575.27 1651.14,550.89 1643.43,536.17 1636.1,532.18 1628.46,531.88 1626.17,539.27 1631.86,547.97 1633.26,563.39 1628.29,566.44 1614.98,561.47 1607.06,572.24 1602.72,569.91 1595.14,581.69" fill="none" stroke="#1e1e1e" stroke-width="1.55" stroke-linecap="round" stroke-linejoin="round"/>
<path d="M807.37,515.47L816,518.84L826.3,515.16L842.24,515.86L851.53,522.91L856.18,522.25L876.44,531.33L880.41,544.41L887.38,554.49L892.03,554.83L906.31,562.89L900.98,577.31L885.69,583.34L877.72,579.3L868.08,584.33L861.09,591.37L854.75,612.16L842.45,615.17L837.13,621.2L841.43,637.64L846.41,641.01L849.39,653.42L843.39,666.17L829.09,670.17L811.43,693.3L795.43,716.09L788.45,714.07L782.81,705.67L768.51,705.31L739.32,663.65L731.04,648.87L725.38,649.19L717.75,644.15L715.44,635.42L720.79,620.33L721.83,599.53L726.51,586.46L736.15,586.81L737.82,580.44L746.81,572.74L754.49,555.98L746.2,543.55L763.83,534.86L775.47,527.16L781.45,526.17L781.13,519.46L789.11,513.43L801.06,517.81L807.37,515.47Z" fill-rule="evenodd" fill="#4682b4" fill-opacity="0.471"/>
<polyline points="807.37,515.47 816,518.84 826.3,515.16 842.24,515.86 851.53,522.91 856.18,522.25 876.44,531.33 880.41,544.41 887.38,554.49 892.03,554.83 906.31,562.89 900.98,577.31 885.69,583.34 877.72,579.3 868.08,584.33 861.09,591.37 854.75,612.16 842.45,615.17 837.13,621.2 841.43,637.64 846.41,641.01 849.39,653.42 843.39,666.17 829.09,670.17 811.43,693.3 795.43,716.09 788.45,714.07 782.81,705.67 768.51,705.31 739.32,663.65 731.04,648.87 725.38,649.19 717.75,644.15 715.44,635.42 720.79,620.33 721.83,599.53 726.51,586.46 736.15,586.81 737.82,580.44 746.81,572.74 754.49,555.98 746.2,543.55 763.83,534.86 775.47,527.16 781.45,526.17 781.13,519.46 789.11,513.43 801.06,517.81 807.37,515.47" fill="none" stroke="#1e1e1e" stroke-width="1.55" stroke-linecap="round" stroke-linejoin="round"/>
<path d="M1034.59,688.74L1034.92,684.37L1035.25,688.74L1034.59,688.74Z" fill-rule="evenodd" fill="#4682b4" fill-opacity="0.471"/>
<polyline points="1034.59,688.74 1034.92,684.37 1035.25,688.74 1034.59,688.74" fill="none" stroke="#1e1e1e" stroke-width="1.55" stroke-linecap="round" stroke-linejoin="round"/>
<path d="M795.43,716.09L811.43,693.3L829.09,670.17L843.39,666.17L849.39,653.42L846.41,641.01L841.43,637.64L837.13,621.2L842.45,615.17L854.75,612.16L861.09,591.37L868.08,584.33L877.72,579.3L885.69,583.34L900.98,577.31L906.31,562.89L914.61,561.89L922.25,572.96L930.54,595.78L939.84,606.86L960.11,619.95L969.42,633.04L990.03,650.15L993.68,657.87L1004.99,669.28L1009.98,677.33L1016.96,681.36L1023.95,697.46L1025.94,706.52L1033.26,715.24L1034.26,720.28L1035.26,720.95L1034.6,741.08L1024.62,746.79L1012.98,746.79L1003.33,753.5L991.35,752.83L978.04,759.2L971.72,752.83L962.73,756.85L947.43,755.5L930.46,759.86L920.8,766.56L913.14,776.96L917.8,780.99L920.46,790.39L904.48,794.74L901.48,802.12L894.15,806.47L889.81,816.2L866.18,813.16L859.19,817.51L846.21,815.82L841.87,820.18L830.89,818.82L829.25,797.68L818.6,794.98L811.63,786.58L813.64,774.51L806.34,763.42L795.69,760.39L799.03,752L797.71,743.95L792.4,739.58L791.41,730.85L795.43,716.09Z" fill-rule="evenodd" fill="#4682b4" fill-opacity="0.471"/>
<polyline points="795.43,716.09 811.43,693.3 829.09,670.17 843.39,666.17 849.39,653.42 846.41,641.01 841.43,637.64 837.13,621.2 842.45,615.17 854.75,612.16 861.09,591.37 868.08,584.33 877.72,579.3 885.69,583.34 900.98,577.31 906.31,562.89 914.61,561.89 922.25,572.96 930.54,595.78 939.84,606.86 960.11,619.95 969.42,633.04 990.03,650.15 993.68,657.87 1004.99,669.28 1009.98,677.33 1016.96,681.36 1023.95,697.46 1025.94,706.52 1033.26,715.24 1034.26,720.28 1035.26,720.95 1034.6,741.08 1024.62,746.79 1012.98,746.79 1003.33,753.5 991.35,752.83 978.04,759.2 971.72,752.83 962.73,756.85 947.43,755.5 930.46,759.86 920.8,766.56 913.14,776.96 917.8,780.99 920.46,790.39 904.48,794.74 901.48,802.12 894.15,806.47 889.81,816.2 866.18,813.16 859.19,817.51 846.21,815.82 841.87,820.18 830.89,818.82 829.25,797.68 818.6,794.98 811.63,786.58 813.64,774.51 806.34,763.42 795.69,760.39 799.03,752 797.71,743.95 792.4,739.58 791.41,730.85 795.43,716.09" fill="none" stroke="#1e1e1e" stroke-width="1.55" stroke-linecap="round" stroke-linejoin="round"/>
<path d="M1319.09,481.34L1325.69,467.57L1323.69,462.88L1330.64,455.14L1343.97,473.56L1333.02,475.94L1334.03,481.3L1327.74,491.72L1319.09,481.34Z" fill-rule="evenodd" fill="#4682b4" fill-opacity="0.471"/>
<polyline points="1319.09,481.34 1325.69,467.57 1323.69,462.88 1330.64,455.14 1343.97,473.56 1333.02,475.94 1334.03,481.3 1327.74,491.72 1319.09,481.34" fill="none" stroke="#1e1e1e" stroke-width="1.55" stroke-linecap="round" stroke-linejoin="round"/>
<path d="M1325.92,426.3L1325.9,418.58L1339.86,428.28L1336.56,434.66L1325.92,426.3Z" fill-rule="evenodd" fill="#4682b4" fill-opacity="0.471"/>
<polyline points="1325.92,426.3 1325.9,418.58 1339.86,428.28 1336.56,434.66 1325.92,426.3" fill="none" stroke="#1e1e1e" stroke-width="1.55" stroke-linecap="round" stroke-linejoin="round"/>
<path d="M1399.12,484.81L1392.14,482.82L1392.12,477.11L1389.45,472.76L1392.76,470.07L1390.09,464.03L1386.44,465.72L1378.8,462.39L1376.46,457.7L1382.42,451.31L1383.06,443.59L1376.4,438.24L1380.03,430.85L1375,412.08L1393.24,406.66L1403.18,401.93L1412.49,410.29L1415.19,422.36L1420.51,425.02L1417.93,450.19L1418.94,453.88L1410.33,461.62L1400.04,460.98L1392.75,466.04L1393.76,469.06L1392.44,472.42L1399.12,484.81Z" fill-rule="evenodd" fill="#4682b4" fill-opacity="0.471"/>
<polyline points="1399.12,484.81 1392.14,482.82 1392.12,477.11 1389.45,472.76 1392.76,470.07 1390.09,464.03 1386.44,465.72 1378.8,462.39 1376.46,457.7 1382.42,451.31 1383.06,443.59 1376.4,438.24 1380.03,430.85 1375,412.08 1393.24,406.66 1403.18,401.93 1412.49,410.29 1415.19,422.36 1420.51,425.02 1417.93,450.19 1418.94,453.88 1410.33,461.62 1400.04,460.98 1392.75,466.04 1393.76,469.06 1392.44,472.42 1399.12,484.81" fill="none" stroke="#1e1e1e" stroke-width="1.55" stroke-linecap="round" stroke-linejoin="round"/>
<path d="M1134.5,188.77L1142.44,176.34L1147.07,173.66L1152.02,156.87L1159.97,158.21L1164.27,152.16L1175.2,151.14L1171.87,134.7L1174.5,120.27L1182.76,109.86L1178.45,104.5L1188.33,70.93L1208.51,64.86L1209.52,71.9L1217.46,69.88L1221.75,64.83L1234.99,64.81L1230.37,72.54L1231.72,85.29L1253.58,92.29L1258.52,83.56L1269.45,85.21L1284.06,104.64L1288.39,115.71L1274.84,126.81L1306.62,126.74L1316.55,122.35L1324.49,122L1336.44,131.7L1345.39,133.69L1352,131.32L1369.22,131.27L1373.18,125.89L1383.43,121.84L1395.02,121.13L1414.2,113.02L1422.79,107.96L1438.67,103.88L1446.3,108.88L1455.9,108.18L1469.82,113.16L1479.13,121.85L1488.41,125.17L1497.67,121.78L1516.88,123.38L1516.85,116.34L1527.45,117.64L1546.07,136.35L1539.82,145.44L1544.15,151.46L1553.4,146.05L1560.38,151.39L1569.96,145.98L1579.23,144.93L1588.55,154.95L1591.57,164.67L1602.5,164.62L1616.37,154.83L1615.77,168.58L1633.99,168.83L1639.32,174.51L1656.92,182.81L1663.91,190.16L1670.85,187.44L1678.52,197.13L1675.91,203.52L1666.99,209.27L1662.48,234.12L1667.86,248.85L1658.24,247.22L1648.32,252.64L1636.79,267.8L1616.24,268.23L1607.64,271.96L1608,277.33L1597.74,282.07L1558.95,281.58L1545.34,277.27L1547.13,308.8L1536.54,314.21L1531.98,334.03L1537.35,348.1L1537.03,352.8L1547.34,357.11L1552.49,398.69L1557.19,411.76L1559.27,433.22L1566.29,444.6L1558.99,443.96L1552.3,431.91L1548.97,429.57L1545.9,411.14L1538.95,413.85L1529.95,404.83L1533.86,386.69L1518.84,364.61L1525.12,359.22L1524.4,345.13L1516.1,344.16L1506.8,339.5L1497.81,330.47L1491.86,335.53L1485.51,324.48L1477.22,323.17L1471.9,318.83L1472.86,309.43L1464.57,309.46L1452.28,304.81L1447.96,300.8L1447.59,290.06L1441.94,286.39L1440.27,282.37L1435.95,279.7L1425.02,283.09L1421.39,288.81L1411.42,281.79L1402.4,258.67L1395.41,250.64L1385.47,248.66L1368.21,239.98L1339.34,228.99L1334.05,230.68L1329.39,223.65L1310.49,221.35L1293.26,221.05L1266.74,217.42L1236.26,219.82L1203.13,224.58L1195.2,236L1191.88,235L1184.94,244.4L1178.97,243.74L1171.99,229.32L1161.04,218.6L1152.42,212.9L1143.46,203.19L1134.5,188.77Z" fill-rule="evenodd" fill="#4682b4" fill-opacity="0.471"/>
<polyline points="1134.5,188.77 1142.44,176.34 1147.07,173.66 1152.02,156.87 1159.97,158.21 1164.27,152.16 1175.2,151.14 1171.87,134.7 1174.5,120.27 1182.76,109.86 1178.45,104.5 1188.33,70.93 1208.51,64.86 1209.52,71.9 1217.46,69.88 1221.75,64.83 1234.99,64.81 1230.37,72.54 1231.72,85.29 1253.58,92.29 1258.52,83.56 1269.45,85.21 1284.06,104.64 1288.39,115.71 1274.84,126.81 1306.62,126.74 1316.55,122.35 1324.49,122 1336.44,131.7 1345.39,133.69 1352,131.32 1369.22,131.27 1373.18,125.89 1383.43,121.84 1395.02,121.13 1414.2,113.02 1422.79,107.96 1438.67,103.88 1446.3,108.88 1455.9,108.18 1469.82,113.16 1479.13,121.85 1488.41,125.17 1497.67,121.78 1516.88,123.38 1516.85,116.34 1527.45,117.64 1546.07,136.35 1539.82,145.44 1544.15,151.46 1553.4,146.05 1560.38,151.39 1569.96,145.98 1579.23,144.93 1588.55,154.95 1591.57,164.67 1602.5,164.62 1616.37,154.83 1615.77,168.58 1633.99,168.83 1639.32,174.51 1656.92,182.81 1663.91,190.16 1670.85,187.44 1678.52,197.13 1675.91,203.52 1666.99,209.27 1662.48,234.12 1667.86,248.85 1658.24,247.22 1648.32,252.64 1636.79,267.8 1616.24,268.23 1607.64,271.96 1608,277.33 1597.74,282.07 1558.95,281.58 1545.34,277.27 1547.13,308.8 1536.54,314.21 1531.98,334.03 1537.35,348.1 1537.03,352.8 1547.34,357.11 1552.49,398.69 1557.19,411.76 1559.27,433.22 1566.29,444.6 1558.99,443.96 1552.3,431.91 1548.97,429.57 1545.9,411.14 1538.95,413.85 1529.95,404.83 1533.86,386.69 1518.84,364.61 1525.12,359.22 1524.4,345.13 1516.1,344.16 1506.8,339.5 1497.81,330.47 1491.86,335.53 1485.51,324.48 1477.22,323.17 1471.9,318.83 1472.86,309.43 1464.57,309.46 1452.28,304.81 1447.96,300.8 1447.59,290.06 1441.94,286.39 1440.27,282.37 1435.95,279.7 1425.02,283.09 1421.39,288.81 1411.42,281.79 1402.4,258.67 1395.41,250.64 1385.47,248.66 1368.21,239.98 1339.34,228.99 1334.05,230.68 1329.39,223.65 1310.49,221.35 1293.26,221.05 1266.74,217.42 1236.26,219.82 1203.13,224.58 1195.2,236 1191.88,235 1184.94,244.4 1178.97,243.74 1171.99,229.32 1161.04,218.6 1152.42,212.9 1143.46,203.19 1134.5,188.77" fill="none" stroke="#1e1e1e" stroke-width="1.55" stroke-linecap="round" stroke-linejoin="round"/>
<path d="M656.9,648.36L661.24,641.33L667.21,646.37L668.52,653.09L661.54,655.42L656.9,648.36Z" fill-rule="evenodd" fill="#4682b4" fill-opacity="0.471"/>
<polyline points="656.9,648.36 661.24,641.33 667.21,646.37 668.52,653.09 661.54,655.42 656.9,648.36" fill="none" stroke="#1e1e1e" stroke-width="1.55" stroke-linecap="round" stroke-linejoin="round"/>
<path d="M435.76,814.02L427.81,804.59L435.16,798.24L446.47,800.64L435.76,814.02Z" fill-rule="evenodd" fill="#4682b4" fill-opacity="0.471"/>
<polyline points="435.76,814.02 427.81,804.59 435.16,798.24 446.47,800.64 435.76,814.02" fill="none" stroke="#1e1e1e" stroke-width="1.55" stroke-linecap="round" stroke-linejoin="round"/>
<path d="M671.69,717.52L660.39,713.13L653.38,719.82L640.72,727.17L640.38,731.19L629.73,733.51L625.1,723.43L630.76,720.09L645.74,718.12L652.42,708.41L670.73,701.75L687.01,706.48L683.34,714.19L675.01,719.54L671.69,717.52Z" fill-rule="evenodd" fill="#4682b4" fill-opacity="0.471"/>
<polyline points="671.69,717.52 660.39,713.13 653.38,719.82 640.72,727.17 640.38,731.19 629.73,733.51 625.1,723.43 630.76,720.09 645.74,718.12 652.42,708.41 670.73,701.75 687.01,706.48 683.34,714.19 675.01,719.54 671.69,717.52" fill="none" stroke="#1e1e1e" stroke-width="1.55" stroke-linecap="round" stroke-linejoin="round"/>
<path d="M411.48,734.05L409.85,726.66L416.86,721.32L422.9,709.61L422.6,703.23L427.95,697.55L435.27,695.9L441.63,686.87L459.6,684.6L461.51,703.4L467.12,715.5L475.77,713.86L477.4,724.26L465.06,730.25L460.33,748.35L468.62,755.77L469.59,762.49L480.55,766.89L493.2,765.26L501.48,776.03L501.79,783.08L487.78,789.74L471.17,782.29L449.22,778.17L443.91,775.13L432.99,760.65L415.09,746.15L411.48,734.05Z" fill-rule="evenodd" fill="#4682b4" fill-opacity="0.471"/>
<polyline points="411.48,734.05 409.85,726.66 416.86,721.32 422.9,709.61 422.6,703.23 427.95,697.55 435.27,695.9 441.63,686.87 459.6,684.6 461.51,703.4 467.12,715.5 475.77,713.86 477.4,724.26 465.06,730.25 460.33,748.35 468.62,755.77 469.59,762.49 480.55,766.89 493.2,765.26 501.48,776.03 501.79,783.08 487.78,789.74 471.17,782.29 449.22,778.17 443.91,775.13 432.99,760.65 415.09,746.15 411.48,734.05" fill="none" stroke="#1e1e1e" stroke-width="1.55" stroke-linecap="round" stroke-linejoin="round"/>
<path d="M746.42,264.08L745.07,274.81L747.05,279.51L759.63,290.27L780.84,297.36L784.14,304.41L794.4,316.5L782.78,324.54L786.08,335.28L792.37,338.98L792.7,345.69L785.06,350.71L783.05,360.1L778.4,363.11L774.07,374.18L764.45,372.15L757.81,378.84L767.09,384.56L775.36,394.64L776.68,402.36L783.96,410.09L784.28,418.48L794.54,435.94L793.87,443.66L800.83,449.03L801.14,461.78L797.14,470.17L798.79,477.55L794.79,490.63L787.47,499.67L795.76,508.07L807.37,515.47L801.06,517.81L789.11,513.43L781.13,519.46L781.45,526.17L775.47,527.16L763.83,534.86L746.2,543.55L754.49,555.98L746.81,572.74L737.82,580.44L736.15,586.81L726.51,586.46L721.83,599.53L720.79,620.33L715.44,635.42L717.75,644.15L725.38,649.19L731.04,648.87L739.32,663.65L768.51,705.31L782.81,705.67L788.45,714.07L795.43,716.09L791.41,730.85L792.4,739.58L797.71,743.95L799.03,752L795.69,760.39L806.34,763.42L813.64,774.51L811.63,786.58L818.6,794.98L829.25,797.68L830.89,818.82L812.91,822.15L806.58,826.17L796.59,827.5L775.95,824.44L769.29,827.79L758.97,825.09L749.65,825.07L744.65,828.41L738.66,826.39L736.02,816.99L722.38,810.25L728.39,803.55L728.75,791.47L738.41,786.79L734.77,773.03L726.14,762.27L724.82,757.57L730.49,750.54L718.22,732.73L711.58,728.35L716.58,722.66L718.93,711.59L708.98,699.49L709,691.77L701.03,684.04L686.09,674.94L688.45,661.19L685.81,654.14L691.15,645.43L680.84,645.74L672.55,637.66L673.9,630.62L681.9,620.24L680.95,603.46L665.96,613.83L656.33,613.47L639.41,602.35L636.39,611.4L645.66,625.18L642.95,643.63L636.62,648.64L627.97,651.64L637.57,663.41L633.22,673.46L634.85,685.21L626.18,692.9L622.54,687.52L608.26,682.78L603.95,675.72L596.3,676.71L574.38,670.26L569.39,670.58L547.81,658.76L541.16,660.42L525.55,656.34L530.22,650.65L537.54,649.67L536.24,641.95L521.95,639.21L514.62,643.21L510.68,629.77L506.7,629.09L511.07,615.01L514.42,609.32L505.46,604.59L501.51,594.51L496.87,593.15L495.58,581.4L490.94,579.71L486.99,569.29L475.76,553.48L482.72,557.53L492.39,547.84L490.42,541.46L495.17,516.98L500.18,508.95L512.18,497.93L518.16,496.27L517.53,486.54L522.86,483.87L525.87,476.84L531.87,470.49L530.23,464.44L532.94,449.02L526.33,441.95L533.68,427.88L547.29,427.6L554.58,430.31L556.6,421.59L568.22,421.63L570.93,404.19L582.23,400.54L588.89,391.17L596.52,391.86L606.15,388.87L612.76,398.29L607.78,401.29L615.39,408.69L621.07,394.62L624.68,409.73L633.3,410.42L646.58,408.78L649.22,415.84L657.18,416.19L649.91,405.1L654.25,395.38L649.31,379.6L642.02,376.56L632.76,365.8L632.8,354.39L628.85,341.63L630.89,323.86L628.93,315.13L631.3,296.35L636.27,297.7L644.24,294.37L653.85,294.4L665.47,290.4L680.06,289.43L694.67,282.09L705.94,281.78L723.2,271.08L733.14,271.1L738.46,264.73L746.42,264.08Z" fill-rule="evenodd" fill="#4682b4" fill-opacity="0.471"/>
<polyline points="746.42,264.08 745.07,274.81 747.05,279.51 759.63,290.27 780.84,297.36 784.14,304.41 794.4,316.5 782.78,324.54 786.08,335.28 792.37,338.98 792.7,345.69 785.06,350.71 783.05,360.1 778.4,363.11 774.07,374.18 764.45,372.15 757.81,378.84 767.09,384.56 775.36,394.64 776.68,402.36 783.96,410.09 784.28,418.48 794.54,435.94 793.87,443.66 800.83,449.03 801.14,461.78 797.14,470.17 798.79,477.55 794.79,490.63 787.47,499.67 795.76,508.07 807.37,515.47 801.06,517.81 789.11,513.43 781.13,519.46 781.45,526.17 775.47,527.16 763.83,534.86 746.2,543.55 754.49,555.98 746.81,572.74 737.82,580.44 736.15,586.81 726.51,586.46 721.83,599.53 720.79,620.33 715.44,635.42 717.75,644.15 725.38,649.19 731.04,648.87 739.32,663.65 768.51,705.31 782.81,705.67 788.45,714.07 795.43,716.09 791.41,730.85 792.4,739.58 797.71,743.95 799.03,752 795.69,760.39 806.34,763.42 813.64,774.51 811.63,786.58 818.6,794.98 829.25,797.68 830.89,818.82 812.91,822.15 806.58,826.17 796.59,827.5 775.95,824.44 769.29,827.79 758.97,825.09 749.65,825.07 744.65,828.41 738.66,826.39 736.02,816.99 722.38,810.25 728.39,803.55 728.75,791.47 738.41,786.79 734.77,773.03 726.14,762.27 724.82,757.57 730.49,750.54 718.22,732.73 711.58,728.35 716.58,722.66 718.93,711.59 708.98,699.49 709,691.77 701.03,684.04 686.09,674.94 688.45,661.19 685.81,654.14 691.15,645.43 680.84,645.74 672.55,637.66 673.9,630.62 681.9,620.24 680.95,603.46 665.96,613.83 656.33,613.47 639.41,602.35 636.39,611.4 645.66,625.18 642.95,643.63 636.62,648.64 627.97,651.64 637.57,663.41 633.22,673.46 634.85,685.21 626.18,692.9 622.54,687.52 608.26,682.78 603.95,675.72 596.3,676.71 574.38,670.26 569.39,670.58 547.81,658.76 541.16,660.42 525.55,656.34 530.22,650.65 537.54,649.67 536.24,641.95 521.95,639.21 514.62,643.21 510.68,629.77 506.7,629.09 511.07,615.01 514.42,609.32 505.46,604.59 501.51,594.51 496.87,593.15 495.58,581.4 490.94,579.71 486.99,569.29 475.76,553.48 482.72,557.53 492.39,547.84 490.42,541.46 495.17,516.98 500.18,508.95 512.18,497.93 518.16,496.27 517.53,486.54 522.86,483.87 525.87,476.84 531.87,470.49 530.23,464.44 532.94,449.02 526.33,441.95 533.68,427.88 547.29,427.6 554.58,430.31 556.6,421.59 568.22,421.63 570.93,404.19 582.23,400.54 588.89,391.17 596.52,391.86 606.15,388.87 612.76,398.29 607.78,401.29 615.39,408.69 621.07,394.62 624.68,409.73 633.3,410.42 646.58,408.78 649.22,415.84 657.18,416.19 649.91,405.1 654.25,395.38 649.31,379.6 642.02,376.56 632.76,365.8 632.8,354.39 628.85,341.63 630.89,323.86 628.93,315.13 631.3,296.35 636.27,297.7 644.24,294.37 653.85,294.4 665.47,290.4 680.06,289.43 694.67,282.09 705.94,281.78 723.2,271.08 733.14,271.1 738.46,264.73 746.42,264.08" fill="none" stroke="#1e1e1e" stroke-width="1.55" stroke-linecap="round" stroke-linejoin="round"/>
<path d="M1595.14,581.69L1602.72,569.91L1607.06,572.24L1614.98,561.47L1628.29,566.44L1633.26,563.39L1631.86,547.97L1626.17,539.27L1628.46,531.88L1636.1,532.18L1643.43,536.17L1651.14,550.89L1672.53,575.27L1686.18,580.23L1688.87,586.26L1689.6,598L1685.98,605.74L1693.02,616.1L1703.33,617.39L1706.73,631.79L1712.4,634.78L1715.12,646.18L1717.56,667.64L1718.33,685.42L1707.71,690.17L1699.38,686.19L1682.13,695.01L1678.12,692.01L1675.05,676.92L1676.67,669.53L1668.67,665.55L1652.7,663.28L1642.43,671.05L1628.76,663.06L1623.39,651.68L1613.01,637.3L1608.96,624.57L1603.28,616.88L1602.21,602.79L1596.53,595.1L1595.14,581.69Z" fill-rule="evenodd" fill="#4682b4" fill-opacity="0.471"/>
<polyline points="1595.14,581.69 1602.72,569.91 1607.06,572.24 1614.98,561.47 1628.29,566.44 1633.26,563.39 1631.86,547.97 1626.17,539.27 1628.46,531.88 1636.1,532.18 1643.43,536.17 1651.14,550.89 1672.53,575.27 1686.18,580.23 1688.87,586.26 1689.6,598 1685.98,605.74 1693.02,616.1 1703.33,617.39 1706.73,631.79 1712.4,634.78 1715.12,646.18 1717.56,667.64 1718.33,685.42 1707.71,690.17 1699.38,686.19 1682.13,695.01 1678.12,692.01 1675.05,676.92 1676.67,669.53 1668.67,665.55 1652.7,663.28 1642.43,671.05 1628.76,663.06 1623.39,651.68 1613.01,637.3 1608.96,624.57 1603.28,616.88 1602.21,602.79 1596.53,595.1 1595.14,581.69" fill="none" stroke="#1e1e1e" stroke-width="1.55" stroke-linecap="round" stroke-linejoin="round"/>
<path d="M1794.82,305.84L1799.49,310.18L1810.1,310.45L1822.09,318.42L1828.14,330.13L1837.47,338.12L1842.51,347.48L1843.28,363.58L1852.26,367.21L1857.28,373.55L1865.55,371.15L1882.17,374.39L1881.68,400.23L1893.62,399.48L1898.63,403.8L1902.68,414.51L1912.74,428.87L1911.16,439.95L1914.49,442.28L1912.57,452.36L1914.95,459.38L1926.31,470.04L1931.27,467.32L1936.63,473.66L1936.35,480.37L1903.39,516.17L1894.11,519.59L1883.48,519.32L1875.55,525.75L1873.96,536.16L1865.64,533.53L1856.68,533.93L1841.78,542.08L1834.42,534.07L1833.38,527.71L1823.73,524.41L1826.01,517.02L1821.23,497.59L1810.54,487.59L1792.2,474.28L1774.13,450.57L1774.1,445.2L1768.42,439.2L1764.69,425.8L1758.04,423.83L1762.98,416.75L1754.95,406.06L1738.3,395.76L1731.93,385.39L1733.22,377.67L1726.2,368.31L1725.48,358.59L1757.85,334.25L1778.02,324.06L1783.92,312.62L1794.82,305.84Z" fill-rule="evenodd" fill="#4682b4" fill-opacity="0.471"/>
<polyline points="1794.82,305.84 1799.49,310.18 1810.1,310.45 1822.09,318.42 1828.14,330.13 1837.47,338.12 1842.51,347.48 1843.28,363.58 1852.26,367.21 1857.28,373.55 1865.55,371.15 1882.17,374.39 1881.68,400.23 1893.62,399.48 1898.63,403.8 1902.68,414.51 1912.74,428.87 1911.16,439.95 1914.49,442.28 1912.57,452.36 1914.95,459.38 1926.31,470.04 1931.27,467.32 1936.63,473.66 1936.35,480.37 1903.39,516.17 1894.11,519.59 1883.48,519.32 1875.55,525.75 1873.96,536.16 1865.64,533.53 1856.68,533.93 1841.78,542.08 1834.42,534.07 1833.38,527.71 1823.73,524.41 1826.01,517.02 1821.23,497.59 1810.54,487.59 1792.2,474.28 1774.13,450.57 1774.1,445.2 1768.42,439.2 1764.69,425.8 1758.04,423.83 1762.98,416.75 1754.95,406.06 1738.3,395.76 1731.93,385.39 1733.22,377.67 1726.2,368.31 1725.48,358.59 1757.85,334.25 1778.02,324.06 1783.92,312.62 1794.82,305.84" fill="none" stroke="#1e1e1e" stroke-width="1.55" stroke-linecap="round" stroke-linejoin="round"/>
<path d="M1907.75,332.61L1908.16,343.68L1899.85,340.39L1894.24,345.79L1898.61,354.15L1898.01,362.54L1892.03,361.58L1882.17,374.39L1865.55,371.15L1857.28,373.55L1852.26,367.21L1843.28,363.58L1842.51,347.48L1837.47,338.12L1828.14,330.13L1822.09,318.42L1810.1,310.45L1799.49,310.18L1794.82,305.84L1795.09,295.44L1781.08,281.1L1775.72,272.41L1765.77,272.47L1761.74,263.43L1751.46,261.81L1743.46,254.14L1743.1,249.45L1733.44,240.44L1723.08,225.4L1709.78,217.09L1696.44,202.4L1678.52,197.13L1670.85,187.44L1663.91,190.16L1656.92,182.81L1639.32,174.51L1633.99,168.83L1615.77,168.58L1616.37,154.83L1602.5,164.62L1591.57,164.67L1588.55,154.95L1579.23,144.93L1569.96,145.98L1560.38,151.39L1553.4,146.05L1544.15,151.46L1539.82,145.44L1546.07,136.35L1527.45,117.64L1516.85,116.34L1516.88,123.38L1497.67,121.78L1488.41,125.17L1479.13,121.85L1469.82,113.16L1455.9,108.18L1446.3,108.88L1438.67,103.88L1422.79,107.96L1414.2,113.02L1395.02,121.13L1383.43,121.84L1373.18,125.89L1369.22,131.27L1352,131.32L1345.39,133.69L1336.44,131.7L1324.49,122L1316.55,122.35L1306.62,126.74L1274.84,126.81L1288.39,115.71L1303.26,105.94L1315.49,94.5L1321.42,83.42L1334.96,73.32L1339.25,66.93L1334.24,50.5L1334.21,38.76L1354.39,36.02L1357.05,39.37L1376.56,37.3L1366.33,45.38L1350.78,45.76L1346.15,48.12L1340.88,57.86L1342.91,73.97L1348.88,78.98L1355.82,75.27L1367.08,76.92L1369.05,72.89L1378.65,71.85L1390.58,75.84L1394.57,82.54L1402.84,82.18L1408.81,85.18L1418.39,78.44L1424.36,81.78L1456.44,72.61L1458.77,76.96L1476.67,83.61L1479.63,80.24L1499.18,84.87L1507.09,76.78L1521.02,83.77L1531.3,86.42L1536.92,84.72L1553.49,89.01L1556.83,96.04L1571.41,99.67L1578.72,105.34L1587,105.3L1594.97,112.31L1619.52,120.92L1626.17,126.93L1638.42,126.53L1647.71,131.52L1659.98,133.81L1658.68,138.85L1680.22,141.42L1686.55,149.44L1694.19,153.09L1714.83,171.77L1720.85,182.81L1731.84,191.8L1737.18,199.15L1743.08,188.38L1749.43,198.41L1759.41,205.07L1762.12,215.12L1769.77,220.1L1776.13,229.46L1776.85,239.52L1786.85,249.86L1791.23,260.91L1803.88,268.88L1815.91,284.58L1819.49,274.15L1832.18,289.17L1837.84,291.48L1840.56,302.54L1850.16,300.46L1850.9,311.19L1848.63,320.26L1862.95,328.89L1882.9,336.81L1889.87,336.76L1898.79,332.01L1907.75,332.61Z" fill-rule="evenodd" fill="#4682b4" fill-opacity="0.471"/>
<polyline points="1907.75,332.61 1908.16,343.68 1899.85,340.39 1894.24,345.79 1898.61,354.15 1898.01,362.54 1892.03,361.58 1882.17,374.39 1865.55,371.15 1857.28,373.55 1852.26,367.21 1843.28,363.58 1842.51,347.48 1837.47,338.12 1828.14,330.13 1822.09,318.42 1810.1,310.45 1799.49,310.18 1794.82,305.84 1795.09,295.44 1781.08,281.1 1775.72,272.41 1765.77,272.47 1761.74,263.43 1751.46,261.81 1743.46,254.14 1743.1,249.45 1733.44,240.44 1723.08,225.4 1709.78,217.09 1696.44,202.4 1678.52,197.13 1670.85,187.44 1663.91,190.16 1656.92,182.81 1639.32,174.51 1633.99,168.83 1615.77,168.58 1616.37,154.83 1602.5,164.62 1591.57,164.67 1588.55,154.95 1579.23,144.93 1569.96,145.98 1560.38,151.39 1553.4,146.05 1544.15,151.46 1539.82,145.44 1546.07,136.35 1527.45,117.64 1516.85,116.34 1516.88,123.38 1497.67,121.78 1488.41,125.17 1479.13,121.85 1469.82,113.16 1455.9,108.18 1446.3,108.88 1438.67,103.88 1422.79,107.96 1414.2,113.02 1395.02,121.13 1383.43,121.84 1373.18,125.89 1369.22,131.27 1352,131.32 1345.39,133.69 1336.44,131.7 1324.49,122 1316.55,122.35 1306.62,126.74 1274.84,126.81 1288.39,115.71 1303.26,105.94 1315.49,94.5 1321.42,83.42 1334.96,73.32 1339.25,66.93 1334.24,50.5 1334.21,38.76 1354.39,36.02 1357.05,39.37 1376.56,37.3 1366.33,45.38 1350.78,45.76 1346.15,48.12 1340.88,57.86 1342.91,73.97 1348.88,78.98 1355.82,75.27 1367.08,76.92 1369.05,72.89 1378.65,71.85 1390.58,75.84 1394.57,82.54 1402.84,82.18 1408.81,85.18 1418.39,78.44 1424.36,81.78 1456.44,72.61 1458.77,76.96 1476.67,83.61 1479.63,80.24 1499.18,84.87 1507.09,76.78 1521.02,83.77 1531.3,86.42 1536.92,84.72 1553.49,89.01 1556.83,96.04 1571.41,99.67 1578.72,105.34 1587,105.3 1594.97,112.31 1619.52,120.92 1626.17,126.93 1638.42,126.53 1647.71,131.52 1659.98,133.81 1658.68,138.85 1680.22,141.42 1686.55,149.44 1694.19,153.09 1714.83,171.77 1720.85,182.81 1731.84,191.8 1737.18,199.15 1743.08,188.38 1749.43,198.41 1759.41,205.07 1762.12,215.12 1769.77,220.1 1776.13,229.46 1776.85,239.52 1786.85,249.86 1791.23,260.91 1803.88,268.88 1815.91,284.58 1819.49,274.15 1832.18,289.17 1837.84,291.48 1840.56,302.54 1850.16,300.46 1850.9,311.19 1848.63,320.26 1862.95,328.89 1882.9,336.81 1889.87,336.76 1898.79,332.01 1907.75,332.61" fill="none" stroke="#1e1e1e" stroke-width="1.55" stroke-linecap="round" stroke-linejoin="round"/>
<path d="M631.3,296.35L628.93,315.13L630.89,323.86L628.85,341.63L632.8,354.39L632.76,365.8L642.02,376.56L649.31,379.6L654.25,395.38L649.91,405.1L657.18,416.19L649.22,415.84L646.58,408.78L633.3,410.42L624.68,409.73L621.07,394.62L615.39,408.69L607.78,401.29L612.76,398.29L606.15,388.87L596.52,391.86L588.89,391.17L582.23,400.54L570.93,404.19L568.22,421.63L556.6,421.59L554.58,430.31L547.29,427.6L533.68,427.88L526.33,441.95L522.35,440.93L513.7,446.26L519.66,449.98L522.28,458.71L530.23,464.44L531.87,470.49L525.87,476.84L518.93,468.76L519.96,457.69L510.35,453.63L512.05,444.24L506.76,436.84L498.1,446.54L496.39,458.28L488.39,466.63L474.14,460.54L463.84,462.17L462.47,471.9L450.55,465.47L445.87,471.83L434.93,467.75L427.33,461.34L425.72,449.26L409.43,453.55L406.13,449.17L398.49,450.81L370.94,450.35L364.99,444.95L366.72,430.2L358.77,427.47L350.25,406.63L345.31,397.88L340.62,406.25L328,409.2L315.72,409.81L310.42,406.76L312.48,395.03L321.49,383.67L323.55,371.6L321.96,358.17L318.66,354.8L319.27,302.47L311.3,303.77L299.4,296.32L288.79,297.94L269.56,296.83L256.67,290.38L252.4,283.31L255.75,276.28L256.48,264.54L260.81,261.21L255.93,244.75L247.7,235.98L235.12,232.55L234.84,224.83L241.15,222.52L252.17,207.15L253.28,187.36L265.94,175.69L272.2,180.42L269.17,189.13L279.75,193.21L281.38,197.92L269.74,206.24L265.05,215.61L270.96,224.03L276.95,220.71L284.53,227.46L300.41,233.25L306.01,238.65L307.28,249.06L300.32,249.35L298.95,257.4L309.55,258.46L314.48,266.21L322.82,256.86L328.8,254.87L339.06,256.94L339.44,247.88L352.71,246.27L352.36,248.28L351.03,249.62L353.34,252.99L350.02,252.63L347.03,255.3L353.65,256.68L361.31,248.66L360,246.31L366.99,239.97L370.31,239.31L384.18,248.1L391.16,245.79L396.82,240.11L401.17,231.07L407.76,238.48L419.04,236.86L428.64,238.91L436.89,246.66L443.53,243.67L448.55,232.62L443.95,222.2L429.73,217.78L416.86,205.64L413.92,195.9L405.34,187.81L392.45,180.7L396.12,176.69L412.01,178.78L416.01,173.43L400.12,170L398.83,163.28L411.75,163.34L420.96,177.14L427.9,180.19L425.54,189.24L430.78,204.36L451.32,204.12L455.6,210.51L465.85,215.25L467.49,221.63L487.26,247.88L505.75,268.75L523.26,284.25L538.15,293.03L544.79,289.7L562.34,294.46L566.99,291.79L576.27,292.82L584.88,297.88L606.76,298.96L608.76,295.61L622.36,294.31L631.3,296.35Z" fill-rule="evenodd" fill="#4682b4" fill-opacity="0.471"/>
<polyline points="631.3,296.35 628.93,315.13 630.89,323.86 628.85,341.63 632.8,354.39 632.76,365.8 642.02,376.56 649.31,379.6 654.25,395.38 649.91,405.1 657.18,416.19 649.22,415.84 646.58,408.78 633.3,410.42 624.68,409.73 621.07,394.62 615.39,408.69 607.78,401.29 612.76,398.29 606.15,388.87 596.52,391.86 588.89,391.17 582.23,400.54 570.93,404.19 568.22,421.63 556.6,421.59 554.58,430.31 547.29,427.6 533.68,427.88 526.33,441.95 522.35,440.93 513.7,446.26 519.66,449.98 522.28,458.71 530.23,464.44 531.87,470.49 525.87,476.84 518.93,468.76 519.96,457.69 510.35,453.63 512.05,444.24 506.76,436.84 498.1,446.54 496.39,458.28 488.39,466.63 474.14,460.54 463.84,462.17 462.47,471.9 450.55,465.47 445.87,471.83 434.93,467.75 427.33,461.34 425.72,449.26 409.43,453.55 406.13,449.17 398.49,450.81 370.94,450.35 364.99,444.95 366.72,430.2 358.77,427.47 350.25,406.63 345.31,397.88 340.62,406.25 328,409.2 315.72,409.81 310.42,406.76 312.48,395.03 321.49,383.67 323.55,371.6 321.96,358.17 318.66,354.8 319.27,302.47 311.3,303.77 299.4,296.32 288.79,297.94 269.56,296.83 256.67,290.38 252.4,283.31 255.75,276.28 256.48,264.54 260.81,261.21 255.93,244.75 247.7,235.98 235.12,232.55 234.84,224.83 241.15,222.52 252.17,207.15 253.28,187.36 265.94,175.69 272.2,180.42 269.17,189.13 279.75,193.21 281.38,197.92 269.74,206.24 265.05,215.61 270.96,224.03 276.95,220.71 284.53,227.46 300.41,233.25 306.01,238.65 307.28,249.06 300.32,249.35 298.95,257.4 309.55,258.46 314.48,266.21 322.82,256.86 328.8,254.87 339.06,256.94 339.44,247.88 352.71,246.27 352.36,248.28 351.03,249.62 353.34,252.99 350.02,252.63 347.03,255.3 353.65,256.68 361.31,248.66 360,246.31 366.99,239.97 370.31,239.31 384.18,248.1 391.16,245.79 396.82,240.11 401.17,231.07 407.76,238.48 419.04,236.86 428.64,238.91 436.89,246.66 443.53,243.67 448.55,232.62 443.95,222.2 429.73,217.78 416.86,205.64 413.92,195.9 405.34,187.81 392.45,180.7 396.12,176.69 412.01,178.78 416.01,173.43 400.12,170 398.83,163.28 411.75,163.34 420.96,177.14 427.9,180.19 425.54,189.24 430.78,204.36 451.32,204.12 455.6,210.51 465.85,215.25 467.49,221.63 487.26,247.88 505.75,268.75 523.26,284.25 538.15,293.03 544.79,289.7 562.34,294.46 566.99,291.79 576.27,292.82 584.88,297.88 606.76,298.96 608.76,295.61 622.36,294.31 631.3,296.35" fill="none" stroke="#1e1e1e" stroke-width="1.55" stroke-linecap="round" stroke-linejoin="round"/>
<text x="1693.16" y="523.29" font-family="sans-serif" font-size="14" stroke="#ffffff" stroke-opacity="0.784" stroke-width="2.33" stroke-linejoin="round" paint-order="stroke" fill="#141414">Darién</text>
<text x="625.53" y="528.42" font-family="sans-serif" font-size="14" stroke="#ffffff" stroke-opacity="0.784" stroke-width="2.33" stroke-linejoin="round" paint-order="stroke" fill="#141414">Veraguas</text>
<text x="1381.53" y="206.51" font-family="sans-serif" font-size="14" stroke="#ffffff" stroke-opacity="0.784" stroke-width="2.33" stroke-linejoin="round" paint-order="stroke" fill="#141414">Panamá</text>
<text x="204.69" y="404.52" font-family="sans-serif" font-size="14" stroke="#ffffff" stroke-opacity="0.784" stroke-width="2.33" stroke-linejoin="round" paint-order="stroke" fill="#141414">Chiriquí</text>
<text x="345.78" y="344.76" font-family="sans-serif" font-size="14" stroke="#ffffff" stroke-opacity="0.784" stroke-width="2.33" stroke-linejoin="round" paint-order="stroke" fill="#141414">Comarca Ngäbe Buglé</text>
<text x="1009.47" y="170.28" font-family="sans-serif" font-size="14" stroke="#ffffff" stroke-opacity="0.784" stroke-width="2.33" stroke-linejoin="round" paint-order="stroke" fill="#141414">Colón</text>
<text x="868.26" y="384.53" font-family="sans-serif" font-size="14" stroke="#ffffff" stroke-opacity="0.784" stroke-width="2.33" stroke-linejoin="round" paint-order="stroke" fill="#141414">Coclé</text>
<text x="101.38" y="158.89" font-family="sans-serif" font-size="14" stroke="#ffffff" stroke-opacity="0.784" stroke-width="2.33" stroke-linejoin="round" paint-order="stroke" fill="#141414">Bocas del Toro</text>
<text x="1708.76" y="430.83" font-family="sans-serif" font-size="14" stroke="#ffffff" stroke-opacity="0.784" stroke-width="2.33" stroke-linejoin="round" paint-order="stroke" fill="#141414">Comarca Emberá-Wounaan</text>
<text x="854.61" y="707.66" font-family="sans-serif" font-size="14" stroke="#ffffff" stroke-opacity="0.784" stroke-width="2.33" stroke-linejoin="round" paint-order="stroke" fill="#141414">Los Santos</text>
<text x="1001.05" y="292.37" font-family="sans-serif" font-size="14" stroke="#ffffff" stroke-opacity="0.784" stroke-width="2.33" stroke-linejoin="round" paint-order="stroke" fill="#141414">Panamá Oeste</text>
<text x="1508.5" y="177.41" font-family="sans-serif" font-size="14" stroke="#ffffff" stroke-opacity="0.784" stroke-width="2.33" stroke-linejoin="round" paint-order="stroke" fill="#141414">Comarca Guna Yala</text>
<text x="765.32" y="610.13" font-family="sans-serif" font-size="14" stroke="#ffffff" stroke-opacity="0.784" stroke-width="2.33" stroke-linejoin="round" paint-order="stroke" fill="#141414">Herrera</text>
</svg>
