<?xml version="1.0" encoding="UTF-8" standalone="no"?>
<svg xmlns="http://www.w3.org/2000/svg" width="1894" height="2000" viewBox="0 0 1894 2000">
<rect width="1894" height="2000" fill="#ffffff"/>
<path d="M1848.52,1308.37L1845.17,1308.62L1841.33,1310.04L1837.99,1312.73L1834.29,1319.18L1833.27,1322.99L1833.16,1326.61L1834.57,1331.46L1837.12,1336.41L1843.43,1344.68L1847.36,1348.3L1847.15,1355.42L1842.06,1353.64L1832.67,1344.86L1826.13,1340.21L1823.09,1339.22L1822.95,1344.17L1827.29,1351.75L1827.24,1354.67L1824.26,1354.94L1817.47,1353.56L1817.53,1355.79L1815.52,1361.04L1815.42,1363.26L1816.71,1374.8L1819.95,1378.59L1828.64,1382.95L1838.93,1385.48L1843.32,1388.6L1844.96,1390.95L1844.39,1393.1L1842.17,1393.66L1831.22,1390.97L1825.97,1392.5L1823.8,1394.32L1823.11,1398.76L1826.36,1403.11L1835.1,1408.87L1826.08,1407.28L1819.31,1404.58L1818.07,1412.63L1818.36,1418.29L1819.86,1421.89L1823.13,1423.52L1836.68,1424.11L1845.05,1427.34L1844.83,1435.11L1839.89,1434.04L1820.94,1437.33L1820.24,1438.77L1821.17,1440.26L1832.62,1448.96L1808.64,1440.75L1804.29,1440.7L1802.58,1443.51L1804.92,1453.27L1806.56,1456.59L1810.29,1460.67L1814.8,1464L1824.41,1469.37L1797.46,1462.26L1795.96,1462.64L1791.65,1467.13L1785.05,1466.6L1781.22,1467.47L1779.98,1468.76L1779.55,1470.77L1780.06,1477.55L1760.83,1472.57L1762.53,1460.83L1768.98,1450.47L1769.75,1447.43L1769.13,1446.08L1763.39,1441.19L1757.28,1437.4L1756.19,1435.63L1759.69,1435.79L1772.14,1439.4L1776.44,1439.1L1778.78,1437.7L1782.78,1434.04L1784.21,1431.64L1784.66,1428.93L1783.68,1425.28L1784.45,1422.72L1788.4,1421.29L1788.16,1417.38L1789.05,1416.01L1797.11,1408.56L1788.96,1404.02L1772.58,1404.2L1778.68,1400.32L1780.15,1398.48L1780.39,1396.74L1778.1,1394.87L1768.65,1393.08L1764.61,1393.04L1752.86,1396.92L1750.88,1396.24L1750.74,1392.12L1750.17,1390.78L1748.53,1389.76L1731.84,1391.7L1736.4,1386.31L1747.45,1380.18L1752.91,1375.44L1756.01,1376.43L1760.21,1380.31L1762.05,1380.98L1772.68,1380.43L1789.94,1389.05L1792.02,1389.32L1789.73,1379.43L1790.77,1375.06L1797.16,1363.17L1798.18,1358.39L1797.28,1356.62L1795.1,1355.45L1789.27,1354.59L1773.15,1349.83L1768.27,1349.15L1755.3,1349.29L1739.54,1345.12L1720.66,1345.13L1722.99,1342.89L1744.31,1336.53L1748.53,1337.47L1751.71,1340.42L1752.86,1343.37L1757.77,1345.38L1783.05,1342.64L1798.66,1345.58L1803.21,1345.56L1804.11,1331.16L1808.6,1322.29L1807.58,1319.26L1803.87,1316.09L1790.3,1312.09L1768.97,1303.78L1792.9,1303.87L1811.84,1306.14L1814.72,1305.1L1821.04,1299.77L1822.14,1292.41L1825.25,1285.32L1824.07,1276.78L1820.24,1273.05L1802.86,1267.69L1806.73,1266.68L1821.57,1265.35L1824.21,1264.03L1823.72,1258.65L1825.68,1253.55L1822.15,1242.36L1812.06,1232.32L1820.31,1234.78L1832.72,1240.08L1836.76,1231.9L1838.72,1224.57L1843.55,1219.13L1843.06,1215.98L1836.39,1206.38L1835.01,1200.07L1833.06,1197.02L1830.21,1194.56L1823.76,1191.25L1828.19,1188.3L1831.71,1184.22L1832.3,1181.31L1829.5,1173.49L1829.26,1170.84L1830.09,1168.56L1837.98,1157.29L1844.62,1153.44L1849.41,1152.6L1851.11,1153.21L1851.95,1156.16L1844.57,1175.95L1843.71,1181.5L1844.2,1186.74L1845.86,1191.74L1848.58,1196.49L1851.69,1199.46L1850.19,1250.88L1847.18,1253.68L1845.87,1256.01L1844.53,1273.74L1845.1,1280.52L1847.58,1292.1L1848.93,1294.38L1848.52,1308.37Z" fill-rule="evenodd" fill="#4682b4" fill-opacity="0.471"/>
<polyline points="1848.52,1308.37 1845.17,1308.62 1841.33,1310.04 1837.99,1312.73 1834.29,1319.18 1833.27,1322.99 1833.16,1326.61 1834.57,1331.46 1837.12,1336.41 1843.43,1344.68 1847.36,1348.3 1847.15,1355.42 1842.06,1353.64 1832.67,1344.86 1826.13,1340.21 1823.09,1339.22 1822.95,1344.17 1827.29,1351.75 1827.24,1354.67 1824.26,1354.94 1817.47,1353.56 1817.53,1355.79 1815.52,1361.04 1815.42,1363.26 1816.71,1374.8 1819.95,1378.59 1828.64,1382.95 1838.93,1385.48 1843.32,1388.6 1844.96,1390.95 1844.39,1393.1 1842.17,1393.66 1831.22,1390.97 1825.97,1392.5 1823.8,1394.32 1823.11,1398.76 1826.36,1403.11 1835.1,1408.87 1826.08,1407.28 1819.31,1404.58 1818.07,1412.63 1818.36,1418.29 1819.86,1421.89 1823.13,1423.52 1836.68,1424.11 1845.05,1427.34 1844.83,1435.11 1839.89,1434.04 1820.94,1437.33 1820.24,1438.77 1821.17,1440.26 1832.62,1448.96 1808.64,1440.75 1804.29,1440.7 1802.58,1443.51 1804.92,1453.27 1806.56,1456.59 1810.29,1460.67 1814.8,1464 1824.41,1469.37 1797.46,1462.26 1795.96,1462.64 1791.65,1467.13 1785.05,1466.6 1781.22,1467.47 1779.98,1468.76 1779.55,1470.77 1780.06,1477.55 1760.83,1472.57 1762.53,1460.83 1768.98,1450.47 1769.75,1447.43 1769.13,1446.08 1763.39,1441.19 1757.28,1437.4 1756.19,1435.63 1759.69,1435.79 1772.14,1439.4 1776.44,1439.1 1778.78,1437.7 1782.78,1434.04 1784.21,1431.64 1784.66,1428.93 1783.68,1425.28 1784.45,1422.72 1788.4,1421.29 1788.16,1417.38 1789.05,1416.01 1797.11,1408.56 1788.96,1404.02 1772.58,1404.2 1778.68,1400.32 1780.15,1398.48 1780.39,1396.74 1778.1,1394.87 1768.65,1393.08 1764.61,1393.04 1752.86,1396.92 1750.88,1396.24 1750.74,1392.12 1750.17,1390.78 1748.53,1389.76 1731.84,1391.7 1736.4,1386.31 1747.45,1380.18 1752.91,1375.44 1756.01,1376.43 1760.21,1380.31 1762.05,1380.98 1772.68,1380.43 1789.94,1389.05 1792.02,1389.32 1789.73,1379.43 1790.77,1375.06 1797.16,1363.17 1798.18,1358.39 1797.28,1356.62 1795.1,1355.45 1789.27,1354.59 1773.15,1349.83 1768.27,1349.15 1755.3,1349.29 1739.54,1345.12 1720.66,1345.13 1722.99,1342.89 1744.31,1336.53 1748.53,1337.47 1751.71,1340.42 1752.86,1343.37 1757.77,1345.38 1783.05,1342.64 1798.66,1345.58 1803.21,1345.56 1804.11,1331.16 1808.6,1322.29 1807.58,1319.26 1803.87,1316.09 1790.3,1312.09 1768.97,1303.78 1792.9,1303.87 1811.84,1306.14 1814.72,1305.1 1821.04,1299.77 1822.14,1292.41 1825.25,1285.32 1824.07,1276.78 1820.24,1273.05 1802.86,1267.69 1806.73,1266.68 1821.57,1265.35 1824.21,1264.03 1823.72,1258.65 1825.68,1253.55 1822.15,1242.36 1812.06,1232.32 1820.31,1234.78 1832.72,1240.08 1836.76,1231.9 1838.72,1224.57 1843.55,1219.13 1843.06,1215.98 1836.39,1206.38 1835.01,1200.07 1833.06,1197.02 1830.21,1194.56 1823.76,1191.25 1828.19,1188.3 1831.71,1184.22 1832.3,1181.31 1829.5,1173.49 1829.26,1170.84 1830.09,1168.56 1837.98,1157.29 1844.62,1153.44 1849.41,1152.6 1851.11,1153.21 1851.95,1156.16 1844.57,1175.95 1843.71,1181.5 1844.2,1186.74 1845.86,1191.74 1848.58,1196.49 1851.69,1199.46 1850.19,1250.88 1847.18,1253.68 1845.87,1256.01 1844.53,1273.74 1845.1,1280.52 1847.58,1292.1 1848.93,1294.38 1848.52,1308.37" fill="none" stroke="#1e1e1e" stroke-width="1.35" stroke-linecap="round" stroke-linejoin="round"/>
<text x="1743.4" y="1353.65" font-family="sans-serif" font-size="14" stroke="#ffffff" stroke-opacity="0.784" stroke-width="2.33" stroke-linejoin="round" paint-order="stroke" fill="#141414">Represa Itaipu</text>
</svg>
