<?xml version="1.0" encoding="UTF-8" standalone="no"?>
<svg xmlns="http://www.w3.org/2000/svg" width="1392" height="2000" viewBox="0 0 1392 2000">
<rect width="1392" height="2000" fill="#ffffff"/>
<path d="M31.07,575.89L30.74,574.73L31.07,575.89Z" fill-rule="evenodd" fill="#4682b4" fill-opacity="0.471"/>
<polyline points="31.07,575.89 30.74,574.73 31.07,575.89" fill="none" stroke="#1e1e1e" stroke-width="1.06" stroke-linecap="round" stroke-linejoin="round"/>
<path d="M86.29,761.12L84.89,761.09L85.3,760.53L84.5,759.46L86.29,761.12Z" fill-rule="evenodd" fill="#4682b4" fill-opacity="0.471"/>
<polyline points="86.29,761.12 84.89,761.09 85.3,760.53 84.5,759.46 86.29,761.12" fill="none" stroke="#1e1e1e" stroke-width="1.06" stroke-linecap="round" stroke-linejoin="round"/>
<path d="M70.31,701.89L71.28,700.36L71.55,700.93L70.45,704.17L72.02,705.82L71.6,707.21L72.29,709.69L70.17,710.71L69.72,709.87L70.39,707.7L68.31,706.31L69.81,705.09L70.31,701.89Z" fill-rule="evenodd" fill="#4682b4" fill-opacity="0.471"/>
<polyline points="70.31,701.89 71.28,700.36 71.55,700.93 70.45,704.17 72.02,705.82 71.6,707.21 72.29,709.69 70.17,710.71 69.72,709.87 70.39,707.7 68.31,706.31 69.81,705.09 70.31,701.89" fill="none" stroke="#1e1e1e" stroke-width="1.06" stroke-linecap="round" stroke-linejoin="round"/>
<path d="M85.41,759.47L85.81,758.08L86.67,759.6L85.88,760.06L85.41,759.47Z" fill-rule="evenodd" fill="#4682b4" fill-opacity="0.471"/>
<polyline points="85.41,759.47 85.81,758.08 86.67,759.6 85.88,760.06 85.41,759.47" fill="none" stroke="#1e1e1e" stroke-width="1.06" stroke-linecap="round" stroke-linejoin="round"/>
<path d="M275.1,928.28L274.92,929.12L274.47,928.33L275.1,928.28Z" fill-rule="evenodd" fill="#4682b4" fill-opacity="0.471"/>
<polyline points="275.1,928.28 274.92,929.12 274.47,928.33 275.1,928.28" fill="none" stroke="#1e1e1e" stroke-width="1.06" stroke-linecap="round" stroke-linejoin="round"/>
<path d="M313.18,995.1L312.14,994.33L313.18,995.1Z" fill-rule="evenodd" fill="#4682b4" fill-opacity="0.471"/>
<polyline points="313.18,995.1 312.14,994.33 313.18,995.1" fill="none" stroke="#1e1e1e" stroke-width="1.06" stroke-linecap="round" stroke-linejoin="round"/>
<path d="M306.59,982.79L305.7,982.57L305.45,980.65L306.59,982.79Z" fill-rule="evenodd" fill="#4682b4" fill-opacity="0.471"/>
<polyline points="306.59,982.79 305.7,982.57 305.45,980.65 306.59,982.79" fill="none" stroke="#1e1e1e" stroke-width="1.06" stroke-linecap="round" stroke-linejoin="round"/>
<path d="M312.1,990.36L311.08,989.29L311.57,987.37L312.56,989.75L312.1,990.36Z" fill-rule="evenodd" fill="#4682b4" fill-opacity="0.471"/>
<polyline points="312.1,990.36 311.08,989.29 311.57,987.37 312.56,989.75 312.1,990.36" fill="none" stroke="#1e1e1e" stroke-width="1.06" stroke-linecap="round" stroke-linejoin="round"/>
<path d="M330.86,1019.42L331.05,1018.19L330.86,1019.42Z" fill-rule="evenodd" fill="#4682b4" fill-opacity="0.471"/>
<polyline points="330.86,1019.42 331.05,1018.19 330.86,1019.42" fill="none" stroke="#1e1e1e" stroke-width="1.06" stroke-linecap="round" stroke-linejoin="round"/>
<path d="M328.39,1015.73L327.8,1015.42L328.46,1014.52L329.03,1015.27L328.39,1015.73Z" fill-rule="evenodd" fill="#4682b4" fill-opacity="0.471"/>
<polyline points="328.39,1015.73 327.8,1015.42 328.46,1014.52 329.03,1015.27 328.39,1015.73" fill="none" stroke="#1e1e1e" stroke-width="1.06" stroke-linecap="round" stroke-linejoin="round"/>
<path d="M318.96,1004.47L318.4,1003.9L319.15,1003.38L318.96,1004.47Z" fill-rule="evenodd" fill="#4682b4" fill-opacity="0.471"/>
<polyline points="318.96,1004.47 318.4,1003.9 319.15,1003.38 318.96,1004.47" fill="none" stroke="#1e1e1e" stroke-width="1.06" stroke-linecap="round" stroke-linejoin="round"/>
<path d="M548.39,1474.32L549.5,1474.54L548.19,1474.86L548.39,1474.32Z" fill-rule="evenodd" fill="#4682b4" fill-opacity="0.471"/>
<polyline points="548.39,1474.32 549.5,1474.54 548.19,1474.86 548.39,1474.32" fill="none" stroke="#1e1e1e" stroke-width="1.06" stroke-linecap="round" stroke-linejoin="round"/>
<path d="M544.87,1497.25L543.79,1497.92L541.77,1496.94L543.09,1493.78L545.2,1495.46L544.87,1497.25Z" fill-rule="evenodd" fill="#4682b4" fill-opacity="0.471"/>
<polyline points="544.87,1497.25 543.79,1497.92 541.77,1496.94 543.09,1493.78 545.2,1495.46 544.87,1497.25" fill="none" stroke="#1e1e1e" stroke-width="1.06" stroke-linecap="round" stroke-linejoin="round"/>
<path d="M571.33,1543.49L572.5,1544.22L572.2,1545.57L572.05,1544.77L568.83,1543.55L567.89,1542.36L568.02,1541.04L570.07,1541L571.33,1543.49Z" fill-rule="evenodd" fill="#4682b4" fill-opacity="0.471"/>
<polyline points="571.33,1543.49 572.5,1544.22 572.2,1545.57 572.05,1544.77 568.83,1543.55 567.89,1542.36 568.02,1541.04 570.07,1541 571.33,1543.49" fill="none" stroke="#1e1e1e" stroke-width="1.06" stroke-linecap="round" stroke-linejoin="round"/>
<path d="M162.13,253.06L164.41,252.01L164.86,253.83L164.11,254.27L165.09,255.28L164.42,255.8L164.52,257.65L163.09,256.51L163.72,255.24L162.13,253.06Z" fill-rule="evenodd" fill="#4682b4" fill-opacity="0.471"/>
<polyline points="162.13,253.06 164.41,252.01 164.86,253.83 164.11,254.27 165.09,255.28 164.42,255.8 164.52,257.65 163.09,256.51 163.72,255.24 162.13,253.06" fill="none" stroke="#1e1e1e" stroke-width="1.06" stroke-linecap="round" stroke-linejoin="round"/>
<path d="M60.93,186.22L60.55,184.97L61.61,185.4L60.93,186.22Z" fill-rule="evenodd" fill="#4682b4" fill-opacity="0.471"/>
<polyline points="60.93,186.22 60.55,184.97 61.61,185.4 60.93,186.22" fill="none" stroke="#1e1e1e" stroke-width="1.06" stroke-linecap="round" stroke-linejoin="round"/>
<path d="M1171.05,1985.67L1156.27,1974.26L1140.53,1964.86L1135.32,1960.13L1135.19,1958.76L1132.89,1957.22L1132.18,1955.74L1126.95,1952.59L1126.81,1951.53L1119.16,1948.06L1119.7,1946.34L1118.95,1943.72L1116.71,1941.9L1116.55,1940.66L1105.28,1934.27L1097.68,1932.61L1096.89,1929.82L1090.51,1926.16L1088.85,1923.05L1074.19,1914.5L1070.91,1913.2L1069.93,1914.66L1068.56,1914.77L1072.77,1907.18L1072.52,1904.71L1071.09,1902.01L1070.16,1894.6L1070.87,1893.35L1070.71,1891.11L1068.26,1884.73L1068.52,1882.46L1067.57,1880.32L1065.06,1879L1064.47,1877.49L1063.62,1877.81L1063.79,1876.07L1062.43,1874.07L1061.04,1874.08L1059.84,1872.6L1059.11,1873.02L1059.4,1870.03L1056.48,1868.48L1055.82,1867.12L1053.84,1867.21L1052.85,1865.38L1050.17,1866.22L1049.58,1865.42L1046.98,1864.98L1038.93,1861.41L1022.76,1856.86L1018.8,1853.85L1012.48,1846.38L1003.63,1841.14L1003.03,1840.04L1001.03,1839.28L997.71,1839.95L995.9,1838.8L993.71,1839.22L994.62,1837.1L992.68,1835.13L993.02,1834.24L990.49,1833.77L990.27,1832.77L988.3,1831.85L988.33,1830.76L986.32,1830.49L986.32,1829.3L985.16,1829.51L983.54,1826.87L981.86,1825.92L981.17,1826.51L976.84,1823.64L975.6,1823.85L975.74,1822.25L974.75,1821.02L975.68,1819.71L973.21,1817.2L973.41,1816.53L971.72,1816L971.44,1814.54L968.89,1811.99L966.81,1811.42L966.93,1810.52L964.08,1810.35L963.61,1809.03L962.44,1808.73L959.23,1805.05L944.16,1801.16L931.76,1799.36L927.78,1797.89L910.45,1784.86L903.53,1784.71L901.75,1783.57L900.96,1784.14L898.54,1782.72L897.13,1782.78L896.44,1781.39L891.5,1777.87L888.78,1777.45L886.82,1776.12L885.74,1774.07L882.61,1773.57L880.64,1771.94L877.88,1773.53L877,1772.61L875.25,1772.87L875.26,1772.08L874.03,1771.67L872,1772.37L870.55,1769.17L871.1,1766.67L869.53,1765.05L855.5,1758.89L852.1,1759.13L844.34,1754.93L843.5,1755.48L838.06,1753.35L835.03,1753.8L832.23,1752.63L830.29,1753.38L829.67,1754.52L829.8,1752.23L826.88,1749.55L815.81,1745.12L812.15,1742.99L810.38,1740.35L803.57,1736.5L802.95,1734.96L800.84,1734.11L799.79,1732.61L796.86,1732.36L796.59,1731.16L795.28,1730.27L796.07,1727.57L793.09,1723.46L780.59,1717.22L773.68,1715.23L772.63,1712.69L769.81,1710.92L768.48,1710.72L767.17,1711.74L766.26,1711.03L764.85,1712.09L764.85,1711.26L762.62,1711.37L760.79,1710.02L759.94,1710.53L757.72,1709.88L753.19,1706.15L750.75,1701.89L750.74,1698.72L749.74,1698.01L730.69,1691.19L715.14,1682.66L711.58,1681.41L710.19,1682.19L710.78,1680.18L706.64,1676.9L697.7,1673.28L696.57,1671.08L694.91,1670.21L689.1,1669.4L687.3,1668.19L687.71,1667.4L686.45,1666.1L684.6,1666.05L683.5,1664.65L680.37,1664.29L679.63,1662.67L678.43,1662.81L678.19,1661.28L674.82,1660.06L675.64,1658.67L677.63,1658.48L678.21,1659.1L678.89,1658.53L679.01,1655.84L677.86,1653.98L674.59,1651.79L672.61,1651.98L672.19,1651.1L671.14,1651.21L670.86,1650.11L667.5,1647.44L671.79,1648.04L672.47,1645.55L670.81,1642.26L666.39,1638.55L662.14,1636.63L659.99,1636.18L658.61,1637.48L658.75,1636.42L657.73,1635.5L656.29,1636.76L656.33,1634.23L655,1632.97L653.89,1629.12L652.38,1627.76L651.93,1625.08L649.89,1623.3L648.89,1620.5L644.35,1618.19L642.6,1616.39L643.67,1613.08L641.9,1610.83L635.15,1606.21L623.95,1600.84L615.78,1594.79L605.85,1589.96L606.55,1589.11L605.73,1587.49L599.46,1583.79L598.31,1581.98L598.01,1574.36L593.39,1569.35L594.42,1567.34L593.63,1563.53L586.65,1558.6L583.81,1554.56L576.47,1550.48L575.55,1548.48L579.12,1548.37L579.71,1546.73L576.27,1538.15L570.79,1534.3L569.99,1531.56L567.92,1531.05L568.06,1529.94L567.08,1529.17L564.28,1529.47L563.52,1528.27L562.33,1528.33L563.89,1531.04L564.21,1530.3L562.27,1534.54L561.91,1532.68L560.04,1530.57L561.56,1529.4L560.82,1527.88L561.43,1526.72L560.95,1523.77L560.14,1522.58L561.81,1521.88L561.78,1519.66L563.03,1519.7L563.41,1519L562.38,1516.89L563.19,1515.18L560.77,1512.66L562.38,1510.94L562.08,1507.83L559.74,1505.31L561.08,1504.19L561.04,1503.22L559.71,1502.75L559.45,1501.56L558.11,1501.38L557.55,1503.93L556.32,1504.95L555.17,1503.92L553.41,1504.73L552.75,1503.77L549.18,1503.24L550.25,1496.25L552.13,1494.61L551.77,1492.49L552.37,1491.88L559.55,1490.69L560.38,1491.19L558.01,1496.57L559.47,1495.59L563.26,1498.57L564.35,1497.31L563.59,1495.64L564.64,1494.86L564.4,1492.89L567.24,1483.49L567.5,1478.5L569.25,1474.71L570.69,1466.11L570.76,1453.77L568.2,1445.8L563.8,1438.87L558.26,1432.74L549.2,1420.32L538.97,1408.86L539.77,1407.81L536.3,1400.78L537.24,1399.96L537.33,1397.63L535.82,1389.5L531.74,1386.43L530.94,1384.59L526.42,1381.79L525.44,1379.83L523.4,1378.31L524.21,1375.79L521.43,1373.31L521.12,1370.94L519.73,1369.26L519.76,1365.84L516.33,1362.36L515.85,1360.12L510.61,1355.52L505.92,1353.04L506.44,1352.05L505.72,1351.46L506.49,1350.92L505.94,1349.95L507.23,1349.66L507.81,1346.01L508.89,1345.36L508.17,1342.92L508.73,1341.8L507.97,1341.12L508.61,1340.64L507.32,1339.79L506.23,1337.18L504.42,1336.23L504.2,1334.87L503.39,1335.2L502.35,1332.35L500.54,1330.8L491,1324.8L481.18,1320.6L480.99,1318.08L481.62,1317.45L481.09,1316.51L482.2,1316.26L482.48,1314.37L479.52,1310.69L471.19,1306.19L468.81,1305.82L467.97,1306.69L467.14,1306.42L469.46,1304.89L468.7,1303.91L469.62,1304.55L469.69,1303.33L470.26,1303.59L470.04,1302.61L468.73,1303.57L470.56,1298.44L470.86,1294.45L468.25,1284.53L465.3,1281.34L466.22,1277.4L464.92,1275.42L464.08,1275.4L464.06,1273.76L466.43,1274.22L467.03,1270.28L463.99,1265.97L464.64,1264.38L462.89,1260.86L456.13,1255.34L455.28,1255.93L454.51,1255.26L455.34,1255.87L455.75,1255.28L454.96,1254.5L456.29,1253.94L455.77,1251.47L453.59,1249.04L452.95,1246.77L448.74,1243.73L448.68,1242.34L446.8,1240.84L432.42,1232.11L416.42,1224.16L416.67,1223.47L415.79,1222.93L416.94,1222.84L417.27,1221.24L416.21,1217.93L416.84,1216.91L416.48,1215.47L418.17,1214.39L418.75,1215.03L421.23,1214.52L422.08,1210.64L421.04,1207.62L419.17,1205.26L420.04,1204.47L419.73,1203.39L417.71,1201.7L418.36,1200.77L417.39,1199.33L417.79,1197.52L414.71,1193.08L416.27,1191.53L414.38,1187.33L414.7,1186.44L410.33,1179.57L409.64,1177.95L410.18,1176.29L405.24,1172.34L404.83,1170.73L405.94,1169.74L404.91,1167.94L403.64,1167.36L403.94,1166.54L402.96,1165.2L399.56,1162.43L398.87,1159.8L390.8,1150.34L388.4,1145.76L389.1,1144.98L388.43,1143.04L385.11,1139.29L382.33,1137.59L382.55,1135.25L380.72,1131.86L377.11,1128.87L378.47,1127.37L377.83,1125.41L372.75,1121.85L372.85,1119.16L371.99,1117.78L372.52,1117.36L369.33,1114.56L369.93,1111.36L368.78,1110.8L369.26,1109.52L367.73,1106.43L366.48,1105.88L365.47,1103.79L361.13,1100.7L360.03,1097.27L358.77,1096.69L359.04,1095.73L360.66,1094.89L359.75,1089.72L357.64,1087.09L357.81,1085.04L357.07,1082.96L356.13,1082.54L356.18,1081.39L353.47,1079.78L354.13,1079.43L353.61,1078.71L354.39,1078.49L353.74,1075.44L354.32,1074.86L352.28,1070.87L352.46,1069.66L353.32,1069.32L352.88,1067.18L353.74,1066.79L354.2,1063.22L346.68,1055.69L346.81,1053.47L345.54,1052.4L345.43,1051.14L344.18,1050.95L344.28,1049.45L342.48,1048.14L341.63,1045.77L340.03,1044.81L339.11,1045.34L339.71,1043.73L338.54,1040.78L339.26,1040.23L338.62,1038.61L339.1,1037.87L336.45,1034.89L337.15,1033.78L335.91,1031.75L336.04,1029.16L335.01,1028.85L337.18,1026.81L337.25,1025.81L336.13,1024.31L334.65,1024.68L334.75,1023.49L332.81,1022.72L332.63,1019.94L331.87,1019.81L332.28,1017.86L334.1,1017.64L334.4,1016.8L332.52,1016.64L332.77,1014.7L331.28,1014.44L330.78,1013L329.98,1013.35L328.24,1012.38L326.78,1013.72L326.96,1012.47L324.97,1011.5L324.98,1008.8L321.98,1007.45L325.56,1005.1L326.33,1001.51L326.18,999.91L323.77,997.3L321.09,996.79L317.85,997.95L318.98,1003.34L317.32,1002.14L316.7,1000.19L315.78,999.97L316.51,999.03L315.11,999.15L313.71,996.99L312.96,997.08L312.97,995.36L314.25,996.12L315.63,995.76L316.04,996.47L317.44,996.14L318.36,993.99L318.01,990.97L315.27,986.82L313.34,986.27L312.61,986.76L312.7,986.14L312.13,986.77L312.42,985.98L311.45,986.85L310.76,986.1L309.9,983.34L310.33,981.29L311.49,980.08L310.37,978.8L307.71,977.81L307.65,976.76L308.49,977.27L309.19,976.23L308.09,969.77L296.53,954.14L296.53,952.32L298.44,950.51L298.95,947.96L297.76,944.28L298.58,942.76L298.26,940.67L295.79,934.73L292.75,930.63L287.68,926.05L280.01,920.91L277.82,918.31L277.76,917.25L279.63,917.66L280.48,916.99L281.73,912.49L274.99,902.48L274.74,899.92L271.75,896.43L271.27,896.72L272.01,896.03L271.55,895.62L272.58,895.81L272.25,894.29L257.99,881.88L256.8,878.28L237.52,863.84L237.16,862.45L230.34,855.24L228.99,850.29L220.45,841.69L220.13,841.06L223.51,839.48L223.37,836.61L208.21,814.32L206.98,809.42L208.98,806.75L206.91,802.66L206.55,797.67L204.03,792.78L195.72,783.96L196.7,781.42L196.32,778.37L190.07,770.99L176.82,759.86L176.22,757.32L169.85,752.05L168.76,746.84L163.76,738.42L154.18,730.88L134.65,718.86L104.99,703.87L77.66,691.41L66.01,681.56L44.08,668.34L39.8,661.63L38.47,658.32L38.8,652.8L38.06,648.29L40.07,646.2L40.72,643.17L43.69,642.67L44.92,640.27L45.09,637.71L46.46,637.06L51.75,641.65L59.01,643.33L62.44,642.27L65.42,639.61L68.21,635.01L69.47,628.96L69.73,622.68L66.24,611.36L59.97,600.39L47.52,588.19L44.04,585.99L41.64,586.59L38.3,581.11L32.03,575.52L34.99,570.79L33.61,567.14L35.58,565.97L34.41,562.41L34.78,561.54L35.6,560.64L37.06,561.29L38.55,560.26L40.69,561.85L43.04,561.48L45.99,558.05L46.15,556.32L44.59,551.37L42.56,548.09L37.14,542.86L32.06,536.09L16.88,519.08L16.93,517.58L18.9,516.57L21.15,507.38L22.51,507.07L21.51,502.76L19.01,497.2L19.42,494.95L22.25,493.33L24.12,488.45L24.56,483.2L23.37,478.75L24.03,474.97L25.59,472.42L27.31,472.07L29.31,469.83L31.99,468.76L35.42,464.46L37.19,464.07L40.15,459.08L45.07,456.31L49.58,449.51L52.15,443.37L53.48,442.56L54.56,440.47L68.22,431.43L68.79,427.17L73.12,417.62L76.72,414.2L79.52,413.25L86.91,408.56L90.1,408L92.69,405.11L95.7,404.38L98.93,399.79L103.26,390.86L107.99,388.76L107.33,390.79L105.85,390.52L106.22,391.01L107.83,390.72L108.64,389.51L108.31,390.74L112.79,389.5L112.8,390.45L111.75,391.07L112.34,391.31L116.58,389.55L117.96,388.14L116.69,388.46L119.47,386.57L121.79,383.72L124.24,378.98L124.67,379.78L123.98,379.84L124.35,379.19L123.89,379.95L124.52,379.97L125.63,382.38L127.85,383.86L130.62,383.43L130.68,384.48L131.31,384.32L130.69,383.38L132.69,382.88L136.08,384.04L139.23,382.9L139.6,383.43L139.6,382.44L141.21,382.56L144.29,381.24L145.85,381.51L145.63,382.2L146,381.54L150.3,380.86L150.76,379.83L151.12,382.03L151.19,380.09L151.56,381.34L152.4,381.11L152.57,382.52L152.79,381.5L151.53,381.21L150.79,379.22L152.8,380.59L150.79,379.08L151.17,378.43L152.33,379.54L151.21,378.43L152.64,378.09L154.22,379.71L153.67,380.56L154.42,380.81L153.88,380.16L155.06,379.65L156.51,381.4L155.73,379.96L156.27,379.25L157.53,380.46L157.35,379.77L158.69,380.47L159.09,381.98L162.49,382.22L159.11,381.95L158.76,380.45L157.76,379.95L158.72,379.46L158.23,380.08L156.54,379.27L157.27,378.26L159.01,378.59L157.38,378.22L157.89,377.52L158.71,377.88L158.06,377.47L158.44,376.92L157.25,377.13L156.95,376.34L158.01,376.42L156.76,376.47L155.02,374.69L156.68,375.71L158.15,375.25L159.33,377.32L158.74,376.87L159.34,376.12L161.12,376.3L159.17,376.35L158.1,375.05L156.6,375.53L153.51,373.18L154.88,372.8L157.06,374.58L154.93,372.74L153.53,372.91L153.81,371.66L154.59,372.01L153.79,371.54L153.97,369.49L156.27,370.37L156.86,373.27L158.27,372.99L157.8,372.16L157.91,373.11L156.56,372.4L157.17,372.1L156.52,371.55L157.45,371.15L156.42,371.46L155.91,369.77L157.14,369.64L154.64,368.79L155.26,367.43L158.09,369.56L157.76,368.66L158.46,368.38L156.88,368.84L155.66,367.26L157.12,365.87L157.96,367.26L159.45,366.94L157.8,366.8L158.78,365.12L160.05,365.17L159.29,364.34L158.27,366.38L157.17,365.75L156.06,366.3L156.86,361.78L157.65,361.51L157.04,360.74L159.51,359L159.9,357.53L162.06,356.31L162.29,355.31L163.65,354.87L163.07,354.11L163.67,352.9L166.67,353.05L168.24,341.18L168.22,344.98L168.85,344.97L168.5,343.68L170.41,343.84L169.53,342.66L173.23,338.28L172.25,323.31L172.67,322.32L174.04,323.13L172.95,322.29L175.62,318.41L175.96,313.17L177.18,311.79L177.83,311.96L177.24,311.27L178.05,310.56L178.41,304.72L180.65,303.82L180.63,303.31L179.86,303.86L178.81,302.3L178.28,299.56L179.65,298.45L184.51,297.06L186.49,293.01L185.62,289.01L188.84,289.18L190.63,287.35L190.2,285.24L191.7,285.36L191.16,285.2L191.89,284.67L191.54,283.88L193.26,284.86L191.8,283.89L193.29,283.19L191.7,283.86L191.06,283.21L191.81,283.32L191.15,283.11L191.97,282.07L191.02,283.12L189.83,282.16L191.95,280.99L187.75,282.57L185.74,281.51L188.32,279.92L189.45,280.38L188.92,278.95L189.06,279.74L184.6,281.65L184.4,282.66L180.45,283.63L177.93,279.84L177.34,274.75L173.71,270.21L174.51,264.91L171.7,264.9L170.64,269.45L171.29,274.21L166.93,289.5L164.89,290.9L166.62,287.15L166.73,284.05L167.91,282.57L166.56,280.12L168.1,280.31L169.05,279.36L168.3,275.32L169.62,274.17L168.21,275.17L166.73,273.06L169.08,272.69L167.7,271.83L167.09,270.22L168.57,269.96L167.17,269.91L168.25,264.96L169,265.81L168.51,264.11L166.9,270.23L166.23,269.66L166.49,268.39L165.12,268.27L164,266.53L165.44,265.43L164.83,264.34L166.16,263L164.88,263.11L165.09,259.72L165.99,258.67L168.3,258.51L168.29,259.11L169.29,258.54L169.44,260.14L169.25,256.86L169.99,255.82L169.14,256.63L168.96,255.85L169.02,258.49L165.01,257.69L165.08,255.99L165.79,255.73L164.78,254.51L164.64,252.25L165.51,251.68L164.73,251.96L163.95,249.95L164.64,251.86L163.65,251.62L163.37,252.66L162.7,252.55L163.05,250.93L161.95,253.07L159.95,252.63L158.7,254.45L157.82,254.58L158.17,253.86L157.56,253.73L157.51,254.96L156.69,253.87L156.87,254.66L155.25,254.23L157.25,254.81L156.76,255.67L157.31,254.91L157.2,256.32L157.65,255.98L158.41,257.01L156.14,257.31L156.6,257.97L155.93,258.94L154.88,258.44L157.64,261.12L157.92,263.84L159.07,263.83L157.16,265.07L154.9,264.79L154.57,263.31L155.48,263.36L155.57,264.41L155.7,263.13L156.63,264.28L156.48,263.25L155.5,262.99L156.64,262.51L156.52,261.77L154.95,263.3L155.48,262.4L154.88,261.71L155.44,262.43L153.94,263.86L153.31,263.45L153.65,262.41L152.99,262.76L153.25,263.52L152.16,263.33L152.11,262.45L152.37,263.91L151.26,263.33L153.5,265.75L152.52,266.82L152.16,269.94L150.1,271.41L148.75,269.99L149.43,269.99L149.34,268.27L149.29,270.05L144.94,272.12L145.44,273.12L146.96,273.61L146.06,275.88L147.5,277.26L146.16,278.82L146.98,280.69L145.66,282.51L145.03,282.14L145.05,284.13L140.16,289.62L139.43,289.33L139.7,286.42L138.92,284.71L140.48,283.33L140.66,281.04L142.06,280.25L140.52,281.12L140.65,280.04L140.41,283.25L138.73,284.74L138.4,282.17L137.36,282.36L137.99,281.61L136.69,281.27L137.43,280.46L137.84,280.95L137.92,280.05L137.83,280.67L136.94,280.56L136.71,279.83L136.25,281.21L136.06,279.39L135.98,281.25L134.7,280.31L135.68,280.76L134.32,281.83L134.81,282.12L133.8,282.85L133.78,284.21L134.18,283.88L134.58,284.95L135.19,284.08L134.8,284.85L135.33,284.4L135.57,285.35L135.92,284.91L137.34,285.79L135.83,287.71L132.94,284.9L133.38,283.92L132.12,285.83L130.18,283.16L131.54,285.11L130.87,285.38L132.1,286.3L130.68,286.3L130.04,287.09L129.41,286.34L129.21,287.43L129.45,286.38L130.1,287.14L130.71,286.37L133.25,286.02L132.51,285.7L133.36,285.14L135.29,288.1L136.78,287.57L138.82,289.26L137.36,292.45L132.75,294.02L132.41,291.47L133.33,291.72L133.06,292.22L134.04,292L133.51,292.88L134.52,292.55L134.91,291.15L135.68,291.31L134.79,290.91L134.26,292.13L134.28,291.09L132.84,291.56L132.52,290.69L131.91,291.67L132.14,289.99L131.21,291.03L131.34,289.87L130.77,289.58L130.77,290.24L130.16,289.32L131.31,290.56L130.75,291.39L131.84,290.67L132.85,294.87L129.83,297.71L128.32,297.53L128.97,302.32L130.2,304.41L128.82,308.38L122.24,305.36L116.5,300.78L113.64,297.23L111.57,298.03L109.14,297.7L101.22,289.07L82.76,272.74L81.58,272.27L81.06,272.83L78.01,271.12L72.08,271.02L69.21,269.92L61.45,264.08L59.81,264.46L59.58,265.77L58.64,265.2L58.91,263.24L56.11,259.04L46.28,249.76L48.57,249.29L50.5,251.5L52.47,251.12L53.87,252.94L56,252.58L56.07,253.16L63.76,250.03L67.18,245.93L69.26,245.9L72.62,243.05L74.52,240.13L75.8,234.94L75.56,231.41L74.11,230.16L73.3,227.78L73.92,227.06L72.67,226.45L75.68,224.95L76.48,222.85L75.55,216.4L72.69,209.45L73.06,208.69L71.19,202.14L67.52,197.37L65.47,191.47L63.23,188.84L63.29,187.11L62.14,185.93L63.39,184.76L63.47,182.29L66.53,181.34L66.18,176.08L66.87,176.1L67.5,174.57L68.53,174.48L68.68,172.7L70.13,173.32L71.33,172.31L71.28,168.17L72.96,166.28L71.76,162.93L73.94,160.94L74.24,159.47L71.7,154.64L61.76,142.9L58.8,137.83L54.92,127.46L55.8,126.68L55.88,125.2L59.07,123.02L63.75,116.25L68.22,116.39L75.57,113.14L74.9,114.24L75.41,114.94L78.04,115.13L80.45,114L81.41,112.64L82.36,112.79L83.4,114.42L86.52,114.62L90.15,112.76L92.91,109.74L95.14,105.66L98.36,91.85L102.09,81.31L104,78.14L108.57,75.98L107.27,74.04L105.56,73.27L102.87,61.34L100.91,59.82L99.2,55.42L99.71,51.56L101.81,51.68L108.36,45.54L111.25,37.1L114.91,34.62L116.98,30.3L118.26,31.74L119.59,32.08L121.14,31.36L137.32,15.63L1384,17.7L1349.1,1988.39L1171.05,1985.67Z" fill-rule="evenodd" fill="#4682b4" fill-opacity="0.471"/>
<polyline points="1171.05,1985.67 1156.27,1974.26 1140.53,1964.86 1135.32,1960.13 1135.19,1958.76 1132.89,1957.22 1132.18,1955.74 1126.95,1952.59 1126.81,1951.53 1119.16,1948.06 1119.7,1946.34 1118.95,1943.72 1116.71,1941.9 1116.55,1940.66 1105.28,1934.27 1097.68,1932.61 1096.89,1929.82 1090.51,1926.16 1088.85,1923.05 1074.19,1914.5 1070.91,1913.2 1069.93,1914.66 1068.56,1914.77 1072.77,1907.18 1072.52,1904.71 1071.09,1902.01 1070.16,1894.6 1070.87,1893.35 1070.71,1891.11 1068.26,1884.73 1068.52,1882.46 1067.57,1880.32 1065.06,1879 1064.47,1877.49 1063.62,1877.81 1063.79,1876.07 1062.43,1874.07 1061.04,1874.08 1059.84,1872.6 1059.11,1873.02 1059.4,1870.03 1056.48,1868.48 1055.82,1867.12 1053.84,1867.21 1052.85,1865.38 1050.17,1866.22 1049.58,1865.42 1046.98,1864.98 1038.93,1861.41 1022.76,1856.86 1018.8,1853.85 1012.48,1846.38 1003.63,1841.14 1003.03,1840.04 1001.03,1839.28 997.71,1839.95 995.9,1838.8 993.71,1839.22 994.62,1837.1 992.68,1835.13 993.02,1834.24 990.49,1833.77 990.27,1832.77 988.3,1831.85 988.33,1830.76 986.32,1830.49 986.32,1829.3 985.16,1829.51 983.54,1826.87 981.86,1825.92 981.17,1826.51 976.84,1823.64 975.6,1823.85 975.74,1822.25 974.75,1821.02 975.68,1819.71 973.21,1817.2 973.41,1816.53 971.72,1816 971.44,1814.54 968.89,1811.99 966.81,1811.42 966.93,1810.52 964.08,1810.35 963.61,1809.03 962.44,1808.73 959.23,1805.05 944.16,1801.16 931.76,1799.36 927.78,1797.89 910.45,1784.86 903.53,1784.71 901.75,1783.57 900.96,1784.14 898.54,1782.72 897.13,1782.78 896.44,1781.39 891.5,1777.87 888.78,1777.45 886.82,1776.12 885.74,1774.07 882.61,1773.57 880.64,1771.94 877.88,1773.53 877,1772.61 875.25,1772.87 875.26,1772.08 874.03,1771.67 872,1772.37 870.55,1769.17 871.1,1766.67 869.53,1765.05 855.5,1758.89 852.1,1759.13 844.34,1754.93 843.5,1755.48 838.06,1753.35 835.03,1753.8 832.23,1752.63 830.29,1753.38 829.67,1754.52 829.8,1752.23 826.88,1749.55 815.81,1745.12 812.15,1742.99 810.38,1740.35 803.57,1736.5 802.95,1734.96 800.84,1734.11 799.79,1732.61 796.86,1732.36 796.59,1731.16 795.28,1730.27 796.07,1727.57 793.09,1723.46 780.59,1717.22 773.68,1715.23 772.63,1712.69 769.81,1710.92 768.48,1710.72 767.17,1711.74 766.26,1711.03 764.85,1712.09 764.85,1711.26 762.62,1711.37 760.79,1710.02 759.94,1710.53 757.72,1709.88 753.19,1706.15 750.75,1701.89 750.74,1698.72 749.74,1698.01 730.69,1691.19 715.14,1682.66 711.58,1681.41 710.19,1682.19 710.78,1680.18 706.64,1676.9 697.7,1673.28 696.57,1671.08 694.91,1670.21 689.1,1669.4 687.3,1668.19 687.71,1667.4 686.45,1666.1 684.6,1666.05 683.5,1664.65 680.37,1664.29 679.63,1662.67 678.43,1662.81 678.19,1661.28 674.82,1660.06 675.64,1658.67 677.63,1658.48 678.21,1659.1 678.89,1658.53 679.01,1655.84 677.86,1653.98 674.59,1651.79 672.61,1651.98 672.19,1651.1 671.14,1651.21 670.86,1650.11 667.5,1647.44 671.79,1648.04 672.47,1645.55 670.81,1642.26 666.39,1638.55 662.14,1636.63 659.99,1636.18 658.61,1637.48 658.75,1636.42 657.73,1635.5 656.29,1636.76 656.33,1634.23 655,1632.97 653.89,1629.12 652.38,1627.76 651.93,1625.08 649.89,1623.3 648.89,1620.5 644.35,1618.19 642.6,1616.39 643.67,1613.08 641.9,1610.83 635.15,1606.21 623.95,1600.84 615.78,1594.79 605.85,1589.96 606.55,1589.11 605.73,1587.49 599.46,1583.79 598.31,1581.98 598.01,1574.36 593.39,1569.35 594.42,1567.34 593.63,1563.53 586.65,1558.6 583.81,1554.56 576.47,1550.48 575.55,1548.48 579.12,1548.37 579.71,1546.73 576.27,1538.15 570.79,1534.3 569.99,1531.56 567.92,1531.05 568.06,1529.94 567.08,1529.17 564.28,1529.47 563.52,1528.27 562.33,1528.33 563.89,1531.04 564.21,1530.3 562.27,1534.54 561.91,1532.68 560.04,1530.57 561.56,1529.4 560.82,1527.88 561.43,1526.72 560.95,1523.77 560.14,1522.58 561.81,1521.88 561.78,1519.66 563.03,1519.7 563.41,1519 562.38,1516.89 563.19,1515.18 560.77,1512.66 562.38,1510.94 562.08,1507.83 559.74,1505.31 561.08,1504.19 561.04,1503.22 559.71,1502.75 559.45,1501.56 558.11,1501.38 557.55,1503.93 556.32,1504.95 555.17,1503.92 553.41,1504.73 552.75,1503.77 549.18,1503.24 550.25,1496.25 552.13,1494.61 551.77,1492.49 552.37,1491.88 559.55,1490.69 560.38,1491.19 558.01,1496.57 559.47,1495.59 563.26,1498.57 564.35,1497.31 563.59,1495.64 564.64,1494.86 564.4,1492.89 567.24,1483.49 567.5,1478.5 569.25,1474.71 570.69,1466.11 570.76,1453.77 568.2,1445.8 563.8,1438.87 558.26,1432.74 549.2,1420.32 538.97,1408.86 539.77,1407.81 536.3,1400.78 537.24,1399.96 537.33,1397.63 535.82,1389.5 531.74,1386.43 530.94,1384.59 526.42,1381.79 525.44,1379.83 523.4,1378.31 524.21,1375.79 521.43,1373.31 521.12,1370.94 519.73,1369.26 519.76,1365.84 516.33,1362.36 515.85,1360.12 510.61,1355.52 505.92,1353.04 506.44,1352.05 505.72,1351.46 506.49,1350.92 505.94,1349.95 507.23,1349.66 507.81,1346.01 508.89,1345.36 508.17,1342.92 508.73,1341.8 507.97,1341.12 508.61,1340.64 507.32,1339.79 506.23,1337.18 504.42,1336.23 504.2,1334.87 503.39,1335.2 502.35,1332.35 500.54,1330.8 491,1324.8 481.18,1320.6 480.99,1318.08 481.62,1317.45 481.09,1316.51 482.2,1316.26 482.48,1314.37 479.52,1310.69 471.19,1306.19 468.81,1305.82 467.97,1306.69 467.14,1306.42 469.46,1304.89 468.7,1303.91 469.62,1304.55 469.69,1303.33 470.26,1303.59 470.04,1302.61 468.73,1303.57 470.56,1298.44 470.86,1294.45 468.25,1284.53 465.3,1281.34 466.22,1277.4 464.92,1275.42 464.08,1275.4 464.06,1273.76 466.43,1274.22 467.03,1270.28 463.99,1265.97 464.64,1264.38 462.89,1260.86 456.13,1255.34 455.28,1255.93 454.51,1255.26 455.34,1255.87 455.75,1255.28 454.96,1254.5 456.29,1253.94 455.77,1251.47 453.59,1249.04 452.95,1246.77 448.74,1243.73 448.68,1242.34 446.8,1240.84 432.42,1232.11 416.42,1224.16 416.67,1223.47 415.79,1222.93 416.94,1222.84 417.27,1221.24 416.21,1217.93 416.84,1216.91 416.48,1215.47 418.17,1214.39 418.75,1215.03 421.23,1214.52 422.08,1210.64 421.04,1207.62 419.17,1205.26 420.04,1204.47 419.73,1203.39 417.71,1201.7 418.36,1200.77 417.39,1199.33 417.79,1197.52 414.71,1193.08 416.27,1191.53 414.38,1187.33 414.7,1186.44 410.33,1179.57 409.64,1177.95 410.18,1176.29 405.24,1172.34 404.83,1170.73 405.94,1169.74 404.91,1167.94 403.64,1167.36 403.94,1166.54 402.96,1165.2 399.56,1162.43 398.87,1159.8 390.8,1150.34 388.4,1145.76 389.1,1144.98 388.43,1143.04 385.11,1139.29 382.33,1137.59 382.55,1135.25 380.72,1131.86 377.11,1128.87 378.47,1127.37 377.83,1125.41 372.75,1121.85 372.85,1119.16 371.99,1117.78 372.52,1117.36 369.33,1114.56 369.93,1111.36 368.78,1110.8 369.26,1109.52 367.73,1106.43 366.48,1105.88 365.47,1103.79 361.13,1100.7 360.03,1097.27 358.77,1096.69 359.04,1095.73 360.66,1094.89 359.75,1089.72 357.64,1087.09 357.81,1085.04 357.07,1082.96 356.13,1082.54 356.18,1081.39 353.47,1079.78 354.13,1079.43 353.61,1078.71 354.39,1078.49 353.74,1075.44 354.32,1074.86 352.28,1070.87 352.46,1069.66 353.32,1069.32 352.88,1067.18 353.74,1066.79 354.2,1063.22 346.68,1055.69 346.81,1053.47 345.54,1052.4 345.43,1051.14 344.18,1050.95 344.28,1049.45 342.48,1048.14 341.63,1045.77 340.03,1044.81 339.11,1045.34 339.71,1043.73 338.54,1040.78 339.26,1040.23 338.62,1038.61 339.1,1037.87 336.45,1034.89 337.15,1033.78 335.91,1031.75 336.04,1029.16 335.01,1028.85 337.18,1026.81 337.25,1025.81 336.13,1024.31 334.65,1024.68 334.75,1023.49 332.81,1022.72 332.63,1019.94 331.87,1019.81 332.28,1017.86 334.1,1017.64 334.4,1016.8 332.52,1016.64 332.77,1014.7 331.28,1014.44 330.78,1013 329.98,1013.35 328.24,1012.38 326.78,1013.72 326.96,1012.47 324.97,1011.5 324.98,1008.8 321.98,1007.45 325.56,1005.1 326.33,1001.51 326.18,999.91 323.77,997.3 321.09,996.79 317.85,997.95 318.98,1003.34 317.32,1002.14 316.7,1000.19 315.78,999.97 316.51,999.03 315.11,999.15 313.71,996.99 312.96,997.08 312.97,995.36 314.25,996.12 315.63,995.76 316.04,996.47 317.44,996.14 318.36,993.99 318.01,990.97 315.27,986.82 313.34,986.27 312.61,986.76 312.7,986.14 312.13,986.77 312.42,985.98 311.45,986.85 310.76,986.1 309.9,983.34 310.33,981.29 311.49,980.08 310.37,978.8 307.71,977.81 307.65,976.76 308.49,977.27 309.19,976.23 308.09,969.77 296.53,954.14 296.53,952.32 298.44,950.51 298.95,947.96 297.76,944.28 298.58,942.76 298.26,940.67 295.79,934.73 292.75,930.63 287.68,926.05 280.01,920.91 277.82,918.31 277.76,917.25 279.63,917.66 280.48,916.99 281.73,912.49 274.99,902.48 274.74,899.92 271.75,896.43 271.27,896.72 272.01,896.03 271.55,895.62 272.58,895.81 272.25,894.29 257.99,881.88 256.8,878.28 237.52,863.84 237.16,862.45 230.34,855.24 228.99,850.29 220.45,841.69 220.13,841.06 223.51,839.48 223.37,836.61 208.21,814.32 206.98,809.42 208.98,806.75 206.91,802.66 206.55,797.67 204.03,792.78 195.72,783.96 196.7,781.42 196.32,778.37 190.07,770.99 176.82,759.86 176.22,757.32 169.85,752.05 168.76,746.84 163.76,738.42 154.18,730.88 134.65,718.86 104.99,703.87 77.66,691.41 66.01,681.56 44.08,668.34 39.8,661.63 38.47,658.32 38.8,652.8 38.06,648.29 40.07,646.2 40.72,643.17 43.69,642.67 44.92,640.27 45.09,637.71 46.46,637.06 51.75,641.65 59.01,643.33 62.44,642.27 65.42,639.61 68.21,635.01 69.47,628.96 69.73,622.68 66.24,611.36 59.97,600.39 47.52,588.19 44.04,585.99 41.64,586.59 38.3,581.11 32.03,575.52 34.99,570.79 33.61,567.14 35.58,565.97 34.41,562.41 34.78,561.54 35.6,560.64 37.06,561.29 38.55,560.26 40.69,561.85 43.04,561.48 45.99,558.05 46.15,556.32 44.59,551.37 42.56,548.09 37.14,542.86 32.06,536.09 16.88,519.08 16.93,517.58 18.9,516.57 21.15,507.38 22.51,507.07 21.51,502.76 19.01,497.2 19.42,494.95 22.25,493.33 24.12,488.45 24.56,483.2 23.37,478.75 24.03,474.97 25.59,472.42 27.31,472.07 29.31,469.83 31.99,468.76 35.42,464.46 37.19,464.07 40.15,459.08 45.07,456.31 49.58,449.51 52.15,443.37 53.48,442.56 54.56,440.47 68.22,431.43 68.79,427.17 73.12,417.62 76.72,414.2 79.52,413.25 86.91,408.56 90.1,408 92.69,405.11 95.7,404.38 98.93,399.79 103.26,390.86 107.99,388.76 107.33,390.79 105.85,390.52 106.22,391.01 107.83,390.72 108.64,389.51 108.31,390.74 112.79,389.5 112.8,390.45 111.75,391.07 112.34,391.31 116.58,389.55 117.96,388.14 116.69,388.46 119.47,386.57 121.79,383.72 124.24,378.98 124.67,379.78 123.98,379.84 124.35,379.19 123.89,379.95 124.52,379.97 125.63,382.38 127.85,383.86 130.62,383.43 130.68,384.48 131.31,384.32 130.69,383.38 132.69,382.88 136.08,384.04 139.23,382.9 139.6,383.43 139.6,382.44 141.21,382.56 144.29,381.24 145.85,381.51 145.63,382.2 146,381.54 150.3,380.86 150.76,379.83 151.12,382.03 151.19,380.09 151.56,381.34 152.4,381.11 152.57,382.52 152.79,381.5 151.53,381.21 150.79,379.22 152.8,380.59 150.79,379.08 151.17,378.43 152.33,379.54 151.21,378.43 152.64,378.09 154.22,379.71 153.67,380.56 154.42,380.81 153.88,380.16 155.06,379.65 156.51,381.4 155.73,379.96 156.27,379.25 157.53,380.46 157.35,379.77 158.69,380.47 159.09,381.98 162.49,382.22 159.11,381.95 158.76,380.45 157.76,379.95 158.72,379.46 158.23,380.08 156.54,379.27 157.27,378.26 159.01,378.59 157.38,378.22 157.89,377.52 158.71,377.88 158.06,377.47 158.44,376.92 157.25,377.13 156.95,376.34 158.01,376.42 156.76,376.47 155.02,374.69 156.68,375.71 158.15,375.25 159.33,377.32 158.74,376.87 159.34,376.12 161.12,376.3 159.17,376.35 158.1,375.05 156.6,375.53 153.51,373.18 154.88,372.8 157.06,374.58 154.93,372.74 153.53,372.91 153.81,371.66 154.59,372.01 153.79,371.54 153.97,369.49 156.27,370.37 156.86,373.27 158.27,372.99 157.8,372.16 157.91,373.11 156.56,372.4 157.17,372.1 156.52,371.55 157.45,371.15 156.42,371.46 155.91,369.77 157.14,369.64 154.64,368.79 155.26,367.43 158.09,369.56 157.76,368.66 158.46,368.38 156.88,368.84 155.66,367.26 157.12,365.87 157.96,367.26 159.45,366.94 157.8,366.8 158.78,365.12 160.05,365.17 159.29,364.34 158.27,366.38 157.17,365.75 156.06,366.3 156.86,361.78 157.65,361.51 157.04,360.74 159.51,359 159.9,357.53 162.06,356.31 162.29,355.31 163.65,354.87 163.07,354.11 163.67,352.9 166.67,353.05 168.24,341.18 168.22,344.98 168.85,344.97 168.5,343.68 170.41,343.84 169.53,342.66 173.23,338.28 172.25,323.31 172.67,322.32 174.04,323.13 172.95,322.29 175.62,318.41 175.96,313.17 177.18,311.79 177.83,311.96 177.24,311.27 178.05,310.56 178.41,304.72 180.65,303.82 180.63,303.31 179.86,303.86 178.81,302.3 178.28,299.56 179.65,298.45 184.51,297.06 186.49,293.01 185.62,289.01 188.84,289.18 190.63,287.35 190.2,285.24 191.7,285.36 191.16,285.2 191.89,284.67 191.54,283.88 193.26,284.86 191.8,283.89 193.29,283.19 191.7,283.86 191.06,283.21 191.81,283.32 191.15,283.11 191.97,282.07 191.02,283.12 189.83,282.16 191.95,280.99 187.75,282.57 185.74,281.51 188.32,279.92 189.45,280.38 188.92,278.95 189.06,279.74 184.6,281.65 184.4,282.66 180.45,283.63 177.93,279.84 177.34,274.75 173.71,270.21 174.51,264.91 171.7,264.9 170.64,269.45 171.29,274.21 166.93,289.5 164.89,290.9 166.62,287.15 166.73,284.05 167.91,282.57 166.56,280.12 168.1,280.31 169.05,279.36 168.3,275.32 169.62,274.17 168.21,275.17 166.73,273.06 169.08,272.69 167.7,271.83 167.09,270.22 168.57,269.96 167.17,269.91 168.25,264.96 169,265.81 168.51,264.11 166.9,270.23 166.23,269.66 166.49,268.39 165.12,268.27 164,266.53 165.44,265.43 164.83,264.34 166.16,263 164.88,263.11 165.09,259.72 165.99,258.67 168.3,258.51 168.29,259.11 169.29,258.54 169.44,260.14 169.25,256.86 169.99,255.82 169.14,256.63 168.96,255.85 169.02,258.49 165.01,257.69 165.08,255.99 165.79,255.73 164.78,254.51 164.64,252.25 165.51,251.68 164.73,251.96 163.95,249.95 164.64,251.86 163.65,251.62 163.37,252.66 162.7,252.55 163.05,250.93 161.95,253.07 159.95,252.63 158.7,254.45 157.82,254.58 158.17,253.86 157.56,253.73 157.51,254.96 156.69,253.87 156.87,254.66 155.25,254.23 157.25,254.81 156.76,255.67 157.31,254.91 157.2,256.32 157.65,255.98 158.41,257.01 156.14,257.31 156.6,257.97 155.93,258.94 154.88,258.44 157.64,261.12 157.92,263.84 159.07,263.83 157.16,265.07 154.9,264.79 154.57,263.31 155.48,263.36 155.57,264.41 155.7,263.13 156.63,264.28 156.48,263.25 155.5,262.99 156.64,262.51 156.52,261.77 154.95,263.3 155.48,262.4 154.88,261.71 155.44,262.43 153.94,263.86 153.31,263.45 153.65,262.41 152.99,262.76 153.25,263.52 152.16,263.33 152.11,262.45 152.37,263.91 151.26,263.33 153.5,265.75 152.52,266.82 152.16,269.94 150.1,271.41 148.75,269.99 149.43,269.99 149.34,268.27 149.29,270.05 144.94,272.12 145.44,273.12 146.96,273.61 146.06,275.88 147.5,277.26 146.16,278.82 146.98,280.69 145.66,282.51 145.03,282.14 145.05,284.13 140.16,289.62 139.43,289.33 139.7,286.42 138.92,284.71 140.48,283.33 140.66,281.04 142.06,280.25 140.52,281.12 140.65,280.04 140.41,283.25 138.73,284.74 138.4,282.17 137.36,282.36 137.99,281.61 136.69,281.27 137.43,280.46 137.84,280.95 137.92,280.05 137.83,280.67 136.94,280.56 136.71,279.83 136.25,281.21 136.06,279.39 135.98,281.25 134.7,280.31 135.68,280.76 134.32,281.83 134.81,282.12 133.8,282.85 133.78,284.21 134.18,283.88 134.58,284.95 135.19,284.08 134.8,284.85 135.33,284.4 135.57,285.35 135.92,284.91 137.34,285.79 135.83,287.71 132.94,284.9 133.38,283.92 132.12,285.83 130.18,283.16 131.54,285.11 130.87,285.38 132.1,286.3 130.68,286.3 130.04,287.09 129.41,286.34 129.21,287.43 129.45,286.38 130.1,287.14 130.71,286.37 133.25,286.02 132.51,285.7 133.36,285.14 135.29,288.1 136.78,287.57 138.82,289.26 137.36,292.45 132.75,294.02 132.41,291.47 133.33,291.72 133.06,292.22 134.04,292 133.51,292.88 134.52,292.55 134.91,291.15 135.68,291.31 134.79,290.91 134.26,292.13 134.28,291.09 132.84,291.56 132.52,290.69 131.91,291.67 132.14,289.99 131.21,291.03 131.34,289.87 130.77,289.58 130.77,290.24 130.16,289.32 131.31,290.56 130.75,291.39 131.84,290.67 132.85,294.87 129.83,297.71 128.32,297.53 128.97,302.32 130.2,304.41 128.82,308.38 122.24,305.36 116.5,300.78 113.64,297.23 111.57,298.03 109.14,297.7 101.22,289.07 82.76,272.74 81.58,272.27 81.06,272.83 78.01,271.12 72.08,271.02 69.21,269.92 61.45,264.08 59.81,264.46 59.58,265.77 58.64,265.2 58.91,263.24 56.11,259.04 46.28,249.76 48.57,249.29 50.5,251.5 52.47,251.12 53.87,252.94 56,252.58 56.07,253.16 63.76,250.03 67.18,245.93 69.26,245.9 72.62,243.05 74.52,240.13 75.8,234.94 75.56,231.41 74.11,230.16 73.3,227.78 73.92,227.06 72.67,226.45 75.68,224.95 76.48,222.85 75.55,216.4 72.69,209.45 73.06,208.69 71.19,202.14 67.52,197.37 65.47,191.47 63.23,188.84 63.29,187.11 62.14,185.93 63.39,184.76 63.47,182.29 66.53,181.34 66.18,176.08 66.87,176.1 67.5,174.57 68.53,174.48 68.68,172.7 70.13,173.32 71.33,172.31 71.28,168.17 72.96,166.28 71.76,162.93 73.94,160.94 74.24,159.47 71.7,154.64 61.76,142.9 58.8,137.83 54.92,127.46 55.8,126.68 55.88,125.2 59.07,123.02 63.75,116.25 68.22,116.39 75.57,113.14 74.9,114.24 75.41,114.94 78.04,115.13 80.45,114 81.41,112.64 82.36,112.79 83.4,114.42 86.52,114.62 90.15,112.76 92.91,109.74 95.14,105.66 98.36,91.85 102.09,81.31 104,78.14 108.57,75.98 107.27,74.04 105.56,73.27 102.87,61.34 100.91,59.82 99.2,55.42 99.71,51.56 101.81,51.68 108.36,45.54 111.25,37.1 114.91,34.62 116.98,30.3 118.26,31.74 119.59,32.08 121.14,31.36 137.32,15.63 1384,17.7 1349.1,1988.39 1171.05,1985.67" fill="none" stroke="#1e1e1e" stroke-width="1.06" stroke-linecap="round" stroke-linejoin="round"/>
<path d="M144.96,327.22L146.09,327.64L144.78,326.05L146.32,326.07L147.95,327.17L147.73,328.79L144.77,328.81L144.44,326.99L144.82,326.3L144.96,327.22Z" fill-rule="evenodd" fill="#4682b4" fill-opacity="0.471"/>
<polyline points="144.96,327.22 146.09,327.64 144.78,326.05 146.32,326.07 147.95,327.17 147.73,328.79 144.77,328.81 144.44,326.99 144.82,326.3 144.96,327.22" fill="none" stroke="#1e1e1e" stroke-width="1.06" stroke-linecap="round" stroke-linejoin="round"/>
<path d="M147.99,328.49L148.05,326.8L145.01,324.37L149.37,326.01L149.33,328.58L147.99,328.49Z" fill-rule="evenodd" fill="#4682b4" fill-opacity="0.471"/>
<polyline points="147.99,328.49 148.05,326.8 145.01,324.37 149.37,326.01 149.33,328.58 147.99,328.49" fill="none" stroke="#1e1e1e" stroke-width="1.06" stroke-linecap="round" stroke-linejoin="round"/>
<path d="M162.77,255.84L160.73,255.41L160.7,254.73L160.61,255.47L161.92,255.92L161.08,256.6L163.31,260.17L162.06,260.22L161.43,259.16L162,260.48L160.63,261.64L158.66,260.85L160.08,258.92L157.93,255.21L159.26,254.56L159.12,255.36L159.74,255.02L159.31,254.41L160.11,252.91L162.21,253.41L162.96,254.33L162.77,255.84Z" fill-rule="evenodd" fill="#4682b4" fill-opacity="0.471"/>
<polyline points="162.77,255.84 160.73,255.41 160.7,254.73 160.61,255.47 161.92,255.92 161.08,256.6 163.31,260.17 162.06,260.22 161.43,259.16 162,260.48 160.63,261.64 158.66,260.85 160.08,258.92 157.93,255.21 159.26,254.56 159.12,255.36 159.74,255.02 159.31,254.41 160.11,252.91 162.21,253.41 162.96,254.33 162.77,255.84" fill="none" stroke="#1e1e1e" stroke-width="1.06" stroke-linecap="round" stroke-linejoin="round"/>
<path d="M156.31,296.88L155.51,296.49L157.74,296.04L156.31,296.88Z" fill-rule="evenodd" fill="#4682b4" fill-opacity="0.471"/>
<polyline points="156.31,296.88 155.51,296.49 157.74,296.04 156.31,296.88" fill="none" stroke="#1e1e1e" stroke-width="1.06" stroke-linecap="round" stroke-linejoin="round"/>
<path d="M162.49,293.67L162.42,298.65L156.05,297.29L159.78,294.74L160.46,293.42L162.49,293.67Z" fill-rule="evenodd" fill="#4682b4" fill-opacity="0.471"/>
<polyline points="162.49,293.67 162.42,298.65 156.05,297.29 159.78,294.74 160.46,293.42 162.49,293.67" fill="none" stroke="#1e1e1e" stroke-width="1.06" stroke-linecap="round" stroke-linejoin="round"/>
<path d="M154.6,293.34L157.41,292.61L160.17,293.84L159.57,294.62L154.69,295.98L154.07,295.58L154.6,293.34Z" fill-rule="evenodd" fill="#4682b4" fill-opacity="0.471"/>
<polyline points="154.6,293.34 157.41,292.61 160.17,293.84 159.57,294.62 154.69,295.98 154.07,295.58 154.6,293.34" fill="none" stroke="#1e1e1e" stroke-width="1.06" stroke-linecap="round" stroke-linejoin="round"/>
<path d="M135.79,297.6L136.52,297.78L136.1,298.48L134.59,298.63L135.79,297.6Z" fill-rule="evenodd" fill="#4682b4" fill-opacity="0.471"/>
<polyline points="135.79,297.6 136.52,297.78 136.1,298.48 134.59,298.63 135.79,297.6" fill="none" stroke="#1e1e1e" stroke-width="1.06" stroke-linecap="round" stroke-linejoin="round"/>
<path d="M135.84,300.03L137.52,298.54L135.84,300.03Z" fill-rule="evenodd" fill="#4682b4" fill-opacity="0.471"/>
<polyline points="135.84,300.03 137.52,298.54 135.84,300.03" fill="none" stroke="#1e1e1e" stroke-width="1.06" stroke-linecap="round" stroke-linejoin="round"/>
<path d="M36.86,151.66L37.75,149.43L40.51,152.2L39.51,152.64L36.86,151.66Z" fill-rule="evenodd" fill="#4682b4" fill-opacity="0.471"/>
<polyline points="36.86,151.66 37.75,149.43 40.51,152.2 39.51,152.64 36.86,151.66" fill="none" stroke="#1e1e1e" stroke-width="1.06" stroke-linecap="round" stroke-linejoin="round"/>
<path d="M165.58,258.46L164.96,259.11L164.77,257.96L165.58,258.46Z" fill-rule="evenodd" fill="#4682b4" fill-opacity="0.471"/>
<polyline points="165.58,258.46 164.96,259.11 164.77,257.96 165.58,258.46" fill="none" stroke="#1e1e1e" stroke-width="1.06" stroke-linecap="round" stroke-linejoin="round"/>
<path d="M162.2,266L163.29,265.44L161.76,266.1L162.36,265.25L161.12,264.1L162.23,261.63L164.55,261.82L165.07,265.48L164.35,265.19L164.99,265.73L163.96,265.88L164.33,267.4L163.18,267.52L163.52,267.03L162.2,266Z" fill-rule="evenodd" fill="#4682b4" fill-opacity="0.471"/>
<polyline points="162.2,266 163.29,265.44 161.76,266.1 162.36,265.25 161.12,264.1 162.23,261.63 164.55,261.82 165.07,265.48 164.35,265.19 164.99,265.73 163.96,265.88 164.33,267.4 163.18,267.52 163.52,267.03 162.2,266" fill="none" stroke="#1e1e1e" stroke-width="1.06" stroke-linecap="round" stroke-linejoin="round"/>
<path d="M164.2,257.85L164.41,260.59L162.21,259.01L162.78,258.3L162.25,256.52L161.5,256.46L162.71,255.98L164.2,257.85Z" fill-rule="evenodd" fill="#4682b4" fill-opacity="0.471"/>
<polyline points="164.2,257.85 164.41,260.59 162.21,259.01 162.78,258.3 162.25,256.52 161.5,256.46 162.71,255.98 164.2,257.85" fill="none" stroke="#1e1e1e" stroke-width="1.06" stroke-linecap="round" stroke-linejoin="round"/>
<path d="M165.69,273.52L166.73,273.35L166.61,274.09L165.69,273.52Z" fill-rule="evenodd" fill="#4682b4" fill-opacity="0.471"/>
<polyline points="165.69,273.52 166.73,273.35 166.61,274.09 165.69,273.52" fill="none" stroke="#1e1e1e" stroke-width="1.06" stroke-linecap="round" stroke-linejoin="round"/>
<path d="M184.3,282.93L182.23,284.25L184.3,282.93Z" fill-rule="evenodd" fill="#4682b4" fill-opacity="0.471"/>
<polyline points="184.3,282.93 182.23,284.25 184.3,282.93" fill="none" stroke="#1e1e1e" stroke-width="1.06" stroke-linecap="round" stroke-linejoin="round"/>
<path d="M148.88,289.8L150.45,287.74L151.3,287.65L150.94,289.31L148.88,289.8Z" fill-rule="evenodd" fill="#4682b4" fill-opacity="0.471"/>
<polyline points="148.88,289.8 150.45,287.74 151.3,287.65 150.94,289.31 148.88,289.8" fill="none" stroke="#1e1e1e" stroke-width="1.06" stroke-linecap="round" stroke-linejoin="round"/>
<path d="M162.38,266.59L162.87,267.41L162.38,266.59Z" fill-rule="evenodd" fill="#4682b4" fill-opacity="0.471"/>
<polyline points="162.38,266.59 162.87,267.41 162.38,266.59" fill="none" stroke="#1e1e1e" stroke-width="1.06" stroke-linecap="round" stroke-linejoin="round"/>
<path d="M165.48,270.7L165.58,269L164.36,269.13L164.56,268.02L166.51,268.6L165.48,270.7Z" fill-rule="evenodd" fill="#4682b4" fill-opacity="0.471"/>
<polyline points="165.48,270.7 165.58,269 164.36,269.13 164.56,268.02 166.51,268.6 165.48,270.7" fill="none" stroke="#1e1e1e" stroke-width="1.06" stroke-linecap="round" stroke-linejoin="round"/>
<path d="M177.81,291.68L180.63,294.62L180.73,296.22L179.23,296.9L177.52,296.03L177.81,291.68Z" fill-rule="evenodd" fill="#4682b4" fill-opacity="0.471"/>
<polyline points="177.81,291.68 180.63,294.62 180.73,296.22 179.23,296.9 177.52,296.03 177.81,291.68" fill="none" stroke="#1e1e1e" stroke-width="1.06" stroke-linecap="round" stroke-linejoin="round"/>
<path d="M185.25,281.92L188.97,283.93L187.76,284.73L188.7,286.23L188.47,287.6L186.32,287.72L185.1,285.84L185.25,281.92Z" fill-rule="evenodd" fill="#4682b4" fill-opacity="0.471"/>
<polyline points="185.25,281.92 188.97,283.93 187.76,284.73 188.7,286.23 188.47,287.6 186.32,287.72 185.1,285.84 185.25,281.92" fill="none" stroke="#1e1e1e" stroke-width="1.06" stroke-linecap="round" stroke-linejoin="round"/>
<path d="M183.33,287.43L181.4,287.23L183.08,287.36L183.14,288.14L180.82,287.81L183.11,288.26L182.35,289.57L184.91,290.44L185.63,293.01L182.74,296.13L181.07,296.02L180.47,294.15L177.96,291.65L178.26,289.27L179.75,285.37L184.49,283.9L184.91,286.44L186.04,287.36L184.66,289.96L182.5,289.4L183.33,287.43Z" fill-rule="evenodd" fill="#4682b4" fill-opacity="0.471"/>
<polyline points="183.33,287.43 181.4,287.23 183.08,287.36 183.14,288.14 180.82,287.81 183.11,288.26 182.35,289.57 184.91,290.44 185.63,293.01 182.74,296.13 181.07,296.02 180.47,294.15 177.96,291.65 178.26,289.27 179.75,285.37 184.49,283.9 184.91,286.44 186.04,287.36 184.66,289.96 182.5,289.4 183.33,287.43" fill="none" stroke="#1e1e1e" stroke-width="1.06" stroke-linecap="round" stroke-linejoin="round"/>
<path d="M162.41,268.15L160.75,267.94L161.37,267.31L162.94,267.68L162.41,268.15Z" fill-rule="evenodd" fill="#4682b4" fill-opacity="0.471"/>
<polyline points="162.41,268.15 160.75,267.94 161.37,267.31 162.94,267.68 162.41,268.15" fill="none" stroke="#1e1e1e" stroke-width="1.06" stroke-linecap="round" stroke-linejoin="round"/>
<path d="M163.82,270.2L163.09,269.23L164.36,269.45L163.82,270.2Z" fill-rule="evenodd" fill="#4682b4" fill-opacity="0.471"/>
<polyline points="163.82,270.2 163.09,269.23 164.36,269.45 163.82,270.2" fill="none" stroke="#1e1e1e" stroke-width="1.06" stroke-linecap="round" stroke-linejoin="round"/>
<path d="M165.58,301.14L164.74,300.04L165.64,299.33L165.58,301.14Z" fill-rule="evenodd" fill="#4682b4" fill-opacity="0.471"/>
<polyline points="165.58,301.14 164.74,300.04 165.64,299.33 165.58,301.14" fill="none" stroke="#1e1e1e" stroke-width="1.06" stroke-linecap="round" stroke-linejoin="round"/>
<path d="M162.2,265.22L160.63,265.92L160.84,266.71L159.81,266.15L161.04,266.89L160.57,267.83L158.79,266.69L159.97,267.68L159.89,269.56L158.5,269.43L159.08,268.58L157.45,267.19L160.78,263.72L160.74,264.9L162.2,265.22Z" fill-rule="evenodd" fill="#4682b4" fill-opacity="0.471"/>
<polyline points="162.2,265.22 160.63,265.92 160.84,266.71 159.81,266.15 161.04,266.89 160.57,267.83 158.79,266.69 159.97,267.68 159.89,269.56 158.5,269.43 159.08,268.58 157.45,267.19 160.78,263.72 160.74,264.9 162.2,265.22" fill="none" stroke="#1e1e1e" stroke-width="1.06" stroke-linecap="round" stroke-linejoin="round"/>
<path d="M174.44,280L172.81,276.09L173.73,271.61L176.59,274.98L176.66,279.54L178.92,282.77L178.92,284L177.98,284.7L177.09,284.25L174.44,280Z" fill-rule="evenodd" fill="#4682b4" fill-opacity="0.471"/>
<polyline points="174.44,280 172.81,276.09 173.73,271.61 176.59,274.98 176.66,279.54 178.92,282.77 178.92,284 177.98,284.7 177.09,284.25 174.44,280" fill="none" stroke="#1e1e1e" stroke-width="1.06" stroke-linecap="round" stroke-linejoin="round"/>
<path d="M167.17,276L167.97,274.88L168.58,276.16L167.17,276Z" fill-rule="evenodd" fill="#4682b4" fill-opacity="0.471"/>
<polyline points="167.17,276 167.97,274.88 168.58,276.16 167.17,276" fill="none" stroke="#1e1e1e" stroke-width="1.06" stroke-linecap="round" stroke-linejoin="round"/>
<path d="M164.56,270.6L164.11,270.08L164.91,269.58L164.56,270.6Z" fill-rule="evenodd" fill="#4682b4" fill-opacity="0.471"/>
<polyline points="164.56,270.6 164.11,270.08 164.91,269.58 164.56,270.6" fill="none" stroke="#1e1e1e" stroke-width="1.06" stroke-linecap="round" stroke-linejoin="round"/>
<path d="M162.08,270.67L163.79,270.35L164.11,271.1L163.34,271.67L162.08,270.67Z" fill-rule="evenodd" fill="#4682b4" fill-opacity="0.471"/>
<polyline points="162.08,270.67 163.79,270.35 164.11,271.1 163.34,271.67 162.08,270.67" fill="none" stroke="#1e1e1e" stroke-width="1.06" stroke-linecap="round" stroke-linejoin="round"/>
<path d="M160.36,271.46L159.19,272.6L158.45,271.44L159.29,270.71L160.36,271.46Z" fill-rule="evenodd" fill="#4682b4" fill-opacity="0.471"/>
<polyline points="160.36,271.46 159.19,272.6 158.45,271.44 159.29,270.71 160.36,271.46" fill="none" stroke="#1e1e1e" stroke-width="1.06" stroke-linecap="round" stroke-linejoin="round"/>
<path d="M168.85,272.33L166.79,272.5L167.4,271.89L168.85,272.33Z" fill-rule="evenodd" fill="#4682b4" fill-opacity="0.471"/>
<polyline points="168.85,272.33 166.79,272.5 167.4,271.89 168.85,272.33" fill="none" stroke="#1e1e1e" stroke-width="1.06" stroke-linecap="round" stroke-linejoin="round"/>
<path d="M167.08,276.33L168.7,276.45L167.95,278.34L167.16,278.1L167.08,276.33Z" fill-rule="evenodd" fill="#4682b4" fill-opacity="0.471"/>
<polyline points="167.08,276.33 168.7,276.45 167.95,278.34 167.16,278.1 167.08,276.33" fill="none" stroke="#1e1e1e" stroke-width="1.06" stroke-linecap="round" stroke-linejoin="round"/>
<path d="M165.92,272.63L165.49,274.1L163.33,273.66L163.51,273.01L164.82,273.03L164.11,273.15L164.14,272.51L162.72,273.67L163.46,271.98L165.92,272.63Z" fill-rule="evenodd" fill="#4682b4" fill-opacity="0.471"/>
<polyline points="165.92,272.63 165.49,274.1 163.33,273.66 163.51,273.01 164.82,273.03 164.11,273.15 164.14,272.51 162.72,273.67 163.46,271.98 165.92,272.63" fill="none" stroke="#1e1e1e" stroke-width="1.06" stroke-linecap="round" stroke-linejoin="round"/>
<path d="M167.74,274.69L165.66,277.94L164.2,277.46L164.26,276.18L163.9,276.7L163.28,275.72L163.9,273.68L165.37,274.35L165.16,275.36L165.79,274.21L166.17,275.33L165.84,274.3L166.87,273.79L167.74,274.69Z" fill-rule="evenodd" fill="#4682b4" fill-opacity="0.471"/>
<polyline points="167.74,274.69 165.66,277.94 164.2,277.46 164.26,276.18 163.9,276.7 163.28,275.72 163.9,273.68 165.37,274.35 165.16,275.36 165.79,274.21 166.17,275.33 165.84,274.3 166.87,273.79 167.74,274.69" fill="none" stroke="#1e1e1e" stroke-width="1.06" stroke-linecap="round" stroke-linejoin="round"/>
<path d="M162.93,269.06L162.63,268.39L163.45,267.72L164.48,268.01L164.1,269.06L162.93,269.06Z" fill-rule="evenodd" fill="#4682b4" fill-opacity="0.471"/>
<polyline points="162.93,269.06 162.63,268.39 163.45,267.72 164.48,268.01 164.1,269.06 162.93,269.06" fill="none" stroke="#1e1e1e" stroke-width="1.06" stroke-linecap="round" stroke-linejoin="round"/>
<path d="M164.47,269.26L165.55,269.02L164.47,269.26Z" fill-rule="evenodd" fill="#4682b4" fill-opacity="0.471"/>
<polyline points="164.47,269.26 165.55,269.02 164.47,269.26" fill="none" stroke="#1e1e1e" stroke-width="1.06" stroke-linecap="round" stroke-linejoin="round"/>
<path d="M166.2,270.71L166.36,269.86L167.55,271.06L166.37,273.1L165.74,272.98L166.17,271.95L165.53,272.36L165.64,271.55L165.43,272.36L163.91,271.83L164.98,270.2L166.2,270.71Z" fill-rule="evenodd" fill="#4682b4" fill-opacity="0.471"/>
<polyline points="166.2,270.71 166.36,269.86 167.55,271.06 166.37,273.1 165.74,272.98 166.17,271.95 165.53,272.36 165.64,271.55 165.43,272.36 163.91,271.83 164.98,270.2 166.2,270.71" fill="none" stroke="#1e1e1e" stroke-width="1.06" stroke-linecap="round" stroke-linejoin="round"/>
<path d="M172.4,299.32L168.62,298.27L168.05,297.38L170.99,281.26L172.22,278.29L175.74,286.8L173.82,293.61L173.69,298.17L172.4,299.32Z" fill-rule="evenodd" fill="#4682b4" fill-opacity="0.471"/>
<polyline points="172.4,299.32 168.62,298.27 168.05,297.38 170.99,281.26 172.22,278.29 175.74,286.8 173.82,293.61 173.69,298.17 172.4,299.32" fill="none" stroke="#1e1e1e" stroke-width="1.06" stroke-linecap="round" stroke-linejoin="round"/>
<path d="M162,283.59L163.46,282.46L163.34,280.24L164.72,280.97L166.41,280.7L167.81,282.29L166.53,284.15L166.46,287.22L164.73,289.94L164.92,291.43L162.76,290.64L162.37,289.08L163.44,288.38L162.23,288.64L162.34,287.63L163.52,287.82L163.93,287.11L164.66,287.66L165.06,286.67L164.31,287.28L163.81,286.82L164.83,285.58L163.22,287.79L160.17,285.82L158.66,286.15L158.29,284.96L160.21,285.27L158.39,285L157.82,284.05L158.2,283.09L162,283.59Z" fill-rule="evenodd" fill="#4682b4" fill-opacity="0.471"/>
<polyline points="162,283.59 163.46,282.46 163.34,280.24 164.72,280.97 166.41,280.7 167.81,282.29 166.53,284.15 166.46,287.22 164.73,289.94 164.92,291.43 162.76,290.64 162.37,289.08 163.44,288.38 162.23,288.64 162.34,287.63 163.52,287.82 163.93,287.11 164.66,287.66 165.06,286.67 164.31,287.28 163.81,286.82 164.83,285.58 163.22,287.79 160.17,285.82 158.66,286.15 158.29,284.96 160.21,285.27 158.39,285 157.82,284.05 158.2,283.09 162,283.59" fill="none" stroke="#1e1e1e" stroke-width="1.06" stroke-linecap="round" stroke-linejoin="round"/>
<path d="M175.92,283.35L177.55,284.87L176.91,285.79L175.92,283.35Z" fill-rule="evenodd" fill="#4682b4" fill-opacity="0.471"/>
<polyline points="175.92,283.35 177.55,284.87 176.91,285.79 175.92,283.35" fill="none" stroke="#1e1e1e" stroke-width="1.06" stroke-linecap="round" stroke-linejoin="round"/>
<path d="M150.98,294.29L152.91,293.63L150.98,294.29Z" fill-rule="evenodd" fill="#4682b4" fill-opacity="0.471"/>
<polyline points="150.98,294.29 152.91,293.63 150.98,294.29" fill="none" stroke="#1e1e1e" stroke-width="1.06" stroke-linecap="round" stroke-linejoin="round"/>
<path d="M153.91,292.62L153.8,291.81L154.83,291.93L153.91,292.62Z" fill-rule="evenodd" fill="#4682b4" fill-opacity="0.471"/>
<polyline points="153.91,292.62 153.8,291.81 154.83,291.93 153.91,292.62" fill="none" stroke="#1e1e1e" stroke-width="1.06" stroke-linecap="round" stroke-linejoin="round"/>
<path d="M153.01,293.4L149.57,293.87L149.45,292.52L153.74,291.89L153.01,293.4Z" fill-rule="evenodd" fill="#4682b4" fill-opacity="0.471"/>
<polyline points="153.01,293.4 149.57,293.87 149.45,292.52 153.74,291.89 153.01,293.4" fill="none" stroke="#1e1e1e" stroke-width="1.06" stroke-linecap="round" stroke-linejoin="round"/>
<path d="M141.12,303.75L142.81,303.08L141.12,303.75Z" fill-rule="evenodd" fill="#4682b4" fill-opacity="0.471"/>
<polyline points="141.12,303.75 142.81,303.08 141.12,303.75" fill="none" stroke="#1e1e1e" stroke-width="1.06" stroke-linecap="round" stroke-linejoin="round"/>
<path d="M152.55,263.87L154.15,264.35L154.43,263.63L154.91,264.61L153.16,265.07L152.55,263.87Z" fill-rule="evenodd" fill="#4682b4" fill-opacity="0.471"/>
<polyline points="152.55,263.87 154.15,264.35 154.43,263.63 154.91,264.61 153.16,265.07 152.55,263.87" fill="none" stroke="#1e1e1e" stroke-width="1.06" stroke-linecap="round" stroke-linejoin="round"/>
<path d="M159.37,274.12L156.03,274.81L155.98,272.59L155.08,271.56L158.57,271.73L159.62,272.86L160.37,272.08L162.96,272.08L162.43,273.7L163.27,274.49L162.96,275.58L159.37,274.12Z" fill-rule="evenodd" fill="#4682b4" fill-opacity="0.471"/>
<polyline points="159.37,274.12 156.03,274.81 155.98,272.59 155.08,271.56 158.57,271.73 159.62,272.86 160.37,272.08 162.96,272.08 162.43,273.7 163.27,274.49 162.96,275.58 159.37,274.12" fill="none" stroke="#1e1e1e" stroke-width="1.06" stroke-linecap="round" stroke-linejoin="round"/>
<path d="M163.06,279.33L166.64,278.27L168.18,278.57L168.5,277.59L169.02,278.58L168.04,280.22L166.73,279.91L164.96,280.92L163.13,280.18L163.06,279.33Z" fill-rule="evenodd" fill="#4682b4" fill-opacity="0.471"/>
<polyline points="163.06,279.33 166.64,278.27 168.18,278.57 168.5,277.59 169.02,278.58 168.04,280.22 166.73,279.91 164.96,280.92 163.13,280.18 163.06,279.33" fill="none" stroke="#1e1e1e" stroke-width="1.06" stroke-linecap="round" stroke-linejoin="round"/>
<path d="M161.2,269.25L159.76,268.41L160.02,267.93L162.4,268.34L163.41,270.41L161.64,270.5L161.2,269.25Z" fill-rule="evenodd" fill="#4682b4" fill-opacity="0.471"/>
<polyline points="161.2,269.25 159.76,268.41 160.02,267.93 162.4,268.34 163.41,270.41 161.64,270.5 161.2,269.25" fill="none" stroke="#1e1e1e" stroke-width="1.06" stroke-linecap="round" stroke-linejoin="round"/>
<path d="M160.83,269.16L162.29,272.04L160.3,271.86L161,270.79L160.3,271.39L159.28,270.55L160.83,269.16Z" fill-rule="evenodd" fill="#4682b4" fill-opacity="0.471"/>
<polyline points="160.83,269.16 162.29,272.04 160.3,271.86 161,270.79 160.3,271.39 159.28,270.55 160.83,269.16" fill="none" stroke="#1e1e1e" stroke-width="1.06" stroke-linecap="round" stroke-linejoin="round"/>
<path d="M147.13,273.7L146.37,272.36L144.96,272.37L145.37,271.79L146.72,271.18L147.75,271.62L148.08,272.5L147.13,273.7Z" fill-rule="evenodd" fill="#4682b4" fill-opacity="0.471"/>
<polyline points="147.13,273.7 146.37,272.36 144.96,272.37 145.37,271.79 146.72,271.18 147.75,271.62 148.08,272.5 147.13,273.7" fill="none" stroke="#1e1e1e" stroke-width="1.06" stroke-linecap="round" stroke-linejoin="round"/>
<path d="M145.45,272.62L146.33,272.43L146.54,273.14L145.45,272.62Z" fill-rule="evenodd" fill="#4682b4" fill-opacity="0.471"/>
<polyline points="145.45,272.62 146.33,272.43 146.54,273.14 145.45,272.62" fill="none" stroke="#1e1e1e" stroke-width="1.06" stroke-linecap="round" stroke-linejoin="round"/>
<path d="M146.62,278.98L147.67,277.04L146.3,275.9L148.34,272.7L148.03,271.41L148.73,270.21L150.56,272.22L148.55,277.85L147.51,279.1L146.62,278.98Z" fill-rule="evenodd" fill="#4682b4" fill-opacity="0.471"/>
<polyline points="146.62,278.98 147.67,277.04 146.3,275.9 148.34,272.7 148.03,271.41 148.73,270.21 150.56,272.22 148.55,277.85 147.51,279.1 146.62,278.98" fill="none" stroke="#1e1e1e" stroke-width="1.06" stroke-linecap="round" stroke-linejoin="round"/>
<path d="M157.85,256.88L159.34,259.05L158.34,258.91L158.79,259.35L158.08,260.77L159.9,262.51L158.11,263.74L157.79,261.1L155.75,259.71L156.8,258.42L156.7,257.16L157.3,257.92L157.85,256.88Z" fill-rule="evenodd" fill="#4682b4" fill-opacity="0.471"/>
<polyline points="157.85,256.88 159.34,259.05 158.34,258.91 158.79,259.35 158.08,260.77 159.9,262.51 158.11,263.74 157.79,261.1 155.75,259.71 156.8,258.42 156.7,257.16 157.3,257.92 157.85,256.88" fill="none" stroke="#1e1e1e" stroke-width="1.06" stroke-linecap="round" stroke-linejoin="round"/>
<path d="M139.62,323.78L140.13,322.74L140.25,324.08L139.62,323.78Z" fill-rule="evenodd" fill="#4682b4" fill-opacity="0.471"/>
<polyline points="139.62,323.78 140.13,322.74 140.25,324.08 139.62,323.78" fill="none" stroke="#1e1e1e" stroke-width="1.06" stroke-linecap="round" stroke-linejoin="round"/>
<path d="M126.53,375.14L131.58,380.71L130.11,379.74L126.42,379.69L126.8,378.67L125.99,379.3L125.07,376.71L125.57,379.48L124.24,377.49L128.5,370.45L126.53,375.14Z" fill-rule="evenodd" fill="#4682b4" fill-opacity="0.471"/>
<polyline points="126.53,375.14 131.58,380.71 130.11,379.74 126.42,379.69 126.8,378.67 125.99,379.3 125.07,376.71 125.57,379.48 124.24,377.49 128.5,370.45 126.53,375.14" fill="none" stroke="#1e1e1e" stroke-width="1.06" stroke-linecap="round" stroke-linejoin="round"/>
<path d="M129.33,376.73L128.79,375.31L129.33,376.73Z" fill-rule="evenodd" fill="#4682b4" fill-opacity="0.471"/>
<polyline points="129.33,376.73 128.79,375.31 129.33,376.73" fill="none" stroke="#1e1e1e" stroke-width="1.06" stroke-linecap="round" stroke-linejoin="round"/>
<path d="M127.97,376.38L128.6,377.2L127.97,376.38Z" fill-rule="evenodd" fill="#4682b4" fill-opacity="0.471"/>
<polyline points="127.97,376.38 128.6,377.2 127.97,376.38" fill="none" stroke="#1e1e1e" stroke-width="1.06" stroke-linecap="round" stroke-linejoin="round"/>
<path d="M153.83,358.27L155.8,363.9L154.15,365.94L151.66,365.45L149.98,366.73L152.41,359.71L153.83,358.27Z" fill-rule="evenodd" fill="#4682b4" fill-opacity="0.471"/>
<polyline points="153.83,358.27 155.8,363.9 154.15,365.94 151.66,365.45 149.98,366.73 152.41,359.71 153.83,358.27" fill="none" stroke="#1e1e1e" stroke-width="1.06" stroke-linecap="round" stroke-linejoin="round"/>
<path d="M125.35,381.3L126.96,382.15L126.8,382.7L125.61,382.27L125.35,381.3Z" fill-rule="evenodd" fill="#4682b4" fill-opacity="0.471"/>
<polyline points="125.35,381.3 126.96,382.15 126.8,382.7 125.61,382.27 125.35,381.3" fill="none" stroke="#1e1e1e" stroke-width="1.06" stroke-linecap="round" stroke-linejoin="round"/>
<path d="M129.89,382L127.01,381.78L126.38,380.74L129.45,380.63L131.33,381.72L129.89,382Z" fill-rule="evenodd" fill="#4682b4" fill-opacity="0.471"/>
<polyline points="129.89,382 127.01,381.78 126.38,380.74 129.45,380.63 131.33,381.72 129.89,382" fill="none" stroke="#1e1e1e" stroke-width="1.06" stroke-linecap="round" stroke-linejoin="round"/>
<path d="M178.99,304.1L178.99,302.48L179.71,303.72L178.99,304.1Z" fill-rule="evenodd" fill="#4682b4" fill-opacity="0.471"/>
<polyline points="178.99,304.1 178.99,302.48 179.71,303.72 178.99,304.1" fill="none" stroke="#1e1e1e" stroke-width="1.06" stroke-linecap="round" stroke-linejoin="round"/>
<path d="M189.65,282.21L191.62,284.16L191.11,285.16L190.13,285.28L190.53,287.33L188.5,289.11L185.98,288.53L188.7,287.56L188.87,286.3L187.85,284.83L189.25,283.97L187.97,282.75L189.65,282.21Z" fill-rule="evenodd" fill="#4682b4" fill-opacity="0.471"/>
<polyline points="189.65,282.21 191.62,284.16 191.11,285.16 190.13,285.28 190.53,287.33 188.5,289.11 185.98,288.53 188.7,287.56 188.87,286.3 187.85,284.83 189.25,283.97 187.97,282.75 189.65,282.21" fill="none" stroke="#1e1e1e" stroke-width="1.06" stroke-linecap="round" stroke-linejoin="round"/>
<path d="M132.18,378.95L132.03,380.53L130.42,377.89L132.18,378.95Z" fill-rule="evenodd" fill="#4682b4" fill-opacity="0.471"/>
<polyline points="132.18,378.95 132.03,380.53 130.42,377.89 132.18,378.95" fill="none" stroke="#1e1e1e" stroke-width="1.06" stroke-linecap="round" stroke-linejoin="round"/>
<path d="M129.71,377.64L130.26,378.45L129.58,378.58L129.18,377.87L129.71,377.64Z" fill-rule="evenodd" fill="#4682b4" fill-opacity="0.471"/>
<polyline points="129.71,377.64 130.26,378.45 129.58,378.58 129.18,377.87 129.71,377.64" fill="none" stroke="#1e1e1e" stroke-width="1.06" stroke-linecap="round" stroke-linejoin="round"/>
<path d="M135.1,383.35L134.63,382.94L135.1,383.35Z" fill-rule="evenodd" fill="#4682b4" fill-opacity="0.471"/>
<polyline points="135.1,383.35 134.63,382.94 135.1,383.35" fill="none" stroke="#1e1e1e" stroke-width="1.06" stroke-linecap="round" stroke-linejoin="round"/>
<path d="M133.81,382.71L132.75,381.99L135.09,382.49L133.81,382.71Z" fill-rule="evenodd" fill="#4682b4" fill-opacity="0.471"/>
<polyline points="133.81,382.71 132.75,381.99 135.09,382.49 133.81,382.71" fill="none" stroke="#1e1e1e" stroke-width="1.06" stroke-linecap="round" stroke-linejoin="round"/>
<path d="M140.01,381.72L140.64,382.42L140.01,381.72Z" fill-rule="evenodd" fill="#4682b4" fill-opacity="0.471"/>
<polyline points="140.01,381.72 140.64,382.42 140.01,381.72" fill="none" stroke="#1e1e1e" stroke-width="1.06" stroke-linecap="round" stroke-linejoin="round"/>
<path d="M137.29,383.19L136.37,382.82L137.29,383.19Z" fill-rule="evenodd" fill="#4682b4" fill-opacity="0.471"/>
<polyline points="137.29,383.19 136.37,382.82 137.29,383.19" fill="none" stroke="#1e1e1e" stroke-width="1.06" stroke-linecap="round" stroke-linejoin="round"/>
<path d="M143.2,381.17L140.75,382.4L141.94,381.08L143.2,381.17Z" fill-rule="evenodd" fill="#4682b4" fill-opacity="0.471"/>
<polyline points="143.2,381.17 140.75,382.4 141.94,381.08 143.2,381.17" fill="none" stroke="#1e1e1e" stroke-width="1.06" stroke-linecap="round" stroke-linejoin="round"/>
<path d="M132.64,375.82L130.95,373.25L131.73,372.77L133.9,376.06L132.64,375.82Z" fill-rule="evenodd" fill="#4682b4" fill-opacity="0.471"/>
<polyline points="132.64,375.82 130.95,373.25 131.73,372.77 133.9,376.06 132.64,375.82" fill="none" stroke="#1e1e1e" stroke-width="1.06" stroke-linecap="round" stroke-linejoin="round"/>
<path d="M131.77,372.25L129.95,373.28L130.85,372.89L131.5,376.35L132.68,377.19L131.39,376.06L131.33,374.46L133.99,376.18L135.55,379.54L137.63,378.66L139.51,380.85L137.66,381.3L136.74,380.36L132.65,381.04L132.48,378.65L130.3,377.07L128.95,374.62L129.46,373.27L128.73,374.22L130.22,371.92L131.77,372.25Z" fill-rule="evenodd" fill="#4682b4" fill-opacity="0.471"/>
<polyline points="131.77,372.25 129.95,373.28 130.85,372.89 131.5,376.35 132.68,377.19 131.39,376.06 131.33,374.46 133.99,376.18 135.55,379.54 137.63,378.66 139.51,380.85 137.66,381.3 136.74,380.36 132.65,381.04 132.48,378.65 130.3,377.07 128.95,374.62 129.46,373.27 128.73,374.22 130.22,371.92 131.77,372.25" fill="none" stroke="#1e1e1e" stroke-width="1.06" stroke-linecap="round" stroke-linejoin="round"/>
<path d="M140.53,375.24L139.75,375.7L138.85,375.01L139.84,372.43L142.43,371.88L143.07,373.22L142.77,372.18L144.21,371.74L143.32,374.88L142.62,375.03L143.38,376.12L141.99,376.5L142.03,374.85L141.91,375.72L140.53,375.24Z" fill-rule="evenodd" fill="#4682b4" fill-opacity="0.471"/>
<polyline points="140.53,375.24 139.75,375.7 138.85,375.01 139.84,372.43 142.43,371.88 143.07,373.22 142.77,372.18 144.21,371.74 143.32,374.88 142.62,375.03 143.38,376.12 141.99,376.5 142.03,374.85 141.91,375.72 140.53,375.24" fill="none" stroke="#1e1e1e" stroke-width="1.06" stroke-linecap="round" stroke-linejoin="round"/>
<path d="M146.07,372.32L145.39,373.46L144.39,372.34L146.34,371.5L146.07,372.32Z" fill-rule="evenodd" fill="#4682b4" fill-opacity="0.471"/>
<polyline points="146.07,372.32 145.39,373.46 144.39,372.34 146.34,371.5 146.07,372.32" fill="none" stroke="#1e1e1e" stroke-width="1.06" stroke-linecap="round" stroke-linejoin="round"/>
<path d="M136.91,378.4L135.96,379.16L134.92,375.85L133.24,373.68L133.83,372.23L136.16,375.05L134.98,372.8L139.32,372.73L138.15,375.35L136.89,375.76L137.49,377.01L136.28,377.38L136.91,378.4Z" fill-rule="evenodd" fill="#4682b4" fill-opacity="0.471"/>
<polyline points="136.91,378.4 135.96,379.16 134.92,375.85 133.24,373.68 133.83,372.23 136.16,375.05 134.98,372.8 139.32,372.73 138.15,375.35 136.89,375.76 137.49,377.01 136.28,377.38 136.91,378.4" fill="none" stroke="#1e1e1e" stroke-width="1.06" stroke-linecap="round" stroke-linejoin="round"/>
<path d="M116.47,389.54L114.7,389.69L116.47,389.54Z" fill-rule="evenodd" fill="#4682b4" fill-opacity="0.471"/>
<polyline points="116.47,389.54 114.7,389.69 116.47,389.54" fill="none" stroke="#1e1e1e" stroke-width="1.06" stroke-linecap="round" stroke-linejoin="round"/>
<path d="M108.29,388.79L109.69,388.23L110.99,389.01L108.29,388.79Z" fill-rule="evenodd" fill="#4682b4" fill-opacity="0.471"/>
<polyline points="108.29,388.79 109.69,388.23 110.99,389.01 108.29,388.79" fill="none" stroke="#1e1e1e" stroke-width="1.06" stroke-linecap="round" stroke-linejoin="round"/>
<path d="M525.33,1383.73L524.45,1383.33L525.63,1383.09L525.33,1383.73Z" fill-rule="evenodd" fill="#4682b4" fill-opacity="0.471"/>
<polyline points="525.33,1383.73 524.45,1383.33 525.63,1383.09 525.33,1383.73" fill="none" stroke="#1e1e1e" stroke-width="1.06" stroke-linecap="round" stroke-linejoin="round"/>
<path d="M132.77,382.56L132.46,383.29L129.73,383.87L127.8,383.76L127.01,382.75L128.86,381.83L132.77,382.56Z" fill-rule="evenodd" fill="#4682b4" fill-opacity="0.471"/>
<polyline points="132.77,382.56 132.46,383.29 129.73,383.87 127.8,383.76 127.01,382.75 128.86,381.83 132.77,382.56" fill="none" stroke="#1e1e1e" stroke-width="1.06" stroke-linecap="round" stroke-linejoin="round"/>
<path d="M136.92,281.91L136.55,281.27L136.92,281.91Z" fill-rule="evenodd" fill="#4682b4" fill-opacity="0.471"/>
<polyline points="136.92,281.91 136.55,281.27 136.92,281.91" fill="none" stroke="#1e1e1e" stroke-width="1.06" stroke-linecap="round" stroke-linejoin="round"/>
<path d="M136.75,283.4L134.34,283.74L135.01,281.43L136.64,281.78L136.75,283.4Z" fill-rule="evenodd" fill="#4682b4" fill-opacity="0.471"/>
<polyline points="136.75,283.4 134.34,283.74 135.01,281.43 136.64,281.78 136.75,283.4" fill="none" stroke="#1e1e1e" stroke-width="1.06" stroke-linecap="round" stroke-linejoin="round"/>
<path d="M139.56,286.37L139.1,288.15L136.7,287.15L137.93,286.14L137.44,285.34L138.02,284.58L136.68,285.31L135.66,284.4L137.77,283.16L136.99,283.5L136.67,282.57L138.22,282.32L138.43,284.7L139.56,286.37Z" fill-rule="evenodd" fill="#4682b4" fill-opacity="0.471"/>
<polyline points="139.56,286.37 139.1,288.15 136.7,287.15 137.93,286.14 137.44,285.34 138.02,284.58 136.68,285.31 135.66,284.4 137.77,283.16 136.99,283.5 136.67,282.57 138.22,282.32 138.43,284.7 139.56,286.37" fill="none" stroke="#1e1e1e" stroke-width="1.06" stroke-linecap="round" stroke-linejoin="round"/>
<path d="M140.53,321.24L139.9,320.76L140.61,319.96L140.53,321.24Z" fill-rule="evenodd" fill="#4682b4" fill-opacity="0.471"/>
<polyline points="140.53,321.24 139.9,320.76 140.61,319.96 140.53,321.24" fill="none" stroke="#1e1e1e" stroke-width="1.06" stroke-linecap="round" stroke-linejoin="round"/>
<path d="M139.62,323.5L139.17,322.64L139.62,323.5Z" fill-rule="evenodd" fill="#4682b4" fill-opacity="0.471"/>
<polyline points="139.62,323.5 139.17,322.64 139.62,323.5" fill="none" stroke="#1e1e1e" stroke-width="1.06" stroke-linecap="round" stroke-linejoin="round"/>
<path d="M142.13,322.58L140.95,321.21L141.69,320.8L140.9,320.78L141.81,320.03L142.11,320.7L142.77,318.9L143.33,319.95L142.33,320.55L143.23,321.32L142.24,321.26L142.13,322.58Z" fill-rule="evenodd" fill="#4682b4" fill-opacity="0.471"/>
<polyline points="142.13,322.58 140.95,321.21 141.69,320.8 140.9,320.78 141.81,320.03 142.11,320.7 142.77,318.9 143.33,319.95 142.33,320.55 143.23,321.32 142.24,321.26 142.13,322.58" fill="none" stroke="#1e1e1e" stroke-width="1.06" stroke-linecap="round" stroke-linejoin="round"/>
<path d="M140.98,319.76L139.81,320.07L139.46,319.42L139.04,320.16L140.36,321.83L138.4,320.57L138.23,319.51L138.15,321.08L138.82,320.74L139.6,321.21L139.36,321.89L139.7,321.29L140.2,321.89L139.67,322.4L140.29,321.94L141.1,322.54L140.39,323.35L140.06,322.57L137.97,322.19L139.25,323.35L137.73,324.57L139.24,323.48L139.25,324.27L138.29,324.39L139.26,324.72L141.52,322.82L142.29,324.4L141.09,324.8L140.64,324.17L140.16,324.79L142.44,324.53L144.04,326.04L143.82,328.38L141.47,330.8L143.8,328.43L144.56,329.15L143.93,330.44L144.61,329.19L146.45,330.41L146.05,332.76L143.3,336.73L143.42,337.92L139.21,337.88L139.22,337.17L140.23,336.94L141.69,337.37L140.17,336.48L140.79,335.54L141.59,335.14L141.41,336.24L142.56,335.83L141.75,335.99L141.34,335.08L142,334.94L140.75,334.08L141.62,334.84L140.05,336.35L140.7,336.93L139.83,337.25L138.75,336.63L138.15,337.26L137.67,335.68L134.64,335.96L136.24,335.62L136.68,337.78L136.25,335.87L137.7,335.8L138.16,337.36L138.97,336.86L137.57,338.62L138.47,337.9L138.23,338.61L136.49,340.03L137.38,340.02L135.56,340.36L128.38,338.5L127.57,336.32L128.68,317.79L130.86,312.78L132.65,310.72L132.44,307.8L142.8,304.24L144.17,302.69L148.55,302.16L148.92,301.3L152.17,300.68L156.42,301.93L158.39,303.08L157.85,303.85L158.39,303.19L159.65,304.54L166.9,307.63L165.96,311.26L163.75,313.16L159.74,313.43L156.57,315.54L154.33,318.88L152.21,318.42L154.06,318.89L153.23,320.57L151.79,319.96L152.06,319.42L151.72,319.94L150.58,319.34L150.48,317.14L150.36,318.37L148.72,319.54L149.71,318.21L148.58,319.51L147.87,318.22L147.01,318.44L147.42,317.09L146.81,318.09L146.44,317.63L144.68,318.33L143.78,317.48L144.31,316.7L143.31,318.9L142.72,318.17L143.43,318.04L141.81,317.07L142.61,318.28L141.63,317.96L141.48,319L140.28,318.52L140.98,319.76Z" fill-rule="evenodd" fill="#4682b4" fill-opacity="0.471"/>
<polyline points="140.98,319.76 139.81,320.07 139.46,319.42 139.04,320.16 140.36,321.83 138.4,320.57 138.23,319.51 138.15,321.08 138.82,320.74 139.6,321.21 139.36,321.89 139.7,321.29 140.2,321.89 139.67,322.4 140.29,321.94 141.1,322.54 140.39,323.35 140.06,322.57 137.97,322.19 139.25,323.35 137.73,324.57 139.24,323.48 139.25,324.27 138.29,324.39 139.26,324.72 141.52,322.82 142.29,324.4 141.09,324.8 140.64,324.17 140.16,324.79 142.44,324.53 144.04,326.04 143.82,328.38 141.47,330.8 143.8,328.43 144.56,329.15 143.93,330.44 144.61,329.19 146.45,330.41 146.05,332.76 143.3,336.73 143.42,337.92 139.21,337.88 139.22,337.17 140.23,336.94 141.69,337.37 140.17,336.48 140.79,335.54 141.59,335.14 141.41,336.24 142.56,335.83 141.75,335.99 141.34,335.08 142,334.94 140.75,334.08 141.62,334.84 140.05,336.35 140.7,336.93 139.83,337.25 138.75,336.63 138.15,337.26 137.67,335.68 134.64,335.96 136.24,335.62 136.68,337.78 136.25,335.87 137.7,335.8 138.16,337.36 138.97,336.86 137.57,338.62 138.47,337.9 138.23,338.61 136.49,340.03 137.38,340.02 135.56,340.36 128.38,338.5 127.57,336.32 128.68,317.79 130.86,312.78 132.65,310.72 132.44,307.8 142.8,304.24 144.17,302.69 148.55,302.16 148.92,301.3 152.17,300.68 156.42,301.93 158.39,303.08 157.85,303.85 158.39,303.19 159.65,304.54 166.9,307.63 165.96,311.26 163.75,313.16 159.74,313.43 156.57,315.54 154.33,318.88 152.21,318.42 154.06,318.89 153.23,320.57 151.79,319.96 152.06,319.42 151.72,319.94 150.58,319.34 150.48,317.14 150.36,318.37 148.72,319.54 149.71,318.21 148.58,319.51 147.87,318.22 147.01,318.44 147.42,317.09 146.81,318.09 146.44,317.63 144.68,318.33 143.78,317.48 144.31,316.7 143.31,318.9 142.72,318.17 143.43,318.04 141.81,317.07 142.61,318.28 141.63,317.96 141.48,319 140.28,318.52 140.98,319.76" fill="none" stroke="#1e1e1e" stroke-width="1.06" stroke-linecap="round" stroke-linejoin="round"/>
<path d="M145.43,319.84L143.58,319.45L143.86,318.14L145.98,319.26L145.43,319.84Z" fill-rule="evenodd" fill="#4682b4" fill-opacity="0.471"/>
<polyline points="145.43,319.84 143.58,319.45 143.86,318.14 145.98,319.26 145.43,319.84" fill="none" stroke="#1e1e1e" stroke-width="1.06" stroke-linecap="round" stroke-linejoin="round"/>
<path d="M142.52,321.78L143.71,320.95L143.52,319.79L145.32,320.21L145.25,321.11L143.51,322.08L144.43,323.94L142.29,322.8L142.52,321.78Z" fill-rule="evenodd" fill="#4682b4" fill-opacity="0.471"/>
<polyline points="142.52,321.78 143.71,320.95 143.52,319.79 145.32,320.21 145.25,321.11 143.51,322.08 144.43,323.94 142.29,322.8 142.52,321.78" fill="none" stroke="#1e1e1e" stroke-width="1.06" stroke-linecap="round" stroke-linejoin="round"/>
<path d="M146.31,319.35L145.4,318.62L146.24,318.01L146.81,318.62L146.31,319.35Z" fill-rule="evenodd" fill="#4682b4" fill-opacity="0.471"/>
<polyline points="146.31,319.35 145.4,318.62 146.24,318.01 146.81,318.62 146.31,319.35" fill="none" stroke="#1e1e1e" stroke-width="1.06" stroke-linecap="round" stroke-linejoin="round"/>
<path d="M465.85,1310.66L466.42,1311.56L465.64,1311.44L465.85,1310.66Z" fill-rule="evenodd" fill="#4682b4" fill-opacity="0.471"/>
<polyline points="465.85,1310.66 466.42,1311.56 465.64,1311.44 465.85,1310.66" fill="none" stroke="#1e1e1e" stroke-width="1.06" stroke-linecap="round" stroke-linejoin="round"/>
<path d="M147.26,371.67L145.19,371.02L149.38,367.04L150.55,366.78L150.67,365.91L154,366.16L153.08,370.71L151.8,370.3L153.08,370.77L152.91,372.14L148.78,371.17L147.26,371.67Z" fill-rule="evenodd" fill="#4682b4" fill-opacity="0.471"/>
<polyline points="147.26,371.67 145.19,371.02 149.38,367.04 150.55,366.78 150.67,365.91 154,366.16 153.08,370.71 151.8,370.3 153.08,370.77 152.91,372.14 148.78,371.17 147.26,371.67" fill="none" stroke="#1e1e1e" stroke-width="1.06" stroke-linecap="round" stroke-linejoin="round"/>
<path d="M148.32,292.96L148.83,293.46L148.32,292.96Z" fill-rule="evenodd" fill="#4682b4" fill-opacity="0.471"/>
<polyline points="148.32,292.96 148.83,293.46 148.32,292.96" fill="none" stroke="#1e1e1e" stroke-width="1.06" stroke-linecap="round" stroke-linejoin="round"/>
<path d="M161.3,266.16L162.27,266.26L161.89,267.31L161.3,266.16Z" fill-rule="evenodd" fill="#4682b4" fill-opacity="0.471"/>
<polyline points="161.3,266.16 162.27,266.26 161.89,267.31 161.3,266.16" fill="none" stroke="#1e1e1e" stroke-width="1.06" stroke-linecap="round" stroke-linejoin="round"/>
<path d="M155.37,267.03L156.52,266.99L156.25,267.94L156.7,267.15L157.93,267.48L156.46,268.46L158.1,268.05L158.6,268.86L157.69,269.46L158.97,270.11L157.38,271.64L154.9,271.19L154.6,272.24L155.69,273.19L155.12,273.67L154.17,272.75L154.52,269.49L156.43,270.18L154.89,269.35L156.36,269.37L155.13,269.33L155.37,267.03Z" fill-rule="evenodd" fill="#4682b4" fill-opacity="0.471"/>
<polyline points="155.37,267.03 156.52,266.99 156.25,267.94 156.7,267.15 157.93,267.48 156.46,268.46 158.1,268.05 158.6,268.86 157.69,269.46 158.97,270.11 157.38,271.64 154.9,271.19 154.6,272.24 155.69,273.19 155.12,273.67 154.17,272.75 154.52,269.49 156.43,270.18 154.89,269.35 156.36,269.37 155.13,269.33 155.37,267.03" fill="none" stroke="#1e1e1e" stroke-width="1.06" stroke-linecap="round" stroke-linejoin="round"/>
<path d="M162.16,290.38L163.68,292.12L163.24,292.55L159.95,293.15L156.5,292.16L155.94,289.46L158.42,291.89L161.38,291.79L160.61,291.54L161.06,290.72L160.33,291.58L160.25,289.82L160.14,291.83L158.16,291.59L157.3,289.22L158.99,288.71L159.38,289.28L160.79,287.87L159.32,289L159.47,288.26L157.93,288.75L159.61,287.22L158.46,287.97L158.17,287.35L157.93,288.16L157.63,286.72L157.8,288.74L156.71,288.08L158.04,288.97L155.47,289.53L156.5,291.16L156.09,291.79L148.64,291.62L153.28,287.12L154.29,282.35L157.21,280.56L158.97,281.33L159.15,282.55L157.53,283.17L157.61,285.67L155.81,286.35L155.37,285.88L155.17,286.65L156.23,286.24L156.2,286.99L154.77,287.11L156.2,287.06L155.83,288.07L156.3,286.25L157.66,285.74L157.72,284.9L158.52,286.46L159.89,286.19L161.66,287.35L162.16,290.38Z" fill-rule="evenodd" fill="#4682b4" fill-opacity="0.471"/>
<polyline points="162.16,290.38 163.68,292.12 163.24,292.55 159.95,293.15 156.5,292.16 155.94,289.46 158.42,291.89 161.38,291.79 160.61,291.54 161.06,290.72 160.33,291.58 160.25,289.82 160.14,291.83 158.16,291.59 157.3,289.22 158.99,288.71 159.38,289.28 160.79,287.87 159.32,289 159.47,288.26 157.93,288.75 159.61,287.22 158.46,287.97 158.17,287.35 157.93,288.16 157.63,286.72 157.8,288.74 156.71,288.08 158.04,288.97 155.47,289.53 156.5,291.16 156.09,291.79 148.64,291.62 153.28,287.12 154.29,282.35 157.21,280.56 158.97,281.33 159.15,282.55 157.53,283.17 157.61,285.67 155.81,286.35 155.37,285.88 155.17,286.65 156.23,286.24 156.2,286.99 154.77,287.11 156.2,287.06 155.83,288.07 156.3,286.25 157.66,285.74 157.72,284.9 158.52,286.46 159.89,286.19 161.66,287.35 162.16,290.38" fill="none" stroke="#1e1e1e" stroke-width="1.06" stroke-linecap="round" stroke-linejoin="round"/>
<path d="M163.54,277.51L162.11,279.05L160.91,278.88L161.26,277.91L160.87,278.82L162.05,279.27L162.21,282L161.59,282.75L158.94,279.4L156.08,278.39L157.25,276.97L158.22,277.87L159.46,277.63L159.1,276.1L160.19,274.72L162.74,276.03L163.54,277.51Z" fill-rule="evenodd" fill="#4682b4" fill-opacity="0.471"/>
<polyline points="163.54,277.51 162.11,279.05 160.91,278.88 161.26,277.91 160.87,278.82 162.05,279.27 162.21,282 161.59,282.75 158.94,279.4 156.08,278.39 157.25,276.97 158.22,277.87 159.46,277.63 159.1,276.1 160.19,274.72 162.74,276.03 163.54,277.51" fill="none" stroke="#1e1e1e" stroke-width="1.06" stroke-linecap="round" stroke-linejoin="round"/>
<path d="M159.09,274.34L160.05,274.88L159.04,276.04L159.4,277.6L158.03,277.73L157.26,276.89L155.77,279.04L154.3,280.03L154.68,278.97L152.81,282.23L152,281.86L153.27,273.94L156.21,275.13L159.09,274.34Z" fill-rule="evenodd" fill="#4682b4" fill-opacity="0.471"/>
<polyline points="159.09,274.34 160.05,274.88 159.04,276.04 159.4,277.6 158.03,277.73 157.26,276.89 155.77,279.04 154.3,280.03 154.68,278.97 152.81,282.23 152,281.86 153.27,273.94 156.21,275.13 159.09,274.34" fill="none" stroke="#1e1e1e" stroke-width="1.06" stroke-linecap="round" stroke-linejoin="round"/>
<path d="M150.1,321.04L148.98,319.65L150.01,319.72L150.16,318.73L151.92,320.24L151.46,320.51L153.03,321L151.82,323.77L150.46,321.47L150.96,321.15L150.03,321.14L150.62,320.35L150.1,321.04Z" fill-rule="evenodd" fill="#4682b4" fill-opacity="0.471"/>
<polyline points="150.1,321.04 148.98,319.65 150.01,319.72 150.16,318.73 151.92,320.24 151.46,320.51 153.03,321 151.82,323.77 150.46,321.47 150.96,321.15 150.03,321.14 150.62,320.35 150.1,321.04" fill="none" stroke="#1e1e1e" stroke-width="1.06" stroke-linecap="round" stroke-linejoin="round"/>
<path d="M149.07,319.96L151.09,322.66L149.19,321.55L149.3,322.56L151.53,323.11L151.56,324.42L150.26,326.31L149.5,325.67L149.63,324.24L149.5,325.76L148.08,324.89L150,323.36L148.39,324.13L148.73,321.74L147.99,324.86L147.47,321.84L147.1,322.51L146.43,321.95L146.27,322.85L147.54,322.52L147.96,323.36L147.36,324.11L146.15,323.19L147.41,324.45L145.29,324L147.45,324.82L145.92,324.81L144.93,323.81L145.91,322.54L144.79,323.43L144.46,322.14L146.31,321.53L145.78,320.32L147.56,320.82L146.57,320.5L146.67,319.82L146.16,320.41L145.76,319.96L147.32,318.31L148.63,319.69L148.26,320.66L149.07,319.96Z" fill-rule="evenodd" fill="#4682b4" fill-opacity="0.471"/>
<polyline points="149.07,319.96 151.09,322.66 149.19,321.55 149.3,322.56 151.53,323.11 151.56,324.42 150.26,326.31 149.5,325.67 149.63,324.24 149.5,325.76 148.08,324.89 150,323.36 148.39,324.13 148.73,321.74 147.99,324.86 147.47,321.84 147.1,322.51 146.43,321.95 146.27,322.85 147.54,322.52 147.96,323.36 147.36,324.11 146.15,323.19 147.41,324.45 145.29,324 147.45,324.82 145.92,324.81 144.93,323.81 145.91,322.54 144.79,323.43 144.46,322.14 146.31,321.53 145.78,320.32 147.56,320.82 146.57,320.5 146.67,319.82 146.16,320.41 145.76,319.96 147.32,318.31 148.63,319.69 148.26,320.66 149.07,319.96" fill="none" stroke="#1e1e1e" stroke-width="1.06" stroke-linecap="round" stroke-linejoin="round"/>
<path d="M156.23,375.93L157.42,377.54L156.84,378.31L156.33,377.9L155.78,379.89L155.25,379.46L154.46,380.19L153.71,378.42L150.95,378.03L153.52,375.7L154.24,377.17L153.33,377.4L155.16,378.63L153.48,375.59L154.08,374.83L155.32,377.72L154.11,375.84L154.2,374.27L155.52,376.58L155.39,375.98L156.23,375.93Z" fill-rule="evenodd" fill="#4682b4" fill-opacity="0.471"/>
<polyline points="156.23,375.93 157.42,377.54 156.84,378.31 156.33,377.9 155.78,379.89 155.25,379.46 154.46,380.19 153.71,378.42 150.95,378.03 153.52,375.7 154.24,377.17 153.33,377.4 155.16,378.63 153.48,375.59 154.08,374.83 155.32,377.72 154.11,375.84 154.2,374.27 155.52,376.58 155.39,375.98 156.23,375.93" fill="none" stroke="#1e1e1e" stroke-width="1.06" stroke-linecap="round" stroke-linejoin="round"/>
<path d="M145.12,377.47L145.48,379.61L144.08,378.86L145.08,379.78L141.84,379.38L142.35,378.56L141.83,378.2L142.26,378.68L141.35,379L142.82,379.14L142.69,379.89L141.17,379.93L140.42,380.94L139.84,379.46L136.93,378.39L136.58,377.33L137.53,377.06L137.13,376.26L138.45,375.17L139.56,376.43L138.19,376.12L138.15,376.76L138.66,376.14L139.2,376.74L137.64,377.95L140.75,375.38L141.93,376.69L143.42,376.31L142.82,375.13L143.92,375.48L144.6,374.73L143.8,375.11L143.71,374.49L144.94,374.09L143.47,374.46L143.73,373.21L144.41,372.79L145.97,373.59L146.34,372.27L147.29,375.04L146.68,374.58L145.14,375.29L146.71,374.63L147.6,375.37L146.29,375.57L146.79,376.19L145.65,376.8L145.98,377.87L146.17,376.33L148.2,376.71L146.85,378.56L148.07,379.23L149.91,378.45L149.94,380.39L147.91,380.67L148.82,380.23L147.64,380.53L146.03,379.7L145.27,377.44L144.34,376.94L142.67,377.76L142.88,378.32L143.09,377.58L145.12,377.47Z" fill-rule="evenodd" fill="#4682b4" fill-opacity="0.471"/>
<polyline points="145.12,377.47 145.48,379.61 144.08,378.86 145.08,379.78 141.84,379.38 142.35,378.56 141.83,378.2 142.26,378.68 141.35,379 142.82,379.14 142.69,379.89 141.17,379.93 140.42,380.94 139.84,379.46 136.93,378.39 136.58,377.33 137.53,377.06 137.13,376.26 138.45,375.17 139.56,376.43 138.19,376.12 138.15,376.76 138.66,376.14 139.2,376.74 137.64,377.95 140.75,375.38 141.93,376.69 143.42,376.31 142.82,375.13 143.92,375.48 144.6,374.73 143.8,375.11 143.71,374.49 144.94,374.09 143.47,374.46 143.73,373.21 144.41,372.79 145.97,373.59 146.34,372.27 147.29,375.04 146.68,374.58 145.14,375.29 146.71,374.63 147.6,375.37 146.29,375.57 146.79,376.19 145.65,376.8 145.98,377.87 146.17,376.33 148.2,376.71 146.85,378.56 148.07,379.23 149.91,378.45 149.94,380.39 147.91,380.67 148.82,380.23 147.64,380.53 146.03,379.7 145.27,377.44 144.34,376.94 142.67,377.76 142.88,378.32 143.09,377.58 145.12,377.47" fill="none" stroke="#1e1e1e" stroke-width="1.06" stroke-linecap="round" stroke-linejoin="round"/>
<path d="M147.89,374.98L148.34,374.57L147.7,374.84L147.68,373.58L149.35,374.11L149.62,375.37L148.69,377.45L149.12,376.97L149.39,377.53L149.24,375.86L150.26,376.03L149.66,375.07L151.13,374.99L150.87,374.05L150.28,375.08L149.4,374.68L150.31,373.56L149.52,374.61L147.82,373.37L148.48,373.11L147.08,373.52L147.29,372.36L148.84,372.28L147.22,371.86L148.74,371.38L149.68,372.09L149.8,371.42L151.43,371.78L151.51,373.02L152.43,371.79L153.64,374.5L152.66,374.59L153.66,374.67L150.93,376.8L150.22,378.53L149.49,378.18L147.93,379.04L147.27,378.05L148.35,377.93L148.57,376.5L146.43,375.7L147.95,375.96L147.89,374.98Z" fill-rule="evenodd" fill="#4682b4" fill-opacity="0.471"/>
<polyline points="147.89,374.98 148.34,374.57 147.7,374.84 147.68,373.58 149.35,374.11 149.62,375.37 148.69,377.45 149.12,376.97 149.39,377.53 149.24,375.86 150.26,376.03 149.66,375.07 151.13,374.99 150.87,374.05 150.28,375.08 149.4,374.68 150.31,373.56 149.52,374.61 147.82,373.37 148.48,373.11 147.08,373.52 147.29,372.36 148.84,372.28 147.22,371.86 148.74,371.38 149.68,372.09 149.8,371.42 151.43,371.78 151.51,373.02 152.43,371.79 153.64,374.5 152.66,374.59 153.66,374.67 150.93,376.8 150.22,378.53 149.49,378.18 147.93,379.04 147.27,378.05 148.35,377.93 148.57,376.5 146.43,375.7 147.95,375.96 147.89,374.98" fill="none" stroke="#1e1e1e" stroke-width="1.06" stroke-linecap="round" stroke-linejoin="round"/>
<path d="M549.13,1472.6L549.82,1473.54L549.13,1472.6Z" fill-rule="evenodd" fill="#4682b4" fill-opacity="0.471"/>
<polyline points="549.13,1472.6 549.82,1473.54 549.13,1472.6" fill="none" stroke="#1e1e1e" stroke-width="1.06" stroke-linecap="round" stroke-linejoin="round"/>
<path d="M463.75,1310.83L460.74,1308.48L460.15,1308.71L458.96,1307.08L459.04,1305.13L461.85,1306.16L465.29,1310L463.75,1310.83Z" fill-rule="evenodd" fill="#4682b4" fill-opacity="0.471"/>
<polyline points="463.75,1310.83 460.74,1308.48 460.15,1308.71 458.96,1307.08 459.04,1305.13 461.85,1306.16 465.29,1310 463.75,1310.83" fill="none" stroke="#1e1e1e" stroke-width="1.06" stroke-linecap="round" stroke-linejoin="round"/>
</svg>
