<?xml version="1.0" encoding="UTF-8" standalone="no"?>
<svg xmlns="http://www.w3.org/2000/svg" width="2000" height="1171" viewBox="0 0 2000 1171">
<rect width="2000" height="1171" fill="#ffffff"/>
<path d="M1910.77,517.01L1910.77,517.01Z" fill-rule="evenodd" fill="#4682b4" fill-opacity="0.471"/>
<polyline points="1910.77,517.01 1910.77,517.01" fill="none" stroke="#1e1e1e" stroke-width="0.96" stroke-linecap="round" stroke-linejoin="round"/>
<path d="M1710.77,1129.98L1713.07,1125.31L1713.96,1121.48L1715.92,1096.28L1714.39,1093.86L1713.44,1094.41L1714.04,1093.75L1713.15,1093.91L1713.31,1094.6L1712.12,1093.47L1712.61,1094.68L1712.06,1094.27L1706.62,1083.75L1703.69,1083.14L1702.91,1081.15L1699.54,1078.08L1696.27,1076.88L1693.07,1077.53L1691.33,1077.06L1692.04,1070.63L1693.71,1068.47L1693.49,1067.45L1696.36,1059.49L1695.95,1057.76L1694.78,1057.81L1694.41,1056.91L1695.56,1052.82L1694.41,1051.05L1693.49,1046.4L1694.56,1042.18L1692.8,1037.65L1693.15,1035.19L1691.12,1033.75L1691.03,1030.2L1692.34,1025.89L1691.68,1021.86L1693.04,1016.71L1692.9,1013.14L1691.17,1008.61L1688.66,1007.82L1689.15,1005.65L1691.58,1002.54L1693.71,997.75L1693.06,996.05L1695.69,993.21L1698.91,987.37L1699.55,984.48L1699,978.77L1721.43,946.28L1722.55,938.72L1725.45,934.68L1726.15,933.25L1725.64,932.85L1726.53,932.76L1725.78,932.26L1725.22,932.81L1725.76,932.21L1726.66,932.64L1727.08,928.64L1725.65,925.8L1726.9,921.19L1725.9,919.49L1723.81,918.81L1722.79,915.93L1725.51,910.66L1726.29,905.3L1721.63,899.68L1732.91,887.67L1738.3,879.91L1738.66,880.44L1738.56,879.63L1748,869.8L1755.58,859.6L1765.95,843.32L1766.14,842.43L1765.43,842.06L1766.22,842.36L1765.79,841.98L1766.73,841.12L1764.89,842.27L1765.77,841.11L1767.23,841.12L1765.71,838.73L1765.99,837.87L1769.28,833.22L1770.53,832.68L1772.56,829.08L1773.78,828.46L1775.68,830.01L1778.56,829.13L1786.13,822.17L1788.69,817.5L1794.79,815.16L1813.2,804.33L1814.84,804.16L1822.77,798.2L1823.36,799.08L1824.52,798.73L1832.94,792.14L1834.81,789.68L1835.84,790.58L1839.3,788.75L1837.65,790.69L1837.93,789.96L1838.85,790.47L1838.36,789.76L1839.15,790.13L1838.92,789.49L1840.27,789.94L1843.51,788.25L1851.64,780.06L1853.41,776.77L1852.75,778.83L1855.96,778.38L1864.66,769.16L1867.42,768.68L1870.39,766.13L1870.66,766.89L1876.14,761.65L1878.66,760.65L1884.68,754.06L1891.03,744.48L1892.35,745.33L1891.14,744.29L1894.34,739.73L1898.4,731.38L1900.56,723.23L1899.95,722.8L1902.75,721.79L1900.07,722.43L1900.74,722.5L1909.7,702.45L1916.99,680.93L1921.73,664.62L1926.7,639.14L1986.41,1099.27L1710.77,1129.98Z" fill-rule="evenodd" fill="#4682b4" fill-opacity="0.471"/>
<polyline points="1710.77,1129.98 1713.07,1125.31 1713.96,1121.48 1715.92,1096.28 1714.39,1093.86 1713.44,1094.41 1714.04,1093.75 1713.15,1093.91 1713.31,1094.6 1712.12,1093.47 1712.61,1094.68 1712.06,1094.27 1706.62,1083.75 1703.69,1083.14 1702.91,1081.15 1699.54,1078.08 1696.27,1076.88 1693.07,1077.53 1691.33,1077.06 1692.04,1070.63 1693.71,1068.47 1693.49,1067.45 1696.36,1059.49 1695.95,1057.76 1694.78,1057.81 1694.41,1056.91 1695.56,1052.82 1694.41,1051.05 1693.49,1046.4 1694.56,1042.18 1692.8,1037.65 1693.15,1035.19 1691.12,1033.75 1691.03,1030.2 1692.34,1025.89 1691.68,1021.86 1693.04,1016.71 1692.9,1013.14 1691.17,1008.61 1688.66,1007.82 1689.15,1005.65 1691.58,1002.54 1693.71,997.75 1693.06,996.05 1695.69,993.21 1698.91,987.37 1699.55,984.48 1699,978.77 1721.43,946.28 1722.55,938.72 1725.45,934.68 1726.15,933.25 1725.64,932.85 1726.53,932.76 1725.78,932.26 1725.22,932.81 1725.76,932.21 1726.66,932.64 1727.08,928.64 1725.65,925.8 1726.9,921.19 1725.9,919.49 1723.81,918.81 1722.79,915.93 1725.51,910.66 1726.29,905.3 1721.63,899.68 1732.91,887.67 1738.3,879.91 1738.66,880.44 1738.56,879.63 1748,869.8 1755.58,859.6 1765.95,843.32 1766.14,842.43 1765.43,842.06 1766.22,842.36 1765.79,841.98 1766.73,841.12 1764.89,842.27 1765.77,841.11 1767.23,841.12 1765.71,838.73 1765.99,837.87 1769.28,833.22 1770.53,832.68 1772.56,829.08 1773.78,828.46 1775.68,830.01 1778.56,829.13 1786.13,822.17 1788.69,817.5 1794.79,815.16 1813.2,804.33 1814.84,804.16 1822.77,798.2 1823.36,799.08 1824.52,798.73 1832.94,792.14 1834.81,789.68 1835.84,790.58 1839.3,788.75 1837.65,790.69 1837.93,789.96 1838.85,790.47 1838.36,789.76 1839.15,790.13 1838.92,789.49 1840.27,789.94 1843.51,788.25 1851.64,780.06 1853.41,776.77 1852.75,778.83 1855.96,778.38 1864.66,769.16 1867.42,768.68 1870.39,766.13 1870.66,766.89 1876.14,761.65 1878.66,760.65 1884.68,754.06 1891.03,744.48 1892.35,745.33 1891.14,744.29 1894.34,739.73 1898.4,731.38 1900.56,723.23 1899.95,722.8 1902.75,721.79 1900.07,722.43 1900.74,722.5 1909.7,702.45 1916.99,680.93 1921.73,664.62 1926.7,639.14 1986.41,1099.27 1710.77,1129.98" fill="none" stroke="#1e1e1e" stroke-width="0.96" stroke-linecap="round" stroke-linejoin="round"/>
<path d="M1692.39,997.64L1691.92,998.04L1692.39,997.64Z" fill-rule="evenodd" fill="#4682b4" fill-opacity="0.471"/>
<polyline points="1692.39,997.64 1691.92,998.04 1692.39,997.64" fill="none" stroke="#1e1e1e" stroke-width="0.96" stroke-linecap="round" stroke-linejoin="round"/>
<path d="M1685.12,325.48L1685.59,321.92L1685.12,325.48Z" fill-rule="evenodd" fill="#4682b4" fill-opacity="0.471"/>
<polyline points="1685.12,325.48 1685.59,321.92 1685.12,325.48" fill="none" stroke="#1e1e1e" stroke-width="0.96" stroke-linecap="round" stroke-linejoin="round"/>
<path d="M1789.3,485.73L1784.86,489.1L1784.7,490.05L1784.72,488.79L1786.3,486.88L1786.71,487.49L1787.7,486.1L1789.3,485.73Z" fill-rule="evenodd" fill="#4682b4" fill-opacity="0.471"/>
<polyline points="1789.3,485.73 1784.86,489.1 1784.7,490.05 1784.72,488.79 1786.3,486.88 1786.71,487.49 1787.7,486.1 1789.3,485.73" fill="none" stroke="#1e1e1e" stroke-width="0.96" stroke-linecap="round" stroke-linejoin="round"/>
<path d="M1778.54,487.42L1778.05,487.51L1778.54,487.42Z" fill-rule="evenodd" fill="#4682b4" fill-opacity="0.471"/>
<polyline points="1778.54,487.42 1778.05,487.51 1778.54,487.42" fill="none" stroke="#1e1e1e" stroke-width="0.96" stroke-linecap="round" stroke-linejoin="round"/>
<path d="M1181.71,886.02L1178.71,888.84L1177.68,888.12L1177.3,887.44L1178.75,886.05L1179.19,883.63L1182.89,881.18L1183.94,882.08L1185.03,881.83L1185.23,885.44L1183.39,885.2L1181.71,886.02Z" fill-rule="evenodd" fill="#4682b4" fill-opacity="0.471"/>
<polyline points="1181.71,886.02 1178.71,888.84 1177.68,888.12 1177.3,887.44 1178.75,886.05 1179.19,883.63 1182.89,881.18 1183.94,882.08 1185.03,881.83 1185.23,885.44 1183.39,885.2 1181.71,886.02" fill="none" stroke="#1e1e1e" stroke-width="0.96" stroke-linecap="round" stroke-linejoin="round"/>
<path d="M1177.64,890.51L1178.51,889.19L1178.76,891.23L1177.64,890.51Z" fill-rule="evenodd" fill="#4682b4" fill-opacity="0.471"/>
<polyline points="1177.64,890.51 1178.51,889.19 1178.76,891.23 1177.64,890.51" fill="none" stroke="#1e1e1e" stroke-width="0.96" stroke-linecap="round" stroke-linejoin="round"/>
<path d="M538.53,514.85L540.14,513.96L541.07,514.74L542.02,514.19L542.76,514.67L542.43,516.74L545.14,519.56L544.99,522.31L541.01,522.04L538.75,519.83L535.92,520.8L534.01,520.16L532.98,516.45L533.36,515.35L536.03,514.16L536.7,515.14L538.53,514.85Z" fill-rule="evenodd" fill="#4682b4" fill-opacity="0.471"/>
<polyline points="538.53,514.85 540.14,513.96 541.07,514.74 542.02,514.19 542.76,514.67 542.43,516.74 545.14,519.56 544.99,522.31 541.01,522.04 538.75,519.83 535.92,520.8 534.01,520.16 532.98,516.45 533.36,515.35 536.03,514.16 536.7,515.14 538.53,514.85" fill="none" stroke="#1e1e1e" stroke-width="0.96" stroke-linecap="round" stroke-linejoin="round"/>
<path d="M1225.94,1149.35L1226.31,1150L1224.84,1149.81L1225.11,1148.58L1225.83,1148.46L1225.94,1149.35Z" fill-rule="evenodd" fill="#4682b4" fill-opacity="0.471"/>
<polyline points="1225.94,1149.35 1226.31,1150 1224.84,1149.81 1225.11,1148.58 1225.83,1148.46 1225.94,1149.35" fill="none" stroke="#1e1e1e" stroke-width="0.96" stroke-linecap="round" stroke-linejoin="round"/>
<path d="M1793.84,480.86L1789.7,485.06L1788.94,485.01L1788.54,484.2L1789.77,484.1L1793.84,480.86Z" fill-rule="evenodd" fill="#4682b4" fill-opacity="0.471"/>
<polyline points="1793.84,480.86 1789.7,485.06 1788.94,485.01 1788.54,484.2 1789.77,484.1 1793.84,480.86" fill="none" stroke="#1e1e1e" stroke-width="0.96" stroke-linecap="round" stroke-linejoin="round"/>
<path d="M1778.02,488.93L1782.43,490.02L1784.17,489.36L1784.56,490L1782.71,490.48L1778.02,488.93Z" fill-rule="evenodd" fill="#4682b4" fill-opacity="0.471"/>
<polyline points="1778.02,488.93 1782.43,490.02 1784.17,489.36 1784.56,490 1782.71,490.48 1778.02,488.93" fill="none" stroke="#1e1e1e" stroke-width="0.96" stroke-linecap="round" stroke-linejoin="round"/>
<path d="M1794.1,480.73L1797.46,476.9L1799.69,475.85L1800.53,474.45L1801.35,474.6L1794.1,480.73Z" fill-rule="evenodd" fill="#4682b4" fill-opacity="0.471"/>
<polyline points="1794.1,480.73 1797.46,476.9 1799.69,475.85 1800.53,474.45 1801.35,474.6 1794.1,480.73" fill="none" stroke="#1e1e1e" stroke-width="0.96" stroke-linecap="round" stroke-linejoin="round"/>
<path d="M1185.55,885.65L1186.42,886.04L1185.55,885.65Z" fill-rule="evenodd" fill="#4682b4" fill-opacity="0.471"/>
<polyline points="1185.55,885.65 1186.42,886.04 1185.55,885.65" fill="none" stroke="#1e1e1e" stroke-width="0.96" stroke-linecap="round" stroke-linejoin="round"/>
<path d="M506.07,445.03L502.69,446.05L503.26,446.37L501.01,446.12L491.27,436.94L490.38,433.85L492.56,432.15L493.12,430.5L494.38,430.94L496.04,429.78L500.35,432.21L502.14,436.46L505.48,437.91L506.4,437.5L509.35,439.54L513.78,438.93L516.48,436.97L517.67,439.11L519.79,439.45L520.4,438.6L520.79,439.51L522.4,439.25L523.23,438.44L527.34,437.57L528.92,436.08L530.26,437.23L532.76,436.69L534.29,437.63L539.07,437.54L540.8,438.36L541.65,440.8L540.2,446.68L538.78,447.97L536.18,448.5L531.7,447.26L524.31,449.68L516.16,448.66L514.13,449.63L510.33,446L506.07,445.03Z" fill-rule="evenodd" fill="#4682b4" fill-opacity="0.471"/>
<polyline points="506.07,445.03 502.69,446.05 503.26,446.37 501.01,446.12 491.27,436.94 490.38,433.85 492.56,432.15 493.12,430.5 494.38,430.94 496.04,429.78 500.35,432.21 502.14,436.46 505.48,437.91 506.4,437.5 509.35,439.54 513.78,438.93 516.48,436.97 517.67,439.11 519.79,439.45 520.4,438.6 520.79,439.51 522.4,439.25 523.23,438.44 527.34,437.57 528.92,436.08 530.26,437.23 532.76,436.69 534.29,437.63 539.07,437.54 540.8,438.36 541.65,440.8 540.2,446.68 538.78,447.97 536.18,448.5 531.7,447.26 524.31,449.68 516.16,448.66 514.13,449.63 510.33,446 506.07,445.03" fill="none" stroke="#1e1e1e" stroke-width="0.96" stroke-linecap="round" stroke-linejoin="round"/>
<path d="M1167.35,929.71L1166.9,928.48L1167.35,929.71Z" fill-rule="evenodd" fill="#4682b4" fill-opacity="0.471"/>
<polyline points="1167.35,929.71 1166.9,928.48 1167.35,929.71" fill="none" stroke="#1e1e1e" stroke-width="0.96" stroke-linecap="round" stroke-linejoin="round"/>
<path d="M1170.31,935.99L1167.69,932.96L1167.39,930.07L1170.61,934.79L1171.3,938.78L1170.31,935.99Z" fill-rule="evenodd" fill="#4682b4" fill-opacity="0.471"/>
<polyline points="1170.31,935.99 1167.69,932.96 1167.39,930.07 1170.61,934.79 1171.3,938.78 1170.31,935.99" fill="none" stroke="#1e1e1e" stroke-width="0.96" stroke-linecap="round" stroke-linejoin="round"/>
<path d="M1172.38,944.71L1171.4,939.84L1171.9,943.09L1173.66,945.29L1172.38,944.71Z" fill-rule="evenodd" fill="#4682b4" fill-opacity="0.471"/>
<polyline points="1172.38,944.71 1171.4,939.84 1171.9,943.09 1173.66,945.29 1172.38,944.71" fill="none" stroke="#1e1e1e" stroke-width="0.96" stroke-linecap="round" stroke-linejoin="round"/>
<path d="M133.53,252.99L132.09,254.16L132.46,255.25L131.47,255.5L129.91,259.15L125.38,259.28L123.99,258.59L123.59,251.67L124.52,250.68L124.79,248.41L126.76,246.59L126.61,245.74L128.76,245.73L128.86,247.16L130.06,248.23L131.8,247.97L133.53,252.99Z" fill-rule="evenodd" fill="#4682b4" fill-opacity="0.471"/>
<polyline points="133.53,252.99 132.09,254.16 132.46,255.25 131.47,255.5 129.91,259.15 125.38,259.28 123.99,258.59 123.59,251.67 124.52,250.68 124.79,248.41 126.76,246.59 126.61,245.74 128.76,245.73 128.86,247.16 130.06,248.23 131.8,247.97 133.53,252.99" fill="none" stroke="#1e1e1e" stroke-width="0.96" stroke-linecap="round" stroke-linejoin="round"/>
<path d="M1806.2,470.05L1801.13,474.27L1802.06,472.7L1806.2,470.05Z" fill-rule="evenodd" fill="#4682b4" fill-opacity="0.471"/>
<polyline points="1806.2,470.05 1801.13,474.27 1802.06,472.7 1806.2,470.05" fill="none" stroke="#1e1e1e" stroke-width="0.96" stroke-linecap="round" stroke-linejoin="round"/>
<path d="M1645.98,280.7L1645,281.47L1645.26,280.59L1645.98,280.7Z" fill-rule="evenodd" fill="#4682b4" fill-opacity="0.471"/>
<polyline points="1645.98,280.7 1645,281.47 1645.26,280.59 1645.98,280.7" fill="none" stroke="#1e1e1e" stroke-width="0.96" stroke-linecap="round" stroke-linejoin="round"/>
<path d="M1686.96,327.45L1684.56,327.98L1685.9,325.37L1687.28,326.82L1686.96,327.45Z" fill-rule="evenodd" fill="#4682b4" fill-opacity="0.471"/>
<polyline points="1686.96,327.45 1684.56,327.98 1685.9,325.37 1687.28,326.82 1686.96,327.45" fill="none" stroke="#1e1e1e" stroke-width="0.96" stroke-linecap="round" stroke-linejoin="round"/>
<path d="M1681.82,328.76L1684.05,326.28L1683.01,329.99L1680.72,332.41L1681.82,328.76Z" fill-rule="evenodd" fill="#4682b4" fill-opacity="0.471"/>
<polyline points="1681.82,328.76 1684.05,326.28 1683.01,329.99 1680.72,332.41 1681.82,328.76" fill="none" stroke="#1e1e1e" stroke-width="0.96" stroke-linecap="round" stroke-linejoin="round"/>
<path d="M349.52,312.99L351.18,316.47L350.98,317.31L349.5,317.55L347.75,317.03L346.96,315.88L345.08,315.8L342.84,311.6L344.64,309.24L346.15,309.16L348.34,310.19L349.52,312.99Z" fill-rule="evenodd" fill="#4682b4" fill-opacity="0.471"/>
<polyline points="349.52,312.99 351.18,316.47 350.98,317.31 349.5,317.55 347.75,317.03 346.96,315.88 345.08,315.8 342.84,311.6 344.64,309.24 346.15,309.16 348.34,310.19 349.52,312.99" fill="none" stroke="#1e1e1e" stroke-width="0.96" stroke-linecap="round" stroke-linejoin="round"/>
<path d="M399.3,354.46L399.46,355.46L398.79,355.74L398.69,354.19L395.33,354.22L390.37,350.64L388.79,346.49L389.14,343.22L389.69,343.41L390.35,342.03L394.51,340.77L397.91,340.68L399.87,341.98L401.92,341.29L405.94,343.29L408.7,343.27L411.35,345.71L411.4,347.21L412.45,348.1L411.86,348.95L411.24,348.54L411.01,349.78L411.6,350.3L411.97,349.41L412.3,351.71L411.13,353.3L409.68,353.77L409.36,356.24L399.3,354.46Z" fill-rule="evenodd" fill="#4682b4" fill-opacity="0.471"/>
<polyline points="399.3,354.46 399.46,355.46 398.79,355.74 398.69,354.19 395.33,354.22 390.37,350.64 388.79,346.49 389.14,343.22 389.69,343.41 390.35,342.03 394.51,340.77 397.91,340.68 399.87,341.98 401.92,341.29 405.94,343.29 408.7,343.27 411.35,345.71 411.4,347.21 412.45,348.1 411.86,348.95 411.24,348.54 411.01,349.78 411.6,350.3 411.97,349.41 412.3,351.71 411.13,353.3 409.68,353.77 409.36,356.24 399.3,354.46" fill="none" stroke="#1e1e1e" stroke-width="0.96" stroke-linecap="round" stroke-linejoin="round"/>
<path d="M305.97,356.5L307.17,355.27L309.88,354.5L315.99,355.32L320.76,358.29L322.28,360.72L325.84,361.67L329.17,365.36L338.48,368.04L339.96,369.53L340.22,371.05L336.38,371.78L329.67,370.22L325.02,372.27L322.98,369.31L316.26,368.64L313.33,366.94L310.88,367.39L306.06,364L304.67,360.22L305.97,356.5Z" fill-rule="evenodd" fill="#4682b4" fill-opacity="0.471"/>
<polyline points="305.97,356.5 307.17,355.27 309.88,354.5 315.99,355.32 320.76,358.29 322.28,360.72 325.84,361.67 329.17,365.36 338.48,368.04 339.96,369.53 340.22,371.05 336.38,371.78 329.67,370.22 325.02,372.27 322.98,369.31 316.26,368.64 313.33,366.94 310.88,367.39 306.06,364 304.67,360.22 305.97,356.5" fill="none" stroke="#1e1e1e" stroke-width="0.96" stroke-linecap="round" stroke-linejoin="round"/>
<path d="M136.65,232.52L136.48,229.63L137,228.35L138.1,228.44L139.24,229.2L139.35,231.18L137,233.46L136.31,233.27L136.65,232.52Z" fill-rule="evenodd" fill="#4682b4" fill-opacity="0.471"/>
<polyline points="136.65,232.52 136.48,229.63 137,228.35 138.1,228.44 139.24,229.2 139.35,231.18 137,233.46 136.31,233.27 136.65,232.52" fill="none" stroke="#1e1e1e" stroke-width="0.96" stroke-linecap="round" stroke-linejoin="round"/>
<path d="M343.55,354.22L342.15,353.95L339.26,351.28L335.62,349.99L331,346.9L330.42,345.62L328.89,345.52L328.53,343.54L325.94,341.94L322.88,338.05L326.55,339.32L339.05,346.39L341.05,346.56L341.3,347.39L342.82,347.57L349.86,353.35L357.94,357.85L360.9,360.62L359.34,361.59L355.38,361.38L347.83,355.58L343.55,354.22Z" fill-rule="evenodd" fill="#4682b4" fill-opacity="0.471"/>
<polyline points="343.55,354.22 342.15,353.95 339.26,351.28 335.62,349.99 331,346.9 330.42,345.62 328.89,345.52 328.53,343.54 325.94,341.94 322.88,338.05 326.55,339.32 339.05,346.39 341.05,346.56 341.3,347.39 342.82,347.57 349.86,353.35 357.94,357.85 360.9,360.62 359.34,361.59 355.38,361.38 347.83,355.58 343.55,354.22" fill="none" stroke="#1e1e1e" stroke-width="0.96" stroke-linecap="round" stroke-linejoin="round"/>
<path d="M1176.35,887.28L1176.97,887.5L1176.45,887.94L1176.35,887.28Z" fill-rule="evenodd" fill="#4682b4" fill-opacity="0.471"/>
<polyline points="1176.35,887.28 1176.97,887.5 1176.45,887.94 1176.35,887.28" fill="none" stroke="#1e1e1e" stroke-width="0.96" stroke-linecap="round" stroke-linejoin="round"/>
<path d="M1156.67,915.39L1157.8,915.98L1156.67,915.39Z" fill-rule="evenodd" fill="#4682b4" fill-opacity="0.471"/>
<polyline points="1156.67,915.39 1157.8,915.98 1156.67,915.39" fill="none" stroke="#1e1e1e" stroke-width="0.96" stroke-linecap="round" stroke-linejoin="round"/>
<path d="M1912.36,528.63L1910.73,527.5L1910.88,525.8L1912.04,526.15L1912.36,528.63Z" fill-rule="evenodd" fill="#4682b4" fill-opacity="0.471"/>
<polyline points="1912.36,528.63 1910.73,527.5 1910.88,525.8 1912.04,526.15 1912.36,528.63" fill="none" stroke="#1e1e1e" stroke-width="0.96" stroke-linecap="round" stroke-linejoin="round"/>
<path d="M1912.04,526.14L1910.15,524.73L1910.76,522.62L1911.61,522.86L1912.04,526.14Z" fill-rule="evenodd" fill="#4682b4" fill-opacity="0.471"/>
<polyline points="1912.04,526.14 1910.15,524.73 1910.76,522.62 1911.61,522.86 1912.04,526.14" fill="none" stroke="#1e1e1e" stroke-width="0.96" stroke-linecap="round" stroke-linejoin="round"/>
<path d="M1911.58,522.66L1910.53,521.74L1909.82,523.8L1909.17,523.49L1909.86,523.97L1909.39,524.42L1909.85,524.18L1910.31,527.15L1903.38,515.89L1901.25,515.75L1903.78,513.83L1903.02,515.07L1903.7,514.65L1903.87,515.33L1904.34,514.19L1904.73,514.97L1903.83,515.46L1905.46,517.51L1905.9,516.99L1905.37,518.72L1906.59,520.57L1909.28,520.24L1909.34,518.96L1910.7,518.35L1910.89,517.29L1911.58,522.66Z" fill-rule="evenodd" fill="#4682b4" fill-opacity="0.471"/>
<polyline points="1911.58,522.66 1910.53,521.74 1909.82,523.8 1909.17,523.49 1909.86,523.97 1909.39,524.42 1909.85,524.18 1910.31,527.15 1903.38,515.89 1901.25,515.75 1903.78,513.83 1903.02,515.07 1903.7,514.65 1903.87,515.33 1904.34,514.19 1904.73,514.97 1903.83,515.46 1905.46,517.51 1905.9,516.99 1905.37,518.72 1906.59,520.57 1909.28,520.24 1909.34,518.96 1910.7,518.35 1910.89,517.29 1911.58,522.66" fill="none" stroke="#1e1e1e" stroke-width="0.96" stroke-linecap="round" stroke-linejoin="round"/>
<path d="M1910.56,514.77L1909.6,514.61L1909.62,516.21L1907.68,517.12L1905.46,515.15L1908.4,514.9L1909.01,512.04L1908.31,510.79L1909.18,509.8L1909.94,510L1909.3,511.22L1909.99,510.37L1910.56,514.77Z" fill-rule="evenodd" fill="#4682b4" fill-opacity="0.471"/>
<polyline points="1910.56,514.77 1909.6,514.61 1909.62,516.21 1907.68,517.12 1905.46,515.15 1908.4,514.9 1909.01,512.04 1908.31,510.79 1909.18,509.8 1909.94,510 1909.3,511.22 1909.99,510.37 1910.56,514.77" fill="none" stroke="#1e1e1e" stroke-width="0.96" stroke-linecap="round" stroke-linejoin="round"/>
<path d="M1909.94,509.98L1909.17,509.71L1908.19,510.75L1908.76,513.01L1908.41,514.71L1908.08,514.29L1907.48,515.15L1907.54,511.49L1906.86,510.3L1905.67,511.14L1906.21,509.95L1904.38,510.61L1901.47,507.5L1899.29,507.13L1899.68,508.42L1898.23,507.16L1897.25,508.35L1894.57,506.99L1889.74,498.19L1896.42,492.04L1892.66,491.78L1887.34,482.82L1882.7,478.23L1876.05,474.07L1862.61,467.73L1857.62,466.4L1856.99,467.32L1857.63,468.27L1855.77,466.46L1840.36,461.05L1825.65,463.51L1822.05,464.83L1819.5,466.83L1817.66,467.42L1816.56,466.93L1816.35,468.18L1813.13,467.34L1807.08,469.45L1801.92,472.8L1801.38,472.43L1799.61,475.7L1797.89,476.23L1790.95,482.6L1784.56,484.99L1784.82,486.91L1783.53,488.46L1778.03,484.84L1778.16,486.33L1777.13,487.05L1775.66,486.39L1775.3,486.88L1775.56,486.2L1771.86,484.95L1777.73,488.79L1768.01,483.01L1765.35,482.43L1765.5,481.6L1765.28,482.52L1760.75,481.09L1754.72,482.26L1755.54,482.59L1752.76,483.64L1747.45,481.49L1742.23,483.5L1735.12,481.48L1729.31,481.88L1729.27,480.98L1730.77,480.98L1730.77,480.08L1729.98,480.79L1728.92,480.46L1728.4,481.48L1729.2,481.91L1726.2,483.25L1726.13,485.84L1721.88,485.58L1717.58,488.18L1713.95,488.73L1712.34,490.63L1710.13,490.83L1706.81,495.57L1705.31,492.84L1702.93,493.33L1705,488.79L1705.06,486.61L1706.42,485.06L1708.36,479.85L1707.03,477.09L1708.68,475.68L1710.53,470.14L1709.9,467.91L1709.09,467.82L1708.78,465.56L1710.85,462.88L1713.38,453.88L1712.85,451.19L1713.4,445.64L1710.4,440.04L1711.11,430.42L1711.6,429.06L1713.92,428.01L1714.63,430.35L1715.38,430.18L1714.99,431.62L1716.29,431.96L1718.37,436.61L1720.82,436.94L1720.2,438.03L1721.74,437.26L1720.22,438L1720.86,436.92L1718.42,436.58L1716.34,431.93L1715.05,431.59L1715.47,430.15L1714.64,430.22L1714.04,427.96L1711.35,429.1L1710.73,427.52L1709.59,426.91L1710.27,418.3L1708.07,410.22L1705.88,409.67L1705.93,410.5L1705.1,409.72L1704.77,410.27L1705.93,411.61L1703.94,409.79L1704.93,409.94L1703.8,408.42L1702.28,408.74L1702.28,409.72L1702.28,407.95L1705.08,402.23L1707.07,393.66L1707.78,387.1L1707.22,379.06L1705.77,372.98L1702.89,366.88L1695.67,360.35L1697.23,360.15L1697.32,360.71L1696.67,360.21L1697.84,361.8L1697.48,360.44L1698.02,360.65L1702.21,363.86L1705.02,369.28L1704.54,368.27L1705.2,366.29L1703.57,365.18L1703.87,363.92L1706.57,366.87L1709.19,365.37L1715.13,366.51L1721.31,364.82L1722.24,365.4L1722.69,368.01L1724.16,368.59L1722.94,368.06L1722.62,365.33L1721.55,364.52L1714.78,365.89L1711.12,363.11L1709.54,363.38L1708.43,356.92L1709.91,356.49L1707.64,356.23L1707.34,351.91L1705.14,355.4L1704.33,355.12L1704.87,354.66L1702.26,354.35L1703.89,354.85L1702.7,355.9L1704.47,356.98L1702.88,357.1L1703.85,357.55L1702.63,357.34L1702.93,357.96L1701.81,357.25L1702.6,357.7L1701.45,357.89L1706.5,358.45L1705.47,358.3L1705.21,360.35L1704.59,359.47L1705.39,360.99L1704.67,360.45L1704.7,361.04L1703.64,361.17L1703.98,359.79L1702.99,359.83L1703.07,360.93L1702.96,359.83L1702.56,360.39L1702.68,359.75L1697.12,357.33L1694.44,358.9L1693.57,361.15L1690.86,361.86L1690.32,363.21L1687.8,365.18L1685.39,366.44L1682.26,366.05L1680.5,367.44L1678.04,367.63L1676.27,369.66L1674.36,369.44L1676.3,363.52L1676.14,358.69L1673.04,351.39L1669.3,347.27L1670.96,345.88L1677.34,344.14L1677.46,346.12L1677.83,345.66L1678.14,346.67L1680.91,347.4L1679.96,347.87L1678.63,347.09L1679.04,347.44L1677.92,348.29L1680.05,348.55L1680.74,349.92L1680.58,347.84L1682.49,347.22L1681.9,348.32L1682.92,348.21L1684.94,351.52L1683.32,347.15L1681.36,346.32L1682.87,345.48L1683.58,343.91L1684.75,344.26L1685.62,346.27L1685.58,345.1L1686.26,344.99L1688.35,346.48L1687.71,344.94L1686.88,344.78L1687.22,343.14L1687.93,343.82L1687.84,343.16L1689.08,343.09L1689.22,343.72L1689.52,342.06L1691.12,342.67L1688.77,341.44L1685.5,342.05L1684.09,343.17L1684.31,340.82L1689.39,336.67L1691.8,336.01L1693.11,337.35L1691.62,335.63L1691.7,334.4L1690.97,334.72L1691.68,334.11L1691.06,332.07L1689.22,330.5L1689.41,329.81L1688.78,330.11L1692.09,324.47L1691.91,323.17L1692.94,321.4L1691.86,323.16L1691.99,324.47L1688.35,330.21L1687.02,328.09L1687.58,326.83L1686.7,326.03L1687.29,325.87L1686.27,325.54L1685.93,321.1L1687.63,318.21L1686.14,319.08L1684.23,325.5L1681.07,329.67L1680.31,332.8L1680.52,338.22L1678.4,342.23L1672.45,344.31L1667.74,344.17L1664.95,346.73L1659.87,344.6L1658.25,344.9L1658.14,345.86L1655.2,345.69L1653.2,344.67L1653.85,340.8L1651.57,338.2L1654.4,330.71L1656.11,323.13L1654.77,317.72L1655.24,313.92L1654.57,311.15L1658.13,301.94L1658.99,296.65L1658.71,291.78L1656.57,288.24L1656.46,286.67L1655.49,285.98L1656.09,285.45L1655.28,285.45L1655.43,286.17L1653,285.22L1653.74,284.26L1655,284.31L1654.98,283.62L1655.63,284.73L1656.85,284.81L1657.76,284.09L1657.53,283.11L1658.93,283.26L1662.27,280.34L1665,277.18L1668.31,270.92L1669.55,270.02L1670.64,270.37L1669.96,268.89L1671.05,268.14L1674.03,262.24L1674.48,262.83L1673.25,260.09L1674.71,250.48L1684.05,212.62L1683.94,211.04L1682.83,210.87L1682.8,209.28L1680.32,207.14L1683.38,194.01L1685.99,176.53L1687.18,165.65L1687.1,165.02L1685.99,164.95L1689.82,144.67L1690.88,132.88L1688,119.23L1687.16,118.9L1685.86,116.1L1684.84,116.05L1684.98,116.85L1681.27,102.19L1680.17,101.5L1677.3,95.43L1677.5,89.34L1676.35,87.39L1675.69,82.84L1672.96,76.08L1672.31,72.16L1671.17,71.23L1671.05,72.15L1667.9,65.48L1667.87,55.95L1666.56,53.58L1666.93,51.93L1666.02,50.4L1665.29,44.96L1665.83,42.64L1664.75,40.56L1665.11,39.26L1663.89,36.9L1663.22,32.83L1664.59,32.86L1666.37,31.04L1667.63,32.34L1668.42,31.59L1668.37,32.24L1669.96,32.06L1668.22,31.63L1668.38,29.63L1666.26,28.69L1844.8,8L1909.94,509.98Z" fill-rule="evenodd" fill="#4682b4" fill-opacity="0.471"/>
<polyline points="1909.94,509.98 1909.17,509.71 1908.19,510.75 1908.76,513.01 1908.41,514.71 1908.08,514.29 1907.48,515.15 1907.54,511.49 1906.86,510.3 1905.67,511.14 1906.21,509.95 1904.38,510.61 1901.47,507.5 1899.29,507.13 1899.68,508.42 1898.23,507.16 1897.25,508.35 1894.57,506.99 1889.74,498.19 1896.42,492.04 1892.66,491.78 1887.34,482.82 1882.7,478.23 1876.05,474.07 1862.61,467.73 1857.62,466.4 1856.99,467.32 1857.63,468.27 1855.77,466.46 1840.36,461.05 1825.65,463.51 1822.05,464.83 1819.5,466.83 1817.66,467.42 1816.56,466.93 1816.35,468.18 1813.13,467.34 1807.08,469.45 1801.92,472.8 1801.38,472.43 1799.61,475.7 1797.89,476.23 1790.95,482.6 1784.56,484.99 1784.82,486.91 1783.53,488.46 1778.03,484.84 1778.16,486.33 1777.13,487.05 1775.66,486.39 1775.3,486.88 1775.56,486.2 1771.86,484.95 1777.73,488.79 1768.01,483.01 1765.35,482.43 1765.5,481.6 1765.28,482.52 1760.75,481.09 1754.72,482.26 1755.54,482.59 1752.76,483.64 1747.45,481.49 1742.23,483.5 1735.12,481.48 1729.31,481.88 1729.27,480.98 1730.77,480.98 1730.77,480.08 1729.98,480.79 1728.92,480.46 1728.4,481.48 1729.2,481.91 1726.2,483.25 1726.13,485.84 1721.88,485.58 1717.58,488.18 1713.95,488.73 1712.34,490.63 1710.13,490.83 1706.81,495.57 1705.31,492.84 1702.93,493.33 1705,488.79 1705.06,486.61 1706.42,485.06 1708.36,479.85 1707.03,477.09 1708.68,475.68 1710.53,470.14 1709.9,467.91 1709.09,467.82 1708.78,465.56 1710.85,462.88 1713.38,453.88 1712.85,451.19 1713.4,445.64 1710.4,440.04 1711.11,430.42 1711.6,429.06 1713.92,428.01 1714.63,430.35 1715.38,430.18 1714.99,431.62 1716.29,431.96 1718.37,436.61 1720.82,436.94 1720.2,438.03 1721.74,437.26 1720.22,438 1720.86,436.92 1718.42,436.58 1716.34,431.93 1715.05,431.59 1715.47,430.15 1714.64,430.22 1714.04,427.96 1711.35,429.1 1710.73,427.52 1709.59,426.91 1710.27,418.3 1708.07,410.22 1705.88,409.67 1705.93,410.5 1705.1,409.72 1704.77,410.27 1705.93,411.61 1703.94,409.79 1704.93,409.94 1703.8,408.42 1702.28,408.74 1702.28,409.72 1702.28,407.95 1705.08,402.23 1707.07,393.66 1707.78,387.1 1707.22,379.06 1705.77,372.98 1702.89,366.88 1695.67,360.35 1697.23,360.15 1697.32,360.71 1696.67,360.21 1697.84,361.8 1697.48,360.44 1698.02,360.65 1702.21,363.86 1705.02,369.28 1704.54,368.27 1705.2,366.29 1703.57,365.18 1703.87,363.92 1706.57,366.87 1709.19,365.37 1715.13,366.51 1721.31,364.82 1722.24,365.4 1722.69,368.01 1724.16,368.59 1722.94,368.06 1722.62,365.33 1721.55,364.52 1714.78,365.89 1711.12,363.11 1709.54,363.38 1708.43,356.92 1709.91,356.49 1707.64,356.23 1707.34,351.91 1705.14,355.4 1704.33,355.12 1704.87,354.66 1702.26,354.35 1703.89,354.85 1702.7,355.9 1704.47,356.98 1702.88,357.1 1703.85,357.55 1702.63,357.34 1702.93,357.96 1701.81,357.25 1702.6,357.7 1701.45,357.89 1706.5,358.45 1705.47,358.3 1705.21,360.35 1704.59,359.47 1705.39,360.99 1704.67,360.45 1704.7,361.04 1703.64,361.17 1703.98,359.79 1702.99,359.83 1703.07,360.93 1702.96,359.83 1702.56,360.39 1702.68,359.75 1697.12,357.33 1694.44,358.9 1693.57,361.15 1690.86,361.86 1690.32,363.21 1687.8,365.18 1685.39,366.44 1682.26,366.05 1680.5,367.44 1678.04,367.63 1676.27,369.66 1674.36,369.44 1676.3,363.52 1676.14,358.69 1673.04,351.39 1669.3,347.27 1670.96,345.88 1677.34,344.14 1677.46,346.12 1677.83,345.66 1678.14,346.67 1680.91,347.4 1679.96,347.87 1678.63,347.09 1679.04,347.44 1677.92,348.29 1680.05,348.55 1680.74,349.92 1680.58,347.84 1682.49,347.22 1681.9,348.32 1682.92,348.21 1684.94,351.52 1683.32,347.15 1681.36,346.32 1682.87,345.48 1683.58,343.91 1684.75,344.26 1685.62,346.27 1685.58,345.1 1686.26,344.99 1688.35,346.48 1687.71,344.94 1686.88,344.78 1687.22,343.14 1687.93,343.82 1687.84,343.16 1689.08,343.09 1689.22,343.72 1689.52,342.06 1691.12,342.67 1688.77,341.44 1685.5,342.05 1684.09,343.17 1684.31,340.82 1689.39,336.67 1691.8,336.01 1693.11,337.35 1691.62,335.63 1691.7,334.4 1690.97,334.72 1691.68,334.11 1691.06,332.07 1689.22,330.5 1689.41,329.81 1688.78,330.11 1692.09,324.47 1691.91,323.17 1692.94,321.4 1691.86,323.16 1691.99,324.47 1688.35,330.21 1687.02,328.09 1687.58,326.83 1686.7,326.03 1687.29,325.87 1686.27,325.54 1685.93,321.1 1687.63,318.21 1686.14,319.08 1684.23,325.5 1681.07,329.67 1680.31,332.8 1680.52,338.22 1678.4,342.23 1672.45,344.31 1667.74,344.17 1664.95,346.73 1659.87,344.6 1658.25,344.9 1658.14,345.86 1655.2,345.69 1653.2,344.67 1653.85,340.8 1651.57,338.2 1654.4,330.71 1656.11,323.13 1654.77,317.72 1655.24,313.92 1654.57,311.15 1658.13,301.94 1658.99,296.65 1658.71,291.78 1656.57,288.24 1656.46,286.67 1655.49,285.98 1656.09,285.45 1655.28,285.45 1655.43,286.17 1653,285.22 1653.74,284.26 1655,284.31 1654.98,283.62 1655.63,284.73 1656.85,284.81 1657.76,284.09 1657.53,283.11 1658.93,283.26 1662.27,280.34 1665,277.18 1668.31,270.92 1669.55,270.02 1670.64,270.37 1669.96,268.89 1671.05,268.14 1674.03,262.24 1674.48,262.83 1673.25,260.09 1674.71,250.48 1684.05,212.62 1683.94,211.04 1682.83,210.87 1682.8,209.28 1680.32,207.14 1683.38,194.01 1685.99,176.53 1687.18,165.65 1687.1,165.02 1685.99,164.95 1689.82,144.67 1690.88,132.88 1688,119.23 1687.16,118.9 1685.86,116.1 1684.84,116.05 1684.98,116.85 1681.27,102.19 1680.17,101.5 1677.3,95.43 1677.5,89.34 1676.35,87.39 1675.69,82.84 1672.96,76.08 1672.31,72.16 1671.17,71.23 1671.05,72.15 1667.9,65.48 1667.87,55.95 1666.56,53.58 1666.93,51.93 1666.02,50.4 1665.29,44.96 1665.83,42.64 1664.75,40.56 1665.11,39.26 1663.89,36.9 1663.22,32.83 1664.59,32.86 1666.37,31.04 1667.63,32.34 1668.42,31.59 1668.37,32.24 1669.96,32.06 1668.22,31.63 1668.38,29.63 1666.26,28.69 1844.8,8 1909.94,509.98" fill="none" stroke="#1e1e1e" stroke-width="0.96" stroke-linecap="round" stroke-linejoin="round"/>
<path d="M298.89,356.51L292.32,356.65L289.97,355.95L290.46,355.51L289.87,352.28L286.17,350.17L285.02,348.12L290.72,347.97L293.86,345.25L296.73,346.41L301.62,350.7L300.36,353.48L300.88,354.88L299.13,355.66L299.33,357.39L298.5,357.27L298.89,356.51Z" fill-rule="evenodd" fill="#4682b4" fill-opacity="0.471"/>
<polyline points="298.89,356.51 292.32,356.65 289.97,355.95 290.46,355.51 289.87,352.28 286.17,350.17 285.02,348.12 290.72,347.97 293.86,345.25 296.73,346.41 301.62,350.7 300.36,353.48 300.88,354.88 299.13,355.66 299.33,357.39 298.5,357.27 298.89,356.51" fill="none" stroke="#1e1e1e" stroke-width="0.96" stroke-linecap="round" stroke-linejoin="round"/>
<path d="M1135.55,924.44L1130.46,923.46L1125.55,921.21L1124.07,921.33L1121.47,919.11L1117.4,917.26L1113.25,912.92L1112.76,910.39L1111.62,909.12L1116.93,904L1119.21,904.15L1122.32,907.83L1123.78,907.87L1124.76,908.89L1127.98,909.46L1132.64,907.39L1134.63,907.7L1139.17,906.62L1142.98,909.25L1142.67,910.1L1145.53,912.81L1148.04,912.93L1152.12,914.49L1155.55,913.95L1156.22,915.4L1155.25,914.46L1154.63,915.28L1152.96,914.99L1151.4,915.72L1149.38,919.74L1147.95,920.2L1147.14,922.32L1145.06,924.41L1143.63,924.8L1139.4,923.92L1136.46,925.25L1135.55,924.44Z" fill-rule="evenodd" fill="#4682b4" fill-opacity="0.471"/>
<polyline points="1135.55,924.44 1130.46,923.46 1125.55,921.21 1124.07,921.33 1121.47,919.11 1117.4,917.26 1113.25,912.92 1112.76,910.39 1111.62,909.12 1116.93,904 1119.21,904.15 1122.32,907.83 1123.78,907.87 1124.76,908.89 1127.98,909.46 1132.64,907.39 1134.63,907.7 1139.17,906.62 1142.98,909.25 1142.67,910.1 1145.53,912.81 1148.04,912.93 1152.12,914.49 1155.55,913.95 1156.22,915.4 1155.25,914.46 1154.63,915.28 1152.96,914.99 1151.4,915.72 1149.38,919.74 1147.95,920.2 1147.14,922.32 1145.06,924.41 1143.63,924.8 1139.4,923.92 1136.46,925.25 1135.55,924.44" fill="none" stroke="#1e1e1e" stroke-width="0.96" stroke-linecap="round" stroke-linejoin="round"/>
</svg>
