<?xml version="1.0" encoding="UTF-8" standalone="no"?>
<svg xmlns="http://www.w3.org/2000/svg" width="2000" height="1378" viewBox="0 0 2000 1378">
<rect width="2000" height="1378" fill="#ffffff"/>
<polyline points="1083.61,875.95 1079.63,888.32 1079,892.55 1079.93,896.94 1086.49,911.67 1088.11,919.59 1088.09,925.27 1084.03,936.9 1083.48,940.95 1084.95,954.71 1083.71,958.4 1078.57,966.21 1078.39,977.3 1084.38,985.87 1093.09,991.98 1109.19,999.71 1123.28,1010.17 1138.44,1025.37 1142.74,1027 1157.66,1028.77 1161.84,1031.02 1164.96,1034.93 1166.72,1040.91 1172.08,1043.73 1221.88,1042.39 1234.17,1038.15 1238.95,1038.11 1248.07,1041.8 1264.6,1053.73 1273.22,1056.25 1286.1,1055.96 1290.36,1054.5 1296.34,1050.64 1299.12,1050.07 1303.79,1052.6 1308.96,1050.37 1317.94,1054.16 1322.99,1054.16 1324.47,1055.45 1326.59,1060.88 1328,1062.48 1330.11,1062.19 1334.3,1059.06 1336.22,1058.53 1340.21,1061.94 1345.98,1058.85 1350.4,1064.6 1352.4,1066.11 1355.25,1066.47 1362.61,1064.2 1366.48,1065.14 1368.03,1067.02 1372.34,1076.33 1373.51,1076.92 1396,1078.72 1401.15,1078.32 1409.93,1075.31 1414.56,1075.91 1419.58,1078.98 1429.33,1086.92 1434.09,1089.33 1471.28,1093.42 1476.1,1091.63 1485.13,1085.96 1494.56,1085.47 1505.52,1081.41 1509.51,1078.92 1514.08,1072.7 1516.34,1072.37 1521.52,1074.43 1523.92,1074.33 1559.6,1062.28 1570.39,1062.36 1573.93,1061.51 1577.65,1058.75 1581.99,1047.98" fill="none" stroke="#1e1e1e" stroke-width="1.32" stroke-linecap="round" stroke-linejoin="round"/>
<polyline points="1151.39,488.75 1153.57,491.22 1154.62,496.82 1154.88,506.55 1153.85,512.2 1149.63,525.24 1146.38,529.95 1145.81,533.22 1147.42,550.58 1147.49,574.89 1148.85,581.91 1151.7,587.18 1164.64,595.06 1166.61,598.08 1168.78,608.01 1175.23,621.69 1176.17,631.69 1171.28,642.56 1168.56,656.02 1163.97,668.59 1164.8,673.89 1161.54,678.78 1163.41,684.91 1169.23,693.45 1169.07,700.06 1167.75,707.01 1161.89,719.1 1158.37,721.98 1157.94,733.2 1153.82,741.73 1150.85,752.66 1149.72,754.45 1140.93,756.56 1138.05,754.55 1134.96,756.64 1131.31,756.73 1130.87,747.16 1124.53,740.58 1110.39,731.22 1108.47,727.41 1107.66,723 1107.24,704.28 1107.59,697.91 1108.86,693.98 1108.29,689.02 1110.76,679.39 1109.99,674.36 1107.48,672.47 1103.3,671.36 1099.41,671.53 1094.25,679.81 1085.98,680.63 1076.43,680.08 1069.07,682.43 1071.93,687.36 1070.63,690.03 1067.88,690.59 1066.37,689.12 1065.35,684.61 1063.01,684.56 1058.18,688.17 1048.47,692.89 1045.16,696.3 1041.86,701.95 1042.82,703.6 1041.88,706.05 1039.32,704.75 1038.07,706.53 1038.02,710.06 1039.16,713.92 1036.58,714.15 1035.31,715.31 1036.33,719.79 1026.64,726.77 1022,727.67 1007.55,727.69 1003.56,731.6 999.34,729.83 985.91,730.53 964.79,737.66 903.74,746.63 891.73,750.27 884.68,750.97 879.61,753.03 872.84,757.97 867.7,763.82 867.37,768.67 856.26,784.27 851.97,792.07 848.47,793.79 847.95,794.89 849.27,800.88 845.42,808.21 845.81,810.73 849.28,814.84 852.1,825.37 857.43,834.39 855.75,841.14 858.3,845.21 856.58,856.32 857.74,864.06 855.79,869.61 854.74,870.73 852.13,871.05 851.13,872 851.99,880.14 857.32,895.01 860.16,897.82 863.47,908.24 866.56,913.16 867.51,917.92 866.09,922.18 870.37,931.24 871.63,932.47 870.13,936.84 870.85,943.54 870.06,945.75 864.63,949.63 862.9,958.19 859.34,959.56 856.57,962.2 855.64,968.59 851.82,973.05 848.02,988.49 843.27,996.7 846.34,1002.91 846.61,1005.88 844.86,1012.44 846.48,1015.27 851.4,1018.36 849.84,1022.25 851.43,1034.03 851.13,1047.93 854.7,1066.61 853.68,1071.51 856.14,1075.1 858.34,1080.48 859.91,1087.07 860.5,1094.23 858.87,1105.65 857.67,1108.99 854.42,1111.82 853.18,1113.98 853.25,1118.75 854.57,1122.31 858.07,1126.48 859.83,1133.5 864.6,1138.36 865.68,1141.52 864.88,1150.4 865.57,1154.36 869.23,1158.58 870.19,1164.1 872.63,1166.2 871.08,1168.13 872.6,1170.11 870.9,1175.52 874.02,1182.02 878.46,1188.25 883.49,1199.38 888.81,1203.27 892.2,1208.11 889.12,1217.5 892.51,1219.49 896.76,1224.06 900.4,1229.61 901.94,1234.53 911.59,1251.18 910.05,1252.94 911.73,1254.41 912.32,1256.36 911.79,1258.62 910.01,1260.99 918.79,1276.19 920.45,1287.7 921.98,1291.77 926.89,1300.48 929.99,1309.3 935.25,1311.37 941.61,1315.9 949.91,1335" fill="none" stroke="#1e1e1e" stroke-width="1.32" stroke-linecap="round" stroke-linejoin="round"/>
<polyline points="1129.66,502.85 1118.14,501.71 1111.13,497.96 1098.78,493.1 1090.29,486.54 1086.89,481.9 1084.9,475.89 1084.89,470.08 1088.66,453.29 1087.53,440.35 1083.32,431.4 1076.86,425.49 1069.1,421.72 1031.54,407.9 1027.23,407.71 1014.98,409.38 1010.03,408.86 996.96,403.04 988.73,402.98 980.38,406.88 965.35,419.38 961.36,423.75 958.04,428.62 949.65,445.97 939.37,460.01 920.31,503.41 906.99,524.59 889.1,540.03 869.36,549.39 850.51,552.38 846.11,551.24 838.35,546.51 830.48,544.88 827.56,546.45 824.15,554.04 821.02,554.56 821.44,550.12 820.4,547.84 817.1,546.61 815.24,547.52 811.77,551.09 808.66,556.03 805.15,552.54 797.1,560.62 747.17,579.82 745.34,582.07 749.63,589.54 748.66,595.32 743.18,604.9 741.49,610.61 741.84,612.42 744.62,614.66 737.25,643.73 733.75,648.52 727.87,650.99 724.51,655.49 718.66,667.22 715.16,672.1 712.21,674.09 702.75,677.35 701.12,677.67 698.05,676.1 696.41,676.56 685.3,681.82 681.72,683.96 675.48,691.23 672.86,693.14 668.1,691.43 661.41,692.9 646.36,700.74 641.32,706.98 638.76,709.03 629.21,711.47 619.75,717.16 615.09,718.89 609.83,718.24 594.13,706.67 571.53,696.03 566.69,695.23 555.55,696.86 550.36,696.72 527.5,692.05 506.75,692.58 501.87,691.56 491.57,685.19 487.43,681.16 481.69,672.48 477.57,670.91 460.2,671.86 451.77,669 447.49,668.83 439.03,670.97 425.62,670.7 422.75,669.73 418.58,664.69 412.09,660.13 406.42,649.85 402.75,645.27 396.88,642.56 356.87,641.79 348.19,638.13 345.47,638.52 337.58,641.91 335.31,641.94 301.91,627.77 285.5,626.69 280.38,625.44 276.42,622.15 269.25,613.29 265.18,612.21 234.68,620.01 224.12,620.2 211.14,617.07 206.81,616.76 201.55,617.87 186.51,637.13 180.99,640.68 175.19,641.25 169.55,639.52 164.42,636.18 155.79,624.13 152.08,622.46 134.35,620.45 126.44,621.9 122.17,620.87 99.76,608.3 83.5,597.76 66.36,590.73 56.09,590.42" fill="none" stroke="#1e1e1e" stroke-width="1.32" stroke-linecap="round" stroke-linejoin="round"/>
<polyline points="272.8,1354.06 272.66,1354.05" fill="none" stroke="#1e1e1e" stroke-width="1.32" stroke-linecap="round" stroke-linejoin="round"/>
<polyline points="266.84,1353.79 269.42,1351.46 265.12,1349.48 266.25,1343.8 264.26,1339.44 263,1339.39 261.37,1343.37 259.66,1344.28 252.43,1341.6 251.38,1338.5 250.21,1324.33 249.18,1323.15 245.85,1322.72 244.66,1321.26 242.86,1310.8 244.46,1309.09 243.27,1305.11 244.82,1301.23 240.94,1300.71 237.61,1298.77 242.43,1289.16 240.31,1286.84 239.86,1277.87 238.79,1273.28 241.52,1272.56 240.78,1263.38 241.86,1260.76 246.81,1257.75 246.9,1255.79 244.34,1255.86 242.94,1254.87 242.83,1252.86 244.23,1249.96 241.05,1249.32 239.45,1246.1 239.3,1241.78 240.42,1237.83 238.46,1236.01 235.42,1237.86 233.39,1237.5 228.18,1227.42 214.85,1222.19 211.55,1218.77 210.93,1205 209.19,1199.32 205.53,1196.88 201.91,1197.02 201.53,1187.76 202.64,1185.66 204.81,1185.06 200.69,1180.74 205.01,1180.95 203.6,1178.77 205.03,1175.29 203.88,1173.05 203.98,1171.09 208.39,1169.34 208.49,1167.2 205.3,1165.64 201.86,1158.7 199.03,1156.92 199.13,1154.95 200.53,1155.02 200.62,1153.25 199.22,1153.18 199.32,1151.04 202.92,1151.51 204.58,1149.98 204.01,1147.54 201,1145.42 202.18,1141.83 198.59,1137.25 198.13,1134.23 203.24,1118.69 206.44,1116.15 212.23,1116.32 210.53,1112.55 206.94,1110.16 208.72,1104.35 210.24,1105.61 212.8,1104.55 208.82,1102.21 210.39,1096.41 207.54,1097.36 205.4,1091.16 202.3,1090.12 202.4,1088.16 205.38,1085.58 206.9,1082.74 207.04,1079.21 204.4,1070.78 202.89,1068.94 196.28,1068.03 197.08,1062.61 193,1055.44 195.79,1052.31 190.34,1046.32 192.16,1040.33 189.93,1039.9 188.56,1038.36 188.22,1032.83" fill="none" stroke="#1e1e1e" stroke-width="1.32" stroke-linecap="round" stroke-linejoin="round"/>
<polyline points="29.33,1038.71 31.73,1040.67 35.66,1036.79 40.47,1022.46 51.46,1007.47 54.73,1005.24 68.17,1000.89 69.69,994.86 71.49,992.47" fill="none" stroke="#1e1e1e" stroke-width="1.32" stroke-linecap="round" stroke-linejoin="round"/>
<polyline points="1197.98,33.83 1202.7,37.98 1207.11,39.35 1216.14,38.26 1220.58,39.29 1228.97,44.34 1233.21,45.87 1241.3,46.08 1248.19,48.9 1251.78,49.21 1264.55,43.91 1273.59,43.31 1300.79,36.58 1309.99,31.96" fill="none" stroke="#1e1e1e" stroke-width="1.32" stroke-linecap="round" stroke-linejoin="round"/>
<polyline points="1323.32,31.69 1326.57,33.05 1327.45,31.6" fill="none" stroke="#1e1e1e" stroke-width="1.32" stroke-linecap="round" stroke-linejoin="round"/>
<polyline points="1329.41,31.56 1330.75,34.15 1334.5,34.9 1342.36,33.11 1345.63,34.71 1350.14,40.15 1352.17,38.78 1360.45,46.91 1361.69,49.03 1362.58,53.88 1364.4,52.83 1368.21,47.89 1370.66,49.94 1373.22,56.25 1379.88,58.62 1379.94,61.09 1377.79,63.3 1374.05,63.64 1374.1,65.43 1383.06,69.59 1385.36,67.54 1388.82,69.68 1389.86,71.11 1389.79,72.76 1387.39,77.07 1388.97,84.07 1392.49,89.5 1397.22,93.5 1402.31,96.3 1402.37,98.44 1398.47,100.33 1399.89,104.38 1404.79,102.08 1409.26,109.53 1411.83,108 1414.13,110.5 1414.36,113.17 1413.12,115.71 1410.89,117.84 1416.24,121.62 1416.29,123.41 1413.03,128.15 1415.21,130.72 1419.63,133.06 1423.25,137.14 1423.58,149.08 1430.12,152.16 1431.64,154.57 1425.17,158.86 1427.5,160.73 1430.28,164.81 1434.33,172.77 1438.84,176.15 1440.55,185.91 1436.14,186.97 1438.1,193.23 1442.72,200.69 1455.83,217.07 1461.4,222.41 1467.53,224.56 1470.56,237.22 1473.96,238.09 1477,249.92 1479.09,251.67 1483.74,253.68 1489.05,253.51 1491.7,254.48 1497.24,258.31 1498.7,261.05 1496.14,264.62 1495.03,270.98 1498.59,273.89 1497.31,282.8 1502.84,286.78 1507.86,297.9 1510.54,302.06 1517.35,303.8 1522.58,307.17 1527.47,308.21 1529.6,310.35 1533.81,317.17 1533.69,320.75 1541.03,330.47 1545.24,342.36 1544.93,343.58 1542.73,344.33 1545.16,347.48 1553.81,351.8 1553.88,353.74 1552.76,355.91 1557.39,358.53 1563.62,365.01 1571.81,370.53 1572,374.7 1576.84,375.44 1585.86,380.01 1589.63,377.95 1591.59,382.63 1598.17,390.4 1601.01,395.19 1605.27,405.49 1606.09,410.48 1604.58,414.85 1607.95,416.98 1608.12,423.7 1610.37,426.42 1610.18,434.29 1613.68,442.22 1622.16,455.57 1622.32,460.97 1634.24,482.74 1636.56,490.43 1637.47,498.49 1634.46,505.32 1633.62,509.48 1635.51,514.1 1633.73,515.46 1633.1,517.64 1633.12,528.41 1636.38,535.65 1638.76,536.27 1639.47,547.56 1638.27,552.17 1635.52,553.72 1637.1,557.55 1636.27,559.24 1633.24,561.46 1632.45,570.28 1631.56,571.53 1629.21,572.43 1628.81,574.56 1630.16,583.87 1627.44,590.93 1625.16,593.37 1619.19,596.34 1618.44,598.37 1619.31,603.25 1618.91,604.83 1614.39,606.65 1614.9,609.07 1621.32,618.49 1622.06,620.99 1620.03,627.75 1619.15,634.87 1614.46,650.39 1612.9,651.5 1612.42,652.95 1613.93,656.8 1611.58,669.84 1618.9,692.98 1621.11,697.15 1619.83,703.85 1622.83,710.59 1618.92,715.67 1619.81,723.96 1623.25,732.54 1628.88,741.87 1631.74,770.59 1631.53,775.21 1632.93,778.89 1630.13,780.42 1623.5,780.61 1620.92,781.68 1614.52,787.54 1612.11,790.86 1623.56,796.43 1628.31,799.83 1633.61,808.81 1634.09,818.48 1635.62,821.34 1644.05,830.83" fill="none" stroke="#1e1e1e" stroke-width="1.32" stroke-linecap="round" stroke-linejoin="round"/>
<polyline points="1587.87,23.78 1586.17,29.55 1589.04,31.6 1593.34,31.62 1596.25,30.7 1602.01,25.41 1605.11,24.81 1607.61,35 1609.74,38.18 1613.08,39.06 1617.48,37.9 1627.56,30.33 1636.31,28.94 1639.63,29.23 1641.73,31.42 1642.32,36.88 1641.29,42.84 1633.74,51.16 1632.63,55.19 1633.15,59.2 1635.4,61.5 1639.38,60.57 1642.2,57.04 1646.41,49.09 1650.78,48.28 1653.86,50.26 1655.88,54.07 1655.82,58.43 1652.8,62.14 1658.71,73.24 1665.12,78.08 1667.11,77.85 1668.62,64.16 1671.72,61.79 1675.63,61.83 1679.05,62.94 1684.59,66.65 1693.61,69.12 1694.25,71.24 1693.54,77.4 1687.65,76.49 1675.93,90.62 1675.18,93.74 1677.23,98.05 1681.37,96.58 1692.34,86.2 1694.65,85.83 1698.8,89.77 1704.39,86.19 1707.66,88.43 1712.04,95.04 1718.97,100.43 1724.87,99.1 1730.54,103.83 1734.19,110.67 1734.27,117.56 1740.66,122.24 1763.99,128.07 1771.59,134.01 1771.86,141.65 1765.56,159.6 1764.96,166.01 1766.67,182.05 1768.54,189.63 1770.12,192.38 1768.8,200.7 1770.31,205.66 1775.03,211.95 1776.14,215.06 1777.49,225.92 1779.31,229.99 1782.51,233.41 1791.36,238.37 1793.62,240.89 1795.13,244.9 1794.61,247.75 1791.56,252.76 1790.54,261.7 1795.17,265.95 1801.96,269.85 1807.38,277.66 1805.46,281.12 1802.68,283.25 1799.47,283.43 1792.42,277.38 1790.65,278.53 1791.14,282.93 1794.05,289.07 1808.84,311.29 1812.42,320.8 1809.41,322.44 1806.2,330.95 1800.05,335.01 1796.8,339.5 1792.39,349.33 1795.42,349.92 1798.29,351.69 1803.58,356.62 1807.86,349.96 1809.19,344.99 1813.76,345.91 1815.7,345.17 1816.41,341.66 1813.34,335.64 1813.04,332.55 1814.62,330.53 1817.08,330.32 1819.58,331.62 1821.24,334.1 1822.45,334.04 1824.15,330.15 1826.77,331.14 1832.56,335.45 1835.08,335.89 1836.19,341.14 1843.07,344.7 1851.75,352.75 1853.1,354.97 1854.43,363.22 1854.38,366.95 1851.02,365.88 1853.21,372 1854.01,371.6 1852.74,374.54 1844.06,379.17 1840.97,379.34 1838.19,378.36 1840.03,383.24 1842.82,387.75 1846.18,391.4 1849.75,393.62 1854.87,393.88 1862.43,388.43 1866.26,386.84 1871.01,387.75 1873.38,391.01 1875.3,405.83 1879.17,413.62 1879.88,423.15 1881.29,425.29 1880.93,430.86 1883.91,434.85 1887.66,435.9 1889.77,432.65 1891.11,432.58 1893.85,434.28 1898.65,423.43 1900.55,420.26 1903.19,418.3 1904.12,420.77 1903.79,422.2 1902.75,422.26 1904.7,425.61 1911.01,425.72 1913.66,429.1 1921.44,449.74 1920.12,455.75 1916.1,464.89 1921.86,464.68 1923.56,467.74 1928.31,465.96 1932.52,466.98 1934.54,468.85 1936.96,474.04" fill="none" stroke="#1e1e1e" stroke-width="1.32" stroke-linecap="round" stroke-linejoin="round"/>
<polyline points="1937.19,477.82 1933.11,480.78 1930.84,483.8 1929.6,487.69 1932.53,487.84 1937.94,490.41" fill="none" stroke="#1e1e1e" stroke-width="1.32" stroke-linecap="round" stroke-linejoin="round"/>
<polyline points="873.7,34.59 872.38,38.51 861.4,55.82 855.59,70.78 853.36,81.62 849.99,86.76 844.11,92.93 839.78,100.45 838.68,111.7 840.83,116.53 840.71,122.32 837.07,128.19 837.03,132.3 832.92,135.57" fill="none" stroke="#1e1e1e" stroke-width="1.32" stroke-linecap="round" stroke-linejoin="round"/>
<polyline points="832.92,135.57 839.63,141.6 842.36,146.44 844.57,153.92 849.5,160.53 852.42,167.34 858.48,174.25 860.66,178.83 864.49,183.07 871.66,185.94 886.02,190.33 890.29,189.89 894.86,188.06 901.57,183.45 907.98,181.55 916.13,174.18 923.76,169.52 933.06,167.59 942,169.76 957.29,181.17 967.9,184.62 971.13,186.59" fill="none" stroke="#1e1e1e" stroke-width="1.32" stroke-linecap="round" stroke-linejoin="round"/>
<polyline points="293.51,87.43 300.11,87.5 306.64,85.89 311.76,81.27 314.13,72.39 313.6,68.43 311.38,63.47 312.01,58.45 315.93,50.59 318.82,47.2 321.76,45.3 325.34,44.89 337.59,45.99 347.98,45.53 355.36,49.46 358.98,50.26 362.65,49.83 377.59,41.26 383.02,40.75 393.26,32.43 405.36,32.11 409.13,30.91 416.4,23.95" fill="none" stroke="#1e1e1e" stroke-width="1.32" stroke-linecap="round" stroke-linejoin="round"/>
<polyline points="470.34,25.92 474.11,29.02 476,31.88 477.23,35.54 475.36,44.82 475.51,47.44 477.52,50.09 482.47,53.23 484.41,55.61 484,64.26 491.15,71.23 493.97,72.34 496.9,77.44 501.61,81.79 504.44,82.97 507.26,81.86 510.47,85.2 514.64,85.75 527.04,83.88 532.33,76.77 534.37,75.82 537.8,76.41 540.35,75.07 554.17,75.47 564.36,71.59 568.07,74.08 571.05,70.34 575.15,72.12 582.41,80.01 586.25,78.55 594.16,82.46 597.7,82.61 626.69,69.65 639.27,58.8 647.65,56.17 656.12,55.99 663.01,58.43 720.62,107.02 724.17,108.28 736.51,109.92 744.4,112.75 748.85,113.44 762.25,112.97 765.4,114.6 775.22,124.04 776.47,128.5 780.61,128.49 800.1,120.76 806.15,121.13 809.27,123.47 818.83,126.2 822.6,128.03 829.55,134.83 832.92,135.57" fill="none" stroke="#1e1e1e" stroke-width="1.32" stroke-linecap="round" stroke-linejoin="round"/>
<polyline points="69.64,363.34 71.54,363.27 74.15,361.61 73.06,358.06 70.05,356.52" fill="none" stroke="#1e1e1e" stroke-width="1.32" stroke-linecap="round" stroke-linejoin="round"/>
<polyline points="72.68,312.49 76.17,311.9 79.42,305.74 87.08,301.29 91.4,293.51 94.49,297.37 97.99,299.07 101.79,299.25 105.92,298.47 110.56,296.08 112.72,292.39 113.63,282.1 109.69,278.83 109.3,262.93 105.62,259.87 100.89,258.67 98.02,256.8 99.88,251.74 107.43,249.23 113.04,243.66 120.23,241.68 122.98,239.37 124.36,233.42 126.22,231.19 161.8,209.83 163.32,203.07 166.07,202.14 167.51,199.18 166.51,195.7 168.6,193.96 174.53,191.89 177.3,188.38 179.64,183.62 183.09,182.32 202.62,181.38 212.8,172.04 220.53,158.95 220.71,156.78 231.4,155.35 231.2,142.9" fill="none" stroke="#1e1e1e" stroke-width="1.32" stroke-linecap="round" stroke-linejoin="round"/>
<polyline points="231.2,142.9 231.44,141.42 230.13,143.5 231.2,142.9" fill="none" stroke="#1e1e1e" stroke-width="1.32" stroke-linecap="round" stroke-linejoin="round"/>
<polyline points="231.2,142.9 235.1,140.71 236.37,138.53 237.18,134.01 237.31,123.8 239.19,120.19 247.57,110.6 250.91,96.79 252.37,93.35 254.58,91.21 263.23,86 269.25,86.29 271.21,85.61 272.73,81.93 274.12,80.62 277.27,80.56 283.01,86.94 285.72,87.72 294.94,87.5" fill="none" stroke="#1e1e1e" stroke-width="1.32" stroke-linecap="round" stroke-linejoin="round"/>
<polyline points="40.82,846.17 40.77,847.04" fill="none" stroke="#1e1e1e" stroke-width="1.32" stroke-linecap="round" stroke-linejoin="round"/>
<polyline points="39.77,863.68 47.34,870.7 49.98,885.04 49.33,888.91 43.52,892.03 40.54,903.83" fill="none" stroke="#1e1e1e" stroke-width="1.32" stroke-linecap="round" stroke-linejoin="round"/>
<polyline points="37.58,900.5 42.78,906.77 53.19,924.42 54.79,935.62 49.58,942.2 43.36,946.61 41.89,951.26 40.39,951.17 45.38,963.87 60.06,984.82 62.28,987.11 71.49,992.47 83.45,994.13 89.95,993.66 97.23,989.01 106.01,990.29 108.51,991.91 108.76,995.41 105.88,1009.27 105.65,1012.58 106.55,1016.04 108.67,1018.86 114.08,1022.57 123.22,1036.79 127.36,1041.91 131.62,1045.25 144.31,1048.07 156.08,1045.31 178.41,1033.76 196.55,1031.88 203.82,1026.97 211.69,1027.56 214.38,1026.6 219.91,1018.13 226.99,1013.16 236.8,1008.75 247.06,1005.95 255.43,1005.87 258.93,1008.84 262.11,1016.59 265.38,1018.28 282.6,1021.02 295.13,1020.53 299.09,1021.84 302.49,1025.36 306.78,1040.5 313.92,1048.34 323.77,1051.83 334.32,1052.19 343.57,1050.66 354.72,1046.9 358.06,1047.76 376.12,1058.15 382.61,1059.47 384.58,1061.58 389.75,1075.62 391.03,1083.28 392.04,1085.53 398.19,1091.06 400.08,1099.45 403.51,1103.07 408.01,1105.23 412.41,1105.9 417.36,1104.79 420.11,1102.08 444.87,1060.81 446.24,1056.36 449.34,1054.16 457.85,1052.51 461.89,1050.23 471.49,1041.01 480.2,1042.3 483.16,1044.16 496.87,1060.34 503.67,1066.26 510.45,1069.88 526.51,1072.32 529.47,1074.57 539.48,1086.43 538.1,1091.62 534.38,1095.18 529.77,1097.21 525.77,1097.81 521.4,1096.65 514.09,1091.38 509.86,1089.5 505.6,1089.17 501.49,1090.3 498.38,1093.08 496.25,1102.8 494.47,1105.53 491.78,1106.67 484.6,1106.76 481.19,1108.56 479.55,1115.05 479.41,1118.8 479.96,1121.15 484.14,1125.28 484.97,1127.3 484.64,1136.18 487.99,1144.62 493.2,1152.28 499.91,1158.4 507.68,1162.21 516.15,1163.69 520.01,1165.65 521.52,1169.61 520.25,1183.37 521.23,1187.64 564.85,1219.35 572.23,1222.8 581.57,1224.34 590.33,1228.56 591.98,1237.43 588.23,1246.18 580.91,1250.01 563.81,1253.5 559.63,1256.11 557.14,1262.5 551.55,1283.93 551.48,1290.44 553.91,1295.95 559.02,1300.65 565.38,1302.34 609.47,1299.5 615.76,1296.94 623.06,1295.57 630.91,1291.57 649.75,1289.29" fill="none" stroke="#1e1e1e" stroke-width="1.32" stroke-linecap="round" stroke-linejoin="round"/>
<polyline points="649.75,1289.29 648.72,1289.22 649.75,1289.29" fill="none" stroke="#1e1e1e" stroke-width="1.32" stroke-linecap="round" stroke-linejoin="round"/>
<polyline points="649.75,1289.29 682.76,1291.7 704.89,1304.51 713.88,1306.18 731.5,1302.55 736.04,1303.51 747.81,1310.67 822.13,1330.47 863.43,1328.83 867.02,1327.75 878.64,1319.14 885.95,1316.81 892.98,1317.7 935.54,1333.95 945.3,1335.39 989.13,1332.38 1013.62,1341.2 1040.56,1343.19 1049.12,1345.23 1071.44,1359.64 1080.52,1360.8 1085.25,1359.54 1093.86,1355.65 1098.3,1354.83 1107.67,1355.29 1112.4,1354.76 1124.82,1349.69 1136.16,1341.1 1150.31,1340.52 1158.9,1336.68 1164.05,1327.52 1170.83,1320.35 1177.01,1316.69 1186.67,1304.1 1190.21,1296.6 1214.88,1277.89 1216.36,1273.43 1219.95,1267.85 1227.46,1259.18 1234.52,1255.16 1251.13,1250.59 1267.36,1243.13 1329.9,1232.71 1336.77,1230.13 1342.86,1228.93 1346.92,1226.27 1349.28,1225.64 1358.54,1225.44 1365.88,1223.01 1385.11,1210.91 1409.28,1207.87 1414.52,1204.3 1429.74,1213.28 1451.58,1217.08 1456.02,1219.41 1469.39,1210.26 1500.97,1214.35 1504.3,1213.19 1512.02,1207.74 1515.29,1202.81 1525.98,1195.9 1533.93,1192.79 1551.2,1192.49 1559.59,1190.67 1570.8,1181.67 1600.41,1173.07 1607.14,1168.66 1612.22,1161.61 1622.43,1134.25 1632.45,1124.61 1634.66,1121.02 1632.62,1110.78 1629.03,1103.39 1620.05,1101.19 1615.38,1098.84 1612.58,1096.15 1611.82,1093.92 1614.11,1092.85 1615.28,1090.17 1614.87,1079.97 1616.13,1076.98 1617.13,1067.53 1616.26,1065.81 1605.04,1054.09 1601.34,1052.17 1596.21,1051.61 1592.29,1050.18 1588.54,1046.41 1585.46,1041.36 1583.73,1036.2 1584.94,1032.47 1583.64,1030.09 1580.73,1028.86 1577.13,1028.57 1573.62,1026.48 1571.31,1021.72 1570.39,1016.93 1571.14,1014.67 1579.06,1004.46 1582.74,996.56 1582.11,991.1 1584.41,983.81 1585.1,974.94 1584.05,966.68 1581.04,961.33 1586.74,947.23 1588.54,938.99 1593.75,929.83 1594.97,925.32 1591.85,915.82 1591.38,902.97 1591.91,897.87 1606.08,863.16 1608.74,846.13 1611.46,842.66 1615.08,839.99 1622.98,837.55 1635.82,841.36 1638.96,841.05 1640.58,838.82 1641.97,833.02 1644.05,830.83 1648.99,830.09 1655.03,833.18 1659.17,838.4 1658.38,844.17 1664.98,859.41 1669.18,866.42 1673.94,869.22 1677.43,869.98 1684.66,873.75 1702.82,877.63 1719.96,885.72 1747.09,890.56 1754.62,889.2" fill="none" stroke="#1e1e1e" stroke-width="1.32" stroke-linecap="round" stroke-linejoin="round"/>
<polyline points="1939.05,883.6 1940.27,879.39 1938.59,875.6 1940.75,867.18 1939.05,856.08 1935.06,846.46 1918.07,833.39 1889.46,824.82 1873.91,824.06 1867.43,822.14 1863.05,826.68 1859.65,828.76 1848.79,828.92 1841.73,834.32 1838.5,839.46 1833.65,840.03 1829.29,844.1 1817.8,848.62 1807.86,857.76 1805.22,859.25 1799.02,860.26 1796.51,863.93 1796.18,869.49 1795.36,871.54 1790.78,873.48 1786.65,871.3 1780.53,866.19 1775.91,865.58 1770.4,862.06 1767.2,861.11 1761.94,862.71 1762.41,871.13 1756.79,874.33 1756.47,876.55 1758.24,881.17 1765.59,884.75 1763.44,887.5 1760.93,888.74 1754.62,889.2 1756.32,891.6 1764.64,896.76 1765.29,898.38 1765.06,901.95 1767.05,902.54 1771.64,898.21 1775.38,898.07 1778.46,899.16 1782.83,902.45" fill="none" stroke="#1e1e1e" stroke-width="1.32" stroke-linecap="round" stroke-linejoin="round"/>
<polyline points="1934.84,978.34 1916.29,963.26 1902.05,956.54 1898.96,955.92 1895.81,956.97 1889.97,963.2 1887.21,962.24 1886.57,959.65 1888.81,953.43 1886.42,953.84 1882.63,957.7 1880.84,957.27 1877.35,954.05 1872.92,958.17 1871.52,952.56 1870.34,950.53 1867.45,948.51 1868.61,944.54 1866.81,944.21 1864.26,940.82 1865.54,938.8 1863.06,940 1852.58,939.22 1848.14,936.59 1846.9,934.13 1847.66,932.78 1849.9,931.96 1849.18,924.44 1844.39,919.11 1841.54,917.68 1838.53,918.85 1834.02,922.6 1834.13,924.74 1839.9,926.23 1836.26,930.47 1829.61,927.53 1818,919.49 1813.05,918.59 1799.52,912.97 1792.87,907.96 1782.83,902.45" fill="none" stroke="#1e1e1e" stroke-width="1.32" stroke-linecap="round" stroke-linejoin="round"/>
<polyline points="1944.93,902.74 1939.29,899.56 1923.95,898.17 1917.53,896.64 1915.45,893.2 1913.79,892.75 1904.45,899.17 1808.77,902.47 1806.38,901.64 1802.29,897.66 1800.07,896.83 1795.3,897.43 1782.76,902.51" fill="none" stroke="#1e1e1e" stroke-width="1.32" stroke-linecap="round" stroke-linejoin="round"/>
<polyline points="1583.73,1036.2 1581.14,1040.45 1581.47,1043.91 1588.52,1053.68 1590.94,1060.47 1597.05,1064.1 1594.81,1068.36 1594.92,1071.34 1596.09,1076.06 1597.84,1079.03 1594.99,1082.32 1593.93,1087.03 1595.7,1092.86 1590.58,1102.17 1590.16,1105.47 1592.63,1106.89 1595.12,1107.19 1598.15,1110.06 1599.07,1112.53 1599.48,1119.41 1597.38,1125.11 1593.61,1129.02 1585.69,1132.67 1579.27,1146.63 1573.38,1151.92 1558.63,1154.57 1551.33,1157.42 1548.55,1160.65 1542.65,1172.38 1503.61,1191.35 1493.35,1193.34 1489.19,1197.04 1480.72,1197.29 1476.38,1200.27 1469.39,1210.26" fill="none" stroke="#1e1e1e" stroke-width="1.32" stroke-linecap="round" stroke-linejoin="round"/>
<text x="1323.25" y="1232.5" font-family="sans-serif" font-size="14" stroke="#ffffff" stroke-opacity="0.784" stroke-width="2.33" stroke-linejoin="round" paint-order="stroke" fill="#141414">Danube</text>
<text x="624.41" y="704.95" font-family="sans-serif" font-size="14" stroke="#ffffff" stroke-opacity="0.784" stroke-width="2.33" stroke-linejoin="round" paint-order="stroke" fill="#141414">Mureș</text>
<text x="619.66" y="64.89" font-family="sans-serif" font-size="14" stroke="#ffffff" stroke-opacity="0.784" stroke-width="2.33" stroke-linejoin="round" paint-order="stroke" fill="#141414">Tisza</text>
<text x="899.19" y="752.55" font-family="sans-serif" font-size="14" stroke="#ffffff" stroke-opacity="0.784" stroke-width="2.33" stroke-linejoin="round" paint-order="stroke" fill="#141414">Olt</text>
<text x="1542.55" y="369.85" font-family="sans-serif" font-size="14" stroke="#ffffff" stroke-opacity="0.784" stroke-width="2.33" stroke-linejoin="round" paint-order="stroke" fill="#141414">Prut</text>
<text x="1754.31" y="245.88" font-family="sans-serif" font-size="14" stroke="#ffffff" stroke-opacity="0.784" stroke-width="2.33" stroke-linejoin="round" paint-order="stroke" fill="#141414">Dniester</text>
<text x="1260.91" y="1058.24" font-family="sans-serif" font-size="14" stroke="#ffffff" stroke-opacity="0.784" stroke-width="2.33" stroke-linejoin="round" paint-order="stroke" fill="#141414">Ialomița</text>
<text x="169.41" y="1201.2" font-family="sans-serif" font-size="14" stroke="#ffffff" stroke-opacity="0.784" stroke-width="2.33" stroke-linejoin="round" paint-order="stroke" fill="#141414">Morava</text>
<text x="1767.99" y="852.79" font-family="sans-serif" font-size="14" stroke="#ffffff" stroke-opacity="0.784" stroke-width="2.33" stroke-linejoin="round" paint-order="stroke" fill="#141414">Bratul Chillia</text>
<text x="1541.65" y="1158.97" font-family="sans-serif" font-size="14" stroke="#ffffff" stroke-opacity="0.784" stroke-width="2.33" stroke-linejoin="round" paint-order="stroke" fill="#141414">Borcea</text>
<text x="1748.31" y="946.54" font-family="sans-serif" font-size="14" stroke="#ffffff" stroke-opacity="0.784" stroke-width="2.33" stroke-linejoin="round" paint-order="stroke" fill="#141414">Bratul Sfântu Gheorghe</text>
<text x="1806.47" y="907.62" font-family="sans-serif" font-size="14" stroke="#ffffff" stroke-opacity="0.784" stroke-width="2.33" stroke-linejoin="round" paint-order="stroke" fill="#141414">Bratul Sulina</text>
<text x="27.4" y="1019" font-family="sans-serif" font-size="14" stroke="#ffffff" stroke-opacity="0.784" stroke-width="2.33" stroke-linejoin="round" paint-order="stroke" fill="#141414">Sava</text>
<text x="32.28" y="890.56" font-family="sans-serif" font-size="14" stroke="#ffffff" stroke-opacity="0.784" stroke-width="2.33" stroke-linejoin="round" paint-order="stroke" fill="#141414">Tisa</text>
</svg>
