<?xml version="1.0" encoding="UTF-8" standalone="no"?>
<svg xmlns="http://www.w3.org/2000/svg" width="2000" height="1758" viewBox="0 0 2000 1758">
<rect width="2000" height="1758" fill="#ffffff"/>
<path d="M282.84,869.28L283.81,864.41L287.7,863.44L287.69,857.6L292.56,856.62L292.56,859.54L295.47,860.52L295.48,863.43L293.53,864.41L292.56,861.49L290.61,859.54L288.67,859.55L288.67,864.41L289.64,866.36L289.64,870.25L291.59,878.03L286.73,876.09L283.81,872.2L282.84,869.28Z" fill-rule="evenodd" fill="#4682b4" fill-opacity="0.471"/>
<polyline points="282.84,869.28 283.81,864.41 287.7,863.44 287.69,857.6 292.56,856.62 292.56,859.54 295.47,860.52 295.48,863.43 293.53,864.41 292.56,861.49 290.61,859.54 288.67,859.55 288.67,864.41 289.64,866.36 289.64,870.25 291.59,878.03 286.73,876.09 283.81,872.2 282.84,869.28" fill="none" stroke="#1e1e1e" stroke-width="2.21" stroke-linecap="round" stroke-linejoin="round"/>
<path d="M440.4,951.92L442.34,949.97L444.29,949.97L446.23,952.89L442.34,953.86L440.4,951.92Z" fill-rule="evenodd" fill="#4682b4" fill-opacity="0.471"/>
<polyline points="440.4,951.92 442.34,949.97 444.29,949.97 446.23,952.89 442.34,953.86 440.4,951.92" fill="none" stroke="#1e1e1e" stroke-width="2.21" stroke-linecap="round" stroke-linejoin="round"/>
<path d="M397.58,858.53L400.49,852.69L402.44,852.69L403.41,846.85L401.46,845.88L401.46,842.96L399.52,839.07L402.43,837.12L402.43,840.04L403.41,840.04L407.3,847.82L404.38,853.66L401.47,862.42L399.53,862.42L397.58,858.53Z" fill-rule="evenodd" fill="#4682b4" fill-opacity="0.471"/>
<polyline points="397.58,858.53 400.49,852.69 402.44,852.69 403.41,846.85 401.46,845.88 401.46,842.96 399.52,839.07 402.43,837.12 402.43,840.04 403.41,840.04 407.3,847.82 404.38,853.66 401.47,862.42 399.53,862.42 397.58,858.53" fill="none" stroke="#1e1e1e" stroke-width="2.21" stroke-linecap="round" stroke-linejoin="round"/>
<path d="M404.35,764.15L407.27,765.12L406.3,767.07L404.35,764.15Z" fill-rule="evenodd" fill="#4682b4" fill-opacity="0.471"/>
<polyline points="404.35,764.15 407.27,765.12 406.3,767.07 404.35,764.15" fill="none" stroke="#1e1e1e" stroke-width="2.21" stroke-linecap="round" stroke-linejoin="round"/>
<path d="M413.1,763.17L416.02,759.28L416.99,761.22L413.1,763.17Z" fill-rule="evenodd" fill="#4682b4" fill-opacity="0.471"/>
<polyline points="413.1,763.17 416.02,759.28 416.99,761.22 413.1,763.17" fill="none" stroke="#1e1e1e" stroke-width="2.21" stroke-linecap="round" stroke-linejoin="round"/>
<path d="M38.08,1377.3L40.99,1366.6L42.94,1364.65L43.9,1357.84L46.82,1358.81L38.08,1377.3Z" fill-rule="evenodd" fill="#4682b4" fill-opacity="0.471"/>
<polyline points="38.08,1377.3 40.99,1366.6 42.94,1364.65 43.9,1357.84 46.82,1358.81 38.08,1377.3" fill="none" stroke="#1e1e1e" stroke-width="2.21" stroke-linecap="round" stroke-linejoin="round"/>
<path d="M31.27,1366.6L34.19,1365.63L35.16,1360.76L38.07,1356.87L39.04,1356.87L39.05,1359.79L35.17,1375.36L33.22,1375.36L35.16,1371.47L31.27,1366.6Z" fill-rule="evenodd" fill="#4682b4" fill-opacity="0.471"/>
<polyline points="31.27,1366.6 34.19,1365.63 35.16,1360.76 38.07,1356.87 39.04,1356.87 39.05,1359.79 35.17,1375.36 33.22,1375.36 35.16,1371.47 31.27,1366.6" fill="none" stroke="#1e1e1e" stroke-width="2.21" stroke-linecap="round" stroke-linejoin="round"/>
<path d="M282.99,1214.69L285.9,1213.71L284.93,1208.85L286.87,1205.93L285.9,1203.98L288.82,1203.98L287.85,1206.9L290.77,1213.71L289.79,1215.66L287.85,1216.63L285.91,1220.52L283.96,1218.58L283.96,1215.66L282.99,1214.69Z" fill-rule="evenodd" fill="#4682b4" fill-opacity="0.471"/>
<polyline points="282.99,1214.69 285.9,1213.71 284.93,1208.85 286.87,1205.93 285.9,1203.98 288.82,1203.98 287.85,1206.9 290.77,1213.71 289.79,1215.66 287.85,1216.63 285.91,1220.52 283.96,1218.58 283.96,1215.66 282.99,1214.69" fill="none" stroke="#1e1e1e" stroke-width="2.21" stroke-linecap="round" stroke-linejoin="round"/>
<path d="M313.1,1158.24L315.05,1157.27L316.99,1160.18L318.94,1159.21L321.85,1162.13L322.83,1166.02L321.86,1167.97L317.97,1167.97L313.1,1158.24Z" fill-rule="evenodd" fill="#4682b4" fill-opacity="0.471"/>
<polyline points="313.1,1158.24 315.05,1157.27 316.99,1160.18 318.94,1159.21 321.85,1162.13 322.83,1166.02 321.86,1167.97 317.97,1167.97 313.1,1158.24" fill="none" stroke="#1e1e1e" stroke-width="2.21" stroke-linecap="round" stroke-linejoin="round"/>
<path d="M26.4,1354.93L27.38,1352.01L29.32,1354.93L31.26,1352.98L33.2,1341.31L40,1332.54L40,1325.73L42.91,1326.7L46.8,1323.78L46.8,1319.89L48.74,1319.89L50.69,1317.94L48.74,1313.08L53.6,1316L54.57,1313.08L54.57,1309.18L57.48,1299.45L59.43,1298.48L61.37,1299.45L68.17,1298.47L73.04,1301.39L76.92,1298.47L80.81,1299.44L80.81,1302.36L78.87,1301.39L75.95,1302.36L73.04,1305.28L70.12,1305.28L68.18,1303.34L64.29,1302.37L60.4,1302.37L58.46,1304.32L59.43,1307.23L64.29,1308.2L65.26,1310.15L69.15,1312.09L72.07,1315.98L71.1,1318.9L63.33,1322.8L57.5,1323.78L58.47,1325.72L57.5,1328.64L53.61,1327.67L48.75,1333.51L45.84,1334.49L46.81,1336.43L43.89,1337.41L40.98,1340.33L38.06,1340.33L36.12,1343.25L33.21,1352.01L34.18,1352.98L31.27,1355.9L29.32,1356.88L26.4,1354.93Z" fill-rule="evenodd" fill="#4682b4" fill-opacity="0.471"/>
<polyline points="26.4,1354.93 27.38,1352.01 29.32,1354.93 31.26,1352.98 33.2,1341.31 40,1332.54 40,1325.73 42.91,1326.7 46.8,1323.78 46.8,1319.89 48.74,1319.89 50.69,1317.94 48.74,1313.08 53.6,1316 54.57,1313.08 54.57,1309.18 57.48,1299.45 59.43,1298.48 61.37,1299.45 68.17,1298.47 73.04,1301.39 76.92,1298.47 80.81,1299.44 80.81,1302.36 78.87,1301.39 75.95,1302.36 73.04,1305.28 70.12,1305.28 68.18,1303.34 64.29,1302.37 60.4,1302.37 58.46,1304.32 59.43,1307.23 64.29,1308.2 65.26,1310.15 69.15,1312.09 72.07,1315.98 71.1,1318.9 63.33,1322.8 57.5,1323.78 58.47,1325.72 57.5,1328.64 53.61,1327.67 48.75,1333.51 45.84,1334.49 46.81,1336.43 43.89,1337.41 40.98,1340.33 38.06,1340.33 36.12,1343.25 33.21,1352.01 34.18,1352.98 31.27,1355.9 29.32,1356.88 26.4,1354.93" fill="none" stroke="#1e1e1e" stroke-width="2.21" stroke-linecap="round" stroke-linejoin="round"/>
<path d="M74.02,1314.04L75.96,1312.09L74.99,1308.2L77.9,1305.28L80.82,1306.25L81.79,1308.2L85.68,1304.3L87.62,1304.3L78.88,1316.95L75.96,1317.93L74.02,1314.04Z" fill-rule="evenodd" fill="#4682b4" fill-opacity="0.471"/>
<polyline points="74.02,1314.04 75.96,1312.09 74.99,1308.2 77.9,1305.28 80.82,1306.25 81.79,1308.2 85.68,1304.3 87.62,1304.3 78.88,1316.95 75.96,1317.93 74.02,1314.04" fill="none" stroke="#1e1e1e" stroke-width="2.21" stroke-linecap="round" stroke-linejoin="round"/>
<path d="M1358.25,1291.44L1357.27,1288.52L1354.36,1284.62L1351.44,1283.65L1341.72,1274.89L1338.81,1273.92L1333.95,1274.89L1330.06,1279.75L1328.11,1283.65L1329.08,1288.51L1327.14,1292.4L1325.19,1294.35L1325.19,1299.21L1323.25,1306.02L1316.44,1309.91L1309.63,1310.89L1308.66,1315.75L1309.63,1321.59L1306.71,1330.35L1306.71,1333.27L1296.02,1349.8L1292.13,1352.72L1290.18,1352.72L1277.55,1348.83L1271.71,1352.72L1266.85,1354.66L1261.99,1354.66L1250.32,1359.53L1244.49,1360.5L1238.66,1359.53L1232.83,1356.61L1225.05,1350.77L1209.5,1345.9L1196.86,1333.25L1176.45,1315.73L1171.59,1302.11L1161.87,1285.57L1157.98,1281.67L1145.34,1271.94L1135.62,1268.05L1114.23,1269.02L1109.37,1267.08L1098.68,1260.26L1081.18,1255.4L1076.32,1252.48L1073.4,1255.4L1073.4,1261.24L1072.43,1262.21L1072.43,1265.13L1074.37,1269.99L1074.37,1273.88L1071.46,1275.83L1070.48,1279.72L1066.59,1282.64L1065.62,1285.56L1062.71,1287.51L1060.76,1290.43L1060.76,1294.32L1061.73,1297.24L1069.51,1306.97L1069.51,1309.89L1071.45,1312.81L1072.43,1320.59L1074.37,1326.43L1076.31,1329.35L1077.29,1335.18L1079.23,1338.1L1078.26,1342L1079.23,1345.89L1078.26,1347.83L1079.23,1358.54L1084.09,1368.27L1082.14,1372.16L1085.06,1375.08L1085.06,1379.94L1087,1382.86L1086.03,1383.84L1083.12,1392.59L1085.06,1397.46L1084.09,1399.4L1084.09,1407.19L1082.14,1407.19L1081.17,1410.11L1077.28,1409.13L1076.31,1410.11L1073.39,1410.11L1070.48,1412.05L1067.56,1416.92L1059.78,1418.86L1060.76,1420.81L1058.81,1422.76L1056.87,1430.54L1054.92,1431.51L1055.9,1435.4L1052.01,1441.24L1052.98,1443.19L1052.01,1452.92L1047.15,1459.73L1047.15,1464.6L1043.26,1468.49L1042.28,1472.38L1039.37,1476.27L1039.37,1480.16L1040.34,1481.14L1039.37,1485.03L1042.28,1486.97L1044.23,1493.79L1043.26,1495.73L1045.2,1497.68L1048.12,1503.52L1049.09,1510.33L1048.12,1513.25L1049.09,1515.19L1049.09,1519.09L1048.12,1521.03L1049.09,1524.92L1048.12,1538.55L1049.09,1540.49L1047.14,1542.44L1046.17,1550.22L1048.11,1554.11L1050.06,1554.11L1052.97,1556.06L1053.95,1558.98L1051.03,1567.74L1046.17,1576.5L1048.11,1579.41L1046.17,1582.33L1046.17,1588.17L1041.31,1603.74L1038.39,1607.63L1036.45,1613.47L1036.45,1617.36L1030.62,1623.2L1029.65,1627.09L1027.7,1630.01L1025.76,1630.99L1024.79,1632.93L1019.93,1635.85L1019.93,1639.74L1018.95,1642.66L1016.04,1644.61L1012.15,1649.47L1011.18,1652.39L1012.15,1654.34L1009.23,1659.2L1012.15,1660.18L1008.26,1664.07L1006.32,1663.1L1001.46,1666.02L998.54,1665.04L997.57,1666.02L999.51,1669.91L997.57,1672.83L995.63,1672.83L992.71,1674.77L986.88,1672.83L982.99,1673.8L979.1,1676.72L975.22,1675.75L973.27,1676.72L972.3,1679.64L964.52,1680.61L961.61,1682.56L959.66,1681.59L955.78,1687.42L952.86,1687.42L951.89,1691.32L949.95,1691.32L945.09,1689.37L942.17,1690.34L937.31,1687.43L935.37,1684.51L933.42,1684.51L932.45,1678.67L930.51,1677.69L931.48,1674.78L922.73,1668.94L914.95,1670.88L912.04,1676.72L909.12,1679.64L905.24,1678.67L902.32,1678.67L900.38,1679.64L896.49,1677.7L891.63,1680.62L890.66,1686.45L891.63,1690.35L886.77,1692.29L886.77,1697.16L884.83,1700.08L885.8,1703.97L880.94,1715.65L876.08,1724.41L869.28,1719.54L864.42,1723.43L858.59,1724.41L855.67,1723.43L847.9,1729.27L844.98,1728.3L843.04,1730.25L841.09,1728.3L834.29,1730.25L832.34,1732.19L831.37,1729.28L828.46,1727.33L829.43,1725.38L828.46,1723.44L825.54,1723.44L825.54,1722.46L818.74,1719.55L817.76,1720.52L815.82,1718.57L813.88,1718.57L812.9,1715.65L809.99,1712.74L805.13,1712.74L801.24,1709.82L801.24,1708.84L798.32,1706.9L796.38,1706.9L795.41,1704.95L791.52,1704.95L789.58,1702.03L784.72,1700.09L778.89,1702.04L771.11,1700.09L770.14,1702.04L765.28,1702.04L759.45,1712.74L756.53,1716.63L750.7,1718.58L747.79,1717.61L742.93,1722.48L740.01,1723.45L736.12,1722.48L735.15,1720.53L733.21,1719.56L728.35,1720.53L726.4,1718.59L724.46,1720.53L720.57,1719.56L718.63,1720.53L717.66,1719.56L717.66,1715.67L712.8,1717.61L709.88,1717.62L701.14,1724.43L693.36,1724.43L685.59,1728.32L679.75,1730.27L672.95,1729.3L671.01,1730.27L672.95,1738.06L671.98,1741.95L667.12,1740.98L664.21,1739.03L662.26,1739.03L654.49,1741.95L646.71,1740.98L644.77,1739.04L642.82,1735.14L639.91,1734.17L630.18,1723.47L627.27,1721.52L621.44,1719.58L615.6,1714.72L609.77,1720.56L606.86,1720.56L605.89,1722.5L602.97,1720.56L596.17,1722.5L588.39,1716.67L587.42,1712.78L582.56,1713.75L579.64,1710.83L572.84,1711.81L570.89,1709.86L567.01,1711.81L567.01,1712.78L564.09,1713.76L564.09,1715.7L551.46,1720.57L547.57,1724.46L541.74,1727.38L539.8,1726.41L537.85,1729.33L535.91,1729.33L533,1733.23L529.11,1731.28L528.13,1728.36L525.22,1730.31L522.3,1730.31L521.33,1732.26L517.45,1733.23L516.47,1737.12L514.53,1738.1L514.53,1741.02L512.59,1742.96L509.67,1742.96L510.65,1748.8L506.76,1748.8L503.84,1749.78L502.87,1748.8L501.9,1742.97L497.04,1743.94L498.98,1739.07L495.09,1735.18L496.06,1733.24L496.06,1730.32L495.09,1729.34L495.09,1727.4L491.2,1722.53L490.23,1719.61L486.34,1716.7L487.31,1714.75L486.34,1711.83L488.28,1710.86L491.2,1705.99L491.19,1703.07L489.25,1701.13L488.28,1695.29L485.36,1691.4L482.44,1689.45L484.39,1687.5L485.36,1680.69L481.47,1680.69L475.63,1676.8L473.69,1677.78L472.72,1674.86L474.66,1672.91L476.6,1667.07L468.83,1661.24L469.8,1659.29L473.69,1658.32L486.32,1649.55L485.35,1647.61L486.32,1646.64L485.34,1643.72L486.31,1638.85L483.4,1637.88L482.43,1634.96L482.42,1631.07L485.34,1627.17L484.37,1622.31L484.36,1615.5L479.5,1617.45L474.64,1614.53L472.7,1608.69L468.81,1604.8L464.92,1606.75L462.98,1603.83L462.98,1601.88L464.92,1597.02L468.81,1596.04L468.8,1592.15L471.72,1590.2L470.75,1585.34L467.83,1582.42L468.8,1578.53L466.85,1576.58L462.96,1569.77L459.08,1569.77L458.11,1572.69L456.16,1572.69L452.27,1568.8L452.27,1563.94L446.44,1561.02L438.66,1560.05L427.97,1555.19L424.08,1549.35L421.16,1548.38L419.21,1543.51L414.35,1541.57L407.55,1540.6L403.66,1538.65L403.66,1535.73L400.74,1535.74L397.83,1538.66L392.97,1540.6L390.05,1544.5L382.28,1540.61L379.36,1541.58L378.39,1544.5L375.47,1544.5L370.61,1546.45L367.7,1546.45L364.78,1542.56L363.81,1545.48L360.89,1546.45L361.87,1548.4L358.95,1549.37L357.98,1547.43L358.95,1545.48L357.98,1543.54L355.06,1543.54L351.17,1538.67L348.26,1540.62L345.34,1538.68L342.42,1533.81L340.48,1533.81L335.62,1535.76L332.7,1535.76L326.87,1532.85L327.84,1530.9L325.89,1527.98L322.98,1528.95L321.04,1531.87L318.12,1531.88L316.18,1533.82L314.23,1532.85L314.23,1528.96L312.28,1526.04L309.37,1524.09L307.42,1519.23L303.53,1518.26L303.53,1514.37L302.56,1513.39L298.67,1514.37L289.92,1513.4L290.89,1510.48L289.92,1509.51L287.98,1513.4L281.17,1514.38L280.2,1516.32L280.2,1519.24L281.18,1520.21L279.23,1523.13L276.32,1522.16L268.54,1528L267.57,1526.06L264.65,1525.09L264.65,1522.17L261.74,1521.2L260.76,1519.25L256.87,1517.31L254.93,1515.36L253.96,1516.33L249.1,1513.42L244.24,1515.37L240.35,1514.39L237.43,1515.37L235.49,1511.48L230.63,1510.51L223.82,1513.43L222.85,1515.38L220.91,1515.38L216.05,1520.24L215.08,1522.19L209.25,1520.25L204.39,1520.25L204.39,1522.2L202.44,1524.14L203.42,1526.09L201.47,1527.06L200.5,1529.01L201.48,1531.93L200.5,1534.85L196.62,1536.8L195.65,1543.61L197.59,1545.55L196.62,1551.39L197.6,1555.28L196.63,1558.2L198.57,1558.2L201.49,1562.09L202.46,1565.98L203.44,1566.96L202.47,1568.9L198.58,1570.85L196.63,1570.85L197.61,1572.8L194.69,1573.77L193.72,1577.67L191.78,1580.59L190.81,1580.59L191.78,1584.48L190.81,1585.45L191.78,1588.37L196.65,1593.23L199.56,1592.26L200.53,1595.18L199.56,1599.07L198.59,1600.04L194.71,1601.99L191.79,1601.02L190.82,1603.94L197.62,1604.91L197.62,1608.8L194.71,1608.8L192.77,1609.78L194.71,1611.72L194.71,1614.64L191.8,1615.62L193.74,1620.48L197.63,1621.45L196.66,1622.42L198.6,1625.34L194.72,1631.18L187.92,1638.97L185,1640.92L185.98,1642.86L184.04,1645.78L185.01,1647.73L184.04,1650.65L185.01,1653.57L183.07,1654.54L184.04,1657.46L183.07,1657.46L180.15,1655.52L178.21,1652.6L178.21,1648.71L175.29,1648.71L173.34,1645.79L165.56,1638.01L164.59,1635.09L155.84,1629.26L153.89,1625.37L148.06,1620.5L146.12,1620.5L142.23,1618.56L139.31,1614.67L136.39,1613.7L133.48,1615.65L129.59,1610.78L127.64,1609.81L120.84,1610.79L115.01,1615.66L114.04,1619.55L109.18,1615.66L107.23,1611.77L104.31,1609.82L99.45,1608.85L95.57,1606.91L94.59,1607.88L92.65,1605.94L89.73,1606.91L88.76,1608.86L85.84,1605.94L86.81,1601.07L80.98,1597.19L80.98,1599.13L76.12,1597.19L68.34,1598.17L64.46,1597.19L60.56,1590.39L56.67,1585.52L56.67,1581.63L54.73,1580.66L52.78,1581.63L49.87,1578.72L45.98,1578.72L43.06,1572.88L43.06,1569.96L50.83,1567.04L52.77,1562.17L52.77,1559.25L50.82,1553.42L51.79,1550.5L49.85,1548.55L50.82,1543.68L47.9,1540.77L47.9,1535.9L48.87,1532.98L47.89,1529.09L48.86,1527.14L46.92,1522.28L46.92,1520.33L44.97,1518.39L44.97,1513.52L46.91,1503.79L45.93,1499.9L43.99,1498.93L42.04,1494.06L42.04,1487.25L40.09,1480.44L38.14,1477.53L25.5,1470.72L21.61,1463.91L17.72,1460.02L17.72,1459.05L10.91,1454.19L9.94,1450.3L9.93,1445.43L10.9,1441.54L21.59,1430.83L27.42,1429.85L36.17,1426.93L38.11,1417.2L41.02,1410.38L40.04,1404.55L42.96,1397.73L43.93,1398.71L42.96,1402.6L44.9,1401.63L45.87,1398.71L44.9,1393.84L46.84,1390.92L47.81,1390.92L48.78,1388L46.84,1386.06L45.87,1389.95L42.95,1390.92L41.01,1389.95L42.95,1385.09L41.98,1383.14L43.92,1376.33L44.89,1376.33L44.89,1372.43L46.83,1369.51L46.83,1366.6L48.77,1365.62L48.77,1362.7L50.71,1358.81L50.71,1355.89L48.76,1348.11L49.73,1341.3L54.58,1332.54L57.5,1332.53L61.39,1326.69L63.33,1328.64L73.05,1319.88L74.02,1320.85L73.05,1323.77L75.97,1322.79L77.91,1326.68L85.69,1322.79L86.66,1319.87L85.68,1316.95L91.51,1313.05L93.46,1308.19L95.4,1309.16L94.43,1311.11L95.4,1315L93.46,1315.97L93.46,1317.92L98.32,1321.81L102.21,1319.86L104.15,1315.97L108.04,1318.88L112.9,1315.96L113.88,1316.93L112.91,1319.85L113.88,1322.77L116.8,1324.72L118.74,1323.74L121.66,1323.74L120.68,1319.85L122.63,1317.9L120.68,1314.01L125.54,1310.12L126.51,1307.2L130.4,1302.33L134.28,1300.38L136.23,1303.3L137.2,1308.17L139.15,1309.14L141.09,1304.27L140.12,1302.33L141.09,1300.38L143.03,1298.43L145.95,1298.43L145.95,1296.48L144,1294.54L144,1292.59L142.05,1289.68L145.94,1282.86L147.88,1283.83L149.83,1287.73L150.8,1285.78L147.88,1280.92L145.94,1279.94L146.91,1278L145.94,1276.05L146.91,1275.08L149.82,1275.08L150.8,1273.13L149.82,1271.18L150.79,1266.32L152.74,1265.34L154.68,1266.32L157.6,1263.4L153.71,1263.4L153.71,1262.43L155.65,1260.48L157.59,1254.64L159.54,1254.64L159.53,1250.75L161.48,1249.77L161.48,1247.83L164.39,1245.88L163.42,1238.1L164.39,1237.12L166.33,1237.12L167.3,1235.17L170.22,1234.2L166.33,1232.26L164.39,1233.23L164.38,1229.34L163.41,1226.42L166.33,1225.44L163.41,1223.5L163.41,1222.53L168.27,1223.5L170.21,1221.55L172.16,1223.5L175.07,1221.55L176.05,1218.63L177.99,1220.57L183.83,1223.49L184.8,1227.38L192.58,1236.13L194.53,1237.11L195.5,1241.97L192.59,1249.76L193.56,1250.73L193.56,1256.57L190.65,1259.49L185.79,1262.41L184.82,1268.25L186.77,1271.17L185.79,1273.11L187.74,1276.03L186.77,1280.9L190.66,1281.87L191.63,1284.79L195.52,1287.7L198.44,1284.78L199.41,1285.75L197.47,1290.62L198.44,1291.59L203.3,1291.59L203.3,1295.48L198.44,1297.43L200.39,1301.32L197.48,1308.13L193.59,1309.11L193.59,1311.06L189.7,1314.95L186.79,1319.82L182.9,1321.76L182.9,1325.66L181.93,1327.6L185.82,1330.52L186.8,1334.41L191.66,1337.33L193.6,1335.38L192.63,1331.49L194.57,1326.62L197.49,1324.68L197.49,1322.73L202.34,1319.81L200.4,1318.84L202.34,1311.05L204.29,1312.02L206.23,1308.13L209.14,1307.16L209.14,1306.18L206.23,1305.21L208.17,1299.37L211.08,1298.4L214.97,1300.34L216.92,1303.26L218.86,1303.26L220.81,1300.34L221.78,1296.45L220.8,1293.53L221.77,1291.58L219.83,1289.64L223.71,1282.82L219.82,1275.04L224.68,1270.17L224.68,1265.31L217.87,1266.29L215.93,1267.26L209.12,1264.34L211.07,1261.42L214.96,1264.34L216.9,1264.34L217.87,1262.39L220.79,1262.39L221.76,1264.34L223.71,1265.31L228.57,1264.33L228.57,1261.42L236.34,1255.57L240.23,1259.46L239.26,1261.41L240.23,1264.33L248.01,1261.41L247.04,1259.46L248.01,1258.49L244.12,1249.73L247.03,1247.78L249.94,1241.95L248.97,1240.97L248.97,1238.05L246.05,1239.03L246.05,1236.11L250.91,1231.24L252.86,1230.27L256.75,1233.19L261.61,1232.21L260.63,1227.35L265.49,1225.4L267.44,1223.45L270.35,1223.45L272.3,1228.31L270.36,1230.26L267.44,1230.26L264.52,1233.18L264.52,1235.13L261.61,1236.1L260.64,1239.02L262.58,1239.02L266.47,1241.94L268.42,1240.96L267.45,1244.86L265.5,1246.8L258.7,1246.81L256.75,1248.75L261.62,1252.64L260.64,1254.59L256.76,1253.62L253.84,1257.51L256.76,1258.48L258.7,1256.54L260.65,1262.37L256.76,1265.29L258.71,1266.27L259.68,1263.35L262.59,1265.29L264.54,1265.29L264.54,1263.34L262.59,1263.35L263.56,1257.51L268.42,1256.53L267.45,1254.59L269.39,1254.59L268.42,1252.64L269.39,1249.72L274.25,1245.83L274.25,1240.96L277.17,1239.99L278.14,1241.93L280.08,1240.96L278.14,1239.01L273.28,1239.02L274.25,1236.1L277.16,1235.12L277.16,1233.18L282.02,1227.34L282.02,1223.44L284.94,1223.44L288.83,1227.33L290.77,1227.33L293.69,1225.39L293.69,1224.41L292.71,1221.49L290.77,1219.55L292.71,1218.57L293.69,1221.49L298.55,1220.52L302.43,1214.68L299.52,1214.68L296.6,1209.82L294.65,1208.84L294.65,1205.92L295.62,1205.92L297.56,1198.14L299.51,1198.14L302.42,1196.19L304.37,1196.19L305.34,1190.35L309.23,1189.38L311.17,1193.27L312.14,1189.38L316.03,1189.37L317.98,1185.48L319.92,1185.48L320.89,1191.32L319.93,1198.13L321.87,1197.16L321.87,1195.21L327.7,1190.34L326.73,1187.42L328.67,1187.42L329.64,1183.53L333.53,1183.53L337.42,1187.42L337.42,1189.37L340.34,1188.39L344.23,1191.31L344.23,1187.42L341.31,1186.45L343.25,1184.5L342.28,1182.55L346.17,1181.58L346.17,1179.63L344.22,1175.74L342.28,1176.72L342.28,1180.61L340.34,1183.53L332.56,1179.64L326.72,1178.67L324.78,1181.59L321.86,1177.7L321.86,1174.78L325.75,1176.72L328.67,1176.72L329.64,1174.77L326.72,1173.8L326.72,1171.86L323.8,1171.86L322.83,1168.94L323.8,1166.02L327.69,1160.18L325.74,1159.21L326.71,1156.29L328.66,1157.26L328.66,1155.31L333.52,1154.34L334.49,1153.37L330.6,1153.37L331.57,1147.53L333.52,1146.56L335.46,1141.69L333.51,1133.91L338.37,1131.96L341.29,1135.85L345.18,1138.77L350.04,1136.82L352.96,1139.74L355.87,1139.74L351.98,1134.87L352.95,1130.98L351.98,1127.09L345.17,1125.15L342.26,1126.12L339.34,1119.31L339.34,1117.36L336.42,1116.39L337.39,1113.47L336.42,1109.58L339.33,1109.58L340.31,1110.55L340.31,1112.5L342.25,1113.47L348.09,1113.47L349.06,1109.58L348.08,1107.63L352.94,1104.71L355.86,1104.71L354.89,1099.84L351.97,1094.01L354.88,1094.01L353.91,1096.93L354.89,1098.87L357.8,1097.9L358.78,1101.79L362.67,1103.73L360.72,1096.92L362.66,1096.92L363.64,1100.81L370.44,1095.95L368.5,1092.05L369.47,1090.11L371.41,1090.11L376.27,1092.05L375.3,1093.03L378.22,1096.92L378.22,1099.84L380.17,1098.86L380.16,1093.02L381.14,1093.02L379.19,1088.16L379.19,1084.27L382.11,1084.27L384.05,1081.35L385.99,1083.29L384.05,1084.27L383.08,1087.18L385.02,1090.1L386.97,1089.13L387.94,1086.21L389.88,1086.21L397.66,1089.13L400.58,1092.04L400.58,1096.91L403.5,1096.91L402.53,1098.85L407.39,1098.85L412.26,1108.58L412.26,1110.53L415.17,1109.55L418.09,1114.42L416.15,1118.31L418.09,1119.28L420.04,1115.39L418.09,1105.66L416.14,1101.77L414.2,1101.77L414.2,1098.85L411.28,1098.85L413.22,1095.93L410.31,1095.93L409.33,1093.99L409.33,1088.15L407.39,1088.15L407.38,1084.26L402.52,1084.26L404.47,1082.31L397.66,1076.48L394.74,1072.59L393.77,1068.69L391.82,1066.75L386.96,1066.75L389.88,1063.83L390.84,1055.07L393.76,1055.07L392.79,1053.13L389.87,1052.15L386.95,1048.26L386.95,1043.4L389.87,1046.32L391.81,1044.37L391.81,1042.42L394.73,1039.5L395.7,1042.42L397.65,1039.5L396.67,1037.56L398.62,1035.61L396.67,1030.75L399.59,1030.75L401.53,1027.83L400.56,1026.85L402.5,1023.93L404.45,1025.88L404.45,1021.99L406.39,1021.99L409.31,1033.66L409.31,1040.47L407.37,1041.45L409.31,1043.39L409.32,1050.2L410.29,1051.17L412.24,1060.9L411.27,1064.8L408.35,1065.77L407.38,1068.69L410.3,1073.55L411.27,1073.55L414.19,1077.44L416.13,1075.5L417.1,1069.66L414.19,1069.66L418.07,1066.74L419.05,1064.79L422.93,1063.82L422.94,1067.71L425.85,1066.74L425.85,1063.82L423.91,1060.9L420.99,1060.9L420.02,1057.98L418.07,1059.93L416.13,1058.96L416.13,1056.04L415.15,1054.09L415.15,1047.28L414.18,1044.36L416.12,1029.77L415.14,1025.87L417.09,1020.04L418.06,1024.9L420,1024.9L422.92,1016.14L424.86,1015.17L425.84,1019.06L435.56,1014.19L437.5,1014.19L440.42,1018.08L446.25,1019.05L450.15,1023.92L449.17,1025.86L449.18,1028.78L451.12,1029.75L454.04,1029.75L455.98,1033.64L458.9,1032.67L460.84,1033.64L458.9,1040.45L461.82,1046.29L462.79,1038.51L461.82,1035.59L463.76,1032.67L462.79,1031.7L464.73,1028.78L467.65,1031.69L471.54,1032.67L467.65,1026.83L464.73,1025.86L465.7,1023.91L462.79,1022.94L459.87,1023.91L459.87,1018.08L460.84,1016.13L455,1008.35L455.97,1005.43L452.08,1003.48L456.94,999.59L458.89,1000.56L459.86,1003.48L458.89,1005.43L460.84,1007.37L462.78,1004.45L461.81,1002.51L462.78,1001.53L465.7,1002.51L469.58,998.61L474.45,999.58L474.45,997.64L470.56,994.72L468.61,993.75L465.69,993.75L466.66,990.83L469.58,992.77L471.53,992.77L473.47,994.72L477.36,995.69L480.28,992.77L479.31,990.83L482.22,989.85L482.22,988.88L476.39,985.96L477.36,984.02L476.39,982.07L473.47,983.04L472.5,982.07L478.33,981.1L479.3,983.04L481.25,982.07L485.14,983.04L486.11,984.99L489.03,984.98L490,987.9L487.08,991.8L485.14,991.8L488.06,994.72L485.14,994.72L488.06,998.61L490.98,998.61L490,1001.53L487.09,1001.53L490.01,1003.47L491.95,1004.44L493.89,1003.47L493.89,1000.55L497.78,1002.5L499.73,1002.5L501.67,1004.44L500.7,1006.39L502.65,1007.36L506.54,1004.44L498.75,998.6L496.81,998.6L492.92,995.69L498.75,994.71L492.92,992.77L494.86,991.79L494.86,988.88L496.81,987.9L494.86,984.01L498.75,979.14L499.72,982.06L502.64,981.09L503.61,979.14L502.64,977.2L500.69,977.2L497.78,975.25L493.89,975.25L492.91,977.2L490.97,976.23L491.94,972.34L495.83,973.31L497.77,972.33L501.66,973.31L506.53,972.33L509.44,973.3L513.33,972.33L512.36,970.38L506.52,967.47L505.55,968.44L500.69,968.44L496.8,965.52L495.83,966.5L493.88,963.58L496.8,962.6L497.77,964.55L502.63,961.63L499.72,960.66L497.77,958.71L499.71,954.82L495.83,957.74L493.88,956.77L490.96,957.74L489.99,959.69L489.02,954.82L487.07,955.8L485.13,953.85L487.07,951.9L489.02,951.9L489.01,946.07L490.96,946.07L491.93,944.12L489.01,939.25L487.07,940.23L485.13,945.09L483.18,945.09L479.29,943.15L478.31,932.45L480.26,932.45L483.18,929.53L483.17,927.58L486.09,928.55L488.04,925.63L484.15,924.66L483.17,921.74L481.23,921.74L480.26,924.66L478.31,921.74L477.34,922.72L478.31,924.66L476.37,925.64L475.39,923.69L472.48,924.67L473.45,926.61L471.51,927.58L469.56,924.67L468.59,920.77L464.7,920.78L463.72,919.8L463.72,912.99L466.64,911.05L461.78,909.1L463.72,904.24L461.77,903.26L462.75,900.34L459.83,900.35L458.86,898.4L461.77,896.45L459.83,895.48L461.77,892.56L461.77,890.61L463.71,886.72L457.88,887.7L457.88,883.81L456.9,880.89L459.82,878.94L460.79,876.02L456.9,876.99L455.93,874.08L456.9,870.18L459.82,869.21L458.85,868.24L459.82,865.32L457.87,862.4L455.93,862.4L455.93,864.35L453.98,868.24L452.04,868.24L453.01,871.16L450.1,873.1L448.15,878.94L445.24,880.89L444.26,878.94L440.37,881.87L438.43,880.89L437.46,877.97L438.43,876.03L436.48,874.08L435.51,875.06L430.65,873.11L428.7,874.09L425.78,871.17L428.7,867.27L426.75,865.33L428.7,862.41L425.78,858.52L423.83,858.52L422.86,855.6L419.94,855.6L421.89,852.68L420.91,850.74L419.94,843.93L415.08,843.93L411.19,841.01L416.05,841.01L416.05,839.06L412.16,837.12L412.16,835.17L408.27,836.15L406.32,833.23L409.24,831.28L409.24,827.39L415.07,826.41L417.99,828.36L418.96,827.39L417.02,823.49L419.93,824.47L421.88,822.52L420.9,820.57L423.82,819.6L420.9,815.71L424.79,815.71L425.76,813.76L424.79,810.84L425.76,808.9L422.84,806.95L423.82,805.01L421.87,804.03L419.93,805.01L419.92,801.11L421.87,801.11L423.81,795.28L420.89,792.36L421.87,790.41L424.78,787.49L431.59,789.44L434.51,788.46L432.56,784.57L429.64,782.62L427.7,775.81L427.69,770.95L425.75,768.03L426.72,765.11L423.8,761.22L422.83,763.17L420.88,761.22L423.8,759.28L422.83,754.41L424.77,753.44L425.74,750.52L424.77,749.55L423.8,745.65L420.88,745.65L421.85,747.6L419.91,750.52L417.96,750.52L416.02,752.47L414.07,750.52L411.15,749.55L411.15,746.63L414.07,746.63L414.07,740.79L412.12,740.79L411.15,739.82L411.15,736.9L415.04,735.93L414.07,733.98L416.01,730.09L412.12,728.14L412.12,725.23L411.15,724.25L408.23,724.25L406.28,726.2L405.31,725.23L406.28,717.44L404.33,714.53L408.22,714.52L409.2,716.47L411.14,716.47L412.11,715.5L415.03,718.41L418.92,717.44L418.92,716.47L421.84,714.52L425.73,713.54L424.76,711.6L417.95,710.63L417.95,712.57L415.03,713.55L414.06,710.63L413.09,710.63L412.11,708.68L409.19,707.71L412.11,703.82L411.14,700.9L416.97,696.03L412.11,694.09L414.05,692.14L413.08,690.2L415.02,688.25L416.97,689.22L417.94,688.25L415.99,683.39L413.08,684.36L411.13,681.44L407.24,682.42L406.27,681.44L407.24,678.52L414.05,680.47L415.02,677.55L413.07,677.55L403.35,672.69L399.46,673.66L393.62,670.74L393.62,667.83L397.51,667.82L398.48,664.91L397.51,661.99L402.37,659.07L402.37,657.12L405.29,657.12L404.31,655.17L395.56,647.39L393.61,644.47L390.69,642.53L389.72,640.58L381.94,640.59L381.93,629.88L380.96,623.07L381.93,618.21L379.98,611.4L387.76,607.5L392.62,602.64L398.45,593.88L404.28,573.44L429.57,558.84L434.43,551.05L445.12,545.21L449.01,540.34L455.81,525.75L458.73,523.8L461.65,518.93L462.62,511.15L471.37,493.63L486.93,483.9L495.67,456.65L581.27,453.71L615.3,407L618.22,406.02L621.13,403.1L626.97,391.42L631.83,389.48L633.78,389.48L634.75,383.64L637.66,380.72L639.61,379.75L642.53,381.69L645.45,381.69L648.36,378.77L648.36,374.88L650.31,370.99L653.23,370.01L652.25,367.09L655.17,361.26L658.09,361.25L660.03,359.31L666.84,357.36L676.57,351.52L677.54,347.63L679.48,344.71L681.43,344.71L684.35,342.76L687.26,338.87L690.18,340.81L691.16,340.81L695.05,337.89L705.75,338.87L709.64,339.84L713.53,343.73L717.42,343.73L718.39,338.86L735.9,339.83L743.68,337.89L746.6,338.86L760.22,338.86L765.08,339.83L768.97,338.86L770.92,335.94L771.89,336.91L780.65,335.94L790.37,335.93L793.29,334.96L803.02,333.99L807.88,330.09L811.77,322.31L814.69,318.42L814.69,314.52L821.5,312.58L824.42,310.63L826.36,307.71L835.12,301.87L836.09,297.98L844.84,294.09L849.71,293.11L861.38,293.11L870.14,294.09L876.95,296.03L884.73,299.92L891.54,306.73L899.32,317.44L907.1,319.38L918.78,324.25L918.78,321.33L916.83,315.49L918.77,310.62L917.8,308.68L918.77,301.87L922.67,296.03L927.53,291.16L927.53,287.27L930.45,284.35L930.45,281.43L938.23,279.49L941.15,280.46L942.12,269.76L940.17,267.81L942.12,263.92L946.01,261.97L950.87,268.78L954.77,267.81L958.66,271.7L961.58,271.7L962.55,272.67L963.52,275.59L960.6,278.51L962.55,282.4L961.58,286.3L964.49,288.24L966.44,288.24L970.33,291.16L970.33,293.11L971.3,294.08L972.28,297.97L976.17,299.92L979.09,303.81L978.11,307.7L981.03,312.57L984.92,309.65L989.79,307.7L1003.4,307.7L1001.46,308.68L1000.49,312.57L1001.46,320.35L1000.49,323.27L1000.49,332.03L1002.43,338.84L1002.43,348.57L1003.4,356.35L1007.3,363.17L1005.35,365.11L1005.35,372.9L1007.3,376.79L1010.21,378.73L1009.24,381.65L1010.21,387.49L1012.16,392.36L1012.16,398.19L1013.13,401.11L1017.02,406.95L1020.91,408.9L1021.89,411.82L1034.53,430.3L1044.26,429.33L1052.04,420.57L1068.57,413.76L1079.27,409.87L1082.19,410.84L1090.95,407.93L1094.84,407.93L1096.78,405.01L1101.65,402.09L1103.59,399.17L1106.51,400.14L1108.46,398.2L1112.35,397.22L1116.24,385.55L1120.13,380.68L1124.99,378.74L1126.94,375.82L1129.86,366.09L1137.64,363.17L1140.56,368.04L1146.39,368.04L1152.23,370.96L1157.09,376.79L1164.87,380.69L1168.77,380.69L1170.71,370.96L1168.77,367.07L1168.77,362.2L1166.82,355.39L1166.82,351.5L1178.5,343.71L1185.31,342.74L1185.31,336.9L1184.33,333.01L1185.31,331.07L1189.2,328.15L1196.98,324.26L1199.9,324.26L1202.82,327.18L1208.65,326.2L1212.54,327.18L1215.46,324.26L1218.38,323.29L1226.16,328.15L1228.11,332.04L1232,335.94L1236.86,334.96L1237.84,323.29L1240.76,318.42L1240.76,315.5L1250.48,312.59L1251.46,307.72L1257.29,302.86L1265.08,302.86L1281.61,297.02L1274.81,287.29L1276.75,280.48L1273.84,270.75L1277.73,265.89L1279.68,261.02L1286.49,255.18L1282.6,239.61L1282.6,232.8L1281.63,227.94L1287.46,225.02L1299.14,225.02L1299.14,229.89L1302.05,235.73L1308.86,234.75L1308.87,227.94L1315.68,226.97L1321.51,229.89L1324.43,223.08L1330.27,220.16L1330.27,216.27L1332.22,215.3L1336.11,210.43L1340.97,209.46L1342.92,203.62L1354.59,193.9L1355.57,188.06L1362.38,180.27L1363.35,176.38L1374.06,168.6L1378.92,166.66L1381.84,167.63L1384.76,165.68L1386.7,162.76L1386.71,154.01L1393.52,152.06L1400.33,145.25L1401.3,134.55L1406.17,124.82L1406.17,118.01L1405.2,116.06L1411.04,107.31L1413.96,105.36L1414.93,102.44L1419.8,101.47L1421.74,99.52L1425.64,98.55L1429.53,95.63L1436.34,93.69L1438.28,90.77L1440.23,90.77L1442.18,88.83L1446.07,88.83L1448.01,87.85L1449.96,89.8L1451.91,89.8L1450.93,84.94L1448.99,82.02L1449.96,80.07L1448.99,78.12L1447.05,66.45L1445.1,63.53L1447.05,58.66L1446.08,55.74L1448.02,53.8L1448.02,50.88L1450.94,49.9L1450.94,47.96L1454.84,46.99L1455.81,41.15L1457.76,38.23L1457.76,33.36L1455.81,33.36L1456.79,30.44L1459.71,28.5L1457.76,25.58L1461.65,24.61L1462.63,21.69L1465.55,20.72L1467.49,24.61L1475.27,25.58L1477.22,28.5L1480.14,29.48L1481.11,27.53L1479.16,25.59L1482.08,23.64L1483.06,20.72L1485.98,23.64L1486.95,22.67L1491.81,26.56L1493.76,26.56L1496.68,28.51L1500.57,25.59L1503.49,21.7L1504.46,23.65L1507.38,23.65L1508.35,21.7L1510.3,23.65L1511.27,21.7L1513.22,22.68L1516.14,21.7L1517.11,23.65L1520.03,22.68L1521.97,23.65L1523.92,22.68L1529.76,23.65L1529.76,24.63L1533.65,23.66L1535.6,21.71L1535.6,17.82L1537.54,16.85L1539.49,12.95L1542.41,12.95L1542.41,10.04L1546.3,8.09L1551.17,9.07L1552.14,8.09L1558.95,11.01L1560.9,10.04L1563.81,12.96L1566.73,13.94L1567.71,11.99L1570.62,12.96L1569.65,14.91L1573.54,14.91L1576.46,16.86L1570.62,21.72L1570.62,25.61L1567.7,26.59L1563.81,35.34L1556.99,40.21L1557.97,43.13L1555.05,47.99L1556.99,52.86L1556.02,56.75L1556.99,61.61L1559.9,69.4L1561.85,71.35L1562.82,75.24L1564.76,77.19L1572.55,77.19L1577.41,78.16L1580.33,81.08L1578.38,84L1573.52,85.95L1572.54,87.89L1572.54,94.7L1571.57,99.57L1574.48,105.41L1573.51,110.27L1574.48,114.17L1579.34,118.06L1584.21,118.06L1587.13,116.12L1594.91,117.09L1601.72,120.99L1603.66,120.99L1607.55,125.86L1611.44,128.78L1611.44,132.67L1614.36,137.53L1617.27,148.24L1624.08,157L1623.11,159.92L1626.02,165.76L1626.02,167.7L1627.97,170.62L1634.77,177.44L1634.77,180.36L1642.55,189.12L1643.52,193.01L1647.41,200.8L1651.3,203.72L1653.25,206.64L1653.24,226.1L1658.1,228.05L1659.07,234.86L1661.02,240.7L1662.96,242.64L1660.04,246.53L1661.01,249.45L1656.14,259.18L1660.03,264.05L1660.03,266.97L1661.98,272.81L1663.92,274.75L1663.92,276.7L1666.84,277.67L1667.81,279.62L1668.78,285.46L1669.75,286.43L1669.75,289.35L1673.64,291.3L1712.55,302.02L1728.1,336.08L1776.73,345.83L1780.62,347.78L1832.15,400.35L1833.12,395.49L1836.04,397.43L1837.01,402.3L1835.06,403.27L1835.06,407.16L1839.89,465.55L1841.84,467.49L1840.87,470.41L1933.2,595L1932.22,595.98L1932.22,598.9L1914.7,635.86L1916.64,642.67L1916.63,650.46L1914.69,652.4L1925.33,753.6L1917.53,785.7L1908.75,832.4L1908.75,835.32L1907.78,836.29L1901.92,874.23L1904.84,877.15L1905.81,882.99L1920.38,906.35L1954.38,964.75L1957.29,967.67L1967.02,970.6L1968.96,975.46L1967.98,981.3L1968.95,983.25L1972.84,983.25L1975.76,986.17L1980.62,992.98L1981.59,996.87L1984.5,997.85L1984.5,1000.77L1989.36,1003.69L1989.36,1007.58L1990.33,1009.53L1989.35,1015.37L1987.41,1016.34L1985.46,1022.17L1982.54,1026.06L1979.62,1025.09L1977.68,1026.06L1978.65,1031.9L1977.67,1034.82L1974.76,1037.74L1973.78,1040.65L1966,1051.35L1967.94,1056.22L1967.93,1065.95L1965.02,1066.92L1960.15,1070.81L1960.15,1072.75L1957.23,1074.7L1958.2,1076.65L1956.26,1079.56L1955.28,1083.45L1953.34,1085.4L1954.31,1091.24L1951.38,1098.05L1952.35,1103.89L1951.38,1105.83L1952.35,1108.75L1946.51,1113.61L1944.57,1116.53L1941.64,1128.2L1936.78,1134.04L1936.78,1139.88L1937.75,1140.85L1935.8,1144.74L1938.72,1147.66L1938.71,1152.53L1935.8,1154.47L1934.82,1156.42L1936.77,1160.31L1934.82,1165.17L1934.82,1169.07L1939.67,1181.72L1937.72,1184.64L1941.61,1193.39L1943.55,1195.34L1943.55,1197.29L1945.49,1201.18L1945.49,1207.02L1946.46,1210.91L1945.48,1219.67L1942.56,1227.45L1944.5,1232.32L1942.56,1235.23L1943.53,1239.13L1945.47,1240.1L1948.39,1238.16L1949.36,1240.1L1945.47,1246.91L1942.55,1248.86L1936.71,1249.83L1929.91,1255.66L1927.96,1264.42L1928.93,1269.28L1921.14,1278.03L1919.2,1281.92L1916.28,1283.87L1912.39,1288.73L1904.61,1290.67L1900.72,1288.73L1898.78,1288.72L1890.03,1291.64L1889.05,1296.5L1882.24,1302.34L1880.3,1301.36L1877.38,1304.28L1877.38,1307.2L1874.46,1308.17L1875.43,1313.04L1872.51,1314.01L1870.57,1313.03L1862.79,1315.95L1860.85,1314.98L1860.85,1310.11L1857.94,1307.19L1855.99,1306.22L1848.21,1306.21L1843.35,1304.26L1833.64,1297.45L1828.78,1288.69L1818.09,1284.79L1813.23,1280.9L1806.42,1281.87L1804.48,1282.84L1799.62,1287.7L1792.81,1287.7L1787.95,1294.51L1786,1306.18L1782.11,1311.04L1780.16,1314.93L1776.27,1317.85L1773.35,1318.82L1768.49,1322.71L1766.54,1326.6L1761.68,1328.55L1760.71,1332.44L1754.87,1337.3L1749.04,1336.33L1746.12,1334.38L1742.24,1333.4L1740.29,1329.51L1738.35,1327.56L1736.41,1328.54L1731.55,1326.59L1729.6,1327.56L1727.66,1325.61L1722.8,1323.67L1714.05,1326.58L1711.13,1325.61L1709.19,1322.69L1705.3,1322.68L1700.44,1326.57L1696.55,1325.6L1689.74,1329.49L1685.85,1336.3L1676.13,1341.16L1670.29,1342.13L1668.35,1340.18L1664.46,1338.24L1653.77,1336.29L1649.88,1334.34L1645.99,1337.26L1640.16,1334.33L1637.25,1329.47L1630.44,1327.52L1624.61,1328.49L1619.75,1327.52L1616.83,1324.6L1612.94,1324.59L1611.97,1322.65L1611.97,1317.78L1611,1313.89L1602.26,1309.02L1601.28,1306.1L1597.4,1301.24L1592.54,1301.23L1589.62,1291.5L1586.71,1290.53L1579.9,1293.45L1575.04,1291.5L1572.13,1286.63L1574.07,1283.71L1574.07,1277.88L1573.1,1275.93L1570.19,1275.93L1563.38,1273.01L1562.41,1269.11L1564.36,1264.25L1563.39,1261.33L1563.39,1257.44L1565.33,1255.49L1566.31,1247.71L1562.42,1243.82L1553.67,1243.81L1550.75,1246.73L1547.84,1246.73L1543.94,1253.54L1541.03,1255.49L1538.11,1253.54L1534.22,1254.51L1532.28,1253.54L1530.33,1250.62L1526.45,1252.56L1525.47,1248.67L1521.59,1245.75L1518.67,1239.91L1515.76,1236.99L1512.84,1236.02L1509.92,1237.96L1499.23,1238.93L1493.39,1242.82L1493.39,1246.71L1491.45,1246.71L1490.47,1248.66L1485.61,1251.58L1485.61,1256.44L1484.64,1256.44L1484.64,1259.36L1481.72,1267.14L1479.77,1268.12L1478.8,1272.01L1478.8,1276.87L1472.97,1278.82L1466.16,1274.92L1463.25,1275.89L1460.33,1274.92L1455.47,1268.11L1452.56,1258.38L1450.61,1256.43L1450.61,1252.54L1452.56,1245.73L1446.73,1239.89L1443.81,1240.86L1441.87,1242.81L1435.06,1242.8L1431.17,1241.83L1428.26,1238.91L1426.31,1239.88L1425.34,1237.94L1423.4,1237.94L1420.48,1235.99L1418.53,1238.91L1412.7,1238.91L1410.76,1240.85L1407.84,1241.82L1408.81,1244.74L1404.92,1243.77L1402.98,1244.74L1403.95,1246.69L1403.95,1254.47L1405.89,1256.42L1406.86,1261.28L1408.81,1263.23L1407.83,1264.2L1404.92,1263.23L1403.94,1265.18L1405.89,1268.1L1407.83,1267.12L1409.78,1268.1L1409.78,1271.99L1405.89,1276.85L1404.91,1275.88L1402,1280.74L1403.94,1283.66L1403.94,1286.58L1400.05,1288.53L1402.97,1292.42L1402.97,1293.39L1386.44,1294.36L1372.83,1296.3L1369.91,1295.33L1365.05,1295.33L1358.25,1291.44Z" fill-rule="evenodd" fill="#4682b4" fill-opacity="0.471"/>
<polyline points="1358.25,1291.44 1357.27,1288.52 1354.36,1284.62 1351.44,1283.65 1341.72,1274.89 1338.81,1273.92 1333.95,1274.89 1330.06,1279.75 1328.11,1283.65 1329.08,1288.51 1327.14,1292.4 1325.19,1294.35 1325.19,1299.21 1323.25,1306.02 1316.44,1309.91 1309.63,1310.89 1308.66,1315.75 1309.63,1321.59 1306.71,1330.35 1306.71,1333.27 1296.02,1349.8 1292.13,1352.72 1290.18,1352.72 1277.55,1348.83 1271.71,1352.72 1266.85,1354.66 1261.99,1354.66 1250.32,1359.53 1244.49,1360.5 1238.66,1359.53 1232.83,1356.61 1225.05,1350.77 1209.5,1345.9 1196.86,1333.25 1176.45,1315.73 1171.59,1302.11 1161.87,1285.57 1157.98,1281.67 1145.34,1271.94 1135.62,1268.05 1114.23,1269.02 1109.37,1267.08 1098.68,1260.26 1081.18,1255.4 1076.32,1252.48 1073.4,1255.4 1073.4,1261.24 1072.43,1262.21 1072.43,1265.13 1074.37,1269.99 1074.37,1273.88 1071.46,1275.83 1070.48,1279.72 1066.59,1282.64 1065.62,1285.56 1062.71,1287.51 1060.76,1290.43 1060.76,1294.32 1061.73,1297.24 1069.51,1306.97 1069.51,1309.89 1071.45,1312.81 1072.43,1320.59 1074.37,1326.43 1076.31,1329.35 1077.29,1335.18 1079.23,1338.1 1078.26,1342 1079.23,1345.89 1078.26,1347.83 1079.23,1358.54 1084.09,1368.27 1082.14,1372.16 1085.06,1375.08 1085.06,1379.94 1087,1382.86 1086.03,1383.84 1083.12,1392.59 1085.06,1397.46 1084.09,1399.4 1084.09,1407.19 1082.14,1407.19 1081.17,1410.11 1077.28,1409.13 1076.31,1410.11 1073.39,1410.11 1070.48,1412.05 1067.56,1416.92 1059.78,1418.86 1060.76,1420.81 1058.81,1422.76 1056.87,1430.54 1054.92,1431.51 1055.9,1435.4 1052.01,1441.24 1052.98,1443.19 1052.01,1452.92 1047.15,1459.73 1047.15,1464.6 1043.26,1468.49 1042.28,1472.38 1039.37,1476.27 1039.37,1480.16 1040.34,1481.14 1039.37,1485.03 1042.28,1486.97 1044.23,1493.79 1043.26,1495.73 1045.2,1497.68 1048.12,1503.52 1049.09,1510.33 1048.12,1513.25 1049.09,1515.19 1049.09,1519.09 1048.12,1521.03 1049.09,1524.92 1048.12,1538.55 1049.09,1540.49 1047.14,1542.44 1046.17,1550.22 1048.11,1554.11 1050.06,1554.11 1052.97,1556.06 1053.95,1558.98 1051.03,1567.74 1046.17,1576.5 1048.11,1579.41 1046.17,1582.33 1046.17,1588.17 1041.31,1603.74 1038.39,1607.63 1036.45,1613.47 1036.45,1617.36 1030.62,1623.2 1029.65,1627.09 1027.7,1630.01 1025.76,1630.99 1024.79,1632.93 1019.93,1635.85 1019.93,1639.74 1018.95,1642.66 1016.04,1644.61 1012.15,1649.47 1011.18,1652.39 1012.15,1654.34 1009.23,1659.2 1012.15,1660.18 1008.26,1664.07 1006.32,1663.1 1001.46,1666.02 998.54,1665.04 997.57,1666.02 999.51,1669.91 997.57,1672.83 995.63,1672.83 992.71,1674.77 986.88,1672.83 982.99,1673.8 979.1,1676.72 975.22,1675.75 973.27,1676.72 972.3,1679.64 964.52,1680.61 961.61,1682.56 959.66,1681.59 955.78,1687.42 952.86,1687.42 951.89,1691.32 949.95,1691.32 945.09,1689.37 942.17,1690.34 937.31,1687.43 935.37,1684.51 933.42,1684.51 932.45,1678.67 930.51,1677.69 931.48,1674.78 922.73,1668.94 914.95,1670.88 912.04,1676.72 909.12,1679.64 905.24,1678.67 902.32,1678.67 900.38,1679.64 896.49,1677.7 891.63,1680.62 890.66,1686.45 891.63,1690.35 886.77,1692.29 886.77,1697.16 884.83,1700.08 885.8,1703.97 880.94,1715.65 876.08,1724.41 869.28,1719.54 864.42,1723.43 858.59,1724.41 855.67,1723.43 847.9,1729.27 844.98,1728.3 843.04,1730.25 841.09,1728.3 834.29,1730.25 832.34,1732.19 831.37,1729.28 828.46,1727.33 829.43,1725.38 828.46,1723.44 825.54,1723.44 825.54,1722.46 818.74,1719.55 817.76,1720.52 815.82,1718.57 813.88,1718.57 812.9,1715.65 809.99,1712.74 805.13,1712.74 801.24,1709.82 801.24,1708.84 798.32,1706.9 796.38,1706.9 795.41,1704.95 791.52,1704.95 789.58,1702.03 784.72,1700.09 778.89,1702.04 771.11,1700.09 770.14,1702.04 765.28,1702.04 759.45,1712.74 756.53,1716.63 750.7,1718.58 747.79,1717.61 742.93,1722.48 740.01,1723.45 736.12,1722.48 735.15,1720.53 733.21,1719.56 728.35,1720.53 726.4,1718.59 724.46,1720.53 720.57,1719.56 718.63,1720.53 717.66,1719.56 717.66,1715.67 712.8,1717.61 709.88,1717.62 701.14,1724.43 693.36,1724.43 685.59,1728.32 679.75,1730.27 672.95,1729.3 671.01,1730.27 672.95,1738.06 671.98,1741.95 667.12,1740.98 664.21,1739.03 662.26,1739.03 654.49,1741.95 646.71,1740.98 644.77,1739.04 642.82,1735.14 639.91,1734.17 630.18,1723.47 627.27,1721.52 621.44,1719.58 615.6,1714.72 609.77,1720.56 606.86,1720.56 605.89,1722.5 602.97,1720.56 596.17,1722.5 588.39,1716.67 587.42,1712.78 582.56,1713.75 579.64,1710.83 572.84,1711.81 570.89,1709.86 567.01,1711.81 567.01,1712.78 564.09,1713.76 564.09,1715.7 551.46,1720.57 547.57,1724.46 541.74,1727.38 539.8,1726.41 537.85,1729.33 535.91,1729.33 533,1733.23 529.11,1731.28 528.13,1728.36 525.22,1730.31 522.3,1730.31 521.33,1732.26 517.45,1733.23 516.47,1737.12 514.53,1738.1 514.53,1741.02 512.59,1742.96 509.67,1742.96 510.65,1748.8 506.76,1748.8 503.84,1749.78 502.87,1748.8 501.9,1742.97 497.04,1743.94 498.98,1739.07 495.09,1735.18 496.06,1733.24 496.06,1730.32 495.09,1729.34 495.09,1727.4 491.2,1722.53 490.23,1719.61 486.34,1716.7 487.31,1714.75 486.34,1711.83 488.28,1710.86 491.2,1705.99 491.19,1703.07 489.25,1701.13 488.28,1695.29 485.36,1691.4 482.44,1689.45 484.39,1687.5 485.36,1680.69 481.47,1680.69 475.63,1676.8 473.69,1677.78 472.72,1674.86 474.66,1672.91 476.6,1667.07 468.83,1661.24 469.8,1659.29 473.69,1658.32 486.32,1649.55 485.35,1647.61 486.32,1646.64 485.34,1643.72 486.31,1638.85 483.4,1637.88 482.43,1634.96 482.42,1631.07 485.34,1627.17 484.37,1622.31 484.36,1615.5 479.5,1617.45 474.64,1614.53 472.7,1608.69 468.81,1604.8 464.92,1606.75 462.98,1603.83 462.98,1601.88 464.92,1597.02 468.81,1596.04 468.8,1592.15 471.72,1590.2 470.75,1585.34 467.83,1582.42 468.8,1578.53 466.85,1576.58 462.96,1569.77 459.08,1569.77 458.11,1572.69 456.16,1572.69 452.27,1568.8 452.27,1563.94 446.44,1561.02 438.66,1560.05 427.97,1555.19 424.08,1549.35 421.16,1548.38 419.21,1543.51 414.35,1541.57 407.55,1540.6 403.66,1538.65 403.66,1535.73 400.74,1535.74 397.83,1538.66 392.97,1540.6 390.05,1544.5 382.28,1540.61 379.36,1541.58 378.39,1544.5 375.47,1544.5 370.61,1546.45 367.7,1546.45 364.78,1542.56 363.81,1545.48 360.89,1546.45 361.87,1548.4 358.95,1549.37 357.98,1547.43 358.95,1545.48 357.98,1543.54 355.06,1543.54 351.17,1538.67 348.26,1540.62 345.34,1538.68 342.42,1533.81 340.48,1533.81 335.62,1535.76 332.7,1535.76 326.87,1532.85 327.84,1530.9 325.89,1527.98 322.98,1528.95 321.04,1531.87 318.12,1531.88 316.18,1533.82 314.23,1532.85 314.23,1528.96 312.28,1526.04 309.37,1524.09 307.42,1519.23 303.53,1518.26 303.53,1514.37 302.56,1513.39 298.67,1514.37 289.92,1513.4 290.89,1510.48 289.92,1509.51 287.98,1513.4 281.17,1514.38 280.2,1516.32 280.2,1519.24 281.18,1520.21 279.23,1523.13 276.32,1522.16 268.54,1528 267.57,1526.06 264.65,1525.09 264.65,1522.17 261.74,1521.2 260.76,1519.25 256.87,1517.31 254.93,1515.36 253.96,1516.33 249.1,1513.42 244.24,1515.37 240.35,1514.39 237.43,1515.37 235.49,1511.48 230.63,1510.51 223.82,1513.43 222.85,1515.38 220.91,1515.38 216.05,1520.24 215.08,1522.19 209.25,1520.25 204.39,1520.25 204.39,1522.2 202.44,1524.14 203.42,1526.09 201.47,1527.06 200.5,1529.01 201.48,1531.93 200.5,1534.85 196.62,1536.8 195.65,1543.61 197.59,1545.55 196.62,1551.39 197.6,1555.28 196.63,1558.2 198.57,1558.2 201.49,1562.09 202.46,1565.98 203.44,1566.96 202.47,1568.9 198.58,1570.85 196.63,1570.85 197.61,1572.8 194.69,1573.77 193.72,1577.67 191.78,1580.59 190.81,1580.59 191.78,1584.48 190.81,1585.45 191.78,1588.37 196.65,1593.23 199.56,1592.26 200.53,1595.18 199.56,1599.07 198.59,1600.04 194.71,1601.99 191.79,1601.02 190.82,1603.94 197.62,1604.91 197.62,1608.8 194.71,1608.8 192.77,1609.78 194.71,1611.72 194.71,1614.64 191.8,1615.62 193.74,1620.48 197.63,1621.45 196.66,1622.42 198.6,1625.34 194.72,1631.18 187.92,1638.97 185,1640.92 185.98,1642.86 184.04,1645.78 185.01,1647.73 184.04,1650.65 185.01,1653.57 183.07,1654.54 184.04,1657.46 183.07,1657.46 180.15,1655.52 178.21,1652.6 178.21,1648.71 175.29,1648.71 173.34,1645.79 165.56,1638.01 164.59,1635.09 155.84,1629.26 153.89,1625.37 148.06,1620.5 146.12,1620.5 142.23,1618.56 139.31,1614.67 136.39,1613.7 133.48,1615.65 129.59,1610.78 127.64,1609.81 120.84,1610.79 115.01,1615.66 114.04,1619.55 109.18,1615.66 107.23,1611.77 104.31,1609.82 99.45,1608.85 95.57,1606.91 94.59,1607.88 92.65,1605.94 89.73,1606.91 88.76,1608.86 85.84,1605.94 86.81,1601.07 80.98,1597.19 80.98,1599.13 76.12,1597.19 68.34,1598.17 64.46,1597.19 60.56,1590.39 56.67,1585.52 56.67,1581.63 54.73,1580.66 52.78,1581.63 49.87,1578.72 45.98,1578.72 43.06,1572.88 43.06,1569.96 50.83,1567.04 52.77,1562.17 52.77,1559.25 50.82,1553.42 51.79,1550.5 49.85,1548.55 50.82,1543.68 47.9,1540.77 47.9,1535.9 48.87,1532.98 47.89,1529.09 48.86,1527.14 46.92,1522.28 46.92,1520.33 44.97,1518.39 44.97,1513.52 46.91,1503.79 45.93,1499.9 43.99,1498.93 42.04,1494.06 42.04,1487.25 40.09,1480.44 38.14,1477.53 25.5,1470.72 21.61,1463.91 17.72,1460.02 17.72,1459.05 10.91,1454.19 9.94,1450.3 9.93,1445.43 10.9,1441.54 21.59,1430.83 27.42,1429.85 36.17,1426.93 38.11,1417.2 41.02,1410.38 40.04,1404.55 42.96,1397.73 43.93,1398.71 42.96,1402.6 44.9,1401.63 45.87,1398.71 44.9,1393.84 46.84,1390.92 47.81,1390.92 48.78,1388 46.84,1386.06 45.87,1389.95 42.95,1390.92 41.01,1389.95 42.95,1385.09 41.98,1383.14 43.92,1376.33 44.89,1376.33 44.89,1372.43 46.83,1369.51 46.83,1366.6 48.77,1365.62 48.77,1362.7 50.71,1358.81 50.71,1355.89 48.76,1348.11 49.73,1341.3 54.58,1332.54 57.5,1332.53 61.39,1326.69 63.33,1328.64 73.05,1319.88 74.02,1320.85 73.05,1323.77 75.97,1322.79 77.91,1326.68 85.69,1322.79 86.66,1319.87 85.68,1316.95 91.51,1313.05 93.46,1308.19 95.4,1309.16 94.43,1311.11 95.4,1315 93.46,1315.97 93.46,1317.92 98.32,1321.81 102.21,1319.86 104.15,1315.97 108.04,1318.88 112.9,1315.96 113.88,1316.93 112.91,1319.85 113.88,1322.77 116.8,1324.72 118.74,1323.74 121.66,1323.74 120.68,1319.85 122.63,1317.9 120.68,1314.01 125.54,1310.12 126.51,1307.2 130.4,1302.33 134.28,1300.38 136.23,1303.3 137.2,1308.17 139.15,1309.14 141.09,1304.27 140.12,1302.33 141.09,1300.38 143.03,1298.43 145.95,1298.43 145.95,1296.48 144,1294.54 144,1292.59 142.05,1289.68 145.94,1282.86 147.88,1283.83 149.83,1287.73 150.8,1285.78 147.88,1280.92 145.94,1279.94 146.91,1278 145.94,1276.05 146.91,1275.08 149.82,1275.08 150.8,1273.13 149.82,1271.18 150.79,1266.32 152.74,1265.34 154.68,1266.32 157.6,1263.4 153.71,1263.4 153.71,1262.43 155.65,1260.48 157.59,1254.64 159.54,1254.64 159.53,1250.75 161.48,1249.77 161.48,1247.83 164.39,1245.88 163.42,1238.1 164.39,1237.12 166.33,1237.12 167.3,1235.17 170.22,1234.2 166.33,1232.26 164.39,1233.23 164.38,1229.34 163.41,1226.42 166.33,1225.44 163.41,1223.5 163.41,1222.53 168.27,1223.5 170.21,1221.55 172.16,1223.5 175.07,1221.55 176.05,1218.63 177.99,1220.57 183.83,1223.49 184.8,1227.38 192.58,1236.13 194.53,1237.11 195.5,1241.97 192.59,1249.76 193.56,1250.73 193.56,1256.57 190.65,1259.49 185.79,1262.41 184.82,1268.25 186.77,1271.17 185.79,1273.11 187.74,1276.03 186.77,1280.9 190.66,1281.87 191.63,1284.79 195.52,1287.7 198.44,1284.78 199.41,1285.75 197.47,1290.62 198.44,1291.59 203.3,1291.59 203.3,1295.48 198.44,1297.43 200.39,1301.32 197.48,1308.13 193.59,1309.11 193.59,1311.06 189.7,1314.95 186.79,1319.82 182.9,1321.76 182.9,1325.66 181.93,1327.6 185.82,1330.52 186.8,1334.41 191.66,1337.33 193.6,1335.38 192.63,1331.49 194.57,1326.62 197.49,1324.68 197.49,1322.73 202.34,1319.81 200.4,1318.84 202.34,1311.05 204.29,1312.02 206.23,1308.13 209.14,1307.16 209.14,1306.18 206.23,1305.21 208.17,1299.37 211.08,1298.4 214.97,1300.34 216.92,1303.26 218.86,1303.26 220.81,1300.34 221.78,1296.45 220.8,1293.53 221.77,1291.58 219.83,1289.64 223.71,1282.82 219.82,1275.04 224.68,1270.17 224.68,1265.31 217.87,1266.29 215.93,1267.26 209.12,1264.34 211.07,1261.42 214.96,1264.34 216.9,1264.34 217.87,1262.39 220.79,1262.39 221.76,1264.34 223.71,1265.31 228.57,1264.33 228.57,1261.42 236.34,1255.57 240.23,1259.46 239.26,1261.41 240.23,1264.33 248.01,1261.41 247.04,1259.46 248.01,1258.49 244.12,1249.73 247.03,1247.78 249.94,1241.95 248.97,1240.97 248.97,1238.05 246.05,1239.03 246.05,1236.11 250.91,1231.24 252.86,1230.27 256.75,1233.19 261.61,1232.21 260.63,1227.35 265.49,1225.4 267.44,1223.45 270.35,1223.45 272.3,1228.31 270.36,1230.26 267.44,1230.26 264.52,1233.18 264.52,1235.13 261.61,1236.1 260.64,1239.02 262.58,1239.02 266.47,1241.94 268.42,1240.96 267.45,1244.86 265.5,1246.8 258.7,1246.81 256.75,1248.75 261.62,1252.64 260.64,1254.59 256.76,1253.62 253.84,1257.51 256.76,1258.48 258.7,1256.54 260.65,1262.37 256.76,1265.29 258.71,1266.27 259.68,1263.35 262.59,1265.29 264.54,1265.29 264.54,1263.34 262.59,1263.35 263.56,1257.51 268.42,1256.53 267.45,1254.59 269.39,1254.59 268.42,1252.64 269.39,1249.72 274.25,1245.83 274.25,1240.96 277.17,1239.99 278.14,1241.93 280.08,1240.96 278.14,1239.01 273.28,1239.02 274.25,1236.1 277.16,1235.12 277.16,1233.18 282.02,1227.34 282.02,1223.44 284.94,1223.44 288.83,1227.33 290.77,1227.33 293.69,1225.39 293.69,1224.41 292.71,1221.49 290.77,1219.55 292.71,1218.57 293.69,1221.49 298.55,1220.52 302.43,1214.68 299.52,1214.68 296.6,1209.82 294.65,1208.84 294.65,1205.92 295.62,1205.92 297.56,1198.14 299.51,1198.14 302.42,1196.19 304.37,1196.19 305.34,1190.35 309.23,1189.38 311.17,1193.27 312.14,1189.38 316.03,1189.37 317.98,1185.48 319.92,1185.48 320.89,1191.32 319.93,1198.13 321.87,1197.16 321.87,1195.21 327.7,1190.34 326.73,1187.42 328.67,1187.42 329.64,1183.53 333.53,1183.53 337.42,1187.42 337.42,1189.37 340.34,1188.39 344.23,1191.31 344.23,1187.42 341.31,1186.45 343.25,1184.5 342.28,1182.55 346.17,1181.58 346.17,1179.63 344.22,1175.74 342.28,1176.72 342.28,1180.61 340.34,1183.53 332.56,1179.64 326.72,1178.67 324.78,1181.59 321.86,1177.7 321.86,1174.78 325.75,1176.72 328.67,1176.72 329.64,1174.77 326.72,1173.8 326.72,1171.86 323.8,1171.86 322.83,1168.94 323.8,1166.02 327.69,1160.18 325.74,1159.21 326.71,1156.29 328.66,1157.26 328.66,1155.31 333.52,1154.34 334.49,1153.37 330.6,1153.37 331.57,1147.53 333.52,1146.56 335.46,1141.69 333.51,1133.91 338.37,1131.96 341.29,1135.85 345.18,1138.77 350.04,1136.82 352.96,1139.74 355.87,1139.74 351.98,1134.87 352.95,1130.98 351.98,1127.09 345.17,1125.15 342.26,1126.12 339.34,1119.31 339.34,1117.36 336.42,1116.39 337.39,1113.47 336.42,1109.58 339.33,1109.58 340.31,1110.55 340.31,1112.5 342.25,1113.47 348.09,1113.47 349.06,1109.58 348.08,1107.63 352.94,1104.71 355.86,1104.71 354.89,1099.84 351.97,1094.01 354.88,1094.01 353.91,1096.93 354.89,1098.87 357.8,1097.9 358.78,1101.79 362.67,1103.73 360.72,1096.92 362.66,1096.92 363.64,1100.81 370.44,1095.95 368.5,1092.05 369.47,1090.11 371.41,1090.11 376.27,1092.05 375.3,1093.03 378.22,1096.92 378.22,1099.84 380.17,1098.86 380.16,1093.02 381.14,1093.02 379.19,1088.16 379.19,1084.27 382.11,1084.27 384.05,1081.35 385.99,1083.29 384.05,1084.27 383.08,1087.18 385.02,1090.1 386.97,1089.13 387.94,1086.21 389.88,1086.21 397.66,1089.13 400.58,1092.04 400.58,1096.91 403.5,1096.91 402.53,1098.85 407.39,1098.85 412.26,1108.58 412.26,1110.53 415.17,1109.55 418.09,1114.42 416.15,1118.31 418.09,1119.28 420.04,1115.39 418.09,1105.66 416.14,1101.77 414.2,1101.77 414.2,1098.85 411.28,1098.85 413.22,1095.93 410.31,1095.93 409.33,1093.99 409.33,1088.15 407.39,1088.15 407.38,1084.26 402.52,1084.26 404.47,1082.31 397.66,1076.48 394.74,1072.59 393.77,1068.69 391.82,1066.75 386.96,1066.75 389.88,1063.83 390.84,1055.07 393.76,1055.07 392.79,1053.13 389.87,1052.15 386.95,1048.26 386.95,1043.4 389.87,1046.32 391.81,1044.37 391.81,1042.42 394.73,1039.5 395.7,1042.42 397.65,1039.5 396.67,1037.56 398.62,1035.61 396.67,1030.75 399.59,1030.75 401.53,1027.83 400.56,1026.85 402.5,1023.93 404.45,1025.88 404.45,1021.99 406.39,1021.99 409.31,1033.66 409.31,1040.47 407.37,1041.45 409.31,1043.39 409.32,1050.2 410.29,1051.17 412.24,1060.9 411.27,1064.8 408.35,1065.77 407.38,1068.69 410.3,1073.55 411.27,1073.55 414.19,1077.44 416.13,1075.5 417.1,1069.66 414.19,1069.66 418.07,1066.74 419.05,1064.79 422.93,1063.82 422.94,1067.71 425.85,1066.74 425.85,1063.82 423.91,1060.9 420.99,1060.9 420.02,1057.98 418.07,1059.93 416.13,1058.96 416.13,1056.04 415.15,1054.09 415.15,1047.28 414.18,1044.36 416.12,1029.77 415.14,1025.87 417.09,1020.04 418.06,1024.9 420,1024.9 422.92,1016.14 424.86,1015.17 425.84,1019.06 435.56,1014.19 437.5,1014.19 440.42,1018.08 446.25,1019.05 450.15,1023.92 449.17,1025.86 449.18,1028.78 451.12,1029.75 454.04,1029.75 455.98,1033.64 458.9,1032.67 460.84,1033.64 458.9,1040.45 461.82,1046.29 462.79,1038.51 461.82,1035.59 463.76,1032.67 462.79,1031.7 464.73,1028.78 467.65,1031.69 471.54,1032.67 467.65,1026.83 464.73,1025.86 465.7,1023.91 462.79,1022.94 459.87,1023.91 459.87,1018.08 460.84,1016.13 455,1008.35 455.97,1005.43 452.08,1003.48 456.94,999.59 458.89,1000.56 459.86,1003.48 458.89,1005.43 460.84,1007.37 462.78,1004.45 461.81,1002.51 462.78,1001.53 465.7,1002.51 469.58,998.61 474.45,999.58 474.45,997.64 470.56,994.72 468.61,993.75 465.69,993.75 466.66,990.83 469.58,992.77 471.53,992.77 473.47,994.72 477.36,995.69 480.28,992.77 479.31,990.83 482.22,989.85 482.22,988.88 476.39,985.96 477.36,984.02 476.39,982.07 473.47,983.04 472.5,982.07 478.33,981.1 479.3,983.04 481.25,982.07 485.14,983.04 486.11,984.99 489.03,984.98 490,987.9 487.08,991.8 485.14,991.8 488.06,994.72 485.14,994.72 488.06,998.61 490.98,998.61 490,1001.53 487.09,1001.53 490.01,1003.47 491.95,1004.44 493.89,1003.47 493.89,1000.55 497.78,1002.5 499.73,1002.5 501.67,1004.44 500.7,1006.39 502.65,1007.36 506.54,1004.44 498.75,998.6 496.81,998.6 492.92,995.69 498.75,994.71 492.92,992.77 494.86,991.79 494.86,988.88 496.81,987.9 494.86,984.01 498.75,979.14 499.72,982.06 502.64,981.09 503.61,979.14 502.64,977.2 500.69,977.2 497.78,975.25 493.89,975.25 492.91,977.2 490.97,976.23 491.94,972.34 495.83,973.31 497.77,972.33 501.66,973.31 506.53,972.33 509.44,973.3 513.33,972.33 512.36,970.38 506.52,967.47 505.55,968.44 500.69,968.44 496.8,965.52 495.83,966.5 493.88,963.58 496.8,962.6 497.77,964.55 502.63,961.63 499.72,960.66 497.77,958.71 499.71,954.82 495.83,957.74 493.88,956.77 490.96,957.74 489.99,959.69 489.02,954.82 487.07,955.8 485.13,953.85 487.07,951.9 489.02,951.9 489.01,946.07 490.96,946.07 491.93,944.12 489.01,939.25 487.07,940.23 485.13,945.09 483.18,945.09 479.29,943.15 478.31,932.45 480.26,932.45 483.18,929.53 483.17,927.58 486.09,928.55 488.04,925.63 484.15,924.66 483.17,921.74 481.23,921.74 480.26,924.66 478.31,921.74 477.34,922.72 478.31,924.66 476.37,925.64 475.39,923.69 472.48,924.67 473.45,926.61 471.51,927.58 469.56,924.67 468.59,920.77 464.7,920.78 463.72,919.8 463.72,912.99 466.64,911.05 461.78,909.1 463.72,904.24 461.77,903.26 462.75,900.34 459.83,900.35 458.86,898.4 461.77,896.45 459.83,895.48 461.77,892.56 461.77,890.61 463.71,886.72 457.88,887.7 457.88,883.81 456.9,880.89 459.82,878.94 460.79,876.02 456.9,876.99 455.93,874.08 456.9,870.18 459.82,869.21 458.85,868.24 459.82,865.32 457.87,862.4 455.93,862.4 455.93,864.35 453.98,868.24 452.04,868.24 453.01,871.16 450.1,873.1 448.15,878.94 445.24,880.89 444.26,878.94 440.37,881.87 438.43,880.89 437.46,877.97 438.43,876.03 436.48,874.08 435.51,875.06 430.65,873.11 428.7,874.09 425.78,871.17 428.7,867.27 426.75,865.33 428.7,862.41 425.78,858.52 423.83,858.52 422.86,855.6 419.94,855.6 421.89,852.68 420.91,850.74 419.94,843.93 415.08,843.93 411.19,841.01 416.05,841.01 416.05,839.06 412.16,837.12 412.16,835.17 408.27,836.15 406.32,833.23 409.24,831.28 409.24,827.39 415.07,826.41 417.99,828.36 418.96,827.39 417.02,823.49 419.93,824.47 421.88,822.52 420.9,820.57 423.82,819.6 420.9,815.71 424.79,815.71 425.76,813.76 424.79,810.84 425.76,808.9 422.84,806.95 423.82,805.01 421.87,804.03 419.93,805.01 419.92,801.11 421.87,801.11 423.81,795.28 420.89,792.36 421.87,790.41 424.78,787.49 431.59,789.44 434.51,788.46 432.56,784.57 429.64,782.62 427.7,775.81 427.69,770.95 425.75,768.03 426.72,765.11 423.8,761.22 422.83,763.17 420.88,761.22 423.8,759.28 422.83,754.41 424.77,753.44 425.74,750.52 424.77,749.55 423.8,745.65 420.88,745.65 421.85,747.6 419.91,750.52 417.96,750.52 416.02,752.47 414.07,750.52 411.15,749.55 411.15,746.63 414.07,746.63 414.07,740.79 412.12,740.79 411.15,739.82 411.15,736.9 415.04,735.93 414.07,733.98 416.01,730.09 412.12,728.14 412.12,725.23 411.15,724.25 408.23,724.25 406.28,726.2 405.31,725.23 406.28,717.44 404.33,714.53 408.22,714.52 409.2,716.47 411.14,716.47 412.11,715.5 415.03,718.41 418.92,717.44 418.92,716.47 421.84,714.52 425.73,713.54 424.76,711.6 417.95,710.63 417.95,712.57 415.03,713.55 414.06,710.63 413.09,710.63 412.11,708.68 409.19,707.71 412.11,703.82 411.14,700.9 416.97,696.03 412.11,694.09 414.05,692.14 413.08,690.2 415.02,688.25 416.97,689.22 417.94,688.25 415.99,683.39 413.08,684.36 411.13,681.44 407.24,682.42 406.27,681.44 407.24,678.52 414.05,680.47 415.02,677.55 413.07,677.55 403.35,672.69 399.46,673.66 393.62,670.74 393.62,667.83 397.51,667.82 398.48,664.91 397.51,661.99 402.37,659.07 402.37,657.12 405.29,657.12 404.31,655.17 395.56,647.39 393.61,644.47 390.69,642.53 389.72,640.58 381.94,640.59 381.93,629.88 380.96,623.07 381.93,618.21 379.98,611.4 387.76,607.5 392.62,602.64 398.45,593.88 404.28,573.44 429.57,558.84 434.43,551.05 445.12,545.21 449.01,540.34 455.81,525.75 458.73,523.8 461.65,518.93 462.62,511.15 471.37,493.63 486.93,483.9 495.67,456.65 581.27,453.71 615.3,407 618.22,406.02 621.13,403.1 626.97,391.42 631.83,389.48 633.78,389.48 634.75,383.64 637.66,380.72 639.61,379.75 642.53,381.69 645.45,381.69 648.36,378.77 648.36,374.88 650.31,370.99 653.23,370.01 652.25,367.09 655.17,361.26 658.09,361.25 660.03,359.31 666.84,357.36 676.57,351.52 677.54,347.63 679.48,344.71 681.43,344.71 684.35,342.76 687.26,338.87 690.18,340.81 691.16,340.81 695.05,337.89 705.75,338.87 709.64,339.84 713.53,343.73 717.42,343.73 718.39,338.86 735.9,339.83 743.68,337.89 746.6,338.86 760.22,338.86 765.08,339.83 768.97,338.86 770.92,335.94 771.89,336.91 780.65,335.94 790.37,335.93 793.29,334.96 803.02,333.99 807.88,330.09 811.77,322.31 814.69,318.42 814.69,314.52 821.5,312.58 824.42,310.63 826.36,307.71 835.12,301.87 836.09,297.98 844.84,294.09 849.71,293.11 861.38,293.11 870.14,294.09 876.95,296.03 884.73,299.92 891.54,306.73 899.32,317.44 907.1,319.38 918.78,324.25 918.78,321.33 916.83,315.49 918.77,310.62 917.8,308.68 918.77,301.87 922.67,296.03 927.53,291.16 927.53,287.27 930.45,284.35 930.45,281.43 938.23,279.49 941.15,280.46 942.12,269.76 940.17,267.81 942.12,263.92 946.01,261.97 950.87,268.78 954.77,267.81 958.66,271.7 961.58,271.7 962.55,272.67 963.52,275.59 960.6,278.51 962.55,282.4 961.58,286.3 964.49,288.24 966.44,288.24 970.33,291.16 970.33,293.11 971.3,294.08 972.28,297.97 976.17,299.92 979.09,303.81 978.11,307.7 981.03,312.57 984.92,309.65 989.79,307.7 1003.4,307.7 1001.46,308.68 1000.49,312.57 1001.46,320.35 1000.49,323.27 1000.49,332.03 1002.43,338.84 1002.43,348.57 1003.4,356.35 1007.3,363.17 1005.35,365.11 1005.35,372.9 1007.3,376.79 1010.21,378.73 1009.24,381.65 1010.21,387.49 1012.16,392.36 1012.16,398.19 1013.13,401.11 1017.02,406.95 1020.91,408.9 1021.89,411.82 1034.53,430.3 1044.26,429.33 1052.04,420.57 1068.57,413.76 1079.27,409.87 1082.19,410.84 1090.95,407.93 1094.84,407.93 1096.78,405.01 1101.65,402.09 1103.59,399.17 1106.51,400.14 1108.46,398.2 1112.35,397.22 1116.24,385.55 1120.13,380.68 1124.99,378.74 1126.94,375.82 1129.86,366.09 1137.64,363.17 1140.56,368.04 1146.39,368.04 1152.23,370.96 1157.09,376.79 1164.87,380.69 1168.77,380.69 1170.71,370.96 1168.77,367.07 1168.77,362.2 1166.82,355.39 1166.82,351.5 1178.5,343.71 1185.31,342.74 1185.31,336.9 1184.33,333.01 1185.31,331.07 1189.2,328.15 1196.98,324.26 1199.9,324.26 1202.82,327.18 1208.65,326.2 1212.54,327.18 1215.46,324.26 1218.38,323.29 1226.16,328.15 1228.11,332.04 1232,335.94 1236.86,334.96 1237.84,323.29 1240.76,318.42 1240.76,315.5 1250.48,312.59 1251.46,307.72 1257.29,302.86 1265.08,302.86 1281.61,297.02 1274.81,287.29 1276.75,280.48 1273.84,270.75 1277.73,265.89 1279.68,261.02 1286.49,255.18 1282.6,239.61 1282.6,232.8 1281.63,227.94 1287.46,225.02 1299.14,225.02 1299.14,229.89 1302.05,235.73 1308.86,234.75 1308.87,227.94 1315.68,226.97 1321.51,229.89 1324.43,223.08 1330.27,220.16 1330.27,216.27 1332.22,215.3 1336.11,210.43 1340.97,209.46 1342.92,203.62 1354.59,193.9 1355.57,188.06 1362.38,180.27 1363.35,176.38 1374.06,168.6 1378.92,166.66 1381.84,167.63 1384.76,165.68 1386.7,162.76 1386.71,154.01 1393.52,152.06 1400.33,145.25 1401.3,134.55 1406.17,124.82 1406.17,118.01 1405.2,116.06 1411.04,107.31 1413.96,105.36 1414.93,102.44 1419.8,101.47 1421.74,99.52 1425.64,98.55 1429.53,95.63 1436.34,93.69 1438.28,90.77 1440.23,90.77 1442.18,88.83 1446.07,88.83 1448.01,87.85 1449.96,89.8 1451.91,89.8 1450.93,84.94 1448.99,82.02 1449.96,80.07 1448.99,78.12 1447.05,66.45 1445.1,63.53 1447.05,58.66 1446.08,55.74 1448.02,53.8 1448.02,50.88 1450.94,49.9 1450.94,47.96 1454.84,46.99 1455.81,41.15 1457.76,38.23 1457.76,33.36 1455.81,33.36 1456.79,30.44 1459.71,28.5 1457.76,25.58 1461.65,24.61 1462.63,21.69 1465.55,20.72 1467.49,24.61 1475.27,25.58 1477.22,28.5 1480.14,29.48 1481.11,27.53 1479.16,25.59 1482.08,23.64 1483.06,20.72 1485.98,23.64 1486.95,22.67 1491.81,26.56 1493.76,26.56 1496.68,28.51 1500.57,25.59 1503.49,21.7 1504.46,23.65 1507.38,23.65 1508.35,21.7 1510.3,23.65 1511.27,21.7 1513.22,22.68 1516.14,21.7 1517.11,23.65 1520.03,22.68 1521.97,23.65 1523.92,22.68 1529.76,23.65 1529.76,24.63 1533.65,23.66 1535.6,21.71 1535.6,17.82 1537.54,16.85 1539.49,12.95 1542.41,12.95 1542.41,10.04 1546.3,8.09 1551.17,9.07 1552.14,8.09 1558.95,11.01 1560.9,10.04 1563.81,12.96 1566.73,13.94 1567.71,11.99 1570.62,12.96 1569.65,14.91 1573.54,14.91 1576.46,16.86 1570.62,21.72 1570.62,25.61 1567.7,26.59 1563.81,35.34 1556.99,40.21 1557.97,43.13 1555.05,47.99 1556.99,52.86 1556.02,56.75 1556.99,61.61 1559.9,69.4 1561.85,71.35 1562.82,75.24 1564.76,77.19 1572.55,77.19 1577.41,78.16 1580.33,81.08 1578.38,84 1573.52,85.95 1572.54,87.89 1572.54,94.7 1571.57,99.57 1574.48,105.41 1573.51,110.27 1574.48,114.17 1579.34,118.06 1584.21,118.06 1587.13,116.12 1594.91,117.09 1601.72,120.99 1603.66,120.99 1607.55,125.86 1611.44,128.78 1611.44,132.67 1614.36,137.53 1617.27,148.24 1624.08,157 1623.11,159.92 1626.02,165.76 1626.02,167.7 1627.97,170.62 1634.77,177.44 1634.77,180.36 1642.55,189.12 1643.52,193.01 1647.41,200.8 1651.3,203.72 1653.25,206.64 1653.24,226.1 1658.1,228.05 1659.07,234.86 1661.02,240.7 1662.96,242.64 1660.04,246.53 1661.01,249.45 1656.14,259.18 1660.03,264.05 1660.03,266.97 1661.98,272.81 1663.92,274.75 1663.92,276.7 1666.84,277.67 1667.81,279.62 1668.78,285.46 1669.75,286.43 1669.75,289.35 1673.64,291.3 1712.55,302.02 1728.1,336.08 1776.73,345.83 1780.62,347.78 1832.15,400.35 1833.12,395.49 1836.04,397.43 1837.01,402.3 1835.06,403.27 1835.06,407.16 1839.89,465.55 1841.84,467.49 1840.87,470.41 1933.2,595 1932.22,595.98 1932.22,598.9 1914.7,635.86 1916.64,642.67 1916.63,650.46 1914.69,652.4 1925.33,753.6 1917.53,785.7 1908.75,832.4 1908.75,835.32 1907.78,836.29 1901.92,874.23 1904.84,877.15 1905.81,882.99 1920.38,906.35 1954.38,964.75 1957.29,967.67 1967.02,970.6 1968.96,975.46 1967.98,981.3 1968.95,983.25 1972.84,983.25 1975.76,986.17 1980.62,992.98 1981.59,996.87 1984.5,997.85 1984.5,1000.77 1989.36,1003.69 1989.36,1007.58 1990.33,1009.53 1989.35,1015.37 1987.41,1016.34 1985.46,1022.17 1982.54,1026.06 1979.62,1025.09 1977.68,1026.06 1978.65,1031.9 1977.67,1034.82 1974.76,1037.74 1973.78,1040.65 1966,1051.35 1967.94,1056.22 1967.93,1065.95 1965.02,1066.92 1960.15,1070.81 1960.15,1072.75 1957.23,1074.7 1958.2,1076.65 1956.26,1079.56 1955.28,1083.45 1953.34,1085.4 1954.31,1091.24 1951.38,1098.05 1952.35,1103.89 1951.38,1105.83 1952.35,1108.75 1946.51,1113.61 1944.57,1116.53 1941.64,1128.2 1936.78,1134.04 1936.78,1139.88 1937.75,1140.85 1935.8,1144.74 1938.72,1147.66 1938.71,1152.53 1935.8,1154.47 1934.82,1156.42 1936.77,1160.31 1934.82,1165.17 1934.82,1169.07 1939.67,1181.72 1937.72,1184.64 1941.61,1193.39 1943.55,1195.34 1943.55,1197.29 1945.49,1201.18 1945.49,1207.02 1946.46,1210.91 1945.48,1219.67 1942.56,1227.45 1944.5,1232.32 1942.56,1235.23 1943.53,1239.13 1945.47,1240.1 1948.39,1238.16 1949.36,1240.1 1945.47,1246.91 1942.55,1248.86 1936.71,1249.83 1929.91,1255.66 1927.96,1264.42 1928.93,1269.28 1921.14,1278.03 1919.2,1281.92 1916.28,1283.87 1912.39,1288.73 1904.61,1290.67 1900.72,1288.73 1898.78,1288.72 1890.03,1291.64 1889.05,1296.5 1882.24,1302.34 1880.3,1301.36 1877.38,1304.28 1877.38,1307.2 1874.46,1308.17 1875.43,1313.04 1872.51,1314.01 1870.57,1313.03 1862.79,1315.95 1860.85,1314.98 1860.85,1310.11 1857.94,1307.19 1855.99,1306.22 1848.21,1306.21 1843.35,1304.26 1833.64,1297.45 1828.78,1288.69 1818.09,1284.79 1813.23,1280.9 1806.42,1281.87 1804.48,1282.84 1799.62,1287.7 1792.81,1287.7 1787.95,1294.51 1786,1306.18 1782.11,1311.04 1780.16,1314.93 1776.27,1317.85 1773.35,1318.82 1768.49,1322.71 1766.54,1326.6 1761.68,1328.55 1760.71,1332.44 1754.87,1337.3 1749.04,1336.33 1746.12,1334.38 1742.24,1333.4 1740.29,1329.51 1738.35,1327.56 1736.41,1328.54 1731.55,1326.59 1729.6,1327.56 1727.66,1325.61 1722.8,1323.67 1714.05,1326.58 1711.13,1325.61 1709.19,1322.69 1705.3,1322.68 1700.44,1326.57 1696.55,1325.6 1689.74,1329.49 1685.85,1336.3 1676.13,1341.16 1670.29,1342.13 1668.35,1340.18 1664.46,1338.24 1653.77,1336.29 1649.88,1334.34 1645.99,1337.26 1640.16,1334.33 1637.25,1329.47 1630.44,1327.52 1624.61,1328.49 1619.75,1327.52 1616.83,1324.6 1612.94,1324.59 1611.97,1322.65 1611.97,1317.78 1611,1313.89 1602.26,1309.02 1601.28,1306.1 1597.4,1301.24 1592.54,1301.23 1589.62,1291.5 1586.71,1290.53 1579.9,1293.45 1575.04,1291.5 1572.13,1286.63 1574.07,1283.71 1574.07,1277.88 1573.1,1275.93 1570.19,1275.93 1563.38,1273.01 1562.41,1269.11 1564.36,1264.25 1563.39,1261.33 1563.39,1257.44 1565.33,1255.49 1566.31,1247.71 1562.42,1243.82 1553.67,1243.81 1550.75,1246.73 1547.84,1246.73 1543.94,1253.54 1541.03,1255.49 1538.11,1253.54 1534.22,1254.51 1532.28,1253.54 1530.33,1250.62 1526.45,1252.56 1525.47,1248.67 1521.59,1245.75 1518.67,1239.91 1515.76,1236.99 1512.84,1236.02 1509.92,1237.96 1499.23,1238.93 1493.39,1242.82 1493.39,1246.71 1491.45,1246.71 1490.47,1248.66 1485.61,1251.58 1485.61,1256.44 1484.64,1256.44 1484.64,1259.36 1481.72,1267.14 1479.77,1268.12 1478.8,1272.01 1478.8,1276.87 1472.97,1278.82 1466.16,1274.92 1463.25,1275.89 1460.33,1274.92 1455.47,1268.11 1452.56,1258.38 1450.61,1256.43 1450.61,1252.54 1452.56,1245.73 1446.73,1239.89 1443.81,1240.86 1441.87,1242.81 1435.06,1242.8 1431.17,1241.83 1428.26,1238.91 1426.31,1239.88 1425.34,1237.94 1423.4,1237.94 1420.48,1235.99 1418.53,1238.91 1412.7,1238.91 1410.76,1240.85 1407.84,1241.82 1408.81,1244.74 1404.92,1243.77 1402.98,1244.74 1403.95,1246.69 1403.95,1254.47 1405.89,1256.42 1406.86,1261.28 1408.81,1263.23 1407.83,1264.2 1404.92,1263.23 1403.94,1265.18 1405.89,1268.1 1407.83,1267.12 1409.78,1268.1 1409.78,1271.99 1405.89,1276.85 1404.91,1275.88 1402,1280.74 1403.94,1283.66 1403.94,1286.58 1400.05,1288.53 1402.97,1292.42 1402.97,1293.39 1386.44,1294.36 1372.83,1296.3 1369.91,1295.33 1365.05,1295.33 1358.25,1291.44" fill="none" stroke="#1e1e1e" stroke-width="2.21" stroke-linecap="round" stroke-linejoin="round"/>
<text x="1039.47" y="939.06" font-family="sans-serif" font-size="14" stroke="#ffffff" stroke-opacity="0.784" stroke-width="2.33" stroke-linejoin="round" paint-order="stroke" fill="#141414">Rwanda</text>
</svg>
