<?xml version="1.0" encoding="UTF-8" standalone="no"?>
<svg xmlns="http://www.w3.org/2000/svg" width="1168" height="2000" viewBox="0 0 1168 2000">
<rect width="1168" height="2000" fill="#ffffff"/>
<path d="M1124.77,233.62L1120.93,231.63L1117.86,228.39L1124.07,226.34L1124.77,233.62Z" fill-rule="evenodd" fill="#4682b4" fill-opacity="0.471"/>
<polyline points="1124.77,233.62 1120.93,231.63 1117.86,228.39 1124.07,226.34 1124.77,233.62" fill="none" stroke="#1e1e1e" stroke-width="2.34" stroke-linecap="round" stroke-linejoin="round"/>
<path d="M1070.15,206.01L1062.92,189.93L1048.15,190.02L1038.14,177.13L1026.82,178.15L1026.02,183.69L1020.84,183.92L1017.16,176.8L1019.22,159.69L1012.8,145.27L1016.14,135.58L1005.61,126.65L1013,120.37L1021.89,129.29L1038.37,128.92L1047.46,123.14L1053.6,103.51L1046.93,87.03L1056.69,74.39L1049.07,65.3L1052.55,36.47L1075.42,37.25L1083.65,30.13L1081.12,22.23L1086.68,26.21L1091.12,21.48L1106.31,26.03L1118.34,33.6L1130.63,32.33L1135.76,23.89L1148.47,35.05L1159.32,37.19L1156.02,44.54L1159.75,50.29L1145.73,45.26L1140.24,51.76L1142.46,58.23L1127.39,60.38L1112.67,81.88L1117.36,84.07L1132.23,74.07L1140.72,86.18L1152.11,84.42L1147.95,92.03L1155.64,90.75L1159.76,100.84L1146.63,113.65L1134.05,110.95L1116.64,127.18L1115.59,136.68L1122.92,147.72L1120.35,165.18L1113.64,172.61L1118.26,181.21L1113.22,185.47L1109.39,179.09L1102.7,179.5L1088.82,190.84L1094.55,204.44L1092.64,212.1L1087.94,213.89L1085.72,199.39L1076.45,199.92L1070.15,206.01Z" fill-rule="evenodd" fill="#4682b4" fill-opacity="0.471"/>
<polyline points="1070.15,206.01 1062.92,189.93 1048.15,190.02 1038.14,177.13 1026.82,178.15 1026.02,183.69 1020.84,183.92 1017.16,176.8 1019.22,159.69 1012.8,145.27 1016.14,135.58 1005.61,126.65 1013,120.37 1021.89,129.29 1038.37,128.92 1047.46,123.14 1053.6,103.51 1046.93,87.03 1056.69,74.39 1049.07,65.3 1052.55,36.47 1075.42,37.25 1083.65,30.13 1081.12,22.23 1086.68,26.21 1091.12,21.48 1106.31,26.03 1118.34,33.6 1130.63,32.33 1135.76,23.89 1148.47,35.05 1159.32,37.19 1156.02,44.54 1159.75,50.29 1145.73,45.26 1140.24,51.76 1142.46,58.23 1127.39,60.38 1112.67,81.88 1117.36,84.07 1132.23,74.07 1140.72,86.18 1152.11,84.42 1147.95,92.03 1155.64,90.75 1159.76,100.84 1146.63,113.65 1134.05,110.95 1116.64,127.18 1115.59,136.68 1122.92,147.72 1120.35,165.18 1113.64,172.61 1118.26,181.21 1113.22,185.47 1109.39,179.09 1102.7,179.5 1088.82,190.84 1094.55,204.44 1092.64,212.1 1087.94,213.89 1085.72,199.39 1076.45,199.92 1070.15,206.01" fill="none" stroke="#1e1e1e" stroke-width="2.34" stroke-linecap="round" stroke-linejoin="round"/>
<path d="M81.91,1984.31L66.22,1980.82L68.16,1974.61L85.11,1966.59L81.93,1973.3L86.6,1977.05L81.91,1984.31Z" fill-rule="evenodd" fill="#4682b4" fill-opacity="0.471"/>
<polyline points="81.91,1984.31 66.22,1980.82 68.16,1974.61 85.11,1966.59 81.93,1973.3 86.6,1977.05 81.91,1984.31" fill="none" stroke="#1e1e1e" stroke-width="2.34" stroke-linecap="round" stroke-linejoin="round"/>
<path d="M338.89,1618.52L352.84,1632.5L349.53,1640.91L341.55,1639.65L335.22,1653.25L340.54,1662.9L332.33,1672.68L333.51,1684.6L339.44,1689.91L331.95,1699.51L335.43,1704.14L324.4,1707.57L306.83,1735.89L289.23,1740.24L282.18,1758.82L268.4,1766.75L272.75,1774.47L258.97,1776.88L262.88,1789.02L254.18,1785.52L251.57,1791.26L255.06,1793.87L245.84,1795.17L247.45,1802.64L252.34,1802.61L231.48,1812.17L231.93,1820.06L221.45,1821.48L221.47,1827.95L230.5,1832.67L229.27,1845.17L210.99,1848.39L209.85,1854.57L198.74,1855.2L199.62,1860.27L192.63,1858.26L180.52,1872.45L184.11,1877.49L169.53,1873.9L166.69,1883.78L156.25,1879.91L154.09,1883.84L151.35,1874.9L145.12,1876.72L142.64,1871.5L131.13,1874.36L125.05,1890.99L129.49,1905.82L119.76,1913.74L119.1,1930.36L113.49,1927.32L105.83,1931.42L104.95,1923.89L95.74,1915.75L91.58,1919.74L95.01,1933.63L91.24,1938.63L74.87,1943.15L72.37,1949.39L67.07,1945.69L68.05,1927.97L59.92,1916.12L70.15,1907.74L70.96,1858.85L64.39,1847.67L53.59,1849.03L50.32,1842.73L42.59,1843.51L48.94,1826.61L34.67,1817.93L39.48,1812.89L27.84,1802.98L28.02,1771.16L15.61,1756.64L16.03,1746.76L10.21,1745.05L15.21,1739.98L8.47,1712.31L12.43,1699.24L8.04,1692.61L8.04,1688.82L18.28,1662.63L30.87,1654.72L43.81,1605.68L58.19,1600.04L65.27,1590.07L78.22,1589.81L84.55,1576.36L97.63,1569.8L104.58,1557.3L122.56,1558.89L136.35,1550.98L155.55,1528.71L173.56,1516.11L178.21,1502.53L192.02,1503.27L197.98,1498.78L211.57,1503.48L238.28,1495.51L273.07,1507.2L277.22,1521.52L286.29,1530.02L305.3,1532.56L308.19,1539.42L298.25,1543.33L299.17,1554.31L312.63,1558.08L308.26,1568.28L313.31,1577.88L322.15,1579.75L326.14,1570.26L328.93,1572.96L330.11,1602.11L338.39,1610.22L338.89,1618.52Z" fill-rule="evenodd" fill="#4682b4" fill-opacity="0.471"/>
<polyline points="338.89,1618.52 352.84,1632.5 349.53,1640.91 341.55,1639.65 335.22,1653.25 340.54,1662.9 332.33,1672.68 333.51,1684.6 339.44,1689.91 331.95,1699.51 335.43,1704.14 324.4,1707.57 306.83,1735.89 289.23,1740.24 282.18,1758.82 268.4,1766.75 272.75,1774.47 258.97,1776.88 262.88,1789.02 254.18,1785.52 251.57,1791.26 255.06,1793.87 245.84,1795.17 247.45,1802.64 252.34,1802.61 231.48,1812.17 231.93,1820.06 221.45,1821.48 221.47,1827.95 230.5,1832.67 229.27,1845.17 210.99,1848.39 209.85,1854.57 198.74,1855.2 199.62,1860.27 192.63,1858.26 180.52,1872.45 184.11,1877.49 169.53,1873.9 166.69,1883.78 156.25,1879.91 154.09,1883.84 151.35,1874.9 145.12,1876.72 142.64,1871.5 131.13,1874.36 125.05,1890.99 129.49,1905.82 119.76,1913.74 119.1,1930.36 113.49,1927.32 105.83,1931.42 104.95,1923.89 95.74,1915.75 91.58,1919.74 95.01,1933.63 91.24,1938.63 74.87,1943.15 72.37,1949.39 67.07,1945.69 68.05,1927.97 59.92,1916.12 70.15,1907.74 70.96,1858.85 64.39,1847.67 53.59,1849.03 50.32,1842.73 42.59,1843.51 48.94,1826.61 34.67,1817.93 39.48,1812.89 27.84,1802.98 28.02,1771.16 15.61,1756.64 16.03,1746.76 10.21,1745.05 15.21,1739.98 8.47,1712.31 12.43,1699.24 8.04,1692.61 8.04,1688.82 18.28,1662.63 30.87,1654.72 43.81,1605.68 58.19,1600.04 65.27,1590.07 78.22,1589.81 84.55,1576.36 97.63,1569.8 104.58,1557.3 122.56,1558.89 136.35,1550.98 155.55,1528.71 173.56,1516.11 178.21,1502.53 192.02,1503.27 197.98,1498.78 211.57,1503.48 238.28,1495.51 273.07,1507.2 277.22,1521.52 286.29,1530.02 305.3,1532.56 308.19,1539.42 298.25,1543.33 299.17,1554.31 312.63,1558.08 308.26,1568.28 313.31,1577.88 322.15,1579.75 326.14,1570.26 328.93,1572.96 330.11,1602.11 338.39,1610.22 338.89,1618.52" fill="none" stroke="#1e1e1e" stroke-width="2.34" stroke-linecap="round" stroke-linejoin="round"/>
</svg>
