<?xml version="1.0" encoding="UTF-8" standalone="no"?>
<svg xmlns="http://www.w3.org/2000/svg" width="2000" height="1455" viewBox="0 0 2000 1455">
<rect width="2000" height="1455" fill="#ffffff"/>
<path d="M301.64,1443.67L296.68,1441.2L292.04,1441.68L285.51,1434.93L282.04,1433.51L278,1433.54L272.79,1436.44L267.07,1429.85L264.77,1421.71L262.08,1421.33L260.61,1418.24L253.71,1413.35L248.27,1396.08L247.93,1387.35L253.09,1374L258.72,1368.46L261.58,1367.69L261.86,1359.82L257.26,1358.73L255.27,1355.88L255.58,1340.48L253.05,1336.97L253.7,1334.42L250.95,1328.37L252.33,1323.31L249.6,1322.33L248.82,1319.98L253.48,1305.86L248.65,1294.61L252.95,1282.91L254.07,1274.67L258.25,1261.12L263.93,1235.52L267.26,1210.96L263.66,1197.57L261.75,1195.02L256.01,1192.89L257.95,1178.89L256.22,1176.77L254.11,1168.81L251.27,1166.68L252.8,1157.06L252.12,1137.7L250.32,1131.39L245.46,1128.43L246.67,1114.07L243.57,1107.67L244.31,1105.8L247.66,1103.91L249.42,1094.14L255.27,1092.98L262.94,1087.97L268.91,1079.91L272.64,1071.68L282.16,1063.29L290.64,1058.93L293.79,1064.03L298.9,1063.73L303.8,1065.74L307.09,1063.31L321.1,1070.02L333.45,1052.56L335.47,1043.92L333.33,1033.7L329.1,1026.33L325.05,1025.03L322.41,1018.82L317.58,1014.62L317.8,1012.35L315.83,1008.96L308.56,1006.75L308.07,1004.53L306.52,1003.96L300.39,987.1L303.27,981.01L302.41,976.13L305.39,967.62L320.51,952.94L320.2,950.83L324.07,948.05L329.11,947.23L328.99,944.85L338.16,942.41L339.82,938.27L346.8,935.29L343.73,931.23L346.78,924.83L348.74,924.08L345.88,914.06L347.5,911.27L351.5,908.91L352.74,905.03L348.75,899.14L349.89,893.99L348.51,893.16L346.51,896.29L348.67,906.16L343.55,911.77L342.51,919.75L339.81,918.98L338.49,916.74L332.79,921.53L329.08,930.69L321.69,941.06L315.09,945.12L306.42,946.49L301.08,949.33L300.16,948.27L298.82,948.87L296.24,941.9L303.48,930.58L304.79,926.82L295.54,939.62L292.25,941.38L286.55,940.58L286.51,936.08L285.07,936.62L280.51,929.89L282.25,924.05L280.93,922.75L287.38,918.51L287.14,917.35L284.31,918.48L283.8,917.55L277.45,921.53L271.82,920.85L267.49,909.03L267.99,907.61L261.84,906.17L262.45,914.29L261.56,913.77L258.6,873.93L254.91,858.52L249,846.69L245.88,845.73L245.07,844.06L243.06,845.67L232.46,832.07L229.41,830.76L228.12,818.46L226.14,813.68L215.27,798.85L210.12,797.43L209.4,777.62L204.04,766.14L198.14,758.03L189.87,752.24L185.89,747.69L181.45,746.45L179,744L176.72,744.49L170.32,741.91L168.36,737.06L165.77,736.11L159.93,727.83L158.22,719.93L154.21,710.74L147.14,705.18L142.7,697.52L138.78,701.34L138.98,699.34L142.34,696.88L141.32,692.72L136.52,684.69L127.52,674.03L106.62,658.39L93.95,655.03L81.49,649.15L68.73,647.3L58.49,649.22L53.56,653.05L53.87,658.08L57.09,658.03L57.26,659.74L55.07,661.42L57.19,664.57L56.07,667.12L56.18,665.6L54.49,665.54L53.27,662.63L51.69,664.06L51.82,665.45L52.54,664.52L53.28,665.6L51.87,665.89L52.19,667.09L53.47,666.78L52.66,668.43L53.79,667.49L53.76,668.88L54.64,668.06L55.38,669.21L56.23,667.86L55.65,669.97L52.79,671.21L51.71,673.33L52.88,676.27L51.98,677.63L47.18,669.16L44.24,668.61L43.32,667.01L40.42,668.47L40.55,664.53L38.13,662.32L39.38,660.87L34.94,657.58L34.16,655.14L30.07,653.58L29.85,651.49L26.41,647.4L22.03,646.43L22.06,644.59L22.81,643.13L25.1,644.25L30.27,641.62L30.77,642.67L30.44,641.61L34.68,641.07L37.48,638.47L40.96,639.78L49.99,637.91L86.84,623.62L149.52,592.16L157.03,577.45L200.61,528.17L233.83,484.36L267.61,430.56L309.06,368.47L328.14,333.27L345.15,284.04L349.88,258.16L347.27,260.09L346.42,267.53L345.78,254.84L348.77,217.07L348.71,170.65L346.03,146.72L350.28,130.67L363.67,93.73L363.18,91.85L366.73,90.85L367.06,89.26L365.38,88.48L364.81,90.25L361.63,91.08L367.18,77.46L371.78,35.68L380.81,11.88L1969.34,8L1988.69,1440.32L301.64,1443.67Z" fill-rule="evenodd" fill="#4682b4" fill-opacity="0.471"/>
<polyline points="301.64,1443.67 296.68,1441.2 292.04,1441.68 285.51,1434.93 282.04,1433.51 278,1433.54 272.79,1436.44 267.07,1429.85 264.77,1421.71 262.08,1421.33 260.61,1418.24 253.71,1413.35 248.27,1396.08 247.93,1387.35 253.09,1374 258.72,1368.46 261.58,1367.69 261.86,1359.82 257.26,1358.73 255.27,1355.88 255.58,1340.48 253.05,1336.97 253.7,1334.42 250.95,1328.37 252.33,1323.31 249.6,1322.33 248.82,1319.98 253.48,1305.86 248.65,1294.61 252.95,1282.91 254.07,1274.67 258.25,1261.12 263.93,1235.52 267.26,1210.96 263.66,1197.57 261.75,1195.02 256.01,1192.89 257.95,1178.89 256.22,1176.77 254.11,1168.81 251.27,1166.68 252.8,1157.06 252.12,1137.7 250.32,1131.39 245.46,1128.43 246.67,1114.07 243.57,1107.67 244.31,1105.8 247.66,1103.91 249.42,1094.14 255.27,1092.98 262.94,1087.97 268.91,1079.91 272.64,1071.68 282.16,1063.29 290.64,1058.93 293.79,1064.03 298.9,1063.73 303.8,1065.74 307.09,1063.31 321.1,1070.02 333.45,1052.56 335.47,1043.92 333.33,1033.7 329.1,1026.33 325.05,1025.03 322.41,1018.82 317.58,1014.62 317.8,1012.35 315.83,1008.96 308.56,1006.75 308.07,1004.53 306.52,1003.96 300.39,987.1 303.27,981.01 302.41,976.13 305.39,967.62 320.51,952.94 320.2,950.83 324.07,948.05 329.11,947.23 328.99,944.85 338.16,942.41 339.82,938.27 346.8,935.29 343.73,931.23 346.78,924.83 348.74,924.08 345.88,914.06 347.5,911.27 351.5,908.91 352.74,905.03 348.75,899.14 349.89,893.99 348.51,893.16 346.51,896.29 348.67,906.16 343.55,911.77 342.51,919.75 339.81,918.98 338.49,916.74 332.79,921.53 329.08,930.69 321.69,941.06 315.09,945.12 306.42,946.49 301.08,949.33 300.16,948.27 298.82,948.87 296.24,941.9 303.48,930.58 304.79,926.82 295.54,939.62 292.25,941.38 286.55,940.58 286.51,936.08 285.07,936.62 280.51,929.89 282.25,924.05 280.93,922.75 287.38,918.51 287.14,917.35 284.31,918.48 283.8,917.55 277.45,921.53 271.82,920.85 267.49,909.03 267.99,907.61 261.84,906.17 262.45,914.29 261.56,913.77 258.6,873.93 254.91,858.52 249,846.69 245.88,845.73 245.07,844.06 243.06,845.67 232.46,832.07 229.41,830.76 228.12,818.46 226.14,813.68 215.27,798.85 210.12,797.43 209.4,777.62 204.04,766.14 198.14,758.03 189.87,752.24 185.89,747.69 181.45,746.45 179,744 176.72,744.49 170.32,741.91 168.36,737.06 165.77,736.11 159.93,727.83 158.22,719.93 154.21,710.74 147.14,705.18 142.7,697.52 138.78,701.34 138.98,699.34 142.34,696.88 141.32,692.72 136.52,684.69 127.52,674.03 106.62,658.39 93.95,655.03 81.49,649.15 68.73,647.3 58.49,649.22 53.56,653.05 53.87,658.08 57.09,658.03 57.26,659.74 55.07,661.42 57.19,664.57 56.07,667.12 56.18,665.6 54.49,665.54 53.27,662.63 51.69,664.06 51.82,665.45 52.54,664.52 53.28,665.6 51.87,665.89 52.19,667.09 53.47,666.78 52.66,668.43 53.79,667.49 53.76,668.88 54.64,668.06 55.38,669.21 56.23,667.86 55.65,669.97 52.79,671.21 51.71,673.33 52.88,676.27 51.98,677.63 47.18,669.16 44.24,668.61 43.32,667.01 40.42,668.47 40.55,664.53 38.13,662.32 39.38,660.87 34.94,657.58 34.16,655.14 30.07,653.58 29.85,651.49 26.41,647.4 22.03,646.43 22.06,644.59 22.81,643.13 25.1,644.25 30.27,641.62 30.77,642.67 30.44,641.61 34.68,641.07 37.48,638.47 40.96,639.78 49.99,637.91 86.84,623.62 149.52,592.16 157.03,577.45 200.61,528.17 233.83,484.36 267.61,430.56 309.06,368.47 328.14,333.27 345.15,284.04 349.88,258.16 347.27,260.09 346.42,267.53 345.78,254.84 348.77,217.07 348.71,170.65 346.03,146.72 350.28,130.67 363.67,93.73 363.18,91.85 366.73,90.85 367.06,89.26 365.38,88.48 364.81,90.25 361.63,91.08 367.18,77.46 371.78,35.68 380.81,11.88 1969.34,8 1988.69,1440.32 301.64,1443.67" fill="none" stroke="#1e1e1e" stroke-width="1.53" stroke-linecap="round" stroke-linejoin="round"/>
<path d="M291.28,957.71L289.49,958.88L289.13,956.06L290.62,955.43L291.28,957.71Z" fill-rule="evenodd" fill="#4682b4" fill-opacity="0.471"/>
<polyline points="291.28,957.71 289.49,958.88 289.13,956.06 290.62,955.43 291.28,957.71" fill="none" stroke="#1e1e1e" stroke-width="1.53" stroke-linecap="round" stroke-linejoin="round"/>
<path d="M295.48,958.41L299.04,953.89L299.68,954.28L296.94,959.79L295.48,958.41Z" fill-rule="evenodd" fill="#4682b4" fill-opacity="0.471"/>
<polyline points="295.48,958.41 299.04,953.89 299.68,954.28 296.94,959.79 295.48,958.41" fill="none" stroke="#1e1e1e" stroke-width="1.53" stroke-linecap="round" stroke-linejoin="round"/>
<path d="M263.56,930.81L264.83,932.06L263.88,931.47L263.45,934.19L263.69,945.51L265.46,947.77L264.76,949.58L265.64,949.22L263.26,957.13L269.77,964.03L270.86,964.17L269.82,963.45L270.42,963.05L274.49,965.94L276.52,965.63L276.45,967L273.77,966.79L263.82,960.88L262.04,948.97L263.56,930.81Z" fill-rule="evenodd" fill="#4682b4" fill-opacity="0.471"/>
<polyline points="263.56,930.81 264.83,932.06 263.88,931.47 263.45,934.19 263.69,945.51 265.46,947.77 264.76,949.58 265.64,949.22 263.26,957.13 269.77,964.03 270.86,964.17 269.82,963.45 270.42,963.05 274.49,965.94 276.52,965.63 276.45,967 273.77,966.79 263.82,960.88 262.04,948.97 263.56,930.81" fill="none" stroke="#1e1e1e" stroke-width="1.53" stroke-linecap="round" stroke-linejoin="round"/>
<path d="M299.88,996.93L302.1,999.34L298.66,1003.32L299.88,996.93Z" fill-rule="evenodd" fill="#4682b4" fill-opacity="0.471"/>
<polyline points="299.88,996.93 302.1,999.34 298.66,1003.32 299.88,996.93" fill="none" stroke="#1e1e1e" stroke-width="1.53" stroke-linecap="round" stroke-linejoin="round"/>
<path d="M295.83,1004.18L300.72,1014.3L303.82,1014.26L304.9,1017.08L302.56,1016.52L299.95,1013.67L296.19,1006.88L295.83,1004.18Z" fill-rule="evenodd" fill="#4682b4" fill-opacity="0.471"/>
<polyline points="295.83,1004.18 300.72,1014.3 303.82,1014.26 304.9,1017.08 302.56,1016.52 299.95,1013.67 296.19,1006.88 295.83,1004.18" fill="none" stroke="#1e1e1e" stroke-width="1.53" stroke-linecap="round" stroke-linejoin="round"/>
<path d="M291.39,956.89L293.96,945.1L295.38,944.21L297.31,947.41L296.35,949.13L297.31,947.63L297.83,948.75L297.87,952.08L291.39,956.89Z" fill-rule="evenodd" fill="#4682b4" fill-opacity="0.471"/>
<polyline points="291.39,956.89 293.96,945.1 295.38,944.21 297.31,947.41 296.35,949.13 297.31,947.63 297.83,948.75 297.87,952.08 291.39,956.89" fill="none" stroke="#1e1e1e" stroke-width="1.53" stroke-linecap="round" stroke-linejoin="round"/>
<path d="M290.44,944.08L295.31,940.87L295.09,943.17L289.41,955.19L291.17,949.27L290.44,944.08Z" fill-rule="evenodd" fill="#4682b4" fill-opacity="0.471"/>
<polyline points="290.44,944.08 295.31,940.87 295.09,943.17 289.41,955.19 291.17,949.27 290.44,944.08" fill="none" stroke="#1e1e1e" stroke-width="1.53" stroke-linecap="round" stroke-linejoin="round"/>
<path d="M299.55,956.25L300.4,952.37L302.23,953.07L299.55,956.25Z" fill-rule="evenodd" fill="#4682b4" fill-opacity="0.471"/>
<polyline points="299.55,956.25 300.4,952.37 302.23,953.07 299.55,956.25" fill="none" stroke="#1e1e1e" stroke-width="1.53" stroke-linecap="round" stroke-linejoin="round"/>
<path d="M305.25,950.87L314.15,947.69L315.38,950.41L308.47,957.38L299.24,961.63L298.89,957.82L305.25,950.87Z" fill-rule="evenodd" fill="#4682b4" fill-opacity="0.471"/>
<polyline points="305.25,950.87 314.15,947.69 315.38,950.41 308.47,957.38 299.24,961.63 298.89,957.82 305.25,950.87" fill="none" stroke="#1e1e1e" stroke-width="1.53" stroke-linecap="round" stroke-linejoin="round"/>
<path d="M328.35,935.2L330.66,932.34L331.33,927.27L334.37,922.18L338.3,920.89L341.9,922.82L341.99,926.98L338.73,934.28L332.14,937.22L328.73,936.58L328.35,935.2Z" fill-rule="evenodd" fill="#4682b4" fill-opacity="0.471"/>
<polyline points="328.35,935.2 330.66,932.34 331.33,927.27 334.37,922.18 338.3,920.89 341.9,922.82 341.99,926.98 338.73,934.28 332.14,937.22 328.73,936.58 328.35,935.2" fill="none" stroke="#1e1e1e" stroke-width="1.53" stroke-linecap="round" stroke-linejoin="round"/>
<path d="M342.13,919.94L341.31,921.31L339.2,919.9L339.83,919.17L342.13,919.94Z" fill-rule="evenodd" fill="#4682b4" fill-opacity="0.471"/>
<polyline points="342.13,919.94 341.31,921.31 339.2,919.9 339.83,919.17 342.13,919.94" fill="none" stroke="#1e1e1e" stroke-width="1.53" stroke-linecap="round" stroke-linejoin="round"/>
<path d="M289.95,947.1L290.89,949.62L288.66,955.28L286.71,953.03L287.3,951.39L286.31,953.44L288.65,956.68L283.27,954.18L283.43,955.42L281.76,954.85L280.82,953.82L281.62,953.45L281.59,951.68L280.4,952.2L279.53,951.08L280.17,952.26L281.61,951.95L280.7,953.94L281.73,954.99L288.72,957.26L287.72,962.85L283.84,963.87L274.47,951.77L269.41,941.35L268.84,942.16L269.76,939.17L269.98,941.96L272.3,945.51L270.28,939.88L272.44,937.09L271.6,939.57L272.58,940.53L273.5,936.57L270.82,931.38L270.9,925.19L268.88,930.5L269.51,933.21L268.75,931.27L271.94,922.33L277.18,922.5L280.8,925.08L280.39,927.21L278.85,927.24L278.57,924.9L278.41,926.06L278.86,927.3L280.19,927.3L278.94,929.69L281.67,934.38L280.56,935.32L280.31,941.55L281.47,942.38L280.78,935.45L282.13,935.07L286.88,942.95L288.26,940.71L290.9,941.53L289.95,947.1Z" fill-rule="evenodd" fill="#4682b4" fill-opacity="0.471"/>
<polyline points="289.95,947.1 290.89,949.62 288.66,955.28 286.71,953.03 287.3,951.39 286.31,953.44 288.65,956.68 283.27,954.18 283.43,955.42 281.76,954.85 280.82,953.82 281.62,953.45 281.59,951.68 280.4,952.2 279.53,951.08 280.17,952.26 281.61,951.95 280.7,953.94 281.73,954.99 288.72,957.26 287.72,962.85 283.84,963.87 274.47,951.77 269.41,941.35 268.84,942.16 269.76,939.17 269.98,941.96 272.3,945.51 270.28,939.88 272.44,937.09 271.6,939.57 272.58,940.53 273.5,936.57 270.82,931.38 270.9,925.19 268.88,930.5 269.51,933.21 268.75,931.27 271.94,922.33 277.18,922.5 280.8,925.08 280.39,927.21 278.85,927.24 278.57,924.9 278.41,926.06 278.86,927.3 280.19,927.3 278.94,929.69 281.67,934.38 280.56,935.32 280.31,941.55 281.47,942.38 280.78,935.45 282.13,935.07 286.88,942.95 288.26,940.71 290.9,941.53 289.95,947.1" fill="none" stroke="#1e1e1e" stroke-width="1.53" stroke-linecap="round" stroke-linejoin="round"/>
</svg>
