<?xml version="1.0" encoding="UTF-8" standalone="no"?>
<svg xmlns="http://www.w3.org/2000/svg" width="1562" height="2000" viewBox="0 0 1562 2000">
<rect width="1562" height="2000" fill="#ffffff"/>
<path d="M54.69,150.12L57.54,147.2L59.49,152.23L73.42,149.59L72.46,146.58L72.83,145.59L74.53,147.13L77.3,147.2L81.18,144.3L86.88,137.97L106.17,142.91L115.24,140.14L117.57,144.18L122.41,144.79L118.87,133.25L121.79,126.84L126.33,124.95L131.2,124.07L138.83,123.74L144.68,125.37L147.46,124.93L143.02,106.9L156.95,87.28L160.03,88.34L166.94,88.99L171.12,103.53L170.7,107.01L171.34,109.51L177.57,109.64L177.55,110.64L191.03,111.42L189.35,108.89L191.44,108.44L200.78,108.63L202.12,110.65L218.75,109.99L222.81,114.55L224.92,112.6L217.89,101L246.59,83.13L251.97,91.2L257.21,88.31L264.16,86.44L267.01,82.01L272.29,76.62L282.45,68.83L282.52,65.35L281.53,62.34L283.97,61.39L287.12,58.95L287.84,57.47L289.2,58.49L297.21,54.64L303.51,49.76L297.06,43.18L297.43,41.69L295.06,39.16L300.32,34.27L303.74,36.32L315.27,27.54L314.94,26.54L316.34,25.57L315.34,23.56L318.14,21.11L340.13,26.44L350.64,16.14L353.35,19.17L357.8,21.23L359.18,21.25L358.85,20.25L363.04,17.33L369.85,23.4L369.82,25.4L372.89,27.43L375.32,26.47L377.71,28.5L380.05,33.51L383.45,37.55L388.25,39.61L391.02,39.15L395.12,42.19L396.84,42.21L397.86,43.72L404.02,47.79L413.08,41.43L416.59,37L423.15,36.58L431.83,32.21L437.72,30.28L444.69,24.39L472.64,24.21L475.03,26.23L477.66,38.21L479.71,40.23L485.94,38.8L488.35,39.32L489.03,40.32L500.23,24.5L502.98,25.02L503.66,26.52L502.96,27.01L503.27,30.5L503.95,31.51L514.23,39.58L514.22,41.07L517.67,40.61L529.11,34.73L529.82,33.24L538.72,41.29L539.37,45.78L546.25,48.83L547.26,51.33L552.47,48.38L553.83,50.38L553.12,53.37L553.8,54.87L554.83,55.37L557.98,50.42L557.6,54.4L560.7,54.92L563.13,53.94L564.5,54.95L562.77,55.43L561.72,56.92L558.96,57.4L558.25,58.89L560.97,64.39L570.95,69.94L572.98,75.44L574.36,76.44L573.66,77.43L586.01,89.98L584.98,89.97L583.57,92.95L590.03,110.43L587.94,111.41L588.28,113.4L586.55,113.39L606.16,130.95L621.06,128.55L633.13,137.08L639.61,158.03L644.42,167.52L656.22,163.59L654.85,160.6L662.83,158.64L666.24,171.1L664.85,171.6L666.9,179.08L671.76,177.6L673.13,182.59L677.64,181.61L694.59,199.09L691.09,207.55L693.51,211.04L695.23,216.53L701.83,215.05L706.3,230.01L704.91,230.5L705.6,233.49L706.99,233L708.02,237.98L712.19,237.99L712.88,238.99L715.32,237L719.15,235.52L733.74,236.04L736.89,220.61L750.78,226.1L748.33,239.05L745.55,239.55L743.46,244.52L743.43,263.45L741.34,269.92L743.77,272.41L742.72,277.39L744.45,284.86L738.87,290.83L735.37,302.28L730.84,307.25L732.9,322.2L741.27,319.72L747.53,329.19L746.83,330.19L750.66,337.16L749.61,338.16L754.14,345.13L752.4,346.13L745.06,355.58L731.79,363.03L734.57,368.01L732.47,369.01L732.47,372.99L754.11,373.02L763.89,380L765.63,380.5L767.38,382.99L767.38,384.98L770.17,385.48L769.82,387.97L770.52,389.96L768.07,390.46L768.77,393.45L765.63,394.94L765.27,396.93L769.12,399.92L777.85,404.4L784.84,404.4L785.89,409.38L787.29,410.38L787.29,411.87L788.34,411.87L790.09,416.35L787.99,416.85L788.34,419.34L792.54,419.84L792.89,420.83L794.64,420.34L795.69,425.31L798.84,429.3L804.79,432.78L812.15,441.73L815.65,442.23L818.46,450.19L834.91,446.68L833.87,454.65L837.38,455.64L840.87,453.64L846.15,464.58L851.05,462.08L862.95,460.06L866.44,456.56L865.04,454.57L869.22,450.08L870.63,452.57L874.13,450.07L875.18,451.56L875.88,451.06L876.93,452.05L875.89,453.05L876.94,454.54L875.89,455.54L875.9,458.52L877.31,460.51L879.44,468.97L885.77,474.92L883.68,479.41L889.32,486.86L891.07,485.86L900.9,490.8L908.65,497.24L915.28,490.73L919.49,492.71L924.76,493.18L925.1,492.18L926.85,492.17L926.51,494.17L931.77,494.14L931.43,495.63L933.19,496.12L938.82,501.07L942.32,499.06L951.46,502.49L953.88,497.5L956.71,499.97L957.06,501.46L962.7,504.42L966.59,510.37L982.07,515.74L985.64,525.18L987.75,525.16L990.57,526.63L993.37,526.12L998.38,538.03L997.71,542.52L989.31,547.06L986.87,549.57L983.01,549.59L980.91,551.1L979.54,556.09L978.49,556.6L977.8,559.09L982.05,564.04L982.42,566.03L979.62,568.54L979.28,570.03L974.4,575.54L973.36,579.04L970.22,582.54L973.1,591.49L962.2,594.05L961.16,595.55L960.79,593.56L955.17,594.09L952.37,597.09L950.27,598.1L949.56,597.11L947.1,598.12L944.63,597.64L942.88,599.14L941.47,599.15L939.38,601.65L945.4,608.09L946.1,607.59L948.92,609.06L947.52,610.57L949.65,612.54L956,615.49L955.65,616.49L958.83,617.97L956.04,621.97L967.02,630.86L969.83,630.34L978.3,632.28L991.74,639.16L995.99,642.11L997.39,640.61L1002.69,643.06L1005.54,646.02L1005.19,647.02L1007.68,649.99L1006.64,651.49L1009.86,658.44L1010.28,666.4L1000.43,669.96L996.55,669.99L993.03,671.01L991.63,673.01L986.71,675.54L984.59,675.55L984.25,676.55L981.77,675.57L981.43,677.07L980.72,677.07L978.59,675.6L977.19,676.1L977.2,677.6L976.14,677.6L972.94,674.14L971.19,676.14L970.47,674.16L969.76,674.16L969.43,677.65L967.67,677.66L966.25,675.68L965.19,676.18L961.3,675.21L958.49,676.22L958.14,677.22L956.37,676.73L956.03,678.23L953.55,677.25L952.85,678.25L949.66,676.28L948.27,678.77L944.03,677.8L941.92,679.31L941.58,681.8L940.18,683.3L939.13,686.29L939.84,687.29L939.15,688.78L939.51,689.78L940.56,689.27L940.57,691.26L938.8,690.28L937.39,690.78L938.11,692.77L939.87,692.76L938.48,695.26L940.95,695.25L941.31,696.74L938.49,697.75L939.21,699.74L947.35,702.68L951.33,719.58L952.4,721.07L954.17,722.55L958.78,724.02L977.15,722.41L985.99,723.84L1002.96,724.21L1008.98,725.66L1022.82,732.52L1028.57,743.42L1029.71,752.38L1029.49,768.31L1033.1,776.25L1037.02,779.2L1040.22,780.17L1052.22,776.07L1057.9,777.51L1067.51,782.9L1073.89,782.83L1083.77,779.25L1088.72,778.7L1095.47,780.12L1101.52,783.54L1104.36,783.51L1111.06,781.44L1153.34,791.39L1162.55,791.27L1165.4,792.72L1168.37,802.64L1175.93,811L1176.66,812.99L1176.4,819.46L1179.42,833.36L1193.43,845.62L1195.73,857.04L1212.6,869.24L1217.95,870.65L1230,868.98L1234.56,864.92L1237.6,854.92L1241.73,846.88L1246.84,833.36L1253.02,820.31L1260.66,810.73L1263.7,801.22L1264.64,794.23L1273.05,788.11L1273.99,781.13L1275.34,777.12L1277.42,774.6L1280.92,772.05L1303.15,767.67L1306.31,766.12L1308.74,763.59L1315.64,753.5L1318.78,751.45L1330.77,748.74L1336.12,751.13L1346.63,763.87L1352.38,768.24L1362.86,778.99L1365.74,780.92L1369.38,785.83L1380.53,794.07L1384.84,796.47L1390.89,797.83L1401.83,795.61L1405.74,796.03L1411.16,800.89L1416.88,802.76L1431,815.89L1436.47,822.74L1439.11,829.65L1438.85,833.64L1437.82,835.16L1419.22,845.03L1416.04,845.6L1409.96,843.74L1392.63,830.17L1384.07,827.85L1376.65,829.5L1371.74,832.59L1368.32,838.63L1366.53,855.6L1363.8,861.13L1359.98,865.69L1352.21,867.84L1334.03,865.2L1330.55,868.75L1331.04,876.21L1334.41,885.11L1345.26,894.36L1347.08,896.82L1346.07,899.82L1348.15,915.22L1352.99,926.08L1355.3,935L1356.4,936.47L1363.65,942.8L1368.07,950.18L1370.24,951.63L1389.25,957.72L1398.87,957.51L1408.94,961.78L1411.5,964.71L1413.77,970.64L1413.57,978.12L1409.53,989.16L1409.64,994.13L1410.38,995.61L1407.93,997.66L1406.49,997.19L1403.02,1001.75L1400.47,999.31L1399.77,1000.32L1400.86,1001.29L1400.58,1004.78L1398.85,1007.31L1397.43,1007.84L1397.45,1008.83L1398.89,1009.3L1399.64,1010.78L1398.95,1012.29L1397.18,1012.82L1396.08,1011.35L1394.67,1012.38L1396.85,1014.32L1396.91,1016.81L1394.05,1016.87L1394.43,1017.86L1393.01,1018.39L1392.27,1016.91L1390.17,1018.95L1390.62,1023.42L1392.39,1022.88L1392.78,1024.37L1394.57,1024.83L1394.33,1030.31L1392.5,1028.36L1391.09,1028.89L1391.47,1030.37L1388.67,1050.35L1390.9,1054.29L1392.34,1054.75L1392.49,1062.22L1390.75,1064.25L1394.39,1067.16L1392.29,1069.69L1393.06,1072.17L1380.9,1072.42L1379.12,1072.95L1378.84,1076.94L1371.29,1075.1L1369.19,1077.14L1361.34,1078.79L1361.02,1080.29L1365.01,1083.2L1363.62,1085.22L1365.45,1087.17L1364.1,1091.18L1361.6,1091.73L1361.28,1093.73L1353.08,1095.38L1348.42,1095.47L1344.83,1094.54L1338.79,1097.15L1329.46,1096.33L1329.17,1099.82L1325.24,1100.39L1322.4,1101.94L1319.54,1101.99L1317.77,1103.02L1318.88,1104.99L1317.83,1106.5L1320.74,1108.94L1318.26,1110.48L1318.31,1112.97L1317.61,1113.98L1319.06,1114.94L1318.75,1117.44L1319.49,1118.92L1318.93,1127.4L1317.2,1130.91L1318.35,1134.88L1310.94,1141.48L1313.23,1149.41L1311.93,1156.9L1311.73,1165.37L1308.08,1182.37L1303.95,1192.4L1302.52,1192.92L1301.48,1194.93L1300.85,1199.92L1301.95,1200.9L1303.1,1205.36L1304.94,1207.82L1305.71,1210.79L1307.18,1212.26L1308.35,1217.22L1314.96,1225.07L1317.49,1225.52L1316.43,1227.03L1316.12,1229.53L1316.6,1235.99L1314.86,1239.51L1317.79,1242.44L1317.83,1244.43L1318.94,1245.91L1318.61,1247.9L1319.74,1250.37L1319.45,1254.36L1320.21,1256.34L1325.35,1262.22L1324.66,1263.73L1328.31,1266.15L1331.93,1267.08L1334.16,1271.02L1334.51,1270.52L1339.27,1274.41L1343.25,1275.33L1345.4,1274.79L1347.62,1277.74L1348.41,1281.21L1349.5,1281.69L1350.98,1284.15L1350.67,1286.64L1347.51,1290.69L1349.74,1294.63L1352.08,1303.55L1349.64,1308.08L1350.39,1309.56L1353.31,1311.49L1351.28,1318L1350.21,1319.02L1351.06,1325.48L1352.58,1329.43L1355.89,1332.85L1355.98,1337.33L1355.29,1338.84L1356.77,1340.81L1356.43,1341.81L1357.58,1345.27L1360.16,1348.21L1360.95,1351.68L1363.9,1354.61L1364.01,1360.09L1367.33,1363.51L1367.77,1367.48L1374.72,1371.82L1383.01,1370.66L1384.15,1373.13L1387.1,1376.06L1388.67,1382L1391.25,1384.44L1400.37,1388.23L1402.54,1388.19L1406.1,1385.62L1414.12,1388.94L1414.19,1391.93L1416.44,1395.86L1416.54,1400.34L1421.34,1404.72L1430.74,1404.52L1436.87,1403.39L1440.18,1405.8L1440.2,1406.8L1444.92,1407.19L1448.98,1411.08L1453.37,1412.98L1454.24,1419.43L1460.12,1423.28L1461.99,1425.73L1463.15,1429.19L1466.47,1431.6L1470.1,1432.02L1475.63,1435.87L1476.9,1443.81L1479.9,1448.23L1479.56,1449.23L1482.16,1451.66L1481.2,1457.16L1481.97,1459.13L1483.44,1460.1L1483.48,1461.59L1488.96,1463.45L1489.37,1465.43L1491.21,1466.39L1492.09,1472.84L1493.56,1473.8L1494.33,1475.77L1496.54,1477.22L1496.97,1479.7L1498.47,1481.65L1501.43,1484.07L1501.48,1486.06L1505.9,1488.94L1510.28,1489.83L1511.79,1492.29L1512.88,1492.26L1513.64,1493.74L1515.84,1494.68L1518.09,1497.61L1522.76,1495.5L1531.14,1496.79L1532.26,1497.75L1533.33,1497.23L1538.53,1501.58L1540.73,1502.52L1541.8,1502L1541.89,1505.48L1540.12,1507.02L1535.24,1515.11L1538.98,1519.5L1537.99,1523.51L1538.86,1528.97L1537.53,1533.98L1535.43,1537.02L1534.49,1543.02L1528.42,1547.66L1526.3,1550.2L1525.21,1550.23L1523.82,1552.76L1520.56,1553.34L1516.25,1555.43L1511.61,1559.03L1508.26,1571.07L1504.72,1575.14L1504.5,1581.12L1491.94,1588.9L1487.04,1596.98L1484.54,1599.03L1463.65,1609.48L1464.44,1612.45L1463.77,1614.96L1464.53,1616.43L1463.46,1617.45L1463.92,1621.43L1462.84,1621.95L1463.61,1623.93L1458.54,1625.54L1460.49,1630.97L1459.78,1631.98L1462.74,1633.91L1460.7,1640.43L1460,1641.44L1458.53,1640.98L1455.69,1644.53L1456.46,1646.5L1455.07,1649.52L1453.27,1650.56L1453.68,1652.54L1450.5,1657.1L1447.96,1657.65L1444.99,1655.72L1441.75,1657.79L1439.18,1656.85L1435.98,1660.9L1434.83,1658.44L1432.64,1658.49L1432.7,1660.98L1427.3,1664.58L1427.71,1666.56L1426.28,1668.09L1424.79,1666.63L1425.12,1665.12L1423.97,1662.66L1422.14,1662.2L1419.9,1659.76L1416.97,1659.32L1412.28,1661.91L1404.43,1653.11L1398.64,1655.22L1397.52,1654.25L1396.06,1654.28L1393.55,1656.32L1391.7,1655.36L1390.34,1659.87L1388.55,1661.9L1387.53,1665.41L1389.08,1669.86L1383.15,1665.5L1381.7,1666.03L1379.84,1664.07L1373.93,1660.7L1371.07,1663.75L1368.88,1663.79L1366.76,1667.32L1367.92,1670.78L1367.24,1673.29L1364.02,1676.83L1362.2,1676.87L1358.97,1679.92L1357.88,1679.94L1357.18,1681.95L1352.51,1686.02L1350.7,1686.55L1348.85,1685.59L1343.44,1689.18L1340.16,1689.74L1339.46,1691.25L1340.24,1693.72L1340.34,1699.2L1343.3,1701.14L1343.36,1704.13L1345.57,1705.08L1346.7,1707.05L1347.55,1713.51L1353.5,1718.38L1354.29,1721.85L1357.69,1727.26L1360.63,1728.2L1362.12,1729.67L1362.9,1732.15L1361.53,1736.65L1361.6,1740.14L1357.59,1741.21L1356.19,1744.73L1354.04,1746.76L1352.3,1751.78L1353.05,1752.76L1352.72,1754.26L1350.92,1756.28L1348.73,1756.33L1347.65,1757.34L1348.43,1759.82L1351.74,1760.75L1354.36,1763.69L1352.63,1769.2L1348.33,1774.27L1349.46,1775.74L1349.13,1777.74L1346.59,1778.78L1351.76,1781.17L1350.74,1785.18L1348.19,1786.22L1348.64,1790.7L1345.81,1795.73L1345.21,1803.22L1342.35,1807.25L1341.69,1811.25L1342.46,1812.73L1341.41,1815.74L1342.57,1818.71L1346.23,1818.14L1353.61,1820.49L1355.88,1824.43L1359.96,1826.35L1364.88,1834.22L1366.73,1834.69L1369.72,1837.62L1371.91,1837.08L1375.3,1841.49L1382.03,1847.34L1383.61,1852.79L1384.72,1853.26L1386.65,1858.21L1385.28,1863.21L1384.2,1864.23L1384.6,1865.72L1382.81,1868.25L1381.35,1868.77L1381.4,1871.26L1380.35,1873.77L1381.5,1876.24L1380.43,1877.76L1380.85,1880.24L1379.05,1882.27L1378.37,1885.27L1378.47,1890.25L1375.2,1892.31L1374.14,1894.32L1373.18,1901.81L1371.74,1903.34L1368.78,1902.4L1363.63,1902.5L1359.98,1904.06L1357.77,1904.11L1358.94,1907.57L1359.01,1911.06L1354.63,1913.13L1354.68,1915.62L1351.09,1920.67L1352.72,1928.61L1349.16,1935.16L1348.05,1935.18L1341.51,1939.78L1338.85,1935.35L1335.19,1936.91L1332.96,1935.46L1331.12,1935.49L1329.7,1938.51L1325.29,1939.08L1324.57,1940.09L1321.62,1939.65L1317.22,1941.22L1315.1,1946.24L1312.87,1944.78L1312.09,1942.81L1310.25,1942.84L1309.87,1941.85L1306.9,1940.9L1306.54,1941.41L1304.68,1939.95L1300.9,1934.53L1298.72,1936.06L1297.23,1935.09L1297.21,1934.1L1289.73,1927.25L1289.34,1926.26L1290.73,1921.25L1291.82,1920.24L1291.79,1918.25L1290.26,1915.28L1289.55,1916.29L1288.07,1916.32L1285.89,1917.85L1283.73,1920.87L1281.91,1921.9L1279.65,1918.95L1277.81,1918.98L1275.28,1921.51L1274.27,1927.5L1272.44,1928.03L1271.31,1926.56L1269.49,1927.58L1269.5,1928.58L1270.61,1928.56L1270.99,1929.55L1270.65,1931.05L1267.02,1934.6L1264.08,1935.14L1262.95,1933.17L1260.75,1934.2L1258.18,1934.24L1256.31,1932.77L1254.84,1932.8L1249.37,1936.37L1249.43,1940.35L1248.71,1941.36L1246.51,1941.89L1244,1946.42L1236.2,1942.05L1234.06,1946.57L1231.52,1949.59L1227.81,1947.65L1226.31,1945.68L1223.4,1948.22L1221.19,1948.25L1219.38,1950.77L1218.63,1949.78L1213.51,1952.35L1209.82,1951.9L1206.9,1953.93L1205.79,1953.45L1205.4,1951.96L1203.55,1951.49L1201.31,1949.53L1199.11,1950.06L1197.64,1950.58L1194.38,1954.61L1191.41,1953.15L1189.16,1949.7L1185.45,1948.25L1185.06,1946.26L1181.35,1944.32L1180.22,1942.84L1172.82,1939.95L1172.44,1938.96L1168.36,1936.52L1166.85,1934.05L1165.01,1934.07L1162.41,1932.11L1157.65,1934.66L1158.04,1936.15L1156.64,1942.15L1156.36,1949.12L1154.17,1951.14L1148.29,1952.21L1145.73,1953.74L1142.79,1953.77L1140.91,1950.81L1140.14,1947.83L1137.56,1948.35L1137.21,1949.36L1136.1,1948.87L1135.74,1950.37L1134.26,1949.39L1133.11,1945.92L1129.76,1942.97L1127.92,1942.49L1127.91,1941.49L1124.96,1941.53L1121.31,1944.06L1122.09,1948.53L1117.35,1953.07L1118.47,1954.05L1117.74,1955.06L1112.62,1958.1L1107.07,1955.67L1105.29,1962.17L1104.19,1962.18L1103.84,1964.18L1100.94,1968.69L1099.84,1969.2L1100.96,1970.18L1099.5,1972.19L1097.29,1972.22L1096.21,1974.72L1093.28,1976.24L1090.68,1974.28L1084.78,1974.34L1082.92,1972.86L1082.2,1974.36L1081.09,1974.37L1081.47,1975.86L1080,1976.38L1078.55,1978.38L1078.58,1981.37L1076.76,1984.38L1074.2,1986.4L1073.1,1986.41L1073.11,1987.9L1072.01,1988.41L1070.16,1988.43L1069.03,1985.45L1067.18,1984.97L1066.8,1983.98L1061.64,1984.02L1058.68,1983.06L1058.67,1982.06L1056.45,1980.59L1055.72,1981.59L1053.86,1980.61L1042.79,1979.21L1039.82,1976.75L1037.25,1978.26L1036.87,1977.27L1032.81,1976.81L1030.58,1973.84L1031.3,1971.84L1030.91,1969.85L1029.43,1969.36L1028.3,1965.39L1029.02,1963.88L1021.59,1956.47L1022.28,1950.49L1020.42,1948.01L1017.48,1949.03L1016.74,1948.54L1016.01,1950.04L1014.54,1950.05L1013.44,1951.06L1012.7,1950.07L1013.78,1946.57L1010.07,1943.11L1008.96,1943.12L1008.59,1942.13L1009.67,1939.13L1009.27,1934.65L1012.88,1926.15L1011.75,1922.18L1013.22,1921.67L1013.21,1920.67L1014.67,1919.17L1019.13,1924.61L1019.85,1922.61L1021.69,1922.1L1023.16,1922.59L1023.17,1923.58L1024.28,1924.07L1025.01,1923.07L1026.12,1924.06L1029.41,1922.04L1040.81,1919.95L1044.83,1917.42L1052.04,1900.92L1050.93,1899.94L1050.91,1897.94L1048.66,1892.98L1048.64,1890.49L1046.41,1888.02L1046.39,1885.53L1043.79,1882.07L1043.03,1879.58L1049.94,1871.05L1051.04,1871.04L1052.49,1869.04L1055.42,1867.52L1056.5,1865.52L1055.75,1863.53L1060.52,1862.99L1059.38,1859.01L1064.12,1855.48L1067.78,1854.45L1068.87,1852.95L1067.75,1850.97L1068.09,1847.97L1069.92,1847.46L1073.61,1848.92L1074.69,1846.92L1073.93,1844.43L1072.08,1843.45L1071.33,1841.47L1070.23,1840.98L1070.2,1837.99L1069.45,1837L1071.63,1834.49L1071.62,1833L1073.43,1830.49L1081.15,1831.91L1085.89,1828.87L1088.42,1825.86L1088.4,1823.87L1087.3,1823.38L1088.37,1820.38L1088.31,1814.9L1085.33,1809.95L1084.55,1804.98L1085.99,1802.97L1087.1,1803.46L1087.44,1800.96L1089.28,1801.94L1089.25,1798.95L1091.42,1795.94L1091.4,1794.45L1090.29,1793.46L1090.26,1790.48L1091.71,1788.97L1091.69,1786.98L1094.26,1787.45L1095.37,1788.43L1097.91,1786.41L1099.35,1783.91L1099.33,1781.91L1100.8,1781.9L1102.97,1779.88L1102.22,1777.4L1099.98,1773.94L1097.03,1771.98L1096.62,1767.5L1095.87,1766.01L1092.55,1764.06L1090.67,1759.09L1089.56,1758.11L1089.17,1755.13L1086.98,1755.65L1084.07,1758.17L1079.32,1758.21L1078.6,1759.71L1076.41,1760.73L1073.12,1760.76L1072.01,1759.78L1066.89,1760.33L1063.61,1761.85L1061.44,1764.86L1062.2,1767.84L1059.66,1769.86L1055.28,1771.39L1051.57,1766.44L1051.54,1763.46L1045.25,1756.04L1044.53,1757.54L1041.98,1758.56L1040.87,1757.57L1039.78,1758.08L1036.84,1757.11L1035.36,1755.13L1033.16,1754.15L1030.6,1754.67L1030.22,1752.68L1031.67,1751.18L1030.51,1743.22L1028.67,1742.24L1026.49,1743.75L1025.37,1741.77L1022.82,1742.29L1019.87,1739.82L1019.12,1737.33L1018.02,1737.34L1016.22,1740.84L1012.21,1742.37L1011.49,1744.37L1007.83,1743.9L1003.05,1741.44L1001.59,1741.45L1000.85,1740.46L997.56,1739.99L996.08,1738.5L996.07,1737.51L991.31,1735.55L989.09,1733.07L987.63,1733.58L984.74,1738.58L979.23,1734.14L977.75,1731.66L975.56,1733.17L975.19,1732.17L971.9,1732.69L970.08,1733.7L967.89,1733.71L966.79,1734.72L965.69,1733.73L963.14,1735.24L959.48,1734.26L957.99,1730.78L957.98,1727.8L959.07,1727.29L958.7,1726.3L961.24,1723.29L962.7,1723.29L964.14,1718.79L963.03,1716.81L963.75,1715.31L963,1712.83L964.83,1711.82L964.45,1710.82L962.62,1710.34L963.68,1704.36L965.14,1703.35L968.43,1703.83L968.41,1701.34L966.57,1697.86L966.18,1693.88L966.53,1692.39L968.71,1690.38L968.3,1683.41L969.76,1682.9L970.12,1681.9L973.4,1680.89L972.65,1677.41L972.99,1674.42L972.25,1672.93L972.6,1670.44L964.93,1668.99L964.2,1669.99L960.55,1669.51L957.64,1671.02L958.38,1672.51L957.29,1673.52L954.37,1673.53L952.53,1671.55L952.53,1670.56L948.88,1670.08L947.06,1671.58L943.75,1667.62L942.29,1667.63L941.56,1666.63L941.91,1663.15L939.34,1661.17L939.69,1658.68L938.59,1657.19L937.86,1656.69L936.4,1657.7L934.57,1655.71L928.74,1656.24L924.71,1654.27L922.9,1656.27L920.34,1655.29L916.71,1659.29L913.8,1659.8L912.69,1658.31L912.3,1652.33L910.47,1650.85L907.9,1645.88L905.7,1643.9L905.33,1641.41L903.14,1640.42L903.13,1638.43L899.08,1629.48L901.6,1622L901.23,1620.01L902.68,1617.02L900.47,1612.55L900.81,1604.58L899.71,1602.59L898.25,1602.59L897.51,1600.11L896.05,1598.62L896.04,1597.13L894.59,1597.63L888.75,1595.16L885.48,1596.67L883.67,1599.66L884.05,1603.64L878.96,1606.65L876.05,1607.16L876.41,1605.66L875.68,1605.16L875.68,1603.67L873.12,1600.19L874.56,1597.2L874.92,1594.21L874.19,1593.22L870.55,1592.73L870.54,1590.74L869.07,1587.26L869.79,1584.77L869.06,1582.28L869.41,1577.3L868.31,1573.82L866.85,1573.32L867.21,1571.83L865.75,1570.84L866.11,1569.34L864.28,1566.36L868.27,1562.36L864.98,1554.9L864.97,1552.91L863.51,1550.92L859.52,1552.43L856.25,1552.44L853.7,1549.46L851.88,1548.96L850.78,1544.98L848.59,1542.99L847.13,1540.01L843.51,1544.5L843.88,1548.98L842.79,1550.48L838.43,1551.48L838.07,1552.97L833.35,1554.48L831.89,1551.99L827.16,1548.01L824.25,1543.54L820.61,1542.55L819.88,1541.05L815.88,1540.56L813.7,1539.07L809.71,1540.57L806.44,1540.07L803.53,1542.56L803.53,1545.55L799.53,1545.06L795.54,1543.07L794.08,1541.08L793.72,1541.57L790.81,1540.58L788.99,1535.6L786.81,1534.11L781.73,1533.61L778.46,1530.12L775.19,1530.12L770.47,1524.15L767.2,1525.64L765.02,1525.64L765.02,1524.64L762.12,1520.66L756.31,1521.15L753.4,1518.16L754.5,1516.17L761.76,1513.69L759.58,1510.7L757.41,1509.2L756.68,1506.71L757.41,1504.72L759.59,1505.72L765.03,1504.23L765.39,1505.22L770.84,1505.23L771.93,1506.22L774.1,1506.22L770.48,1502.74L770.11,1496.76L769.39,1496.76L769.03,1494.77L767.21,1492.28L762.5,1487.79L759.97,1482.81L754.53,1479.82L753.8,1477.33L751.99,1477.33L751.27,1475.34L742.57,1474.33L741.12,1474.83L740.39,1477.32L738.21,1478.31L738.2,1483.29L738.93,1485.28L737.84,1486.27L736.03,1485.28L734.21,1485.77L733.12,1487.26L732.4,1485.77L731.31,1485.77L729.86,1484.27L726.96,1486.26L721.88,1485.75L714.99,1483.74L711.35,1489.21L710.99,1491.2L708.81,1492.19L708.44,1494.68L704.44,1495.67L703.71,1497.16L700.81,1498.65L700.44,1501.63L696.44,1503.61L688.82,1503.59L687.37,1502.59L683.37,1504.57L681.19,1504.56L680.47,1503.07L675.38,1505.54L672.12,1505.53L668.5,1502.53L665.95,1505.5L671.73,1512L673.52,1517.98L671.34,1519.47L672.42,1522.96L674.59,1522.96L678.94,1525.97L683.66,1526.98L685.11,1528.48L687.29,1528.98L688.01,1530.48L689.82,1530.98L689.09,1532.47L690.9,1535.47L689.44,1537.45L689.44,1538.95L694.88,1541.95L695.23,1544.44L699.23,1546.44L702.48,1554.42L702.47,1555.91L700.65,1557.4L702.46,1560.89L702.09,1563.88L700.26,1566.86L697.35,1568.85L694.07,1569.83L691.89,1570.32L691.16,1569.33L688.97,1571.81L691.14,1575.3L693.33,1575.31L694.04,1580.79L692.21,1583.77L693.66,1584.27L694.39,1585.77L694.38,1589.25L691.46,1591.24L688.55,1590.73L687.09,1591.72L686.71,1597.2L683.07,1597.19L682.7,1599.18L681.6,1600.17L683.04,1604.66L678.31,1603.64L677.94,1605.14L674.3,1606.62L673.57,1605.62L675.05,1599.65L664.86,1599.61L664.49,1600.61L661.21,1601.59L660.48,1602.08L661.56,1603.58L661.18,1607.07L658.27,1608.05L657.17,1609.54L655.69,1614.51L656.41,1615.51L654.58,1617.99L652.76,1617.99L651.3,1619.97L652.38,1622.47L649.08,1626.93L646.17,1624.93L644.74,1619.94L642.19,1619.93L637.44,1622.9L636.7,1624.89L634.51,1625.87L631.94,1629.34L630.47,1631.83L630.45,1634.81L626.77,1641.27L626.76,1643.26L631.84,1648.76L634,1654.75L638.73,1658.26L639.08,1660.75L644.54,1662.77L645.26,1665.26L636.85,1668.21L630.26,1672.66L626.61,1673.14L623.3,1677.11L617.44,1681.06L608.99,1690.47L606.8,1689.96L600.63,1683.95L596.25,1683.43L594.42,1684.91L590.76,1685.88L588.94,1685.37L581.96,1690.8L578.68,1690.78L577.24,1687.78L577.61,1686.29L576.17,1683.79L575.83,1680.31L576.56,1679.81L575.12,1676.32L575.14,1674.32L574.05,1672.82L574.06,1671.33L575.54,1668.85L575.22,1662.87L577.07,1658.9L575.66,1651.92L573.47,1651.9L572,1652.89L569.47,1649.88L568.37,1650.87L567.65,1649.37L562.56,1647.84L562.57,1645.35L558.19,1645.82L554.57,1642.8L553.47,1643.29L552.76,1640.8L550.94,1640.28L550.95,1639.29L547.66,1640.26L541.49,1636.72L535.67,1635.68L534.59,1634.18L533.13,1634.17L533.14,1633.17L531.32,1632.66L529.16,1629.15L525.17,1626.63L523.34,1627.61L520.79,1627.59L511.38,1620.04L508.47,1620.01L507.02,1618.5L504.84,1618.48L504.53,1612L503.08,1611.49L499.76,1616.44L499.37,1618.93L497.52,1621.9L494.96,1622.87L493.85,1624.85L490.24,1620.83L486.97,1619.81L484.78,1620.78L483.7,1618.78L482.25,1618.26L481.21,1613.27L480.13,1611.77L478.68,1610.76L474.31,1610.71L471.06,1608.69L470.36,1605.2L469.29,1603.69L471.49,1602.22L469.31,1601.2L470.08,1597.22L467.55,1595.21L466.85,1592.71L460,1587.16L454.2,1584.61L446.97,1580.04L444.14,1573.04L441.27,1569.52L438.44,1562.52L439.17,1562.03L440.73,1553.08L439.3,1550.58L434.2,1552.01L432.72,1553.99L430.16,1555.45L427.24,1555.91L425.04,1557.88L422.13,1557.84L420.28,1560.31L419.52,1563.29L416.28,1560.26L414.51,1556.26L409.41,1557.19L408.71,1555.19L407.27,1554.18L408.01,1553.19L405.86,1550.67L402.6,1549.14L399.67,1551.09L399.65,1552.59L396.35,1554.54L395.98,1555.53L394.16,1555.5L391.94,1558.46L389.77,1557.44L390.89,1555.46L389.84,1551.96L392.42,1549.51L391.35,1548L387.01,1546.45L381.9,1547.87L380.46,1546.86L380.48,1544.87L375.05,1543.8L373.25,1542.28L372.92,1539.78L370.05,1537.25L370.43,1536.26L369.35,1535.25L370.81,1534.77L371.19,1533.29L370.48,1532.28L370.19,1526.8L369.84,1525.8L368.4,1525.28L366.99,1522.27L362.24,1523.7L361.86,1525.19L356.77,1525.61L355.71,1523.11L354.28,1522.09L354.31,1519.6L352.5,1519.08L346.32,1519.99L343.05,1519.44L336.5,1520.84L334.73,1517.82L334.75,1516.33L331.9,1512.8L329.01,1511.76L324.65,1511.69L320.68,1510.14L319.31,1504.64L319.34,1502.65L320.46,1501.17L316.88,1497.63L316.19,1495.13L312.63,1491.09L312.65,1489.6L305.43,1487.49L301.12,1484.93L297.49,1484.87L293.52,1483.31L292.07,1483.79L285.94,1481.2L285.33,1474.22L283.9,1473.2L282.15,1469.18L280.71,1468.66L279.68,1465.16L279.72,1462.67L283.87,1453.28L283.19,1450.28L281.74,1450.25L280.36,1446.25L278.22,1444.22L276.77,1444.69L265.24,1441.01L263.85,1437.5L256.35,1431.39L257.13,1427.92L256.07,1426.9L256.82,1424.92L255.08,1421.41L252.92,1420.37L252.38,1410.4L249.16,1408.35L248.42,1408.84L245.19,1407.29L244.45,1408.27L241.94,1407.23L239.4,1407.68L232.61,1403.07L230.51,1399.05L228.73,1397.52L222.59,1396.91L220.76,1397.87L216.82,1395.81L211.24,1385.24L206.95,1382.67L201.88,1383.07L199.03,1381.02L195.06,1380.45L193.29,1378.42L192.92,1378.91L190.81,1375.88L184.02,1372.26L182.57,1372.23L181.19,1369.21L171.59,1361.55L173.08,1359.09L172.05,1356.58L173.16,1355.11L172.17,1350.6L173.69,1347.15L172.4,1339.65L173.14,1338.67L182.17,1338.36L180.56,1328.86L181.3,1327.88L181.38,1323.9L182.87,1321.44L182.18,1319.93L182.91,1319.45L183.73,1314.98L183.01,1314.47L183.41,1312.98L182.72,1310.98L181.31,1309.46L181.7,1307.97L181.01,1306.46L187.1,1308.58L188.23,1306.11L190.79,1304.67L196.53,1305.78L197.29,1303.8L201.89,1308.37L207.64,1309.48L211.64,1308.06L213.77,1309.6L221.51,1300.78L222.95,1300.81L222.97,1299.81L225.52,1298.37L226.19,1301.37L230.12,1303.43L231.11,1308.43L232.18,1308.95L234.72,1308L237.21,1310.04L236.43,1313.01L232.05,1315.92L233.83,1316.95L236.4,1315L238.19,1315.53L237.4,1319L239.21,1319.04L244.3,1316.64L243.26,1314.63L247.96,1313.72L251.56,1314.28L253.02,1313.31L255.16,1314.84L263.42,1316.98L264.83,1318.5L265.92,1318.52L271.37,1316.12L276.14,1311.22L273.64,1309.69L271.55,1305.67L270.47,1305.65L269.73,1306.63L269.4,1304.63L272.43,1296.22L269.93,1295.18L268.97,1287.7L272.62,1285.27L273.29,1288.27L275.1,1287.8L275.8,1288.81L275.41,1290.8L276.85,1290.82L278.4,1284.37L277.35,1282.86L278.45,1281.39L282.43,1280.46L284.75,1271.04L283.69,1270.02L279.53,1259.99L280.27,1259.01L278.91,1254.5L280.39,1252.04L280.47,1247.56L278.32,1247.03L276.56,1244.51L273.35,1242.96L272.29,1241.45L266.96,1237.87L265.58,1234.36L265.63,1231.37L262.1,1227.82L261.47,1222.83L258.98,1221.29L257.93,1219.28L255.45,1217.25L249.36,1216.14L249.77,1213.16L245.94,1206.12L244.87,1206.1L244.12,1207.58L241.97,1207.54L240.56,1206.03L236.61,1205.45L235.63,1200.46L228.6,1191.86L228.26,1190.86L229.76,1187.4L226.2,1185.84L219.53,1177.75L216.75,1172.71L216.44,1170.22L212.59,1165.17L209.05,1162.61L208.36,1161.1L208.75,1159.61L206.66,1156.09L207.39,1155.6L203.53,1151.05L201.52,1144.04L199.78,1141.51L198,1140.48L198.04,1138.49L194.51,1135.93L192.11,1130.4L187.49,1128.32L186.45,1126.31L188.31,1123.36L187.3,1119.85L182.44,1112.28L181.12,1106.78L181.66,1097.83L184.19,1096.38L185.61,1096.91L187.38,1097.94L192.29,1103.52L200.12,1105.67L205.51,1105.27L212.23,1109.39L215.75,1112.94L224.68,1114.11L224.63,1116.6L226.39,1118.62L231,1121.2L232.74,1123.72L235.95,1124.78L238.84,1123.33L239.6,1121.36L241.05,1120.39L247.41,1125.48L251.7,1126.06L256.73,1125.15L271.02,1127.89L285.01,1127.63L286.09,1127.15L289.45,1119.24L294.89,1115.35L298.84,1114.42L299.93,1113.44L300.32,1111.95L298.61,1106.95L305.09,1104.56L307.6,1104.6L311.96,1100.69L316.62,1100.27L318.43,1099.3L320.26,1096.34L317.14,1089.82L317.54,1087.33L320.47,1082.9L320.86,1080.91L319.1,1079.39L316.56,1081.34L313.71,1080.8L312.77,1072.32L311.36,1070.81L307.79,1070.25L305.97,1072.21L306.19,1080.68L305.09,1082.65L303.65,1083.13L302.23,1082.11L301.19,1080.6L299.84,1075.1L297.76,1071.58L291.73,1068L281.05,1065.33L275.15,1054.77L274.55,1048.29L267.07,1046.66L266.38,1045.16L266.8,1041.18L270.45,1037.26L271.2,1034.78L270.88,1032.79L268.42,1030.75L265.19,1031.19L261.93,1034.12L259.34,1039.06L257.89,1040.03L253.29,1037.45L248.72,1033.39L245.36,1021.38L244.31,1020.36L240.75,1019.8L239,1017.77L233.7,1014.69L229.42,1014.61L227.65,1013.58L226.01,1006.08L227.88,1001.63L226.16,998.11L224.03,997.58L222.28,995.55L221.96,994.05L224.19,989.11L221.46,982.59L218.64,981.04L217.6,979.53L217.05,970.55L216,969.54L214.24,968.51L211.03,968.45L207.07,970.36L199.66,966.73L197.11,969.17L189.55,973L184.91,973.4L181.01,971.83L178.94,968.8L178.02,961.31L175.22,958.76L170.95,958.67L167.66,962.59L165.13,964.03L162.99,963.99L158.77,961.41L157.15,953.9L154.03,949.85L149.45,947.26L147.71,945.23L147.13,939.25L147.52,937.76L149.69,936.31L149.03,933.81L144.77,933.22L141.95,931.66L139.94,926.14L139.97,924.65L143.23,922.23L143.98,920.25L140.8,919.19L139,920.15L137.98,918.13L139.54,911.69L139.64,907.21L140.75,905.24L143.66,902.32L150.84,899.49L154.1,896.57L154.73,883.64L153.37,881.12L153.78,878.64L150.64,875.58L152.55,869.65L152.24,867.65L150.2,863.12L150.27,860.14L149.25,857.62L146.5,853.58L148.48,844.16L153.88,840.79L156.69,842.35L158.13,841.38L158.81,842.39L161.64,842.95L163.8,841.5L167.14,834.6L170.77,831.19L171.53,828.72L171.21,826.72L168.08,823.67L169.65,816.73L171.43,816.27L174.25,817.32L175.34,815.85L176.75,816.38L176.44,814.38L181.9,807.52L182.69,803.55L184.54,799.61L182.81,797.58L181.05,797.05L180.37,795.54L187.85,793.7L193.28,788.33L195.41,787.88L198.72,781.97L198.06,779.46L195.98,777.43L198.14,775.48L202.72,777.07L204.89,774.62L202.47,771.58L204.34,766.64L207.18,766.2L207.21,764.71L207.93,764.22L206.55,762.2L207.3,760.23L208.37,759.75L209.39,761.76L212.58,761.82L212.96,760.34L211.23,758.31L214.52,752.9L213.84,751.39L212.07,751.36L211.76,749.36L215.33,747.94L216.43,745.96L216.1,744.46L212.6,742.4L212.27,741.4L213.75,737.95L215.92,735.5L219.8,736.07L221.24,735.1L221.27,733.11L222.71,732.14L222.37,731.14L218.13,731.06L217.1,729.54L217.48,728.06L220.32,727.62L220.39,724.13L214.73,724.02L212.31,721.48L212.69,720L219.79,718.64L221.23,717.18L220.92,714.68L218.48,713.14L217.37,715.61L215.25,715.57L214.92,714.56L211.73,715L209.98,713.97L210.72,711.99L212.5,711.53L214.68,708.58L218.21,708.65L218.59,707.17L217.92,705.66L216.16,705.13L215.84,703.63L216.6,700.65L217.68,699.68L220.85,700.24L220.88,698.74L218.79,697.21L218.83,695.22L222.01,694.78L223.73,697.3L225.15,696.83L224.49,694.33L225.24,692.35L226.65,692.38L227.69,693.4L231.22,693.46L232.01,689L228.87,686.95L229,680.47L230.46,677.51L236.07,679.61L236.12,677.12L234.07,673.6L235.91,669.65L238.07,667.2L237.38,666.19L231.43,663.59L231.47,661.6L229.7,662.06L224.84,657.99L220.99,656.42L216.83,652.35L213.67,651.79L209.44,651.71L205.52,653.62L203.06,653.08L198.9,649.51L196.79,649.47L194.66,649.92L189.29,653.8L186.76,656.73L184.98,657.69L182.87,657.65L181.12,656.62L179.14,650.1L176.06,645.55L169.39,644.42L165.81,646.83L163.27,650.26L159.31,653.67L153.64,655.04L149.62,661.42L138.61,664.67L133.87,671.54L131.72,672.98L129.93,673.94L113.64,676.55L112.03,669.55L108.33,661.99L107.28,661.47L104.56,656.92L104.67,652.44L103.64,650.92L106.91,647.02L106.93,646.02L112.98,643.67L119,642.81L123.11,647.89L130.04,653.52L132.14,654.07L133.6,652.11L136.43,651.67L138.24,649.72L136.16,648.18L137.61,646.22L138.66,646.74L138.68,645.75L137.29,644.72L138.4,642.25L146.26,637.94L147.3,638.47L151.6,635.57L155.82,635.66L158.31,634.72L158.73,631.74L163.02,628.84L162.37,626.34L159.9,626.29L160.08,617.83L158.02,615.29L156.28,614.76L151.64,617.15L150.24,617.11L148.06,620.06L141.38,619.41L139.3,617.87L135.04,619.27L127.7,616.61L126.67,615.6L128.11,614.13L137,610.35L139.17,607.91L140.58,607.44L144.98,599.57L143.03,592.55L143.82,588.59L142.1,586.56L144.27,584.11L146.49,579.18L142.7,575.61L146.78,565.74L142.35,559.67L142.82,554.2L140.77,551.67L139.36,551.63L138.69,550.13L139.4,549.64L136.98,548.09L137.47,541.63L138.61,538.17L141.11,536.23L140.83,532.74L150.24,536.43L152.3,538.47L159.98,540.63L176.16,523.05L179.11,516.63L169.05,510.94L170.17,507.48L172.69,504.54L173.71,506.06L175.84,505.11L177.93,505.65L178.95,507.17L184.84,510.78L185.87,512.29L190.4,513.88L194.16,518.93L197.7,517.51L198.35,520.02L206.1,518.68L208.16,520.71L212.01,521.28L212.74,520.3L213.77,521.32L214.14,520.33L213.15,517.32L209.08,509.77L211.89,509.83L209.52,505.3L209.23,502.3L210.63,502.33L211.31,503.84L222.9,503.07L223.85,508.57L227.59,514.62L226.11,518.57L230.64,520.15L232.37,521.68L233.02,524.68L235.12,524.72L234.81,522.72L236.92,522.26L236.6,520.76L241.13,522.34L241.5,521.35L247.48,520.97L249.91,522.51L257.24,524.63L259.36,524.17L263.62,521.26L260.94,514.24L263.43,512.79L263.45,511.3L265.91,511.34L267.69,509.88L260.53,498.3L259.18,495.28L258.9,491.3L241.36,491.47L229.1,490.74L211.26,488.4L195.95,482.61L182.07,475.36L180.7,473.83L162.64,465.98L152.27,459.28L148.84,456.22L146.86,450.7L147.04,442.23L145.03,438.2L137.76,434.56L132.19,433.43L123.08,433.73L117.21,430.1L113.81,425.54L107.95,421.92L104.18,418.34L102.23,412.32L103.71,408.87L108.68,405.5L112.55,404.59L118.49,404.73L121.31,403.8L123.48,400.86L124.24,398.39L123.94,395.89L122.26,392.86L119.88,390.32L115.04,387.72L110.58,384.13L109.59,381.61L109.34,377.62L110.86,372.18L111,366.2L113.25,359.78L115.39,357.84L118.19,357.4L125.42,362.05L129.93,363.15L142.88,361.95L144.63,361.49L147.49,358.56L150.04,353.64L150.11,350.65L149.14,347.14L148.12,346.13L139.52,340.46L129.43,339.23L127.01,338.18L124.41,329.65L122.38,327.12L118.19,327.02L112.07,335.34L109.25,336.77L97.35,337.99L90.49,333.34L87.12,328.28L78.49,324.58L76.47,321.54L76.19,319.04L78.04,314.6L85.19,307.31L85.24,305.32L82.95,299.28L83.74,295.32L85.89,292.88L91.52,290.52L92.95,289.06L94.46,284.12L103.01,275.85L104.49,272.4L103.54,268.39L102.18,266.87L88.14,257.56L83.48,248.98L79.03,217.49L76.35,213.43L69.12,210.76L67.1,208.22L65.82,204.2L65.28,197.71L68.64,188.33L69.16,181.37L68.27,175.37L66.24,173.33L61.77,171.72L61.1,170.71L59.79,167.68L59.89,163.7L58.39,154.69L54.69,150.12ZM234.37,1326.92L240.08,1330.51L241.1,1334.01L243.64,1333.06L246.63,1327.64L246.3,1325.64L244.52,1324.61L245.26,1323.63L245.31,1320.64L243.88,1320.12L240.61,1321.55L239.07,1326.5L234.37,1326.92Z" fill-rule="evenodd" fill="#4682b4" fill-opacity="0.471"/>
<polyline points="54.69,150.12 57.54,147.2 59.49,152.23 73.42,149.59 72.46,146.58 72.83,145.59 74.53,147.13 77.3,147.2 81.18,144.3 86.88,137.97 106.17,142.91 115.24,140.14 117.57,144.18 122.41,144.79 118.87,133.25 121.79,126.84 126.33,124.95 131.2,124.07 138.83,123.74 144.68,125.37 147.46,124.93 143.02,106.9 156.95,87.28 160.03,88.34 166.94,88.99 171.12,103.53 170.7,107.01 171.34,109.51 177.57,109.64 177.55,110.64 191.03,111.42 189.35,108.89 191.44,108.44 200.78,108.63 202.12,110.65 218.75,109.99 222.81,114.55 224.92,112.6 217.89,101 246.59,83.13 251.97,91.2 257.21,88.31 264.16,86.44 267.01,82.01 272.29,76.62 282.45,68.83 282.52,65.35 281.53,62.34 283.97,61.39 287.12,58.95 287.84,57.47 289.2,58.49 297.21,54.64 303.51,49.76 297.06,43.18 297.43,41.69 295.06,39.16 300.32,34.27 303.74,36.32 315.27,27.54 314.94,26.54 316.34,25.57 315.34,23.56 318.14,21.11 340.13,26.44 350.64,16.14 353.35,19.17 357.8,21.23 359.18,21.25 358.85,20.25 363.04,17.33 369.85,23.4 369.82,25.4 372.89,27.43 375.32,26.47 377.71,28.5 380.05,33.51 383.45,37.55 388.25,39.61 391.02,39.15 395.12,42.19 396.84,42.21 397.86,43.72 404.02,47.79 413.08,41.43 416.59,37 423.15,36.58 431.83,32.21 437.72,30.28 444.69,24.39 472.64,24.21 475.03,26.23 477.66,38.21 479.71,40.23 485.94,38.8 488.35,39.32 489.03,40.32 500.23,24.5 502.98,25.02 503.66,26.52 502.96,27.01 503.27,30.5 503.95,31.51 514.23,39.58 514.22,41.07 517.67,40.61 529.11,34.73 529.82,33.24 538.72,41.29 539.37,45.78 546.25,48.83 547.26,51.33 552.47,48.38 553.83,50.38 553.12,53.37 553.8,54.87 554.83,55.37 557.98,50.42 557.6,54.4 560.7,54.92 563.13,53.94 564.5,54.95 562.77,55.43 561.72,56.92 558.96,57.4 558.25,58.89 560.97,64.39 570.95,69.94 572.98,75.44 574.36,76.44 573.66,77.43 586.01,89.98 584.98,89.97 583.57,92.95 590.03,110.43 587.94,111.41 588.28,113.4 586.55,113.39 606.16,130.95 621.06,128.55 633.13,137.08 639.61,158.03 644.42,167.52 656.22,163.59 654.85,160.6 662.83,158.64 666.24,171.1 664.85,171.6 666.9,179.08 671.76,177.6 673.13,182.59 677.64,181.61 694.59,199.09 691.09,207.55 693.51,211.04 695.23,216.53 701.83,215.05 706.3,230.01 704.91,230.5 705.6,233.49 706.99,233 708.02,237.98 712.19,237.99 712.88,238.99 715.32,237 719.15,235.52 733.74,236.04 736.89,220.61 750.78,226.1 748.33,239.05 745.55,239.55 743.46,244.52 743.43,263.45 741.34,269.92 743.77,272.41 742.72,277.39 744.45,284.86 738.87,290.83 735.37,302.28 730.84,307.25 732.9,322.2 741.27,319.72 747.53,329.19 746.83,330.19 750.66,337.16 749.61,338.16 754.14,345.13 752.4,346.13 745.06,355.58 731.79,363.03 734.57,368.01 732.47,369.01 732.47,372.99 754.11,373.02 763.89,380 765.63,380.5 767.38,382.99 767.38,384.98 770.17,385.48 769.82,387.97 770.52,389.96 768.07,390.46 768.77,393.45 765.63,394.94 765.27,396.93 769.12,399.92 777.85,404.4 784.84,404.4 785.89,409.38 787.29,410.38 787.29,411.87 788.34,411.87 790.09,416.35 787.99,416.85 788.34,419.34 792.54,419.84 792.89,420.83 794.64,420.34 795.69,425.31 798.84,429.3 804.79,432.78 812.15,441.73 815.65,442.23 818.46,450.19 834.91,446.68 833.87,454.65 837.38,455.64 840.87,453.64 846.15,464.58 851.05,462.08 862.95,460.06 866.44,456.56 865.04,454.57 869.22,450.08 870.63,452.57 874.13,450.07 875.18,451.56 875.88,451.06 876.93,452.05 875.89,453.05 876.94,454.54 875.89,455.54 875.9,458.52 877.31,460.51 879.44,468.97 885.77,474.92 883.68,479.41 889.32,486.86 891.07,485.86 900.9,490.8 908.65,497.24 915.28,490.73 919.49,492.71 924.76,493.18 925.1,492.18 926.85,492.17 926.51,494.17 931.77,494.14 931.43,495.63 933.19,496.12 938.82,501.07 942.32,499.06 951.46,502.49 953.88,497.5 956.71,499.97 957.06,501.46 962.7,504.42 966.59,510.37 982.07,515.74 985.64,525.18 987.75,525.16 990.57,526.63 993.37,526.12 998.38,538.03 997.71,542.52 989.31,547.06 986.87,549.57 983.01,549.59 980.91,551.1 979.54,556.09 978.49,556.6 977.8,559.09 982.05,564.04 982.42,566.03 979.62,568.54 979.28,570.03 974.4,575.54 973.36,579.04 970.22,582.54 973.1,591.49 962.2,594.05 961.16,595.55 960.79,593.56 955.17,594.09 952.37,597.09 950.27,598.1 949.56,597.11 947.1,598.12 944.63,597.64 942.88,599.14 941.47,599.15 939.38,601.65 945.4,608.09 946.1,607.59 948.92,609.06 947.52,610.57 949.65,612.54 956,615.49 955.65,616.49 958.83,617.97 956.04,621.97 967.02,630.86 969.83,630.34 978.3,632.28 991.74,639.16 995.99,642.11 997.39,640.61 1002.69,643.06 1005.54,646.02 1005.19,647.02 1007.68,649.99 1006.64,651.49 1009.86,658.44 1010.28,666.4 1000.43,669.96 996.55,669.99 993.03,671.01 991.63,673.01 986.71,675.54 984.59,675.55 984.25,676.55 981.77,675.57 981.43,677.07 980.72,677.07 978.59,675.6 977.19,676.1 977.2,677.6 976.14,677.6 972.94,674.14 971.19,676.14 970.47,674.16 969.76,674.16 969.43,677.65 967.67,677.66 966.25,675.68 965.19,676.18 961.3,675.21 958.49,676.22 958.14,677.22 956.37,676.73 956.03,678.23 953.55,677.25 952.85,678.25 949.66,676.28 948.27,678.77 944.03,677.8 941.92,679.31 941.58,681.8 940.18,683.3 939.13,686.29 939.84,687.29 939.15,688.78 939.51,689.78 940.56,689.27 940.57,691.26 938.8,690.28 937.39,690.78 938.11,692.77 939.87,692.76 938.48,695.26 940.95,695.25 941.31,696.74 938.49,697.75 939.21,699.74 947.35,702.68 951.33,719.58 952.4,721.07 954.17,722.55 958.78,724.02 977.15,722.41 985.99,723.84 1002.96,724.21 1008.98,725.66 1022.82,732.52 1028.57,743.42 1029.71,752.38 1029.49,768.31 1033.1,776.25 1037.02,779.2 1040.22,780.17 1052.22,776.07 1057.9,777.51 1067.51,782.9 1073.89,782.83 1083.77,779.25 1088.72,778.7 1095.47,780.12 1101.52,783.54 1104.36,783.51 1111.06,781.44 1153.34,791.39 1162.55,791.27 1165.4,792.72 1168.37,802.64 1175.93,811 1176.66,812.99 1176.4,819.46 1179.42,833.36 1193.43,845.62 1195.73,857.04 1212.6,869.24 1217.95,870.65 1230,868.98 1234.56,864.92 1237.6,854.92 1241.73,846.88 1246.84,833.36 1253.02,820.31 1260.66,810.73 1263.7,801.22 1264.64,794.23 1273.05,788.11 1273.99,781.13 1275.34,777.12 1277.42,774.6 1280.92,772.05 1303.15,767.67 1306.31,766.12 1308.74,763.59 1315.64,753.5 1318.78,751.45 1330.77,748.74 1336.12,751.13 1346.63,763.87 1352.38,768.24 1362.86,778.99 1365.74,780.92 1369.38,785.83 1380.53,794.07 1384.84,796.47 1390.89,797.83 1401.83,795.61 1405.74,796.03 1411.16,800.89 1416.88,802.76 1431,815.89 1436.47,822.74 1439.11,829.65 1438.85,833.64 1437.82,835.16 1419.22,845.03 1416.04,845.6 1409.96,843.74 1392.63,830.17 1384.07,827.85 1376.65,829.5 1371.74,832.59 1368.32,838.63 1366.53,855.6 1363.8,861.13 1359.98,865.69 1352.21,867.84 1334.03,865.2 1330.55,868.75 1331.04,876.21 1334.41,885.11 1345.26,894.36 1347.08,896.82 1346.07,899.82 1348.15,915.22 1352.99,926.08 1355.3,935 1356.4,936.47 1363.65,942.8 1368.07,950.18 1370.24,951.63 1389.25,957.72 1398.87,957.51 1408.94,961.78 1411.5,964.71 1413.77,970.64 1413.57,978.12 1409.53,989.16 1409.64,994.13 1410.38,995.61 1407.93,997.66 1406.49,997.19 1403.02,1001.75 1400.47,999.31 1399.77,1000.32 1400.86,1001.29 1400.58,1004.78 1398.85,1007.31 1397.43,1007.84 1397.45,1008.83 1398.89,1009.3 1399.64,1010.78 1398.95,1012.29 1397.18,1012.82 1396.08,1011.35 1394.67,1012.38 1396.85,1014.32 1396.91,1016.81 1394.05,1016.87 1394.43,1017.86 1393.01,1018.39 1392.27,1016.91 1390.17,1018.95 1390.62,1023.42 1392.39,1022.88 1392.78,1024.37 1394.57,1024.83 1394.33,1030.31 1392.5,1028.36 1391.09,1028.89 1391.47,1030.37 1388.67,1050.35 1390.9,1054.29 1392.34,1054.75 1392.49,1062.22 1390.75,1064.25 1394.39,1067.16 1392.29,1069.69 1393.06,1072.17 1380.9,1072.42 1379.12,1072.95 1378.84,1076.94 1371.29,1075.1 1369.19,1077.14 1361.34,1078.79 1361.02,1080.29 1365.01,1083.2 1363.62,1085.22 1365.45,1087.17 1364.1,1091.18 1361.6,1091.73 1361.28,1093.73 1353.08,1095.38 1348.42,1095.47 1344.83,1094.54 1338.79,1097.15 1329.46,1096.33 1329.17,1099.82 1325.24,1100.39 1322.4,1101.94 1319.54,1101.99 1317.77,1103.02 1318.88,1104.99 1317.83,1106.5 1320.74,1108.94 1318.26,1110.48 1318.31,1112.97 1317.61,1113.98 1319.06,1114.94 1318.75,1117.44 1319.49,1118.92 1318.93,1127.4 1317.2,1130.91 1318.35,1134.88 1310.94,1141.48 1313.23,1149.41 1311.93,1156.9 1311.73,1165.37 1308.08,1182.37 1303.95,1192.4 1302.52,1192.92 1301.48,1194.93 1300.85,1199.92 1301.95,1200.9 1303.1,1205.36 1304.94,1207.82 1305.71,1210.79 1307.18,1212.26 1308.35,1217.22 1314.96,1225.07 1317.49,1225.52 1316.43,1227.03 1316.12,1229.53 1316.6,1235.99 1314.86,1239.51 1317.79,1242.44 1317.83,1244.43 1318.94,1245.91 1318.61,1247.9 1319.74,1250.37 1319.45,1254.36 1320.21,1256.34 1325.35,1262.22 1324.66,1263.73 1328.31,1266.15 1331.93,1267.08 1334.16,1271.02 1334.51,1270.52 1339.27,1274.41 1343.25,1275.33 1345.4,1274.79 1347.62,1277.74 1348.41,1281.21 1349.5,1281.69 1350.98,1284.15 1350.67,1286.64 1347.51,1290.69 1349.74,1294.63 1352.08,1303.55 1349.64,1308.08 1350.39,1309.56 1353.31,1311.49 1351.28,1318 1350.21,1319.02 1351.06,1325.48 1352.58,1329.43 1355.89,1332.85 1355.98,1337.33 1355.29,1338.84 1356.77,1340.81 1356.43,1341.81 1357.58,1345.27 1360.16,1348.21 1360.95,1351.68 1363.9,1354.61 1364.01,1360.09 1367.33,1363.51 1367.77,1367.48 1374.72,1371.82 1383.01,1370.66 1384.15,1373.13 1387.1,1376.06 1388.67,1382 1391.25,1384.44 1400.37,1388.23 1402.54,1388.19 1406.1,1385.62 1414.12,1388.94 1414.19,1391.93 1416.44,1395.86 1416.54,1400.34 1421.34,1404.72 1430.74,1404.52 1436.87,1403.39 1440.18,1405.8 1440.2,1406.8 1444.92,1407.19 1448.98,1411.08 1453.37,1412.98 1454.24,1419.43 1460.12,1423.28 1461.99,1425.73 1463.15,1429.19 1466.47,1431.6 1470.1,1432.02 1475.63,1435.87 1476.9,1443.81 1479.9,1448.23 1479.56,1449.23 1482.16,1451.66 1481.2,1457.16 1481.97,1459.13 1483.44,1460.1 1483.48,1461.59 1488.96,1463.45 1489.37,1465.43 1491.21,1466.39 1492.09,1472.84 1493.56,1473.8 1494.33,1475.77 1496.54,1477.22 1496.97,1479.7 1498.47,1481.65 1501.43,1484.07 1501.48,1486.06 1505.9,1488.94 1510.28,1489.83 1511.79,1492.29 1512.88,1492.26 1513.64,1493.74 1515.84,1494.68 1518.09,1497.61 1522.76,1495.5 1531.14,1496.79 1532.26,1497.75 1533.33,1497.23 1538.53,1501.58 1540.73,1502.52 1541.8,1502 1541.89,1505.48 1540.12,1507.02 1535.24,1515.11 1538.98,1519.5 1537.99,1523.51 1538.86,1528.97 1537.53,1533.98 1535.43,1537.02 1534.49,1543.02 1528.42,1547.66 1526.3,1550.2 1525.21,1550.23 1523.82,1552.76 1520.56,1553.34 1516.25,1555.43 1511.61,1559.03 1508.26,1571.07 1504.72,1575.14 1504.5,1581.12 1491.94,1588.9 1487.04,1596.98 1484.54,1599.03 1463.65,1609.48 1464.44,1612.45 1463.77,1614.96 1464.53,1616.43 1463.46,1617.45 1463.92,1621.43 1462.84,1621.95 1463.61,1623.93 1458.54,1625.54 1460.49,1630.97 1459.78,1631.98 1462.74,1633.91 1460.7,1640.43 1460,1641.44 1458.53,1640.98 1455.69,1644.53 1456.46,1646.5 1455.07,1649.52 1453.27,1650.56 1453.68,1652.54 1450.5,1657.1 1447.96,1657.65 1444.99,1655.72 1441.75,1657.79 1439.18,1656.85 1435.98,1660.9 1434.83,1658.44 1432.64,1658.49 1432.7,1660.98 1427.3,1664.58 1427.71,1666.56 1426.28,1668.09 1424.79,1666.63 1425.12,1665.12 1423.97,1662.66 1422.14,1662.2 1419.9,1659.76 1416.97,1659.32 1412.28,1661.91 1404.43,1653.11 1398.64,1655.22 1397.52,1654.25 1396.06,1654.28 1393.55,1656.32 1391.7,1655.36 1390.34,1659.87 1388.55,1661.9 1387.53,1665.41 1389.08,1669.86 1383.15,1665.5 1381.7,1666.03 1379.84,1664.07 1373.93,1660.7 1371.07,1663.75 1368.88,1663.79 1366.76,1667.32 1367.92,1670.78 1367.24,1673.29 1364.02,1676.83 1362.2,1676.87 1358.97,1679.92 1357.88,1679.94 1357.18,1681.95 1352.51,1686.02 1350.7,1686.55 1348.85,1685.59 1343.44,1689.18 1340.16,1689.74 1339.46,1691.25 1340.24,1693.72 1340.34,1699.2 1343.3,1701.14 1343.36,1704.13 1345.57,1705.08 1346.7,1707.05 1347.55,1713.51 1353.5,1718.38 1354.29,1721.85 1357.69,1727.26 1360.63,1728.2 1362.12,1729.67 1362.9,1732.15 1361.53,1736.65 1361.6,1740.14 1357.59,1741.21 1356.19,1744.73 1354.04,1746.76 1352.3,1751.78 1353.05,1752.76 1352.72,1754.26 1350.92,1756.28 1348.73,1756.33 1347.65,1757.34 1348.43,1759.82 1351.74,1760.75 1354.36,1763.69 1352.63,1769.2 1348.33,1774.27 1349.46,1775.74 1349.13,1777.74 1346.59,1778.78 1351.76,1781.17 1350.74,1785.18 1348.19,1786.22 1348.64,1790.7 1345.81,1795.73 1345.21,1803.22 1342.35,1807.25 1341.69,1811.25 1342.46,1812.73 1341.41,1815.74 1342.57,1818.71 1346.23,1818.14 1353.61,1820.49 1355.88,1824.43 1359.96,1826.35 1364.88,1834.22 1366.73,1834.69 1369.72,1837.62 1371.91,1837.08 1375.3,1841.49 1382.03,1847.34 1383.61,1852.79 1384.72,1853.26 1386.65,1858.21 1385.28,1863.21 1384.2,1864.23 1384.6,1865.72 1382.81,1868.25 1381.35,1868.77 1381.4,1871.26 1380.35,1873.77 1381.5,1876.24 1380.43,1877.76 1380.85,1880.24 1379.05,1882.27 1378.37,1885.27 1378.47,1890.25 1375.2,1892.31 1374.14,1894.32 1373.18,1901.81 1371.74,1903.34 1368.78,1902.4 1363.63,1902.5 1359.98,1904.06 1357.77,1904.11 1358.94,1907.57 1359.01,1911.06 1354.63,1913.13 1354.68,1915.62 1351.09,1920.67 1352.72,1928.61 1349.16,1935.16 1348.05,1935.18 1341.51,1939.78 1338.85,1935.35 1335.19,1936.91 1332.96,1935.46 1331.12,1935.49 1329.7,1938.51 1325.29,1939.08 1324.57,1940.09 1321.62,1939.65 1317.22,1941.22 1315.1,1946.24 1312.87,1944.78 1312.09,1942.81 1310.25,1942.84 1309.87,1941.85 1306.9,1940.9 1306.54,1941.41 1304.68,1939.95 1300.9,1934.53 1298.72,1936.06 1297.23,1935.09 1297.21,1934.1 1289.73,1927.25 1289.34,1926.26 1290.73,1921.25 1291.82,1920.24 1291.79,1918.25 1290.26,1915.28 1289.55,1916.29 1288.07,1916.32 1285.89,1917.85 1283.73,1920.87 1281.91,1921.9 1279.65,1918.95 1277.81,1918.98 1275.28,1921.51 1274.27,1927.5 1272.44,1928.03 1271.31,1926.56 1269.49,1927.58 1269.5,1928.58 1270.61,1928.56 1270.99,1929.55 1270.65,1931.05 1267.02,1934.6 1264.08,1935.14 1262.95,1933.17 1260.75,1934.2 1258.18,1934.24 1256.31,1932.77 1254.84,1932.8 1249.37,1936.37 1249.43,1940.35 1248.71,1941.36 1246.51,1941.89 1244,1946.42 1236.2,1942.05 1234.06,1946.57 1231.52,1949.59 1227.81,1947.65 1226.31,1945.68 1223.4,1948.22 1221.19,1948.25 1219.38,1950.77 1218.63,1949.78 1213.51,1952.35 1209.82,1951.9 1206.9,1953.93 1205.79,1953.45 1205.4,1951.96 1203.55,1951.49 1201.31,1949.53 1199.11,1950.06 1197.64,1950.58 1194.38,1954.61 1191.41,1953.15 1189.16,1949.7 1185.45,1948.25 1185.06,1946.26 1181.35,1944.32 1180.22,1942.84 1172.82,1939.95 1172.44,1938.96 1168.36,1936.52 1166.85,1934.05 1165.01,1934.07 1162.41,1932.11 1157.65,1934.66 1158.04,1936.15 1156.64,1942.15 1156.36,1949.12 1154.17,1951.14 1148.29,1952.21 1145.73,1953.74 1142.79,1953.77 1140.91,1950.81 1140.14,1947.83 1137.56,1948.35 1137.21,1949.36 1136.1,1948.87 1135.74,1950.37 1134.26,1949.39 1133.11,1945.92 1129.76,1942.97 1127.92,1942.49 1127.91,1941.49 1124.96,1941.53 1121.31,1944.06 1122.09,1948.53 1117.35,1953.07 1118.47,1954.05 1117.74,1955.06 1112.62,1958.1 1107.07,1955.67 1105.29,1962.17 1104.19,1962.18 1103.84,1964.18 1100.94,1968.69 1099.84,1969.2 1100.96,1970.18 1099.5,1972.19 1097.29,1972.22 1096.21,1974.72 1093.28,1976.24 1090.68,1974.28 1084.78,1974.34 1082.92,1972.86 1082.2,1974.36 1081.09,1974.37 1081.47,1975.86 1080,1976.38 1078.55,1978.38 1078.58,1981.37 1076.76,1984.38 1074.2,1986.4 1073.1,1986.41 1073.11,1987.9 1072.01,1988.41 1070.16,1988.43 1069.03,1985.45 1067.18,1984.97 1066.8,1983.98 1061.64,1984.02 1058.68,1983.06 1058.67,1982.06 1056.45,1980.59 1055.72,1981.59 1053.86,1980.61 1042.79,1979.21 1039.82,1976.75 1037.25,1978.26 1036.87,1977.27 1032.81,1976.81 1030.58,1973.84 1031.3,1971.84 1030.91,1969.85 1029.43,1969.36 1028.3,1965.39 1029.02,1963.88 1021.59,1956.47 1022.28,1950.49 1020.42,1948.01 1017.48,1949.03 1016.74,1948.54 1016.01,1950.04 1014.54,1950.05 1013.44,1951.06 1012.7,1950.07 1013.78,1946.57 1010.07,1943.11 1008.96,1943.12 1008.59,1942.13 1009.67,1939.13 1009.27,1934.65 1012.88,1926.15 1011.75,1922.18 1013.22,1921.67 1013.21,1920.67 1014.67,1919.17 1019.13,1924.61 1019.85,1922.61 1021.69,1922.1 1023.16,1922.59 1023.17,1923.58 1024.28,1924.07 1025.01,1923.07 1026.12,1924.06 1029.41,1922.04 1040.81,1919.95 1044.83,1917.42 1052.04,1900.92 1050.93,1899.94 1050.91,1897.94 1048.66,1892.98 1048.64,1890.49 1046.41,1888.02 1046.39,1885.53 1043.79,1882.07 1043.03,1879.58 1049.94,1871.05 1051.04,1871.04 1052.49,1869.04 1055.42,1867.52 1056.5,1865.52 1055.75,1863.53 1060.52,1862.99 1059.38,1859.01 1064.12,1855.48 1067.78,1854.45 1068.87,1852.95 1067.75,1850.97 1068.09,1847.97 1069.92,1847.46 1073.61,1848.92 1074.69,1846.92 1073.93,1844.43 1072.08,1843.45 1071.33,1841.47 1070.23,1840.98 1070.2,1837.99 1069.45,1837 1071.63,1834.49 1071.62,1833 1073.43,1830.49 1081.15,1831.91 1085.89,1828.87 1088.42,1825.86 1088.4,1823.87 1087.3,1823.38 1088.37,1820.38 1088.31,1814.9 1085.33,1809.95 1084.55,1804.98 1085.99,1802.97 1087.1,1803.46 1087.44,1800.96 1089.28,1801.94 1089.25,1798.95 1091.42,1795.94 1091.4,1794.45 1090.29,1793.46 1090.26,1790.48 1091.71,1788.97 1091.69,1786.98 1094.26,1787.45 1095.37,1788.43 1097.91,1786.41 1099.35,1783.91 1099.33,1781.91 1100.8,1781.9 1102.97,1779.88 1102.22,1777.4 1099.98,1773.94 1097.03,1771.98 1096.62,1767.5 1095.87,1766.01 1092.55,1764.06 1090.67,1759.09 1089.56,1758.11 1089.17,1755.13 1086.98,1755.65 1084.07,1758.17 1079.32,1758.21 1078.6,1759.71 1076.41,1760.73 1073.12,1760.76 1072.01,1759.78 1066.89,1760.33 1063.61,1761.85 1061.44,1764.86 1062.2,1767.84 1059.66,1769.86 1055.28,1771.39 1051.57,1766.44 1051.54,1763.46 1045.25,1756.04 1044.53,1757.54 1041.98,1758.56 1040.87,1757.57 1039.78,1758.08 1036.84,1757.11 1035.36,1755.13 1033.16,1754.15 1030.6,1754.67 1030.22,1752.68 1031.67,1751.18 1030.51,1743.22 1028.67,1742.24 1026.49,1743.75 1025.37,1741.77 1022.82,1742.29 1019.87,1739.82 1019.12,1737.33 1018.02,1737.34 1016.22,1740.84 1012.21,1742.37 1011.49,1744.37 1007.83,1743.9 1003.05,1741.44 1001.59,1741.45 1000.85,1740.46 997.56,1739.99 996.08,1738.5 996.07,1737.51 991.31,1735.55 989.09,1733.07 987.63,1733.58 984.74,1738.58 979.23,1734.14 977.75,1731.66 975.56,1733.17 975.19,1732.17 971.9,1732.69 970.08,1733.7 967.89,1733.71 966.79,1734.72 965.69,1733.73 963.14,1735.24 959.48,1734.26 957.99,1730.78 957.98,1727.8 959.07,1727.29 958.7,1726.3 961.24,1723.29 962.7,1723.29 964.14,1718.79 963.03,1716.81 963.75,1715.31 963,1712.83 964.83,1711.82 964.45,1710.82 962.62,1710.34 963.68,1704.36 965.14,1703.35 968.43,1703.83 968.41,1701.34 966.57,1697.86 966.18,1693.88 966.53,1692.39 968.71,1690.38 968.3,1683.41 969.76,1682.9 970.12,1681.9 973.4,1680.89 972.65,1677.41 972.99,1674.42 972.25,1672.93 972.6,1670.44 964.93,1668.99 964.2,1669.99 960.55,1669.51 957.64,1671.02 958.38,1672.51 957.29,1673.52 954.37,1673.53 952.53,1671.55 952.53,1670.56 948.88,1670.08 947.06,1671.58 943.75,1667.62 942.29,1667.63 941.56,1666.63 941.91,1663.15 939.34,1661.17 939.69,1658.68 938.59,1657.19 937.86,1656.69 936.4,1657.7 934.57,1655.71 928.74,1656.24 924.71,1654.27 922.9,1656.27 920.34,1655.29 916.71,1659.29 913.8,1659.8 912.69,1658.31 912.3,1652.33 910.47,1650.85 907.9,1645.88 905.7,1643.9 905.33,1641.41 903.14,1640.42 903.13,1638.43 899.08,1629.48 901.6,1622 901.23,1620.01 902.68,1617.02 900.47,1612.55 900.81,1604.58 899.71,1602.59 898.25,1602.59 897.51,1600.11 896.05,1598.62 896.04,1597.13 894.59,1597.63 888.75,1595.16 885.48,1596.67 883.67,1599.66 884.05,1603.64 878.96,1606.65 876.05,1607.16 876.41,1605.66 875.68,1605.16 875.68,1603.67 873.12,1600.19 874.56,1597.2 874.92,1594.21 874.19,1593.22 870.55,1592.73 870.54,1590.74 869.07,1587.26 869.79,1584.77 869.06,1582.28 869.41,1577.3 868.31,1573.82 866.85,1573.32 867.21,1571.83 865.75,1570.84 866.11,1569.34 864.28,1566.36 868.27,1562.36 864.98,1554.9 864.97,1552.91 863.51,1550.92 859.52,1552.43 856.25,1552.44 853.7,1549.46 851.88,1548.96 850.78,1544.98 848.59,1542.99 847.13,1540.01 843.51,1544.5 843.88,1548.98 842.79,1550.48 838.43,1551.48 838.07,1552.97 833.35,1554.48 831.89,1551.99 827.16,1548.01 824.25,1543.54 820.61,1542.55 819.88,1541.05 815.88,1540.56 813.7,1539.07 809.71,1540.57 806.44,1540.07 803.53,1542.56 803.53,1545.55 799.53,1545.06 795.54,1543.07 794.08,1541.08 793.72,1541.57 790.81,1540.58 788.99,1535.6 786.81,1534.11 781.73,1533.61 778.46,1530.12 775.19,1530.12 770.47,1524.15 767.2,1525.64 765.02,1525.64 765.02,1524.64 762.12,1520.66 756.31,1521.15 753.4,1518.16 754.5,1516.17 761.76,1513.69 759.58,1510.7 757.41,1509.2 756.68,1506.71 757.41,1504.72 759.59,1505.72 765.03,1504.23 765.39,1505.22 770.84,1505.23 771.93,1506.22 774.1,1506.22 770.48,1502.74 770.11,1496.76 769.39,1496.76 769.03,1494.77 767.21,1492.28 762.5,1487.79 759.97,1482.81 754.53,1479.82 753.8,1477.33 751.99,1477.33 751.27,1475.34 742.57,1474.33 741.12,1474.83 740.39,1477.32 738.21,1478.31 738.2,1483.29 738.93,1485.28 737.84,1486.27 736.03,1485.28 734.21,1485.77 733.12,1487.26 732.4,1485.77 731.31,1485.77 729.86,1484.27 726.96,1486.26 721.88,1485.75 714.99,1483.74 711.35,1489.21 710.99,1491.2 708.81,1492.19 708.44,1494.68 704.44,1495.67 703.71,1497.16 700.81,1498.65 700.44,1501.63 696.44,1503.61 688.82,1503.59 687.37,1502.59 683.37,1504.57 681.19,1504.56 680.47,1503.07 675.38,1505.54 672.12,1505.53 668.5,1502.53 665.95,1505.5 671.73,1512 673.52,1517.98 671.34,1519.47 672.42,1522.96 674.59,1522.96 678.94,1525.97 683.66,1526.98 685.11,1528.48 687.29,1528.98 688.01,1530.48 689.82,1530.98 689.09,1532.47 690.9,1535.47 689.44,1537.45 689.44,1538.95 694.88,1541.95 695.23,1544.44 699.23,1546.44 702.48,1554.42 702.47,1555.91 700.65,1557.4 702.46,1560.89 702.09,1563.88 700.26,1566.86 697.35,1568.85 694.07,1569.83 691.89,1570.32 691.16,1569.33 688.97,1571.81 691.14,1575.3 693.33,1575.31 694.04,1580.79 692.21,1583.77 693.66,1584.27 694.39,1585.77 694.38,1589.25 691.46,1591.24 688.55,1590.73 687.09,1591.72 686.71,1597.2 683.07,1597.19 682.7,1599.18 681.6,1600.17 683.04,1604.66 678.31,1603.64 677.94,1605.14 674.3,1606.62 673.57,1605.62 675.05,1599.65 664.86,1599.61 664.49,1600.61 661.21,1601.59 660.48,1602.08 661.56,1603.58 661.18,1607.07 658.27,1608.05 657.17,1609.54 655.69,1614.51 656.41,1615.51 654.58,1617.99 652.76,1617.99 651.3,1619.97 652.38,1622.47 649.08,1626.93 646.17,1624.93 644.74,1619.94 642.19,1619.93 637.44,1622.9 636.7,1624.89 634.51,1625.87 631.94,1629.34 630.47,1631.83 630.45,1634.81 626.77,1641.27 626.76,1643.26 631.84,1648.76 634,1654.75 638.73,1658.26 639.08,1660.75 644.54,1662.77 645.26,1665.26 636.85,1668.21 630.26,1672.66 626.61,1673.14 623.3,1677.11 617.44,1681.06 608.99,1690.47 606.8,1689.96 600.63,1683.95 596.25,1683.43 594.42,1684.91 590.76,1685.88 588.94,1685.37 581.96,1690.8 578.68,1690.78 577.24,1687.78 577.61,1686.29 576.17,1683.79 575.83,1680.31 576.56,1679.81 575.12,1676.32 575.14,1674.32 574.05,1672.82 574.06,1671.33 575.54,1668.85 575.22,1662.87 577.07,1658.9 575.66,1651.92 573.47,1651.9 572,1652.89 569.47,1649.88 568.37,1650.87 567.65,1649.37 562.56,1647.84 562.57,1645.35 558.19,1645.82 554.57,1642.8 553.47,1643.29 552.76,1640.8 550.94,1640.28 550.95,1639.29 547.66,1640.26 541.49,1636.72 535.67,1635.68 534.59,1634.18 533.13,1634.17 533.14,1633.17 531.32,1632.66 529.16,1629.15 525.17,1626.63 523.34,1627.61 520.79,1627.59 511.38,1620.04 508.47,1620.01 507.02,1618.5 504.84,1618.48 504.53,1612 503.08,1611.49 499.76,1616.44 499.37,1618.93 497.52,1621.9 494.96,1622.87 493.85,1624.85 490.24,1620.83 486.97,1619.81 484.78,1620.78 483.7,1618.78 482.25,1618.26 481.21,1613.27 480.13,1611.77 478.68,1610.76 474.31,1610.71 471.06,1608.69 470.36,1605.2 469.29,1603.69 471.49,1602.22 469.31,1601.2 470.08,1597.22 467.55,1595.21 466.85,1592.71 460,1587.16 454.2,1584.61 446.97,1580.04 444.14,1573.04 441.27,1569.52 438.44,1562.52 439.17,1562.03 440.73,1553.08 439.3,1550.58 434.2,1552.01 432.72,1553.99 430.16,1555.45 427.24,1555.91 425.04,1557.88 422.13,1557.84 420.28,1560.31 419.52,1563.29 416.28,1560.26 414.51,1556.26 409.41,1557.19 408.71,1555.19 407.27,1554.18 408.01,1553.19 405.86,1550.67 402.6,1549.14 399.67,1551.09 399.65,1552.59 396.35,1554.54 395.98,1555.53 394.16,1555.5 391.94,1558.46 389.77,1557.44 390.89,1555.46 389.84,1551.96 392.42,1549.51 391.35,1548 387.01,1546.45 381.9,1547.87 380.46,1546.86 380.48,1544.87 375.05,1543.8 373.25,1542.28 372.92,1539.78 370.05,1537.25 370.43,1536.26 369.35,1535.25 370.81,1534.77 371.19,1533.29 370.48,1532.28 370.19,1526.8 369.84,1525.8 368.4,1525.28 366.99,1522.27 362.24,1523.7 361.86,1525.19 356.77,1525.61 355.71,1523.11 354.28,1522.09 354.31,1519.6 352.5,1519.08 346.32,1519.99 343.05,1519.44 336.5,1520.84 334.73,1517.82 334.75,1516.33 331.9,1512.8 329.01,1511.76 324.65,1511.69 320.68,1510.14 319.31,1504.64 319.34,1502.65 320.46,1501.17 316.88,1497.63 316.19,1495.13 312.63,1491.09 312.65,1489.6 305.43,1487.49 301.12,1484.93 297.49,1484.87 293.52,1483.31 292.07,1483.79 285.94,1481.2 285.33,1474.22 283.9,1473.2 282.15,1469.18 280.71,1468.66 279.68,1465.16 279.72,1462.67 283.87,1453.28 283.19,1450.28 281.74,1450.25 280.36,1446.25 278.22,1444.22 276.77,1444.69 265.24,1441.01 263.85,1437.5 256.35,1431.39 257.13,1427.92 256.07,1426.9 256.82,1424.92 255.08,1421.41 252.92,1420.37 252.38,1410.4 249.16,1408.35 248.42,1408.84 245.19,1407.29 244.45,1408.27 241.94,1407.23 239.4,1407.68 232.61,1403.07 230.51,1399.05 228.73,1397.52 222.59,1396.91 220.76,1397.87 216.82,1395.81 211.24,1385.24 206.95,1382.67 201.88,1383.07 199.03,1381.02 195.06,1380.45 193.29,1378.42 192.92,1378.91 190.81,1375.88 184.02,1372.26 182.57,1372.23 181.19,1369.21 171.59,1361.55 173.08,1359.09 172.05,1356.58 173.16,1355.11 172.17,1350.6 173.69,1347.15 172.4,1339.65 173.14,1338.67 182.17,1338.36 180.56,1328.86 181.3,1327.88 181.38,1323.9 182.87,1321.44 182.18,1319.93 182.91,1319.45 183.73,1314.98 183.01,1314.47 183.41,1312.98 182.72,1310.98 181.31,1309.46 181.7,1307.97 181.01,1306.46 187.1,1308.58 188.23,1306.11 190.79,1304.67 196.53,1305.78 197.29,1303.8 201.89,1308.37 207.64,1309.48 211.64,1308.06 213.77,1309.6 221.51,1300.78 222.95,1300.81 222.97,1299.81 225.52,1298.37 226.19,1301.37 230.12,1303.43 231.11,1308.43 232.18,1308.95 234.72,1308 237.21,1310.04 236.43,1313.01 232.05,1315.92 233.83,1316.95 236.4,1315 238.19,1315.53 237.4,1319 239.21,1319.04 244.3,1316.64 243.26,1314.63 247.96,1313.72 251.56,1314.28 253.02,1313.31 255.16,1314.84 263.42,1316.98 264.83,1318.5 265.92,1318.52 271.37,1316.12 276.14,1311.22 273.64,1309.69 271.55,1305.67 270.47,1305.65 269.73,1306.63 269.4,1304.63 272.43,1296.22 269.93,1295.18 268.97,1287.7 272.62,1285.27 273.29,1288.27 275.1,1287.8 275.8,1288.81 275.41,1290.8 276.85,1290.82 278.4,1284.37 277.35,1282.86 278.45,1281.39 282.43,1280.46 284.75,1271.04 283.69,1270.02 279.53,1259.99 280.27,1259.01 278.91,1254.5 280.39,1252.04 280.47,1247.56 278.32,1247.03 276.56,1244.51 273.35,1242.96 272.29,1241.45 266.96,1237.87 265.58,1234.36 265.63,1231.37 262.1,1227.82 261.47,1222.83 258.98,1221.29 257.93,1219.28 255.45,1217.25 249.36,1216.14 249.77,1213.16 245.94,1206.12 244.87,1206.1 244.12,1207.58 241.97,1207.54 240.56,1206.03 236.61,1205.45 235.63,1200.46 228.6,1191.86 228.26,1190.86 229.76,1187.4 226.2,1185.84 219.53,1177.75 216.75,1172.71 216.44,1170.22 212.59,1165.17 209.05,1162.61 208.36,1161.1 208.75,1159.61 206.66,1156.09 207.39,1155.6 203.53,1151.05 201.52,1144.04 199.78,1141.51 198,1140.48 198.04,1138.49 194.51,1135.93 192.11,1130.4 187.49,1128.32 186.45,1126.31 188.31,1123.36 187.3,1119.85 182.44,1112.28 181.12,1106.78 181.66,1097.83 184.19,1096.38 185.61,1096.91 187.38,1097.94 192.29,1103.52 200.12,1105.67 205.51,1105.27 212.23,1109.39 215.75,1112.94 224.68,1114.11 224.63,1116.6 226.39,1118.62 231,1121.2 232.74,1123.72 235.95,1124.78 238.84,1123.33 239.6,1121.36 241.05,1120.39 247.41,1125.48 251.7,1126.06 256.73,1125.15 271.02,1127.89 285.01,1127.63 286.09,1127.15 289.45,1119.24 294.89,1115.35 298.84,1114.42 299.93,1113.44 300.32,1111.95 298.61,1106.95 305.09,1104.56 307.6,1104.6 311.96,1100.69 316.62,1100.27 318.43,1099.3 320.26,1096.34 317.14,1089.82 317.54,1087.33 320.47,1082.9 320.86,1080.91 319.1,1079.39 316.56,1081.34 313.71,1080.8 312.77,1072.32 311.36,1070.81 307.79,1070.25 305.97,1072.21 306.19,1080.68 305.09,1082.65 303.65,1083.13 302.23,1082.11 301.19,1080.6 299.84,1075.1 297.76,1071.58 291.73,1068 281.05,1065.33 275.15,1054.77 274.55,1048.29 267.07,1046.66 266.38,1045.16 266.8,1041.18 270.45,1037.26 271.2,1034.78 270.88,1032.79 268.42,1030.75 265.19,1031.19 261.93,1034.12 259.34,1039.06 257.89,1040.03 253.29,1037.45 248.72,1033.39 245.36,1021.38 244.31,1020.36 240.75,1019.8 239,1017.77 233.7,1014.69 229.42,1014.61 227.65,1013.58 226.01,1006.08 227.88,1001.63 226.16,998.11 224.03,997.58 222.28,995.55 221.96,994.05 224.19,989.11 221.46,982.59 218.64,981.04 217.6,979.53 217.05,970.55 216,969.54 214.24,968.51 211.03,968.45 207.07,970.36 199.66,966.73 197.11,969.17 189.55,973 184.91,973.4 181.01,971.83 178.94,968.8 178.02,961.31 175.22,958.76 170.95,958.67 167.66,962.59 165.13,964.03 162.99,963.99 158.77,961.41 157.15,953.9 154.03,949.85 149.45,947.26 147.71,945.23 147.13,939.25 147.52,937.76 149.69,936.31 149.03,933.81 144.77,933.22 141.95,931.66 139.94,926.14 139.97,924.65 143.23,922.23 143.98,920.25 140.8,919.19 139,920.15 137.98,918.13 139.54,911.69 139.64,907.21 140.75,905.24 143.66,902.32 150.84,899.49 154.1,896.57 154.73,883.64 153.37,881.12 153.78,878.64 150.64,875.58 152.55,869.65 152.24,867.65 150.2,863.12 150.27,860.14 149.25,857.62 146.5,853.58 148.48,844.16 153.88,840.79 156.69,842.35 158.13,841.38 158.81,842.39 161.64,842.95 163.8,841.5 167.14,834.6 170.77,831.19 171.53,828.72 171.21,826.72 168.08,823.67 169.65,816.73 171.43,816.27 174.25,817.32 175.34,815.85 176.75,816.38 176.44,814.38 181.9,807.52 182.69,803.55 184.54,799.61 182.81,797.58 181.05,797.05 180.37,795.54 187.85,793.7 193.28,788.33 195.41,787.88 198.72,781.97 198.06,779.46 195.98,777.43 198.14,775.48 202.72,777.07 204.89,774.62 202.47,771.58 204.34,766.64 207.18,766.2 207.21,764.71 207.93,764.22 206.55,762.2 207.3,760.23 208.37,759.75 209.39,761.76 212.58,761.82 212.96,760.34 211.23,758.31 214.52,752.9 213.84,751.39 212.07,751.36 211.76,749.36 215.33,747.94 216.43,745.96 216.1,744.46 212.6,742.4 212.27,741.4 213.75,737.95 215.92,735.5 219.8,736.07 221.24,735.1 221.27,733.11 222.71,732.14 222.37,731.14 218.13,731.06 217.1,729.54 217.48,728.06 220.32,727.62 220.39,724.13 214.73,724.02 212.31,721.48 212.69,720 219.79,718.64 221.23,717.18 220.92,714.68 218.48,713.14 217.37,715.61 215.25,715.57 214.92,714.56 211.73,715 209.98,713.97 210.72,711.99 212.5,711.53 214.68,708.58 218.21,708.65 218.59,707.17 217.92,705.66 216.16,705.13 215.84,703.63 216.6,700.65 217.68,699.68 220.85,700.24 220.88,698.74 218.79,697.21 218.83,695.22 222.01,694.78 223.73,697.3 225.15,696.83 224.49,694.33 225.24,692.35 226.65,692.38 227.69,693.4 231.22,693.46 232.01,689 228.87,686.95 229,680.47 230.46,677.51 236.07,679.61 236.12,677.12 234.07,673.6 235.91,669.65 238.07,667.2 237.38,666.19 231.43,663.59 231.47,661.6 229.7,662.06 224.84,657.99 220.99,656.42 216.83,652.35 213.67,651.79 209.44,651.71 205.52,653.62 203.06,653.08 198.9,649.51 196.79,649.47 194.66,649.92 189.29,653.8 186.76,656.73 184.98,657.69 182.87,657.65 181.12,656.62 179.14,650.1 176.06,645.55 169.39,644.42 165.81,646.83 163.27,650.26 159.31,653.67 153.64,655.04 149.62,661.42 138.61,664.67 133.87,671.54 131.72,672.98 129.93,673.94 113.64,676.55 112.03,669.55 108.33,661.99 107.28,661.47 104.56,656.92 104.67,652.44 103.64,650.92 106.91,647.02 106.93,646.02 112.98,643.67 119,642.81 123.11,647.89 130.04,653.52 132.14,654.07 133.6,652.11 136.43,651.67 138.24,649.72 136.16,648.18 137.61,646.22 138.66,646.74 138.68,645.75 137.29,644.72 138.4,642.25 146.26,637.94 147.3,638.47 151.6,635.57 155.82,635.66 158.31,634.72 158.73,631.74 163.02,628.84 162.37,626.34 159.9,626.29 160.08,617.83 158.02,615.29 156.28,614.76 151.64,617.15 150.24,617.11 148.06,620.06 141.38,619.41 139.3,617.87 135.04,619.27 127.7,616.61 126.67,615.6 128.11,614.13 137,610.35 139.17,607.91 140.58,607.44 144.98,599.57 143.03,592.55 143.82,588.59 142.1,586.56 144.27,584.11 146.49,579.18 142.7,575.61 146.78,565.74 142.35,559.67 142.82,554.2 140.77,551.67 139.36,551.63 138.69,550.13 139.4,549.64 136.98,548.09 137.47,541.63 138.61,538.17 141.11,536.23 140.83,532.74 150.24,536.43 152.3,538.47 159.98,540.63 176.16,523.05 179.11,516.63 169.05,510.94 170.17,507.48 172.69,504.54 173.71,506.06 175.84,505.11 177.93,505.65 178.95,507.17 184.84,510.78 185.87,512.29 190.4,513.88 194.16,518.93 197.7,517.51 198.35,520.02 206.1,518.68 208.16,520.71 212.01,521.28 212.74,520.3 213.77,521.32 214.14,520.33 213.15,517.32 209.08,509.77 211.89,509.83 209.52,505.3 209.23,502.3 210.63,502.33 211.31,503.84 222.9,503.07 223.85,508.57 227.59,514.62 226.11,518.57 230.64,520.15 232.37,521.68 233.02,524.68 235.12,524.72 234.81,522.72 236.92,522.26 236.6,520.76 241.13,522.34 241.5,521.35 247.48,520.97 249.91,522.51 257.24,524.63 259.36,524.17 263.62,521.26 260.94,514.24 263.43,512.79 263.45,511.3 265.91,511.34 267.69,509.88 260.53,498.3 259.18,495.28 258.9,491.3 241.36,491.47 229.1,490.74 211.26,488.4 195.95,482.61 182.07,475.36 180.7,473.83 162.64,465.98 152.27,459.28 148.84,456.22 146.86,450.7 147.04,442.23 145.03,438.2 137.76,434.56 132.19,433.43 123.08,433.73 117.21,430.1 113.81,425.54 107.95,421.92 104.18,418.34 102.23,412.32 103.71,408.87 108.68,405.5 112.55,404.59 118.49,404.73 121.31,403.8 123.48,400.86 124.24,398.39 123.94,395.89 122.26,392.86 119.88,390.32 115.04,387.72 110.58,384.13 109.59,381.61 109.34,377.62 110.86,372.18 111,366.2 113.25,359.78 115.39,357.84 118.19,357.4 125.42,362.05 129.93,363.15 142.88,361.95 144.63,361.49 147.49,358.56 150.04,353.64 150.11,350.65 149.14,347.14 148.12,346.13 139.52,340.46 129.43,339.23 127.01,338.18 124.41,329.65 122.38,327.12 118.19,327.02 112.07,335.34 109.25,336.77 97.35,337.99 90.49,333.34 87.12,328.28 78.49,324.58 76.47,321.54 76.19,319.04 78.04,314.6 85.19,307.31 85.24,305.32 82.95,299.28 83.74,295.32 85.89,292.88 91.52,290.52 92.95,289.06 94.46,284.12 103.01,275.85 104.49,272.4 103.54,268.39 102.18,266.87 88.14,257.56 83.48,248.98 79.03,217.49 76.35,213.43 69.12,210.76 67.1,208.22 65.82,204.2 65.28,197.71 68.64,188.33 69.16,181.37 68.27,175.37 66.24,173.33 61.77,171.72 61.1,170.71 59.79,167.68 59.89,163.7 58.39,154.69 54.69,150.12" fill="none" stroke="#1e1e1e" stroke-width="1.6" stroke-linecap="round" stroke-linejoin="round"/>
<polyline points="234.37,1326.92 240.08,1330.51 241.1,1334.01 243.64,1333.06 246.63,1327.64 246.3,1325.64 244.52,1324.61 245.26,1323.63 245.31,1320.64 243.88,1320.12 240.61,1321.55 239.07,1326.5 234.37,1326.92" fill="none" stroke="#1e1e1e" stroke-width="1.6" stroke-linecap="round" stroke-linejoin="round"/>
<path d="M190.1,1302.66L185.06,1302.56L187.64,1299.62L190.1,1302.66Z" fill-rule="evenodd" fill="#4682b4" fill-opacity="0.471"/>
<polyline points="190.1,1302.66 185.06,1302.56 187.64,1299.62 190.1,1302.66" fill="none" stroke="#1e1e1e" stroke-width="1.6" stroke-linecap="round" stroke-linejoin="round"/>
<text x="710.73" y="1001.07" font-family="sans-serif" font-size="14" stroke="#ffffff" stroke-opacity="0.784" stroke-width="2.33" stroke-linejoin="round" paint-order="stroke" fill="#141414">Serbia</text>
</svg>
