<?xml version="1.0" encoding="UTF-8" standalone="no"?>
<svg xmlns="http://www.w3.org/2000/svg" width="2000" height="1298" viewBox="0 0 2000 1298">
<rect width="2000" height="1298" fill="#ffffff"/>
<path d="M1881.72,135.48L1881.83,136.78L1883.16,136.62L1883.91,138.1L1881.89,138.6L1881.83,139.64L1880.74,139.85L1878.24,137.78L1875.48,137.37L1873.46,133.33L1868.84,132.77L1867.15,131.41L1865.88,126.81L1867.08,126.03L1870.01,126.75L1870.67,126.06L1870.14,125.32L1871.51,125.68L1874.43,129.89L1876.88,129.62L1877.22,128.61L1878.21,130.12L1881.28,131.87L1882.67,130.87L1885.11,130.95L1885.94,133L1887.86,134.19L1885.25,134.97L1884.63,133.37L1883.49,132.95L1881.92,134L1881.81,135.07L1882.53,135.27L1881.72,135.48Z" fill-rule="evenodd" fill="#4682b4" fill-opacity="0.471"/>
<polyline points="1881.72,135.48 1881.83,136.78 1883.16,136.62 1883.91,138.1 1881.89,138.6 1881.83,139.64 1880.74,139.85 1878.24,137.78 1875.48,137.37 1873.46,133.33 1868.84,132.77 1867.15,131.41 1865.88,126.81 1867.08,126.03 1870.01,126.75 1870.67,126.06 1870.14,125.32 1871.51,125.68 1874.43,129.89 1876.88,129.62 1877.22,128.61 1878.21,130.12 1881.28,131.87 1882.67,130.87 1885.11,130.95 1885.94,133 1887.86,134.19 1885.25,134.97 1884.63,133.37 1883.49,132.95 1881.92,134 1881.81,135.07 1882.53,135.27 1881.72,135.48" fill="none" stroke="#1e1e1e" stroke-width="1.3" stroke-linecap="round" stroke-linejoin="round"/>
<path d="M1873.87,123.02L1878.96,123.45L1875.68,124.49L1876.69,125.55L1876.01,126.11L1872.55,123.97L1873.87,123.02Z" fill-rule="evenodd" fill="#4682b4" fill-opacity="0.471"/>
<polyline points="1873.87,123.02 1878.96,123.45 1875.68,124.49 1876.69,125.55 1876.01,126.11 1872.55,123.97 1873.87,123.02" fill="none" stroke="#1e1e1e" stroke-width="1.3" stroke-linecap="round" stroke-linejoin="round"/>
<path d="M958.34,1091.67L957.15,1087.64L957.62,1085.29L958.45,1087.66L958.34,1091.67Z" fill-rule="evenodd" fill="#4682b4" fill-opacity="0.471"/>
<polyline points="958.34,1091.67 957.15,1087.64 957.62,1085.29 958.45,1087.66 958.34,1091.67" fill="none" stroke="#1e1e1e" stroke-width="1.3" stroke-linecap="round" stroke-linejoin="round"/>
<path d="M1973.25,691.7L1978.52,677.82L1980.44,676.34L1979.31,683.42L1973.25,691.7Z" fill-rule="evenodd" fill="#4682b4" fill-opacity="0.471"/>
<polyline points="1973.25,691.7 1978.52,677.82 1980.44,676.34 1979.31,683.42 1973.25,691.7" fill="none" stroke="#1e1e1e" stroke-width="1.3" stroke-linecap="round" stroke-linejoin="round"/>
<path d="M1286.69,655.9L1286.15,654.46L1286.65,652.65L1288.94,654.33L1286.69,655.9Z" fill-rule="evenodd" fill="#4682b4" fill-opacity="0.471"/>
<polyline points="1286.69,655.9 1286.15,654.46 1286.65,652.65 1288.94,654.33 1286.69,655.9" fill="none" stroke="#1e1e1e" stroke-width="1.3" stroke-linecap="round" stroke-linejoin="round"/>
<path d="M1288.82,681.61L1289.18,683.39L1290.83,683.23L1289.94,684.27L1288.59,684.01L1288.82,681.61Z" fill-rule="evenodd" fill="#4682b4" fill-opacity="0.471"/>
<polyline points="1288.82,681.61 1289.18,683.39 1290.83,683.23 1289.94,684.27 1288.59,684.01 1288.82,681.61" fill="none" stroke="#1e1e1e" stroke-width="1.3" stroke-linecap="round" stroke-linejoin="round"/>
<path d="M1369.21,491.4L1368.97,493.58L1368.35,492.07L1369.21,491.4Z" fill-rule="evenodd" fill="#4682b4" fill-opacity="0.471"/>
<polyline points="1369.21,491.4 1368.97,493.58 1368.35,492.07 1369.21,491.4" fill="none" stroke="#1e1e1e" stroke-width="1.3" stroke-linecap="round" stroke-linejoin="round"/>
<path d="M1348.73,503.82L1349.33,502.55L1350.1,503.03L1348.73,503.82Z" fill-rule="evenodd" fill="#4682b4" fill-opacity="0.471"/>
<polyline points="1348.73,503.82 1349.33,502.55 1350.1,503.03 1348.73,503.82" fill="none" stroke="#1e1e1e" stroke-width="1.3" stroke-linecap="round" stroke-linejoin="round"/>
<path d="M1476.35,394.38L1475.06,396.28L1467.8,399.65L1467.96,397.9L1468.83,397.21L1471.69,396.64L1474.88,394.35L1476.35,394.38Z" fill-rule="evenodd" fill="#4682b4" fill-opacity="0.471"/>
<polyline points="1476.35,394.38 1475.06,396.28 1467.8,399.65 1467.96,397.9 1468.83,397.21 1471.69,396.64 1474.88,394.35 1476.35,394.38" fill="none" stroke="#1e1e1e" stroke-width="1.3" stroke-linecap="round" stroke-linejoin="round"/>
<path d="M1403.06,283.83L1402.68,285.05L1402.12,284.77L1403.06,283.83Z" fill-rule="evenodd" fill="#4682b4" fill-opacity="0.471"/>
<polyline points="1403.06,283.83 1402.68,285.05 1402.12,284.77 1403.06,283.83" fill="none" stroke="#1e1e1e" stroke-width="1.3" stroke-linecap="round" stroke-linejoin="round"/>
<path d="M1397.94,343.73L1400.31,341.83L1401.36,342.43L1399.14,344.18L1397.94,343.73Z" fill-rule="evenodd" fill="#4682b4" fill-opacity="0.471"/>
<polyline points="1397.94,343.73 1400.31,341.83 1401.36,342.43 1399.14,344.18 1397.94,343.73" fill="none" stroke="#1e1e1e" stroke-width="1.3" stroke-linecap="round" stroke-linejoin="round"/>
<path d="M1412.82,347.5L1410.91,348.25L1411.76,346.79L1409.22,345.44L1412.46,346.56L1412.82,347.5Z" fill-rule="evenodd" fill="#4682b4" fill-opacity="0.471"/>
<polyline points="1412.82,347.5 1410.91,348.25 1411.76,346.79 1409.22,345.44 1412.46,346.56 1412.82,347.5" fill="none" stroke="#1e1e1e" stroke-width="1.3" stroke-linecap="round" stroke-linejoin="round"/>
<path d="M1782.94,162.9L1780.69,168.32L1777.01,168.38L1776.91,166.49L1773.43,163.42L1773.79,160.2L1777.94,158.9L1780.73,160.35L1782.04,162.83L1782.94,162.9Z" fill-rule="evenodd" fill="#4682b4" fill-opacity="0.471"/>
<polyline points="1782.94,162.9 1780.69,168.32 1777.01,168.38 1776.91,166.49 1773.43,163.42 1773.79,160.2 1777.94,158.9 1780.73,160.35 1782.04,162.83 1782.94,162.9" fill="none" stroke="#1e1e1e" stroke-width="1.3" stroke-linecap="round" stroke-linejoin="round"/>
<path d="M1779.91,143.08L1782.67,145.62L1780.86,146.7L1779.88,145.18L1779.91,143.08Z" fill-rule="evenodd" fill="#4682b4" fill-opacity="0.471"/>
<polyline points="1779.91,143.08 1782.67,145.62 1780.86,146.7 1779.88,145.18 1779.91,143.08" fill="none" stroke="#1e1e1e" stroke-width="1.3" stroke-linecap="round" stroke-linejoin="round"/>
<path d="M1905.28,135.67L1902.35,132.29L1902.9,131.16L1905.06,132.46L1906.24,134.91L1905.28,135.67Z" fill-rule="evenodd" fill="#4682b4" fill-opacity="0.471"/>
<polyline points="1905.28,135.67 1902.35,132.29 1902.9,131.16 1905.06,132.46 1906.24,134.91 1905.28,135.67" fill="none" stroke="#1e1e1e" stroke-width="1.3" stroke-linecap="round" stroke-linejoin="round"/>
<path d="M1895.28,142.47L1894.36,140.15L1895.92,135.05L1898.19,136.7L1900.64,140.62L1897.97,142.5L1897.61,144.21L1895.28,142.47Z" fill-rule="evenodd" fill="#4682b4" fill-opacity="0.471"/>
<polyline points="1895.28,142.47 1894.36,140.15 1895.92,135.05 1898.19,136.7 1900.64,140.62 1897.97,142.5 1897.61,144.21 1895.28,142.47" fill="none" stroke="#1e1e1e" stroke-width="1.3" stroke-linecap="round" stroke-linejoin="round"/>
<path d="M1863.27,133.05L1862.74,134.33L1861.72,133.56L1863.27,133.05Z" fill-rule="evenodd" fill="#4682b4" fill-opacity="0.471"/>
<polyline points="1863.27,133.05 1862.74,134.33 1861.72,133.56 1863.27,133.05" fill="none" stroke="#1e1e1e" stroke-width="1.3" stroke-linecap="round" stroke-linejoin="round"/>
<path d="M1899.87,124.69L1901.16,126.31L1899.87,124.69Z" fill-rule="evenodd" fill="#4682b4" fill-opacity="0.471"/>
<polyline points="1899.87,124.69 1901.16,126.31 1899.87,124.69" fill="none" stroke="#1e1e1e" stroke-width="1.3" stroke-linecap="round" stroke-linejoin="round"/>
<path d="M1913.92,136.36L1913.36,138.09L1912.61,135.99L1913.2,134.66L1913.92,136.36Z" fill-rule="evenodd" fill="#4682b4" fill-opacity="0.471"/>
<polyline points="1913.92,136.36 1913.36,138.09 1912.61,135.99 1913.2,134.66 1913.92,136.36" fill="none" stroke="#1e1e1e" stroke-width="1.3" stroke-linecap="round" stroke-linejoin="round"/>
<path d="M1903.87,127.37L1902.66,126.02L1902.54,124.6L1903.83,125.73L1903.87,127.37Z" fill-rule="evenodd" fill="#4682b4" fill-opacity="0.471"/>
<polyline points="1903.87,127.37 1902.66,126.02 1902.54,124.6 1903.83,125.73 1903.87,127.37" fill="none" stroke="#1e1e1e" stroke-width="1.3" stroke-linecap="round" stroke-linejoin="round"/>
<path d="M1862.29,110.39L1864.46,110.01L1865.31,110.76L1862.29,110.39Z" fill-rule="evenodd" fill="#4682b4" fill-opacity="0.471"/>
<polyline points="1862.29,110.39 1864.46,110.01 1865.31,110.76 1862.29,110.39" fill="none" stroke="#1e1e1e" stroke-width="1.3" stroke-linecap="round" stroke-linejoin="round"/>
<path d="M1803.32,197.71L1805.64,199.03L1803.66,198.62L1803.32,197.71Z" fill-rule="evenodd" fill="#4682b4" fill-opacity="0.471"/>
<polyline points="1803.32,197.71 1805.64,199.03 1803.66,198.62 1803.32,197.71" fill="none" stroke="#1e1e1e" stroke-width="1.3" stroke-linecap="round" stroke-linejoin="round"/>
<path d="M1811.75,201.66L1810.1,199.33L1811.79,199.86L1811.75,201.66Z" fill-rule="evenodd" fill="#4682b4" fill-opacity="0.471"/>
<polyline points="1811.75,201.66 1810.1,199.33 1811.79,199.86 1811.75,201.66" fill="none" stroke="#1e1e1e" stroke-width="1.3" stroke-linecap="round" stroke-linejoin="round"/>
<path d="M1831.55,193.66L1828.79,192.58L1829.24,191.57L1831.41,192.54L1831.55,193.66Z" fill-rule="evenodd" fill="#4682b4" fill-opacity="0.471"/>
<polyline points="1831.55,193.66 1828.79,192.58 1829.24,191.57 1831.41,192.54 1831.55,193.66" fill="none" stroke="#1e1e1e" stroke-width="1.3" stroke-linecap="round" stroke-linejoin="round"/>
<path d="M1829.78,188.81L1829.84,186.65L1830.9,185.52L1832.99,186.27L1833.16,187.17L1832.12,188.08L1829.78,188.81Z" fill-rule="evenodd" fill="#4682b4" fill-opacity="0.471"/>
<polyline points="1829.78,188.81 1829.84,186.65 1830.9,185.52 1832.99,186.27 1833.16,187.17 1832.12,188.08 1829.78,188.81" fill="none" stroke="#1e1e1e" stroke-width="1.3" stroke-linecap="round" stroke-linejoin="round"/>
<path d="M87.21,1191.23L84.67,1196.03L80.83,1196.3L80.89,1193.52L84.61,1190.81L85.2,1188.51L84.7,1186.19L85.53,1185.3L86.9,1187.09L87.21,1191.23Z" fill-rule="evenodd" fill="#4682b4" fill-opacity="0.471"/>
<polyline points="87.21,1191.23 84.67,1196.03 80.83,1196.3 80.89,1193.52 84.61,1190.81 85.2,1188.51 84.7,1186.19 85.53,1185.3 86.9,1187.09 87.21,1191.23" fill="none" stroke="#1e1e1e" stroke-width="1.3" stroke-linecap="round" stroke-linejoin="round"/>
<path d="M86.22,1127.97L85.68,1131.63L82.36,1135.38L73.5,1138.13L69.48,1137.85L66.44,1136.68L62.42,1137.01L55.86,1139.79L50.95,1140.77L42.72,1145.36L39.42,1146.12L34.12,1146.09L30.16,1144.36L28.55,1141.82L25.28,1132.05L26.24,1131.62L28.57,1135.84L29.1,1136.35L29.47,1135.79L32.77,1139.63L34.31,1139.85L35.24,1138.96L35.78,1140.25L36.7,1139.93L36.26,1141.24L39,1141.2L40.07,1140.25L40.95,1140.53L41.21,1139.65L42.11,1140.59L42.86,1139.82L43.4,1140.43L43.81,1139.67L45.01,1139.84L44.63,1139.18L52.18,1137.92L52.53,1136.83L53.98,1136.87L54.55,1135.93L55.51,1136.05L56.18,1137.64L56.61,1136.22L58.33,1135.84L58.95,1136.48L58.83,1135.16L59.26,1135.97L60.17,1135.16L61.24,1136.04L60.73,1134.99L61.61,1134.63L63.88,1135.42L64.13,1134.33L65.7,1134.94L67.39,1133.34L67.75,1131.34L73.13,1131.42L73.33,1130.23L75.53,1132.21L78.87,1131.72L76.01,1129.74L76.25,1127.78L75.27,1127.7L74.86,1125.23L73.37,1124.62L72.78,1125.13L73.04,1123.89L71.58,1123.81L70.57,1122.26L79.94,1124.04L85.67,1126.76L86.22,1127.97Z" fill-rule="evenodd" fill="#4682b4" fill-opacity="0.471"/>
<polyline points="86.22,1127.97 85.68,1131.63 82.36,1135.38 73.5,1138.13 69.48,1137.85 66.44,1136.68 62.42,1137.01 55.86,1139.79 50.95,1140.77 42.72,1145.36 39.42,1146.12 34.12,1146.09 30.16,1144.36 28.55,1141.82 25.28,1132.05 26.24,1131.62 28.57,1135.84 29.1,1136.35 29.47,1135.79 32.77,1139.63 34.31,1139.85 35.24,1138.96 35.78,1140.25 36.7,1139.93 36.26,1141.24 39,1141.2 40.07,1140.25 40.95,1140.53 41.21,1139.65 42.11,1140.59 42.86,1139.82 43.4,1140.43 43.81,1139.67 45.01,1139.84 44.63,1139.18 52.18,1137.92 52.53,1136.83 53.98,1136.87 54.55,1135.93 55.51,1136.05 56.18,1137.64 56.61,1136.22 58.33,1135.84 58.95,1136.48 58.83,1135.16 59.26,1135.97 60.17,1135.16 61.24,1136.04 60.73,1134.99 61.61,1134.63 63.88,1135.42 64.13,1134.33 65.7,1134.94 67.39,1133.34 67.75,1131.34 73.13,1131.42 73.33,1130.23 75.53,1132.21 78.87,1131.72 76.01,1129.74 76.25,1127.78 75.27,1127.7 74.86,1125.23 73.37,1124.62 72.78,1125.13 73.04,1123.89 71.58,1123.81 70.57,1122.26 79.94,1124.04 85.67,1126.76 86.22,1127.97" fill="none" stroke="#1e1e1e" stroke-width="1.3" stroke-linecap="round" stroke-linejoin="round"/>
<path d="M25.38,1123.78L31.32,1122.18L31.33,1123.42L29.47,1123.05L31.47,1123.82L32.11,1126.57L31.8,1125.1L31.16,1125.49L30.22,1123.62L30.57,1125.3L28.59,1125.06L27.74,1125.84L29,1126.98L28.48,1127.47L29.76,1127.83L29.13,1128.68L26.36,1127.06L25.69,1127.23L26.44,1127.91L25.01,1128.59L24.36,1125.59L25.38,1123.78Z" fill-rule="evenodd" fill="#4682b4" fill-opacity="0.471"/>
<polyline points="25.38,1123.78 31.32,1122.18 31.33,1123.42 29.47,1123.05 31.47,1123.82 32.11,1126.57 31.8,1125.1 31.16,1125.49 30.22,1123.62 30.57,1125.3 28.59,1125.06 27.74,1125.84 29,1126.98 28.48,1127.47 29.76,1127.83 29.13,1128.68 26.36,1127.06 25.69,1127.23 26.44,1127.91 25.01,1128.59 24.36,1125.59 25.38,1123.78" fill="none" stroke="#1e1e1e" stroke-width="1.3" stroke-linecap="round" stroke-linejoin="round"/>
<path d="M71.63,1127.47L71.68,1130.05L70.85,1128.69L71.63,1127.47Z" fill-rule="evenodd" fill="#4682b4" fill-opacity="0.471"/>
<polyline points="71.63,1127.47 71.68,1130.05 70.85,1128.69 71.63,1127.47" fill="none" stroke="#1e1e1e" stroke-width="1.3" stroke-linecap="round" stroke-linejoin="round"/>
<path d="M73.22,1125.35L74.54,1126.89L72.75,1126.37L73.22,1125.35Z" fill-rule="evenodd" fill="#4682b4" fill-opacity="0.471"/>
<polyline points="73.22,1125.35 74.54,1126.89 72.75,1126.37 73.22,1125.35" fill="none" stroke="#1e1e1e" stroke-width="1.3" stroke-linecap="round" stroke-linejoin="round"/>
<path d="M74.11,1127.18L74.85,1127.1L75.26,1128.33L73.85,1129.1L74.11,1127.18Z" fill-rule="evenodd" fill="#4682b4" fill-opacity="0.471"/>
<polyline points="74.11,1127.18 74.85,1127.1 75.26,1128.33 73.85,1129.1 74.11,1127.18" fill="none" stroke="#1e1e1e" stroke-width="1.3" stroke-linecap="round" stroke-linejoin="round"/>
<path d="M32.65,1132.72L34.42,1133.19L33.72,1133.79L32.65,1132.72Z" fill-rule="evenodd" fill="#4682b4" fill-opacity="0.471"/>
<polyline points="32.65,1132.72 34.42,1133.19 33.72,1133.79 32.65,1132.72" fill="none" stroke="#1e1e1e" stroke-width="1.3" stroke-linecap="round" stroke-linejoin="round"/>
<path d="M32.44,1122.21L38.54,1122.03L38.54,1122.59L34.45,1123.58L32.44,1122.21Z" fill-rule="evenodd" fill="#4682b4" fill-opacity="0.471"/>
<polyline points="32.44,1122.21 38.54,1122.03 38.54,1122.59 34.45,1123.58 32.44,1122.21" fill="none" stroke="#1e1e1e" stroke-width="1.3" stroke-linecap="round" stroke-linejoin="round"/>
<path d="M304.25,1193.66L304.64,1191.79L303.96,1190.94L305.7,1191.03L303.88,1195.23L301.6,1196.39L304.25,1193.66Z" fill-rule="evenodd" fill="#4682b4" fill-opacity="0.471"/>
<polyline points="304.25,1193.66 304.64,1191.79 303.96,1190.94 305.7,1191.03 303.88,1195.23 301.6,1196.39 304.25,1193.66" fill="none" stroke="#1e1e1e" stroke-width="1.3" stroke-linecap="round" stroke-linejoin="round"/>
<path d="M320.88,1263.88L318.51,1260.83L321.46,1257.18L323.01,1253.75L325.69,1256.38L326.48,1260.14L324.88,1263.28L321.65,1264.34L321.16,1262.82L323.82,1262.86L325.98,1259.1L325.95,1257.51L324.71,1257.04L323.97,1255.1L320.48,1262.03L320.88,1263.88Z" fill-rule="evenodd" fill="#4682b4" fill-opacity="0.471"/>
<polyline points="320.88,1263.88 318.51,1260.83 321.46,1257.18 323.01,1253.75 325.69,1256.38 326.48,1260.14 324.88,1263.28 321.65,1264.34 321.16,1262.82 323.82,1262.86 325.98,1259.1 325.95,1257.51 324.71,1257.04 323.97,1255.1 320.48,1262.03 320.88,1263.88" fill="none" stroke="#1e1e1e" stroke-width="1.3" stroke-linecap="round" stroke-linejoin="round"/>
<path d="M1775.41,12.9L1773.75,14.42L1774.36,11.24L1775.41,12.9Z" fill-rule="evenodd" fill="#4682b4" fill-opacity="0.471"/>
<polyline points="1775.41,12.9 1773.75,14.42 1774.36,11.24 1775.41,12.9" fill="none" stroke="#1e1e1e" stroke-width="1.3" stroke-linecap="round" stroke-linejoin="round"/>
<path d="M1823.43,185.22L1822.4,185.08L1823.42,183.38L1823.43,185.22Z" fill-rule="evenodd" fill="#4682b4" fill-opacity="0.471"/>
<polyline points="1823.43,185.22 1822.4,185.08 1823.42,183.38 1823.43,185.22" fill="none" stroke="#1e1e1e" stroke-width="1.3" stroke-linecap="round" stroke-linejoin="round"/>
<path d="M1822.69,187.53L1823.33,189.96L1822.33,189.35L1822.69,187.53Z" fill-rule="evenodd" fill="#4682b4" fill-opacity="0.471"/>
<polyline points="1822.69,187.53 1823.33,189.96 1822.33,189.35 1822.69,187.53" fill="none" stroke="#1e1e1e" stroke-width="1.3" stroke-linecap="round" stroke-linejoin="round"/>
<path d="M1824.67,186.86L1824.24,188.66L1824.36,187.91L1822.99,187.53L1822.69,185.67L1824.67,186.86Z" fill-rule="evenodd" fill="#4682b4" fill-opacity="0.471"/>
<polyline points="1824.67,186.86 1824.24,188.66 1824.36,187.91 1822.99,187.53 1822.69,185.67 1824.67,186.86" fill="none" stroke="#1e1e1e" stroke-width="1.3" stroke-linecap="round" stroke-linejoin="round"/>
<path d="M1805.6,432.38L1806.31,433.11L1805.71,434.68L1805.6,432.38Z" fill-rule="evenodd" fill="#4682b4" fill-opacity="0.471"/>
<polyline points="1805.6,432.38 1806.31,433.11 1805.71,434.68 1805.6,432.38" fill="none" stroke="#1e1e1e" stroke-width="1.3" stroke-linecap="round" stroke-linejoin="round"/>
<path d="M985.45,1269.96L987.78,1267.3L987.3,1264.69L986.15,1262.87L984.29,1263.39L983.48,1264.68L982.47,1264.06L985.46,1261.14L987.36,1263.09L988.33,1266.37L987.49,1269.39L985.86,1270.43L985.45,1269.96Z" fill-rule="evenodd" fill="#4682b4" fill-opacity="0.471"/>
<polyline points="985.45,1269.96 987.78,1267.3 987.3,1264.69 986.15,1262.87 984.29,1263.39 983.48,1264.68 982.47,1264.06 985.46,1261.14 987.36,1263.09 988.33,1266.37 987.49,1269.39 985.86,1270.43 985.45,1269.96" fill="none" stroke="#1e1e1e" stroke-width="1.3" stroke-linecap="round" stroke-linejoin="round"/>
<path d="M983.56,1275.43L984.34,1272.44L985.46,1271.53L986.38,1272.33L986.05,1273.15L982.16,1280.43L981.14,1280.52L981.21,1278.58L983.56,1275.43Z" fill-rule="evenodd" fill="#4682b4" fill-opacity="0.471"/>
<polyline points="983.56,1275.43 984.34,1272.44 985.46,1271.53 986.38,1272.33 986.05,1273.15 982.16,1280.43 981.14,1280.52 981.21,1278.58 983.56,1275.43" fill="none" stroke="#1e1e1e" stroke-width="1.3" stroke-linecap="round" stroke-linejoin="round"/>
<path d="M976.54,1283.77L977.8,1284.04L976.68,1284.8L976.54,1283.77Z" fill-rule="evenodd" fill="#4682b4" fill-opacity="0.471"/>
<polyline points="976.54,1283.77 977.8,1284.04 976.68,1284.8 976.54,1283.77" fill="none" stroke="#1e1e1e" stroke-width="1.3" stroke-linecap="round" stroke-linejoin="round"/>
<path d="M897.99,1108.81L899.5,1108.1L900.53,1109.64L898.49,1110.4L897.99,1108.81Z" fill-rule="evenodd" fill="#4682b4" fill-opacity="0.471"/>
<polyline points="897.99,1108.81 899.5,1108.1 900.53,1109.64 898.49,1110.4 897.99,1108.81" fill="none" stroke="#1e1e1e" stroke-width="1.3" stroke-linecap="round" stroke-linejoin="round"/>
<path d="M1864.13,32.38L1863.25,29.88L1864.88,29.21L1865.48,30.74L1864.13,32.38Z" fill-rule="evenodd" fill="#4682b4" fill-opacity="0.471"/>
<polyline points="1864.13,32.38 1863.25,29.88 1864.88,29.21 1865.48,30.74 1864.13,32.38" fill="none" stroke="#1e1e1e" stroke-width="1.3" stroke-linecap="round" stroke-linejoin="round"/>
<path d="M1825.02,194.01L1826.93,195.93L1825.6,195.37L1825.02,194.01Z" fill-rule="evenodd" fill="#4682b4" fill-opacity="0.471"/>
<polyline points="1825.02,194.01 1826.93,195.93 1825.6,195.37 1825.02,194.01" fill="none" stroke="#1e1e1e" stroke-width="1.3" stroke-linecap="round" stroke-linejoin="round"/>
<path d="M1918.36,183.83L1918.13,185.5L1916.27,185.38L1914.96,183.55L1916.7,182.71L1918.02,184.32L1918.36,183.83Z" fill-rule="evenodd" fill="#4682b4" fill-opacity="0.471"/>
<polyline points="1918.36,183.83 1918.13,185.5 1916.27,185.38 1914.96,183.55 1916.7,182.71 1918.02,184.32 1918.36,183.83" fill="none" stroke="#1e1e1e" stroke-width="1.3" stroke-linecap="round" stroke-linejoin="round"/>
<path d="M294.07,1197.47L289.27,1198L288.91,1197.5L294.07,1197.47Z" fill-rule="evenodd" fill="#4682b4" fill-opacity="0.471"/>
<polyline points="294.07,1197.47 289.27,1198 288.91,1197.5 294.07,1197.47" fill="none" stroke="#1e1e1e" stroke-width="1.3" stroke-linecap="round" stroke-linejoin="round"/>
<path d="M277.14,1189.79L276.88,1186.15L277.88,1185.18L280.87,1185.17L279.3,1185.65L278.97,1187.76L277.77,1187.93L277.14,1189.79Z" fill-rule="evenodd" fill="#4682b4" fill-opacity="0.471"/>
<polyline points="277.14,1189.79 276.88,1186.15 277.88,1185.18 280.87,1185.17 279.3,1185.65 278.97,1187.76 277.77,1187.93 277.14,1189.79" fill="none" stroke="#1e1e1e" stroke-width="1.3" stroke-linecap="round" stroke-linejoin="round"/>
<path d="M1401.59,407.42L1402.5,408.3L1399.74,409.12L1399.69,407.58L1401.59,407.42Z" fill-rule="evenodd" fill="#4682b4" fill-opacity="0.471"/>
<polyline points="1401.59,407.42 1402.5,408.3 1399.74,409.12 1399.69,407.58 1401.59,407.42" fill="none" stroke="#1e1e1e" stroke-width="1.3" stroke-linecap="round" stroke-linejoin="round"/>
<path d="M1400.51,411.96L1401.02,410.18L1401.34,413.79L1401.89,412.76L1401.24,410.02L1402.13,411.76L1401.48,414.42L1399.49,411.61L1400.45,411.07L1400.51,411.96Z" fill-rule="evenodd" fill="#4682b4" fill-opacity="0.471"/>
<polyline points="1400.51,411.96 1401.02,410.18 1401.34,413.79 1401.89,412.76 1401.24,410.02 1402.13,411.76 1401.48,414.42 1399.49,411.61 1400.45,411.07 1400.51,411.96" fill="none" stroke="#1e1e1e" stroke-width="1.3" stroke-linecap="round" stroke-linejoin="round"/>
<path d="M69.2,1123.45L63.58,1125.31L63.77,1124.68L60.65,1124.94L58.39,1124.09L56.23,1124.85L55.2,1124.14L52.59,1124.46L51.62,1123.65L48.2,1123.85L48.14,1124.51L44.47,1123.8L41.94,1124.48L41.39,1123.42L38.65,1123.14L38.77,1122.04L40.85,1121.45L55.65,1121.69L59.96,1120.98L69.8,1122.28L69.2,1123.45Z" fill-rule="evenodd" fill="#4682b4" fill-opacity="0.471"/>
<polyline points="69.2,1123.45 63.58,1125.31 63.77,1124.68 60.65,1124.94 58.39,1124.09 56.23,1124.85 55.2,1124.14 52.59,1124.46 51.62,1123.65 48.2,1123.85 48.14,1124.51 44.47,1123.8 41.94,1124.48 41.39,1123.42 38.65,1123.14 38.77,1122.04 40.85,1121.45 55.65,1121.69 59.96,1120.98 69.8,1122.28 69.2,1123.45" fill="none" stroke="#1e1e1e" stroke-width="1.3" stroke-linecap="round" stroke-linejoin="round"/>
<path d="M1815.54,188.98L1817.16,187.5L1817.44,178.74L1820.92,178.6L1823.95,182.53L1822.1,184.75L1822.93,187.05L1822.02,190.29L1822.23,189.42L1823.03,190.28L1821.81,190.97L1823.85,191.4L1823.31,192.49L1824.85,192.38L1824.97,193.96L1823.91,193.8L1826.85,196.98L1827.68,196.91L1826.99,195.92L1828.31,196.03L1828.63,197.11L1829.06,196.68L1830.8,197.99L1829.54,198.25L1830.22,199.22L1828.91,197.96L1830.12,199.35L1832.25,198.76L1836.16,201.47L1837.1,200.7L1836.5,203.59L1836.11,202.75L1834.42,207.07L1835.26,211.67L1836.2,212.31L1833.92,213.5L1833.27,215.2L1835.05,219.58L1834.88,222.07L1837.37,223.98L1837.36,226.22L1834.95,225.52L1833.78,226.64L1833.47,225.73L1830.57,224.33L1830.32,222.36L1828.53,221.48L1829,220.18L1826.87,218.81L1827.5,217.95L1826.68,216.83L1825.12,216.92L1823.95,218.68L1822.86,217.1L1823.45,215.96L1822.92,214.61L1823.72,213.71L1825.7,214.08L1828.55,212.96L1828.35,211.84L1826.15,209.98L1825.81,208.61L1826.88,208.03L1825.98,206.56L1824.19,207.13L1820.42,201.31L1817.42,201.24L1812.8,197.47L1811.79,197.58L1811.58,198.48L1809.5,197.25L1809.47,196.58L1810.92,196.28L1810.22,195.42L1807.98,194.62L1808.29,195.34L1806.52,195.7L1804.16,194.13L1804.55,193.47L1806.9,194.32L1807.17,193.63L1805.78,192.07L1809.18,189.77L1815.54,188.98Z" fill-rule="evenodd" fill="#4682b4" fill-opacity="0.471"/>
<polyline points="1815.54,188.98 1817.16,187.5 1817.44,178.74 1820.92,178.6 1823.95,182.53 1822.1,184.75 1822.93,187.05 1822.02,190.29 1822.23,189.42 1823.03,190.28 1821.81,190.97 1823.85,191.4 1823.31,192.49 1824.85,192.38 1824.97,193.96 1823.91,193.8 1826.85,196.98 1827.68,196.91 1826.99,195.92 1828.31,196.03 1828.63,197.11 1829.06,196.68 1830.8,197.99 1829.54,198.25 1830.22,199.22 1828.91,197.96 1830.12,199.35 1832.25,198.76 1836.16,201.47 1837.1,200.7 1836.5,203.59 1836.11,202.75 1834.42,207.07 1835.26,211.67 1836.2,212.31 1833.92,213.5 1833.27,215.2 1835.05,219.58 1834.88,222.07 1837.37,223.98 1837.36,226.22 1834.95,225.52 1833.78,226.64 1833.47,225.73 1830.57,224.33 1830.32,222.36 1828.53,221.48 1829,220.18 1826.87,218.81 1827.5,217.95 1826.68,216.83 1825.12,216.92 1823.95,218.68 1822.86,217.1 1823.45,215.96 1822.92,214.61 1823.72,213.71 1825.7,214.08 1828.55,212.96 1828.35,211.84 1826.15,209.98 1825.81,208.61 1826.88,208.03 1825.98,206.56 1824.19,207.13 1820.42,201.31 1817.42,201.24 1812.8,197.47 1811.79,197.58 1811.58,198.48 1809.5,197.25 1809.47,196.58 1810.92,196.28 1810.22,195.42 1807.98,194.62 1808.29,195.34 1806.52,195.7 1804.16,194.13 1804.55,193.47 1806.9,194.32 1807.17,193.63 1805.78,192.07 1809.18,189.77 1815.54,188.98" fill="none" stroke="#1e1e1e" stroke-width="1.3" stroke-linecap="round" stroke-linejoin="round"/>
<path d="M1827.19,194.24L1827,194.82L1825.53,194.05L1825.48,192.83L1827.19,194.24Z" fill-rule="evenodd" fill="#4682b4" fill-opacity="0.471"/>
<polyline points="1827.19,194.24 1827,194.82 1825.53,194.05 1825.48,192.83 1827.19,194.24" fill="none" stroke="#1e1e1e" stroke-width="1.3" stroke-linecap="round" stroke-linejoin="round"/>
</svg>
