<?xml version="1.0" encoding="UTF-8" standalone="no"?>
<svg xmlns="http://www.w3.org/2000/svg" width="1953" height="2000" viewBox="0 0 1953 2000">
<rect width="1953" height="2000" fill="#ffffff"/>
<path d="M28.87,1033.49L31.79,1040.28L36,1044.13L36.29,1049.22L43.4,1055.35L54.91,1073.72L73.92,1081.1L82.18,1100.27L80.45,1104.07L86.38,1113.54L91.84,1115.11L98.04,1111.49L102.52,1112.28L94.78,1116.04L97.2,1122.38L92.57,1129.82L97.67,1132.97L104.53,1157.87L99.32,1172L100.8,1179.54L98.41,1183.33L101.19,1187L117.94,1174.35L120.61,1169.63L135.21,1166.56L139.63,1159.25L150.86,1155.54L153.19,1147.73L163.93,1142.84L182.03,1144.01L191.77,1141.62L200.32,1145.86L204.31,1143.45L212.47,1144.51L212.55,1154.59L208.64,1162.74L240.81,1196.02L253.62,1221.5L252.94,1225.81L259.47,1231.38L258.96,1236.17L267.79,1240.39L270.13,1245.8L263.71,1270.02L274.07,1322.29L271.84,1330.29L262.73,1333.19L245.52,1347.63L234.6,1351.05L227.65,1350.28L240.98,1364.52L249.44,1378.94L259.74,1380.03L268.21,1385.44L279.93,1398.93L284.33,1409.1L323.32,1431.91L325.88,1432.14L328.12,1427.97L334.55,1428.89L338.02,1451.47L352.23,1460.71L358.87,1460.25L368.71,1473.76L380.11,1480.17L387.67,1489.12L404.03,1485.35L403.75,1483.21L405.21,1481.1L405.36,1482.43L403.87,1483.25L405.22,1483.34L405.09,1484.68L434.29,1493.49L440.76,1493.72L446.63,1488.12L448.37,1489.85L445.28,1496.91L466.01,1499.67L513.78,1464.09L523.65,1459.35L530.39,1446.24L535.41,1442.01L533.35,1457.76L538.03,1462.64L541.15,1473.46L547.96,1474.04L555.47,1463.88L553.39,1473.26L545.01,1477.45L539.09,1474.93L531.68,1463.17L527.88,1461.6L515.65,1477.86L509.93,1495.71L493.36,1500.91L491.37,1509.73L496,1519.47L500.73,1524.31L508.3,1524.93L515.07,1531.63L523.12,1521.13L544.25,1511.14L548.93,1504.42L549,1507.48L546.32,1511.97L547.04,1513.33L546.17,1514.74L546.7,1515.75L548.15,1515.06L551.33,1516.99L551.58,1514.41L552.16,1516.87L549.05,1516.7L548.24,1515.3L546.51,1515.82L545.95,1514.65L546.76,1513.31L546.06,1512.11L523.23,1526.61L521.92,1531.61L522.43,1535.64L529.87,1538.6L536.64,1546.53L542.54,1573.02L547.41,1575.33L546.33,1577.81L544.22,1576.31L543.49,1578.41L541.42,1576.24L542.05,1581.02L542.75,1580.52L544.84,1584.76L569.67,1582.35L596.8,1591.9L604.32,1586.66L608.66,1578.47L615.23,1579.4L610.99,1582.33L612.41,1585.4L606.92,1596.11L593.9,1598.77L590.72,1596.38L576.1,1600.57L567.35,1599.38L561.6,1603.28L556.32,1610.88L549.5,1614.35L544.7,1627.55L528.52,1652.95L545.59,1668.27L571.7,1663.32L589.48,1668L593.56,1670.58L595.59,1677.18L588.29,1668.23L581.56,1667.59L596.6,1680.99L606.03,1679.94L605.36,1683.48L616.29,1694.25L571.14,1675.46L535.59,1679.3L520.5,1689.71L514.04,1689.63L508.77,1693.28L540.82,1698.01L624.43,1723.4L865.86,1818.01L971.87,1867.28L1061.07,1918.36L1078.27,1932.76L1082.99,1946.28L1093.7,1953.94L1093.77,1956.57L1163.27,1991.7L8,1989.88L11.72,1033.43L28.87,1033.49ZM532.75,1659.45L525.64,1652.88L523.91,1656.66L530.67,1664.4L532.75,1659.45ZM511.02,1638.68L511.31,1641.39L513.71,1641.27L515.66,1638.48L511.02,1638.68ZM503.7,1553.7L478.9,1546.06L463.7,1530.61L439.68,1528.08L425.72,1531.06L398.82,1529.69L378.46,1539.51L377.07,1536.3L359.67,1539.03L333.94,1535.12L323.35,1539.45L315.93,1538.62L303.95,1542.59L302.05,1545.46L292.62,1541.91L290.66,1544.29L285.3,1542.85L261.07,1551.32L253.17,1558.83L265.96,1566.71L268.66,1571.69L278.03,1571.35L280.81,1574.34L283.96,1572.13L285.87,1575.36L284.19,1572.86L280.23,1575.05L276.86,1571.83L273.71,1575.75L265.65,1569.73L257.21,1567.63L245.4,1569.8L236,1567.16L229.12,1572.25L231.05,1574.83L261.07,1578.37L341.41,1599.47L428.41,1629.21L460.06,1643.71L470.06,1651.18L480.08,1669.78L478.25,1684.51L484.36,1690.41L484.06,1693.38L502.68,1686.89L498.2,1667.25L493.94,1666.97L496,1666.15L497.43,1667.04L498.8,1665.47L502.59,1637.82L527.83,1615.26L527.73,1610.71L521.56,1605.48L518.32,1595.7L518.89,1588.69L525.68,1577.4L524.07,1571.14L503.7,1553.7ZM523.65,1592.48L525,1598.16L526.84,1595.19L526.76,1592.06L523.65,1592.48ZM221.68,1561.79L209.69,1558.74L206.75,1563.29L206.41,1559.69L202.68,1560.84L210.93,1569.3L220.69,1571.25L224.72,1568.15L221.68,1561.79ZM250.18,1559.31L247.52,1562.97L249.24,1564.39L253.02,1562.3L250.18,1559.31ZM188.64,1551.85L191.98,1559.69L201.36,1559L197.2,1558.86L198.89,1552.55L191.53,1554.06L188.64,1551.85ZM516.75,1542.82L529.1,1551.43L535.23,1551.57L529.78,1541.75L516.75,1542.82ZM258.18,1539.77L254.75,1543.22L256.63,1543.34L260.22,1539.64L258.18,1539.77ZM200.98,1532.9L207.47,1532.6L208.55,1529.41L205.4,1527.12L200.28,1530.57L200.98,1532.9ZM171.72,1533.12L172.26,1528.62L176.58,1522.41L188.14,1516.69L182.37,1515.79L165.01,1528.27L158.12,1528.01L160.85,1533.12L159.79,1540.73L172.34,1542.47L176.58,1539.84L177.88,1538.04L175.32,1539.36L171.72,1533.12ZM496.99,1524.94L491.69,1517.4L486.63,1518.29L489.58,1527.77L497.49,1537.37L506.2,1538.81L507.1,1529.99L496.99,1524.94ZM163.48,1504.77L158.08,1507.82L161.87,1508.11L167.29,1504.94L163.48,1504.77ZM496.45,1492.33L499.6,1494.73L509.89,1492.72L511.3,1480.31L501.93,1483.85L496.45,1492.33ZM47.06,1236.07L49.87,1233.61L47.91,1231.28L47.76,1234.27L43.79,1235.44L47.06,1236.07ZM50.87,1233L63.88,1230.62L63.79,1224.22L56.11,1225.78L50.31,1230.62L50.87,1233ZM72.09,1215.84L63.68,1220.05L63.76,1223.99L71.57,1224.49L72.31,1216.91L82.95,1206.8L81.24,1204.77L72.09,1215.84ZM603.41,1681.65L595.87,1681.55L586.73,1672.62L583.25,1671.86L586.49,1675.88L584.22,1673.59L570.82,1670.77L582.1,1674.41L586.61,1679.72L601.51,1687.07L606.64,1687.22L603.41,1681.65ZM577.79,1673.68L580.27,1676.46L584.89,1677.74L577.79,1673.68ZM558.66,1672.71L554.13,1676.55L562.86,1675.97L564.78,1674.68L558.66,1672.71ZM576.28,1665.49L564.67,1666.52L583.22,1670.55L576.28,1665.49ZM539.46,1611.02L537.58,1604.48L535.96,1610.73L539.46,1611.02ZM526.88,1600.15L532.53,1605.51L531.97,1601.85L528.73,1596.3L526.88,1600.15ZM542.41,1605.44L546.7,1600.77L547.41,1593.02L541.73,1590.54L536.65,1592.86L537.49,1599.45L542.41,1605.44ZM597.82,1592.66L598.13,1594.99L604.41,1591.59L605.23,1587.54L597.82,1592.66ZM565.93,1590.28L560.44,1588.6L564,1591.07L565.93,1590.28ZM539.1,1589.93L533.05,1586.49L534.75,1591.68L539.1,1589.93ZM537.22,1571.42L538.86,1573.59L539.97,1569.08L539.27,1567.26L537.22,1571.42ZM531.9,1556.99L531.72,1561.4L534.64,1566.28L537.71,1561.05L531.9,1556.99ZM532.16,1555.92L532.82,1557.36L537.71,1560.24L536.05,1556.72L532.16,1555.92Z" fill-rule="evenodd" fill="#4682b4" fill-opacity="0.471"/>
<polyline points="28.87,1033.49 31.79,1040.28 36,1044.13 36.29,1049.22 43.4,1055.35 54.91,1073.72 73.92,1081.1 82.18,1100.27 80.45,1104.07 86.38,1113.54 91.84,1115.11 98.04,1111.49 102.52,1112.28 94.78,1116.04 97.2,1122.38 92.57,1129.82 97.67,1132.97 104.53,1157.87 99.32,1172 100.8,1179.54 98.41,1183.33 101.19,1187 117.94,1174.35 120.61,1169.63 135.21,1166.56 139.63,1159.25 150.86,1155.54 153.19,1147.73 163.93,1142.84 182.03,1144.01 191.77,1141.62 200.32,1145.86 204.31,1143.45 212.47,1144.51 212.55,1154.59 208.64,1162.74 240.81,1196.02 253.62,1221.5 252.94,1225.81 259.47,1231.38 258.96,1236.17 267.79,1240.39 270.13,1245.8 263.71,1270.02 274.07,1322.29 271.84,1330.29 262.73,1333.19 245.52,1347.63 234.6,1351.05 227.65,1350.28 240.98,1364.52 249.44,1378.94 259.74,1380.03 268.21,1385.44 279.93,1398.93 284.33,1409.1 323.32,1431.91 325.88,1432.14 328.12,1427.97 334.55,1428.89 338.02,1451.47 352.23,1460.71 358.87,1460.25 368.71,1473.76 380.11,1480.17 387.67,1489.12 404.03,1485.35 403.75,1483.21 405.21,1481.1 405.36,1482.43 403.87,1483.25 405.22,1483.34 405.09,1484.68 434.29,1493.49 440.76,1493.72 446.63,1488.12 448.37,1489.85 445.28,1496.91 466.01,1499.67 513.78,1464.09 523.65,1459.35 530.39,1446.24 535.41,1442.01 533.35,1457.76 538.03,1462.64 541.15,1473.46 547.96,1474.04 555.47,1463.88 553.39,1473.26 545.01,1477.45 539.09,1474.93 531.68,1463.17 527.88,1461.6 515.65,1477.86 509.93,1495.71 493.36,1500.91 491.37,1509.73 496,1519.47 500.73,1524.31 508.3,1524.93 515.07,1531.63 523.12,1521.13 544.25,1511.14 548.93,1504.42 549,1507.48 546.32,1511.97 547.04,1513.33 546.17,1514.74 546.7,1515.75 548.15,1515.06 551.33,1516.99 551.58,1514.41 552.16,1516.87 549.05,1516.7 548.24,1515.3 546.51,1515.82 545.95,1514.65 546.76,1513.31 546.06,1512.11 523.23,1526.61 521.92,1531.61 522.43,1535.64 529.87,1538.6 536.64,1546.53 542.54,1573.02 547.41,1575.33 546.33,1577.81 544.22,1576.31 543.49,1578.41 541.42,1576.24 542.05,1581.02 542.75,1580.52 544.84,1584.76 569.67,1582.35 596.8,1591.9 604.32,1586.66 608.66,1578.47 615.23,1579.4 610.99,1582.33 612.41,1585.4 606.92,1596.11 593.9,1598.77 590.72,1596.38 576.1,1600.57 567.35,1599.38 561.6,1603.28 556.32,1610.88 549.5,1614.35 544.7,1627.55 528.52,1652.95 545.59,1668.27 571.7,1663.32 589.48,1668 593.56,1670.58 595.59,1677.18 588.29,1668.23 581.56,1667.59 596.6,1680.99 606.03,1679.94 605.36,1683.48 616.29,1694.25 571.14,1675.46 535.59,1679.3 520.5,1689.71 514.04,1689.63 508.77,1693.28 540.82,1698.01 624.43,1723.4 865.86,1818.01 971.87,1867.28 1061.07,1918.36 1078.27,1932.76 1082.99,1946.28 1093.7,1953.94 1093.77,1956.57 1163.27,1991.7 8,1989.88 11.72,1033.43 28.87,1033.49" fill="none" stroke="#1e1e1e" stroke-width="1.92" stroke-linecap="round" stroke-linejoin="round"/>
<polyline points="532.75,1659.45 525.64,1652.88 523.91,1656.66 530.67,1664.4 532.75,1659.45" fill="none" stroke="#1e1e1e" stroke-width="1.92" stroke-linecap="round" stroke-linejoin="round"/>
<polyline points="511.02,1638.68 511.31,1641.39 513.71,1641.27 515.66,1638.48 511.02,1638.68" fill="none" stroke="#1e1e1e" stroke-width="1.92" stroke-linecap="round" stroke-linejoin="round"/>
<polyline points="503.7,1553.7 478.9,1546.06 463.7,1530.61 439.68,1528.08 425.72,1531.06 398.82,1529.69 378.46,1539.51 377.07,1536.3 359.67,1539.03 333.94,1535.12 323.35,1539.45 315.93,1538.62 303.95,1542.59 302.05,1545.46 292.62,1541.91 290.66,1544.29 285.3,1542.85 261.07,1551.32 253.17,1558.83 265.96,1566.71 268.66,1571.69 278.03,1571.35 280.81,1574.34 283.96,1572.13 285.87,1575.36 284.19,1572.86 280.23,1575.05 276.86,1571.83 273.71,1575.75 265.65,1569.73 257.21,1567.63 245.4,1569.8 236,1567.16 229.12,1572.25 231.05,1574.83 261.07,1578.37 341.41,1599.47 428.41,1629.21 460.06,1643.71 470.06,1651.18 480.08,1669.78 478.25,1684.51 484.36,1690.41 484.06,1693.38 502.68,1686.89 498.2,1667.25 493.94,1666.97 496,1666.15 497.43,1667.04 498.8,1665.47 502.59,1637.82 527.83,1615.26 527.73,1610.71 521.56,1605.48 518.32,1595.7 518.89,1588.69 525.68,1577.4 524.07,1571.14 503.7,1553.7" fill="none" stroke="#1e1e1e" stroke-width="1.92" stroke-linecap="round" stroke-linejoin="round"/>
<polyline points="523.65,1592.48 525,1598.16 526.84,1595.19 526.76,1592.06 523.65,1592.48" fill="none" stroke="#1e1e1e" stroke-width="1.92" stroke-linecap="round" stroke-linejoin="round"/>
<polyline points="221.68,1561.79 209.69,1558.74 206.75,1563.29 206.41,1559.69 202.68,1560.84 210.93,1569.3 220.69,1571.25 224.72,1568.15 221.68,1561.79" fill="none" stroke="#1e1e1e" stroke-width="1.92" stroke-linecap="round" stroke-linejoin="round"/>
<polyline points="250.18,1559.31 247.52,1562.97 249.24,1564.39 253.02,1562.3 250.18,1559.31" fill="none" stroke="#1e1e1e" stroke-width="1.92" stroke-linecap="round" stroke-linejoin="round"/>
<polyline points="188.64,1551.85 191.98,1559.69 201.36,1559 197.2,1558.86 198.89,1552.55 191.53,1554.06 188.64,1551.85" fill="none" stroke="#1e1e1e" stroke-width="1.92" stroke-linecap="round" stroke-linejoin="round"/>
<polyline points="516.75,1542.82 529.1,1551.43 535.23,1551.57 529.78,1541.75 516.75,1542.82" fill="none" stroke="#1e1e1e" stroke-width="1.92" stroke-linecap="round" stroke-linejoin="round"/>
<polyline points="258.18,1539.77 254.75,1543.22 256.63,1543.34 260.22,1539.64 258.18,1539.77" fill="none" stroke="#1e1e1e" stroke-width="1.92" stroke-linecap="round" stroke-linejoin="round"/>
<polyline points="200.98,1532.9 207.47,1532.6 208.55,1529.41 205.4,1527.12 200.28,1530.57 200.98,1532.9" fill="none" stroke="#1e1e1e" stroke-width="1.92" stroke-linecap="round" stroke-linejoin="round"/>
<polyline points="171.72,1533.12 172.26,1528.62 176.58,1522.41 188.14,1516.69 182.37,1515.79 165.01,1528.27 158.12,1528.01 160.85,1533.12 159.79,1540.73 172.34,1542.47 176.58,1539.84 177.88,1538.04 175.32,1539.36 171.72,1533.12" fill="none" stroke="#1e1e1e" stroke-width="1.92" stroke-linecap="round" stroke-linejoin="round"/>
<polyline points="496.99,1524.94 491.69,1517.4 486.63,1518.29 489.58,1527.77 497.49,1537.37 506.2,1538.81 507.1,1529.99 496.99,1524.94" fill="none" stroke="#1e1e1e" stroke-width="1.92" stroke-linecap="round" stroke-linejoin="round"/>
<polyline points="163.48,1504.77 158.08,1507.82 161.87,1508.11 167.29,1504.94 163.48,1504.77" fill="none" stroke="#1e1e1e" stroke-width="1.92" stroke-linecap="round" stroke-linejoin="round"/>
<polyline points="496.45,1492.33 499.6,1494.73 509.89,1492.72 511.3,1480.31 501.93,1483.85 496.45,1492.33" fill="none" stroke="#1e1e1e" stroke-width="1.92" stroke-linecap="round" stroke-linejoin="round"/>
<polyline points="47.06,1236.07 49.87,1233.61 47.91,1231.28 47.76,1234.27 43.79,1235.44 47.06,1236.07" fill="none" stroke="#1e1e1e" stroke-width="1.92" stroke-linecap="round" stroke-linejoin="round"/>
<polyline points="50.87,1233 63.88,1230.62 63.79,1224.22 56.11,1225.78 50.31,1230.62 50.87,1233" fill="none" stroke="#1e1e1e" stroke-width="1.92" stroke-linecap="round" stroke-linejoin="round"/>
<polyline points="72.09,1215.84 63.68,1220.05 63.76,1223.99 71.57,1224.49 72.31,1216.91 82.95,1206.8 81.24,1204.77 72.09,1215.84" fill="none" stroke="#1e1e1e" stroke-width="1.92" stroke-linecap="round" stroke-linejoin="round"/>
<polyline points="603.41,1681.65 595.87,1681.55 586.73,1672.62 583.25,1671.86 586.49,1675.88 584.22,1673.59 570.82,1670.77 582.1,1674.41 586.61,1679.72 601.51,1687.07 606.64,1687.22 603.41,1681.65" fill="none" stroke="#1e1e1e" stroke-width="1.92" stroke-linecap="round" stroke-linejoin="round"/>
<polyline points="577.79,1673.68 580.27,1676.46 584.89,1677.74 577.79,1673.68" fill="none" stroke="#1e1e1e" stroke-width="1.92" stroke-linecap="round" stroke-linejoin="round"/>
<polyline points="558.66,1672.71 554.13,1676.55 562.86,1675.97 564.78,1674.68 558.66,1672.71" fill="none" stroke="#1e1e1e" stroke-width="1.92" stroke-linecap="round" stroke-linejoin="round"/>
<polyline points="576.28,1665.49 564.67,1666.52 583.22,1670.55 576.28,1665.49" fill="none" stroke="#1e1e1e" stroke-width="1.92" stroke-linecap="round" stroke-linejoin="round"/>
<polyline points="539.46,1611.02 537.58,1604.48 535.96,1610.73 539.46,1611.02" fill="none" stroke="#1e1e1e" stroke-width="1.92" stroke-linecap="round" stroke-linejoin="round"/>
<polyline points="526.88,1600.15 532.53,1605.51 531.97,1601.85 528.73,1596.3 526.88,1600.15" fill="none" stroke="#1e1e1e" stroke-width="1.92" stroke-linecap="round" stroke-linejoin="round"/>
<polyline points="542.41,1605.44 546.7,1600.77 547.41,1593.02 541.73,1590.54 536.65,1592.86 537.49,1599.45 542.41,1605.44" fill="none" stroke="#1e1e1e" stroke-width="1.92" stroke-linecap="round" stroke-linejoin="round"/>
<polyline points="597.82,1592.66 598.13,1594.99 604.41,1591.59 605.23,1587.54 597.82,1592.66" fill="none" stroke="#1e1e1e" stroke-width="1.92" stroke-linecap="round" stroke-linejoin="round"/>
<polyline points="565.93,1590.28 560.44,1588.6 564,1591.07 565.93,1590.28" fill="none" stroke="#1e1e1e" stroke-width="1.92" stroke-linecap="round" stroke-linejoin="round"/>
<polyline points="539.1,1589.93 533.05,1586.49 534.75,1591.68 539.1,1589.93" fill="none" stroke="#1e1e1e" stroke-width="1.92" stroke-linecap="round" stroke-linejoin="round"/>
<polyline points="537.22,1571.42 538.86,1573.59 539.97,1569.08 539.27,1567.26 537.22,1571.42" fill="none" stroke="#1e1e1e" stroke-width="1.92" stroke-linecap="round" stroke-linejoin="round"/>
<polyline points="531.9,1556.99 531.72,1561.4 534.64,1566.28 537.71,1561.05 531.9,1556.99" fill="none" stroke="#1e1e1e" stroke-width="1.92" stroke-linecap="round" stroke-linejoin="round"/>
<polyline points="532.16,1555.92 532.82,1557.36 537.71,1560.24 536.05,1556.72 532.16,1555.92" fill="none" stroke="#1e1e1e" stroke-width="1.92" stroke-linecap="round" stroke-linejoin="round"/>
<path d="M153.87,1033.94L156.44,1041.07L160.15,1043.53L162.7,1050.85L177.51,1053.59L162.22,1054.93L165.92,1063.09L160.15,1068.68L161.66,1068.76L160.91,1073.95L163.36,1076.94L162.78,1079.89L161.29,1081.27L162.6,1079.38L162.66,1077.2L160.64,1074.04L160.2,1070.18L161.39,1069.23L159.92,1068.55L162.84,1063.21L165.19,1063.02L160.54,1057.09L155.82,1058.42L154.06,1056.46L154.82,1055.93L157.72,1057.85L158.56,1056.42L160.54,1056.66L160.12,1054.63L153.54,1049.94L152.21,1053.86L151.24,1053.94L149.53,1051.5L151.31,1048.46L147.94,1049.45L148.67,1048.64L151.54,1048.16L151.42,1050.09L149.92,1051.56L151.47,1051.99L151.93,1053.33L152.61,1047.45L146.37,1033.91L153.87,1033.94Z" fill-rule="evenodd" fill="#4682b4" fill-opacity="0.471"/>
<polyline points="153.87,1033.94 156.44,1041.07 160.15,1043.53 162.7,1050.85 177.51,1053.59 162.22,1054.93 165.92,1063.09 160.15,1068.68 161.66,1068.76 160.91,1073.95 163.36,1076.94 162.78,1079.89 161.29,1081.27 162.6,1079.38 162.66,1077.2 160.64,1074.04 160.2,1070.18 161.39,1069.23 159.92,1068.55 162.84,1063.21 165.19,1063.02 160.54,1057.09 155.82,1058.42 154.06,1056.46 154.82,1055.93 157.72,1057.85 158.56,1056.42 160.54,1056.66 160.12,1054.63 153.54,1049.94 152.21,1053.86 151.24,1053.94 149.53,1051.5 151.31,1048.46 147.94,1049.45 148.67,1048.64 151.54,1048.16 151.42,1050.09 149.92,1051.56 151.47,1051.99 151.93,1053.33 152.61,1047.45 146.37,1033.91 153.87,1033.94" fill="none" stroke="#1e1e1e" stroke-width="1.92" stroke-linecap="round" stroke-linejoin="round"/>
<path d="M606.47,1677.6L606.26,1676.95L606.47,1677.6Z" fill-rule="evenodd" fill="#4682b4" fill-opacity="0.471"/>
<polyline points="606.47,1677.6 606.26,1676.95 606.47,1677.6" fill="none" stroke="#1e1e1e" stroke-width="1.92" stroke-linecap="round" stroke-linejoin="round"/>
<path d="M146.64,1034.49L144.64,1030.16L135.42,1032.77L120.63,1021.35L118.32,1023.14L113.47,1021.32L93.88,993.98L85.09,985.63L75.27,986.23L72.46,982.47L74.85,980.27L70.5,978L58.19,980.74L56.17,978.42L49.96,981.4L45.21,978.35L41.25,984.15L33.45,975.82L27.47,984.77L27.27,994.62L24.95,991.75L25.98,983.48L23.77,982.45L29.71,978.35L20.83,974.23L17.38,977.77L15.23,974.67L14.18,977.61L20.59,983.45L26.66,1001.31L25.52,1013.06L20.89,1015.98L17.5,1014.66L20.18,1020.93L17.31,1023.86L25.37,1025.39L29.11,1034.06L11.72,1034L13.31,624.16L21.65,651.86L18.21,655.66L19.9,675.78L26.22,681.51L39.41,684.04L43.98,681.07L50.05,686.6L58.81,685.46L79.36,707.14L86.17,709.61L89.21,719.69L85.93,733.24L77.09,742.94L58.32,756.18L47.05,771.51L48.58,806.73L52.48,818.38L49.16,823.61L51.77,845.47L49.94,869.32L69.84,899.79L79.24,928.81L97.37,956.23L110.52,963.66L117.69,954L122.64,934.25L133.75,928.71L139.15,919.37L160.78,921.39L162.78,925.86L169.42,928.61L179.43,949.42L171.93,957.41L164.96,973.75L154.75,976.56L151.7,982.64L145.15,984.79L137.41,982.97L134.79,995.83L127.95,995.96L128.04,999.47L123.6,1003.21L116.39,1005.22L119.5,1014.21L125.89,1017.59L147.53,1026.45L156.05,1024.15L160.55,1027.82L164.71,1025.99L161.55,1031.44L156.43,1029.52L152.89,1031.24L154.07,1034.51L146.64,1034.49ZM130.52,942.14L125.38,944.85L125.86,950L127.24,949.78L130.52,942.14ZM148.99,950.04L167.6,943.61L164.21,938.61L165.53,932.86L153.41,930.49L147.91,932.7L148.99,950.04ZM132.51,934.97L136.63,936.16L137.36,931.6L133.87,930.41L132.51,934.97ZM159.13,923.07L157.38,924.47L161.57,926.27L159.13,923.07ZM61.16,702.52L54.48,710.81L53.23,716.86L60.73,724.75L79.32,716.6L61.16,702.52Z" fill-rule="evenodd" fill="#4682b4" fill-opacity="0.471"/>
<polyline points="146.64,1034.49 144.64,1030.16 135.42,1032.77 120.63,1021.35 118.32,1023.14 113.47,1021.32 93.88,993.98 85.09,985.63 75.27,986.23 72.46,982.47 74.85,980.27 70.5,978 58.19,980.74 56.17,978.42 49.96,981.4 45.21,978.35 41.25,984.15 33.45,975.82 27.47,984.77 27.27,994.62 24.95,991.75 25.98,983.48 23.77,982.45 29.71,978.35 20.83,974.23 17.38,977.77 15.23,974.67 14.18,977.61 20.59,983.45 26.66,1001.31 25.52,1013.06 20.89,1015.98 17.5,1014.66 20.18,1020.93 17.31,1023.86 25.37,1025.39 29.11,1034.06 11.72,1034 13.31,624.16 21.65,651.86 18.21,655.66 19.9,675.78 26.22,681.51 39.41,684.04 43.98,681.07 50.05,686.6 58.81,685.46 79.36,707.14 86.17,709.61 89.21,719.69 85.93,733.24 77.09,742.94 58.32,756.18 47.05,771.51 48.58,806.73 52.48,818.38 49.16,823.61 51.77,845.47 49.94,869.32 69.84,899.79 79.24,928.81 97.37,956.23 110.52,963.66 117.69,954 122.64,934.25 133.75,928.71 139.15,919.37 160.78,921.39 162.78,925.86 169.42,928.61 179.43,949.42 171.93,957.41 164.96,973.75 154.75,976.56 151.7,982.64 145.15,984.79 137.41,982.97 134.79,995.83 127.95,995.96 128.04,999.47 123.6,1003.21 116.39,1005.22 119.5,1014.21 125.89,1017.59 147.53,1026.45 156.05,1024.15 160.55,1027.82 164.71,1025.99 161.55,1031.44 156.43,1029.52 152.89,1031.24 154.07,1034.51 146.64,1034.49" fill="none" stroke="#1e1e1e" stroke-width="1.92" stroke-linecap="round" stroke-linejoin="round"/>
<polyline points="130.52,942.14 125.38,944.85 125.86,950 127.24,949.78 130.52,942.14" fill="none" stroke="#1e1e1e" stroke-width="1.92" stroke-linecap="round" stroke-linejoin="round"/>
<polyline points="148.99,950.04 167.6,943.61 164.21,938.61 165.53,932.86 153.41,930.49 147.91,932.7 148.99,950.04" fill="none" stroke="#1e1e1e" stroke-width="1.92" stroke-linecap="round" stroke-linejoin="round"/>
<polyline points="132.51,934.97 136.63,936.16 137.36,931.6 133.87,930.41 132.51,934.97" fill="none" stroke="#1e1e1e" stroke-width="1.92" stroke-linecap="round" stroke-linejoin="round"/>
<polyline points="159.13,923.07 157.38,924.47 161.57,926.27 159.13,923.07" fill="none" stroke="#1e1e1e" stroke-width="1.92" stroke-linecap="round" stroke-linejoin="round"/>
<polyline points="61.16,702.52 54.48,710.81 53.23,716.86 60.73,724.75 79.32,716.6 61.16,702.52" fill="none" stroke="#1e1e1e" stroke-width="1.92" stroke-linecap="round" stroke-linejoin="round"/>
<path d="M13.6,551.41L30.04,551.91L33.73,543.81L41.85,543.67L52.55,551.88L49.73,556.87L38.3,562.24L31.13,574.65L20.79,582.68L22.55,590.51L20.35,588.17L15.9,598.82L13.41,599.98L13.6,551.41Z" fill-rule="evenodd" fill="#4682b4" fill-opacity="0.471"/>
<polyline points="13.6,551.41 30.04,551.91 33.73,543.81 41.85,543.67 52.55,551.88 49.73,556.87 38.3,562.24 31.13,574.65 20.79,582.68 22.55,590.51 20.35,588.17 15.9,598.82 13.41,599.98 13.6,551.41" fill="none" stroke="#1e1e1e" stroke-width="1.92" stroke-linecap="round" stroke-linejoin="round"/>
</svg>
