<?xml version="1.0" encoding="UTF-8" standalone="no"?>
<svg xmlns="http://www.w3.org/2000/svg" width="1953" height="2000" viewBox="0 0 1953 2000">
<rect width="1953" height="2000" fill="#ffffff"/>
<polyline points="1508.75,231.46 1499.76,231.67 1494.8,227.69 1487.45,213.31 1480.9,209.23 1433.01,204.66 1415.57,208.41 1399.29,216.46 1385.2,228.16 1377.82,239.92 1369.74,266.7 1362.94,278.74 1351.39,288.58 1289.36,317.32 1284.71,320.69 1257.15,351.85 1182.23,414.92 1174.17,418.93 1156.69,424.68 1147.5,428.94 1130.54,439.98 1121.92,443.54 1115.25,443.97 1101.33,441.54 1094.35,441.35 1061.78,447.53 1041.11,446.62 1033.14,448.01 1027.34,452.85 1024.52,462.44 1025.56,570.21 1022.03,587.35 1015.2,597.61 1004.88,601.1 993.01,602.99 981.49,608.33 935.39,652.18 929.08,660.43 924.98,671.63 923.33,687.46 925.23,734.03 914.43,770.84 912.53,784.01 902.8,806.59 880.01,830.74 852.08,849.95 826.91,857.55 821.22,855.85 803.83,847.32 799.51,849.24 792.45,857.06 756.82,883.43 717.17,910.19 707.19,911.99 694.08,906.44 687.81,900.65 679.94,882.85 664.49,870.16 670.45,862.99 679.97,858.44 688.39,852.8 691.17,842.32 687.07,827.85 680.97,828.32 673.55,835.41 665.51,841.03 668.26,837.37 668.63,830.66 667.15,823.65 664.51,819.29 659.2,817.79 653.02,818.96 628.4,830.24 618.5,837.93 600.39,857.78 588.17,866.02 545.32,872.19 535.97,878.55 527.38,888.34 517.88,896.97 506.22,899.74 501.1,896.59 492.43,883.66 487.12,878.84 470.01,875.97 456.12,883.11 432.45,905.8 421.07,911.98 409.59,914.55 357.16,917.3 351.61,919.87 342.77,931.36 337.11,935.64 324.82,937.49 287.32,930.35" fill="none" stroke="#1e1e1e" stroke-width="1.92" stroke-linecap="round" stroke-linejoin="round"/>
<polyline points="1944.91,1965.49 1940.07,1970.79 1944.92,1970.47" fill="none" stroke="#1e1e1e" stroke-width="1.92" stroke-linecap="round" stroke-linejoin="round"/>
<polyline points="1944.96,1980.76 1942.18,1981.63 1927.32,1982.25 1916.17,1989.99" fill="none" stroke="#1e1e1e" stroke-width="1.92" stroke-linecap="round" stroke-linejoin="round"/>
<polyline points="1647.13,595.16 1656.58,589.09 1663.66,581.48 1668.05,571.3 1669.53,557.54 1672.31,552.47 1678.95,550.67 1693.16,551.11 1699.7,547.83 1703.84,540.23 1756.26,385.48 1758.53,368.58 1753.33,361.1 1748.04,355.77 1724.84,321.6 1706.81,307.35 1698.35,298.66 1694.77,288.53 1691.19,266.53 1692.33,262.16 1695.44,256.9 1697.43,248.91 1698.53,233.78 1690.74,207.61 1688.1,193.32 1692.09,182.43 1699.19,172.19 1703.93,159.57 1706.53,147.93 1707.31,140.64 1705.88,130.19 1701.91,117.08 1695.59,105.86 1677.09,94.2 1669.17,63.77 1658.27,53.74 1659.65,46.66 1663.33,34.86 1659.91,31.28 1645.58,21.7 1643.25,17.41 1643.08,13.09 1641.55,9.83 1638.48,9.22" fill="none" stroke="#1e1e1e" stroke-width="1.92" stroke-linecap="round" stroke-linejoin="round"/>
<text x="901.11" y="737.99" font-family="sans-serif" font-size="14" stroke="#ffffff" stroke-opacity="0.784" stroke-width="2.33" stroke-linejoin="round" paint-order="stroke" fill="#141414">Rokel</text>
<text x="1687.27" y="317.49" font-family="sans-serif" font-size="14" stroke="#ffffff" stroke-opacity="0.784" stroke-width="2.33" stroke-linejoin="round" paint-order="stroke" fill="#141414">Niger</text>
<text x="1860" y="1989.16" font-family="sans-serif" font-size="14" stroke="#ffffff" stroke-opacity="0.784" stroke-width="2.33" stroke-linejoin="round" paint-order="stroke" fill="#141414">Saint Paul</text>
</svg>
