<?xml version="1.0" encoding="UTF-8" standalone="no"?>
<svg xmlns="http://www.w3.org/2000/svg" width="1953" height="2000" viewBox="0 0 1953 2000">
<rect width="1953" height="2000" fill="#ffffff"/>
<path d="M1094.28,978.38L1104.47,971.93L1122.28,948.75L1145.2,949.38L1160.48,957.09L1199.94,948.05L1228.6,958.96L1247.69,944.14L1260.42,942.84L1260.37,901.64L1255.24,872.67L1261.61,870.74L1253.88,792.85L1269.14,780.6L1291.35,740.66L1303.4,711.03L1314.84,703.94L1354.26,698.09L1372.05,689.05L1389.82,666.49L1382.78,642.03L1398.66,633.64L1432.95,607.18L1456.5,623.88L1474.29,618.05L1494,619.94L1514.41,647.58L1538.62,670.05L1550.1,686.77L1559.01,687.39L1587.04,706.63L1606.73,698.22L1615.01,702.06L1655.05,693.58L1666.47,684.54L1656.26,672.33L1660.04,656.23L1696.21,633.6L1714,629.68L1724.79,621.92L1743.26,632.81L1738.21,645.06L1737.01,666.95L1747.96,711.98L1746.71,721L1757.62,752.51L1755.77,769.89L1782.56,792.34L1788.37,818.71L1800.54,841.85L1817.15,862.39L1814.66,877.21L1800.08,893.35L1768.91,901.18L1747.31,912.83L1748.63,927.63L1736.58,941.83L1721.95,947.67L1706.17,990.85L1702.44,1022.4L1707.59,1042.99L1684.06,1054.64L1692.39,1072L1705.12,1068.74L1747.2,1081.49L1750.42,1093.71L1760.63,1099.47L1777.8,1091.05L1801.94,1071.02L1810.16,1053.61L1840.02,1030.97L1851.41,1012.27L1860.31,1006.44L1868.5,981.95L1888.23,981.88L1909.2,970.21L1935.99,983.63L1940.56,1012.58L1935.5,1020.97L1936.85,1041.56L1926.76,1066.71L1930.62,1076.35L1921.79,1100.2L1911.01,1112.47L1926.46,1154.26L1922.05,1169.08L1911.86,1170.41L1903.64,1185.89L1889.67,1199.46L1874.98,1189.21L1867.37,1199.54L1843.79,1200.27L1820.2,1195.2L1796.01,1203L1780.75,1214L1773.16,1232.05L1748.41,1265.6L1729.94,1270.16L1730.45,1439.47L1704.95,1445.34L1692.86,1456.32L1671.84,1464.11L1662.32,1482.16L1642.6,1503.46L1638.8,1515.06L1623.51,1523.47L1612.07,1541.52L1612.73,1552.47L1599.35,1558.94L1572.62,1591.2L1550.31,1602.19L1531.2,1617.04L1521.6,1609.98L1490.39,1637.73L1462.34,1659.04L1442.59,1679.68L1413.88,1692.61L1386.47,1722.92L1344.32,1718.47L1315.56,1699.84L1295.76,1696.01L1261.88,1667.08L1257.4,1658.07L1253.54,1630.39L1245.87,1616.23L1253.51,1603.35L1263.09,1603.33L1265.62,1586.59L1261.13,1568.57L1272.61,1563.41L1244.52,1550.56L1241.93,1518.37L1194.76,1569.93L1186.48,1588.6L1176.91,1594.41L1155.21,1587.98L1166.66,1541.62L1136.01,1511.38L1169.17,1482.39L1182.56,1481.09L1186.4,1493.32L1208.09,1488.79L1211.9,1469.48L1220.82,1455.95L1218.89,1441.79L1199.09,1411.55L1192.71,1407.05L1177.41,1419.29L1170.39,1410.93L1171.64,1380.67L1185.01,1358.77L1200.95,1352.32L1244.91,1319.44L1257.63,1291.1L1250.58,1260.21L1249.9,1216.44L1237.76,1188.77L1238.37,1169.46L1212.87,1154.03L1202.02,1132.15L1176.53,1114.8L1168.86,1083.26L1161.84,1074.9L1138.91,1070.41L1128.72,1063.97L1128.71,1051.1L1117.24,1033.73L1121.68,1009.9L1110.22,1004.12L1094.28,978.38Z" fill-rule="evenodd" fill="#4682b4" fill-opacity="0.471"/>
<polyline points="1094.28,978.38 1104.47,971.93 1122.28,948.75 1145.2,949.38 1160.48,957.09 1199.94,948.05 1228.6,958.96 1247.69,944.14 1260.42,942.84 1260.37,901.64 1255.24,872.67 1261.61,870.74 1253.88,792.85 1269.14,780.6 1291.35,740.66 1303.4,711.03 1314.84,703.94 1354.26,698.09 1372.05,689.05 1389.82,666.49 1382.78,642.03 1398.66,633.64 1432.95,607.18 1456.5,623.88 1474.29,618.05 1494,619.94 1514.41,647.58 1538.62,670.05 1550.1,686.77 1559.01,687.39 1587.04,706.63 1606.73,698.22 1615.01,702.06 1655.05,693.58 1666.47,684.54 1656.26,672.33 1660.04,656.23 1696.21,633.6 1714,629.68 1724.79,621.92 1743.26,632.81 1738.21,645.06 1737.01,666.95 1747.96,711.98 1746.71,721 1757.62,752.51 1755.77,769.89 1782.56,792.34 1788.37,818.71 1800.54,841.85 1817.15,862.39 1814.66,877.21 1800.08,893.35 1768.91,901.18 1747.31,912.83 1748.63,927.63 1736.58,941.83 1721.95,947.67 1706.17,990.85 1702.44,1022.4 1707.59,1042.99 1684.06,1054.64 1692.39,1072 1705.12,1068.74 1747.2,1081.49 1750.42,1093.71 1760.63,1099.47 1777.8,1091.05 1801.94,1071.02 1810.16,1053.61 1840.02,1030.97 1851.41,1012.27 1860.31,1006.44 1868.5,981.95 1888.23,981.88 1909.2,970.21 1935.99,983.63 1940.56,1012.58 1935.5,1020.97 1936.85,1041.56 1926.76,1066.71 1930.62,1076.35 1921.79,1100.2 1911.01,1112.47 1926.46,1154.26 1922.05,1169.08 1911.86,1170.41 1903.64,1185.89 1889.67,1199.46 1874.98,1189.21 1867.37,1199.54 1843.79,1200.27 1820.2,1195.2 1796.01,1203 1780.75,1214 1773.16,1232.05 1748.41,1265.6 1729.94,1270.16 1730.45,1439.47 1704.95,1445.34 1692.86,1456.32 1671.84,1464.11 1662.32,1482.16 1642.6,1503.46 1638.8,1515.06 1623.51,1523.47 1612.07,1541.52 1612.73,1552.47 1599.35,1558.94 1572.62,1591.2 1550.31,1602.19 1531.2,1617.04 1521.6,1609.98 1490.39,1637.73 1462.34,1659.04 1442.59,1679.68 1413.88,1692.61 1386.47,1722.92 1344.32,1718.47 1315.56,1699.84 1295.76,1696.01 1261.88,1667.08 1257.4,1658.07 1253.54,1630.39 1245.87,1616.23 1253.51,1603.35 1263.09,1603.33 1265.62,1586.59 1261.13,1568.57 1272.61,1563.41 1244.52,1550.56 1241.93,1518.37 1194.76,1569.93 1186.48,1588.6 1176.91,1594.41 1155.21,1587.98 1166.66,1541.62 1136.01,1511.38 1169.17,1482.39 1182.56,1481.09 1186.4,1493.32 1208.09,1488.79 1211.9,1469.48 1220.82,1455.95 1218.89,1441.79 1199.09,1411.55 1192.71,1407.05 1177.41,1419.29 1170.39,1410.93 1171.64,1380.67 1185.01,1358.77 1200.95,1352.32 1244.91,1319.44 1257.63,1291.1 1250.58,1260.21 1249.9,1216.44 1237.76,1188.77 1238.37,1169.46 1212.87,1154.03 1202.02,1132.15 1176.53,1114.8 1168.86,1083.26 1161.84,1074.9 1138.91,1070.41 1128.72,1063.97 1128.71,1051.1 1117.24,1033.73 1121.68,1009.9 1110.22,1004.12 1094.28,978.38" fill="none" stroke="#1e1e1e" stroke-width="1.92" stroke-linecap="round" stroke-linejoin="round"/>
<path d="M429.42,1060.84L435.79,1057.64L453.14,984.29L469.69,986.25L480.47,1010.09L493.19,1018.49L502.76,1005.63L521.88,999.87L556.92,983.2L578.58,979.37L625.73,949.19L641.02,944.06L659.5,929.28L638.51,917.02L630.91,889.33L586.38,876.39L587.03,867.37L601.06,846.8L618.24,848.11L635.44,833.97L604.95,799.81L605.6,788.22L625.33,786.32L638.08,768.96L631.11,747.7L624.12,741.26L621.61,714.21L638.79,712.31L642.59,724.54L664.87,709.12L673.79,696.26L661.09,683.37L645.19,681.42L627.4,672.38L622.34,651.77L612.81,643.39L611.57,624.72L595.69,617.61L628.15,587.4L635.77,596.42L649.76,590.01L668.83,588.74L688.56,573.32L704.48,544.36L719.75,532.79L732.48,504.48L726.14,496.1L695.01,492.21L678.51,476.09L676.62,460.64L686.8,445.84L679.19,436.18L692.54,425.89L705.25,424.62L721.12,436.87L748.43,440.11L777.03,427.9L782.13,404.09L802.45,413.12L835.48,408.63L846.28,412.5L843.75,390.61L856.47,363.57L859.66,333.32L833,306.9L815.85,314.62L799.99,297.87L794.92,281.12L785.4,287.56L758.1,279.81L782.26,241.19L814.01,226.41L838.13,222.56L855.91,211.62L895.9,201.98L914.3,203.92L921.92,188.47L911.77,174.94L917.48,161.42L912.41,151.12L915.59,122.14L910.52,115.7L914.96,86.73L900.38,74.49L910.53,64.19L900.39,48.73L908.01,10.09L1343.69,9.83L1339.91,22.07L1365.93,34.91L1371.03,51.65L1376.17,94.78L1392.05,103.13L1414.88,101.16L1440.94,126.22L1451.13,146.81L1480.37,168.64L1484.21,184.73L1496.96,210.46L1498.89,225.91L1528.1,231.64L1532.62,265.76L1551.68,272.15L1561.26,293.38L1564.48,312.04L1589.27,322.93L1573.42,336.49L1579.86,370.59L1600.86,385.99L1593.91,402.11L1646.65,408.41L1654.93,418.04L1661.34,439.27L1690.61,452.71L1692.57,472.66L1685.64,495.21L1693.93,504.2L1688.27,524.18L1653.34,532.64L1661.65,551.29L1657.22,558.38L1647.8,600.26L1670.06,601.48L1679.59,600.17L1687.84,597.57L1722.84,607.77L1722.84,608.41L1737.48,614.16L1737.48,614.8L1747.67,621.21L1743.26,632.81L1724.79,621.92L1714,629.68L1696.21,633.6L1660.04,656.23L1656.26,672.33L1666.47,684.54L1655.05,693.58L1615.01,702.06L1606.73,698.22L1587.04,706.63L1559.01,687.39L1550.1,686.77L1538.62,670.05L1514.41,647.58L1494,619.94L1474.29,618.05L1456.5,623.88L1432.95,607.18L1398.66,633.64L1382.78,642.03L1389.82,666.49L1372.05,689.05L1354.26,698.09L1314.84,703.94L1303.4,711.03L1291.35,740.66L1269.14,780.6L1253.88,792.85L1261.61,870.74L1255.24,872.67L1260.37,901.64L1260.42,942.84L1247.69,944.14L1228.6,958.96L1199.94,948.05L1160.48,957.09L1145.2,949.38L1122.28,948.75L1104.47,971.93L1094.28,978.38L1066.91,977.1L1045.26,981.61L1017.88,978.4L1000.06,1000.93L1000.7,1010.59L987.33,1024.11L977.14,1041.49L955.48,1046.64L933.19,1074.32L904.53,1078.82L887.33,1069.15L873.96,1069.79L843.39,1056.26L826.83,1058.18L797.51,1092.92L819.79,1123.84L805.13,1134.13L783.48,1118.02L776.47,1119.95L749.73,1105.76L732.55,1083.21L688.61,1078.66L670.79,1065.12L652.95,1068.96L642.75,1080.53L631.92,1079.87L607.73,1068.9L596.9,1070.17L589.23,1092.04L566.29,1093.94L544.61,1108.06L535.07,1101.61L500.65,1110.56L463.1,1096.96L446.59,1071.82L429.42,1060.84Z" fill-rule="evenodd" fill="#4682b4" fill-opacity="0.471"/>
<polyline points="429.42,1060.84 435.79,1057.64 453.14,984.29 469.69,986.25 480.47,1010.09 493.19,1018.49 502.76,1005.63 521.88,999.87 556.92,983.2 578.58,979.37 625.73,949.19 641.02,944.06 659.5,929.28 638.51,917.02 630.91,889.33 586.38,876.39 587.03,867.37 601.06,846.8 618.24,848.11 635.44,833.97 604.95,799.81 605.6,788.22 625.33,786.32 638.08,768.96 631.11,747.7 624.12,741.26 621.61,714.21 638.79,712.31 642.59,724.54 664.87,709.12 673.79,696.26 661.09,683.37 645.19,681.42 627.4,672.38 622.34,651.77 612.81,643.39 611.57,624.72 595.69,617.61 628.15,587.4 635.77,596.42 649.76,590.01 668.83,588.74 688.56,573.32 704.48,544.36 719.75,532.79 732.48,504.48 726.14,496.1 695.01,492.21 678.51,476.09 676.62,460.64 686.8,445.84 679.19,436.18 692.54,425.89 705.25,424.62 721.12,436.87 748.43,440.11 777.03,427.9 782.13,404.09 802.45,413.12 835.48,408.63 846.28,412.5 843.75,390.61 856.47,363.57 859.66,333.32 833,306.9 815.85,314.62 799.99,297.87 794.92,281.12 785.4,287.56 758.1,279.81 782.26,241.19 814.01,226.41 838.13,222.56 855.91,211.62 895.9,201.98 914.3,203.92 921.92,188.47 911.77,174.94 917.48,161.42 912.41,151.12 915.59,122.14 910.52,115.7 914.96,86.73 900.38,74.49 910.53,64.19 900.39,48.73 908.01,10.09 1343.69,9.83 1339.91,22.07 1365.93,34.91 1371.03,51.65 1376.17,94.78 1392.05,103.13 1414.88,101.16 1440.94,126.22 1451.13,146.81 1480.37,168.64 1484.21,184.73 1496.96,210.46 1498.89,225.91 1528.1,231.64 1532.62,265.76 1551.68,272.15 1561.26,293.38 1564.48,312.04 1589.27,322.93 1573.42,336.49 1579.86,370.59 1600.86,385.99 1593.91,402.11 1646.65,408.41 1654.93,418.04 1661.34,439.27 1690.61,452.71 1692.57,472.66 1685.64,495.21 1693.93,504.2 1688.27,524.18 1653.34,532.64 1661.65,551.29 1657.22,558.38 1647.8,600.26 1670.06,601.48 1679.59,600.17 1687.84,597.57 1722.84,607.77 1722.84,608.41 1737.48,614.16 1737.48,614.8 1747.67,621.21 1743.26,632.81 1724.79,621.92 1714,629.68 1696.21,633.6 1660.04,656.23 1656.26,672.33 1666.47,684.54 1655.05,693.58 1615.01,702.06 1606.73,698.22 1587.04,706.63 1559.01,687.39 1550.1,686.77 1538.62,670.05 1514.41,647.58 1494,619.94 1474.29,618.05 1456.5,623.88 1432.95,607.18 1398.66,633.64 1382.78,642.03 1389.82,666.49 1372.05,689.05 1354.26,698.09 1314.84,703.94 1303.4,711.03 1291.35,740.66 1269.14,780.6 1253.88,792.85 1261.61,870.74 1255.24,872.67 1260.37,901.64 1260.42,942.84 1247.69,944.14 1228.6,958.96 1199.94,948.05 1160.48,957.09 1145.2,949.38 1122.28,948.75 1104.47,971.93 1094.28,978.38 1066.91,977.1 1045.26,981.61 1017.88,978.4 1000.06,1000.93 1000.7,1010.59 987.33,1024.11 977.14,1041.49 955.48,1046.64 933.19,1074.32 904.53,1078.82 887.33,1069.15 873.96,1069.79 843.39,1056.26 826.83,1058.18 797.51,1092.92 819.79,1123.84 805.13,1134.13 783.48,1118.02 776.47,1119.95 749.73,1105.76 732.55,1083.21 688.61,1078.66 670.79,1065.12 652.95,1068.96 642.75,1080.53 631.92,1079.87 607.73,1068.9 596.9,1070.17 589.23,1092.04 566.29,1093.94 544.61,1108.06 535.07,1101.61 500.65,1110.56 463.1,1096.96 446.59,1071.82 429.42,1060.84" fill="none" stroke="#1e1e1e" stroke-width="1.92" stroke-linecap="round" stroke-linejoin="round"/>
<path d="M13.93,628.91L30.53,611.59L76.98,598.89L87.82,591.2L115.7,616.41L125.86,620.31L153.19,621.04L158.35,601.1L178.7,597.31L204.82,578.07L219.55,543.36L236.73,536.33L224.11,506.67L231.12,500.26L243.3,465.53L259.16,473.94L264.85,484.26L282.06,463.71L328.43,466.41L342.43,457.43L351.4,430.41L367.29,427.88L361.64,400.82L385.14,397.66L398.51,384.82L406.77,384.84L415.75,346.87L431.04,324.37L426,305.69L443.82,285.12L449.58,264.53L467.99,265.86L478.85,229.82L482.72,201.5L506.22,191.89L510.06,175.15L533,122.4L531.76,107.58L542.55,106.31L565.42,86.39L622.53,78.11L626.34,71.68L700.58,53.09L703.74,68.55L734.17,85.97L765.25,92.44L900.39,48.73L910.53,64.19L900.38,74.49L914.96,86.73L910.52,115.7L915.59,122.14L912.41,151.12L917.48,161.42L911.77,174.94L921.92,188.47L914.3,203.92L895.9,201.98L855.91,211.62L838.13,222.56L814.01,226.41L782.26,241.19L758.1,279.81L785.4,287.56L794.92,281.12L799.99,297.87L815.85,314.62L833,306.9L859.66,333.32L856.47,363.57L843.75,390.61L846.28,412.5L835.48,408.63L802.45,413.12L782.13,404.09L777.03,427.9L748.43,440.11L721.12,436.87L705.25,424.62L692.54,425.89L679.19,436.18L686.8,445.84L676.62,460.64L678.51,476.09L695.01,492.21L726.14,496.1L732.48,504.48L719.75,532.79L704.48,544.36L688.56,573.32L668.83,588.74L649.76,590.01L635.77,596.42L628.15,587.4L595.69,617.61L611.57,624.72L612.81,643.39L622.34,651.77L627.4,672.38L645.19,681.42L661.09,683.37L673.79,696.26L664.87,709.12L642.59,724.54L638.79,712.31L621.61,714.21L624.12,741.26L631.11,747.7L638.08,768.96L625.33,786.32L605.6,788.22L604.95,799.81L635.44,833.97L618.24,848.11L601.06,846.8L587.03,867.37L586.38,876.39L630.91,889.33L638.51,917.02L659.5,929.28L641.02,944.06L625.73,949.19L578.58,979.37L556.92,983.2L521.88,999.87L502.76,1005.63L493.19,1018.49L480.47,1010.09L469.69,986.25L453.14,984.29L435.79,1057.64L429.42,1060.84L414.78,1055.66L398.2,1062.7L383.56,1060.74L374.61,1072.95L356.16,1065.82L337.75,1044.53L305.23,1057.96L291.74,1097.84L271.96,1111.3L259.81,1126.72L245.16,1127.32L258.61,1102.89L242.16,1064.86L240.29,1048.77L207.82,1048.02L195.7,1054.42L177.23,1053.72L162.59,1050.45L153.1,1031.11L119.41,1014.26L117.52,1008.46L137.35,982.78L151.99,982.83L162.84,975.14L179.48,949.44L169.36,928.81L157.92,921.05L138.84,919.05L122.87,934.45L117.71,953.74L110.68,960.8L97.33,956.25L78.97,928.5L70.16,900.79L55.59,880.78L49.31,858.22L51.9,846L47.09,771.31L57.96,756.54L86.03,733.47L86.12,709.65L58.86,685.73L21.37,678.51L21.47,652.76L13.93,628.91Z" fill-rule="evenodd" fill="#4682b4" fill-opacity="0.471"/>
<polyline points="13.93,628.91 30.53,611.59 76.98,598.89 87.82,591.2 115.7,616.41 125.86,620.31 153.19,621.04 158.35,601.1 178.7,597.31 204.82,578.07 219.55,543.36 236.73,536.33 224.11,506.67 231.12,500.26 243.3,465.53 259.16,473.94 264.85,484.26 282.06,463.71 328.43,466.41 342.43,457.43 351.4,430.41 367.29,427.88 361.64,400.82 385.14,397.66 398.51,384.82 406.77,384.84 415.75,346.87 431.04,324.37 426,305.69 443.82,285.12 449.58,264.53 467.99,265.86 478.85,229.82 482.72,201.5 506.22,191.89 510.06,175.15 533,122.4 531.76,107.58 542.55,106.31 565.42,86.39 622.53,78.11 626.34,71.68 700.58,53.09 703.74,68.55 734.17,85.97 765.25,92.44 900.39,48.73 910.53,64.19 900.38,74.49 914.96,86.73 910.52,115.7 915.59,122.14 912.41,151.12 917.48,161.42 911.77,174.94 921.92,188.47 914.3,203.92 895.9,201.98 855.91,211.62 838.13,222.56 814.01,226.41 782.26,241.19 758.1,279.81 785.4,287.56 794.92,281.12 799.99,297.87 815.85,314.62 833,306.9 859.66,333.32 856.47,363.57 843.75,390.61 846.28,412.5 835.48,408.63 802.45,413.12 782.13,404.09 777.03,427.9 748.43,440.11 721.12,436.87 705.25,424.62 692.54,425.89 679.19,436.18 686.8,445.84 676.62,460.64 678.51,476.09 695.01,492.21 726.14,496.1 732.48,504.48 719.75,532.79 704.48,544.36 688.56,573.32 668.83,588.74 649.76,590.01 635.77,596.42 628.15,587.4 595.69,617.61 611.57,624.72 612.81,643.39 622.34,651.77 627.4,672.38 645.19,681.42 661.09,683.37 673.79,696.26 664.87,709.12 642.59,724.54 638.79,712.31 621.61,714.21 624.12,741.26 631.11,747.7 638.08,768.96 625.33,786.32 605.6,788.22 604.95,799.81 635.44,833.97 618.24,848.11 601.06,846.8 587.03,867.37 586.38,876.39 630.91,889.33 638.51,917.02 659.5,929.28 641.02,944.06 625.73,949.19 578.58,979.37 556.92,983.2 521.88,999.87 502.76,1005.63 493.19,1018.49 480.47,1010.09 469.69,986.25 453.14,984.29 435.79,1057.64 429.42,1060.84 414.78,1055.66 398.2,1062.7 383.56,1060.74 374.61,1072.95 356.16,1065.82 337.75,1044.53 305.23,1057.96 291.74,1097.84 271.96,1111.3 259.81,1126.72 245.16,1127.32 258.61,1102.89 242.16,1064.86 240.29,1048.77 207.82,1048.02 195.7,1054.42 177.23,1053.72 162.59,1050.45 153.1,1031.11 119.41,1014.26 117.52,1008.46 137.35,982.78 151.99,982.83 162.84,975.14 179.48,949.44 169.36,928.81 157.92,921.05 138.84,919.05 122.87,934.45 117.71,953.74 110.68,960.8 97.33,956.25 78.97,928.5 70.16,900.79 55.59,880.78 49.31,858.22 51.9,846 47.09,771.31 57.96,756.54 86.03,733.47 86.12,709.65 58.86,685.73 21.37,678.51 21.47,652.76 13.93,628.91" fill="none" stroke="#1e1e1e" stroke-width="1.92" stroke-linecap="round" stroke-linejoin="round"/>
<path d="M210.71,1143.95L226.03,1133.05L245.16,1127.32L259.81,1126.72L271.96,1111.3L291.74,1097.84L305.23,1057.96L337.75,1044.53L356.16,1065.82L374.61,1072.95L383.56,1060.74L398.2,1062.7L414.78,1055.66L429.42,1060.84L446.59,1071.82L463.1,1096.96L500.65,1110.56L535.07,1101.61L544.61,1108.06L566.29,1093.94L589.23,1092.04L596.9,1070.17L607.73,1068.9L631.92,1079.87L642.75,1080.53L652.95,1068.96L670.79,1065.12L688.61,1078.66L732.55,1083.21L749.73,1105.76L776.47,1119.95L783.48,1118.02L805.13,1134.13L819.79,1123.84L797.51,1092.92L826.83,1058.18L843.39,1056.26L873.96,1069.79L887.33,1069.15L904.53,1078.82L933.19,1074.32L955.48,1046.64L977.14,1041.49L987.33,1024.11L1000.7,1010.59L1000.06,1000.93L1017.88,978.4L1045.26,981.61L1066.91,977.1L1094.28,978.38L1110.22,1004.12L1121.68,1009.9L1117.24,1033.73L1128.71,1051.1L1128.72,1063.97L1138.91,1070.41L1161.84,1074.9L1168.86,1083.26L1176.53,1114.8L1202.02,1132.15L1212.87,1154.03L1238.37,1169.46L1237.76,1188.77L1249.9,1216.44L1250.58,1260.21L1257.63,1291.1L1244.91,1319.44L1200.95,1352.32L1185.01,1358.77L1171.64,1380.67L1170.39,1410.93L1177.41,1419.29L1192.71,1407.05L1199.09,1411.55L1218.89,1441.79L1220.82,1455.95L1211.9,1469.48L1208.09,1488.79L1186.4,1493.32L1182.56,1481.09L1169.17,1482.39L1136.01,1511.38L1166.66,1541.62L1155.21,1587.98L1176.91,1594.41L1186.48,1588.6L1194.76,1569.93L1241.93,1518.37L1244.52,1550.56L1272.61,1563.41L1261.13,1568.57L1265.62,1586.59L1263.09,1603.33L1253.51,1603.35L1245.87,1616.23L1253.54,1630.39L1257.4,1658.07L1261.88,1667.08L1295.76,1696.01L1315.56,1699.84L1344.32,1718.47L1386.47,1722.92L1388.4,1732.57L1369.9,1744.19L1362.92,1770.6L1337.39,1784.16L1329.72,1779.66L1318.24,1793.2L1308.01,1788.71L1267.83,1836.41L1269.76,1845.42L1254.43,1851.23L1266.59,1868.6L1265.98,1891.79L1246.16,1889.23L1239.15,1899.54L1243.65,1927.23L1226.41,1940.77L1214.92,1958.17L1203.42,1962.04L1213.02,1978.77L1192.57,1982.01L1188.74,1989.1L1165.09,1991.69L1155.49,1987.84L1140.79,1978.83L1093.47,1956.32L1078.12,1932.5L1057.02,1915.77L1007.81,1886.16L949.03,1855.89L895.36,1830.77L769.55,1779.83L604.21,1716.54L535.92,1697.11L519.97,1690L535.32,1679.08L571.08,1675.28L592.77,1686.26L589.6,1668.23L571.73,1663.05L548.1,1668.8L528.34,1652.03L549.47,1614.08L566.73,1599.3L576.3,1600.6L597.38,1591.62L569.31,1582.56L542.51,1581.87L536.83,1546.45L529.82,1538.72L499.22,1523.21L493.52,1500.66L512.04,1492.97L524.22,1458.88L476.95,1490.33L467.37,1499.32L424,1491.51L404.88,1482.45L404.24,1482.45L404.23,1485.67L386.36,1488.84L359,1460.45L339.25,1452.68L334.2,1428.84L313.8,1428.15L284.51,1408.75L267.99,1385.53L248.25,1377.75L234.28,1356.46L273.91,1322.46L263.86,1269.64L267.77,1240.68L253.79,1225.19L243.03,1199.41L208.74,1162.61L210.71,1143.95Z" fill-rule="evenodd" fill="#4682b4" fill-opacity="0.471"/>
<polyline points="210.71,1143.95 226.03,1133.05 245.16,1127.32 259.81,1126.72 271.96,1111.3 291.74,1097.84 305.23,1057.96 337.75,1044.53 356.16,1065.82 374.61,1072.95 383.56,1060.74 398.2,1062.7 414.78,1055.66 429.42,1060.84 446.59,1071.82 463.1,1096.96 500.65,1110.56 535.07,1101.61 544.61,1108.06 566.29,1093.94 589.23,1092.04 596.9,1070.17 607.73,1068.9 631.92,1079.87 642.75,1080.53 652.95,1068.96 670.79,1065.12 688.61,1078.66 732.55,1083.21 749.73,1105.76 776.47,1119.95 783.48,1118.02 805.13,1134.13 819.79,1123.84 797.51,1092.92 826.83,1058.18 843.39,1056.26 873.96,1069.79 887.33,1069.15 904.53,1078.82 933.19,1074.32 955.48,1046.64 977.14,1041.49 987.33,1024.11 1000.7,1010.59 1000.06,1000.93 1017.88,978.4 1045.26,981.61 1066.91,977.1 1094.28,978.38 1110.22,1004.12 1121.68,1009.9 1117.24,1033.73 1128.71,1051.1 1128.72,1063.97 1138.91,1070.41 1161.84,1074.9 1168.86,1083.26 1176.53,1114.8 1202.02,1132.15 1212.87,1154.03 1238.37,1169.46 1237.76,1188.77 1249.9,1216.44 1250.58,1260.21 1257.63,1291.1 1244.91,1319.44 1200.95,1352.32 1185.01,1358.77 1171.64,1380.67 1170.39,1410.93 1177.41,1419.29 1192.71,1407.05 1199.09,1411.55 1218.89,1441.79 1220.82,1455.95 1211.9,1469.48 1208.09,1488.79 1186.4,1493.32 1182.56,1481.09 1169.17,1482.39 1136.01,1511.38 1166.66,1541.62 1155.21,1587.98 1176.91,1594.41 1186.48,1588.6 1194.76,1569.93 1241.93,1518.37 1244.52,1550.56 1272.61,1563.41 1261.13,1568.57 1265.62,1586.59 1263.09,1603.33 1253.51,1603.35 1245.87,1616.23 1253.54,1630.39 1257.4,1658.07 1261.88,1667.08 1295.76,1696.01 1315.56,1699.84 1344.32,1718.47 1386.47,1722.92 1388.4,1732.57 1369.9,1744.19 1362.92,1770.6 1337.39,1784.16 1329.72,1779.66 1318.24,1793.2 1308.01,1788.71 1267.83,1836.41 1269.76,1845.42 1254.43,1851.23 1266.59,1868.6 1265.98,1891.79 1246.16,1889.23 1239.15,1899.54 1243.65,1927.23 1226.41,1940.77 1214.92,1958.17 1203.42,1962.04 1213.02,1978.77 1192.57,1982.01 1188.74,1989.1 1165.09,1991.69 1155.49,1987.84 1140.79,1978.83 1093.47,1956.32 1078.12,1932.5 1057.02,1915.77 1007.81,1886.16 949.03,1855.89 895.36,1830.77 769.55,1779.83 604.21,1716.54 535.92,1697.11 519.97,1690 535.32,1679.08 571.08,1675.28 592.77,1686.26 589.6,1668.23 571.73,1663.05 548.1,1668.8 528.34,1652.03 549.47,1614.08 566.73,1599.3 576.3,1600.6 597.38,1591.62 569.31,1582.56 542.51,1581.87 536.83,1546.45 529.82,1538.72 499.22,1523.21 493.52,1500.66 512.04,1492.97 524.22,1458.88 476.95,1490.33 467.37,1499.32 424,1491.51 404.88,1482.45 404.24,1482.45 404.23,1485.67 386.36,1488.84 359,1460.45 339.25,1452.68 334.2,1428.84 313.8,1428.15 284.51,1408.75 267.99,1385.53 248.25,1377.75 234.28,1356.46 273.91,1322.46 263.86,1269.64 267.77,1240.68 253.79,1225.19 243.03,1199.41 208.74,1162.61 210.71,1143.95" fill="none" stroke="#1e1e1e" stroke-width="1.92" stroke-linecap="round" stroke-linejoin="round"/>
<path d="M378.59,1539.04L398.39,1529.43L425.83,1530.78L439.87,1528.24L467.3,1533.45L476.84,1545.05L503.63,1553.48L517.65,1563.8L525.92,1577.34L518.88,1588.91L527.13,1617.26L504.75,1635.24L498.31,1667.42L502.74,1686.75L484.85,1691.22L480.42,1670.61L469.61,1650.63L435.18,1631.88L380.33,1611.8L341.42,1599.47L262.97,1578.65L252.82,1559.31L261.14,1551.61L284.77,1542.66L300.73,1543.35L331.38,1535.71L378.59,1539.04Z" fill-rule="evenodd" fill="#4682b4" fill-opacity="0.471"/>
<polyline points="378.59,1539.04 398.39,1529.43 425.83,1530.78 439.87,1528.24 467.3,1533.45 476.84,1545.05 503.63,1553.48 517.65,1563.8 525.92,1577.34 518.88,1588.91 527.13,1617.26 504.75,1635.24 498.31,1667.42 502.74,1686.75 484.85,1691.22 480.42,1670.61 469.61,1650.63 435.18,1631.88 380.33,1611.8 341.42,1599.47 262.97,1578.65 252.82,1559.31 261.14,1551.61 284.77,1542.66 300.73,1543.35 331.38,1535.71 378.59,1539.04" fill="none" stroke="#1e1e1e" stroke-width="1.92" stroke-linecap="round" stroke-linejoin="round"/>
<path d="M29.76,978.53L29.13,978.52L25.91,985.59L26.55,986.24L52.04,981.19L74.95,983.85L84.49,985.81L105.42,1008.42L113.66,1021.32L127.01,1025.23L147.99,1038.17L160.03,1054.31L177.23,1053.72L195.7,1054.42L207.82,1048.02L240.29,1048.77L242.16,1064.86L258.61,1102.89L245.16,1127.32L226.03,1133.05L210.71,1143.95L164.2,1142.51L147.59,1157.27L122.06,1169.41L103.53,1185.44L99.11,1171.91L104.89,1160.98L94.85,1115.88L80.88,1102.96L76.49,1085.56L62.51,1075.21L35.87,1048.07L20.05,1021.62L25.83,1008.12L17.67,977.84L29.76,978.53Z" fill-rule="evenodd" fill="#4682b4" fill-opacity="0.471"/>
<polyline points="29.76,978.53 29.13,978.52 25.91,985.59 26.55,986.24 52.04,981.19 74.95,983.85 84.49,985.81 105.42,1008.42 113.66,1021.32 127.01,1025.23 147.99,1038.17 160.03,1054.31 177.23,1053.72 195.7,1054.42 207.82,1048.02 240.29,1048.77 242.16,1064.86 258.61,1102.89 245.16,1127.32 226.03,1133.05 210.71,1143.95 164.2,1142.51 147.59,1157.27 122.06,1169.41 103.53,1185.44 99.11,1171.91 104.89,1160.98 94.85,1115.88 80.88,1102.96 76.49,1085.56 62.51,1075.21 35.87,1048.07 20.05,1021.62 25.83,1008.12 17.67,977.84 29.76,978.53" fill="none" stroke="#1e1e1e" stroke-width="1.92" stroke-linecap="round" stroke-linejoin="round"/>
<text x="1000.34" y="554.74" font-family="sans-serif" font-size="14" stroke="#ffffff" stroke-opacity="0.784" stroke-width="2.33" stroke-linejoin="round" paint-order="stroke" fill="#141414">Northern Province</text>
<text x="749.15" y="1439.66" font-family="sans-serif" font-size="14" stroke="#ffffff" stroke-opacity="0.784" stroke-width="2.33" stroke-linejoin="round" paint-order="stroke" fill="#141414">Southern Province</text>
<text x="1410.83" y="1150.36" font-family="sans-serif" font-size="14" stroke="#ffffff" stroke-opacity="0.784" stroke-width="2.33" stroke-linejoin="round" paint-order="stroke" fill="#141414">Eastern Province</text>
<text x="349.91" y="600.01" font-family="sans-serif" font-size="14" stroke="#ffffff" stroke-opacity="0.784" stroke-width="2.33" stroke-linejoin="round" paint-order="stroke" fill="#141414">North Western Province</text>
<text x="72.89" y="1084.45" font-family="sans-serif" font-size="14" stroke="#ffffff" stroke-opacity="0.784" stroke-width="2.33" stroke-linejoin="round" paint-order="stroke" fill="#141414">Western Area</text>
</svg>
