<?xml version="1.0" encoding="UTF-8" standalone="no"?>
<svg xmlns="http://www.w3.org/2000/svg" width="2000" height="998" viewBox="0 0 2000 998">
<rect width="2000" height="998" fill="#ffffff"/>
<path d="M596.38,559.62L593.03,555.62L594.19,552.25L597.63,551.15L600.45,554.35L599.94,557.31L596.38,559.62Z" fill-rule="evenodd" fill="#4682b4" fill-opacity="0.471"/>
<polyline points="596.38,559.62 593.03,555.62 594.19,552.25 597.63,551.15 600.45,554.35 599.94,557.31 596.38,559.62" fill="none" stroke="#1e1e1e" stroke-width="1.14" stroke-linecap="round" stroke-linejoin="round"/>
<path d="M651.42,559.75L655.92,558.91L658.69,556.2L660.51,551.89L662.49,549.46L662.72,545.3L664.71,544.88L668.61,553.05L673.12,552.62L675.51,553.68L675.93,556.09L669.85,560.16L668.94,562.18L665.75,561.8L663.08,559.13L660.42,558.48L658.33,562.39L650.64,562.31L651.42,559.75Z" fill-rule="evenodd" fill="#4682b4" fill-opacity="0.471"/>
<polyline points="651.42,559.75 655.92,558.91 658.69,556.2 660.51,551.89 662.49,549.46 662.72,545.3 664.71,544.88 668.61,553.05 673.12,552.62 675.51,553.68 675.93,556.09 669.85,560.16 668.94,562.18 665.75,561.8 663.08,559.13 660.42,558.48 658.33,562.39 650.64,562.31 651.42,559.75" fill="none" stroke="#1e1e1e" stroke-width="1.14" stroke-linecap="round" stroke-linejoin="round"/>
<path d="M512.92,556.6L509.87,556.23L510.89,551.92L513.1,547.73L517.73,545.54L519.63,550.89L515.97,556.17L512.92,556.6Z" fill-rule="evenodd" fill="#4682b4" fill-opacity="0.471"/>
<polyline points="512.92,556.6 509.87,556.23 510.89,551.92 513.1,547.73 517.73,545.54 519.63,550.89 515.97,556.17 512.92,556.6" fill="none" stroke="#1e1e1e" stroke-width="1.14" stroke-linecap="round" stroke-linejoin="round"/>
<path d="M638.26,537.14L640.37,535.91L641.59,539.26L645.82,537.62L651.27,539.19L653.39,538.11L655.26,540.38L660.46,544.1L662.2,546.78L662.35,549.6L659.19,552.57L659.73,553.65L653.92,557.18L652.83,553.69L650.56,551.02L647.1,549.57L643.39,549.86L641.52,548.4L638.89,550.97L634.5,549.52L632.62,546.04L629.81,543.24L636.17,542.93L639.48,541.02L638.26,537.14Z" fill-rule="evenodd" fill="#4682b4" fill-opacity="0.471"/>
<polyline points="638.26,537.14 640.37,535.91 641.59,539.26 645.82,537.62 651.27,539.19 653.39,538.11 655.26,540.38 660.46,544.1 662.2,546.78 662.35,549.6 659.19,552.57 659.73,553.65 653.92,557.18 652.83,553.69 650.56,551.02 647.1,549.57 643.39,549.86 641.52,548.4 638.89,550.97 634.5,549.52 632.62,546.04 629.81,543.24 636.17,542.93 639.48,541.02 638.26,537.14" fill="none" stroke="#1e1e1e" stroke-width="1.14" stroke-linecap="round" stroke-linejoin="round"/>
<path d="M499.22,538.46L502.93,538.02L506.82,542.96L509.07,542.26L512.4,543.31L512.56,546.66L508.26,553.96L502.55,553.34L494.82,550.06L492.68,548.34L496.64,546.15L497.66,542.51L501.37,541.4L499.22,538.46Z" fill-rule="evenodd" fill="#4682b4" fill-opacity="0.471"/>
<polyline points="499.22,538.46 502.93,538.02 506.82,542.96 509.07,542.26 512.4,543.31 512.56,546.66 508.26,553.96 502.55,553.34 494.82,550.06 492.68,548.34 496.64,546.15 497.66,542.51 501.37,541.4 499.22,538.46" fill="none" stroke="#1e1e1e" stroke-width="1.14" stroke-linecap="round" stroke-linejoin="round"/>
<path d="M630.16,537.33L631.19,532.89L633.56,530.59L636.5,533.39L636.79,535.94L630.16,537.33Z" fill-rule="evenodd" fill="#4682b4" fill-opacity="0.471"/>
<polyline points="630.16,537.33 631.19,532.89 633.56,530.59 636.5,533.39 636.79,535.94 630.16,537.33" fill="none" stroke="#1e1e1e" stroke-width="1.14" stroke-linecap="round" stroke-linejoin="round"/>
<path d="M219.3,259.19L223.73,261.01L230.36,266.82L232.1,267.33L234.29,270.79L233.51,272.28L236.07,282.86L237.29,284.05L237.22,288.08L238.18,289.68L243.01,291.89L242.78,294.32L246.68,296.81L248.95,297.05L251.65,299.29L256.85,298.95L256.75,301.5L258.26,304.57L266.76,311.3L270.75,310.44L272.39,313.77L275.98,313.05L279.75,315.82L283.05,313.35L286.24,312.9L288.61,310.58L291.69,311.48L293.73,314.54L295.19,323.39L294.01,324.75L289.18,322.27L285.36,325.68L285.38,327.43L280.59,327.76L279.69,329.93L273.55,329.34L274.05,326.78L268.46,327.13L262.7,325.6L261.72,322.26L263.4,318.47L255.97,321L250.52,321.48L249.83,320.15L243.81,318.76L238.21,318.71L233.84,320.52L232.83,315.03L231.32,312.5L226.35,309.75L222.68,313.97L221.44,311.31L219.29,310.4L220.83,306.61L215.46,303.87L210.64,302.87L207,300.11L206.3,298.1L201.87,296.16L201.57,294.01L194.26,287.14L193.55,284.73L187.89,280.65L185.54,275.85L176.99,266.85L176.28,264.18L173.02,260.87L168.44,258.26L164.3,257.52L159.69,253.16L155.39,251.89L154.81,249.21L139.83,238.97L140.39,232.65L136.72,229.21L137.61,226.38L144.05,220.35L146.84,219.23L151.92,219.81L160.72,226.93L169.55,228.26L172.28,231.44L175.86,238.24L181.23,240.03L183.66,241.88L189.02,242.87L192.12,244.97L196.67,245.84L198.18,248.37L201.69,251L209.72,252.62L216.18,255.88L215.81,257.9L219.3,259.19Z" fill-rule="evenodd" fill="#4682b4" fill-opacity="0.471"/>
<polyline points="219.3,259.19 223.73,261.01 230.36,266.82 232.1,267.33 234.29,270.79 233.51,272.28 236.07,282.86 237.29,284.05 237.22,288.08 238.18,289.68 243.01,291.89 242.78,294.32 246.68,296.81 248.95,297.05 251.65,299.29 256.85,298.95 256.75,301.5 258.26,304.57 266.76,311.3 270.75,310.44 272.39,313.77 275.98,313.05 279.75,315.82 283.05,313.35 286.24,312.9 288.61,310.58 291.69,311.48 293.73,314.54 295.19,323.39 294.01,324.75 289.18,322.27 285.36,325.68 285.38,327.43 280.59,327.76 279.69,329.93 273.55,329.34 274.05,326.78 268.46,327.13 262.7,325.6 261.72,322.26 263.4,318.47 255.97,321 250.52,321.48 249.83,320.15 243.81,318.76 238.21,318.71 233.84,320.52 232.83,315.03 231.32,312.5 226.35,309.75 222.68,313.97 221.44,311.31 219.29,310.4 220.83,306.61 215.46,303.87 210.64,302.87 207,300.11 206.3,298.1 201.87,296.16 201.57,294.01 194.26,287.14 193.55,284.73 187.89,280.65 185.54,275.85 176.99,266.85 176.28,264.18 173.02,260.87 168.44,258.26 164.3,257.52 159.69,253.16 155.39,251.89 154.81,249.21 139.83,238.97 140.39,232.65 136.72,229.21 137.61,226.38 144.05,220.35 146.84,219.23 151.92,219.81 160.72,226.93 169.55,228.26 172.28,231.44 175.86,238.24 181.23,240.03 183.66,241.88 189.02,242.87 192.12,244.97 196.67,245.84 198.18,248.37 201.69,251 209.72,252.62 216.18,255.88 215.81,257.9 219.3,259.19" fill="none" stroke="#1e1e1e" stroke-width="1.14" stroke-linecap="round" stroke-linejoin="round"/>
<path d="M318.39,334.63L315.4,329.97L315.77,327.81L319.08,326.42L320.79,324.25L325.06,324.73L328.45,329.52L330.25,334.74L328.41,336.11L320.81,335.94L318.39,334.63Z" fill-rule="evenodd" fill="#4682b4" fill-opacity="0.471"/>
<polyline points="318.39,334.63 315.4,329.97 315.77,327.81 319.08,326.42 320.79,324.25 325.06,324.73 328.45,329.52 330.25,334.74 328.41,336.11 320.81,335.94 318.39,334.63" fill="none" stroke="#1e1e1e" stroke-width="1.14" stroke-linecap="round" stroke-linejoin="round"/>
<path d="M304.56,326.22L306.18,328.08L306.38,332.91L295.18,332.66L294.61,329.58L289.25,327.64L286.45,327.68L287.6,324.04L289.31,322.4L296.43,326.47L300.01,324.8L304.56,326.22Z" fill-rule="evenodd" fill="#4682b4" fill-opacity="0.471"/>
<polyline points="304.56,326.22 306.18,328.08 306.38,332.91 295.18,332.66 294.61,329.58 289.25,327.64 286.45,327.68 287.6,324.04 289.31,322.4 296.43,326.47 300.01,324.8 304.56,326.22" fill="none" stroke="#1e1e1e" stroke-width="1.14" stroke-linecap="round" stroke-linejoin="round"/>
<path d="M623.69,593.53L624.75,593.93L624.76,595.41L621.61,598.92L610.46,596.86L610.7,594.57L619.99,595.31L621.71,595.16L623.69,593.53Z" fill-rule="evenodd" fill="#4682b4" fill-opacity="0.471"/>
<polyline points="623.69,593.53 624.75,593.93 624.76,595.41 621.61,598.92 610.46,596.86 610.7,594.57 619.99,595.31 621.71,595.16 623.69,593.53" fill="none" stroke="#1e1e1e" stroke-width="1.14" stroke-linecap="round" stroke-linejoin="round"/>
<path d="M610.7,594.57L610.46,596.86L621.61,598.92L624.76,595.41L624.75,593.93L623.69,593.53L625.93,591.9L635.89,595.46L642.49,591.51L651.39,594.41L658.27,592.61L661.19,593.94L664.24,593.78L668.07,592.15L673.26,593.99L674.6,597.07L680.05,599.86L684.05,603.19L686.87,608.82L692.3,608.92L699.33,611.16L704.13,616.24L705.59,616.63L709.87,623.05L709.24,628.7L711.64,631.91L716.54,631.62L729.83,640.68L728.53,644.18L729.48,648.88L731.2,649.4L732.28,652.49L728.06,655.47L721.06,658.06L714.57,658.5L703.35,663.13L700.56,660.86L695.66,660.89L691.27,657.83L685.57,656.25L682.13,656.27L678.96,657.37L676.29,653.49L667.37,646.56L657.97,645.68L645.01,647.25L636.53,647.04L630.98,648.43L624.21,646.6L621.44,647.16L619.44,645.83L612.55,644.94L606.84,642.57L600.77,645.3L598.65,645.05L594.25,641.46L594.1,639.58L587.71,634.66L583.46,633.89L584.09,629.45L576.23,623.74L578.32,620.76L577.37,618.22L574.03,614.62L573.88,612.87L568.28,608.62L567.06,605.41L570.24,604.57L568.04,596.26L569.73,592.08L567.04,587.14L568.56,578.66L570.92,576.36L574.36,575.25L576.73,573.22L580.69,571.44L584.81,572.08L587.08,574.88L590.14,575.52L593.74,578.05L610.7,594.57Z" fill-rule="evenodd" fill="#4682b4" fill-opacity="0.471"/>
<polyline points="610.7,594.57 610.46,596.86 621.61,598.92 624.76,595.41 624.75,593.93 623.69,593.53 625.93,591.9 635.89,595.46 642.49,591.51 651.39,594.41 658.27,592.61 661.19,593.94 664.24,593.78 668.07,592.15 673.26,593.99 674.6,597.07 680.05,599.86 684.05,603.19 686.87,608.82 692.3,608.92 699.33,611.16 704.13,616.24 705.59,616.63 709.87,623.05 709.24,628.7 711.64,631.91 716.54,631.62 729.83,640.68 728.53,644.18 729.48,648.88 731.2,649.4 732.28,652.49 728.06,655.47 721.06,658.06 714.57,658.5 703.35,663.13 700.56,660.86 695.66,660.89 691.27,657.83 685.57,656.25 682.13,656.27 678.96,657.37 676.29,653.49 667.37,646.56 657.97,645.68 645.01,647.25 636.53,647.04 630.98,648.43 624.21,646.6 621.44,647.16 619.44,645.83 612.55,644.94 606.84,642.57 600.77,645.3 598.65,645.05 594.25,641.46 594.1,639.58 587.71,634.66 583.46,633.89 584.09,629.45 576.23,623.74 578.32,620.76 577.37,618.22 574.03,614.62 573.88,612.87 568.28,608.62 567.06,605.41 570.24,604.57 568.04,596.26 569.73,592.08 567.04,587.14 568.56,578.66 570.92,576.36 574.36,575.25 576.73,573.22 580.69,571.44 584.81,572.08 587.08,574.88 590.14,575.52 593.74,578.05 610.7,594.57" fill="none" stroke="#1e1e1e" stroke-width="1.14" stroke-linecap="round" stroke-linejoin="round"/>
<path d="M562.44,470.03L559.24,468.32L557.08,464.44L556.79,461.76L558.49,458.25L561.65,455.8L566.95,453.88L573.09,456.64L573.4,462.42L572.38,466.59L581.59,472.56L579.23,476.21L576.59,477.84L571.67,476.67L569.53,474.94L568.17,471.33L562.44,470.03Z" fill-rule="evenodd" fill="#4682b4" fill-opacity="0.471"/>
<polyline points="562.44,470.03 559.24,468.32 557.08,464.44 556.79,461.76 558.49,458.25 561.65,455.8 566.95,453.88 573.09,456.64 573.4,462.42 572.38,466.59 581.59,472.56 579.23,476.21 576.59,477.84 571.67,476.67 569.53,474.94 568.17,471.33 562.44,470.03" fill="none" stroke="#1e1e1e" stroke-width="1.14" stroke-linecap="round" stroke-linejoin="round"/>
<path d="M476.46,404.36L469.89,399.59L467.33,396.79L463.74,397.1L460.63,391.63L457.58,392.6L456.72,387.5L454.87,388.19L450.19,386.23L450.95,383L447.33,380.75L444.22,376.35L441.55,375.71L431.65,370.72L432.27,367.22L429.14,361.2L426.65,364.86L423.67,359.79L426.56,356.67L424.14,354.27L422.05,358.33L418.18,357.43L416.14,353.69L413.1,356.01L410.95,354.16L408.44,356.2L404.72,356.38L401.48,352.52L395.72,349.77L394.76,348.03L401.69,348.22L402.72,345.25L408.23,349.62L411.98,350.65L413.01,347.95L411.26,346.23L410.02,342.48L411.85,339.64L415.73,341.61L416.03,343.89L423.36,344.61L431.14,349.49L432.16,345.58L434.02,344.62L437.49,345.39L444.07,350.42L449.65,349.42L458.13,356.99L469.04,368.97L475.7,369.3L479.58,371L482.67,374.33L486.42,376.31L485.39,380.08L487.29,383.69L491.54,382.3L496.9,386.41L496.55,390.99L500.41,391.22L500.7,393.23L507.89,394.37L511.21,393.26L512.98,397.41L515.9,396.3L519.11,398.83L521.9,398.53L527.27,403.32L529.25,401.82L533.11,401.65L534.32,403.52L538.97,402.27L542.45,404.79L545.95,409.46L553.57,412.88L560.13,418.07L561.21,420.61L571.09,424.82L576.2,431.23L583.14,434.26L586.09,438L591.04,441.18L593.32,444.12L596.52,445.44L601.74,449.56L599.24,452.27L596.58,453.09L594.88,456.46L586.91,456.93L590.52,459.59L596.25,461.16L600.53,464.35L603.89,469.96L602.06,473.6L605.25,474.11L605.68,477.07L604.24,479.76L597.98,477.53L594.23,474.07L592.87,470.59L588.75,469.95L585.39,465.27L581.26,464.5L580.55,458.6L577.09,458.49L574.94,455.69L570.54,453.17L567.08,453.07L562.97,454.85L558.15,450.59L554.96,450.35L550.14,445.96L541.86,441.87L540.14,442.56L529.98,436.61L528.76,434.74L525.42,433.02L523.31,434.39L513.95,428.97L511.25,424.96L508.32,424.19L501.89,419.41L491.34,415.22L486.65,411.77L484.88,408.03L483.02,408.05L480.2,405.26L476.46,404.36Z" fill-rule="evenodd" fill="#4682b4" fill-opacity="0.471"/>
<polyline points="476.46,404.36 469.89,399.59 467.33,396.79 463.74,397.1 460.63,391.63 457.58,392.6 456.72,387.5 454.87,388.19 450.19,386.23 450.95,383 447.33,380.75 444.22,376.35 441.55,375.71 431.65,370.72 432.27,367.22 429.14,361.2 426.65,364.86 423.67,359.79 426.56,356.67 424.14,354.27 422.05,358.33 418.18,357.43 416.14,353.69 413.1,356.01 410.95,354.16 408.44,356.2 404.72,356.38 401.48,352.52 395.72,349.77 394.76,348.03 401.69,348.22 402.72,345.25 408.23,349.62 411.98,350.65 413.01,347.95 411.26,346.23 410.02,342.48 411.85,339.64 415.73,341.61 416.03,343.89 423.36,344.61 431.14,349.49 432.16,345.58 434.02,344.62 437.49,345.39 444.07,350.42 449.65,349.42 458.13,356.99 469.04,368.97 475.7,369.3 479.58,371 482.67,374.33 486.42,376.31 485.39,380.08 487.29,383.69 491.54,382.3 496.9,386.41 496.55,390.99 500.41,391.22 500.7,393.23 507.89,394.37 511.21,393.26 512.98,397.41 515.9,396.3 519.11,398.83 521.9,398.53 527.27,403.32 529.25,401.82 533.11,401.65 534.32,403.52 538.97,402.27 542.45,404.79 545.95,409.46 553.57,412.88 560.13,418.07 561.21,420.61 571.09,424.82 576.2,431.23 583.14,434.26 586.09,438 591.04,441.18 593.32,444.12 596.52,445.44 601.74,449.56 599.24,452.27 596.58,453.09 594.88,456.46 586.91,456.93 590.52,459.59 596.25,461.16 600.53,464.35 603.89,469.96 602.06,473.6 605.25,474.11 605.68,477.07 604.24,479.76 597.98,477.53 594.23,474.07 592.87,470.59 588.75,469.95 585.39,465.27 581.26,464.5 580.55,458.6 577.09,458.49 574.94,455.69 570.54,453.17 567.08,453.07 562.97,454.85 558.15,450.59 554.96,450.35 550.14,445.96 541.86,441.87 540.14,442.56 529.98,436.61 528.76,434.74 525.42,433.02 523.31,434.39 513.95,428.97 511.25,424.96 508.32,424.19 501.89,419.41 491.34,415.22 486.65,411.77 484.88,408.03 483.02,408.05 480.2,405.26 476.46,404.36" fill="none" stroke="#1e1e1e" stroke-width="1.14" stroke-linecap="round" stroke-linejoin="round"/>
<path d="M409.38,344.91L407.26,346.41L402.58,344.85L398.14,341.14L386.35,335.37L380.15,329.53L383.73,327.61L383.3,325.6L387.03,325.02L391.05,327.25L390.57,331.83L391.26,333.97L396.76,336.46L398.24,338.32L403.02,336.65L410.12,340.33L409.38,344.91Z" fill-rule="evenodd" fill="#4682b4" fill-opacity="0.471"/>
<polyline points="409.38,344.91 407.26,346.41 402.58,344.85 398.14,341.14 386.35,335.37 380.15,329.53 383.73,327.61 383.3,325.6 387.03,325.02 391.05,327.25 390.57,331.83 391.26,333.97 396.76,336.46 398.24,338.32 403.02,336.65 410.12,340.33 409.38,344.91" fill="none" stroke="#1e1e1e" stroke-width="1.14" stroke-linecap="round" stroke-linejoin="round"/>
<path d="M950.03,784.17L946.46,783.91L946.73,780.95L949.89,779.2L951.74,781.88L950.03,784.17Z" fill-rule="evenodd" fill="#4682b4" fill-opacity="0.471"/>
<polyline points="950.03,784.17 946.46,783.91 946.73,780.95 949.89,779.2 951.74,781.88 950.03,784.17" fill="none" stroke="#1e1e1e" stroke-width="1.14" stroke-linecap="round" stroke-linejoin="round"/>
<path d="M887.3,776.88L883.21,776.35L881.49,777.57L877.13,775.16L872.51,775.71L868.28,774.37L866.95,771.15L862.99,771.7L859.29,770.23L853.73,764.33L847.64,762.47L848.03,758.3L844.2,758.45L844.06,756.57L840.48,753.75L838.91,756.45L836.12,752.56L835.72,750.41L832.94,749.88L830.55,745.32L823.82,747.76L822.76,746.56L824.33,742.92L823.53,739.56L824.84,737.41L823.24,734.05L820.19,730.57L821.77,729.09L818.45,724.8L820.16,721.16L814.86,719.44L813.27,717.96L807.72,718.25L806.26,716.11L801.63,715.72L800.84,717.61L797.93,717.62L791.05,715.9L790.38,712.28L791.91,699.1L797.06,699.08L799.43,696.11L811.08,699.02L815.99,701.42L818.37,703.83L828.31,708.37L832.69,712.92L840.37,716.93L842.23,720.01L844.87,719.2L850.04,725.37L856.66,726.42L860.09,725.87L862.61,730.3L866.98,732.04L871.21,731.49L872.13,730.41L876.5,731.88L881.12,731.6L884.04,735.62L887.21,737.5L893.03,737.89L894.47,733.18L901.88,737.47L908.11,746.86L909.57,751.97L912.48,753.31L912.75,758.68L915.14,761.64L918.97,763.51L921.88,762.97L924,769.01L923.34,772.11L924.53,774.12L921.63,775.74L921.51,780.44L925.73,779.63L928.9,781.64L936.56,780.96L936.3,784.19L930.62,782.85L923.23,783.94L914.9,780.45L910.95,782.07L903.16,783.57L900.38,782.23L894.44,781.84L889.28,776.47L887.3,776.88Z" fill-rule="evenodd" fill="#4682b4" fill-opacity="0.471"/>
<polyline points="887.3,776.88 883.21,776.35 881.49,777.57 877.13,775.16 872.51,775.71 868.28,774.37 866.95,771.15 862.99,771.7 859.29,770.23 853.73,764.33 847.64,762.47 848.03,758.3 844.2,758.45 844.06,756.57 840.48,753.75 838.91,756.45 836.12,752.56 835.72,750.41 832.94,749.88 830.55,745.32 823.82,747.76 822.76,746.56 824.33,742.92 823.53,739.56 824.84,737.41 823.24,734.05 820.19,730.57 821.77,729.09 818.45,724.8 820.16,721.16 814.86,719.44 813.27,717.96 807.72,718.25 806.26,716.11 801.63,715.72 800.84,717.61 797.93,717.62 791.05,715.9 790.38,712.28 791.91,699.1 797.06,699.08 799.43,696.11 811.08,699.02 815.99,701.42 818.37,703.83 828.31,708.37 832.69,712.92 840.37,716.93 842.23,720.01 844.87,719.2 850.04,725.37 856.66,726.42 860.09,725.87 862.61,730.3 866.98,732.04 871.21,731.49 872.13,730.41 876.5,731.88 881.12,731.6 884.04,735.62 887.21,737.5 893.03,737.89 894.47,733.18 901.88,737.47 908.11,746.86 909.57,751.97 912.48,753.31 912.75,758.68 915.14,761.64 918.97,763.51 921.88,762.97 924,769.01 923.34,772.11 924.53,774.12 921.63,775.74 921.51,780.44 925.73,779.63 928.9,781.64 936.56,780.96 936.3,784.19 930.62,782.85 923.23,783.94 914.9,780.45 910.95,782.07 903.16,783.57 900.38,782.23 894.44,781.84 889.28,776.47 887.3,776.88" fill="none" stroke="#1e1e1e" stroke-width="1.14" stroke-linecap="round" stroke-linejoin="round"/>
<path d="M853.57,710.57L851.45,708.7L850.91,705.34L848.13,704.54L848.78,699.43L851.55,698.89L854.33,701.16L856.33,705.73L853.57,710.57Z" fill-rule="evenodd" fill="#4682b4" fill-opacity="0.471"/>
<polyline points="853.57,710.57 851.45,708.7 850.91,705.34 848.13,704.54 848.78,699.43 851.55,698.89 854.33,701.16 856.33,705.73 853.57,710.57" fill="none" stroke="#1e1e1e" stroke-width="1.14" stroke-linecap="round" stroke-linejoin="round"/>
<path d="M887.25,634.43L885.39,635.78L885.14,640.35L886.75,650.16L884.24,652.18L882.25,648.42L879.98,640.09L881.42,632.97L883.27,632.16L887.25,634.43Z" fill-rule="evenodd" fill="#4682b4" fill-opacity="0.471"/>
<polyline points="887.25,634.43 885.39,635.78 885.14,640.35 886.75,650.16 884.24,652.18 882.25,648.42 879.98,640.09 881.42,632.97 883.27,632.16 887.25,634.43" fill="none" stroke="#1e1e1e" stroke-width="1.14" stroke-linecap="round" stroke-linejoin="round"/>
<path d="M723.96,536.59L721.29,532.04L723.13,530.15L722.98,525.85L720.3,522.51L721.21,517.8L714.11,507.36L710.77,504.03L710.62,500.8L711.94,499.32L712.05,494.35L709.64,491.54L707.87,483.89L709.86,483.75L712.63,479.7L716.61,479.28L717.79,477.39L711.23,467.75L707.09,463.88L706.55,462.27L700.41,458.28L697.6,454.94L695.17,449.04L696.36,446.75L699.68,446.46L713.41,453.1L716.19,452.68L716.84,448.91L711.11,445.99L712.96,444.5L716.02,445.56L718.94,445.01L722.29,449.42L725.09,450.35L727.76,452.88L729.65,458.65L733,464.68L741.41,471.08L742.23,476.05L745.69,477.64L753.04,486.47L754.4,491.97L751.36,494.81L747.11,496.04L748.07,501.94L745.29,503.57L745.32,509.61L747.34,514.04L752.4,517.91L755.57,515.47L759.83,518.41L759.72,521.63L762.91,524.31L764.76,522.15L767.96,524.82L769.83,528.3L773.03,530.57L775.16,533.52L772.25,535.01L773.59,537.29L776.11,537.41L779.86,544.78L779.21,548.14L782.93,549.74L783.74,552.29L780.43,554.99L784.02,556.18L787.75,559.12L786.03,560.88L789.62,562.47L788.83,564.22L785.65,564.24L785.79,567.59L787.52,568.93L788.87,575.37L787.29,576.32L784.49,573.37L782.77,574.32L790.22,581.14L794.76,586.9L797.83,593.6L804.49,602.85L807.42,605.12L807.35,607.29L808.34,605.25L804.88,601.23L808.44,595.04L806.84,593.57L803.23,584.85L805.88,584.44L817.86,598.36L818.67,601.72L824.52,607.07L827.32,613.51L828.38,613.51L828.54,620.49L830.4,623.71L831.48,629.89L830.3,634.06L825.79,631.25L818.61,621.6L816.9,627.25L815.19,628.2L807.2,618.29L808.91,614.52L809.29,610.49L807.35,607.49L807.3,609.02L809.03,611.29L805.87,616.68L799.76,611.87L795.64,609.87L788.32,601.97L785.38,595.27L783.38,593.53L781.91,589.78L777.13,587.11L771.81,582.83L770.22,584.59L766.1,580.85L760.38,577.78L756.79,574.58L755.04,569.61L750.79,568.69L749.44,564.27L744.65,559.72L741.87,561.08L737.48,558.82L734.68,555.61L731.73,550.25L728.93,547.72L727.46,544.77L728.11,542.62L723.96,536.59Z" fill-rule="evenodd" fill="#4682b4" fill-opacity="0.471"/>
<polyline points="723.96,536.59 721.29,532.04 723.13,530.15 722.98,525.85 720.3,522.51 721.21,517.8 714.11,507.36 710.77,504.03 710.62,500.8 711.94,499.32 712.05,494.35 709.64,491.54 707.87,483.89 709.86,483.75 712.63,479.7 716.61,479.28 717.79,477.39 711.23,467.75 707.09,463.88 706.55,462.27 700.41,458.28 697.6,454.94 695.17,449.04 696.36,446.75 699.68,446.46 713.41,453.1 716.19,452.68 716.84,448.91 711.11,445.99 712.96,444.5 716.02,445.56 718.94,445.01 722.29,449.42 725.09,450.35 727.76,452.88 729.65,458.65 733,464.68 741.41,471.08 742.23,476.05 745.69,477.64 753.04,486.47 754.4,491.97 751.36,494.81 747.11,496.04 748.07,501.94 745.29,503.57 745.32,509.61 747.34,514.04 752.4,517.91 755.57,515.47 759.83,518.41 759.72,521.63 762.91,524.31 764.76,522.15 767.96,524.82 769.83,528.3 773.03,530.57 775.16,533.52 772.25,535.01 773.59,537.29 776.11,537.41 779.86,544.78 779.21,548.14 782.93,549.74 783.74,552.29 780.43,554.99 784.02,556.18 787.75,559.12 786.03,560.88 789.62,562.47 788.83,564.22 785.65,564.24 785.79,567.59 787.52,568.93 788.87,575.37 787.29,576.32 784.49,573.37 782.77,574.32 790.22,581.14 794.76,586.9 797.83,593.6 804.49,602.85 807.42,605.12 807.35,607.29 808.34,605.25 804.88,601.23 808.44,595.04 806.84,593.57 803.23,584.85 805.88,584.44 817.86,598.36 818.67,601.72 824.52,607.07 827.32,613.51 828.38,613.51 828.54,620.49 830.4,623.71 831.48,629.89 830.3,634.06 825.79,631.25 818.61,621.6 816.9,627.25 815.19,628.2 807.2,618.29 808.91,614.52 809.29,610.49 807.35,607.49 807.3,609.02 809.03,611.29 805.87,616.68 799.76,611.87 795.64,609.87 788.32,601.97 785.38,595.27 783.38,593.53 781.91,589.78 777.13,587.11 771.81,582.83 770.22,584.59 766.1,580.85 760.38,577.78 756.79,574.58 755.04,569.61 750.79,568.69 749.44,564.27 744.65,559.72 741.87,561.08 737.48,558.82 734.68,555.61 731.73,550.25 728.93,547.72 727.46,544.77 728.11,542.62 723.96,536.59" fill="none" stroke="#1e1e1e" stroke-width="1.14" stroke-linecap="round" stroke-linejoin="round"/>
<path d="M722.39,443.24L724.64,440.95L727.3,441.87L729.18,444.82L728,447.64L725.59,444.97L722.39,443.24Z" fill-rule="evenodd" fill="#4682b4" fill-opacity="0.471"/>
<polyline points="722.39,443.24 724.64,440.95 727.3,441.87 729.18,444.82 728,447.64 725.59,444.97 722.39,443.24" fill="none" stroke="#1e1e1e" stroke-width="1.14" stroke-linecap="round" stroke-linejoin="round"/>
<path d="M701.58,385.73L703.84,385.98L706.41,392.42L704.02,393.1L700.93,388.69L701.58,385.73Z" fill-rule="evenodd" fill="#4682b4" fill-opacity="0.471"/>
<polyline points="701.58,385.73 703.84,385.98 706.41,392.42 704.02,393.1 700.93,388.69 701.58,385.73" fill="none" stroke="#1e1e1e" stroke-width="1.14" stroke-linecap="round" stroke-linejoin="round"/>
<path d="M624.16,868.25L629.58,870.9L636.05,871.52L640.68,874.45L644.01,879.67L652.2,882.3L666.24,892.7L671.79,895.62L676.53,895.59L680.63,897.99L689.21,900.35L697.29,908.37L709.45,915.03L710.91,917.44L708.55,918.94L703.01,916.55L701.04,917.37L697.65,923.98L692.22,918.5L688.41,920.27L682.73,917.34L681.25,912.64L678.6,909.16L678.32,906.48L671.84,902.62L666.44,903.19L666.01,897.95L664.15,895.4L661.11,894.35L657.83,895.45L656.66,898.14L651.39,897.51L648.36,898.07L640.02,892.75L635.54,891.84L636.31,889.68L632.87,887.15L630.36,887.17L628.67,889.33L622.7,884.27L617.75,874.35L621.66,868.81L624.16,868.25Z" fill-rule="evenodd" fill="#4682b4" fill-opacity="0.471"/>
<polyline points="624.16,868.25 629.58,870.9 636.05,871.52 640.68,874.45 644.01,879.67 652.2,882.3 666.24,892.7 671.79,895.62 676.53,895.59 680.63,897.99 689.21,900.35 697.29,908.37 709.45,915.03 710.91,917.44 708.55,918.94 703.01,916.55 701.04,917.37 697.65,923.98 692.22,918.5 688.41,920.27 682.73,917.34 681.25,912.64 678.6,909.16 678.32,906.48 671.84,902.62 666.44,903.19 666.01,897.95 664.15,895.4 661.11,894.35 657.83,895.45 656.66,898.14 651.39,897.51 648.36,898.07 640.02,892.75 635.54,891.84 636.31,889.68 632.87,887.15 630.36,887.17 628.67,889.33 622.7,884.27 617.75,874.35 621.66,868.81 624.16,868.25" fill="none" stroke="#1e1e1e" stroke-width="1.14" stroke-linecap="round" stroke-linejoin="round"/>
<path d="M1480.18,846.55L1478.13,840.61L1480.94,835.8L1488.31,837.08L1488.68,840.04L1490.64,842.08L1485.87,844.18L1489.68,845.84L1485.83,848.76L1483.06,848.59L1480.18,846.55Z" fill-rule="evenodd" fill="#4682b4" fill-opacity="0.471"/>
<polyline points="1480.18,846.55 1478.13,840.61 1480.94,835.8 1488.31,837.08 1488.68,840.04 1490.64,842.08 1485.87,844.18 1489.68,845.84 1485.83,848.76 1483.06,848.59 1480.18,846.55" fill="none" stroke="#1e1e1e" stroke-width="1.14" stroke-linecap="round" stroke-linejoin="round"/>
<path d="M1540.03,897.46L1542.79,897.76L1545.12,901.82L1541.02,903.26L1539.05,902.7L1532.18,904.64L1530.09,902.47L1528.24,902.99L1523.8,899.44L1522.11,896.87L1522.15,893.91L1519.14,891.32L1523.28,886.66L1525.9,887.63L1532.49,887.16L1538.52,890.45L1536.65,892.85L1536.22,896.35L1540.03,897.46Z" fill-rule="evenodd" fill="#4682b4" fill-opacity="0.471"/>
<polyline points="1540.03,897.46 1542.79,897.76 1545.12,901.82 1541.02,903.26 1539.05,902.7 1532.18,904.64 1530.09,902.47 1528.24,902.99 1523.8,899.44 1522.11,896.87 1522.15,893.91 1519.14,891.32 1523.28,886.66 1525.9,887.63 1532.49,887.16 1538.52,890.45 1536.65,892.85 1536.22,896.35 1540.03,897.46" fill="none" stroke="#1e1e1e" stroke-width="1.14" stroke-linecap="round" stroke-linejoin="round"/>
<path d="M1542.08,890.22L1543.67,889.7L1546.4,892.42L1544.67,894.69L1540.17,896.39L1539.14,893.82L1542.08,890.22Z" fill-rule="evenodd" fill="#4682b4" fill-opacity="0.471"/>
<polyline points="1542.08,890.22 1543.67,889.7 1546.4,892.42 1544.67,894.69 1540.17,896.39 1539.14,893.82 1542.08,890.22" fill="none" stroke="#1e1e1e" stroke-width="1.14" stroke-linecap="round" stroke-linejoin="round"/>
<path d="M1423.79,778.41L1427.22,778.71L1426.14,781.26L1421.23,783.63L1419.01,780.79L1423.79,778.41Z" fill-rule="evenodd" fill="#4682b4" fill-opacity="0.471"/>
<polyline points="1423.79,778.41 1427.22,778.71 1426.14,781.26 1421.23,783.63 1419.01,780.79 1423.79,778.41" fill="none" stroke="#1e1e1e" stroke-width="1.14" stroke-linecap="round" stroke-linejoin="round"/>
<path d="M1415.65,772.7L1414.96,776.19L1410.61,774.54L1407.97,775.19L1406.22,778.67L1399.32,783.86L1397.96,787.75L1395.86,786.65L1396.15,783.7L1394.73,779.92L1391.13,784.06L1385.58,784.29L1383.11,779.7L1382.74,776.07L1384.75,771.78L1388.22,767.77L1389.89,773.03L1392.39,774.12L1393.9,767.01L1400.3,760.07L1403.99,760.51L1406.51,759.59L1409.01,760.82L1416.93,760.88L1420.38,759.43L1422.89,759.59L1429.86,762.87L1434.62,762.38L1434.33,766L1427.28,771.59L1427.51,775.22L1422.08,777.73L1415.62,776.6L1415.65,772.7Z" fill-rule="evenodd" fill="#4682b4" fill-opacity="0.471"/>
<polyline points="1415.65,772.7 1414.96,776.19 1410.61,774.54 1407.97,775.19 1406.22,778.67 1399.32,783.86 1397.96,787.75 1395.86,786.65 1396.15,783.7 1394.73,779.92 1391.13,784.06 1385.58,784.29 1383.11,779.7 1382.74,776.07 1384.75,771.78 1388.22,767.77 1389.89,773.03 1392.39,774.12 1393.9,767.01 1400.3,760.07 1403.99,760.51 1406.51,759.59 1409.01,760.82 1416.93,760.88 1420.38,759.43 1422.89,759.59 1429.86,762.87 1434.62,762.38 1434.33,766 1427.28,771.59 1427.51,775.22 1422.08,777.73 1415.62,776.6 1415.65,772.7" fill="none" stroke="#1e1e1e" stroke-width="1.14" stroke-linecap="round" stroke-linejoin="round"/>
<path d="M1388.79,762.4L1389.73,759.45L1392.62,762.7L1390.87,765.78L1387.17,766.15L1388.79,762.4Z" fill-rule="evenodd" fill="#4682b4" fill-opacity="0.471"/>
<polyline points="1388.79,762.4 1389.73,759.45 1392.62,762.7 1390.87,765.78 1387.17,766.15 1388.79,762.4" fill="none" stroke="#1e1e1e" stroke-width="1.14" stroke-linecap="round" stroke-linejoin="round"/>
<path d="M1463.39,707.93L1463.91,709.15L1459.92,711.93L1456.64,709.21L1463.39,707.93Z" fill-rule="evenodd" fill="#4682b4" fill-opacity="0.471"/>
<polyline points="1463.39,707.93 1463.91,709.15 1459.92,711.93 1456.64,709.21 1463.39,707.93" fill="none" stroke="#1e1e1e" stroke-width="1.14" stroke-linecap="round" stroke-linejoin="round"/>
<path d="M295.13,500.2L302.74,503.32L308.41,509.56L309.8,514.24L305.68,513.89L298.73,510.63L296.31,508.65L287.4,507.3L281.22,502.15L282.53,501.05L292.64,502.12L295.13,500.2Z" fill-rule="evenodd" fill="#4682b4" fill-opacity="0.471"/>
<polyline points="295.13,500.2 302.74,503.32 308.41,509.56 309.8,514.24 305.68,513.89 298.73,510.63 296.31,508.65 287.4,507.3 281.22,502.15 282.53,501.05 292.64,502.12 295.13,500.2" fill="none" stroke="#1e1e1e" stroke-width="1.14" stroke-linecap="round" stroke-linejoin="round"/>
<path d="M374.05,513.94L373.2,509.52L375.28,505.73L380.82,502.84L384.44,505.48L384.35,509.78L387.56,511.49L386.53,514.05L382.68,513.83L381.26,516.94L376.21,516.6L374.05,513.94Z" fill-rule="evenodd" fill="#4682b4" fill-opacity="0.471"/>
<polyline points="374.05,513.94 373.2,509.52 375.28,505.73 380.82,502.84 384.44,505.48 384.35,509.78 387.56,511.49 386.53,514.05 382.68,513.83 381.26,516.94 376.21,516.6 374.05,513.94" fill="none" stroke="#1e1e1e" stroke-width="1.14" stroke-linecap="round" stroke-linejoin="round"/>
<path d="M158.59,387.7L155.89,385.19L159.28,380.83L162.23,382.4L163.21,385.07L161.13,387.92L158.59,387.7Z" fill-rule="evenodd" fill="#4682b4" fill-opacity="0.471"/>
<polyline points="158.59,387.7 155.89,385.19 159.28,380.83 162.23,382.4 163.21,385.07 161.13,387.92 158.59,387.7" fill="none" stroke="#1e1e1e" stroke-width="1.14" stroke-linecap="round" stroke-linejoin="round"/>
<path d="M31.69,329.64L26.63,330L23.15,329.13L22.03,326.2L23.04,323.62L25.54,321.56L30.06,320.93L33.26,321.41L36.16,326.46L31.69,329.64Z" fill-rule="evenodd" fill="#4682b4" fill-opacity="0.471"/>
<polyline points="31.69,329.64 26.63,330 23.15,329.13 22.03,326.2 23.04,323.62 25.54,321.56 30.06,320.93 33.26,321.41 36.16,326.46 31.69,329.64" fill="none" stroke="#1e1e1e" stroke-width="1.14" stroke-linecap="round" stroke-linejoin="round"/>
<path d="M59.37,291.62L60,289.59L62.11,288.21L62.93,289.27L66.15,290.42L66.04,292.03L59.37,291.62Z" fill-rule="evenodd" fill="#4682b4" fill-opacity="0.471"/>
<polyline points="59.37,291.62 60,289.59 62.11,288.21 62.93,289.27 66.15,290.42 66.04,292.03 59.37,291.62" fill="none" stroke="#1e1e1e" stroke-width="1.14" stroke-linecap="round" stroke-linejoin="round"/>
<path d="M85.44,251.22L84.17,246.94L88.14,245.12L91.49,246.14L89.16,249.81L85.44,251.22Z" fill-rule="evenodd" fill="#4682b4" fill-opacity="0.471"/>
<polyline points="85.44,251.22 84.17,246.94 88.14,245.12 91.49,246.14 89.16,249.81 85.44,251.22" fill="none" stroke="#1e1e1e" stroke-width="1.14" stroke-linecap="round" stroke-linejoin="round"/>
<path d="M46.81,276.26L46.77,273.98L49.24,270.57L51.92,271.46L53.71,274.39L56.66,275.27L59.52,278.18L64.74,279.15L67.84,281.11L68.21,286.48L67.04,287.98L63.06,289.13L62.77,288.2L61.84,288.08L60.26,289.32L55.87,290.21L52.39,289.46L48.67,290.21L45.68,287.31L42.36,287.77L44.77,281.41L47.14,279.89L46.81,276.26Z" fill-rule="evenodd" fill="#4682b4" fill-opacity="0.471"/>
<polyline points="46.81,276.26 46.77,273.98 49.24,270.57 51.92,271.46 53.71,274.39 56.66,275.27 59.52,278.18 64.74,279.15 67.84,281.11 68.21,286.48 67.04,287.98 63.06,289.13 62.77,288.2 61.84,288.08 60.26,289.32 55.87,290.21 52.39,289.46 48.67,290.21 45.68,287.31 42.36,287.77 44.77,281.41 47.14,279.89 46.81,276.26" fill="none" stroke="#1e1e1e" stroke-width="1.14" stroke-linecap="round" stroke-linejoin="round"/>
<path d="M89.41,271.58L93.49,268.15L92.45,262.52L95.36,260.85L93.42,256.86L97.16,256.92L97.51,261.76L99.24,261.59L99.85,265.48L97.54,271.03L95.84,272.94L92.78,273.27L89.41,271.58Z" fill-rule="evenodd" fill="#4682b4" fill-opacity="0.471"/>
<polyline points="89.41,271.58 93.49,268.15 92.45,262.52 95.36,260.85 93.42,256.86 97.16,256.92 97.51,261.76 99.24,261.59 99.85,265.48 97.54,271.03 95.84,272.94 92.78,273.27 89.41,271.58" fill="none" stroke="#1e1e1e" stroke-width="1.14" stroke-linecap="round" stroke-linejoin="round"/>
<path d="M235.78,439.67L235.03,442.64L238.62,451.72L235.81,450.42L235.07,445.33L233.6,444.81L229.95,440.57L227.94,440.06L222.8,434.23L224.23,432.33L227.57,433.08L230.35,432.5L234.66,435.53L235.78,439.67Z" fill-rule="evenodd" fill="#4682b4" fill-opacity="0.471"/>
<polyline points="235.78,439.67 235.03,442.64 238.62,451.72 235.81,450.42 235.07,445.33 233.6,444.81 229.95,440.57 227.94,440.06 222.8,434.23 224.23,432.33 227.57,433.08 230.35,432.5 234.66,435.53 235.78,439.67" fill="none" stroke="#1e1e1e" stroke-width="1.14" stroke-linecap="round" stroke-linejoin="round"/>
<path d="M195.81,417.59L198.2,417.69L200.11,420.34L200.15,422.9L192.92,420.32L190.76,418.21L191.62,413.63L194.83,414.52L195.81,417.59Z" fill-rule="evenodd" fill="#4682b4" fill-opacity="0.471"/>
<polyline points="195.81,417.59 198.2,417.69 200.11,420.34 200.15,422.9 192.92,420.32 190.76,418.21 191.62,413.63 194.83,414.52 195.81,417.59" fill="none" stroke="#1e1e1e" stroke-width="1.14" stroke-linecap="round" stroke-linejoin="round"/>
<path d="M221.65,420.27L216.38,414.71L214.2,411.12L214.67,407.08L213.17,404.96L215.68,395.11L218.3,392.38L224.22,388.39L231.25,386.27L236.32,387.4L240.77,391.1L244.98,396.68L246.8,402.83L246.39,410.76L247.92,415.58L245.44,418.97L245.75,421.52L241.56,425.88L238.5,425.79L236.19,422.87L230.62,423.76L224.34,421.98L221.65,420.27Z" fill-rule="evenodd" fill="#4682b4" fill-opacity="0.471"/>
<polyline points="221.65,420.27 216.38,414.71 214.2,411.12 214.67,407.08 213.17,404.96 215.68,395.11 218.3,392.38 224.22,388.39 231.25,386.27 236.32,387.4 240.77,391.1 244.98,396.68 246.8,402.83 246.39,410.76 247.92,415.58 245.44,418.97 245.75,421.52 241.56,425.88 238.5,425.79 236.19,422.87 230.62,423.76 224.34,421.98 221.65,420.27" fill="none" stroke="#1e1e1e" stroke-width="1.14" stroke-linecap="round" stroke-linejoin="round"/>
<path d="M234.01,428.15L240.38,427.24L245.35,430.39L247,433.86L246.56,439.91L247.53,442.86L245.55,443.83L238.35,442.32L234.01,428.15Z" fill-rule="evenodd" fill="#4682b4" fill-opacity="0.471"/>
<polyline points="234.01,428.15 240.38,427.24 245.35,430.39 247,433.86 246.56,439.91 247.53,442.86 245.55,443.83 238.35,442.32 234.01,428.15" fill="none" stroke="#1e1e1e" stroke-width="1.14" stroke-linecap="round" stroke-linejoin="round"/>
<path d="M159.34,408.65L159.31,406.77L156.04,402.12L158.4,399.79L161.19,399.75L165.01,405.73L165.78,411.63L168.8,417.22L169.03,423.13L170.7,427.54L169.04,431.73L165.87,433.12L162.93,424.31L159.41,420.87L159.34,408.65Z" fill-rule="evenodd" fill="#4682b4" fill-opacity="0.471"/>
<polyline points="159.34,408.65 159.31,406.77 156.04,402.12 158.4,399.79 161.19,399.75 165.01,405.73 165.78,411.63 168.8,417.22 169.03,423.13 170.7,427.54 169.04,431.73 165.87,433.12 162.93,424.31 159.41,420.87 159.34,408.65" fill="none" stroke="#1e1e1e" stroke-width="1.14" stroke-linecap="round" stroke-linejoin="round"/>
<path d="M163.9,378.61L164.26,376.32L158.74,372.38L154.38,366.4L154.16,361.7L155.15,356.99L157.76,353.85L166.22,349.95L170.54,353.1L171.52,356.31L176.65,360.53L182.1,367.96L185.29,367.51L190.36,368.5L193.22,372.08L193.14,375.31L189.9,380.87L185.68,383.76L183.73,386.61L182.37,393.08L180.94,394.72L183.4,398.85L183.57,401.13L181.6,403.04L178.48,399.19L174.24,400.2L173.79,397.39L175.33,393.87L171.3,391.52L167.58,391.71L167,388.9L168.57,387.13L168.75,382.02L167.91,379.48L163.9,378.61Z" fill-rule="evenodd" fill="#4682b4" fill-opacity="0.471"/>
<polyline points="163.9,378.61 164.26,376.32 158.74,372.38 154.38,366.4 154.16,361.7 155.15,356.99 157.76,353.85 166.22,349.95 170.54,353.1 171.52,356.31 176.65,360.53 182.1,367.96 185.29,367.51 190.36,368.5 193.22,372.08 193.14,375.31 189.9,380.87 185.68,383.76 183.73,386.61 182.37,393.08 180.94,394.72 183.4,398.85 183.57,401.13 181.6,403.04 178.48,399.19 174.24,400.2 173.79,397.39 175.33,393.87 171.3,391.52 167.58,391.71 167,388.9 168.57,387.13 168.75,382.02 167.91,379.48 163.9,378.61" fill="none" stroke="#1e1e1e" stroke-width="1.14" stroke-linecap="round" stroke-linejoin="round"/>
<path d="M355.39,477.23L359.29,480.81L362.15,475.8L369.47,476.92L371.49,478.77L372.07,483.06L368.4,486.87L363.63,487.87L362.74,490.84L367.38,490.51L369.3,495.06L368.81,498.42L365.9,499.13L364.89,503.31L360.93,505.1L359.64,508.48L357.14,509.58L354.19,507.74L349.28,508.07L344.59,504.37L344.02,501.69L339.73,498.79L338.23,495.45L340.44,491.53L339.3,486.31L342.98,482.76L347.09,482.31L350.36,478.77L349.93,476.36L352.57,474.98L355.39,477.23Z" fill-rule="evenodd" fill="#4682b4" fill-opacity="0.471"/>
<polyline points="355.39,477.23 359.29,480.81 362.15,475.8 369.47,476.92 371.49,478.77 372.07,483.06 368.4,486.87 363.63,487.87 362.74,490.84 367.38,490.51 369.3,495.06 368.81,498.42 365.9,499.13 364.89,503.31 360.93,505.1 359.64,508.48 357.14,509.58 354.19,507.74 349.28,508.07 344.59,504.37 344.02,501.69 339.73,498.79 338.23,495.45 340.44,491.53 339.3,486.31 342.98,482.76 347.09,482.31 350.36,478.77 349.93,476.36 352.57,474.98 355.39,477.23" fill="none" stroke="#1e1e1e" stroke-width="1.14" stroke-linecap="round" stroke-linejoin="round"/>
<path d="M248.96,485.42L248.27,483.55L255.31,474.71L257.83,474.14L259.37,470.22L262.63,466.41L263.79,463.84L268.26,460.28L272.54,462.1L274.57,464.63L276.91,470.64L276.95,473.06L272.94,480.5L270.71,482.82L267.41,483.94L268.43,499.24L273.11,501.86L267.81,502.61L263.79,499.85L262.65,495.03L257.7,492.55L248.96,485.42Z" fill-rule="evenodd" fill="#4682b4" fill-opacity="0.471"/>
<polyline points="248.96,485.42 248.27,483.55 255.31,474.71 257.83,474.14 259.37,470.22 262.63,466.41 263.79,463.84 268.26,460.28 272.54,462.1 274.57,464.63 276.91,470.64 276.95,473.06 272.94,480.5 270.71,482.82 267.41,483.94 268.43,499.24 273.11,501.86 267.81,502.61 263.79,499.85 262.65,495.03 257.7,492.55 248.96,485.42" fill="none" stroke="#1e1e1e" stroke-width="1.14" stroke-linecap="round" stroke-linejoin="round"/>
<path d="M274.53,406.72L275.31,405.23L280.23,405.3L285.36,400.92L288.43,401.42L290.2,404.48L293.66,404.84L298.36,407.33L301.18,409.84L302.97,413.85L301.21,421.26L302.68,421.51L305.14,426.44L301.97,428.37L304.67,431.42L306.34,436.64L311.54,437.37L314,432.91L317.07,433.54L319.9,436.45L324.18,437.87L324.61,440.69L327.08,446.03L332.18,449.72L332.25,454.83L336.81,458.66L338.45,461.87L339.2,468.17L342.55,470.54L341.28,474.59L338.12,476.78L338.86,482.55L334.59,481.67L327.17,483.11L323.39,478.32L319.36,475.42L312.86,475.51L307.89,471.81L303.48,469.86L301.82,465.32L297.82,464.03L295.48,458.42L297.05,456.65L303.73,459.51L303.16,456.43L299.4,453.8L297.6,448.72L297.41,444.82L295.68,444.17L294.17,440.7L286.76,443.23L286.07,441.35L281.81,441.41L276.93,443.9L269.5,445.08L266.16,443.79L265.69,448.23L263.17,448.94L260.7,452.47L255.9,451.73L252.27,448.43L248.45,442.44L248.37,437.07L250.57,432.73L254.69,432.27L256.83,433.04L260.13,431.92L262.61,428.66L264.27,423.67L265.59,422.97L267.36,417.04L270.46,410.68L274.53,406.72Z" fill-rule="evenodd" fill="#4682b4" fill-opacity="0.471"/>
<polyline points="274.53,406.72 275.31,405.23 280.23,405.3 285.36,400.92 288.43,401.42 290.2,404.48 293.66,404.84 298.36,407.33 301.18,409.84 302.97,413.85 301.21,421.26 302.68,421.51 305.14,426.44 301.97,428.37 304.67,431.42 306.34,436.64 311.54,437.37 314,432.91 317.07,433.54 319.9,436.45 324.18,437.87 324.61,440.69 327.08,446.03 332.18,449.72 332.25,454.83 336.81,458.66 338.45,461.87 339.2,468.17 342.55,470.54 341.28,474.59 338.12,476.78 338.86,482.55 334.59,481.67 327.17,483.11 323.39,478.32 319.36,475.42 312.86,475.51 307.89,471.81 303.48,469.86 301.82,465.32 297.82,464.03 295.48,458.42 297.05,456.65 303.73,459.51 303.16,456.43 299.4,453.8 297.6,448.72 297.41,444.82 295.68,444.17 294.17,440.7 286.76,443.23 286.07,441.35 281.81,441.41 276.93,443.9 269.5,445.08 266.16,443.79 265.69,448.23 263.17,448.94 260.7,452.47 255.9,451.73 252.27,448.43 248.45,442.44 248.37,437.07 250.57,432.73 254.69,432.27 256.83,433.04 260.13,431.92 262.61,428.66 264.27,423.67 265.59,422.97 267.36,417.04 270.46,410.68 274.53,406.72" fill="none" stroke="#1e1e1e" stroke-width="1.14" stroke-linecap="round" stroke-linejoin="round"/>
<text x="545.45" y="628.01" font-family="sans-serif" font-size="14" stroke="#ffffff" stroke-opacity="0.784" stroke-width="2.33" stroke-linejoin="round" paint-order="stroke" fill="#141414">Guadalcanal Province</text>
<text x="216.89" y="448.79" font-family="sans-serif" font-size="14" stroke="#ffffff" stroke-opacity="0.784" stroke-width="2.33" stroke-linejoin="round" paint-order="stroke" fill="#141414">Western Province</text>
<text x="678.73" y="541.2" font-family="sans-serif" font-size="14" stroke="#ffffff" stroke-opacity="0.784" stroke-width="2.33" stroke-linejoin="round" paint-order="stroke" fill="#141414">Malaita Province</text>
<text x="440.09" y="413.43" font-family="sans-serif" font-size="14" stroke="#ffffff" stroke-opacity="0.784" stroke-width="2.33" stroke-linejoin="round" paint-order="stroke" fill="#141414">Isabel Province</text>
<text x="128.85" y="283.52" font-family="sans-serif" font-size="14" stroke="#ffffff" stroke-opacity="0.784" stroke-width="2.33" stroke-linejoin="round" paint-order="stroke" fill="#141414">Choiseul Province</text>
<text x="759.33" y="751.86" font-family="sans-serif" font-size="14" stroke="#ffffff" stroke-opacity="0.784" stroke-width="2.33" stroke-linejoin="round" paint-order="stroke" fill="#141414">Makira-Ulawa Province</text>
<text x="1330.79" y="778.03" font-family="sans-serif" font-size="14" stroke="#ffffff" stroke-opacity="0.784" stroke-width="2.33" stroke-linejoin="round" paint-order="stroke" fill="#141414">Temotu Province</text>
<text x="526.34" y="901.62" font-family="sans-serif" font-size="14" stroke="#ffffff" stroke-opacity="0.784" stroke-width="2.33" stroke-linejoin="round" paint-order="stroke" fill="#141414">Rennell and Bellona Province</text>
</svg>
