<?xml version="1.0" encoding="UTF-8" standalone="no"?>
<svg xmlns="http://www.w3.org/2000/svg" width="1602" height="2000" viewBox="0 0 1602 2000">
<rect width="1602" height="2000" fill="#ffffff"/>
<path d="M722.26,443.15L720.83,446.88L721.94,448.99L721.85,452.05L719.37,453.33L716.73,452.28L715.57,447.47L710.69,445.09L706.36,445.07L703.45,442.62L700.57,442.73L698.47,444.93L700.59,447.65L696.15,446.77L695.3,447.24L700.29,453.51L702.12,457.47L705.92,458.87L703.1,460.02L701.54,462.32L700.92,460.58L699.27,459.24L698.27,456.28L694.16,453.3L690.24,452.88L689.39,451.94L689.13,450.01L690.11,447.44L692.32,445.07L701.4,439.84L705.44,438.97L707.47,442.08L710,441.63L716.75,444L717.39,447.93L718.13,448.55L719.84,444.49L721.86,442.57L722.26,443.15Z" fill-rule="evenodd" fill="#4682b4" fill-opacity="0.471"/>
<polyline points="722.26,443.15 720.83,446.88 721.94,448.99 721.85,452.05 719.37,453.33 716.73,452.28 715.57,447.47 710.69,445.09 706.36,445.07 703.45,442.62 700.57,442.73 698.47,444.93 700.59,447.65 696.15,446.77 695.3,447.24 700.29,453.51 702.12,457.47 705.92,458.87 703.1,460.02 701.54,462.32 700.92,460.58 699.27,459.24 698.27,456.28 694.16,453.3 690.24,452.88 689.39,451.94 689.13,450.01 690.11,447.44 692.32,445.07 701.4,439.84 705.44,438.97 707.47,442.08 710,441.63 716.75,444 717.39,447.93 718.13,448.55 719.84,444.49 721.86,442.57 722.26,443.15" fill="none" stroke="#1e1e1e" stroke-width="0.93" stroke-linecap="round" stroke-linejoin="round"/>
<path d="M890.37,393.55L891.26,394.9L891.03,396.13L889.07,393.75L887.71,393.8L884.99,395.71L883.76,395.3L884.08,393.98L882.53,392.9L881.89,390.98L878.05,392.02L876.37,389.83L872.31,387.62L871.54,388.67L869.91,388.7L872.09,392.98L873.32,393.75L870.18,395.04L869.34,396.21L870.62,396.31L873.69,399.37L875.35,396.04L877.24,394.9L878.66,395.26L880.36,399L880.24,400.92L883.57,402.64L883.84,404.17L882.82,404.99L882.91,409.61L881.18,410.32L879.71,405.74L881.33,404.44L877.46,399.31L876.61,403.49L875.97,403.82L875.99,402.21L874.72,401.25L869.09,398.88L867.59,400.78L866.71,400.25L866.02,397.54L865.07,397.25L866.56,394.31L869.37,393.53L870.12,392.19L869.35,391.15L866.04,390.24L866.74,389.02L868.02,388.69L867.18,387.59L864.91,388.45L862.47,391.75L861.57,388.58L864.89,383.5L865.23,380.64L867.78,383.16L868.98,386.57L874.02,385.58L878.31,388.79L884.35,388.86L884.33,392.67L885.2,393.7L886.12,392.09L887.86,391.24L889.47,391.49L890.37,393.55Z" fill-rule="evenodd" fill="#4682b4" fill-opacity="0.471"/>
<polyline points="890.37,393.55 891.26,394.9 891.03,396.13 889.07,393.75 887.71,393.8 884.99,395.71 883.76,395.3 884.08,393.98 882.53,392.9 881.89,390.98 878.05,392.02 876.37,389.83 872.31,387.62 871.54,388.67 869.91,388.7 872.09,392.98 873.32,393.75 870.18,395.04 869.34,396.21 870.62,396.31 873.69,399.37 875.35,396.04 877.24,394.9 878.66,395.26 880.36,399 880.24,400.92 883.57,402.64 883.84,404.17 882.82,404.99 882.91,409.61 881.18,410.32 879.71,405.74 881.33,404.44 877.46,399.31 876.61,403.49 875.97,403.82 875.99,402.21 874.72,401.25 869.09,398.88 867.59,400.78 866.71,400.25 866.02,397.54 865.07,397.25 866.56,394.31 869.37,393.53 870.12,392.19 869.35,391.15 866.04,390.24 866.74,389.02 868.02,388.69 867.18,387.59 864.91,388.45 862.47,391.75 861.57,388.58 864.89,383.5 865.23,380.64 867.78,383.16 868.98,386.57 874.02,385.58 878.31,388.79 884.35,388.86 884.33,392.67 885.2,393.7 886.12,392.09 887.86,391.24 889.47,391.49 890.37,393.55" fill="none" stroke="#1e1e1e" stroke-width="0.93" stroke-linecap="round" stroke-linejoin="round"/>
<path d="M648.72,648.77L649.47,652.2L647.35,651.65L645.02,648.58L643.12,649.61L641.71,643.48L639.16,644.79L639.46,639.06L638.65,637.97L635.34,638.28L633.83,636L636.14,634.96L636.55,632.14L635.71,631.13L631.86,630.12L634.09,629.22L636.15,629.76L639.06,632.38L641.08,638.03L644.13,641.61L643.59,643.46L644.09,645.17L647.87,647.43L648.72,648.77Z" fill-rule="evenodd" fill="#4682b4" fill-opacity="0.471"/>
<polyline points="648.72,648.77 649.47,652.2 647.35,651.65 645.02,648.58 643.12,649.61 641.71,643.48 639.16,644.79 639.46,639.06 638.65,637.97 635.34,638.28 633.83,636 636.14,634.96 636.55,632.14 635.71,631.13 631.86,630.12 634.09,629.22 636.15,629.76 639.06,632.38 641.08,638.03 644.13,641.61 643.59,643.46 644.09,645.17 647.87,647.43 648.72,648.77" fill="none" stroke="#1e1e1e" stroke-width="0.93" stroke-linecap="round" stroke-linejoin="round"/>
<path d="M714.95,673.11L716.68,672.86L715.36,674.94L711.87,674.02L711.71,679.31L710.34,678.89L708.01,682.25L706.46,681.28L705.52,681.89L704.29,686.66L703.06,685.37L701.37,685.26L699.93,686.93L692.53,686.89L691.59,686.07L695.9,683.94L694.75,683.43L692.46,683.99L692.24,679.8L687.4,679.99L685.51,678.72L685.65,677.06L689.14,676.41L688.43,674.99L689.08,674.02L690.49,674.06L691.42,675.45L693.48,675.94L695.37,674.24L696.01,675.72L693.64,678.65L697.1,679.74L698.4,682.3L699.3,681.68L700.24,682.27L701.17,681.15L702.17,682.01L703.87,675.26L706.15,677.36L705.72,679.48L708.9,677.85L709.39,676.12L708.44,674.07L711.25,671.53L712.53,671.35L714.44,673.51L714.95,673.11Z" fill-rule="evenodd" fill="#4682b4" fill-opacity="0.471"/>
<polyline points="714.95,673.11 716.68,672.86 715.36,674.94 711.87,674.02 711.71,679.31 710.34,678.89 708.01,682.25 706.46,681.28 705.52,681.89 704.29,686.66 703.06,685.37 701.37,685.26 699.93,686.93 692.53,686.89 691.59,686.07 695.9,683.94 694.75,683.43 692.46,683.99 692.24,679.8 687.4,679.99 685.51,678.72 685.65,677.06 689.14,676.41 688.43,674.99 689.08,674.02 690.49,674.06 691.42,675.45 693.48,675.94 695.37,674.24 696.01,675.72 693.64,678.65 697.1,679.74 698.4,682.3 699.3,681.68 700.24,682.27 701.17,681.15 702.17,682.01 703.87,675.26 706.15,677.36 705.72,679.48 708.9,677.85 709.39,676.12 708.44,674.07 711.25,671.53 712.53,671.35 714.44,673.51 714.95,673.11" fill="none" stroke="#1e1e1e" stroke-width="0.93" stroke-linecap="round" stroke-linejoin="round"/>
<text x="639.96" y="455.34" font-family="sans-serif" font-size="14" stroke="#ffffff" stroke-opacity="0.784" stroke-width="2.33" stroke-linejoin="round" paint-order="stroke" fill="#141414">Bloemhof Dam</text>
<text x="832.99" y="400.93" font-family="sans-serif" font-size="14" stroke="#ffffff" stroke-opacity="0.784" stroke-width="2.33" stroke-linejoin="round" paint-order="stroke" fill="#141414">Vaal Dam</text>
<text x="648.61" y="686.84" font-family="sans-serif" font-size="14" stroke="#ffffff" stroke-opacity="0.784" stroke-width="2.33" stroke-linejoin="round" paint-order="stroke" fill="#141414">Gariep Dam</text>
<text x="563.85" y="647.47" font-family="sans-serif" font-size="14" stroke="#ffffff" stroke-opacity="0.784" stroke-width="2.33" stroke-linejoin="round" paint-order="stroke" fill="#141414">Vanderkloof Dam</text>
</svg>
