<?xml version="1.0" encoding="UTF-8" standalone="no"?>
<svg xmlns="http://www.w3.org/2000/svg" width="2000" height="1407" viewBox="0 0 2000 1407">
<rect width="2000" height="1407" fill="#ffffff"/>
<polyline points="1801.49,1087.46 1797.27,1100.11 1794.43,1106.26 1790.25,1111.02 1782.84,1113.56 1776.02,1111.24 1763.93,1101.15 1757.01,1097.66 1752.66,1099.81 1749.16,1104.51 1744.69,1108.75 1731.65,1113.86 1724.65,1114.85 1717.42,1114.39 1713.89,1113.5 1708.04,1110.56 1703.61,1106.21 1694.93,1090.54 1692.54,1087.53 1672.68,1068.21 1664.53,1055 1657.39,1037.96 1649.42,1030.68 1648.4,1028.27 1649.01,1024.32 1647.36,1016.25 1639.54,1009.75 1629.81,1004.06 1622.36,998.48 1619.91,994.81 1618.8,991.47 1618.51,983.89 1617,980.07 1613.36,977.29 1608.82,975.42 1597.19,972.63 1582.62,955.52 1561.97,920.18 1559.76,913.16 1559.54,909.89 1562.17,901.79 1561.35,899.42 1554.27,892.07" fill="none" stroke="#1e1e1e" stroke-width="1.21" stroke-linecap="round" stroke-linejoin="round"/>
<polyline points="1516.35,701.16 1514.04,717.98 1514.29,721.73 1517.64,731.81 1517.15,735.02 1512.02,749.21 1512.95,752.64 1515.63,755.01 1516.31,756.84 1515.73,758.74 1511.36,762.64 1511.19,764.3 1512.62,768.7 1511.6,772.94 1513.56,777.94 1511.61,784.63 1513.6,791.63 1521.9,802.95 1524.15,809.84 1522.86,815.14 1525.03,818.23 1524.71,819.82 1520.64,827.38 1521.69,837.05 1520.22,841.96 1520.74,844.58 1544.16,884.51 1547.22,887.84 1554.27,892.07" fill="none" stroke="#1e1e1e" stroke-width="1.21" stroke-linecap="round" stroke-linejoin="round"/>
<polyline points="184.16,712.52 183.93,717.1 186.01,728.44 185.56,738.86 186.56,742.64 192.18,753.72 195.77,758.31 200.17,761.88 193.88,772.1 191.74,778.46 187.86,785.67 186.85,789.75 187.48,796.52 192.99,804.62 193.76,808.78 193.12,817.57 191.17,824.4 193.06,831.87 192.39,834.41 190.87,836.2 187.11,836.73 184.03,841.29 182.59,842.09 169.18,842.38 162.89,843.67 158.27,847.67 157.11,849.64 157,852.33 159.61,856.5 157.4,858.94 155.77,864.05 151.32,866.39 150.51,868.16 153.69,873.05 152.54,874.3 148.36,874.69 146.14,878.96 145.39,883.37 145.7,896.55 143.48,901.71 144.17,916.63 141.44,923.3 139.68,932.97 138.28,936.08 134.08,938.68 133.06,940.67 133.74,945.3 139.98,952.66 140.31,953.94 139.67,957.28 140.65,960.2 139.98,961.29 136.78,962.28 136.85,964.49 140.3,969.34 140.08,972.87 137.55,980.06 137.99,983.15 141.49,982.8 143.57,984.98 143.8,990.61 141.75,998.03 145.8,1002.6 143.02,1004.9 142.85,1005.87 144.98,1009.55 151.39,1013.73 140.97,1019.8 139.03,1022.53 139.85,1025.91 142.66,1029.37 148.26,1034.9 150.76,1036.08 150.63,1036.83 148.32,1037.44 149.41,1044.44 152.73,1049.77 155.64,1052.78 155.09,1054.93 153.86,1056.43 151.16,1057.59 150.26,1059.54 151.71,1065.15 151.53,1067.3 149.28,1070.55 143.67,1070.2 140.56,1071.42 139.55,1072.76 139.25,1075.62 140.76,1081.19 139.63,1085.45 136.93,1085.68 135.24,1088.38 136.32,1088.61 136.14,1090.54 134.19,1092.3 131.89,1093.5 127.91,1093.53 124.76,1095.61 121.54,1103.8 117.43,1108.93 104.65,1129.55 100.5,1134.85 97.19,1142.51 91.94,1146.7 89.57,1156.14 84.88,1159.59 81.47,1164.4 80.74,1169.61 83.54,1181.25" fill="none" stroke="#1e1e1e" stroke-width="1.21" stroke-linecap="round" stroke-linejoin="round"/>
<polyline points="631.54,1143.56 628.66,1142.72 622.23,1137.72 612.44,1135.62 599.53,1129.13 593.06,1126.73 586.34,1126.21 579.05,1128.28 568.65,1134.36 559.48,1143.28 556.31,1149.75 553.6,1152.23 550.83,1151.97 548.19,1149.69 544.36,1151.92 536.9,1144.11 533.57,1143.1 526.03,1143.05 520.62,1146.35 517.2,1145.63 516.23,1147.3 515.25,1147.29 514.01,1145.52 511.29,1145.11 508.41,1146.08 506.52,1148.41 505.45,1147.22 500.23,1150.19 496.15,1150.25 489.9,1148.28 486.67,1141.19 480.12,1136.49 478.66,1134.05 474.24,1136.08 472.77,1134.2 467.11,1134.37 460.05,1132.3 457.14,1130.18 456.03,1127.38 452.77,1128.44 452.8,1125.1 450.83,1125.88 448.46,1119.66 446.29,1121.71 444.15,1119.62 441.99,1120.54 439.98,1117.46 437.73,1116.34 436.08,1119.05 434.96,1119.54 431.16,1118.53 432.18,1123.84 429.35,1122.98 428.31,1123.62 427.87,1125.42 423.03,1125.84 421.41,1127.09 416.66,1122.41 412.79,1121.04 411.36,1121.53 410.64,1123.06 410.65,1125.81 408.24,1124.73 405.44,1125.08 403.37,1126.86 403.09,1130.07 400.27,1127.65 397.1,1122.58 393.47,1122.41 391.36,1125.23 389.78,1126.05 387.51,1120.3 388.04,1118.15 384.9,1119.1 384.53,1115.22 382.35,1114.21 380.92,1114.82 382.76,1115.84 381.28,1117.94 379.11,1118.09 376.88,1117.09 368.67,1109.22 365.18,1108.18 362.24,1105.93 357.99,1107.52 355.78,1105.86 355.78,1104.87 357.96,1102.64 354.45,1102.66 351.47,1097.18 345.56,1097.06 343.84,1097.53 345.08,1100.35 339.31,1102.21 335.81,1099.88 328.37,1104.25 324.92,1105.03 322.16,1103.36 320.51,1105.32 317.07,1107.02 319.08,1109.81 315.83,1110.81 313.83,1113.1 312.52,1119.96 308.07,1126.73 309.08,1130.23 313.3,1131.49 314.53,1133.7 313.4,1138.48 310.63,1142.14 309.92,1147.8 307.79,1150.94 298.46,1152.14 295.15,1154.41 285.06,1154.93 281.38,1152.93 279.69,1152.8 275.15,1156.57 272.54,1162.92 271.17,1163.29 265.57,1161.59 260.23,1158.56 252.63,1156.82 247.7,1159.91 244.1,1160.62 235.21,1165.27 230.7,1163.99 225.9,1167.82 224.15,1168.01 222.29,1166.2 219.66,1167.93 216.62,1168.1 206.2,1166.88 204.62,1166.07 207.29,1161.7 198.62,1157.17 197.78,1155.33 197.83,1152.17 196.45,1150.66 188.95,1148.51 185.77,1143.07 178.63,1138.62 174.29,1137.51 170.66,1138.55 169.64,1143.79 167.47,1142.84 164.36,1135.03 159.76,1140.95 158.68,1144.36 160.35,1145.9 164.29,1146.76 164.53,1148.69 159.73,1152.36 148.4,1153.67 146.49,1155.36 143.68,1164.3 142.34,1165.21 141.36,1165.19 140.33,1161.36 137.76,1160.2 134.56,1160.94 131.61,1162.8 127.11,1168.5 125.5,1169.3 118.56,1165.98 115.59,1166.38 108.78,1171.24 97.85,1176.6 95.54,1174.26 93.57,1174.38 92.34,1176.91 93.08,1182.3 89.31,1182.24 82.63,1180.71 78.38,1182.82 72.33,1181.55 69.46,1182.45 63.33,1186.69 49.5,1189.68 43.36,1193.09 36.08,1194.76 32.67,1196.21 23.02,1203.67 13.9,1206.2" fill="none" stroke="#1e1e1e" stroke-width="1.21" stroke-linecap="round" stroke-linejoin="round"/>
<polyline points="1966.14,877.54 1963.57,882.01 1957.15,887.24 1948.74,889.1 1945.8,891.44 1940.59,892.61 1934.16,896.44 1933.27,894.82 1929.74,894.35 1927.62,890.06 1922.1,883.66 1923.11,879.42 1920.65,876.48 1916.73,875.54 1913.42,877.31 1911.86,876.56 1907.95,876.8 1899.45,881.26 1895.15,882.65 1893.23,889.36 1889.55,894.91 1884.42,898.66 1880.54,903.65 1881.7,905.57 1884.6,907.33 1883.31,909.61 1878.17,910.83 1876.3,913.43 1868.79,913.53 1864.76,915.26 1863.16,915.22 1861.18,913.63 1860.65,916.17 1858.74,916.69 1853.17,915.89 1851.71,916.83 1849.31,921.11 1847.26,922.45 1844.59,922.22 1840.28,918.32 1828.94,916.2 1822.6,909.56 1816.6,908.09 1811.01,900.8 1806.03,899.3 1797.01,899.37 1789.42,895.27 1787.51,893.12 1785.73,888.52 1774.95,881.54 1768.84,880.14 1762.13,880.21 1759.36,879.63 1757.5,878.11 1755.28,868.42 1757.37,866.77 1757.12,863.67 1753.97,856.46 1743.77,849.5 1721.47,844.42 1718.83,842.62 1717.22,838.95 1710.78,834.28 1705.75,829.44 1705.25,819.23 1702.95,813.21 1700.79,811.94 1695.26,813.9 1692.22,811.69 1687.89,806.36 1679.62,800.33 1679,784.78 1677.87,779.45 1675.1,775.14 1655.45,755.41 1650.75,752.69 1644.32,751.58 1636.34,745.79 1629.19,736.52 1622.77,734.42 1616.8,731.24 1606.65,732.3 1603.29,731.37 1597.89,725.92 1589.34,722.3 1578.52,723.93 1573.32,727.22 1571.35,727.29 1562.63,725.13 1557.29,719.74 1553.52,717.29 1548.42,716.54 1542.63,714.53 1537.57,715.71 1535.82,717.42 1530.27,715.61 1526,715.17 1524.91,714.68 1523.23,710.95 1520.51,709.35 1515.13,696.41" fill="none" stroke="#1e1e1e" stroke-width="1.21" stroke-linecap="round" stroke-linejoin="round"/>
<polyline points="22.44,634.14 25.49,639.3 28,640.21 27.82,643.24 33.76,647.04 35.97,651.08 38.96,653.36 39.62,655.1 39.37,672.31 38.23,674.23 35.53,674.95 34.98,675.78 34.35,686.38 33.79,687.97 29.93,692.01 28.45,697.34 21.46,699.46" fill="none" stroke="#1e1e1e" stroke-width="1.21" stroke-linecap="round" stroke-linejoin="round"/>
<polyline points="1547.57,613.84 1548.97,616.55 1543.34,619.17 1541.38,626.84 1543.42,628.88 1541.45,634.98 1541.96,636.85 1545.36,641.27 1548.89,642.96 1548.67,645.01 1544.75,647.41 1542.95,650.62 1542.66,654.45 1545.8,657.65 1545.42,660.79 1542.24,664.61 1539.57,665.9 1534.87,666.71 1532.28,671.96 1521.51,683.87 1520.05,688.79 1515.13,696.41" fill="none" stroke="#1e1e1e" stroke-width="1.21" stroke-linecap="round" stroke-linejoin="round"/>
<polyline points="1286.66,467.05 1287.71,469.04 1292.97,467.03 1295.24,468.04 1296.12,469.71 1295.39,471.39 1292.99,472.42 1295.29,474.79 1299.2,476.07 1307.49,476.67 1309.78,477.48 1313.31,481.12 1315.5,482.03 1318.24,478.78 1321.1,479.94 1324.52,478.93 1325.68,474.7 1329.99,475.49 1331.76,474.04 1332.51,468.75 1335.77,468.98 1341.52,473.58 1348.76,474.55 1360.62,478.36 1364.28,478.54 1365.87,479.39 1370.11,484.44 1370.05,487.24 1374.66,487.06 1377.09,485.76 1378.65,486.11 1380.22,488.58 1378.66,492.92 1383.63,494.28 1385.13,499.03 1390.48,502.23 1389.35,504.5 1389.51,506.21 1393.68,510.53 1395.09,511.01 1396.48,510.35 1400.59,506.38 1401.26,508.16 1403.18,508.92 1414.15,508.56 1416.79,510.37 1418.38,515.2 1422.69,517.63 1423.06,520.97 1421.4,530.79 1422.11,533.92 1424.12,536 1428.63,537.04 1430.33,538.78 1436.41,537.65 1437.79,538.73 1437.83,544.66 1439.3,546.36 1441.69,547.43 1444.9,546.83 1447.07,545.31 1449.64,540.9 1451.84,544.24 1453.53,552.25 1456.71,553.81 1464.43,555.54 1467.74,557.6 1471.96,564.15 1469.56,567.25 1468.36,571.48 1464.7,576.3 1464.84,578.67 1466.03,580.26 1467.64,580.82 1471.34,579.7 1475.18,587.33 1478.18,586.41 1479.41,583.41 1485.03,583.97 1487.39,584.98 1487.8,583.81 1489.51,582.8 1493.79,585.54 1503.49,586.81 1504.71,588.97 1505.8,594.65 1507.82,593.46 1510.49,587.55 1512.58,586.16 1521.02,586.39 1523.18,584.83 1524.42,585.04 1526.53,586.29 1527.8,588.34 1529.29,594.46 1532.42,592.7 1533.65,593.84 1533.67,599.29 1535.17,602.99 1539.53,604.09 1541.14,605.33 1539.13,612.73 1548.64,613.83" fill="none" stroke="#1e1e1e" stroke-width="1.21" stroke-linecap="round" stroke-linejoin="round"/>
<polyline points="1982.54,967.48 1982.01,968.29 1982.57,969.54" fill="none" stroke="#1e1e1e" stroke-width="1.21" stroke-linecap="round" stroke-linejoin="round"/>
<polyline points="1983.37,1023.39 1983.43,1027.25" fill="none" stroke="#1e1e1e" stroke-width="1.21" stroke-linecap="round" stroke-linejoin="round"/>
<polyline points="1983.62,1039.66 1981.66,1049.56 1981.83,1060.45 1980.48,1062.89 1976.45,1067.03 1975.63,1069.77 1979.39,1083.87 1976.86,1087.63 1977.78,1089.04 1982.29,1091.97 1983.39,1095.14 1983.58,1099.51 1984.51,1099.15" fill="none" stroke="#1e1e1e" stroke-width="1.21" stroke-linecap="round" stroke-linejoin="round"/>
<polyline points="1224.68,459.64 1221.73,460.61 1220.73,462.74 1220.35,469.47 1219.3,472.67 1213.9,477.04 1211.29,481.37 1196.8,490.15 1193.22,496 1186.85,500.44 1187.23,508.98 1186.3,511.86 1183.53,512.83 1181.52,516.69 1179.83,517.65 1175.06,517.84 1173.26,520.42 1170.35,530.26 1173.17,535.21 1178.15,538.49 1179.67,541.66 1179.71,545.01 1177.88,548.68 1179.93,553.43 1179.99,556.13 1177.35,557.32 1175.8,569.19 1171.22,576.72 1170.64,580.34 1168.36,584.25 1166.17,593.05 1161.52,595.52 1154.88,597.15 1149.08,600.3 1146.89,607.23 1150.36,622.14 1152.27,626.85 1150.04,630.97 1148.01,643.62 1148.74,666.48 1146.08,669.34 1143.84,678.65 1140.1,685.32 1137.47,700.45 1136.7,714.47 1134.93,721.59 1131.11,722.04" fill="none" stroke="#1e1e1e" stroke-width="1.21" stroke-linecap="round" stroke-linejoin="round"/>
<polyline points="1788.58,159.28 1783.42,157.64 1779.68,154.24 1773.75,144.92 1757.38,133.29 1752.99,128.56 1747.15,123.93 1738.76,119.33 1732.38,113.33 1727.84,104.73 1726.19,97.58 1727.08,90.64 1725.93,82.94" fill="none" stroke="#1e1e1e" stroke-width="1.21" stroke-linecap="round" stroke-linejoin="round"/>
<polyline points="1880.02,339.69 1875.8,334.17 1874.55,331.1 1873.75,324.11 1876.38,314.52 1873,305.47 1869.49,299.46 1869.97,291.47 1867.31,284.59 1863.77,280.67 1857.25,278.72 1853.06,274.96 1847.49,273.08 1846.7,272.2 1845.42,266.12 1845.5,263.02 1847.31,259.55 1847.23,253.07 1850,248.87 1852.36,240.42 1851.21,233.36 1855.12,222.27 1854.62,214.45 1850.12,207.37 1849.49,204.92 1849.34,197.67 1852.26,195.25 1853.64,191.9 1853.45,188.25 1851.71,184.95 1848.7,182.76 1841.56,179.84 1838.76,177.85 1835.22,170.82 1833.33,168.7 1828.58,167.61 1812.78,167.21 1807.13,164.69 1804.51,166.75 1796.15,165.68 1793.94,165 1788.58,159.28" fill="none" stroke="#1e1e1e" stroke-width="1.21" stroke-linecap="round" stroke-linejoin="round"/>
<polyline points="1725.93,82.94 1722.94,56.1 1715.7,38.93 1713.81,27.06 1713.83,24.25 1720.38,13.02 1719.33,11.24" fill="none" stroke="#1e1e1e" stroke-width="1.21" stroke-linecap="round" stroke-linejoin="round"/>
<polyline points="912.65,1398.94 910.04,1395.68 912.17,1393.17 912.38,1391 910.84,1388.32 905.04,1384.21 903.76,1380.71 902.26,1379.38 891.44,1384.39 889.96,1383.91 889.62,1382.22 887.8,1380.54 886.82,1380.54 885.84,1384 880.42,1383.68 872.13,1388.71 868.5,1388.37 864.29,1386.09 862.56,1383.85 857.62,1382.16 856.5,1382.48 855.95,1384.32 853.68,1384.35 842.23,1382.7 836.08,1380.29 833.3,1380.03 824.02,1381.84" fill="none" stroke="#1e1e1e" stroke-width="1.21" stroke-linecap="round" stroke-linejoin="round"/>
<polyline points="824.02,1381.84 821.02,1379.51 797.24,1372.33 794.24,1372.35 791.08,1370.83 787.9,1371.11 785.42,1372.95 782.96,1378.46 779.54,1379.91 775.6,1380.39 772.63,1379.85 770.53,1377.77 765.53,1368.36 758.59,1361.33 756.29,1360.12 746.04,1361.04 739.3,1357.81 736.21,1358.81 730.37,1363.46 727.18,1364.84 710.21,1366.1 699.99,1371.78 694.04,1373.68 688.04,1374.15 682.61,1372.99 677.95,1370.29 674.17,1369.66 662.43,1371.09 654.09,1373.56 651.02,1373.73 647.96,1373.02 645.29,1371.13 643.83,1366.15 641.94,1363.5 632.54,1358.13 625.86,1357.33 624.8,1350.91 621.3,1344.64 615.89,1340.49 612.73,1339.58 610.22,1340.12 609.17,1342.69 607.75,1342.96 601.26,1341.31 599.37,1343.13 601.48,1348.65 602.59,1371.77 601.67,1374.13 599.33,1375.39 592.47,1376.34 583.57,1385.26 582.81,1386.6 584.13,1392.1 582.01,1394.84 580.19,1394.97 575.22,1389.7 571.66,1388.72 558.16,1391.47 550.85,1394.62 548.09,1394.93 544.06,1389.54 541.68,1383.47 542.81,1376.99 540.59,1371.07 543.91,1351.23 543.03,1345.02 535.62,1340.87 534.43,1338.97 532.36,1329.03 527.99,1322.01 530.22,1319.26 528.83,1316.94 524.8,1315 523.3,1315.49 516.11,1313.48 513.42,1313.79 493.78,1329.97 487.85,1335.87 486.44,1338.74 484.54,1339.55 479.59,1348.27 476.88,1351.48 469.64,1352.31 465.56,1354.71 461.63,1358.74 455.96,1360.13 451.98,1363.76 450.09,1369.42 448.51,1370.37 444.93,1371.12 440.44,1369.37 436.1,1371.35 424.57,1367.75 422.36,1366.52 420.81,1360.99 419.03,1359.79 402.34,1361.12 396.2,1362.76 392.2,1366.53 389.79,1385.22 385.52,1389.29 382.43,1390.35 379.01,1390.32 376.37,1385.96 369.93,1383.34 368.23,1380.48 361.75,1379.24 355.64,1380.92 333.53,1390.6 329.62,1391.02 323.13,1387.6 319.49,1387.9 303.1,1392.26 302.18,1389.22 299.91,1387.92 297.07,1388.1 294.49,1389.47 290.47,1395.2" fill="none" stroke="#1e1e1e" stroke-width="1.21" stroke-linecap="round" stroke-linejoin="round"/>
<polyline points="240.24,1394.64 223.65,1392.41 221.9,1392.49 218,1394.38" fill="none" stroke="#1e1e1e" stroke-width="1.21" stroke-linecap="round" stroke-linejoin="round"/>
<polyline points="202.58,1394.2 199.49,1392.52 195.18,1394.11" fill="none" stroke="#1e1e1e" stroke-width="1.21" stroke-linecap="round" stroke-linejoin="round"/>
<polyline points="182,1393.95 176.58,1388.03 174.66,1387 155.72,1382.53 149.42,1378.05 133.06,1360.97 127.96,1358.3 120.31,1358.16 115.63,1359.26 109.66,1357.09 95.41,1355.57 91.76,1356.7 86.26,1360.2 82.86,1360.91 63.24,1357.64 60.64,1355.97 58.98,1348.65 57.14,1346.75 51.21,1344.13 42.21,1336.71 37.54,1333.97 30.67,1333.01 27.86,1333.6 20.55,1338.84 15.46,1339.28 11.92,1338.29" fill="none" stroke="#1e1e1e" stroke-width="1.21" stroke-linecap="round" stroke-linejoin="round"/>
<polyline points="1973.23,344.2 1969.51,348.25 1969.16,351.55 1967.51,354.93 1964.2,357.17 1960.23,358.41 1956.48,358.79 1953.2,358.11 1949.55,355.23 1940.33,353.82 1938.91,354.71 1938.33,356.2 1940.49,364.9 1937.93,366.8 1930.19,368.4 1928.46,366.89 1925.44,361.6 1917.52,357.58 1904.3,348.73 1902.69,346.05 1894.2,342.39 1889.02,345.71 1882.61,342.55 1880.02,339.69" fill="none" stroke="#1e1e1e" stroke-width="1.21" stroke-linecap="round" stroke-linejoin="round"/>
<polyline points="1316.62,1398.24 1324.33,1396.86 1329.72,1392.41 1334.85,1390.83 1334.53,1392.89 1338.99,1392.95 1342.23,1395.37 1346.04,1396.75 1349.62,1396.42 1352.74,1394.69 1354.9,1391.92 1355.71,1388.48 1357.46,1386.24 1365.44,1383.84 1367.65,1382.47 1366.53,1378.23" fill="none" stroke="#1e1e1e" stroke-width="1.21" stroke-linecap="round" stroke-linejoin="round"/>
<polyline points="1366.53,1378.23 1354.51,1365.23 1351.76,1360.33 1342.55,1348.96 1331.54,1340.07 1324.01,1331.65 1313.55,1322.27 1299.06,1304.62 1296.67,1299.76 1291.74,1284.47 1287.98,1279.22 1287.95,1272.14 1285.99,1263.11 1285.73,1259.62 1288.43,1250.74 1289.48,1238.41 1288.86,1235.18 1285.45,1228.68 1284.68,1225.43 1289.43,1220.79 1294.16,1212.37 1298.88,1209.45 1298.49,1196.04 1299.43,1189.65 1304.86,1178.72 1306.69,1170.57 1318.69,1142.19 1320.57,1130.87 1325.06,1123.78 1325.05,1103.78 1322.85,1094.07 1324.02,1089.19 1329.12,1079.79 1330.29,1074.55 1329.83,1061.89 1325.49,1038.87 1323.34,1033.92 1317.1,1026.16 1309.38,1009.99 1306.33,1010.71 1303.52,1007.48 1296.57,988.22 1293.2,983.54 1289.73,980.9 1286.63,969.67 1282.83,961.63 1281.47,952.49 1279.13,947.92 1268.99,935.86 1267.16,931.78 1265.64,922.13 1260.49,920.4 1258.57,918.92 1256.35,913.37 1254.29,902.76 1251.44,900.85 1250.35,896.62 1245.44,891.83 1242.24,884.07 1237.56,882.31 1233.63,875.59 1227.55,869.97" fill="none" stroke="#1e1e1e" stroke-width="1.21" stroke-linecap="round" stroke-linejoin="round"/>
<polyline points="1222.45,458.57 1203.58,448.06 1196.67,445.69 1193.36,445.59 1186.7,447.98 1174.29,448.02 1167.61,447.3 1147.68,442.58 1128.59,441.82 1125.72,442.43 1123.09,443.72 1118.24,449.42 1113.25,450.89 1111.88,452.66 1110.16,457.78 1104.64,463.45 1103.86,467.01 1102.33,469.62 1097.69,472.28 1099.61,476.25 1103.53,478.8 1103.9,491.45 1101.85,494.51 1102.94,495.66 1096.8,500.44 1095.31,503.32 1093.84,510.2 1092.12,512.06 1087.86,514.13 1086.8,518.54 1083.7,521.7 1079.35,522.78 1077.32,526.25 1076.9,528.81 1077.23,531.51 1079.85,536.61 1080.45,543.38 1083.73,547.79 1083.86,556.02 1084.71,558.59 1085.87,557.51 1086.77,559.86 1086.14,561.87 1082.59,565.16 1085.02,569.02 1091.24,574.86 1094.5,575.77 1095.42,577.02 1095.48,579.38 1089.66,589.29 1089.13,593.21 1090.1,593.2 1090.1,591.05 1091.67,592.07 1090.11,597.03 1093.42,602.47 1098.77,606.24 1098.77,609.58 1101.95,609.58 1103.39,612.56 1101.58,621.31 1098.79,623.51 1097.73,627.83 1099.22,629.39 1100.93,635.48 1096.68,637.73 1099.85,642.92 1100.02,645.34 1097.22,646.37 1098.66,650.84 1096.11,651.66 1095.29,655.01 1095.79,661.68 1097.96,666.59 1102.04,664.71 1102.07,667.58 1107.3,666.96 1108.37,668.68 1108.57,675.49 1115.6,684.9 1113.84,686.36 1123.25,697.47 1124.88,703.11 1126.7,705.23 1126.71,709.64 1131.11,713.03 1128.95,714.49 1128.96,715.67 1133.22,716.65 1129.94,717.62 1129.94,718.7 1131.26,719.93 1126.93,725.99 1125.75,733.17 1127.01,736.09 1124.93,738.11 1124.63,739.42 1129.01,743.72 1129.17,748.47 1132.74,750.04 1136.02,755.35 1136.52,758.33 1135.84,761.43 1131.86,762.89 1137.61,768.63 1137.62,771.77 1141.43,772.54 1142.95,777.55 1147.86,782.79 1149.44,785.97 1150.18,792.39 1151.22,794.85 1153.83,797.82 1154.91,802.04 1158.91,808.93 1159.65,813.88 1165.67,820.55 1173.19,824.59 1175.74,831.7 1180.04,837.84 1188.93,840.56 1199.59,849.41 1208.63,854.31 1214.17,856.13 1216.34,862.69 1221.11,865.33 1224.42,868.75 1227.55,869.97" fill="none" stroke="#1e1e1e" stroke-width="1.21" stroke-linecap="round" stroke-linejoin="round"/>
<polyline points="1222.45,458.57 1247.15,464.96 1254.16,465.74 1257.48,466.75 1260.14,469.98 1268.48,472.53 1275.41,471.58 1282.53,469.1 1289.02,465.59 1294.09,461.52 1298.55,455.77 1301.98,448.25 1304.18,446.15 1304.21,443.27 1301.45,438.82 1302.06,435.72 1305.83,431.89 1307.2,428.57 1312.77,427.12 1315.21,422.46 1318.17,420.58 1331.95,418.3 1346.29,407.6 1353.15,406.08 1354.88,405.01 1359,397.31 1362.55,392.62 1372.92,385.68 1378.04,380.91 1384.71,371.4 1385.95,366.86 1387.03,365.65 1391.48,364.03 1392.44,362.57 1396.77,351.54 1399.81,349.04 1402.35,338.64 1401.65,335.86 1396.23,325.56 1396.8,316.88 1394.73,310.41 1394.12,300.06 1392.45,298.29 1389.77,297.6 1378.82,297.76 1374.97,296.73 1373.31,293.75 1373.68,287.24 1375.36,281.26 1379.08,275.6 1395.49,260.42 1404.57,249.45 1410.09,244.59 1415.65,241.92 1420.55,242.16 1423.87,240.55 1437.87,220.04 1444.45,217.16 1446.6,214.65 1454.78,210.23 1458.06,204 1458.93,198.08 1458.77,170.65 1456.6,164.18 1456.82,160.46 1457.52,157.04 1462.22,146.68 1463.77,129.88 1466.79,118.3 1475.08,101.77 1476.16,93.92 1475.68,85.84 1474,78.78 1469.1,65.4 1468.7,57.65 1472.84,51.65 1472.42,46.47 1469.52,34.36 1469.65,18.87 1468.25,15.87 1468.36,13.54" fill="none" stroke="#1e1e1e" stroke-width="1.21" stroke-linecap="round" stroke-linejoin="round"/>
<text x="523.6" y="1391.93" font-family="sans-serif" font-size="14" stroke="#ffffff" stroke-opacity="0.784" stroke-width="2.33" stroke-linejoin="round" paint-order="stroke" fill="#141414">Uele</text>
<text x="291.19" y="1119.11" font-family="sans-serif" font-size="14" stroke="#ffffff" stroke-opacity="0.784" stroke-width="2.33" stroke-linejoin="round" paint-order="stroke" fill="#141414">Bomu</text>
<text x="1038.56" y="631.46" font-family="sans-serif" font-size="14" stroke="#ffffff" stroke-opacity="0.784" stroke-width="2.33" stroke-linejoin="round" paint-order="stroke" fill="#141414">Bahr el Jebel</text>
<text x="1296.94" y="298.46" font-family="sans-serif" font-size="14" stroke="#ffffff" stroke-opacity="0.784" stroke-width="2.33" stroke-linejoin="round" paint-order="stroke" fill="#141414">El Bahr el Abyad</text>
<text x="1716.97" y="856.43" font-family="sans-serif" font-size="14" stroke="#ffffff" stroke-opacity="0.784" stroke-width="2.33" stroke-linejoin="round" paint-order="stroke" fill="#141414">Akobo</text>
<text x="110.91" y="962.44" font-family="sans-serif" font-size="14" stroke="#ffffff" stroke-opacity="0.784" stroke-width="2.33" stroke-linejoin="round" paint-order="stroke" fill="#141414">Chinko</text>
<text x="1264.02" y="1132.18" font-family="sans-serif" font-size="14" stroke="#ffffff" stroke-opacity="0.784" stroke-width="2.33" stroke-linejoin="round" paint-order="stroke" fill="#141414">Bahr el Jebel</text>
<text x="1401.79" y="543.54" font-family="sans-serif" font-size="14" stroke="#ffffff" stroke-opacity="0.784" stroke-width="2.33" stroke-linejoin="round" paint-order="stroke" fill="#141414">Sobat</text>
<text x="1627.85" y="1053" font-family="sans-serif" font-size="14" stroke="#ffffff" stroke-opacity="0.784" stroke-width="2.33" stroke-linejoin="round" paint-order="stroke" fill="#141414">Kangen</text>
<text x="1776.62" y="239.17" font-family="sans-serif" font-size="14" stroke="#ffffff" stroke-opacity="0.784" stroke-width="2.33" stroke-linejoin="round" paint-order="stroke" fill="#141414">El Bahr el Azraq</text>
<text x="1103.78" y="589.66" font-family="sans-serif" font-size="14" stroke="#ffffff" stroke-opacity="0.784" stroke-width="2.33" stroke-linejoin="round" paint-order="stroke" fill="#141414">Bahr el  Zeraf</text>
<text x="1496.6" y="806.82" font-family="sans-serif" font-size="14" stroke="#ffffff" stroke-opacity="0.784" stroke-width="2.33" stroke-linejoin="round" paint-order="stroke" fill="#141414">Pibor</text>
<text x="1909.93" y="375.35" font-family="sans-serif" font-size="14" stroke="#ffffff" stroke-opacity="0.784" stroke-width="2.33" stroke-linejoin="round" paint-order="stroke" fill="#141414">Abay</text>
<text x="853.33" y="1392.83" font-family="sans-serif" font-size="14" stroke="#ffffff" stroke-opacity="0.784" stroke-width="2.33" stroke-linejoin="round" paint-order="stroke" fill="#141414">Kibali</text>
<text x="1674.34" y="132.67" font-family="sans-serif" font-size="14" stroke="#ffffff" stroke-opacity="0.784" stroke-width="2.33" stroke-linejoin="round" paint-order="stroke" fill="#141414">El Bahr el Azraq</text>
<text x="15.44" y="674.67" font-family="sans-serif" font-size="14" stroke="#ffffff" stroke-opacity="0.784" stroke-width="2.33" stroke-linejoin="round" paint-order="stroke" fill="#141414">Kotto</text>
<text x="1957.42" y="1078.02" font-family="sans-serif" font-size="14" stroke="#ffffff" stroke-opacity="0.784" stroke-width="2.33" stroke-linejoin="round" paint-order="stroke" fill="#141414">Omo</text>
<text x="1296.78" y="1401" font-family="sans-serif" font-size="14" stroke="#ffffff" stroke-opacity="0.784" stroke-width="2.33" stroke-linejoin="round" paint-order="stroke" fill="#141414">Albert Nile</text>
</svg>
