<?xml version="1.0" encoding="UTF-8" standalone="no"?>
<svg xmlns="http://www.w3.org/2000/svg" width="2000" height="1827" viewBox="0 0 2000 1827">
<rect width="2000" height="1827" fill="#ffffff"/>
<path d="M626.89,359.33L630.11,351.22L641.58,362.15L653.54,357.43L657.66,339.55L667.01,335.43L671.02,344.29L682.87,326.51L701.49,322.82L705.33,325.47L704.39,339.48L708.77,340.19L710.13,356.51L706.13,367.22L719.87,364.12L724.3,360.91L727.02,372.02L722.1,372.62L716.27,385.6L721.68,387.29L716.93,395.71L709.88,400.85L704.19,401.11L697.87,409.84L692.95,410.11L686.33,400.57L680.42,397.56L670.22,405.91L661.2,402.85L655.95,408L647.6,393.86L633.11,393.98L631.9,388.42L635.67,377.72L633.93,372.8L619.52,368.35L626.89,359.33Z" fill-rule="evenodd" fill="#4682b4" fill-opacity="0.471"/>
<polyline points="626.89,359.33 630.11,351.22 641.58,362.15 653.54,357.43 657.66,339.55 667.01,335.43 671.02,344.29 682.87,326.51 701.49,322.82 705.33,325.47 704.39,339.48 708.77,340.19 710.13,356.51 706.13,367.22 719.87,364.12 724.3,360.91 727.02,372.02 722.1,372.62 716.27,385.6 721.68,387.29 716.93,395.71 709.88,400.85 704.19,401.11 697.87,409.84 692.95,410.11 686.33,400.57 680.42,397.56 670.22,405.91 661.2,402.85 655.95,408 647.6,393.86 633.11,393.98 631.9,388.42 635.67,377.72 633.93,372.8 619.52,368.35 626.89,359.33" fill="none" stroke="#1e1e1e" stroke-width="1.45" stroke-linecap="round" stroke-linejoin="round"/>
<path d="M1154.71,1177.79L1154.68,1173.56L1156.01,1172.57L1159.23,1175.16L1159.02,1184.94L1163.3,1186.54L1159.38,1199.6L1152.95,1197.03L1153.45,1190.51L1148.61,1183.7L1154.71,1177.79Z" fill-rule="evenodd" fill="#4682b4" fill-opacity="0.471"/>
<polyline points="1154.71,1177.79 1154.68,1173.56 1156.01,1172.57 1159.23,1175.16 1159.02,1184.94 1163.3,1186.54 1159.38,1199.6 1152.95,1197.03 1153.45,1190.51 1148.61,1183.7 1154.71,1177.79" fill="none" stroke="#1e1e1e" stroke-width="1.45" stroke-linecap="round" stroke-linejoin="round"/>
<path d="M1225.4,1177.93L1226.81,1186.72L1212.3,1175.11L1218.93,1170.16L1225.4,1177.93Z" fill-rule="evenodd" fill="#4682b4" fill-opacity="0.471"/>
<polyline points="1225.4,1177.93 1226.81,1186.72 1212.3,1175.11 1218.93,1170.16 1225.4,1177.93" fill="none" stroke="#1e1e1e" stroke-width="1.45" stroke-linecap="round" stroke-linejoin="round"/>
<path d="M1155.74,1171.27L1160.52,1169.28L1159.14,1160.49L1148.44,1154.36L1158.55,1152.02L1171.29,1143.47L1168.32,1137.29L1172.55,1133.35L1181.87,1132.64L1187.16,1128.36L1196.22,1129.6L1203.12,1125.96L1206.49,1114.53L1214.46,1112.83L1218.66,1106.28L1231.93,1102.91L1239.2,1083.28L1249.08,1088.08L1253.83,1085.1L1256.4,1075.95L1260.42,1078.84L1272.09,1076.77L1276.39,1080.96L1277.81,1090.4L1284.24,1094.24L1272.85,1098.6L1270.08,1113.95L1270.17,1122.09L1261.59,1142.72L1256.28,1144.07L1254.74,1150.28L1233.72,1154.06L1237.54,1164.13L1233.32,1169.06L1221.04,1167.54L1218.08,1164.3L1210.14,1171.86L1209.16,1182.63L1201.96,1182.36L1192.66,1187.64L1190.18,1177.23L1183.21,1172.72L1179.51,1177.31L1173.35,1173.76L1160.03,1176.13L1155.74,1171.27Z" fill-rule="evenodd" fill="#4682b4" fill-opacity="0.471"/>
<polyline points="1155.74,1171.27 1160.52,1169.28 1159.14,1160.49 1148.44,1154.36 1158.55,1152.02 1171.29,1143.47 1168.32,1137.29 1172.55,1133.35 1181.87,1132.64 1187.16,1128.36 1196.22,1129.6 1203.12,1125.96 1206.49,1114.53 1214.46,1112.83 1218.66,1106.28 1231.93,1102.91 1239.2,1083.28 1249.08,1088.08 1253.83,1085.1 1256.4,1075.95 1260.42,1078.84 1272.09,1076.77 1276.39,1080.96 1277.81,1090.4 1284.24,1094.24 1272.85,1098.6 1270.08,1113.95 1270.17,1122.09 1261.59,1142.72 1256.28,1144.07 1254.74,1150.28 1233.72,1154.06 1237.54,1164.13 1233.32,1169.06 1221.04,1167.54 1218.08,1164.3 1210.14,1171.86 1209.16,1182.63 1201.96,1182.36 1192.66,1187.64 1190.18,1177.23 1183.21,1172.72 1179.51,1177.31 1173.35,1173.76 1160.03,1176.13 1155.74,1171.27" fill="none" stroke="#1e1e1e" stroke-width="1.45" stroke-linecap="round" stroke-linejoin="round"/>
<path d="M1083.09,889.68L1096.26,882.46L1099.66,875.28L1120.73,872.26L1128.66,876.13L1133.99,885.88L1131.95,900.88L1136.72,904.77L1138.13,921.06L1126.82,931.22L1126.34,940.67L1117.64,945.93L1121.4,956.99L1120.11,965.15L1107.97,972.7L1101.1,974.03L1098.41,962.63L1090.47,962.66L1076.74,970.85L1076.24,981.28L1071.75,983.58L1070.72,995.31L1055.09,995.68L1051.39,1000.25L1035.24,1004.51L1040.27,1002.22L1042.64,994.4L1030.97,980.72L1031.49,972.9L1045.26,977.12L1051.87,973.19L1051.86,968.63L1038.61,956.27L1048.1,940.61L1061.32,940.26L1061.03,930.81L1045.96,925.95L1038.83,925.96L1042.24,909.99L1056.99,896.27L1063.07,898.86L1060.72,910.27L1067.59,911.89L1078.11,899.47L1077.01,883.83L1083.09,889.68Z" fill-rule="evenodd" fill="#4682b4" fill-opacity="0.471"/>
<polyline points="1083.09,889.68 1096.26,882.46 1099.66,875.28 1120.73,872.26 1128.66,876.13 1133.99,885.88 1131.95,900.88 1136.72,904.77 1138.13,921.06 1126.82,931.22 1126.34,940.67 1117.64,945.93 1121.4,956.99 1120.11,965.15 1107.97,972.7 1101.1,974.03 1098.41,962.63 1090.47,962.66 1076.74,970.85 1076.24,981.28 1071.75,983.58 1070.72,995.31 1055.09,995.68 1051.39,1000.25 1035.24,1004.51 1040.27,1002.22 1042.64,994.4 1030.97,980.72 1031.49,972.9 1045.26,977.12 1051.87,973.19 1051.86,968.63 1038.61,956.27 1048.1,940.61 1061.32,940.26 1061.03,930.81 1045.96,925.95 1038.83,925.96 1042.24,909.99 1056.99,896.27 1063.07,898.86 1060.72,910.27 1067.59,911.89 1078.11,899.47 1077.01,883.83 1083.09,889.68" fill="none" stroke="#1e1e1e" stroke-width="1.45" stroke-linecap="round" stroke-linejoin="round"/>
<path d="M443.51,471.72L445.07,460.02L461.97,470.49L449.62,477.4L443.51,471.72Z" fill-rule="evenodd" fill="#4682b4" fill-opacity="0.471"/>
<polyline points="443.51,471.72 445.07,460.02 461.97,470.49 449.62,477.4 443.51,471.72" fill="none" stroke="#1e1e1e" stroke-width="1.45" stroke-linecap="round" stroke-linejoin="round"/>
<path d="M570.6,356.8L583.08,352.12L590.51,340.18L602.53,347.54L609.12,355.8L626.89,359.33L619.52,368.35L617.78,380.71L612.99,390.1L621.97,395.12L619.42,409.76L612.54,419.11L600.77,426.43L594.95,433.83L588.23,432.75L578.3,422.15L578,409.1L574.43,405.46L574.87,395.03L578.32,389.54L577.28,374.53L578.43,367.7L570.6,356.8Z" fill-rule="evenodd" fill="#4682b4" fill-opacity="0.471"/>
<polyline points="570.6,356.8 583.08,352.12 590.51,340.18 602.53,347.54 609.12,355.8 626.89,359.33 619.52,368.35 617.78,380.71 612.99,390.1 621.97,395.12 619.42,409.76 612.54,419.11 600.77,426.43 594.95,433.83 588.23,432.75 578.3,422.15 578,409.1 574.43,405.46 574.87,395.03 578.32,389.54 577.28,374.53 578.43,367.7 570.6,356.8" fill="none" stroke="#1e1e1e" stroke-width="1.45" stroke-linecap="round" stroke-linejoin="round"/>
<path d="M513.74,397.51L528.97,385.74L542.7,385.01L548.96,382.19L553.5,373.79L567.35,380.55L571.61,388.45L567.16,391.64L552.08,395.94L546,402.68L535.25,410.31L529.29,410.2L522.72,401.92L513.74,397.51Z" fill-rule="evenodd" fill="#4682b4" fill-opacity="0.471"/>
<polyline points="513.74,397.51 528.97,385.74 542.7,385.01 548.96,382.19 553.5,373.79 567.35,380.55 571.61,388.45 567.16,391.64 552.08,395.94 546,402.68 535.25,410.31 529.29,410.2 522.72,401.92 513.74,397.51" fill="none" stroke="#1e1e1e" stroke-width="1.45" stroke-linecap="round" stroke-linejoin="round"/>
<path d="M85.04,215.97L92.3,214.27L99.01,220.71L85.63,234.92L74.09,233.84L68.82,216.35L75.15,218.87L85.04,215.97Z" fill-rule="evenodd" fill="#4682b4" fill-opacity="0.471"/>
<polyline points="85.04,215.97 92.3,214.27 99.01,220.71 85.63,234.92 74.09,233.84 68.82,216.35 75.15,218.87 85.04,215.97" fill="none" stroke="#1e1e1e" stroke-width="1.45" stroke-linecap="round" stroke-linejoin="round"/>
<path d="M509.94,286.88L504.89,294.61L498.38,297.75L487.05,297.19L483.09,301.68L476.5,296L480.61,284.34L485.33,280.2L491.77,280.33L500.18,285.06L509.94,286.88Z" fill-rule="evenodd" fill="#4682b4" fill-opacity="0.471"/>
<polyline points="509.94,286.88 504.89,294.61 498.38,297.75 487.05,297.19 483.09,301.68 476.5,296 480.61,284.34 485.33,280.2 491.77,280.33 500.18,285.06 509.94,286.88" fill="none" stroke="#1e1e1e" stroke-width="1.45" stroke-linecap="round" stroke-linejoin="round"/>
<path d="M556.81,317.76L557.03,335.05L562.01,345.24L554.36,354.24L547.95,351.84L541.71,353.69L525.95,353.72L518.83,347.72L518.44,341.19L525.99,337.74L526.45,326.99L521.96,319.08L513.52,314.68L514.83,300.35L513.75,289.57L523.39,284.21L525.03,279.35L535.89,277.27L539.91,282.88L553.14,292.25L558.85,304.42L555.07,314.14L556.81,317.76Z" fill-rule="evenodd" fill="#4682b4" fill-opacity="0.471"/>
<polyline points="556.81,317.76 557.03,335.05 562.01,345.24 554.36,354.24 547.95,351.84 541.71,353.69 525.95,353.72 518.83,347.72 518.44,341.19 525.99,337.74 526.45,326.99 521.96,319.08 513.52,314.68 514.83,300.35 513.75,289.57 523.39,284.21 525.03,279.35 535.89,277.27 539.91,282.88 553.14,292.25 558.85,304.42 555.07,314.14 556.81,317.76" fill="none" stroke="#1e1e1e" stroke-width="1.45" stroke-linecap="round" stroke-linejoin="round"/>
<path d="M519.81,323.28L519.18,329.46L509.5,336.12L503.8,323.62L496.17,318.25L497.21,304.9L504.75,301.79L505.51,315.5L519.81,323.28Z" fill-rule="evenodd" fill="#4682b4" fill-opacity="0.471"/>
<polyline points="519.81,323.28 519.18,329.46 509.5,336.12 503.8,323.62 496.17,318.25 497.21,304.9 504.75,301.79 505.51,315.5 519.81,323.28" fill="none" stroke="#1e1e1e" stroke-width="1.45" stroke-linecap="round" stroke-linejoin="round"/>
<path d="M548.78,464.68L536.71,472.29L531.27,471.54L530.68,461.42L541.18,454.44L546.36,455.18L548.78,464.68Z" fill-rule="evenodd" fill="#4682b4" fill-opacity="0.471"/>
<polyline points="548.78,464.68 536.71,472.29 531.27,471.54 530.68,461.42 541.18,454.44 546.36,455.18 548.78,464.68" fill="none" stroke="#1e1e1e" stroke-width="1.45" stroke-linecap="round" stroke-linejoin="round"/>
<path d="M575.2,1152.3L582.79,1144.27L588.08,1130.34L594.98,1131.43L598.61,1121.05L615.52,1129.13L627.82,1125.72L636.96,1119.66L644.98,1117.16L651.61,1119.21L664.64,1140.57L671.3,1140.32L676.29,1146.25L672.23,1151.09L673.45,1160.24L656.43,1177.62L644.73,1174.53L632.45,1175.34L617.66,1183.6L608.32,1183.46L606.37,1171.04L599.26,1165.39L587.27,1164.23L577.19,1161.13L575.2,1152.3Z" fill-rule="evenodd" fill="#4682b4" fill-opacity="0.471"/>
<polyline points="575.2,1152.3 582.79,1144.27 588.08,1130.34 594.98,1131.43 598.61,1121.05 615.52,1129.13 627.82,1125.72 636.96,1119.66 644.98,1117.16 651.61,1119.21 664.64,1140.57 671.3,1140.32 676.29,1146.25 672.23,1151.09 673.45,1160.24 656.43,1177.62 644.73,1174.53 632.45,1175.34 617.66,1183.6 608.32,1183.46 606.37,1171.04 599.26,1165.39 587.27,1164.23 577.19,1161.13 575.2,1152.3" fill="none" stroke="#1e1e1e" stroke-width="1.45" stroke-linecap="round" stroke-linejoin="round"/>
<path d="M749.52,741.28L761.08,739.11L768.77,729.72L775.2,714.14L779.38,716.45L781.37,728.53L794.73,730.27L800.78,727.39L803.86,735.56L817.72,740.55L821.35,747.74L813.19,751.27L811.53,762.67L803.78,780.21L805.85,785.11L802.37,792.58L804.16,799.44L790.9,813.68L782.01,807.41L776.07,794.98L770.08,789.06L770.46,805.03L764.06,815.08L759.14,806.88L748.96,799.29L749.05,790.16L740.43,784.21L743.2,769.9L748,762.77L749.52,741.28Z" fill-rule="evenodd" fill="#4682b4" fill-opacity="0.471"/>
<polyline points="749.52,741.28 761.08,739.11 768.77,729.72 775.2,714.14 779.38,716.45 781.37,728.53 794.73,730.27 800.78,727.39 803.86,735.56 817.72,740.55 821.35,747.74 813.19,751.27 811.53,762.67 803.78,780.21 805.85,785.11 802.37,792.58 804.16,799.44 790.9,813.68 782.01,807.41 776.07,794.98 770.08,789.06 770.46,805.03 764.06,815.08 759.14,806.88 748.96,799.29 749.05,790.16 740.43,784.21 743.2,769.9 748,762.77 749.52,741.28" fill="none" stroke="#1e1e1e" stroke-width="1.45" stroke-linecap="round" stroke-linejoin="round"/>
<path d="M1202.67,1000.48L1219.79,988.28L1222.07,976.86L1228.91,972.23L1257.19,968.06L1271.31,976.71L1270.64,988.78L1280.48,992.59L1295.44,980.69L1320.97,989.51L1318.65,995.4L1324.89,1006.41L1322.08,1015.57L1323.48,1021.42L1320.21,1035.15L1316.06,1043.67L1305.44,1042.82L1300.26,1053.97L1298.86,1070.93L1294.39,1074.89L1297.97,1086.26L1291.59,1086.33L1284.51,1095.21L1284.24,1094.24L1277.81,1090.4L1276.39,1080.96L1272.09,1076.77L1260.42,1078.84L1256.4,1075.95L1260.31,1067.76L1252.8,1060.66L1246.97,1061.7L1239.48,1056.23L1231.43,1046.2L1230.59,1041.32L1216.21,1035.25L1216.95,1029.37L1204.51,1032.41L1199.4,1023.32L1200.69,1018.1L1208.05,1010.22L1207.99,1003.05L1202.67,1000.48Z" fill-rule="evenodd" fill="#4682b4" fill-opacity="0.471"/>
<polyline points="1202.67,1000.48 1219.79,988.28 1222.07,976.86 1228.91,972.23 1257.19,968.06 1271.31,976.71 1270.64,988.78 1280.48,992.59 1295.44,980.69 1320.97,989.51 1318.65,995.4 1324.89,1006.41 1322.08,1015.57 1323.48,1021.42 1320.21,1035.15 1316.06,1043.67 1305.44,1042.82 1300.26,1053.97 1298.86,1070.93 1294.39,1074.89 1297.97,1086.26 1291.59,1086.33 1284.51,1095.21 1284.24,1094.24 1277.81,1090.4 1276.39,1080.96 1272.09,1076.77 1260.42,1078.84 1256.4,1075.95 1260.31,1067.76 1252.8,1060.66 1246.97,1061.7 1239.48,1056.23 1231.43,1046.2 1230.59,1041.32 1216.21,1035.25 1216.95,1029.37 1204.51,1032.41 1199.4,1023.32 1200.69,1018.1 1208.05,1010.22 1207.99,1003.05 1202.67,1000.48" fill="none" stroke="#1e1e1e" stroke-width="1.45" stroke-linecap="round" stroke-linejoin="round"/>
<path d="M632.95,566.45L634.27,565.49L631.83,554.38L620.22,546.71L622.94,539.25L613.05,539.1L614.73,530.98L596.04,512.1L596.03,496.13L590.06,496.03L586.95,479.68L577.4,476.26L565.58,484.21L559.77,474.66L566.32,470.86L564.16,461.04L568.97,452.64L580.76,445.34L598.23,439.76L619.42,409.76L621.97,395.12L612.99,390.1L617.78,380.71L619.52,368.35L633.93,372.8L635.67,377.72L631.9,388.42L633.11,393.98L647.6,393.86L655.95,408L661.2,402.85L670.22,405.91L680.42,397.56L686.33,400.57L692.95,410.11L697.87,409.84L704.19,401.11L709.88,400.85L716.93,395.71L721.68,387.29L716.27,385.6L722.1,372.62L727.02,372.02L724.3,360.91L719.87,364.12L706.13,367.22L710.13,356.51L708.77,340.19L704.39,339.48L705.33,325.47L701.49,322.82L682.87,326.51L671.02,344.29L667.01,335.43L657.66,339.55L653.54,357.43L641.58,362.15L630.11,351.22L626.89,359.33L609.12,355.8L602.53,347.54L590.51,340.18L583.08,352.12L570.6,356.8L565.29,349.86L558.44,328.22L560.32,323.69L557.38,315.16L561.05,296.63L578.54,298.89L581.97,294.71L591.26,293.88L591.91,285.41L595.89,278.3L601.61,275.13L599.86,255.21L596.49,240.8L601.46,235.99L610.18,237.43L628.12,224L633.53,223.43L641.14,212.12L645.03,209.9L648.84,194.62L656.08,190.8L667.01,179.86L669.42,172.06L673.57,168.53L676.51,158.78L682.74,153.32L693.67,139.43L700.6,137.88L707.58,132.42L711.13,135.39L712.28,147.15L724.84,146.64L723.49,152.82L730.79,165.62L731.23,171.82L739.11,179.08L755.41,165.22L754.94,186.42L762.12,187.14L763.87,192.38L780.09,186L792.66,187.41L796.92,199.19L796.59,208.32L799.58,220.08L803.67,223.05L820.87,225.46L821.57,235.58L836.45,239.92L839.51,245.16L840.47,255.93L836.8,266.34L831.91,265.65L826.2,272.46L817.67,277.3L819.4,286.76L815.24,292.6L821.1,302.1L811.74,312.14L820.22,316.45L823.18,335.38L819.01,341.55L824.66,346.48L837.61,339.39L859.98,355.83L863.32,360.08L873.92,359.16L890.16,368.04L899.45,371.34L897.62,375.9L890.38,376.52L877.65,387.87L886.15,397.69L886.36,407.47L881.07,430.92L876.15,431.88L878.13,451.12L873.69,456.32L875.46,465.13L872,482.39L864.95,491.48L856.8,507.74L843.83,505.05L842.17,520.04L828.08,527.12L822.81,537.84L815.56,533.22L807.73,535.45L800.98,533.77L797.26,543.52L789.4,550.3L780.01,551.85L782.01,561.32L775.45,567.78L768.68,566.42L756.59,578.04L752.87,585.5L748.5,579.27L734.75,573.26L729.87,566.04L706.77,558.94L696.75,569.58L685.24,573.35L675.88,570.95L653.6,580.76L652.87,576.84L640.07,579.27L635.68,576.27L632.95,566.45Z" fill-rule="evenodd" fill="#4682b4" fill-opacity="0.471"/>
<polyline points="632.95,566.45 634.27,565.49 631.83,554.38 620.22,546.71 622.94,539.25 613.05,539.1 614.73,530.98 596.04,512.1 596.03,496.13 590.06,496.03 586.95,479.68 577.4,476.26 565.58,484.21 559.77,474.66 566.32,470.86 564.16,461.04 568.97,452.64 580.76,445.34 598.23,439.76 619.42,409.76 621.97,395.12 612.99,390.1 617.78,380.71 619.52,368.35 633.93,372.8 635.67,377.72 631.9,388.42 633.11,393.98 647.6,393.86 655.95,408 661.2,402.85 670.22,405.91 680.42,397.56 686.33,400.57 692.95,410.11 697.87,409.84 704.19,401.11 709.88,400.85 716.93,395.71 721.68,387.29 716.27,385.6 722.1,372.62 727.02,372.02 724.3,360.91 719.87,364.12 706.13,367.22 710.13,356.51 708.77,340.19 704.39,339.48 705.33,325.47 701.49,322.82 682.87,326.51 671.02,344.29 667.01,335.43 657.66,339.55 653.54,357.43 641.58,362.15 630.11,351.22 626.89,359.33 609.12,355.8 602.53,347.54 590.51,340.18 583.08,352.12 570.6,356.8 565.29,349.86 558.44,328.22 560.32,323.69 557.38,315.16 561.05,296.63 578.54,298.89 581.97,294.71 591.26,293.88 591.91,285.41 595.89,278.3 601.61,275.13 599.86,255.21 596.49,240.8 601.46,235.99 610.18,237.43 628.12,224 633.53,223.43 641.14,212.12 645.03,209.9 648.84,194.62 656.08,190.8 667.01,179.86 669.42,172.06 673.57,168.53 676.51,158.78 682.74,153.32 693.67,139.43 700.6,137.88 707.58,132.42 711.13,135.39 712.28,147.15 724.84,146.64 723.49,152.82 730.79,165.62 731.23,171.82 739.11,179.08 755.41,165.22 754.94,186.42 762.12,187.14 763.87,192.38 780.09,186 792.66,187.41 796.92,199.19 796.59,208.32 799.58,220.08 803.67,223.05 820.87,225.46 821.57,235.58 836.45,239.92 839.51,245.16 840.47,255.93 836.8,266.34 831.91,265.65 826.2,272.46 817.67,277.3 819.4,286.76 815.24,292.6 821.1,302.1 811.74,312.14 820.22,316.45 823.18,335.38 819.01,341.55 824.66,346.48 837.61,339.39 859.98,355.83 863.32,360.08 873.92,359.16 890.16,368.04 899.45,371.34 897.62,375.9 890.38,376.52 877.65,387.87 886.15,397.69 886.36,407.47 881.07,430.92 876.15,431.88 878.13,451.12 873.69,456.32 875.46,465.13 872,482.39 864.95,491.48 856.8,507.74 843.83,505.05 842.17,520.04 828.08,527.12 822.81,537.84 815.56,533.22 807.73,535.45 800.98,533.77 797.26,543.52 789.4,550.3 780.01,551.85 782.01,561.32 775.45,567.78 768.68,566.42 756.59,578.04 752.87,585.5 748.5,579.27 734.75,573.26 729.87,566.04 706.77,558.94 696.75,569.58 685.24,573.35 675.88,570.95 653.6,580.76 652.87,576.84 640.07,579.27 635.68,576.27 632.95,566.45" fill="none" stroke="#1e1e1e" stroke-width="1.45" stroke-linecap="round" stroke-linejoin="round"/>
<path d="M1292.58,502.54L1287.64,502.6L1268.78,512.26L1256.96,526.4L1257.06,536.18L1245.85,534.34L1234.57,524.01L1223.08,518.25L1217.64,520.9L1214.07,529.73L1207.8,526.2L1193.74,523.7L1186.73,525.71L1183.83,520.19L1178.12,521.53L1171.45,534.62L1158.44,534.38L1153.18,525.93L1140.43,524.38L1135.25,528.64L1132.72,541.7L1125.15,537.17L1107.69,530.41L1098.3,524.9L1092.33,526.23L1077.49,522.37L1067.06,510.66L1062.39,516.21L1050.18,516.89L1041.07,510.06L1042.61,503.87L1038.19,500.61L1025.46,500.96L1017.15,507.16L1007.53,501.29L1014.8,492.16L1023.11,487.27L1018.17,481.08L1008.05,484.34L1003.37,477.17L998.44,478.15L994.03,471.63L988.84,471.63L978.45,481.73L970.93,475.52L965.98,485.62L948.84,490.16L948.85,482.01L942.65,471.56L934.35,467.63L924.74,471.19L917.71,478.02L921.57,491.07L918.43,498.23L912.7,502.12L904.4,498.18L899.19,501.75L883.58,504.94L874.28,494.46L872,482.39L875.46,465.13L873.69,456.32L878.13,451.12L876.15,431.88L881.07,430.92L886.36,407.47L886.15,397.69L877.65,387.87L890.38,376.52L897.62,375.9L899.45,371.34L890.16,368.04L873.92,359.16L863.32,360.08L859.98,355.83L837.61,339.39L824.66,346.48L819.01,341.55L823.18,335.38L820.22,316.45L811.74,312.14L821.1,302.1L815.24,292.6L819.4,286.76L817.67,277.3L826.2,272.46L831.91,265.65L836.8,266.34L840.47,255.93L839.51,245.16L836.45,239.92L821.57,235.58L820.87,225.46L803.67,223.05L799.58,220.08L796.59,208.32L796.92,199.19L792.66,187.41L780.09,186L763.87,192.38L762.12,187.14L754.94,186.42L755.41,165.22L739.11,179.08L731.23,171.82L730.79,165.62L723.49,152.82L724.84,146.64L712.28,147.15L711.13,135.39L707.58,132.42L711.23,127.56L740.26,117.44L761.47,121.24L776.08,118.12L781.74,114.9L798.57,122.87L804.97,122.27L812.61,126.9L830.09,116.26L841.33,119.27L860.02,119.38L873.09,114.23L879.99,116.22L893.26,125.41L907.09,122.21L908.9,117.65L927.06,122.6L935.51,120.99L956.23,125.28L969.04,115.51L979.53,113.89L984.14,107.04L991.56,103.46L1008.69,84.54L1011.5,83.23L1019.4,58.1L1017.35,39.83L1018.62,32L1030.85,25.14L1043.89,46.98L1046.72,60.02L1058.51,78.92L1055.71,84.15L1062.9,96.2L1070.08,104.67L1068.81,107.28L1079.11,130.41L1082.48,141.49L1092.78,156.78L1095.64,167.21L1095.42,177.32L1112.71,201.06L1112.47,203.67L1127.44,219.58L1126.69,223.17L1133.41,231.29L1136.54,239.1L1144.83,250.14L1153.37,257.92L1152.37,263.15L1164.56,277.09L1165.36,281L1193.4,309.82L1200.19,320.53L1211.11,330.55L1208.37,343.29L1210.74,348.49L1227.14,363.02L1225.93,371.83L1228.86,381.26L1238.56,395.52L1246.4,403.27L1248.58,414.99L1263.47,426.57L1262.49,432.13L1267.29,445.12L1275.43,454.81L1283.27,459.62L1282.8,464.51L1288.6,472.27L1286.32,477.19L1288.31,492.49L1292.58,502.54Z" fill-rule="evenodd" fill="#4682b4" fill-opacity="0.471"/>
<polyline points="1292.58,502.54 1287.64,502.6 1268.78,512.26 1256.96,526.4 1257.06,536.18 1245.85,534.34 1234.57,524.01 1223.08,518.25 1217.64,520.9 1214.07,529.73 1207.8,526.2 1193.74,523.7 1186.73,525.71 1183.83,520.19 1178.12,521.53 1171.45,534.62 1158.44,534.38 1153.18,525.93 1140.43,524.38 1135.25,528.64 1132.72,541.7 1125.15,537.17 1107.69,530.41 1098.3,524.9 1092.33,526.23 1077.49,522.37 1067.06,510.66 1062.39,516.21 1050.18,516.89 1041.07,510.06 1042.61,503.87 1038.19,500.61 1025.46,500.96 1017.15,507.16 1007.53,501.29 1014.8,492.16 1023.11,487.27 1018.17,481.08 1008.05,484.34 1003.37,477.17 998.44,478.15 994.03,471.63 988.84,471.63 978.45,481.73 970.93,475.52 965.98,485.62 948.84,490.16 948.85,482.01 942.65,471.56 934.35,467.63 924.74,471.19 917.71,478.02 921.57,491.07 918.43,498.23 912.7,502.12 904.4,498.18 899.19,501.75 883.58,504.94 874.28,494.46 872,482.39 875.46,465.13 873.69,456.32 878.13,451.12 876.15,431.88 881.07,430.92 886.36,407.47 886.15,397.69 877.65,387.87 890.38,376.52 897.62,375.9 899.45,371.34 890.16,368.04 873.92,359.16 863.32,360.08 859.98,355.83 837.61,339.39 824.66,346.48 819.01,341.55 823.18,335.38 820.22,316.45 811.74,312.14 821.1,302.1 815.24,292.6 819.4,286.76 817.67,277.3 826.2,272.46 831.91,265.65 836.8,266.34 840.47,255.93 839.51,245.16 836.45,239.92 821.57,235.58 820.87,225.46 803.67,223.05 799.58,220.08 796.59,208.32 796.92,199.19 792.66,187.41 780.09,186 763.87,192.38 762.12,187.14 754.94,186.42 755.41,165.22 739.11,179.08 731.23,171.82 730.79,165.62 723.49,152.82 724.84,146.64 712.28,147.15 711.13,135.39 707.58,132.42 711.23,127.56 740.26,117.44 761.47,121.24 776.08,118.12 781.74,114.9 798.57,122.87 804.97,122.27 812.61,126.9 830.09,116.26 841.33,119.27 860.02,119.38 873.09,114.23 879.99,116.22 893.26,125.41 907.09,122.21 908.9,117.65 927.06,122.6 935.51,120.99 956.23,125.28 969.04,115.51 979.53,113.89 984.14,107.04 991.56,103.46 1008.69,84.54 1011.5,83.23 1019.4,58.1 1017.35,39.83 1018.62,32 1030.85,25.14 1043.89,46.98 1046.72,60.02 1058.51,78.92 1055.71,84.15 1062.9,96.2 1070.08,104.67 1068.81,107.28 1079.11,130.41 1082.48,141.49 1092.78,156.78 1095.64,167.21 1095.42,177.32 1112.71,201.06 1112.47,203.67 1127.44,219.58 1126.69,223.17 1133.41,231.29 1136.54,239.1 1144.83,250.14 1153.37,257.92 1152.37,263.15 1164.56,277.09 1165.36,281 1193.4,309.82 1200.19,320.53 1211.11,330.55 1208.37,343.29 1210.74,348.49 1227.14,363.02 1225.93,371.83 1228.86,381.26 1238.56,395.52 1246.4,403.27 1248.58,414.99 1263.47,426.57 1262.49,432.13 1267.29,445.12 1275.43,454.81 1283.27,459.62 1282.8,464.51 1288.6,472.27 1286.32,477.19 1288.31,492.49 1292.58,502.54" fill="none" stroke="#1e1e1e" stroke-width="1.45" stroke-linecap="round" stroke-linejoin="round"/>
<path d="M751.18,651.66L763.9,632.87L770.2,629.34L786.65,629.49L779.67,621.6L781.54,616.73L769.63,606.52L764.15,605.82L765,598.33L758.75,597.29L758.3,589.79L752.87,585.5L756.59,578.04L768.68,566.42L775.45,567.78L782.01,561.32L780.01,551.85L789.4,550.3L797.26,543.52L800.98,533.77L807.73,535.45L815.56,533.22L822.81,537.84L828.08,527.12L842.17,520.04L843.83,505.05L856.8,507.74L864.95,491.48L872,482.39L874.28,494.46L883.58,504.94L899.19,501.75L904.4,498.18L912.7,502.12L918.43,498.23L921.57,491.07L917.71,478.02L924.74,471.19L934.35,467.63L942.65,471.56L948.85,482.01L948.84,490.16L965.98,485.62L970.93,475.52L978.45,481.73L988.84,471.63L994.03,471.63L998.44,478.15L1003.37,477.17L1008.05,484.34L1018.17,481.08L1023.11,487.27L1014.8,492.16L1007.53,501.29L1017.15,507.16L1025.46,500.96L1038.19,500.61L1042.61,503.87L1041.07,510.06L1050.18,516.89L1062.39,516.21L1067.06,510.66L1077.49,522.37L1092.33,526.23L1098.3,524.9L1107.69,530.41L1101.48,538.58L1089.77,537.65L1087.19,544.83L1079.67,554.31L1072.12,555.96L1069.8,561.51L1062.25,565.76L1053.95,578.82L1048.5,591.87L1055.03,596.42L1055.04,600.98L1047.76,613.06L1037.58,612.42L1033.67,616.67L1021.66,612.12L1009.91,598.43L1001.56,593.22L1000,601.37L993.48,604.3L993.48,612.78L972.87,607.55L960.07,615.68L955.38,611.43L946.2,631.95L955.85,642.4L950.61,646.95L943.57,641.07L934.16,643.98L927.64,637.45L923.69,648.19L919.76,651.77L908.52,652.05L920,660.89L919.95,676.21L908.71,671.94L904.82,663.77L898.49,677.76L885.13,681.29L885.37,686.84L891.89,691.43L899.22,691.13L904.44,696.04L905.46,702.89L911.74,705.19L913.29,712.04L906.2,716.91L906.68,727.34L904.55,735.48L906.9,740.05L905.02,750.15L908.92,760.26L899.7,769.68L895.73,776.84L898.06,786.3L906.99,788.29L909.11,782.43L919.86,787.68L929.04,796.18L939.83,789.04L949.54,793.62L945.32,799.48L951.08,812.2L937.15,810.21L931.09,815.09L936.58,827.16L934.46,834.33L928.65,838.87L926.26,846.69L927.03,855.16L920.42,861.01L915.42,859.69L904.84,870.08L898.54,864.85L884.55,869.02L881.37,872.59L857.43,864.32L855.36,856.82L847.94,864.27L841.94,855.11L835.71,840.73L829.43,833.52L832.65,824.74L830.32,819.51L831.98,806.48L827.02,801.24L819.38,803.46L814.71,795.28L804.16,799.44L802.37,792.58L805.85,785.11L803.78,780.21L811.53,762.67L813.19,751.27L821.35,747.74L817.72,740.55L803.86,735.56L800.78,727.39L794.73,730.27L781.37,728.53L779.38,716.45L783.32,715.18L783.13,706.38L776.63,700.46L774.07,694.24L766.75,692.87L760,686.62L749.44,669.89L756.91,654.32L751.18,651.66Z" fill-rule="evenodd" fill="#4682b4" fill-opacity="0.471"/>
<polyline points="751.18,651.66 763.9,632.87 770.2,629.34 786.65,629.49 779.67,621.6 781.54,616.73 769.63,606.52 764.15,605.82 765,598.33 758.75,597.29 758.3,589.79 752.87,585.5 756.59,578.04 768.68,566.42 775.45,567.78 782.01,561.32 780.01,551.85 789.4,550.3 797.26,543.52 800.98,533.77 807.73,535.45 815.56,533.22 822.81,537.84 828.08,527.12 842.17,520.04 843.83,505.05 856.8,507.74 864.95,491.48 872,482.39 874.28,494.46 883.58,504.94 899.19,501.75 904.4,498.18 912.7,502.12 918.43,498.23 921.57,491.07 917.71,478.02 924.74,471.19 934.35,467.63 942.65,471.56 948.85,482.01 948.84,490.16 965.98,485.62 970.93,475.52 978.45,481.73 988.84,471.63 994.03,471.63 998.44,478.15 1003.37,477.17 1008.05,484.34 1018.17,481.08 1023.11,487.27 1014.8,492.16 1007.53,501.29 1017.15,507.16 1025.46,500.96 1038.19,500.61 1042.61,503.87 1041.07,510.06 1050.18,516.89 1062.39,516.21 1067.06,510.66 1077.49,522.37 1092.33,526.23 1098.3,524.9 1107.69,530.41 1101.48,538.58 1089.77,537.65 1087.19,544.83 1079.67,554.31 1072.12,555.96 1069.8,561.51 1062.25,565.76 1053.95,578.82 1048.5,591.87 1055.03,596.42 1055.04,600.98 1047.76,613.06 1037.58,612.42 1033.67,616.67 1021.66,612.12 1009.91,598.43 1001.56,593.22 1000,601.37 993.48,604.3 993.48,612.78 972.87,607.55 960.07,615.68 955.38,611.43 946.2,631.95 955.85,642.4 950.61,646.95 943.57,641.07 934.16,643.98 927.64,637.45 923.69,648.19 919.76,651.77 908.52,652.05 920,660.89 919.95,676.21 908.71,671.94 904.82,663.77 898.49,677.76 885.13,681.29 885.37,686.84 891.89,691.43 899.22,691.13 904.44,696.04 905.46,702.89 911.74,705.19 913.29,712.04 906.2,716.91 906.68,727.34 904.55,735.48 906.9,740.05 905.02,750.15 908.92,760.26 899.7,769.68 895.73,776.84 898.06,786.3 906.99,788.29 909.11,782.43 919.86,787.68 929.04,796.18 939.83,789.04 949.54,793.62 945.32,799.48 951.08,812.2 937.15,810.21 931.09,815.09 936.58,827.16 934.46,834.33 928.65,838.87 926.26,846.69 927.03,855.16 920.42,861.01 915.42,859.69 904.84,870.08 898.54,864.85 884.55,869.02 881.37,872.59 857.43,864.32 855.36,856.82 847.94,864.27 841.94,855.11 835.71,840.73 829.43,833.52 832.65,824.74 830.32,819.51 831.98,806.48 827.02,801.24 819.38,803.46 814.71,795.28 804.16,799.44 802.37,792.58 805.85,785.11 803.78,780.21 811.53,762.67 813.19,751.27 821.35,747.74 817.72,740.55 803.86,735.56 800.78,727.39 794.73,730.27 781.37,728.53 779.38,716.45 783.32,715.18 783.13,706.38 776.63,700.46 774.07,694.24 766.75,692.87 760,686.62 749.44,669.89 756.91,654.32 751.18,651.66" fill="none" stroke="#1e1e1e" stroke-width="1.45" stroke-linecap="round" stroke-linejoin="round"/>
<path d="M498.63,720L501.69,710.93L499.68,706.32L499.97,691.66L496.5,681.81L503.18,674.77L508.44,673.24L512.48,681.14L513.84,705.62L518.78,707.67L520.02,725.3L527.17,735.86L522.62,740.99L517.19,736.65L510.58,739.13L501.33,729.5L498.63,720Z" fill-rule="evenodd" fill="#4682b4" fill-opacity="0.471"/>
<polyline points="498.63,720 501.69,710.93 499.68,706.32 499.97,691.66 496.5,681.81 503.18,674.77 508.44,673.24 512.48,681.14 513.84,705.62 518.78,707.67 520.02,725.3 527.17,735.86 522.62,740.99 517.19,736.65 510.58,739.13 501.33,729.5 498.63,720" fill="none" stroke="#1e1e1e" stroke-width="1.45" stroke-linecap="round" stroke-linejoin="round"/>
<path d="M653.6,580.76L675.88,570.95L685.24,573.35L696.75,569.58L706.77,558.94L729.87,566.04L734.75,573.26L748.5,579.27L752.87,585.5L758.3,589.79L758.75,597.29L765,598.33L764.15,605.82L769.63,606.52L781.54,616.73L779.67,621.6L786.65,629.49L770.2,629.34L763.9,632.87L751.18,651.66L743.61,651.26L727.54,638.7L718.41,637.3L711.78,645.7L719.27,653.61L716.59,660.1L717.17,678.68L726.76,686.94L722,715.24L726.97,716.6L728.11,731.93L735.12,739.18L749.52,741.28L748,762.77L743.2,769.9L740.43,784.21L749.05,790.16L748.96,799.29L759.14,806.88L764.06,815.08L770.46,805.03L770.08,789.06L776.07,794.98L782.01,807.41L790.9,813.68L804.16,799.44L814.71,795.28L819.38,803.46L827.02,801.24L831.98,806.48L830.32,819.51L832.65,824.74L829.43,833.52L835.71,840.73L841.94,855.11L836.9,859.97L836.81,874.96L829.46,869.04L815.51,866.34L814.36,879.69L807.47,883.88L793.77,882.15L787.83,867.76L779.34,874.2L768.93,858.79L767.51,841.18L763.1,833.97L746.17,841.96L740.13,840.59L733.51,844.11L712.41,846.82L706.25,855.55L697.59,852.51L690.56,846.24L690.96,834.84L678.67,827.84L669.46,827.72L663.19,824.38L653.38,829.79L645.75,829.04L640.34,839.39L640.43,851.78L637.74,855.98L613.1,865.07L605.92,868.88L601.62,874.68L588.48,871.54L583.66,859.73L577.13,856.03L576.84,841.69L571.06,840.94L566.47,832.06L558.32,831.6L547.43,821.95L553.37,812.93L551.3,796.27L555.92,787.22L551.12,776.38L544.69,768.45L555.28,763.42L555.9,758.21L546.6,749.58L540.05,749.13L541.02,738.72L550.91,728.46L540.73,725.67L540.26,708.39L542.44,703.54L535.51,695.59L537.42,691.06L533.43,680.23L539.27,675.77L536.02,667.56L537.2,660.09L530.48,655.73L530.81,666.17L523.1,672.87L510.36,668.72L501.36,674.08L498.12,679.24L489.99,680.05L493.42,665.13L489.21,653.63L484.25,652.88L486.91,637.61L478.01,638.74L474.45,646.16L466.49,652.19L455.78,651.31L454.34,645.41L458.94,638.34L467.21,642.42L472.22,640.57L463.88,626.71L452.4,626.14L445.98,621.11L453.7,614.43L459.52,598.25L465.42,603.26L467.48,591.9L465.03,584.67L470.11,578.58L481.11,576.2L488.85,579.95L493.49,569.6L501.57,582.81L498.15,584.69L492.67,597.95L498.6,601.33L501.09,594.21L512.84,593.46L514.56,585.66L520.1,582.18L526.03,571.54L517.24,568.11L505.2,557.12L503.81,548.29L523.21,541.49L535.36,545.95L545.04,528.52L552.85,528.66L558.69,536.59L586.08,548.78L600.92,549.02L621.11,557.15L620.29,559.75L629.6,582.05L641.5,588.42L651.97,585.95L653.6,580.76Z" fill-rule="evenodd" fill="#4682b4" fill-opacity="0.471"/>
<polyline points="653.6,580.76 675.88,570.95 685.24,573.35 696.75,569.58 706.77,558.94 729.87,566.04 734.75,573.26 748.5,579.27 752.87,585.5 758.3,589.79 758.75,597.29 765,598.33 764.15,605.82 769.63,606.52 781.54,616.73 779.67,621.6 786.65,629.49 770.2,629.34 763.9,632.87 751.18,651.66 743.61,651.26 727.54,638.7 718.41,637.3 711.78,645.7 719.27,653.61 716.59,660.1 717.17,678.68 726.76,686.94 722,715.24 726.97,716.6 728.11,731.93 735.12,739.18 749.52,741.28 748,762.77 743.2,769.9 740.43,784.21 749.05,790.16 748.96,799.29 759.14,806.88 764.06,815.08 770.46,805.03 770.08,789.06 776.07,794.98 782.01,807.41 790.9,813.68 804.16,799.44 814.71,795.28 819.38,803.46 827.02,801.24 831.98,806.48 830.32,819.51 832.65,824.74 829.43,833.52 835.71,840.73 841.94,855.11 836.9,859.97 836.81,874.96 829.46,869.04 815.51,866.34 814.36,879.69 807.47,883.88 793.77,882.15 787.83,867.76 779.34,874.2 768.93,858.79 767.51,841.18 763.1,833.97 746.17,841.96 740.13,840.59 733.51,844.11 712.41,846.82 706.25,855.55 697.59,852.51 690.56,846.24 690.96,834.84 678.67,827.84 669.46,827.72 663.19,824.38 653.38,829.79 645.75,829.04 640.34,839.39 640.43,851.78 637.74,855.98 613.1,865.07 605.92,868.88 601.62,874.68 588.48,871.54 583.66,859.73 577.13,856.03 576.84,841.69 571.06,840.94 566.47,832.06 558.32,831.6 547.43,821.95 553.37,812.93 551.3,796.27 555.92,787.22 551.12,776.38 544.69,768.45 555.28,763.42 555.9,758.21 546.6,749.58 540.05,749.13 541.02,738.72 550.91,728.46 540.73,725.67 540.26,708.39 542.44,703.54 535.51,695.59 537.42,691.06 533.43,680.23 539.27,675.77 536.02,667.56 537.2,660.09 530.48,655.73 530.81,666.17 523.1,672.87 510.36,668.72 501.36,674.08 498.12,679.24 489.99,680.05 493.42,665.13 489.21,653.63 484.25,652.88 486.91,637.61 478.01,638.74 474.45,646.16 466.49,652.19 455.78,651.31 454.34,645.41 458.94,638.34 467.21,642.42 472.22,640.57 463.88,626.71 452.4,626.14 445.98,621.11 453.7,614.43 459.52,598.25 465.42,603.26 467.48,591.9 465.03,584.67 470.11,578.58 481.11,576.2 488.85,579.95 493.49,569.6 501.57,582.81 498.15,584.69 492.67,597.95 498.6,601.33 501.09,594.21 512.84,593.46 514.56,585.66 520.1,582.18 526.03,571.54 517.24,568.11 505.2,557.12 503.81,548.29 523.21,541.49 535.36,545.95 545.04,528.52 552.85,528.66 558.69,536.59 586.08,548.78 600.92,549.02 621.11,557.15 620.29,559.75 629.6,582.05 641.5,588.42 651.97,585.95 653.6,580.76" fill="none" stroke="#1e1e1e" stroke-width="1.45" stroke-linecap="round" stroke-linejoin="round"/>
<path d="M605.92,868.88L613.1,865.07L637.74,855.98L640.43,851.78L640.34,839.39L645.75,829.04L653.38,829.79L663.19,824.38L669.46,827.72L678.67,827.84L690.96,834.84L690.56,846.24L697.59,852.51L706.25,855.55L712.41,846.82L733.51,844.11L740.13,840.59L746.17,841.96L763.1,833.97L767.51,841.18L768.93,858.79L779.34,874.2L787.83,867.76L793.77,882.15L807.47,883.88L814.36,879.69L815.51,866.34L829.46,869.04L836.81,874.96L836.9,859.97L841.94,855.11L847.94,864.27L855.36,856.82L857.43,864.32L881.37,872.59L884.55,869.02L898.54,864.85L904.84,870.08L905.08,877.25L909.55,882.16L912.93,896.84L906.05,901.05L906.82,906.92L897.55,913.73L895.15,920.89L885.36,924.11L873.18,930.57L870.55,928.6L862.81,943.55L847.67,955.85L847.31,971.82L843.05,975.38L841.41,984.82L836.32,993.59L838.65,1001.75L834.13,1005.31L833.82,1012.15L827.13,1021.23L837.67,1032.05L842.66,1040.56L844.24,1041.87L843.96,1043.83L840.23,1047.39L842.56,1056.53L849.19,1057.55L847.01,1067.31L840.88,1071.19L833.36,1083.52L835.41,1094.94L824.46,1102.37L814.93,1095.78L804.9,1086.26L796.42,1083.26L787.1,1084.49L774.18,1103.29L765.46,1097.67L756.37,1102.47L740.16,1100.69L731.2,1093.1L725.28,1099.23L716.3,1093.59L701.28,1104.51L688.03,1100.44L681.97,1096.13L689.85,1082.21L682.19,1078.2L684.49,1063.56L681.07,1060.59L680.68,1049.83L674.81,1052.04L666.71,1062.69L665,1071.14L653.56,1072.62L644.17,1060.11L643.97,1055.22L632.1,1049.18L623.09,1048.08L608.75,1048.84L604.69,1053.67L606.13,1064.12L601.26,1069.26L599.54,1078.04L592.57,1081.52L590.89,1086.71L582.4,1085.59L576.91,1096.26L565.57,1090.86L552.68,1097.81L546.27,1099.66L541.59,1093.05L541.53,1081.64L532.1,1073.65L536.48,1066.56L533.11,1062.26L524.39,1059.5L520.47,1056.16L534.75,1030.02L543.04,1026.26L563.78,1023.35L569.5,1014.32L583.83,1013.58L581.53,1008L567.73,1009.08L550.25,1008.13L547.28,1011.01L537.25,1008.55L531.52,1002.91L530.96,989.86L543.27,982.91L550.29,975.21L557.75,972.73L566.59,966.03L571.75,958.62L559.78,946.69L569.48,936.09L580.61,933.99L591.61,940.36L593.76,938.11L576.99,929.05L580.56,920.95L589.25,922.4L598.57,917.66L575.63,915.66L571.5,909.72L572.04,893.11L564.68,891.03L564.44,905.69L558.12,904.61L558.29,894.83L549.83,895.66L547.27,890.73L548.48,882.28L580.41,881.19L596.05,876.55L606.85,877.37L605.92,868.88Z" fill-rule="evenodd" fill="#4682b4" fill-opacity="0.471"/>
<polyline points="605.92,868.88 613.1,865.07 637.74,855.98 640.43,851.78 640.34,839.39 645.75,829.04 653.38,829.79 663.19,824.38 669.46,827.72 678.67,827.84 690.96,834.84 690.56,846.24 697.59,852.51 706.25,855.55 712.41,846.82 733.51,844.11 740.13,840.59 746.17,841.96 763.1,833.97 767.51,841.18 768.93,858.79 779.34,874.2 787.83,867.76 793.77,882.15 807.47,883.88 814.36,879.69 815.51,866.34 829.46,869.04 836.81,874.96 836.9,859.97 841.94,855.11 847.94,864.27 855.36,856.82 857.43,864.32 881.37,872.59 884.55,869.02 898.54,864.85 904.84,870.08 905.08,877.25 909.55,882.16 912.93,896.84 906.05,901.05 906.82,906.92 897.55,913.73 895.15,920.89 885.36,924.11 873.18,930.57 870.55,928.6 862.81,943.55 847.67,955.85 847.31,971.82 843.05,975.38 841.41,984.82 836.32,993.59 838.65,1001.75 834.13,1005.31 833.82,1012.15 827.13,1021.23 837.67,1032.05 842.66,1040.56 844.24,1041.87 843.96,1043.83 840.23,1047.39 842.56,1056.53 849.19,1057.55 847.01,1067.31 840.88,1071.19 833.36,1083.52 835.41,1094.94 824.46,1102.37 814.93,1095.78 804.9,1086.26 796.42,1083.26 787.1,1084.49 774.18,1103.29 765.46,1097.67 756.37,1102.47 740.16,1100.69 731.2,1093.1 725.28,1099.23 716.3,1093.59 701.28,1104.51 688.03,1100.44 681.97,1096.13 689.85,1082.21 682.19,1078.2 684.49,1063.56 681.07,1060.59 680.68,1049.83 674.81,1052.04 666.71,1062.69 665,1071.14 653.56,1072.62 644.17,1060.11 643.97,1055.22 632.1,1049.18 623.09,1048.08 608.75,1048.84 604.69,1053.67 606.13,1064.12 601.26,1069.26 599.54,1078.04 592.57,1081.52 590.89,1086.71 582.4,1085.59 576.91,1096.26 565.57,1090.86 552.68,1097.81 546.27,1099.66 541.59,1093.05 541.53,1081.64 532.1,1073.65 536.48,1066.56 533.11,1062.26 524.39,1059.5 520.47,1056.16 534.75,1030.02 543.04,1026.26 563.78,1023.35 569.5,1014.32 583.83,1013.58 581.53,1008 567.73,1009.08 550.25,1008.13 547.28,1011.01 537.25,1008.55 531.52,1002.91 530.96,989.86 543.27,982.91 550.29,975.21 557.75,972.73 566.59,966.03 571.75,958.62 559.78,946.69 569.48,936.09 580.61,933.99 591.61,940.36 593.76,938.11 576.99,929.05 580.56,920.95 589.25,922.4 598.57,917.66 575.63,915.66 571.5,909.72 572.04,893.11 564.68,891.03 564.44,905.69 558.12,904.61 558.29,894.83 549.83,895.66 547.27,890.73 548.48,882.28 580.41,881.19 596.05,876.55 606.85,877.37 605.92,868.88" fill="none" stroke="#1e1e1e" stroke-width="1.45" stroke-linecap="round" stroke-linejoin="round"/>
<path d="M532.12,1477.6L532.46,1473.37L541.48,1467L548.16,1470.38L557.86,1471.2L547.97,1481.79L537.37,1485.85L532.12,1477.6Z" fill-rule="evenodd" fill="#4682b4" fill-opacity="0.471"/>
<polyline points="532.12,1477.6 532.46,1473.37 541.48,1467 548.16,1470.38 557.86,1471.2 547.97,1481.79 537.37,1485.85 532.12,1477.6" fill="none" stroke="#1e1e1e" stroke-width="1.45" stroke-linecap="round" stroke-linejoin="round"/>
<path d="M565.57,1478.17L572.18,1470.13L572.86,1461.34L580.86,1467.01L576.71,1473.79L576.49,1487.16L567.63,1484.4L565.57,1478.17Z" fill-rule="evenodd" fill="#4682b4" fill-opacity="0.471"/>
<polyline points="565.57,1478.17 572.18,1470.13 572.86,1461.34 580.86,1467.01 576.71,1473.79 576.49,1487.16 567.63,1484.4 565.57,1478.17" fill="none" stroke="#1e1e1e" stroke-width="1.45" stroke-linecap="round" stroke-linejoin="round"/>
<path d="M627.12,1477.16L625.05,1470.93L631.69,1458.64L639.52,1458.42L645.82,1470.89L643.03,1477.38L627.12,1477.16Z" fill-rule="evenodd" fill="#4682b4" fill-opacity="0.471"/>
<polyline points="627.12,1477.16 625.05,1470.93 631.69,1458.64 639.52,1458.42 645.82,1470.89 643.03,1477.38 627.12,1477.16" fill="none" stroke="#1e1e1e" stroke-width="1.45" stroke-linecap="round" stroke-linejoin="round"/>
<path d="M554.45,1465.6L545.86,1462.84L549.57,1451.16L562.44,1455.62L560.45,1461.46L554.45,1465.6Z" fill-rule="evenodd" fill="#4682b4" fill-opacity="0.471"/>
<polyline points="554.45,1465.6 545.86,1462.84 549.57,1451.16 562.44,1455.62 560.45,1461.46 554.45,1465.6" fill="none" stroke="#1e1e1e" stroke-width="1.45" stroke-linecap="round" stroke-linejoin="round"/>
<path d="M481.58,1236.02L488.83,1234.53L487.04,1243.63L496.16,1242.83L500.58,1249.1L496.91,1259.14L489.72,1257.37L490.7,1248.26L475.51,1245.35L471.39,1250.49L466.17,1244.19L475.03,1242.41L481.58,1236.02Z" fill-rule="evenodd" fill="#4682b4" fill-opacity="0.471"/>
<polyline points="481.58,1236.02 488.83,1234.53 487.04,1243.63 496.16,1242.83 500.58,1249.1 496.91,1259.14 489.72,1257.37 490.7,1248.26 475.51,1245.35 471.39,1250.49 466.17,1244.19 475.03,1242.41 481.58,1236.02" fill="none" stroke="#1e1e1e" stroke-width="1.45" stroke-linecap="round" stroke-linejoin="round"/>
<path d="M873.54,1238.57L872.5,1233.03L857.54,1231.65L857.57,1226.1L860.24,1225.14L860.25,1223.51L862.94,1220.27L866.39,1225.5L873.6,1225.53L878.92,1230.78L873.54,1238.57Z" fill-rule="evenodd" fill="#4682b4" fill-opacity="0.471"/>
<polyline points="873.54,1238.57 872.5,1233.03 857.54,1231.65 857.57,1226.1 860.24,1225.14 860.25,1223.51 862.94,1220.27 866.39,1225.5 873.6,1225.53 878.92,1230.78 873.54,1238.57" fill="none" stroke="#1e1e1e" stroke-width="1.45" stroke-linecap="round" stroke-linejoin="round"/>
<path d="M401.5,1240.83L405.28,1227.55L416.55,1225.85L420.47,1217.78L426.25,1222.47L424.48,1229.93L426.73,1237.16L412.32,1247.27L407.64,1241.3L401.5,1240.83Z" fill-rule="evenodd" fill="#4682b4" fill-opacity="0.471"/>
<polyline points="401.5,1240.83 405.28,1227.55 416.55,1225.85 420.47,1217.78 426.25,1222.47 424.48,1229.93 426.73,1237.16 412.32,1247.27 407.64,1241.3 401.5,1240.83" fill="none" stroke="#1e1e1e" stroke-width="1.45" stroke-linecap="round" stroke-linejoin="round"/>
<path d="M429.74,1197.12L438.2,1188.83L443.77,1190.25L450.51,1199.85L446.86,1208.57L438.56,1209.05L438.02,1196.97L429.74,1197.12Z" fill-rule="evenodd" fill="#4682b4" fill-opacity="0.471"/>
<polyline points="429.74,1197.12 438.2,1188.83 443.77,1190.25 450.51,1199.85 446.86,1208.57 438.56,1209.05 438.02,1196.97 429.74,1197.12" fill="none" stroke="#1e1e1e" stroke-width="1.45" stroke-linecap="round" stroke-linejoin="round"/>
<path d="M451.4,1182.91L456.42,1185.63L454.14,1192.43L443.05,1186.65L441.89,1178.47L451.4,1182.91Z" fill-rule="evenodd" fill="#4682b4" fill-opacity="0.471"/>
<polyline points="451.4,1182.91 456.42,1185.63 454.14,1192.43 443.05,1186.65 441.89,1178.47 451.4,1182.91" fill="none" stroke="#1e1e1e" stroke-width="1.45" stroke-linecap="round" stroke-linejoin="round"/>
<path d="M429.82,1181.47L422.68,1178.06L414.35,1169.07L424.08,1163.09L435.27,1151.6L435.6,1173.12L429.82,1181.47Z" fill-rule="evenodd" fill="#4682b4" fill-opacity="0.471"/>
<polyline points="429.82,1181.47 422.68,1178.06 414.35,1169.07 424.08,1163.09 435.27,1151.6 435.6,1173.12 429.82,1181.47" fill="none" stroke="#1e1e1e" stroke-width="1.45" stroke-linecap="round" stroke-linejoin="round"/>
<path d="M399.87,1300.13L391.36,1308.74L378.63,1302.57L377.85,1290.49L383.51,1288.99L390.37,1282.31L398,1288.35L399.87,1300.13Z" fill-rule="evenodd" fill="#4682b4" fill-opacity="0.471"/>
<polyline points="399.87,1300.13 391.36,1308.74 378.63,1302.57 377.85,1290.49 383.51,1288.99 390.37,1282.31 398,1288.35 399.87,1300.13" fill="none" stroke="#1e1e1e" stroke-width="1.45" stroke-linecap="round" stroke-linejoin="round"/>
<path d="M433.72,1272.2L437.09,1277.48L444.34,1276.99L448.92,1288.5L445.01,1295.59L436.64,1286.28L431.99,1290.42L422.11,1288.57L419.31,1281.99L424.11,1271.01L433.72,1272.2Z" fill-rule="evenodd" fill="#4682b4" fill-opacity="0.471"/>
<polyline points="433.72,1272.2 437.09,1277.48 444.34,1276.99 448.92,1288.5 445.01,1295.59 436.64,1286.28 431.99,1290.42 422.11,1288.57 419.31,1281.99 424.11,1271.01 433.72,1272.2" fill="none" stroke="#1e1e1e" stroke-width="1.45" stroke-linecap="round" stroke-linejoin="round"/>
<path d="M400.49,1273.41L393.21,1275.2L378.16,1288.54L370.29,1281.51L373.54,1268.87L383.17,1269.42L400.26,1260.04L400.49,1273.41Z" fill-rule="evenodd" fill="#4682b4" fill-opacity="0.471"/>
<polyline points="400.49,1273.41 393.21,1275.2 378.16,1288.54 370.29,1281.51 373.54,1268.87 383.17,1269.42 400.26,1260.04 400.49,1273.41" fill="none" stroke="#1e1e1e" stroke-width="1.45" stroke-linecap="round" stroke-linejoin="round"/>
<path d="M412.7,1254.13L423.39,1242.95L428.94,1246.01L433.18,1235.67L443.48,1241.76L438.42,1253.06L418.47,1259.8L412.7,1254.13Z" fill-rule="evenodd" fill="#4682b4" fill-opacity="0.471"/>
<polyline points="412.7,1254.13 423.39,1242.95 428.94,1246.01 433.18,1235.67 443.48,1241.76 438.42,1253.06 418.47,1259.8 412.7,1254.13" fill="none" stroke="#1e1e1e" stroke-width="1.45" stroke-linecap="round" stroke-linejoin="round"/>
<path d="M666.36,1425.19L660.4,1427.72L655.32,1425.04L658.39,1416.93L668.07,1417.71L666.36,1425.19Z" fill-rule="evenodd" fill="#4682b4" fill-opacity="0.471"/>
<polyline points="666.36,1425.19 660.4,1427.72 655.32,1425.04 658.39,1416.93 668.07,1417.71 666.36,1425.19" fill="none" stroke="#1e1e1e" stroke-width="1.45" stroke-linecap="round" stroke-linejoin="round"/>
<path d="M411.96,1431.17L406.04,1430.71L406.21,1423.54L421.03,1423.22L421.91,1432.37L411.96,1431.17Z" fill-rule="evenodd" fill="#4682b4" fill-opacity="0.471"/>
<polyline points="411.96,1431.17 406.04,1430.71 406.21,1423.54 421.03,1423.22 421.91,1432.37 411.96,1431.17" fill="none" stroke="#1e1e1e" stroke-width="1.45" stroke-linecap="round" stroke-linejoin="round"/>
<path d="M793.69,1362.92L799.33,1363.29L800.88,1370.8L793.63,1370.09L784.05,1359.25L789.48,1351.47L795.91,1353.15L793.69,1362.92Z" fill-rule="evenodd" fill="#4682b4" fill-opacity="0.471"/>
<polyline points="793.69,1362.92 799.33,1363.29 800.88,1370.8 793.63,1370.09 784.05,1359.25 789.48,1351.47 795.91,1353.15 793.69,1362.92" fill="none" stroke="#1e1e1e" stroke-width="1.45" stroke-linecap="round" stroke-linejoin="round"/>
<path d="M876.98,1359.85L881.51,1368.68L874.51,1370.27L867.01,1366L859,1356.83L866.29,1349.04L876.98,1359.85Z" fill-rule="evenodd" fill="#4682b4" fill-opacity="0.471"/>
<polyline points="876.98,1359.85 881.51,1368.68 874.51,1370.27 867.01,1366 859,1356.83 866.29,1349.04 876.98,1359.85" fill="none" stroke="#1e1e1e" stroke-width="1.45" stroke-linecap="round" stroke-linejoin="round"/>
<path d="M405.75,1348.53L409.53,1347.63L422.18,1334.22L412.87,1318.36L421.92,1321.82L428.66,1332.41L424.52,1337.86L426.56,1342.47L414.04,1350.02L405.75,1348.53Z" fill-rule="evenodd" fill="#4682b4" fill-opacity="0.471"/>
<polyline points="405.75,1348.53 409.53,1347.63 422.18,1334.22 412.87,1318.36 421.92,1321.82 428.66,1332.41 424.52,1337.86 426.56,1342.47 414.04,1350.02 405.75,1348.53" fill="none" stroke="#1e1e1e" stroke-width="1.45" stroke-linecap="round" stroke-linejoin="round"/>
<path d="M404.96,1336.12L408.46,1323.48L415.58,1329.18L413.51,1337.94L404.96,1336.12Z" fill-rule="evenodd" fill="#4682b4" fill-opacity="0.471"/>
<polyline points="404.96,1336.12 408.46,1323.48 415.58,1329.18 413.51,1337.94 404.96,1336.12" fill="none" stroke="#1e1e1e" stroke-width="1.45" stroke-linecap="round" stroke-linejoin="round"/>
<path d="M629.77,1423.07L624.56,1429.51L620.91,1420.98L610.13,1421.81L622.41,1409.92L631.25,1412.98L635.48,1418.58L629.77,1423.07Z" fill-rule="evenodd" fill="#4682b4" fill-opacity="0.471"/>
<polyline points="629.77,1423.07 624.56,1429.51 620.91,1420.98 610.13,1421.81 622.41,1409.92 631.25,1412.98 635.48,1418.58 629.77,1423.07" fill="none" stroke="#1e1e1e" stroke-width="1.45" stroke-linecap="round" stroke-linejoin="round"/>
<path d="M666.52,1413.12L671.43,1407.32L678.63,1412.95L689.68,1411.45L687.43,1419.58L680.7,1420.15L670.3,1411.87L666.52,1413.12Z" fill-rule="evenodd" fill="#4682b4" fill-opacity="0.471"/>
<polyline points="666.52,1413.12 671.43,1407.32 678.63,1412.95 689.68,1411.45 687.43,1419.58 680.7,1420.15 670.3,1411.87 666.52,1413.12" fill="none" stroke="#1e1e1e" stroke-width="1.45" stroke-linecap="round" stroke-linejoin="round"/>
<path d="M629.9,1394.38L644.63,1399.47L651.63,1398.91L652.86,1407.73L644.47,1411.21L630.28,1405.47L632.53,1398.65L629.9,1394.38Z" fill-rule="evenodd" fill="#4682b4" fill-opacity="0.471"/>
<polyline points="629.9,1394.38 644.63,1399.47 651.63,1398.91 652.86,1407.73 644.47,1411.21 630.28,1405.47 632.53,1398.65 629.9,1394.38" fill="none" stroke="#1e1e1e" stroke-width="1.45" stroke-linecap="round" stroke-linejoin="round"/>
<path d="M614.99,1402.31L605.53,1404.78L601.29,1400.48L603.54,1393.99L610.93,1385.63L618.49,1383.78L625.7,1387.14L630.39,1397.64L621.72,1402.09L614.99,1402.31Z" fill-rule="evenodd" fill="#4682b4" fill-opacity="0.471"/>
<polyline points="614.99,1402.31 605.53,1404.78 601.29,1400.48 603.54,1393.99 610.93,1385.63 618.49,1383.78 625.7,1387.14 630.39,1397.64 621.72,1402.09 614.99,1402.31" fill="none" stroke="#1e1e1e" stroke-width="1.45" stroke-linecap="round" stroke-linejoin="round"/>
<path d="M595.97,1414.09L598.82,1421.64L605.23,1424.99L601.91,1431.14L582.8,1429.54L572.23,1417.3L569.79,1401.61L572.55,1397.75L582.54,1395.3L594.78,1404.29L595.97,1414.09Z" fill-rule="evenodd" fill="#4682b4" fill-opacity="0.471"/>
<polyline points="595.97,1414.09 598.82,1421.64 605.23,1424.99 601.91,1431.14 582.8,1429.54 572.23,1417.3 569.79,1401.61 572.55,1397.75 582.54,1395.3 594.78,1404.29 595.97,1414.09" fill="none" stroke="#1e1e1e" stroke-width="1.45" stroke-linecap="round" stroke-linejoin="round"/>
<path d="M799.66,1390.02L790.58,1382.45L788.75,1375.92L802.98,1377.66L811.54,1382.94L811.77,1388.48L799.9,1394.59L799.66,1390.02Z" fill-rule="evenodd" fill="#4682b4" fill-opacity="0.471"/>
<polyline points="799.66,1390.02 790.58,1382.45 788.75,1375.92 802.98,1377.66 811.54,1382.94 811.77,1388.48 799.9,1394.59 799.66,1390.02" fill="none" stroke="#1e1e1e" stroke-width="1.45" stroke-linecap="round" stroke-linejoin="round"/>
<path d="M693.81,1381.18L700.39,1369.19L703.84,1373.8L717.88,1367.1L725.68,1366.53L729.37,1374.07L722.77,1388.02L712.03,1386.28L705.55,1388.81L693.81,1381.18Z" fill-rule="evenodd" fill="#4682b4" fill-opacity="0.471"/>
<polyline points="693.81,1381.18 700.39,1369.19 703.84,1373.8 717.88,1367.1 725.68,1366.53 729.37,1374.07 722.77,1388.02 712.03,1386.28 705.55,1388.81 693.81,1381.18" fill="none" stroke="#1e1e1e" stroke-width="1.45" stroke-linecap="round" stroke-linejoin="round"/>
<path d="M439.44,1406.33L428.55,1399.25L422.1,1386.72L432.65,1371.62L444.87,1365.69L450.17,1356.34L469.19,1345.97L463.71,1338.04L466.79,1332.23L477.45,1336.03L483.67,1347.24L489.57,1347.68L500.12,1357.99L496.19,1366.72L496.73,1380.43L486.01,1392.28L483.14,1387.66L447.72,1409.12L439.44,1406.33Z" fill-rule="evenodd" fill="#4682b4" fill-opacity="0.471"/>
<polyline points="439.44,1406.33 428.55,1399.25 422.1,1386.72 432.65,1371.62 444.87,1365.69 450.17,1356.34 469.19,1345.97 463.71,1338.04 466.79,1332.23 477.45,1336.03 483.67,1347.24 489.57,1347.68 500.12,1357.99 496.19,1366.72 496.73,1380.43 486.01,1392.28 483.14,1387.66 447.72,1409.12 439.44,1406.33" fill="none" stroke="#1e1e1e" stroke-width="1.45" stroke-linecap="round" stroke-linejoin="round"/>
<path d="M245.53,1305.28L239.62,1314.89L236.49,1311.86L243.52,1291.2L250.16,1302.8L245.53,1305.28Z" fill-rule="evenodd" fill="#4682b4" fill-opacity="0.471"/>
<polyline points="245.53,1305.28 239.62,1314.89 236.49,1311.86 243.52,1291.2 250.16,1302.8 245.53,1305.28" fill="none" stroke="#1e1e1e" stroke-width="1.45" stroke-linecap="round" stroke-linejoin="round"/>
<path d="M432.36,1322.7L435.23,1314.29L442.39,1305.64L450.3,1312L446.62,1321.05L441.83,1319.32L432.36,1322.7Z" fill-rule="evenodd" fill="#4682b4" fill-opacity="0.471"/>
<polyline points="432.36,1322.7 435.23,1314.29 442.39,1305.64 450.3,1312 446.62,1321.05 441.83,1319.32 432.36,1322.7" fill="none" stroke="#1e1e1e" stroke-width="1.45" stroke-linecap="round" stroke-linejoin="round"/>
<path d="M871.46,1336.03L858.36,1326.18L861.37,1316.09L868.63,1311.24L870.61,1290.71L878.89,1295.97L876.42,1307.69L881.23,1310.65L882.51,1324.02L878.42,1338.67L871.46,1336.03Z" fill-rule="evenodd" fill="#4682b4" fill-opacity="0.471"/>
<polyline points="871.46,1336.03 858.36,1326.18 861.37,1316.09 868.63,1311.24 870.61,1290.71 878.89,1295.97 876.42,1307.69 881.23,1310.65 882.51,1324.02 878.42,1338.67 871.46,1336.03" fill="none" stroke="#1e1e1e" stroke-width="1.45" stroke-linecap="round" stroke-linejoin="round"/>
<path d="M524.39,1059.5L533.11,1062.26L536.48,1066.56L532.1,1073.65L541.53,1081.64L541.59,1093.05L546.27,1099.66L552.68,1097.81L565.57,1090.86L576.91,1096.26L582.4,1085.59L590.89,1086.71L592.57,1081.52L599.54,1078.04L601.26,1069.26L606.13,1064.12L604.69,1053.67L608.75,1048.84L623.09,1048.08L632.1,1049.18L643.97,1055.22L644.17,1060.11L653.56,1072.62L665,1071.14L666.71,1062.69L674.81,1052.04L680.68,1049.83L681.07,1060.59L684.49,1063.56L682.19,1078.2L689.85,1082.21L681.97,1096.13L688.03,1100.44L701.28,1104.51L716.3,1093.59L725.28,1099.23L731.2,1093.1L740.16,1100.69L756.37,1102.47L765.46,1097.67L774.18,1103.29L787.1,1084.49L796.42,1083.26L804.9,1086.26L814.93,1095.78L824.46,1102.37L829.16,1115.76L835.22,1126.23L836.44,1143.19L854.2,1159.59L854.94,1168.72L868.2,1183.79L873.79,1185.77L879.34,1197.53L877.7,1206.97L872.86,1212.82L864.56,1217.99L859.45,1224.16L856.77,1225.12L855.14,1229.68L839.84,1241L830.84,1226.6L827.08,1229.51L833.17,1238.35L826.72,1243.19L830.41,1250.72L838.92,1259.24L848.04,1256.36L855.83,1249.24L865.19,1250.59L875.63,1248.36L874.46,1268.57L868.27,1277.01L869.54,1289.4L864.72,1289.05L857.19,1294.56L844.4,1283.07L839.76,1296.41L832.78,1298.97L837.8,1310.74L838.27,1320.85L816.86,1314.52L815.38,1296.58L827.24,1286.55L817.74,1265.95L808.92,1263.28L809.53,1253.51L807.47,1243.06L800.24,1243.98L799.09,1254.4L793.48,1253.38L780.33,1258.49L779.19,1266.96L771.89,1274.72L775.59,1280.94L768.3,1286.75L773.04,1296.9L795.41,1314.36L793.76,1319.56L801.24,1323.2L803.59,1331.7L797.62,1341.43L790.12,1338.44L779.39,1338.35L773.95,1346.13L785.2,1350.14L772.15,1368.93L766.21,1371.82L756.8,1372.38L758.31,1382.83L749.72,1382.1L743.69,1366.39L736.24,1358.49L719.9,1354.74L705.9,1357.19L700.29,1355.17L698.25,1345.69L706.93,1336.99L713.95,1333.81L714.33,1323.7L718.95,1318.21L729.17,1314.73L732.81,1300.1L739.02,1295.6L744.86,1301.53L745.03,1310.98L752.26,1312.03L758.03,1297.41L756.01,1284.03L751.46,1283.33L746.31,1290.13L735.9,1286.12L729.79,1281.16L724.36,1287.63L721.31,1298.03L715.9,1302.53L699.02,1301.69L697.62,1306.57L686.03,1311.97L682.2,1318.45L673.01,1323.87L665.59,1337.47L661.28,1359.91L661.17,1368.39L650.52,1381.29L636.31,1378.16L636.72,1387.3L626.86,1381.29L618.26,1380.52L610.83,1374.54L612.79,1368.7L610.24,1359.53L612.92,1341.97L606.65,1330.14L603.48,1362.69L597.49,1367.49L598.47,1374.03L581.32,1387.13L568.88,1391.82L562.83,1399.54L564.56,1409.03L560.74,1411.9L558.65,1424.25L547.66,1420.81L544.06,1426.94L536.75,1429.09L535.26,1421.57L538.82,1418.37L537.92,1408.25L527.73,1406.44L537.15,1390.63L534.82,1386.02L523.34,1380.92L525.37,1372.81L521.13,1369.8L525.33,1360.09L522.79,1351.89L501.24,1341.39L488.95,1337.89L474.63,1329.13L477.5,1320.06L472.71,1318L468.64,1306.84L477.26,1277.99L486.32,1280.45L495.34,1298.89L499.13,1297L503.89,1286.33L502.5,1274.9L521.08,1269.38L519.02,1264.77L507.95,1269.78L499.64,1270.28L494.93,1264.65L510.25,1247.33L505.94,1234.86L509.83,1226.78L501.71,1218.15L498.9,1225.27L490.09,1224.78L487.84,1216.91L489.59,1209.44L495.24,1206.95L494.61,1198.13L506.76,1191.19L504.52,1182.67L496.97,1186.44L495.05,1175.65L487.42,1170.28L486.67,1181.02L479.25,1178.27L470.65,1194.4L463.25,1190.66L465.53,1183.86L462.42,1179.23L451.49,1179L445.95,1175.63L447.8,1163.93L454,1161.13L470.15,1166.68L469.24,1158.83L476.07,1150.82L485.6,1153.94L492.13,1160.92L495.08,1174.02L509.22,1174.29L508.48,1185.03L521.64,1180.38L527.23,1166.79L516.33,1164.64L510.92,1154.76L506.69,1152.72L493.5,1131.93L483.95,1129.79L486.6,1116.8L494.81,1105.55L501.73,1105.36L505.31,1099.23L507.99,1083.96L513.24,1073.63L513.7,1063.21L524.39,1059.5ZM575.2,1152.3L577.19,1161.13L587.27,1164.23L599.26,1165.39L606.37,1171.04L608.32,1183.46L617.66,1183.6L632.45,1175.34L644.73,1174.53L656.43,1177.62L673.45,1160.24L672.23,1151.09L676.29,1146.25L671.3,1140.32L664.64,1140.57L651.61,1119.21L644.98,1117.16L636.96,1119.66L627.82,1125.72L615.52,1129.13L598.61,1121.05L594.98,1131.43L588.08,1130.34L582.79,1144.27L575.2,1152.3Z" fill-rule="evenodd" fill="#4682b4" fill-opacity="0.471"/>
<polyline points="524.39,1059.5 533.11,1062.26 536.48,1066.56 532.1,1073.65 541.53,1081.64 541.59,1093.05 546.27,1099.66 552.68,1097.81 565.57,1090.86 576.91,1096.26 582.4,1085.59 590.89,1086.71 592.57,1081.52 599.54,1078.04 601.26,1069.26 606.13,1064.12 604.69,1053.67 608.75,1048.84 623.09,1048.08 632.1,1049.18 643.97,1055.22 644.17,1060.11 653.56,1072.62 665,1071.14 666.71,1062.69 674.81,1052.04 680.68,1049.83 681.07,1060.59 684.49,1063.56 682.19,1078.2 689.85,1082.21 681.97,1096.13 688.03,1100.44 701.28,1104.51 716.3,1093.59 725.28,1099.23 731.2,1093.1 740.16,1100.69 756.37,1102.47 765.46,1097.67 774.18,1103.29 787.1,1084.49 796.42,1083.26 804.9,1086.26 814.93,1095.78 824.46,1102.37 829.16,1115.76 835.22,1126.23 836.44,1143.19 854.2,1159.59 854.94,1168.72 868.2,1183.79 873.79,1185.77 879.34,1197.53 877.7,1206.97 872.86,1212.82 864.56,1217.99 859.45,1224.16 856.77,1225.12 855.14,1229.68 839.84,1241 830.84,1226.6 827.08,1229.51 833.17,1238.35 826.72,1243.19 830.41,1250.72 838.92,1259.24 848.04,1256.36 855.83,1249.24 865.19,1250.59 875.63,1248.36 874.46,1268.57 868.27,1277.01 869.54,1289.4 864.72,1289.05 857.19,1294.56 844.4,1283.07 839.76,1296.41 832.78,1298.97 837.8,1310.74 838.27,1320.85 816.86,1314.52 815.38,1296.58 827.24,1286.55 817.74,1265.95 808.92,1263.28 809.53,1253.51 807.47,1243.06 800.24,1243.98 799.09,1254.4 793.48,1253.38 780.33,1258.49 779.19,1266.96 771.89,1274.72 775.59,1280.94 768.3,1286.75 773.04,1296.9 795.41,1314.36 793.76,1319.56 801.24,1323.2 803.59,1331.7 797.62,1341.43 790.12,1338.44 779.39,1338.35 773.95,1346.13 785.2,1350.14 772.15,1368.93 766.21,1371.82 756.8,1372.38 758.31,1382.83 749.72,1382.1 743.69,1366.39 736.24,1358.49 719.9,1354.74 705.9,1357.19 700.29,1355.17 698.25,1345.69 706.93,1336.99 713.95,1333.81 714.33,1323.7 718.95,1318.21 729.17,1314.73 732.81,1300.1 739.02,1295.6 744.86,1301.53 745.03,1310.98 752.26,1312.03 758.03,1297.41 756.01,1284.03 751.46,1283.33 746.31,1290.13 735.9,1286.12 729.79,1281.16 724.36,1287.63 721.31,1298.03 715.9,1302.53 699.02,1301.69 697.62,1306.57 686.03,1311.97 682.2,1318.45 673.01,1323.87 665.59,1337.47 661.28,1359.91 661.17,1368.39 650.52,1381.29 636.31,1378.16 636.72,1387.3 626.86,1381.29 618.26,1380.52 610.83,1374.54 612.79,1368.7 610.24,1359.53 612.92,1341.97 606.65,1330.14 603.48,1362.69 597.49,1367.49 598.47,1374.03 581.32,1387.13 568.88,1391.82 562.83,1399.54 564.56,1409.03 560.74,1411.9 558.65,1424.25 547.66,1420.81 544.06,1426.94 536.75,1429.09 535.26,1421.57 538.82,1418.37 537.92,1408.25 527.73,1406.44 537.15,1390.63 534.82,1386.02 523.34,1380.92 525.37,1372.81 521.13,1369.8 525.33,1360.09 522.79,1351.89 501.24,1341.39 488.95,1337.89 474.63,1329.13 477.5,1320.06 472.71,1318 468.64,1306.84 477.26,1277.99 486.32,1280.45 495.34,1298.89 499.13,1297 503.89,1286.33 502.5,1274.9 521.08,1269.38 519.02,1264.77 507.95,1269.78 499.64,1270.28 494.93,1264.65 510.25,1247.33 505.94,1234.86 509.83,1226.78 501.71,1218.15 498.9,1225.27 490.09,1224.78 487.84,1216.91 489.59,1209.44 495.24,1206.95 494.61,1198.13 506.76,1191.19 504.52,1182.67 496.97,1186.44 495.05,1175.65 487.42,1170.28 486.67,1181.02 479.25,1178.27 470.65,1194.4 463.25,1190.66 465.53,1183.86 462.42,1179.23 451.49,1179 445.95,1175.63 447.8,1163.93 454,1161.13 470.15,1166.68 469.24,1158.83 476.07,1150.82 485.6,1153.94 492.13,1160.92 495.08,1174.02 509.22,1174.29 508.48,1185.03 521.64,1180.38 527.23,1166.79 516.33,1164.64 510.92,1154.76 506.69,1152.72 493.5,1131.93 483.95,1129.79 486.6,1116.8 494.81,1105.55 501.73,1105.36 505.31,1099.23 507.99,1083.96 513.24,1073.63 513.7,1063.21 524.39,1059.5" fill="none" stroke="#1e1e1e" stroke-width="1.45" stroke-linecap="round" stroke-linejoin="round"/>
<polyline points="575.2,1152.3 577.19,1161.13 587.27,1164.23 599.26,1165.39 606.37,1171.04 608.32,1183.46 617.66,1183.6 632.45,1175.34 644.73,1174.53 656.43,1177.62 673.45,1160.24 672.23,1151.09 676.29,1146.25 671.3,1140.32 664.64,1140.57 651.61,1119.21 644.98,1117.16 636.96,1119.66 627.82,1125.72 615.52,1129.13 598.61,1121.05 594.98,1131.43 588.08,1130.34 582.79,1144.27 575.2,1152.3" fill="none" stroke="#1e1e1e" stroke-width="1.45" stroke-linecap="round" stroke-linejoin="round"/>
<path d="M1660.41,374.33L1673.96,368.42L1686.05,366.14L1693.01,374.76L1690.5,386.89L1681.36,393.34L1665.43,388.22L1663.89,379.13L1660.41,374.33Z" fill-rule="evenodd" fill="#4682b4" fill-opacity="0.471"/>
<polyline points="1660.41,374.33 1673.96,368.42 1686.05,366.14 1693.01,374.76 1690.5,386.89 1681.36,393.34 1665.43,388.22 1663.89,379.13 1660.41,374.33" fill="none" stroke="#1e1e1e" stroke-width="1.45" stroke-linecap="round" stroke-linejoin="round"/>
<path d="M1107.69,530.41L1125.15,537.17L1132.72,541.7L1135.25,528.64L1140.43,524.38L1153.18,525.93L1158.44,534.38L1171.45,534.62L1178.12,521.53L1183.83,520.19L1186.73,525.71L1193.74,523.7L1207.8,526.2L1214.07,529.73L1217.64,520.9L1223.08,518.25L1234.57,524.01L1245.85,534.34L1257.06,536.18L1256.96,526.4L1268.78,512.26L1287.64,502.6L1292.58,502.54L1295.48,505.77L1296.92,517.82L1309.28,529.08L1304.99,540.54L1307.47,552.25L1304.66,556.52L1307.64,565.94L1306.84,586.16L1310.65,599.15L1318.09,610.47L1323.93,638.75L1323.53,647.89L1314.48,656.15L1307.1,673.19L1307.52,685.9L1314.71,695.91L1316.73,711.53L1313.16,719.08L1314.53,723.95L1312.4,742.55L1306.71,749.47L1299.57,767.8L1298.56,793.89L1301.51,798.42L1299.59,814.09L1303.56,816L1305.6,832.59L1316.47,839.63L1310.83,851.76L1301.91,855.45L1302.31,866.86L1313.77,876.82L1318.27,878.4L1333.39,864.52L1344.27,850.69L1350.85,849.94L1352.78,856.44L1352.49,874.04L1346.51,879.99L1347.11,885.52L1339.09,897.36L1340.45,920.16L1333.61,943.07L1327.69,976.71L1320.97,989.51L1295.44,980.69L1280.48,992.59L1270.64,988.78L1271.31,976.71L1257.19,968.06L1228.91,972.23L1222.07,976.86L1219.79,988.28L1202.67,1000.48L1197.94,1005.08L1185.68,996.05L1179.58,994.79L1167.97,1001.06L1160.61,1011.21L1149.48,1010.95L1145.54,1018.47L1138.12,1018.18L1129.09,1014.32L1123.26,1014.67L1119.79,1009.8L1108.39,1009.85L1105.76,1013.44L1091.7,1012.19L1079.21,1000.18L1079.17,988.12L1076.24,981.28L1076.74,970.85L1090.47,962.66L1098.41,962.63L1101.1,974.03L1107.97,972.7L1120.11,965.15L1121.4,956.99L1117.64,945.93L1126.34,940.67L1126.82,931.22L1138.13,921.06L1136.72,904.77L1131.95,900.88L1133.99,885.88L1128.66,876.13L1120.73,872.26L1099.66,875.28L1096.26,882.46L1083.09,889.68L1077.01,883.83L1078.11,899.47L1067.59,911.89L1060.72,910.27L1063.07,898.86L1056.99,896.27L1042.24,909.99L1038.83,925.96L1045.96,925.95L1061.03,930.81L1061.32,940.26L1048.1,940.61L1038.61,956.27L1051.86,968.63L1051.87,973.19L1045.26,977.12L1031.49,972.9L1030.97,980.72L1042.64,994.4L1040.27,1002.22L1035.24,1004.51L1031.52,996.04L1017.74,990.84L998.94,995.41L990.2,994.1L987.55,990.52L979.87,991.16L991,976.83L987.04,958.9L980.43,955.64L977.26,947.16L970.92,946.18L969.61,935.42L955.61,929.54L950.59,933.11L940.02,933.09L930.26,926.55L919.44,921.95L915.51,912.82L908.91,914.42L906.05,901.05L912.93,896.84L909.55,882.16L905.08,877.25L904.84,870.08L915.42,859.69L920.42,861.01L927.03,855.16L926.26,846.69L928.65,838.87L934.46,834.33L936.58,827.16L931.09,815.09L937.15,810.21L951.08,812.2L945.32,799.48L949.54,793.62L939.83,789.04L929.04,796.18L919.86,787.68L909.11,782.43L906.99,788.29L898.06,786.3L895.73,776.84L899.7,769.68L908.92,760.26L905.02,750.15L906.9,740.05L904.55,735.48L906.68,727.34L906.2,716.91L913.29,712.04L911.74,705.19L905.46,702.89L904.44,696.04L899.22,691.13L891.89,691.43L885.37,686.84L885.13,681.29L898.49,677.76L904.82,663.77L908.71,671.94L919.95,676.21L920,660.89L908.52,652.05L919.76,651.77L923.69,648.19L927.64,637.45L934.16,643.98L943.57,641.07L950.61,646.95L955.85,642.4L946.2,631.95L955.38,611.43L960.07,615.68L972.87,607.55L993.48,612.78L993.48,604.3L1000,601.37L1001.56,593.22L1009.91,598.43L1021.66,612.12L1033.67,616.67L1037.58,612.42L1047.76,613.06L1055.04,600.98L1055.03,596.42L1048.5,591.87L1053.95,578.82L1062.25,565.76L1069.8,561.51L1072.12,555.96L1079.67,554.31L1087.19,544.83L1089.77,537.65L1101.48,538.58L1107.69,530.41Z" fill-rule="evenodd" fill="#4682b4" fill-opacity="0.471"/>
<polyline points="1107.69,530.41 1125.15,537.17 1132.72,541.7 1135.25,528.64 1140.43,524.38 1153.18,525.93 1158.44,534.38 1171.45,534.62 1178.12,521.53 1183.83,520.19 1186.73,525.71 1193.74,523.7 1207.8,526.2 1214.07,529.73 1217.64,520.9 1223.08,518.25 1234.57,524.01 1245.85,534.34 1257.06,536.18 1256.96,526.4 1268.78,512.26 1287.64,502.6 1292.58,502.54 1295.48,505.77 1296.92,517.82 1309.28,529.08 1304.99,540.54 1307.47,552.25 1304.66,556.52 1307.64,565.94 1306.84,586.16 1310.65,599.15 1318.09,610.47 1323.93,638.75 1323.53,647.89 1314.48,656.15 1307.1,673.19 1307.52,685.9 1314.71,695.91 1316.73,711.53 1313.16,719.08 1314.53,723.95 1312.4,742.55 1306.71,749.47 1299.57,767.8 1298.56,793.89 1301.51,798.42 1299.59,814.09 1303.56,816 1305.6,832.59 1316.47,839.63 1310.83,851.76 1301.91,855.45 1302.31,866.86 1313.77,876.82 1318.27,878.4 1333.39,864.52 1344.27,850.69 1350.85,849.94 1352.78,856.44 1352.49,874.04 1346.51,879.99 1347.11,885.52 1339.09,897.36 1340.45,920.16 1333.61,943.07 1327.69,976.71 1320.97,989.51 1295.44,980.69 1280.48,992.59 1270.64,988.78 1271.31,976.71 1257.19,968.06 1228.91,972.23 1222.07,976.86 1219.79,988.28 1202.67,1000.48 1197.94,1005.08 1185.68,996.05 1179.58,994.79 1167.97,1001.06 1160.61,1011.21 1149.48,1010.95 1145.54,1018.47 1138.12,1018.18 1129.09,1014.32 1123.26,1014.67 1119.79,1009.8 1108.39,1009.85 1105.76,1013.44 1091.7,1012.19 1079.21,1000.18 1079.17,988.12 1076.24,981.28 1076.74,970.85 1090.47,962.66 1098.41,962.63 1101.1,974.03 1107.97,972.7 1120.11,965.15 1121.4,956.99 1117.64,945.93 1126.34,940.67 1126.82,931.22 1138.13,921.06 1136.72,904.77 1131.95,900.88 1133.99,885.88 1128.66,876.13 1120.73,872.26 1099.66,875.28 1096.26,882.46 1083.09,889.68 1077.01,883.83 1078.11,899.47 1067.59,911.89 1060.72,910.27 1063.07,898.86 1056.99,896.27 1042.24,909.99 1038.83,925.96 1045.96,925.95 1061.03,930.81 1061.32,940.26 1048.1,940.61 1038.61,956.27 1051.86,968.63 1051.87,973.19 1045.26,977.12 1031.49,972.9 1030.97,980.72 1042.64,994.4 1040.27,1002.22 1035.24,1004.51 1031.52,996.04 1017.74,990.84 998.94,995.41 990.2,994.1 987.55,990.52 979.87,991.16 991,976.83 987.04,958.9 980.43,955.64 977.26,947.16 970.92,946.18 969.61,935.42 955.61,929.54 950.59,933.11 940.02,933.09 930.26,926.55 919.44,921.95 915.51,912.82 908.91,914.42 906.05,901.05 912.93,896.84 909.55,882.16 905.08,877.25 904.84,870.08 915.42,859.69 920.42,861.01 927.03,855.16 926.26,846.69 928.65,838.87 934.46,834.33 936.58,827.16 931.09,815.09 937.15,810.21 951.08,812.2 945.32,799.48 949.54,793.62 939.83,789.04 929.04,796.18 919.86,787.68 909.11,782.43 906.99,788.29 898.06,786.3 895.73,776.84 899.7,769.68 908.92,760.26 905.02,750.15 906.9,740.05 904.55,735.48 906.68,727.34 906.2,716.91 913.29,712.04 911.74,705.19 905.46,702.89 904.44,696.04 899.22,691.13 891.89,691.43 885.37,686.84 885.13,681.29 898.49,677.76 904.82,663.77 908.71,671.94 919.95,676.21 920,660.89 908.52,652.05 919.76,651.77 923.69,648.19 927.64,637.45 934.16,643.98 943.57,641.07 950.61,646.95 955.85,642.4 946.2,631.95 955.38,611.43 960.07,615.68 972.87,607.55 993.48,612.78 993.48,604.3 1000,601.37 1001.56,593.22 1009.91,598.43 1021.66,612.12 1033.67,616.67 1037.58,612.42 1047.76,613.06 1055.04,600.98 1055.03,596.42 1048.5,591.87 1053.95,578.82 1062.25,565.76 1069.8,561.51 1072.12,555.96 1079.67,554.31 1087.19,544.83 1089.77,537.65 1101.48,538.58 1107.69,530.41" fill="none" stroke="#1e1e1e" stroke-width="1.45" stroke-linecap="round" stroke-linejoin="round"/>
<path d="M1008.31,1320.04L1010.73,1327.54L1001.34,1326.56L996.51,1322.98L1001.61,1317.11L1008.31,1320.04Z" fill-rule="evenodd" fill="#4682b4" fill-opacity="0.471"/>
<polyline points="1008.31,1320.04 1010.73,1327.54 1001.34,1326.56 996.51,1322.98 1001.61,1317.11 1008.31,1320.04" fill="none" stroke="#1e1e1e" stroke-width="1.45" stroke-linecap="round" stroke-linejoin="round"/>
<path d="M1001.61,1265.93L995.99,1268.21L990.1,1263.32L994.11,1256.48L1007.23,1263L1001.61,1265.93Z" fill-rule="evenodd" fill="#4682b4" fill-opacity="0.471"/>
<polyline points="1001.61,1265.93 995.99,1268.21 990.1,1263.32 994.11,1256.48 1007.23,1263 1001.61,1265.93" fill="none" stroke="#1e1e1e" stroke-width="1.45" stroke-linecap="round" stroke-linejoin="round"/>
<path d="M1039.62,1275.36L1037.21,1270.8L1038.8,1261.34L1048.43,1257.41L1054.59,1260.33L1053.01,1275.66L1045.26,1281.21L1039.62,1275.36Z" fill-rule="evenodd" fill="#4682b4" fill-opacity="0.471"/>
<polyline points="1039.62,1275.36 1037.21,1270.8 1038.8,1261.34 1048.43,1257.41 1054.59,1260.33 1053.01,1275.66 1045.26,1281.21 1039.62,1275.36" fill="none" stroke="#1e1e1e" stroke-width="1.45" stroke-linecap="round" stroke-linejoin="round"/>
<path d="M936.59,1258.03L944.62,1257.73L953.7,1265.24L949.94,1270.45L951.25,1286.75L931.94,1298.44L926.31,1298.1L921.25,1286.35L921.28,1275.92L910.29,1280.45L912.67,1289.58L907.03,1294.13L899.01,1289.86L892.88,1282.66L896.64,1278.77L886.29,1257.54L885.52,1249.38L893.87,1236.71L897.35,1235.09L901.94,1222.4L913.16,1222.76L917.41,1231.58L914.98,1238.74L909.89,1241.66L910.13,1248.18L914.12,1256.67L920.8,1260.27L923.99,1267.13L936.59,1258.03Z" fill-rule="evenodd" fill="#4682b4" fill-opacity="0.471"/>
<polyline points="936.59,1258.03 944.62,1257.73 953.7,1265.24 949.94,1270.45 951.25,1286.75 931.94,1298.44 926.31,1298.1 921.25,1286.35 921.28,1275.92 910.29,1280.45 912.67,1289.58 907.03,1294.13 899.01,1289.86 892.88,1282.66 896.64,1278.77 886.29,1257.54 885.52,1249.38 893.87,1236.71 897.35,1235.09 901.94,1222.4 913.16,1222.76 917.41,1231.58 914.98,1238.74 909.89,1241.66 910.13,1248.18 914.12,1256.67 920.8,1260.27 923.99,1267.13 936.59,1258.03" fill="none" stroke="#1e1e1e" stroke-width="1.45" stroke-linecap="round" stroke-linejoin="round"/>
<path d="M1116.14,1203.42L1116.9,1192.98L1126.51,1192.94L1128.66,1195.86L1122.02,1204.04L1122.59,1212.19L1130.65,1220.95L1122.46,1239.57L1126.23,1246.07L1132.61,1238.87L1135.32,1245.37L1124.13,1255.21L1134.65,1271.78L1126.35,1270.19L1116.15,1264.05L1112.72,1277.1L1107.11,1280.38L1111.7,1287.53L1104.75,1291.15L1104.5,1297.02L1094.59,1298.36L1090.81,1287.94L1091.59,1281.09L1084.07,1276.88L1092.61,1269.35L1093.9,1253.7L1086.42,1257.97L1070.63,1258.01L1065.28,1255.75L1062.58,1245L1067.64,1236.84L1078.04,1228.66L1087.69,1236.45L1090.08,1233.18L1101.04,1233.14L1092.98,1220.79L1096.16,1214.91L1109.52,1215.83L1111.09,1207.35L1116.14,1203.42Z" fill-rule="evenodd" fill="#4682b4" fill-opacity="0.471"/>
<polyline points="1116.14,1203.42 1116.9,1192.98 1126.51,1192.94 1128.66,1195.86 1122.02,1204.04 1122.59,1212.19 1130.65,1220.95 1122.46,1239.57 1126.23,1246.07 1132.61,1238.87 1135.32,1245.37 1124.13,1255.21 1134.65,1271.78 1126.35,1270.19 1116.15,1264.05 1112.72,1277.1 1107.11,1280.38 1111.7,1287.53 1104.75,1291.15 1104.5,1297.02 1094.59,1298.36 1090.81,1287.94 1091.59,1281.09 1084.07,1276.88 1092.61,1269.35 1093.9,1253.7 1086.42,1257.97 1070.63,1258.01 1065.28,1255.75 1062.58,1245 1067.64,1236.84 1078.04,1228.66 1087.69,1236.45 1090.08,1233.18 1101.04,1233.14 1092.98,1220.79 1096.16,1214.91 1109.52,1215.83 1111.09,1207.35 1116.14,1203.42" fill="none" stroke="#1e1e1e" stroke-width="1.45" stroke-linecap="round" stroke-linejoin="round"/>
<path d="M936.38,1232.61L951.07,1241.44L954.27,1246.01L952.38,1253.18L942.75,1253.48L932.85,1256.72L928.04,1254.75L926.19,1246.27L936.38,1232.61Z" fill-rule="evenodd" fill="#4682b4" fill-opacity="0.471"/>
<polyline points="936.38,1232.61 951.07,1241.44 954.27,1246.01 952.38,1253.18 942.75,1253.48 932.85,1256.72 928.04,1254.75 926.19,1246.27 936.38,1232.61" fill="none" stroke="#1e1e1e" stroke-width="1.45" stroke-linecap="round" stroke-linejoin="round"/>
<path d="M872.86,1212.82L877.7,1206.97L879.34,1197.53L873.79,1185.77L868.2,1183.79L854.94,1168.72L854.2,1159.59L836.44,1143.19L835.22,1126.23L829.16,1115.76L824.46,1102.37L835.41,1094.94L833.36,1083.52L840.88,1071.19L847.01,1067.31L849.19,1057.55L842.56,1056.53L840.23,1047.39L843.96,1043.83L844.24,1041.87L842.66,1040.56L837.67,1032.05L827.13,1021.23L833.82,1012.15L834.13,1005.31L838.65,1001.75L836.32,993.59L841.41,984.82L843.05,975.38L847.31,971.82L847.67,955.85L862.81,943.55L870.55,928.6L873.18,930.57L885.36,924.11L895.15,920.89L897.55,913.73L906.82,906.92L908.91,914.42L915.51,912.82L919.44,921.95L930.26,926.55L940.02,933.09L950.59,933.11L955.61,929.54L969.61,935.42L970.92,946.18L977.26,947.16L980.43,955.64L987.04,958.9L991,976.83L979.87,991.16L987.55,990.52L990.2,994.1L998.94,995.41L1017.74,990.84L1031.52,996.04L1035.24,1004.51L1051.39,1000.25L1055.09,995.68L1070.72,995.31L1071.75,983.58L1076.24,981.28L1079.17,988.12L1079.21,1000.18L1091.7,1012.19L1105.76,1013.44L1108.39,1009.85L1119.79,1009.8L1123.26,1014.67L1129.09,1014.32L1138.12,1018.18L1145.54,1018.47L1149.48,1010.95L1160.61,1011.21L1167.97,1001.06L1179.58,994.79L1185.68,996.05L1197.94,1005.08L1202.67,1000.48L1207.99,1003.05L1208.05,1010.22L1200.69,1018.1L1199.4,1023.32L1204.51,1032.41L1216.95,1029.37L1216.21,1035.25L1230.59,1041.32L1231.43,1046.2L1239.48,1056.23L1246.97,1061.7L1252.8,1060.66L1260.31,1067.76L1256.4,1075.95L1253.83,1085.1L1249.08,1088.08L1239.2,1083.28L1231.93,1102.91L1218.66,1106.28L1214.46,1112.83L1206.49,1114.53L1203.12,1125.96L1196.22,1129.6L1187.16,1128.36L1181.87,1132.64L1172.55,1133.35L1168.32,1137.29L1171.29,1143.47L1158.55,1152.02L1148.44,1154.36L1159.14,1160.49L1160.52,1169.28L1155.74,1171.27L1154.68,1173.56L1154.71,1177.79L1140.04,1178.2L1133.63,1175.95L1123.16,1162.32L1117.29,1162.34L1107.67,1156.19L1099.41,1154.92L1094.58,1146.79L1093.2,1135.06L1086.84,1142.58L1095.68,1157.22L1096.8,1170.25L1101.65,1182.62L1097.12,1185.24L1086.69,1179.09L1090.41,1173.86L1068.79,1168.71L1062.13,1171.66L1066.18,1191.21L1070.21,1199.02L1061.15,1207.52L1053.4,1205.25L1055.02,1213.72L1049.97,1223.51L1048.12,1238.83L1055.6,1234.26L1062.29,1238.8L1057.25,1253.81L1044.68,1258.07L1039.33,1254.49L1040.39,1248.3L1031.55,1242.44L1021.12,1242.78L1018.71,1233.33L1031.54,1233.32L1024.31,1218.33L1016.3,1225.51L1016.04,1230.72L1010.16,1234.64L1002.14,1221.93L988.51,1224.21L990.38,1238.22L979.15,1233.98L965.78,1234.94L962.05,1227.77L951.1,1226.77L944.43,1217.63L949.78,1213.73L946.86,1205.9L949.81,1198.09L946.89,1191.56L938.88,1193.5L941.27,1200.35L931.36,1210.76L928.97,1205.53L922.29,1209.1L914.54,1208.75L908.64,1216.55L900.61,1221.09L893.4,1219.76L883.5,1224.28L878.16,1221.64L872.86,1212.82Z" fill-rule="evenodd" fill="#4682b4" fill-opacity="0.471"/>
<polyline points="872.86,1212.82 877.7,1206.97 879.34,1197.53 873.79,1185.77 868.2,1183.79 854.94,1168.72 854.2,1159.59 836.44,1143.19 835.22,1126.23 829.16,1115.76 824.46,1102.37 835.41,1094.94 833.36,1083.52 840.88,1071.19 847.01,1067.31 849.19,1057.55 842.56,1056.53 840.23,1047.39 843.96,1043.83 844.24,1041.87 842.66,1040.56 837.67,1032.05 827.13,1021.23 833.82,1012.15 834.13,1005.31 838.65,1001.75 836.32,993.59 841.41,984.82 843.05,975.38 847.31,971.82 847.67,955.85 862.81,943.55 870.55,928.6 873.18,930.57 885.36,924.11 895.15,920.89 897.55,913.73 906.82,906.92 908.91,914.42 915.51,912.82 919.44,921.95 930.26,926.55 940.02,933.09 950.59,933.11 955.61,929.54 969.61,935.42 970.92,946.18 977.26,947.16 980.43,955.64 987.04,958.9 991,976.83 979.87,991.16 987.55,990.52 990.2,994.1 998.94,995.41 1017.74,990.84 1031.52,996.04 1035.24,1004.51 1051.39,1000.25 1055.09,995.68 1070.72,995.31 1071.75,983.58 1076.24,981.28 1079.17,988.12 1079.21,1000.18 1091.7,1012.19 1105.76,1013.44 1108.39,1009.85 1119.79,1009.8 1123.26,1014.67 1129.09,1014.32 1138.12,1018.18 1145.54,1018.47 1149.48,1010.95 1160.61,1011.21 1167.97,1001.06 1179.58,994.79 1185.68,996.05 1197.94,1005.08 1202.67,1000.48 1207.99,1003.05 1208.05,1010.22 1200.69,1018.1 1199.4,1023.32 1204.51,1032.41 1216.95,1029.37 1216.21,1035.25 1230.59,1041.32 1231.43,1046.2 1239.48,1056.23 1246.97,1061.7 1252.8,1060.66 1260.31,1067.76 1256.4,1075.95 1253.83,1085.1 1249.08,1088.08 1239.2,1083.28 1231.93,1102.91 1218.66,1106.28 1214.46,1112.83 1206.49,1114.53 1203.12,1125.96 1196.22,1129.6 1187.16,1128.36 1181.87,1132.64 1172.55,1133.35 1168.32,1137.29 1171.29,1143.47 1158.55,1152.02 1148.44,1154.36 1159.14,1160.49 1160.52,1169.28 1155.74,1171.27 1154.68,1173.56 1154.71,1177.79 1140.04,1178.2 1133.63,1175.95 1123.16,1162.32 1117.29,1162.34 1107.67,1156.19 1099.41,1154.92 1094.58,1146.79 1093.2,1135.06 1086.84,1142.58 1095.68,1157.22 1096.8,1170.25 1101.65,1182.62 1097.12,1185.24 1086.69,1179.09 1090.41,1173.86 1068.79,1168.71 1062.13,1171.66 1066.18,1191.21 1070.21,1199.02 1061.15,1207.52 1053.4,1205.25 1055.02,1213.72 1049.97,1223.51 1048.12,1238.83 1055.6,1234.26 1062.29,1238.8 1057.25,1253.81 1044.68,1258.07 1039.33,1254.49 1040.39,1248.3 1031.55,1242.44 1021.12,1242.78 1018.71,1233.33 1031.54,1233.32 1024.31,1218.33 1016.3,1225.51 1016.04,1230.72 1010.16,1234.64 1002.14,1221.93 988.51,1224.21 990.38,1238.22 979.15,1233.98 965.78,1234.94 962.05,1227.77 951.1,1226.77 944.43,1217.63 949.78,1213.73 946.86,1205.9 949.81,1198.09 946.89,1191.56 938.88,1193.5 941.27,1200.35 931.36,1210.76 928.97,1205.53 922.29,1209.1 914.54,1208.75 908.64,1216.55 900.61,1221.09 893.4,1219.76 883.5,1224.28 878.16,1221.64 872.86,1212.82" fill="none" stroke="#1e1e1e" stroke-width="1.45" stroke-linecap="round" stroke-linejoin="round"/>
<path d="M640.1,1714.13L637.22,1725.83L630.38,1728.35L621.12,1747.14L615.85,1753.26L601.68,1752.73L592.27,1762.05L565.21,1765.21L558.53,1772.93L549.27,1772.13L517.78,1777.77L512.69,1772.79L506.38,1774.63L500.71,1771.26L489.98,1775.63L476.94,1772.76L463.01,1786.84L453.18,1773.27L439.43,1765.15L433.66,1754.26L434.22,1740.89L440.1,1733.18L458.64,1719.54L462.41,1708.19L474.22,1703.21L496.21,1691.56L502.17,1692.98L513.94,1689.28L523.86,1682.61L531.46,1683.4L551.65,1679.51L568.34,1673.26L572.93,1675.29L587.41,1670.63L601.85,1668.56L612.97,1670.03L617.49,1676.95L634.56,1681.76L639.64,1688.02L637.07,1697.12L645.42,1703.11L640.1,1714.13Z" fill-rule="evenodd" fill="#4682b4" fill-opacity="0.471"/>
<polyline points="640.1,1714.13 637.22,1725.83 630.38,1728.35 621.12,1747.14 615.85,1753.26 601.68,1752.73 592.27,1762.05 565.21,1765.21 558.53,1772.93 549.27,1772.13 517.78,1777.77 512.69,1772.79 506.38,1774.63 500.71,1771.26 489.98,1775.63 476.94,1772.76 463.01,1786.84 453.18,1773.27 439.43,1765.15 433.66,1754.26 434.22,1740.89 440.1,1733.18 458.64,1719.54 462.41,1708.19 474.22,1703.21 496.21,1691.56 502.17,1692.98 513.94,1689.28 523.86,1682.61 531.46,1683.4 551.65,1679.51 568.34,1673.26 572.93,1675.29 587.41,1670.63 601.85,1668.56 612.97,1670.03 617.49,1676.95 634.56,1681.76 639.64,1688.02 637.07,1697.12 645.42,1703.11 640.1,1714.13" fill="none" stroke="#1e1e1e" stroke-width="1.45" stroke-linecap="round" stroke-linejoin="round"/>
<path d="M751.18,651.66L756.91,654.32L749.44,669.89L760,686.62L766.75,692.87L774.07,694.24L776.63,700.46L783.13,706.38L783.32,715.18L779.38,716.45L775.2,714.14L768.77,729.72L761.08,739.11L749.52,741.28L735.12,739.18L728.11,731.93L726.97,716.6L722,715.24L726.76,686.94L717.17,678.68L716.59,660.1L719.27,653.61L711.78,645.7L718.41,637.3L727.54,638.7L743.61,651.26L751.18,651.66Z" fill-rule="evenodd" fill="#4682b4" fill-opacity="0.471"/>
<polyline points="751.18,651.66 756.91,654.32 749.44,669.89 760,686.62 766.75,692.87 774.07,694.24 776.63,700.46 783.13,706.38 783.32,715.18 779.38,716.45 775.2,714.14 768.77,729.72 761.08,739.11 749.52,741.28 735.12,739.18 728.11,731.93 726.97,716.6 722,715.24 726.76,686.94 717.17,678.68 716.59,660.1 719.27,653.61 711.78,645.7 718.41,637.3 727.54,638.7 743.61,651.26 751.18,651.66" fill="none" stroke="#1e1e1e" stroke-width="1.45" stroke-linecap="round" stroke-linejoin="round"/>
<text x="1046.57" y="772.3" font-family="sans-serif" font-size="14" stroke="#ffffff" stroke-opacity="0.784" stroke-width="2.33" stroke-linejoin="round" paint-order="stroke" fill="#141414">Gyeongsangbuk-do</text>
<text x="960.97" y="321.59" font-family="sans-serif" font-size="14" stroke="#ffffff" stroke-opacity="0.784" stroke-width="2.33" stroke-linejoin="round" paint-order="stroke" fill="#141414">Gangwon-do</text>
<text x="598.74" y="1227.86" font-family="sans-serif" font-size="14" stroke="#ffffff" stroke-opacity="0.784" stroke-width="2.33" stroke-linejoin="round" paint-order="stroke" fill="#141414">Jeollanam-do</text>
<text x="668.3" y="385.08" font-family="sans-serif" font-size="14" stroke="#ffffff" stroke-opacity="0.784" stroke-width="2.33" stroke-linejoin="round" paint-order="stroke" fill="#141414">Gyeonggi-do</text>
<text x="917.16" y="1090.88" font-family="sans-serif" font-size="14" stroke="#ffffff" stroke-opacity="0.784" stroke-width="2.33" stroke-linejoin="round" paint-order="stroke" fill="#141414">Gyeongsangnam-do</text>
<text x="544.55" y="708.98" font-family="sans-serif" font-size="14" stroke="#ffffff" stroke-opacity="0.784" stroke-width="2.33" stroke-linejoin="round" paint-order="stroke" fill="#141414">Chungcheongnam-do</text>
<text x="653.46" y="975.46" font-family="sans-serif" font-size="14" stroke="#ffffff" stroke-opacity="0.784" stroke-width="2.33" stroke-linejoin="round" paint-order="stroke" fill="#141414">Jeollabuk-do</text>
<text x="802.37" y="643.73" font-family="sans-serif" font-size="14" stroke="#ffffff" stroke-opacity="0.784" stroke-width="2.33" stroke-linejoin="round" paint-order="stroke" fill="#141414">Chungcheongbuk-do</text>
<text x="508.42" y="1733.49" font-family="sans-serif" font-size="14" stroke="#ffffff" stroke-opacity="0.784" stroke-width="2.33" stroke-linejoin="round" paint-order="stroke" fill="#141414">Jeju-do</text>
<text x="1242.31" y="1029.2" font-family="sans-serif" font-size="14" stroke="#ffffff" stroke-opacity="0.784" stroke-width="2.33" stroke-linejoin="round" paint-order="stroke" fill="#141414">Ulsan</text>
<text x="562.42" y="394.13" font-family="sans-serif" font-size="14" stroke="#ffffff" stroke-opacity="0.784" stroke-width="2.33" stroke-linejoin="round" paint-order="stroke" fill="#141414">Incheon</text>
<text x="1059.78" y="939.77" font-family="sans-serif" font-size="14" stroke="#ffffff" stroke-opacity="0.784" stroke-width="2.33" stroke-linejoin="round" paint-order="stroke" fill="#141414">Daegu</text>
<text x="1194.88" y="1141.55" font-family="sans-serif" font-size="14" stroke="#ffffff" stroke-opacity="0.784" stroke-width="2.33" stroke-linejoin="round" paint-order="stroke" fill="#141414">Busan</text>
<text x="743.31" y="773.82" font-family="sans-serif" font-size="14" stroke="#ffffff" stroke-opacity="0.784" stroke-width="2.33" stroke-linejoin="round" paint-order="stroke" fill="#141414">Daejeon</text>
<text x="590.71" y="1157.37" font-family="sans-serif" font-size="14" stroke="#ffffff" stroke-opacity="0.784" stroke-width="2.33" stroke-linejoin="round" paint-order="stroke" fill="#141414">Gwangju</text>
</svg>
