<?xml version="1.0" encoding="UTF-8" standalone="no"?>
<svg xmlns="http://www.w3.org/2000/svg" width="2000" height="1407" viewBox="0 0 2000 1407">
<rect width="2000" height="1407" fill="#ffffff"/>
<path d="M28.35,499.55L32.21,492.02L42.21,491.22L49.49,484.37L51.89,479.97L56.78,476.25L54.85,469.74L54.74,466.73L57.81,459.51L59.17,451.62L58.41,450.34L55.27,451.25L54.2,450.12L54.97,440.02L52.84,435.87L53.34,433.98L57.96,427.41L64.38,414.38L120.95,415.95L123.88,417.89L124.05,417.26L127.33,416.51L129.09,413.06L130.51,411.97L129.64,407.06L130.59,405.96L136.53,404.93L137.75,406.37L141.03,406.26L144.64,404.41L146.72,400.16L148.3,398.76L149.07,399.09L148.92,398.45L149.85,398.94L153.61,397.88L156.09,398.7L157.67,397.3L158.59,397.95L160.94,397.5L162.04,396.25L164.7,395.49L167.04,395.37L167.34,396.32L169.35,397.45L171.85,397.01L171.99,398.12L175.58,398.16L178.73,395.04L179.51,395.68L179.7,393L184.68,393.06L188.14,390.41L189.54,390.9L189.7,390.12L190.78,391.08L191.57,390.61L191.56,391.25L193.59,391.27L194.04,392.23L194.67,391.76L195.56,395.09L198.2,396.07L198.69,394.5L200.55,395.15L202.91,393.76L205.23,394.89L205.22,395.68L207.41,394.76L209.42,396.37L211.61,395.76L214.4,397.06L220.35,394.44L220.69,392.39L221.78,392.56L223.83,390.21L228.14,395.01L230.01,394.87L232.16,396.96L238.23,397.66L238.44,393.55L242.18,393.59L242.48,394.23L245.45,393.63L245.93,392.69L246.55,393.17L247.02,392.86L246.4,392.22L248.9,391.77L248.13,391.13L249.24,389.41L251.72,390.07L251.27,389.11L252.84,388.02L252.69,387.07L254.23,388.51L254.71,387.89L253.79,386.93L255.34,386.94L256.61,385.06L259.26,385.09L258.65,384.14L259.58,383.99L259.45,382.41L260.84,382.9L261.47,382.27L260.08,381.31L262.43,380.54L264.6,381.67L265.38,380.89L265.39,380.26L263.68,380.4L263.37,379.76L264.96,377.09L264.35,375.98L266.07,375.68L265.64,371.88L267.21,370.95L267.06,370L268.15,370.8L268.16,369.22L269.4,370.34L270.96,369.88L271.44,368.78L269.9,367.5L270.08,364.81L271.48,364.83L271.66,363.41L272.74,363.89L273.99,363.27L274.01,361.69L275.56,362.5L274.8,360.75L275.74,359.97L273.86,360.9L274.66,359.17L272.94,359.62L274.05,357.74L273.13,356.62L274.24,355.53L277.19,355.56L275.99,351.91L277.84,353.67L278.32,352.09L279.56,352.58L279.26,351.47L280.19,351.95L280.67,351.33L279.6,349.42L280.71,347.21L279.47,347.2L279.96,345.15L279.04,343.56L277.18,342.43L277.51,341.33L276.89,340.84L274.55,341.29L275.02,340.67L273.79,339.54L273.16,339.85L273.33,338.75L277.25,336.58L275.08,335.45L276.82,333.41L276.52,332.14L277.77,331.84L276.08,330.08L277.33,329.46L277.34,328.35L278.59,328.05L277.51,327.25L278.29,326.47L277.54,324.72L279.26,323.94L278.5,322.35L279.43,322.52L279.91,321.26L281.47,321.28L281.82,317.33L284.02,315.14L285.73,315.32L287.74,317.24L288.08,314.08L290.11,313.62L291.21,312.21L291.83,312.53L291.66,313.8L293.68,314.77L295.09,313.2L295.7,314.47L297.1,314.96L296.51,312.27L298.52,312.76L298.86,310.24L299.31,311.98L300.89,310.1L301.97,310.74L301.21,309.31L302.3,308.53L303.86,308.87L304.46,310.3L306.34,309.37L305.54,311.26L307.41,310.96L307.4,312.38L308.66,310.97L311.29,311.95L311.13,312.9L311.93,310.85L311.64,308.63L313.81,309.61L315.68,309.47L315.84,308.68L318.94,309.82L318.65,307.92L320.05,308.09L321.47,305.89L323.64,307.18L323.81,305.91L325.99,305.3L326.76,306.58L325.51,307.2L327.22,307.06L329.74,304.08L330.49,306.77L331.75,305.36L333.3,305.85L333.63,303.8L334.87,305.08L335.49,304.61L337.51,305.26L337.53,303.52L338.15,303.21L338.44,305.75L339.83,306.71L341.23,306.25L342.16,306.89L342.34,304.2L346.21,306.62L347.64,303.31L349.96,304.91L351.07,303.03L352.62,303.83L352.45,305.1L355.29,301.49L356.2,303.39L357.14,303.09L357.15,302.14L358.06,304.52L358.69,303.89L358.23,302.78L359.48,301.84L359.78,303.27L362.91,301.72L364.3,302.52L367.58,301.76L368.19,303.19L369.28,303.05L370.53,301.95L369.92,300.36L370.72,298.95L372.27,298.8L372.28,297.7L373.21,298.65L372.88,300.87L376.59,302.48L376.61,300.9L378.01,301.23L380.04,299.83L381.13,299.68L382.83,301.12L385.19,298.93L386.12,299.41L387.38,296.89L388.29,299.75L390.63,299.45L390.48,298.19L391.09,299.93L392.96,299.95L392.95,300.58L394.52,299.33L393.59,298.37L395.46,298.86L396.53,301.09L396.85,299.51L398.55,300.48L398.87,299.69L399.96,299.86L400.56,302.55L402.28,301.78L401.95,303.35L402.73,303.2L402.87,304.47L403.66,304L403.2,302.73L406.32,302.29L406.93,303.08L407.1,302.29L408.03,302.62L408.35,301.51L409.73,302.95L408.61,306.42L409.08,306.9L410.32,307.07L410.48,306.44L412.49,307.72L412.82,305.83L413.6,305.52L413.62,338.26L420.3,340.06L424.17,342L430.05,346.95L433.28,350.93L436.18,357.6L442.18,366.83L457.18,380.08L471.47,423.21L477.33,431.32L484.78,436.13L508.74,442.95L532.87,448.35L540.21,447.13L554.9,442.02L583.04,430.66L601.46,427.14L657.27,427.77L696.23,430.65L707.45,430.86L720.55,429.81L708.97,404.46L709.56,342.15L891.25,342.71L891.12,420.68L894.09,415.46L895.65,413.73L896.9,413.57L898.46,410.73L901.89,411.68L902.83,411.21L901.89,410.57L902.21,409.15L904.07,411.05L905.63,410.26L905.48,409.47L906.88,410.58L907.5,409.47L908.44,410.74L909.37,408.69L974.99,408.74L974.85,356.24L1037.74,323.65L1046.93,323.64L1129.52,375.41L1176.98,414.52L1178.38,412.46L1177.59,408.51L1230.89,408.34L1248.02,406.38L1252.22,404.31L1259.68,397.79L1316.84,328.43L1323.66,322.7L1333.24,308.41L1356.19,265.41L1380.99,251.51L1421.61,209.63L1430.57,202.77L1418.16,181L1417.63,97.87L1371.8,59.33L1472.41,58.67L1473.93,54.54L1474.35,48.68L1473.07,43.62L1473.65,38.38L1470.94,27.78L1471.97,20.17L1469.91,13.53L1556.99,15.53L1556.69,17.44L1552.53,20.01L1550.85,23.03L1551.34,25.09L1539.94,89.99L1533.84,139.62L1544.2,171.84L1555.3,235.85L1551.48,243.8L1593.81,264.79L1602.93,275.94L1617.59,296.37L1638.91,312.93L1654.74,338.88L1665.05,342.73L1664.62,345.74L1665.29,351.27L1669.24,356.29L1668.65,359.46L1669.95,364.82L1667.99,371.33L1668.68,377.8L1665.96,385.74L1664.64,393.5L1664.97,396.03L1660.67,401.61L1657.25,403.07L1655.44,408.62L1653.96,416.54L1651.75,445.03L1687.46,444.66L1694.32,518.42L1695.04,585.6L1693.8,587.03L1692.71,587.04L1692.26,588.94L1690.86,589.75L1688.09,593.89L1685.59,593.91L1684.2,595.51L1679.38,598.09L1676.17,604.6L1674.13,604.62L1673.03,603.53L1670.07,604.51L1668.5,604.05L1668.01,602.32L1665.68,603.92L1663.49,602.99L1661.62,603.65L1660.85,605.08L1658.03,604.95L1656.32,605.75L1653.08,610.05L1653.11,612.74L1654.37,613.52L1653.14,615.27L1653.15,617.01L1651.43,616.55L1648.31,617.21L1647.85,618.17L1646.9,617.54L1645.67,619.29L1644.26,618.99L1643.94,618.05L1642.69,618.69L1643.01,619.48L1640.98,619.5L1639.59,621.09L1639.76,622.2L1636.34,624.13L1633.5,622.42L1630.08,624.19L1628.04,623.89L1626.94,622.48L1625.85,622.81L1623.95,621.09L1624.09,619.5L1622.36,617.62L1622.5,616.2L1621.55,614.94L1622.32,613.36L1621.83,611.94L1619.48,611.49L1617.12,609.45L1612.88,607.91L1610.25,610.63L1609.64,612.53L1608.7,611.59L1606.51,611.92L1605.1,611.31L1603.5,607.68L1601.01,608.81L1599.91,608.19L1597.73,608.69L1595.22,607.92L1593.96,606.67L1592.71,607.15L1592.42,609.52L1590.86,610.65L1588.36,610.51L1585.72,612.59L1582.27,611.2L1579.32,613.12L1578.24,615.5L1574.32,613.64L1573.84,612.38L1568.68,612.11L1566.64,611.18L1564.74,608.98L1562.28,613.27L1561.18,613.44L1560.07,610.76L1558.49,609.82L1558.19,610.93L1554.14,612.55L1555.24,613.49L1552.92,615.88L1550.4,614.32L1549.63,615.59L1550.13,618.75L1546.06,618.78L1545.76,619.73L1546.55,620.67L1545.46,622.1L1546.76,627.62L1550.35,626.33L1550.21,629.02L1548.2,630.77L1547.56,630.15L1546.32,630.47L1547.91,633.78L1546.83,636L1543.39,635.56L1542.92,636.19L1543.72,637.92L1543.11,639.98L1543.92,642.98L1547.52,643.9L1548.47,645L1547.57,648.96L1543.2,651.05L1542.43,652.16L1544.16,653.09L1544.49,655.78L1546.06,656.4L1545.14,657.67L1546.73,661.45L1546.59,662.87L1543.14,662.74L1541.6,665.6L1539.72,664.83L1535.5,665.65L1535.05,668.03L1535.72,673.08L1534.94,673.56L1532.73,671.21L1530.23,671.38L1530.25,673.75L1529,674.4L1529.49,676.45L1528.73,679.93L1527.32,679.78L1522.96,681.87L1522.69,688.36L1516.46,691.88L1517.73,694.56L1516.81,696.62L1519.34,699.92L1519.04,700.87L1517.63,700.72L1516.86,703.26L1517.51,705.47L1524.46,713.16L1524.01,716.32L1526.35,715.35L1526.99,716.45L1528.08,716.29L1527.92,715.66L1530.11,715.64L1531.36,714.36L1532.15,716.1L1533.4,715.45L1533.57,716.88L1532.64,717.51L1533.89,717.98L1533.73,717.35L1534.98,717.34L1534.82,716.71L1536.54,716.38L1537.17,717.16L1537.95,716.21L1538.43,716.99L1540.61,716.03L1541.24,716.5L1542,714.12L1543.73,715.05L1543.27,715.85L1542.64,715.54L1542.65,716.33L1543.9,716.16L1544.05,715.37L1545.31,716.62L1546.09,716.3L1546.26,717.56L1546.72,716.45L1547.51,717.39L1548.13,716.91L1548.77,718.65L1550.02,718.16L1549.56,719.11L1550.5,718.63L1552.23,719.72L1553.46,717.5L1555.04,718.59L1555.66,717.96L1555.51,718.91L1556.45,719.21L1556.94,720.95L1557.09,720.31L1558.97,721.09L1558.98,721.88L1560.23,721.71L1560.4,722.82L1561.17,722.02L1561.66,723.75L1563.53,722.79L1562.76,724.22L1563.55,725L1563.38,723.9L1564.48,723.73L1564.66,726.41L1564.97,725.78L1566.07,726.24L1566.53,725.29L1567.03,728.76L1567.66,729.07L1567.65,728.44L1569.53,727.95L1570.32,729.21L1570.78,728.26L1570.15,727.79L1570.93,727.78L1572.01,725.72L1574.06,727.12L1574.2,725.22L1576.39,725.05L1576.69,723.46L1578.42,723.92L1578.59,725.34L1579.84,725.33L1580.14,724.07L1582.65,724.2L1584.2,722.13L1584.03,721.03L1585.13,721.33L1585.77,722.59L1586.86,722.27L1587.34,722.9L1586.4,722.75L1586.4,723.38L1588.13,724.15L1588.12,722.89L1588.75,723.36L1589.68,722.72L1589.36,721.77L1592.5,722.69L1592.83,724.43L1593.78,724.89L1595.02,723.62L1595.66,725.35L1595.96,724.4L1597.07,725.02L1597.84,724.22L1597.85,725.49L1599.26,725.63L1598.66,727.85L1600.22,727.52L1601.64,729.09L1601.34,730.36L1603.08,731.45L1603.07,730.5L1604.16,730.01L1608.25,731.71L1608.71,731.08L1611.53,731.53L1614.81,730.55L1617.02,731.63L1617.64,730.84L1621.41,732.06L1623.47,734.42L1624.88,734.4L1624.88,735.35L1626.45,735.34L1627.09,736.28L1629.27,735.62L1629.44,736.57L1631.01,737.03L1632.44,739.23L1633.1,742.07L1635.13,741.89L1636.88,744.56L1639.08,745.01L1640.35,747.53L1643.35,749.71L1645.72,751.27L1652.3,751.52L1653.89,753.72L1657.98,754.94L1659.25,756.98L1658.33,759.05L1663.08,763.74L1662.47,765.17L1664.66,764.99L1665.61,765.93L1667.33,765.91L1667.68,769.23L1668.62,768.9L1670.82,769.99L1674.78,773.74L1675.31,779.42L1680.05,783.64L1679,787.92L1680.81,796.28L1678.32,798.2L1676.28,797.27L1677.57,800.74L1679.93,801.66L1679.46,802.14L1680.89,803.87L1680.59,804.66L1682.3,804.17L1684.36,806.04L1684.99,805.88L1684.66,804.77L1686.08,805.39L1687.99,808.22L1689.57,808.67L1689.58,809.62L1690.35,809.14L1689.74,810.73L1691.02,812.93L1694.64,813.52L1696.7,815.71L1696.71,816.66L1699.68,816.31L1702.37,818.34L1704.42,818.79L1705.22,820.52L1704.28,821.16L1704.62,823.06L1705.89,824.31L1704.79,824.95L1704.19,827.01L1705.78,828.73L1705,829.06L1705.78,829.37L1705.01,830.64L1705.66,832.06L1704.88,832.85L1708.66,834.39L1709.44,833.44L1708.98,834.71L1710.09,835.96L1709.16,836.92L1710.26,836.75L1710.58,837.69L1711.36,837.68L1711.22,838.95L1712.01,839.26L1715.13,837.64L1716.24,838.9L1718.12,838.88L1716.72,840L1717.98,839.98L1718.31,841.4L1719.4,840.76L1720.21,842.8L1720.67,842.33L1722.72,842.94L1722.09,843.1L1721.96,845.16L1721.32,844.22L1720.54,845.01L1721.49,845.32L1721.05,847.85L1721.99,848.16L1722.29,847.05L1723.56,848.46L1723.71,847.19L1724.67,849.24L1726.08,849.06L1725.94,850.8L1727.21,851.74L1728.31,851.88L1728.61,850.46L1729.25,851.72L1730.03,851.39L1731.14,852.48L1732.39,851.84L1733.34,853.09L1735.23,853.23L1734.9,852.13L1736.77,851L1737.41,851.94L1738.03,851.46L1740.08,852.38L1740.23,851.43L1741.5,852.68L1742.12,851.89L1741.66,853.32L1742.92,853.78L1742.6,852.83L1743.39,853.14L1743.69,852.19L1745.1,852.01L1746.21,853.26L1745.42,852.48L1746.66,851.36L1747.31,853.25L1748.25,853.08L1748.71,851.97L1749.19,852.44L1748.41,853.55L1750.46,854.16L1751.43,856.37L1753.65,858.08L1754.74,857.43L1754.43,858.23L1756.02,859.95L1755.24,860.12L1755.26,861.7L1756.66,860.89L1757.76,861.19L1758.25,862.45L1757.16,863.26L1758.9,864.66L1758.12,864.98L1758.45,866.4L1759.39,866.23L1759.08,866.87L1760.19,867.65L1759.1,868.45L1759.58,868.92L1758.81,870.19L1760.23,870.81L1758.97,871.14L1758.52,872.25L1759.48,873.66L1758.85,873.83L1759.49,874.77L1758.87,875.25L1759.83,877.45L1758.42,877.78L1758.6,879.36L1760.63,878.55L1760.48,879.5L1761.59,879.65L1762.23,880.74L1763.95,880.25L1764.59,881.19L1767.73,881.94L1770.55,881.12L1772.3,882.68L1772.92,882.52L1773.36,879.51L1775.72,879.95L1777.61,881.04L1779.06,884.02L1780.48,884.17L1781.6,886.21L1783.8,886.5L1787.13,888.67L1786.2,890.11L1787.65,893.41L1789.39,894.34L1789.56,895.44L1791.61,895.73L1793.05,898.4L1795.75,900.42L1796.09,902.79L1797.33,901.35L1799.24,903.39L1802.35,900.98L1807.54,901.55L1809.09,900.26L1811.29,899.92L1812.24,901.01L1813.34,900.53L1815.24,901.61L1814.16,903.68L1815.28,904.93L1818.41,904.57L1818.89,904.88L1818.12,905.84L1819.07,907.09L1821.13,908.49L1823.01,908.15L1823.97,909.56L1823.84,911.3L1825.26,911.92L1824.8,913.19L1826.55,914.27L1826.26,916.65L1828.14,916.15L1829.57,917.4L1829.91,919.45L1834.17,921.13L1836.27,925.38L1836.29,927.43L1834.75,929.19L1834.94,931.72L1833.85,933L1832.28,933.33L1831.37,935.24L1831.89,939.03L1832.51,939.02L1833.17,940.91L1831.45,942.2L1831.35,946.31L1828.39,948.56L1828.1,950.78L1827.01,951.58L1827.54,955.53L1825.36,957.45L1827.58,959.01L1827.62,962.48L1828.89,963.26L1829.41,966.73L1830.04,967.04L1829.74,968.62L1828.64,968.64L1828.69,972.43L1827.78,974.82L1828.42,975.76L1827.64,976.4L1829.25,979.07L1829.13,982.07L1829.45,982.54L1830.85,981.74L1832.14,983.77L1833.55,983.44L1834.19,984.22L1832.69,990.41L1834.77,992.91L1835.11,994.97L1832.39,1003.7L1835.6,1009.19L1835.62,1010.77L1834.7,1012.52L1833.6,1012.54L1840.48,1021.78L1854.79,1045.48L1854.29,1055.45L1884.31,1074.99L1883.08,1077.22L1883.44,1080.38L1882.69,1083.39L1880.99,1086.11L1881.21,1090.69L1880.47,1094.02L1882.58,1098.43L1883.52,1098.25L1884.95,1099.5L1884.81,1100.77L1894.84,1096.68L1896.26,1096.98L1896.41,1096.34L1899.71,1095.82L1905.63,1091.31L1906.74,1091.29L1909.37,1088.09L1910.16,1088.4L1911.88,1087.11L1913.3,1087.41L1915.17,1086.27L1916.44,1087.05L1920.21,1086.36L1920.7,1087.3L1923.86,1088.05L1926.99,1086.9L1929.4,1090.03L1932.07,1089.2L1932.59,1092.67L1937.44,1090.71L1939.03,1091.95L1941.08,1091.92L1942.01,1090.96L1943.44,1091.57L1944.06,1090.93L1947.84,1090.87L1947.85,1091.82L1948.96,1091.81L1948.97,1093.07L1949.76,1092.9L1949.61,1093.7L1950.86,1092.73L1951.34,1093.51L1954.03,1094.11L1953.25,1094.75L1954.04,1095.06L1953.74,1095.85L1956.6,1097.55L1956.89,1095.97L1959.44,1097.67L1963.06,1097.93L1964.5,1099.49L1967.34,1099.45L1967.83,1101.03L1970.68,1101.78L1971.33,1103.35L1971.2,1104.93L1970.11,1105.9L1970.44,1106.68L1969.49,1106.54L1965.77,1110.87L1965.34,1113.25L1968.88,1118.57L1969.99,1118.87L1970.18,1121.25L1971.79,1123.44L1970.29,1128.84L1969.35,1128.85L1969.05,1130.44L1967.36,1133.15L1965.33,1134.61L1964.58,1136.83L1965.17,1188.42L1986.17,1210.75L1985.41,1212.66L1946.6,1213.39L1946.78,1203.88L1944.23,1202.18L1941.39,1201.75L1938.71,1201.94L1936.05,1203.72L1934.35,1206.44L1932.4,1213.59L1916.79,1213.96L1902.57,1189.78L1911.11,1168.77L1910.61,1166.4L1907.13,1165.66L1884.77,1168.34L1887.78,1157.54L1890.23,1152.44L1887.21,1150.11L1882.18,1151.28L1866.86,1160.98L1859.7,1156.01L1831.67,1171.09L1790.86,1186.94L1757.84,1196.51L1753.61,1199.09L1740.09,1217.13L1689.19,1268.82L1677.43,1277.5L1602.8,1354.58L1550.27,1350.75L1526.25,1332.73L1506.28,1345.24L1477.72,1353.06L1429.52,1356.88L1395.19,1380.23L1395.03,1381.18L1396.93,1381.49L1398.7,1386.23L1397.14,1388.77L1397.46,1389.88L1396.05,1392.59L1396.54,1394.33L1395.91,1395.28L1379.91,1390.94L1377.69,1391.11L1377.53,1390.32L1378.32,1390.63L1378.31,1388.73L1377.2,1388.89L1377.04,1387.94L1377.67,1386.67L1375.76,1385.73L1375.12,1384.15L1374.01,1384.15L1372.58,1381.63L1371.47,1382.43L1371.31,1381.48L1370.21,1382.59L1361.04,1383.59L1357.41,1384.88L1356.41,1375.85L1357.49,1371.41L1343.31,1351.2L1335.54,1345.38L1333.01,1344.92L1331.59,1345.4L1332.23,1348.72L1323.26,1355.9L1321.05,1356.38L1317.59,1360.99L1296.91,1367.75L1292.18,1371.89L1288.39,1373.49L1287.76,1374.76L1285.23,1373.82L1286.16,1368.74L1261.44,1356.65L1251.29,1349.71L1234.54,1350.09L1231.85,1350.73L1224.44,1356.62L1222.39,1357.26L1221.76,1358.53L1222.39,1358.85L1221.6,1359.48L1220.65,1358.85L1220.02,1359.65L1219.55,1358.54L1216.7,1358.39L1215.12,1359.98L1215.76,1360.45L1215.29,1362.2L1209.45,1366.18L1208.66,1366.34L1206.91,1364.13L1204.38,1364.45L1202.18,1366.04L1200.76,1369.22L1198.87,1370.33L1197.45,1373.03L1197.78,1375.88L1196.2,1377.95L1194.62,1378.27L1193.52,1381.28L1191.31,1382.4L1190.37,1385.73L1188.16,1388.27L1184.71,1397.95L1182.81,1398.75L1182.17,1394.63L1184.37,1389.39L1183.89,1385.75L1182.14,1383.85L1178.19,1383.86L1178.18,1382.44L1176.44,1382.92L1175.02,1382.29L1175.33,1381.17L1174.07,1380.7L1173.58,1377.69L1174.37,1376.42L1173.41,1373.57L1173.89,1372.46L1171.51,1370.41L1170.24,1368.03L1169.61,1369.3L1168.03,1369.47L1168.5,1370.73L1167.08,1372.32L1167.57,1375.49L1164.09,1374.71L1162.67,1377.56L1155.7,1374.41L1154.12,1375.05L1153.65,1376.32L1148.91,1378.23L1147.33,1379.98L1145.75,1380.45L1140.06,1379.36L1139.1,1378.09L1136.42,1377.94L1135.62,1376.99L1137.36,1374.61L1138.45,1370.01L1137.82,1366.68L1138.76,1364.46L1139.22,1358.92L1137.31,1350.84L1136.04,1347.51L1134.77,1347.2L1134.76,1342.61L1133.5,1343.08L1133.18,1342.29L1132.23,1343.09L1131.6,1340.87L1125.6,1343.89L1121.49,1344.37L1119.58,1341.68L1119.9,1340.42L1118.95,1339.94L1117.99,1336.62L1115.47,1339.32L1113.89,1338.68L1112.63,1339.32L1111.36,1338.21L1111.51,1336.63L1110.09,1335.05L1108.03,1335.05L1106.92,1333.15L1103.13,1331.73L1102.34,1329.99L1099.97,1331.1L1096.96,1329.68L1094.44,1331.59L1094.59,1327.94L1091.42,1324.94L1090.63,1325.1L1090.48,1326.52L1088.74,1326.21L1085.11,1328.59L1084.32,1327.32L1082.58,1328.59L1081.31,1327.96L1080.68,1324.95L1078.94,1323.37L1078.14,1320.99L1079.56,1318.14L1078.61,1314.5L1073.08,1310.23L1074.49,1307.37L1073.55,1306.43L1074.17,1302.94L1073.22,1299.14L1071.48,1300.41L1069.27,1300.73L1061.53,1297.73L1058.69,1297.89L1056.95,1296.94L1055.84,1294.41L1052.99,1292.19L1051.73,1289.5L1052.36,1287.92L1051.57,1284.91L1045.88,1283.96L1043.51,1284.75L1042.25,1282.54L1040.83,1282.38L1039.88,1279.69L1038.93,1279.53L1040.51,1276.52L1039.87,1275.73L1042.56,1272.24L1040.34,1268.92L1035.61,1266.07L1032.29,1262.91L1024.87,1263.86L1022.66,1264.97L1020.6,1261.65L1017.92,1260.7L1016.02,1258.95L1015.55,1248.66L1016.97,1245.5L1016.65,1242.33L1017.6,1239.01L1015.7,1237.74L1016.18,1235.36L1017.12,1234.89L1018.07,1232.67L1019.33,1232.36L1019.49,1230.46L1020.44,1230.3L1020.12,1229.35L1016.49,1228.4L1015.07,1229.19L1010.18,1225.08L1009.23,1226.82L1007.5,1227.93L1004.97,1224.44L1002.92,1223.81L1001.5,1222.07L1001.81,1220.33L997.87,1219.69L996.29,1218.11L993.93,1217.64L993.45,1215.74L991.24,1215.58L988.09,1213.68L984.62,1215.1L981.3,1212.88L978.78,1213.2L977.36,1211.62L974.05,1214.31L972,1212.56L971.68,1211.14L970.58,1210.82L970.42,1208.76L968.21,1207.66L966,1209.24L964.74,1212.4L963.48,1211.29L963,1212.4L964.42,1215.25L963.95,1216.99L964.74,1217.94L963.95,1218.73L965.05,1223.17L964.1,1225.07L960,1229.02L960.47,1234.25L957.94,1238.68L956.36,1239.31L953.52,1243.11L947.99,1243.58L946.88,1246.43L945.78,1247.06L944.51,1255.13L938.03,1257.34L936.62,1255.44L935.35,1256.39L932.51,1254.81L929.67,1257.18L930.61,1259.08L929.66,1261.77L925.87,1262.72L924.61,1263.98L921.61,1262.55L921.3,1260.02L916.72,1257L915.78,1255.58L914.36,1255.58L913.57,1253.36L911.2,1252.09L911.05,1249.56L902.05,1249.07L902.85,1245.11L898.74,1244.95L896.38,1243.2L896.54,1241.62L895.28,1240.19L893.07,1239.4L889.75,1239.55L888.49,1241.45L884.38,1242.07L882.33,1241.28L879.33,1242.38L878.07,1242.06L877.76,1241.11L875.7,1242.53L869.87,1239.99L866.39,1241.72L864.02,1241.88L862.29,1241.08L860.87,1239.18L859.61,1239.17L860.72,1235.69L860.1,1232.21L858.52,1231.42L858.52,1229.83L855.69,1228.56L852.84,1231.4L849.37,1231.55L848.42,1232.5L847,1231.55L845.1,1233.44L846.2,1234.55L844.62,1236.45L842.25,1236.76L841.62,1238.03L842.88,1240.4L840.82,1241.98L840.18,1245.15L837.33,1248.15L837.8,1249.57L833.22,1250.35L831.01,1251.62L827.06,1251.13L824.05,1256.98L817.89,1256.49L813.47,1257.74L812.83,1260.12L810.46,1261.22L811.25,1262.17L809.19,1264.54L809.18,1266.6L805.7,1269.28L804.75,1271.34L797.79,1273.22L794.95,1271.94L792.11,1272.56L790.85,1269.87L790.55,1266.07L787.57,1261.47L785.35,1261.78L784.41,1260.82L781.57,1260.5L775.88,1261.27L773.83,1260.47L772.09,1262.52L767.2,1261.56L764.36,1261.86L759.32,1256.14L753.81,1253.91L753.65,1252.48L755.56,1250.11L753.99,1247.42L752.56,1248.99L749.41,1246.77L747.51,1248.34L746.25,1248.18L746.24,1250.55L744.5,1251.34L743.1,1247.22L741.37,1245.31L739.79,1244.83L739.48,1243.24L737.75,1241.65L738.41,1234.37L739.69,1230.26L736.22,1230.72L734.64,1229.61L731.96,1229.6L731.65,1228.81L730.23,1229.27L729.76,1228.48L728.65,1229.43L725.18,1227.35L724.72,1225.77L723.93,1225.61L722.98,1226.55L722.33,1230.19L720.75,1230.98L720.43,1232.4L715.06,1232.06L709.56,1227.13L707.67,1226.65L706.58,1223.47L702.49,1221.4L698.86,1221.07L698.55,1219.96L699.67,1216.95L696.86,1209.18L695.13,1208.07L697.68,1202.54L696.74,1200.64L697.86,1198.43L696.13,1197.15L696.45,1195.73L697.56,1194.94L695.99,1194.14L696.47,1192.4L690.01,1190.47L688.9,1192.53L684.96,1191.56L684.49,1190.61L685.92,1187.92L685.61,1186.66L684.35,1185.86L684.84,1183.8L682.48,1181.89L682.17,1179.99L681.23,1179.83L680.76,1178.24L679.5,1178.08L678.72,1176.97L677.93,1177.28L676.68,1175.38L671.79,1175.98L666.74,1175.33L665.48,1176.59L662.95,1176.26L661.24,1173.24L658.56,1172.44L656.83,1170.84L654.94,1170.83L654.32,1168.46L655.29,1164.98L653.4,1163.23L651.51,1163.06L649.95,1160.68L648.06,1160.51L646.96,1158.61L645.24,1157.65L648.14,1145.16L644.99,1144.2L641.54,1140.7L640.76,1139.43L641.26,1135.79L640.47,1134.84L639.84,1135.31L637.65,1132.45L638.28,1131.82L637.82,1131.02L636.87,1131.65L635.77,1129.91L634.19,1130.53L631.52,1129.41L632.16,1127.2L630.91,1126.87L630.74,1127.82L629.64,1127.97L629.17,1126.55L624.93,1124.15L624.63,1121.3L622.91,1120.34L623.39,1118.29L622.3,1117.01L622.47,1114.01L621.22,1112.89L619.32,1113.52L618.69,1113.04L617.14,1109.71L617.62,1108.76L614.95,1107.32L614.02,1104.94L614.81,1103.05L614.37,1099.09L612.5,1095.6L613.3,1093.39L612.05,1090.38L613.35,1084.37L616.06,1077.75L620.5,1072.87L619.42,1069.22L620.39,1064.48L619.92,1063.69L615.84,1062.56L613.47,1063.34L612.69,1062.7L613.68,1054.95L611.17,1053.67L610.24,1051.45L610.89,1047.98L609.32,1047.34L606.97,1044.32L607,1040.84L601.18,1040.17L599.93,1038.27L600.58,1035.58L597.59,1034.77L594.78,1031.59L592.27,1030.31L586.12,1031.85L583.46,1030.41L580.8,1027.87L581.28,1026.45L580.51,1023.91L577.2,1024.84L576.42,1023.09L574.23,1021.82L571.24,1022.43L566.84,1021.29L565.26,1021.76L562.63,1014.94L558.22,1016.65L553.65,1017.09L550.05,1015.49L548.94,1015.95L547.1,1009.14L549.19,1002.99L547.78,1001.71L544.3,1005.01L541.5,999.93L537.43,996.9L536.18,996.57L535.69,998.78L533.64,1000.03L527.84,996.99L522.47,1000.27L519.82,997.72L516.36,997.69L513.39,994.67L508.67,995.27L505.84,994.61L505.87,991.45L502.89,989.69L503.24,984.95L501.36,983.67L500.6,981.29L493.19,984.08L491.28,986.91L489.06,988.47L488.61,986.57L490.54,980.9L496.7,977.47L497.97,975.58L499.7,975.43L500.65,974.49L502.74,968.5L501.98,964.22L501.37,962.64L500.58,962.47L497.89,964.98L492.55,965.1L495.61,955.32L494.99,953.73L491.69,953.39L490.13,952.12L488.71,952.74L487.31,950.83L485.89,951.61L481.03,950.46L478.06,948.54L476.68,944.26L471.82,942.17L470.11,940.26L468.54,940.56L466.05,936.75L466.87,932.64L466.76,926.95L464.88,926.3L464.42,924.88L464.91,922.35L468.37,921.9L470.43,920.18L469.19,918.59L471.4,917.19L471.1,915.29L472.21,914.03L474.73,913.1L474.11,911.83L474.61,907.88L478.38,907.76L479.19,905.07L478.42,903.33L482.51,901.94L483.76,902.42L483.46,900.52L484.44,896.11L480.06,894.49L479.29,891.95L477.41,892.1L475.53,891.13L473.49,891.59L471.01,887.15L468.03,886.96L460.63,889.27L459.39,888L459.72,885.95L458.47,884.36L458.33,882.46L456.3,881.02L452.84,881.62L448.31,879.53L447.38,877.62L448.49,876.21L446.61,876.51L446.14,875.88L446.97,870.67L444.31,870.17L443.06,868.74L439.44,870.13L438.35,869.33L436.62,869.95L434.76,867.24L433.03,866.91L431.66,862.63L432.49,856.63L429.2,856.44L428.44,853.12L426.56,853.26L425.94,852.46L425.96,850.73L428.31,850.11L428.81,847.75L426.94,846.15L427.43,843.78L426.35,840.93L423.4,838.22L418.53,838.33L417.76,836.59L418.4,835.17L417.63,834.21L409.16,833.82L409.03,831.13L404.48,830.46L404.34,828.72L405.45,827.78L403.44,825.08L399.21,823.46L397.96,823.76L391.23,821.96L393.46,818.5L393.16,816.45L386.74,816.07L385.33,815.11L382.2,814.92L382.07,812.23L378.94,811.73L375.95,812.49L373.62,809.78L366.11,808.45L364.72,806.22L363.46,806.68L360.49,805.39L357.35,805.99L356.6,802.82L354.88,801.86L352.83,802.94L352.39,799.62L350.83,799.13L348.79,799.9L347.41,796.25L343.5,795.74L342.38,797.78L340.82,796.34L338.3,797.42L336.76,794.88L334.88,795.18L335.69,792.81L335.07,791.86L333.51,791.05L331.93,791.83L331.95,790.4L329.31,787.37L326.98,786.09L325.25,786.54L324.45,787.64L323.84,786.21L320.87,785.07L318.41,780.62L318.13,777.3L316.74,775.86L316.93,772.55L314.27,771.41L311.91,772.18L311.47,769.96L309.15,767.25L308.69,765.51L305.42,763.73L301.19,764L298.24,761.28L297.13,762.7L294.63,761.4L294.83,757.93L293.44,755.7L294.08,754.13L292.57,749.69L290.85,748.88L290.4,747.13L292.12,746.99L293.56,744.64L296.07,744.51L297.36,741.36L300.17,742.18L300.64,741.55L300.04,739.65L300.67,738.87L303.48,740.16L305.54,738.13L309.47,736.75L307.93,734.2L310.43,734.23L311.07,732.81L310.78,731.23L308.75,730.73L308.31,728.04L307.06,727.4L308.33,726.15L307.89,723.3L309.16,721.1L309.35,718.57L308.43,716.03L309.1,712.4L308.48,711.92L306.74,713.01L306.12,712.53L304.89,710.78L305.21,709.52L303.5,708.71L303.36,706.81L299.65,702.66L298.89,700.6L296.54,700.73L291.75,695.15L284.69,695.86L283.59,696.8L282.02,696.46L277.63,697.68L271.92,690.03L259.15,684.36L254.69,677.19L251.1,676.2L249.86,675.08L244.54,661.74L242.44,653.5L238.7,652.83L233.72,649.92L231.68,651.16L227.92,651.28L223.58,647.91L215.92,647.66L212.03,646.03L206.87,645.65L192.92,647.85L191.84,646.73L188.25,645.74L187.02,643.83L184.21,643.16L181.63,637.28L178.03,637.71L170.68,636.98L167.07,638.52L165.95,640.56L164.53,640.86L159.26,637.31L153.95,637.09L145.68,635.08L139.62,632.16L136.53,629.59L133.3,625.28L131.02,620.19L131.19,619.08L133.95,611.69L134.66,604.75L137.67,602.26L140.39,597.23L145.15,592.08L151.46,587.74L151.32,586.31L146.37,582.3L145.3,580.23L149.63,572.22L148.72,570.15L145.76,569.48L141.05,571L135.91,569.35L132.3,571.05L129.48,571.32L117.31,569.74L112.18,568.09L108.1,569.14L102.98,566.38L98.15,565.53L90.32,567.16L82.24,563.88L75.51,564.26L72.99,565.96L68.13,567.32L62.69,564.71L58.62,565.76L52.58,561.88L45.22,562.88L40.63,566.92L35.02,565.89L33.79,564.76L33.54,560.33L31.24,557.14L31.76,554.14L33.22,549.9L37.8,546.96L44.52,535.99L45.17,534.26L45.35,522.09L43.67,519.54L41.64,519.51L37.48,526.4L35.91,527.01L32.01,526.32L26.14,522.13L24.19,517.04L26.29,512.17L28.35,499.55Z" fill-rule="evenodd" fill="#4682b4" fill-opacity="0.471"/>
<polyline points="28.35,499.55 32.21,492.02 42.21,491.22 49.49,484.37 51.89,479.97 56.78,476.25 54.85,469.74 54.74,466.73 57.81,459.51 59.17,451.62 58.41,450.34 55.27,451.25 54.2,450.12 54.97,440.02 52.84,435.87 53.34,433.98 57.96,427.41 64.38,414.38 120.95,415.95 123.88,417.89 124.05,417.26 127.33,416.51 129.09,413.06 130.51,411.97 129.64,407.06 130.59,405.96 136.53,404.93 137.75,406.37 141.03,406.26 144.64,404.41 146.72,400.16 148.3,398.76 149.07,399.09 148.92,398.45 149.85,398.94 153.61,397.88 156.09,398.7 157.67,397.3 158.59,397.95 160.94,397.5 162.04,396.25 164.7,395.49 167.04,395.37 167.34,396.32 169.35,397.45 171.85,397.01 171.99,398.12 175.58,398.16 178.73,395.04 179.51,395.68 179.7,393 184.68,393.06 188.14,390.41 189.54,390.9 189.7,390.12 190.78,391.08 191.57,390.61 191.56,391.25 193.59,391.27 194.04,392.23 194.67,391.76 195.56,395.09 198.2,396.07 198.69,394.5 200.55,395.15 202.91,393.76 205.23,394.89 205.22,395.68 207.41,394.76 209.42,396.37 211.61,395.76 214.4,397.06 220.35,394.44 220.69,392.39 221.78,392.56 223.83,390.21 228.14,395.01 230.01,394.87 232.16,396.96 238.23,397.66 238.44,393.55 242.18,393.59 242.48,394.23 245.45,393.63 245.93,392.69 246.55,393.17 247.02,392.86 246.4,392.22 248.9,391.77 248.13,391.13 249.24,389.41 251.72,390.07 251.27,389.11 252.84,388.02 252.69,387.07 254.23,388.51 254.71,387.89 253.79,386.93 255.34,386.94 256.61,385.06 259.26,385.09 258.65,384.14 259.58,383.99 259.45,382.41 260.84,382.9 261.47,382.27 260.08,381.31 262.43,380.54 264.6,381.67 265.38,380.89 265.39,380.26 263.68,380.4 263.37,379.76 264.96,377.09 264.35,375.98 266.07,375.68 265.64,371.88 267.21,370.95 267.06,370 268.15,370.8 268.16,369.22 269.4,370.34 270.96,369.88 271.44,368.78 269.9,367.5 270.08,364.81 271.48,364.83 271.66,363.41 272.74,363.89 273.99,363.27 274.01,361.69 275.56,362.5 274.8,360.75 275.74,359.97 273.86,360.9 274.66,359.17 272.94,359.62 274.05,357.74 273.13,356.62 274.24,355.53 277.19,355.56 275.99,351.91 277.84,353.67 278.32,352.09 279.56,352.58 279.26,351.47 280.19,351.95 280.67,351.33 279.6,349.42 280.71,347.21 279.47,347.2 279.96,345.15 279.04,343.56 277.18,342.43 277.51,341.33 276.89,340.84 274.55,341.29 275.02,340.67 273.79,339.54 273.16,339.85 273.33,338.75 277.25,336.58 275.08,335.45 276.82,333.41 276.52,332.14 277.77,331.84 276.08,330.08 277.33,329.46 277.34,328.35 278.59,328.05 277.51,327.25 278.29,326.47 277.54,324.72 279.26,323.94 278.5,322.35 279.43,322.52 279.91,321.26 281.47,321.28 281.82,317.33 284.02,315.14 285.73,315.32 287.74,317.24 288.08,314.08 290.11,313.62 291.21,312.21 291.83,312.53 291.66,313.8 293.68,314.77 295.09,313.2 295.7,314.47 297.1,314.96 296.51,312.27 298.52,312.76 298.86,310.24 299.31,311.98 300.89,310.1 301.97,310.74 301.21,309.31 302.3,308.53 303.86,308.87 304.46,310.3 306.34,309.37 305.54,311.26 307.41,310.96 307.4,312.38 308.66,310.97 311.29,311.95 311.13,312.9 311.93,310.85 311.64,308.63 313.81,309.61 315.68,309.47 315.84,308.68 318.94,309.82 318.65,307.92 320.05,308.09 321.47,305.89 323.64,307.18 323.81,305.91 325.99,305.3 326.76,306.58 325.51,307.2 327.22,307.06 329.74,304.08 330.49,306.77 331.75,305.36 333.3,305.85 333.63,303.8 334.87,305.08 335.49,304.61 337.51,305.26 337.53,303.52 338.15,303.21 338.44,305.75 339.83,306.71 341.23,306.25 342.16,306.89 342.34,304.2 346.21,306.62 347.64,303.31 349.96,304.91 351.07,303.03 352.62,303.83 352.45,305.1 355.29,301.49 356.2,303.39 357.14,303.09 357.15,302.14 358.06,304.52 358.69,303.89 358.23,302.78 359.48,301.84 359.78,303.27 362.91,301.72 364.3,302.52 367.58,301.76 368.19,303.19 369.28,303.05 370.53,301.95 369.92,300.36 370.72,298.95 372.27,298.8 372.28,297.7 373.21,298.65 372.88,300.87 376.59,302.48 376.61,300.9 378.01,301.23 380.04,299.83 381.13,299.68 382.83,301.12 385.19,298.93 386.12,299.41 387.38,296.89 388.29,299.75 390.63,299.45 390.48,298.19 391.09,299.93 392.96,299.95 392.95,300.58 394.52,299.33 393.59,298.37 395.46,298.86 396.53,301.09 396.85,299.51 398.55,300.48 398.87,299.69 399.96,299.86 400.56,302.55 402.28,301.78 401.95,303.35 402.73,303.2 402.87,304.47 403.66,304 403.2,302.73 406.32,302.29 406.93,303.08 407.1,302.29 408.03,302.62 408.35,301.51 409.73,302.95 408.61,306.42 409.08,306.9 410.32,307.07 410.48,306.44 412.49,307.72 412.82,305.83 413.6,305.52 413.62,338.26 420.3,340.06 424.17,342 430.05,346.95 433.28,350.93 436.18,357.6 442.18,366.83 457.18,380.08 471.47,423.21 477.33,431.32 484.78,436.13 508.74,442.95 532.87,448.35 540.21,447.13 554.9,442.02 583.04,430.66 601.46,427.14 657.27,427.77 696.23,430.65 707.45,430.86 720.55,429.81 708.97,404.46 709.56,342.15 891.25,342.71 891.12,420.68 894.09,415.46 895.65,413.73 896.9,413.57 898.46,410.73 901.89,411.68 902.83,411.21 901.89,410.57 902.21,409.15 904.07,411.05 905.63,410.26 905.48,409.47 906.88,410.58 907.5,409.47 908.44,410.74 909.37,408.69 974.99,408.74 974.85,356.24 1037.74,323.65 1046.93,323.64 1129.52,375.41 1176.98,414.52 1178.38,412.46 1177.59,408.51 1230.89,408.34 1248.02,406.38 1252.22,404.31 1259.68,397.79 1316.84,328.43 1323.66,322.7 1333.24,308.41 1356.19,265.41 1380.99,251.51 1421.61,209.63 1430.57,202.77 1418.16,181 1417.63,97.87 1371.8,59.33 1472.41,58.67 1473.93,54.54 1474.35,48.68 1473.07,43.62 1473.65,38.38 1470.94,27.78 1471.97,20.17 1469.91,13.53 1556.99,15.53 1556.69,17.44 1552.53,20.01 1550.85,23.03 1551.34,25.09 1539.94,89.99 1533.84,139.62 1544.2,171.84 1555.3,235.85 1551.48,243.8 1593.81,264.79 1602.93,275.94 1617.59,296.37 1638.91,312.93 1654.74,338.88 1665.05,342.73 1664.62,345.74 1665.29,351.27 1669.24,356.29 1668.65,359.46 1669.95,364.82 1667.99,371.33 1668.68,377.8 1665.96,385.74 1664.64,393.5 1664.97,396.03 1660.67,401.61 1657.25,403.07 1655.44,408.62 1653.96,416.54 1651.75,445.03 1687.46,444.66 1694.32,518.42 1695.04,585.6 1693.8,587.03 1692.71,587.04 1692.26,588.94 1690.86,589.75 1688.09,593.89 1685.59,593.91 1684.2,595.51 1679.38,598.09 1676.17,604.6 1674.13,604.62 1673.03,603.53 1670.07,604.51 1668.5,604.05 1668.01,602.32 1665.68,603.92 1663.49,602.99 1661.62,603.65 1660.85,605.08 1658.03,604.95 1656.32,605.75 1653.08,610.05 1653.11,612.74 1654.37,613.52 1653.14,615.27 1653.15,617.01 1651.43,616.55 1648.31,617.21 1647.85,618.17 1646.9,617.54 1645.67,619.29 1644.26,618.99 1643.94,618.05 1642.69,618.69 1643.01,619.48 1640.98,619.5 1639.59,621.09 1639.76,622.2 1636.34,624.13 1633.5,622.42 1630.08,624.19 1628.04,623.89 1626.94,622.48 1625.85,622.81 1623.95,621.09 1624.09,619.5 1622.36,617.62 1622.5,616.2 1621.55,614.94 1622.32,613.36 1621.83,611.94 1619.48,611.49 1617.12,609.45 1612.88,607.91 1610.25,610.63 1609.64,612.53 1608.7,611.59 1606.51,611.92 1605.1,611.31 1603.5,607.68 1601.01,608.81 1599.91,608.19 1597.73,608.69 1595.22,607.92 1593.96,606.67 1592.71,607.15 1592.42,609.52 1590.86,610.65 1588.36,610.51 1585.72,612.59 1582.27,611.2 1579.32,613.12 1578.24,615.5 1574.32,613.64 1573.84,612.38 1568.68,612.11 1566.64,611.18 1564.74,608.98 1562.28,613.27 1561.18,613.44 1560.07,610.76 1558.49,609.82 1558.19,610.93 1554.14,612.55 1555.24,613.49 1552.92,615.88 1550.4,614.32 1549.63,615.59 1550.13,618.75 1546.06,618.78 1545.76,619.73 1546.55,620.67 1545.46,622.1 1546.76,627.62 1550.35,626.33 1550.21,629.02 1548.2,630.77 1547.56,630.15 1546.32,630.47 1547.91,633.78 1546.83,636 1543.39,635.56 1542.92,636.19 1543.72,637.92 1543.11,639.98 1543.92,642.98 1547.52,643.9 1548.47,645 1547.57,648.96 1543.2,651.05 1542.43,652.16 1544.16,653.09 1544.49,655.78 1546.06,656.4 1545.14,657.67 1546.73,661.45 1546.59,662.87 1543.14,662.74 1541.6,665.6 1539.72,664.83 1535.5,665.65 1535.05,668.03 1535.72,673.08 1534.94,673.56 1532.73,671.21 1530.23,671.38 1530.25,673.75 1529,674.4 1529.49,676.45 1528.73,679.93 1527.32,679.78 1522.96,681.87 1522.69,688.36 1516.46,691.88 1517.73,694.56 1516.81,696.62 1519.34,699.92 1519.04,700.87 1517.63,700.72 1516.86,703.26 1517.51,705.47 1524.46,713.16 1524.01,716.32 1526.35,715.35 1526.99,716.45 1528.08,716.29 1527.92,715.66 1530.11,715.64 1531.36,714.36 1532.15,716.1 1533.4,715.45 1533.57,716.88 1532.64,717.51 1533.89,717.98 1533.73,717.35 1534.98,717.34 1534.82,716.71 1536.54,716.38 1537.17,717.16 1537.95,716.21 1538.43,716.99 1540.61,716.03 1541.24,716.5 1542,714.12 1543.73,715.05 1543.27,715.85 1542.64,715.54 1542.65,716.33 1543.9,716.16 1544.05,715.37 1545.31,716.62 1546.09,716.3 1546.26,717.56 1546.72,716.45 1547.51,717.39 1548.13,716.91 1548.77,718.65 1550.02,718.16 1549.56,719.11 1550.5,718.63 1552.23,719.72 1553.46,717.5 1555.04,718.59 1555.66,717.96 1555.51,718.91 1556.45,719.21 1556.94,720.95 1557.09,720.31 1558.97,721.09 1558.98,721.88 1560.23,721.71 1560.4,722.82 1561.17,722.02 1561.66,723.75 1563.53,722.79 1562.76,724.22 1563.55,725 1563.38,723.9 1564.48,723.73 1564.66,726.41 1564.97,725.78 1566.07,726.24 1566.53,725.29 1567.03,728.76 1567.66,729.07 1567.65,728.44 1569.53,727.95 1570.32,729.21 1570.78,728.26 1570.15,727.79 1570.93,727.78 1572.01,725.72 1574.06,727.12 1574.2,725.22 1576.39,725.05 1576.69,723.46 1578.42,723.92 1578.59,725.34 1579.84,725.33 1580.14,724.07 1582.65,724.2 1584.2,722.13 1584.03,721.03 1585.13,721.33 1585.77,722.59 1586.86,722.27 1587.34,722.9 1586.4,722.75 1586.4,723.38 1588.13,724.15 1588.12,722.89 1588.75,723.36 1589.68,722.72 1589.36,721.77 1592.5,722.69 1592.83,724.43 1593.78,724.89 1595.02,723.62 1595.66,725.35 1595.96,724.4 1597.07,725.02 1597.84,724.22 1597.85,725.49 1599.26,725.63 1598.66,727.85 1600.22,727.52 1601.64,729.09 1601.34,730.36 1603.08,731.45 1603.07,730.5 1604.16,730.01 1608.25,731.71 1608.71,731.08 1611.53,731.53 1614.81,730.55 1617.02,731.63 1617.64,730.84 1621.41,732.06 1623.47,734.42 1624.88,734.4 1624.88,735.35 1626.45,735.34 1627.09,736.28 1629.27,735.62 1629.44,736.57 1631.01,737.03 1632.44,739.23 1633.1,742.07 1635.13,741.89 1636.88,744.56 1639.08,745.01 1640.35,747.53 1643.35,749.71 1645.72,751.27 1652.3,751.52 1653.89,753.72 1657.98,754.94 1659.25,756.98 1658.33,759.05 1663.08,763.74 1662.47,765.17 1664.66,764.99 1665.61,765.93 1667.33,765.91 1667.68,769.23 1668.62,768.9 1670.82,769.99 1674.78,773.74 1675.31,779.42 1680.05,783.64 1679,787.92 1680.81,796.28 1678.32,798.2 1676.28,797.27 1677.57,800.74 1679.93,801.66 1679.46,802.14 1680.89,803.87 1680.59,804.66 1682.3,804.17 1684.36,806.04 1684.99,805.88 1684.66,804.77 1686.08,805.39 1687.99,808.22 1689.57,808.67 1689.58,809.62 1690.35,809.14 1689.74,810.73 1691.02,812.93 1694.64,813.52 1696.7,815.71 1696.71,816.66 1699.68,816.31 1702.37,818.34 1704.42,818.79 1705.22,820.52 1704.28,821.16 1704.62,823.06 1705.89,824.31 1704.79,824.95 1704.19,827.01 1705.78,828.73 1705,829.06 1705.78,829.37 1705.01,830.64 1705.66,832.06 1704.88,832.85 1708.66,834.39 1709.44,833.44 1708.98,834.71 1710.09,835.96 1709.16,836.92 1710.26,836.75 1710.58,837.69 1711.36,837.68 1711.22,838.95 1712.01,839.26 1715.13,837.64 1716.24,838.9 1718.12,838.88 1716.72,840 1717.98,839.98 1718.31,841.4 1719.4,840.76 1720.21,842.8 1720.67,842.33 1722.72,842.94 1722.09,843.1 1721.96,845.16 1721.32,844.22 1720.54,845.01 1721.49,845.32 1721.05,847.85 1721.99,848.16 1722.29,847.05 1723.56,848.46 1723.71,847.19 1724.67,849.24 1726.08,849.06 1725.94,850.8 1727.21,851.74 1728.31,851.88 1728.61,850.46 1729.25,851.72 1730.03,851.39 1731.14,852.48 1732.39,851.84 1733.34,853.09 1735.23,853.23 1734.9,852.13 1736.77,851 1737.41,851.94 1738.03,851.46 1740.08,852.38 1740.23,851.43 1741.5,852.68 1742.12,851.89 1741.66,853.32 1742.92,853.78 1742.6,852.83 1743.39,853.14 1743.69,852.19 1745.1,852.01 1746.21,853.26 1745.42,852.48 1746.66,851.36 1747.31,853.25 1748.25,853.08 1748.71,851.97 1749.19,852.44 1748.41,853.55 1750.46,854.16 1751.43,856.37 1753.65,858.08 1754.74,857.43 1754.43,858.23 1756.02,859.95 1755.24,860.12 1755.26,861.7 1756.66,860.89 1757.76,861.19 1758.25,862.45 1757.16,863.26 1758.9,864.66 1758.12,864.98 1758.45,866.4 1759.39,866.23 1759.08,866.87 1760.19,867.65 1759.1,868.45 1759.58,868.92 1758.81,870.19 1760.23,870.81 1758.97,871.14 1758.52,872.25 1759.48,873.66 1758.85,873.83 1759.49,874.77 1758.87,875.25 1759.83,877.45 1758.42,877.78 1758.6,879.36 1760.63,878.55 1760.48,879.5 1761.59,879.65 1762.23,880.74 1763.95,880.25 1764.59,881.19 1767.73,881.94 1770.55,881.12 1772.3,882.68 1772.92,882.52 1773.36,879.51 1775.72,879.95 1777.61,881.04 1779.06,884.02 1780.48,884.17 1781.6,886.21 1783.8,886.5 1787.13,888.67 1786.2,890.11 1787.65,893.41 1789.39,894.34 1789.56,895.44 1791.61,895.73 1793.05,898.4 1795.75,900.42 1796.09,902.79 1797.33,901.35 1799.24,903.39 1802.35,900.98 1807.54,901.55 1809.09,900.26 1811.29,899.92 1812.24,901.01 1813.34,900.53 1815.24,901.61 1814.16,903.68 1815.28,904.93 1818.41,904.57 1818.89,904.88 1818.12,905.84 1819.07,907.09 1821.13,908.49 1823.01,908.15 1823.97,909.56 1823.84,911.3 1825.26,911.92 1824.8,913.19 1826.55,914.27 1826.26,916.65 1828.14,916.15 1829.57,917.4 1829.91,919.45 1834.17,921.13 1836.27,925.38 1836.29,927.43 1834.75,929.19 1834.94,931.72 1833.85,933 1832.28,933.33 1831.37,935.24 1831.89,939.03 1832.51,939.02 1833.17,940.91 1831.45,942.2 1831.35,946.31 1828.39,948.56 1828.1,950.78 1827.01,951.58 1827.54,955.53 1825.36,957.45 1827.58,959.01 1827.62,962.48 1828.89,963.26 1829.41,966.73 1830.04,967.04 1829.74,968.62 1828.64,968.64 1828.69,972.43 1827.78,974.82 1828.42,975.76 1827.64,976.4 1829.25,979.07 1829.13,982.07 1829.45,982.54 1830.85,981.74 1832.14,983.77 1833.55,983.44 1834.19,984.22 1832.69,990.41 1834.77,992.91 1835.11,994.97 1832.39,1003.7 1835.6,1009.19 1835.62,1010.77 1834.7,1012.52 1833.6,1012.54 1840.48,1021.78 1854.79,1045.48 1854.29,1055.45 1884.31,1074.99 1883.08,1077.22 1883.44,1080.38 1882.69,1083.39 1880.99,1086.11 1881.21,1090.69 1880.47,1094.02 1882.58,1098.43 1883.52,1098.25 1884.95,1099.5 1884.81,1100.77 1894.84,1096.68 1896.26,1096.98 1896.41,1096.34 1899.71,1095.82 1905.63,1091.31 1906.74,1091.29 1909.37,1088.09 1910.16,1088.4 1911.88,1087.11 1913.3,1087.41 1915.17,1086.27 1916.44,1087.05 1920.21,1086.36 1920.7,1087.3 1923.86,1088.05 1926.99,1086.9 1929.4,1090.03 1932.07,1089.2 1932.59,1092.67 1937.44,1090.71 1939.03,1091.95 1941.08,1091.92 1942.01,1090.96 1943.44,1091.57 1944.06,1090.93 1947.84,1090.87 1947.85,1091.82 1948.96,1091.81 1948.97,1093.07 1949.76,1092.9 1949.61,1093.7 1950.86,1092.73 1951.34,1093.51 1954.03,1094.11 1953.25,1094.75 1954.04,1095.06 1953.74,1095.85 1956.6,1097.55 1956.89,1095.97 1959.44,1097.67 1963.06,1097.93 1964.5,1099.49 1967.34,1099.45 1967.83,1101.03 1970.68,1101.78 1971.33,1103.35 1971.2,1104.93 1970.11,1105.9 1970.44,1106.68 1969.49,1106.54 1965.77,1110.87 1965.34,1113.25 1968.88,1118.57 1969.99,1118.87 1970.18,1121.25 1971.79,1123.44 1970.29,1128.84 1969.35,1128.85 1969.05,1130.44 1967.36,1133.15 1965.33,1134.61 1964.58,1136.83 1965.17,1188.42 1986.17,1210.75 1985.41,1212.66 1946.6,1213.39 1946.78,1203.88 1944.23,1202.18 1941.39,1201.75 1938.71,1201.94 1936.05,1203.72 1934.35,1206.44 1932.4,1213.59 1916.79,1213.96 1902.57,1189.78 1911.11,1168.77 1910.61,1166.4 1907.13,1165.66 1884.77,1168.34 1887.78,1157.54 1890.23,1152.44 1887.21,1150.11 1882.18,1151.28 1866.86,1160.98 1859.7,1156.01 1831.67,1171.09 1790.86,1186.94 1757.84,1196.51 1753.61,1199.09 1740.09,1217.13 1689.19,1268.82 1677.43,1277.5 1602.8,1354.58 1550.27,1350.75 1526.25,1332.73 1506.28,1345.24 1477.72,1353.06 1429.52,1356.88 1395.19,1380.23 1395.03,1381.18 1396.93,1381.49 1398.7,1386.23 1397.14,1388.77 1397.46,1389.88 1396.05,1392.59 1396.54,1394.33 1395.91,1395.28 1379.91,1390.94 1377.69,1391.11 1377.53,1390.32 1378.32,1390.63 1378.31,1388.73 1377.2,1388.89 1377.04,1387.94 1377.67,1386.67 1375.76,1385.73 1375.12,1384.15 1374.01,1384.15 1372.58,1381.63 1371.47,1382.43 1371.31,1381.48 1370.21,1382.59 1361.04,1383.59 1357.41,1384.88 1356.41,1375.85 1357.49,1371.41 1343.31,1351.2 1335.54,1345.38 1333.01,1344.92 1331.59,1345.4 1332.23,1348.72 1323.26,1355.9 1321.05,1356.38 1317.59,1360.99 1296.91,1367.75 1292.18,1371.89 1288.39,1373.49 1287.76,1374.76 1285.23,1373.82 1286.16,1368.74 1261.44,1356.65 1251.29,1349.71 1234.54,1350.09 1231.85,1350.73 1224.44,1356.62 1222.39,1357.26 1221.76,1358.53 1222.39,1358.85 1221.6,1359.48 1220.65,1358.85 1220.02,1359.65 1219.55,1358.54 1216.7,1358.39 1215.12,1359.98 1215.76,1360.45 1215.29,1362.2 1209.45,1366.18 1208.66,1366.34 1206.91,1364.13 1204.38,1364.45 1202.18,1366.04 1200.76,1369.22 1198.87,1370.33 1197.45,1373.03 1197.78,1375.88 1196.2,1377.95 1194.62,1378.27 1193.52,1381.28 1191.31,1382.4 1190.37,1385.73 1188.16,1388.27 1184.71,1397.95 1182.81,1398.75 1182.17,1394.63 1184.37,1389.39 1183.89,1385.75 1182.14,1383.85 1178.19,1383.86 1178.18,1382.44 1176.44,1382.92 1175.02,1382.29 1175.33,1381.17 1174.07,1380.7 1173.58,1377.69 1174.37,1376.42 1173.41,1373.57 1173.89,1372.46 1171.51,1370.41 1170.24,1368.03 1169.61,1369.3 1168.03,1369.47 1168.5,1370.73 1167.08,1372.32 1167.57,1375.49 1164.09,1374.71 1162.67,1377.56 1155.7,1374.41 1154.12,1375.05 1153.65,1376.32 1148.91,1378.23 1147.33,1379.98 1145.75,1380.45 1140.06,1379.36 1139.1,1378.09 1136.42,1377.94 1135.62,1376.99 1137.36,1374.61 1138.45,1370.01 1137.82,1366.68 1138.76,1364.46 1139.22,1358.92 1137.31,1350.84 1136.04,1347.51 1134.77,1347.2 1134.76,1342.61 1133.5,1343.08 1133.18,1342.29 1132.23,1343.09 1131.6,1340.87 1125.6,1343.89 1121.49,1344.37 1119.58,1341.68 1119.9,1340.42 1118.95,1339.94 1117.99,1336.62 1115.47,1339.32 1113.89,1338.68 1112.63,1339.32 1111.36,1338.21 1111.51,1336.63 1110.09,1335.05 1108.03,1335.05 1106.92,1333.15 1103.13,1331.73 1102.34,1329.99 1099.97,1331.1 1096.96,1329.68 1094.44,1331.59 1094.59,1327.94 1091.42,1324.94 1090.63,1325.1 1090.48,1326.52 1088.74,1326.21 1085.11,1328.59 1084.32,1327.32 1082.58,1328.59 1081.31,1327.96 1080.68,1324.95 1078.94,1323.37 1078.14,1320.99 1079.56,1318.14 1078.61,1314.5 1073.08,1310.23 1074.49,1307.37 1073.55,1306.43 1074.17,1302.94 1073.22,1299.14 1071.48,1300.41 1069.27,1300.73 1061.53,1297.73 1058.69,1297.89 1056.95,1296.94 1055.84,1294.41 1052.99,1292.19 1051.73,1289.5 1052.36,1287.92 1051.57,1284.91 1045.88,1283.96 1043.51,1284.75 1042.25,1282.54 1040.83,1282.38 1039.88,1279.69 1038.93,1279.53 1040.51,1276.52 1039.87,1275.73 1042.56,1272.24 1040.34,1268.92 1035.61,1266.07 1032.29,1262.91 1024.87,1263.86 1022.66,1264.97 1020.6,1261.65 1017.92,1260.7 1016.02,1258.95 1015.55,1248.66 1016.97,1245.5 1016.65,1242.33 1017.6,1239.01 1015.7,1237.74 1016.18,1235.36 1017.12,1234.89 1018.07,1232.67 1019.33,1232.36 1019.49,1230.46 1020.44,1230.3 1020.12,1229.35 1016.49,1228.4 1015.07,1229.19 1010.18,1225.08 1009.23,1226.82 1007.5,1227.93 1004.97,1224.44 1002.92,1223.81 1001.5,1222.07 1001.81,1220.33 997.87,1219.69 996.29,1218.11 993.93,1217.64 993.45,1215.74 991.24,1215.58 988.09,1213.68 984.62,1215.1 981.3,1212.88 978.78,1213.2 977.36,1211.62 974.05,1214.31 972,1212.56 971.68,1211.14 970.58,1210.82 970.42,1208.76 968.21,1207.66 966,1209.24 964.74,1212.4 963.48,1211.29 963,1212.4 964.42,1215.25 963.95,1216.99 964.74,1217.94 963.95,1218.73 965.05,1223.17 964.1,1225.07 960,1229.02 960.47,1234.25 957.94,1238.68 956.36,1239.31 953.52,1243.11 947.99,1243.58 946.88,1246.43 945.78,1247.06 944.51,1255.13 938.03,1257.34 936.62,1255.44 935.35,1256.39 932.51,1254.81 929.67,1257.18 930.61,1259.08 929.66,1261.77 925.87,1262.72 924.61,1263.98 921.61,1262.55 921.3,1260.02 916.72,1257 915.78,1255.58 914.36,1255.58 913.57,1253.36 911.2,1252.09 911.05,1249.56 902.05,1249.07 902.85,1245.11 898.74,1244.95 896.38,1243.2 896.54,1241.62 895.28,1240.19 893.07,1239.4 889.75,1239.55 888.49,1241.45 884.38,1242.07 882.33,1241.28 879.33,1242.38 878.07,1242.06 877.76,1241.11 875.7,1242.53 869.87,1239.99 866.39,1241.72 864.02,1241.88 862.29,1241.08 860.87,1239.18 859.61,1239.17 860.72,1235.69 860.1,1232.21 858.52,1231.42 858.52,1229.83 855.69,1228.56 852.84,1231.4 849.37,1231.55 848.42,1232.5 847,1231.55 845.1,1233.44 846.2,1234.55 844.62,1236.45 842.25,1236.76 841.62,1238.03 842.88,1240.4 840.82,1241.98 840.18,1245.15 837.33,1248.15 837.8,1249.57 833.22,1250.35 831.01,1251.62 827.06,1251.13 824.05,1256.98 817.89,1256.49 813.47,1257.74 812.83,1260.12 810.46,1261.22 811.25,1262.17 809.19,1264.54 809.18,1266.6 805.7,1269.28 804.75,1271.34 797.79,1273.22 794.95,1271.94 792.11,1272.56 790.85,1269.87 790.55,1266.07 787.57,1261.47 785.35,1261.78 784.41,1260.82 781.57,1260.5 775.88,1261.27 773.83,1260.47 772.09,1262.52 767.2,1261.56 764.36,1261.86 759.32,1256.14 753.81,1253.91 753.65,1252.48 755.56,1250.11 753.99,1247.42 752.56,1248.99 749.41,1246.77 747.51,1248.34 746.25,1248.18 746.24,1250.55 744.5,1251.34 743.1,1247.22 741.37,1245.31 739.79,1244.83 739.48,1243.24 737.75,1241.65 738.41,1234.37 739.69,1230.26 736.22,1230.72 734.64,1229.61 731.96,1229.6 731.65,1228.81 730.23,1229.27 729.76,1228.48 728.65,1229.43 725.18,1227.35 724.72,1225.77 723.93,1225.61 722.98,1226.55 722.33,1230.19 720.75,1230.98 720.43,1232.4 715.06,1232.06 709.56,1227.13 707.67,1226.65 706.58,1223.47 702.49,1221.4 698.86,1221.07 698.55,1219.96 699.67,1216.95 696.86,1209.18 695.13,1208.07 697.68,1202.54 696.74,1200.64 697.86,1198.43 696.13,1197.15 696.45,1195.73 697.56,1194.94 695.99,1194.14 696.47,1192.4 690.01,1190.47 688.9,1192.53 684.96,1191.56 684.49,1190.61 685.92,1187.92 685.61,1186.66 684.35,1185.86 684.84,1183.8 682.48,1181.89 682.17,1179.99 681.23,1179.83 680.76,1178.24 679.5,1178.08 678.72,1176.97 677.93,1177.28 676.68,1175.38 671.79,1175.98 666.74,1175.33 665.48,1176.59 662.95,1176.26 661.24,1173.24 658.56,1172.44 656.83,1170.84 654.94,1170.83 654.32,1168.46 655.29,1164.98 653.4,1163.23 651.51,1163.06 649.95,1160.68 648.06,1160.51 646.96,1158.61 645.24,1157.65 648.14,1145.16 644.99,1144.2 641.54,1140.7 640.76,1139.43 641.26,1135.79 640.47,1134.84 639.84,1135.31 637.65,1132.45 638.28,1131.82 637.82,1131.02 636.87,1131.65 635.77,1129.91 634.19,1130.53 631.52,1129.41 632.16,1127.2 630.91,1126.87 630.74,1127.82 629.64,1127.97 629.17,1126.55 624.93,1124.15 624.63,1121.3 622.91,1120.34 623.39,1118.29 622.3,1117.01 622.47,1114.01 621.22,1112.89 619.32,1113.52 618.69,1113.04 617.14,1109.71 617.62,1108.76 614.95,1107.32 614.02,1104.94 614.81,1103.05 614.37,1099.09 612.5,1095.6 613.3,1093.39 612.05,1090.38 613.35,1084.37 616.06,1077.75 620.5,1072.87 619.42,1069.22 620.39,1064.48 619.92,1063.69 615.84,1062.56 613.47,1063.34 612.69,1062.7 613.68,1054.95 611.17,1053.67 610.24,1051.45 610.89,1047.98 609.32,1047.34 606.97,1044.32 607,1040.84 601.18,1040.17 599.93,1038.27 600.58,1035.58 597.59,1034.77 594.78,1031.59 592.27,1030.31 586.12,1031.85 583.46,1030.41 580.8,1027.87 581.28,1026.45 580.51,1023.91 577.2,1024.84 576.42,1023.09 574.23,1021.82 571.24,1022.43 566.84,1021.29 565.26,1021.76 562.63,1014.94 558.22,1016.65 553.65,1017.09 550.05,1015.49 548.94,1015.95 547.1,1009.14 549.19,1002.99 547.78,1001.71 544.3,1005.01 541.5,999.93 537.43,996.9 536.18,996.57 535.69,998.78 533.64,1000.03 527.84,996.99 522.47,1000.27 519.82,997.72 516.36,997.69 513.39,994.67 508.67,995.27 505.84,994.61 505.87,991.45 502.89,989.69 503.24,984.95 501.36,983.67 500.6,981.29 493.19,984.08 491.28,986.91 489.06,988.47 488.61,986.57 490.54,980.9 496.7,977.47 497.97,975.58 499.7,975.43 500.65,974.49 502.74,968.5 501.98,964.22 501.37,962.64 500.58,962.47 497.89,964.98 492.55,965.1 495.61,955.32 494.99,953.73 491.69,953.39 490.13,952.12 488.71,952.74 487.31,950.83 485.89,951.61 481.03,950.46 478.06,948.54 476.68,944.26 471.82,942.17 470.11,940.26 468.54,940.56 466.05,936.75 466.87,932.64 466.76,926.95 464.88,926.3 464.42,924.88 464.91,922.35 468.37,921.9 470.43,920.18 469.19,918.59 471.4,917.19 471.1,915.29 472.21,914.03 474.73,913.1 474.11,911.83 474.61,907.88 478.38,907.76 479.19,905.07 478.42,903.33 482.51,901.94 483.76,902.42 483.46,900.52 484.44,896.11 480.06,894.49 479.29,891.95 477.41,892.1 475.53,891.13 473.49,891.59 471.01,887.15 468.03,886.96 460.63,889.27 459.39,888 459.72,885.95 458.47,884.36 458.33,882.46 456.3,881.02 452.84,881.62 448.31,879.53 447.38,877.62 448.49,876.21 446.61,876.51 446.14,875.88 446.97,870.67 444.31,870.17 443.06,868.74 439.44,870.13 438.35,869.33 436.62,869.95 434.76,867.24 433.03,866.91 431.66,862.63 432.49,856.63 429.2,856.44 428.44,853.12 426.56,853.26 425.94,852.46 425.96,850.73 428.31,850.11 428.81,847.75 426.94,846.15 427.43,843.78 426.35,840.93 423.4,838.22 418.53,838.33 417.76,836.59 418.4,835.17 417.63,834.21 409.16,833.82 409.03,831.13 404.48,830.46 404.34,828.72 405.45,827.78 403.44,825.08 399.21,823.46 397.96,823.76 391.23,821.96 393.46,818.5 393.16,816.45 386.74,816.07 385.33,815.11 382.2,814.92 382.07,812.23 378.94,811.73 375.95,812.49 373.62,809.78 366.11,808.45 364.72,806.22 363.46,806.68 360.49,805.39 357.35,805.99 356.6,802.82 354.88,801.86 352.83,802.94 352.39,799.62 350.83,799.13 348.79,799.9 347.41,796.25 343.5,795.74 342.38,797.78 340.82,796.34 338.3,797.42 336.76,794.88 334.88,795.18 335.69,792.81 335.07,791.86 333.51,791.05 331.93,791.83 331.95,790.4 329.31,787.37 326.98,786.09 325.25,786.54 324.45,787.64 323.84,786.21 320.87,785.07 318.41,780.62 318.13,777.3 316.74,775.86 316.93,772.55 314.27,771.41 311.91,772.18 311.47,769.96 309.15,767.25 308.69,765.51 305.42,763.73 301.19,764 298.24,761.28 297.13,762.7 294.63,761.4 294.83,757.93 293.44,755.7 294.08,754.13 292.57,749.69 290.85,748.88 290.4,747.13 292.12,746.99 293.56,744.64 296.07,744.51 297.36,741.36 300.17,742.18 300.64,741.55 300.04,739.65 300.67,738.87 303.48,740.16 305.54,738.13 309.47,736.75 307.93,734.2 310.43,734.23 311.07,732.81 310.78,731.23 308.75,730.73 308.31,728.04 307.06,727.4 308.33,726.15 307.89,723.3 309.16,721.1 309.35,718.57 308.43,716.03 309.1,712.4 308.48,711.92 306.74,713.01 306.12,712.53 304.89,710.78 305.21,709.52 303.5,708.71 303.36,706.81 299.65,702.66 298.89,700.6 296.54,700.73 291.75,695.15 284.69,695.86 283.59,696.8 282.02,696.46 277.63,697.68 271.92,690.03 259.15,684.36 254.69,677.19 251.1,676.2 249.86,675.08 244.54,661.74 242.44,653.5 238.7,652.83 233.72,649.92 231.68,651.16 227.92,651.28 223.58,647.91 215.92,647.66 212.03,646.03 206.87,645.65 192.92,647.85 191.84,646.73 188.25,645.74 187.02,643.83 184.21,643.16 181.63,637.28 178.03,637.71 170.68,636.98 167.07,638.52 165.95,640.56 164.53,640.86 159.26,637.31 153.95,637.09 145.68,635.08 139.62,632.16 136.53,629.59 133.3,625.28 131.02,620.19 131.19,619.08 133.95,611.69 134.66,604.75 137.67,602.26 140.39,597.23 145.15,592.08 151.46,587.74 151.32,586.31 146.37,582.3 145.3,580.23 149.63,572.22 148.72,570.15 145.76,569.48 141.05,571 135.91,569.35 132.3,571.05 129.48,571.32 117.31,569.74 112.18,568.09 108.1,569.14 102.98,566.38 98.15,565.53 90.32,567.16 82.24,563.88 75.51,564.26 72.99,565.96 68.13,567.32 62.69,564.71 58.62,565.76 52.58,561.88 45.22,562.88 40.63,566.92 35.02,565.89 33.79,564.76 33.54,560.33 31.24,557.14 31.76,554.14 33.22,549.9 37.8,546.96 44.52,535.99 45.17,534.26 45.35,522.09 43.67,519.54 41.64,519.51 37.48,526.4 35.91,527.01 32.01,526.32 26.14,522.13 24.19,517.04 26.29,512.17 28.35,499.55" fill="none" stroke="#1e1e1e" stroke-width="1.21" stroke-linecap="round" stroke-linejoin="round"/>
<text x="1018.01" y="791.63" font-family="sans-serif" font-size="14" stroke="#ffffff" stroke-opacity="0.784" stroke-width="2.33" stroke-linejoin="round" paint-order="stroke" fill="#141414">South Sudan</text>
</svg>
