<?xml version="1.0" encoding="UTF-8" standalone="no"?>
<svg xmlns="http://www.w3.org/2000/svg" width="2000" height="1827" viewBox="0 0 2000 1827">
<rect width="2000" height="1827" fill="#ffffff"/>
<polyline points="1213.05,537.24 1215.77,541.35 1220.56,552.82 1222.94,555.16 1224.08,557.58 1221.74,562.97 1216.06,570.8 1208.04,570.86 1203.77,574.46 1205.41,575.15 1205.55,577.63 1204.16,583.13 1201.62,588.65 1198.33,591.18 1194.42,591.74 1183.95,595.7 1178.85,598.88 1174.76,602.67 1172.54,606.94 1172.32,612.22 1174.46,626.96 1172.69,629.75 1170.37,631.13 1169.68,633.2 1172.75,638.1 1167.24,640.13 1161.12,640.41 1159.25,641.71 1159.01,644.57 1160.08,647.61 1162.13,649.31 1162.15,651.52 1155.36,652.25 1156.11,658.2 1159.96,666.12 1164.09,680.67 1166.61,686.37 1165.66,689.45 1157.02,689.59 1147.96,687.36 1123.29,687.28 1107.4,682.74 1101.96,683.22 1096.55,685.13 1089.64,683.97 1087.78,684.37 1086.07,686.06 1081.88,693 1078.87,694.28 1069.97,692.8 1059.24,696.13 1043.12,713.4 1038.7,711.39 1030.92,704.08 1021.83,697.28 1013.42,696.75 1010.33,700.53 1008.36,706.42 1006.24,718.99 1003.94,725.66 1003.53,728.94 1006.54,731.29 1005.37,733.43 1000.91,736.8 1004.48,742.54 1014.91,746.12 1019.8,749.24 1020.6,754.46 1014.75,767.94 1015.4,775.02 1024.36,779.47 1025.98,783.34 1027.07,793.93 1030.04,798.77 1037.78,820.62 1038.78,830.64 1041.92,839.67 1044.53,862.26 1042.51,894.34 1045.38,905.18 1042.39,916.78 1044.06,925.32 1046.62,927.94 1056.16,928.91 1060.42,930.65 1064.61,934.46 1065.97,938.28 1052.5,942.45 1046.03,948.49 1043.96,956.55 1048.03,964.93 1054.37,971.49 1056.49,976 1052.68,978.09 1036.19,975.66 1033.57,977.01 1035.04,982.5 1041.99,988.46 1044.48,993.88 1043.99,999.87 1033.62,1009.48 1034.81,1014.89 1034.39,1030.66 1045.35,1040.03 1051.07,1047.04 1048.19,1051.72 1040.37,1056.11 1039.12,1058.82 1039.78,1063.08 1047.31,1068.61 1055.8,1078.01 1060.59,1080.56 1066.54,1080.8 1073.87,1076.79 1077.27,1076.34 1080.15,1077.17 1084.29,1080.1 1087.35,1080.74 1098.19,1078.28 1111.34,1079.19 1122.18,1076.88 1125.41,1077.74 1129.77,1080.83 1132.3,1081.51 1138.88,1086.75 1141.48,1087.73 1147.72,1086.44 1153.23,1083.4 1162.7,1075.63 1165.88,1071.79 1176.08,1078.83 1182.9,1080.4 1188.51,1084.41 1202.07,1100.22 1207.23,1108.13 1209.61,1117.04 1205.36,1127.71 1205.36,1133.89 1199.98,1140.62 1195.79,1153.1 1192.54,1158.9" fill="none" stroke="#1e1e1e" stroke-width="1.45" stroke-linecap="round" stroke-linejoin="round"/>
<polyline points="1165.98,419.22 1161.71,419.34 1159.18,412.69 1156.3,398.11 1151.92,393.87 1145.15,391.63 1137.98,391.21 1132.39,392.57 1115.09,400.32 1112.86,402.3 1110.99,405.99 1105.74,408.08 1108.03,411.53 1116.59,417.65 1112.44,422.63 1108.98,425.03 1098.76,426.81 1097.37,426.59 1096.93,424.83 1096.01,424.39 1093.7,426.63 1093.4,428.17 1096.45,430.5 1096.46,434.21 1095.12,440.18 1098.41,447.92 1102.35,450.08 1100.97,452.71 1097.1,455.75 1092.65,464.48 1087.1,463.71 1085.07,464.29 1082.8,466.94 1082.2,460.66 1079.08,457.92 1075.58,458.85 1073.95,463.51 1075.95,472.34 1074.94,473.63 1067.94,476.9 1067.1,479.19 1069.19,482.11 1068.85,484.79 1060.57,495.6 1063.55,500.01 1070.67,505.03 1073.91,509.59 1075.75,514.66 1074.82,518.74 1069.58,520.44 1067.62,522.52 1063,531.73 1058.86,533.83 1050.56,533.13 1047.74,534.84 1037.95,550.16 1034.19,553.19 1029.61,551.82 1030.61,557.63 1022.56,561.75 999.82,566.14 996.7,565.79 993.82,564.31 984.29,549.45 980.27,547.22 973.64,548.36 968.96,551.37 961.61,560.57 950.34,567.17 941.52,560.57 933.41,550 924.33,544.7 918.92,547.53 914.78,552.68 910.7,555.8 905.47,552.62 902.5,544.67 907.73,532.6 906.46,526.64 903.87,525.1 897.45,524.84 894.94,523.45 888.55,516.08 876.21,497.64 874.51,494.31 873.81,487.2 871.63,481.84 867.52,478.46 861.19,477.25 857.73,473.88 853.29,458 847.97,452.7 846.34,455.11 831.04,441.41 827.49,436.57 822.66,433.31 816.22,416.87 807.46,405.67 805.85,393.94 797,388.48 794.33,387.76 785.5,389.84 782.85,389.7 778.8,387.02 772.42,380.05 766.15,378.6 763.51,380.01 758.13,384.85 755.47,383.87 745.72,375.98 736.49,362.39 732.65,360.48 727.42,361.18" fill="none" stroke="#1e1e1e" stroke-width="1.45" stroke-linecap="round" stroke-linejoin="round"/>
<polyline points="617.22,340.96 645.7,367.09 649.26,369.45 656.56,371.56 666.83,377.49 670.68,383.15 672.93,384.06 675.13,383.21 682.5,375.26 686.36,373.3 696.22,379.49 702.56,385.22 706.79,384.47 708.76,381.61 713.86,368.96 722.16,363.13 727.42,361.18" fill="none" stroke="#1e1e1e" stroke-width="1.45" stroke-linecap="round" stroke-linejoin="round"/>
<text x="1003.78" y="846.27" font-family="sans-serif" font-size="14" stroke="#ffffff" stroke-opacity="0.784" stroke-width="2.33" stroke-linejoin="round" paint-order="stroke" fill="#141414">Nakdong</text>
<text x="947.04" y="555.2" font-family="sans-serif" font-size="14" stroke="#ffffff" stroke-opacity="0.784" stroke-width="2.33" stroke-linejoin="round" paint-order="stroke" fill="#141414">Namhan</text>
<text x="657.95" y="390.66" font-family="sans-serif" font-size="14" stroke="#ffffff" stroke-opacity="0.784" stroke-width="2.33" stroke-linejoin="round" paint-order="stroke" fill="#141414">Han</text>
</svg>
