<?xml version="1.0" encoding="UTF-8" standalone="no"?>
<svg xmlns="http://www.w3.org/2000/svg" width="1197" height="2000" viewBox="0 0 1197 2000">
<rect width="1197" height="2000" fill="#ffffff"/>
<polyline points="651.76,1325 637.25,1312.55 631.39,1310.4 625.54,1311.78 618.1,1310.58 608.35,1307.06 598.79,1304.81 590.35,1300.75 580.79,1292.48 576.4,1287.17" fill="none" stroke="#1e1e1e" stroke-width="1.77" stroke-linecap="round" stroke-linejoin="round"/>
<polyline points="743.94,1038.71 752.46,1027.39 762.05,1017.08 772.34,1012.26 780.79,1006.84 786.92,999.73 790.1,990.27 800.39,974.52 811.18,961.11 818.78,938.96" fill="none" stroke="#1e1e1e" stroke-width="1.77" stroke-linecap="round" stroke-linejoin="round"/>
<polyline points="576.4,1287.17 569.87,1281.54 561.89,1291.71 555.38,1308.68 552.55,1323.43 552.74,1340.12 551.39,1347.67 547.32,1354.52 542.05,1359.44 538.58,1366.22 538.53,1370.56 542,1375.67 534.87,1385.31 532.97,1391.89 535.21,1398.4 541.99,1404.68 548.87,1407.07 562.48,1404.93 569.56,1404.68 580,1407.45 580.1,1411.01 576.63,1416.54 576.39,1425.31" fill="none" stroke="#1e1e1e" stroke-width="1.77" stroke-linecap="round" stroke-linejoin="round"/>
<polyline points="743.94,1038.71 742.08,1087.65 745.69,1098.99 746.77,1108.7 737.2,1156.19 744.11,1273.38 755.03,1309.83 754.19,1326.14 740.74,1338.69 730.06,1341.7 723.72,1345.58 702.98,1341.35 681.57,1344.56 663.23,1343.11 651.76,1325" fill="none" stroke="#1e1e1e" stroke-width="1.77" stroke-linecap="round" stroke-linejoin="round"/>
<polyline points="955.3,810.63 910.6,805.91 897.15,810.72 887.02,822.17 883.56,835.78 881.83,849.95 877.17,862.95 874.55,865.08 868.22,865.86 864.92,867.96 863.49,871.65 864.23,880.18 863.23,883.59 857.18,888.09 841.2,893.92 835.77,897.05 822.48,914.25 820.83,921.9 820.11,935.76 818.78,938.96" fill="none" stroke="#1e1e1e" stroke-width="1.77" stroke-linecap="round" stroke-linejoin="round"/>
<text x="702.79" y="1249.53" font-family="sans-serif" font-size="14" stroke="#ffffff" stroke-opacity="0.784" stroke-width="2.33" stroke-linejoin="round" paint-order="stroke" fill="#141414">Mahaweli</text>
<text x="749.05" y="1001.87" font-family="sans-serif" font-size="14" stroke="#ffffff" stroke-opacity="0.784" stroke-width="2.33" stroke-linejoin="round" paint-order="stroke" fill="#141414">Mahaweli</text>
</svg>
