<?xml version="1.0" encoding="UTF-8" standalone="no"?>
<svg xmlns="http://www.w3.org/2000/svg" width="1197" height="2000" viewBox="0 0 1197 2000">
<rect width="1197" height="2000" fill="#ffffff"/>
<path d="M109.09,168.07L114.15,170.83L117.15,186.75L115.94,191.62L111.43,195.77L103.71,194.96L79.15,180.18L77.23,158.99L81.52,154.55L83.58,156.49L86.87,155.65L91.75,162.82L97.69,167.05L109.09,168.07Z" fill-rule="evenodd" fill="#4682b4" fill-opacity="0.471"/>
<polyline points="109.09,168.07 114.15,170.83 117.15,186.75 115.94,191.62 111.43,195.77 103.71,194.96 79.15,180.18 77.23,158.99 81.52,154.55 83.58,156.49 86.87,155.65 91.75,162.82 97.69,167.05 109.09,168.07" fill="none" stroke="#1e1e1e" stroke-width="1.77" stroke-linecap="round" stroke-linejoin="round"/>
<path d="M236.04,286.31L244.24,281.06L246.44,289.92L248.4,291.12L249.07,288.45L252.97,290.66L252.49,294.66L253.94,294.65L250.1,298.59L245.72,291.74L239,293.88L236.18,290.81L236.04,286.31Z" fill-rule="evenodd" fill="#4682b4" fill-opacity="0.471"/>
<polyline points="236.04,286.31 244.24,281.06 246.44,289.92 248.4,291.12 249.07,288.45 252.97,290.66 252.49,294.66 253.94,294.65 250.1,298.59 245.72,291.74 239,293.88 236.18,290.81 236.04,286.31" fill="none" stroke="#1e1e1e" stroke-width="1.77" stroke-linecap="round" stroke-linejoin="round"/>
<path d="M61.54,398.6L65.87,401.19L61.66,400.26L61.54,398.6Z" fill-rule="evenodd" fill="#4682b4" fill-opacity="0.471"/>
<polyline points="61.54,398.6 65.87,401.19 61.66,400.26 61.54,398.6" fill="none" stroke="#1e1e1e" stroke-width="1.77" stroke-linecap="round" stroke-linejoin="round"/>
<path d="M166.23,1337.4L166.16,1341.12L165.26,1341.33L163.83,1337.87L166.23,1337.4Z" fill-rule="evenodd" fill="#4682b4" fill-opacity="0.471"/>
<polyline points="166.23,1337.4 166.16,1341.12 165.26,1341.33 163.83,1337.87 166.23,1337.4" fill="none" stroke="#1e1e1e" stroke-width="1.77" stroke-linecap="round" stroke-linejoin="round"/>
<path d="M286.62,273.54L291.77,273.45L295.51,277.91L289.87,277.41L286.62,273.54Z" fill-rule="evenodd" fill="#4682b4" fill-opacity="0.471"/>
<polyline points="286.62,273.54 291.77,273.45 295.51,277.91 289.87,277.41 286.62,273.54" fill="none" stroke="#1e1e1e" stroke-width="1.77" stroke-linecap="round" stroke-linejoin="round"/>
<path d="M13.32,236.65L16.94,238.65L16.62,241.06L14,240.74L13.32,236.65Z" fill-rule="evenodd" fill="#4682b4" fill-opacity="0.471"/>
<polyline points="13.32,236.65 16.94,238.65 16.62,241.06 14,240.74 13.32,236.65" fill="none" stroke="#1e1e1e" stroke-width="1.77" stroke-linecap="round" stroke-linejoin="round"/>
<path d="M283.43,128.04L285.67,128.4L293.83,133.58L288.71,131.63L283.43,128.04Z" fill-rule="evenodd" fill="#4682b4" fill-opacity="0.471"/>
<polyline points="283.43,128.04 285.67,128.4 293.83,133.58 288.71,131.63 283.43,128.04" fill="none" stroke="#1e1e1e" stroke-width="1.77" stroke-linecap="round" stroke-linejoin="round"/>
<path d="M158.46,74.33L157.77,89.75L155.15,84.66L158.46,74.33Z" fill-rule="evenodd" fill="#4682b4" fill-opacity="0.471"/>
<polyline points="158.46,74.33 157.77,89.75 155.15,84.66 158.46,74.33" fill="none" stroke="#1e1e1e" stroke-width="1.77" stroke-linecap="round" stroke-linejoin="round"/>
<path d="M142.8,88.62L143.11,97.33L144.9,99.47L141.42,104.63L136.34,106.85L133.78,105.44L133.52,102.09L142.8,88.62Z" fill-rule="evenodd" fill="#4682b4" fill-opacity="0.471"/>
<polyline points="142.8,88.62 143.11,97.33 144.9,99.47 141.42,104.63 136.34,106.85 133.78,105.44 133.52,102.09 142.8,88.62" fill="none" stroke="#1e1e1e" stroke-width="1.77" stroke-linecap="round" stroke-linejoin="round"/>
<path d="M137.14,108.81L138.21,106.6L140,106.95L139.45,110.39L137.14,108.81Z" fill-rule="evenodd" fill="#4682b4" fill-opacity="0.471"/>
<polyline points="137.14,108.81 138.21,106.6 140,106.95 139.45,110.39 137.14,108.81" fill="none" stroke="#1e1e1e" stroke-width="1.77" stroke-linecap="round" stroke-linejoin="round"/>
<path d="M148.44,132.55L149.91,135.26L147.62,137.9L147,134.92L148.44,132.55Z" fill-rule="evenodd" fill="#4682b4" fill-opacity="0.471"/>
<polyline points="148.44,132.55 149.91,135.26 147.62,137.9 147,134.92 148.44,132.55" fill="none" stroke="#1e1e1e" stroke-width="1.77" stroke-linecap="round" stroke-linejoin="round"/>
<path d="M178.97,59.27L182.85,51.07L191.93,51.45L202.05,48.67L201.05,50.66L197.09,50.26L199.74,55.16L199.23,61.58L195.28,68.43L197.41,75.44L191.25,80.45L176.25,75.89L181.92,68.75L178.97,59.27Z" fill-rule="evenodd" fill="#4682b4" fill-opacity="0.471"/>
<polyline points="178.97,59.27 182.85,51.07 191.93,51.45 202.05,48.67 201.05,50.66 197.09,50.26 199.74,55.16 199.23,61.58 195.28,68.43 197.41,75.44 191.25,80.45 176.25,75.89 181.92,68.75 178.97,59.27" fill="none" stroke="#1e1e1e" stroke-width="1.77" stroke-linecap="round" stroke-linejoin="round"/>
<path d="M156.56,133.29L153.85,131.69L157.77,118.91L159.75,122.07L161.58,119.76L160.73,123.51L162.67,127.69L163.74,125.76L171.95,128.67L172.98,122.86L174.87,123.62L183.18,131.12L180.37,136.29L181.74,147.22L172.63,148.99L152.83,143.91L152.73,137.81L155.48,137.61L156.56,133.29Z" fill-rule="evenodd" fill="#4682b4" fill-opacity="0.471"/>
<polyline points="156.56,133.29 153.85,131.69 157.77,118.91 159.75,122.07 161.58,119.76 160.73,123.51 162.67,127.69 163.74,125.76 171.95,128.67 172.98,122.86 174.87,123.62 183.18,131.12 180.37,136.29 181.74,147.22 172.63,148.99 152.83,143.91 152.73,137.81 155.48,137.61 156.56,133.29" fill="none" stroke="#1e1e1e" stroke-width="1.77" stroke-linecap="round" stroke-linejoin="round"/>
<path d="M255.29,199.81L252.49,193.15L253.21,190.89L259.29,192.63L257.91,199.78L255.29,199.81Z" fill-rule="evenodd" fill="#4682b4" fill-opacity="0.471"/>
<polyline points="255.29,199.81 252.49,193.15 253.21,190.89 259.29,192.63 257.91,199.78 255.29,199.81" fill="none" stroke="#1e1e1e" stroke-width="1.77" stroke-linecap="round" stroke-linejoin="round"/>
<path d="M194.31,82.73L201.06,90.51L199.09,94.83L200.79,97.21L216.16,91.69L218.37,94.25L217,95.46L217.04,93.67L215.88,93.06L216.86,97.4L215.08,98.1L216.98,99.35L214.02,99.82L213.1,100.96L214.22,100.06L217.24,100.92L213.99,100.53L213.04,102.65L234.52,116.35L242.96,115.1L242.72,120.23L238.61,126.02L231.99,125.59L224.76,119.99L212.03,116.02L208.88,116.49L204.94,124.01L201.64,124.61L191.13,115.76L187.27,115.08L183.35,103.38L174.69,93.87L173.19,89.38L176.29,86.48L171.62,81L183.04,80.69L187.74,85.79L194.31,82.73Z" fill-rule="evenodd" fill="#4682b4" fill-opacity="0.471"/>
<polyline points="194.31,82.73 201.06,90.51 199.09,94.83 200.79,97.21 216.16,91.69 218.37,94.25 217,95.46 217.04,93.67 215.88,93.06 216.86,97.4 215.08,98.1 216.98,99.35 214.02,99.82 213.1,100.96 214.22,100.06 217.24,100.92 213.99,100.53 213.04,102.65 234.52,116.35 242.96,115.1 242.72,120.23 238.61,126.02 231.99,125.59 224.76,119.99 212.03,116.02 208.88,116.49 204.94,124.01 201.64,124.61 191.13,115.76 187.27,115.08 183.35,103.38 174.69,93.87 173.19,89.38 176.29,86.48 171.62,81 183.04,80.69 187.74,85.79 194.31,82.73" fill="none" stroke="#1e1e1e" stroke-width="1.77" stroke-linecap="round" stroke-linejoin="round"/>
<path d="M853.67,665.75L851.06,666.97L849.71,662.92L853.87,662.88L853.67,665.75Z" fill-rule="evenodd" fill="#4682b4" fill-opacity="0.471"/>
<polyline points="853.67,665.75 851.06,666.97 849.71,662.92 853.87,662.88 853.67,665.75" fill="none" stroke="#1e1e1e" stroke-width="1.77" stroke-linecap="round" stroke-linejoin="round"/>
<path d="M150.02,766.85L153.17,767.69L152.17,769.19L154.51,770.87L151.95,770.73L154.29,773.47L152.59,774.12L156.87,777.08L153.56,777.34L150.02,766.85Z" fill-rule="evenodd" fill="#4682b4" fill-opacity="0.471"/>
<polyline points="150.02,766.85 153.17,767.69 152.17,769.19 154.51,770.87 151.95,770.73 154.29,773.47 152.59,774.12 156.87,777.08 153.56,777.34 150.02,766.85" fill="none" stroke="#1e1e1e" stroke-width="1.77" stroke-linecap="round" stroke-linejoin="round"/>
<path d="M147,788.22L147.58,784.01L150.9,784.73L147.68,784.66L147.61,788.88L150.38,787.3L149.6,789.99L148.04,789.87L147,788.22Z" fill-rule="evenodd" fill="#4682b4" fill-opacity="0.471"/>
<polyline points="147,788.22 147.58,784.01 150.9,784.73 147.68,784.66 147.61,788.88 150.38,787.3 149.6,789.99 148.04,789.87 147,788.22" fill="none" stroke="#1e1e1e" stroke-width="1.77" stroke-linecap="round" stroke-linejoin="round"/>
<path d="M155.94,855.03L154.05,856.03L152.46,850.08L155.94,855.03Z" fill-rule="evenodd" fill="#4682b4" fill-opacity="0.471"/>
<polyline points="155.94,855.03 154.05,856.03 152.46,850.08 155.94,855.03" fill="none" stroke="#1e1e1e" stroke-width="1.77" stroke-linecap="round" stroke-linejoin="round"/>
<path d="M138.85,686.58L143.68,675.01L141.64,666.97L142.93,666.48L144.66,673.76L143.86,681.48L141.91,682.31L140.04,689.85L141.34,696.28L143.1,700.78L146.04,701.62L145.03,704.83L148.08,709.57L153.19,712.22L148.49,710.46L144.49,704.47L139.91,692.68L138.85,686.58Z" fill-rule="evenodd" fill="#4682b4" fill-opacity="0.471"/>
<polyline points="138.85,686.58 143.68,675.01 141.64,666.97 142.93,666.48 144.66,673.76 143.86,681.48 141.91,682.31 140.04,689.85 141.34,696.28 143.1,700.78 146.04,701.62 145.03,704.83 148.08,709.57 153.19,712.22 148.49,710.46 144.49,704.47 139.91,692.68 138.85,686.58" fill="none" stroke="#1e1e1e" stroke-width="1.77" stroke-linecap="round" stroke-linejoin="round"/>
<path d="M139.91,806.21L137.42,803.6L138.52,799.72L142.18,803.51L139.91,806.21Z" fill-rule="evenodd" fill="#4682b4" fill-opacity="0.471"/>
<polyline points="139.91,806.21 137.42,803.6 138.52,799.72 142.18,803.51 139.91,806.21" fill="none" stroke="#1e1e1e" stroke-width="1.77" stroke-linecap="round" stroke-linejoin="round"/>
<path d="M342.42,135.04L346.48,132.04L346.51,134.75L342.42,135.04Z" fill-rule="evenodd" fill="#4682b4" fill-opacity="0.471"/>
<polyline points="342.42,135.04 346.48,132.04 346.51,134.75 342.42,135.04" fill="none" stroke="#1e1e1e" stroke-width="1.77" stroke-linecap="round" stroke-linejoin="round"/>
<path d="M277.9,268.36L276.22,264.7L278.59,259.66L280.55,267.97L277.9,268.36Z" fill-rule="evenodd" fill="#4682b4" fill-opacity="0.471"/>
<polyline points="277.9,268.36 276.22,264.7 278.59,259.66 280.55,267.97 277.9,268.36" fill="none" stroke="#1e1e1e" stroke-width="1.77" stroke-linecap="round" stroke-linejoin="round"/>
<path d="M413.26,201.17L405.49,199.34L402.51,193.67L413.26,201.17Z" fill-rule="evenodd" fill="#4682b4" fill-opacity="0.471"/>
<polyline points="413.26,201.17 405.49,199.34 402.51,193.67 413.26,201.17" fill="none" stroke="#1e1e1e" stroke-width="1.77" stroke-linecap="round" stroke-linejoin="round"/>
<path d="M179.05,115.09L182.11,119.33L181.64,124.2L178.06,120.57L177.16,115.49L179.05,115.09Z" fill-rule="evenodd" fill="#4682b4" fill-opacity="0.471"/>
<polyline points="179.05,115.09 182.11,119.33 181.64,124.2 178.06,120.57 177.16,115.49 179.05,115.09" fill="none" stroke="#1e1e1e" stroke-width="1.77" stroke-linecap="round" stroke-linejoin="round"/>
<path d="M139.08,122.73L138.29,140.32L133.14,137.74L132.81,125.84L136.71,121.47L139.08,122.73Z" fill-rule="evenodd" fill="#4682b4" fill-opacity="0.471"/>
<polyline points="139.08,122.73 138.29,140.32 133.14,137.74 132.81,125.84 136.71,121.47 139.08,122.73" fill="none" stroke="#1e1e1e" stroke-width="1.77" stroke-linecap="round" stroke-linejoin="round"/>
<path d="M252.07,108.3L257.51,111.88L254,110.51L252.07,108.3Z" fill-rule="evenodd" fill="#4682b4" fill-opacity="0.471"/>
<polyline points="252.07,108.3 257.51,111.88 254,110.51 252.07,108.3" fill="none" stroke="#1e1e1e" stroke-width="1.77" stroke-linecap="round" stroke-linejoin="round"/>
<path d="M149.61,136.45L152.32,138.77L151.62,143.15L147.25,140.57L149.61,136.45Z" fill-rule="evenodd" fill="#4682b4" fill-opacity="0.471"/>
<polyline points="149.61,136.45 152.32,138.77 151.62,143.15 147.25,140.57 149.61,136.45" fill="none" stroke="#1e1e1e" stroke-width="1.77" stroke-linecap="round" stroke-linejoin="round"/>
<path d="M168.62,1337.77L162.84,1336.94L168.16,1329.52L169.27,1298.08L143.75,1170.37L142.23,1136.3L148.04,1131.81L149.53,1119.49L147.54,1086.08L141.56,1051.44L121.97,971.39L102.85,909.46L103.32,890.61L100.52,881.39L102.91,864.12L96.33,832.07L101.5,827.57L104.32,828.79L97.88,832.27L108.91,828.73L105.3,828.79L116.54,821.11L121.56,799.66L129.77,783.93L135.5,765.59L137.16,749.2L138.44,747.48L141.47,746.4L139.57,748.48L142.44,753.21L129.11,785.83L133.74,786.61L128.96,789.56L126.25,794.62L129.28,798.68L125.18,805.3L129.43,803.31L128.11,800.81L130.8,800.77L131.69,803.31L125.94,813.34L119.71,812.02L120.43,815.98L115.68,823.3L119.94,822.03L133.55,806.16L138.27,806.61L132.78,816.64L135.06,823.27L134.4,828.85L131.24,829.24L128.13,825.03L118.71,836.67L124.49,846.58L121.48,849.8L123.1,854.29L119.83,858.56L119.2,865.57L116.09,865.72L113.85,869.12L113.41,876.51L118.39,882.93L115.28,894.9L119.02,902.15L127.26,906.34L120.64,910.98L122.82,919.63L117.81,930.4L122.82,941.37L127.28,943.9L143.35,948.96L156.94,950.2L161.72,948.39L158.85,939.9L165.84,937.64L166.65,929.21L160.25,918.53L145.87,903.94L144.52,900.1L144.87,898.76L146.94,902.11L149.78,899.71L145.08,897.3L144.74,894.61L149.73,896.26L156.8,888.65L159.78,875.19L161.2,876.48L166.95,872.92L167.12,868.53L164.66,864.7L166.49,862.37L159.3,856.09L160.34,850.66L157.88,847.1L161.36,848.32L161.77,846.41L159.22,834.54L146.96,825.54L146.21,824.07L146.31,823.38L149.17,826.45L155.1,825.46L149.91,820.96L146.02,822.7L144.6,820.64L154.87,818.3L158.09,803.1L161.77,795.75L166.61,791.58L166.07,786.19L168.15,786.63L168.58,781.22L166.07,774.9L169.57,770.79L169.43,764.23L172.97,761.39L171.42,725.75L173.78,716.23L182.2,710.59L180.88,699.29L182.7,695.59L184.32,671.6L187.12,666.34L192.41,668.09L209.11,659.87L210.13,639.36L216.8,629.87L220.31,628.05L223.11,621.34L221.26,609.78L226.11,596.12L223.6,590.76L225.65,589.48L224.73,581.51L229.86,573.64L217.02,544.64L207.32,530L213.87,499.8L213.69,508.18L217.74,500.53L217.03,494.48L214.51,500.12L213.5,485.2L194.2,454.7L196.28,456.77L197.95,454.28L204.17,455.56L201.2,461.74L197.04,458.91L205.62,470.22L207.25,464.39L203.45,465.67L201.72,463.61L205.7,457.04L210.04,458.92L208.13,456.12L209.91,454.54L208.19,447.83L212.1,462.3L215.35,461.91L215.87,463.92L225.84,461.99L227.6,455.82L231.77,451.84L243.9,446.26L245.53,437.07L252.42,434.2L256.66,429.07L270.28,426.74L269.48,424.77L274.01,419.91L278.58,408.39L284.34,402.21L284.98,391.1L288.59,385.05L287.04,381.43L288,371.41L300.44,353.25L303.12,343.08L302.32,335.6L304.09,333.81L303.79,335.84L305.23,335.54L309.35,328.54L308.52,312.47L310.59,306.82L305.04,296.45L311.25,285.36L307.86,279.94L295.34,270.67L292.82,269.26L285.49,271.03L281.89,268.41L282.12,262.99L279.73,258.75L281.64,255.28L277.5,250.74L277.02,238.37L286.47,231.87L306.16,225.2L311.96,219.97L322.11,215.82L335.47,199.82L341.18,196.81L342.78,191.54L335.18,177.88L321.37,163.49L296.92,144.6L276.39,133.4L281.28,127.1L282.67,132.62L286.29,133.96L287.9,132.61L287.94,134.53L296.32,136.15L300.51,140.08L304.25,139.47L304.2,143.29L307.31,145.75L313.08,143.94L321.66,154.31L339.71,162.92L347.62,160.33L349.59,146.5L347.76,160.57L346.29,162.91L347.09,164.05L345.42,164.82L347.55,164.45L349.01,162.9L352.88,167.34L359.33,169.35L361.46,165.72L371.26,173.78L390.04,185.69L370.62,180.03L370.59,182.49L374.99,186.93L388.39,195.71L382.5,194.94L378.46,197.42L371.61,194.66L366.87,195.79L372.5,199.95L376.38,199.5L389.33,205.79L393.44,205.27L393.22,208.57L396.45,207.4L394.61,205.99L395.66,204.1L401.2,205.68L405.46,202.15L415.75,205.66L418.31,203.27L419.39,196.57L425.03,200.1L438.88,193.42L443.32,193.39L447.65,181.48L444.31,175.55L440.64,175.64L417.54,149.73L403.76,140.53L400.81,141.38L397.84,137.1L365.35,118.17L338.01,105.52L331.55,104.96L332.86,106.4L331,105.76L328.29,110.19L331.25,114.76L336.4,114.43L334.33,119.4L335.89,121.61L329.76,120.88L338.43,125.24L338.74,127.99L335,128.38L336.64,131.34L340.26,131.31L342.6,132.67L342.5,135.42L354.05,140.06L350.31,141.39L349.74,145.51L349.79,142.53L333.98,133.07L324.56,123.48L295.91,108.37L285.31,100.3L284.38,101.5L288.71,103.08L290.51,111.84L299.22,115.28L310.44,126.65L317.29,128.71L299.37,123.65L275.04,108.02L268.83,109.62L260.31,107.61L256.65,103.39L252.36,102.38L249.63,88.42L244.83,86.47L243.23,89.87L240.74,89.8L234.21,83.11L233.63,78.84L228.17,88.17L222.43,86.73L222.48,84.93L220.78,85.92L216.18,75.36L216.91,70.21L212.62,64.53L213.78,62.94L205.07,54.71L204.16,47.64L206.82,44.13L216.29,42.99L222.35,39.02L224.51,34.65L236.13,29.34L268.85,23.13L264.05,20.54L286.02,26.5L300.91,27.67L320.17,19.42L334.72,19.68L358.03,14.38L367.63,18.05L373.4,17.87L376.85,20.51L390.99,48.41L414.47,82.5L431.27,101.24L584.2,224.18L618.59,258.56L643.82,277.29L654.01,288.71L669.83,318.85L676.62,343.55L685.59,364.74L730.88,442.61L746.22,464.91L749.47,467.75L751.28,466.21L760.59,486.16L767.56,495.96L780.58,506.99L787.08,501.24L786.06,504.39L789.97,505.5L793.57,518.54L802.29,533.02L816.61,550.75L821.07,551.88L825.22,560.54L834.59,569.38L848.33,596.31L859.81,609.7L858.73,617.07L860.55,622.04L856.89,626.26L857.26,632.75L863.86,646.71L867.36,648.42L870.06,645.25L869.57,648.62L866.5,650.98L869.07,656.54L871.84,655.63L869.27,658.21L870.07,663.52L860.77,668.91L863.18,662.88L857.97,664.54L864.26,656.19L863.55,653.77L859.31,648.65L850.91,653.97L858,645.74L857.09,644.46L848.64,652.54L849.47,648.82L847.33,647.05L846.57,650.04L843.37,650.86L846.75,651.77L845.64,653.59L847.34,655.03L845.45,653.58L843.05,655.08L843.15,658.86L850.27,659.64L844.24,662.13L843.09,664.56L848.66,665.46L846.51,667.03L849.93,668.97L847.83,669.28L847.83,671.97L854.13,670.83L849.75,673.03L851.7,673.47L851,677L853.79,682.03L846.61,683.91L843.42,682.56L840.15,680.32L841.93,671.18L839.89,669L837.15,668.63L836.05,673.94L830.79,667.3L823.67,663.53L822.1,670.94L818.6,675.33L814.05,680.68L807.81,682.39L810.79,689.45L816.58,692.67L819.42,690.75L822.14,683.22L832.46,679.88L836.37,681.07L842.69,683.98L844.23,694.15L848.77,702.33L862.63,707.13L863.75,705.32L873.92,706.79L886.47,704.32L891.11,693.95L887.24,683.21L898.04,682.07L903.44,679.03L906.36,673.92L923.66,688.81L923.59,694.91L937.64,748.64L943.4,757.43L941.03,758.9L941.51,773.52L944.59,780.79L953.77,826.81L958.43,834.37L959.91,843.63L964.36,848.65L963.21,854.61L966.48,869.5L971.9,879.38L977.29,882.9L976.15,892.44L983.49,916.7L992.68,932L1010.19,945.74L1015.61,945.96L1020.19,941.18L1022.95,942.2L1023.69,945.29L1018.81,948.73L1017.09,953.15L1018.53,962.72L1021.79,967.48L1025.7,966.9L1027.71,968.99L1029.52,975.66L1034.71,975.05L1038.5,978.45L1031.66,979.47L1029.06,988.41L1030.32,999.66L1036.16,1013.75L1049.04,1026.36L1053.07,1027.32L1057.13,1024.65L1064.53,1039.35L1072.95,1049.33L1097.52,1063.74L1125.25,1108.41L1140.45,1139.32L1150.3,1175.12L1159.11,1221.47L1166.77,1232.5L1180.42,1278.04L1179.84,1289.43L1182.5,1302.87L1180.01,1311.66L1176.35,1380.23L1182.35,1416.76L1187.41,1430.17L1180.91,1448.78L1181.96,1455.27L1170.04,1488.42L1172.31,1492.74L1169.65,1499.26L1171.23,1506.05L1164.67,1514.52L1164.32,1520.29L1168.25,1523.67L1159.82,1534.35L1160.13,1541.5L1157.56,1548.69L1160.31,1552.37L1161.45,1560.17L1149.71,1575.63L1148.01,1589.18L1134.93,1606.85L1133.95,1613.09L1137.35,1619.35L1134.08,1630.1L1128.85,1638.62L1130.15,1644.93L1118.64,1656.31L1110.93,1675.06L1095.12,1700.03L1079.74,1711.1L1077.76,1716.37L1073,1720.88L1057.91,1728.16L1055.9,1732.55L1058.05,1735.31L1048.58,1744.01L1032.55,1752.88L1030.71,1756.02L1032.03,1757.5L1027.21,1760.49L1012.72,1763.07L1000.13,1769.56L997.55,1772.94L999.09,1775.5L990.58,1783.02L989.33,1788.91L968.12,1797.18L949.4,1819.37L938.38,1822.35L935.18,1827.07L918.9,1833.12L917.76,1837.79L911.06,1842.63L910.77,1845.47L896.98,1846.86L884.2,1852.41L866.84,1855.24L861.69,1860.25L861.71,1862.91L839.06,1866.63L832.94,1872.32L824.18,1873.87L820.86,1877.52L814.72,1878.58L811.91,1882.21L814.43,1884.91L802.78,1885.38L802.15,1887.22L801.56,1881.56L798.49,1878.22L792.7,1878.41L792.75,1880.51L797.15,1881.18L799.4,1886.13L797.31,1888.1L800.69,1888.77L795.62,1890.85L792.69,1889.36L796.11,1887.75L749.41,1894.63L737.06,1901.9L720.64,1903.37L717.04,1905.17L716.62,1907.92L700.58,1913.46L685.48,1915.77L678.79,1924.51L673.77,1922.75L653.63,1926.31L647.91,1930.48L648.27,1935.31L643.32,1936.54L638.94,1942.67L622.58,1946.69L620.84,1950.55L623.35,1951.4L618.87,1952.2L616.41,1955.04L617.21,1959.91L613.42,1956.25L609.78,1956.72L608.5,1963.5L606.92,1963.7L607.66,1965.17L609.43,1965.97L603.16,1966.13L602.29,1964.58L601.62,1966.36L598.02,1966.36L596.94,1964.25L592.37,1964.76L591.34,1966.88L572.94,1968.59L570.01,1969.74L567.88,1974.04L566.25,1972.02L559.49,1973.36L556.37,1980.92L554.86,1979.64L550.12,1982.95L545.62,1983.05L545.27,1986.43L540.72,1986.61L538.12,1979.47L527.14,1975.3L520.07,1974.54L508.48,1978.41L495.05,1975.85L485.14,1977.32L476.73,1973.64L474.92,1975.4L469.85,1972.71L473.87,1972.03L474.97,1964.27L466.97,1959.63L461.06,1960.71L456.68,1968.62L454.25,1966.43L433.24,1962.26L405.33,1950.07L382.94,1946.93L372.69,1941.01L369.38,1943.04L365.19,1936.87L367.98,1935.61L369.13,1931.39L367.24,1929.54L362.45,1930.37L363.7,1928.27L359.27,1927.41L356.6,1929.97L357.79,1932.23L356.52,1933.77L352.38,1927.58L342.9,1923.39L332.84,1912.32L309.45,1894.73L309.8,1890.16L297.63,1879.5L297.14,1870.87L293.38,1866.97L292.07,1861.58L279.26,1849.53L279.64,1843.43L273.83,1826.75L264.34,1809.85L264.51,1802.33L266.89,1798.18L261.93,1787.73L262.13,1779.12L253.03,1760.63L249.95,1744.22L245.01,1735.58L245,1729.44L234.6,1712.99L234.46,1708.39L239.42,1704.66L236.01,1690.88L238.78,1687.99L227.29,1658.87L228.71,1657.05L226.64,1649.84L206.67,1601.88L196.45,1584.61L198.29,1582.98L179.78,1530.07L177.92,1509.79L169.98,1478.31L163.52,1479.31L160.11,1476.35L161.98,1474.02L160.28,1470.63L159.52,1472.61L159.72,1463.3L163.85,1458.91L161.46,1462.28L161.79,1469.23L167.95,1469.25L168.43,1461.56L171.53,1466.04L169.85,1472L172.09,1471L172.29,1473L175.29,1465.23L176.95,1465.12L175.34,1464.72L176.72,1462.76L175.02,1463.06L176.72,1461.53L175.05,1461.41L180.94,1458.99L183.59,1452.77L169.88,1386.33L159.31,1351.77L158.35,1337.4L161.57,1336.86L164,1340.21L160.17,1349.55L164.76,1365.24L167.92,1368.29L167.98,1375.99L172.13,1381.21L170.86,1385.64L176.6,1390.85L175.22,1388.03L177.35,1388.6L176.37,1385.36L178.28,1385.27L179.91,1378.29L181.15,1385.18L182.97,1383.27L186.14,1385.56L183.55,1382.52L181.69,1362.93L182.92,1365.33L183.59,1365.26L174.91,1343.58L172.63,1341.51L166.86,1343.56L168.62,1337.77Z" fill-rule="evenodd" fill="#4682b4" fill-opacity="0.471"/>
<polyline points="168.62,1337.77 162.84,1336.94 168.16,1329.52 169.27,1298.08 143.75,1170.37 142.23,1136.3 148.04,1131.81 149.53,1119.49 147.54,1086.08 141.56,1051.44 121.97,971.39 102.85,909.46 103.32,890.61 100.52,881.39 102.91,864.12 96.33,832.07 101.5,827.57 104.32,828.79 97.88,832.27 108.91,828.73 105.3,828.79 116.54,821.11 121.56,799.66 129.77,783.93 135.5,765.59 137.16,749.2 138.44,747.48 141.47,746.4 139.57,748.48 142.44,753.21 129.11,785.83 133.74,786.61 128.96,789.56 126.25,794.62 129.28,798.68 125.18,805.3 129.43,803.31 128.11,800.81 130.8,800.77 131.69,803.31 125.94,813.34 119.71,812.02 120.43,815.98 115.68,823.3 119.94,822.03 133.55,806.16 138.27,806.61 132.78,816.64 135.06,823.27 134.4,828.85 131.24,829.24 128.13,825.03 118.71,836.67 124.49,846.58 121.48,849.8 123.1,854.29 119.83,858.56 119.2,865.57 116.09,865.72 113.85,869.12 113.41,876.51 118.39,882.93 115.28,894.9 119.02,902.15 127.26,906.34 120.64,910.98 122.82,919.63 117.81,930.4 122.82,941.37 127.28,943.9 143.35,948.96 156.94,950.2 161.72,948.39 158.85,939.9 165.84,937.64 166.65,929.21 160.25,918.53 145.87,903.94 144.52,900.1 144.87,898.76 146.94,902.11 149.78,899.71 145.08,897.3 144.74,894.61 149.73,896.26 156.8,888.65 159.78,875.19 161.2,876.48 166.95,872.92 167.12,868.53 164.66,864.7 166.49,862.37 159.3,856.09 160.34,850.66 157.88,847.1 161.36,848.32 161.77,846.41 159.22,834.54 146.96,825.54 146.21,824.07 146.31,823.38 149.17,826.45 155.1,825.46 149.91,820.96 146.02,822.7 144.6,820.64 154.87,818.3 158.09,803.1 161.77,795.75 166.61,791.58 166.07,786.19 168.15,786.63 168.58,781.22 166.07,774.9 169.57,770.79 169.43,764.23 172.97,761.39 171.42,725.75 173.78,716.23 182.2,710.59 180.88,699.29 182.7,695.59 184.32,671.6 187.12,666.34 192.41,668.09 209.11,659.87 210.13,639.36 216.8,629.87 220.31,628.05 223.11,621.34 221.26,609.78 226.11,596.12 223.6,590.76 225.65,589.48 224.73,581.51 229.86,573.64 217.02,544.64 207.32,530 213.87,499.8 213.69,508.18 217.74,500.53 217.03,494.48 214.51,500.12 213.5,485.2 194.2,454.7 196.28,456.77 197.95,454.28 204.17,455.56 201.2,461.74 197.04,458.91 205.62,470.22 207.25,464.39 203.45,465.67 201.72,463.61 205.7,457.04 210.04,458.92 208.13,456.12 209.91,454.54 208.19,447.83 212.1,462.3 215.35,461.91 215.87,463.92 225.84,461.99 227.6,455.82 231.77,451.84 243.9,446.26 245.53,437.07 252.42,434.2 256.66,429.07 270.28,426.74 269.48,424.77 274.01,419.91 278.58,408.39 284.34,402.21 284.98,391.1 288.59,385.05 287.04,381.43 288,371.41 300.44,353.25 303.12,343.08 302.32,335.6 304.09,333.81 303.79,335.84 305.23,335.54 309.35,328.54 308.52,312.47 310.59,306.82 305.04,296.45 311.25,285.36 307.86,279.94 295.34,270.67 292.82,269.26 285.49,271.03 281.89,268.41 282.12,262.99 279.73,258.75 281.64,255.28 277.5,250.74 277.02,238.37 286.47,231.87 306.16,225.2 311.96,219.97 322.11,215.82 335.47,199.82 341.18,196.81 342.78,191.54 335.18,177.88 321.37,163.49 296.92,144.6 276.39,133.4 281.28,127.1 282.67,132.62 286.29,133.96 287.9,132.61 287.94,134.53 296.32,136.15 300.51,140.08 304.25,139.47 304.2,143.29 307.31,145.75 313.08,143.94 321.66,154.31 339.71,162.92 347.62,160.33 349.59,146.5 347.76,160.57 346.29,162.91 347.09,164.05 345.42,164.82 347.55,164.45 349.01,162.9 352.88,167.34 359.33,169.35 361.46,165.72 371.26,173.78 390.04,185.69 370.62,180.03 370.59,182.49 374.99,186.93 388.39,195.71 382.5,194.94 378.46,197.42 371.61,194.66 366.87,195.79 372.5,199.95 376.38,199.5 389.33,205.79 393.44,205.27 393.22,208.57 396.45,207.4 394.61,205.99 395.66,204.1 401.2,205.68 405.46,202.15 415.75,205.66 418.31,203.27 419.39,196.57 425.03,200.1 438.88,193.42 443.32,193.39 447.65,181.48 444.31,175.55 440.64,175.64 417.54,149.73 403.76,140.53 400.81,141.38 397.84,137.1 365.35,118.17 338.01,105.52 331.55,104.96 332.86,106.4 331,105.76 328.29,110.19 331.25,114.76 336.4,114.43 334.33,119.4 335.89,121.61 329.76,120.88 338.43,125.24 338.74,127.99 335,128.38 336.64,131.34 340.26,131.31 342.6,132.67 342.5,135.42 354.05,140.06 350.31,141.39 349.74,145.51 349.79,142.53 333.98,133.07 324.56,123.48 295.91,108.37 285.31,100.3 284.38,101.5 288.71,103.08 290.51,111.84 299.22,115.28 310.44,126.65 317.29,128.71 299.37,123.65 275.04,108.02 268.83,109.62 260.31,107.61 256.65,103.39 252.36,102.38 249.63,88.42 244.83,86.47 243.23,89.87 240.74,89.8 234.21,83.11 233.63,78.84 228.17,88.17 222.43,86.73 222.48,84.93 220.78,85.92 216.18,75.36 216.91,70.21 212.62,64.53 213.78,62.94 205.07,54.71 204.16,47.64 206.82,44.13 216.29,42.99 222.35,39.02 224.51,34.65 236.13,29.34 268.85,23.13 264.05,20.54 286.02,26.5 300.91,27.67 320.17,19.42 334.72,19.68 358.03,14.38 367.63,18.05 373.4,17.87 376.85,20.51 390.99,48.41 414.47,82.5 431.27,101.24 584.2,224.18 618.59,258.56 643.82,277.29 654.01,288.71 669.83,318.85 676.62,343.55 685.59,364.74 730.88,442.61 746.22,464.91 749.47,467.75 751.28,466.21 760.59,486.16 767.56,495.96 780.58,506.99 787.08,501.24 786.06,504.39 789.97,505.5 793.57,518.54 802.29,533.02 816.61,550.75 821.07,551.88 825.22,560.54 834.59,569.38 848.33,596.31 859.81,609.7 858.73,617.07 860.55,622.04 856.89,626.26 857.26,632.75 863.86,646.71 867.36,648.42 870.06,645.25 869.57,648.62 866.5,650.98 869.07,656.54 871.84,655.63 869.27,658.21 870.07,663.52 860.77,668.91 863.18,662.88 857.97,664.54 864.26,656.19 863.55,653.77 859.31,648.65 850.91,653.97 858,645.74 857.09,644.46 848.64,652.54 849.47,648.82 847.33,647.05 846.57,650.04 843.37,650.86 846.75,651.77 845.64,653.59 847.34,655.03 845.45,653.58 843.05,655.08 843.15,658.86 850.27,659.64 844.24,662.13 843.09,664.56 848.66,665.46 846.51,667.03 849.93,668.97 847.83,669.28 847.83,671.97 854.13,670.83 849.75,673.03 851.7,673.47 851,677 853.79,682.03 846.61,683.91 843.42,682.56 840.15,680.32 841.93,671.18 839.89,669 837.15,668.63 836.05,673.94 830.79,667.3 823.67,663.53 822.1,670.94 818.6,675.33 814.05,680.68 807.81,682.39 810.79,689.45 816.58,692.67 819.42,690.75 822.14,683.22 832.46,679.88 836.37,681.07 842.69,683.98 844.23,694.15 848.77,702.33 862.63,707.13 863.75,705.32 873.92,706.79 886.47,704.32 891.11,693.95 887.24,683.21 898.04,682.07 903.44,679.03 906.36,673.92 923.66,688.81 923.59,694.91 937.64,748.64 943.4,757.43 941.03,758.9 941.51,773.52 944.59,780.79 953.77,826.81 958.43,834.37 959.91,843.63 964.36,848.65 963.21,854.61 966.48,869.5 971.9,879.38 977.29,882.9 976.15,892.44 983.49,916.7 992.68,932 1010.19,945.74 1015.61,945.96 1020.19,941.18 1022.95,942.2 1023.69,945.29 1018.81,948.73 1017.09,953.15 1018.53,962.72 1021.79,967.48 1025.7,966.9 1027.71,968.99 1029.52,975.66 1034.71,975.05 1038.5,978.45 1031.66,979.47 1029.06,988.41 1030.32,999.66 1036.16,1013.75 1049.04,1026.36 1053.07,1027.32 1057.13,1024.65 1064.53,1039.35 1072.95,1049.33 1097.52,1063.74 1125.25,1108.41 1140.45,1139.32 1150.3,1175.12 1159.11,1221.47 1166.77,1232.5 1180.42,1278.04 1179.84,1289.43 1182.5,1302.87 1180.01,1311.66 1176.35,1380.23 1182.35,1416.76 1187.41,1430.17 1180.91,1448.78 1181.96,1455.27 1170.04,1488.42 1172.31,1492.74 1169.65,1499.26 1171.23,1506.05 1164.67,1514.52 1164.32,1520.29 1168.25,1523.67 1159.82,1534.35 1160.13,1541.5 1157.56,1548.69 1160.31,1552.37 1161.45,1560.17 1149.71,1575.63 1148.01,1589.18 1134.93,1606.85 1133.95,1613.09 1137.35,1619.35 1134.08,1630.1 1128.85,1638.62 1130.15,1644.93 1118.64,1656.31 1110.93,1675.06 1095.12,1700.03 1079.74,1711.1 1077.76,1716.37 1073,1720.88 1057.91,1728.16 1055.9,1732.55 1058.05,1735.31 1048.58,1744.01 1032.55,1752.88 1030.71,1756.02 1032.03,1757.5 1027.21,1760.49 1012.72,1763.07 1000.13,1769.56 997.55,1772.94 999.09,1775.5 990.58,1783.02 989.33,1788.91 968.12,1797.18 949.4,1819.37 938.38,1822.35 935.18,1827.07 918.9,1833.12 917.76,1837.79 911.06,1842.63 910.77,1845.47 896.98,1846.86 884.2,1852.41 866.84,1855.24 861.69,1860.25 861.71,1862.91 839.06,1866.63 832.94,1872.32 824.18,1873.87 820.86,1877.52 814.72,1878.58 811.91,1882.21 814.43,1884.91 802.78,1885.38 802.15,1887.22 801.56,1881.56 798.49,1878.22 792.7,1878.41 792.75,1880.51 797.15,1881.18 799.4,1886.13 797.31,1888.1 800.69,1888.77 795.62,1890.85 792.69,1889.36 796.11,1887.75 749.41,1894.63 737.06,1901.9 720.64,1903.37 717.04,1905.17 716.62,1907.92 700.58,1913.46 685.48,1915.77 678.79,1924.51 673.77,1922.75 653.63,1926.31 647.91,1930.48 648.27,1935.31 643.32,1936.54 638.94,1942.67 622.58,1946.69 620.84,1950.55 623.35,1951.4 618.87,1952.2 616.41,1955.04 617.21,1959.91 613.42,1956.25 609.78,1956.72 608.5,1963.5 606.92,1963.7 607.66,1965.17 609.43,1965.97 603.16,1966.13 602.29,1964.58 601.62,1966.36 598.02,1966.36 596.94,1964.25 592.37,1964.76 591.34,1966.88 572.94,1968.59 570.01,1969.74 567.88,1974.04 566.25,1972.02 559.49,1973.36 556.37,1980.92 554.86,1979.64 550.12,1982.95 545.62,1983.05 545.27,1986.43 540.72,1986.61 538.12,1979.47 527.14,1975.3 520.07,1974.54 508.48,1978.41 495.05,1975.85 485.14,1977.32 476.73,1973.64 474.92,1975.4 469.85,1972.71 473.87,1972.03 474.97,1964.27 466.97,1959.63 461.06,1960.71 456.68,1968.62 454.25,1966.43 433.24,1962.26 405.33,1950.07 382.94,1946.93 372.69,1941.01 369.38,1943.04 365.19,1936.87 367.98,1935.61 369.13,1931.39 367.24,1929.54 362.45,1930.37 363.7,1928.27 359.27,1927.41 356.6,1929.97 357.79,1932.23 356.52,1933.77 352.38,1927.58 342.9,1923.39 332.84,1912.32 309.45,1894.73 309.8,1890.16 297.63,1879.5 297.14,1870.87 293.38,1866.97 292.07,1861.58 279.26,1849.53 279.64,1843.43 273.83,1826.75 264.34,1809.85 264.51,1802.33 266.89,1798.18 261.93,1787.73 262.13,1779.12 253.03,1760.63 249.95,1744.22 245.01,1735.58 245,1729.44 234.6,1712.99 234.46,1708.39 239.42,1704.66 236.01,1690.88 238.78,1687.99 227.29,1658.87 228.71,1657.05 226.64,1649.84 206.67,1601.88 196.45,1584.61 198.29,1582.98 179.78,1530.07 177.92,1509.79 169.98,1478.31 163.52,1479.31 160.11,1476.35 161.98,1474.02 160.28,1470.63 159.52,1472.61 159.72,1463.3 163.85,1458.91 161.46,1462.28 161.79,1469.23 167.95,1469.25 168.43,1461.56 171.53,1466.04 169.85,1472 172.09,1471 172.29,1473 175.29,1465.23 176.95,1465.12 175.34,1464.72 176.72,1462.76 175.02,1463.06 176.72,1461.53 175.05,1461.41 180.94,1458.99 183.59,1452.77 169.88,1386.33 159.31,1351.77 158.35,1337.4 161.57,1336.86 164,1340.21 160.17,1349.55 164.76,1365.24 167.92,1368.29 167.98,1375.99 172.13,1381.21 170.86,1385.64 176.6,1390.85 175.22,1388.03 177.35,1388.6 176.37,1385.36 178.28,1385.27 179.91,1378.29 181.15,1385.18 182.97,1383.27 186.14,1385.56 183.55,1382.52 181.69,1362.93 182.92,1365.33 183.59,1365.26 174.91,1343.58 172.63,1341.51 166.86,1343.56 168.62,1337.77" fill="none" stroke="#1e1e1e" stroke-width="1.77" stroke-linecap="round" stroke-linejoin="round"/>
<path d="M332.26,112.46L334.34,109.19L336.62,111.27L334.04,113.19L332.26,112.46Z" fill-rule="evenodd" fill="#4682b4" fill-opacity="0.471"/>
<polyline points="332.26,112.46 334.34,109.19 336.62,111.27 334.04,113.19 332.26,112.46" fill="none" stroke="#1e1e1e" stroke-width="1.77" stroke-linecap="round" stroke-linejoin="round"/>
<path d="M133.55,404.25L104.82,395.5L94.13,397.6L79.13,398.48L81.41,396.66L94.84,397.05L99.73,395.26L94.69,395.68L100.15,393.95L98.79,388.61L95.93,390.71L99.36,387.61L99.81,384.09L116.02,380.41L142.37,384.11L173.58,394.2L182.01,398.52L196.12,410.5L205.17,423.17L213.6,429.09L209.39,429.57L202.51,423.58L186.09,416.45L185.89,413.27L180.94,409.93L182.4,412.99L184.93,413.11L186.46,420.21L193.19,429.81L200.65,436.61L213.28,443.47L214.3,446.64L206.61,447.23L198.16,451.33L201.43,451.82L197.77,454.15L191.82,449.54L194.26,452.62L193.99,454.16L184.74,441.37L169.44,426.69L152.77,414.57L133.55,404.25Z" fill-rule="evenodd" fill="#4682b4" fill-opacity="0.471"/>
<polyline points="133.55,404.25 104.82,395.5 94.13,397.6 79.13,398.48 81.41,396.66 94.84,397.05 99.73,395.26 94.69,395.68 100.15,393.95 98.79,388.61 95.93,390.71 99.36,387.61 99.81,384.09 116.02,380.41 142.37,384.11 173.58,394.2 182.01,398.52 196.12,410.5 205.17,423.17 213.6,429.09 209.39,429.57 202.51,423.58 186.09,416.45 185.89,413.27 180.94,409.93 182.4,412.99 184.93,413.11 186.46,420.21 193.19,429.81 200.65,436.61 213.28,443.47 214.3,446.64 206.61,447.23 198.16,451.33 201.43,451.82 197.77,454.15 191.82,449.54 194.26,452.62 193.99,454.16 184.74,441.37 169.44,426.69 152.77,414.57 133.55,404.25" fill="none" stroke="#1e1e1e" stroke-width="1.77" stroke-linecap="round" stroke-linejoin="round"/>
<path d="M242.14,122.14L244.86,118.33L244.47,115.06L252.05,118.46L254.4,117.39L251.11,130.96L244.42,134.21L238.29,132.64L234.45,130.32L233.18,128.57L233.87,127.17L234.7,129.89L239.62,130.1L241.11,125.89L243.17,126.58L242.14,122.14Z" fill-rule="evenodd" fill="#4682b4" fill-opacity="0.471"/>
<polyline points="242.14,122.14 244.86,118.33 244.47,115.06 252.05,118.46 254.4,117.39 251.11,130.96 244.42,134.21 238.29,132.64 234.45,130.32 233.18,128.57 233.87,127.17 234.7,129.89 239.62,130.1 241.11,125.89 243.17,126.58 242.14,122.14" fill="none" stroke="#1e1e1e" stroke-width="1.77" stroke-linecap="round" stroke-linejoin="round"/>
<path d="M413.88,151.44L403.03,143.46L403.15,142.79L413.81,150.07L413.88,151.44Z" fill-rule="evenodd" fill="#4682b4" fill-opacity="0.471"/>
<polyline points="413.88,151.44 403.03,143.46 403.15,142.79 413.81,150.07 413.88,151.44" fill="none" stroke="#1e1e1e" stroke-width="1.77" stroke-linecap="round" stroke-linejoin="round"/>
<path d="M247.7,111.8L251.08,110.13L253.56,113.5L247.7,111.8Z" fill-rule="evenodd" fill="#4682b4" fill-opacity="0.471"/>
<polyline points="247.7,111.8 251.08,110.13 253.56,113.5 247.7,111.8" fill="none" stroke="#1e1e1e" stroke-width="1.77" stroke-linecap="round" stroke-linejoin="round"/>
<path d="M250.26,115.19L253.47,116L253.74,117.61L252.07,117.76L250.26,115.19Z" fill-rule="evenodd" fill="#4682b4" fill-opacity="0.471"/>
<polyline points="250.26,115.19 253.47,116 253.74,117.61 252.07,117.76 250.26,115.19" fill="none" stroke="#1e1e1e" stroke-width="1.77" stroke-linecap="round" stroke-linejoin="round"/>
<path d="M246.02,111.25L248.26,108.55L250.47,109.8L248.23,108.84L245.72,111.84L247.24,115.61L244.75,114.95L242.94,111.08L246.02,111.25Z" fill-rule="evenodd" fill="#4682b4" fill-opacity="0.471"/>
<polyline points="246.02,111.25 248.26,108.55 250.47,109.8 248.23,108.84 245.72,111.84 247.24,115.61 244.75,114.95 242.94,111.08 246.02,111.25" fill="none" stroke="#1e1e1e" stroke-width="1.77" stroke-linecap="round" stroke-linejoin="round"/>
</svg>
