<?xml version="1.0" encoding="UTF-8" standalone="no"?>
<svg xmlns="http://www.w3.org/2000/svg" width="1197" height="2000" viewBox="0 0 1197 2000">
<rect width="1197" height="2000" fill="#ffffff"/>
<path d="M169.74,1304.31L181.72,1305.35L217.69,1300.38L219.69,1302.9L251.69,1280.8L258.67,1281.82L280.62,1297.97L310.62,1275.36L323.09,1284.94L322.58,1291.48L346.53,1312.16L339.5,1344.37L325.51,1345.36L325.48,1365L329.96,1378.09L339.96,1372.57L354.45,1374.6L341.94,1391.2L329.92,1412.33L338.87,1444.06L337.86,1453.12L357.35,1455.67L359.83,1471.28L354.32,1483.36L342.81,1493.41L337.79,1514.05L349.77,1527.66L337.26,1534.69L344.24,1552.83L348.71,1580.03L355.19,1593.63L373.67,1616.31L375.66,1629.91L389.16,1634.46L399.65,1645.55L405.14,1657.64L395.63,1662.66L417.12,1697.43L438.11,1727.16L438.61,1731.19L432.6,1730.68L405.06,1745.77L393.05,1748.78L398.53,1776.99L395.02,1781.52L368.52,1755.8L357.51,1754.28L351.99,1764.35L342.98,1766.85L324.97,1760.79L308.95,1758.75L304.96,1751.19L291.46,1743.11L279.45,1740.58L253.95,1725.43L241.94,1722.89L234.96,1708.27L239.47,1704.76L239,1688.14L215.6,1622.63L198.17,1584.33L179.78,1529.91L179.3,1517.82L170.38,1479.03L169.4,1468.46L183.43,1451.87L169.57,1385.38L184.57,1380.88L181.12,1356.7L175.15,1343.6L166.66,1343.58L169.74,1304.31Z" fill-rule="evenodd" fill="#4682b4" fill-opacity="0.471"/>
<polyline points="169.74,1304.31 181.72,1305.35 217.69,1300.38 219.69,1302.9 251.69,1280.8 258.67,1281.82 280.62,1297.97 310.62,1275.36 323.09,1284.94 322.58,1291.48 346.53,1312.16 339.5,1344.37 325.51,1345.36 325.48,1365 329.96,1378.09 339.96,1372.57 354.45,1374.6 341.94,1391.2 329.92,1412.33 338.87,1444.06 337.86,1453.12 357.35,1455.67 359.83,1471.28 354.32,1483.36 342.81,1493.41 337.79,1514.05 349.77,1527.66 337.26,1534.69 344.24,1552.83 348.71,1580.03 355.19,1593.63 373.67,1616.31 375.66,1629.91 389.16,1634.46 399.65,1645.55 405.14,1657.64 395.63,1662.66 417.12,1697.43 438.11,1727.16 438.61,1731.19 432.6,1730.68 405.06,1745.77 393.05,1748.78 398.53,1776.99 395.02,1781.52 368.52,1755.8 357.51,1754.28 351.99,1764.35 342.98,1766.85 324.97,1760.79 308.95,1758.75 304.96,1751.19 291.46,1743.11 279.45,1740.58 253.95,1725.43 241.94,1722.89 234.96,1708.27 239.47,1704.76 239,1688.14 215.6,1622.63 198.17,1584.33 179.78,1529.91 179.3,1517.82 170.38,1479.03 169.4,1468.46 183.43,1451.87 169.57,1385.38 184.57,1380.88 181.12,1356.7 175.15,1343.6 166.66,1343.58 169.74,1304.31" fill="none" stroke="#1e1e1e" stroke-width="1.77" stroke-linecap="round" stroke-linejoin="round"/>
<path d="M459.44,1263.42L470.92,1262.42L484.41,1244.31L501.39,1247.34L506.39,1234.25L526.36,1231.24L520.37,1216.63L531.36,1211.6L536.35,1201.03L531.37,1178.37L524.88,1164.78L535.37,1147.66L537.37,1137.59L525.4,1122.49L520.92,1085.23L517.43,1071.13L506.97,1052L497.99,1047.96L498.5,1031.35L530.92,1014.75L536.91,1004.68L548.88,1011.23L564.34,989.08L575.31,981.53L577.81,958.88L589.77,960.39L601.24,942.77L626.17,932.7L638.14,941.76L637.64,954.85L655.59,946.79L666.06,960.88L657.59,976.99L650.62,1024.82L646.13,1036.91L632.67,1038.42L629.68,1069.63L637.67,1100.85L666.61,1099.33L669.1,1093.79L683.07,1094.79L690.05,1082.2L709.01,1085.72L742.43,1078.65L741.94,1095.26L745.44,1109.36L736.97,1127.49L734,1156.69L735.54,1227.68L739.55,1243.28L735.56,1256.38L748.07,1294.13L756.09,1326.35L751.6,1333.9L739.11,1335.92L734.62,1343.48L721.13,1341.47L728.64,1363.12L722.65,1372.19L729.65,1379.23L724.66,1396.86L725.67,1410.45L712.68,1423.05L707.7,1447.22L697.21,1453.77L679.22,1453.27L665.23,1465.86L663.23,1478.45L652.74,1491.55L666.74,1519.74L656.75,1533.34L666.75,1536.86L660.25,1546.43L652.25,1546.94L642.75,1556L635.25,1553.99L619.75,1563.56L601.75,1565.57L578.25,1562.55L575.25,1567.59L535.24,1561.03L519.75,1554.99L512.24,1559.01L496.25,1551.95L496.26,1526.78L503.26,1520.23L495.77,1507.14L493.77,1496.06L464.79,1485.47L470.3,1454.76L464.31,1449.22L482.31,1433.11L479.82,1428.08L481.32,1409.95L475.34,1391.32L476.34,1380.75L497.83,1377.74L504.33,1366.66L510.82,1368.18L520.82,1352.07L504.84,1334.94L509.34,1323.87L500.36,1312.28L488.37,1309.26L488.88,1298.68L475.4,1284.58L461.43,1275.01L459.44,1263.42Z" fill-rule="evenodd" fill="#4682b4" fill-opacity="0.471"/>
<polyline points="459.44,1263.42 470.92,1262.42 484.41,1244.31 501.39,1247.34 506.39,1234.25 526.36,1231.24 520.37,1216.63 531.36,1211.6 536.35,1201.03 531.37,1178.37 524.88,1164.78 535.37,1147.66 537.37,1137.59 525.4,1122.49 520.92,1085.23 517.43,1071.13 506.97,1052 497.99,1047.96 498.5,1031.35 530.92,1014.75 536.91,1004.68 548.88,1011.23 564.34,989.08 575.31,981.53 577.81,958.88 589.77,960.39 601.24,942.77 626.17,932.7 638.14,941.76 637.64,954.85 655.59,946.79 666.06,960.88 657.59,976.99 650.62,1024.82 646.13,1036.91 632.67,1038.42 629.68,1069.63 637.67,1100.85 666.61,1099.33 669.1,1093.79 683.07,1094.79 690.05,1082.2 709.01,1085.72 742.43,1078.65 741.94,1095.26 745.44,1109.36 736.97,1127.49 734,1156.69 735.54,1227.68 739.55,1243.28 735.56,1256.38 748.07,1294.13 756.09,1326.35 751.6,1333.9 739.11,1335.92 734.62,1343.48 721.13,1341.47 728.64,1363.12 722.65,1372.19 729.65,1379.23 724.66,1396.86 725.67,1410.45 712.68,1423.05 707.7,1447.22 697.21,1453.77 679.22,1453.27 665.23,1465.86 663.23,1478.45 652.74,1491.55 666.74,1519.74 656.75,1533.34 666.75,1536.86 660.25,1546.43 652.25,1546.94 642.75,1556 635.25,1553.99 619.75,1563.56 601.75,1565.57 578.25,1562.55 575.25,1567.59 535.24,1561.03 519.75,1554.99 512.24,1559.01 496.25,1551.95 496.26,1526.78 503.26,1520.23 495.77,1507.14 493.77,1496.06 464.79,1485.47 470.3,1454.76 464.31,1449.22 482.31,1433.11 479.82,1428.08 481.32,1409.95 475.34,1391.32 476.34,1380.75 497.83,1377.74 504.33,1366.66 510.82,1368.18 520.82,1352.07 504.84,1334.94 509.34,1323.87 500.36,1312.28 488.37,1309.26 488.88,1298.68 475.4,1284.58 461.43,1275.01 459.44,1263.42" fill="none" stroke="#1e1e1e" stroke-width="1.77" stroke-linecap="round" stroke-linejoin="round"/>
<path d="M241.94,1722.89L253.95,1725.43L279.45,1740.58L291.46,1743.11L304.96,1751.19L308.95,1758.75L324.97,1760.79L342.98,1766.85L351.99,1764.35L357.51,1754.28L368.52,1755.8L395.02,1781.52L398.53,1776.99L393.05,1748.78L405.06,1745.77L432.6,1730.68L438.61,1731.19L459.61,1748.83L468.62,1746.82L493.64,1754.39L495.64,1760.44L514.66,1757.42L514.67,1750.88L546.7,1745.35L558.21,1746.36L554.2,1772.04L579.23,1768.02L584.23,1781.61L583.23,1791.69L597.25,1790.68L614.27,1796.22L642.81,1810.32L662.33,1811.82L675.85,1808.8L689.37,1821.89L703.39,1825.91L724.42,1824.39L719.4,1810.29L708.88,1796.7L731.9,1782.58L757.92,1771.48L751.91,1758.9L755.9,1746.3L766.92,1748.81L783.92,1733.69L816.45,1733.66L820.97,1745.24L831.98,1747.24L840.48,1741.69L859.03,1769.37L875.56,1773.88L886.05,1761.27L904.56,1754.2L932.58,1748.61L962.08,1735.47L985.11,1739.46L989.54,1695.63L1010.53,1683.51L1030.01,1666.85L1039.51,1667.84L1049.01,1662.28L1052.49,1653.21L1068.54,1672.81L1079.55,1673.29L1091.59,1686.35L1098.09,1685.83L1102.6,1687.84L1095.12,1700.45L1079.14,1711.56L1073.15,1720.64L1058.66,1727.22L1056.68,1736.79L1032.19,1752.96L1027.2,1760.53L1013.69,1762.57L998.69,1770.66L988.71,1789.31L968.2,1796.9L957.21,1812.03L946.21,1821.11L921.7,1831.73L911.2,1845.35L896.18,1846.88L884.17,1852.44L870.15,1853.97L861.65,1862.54L837.62,1867.6L833.12,1872.14L813.6,1879.21L813.6,1884.76L773.54,1891.84L749,1894.89L736.99,1901.95L718.46,1903.97L700.43,1913.55L683.4,1917.09L673.89,1922.63L651.35,1927.17L636.82,1943.29L622.8,1946.32L610.27,1956.39L606.27,1965.96L596.75,1964.45L572.7,1968.48L558.67,1974.02L558.17,1979.56L540.63,1986.11L534.62,1977.04L520.09,1974.51L508.56,1978.54L485.01,1977.52L476.5,1973.48L475,1964.42L461.48,1960.38L456.96,1968.43L438.93,1963.38L406.88,1950.26L378.83,1945.7L343.29,1924L334.28,1914.42L309.77,1894.24L297.77,1879.61L292.28,1861.98L279.28,1849.36L273.81,1826.69L264.32,1810.06L266.85,1797.47L262.37,1779.33L253.39,1761.19L241.94,1722.89Z" fill-rule="evenodd" fill="#4682b4" fill-opacity="0.471"/>
<polyline points="241.94,1722.89 253.95,1725.43 279.45,1740.58 291.46,1743.11 304.96,1751.19 308.95,1758.75 324.97,1760.79 342.98,1766.85 351.99,1764.35 357.51,1754.28 368.52,1755.8 395.02,1781.52 398.53,1776.99 393.05,1748.78 405.06,1745.77 432.6,1730.68 438.61,1731.19 459.61,1748.83 468.62,1746.82 493.64,1754.39 495.64,1760.44 514.66,1757.42 514.67,1750.88 546.7,1745.35 558.21,1746.36 554.2,1772.04 579.23,1768.02 584.23,1781.61 583.23,1791.69 597.25,1790.68 614.27,1796.22 642.81,1810.32 662.33,1811.82 675.85,1808.8 689.37,1821.89 703.39,1825.91 724.42,1824.39 719.4,1810.29 708.88,1796.7 731.9,1782.58 757.92,1771.48 751.91,1758.9 755.9,1746.3 766.92,1748.81 783.92,1733.69 816.45,1733.66 820.97,1745.24 831.98,1747.24 840.48,1741.69 859.03,1769.37 875.56,1773.88 886.05,1761.27 904.56,1754.2 932.58,1748.61 962.08,1735.47 985.11,1739.46 989.54,1695.63 1010.53,1683.51 1030.01,1666.85 1039.51,1667.84 1049.01,1662.28 1052.49,1653.21 1068.54,1672.81 1079.55,1673.29 1091.59,1686.35 1098.09,1685.83 1102.6,1687.84 1095.12,1700.45 1079.14,1711.56 1073.15,1720.64 1058.66,1727.22 1056.68,1736.79 1032.19,1752.96 1027.2,1760.53 1013.69,1762.57 998.69,1770.66 988.71,1789.31 968.2,1796.9 957.21,1812.03 946.21,1821.11 921.7,1831.73 911.2,1845.35 896.18,1846.88 884.17,1852.44 870.15,1853.97 861.65,1862.54 837.62,1867.6 833.12,1872.14 813.6,1879.21 813.6,1884.76 773.54,1891.84 749,1894.89 736.99,1901.95 718.46,1903.97 700.43,1913.55 683.4,1917.09 673.89,1922.63 651.35,1927.17 636.82,1943.29 622.8,1946.32 610.27,1956.39 606.27,1965.96 596.75,1964.45 572.7,1968.48 558.67,1974.02 558.17,1979.56 540.63,1986.11 534.62,1977.04 520.09,1974.51 508.56,1978.54 485.01,1977.52 476.5,1973.48 475,1964.42 461.48,1960.38 456.96,1968.43 438.93,1963.38 406.88,1950.26 378.83,1945.7 343.29,1924 334.28,1914.42 309.77,1894.24 297.77,1879.61 292.28,1861.98 279.28,1849.36 273.81,1826.69 264.32,1810.06 266.85,1797.47 262.37,1779.33 253.39,1761.19 241.94,1722.89" fill="none" stroke="#1e1e1e" stroke-width="1.77" stroke-linecap="round" stroke-linejoin="round"/>
<path d="M1102.6,1687.84L1098.09,1685.83L1091.59,1686.35L1079.55,1673.29L1068.54,1672.81L1052.49,1653.21L1057.8,1564.57L1062.17,1506.65L1062.62,1485.5L1066.57,1461.83L1056.55,1451.27L1058.53,1444.22L1051.5,1428.63L1057.47,1415.02L1045.96,1406.48L1013.46,1395.98L1006.95,1391.46L1004.42,1373.34L997.91,1366.3L1008.86,1342.11L1019.83,1333.53L1011.8,1313.91L1008.27,1298.31L987.76,1279.72L993.24,1271.66L983.7,1243.48L985.67,1228.87L978.67,1224.86L987.14,1213.26L975.65,1211.27L959.2,1222.38L934.76,1241.55L940.78,1255.64L925.33,1272.28L907.35,1274.32L910.37,1291.43L909.4,1309.06L894.93,1318.14L886.43,1313.12L883.42,1302.55L880.91,1288.45L866.4,1269.84L857.92,1274.39L850.41,1257.78L843.38,1225.06L839.37,1217.01L847.84,1202.4L851.31,1182.26L849.79,1164.14L842.29,1153.07L813.86,1162.16L785.93,1184.34L768.46,1187.38L765.96,1177.31L755.96,1163.72L754.95,1143.08L736.97,1127.49L745.44,1109.36L741.94,1095.26L742.43,1078.65L772.36,1080.14L782.34,1074.09L794.81,1077.1L807.8,1095.21L846.73,1109.26L866.68,1100.68L868.14,1069.97L861.13,1047.82L860.1,1027.69L864.08,1013.08L862.07,1001.5L866.05,994.45L866.03,978.84L873.99,970.78L891.94,965.22L900.42,969.73L917.37,970.21L917.36,960.14L900.35,923.92L904.19,817.69L903.18,811.64L891.22,807.13L881.77,820.23L872.31,825.78L865.85,842.41L864.38,857.51L851.43,863.57L853.9,848.46L848.41,839.41L848.89,823.8L826.95,817.78L817.98,807.72L801.04,809.76L786.58,801.71L765.15,798.21L742.24,801.25L738.74,782.62L718.3,766.02L709.84,769.04L710.82,752.93L718.29,738.83L729.23,710.13L742.17,701.56L721.24,683.45L719.24,660.29L705.79,642.67L705.78,634.62L695.32,627.07L693.83,618.01L703.77,591.82L687.33,559.6L689.31,541.98L703.73,517.8L691.29,501.19L653.47,477.54L639.54,475.53L624.62,483.09L631.08,466.97L635.56,461.93L682.81,455.37L692.75,444.8L711.15,439.25L700.22,451.84L704.7,466.95L718.13,471.47L730.55,443.27L745.98,464.4L750.96,466.92L766.9,495.1L780.34,507.18L792.79,512.2L796.78,524.78L807.24,539.88L834.65,569.56L849.61,598.24L859.58,608.8L856.61,626.43L858.63,648.58L850.67,651.11L844.21,662.19L850.71,681.82L824.79,664.23L822.31,670.77L808.88,681.36L819.35,690.92L832.78,679.83L842.74,683.84L848.74,702.46L858.21,706.48L882.61,704.94L898.01,682.26L907.46,674.19L923.42,688.77L923.43,694.81L937.46,748.66L954.03,826.67L963.53,848.8L963.55,857.87L975.57,889.56L983.59,916.73L992.59,931.82L1009.07,944.88L1015.56,945.87L1017.58,959.46L1029.58,976.05L1030.63,1000.72L1040.14,1019.33L1052.13,1027.86L1057.11,1024.83L1068.63,1045.44L1082.12,1055.99L1091.6,1057.98L1125.15,1108.24L1139.7,1137.41L1145.73,1155.01L1158.89,1221.43L1166.4,1231.48L1180.01,1276.76L1182.58,1302.93L1179.15,1325.6L1176.83,1390.55L1183.41,1421.25L1187.43,1428.29L1180.99,1448.95L1182.01,1454.99L1170.6,1486.24L1171.15,1505.88L1164.67,1513.95L1168.2,1523.51L1161.72,1530.57L1157.77,1548.21L1161.3,1559.78L1149.84,1574.92L1149.36,1586L1134.91,1606.68L1136.95,1619.27L1128.99,1637.92L1130.01,1644.97L1106.56,1672.22L1102.6,1687.84Z" fill-rule="evenodd" fill="#4682b4" fill-opacity="0.471"/>
<polyline points="1102.6,1687.84 1098.09,1685.83 1091.59,1686.35 1079.55,1673.29 1068.54,1672.81 1052.49,1653.21 1057.8,1564.57 1062.17,1506.65 1062.62,1485.5 1066.57,1461.83 1056.55,1451.27 1058.53,1444.22 1051.5,1428.63 1057.47,1415.02 1045.96,1406.48 1013.46,1395.98 1006.95,1391.46 1004.42,1373.34 997.91,1366.3 1008.86,1342.11 1019.83,1333.53 1011.8,1313.91 1008.27,1298.31 987.76,1279.72 993.24,1271.66 983.7,1243.48 985.67,1228.87 978.67,1224.86 987.14,1213.26 975.65,1211.27 959.2,1222.38 934.76,1241.55 940.78,1255.64 925.33,1272.28 907.35,1274.32 910.37,1291.43 909.4,1309.06 894.93,1318.14 886.43,1313.12 883.42,1302.55 880.91,1288.45 866.4,1269.84 857.92,1274.39 850.41,1257.78 843.38,1225.06 839.37,1217.01 847.84,1202.4 851.31,1182.26 849.79,1164.14 842.29,1153.07 813.86,1162.16 785.93,1184.34 768.46,1187.38 765.96,1177.31 755.96,1163.72 754.95,1143.08 736.97,1127.49 745.44,1109.36 741.94,1095.26 742.43,1078.65 772.36,1080.14 782.34,1074.09 794.81,1077.1 807.8,1095.21 846.73,1109.26 866.68,1100.68 868.14,1069.97 861.13,1047.82 860.1,1027.69 864.08,1013.08 862.07,1001.5 866.05,994.45 866.03,978.84 873.99,970.78 891.94,965.22 900.42,969.73 917.37,970.21 917.36,960.14 900.35,923.92 904.19,817.69 903.18,811.64 891.22,807.13 881.77,820.23 872.31,825.78 865.85,842.41 864.38,857.51 851.43,863.57 853.9,848.46 848.41,839.41 848.89,823.8 826.95,817.78 817.98,807.72 801.04,809.76 786.58,801.71 765.15,798.21 742.24,801.25 738.74,782.62 718.3,766.02 709.84,769.04 710.82,752.93 718.29,738.83 729.23,710.13 742.17,701.56 721.24,683.45 719.24,660.29 705.79,642.67 705.78,634.62 695.32,627.07 693.83,618.01 703.77,591.82 687.33,559.6 689.31,541.98 703.73,517.8 691.29,501.19 653.47,477.54 639.54,475.53 624.62,483.09 631.08,466.97 635.56,461.93 682.81,455.37 692.75,444.8 711.15,439.25 700.22,451.84 704.7,466.95 718.13,471.47 730.55,443.27 745.98,464.4 750.96,466.92 766.9,495.1 780.34,507.18 792.79,512.2 796.78,524.78 807.24,539.88 834.65,569.56 849.61,598.24 859.58,608.8 856.61,626.43 858.63,648.58 850.67,651.11 844.21,662.19 850.71,681.82 824.79,664.23 822.31,670.77 808.88,681.36 819.35,690.92 832.78,679.83 842.74,683.84 848.74,702.46 858.21,706.48 882.61,704.94 898.01,682.26 907.46,674.19 923.42,688.77 923.43,694.81 937.46,748.66 954.03,826.67 963.53,848.8 963.55,857.87 975.57,889.56 983.59,916.73 992.59,931.82 1009.07,944.88 1015.56,945.87 1017.58,959.46 1029.58,976.05 1030.63,1000.72 1040.14,1019.33 1052.13,1027.86 1057.11,1024.83 1068.63,1045.44 1082.12,1055.99 1091.6,1057.98 1125.15,1108.24 1139.7,1137.41 1145.73,1155.01 1158.89,1221.43 1166.4,1231.48 1180.01,1276.76 1182.58,1302.93 1179.15,1325.6 1176.83,1390.55 1183.41,1421.25 1187.43,1428.29 1180.99,1448.95 1182.01,1454.99 1170.6,1486.24 1171.15,1505.88 1164.67,1513.95 1168.2,1523.51 1161.72,1530.57 1157.77,1548.21 1161.3,1559.78 1149.84,1574.92 1149.36,1586 1134.91,1606.68 1136.95,1619.27 1128.99,1637.92 1130.01,1644.97 1106.56,1672.22 1102.6,1687.84" fill="none" stroke="#1e1e1e" stroke-width="1.77" stroke-linecap="round" stroke-linejoin="round"/>
<path d="M209.91,652.91L265.64,673.15L271.09,690.27L257.11,716.43L244.64,725.47L238.14,738.55L227.68,740.05L226.16,752.63L237.09,768.76L240.53,798.97L247.48,810.57L249.46,823.66L263.41,824.18L268.4,818.65L282.83,828.24L288.82,825.73L305.23,844.39L324.66,849.95L331.63,856L352.55,861.06L356.54,866.1L374.97,871.66L381.94,880.73L407.36,881.76L410.84,889.82L423.29,897.89L433.75,909.47L458.67,918.05L457.66,932.15L461.63,957.32L479.08,966.4L481.56,986.53L488.54,1000.64L485.54,1012.21L490.02,1027.32L498.5,1031.35L497.99,1047.96L506.97,1052L517.43,1071.13L520.92,1085.23L525.4,1122.49L537.37,1137.59L535.37,1147.66L524.88,1164.78L531.37,1178.37L536.35,1201.03L531.36,1211.6L520.37,1216.63L526.36,1231.24L506.39,1234.25L501.39,1247.34L484.41,1244.31L470.92,1262.42L459.44,1263.42L454.45,1249.32L444.47,1242.27L426.99,1247.29L423.48,1271.45L417.48,1280.51L408.99,1276.47L399,1282L388.01,1281.99L376.02,1288.53L346.53,1312.16L322.58,1291.48L323.09,1284.94L310.62,1275.36L280.62,1297.97L258.67,1281.82L251.69,1280.8L219.69,1302.9L217.69,1300.38L181.72,1305.35L169.74,1304.31L157.89,1237.33L149.97,1207.1L143.56,1170.34L142.14,1136.6L147.64,1133.09L149.21,1098.35L141.33,1051.52L122.06,971.42L102.76,909.45L100.83,882.26L102.86,864.14L96.46,831.9L105.44,829.41L117.42,818.86L122.45,797.23L134.85,823.43L118.87,836.99L124.34,845.56L119.31,865.69L113.3,876.25L118.27,883.81L115.75,895.39L122.17,920.07L117.66,930.13L123.12,941.22L143.55,948.82L153.52,949.34L167.02,931.24L158.57,916.63L145.64,904.01L167.64,869.32L158.71,850.67L159.74,836.08L149.31,820.95L154.79,817.94L160.82,796.81L168.82,781.72L166.34,774.67L173.34,761.59L171.43,725.34L181.92,707.74L183.47,678.03L189.97,668.48L207.9,661.97L209.91,652.91Z" fill-rule="evenodd" fill="#4682b4" fill-opacity="0.471"/>
<polyline points="209.91,652.91 265.64,673.15 271.09,690.27 257.11,716.43 244.64,725.47 238.14,738.55 227.68,740.05 226.16,752.63 237.09,768.76 240.53,798.97 247.48,810.57 249.46,823.66 263.41,824.18 268.4,818.65 282.83,828.24 288.82,825.73 305.23,844.39 324.66,849.95 331.63,856 352.55,861.06 356.54,866.1 374.97,871.66 381.94,880.73 407.36,881.76 410.84,889.82 423.29,897.89 433.75,909.47 458.67,918.05 457.66,932.15 461.63,957.32 479.08,966.4 481.56,986.53 488.54,1000.64 485.54,1012.21 490.02,1027.32 498.5,1031.35 497.99,1047.96 506.97,1052 517.43,1071.13 520.92,1085.23 525.4,1122.49 537.37,1137.59 535.37,1147.66 524.88,1164.78 531.37,1178.37 536.35,1201.03 531.36,1211.6 520.37,1216.63 526.36,1231.24 506.39,1234.25 501.39,1247.34 484.41,1244.31 470.92,1262.42 459.44,1263.42 454.45,1249.32 444.47,1242.27 426.99,1247.29 423.48,1271.45 417.48,1280.51 408.99,1276.47 399,1282 388.01,1281.99 376.02,1288.53 346.53,1312.16 322.58,1291.48 323.09,1284.94 310.62,1275.36 280.62,1297.97 258.67,1281.82 251.69,1280.8 219.69,1302.9 217.69,1300.38 181.72,1305.35 169.74,1304.31 157.89,1237.33 149.97,1207.1 143.56,1170.34 142.14,1136.6 147.64,1133.09 149.21,1098.35 141.33,1051.52 122.06,971.42 102.76,909.45 100.83,882.26 102.86,864.14 96.46,831.9 105.44,829.41 117.42,818.86 122.45,797.23 134.85,823.43 118.87,836.99 124.34,845.56 119.31,865.69 113.3,876.25 118.27,883.81 115.75,895.39 122.17,920.07 117.66,930.13 123.12,941.22 143.55,948.82 153.52,949.34 167.02,931.24 158.57,916.63 145.64,904.01 167.64,869.32 158.71,850.67 159.74,836.08 149.31,820.95 154.79,817.94 160.82,796.81 168.82,781.72 166.34,774.67 173.34,761.59 171.43,725.34 181.92,707.74 183.47,678.03 189.97,668.48 207.9,661.97 209.91,652.91" fill="none" stroke="#1e1e1e" stroke-width="1.77" stroke-linecap="round" stroke-linejoin="round"/>
<path d="M265.64,673.15L274.6,673.66L277.18,617.78L272.23,601.16L289.64,609.24L306.56,611.78L366.8,596.25L367.77,621.93L385.19,630L393.13,656.19L417.51,663.77L422.5,653.2L438.94,644.65L438.45,630.55L447.92,620.49L453.9,606.9L473.82,589.8L502.18,607.43L533.55,586.3L549.98,563.14L557.44,559.62L573.87,534.44L560.44,516.32L544.52,511.28L546.01,500.7L582.33,500.21L605.71,486.11L624.62,483.09L639.54,475.53L653.47,477.54L691.29,501.19L703.73,517.8L689.31,541.98L687.33,559.6L703.77,591.82L693.83,618.01L695.32,627.07L705.78,634.62L705.79,642.67L719.24,660.29L721.24,683.45L742.17,701.56L729.23,710.13L718.29,738.83L710.82,752.93L709.84,769.04L718.3,766.02L738.74,782.62L742.24,801.25L765.15,798.21L786.58,801.71L801.04,809.76L817.98,807.72L826.95,817.78L848.89,823.8L848.41,839.41L853.9,848.46L851.43,863.57L864.38,857.51L865.85,842.41L872.31,825.78L881.77,820.23L891.22,807.13L903.18,811.64L904.19,817.69L900.35,923.92L917.36,960.14L917.37,970.21L900.42,969.73L891.94,965.22L873.99,970.78L866.03,978.84L866.05,994.45L862.07,1001.5L864.08,1013.08L860.1,1027.69L861.13,1047.82L868.14,1069.97L866.68,1100.68L846.73,1109.26L807.8,1095.21L794.81,1077.1L782.34,1074.09L772.36,1080.14L742.43,1078.65L709.01,1085.72L690.05,1082.2L683.07,1094.79L669.1,1093.79L666.61,1099.33L637.67,1100.85L629.68,1069.63L632.67,1038.42L646.13,1036.91L650.62,1024.82L657.59,976.99L666.06,960.88L655.59,946.79L637.64,954.85L638.14,941.76L626.17,932.7L601.24,942.77L589.77,960.39L577.81,958.88L575.31,981.53L564.34,989.08L548.88,1011.23L536.91,1004.68L530.92,1014.75L498.5,1031.35L490.02,1027.32L485.54,1012.21L488.54,1000.64L481.56,986.53L479.08,966.4L461.63,957.32L457.66,932.15L458.67,918.05L433.75,909.47L423.29,897.89L410.84,889.82L407.36,881.76L381.94,880.73L374.97,871.66L356.54,866.1L352.55,861.06L331.63,856L324.66,849.95L305.23,844.39L288.82,825.73L282.83,828.24L268.4,818.65L263.41,824.18L249.46,823.66L247.48,810.57L240.53,798.97L237.09,768.76L226.16,752.63L227.68,740.05L238.14,738.55L244.64,725.47L257.11,716.43L271.09,690.27L265.64,673.15Z" fill-rule="evenodd" fill="#4682b4" fill-opacity="0.471"/>
<polyline points="265.64,673.15 274.6,673.66 277.18,617.78 272.23,601.16 289.64,609.24 306.56,611.78 366.8,596.25 367.77,621.93 385.19,630 393.13,656.19 417.51,663.77 422.5,653.2 438.94,644.65 438.45,630.55 447.92,620.49 453.9,606.9 473.82,589.8 502.18,607.43 533.55,586.3 549.98,563.14 557.44,559.62 573.87,534.44 560.44,516.32 544.52,511.28 546.01,500.7 582.33,500.21 605.71,486.11 624.62,483.09 639.54,475.53 653.47,477.54 691.29,501.19 703.73,517.8 689.31,541.98 687.33,559.6 703.77,591.82 693.83,618.01 695.32,627.07 705.78,634.62 705.79,642.67 719.24,660.29 721.24,683.45 742.17,701.56 729.23,710.13 718.29,738.83 710.82,752.93 709.84,769.04 718.3,766.02 738.74,782.62 742.24,801.25 765.15,798.21 786.58,801.71 801.04,809.76 817.98,807.72 826.95,817.78 848.89,823.8 848.41,839.41 853.9,848.46 851.43,863.57 864.38,857.51 865.85,842.41 872.31,825.78 881.77,820.23 891.22,807.13 903.18,811.64 904.19,817.69 900.35,923.92 917.36,960.14 917.37,970.21 900.42,969.73 891.94,965.22 873.99,970.78 866.03,978.84 866.05,994.45 862.07,1001.5 864.08,1013.08 860.1,1027.69 861.13,1047.82 868.14,1069.97 866.68,1100.68 846.73,1109.26 807.8,1095.21 794.81,1077.1 782.34,1074.09 772.36,1080.14 742.43,1078.65 709.01,1085.72 690.05,1082.2 683.07,1094.79 669.1,1093.79 666.61,1099.33 637.67,1100.85 629.68,1069.63 632.67,1038.42 646.13,1036.91 650.62,1024.82 657.59,976.99 666.06,960.88 655.59,946.79 637.64,954.85 638.14,941.76 626.17,932.7 601.24,942.77 589.77,960.39 577.81,958.88 575.31,981.53 564.34,989.08 548.88,1011.23 536.91,1004.68 530.92,1014.75 498.5,1031.35 490.02,1027.32 485.54,1012.21 488.54,1000.64 481.56,986.53 479.08,966.4 461.63,957.32 457.66,932.15 458.67,918.05 433.75,909.47 423.29,897.89 410.84,889.82 407.36,881.76 381.94,880.73 374.97,871.66 356.54,866.1 352.55,861.06 331.63,856 324.66,849.95 305.23,844.39 288.82,825.73 282.83,828.24 268.4,818.65 263.41,824.18 249.46,823.66 247.48,810.57 240.53,798.97 237.09,768.76 226.16,752.63 227.68,740.05 238.14,738.55 244.64,725.47 257.11,716.43 271.09,690.27 265.64,673.15" fill="none" stroke="#1e1e1e" stroke-width="1.77" stroke-linecap="round" stroke-linejoin="round"/>
<path d="M721.13,1341.47L734.62,1343.48L739.11,1335.92L751.6,1333.9L756.09,1326.35L748.07,1294.13L735.56,1256.38L739.55,1243.28L735.54,1227.68L734,1156.69L736.97,1127.49L754.95,1143.08L755.96,1163.72L765.96,1177.31L768.46,1187.38L785.93,1184.34L813.86,1162.16L842.29,1153.07L849.79,1164.14L851.31,1182.26L847.84,1202.4L839.37,1217.01L843.38,1225.06L850.41,1257.78L857.92,1274.39L866.4,1269.84L880.91,1288.45L883.42,1302.55L886.43,1313.12L894.93,1318.14L909.4,1309.06L910.37,1291.43L907.35,1274.32L925.33,1272.28L940.78,1255.64L934.76,1241.55L959.2,1222.38L975.65,1211.27L987.14,1213.26L978.67,1224.86L985.67,1228.87L983.7,1243.48L993.24,1271.66L987.76,1279.72L1008.27,1298.31L1011.8,1313.91L1019.83,1333.53L1008.86,1342.11L997.91,1366.3L1004.42,1373.34L1006.95,1391.46L1013.46,1395.98L1045.96,1406.48L1057.47,1415.02L1051.5,1428.63L1058.53,1444.22L1056.55,1451.27L1066.57,1461.83L1062.62,1485.5L1062.17,1506.65L1057.8,1564.57L1052.49,1653.21L1049.01,1662.28L1039.51,1667.84L1030.01,1666.85L1010.53,1683.51L989.54,1695.63L985.11,1739.46L962.08,1735.47L932.58,1748.61L904.56,1754.2L886.05,1761.27L875.56,1773.88L859.03,1769.37L840.48,1741.69L831.98,1747.24L820.97,1745.24L816.45,1733.66L783.92,1733.69L766.92,1748.81L755.9,1746.3L751.91,1758.9L757.92,1771.48L731.9,1782.58L708.88,1796.7L697.36,1770.01L684.34,1766.49L667.82,1743.33L666.81,1724.69L669.81,1716.13L662.3,1698L680.3,1668.29L686.29,1638.07L700.79,1622.45L704.28,1607.85L712.28,1599.28L691.28,1610.37L676.78,1614.4L663.27,1608.37L655.26,1590.24L675.76,1583.18L675.76,1570.09L654.76,1565.57L652.25,1546.94L660.25,1546.43L666.75,1536.86L656.75,1533.34L666.74,1519.74L652.74,1491.55L663.23,1478.45L665.23,1465.86L679.22,1453.27L697.21,1453.77L707.7,1447.22L712.68,1423.05L725.67,1410.45L724.66,1396.86L729.65,1379.23L722.65,1372.19L728.64,1363.12L721.13,1341.47Z" fill-rule="evenodd" fill="#4682b4" fill-opacity="0.471"/>
<polyline points="721.13,1341.47 734.62,1343.48 739.11,1335.92 751.6,1333.9 756.09,1326.35 748.07,1294.13 735.56,1256.38 739.55,1243.28 735.54,1227.68 734,1156.69 736.97,1127.49 754.95,1143.08 755.96,1163.72 765.96,1177.31 768.46,1187.38 785.93,1184.34 813.86,1162.16 842.29,1153.07 849.79,1164.14 851.31,1182.26 847.84,1202.4 839.37,1217.01 843.38,1225.06 850.41,1257.78 857.92,1274.39 866.4,1269.84 880.91,1288.45 883.42,1302.55 886.43,1313.12 894.93,1318.14 909.4,1309.06 910.37,1291.43 907.35,1274.32 925.33,1272.28 940.78,1255.64 934.76,1241.55 959.2,1222.38 975.65,1211.27 987.14,1213.26 978.67,1224.86 985.67,1228.87 983.7,1243.48 993.24,1271.66 987.76,1279.72 1008.27,1298.31 1011.8,1313.91 1019.83,1333.53 1008.86,1342.11 997.91,1366.3 1004.42,1373.34 1006.95,1391.46 1013.46,1395.98 1045.96,1406.48 1057.47,1415.02 1051.5,1428.63 1058.53,1444.22 1056.55,1451.27 1066.57,1461.83 1062.62,1485.5 1062.17,1506.65 1057.8,1564.57 1052.49,1653.21 1049.01,1662.28 1039.51,1667.84 1030.01,1666.85 1010.53,1683.51 989.54,1695.63 985.11,1739.46 962.08,1735.47 932.58,1748.61 904.56,1754.2 886.05,1761.27 875.56,1773.88 859.03,1769.37 840.48,1741.69 831.98,1747.24 820.97,1745.24 816.45,1733.66 783.92,1733.69 766.92,1748.81 755.9,1746.3 751.91,1758.9 757.92,1771.48 731.9,1782.58 708.88,1796.7 697.36,1770.01 684.34,1766.49 667.82,1743.33 666.81,1724.69 669.81,1716.13 662.3,1698 680.3,1668.29 686.29,1638.07 700.79,1622.45 704.28,1607.85 712.28,1599.28 691.28,1610.37 676.78,1614.4 663.27,1608.37 655.26,1590.24 675.76,1583.18 675.76,1570.09 654.76,1565.57 652.25,1546.94 660.25,1546.43 666.75,1536.86 656.75,1533.34 666.74,1519.74 652.74,1491.55 663.23,1478.45 665.23,1465.86 679.22,1453.27 697.21,1453.77 707.7,1447.22 712.68,1423.05 725.67,1410.45 724.66,1396.86 729.65,1379.23 722.65,1372.19 728.64,1363.12 721.13,1341.47" fill="none" stroke="#1e1e1e" stroke-width="1.77" stroke-linecap="round" stroke-linejoin="round"/>
<path d="M346.53,1312.16L376.02,1288.53L388.01,1281.99L399,1282L408.99,1276.47L417.48,1280.51L423.48,1271.45L426.99,1247.29L444.47,1242.27L454.45,1249.32L459.44,1263.42L461.43,1275.01L475.4,1284.58L488.88,1298.68L488.37,1309.26L500.36,1312.28L509.34,1323.87L504.84,1334.94L520.82,1352.07L510.82,1368.18L504.33,1366.66L497.83,1377.74L476.34,1380.75L475.34,1391.32L481.32,1409.95L479.82,1428.08L482.31,1433.11L464.31,1449.22L470.3,1454.76L464.79,1485.47L493.77,1496.06L495.77,1507.14L503.26,1520.23L496.26,1526.78L496.25,1551.95L512.24,1559.01L519.75,1554.99L535.24,1561.03L575.25,1567.59L578.25,1562.55L601.75,1565.57L619.75,1563.56L635.25,1553.99L642.75,1556L652.25,1546.94L654.76,1565.57L675.76,1570.09L675.76,1583.18L655.26,1590.24L663.27,1608.37L676.78,1614.4L691.28,1610.37L712.28,1599.28L704.28,1607.85L700.79,1622.45L686.29,1638.07L680.3,1668.29L662.3,1698L669.81,1716.13L666.81,1724.69L667.82,1743.33L684.34,1766.49L697.36,1770.01L708.88,1796.7L719.4,1810.29L724.42,1824.39L703.39,1825.91L689.37,1821.89L675.85,1808.8L662.33,1811.82L642.81,1810.32L614.27,1796.22L597.25,1790.68L583.23,1791.69L584.23,1781.61L579.23,1768.02L554.2,1772.04L558.21,1746.36L546.7,1745.35L514.67,1750.88L514.66,1757.42L495.64,1760.44L493.64,1754.39L468.62,1746.82L459.61,1748.83L438.61,1731.19L438.11,1727.16L417.12,1697.43L395.63,1662.66L405.14,1657.64L399.65,1645.55L389.16,1634.46L375.66,1629.91L373.67,1616.31L355.19,1593.63L348.71,1580.03L344.24,1552.83L337.26,1534.69L349.77,1527.66L337.79,1514.05L342.81,1493.41L354.32,1483.36L359.83,1471.28L357.35,1455.67L337.86,1453.12L338.87,1444.06L329.92,1412.33L341.94,1391.2L354.45,1374.6L339.96,1372.57L329.96,1378.09L325.48,1365L325.51,1345.36L339.5,1344.37L346.53,1312.16Z" fill-rule="evenodd" fill="#4682b4" fill-opacity="0.471"/>
<polyline points="346.53,1312.16 376.02,1288.53 388.01,1281.99 399,1282 408.99,1276.47 417.48,1280.51 423.48,1271.45 426.99,1247.29 444.47,1242.27 454.45,1249.32 459.44,1263.42 461.43,1275.01 475.4,1284.58 488.88,1298.68 488.37,1309.26 500.36,1312.28 509.34,1323.87 504.84,1334.94 520.82,1352.07 510.82,1368.18 504.33,1366.66 497.83,1377.74 476.34,1380.75 475.34,1391.32 481.32,1409.95 479.82,1428.08 482.31,1433.11 464.31,1449.22 470.3,1454.76 464.79,1485.47 493.77,1496.06 495.77,1507.14 503.26,1520.23 496.26,1526.78 496.25,1551.95 512.24,1559.01 519.75,1554.99 535.24,1561.03 575.25,1567.59 578.25,1562.55 601.75,1565.57 619.75,1563.56 635.25,1553.99 642.75,1556 652.25,1546.94 654.76,1565.57 675.76,1570.09 675.76,1583.18 655.26,1590.24 663.27,1608.37 676.78,1614.4 691.28,1610.37 712.28,1599.28 704.28,1607.85 700.79,1622.45 686.29,1638.07 680.3,1668.29 662.3,1698 669.81,1716.13 666.81,1724.69 667.82,1743.33 684.34,1766.49 697.36,1770.01 708.88,1796.7 719.4,1810.29 724.42,1824.39 703.39,1825.91 689.37,1821.89 675.85,1808.8 662.33,1811.82 642.81,1810.32 614.27,1796.22 597.25,1790.68 583.23,1791.69 584.23,1781.61 579.23,1768.02 554.2,1772.04 558.21,1746.36 546.7,1745.35 514.67,1750.88 514.66,1757.42 495.64,1760.44 493.64,1754.39 468.62,1746.82 459.61,1748.83 438.61,1731.19 438.11,1727.16 417.12,1697.43 395.63,1662.66 405.14,1657.64 399.65,1645.55 389.16,1634.46 375.66,1629.91 373.67,1616.31 355.19,1593.63 348.71,1580.03 344.24,1552.83 337.26,1534.69 349.77,1527.66 337.79,1514.05 342.81,1493.41 354.32,1483.36 359.83,1471.28 357.35,1455.67 337.86,1453.12 338.87,1444.06 329.92,1412.33 341.94,1391.2 354.45,1374.6 339.96,1372.57 329.96,1378.09 325.48,1365 325.51,1345.36 339.5,1344.37 346.53,1312.16" fill="none" stroke="#1e1e1e" stroke-width="1.77" stroke-linecap="round" stroke-linejoin="round"/>
<text x="480.92" y="812.92" font-family="sans-serif" font-size="14" stroke="#ffffff" stroke-opacity="0.784" stroke-width="2.33" stroke-linejoin="round" paint-order="stroke" fill="#141414">North Central Province</text>
<text x="874.42" y="1074.95" font-family="sans-serif" font-size="14" stroke="#ffffff" stroke-opacity="0.784" stroke-width="2.33" stroke-linejoin="round" paint-order="stroke" fill="#141414">Eastern Province</text>
<text x="797.53" y="1508.23" font-family="sans-serif" font-size="14" stroke="#ffffff" stroke-opacity="0.784" stroke-width="2.33" stroke-linejoin="round" paint-order="stroke" fill="#141414">Uva Province</text>
<text x="193.95" y="1054.07" font-family="sans-serif" font-size="14" stroke="#ffffff" stroke-opacity="0.784" stroke-width="2.33" stroke-linejoin="round" paint-order="stroke" fill="#141414">North Western Province</text>
<text x="530.96" y="1285.91" font-family="sans-serif" font-size="14" stroke="#ffffff" stroke-opacity="0.784" stroke-width="2.33" stroke-linejoin="round" paint-order="stroke" fill="#141414">Central Province</text>
<text x="523.26" y="1841.41" font-family="sans-serif" font-size="14" stroke="#ffffff" stroke-opacity="0.784" stroke-width="2.33" stroke-linejoin="round" paint-order="stroke" fill="#141414">Southern Province</text>
<text x="382.62" y="1569.35" font-family="sans-serif" font-size="14" stroke="#ffffff" stroke-opacity="0.784" stroke-width="2.33" stroke-linejoin="round" paint-order="stroke" fill="#141414">Sabaragamuwa Province</text>
<text x="201.5" y="1532.35" font-family="sans-serif" font-size="14" stroke="#ffffff" stroke-opacity="0.784" stroke-width="2.33" stroke-linejoin="round" paint-order="stroke" fill="#141414">Western Province</text>
</svg>
