<?xml version="1.0" encoding="UTF-8" standalone="no"?>
<svg xmlns="http://www.w3.org/2000/svg" width="2000" height="1615" viewBox="0 0 2000 1615">
<rect width="2000" height="1615" fill="#ffffff"/>
<polyline points="1904.92,1556.98 1910.88,1552.16 1913.57,1552.15 1920.78,1554.68 1927.11,1561.19 1941.05,1567.27 1945.47,1572.53 1945.11,1575.62 1947.96,1577.65 1950,1581.78 1954.47,1585.84 1956.88,1586.36 1960.58,1585.1 1963.72,1585.12 1968.24,1588.34" fill="none" stroke="#1e1e1e" stroke-width="1.09" stroke-linecap="round" stroke-linejoin="round"/>
<polyline points="1974.78,1194.76 1970.76,1194.13 1970.36,1192.78 1965.66,1194.58 1955.24,1193.4 1946.56,1189.7 1943.74,1186.6 1938.64,1186.06 1937.21,1184.65 1931.74,1172.95 1934.93,1160.42 1933.99,1155 1931.06,1153.1 1929.17,1146.03 1930.09,1133.74 1933.26,1126.56 1931.18,1116.62 1931.71,1113.84 1933.3,1112.18 1940.05,1109.06 1943.87,1105.87 1952.51,1104.16 1955.99,1101.37 1953.48,1092.71 1952.35,1091.73 1948.31,1090.71 1946.26,1088.91 1945.9,1086.96 1949.73,1081.03 1953.79,1070.94 1957.06,1065.1 1961.34,1046.42 1960.34,1036.79 1959.87,1035.48 1957.96,1034.69 1957.1,1032.61 1953.04,1018.16 1949.9,1015.95 1949.17,1011.78 1943.43,1004.35 1931.87,1000.61 1917.49,989.08 1913.23,988.19 1910.65,991.97 1908.38,992.8 1902.09,997.46 1895.67,997.32 1891.3,995.83 1877.03,994.09 1874.09,988.86 1872.28,987.1 1866.16,984.34 1861.57,980.13 1860.56,982.06 1858.34,980.81 1855.76,980.55 1854.72,981.99" fill="none" stroke="#1e1e1e" stroke-width="1.09" stroke-linecap="round" stroke-linejoin="round"/>
<polyline points="139.57,1315.27 137.08,1316.6 133.34,1321.74 130.54,1323.86 128.14,1324.14 120.35,1321.82 114.08,1321.37 110.97,1319.88 103.32,1320.46 100.79,1317.98 99.7,1318.96 93.3,1318.01 88.52,1321.98 78.22,1324.38 73.21,1327.83 70.56,1326.92 64.3,1332.18 61.26,1338.24 58.08,1336.41 46.61,1335.24 44.38,1336.12 43,1338.28 41.29,1342.27 42.31,1344.77 41.01,1346.05 31.88,1348.42 24.48,1354.28 21,1352.72 18.98,1353" fill="none" stroke="#1e1e1e" stroke-width="1.09" stroke-linecap="round" stroke-linejoin="round"/>
<polyline points="198.73,1542.4 199.1,1547.22 191.11,1565.39 190.43,1570.63 183.17,1580.36 182.81,1585.43 180.41,1589.57 181.28,1593.66" fill="none" stroke="#1e1e1e" stroke-width="1.09" stroke-linecap="round" stroke-linejoin="round"/>
<polyline points="1143.05,1524.95 1143.83,1526.43 1147.75,1524.93 1149.44,1525.68 1150.1,1526.93 1149.56,1528.17 1147.77,1528.95 1149.49,1530.71 1160.29,1532.7 1164.56,1536.09 1166.6,1533.66 1168.74,1534.52 1171.29,1533.76 1172.14,1530.61 1175.36,1531.19 1176.67,1530.1 1177.22,1526.16 1179.66,1526.33 1183.95,1529.75 1200.93,1533.4 1205.28,1537.79 1205.24,1539.88 1211.66,1539.02 1212.83,1540.86 1211.67,1544.1 1215.39,1545.1 1216.51,1548.64 1220.51,1551.02 1219.79,1553.99 1222.91,1557.2 1225,1557.06 1228.06,1554.1 1228.56,1555.42 1229.99,1555.98 1238.18,1555.69 1240.15,1557.04 1241.35,1560.63 1244.57,1562.43 1244.86,1564.93 1243.64,1572.25 1244.18,1574.59 1245.68,1576.14 1249.05,1576.9 1250.32,1578.19 1254.85,1577.33 1255.89,1578.14 1255.93,1582.56 1258.82,1584.62 1262.83,1583.03 1264.73,1579.73 1266.39,1582.21 1267.67,1588.18 1275.81,1590.61 1278.29,1592.13 1281.47,1597.01 1276.44,1605.48" fill="none" stroke="#1e1e1e" stroke-width="1.09" stroke-linecap="round" stroke-linejoin="round"/>
<polyline points="1633.87,901.41 1633.29,896.72 1636.56,888.99 1637.85,879.74 1634.04,875.56 1633.21,873.11 1633.61,864.37" fill="none" stroke="#1e1e1e" stroke-width="1.09" stroke-linecap="round" stroke-linejoin="round"/>
<polyline points="1633.61,864.37 1635.66,860.94 1642.84,860.17 1644.14,856.16 1643.61,854.37 1639.31,844.98 1636.88,841.81 1631.98,838.52 1630.62,835.31 1626.21,832.54 1623.25,825.35 1617.7,819.81 1616.63,816.52 1616.6,809.66 1614.64,806.65 1610.42,803.12 1610.96,799.9 1606.22,795.22 1599.96,785.03 1599.33,782.95 1600.3,779.56 1599.86,775.18 1596.34,760.45 1594.51,757.16 1596.75,755.59 1597.48,754.06 1596.54,749.75 1598.05,745.65 1594.99,742.09 1594.78,740.12" fill="none" stroke="#1e1e1e" stroke-width="1.09" stroke-linecap="round" stroke-linejoin="round"/>
<polyline points="1411.12,549.02 1414.63,549.4 1431.8,558.09 1435.87,564.15 1435.75,571.83 1437.44,575.52 1440.99,578.66 1472.61,595.42 1481.6,596.05 1487.01,599.01 1495.97,608.39 1501.11,612.14 1507.57,615.58 1517.25,617.73 1519.49,619.38 1521.11,621.88 1521.93,632.69 1527.15,638.61 1534.71,651.39 1545.27,662.8 1549.62,669.92 1557.37,679.17 1558.18,681.64 1557.44,688.61 1558.7,692.56 1570.9,709.44 1578.94,713.91 1585.53,729.63 1594.53,740.56" fill="none" stroke="#1e1e1e" stroke-width="1.09" stroke-linecap="round" stroke-linejoin="round"/>
<polyline points="1782.77,1539.76 1784.15,1542.84 1781.49,1549.91 1783.08,1555.33 1786.63,1559.05 1790.05,1558.74 1792.16,1559.38 1797.35,1565.67 1799.76,1564.73 1801.95,1568.82 1803.95,1576.04 1804.27,1581.99 1802.6,1586.09 1797.47,1588.59 1797.14,1591.51 1797.68,1592.51 1799.93,1593.07 1800.47,1594.24" fill="none" stroke="#1e1e1e" stroke-width="1.09" stroke-linecap="round" stroke-linejoin="round"/>
<polyline points="1854.72,981.99 1851.56,981.57 1848.73,982.63 1844.27,979.09 1842.52,979.49 1836.77,977.19 1835.6,973.42 1831.39,968.34 1830.3,963.08 1828.71,961.89 1826.79,956.97 1823.84,956.01 1820.53,953.39 1819.32,947.37 1814.58,945.29 1811.75,938.23 1805.36,933.62 1804.28,927.04 1797.99,919.24 1792.96,915.77 1788.97,916.98 1780.58,917.09 1776.67,918.11 1773.51,920.68 1771.86,923.27 1769.69,935.24 1767.14,937.77 1763.26,937.89 1760.97,939.56 1757.9,938.73 1754.18,934.9 1742.92,932.54 1731.49,932.39 1727.63,934.18 1720.25,934.77 1716.79,936.52 1710.92,937.58 1709.53,938.82 1708.75,941.13 1706.57,941.15 1702.64,944.51 1694.01,943.96 1687.84,939.79 1682.98,937.86 1679.43,937.95 1666.03,944.74 1663.77,947.2 1651.26,947.7 1648.91,947.45 1642.56,943.36 1639.39,942.45 1636.74,939.22 1635.63,935.8 1630.67,933.23 1629.99,931.96 1633.06,928.33 1632.93,924.58 1634.67,919.05 1634.52,917.15 1632.55,913.81 1635.14,908.94 1633.87,901.41" fill="none" stroke="#1e1e1e" stroke-width="1.09" stroke-linecap="round" stroke-linejoin="round"/>
<polyline points="1096.84,1519.46 1094.64,1520.19 1093.9,1521.78 1092.83,1529.18 1088.81,1532.44 1086.86,1535.67 1076.06,1542.22 1073.39,1546.58 1068.64,1549.89 1068.93,1556.26 1068.23,1558.41 1066.17,1559.13 1064.67,1562.01 1059.85,1562.86 1058.5,1564.79 1056.33,1572.13 1058.43,1575.82 1062.15,1578.27 1063.28,1580.64 1063.31,1583.14 1061.94,1585.88 1063.47,1589.43 1063.52,1591.44 1061.55,1592.33 1060.38,1601.19 1056.95,1606.94" fill="none" stroke="#1e1e1e" stroke-width="1.09" stroke-linecap="round" stroke-linejoin="round"/>
<polyline points="1782.16,1221.56 1781.96,1219.56 1784,1216.54 1787.69,1215.3 1798.55,1212.59 1803.24,1215.41 1808.88,1220.31 1811.35,1225.89 1813.36,1232.77 1814.02,1238.34 1813.21,1244.51 1814.52,1246.69" fill="none" stroke="#1e1e1e" stroke-width="1.09" stroke-linecap="round" stroke-linejoin="round"/>
<polyline points="1792.81,1317.52 1790.86,1316.7 1787.55,1312.94 1783.36,1311.12 1780.2,1304.27 1776.87,1299.84 1774.34,1298.77 1771.33,1299.73 1770.89,1297.29 1767.91,1293.83 1767.12,1291.33 1768.47,1287.52 1768.02,1284.24 1769.2,1282.07 1773.03,1278.67 1771.99,1274.78 1772.69,1271.52 1770.39,1266.47 1770.23,1264.3 1772.51,1261.75 1773.14,1258.8 1775.29,1257.53 1778.55,1251.86 1776.78,1248.74 1777.05,1247.61 1782.55,1245.84 1783.75,1244.08 1783.87,1242.3 1788.31,1237.04 1791.32,1238 1792.91,1236.91 1791.39,1235.4 1789.62,1231.38 1785.76,1229.95 1782.61,1226.93 1782.16,1221.56" fill="none" stroke="#1e1e1e" stroke-width="1.09" stroke-linecap="round" stroke-linejoin="round"/>
<polyline points="1515.22,1294.19 1511.38,1293 1508.59,1290.5 1504.13,1283.62 1491.91,1275.09 1484.27,1268.21 1478.02,1264.85 1473.25,1260.44 1469.83,1254.09 1468.57,1248.8 1469.19,1243.64 1468.29,1237.94" fill="none" stroke="#1e1e1e" stroke-width="1.09" stroke-linecap="round" stroke-linejoin="round"/>
<polyline points="1584.42,1427.61 1580.28,1421.26 1579.64,1416.07 1581.52,1408.91 1578.94,1402.21 1576.29,1397.76 1576.59,1391.82 1574.56,1386.72 1571.9,1383.83 1567.04,1382.43 1563.89,1379.67 1559.74,1378.31 1558.16,1373.15 1558.19,1370.85 1559.52,1368.25 1559.41,1363.44 1561.44,1360.3 1563.13,1354 1562.22,1348.77 1565.05,1340.5 1564.62,1334.69 1560.74,1327.65 1560.59,1322.27 1562.73,1320.45 1563.74,1317.96 1563.57,1315.25 1562.26,1312.81 1560.01,1311.21 1552.59,1307.63 1548.5,1300.88 1544.97,1300.1 1533.24,1299.91 1529.03,1298.08 1527.1,1299.62 1520.88,1298.88 1519.24,1298.39 1515.22,1294.19" fill="none" stroke="#1e1e1e" stroke-width="1.09" stroke-linecap="round" stroke-linejoin="round"/>
<polyline points="1468.29,1237.94 1465.92,1218.06 1460.46,1205.39 1458.99,1196.6 1458.99,1194.52 1463.78,1186.17 1462.51,1184.04 1464.02,1177.74 1463.86,1169.66 1461.3,1166.45 1455.93,1163.33 1453.14,1159 1451.19,1157.92 1444.77,1157.19 1440.07,1152.46 1439.62,1149.88 1440.43,1148.16 1443.47,1145.52 1444.33,1143.56 1443.67,1141.77 1438.64,1136.29 1438.83,1130.33 1437.95,1124.24 1438.97,1122.06 1437.09,1119.57 1435.23,1118.98 1429.95,1114.98 1426.93,1108.41 1421.51,1111.73 1421.99,1109.29 1424.78,1104.3 1423.85,1102.38 1419.81,1099.28 1419.43,1096.88 1420.95,1094.53 1417,1091.68 1415.54,1087.74 1419.25,1081.53 1418.7,1077.2 1413.64,1077.24 1412.83,1076.1 1413.54,1074.05 1416.45,1071.32 1416.1,1068.23 1414.18,1067.56 1411.8,1064.47 1407.88,1063.73 1406.67,1058.51 1405.37,1058.31 1402.9,1060.69 1397.69,1057.51 1396.08,1057.27 1389.07,1058.64 1387.51,1056.78 1387.45,1052.85 1382.8,1047.47 1384.18,1043.22 1383.98,1041.12 1381.71,1035.25 1378.49,1032.75 1378.42,1028.82 1372.01,1027.06 1374.56,1020.48 1375.54,1018.82 1377.42,1017.73 1377.43,1015.26 1375.83,1011.97 1370.81,1011.81 1369.52,1010.47 1369.57,1008.64 1375.77,1008.05 1377.7,1007.38 1377.94,1005.97 1376.88,1004.59 1370.55,1003.02 1369.04,1001.54 1368.64,999.2 1369.45,997.18 1374.82,996.78 1376.07,995.51 1377.11,989.5 1376.47,987.49 1373.72,985.54 1373.08,983.86 1378.28,982.04 1379.3,979.75 1376.04,975 1380.54,972.17 1381.41,970.11 1381.34,966.11 1383.62,962.8 1383.64,960.72 1379.67,958.06 1378.91,954.87 1375.43,954.69 1375.28,951.74 1377.16,946.93 1376.56,945.29 1368.27,938.44 1367.72,937.4 1368.28,930.62 1367.58,928.56 1364.25,930.27 1363.04,928.63 1362.07,922.96 1357.84,921.06 1357.03,916.99 1354.11,913.47 1347.7,902.36 1345.48,894.56 1343.7,891.88 1341.38,894.37 1340.12,892.81 1339.73,887.19 1336.69,885.71 1333.38,877 1330.24,874.3 1329.55,872.56 1329.3,864.85 1330.02,860.78 1325.72,855.23 1324.89,849.12 1323.69,847.22 1317.49,842.53 1314.25,836.1 1308.98,833.84 1304.88,829.65 1292.45,827.57 1286.15,823.57 1280.53,821.57 1275.25,815.47 1271.7,814.02 1270.48,807.75 1267.74,804.55 1261.29,799.68 1256.12,791.21 1254.11,790.24 1250.85,791.07 1246.37,789.66" fill="none" stroke="#1e1e1e" stroke-width="1.09" stroke-linecap="round" stroke-linejoin="round"/>
<polyline points="1814.45,1246.49 1814.93,1253.97 1815.8,1256.34 1818.18,1256.48 1821.65,1258.08 1824.78,1257.88 1828.1,1259.68 1841.24,1262.73 1846.09,1268.62 1847.08,1272.01 1849.32,1275.34 1856.78,1282.82 1861.8,1286.98 1868.15,1289.02 1871.86,1292.72 1876.52,1293.18 1878.7,1294.48 1883.92,1294.28 1889.54,1297.3 1899.03,1299.34 1902.13,1298.46 1909.68,1299.87 1912.13,1298.19 1921.04,1299.61 1930.54,1306.31 1937.31,1306.13 1943.07,1313.44 1943.94,1314.85 1945.05,1322.43 1947.9,1327.38 1946.66,1336.23 1949.27,1342.63 1947.82,1345.97 1948,1353.87 1944.12,1360.68 1943.72,1362.64 1944.06,1373.63 1946.33,1377.89 1945.35,1381.23 1946.79,1388.57 1947.86,1390.32 1946.2,1392.41 1943.6,1405.21 1940.26,1408.64 1941.47,1413.93 1939.71,1417.58 1934.25,1419.58 1927.33,1418.96 1919.85,1421.34 1918.53,1422.51 1917.57,1425.11 1913.87,1428.75 1905.93,1431.38 1889.78,1439.73 1884.54,1443.76 1880.25,1444.68 1876.83,1448.55 1868.77,1453.46 1864.83,1453.31 1858.04,1455.78 1846.91,1448.02 1837.5,1437.17 1826.28,1432.63 1818.32,1431.23 1816.62,1431.92 1815.74,1435.17 1814.53,1436.55 1812.34,1436.22 1810.93,1434.22 1810.1,1428.91 1809.1,1427.76 1805.32,1426.53 1800.99,1426.81 1797.01,1423.44 1795.37,1419.52 1798.23,1412.51 1797.74,1409.31 1795.95,1408.52 1788.17,1408.75 1783.66,1406.81 1780.19,1404.17 1763.42,1401.48 1756.28,1399.47 1749.65,1399.02 1746.44,1396.5 1741.57,1397.47 1723.01,1396.88 1720.69,1396.08 1719.06,1393.86 1719.02,1387.7 1716.44,1385.55 1708.72,1389.39 1708.25,1396.17 1704.41,1398.06 1702.17,1400.53 1698.66,1407.48 1698.52,1414.83 1692.32,1423.46 1685.88,1426.44 1675.64,1424.97 1670.22,1426.94 1664.8,1425.45 1661.4,1427.64 1657.25,1427.15 1655.45,1427.96 1651.52,1432.5 1649.64,1438.27 1647.19,1439.96 1641.46,1441.23 1639.02,1440.75 1636.28,1438.64 1630.64,1437.6 1628.36,1438.34 1627.98,1440.76 1629.61,1445.91 1627.72,1447.35 1621.98,1448.6 1618.39,1443.57 1612.46,1440.64 1602.55,1434.16 1601.33,1432.18 1594.99,1429.52 1591.16,1432.02 1586.36,1429.72 1584.42,1427.61" fill="none" stroke="#1e1e1e" stroke-width="1.09" stroke-linecap="round" stroke-linejoin="round"/>
<polyline points="1377.03,452.91 1377,453" fill="none" stroke="#1e1e1e" stroke-width="1.09" stroke-linecap="round" stroke-linejoin="round"/>
<polyline points="1377,453 1376.36,455.75 1377.34,458.34 1386.24,466.23 1388.11,468.86" fill="none" stroke="#1e1e1e" stroke-width="1.09" stroke-linecap="round" stroke-linejoin="round"/>
<polyline points="1246.51,789.43 1250.86,772.21 1249.45,764.82 1252.95,760.27 1252.95,756.01 1251.35,747.71 1251.56,730.39 1252.67,725.95 1256.12,722.38 1259.03,717.04 1260.99,715.53 1267.26,713.22 1268.12,708.09 1268.97,707 1272.48,705.72 1272.6,702.76 1273.92,701.05 1278.15,697.98 1279.67,694.78 1283.85,691.91 1287.34,687.66 1299.78,682.15 1302.18,681.75 1305.92,683.63 1310.49,684.55 1316.97,683.07 1333.83,668.23 1346.53,664.91 1353.53,661.23 1358.23,657.65 1369.6,655.39 1372.36,652.35 1378.57,639.96 1383.9,631.85 1385.2,627.1 1384.41,622.18 1381.04,617.44 1380.55,615.44 1381.07,612.41 1385.68,606.15 1385.9,593.12 1388.71,588.65 1396.82,579.78 1398.99,575.51 1402.12,562.01 1406.28,559.86 1410.09,555.2 1411.01,550.07 1409.98,542.63 1411.34,532.56 1409.2,507.1 1403.59,478.89 1400.06,472.81 1391.18,472.84 1388.23,469 1383.51,456.02 1382.57,455.02 1377.62,453.94 1377,453" fill="none" stroke="#1e1e1e" stroke-width="1.09" stroke-linecap="round" stroke-linejoin="round"/>
<polyline points="1377,453 1375.92,449.17 1377.74,440.63 1377.47,433.7 1376.09,429.3 1372.92,425.45 1368.99,425.15 1367.87,423.89 1362.88,423.58 1361.67,421.42 1362.15,415.85 1360.5,411.5 1360.69,404.21 1363.53,395.96 1362.94,376.61 1361.15,372.23 1358.03,368.98 1345.82,361.86 1345.04,357.14 1341.98,351.72 1340.56,343.84 1337.3,341.48 1329.9,337.76 1304.73,331.87 1300.2,333.47 1295.07,339.97 1291.89,339.68 1287.22,340.74 1284.02,343.06 1276.11,355.11 1273.56,354.29 1270.4,358.7 1267.74,360.95 1263.69,372.33 1260.79,375.16 1256.74,376.68 1246.23,376.58 1244.39,377.4 1243.48,382.83 1240.79,386.91 1239.31,390.93 1234.36,394.59 1230.7,399.27 1226.44,407.9 1223.78,407.87 1222.47,407.4 1220.88,405.17 1218.55,405.11 1209.52,407.77 1192.37,420.47 1191.6,422.34 1192.11,424.78 1195.46,429.16 1195.81,434.94 1193.61,439.89 1189.72,443.54 1184.95,445.34 1182.07,445.44 1179.56,444.51 1175.01,446.15 1166.74,459.23 1163.97,469.82 1155.72,477.21 1153.08,483.35 1147.03,489.82 1140.18,500.25 1136.38,503.51 1127.69,507.82 1122.92,508.73 1113.7,508.08 1100.57,514.97 1096.61,513.23 1090.22,512.16 1082.33,507.73 1075.64,507.78 1073.12,506.92 1069.14,500.59 1065.46,497.96 1055.92,496.34 1051.62,493.43 1043.91,474.87 1045.48,465.72 1044.17,458.44 1041.89,454.97 1035.39,449.17 1031.25,443.69 1030.11,441.09 1028.15,430.1 1025.54,425.06 1023.27,416.72 1020.62,414.54 1019.93,412.35 1017.86,399.34 1020.19,390.12 1020.52,369.88 1018.52,363.1 1020.26,352.43 1018.39,346.62 1017.81,339.78 1016.57,336.45 1010.24,327.35 1010.24,318.04 1007.21,310.82 1006.6,305.19 1004.94,303.53 1000.15,301.18 999.67,298.75 1000.66,294.09 1003.32,292.38 1010.92,290.61 1017.02,286.6 1025.77,286.59 1028.67,285.16 1031.07,281.69 1032.59,277.47 1032.92,273.73 1029.89,267.31 1028.31,258.45 1030.98,246.44 1026.62,239.54 1023.96,237.62 1016.23,236.67 1010.58,237.32 1009.07,235.91 1005.75,228.64 1002.71,216.94 999.21,210.01 1000.02,206.05 1007.06,194.1 1007.18,192.33 1003.55,187.94 1004.72,184.16 1007.53,181.88 1011.41,182.63 1026.03,179.83 1028.71,177.53 1029.77,172.92 1029.87,163.74 1032.09,161.13 1032.76,157.53 1043.22,152.1 1044.89,149.87 1043.86,145.91 1040.97,140.4 1042.54,136.6 1055.23,127.09 1059.26,127.19 1065.85,123.32 1073.14,115.82 1075.44,112.01 1071.95,107.25 1073.92,103.98 1082.05,97.23 1086,88.87" fill="none" stroke="#1e1e1e" stroke-width="1.09" stroke-linecap="round" stroke-linejoin="round"/>
<polyline points="1086,88.87 1088.07,85.86 1093.52,83.36 1095.37,81.33 1098.01,70.25 1103.07,63.84 1108.32,60.4 1113.52,51.73 1116.94,33.76 1121.01,25.98" fill="none" stroke="#1e1e1e" stroke-width="1.09" stroke-linecap="round" stroke-linejoin="round"/>
<polyline points="1095.18,1518.67 1081.12,1510.84 1075.96,1509.08 1073.49,1509 1068.54,1510.78 1059.29,1510.81 1039.46,1506.75 1025.24,1506.17 1021.13,1507.58 1017.52,1511.82 1013.8,1512.91 1011.48,1518.05 1007.37,1522.27 1005.64,1526.86 1002.18,1528.84 1003.61,1531.8 1006.52,1533.71 1006.79,1543.14 1005.26,1545.42 1006.07,1546.28 1001.48,1549.84 999.27,1557.11 994.8,1560.04 994,1563.33 991.69,1565.68 988.44,1566.48 986.61,1570.97 988.8,1576.8 989.23,1581.85 991.68,1585.15 991.76,1591.29 992.4,1593.21 993.27,1592.4 993.94,1594.16 993.46,1595.66 990.8,1598.11 992.61,1600.99 997.26,1605.37 999.69,1606.05 1000.37,1607" fill="none" stroke="#1e1e1e" stroke-width="1.09" stroke-linecap="round" stroke-linejoin="round"/>
<polyline points="1095.18,1518.67 1121.29,1524.75 1123.28,1527.15 1127.79,1528.78 1134.66,1528.34 1139.97,1526.48 1148.58,1520.82 1151.9,1516.53 1154.08,1511.54 1156.44,1508.3 1154.03,1503.89 1154.49,1501.58 1157.29,1498.72 1158.31,1496.25 1162.46,1495.16 1164.27,1491.69 1166.47,1490.28 1176.73,1488.57 1187.4,1480.57 1193.79,1478.63 1199.48,1469.39 1207.19,1464.21 1211,1460.64 1215.93,1453.55 1216.85,1450.17 1220.96,1448.05 1221.67,1446.96 1224.87,1438.74 1227.13,1436.87 1229,1429.13 1224.41,1419.41 1224.82,1412.96 1223.26,1408.15 1222.79,1400.45 1221.54,1399.14 1219.55,1398.64 1211.4,1398.77 1208.55,1398.01 1207.3,1395.8 1207.57,1390.96 1208.81,1386.52 1211.56,1382.3 1223.72,1370.98 1230.45,1362.81 1234.53,1359.18 1238.66,1357.19 1242.3,1357.36 1244.77,1356.15 1255.11,1340.88 1259.99,1338.72 1261.59,1336.85 1267.65,1333.54 1270.07,1328.91 1270.69,1324.51 1270.49,1304.15 1268.87,1299.35 1269.02,1296.59 1272.99,1286.35 1274.09,1273.88 1276.3,1265.28 1282.4,1253 1283.17,1247.17 1281.53,1235.96 1277.85,1226.06 1277.54,1220.32 1280.58,1215.86 1278.07,1203.06 1278.12,1191.59 1277.08,1189.37 1277.91,1181.03 1279.2,1176.88 1282.19,1172.09 1283.38,1163.57 1285.39,1157.07 1286.06,1148.69 1280.26,1124.94 1281.8,1115.49 1279.72,1108.89 1280.08,1106.05 1286.24,1095.96 1286.16,1093.57 1283.04,1089.59 1281.97,1083.57 1278.95,1078.35 1275.46,1077.22 1265.16,1068.84 1263.37,1065.51 1262.38,1061.4 1259.08,1056.3 1258.38,1052.02 1259.08,1043.25 1263.09,1031.34 1263.65,1027.12 1262.85,1024.67 1256.92,1023.55 1251.05,1019.25 1247.1,1013.61 1246.6,1005.18 1236.57,997.47 1231.49,990.98 1230.29,987.34 1229.21,977.7 1225.85,970.88 1223.96,964.78 1216.99,955.36 1215.22,948.05 1211.43,940.68 1210.45,936.89 1210.75,933.41 1215.12,919.02 1212.53,908.71 1214.09,900.71 1215.67,896.61 1217.47,893.76 1226.47,885 1230.89,875.66 1238.35,870.18 1239.77,868.3 1240.26,865.29 1239.25,854.63 1241.05,846.81 1246.18,831.62 1246.73,823.24 1245.95,819.06 1242.67,811.86 1241.88,808.05 1246.51,789.43" fill="none" stroke="#1e1e1e" stroke-width="1.09" stroke-linecap="round" stroke-linejoin="round"/>
<text x="1045.01" y="504.21" font-family="sans-serif" font-size="14" stroke="#ffffff" stroke-opacity="0.784" stroke-width="2.33" stroke-linejoin="round" paint-order="stroke" fill="#141414">Nile</text>
<text x="1201.61" y="1210.23" font-family="sans-serif" font-size="14" stroke="#ffffff" stroke-opacity="0.784" stroke-width="2.33" stroke-linejoin="round" paint-order="stroke" fill="#141414">El Bahr el Abyad</text>
<text x="1298.68" y="1015.01" font-family="sans-serif" font-size="14" stroke="#ffffff" stroke-opacity="0.784" stroke-width="2.33" stroke-linejoin="round" paint-order="stroke" fill="#141414">El Bahr el Azraq</text>
<text x="1832.81" y="1460.18" font-family="sans-serif" font-size="14" stroke="#ffffff" stroke-opacity="0.784" stroke-width="2.33" stroke-linejoin="round" paint-order="stroke" fill="#141414">Abay</text>
<text x="1491.29" y="630.01" font-family="sans-serif" font-size="14" stroke="#ffffff" stroke-opacity="0.784" stroke-width="2.33" stroke-linejoin="round" paint-order="stroke" fill="#141414">Atbara</text>
<text x="1922.41" y="1078.88" font-family="sans-serif" font-size="14" stroke="#ffffff" stroke-opacity="0.784" stroke-width="2.33" stroke-linejoin="round" paint-order="stroke" fill="#141414">Tekezé</text>
<text x="1724.69" y="940.14" font-family="sans-serif" font-size="14" stroke="#ffffff" stroke-opacity="0.784" stroke-width="2.33" stroke-linejoin="round" paint-order="stroke" fill="#141414">Setit</text>
<text x="1194.87" y="1559.31" font-family="sans-serif" font-size="14" stroke="#ffffff" stroke-opacity="0.784" stroke-width="2.33" stroke-linejoin="round" paint-order="stroke" fill="#141414">Sobat</text>
<text x="945.75" y="1533.68" font-family="sans-serif" font-size="14" stroke="#ffffff" stroke-opacity="0.784" stroke-width="2.33" stroke-linejoin="round" paint-order="stroke" fill="#141414">Bahr el Jebel</text>
<text x="40.25" y="1333.8" font-family="sans-serif" font-size="14" stroke="#ffffff" stroke-opacity="0.784" stroke-width="2.33" stroke-linejoin="round" paint-order="stroke" fill="#141414">Aoukalé</text>
<text x="1749.53" y="1274.86" font-family="sans-serif" font-size="14" stroke="#ffffff" stroke-opacity="0.784" stroke-width="2.33" stroke-linejoin="round" paint-order="stroke" fill="#141414">Abay</text>
<text x="999.79" y="1567.84" font-family="sans-serif" font-size="14" stroke="#ffffff" stroke-opacity="0.784" stroke-width="2.33" stroke-linejoin="round" paint-order="stroke" fill="#141414">Bahr el  Zeraf</text>
<text x="1912.18" y="1573.67" font-family="sans-serif" font-size="14" stroke="#ffffff" stroke-opacity="0.784" stroke-width="2.33" stroke-linejoin="round" paint-order="stroke" fill="#141414">Awash</text>
<text x="1410.9" y="1276.49" font-family="sans-serif" font-size="14" stroke="#ffffff" stroke-opacity="0.784" stroke-width="2.33" stroke-linejoin="round" paint-order="stroke" fill="#141414">El Bahr el Azraq</text>
<text x="1091.53" y="67.91" font-family="sans-serif" font-size="14" stroke="#ffffff" stroke-opacity="0.784" stroke-width="2.33" stroke-linejoin="round" paint-order="stroke" fill="#141414">Nile</text>
<text x="1780.24" y="1572.34" font-family="sans-serif" font-size="14" stroke="#ffffff" stroke-opacity="0.784" stroke-width="2.33" stroke-linejoin="round" paint-order="stroke" fill="#141414">Omo</text>
<text x="1784.94" y="1225.19" font-family="sans-serif" font-size="14" stroke="#ffffff" stroke-opacity="0.784" stroke-width="2.33" stroke-linejoin="round" paint-order="stroke" fill="#141414">Abay</text>
<text x="166.66" y="1575.84" font-family="sans-serif" font-size="14" stroke="#ffffff" stroke-opacity="0.784" stroke-width="2.33" stroke-linejoin="round" paint-order="stroke" fill="#141414">Kotto</text>
<text x="1607.52" y="889.4" font-family="sans-serif" font-size="14" stroke="#ffffff" stroke-opacity="0.784" stroke-width="2.33" stroke-linejoin="round" paint-order="stroke" fill="#141414">Atbara</text>
</svg>
