<?xml version="1.0" encoding="UTF-8" standalone="no"?>
<svg xmlns="http://www.w3.org/2000/svg" width="1088" height="2000" viewBox="0 0 1088 2000">
<rect width="1088" height="2000" fill="#ffffff"/>
<polyline points="623.31,205.21 632.47,206.34 642.22,205.19 655.72,208.57 659.46,208.74 666.71,211.7 671.36,215.31 674.15,215.66" fill="none" stroke="#1e1e1e" stroke-width="0.97" stroke-linecap="round" stroke-linejoin="round"/>
<polyline points="597.24,182.7 595.69,179.73 594.82,174.55 591.68,167.72" fill="none" stroke="#1e1e1e" stroke-width="0.97" stroke-linecap="round" stroke-linejoin="round"/>
<polyline points="623.31,205.21 617.27,199.02 611.41,189.43 597.24,182.71" fill="none" stroke="#1e1e1e" stroke-width="0.97" stroke-linecap="round" stroke-linejoin="round"/>
<polyline points="787.41,268.33 785.16,266.97 783.14,263.86 783.04,260.29 777.38,255.63 776.22,252.99 770.96,250.58 767.58,250 762.78,253.23 737.61,251.96 712.96,230.72 699.98,225.65 697.17,222.42 694.16,221.2 691.49,222.08 688.77,221.91 682.14,219.79 674.15,215.66" fill="none" stroke="#1e1e1e" stroke-width="0.97" stroke-linecap="round" stroke-linejoin="round"/>
<polyline points="848.97,455.8 843.02,445.96 846.61,433.35 847.62,424.91 846.21,418.08 846.28,410.03 845.12,402.63 841.55,396.09 838.51,382.06 837.82,373.38 833.84,361.25 832.58,348.91 835.1,344.12 836.64,337.33 835.89,330.31 832.54,322.25 831.14,320.61 829.54,320.29 825.72,314.11 822.84,311.39 822.73,306.91 825.12,304.86 825.68,298.92 824.46,292.71 818.47,287.55 812.07,285.45 805.05,281.47 800.19,275.78 787.42,268.34" fill="none" stroke="#1e1e1e" stroke-width="0.97" stroke-linecap="round" stroke-linejoin="round"/>
<polyline points="871.62,478.49 864.97,474.72 858.32,472.56 852.99,466.05 848.97,455.81" fill="none" stroke="#1e1e1e" stroke-width="0.97" stroke-linecap="round" stroke-linejoin="round"/>
<polyline points="347.3,848.4 346.71,859.07 344.34,861.76 339.8,860.95 330.04,862.44 323.23,861.51 320.77,860.21 317.33,853.3 311.49,849.18" fill="none" stroke="#1e1e1e" stroke-width="0.97" stroke-linecap="round" stroke-linejoin="round"/>
<polyline points="311.49,849.18 299.09,847.11 295.42,843.7 287.35,840.86 283.05,838.25 279.38,833.99 276.93,827.65" fill="none" stroke="#1e1e1e" stroke-width="0.97" stroke-linecap="round" stroke-linejoin="round"/>
<polyline points="347.3,848.4 344.87,841.51 346.31,840.41 357.31,844.41 366.81,843.5 374.74,844.58 376.85,845.45 380.38,848.98 404.83,861.89 417.13,867.3 428.54,869.42 431.43,868.39 439.07,870.12 442.52,872.43 453.92,871.99 457.59,871.18 466.13,872.42 469.64,877.33 473.57,879.71 477.23,885.52 483.11,888 485.88,891.22 485.88,896.33 487.19,900.23 484.23,909.92 484.03,913.25 488.86,927.01 491.91,930.01 493.42,935.31 511.74,951.67 519.17,960.96 527.87,963.88 533.53,960.72" fill="none" stroke="#1e1e1e" stroke-width="0.97" stroke-linecap="round" stroke-linejoin="round"/>
<polyline points="281.34,836.33 277.18,838.93 263.2,837.12 258.91,832.4 255.71,832.39 252.44,830.22 244.68,829.66 243.21,828.4 240.85,821.79 239.31,820.13 233.88,818.94 232.05,819.7 228.35,828.19 228.59,830.28 227.59,831.93 228.14,835.09 226.88,838.72 222,841.96 207.45,838.83 205,839.41 202.69,843.54 194.98,848.69 194.41,850.05 194.8,853.61 193.03,857.14 200.79,866.79" fill="none" stroke="#1e1e1e" stroke-width="0.97" stroke-linecap="round" stroke-linejoin="round"/>
<polyline points="86,1196.23 88.73,1198.3 94.11,1205.24 99.98,1217.01 100.71,1221.14 99.31,1231.81 99.29,1238.19 100.09,1240.33" fill="none" stroke="#1e1e1e" stroke-width="0.97" stroke-linecap="round" stroke-linejoin="round"/>
<polyline points="112.41,1277.93 107.41,1274.74 106.29,1272.9 102.55,1255.97 100.54,1251.88 101.37,1244.2 100.12,1240.4" fill="none" stroke="#1e1e1e" stroke-width="0.97" stroke-linecap="round" stroke-linejoin="round"/>
<polyline points="157.73,1030.82 158.78,1029.46" fill="none" stroke="#1e1e1e" stroke-width="0.97" stroke-linecap="round" stroke-linejoin="round"/>
<polyline points="202.18,1161.96 198.49,1164.08 197.41,1165.92 198.01,1173.31" fill="none" stroke="#1e1e1e" stroke-width="0.97" stroke-linecap="round" stroke-linejoin="round"/>
<polyline points="247.6,1402.65 242.84,1405.99 239.89,1409.65 238.08,1425.56 237.71,1439.77 239.42,1451.8 239.4,1461.92 236.46,1473.13 229.88,1480.92 223.42,1483.67 217.02,1483.68 205.41,1485.25 194.41,1492.96 178.99,1510.54 170.24,1522.46 165.33,1527.03 156,1530.33 154.17,1533.23 153.87,1536.56" fill="none" stroke="#1e1e1e" stroke-width="0.97" stroke-linecap="round" stroke-linejoin="round"/>
<polyline points="202.18,1161.96 203.21,1159.74 202.05,1153.55 198.74,1147.07 193.89,1142.82 192.39,1137.3 190.21,1135.85 189.01,1133.78 184.67,1122.41 182.54,1120.23 180.54,1109.82 175.99,1104.73 173.62,1091.31 172.34,1089.4 167.23,1086.75 163.95,1079.63 158.5,1071.4 151.2,1063.73 146.45,1052.74 146.25,1050.82 151.84,1043.08 154.2,1034.25 157.73,1030.82" fill="none" stroke="#1e1e1e" stroke-width="0.97" stroke-linecap="round" stroke-linejoin="round"/>
<polyline points="158.78,1029.46 160.96,1028.81 165.76,1030.57" fill="none" stroke="#1e1e1e" stroke-width="0.97" stroke-linecap="round" stroke-linejoin="round"/>
<polyline points="247.62,1402.62 249.25,1397.61 246.05,1389.84 245.89,1382.32 247.62,1379.49 250.97,1378.33 250.66,1376.26 252.92,1371.55 252.99,1368.89 250.24,1366.52 248.44,1363.59 247.8,1360.35 248.65,1357.78 251.38,1356.86 250.78,1350.99 248.5,1347.98 248.12,1345.86 254.27,1341.4 255.01,1335.35 256.86,1333.76 257.12,1327.87 256.21,1326.76 258.45,1322.12 256.9,1319.5 254.76,1318.08 258.87,1315.34 258.46,1313.36 259.84,1311.67 258.36,1308.86 254.18,1304.34 259.12,1302.7 257.72,1298.1 258.03,1293.15 256.53,1292.4 257.06,1289.85 256.16,1287.76 256.17,1281.04 254.88,1281.03 254.61,1278.37 253.17,1276.77 252.26,1271.63 249.06,1269.24 247.48,1264.84 240.69,1254.13 239.46,1248.38 237.69,1246.71 236.09,1240.55 233.01,1233.58 231.26,1231.94 225.44,1217.89 220.92,1213.96 217.43,1206.08 211.63,1201.53 210.07,1199.18 208.83,1193.77 205.24,1190.58 204.04,1181.94 198.56,1178.3 198.01,1173.31" fill="none" stroke="#1e1e1e" stroke-width="0.97" stroke-linecap="round" stroke-linejoin="round"/>
<polyline points="374.43,1522.93 368.2,1523.23 363.16,1521.64 359.96,1521.99 357.71,1523.65" fill="none" stroke="#1e1e1e" stroke-width="0.97" stroke-linecap="round" stroke-linejoin="round"/>
<polyline points="424.15,1530.85 409.87,1529.06 399.46,1531.81 395.38,1532.4 392.57,1531.96" fill="none" stroke="#1e1e1e" stroke-width="0.97" stroke-linecap="round" stroke-linejoin="round"/>
<polyline points="458.16,1536.82 449.59,1533.89 440.56,1533.44 424.15,1530.85" fill="none" stroke="#1e1e1e" stroke-width="0.97" stroke-linecap="round" stroke-linejoin="round"/>
<polyline points="392.5,1531.88 382.89,1526 377.92,1524.93 374.43,1522.93" fill="none" stroke="#1e1e1e" stroke-width="0.97" stroke-linecap="round" stroke-linejoin="round"/>
<polyline points="357.71,1523.65 354.98,1527.03 351.71,1527.08" fill="none" stroke="#1e1e1e" stroke-width="0.97" stroke-linecap="round" stroke-linejoin="round"/>
<polyline points="714.78,46.18 714.78,49.1 715.95,50.78 724.71,53.91 729.09,57.64 732.57,60.96 737.66,69.47 742.95,70.14 746.44,78.82 748.19,80.36 752.25,81.26 760.19,87.66 761.53,92.06 771.21,94.24 777.91,102.62 778.21,105.22 780.09,106.71 792.17,105.97 795.82,106.8 796.32,108.81 800.48,108.82 808.68,112.06 811.5,111.47 816.51,117.08 819.53,115.49 825.23,123.39 833.49,128.2 836.26,134.09 838.91,136.92 840.63,144.72 840.57,150.36 841.64,152.75 842.79,152.64 846.99,149 848.81,148.75 850.33,151.18 854.07,161.81 859.94,166.35 865.24,171.96 869.08,173.06 870.27,174.77 870.45,177.27 869.37,180.16 867.76,181.81 864.1,183.56 862.44,185.3 861.73,187.87 863.57,205.97 869.26,226.98 865.33,231.92 866.1,233.57 863.95,241.99 864.94,245.42 866.98,247.7 873.25,245.72 877.2,247.84 882.21,248.64 883,249.6 883.26,260.16 885.25,261.21 884.45,265.73 883.15,268.27 877.22,271.79 876.27,273.13 876.11,278.19 877.55,279.64 875.85,285.67" fill="none" stroke="#1e1e1e" stroke-width="0.97" stroke-linecap="round" stroke-linejoin="round"/>
<polyline points="399.39,594.99 401.29,598.59 402.16,605.51 408.41,610.15 416.02,613.14" fill="none" stroke="#1e1e1e" stroke-width="0.97" stroke-linecap="round" stroke-linejoin="round"/>
<polyline points="443.54,617.84 444.61,622.36 448.59,631.47 453.65,636.36 460.24,640.74 467.79,651.14 474.36,654.41 480.26,659.13 490.68,670.57 492.46,673.4 495.18,684.13" fill="none" stroke="#1e1e1e" stroke-width="0.97" stroke-linecap="round" stroke-linejoin="round"/>
<polyline points="495.18,684.13 496.15,690.6 499.51,695.59 502.99,697.9 505.48,702.25 508.97,703.41 516.38,707.82 521.94,709.2 524.62,710.99 526.11,714.57 526.84,720.57 531.85,729.23 531.31,730.2 528.53,730.19 526.77,738.56 523.75,737.36 523.25,738.62 525.97,745.8 524.72,758.96 523.59,761.44 521.29,762.45 520.68,770.12 518.4,772.96 516.62,778.88 514.15,782.77 511.34,784.3 510.7,785.57 509.4,797.49 507.65,798.55 502.28,795.57 496.79,795.15 494.04,796.49 494.84,802.84 497.53,807.89 497.84,819.09 498.71,822.93 497.32,827.33 498.44,829.37 503.13,833.79 506.63,840.56 514.7,843.59 519.21,849.35 521.02,853.07 521.06,860.28 522.23,867.85 524.04,869.18 536.28,868.73 539.04,869.51 544.31,867.17 549.17,869.52 557.91,881.38 558.39,887.42 559.18,888.93 559,895.65" fill="none" stroke="#1e1e1e" stroke-width="0.97" stroke-linecap="round" stroke-linejoin="round"/>
<polyline points="443.54,617.84 439.43,616.38 425.51,620.78 423.37,623.09 418.47,620.19 416.02,613.14" fill="none" stroke="#1e1e1e" stroke-width="0.97" stroke-linecap="round" stroke-linejoin="round"/>
<polyline points="533.8,234.66 535.93,230.95 539.07,228.96 541.86,228.83 546.44,233.26 558.25,238.19 569.7,245.03 576.62,247.99 579.99,253.09 589.98,261.95 593.96,266.56 596.68,267.94 600.62,267.35 604.25,268.88 607.29,267.94 609.65,269.05 616.85,275.91 620.51,281.5 627.92,285.4 631.29,291.7 640.9,302.54 643.71,304.47 653.64,307.22 664.97,314.62 667.3,318.26 668.21,323.45" fill="none" stroke="#1e1e1e" stroke-width="0.97" stroke-linecap="round" stroke-linejoin="round"/>
<polyline points="533.82,234.57 533.14,237.95 529.77,238.66 527.22,242 522.96,245.33" fill="none" stroke="#1e1e1e" stroke-width="0.97" stroke-linecap="round" stroke-linejoin="round"/>
<polyline points="741.22,453.84 736.62,443.48 736.02,428.96 727.29,415.4 726.4,409.02 724.81,406.95 721.31,405.26 720.36,403.92 718.86,397.91 711.57,389.3 709.9,384.8 709.88,382.34 705.69,376.7 700.25,367.09 697.18,365.32 693.78,361.4 680.58,356.18 676.93,353.42 672.73,348.14 670.86,342.93 669.69,332.16 670.32,327.28 668.21,323.45" fill="none" stroke="#1e1e1e" stroke-width="0.97" stroke-linecap="round" stroke-linejoin="round"/>
<polyline points="472.6,378.56 474.58,392.06 476.62,396.18 478.31,397.82 479.95,399.07 494.06,404.24 497.17,403.75 501.77,404.43 508.66,407.63 512.73,407.19 526.29,416.91 535.95,425.55 560.75,453.53 562.16,459.51 560.97,468.35 561.66,475.94 569.89,488.8 577.28,507.32 577.48,513.08 576.45,520.55 581.53,530.55 587.47,537.86 590.76,539.84 597.02,541.6 600.78,545.8 602.87,546.93 612.21,547.64 614.96,552.69 618.34,556.53 628.31,560.99 631.62,565.65 637.92,567.32 641.37,569.91 643.1,572.02 644.44,578.82 645.69,579.92 649.33,580.62 652.54,588.27 655.17,590.19 659.16,595.97 660.3,597.02 663.76,597.87 666.23,601.04 673.94,607.26 678.51,608.07 680.88,611.47 684.3,614.23 694.45,617.07 698.19,621.47 702.46,629.61 706.5,633.59 720.25,638.65 724.56,641.37 728.41,641.69 731.85,643.72 738.66,640.69 748.19,639.36 752.9,640.08 759.62,643.58" fill="none" stroke="#1e1e1e" stroke-width="0.97" stroke-linecap="round" stroke-linejoin="round"/>
<polyline points="472.6,378.5 465.72,365.62 459.51,357.16 459.08,355.71 460.4,351.97" fill="none" stroke="#1e1e1e" stroke-width="0.97" stroke-linecap="round" stroke-linejoin="round"/>
<polyline points="719.05,208.76 720,209.69 724.23,209.83 728.32,215.39 730.4,216.57 740.61,216.7 750.52,221.07 762.83,221.24 765.1,222.44 771.44,222.33 776.01,224.07 777.65,225.92 785.86,230.69 795.47,238.24 801.47,245.83 808.04,248.19 812.12,252.76 818.82,256.73 820.56,260.02 823.22,262.25 824.08,264.69 822.48,269.72 828.39,276.31 831.6,278.11 837.98,278.95 840.81,276.05 859.64,276.35 863.34,278.02 867.49,282.01 870.81,282.69 875.85,285.67 876.51,288.46 881.95,295.85 883.04,301.39 886.02,307.07 887.53,309.2 890.37,310.66 891.93,312.43 895.79,319.33 899.62,324.1 904.73,335.56 903.81,337.4 901.31,337.91 899.25,343.87 900.75,352.96 900.32,360.82 901.45,365.82 901.27,370.51 897.42,374.35 897.48,375.94 896.47,377.42 893.58,379.89 893.79,382.15 890.9,384.31 889.72,386.59 889.45,389.84 892.4,399.96 892.55,408.27 897.2,421.97 901.11,425.86 907.28,427.51 908.72,429.15 913.41,439.52 916.33,442.65 919.28,451.47 919.79,456.76 923.1,462.05 924.95,467.55 927.61,471.29 927.89,473.89" fill="none" stroke="#1e1e1e" stroke-width="0.97" stroke-linecap="round" stroke-linejoin="round"/>
<polyline points="741.22,453.84 746.49,462.13 748.35,463.07 754.96,463.85 757.26,465.24 760.38,473.71 769.55,481.86 771.86,483.1 778.85,484.13 780.51,485.26 783.35,488.49 785.06,493.48 788.27,496.04 789.42,499.03" fill="none" stroke="#1e1e1e" stroke-width="0.97" stroke-linecap="round" stroke-linejoin="round"/>
<polyline points="468.52,1297.17 463.86,1298.15" fill="none" stroke="#1e1e1e" stroke-width="0.97" stroke-linecap="round" stroke-linejoin="round"/>
<polyline points="250.62,1074.75 248.67,1069.72 244.78,1067.22 240.6,1066.28 233.04,1058.58 228.63,1050 217.08,1043.17 216.01,1040.86 211.73,1037.98 207.9,1037.44 205.11,1038.61 198.63,1047.16 196.4,1047.06 191.74,1044.82 182.7,1038.67 175.28,1037.38 173.01,1038.02 169.98,1042.02 168.9,1046.27 169.56,1048.82" fill="none" stroke="#1e1e1e" stroke-width="0.97" stroke-linecap="round" stroke-linejoin="round"/>
<polyline points="336.46,1174.41 308.16,1150.47 303.84,1142.87 303.51,1139.39 300.83,1134.6 299.25,1133.3 294.89,1132.3 290.21,1132.74 285.81,1132.02 282.24,1127.47 283.3,1120.42 282.58,1112.38" fill="none" stroke="#1e1e1e" stroke-width="0.97" stroke-linecap="round" stroke-linejoin="round"/>
<polyline points="455.99,1302.86 451.2,1300.82 445.84,1300.71 442.55,1296.75 437.77,1294.7 436.24,1292.74 434.67,1287.34 436.5,1284.88 437.63,1278.11 439.67,1275.79 438.7,1273.29 438.36,1266.52 437.32,1264.98 434.58,1263.93 432.73,1260.43 430.73,1260 425.71,1263.62 416.44,1260 413.45,1262.83 411.47,1262.87 408,1259.63 404.58,1258.4 402.45,1253.68 394.97,1246.36 393.41,1241.47 391.49,1241.1 390.12,1242.41 390.91,1244.65 389.09,1244.78 381.74,1241.07 374.31,1241.15 372.59,1236.14 366.82,1233.09 366.07,1231.04 367.3,1228.28 366.22,1227.15 371.31,1219.59 370.62,1217.5 363.88,1213.91" fill="none" stroke="#1e1e1e" stroke-width="0.97" stroke-linecap="round" stroke-linejoin="round"/>
<polyline points="536.58,1229.86 535.77,1232.86 536.48,1242.95 535.15,1247.05 533.59,1248.56" fill="none" stroke="#1e1e1e" stroke-width="0.97" stroke-linecap="round" stroke-linejoin="round"/>
<polyline points="467.76,1295.25 463.93,1298.09" fill="none" stroke="#1e1e1e" stroke-width="0.97" stroke-linecap="round" stroke-linejoin="round"/>
<polyline points="250.62,1074.75 256.15,1081.21 261.75,1091.83 270.15,1096.25 275.05,1100.08 276.64,1100.03 279.08,1101.74 280.98,1105.42 282.55,1112.26" fill="none" stroke="#1e1e1e" stroke-width="0.97" stroke-linecap="round" stroke-linejoin="round"/>
<polyline points="336.41,1174.36 340.23,1184.11 343.19,1189.02 354.3,1195.53 357.17,1196.92 360.14,1197.28 362.01,1199.01 362.76,1211.99 363.87,1213.87" fill="none" stroke="#1e1e1e" stroke-width="0.97" stroke-linecap="round" stroke-linejoin="round"/>
<polyline points="463.93,1298.11 458.37,1299.82 455.99,1302.86" fill="none" stroke="#1e1e1e" stroke-width="0.97" stroke-linecap="round" stroke-linejoin="round"/>
<polyline points="468.54,1297.17 474.43,1295.2 475.94,1295.48 477.69,1293.77 479.73,1293.15 486.88,1294.29 489.53,1293.49 493.11,1282.03 501.44,1278.23 510.12,1268.64 513.42,1268.35 516.51,1269.08 521.67,1264.83 524.71,1260.27 530.95,1257.75 533.05,1253.71 532.49,1249.84 533.51,1248.56" fill="none" stroke="#1e1e1e" stroke-width="0.97" stroke-linecap="round" stroke-linejoin="round"/>
<polyline points="86.33,1371.79 82.23,1381.22 81.54,1385.06" fill="none" stroke="#1e1e1e" stroke-width="0.97" stroke-linecap="round" stroke-linejoin="round"/>
<polyline points="86.28,1310.75 85.66,1312.31 86.03,1315.96 88.68,1320.66 90.07,1328.25 89.64,1344.15 89.28,1347.75 88.51,1348.14" fill="none" stroke="#1e1e1e" stroke-width="0.97" stroke-linecap="round" stroke-linejoin="round"/>
<polyline points="86.28,1310.75 93.57,1301.72 100.25,1296 105.64,1288.18 110.78,1284.31 112.25,1282.43 113.48,1277.23 114.49,1276.56 118,1276.59 120.04,1275.42 123.69,1272.03 127.83,1270.6 130.68,1266.92 132.91,1267.24 140.19,1270.6 143.47,1274.42 149.24,1274.53 151.36,1275.75 152.4,1274.32 154.14,1267.64 153.54,1258.25 156.34,1252.73 155.36,1248.23 156.83,1242.86 156.24,1237.95 159.19,1236.19 157.18,1229.83" fill="none" stroke="#1e1e1e" stroke-width="0.97" stroke-linecap="round" stroke-linejoin="round"/>
<polyline points="86.33,1371.79 86.07,1369.03 79.1,1359.36 79.07,1356.36 86.15,1347.63 88.51,1348.14" fill="none" stroke="#1e1e1e" stroke-width="0.97" stroke-linecap="round" stroke-linejoin="round"/>
<polyline points="64.16,1409.64 69.47,1402.92 71.84,1401.42 77.1,1401.53 79.16,1398.49 77.86,1396.61 81.54,1385.06" fill="none" stroke="#1e1e1e" stroke-width="0.97" stroke-linecap="round" stroke-linejoin="round"/>
<polyline points="148.12,920.61 143.57,921.06 142.48,925.32 140.42,926.44 136.97,930.1 135.36,933.42 134.83,936.96 132.91,938.72 131.87,941.99 130.28,943.64 124.48,945.85 121.43,949.36 118.92,954.16 114.24,954.8 110.49,956.94" fill="none" stroke="#1e1e1e" stroke-width="0.97" stroke-linecap="round" stroke-linejoin="round"/>
<polyline points="98.87,1070.5 102.63,1080.09 100.55,1087.99 100.89,1092.8 103.45,1096.69 112.36,1104.89 113.53,1107.11 114.16,1112.19 117.25,1118.1 118.11,1130.84 119.4,1137.59 118.11,1146.44 120.42,1154.06 125.71,1162.13 125.72,1167.16 126.96,1169.42 127.54,1178.79 130.13,1181.95 131.61,1186.07 136.61,1187.71 137.51,1189.54 138.08,1188.53 141.46,1197.08 142.21,1201.83 145.57,1206.82 145.64,1211.59 156.35,1219.54 157.18,1229.83" fill="none" stroke="#1e1e1e" stroke-width="0.97" stroke-linecap="round" stroke-linejoin="round"/>
<polyline points="107.38,1617.29 111.55,1614.24 113.8,1610 115.41,1608.78 121.11,1607.18 123.95,1603.3 126.88,1596.1 131.74,1591.49 131.74,1587.07 133.71,1580.38 133.22,1573.96 132.39,1572.02 135.45,1560.6 138.4,1556.16 146.79,1547.77 150,1543.51 153.64,1540.52 154.83,1538.73 153.87,1536.56" fill="none" stroke="#1e1e1e" stroke-width="0.97" stroke-linecap="round" stroke-linejoin="round"/>
<polyline points="886.66,1135.62 879.39,1129.85 873.89,1127.75 870.07,1121.6 869.17,1121.29 868.91,1123.37 871.64,1128.98 869.33,1129.15 870.46,1131.9 868.69,1131.73 865.33,1129.09 857.62,1127.15 854.76,1124.12 841.53,1116.14 838.56,1113.31 834.51,1107.19 833.68,1101.92 827.61,1099.02 824.97,1096.06" fill="none" stroke="#1e1e1e" stroke-width="0.97" stroke-linecap="round" stroke-linejoin="round"/>
<polyline points="1056.87,1732.29 1051.73,1728.59 1049.42,1717.99 1045.84,1712.81" fill="none" stroke="#1e1e1e" stroke-width="0.97" stroke-linecap="round" stroke-linejoin="round"/>
<text x="543.79" y="553.08" font-family="sans-serif" font-size="14" stroke="#ffffff" stroke-opacity="0.784" stroke-width="2.33" stroke-linejoin="round" paint-order="stroke" fill="#141414">Skelleftelven</text>
<text x="397.56" y="879.15" font-family="sans-serif" font-size="14" stroke="#ffffff" stroke-opacity="0.784" stroke-width="2.33" stroke-linejoin="round" paint-order="stroke" fill="#141414">Indalsälven</text>
<text x="814.53" y="335.39" font-family="sans-serif" font-size="14" stroke="#ffffff" stroke-opacity="0.784" stroke-width="2.33" stroke-linejoin="round" paint-order="stroke" fill="#141414">Kalix</text>
<text x="807.78" y="283.24" font-family="sans-serif" font-size="14" stroke="#ffffff" stroke-opacity="0.784" stroke-width="2.33" stroke-linejoin="round" paint-order="stroke" fill="#141414">Tornelven</text>
<text x="801.56" y="134.37" font-family="sans-serif" font-size="14" stroke="#ffffff" stroke-opacity="0.784" stroke-width="2.33" stroke-linejoin="round" paint-order="stroke" fill="#141414">Muonio</text>
<text x="371.66" y="1267.25" font-family="sans-serif" font-size="14" stroke="#ffffff" stroke-opacity="0.784" stroke-width="2.33" stroke-linejoin="round" paint-order="stroke" fill="#141414">Dalälven</text>
<text x="214.97" y="1295.48" font-family="sans-serif" font-size="14" stroke="#ffffff" stroke-opacity="0.784" stroke-width="2.33" stroke-linejoin="round" paint-order="stroke" fill="#141414">Klarälven</text>
<text x="433.55" y="802.56" font-family="sans-serif" font-size="14" stroke="#ffffff" stroke-opacity="0.784" stroke-width="2.33" stroke-linejoin="round" paint-order="stroke" fill="#141414">Ångermanälven</text>
<text x="543.28" y="274.69" font-family="sans-serif" font-size="14" stroke="#ffffff" stroke-opacity="0.784" stroke-width="2.33" stroke-linejoin="round" paint-order="stroke" fill="#141414">Stora Lule lv</text>
<text x="89.05" y="1164.37" font-family="sans-serif" font-size="14" stroke="#ffffff" stroke-opacity="0.784" stroke-width="2.33" stroke-linejoin="round" paint-order="stroke" fill="#141414">Glomma</text>
<text x="465.25" y="1284.55" font-family="sans-serif" font-size="14" stroke="#ffffff" stroke-opacity="0.784" stroke-width="2.33" stroke-linejoin="round" paint-order="stroke" fill="#141414">Dalälven</text>
<text x="103.97" y="1274.11" font-family="sans-serif" font-size="14" stroke="#ffffff" stroke-opacity="0.784" stroke-width="2.33" stroke-linejoin="round" paint-order="stroke" fill="#141414">Vorma</text>
<text x="648.74" y="385.12" font-family="sans-serif" font-size="14" stroke="#ffffff" stroke-opacity="0.784" stroke-width="2.33" stroke-linejoin="round" paint-order="stroke" fill="#141414">Stora Lule lv</text>
<text x="172.68" y="1491.07" font-family="sans-serif" font-size="14" stroke="#ffffff" stroke-opacity="0.784" stroke-width="2.33" stroke-linejoin="round" paint-order="stroke" fill="#141414">Klarälven</text>
<text x="400.64" y="658.81" font-family="sans-serif" font-size="14" stroke="#ffffff" stroke-opacity="0.784" stroke-width="2.33" stroke-linejoin="round" paint-order="stroke" fill="#141414">Ångermanälven</text>
<text x="798.56" y="1135" font-family="sans-serif" font-size="14" stroke="#ffffff" stroke-opacity="0.784" stroke-width="2.33" stroke-linejoin="round" paint-order="stroke" fill="#141414">Kokemäenjoki</text>
<text x="628.23" y="213.59" font-family="sans-serif" font-size="14" stroke="#ffffff" stroke-opacity="0.784" stroke-width="2.33" stroke-linejoin="round" paint-order="stroke" fill="#141414">Kalix</text>
<text x="96.74" y="1586.56" font-family="sans-serif" font-size="14" stroke="#ffffff" stroke-opacity="0.784" stroke-width="2.33" stroke-linejoin="round" paint-order="stroke" fill="#141414">Göta älv</text>
<text x="735.95" y="484.78" font-family="sans-serif" font-size="14" stroke="#ffffff" stroke-opacity="0.784" stroke-width="2.33" stroke-linejoin="round" paint-order="stroke" fill="#141414">Lule lv</text>
<text x="381.69" y="1540.47" font-family="sans-serif" font-size="14" stroke="#ffffff" stroke-opacity="0.784" stroke-width="2.33" stroke-linejoin="round" paint-order="stroke" fill="#141414">Motala ström</text>
<text x="281.18" y="869.29" font-family="sans-serif" font-size="14" stroke="#ffffff" stroke-opacity="0.784" stroke-width="2.33" stroke-linejoin="round" paint-order="stroke" fill="#141414">Indalsälven</text>
<text x="69.61" y="1220.04" font-family="sans-serif" font-size="14" stroke="#ffffff" stroke-opacity="0.784" stroke-width="2.33" stroke-linejoin="round" paint-order="stroke" fill="#141414">Vorma</text>
<text x="62.04" y="1334.86" font-family="sans-serif" font-size="14" stroke="#ffffff" stroke-opacity="0.784" stroke-width="2.33" stroke-linejoin="round" paint-order="stroke" fill="#141414">Vorma</text>
<text x="1011" y="1731.27" font-family="sans-serif" font-size="14" stroke="#ffffff" stroke-opacity="0.784" stroke-width="2.33" stroke-linejoin="round" paint-order="stroke" fill="#141414">Daugava</text>
</svg>
