<?xml version="1.0" encoding="UTF-8" standalone="no"?>
<svg xmlns="http://www.w3.org/2000/svg" width="2000" height="1273" viewBox="0 0 2000 1273">
<rect width="2000" height="1273" fill="#ffffff"/>
<path d="M784.48,188.48L819.54,178.07L831.02,158.76L840.28,162.55L860.1,159.52L870.11,183.93L888.69,177.75L914.4,182.82L935.5,174.12L947.3,175.39L951.96,162.28L962.07,162.29L983.57,148.56L1013.9,142.32L1026.96,144.81L1042.57,169.16L1085.15,171.58L1081.39,182.83L1057.82,207.87L1058.69,225.99L1070.59,264.08L1067.67,279.7L1076.19,309.67L1088.11,331.51L1070.77,347.17L1078.88,371.52L1072.55,385.9L1081.13,422.74L1079.89,438.36L1064.59,438.39L1048.83,415.3L1037.32,373.46L1025.85,351.61L1011.44,347.87L1002.12,355.99L991.09,382.23L979.63,387.85L974.98,370.35L951.23,373.45L942.34,362.19L931.72,372.16L911.78,373.99L912.23,364.62L899.54,353.96L883.43,355.79L888.9,367.68L876.56,378.88L866.83,373.84L836.69,379.33L830.84,359.93L838.08,354.97L845.8,335.02L858.1,331.95L866.64,313.24L895.4,324.59L907.28,315.88L916.64,295.28L916.69,279.04L889.67,262.72L899.83,258.38L887.21,242.09L877.13,225.81L865.32,223.27L860.73,210.13L845.19,193.19L823.98,215.58L816.88,201.79L794.97,196.67L784.48,188.48Z" fill-rule="evenodd" fill="#4682b4" fill-opacity="0.471"/>
<polyline points="784.48,188.48 819.54,178.07 831.02,158.76 840.28,162.55 860.1,159.52 870.11,183.93 888.69,177.75 914.4,182.82 935.5,174.12 947.3,175.39 951.96,162.28 962.07,162.29 983.57,148.56 1013.9,142.32 1026.96,144.81 1042.57,169.16 1085.15,171.58 1081.39,182.83 1057.82,207.87 1058.69,225.99 1070.59,264.08 1067.67,279.7 1076.19,309.67 1088.11,331.51 1070.77,347.17 1078.88,371.52 1072.55,385.9 1081.13,422.74 1079.89,438.36 1064.59,438.39 1048.83,415.3 1037.32,373.46 1025.85,351.61 1011.44,347.87 1002.12,355.99 991.09,382.23 979.63,387.85 974.98,370.35 951.23,373.45 942.34,362.19 931.72,372.16 911.78,373.99 912.23,364.62 899.54,353.96 883.43,355.79 888.9,367.68 876.56,378.88 866.83,373.84 836.69,379.33 830.84,359.93 838.08,354.97 845.8,335.02 858.1,331.95 866.64,313.24 895.4,324.59 907.28,315.88 916.64,295.28 916.69,279.04 889.67,262.72 899.83,258.38 887.21,242.09 877.13,225.81 865.32,223.27 860.73,210.13 845.19,193.19 823.98,215.58 816.88,201.79 794.97,196.67 784.48,188.48" fill="none" stroke="#1e1e1e" stroke-width="1.69" stroke-linecap="round" stroke-linejoin="round"/>
<path d="M1541.38,305.35L1535.63,342.31L1516.48,364.48L1491.21,376.74L1474.53,367.61L1461.87,341.54L1462.93,325.91L1474.04,303.26L1482.87,298.76L1482.22,283.14L1510.71,292.72L1525.73,306.23L1541.38,305.35Z" fill-rule="evenodd" fill="#4682b4" fill-opacity="0.471"/>
<polyline points="1541.38,305.35 1535.63,342.31 1516.48,364.48 1491.21,376.74 1474.53,367.61 1461.87,341.54 1462.93,325.91 1474.04,303.26 1482.87,298.76 1482.22,283.14 1510.71,292.72 1525.73,306.23 1541.38,305.35" fill="none" stroke="#1e1e1e" stroke-width="1.69" stroke-linecap="round" stroke-linejoin="round"/>
<path d="M1562.87,274.38L1543.86,275.32L1549.51,258.98L1561.7,255.03L1570.35,266.13L1562.87,274.38Z" fill-rule="evenodd" fill="#4682b4" fill-opacity="0.471"/>
<polyline points="1562.87,274.38 1543.86,275.32 1549.51,258.98 1561.7,255.03 1570.35,266.13 1562.87,274.38" fill="none" stroke="#1e1e1e" stroke-width="1.69" stroke-linecap="round" stroke-linejoin="round"/>
<path d="M1589.05,247.68L1577.35,255.38L1574.56,265.43L1569.23,250.53L1589.05,247.68Z" fill-rule="evenodd" fill="#4682b4" fill-opacity="0.471"/>
<polyline points="1589.05,247.68 1577.35,255.38 1574.56,265.43 1569.23,250.53 1589.05,247.68" fill="none" stroke="#1e1e1e" stroke-width="1.69" stroke-linecap="round" stroke-linejoin="round"/>
<path d="M1589.05,247.68L1569.23,250.53L1574.56,265.43L1562.87,274.38L1570.35,266.13L1561.7,255.03L1549.51,258.98L1543.86,275.32L1541.38,305.35L1525.73,306.23L1510.71,292.72L1482.22,283.14L1482.87,298.76L1474.04,303.26L1462.93,325.91L1461.87,341.54L1474.53,367.61L1464.37,368.37L1445.1,354.89L1427.75,357.62L1416.23,351.52L1423.72,340.17L1418.85,323.99L1423.75,309.56L1412.7,306.57L1426.35,281.41L1443.16,273.07L1456.32,276.64L1485.38,268.1L1498.13,272.29L1508.21,267.76L1519.38,251.97L1549.2,240.24L1552.82,229.56L1572.72,232.35L1589.05,247.68Z" fill-rule="evenodd" fill="#4682b4" fill-opacity="0.471"/>
<polyline points="1589.05,247.68 1569.23,250.53 1574.56,265.43 1562.87,274.38 1570.35,266.13 1561.7,255.03 1549.51,258.98 1543.86,275.32 1541.38,305.35 1525.73,306.23 1510.71,292.72 1482.22,283.14 1482.87,298.76 1474.04,303.26 1462.93,325.91 1461.87,341.54 1474.53,367.61 1464.37,368.37 1445.1,354.89 1427.75,357.62 1416.23,351.52 1423.72,340.17 1418.85,323.99 1423.75,309.56 1412.7,306.57 1426.35,281.41 1443.16,273.07 1456.32,276.64 1485.38,268.1 1498.13,272.29 1508.21,267.76 1519.38,251.97 1549.2,240.24 1552.82,229.56 1572.72,232.35 1589.05,247.68" fill="none" stroke="#1e1e1e" stroke-width="1.69" stroke-linecap="round" stroke-linejoin="round"/>
<path d="M715.53,309.79L723.91,319.86L707.21,340.96L686.81,347.65L678.65,359.44L668.03,360.58L659.43,372.99L624.9,388.24L646.62,420.97L673.94,406.88L691.24,418.91L678.81,430.66L666.91,431.17L651.4,451.01L636.93,452.73L645.28,467.19L664.05,461.76L668.99,478.67L681.4,470.67L675.57,457.5L696.51,446.45L701.38,425.25L719.26,420.41L728.92,432.98L756.58,427.57L765.98,420.77L766.93,406.4L753.92,385.07L733.66,371.79L727.03,353L755.88,349.47L773.29,344.6L791.81,364.09L813.86,365.47L830.84,359.93L845.05,405.61L855.18,418.77L858.07,438.15L848.64,456.23L853.66,473.75L847.62,493.09L858.63,507.5L862.82,522.51L882.85,522.59L881.06,546.32L868.19,566.89L851.95,571.82L854.45,586.2L844.15,598.02L851.71,628.05L870.9,638.75L897.74,666.95L917.45,657.63L924.29,659.52L943.11,661.44L967.04,679.58L976.04,673.35L1006.42,670.23L1025.25,680.84L1047.06,663.33L1062.02,658.93L1073.17,668.9L1095.86,674.47L1097.71,720.69L1081.85,721.98L1074.59,730.12L1079.76,743.23L1066.49,755.13L1059.23,775.13L1060.54,787.62L1033.94,810.15L1007.31,822.04L985.81,824.54L957.89,815.77L952.74,809.51L910.23,799.43L890.43,810.62L891.23,828.11L859.76,849.24L836.95,852.26L808,873.97L778.18,891.91L771.76,884.99L742.58,872.29L729.49,893.43L721.77,889.62L702.78,893.83L711.72,907.03L699.57,915.67L682.31,918.01L663.42,910.33L644.85,913.89L624.84,930.54L608.41,934.1L606.82,922.21L585.23,925.08L581.57,941.91L567.75,942.98L568.34,930.49L556.08,911.59L563.28,888.57L556.1,877.23L573.05,864.95L569.87,844.29L580.85,825.69L575.99,802.51L595.11,784L612.34,779.2L609.24,751.05L612.8,739.85L633.38,739.45L637.06,716.38L624.78,703.75L603.03,695.38L606.27,674.8L600.81,665.99L612.23,640.5L614.98,624.29L630.52,610.1L628.54,595.71L600.85,590.39L566.4,580.59L564.92,563.08L570.75,540.66L578.94,533.27L571.01,520.05L544.86,532.2L517.5,538.06L495.37,535.24L489.65,518.9L495.91,499.63L516.12,486.18L511.77,463L478.83,448.13L448.54,453.9L422.78,468.46L432.62,439.88L421.53,417.82L430.7,427.98L440.12,423.76L459.96,405.35L474.3,411.82L478.7,401.9L490.19,400.2L507.18,371.09L514.86,368.08L540.26,371.56L552.98,339.87L568.67,339.45L584.26,345.9L615.66,343.15L624.67,333.26L642.52,328.46L691.58,336.44L702.66,329.05L715.53,309.79Z" fill-rule="evenodd" fill="#4682b4" fill-opacity="0.471"/>
<polyline points="715.53,309.79 723.91,319.86 707.21,340.96 686.81,347.65 678.65,359.44 668.03,360.58 659.43,372.99 624.9,388.24 646.62,420.97 673.94,406.88 691.24,418.91 678.81,430.66 666.91,431.17 651.4,451.01 636.93,452.73 645.28,467.19 664.05,461.76 668.99,478.67 681.4,470.67 675.57,457.5 696.51,446.45 701.38,425.25 719.26,420.41 728.92,432.98 756.58,427.57 765.98,420.77 766.93,406.4 753.92,385.07 733.66,371.79 727.03,353 755.88,349.47 773.29,344.6 791.81,364.09 813.86,365.47 830.84,359.93 845.05,405.61 855.18,418.77 858.07,438.15 848.64,456.23 853.66,473.75 847.62,493.09 858.63,507.5 862.82,522.51 882.85,522.59 881.06,546.32 868.19,566.89 851.95,571.82 854.45,586.2 844.15,598.02 851.71,628.05 870.9,638.75 897.74,666.95 917.45,657.63 924.29,659.52 943.11,661.44 967.04,679.58 976.04,673.35 1006.42,670.23 1025.25,680.84 1047.06,663.33 1062.02,658.93 1073.17,668.9 1095.86,674.47 1097.71,720.69 1081.85,721.98 1074.59,730.12 1079.76,743.23 1066.49,755.13 1059.23,775.13 1060.54,787.62 1033.94,810.15 1007.31,822.04 985.81,824.54 957.89,815.77 952.74,809.51 910.23,799.43 890.43,810.62 891.23,828.11 859.76,849.24 836.95,852.26 808,873.97 778.18,891.91 771.76,884.99 742.58,872.29 729.49,893.43 721.77,889.62 702.78,893.83 711.72,907.03 699.57,915.67 682.31,918.01 663.42,910.33 644.85,913.89 624.84,930.54 608.41,934.1 606.82,922.21 585.23,925.08 581.57,941.91 567.75,942.98 568.34,930.49 556.08,911.59 563.28,888.57 556.1,877.23 573.05,864.95 569.87,844.29 580.85,825.69 575.99,802.51 595.11,784 612.34,779.2 609.24,751.05 612.8,739.85 633.38,739.45 637.06,716.38 624.78,703.75 603.03,695.38 606.27,674.8 600.81,665.99 612.23,640.5 614.98,624.29 630.52,610.1 628.54,595.71 600.85,590.39 566.4,580.59 564.92,563.08 570.75,540.66 578.94,533.27 571.01,520.05 544.86,532.2 517.5,538.06 495.37,535.24 489.65,518.9 495.91,499.63 516.12,486.18 511.77,463 478.83,448.13 448.54,453.9 422.78,468.46 432.62,439.88 421.53,417.82 430.7,427.98 440.12,423.76 459.96,405.35 474.3,411.82 478.7,401.9 490.19,400.2 507.18,371.09 514.86,368.08 540.26,371.56 552.98,339.87 568.67,339.45 584.26,345.9 615.66,343.15 624.67,333.26 642.52,328.46 691.58,336.44 702.66,329.05 715.53,309.79" fill="none" stroke="#1e1e1e" stroke-width="1.69" stroke-linecap="round" stroke-linejoin="round"/>
<path d="M620.97,249.49L643.73,254.74L641.5,265.97L634.32,265.26L620.97,249.49Z" fill-rule="evenodd" fill="#4682b4" fill-opacity="0.471"/>
<polyline points="620.97,249.49 643.73,254.74 641.5,265.97 634.32,265.26 620.97,249.49" fill="none" stroke="#1e1e1e" stroke-width="1.69" stroke-linecap="round" stroke-linejoin="round"/>
<path d="M641.5,265.97L671.51,266.28L675.4,257.57L660.72,246.17L671.39,236.28L675.95,244.45L707.28,237.25L707.9,214.76L698.65,210.93L707.66,194.76L702.69,184.1L717.97,172.98L734.6,201.24L751.26,175.13L765.48,190.85L784.48,188.48L794.97,196.67L816.88,201.79L823.98,215.58L845.19,193.19L860.73,210.13L865.32,223.27L877.13,225.81L887.21,242.09L889.25,262.72L867.21,277.01L822.69,299.91L817.95,314.26L801.03,311.66L790.13,295.35L779.14,293.41L754.58,296.36L750.12,269.46L770.03,264.6L778.75,225.3L739.52,220.02L746.12,240.06L742.2,255.03L732.91,254.96L721.81,267.36L712.1,266.65L701.8,282.81L690.37,284.58L684.12,274.52L668.89,275L667.08,286.85L658.22,284.26L641.5,265.97Z" fill-rule="evenodd" fill="#4682b4" fill-opacity="0.471"/>
<polyline points="641.5,265.97 671.51,266.28 675.4,257.57 660.72,246.17 671.39,236.28 675.95,244.45 707.28,237.25 707.9,214.76 698.65,210.93 707.66,194.76 702.69,184.1 717.97,172.98 734.6,201.24 751.26,175.13 765.48,190.85 784.48,188.48 794.97,196.67 816.88,201.79 823.98,215.58 845.19,193.19 860.73,210.13 865.32,223.27 877.13,225.81 887.21,242.09 889.25,262.72 867.21,277.01 822.69,299.91 817.95,314.26 801.03,311.66 790.13,295.35 779.14,293.41 754.58,296.36 750.12,269.46 770.03,264.6 778.75,225.3 739.52,220.02 746.12,240.06 742.2,255.03 732.91,254.96 721.81,267.36 712.1,266.65 701.8,282.81 690.37,284.58 684.12,274.52 668.89,275 667.08,286.85 658.22,284.26 641.5,265.97" fill="none" stroke="#1e1e1e" stroke-width="1.69" stroke-linecap="round" stroke-linejoin="round"/>
<path d="M717.97,172.98L732.43,156.86L745.01,165.08L756.48,152.67L772.39,167.15L751.26,175.13L734.6,201.24L717.97,172.98Z" fill-rule="evenodd" fill="#4682b4" fill-opacity="0.471"/>
<polyline points="717.97,172.98 732.43,156.86 745.01,165.08 756.48,152.67 772.39,167.15 751.26,175.13 734.6,201.24 717.97,172.98" fill="none" stroke="#1e1e1e" stroke-width="1.69" stroke-linecap="round" stroke-linejoin="round"/>
<path d="M383.11,612.71L420.45,578.39L443.53,602.52L447.61,613.83L438.5,622.43L438.65,638.68L447.13,643.19L438.75,658.67L424.99,662.19L416.15,653.91L400.19,661.13L390.01,656.57L366.57,628.65L383.11,612.71Z" fill-rule="evenodd" fill="#4682b4" fill-opacity="0.471"/>
<polyline points="383.11,612.71 420.45,578.39 443.53,602.52 447.61,613.83 438.5,622.43 438.65,638.68 447.13,643.19 438.75,658.67 424.99,662.19 416.15,653.91 400.19,661.13 390.01,656.57 366.57,628.65 383.11,612.71" fill="none" stroke="#1e1e1e" stroke-width="1.69" stroke-linecap="round" stroke-linejoin="round"/>
<path d="M385.11,690.23L396.76,685.44L413,662.61L425.58,677.82L416.75,693.29L404.45,686.82L385.11,690.23Z" fill-rule="evenodd" fill="#4682b4" fill-opacity="0.471"/>
<polyline points="385.11,690.23 396.76,685.44 413,662.61 425.58,677.82 416.75,693.29 404.45,686.82 385.11,690.23" fill="none" stroke="#1e1e1e" stroke-width="1.69" stroke-linecap="round" stroke-linejoin="round"/>
<path d="M433.42,568.61L447.79,551.35L490.11,600.76L495.4,618.33L516.42,583.03L502.66,560.96L502.9,544.72L495.37,535.24L517.5,538.06L544.86,532.2L571.01,520.05L578.94,533.27L570.75,540.66L564.92,563.08L566.4,580.59L600.85,590.39L628.54,595.71L630.52,610.1L614.98,624.29L612.23,640.5L600.81,665.99L606.27,674.8L603.03,695.38L624.78,703.75L637.06,716.38L633.38,739.45L612.8,739.85L609.24,751.05L612.34,779.2L595.11,784L563.36,815.47L557.02,807.26L519.14,841.73L501.93,842.11L481.86,860.55L464.65,860.28L461.94,840.87L429.95,824.73L414.68,837.59L403.99,834.28L392.67,817.83L395.8,811.01L417.79,807.02L420.17,793.32L388.16,782.13L387.88,750.26L403.64,732.42L412.56,736.95L432.44,702.93L448.52,688.83L441.95,671.85L462.49,645.31L461.89,629.69L472.59,601.74L459.43,596.53L433.42,568.61Z" fill-rule="evenodd" fill="#4682b4" fill-opacity="0.471"/>
<polyline points="433.42,568.61 447.79,551.35 490.11,600.76 495.4,618.33 516.42,583.03 502.66,560.96 502.9,544.72 495.37,535.24 517.5,538.06 544.86,532.2 571.01,520.05 578.94,533.27 570.75,540.66 564.92,563.08 566.4,580.59 600.85,590.39 628.54,595.71 630.52,610.1 614.98,624.29 612.23,640.5 600.81,665.99 606.27,674.8 603.03,695.38 624.78,703.75 637.06,716.38 633.38,739.45 612.8,739.85 609.24,751.05 612.34,779.2 595.11,784 563.36,815.47 557.02,807.26 519.14,841.73 501.93,842.11 481.86,860.55 464.65,860.28 461.94,840.87 429.95,824.73 414.68,837.59 403.99,834.28 392.67,817.83 395.8,811.01 417.79,807.02 420.17,793.32 388.16,782.13 387.88,750.26 403.64,732.42 412.56,736.95 432.44,702.93 448.52,688.83 441.95,671.85 462.49,645.31 461.89,629.69 472.59,601.74 459.43,596.53 433.42,568.61" fill="none" stroke="#1e1e1e" stroke-width="1.69" stroke-linecap="round" stroke-linejoin="round"/>
<path d="M144.66,950.57L142.59,964.27L154.58,985.81L164.7,978.57L173.09,988.77L166.32,1000.48L139.23,1011.68L118.46,1028.64L119.56,1036.17L96.24,1050.56L77.37,1043.8L60.05,1043.95L53.33,1051.89L34.85,1047L18.17,1054.65L35.95,1023.28L22.8,1014.15L29.64,1001.85L53.79,988.78L92.87,982.35L84.37,960.87L94.83,941.15L101.1,948.82L106.18,952.7L113.45,955.39L113.57,967.27L104.96,982.67L105.05,1012.04L121.51,994.35L124.57,976.3L131.58,972.73L144.66,950.57Z" fill-rule="evenodd" fill="#4682b4" fill-opacity="0.471"/>
<polyline points="144.66,950.57 142.59,964.27 154.58,985.81 164.7,978.57 173.09,988.77 166.32,1000.48 139.23,1011.68 118.46,1028.64 119.56,1036.17 96.24,1050.56 77.37,1043.8 60.05,1043.95 53.33,1051.89 34.85,1047 18.17,1054.65 35.95,1023.28 22.8,1014.15 29.64,1001.85 53.79,988.78 92.87,982.35 84.37,960.87 94.83,941.15 101.1,948.82 106.18,952.7 113.45,955.39 113.57,967.27 104.96,982.67 105.05,1012.04 121.51,994.35 124.57,976.3 131.58,972.73 144.66,950.57" fill="none" stroke="#1e1e1e" stroke-width="1.69" stroke-linecap="round" stroke-linejoin="round"/>
<path d="M130.12,928.33L128.85,927.67L128.83,928.29L124.17,925.05L115.73,917.95L118.91,911.79L132.94,919.65L130.12,928.33Z" fill-rule="evenodd" fill="#4682b4" fill-opacity="0.471"/>
<polyline points="130.12,928.33 128.85,927.67 128.83,928.29 124.17,925.05 115.73,917.95 118.91,911.79 132.94,919.65 130.12,928.33" fill="none" stroke="#1e1e1e" stroke-width="1.69" stroke-linecap="round" stroke-linejoin="round"/>
<path d="M1303.38,575.15L1315.29,570.67L1314.7,553.8L1301.75,536.43L1300.39,527.07L1287.9,512.19L1288.24,502.19L1308.18,493.89L1315.66,474.45L1315.75,439.46L1331.68,416.82L1359.14,443.4L1378.67,441.31L1410.62,446.55L1411.03,480.29L1401.4,493.52L1430.97,508.77L1437.15,524.94L1432.94,561.86L1437.39,576.17L1418.44,597.03L1397.98,599.77L1391.7,610.47L1378.11,617.5L1371.99,605.07L1359.15,602.71L1335.63,642.94L1301.08,652.01L1295.44,643.32L1279.19,642.21L1278.17,622.85L1312.6,603.18L1303.38,575.15Z" fill-rule="evenodd" fill="#4682b4" fill-opacity="0.471"/>
<polyline points="1303.38,575.15 1315.29,570.67 1314.7,553.8 1301.75,536.43 1300.39,527.07 1287.9,512.19 1288.24,502.19 1308.18,493.89 1315.66,474.45 1315.75,439.46 1331.68,416.82 1359.14,443.4 1378.67,441.31 1410.62,446.55 1411.03,480.29 1401.4,493.52 1430.97,508.77 1437.15,524.94 1432.94,561.86 1437.39,576.17 1418.44,597.03 1397.98,599.77 1391.7,610.47 1378.11,617.5 1371.99,605.07 1359.15,602.71 1335.63,642.94 1301.08,652.01 1295.44,643.32 1279.19,642.21 1278.17,622.85 1312.6,603.18 1303.38,575.15" fill="none" stroke="#1e1e1e" stroke-width="1.69" stroke-linecap="round" stroke-linejoin="round"/>
<path d="M1279.19,642.21L1295.44,643.32L1301.08,652.01L1335.63,642.94L1359.15,602.71L1371.99,605.07L1378.11,617.5L1391.7,610.47L1397.98,599.77L1418.44,597.03L1437.39,576.17L1448.13,581.65L1494.3,586.62L1516.2,594.42L1530.7,593.56L1535.05,571.63L1552.04,540.74L1563.47,536.17L1548.23,516.43L1532.89,489.81L1559.99,481.25L1568.67,491.1L1586.83,482.66L1588.55,483.26L1619.6,482.07L1636.42,493.63L1664.13,495.59L1684.46,510.8L1702.45,515.42L1710.77,525.87L1703.75,536.64L1706.37,559.71L1734.83,573.47L1769.19,582.69L1783.78,604.23L1795.74,603.95L1803.73,616.25L1820.66,609.6L1830.91,609.34L1841.36,599.71L1857.57,598.67L1855.02,582.49L1860.79,557.97L1881.41,563.06L1892.88,560.88L1889.07,545.98L1908.39,519.22L1926.2,515.6L1938.93,529L1937.07,538.43L1965.57,550.74L1965.15,565.75L1956.73,584.74L1959.4,603.42L1950.96,637.41L1940.52,646.45L1949.97,663.06L1931.62,680.45L1939.63,691.47L1925.63,711.86L1933.7,740.38L1956.86,739.73L1972.76,755.53L1965.81,797.6L1957.88,805.95L1942.49,793.89L1933.6,798.51L1919.23,792.03L1907.84,799.84L1890.11,795.93L1885.92,783.55L1865.87,772.19L1873.25,758.88L1857.93,747.4L1842.54,749.66L1817.13,763.41L1792.19,798.37L1782.02,804.86L1781.6,823.62L1787.41,851.6L1781.22,863L1802.26,878.75L1826.26,873.8L1835.87,896.68L1820.13,905.19L1812.33,921.63L1816.78,945.27L1836.23,963.54L1842.72,981.51L1830.58,997.43L1812.01,998.5L1798.35,1005.7L1786.51,998.48L1793.16,987.08L1791.17,975.87L1764.99,964.6L1766.32,947.07L1757.99,941.01L1764.18,928.37L1745.14,906.3L1726.6,906.08L1708.74,917.71L1693.66,918.64L1687.34,925.65L1666.81,934.8L1652.4,925.71L1643.17,962.13L1626.66,956.19L1615.58,964.52L1602.24,966.63L1565.28,951.65L1548.36,919.43L1533.16,912.18L1536.47,904L1530.15,885.36L1534.38,853.43L1532.82,835.96L1520.35,836.15L1515.84,850.59L1501.66,852.05L1494.06,832.8L1467.4,833.18L1455,838.34L1452.3,861.5L1440.35,869.15L1441.77,879.13L1454.82,888.95L1453.91,917.71L1461.78,925.72L1463.76,944.44L1457.97,962.64L1447.33,974.03L1442.95,1002.2L1430.89,1006.1L1422.41,1019.33L1419.61,1037.49L1404.53,1042.67L1383.52,1021.04L1373.96,1016.78L1368.16,1000.59L1368.88,986.84L1358.29,966.34L1367.21,952.5L1362.39,946.3L1372.58,931.19L1372.75,907.45L1378.6,890.52L1371.5,871.85L1374.83,861.82L1360.1,851.98L1343.08,829.04L1340.81,817.2L1347.68,774.64L1330.87,767.31L1316.76,773.07L1307.66,763.78L1292.68,767.67L1291.97,785.17L1265.88,798.5L1247.84,798.64L1226.31,790.67L1212.16,793.88L1195.38,788.99L1194.37,763.38L1183.17,754.07L1195.07,735.89L1193.68,717.15L1207.8,713.94L1224.85,700.09L1252.18,689.9L1257.5,658L1279.19,642.21Z" fill-rule="evenodd" fill="#4682b4" fill-opacity="0.471"/>
<polyline points="1279.19,642.21 1295.44,643.32 1301.08,652.01 1335.63,642.94 1359.15,602.71 1371.99,605.07 1378.11,617.5 1391.7,610.47 1397.98,599.77 1418.44,597.03 1437.39,576.17 1448.13,581.65 1494.3,586.62 1516.2,594.42 1530.7,593.56 1535.05,571.63 1552.04,540.74 1563.47,536.17 1548.23,516.43 1532.89,489.81 1559.99,481.25 1568.67,491.1 1586.83,482.66 1588.55,483.26 1619.6,482.07 1636.42,493.63 1664.13,495.59 1684.46,510.8 1702.45,515.42 1710.77,525.87 1703.75,536.64 1706.37,559.71 1734.83,573.47 1769.19,582.69 1783.78,604.23 1795.74,603.95 1803.73,616.25 1820.66,609.6 1830.91,609.34 1841.36,599.71 1857.57,598.67 1855.02,582.49 1860.79,557.97 1881.41,563.06 1892.88,560.88 1889.07,545.98 1908.39,519.22 1926.2,515.6 1938.93,529 1937.07,538.43 1965.57,550.74 1965.15,565.75 1956.73,584.74 1959.4,603.42 1950.96,637.41 1940.52,646.45 1949.97,663.06 1931.62,680.45 1939.63,691.47 1925.63,711.86 1933.7,740.38 1956.86,739.73 1972.76,755.53 1965.81,797.6 1957.88,805.95 1942.49,793.89 1933.6,798.51 1919.23,792.03 1907.84,799.84 1890.11,795.93 1885.92,783.55 1865.87,772.19 1873.25,758.88 1857.93,747.4 1842.54,749.66 1817.13,763.41 1792.19,798.37 1782.02,804.86 1781.6,823.62 1787.41,851.6 1781.22,863 1802.26,878.75 1826.26,873.8 1835.87,896.68 1820.13,905.19 1812.33,921.63 1816.78,945.27 1836.23,963.54 1842.72,981.51 1830.58,997.43 1812.01,998.5 1798.35,1005.7 1786.51,998.48 1793.16,987.08 1791.17,975.87 1764.99,964.6 1766.32,947.07 1757.99,941.01 1764.18,928.37 1745.14,906.3 1726.6,906.08 1708.74,917.71 1693.66,918.64 1687.34,925.65 1666.81,934.8 1652.4,925.71 1643.17,962.13 1626.66,956.19 1615.58,964.52 1602.24,966.63 1565.28,951.65 1548.36,919.43 1533.16,912.18 1536.47,904 1530.15,885.36 1534.38,853.43 1532.82,835.96 1520.35,836.15 1515.84,850.59 1501.66,852.05 1494.06,832.8 1467.4,833.18 1455,838.34 1452.3,861.5 1440.35,869.15 1441.77,879.13 1454.82,888.95 1453.91,917.71 1461.78,925.72 1463.76,944.44 1457.97,962.64 1447.33,974.03 1442.95,1002.2 1430.89,1006.1 1422.41,1019.33 1419.61,1037.49 1404.53,1042.67 1383.52,1021.04 1373.96,1016.78 1368.16,1000.59 1368.88,986.84 1358.29,966.34 1367.21,952.5 1362.39,946.3 1372.58,931.19 1372.75,907.45 1378.6,890.52 1371.5,871.85 1374.83,861.82 1360.1,851.98 1343.08,829.04 1340.81,817.2 1347.68,774.64 1330.87,767.31 1316.76,773.07 1307.66,763.78 1292.68,767.67 1291.97,785.17 1265.88,798.5 1247.84,798.64 1226.31,790.67 1212.16,793.88 1195.38,788.99 1194.37,763.38 1183.17,754.07 1195.07,735.89 1193.68,717.15 1207.8,713.94 1224.85,700.09 1252.18,689.9 1257.5,658 1279.19,642.21" fill="none" stroke="#1e1e1e" stroke-width="1.69" stroke-linecap="round" stroke-linejoin="round"/>
<path d="M457.38,251.6L483.78,238.9L477.41,214.43L493.97,207.81L513.7,215.6L538.28,209.08L563.9,218.18L554.65,246.8L579.56,248.99L590.42,259.13L620.97,249.49L634.32,265.26L641.5,265.97L658.22,284.26L667.08,286.85L678.01,293.83L703.83,292.82L715.53,309.79L702.66,329.05L691.58,336.44L642.52,328.46L624.67,333.26L615.66,343.15L584.26,345.9L568.67,339.45L552.98,339.87L540.26,371.56L514.86,368.08L507.18,371.09L490.19,400.2L478.7,401.9L474.3,411.82L459.96,405.35L440.12,423.76L430.7,427.98L421.53,417.82L420.25,417.8L429.55,396.09L462.23,369.77L456.3,343.43L485.7,333.27L485.92,319.53L501.17,319.14L508.11,308L503.19,297.3L487.22,289.56L479.94,295.7L449.81,300.21L433.08,288.68L456.26,268.45L457.38,251.6Z" fill-rule="evenodd" fill="#4682b4" fill-opacity="0.471"/>
<polyline points="457.38,251.6 483.78,238.9 477.41,214.43 493.97,207.81 513.7,215.6 538.28,209.08 563.9,218.18 554.65,246.8 579.56,248.99 590.42,259.13 620.97,249.49 634.32,265.26 641.5,265.97 658.22,284.26 667.08,286.85 678.01,293.83 703.83,292.82 715.53,309.79 702.66,329.05 691.58,336.44 642.52,328.46 624.67,333.26 615.66,343.15 584.26,345.9 568.67,339.45 552.98,339.87 540.26,371.56 514.86,368.08 507.18,371.09 490.19,400.2 478.7,401.9 474.3,411.82 459.96,405.35 440.12,423.76 430.7,427.98 421.53,417.82 420.25,417.8 429.55,396.09 462.23,369.77 456.3,343.43 485.7,333.27 485.92,319.53 501.17,319.14 508.11,308 503.19,297.3 487.22,289.56 479.94,295.7 449.81,300.21 433.08,288.68 456.26,268.45 457.38,251.6" fill="none" stroke="#1e1e1e" stroke-width="1.69" stroke-linecap="round" stroke-linejoin="round"/>
<path d="M836.69,379.33L866.83,373.84L876.56,378.88L888.9,367.68L883.43,355.79L899.54,353.96L912.23,364.62L911.78,373.99L931.72,372.16L942.34,362.19L951.23,373.45L974.98,370.35L979.63,387.85L991.09,382.23L1002.12,355.99L1011.44,347.87L1025.85,351.61L1037.32,373.46L1048.83,415.3L1064.59,438.39L1079.89,438.36L1082.04,449.6L1108.82,447.65L1114.4,463.87L1096.09,455.19L1079.11,467.72L1074.48,489.6L1087.66,485.82L1104.72,497.02L1117.96,510.72L1121.42,523.82L1103.97,528.26L1104.37,520.76L1086.89,515.81L1086.07,527.68L1069.02,527.72L1061.76,513.99L1046.88,533.38L1040.48,526.52L1017.47,527.79L1002.13,543.41L984.23,544.03L968.45,552.77L974.83,564.02L956.47,583.36L942.38,583.34L934.26,591.45L935.09,605.2L922.22,628.28L931.59,646.42L924.29,659.52L917.45,657.63L897.74,666.95L870.9,638.75L851.71,628.05L844.15,598.02L854.45,586.2L851.95,571.82L868.19,566.89L881.06,546.32L882.85,522.59L862.82,522.51L858.63,507.5L847.62,493.09L853.66,473.75L848.64,456.23L858.07,438.15L855.18,418.77L845.05,405.61L836.69,379.33Z" fill-rule="evenodd" fill="#4682b4" fill-opacity="0.471"/>
<polyline points="836.69,379.33 866.83,373.84 876.56,378.88 888.9,367.68 883.43,355.79 899.54,353.96 912.23,364.62 911.78,373.99 931.72,372.16 942.34,362.19 951.23,373.45 974.98,370.35 979.63,387.85 991.09,382.23 1002.12,355.99 1011.44,347.87 1025.85,351.61 1037.32,373.46 1048.83,415.3 1064.59,438.39 1079.89,438.36 1082.04,449.6 1108.82,447.65 1114.4,463.87 1096.09,455.19 1079.11,467.72 1074.48,489.6 1087.66,485.82 1104.72,497.02 1117.96,510.72 1121.42,523.82 1103.97,528.26 1104.37,520.76 1086.89,515.81 1086.07,527.68 1069.02,527.72 1061.76,513.99 1046.88,533.38 1040.48,526.52 1017.47,527.79 1002.13,543.41 984.23,544.03 968.45,552.77 974.83,564.02 956.47,583.36 942.38,583.34 934.26,591.45 935.09,605.2 922.22,628.28 931.59,646.42 924.29,659.52 917.45,657.63 897.74,666.95 870.9,638.75 851.71,628.05 844.15,598.02 854.45,586.2 851.95,571.82 868.19,566.89 881.06,546.32 882.85,522.59 862.82,522.51 858.63,507.5 847.62,493.09 853.66,473.75 848.64,456.23 858.07,438.15 855.18,418.77 845.05,405.61 836.69,379.33" fill="none" stroke="#1e1e1e" stroke-width="1.69" stroke-linecap="round" stroke-linejoin="round"/>
<path d="M420.25,417.8L421.53,417.82L432.62,439.88L422.78,468.46L448.54,453.9L478.83,448.13L511.77,463L516.12,486.18L495.91,499.63L489.65,518.9L495.37,535.24L479.24,530.62L447.79,551.35L433.42,568.61L420.45,578.39L383.11,612.71L364.99,599.25L366.52,586.16L358.53,579.76L356.76,560.98L327.03,575.39L318.21,588.96L301.07,591.73L275.98,606.82L255.74,613.88L246.4,611.17L249.08,586.86L235.97,562.19L267.19,539.77L322.58,520.94L333.59,503.04L356.41,490.36L351.57,476.52L358.16,465.4L368.4,464.35L375.94,447.62L397.78,439.27L420.25,417.8Z" fill-rule="evenodd" fill="#4682b4" fill-opacity="0.471"/>
<polyline points="420.25,417.8 421.53,417.82 432.62,439.88 422.78,468.46 448.54,453.9 478.83,448.13 511.77,463 516.12,486.18 495.91,499.63 489.65,518.9 495.37,535.24 479.24,530.62 447.79,551.35 433.42,568.61 420.45,578.39 383.11,612.71 364.99,599.25 366.52,586.16 358.53,579.76 356.76,560.98 327.03,575.39 318.21,588.96 301.07,591.73 275.98,606.82 255.74,613.88 246.4,611.17 249.08,586.86 235.97,562.19 267.19,539.77 322.58,520.94 333.59,503.04 356.41,490.36 351.57,476.52 358.16,465.4 368.4,464.35 375.94,447.62 397.78,439.27 420.25,417.8" fill="none" stroke="#1e1e1e" stroke-width="1.69" stroke-linecap="round" stroke-linejoin="round"/>
<path d="M1103.97,528.26L1116.37,541.33L1135.96,538.76L1147.87,532.46L1141.12,549.36L1141.61,564.35L1135.25,572.5L1102.44,585.74L1108.88,599.46L1105.52,616.96L1083.31,618.9L1080.72,607.66L1061.52,620.2L1073.99,654.53L1073.17,668.9L1062.02,658.93L1041.89,638.97L1047.44,633.96L1044.41,602.73L1050.78,579.61L1027.3,567.76L1037.09,545.89L1013.21,539.04L1002.13,543.41L1017.47,527.79L1040.48,526.52L1046.88,533.38L1061.76,513.99L1069.02,527.72L1086.07,527.68L1086.89,515.81L1104.37,520.76L1103.97,528.26Z" fill-rule="evenodd" fill="#4682b4" fill-opacity="0.471"/>
<polyline points="1103.97,528.26 1116.37,541.33 1135.96,538.76 1147.87,532.46 1141.12,549.36 1141.61,564.35 1135.25,572.5 1102.44,585.74 1108.88,599.46 1105.52,616.96 1083.31,618.9 1080.72,607.66 1061.52,620.2 1073.99,654.53 1073.17,668.9 1062.02,658.93 1041.89,638.97 1047.44,633.96 1044.41,602.73 1050.78,579.61 1027.3,567.76 1037.09,545.89 1013.21,539.04 1002.13,543.41 1017.47,527.79 1040.48,526.52 1046.88,533.38 1061.76,513.99 1069.02,527.72 1086.07,527.68 1086.89,515.81 1104.37,520.76 1103.97,528.26" fill="none" stroke="#1e1e1e" stroke-width="1.69" stroke-linecap="round" stroke-linejoin="round"/>
<path d="M1002.13,543.41L1013.21,539.04L1037.09,545.89L1027.3,567.76L1050.78,579.61L1044.41,602.73L1047.44,633.96L1041.89,638.97L1062.02,658.93L1047.06,663.33L1025.25,680.84L1006.42,670.23L976.04,673.35L967.04,679.58L943.11,661.44L924.29,659.52L931.59,646.42L922.22,628.28L935.09,605.2L934.26,591.45L942.38,583.34L956.47,583.36L974.83,564.02L968.45,552.77L984.23,544.03L1002.13,543.41Z" fill-rule="evenodd" fill="#4682b4" fill-opacity="0.471"/>
<polyline points="1002.13,543.41 1013.21,539.04 1037.09,545.89 1027.3,567.76 1050.78,579.61 1044.41,602.73 1047.44,633.96 1041.89,638.97 1062.02,658.93 1047.06,663.33 1025.25,680.84 1006.42,670.23 976.04,673.35 967.04,679.58 943.11,661.44 924.29,659.52 931.59,646.42 922.22,628.28 935.09,605.2 934.26,591.45 942.38,583.34 956.47,583.36 974.83,564.02 968.45,552.77 984.23,544.03 1002.13,543.41" fill="none" stroke="#1e1e1e" stroke-width="1.69" stroke-linecap="round" stroke-linejoin="round"/>
<path d="M1105.52,616.96L1117.06,617.55L1108.6,643.19L1114.24,668.16L1095.86,674.47L1073.17,668.9L1073.99,654.53L1061.52,620.2L1080.72,607.66L1083.31,618.9L1105.52,616.96Z" fill-rule="evenodd" fill="#4682b4" fill-opacity="0.471"/>
<polyline points="1105.52,616.96 1117.06,617.55 1108.6,643.19 1114.24,668.16 1095.86,674.47 1073.17,668.9 1073.99,654.53 1061.52,620.2 1080.72,607.66 1083.31,618.9 1105.52,616.96" fill="none" stroke="#1e1e1e" stroke-width="1.69" stroke-linecap="round" stroke-linejoin="round"/>
<path d="M1564.31,209.37L1578.18,230.38L1604.08,237.41L1600.06,248.73L1603.75,266.16L1613.25,276.61L1605.05,291.13L1592.38,292.61L1582.04,305.92L1576.03,326.02L1554.02,352.63L1536.61,403.53L1539.92,424.09L1548.77,445.82L1548.3,468.94L1532.32,480.45L1532.89,489.81L1548.23,516.43L1563.47,536.17L1552.04,540.74L1535.05,571.63L1530.7,593.56L1516.2,594.42L1494.3,586.62L1448.13,581.65L1437.39,576.17L1432.94,561.86L1437.15,524.94L1430.97,508.77L1401.4,493.52L1411.03,480.29L1410.62,446.55L1378.67,441.31L1359.14,443.4L1331.68,416.82L1313.38,413.24L1316.55,389.47L1304.24,388.96L1264.83,395.55L1247.8,388.18L1242.62,376.35L1255.71,368.75L1300.62,363.38L1310.53,335.17L1322.3,325.69L1317.47,308.24L1304.61,290.25L1313.86,283.91L1317.12,271.38L1323.32,256.95L1347.74,247.34L1332.66,218.75L1363.03,215.93L1379.59,223.87L1398.88,213.02L1438.74,226.89L1453.93,225.43L1462.62,212.82L1446.38,198.04L1461.89,190.96L1476.35,198.88L1471.84,208.31L1498.97,215.42L1502.29,211.62L1505.26,212.82L1506.89,209.05L1511.48,205.85L1517.03,209.52L1516.64,211.4L1517.49,212.01L1516.67,213.89L1523.92,218.16L1528.96,216.83L1538.36,223.55L1551.85,222.08L1564.31,209.37ZM1474.53,367.61L1491.21,376.74L1516.48,364.48L1535.63,342.31L1541.38,305.35L1543.86,275.32L1562.87,274.38L1574.56,265.43L1577.35,255.38L1589.05,247.68L1572.72,232.35L1552.82,229.56L1549.2,240.24L1519.38,251.97L1508.21,267.76L1498.13,272.29L1485.38,268.1L1456.32,276.64L1443.16,273.07L1426.35,281.41L1412.7,306.57L1423.75,309.56L1418.85,323.99L1423.72,340.17L1416.23,351.52L1427.75,357.62L1445.1,354.89L1464.37,368.37L1474.53,367.61Z" fill-rule="evenodd" fill="#4682b4" fill-opacity="0.471"/>
<polyline points="1564.31,209.37 1578.18,230.38 1604.08,237.41 1600.06,248.73 1603.75,266.16 1613.25,276.61 1605.05,291.13 1592.38,292.61 1582.04,305.92 1576.03,326.02 1554.02,352.63 1536.61,403.53 1539.92,424.09 1548.77,445.82 1548.3,468.94 1532.32,480.45 1532.89,489.81 1548.23,516.43 1563.47,536.17 1552.04,540.74 1535.05,571.63 1530.7,593.56 1516.2,594.42 1494.3,586.62 1448.13,581.65 1437.39,576.17 1432.94,561.86 1437.15,524.94 1430.97,508.77 1401.4,493.52 1411.03,480.29 1410.62,446.55 1378.67,441.31 1359.14,443.4 1331.68,416.82 1313.38,413.24 1316.55,389.47 1304.24,388.96 1264.83,395.55 1247.8,388.18 1242.62,376.35 1255.71,368.75 1300.62,363.38 1310.53,335.17 1322.3,325.69 1317.47,308.24 1304.61,290.25 1313.86,283.91 1317.12,271.38 1323.32,256.95 1347.74,247.34 1332.66,218.75 1363.03,215.93 1379.59,223.87 1398.88,213.02 1438.74,226.89 1453.93,225.43 1462.62,212.82 1446.38,198.04 1461.89,190.96 1476.35,198.88 1471.84,208.31 1498.97,215.42 1502.29,211.62 1505.26,212.82 1506.89,209.05 1511.48,205.85 1517.03,209.52 1516.64,211.4 1517.49,212.01 1516.67,213.89 1523.92,218.16 1528.96,216.83 1538.36,223.55 1551.85,222.08 1564.31,209.37" fill="none" stroke="#1e1e1e" stroke-width="1.69" stroke-linecap="round" stroke-linejoin="round"/>
<polyline points="1474.53,367.61 1491.21,376.74 1516.48,364.48 1535.63,342.31 1541.38,305.35 1543.86,275.32 1562.87,274.38 1574.56,265.43 1577.35,255.38 1589.05,247.68 1572.72,232.35 1552.82,229.56 1549.2,240.24 1519.38,251.97 1508.21,267.76 1498.13,272.29 1485.38,268.1 1456.32,276.64 1443.16,273.07 1426.35,281.41 1412.7,306.57 1423.75,309.56 1418.85,323.99 1423.72,340.17 1416.23,351.52 1427.75,357.62 1445.1,354.89 1464.37,368.37 1474.53,367.61" fill="none" stroke="#1e1e1e" stroke-width="1.69" stroke-linecap="round" stroke-linejoin="round"/>
<path d="M1142.82,152.01L1156.7,147.57L1139.15,180.77L1131.05,159.56L1142.82,152.01Z" fill-rule="evenodd" fill="#4682b4" fill-opacity="0.471"/>
<polyline points="1142.82,152.01 1156.7,147.57 1139.15,180.77 1131.05,159.56 1142.82,152.01" fill="none" stroke="#1e1e1e" stroke-width="1.69" stroke-linecap="round" stroke-linejoin="round"/>
<path d="M1268.92,116.24L1249.46,102.02L1240.64,103.96L1240.93,86.46L1229.51,77.17L1240.36,66.47L1252.24,81.38L1270.77,84.98L1263.74,100.03L1273.97,115.57L1268.92,116.24Z" fill-rule="evenodd" fill="#4682b4" fill-opacity="0.471"/>
<polyline points="1268.92,116.24 1249.46,102.02 1240.64,103.96 1240.93,86.46 1229.51,77.17 1240.36,66.47 1252.24,81.38 1270.77,84.98 1263.74,100.03 1273.97,115.57 1268.92,116.24" fill="none" stroke="#1e1e1e" stroke-width="1.69" stroke-linecap="round" stroke-linejoin="round"/>
<path d="M1090.79,76.59L1104.58,49.06L1139.38,36.43L1149.41,26.39L1162.42,25.08L1165.88,46.31L1175.55,48.13L1181.73,26.23L1192.28,36.17L1195.32,52.4L1210.06,59.8L1213.96,76.65L1211.96,92.91L1207.76,94.18L1193.4,83.02L1184.65,97.44L1168.65,94.41L1160.72,108.19L1141.79,107.65L1126.28,123.34L1102.29,125.29L1076.57,105.37L1076.11,90.38L1090.79,76.59Z" fill-rule="evenodd" fill="#4682b4" fill-opacity="0.471"/>
<polyline points="1090.79,76.59 1104.58,49.06 1139.38,36.43 1149.41,26.39 1162.42,25.08 1165.88,46.31 1175.55,48.13 1181.73,26.23 1192.28,36.17 1195.32,52.4 1210.06,59.8 1213.96,76.65 1211.96,92.91 1207.76,94.18 1193.4,83.02 1184.65,97.44 1168.65,94.41 1160.72,108.19 1141.79,107.65 1126.28,123.34 1102.29,125.29 1076.57,105.37 1076.11,90.38 1090.79,76.59" fill="none" stroke="#1e1e1e" stroke-width="1.69" stroke-linecap="round" stroke-linejoin="round"/>
<path d="M715.53,309.79L703.83,292.82L678.01,293.83L667.08,286.85L668.89,275L684.12,274.52L690.37,284.58L701.8,282.81L712.1,266.65L721.81,267.36L732.91,254.96L742.2,255.03L746.12,240.06L739.52,220.02L778.75,225.3L770.03,264.6L750.12,269.46L754.58,296.36L779.14,293.41L790.13,295.35L801.03,311.66L817.95,314.26L822.69,299.91L867.21,277.01L889.25,262.72L887.21,242.09L899.83,258.38L889.67,262.72L916.69,279.04L916.64,295.28L907.28,315.88L895.4,324.59L866.64,313.24L858.1,331.95L845.8,335.02L838.08,354.97L830.84,359.93L813.86,365.47L791.81,364.09L773.29,344.6L755.88,349.47L727.03,353L733.66,371.79L753.92,385.07L766.93,406.4L765.98,420.77L756.58,427.57L728.92,432.98L719.26,420.41L701.38,425.25L696.51,446.45L675.57,457.5L681.4,470.67L668.99,478.67L664.05,461.76L645.28,467.19L636.93,452.73L651.4,451.01L666.91,431.17L678.81,430.66L691.24,418.91L673.94,406.88L646.62,420.97L624.9,388.24L659.43,372.99L668.03,360.58L678.65,359.44L686.81,347.65L707.21,340.96L723.91,319.86L715.53,309.79Z" fill-rule="evenodd" fill="#4682b4" fill-opacity="0.471"/>
<polyline points="715.53,309.79 703.83,292.82 678.01,293.83 667.08,286.85 668.89,275 684.12,274.52 690.37,284.58 701.8,282.81 712.1,266.65 721.81,267.36 732.91,254.96 742.2,255.03 746.12,240.06 739.52,220.02 778.75,225.3 770.03,264.6 750.12,269.46 754.58,296.36 779.14,293.41 790.13,295.35 801.03,311.66 817.95,314.26 822.69,299.91 867.21,277.01 889.25,262.72 887.21,242.09 899.83,258.38 889.67,262.72 916.69,279.04 916.64,295.28 907.28,315.88 895.4,324.59 866.64,313.24 858.1,331.95 845.8,335.02 838.08,354.97 830.84,359.93 813.86,365.47 791.81,364.09 773.29,344.6 755.88,349.47 727.03,353 733.66,371.79 753.92,385.07 766.93,406.4 765.98,420.77 756.58,427.57 728.92,432.98 719.26,420.41 701.38,425.25 696.51,446.45 675.57,457.5 681.4,470.67 668.99,478.67 664.05,461.76 645.28,467.19 636.93,452.73 651.4,451.01 666.91,431.17 678.81,430.66 691.24,418.91 673.94,406.88 646.62,420.97 624.9,388.24 659.43,372.99 668.03,360.58 678.65,359.44 686.81,347.65 707.21,340.96 723.91,319.86 715.53,309.79" fill="none" stroke="#1e1e1e" stroke-width="1.69" stroke-linecap="round" stroke-linejoin="round"/>
<path d="M641.5,265.97L643.73,254.74L660.72,246.17L675.4,257.57L671.51,266.28L641.5,265.97Z" fill-rule="evenodd" fill="#4682b4" fill-opacity="0.471"/>
<polyline points="641.5,265.97 643.73,254.74 660.72,246.17 675.4,257.57 671.51,266.28 641.5,265.97" fill="none" stroke="#1e1e1e" stroke-width="1.69" stroke-linecap="round" stroke-linejoin="round"/>
<path d="M698.65,210.93L707.9,214.76L707.28,237.25L675.95,244.45L671.39,236.28L698.65,210.93Z" fill-rule="evenodd" fill="#4682b4" fill-opacity="0.471"/>
<polyline points="698.65,210.93 707.9,214.76 707.28,237.25 675.95,244.45 671.39,236.28 698.65,210.93" fill="none" stroke="#1e1e1e" stroke-width="1.69" stroke-linecap="round" stroke-linejoin="round"/>
<path d="M1114.4,463.87L1126.75,470.08L1175.66,467.98L1194.26,447.89L1201.81,432.22L1194.04,411.03L1199.52,403.5L1219.4,393.38L1247.8,388.18L1264.83,395.55L1304.24,388.96L1316.55,389.47L1313.38,413.24L1331.68,416.82L1315.75,439.46L1315.66,474.45L1308.18,493.89L1288.24,502.19L1287.9,512.19L1300.39,527.07L1301.75,536.43L1314.7,553.8L1315.29,570.67L1303.38,575.15L1277.48,590.99L1257.73,576.16L1250.37,562.47L1233.31,562.59L1209.52,577.12L1200.02,559.06L1190.65,560.99L1162.05,556.14L1161.52,534.28L1147.87,532.46L1135.96,538.76L1116.37,541.33L1103.97,528.26L1121.42,523.82L1117.96,510.72L1104.72,497.02L1087.66,485.82L1074.48,489.6L1079.11,467.72L1096.09,455.19L1114.4,463.87Z" fill-rule="evenodd" fill="#4682b4" fill-opacity="0.471"/>
<polyline points="1114.4,463.87 1126.75,470.08 1175.66,467.98 1194.26,447.89 1201.81,432.22 1194.04,411.03 1199.52,403.5 1219.4,393.38 1247.8,388.18 1264.83,395.55 1304.24,388.96 1316.55,389.47 1313.38,413.24 1331.68,416.82 1315.75,439.46 1315.66,474.45 1308.18,493.89 1288.24,502.19 1287.9,512.19 1300.39,527.07 1301.75,536.43 1314.7,553.8 1315.29,570.67 1303.38,575.15 1277.48,590.99 1257.73,576.16 1250.37,562.47 1233.31,562.59 1209.52,577.12 1200.02,559.06 1190.65,560.99 1162.05,556.14 1161.52,534.28 1147.87,532.46 1135.96,538.76 1116.37,541.33 1103.97,528.26 1121.42,523.82 1117.96,510.72 1104.72,497.02 1087.66,485.82 1074.48,489.6 1079.11,467.72 1096.09,455.19 1114.4,463.87" fill="none" stroke="#1e1e1e" stroke-width="1.69" stroke-linecap="round" stroke-linejoin="round"/>
<path d="M1528.96,216.83L1523.92,218.16L1516.67,213.89L1517.49,212.01L1516.64,211.4L1516.61,209.52L1517.87,209.5L1521.71,211.94L1523.82,211.91L1528.96,216.83Z" fill-rule="evenodd" fill="#4682b4" fill-opacity="0.471"/>
<polyline points="1528.96,216.83 1523.92,218.16 1516.67,213.89 1517.49,212.01 1516.64,211.4 1516.61,209.52 1517.87,209.5 1521.71,211.94 1523.82,211.91 1528.96,216.83" fill="none" stroke="#1e1e1e" stroke-width="1.69" stroke-linecap="round" stroke-linejoin="round"/>
<path d="M1511.48,205.85L1506.89,209.05L1505.26,212.82L1502.29,211.62L1498.97,215.42L1471.84,208.31L1476.35,198.88L1461.89,190.96L1446.38,198.04L1462.62,212.82L1453.93,225.43L1438.74,226.89L1398.88,213.02L1379.59,223.87L1363.03,215.93L1332.66,218.75L1347.74,247.34L1323.32,256.95L1317.12,271.38L1313.86,283.91L1304.61,290.25L1291.29,267.25L1289.41,245.4L1279.16,231.74L1283.92,196.71L1260.26,192.53L1245.27,161.41L1219.91,150.96L1218.64,149.1L1218.2,146.6L1226.58,139.67L1229.96,141.52L1248.06,140.14L1253.39,121.36L1236.1,116.49L1218.48,125.98L1195.29,119.88L1187.17,98.06L1211.96,92.91L1240.64,103.96L1249.46,102.02L1268.92,116.24L1287.08,122.96L1313.93,113.34L1319.76,107.04L1342.02,103.06L1366.9,107.8L1380.37,108.27L1386.28,110.07L1392.57,108.13L1403.16,114.25L1421.85,127.14L1452.78,141.72L1464.73,152.8L1489.38,166.82L1490.45,181.8L1508.4,197.15L1511.48,205.85Z" fill-rule="evenodd" fill="#4682b4" fill-opacity="0.471"/>
<polyline points="1511.48,205.85 1506.89,209.05 1505.26,212.82 1502.29,211.62 1498.97,215.42 1471.84,208.31 1476.35,198.88 1461.89,190.96 1446.38,198.04 1462.62,212.82 1453.93,225.43 1438.74,226.89 1398.88,213.02 1379.59,223.87 1363.03,215.93 1332.66,218.75 1347.74,247.34 1323.32,256.95 1317.12,271.38 1313.86,283.91 1304.61,290.25 1291.29,267.25 1289.41,245.4 1279.16,231.74 1283.92,196.71 1260.26,192.53 1245.27,161.41 1219.91,150.96 1218.64,149.1 1218.2,146.6 1226.58,139.67 1229.96,141.52 1248.06,140.14 1253.39,121.36 1236.1,116.49 1218.48,125.98 1195.29,119.88 1187.17,98.06 1211.96,92.91 1240.64,103.96 1249.46,102.02 1268.92,116.24 1287.08,122.96 1313.93,113.34 1319.76,107.04 1342.02,103.06 1366.9,107.8 1380.37,108.27 1386.28,110.07 1392.57,108.13 1403.16,114.25 1421.85,127.14 1452.78,141.72 1464.73,152.8 1489.38,166.82 1490.45,181.8 1508.4,197.15 1511.48,205.85" fill="none" stroke="#1e1e1e" stroke-width="1.69" stroke-linecap="round" stroke-linejoin="round"/>
<path d="M1109.17,821.24L1127.19,811.8L1124.15,802.44L1135.25,784.91L1157.61,792.93L1173.06,790.98L1179.11,798.45L1195.38,788.99L1212.16,793.88L1226.31,790.67L1247.84,798.64L1265.88,798.5L1291.97,785.17L1292.68,767.67L1307.66,763.78L1316.76,773.07L1330.87,767.31L1347.68,774.64L1340.81,817.2L1343.08,829.04L1360.1,851.98L1374.83,861.82L1371.5,871.85L1378.6,890.52L1372.75,907.45L1372.58,931.19L1362.39,946.3L1367.21,952.5L1358.29,966.34L1368.88,986.84L1368.16,1000.59L1373.96,1016.78L1383.52,1021.04L1404.53,1042.67L1388.34,1064.72L1367.24,1075.58L1374.8,1092.99L1369.77,1109.29L1343.85,1118.31L1340.53,1132.72L1346.82,1153.9L1332.2,1168.41L1343.11,1173.93L1345.91,1193.27L1369.5,1204.27L1371.42,1221.12L1361.49,1228.1L1351.37,1258.82L1334.83,1260.24L1315.56,1247.92L1299.53,1256.19L1310.2,1232.98L1304.78,1209.91L1290.71,1191.91L1291,1175.66L1279.7,1174.51L1263.5,1157.77L1244.39,1156.03L1252.49,1136.61L1261.13,1130.92L1272.18,1102.71L1256.48,1089.72L1242.19,1091.69L1224.32,1074.32L1212.72,1089.39L1168.45,1074.65L1149.68,1040.37L1137.09,1027.93L1133.57,1014.82L1105.88,1005.55L1100.2,986.2L1088.06,964.99L1103.96,942.45L1106.42,903.71L1100.78,888.74L1104.18,874.98L1092.09,861.27L1069.3,868.82L1072.26,843.83L1094.19,841.9L1109.17,821.24Z" fill-rule="evenodd" fill="#4682b4" fill-opacity="0.471"/>
<polyline points="1109.17,821.24 1127.19,811.8 1124.15,802.44 1135.25,784.91 1157.61,792.93 1173.06,790.98 1179.11,798.45 1195.38,788.99 1212.16,793.88 1226.31,790.67 1247.84,798.64 1265.88,798.5 1291.97,785.17 1292.68,767.67 1307.66,763.78 1316.76,773.07 1330.87,767.31 1347.68,774.64 1340.81,817.2 1343.08,829.04 1360.1,851.98 1374.83,861.82 1371.5,871.85 1378.6,890.52 1372.75,907.45 1372.58,931.19 1362.39,946.3 1367.21,952.5 1358.29,966.34 1368.88,986.84 1368.16,1000.59 1373.96,1016.78 1383.52,1021.04 1404.53,1042.67 1388.34,1064.72 1367.24,1075.58 1374.8,1092.99 1369.77,1109.29 1343.85,1118.31 1340.53,1132.72 1346.82,1153.9 1332.2,1168.41 1343.11,1173.93 1345.91,1193.27 1369.5,1204.27 1371.42,1221.12 1361.49,1228.1 1351.37,1258.82 1334.83,1260.24 1315.56,1247.92 1299.53,1256.19 1310.2,1232.98 1304.78,1209.91 1290.71,1191.91 1291,1175.66 1279.7,1174.51 1263.5,1157.77 1244.39,1156.03 1252.49,1136.61 1261.13,1130.92 1272.18,1102.71 1256.48,1089.72 1242.19,1091.69 1224.32,1074.32 1212.72,1089.39 1168.45,1074.65 1149.68,1040.37 1137.09,1027.93 1133.57,1014.82 1105.88,1005.55 1100.2,986.2 1088.06,964.99 1103.96,942.45 1106.42,903.71 1100.78,888.74 1104.18,874.98 1092.09,861.27 1069.3,868.82 1072.26,843.83 1094.19,841.9 1109.17,821.24" fill="none" stroke="#1e1e1e" stroke-width="1.69" stroke-linecap="round" stroke-linejoin="round"/>
<path d="M1095.86,674.47L1114.24,668.16L1108.6,643.19L1117.06,617.55L1105.52,616.96L1108.88,599.46L1102.44,585.74L1135.25,572.5L1141.61,564.35L1141.12,549.36L1147.87,532.46L1161.52,534.28L1162.05,556.14L1190.65,560.99L1200.02,559.06L1209.52,577.12L1233.31,562.59L1250.37,562.47L1257.73,576.16L1277.48,590.99L1303.38,575.15L1312.6,603.18L1278.17,622.85L1279.19,642.21L1257.5,658L1252.18,689.9L1224.85,700.09L1207.8,713.94L1193.68,717.15L1195.07,735.89L1183.17,754.07L1194.37,763.38L1195.38,788.99L1179.11,798.45L1173.06,790.98L1157.61,792.93L1135.25,784.91L1124.15,802.44L1127.19,811.8L1109.17,821.24L1088.09,811.93L1078.14,785.09L1084.11,766.33L1079.76,743.23L1074.59,730.12L1081.85,721.98L1097.71,720.69L1095.86,674.47Z" fill-rule="evenodd" fill="#4682b4" fill-opacity="0.471"/>
<polyline points="1095.86,674.47 1114.24,668.16 1108.6,643.19 1117.06,617.55 1105.52,616.96 1108.88,599.46 1102.44,585.74 1135.25,572.5 1141.61,564.35 1141.12,549.36 1147.87,532.46 1161.52,534.28 1162.05,556.14 1190.65,560.99 1200.02,559.06 1209.52,577.12 1233.31,562.59 1250.37,562.47 1257.73,576.16 1277.48,590.99 1303.38,575.15 1312.6,603.18 1278.17,622.85 1279.19,642.21 1257.5,658 1252.18,689.9 1224.85,700.09 1207.8,713.94 1193.68,717.15 1195.07,735.89 1183.17,754.07 1194.37,763.38 1195.38,788.99 1179.11,798.45 1173.06,790.98 1157.61,792.93 1135.25,784.91 1124.15,802.44 1127.19,811.8 1109.17,821.24 1088.09,811.93 1078.14,785.09 1084.11,766.33 1079.76,743.23 1074.59,730.12 1081.85,721.98 1097.71,720.69 1095.86,674.47" fill="none" stroke="#1e1e1e" stroke-width="1.69" stroke-linecap="round" stroke-linejoin="round"/>
<path d="M447.79,551.35L479.24,530.62L495.37,535.24L502.9,544.72L502.66,560.96L516.42,583.03L495.4,618.33L490.11,600.76L447.79,551.35Z" fill-rule="evenodd" fill="#4682b4" fill-opacity="0.471"/>
<polyline points="447.79,551.35 479.24,530.62 495.37,535.24 502.9,544.72 502.66,560.96 516.42,583.03 495.4,618.33 490.11,600.76 447.79,551.35" fill="none" stroke="#1e1e1e" stroke-width="1.69" stroke-linecap="round" stroke-linejoin="round"/>
<path d="M113.45,955.39L106.18,952.7L101.1,948.82L94.83,941.15L100.36,928.17L114.61,911.05L84.31,883.37L69.79,878.6L79.69,863.25L74.5,848.1L85.1,838.39L92.46,820.47L111.95,799.11L92.71,779.23L99.82,770.67L135.3,743.48L168.33,709.31L206.94,689.62L217.14,674.86L235.74,666.54L244.67,649.87L235.01,642.16L238.88,622.25L246.4,611.17L255.74,613.88L275.98,606.82L301.07,591.73L318.21,588.96L327.03,575.39L356.76,560.98L358.53,579.76L366.52,586.16L364.99,599.25L383.11,612.71L366.57,628.65L390.01,656.57L400.19,661.13L416.15,653.91L424.99,662.19L438.75,658.67L447.13,643.19L438.65,638.68L438.5,622.43L447.61,613.83L443.53,602.52L420.45,578.39L433.42,568.61L459.43,596.53L472.59,601.74L461.89,629.69L462.49,645.31L441.95,671.85L448.52,688.83L432.44,702.93L412.56,736.95L403.64,732.42L387.88,750.26L388.16,782.13L420.17,793.32L417.79,807.02L395.8,811.01L392.67,817.83L403.99,834.28L414.68,837.59L429.95,824.73L461.94,840.87L464.65,860.28L481.86,860.55L501.93,842.11L519.14,841.73L557.02,807.26L563.36,815.47L575.99,802.51L580.85,825.69L569.87,844.29L573.05,864.95L556.1,877.23L563.28,888.57L556.08,911.59L568.34,930.49L567.75,942.98L553.3,959.04L556.64,967.83L535.96,996.3L508.8,1021.53L484.88,1030.55L475.97,1019.17L471.92,1001.61L445.34,961.82L441.81,940.52L421.36,925.18L422.87,912.08L411.89,899.4L436.01,899.81L442.6,892.42L433.8,877.28L400.63,853.59L377.05,848.79L363.45,839.78L343.79,833.16L310.77,828.13L298.03,820.37L284.57,826.33L261.9,820.85L235.07,847.12L215.95,855.43L192.31,853.62L167.62,877.4L132.94,919.65L118.91,911.79L115.73,917.95L124.17,925.05L128.83,928.29L128.85,927.67L130.12,928.33L113.45,955.39ZM385.11,690.23L404.45,686.82L416.75,693.29L425.58,677.82L413,662.61L396.76,685.44L385.11,690.23Z" fill-rule="evenodd" fill="#4682b4" fill-opacity="0.471"/>
<polyline points="113.45,955.39 106.18,952.7 101.1,948.82 94.83,941.15 100.36,928.17 114.61,911.05 84.31,883.37 69.79,878.6 79.69,863.25 74.5,848.1 85.1,838.39 92.46,820.47 111.95,799.11 92.71,779.23 99.82,770.67 135.3,743.48 168.33,709.31 206.94,689.62 217.14,674.86 235.74,666.54 244.67,649.87 235.01,642.16 238.88,622.25 246.4,611.17 255.74,613.88 275.98,606.82 301.07,591.73 318.21,588.96 327.03,575.39 356.76,560.98 358.53,579.76 366.52,586.16 364.99,599.25 383.11,612.71 366.57,628.65 390.01,656.57 400.19,661.13 416.15,653.91 424.99,662.19 438.75,658.67 447.13,643.19 438.65,638.68 438.5,622.43 447.61,613.83 443.53,602.52 420.45,578.39 433.42,568.61 459.43,596.53 472.59,601.74 461.89,629.69 462.49,645.31 441.95,671.85 448.52,688.83 432.44,702.93 412.56,736.95 403.64,732.42 387.88,750.26 388.16,782.13 420.17,793.32 417.79,807.02 395.8,811.01 392.67,817.83 403.99,834.28 414.68,837.59 429.95,824.73 461.94,840.87 464.65,860.28 481.86,860.55 501.93,842.11 519.14,841.73 557.02,807.26 563.36,815.47 575.99,802.51 580.85,825.69 569.87,844.29 573.05,864.95 556.1,877.23 563.28,888.57 556.08,911.59 568.34,930.49 567.75,942.98 553.3,959.04 556.64,967.83 535.96,996.3 508.8,1021.53 484.88,1030.55 475.97,1019.17 471.92,1001.61 445.34,961.82 441.81,940.52 421.36,925.18 422.87,912.08 411.89,899.4 436.01,899.81 442.6,892.42 433.8,877.28 400.63,853.59 377.05,848.79 363.45,839.78 343.79,833.16 310.77,828.13 298.03,820.37 284.57,826.33 261.9,820.85 235.07,847.12 215.95,855.43 192.31,853.62 167.62,877.4 132.94,919.65 118.91,911.79 115.73,917.95 124.17,925.05 128.83,928.29 128.85,927.67 130.12,928.33 113.45,955.39" fill="none" stroke="#1e1e1e" stroke-width="1.69" stroke-linecap="round" stroke-linejoin="round"/>
<polyline points="385.11,690.23 404.45,686.82 416.75,693.29 425.58,677.82 413,662.61 396.76,685.44 385.11,690.23" fill="none" stroke="#1e1e1e" stroke-width="1.69" stroke-linecap="round" stroke-linejoin="round"/>
<path d="M411.89,899.4L422.87,912.08L421.36,925.18L441.81,940.52L445.34,961.82L471.92,1001.61L475.97,1019.17L484.88,1030.55L508.8,1021.53L535.96,996.3L556.64,967.83L553.3,959.04L567.75,942.98L581.57,941.91L585.23,925.08L606.82,922.21L608.41,934.1L624.84,930.54L644.85,913.89L663.42,910.33L682.31,918.01L699.57,915.67L711.72,907.03L702.78,893.83L721.77,889.62L729.49,893.43L742.58,872.29L771.76,884.99L778.18,891.91L808,873.97L836.95,852.26L859.76,849.24L891.23,828.11L890.43,810.62L910.23,799.43L952.74,809.51L957.89,815.77L985.81,824.54L1007.31,822.04L1033.94,810.15L1060.54,787.62L1059.23,775.13L1066.49,755.13L1079.76,743.23L1084.11,766.33L1078.14,785.09L1088.09,811.93L1109.17,821.24L1094.19,841.9L1072.26,843.83L1069.3,868.82L1061.55,868.84L1028.86,895.75L1040.07,905.11L1038.36,915.73L999.14,945.11L989.21,962.6L972.37,966.34L962.88,962.59L938.23,990.04L950.75,995.06L963.26,1010.07L974.48,1040.69L966.23,1065.05L952.81,1070.03L949.76,1081.27L918.12,1088.08L913.3,1111.81L917.6,1124.32L908.91,1132.42L898,1153.63L863.28,1152.89L849.76,1167.2L845.75,1190.3L849.19,1197.19L843.52,1202.79L825.29,1196.45L817.01,1202.03L802.3,1190.08L787.47,1198.11L775.35,1191.16L754.25,1164.77L745.1,1169.08L723.39,1168.28L707.4,1158.78L704.21,1176.87L693.81,1174.28L676.39,1179.12L674.55,1189.1L661.49,1192.09L634.31,1213.68L617.92,1202.26L592.28,1201.34L588.25,1210.66L561.64,1217.83L550.52,1236.43L534.59,1223.72L518.76,1236L495.64,1210.04L487.16,1195.54L483.99,1174.88L473.1,1149.09L462.32,1144.55L436.91,1106.02L421.94,1119.52L413.79,1114.38L422.27,1100.15L418.59,1086.97L425.81,1070.22L382.67,1060.71L380.38,1043.8L389.67,1032.72L386.02,1018.91L412.83,969.39L380.15,938.2L373.51,923.7L388.43,909.6L388.61,899.61L399.72,904.81L411.89,899.4Z" fill-rule="evenodd" fill="#4682b4" fill-opacity="0.471"/>
<polyline points="411.89,899.4 422.87,912.08 421.36,925.18 441.81,940.52 445.34,961.82 471.92,1001.61 475.97,1019.17 484.88,1030.55 508.8,1021.53 535.96,996.3 556.64,967.83 553.3,959.04 567.75,942.98 581.57,941.91 585.23,925.08 606.82,922.21 608.41,934.1 624.84,930.54 644.85,913.89 663.42,910.33 682.31,918.01 699.57,915.67 711.72,907.03 702.78,893.83 721.77,889.62 729.49,893.43 742.58,872.29 771.76,884.99 778.18,891.91 808,873.97 836.95,852.26 859.76,849.24 891.23,828.11 890.43,810.62 910.23,799.43 952.74,809.51 957.89,815.77 985.81,824.54 1007.31,822.04 1033.94,810.15 1060.54,787.62 1059.23,775.13 1066.49,755.13 1079.76,743.23 1084.11,766.33 1078.14,785.09 1088.09,811.93 1109.17,821.24 1094.19,841.9 1072.26,843.83 1069.3,868.82 1061.55,868.84 1028.86,895.75 1040.07,905.11 1038.36,915.73 999.14,945.11 989.21,962.6 972.37,966.34 962.88,962.59 938.23,990.04 950.75,995.06 963.26,1010.07 974.48,1040.69 966.23,1065.05 952.81,1070.03 949.76,1081.27 918.12,1088.08 913.3,1111.81 917.6,1124.32 908.91,1132.42 898,1153.63 863.28,1152.89 849.76,1167.2 845.75,1190.3 849.19,1197.19 843.52,1202.79 825.29,1196.45 817.01,1202.03 802.3,1190.08 787.47,1198.11 775.35,1191.16 754.25,1164.77 745.1,1169.08 723.39,1168.28 707.4,1158.78 704.21,1176.87 693.81,1174.28 676.39,1179.12 674.55,1189.1 661.49,1192.09 634.31,1213.68 617.92,1202.26 592.28,1201.34 588.25,1210.66 561.64,1217.83 550.52,1236.43 534.59,1223.72 518.76,1236 495.64,1210.04 487.16,1195.54 483.99,1174.88 473.1,1149.09 462.32,1144.55 436.91,1106.02 421.94,1119.52 413.79,1114.38 422.27,1100.15 418.59,1086.97 425.81,1070.22 382.67,1060.71 380.38,1043.8 389.67,1032.72 386.02,1018.91 412.83,969.39 380.15,938.2 373.51,923.7 388.43,909.6 388.61,899.61 399.72,904.81 411.89,899.4" fill="none" stroke="#1e1e1e" stroke-width="1.69" stroke-linecap="round" stroke-linejoin="round"/>
<path d="M1078.88,371.52L1084.01,387.12L1092.07,385.85L1108.65,395.8L1133.65,386.96L1152.34,390.63L1166.4,401.81L1171.55,414.27L1185.63,425.44L1198.79,424.12L1201.81,432.22L1194.26,447.89L1175.66,467.98L1126.75,470.08L1114.4,463.87L1108.82,447.65L1082.04,449.6L1079.89,438.36L1081.13,422.74L1072.55,385.9L1078.88,371.52Z" fill-rule="evenodd" fill="#4682b4" fill-opacity="0.471"/>
<polyline points="1078.88,371.52 1084.01,387.12 1092.07,385.85 1108.65,395.8 1133.65,386.96 1152.34,390.63 1166.4,401.81 1171.55,414.27 1185.63,425.44 1198.79,424.12 1201.81,432.22 1194.26,447.89 1175.66,467.98 1126.75,470.08 1114.4,463.87 1108.82,447.65 1082.04,449.6 1079.89,438.36 1081.13,422.74 1072.55,385.9 1078.88,371.52" fill="none" stroke="#1e1e1e" stroke-width="1.69" stroke-linecap="round" stroke-linejoin="round"/>
<path d="M1085.15,171.58L1102.41,161.53L1098.17,153.42L1122.94,130.22L1140.65,136.4L1142.82,152.01L1131.05,159.56L1139.15,180.77L1156.7,147.57L1156.59,124.46L1160.72,108.19L1168.65,94.41L1187.17,98.06L1195.29,119.88L1218.48,125.98L1236.1,116.49L1253.39,121.36L1248.06,140.14L1229.96,141.52L1226.58,139.67L1218.2,147.22L1219.91,150.96L1245.27,161.41L1260.26,192.53L1283.92,196.71L1279.16,231.74L1289.41,245.4L1291.29,267.25L1304.61,290.25L1317.47,308.24L1322.3,325.69L1310.53,335.17L1300.62,363.38L1255.71,368.75L1242.62,376.35L1247.8,388.18L1219.4,393.38L1199.52,403.5L1194.04,411.03L1198.79,424.12L1185.63,425.44L1171.55,414.27L1166.4,401.81L1152.34,390.63L1133.65,386.96L1108.65,395.8L1092.07,385.85L1084.01,387.12L1070.77,347.17L1088.11,331.51L1076.19,309.67L1067.67,279.7L1070.59,264.08L1058.69,225.99L1057.82,207.87L1081.39,182.83L1085.15,171.58Z" fill-rule="evenodd" fill="#4682b4" fill-opacity="0.471"/>
<polyline points="1085.15,171.58 1102.41,161.53 1098.17,153.42 1122.94,130.22 1140.65,136.4 1142.82,152.01 1131.05,159.56 1139.15,180.77 1156.7,147.57 1156.59,124.46 1160.72,108.19 1168.65,94.41 1187.17,98.06 1195.29,119.88 1218.48,125.98 1236.1,116.49 1253.39,121.36 1248.06,140.14 1229.96,141.52 1226.58,139.67 1218.2,147.22 1219.91,150.96 1245.27,161.41 1260.26,192.53 1283.92,196.71 1279.16,231.74 1289.41,245.4 1291.29,267.25 1304.61,290.25 1317.47,308.24 1322.3,325.69 1310.53,335.17 1300.62,363.38 1255.71,368.75 1242.62,376.35 1247.8,388.18 1219.4,393.38 1199.52,403.5 1194.04,411.03 1198.79,424.12 1185.63,425.44 1171.55,414.27 1166.4,401.81 1152.34,390.63 1133.65,386.96 1108.65,395.8 1092.07,385.85 1084.01,387.12 1070.77,347.17 1088.11,331.51 1076.19,309.67 1067.67,279.7 1070.59,264.08 1058.69,225.99 1057.82,207.87 1081.39,182.83 1085.15,171.58" fill="none" stroke="#1e1e1e" stroke-width="1.69" stroke-linecap="round" stroke-linejoin="round"/>
<text x="1569.11" y="742.8" font-family="sans-serif" font-size="14" stroke="#ffffff" stroke-opacity="0.784" stroke-width="2.33" stroke-linejoin="round" paint-order="stroke" fill="#141414">Grisons</text>
<text x="723.02" y="643.57" font-family="sans-serif" font-size="14" stroke="#ffffff" stroke-opacity="0.784" stroke-width="2.33" stroke-linejoin="round" paint-order="stroke" fill="#141414">Bern</text>
<text x="676.53" y="1026.78" font-family="sans-serif" font-size="14" stroke="#ffffff" stroke-opacity="0.784" stroke-width="2.33" stroke-linejoin="round" paint-order="stroke" fill="#141414">Valais/Wallis</text>
<text x="304.88" y="794.12" font-family="sans-serif" font-size="14" stroke="#ffffff" stroke-opacity="0.784" stroke-width="2.33" stroke-linejoin="round" paint-order="stroke" fill="#141414">Vaud</text>
<text x="1226.46" y="973.12" font-family="sans-serif" font-size="14" stroke="#ffffff" stroke-opacity="0.784" stroke-width="2.33" stroke-linejoin="round" paint-order="stroke" fill="#141414">Ticino</text>
<text x="1395.88" y="374.62" font-family="sans-serif" font-size="14" stroke="#ffffff" stroke-opacity="0.784" stroke-width="2.33" stroke-linejoin="round" paint-order="stroke" fill="#141414">Sankt Gallen</text>
<text x="1153.2" y="274.59" font-family="sans-serif" font-size="14" stroke="#ffffff" stroke-opacity="0.784" stroke-width="2.33" stroke-linejoin="round" paint-order="stroke" fill="#141414">Zurich</text>
<text x="478.62" y="711.35" font-family="sans-serif" font-size="14" stroke="#ffffff" stroke-opacity="0.784" stroke-width="2.33" stroke-linejoin="round" paint-order="stroke" fill="#141414">Fribourg</text>
<text x="922.07" y="490.94" font-family="sans-serif" font-size="14" stroke="#ffffff" stroke-opacity="0.784" stroke-width="2.33" stroke-linejoin="round" paint-order="stroke" fill="#141414">Luzern</text>
<text x="939.18" y="277.3" font-family="sans-serif" font-size="14" stroke="#ffffff" stroke-opacity="0.784" stroke-width="2.33" stroke-linejoin="round" paint-order="stroke" fill="#141414">Aargau</text>
<text x="1161.48" y="676.05" font-family="sans-serif" font-size="14" stroke="#ffffff" stroke-opacity="0.784" stroke-width="2.33" stroke-linejoin="round" paint-order="stroke" fill="#141414">Uri</text>
<text x="1194.09" y="494.06" font-family="sans-serif" font-size="14" stroke="#ffffff" stroke-opacity="0.784" stroke-width="2.33" stroke-linejoin="round" paint-order="stroke" fill="#141414">Schwyz</text>
<text x="1313.52" y="179" font-family="sans-serif" font-size="14" stroke="#ffffff" stroke-opacity="0.784" stroke-width="2.33" stroke-linejoin="round" paint-order="stroke" fill="#141414">Thurgau</text>
<text x="529.66" y="310.8" font-family="sans-serif" font-size="14" stroke="#ffffff" stroke-opacity="0.784" stroke-width="2.33" stroke-linejoin="round" paint-order="stroke" fill="#141414">Jura</text>
<text x="339.89" y="531.07" font-family="sans-serif" font-size="14" stroke="#ffffff" stroke-opacity="0.784" stroke-width="2.33" stroke-linejoin="round" paint-order="stroke" fill="#141414">Neuchâtel</text>
<text x="713.42" y="348.98" font-family="sans-serif" font-size="14" stroke="#ffffff" stroke-opacity="0.784" stroke-width="2.33" stroke-linejoin="round" paint-order="stroke" fill="#141414">Solothurn</text>
<text x="1330.97" y="543.2" font-family="sans-serif" font-size="14" stroke="#ffffff" stroke-opacity="0.784" stroke-width="2.33" stroke-linejoin="round" paint-order="stroke" fill="#141414">Glarus</text>
<text x="703.29" y="250.98" font-family="sans-serif" font-size="14" stroke="#ffffff" stroke-opacity="0.784" stroke-width="2.33" stroke-linejoin="round" paint-order="stroke" fill="#141414">Basel-Landschaft</text>
<text x="950.81" y="622.31" font-family="sans-serif" font-size="14" stroke="#ffffff" stroke-opacity="0.784" stroke-width="2.33" stroke-linejoin="round" paint-order="stroke" fill="#141414">Obwalden</text>
<text x="1081.4" y="83.49" font-family="sans-serif" font-size="14" stroke="#ffffff" stroke-opacity="0.784" stroke-width="2.33" stroke-linejoin="round" paint-order="stroke" fill="#141414">Schaffhausen</text>
<text x="1033.11" y="579.06" font-family="sans-serif" font-size="14" stroke="#ffffff" stroke-opacity="0.784" stroke-width="2.33" stroke-linejoin="round" paint-order="stroke" fill="#141414">Nidwalden</text>
<text x="59.34" y="1013.87" font-family="sans-serif" font-size="14" stroke="#ffffff" stroke-opacity="0.784" stroke-width="2.33" stroke-linejoin="round" paint-order="stroke" fill="#141414">Geneva</text>
<text x="1117.99" y="434.8" font-family="sans-serif" font-size="14" stroke="#ffffff" stroke-opacity="0.784" stroke-width="2.33" stroke-linejoin="round" paint-order="stroke" fill="#141414">Zug</text>
<text x="1374.16" y="301.8" font-family="sans-serif" font-size="14" stroke="#ffffff" stroke-opacity="0.784" stroke-width="2.33" stroke-linejoin="round" paint-order="stroke" fill="#141414">Appenzell Ausserrhoden</text>
<text x="1397.46" y="337.88" font-family="sans-serif" font-size="14" stroke="#ffffff" stroke-opacity="0.784" stroke-width="2.33" stroke-linejoin="round" paint-order="stroke" fill="#141414">Appenzell Innerrhoden</text>
<text x="695.22" y="180.37" font-family="sans-serif" font-size="14" stroke="#ffffff" stroke-opacity="0.784" stroke-width="2.33" stroke-linejoin="round" paint-order="stroke" fill="#141414">Basel-City</text>
</svg>
