<?xml version="1.0" encoding="UTF-8" standalone="no"?>
<svg xmlns="http://www.w3.org/2000/svg" width="2000" height="1273" viewBox="0 0 2000 1273">
<rect width="2000" height="1273" fill="#ffffff"/>
<polyline points="1267.88,1042.96 1243.28,1060.2 1232.68,1070.29 1222.44,1082.06 1217.56,1096.06 1216.71,1112.34 1219.46,1128.11 1207.31,1150.38 1175.65,1184.73 1166.56,1190.65 1157.95,1199.54 1153.75,1210.23 1156.46,1222.04 1161.79,1236.28 1161.43,1249.94 1154.52,1264.65" fill="none" stroke="#1e1e1e" stroke-width="1.69" stroke-linecap="round" stroke-linejoin="round"/>
<polyline points="1077.39,841.34 1087.42,845.62 1098.24,845.81 1110.19,840.24 1124.86,831.28 1130.35,824.4 1148.52,816.65 1167.59,811.6 1194.24,812.3 1208.74,816.13 1219.38,823.17 1229.09,831.53 1250.45,843.12 1260.6,852.88 1282.23,884.39 1305.97,905.51 1318.39,921.59 1328.19,939.8 1346.11,983.14 1353.87,993.24 1356.09,999.06 1343.55,1021.46 1340.21,1025.61 1328.76,1031.52 1267.88,1042.96" fill="none" stroke="#1e1e1e" stroke-width="1.69" stroke-linecap="round" stroke-linejoin="round"/>
<polyline points="1655.65,893.04 1654.69,879.63 1659.32,871.06 1677.75,854.57 1680.4,847.45 1693.52,834.65 1707.68,808.8 1721.87,789.96 1766.23,743.75 1798.12,705.94 1801.72,700.51 1802.23,694.02 1798.17,681.3 1798.6,674.73 1804.91,661.73 1809.3,657.31 1815.29,654.61 1840.95,652.64 1887.26,635.5 1926.22,613.09 1941.7,599.46 1954.8,581.77 1967.43,555.81" fill="none" stroke="#1e1e1e" stroke-width="1.69" stroke-linecap="round" stroke-linejoin="round"/>
<polyline points="110.7,734.98 108.11,722 109.66,710.84 117.21,702.34 127.01,695.84 143.21,682.33 158.63,673.61 170.67,664.34 171.78,655.73 171.25,645.04 176.11,641.09 194.37,620.22 195.15,609.43 199.51,603.25 209.58,594.98 203.19,571.36 201.89,558.56 204.84,548.33 208.01,550.85 211.47,551.85 215.12,551.4 218.97,549.7 232.73,537.31 259.07,504.39 268.68,497.8 289.05,498.23 294.24,496.79 309.53,486.43 317.62,487.05 325.54,481.03 328.47,479.87 328,477.47 334.26,462.75 337.74,459.92 341.94,458.07 350.17,456.7 365.15,458.58 371.33,455.49 370.95,444.85 383.8,440.62 412.12,415.32 420.44,402.07 432.99,389.56 462.17,368.84 460.66,353.29 463.56,340.52 471.65,332.42 485.64,330.8 489.45,329.19 493.91,324.45 497.62,322.45 499.72,322.96 505.21,326.45 509.14,326.51 538.17,314.11 548.2,306.36 553.25,299.59 552.97,293.03 525.43,297.3 517.42,300.44 513.8,300.99 502.12,300.82 476.08,305.06 447.14,304.59 439.1,306.03 426.03,312.06 422.31,312.3 417.94,315.81 410.95,317.21 396.23,316.11 388.01,313.29 382.97,309.46 380.21,304.52 378.93,298.75 379.17,293.87 380.9,287.34 384.03,280.19 388.33,273.32 386.59,266.73 392.44,255.25 396.6,236.22 401.59,236.57 407.83,239.38 413.64,237.5 417.18,229.83 416.43,222.95 412.51,217.47 406.74,213.93 400.66,213.63 386.14,222.1 366.14,221.72 363.05,223.8 360.3,227.06 354.01,230.42 334.19,236.2 324.66,245.39 319.07,246.35 315.94,242.77 309.69,231.02 306.49,231.17 298.95,241.27 295.02,239.89 291.08,240.65 284.41,245.62 291.21,249 298.76,250.2 298.67,254.47 291.49,255.41 284.36,257.52 277.78,261.26 272.18,267.09 275.07,279.21 266.58,282 244.51,283.18 238.68,285.18 235.02,288.91 230.8,290.88 221.31,291.57 207.49,303.6 201.32,302.31 190.5,304.83 180.26,309.3 170.69,319.75 147.14,330.41 118.08,333.85 108.36,337.33 99.15,343.57 96.86,343.96 91.74,343.21 90.7,345.63 89.75,354.14 80.28,363.27 75.41,363.36 63.94,360.04 69.56,368.69 37.44,387.36" fill="none" stroke="#1e1e1e" stroke-width="1.69" stroke-linecap="round" stroke-linejoin="round"/>
<polyline points="37.38,389.34 39.68,389.59 39.56,393.48 37.23,394.62" fill="none" stroke="#1e1e1e" stroke-width="1.69" stroke-linecap="round" stroke-linejoin="round"/>
<polyline points="415.04,894.59 410.9,890.6 403.21,885.19 370.25,876.05 370.59,877.09 306.71,859.21 278.05,857.7 250.37,862.51 213.15,886.95 199.04,890.21 184.87,890.55 171.52,894.54 157.19,906.32 135.1,934.47 132.57,942.92 114.88,984.4 109.4,994.35 99.45,1004.92 96.11,1011.43" fill="none" stroke="#1e1e1e" stroke-width="1.69" stroke-linecap="round" stroke-linejoin="round"/>
<polyline points="1066.37,789.61 1062.34,798.54 1057,803.61 1053.34,811.7 1043.6,821.88 1029.51,833.48 949.35,905.4 919.91,924.72 915.93,933.1 906.61,939.94 887.45,948.27 870.69,951.79 742.34,943.25 732.63,945.8 716.85,957.08 677.29,968.27 656.87,986.27 640.27,990.73 627.33,1001.01 555.03,1035.12 514.25,1065.29 501.11,1067.51 497.36,1063.87 488.45,1048.89 486.73,1043.62 486.55,1030.65 485.15,1022.39 482.02,1016.19 472.51,1003 445.86,954.65 443.96,948.93 442.24,937.87 437.67,934.1 431.9,932.79 426.59,929.04 425.05,924.36 426.87,912.34 424.23,906.95 415.14,894.7" fill="none" stroke="#1e1e1e" stroke-width="1.69" stroke-linecap="round" stroke-linejoin="round"/>
<polyline points="96.11,1011.43 85.46,1009.25 78.49,1005.73 60.45,1010.46 46.78,1023.29 38.72,1027.98 23.35,1050.31 18.13,1056.26" fill="none" stroke="#1e1e1e" stroke-width="1.69" stroke-linecap="round" stroke-linejoin="round"/>
<polyline points="1561.38,202.44 1560.62,200.08 1560.3,191.12 1559.02,188.36 1441.34,117.3 1424.95,113.7 1403.41,105.08" fill="none" stroke="#1e1e1e" stroke-width="1.69" stroke-linecap="round" stroke-linejoin="round"/>
<polyline points="1276.54,115.32 1287.74,115.99 1296.61,113.12 1321,101.71 1338.14,90.67 1348.26,90.19 1359.6,94.34 1380.16,105.35" fill="none" stroke="#1e1e1e" stroke-width="1.69" stroke-linecap="round" stroke-linejoin="round"/>
<polyline points="1208.61,761.62 1210.18,744.13 1216.66,732.44 1225.84,727.99 1259.31,720.65 1275.91,703.51 1286.2,696.18 1297.03,691.21 1317.18,687.75 1351.61,676.04 1389.96,658.18 1394.86,657.48 1410.16,657.94 1416.2,656.16 1428.55,650.36 1444.96,647.02 1461.97,638.25 1479.87,634.57 1498.14,627.71 1509.21,626.02" fill="none" stroke="#1e1e1e" stroke-width="1.69" stroke-linecap="round" stroke-linejoin="round"/>
<polyline points="1561.38,202.44 1574.21,221.06 1590.01,227.98 1602.32,238.53 1602.43,264.95 1598.47,274.51 1582.49,295.59 1577.06,316.58 1562.93,334.29 1542.82,369.71 1535.91,390.87 1535.21,411.93 1538.69,422.18 1543.4,431.14 1547.09,441.06 1547.58,454.37 1543.67,462.78 1537.23,469.59 1532.4,476.38 1533.22,484.88 1536.65,495.28 1541.49,505.62 1561.12,537.66 1563.56,544.1 1566.83,564.99 1558.53,592.19 1543.42,607.67 1506.29,626.06" fill="none" stroke="#1e1e1e" stroke-width="1.69" stroke-linecap="round" stroke-linejoin="round"/>
<polyline points="1403.41,105.08 1380.16,105.35" fill="none" stroke="#1e1e1e" stroke-width="1.69" stroke-linecap="round" stroke-linejoin="round"/>
<polyline points="709.95,20.46 707.91,27.12 706.7,35.81 711.7,57.71 711.45,67.88 708.95,72.02 701.86,79.39 700.33,83.11 701.4,96.58 702.71,103.3 704.33,106.21 710.57,109.52 716.21,117.55 725.44,136.65 732.84,145.48 733.71,151.43 730.86,160.44 730.02,167.5 732.12,170.82 740.79,172.54 762.53,184.27 771.78,185.58 806.94,178.48 814.89,174.03 821.72,166.03 829.4,154.05 835.31,157.05 862.46,158.85 865.02,161.5 867.18,173.26 868.3,175.92 923.12,176.09 942.11,171.86 946.23,169.09 953.34,159.11 965.97,151.45 973.72,149.17 978.62,143.07 980.88,141.67 1003.55,137.86 1011.15,137.78 1022.12,141.13 1026.99,141.66 1029.21,144.38 1034.47,156.38 1038.63,159.12 1054.58,163.37 1081.54,163.42 1107.93,158.96 1118.47,160.83 1126,165.41 1132.91,171 1141.48,175.88 1145,166.71 1156.04,150.99 1158.31,143.43 1159.29,121.64 1161.05,115.96 1164.28,124.61 1168.67,119.66 1168.54,114.37 1165.54,109.84 1161.28,107.14 1168.47,100.33 1171.38,94.71 1174.85,91.1 1232.36,92.35 1248.87,98.1 1264.24,106.27 1276.54,115.32" fill="none" stroke="#1e1e1e" stroke-width="1.69" stroke-linecap="round" stroke-linejoin="round"/>
<text x="465.7" y="309.44" font-family="sans-serif" font-size="14" stroke="#ffffff" stroke-opacity="0.784" stroke-width="2.33" stroke-linejoin="round" paint-order="stroke" fill="#141414">Doubs</text>
<text x="688.7" y="964.26" font-family="sans-serif" font-size="14" stroke="#ffffff" stroke-opacity="0.784" stroke-width="2.33" stroke-linejoin="round" paint-order="stroke" fill="#141414">Rhône</text>
<text x="947.98" y="158.15" font-family="sans-serif" font-size="14" stroke="#ffffff" stroke-opacity="0.784" stroke-width="2.33" stroke-linejoin="round" paint-order="stroke" fill="#141414">Rhin</text>
<text x="1513.02" y="425.74" font-family="sans-serif" font-size="14" stroke="#ffffff" stroke-opacity="0.784" stroke-width="2.33" stroke-linejoin="round" paint-order="stroke" fill="#141414">Rhein</text>
<text x="1249.89" y="882.16" font-family="sans-serif" font-size="14" stroke="#ffffff" stroke-opacity="0.784" stroke-width="2.33" stroke-linejoin="round" paint-order="stroke" fill="#141414">Ticino</text>
<text x="1789.03" y="698.83" font-family="sans-serif" font-size="14" stroke="#ffffff" stroke-opacity="0.784" stroke-width="2.33" stroke-linejoin="round" paint-order="stroke" fill="#141414">Inn</text>
<text x="211.77" y="876.8" font-family="sans-serif" font-size="14" stroke="#ffffff" stroke-opacity="0.784" stroke-width="2.33" stroke-linejoin="round" paint-order="stroke" fill="#141414">Rhône</text>
<text x="1462.24" y="151.8" font-family="sans-serif" font-size="14" stroke="#ffffff" stroke-opacity="0.784" stroke-width="2.33" stroke-linejoin="round" paint-order="stroke" fill="#141414">Rhein</text>
<text x="1179.75" y="1159.04" font-family="sans-serif" font-size="14" stroke="#ffffff" stroke-opacity="0.784" stroke-width="2.33" stroke-linejoin="round" paint-order="stroke" fill="#141414">Ticino</text>
</svg>
