<?xml version="1.0" encoding="UTF-8" standalone="no"?>
<svg xmlns="http://www.w3.org/2000/svg" width="2000" height="1794" viewBox="0 0 2000 1794">
<rect width="2000" height="1794" fill="#ffffff"/>
<path d="M57.83,630.8L58.43,630.12L56.15,629.69L52.82,626.41L51.68,626.38L55.56,621.57L54.5,619.07L52.52,618.3L48.17,619.92L47.39,617.43L50.53,617.89L53.75,615.53L54.86,616.62L57.45,616.35L57.78,614.96L59.2,615.36L61.11,609.43L63.08,610.55L64.52,610.25L63.48,607.04L64.92,606.74L67.38,601.54L66,600.08L65.59,595.14L64.21,593.34L62.8,592.94L63.45,590.49L62.95,588.36L64.16,586.29L66.8,584.26L69.37,584.35L71.69,583.37L72.58,582.34L72.34,580.92L74.09,579.92L74.73,577.83L77.06,576.5L77.12,574.74L80.58,573.79L82.86,565.06L85.16,564.43L85.8,562.34L84.62,554.56L84.76,550.33L83.19,545.71L82.06,545.32L82.68,543.93L81.87,542.5L82.19,541.45L79.42,538.54L80.31,537.52L79.6,532.92L75.98,530.33L77.55,525.81L74.16,524.64L74.77,523.6L76.47,524.01L78.48,523.37L82.12,525.6L86.98,525.4L89.01,524.41L93.14,520.32L94.27,520.71L96.01,519.7L97.51,517.29L99.82,507.5L100.99,506.48L101.96,502.99L103.44,501.28L106.6,500.32L107.51,498.59L108.65,498.62L109.99,501.48L112.27,501.55L117.49,498.54L120.05,498.97L120.31,499.69L122.95,497.3L124.66,497.36L125.28,495.61L134.13,495.18L137.05,502.31L130.96,515.15L131.49,516.58L139.79,515.77L140.88,517.21L142.58,517.62L145.17,516.99L148.26,518.49L150.76,521.03L154.78,520.09L157.27,522.63L163.51,523.87L164.59,526.02L166.28,526.77L169.86,531.45L170.93,533.95L171.01,540.99L173.24,542.82L175.23,543.22L177.28,541.17L177.96,537.67L179.41,536.66L180.36,533.51L180.47,529.64L179.64,528.56L181.23,522.98L179.7,516.59L180.91,514.16L182.08,503.28L187.43,495.69L191.51,492.63L204.99,489.49L211.12,494.59L216.03,492.26L217.52,489.84L215.6,486.97L213.8,479.88L214.26,473.55L215.42,472.88L218.27,472.96L222.19,475.18L227.17,480.59L229.15,481.35L236.97,476.63L239.91,473.19L239.36,472.47L240.24,471.44L238.84,470.34L238.61,468.58L241.21,466.89L240.66,466.17L241.57,464.08L243.57,463.78L244.17,462.74L241.63,461.97L241.11,460.19L242.26,459.52L243.1,460.25L243.42,458.85L241.45,458.09L241.33,451.75L243.34,451.1L244.54,448.66L241.01,442.58L242.14,442.61L243.23,444.4L243.59,441.6L242.77,440.52L241.91,440.5L241.6,441.54L240.48,440.81L240.79,440.11L242.21,440.15L242.52,439.1L241.4,438.37L240.81,439.06L239.47,436.21L241.48,435.55L241.51,434.15L240.08,434.46L240.1,433.76L241.25,433.44L240.72,432.01L242.73,431.36L244.85,426.14L243.46,425.04L242.02,425.71L241.23,423.58L242.67,422.91L238.74,421.04L239.09,418.24L240.56,416.52L239.19,414.72L242.63,413.4L242.97,411.3L244.69,410.99L243.51,412.37L244.93,412.76L245.53,411.37L247.53,411.07L247.56,410.01L248.4,410.39L248.43,409.33L246.48,407.87L245.95,406.1L247.67,405.79L246.59,403.65L245.71,404.68L245.16,403.96L246.06,402.22L244.94,401.49L243.79,402.16L243.24,401.45L245.53,400.8L247.29,398.38L257.63,404.99L264.74,404.83L264.41,406.58L265.79,408.02L267.77,408.42L268.37,407.38L269.22,407.41L269,404.94L270.19,402.85L273.06,401.52L272.35,396.22L274.6,396.98L275.13,398.4L277.08,399.86L277.96,398.83L277.15,397.04L277.73,396.71L277.82,393.19L286.93,392.36L291.58,399.52L292.42,399.89L294.75,397.49L294.21,396.42L294.81,395.37L297.62,396.5L301.24,399.41L304.35,399.83L306.01,401.64L312.49,403.91L313.43,400.41L312.86,400.39L313.2,397.94L312.13,395.45L314.41,395.15L321.42,398.84L324.54,398.91L323.74,396.78L324.88,396.46L328.83,397.96L328.6,395.49L331.45,394.85L332.62,393.47L331.88,388.87L328.3,384.21L329.52,380.37L330.66,380.39L332.13,378.32L333.26,378.34L333.03,375.87L329.91,375.8L329.37,374.73L322,374.56L321.8,371.03L322.37,370.69L321.83,369.62L322.68,369.64L322.44,367.88L323.88,366.85L323.92,365.45L324.78,364.76L322.62,360.49L318.35,361.09L315.31,357.85L313.87,358.52L314.4,359.94L312.96,360.96L311.82,361.28L310.43,360.19L308.99,360.86L309.25,361.92L307.26,362.23L306.28,355.87L309.99,354.9L312.01,353.54L306.44,349.18L305.91,347.76L307.33,347.79L308.51,345.71L308.62,341.13L302.96,340.99L300.33,332.48L299.22,331.4L297.52,331.35L297.03,328.52L297.68,325.02L297.14,323.95L296,324.27L294.65,321.42L295.61,317.22L296.78,315.49L294.26,314.37L294.9,311.57L294.08,310.14L292.12,309.39L291.6,307.61L293.04,306.59L293.11,303.78L292.26,303.75L292.02,301.99L298.69,295.46L300.17,293.03L301.79,284.62L306.04,272.75L302.56,264.92L301.82,260.67L302.71,258.94L301.87,246.94L305.85,245.98L306.19,243.52L309.62,242.2L310.21,240.81L311.63,240.84L313.46,235.25L314.88,234.93L316.06,232.49L317.79,231.13L318.2,225.85L316.8,225.47L315.17,222.96L314.44,218.01L313.61,217.29L317.43,211.04L318.28,210.71L318.32,209.3L320.02,208.99L320.04,207.94L321.44,208.32L321.2,206.91L322.35,205.88L323.27,202.73L326.12,201.74L326.71,200.35L327.84,200.37L328.45,198.63L330.45,197.27L329.9,196.9L330.26,193.39L329.42,193.37L330.61,190.58L328.97,188.43L330.4,187.75L332.64,188.16L332.91,188.87L342.2,189.09L343.63,188.42L346.67,190.95L350.04,191.74L352.03,191.08L361.45,198.33L364.8,199.82L375.75,202.18L387.51,205.96L394.83,206.82L399.67,204.45L401.65,204.5L401.91,205.56L404.7,206.67L404.11,208.07L404.66,208.79L406.63,208.83L407.78,207.8L410.55,210.32L414.74,212.52L418.67,213.3L422.37,211.97L422.05,213.73L420.91,214.05L421.71,216.54L422.82,217.26L420.78,220.39L426.11,222.26L433.15,222.75L434.82,223.84L436.14,228.45L434.96,231.24L434.11,231.58L433.77,234.39L432.33,235.42L428.38,235.69L426.94,236.72L427.47,238.49L426.86,240.59L427.99,240.96L428.24,242.38L428.14,247.3L432.37,247.74L436.82,251L438.51,251.39L438.16,254.9L446.28,258.58L450.05,253.73L452.18,245.67L454.44,245.71L457.51,247.88L462.38,244.1L465.95,249.8L468.18,251.25L483.54,245.2L485.5,246.29L487.77,245.98L490.01,247.08L493.96,247.15L499.85,249.37L500.7,249.38L500.73,247.27L502.43,247.3L527.18,253.36L536.73,257.04L542.09,257.12L547.4,261.08L555.04,260.5L555.87,261.22L559.93,254.59L560.01,249.66L562.03,246.87L570.58,242.07L598.14,229.45L608.42,221.14L615.17,223L620.31,218.49L627.9,220.35L644.25,221.26L648.54,216.74L656.46,214.72L669.79,208.54L677.42,207.22L683.99,200.26L688.53,197.49L694.17,197.2L703.23,193.07L710.54,195.26L713.38,192.82L714.24,191.07L713.15,187.54L713.74,185.08L715.45,182.98L721.1,181.28L724.2,182.01L727.62,177.82L730.72,177.15L732.41,177.87L734.68,176.13L737.21,176.15L740.06,172.66L743.45,171.28L745.98,171.65L750.79,169.93L751.64,169.24L751.94,166.42L754.21,165.39L756.73,166.47L765.74,166.89L772.26,161.66L773.95,161.33L780.12,164.54L801.19,169.98L815,169.02L860.8,189.35L863.04,191.48L864.99,196.06L866.96,197.13L869.22,196.08L871.47,196.8L872.29,202.79L873.41,204.2L884.65,213.05L899.26,228.25L911.09,237.09L914.19,238.51L957.37,240.72L992.94,237.23L1005.36,239.34L1021.74,245.32L1047.16,251.98L1061.56,249.84L1088.93,243.78L1125.62,240.83L1140.84,235.82L1155.22,232.58L1167.35,231.81L1189.02,222.52L1218.91,220.19L1223.4,217.69L1227.88,213.43L1233.5,210.92L1249.53,205.85L1268.9,196.52L1277.9,195.02L1283.21,190.04L1285.42,185.44L1286.54,184.72L1290.76,183.98L1300.02,180.36L1309.59,179.55L1319.7,176.97L1330.87,168.39L1336.43,163.04L1343.73,160.84L1355.47,154.01L1363.83,147.56L1368.04,146.8L1374.43,140.73L1376.05,135.78L1380.75,129.38L1383.82,127.57L1417.77,122.16L1428.62,114.95L1433.33,110.3L1442.3,109.11L1443.96,107.32L1458.45,99.34L1463.15,95.04L1467.93,94.96L1470.15,93.51L1476.31,92.35L1479.13,93.01L1481.84,87.33L1483.51,86.24L1485.79,87.96L1491.71,89.27L1495.31,86.74L1496.73,87.42L1498.2,91.27L1501.61,93.32L1504.4,92.21L1505.45,88.32L1506.29,87.95L1512.42,85.38L1516.92,85.65L1523.07,84.12L1543.39,89.38L1552.38,89.2L1573.53,93.71L1573.83,94.41L1574.38,93.69L1578.62,95.01L1578.64,96.07L1579.75,95.34L1581.73,96.01L1585.09,95.23L1587.07,95.9L1590.13,94.78L1594.93,95.73L1596.07,96.41L1596.11,98.17L1597.49,97.44L1604.87,100.8L1604.71,106.44L1609.79,107.04L1611.71,104.88L1611.13,104.19L1615.58,101.98L1623.69,100.39L1634.64,99.8L1647.86,100.2L1653.23,101.49L1655.16,100.03L1682.4,99.03L1694.49,99.44L1695.29,97.66L1704.53,96.02L1720.89,87.51L1723.69,87.08L1725.67,87.74L1727.3,85.58L1734,84L1742.47,85.54L1771.53,79.82L1775.12,77.26L1793.82,73.21L1809.39,67.84L1814.46,68.4L1818.63,66.87L1819.7,65.07L1827.18,61.68L1829.92,59.14L1838.61,58.88L1844.05,53.08L1850.68,49.36L1852.93,49.64L1853.75,48.91L1854.75,45L1859.36,39.58L1879.26,20.99L1880.84,17.77L1881.02,14.59L1882.12,13.85L1882.61,11.72L1885.35,9.52L1889.55,9.39L1890.72,11.11L1890.49,12.53L1885.64,19.03L1886.26,20.77L1885.2,22.57L1887.2,23.91L1889.99,23.47L1893.3,21.6L1895.27,21.89L1899.58,25.28L1901,25.59L1903.21,24.81L1906.47,21.53L1907.32,21.86L1908.51,23.94L1908.91,27.45L1910.07,28.82L1913.45,29.06L1915.17,30.42L1916.68,33.54L1920.12,35.89L1923.24,36.85L1924.42,38.57L1923.7,42.47L1925.99,43.81L1925.76,45.22L1923.27,46.36L1920.58,49.97L1918.79,55.32L1921.84,62.62L1921.63,64.74L1924.02,69.24L1928.4,74.38L1929.04,76.48L1928.02,88.14L1928.63,89.88L1934.92,92.84L1935.24,94.24L1933.66,97.47L1933.76,100.28L1929.58,101.48L1833.39,215.1L1827.79,226.54L1826.67,226.57L1825.32,228.73L1817.56,233.88L1802.25,251.93L1783.24,269.72L1666.49,295.24L1662.13,302.39L1637.2,351.91L1638.97,355.04L1639.02,357.15L1635.98,360.74L1634.71,367.46L1634.91,376.25L1632.65,415.39L1628.79,459.48L1662.7,534.76L1668.2,611.73L1652.18,637.09L1653.4,640.23L1635.19,671.97L1633.77,685.38L1639.47,696.87L1630.78,732.26L1628.48,745.33L1626.52,760.86L1625.05,786.24L1627.13,815.76L1626.24,827.75L1628.85,841.77L1627.26,848.14L1628.51,852.69L1628.31,869.94L1631.19,882.9L1630.09,885.74L1630.49,890.66L1632.6,894.84L1630.64,910.72L1600.91,955L1571.94,1028.09L1568.25,1032.03L1562.61,1040.59L1560.97,1045.9L1552.59,1048.53L1546.21,1049L1543.07,1051.52L1463.3,1076.83L1053.94,1331.75L1005.87,1361.01L1001.76,1364.18L931.22,1407.75L918.85,1417.22L915.91,1417.57L907.95,1423.53L892.63,1432.28L855.44,1457.11L814.36,1481.17L798.72,1485.3L794.83,1493.01L661.8,1577.35L657.65,1578.71L651.48,1575.12L637,1574.59L627.19,1578.7L622.4,1583.57L624.12,1587.46L624.64,1593.45L619.92,1615.58L617.19,1620.48L613.58,1624.65L603.79,1625.93L597.52,1629.72L585.66,1630.62L561.91,1634.15L560.39,1637.3L552.68,1637.89L548.21,1639.23L544.26,1645.51L537.39,1648.92L534.01,1656.62L531.29,1660.1L524.98,1665.28L519.14,1677.87L505.41,1682.92L501.75,1688.85L499.58,1694.1L494.57,1692.25L491.01,1692.19L489.21,1693.22L488.89,1694.27L485.92,1694.57L482.11,1691.68L472.31,1691.87L468.5,1689.33L460.42,1692.71L454.16,1694.36L446.86,1703.73L440.53,1708.54L428.04,1724.86L414.72,1737.29L411.12,1738.62L394.45,1739.7L389.74,1737.49L388.61,1734.3L386.54,1733.9L384.72,1735.63L380.59,1734.13L359.15,1763.62L355.71,1770.95L349.05,1776.09L342.74,1778.77L327.64,1774.91L317.23,1774.32L313.96,1774.25L308.24,1776.93L304.69,1776.14L303.22,1775.05L300.01,1772.51L298.59,1769.31L291.5,1767.38L270.45,1763.7L266.29,1763.6L256.22,1761.24L246.43,1760.29L242.59,1759.13L237.03,1755.47L227.54,1754.17L224.25,1754.78L223.97,1754.07L215.08,1752.43L213.03,1751.32L212.48,1749.54L208.37,1747.67L207.52,1745.89L205.18,1744.42L195.37,1733.23L193.9,1732.49L185.84,1722.76L184.07,1722.35L166.63,1708.13L165.75,1707.75L165.12,1708.79L164.54,1708.42L162.12,1709.77L158.27,1709.31L156.32,1704.67L157.04,1700.46L156.52,1697.63L155.06,1696.88L155.03,1697.94L154.15,1697.56L149.31,1700.6L143.93,1701.85L141.94,1698.62L132.15,1697.99L118.97,1701.83L118.29,1694.76L119.29,1690.91L117.31,1687.68L116.58,1682.38L114.6,1678.8L105.31,1671.82L104.18,1670.03L103.71,1665.79L105.18,1656.67L105.02,1652.09L104.18,1650.3L97.69,1649.05L91.76,1649.22L87.33,1648.38L82.19,1641.88L81.36,1640.09L81.76,1636.58L78.86,1634.73L79.25,1631.57L78.2,1627.31L75.54,1626.87L74.93,1627.56L74.06,1626.83L74.02,1628.24L73.13,1628.21L72,1626.41L69.59,1627.75L68.72,1627.01L68.1,1628.05L65.42,1628.32L64.2,1629.34L62.73,1628.94L61.41,1623.96L59.08,1622.48L54.92,1623.05L54.6,1623.75L55.46,1624.48L54.55,1625.16L51.67,1622.6L51.05,1623.64L48.95,1624.27L46.36,1621.72L41.95,1620.88L40.82,1619.08L39.28,1620.79L38.75,1619.01L37.02,1617.55L39.15,1615.85L37.72,1614.05L34.08,1616.75L25.77,1617.18L34.09,1607.24L37.73,1604.53L39.21,1604.58L44.52,1596.3L50.98,1588.76L53.62,1580.03L53.22,1574.03L55.52,1567.06L58.67,1560.82L69.13,1548.11L62.44,1535.22L57.6,1492.45L53.5,1491.26L47.99,1488.26L48.45,1483.35L56.57,1469.17L55.08,1460.31L49.01,1456.6L48.9,1441.8L45.49,1437.82L40.02,1434.12L38.09,1430.18L49.13,1416.45L37.59,1409.38L46.36,1401.92L49.04,1400.95L50.62,1397.48L51.71,1391.17L54.24,1385.62L62.33,1380.95L72.44,1377.04L78.21,1371.23L89.06,1362.42L92.15,1357.58L92.86,1353.38L92.34,1351.25L88.4,1345.84L89.06,1343.4L98.9,1338.42L105.3,1340.38L110.97,1337.38L115.09,1336.8L124.2,1326.51L124.88,1323.36L122.86,1322.24L121.37,1323.25L117.28,1322.43L117.32,1321.37L114.73,1319.53L113.96,1315.99L111.71,1312.75L105.89,1311.17L104.1,1312.17L102.66,1311.42L99.56,1307.45L99.67,1303.58L93.18,1305.14L91.72,1304.74L88.59,1301.83L88.39,1298.65L89.95,1295.89L96.28,1290.09L98.03,1290.15L98.66,1288.76L99.93,1285.63L99,1277.85L106.52,1271.39L109.66,1264.45L113.01,1259.97L114.82,1258.26L118.9,1258.74L119.8,1258.06L130.02,1239.35L131.49,1239.04L133.22,1239.8L135.5,1241.98L137.26,1241.68L139.63,1240.69L142.98,1236.21L149.43,1235.7L155.15,1229.88L157.75,1231.01L160.53,1236.02L167.78,1238.34L172.77,1237.42L174.29,1235.35L178.41,1234.76L179.37,1231.62L181.78,1229.22L184.94,1231.07L188.17,1230.81L189.9,1231.56L193.86,1236.25L197.69,1235.3L204.01,1239.34L207.23,1239.43L212.45,1240.98L214.79,1241.04L218.33,1239.73L221.51,1241.22L224.45,1240.59L225.36,1239.56L223.69,1236.35L223.55,1230.71L218.66,1227.41L217.3,1223.86L214.7,1222.73L207.66,1223.6L205.04,1223.17L200.53,1217.07L193.34,1212.64L193.15,1209.12L195.85,1206.38L200.77,1197.36L206.86,1188.37L213.46,1181.86L222.67,1175.77L226.02,1170.22L229.26,1169.25L229.69,1163.98L230.58,1163.3L232.9,1163.71L234.67,1163.06L237.07,1160.65L238.83,1160.35L240.27,1160.74L244.26,1164.36L248.34,1164.82L250.69,1163.82L253.09,1161.42L255.72,1161.13L256.34,1159.74L258.97,1159.46L260.51,1156.33L260.4,1148.93L261.35,1146.14L267.29,1141.71L271.51,1136.19L277.97,1134.23L279.89,1127.24L283.74,1124.52L286.57,1116.14L288.33,1115.48L289.83,1113.75L293.92,1113.15L295.43,1111.07L288.64,1102.81L286.04,1102.05L283.44,1089.31L283.26,1084.73L288.92,1079.23L289.87,1076.44L289.34,1073.96L286.79,1071.44L282.71,1071.69L278.11,1069.82L277.27,1068.39L277.08,1064.16L274.51,1062.33L270.14,1051.31L269.9,1049.19L277.38,1040.58L277.53,1034.6L274.98,1031.72L271.24,1030.57L270.43,1028.09L269.56,1028.06L269.51,1030.18L268.64,1030.15L266.96,1027.65L264.89,1029L265.26,1025.84L263.56,1024.04L260.66,1023.97L257.83,1021.08L251.5,1019.16L249.85,1015.59L249.91,1013.13L246.74,1012.35L246.09,1003.88L244.94,1003.5L239.09,1005.46L236.5,1004.33L233.3,1004.95L226.98,1002.32L221.39,1005.34L219.65,1005.3L217.1,1003.11L215.73,1000.26L215.23,997.08L216.16,994.99L232.63,986.28L234.13,984.21L234.8,980.7L233.46,976.8L235.25,974.73L236.64,965.97L238.1,965.65L240.68,966.78L245.16,972.53L247.75,973.3L249.24,971.93L251.33,958.25L250.47,957.88L242.26,961.54L228.45,958.01L225.63,955.11L224.19,954.72L220.01,948.63L219.83,944.75L221.3,943.73L221.68,940.58L221.12,939.86L219.95,940.18L218.27,938.02L217.39,938.35L216.56,937.27L214.23,937.56L213.92,938.25L211.91,937.85L210.41,939.92L208.66,940.22L206.2,945.44L207.52,950.05L206.64,950.73L205.36,954.92L204.15,957L202.69,957.31L201.49,958.69L200.66,957.61L198,959.29L197.73,958.58L196.57,958.55L194.81,959.56L192.26,957.37L188.53,956.21L187.91,957.6L186.46,957.56L186.7,959.33L184.42,958.21L183.54,958.54L183.8,959.6L182.93,959.58L181.53,957.78L179.22,957.71L177.53,955.9L172.92,955.07L169.4,956.73L168.78,958.12L167.62,958.09L165.06,956.25L161.29,956.5L160.74,955.42L158.99,956.08L155.02,953.15L153.57,953.1L151.17,955.85L149.71,956.16L148.01,955.05L147.41,955.74L146.27,955L146.23,956.41L143.88,957.4L143.05,956.32L141.88,956.63L140.75,955.54L140.11,957.64L139.24,957.61L139.56,956.56L136.14,954.7L133.79,956.04L133.17,957.43L131.45,956.68L128.54,956.94L127.99,956.22L126.24,956.52L125.14,954.73L120,952.11L120.32,951.06L115.38,951.61L115.47,948.8L112.54,949.77L112.8,950.83L111.33,951.49L111.81,954.67L111.23,954.66L99.61,918.39L99.22,903.23L86.92,871.16L85.43,863.72L84.06,861.21L80.92,860.06L84.08,860.51L83.84,859.1L82.11,859.04L84.45,858.06L84.18,857.35L81.55,858.32L81.88,857.27L83.62,856.98L81.31,856.9L84.24,855.59L86.33,853.54L86.95,843L85.64,838.73L87.02,831.38L86.81,828.91L91.55,825.19L92.8,822.06L91.72,810.41L89.84,806.12L89.96,802.25L92.15,796.69L90.64,789.95L91,787.5L92.76,786.5L93.14,783.69L96.03,783.43L96.71,779.93L99.76,774.39L99.81,772.99L101.84,772.35L102.76,770.61L102.07,764.96L103.29,762.88L110.32,758.88L110.65,757.48L109.58,745.48L105.28,735.84L105.88,735.15L104.51,733L103.07,732.95L102.09,727.64L103.09,723.09L102.34,719.55L102.96,718.16L102.15,716.37L102.63,710.05L103.48,710.43L103.52,709.37L102.67,709L102.47,706.17L103.11,704.08L102.61,692.45L103.5,691.42L102.2,687.15L102.57,684.35L100.98,680.07L102.14,679.76L102.16,679.05L98.91,672.97L95.32,668.63L85.59,658.81L76.66,651.13L70.77,647.07L66.8,645.89L65.64,646.2L64.1,649.67L63.28,648.24L59.37,645.29L60.58,643.22L61.99,643.97L62.3,643.27L60.89,642.52L62.16,638.69L60.72,639L60.74,638.29L62.81,636.25L60.62,633.36L60.92,632.67L59.24,631.55L58.65,632.24L57.83,630.8Z" fill-rule="evenodd" fill="#4682b4" fill-opacity="0.471"/>
<polyline points="57.83,630.8 58.43,630.12 56.15,629.69 52.82,626.41 51.68,626.38 55.56,621.57 54.5,619.07 52.52,618.3 48.17,619.92 47.39,617.43 50.53,617.89 53.75,615.53 54.86,616.62 57.45,616.35 57.78,614.96 59.2,615.36 61.11,609.43 63.08,610.55 64.52,610.25 63.48,607.04 64.92,606.74 67.38,601.54 66,600.08 65.59,595.14 64.21,593.34 62.8,592.94 63.45,590.49 62.95,588.36 64.16,586.29 66.8,584.26 69.37,584.35 71.69,583.37 72.58,582.34 72.34,580.92 74.09,579.92 74.73,577.83 77.06,576.5 77.12,574.74 80.58,573.79 82.86,565.06 85.16,564.43 85.8,562.34 84.62,554.56 84.76,550.33 83.19,545.71 82.06,545.32 82.68,543.93 81.87,542.5 82.19,541.45 79.42,538.54 80.31,537.52 79.6,532.92 75.98,530.33 77.55,525.81 74.16,524.64 74.77,523.6 76.47,524.01 78.48,523.37 82.12,525.6 86.98,525.4 89.01,524.41 93.14,520.32 94.27,520.71 96.01,519.7 97.51,517.29 99.82,507.5 100.99,506.48 101.96,502.99 103.44,501.28 106.6,500.32 107.51,498.59 108.65,498.62 109.99,501.48 112.27,501.55 117.49,498.54 120.05,498.97 120.31,499.69 122.95,497.3 124.66,497.36 125.28,495.61 134.13,495.18 137.05,502.31 130.96,515.15 131.49,516.58 139.79,515.77 140.88,517.21 142.58,517.62 145.17,516.99 148.26,518.49 150.76,521.03 154.78,520.09 157.27,522.63 163.51,523.87 164.59,526.02 166.28,526.77 169.86,531.45 170.93,533.95 171.01,540.99 173.24,542.82 175.23,543.22 177.28,541.17 177.96,537.67 179.41,536.66 180.36,533.51 180.47,529.64 179.64,528.56 181.23,522.98 179.7,516.59 180.91,514.16 182.08,503.28 187.43,495.69 191.51,492.63 204.99,489.49 211.12,494.59 216.03,492.26 217.52,489.84 215.6,486.97 213.8,479.88 214.26,473.55 215.42,472.88 218.27,472.96 222.19,475.18 227.17,480.59 229.15,481.35 236.97,476.63 239.91,473.19 239.36,472.47 240.24,471.44 238.84,470.34 238.61,468.58 241.21,466.89 240.66,466.17 241.57,464.08 243.57,463.78 244.17,462.74 241.63,461.97 241.11,460.19 242.26,459.52 243.1,460.25 243.42,458.85 241.45,458.09 241.33,451.75 243.34,451.1 244.54,448.66 241.01,442.58 242.14,442.61 243.23,444.4 243.59,441.6 242.77,440.52 241.91,440.5 241.6,441.54 240.48,440.81 240.79,440.11 242.21,440.15 242.52,439.1 241.4,438.37 240.81,439.06 239.47,436.21 241.48,435.55 241.51,434.15 240.08,434.46 240.1,433.76 241.25,433.44 240.72,432.01 242.73,431.36 244.85,426.14 243.46,425.04 242.02,425.71 241.23,423.58 242.67,422.91 238.74,421.04 239.09,418.24 240.56,416.52 239.19,414.72 242.63,413.4 242.97,411.3 244.69,410.99 243.51,412.37 244.93,412.76 245.53,411.37 247.53,411.07 247.56,410.01 248.4,410.39 248.43,409.33 246.48,407.87 245.95,406.1 247.67,405.79 246.59,403.65 245.71,404.68 245.16,403.96 246.06,402.22 244.94,401.49 243.79,402.16 243.24,401.45 245.53,400.8 247.29,398.38 257.63,404.99 264.74,404.83 264.41,406.58 265.79,408.02 267.77,408.42 268.37,407.38 269.22,407.41 269,404.94 270.19,402.85 273.06,401.52 272.35,396.22 274.6,396.98 275.13,398.4 277.08,399.86 277.96,398.83 277.15,397.04 277.73,396.71 277.82,393.19 286.93,392.36 291.58,399.52 292.42,399.89 294.75,397.49 294.21,396.42 294.81,395.37 297.62,396.5 301.24,399.41 304.35,399.83 306.01,401.64 312.49,403.91 313.43,400.41 312.86,400.39 313.2,397.94 312.13,395.45 314.41,395.15 321.42,398.84 324.54,398.91 323.74,396.78 324.88,396.46 328.83,397.96 328.6,395.49 331.45,394.85 332.62,393.47 331.88,388.87 328.3,384.21 329.52,380.37 330.66,380.39 332.13,378.32 333.26,378.34 333.03,375.87 329.91,375.8 329.37,374.73 322,374.56 321.8,371.03 322.37,370.69 321.83,369.62 322.68,369.64 322.44,367.88 323.88,366.85 323.92,365.45 324.78,364.76 322.62,360.49 318.35,361.09 315.31,357.85 313.87,358.52 314.4,359.94 312.96,360.96 311.82,361.28 310.43,360.19 308.99,360.86 309.25,361.92 307.26,362.23 306.28,355.87 309.99,354.9 312.01,353.54 306.44,349.18 305.91,347.76 307.33,347.79 308.51,345.71 308.62,341.13 302.96,340.99 300.33,332.48 299.22,331.4 297.52,331.35 297.03,328.52 297.68,325.02 297.14,323.95 296,324.27 294.65,321.42 295.61,317.22 296.78,315.49 294.26,314.37 294.9,311.57 294.08,310.14 292.12,309.39 291.6,307.61 293.04,306.59 293.11,303.78 292.26,303.75 292.02,301.99 298.69,295.46 300.17,293.03 301.79,284.62 306.04,272.75 302.56,264.92 301.82,260.67 302.71,258.94 301.87,246.94 305.85,245.98 306.19,243.52 309.62,242.2 310.21,240.81 311.63,240.84 313.46,235.25 314.88,234.93 316.06,232.49 317.79,231.13 318.2,225.85 316.8,225.47 315.17,222.96 314.44,218.01 313.61,217.29 317.43,211.04 318.28,210.71 318.32,209.3 320.02,208.99 320.04,207.94 321.44,208.32 321.2,206.91 322.35,205.88 323.27,202.73 326.12,201.74 326.71,200.35 327.84,200.37 328.45,198.63 330.45,197.27 329.9,196.9 330.26,193.39 329.42,193.37 330.61,190.58 328.97,188.43 330.4,187.75 332.64,188.16 332.91,188.87 342.2,189.09 343.63,188.42 346.67,190.95 350.04,191.74 352.03,191.08 361.45,198.33 364.8,199.82 375.75,202.18 387.51,205.96 394.83,206.82 399.67,204.45 401.65,204.5 401.91,205.56 404.7,206.67 404.11,208.07 404.66,208.79 406.63,208.83 407.78,207.8 410.55,210.32 414.74,212.52 418.67,213.3 422.37,211.97 422.05,213.73 420.91,214.05 421.71,216.54 422.82,217.26 420.78,220.39 426.11,222.26 433.15,222.75 434.82,223.84 436.14,228.45 434.96,231.24 434.11,231.58 433.77,234.39 432.33,235.42 428.38,235.69 426.94,236.72 427.47,238.49 426.86,240.59 427.99,240.96 428.24,242.38 428.14,247.3 432.37,247.74 436.82,251 438.51,251.39 438.16,254.9 446.28,258.58 450.05,253.73 452.18,245.67 454.44,245.71 457.51,247.88 462.38,244.1 465.95,249.8 468.18,251.25 483.54,245.2 485.5,246.29 487.77,245.98 490.01,247.08 493.96,247.15 499.85,249.37 500.7,249.38 500.73,247.27 502.43,247.3 527.18,253.36 536.73,257.04 542.09,257.12 547.4,261.08 555.04,260.5 555.87,261.22 559.93,254.59 560.01,249.66 562.03,246.87 570.58,242.07 598.14,229.45 608.42,221.14 615.17,223 620.31,218.49 627.9,220.35 644.25,221.26 648.54,216.74 656.46,214.72 669.79,208.54 677.42,207.22 683.99,200.26 688.53,197.49 694.17,197.2 703.23,193.07 710.54,195.26 713.38,192.82 714.24,191.07 713.15,187.54 713.74,185.08 715.45,182.98 721.1,181.28 724.2,182.01 727.62,177.82 730.72,177.15 732.41,177.87 734.68,176.13 737.21,176.15 740.06,172.66 743.45,171.28 745.98,171.65 750.79,169.93 751.64,169.24 751.94,166.42 754.21,165.39 756.73,166.47 765.74,166.89 772.26,161.66 773.95,161.33 780.12,164.54 801.19,169.98 815,169.02 860.8,189.35 863.04,191.48 864.99,196.06 866.96,197.13 869.22,196.08 871.47,196.8 872.29,202.79 873.41,204.2 884.65,213.05 899.26,228.25 911.09,237.09 914.19,238.51 957.37,240.72 992.94,237.23 1005.36,239.34 1021.74,245.32 1047.16,251.98 1061.56,249.84 1088.93,243.78 1125.62,240.83 1140.84,235.82 1155.22,232.58 1167.35,231.81 1189.02,222.52 1218.91,220.19 1223.4,217.69 1227.88,213.43 1233.5,210.92 1249.53,205.85 1268.9,196.52 1277.9,195.02 1283.21,190.04 1285.42,185.44 1286.54,184.72 1290.76,183.98 1300.02,180.36 1309.59,179.55 1319.7,176.97 1330.87,168.39 1336.43,163.04 1343.73,160.84 1355.47,154.01 1363.83,147.56 1368.04,146.8 1374.43,140.73 1376.05,135.78 1380.75,129.38 1383.82,127.57 1417.77,122.16 1428.62,114.95 1433.33,110.3 1442.3,109.11 1443.96,107.32 1458.45,99.34 1463.15,95.04 1467.93,94.96 1470.15,93.51 1476.31,92.35 1479.13,93.01 1481.84,87.33 1483.51,86.24 1485.79,87.96 1491.71,89.27 1495.31,86.74 1496.73,87.42 1498.2,91.27 1501.61,93.32 1504.4,92.21 1505.45,88.32 1506.29,87.95 1512.42,85.38 1516.92,85.65 1523.07,84.12 1543.39,89.38 1552.38,89.2 1573.53,93.71 1573.83,94.41 1574.38,93.69 1578.62,95.01 1578.64,96.07 1579.75,95.34 1581.73,96.01 1585.09,95.23 1587.07,95.9 1590.13,94.78 1594.93,95.73 1596.07,96.41 1596.11,98.17 1597.49,97.44 1604.87,100.8 1604.71,106.44 1609.79,107.04 1611.71,104.88 1611.13,104.19 1615.58,101.98 1623.69,100.39 1634.64,99.8 1647.86,100.2 1653.23,101.49 1655.16,100.03 1682.4,99.03 1694.49,99.44 1695.29,97.66 1704.53,96.02 1720.89,87.51 1723.69,87.08 1725.67,87.74 1727.3,85.58 1734,84 1742.47,85.54 1771.53,79.82 1775.12,77.26 1793.82,73.21 1809.39,67.84 1814.46,68.4 1818.63,66.87 1819.7,65.07 1827.18,61.68 1829.92,59.14 1838.61,58.88 1844.05,53.08 1850.68,49.36 1852.93,49.64 1853.75,48.91 1854.75,45 1859.36,39.58 1879.26,20.99 1880.84,17.77 1881.02,14.59 1882.12,13.85 1882.61,11.72 1885.35,9.52 1889.55,9.39 1890.72,11.11 1890.49,12.53 1885.64,19.03 1886.26,20.77 1885.2,22.57 1887.2,23.91 1889.99,23.47 1893.3,21.6 1895.27,21.89 1899.58,25.28 1901,25.59 1903.21,24.81 1906.47,21.53 1907.32,21.86 1908.51,23.94 1908.91,27.45 1910.07,28.82 1913.45,29.06 1915.17,30.42 1916.68,33.54 1920.12,35.89 1923.24,36.85 1924.42,38.57 1923.7,42.47 1925.99,43.81 1925.76,45.22 1923.27,46.36 1920.58,49.97 1918.79,55.32 1921.84,62.62 1921.63,64.74 1924.02,69.24 1928.4,74.38 1929.04,76.48 1928.02,88.14 1928.63,89.88 1934.92,92.84 1935.24,94.24 1933.66,97.47 1933.76,100.28 1929.58,101.48 1833.39,215.1 1827.79,226.54 1826.67,226.57 1825.32,228.73 1817.56,233.88 1802.25,251.93 1783.24,269.72 1666.49,295.24 1662.13,302.39 1637.2,351.91 1638.97,355.04 1639.02,357.15 1635.98,360.74 1634.71,367.46 1634.91,376.25 1632.65,415.39 1628.79,459.48 1662.7,534.76 1668.2,611.73 1652.18,637.09 1653.4,640.23 1635.19,671.97 1633.77,685.38 1639.47,696.87 1630.78,732.26 1628.48,745.33 1626.52,760.86 1625.05,786.24 1627.13,815.76 1626.24,827.75 1628.85,841.77 1627.26,848.14 1628.51,852.69 1628.31,869.94 1631.19,882.9 1630.09,885.74 1630.49,890.66 1632.6,894.84 1630.64,910.72 1600.91,955 1571.94,1028.09 1568.25,1032.03 1562.61,1040.59 1560.97,1045.9 1552.59,1048.53 1546.21,1049 1543.07,1051.52 1463.3,1076.83 1053.94,1331.75 1005.87,1361.01 1001.76,1364.18 931.22,1407.75 918.85,1417.22 915.91,1417.57 907.95,1423.53 892.63,1432.28 855.44,1457.11 814.36,1481.17 798.72,1485.3 794.83,1493.01 661.8,1577.35 657.65,1578.71 651.48,1575.12 637,1574.59 627.19,1578.7 622.4,1583.57 624.12,1587.46 624.64,1593.45 619.92,1615.58 617.19,1620.48 613.58,1624.65 603.79,1625.93 597.52,1629.72 585.66,1630.62 561.91,1634.15 560.39,1637.3 552.68,1637.89 548.21,1639.23 544.26,1645.51 537.39,1648.92 534.01,1656.62 531.29,1660.1 524.98,1665.28 519.14,1677.87 505.41,1682.92 501.75,1688.85 499.58,1694.1 494.57,1692.25 491.01,1692.19 489.21,1693.22 488.89,1694.27 485.92,1694.57 482.11,1691.68 472.31,1691.87 468.5,1689.33 460.42,1692.71 454.16,1694.36 446.86,1703.73 440.53,1708.54 428.04,1724.86 414.72,1737.29 411.12,1738.62 394.45,1739.7 389.74,1737.49 388.61,1734.3 386.54,1733.9 384.72,1735.63 380.59,1734.13 359.15,1763.62 355.71,1770.95 349.05,1776.09 342.74,1778.77 327.64,1774.91 317.23,1774.32 313.96,1774.25 308.24,1776.93 304.69,1776.14 303.22,1775.05 300.01,1772.51 298.59,1769.31 291.5,1767.38 270.45,1763.7 266.29,1763.6 256.22,1761.24 246.43,1760.29 242.59,1759.13 237.03,1755.47 227.54,1754.17 224.25,1754.78 223.97,1754.07 215.08,1752.43 213.03,1751.32 212.48,1749.54 208.37,1747.67 207.52,1745.89 205.18,1744.42 195.37,1733.23 193.9,1732.49 185.84,1722.76 184.07,1722.35 166.63,1708.13 165.75,1707.75 165.12,1708.79 164.54,1708.42 162.12,1709.77 158.27,1709.31 156.32,1704.67 157.04,1700.46 156.52,1697.63 155.06,1696.88 155.03,1697.94 154.15,1697.56 149.31,1700.6 143.93,1701.85 141.94,1698.62 132.15,1697.99 118.97,1701.83 118.29,1694.76 119.29,1690.91 117.31,1687.68 116.58,1682.38 114.6,1678.8 105.31,1671.82 104.18,1670.03 103.71,1665.79 105.18,1656.67 105.02,1652.09 104.18,1650.3 97.69,1649.05 91.76,1649.22 87.33,1648.38 82.19,1641.88 81.36,1640.09 81.76,1636.58 78.86,1634.73 79.25,1631.57 78.2,1627.31 75.54,1626.87 74.93,1627.56 74.06,1626.83 74.02,1628.24 73.13,1628.21 72,1626.41 69.59,1627.75 68.72,1627.01 68.1,1628.05 65.42,1628.32 64.2,1629.34 62.73,1628.94 61.41,1623.96 59.08,1622.48 54.92,1623.05 54.6,1623.75 55.46,1624.48 54.55,1625.16 51.67,1622.6 51.05,1623.64 48.95,1624.27 46.36,1621.72 41.95,1620.88 40.82,1619.08 39.28,1620.79 38.75,1619.01 37.02,1617.55 39.15,1615.85 37.72,1614.05 34.08,1616.75 25.77,1617.18 34.09,1607.24 37.73,1604.53 39.21,1604.58 44.52,1596.3 50.98,1588.76 53.62,1580.03 53.22,1574.03 55.52,1567.06 58.67,1560.82 69.13,1548.11 62.44,1535.22 57.6,1492.45 53.5,1491.26 47.99,1488.26 48.45,1483.35 56.57,1469.17 55.08,1460.31 49.01,1456.6 48.9,1441.8 45.49,1437.82 40.02,1434.12 38.09,1430.18 49.13,1416.45 37.59,1409.38 46.36,1401.92 49.04,1400.95 50.62,1397.48 51.71,1391.17 54.24,1385.62 62.33,1380.95 72.44,1377.04 78.21,1371.23 89.06,1362.42 92.15,1357.58 92.86,1353.38 92.34,1351.25 88.4,1345.84 89.06,1343.4 98.9,1338.42 105.3,1340.38 110.97,1337.38 115.09,1336.8 124.2,1326.51 124.88,1323.36 122.86,1322.24 121.37,1323.25 117.28,1322.43 117.32,1321.37 114.73,1319.53 113.96,1315.99 111.71,1312.75 105.89,1311.17 104.1,1312.17 102.66,1311.42 99.56,1307.45 99.67,1303.58 93.18,1305.14 91.72,1304.74 88.59,1301.83 88.39,1298.65 89.95,1295.89 96.28,1290.09 98.03,1290.15 98.66,1288.76 99.93,1285.63 99,1277.85 106.52,1271.39 109.66,1264.45 113.01,1259.97 114.82,1258.26 118.9,1258.74 119.8,1258.06 130.02,1239.35 131.49,1239.04 133.22,1239.8 135.5,1241.98 137.26,1241.68 139.63,1240.69 142.98,1236.21 149.43,1235.7 155.15,1229.88 157.75,1231.01 160.53,1236.02 167.78,1238.34 172.77,1237.42 174.29,1235.35 178.41,1234.76 179.37,1231.62 181.78,1229.22 184.94,1231.07 188.17,1230.81 189.9,1231.56 193.86,1236.25 197.69,1235.3 204.01,1239.34 207.23,1239.43 212.45,1240.98 214.79,1241.04 218.33,1239.73 221.51,1241.22 224.45,1240.59 225.36,1239.56 223.69,1236.35 223.55,1230.71 218.66,1227.41 217.3,1223.86 214.7,1222.73 207.66,1223.6 205.04,1223.17 200.53,1217.07 193.34,1212.64 193.15,1209.12 195.85,1206.38 200.77,1197.36 206.86,1188.37 213.46,1181.86 222.67,1175.77 226.02,1170.22 229.26,1169.25 229.69,1163.98 230.58,1163.3 232.9,1163.71 234.67,1163.06 237.07,1160.65 238.83,1160.35 240.27,1160.74 244.26,1164.36 248.34,1164.82 250.69,1163.82 253.09,1161.42 255.72,1161.13 256.34,1159.74 258.97,1159.46 260.51,1156.33 260.4,1148.93 261.35,1146.14 267.29,1141.71 271.51,1136.19 277.97,1134.23 279.89,1127.24 283.74,1124.52 286.57,1116.14 288.33,1115.48 289.83,1113.75 293.92,1113.15 295.43,1111.07 288.64,1102.81 286.04,1102.05 283.44,1089.31 283.26,1084.73 288.92,1079.23 289.87,1076.44 289.34,1073.96 286.79,1071.44 282.71,1071.69 278.11,1069.82 277.27,1068.39 277.08,1064.16 274.51,1062.33 270.14,1051.31 269.9,1049.19 277.38,1040.58 277.53,1034.6 274.98,1031.72 271.24,1030.57 270.43,1028.09 269.56,1028.06 269.51,1030.18 268.64,1030.15 266.96,1027.65 264.89,1029 265.26,1025.84 263.56,1024.04 260.66,1023.97 257.83,1021.08 251.5,1019.16 249.85,1015.59 249.91,1013.13 246.74,1012.35 246.09,1003.88 244.94,1003.5 239.09,1005.46 236.5,1004.33 233.3,1004.95 226.98,1002.32 221.39,1005.34 219.65,1005.3 217.1,1003.11 215.73,1000.26 215.23,997.08 216.16,994.99 232.63,986.28 234.13,984.21 234.8,980.7 233.46,976.8 235.25,974.73 236.64,965.97 238.1,965.65 240.68,966.78 245.16,972.53 247.75,973.3 249.24,971.93 251.33,958.25 250.47,957.88 242.26,961.54 228.45,958.01 225.63,955.11 224.19,954.72 220.01,948.63 219.83,944.75 221.3,943.73 221.68,940.58 221.12,939.86 219.95,940.18 218.27,938.02 217.39,938.35 216.56,937.27 214.23,937.56 213.92,938.25 211.91,937.85 210.41,939.92 208.66,940.22 206.2,945.44 207.52,950.05 206.64,950.73 205.36,954.92 204.15,957 202.69,957.31 201.49,958.69 200.66,957.61 198,959.29 197.73,958.58 196.57,958.55 194.81,959.56 192.26,957.37 188.53,956.21 187.91,957.6 186.46,957.56 186.7,959.33 184.42,958.21 183.54,958.54 183.8,959.6 182.93,959.58 181.53,957.78 179.22,957.71 177.53,955.9 172.92,955.07 169.4,956.73 168.78,958.12 167.62,958.09 165.06,956.25 161.29,956.5 160.74,955.42 158.99,956.08 155.02,953.15 153.57,953.1 151.17,955.85 149.71,956.16 148.01,955.05 147.41,955.74 146.27,955 146.23,956.41 143.88,957.4 143.05,956.32 141.88,956.63 140.75,955.54 140.11,957.64 139.24,957.61 139.56,956.56 136.14,954.7 133.79,956.04 133.17,957.43 131.45,956.68 128.54,956.94 127.99,956.22 126.24,956.52 125.14,954.73 120,952.11 120.32,951.06 115.38,951.61 115.47,948.8 112.54,949.77 112.8,950.83 111.33,951.49 111.81,954.67 111.23,954.66 99.61,918.39 99.22,903.23 86.92,871.16 85.43,863.72 84.06,861.21 80.92,860.06 84.08,860.51 83.84,859.1 82.11,859.04 84.45,858.06 84.18,857.35 81.55,858.32 81.88,857.27 83.62,856.98 81.31,856.9 84.24,855.59 86.33,853.54 86.95,843 85.64,838.73 87.02,831.38 86.81,828.91 91.55,825.19 92.8,822.06 91.72,810.41 89.84,806.12 89.96,802.25 92.15,796.69 90.64,789.95 91,787.5 92.76,786.5 93.14,783.69 96.03,783.43 96.71,779.93 99.76,774.39 99.81,772.99 101.84,772.35 102.76,770.61 102.07,764.96 103.29,762.88 110.32,758.88 110.65,757.48 109.58,745.48 105.28,735.84 105.88,735.15 104.51,733 103.07,732.95 102.09,727.64 103.09,723.09 102.34,719.55 102.96,718.16 102.15,716.37 102.63,710.05 103.48,710.43 103.52,709.37 102.67,709 102.47,706.17 103.11,704.08 102.61,692.45 103.5,691.42 102.2,687.15 102.57,684.35 100.98,680.07 102.14,679.76 102.16,679.05 98.91,672.97 95.32,668.63 85.59,658.81 76.66,651.13 70.77,647.07 66.8,645.89 65.64,646.2 64.1,649.67 63.28,648.24 59.37,645.29 60.58,643.22 61.99,643.97 62.3,643.27 60.89,642.52 62.16,638.69 60.72,639 60.74,638.29 62.81,636.25 60.62,633.36 60.92,632.67 59.24,631.55 58.65,632.24 57.83,630.8" fill="none" stroke="#1e1e1e" stroke-width="1.49" stroke-linecap="round" stroke-linejoin="round"/>
<path d="M61.96,609.81L62.85,608.78L61.96,609.81Z" fill-rule="evenodd" fill="#4682b4" fill-opacity="0.471"/>
<polyline points="61.96,609.81 62.85,608.78 61.96,609.81" fill="none" stroke="#1e1e1e" stroke-width="1.49" stroke-linecap="round" stroke-linejoin="round"/>
<path d="M79.6,874.45L80.7,876.25L79.54,876.21L79,875.14L79.6,874.45Z" fill-rule="evenodd" fill="#4682b4" fill-opacity="0.471"/>
<polyline points="79.6,874.45 80.7,876.25 79.54,876.21 79,875.14 79.6,874.45" fill="none" stroke="#1e1e1e" stroke-width="1.49" stroke-linecap="round" stroke-linejoin="round"/>
<text x="824.4" y="835.91" font-family="sans-serif" font-size="14" stroke="#ffffff" stroke-opacity="0.784" stroke-width="2.33" stroke-linejoin="round" paint-order="stroke" fill="#141414">Syria</text>
</svg>
