<?xml version="1.0" encoding="UTF-8" standalone="no"?>
<svg xmlns="http://www.w3.org/2000/svg" width="2000" height="1986" viewBox="0 0 2000 1986">
<rect width="2000" height="1986" fill="#ffffff"/>
<path d="M1785.01,1364.05L1784.52,1421.5L1783.17,1420.99L1783.6,1418.58L1784.24,1418.79L1782.1,1416.21L1781.3,1412.54L1782.72,1403.35L1780.56,1397.02L1778.56,1395.32L1780.21,1393.83L1777.77,1391.8L1778.84,1389.57L1773.06,1388.06L1772.57,1384.42L1770.27,1383.5L1771.16,1378.92L1770.45,1377.59L1770.45,1374.32L1769.51,1373L1770.7,1369.45L1772.96,1367.17L1771.06,1366.02L1771.86,1365.25L1771.42,1363.94L1785.01,1364.05Z" fill-rule="evenodd" fill="#4682b4" fill-opacity="0.471"/>
<polyline points="1785.01,1364.05 1784.52,1421.5 1783.17,1420.99 1783.6,1418.58 1784.24,1418.79 1782.1,1416.21 1781.3,1412.54 1782.72,1403.35 1780.56,1397.02 1778.56,1395.32 1780.21,1393.83 1777.77,1391.8 1778.84,1389.57 1773.06,1388.06 1772.57,1384.42 1770.27,1383.5 1771.16,1378.92 1770.45,1377.59 1770.45,1374.32 1769.51,1373 1770.7,1369.45 1772.96,1367.17 1771.06,1366.02 1771.86,1365.25 1771.42,1363.94 1785.01,1364.05" fill="none" stroke="#1e1e1e" stroke-width="1.27" stroke-linecap="round" stroke-linejoin="round"/>
<path d="M1789.3,855.76L1788.75,921.44L1785.5,910.79L1784.94,903.38L1786.3,894.29L1785.86,889.91L1783.7,884.98L1776.65,875.2L1774.36,875.41L1773.86,876.22L1772.94,881.11L1774.65,887.57L1773.36,894.57L1772.32,895L1770.68,900.88L1765.78,903.54L1763.42,903.69L1761.21,905.96L1760.74,908.85L1759.2,910.74L1758.43,910.68L1758.38,913.75L1756.85,910.19L1757.07,907.31L1756.09,906.55L1754.22,908.62L1754.74,913.65L1753.72,916.27L1754.12,924.38L1756.09,929.96L1757.55,931.26L1757.35,935.54L1759.53,941.73L1758.74,947.04L1759.22,949.77L1758.21,950.26L1758.9,950.4L1756.77,953.02L1757.47,954.05L1755.3,953.62L1754.05,955.16L1757.92,960.18L1756.59,965.55L1758.43,966.88L1758.9,970.89L1761.34,971.79L1762.48,973.52L1765.54,975.41L1767.35,980.12L1769.62,983.2L1773.94,984.2L1774.55,983.68L1774.36,981.17L1771.83,976.27L1770.92,972.43L1772.73,971.17L1775.59,975.24L1773.67,969.03L1777.17,969.27L1780.79,973.46L1783.2,980.88L1784.26,981.97L1784.44,980.37L1788,983.85L1787.4,1080.86L1785.8,1081.12L1784.07,1080.03L1782.19,1076.65L1780.06,1076.44L1776.37,1074.1L1773.94,1075.88L1772.81,1075.86L1775.02,1080.81L1773.12,1083.4L1773.65,1084.07L1771.18,1084.01L1773.81,1080.89L1771.42,1075.4L1774.06,1074.41L1771.49,1070.77L1770.51,1070.59L1770.36,1069.58L1771.57,1067.94L1770.75,1064.8L1772.08,1062.45L1771.38,1060.51L1769.63,1059.03L1769.02,1063.34L1768.18,1063.93L1766.27,1063.83L1764.11,1062.2L1760.43,1051.27L1760.23,1047.36L1754.82,1039.81L1754.06,1040.39L1751.9,1039.33L1747.47,1030.96L1745.6,1029.97L1744.73,1030.29L1740.1,1027.49L1739.31,1025.12L1737.09,1023.47L1734.65,1017.81L1732.37,1016.61L1726.24,1010.61L1715.8,1007.92L1722.18,1009.63L1722.37,1010.32L1724.17,1010.05L1726.91,1011.44L1727.68,1013.53L1726.53,1012.79L1725.91,1014.85L1723.76,1015.28L1721.15,1012.64L1716.39,1012.09L1714.54,1011.17L1712.59,1007.93L1709.98,1008.75L1706.68,1007.61L1703.73,1005.13L1701.67,999.43L1698.18,998.56L1695.74,996.07L1696.5,995.26L1695.16,995.54L1694.65,993.56L1695.18,992.92L1692.17,987.21L1691.51,983.11L1693.97,970.61L1696.09,965.64L1695.44,954.91L1694.26,952.77L1693.53,953.64L1691.68,953.26L1688.72,946.9L1684.1,942.05L1681.47,936.76L1680.73,930.74L1685.42,916.5L1688.1,913.32L1688.71,908.56L1688.14,902.5L1689.07,896.4L1695.2,883.89L1702.11,873.17L1701.93,865.43L1704,862.1L1703.78,859.82L1705.47,859.75L1706.71,857.03L1709.34,855.12L1789.3,855.76ZM1767.11,1051.46L1766.18,1051.77L1769.73,1054.99L1767.11,1051.46ZM1765.83,1046.17L1765.09,1044.16L1763.91,1045.19L1765.83,1046.17ZM1743.64,953.29L1745.06,952.18L1743.64,953.29ZM1767.02,892.1L1766.18,894.55L1767.02,892.1ZM1762.98,899.64L1764,898.8L1762.16,892.21L1762.6,891.03L1763.43,891.67L1763.41,893.12L1765,890.45L1764.3,890.75L1762.44,889.31L1762.09,883.95L1761,882.99L1759.3,897.31L1760.17,899.87L1762.98,899.64ZM1783.3,1074.47L1783.3,1075.62L1783.98,1075.64L1783.3,1074.47ZM1782.39,1005.24L1781.52,1002.16L1780.19,1001.77L1781.57,1005.43L1782.39,1005.24ZM1772.38,993.78L1771.26,994.08L1773.56,995.99L1772.38,993.78ZM1784.65,991.73L1784.72,990.73L1783.56,989.79L1784.65,991.73ZM1781.48,988.94L1780.31,987.66L1781.48,988.94Z" fill-rule="evenodd" fill="#4682b4" fill-opacity="0.471"/>
<polyline points="1789.3,855.76 1788.75,921.44 1785.5,910.79 1784.94,903.38 1786.3,894.29 1785.86,889.91 1783.7,884.98 1776.65,875.2 1774.36,875.41 1773.86,876.22 1772.94,881.11 1774.65,887.57 1773.36,894.57 1772.32,895 1770.68,900.88 1765.78,903.54 1763.42,903.69 1761.21,905.96 1760.74,908.85 1759.2,910.74 1758.43,910.68 1758.38,913.75 1756.85,910.19 1757.07,907.31 1756.09,906.55 1754.22,908.62 1754.74,913.65 1753.72,916.27 1754.12,924.38 1756.09,929.96 1757.55,931.26 1757.35,935.54 1759.53,941.73 1758.74,947.04 1759.22,949.77 1758.21,950.26 1758.9,950.4 1756.77,953.02 1757.47,954.05 1755.3,953.62 1754.05,955.16 1757.92,960.18 1756.59,965.55 1758.43,966.88 1758.9,970.89 1761.34,971.79 1762.48,973.52 1765.54,975.41 1767.35,980.12 1769.62,983.2 1773.94,984.2 1774.55,983.68 1774.36,981.17 1771.83,976.27 1770.92,972.43 1772.73,971.17 1775.59,975.24 1773.67,969.03 1777.17,969.27 1780.79,973.46 1783.2,980.88 1784.26,981.97 1784.44,980.37 1788,983.85 1787.4,1080.86 1785.8,1081.12 1784.07,1080.03 1782.19,1076.65 1780.06,1076.44 1776.37,1074.1 1773.94,1075.88 1772.81,1075.86 1775.02,1080.81 1773.12,1083.4 1773.65,1084.07 1771.18,1084.01 1773.81,1080.89 1771.42,1075.4 1774.06,1074.41 1771.49,1070.77 1770.51,1070.59 1770.36,1069.58 1771.57,1067.94 1770.75,1064.8 1772.08,1062.45 1771.38,1060.51 1769.63,1059.03 1769.02,1063.34 1768.18,1063.93 1766.27,1063.83 1764.11,1062.2 1760.43,1051.27 1760.23,1047.36 1754.82,1039.81 1754.06,1040.39 1751.9,1039.33 1747.47,1030.96 1745.6,1029.97 1744.73,1030.29 1740.1,1027.49 1739.31,1025.12 1737.09,1023.47 1734.65,1017.81 1732.37,1016.61 1726.24,1010.61 1715.8,1007.92 1722.18,1009.63 1722.37,1010.32 1724.17,1010.05 1726.91,1011.44 1727.68,1013.53 1726.53,1012.79 1725.91,1014.85 1723.76,1015.28 1721.15,1012.64 1716.39,1012.09 1714.54,1011.17 1712.59,1007.93 1709.98,1008.75 1706.68,1007.61 1703.73,1005.13 1701.67,999.43 1698.18,998.56 1695.74,996.07 1696.5,995.26 1695.16,995.54 1694.65,993.56 1695.18,992.92 1692.17,987.21 1691.51,983.11 1693.97,970.61 1696.09,965.64 1695.44,954.91 1694.26,952.77 1693.53,953.64 1691.68,953.26 1688.72,946.9 1684.1,942.05 1681.47,936.76 1680.73,930.74 1685.42,916.5 1688.1,913.32 1688.71,908.56 1688.14,902.5 1689.07,896.4 1695.2,883.89 1702.11,873.17 1701.93,865.43 1704,862.1 1703.78,859.82 1705.47,859.75 1706.71,857.03 1709.34,855.12 1789.3,855.76" fill="none" stroke="#1e1e1e" stroke-width="1.27" stroke-linecap="round" stroke-linejoin="round"/>
<polyline points="1767.11,1051.46 1766.18,1051.77 1769.73,1054.99 1767.11,1051.46" fill="none" stroke="#1e1e1e" stroke-width="1.27" stroke-linecap="round" stroke-linejoin="round"/>
<polyline points="1765.83,1046.17 1765.09,1044.16 1763.91,1045.19 1765.83,1046.17" fill="none" stroke="#1e1e1e" stroke-width="1.27" stroke-linecap="round" stroke-linejoin="round"/>
<polyline points="1743.64,953.29 1745.06,952.18 1743.64,953.29" fill="none" stroke="#1e1e1e" stroke-width="1.27" stroke-linecap="round" stroke-linejoin="round"/>
<polyline points="1767.02,892.1 1766.18,894.55 1767.02,892.1" fill="none" stroke="#1e1e1e" stroke-width="1.27" stroke-linecap="round" stroke-linejoin="round"/>
<polyline points="1762.98,899.64 1764,898.8 1762.16,892.21 1762.6,891.03 1763.43,891.67 1763.41,893.12 1765,890.45 1764.3,890.75 1762.44,889.31 1762.09,883.95 1761,882.99 1759.3,897.31 1760.17,899.87 1762.98,899.64" fill="none" stroke="#1e1e1e" stroke-width="1.27" stroke-linecap="round" stroke-linejoin="round"/>
<polyline points="1783.3,1074.47 1783.3,1075.62 1783.98,1075.64 1783.3,1074.47" fill="none" stroke="#1e1e1e" stroke-width="1.27" stroke-linecap="round" stroke-linejoin="round"/>
<polyline points="1782.39,1005.24 1781.52,1002.16 1780.19,1001.77 1781.57,1005.43 1782.39,1005.24" fill="none" stroke="#1e1e1e" stroke-width="1.27" stroke-linecap="round" stroke-linejoin="round"/>
<polyline points="1772.38,993.78 1771.26,994.08 1773.56,995.99 1772.38,993.78" fill="none" stroke="#1e1e1e" stroke-width="1.27" stroke-linecap="round" stroke-linejoin="round"/>
<polyline points="1784.65,991.73 1784.72,990.73 1783.56,989.79 1784.65,991.73" fill="none" stroke="#1e1e1e" stroke-width="1.27" stroke-linecap="round" stroke-linejoin="round"/>
<polyline points="1781.48,988.94 1780.31,987.66 1781.48,988.94" fill="none" stroke="#1e1e1e" stroke-width="1.27" stroke-linecap="round" stroke-linejoin="round"/>
<path d="M1786.54,1182.92L1785.98,1248.57L1782.38,1247.48L1782.54,1245.22L1780.69,1243.89L1779.76,1241.96L1777.55,1240.61L1776.27,1241.07L1775.57,1245.82L1774.53,1245.5L1773.77,1242.76L1771.45,1238.74L1770.76,1238.67L1770.67,1236.24L1773,1230.39L1769.44,1224.3L1768.36,1215.17L1769.04,1211.23L1771.85,1204.18L1774.06,1192.24L1776.76,1186.6L1779.79,1182.87L1781.1,1182.66L1782.48,1180.24L1782.41,1173.25L1786.71,1162.17L1786.54,1182.92Z" fill-rule="evenodd" fill="#4682b4" fill-opacity="0.471"/>
<polyline points="1786.54,1182.92 1785.98,1248.57 1782.38,1247.48 1782.54,1245.22 1780.69,1243.89 1779.76,1241.96 1777.55,1240.61 1776.27,1241.07 1775.57,1245.82 1774.53,1245.5 1773.77,1242.76 1771.45,1238.74 1770.76,1238.67 1770.67,1236.24 1773,1230.39 1769.44,1224.3 1768.36,1215.17 1769.04,1211.23 1771.85,1204.18 1774.06,1192.24 1776.76,1186.6 1779.79,1182.87 1781.1,1182.66 1782.48,1180.24 1782.41,1173.25 1786.71,1162.17 1786.54,1182.92" fill="none" stroke="#1e1e1e" stroke-width="1.27" stroke-linecap="round" stroke-linejoin="round"/>
<path d="M1785.01,1364.21L1771.48,1364.1L1770.75,1361.94L1772.95,1358.82L1769.19,1355.89L1765.32,1347.25L1767.86,1345.73L1769.33,1346.31L1771.32,1344.21L1772.33,1344.72L1772.09,1342.26L1770.6,1340.61L1770.95,1338.95L1775.58,1343.72L1779.26,1343.86L1779.01,1341.37L1780.39,1340.79L1780.57,1339.71L1778.57,1337.06L1779.84,1332.08L1778.31,1326.84L1779.95,1326.71L1781.98,1328.94L1782.8,1328.22L1785.41,1316.67L1785.01,1364.21Z" fill-rule="evenodd" fill="#4682b4" fill-opacity="0.471"/>
<polyline points="1785.01,1364.21 1771.48,1364.1 1770.75,1361.94 1772.95,1358.82 1769.19,1355.89 1765.32,1347.25 1767.86,1345.73 1769.33,1346.31 1771.32,1344.21 1772.33,1344.72 1772.09,1342.26 1770.6,1340.61 1770.95,1338.95 1775.58,1343.72 1779.26,1343.86 1779.01,1341.37 1780.39,1340.79 1780.57,1339.71 1778.57,1337.06 1779.84,1332.08 1778.31,1326.84 1779.95,1326.71 1781.98,1328.94 1782.8,1328.22 1785.41,1316.67 1785.01,1364.21" fill="none" stroke="#1e1e1e" stroke-width="1.27" stroke-linecap="round" stroke-linejoin="round"/>
<path d="M1790.77,681.36L1787.94,680.59L1786.7,683.37L1790.76,683.08L1790.68,691.86L1789.47,691.82L1788.9,692.87L1789.94,693.4L1790.68,692.74L1789.3,855.93L1709.29,855.28L1711.88,847.62L1715.91,843.62L1715.93,840.25L1717.51,838.25L1718.38,834.49L1720.5,831.16L1721.82,825.94L1721.43,824.73L1719.59,824.5L1718.8,822.52L1713.41,820.85L1718.15,821.69L1720.51,818.17L1723.57,817.2L1724.67,817.96L1726.07,815.97L1730.31,803.67L1732.72,798.89L1734.56,791.07L1737.9,785.46L1737.88,783.99L1734.71,783.5L1735.22,782.34L1733.53,783.23L1733.62,782.09L1737.64,778.7L1738.25,776.64L1741.74,775.08L1740.24,773.46L1741.25,771.61L1740.16,769.7L1742.39,765.81L1747.32,765.41L1744.99,758.75L1744.71,756.08L1745.5,753.63L1744.13,753.02L1743.6,754.44L1740.44,755.78L1737.67,754.62L1740.58,750.56L1740.35,747.7L1741.93,746.98L1745.48,748.3L1747.97,744.6L1749.99,743.96L1746.92,743.12L1746.64,741.9L1745.69,741.97L1745.98,738.95L1748.13,736.67L1746.91,732.63L1743.93,730.02L1745.01,728.67L1746.97,729.04L1747.56,727.1L1749.28,725.44L1748.61,724.34L1749.01,720.71L1751.48,718.46L1750.84,718.07L1751.07,716.46L1752.23,716.42L1749.84,712.91L1752.33,712.51L1753.46,713.52L1753.41,715.48L1754.75,717.1L1754.35,719.2L1753.7,719.42L1754.77,719.89L1757.12,718.82L1754.59,721.27L1754.51,722.68L1755.41,723.14L1753.8,725.28L1754.7,725.65L1753.67,726.11L1754.62,727.42L1754.01,732.46L1756.04,728.13L1756.2,726.01L1757.6,724.16L1756.38,722.7L1757.4,722.27L1757.73,723L1758.21,721.6L1759.45,720.91L1759.8,718.7L1760.93,718.08L1760.71,717L1761.5,716.26L1761.44,713.81L1759.99,713.05L1759.32,713.55L1760.64,711.37L1761.95,710.87L1762.4,708.63L1761.61,706L1759.16,705.75L1758.45,707.22L1757.79,705.34L1755.66,706.24L1755.57,705.29L1753.52,703.52L1754.31,702.87L1753.88,701.62L1754.81,699.75L1754.11,699.07L1754.53,698.2L1753.83,698.35L1754.65,697.45L1753.14,697.29L1755.05,696.01L1754.4,695.07L1755.87,694.37L1756.94,691.55L1756.46,688.54L1754.97,686.63L1755.65,685.67L1756.17,686.28L1757.46,685.62L1757.78,683.23L1758.88,683.85L1759.39,683.01L1759.52,683.59L1760.31,683.19L1760.2,684.97L1762.14,685.3L1764.08,682.09L1762.49,681.66L1762.64,681.05L1763.12,681.78L1764.63,680.85L1765.45,681.72L1765.21,680.43L1766.59,677.6L1764.6,676.92L1763.62,678.59L1762.64,678.21L1763.11,678.69L1764.44,676.83L1765.43,676.95L1763.77,676.47L1765.13,676.48L1765.14,675.59L1765.28,676.56L1767.31,676.98L1765.98,674.51L1764.47,674.5L1764.25,673.81L1765.09,674.62L1766.43,673.69L1766.13,674.52L1767.58,676.31L1768.25,675.39L1767.43,673.94L1768.6,675.46L1769.44,674.04L1770.35,674.82L1771.46,673.39L1769.68,672.18L1769.96,671.33L1769.78,672.19L1771.55,673.31L1770.84,675.37L1772.56,675.4L1773.11,671.2L1772.05,669.08L1770.94,668.48L1769.63,669.52L1770.18,668.89L1769.24,669.08L1769.07,667.87L1767.88,667.84L1766.88,666.04L1767.98,667.78L1769.16,667.76L1769.37,668.74L1771.16,667.7L1771.91,668.24L1772.11,667.48L1771.95,668.38L1773.38,669.75L1774.85,668.35L1773.35,670.3L1773.65,673.02L1774.86,673.52L1776.5,670.36L1775.86,667.19L1776.38,666.29L1775.25,666.48L1777.79,665.58L1776.08,666.96L1776.81,670.36L1778.54,669.19L1778.43,672.66L1780.27,672.94L1778.48,673.48L1778.33,677.58L1782.37,678.78L1786.94,677.96L1790.79,679.15L1790.77,681.36ZM1752.89,769.1L1753.96,765.96L1752.54,762.92L1751.94,758.67L1749.38,762.4L1750.1,769.18L1751.39,769.79L1752.89,769.1ZM1752.09,744.2L1750.39,743.73L1751.91,746.64L1752.09,744.2ZM1751.95,741.79L1753.03,741.66L1754.4,736.87L1753.8,735.35L1751.79,736.98L1750.07,736.16L1748.62,737L1750.55,739.23L1751.8,739.29L1752.4,738.48L1751.95,741.79ZM1760.44,702.04L1761.47,699.52L1761.3,693.75L1760.52,692.1L1760.69,686.24L1759.26,685.8L1760.23,686.63L1759.62,688.66L1758.9,687.14L1757.94,687.16L1758.15,686.59L1757.26,687.14L1758.18,690.81L1759.16,690.66L1757.95,691.41L1757.7,692.74L1758.58,693.38L1757.89,695.33L1756.63,695.39L1756.44,697.15L1758.04,700.39L1759.47,699.39L1758.34,700.94L1758.77,701.97L1760.44,702.04ZM1763.35,746.96L1762.29,746.38L1762.12,747.22L1762.94,747.89L1763.35,746.96ZM1777.38,695.34L1777.44,694.1L1773.42,694.08L1774.33,696.14L1776.18,696.31L1777.38,695.34ZM1779.42,689.32L1780.58,688.35L1776.74,687.16L1777.28,688.56L1779.42,689.32ZM1775.27,682.65L1771.47,680.39L1772.69,683.4L1775.27,682.65ZM1777.16,670.75L1777.01,672.11L1777.77,671.99L1777.16,670.75Z" fill-rule="evenodd" fill="#4682b4" fill-opacity="0.471"/>
<polyline points="1790.77,681.36 1787.94,680.59 1786.7,683.37 1790.76,683.08 1790.68,691.86 1789.47,691.82 1788.9,692.87 1789.94,693.4 1790.68,692.74 1789.3,855.93 1709.29,855.28 1711.88,847.62 1715.91,843.62 1715.93,840.25 1717.51,838.25 1718.38,834.49 1720.5,831.16 1721.82,825.94 1721.43,824.73 1719.59,824.5 1718.8,822.52 1713.41,820.85 1718.15,821.69 1720.51,818.17 1723.57,817.2 1724.67,817.96 1726.07,815.97 1730.31,803.67 1732.72,798.89 1734.56,791.07 1737.9,785.46 1737.88,783.99 1734.71,783.5 1735.22,782.34 1733.53,783.23 1733.62,782.09 1737.64,778.7 1738.25,776.64 1741.74,775.08 1740.24,773.46 1741.25,771.61 1740.16,769.7 1742.39,765.81 1747.32,765.41 1744.99,758.75 1744.71,756.08 1745.5,753.63 1744.13,753.02 1743.6,754.44 1740.44,755.78 1737.67,754.62 1740.58,750.56 1740.35,747.7 1741.93,746.98 1745.48,748.3 1747.97,744.6 1749.99,743.96 1746.92,743.12 1746.64,741.9 1745.69,741.97 1745.98,738.95 1748.13,736.67 1746.91,732.63 1743.93,730.02 1745.01,728.67 1746.97,729.04 1747.56,727.1 1749.28,725.44 1748.61,724.34 1749.01,720.71 1751.48,718.46 1750.84,718.07 1751.07,716.46 1752.23,716.42 1749.84,712.91 1752.33,712.51 1753.46,713.52 1753.41,715.48 1754.75,717.1 1754.35,719.2 1753.7,719.42 1754.77,719.89 1757.12,718.82 1754.59,721.27 1754.51,722.68 1755.41,723.14 1753.8,725.28 1754.7,725.65 1753.67,726.11 1754.62,727.42 1754.01,732.46 1756.04,728.13 1756.2,726.01 1757.6,724.16 1756.38,722.7 1757.4,722.27 1757.73,723 1758.21,721.6 1759.45,720.91 1759.8,718.7 1760.93,718.08 1760.71,717 1761.5,716.26 1761.44,713.81 1759.99,713.05 1759.32,713.55 1760.64,711.37 1761.95,710.87 1762.4,708.63 1761.61,706 1759.16,705.75 1758.45,707.22 1757.79,705.34 1755.66,706.24 1755.57,705.29 1753.52,703.52 1754.31,702.87 1753.88,701.62 1754.81,699.75 1754.11,699.07 1754.53,698.2 1753.83,698.35 1754.65,697.45 1753.14,697.29 1755.05,696.01 1754.4,695.07 1755.87,694.37 1756.94,691.55 1756.46,688.54 1754.97,686.63 1755.65,685.67 1756.17,686.28 1757.46,685.62 1757.78,683.23 1758.88,683.85 1759.39,683.01 1759.52,683.59 1760.31,683.19 1760.2,684.97 1762.14,685.3 1764.08,682.09 1762.49,681.66 1762.64,681.05 1763.12,681.78 1764.63,680.85 1765.45,681.72 1765.21,680.43 1766.59,677.6 1764.6,676.92 1763.62,678.59 1762.64,678.21 1763.11,678.69 1764.44,676.83 1765.43,676.95 1763.77,676.47 1765.13,676.48 1765.14,675.59 1765.28,676.56 1767.31,676.98 1765.98,674.51 1764.47,674.5 1764.25,673.81 1765.09,674.62 1766.43,673.69 1766.13,674.52 1767.58,676.31 1768.25,675.39 1767.43,673.94 1768.6,675.46 1769.44,674.04 1770.35,674.82 1771.46,673.39 1769.68,672.18 1769.96,671.33 1769.78,672.19 1771.55,673.31 1770.84,675.37 1772.56,675.4 1773.11,671.2 1772.05,669.08 1770.94,668.48 1769.63,669.52 1770.18,668.89 1769.24,669.08 1769.07,667.87 1767.88,667.84 1766.88,666.04 1767.98,667.78 1769.16,667.76 1769.37,668.74 1771.16,667.7 1771.91,668.24 1772.11,667.48 1771.95,668.38 1773.38,669.75 1774.85,668.35 1773.35,670.3 1773.65,673.02 1774.86,673.52 1776.5,670.36 1775.86,667.19 1776.38,666.29 1775.25,666.48 1777.79,665.58 1776.08,666.96 1776.81,670.36 1778.54,669.19 1778.43,672.66 1780.27,672.94 1778.48,673.48 1778.33,677.58 1782.37,678.78 1786.94,677.96 1790.79,679.15 1790.77,681.36" fill="none" stroke="#1e1e1e" stroke-width="1.27" stroke-linecap="round" stroke-linejoin="round"/>
<polyline points="1752.89,769.1 1753.96,765.96 1752.54,762.92 1751.94,758.67 1749.38,762.4 1750.1,769.18 1751.39,769.79 1752.89,769.1" fill="none" stroke="#1e1e1e" stroke-width="1.27" stroke-linecap="round" stroke-linejoin="round"/>
<polyline points="1752.09,744.2 1750.39,743.73 1751.91,746.64 1752.09,744.2" fill="none" stroke="#1e1e1e" stroke-width="1.27" stroke-linecap="round" stroke-linejoin="round"/>
<polyline points="1751.95,741.79 1753.03,741.66 1754.4,736.87 1753.8,735.35 1751.79,736.98 1750.07,736.16 1748.62,737 1750.55,739.23 1751.8,739.29 1752.4,738.48 1751.95,741.79" fill="none" stroke="#1e1e1e" stroke-width="1.27" stroke-linecap="round" stroke-linejoin="round"/>
<polyline points="1760.44,702.04 1761.47,699.52 1761.3,693.75 1760.52,692.1 1760.69,686.24 1759.26,685.8 1760.23,686.63 1759.62,688.66 1758.9,687.14 1757.94,687.16 1758.15,686.59 1757.26,687.14 1758.18,690.81 1759.16,690.66 1757.95,691.41 1757.7,692.74 1758.58,693.38 1757.89,695.33 1756.63,695.39 1756.44,697.15 1758.04,700.39 1759.47,699.39 1758.34,700.94 1758.77,701.97 1760.44,702.04" fill="none" stroke="#1e1e1e" stroke-width="1.27" stroke-linecap="round" stroke-linejoin="round"/>
<polyline points="1763.35,746.96 1762.29,746.38 1762.12,747.22 1762.94,747.89 1763.35,746.96" fill="none" stroke="#1e1e1e" stroke-width="1.27" stroke-linecap="round" stroke-linejoin="round"/>
<polyline points="1777.38,695.34 1777.44,694.1 1773.42,694.08 1774.33,696.14 1776.18,696.31 1777.38,695.34" fill="none" stroke="#1e1e1e" stroke-width="1.27" stroke-linecap="round" stroke-linejoin="round"/>
<polyline points="1779.42,689.32 1780.58,688.35 1776.74,687.16 1777.28,688.56 1779.42,689.32" fill="none" stroke="#1e1e1e" stroke-width="1.27" stroke-linecap="round" stroke-linejoin="round"/>
<polyline points="1775.27,682.65 1771.47,680.39 1772.69,683.4 1775.27,682.65" fill="none" stroke="#1e1e1e" stroke-width="1.27" stroke-linecap="round" stroke-linejoin="round"/>
<polyline points="1777.16,670.75 1777.01,672.11 1777.77,671.99 1777.16,670.75" fill="none" stroke="#1e1e1e" stroke-width="1.27" stroke-linecap="round" stroke-linejoin="round"/>
<path d="M1971.37,1975.05L1969.34,1971.48L1970.23,1973.34L1968.66,1972.1L1970.05,1973.74L1969.32,1973.57L1968.35,1972.22L1968.3,1972.99L1966.92,1972.52L1964.17,1969.88L1964.84,1969.16L1965.22,1969.73L1965.25,1968.45L1964.36,1967.19L1962.38,1966.61L1962.75,1963.67L1961.11,1963.6L1961.87,1962.84L1961.3,1961.59L1959.83,1960.97L1960.72,1961.21L1961.97,1960.08L1963.31,1956.84L1966.55,1953.69L1968.22,1950.69L1966.74,1948L1965.87,1943.15L1964.94,1943.06L1966.05,1941.13L1967.19,1942.08L1966.29,1939.29L1968.14,1936.25L1967.36,1935.82L1966.9,1936.55L1965.76,1935.77L1967.81,1934.5L1970.22,1934.58L1969.85,1932.38L1969.16,1932.63L1969.11,1929.92L1971.1,1927.24L1969.81,1927.63L1969.62,1926.1L1971.53,1922.89L1971.37,1975.05ZM1967.62,1972.18L1967.2,1971.55L1968.14,1972.5L1968.06,1971.37L1967,1971.21L1967.62,1972.18ZM1969.73,1949.08L1967.02,1945.48L1966.61,1942.8L1966.64,1946.18L1969.06,1949.59L1968.48,1950.06L1969.48,1950.4L1969.73,1949.08ZM1968.66,1937.24L1969.94,1937.21L1969.69,1936.41L1969.17,1936.72L1968.91,1936L1968.66,1937.24Z" fill-rule="evenodd" fill="#4682b4" fill-opacity="0.471"/>
<polyline points="1971.37,1975.05 1969.34,1971.48 1970.23,1973.34 1968.66,1972.1 1970.05,1973.74 1969.32,1973.57 1968.35,1972.22 1968.3,1972.99 1966.92,1972.52 1964.17,1969.88 1964.84,1969.16 1965.22,1969.73 1965.25,1968.45 1964.36,1967.19 1962.38,1966.61 1962.75,1963.67 1961.11,1963.6 1961.87,1962.84 1961.3,1961.59 1959.83,1960.97 1960.72,1961.21 1961.97,1960.08 1963.31,1956.84 1966.55,1953.69 1968.22,1950.69 1966.74,1948 1965.87,1943.15 1964.94,1943.06 1966.05,1941.13 1967.19,1942.08 1966.29,1939.29 1968.14,1936.25 1967.36,1935.82 1966.9,1936.55 1965.76,1935.77 1967.81,1934.5 1970.22,1934.58 1969.85,1932.38 1969.16,1932.63 1969.11,1929.92 1971.1,1927.24 1969.81,1927.63 1969.62,1926.1 1971.53,1922.89 1971.37,1975.05" fill="none" stroke="#1e1e1e" stroke-width="1.27" stroke-linecap="round" stroke-linejoin="round"/>
<polyline points="1967.62,1972.18 1967.2,1971.55 1968.14,1972.5 1968.06,1971.37 1967,1971.21 1967.62,1972.18" fill="none" stroke="#1e1e1e" stroke-width="1.27" stroke-linecap="round" stroke-linejoin="round"/>
<polyline points="1969.73,1949.08 1967.02,1945.48 1966.61,1942.8 1966.64,1946.18 1969.06,1949.59 1968.48,1950.06 1969.48,1950.4 1969.73,1949.08" fill="none" stroke="#1e1e1e" stroke-width="1.27" stroke-linecap="round" stroke-linejoin="round"/>
<polyline points="1968.66,1937.24 1969.94,1937.21 1969.69,1936.41 1969.17,1936.72 1968.91,1936 1968.66,1937.24" fill="none" stroke="#1e1e1e" stroke-width="1.27" stroke-linecap="round" stroke-linejoin="round"/>
<path d="M1971.99,1915.8L1966.86,1915.63L1965.45,1913.67L1965.92,1912.78L1967.57,1914.34L1967.61,1913.24L1962.12,1903.32L1960.81,1903.34L1962.09,1903.98L1959.75,1905.75L1958.61,1908.01L1958.93,1906.58L1958.12,1905.55L1959.39,1904.86L1956.8,1899.16L1959.43,1897.03L1960.59,1899.03L1964.94,1894.57L1968.16,1889.44L1970.04,1881.46L1972.35,1881.18L1971.99,1915.8Z" fill-rule="evenodd" fill="#4682b4" fill-opacity="0.471"/>
<polyline points="1971.99,1915.8 1966.86,1915.63 1965.45,1913.67 1965.92,1912.78 1967.57,1914.34 1967.61,1913.24 1962.12,1903.32 1960.81,1903.34 1962.09,1903.98 1959.75,1905.75 1958.61,1908.01 1958.93,1906.58 1958.12,1905.55 1959.39,1904.86 1956.8,1899.16 1959.43,1897.03 1960.59,1899.03 1964.94,1894.57 1968.16,1889.44 1970.04,1881.46 1972.35,1881.18 1971.99,1915.8" fill="none" stroke="#1e1e1e" stroke-width="1.27" stroke-linecap="round" stroke-linejoin="round"/>
<path d="M1973.8,1743.21L1971.48,1741.86L1970.42,1738.61L1969.49,1738.33L1969.99,1736.78L1969.06,1734.34L1969.98,1732.37L1970.14,1727.63L1969.7,1726.65L1968.78,1727.16L1968.1,1726.11L1969.69,1724.21L1972.93,1723.45L1974.04,1720.61L1973.8,1743.21Z" fill-rule="evenodd" fill="#4682b4" fill-opacity="0.471"/>
<polyline points="1973.8,1743.21 1971.48,1741.86 1970.42,1738.61 1969.49,1738.33 1969.99,1736.78 1969.06,1734.34 1969.98,1732.37 1970.14,1727.63 1969.7,1726.65 1968.78,1727.16 1968.1,1726.11 1969.69,1724.21 1972.93,1723.45 1974.04,1720.61 1973.8,1743.21" fill="none" stroke="#1e1e1e" stroke-width="1.27" stroke-linecap="round" stroke-linejoin="round"/>
<path d="M1974.04,1720.44L1971.74,1717.76L1970.24,1714.18L1966.71,1710.2L1962.71,1715.63L1965.45,1714.53L1965.47,1716.15L1968.71,1716.1L1967.8,1716.7L1968.52,1719.65L1967.55,1721.07L1963.97,1722.98L1960.31,1721.01L1954.47,1721.63L1953,1720.78L1948.67,1709.03L1948.73,1710.14L1947.61,1708.87L1947.22,1709.42L1946.59,1704.81L1941.7,1703.6L1938.36,1700.65L1937.15,1698.3L1936.69,1693.87L1930.81,1699.9L1928.63,1703.59L1931.9,1701.47L1934.58,1701.28L1935.86,1701.66L1936.72,1703.51L1939.13,1703.75L1940.51,1704.99L1940.67,1705.79L1939.37,1705.71L1939.01,1707.43L1936.61,1706.09L1933.57,1706.05L1934.26,1706.14L1934.27,1707.28L1936.9,1707.36L1936.68,1708.37L1937.76,1709.05L1936.21,1708.87L1934.91,1707.66L1933.65,1707.46L1933.41,1708.15L1934.16,1709.22L1935.52,1709.33L1936.69,1713.76L1934.09,1711.67L1934.23,1710.2L1932.66,1709.35L1932.3,1707.91L1932.99,1707.62L1931.91,1707.01L1932.96,1706.55L1928.07,1704.05L1928.27,1702.19L1922.33,1703.65L1921.29,1705.93L1922.25,1704.91L1921.64,1706.6L1922.39,1705.99L1923.41,1707.21L1921.73,1709.91L1922,1707.81L1918.11,1703.39L1917.29,1703.95L1918.84,1706.4L1915.09,1706.85L1913.93,1705.45L1915.58,1701.29L1915.75,1702.27L1917.04,1702.99L1917.57,1702.43L1917.58,1698.62L1916.49,1694.26L1918.98,1690.83L1917.61,1688.27L1913.82,1686.27L1907.98,1685.08L1892.89,1678.9L1891.25,1679.35L1889.08,1682.14L1891.4,1683.71L1893.49,1686.55L1893.59,1688.56L1892.3,1688.51L1893.01,1689.45L1892.37,1693.14L1894.89,1693.68L1896.22,1698.34L1895.59,1698.71L1895.8,1697.36L1894.64,1694.91L1892.2,1694.25L1890.49,1692.41L1889.89,1692.65L1889.9,1696.32L1887.03,1696.94L1886.98,1695.78L1888.9,1695.06L1887.97,1692.7L1891.17,1687.73L1890.77,1685.64L1890.15,1685.94L1889.97,1685.09L1888.05,1684.57L1887.37,1682.85L1890.12,1678.86L1889.16,1677.64L1886.99,1676.91L1885.34,1673.91L1884.06,1673.88L1884.81,1673.07L1883.63,1672.47L1879.87,1665.32L1877.57,1662.71L1871.48,1657.92L1866.75,1657.83L1864.36,1656.49L1862.65,1652.61L1861.47,1651.85L1854.64,1651.8L1852.59,1650.49L1848.37,1651.33L1845.91,1654.43L1844.26,1654.36L1843.13,1653.15L1841.88,1649.83L1843.49,1646.58L1844.94,1646.26L1845.6,1645.21L1848.95,1644.65L1849.93,1642.71L1852.82,1643.35L1856.58,1641.55L1856.43,1638.92L1853.96,1636.14L1850.51,1635.42L1853.77,1635.52L1857.08,1633.82L1858.78,1630.85L1858.94,1627.39L1857.47,1621.99L1852.18,1615.89L1850.79,1609.51L1847.98,1608.39L1846.23,1609L1844.39,1606.5L1844.45,1605.29L1846.45,1603.3L1849.22,1602.84L1850.46,1601.38L1846.85,1598.6L1848.63,1597.13L1849.47,1594.51L1848.95,1592.18L1844.09,1588.77L1845.94,1584.17L1845.77,1581.7L1843.33,1578.6L1840.7,1571.16L1841.02,1567.92L1839.6,1567.13L1838.67,1563.47L1837.35,1562.54L1836.03,1562.85L1832.49,1559.95L1830.21,1561.88L1832.68,1558.78L1833.14,1556.95L1833.04,1559.6L1833.9,1559.95L1833.84,1555.99L1828.94,1549.82L1824.23,1549.85L1821.1,1551.97L1820.88,1551.02L1817.68,1551.29L1816.57,1549.14L1817.08,1546.78L1816.22,1547.69L1815.63,1547.27L1816.95,1545.74L1814.58,1546.87L1813.47,1545.6L1814.48,1545.1L1813.75,1544.61L1812.88,1545.65L1810.47,1545.75L1810.02,1547.1L1807.11,1547.07L1809.19,1545.76L1809.34,1544.42L1810.14,1544.44L1809.11,1543.03L1810.29,1542.15L1809.84,1541.01L1811.72,1542.46L1812.59,1542.09L1811.83,1540.21L1809.01,1539.3L1809.05,1538.64L1810.04,1538.65L1810.26,1537.24L1807.09,1536.73L1808.71,1536.36L1808.41,1535.13L1810.14,1535.47L1811.08,1534.21L1812.73,1534.71L1810.91,1536.04L1811.89,1536.6L1812.43,1536.09L1812.96,1537.14L1813.76,1536.61L1812.93,1539.37L1813.64,1541.3L1815.9,1543.07L1816.35,1541.73L1818,1541.73L1820.78,1546.09L1823.62,1547.16L1824.83,1547.24L1828.23,1542.4L1831.37,1541.66L1833.08,1540.33L1833.71,1538.12L1832.43,1529.97L1832.77,1521.79L1830.79,1520.96L1830.34,1519.83L1829.53,1520.3L1828.99,1519.06L1829.05,1517.94L1831.23,1516.82L1831.51,1515.78L1831.88,1513L1830.97,1511.35L1831.55,1510.93L1831.47,1508.36L1830.96,1504.92L1830.22,1504.67L1826.69,1497.69L1826.36,1488.39L1827.45,1487.81L1827.49,1484.63L1823.47,1482.28L1818.22,1477.34L1815.39,1477.16L1813.5,1475.47L1816.02,1470.82L1815.61,1468.96L1812.85,1468.11L1814.62,1463.53L1812.07,1463.22L1811.77,1460.46L1816.73,1458.83L1815.71,1457.24L1811.05,1455.13L1809.75,1453.4L1809,1448.79L1805.95,1441.09L1806.42,1438.04L1805.19,1437.59L1805.47,1438.96L1804.46,1440.58L1802.57,1441.01L1802.56,1440.12L1799.92,1438.36L1799.19,1435.66L1797.67,1434.37L1797.7,1432.05L1795.82,1426.01L1793.84,1424.57L1792.11,1425.37L1792.35,1425.99L1791.14,1425.8L1788.32,1423.42L1786.87,1420.87L1784.36,1421.44L1784.85,1364.05L1977.77,1365.88L1974.04,1720.44ZM1961.75,1709.68L1961.58,1708.95L1960.51,1709.14L1960.76,1709.89L1961.75,1709.68ZM1952.66,1699.62L1951.71,1700.61L1953.87,1701.45L1953.43,1702.65L1954.22,1703.34L1955.16,1702.4L1956,1703.89L1957.17,1704.06L1955.92,1701.09L1952.66,1699.62ZM1844.1,1577.64L1842.75,1573.42L1842.31,1573.72L1843.39,1574.82L1844.1,1577.64ZM1817.15,1546.56L1819.17,1545.68L1817.21,1544.15L1817.15,1546.56ZM1819.2,1395.05L1820.03,1393.67L1819.14,1394.05L1819.2,1395.05ZM1803.17,1382.79L1804.99,1383.53L1806.75,1387.02L1809.94,1389.36L1810.47,1386.91L1808.21,1384.24L1806.39,1382.72L1804.8,1383.34L1803.17,1382.79ZM1961.21,1708.92L1962.77,1707.81L1961.35,1706.23L1961.21,1708.92Z" fill-rule="evenodd" fill="#4682b4" fill-opacity="0.471"/>
<polyline points="1974.04,1720.44 1971.74,1717.76 1970.24,1714.18 1966.71,1710.2 1962.71,1715.63 1965.45,1714.53 1965.47,1716.15 1968.71,1716.1 1967.8,1716.7 1968.52,1719.65 1967.55,1721.07 1963.97,1722.98 1960.31,1721.01 1954.47,1721.63 1953,1720.78 1948.67,1709.03 1948.73,1710.14 1947.61,1708.87 1947.22,1709.42 1946.59,1704.81 1941.7,1703.6 1938.36,1700.65 1937.15,1698.3 1936.69,1693.87 1930.81,1699.9 1928.63,1703.59 1931.9,1701.47 1934.58,1701.28 1935.86,1701.66 1936.72,1703.51 1939.13,1703.75 1940.51,1704.99 1940.67,1705.79 1939.37,1705.71 1939.01,1707.43 1936.61,1706.09 1933.57,1706.05 1934.26,1706.14 1934.27,1707.28 1936.9,1707.36 1936.68,1708.37 1937.76,1709.05 1936.21,1708.87 1934.91,1707.66 1933.65,1707.46 1933.41,1708.15 1934.16,1709.22 1935.52,1709.33 1936.69,1713.76 1934.09,1711.67 1934.23,1710.2 1932.66,1709.35 1932.3,1707.91 1932.99,1707.62 1931.91,1707.01 1932.96,1706.55 1928.07,1704.05 1928.27,1702.19 1922.33,1703.65 1921.29,1705.93 1922.25,1704.91 1921.64,1706.6 1922.39,1705.99 1923.41,1707.21 1921.73,1709.91 1922,1707.81 1918.11,1703.39 1917.29,1703.95 1918.84,1706.4 1915.09,1706.85 1913.93,1705.45 1915.58,1701.29 1915.75,1702.27 1917.04,1702.99 1917.57,1702.43 1917.58,1698.62 1916.49,1694.26 1918.98,1690.83 1917.61,1688.27 1913.82,1686.27 1907.98,1685.08 1892.89,1678.9 1891.25,1679.35 1889.08,1682.14 1891.4,1683.71 1893.49,1686.55 1893.59,1688.56 1892.3,1688.51 1893.01,1689.45 1892.37,1693.14 1894.89,1693.68 1896.22,1698.34 1895.59,1698.71 1895.8,1697.36 1894.64,1694.91 1892.2,1694.25 1890.49,1692.41 1889.89,1692.65 1889.9,1696.32 1887.03,1696.94 1886.98,1695.78 1888.9,1695.06 1887.97,1692.7 1891.17,1687.73 1890.77,1685.64 1890.15,1685.94 1889.97,1685.09 1888.05,1684.57 1887.37,1682.85 1890.12,1678.86 1889.16,1677.64 1886.99,1676.91 1885.34,1673.91 1884.06,1673.88 1884.81,1673.07 1883.63,1672.47 1879.87,1665.32 1877.57,1662.71 1871.48,1657.92 1866.75,1657.83 1864.36,1656.49 1862.65,1652.61 1861.47,1651.85 1854.64,1651.8 1852.59,1650.49 1848.37,1651.33 1845.91,1654.43 1844.26,1654.36 1843.13,1653.15 1841.88,1649.83 1843.49,1646.58 1844.94,1646.26 1845.6,1645.21 1848.95,1644.65 1849.93,1642.71 1852.82,1643.35 1856.58,1641.55 1856.43,1638.92 1853.96,1636.14 1850.51,1635.42 1853.77,1635.52 1857.08,1633.82 1858.78,1630.85 1858.94,1627.39 1857.47,1621.99 1852.18,1615.89 1850.79,1609.51 1847.98,1608.39 1846.23,1609 1844.39,1606.5 1844.45,1605.29 1846.45,1603.3 1849.22,1602.84 1850.46,1601.38 1846.85,1598.6 1848.63,1597.13 1849.47,1594.51 1848.95,1592.18 1844.09,1588.77 1845.94,1584.17 1845.77,1581.7 1843.33,1578.6 1840.7,1571.16 1841.02,1567.92 1839.6,1567.13 1838.67,1563.47 1837.35,1562.54 1836.03,1562.85 1832.49,1559.95 1830.21,1561.88 1832.68,1558.78 1833.14,1556.95 1833.04,1559.6 1833.9,1559.95 1833.84,1555.99 1828.94,1549.82 1824.23,1549.85 1821.1,1551.97 1820.88,1551.02 1817.68,1551.29 1816.57,1549.14 1817.08,1546.78 1816.22,1547.69 1815.63,1547.27 1816.95,1545.74 1814.58,1546.87 1813.47,1545.6 1814.48,1545.1 1813.75,1544.61 1812.88,1545.65 1810.47,1545.75 1810.02,1547.1 1807.11,1547.07 1809.19,1545.76 1809.34,1544.42 1810.14,1544.44 1809.11,1543.03 1810.29,1542.15 1809.84,1541.01 1811.72,1542.46 1812.59,1542.09 1811.83,1540.21 1809.01,1539.3 1809.05,1538.64 1810.04,1538.65 1810.26,1537.24 1807.09,1536.73 1808.71,1536.36 1808.41,1535.13 1810.14,1535.47 1811.08,1534.21 1812.73,1534.71 1810.91,1536.04 1811.89,1536.6 1812.43,1536.09 1812.96,1537.14 1813.76,1536.61 1812.93,1539.37 1813.64,1541.3 1815.9,1543.07 1816.35,1541.73 1818,1541.73 1820.78,1546.09 1823.62,1547.16 1824.83,1547.24 1828.23,1542.4 1831.37,1541.66 1833.08,1540.33 1833.71,1538.12 1832.43,1529.97 1832.77,1521.79 1830.79,1520.96 1830.34,1519.83 1829.53,1520.3 1828.99,1519.06 1829.05,1517.94 1831.23,1516.82 1831.51,1515.78 1831.88,1513 1830.97,1511.35 1831.55,1510.93 1831.47,1508.36 1830.96,1504.92 1830.22,1504.67 1826.69,1497.69 1826.36,1488.39 1827.45,1487.81 1827.49,1484.63 1823.47,1482.28 1818.22,1477.34 1815.39,1477.16 1813.5,1475.47 1816.02,1470.82 1815.61,1468.96 1812.85,1468.11 1814.62,1463.53 1812.07,1463.22 1811.77,1460.46 1816.73,1458.83 1815.71,1457.24 1811.05,1455.13 1809.75,1453.4 1809,1448.79 1805.95,1441.09 1806.42,1438.04 1805.19,1437.59 1805.47,1438.96 1804.46,1440.58 1802.57,1441.01 1802.56,1440.12 1799.92,1438.36 1799.19,1435.66 1797.67,1434.37 1797.7,1432.05 1795.82,1426.01 1793.84,1424.57 1792.11,1425.37 1792.35,1425.99 1791.14,1425.8 1788.32,1423.42 1786.87,1420.87 1784.36,1421.44 1784.85,1364.05 1977.77,1365.88 1974.04,1720.44" fill="none" stroke="#1e1e1e" stroke-width="1.27" stroke-linecap="round" stroke-linejoin="round"/>
<polyline points="1961.75,1709.68 1961.58,1708.95 1960.51,1709.14 1960.76,1709.89 1961.75,1709.68" fill="none" stroke="#1e1e1e" stroke-width="1.27" stroke-linecap="round" stroke-linejoin="round"/>
<polyline points="1952.66,1699.62 1951.71,1700.61 1953.87,1701.45 1953.43,1702.65 1954.22,1703.34 1955.16,1702.4 1956,1703.89 1957.17,1704.06 1955.92,1701.09 1952.66,1699.62" fill="none" stroke="#1e1e1e" stroke-width="1.27" stroke-linecap="round" stroke-linejoin="round"/>
<polyline points="1844.1,1577.64 1842.75,1573.42 1842.31,1573.72 1843.39,1574.82 1844.1,1577.64" fill="none" stroke="#1e1e1e" stroke-width="1.27" stroke-linecap="round" stroke-linejoin="round"/>
<polyline points="1817.15,1546.56 1819.17,1545.68 1817.21,1544.15 1817.15,1546.56" fill="none" stroke="#1e1e1e" stroke-width="1.27" stroke-linecap="round" stroke-linejoin="round"/>
<polyline points="1819.2,1395.05 1820.03,1393.67 1819.14,1394.05 1819.2,1395.05" fill="none" stroke="#1e1e1e" stroke-width="1.27" stroke-linecap="round" stroke-linejoin="round"/>
<polyline points="1803.17,1382.79 1804.99,1383.53 1806.75,1387.02 1809.94,1389.36 1810.47,1386.91 1808.21,1384.24 1806.39,1382.72 1804.8,1383.34 1803.17,1382.79" fill="none" stroke="#1e1e1e" stroke-width="1.27" stroke-linecap="round" stroke-linejoin="round"/>
<polyline points="1961.21,1708.92 1962.77,1707.81 1961.35,1706.23 1961.21,1708.92" fill="none" stroke="#1e1e1e" stroke-width="1.27" stroke-linecap="round" stroke-linejoin="round"/>
<path d="M1977.77,1366.04L1784.84,1364.21L1785.24,1317.31L1787.3,1315.61L1791.73,1308.66L1791.76,1305.88L1793.61,1304.04L1793.64,1302.57L1799.22,1289.38L1798.08,1286.57L1797.26,1287.21L1796.07,1286.53L1795.22,1284L1795.37,1280.44L1793.78,1277.21L1793.1,1273.13L1796.59,1267.37L1797.15,1264.08L1798.26,1262.81L1798.65,1256.26L1796.5,1257.09L1796.51,1255.44L1792.05,1253.84L1791.04,1252.88L1791.38,1251.72L1788.99,1249.48L1785.82,1248.52L1786.37,1182.99L1788.9,1183.67L1792.73,1182.65L1791.88,1181.18L1788.65,1182.82L1786.38,1182.93L1786.55,1162.6L1787.7,1159.64L1793.1,1153.88L1794.21,1154.16L1795.81,1152.87L1797.65,1144.78L1801.33,1140.33L1804.32,1138.52L1807.25,1138.17L1809.46,1142L1810.87,1141.73L1811.44,1140.05L1813.18,1139.02L1813.06,1137.29L1812.1,1137.04L1813.96,1133.68L1814.16,1131.67L1817.21,1130.49L1818.68,1132.56L1819.42,1132.02L1819.33,1129.23L1818.2,1127.86L1816.92,1122.55L1818.1,1120.57L1817.75,1114.07L1818.98,1111.5L1817.98,1109.06L1818.05,1105.96L1815.91,1105.75L1813.34,1102.34L1810.47,1096.31L1809.03,1088.93L1806.84,1086.86L1805.54,1083.51L1804.81,1084.86L1803.14,1084.73L1800.62,1083.28L1799.77,1084.21L1794.38,1083.14L1790.36,1080.37L1787.24,1080.88L1788.05,984.47L1788.19,986.33L1788.88,985.14L1788.57,983.68L1789.19,984.22L1789.49,987.06L1790.66,989.15L1790.3,992.23L1790.64,992.87L1791.09,992.09L1792.55,992.67L1793.09,995.74L1795.17,997.43L1794.91,999.49L1795.8,1000.94L1795.9,998.56L1794.2,996.38L1794.36,994.11L1795.51,992.76L1795.45,989.1L1790.24,981.65L1792.87,980.96L1793.3,981.76L1792.34,982.74L1793.21,983.11L1794.7,980.41L1796.31,980.36L1797.82,978.22L1799.19,978.63L1799.16,979.36L1795.77,981.74L1794.77,983.93L1796.82,985.67L1798.2,988.32L1798.77,994.36L1800.11,998.96L1802.39,1001.7L1804.37,1007.72L1807.5,1011.46L1809.66,1012.81L1812.5,1012.94L1815.95,1011.5L1822.38,1005.36L1825.2,996.44L1820.61,987.27L1817.68,978.13L1816.95,966.79L1817.34,960.18L1813,949.18L1810.32,948.22L1809.46,948.95L1809.06,953L1810.41,952.79L1811.65,957.16L1813.11,959.37L1812.02,959.12L1812.11,961.14L1810.03,959.39L1809.15,961.49L1808.27,961.03L1807.68,961.57L1807.54,960.07L1806.62,960.09L1807.3,959L1806.44,957.07L1806.23,958.69L1804.64,959.05L1803.85,960.6L1804.57,961.02L1803.05,961.14L1802.88,962.13L1800.9,958.51L1798.98,960L1797.99,959.69L1796.63,961.18L1796.28,960.13L1795.38,960.76L1796.41,958.87L1799.76,957.02L1799.62,954.16L1797.56,950.2L1798.17,946.41L1797.75,941.57L1798.77,937.66L1797.39,936.28L1795.24,935.78L1793.83,930.37L1790.1,925.89L1788.59,920.92L1789.14,855.76L1983.12,857.6L1977.77,1366.04ZM1790.54,1205.24L1788.3,1206.76L1789.53,1208.52L1791.36,1207.74L1790.54,1205.24ZM1807.99,1160.67L1808.4,1161.82L1811.57,1160.84L1813.3,1157.43L1811.14,1157.57L1809.78,1159.02L1810.24,1159.48L1807.99,1160.67ZM1809.06,1157.24L1811.43,1155.99L1811.77,1153.78L1809.53,1155.6L1806.02,1151.42L1804.84,1153.64L1804.43,1156.85L1809.06,1157.24ZM1848.24,1303.11L1851.23,1301.38L1852.17,1299.88L1846.46,1299.18L1848.24,1303.11ZM1856.18,1296.37L1856.66,1295.72L1854.57,1294.26L1854.44,1295.26L1856.18,1296.37ZM1858.12,1295.12L1858.19,1295.71L1859.59,1294.11L1859.42,1293.14L1862.29,1290.15L1864.68,1285.96L1864.11,1284.14L1862.41,1285.68L1862.37,1286.69L1859.9,1288.54L1858.17,1288.46L1857.83,1286.73L1856.36,1286.93L1854.92,1289.35L1855.27,1291.75L1854.57,1293.99L1856.71,1295.43L1858.12,1295.12ZM1856.08,1286.05L1854.66,1285.37L1854.9,1288.36L1856.08,1286.05ZM1814.16,1280.89L1809.17,1279.74L1814.16,1280.89ZM1865.87,1278.03L1865.17,1277.4L1865.04,1279.16L1863.97,1280.31L1865.66,1279.44L1865.18,1279.26L1865.87,1278.03ZM1863.14,1272.66L1864.28,1275.38L1865.35,1273.46L1865.44,1276.17L1868.38,1275.09L1872.75,1266.66L1872.66,1265.82L1872.4,1267.22L1871.6,1266.45L1871.83,1262.9L1874.72,1260.67L1877.79,1254.77L1881.91,1238L1882.61,1227.8L1881.96,1224.95L1880.81,1225.8L1881.09,1226.82L1879.96,1227.26L1878.67,1230.34L1874.85,1233.32L1875.23,1235.65L1871.43,1239.67L1869.47,1244.61L1869.94,1245.42L1868.27,1244.35L1864.27,1245.76L1862.83,1246.61L1862.66,1248.31L1857.36,1251.35L1859.67,1250.53L1860.47,1250.88L1859.86,1251.59L1863.92,1251.42L1863.97,1252.03L1865.52,1251.99L1865.54,1252.64L1862.36,1253.17L1861.36,1254.45L1854.52,1256.68L1847.56,1256.74L1845.74,1257.5L1845.96,1258.95L1845.06,1260.44L1846.71,1261.37L1846.64,1263.72L1845.32,1263.99L1845.42,1264.73L1844.25,1265.32L1838.85,1272.77L1835.19,1275.68L1830.12,1277.38L1828.04,1280.7L1824.58,1279.54L1824.03,1280.31L1828.03,1283.9L1830.1,1287.25L1835,1289.15L1842.01,1289.53L1852.91,1286.15L1852.51,1284.01L1850.6,1284.16L1849.96,1283.36L1849.92,1280.82L1851.06,1278.62L1857.12,1273.49L1863.14,1272.66ZM1841.37,1221.52L1842.1,1220.96L1841.47,1220.22L1841.37,1221.52Z" fill-rule="evenodd" fill="#4682b4" fill-opacity="0.471"/>
<polyline points="1977.77,1366.04 1784.84,1364.21 1785.24,1317.31 1787.3,1315.61 1791.73,1308.66 1791.76,1305.88 1793.61,1304.04 1793.64,1302.57 1799.22,1289.38 1798.08,1286.57 1797.26,1287.21 1796.07,1286.53 1795.22,1284 1795.37,1280.44 1793.78,1277.21 1793.1,1273.13 1796.59,1267.37 1797.15,1264.08 1798.26,1262.81 1798.65,1256.26 1796.5,1257.09 1796.51,1255.44 1792.05,1253.84 1791.04,1252.88 1791.38,1251.72 1788.99,1249.48 1785.82,1248.52 1786.37,1182.99 1788.9,1183.67 1792.73,1182.65 1791.88,1181.18 1788.65,1182.82 1786.38,1182.93 1786.55,1162.6 1787.7,1159.64 1793.1,1153.88 1794.21,1154.16 1795.81,1152.87 1797.65,1144.78 1801.33,1140.33 1804.32,1138.52 1807.25,1138.17 1809.46,1142 1810.87,1141.73 1811.44,1140.05 1813.18,1139.02 1813.06,1137.29 1812.1,1137.04 1813.96,1133.68 1814.16,1131.67 1817.21,1130.49 1818.68,1132.56 1819.42,1132.02 1819.33,1129.23 1818.2,1127.86 1816.92,1122.55 1818.1,1120.57 1817.75,1114.07 1818.98,1111.5 1817.98,1109.06 1818.05,1105.96 1815.91,1105.75 1813.34,1102.34 1810.47,1096.31 1809.03,1088.93 1806.84,1086.86 1805.54,1083.51 1804.81,1084.86 1803.14,1084.73 1800.62,1083.28 1799.77,1084.21 1794.38,1083.14 1790.36,1080.37 1787.24,1080.88 1788.05,984.47 1788.19,986.33 1788.88,985.14 1788.57,983.68 1789.19,984.22 1789.49,987.06 1790.66,989.15 1790.3,992.23 1790.64,992.87 1791.09,992.09 1792.55,992.67 1793.09,995.74 1795.17,997.43 1794.91,999.49 1795.8,1000.94 1795.9,998.56 1794.2,996.38 1794.36,994.11 1795.51,992.76 1795.45,989.1 1790.24,981.65 1792.87,980.96 1793.3,981.76 1792.34,982.74 1793.21,983.11 1794.7,980.41 1796.31,980.36 1797.82,978.22 1799.19,978.63 1799.16,979.36 1795.77,981.74 1794.77,983.93 1796.82,985.67 1798.2,988.32 1798.77,994.36 1800.11,998.96 1802.39,1001.7 1804.37,1007.72 1807.5,1011.46 1809.66,1012.81 1812.5,1012.94 1815.95,1011.5 1822.38,1005.36 1825.2,996.44 1820.61,987.27 1817.68,978.13 1816.95,966.79 1817.34,960.18 1813,949.18 1810.32,948.22 1809.46,948.95 1809.06,953 1810.41,952.79 1811.65,957.16 1813.11,959.37 1812.02,959.12 1812.11,961.14 1810.03,959.39 1809.15,961.49 1808.27,961.03 1807.68,961.57 1807.54,960.07 1806.62,960.09 1807.3,959 1806.44,957.07 1806.23,958.69 1804.64,959.05 1803.85,960.6 1804.57,961.02 1803.05,961.14 1802.88,962.13 1800.9,958.51 1798.98,960 1797.99,959.69 1796.63,961.18 1796.28,960.13 1795.38,960.76 1796.41,958.87 1799.76,957.02 1799.62,954.16 1797.56,950.2 1798.17,946.41 1797.75,941.57 1798.77,937.66 1797.39,936.28 1795.24,935.78 1793.83,930.37 1790.1,925.89 1788.59,920.92 1789.14,855.76 1983.12,857.6 1977.77,1366.04" fill="none" stroke="#1e1e1e" stroke-width="1.27" stroke-linecap="round" stroke-linejoin="round"/>
<polyline points="1790.54,1205.24 1788.3,1206.76 1789.53,1208.52 1791.36,1207.74 1790.54,1205.24" fill="none" stroke="#1e1e1e" stroke-width="1.27" stroke-linecap="round" stroke-linejoin="round"/>
<polyline points="1807.99,1160.67 1808.4,1161.82 1811.57,1160.84 1813.3,1157.43 1811.14,1157.57 1809.78,1159.02 1810.24,1159.48 1807.99,1160.67" fill="none" stroke="#1e1e1e" stroke-width="1.27" stroke-linecap="round" stroke-linejoin="round"/>
<polyline points="1809.06,1157.24 1811.43,1155.99 1811.77,1153.78 1809.53,1155.6 1806.02,1151.42 1804.84,1153.64 1804.43,1156.85 1809.06,1157.24" fill="none" stroke="#1e1e1e" stroke-width="1.27" stroke-linecap="round" stroke-linejoin="round"/>
<polyline points="1848.24,1303.11 1851.23,1301.38 1852.17,1299.88 1846.46,1299.18 1848.24,1303.11" fill="none" stroke="#1e1e1e" stroke-width="1.27" stroke-linecap="round" stroke-linejoin="round"/>
<polyline points="1856.18,1296.37 1856.66,1295.72 1854.57,1294.26 1854.44,1295.26 1856.18,1296.37" fill="none" stroke="#1e1e1e" stroke-width="1.27" stroke-linecap="round" stroke-linejoin="round"/>
<polyline points="1858.12,1295.12 1858.19,1295.71 1859.59,1294.11 1859.42,1293.14 1862.29,1290.15 1864.68,1285.96 1864.11,1284.14 1862.41,1285.68 1862.37,1286.69 1859.9,1288.54 1858.17,1288.46 1857.83,1286.73 1856.36,1286.93 1854.92,1289.35 1855.27,1291.75 1854.57,1293.99 1856.71,1295.43 1858.12,1295.12" fill="none" stroke="#1e1e1e" stroke-width="1.27" stroke-linecap="round" stroke-linejoin="round"/>
<polyline points="1856.08,1286.05 1854.66,1285.37 1854.9,1288.36 1856.08,1286.05" fill="none" stroke="#1e1e1e" stroke-width="1.27" stroke-linecap="round" stroke-linejoin="round"/>
<polyline points="1814.16,1280.89 1809.17,1279.74 1814.16,1280.89" fill="none" stroke="#1e1e1e" stroke-width="1.27" stroke-linecap="round" stroke-linejoin="round"/>
<polyline points="1865.87,1278.03 1865.17,1277.4 1865.04,1279.16 1863.97,1280.31 1865.66,1279.44 1865.18,1279.26 1865.87,1278.03" fill="none" stroke="#1e1e1e" stroke-width="1.27" stroke-linecap="round" stroke-linejoin="round"/>
<polyline points="1863.14,1272.66 1864.28,1275.38 1865.35,1273.46 1865.44,1276.17 1868.38,1275.09 1872.75,1266.66 1872.66,1265.82 1872.4,1267.22 1871.6,1266.45 1871.83,1262.9 1874.72,1260.67 1877.79,1254.77 1881.91,1238 1882.61,1227.8 1881.96,1224.95 1880.81,1225.8 1881.09,1226.82 1879.96,1227.26 1878.67,1230.34 1874.85,1233.32 1875.23,1235.65 1871.43,1239.67 1869.47,1244.61 1869.94,1245.42 1868.27,1244.35 1864.27,1245.76 1862.83,1246.61 1862.66,1248.31 1857.36,1251.35 1859.67,1250.53 1860.47,1250.88 1859.86,1251.59 1863.92,1251.42 1863.97,1252.03 1865.52,1251.99 1865.54,1252.64 1862.36,1253.17 1861.36,1254.45 1854.52,1256.68 1847.56,1256.74 1845.74,1257.5 1845.96,1258.95 1845.06,1260.44 1846.71,1261.37 1846.64,1263.72 1845.32,1263.99 1845.42,1264.73 1844.25,1265.32 1838.85,1272.77 1835.19,1275.68 1830.12,1277.38 1828.04,1280.7 1824.58,1279.54 1824.03,1280.31 1828.03,1283.9 1830.1,1287.25 1835,1289.15 1842.01,1289.53 1852.91,1286.15 1852.51,1284.01 1850.6,1284.16 1849.96,1283.36 1849.92,1280.82 1851.06,1278.62 1857.12,1273.49 1863.14,1272.66" fill="none" stroke="#1e1e1e" stroke-width="1.27" stroke-linecap="round" stroke-linejoin="round"/>
<polyline points="1841.37,1221.52 1842.1,1220.96 1841.47,1220.22 1841.37,1221.52" fill="none" stroke="#1e1e1e" stroke-width="1.27" stroke-linecap="round" stroke-linejoin="round"/>
<path d="M1983.12,857.76L1789.14,855.92L1790.51,692.88L1791.62,691.89L1790.52,691.85L1790.6,683.09L1794.74,683.5L1795.31,684.29L1796.15,683.63L1795.27,681.39L1793.48,682.1L1790.61,681.32L1790.63,679.1L1792.94,679.8L1796.02,679.23L1794.51,673.3L1795.26,672.6L1794.38,673.15L1793.85,671.39L1794.71,667.54L1795.78,668.6L1799.97,665.43L1801.97,666.6L1802.27,669.28L1804.44,668.28L1805.43,666.13L1805.34,663.77L1806.6,662.54L1806.42,658.98L1808.41,653.48L1809.99,649.85L1813.29,647L1813.23,644.24L1813.71,642.7L1815.2,641.68L1816.27,639.22L1815.89,638.27L1816.78,638.87L1816.59,638.23L1817.75,638.46L1818.52,637.64L1818.94,639.73L1819.8,639.54L1819.85,641.65L1820.83,641.54L1822.82,633L1831.83,611.32L1834.69,599.52L1845.94,579.45L1845.47,576.42L1847.5,575.04L1848.12,573.37L1849.63,573.58L1851.28,572.58L1856.37,565.9L1855.51,564.4L1855.84,563.1L1862.25,555.49L1864.68,551.46L1874.52,530.51L1877.39,519.59L1880.82,511.23L1880.49,510.39L1882.3,507.37L1881.47,504.02L1881.91,499.49L1880.72,496.22L1883.08,494.38L1888.39,483.53L1892.99,469.94L1900.64,454.58L1900.38,451.46L1902.08,451.16L1907.54,446.37L1908.76,446.5L1909.05,445.55L1911.07,445.03L1911.66,443.82L1916.27,441.75L1920.01,438.73L1926.96,434.89L1929.53,431.25L1929.14,430.4L1930.78,427.15L1929.86,425.8L1930.36,421.23L1929.2,417.44L1932.61,412.13L1932.48,410.45L1933.72,410.39L1936.42,405.39L1935.65,397.02L1936.52,395.13L1938.74,393.44L1938.28,389.46L1940,387.21L1942.73,386.19L1942.92,384.01L1944.38,382.11L1947.64,381.06L1949.66,379.23L1950.34,379.94L1950.98,378.64L1950.51,376.71L1949.11,377.03L1946.96,379.38L1943.68,379.4L1942.46,377.28L1940.2,375.94L1938.59,372.96L1937.41,372.76L1937.32,370.94L1937.92,370.63L1937.19,367.63L1938.75,362.1L1938.42,356.45L1941.08,348.62L1941.01,346.06L1988.49,346.55L1983.12,857.76ZM1833.6,828.45L1836.22,828.73L1836.16,831.73L1838.02,831.3L1839.08,832.67L1839.02,829.31L1840.37,827.35L1839.83,826.2L1839.53,826.86L1838.1,825.58L1836.85,826.42L1836.45,825.43L1836.26,826.55L1834.46,824.9L1833.8,826.34L1832.48,825.21L1833.73,823.91L1833.16,821.79L1832.88,822.94L1832.29,823.03L1832.49,822.38L1831.72,823.45L1830.97,823.17L1831.76,822.17L1830.19,819.04L1828.97,820.2L1827.55,818.77L1826.93,819.34L1824.94,819.02L1827.87,822.11L1828.43,823.95L1829.9,823.84L1830.92,828.02L1832.14,826.9L1832.92,827.31L1832.99,829.23L1833.6,828.45ZM1824.71,818.6L1825.57,818.34L1824.17,816.49L1823.57,817.17L1824.71,818.6ZM1833.15,811.41L1831.18,812.28L1831.5,813.04L1833.65,813.05L1835.59,814.95L1836.25,813.97L1833.15,811.41ZM1829.91,789.28L1832.33,787.97L1832.13,786.87L1831.26,786.95L1829.91,789.28ZM1837.54,772.12L1839.29,768.3L1837.7,769.33L1837.54,772.12ZM1839.13,764.83L1837.37,764.3L1836.99,761.42L1836.28,763.44L1837.44,765.23L1836.94,767.33L1839.13,764.83ZM1838.11,759.26L1840.89,752.65L1842.6,745.52L1841.82,745.55L1839.39,750.24L1836.94,759.07L1837.29,761.03L1837.67,760.15L1838.45,760.6L1838.99,760.04L1838.11,759.26ZM1840.5,826.61L1842.54,829.5L1842,827.59L1840.5,826.61ZM1867.84,810.18L1868.14,807.68L1866.4,806.69L1867.54,803.96L1866.82,803.23L1867.73,803.51L1868.23,805.45L1868.99,803.68L1870.28,802.98L1873.4,794.35L1872.81,792.42L1874.58,789.9L1874.32,788.58L1876.52,782.77L1876.09,781.12L1877.17,778.66L1876.24,776.78L1877.51,774.69L1878.64,765.29L1875.33,764.24L1873.95,771.04L1871.69,770.79L1871.9,769.74L1870.92,769.42L1872.54,766.95L1871.4,763.77L1873.99,759.36L1872.76,755.28L1874.32,749.44L1873.33,748.02L1874.45,747.79L1875.94,746.01L1876.17,747.18L1877.37,747.15L1878.4,749.07L1879.34,748.14L1879.41,749.08L1881.12,741.36L1880.46,734.66L1881.07,726.88L1879.99,724.39L1878.88,724.03L1878.58,727.52L1876.32,730.75L1876.55,735.76L1875.02,735.31L1874.23,736.4L1875.75,731.83L1875.02,731.26L1875.87,728.38L1875.31,727.82L1874.44,728.18L1874.94,730.34L1873.76,730.95L1873.9,732.86L1870.16,731.08L1869.41,733.33L1870.36,735.52L1871.31,735.82L1870.4,737.61L1870.56,739.55L1872.79,741.67L1870.74,741.86L1869.46,740.24L1869.9,738.51L1867.34,737.31L1865.38,733.37L1863.1,733.29L1862.5,734.68L1861.68,734.7L1862.16,732.8L1863.24,732.84L1863.4,732.18L1860.8,731.03L1857.97,727.85L1854.28,726.84L1853.05,730.17L1853.21,728.09L1849.36,727.29L1847.88,725.47L1846.28,719.46L1845.12,721.8L1845.52,724.58L1844.46,736.42L1845.44,736.06L1846.7,736.97L1846.26,734.56L1847.34,738.05L1848.15,737.54L1848.47,738.95L1849.23,738.88L1849.71,739.94L1850.8,739.52L1851.49,741.11L1851.12,740.41L1848.98,740.77L1848.71,739.61L1847.4,739.97L1847.22,740.87L1845.03,740.88L1845.89,744.32L1845.41,745.01L1847.36,745.78L1848.16,747.86L1847.66,750.26L1846.83,750.49L1846.35,749.57L1845.24,751.86L1843.8,752.01L1850.08,754.19L1850.72,755.14L1851.83,754.69L1852.93,757.04L1854.8,757.54L1850.84,758.16L1850.91,756.85L1850.2,757.54L1849.16,756.92L1849.06,758.73L1848.04,758.87L1848.2,761.07L1846.37,762.95L1848.71,765.49L1845.96,766.29L1846.69,767.76L1846.33,768.74L1851.79,771.52L1850.89,775.99L1854.41,773.17L1854.86,770.48L1856.53,770.27L1857.58,773.11L1855.39,776.27L1857.06,775.9L1857.75,777.65L1855.07,778.42L1855.81,779.85L1853.66,781.6L1853.08,780.51L1852.14,783.09L1851.66,781.62L1849.84,782.44L1849.67,781.43L1848.06,782.13L1846.86,781.25L1846.61,782.58L1843.97,783.13L1842.23,781.92L1842.32,780.01L1840.9,778.44L1839.5,778.51L1840,781.37L1844.07,783.73L1848.97,783.41L1852.36,786.53L1856.57,787.99L1855.89,787.92L1855.6,788.99L1853.48,788.33L1850.79,789.84L1851.65,790.87L1850.41,791.7L1846.53,790.31L1847.11,794.15L1847.91,795.13L1849.68,795.15L1850.32,796L1851.48,795.57L1852.03,796.59L1851.46,795.76L1850.17,796.46L1848.46,795.53L1846.47,796.83L1846.91,795.69L1845.15,797.23L1842.83,795.91L1840.46,796.76L1842.7,799.28L1843.56,802.32L1845.35,803.89L1842.14,806.16L1841.85,805.24L1840.97,805.2L1840.48,802.32L1838.44,806.43L1838.01,814.32L1839.22,814.63L1838.83,815.19L1839.84,816.12L1838.05,815.07L1836.31,815.85L1836.1,817.91L1837.88,820.74L1836.76,821.1L1837.35,823.24L1838.42,823.57L1842.36,822.15L1844.9,822.52L1847.98,824.76L1848.74,827.07L1849.52,827.18L1851.04,826.41L1851.08,825.62L1848.82,823.56L1850.47,822.97L1851.39,824.41L1850.77,821.98L1852.54,821.78L1852.4,823.15L1854.52,825.41L1852.6,826.9L1852.21,826.15L1852.22,829.47L1852.88,829.44L1852.67,830.41L1853.42,830.32L1853.22,828.18L1856.34,826.47L1855.97,824.34L1857.08,824.3L1857.38,825.03L1859.02,824.28L1865.59,816.43L1864.96,812.74L1867.58,812.1L1867.27,811.43L1868.43,810.47L1867.84,810.18ZM1841.74,770.04L1843.23,769.48L1841.78,768.21L1840.77,770.67L1841.27,771.23L1841.74,770.04ZM1844.9,769.6L1845.14,768.52L1843.76,768.94L1844.9,769.6ZM1874,761.95L1873.35,763.43L1874.78,762.92L1875.11,763.63L1878.57,763.96L1880.1,757.95L1879.95,756.44L1878.65,756.82L1877.33,753.94L1877.92,753.81L1877.96,751.92L1875.87,755.26L1876.09,756.04L1877.26,755.73L1876.39,757.09L1877.28,756.93L1876.68,757.47L1877.44,757.78L1877.47,758.85L1874.95,761.91L1874,761.95ZM1841.47,741.64L1842.59,745.05L1843.39,744.63L1842.97,742.79L1844.8,737L1843.83,737.01L1841.47,741.64ZM1867.59,732.91L1868.6,731.54L1866.87,731.75L1867.59,732.91Z" fill-rule="evenodd" fill="#4682b4" fill-opacity="0.471"/>
<polyline points="1983.12,857.76 1789.14,855.92 1790.51,692.88 1791.62,691.89 1790.52,691.85 1790.6,683.09 1794.74,683.5 1795.31,684.29 1796.15,683.63 1795.27,681.39 1793.48,682.1 1790.61,681.32 1790.63,679.1 1792.94,679.8 1796.02,679.23 1794.51,673.3 1795.26,672.6 1794.38,673.15 1793.85,671.39 1794.71,667.54 1795.78,668.6 1799.97,665.43 1801.97,666.6 1802.27,669.28 1804.44,668.28 1805.43,666.13 1805.34,663.77 1806.6,662.54 1806.42,658.98 1808.41,653.48 1809.99,649.85 1813.29,647 1813.23,644.24 1813.71,642.7 1815.2,641.68 1816.27,639.22 1815.89,638.27 1816.78,638.87 1816.59,638.23 1817.75,638.46 1818.52,637.64 1818.94,639.73 1819.8,639.54 1819.85,641.65 1820.83,641.54 1822.82,633 1831.83,611.32 1834.69,599.52 1845.94,579.45 1845.47,576.42 1847.5,575.04 1848.12,573.37 1849.63,573.58 1851.28,572.58 1856.37,565.9 1855.51,564.4 1855.84,563.1 1862.25,555.49 1864.68,551.46 1874.52,530.51 1877.39,519.59 1880.82,511.23 1880.49,510.39 1882.3,507.37 1881.47,504.02 1881.91,499.49 1880.72,496.22 1883.08,494.38 1888.39,483.53 1892.99,469.94 1900.64,454.58 1900.38,451.46 1902.08,451.16 1907.54,446.37 1908.76,446.5 1909.05,445.55 1911.07,445.03 1911.66,443.82 1916.27,441.75 1920.01,438.73 1926.96,434.89 1929.53,431.25 1929.14,430.4 1930.78,427.15 1929.86,425.8 1930.36,421.23 1929.2,417.44 1932.61,412.13 1932.48,410.45 1933.72,410.39 1936.42,405.39 1935.65,397.02 1936.52,395.13 1938.74,393.44 1938.28,389.46 1940,387.21 1942.73,386.19 1942.92,384.01 1944.38,382.11 1947.64,381.06 1949.66,379.23 1950.34,379.94 1950.98,378.64 1950.51,376.71 1949.11,377.03 1946.96,379.38 1943.68,379.4 1942.46,377.28 1940.2,375.94 1938.59,372.96 1937.41,372.76 1937.32,370.94 1937.92,370.63 1937.19,367.63 1938.75,362.1 1938.42,356.45 1941.08,348.62 1941.01,346.06 1988.49,346.55 1983.12,857.76" fill="none" stroke="#1e1e1e" stroke-width="1.27" stroke-linecap="round" stroke-linejoin="round"/>
<polyline points="1833.6,828.45 1836.22,828.73 1836.16,831.73 1838.02,831.3 1839.08,832.67 1839.02,829.31 1840.37,827.35 1839.83,826.2 1839.53,826.86 1838.1,825.58 1836.85,826.42 1836.45,825.43 1836.26,826.55 1834.46,824.9 1833.8,826.34 1832.48,825.21 1833.73,823.91 1833.16,821.79 1832.88,822.94 1832.29,823.03 1832.49,822.38 1831.72,823.45 1830.97,823.17 1831.76,822.17 1830.19,819.04 1828.97,820.2 1827.55,818.77 1826.93,819.34 1824.94,819.02 1827.87,822.11 1828.43,823.95 1829.9,823.84 1830.92,828.02 1832.14,826.9 1832.92,827.31 1832.99,829.23 1833.6,828.45" fill="none" stroke="#1e1e1e" stroke-width="1.27" stroke-linecap="round" stroke-linejoin="round"/>
<polyline points="1824.71,818.6 1825.57,818.34 1824.17,816.49 1823.57,817.17 1824.71,818.6" fill="none" stroke="#1e1e1e" stroke-width="1.27" stroke-linecap="round" stroke-linejoin="round"/>
<polyline points="1833.15,811.41 1831.18,812.28 1831.5,813.04 1833.65,813.05 1835.59,814.95 1836.25,813.97 1833.15,811.41" fill="none" stroke="#1e1e1e" stroke-width="1.27" stroke-linecap="round" stroke-linejoin="round"/>
<polyline points="1829.91,789.28 1832.33,787.97 1832.13,786.87 1831.26,786.95 1829.91,789.28" fill="none" stroke="#1e1e1e" stroke-width="1.27" stroke-linecap="round" stroke-linejoin="round"/>
<polyline points="1837.54,772.12 1839.29,768.3 1837.7,769.33 1837.54,772.12" fill="none" stroke="#1e1e1e" stroke-width="1.27" stroke-linecap="round" stroke-linejoin="round"/>
<polyline points="1839.13,764.83 1837.37,764.3 1836.99,761.42 1836.28,763.44 1837.44,765.23 1836.94,767.33 1839.13,764.83" fill="none" stroke="#1e1e1e" stroke-width="1.27" stroke-linecap="round" stroke-linejoin="round"/>
<polyline points="1838.11,759.26 1840.89,752.65 1842.6,745.52 1841.82,745.55 1839.39,750.24 1836.94,759.07 1837.29,761.03 1837.67,760.15 1838.45,760.6 1838.99,760.04 1838.11,759.26" fill="none" stroke="#1e1e1e" stroke-width="1.27" stroke-linecap="round" stroke-linejoin="round"/>
<polyline points="1840.5,826.61 1842.54,829.5 1842,827.59 1840.5,826.61" fill="none" stroke="#1e1e1e" stroke-width="1.27" stroke-linecap="round" stroke-linejoin="round"/>
<polyline points="1867.84,810.18 1868.14,807.68 1866.4,806.69 1867.54,803.96 1866.82,803.23 1867.73,803.51 1868.23,805.45 1868.99,803.68 1870.28,802.98 1873.4,794.35 1872.81,792.42 1874.58,789.9 1874.32,788.58 1876.52,782.77 1876.09,781.12 1877.17,778.66 1876.24,776.78 1877.51,774.69 1878.64,765.29 1875.33,764.24 1873.95,771.04 1871.69,770.79 1871.9,769.74 1870.92,769.42 1872.54,766.95 1871.4,763.77 1873.99,759.36 1872.76,755.28 1874.32,749.44 1873.33,748.02 1874.45,747.79 1875.94,746.01 1876.17,747.18 1877.37,747.15 1878.4,749.07 1879.34,748.14 1879.41,749.08 1881.12,741.36 1880.46,734.66 1881.07,726.88 1879.99,724.39 1878.88,724.03 1878.58,727.52 1876.32,730.75 1876.55,735.76 1875.02,735.31 1874.23,736.4 1875.75,731.83 1875.02,731.26 1875.87,728.38 1875.31,727.82 1874.44,728.18 1874.94,730.34 1873.76,730.95 1873.9,732.86 1870.16,731.08 1869.41,733.33 1870.36,735.52 1871.31,735.82 1870.4,737.61 1870.56,739.55 1872.79,741.67 1870.74,741.86 1869.46,740.24 1869.9,738.51 1867.34,737.31 1865.38,733.37 1863.1,733.29 1862.5,734.68 1861.68,734.7 1862.16,732.8 1863.24,732.84 1863.4,732.18 1860.8,731.03 1857.97,727.85 1854.28,726.84 1853.05,730.17 1853.21,728.09 1849.36,727.29 1847.88,725.47 1846.28,719.46 1845.12,721.8 1845.52,724.58 1844.46,736.42 1845.44,736.06 1846.7,736.97 1846.26,734.56 1847.34,738.05 1848.15,737.54 1848.47,738.95 1849.23,738.88 1849.71,739.94 1850.8,739.52 1851.49,741.11 1851.12,740.41 1848.98,740.77 1848.71,739.61 1847.4,739.97 1847.22,740.87 1845.03,740.88 1845.89,744.32 1845.41,745.01 1847.36,745.78 1848.16,747.86 1847.66,750.26 1846.83,750.49 1846.35,749.57 1845.24,751.86 1843.8,752.01 1850.08,754.19 1850.72,755.14 1851.83,754.69 1852.93,757.04 1854.8,757.54 1850.84,758.16 1850.91,756.85 1850.2,757.54 1849.16,756.92 1849.06,758.73 1848.04,758.87 1848.2,761.07 1846.37,762.95 1848.71,765.49 1845.96,766.29 1846.69,767.76 1846.33,768.74 1851.79,771.52 1850.89,775.99 1854.41,773.17 1854.86,770.48 1856.53,770.27 1857.58,773.11 1855.39,776.27 1857.06,775.9 1857.75,777.65 1855.07,778.42 1855.81,779.85 1853.66,781.6 1853.08,780.51 1852.14,783.09 1851.66,781.62 1849.84,782.44 1849.67,781.43 1848.06,782.13 1846.86,781.25 1846.61,782.58 1843.97,783.13 1842.23,781.92 1842.32,780.01 1840.9,778.44 1839.5,778.51 1840,781.37 1844.07,783.73 1848.97,783.41 1852.36,786.53 1856.57,787.99 1855.89,787.92 1855.6,788.99 1853.48,788.33 1850.79,789.84 1851.65,790.87 1850.41,791.7 1846.53,790.31 1847.11,794.15 1847.91,795.13 1849.68,795.15 1850.32,796 1851.48,795.57 1852.03,796.59 1851.46,795.76 1850.17,796.46 1848.46,795.53 1846.47,796.83 1846.91,795.69 1845.15,797.23 1842.83,795.91 1840.46,796.76 1842.7,799.28 1843.56,802.32 1845.35,803.89 1842.14,806.16 1841.85,805.24 1840.97,805.2 1840.48,802.32 1838.44,806.43 1838.01,814.32 1839.22,814.63 1838.83,815.19 1839.84,816.12 1838.05,815.07 1836.31,815.85 1836.1,817.91 1837.88,820.74 1836.76,821.1 1837.35,823.24 1838.42,823.57 1842.36,822.15 1844.9,822.52 1847.98,824.76 1848.74,827.07 1849.52,827.18 1851.04,826.41 1851.08,825.62 1848.82,823.56 1850.47,822.97 1851.39,824.41 1850.77,821.98 1852.54,821.78 1852.4,823.15 1854.52,825.41 1852.6,826.9 1852.21,826.15 1852.22,829.47 1852.88,829.44 1852.67,830.41 1853.42,830.32 1853.22,828.18 1856.34,826.47 1855.97,824.34 1857.08,824.3 1857.38,825.03 1859.02,824.28 1865.59,816.43 1864.96,812.74 1867.58,812.1 1867.27,811.43 1868.43,810.47 1867.84,810.18" fill="none" stroke="#1e1e1e" stroke-width="1.27" stroke-linecap="round" stroke-linejoin="round"/>
<polyline points="1841.74,770.04 1843.23,769.48 1841.78,768.21 1840.77,770.67 1841.27,771.23 1841.74,770.04" fill="none" stroke="#1e1e1e" stroke-width="1.27" stroke-linecap="round" stroke-linejoin="round"/>
<polyline points="1844.9,769.6 1845.14,768.52 1843.76,768.94 1844.9,769.6" fill="none" stroke="#1e1e1e" stroke-width="1.27" stroke-linecap="round" stroke-linejoin="round"/>
<polyline points="1874,761.95 1873.35,763.43 1874.78,762.92 1875.11,763.63 1878.57,763.96 1880.1,757.95 1879.95,756.44 1878.65,756.82 1877.33,753.94 1877.92,753.81 1877.96,751.92 1875.87,755.26 1876.09,756.04 1877.26,755.73 1876.39,757.09 1877.28,756.93 1876.68,757.47 1877.44,757.78 1877.47,758.85 1874.95,761.91 1874,761.95" fill="none" stroke="#1e1e1e" stroke-width="1.27" stroke-linecap="round" stroke-linejoin="round"/>
<polyline points="1841.47,741.64 1842.59,745.05 1843.39,744.63 1842.97,742.79 1844.8,737 1843.83,737.01 1841.47,741.64" fill="none" stroke="#1e1e1e" stroke-width="1.27" stroke-linecap="round" stroke-linejoin="round"/>
<polyline points="1867.59,732.91 1868.6,731.54 1866.87,731.75 1867.59,732.91" fill="none" stroke="#1e1e1e" stroke-width="1.27" stroke-linecap="round" stroke-linejoin="round"/>
<path d="M1988.49,346.71L1941.02,346.22L1940.95,343.77L1942.9,336.6L1941.75,335.69L1948.36,325.26L1956.05,316.53L1968.63,308.34L1970.49,306.24L1989,298.53L1988.49,346.71Z" fill-rule="evenodd" fill="#4682b4" fill-opacity="0.471"/>
<polyline points="1988.49,346.71 1941.02,346.22 1940.95,343.77 1942.9,336.6 1941.75,335.69 1948.36,325.26 1956.05,316.53 1968.63,308.34 1970.49,306.24 1989,298.53 1988.49,346.71" fill="none" stroke="#1e1e1e" stroke-width="1.27" stroke-linecap="round" stroke-linejoin="round"/>
</svg>
