<?xml version="1.0" encoding="UTF-8" standalone="no"?>
<svg xmlns="http://www.w3.org/2000/svg" width="1115" height="2000" viewBox="0 0 1115 2000">
<rect width="1115" height="2000" fill="#ffffff"/>
<polyline points="897.83,1044.96 906.63,1043.32 909.83,1043.77" fill="none" stroke="#1e1e1e" stroke-width="1.14" stroke-linecap="round" stroke-linejoin="round"/>
<polyline points="960.24,1086.48 959.24,1081.73 949.86,1075.12 945.97,1068.43 936.95,1067.14 911.78,1046.15 900.71,1032.17 847.83,978.51 839.92,976.37" fill="none" stroke="#1e1e1e" stroke-width="1.14" stroke-linecap="round" stroke-linejoin="round"/>
<polyline points="960.49,1086.39 962.85,1089.88 967.36,1091.53 969.65,1093.99 971.95,1100.54 974.9,1105.51 976.25,1105.87 977.65,1105.14 979.66,1102.68 982.69,1102.61 986.32,1107.76 990.64,1111.76 990.56,1114.72 982.02,1126.41 983.02,1133.99 987.27,1138.79 988.06,1145.96 987.76,1147.85 983.89,1151.48 983.82,1153.55 991.38,1172.99 992.74,1178.77 995.42,1181.52 1003.25,1186.36 1005.31,1190.31" fill="none" stroke="#1e1e1e" stroke-width="1.14" stroke-linecap="round" stroke-linejoin="round"/>
<polyline points="692.92,272.91 695.55,271.32 702.42,269.64 706.4,267.27 711.26,259.56 718.89,253.26 719.66,250.95" fill="none" stroke="#1e1e1e" stroke-width="1.14" stroke-linecap="round" stroke-linejoin="round"/>
<polyline points="772.12,121.93 768.34,126.54 766.24,127.95 756.53,131.67 755.06,133.64 753.55,143.86 750.53,146.06 741.65,157.98 738.02,159.28 727.82,155.02 724.05,154.88 720.36,155.86 717.13,157.86 715.29,161.3 714.5,166.38 714.9,171.37 716.54,174.52 722.86,177.62 724.06,179.74 722.47,186.82 723.65,190.73 731.88,203.11 732.14,208.3 730.09,212.32 721.86,217.23 718.6,223.89 717.22,234.01 717.53,236.88 719.44,239.68 719.7,251.14" fill="none" stroke="#1e1e1e" stroke-width="1.14" stroke-linecap="round" stroke-linejoin="round"/>
<polyline points="758.62,327.02 756.26,323.3 754.8,323.88 752.17,328.85 749.45,329.68 748.31,328.98 747.27,326.04 749.31,320.83 749.02,319.89 747.3,319.39 745.98,319.69 746.98,322.64 744.27,322.9 738.81,320.18 734.93,319.98 732.46,322.56 729.5,322.69 728.57,324.87 723.82,326.02 722.07,328.8 720.69,329.13 719.04,328.28 716.47,324.88 714.61,324.23 711.26,327.28 704.5,326 697.97,327.9 698.11,323.33 701.19,322.85 701.94,320.73 696.12,318.57 694.5,319.07 694.36,315.35 689.56,314.43 688.8,310.03 685.35,308.57 686.07,307.47 690.79,307.44 691.93,306.04 687.17,302.92 687.87,301.43 692,299.14 692,297.06 690.76,296.59 688.53,297.19 688.74,291.84 686.23,281.67 686.18,278.21 690.06,276.14 692.92,272.91" fill="none" stroke="#1e1e1e" stroke-width="1.14" stroke-linecap="round" stroke-linejoin="round"/>
<polyline points="623.03,838.56 631.35,828.12 630.96,822.25 633.73,820.56 635.29,814.92 637.04,815.89 640.33,812.82 643.3,808.6 645.34,803.5 645.72,797.75 643.09,789.15 648.3,782.24 649.27,777.75 649.77,759.02 651.3,755.18 653.6,754.46 654.38,747.05 656.41,741.69 667.4,729.78 669.22,730.68 668.19,727.98 669.98,725.26 670.41,717.91 672.3,715.31 677.78,711.54 682.86,711.85 687.43,710.43 693.57,705.07 697.13,700.63 698.53,701.39 698.97,698.93 701.38,698.81 703.97,693.38 704.22,694.41 706.54,693.3 708.31,694.35 711.56,691.76 715.35,690.63 718.36,692.42 721.47,690.81 722.3,691.57 729.2,691.25 730.13,689.19 731.11,689.15 737.03,693.21 743.63,692.28 746.64,685.86 749.25,686.84 753.66,683.2 754.54,684.17 757.13,681.28 758.89,684.97 760.64,684.96 763.23,683.14 762.87,685.78 765,687.63 766.81,686.73 766.81,687.62 767.68,687.62 767.68,686.72 768.55,686.72 771.21,694 774.19,693.33 776.89,696.9 779.06,696.65 779.58,698.32 782.01,699.6 782.65,701.14 784.27,699.78 787.39,701.11 788.61,700.66 790.1,698.72 796.61,695.62 799.76,697.19 801.75,696.49 802.72,697.3 801.27,698.56 802.46,699.66 804.61,699.57 806.11,697.27 805.24,697.28 805.23,696.46 807.73,697.26 809.6,698.15 811.3,700.48 813.19,700.92 813.99,702.71 816.67,702.68 821.05,704.46 829.72,699.79 834.07,692.53 836.52,697.73 840.47,693.52 845.15,693.6 846.25,691.53 848.6,691.78 851.18,687.94 853.26,687.85 855.09,681.76 857.52,680.53 861.1,680.48 862.78,679.44 863.69,679.63 864.11,681.73 865.66,683.07 869.83,683.26 869.01,685.24 870.23,685.87 874.18,684.86 874.31,686.53 875.43,687.34 883.56,687.61 885,688.31 887.02,693.35 894.88,696.36 896.93,695.63 898.35,698.02 903.03,701.2 904.66,704.08 908.41,705.43 910.3,710.82 911.1,710.81 912.82,708.53 916.02,709.9 922.52,714.39 926.81,715.02 926.54,718.77 936.36,722.75 944.52,720.43 949.21,721.18 963.79,721.32 968.07,722.85 970.63,720.95 971.49,717.8 968.31,717.39 967.12,716.47 978.24,708.55 982.79,708.55 980.1,710.89 980.11,711.88 983.56,712.19 986.28,710.81 996.18,708.35 1006.94,703.06 1020.95,698.99 1028.17,698.44 1032.53,699.41 1033.91,703.68 1036.79,707.21 1038.89,708.09 1041.19,706.88 1044.67,702.6 1049.87,701.05 1053.31,698.74 1057.95,699.74 1062.36,703.45 1063.48,703.45 1065.47,698.48 1069.02,696.75" fill="none" stroke="#1e1e1e" stroke-width="1.14" stroke-linecap="round" stroke-linejoin="round"/>
<polyline points="546.76,561.51 545.77,563.42 546.93,564.52 554.13,565.15 559.57,569.71 559.48,572.07 557.24,575.05 557.14,577.45 559.04,581.28 562.74,582.57 569.9,582.27 570.35,583.56 569.55,589.21 572.12,592.01 577.34,593.11 583.43,599.51 582.05,601.48 581.24,608.62 582.88,613.94 582.49,615.92 583.85,616.97 586.05,623.06 585.56,625.56 586.25,627.67 589.09,630.36 590.67,636.24 592.93,635.77 596.7,639.83 598.23,639.38 599.98,645.69 602.96,646.16 613.03,655.68 617.5,652.59 621.78,652.06 621.88,651.19 622.65,651.07 625.27,652.87 627.01,655.65 632.25,659.56 633.1,661.14 637.52,657.44 639.25,653.83 640.99,652.83 640.98,650.21 642.99,647.03 642.71,645.61 644.66,644.48 648.2,644.56 649.64,643.79 648.85,642.88 649.63,641.98 650.6,643.78 652.89,643.49 657.53,639.25 661.42,637 664.46,636.44 665.14,634.98 664.85,628.76 669.53,621.02 670.81,613.85 676.53,609.93 680.22,604.97 684.34,601.38 686.1,598.36 686.7,599.57 691.34,601.13 690.45,600.15 695.66,598.32 695.32,597.37 696.67,593.8 698.23,594.7 705.23,588.43 707.76,584.72 706.92,582.92 707.22,581.48 709,580.05 710.48,580.11 709.53,578.31 713.06,577.39 715.79,577.96 718.91,574.37 721.48,569.43 723.01,564.13 725.95,561.76 729.73,560.57 735.5,561.02 734.63,559.22 743.31,560.98 742.45,562.7 744.63,563.52 746.44,565.33 748.56,569.97 750.51,569.13 752.54,570.85 755.12,571.47 759.34,577.49 761.28,578.89 764.3,578.99 763.52,580.8 765.25,580.79 765.26,581.61 763.53,583.51 767.48,584.33 770.42,584.49 779.85,582.65 785.12,580.04 788.75,581.45 787.88,579.65 790.7,580.18 793.07,579.61 794.26,580.42 798.34,577.77 798.35,578.75 802.67,577.73 807.42,584.92 809.65,582.28 815.71,582.23 820.03,580.39 821.2,582.69 823.87,583.28 826.16,582.62 826.19,580.34 829.77,583.92 833.09,583.11 834.02,583.88 834.88,582.98 833.11,580.28 837.47,581.06 837.45,579.26 838.32,579.25 842.95,581.04 844.49,583.37 850.66,586.37 848.89,589.17 851.98,589.79 854.35,593.5 859.2,594.24 862.9,599.31 864.34,602.71 864.82,608.97 866.94,608.4 865.6,614.87 863.59,615.92 863.1,617.11 864.67,620.9 865.67,621.6 865.69,618.72 866.64,616.85 868.44,616.21 870.92,617.03 875.38,621.51 877.82,620.58 878.27,622.74 881.44,626.86 878.36,629.63 878.86,631.4 877.19,633.08 877.98,636.01 883.77,634.48 886.04,633.01 885.8,629.52 890.88,632.59 893.47,637.26 894.04,642.83 893.02,648.57 895.21,647.73 896.63,648.59 907.57,668.35 913.28,672.27 916.31,680.82 919.08,682.71 922.05,682.64 923.88,679.82 924.76,679.81 925.72,681.61 926.59,688 931.27,691.44 932.77,689.82 933.17,694.69 931.99,697.95 933.98,698.91 938.1,698.69 941.16,699.65 944.73,697.33 950.26,697.73 953.84,700.49 955.52,700.37 956.69,702.51 960.35,705.48 959.97,707.53 960.92,708.81 961.97,708.53 961.69,706.7 963.38,707.03 968.69,714.33 968.85,715.55" fill="none" stroke="#1e1e1e" stroke-width="1.14" stroke-linecap="round" stroke-linejoin="round"/>
<polyline points="850.38,92.58 851.19,96.51 853.28,98.47 858.98,101.25 862.54,106.59 867.05,108.99 869.07,114.7 872.43,117.39 884.17,120.53 891.39,120.36 905.21,116.4 912.57,116.08 914.44,122.02 913.98,124.25 911.38,128.04 911.18,130.14 912.84,132.04 932.33,135.91 940.01,140.83 946.43,143.04 947.66,144.26 947.98,147.32 946.17,150.31 941.1,154.99 936.76,157.33 932.02,165.36 927,166.54 924.92,169.1 923.23,169.72 924.76,173.51 926.08,174.74 941.41,181.3 954.77,183.86 956,184.85 957.37,190.25 961.32,191.03 963.08,193.9 966.93,193.88 968.3,195.55 970.36,195.46 981.98,203.96 995.24,207.65 997,211.97 998.62,213.45 1001.12,211.87 1003.97,213.5 1006.32,216.64 1007.37,219.59 1008.14,219.58 1008.92,216.99 1010.54,216.33 1012.45,217.28 1014.21,219.5 1015,219.49 1016.68,216.74 1027.08,219.31 1030.54,221.07 1034.23,221.15 1035.72,222.81 1033.02,222.85 1031.45,224.68 1034.04,225.48 1034.65,226.5 1034.94,228.26 1033.25,230.1 1034.99,231.96 1034.19,235.52 1036.85,237.38 1038.57,237.35 1039.5,241.87 1044.95,245.31 1049.31,250.35 1051.68,251.72 1055.71,249.67 1057.74,250.72 1060.14,248.9 1062.51,251.15 1065.58,256.95 1070.36,259.58 1075.21,260.64 1076.05,263.21 1078.95,265.23" fill="none" stroke="#1e1e1e" stroke-width="1.14" stroke-linecap="round" stroke-linejoin="round"/>
<polyline points="257.98,819.6 249.17,808.46 245.47,797.93 243.6,775.71 244.21,764.54 248.28,756.08 253.41,751.91 250.42,743.09 244.7,735.83" fill="none" stroke="#1e1e1e" stroke-width="1.14" stroke-linecap="round" stroke-linejoin="round"/>
<polyline points="227.4,586.01 226.84,595.5 222.75,599.76 222.08,602.42 222.86,605.08 218.51,608.1 217.79,609.95 218.4,621.56 222.63,630.15 220.25,632.68 216.34,640.31 218.74,651.84 225.48,660.67 227.28,665.7 219.09,670.07 217.75,671.1 217,673.12 218.92,682.16 222.89,686.57 227.33,693.51 225.55,695.98 228.87,703.86 227.45,705.23 229.6,711.09 229.97,718.11 231.25,720.21 235.5,721.15 237.86,728.75 244.7,735.83" fill="none" stroke="#1e1e1e" stroke-width="1.14" stroke-linecap="round" stroke-linejoin="round"/>
<polyline points="257.98,819.6 259.97,825.45 263.43,827.37 267.49,833.57 270.37,843.67 269.16,845.7 269.98,847.76 273.99,850.43 275.32,852.3 280.78,854.66 286.07,858.23 291.78,859.7 294.49,862.74 295.49,865.66 300,865.64 302.71,864.76 302.69,867.46 306.01,869.74 306.98,872.06 309.35,874.41 314.86,877.56 320.02,878.42 324.01,882.13 333.28,881.21 335.92,879.51 336.64,880.83 335.91,881.23 337.64,884.93 340.34,888.16 343.73,891.29 349.47,894.76 350.7,896.74 351.01,899.52 347.2,907.63 348.98,913.08 345.58,914.66 344.7,916.3 344.48,920.68 341.75,926.52 344.43,928.84 344.4,932.93 349.3,936.12 354.59,937.15 363.1,951.06 366.22,951.18 366.18,957.58" fill="none" stroke="#1e1e1e" stroke-width="1.14" stroke-linecap="round" stroke-linejoin="round"/>
<polyline points="439.06,375.57 435.7,368.99 428.88,360.91 429.32,357.78 435.94,346.29 441.28,342.36 446.85,340.73" fill="none" stroke="#1e1e1e" stroke-width="1.14" stroke-linecap="round" stroke-linejoin="round"/>
<polyline points="518.66,169.98 515.13,154.22 510.06,145.32 504.08,139.87 503.22,139.86 499.49,143.76 496.76,144.89 494.58,143.47 491.37,144.97 486.24,143.58 481.98,147.05 480.99,148.9 479.94,152.6 481.44,157.52 477.73,159.64 476.75,163.35 477.75,174.61 477.22,178.36 475.65,181.52 472.94,183.5 475.57,188.05 472.7,190.43 471.99,196.79 469.54,203.61 469.52,211.77 467.86,218.69 467.78,220.83 469.36,225.47 472.03,229.08 475.07,229.28 475.46,230.9 472.02,233.54 470.22,242.67 466.8,248.31 467.7,250 465.89,250.98 466.74,251.81 466.14,254.59 467.67,257.16 465.87,258.14 467.67,258.98 465.99,261 466.59,267.21 465.83,270 467.26,270.84 467.63,273.55 470.12,278.58 474.48,280.44 474.93,285.01 478.45,293.1 478.31,294.5 480.02,295.47 481.64,297.79 483.1,302.66 481.96,305.16 478.55,307.16 477.31,312.41 473.52,318.18 472.7,325.7 471.34,327.73 458.29,339.34 454.47,341.02 451,339.84 446.85,340.73" fill="none" stroke="#1e1e1e" stroke-width="1.14" stroke-linecap="round" stroke-linejoin="round"/>
<polyline points="439.06,375.57 441.01,377.84 433.15,383.2 428.35,384.77 423.79,384.87 422.26,382.51 419.51,384.14 417.96,382.49 416.21,386.21 413.7,388.23 399.34,393.25 397.43,392.42 397.17,390.08 393.72,389.61 385.28,392.64 382.38,396.88 382.47,398.6 386.78,401.34 385.82,404.04 384.1,403.05 383.58,405.4 386.67,421.31 385.87,422.35 383.12,423.1 384,426.36 378.26,429.18 377.96,434.01 380.42,442.57 379.73,444.91 377.09,448.5 377,451.26 378.77,455.3 381.8,459.13 391.31,468.9 391.68,470.69 389.76,471.3 389.76,472.12 394.15,474.94 394.15,475.76 392.42,475.75 392.41,476.74 394.29,478.02 396.7,483.99 394.96,483.98 394.96,484.88 396.32,485.65 396.67,490.31 399.26,491.32 400.19,494.85 399.23,497.56 401.89,498.56 403.19,500.65 402.74,503 401.53,504.07 397.46,504.85 396.13,507.65 398.76,512.63 404.38,520.25 403.43,522.05 400.88,521.05 401.74,527.96 400.79,533.37 401.69,539.37 403.35,538.48 404.81,543.1 407.21,542.32 408.28,541.05 411.21,542.04 411.19,547.46 417.9,557.33 417.17,563.91 419.46,564.58 421.22,569.91 422.39,580.19 419.3,595.96 419.7,598.32 413.36,609.31 409.15,611.9 409.65,613.13 406.53,617.3 405.62,624.15 400.49,627.07 399.54,628.55 399.84,632.26 399.39,633.6 397.77,634.49 398.54,636.22 396.8,637.2 395.94,635.39 395.16,635.38 395.56,636.66 397.75,638.02 397.51,639.42 396.24,640.13 395.51,641.94 392.84,642.95 385.73,649.27" fill="none" stroke="#1e1e1e" stroke-width="1.14" stroke-linecap="round" stroke-linejoin="round"/>
<polyline points="229.55,425.67 229.74,431.02 232.51,436.81 234.01,444.06 236.05,445.8 237.33,445.57" fill="none" stroke="#1e1e1e" stroke-width="1.14" stroke-linecap="round" stroke-linejoin="round"/>
<polyline points="228.88,108.17 231.13,109.43 232.39,111.77 233.43,119.24 235.57,122.35 235.51,128.29 239.76,137.1 240.74,143.36 243.95,150.05 244.85,154.31 244.58,159.05 240.6,170.46 240.21,173.66 242.16,178.21 242.62,187.58 245.55,194.76 244.65,197.12 238.74,200.27 244.57,240.29 242.37,254.43 239.97,256.77 240.04,264.85 234.96,274.4 223.32,280.14 215.8,285.6 206.3,288.22 207.37,291.07 205.15,295.65 207.04,299.54 203.13,304.02 200.89,305.44 200.79,307.74 198.57,314.08 198.06,326.96 197.63,327.43 196.35,326.21 195.69,327.44 195.61,328.64 197.16,330.83 195.51,330.81 192.81,334.32 195.35,334.26 195.11,338.29 196.19,340.7 193.59,341.57 193.58,342.47 196.1,343.11 197,345.23 198.74,343.52 202.41,348.09 202.27,349.89 198.92,351.49 197.15,353.42 199.07,355.36 199.45,357.1 198.56,359.39 200.28,359.83 201.63,365.16 205.8,373.05 206.74,377.11 211.01,384.35 210.99,386.14 209.91,387.55 205.85,388.79 205.09,390.38 206.01,393.61 205.11,395.97 206.7,402.09 206.6,411.22 203.96,417.51 204.86,419.82 206.85,421.14 208.56,420.58 210.91,418.09 215.26,415.33 219.81,414.07 224.38,414.76 228.69,417.82 230.18,419.96 230.64,421.85 229.55,425.67" fill="none" stroke="#1e1e1e" stroke-width="1.14" stroke-linecap="round" stroke-linejoin="round"/>
<polyline points="237.3,445.57 244.37,445.64 249.13,448.4 250.22,449.95 253.83,459.45 249.03,465.18 249.81,467.92 257.09,479.37 257.35,482.39 254.41,484.94 253.56,487.88 254.03,489.21 258.32,493.02 259.51,497.55 261.89,501.95 265.58,505.99 274.16,513.04 278.12,517.75 286.63,524.2 291.43,526.74 296.21,525.96 298.18,527.19 301.94,532.88 304.72,541.29 307.92,548.01 311.14,552.28 310.08,555.25 312.55,558.41 316.48,561.02 324.57,563.25 325.99,564.39 330.84,574.41 337.02,582.62 341.69,584.61 342.83,587.28 343.17,591.99 352.11,602.54 352.88,604.77 351.73,609.78 354.38,611.93 364.7,617.08 372.42,622.4 376,626.11 376,628.88 378.23,631.32 379.21,634.83 379.32,641.17 382.85,644.96 388.05,647.98" fill="none" stroke="#1e1e1e" stroke-width="1.14" stroke-linecap="round" stroke-linejoin="round"/>
<polyline points="912.65,838.91 907.97,836.29 903.31,835.61 898.6,836.45 859.71,854.2 854.94,857.4 837.12,875.86 827.57,879.67 820.05,885.47 810.06,887.41 806.54,889.17 804.93,891.18 804.59,904.16 806.51,911.82 806.31,914.26 802.96,920.73 803.45,949.8 805.62,955.83 810.7,959.15 816.47,958.37 817.51,959.54 819.22,965.11 823.08,969.47 828.38,972.21 839.92,976.37" fill="none" stroke="#1e1e1e" stroke-width="1.14" stroke-linecap="round" stroke-linejoin="round"/>
<polyline points="689.63,18.44 679.25,25.95 676.16,29.61 675.09,38.44 673.72,41.43 668.37,44.68 666.08,47.08 659.02,64.59 652.64,72.12 649.21,74.01" fill="none" stroke="#1e1e1e" stroke-width="1.14" stroke-linecap="round" stroke-linejoin="round"/>
<polyline points="442.91,926.21 437.02,924.29 435.91,922.5 436.77,920.18 441.06,919.44 442.81,916.56 442.69,915.01 440.68,913.42 439.47,913.56 438.26,914.14 436.64,917.03 434.16,917.07 429.73,915.27 429.74,914.44 432.05,912.62 431.83,910.89 429.76,908.05 430.2,905.68 434.16,900.77 435.93,896.4 440.04,877.91 439.69,875.61 435.84,873.9 437.37,867.64 437.02,866.44 434.3,864.17 436.13,862.33 436.15,858.73 432.2,853.47 429.53,843.66 429.25,835.66 428.2,834.23 426.72,835.01 425.69,834.66 421.36,825.22 423.74,818.75 423.14,816.54 424.74,815.31 425.62,813.38 425.48,811.22 424.05,809.32 425.37,807.27 424.07,803.01 426.33,784.98 424.17,779.97 423.36,762.34 419.48,760.48 417.45,753.52 415.55,754.18 405.99,732.32 404.16,733.22 398.29,720.32 393.91,718.68 385.46,719.59 382.9,718.79 378.15,711.24 377.49,708.79 378.09,706.84 375.08,706.69 374.94,704.64 378.76,698.14 379.27,695.91 376.52,691.49 379.92,692.33 378.2,687.8 379.09,687 382.56,686.93 384.28,682.39 383.64,680.77 381.72,681.42 381.76,674.2 380.02,672.84 380.75,670.72 381.56,670.4 381.57,668.73 377.94,667.92 377.53,666.88 380.07,664.35 379.93,658.55 381.07,656.15 380.12,656.15 382.87,650.57 385.73,649.27" fill="none" stroke="#1e1e1e" stroke-width="1.14" stroke-linecap="round" stroke-linejoin="round"/>
<polyline points="401.43,938.66 395.69,928.64 396.33,925.11 394.5,924.12 394.5,923.3 396.34,922.32 394.57,920.33 394.58,919.2 397.09,918.81 399.85,919.72 401.21,913.45 399.88,912.51 399.38,915.61 397.45,915.88 397.18,913.32 392.55,912.57 393.77,910.59 395.72,911.64 397.2,907.91 402.08,907.19 402.55,904.73 398.06,904.69 396.38,902.62 391.1,902.47 390.6,900.33 394.63,897.97 395.11,896.52 393.88,884.45 392.1,878.04 389.99,877.46 388.22,862.12 383.38,858.9 383.4,854.38 381.67,851.67 384.46,835.45 386.21,832.76 385.28,830.87 387.55,821.78 384.55,819.14 384.56,816.35 382.82,815.52 381.89,810.34 382.45,805.51 385.46,796.43 385.8,788.82 385.1,787.49 381.62,784.99 379.43,781.07 378.61,769.79 380.47,765.65 377.8,760.23 376.19,750.7 375.14,748 370.42,745.97 369.26,743.86 370.38,741.08 373.31,737.31 369.74,735.3 368.72,733.76 371.08,730.34 370.83,728.17 369.18,725.29 374.09,721 374.29,719 378.07,711.27" fill="none" stroke="#1e1e1e" stroke-width="1.14" stroke-linecap="round" stroke-linejoin="round"/>
<polyline points="203.72,16.74 204.19,20.53 202.37,25.21 202.84,31.54 203.92,34.07 208.61,39.58 209.01,42.75 208.46,48.8 206.26,54.17 197.23,59.06 192.12,58.55 188.25,61.24 184.47,65.7 182.34,67.08 168.46,68.27 155.71,76.15 150.35,78.11 138.73,79.18 123.59,83.86 120.65,84.07 110.79,82.13 105.68,83.94 99.56,95.67 97.71,97.01 91.41,96.38 89.72,97.58 88.24,106.4 82.28,114.27 78.46,116.19 77.44,118.15 76.8,123.56 74.69,130.67 74.36,137.15 70.47,145.25 68.13,154.03 67.32,155.35 64.68,155.95 62.28,157.61 60.54,159.92 59.86,162.49 61.5,167.06 61.2,189.67 57.23,195.79 55.4,202.87 53.41,222.57 51.97,227.83 47.59,233.28 41.98,232.77 39.38,228.41 36.69,226.09" fill="none" stroke="#1e1e1e" stroke-width="1.14" stroke-linecap="round" stroke-linejoin="round"/>
<polyline points="36.27,251.88 38.13,259.17 38.44,264.02 36.2,267.44 37.65,270.32 40.29,272.9 44.97,283.54 48.1,288.61 49.14,297.87 53.3,303.44 58.53,307.07 60.27,305.12 62.96,298.5 64.39,298.18 72.37,301.85 73.01,306.28 69.77,310.38 77.93,323.18 79.66,330.56 79.02,334.41 82.25,335.58 86.39,346.78 82.03,350.14 78.38,356.4 77.55,358.36 79.15,364.66 76.28,365.02 76.28,367.04 78.27,372.38 80.69,383.69 81.48,396.75 87.67,409.96 87.81,412.63 86.25,416.04 86.07,421.46 77.21,427.19 75.15,432.18 74.79,450.78 72.38,452.05 71.73,458.22 66.82,467.53 66.34,470.24 66.65,473.44 69.66,480.69 69.97,483.86 66.79,497.48 68.46,502.52 65.33,510.63 65.08,516.64 66.89,521.34 72.34,529.82 73.46,533.89" fill="none" stroke="#1e1e1e" stroke-width="1.14" stroke-linecap="round" stroke-linejoin="round"/>
<polyline points="388.63,18.27 386.53,28.38 383.84,31.9 383.5,33.74 383.49,42.42 384.17,45.03 385.87,47.11 388.12,48.32 390.35,48.32 392.26,46.4 392.23,41.22 397.49,38.53 398.96,33.74 401.41,30.58 405.17,28.07 409.67,27.05 414.4,28.36 416.87,31.17 423.98,47.02 428.86,54.94 431.92,56.55 433.26,58.4 437.35,60.43 438.98,58.18 440.59,57.73 444.28,58.64 445.54,63.33 444.21,78.71 445.21,104.44 446.28,106.64 450.08,104.91 453.03,105.24 455.87,104.55 464.69,99.36 468.58,95.8 471.88,94.86 487.14,97.39 492.95,99.23 497.31,102.63 498.94,99.75 499.87,99.75 501.54,101.73 503.59,101.07 510.99,95.31 513.91,96.03 525.49,103.5 528.4,104.36 566.13,104.09 570.81,103.04 573.56,99.8 572.05,98.81 573.62,97.31 579.51,94.56 584.65,89.8 604.36,86.23 608.53,83.32 614.96,76.01 618,73.41 620.2,72.62 627.07,73.39 636.06,68.74 640.91,68.23 645,69.76 648.28,72.83 650.67,76.96 652.02,82.05 651.33,85.95 649.02,89.02 645.51,91.59 641.25,93.42 638.93,96.57 635.95,98.6 626.09,100.65 622.7,106.36 607.95,119.72 606.98,122.18 599.29,127.17 598.13,131.79 598.9,151.44 601.46,154.93 608.37,158.44 609.61,159.91 604.6,165.63 602.98,170.26 599.36,176.42 600.16,186.8 596.75,212.09 597.89,214.24 598.48,218.21 596.78,228.68 597.49,230.71 602.79,236.49 604.14,240.91 603.22,244.9 599.46,252.82 597.75,263.68 591.87,273.28 589.21,279.56 584.82,283.71 581.75,284.58 578.8,283.71 576.88,285.49 573.19,292.4 568.48,295.12 567.64,299.12 564.61,303.03 562.46,304.8 557.5,306 556.33,307.22 554.59,310.97 548.72,317.71 546.51,322.02 545.99,327.43 549.5,335.04 550.28,344.54 549.06,355.6 553.19,362.43 558.11,362.2 559.23,362.63 559.84,364.62 565.15,362.72 565.94,364.12 563.34,369.97 565.03,370.84 566.72,369.96" fill="none" stroke="#1e1e1e" stroke-width="1.14" stroke-linecap="round" stroke-linejoin="round"/>
<polyline points="759.31,326.79 756.64,328.89 756.01,330.65 756.93,340.81 752.54,346.79 750.33,347.66 742.06,344.01 729.19,349.4 726.6,351.91 719.3,355.98 714.72,360.28 706.62,363.65 705.92,365.67 707.89,370.96 705.08,370.61 696.82,366.94 698.92,357.07 697.31,351.78 693.26,349.73 682.46,349.74 677.85,348.88 673.67,346.71 667.88,340.81 664.09,341.06 660.33,339.17 654.01,333.54 651.03,329.55 645.77,325.87 643.29,319.48 640.98,318.18 631.51,317.71 609.6,341.19 607.04,342.02 595.26,336.38 593.17,338.36 592.15,340.79 587.55,357.78 575.83,360.09 573.76,361.44 571.31,365.45 568.44,363.63 568.13,367.39 566.72,369.96" fill="none" stroke="#1e1e1e" stroke-width="1.14" stroke-linecap="round" stroke-linejoin="round"/>
<polyline points="759.07,327.37 763.6,325.36 765.07,323.38 766.59,316.1 768.74,312.34 781.96,308.76 784.71,307.19 784.07,304.89 777.71,300.84 776.9,298.22 778.16,294.99 780.26,292.31 786.03,288.89 797.3,286.72 806.56,289.22 810.04,288.96 816.48,290.02 823.82,291.95 827.82,294.89 835.02,298.11 848.36,299.98 852.25,302.27 855.52,306.78 857.56,307.18 859.06,306.68 862.08,302.89 864.5,301.25 867.23,300.5 870.27,300.77 873.4,302.36 875.77,304.9 882.15,315.94 889.1,331.8 900.37,343.16 907.29,359.53 909.07,362.16 918.53,368.06 925.76,379.32 927.49,383.8 935.03,391.58 957.09,402.49 963.17,406.21 970.13,416.37 974.24,419.09 977.81,426.49 978.28,444.04 977.33,453.14 969.41,472.68 968.82,475.63 970.16,487.77 972.35,493.38 971.27,502.62 974.14,513.52 974.07,516.4 971.11,526.92 970.58,532.61 971.43,538.28 972.8,540.59 984.35,548.02 987.47,552.24 991.21,561.25 1004.99,571.21 1006.4,573.7 1007.37,585.91 1010.7,591.7 1013.4,593.73 1033.6,600.67 1040.12,601.02 1054.95,604.58 1057.14,605.73 1056.67,607.73 1052.68,609.64 1049.7,613.12 1049.53,617.81 1051.1,622.71 1056.31,633.52 1057.71,635.61 1060.96,638.06 1070.79,638.09 1076.31,639.87 1082.03,643.46 1085.2,647.94" fill="none" stroke="#1e1e1e" stroke-width="1.14" stroke-linecap="round" stroke-linejoin="round"/>
<polyline points="1085.45,662.81 1082.88,669.93 1081.54,680.79 1075.05,685.82 1069.14,687.82 1066.63,689.53 1065.55,692.46 1066.33,694.87 1068.37,696.15 1073.4,696.48 1080.41,695.03 1083.03,695.31 1086.01,697.02" fill="none" stroke="#1e1e1e" stroke-width="1.14" stroke-linecap="round" stroke-linejoin="round"/>
<polyline points="1092.53,1096.26 1086.17,1095.46 1084.15,1096.26 1081.15,1099.75 1079.54,1107.77 1080.27,1111.17 1082.53,1114.97 1082.49,1116.41 1080.08,1119.45 1078.41,1127.83 1072.16,1134.04 1071.35,1141.46 1069.2,1144.95 1066.72,1146.66 1064.08,1147.19 1055.78,1144.14 1043.93,1145.08 1037.87,1143.54 1034.7,1143.75 1030.22,1146.59 1028.67,1151.8 1026.87,1154.51 1024.19,1155.82 1021.06,1156.2 1013.24,1156.08 1009.17,1158.62 1009.14,1161.72 1013.65,1165.17 1013.89,1166.83 1006.24,1174.79 1004.57,1177.89 1005.72,1184.37 1005.46,1189.77" fill="none" stroke="#1e1e1e" stroke-width="1.14" stroke-linecap="round" stroke-linejoin="round"/>
<polyline points="1097.09,1374.81 1092.88,1369.05 1073.67,1349.11 1070.87,1344.76 1059.57,1338.06 1058.75,1336.63 1058.07,1329.8 1057.03,1327.78 1055.18,1326.69 1050.33,1326.16 1046.4,1323.88 1042.5,1317.76 1041.14,1310.92 1039,1309.55 1034.16,1308.56 1031.45,1307.18 1029.76,1300.63 1024.49,1294.1 1024.72,1291.44 1027.11,1287.61 1025.53,1281.46 1027.52,1277.28 1027.5,1274.81 1023.59,1273.96 1021.19,1270.24 1021.85,1261.41 1021.61,1244.83 1017.87,1238.52 1019.47,1226.39 1014.54,1220.73 1013.79,1218.25 1014.67,1215.52 1018.68,1210.76 1016.71,1207.52 1009.18,1206.77 1005.54,1204.86 1004.46,1203.07 1003.91,1198.83 1006.09,1194.54 1005.31,1190.37" fill="none" stroke="#1e1e1e" stroke-width="1.14" stroke-linecap="round" stroke-linejoin="round"/>
<polyline points="1005.31,1190.37 1005.31,1190.31" fill="none" stroke="#1e1e1e" stroke-width="1.14" stroke-linecap="round" stroke-linejoin="round"/>
<polyline points="1096.59,1344.29 1086.18,1338.04 1080.44,1329.44 1063.71,1320.52 1062.52,1318.82 1062.28,1311.33 1059.87,1301.76 1056.3,1295.97 1053.9,1294.51 1044.37,1293.49 1041.51,1290.32 1037.78,1264.98 1043.06,1247.38 1048.85,1239.98 1049.9,1236.96 1049.69,1233.33 1045.4,1215.29 1044.38,1213.82 1032.25,1204.65 1017.39,1197.03 1009.81,1195.11 1007.06,1193.05 1005.31,1190.37" fill="none" stroke="#1e1e1e" stroke-width="1.14" stroke-linecap="round" stroke-linejoin="round"/>
<polyline points="1005.31,1190.37 1005.16,1190.1" fill="none" stroke="#1e1e1e" stroke-width="1.14" stroke-linecap="round" stroke-linejoin="round"/>
<text x="936.14" y="422.14" font-family="sans-serif" font-size="14" stroke="#ffffff" stroke-opacity="0.784" stroke-width="2.33" stroke-linejoin="round" paint-order="stroke" fill="#141414">Mekong</text>
<text x="601.45" y="75.49" font-family="sans-serif" font-size="14" stroke="#ffffff" stroke-opacity="0.784" stroke-width="2.33" stroke-linejoin="round" paint-order="stroke" fill="#141414">Lancang</text>
<text x="747.17" y="585.09" font-family="sans-serif" font-size="14" stroke="#ffffff" stroke-opacity="0.784" stroke-width="2.33" stroke-linejoin="round" paint-order="stroke" fill="#141414">Chi</text>
<text x="381.84" y="502.77" font-family="sans-serif" font-size="14" stroke="#ffffff" stroke-opacity="0.784" stroke-width="2.33" stroke-linejoin="round" paint-order="stroke" fill="#141414">Yom</text>
<text x="190.29" y="294.05" font-family="sans-serif" font-size="14" stroke="#ffffff" stroke-opacity="0.784" stroke-width="2.33" stroke-linejoin="round" paint-order="stroke" fill="#141414">Ping</text>
<text x="796.34" y="708.85" font-family="sans-serif" font-size="14" stroke="#ffffff" stroke-opacity="0.784" stroke-width="2.33" stroke-linejoin="round" paint-order="stroke" fill="#141414">Mun</text>
<text x="43.1" y="382.56" font-family="sans-serif" font-size="14" stroke="#ffffff" stroke-opacity="0.784" stroke-width="2.33" stroke-linejoin="round" paint-order="stroke" fill="#141414">Salween</text>
<text x="366.72" y="788.65" font-family="sans-serif" font-size="14" stroke="#ffffff" stroke-opacity="0.784" stroke-width="2.33" stroke-linejoin="round" paint-order="stroke" fill="#141414">Chao Phraya</text>
<text x="935.08" y="189.04" font-family="sans-serif" font-size="14" stroke="#ffffff" stroke-opacity="0.784" stroke-width="2.33" stroke-linejoin="round" paint-order="stroke" fill="#141414">Cả</text>
<text x="284.47" y="888.49" font-family="sans-serif" font-size="14" stroke="#ffffff" stroke-opacity="0.784" stroke-width="2.33" stroke-linejoin="round" paint-order="stroke" fill="#141414">Mae Klong</text>
<text x="693.34" y="179.23" font-family="sans-serif" font-size="14" stroke="#ffffff" stroke-opacity="0.784" stroke-width="2.33" stroke-linejoin="round" paint-order="stroke" fill="#141414">Ngun</text>
<text x="786.83" y="893.82" font-family="sans-serif" font-size="14" stroke="#ffffff" stroke-opacity="0.784" stroke-width="2.33" stroke-linejoin="round" paint-order="stroke" fill="#141414">Sreng</text>
<text x="856.87" y="1039.37" font-family="sans-serif" font-size="14" stroke="#ffffff" stroke-opacity="0.784" stroke-width="2.33" stroke-linejoin="round" paint-order="stroke" fill="#141414">Tonle Sap</text>
<text x="938.38" y="1138.41" font-family="sans-serif" font-size="14" stroke="#ffffff" stroke-opacity="0.784" stroke-width="2.33" stroke-linejoin="round" paint-order="stroke" fill="#141414">Tonle Sap</text>
<text x="197.78" y="783.55" font-family="sans-serif" font-size="14" stroke="#ffffff" stroke-opacity="0.784" stroke-width="2.33" stroke-linejoin="round" paint-order="stroke" fill="#141414">Mae Klong</text>
<text x="412.27" y="362.52" font-family="sans-serif" font-size="14" stroke="#ffffff" stroke-opacity="0.784" stroke-width="2.33" stroke-linejoin="round" paint-order="stroke" fill="#141414">Yom</text>
<text x="686.19" y="271.63" font-family="sans-serif" font-size="14" stroke="#ffffff" stroke-opacity="0.784" stroke-width="2.33" stroke-linejoin="round" paint-order="stroke" fill="#141414">Ngun</text>
<text x="213.94" y="443.66" font-family="sans-serif" font-size="14" stroke="#ffffff" stroke-opacity="0.784" stroke-width="2.33" stroke-linejoin="round" paint-order="stroke" fill="#141414">Ping</text>
</svg>
