<?xml version="1.0" encoding="UTF-8" standalone="no"?>
<svg xmlns="http://www.w3.org/2000/svg" width="773" height="2000" viewBox="0 0 773 2000">
<rect width="773" height="2000" fill="#ffffff"/>
<polyline points="94.13,1409.35 97.52,1391.48 102.34,1374.56 115.33,1345.08 112.52,1313.17 116.63,1301.5 103.85,1294.12 103.95,1284.63 99.35,1276.94 91.52,1269.63 90.58,1262.66 98.25,1260.45 103.3,1257.99 111.21,1250.79 115.32,1243.43 109.78,1236.76 105.91,1230.32 104.54,1222.75 109.44,1218.65 119.38,1220.36 126.1,1219.11 134.2,1216.03 141.56,1211.02 143.82,1204.92 142.48,1201 135.71,1196.71 130.92,1190.52 135.28,1170.11 131.28,1167.01 120.46,1165.73 115.44,1160.45 119.03,1154.12 123.59,1151.72 130.98,1150.75 138.84,1146.84 142.04,1144.02 141.72,1144.92 142.2,1140.6 141.02,1137.24 138.51,1121.41 139.83,1116.51 144.31,1114.86 156.2,1114.35 160.16,1111.75 160.54,1109.63 159.42,1100.83 155.29,1094.44 150.41,1091.17 145.89,1090.4 114.9,1095.29 106.34,1093.51 102.16,1090.29 102.72,1081.7 100.29,1071.11 101.13,1067.95 105.08,1065.08 111.78,1063.1 114.69,1059.54 114.41,1057.49 112.01,1054.45 103.27,1049.77 101.66,1046.23 101.89,1041.88 106.66,1027.6 113.66,1015.3 118.06,1012.86 123.42,1015.34 128.06,1016.02 131.41,1014.76 132.77,1012.86 133.24,1010.54 131.89,1006.68 126.36,1001.49 123.39,996.58 122.33,992.36 124.54,986.22 132.26,976.25 139.68,960.29 139.78,958.07 136.44,952.83 136.59,951.82" fill="none" stroke="#1e1e1e" stroke-width="1.63" stroke-linecap="round" stroke-linejoin="round"/>
<polyline points="629.29,208.36 637.88,202.82 646.41,194.65 668.1,164.9 670.37,158.64 671.25,150.72 669.87,143.17 667.9,139.16 668.17,135.26 673.82,127.97 678.24,124.22 685.06,119.81 692.43,116.16 698.56,114.63 700.52,113.2 701.67,109.86 702.86,98.54 707.95,93.07 715.78,87.73 718,76.18 733.96,53.09 732.13,48.64 737.48,42.09 739.15,36.85 734.74,30.68 733.89,27.57 735.1,20.43" fill="none" stroke="#1e1e1e" stroke-width="1.63" stroke-linecap="round" stroke-linejoin="round"/>
<polyline points="474.21,20.82 474.57,25.83 478.45,23.1 482,23.95 482,32.17 487.46,34.58 489.02,47.85 491.39,51.99 495.75,56.51 495.33,62.77 494.02,64.55 491.27,61.89 487.47,56.12 483.61,54.79 471.78,53.48 466.18,56 463.75,56.13 461.04,51.41 453.43,46.09 443.2,44.12 441.52,44.82 433.55,57.92 432.14,58.83 431.77,62.75 431.96,67.13 433.31,70.67 438.5,74.19 438.88,78.76 437.98,83.33 436.3,85.42 429.48,85.36 424.59,83 418.83,88.52 420.38,93.85 426.93,101.65 424.22,108.96 418.37,112.33 412.26,111.69 406.22,104.46 404.41,98.21 402.26,94.85 398.52,93.09 395.94,95.26 392.95,101.66 388,106.8 385.95,110.36 386.56,113.63 392.73,117.6 394.54,119.76 395.57,125.35 394.6,132.44 390.96,138.15 369.59,155.18 363.76,158.25 359.03,157.51 353.04,165.69 353.23,177.98 357.06,191.43 361.88,202.99 353.28,208.08 345.89,213.88 340.69,208.55 336.58,213.4 330.31,218.01 324.98,226.93 326.9,230.95 327.65,235.16 327.59,244.35 326.24,247.43 314.31,251.11 308.23,247.64 296.82,246.39 293.36,240.45 284.25,247.46 283.12,258.78 281.15,267.57 269.83,267.05 269.95,277.72 262.61,288.42 258.8,299.78 269.79,312.52 281.39,316.59 282.14,318.78 274.78,323.15 263.33,322.09 255.97,322.37 251.2,325.79 251.38,330.81 261.39,336.67 264.25,341.55 262.28,347.54 256.98,349.25 250.8,348.5 237.2,342.9 232.8,342.33 227.65,344.38 222.16,352.37 209.8,361.64 206.79,373.97 204.03,379.2 204.61,392.3 202.57,419.91 206.34,429.96 211.21,433.14 215.42,434.16 218.51,436.76 219.68,444.61 218.02,452.26 213.77,453.37 207.81,452.39 201.07,453.67 203.41,457.5 201.05,465.99 208.86,485.54 208.67,488.73 201.01,496.47 197.97,502.36 197.16,507.83 198.88,523.43 198.73,527.85 190.44,558.11 190.99,565.37 193.01,569.56 198.29,576.49 200.12,582.2 200.95,589.31 199.86,596.1 195.88,600.91 188.98,601.76 182.57,598.15 172.31,587.34 166.76,598.4 167.08,609.78 173.2,617.94 185.11,619.27 200.73,615.29 208.33,616.78 211.6,624.86 208.97,630.21 202.72,631.96 195.65,630.77 190.35,627.26 183.5,631.77 174.27,632.3 154.96,630.11 154.01,632.58 152.3,646.03 156.09,649.64 163.86,654.04 173.62,652.23 179.12,652.52 182.49,656.73 180.98,660.8 176.04,664.16 170.04,666.51 154.05,669.73 153.98,675.28 156.66,681.51 148.42,691.27 144.66,700.37 144.32,708.95 149.48,712.78 157.54,716.33 163.66,724.71 165.68,734.41 161.35,742.04 143.18,742.44 133.85,743.9 133.56,748.78 137.15,754.93 140.01,763.34 142.71,779.24 137.65,795.41 137.73,800.03 140.02,812.72 143.95,818.56 153.15,820.28 163.8,820.54 171.97,822.07 178.06,827.39 173.7,829.76 148.25,831.26 141.77,833.99 140.02,838.14 145.45,843.31 153.39,845.81 163.25,846.23 172.74,844.51 179.54,840.7 183.63,846.51 182.72,851.71 178.31,854.11 171.92,851.55 167.59,857.2 166.42,862.19 149.54,869.1 148.37,873.08 148.31,877.93 141.99,892.39 145.17,902.52 155.81,920.91 140.59,921.21 135.04,927.03 136.59,951.82" fill="none" stroke="#1e1e1e" stroke-width="1.63" stroke-linecap="round" stroke-linejoin="round"/>
<polyline points="104.03,1891.19 110.19,1873.48 111.5,1864.51 108.64,1844.19 104.34,1827.25 106.3,1811.76 114.58,1779.77 117.56,1773.8 127.65,1762.67 144.49,1752.59 146.99,1749.83 147.66,1746.72 147.95,1742.32 145.71,1725.6 144.16,1721.93 142.09,1718.59 136.56,1713.45 126.99,1709.62 123.82,1707.36 120.9,1702.46 119.64,1698.27 121.02,1689.38 126.71,1674.67 128.57,1671.54 142.38,1658.69 146.64,1651.99 147.73,1641.8 146.86,1630.73 144.56,1619.74 144.56,1616.46 147.79,1604.32 151.77,1596 152.72,1589.08 149.29,1553.74 149.77,1549.18 156.37,1528.55 157.93,1516.71 158,1511.55 156.26,1499.97 152.65,1494.88 147.79,1490.73 142.1,1487.49 131.57,1484.49 117.31,1477.27 114.05,1473.05 111.69,1465.12 109.98,1439.79 105.46,1428.51 80.08,1384.62 70.92,1359 70.39,1354.03 68.96,1350.08 66.8,1347.12 62.24,1344.26 46.63,1340.9 42.8,1339.29 36.17,1333.27 25.82,1316.08 24.57,1312.13 21.9,1293.94 9.82,1265.31" fill="none" stroke="#1e1e1e" stroke-width="1.63" stroke-linecap="round" stroke-linejoin="round"/>
<polyline points="114.84,1979.38 101.5,1969.17 99.1,1965.17 98.68,1958.57 100.06,1951.63 104.75,1941.58 103.95,1934.75 101.31,1927.25 94.83,1914.22 94.22,1908.03 95.48,1902.73 101.51,1895.61 104.03,1891.19" fill="none" stroke="#1e1e1e" stroke-width="1.63" stroke-linecap="round" stroke-linejoin="round"/>
<text x="189.81" y="475.84" font-family="sans-serif" font-size="14" stroke="#ffffff" stroke-opacity="0.784" stroke-width="2.33" stroke-linejoin="round" paint-order="stroke" fill="#141414">Oti</text>
<text x="128.43" y="1574.36" font-family="sans-serif" font-size="14" stroke="#ffffff" stroke-opacity="0.784" stroke-width="2.33" stroke-linejoin="round" paint-order="stroke" fill="#141414">Volta</text>
<text x="106.84" y="1161.45" font-family="sans-serif" font-size="14" stroke="#ffffff" stroke-opacity="0.784" stroke-width="2.33" stroke-linejoin="round" paint-order="stroke" fill="#141414">Oti</text>
<text x="81.71" y="1944.02" font-family="sans-serif" font-size="14" stroke="#ffffff" stroke-opacity="0.784" stroke-width="2.33" stroke-linejoin="round" paint-order="stroke" fill="#141414">Volta</text>
</svg>
