<?xml version="1.0" encoding="UTF-8" standalone="no"?>
<svg xmlns="http://www.w3.org/2000/svg" width="773" height="2000" viewBox="0 0 773 2000">
<rect width="773" height="2000" fill="#ffffff"/>
<path d="M188.92,1433.18L183.67,1446.36L178.71,1454.72L181.78,1458.4L182.57,1460.69L181.43,1461.26L178.7,1460L174.2,1467.33L176.76,1470.78L181.7,1473.53L183.91,1478.7L181.41,1479.04L169.85,1489.57L168.14,1492.21L168.14,1494.84L175.47,1494.05L174.56,1497.49L170.4,1502.87L168.12,1508.37L170.5,1513.31L175.72,1516.87L181.81,1518.83L186.81,1518.84L189.13,1524.34L183.84,1526.17L176.34,1522.03L170.94,1524.32L168.54,1529.02L167.73,1535.89L168.05,1550.92L169.99,1550.81L170.9,1548.05L173.57,1549.21L174.14,1550.24L175.96,1548.06L178.58,1548.07L177.15,1552.08L174.93,1554.48L168.04,1558.72L168.04,1561.58L175.77,1561.59L177.59,1565.04L173.94,1568.01L165.35,1566.85L172.74,1574.89L170.34,1581.65L166.12,1588.3L167.99,1596.1L171.23,1591.98L180,1590.27L183.76,1588.21L185.69,1592.34L185,1596.01L182.49,1599.1L178.5,1601.51L180.67,1602.77L183.73,1607.02L178.78,1608.85L178.49,1615.04L173.25,1612.16L170.8,1620.3L167.95,1620.3L167.96,1612.16L164.99,1620.64L166.34,1628.9L169.23,1637.16L173.19,1657.46L170.74,1660.21L168.06,1659.52L165.51,1656.19L162.39,1649.31L151.07,1679.8L149.56,1695.97L157.24,1703.09L155,1709.85L155.9,1717.42L159.87,1732.57L156.82,1754.02L159.83,1759.07L157.26,1763.65L157.19,1767.44L159.81,1769.74L165.05,1769.74L169.84,1767L173.72,1761.73L178.29,1750.95L182.83,1724.35L186.54,1716.55L188.88,1716.55L187.67,1725.38L184.81,1735.93L183.94,1744.88L188.84,1748.56L185.87,1752.34L184.21,1756.24L184.21,1760.36L186.48,1764.5L183.5,1772.52L180.94,1772.52L180.95,1764.49L175.31,1768.04L167.54,1779.04L162.19,1777.54L162.19,1780.41L159.8,1777.54L156.94,1784.18L154.66,1786.59L151.8,1788.42L151.81,1783.03L146.57,1784.4L142.81,1786.11L140.18,1788.98L138.41,1793.68L135.79,1788.74L129.82,1782.76L128.06,1777.48L119.9,1788.37L122.52,1788.49L128.04,1791.25L117.18,1809.58L120.25,1813.83L125.09,1817.63L121.77,1822.33L114.7,1825.98L112.07,1831.14L111.32,1836.88L112.39,1840.55L117.11,1849.74L119.02,1862.47L116.55,1872.91L106.43,1889.87L104.03,1891.13L101.18,1865.42L104.14,1866.81L104.07,1871.05L106.47,1871.05L105.2,1845.35L100.6,1836.86L90.68,1841.54L91.87,1846.02L91.68,1852.33L90.24,1858.52L87.78,1862.99L85.79,1862.98L80.04,1859.76L77.47,1860.33L75.46,1866.63L65.79,1886.8L59.9,1890.81L53.31,1881.61L51.11,1871.05L50.3,1854.3L45.24,1846.95L30.21,1837.73L23.5,1832.1L19.08,1822.91L8.39,1825.63L8.52,1775.84L14.98,1776.44L19.2,1774.84L19.18,1782.76L20.89,1782.53L24.2,1780.13L26.87,1782.09L29.78,1780.15L32.17,1782.79L46.53,1779.27L51.12,1767L51.02,1737.64L56.99,1741.09L58.92,1743.05L56.57,1726.76L46.2,1725.81L39.49,1724.08L35.16,1721.43L32.04,1717.98L35.57,1716.5L40.87,1716.17L43.16,1713.42L40.49,1710.43L35.76,1708.93L31.38,1706.28L29.98,1700.08L32.37,1700.09L35.26,1703.88L39.87,1705.38L44.71,1704.13L48.42,1700.13L46.21,1698.86L43.2,1694.84L48.44,1694.85L48.44,1691.98L45.6,1691.98L45.6,1689.57L49.42,1688.89L51.36,1686.6L51.82,1683.05L51.15,1678.57L53.77,1678.58L56.5,1680.65L59.04,1689.6L63.07,1694.88L69.83,1700.17L69.86,1689.62L74.23,1692.84L80.15,1694.92L77.49,1689.52L80.39,1688.04L85.92,1687.94L90.99,1686.68L91.34,1682.9L96.53,1678.67L102.91,1676.5L106.83,1678.69L109.51,1678.69L111.57,1668.95L110.73,1665.39L106.86,1662.86L101.8,1662.05L97.41,1663.64L93.82,1666.73L91.02,1670.74L86.92,1669.47L83.12,1665.45L74.34,1669.45L64.38,1670.69L67.92,1665.65L69.75,1661.52L72.49,1658.55L79.03,1657.41L84.79,1655.13L85.65,1649.51L83.18,1636.09L105.64,1645.65L109.57,1645.55L110.41,1651.86L112.29,1650.02L114.24,1643.49L115.05,1636.15L113.4,1636.72L112.43,1638.9L106.92,1633.27L104.52,1636.13L90.02,1627.5L88.26,1625.55L91.29,1622.8L102.33,1623.63L106.94,1622.83L93.75,1614.89L106.55,1616.3L111.67,1615.96L115.09,1612.07L102.7,1604.48L99.07,1601.37L96.67,1604.23L98.5,1599.65L98.85,1596.1L96.64,1593.91L91.17,1593.33L91.18,1590.46L98.01,1588.64L100.75,1586.47L101.72,1583.03L99.62,1580.16L95.75,1579.12L93.65,1577.28L96.73,1572.12L92.24,1570.17L88.2,1571.08L85.13,1573.82L83.3,1577.37L80.29,1573.7L78.82,1569.79L78.88,1565.55L80.43,1561.43L78.1,1561.42L74.79,1566L70.92,1566.8L67.22,1564.84L64.61,1561.39L64.23,1557.03L67.72,1546.26L70.17,1542.48L70.11,1546.61L67.25,1554.63L69,1558.42L73.04,1558.31L77.48,1556.03L80.45,1553.17L82.38,1555.35L85.96,1553.18L91.24,1561.45L93.85,1561.45L96.6,1555.04L100.53,1553.9L103.76,1557.23L104.66,1564.11L115.22,1545.33L125.57,1547.98L125.57,1545.34L121.82,1543.04L120.97,1539.26L122.98,1529.63L126.45,1530.78L128.26,1533.08L128.48,1540.19L137.2,1531.72L140.73,1526.56L137.55,1524.26L137.16,1521.86L128.54,1508.31L125.8,1513.35L125.62,1515.99L123.01,1515.98L119.82,1514.49L118.06,1515.4L115.27,1518.72L113.13,1504.84L111.26,1502.77L106.09,1501.16L102.06,1497.37L96.9,1489.45L99.29,1486.7L94.47,1481.53L85.23,1466.03L78.3,1462.58L88.6,1456.98L84.45,1457.2L81.95,1456.39L78.33,1451.91L82.65,1451.35L85.44,1449.29L86.64,1445.62L86.19,1441.04L81.98,1444.35L80.67,1446.53L63.7,1435.48L57.22,1433.18L53.92,1434.89L49.04,1433.16L45.68,1434.87L30.62,1433.11L45.81,1453.33L51.01,1464.01L43.73,1467.77L43.57,1461.01L39.15,1454.69L33.36,1450.66L29.21,1450.43L21.87,1456.48L17.48,1458.77L13.39,1459.67L11.63,1458.41L14.25,1455.55L20,1451.78L18.88,1443.75L13.44,1438.35L9.39,1435.87L9.42,1422.46L12.17,1422.52L9.57,1417.35L14.87,1411.86L17.02,1417.26L21.16,1420.36L26.05,1421.18L30.65,1419.81L33.03,1424.98L37.12,1423.84L41.38,1425L43.83,1422.6L42.42,1418.24L43.85,1414.57L46.24,1414.58L46.68,1417.67L49.06,1422.61L51.74,1417.46L55.88,1423.08L59.4,1423.09L63.1,1421.04L67.54,1419.9L83.61,1425.09L80.38,1419.47L64.95,1409.11L59.97,1398.9L56.57,1394.76L50.43,1393.03L44.87,1392.44L43.62,1390.72L43.92,1385.1L44.6,1385.56L42.23,1378.22L41.49,1378.45L38.43,1375.34L31.49,1376.93L24.27,1380.93L20.17,1385.05L17.27,1385.04L16.09,1380.45L12.97,1379.41L9.53,1381.05L9.63,1343.5L21.97,1346.53L29.92,1345.74L33.23,1338.18L28.3,1335.99L9.65,1335.49L9.69,1316.85L11.7,1316.81L17.39,1314.64L15.13,1307.64L9.71,1308.49L9.92,1228.55L13.68,1232.89L23.12,1248.96L20.95,1252.17L22.08,1255.04L25.71,1256.76L31.05,1256.89L31.04,1259.76L28.76,1261.93L28.7,1264.45L30.28,1267.32L33.4,1270.2L30.09,1274.2L30.42,1280.05L32.9,1286.25L36.19,1291.53L33.8,1293.59L30.96,1294.15L33.45,1295.19L34.81,1296.8L36.16,1302.42L36.1,1305.29L33.3,1310.32L35.22,1316.63L41.27,1327.43L44.04,1334.31L50.13,1329.28L54.57,1323.44L57.8,1325.17L70.66,1315.8L73.27,1318.67L69.63,1320.38L66.61,1323.01L64.27,1326.79L62.67,1331.72L69.49,1331.96L73.3,1329.1L78.6,1321.09L78.93,1325.22L80.4,1327.74L82.9,1328.09L86.43,1326.15L88.86,1331.77L97.21,1331.79L92.62,1325.7L94.16,1321.92L97.86,1319.18L99.62,1315.86L97.7,1311.27L94.41,1307.71L91.87,1303.46L91.77,1297.15L87.85,1297.95L83.76,1296.56L80.93,1293.58L80.99,1289.22L83.67,1286.24L91.78,1289.24L93.21,1285L90.1,1279.38L81.04,1267.67L86.03,1269.85L88.82,1267.57L88.48,1263.44L83.95,1259.88L83.96,1257.01L92.36,1256.91L100.25,1253.95L105.83,1248.68L107.66,1241.12L105.28,1236.64L93.47,1241.78L86.6,1241.08L94.51,1233.07L86.46,1227.55L80.74,1221.69L80.58,1214.93L89.11,1206.58L89.84,1210.36L91.99,1213.69L95,1214.96L100.28,1211.87L105.33,1211.65L107.73,1203.63L114.26,1202.5L119.31,1204.57L121.23,1209.62L118.26,1217.18L135.87,1211.02L139.39,1208.73L137.18,1204.72L120.98,1190.59L123.36,1189.1L123.59,1187.95L120.99,1185.31L124.96,1184.06L127.24,1181.08L129.12,1171.8L123.62,1173.39L117.49,1170.98L112.51,1165.92L110.48,1159.61L106.62,1159.83L99.99,1155.69L98.01,1151.91L107.83,1152.84L105.46,1144.93L108.57,1148.6L111.92,1149.87L115.27,1148.62L118.39,1144.95L130.64,1148.87L136.21,1140.05L136.18,1126.41L131.55,1115.74L135.41,1112.77L139.38,1111.06L148.8,1110.15L153.79,1108.9L153.8,1105.46L150.3,1095.83L145.54,1093.64L116.04,1100.01L105.49,1099.42L100,1095.51L98.02,1088.74L97.7,1079.8L96.63,1074.75L93.41,1068.9L94.84,1064.89L97.45,1063.17L110.67,1059.53L110.67,1057.12L104.67,1055.39L100.13,1052.98L97.02,1049.19L94.88,1043.34L99.55,1033.94L93.77,1031.53L95.7,1029.12L98.88,1027.18L100.18,1027.41L108.15,1012.18L110.76,1009.09L116.15,1007.26L119.66,1008.99L123.4,1012.09L129.4,1014.4L127.31,1007.29L121.72,1000.74L117.31,993.17L118.69,982.51L122.21,978.16L130.32,971.64L131.81,964.99L129.84,956.62L130.35,954.1L138.91,950.79L143.22,950.34L150.53,952.76L142.41,961L145.23,967.08L142.05,970.4L137.06,973.37L134.5,978.29L127.75,987.68L125.07,994.9L128.01,998.23L135.14,1002.71L135.58,1011.54L129.28,1017.72L116.19,1014.37L109.65,1027.77L108.05,1032.81L108.03,1044.85L108.93,1048.41L113.69,1048.99L116.12,1051.63L117.59,1056.1L117.7,1060.23L116.33,1064.13L113.49,1067.79L111.05,1068.24L104.19,1067.54L102.71,1069.03L103.9,1072.59L107.8,1079.24L106.77,1082.45L107.61,1088.19L120.25,1088.9L155.7,1086.09L161.03,1087.25L163.23,1090.34L165.83,1100.09L166.22,1105.71L163.2,1110.18L166.94,1114.77L172.04,1116.04L176.64,1114.44L179.2,1110.2L181.86,1110.2L180.6,1118.46L175.89,1119.83L169.49,1119.01L163.19,1121.07L157.46,1118.42L150.66,1116.69L144.14,1116.45L139.54,1118.16L145.6,1120.81L152.86,1121.05L146.33,1126.89L144.97,1129.06L144.56,1132.85L145.51,1141.22L144.94,1145L140.28,1150.38L126.43,1155.74L121.03,1160.89L128.01,1160.45L150.7,1164.73L149.67,1166.67L144.9,1169.19L138.13,1181.1L133.91,1193.59L144.51,1199.34L168.57,1201.33L171.24,1198.35L173.85,1198.7L169.35,1210.27L167.25,1211.76L163.05,1210.95L154.03,1206.69L147.73,1208.63L140.68,1217.68L113.2,1224.97L113.52,1230.93L117.48,1238.39L123.15,1244.59L128.99,1246.43L125.35,1250.67L115.24,1253.86L113.13,1258.56L110.75,1260.04L98.81,1264.49L94.44,1265.29L111.41,1267.73L115.72,1270.37L116.45,1274.04L111.78,1281.83L110.24,1286.64L113.08,1286.65L118.2,1281.61L126.27,1278.41L133.59,1279.8L136.81,1287.95L135.68,1288.98L130.03,1303.87L127.75,1307.88L125.98,1315.56L123.36,1318.77L123.35,1321.17L129.89,1319.81L133.76,1313.97L136.95,1307.1L141.84,1302.63L139.24,1297.24L142.82,1295.18L147.08,1297.25L146.4,1292.32L144.7,1289.34L146.98,1285.33L150.22,1282.93L154.26,1281.67L159.2,1281.34L160.9,1279.5L165.46,1270.68L168.47,1267.82L171.3,1276.08L166.24,1282.49L162.6,1283.86L157.89,1283.74L157.88,1286.72L162.93,1289.37L155.26,1291.76L162.13,1292.35L168.43,1294.42L168.43,1297.29L161.1,1297.5L157.52,1299.91L158.71,1302.32L165.75,1302.67L165.75,1305.31L162.17,1307.02L160.51,1310.57L156.77,1309.19L144.67,1310.55L149.37,1319.15L163.22,1321.01L168.38,1326.29L168.39,1323.66L171.91,1326.18L173.67,1326.3L170.48,1329.85L168.94,1333.29L169.11,1336.5L171.21,1339.6L173.65,1339.6L176.26,1337.2L176.76,1349.35L175.44,1354.05L171.18,1356.11L174.02,1360.01L176.23,1361.16L172.82,1364.36L170.94,1368.15L168.31,1377.31L174.16,1379.04L175.69,1383.06L176.18,1393.26L171.13,1390.85L172.03,1398.53L174.47,1400.6L178.79,1401.29L174.69,1406.56L173.55,1410.23L173.54,1414.81L168.83,1411.37L160.54,1401.95L155.09,1398.62L161.72,1410.9L160.35,1414.8L144.49,1420.04L146.76,1424.06L150.22,1426.93L154.76,1427.74L160.34,1425.23L162.83,1433.03L155.65,1442.88L155.01,1449.41L158.3,1455.04L162,1454.24L165.59,1449.78L168.61,1443.93L175.03,1442.57L177.65,1438.33L177.66,1432.94L176.13,1427.89L181.42,1430.76L183.98,1423.43L183.99,1420.1L189.27,1422.86L189.28,1412.2L192.18,1412.2L192.4,1420.23L188.92,1433.18ZM130.45,1750.88L135.08,1741.36L133.1,1733.56L122.64,1718.86L118.88,1723.9L117.33,1729.52L114.88,1726.87L114.14,1729.4L112.26,1729.51L112.27,1724.23L104.35,1726.85L106.75,1721.58L101.45,1721.57L101.46,1718.82L105.28,1716.88L106.76,1713.67L106.37,1709.77L104.39,1705.64L98.12,1705.85L93.56,1708.02L96.46,1713.53L90.94,1710.89L88.53,1718.11L88.06,1726.82L83.45,1724.75L80.72,1720.96L79.65,1716.14L80.12,1710.86L77.78,1710.86L66.7,1726.55L63.15,1736.52L66.83,1748.34L72.39,1732.41L75.06,1732.42L76.98,1739.19L75.04,1745.38L79.48,1743.55L83.3,1743.56L86.2,1745.29L88.02,1748.39L88.01,1750.8L85.05,1751.13L80.03,1753.65L88.01,1753.66L85.55,1758.93L89.42,1760.43L92.43,1760.67L94.77,1759.41L96.37,1756.09L98.76,1758.96L104.29,1756.1L99.5,1761.83L98.63,1765.38L98.74,1769.63L101.36,1769.63L104.51,1760.58L112.89,1756.81L122.81,1754.88L130.45,1750.88Z" fill-rule="evenodd" fill="#4682b4" fill-opacity="0.471"/>
<polyline points="188.92,1433.18 183.67,1446.36 178.71,1454.72 181.78,1458.4 182.57,1460.69 181.43,1461.26 178.7,1460 174.2,1467.33 176.76,1470.78 181.7,1473.53 183.91,1478.7 181.41,1479.04 169.85,1489.57 168.14,1492.21 168.14,1494.84 175.47,1494.05 174.56,1497.49 170.4,1502.87 168.12,1508.37 170.5,1513.31 175.72,1516.87 181.81,1518.83 186.81,1518.84 189.13,1524.34 183.84,1526.17 176.34,1522.03 170.94,1524.32 168.54,1529.02 167.73,1535.89 168.05,1550.92 169.99,1550.81 170.9,1548.05 173.57,1549.21 174.14,1550.24 175.96,1548.06 178.58,1548.07 177.15,1552.08 174.93,1554.48 168.04,1558.72 168.04,1561.58 175.77,1561.59 177.59,1565.04 173.94,1568.01 165.35,1566.85 172.74,1574.89 170.34,1581.65 166.12,1588.3 167.99,1596.1 171.23,1591.98 180,1590.27 183.76,1588.21 185.69,1592.34 185,1596.01 182.49,1599.1 178.5,1601.51 180.67,1602.77 183.73,1607.02 178.78,1608.85 178.49,1615.04 173.25,1612.16 170.8,1620.3 167.95,1620.3 167.96,1612.16 164.99,1620.64 166.34,1628.9 169.23,1637.16 173.19,1657.46 170.74,1660.21 168.06,1659.52 165.51,1656.19 162.39,1649.31 151.07,1679.8 149.56,1695.97 157.24,1703.09 155,1709.85 155.9,1717.42 159.87,1732.57 156.82,1754.02 159.83,1759.07 157.26,1763.65 157.19,1767.44 159.81,1769.74 165.05,1769.74 169.84,1767 173.72,1761.73 178.29,1750.95 182.83,1724.35 186.54,1716.55 188.88,1716.55 187.67,1725.38 184.81,1735.93 183.94,1744.88 188.84,1748.56 185.87,1752.34 184.21,1756.24 184.21,1760.36 186.48,1764.5 183.5,1772.52 180.94,1772.52 180.95,1764.49 175.31,1768.04 167.54,1779.04 162.19,1777.54 162.19,1780.41 159.8,1777.54 156.94,1784.18 154.66,1786.59 151.8,1788.42 151.81,1783.03 146.57,1784.4 142.81,1786.11 140.18,1788.98 138.41,1793.68 135.79,1788.74 129.82,1782.76 128.06,1777.48 119.9,1788.37 122.52,1788.49 128.04,1791.25 117.18,1809.58 120.25,1813.83 125.09,1817.63 121.77,1822.33 114.7,1825.98 112.07,1831.14 111.32,1836.88 112.39,1840.55 117.11,1849.74 119.02,1862.47 116.55,1872.91 106.43,1889.87 104.03,1891.13 101.18,1865.42 104.14,1866.81 104.07,1871.05 106.47,1871.05 105.2,1845.35 100.6,1836.86 90.68,1841.54 91.87,1846.02 91.68,1852.33 90.24,1858.52 87.78,1862.99 85.79,1862.98 80.04,1859.76 77.47,1860.33 75.46,1866.63 65.79,1886.8 59.9,1890.81 53.31,1881.61 51.11,1871.05 50.3,1854.3 45.24,1846.95 30.21,1837.73 23.5,1832.1 19.08,1822.91 8.39,1825.63 8.52,1775.84 14.98,1776.44 19.2,1774.84 19.18,1782.76 20.89,1782.53 24.2,1780.13 26.87,1782.09 29.78,1780.15 32.17,1782.79 46.53,1779.27 51.12,1767 51.02,1737.64 56.99,1741.09 58.92,1743.05 56.57,1726.76 46.2,1725.81 39.49,1724.08 35.16,1721.43 32.04,1717.98 35.57,1716.5 40.87,1716.17 43.16,1713.42 40.49,1710.43 35.76,1708.93 31.38,1706.28 29.98,1700.08 32.37,1700.09 35.26,1703.88 39.87,1705.38 44.71,1704.13 48.42,1700.13 46.21,1698.86 43.2,1694.84 48.44,1694.85 48.44,1691.98 45.6,1691.98 45.6,1689.57 49.42,1688.89 51.36,1686.6 51.82,1683.05 51.15,1678.57 53.77,1678.58 56.5,1680.65 59.04,1689.6 63.07,1694.88 69.83,1700.17 69.86,1689.62 74.23,1692.84 80.15,1694.92 77.49,1689.52 80.39,1688.04 85.92,1687.94 90.99,1686.68 91.34,1682.9 96.53,1678.67 102.91,1676.5 106.83,1678.69 109.51,1678.69 111.57,1668.95 110.73,1665.39 106.86,1662.86 101.8,1662.05 97.41,1663.64 93.82,1666.73 91.02,1670.74 86.92,1669.47 83.12,1665.45 74.34,1669.45 64.38,1670.69 67.92,1665.65 69.75,1661.52 72.49,1658.55 79.03,1657.41 84.79,1655.13 85.65,1649.51 83.18,1636.09 105.64,1645.65 109.57,1645.55 110.41,1651.86 112.29,1650.02 114.24,1643.49 115.05,1636.15 113.4,1636.72 112.43,1638.9 106.92,1633.27 104.52,1636.13 90.02,1627.5 88.26,1625.55 91.29,1622.8 102.33,1623.63 106.94,1622.83 93.75,1614.89 106.55,1616.3 111.67,1615.96 115.09,1612.07 102.7,1604.48 99.07,1601.37 96.67,1604.23 98.5,1599.65 98.85,1596.1 96.64,1593.91 91.17,1593.33 91.18,1590.46 98.01,1588.64 100.75,1586.47 101.72,1583.03 99.62,1580.16 95.75,1579.12 93.65,1577.28 96.73,1572.12 92.24,1570.17 88.2,1571.08 85.13,1573.82 83.3,1577.37 80.29,1573.7 78.82,1569.79 78.88,1565.55 80.43,1561.43 78.1,1561.42 74.79,1566 70.92,1566.8 67.22,1564.84 64.61,1561.39 64.23,1557.03 67.72,1546.26 70.17,1542.48 70.11,1546.61 67.25,1554.63 69,1558.42 73.04,1558.31 77.48,1556.03 80.45,1553.17 82.38,1555.35 85.96,1553.18 91.24,1561.45 93.85,1561.45 96.6,1555.04 100.53,1553.9 103.76,1557.23 104.66,1564.11 115.22,1545.33 125.57,1547.98 125.57,1545.34 121.82,1543.04 120.97,1539.26 122.98,1529.63 126.45,1530.78 128.26,1533.08 128.48,1540.19 137.2,1531.72 140.73,1526.56 137.55,1524.26 137.16,1521.86 128.54,1508.31 125.8,1513.35 125.62,1515.99 123.01,1515.98 119.82,1514.49 118.06,1515.4 115.27,1518.72 113.13,1504.84 111.26,1502.77 106.09,1501.16 102.06,1497.37 96.9,1489.45 99.29,1486.7 94.47,1481.53 85.23,1466.03 78.3,1462.58 88.6,1456.98 84.45,1457.2 81.95,1456.39 78.33,1451.91 82.65,1451.35 85.44,1449.29 86.64,1445.62 86.19,1441.04 81.98,1444.35 80.67,1446.53 63.7,1435.48 57.22,1433.18 53.92,1434.89 49.04,1433.16 45.68,1434.87 30.62,1433.11 45.81,1453.33 51.01,1464.01 43.73,1467.77 43.57,1461.01 39.15,1454.69 33.36,1450.66 29.21,1450.43 21.87,1456.48 17.48,1458.77 13.39,1459.67 11.63,1458.41 14.25,1455.55 20,1451.78 18.88,1443.75 13.44,1438.35 9.39,1435.87 9.42,1422.46 12.17,1422.52 9.57,1417.35 14.87,1411.86 17.02,1417.26 21.16,1420.36 26.05,1421.18 30.65,1419.81 33.03,1424.98 37.12,1423.84 41.38,1425 43.83,1422.6 42.42,1418.24 43.85,1414.57 46.24,1414.58 46.68,1417.67 49.06,1422.61 51.74,1417.46 55.88,1423.08 59.4,1423.09 63.1,1421.04 67.54,1419.9 83.61,1425.09 80.38,1419.47 64.95,1409.11 59.97,1398.9 56.57,1394.76 50.43,1393.03 44.87,1392.44 43.62,1390.72 43.92,1385.1 44.6,1385.56 42.23,1378.22 41.49,1378.45 38.43,1375.34 31.49,1376.93 24.27,1380.93 20.17,1385.05 17.27,1385.04 16.09,1380.45 12.97,1379.41 9.53,1381.05 9.63,1343.5 21.97,1346.53 29.92,1345.74 33.23,1338.18 28.3,1335.99 9.65,1335.49 9.69,1316.85 11.7,1316.81 17.39,1314.64 15.13,1307.64 9.71,1308.49 9.92,1228.55 13.68,1232.89 23.12,1248.96 20.95,1252.17 22.08,1255.04 25.71,1256.76 31.05,1256.89 31.04,1259.76 28.76,1261.93 28.7,1264.45 30.28,1267.32 33.4,1270.2 30.09,1274.2 30.42,1280.05 32.9,1286.25 36.19,1291.53 33.8,1293.59 30.96,1294.15 33.45,1295.19 34.81,1296.8 36.16,1302.42 36.1,1305.29 33.3,1310.32 35.22,1316.63 41.27,1327.43 44.04,1334.31 50.13,1329.28 54.57,1323.44 57.8,1325.17 70.66,1315.8 73.27,1318.67 69.63,1320.38 66.61,1323.01 64.27,1326.79 62.67,1331.72 69.49,1331.96 73.3,1329.1 78.6,1321.09 78.93,1325.22 80.4,1327.74 82.9,1328.09 86.43,1326.15 88.86,1331.77 97.21,1331.79 92.62,1325.7 94.16,1321.92 97.86,1319.18 99.62,1315.86 97.7,1311.27 94.41,1307.71 91.87,1303.46 91.77,1297.15 87.85,1297.95 83.76,1296.56 80.93,1293.58 80.99,1289.22 83.67,1286.24 91.78,1289.24 93.21,1285 90.1,1279.38 81.04,1267.67 86.03,1269.85 88.82,1267.57 88.48,1263.44 83.95,1259.88 83.96,1257.01 92.36,1256.91 100.25,1253.95 105.83,1248.68 107.66,1241.12 105.28,1236.64 93.47,1241.78 86.6,1241.08 94.51,1233.07 86.46,1227.55 80.74,1221.69 80.58,1214.93 89.11,1206.58 89.84,1210.36 91.99,1213.69 95,1214.96 100.28,1211.87 105.33,1211.65 107.73,1203.63 114.26,1202.5 119.31,1204.57 121.23,1209.62 118.26,1217.18 135.87,1211.02 139.39,1208.73 137.18,1204.72 120.98,1190.59 123.36,1189.1 123.59,1187.95 120.99,1185.31 124.96,1184.06 127.24,1181.08 129.12,1171.8 123.62,1173.39 117.49,1170.98 112.51,1165.92 110.48,1159.61 106.62,1159.83 99.99,1155.69 98.01,1151.91 107.83,1152.84 105.46,1144.93 108.57,1148.6 111.92,1149.87 115.27,1148.62 118.39,1144.95 130.64,1148.87 136.21,1140.05 136.18,1126.41 131.55,1115.74 135.41,1112.77 139.38,1111.06 148.8,1110.15 153.79,1108.9 153.8,1105.46 150.3,1095.83 145.54,1093.64 116.04,1100.01 105.49,1099.42 100,1095.51 98.02,1088.74 97.7,1079.8 96.63,1074.75 93.41,1068.9 94.84,1064.89 97.45,1063.17 110.67,1059.53 110.67,1057.12 104.67,1055.39 100.13,1052.98 97.02,1049.19 94.88,1043.34 99.55,1033.94 93.77,1031.53 95.7,1029.12 98.88,1027.18 100.18,1027.41 108.15,1012.18 110.76,1009.09 116.15,1007.26 119.66,1008.99 123.4,1012.09 129.4,1014.4 127.31,1007.29 121.72,1000.74 117.31,993.17 118.69,982.51 122.21,978.16 130.32,971.64 131.81,964.99 129.84,956.62 130.35,954.1 138.91,950.79 143.22,950.34 150.53,952.76 142.41,961 145.23,967.08 142.05,970.4 137.06,973.37 134.5,978.29 127.75,987.68 125.07,994.9 128.01,998.23 135.14,1002.71 135.58,1011.54 129.28,1017.72 116.19,1014.37 109.65,1027.77 108.05,1032.81 108.03,1044.85 108.93,1048.41 113.69,1048.99 116.12,1051.63 117.59,1056.1 117.7,1060.23 116.33,1064.13 113.49,1067.79 111.05,1068.24 104.19,1067.54 102.71,1069.03 103.9,1072.59 107.8,1079.24 106.77,1082.45 107.61,1088.19 120.25,1088.9 155.7,1086.09 161.03,1087.25 163.23,1090.34 165.83,1100.09 166.22,1105.71 163.2,1110.18 166.94,1114.77 172.04,1116.04 176.64,1114.44 179.2,1110.2 181.86,1110.2 180.6,1118.46 175.89,1119.83 169.49,1119.01 163.19,1121.07 157.46,1118.42 150.66,1116.69 144.14,1116.45 139.54,1118.16 145.6,1120.81 152.86,1121.05 146.33,1126.89 144.97,1129.06 144.56,1132.85 145.51,1141.22 144.94,1145 140.28,1150.38 126.43,1155.74 121.03,1160.89 128.01,1160.45 150.7,1164.73 149.67,1166.67 144.9,1169.19 138.13,1181.1 133.91,1193.59 144.51,1199.34 168.57,1201.33 171.24,1198.35 173.85,1198.7 169.35,1210.27 167.25,1211.76 163.05,1210.95 154.03,1206.69 147.73,1208.63 140.68,1217.68 113.2,1224.97 113.52,1230.93 117.48,1238.39 123.15,1244.59 128.99,1246.43 125.35,1250.67 115.24,1253.86 113.13,1258.56 110.75,1260.04 98.81,1264.49 94.44,1265.29 111.41,1267.73 115.72,1270.37 116.45,1274.04 111.78,1281.83 110.24,1286.64 113.08,1286.65 118.2,1281.61 126.27,1278.41 133.59,1279.8 136.81,1287.95 135.68,1288.98 130.03,1303.87 127.75,1307.88 125.98,1315.56 123.36,1318.77 123.35,1321.17 129.89,1319.81 133.76,1313.97 136.95,1307.1 141.84,1302.63 139.24,1297.24 142.82,1295.18 147.08,1297.25 146.4,1292.32 144.7,1289.34 146.98,1285.33 150.22,1282.93 154.26,1281.67 159.2,1281.34 160.9,1279.5 165.46,1270.68 168.47,1267.82 171.3,1276.08 166.24,1282.49 162.6,1283.86 157.89,1283.74 157.88,1286.72 162.93,1289.37 155.26,1291.76 162.13,1292.35 168.43,1294.42 168.43,1297.29 161.1,1297.5 157.52,1299.91 158.71,1302.32 165.75,1302.67 165.75,1305.31 162.17,1307.02 160.51,1310.57 156.77,1309.19 144.67,1310.55 149.37,1319.15 163.22,1321.01 168.38,1326.29 168.39,1323.66 171.91,1326.18 173.67,1326.3 170.48,1329.85 168.94,1333.29 169.11,1336.5 171.21,1339.6 173.65,1339.6 176.26,1337.2 176.76,1349.35 175.44,1354.05 171.18,1356.11 174.02,1360.01 176.23,1361.16 172.82,1364.36 170.94,1368.15 168.31,1377.31 174.16,1379.04 175.69,1383.06 176.18,1393.26 171.13,1390.85 172.03,1398.53 174.47,1400.6 178.79,1401.29 174.69,1406.56 173.55,1410.23 173.54,1414.81 168.83,1411.37 160.54,1401.95 155.09,1398.62 161.72,1410.9 160.35,1414.8 144.49,1420.04 146.76,1424.06 150.22,1426.93 154.76,1427.74 160.34,1425.23 162.83,1433.03 155.65,1442.88 155.01,1449.41 158.3,1455.04 162,1454.24 165.59,1449.78 168.61,1443.93 175.03,1442.57 177.65,1438.33 177.66,1432.94 176.13,1427.89 181.42,1430.76 183.98,1423.43 183.99,1420.1 189.27,1422.86 189.28,1412.2 192.18,1412.2 192.4,1420.23 188.92,1433.18" fill="none" stroke="#1e1e1e" stroke-width="1.63" stroke-linecap="round" stroke-linejoin="round"/>
<polyline points="130.45,1750.88 135.08,1741.36 133.1,1733.56 122.64,1718.86 118.88,1723.9 117.33,1729.52 114.88,1726.87 114.14,1729.4 112.26,1729.51 112.27,1724.23 104.35,1726.85 106.75,1721.58 101.45,1721.57 101.46,1718.82 105.28,1716.88 106.76,1713.67 106.37,1709.77 104.39,1705.64 98.12,1705.85 93.56,1708.02 96.46,1713.53 90.94,1710.89 88.53,1718.11 88.06,1726.82 83.45,1724.75 80.72,1720.96 79.65,1716.14 80.12,1710.86 77.78,1710.86 66.7,1726.55 63.15,1736.52 66.83,1748.34 72.39,1732.41 75.06,1732.42 76.98,1739.19 75.04,1745.38 79.48,1743.55 83.3,1743.56 86.2,1745.29 88.02,1748.39 88.01,1750.8 85.05,1751.13 80.03,1753.65 88.01,1753.66 85.55,1758.93 89.42,1760.43 92.43,1760.67 94.77,1759.41 96.37,1756.09 98.76,1758.96 104.29,1756.1 99.5,1761.83 98.63,1765.38 98.74,1769.63 101.36,1769.63 104.51,1760.58 112.89,1756.81 122.81,1754.88 130.45,1750.88" fill="none" stroke="#1e1e1e" stroke-width="1.63" stroke-linecap="round" stroke-linejoin="round"/>
<text x="59.01" y="1523.86" font-family="sans-serif" font-size="14" stroke="#ffffff" stroke-opacity="0.784" stroke-width="2.33" stroke-linejoin="round" paint-order="stroke" fill="#141414">Lake Volta</text>
</svg>
