<?xml version="1.0" encoding="UTF-8" standalone="no"?>
<svg xmlns="http://www.w3.org/2000/svg" width="773" height="2000" viewBox="0 0 773 2000">
<rect width="773" height="2000" fill="#ffffff"/>
<path d="M528.95,1979.56L528.54,1957.34L483.58,1956.99L483.58,1950.36L477.76,1941.79L477.76,1940.23L476.59,1939.06L476.98,1937.5L472.33,1931.66L470.39,1932.44L466.13,1930.49L464.58,1928.94L463.02,1925.43L460.7,1923.48L461.09,1921.92L457.98,1916.47L457.59,1911.79L454.49,1908.67L453.33,1902.05L454.49,1896.59L453.71,1895.81L454.1,1894.64L452.55,1892.69L409.94,1893.49L406.84,1886.08L402.19,1879.84L395.99,1873.61L387.86,1868.54L369.65,1863.86L367.33,1854.51L354.55,1850.22L352.23,1835.02L345.26,1831.9L342.55,1827.22L342.17,1822.55L339.84,1817.09L343.33,1812.42L353.79,1803.85L351.08,1795.66L346.05,1791.76L337.53,1794.1L331.72,1792.93L329.01,1790.98L329.01,1790.2L331.34,1790.59L330.95,1789.42L324.37,1784.35L323.6,1784.74L323.6,1786.3L321.66,1785.91L322.43,1787.08L321.27,1787.47L318.56,1786.3L317.02,1784.35L315.08,1779.28L313.15,1776.94L310.44,1776.16L310.83,1774.6L311.99,1774.6L311.99,1773.82L310.05,1773.43L311.22,1771.87L313.15,1764.08L315.87,1760.58L314.71,1758.63L314.71,1756.29L313.16,1755.12L313.94,1750.05L314.71,1749.66L314.71,1744.6L312.78,1741.87L314.33,1737.59L315.88,1735.64L308.53,1731.35L306.21,1732.13L304.27,1729.4L302.72,1730.56L301.95,1729.79L299.24,1731.34L296.92,1728.61L295.37,1728.61L294.6,1727.44L289.18,1726.66L286.48,1721.98L287.64,1721.59L283.77,1718.47L284.16,1717.31L283.39,1715.75L284.16,1715.75L284.94,1713.8L284.94,1711.46L286.87,1711.85L288.03,1710.68L287.26,1709.9L288.81,1708.74L285.71,1707.56L284.94,1707.95L284.94,1706.4L283.39,1706L283.39,1704.45L284.17,1704.06L283.78,1702.89L282.24,1701.72L281.46,1702.11L276.82,1698.6L275.66,1698.6L274.89,1699.76L275.66,1700.93L272.95,1701.71L270.24,1700.15L269.87,1689.24L274.51,1687.69L274.51,1686.13L271.42,1682.23L277.61,1679.89L279.54,1678.34L280.32,1674.83L282.26,1671.72L282.26,1666.26L283.42,1665.48L283.04,1663.53L281.1,1661.58L278.78,1660.8L277.24,1661.58L277.24,1659.63L266.8,1655.73L266.41,1653.78L267.96,1651.06L266.42,1648.72L267.58,1647.16L266.03,1644.82L271.06,1642.49L273.39,1638.98L276.48,1637.04L278.8,1637.04L284.99,1635.09L288.08,1636.26L292.72,1633.93L295.43,1631.2L293.89,1629.65L298.14,1624.97L296.99,1620.3L298.53,1619.52L295.45,1610.17L300.86,1600.82L302.03,1597.7L302.03,1596.53L300.87,1596.14L302.03,1594.98L301.26,1592.25L297.39,1591.86L296.62,1589.52L294.69,1589.13L293.91,1589.91L293.53,1589.13L294.69,1586.79L295.46,1581.34L298.17,1579.78L299.33,1575.5L298.56,1573.55L300.11,1573.94L301.65,1573.16L303.59,1570.43L303.59,1566.93L302.04,1565.76L303.21,1562.64L305.91,1561.86L309.78,1552.91L311.33,1542.78L312.11,1542L311.72,1540.83L312.88,1538.49L314.05,1520.57L314.82,1519.02L315.98,1520.19L316.75,1519.8L315.98,1514.73L317.92,1513.17L319.08,1510.06L315.61,1497.98L315.22,1494.09L312.52,1489.02L313.29,1486.68L315.61,1485.9L313.3,1481.23L314.07,1478.89L313.68,1477.33L309.82,1476.16L307.89,1477.72L306.35,1473.82L305.57,1474.21L303.64,1472.65L299.78,1475.38L297.46,1475.77L296.3,1477.71L284.71,1480.82L281.23,1478.48L278.15,1474.97L277.38,1472.64L275.83,1472.25L275.06,1469.52L273.13,1469.13L271.97,1467.18L272.75,1466.01L272.36,1463.67L271.2,1462.5L271.59,1461.34L270.43,1460.95L271.21,1459.39L270.43,1459L270.43,1457.83L271.21,1456.66L270.44,1455.1L268.89,1454.71L266.96,1455.88L266.19,1454.32L266.96,1451.59L265.81,1450.42L266.19,1448.87L267.74,1448.48L269.67,1446.53L268.13,1445.36L268.51,1442.64L266.97,1441.08L267.74,1439.52L265.43,1432.9L266.21,1432.51L267.77,1407.19L267.39,1404.07L265.84,1403.68L265.07,1402.51L267.39,1402.13L271.25,1399.79L272.41,1397.84L275.12,1396.68L279.75,1396.68L279.75,1395.9L282.84,1393.96L291.33,1391.24L291.72,1388.9L290.56,1387.73L290.18,1381.5L290.19,1372.15L292.9,1359.69L294.83,1358.13L300.23,1356.58L304.48,1359.69L306.02,1358.92L306.8,1357.36L304.1,1350.35L302.94,1345.67L303.33,1343.33L301.79,1342.17L301.4,1339.44L301.79,1338.66L304.49,1338.27L304.11,1336.32L308.74,1334.77L308.74,1330.09L307.2,1326.59L308.36,1324.64L303.73,1323.86L303.73,1322.69L305.27,1321.91L303.34,1320.74L303.73,1312.18L304.89,1307.89L304.12,1307.5L304.51,1305.94L306.05,1305.56L307.21,1295.82L305.29,1292.7L304.9,1289.59L306.06,1288.81L304.14,1275.56L303.37,1272.84L302.6,1272.84L301.06,1266.99L301.83,1265.44L301.06,1265.05L301.45,1263.49L298.75,1260.76L299.52,1259.2L298.36,1259.2L296.05,1251.8L295.67,1247.91L297.21,1248.3L299.91,1247.13L299.14,1244.01L296.44,1241.29L295.67,1238.56L297.6,1236.61L294.52,1228.43L295.68,1227.65L295.3,1225.32L296.46,1224.15L296.46,1221.81L295.69,1220.25L294.14,1220.25L292.99,1213.24L291.07,1207.79L291.45,1203.89L294.15,1203.9L293.38,1201.17L293.39,1190.26L296.09,1189.49L299.17,1189.88L300.72,1187.54L299.95,1186.76L300.72,1180.92L299.57,1176.64L301.5,1175.86L302.27,1171.96L299.57,1172.35L296.1,1171.18L296.1,1170.01L294.56,1169.62L292.25,1166.89L293.41,1163.78L296.49,1161.06L298.42,1160.28L300.35,1160.67L300.73,1159.89L303.43,1160.28L304.2,1159.89L304.2,1158.33L306.9,1156.78L306.52,1154.44L307.29,1153.27L306.13,1152.88L306.52,1151.71L311.53,1148.21L311.54,1142.76L319.63,1143.15L320.02,1142.37L325.03,1143.16L328.5,1140.82L329.27,1136.15L330.81,1134.59L339.68,1131.48L343.91,1132.65L347.38,1132.26L346.61,1130.7L347.38,1129.92L347.39,1121.35L346.62,1120.96L346.62,1118.63L347.39,1117.85L346.62,1116.29L347,1114.34L345.85,1113.56L345.85,1112.4L347,1111.62L346.62,1110.45L342.38,1110.06L341.99,1109.28L343.15,1108.5L342.77,1107.72L339.3,1106.94L340.07,1101.1L338.91,1100.32L339.3,1099.15L338.53,1099.15L340.07,1096.43L338.53,1094.48L335.06,1092.53L337.76,1090.97L337.76,1090.19L333.14,1090.58L333.91,1086.3L332.75,1086.69L330.44,1085.52L330.06,1083.96L328.52,1083.57L327.36,1084.35L324.67,1082.01L324.67,1081.23L323.9,1081.62L320.04,1080.06L317.73,1080.45L316.96,1079.67L316.58,1074.61L317.73,1074.22L316.96,1073.44L317.74,1071.88L316.97,1067.99L318.51,1067.6L318.51,1066.43L316.58,1064.87L315.82,1060.2L314.28,1058.64L315.05,1053.58L314.28,1051.63L312.35,1050.07L309.66,1050.85L308.12,1050.46L306.96,1048.51L308.5,1046.17L303.88,1043.83L301.19,1044.22L297.34,1042.27L293.48,1043.05L291.56,1039.54L288.09,1039.54L286.94,1038.37L285.4,1039.54L285.78,1038.37L285.02,1036.81L285.79,1036.03L283.48,1034.47L282.71,1031.36L281.94,1030.58L278.86,1030.58L277.7,1029.41L278.86,1029.41L279.24,1028.63L276.55,1028.63L272.31,1026.68L271.93,1024.34L270.77,1024.34L270.01,1022L267.69,1024.34L262.69,1024.33L262.69,1021.61L261.54,1020.83L260.38,1021.99L258.46,1020.05L259.23,1018.49L256.15,1014.98L256.92,1013.03L255.38,1011.47L252.69,1011.47L252.3,1010.69L250.76,1012.64L246.53,1011.86L247.68,1011.08L247.3,1010.3L213.47,955.74L214.25,953.4L212.71,953.01L210.02,950.28L218.1,950.29L220.41,949.13L220.03,947.57L215.41,947.17L211.56,943.27L213.11,941.33L211.96,935.49L216.58,935.88L216.19,934.71L216.96,933.54L219.27,936.27L220.04,934.72L222.35,935.5L223.51,934.72L227.74,935.5L229.28,936.67L229.27,940.18L230.81,940.57L233.51,938.24L234.66,938.63L235.82,936.29L233.9,934.34L231.97,936.29L231.2,935.12L231.59,933.95L232.36,932.78L236.59,931.62L238.52,928.12L243.14,928.51L242.75,931.63L244.29,932.02L245.83,935.13L246.98,935.52L247.37,932.8L251.6,933.19L255.07,932.42L255.84,930.08L258.54,926.97L256.61,924.63L257.77,921.51L258.93,921.51L257.01,917.23L261.63,913.34L261.63,911.39L262.78,910.61L265.48,911.78L266.63,911.01L266.63,909.06L265.1,907.11L266.25,905.94L266.25,904.38L269.33,902.05L268.18,900.1L267.03,899.71L264.34,892.7L263.18,892.7L263.57,888.03L262.03,887.24L262.42,885.3L263.96,883.35L263.19,882.18L264.73,878.68L262.04,877.12L262.04,875.95L259.74,872.83L256.28,872.44L246.68,852.96L247.45,848.68L247.07,846.34L245.14,845.56L244.38,841.27L242.07,840.88L241.69,836.99L242.08,833.09L244.39,833.48L244.01,824.92L248.25,817.13L249.4,815.96L252.48,815.19L253.64,812.07L253.64,810.9L252.1,808.95L252.87,806.23L251.34,803.11L251.72,801.55L249.8,798.05L257.11,793.77L259.81,794.55L260.58,791.83L263.27,790.66L264.43,785.99L267.12,781.32L267.12,779.37L271.74,773.14L266.75,765.74L260.99,754.44L266.38,745.87L268.69,744.71L271.77,740.04L273.31,735.36L275.61,736.53L279.07,736.15L280.23,732.25L279.46,729.91L277.93,728.36L277.93,725.63L276.01,721.73L279.09,717.45L284.48,696.42L282.56,694.86L280.64,694.47L279.49,689.8L274.11,689.01L272.96,687.46L271.42,687.84L271.04,686.29L268.35,686.28L267.58,683.95L265.66,682.78L262.59,684.33L258.75,683.55L258.75,681.6L256.83,680.82L257.6,680.04L256.83,678.48L257.98,678.1L257.99,676.93L260.29,676.15L259.91,674.98L261.06,672.65L259.91,672.26L259.14,669.14L254.54,664.85L252.23,665.63L249.93,664.46L246.47,664.06L245.32,662.89L244.55,663.67L244.17,661.72L242.63,662.11L242.25,660.55L239.18,660.16L237.25,661.33L233.8,661.32L233.41,660.55L226.88,660.15L226.12,659.37L226.11,660.93L223.43,660.92L222.66,662.09L221.12,661.7L220.35,662.48L216.12,662.86L215.36,662.08L211.13,662.47L208.83,660.13L208.44,661.3L206.52,660.13L204.6,660.12L201.14,663.62L198.83,664.79L201.52,669.47L200.36,670.63L199.6,670.24L198.82,672.97L198.06,673.36L198.44,674.53L196.13,678.42L191.51,680.36L190.36,679.58L189.98,680.75L188.44,681.13L186.52,680.74L184.21,682.3L183.83,683.47L171.52,688.12L168.84,686.56L166.91,687.34L166.15,686.56L166.53,685.78L161.54,683.82L161.93,682.26L160.39,679.93L155.02,674.46L153.88,668.23L154.27,665.5L157.73,665.12L164.25,668.25L171.17,667.87L171.56,665.53L172.71,664.36L176.17,665.15L186.17,658.54L185.4,654.64L180.8,650.74L175.42,649.57L170.43,651.51L164.28,651.89L160.06,649.93L157.76,645.26L157.38,640.19L158.93,635.52L158.93,630.46L164.31,630.85L169.3,633.59L177.76,629.71L181.21,630.49L185.44,629.72L188.51,630.5L190.81,629.33L195.04,628.95L197.34,629.34L199.64,631.68L201.57,631.69L209.63,628.97L212.71,626.64L214.25,623.52L211.18,620.01L209.27,615.34L209.65,613.78L203.51,611.04L201.98,611.04L196.98,614.93L187.76,619.2L183.14,622.31L180.45,622.31L173.17,612.95L172.79,608.28L167.82,598.53L168.2,595.8L173.59,587.24L178.2,588.03L183.95,594.27L184.71,597L188.93,600.51L190.85,600.9L197.77,598.57L201.62,591.57L201.24,588.84L202.01,584.17L200.86,582.22L199.33,574.81L197.03,573.25L191.27,572.86L189.36,570.91L193.6,558.06L191.68,553.77L192.84,552.99L195.14,553L195.91,550.27L194.38,548.71L193.61,545.59L197.46,541.31L196.69,537.42L198.23,535.08L200.92,533.53L204,524.57L204.01,520.67L202.86,516L203.63,515.22L201.72,511.32L202.49,508.6L201.73,502.36L203.27,495.35L205.19,492.24L210.95,490.69L211.72,491.08L215.56,489.53L215.56,484.07L210.96,481.34L209.81,479.39L208.66,479L204.84,469.26L204.46,466.14L206,464.58L207.15,458.74L205.24,454.06L206.4,451.73L207.16,451.73L210.61,454.85L218.28,455.25L220.97,457.2L224.42,456.81L226.34,451.75L225.58,449.02L227.5,442.4L225.59,438.89L221.37,436.16L219.08,433.43L211.02,431.47L207.19,431.47L203.74,429.52L202.59,426.4L202.21,421.72L205.29,416.66L204.52,415.1L206.06,413.55L206.83,411.21L206.07,407.7L202.62,402.25L201.86,399.52L203.4,393.68L201.87,390.17L204.17,387.83L203.41,382.38L205.72,379.65L206.11,375.76L205.34,373.42L206.11,371.47L206.12,363.29L206.89,361.73L211.11,360.96L211.88,359.01L213.79,358.62L213.8,357.07L210.35,355.89L209.2,353.94L209.97,353.55L210.35,354.72L212.27,352.78L212.65,350.05L214.19,349.66L214.19,348.1L215.34,348.11L216.11,346.55L216.87,347.33L219.94,345.77L219.56,343.05L216.11,341.87L213.43,343.04L204.61,343.81L202.7,342.64L201.54,344.58L200.39,344.97L196.18,344.97L195.03,343.8L193.88,343.79L191.96,345.35L190.81,344.18L189.66,344.96L188.51,343.79L189.66,343.01L190.81,343.4L191.2,340.67L194.27,338.73L196.57,338.73L196.57,336.78L195.42,333.67L193.89,333.66L192.36,332.1L190.44,334.83L189.29,334.44L188.53,333.27L188.92,328.59L187.77,327.81L187.77,324.69L186.62,321.96L185.48,321.96L185.09,320.01L183.18,320.79L182.8,319.62L181.26,319.62L178.58,318.06L178.58,316.11L180.5,315.33L182.81,311.83L182.05,305.59L180.13,304.81L178.98,305.59L177.07,300.91L176.31,300.52L173.62,301.69L172.09,300.9L170.94,302.85L169.41,302.85L170.55,304.41L168.64,305.57L168.25,304.79L166.72,305.96L166.34,305.18L163.65,305.57L163.27,304.01L162.12,304.01L160.98,302.84L158.29,302.83L158.29,304.39L154.46,300.49L151.78,300.48L151.4,299.7L152.17,299.31L151.02,298.53L147.95,300.87L148.33,302.43L147.18,301.64L146.03,302.03L147.56,306.32L146.79,307.49L146.79,306.32L144.49,306.32L141.81,307.87L139.89,305.14L140.66,302.8L139.9,302.02L139.13,302.41L137.6,300.07L135.3,299.68L133.77,298.89L133.78,297.73L132.63,297.72L131.87,292.66L133.79,289.54L132.64,288.37L131.87,289.15L130.73,288.37L129.58,285.64L127.28,284.47L126.52,282.91L127.67,282.52L128.44,279.79L126.53,278.62L126.15,277.06L126.92,276.28L125.39,275.11L123.86,269.65L123.87,264.59L122.35,259.91L116.6,258.34L112.4,254.05L90.96,246.21L89.44,238.02L84.09,233.34L83.33,230.61L63.43,224.72L61.52,221.6L45.06,218.44L44.29,217.66L43.92,214.93L40.87,207.91L40.88,204.01L37.83,195.82L33.25,188.8L33.26,187.24L34.03,186.07L39.01,184.91L40.16,183.75L39.4,179.46L40.56,175.57L39.43,169.33L40.96,167.38L40.97,166.21L39.82,165.04L41.74,163.49L42.89,163.88L46.73,157.65L50.56,156.1L50.57,153.76L53.25,151.04L55.93,150.27L56.71,147.15L59.77,145.21L58.63,141.7L59.4,140.92L57.12,135.85L56.74,131.95L58.28,127.28L57.91,121.82L60.6,119.1L63.29,111.7L62.53,111.31L64.83,108.59L64.45,107.81L65.22,106.64L64.08,104.3L64.46,101.18L63.33,96.89L64.86,96.5L66.01,93L66.02,89.1L70.62,87.94L71,88.72L72.15,88.33L72.15,87.55L75.21,84.83L80.58,83.28L79.81,81.72L80.97,78.22L79.07,73.54L77.56,61.45L77.2,50.53L70.71,44.67L69.19,41.94L68.81,38.82L66.14,35.7L66.15,32.97L63.47,32.18L62.32,31.01L60.8,30.62L53.14,33.72L50.45,36.05L47,41.5L43.56,41.1L37.05,42.26L35.14,41.08L30.55,41.07L28.64,39.9L28.65,38.34L23.68,35.99L22.53,36.38L22.15,34.82L19.86,33.64L17.18,34.02L15.65,33.24L14.12,34.02L13.36,33.23L13.74,31.68L12.98,29.33L13.37,27.78L17.21,23.5L16.07,20.38L60.8,29.84L66.91,31.8L70.36,31.42L71.89,30.25L79.92,32.61L82.97,35.73L90.62,36.53L103.24,40.06L168.25,52.65L176.66,55L184.31,55.79L260.43,71.86L255.45,80.82L256.98,82.38L260.8,82.38L261.57,83.16L261.56,85.89L257.34,102.26L293.32,87.08L295.62,87.08L318.97,76.57L392.43,76.59L395.11,77.37L408.5,76.98L411.56,76.2L416.92,76.97L416.92,83.6L408.12,106.6L408.89,110.11L413.1,119.07L413.87,123.36L408.13,129.59L404.3,153.37L377.88,181.43L375.59,184.94L374.05,199.75L377.12,228.58L376.73,239.1L374.43,250.41L368.3,260.93L365.23,318.2L450.72,379.75L476.42,397.27L488.32,406.61L502.13,414.78L509.42,417.89L586.96,466.89L590.12,532.72L591.65,534.28L593.97,539.73L590.15,555.32L590.95,582.58L590.2,591.93L591.36,594.66L591.36,597.77L594.05,600.11L594.44,602.44L592.91,606.73L591.76,607.9L592.16,621.92L580.67,642.97L587.6,656.59L589.53,665.16L591.07,666.71L592.99,666.71L596.45,664.76L598.75,662.03L600.29,662.81L601.06,664.36L604.17,689.29L604.58,706.81L607.29,720.05L611.92,730.95L616.92,737.17L632.32,753.12L640.8,765.57L647.35,772.17L668.91,788.1L672.38,795.5L673.16,799.78L682.41,811.83L685.12,819.62L685.52,827.41L688.61,834.8L689.79,843.75L687.91,867.91L689.85,873.74L689.11,888.93L692.6,900.61L691.88,927.09L691.71,1030.3L705.62,1050.13L704.86,1054.42L699.87,1062.61L697.56,1066.12L694.1,1067.68L691.04,1080.54L691.45,1088.33L687.23,1097.68L687.23,1100.02L695.72,1104.29L697.29,1303.69L699.64,1316.15L700.43,1328.61L700.44,1330.95L697.75,1336.41L698.62,1385.48L701.36,1399.89L702.15,1409.63L701.78,1417.81L704.5,1425.59L702.2,1434.17L702.62,1446.63L699.94,1460.66L700.81,1503.12L700.09,1529.61L699.93,1634.8L667.44,1634.47L668.23,1644.21L670.95,1648.1L674.06,1655.5L675.99,1656.66L674.85,1664.46L676.4,1666.01L677.18,1668.35L683.76,1670.28L685.3,1669.89L685.69,1670.67L685.7,1673.4L684.54,1676.52L686.48,1680.02L685.71,1681.97L683.39,1682.75L682.24,1684.31L683.8,1694.44L682.65,1699.12L684.2,1700.68L688.46,1700.28L688.46,1701.45L687.69,1702.62L684.6,1703.79L681.51,1707.69L681.13,1711.59L682.29,1712.37L686.16,1712.36L688.1,1713.53L688.88,1716.64L686.57,1720.54L686.57,1722.1L688.51,1724.44L691.22,1725.99L693.15,1725.59L692.38,1727.54L690.45,1727.94L689.68,1729.11L689.68,1730.67L691.23,1731.44L692.01,1733.78L692.4,1735.73L691.63,1736.9L686.6,1736.91L683.89,1738.08L683.51,1741.59L681.97,1742.76L682.35,1738.87L681.18,1738.48L680.02,1739.26L680.42,1743.16L678.87,1744.72L679.65,1746.66L680.81,1747.05L680.82,1749.39L678.89,1750.56L676.18,1754.07L673.86,1753.69L673.86,1754.86L676.19,1756.41L676.96,1756.41L676.96,1755.24L678.12,1755.24L679.67,1757.57L678.91,1760.3L681.23,1759.13L682,1759.52L683.17,1761.46L686.65,1763.8L686.66,1765.74L685.11,1766.53L686.28,1768.86L688.98,1768.47L689.76,1769.24L688.22,1771.98L684.35,1771.59L684.74,1775.1L686.29,1776.27L684.75,1778.22L685.14,1779L688.23,1778.6L687.47,1784.06L690.96,1786L692.9,1788.33L694.44,1787.55L697.16,1788.71L698.71,1792.61L701.43,1794.94L701.43,1796.11L703.37,1796.1L704.14,1796.88L704.15,1798.83L707.62,1796.1L709.56,1796.87L708.79,1799.99L706.08,1798.83L706.08,1800L710.35,1802.71L710.35,1805.44L711.13,1806.22L712.29,1806.22L713.83,1803.49L715.38,1803.09L717.33,1808.16L719.65,1806.59L721.58,1806.59L719.66,1809.71L723.15,1813.21L721.99,1814.77L723.54,1815.55L722.38,1817.89L723.17,1822.17L722.39,1822.56L720.07,1820.23L719.29,1820.62L720.85,1824.13L720.08,1826.47L723.57,1826.46L723.57,1828.41L724.35,1828.79L726.66,1826.84L728.99,1828L729,1830.34L729.77,1831.12L732.09,1831.11L732.48,1832.28L734.04,1833.06L737.13,1832.66L737.52,1834.22L734.43,1836.18L734.82,1837.34L736.37,1837.73L736.75,1836.17L741.02,1838.5L742.95,1837.71L742.96,1839.66L741.41,1840.06L740.64,1842.4L744.9,1843.17L742.97,1845.51L743.37,1848.63L748.02,1851.73L748.03,1854.07L749.19,1854.85L750.74,1854.45L751.52,1856.01L753.07,1856.4L752.3,1857.96L750.36,1856.79L749.2,1860.3L747.27,1861.87L747.66,1864.2L751.92,1863.8L751.54,1864.97L749.61,1866.15L748.84,1868.1L751.16,1869.26L751.56,1872.38L755.43,1873.15L754.28,1877.44L756.24,1885.62L755.85,1886.79L753.53,1888.35L756.25,1889.91L755.09,1891.86L755.48,1893.03L757.8,1891.85L757.81,1894.97L760.14,1896.52L759.38,1901.98L757.06,1902.38L757.06,1903.55L758.61,1903.54L759,1904.32L758.23,1905.88L758.62,1906.66L764.82,1910.15L760.95,1912.11L762.51,1913.67L753.21,1914.08L747.79,1917.21L740.82,1917.62L737.73,1919.96L733.85,1919.19L731.53,1919.59L728.43,1921.94L723.78,1921.17L720.3,1923.12L716.42,1921.96L714.48,1922.36L712.17,1925.48L710.23,1926.26L705.97,1925.49L699.39,1929.8L695.13,1930.97L695.52,1931.36L686.61,1932.94L686.22,1933.72L681.19,1935.29L667.63,1937.26L661.05,1938.84L658.72,1940.4L642.06,1942.77L619.21,1949.04L613.79,1949.83L609.14,1951.79L602.55,1952.97L566.14,1965.1L559.94,1968.22L562.27,1970.56L561.5,1970.95L551.42,1971.74L540.57,1974.87L528.95,1979.56Z" fill-rule="evenodd" fill="#4682b4" fill-opacity="0.471"/>
<polyline points="528.95,1979.56 528.54,1957.34 483.58,1956.99 483.58,1950.36 477.76,1941.79 477.76,1940.23 476.59,1939.06 476.98,1937.5 472.33,1931.66 470.39,1932.44 466.13,1930.49 464.58,1928.94 463.02,1925.43 460.7,1923.48 461.09,1921.92 457.98,1916.47 457.59,1911.79 454.49,1908.67 453.33,1902.05 454.49,1896.59 453.71,1895.81 454.1,1894.64 452.55,1892.69 409.94,1893.49 406.84,1886.08 402.19,1879.84 395.99,1873.61 387.86,1868.54 369.65,1863.86 367.33,1854.51 354.55,1850.22 352.23,1835.02 345.26,1831.9 342.55,1827.22 342.17,1822.55 339.84,1817.09 343.33,1812.42 353.79,1803.85 351.08,1795.66 346.05,1791.76 337.53,1794.1 331.72,1792.93 329.01,1790.98 329.01,1790.2 331.34,1790.59 330.95,1789.42 324.37,1784.35 323.6,1784.74 323.6,1786.3 321.66,1785.91 322.43,1787.08 321.27,1787.47 318.56,1786.3 317.02,1784.35 315.08,1779.28 313.15,1776.94 310.44,1776.16 310.83,1774.6 311.99,1774.6 311.99,1773.82 310.05,1773.43 311.22,1771.87 313.15,1764.08 315.87,1760.58 314.71,1758.63 314.71,1756.29 313.16,1755.12 313.94,1750.05 314.71,1749.66 314.71,1744.6 312.78,1741.87 314.33,1737.59 315.88,1735.64 308.53,1731.35 306.21,1732.13 304.27,1729.4 302.72,1730.56 301.95,1729.79 299.24,1731.34 296.92,1728.61 295.37,1728.61 294.6,1727.44 289.18,1726.66 286.48,1721.98 287.64,1721.59 283.77,1718.47 284.16,1717.31 283.39,1715.75 284.16,1715.75 284.94,1713.8 284.94,1711.46 286.87,1711.85 288.03,1710.68 287.26,1709.9 288.81,1708.74 285.71,1707.56 284.94,1707.95 284.94,1706.4 283.39,1706 283.39,1704.45 284.17,1704.06 283.78,1702.89 282.24,1701.72 281.46,1702.11 276.82,1698.6 275.66,1698.6 274.89,1699.76 275.66,1700.93 272.95,1701.71 270.24,1700.15 269.87,1689.24 274.51,1687.69 274.51,1686.13 271.42,1682.23 277.61,1679.89 279.54,1678.34 280.32,1674.83 282.26,1671.72 282.26,1666.26 283.42,1665.48 283.04,1663.53 281.1,1661.58 278.78,1660.8 277.24,1661.58 277.24,1659.63 266.8,1655.73 266.41,1653.78 267.96,1651.06 266.42,1648.72 267.58,1647.16 266.03,1644.82 271.06,1642.49 273.39,1638.98 276.48,1637.04 278.8,1637.04 284.99,1635.09 288.08,1636.26 292.72,1633.93 295.43,1631.2 293.89,1629.65 298.14,1624.97 296.99,1620.3 298.53,1619.52 295.45,1610.17 300.86,1600.82 302.03,1597.7 302.03,1596.53 300.87,1596.14 302.03,1594.98 301.26,1592.25 297.39,1591.86 296.62,1589.52 294.69,1589.13 293.91,1589.91 293.53,1589.13 294.69,1586.79 295.46,1581.34 298.17,1579.78 299.33,1575.5 298.56,1573.55 300.11,1573.94 301.65,1573.16 303.59,1570.43 303.59,1566.93 302.04,1565.76 303.21,1562.64 305.91,1561.86 309.78,1552.91 311.33,1542.78 312.11,1542 311.72,1540.83 312.88,1538.49 314.05,1520.57 314.82,1519.02 315.98,1520.19 316.75,1519.8 315.98,1514.73 317.92,1513.17 319.08,1510.06 315.61,1497.98 315.22,1494.09 312.52,1489.02 313.29,1486.68 315.61,1485.9 313.3,1481.23 314.07,1478.89 313.68,1477.33 309.82,1476.16 307.89,1477.72 306.35,1473.82 305.57,1474.21 303.64,1472.65 299.78,1475.38 297.46,1475.77 296.3,1477.71 284.71,1480.82 281.23,1478.48 278.15,1474.97 277.38,1472.64 275.83,1472.25 275.06,1469.52 273.13,1469.13 271.97,1467.18 272.75,1466.01 272.36,1463.67 271.2,1462.5 271.59,1461.34 270.43,1460.95 271.21,1459.39 270.43,1459 270.43,1457.83 271.21,1456.66 270.44,1455.1 268.89,1454.71 266.96,1455.88 266.19,1454.32 266.96,1451.59 265.81,1450.42 266.19,1448.87 267.74,1448.48 269.67,1446.53 268.13,1445.36 268.51,1442.64 266.97,1441.08 267.74,1439.52 265.43,1432.9 266.21,1432.51 267.77,1407.19 267.39,1404.07 265.84,1403.68 265.07,1402.51 267.39,1402.13 271.25,1399.79 272.41,1397.84 275.12,1396.68 279.75,1396.68 279.75,1395.9 282.84,1393.96 291.33,1391.24 291.72,1388.9 290.56,1387.73 290.18,1381.5 290.19,1372.15 292.9,1359.69 294.83,1358.13 300.23,1356.58 304.48,1359.69 306.02,1358.92 306.8,1357.36 304.1,1350.35 302.94,1345.67 303.33,1343.33 301.79,1342.17 301.4,1339.44 301.79,1338.66 304.49,1338.27 304.11,1336.32 308.74,1334.77 308.74,1330.09 307.2,1326.59 308.36,1324.64 303.73,1323.86 303.73,1322.69 305.27,1321.91 303.34,1320.74 303.73,1312.18 304.89,1307.89 304.12,1307.5 304.51,1305.94 306.05,1305.56 307.21,1295.82 305.29,1292.7 304.9,1289.59 306.06,1288.81 304.14,1275.56 303.37,1272.84 302.6,1272.84 301.06,1266.99 301.83,1265.44 301.06,1265.05 301.45,1263.49 298.75,1260.76 299.52,1259.2 298.36,1259.2 296.05,1251.8 295.67,1247.91 297.21,1248.3 299.91,1247.13 299.14,1244.01 296.44,1241.29 295.67,1238.56 297.6,1236.61 294.52,1228.43 295.68,1227.65 295.3,1225.32 296.46,1224.15 296.46,1221.81 295.69,1220.25 294.14,1220.25 292.99,1213.24 291.07,1207.79 291.45,1203.89 294.15,1203.9 293.38,1201.17 293.39,1190.26 296.09,1189.49 299.17,1189.88 300.72,1187.54 299.95,1186.76 300.72,1180.92 299.57,1176.64 301.5,1175.86 302.27,1171.96 299.57,1172.35 296.1,1171.18 296.1,1170.01 294.56,1169.62 292.25,1166.89 293.41,1163.78 296.49,1161.06 298.42,1160.28 300.35,1160.67 300.73,1159.89 303.43,1160.28 304.2,1159.89 304.2,1158.33 306.9,1156.78 306.52,1154.44 307.29,1153.27 306.13,1152.88 306.52,1151.71 311.53,1148.21 311.54,1142.76 319.63,1143.15 320.02,1142.37 325.03,1143.16 328.5,1140.82 329.27,1136.15 330.81,1134.59 339.68,1131.48 343.91,1132.65 347.38,1132.26 346.61,1130.7 347.38,1129.92 347.39,1121.35 346.62,1120.96 346.62,1118.63 347.39,1117.85 346.62,1116.29 347,1114.34 345.85,1113.56 345.85,1112.4 347,1111.62 346.62,1110.45 342.38,1110.06 341.99,1109.28 343.15,1108.5 342.77,1107.72 339.3,1106.94 340.07,1101.1 338.91,1100.32 339.3,1099.15 338.53,1099.15 340.07,1096.43 338.53,1094.48 335.06,1092.53 337.76,1090.97 337.76,1090.19 333.14,1090.58 333.91,1086.3 332.75,1086.69 330.44,1085.52 330.06,1083.96 328.52,1083.57 327.36,1084.35 324.67,1082.01 324.67,1081.23 323.9,1081.62 320.04,1080.06 317.73,1080.45 316.96,1079.67 316.58,1074.61 317.73,1074.22 316.96,1073.44 317.74,1071.88 316.97,1067.99 318.51,1067.6 318.51,1066.43 316.58,1064.87 315.82,1060.2 314.28,1058.64 315.05,1053.58 314.28,1051.63 312.35,1050.07 309.66,1050.85 308.12,1050.46 306.96,1048.51 308.5,1046.17 303.88,1043.83 301.19,1044.22 297.34,1042.27 293.48,1043.05 291.56,1039.54 288.09,1039.54 286.94,1038.37 285.4,1039.54 285.78,1038.37 285.02,1036.81 285.79,1036.03 283.48,1034.47 282.71,1031.36 281.94,1030.58 278.86,1030.58 277.7,1029.41 278.86,1029.41 279.24,1028.63 276.55,1028.63 272.31,1026.68 271.93,1024.34 270.77,1024.34 270.01,1022 267.69,1024.34 262.69,1024.33 262.69,1021.61 261.54,1020.83 260.38,1021.99 258.46,1020.05 259.23,1018.49 256.15,1014.98 256.92,1013.03 255.38,1011.47 252.69,1011.47 252.3,1010.69 250.76,1012.64 246.53,1011.86 247.68,1011.08 247.3,1010.3 213.47,955.74 214.25,953.4 212.71,953.01 210.02,950.28 218.1,950.29 220.41,949.13 220.03,947.57 215.41,947.17 211.56,943.27 213.11,941.33 211.96,935.49 216.58,935.88 216.19,934.71 216.96,933.54 219.27,936.27 220.04,934.72 222.35,935.5 223.51,934.72 227.74,935.5 229.28,936.67 229.27,940.18 230.81,940.57 233.51,938.24 234.66,938.63 235.82,936.29 233.9,934.34 231.97,936.29 231.2,935.12 231.59,933.95 232.36,932.78 236.59,931.62 238.52,928.12 243.14,928.51 242.75,931.63 244.29,932.02 245.83,935.13 246.98,935.52 247.37,932.8 251.6,933.19 255.07,932.42 255.84,930.08 258.54,926.97 256.61,924.63 257.77,921.51 258.93,921.51 257.01,917.23 261.63,913.34 261.63,911.39 262.78,910.61 265.48,911.78 266.63,911.01 266.63,909.06 265.1,907.11 266.25,905.94 266.25,904.38 269.33,902.05 268.18,900.1 267.03,899.71 264.34,892.7 263.18,892.7 263.57,888.03 262.03,887.24 262.42,885.3 263.96,883.35 263.19,882.18 264.73,878.68 262.04,877.12 262.04,875.95 259.74,872.83 256.28,872.44 246.68,852.96 247.45,848.68 247.07,846.34 245.14,845.56 244.38,841.27 242.07,840.88 241.69,836.99 242.08,833.09 244.39,833.48 244.01,824.92 248.25,817.13 249.4,815.96 252.48,815.19 253.64,812.07 253.64,810.9 252.1,808.95 252.87,806.23 251.34,803.11 251.72,801.55 249.8,798.05 257.11,793.77 259.81,794.55 260.58,791.83 263.27,790.66 264.43,785.99 267.12,781.32 267.12,779.37 271.74,773.14 266.75,765.74 260.99,754.44 266.38,745.87 268.69,744.71 271.77,740.04 273.31,735.36 275.61,736.53 279.07,736.15 280.23,732.25 279.46,729.91 277.93,728.36 277.93,725.63 276.01,721.73 279.09,717.45 284.48,696.42 282.56,694.86 280.64,694.47 279.49,689.8 274.11,689.01 272.96,687.46 271.42,687.84 271.04,686.29 268.35,686.28 267.58,683.95 265.66,682.78 262.59,684.33 258.75,683.55 258.75,681.6 256.83,680.82 257.6,680.04 256.83,678.48 257.98,678.1 257.99,676.93 260.29,676.15 259.91,674.98 261.06,672.65 259.91,672.26 259.14,669.14 254.54,664.85 252.23,665.63 249.93,664.46 246.47,664.06 245.32,662.89 244.55,663.67 244.17,661.72 242.63,662.11 242.25,660.55 239.18,660.16 237.25,661.33 233.8,661.32 233.41,660.55 226.88,660.15 226.12,659.37 226.11,660.93 223.43,660.92 222.66,662.09 221.12,661.7 220.35,662.48 216.12,662.86 215.36,662.08 211.13,662.47 208.83,660.13 208.44,661.3 206.52,660.13 204.6,660.12 201.14,663.62 198.83,664.79 201.52,669.47 200.36,670.63 199.6,670.24 198.82,672.97 198.06,673.36 198.44,674.53 196.13,678.42 191.51,680.36 190.36,679.58 189.98,680.75 188.44,681.13 186.52,680.74 184.21,682.3 183.83,683.47 171.52,688.12 168.84,686.56 166.91,687.34 166.15,686.56 166.53,685.78 161.54,683.82 161.93,682.26 160.39,679.93 155.02,674.46 153.88,668.23 154.27,665.5 157.73,665.12 164.25,668.25 171.17,667.87 171.56,665.53 172.71,664.36 176.17,665.15 186.17,658.54 185.4,654.64 180.8,650.74 175.42,649.57 170.43,651.51 164.28,651.89 160.06,649.93 157.76,645.26 157.38,640.19 158.93,635.52 158.93,630.46 164.31,630.85 169.3,633.59 177.76,629.71 181.21,630.49 185.44,629.72 188.51,630.5 190.81,629.33 195.04,628.95 197.34,629.34 199.64,631.68 201.57,631.69 209.63,628.97 212.71,626.64 214.25,623.52 211.18,620.01 209.27,615.34 209.65,613.78 203.51,611.04 201.98,611.04 196.98,614.93 187.76,619.2 183.14,622.31 180.45,622.31 173.17,612.95 172.79,608.28 167.82,598.53 168.2,595.8 173.59,587.24 178.2,588.03 183.95,594.27 184.71,597 188.93,600.51 190.85,600.9 197.77,598.57 201.62,591.57 201.24,588.84 202.01,584.17 200.86,582.22 199.33,574.81 197.03,573.25 191.27,572.86 189.36,570.91 193.6,558.06 191.68,553.77 192.84,552.99 195.14,553 195.91,550.27 194.38,548.71 193.61,545.59 197.46,541.31 196.69,537.42 198.23,535.08 200.92,533.53 204,524.57 204.01,520.67 202.86,516 203.63,515.22 201.72,511.32 202.49,508.6 201.73,502.36 203.27,495.35 205.19,492.24 210.95,490.69 211.72,491.08 215.56,489.53 215.56,484.07 210.96,481.34 209.81,479.39 208.66,479 204.84,469.26 204.46,466.14 206,464.58 207.15,458.74 205.24,454.06 206.4,451.73 207.16,451.73 210.61,454.85 218.28,455.25 220.97,457.2 224.42,456.81 226.34,451.75 225.58,449.02 227.5,442.4 225.59,438.89 221.37,436.16 219.08,433.43 211.02,431.47 207.19,431.47 203.74,429.52 202.59,426.4 202.21,421.72 205.29,416.66 204.52,415.1 206.06,413.55 206.83,411.21 206.07,407.7 202.62,402.25 201.86,399.52 203.4,393.68 201.87,390.17 204.17,387.83 203.41,382.38 205.72,379.65 206.11,375.76 205.34,373.42 206.11,371.47 206.12,363.29 206.89,361.73 211.11,360.96 211.88,359.01 213.79,358.62 213.8,357.07 210.35,355.89 209.2,353.94 209.97,353.55 210.35,354.72 212.27,352.78 212.65,350.05 214.19,349.66 214.19,348.1 215.34,348.11 216.11,346.55 216.87,347.33 219.94,345.77 219.56,343.05 216.11,341.87 213.43,343.04 204.61,343.81 202.7,342.64 201.54,344.58 200.39,344.97 196.18,344.97 195.03,343.8 193.88,343.79 191.96,345.35 190.81,344.18 189.66,344.96 188.51,343.79 189.66,343.01 190.81,343.4 191.2,340.67 194.27,338.73 196.57,338.73 196.57,336.78 195.42,333.67 193.89,333.66 192.36,332.1 190.44,334.83 189.29,334.44 188.53,333.27 188.92,328.59 187.77,327.81 187.77,324.69 186.62,321.96 185.48,321.96 185.09,320.01 183.18,320.79 182.8,319.62 181.26,319.62 178.58,318.06 178.58,316.11 180.5,315.33 182.81,311.83 182.05,305.59 180.13,304.81 178.98,305.59 177.07,300.91 176.31,300.52 173.62,301.69 172.09,300.9 170.94,302.85 169.41,302.85 170.55,304.41 168.64,305.57 168.25,304.79 166.72,305.96 166.34,305.18 163.65,305.57 163.27,304.01 162.12,304.01 160.98,302.84 158.29,302.83 158.29,304.39 154.46,300.49 151.78,300.48 151.4,299.7 152.17,299.31 151.02,298.53 147.95,300.87 148.33,302.43 147.18,301.64 146.03,302.03 147.56,306.32 146.79,307.49 146.79,306.32 144.49,306.32 141.81,307.87 139.89,305.14 140.66,302.8 139.9,302.02 139.13,302.41 137.6,300.07 135.3,299.68 133.77,298.89 133.78,297.73 132.63,297.72 131.87,292.66 133.79,289.54 132.64,288.37 131.87,289.15 130.73,288.37 129.58,285.64 127.28,284.47 126.52,282.91 127.67,282.52 128.44,279.79 126.53,278.62 126.15,277.06 126.92,276.28 125.39,275.11 123.86,269.65 123.87,264.59 122.35,259.91 116.6,258.34 112.4,254.05 90.96,246.21 89.44,238.02 84.09,233.34 83.33,230.61 63.43,224.72 61.52,221.6 45.06,218.44 44.29,217.66 43.92,214.93 40.87,207.91 40.88,204.01 37.83,195.82 33.25,188.8 33.26,187.24 34.03,186.07 39.01,184.91 40.16,183.75 39.4,179.46 40.56,175.57 39.43,169.33 40.96,167.38 40.97,166.21 39.82,165.04 41.74,163.49 42.89,163.88 46.73,157.65 50.56,156.1 50.57,153.76 53.25,151.04 55.93,150.27 56.71,147.15 59.77,145.21 58.63,141.7 59.4,140.92 57.12,135.85 56.74,131.95 58.28,127.28 57.91,121.82 60.6,119.1 63.29,111.7 62.53,111.31 64.83,108.59 64.45,107.81 65.22,106.64 64.08,104.3 64.46,101.18 63.33,96.89 64.86,96.5 66.01,93 66.02,89.1 70.62,87.94 71,88.72 72.15,88.33 72.15,87.55 75.21,84.83 80.58,83.28 79.81,81.72 80.97,78.22 79.07,73.54 77.56,61.45 77.2,50.53 70.71,44.67 69.19,41.94 68.81,38.82 66.14,35.7 66.15,32.97 63.47,32.18 62.32,31.01 60.8,30.62 53.14,33.72 50.45,36.05 47,41.5 43.56,41.1 37.05,42.26 35.14,41.08 30.55,41.07 28.64,39.9 28.65,38.34 23.68,35.99 22.53,36.38 22.15,34.82 19.86,33.64 17.18,34.02 15.65,33.24 14.12,34.02 13.36,33.23 13.74,31.68 12.98,29.33 13.37,27.78 17.21,23.5 16.07,20.38 60.8,29.84 66.91,31.8 70.36,31.42 71.89,30.25 79.92,32.61 82.97,35.73 90.62,36.53 103.24,40.06 168.25,52.65 176.66,55 184.31,55.79 260.43,71.86 255.45,80.82 256.98,82.38 260.8,82.38 261.57,83.16 261.56,85.89 257.34,102.26 293.32,87.08 295.62,87.08 318.97,76.57 392.43,76.59 395.11,77.37 408.5,76.98 411.56,76.2 416.92,76.97 416.92,83.6 408.12,106.6 408.89,110.11 413.1,119.07 413.87,123.36 408.13,129.59 404.3,153.37 377.88,181.43 375.59,184.94 374.05,199.75 377.12,228.58 376.73,239.1 374.43,250.41 368.3,260.93 365.23,318.2 450.72,379.75 476.42,397.27 488.32,406.61 502.13,414.78 509.42,417.89 586.96,466.89 590.12,532.72 591.65,534.28 593.97,539.73 590.15,555.32 590.95,582.58 590.2,591.93 591.36,594.66 591.36,597.77 594.05,600.11 594.44,602.44 592.91,606.73 591.76,607.9 592.16,621.92 580.67,642.97 587.6,656.59 589.53,665.16 591.07,666.71 592.99,666.71 596.45,664.76 598.75,662.03 600.29,662.81 601.06,664.36 604.17,689.29 604.58,706.81 607.29,720.05 611.92,730.95 616.92,737.17 632.32,753.12 640.8,765.57 647.35,772.17 668.91,788.1 672.38,795.5 673.16,799.78 682.41,811.83 685.12,819.62 685.52,827.41 688.61,834.8 689.79,843.75 687.91,867.91 689.85,873.74 689.11,888.93 692.6,900.61 691.88,927.09 691.71,1030.3 705.62,1050.13 704.86,1054.42 699.87,1062.61 697.56,1066.12 694.1,1067.68 691.04,1080.54 691.45,1088.33 687.23,1097.68 687.23,1100.02 695.72,1104.29 697.29,1303.69 699.64,1316.15 700.43,1328.61 700.44,1330.95 697.75,1336.41 698.62,1385.48 701.36,1399.89 702.15,1409.63 701.78,1417.81 704.5,1425.59 702.2,1434.17 702.62,1446.63 699.94,1460.66 700.81,1503.12 700.09,1529.61 699.93,1634.8 667.44,1634.47 668.23,1644.21 670.95,1648.1 674.06,1655.5 675.99,1656.66 674.85,1664.46 676.4,1666.01 677.18,1668.35 683.76,1670.28 685.3,1669.89 685.69,1670.67 685.7,1673.4 684.54,1676.52 686.48,1680.02 685.71,1681.97 683.39,1682.75 682.24,1684.31 683.8,1694.44 682.65,1699.12 684.2,1700.68 688.46,1700.28 688.46,1701.45 687.69,1702.62 684.6,1703.79 681.51,1707.69 681.13,1711.59 682.29,1712.37 686.16,1712.36 688.1,1713.53 688.88,1716.64 686.57,1720.54 686.57,1722.1 688.51,1724.44 691.22,1725.99 693.15,1725.59 692.38,1727.54 690.45,1727.94 689.68,1729.11 689.68,1730.67 691.23,1731.44 692.01,1733.78 692.4,1735.73 691.63,1736.9 686.6,1736.91 683.89,1738.08 683.51,1741.59 681.97,1742.76 682.35,1738.87 681.18,1738.48 680.02,1739.26 680.42,1743.16 678.87,1744.72 679.65,1746.66 680.81,1747.05 680.82,1749.39 678.89,1750.56 676.18,1754.07 673.86,1753.69 673.86,1754.86 676.19,1756.41 676.96,1756.41 676.96,1755.24 678.12,1755.24 679.67,1757.57 678.91,1760.3 681.23,1759.13 682,1759.52 683.17,1761.46 686.65,1763.8 686.66,1765.74 685.11,1766.53 686.28,1768.86 688.98,1768.47 689.76,1769.24 688.22,1771.98 684.35,1771.59 684.74,1775.1 686.29,1776.27 684.75,1778.22 685.14,1779 688.23,1778.6 687.47,1784.06 690.96,1786 692.9,1788.33 694.44,1787.55 697.16,1788.71 698.71,1792.61 701.43,1794.94 701.43,1796.11 703.37,1796.1 704.14,1796.88 704.15,1798.83 707.62,1796.1 709.56,1796.87 708.79,1799.99 706.08,1798.83 706.08,1800 710.35,1802.71 710.35,1805.44 711.13,1806.22 712.29,1806.22 713.83,1803.49 715.38,1803.09 717.33,1808.16 719.65,1806.59 721.58,1806.59 719.66,1809.71 723.15,1813.21 721.99,1814.77 723.54,1815.55 722.38,1817.89 723.17,1822.17 722.39,1822.56 720.07,1820.23 719.29,1820.62 720.85,1824.13 720.08,1826.47 723.57,1826.46 723.57,1828.41 724.35,1828.79 726.66,1826.84 728.99,1828 729,1830.34 729.77,1831.12 732.09,1831.11 732.48,1832.28 734.04,1833.06 737.13,1832.66 737.52,1834.22 734.43,1836.18 734.82,1837.34 736.37,1837.73 736.75,1836.17 741.02,1838.5 742.95,1837.71 742.96,1839.66 741.41,1840.06 740.64,1842.4 744.9,1843.17 742.97,1845.51 743.37,1848.63 748.02,1851.73 748.03,1854.07 749.19,1854.85 750.74,1854.45 751.52,1856.01 753.07,1856.4 752.3,1857.96 750.36,1856.79 749.2,1860.3 747.27,1861.87 747.66,1864.2 751.92,1863.8 751.54,1864.97 749.61,1866.15 748.84,1868.1 751.16,1869.26 751.56,1872.38 755.43,1873.15 754.28,1877.44 756.24,1885.62 755.85,1886.79 753.53,1888.35 756.25,1889.91 755.09,1891.86 755.48,1893.03 757.8,1891.85 757.81,1894.97 760.14,1896.52 759.38,1901.98 757.06,1902.38 757.06,1903.55 758.61,1903.54 759,1904.32 758.23,1905.88 758.62,1906.66 764.82,1910.15 760.95,1912.11 762.51,1913.67 753.21,1914.08 747.79,1917.21 740.82,1917.62 737.73,1919.96 733.85,1919.19 731.53,1919.59 728.43,1921.94 723.78,1921.17 720.3,1923.12 716.42,1921.96 714.48,1922.36 712.17,1925.48 710.23,1926.26 705.97,1925.49 699.39,1929.8 695.13,1930.97 695.52,1931.36 686.61,1932.94 686.22,1933.72 681.19,1935.29 667.63,1937.26 661.05,1938.84 658.72,1940.4 642.06,1942.77 619.21,1949.04 613.79,1949.83 609.14,1951.79 602.55,1952.97 566.14,1965.1 559.94,1968.22 562.27,1970.56 561.5,1970.95 551.42,1971.74 540.57,1974.87 528.95,1979.56" fill="none" stroke="#1e1e1e" stroke-width="1.63" stroke-linecap="round" stroke-linejoin="round"/>
<text x="421.68" y="1043.93" font-family="sans-serif" font-size="14" stroke="#ffffff" stroke-opacity="0.784" stroke-width="2.33" stroke-linejoin="round" paint-order="stroke" fill="#141414">Togo</text>
</svg>
