<?xml version="1.0" encoding="UTF-8" standalone="no"?>
<svg xmlns="http://www.w3.org/2000/svg" width="704" height="2000" viewBox="0 0 704 2000">
<rect width="704" height="2000" fill="#ffffff"/>
<path d="M352,1697.9L355.22,1687.81L359.79,1682.34L363.81,1671.97L369.72,1681.19L371.59,1701.65L371.58,1717.5L368.63,1718.66L353.61,1704.53L352,1697.9Z" fill-rule="evenodd" fill="#4682b4" fill-opacity="0.471"/>
<polyline points="352,1697.9 355.22,1687.81 359.79,1682.34 363.81,1671.97 369.72,1681.19 371.59,1701.65 371.58,1717.5 368.63,1718.66 353.61,1704.53 352,1697.9" fill="none" stroke="#1e1e1e" stroke-width="1.46" stroke-linecap="round" stroke-linejoin="round"/>
<path d="M315.95,1228.65L319.74,1217.41L322.72,1215.4L331.94,1217.12L337.64,1229.79L334.12,1237.56L325.17,1238.43L315.95,1228.65Z" fill-rule="evenodd" fill="#4682b4" fill-opacity="0.471"/>
<polyline points="315.95,1228.65 319.74,1217.41 322.72,1215.4 331.94,1217.12 337.64,1229.79 334.12,1237.56 325.17,1238.43 315.95,1228.65" fill="none" stroke="#1e1e1e" stroke-width="1.46" stroke-linecap="round" stroke-linejoin="round"/>
<path d="M525.18,1231.25L531.71,1224.65L541.47,1222.39L538.73,1229.86L525.18,1231.25Z" fill-rule="evenodd" fill="#4682b4" fill-opacity="0.471"/>
<polyline points="525.18,1231.25 531.71,1224.65 541.47,1222.39 538.73,1229.86 525.18,1231.25" fill="none" stroke="#1e1e1e" stroke-width="1.46" stroke-linecap="round" stroke-linejoin="round"/>
<path d="M172.85,42.07L163.96,43.26L157.83,37.51L156.42,32.04L161.95,25.09L170.83,22.75L178.08,29.07L176.44,38.31L172.85,42.07Z" fill-rule="evenodd" fill="#4682b4" fill-opacity="0.471"/>
<polyline points="172.85,42.07 163.96,43.26 157.83,37.51 156.42,32.04 161.95,25.09 170.83,22.75 178.08,29.07 176.44,38.31 172.85,42.07" fill="none" stroke="#1e1e1e" stroke-width="1.46" stroke-linecap="round" stroke-linejoin="round"/>
<path d="M686.64,132.58L691.62,133.48L682.13,143.22L677.72,139.73L678.59,133.97L686.64,132.58Z" fill-rule="evenodd" fill="#4682b4" fill-opacity="0.471"/>
<polyline points="686.64,132.58 691.62,133.48 682.13,143.22 677.72,139.73 678.59,133.97 686.64,132.58" fill="none" stroke="#1e1e1e" stroke-width="1.46" stroke-linecap="round" stroke-linejoin="round"/>
<path d="M329.16,1635.95L323.25,1638.83L316.81,1650.36L317.62,1661.03L310.64,1666.22L297.21,1659.89L293.17,1651.83L284.84,1646.94L271.94,1644.94L253.91,1631.43L249.57,1614.15L254.41,1615.3L256.04,1621.34L267.87,1624.2L285.61,1623.31L290.72,1629.64L282.67,1635.7L289.39,1640.31L291.8,1633.67L307.12,1635.96L311.16,1642.3L315.19,1636.53L310.35,1632.21L312.22,1625.01L321.09,1622.12L332.65,1626.15L335.88,1632.49L329.16,1635.95Z" fill-rule="evenodd" fill="#4682b4" fill-opacity="0.471"/>
<polyline points="329.16,1635.95 323.25,1638.83 316.81,1650.36 317.62,1661.03 310.64,1666.22 297.21,1659.89 293.17,1651.83 284.84,1646.94 271.94,1644.94 253.91,1631.43 249.57,1614.15 254.41,1615.3 256.04,1621.34 267.87,1624.2 285.61,1623.31 290.72,1629.64 282.67,1635.7 289.39,1640.31 291.8,1633.67 307.12,1635.96 311.16,1642.3 315.19,1636.53 310.35,1632.21 312.22,1625.01 321.09,1622.12 332.65,1626.15 335.88,1632.49 329.16,1635.95" fill="none" stroke="#1e1e1e" stroke-width="1.46" stroke-linecap="round" stroke-linejoin="round"/>
<path d="M448.49,955.17L444.94,961.21L440.58,961.49L435.14,954.57L441.96,948.83L448.49,955.17Z" fill-rule="evenodd" fill="#4682b4" fill-opacity="0.471"/>
<polyline points="448.49,955.17 444.94,961.21 440.58,961.49 435.14,954.57 441.96,948.83 448.49,955.17" fill="none" stroke="#1e1e1e" stroke-width="1.46" stroke-linecap="round" stroke-linejoin="round"/>
<path d="M618.03,908.01L611.21,907.69L608.16,917.17L602.43,917.14L600.59,903.6L609.59,904.8L616.72,897.06L617.31,890.15L623.87,887.6L628.77,890.22L636.42,889.11L639.13,892.01L639.86,906.7L634.95,907.53L627.55,912.96L619.1,910.9L618.03,908.01Z" fill-rule="evenodd" fill="#4682b4" fill-opacity="0.471"/>
<polyline points="618.03,908.01 611.21,907.69 608.16,917.17 602.43,917.14 600.59,903.6 609.59,904.8 616.72,897.06 617.31,890.15 623.87,887.6 628.77,890.22 636.42,889.11 639.13,892.01 639.86,906.7 634.95,907.53 627.55,912.96 619.1,910.9 618.03,908.01" fill="none" stroke="#1e1e1e" stroke-width="1.46" stroke-linecap="round" stroke-linejoin="round"/>
<text x="247.52" y="1645.94" font-family="sans-serif" font-size="14" stroke="#ffffff" stroke-opacity="0.784" stroke-width="2.33" stroke-linejoin="round" paint-order="stroke" fill="#141414">Tongatapu</text>
<text x="594.33" y="908.97" font-family="sans-serif" font-size="14" stroke="#ffffff" stroke-opacity="0.784" stroke-width="2.33" stroke-linejoin="round" paint-order="stroke" fill="#141414">Vava'u</text>
<text x="345.93" y="1703.83" font-family="sans-serif" font-size="14" stroke="#ffffff" stroke-opacity="0.784" stroke-width="2.33" stroke-linejoin="round" paint-order="stroke" fill="#141414">'Eua</text>
<text x="295.43" y="1234.11" font-family="sans-serif" font-size="14" stroke="#ffffff" stroke-opacity="0.784" stroke-width="2.33" stroke-linejoin="round" paint-order="stroke" fill="#141414">Ha'apai</text>
<text x="143.57" y="40.22" font-family="sans-serif" font-size="14" stroke="#ffffff" stroke-opacity="0.784" stroke-width="2.33" stroke-linejoin="round" paint-order="stroke" fill="#141414">Niuas</text>
</svg>
