<?xml version="1.0" encoding="UTF-8" standalone="no"?>
<svg xmlns="http://www.w3.org/2000/svg" width="704" height="2000" viewBox="0 0 704 2000">
<rect width="704" height="2000" fill="#ffffff"/>
<path d="M23.32,1977.57L21.69,1973.83L24.09,1972.95L25.7,1974.96L24.39,1977.27L23.32,1977.57Z" fill-rule="evenodd" fill="#4682b4" fill-opacity="0.471"/>
<polyline points="23.32,1977.57 21.69,1973.83 24.09,1972.95 25.7,1974.96 24.39,1977.27 23.32,1977.57" fill="none" stroke="#1e1e1e" stroke-width="1.46" stroke-linecap="round" stroke-linejoin="round"/>
<path d="M358.44,1722.69L357.9,1723.84L356.83,1722.98L357.36,1722.11L358.44,1722.69Z" fill-rule="evenodd" fill="#4682b4" fill-opacity="0.471"/>
<polyline points="358.44,1722.69 357.9,1723.84 356.83,1722.98 357.36,1722.11 358.44,1722.69" fill="none" stroke="#1e1e1e" stroke-width="1.46" stroke-linecap="round" stroke-linejoin="round"/>
<path d="M352,1697.9L352.54,1693.87L354.15,1690.12L356.29,1685.8L359.79,1682.34L361.93,1678.3L363.81,1671.97L366.77,1669.08L367.84,1669.08L368.65,1670.81L367.84,1674.85L369.72,1681.19L370.25,1684.94L369.72,1685.8L370.79,1690.99L370.25,1697.04L371.59,1701.65L370.78,1708.86L371.85,1712.32L371.58,1717.5L369.44,1719.52L361.39,1711.74L358.71,1710.58L355.76,1705.97L353.07,1703.67L352,1697.9Z" fill-rule="evenodd" fill="#4682b4" fill-opacity="0.471"/>
<polyline points="352,1697.9 352.54,1693.87 354.15,1690.12 356.29,1685.8 359.79,1682.34 361.93,1678.3 363.81,1671.97 366.77,1669.08 367.84,1669.08 368.65,1670.81 367.84,1674.85 369.72,1681.19 370.25,1684.94 369.72,1685.8 370.79,1690.99 370.25,1697.04 371.59,1701.65 370.78,1708.86 371.85,1712.32 371.58,1717.5 369.44,1719.52 361.39,1711.74 358.71,1710.58 355.76,1705.97 353.07,1703.67 352,1697.9" fill="none" stroke="#1e1e1e" stroke-width="1.46" stroke-linecap="round" stroke-linejoin="round"/>
<path d="M288.58,1633.39L289.66,1635.98L288.85,1636.56L288.58,1633.39Z" fill-rule="evenodd" fill="#4682b4" fill-opacity="0.471"/>
<polyline points="288.58,1633.39 289.66,1635.98 288.85,1636.56 288.58,1633.39" fill="none" stroke="#1e1e1e" stroke-width="1.46" stroke-linecap="round" stroke-linejoin="round"/>
<path d="M303.36,1631.36L302.82,1631.64L302.82,1628.76L304.43,1629.34L303.36,1631.36Z" fill-rule="evenodd" fill="#4682b4" fill-opacity="0.471"/>
<polyline points="303.36,1631.36 302.82,1631.64 302.82,1628.76 304.43,1629.34 303.36,1631.36" fill="none" stroke="#1e1e1e" stroke-width="1.46" stroke-linecap="round" stroke-linejoin="round"/>
<path d="M305.5,1628.76L306.31,1626.74L306.85,1629.91L305.5,1628.76Z" fill-rule="evenodd" fill="#4682b4" fill-opacity="0.471"/>
<polyline points="305.5,1628.76 306.31,1626.74 306.85,1629.91 305.5,1628.76" fill="none" stroke="#1e1e1e" stroke-width="1.46" stroke-linecap="round" stroke-linejoin="round"/>
<path d="M345.01,1604.25L343.93,1603.96L344.47,1603.09L345.28,1603.09L345.01,1604.25Z" fill-rule="evenodd" fill="#4682b4" fill-opacity="0.471"/>
<polyline points="345.01,1604.25 343.93,1603.96 344.47,1603.09 345.28,1603.09 345.01,1604.25" fill="none" stroke="#1e1e1e" stroke-width="1.46" stroke-linecap="round" stroke-linejoin="round"/>
<path d="M276.7,1602L276.16,1600.27L277.78,1600.56L276.17,1604.02L276.7,1602Z" fill-rule="evenodd" fill="#4682b4" fill-opacity="0.471"/>
<polyline points="276.7,1602 276.16,1600.27 277.78,1600.56 276.17,1604.02 276.7,1602" fill="none" stroke="#1e1e1e" stroke-width="1.46" stroke-linecap="round" stroke-linejoin="round"/>
<path d="M329.16,1635.95L326.74,1636.24L324.05,1637.97L319.49,1646.04L317.61,1647.77L316.81,1650.36L318.96,1656.7L317.09,1661.89L313.06,1665.64L308.23,1665.93L299.63,1661.91L297.21,1659.89L292.9,1652.69L293.17,1651.83L291.29,1650.1L279.46,1645.22L271.94,1644.94L267.9,1641.49L263.33,1638.91L260.37,1635.74L255.52,1633.45L253.1,1630.57L249.57,1614.15L256.28,1606.36L258.16,1605.78L258.16,1606.93L254.41,1613.28L254.69,1617.6L256.04,1621.34L272.17,1624.77L272.17,1624.19L277.81,1623.32L280.23,1623.89L282.38,1622.74L284.27,1624.75L285.07,1623.6L283.99,1622.45L292.06,1625.32L294.48,1627.04L296.63,1627.62L297.17,1626.75L297.98,1627.9L301.47,1628.19L302.55,1631.36L301.75,1632.22L299.06,1631.94L296.37,1633.38L295.56,1631.94L292.61,1631.37L290.72,1629.64L283.48,1634.84L282.4,1636.86L284.83,1639.45L287.51,1639.44L290.74,1640.59L293.15,1639.15L290.46,1636.56L292.08,1636.56L291.8,1633.67L292.88,1632.81L295.84,1635.69L299.06,1633.67L302.56,1635.39L302.83,1636.83L307.12,1635.96L308.2,1637.11L304.44,1640.29L302.83,1639.43L299.07,1640.58L298.8,1643.46L300.42,1644.9L302.83,1644.9L302.3,1644.32L303.37,1643.17L304.71,1644.9L305.52,1641.44L306.59,1641.44L307.67,1642.59L309.28,1642.01L310.35,1642.88L311.16,1642.3L311.7,1641.15L311.16,1640.28L315.19,1636.53L314.65,1634.52L313.03,1633.65L313.57,1631.35L312.49,1629.91L311.96,1630.48L312.76,1631.35L311.69,1633.08L310.35,1632.21L312.49,1628.75L312.22,1625.01L318.94,1622.41L321.09,1622.12L331.84,1625.57L336.68,1629.89L336.68,1631.05L334.53,1633.93L329.16,1635.95Z" fill-rule="evenodd" fill="#4682b4" fill-opacity="0.471"/>
<polyline points="329.16,1635.95 326.74,1636.24 324.05,1637.97 319.49,1646.04 317.61,1647.77 316.81,1650.36 318.96,1656.7 317.09,1661.89 313.06,1665.64 308.23,1665.93 299.63,1661.91 297.21,1659.89 292.9,1652.69 293.17,1651.83 291.29,1650.1 279.46,1645.22 271.94,1644.94 267.9,1641.49 263.33,1638.91 260.37,1635.74 255.52,1633.45 253.1,1630.57 249.57,1614.15 256.28,1606.36 258.16,1605.78 258.16,1606.93 254.41,1613.28 254.69,1617.6 256.04,1621.34 272.17,1624.77 272.17,1624.19 277.81,1623.32 280.23,1623.89 282.38,1622.74 284.27,1624.75 285.07,1623.6 283.99,1622.45 292.06,1625.32 294.48,1627.04 296.63,1627.62 297.17,1626.75 297.98,1627.9 301.47,1628.19 302.55,1631.36 301.75,1632.22 299.06,1631.94 296.37,1633.38 295.56,1631.94 292.61,1631.37 290.72,1629.64 283.48,1634.84 282.4,1636.86 284.83,1639.45 287.51,1639.44 290.74,1640.59 293.15,1639.15 290.46,1636.56 292.08,1636.56 291.8,1633.67 292.88,1632.81 295.84,1635.69 299.06,1633.67 302.56,1635.39 302.83,1636.83 307.12,1635.96 308.2,1637.11 304.44,1640.29 302.83,1639.43 299.07,1640.58 298.8,1643.46 300.42,1644.9 302.83,1644.9 302.3,1644.32 303.37,1643.17 304.71,1644.9 305.52,1641.44 306.59,1641.44 307.67,1642.59 309.28,1642.01 310.35,1642.88 311.16,1642.3 311.7,1641.15 311.16,1640.28 315.19,1636.53 314.65,1634.52 313.03,1633.65 313.57,1631.35 312.49,1629.91 311.96,1630.48 312.76,1631.35 311.69,1633.08 310.35,1632.21 312.49,1628.75 312.22,1625.01 318.94,1622.41 321.09,1622.12 331.84,1625.57 336.68,1629.89 336.68,1631.05 334.53,1633.93 329.16,1635.95" fill="none" stroke="#1e1e1e" stroke-width="1.46" stroke-linecap="round" stroke-linejoin="round"/>
<path d="M302.54,1624.15L302.27,1622.71L303.08,1623.29L302.54,1624.15Z" fill-rule="evenodd" fill="#4682b4" fill-opacity="0.471"/>
<polyline points="302.54,1624.15 302.27,1622.71 303.08,1623.29 302.54,1624.15" fill="none" stroke="#1e1e1e" stroke-width="1.46" stroke-linecap="round" stroke-linejoin="round"/>
<path d="M350.92,1619.81L352,1620.67L351.19,1622.97L350.12,1623.26L349.04,1620.67L350.92,1619.81Z" fill-rule="evenodd" fill="#4682b4" fill-opacity="0.471"/>
<polyline points="350.92,1619.81 352,1620.67 351.19,1622.97 350.12,1623.26 349.04,1620.67 350.92,1619.81" fill="none" stroke="#1e1e1e" stroke-width="1.46" stroke-linecap="round" stroke-linejoin="round"/>
<path d="M279.16,1623.03L278.08,1622.17L279.42,1621.01L281.58,1622.16L279.16,1623.03Z" fill-rule="evenodd" fill="#4682b4" fill-opacity="0.471"/>
<polyline points="279.16,1623.03 278.08,1622.17 279.42,1621.01 281.58,1622.16 279.16,1623.03" fill="none" stroke="#1e1e1e" stroke-width="1.46" stroke-linecap="round" stroke-linejoin="round"/>
<path d="M302.53,1613.2L302.26,1612.34L303.07,1612.63L302.53,1613.2Z" fill-rule="evenodd" fill="#4682b4" fill-opacity="0.471"/>
<polyline points="302.53,1613.2 302.26,1612.34 303.07,1612.63 302.53,1613.2" fill="none" stroke="#1e1e1e" stroke-width="1.46" stroke-linecap="round" stroke-linejoin="round"/>
<path d="M314.09,1613.19L314.09,1612.33L315.44,1612.04L314.09,1613.19Z" fill-rule="evenodd" fill="#4682b4" fill-opacity="0.471"/>
<polyline points="314.09,1613.19 314.09,1612.33 315.44,1612.04 314.09,1613.19" fill="none" stroke="#1e1e1e" stroke-width="1.46" stroke-linecap="round" stroke-linejoin="round"/>
<path d="M336.68,1614.91L336.41,1614.04L337.48,1613.76L337.48,1614.91L336.68,1614.91Z" fill-rule="evenodd" fill="#4682b4" fill-opacity="0.471"/>
<polyline points="336.68,1614.91 336.41,1614.04 337.48,1613.76 337.48,1614.91 336.68,1614.91" fill="none" stroke="#1e1e1e" stroke-width="1.46" stroke-linecap="round" stroke-linejoin="round"/>
<path d="M330.49,1614.34L329.42,1614.34L329.69,1613.76L330.76,1613.76L330.49,1614.34Z" fill-rule="evenodd" fill="#4682b4" fill-opacity="0.471"/>
<polyline points="330.49,1614.34 329.42,1614.34 329.69,1613.76 330.76,1613.76 330.49,1614.34" fill="none" stroke="#1e1e1e" stroke-width="1.46" stroke-linecap="round" stroke-linejoin="round"/>
<path d="M244.37,1455.13L242.75,1454.85L240.87,1457.16L236.56,1458.03L235.48,1459.19L236.01,1455.73L240.59,1454.85L241.4,1453.41L244.37,1455.13Z" fill-rule="evenodd" fill="#4682b4" fill-opacity="0.471"/>
<polyline points="244.37,1455.13 242.75,1454.85 240.87,1457.16 236.56,1458.03 235.48,1459.19 236.01,1455.73 240.59,1454.85 241.4,1453.41 244.37,1455.13" fill="none" stroke="#1e1e1e" stroke-width="1.46" stroke-linecap="round" stroke-linejoin="round"/>
<path d="M417.29,1445.26L415.94,1444.68L416.48,1443.82L417.29,1445.26Z" fill-rule="evenodd" fill="#4682b4" fill-opacity="0.471"/>
<polyline points="417.29,1445.26 415.94,1444.68 416.48,1443.82 417.29,1445.26" fill="none" stroke="#1e1e1e" stroke-width="1.46" stroke-linecap="round" stroke-linejoin="round"/>
<path d="M409.21,1431.42L410.29,1431.43L410.02,1432.87L409.21,1431.42Z" fill-rule="evenodd" fill="#4682b4" fill-opacity="0.471"/>
<polyline points="409.21,1431.42 410.29,1431.43 410.02,1432.87 409.21,1431.42" fill="none" stroke="#1e1e1e" stroke-width="1.46" stroke-linecap="round" stroke-linejoin="round"/>
<path d="M473.49,1412.25L471.87,1414.55L470.25,1414.54L473.49,1412.25Z" fill-rule="evenodd" fill="#4682b4" fill-opacity="0.471"/>
<polyline points="473.49,1412.25 471.87,1414.55 470.25,1414.54 473.49,1412.25" fill="none" stroke="#1e1e1e" stroke-width="1.46" stroke-linecap="round" stroke-linejoin="round"/>
<path d="M475.15,1399.58L474.6,1400.73L474.34,1400.15L474.88,1398.14L475.15,1399.58Z" fill-rule="evenodd" fill="#4682b4" fill-opacity="0.471"/>
<polyline points="475.15,1399.58 474.6,1400.73 474.34,1400.15 474.88,1398.14 475.15,1399.58" fill="none" stroke="#1e1e1e" stroke-width="1.46" stroke-linecap="round" stroke-linejoin="round"/>
<path d="M425.19,1396.31L421.41,1393.42L423.04,1392.85L425.46,1395.44L425.19,1396.31Z" fill-rule="evenodd" fill="#4682b4" fill-opacity="0.471"/>
<polyline points="425.19,1396.31 421.41,1393.42 423.04,1392.85 425.46,1395.44 425.19,1396.31" fill="none" stroke="#1e1e1e" stroke-width="1.46" stroke-linecap="round" stroke-linejoin="round"/>
<path d="M475.17,1391.22L474.09,1389.49L474.9,1389.78L475.17,1391.22Z" fill-rule="evenodd" fill="#4682b4" fill-opacity="0.471"/>
<polyline points="475.17,1391.22 474.09,1389.49 474.9,1389.78 475.17,1391.22" fill="none" stroke="#1e1e1e" stroke-width="1.46" stroke-linecap="round" stroke-linejoin="round"/>
<path d="M396.58,1379.57L398.47,1380.14L398.74,1382.74L397.66,1382.73L396.58,1379.57Z" fill-rule="evenodd" fill="#4682b4" fill-opacity="0.471"/>
<polyline points="396.58,1379.57 398.47,1380.14 398.74,1382.74 397.66,1382.73 396.58,1379.57" fill="none" stroke="#1e1e1e" stroke-width="1.46" stroke-linecap="round" stroke-linejoin="round"/>
<path d="M444.4,1380.5L443.59,1379.92L446.83,1379.06L446.83,1380.21L444.4,1380.5Z" fill-rule="evenodd" fill="#4682b4" fill-opacity="0.471"/>
<polyline points="444.4,1380.5 443.59,1379.92 446.83,1379.06 446.83,1380.21 444.4,1380.5" fill="none" stroke="#1e1e1e" stroke-width="1.46" stroke-linecap="round" stroke-linejoin="round"/>
<path d="M451.55,1319.45L451.01,1318.59L452.36,1318.88L451.55,1319.45Z" fill-rule="evenodd" fill="#4682b4" fill-opacity="0.471"/>
<polyline points="451.55,1319.45 451.01,1318.59 452.36,1318.88 451.55,1319.45" fill="none" stroke="#1e1e1e" stroke-width="1.46" stroke-linecap="round" stroke-linejoin="round"/>
<path d="M429.92,1309.05L432.09,1309.34L432.63,1311.64L431.27,1311.93L429.92,1309.05Z" fill-rule="evenodd" fill="#4682b4" fill-opacity="0.471"/>
<polyline points="429.92,1309.05 432.09,1309.34 432.63,1311.64 431.27,1311.93 429.92,1309.05" fill="none" stroke="#1e1e1e" stroke-width="1.46" stroke-linecap="round" stroke-linejoin="round"/>
<path d="M407.47,1302.68L408.29,1302.1L410.18,1302.97L409.91,1305.56L409.09,1305.85L406.66,1304.41L407.47,1302.68Z" fill-rule="evenodd" fill="#4682b4" fill-opacity="0.471"/>
<polyline points="407.47,1302.68 408.29,1302.1 410.18,1302.97 409.91,1305.56 409.09,1305.85 406.66,1304.41 407.47,1302.68" fill="none" stroke="#1e1e1e" stroke-width="1.46" stroke-linecap="round" stroke-linejoin="round"/>
<path d="M416.15,1293.47L415.61,1292.32L416.15,1291.75L416.69,1292.03L416.15,1293.47Z" fill-rule="evenodd" fill="#4682b4" fill-opacity="0.471"/>
<polyline points="416.15,1293.47 415.61,1292.32 416.15,1291.75 416.69,1292.03 416.15,1293.47" fill="none" stroke="#1e1e1e" stroke-width="1.46" stroke-linecap="round" stroke-linejoin="round"/>
<path d="M402.8,1369.78L403.34,1368.92L406.05,1368.05L406.59,1369.49L404.96,1372.09L405.5,1372.95L403.33,1377.56L396.59,1372.36L397.67,1369.77L402.26,1369.2L402.8,1369.78Z" fill-rule="evenodd" fill="#4682b4" fill-opacity="0.471"/>
<polyline points="402.8,1369.78 403.34,1368.92 406.05,1368.05 406.59,1369.49 404.96,1372.09 405.5,1372.95 403.33,1377.56 396.59,1372.36 397.67,1369.77 402.26,1369.2 402.8,1369.78" fill="none" stroke="#1e1e1e" stroke-width="1.46" stroke-linecap="round" stroke-linejoin="round"/>
<path d="M482.47,1290.73L480.84,1291.01L480.84,1290.44L482.47,1290.73Z" fill-rule="evenodd" fill="#4682b4" fill-opacity="0.471"/>
<polyline points="482.47,1290.73 480.84,1291.01 480.84,1290.44 482.47,1290.73" fill="none" stroke="#1e1e1e" stroke-width="1.46" stroke-linecap="round" stroke-linejoin="round"/>
<path d="M482.74,1290.44L487.34,1289.3L485.99,1290.16L482.74,1290.44Z" fill-rule="evenodd" fill="#4682b4" fill-opacity="0.471"/>
<polyline points="482.74,1290.44 487.34,1289.3 485.99,1290.16 482.74,1290.44" fill="none" stroke="#1e1e1e" stroke-width="1.46" stroke-linecap="round" stroke-linejoin="round"/>
<path d="M419.67,1290.02L419.13,1290.31L418.86,1289.44L419.94,1288.58L419.67,1290.02Z" fill-rule="evenodd" fill="#4682b4" fill-opacity="0.471"/>
<polyline points="419.67,1290.02 419.13,1290.31 418.86,1289.44 419.94,1288.58 419.67,1290.02" fill="none" stroke="#1e1e1e" stroke-width="1.46" stroke-linecap="round" stroke-linejoin="round"/>
<path d="M399.37,1285.68L398.83,1285.1L400.19,1282.8L399.37,1285.68Z" fill-rule="evenodd" fill="#4682b4" fill-opacity="0.471"/>
<polyline points="399.37,1285.68 398.83,1285.1 400.19,1282.8 399.37,1285.68" fill="none" stroke="#1e1e1e" stroke-width="1.46" stroke-linecap="round" stroke-linejoin="round"/>
<path d="M509.07,1268.35L509.88,1268.92L509.87,1270.65L505.79,1276.11L504.71,1277.26L502,1276.39L504.72,1272.65L505.28,1266.32L509.07,1268.35Z" fill-rule="evenodd" fill="#4682b4" fill-opacity="0.471"/>
<polyline points="509.07,1268.35 509.88,1268.92 509.87,1270.65 505.79,1276.11 504.71,1277.26 502,1276.39 504.72,1272.65 505.28,1266.32 509.07,1268.35" fill="none" stroke="#1e1e1e" stroke-width="1.46" stroke-linecap="round" stroke-linejoin="round"/>
<path d="M500.96,1262.85L502.31,1263.14L503.66,1264.87L500.96,1262.85Z" fill-rule="evenodd" fill="#4682b4" fill-opacity="0.471"/>
<polyline points="500.96,1262.85 502.31,1263.14 503.66,1264.87 500.96,1262.85" fill="none" stroke="#1e1e1e" stroke-width="1.46" stroke-linecap="round" stroke-linejoin="round"/>
<path d="M414.53,1288.29L412.91,1288.28L413.45,1287.13L415.34,1287.42L414.53,1288.29Z" fill-rule="evenodd" fill="#4682b4" fill-opacity="0.471"/>
<polyline points="414.53,1288.29 412.91,1288.28 413.45,1287.13 415.34,1287.42 414.53,1288.29" fill="none" stroke="#1e1e1e" stroke-width="1.46" stroke-linecap="round" stroke-linejoin="round"/>
<path d="M422.65,1287.15L421.03,1285.13L424.01,1281.68L425.36,1283.41L422.65,1287.15Z" fill-rule="evenodd" fill="#4682b4" fill-opacity="0.471"/>
<polyline points="422.65,1287.15 421.03,1285.13 424.01,1281.68 425.36,1283.41 422.65,1287.15" fill="none" stroke="#1e1e1e" stroke-width="1.46" stroke-linecap="round" stroke-linejoin="round"/>
<path d="M510.2,1254.24L509.11,1255.96L504.76,1258.83L503.68,1259.11L500.97,1257.95L503.41,1257.67L505.05,1254.8L506.4,1254.8L510.74,1252.22L510.2,1254.24Z" fill-rule="evenodd" fill="#4682b4" fill-opacity="0.471"/>
<polyline points="510.2,1254.24 509.11,1255.96 504.76,1258.83 503.68,1259.11 500.97,1257.95 503.41,1257.67 505.05,1254.8 506.4,1254.8 510.74,1252.22 510.2,1254.24" fill="none" stroke="#1e1e1e" stroke-width="1.46" stroke-linecap="round" stroke-linejoin="round"/>
<path d="M465.51,1250.94L464.43,1249.5L466.6,1247.78L469.03,1249.22L468.22,1250.95L467.41,1250.37L465.51,1250.94Z" fill-rule="evenodd" fill="#4682b4" fill-opacity="0.471"/>
<polyline points="465.51,1250.94 464.43,1249.5 466.6,1247.78 469.03,1249.22 468.22,1250.95 467.41,1250.37 465.51,1250.94" fill="none" stroke="#1e1e1e" stroke-width="1.46" stroke-linecap="round" stroke-linejoin="round"/>
<path d="M421.9,1246.25L418.92,1245.67L418.92,1244.52L420.01,1243.66L421.9,1244.52L422.71,1246.25L421.9,1246.25Z" fill-rule="evenodd" fill="#4682b4" fill-opacity="0.471"/>
<polyline points="421.9,1246.25 418.92,1245.67 418.92,1244.52 420.01,1243.66 421.9,1244.52 422.71,1246.25 421.9,1246.25" fill="none" stroke="#1e1e1e" stroke-width="1.46" stroke-linecap="round" stroke-linejoin="round"/>
<path d="M315.95,1228.65L317.85,1221.16L319.74,1217.41L323.26,1215.4L331.94,1217.12L336.28,1224.89L337.64,1229.79L336.55,1234.4L334.12,1237.56L327.88,1238.72L323.82,1237.57L319.48,1232.1L316.77,1230.37L315.95,1228.65Z" fill-rule="evenodd" fill="#4682b4" fill-opacity="0.471"/>
<polyline points="315.95,1228.65 317.85,1221.16 319.74,1217.41 323.26,1215.4 331.94,1217.12 336.28,1224.89 337.64,1229.79 336.55,1234.4 334.12,1237.56 327.88,1238.72 323.82,1237.57 319.48,1232.1 316.77,1230.37 315.95,1228.65" fill="none" stroke="#1e1e1e" stroke-width="1.46" stroke-linecap="round" stroke-linejoin="round"/>
<path d="M525.18,1231.25L525.45,1230.1L531.16,1224.94L535.78,1224.09L536.86,1223.23L537.41,1222.37L536.87,1221.79L539.86,1218.92L541.47,1222.39L540.38,1223.82L538.73,1229.86L536.02,1231L533.58,1230.42L527.35,1231.55L525.18,1231.25Z" fill-rule="evenodd" fill="#4682b4" fill-opacity="0.471"/>
<polyline points="525.18,1231.25 525.45,1230.1 531.16,1224.94 535.78,1224.09 536.86,1223.23 537.41,1222.37 536.87,1221.79 539.86,1218.92 541.47,1222.39 540.38,1223.82 538.73,1229.86 536.02,1231 533.58,1230.42 527.35,1231.55 525.18,1231.25" fill="none" stroke="#1e1e1e" stroke-width="1.46" stroke-linecap="round" stroke-linejoin="round"/>
<path d="M541.5,1216.34L542.04,1217.2L541.49,1218.64L540.95,1218.06L541.5,1216.34Z" fill-rule="evenodd" fill="#4682b4" fill-opacity="0.471"/>
<polyline points="541.5,1216.34 542.04,1217.2 541.49,1218.64 540.95,1218.06 541.5,1216.34" fill="none" stroke="#1e1e1e" stroke-width="1.46" stroke-linecap="round" stroke-linejoin="round"/>
<path d="M543.41,1212.6L542.33,1212.31L540.45,1208.27L538.01,1206.25L538.56,1204.23L535.59,1201.63L535.61,1197.89L537.77,1198.47L539.66,1202.22L543.7,1207.42L544.5,1211.45L543.41,1212.6Z" fill-rule="evenodd" fill="#4682b4" fill-opacity="0.471"/>
<polyline points="543.41,1212.6 542.33,1212.31 540.45,1208.27 538.01,1206.25 538.56,1204.23 535.59,1201.63 535.61,1197.89 537.77,1198.47 539.66,1202.22 543.7,1207.42 544.5,1211.45 543.41,1212.6" fill="none" stroke="#1e1e1e" stroke-width="1.46" stroke-linecap="round" stroke-linejoin="round"/>
<path d="M345.49,1203.58L344.95,1205.6L342.24,1208.48L337.9,1210.49L336.54,1208.48L336.81,1203.29L338.71,1198.97L341.42,1197.53L343.05,1198.4L345.49,1203.58Z" fill-rule="evenodd" fill="#4682b4" fill-opacity="0.471"/>
<polyline points="345.49,1203.58 344.95,1205.6 342.24,1208.48 337.9,1210.49 336.54,1208.48 336.81,1203.29 338.71,1198.97 341.42,1197.53 343.05,1198.4 345.49,1203.58" fill="none" stroke="#1e1e1e" stroke-width="1.46" stroke-linecap="round" stroke-linejoin="round"/>
<path d="M483.81,1196.85L482.72,1196.56L483.27,1194.55L486.26,1193.4L486.8,1194.27L483.81,1196.85Z" fill-rule="evenodd" fill="#4682b4" fill-opacity="0.471"/>
<polyline points="483.81,1196.85 482.72,1196.56 483.27,1194.55 486.26,1193.4 486.8,1194.27 483.81,1196.85" fill="none" stroke="#1e1e1e" stroke-width="1.46" stroke-linecap="round" stroke-linejoin="round"/>
<path d="M525.43,1236.44L523.78,1242.19L524.04,1246.8L525.65,1249.4L525.38,1250.55L521.85,1251.69L515.9,1249.65L513.46,1249.93L518.89,1246.78L520.8,1244.48L522.99,1238.15L521.92,1234.41L524.36,1232.69L525.17,1232.98L525.43,1236.44Z" fill-rule="evenodd" fill="#4682b4" fill-opacity="0.471"/>
<polyline points="525.43,1236.44 523.78,1242.19 524.04,1246.8 525.65,1249.4 525.38,1250.55 521.85,1251.69 515.9,1249.65 513.46,1249.93 518.89,1246.78 520.8,1244.48 522.99,1238.15 521.92,1234.41 524.36,1232.69 525.17,1232.98 525.43,1236.44" fill="none" stroke="#1e1e1e" stroke-width="1.46" stroke-linecap="round" stroke-linejoin="round"/>
<path d="M447.94,1232.19L448.48,1232.47L447.39,1233.91L446.31,1232.18L447.94,1232.19Z" fill-rule="evenodd" fill="#4682b4" fill-opacity="0.471"/>
<polyline points="447.94,1232.19 448.48,1232.47 447.39,1233.91 446.31,1232.18 447.94,1232.19" fill="none" stroke="#1e1e1e" stroke-width="1.46" stroke-linecap="round" stroke-linejoin="round"/>
<path d="M491.98,1185.07L492.8,1182.48L494.15,1183.06L493.87,1186.22L491.98,1185.07Z" fill-rule="evenodd" fill="#4682b4" fill-opacity="0.471"/>
<polyline points="491.98,1185.07 492.8,1182.48 494.15,1183.06 493.87,1186.22 491.98,1185.07" fill="none" stroke="#1e1e1e" stroke-width="1.46" stroke-linecap="round" stroke-linejoin="round"/>
<path d="M448.49,955.17L445.48,960.93L441.39,961.78L438.13,960.05L435.14,954.57L436.78,950.54L439.51,949.11L440.33,949.69L441.96,948.83L448.77,953.73L448.49,955.17Z" fill-rule="evenodd" fill="#4682b4" fill-opacity="0.471"/>
<polyline points="448.49,955.17 445.48,960.93 441.39,961.78 438.13,960.05 435.14,954.57 436.78,950.54 439.51,949.11 440.33,949.69 441.96,948.83 448.77,953.73 448.49,955.17" fill="none" stroke="#1e1e1e" stroke-width="1.46" stroke-linecap="round" stroke-linejoin="round"/>
<path d="M615.6,952.34L616.69,952.35L616.96,953.5L615.05,953.49L615.6,952.34Z" fill-rule="evenodd" fill="#4682b4" fill-opacity="0.471"/>
<polyline points="615.6,952.34 616.69,952.35 616.96,953.5 615.05,953.49 615.6,952.34" fill="none" stroke="#1e1e1e" stroke-width="1.46" stroke-linecap="round" stroke-linejoin="round"/>
<path d="M587.53,951.91L588.07,951.91L588.06,953.35L587.25,952.77L587.53,951.91Z" fill-rule="evenodd" fill="#4682b4" fill-opacity="0.471"/>
<polyline points="587.53,951.91 588.07,951.91 588.06,953.35 587.25,952.77 587.53,951.91" fill="none" stroke="#1e1e1e" stroke-width="1.46" stroke-linecap="round" stroke-linejoin="round"/>
<path d="M612.37,945.41L612.38,944.26L613.46,945.42L612.91,945.99L612.37,945.41Z" fill-rule="evenodd" fill="#4682b4" fill-opacity="0.471"/>
<polyline points="612.37,945.41 612.38,944.26 613.46,945.42 612.91,945.99 612.37,945.41" fill="none" stroke="#1e1e1e" stroke-width="1.46" stroke-linecap="round" stroke-linejoin="round"/>
<path d="M591.41,937.82L592.78,937.83L593.59,938.69L592.5,939.26L589.23,938.96L587.31,940.1L586.22,939.52L586.77,938.37L587.32,938.95L590.6,937.24L591.41,937.82Z" fill-rule="evenodd" fill="#4682b4" fill-opacity="0.471"/>
<polyline points="591.41,937.82 592.78,937.83 593.59,938.69 592.5,939.26 589.23,938.96 587.31,940.1 586.22,939.52 586.77,938.37 587.32,938.95 590.6,937.24 591.41,937.82" fill="none" stroke="#1e1e1e" stroke-width="1.46" stroke-linecap="round" stroke-linejoin="round"/>
<path d="M596.31,940.15L597.13,939.86L596.85,940.73L596.31,940.15Z" fill-rule="evenodd" fill="#4682b4" fill-opacity="0.471"/>
<polyline points="596.31,940.15 597.13,939.86 596.85,940.73 596.31,940.15" fill="none" stroke="#1e1e1e" stroke-width="1.46" stroke-linecap="round" stroke-linejoin="round"/>
<path d="M614.31,938.8L613.5,937.65L614.05,936.79L615.95,938.24L615.12,941.11L614.3,940.53L614.85,939.96L614.31,938.8Z" fill-rule="evenodd" fill="#4682b4" fill-opacity="0.471"/>
<polyline points="614.31,938.8 613.5,937.65 614.05,936.79 615.95,938.24 615.12,941.11 614.3,940.53 614.85,939.96 614.31,938.8" fill="none" stroke="#1e1e1e" stroke-width="1.46" stroke-linecap="round" stroke-linejoin="round"/>
<path d="M606.93,941.93L608.3,941.36L609.38,943.67L607.74,943.95L606.93,941.93Z" fill-rule="evenodd" fill="#4682b4" fill-opacity="0.471"/>
<polyline points="606.93,941.93 608.3,941.36 609.38,943.67 607.74,943.95 606.93,941.93" fill="none" stroke="#1e1e1e" stroke-width="1.46" stroke-linecap="round" stroke-linejoin="round"/>
<path d="M579.45,929.7L578.9,931.14L578.36,930.27L579.45,929.7Z" fill-rule="evenodd" fill="#4682b4" fill-opacity="0.471"/>
<polyline points="579.45,929.7 578.9,931.14 578.36,930.27 579.45,929.7" fill="none" stroke="#1e1e1e" stroke-width="1.46" stroke-linecap="round" stroke-linejoin="round"/>
<path d="M595.27,930.35L596.35,931.51L595.81,932.08L594.44,931.79L595.27,930.35Z" fill-rule="evenodd" fill="#4682b4" fill-opacity="0.471"/>
<polyline points="595.27,930.35 596.35,931.51 595.81,932.08 594.44,931.79 595.27,930.35" fill="none" stroke="#1e1e1e" stroke-width="1.46" stroke-linecap="round" stroke-linejoin="round"/>
<path d="M603.43,934.43L603.98,933.85L603.42,935.29L603.43,934.43Z" fill-rule="evenodd" fill="#4682b4" fill-opacity="0.471"/>
<polyline points="603.43,934.43 603.98,933.85 603.42,935.29 603.43,934.43" fill="none" stroke="#1e1e1e" stroke-width="1.46" stroke-linecap="round" stroke-linejoin="round"/>
<path d="M593.89,933.8L593.62,933.22L594.44,932.94L593.89,933.8Z" fill-rule="evenodd" fill="#4682b4" fill-opacity="0.471"/>
<polyline points="593.89,933.8 593.62,933.22 594.44,932.94 593.89,933.8" fill="none" stroke="#1e1e1e" stroke-width="1.46" stroke-linecap="round" stroke-linejoin="round"/>
<path d="M591.16,933.79L588.7,934.06L588.16,933.48L589.53,932.34L589.27,930.9L590.09,930.61L590.08,932.63L590.89,932.92L591.71,932.06L592.8,933.22L591.16,933.79Z" fill-rule="evenodd" fill="#4682b4" fill-opacity="0.471"/>
<polyline points="591.16,933.79 588.7,934.06 588.16,933.48 589.53,932.34 589.27,930.9 590.09,930.61 590.08,932.63 590.89,932.92 591.71,932.06 592.8,933.22 591.16,933.79" fill="none" stroke="#1e1e1e" stroke-width="1.46" stroke-linecap="round" stroke-linejoin="round"/>
<path d="M633.84,910.12L633.3,908.96L634.12,908.97L633.84,910.12Z" fill-rule="evenodd" fill="#4682b4" fill-opacity="0.471"/>
<polyline points="633.84,910.12 633.3,908.96 634.12,908.97 633.84,910.12" fill="none" stroke="#1e1e1e" stroke-width="1.46" stroke-linecap="round" stroke-linejoin="round"/>
<path d="M570.35,771.28L569.26,771.85L568.44,771.27L570.09,769.83L570.63,769.84L570.35,771.28Z" fill-rule="evenodd" fill="#4682b4" fill-opacity="0.471"/>
<polyline points="570.35,771.28 569.26,771.85 568.44,771.27 570.09,769.83 570.63,769.84 570.35,771.28" fill="none" stroke="#1e1e1e" stroke-width="1.46" stroke-linecap="round" stroke-linejoin="round"/>
<path d="M533.85,727.64L535.49,729.66L534.93,731.96L533.28,733.4L531.64,733.68L530.82,732.81L529.45,732.81L530.01,728.49L531.39,727.63L533.85,727.64Z" fill-rule="evenodd" fill="#4682b4" fill-opacity="0.471"/>
<polyline points="533.85,727.64 535.49,729.66 534.93,731.96 533.28,733.4 531.64,733.68 530.82,732.81 529.45,732.81 530.01,728.49 531.39,727.63 533.85,727.64" fill="none" stroke="#1e1e1e" stroke-width="1.46" stroke-linecap="round" stroke-linejoin="round"/>
<path d="M691.52,108.39L690.44,103.77L691.29,101.76L695.42,105.82L695.13,108.13L692.9,108.98L691.52,108.39Z" fill-rule="evenodd" fill="#4682b4" fill-opacity="0.471"/>
<polyline points="691.52,108.39 690.44,103.77 691.29,101.76 695.42,105.82 695.13,108.13 692.9,108.98 691.52,108.39" fill="none" stroke="#1e1e1e" stroke-width="1.46" stroke-linecap="round" stroke-linejoin="round"/>
<path d="M172.85,42.07L167.57,43.82L165.35,43.54L163.96,43.26L160.06,40.1L156.43,35.5L156.14,33.48L158.34,27.42L161.95,25.09L167.5,23.05L170.83,22.75L175.84,25.62L178.08,29.07L178.09,33.4L177.27,37.15L172.85,42.07Z" fill-rule="evenodd" fill="#4682b4" fill-opacity="0.471"/>
<polyline points="172.85,42.07 167.57,43.82 165.35,43.54 163.96,43.26 160.06,40.1 156.43,35.5 156.14,33.48 158.34,27.42 161.95,25.09 167.5,23.05 170.83,22.75 175.84,25.62 178.08,29.07 178.09,33.4 177.27,37.15 172.85,42.07" fill="none" stroke="#1e1e1e" stroke-width="1.46" stroke-linecap="round" stroke-linejoin="round"/>
<path d="M675.82,133.95L677.76,133.38L676.63,136.26L675.53,135.1L675.82,133.95Z" fill-rule="evenodd" fill="#4682b4" fill-opacity="0.471"/>
<polyline points="675.82,133.95 677.76,133.38 676.63,136.26 675.53,135.1 675.82,133.95" fill="none" stroke="#1e1e1e" stroke-width="1.46" stroke-linecap="round" stroke-linejoin="round"/>
<path d="M686.64,132.58L690.55,127.99L692.2,130.89L691.62,133.48L682.96,143.22L680.47,142.63L677.72,139.73L678.84,137.72L677.75,135.98L678.59,133.97L683.59,132.27L686.64,132.58Z" fill-rule="evenodd" fill="#4682b4" fill-opacity="0.471"/>
<polyline points="686.64,132.58 690.55,127.99 692.2,130.89 691.62,133.48 682.96,143.22 680.47,142.63 677.72,139.73 678.84,137.72 677.75,135.98 678.59,133.97 683.59,132.27 686.64,132.58" fill="none" stroke="#1e1e1e" stroke-width="1.46" stroke-linecap="round" stroke-linejoin="round"/>
<path d="M638.98,917.35L638.72,915.62L639.81,915.05L639.53,917.35L638.98,917.35Z" fill-rule="evenodd" fill="#4682b4" fill-opacity="0.471"/>
<polyline points="638.98,917.35 638.72,915.62 639.81,915.05 639.53,917.35 638.98,917.35" fill="none" stroke="#1e1e1e" stroke-width="1.46" stroke-linecap="round" stroke-linejoin="round"/>
<path d="M628.61,918.44L630.52,917.87L629.97,919.31L628.61,918.44Z" fill-rule="evenodd" fill="#4682b4" fill-opacity="0.471"/>
<polyline points="628.61,918.44 630.52,917.87 629.97,919.31 628.61,918.44" fill="none" stroke="#1e1e1e" stroke-width="1.46" stroke-linecap="round" stroke-linejoin="round"/>
<path d="M631.1,912.98L631.65,911.83L633.01,912.13L632.46,913.56L631.09,913.56L631.1,912.98Z" fill-rule="evenodd" fill="#4682b4" fill-opacity="0.471"/>
<polyline points="631.1,912.98 631.65,911.83 633.01,912.13 632.46,913.56 631.09,913.56 631.1,912.98" fill="none" stroke="#1e1e1e" stroke-width="1.46" stroke-linecap="round" stroke-linejoin="round"/>
<path d="M642.02,911.89L641.2,910.74L639.84,910.73L638.47,911.01L637.92,912.73L637.1,912.44L635.21,910.13L635.48,909.26L637.12,909.56L639.58,908.71L641.75,910.16L642.57,911.32L642.02,911.89Z" fill-rule="evenodd" fill="#4682b4" fill-opacity="0.471"/>
<polyline points="642.02,911.89 641.2,910.74 639.84,910.73 638.47,911.01 637.92,912.73 637.1,912.44 635.21,910.13 635.48,909.26 637.12,909.56 639.58,908.71 641.75,910.16 642.57,911.32 642.02,911.89" fill="none" stroke="#1e1e1e" stroke-width="1.46" stroke-linecap="round" stroke-linejoin="round"/>
<path d="M618.03,908.01L616.66,908.58L614.76,906.84L611.21,907.69L610.37,912.29L610.91,913.16L612.27,912.59L613.09,913.46L611.45,913.73L608.16,917.17L602.97,917.72L602.16,915.41L602.46,911.67L599.73,911.08L600.56,909.65L599.49,905.9L600.59,903.6L604.41,902.76L607.69,903.06L608.22,904.5L609.59,904.8L616.72,897.06L617.56,893.9L617.31,890.15L619.77,890.17L625.51,887.32L629.86,890.51L630.68,890.23L630.69,889.37L632.87,890.24L633.15,889.09L634.23,889.96L635.05,889.97L635.6,888.82L636.42,889.11L639.13,892.01L638.85,894.6L637.74,896.32L640.19,897.77L638.81,900.36L643.98,902.4L644.78,905.86L643.95,908.74L640.67,908.14L638.79,903.24L636.36,900.05L635.27,900.05L634.71,900.91L635.78,905.81L634.95,907.53L629.51,904.62L629.49,906.92L630.58,907.51L630.86,906.64L631.68,906.94L631.12,909.81L632.2,910.4L631.38,911.83L630.84,910.68L629.75,910.38L628.38,911.24L628.62,915.85L626.98,917.28L626.17,916.41L627.26,915.84L627.82,913.25L625.1,911.79L624.28,912.08L625.07,918.13L624.79,918.99L622.05,920.13L621.51,919.26L622.33,918.98L623.17,916.1L622.64,912.36L620.19,911.77L619.65,910.9L617.73,912.04L616.65,911.17L616.92,910.31L618.56,910.32L620.2,909.75L620.48,908.89L622.94,908.33L625.14,905.75L624.87,904.02L625.98,902.01L624.89,900.28L619.72,898.81L616.42,903.11L621.34,901.41L624.33,903.44L623.77,905.45L619.94,908.6L618.57,909.17L618.3,908.59L619.4,906.87L618.03,908.01Z" fill-rule="evenodd" fill="#4682b4" fill-opacity="0.471"/>
<polyline points="618.03,908.01 616.66,908.58 614.76,906.84 611.21,907.69 610.37,912.29 610.91,913.16 612.27,912.59 613.09,913.46 611.45,913.73 608.16,917.17 602.97,917.72 602.16,915.41 602.46,911.67 599.73,911.08 600.56,909.65 599.49,905.9 600.59,903.6 604.41,902.76 607.69,903.06 608.22,904.5 609.59,904.8 616.72,897.06 617.56,893.9 617.31,890.15 619.77,890.17 625.51,887.32 629.86,890.51 630.68,890.23 630.69,889.37 632.87,890.24 633.15,889.09 634.23,889.96 635.05,889.97 635.6,888.82 636.42,889.11 639.13,892.01 638.85,894.6 637.74,896.32 640.19,897.77 638.81,900.36 643.98,902.4 644.78,905.86 643.95,908.74 640.67,908.14 638.79,903.24 636.36,900.05 635.27,900.05 634.71,900.91 635.78,905.81 634.95,907.53 629.51,904.62 629.49,906.92 630.58,907.51 630.86,906.64 631.68,906.94 631.12,909.81 632.2,910.4 631.38,911.83 630.84,910.68 629.75,910.38 628.38,911.24 628.62,915.85 626.98,917.28 626.17,916.41 627.26,915.84 627.82,913.25 625.1,911.79 624.28,912.08 625.07,918.13 624.79,918.99 622.05,920.13 621.51,919.26 622.33,918.98 623.17,916.1 622.64,912.36 620.19,911.77 619.65,910.9 617.73,912.04 616.65,911.17 616.92,910.31 618.56,910.32 620.2,909.75 620.48,908.89 622.94,908.33 625.14,905.75 624.87,904.02 625.98,902.01 624.89,900.28 619.72,898.81 616.42,903.11 621.34,901.41 624.33,903.44 623.77,905.45 619.94,908.6 618.57,909.17 618.3,908.59 619.4,906.87 618.03,908.01" fill="none" stroke="#1e1e1e" stroke-width="1.46" stroke-linecap="round" stroke-linejoin="round"/>
<path d="M581.65,927.12L581.64,927.69L580.01,927.97L578.92,926.53L579.48,925.09L580.57,924.81L581.65,927.12Z" fill-rule="evenodd" fill="#4682b4" fill-opacity="0.471"/>
<polyline points="581.65,927.12 581.64,927.69 580.01,927.97 578.92,926.53 579.48,925.09 580.57,924.81 581.65,927.12" fill="none" stroke="#1e1e1e" stroke-width="1.46" stroke-linecap="round" stroke-linejoin="round"/>
<path d="M605.64,928.1L604.29,927.23L606.2,926.38L606.74,926.96L605.64,928.1Z" fill-rule="evenodd" fill="#4682b4" fill-opacity="0.471"/>
<polyline points="605.64,928.1 604.29,927.23 606.2,926.38 606.74,926.96 605.64,928.1" fill="none" stroke="#1e1e1e" stroke-width="1.46" stroke-linecap="round" stroke-linejoin="round"/>
<path d="M602.38,925.49L603.2,925.5L602.65,927.51L602.38,925.49Z" fill-rule="evenodd" fill="#4682b4" fill-opacity="0.471"/>
<polyline points="602.38,925.49 603.2,925.5 602.65,927.51 602.38,925.49" fill="none" stroke="#1e1e1e" stroke-width="1.46" stroke-linecap="round" stroke-linejoin="round"/>
<path d="M630.22,923.63L631.58,923.93L630.21,924.78L629.91,928.81L629.1,928.81L628.01,927.65L628.02,925.63L630.22,923.63Z" fill-rule="evenodd" fill="#4682b4" fill-opacity="0.471"/>
<polyline points="630.22,923.63 631.58,923.93 630.21,924.78 629.91,928.81 629.1,928.81 628.01,927.65 628.02,925.63 630.22,923.63" fill="none" stroke="#1e1e1e" stroke-width="1.46" stroke-linecap="round" stroke-linejoin="round"/>
<path d="M638.67,923.97L639.22,923.97L638.93,925.41L637.84,926.55L637.85,924.83L638.67,923.97Z" fill-rule="evenodd" fill="#4682b4" fill-opacity="0.471"/>
<polyline points="638.67,923.97 639.22,923.97 638.93,925.41 637.84,926.55 637.85,924.83 638.67,923.97" fill="none" stroke="#1e1e1e" stroke-width="1.46" stroke-linecap="round" stroke-linejoin="round"/>
<path d="M621.18,930.49L619.81,930.77L619,929.9L620.91,929.34L621.18,930.49Z" fill-rule="evenodd" fill="#4682b4" fill-opacity="0.471"/>
<polyline points="621.18,930.49 619.81,930.77 619,929.9 620.91,929.34 621.18,930.49" fill="none" stroke="#1e1e1e" stroke-width="1.46" stroke-linecap="round" stroke-linejoin="round"/>
<path d="M605.14,920.61L607.59,921.49L609.76,924.09L611.66,924.68L613.02,926.7L611.61,933.89L607.54,929.84L608.65,926.1L610.02,926.69L610.56,926.11L608.94,924.09L605.95,922.63L605.14,920.61Z" fill-rule="evenodd" fill="#4682b4" fill-opacity="0.471"/>
<polyline points="605.14,920.61 607.59,921.49 609.76,924.09 611.66,924.68 613.02,926.7 611.61,933.89 607.54,929.84 608.65,926.1 610.02,926.69 610.56,926.11 608.94,924.09 605.95,922.63 605.14,920.61" fill="none" stroke="#1e1e1e" stroke-width="1.46" stroke-linecap="round" stroke-linejoin="round"/>
<path d="M595.57,925.46L593.93,925.45L590.37,928.89L590.65,926.3L598.85,922.6L599.67,922.89L598.84,925.47L599.92,926.92L599.64,929.22L601,930.38L599.36,929.8L598.83,926.91L595.57,925.46Z" fill-rule="evenodd" fill="#4682b4" fill-opacity="0.471"/>
<polyline points="595.57,925.46 593.93,925.45 590.37,928.89 590.65,926.3 598.85,922.6 599.67,922.89 598.84,925.47 599.92,926.92 599.64,929.22 601,930.38 599.36,929.8 598.83,926.91 595.57,925.46" fill="none" stroke="#1e1e1e" stroke-width="1.46" stroke-linecap="round" stroke-linejoin="round"/>
<path d="M599.95,920.87L599.95,922.02L599.4,921.73L599.95,920.87Z" fill-rule="evenodd" fill="#4682b4" fill-opacity="0.471"/>
<polyline points="599.95,920.87 599.95,922.02 599.4,921.73 599.95,920.87" fill="none" stroke="#1e1e1e" stroke-width="1.46" stroke-linecap="round" stroke-linejoin="round"/>
<path d="M629.69,920.75L631.6,920.76L632.13,922.2L629.41,921.61L628.87,921.03L629.69,920.75Z" fill-rule="evenodd" fill="#4682b4" fill-opacity="0.471"/>
<polyline points="629.69,920.75 631.6,920.76 632.13,922.2 629.41,921.61 628.87,921.03 629.69,920.75" fill="none" stroke="#1e1e1e" stroke-width="1.46" stroke-linecap="round" stroke-linejoin="round"/>
<path d="M595.33,917.68L594.24,918.54L590.42,918.52L587.96,919.37L585.21,923.39L584.37,927.42L582.46,927.98L583.84,925.98L583.3,924.82L584.39,923.67L584.4,921.95L581.94,922.22L584.14,918.78L586.06,917.64L587.15,917.93L588.52,916.5L590.42,917.37L592.88,916.81L595.33,917.68Z" fill-rule="evenodd" fill="#4682b4" fill-opacity="0.471"/>
<polyline points="595.33,917.68 594.24,918.54 590.42,918.52 587.96,919.37 585.21,923.39 584.37,927.42 582.46,927.98 583.84,925.98 583.3,924.82 584.39,923.67 584.4,921.95 581.94,922.22 584.14,918.78 586.06,917.64 587.15,917.93 588.52,916.5 590.42,917.37 592.88,916.81 595.33,917.68" fill="none" stroke="#1e1e1e" stroke-width="1.46" stroke-linecap="round" stroke-linejoin="round"/>
<path d="M638.67,923.39L638.42,920.51L639.52,919.37L639.78,920.81L638.67,923.39Z" fill-rule="evenodd" fill="#4682b4" fill-opacity="0.471"/>
<polyline points="638.67,923.39 638.42,920.51 639.52,919.37 639.78,920.81 638.67,923.39" fill="none" stroke="#1e1e1e" stroke-width="1.46" stroke-linecap="round" stroke-linejoin="round"/>
<path d="M617.94,923.27L614.42,919.51L616.08,915.2L619.64,912.34L621.26,915.8L620.98,916.95L617.96,919.53L618.51,920.11L620.69,919.26L621.78,919.84L621.5,921.28L619.04,922.7L619.3,923.86L621.22,923.58L622.56,927.62L622.01,927.9L620.93,926.46L616.56,927.01L616.02,926.14L618.75,925.29L617.94,923.27Z" fill-rule="evenodd" fill="#4682b4" fill-opacity="0.471"/>
<polyline points="617.94,923.27 614.42,919.51 616.08,915.2 619.64,912.34 621.26,915.8 620.98,916.95 617.96,919.53 618.51,920.11 620.69,919.26 621.78,919.84 621.5,921.28 619.04,922.7 619.3,923.86 621.22,923.58 622.56,927.62 622.01,927.9 620.93,926.46 616.56,927.01 616.02,926.14 618.75,925.29 617.94,923.27" fill="none" stroke="#1e1e1e" stroke-width="1.46" stroke-linecap="round" stroke-linejoin="round"/>
<path d="M611.7,917.48L612.8,915.76L611.7,918.34L613.32,920.94L613.32,921.81L612.5,922.09L610.87,919.2L611.7,917.48Z" fill-rule="evenodd" fill="#4682b4" fill-opacity="0.471"/>
<polyline points="611.7,917.48 612.8,915.76 611.7,918.34 613.32,920.94 613.32,921.81 612.5,922.09 610.87,919.2 611.7,917.48" fill="none" stroke="#1e1e1e" stroke-width="1.46" stroke-linecap="round" stroke-linejoin="round"/>
<text x="267.69" y="1645.39" font-family="sans-serif" font-size="14" stroke="#ffffff" stroke-opacity="0.784" stroke-width="2.33" stroke-linejoin="round" paint-order="stroke" fill="#141414">Tonga</text>
</svg>
