<?xml version="1.0" encoding="UTF-8" standalone="no"?>
<svg xmlns="http://www.w3.org/2000/svg" width="963" height="2000" viewBox="0 0 963 2000">
<rect width="963" height="2000" fill="#ffffff"/>
<path d="M44.2,155.09L44.89,156.76L50.79,160.57L51.75,164.21L60.81,170.85L62.14,170.53L65.1,172.67L67.02,171.46L67.19,172.12L69.88,172.36L73.17,168.21L73.35,170.89L74.66,171.94L76.91,171.64L76.79,170.59L77.8,170L80.34,173.66L82.53,172.45L82.28,175.63L83.82,176.47L86.61,174.69L88.59,175.2L90.66,174.03L96.88,173.96L98.46,172.94L98.44,171.85L99.7,171.98L99.67,171.13L101.79,171.71L99.27,174.23L99.71,176.14L96.65,177.68L96.27,180.8L94.89,181.86L97.23,187.16L99.45,188.49L98.33,187.65L95.91,190.81L94.79,190.64L96.19,191.24L98.88,189.29L95.46,192.88L95.21,195.36L96.15,195.61L95.42,196.13L96.21,195.73L95.71,196.52L97.89,197.91L97.41,198.62L98.14,198.03L97.64,198.61L98.81,199.8L107.28,204.11L114.54,205.68L125.27,205.64L143.66,201.92L156.52,197.14L162.35,193.94L164.15,194.05L186.22,182.98L188.75,180.57L190.58,180.96L191.12,179.48L193.83,178.83L195.03,177.36L198.12,178.3L197.99,181.78L202.13,182.79L203.3,186.28L204.62,187.07L208.38,187.45L213.12,186.5L213.92,187.3L216.7,186.01L219.02,187.36L219.46,186.54L221.16,186.86L220.97,186.29L223.52,185.49L228.61,188L232.63,187.9L238.46,193.08L240.4,191.72L241.13,192.56L241.93,192.26L240.72,191.79L246.61,192.58L249.04,190.94L251.57,190.85L251.88,189.92L253.37,190.89L256,189.56L256.92,190.12L259.61,187.82L265.33,185.92L265.8,184.8L268.83,183.97L273.11,184.43L273.61,183.27L275.27,183.42L277.89,180.69L277.7,181.81L278.82,183.07L281.47,182.16L282.5,182.62L283.44,181.09L289.6,178.54L292.46,176.29L295.39,175.5L296.77,176.16L299.38,174.22L299.3,175.46L300.06,175.71L304.44,174.87L305.75,173.77L308.74,176.96L308.78,174.89L309.61,174.48L310.57,176.37L309.9,175.88L309.37,177.34L310.09,176.23L309.69,177.17L310.72,178.28L314.08,178.31L325.58,172.59L338.07,162.06L351.88,148.41L357.98,139.45L357.92,138.33L356.78,138.03L363.26,134.07L363.8,132.11L365.67,131.59L367.1,129L377.21,123.98L385.03,122.52L386.83,122.93L388.3,120.6L394.32,116.8L398.21,111.63L399.02,111.68L399.59,109.03L401.95,106.15L407.84,101.53L408.53,105L409.52,104.96L409.6,107.31L412.43,107.9L413.33,107.18L416.35,108.16L417,106.86L419.71,106.95L425.09,103.94L431.9,104.19L433.78,103.45L441.18,99.66L444.72,96.66L444.7,95.11L447.55,95.15L450.1,93.67L456.3,94.2L458.51,95.65L460.6,95.33L471.26,90.01L476.17,85.81L477.64,86.27L481.5,84.11L484.27,87.25L487.54,86.65L495,82.33L504.68,74.74L506.08,76.1L508.04,76.13L509.17,75.15L511.95,76.48L515.88,75.62L520.17,73L523.08,73.03L523.7,75.43L525.48,76.95L532.17,78.33L537.46,75.86L540.08,76.14L540.45,75.21L541.71,76.73L545.68,76.21L546.5,76.88L547.15,84.58L549.34,89.67L552.02,91.38L550.8,91.33L550.5,92.23L550.71,91.41L548.84,91.35L549.78,92.81L550.02,91.49L549.91,93.02L546.97,95.04L543.59,95.59L545.3,97.11L541.71,97.82L541.61,99.29L539.97,100.18L539.79,99.11L538.22,100.72L536.75,100.47L537.78,102.51L534.71,100.9L533.76,101.55L533.1,102.92L534.93,103.3L532.33,107.68L530.81,107.63L529.76,108.68L528.92,107.74L529.34,105.87L533.18,102.04L532.03,101.72L530.88,102.78L527.75,101.94L528.7,102.62L528.44,107.45L526.51,106.14L525.66,107.74L527.15,108.81L527.87,112.01L529.57,109.93L529.96,111.98L528.83,117.53L530.86,119.78L533.75,120.58L532.44,120.73L535.88,123.31L534.78,123.17L534.35,125.27L534.95,125.45L534.12,126.33L535.93,128.28L546.8,129.82L551.04,126.1L556.86,123.93L559.23,119.9L561.84,111.98L562.29,108.73L561.19,106.11L558.6,105.3L550.73,105.8L550.44,104.96L546.75,103.8L544.51,104.07L544.18,105.05L542.67,104.39L542.94,105.75L541.57,104.6L540.54,106.39L537.16,105.61L537.58,104.09L538.9,104.51L540.79,103.16L540.67,101.39L546.8,98.45L547.66,95.44L550.6,93.26L550.34,94.04L551.48,94.14L551.94,92.25L551.61,93.79L553.12,93.96L552.27,93.59L551.8,94.48L552.51,94.96L552.8,93.96L552.54,95.3L554.91,96.73L570.42,99.72L577.76,98.89L590.01,93.79L590.43,96.47L593.98,101.31L601.74,102.15L607.74,104.89L611.21,108.1L617,110.37L616.68,111.12L620.07,112.94L620.26,114.7L621.46,115.71L635.23,116.92L635.64,118.15L630.16,119.48L625.17,125.52L624.87,123.9L624.81,125.02L623.53,124.34L624.1,123.95L622.84,124.31L623.26,121.49L622.46,120.31L608.63,121.2L604.24,127.92L605.16,127.87L604.59,129.18L605.92,129.25L606.67,131.29L609.36,132.31L613.28,132.4L614.43,131.19L614.35,132.37L612.77,133.32L616.4,135.46L616.25,136.14L621.11,135.65L619.7,128.01L621.27,125.91L620.39,126.05L622.68,124.41L620.69,127.72L621.56,135.95L618.99,139.82L618.47,142.38L619.13,143.1L617.51,141.57L618.26,141.68L619.02,139.47L618.14,139.6L616.91,141.19L617.64,141.94L616.68,141.49L614,146.13L614,146.86L615.5,145.82L614.51,145.84L616.47,144.69L614.96,145.18L617.33,142.9L613.99,149.03L614.27,155.84L618.92,168.97L622.34,174.29L633.74,183.81L638.61,186.59L642.22,186.61L642.82,187.04L641.65,187.12L642.79,188.07L643.92,187.84L644.63,189.53L643.83,192.01L645,194.38L651.76,199.91L651.74,201.4L649.28,202.29L648.59,204.77L646.36,207.34L645.54,207.15L646.2,209.65L644.79,210.08L643.59,213.6L642.22,212.47L643.42,213.73L641.76,215.22L642.68,217.68L642.21,216.7L642.34,217.74L639.47,215.91L637.28,216.16L637.24,216.92L639.32,216.92L640.86,218.46L641.96,218.07L638.74,218.34L639.43,218.28L638.11,220.1L638.37,221.25L637.25,220.64L637.65,219.94L636.96,220.52L638.86,222.31L637.4,221.7L638.62,222.37L637.87,221.99L637.39,223.05L638.48,226.35L643.08,232.71L651.87,239.02L658.64,241.43L664.6,242L670.77,240.38L671.12,239.34L674.75,238.92L679.77,235.08L691.23,230.68L692.15,228.08L694.46,226.58L695.22,220.77L696.81,219.6L698.08,213.4L697.5,212.27L698.5,210.63L698.31,207.38L700.89,205.48L701.77,201.81L704.59,201.19L707.44,198.93L706.65,196.8L709.96,198.42L715.71,197.22L717.23,196.12L720.47,197.71L724.65,197.69L734.6,193.03L739.48,189.6L746.87,181.87L754.86,176.86L761.31,171.1L763.32,170.6L763.16,169.37L764.55,169.03L765.63,166.6L767.22,165.97L767.33,163.89L768.81,162.57L768.49,161.56L771.18,162.67L771.9,159.41L771.05,158.7L770.22,159.25L770.79,158.75L770.03,158.95L769.88,158.31L771.08,158.03L769.63,156.89L770.76,155.57L769.49,154.37L770.75,153.56L769.47,152.61L770.5,152.3L769.82,151.83L770.28,150.88L771.56,151.99L773.73,151.98L775.57,150.44L776.81,150.93L781.89,149.59L782.91,150.81L784.59,150.84L787.02,148.59L790.95,147.5L797.68,143.27L798.24,142.72L797.34,140.12L800.16,141.99L799.95,143.14L801.91,143.74L802.82,146.85L806.08,150.06L806,152.05L804.18,153.05L803.97,152.45L802.64,155.36L802.93,161.47L811.58,175.52L813.82,190.42L816.42,194.18L820.06,197.32L815.87,208.6L813.95,208.83L815.43,208.69L814.08,207.55L812.07,207.77L802.68,214.23L796.23,220.94L785.16,237.94L763.21,279.77L750.9,310.53L749.01,310.93L748.38,312.29L748.84,311.1L747.56,312.17L746.01,311.41L741.89,312.38L737.97,314.67L731.05,315.89L722.14,320.44L718.28,324.57L712.39,326.34L709.56,328.38L706.22,325.47L703.56,325.71L697.56,329.45L694.99,332.86L694.69,334.74L695.13,333.4L693.84,332.82L694.62,334.11L692.91,335.54L687.97,345.29L681.24,365.86L678.63,379.11L677.77,393.99L678.93,407.28L682.28,420.71L684.37,423.8L688.96,426.09L691.71,438.66L694.85,444.93L707.87,462.42L706.76,461.97L707.71,462.52L708.09,466.47L711.37,470.64L712.67,474.05L717.23,479.25L718.97,480.09L716.76,479.91L717.06,481.57L718.07,480.59L718.03,483.57L725.83,489.31L724.84,489.49L725.45,490.21L725.59,489.56L726.06,490.48L726.72,490.08L725.34,492.36L726.85,490.4L735.25,495.78L739.72,496.37L745.96,493.84L747.04,492.29L750.15,492.59L752.66,490.88L757.86,492.17L758.77,490.02L759.43,492.6L758.13,492.21L760.81,495.26L760.01,498.43L759.64,497.75L759.08,498.35L759.8,498.38L758.05,499.07L758.27,502.27L756.94,501.4L756.96,503.53L756.37,502.87L755.78,505.47L756.77,507.83L755.93,508.17L757.32,509.22L757.25,511.92L758.62,514.19L761.72,516.05L761.91,515.49L762.49,516.67L767.59,518L770.71,520.33L772.21,519.79L771.82,520.68L772.15,520.12L783.7,524.25L785.9,522.79L786.37,523.37L785.03,523.37L785.82,523.68L785.41,524.55L786.4,523.57L786.82,525.14L791.2,525.58L792.32,527.69L796.22,530.17L800.85,530.41L805.35,532.58L803.29,529.33L799.64,528.49L801.38,528.35L804.59,530.11L806.27,533.9L802.42,546.93L803.12,556.38L804.75,560.35L808.08,564.01L810.82,565.28L813.86,564.47L811.1,566.91L810.98,566.02L809.84,566.62L810.55,567.81L811.49,566.85L810.71,567.82L808.89,568.01L809.61,568.04L808.43,569.91L805.68,580.98L805.01,588.35L807.29,595.93L804.5,596.89L803.54,598.77L804.21,609.55L808.2,617.4L818.4,628.84L825.49,634.55L833.35,638.55L831.52,638.04L829.86,640.5L828.26,639.91L827.43,640.7L826.28,639.49L824.68,639.93L825.24,640.72L824.58,640.13L822.85,640.74L822.9,641.77L820.75,643.93L820.62,648.55L818.66,649.4L818.53,651.44L816.82,652.15L815.11,655.29L816.44,657.54L810.69,657.79L808.64,659.5L802.29,672.3L801.96,676.33L803.53,680.61L802.2,685.02L802.75,689.14L799.23,694.84L799.05,697.05L788.54,702.9L781.95,710.09L781.21,709.93L781.23,711.74L780.25,711.85L781.19,712.2L780.95,731.6L773.42,741.27L772.64,745.3L769.69,748.88L769.08,748.18L768.68,748.83L770.18,755.21L764.78,756.56L759.96,759.47L756.63,765.71L750.9,769.16L751.73,773.63L750.51,776.12L749.82,773.95L749.48,774.9L747.98,773.7L746.85,774.52L749.44,776.36L748.16,776.78L747.77,778.39L747.49,776.74L746.14,776.47L746.95,776.85L746.17,777.9L746.81,777.64L747.05,778.63L746.1,779.1L747.56,778.58L747.08,779.1L745.92,779.14L746,777.1L745.07,777.57L744.5,775.81L743.77,779.28L744.96,779.74L744.68,782.32L743.28,784.45L743.64,786.31L739.57,792.65L740.65,793.57L739.69,794.85L736.15,798.24L732.85,799.86L724.79,801.93L724.25,799.84L722.8,799.37L720.47,801.03L719.51,802.81L719.9,804.21L717.65,805.13L714.82,811.84L711.94,813.16L710.89,818.42L712.36,819.56L711,820.52L711.17,821.4L712.56,820.09L712.5,821.11L708.17,826.68L697.89,831.54L697.04,831L701,830.2L703,828.47L701.08,828.14L696.21,830.14L693.94,829.07L692.7,830.32L690.09,830.07L688.69,830.93L688.82,833.21L688.49,831.02L687.28,832.08L682.27,833.15L678.31,835.58L674.53,839.64L673.48,839.04L674.45,840.09L661.27,858.05L658.3,858.43L658.57,856.4L656.46,856L655.09,857.43L651.58,858.58L650.93,860.94L649.8,860.67L650.03,862.04L654.08,861.39L656.23,859.71L656.33,858.51L656.03,862.57L651.68,864.5L648.04,864.09L642.95,861.44L643.95,860.46L642.48,860.87L642.59,859.44L642,859.81L641.52,858.46L641.72,860.21L640.73,859.98L642.1,861.97L639.39,864.74L640.13,866.45L638.27,870.56L631.51,871.89L628.45,875.94L625.34,877.67L621.08,873.08L619.36,879.4L617.93,881.98L616.5,882.34L616.28,884.25L616.06,882.87L614.2,882.62L613.89,884.7L613.68,882.87L612.54,882.8L610.06,884.3L611.04,886.02L609.89,884.56L605.9,885.94L599.39,894.27L593.22,908.97L588.4,916.38L588.31,920.77L586.37,926L585.72,925.52L586.93,924.8L587.16,923.89L586.23,924.63L586.93,923.52L585.08,924.63L586.2,924.2L586.71,921.98L585.13,923.86L584.45,923.38L585.47,922.06L583.98,922.41L583.69,921.25L582.32,923.09L582.2,925.77L584.29,928.18L584.64,930.75L583.3,940.64L584.47,942.35L584.61,948L588.84,967.33L592.15,976.87L598.25,989.73L604.39,991.36L601.25,990.56L600.39,991.41L600.71,992.82L603.52,992.04L602,993.66L604.04,998.07L604.75,998.99L606.17,998.21L607.07,998.78L606.13,998.27L604.15,999.66L606.59,998.75L605.61,999.92L608.11,1004.63L619.85,1018.05L630,1026.92L632.9,1029.15L634.16,1029L639.42,1033.55L642.34,1038.24L643.81,1038.68L653.77,1049.06L658.23,1051.85L660.66,1050.64L659.66,1052.41L664.87,1056.27L665.53,1055.22L664.83,1056.67L665.6,1055.53L665.41,1056.61L668.85,1059.01L671.48,1059.76L671.92,1059.11L676.38,1061.22L684.19,1063.04L686.73,1064.94L683.49,1064.67L682.51,1067.03L682.83,1066.11L680.61,1065.24L680.56,1066.82L677.62,1069.12L677.11,1068.44L676.04,1069.17L674.45,1068.38L675.09,1069.42L676.54,1069.49L677,1068.67L678.43,1071.8L679.99,1071.97L679.66,1071.22L681.27,1070.02L682.43,1070.55L682.7,1069.6L684.98,1068.93L687.1,1069.44L689.66,1072.29L688.33,1069.83L689.88,1067.66L693.37,1067.09L695.75,1065L703.3,1064.37L706.36,1062.66L704.38,1068.76L705.24,1068.45L703.37,1069.8L707.33,1068.38L708.77,1069.55L710.68,1069.53L712.31,1068.25L712.3,1066.68L709.1,1068.45L706.66,1067.27L705.91,1065.81L707.21,1062.99L713.43,1061.3L715.62,1058.99L723.11,1057.46L730.76,1051.35L735.13,1049.04L740.92,1048.56L743.69,1050.96L745.83,1056.45L744.54,1060.74L745.34,1061.07L744.59,1061.01L742.75,1064.93L743.84,1076.48L741.82,1078.61L740.67,1083.85L738.98,1083.97L733.37,1088.65L732.03,1092.61L733.77,1093.49L732.05,1093.24L731.85,1095.01L734.7,1096.39L736.61,1098.67L736.66,1101.25L734.88,1105.27L736.07,1106.95L742.46,1106.91L745.73,1109.64L745.54,1110.76L747.55,1111.5L751.01,1110.66L754.27,1110.62L754.27,1111.27L754.72,1110.09L754.93,1111.48L755.64,1108.81L758.67,1108.31L760.1,1105.25L764.8,1104.79L768.33,1103.36L770.04,1101.21L786.48,1095.83L789.71,1090.85L791.48,1084.85L789.96,1082.41L789.15,1082.95L789.76,1082L786.69,1076.86L783.48,1075.79L783.07,1073.67L785.4,1071.42L790.77,1069.6L786.53,1062.01L790.86,1069.1L791.11,1068.21L796.85,1070.61L801.47,1069.64L801.81,1066.83L800.48,1067.38L800.3,1066.11L803.96,1066.14L800.48,1063.22L802.49,1063.26L807.77,1068.68L810.97,1070.13L813.57,1069.68L816.32,1073.29L817.99,1074.11L817.5,1075.08L822.33,1080.23L827.79,1089.05L829.73,1102.18L832.86,1108.33L830.25,1104.14L829.93,1104.8L829.53,1104.21L829.32,1105.19L830.44,1105.32L829.01,1105.08L828.66,1106.22L830.41,1107.81L828.47,1109.26L828.55,1110.97L827.37,1109.58L824.66,1117.03L824.52,1121.55L827.55,1126.42L827.27,1127.74L828.43,1130.42L828.15,1128.47L829.42,1130.91L828.35,1128.35L828.71,1127.68L834.74,1133.2L832.78,1135.6L831.64,1132.76L830.17,1132.51L831.4,1134.48L831.31,1136.65L829.02,1139.44L825.77,1138.88L825.37,1140.61L827.88,1141.67L829.97,1141.15L832.32,1138.38L834.17,1137.69L837.23,1139.3L841.64,1143.8L842.95,1145.51L843.22,1148.47L857.86,1154.32L870.18,1161.88L843.4,1152.13L836.99,1151.24L835.26,1152.81L833.02,1152.41L831.79,1157.68L829.74,1158.43L830.31,1160.34L831.65,1161.56L832.1,1160.89L834.75,1165.15L840.08,1169.18L840.09,1170.81L842.07,1173.55L841.88,1177.38L844.69,1181.8L847.6,1182.66L848.99,1181.88L847.49,1181.82L852.2,1180.57L858.01,1181.79L863.7,1181.33L887.08,1187.78L891.38,1186.89L892.34,1185.34L898.49,1188.54L902.74,1187.07L903.13,1188.09L904.45,1187.77L903.1,1186.81L904.67,1185.76L903.48,1183.14L898.21,1180.52L883.06,1168.06L876.56,1164.96L877.48,1164.77L884.65,1168.29L896.22,1177.42L912.98,1186.73L922.17,1190.09L927.2,1191.06L929.88,1190.4L932.49,1191.54L939.52,1199.06L955,1978.96L8,1978.96L44.2,155.09Z" fill-rule="evenodd" fill="#4682b4" fill-opacity="0.471"/>
<polyline points="44.2,155.09 44.89,156.76 50.79,160.57 51.75,164.21 60.81,170.85 62.14,170.53 65.1,172.67 67.02,171.46 67.19,172.12 69.88,172.36 73.17,168.21 73.35,170.89 74.66,171.94 76.91,171.64 76.79,170.59 77.8,170 80.34,173.66 82.53,172.45 82.28,175.63 83.82,176.47 86.61,174.69 88.59,175.2 90.66,174.03 96.88,173.96 98.46,172.94 98.44,171.85 99.7,171.98 99.67,171.13 101.79,171.71 99.27,174.23 99.71,176.14 96.65,177.68 96.27,180.8 94.89,181.86 97.23,187.16 99.45,188.49 98.33,187.65 95.91,190.81 94.79,190.64 96.19,191.24 98.88,189.29 95.46,192.88 95.21,195.36 96.15,195.61 95.42,196.13 96.21,195.73 95.71,196.52 97.89,197.91 97.41,198.62 98.14,198.03 97.64,198.61 98.81,199.8 107.28,204.11 114.54,205.68 125.27,205.64 143.66,201.92 156.52,197.14 162.35,193.94 164.15,194.05 186.22,182.98 188.75,180.57 190.58,180.96 191.12,179.48 193.83,178.83 195.03,177.36 198.12,178.3 197.99,181.78 202.13,182.79 203.3,186.28 204.62,187.07 208.38,187.45 213.12,186.5 213.92,187.3 216.7,186.01 219.02,187.36 219.46,186.54 221.16,186.86 220.97,186.29 223.52,185.49 228.61,188 232.63,187.9 238.46,193.08 240.4,191.72 241.13,192.56 241.93,192.26 240.72,191.79 246.61,192.58 249.04,190.94 251.57,190.85 251.88,189.92 253.37,190.89 256,189.56 256.92,190.12 259.61,187.82 265.33,185.92 265.8,184.8 268.83,183.97 273.11,184.43 273.61,183.27 275.27,183.42 277.89,180.69 277.7,181.81 278.82,183.07 281.47,182.16 282.5,182.62 283.44,181.09 289.6,178.54 292.46,176.29 295.39,175.5 296.77,176.16 299.38,174.22 299.3,175.46 300.06,175.71 304.44,174.87 305.75,173.77 308.74,176.96 308.78,174.89 309.61,174.48 310.57,176.37 309.9,175.88 309.37,177.34 310.09,176.23 309.69,177.17 310.72,178.28 314.08,178.31 325.58,172.59 338.07,162.06 351.88,148.41 357.98,139.45 357.92,138.33 356.78,138.03 363.26,134.07 363.8,132.11 365.67,131.59 367.1,129 377.21,123.98 385.03,122.52 386.83,122.93 388.3,120.6 394.32,116.8 398.21,111.63 399.02,111.68 399.59,109.03 401.95,106.15 407.84,101.53 408.53,105 409.52,104.96 409.6,107.31 412.43,107.9 413.33,107.18 416.35,108.16 417,106.86 419.71,106.95 425.09,103.94 431.9,104.19 433.78,103.45 441.18,99.66 444.72,96.66 444.7,95.11 447.55,95.15 450.1,93.67 456.3,94.2 458.51,95.65 460.6,95.33 471.26,90.01 476.17,85.81 477.64,86.27 481.5,84.11 484.27,87.25 487.54,86.65 495,82.33 504.68,74.74 506.08,76.1 508.04,76.13 509.17,75.15 511.95,76.48 515.88,75.62 520.17,73 523.08,73.03 523.7,75.43 525.48,76.95 532.17,78.33 537.46,75.86 540.08,76.14 540.45,75.21 541.71,76.73 545.68,76.21 546.5,76.88 547.15,84.58 549.34,89.67 552.02,91.38 550.8,91.33 550.5,92.23 550.71,91.41 548.84,91.35 549.78,92.81 550.02,91.49 549.91,93.02 546.97,95.04 543.59,95.59 545.3,97.11 541.71,97.82 541.61,99.29 539.97,100.18 539.79,99.11 538.22,100.72 536.75,100.47 537.78,102.51 534.71,100.9 533.76,101.55 533.1,102.92 534.93,103.3 532.33,107.68 530.81,107.63 529.76,108.68 528.92,107.74 529.34,105.87 533.18,102.04 532.03,101.72 530.88,102.78 527.75,101.94 528.7,102.62 528.44,107.45 526.51,106.14 525.66,107.74 527.15,108.81 527.87,112.01 529.57,109.93 529.96,111.98 528.83,117.53 530.86,119.78 533.75,120.58 532.44,120.73 535.88,123.31 534.78,123.17 534.35,125.27 534.95,125.45 534.12,126.33 535.93,128.28 546.8,129.82 551.04,126.1 556.86,123.93 559.23,119.9 561.84,111.98 562.29,108.73 561.19,106.11 558.6,105.3 550.73,105.8 550.44,104.96 546.75,103.8 544.51,104.07 544.18,105.05 542.67,104.39 542.94,105.75 541.57,104.6 540.54,106.39 537.16,105.61 537.58,104.09 538.9,104.51 540.79,103.16 540.67,101.39 546.8,98.45 547.66,95.44 550.6,93.26 550.34,94.04 551.48,94.14 551.94,92.25 551.61,93.79 553.12,93.96 552.27,93.59 551.8,94.48 552.51,94.96 552.8,93.96 552.54,95.3 554.91,96.73 570.42,99.72 577.76,98.89 590.01,93.79 590.43,96.47 593.98,101.31 601.74,102.15 607.74,104.89 611.21,108.1 617,110.37 616.68,111.12 620.07,112.94 620.26,114.7 621.46,115.71 635.23,116.92 635.64,118.15 630.16,119.48 625.17,125.52 624.87,123.9 624.81,125.02 623.53,124.34 624.1,123.95 622.84,124.31 623.26,121.49 622.46,120.31 608.63,121.2 604.24,127.92 605.16,127.87 604.59,129.18 605.92,129.25 606.67,131.29 609.36,132.31 613.28,132.4 614.43,131.19 614.35,132.37 612.77,133.32 616.4,135.46 616.25,136.14 621.11,135.65 619.7,128.01 621.27,125.91 620.39,126.05 622.68,124.41 620.69,127.72 621.56,135.95 618.99,139.82 618.47,142.38 619.13,143.1 617.51,141.57 618.26,141.68 619.02,139.47 618.14,139.6 616.91,141.19 617.64,141.94 616.68,141.49 614,146.13 614,146.86 615.5,145.82 614.51,145.84 616.47,144.69 614.96,145.18 617.33,142.9 613.99,149.03 614.27,155.84 618.92,168.97 622.34,174.29 633.74,183.81 638.61,186.59 642.22,186.61 642.82,187.04 641.65,187.12 642.79,188.07 643.92,187.84 644.63,189.53 643.83,192.01 645,194.38 651.76,199.91 651.74,201.4 649.28,202.29 648.59,204.77 646.36,207.34 645.54,207.15 646.2,209.65 644.79,210.08 643.59,213.6 642.22,212.47 643.42,213.73 641.76,215.22 642.68,217.68 642.21,216.7 642.34,217.74 639.47,215.91 637.28,216.16 637.24,216.92 639.32,216.92 640.86,218.46 641.96,218.07 638.74,218.34 639.43,218.28 638.11,220.1 638.37,221.25 637.25,220.64 637.65,219.94 636.96,220.52 638.86,222.31 637.4,221.7 638.62,222.37 637.87,221.99 637.39,223.05 638.48,226.35 643.08,232.71 651.87,239.02 658.64,241.43 664.6,242 670.77,240.38 671.12,239.34 674.75,238.92 679.77,235.08 691.23,230.68 692.15,228.08 694.46,226.58 695.22,220.77 696.81,219.6 698.08,213.4 697.5,212.27 698.5,210.63 698.31,207.38 700.89,205.48 701.77,201.81 704.59,201.19 707.44,198.93 706.65,196.8 709.96,198.42 715.71,197.22 717.23,196.12 720.47,197.71 724.65,197.69 734.6,193.03 739.48,189.6 746.87,181.87 754.86,176.86 761.31,171.1 763.32,170.6 763.16,169.37 764.55,169.03 765.63,166.6 767.22,165.97 767.33,163.89 768.81,162.57 768.49,161.56 771.18,162.67 771.9,159.41 771.05,158.7 770.22,159.25 770.79,158.75 770.03,158.95 769.88,158.31 771.08,158.03 769.63,156.89 770.76,155.57 769.49,154.37 770.75,153.56 769.47,152.61 770.5,152.3 769.82,151.83 770.28,150.88 771.56,151.99 773.73,151.98 775.57,150.44 776.81,150.93 781.89,149.59 782.91,150.81 784.59,150.84 787.02,148.59 790.95,147.5 797.68,143.27 798.24,142.72 797.34,140.12 800.16,141.99 799.95,143.14 801.91,143.74 802.82,146.85 806.08,150.06 806,152.05 804.18,153.05 803.97,152.45 802.64,155.36 802.93,161.47 811.58,175.52 813.82,190.42 816.42,194.18 820.06,197.32 815.87,208.6 813.95,208.83 815.43,208.69 814.08,207.55 812.07,207.77 802.68,214.23 796.23,220.94 785.16,237.94 763.21,279.77 750.9,310.53 749.01,310.93 748.38,312.29 748.84,311.1 747.56,312.17 746.01,311.41 741.89,312.38 737.97,314.67 731.05,315.89 722.14,320.44 718.28,324.57 712.39,326.34 709.56,328.38 706.22,325.47 703.56,325.71 697.56,329.45 694.99,332.86 694.69,334.74 695.13,333.4 693.84,332.82 694.62,334.11 692.91,335.54 687.97,345.29 681.24,365.86 678.63,379.11 677.77,393.99 678.93,407.28 682.28,420.71 684.37,423.8 688.96,426.09 691.71,438.66 694.85,444.93 707.87,462.42 706.76,461.97 707.71,462.52 708.09,466.47 711.37,470.64 712.67,474.05 717.23,479.25 718.97,480.09 716.76,479.91 717.06,481.57 718.07,480.59 718.03,483.57 725.83,489.31 724.84,489.49 725.45,490.21 725.59,489.56 726.06,490.48 726.72,490.08 725.34,492.36 726.85,490.4 735.25,495.78 739.72,496.37 745.96,493.84 747.04,492.29 750.15,492.59 752.66,490.88 757.86,492.17 758.77,490.02 759.43,492.6 758.13,492.21 760.81,495.26 760.01,498.43 759.64,497.75 759.08,498.35 759.8,498.38 758.05,499.07 758.27,502.27 756.94,501.4 756.96,503.53 756.37,502.87 755.78,505.47 756.77,507.83 755.93,508.17 757.32,509.22 757.25,511.92 758.62,514.19 761.72,516.05 761.91,515.49 762.49,516.67 767.59,518 770.71,520.33 772.21,519.79 771.82,520.68 772.15,520.12 783.7,524.25 785.9,522.79 786.37,523.37 785.03,523.37 785.82,523.68 785.41,524.55 786.4,523.57 786.82,525.14 791.2,525.58 792.32,527.69 796.22,530.17 800.85,530.41 805.35,532.58 803.29,529.33 799.64,528.49 801.38,528.35 804.59,530.11 806.27,533.9 802.42,546.93 803.12,556.38 804.75,560.35 808.08,564.01 810.82,565.28 813.86,564.47 811.1,566.91 810.98,566.02 809.84,566.62 810.55,567.81 811.49,566.85 810.71,567.82 808.89,568.01 809.61,568.04 808.43,569.91 805.68,580.98 805.01,588.35 807.29,595.93 804.5,596.89 803.54,598.77 804.21,609.55 808.2,617.4 818.4,628.84 825.49,634.55 833.35,638.55 831.52,638.04 829.86,640.5 828.26,639.91 827.43,640.7 826.28,639.49 824.68,639.93 825.24,640.72 824.58,640.13 822.85,640.74 822.9,641.77 820.75,643.93 820.62,648.55 818.66,649.4 818.53,651.44 816.82,652.15 815.11,655.29 816.44,657.54 810.69,657.79 808.64,659.5 802.29,672.3 801.96,676.33 803.53,680.61 802.2,685.02 802.75,689.14 799.23,694.84 799.05,697.05 788.54,702.9 781.95,710.09 781.21,709.93 781.23,711.74 780.25,711.85 781.19,712.2 780.95,731.6 773.42,741.27 772.64,745.3 769.69,748.88 769.08,748.18 768.68,748.83 770.18,755.21 764.78,756.56 759.96,759.47 756.63,765.71 750.9,769.16 751.73,773.63 750.51,776.12 749.82,773.95 749.48,774.9 747.98,773.7 746.85,774.52 749.44,776.36 748.16,776.78 747.77,778.39 747.49,776.74 746.14,776.47 746.95,776.85 746.17,777.9 746.81,777.64 747.05,778.63 746.1,779.1 747.56,778.58 747.08,779.1 745.92,779.14 746,777.1 745.07,777.57 744.5,775.81 743.77,779.28 744.96,779.74 744.68,782.32 743.28,784.45 743.64,786.31 739.57,792.65 740.65,793.57 739.69,794.85 736.15,798.24 732.85,799.86 724.79,801.93 724.25,799.84 722.8,799.37 720.47,801.03 719.51,802.81 719.9,804.21 717.65,805.13 714.82,811.84 711.94,813.16 710.89,818.42 712.36,819.56 711,820.52 711.17,821.4 712.56,820.09 712.5,821.11 708.17,826.68 697.89,831.54 697.04,831 701,830.2 703,828.47 701.08,828.14 696.21,830.14 693.94,829.07 692.7,830.32 690.09,830.07 688.69,830.93 688.82,833.21 688.49,831.02 687.28,832.08 682.27,833.15 678.31,835.58 674.53,839.64 673.48,839.04 674.45,840.09 661.27,858.05 658.3,858.43 658.57,856.4 656.46,856 655.09,857.43 651.58,858.58 650.93,860.94 649.8,860.67 650.03,862.04 654.08,861.39 656.23,859.71 656.33,858.51 656.03,862.57 651.68,864.5 648.04,864.09 642.95,861.44 643.95,860.46 642.48,860.87 642.59,859.44 642,859.81 641.52,858.46 641.72,860.21 640.73,859.98 642.1,861.97 639.39,864.74 640.13,866.45 638.27,870.56 631.51,871.89 628.45,875.94 625.34,877.67 621.08,873.08 619.36,879.4 617.93,881.98 616.5,882.34 616.28,884.25 616.06,882.87 614.2,882.62 613.89,884.7 613.68,882.87 612.54,882.8 610.06,884.3 611.04,886.02 609.89,884.56 605.9,885.94 599.39,894.27 593.22,908.97 588.4,916.38 588.31,920.77 586.37,926 585.72,925.52 586.93,924.8 587.16,923.89 586.23,924.63 586.93,923.52 585.08,924.63 586.2,924.2 586.71,921.98 585.13,923.86 584.45,923.38 585.47,922.06 583.98,922.41 583.69,921.25 582.32,923.09 582.2,925.77 584.29,928.18 584.64,930.75 583.3,940.64 584.47,942.35 584.61,948 588.84,967.33 592.15,976.87 598.25,989.73 604.39,991.36 601.25,990.56 600.39,991.41 600.71,992.82 603.52,992.04 602,993.66 604.04,998.07 604.75,998.99 606.17,998.21 607.07,998.78 606.13,998.27 604.15,999.66 606.59,998.75 605.61,999.92 608.11,1004.63 619.85,1018.05 630,1026.92 632.9,1029.15 634.16,1029 639.42,1033.55 642.34,1038.24 643.81,1038.68 653.77,1049.06 658.23,1051.85 660.66,1050.64 659.66,1052.41 664.87,1056.27 665.53,1055.22 664.83,1056.67 665.6,1055.53 665.41,1056.61 668.85,1059.01 671.48,1059.76 671.92,1059.11 676.38,1061.22 684.19,1063.04 686.73,1064.94 683.49,1064.67 682.51,1067.03 682.83,1066.11 680.61,1065.24 680.56,1066.82 677.62,1069.12 677.11,1068.44 676.04,1069.17 674.45,1068.38 675.09,1069.42 676.54,1069.49 677,1068.67 678.43,1071.8 679.99,1071.97 679.66,1071.22 681.27,1070.02 682.43,1070.55 682.7,1069.6 684.98,1068.93 687.1,1069.44 689.66,1072.29 688.33,1069.83 689.88,1067.66 693.37,1067.09 695.75,1065 703.3,1064.37 706.36,1062.66 704.38,1068.76 705.24,1068.45 703.37,1069.8 707.33,1068.38 708.77,1069.55 710.68,1069.53 712.31,1068.25 712.3,1066.68 709.1,1068.45 706.66,1067.27 705.91,1065.81 707.21,1062.99 713.43,1061.3 715.62,1058.99 723.11,1057.46 730.76,1051.35 735.13,1049.04 740.92,1048.56 743.69,1050.96 745.83,1056.45 744.54,1060.74 745.34,1061.07 744.59,1061.01 742.75,1064.93 743.84,1076.48 741.82,1078.61 740.67,1083.85 738.98,1083.97 733.37,1088.65 732.03,1092.61 733.77,1093.49 732.05,1093.24 731.85,1095.01 734.7,1096.39 736.61,1098.67 736.66,1101.25 734.88,1105.27 736.07,1106.95 742.46,1106.91 745.73,1109.64 745.54,1110.76 747.55,1111.5 751.01,1110.66 754.27,1110.62 754.27,1111.27 754.72,1110.09 754.93,1111.48 755.64,1108.81 758.67,1108.31 760.1,1105.25 764.8,1104.79 768.33,1103.36 770.04,1101.21 786.48,1095.83 789.71,1090.85 791.48,1084.85 789.96,1082.41 789.15,1082.95 789.76,1082 786.69,1076.86 783.48,1075.79 783.07,1073.67 785.4,1071.42 790.77,1069.6 786.53,1062.01 790.86,1069.1 791.11,1068.21 796.85,1070.61 801.47,1069.64 801.81,1066.83 800.48,1067.38 800.3,1066.11 803.96,1066.14 800.48,1063.22 802.49,1063.26 807.77,1068.68 810.97,1070.13 813.57,1069.68 816.32,1073.29 817.99,1074.11 817.5,1075.08 822.33,1080.23 827.79,1089.05 829.73,1102.18 832.86,1108.33 830.25,1104.14 829.93,1104.8 829.53,1104.21 829.32,1105.19 830.44,1105.32 829.01,1105.08 828.66,1106.22 830.41,1107.81 828.47,1109.26 828.55,1110.97 827.37,1109.58 824.66,1117.03 824.52,1121.55 827.55,1126.42 827.27,1127.74 828.43,1130.42 828.15,1128.47 829.42,1130.91 828.35,1128.35 828.71,1127.68 834.74,1133.2 832.78,1135.6 831.64,1132.76 830.17,1132.51 831.4,1134.48 831.31,1136.65 829.02,1139.44 825.77,1138.88 825.37,1140.61 827.88,1141.67 829.97,1141.15 832.32,1138.38 834.17,1137.69 837.23,1139.3 841.64,1143.8 842.95,1145.51 843.22,1148.47 857.86,1154.32 870.18,1161.88 843.4,1152.13 836.99,1151.24 835.26,1152.81 833.02,1152.41 831.79,1157.68 829.74,1158.43 830.31,1160.34 831.65,1161.56 832.1,1160.89 834.75,1165.15 840.08,1169.18 840.09,1170.81 842.07,1173.55 841.88,1177.38 844.69,1181.8 847.6,1182.66 848.99,1181.88 847.49,1181.82 852.2,1180.57 858.01,1181.79 863.7,1181.33 887.08,1187.78 891.38,1186.89 892.34,1185.34 898.49,1188.54 902.74,1187.07 903.13,1188.09 904.45,1187.77 903.1,1186.81 904.67,1185.76 903.48,1183.14 898.21,1180.52 883.06,1168.06 876.56,1164.96 877.48,1164.77 884.65,1168.29 896.22,1177.42 912.98,1186.73 922.17,1190.09 927.2,1191.06 929.88,1190.4 932.49,1191.54 939.52,1199.06 955,1978.96 8,1978.96 44.2,155.09" fill="none" stroke="#1e1e1e" stroke-width="1.37" stroke-linecap="round" stroke-linejoin="round"/>
<path d="M773.99,1081.28L771.63,1077.08L772.89,1075.84L774.65,1076.74L773.99,1081.28Z" fill-rule="evenodd" fill="#4682b4" fill-opacity="0.471"/>
<polyline points="773.99,1081.28 771.63,1077.08 772.89,1075.84 774.65,1076.74 773.99,1081.28" fill="none" stroke="#1e1e1e" stroke-width="1.37" stroke-linecap="round" stroke-linejoin="round"/>
<path d="M849.57,756.38L846.33,753.74L848.11,753.58L848.02,754.75L849.57,756.38Z" fill-rule="evenodd" fill="#4682b4" fill-opacity="0.471"/>
<polyline points="849.57,756.38 846.33,753.74 848.11,753.58 848.02,754.75 849.57,756.38" fill="none" stroke="#1e1e1e" stroke-width="1.37" stroke-linecap="round" stroke-linejoin="round"/>
<path d="M832.87,638.4L831.53,642.29L831.33,639.22L832.87,638.4Z" fill-rule="evenodd" fill="#4682b4" fill-opacity="0.471"/>
<polyline points="832.87,638.4 831.53,642.29 831.33,639.22 832.87,638.4" fill="none" stroke="#1e1e1e" stroke-width="1.37" stroke-linecap="round" stroke-linejoin="round"/>
<path d="M799.73,1066.19L798.68,1065.1L799.74,1064.24L800.71,1065.2L799.73,1066.19Z" fill-rule="evenodd" fill="#4682b4" fill-opacity="0.471"/>
<polyline points="799.73,1066.19 798.68,1065.1 799.74,1064.24 800.71,1065.2 799.73,1066.19" fill="none" stroke="#1e1e1e" stroke-width="1.37" stroke-linecap="round" stroke-linejoin="round"/>
<path d="M335.6,32.79L334.06,32.44L334.48,31.33L335.96,31.83L335.6,32.79Z" fill-rule="evenodd" fill="#4682b4" fill-opacity="0.471"/>
<polyline points="335.6,32.79 334.06,32.44 334.48,31.33 335.96,31.83 335.6,32.79" fill="none" stroke="#1e1e1e" stroke-width="1.37" stroke-linecap="round" stroke-linejoin="round"/>
<path d="M866.28,764.22L863.51,761.94L862.53,760.08L864.3,760.14L864.47,761.99L865.6,762.43L866.28,764.22Z" fill-rule="evenodd" fill="#4682b4" fill-opacity="0.471"/>
<polyline points="866.28,764.22 863.51,761.94 862.53,760.08 864.3,760.14 864.47,761.99 865.6,762.43 866.28,764.22" fill="none" stroke="#1e1e1e" stroke-width="1.37" stroke-linecap="round" stroke-linejoin="round"/>
<path d="M799.82,1063.37L799.75,1061.99L800.73,1062.22L800.25,1061.61L801.2,1061.61L801.15,1060.87L801.22,1062.63L799.82,1063.37Z" fill-rule="evenodd" fill="#4682b4" fill-opacity="0.471"/>
<polyline points="799.82,1063.37 799.75,1061.99 800.73,1062.22 800.25,1061.61 801.2,1061.61 801.15,1060.87 801.22,1062.63 799.82,1063.37" fill="none" stroke="#1e1e1e" stroke-width="1.37" stroke-linecap="round" stroke-linejoin="round"/>
<path d="M872.11,749.6L870.49,748.71L870.11,749.34L867.19,748.92L865.33,746.66L865.62,745.65L872.11,749.6Z" fill-rule="evenodd" fill="#4682b4" fill-opacity="0.471"/>
<polyline points="872.11,749.6 870.49,748.71 870.11,749.34 867.19,748.92 865.33,746.66 865.62,745.65 872.11,749.6" fill="none" stroke="#1e1e1e" stroke-width="1.37" stroke-linecap="round" stroke-linejoin="round"/>
<path d="M753.1,1054.54L750.86,1052.56L750.69,1051.44L753.42,1051.9L753.1,1054.54Z" fill-rule="evenodd" fill="#4682b4" fill-opacity="0.471"/>
<polyline points="753.1,1054.54 750.86,1052.56 750.69,1051.44 753.42,1051.9 753.1,1054.54" fill="none" stroke="#1e1e1e" stroke-width="1.37" stroke-linecap="round" stroke-linejoin="round"/>
<path d="M801.92,1062.1L801.31,1062.72L799.71,1056.1L797.66,1054.37L799.27,1054.74L800.75,1056.53L801.92,1062.1Z" fill-rule="evenodd" fill="#4682b4" fill-opacity="0.471"/>
<polyline points="801.92,1062.1 801.31,1062.72 799.71,1056.1 797.66,1054.37 799.27,1054.74 800.75,1056.53 801.92,1062.1" fill="none" stroke="#1e1e1e" stroke-width="1.37" stroke-linecap="round" stroke-linejoin="round"/>
<path d="M649.53,874.4L646.86,873.67L645.95,872.32L647.43,868.8L649.29,871.27L649.53,874.4Z" fill-rule="evenodd" fill="#4682b4" fill-opacity="0.471"/>
<polyline points="649.53,874.4 646.86,873.67 645.95,872.32 647.43,868.8 649.29,871.27 649.53,874.4" fill="none" stroke="#1e1e1e" stroke-width="1.37" stroke-linecap="round" stroke-linejoin="round"/>
<path d="M874.1,765.1L870.76,765.39L866.68,768.5L866.14,767.97L866.46,765.83L868.04,764.73L872.12,764.07L874.1,765.1Z" fill-rule="evenodd" fill="#4682b4" fill-opacity="0.471"/>
<polyline points="874.1,765.1 870.76,765.39 866.68,768.5 866.14,767.97 866.46,765.83 868.04,764.73 872.12,764.07 874.1,765.1" fill="none" stroke="#1e1e1e" stroke-width="1.37" stroke-linecap="round" stroke-linejoin="round"/>
<path d="M802.08,488.89L799.14,488.29L800.75,485.52L803.47,484.94L804.54,486.9L802.08,488.89Z" fill-rule="evenodd" fill="#4682b4" fill-opacity="0.471"/>
<polyline points="802.08,488.89 799.14,488.29 800.75,485.52 803.47,484.94 804.54,486.9 802.08,488.89" fill="none" stroke="#1e1e1e" stroke-width="1.37" stroke-linecap="round" stroke-linejoin="round"/>
<path d="M740.46,1044.42L737.26,1041.86L739.81,1039.17L740.46,1044.42Z" fill-rule="evenodd" fill="#4682b4" fill-opacity="0.471"/>
<polyline points="740.46,1044.42 737.26,1041.86 739.81,1039.17 740.46,1044.42" fill="none" stroke="#1e1e1e" stroke-width="1.37" stroke-linecap="round" stroke-linejoin="round"/>
<path d="M757.74,502.26L758.7,507.96L757.47,505.01L757.74,502.26Z" fill-rule="evenodd" fill="#4682b4" fill-opacity="0.471"/>
<polyline points="757.74,502.26 758.7,507.96 757.47,505.01 757.74,502.26" fill="none" stroke="#1e1e1e" stroke-width="1.37" stroke-linecap="round" stroke-linejoin="round"/>
<path d="M796.74,496.25L796.88,495.42L794.99,495.08L795.42,494.01L796.81,493.92L797.63,495.5L796.74,496.25Z" fill-rule="evenodd" fill="#4682b4" fill-opacity="0.471"/>
<polyline points="796.74,496.25 796.88,495.42 794.99,495.08 795.42,494.01 796.81,493.92 797.63,495.5 796.74,496.25" fill="none" stroke="#1e1e1e" stroke-width="1.37" stroke-linecap="round" stroke-linejoin="round"/>
<path d="M744.62,130.69L747.39,128.21L748.19,126.23L749.95,130.38L751.04,130.87L751.13,132.79L745.84,133.56L744.62,130.69Z" fill-rule="evenodd" fill="#4682b4" fill-opacity="0.471"/>
<polyline points="744.62,130.69 747.39,128.21 748.19,126.23 749.95,130.38 751.04,130.87 751.13,132.79 745.84,133.56 744.62,130.69" fill="none" stroke="#1e1e1e" stroke-width="1.37" stroke-linecap="round" stroke-linejoin="round"/>
<path d="M848.41,768.49L848.09,767.27L849.17,767.31L848.59,764.24L849.84,762.96L846.99,760.58L846.16,758.12L848.57,758.66L850.16,757.44L849.96,756.37L853.13,756.13L851.55,751.89L852.13,751.33L854.12,753L853.58,750.21L852.22,749.25L852.31,747.69L853.54,746.65L852.65,745.5L854.31,746.15L854.79,745.51L854.68,746.46L855.22,745.55L854.96,746.41L856.68,747.64L857.68,750.92L859.89,752.95L860.78,751.92L858.77,750.02L859.24,748.51L863.63,749.99L868.51,753.2L868.08,754.16L865.22,752L861.56,752.4L861.37,753.39L863.19,754.82L861.83,755.29L861.56,756.56L863.64,759.51L860.62,760.18L859.63,758.45L858.31,759.75L859.89,760.42L859.63,763.01L864.47,766.59L865.82,768.99L865.93,770.83L864.29,771.9L865.21,773.24L864,773.46L864.33,774.07L864.14,772.16L862.48,771.59L856.8,775.05L855.73,774.15L855,775.23L853.93,774.24L854.27,776.77L853.54,777.69L843.62,780.06L841.31,781.42L841.6,782.19L841.23,781.48L839.78,782.26L826.61,790.96L826.7,787.27L825.72,786.73L828.49,784.72L828.53,783.79L827.42,783.44L828.92,783.24L828.25,781.07L832,779.22L833.32,775.17L836.62,773.95L837.2,772.71L836.03,771.73L837.25,771.61L838.61,769.83L836.15,764.17L838.23,764.3L838.12,766.11L839.27,767.84L842.37,769.8L845.94,769.39L846.98,770.08L848.41,768.49Z" fill-rule="evenodd" fill="#4682b4" fill-opacity="0.471"/>
<polyline points="848.41,768.49 848.09,767.27 849.17,767.31 848.59,764.24 849.84,762.96 846.99,760.58 846.16,758.12 848.57,758.66 850.16,757.44 849.96,756.37 853.13,756.13 851.55,751.89 852.13,751.33 854.12,753 853.58,750.21 852.22,749.25 852.31,747.69 853.54,746.65 852.65,745.5 854.31,746.15 854.79,745.51 854.68,746.46 855.22,745.55 854.96,746.41 856.68,747.64 857.68,750.92 859.89,752.95 860.78,751.92 858.77,750.02 859.24,748.51 863.63,749.99 868.51,753.2 868.08,754.16 865.22,752 861.56,752.4 861.37,753.39 863.19,754.82 861.83,755.29 861.56,756.56 863.64,759.51 860.62,760.18 859.63,758.45 858.31,759.75 859.89,760.42 859.63,763.01 864.47,766.59 865.82,768.99 865.93,770.83 864.29,771.9 865.21,773.24 864,773.46 864.33,774.07 864.14,772.16 862.48,771.59 856.8,775.05 855.73,774.15 855,775.23 853.93,774.24 854.27,776.77 853.54,777.69 843.62,780.06 841.31,781.42 841.6,782.19 841.23,781.48 839.78,782.26 826.61,790.96 826.7,787.27 825.72,786.73 828.49,784.72 828.53,783.79 827.42,783.44 828.92,783.24 828.25,781.07 832,779.22 833.32,775.17 836.62,773.95 837.2,772.71 836.03,771.73 837.25,771.61 838.61,769.83 836.15,764.17 838.23,764.3 838.12,766.11 839.27,767.84 842.37,769.8 845.94,769.39 846.98,770.08 848.41,768.49" fill="none" stroke="#1e1e1e" stroke-width="1.37" stroke-linecap="round" stroke-linejoin="round"/>
<path d="M804.29,800.22L798.9,797.95L791.63,793.18L792.65,792.79L791.85,792.59L793.71,792.86L797.34,788.85L807.36,788.69L810.01,789.82L811.48,788.59L815.91,789.01L818.47,788.18L819.75,789.57L823.83,789.72L826.57,790.99L825.8,792.22L822.29,793.1L818.55,796.37L817.29,796.43L812.21,802L809.65,802.58L809.73,804.6L804.29,800.22Z" fill-rule="evenodd" fill="#4682b4" fill-opacity="0.471"/>
<polyline points="804.29,800.22 798.9,797.95 791.63,793.18 792.65,792.79 791.85,792.59 793.71,792.86 797.34,788.85 807.36,788.69 810.01,789.82 811.48,788.59 815.91,789.01 818.47,788.18 819.75,789.57 823.83,789.72 826.57,790.99 825.8,792.22 822.29,793.1 818.55,796.37 817.29,796.43 812.21,802 809.65,802.58 809.73,804.6 804.29,800.22" fill="none" stroke="#1e1e1e" stroke-width="1.37" stroke-linecap="round" stroke-linejoin="round"/>
<path d="M349.52,25.25L343.18,27.83L341.32,27.61L340.28,26.37L343.06,23.43L348.28,22.83L349.74,20.26L353.1,24.25L351.5,27.14L349.52,25.25Z" fill-rule="evenodd" fill="#4682b4" fill-opacity="0.471"/>
<polyline points="349.52,25.25 343.18,27.83 341.32,27.61 340.28,26.37 343.06,23.43 348.28,22.83 349.74,20.26 353.1,24.25 351.5,27.14 349.52,25.25" fill="none" stroke="#1e1e1e" stroke-width="1.37" stroke-linecap="round" stroke-linejoin="round"/>
<path d="M744.96,999.92L755.89,997.04L755.86,995.82L757.32,996.9L758.85,996.41L763.23,997.4L769.31,999.99L770.32,999.08L770.66,1000.49L774.27,1002.38L775.83,1001.9L782.13,1003.42L786.75,1002.71L787.59,1000.75L785.87,997.1L777.04,992.68L779.05,992.39L787.11,997.51L805.11,1013.63L808.24,1014.67L810.18,1013.9L814.62,1015.95L815.41,1025.34L814,1024.4L813.45,1021.62L813.29,1023.06L814.6,1025.56L815.72,1025.4L815.75,1027.4L814.91,1028.69L812.91,1028.24L809.26,1030.78L807.16,1034.06L804.16,1034.47L801.51,1036.07L799.81,1042.34L799.89,1049.92L795.55,1055.19L796.56,1051.43L795.61,1052.73L794.87,1051.43L795.95,1046.94L795.34,1042.47L792.08,1043.54L789.17,1051.44L786.89,1052.3L783.96,1055.71L786.4,1061.62L783.76,1055.32L780.03,1056.72L778.22,1059.98L777.63,1068.37L774.64,1066.52L773.53,1062.43L775.88,1055.77L775.25,1052.59L764.58,1040.29L761.08,1040.48L755.69,1044.58L755.04,1048.61L755.76,1051.13L753.61,1049.31L749.3,1050.51L746.65,1045.93L745.41,1045.1L744.78,1046.09L745.39,1045.01L741.79,1036.73L741.62,1033.41L743.49,1029.2L744.73,1029.01L746.36,1023.94L746.21,1012.76L744.78,1008.65L744.99,1007.47L745.9,1008.37L746.65,1006.87L745.23,1004.72L745.79,1001.95L744.46,1002.32L744.96,999.92Z" fill-rule="evenodd" fill="#4682b4" fill-opacity="0.471"/>
<polyline points="744.96,999.92 755.89,997.04 755.86,995.82 757.32,996.9 758.85,996.41 763.23,997.4 769.31,999.99 770.32,999.08 770.66,1000.49 774.27,1002.38 775.83,1001.9 782.13,1003.42 786.75,1002.71 787.59,1000.75 785.87,997.1 777.04,992.68 779.05,992.39 787.11,997.51 805.11,1013.63 808.24,1014.67 810.18,1013.9 814.62,1015.95 815.41,1025.34 814,1024.4 813.45,1021.62 813.29,1023.06 814.6,1025.56 815.72,1025.4 815.75,1027.4 814.91,1028.69 812.91,1028.24 809.26,1030.78 807.16,1034.06 804.16,1034.47 801.51,1036.07 799.81,1042.34 799.89,1049.92 795.55,1055.19 796.56,1051.43 795.61,1052.73 794.87,1051.43 795.95,1046.94 795.34,1042.47 792.08,1043.54 789.17,1051.44 786.89,1052.3 783.96,1055.71 786.4,1061.62 783.76,1055.32 780.03,1056.72 778.22,1059.98 777.63,1068.37 774.64,1066.52 773.53,1062.43 775.88,1055.77 775.25,1052.59 764.58,1040.29 761.08,1040.48 755.69,1044.58 755.04,1048.61 755.76,1051.13 753.61,1049.31 749.3,1050.51 746.65,1045.93 745.41,1045.1 744.78,1046.09 745.39,1045.01 741.79,1036.73 741.62,1033.41 743.49,1029.2 744.73,1029.01 746.36,1023.94 746.21,1012.76 744.78,1008.65 744.99,1007.47 745.9,1008.37 746.65,1006.87 745.23,1004.72 745.79,1001.95 744.46,1002.32 744.96,999.92" fill="none" stroke="#1e1e1e" stroke-width="1.37" stroke-linecap="round" stroke-linejoin="round"/>
<path d="M798.84,1063.21L798.72,1061.68L799.41,1061.24L798.84,1063.21Z" fill-rule="evenodd" fill="#4682b4" fill-opacity="0.471"/>
<polyline points="798.84,1063.21 798.72,1061.68 799.41,1061.24 798.84,1063.21" fill="none" stroke="#1e1e1e" stroke-width="1.37" stroke-linecap="round" stroke-linejoin="round"/>
</svg>
