<?xml version="1.0" encoding="UTF-8" standalone="no"?>
<svg xmlns="http://www.w3.org/2000/svg" width="2000" height="1351" viewBox="0 0 2000 1351">
<rect width="2000" height="1351" fill="#ffffff"/>
<path d="M784.5,205.27L786.77,207.06L787.08,208.66L783,213.98L782.59,229.76L775.9,232.08L764.08,233.44L761.44,235.18L758.34,240.61L752.44,243.98L750.01,243.93L744.91,241.62L739.13,246.04L736.64,246.98L731.65,243.17L729.27,242.76L720.6,252.2L718.46,252.49L716.4,251.45L704.73,239.86L703.28,232.33L704.44,226.42L703.94,223.91L695.3,216.34L692.31,208.37L691.06,207.73L689.05,210.53L684.67,221.05L684.63,226.49L683.82,230.07L682.88,230.39L680.25,225.48L678.94,217.7L682.34,208.05L684.79,182.63L701.87,133.27L707.29,123.91L710.65,121.05L716.08,118.18L726.52,115.74L728.65,116.34L732.77,121.78L735.75,124.2L742.34,125.4L751.85,131.76L755.93,138.09L757.86,151.68L757.72,154.67L756.97,155.46L754.01,155.14L751.81,157.34L751.57,163.44L754.55,166.4L759.96,168.36L767.6,174.11L767.14,178.4L762.06,181.44L761.32,183.18L760.83,188.96L761.36,191.92L763.23,193.16L769.73,193.59L771.69,194.43L784.5,205.27Z" fill-rule="evenodd" fill="#4682b4" fill-opacity="0.471"/>
<polyline points="784.5,205.27 786.77,207.06 787.08,208.66 783,213.98 782.59,229.76 775.9,232.08 764.08,233.44 761.44,235.18 758.34,240.61 752.44,243.98 750.01,243.93 744.91,241.62 739.13,246.04 736.64,246.98 731.65,243.17 729.27,242.76 720.6,252.2 718.46,252.49 716.4,251.45 704.73,239.86 703.28,232.33 704.44,226.42 703.94,223.91 695.3,216.34 692.31,208.37 691.06,207.73 689.05,210.53 684.67,221.05 684.63,226.49 683.82,230.07 682.88,230.39 680.25,225.48 678.94,217.7 682.34,208.05 684.79,182.63 701.87,133.27 707.29,123.91 710.65,121.05 716.08,118.18 726.52,115.74 728.65,116.34 732.77,121.78 735.75,124.2 742.34,125.4 751.85,131.76 755.93,138.09 757.86,151.68 757.72,154.67 756.97,155.46 754.01,155.14 751.81,157.34 751.57,163.44 754.55,166.4 759.96,168.36 767.6,174.11 767.14,178.4 762.06,181.44 761.32,183.18 760.83,188.96 761.36,191.92 763.23,193.16 769.73,193.59 771.69,194.43 784.5,205.27" fill="none" stroke="#1e1e1e" stroke-width="1.16" stroke-linecap="round" stroke-linejoin="round"/>
<path d="M1911.32,326.19L1839.23,318.48L1836.74,316.91L1837.49,314.7L1838.34,314.39L1851.23,314.1L1857.01,311.53L1866.46,313.73L1878.75,313.96L1884.92,310.63L1886.77,310.59L1891.63,312.42L1910.23,312.31L1911.32,326.19Z" fill-rule="evenodd" fill="#4682b4" fill-opacity="0.471"/>
<polyline points="1911.32,326.19 1839.23,318.48 1836.74,316.91 1837.49,314.7 1838.34,314.39 1851.23,314.1 1857.01,311.53 1866.46,313.73 1878.75,313.96 1884.92,310.63 1886.77,310.59 1891.63,312.42 1910.23,312.31 1911.32,326.19" fill="none" stroke="#1e1e1e" stroke-width="1.16" stroke-linecap="round" stroke-linejoin="round"/>
<text x="654.47" y="195" font-family="sans-serif" font-size="14" stroke="#ffffff" stroke-opacity="0.784" stroke-width="2.33" stroke-linejoin="round" paint-order="stroke" fill="#141414">Sarygamysh Köli</text>
<text x="1831.69" y="324.84" font-family="sans-serif" font-size="14" stroke="#ffffff" stroke-opacity="0.784" stroke-width="2.33" stroke-linejoin="round" paint-order="stroke" fill="#141414">Aydar Ko‘l</text>
</svg>
