<?xml version="1.0" encoding="UTF-8" standalone="no"?>
<svg xmlns="http://www.w3.org/2000/svg" width="2000" height="860" viewBox="0 0 2000 860">
<rect width="2000" height="860" fill="#ffffff"/>
<path d="M560.13,529.66L565.18,528.6L568.42,529.54L564.05,541.85L564.01,545.09L567.51,546.12L570.6,548.98L574.03,565.84L568.82,573.46L566.49,580.92L564.22,582.82L562.19,581.57L556.55,572.39L554.99,571.27L554.43,568.82L555.09,566.2L558.86,561.76L563.15,554.33L562.51,549.98L559.72,546.41L555.84,544.92L554.08,541.96L554.11,535.4L556.39,531.94L560.13,529.66Z" fill-rule="evenodd" fill="#4682b4" fill-opacity="0.471"/>
<polyline points="560.13,529.66 565.18,528.6 568.42,529.54 564.05,541.85 564.01,545.09 567.51,546.12 570.6,548.98 574.03,565.84 568.82,573.46 566.49,580.92 564.22,582.82 562.19,581.57 556.55,572.39 554.99,571.27 554.43,568.82 555.09,566.2 558.86,561.76 563.15,554.33 562.51,549.98 559.72,546.41 555.84,544.92 554.08,541.96 554.11,535.4 556.39,531.94 560.13,529.66" fill="none" stroke="#1e1e1e" stroke-width="1.05" stroke-linecap="round" stroke-linejoin="round"/>
<path d="M623.73,616.12L621.65,616.36L620.9,613.76L621.42,608.49L620.75,606.23L621.64,602.43L617.43,591.74L611.92,582.86L609.22,576.56L608.87,572.44L616.52,570.76L618.96,569.48L629.37,581.35L632.66,583.69L635.54,590.36L636.26,595.01L638.77,593.32L640.75,593.32L641.48,596.33L645.89,605.04L646.16,608.67L633.58,612.6L627.93,613.08L626.83,613.97L627.53,616.98L625.95,617.4L623.73,616.12Z" fill-rule="evenodd" fill="#4682b4" fill-opacity="0.471"/>
<polyline points="623.73,616.12 621.65,616.36 620.9,613.76 621.42,608.49 620.75,606.23 621.64,602.43 617.43,591.74 611.92,582.86 609.22,576.56 608.87,572.44 616.52,570.76 618.96,569.48 629.37,581.35 632.66,583.69 635.54,590.36 636.26,595.01 638.77,593.32 640.75,593.32 641.48,596.33 645.89,605.04 646.16,608.67 633.58,612.6 627.93,613.08 626.83,613.97 627.53,616.98 625.95,617.4 623.73,616.12" fill="none" stroke="#1e1e1e" stroke-width="1.05" stroke-linecap="round" stroke-linejoin="round"/>
<path d="M1310.61,504.7L1307.88,500.77L1305.81,493.77L1309.6,484.73L1311.52,482.06L1316.32,479.66L1318.54,475.26L1320.32,478.59L1319.45,481.07L1311.91,486.63L1309.05,493.17L1310.01,499.17L1312.61,500.95L1315.27,501.19L1319.61,504.5L1339.56,511.71L1348.5,512.07L1356.36,508.67L1357.14,512.18L1358.93,513.82L1360.57,518.3L1362.93,518.95L1369.28,523.5L1372.41,524.31L1377.72,522.56L1379.97,522.58L1375.44,526.27L1366.88,527.85L1363.2,530.79L1365.06,526.73L1365.17,523.78L1361.7,522.62L1353.04,513.91L1345.77,516.87L1342.8,517.21L1336.11,513.88L1317.14,508.8L1310.61,504.7Z" fill-rule="evenodd" fill="#4682b4" fill-opacity="0.471"/>
<polyline points="1310.61,504.7 1307.88,500.77 1305.81,493.77 1309.6,484.73 1311.52,482.06 1316.32,479.66 1318.54,475.26 1320.32,478.59 1319.45,481.07 1311.91,486.63 1309.05,493.17 1310.01,499.17 1312.61,500.95 1315.27,501.19 1319.61,504.5 1339.56,511.71 1348.5,512.07 1356.36,508.67 1357.14,512.18 1358.93,513.82 1360.57,518.3 1362.93,518.95 1369.28,523.5 1372.41,524.31 1377.72,522.56 1379.97,522.58 1375.44,526.27 1366.88,527.85 1363.2,530.79 1365.06,526.73 1365.17,523.78 1361.7,522.62 1353.04,513.91 1345.77,516.87 1342.8,517.21 1336.11,513.88 1317.14,508.8 1310.61,504.7" fill="none" stroke="#1e1e1e" stroke-width="1.05" stroke-linecap="round" stroke-linejoin="round"/>
<path d="M1338.14,625.36L1337.14,626.44L1337.16,632.62L1334.76,634.72L1331.56,633.95L1329.07,635.27L1333.14,641.42L1331.36,642.26L1326.21,639.02L1310.6,634.68L1308.61,632.92L1308.44,630.4L1303.95,623.47L1301.26,620.73L1302.17,618.61L1304.16,618.25L1307.35,619.96L1308.94,624.16L1310.69,623.43L1311.37,619.16L1310.13,609.85L1312.73,612.55L1315.27,613.32L1316.38,612.09L1320.2,612.74L1322.29,616.69L1318.5,616.19L1318.05,618.55L1314.97,619.97L1313.95,622.91L1313.45,625.53L1314.35,631.35L1315.68,632.98L1318.68,629.23L1325.35,626.38L1325.93,623.46L1327.17,621.81L1329.63,621.42L1332.32,618.94L1338.54,616.4L1339.27,612.31L1346.78,612.51L1350.08,610.97L1342.5,600.08L1341.47,595.28L1342.33,593.87L1348.71,605.99L1353.71,610.87L1357.09,610.66L1357.53,609.23L1354.99,605.98L1357.4,603.61L1360.89,603.77L1363.6,602.32L1363.07,597.98L1365,596.67L1367.53,596.57L1368.91,595.03L1368.56,593.06L1364.17,595.96L1363.78,591.28L1367.99,586.98L1370.47,587.21L1371.34,584.79L1372.54,583.88L1373.31,579.64L1375.14,581.91L1374.63,588.87L1372.58,591.19L1373.5,592.75L1373.09,598.58L1370.54,598.95L1368.76,601.55L1369.58,603.72L1367.35,605.41L1370.67,605.13L1371.26,606.48L1369.32,607.31L1367.32,606.16L1365.03,607.07L1360.84,607.09L1360.31,608.45L1364.57,611L1364.47,613.02L1359.95,612.9L1351.45,615.84L1342.27,617.49L1338.14,625.36Z" fill-rule="evenodd" fill="#4682b4" fill-opacity="0.471"/>
<polyline points="1338.14,625.36 1337.14,626.44 1337.16,632.62 1334.76,634.72 1331.56,633.95 1329.07,635.27 1333.14,641.42 1331.36,642.26 1326.21,639.02 1310.6,634.68 1308.61,632.92 1308.44,630.4 1303.95,623.47 1301.26,620.73 1302.17,618.61 1304.16,618.25 1307.35,619.96 1308.94,624.16 1310.69,623.43 1311.37,619.16 1310.13,609.85 1312.73,612.55 1315.27,613.32 1316.38,612.09 1320.2,612.74 1322.29,616.69 1318.5,616.19 1318.05,618.55 1314.97,619.97 1313.95,622.91 1313.45,625.53 1314.35,631.35 1315.68,632.98 1318.68,629.23 1325.35,626.38 1325.93,623.46 1327.17,621.81 1329.63,621.42 1332.32,618.94 1338.54,616.4 1339.27,612.31 1346.78,612.51 1350.08,610.97 1342.5,600.08 1341.47,595.28 1342.33,593.87 1348.71,605.99 1353.71,610.87 1357.09,610.66 1357.53,609.23 1354.99,605.98 1357.4,603.61 1360.89,603.77 1363.6,602.32 1363.07,597.98 1365,596.67 1367.53,596.57 1368.91,595.03 1368.56,593.06 1364.17,595.96 1363.78,591.28 1367.99,586.98 1370.47,587.21 1371.34,584.79 1372.54,583.88 1373.31,579.64 1375.14,581.91 1374.63,588.87 1372.58,591.19 1373.5,592.75 1373.09,598.58 1370.54,598.95 1368.76,601.55 1369.58,603.72 1367.35,605.41 1370.67,605.13 1371.26,606.48 1369.32,607.31 1367.32,606.16 1365.03,607.07 1360.84,607.09 1360.31,608.45 1364.57,611 1364.47,613.02 1359.95,612.9 1351.45,615.84 1342.27,617.49 1338.14,625.36" fill="none" stroke="#1e1e1e" stroke-width="1.05" stroke-linecap="round" stroke-linejoin="round"/>
<path d="M1339.35,835.39L1341.8,835.34L1340.55,840.13L1336.46,842.4L1336.43,841.54L1335.71,841.57L1331.33,846.13L1325.29,846.27L1323.55,841.44L1320.77,844.33L1320.63,846.51L1316.62,846.64L1317.61,843.02L1315.73,840.18L1309.04,838.09L1303.72,831.4L1296.53,829.47L1293.75,826.46L1293.86,824.37L1291.59,824.89L1290.17,823.96L1291.47,822.13L1287.87,819.82L1284.87,815.47L1283.65,809.02L1286.22,801.45L1291.04,795.74L1291.27,792.71L1296.06,789.1L1297.79,789.64L1299.41,784.7L1299.45,779.48L1301.33,780.2L1304.17,787.16L1304.62,790.76L1296.44,795.42L1294.61,798.28L1295.75,801.22L1291.69,806.16L1294.38,813.95L1297.61,815.97L1300.4,821.1L1301.93,821.95L1304.01,821.88L1304.82,823.49L1308.68,823.37L1310.16,826.3L1318.77,829.82L1320.96,832.24L1322.78,832.44L1324.31,831.19L1324.87,827.37L1326.07,826.32L1326.8,828.9L1328.15,827.92L1332.36,835.98L1333.98,833.84L1335.85,835.56L1338.75,833.74L1339.35,835.39Z" fill-rule="evenodd" fill="#4682b4" fill-opacity="0.471"/>
<polyline points="1339.35,835.39 1341.8,835.34 1340.55,840.13 1336.46,842.4 1336.43,841.54 1335.71,841.57 1331.33,846.13 1325.29,846.27 1323.55,841.44 1320.77,844.33 1320.63,846.51 1316.62,846.64 1317.61,843.02 1315.73,840.18 1309.04,838.09 1303.72,831.4 1296.53,829.47 1293.75,826.46 1293.86,824.37 1291.59,824.89 1290.17,823.96 1291.47,822.13 1287.87,819.82 1284.87,815.47 1283.65,809.02 1286.22,801.45 1291.04,795.74 1291.27,792.71 1296.06,789.1 1297.79,789.64 1299.41,784.7 1299.45,779.48 1301.33,780.2 1304.17,787.16 1304.62,790.76 1296.44,795.42 1294.61,798.28 1295.75,801.22 1291.69,806.16 1294.38,813.95 1297.61,815.97 1300.4,821.1 1301.93,821.95 1304.01,821.88 1304.82,823.49 1308.68,823.37 1310.16,826.3 1318.77,829.82 1320.96,832.24 1322.78,832.44 1324.31,831.19 1324.87,827.37 1326.07,826.32 1326.8,828.9 1328.15,827.92 1332.36,835.98 1333.98,833.84 1335.85,835.56 1338.75,833.74 1339.35,835.39" fill="none" stroke="#1e1e1e" stroke-width="1.05" stroke-linecap="round" stroke-linejoin="round"/>
<path d="M1454.83,475.76L1455.76,475.68L1456.02,477.98L1454.77,482.03L1452.12,484.96L1448.81,486.24L1445.53,485.4L1443.37,482.93L1440.42,482.71L1438.94,481.03L1432.5,482.61L1429.03,481.8L1424.91,485.32L1412.47,490.11L1408.08,490.34L1406.29,488.04L1407.32,486.46L1411.36,484.38L1413.05,481.77L1416.98,478.64L1417.98,476.36L1417,468.47L1415.2,468.63L1414.02,466.37L1408.21,468.87L1406.6,464.7L1404.4,463.53L1400.45,463.56L1395.62,460.01L1394.14,457.39L1391.57,458.47L1392.22,460.61L1390.89,461.41L1389.6,461.13L1386.09,457.74L1383.3,456.93L1381.53,457.6L1379.56,462.53L1378.07,460.91L1378.22,455.58L1376.21,455.44L1372.91,457.52L1368.45,455.58L1366.07,457.69L1363.08,456.21L1361.69,457.72L1358.65,458.58L1357.14,460.92L1355.15,460.44L1354.44,459.31L1350.44,459.43L1349.66,460.2L1348.62,465.68L1346.52,464.65L1345.53,462.94L1345.81,461.32L1348.29,459.29L1347.64,457.64L1342.79,454.36L1340.34,455.35L1337.03,454.54L1334,446.46L1334.18,443.44L1335.08,443.48L1338.32,451.89L1342.78,451.08L1346.4,445.09L1346.57,441.88L1340.92,439.49L1339.66,437.46L1344.15,437.77L1342.59,431.79L1344.26,431.62L1345.34,432.51L1346.57,436.67L1350.21,439.36L1350.63,443.55L1354.6,448.69L1351.76,450.88L1348.68,450.63L1348.71,451.49L1352.71,452.15L1357.45,451.14L1357.42,450.29L1355.32,448.66L1357.22,444.67L1357.07,441.58L1358.78,440.96L1360.25,437.13L1360.91,437.11L1359.21,445.04L1361.88,449.7L1365.44,449.55L1364.77,447.27L1365.84,445.66L1368.35,449.84L1370.18,449.77L1370.99,448.32L1371.8,448.25L1372.6,451.49L1374.38,453.21L1376.53,451.89L1379.19,453.79L1387.65,454.25L1391.75,455.86L1393.04,455.46L1393.95,453.15L1395.6,453.12L1397.23,456.4L1400.9,460.11L1406.45,461.35L1408.72,463.37L1410.1,466.36L1411.9,465.05L1415.85,466.88L1419.9,465.87L1422.45,461.39L1425.06,460.86L1426.73,458.66L1428.43,451.79L1428.19,448.45L1426.16,443.7L1427.96,443.69L1430.12,445.79L1430.56,449.53L1429.31,456.74L1432.14,457.09L1439.34,455.29L1448.78,454.82L1445.19,456.72L1430.96,458.49L1428.71,459.34L1426.36,461.84L1422.48,462.73L1418.67,469.96L1420.29,476.03L1423.37,478.46L1425.91,479.27L1430.43,480.02L1438.14,478.87L1440.2,479.32L1443.22,481.64L1445.36,481.98L1452.3,479.32L1454.83,475.76Z" fill-rule="evenodd" fill="#4682b4" fill-opacity="0.471"/>
<polyline points="1454.83,475.76 1455.76,475.68 1456.02,477.98 1454.77,482.03 1452.12,484.96 1448.81,486.24 1445.53,485.4 1443.37,482.93 1440.42,482.71 1438.94,481.03 1432.5,482.61 1429.03,481.8 1424.91,485.32 1412.47,490.11 1408.08,490.34 1406.29,488.04 1407.32,486.46 1411.36,484.38 1413.05,481.77 1416.98,478.64 1417.98,476.36 1417,468.47 1415.2,468.63 1414.02,466.37 1408.21,468.87 1406.6,464.7 1404.4,463.53 1400.45,463.56 1395.62,460.01 1394.14,457.39 1391.57,458.47 1392.22,460.61 1390.89,461.41 1389.6,461.13 1386.09,457.74 1383.3,456.93 1381.53,457.6 1379.56,462.53 1378.07,460.91 1378.22,455.58 1376.21,455.44 1372.91,457.52 1368.45,455.58 1366.07,457.69 1363.08,456.21 1361.69,457.72 1358.65,458.58 1357.14,460.92 1355.15,460.44 1354.44,459.31 1350.44,459.43 1349.66,460.2 1348.62,465.68 1346.52,464.65 1345.53,462.94 1345.81,461.32 1348.29,459.29 1347.64,457.64 1342.79,454.36 1340.34,455.35 1337.03,454.54 1334,446.46 1334.18,443.44 1335.08,443.48 1338.32,451.89 1342.78,451.08 1346.4,445.09 1346.57,441.88 1340.92,439.49 1339.66,437.46 1344.15,437.77 1342.59,431.79 1344.26,431.62 1345.34,432.51 1346.57,436.67 1350.21,439.36 1350.63,443.55 1354.6,448.69 1351.76,450.88 1348.68,450.63 1348.71,451.49 1352.71,452.15 1357.45,451.14 1357.42,450.29 1355.32,448.66 1357.22,444.67 1357.07,441.58 1358.78,440.96 1360.25,437.13 1360.91,437.11 1359.21,445.04 1361.88,449.7 1365.44,449.55 1364.77,447.27 1365.84,445.66 1368.35,449.84 1370.18,449.77 1370.99,448.32 1371.8,448.25 1372.6,451.49 1374.38,453.21 1376.53,451.89 1379.19,453.79 1387.65,454.25 1391.75,455.86 1393.04,455.46 1393.95,453.15 1395.6,453.12 1397.23,456.4 1400.9,460.11 1406.45,461.35 1408.72,463.37 1410.1,466.36 1411.9,465.05 1415.85,466.88 1419.9,465.87 1422.45,461.39 1425.06,460.86 1426.73,458.66 1428.43,451.79 1428.19,448.45 1426.16,443.7 1427.96,443.69 1430.12,445.79 1430.56,449.53 1429.31,456.74 1432.14,457.09 1439.34,455.29 1448.78,454.82 1445.19,456.72 1430.96,458.49 1428.71,459.34 1426.36,461.84 1422.48,462.73 1418.67,469.96 1420.29,476.03 1423.37,478.46 1425.91,479.27 1430.43,480.02 1438.14,478.87 1440.2,479.32 1443.22,481.64 1445.36,481.98 1452.3,479.32 1454.83,475.76" fill="none" stroke="#1e1e1e" stroke-width="1.05" stroke-linecap="round" stroke-linejoin="round"/>
<path d="M821.95,451.37L820.93,452.09L820.89,453.88L822.18,457.33L820.04,463.06L821.21,465.24L832.87,477.82L833.73,476.8L833.05,471.39L835.63,460.3L836.29,460.31L836.77,466.06L841.1,473.73L842.4,480.72L846.42,489.87L847.62,491.49L851.96,492.64L851.95,493.57L848.79,494.71L840.72,495.39L837.65,497.57L836.67,503.47L834.47,505.82L831.71,511.76L829.33,509.97L827.51,506.06L824.04,504.73L819.97,501.55L813.5,498.97L807.89,491.81L793.93,482.79L792.57,478.85L793.5,473.65L799.31,457.92L801.06,455.99L808.9,455.01L811.24,453.94L812.28,451.54L812.38,446.74L809.72,439.87L811.19,434.65L807.89,429.4L813.34,426.91L823.29,440.71L826.11,448.84L821.95,451.37Z" fill-rule="evenodd" fill="#4682b4" fill-opacity="0.471"/>
<polyline points="821.95,451.37 820.93,452.09 820.89,453.88 822.18,457.33 820.04,463.06 821.21,465.24 832.87,477.82 833.73,476.8 833.05,471.39 835.63,460.3 836.29,460.31 836.77,466.06 841.1,473.73 842.4,480.72 846.42,489.87 847.62,491.49 851.96,492.64 851.95,493.57 848.79,494.71 840.72,495.39 837.65,497.57 836.67,503.47 834.47,505.82 831.71,511.76 829.33,509.97 827.51,506.06 824.04,504.73 819.97,501.55 813.5,498.97 807.89,491.81 793.93,482.79 792.57,478.85 793.5,473.65 799.31,457.92 801.06,455.99 808.9,455.01 811.24,453.94 812.28,451.54 812.38,446.74 809.72,439.87 811.19,434.65 807.89,429.4 813.34,426.91 823.29,440.71 826.11,448.84 821.95,451.37" fill="none" stroke="#1e1e1e" stroke-width="1.05" stroke-linecap="round" stroke-linejoin="round"/>
<path d="M1781.92,500.64L1770.84,501.63L1768.19,499.46L1763.35,499.73L1762.25,498.89L1763.67,494.51L1761.82,492.72L1760.08,492.98L1757.9,491.41L1758.31,487.94L1760.46,489.55L1760.28,488.4L1761.68,487.65L1760.09,485.17L1758.74,486.14L1754.66,485.63L1755.31,484.64L1754.67,483.31L1756.51,482.86L1754.23,480.47L1755.12,479.61L1754.72,478.97L1753.95,479.19L1753.11,483.18L1751.44,483.84L1747.63,482.67L1747.51,485.85L1745.3,488.09L1744.33,487.68L1737.21,488.94L1734.04,484.94L1732.84,484.22L1727.55,483.79L1725.98,482.91L1725.05,481.15L1721.82,483.13L1719.96,485.86L1718.08,486.38L1715.33,484.96L1714.36,483.73L1714.59,481.88L1713.26,480.98L1708.79,483.94L1707.4,484.09L1706.15,482.66L1702.92,485.08L1698.85,485.8L1697.81,483.35L1698.7,481.97L1702.55,480.33L1706.13,473.88L1709.4,472.39L1707.51,469.93L1707.67,468.57L1715.8,467.07L1713.58,465.53L1709.25,457.58L1709.37,455.41L1712.1,453.17L1724.76,446.85L1735.25,444.13L1737.52,442.64L1744.37,443.45L1745.22,444.28L1755.57,441.99L1759.63,443.21L1772.78,439.59L1780.51,433.79L1783.05,427.56L1780.1,426.73L1776.91,427.16L1776.08,426.37L1773.71,430.13L1777,429.54L1777.54,431.4L1775.9,433.26L1772.65,432.72L1769.82,428.56L1768.86,424.49L1769.41,423.77L1773.15,423.08L1778.02,420.86L1782.17,421.5L1788.56,418.1L1793,418.76L1792.04,415.44L1794,416.87L1796.29,416.78L1796.38,414.57L1798.65,413.99L1800.89,412.03L1801.99,412.65L1808.45,412.44L1814.9,413.38L1819.59,412.95L1822.03,414.75L1824.85,415.16L1826.73,416.63L1825.4,417.61L1826.9,418.41L1814.95,421.97L1813.95,425.62L1812.15,427.58L1805.19,429.77L1803.7,430.99L1801.78,434.68L1799.59,432.56L1796.53,432.2L1793.67,433.76L1792.65,441.02L1788.1,442.58L1785.81,444.69L1785.34,449.07L1782.32,453.78L1780.85,460.04L1778.73,461.83L1773.94,463.89L1774.03,464.85L1774.69,464.79L1777.89,462.57L1782.93,461.46L1784.45,461.85L1787.38,465.89L1792.93,467.61L1797.67,470.63L1799.2,477.59L1797.86,483.65L1793.99,483.92L1783.45,492.99L1782.91,496.22L1783.97,499.23L1781.92,500.64Z" fill-rule="evenodd" fill="#4682b4" fill-opacity="0.471"/>
<polyline points="1781.92,500.64 1770.84,501.63 1768.19,499.46 1763.35,499.73 1762.25,498.89 1763.67,494.51 1761.82,492.72 1760.08,492.98 1757.9,491.41 1758.31,487.94 1760.46,489.55 1760.28,488.4 1761.68,487.65 1760.09,485.17 1758.74,486.14 1754.66,485.63 1755.31,484.64 1754.67,483.31 1756.51,482.86 1754.23,480.47 1755.12,479.61 1754.72,478.97 1753.95,479.19 1753.11,483.18 1751.44,483.84 1747.63,482.67 1747.51,485.85 1745.3,488.09 1744.33,487.68 1737.21,488.94 1734.04,484.94 1732.84,484.22 1727.55,483.79 1725.98,482.91 1725.05,481.15 1721.82,483.13 1719.96,485.86 1718.08,486.38 1715.33,484.96 1714.36,483.73 1714.59,481.88 1713.26,480.98 1708.79,483.94 1707.4,484.09 1706.15,482.66 1702.92,485.08 1698.85,485.8 1697.81,483.35 1698.7,481.97 1702.55,480.33 1706.13,473.88 1709.4,472.39 1707.51,469.93 1707.67,468.57 1715.8,467.07 1713.58,465.53 1709.25,457.58 1709.37,455.41 1712.1,453.17 1724.76,446.85 1735.25,444.13 1737.52,442.64 1744.37,443.45 1745.22,444.28 1755.57,441.99 1759.63,443.21 1772.78,439.59 1780.51,433.79 1783.05,427.56 1780.1,426.73 1776.91,427.16 1776.08,426.37 1773.71,430.13 1777,429.54 1777.54,431.4 1775.9,433.26 1772.65,432.72 1769.82,428.56 1768.86,424.49 1769.41,423.77 1773.15,423.08 1778.02,420.86 1782.17,421.5 1788.56,418.1 1793,418.76 1792.04,415.44 1794,416.87 1796.29,416.78 1796.38,414.57 1798.65,413.99 1800.89,412.03 1801.99,412.65 1808.45,412.44 1814.9,413.38 1819.59,412.95 1822.03,414.75 1824.85,415.16 1826.73,416.63 1825.4,417.61 1826.9,418.41 1814.95,421.97 1813.95,425.62 1812.15,427.58 1805.19,429.77 1803.7,430.99 1801.78,434.68 1799.59,432.56 1796.53,432.2 1793.67,433.76 1792.65,441.02 1788.1,442.58 1785.81,444.69 1785.34,449.07 1782.32,453.78 1780.85,460.04 1778.73,461.83 1773.94,463.89 1774.03,464.85 1774.69,464.79 1777.89,462.57 1782.93,461.46 1784.45,461.85 1787.38,465.89 1792.93,467.61 1797.67,470.63 1799.2,477.59 1797.86,483.65 1793.99,483.92 1783.45,492.99 1782.91,496.22 1783.97,499.23 1781.92,500.64" fill="none" stroke="#1e1e1e" stroke-width="1.05" stroke-linecap="round" stroke-linejoin="round"/>
<text x="1720.16" y="467.59" font-family="sans-serif" font-size="14" stroke="#ffffff" stroke-opacity="0.784" stroke-width="2.33" stroke-linejoin="round" paint-order="stroke" fill="#141414">Lake Van</text>
<text x="779.01" y="482.27" font-family="sans-serif" font-size="14" stroke="#ffffff" stroke-opacity="0.784" stroke-width="2.33" stroke-linejoin="round" paint-order="stroke" fill="#141414">Lake Tuz</text>
<text x="1329.84" y="468.52" font-family="sans-serif" font-size="14" stroke="#ffffff" stroke-opacity="0.784" stroke-width="2.33" stroke-linejoin="round" paint-order="stroke" fill="#141414">Keban Baraji</text>
<text x="587.89" y="600.99" font-family="sans-serif" font-size="14" stroke="#ffffff" stroke-opacity="0.784" stroke-width="2.33" stroke-linejoin="round" paint-order="stroke" fill="#141414">Beyşehir</text>
<text x="1271.86" y="623.86" font-family="sans-serif" font-size="14" stroke="#ffffff" stroke-opacity="0.784" stroke-width="2.33" stroke-linejoin="round" paint-order="stroke" fill="#141414">Ataturk Barajt</text>
<text x="1223.5" y="829.52" font-family="sans-serif" font-size="14" stroke="#ffffff" stroke-opacity="0.784" stroke-width="2.33" stroke-linejoin="round" paint-order="stroke" fill="#141414">Buhayrat al-Assad</text>
<text x="534.14" y="562.98" font-family="sans-serif" font-size="14" stroke="#ffffff" stroke-opacity="0.784" stroke-width="2.33" stroke-linejoin="round" paint-order="stroke" fill="#141414">Eğirdir</text>
<text x="1281.96" y="515.1" font-family="sans-serif" font-size="14" stroke="#ffffff" stroke-opacity="0.784" stroke-width="2.33" stroke-linejoin="round" paint-order="stroke" fill="#141414">Saksak Dagi</text>
</svg>
