<?xml version="1.0" encoding="UTF-8" standalone="no"?>
<svg xmlns="http://www.w3.org/2000/svg" width="2000" height="1179" viewBox="0 0 2000 1179">
<rect width="2000" height="1179" fill="#ffffff"/>
<polyline points="373.4,1125.97 370.19,1134.71 373.64,1147.4" fill="none" stroke="#1e1e1e" stroke-width="1.07" stroke-linecap="round" stroke-linejoin="round"/>
<polyline points="1583.81,225.17 1586.95,224.49 1588.75,222.98 1592.21,217.74 1593,214.4 1592.77,210.7 1591.27,206.46 1584.91,199.38 1571.28,193.82 1567.02,194.2 1558.54,196.98 1554.23,197.36 1545.96,195.91 1543.51,194.29 1532.2,178.99 1526.04,173.69 1517.66,163.63 1502.8,154.38 1497.48,149.69 1492.88,148.61 1488.99,148.87 1483.52,147.43 1469.31,149.84 1462.62,152.64 1456.28,152.33 1448.32,154.18 1445.52,153.89 1438.27,150.46 1437.02,150.88 1434.22,154.74 1432.44,155.3 1427.55,153.02 1425.19,152.85 1416.06,157.83 1411.15,164.41 1408.93,166.04 1406.32,166.65 1401.43,165.22 1399.72,162.58 1398.55,157 1396.38,156.02 1389.31,156.72 1386.61,155.94 1381.68,151.99 1380.39,151.81 1377.14,154.1 1374.35,154.04 1369.64,150.33 1366.9,149.15 1363.82,149.45 1357.59,155.6 1350.44,159.41 1348.59,161.96 1346.29,170.91 1341.39,176.83 1341.27,179.26 1342.32,181.4 1346.38,183.66 1348.53,187.8 1352.34,189.37 1353.21,191.29 1353.43,201.07 1350.36,209.4 1343.42,211.68 1341.38,214.55 1340.16,214.62 1330.66,207.34 1328.09,206.47 1318.39,205.74 1311.81,207.3 1305.77,204.84 1303.08,205.27 1301.52,209.3 1302.55,214.5 1300.33,219.76 1296.67,224.12 1289.21,229.74 1270.04,236.79 1265.89,235.42 1263.86,231.17 1261.8,230.14 1260.49,219.29 1258.11,217.77 1255.94,217.87 1244.98,220.34 1240.01,215.94 1233.55,211.96 1231.49,208.08 1217.81,205.86 1212.23,206.63 1207.59,208.58 1199.37,216.89 1196.5,218.47 1172.46,221.65 1167.79,220.09 1155.97,210.24 1147.99,205.57 1131.57,200.57" fill="none" stroke="#1e1e1e" stroke-width="1.07" stroke-linecap="round" stroke-linejoin="round"/>
<polyline points="626.48,508.61 638.34,511.39 640.71,510.64 643.34,503.36 644.73,501.5 648.79,500.79" fill="none" stroke="#1e1e1e" stroke-width="1.07" stroke-linecap="round" stroke-linejoin="round"/>
<polyline points="530.79,471.72 550.77,485.91 552.78,487.8 553.96,491.16 561.67,493.34 583.64,507.48 596.29,512.31 610.64,514.18 613.26,509.98 619.31,505.88 621.9,505.51 624.37,506.29 626.48,508.61" fill="none" stroke="#1e1e1e" stroke-width="1.07" stroke-linecap="round" stroke-linejoin="round"/>
<polyline points="648.79,500.79 649.54,501.14 650.64,499.4 653.98,491.61 657.21,493.02 663.15,488.78 665.16,488.63 673.92,489.43 675.34,489.93 676.85,493.88 683.21,494.75 686.12,497.2 692.54,497.7 698.16,500.67 713.48,503.63 714.4,504.37 715.77,509.6 718.77,514.18 719.21,517.1 728.09,525.59 728.06,526.54 726.26,528.46 725.34,531.13 724.67,542.49 722.42,548.75 707.39,560.89 709.77,569.54 715.99,571.88 725.14,572.35 727.75,574.32 729.52,572.87 733.94,577.71 742.72,574.83 743.7,576.21 742.52,582.05 743.81,583.44 744.07,585.15 739.58,593.96 745.06,598.28 747.51,598.36 749.95,599.6 755.43,593.8 757.73,595.51 761.02,601.96 773.31,604.69 776.54,604.49 776.33,601.36 781.25,601.5 784.08,598.48 785.53,598.45 791.64,606.12 791.61,607.17 789.45,607.53 787.89,608.97 787.38,610.55 788.72,611.8 788.38,613.91 783.67,615.32 784.46,617.47 787.26,620.32 791.44,621.82 792.98,625.23 795.38,623.13 799.16,624.74 806.45,633.18 807.83,636.54 806.72,643.6 808.74,647.23 813.56,652.24 815.52,656.51 825.88,659.16 831.2,658.67 843.54,660.73 846.32,662.1 851.9,668.39 852.57,670.09 850.49,672.25 852.24,677.94 857.37,679.47 858.75,680.78 858.71,682.98 864.22,686.16 866.93,689.56 872.9,691.54 874.02,692.66 880.76,709.2 882.78,712.26 886.44,714.09 911.1,715.81 911.95,715.57 913.75,711.37 929.68,711.52 935.57,720.13 939.13,721.12 939.54,720.49 938.1,716.78 940.08,715.32 944.81,721.16 951.58,725.42 952.18,730.72 956.81,731.8 960.32,735.09 962.19,734.42 965.34,730.9 966.4,730.79 975.55,732.83 979.1,735.16 983.77,740.69 989.43,753.7 993.29,757.39 993.29,761.61 994.2,764.46 998.25,767 999.6,768.86 1000.79,781.21 1008.98,786.12 1006.93,789.19 1004.76,790.66 1004.37,792.95 999.68,799.78 1001.91,802.46 1011.16,805.14 1016.94,809.36 1022.65,811.46 1036.67,829.77 1039.19,831.75 1043.77,833.04 1048.91,838.74 1054.39,841.01 1060.88,845.27 1061.12,850.12 1059.5,851.66" fill="none" stroke="#1e1e1e" stroke-width="1.07" stroke-linecap="round" stroke-linejoin="round"/>
<polyline points="426.68,920.66 427.75,922.08 427.79,930.38 424.16,940.2 421.76,944.32 420.85,966.8 421.28,970.64 422.58,973.59 429.2,978.39 430.12,980.1 430.86,985.53 433.74,993.17 433.81,998.59 430.71,1004.22 428.66,1011.34 425.65,1017.9 425.87,1020.79 423.9,1023.28 424.64,1026.66 427.4,1031.5 426.01,1038.74 422.33,1044.98 420.32,1046.38 419.6,1052.4 414.25,1063.47 409.43,1064.23 407.97,1063.02 406.22,1064.01 404.25,1063.9 404.43,1058.73 401.3,1054.92 394.1,1049.26 393,1044.72 393.58,1034.63 394.81,1026.47 396.56,1021.4 396.36,1018.66 392.9,1016.76 390.8,1016.68 387.66,1020.91 378.06,1020.28 374,1021.22 375.33,1024 374.51,1025.38 373,1025.56 371.9,1022.23 370.65,1022.1 362.47,1025.95 358.52,1030.54 358.96,1031.46 358.35,1032.74 357.03,1031.93 356.28,1032.84 356.54,1036.86 354.41,1037.44 354.76,1039.89 349.25,1043.23 338.94,1042.88 336.62,1044.81 334.43,1043.68 327.17,1043.47 315.5,1046.38 282.27,1048.54 269.01,1050.92 262.13,1056.2 261.73,1058.8 252.42,1070.71 250.47,1071.48 250.58,1075.33 248.19,1079.1 250.36,1083.98 251.03,1088.63 253.5,1093.72 252.3,1097.28 253.49,1099.58 252.08,1105.48 252.37,1109.7 251.07,1112.6 248.46,1113.68 248.57,1118.1 250.78,1126.34 252.18,1127.97 255.22,1137.61" fill="none" stroke="#1e1e1e" stroke-width="1.07" stroke-linecap="round" stroke-linejoin="round"/>
<polyline points="378.86,420.11 375.24,418.57 362.76,416.56 356.66,412.41 349.09,409.12 347.72,407.93 346.06,403.35 343.24,402.35 339.97,399.55 339.57,396.01 336.57,394.13 334.23,389.68 331.43,388.27 330.76,385.29 327.41,385.31 322.16,380.02 322.93,378.19 327.26,376.23 326.62,374.54 326.98,372.54 329.11,369.93 327.19,367.12 323.04,354.52 318.43,348.7 315.39,346.76 313.91,343.07 315.66,334.48 316.7,333.42 316.22,332.58 319.67,324.39 318.97,317.89 321.34,316.43 324.28,309.72 319.97,306.26 319.86,307.41 316.05,304.94 314.08,300.94 311.89,299.55 311.56,296.61 310.42,295.83 307.79,296 305.88,297.62 303.48,288.01 304.4,284.55 299.33,281.74 298.18,279.25 299.8,275.72 294.9,273.83 293.63,271.73 293.73,268.77 295.19,266.24 297.59,264.74 300.31,264.65 302.75,266.34 304.82,265.65 308.06,265.92 311.07,265.57 312.51,263 311.44,260.94 303.75,255.71 297.75,249 296.53,246.43 296.06,241.67 295.14,239.92 292.21,237.68 292.83,235.55 292.3,228.99 288.35,219.44 288.85,218.07 290.54,217.39 289.63,215.41 285.5,210.26 280.87,206.66 278.96,203.79 274.78,191.52 269.93,189.13 269.63,185.78 270.36,183.77 273.8,179.99 275.63,179.48 275.52,175.76 277.47,174.34 273.53,166.24 275.28,162.33 270.93,159.24 270.26,153.94 267.56,152.3 266.61,149.77 267.92,149.9 265.55,143.82 266.4,135.95 265.54,133.5 267.05,133.18 268.41,131.77 267.32,128.91 268.67,128.18 267.75,125.22 269.69,119.04 275.64,114.65 277.06,111.17 274.33,105.66 275.53,104.49 276.25,101.19 277.45,100.66 276.9,99.54 279.16,90.09 281.38,86 284.44,83.17 282.12,68.86 280.18,67.44 278.86,63.85 277.19,62.59 270.89,61.51 268.79,55.97 269.43,52.44 267.7,53.82 265.99,51.43 264.52,52.87 261.76,51 260.34,51.39 261.03,48.8 253.42,45.55 252.32,44.17 250.8,44.58 244.19,42.03 242.21,40.45 243.25,37.78 243.15,35.72 241.01,32.77" fill="none" stroke="#1e1e1e" stroke-width="1.07" stroke-linecap="round" stroke-linejoin="round"/>
<polyline points="202.14,14.54 211.79,17.69 219.26,17.47 221.92,18.65 223.86,21.01 224.37,24.6 226.49,23.76 230.39,28.45 228.83,31.48 230.29,32.61 234.75,31.04 239.2,33.76 240.89,33.91" fill="none" stroke="#1e1e1e" stroke-width="1.07" stroke-linecap="round" stroke-linejoin="round"/>
<polyline points="281.97,69 305.84,69.2 310.42,65.9 313.37,62.48 316.81,60.68 322.8,62.23 329.3,65.08 332.86,64.03 336.37,65.87 338.43,66.01 353.26,61.96 355.2,63.2 355.85,65.28 352.25,69.62 352.89,71.48 356.31,75.5 356.01,78.4 359.41,84.62 360.1,87.82 359.96,90.61 358.71,93.64 354.4,100.01 350.59,99.45 340.95,102.79 337.4,104.34 332.8,107.96 333.24,114.48 331.41,123.99 323.82,130.06 320.6,131.52 317.63,132.11 312.2,131.71 310.46,132.38 308.47,134.75 299.58,140.66 296.73,143.96 292.44,151.95 289.55,153.72 284.84,155.16 284.12,156.22 284.52,158.72 283.75,162.48" fill="none" stroke="#1e1e1e" stroke-width="1.07" stroke-linecap="round" stroke-linejoin="round"/>
<polyline points="414.39,927.3 408.25,926.18 398.21,920.71 393.94,916.81 392.31,914.17 391.5,910.86 391.75,907.73 394.51,898.87 394.46,891.87 392.59,886.87 389.38,883.42 365.78,871.99 354.18,871.57 347.41,867.87 342.99,867.48 338.34,869.21 329.71,875.27 325.38,879.92 320.11,888.87 313.97,895.97 301.83,918.47 293.74,929.27 283.45,936.79 272.42,940.96 262.16,941.74 255.88,938.05 251.72,936.83 250.08,937.54 247.91,941.47 246.21,941.61 246.17,937.97 244.45,937.16 241.39,939.34 239.5,941.86 237.76,939.83 233.08,943.82 205.39,951.94 204.31,953.07 206.29,957.28 205.51,960.35 200.98,968.25 202.49,970.56 196.34,987.27 191.88,989.36 184.11,1000.16 177.21,1002.43 173.83,1001.73 167.62,1004.06 160.43,1009.6 157.95,1008.47 154.28,1008.97 145.84,1012.52 141.39,1016.64 136.15,1017.53 128.22,1020.9 125.42,1020.31 117.49,1013.4 105.81,1006.67 103.24,1006.03 94.39,1006.11 82.3,1002.58 68.54,1001.18 63.28,997.29 58.54,990.02 56.39,988.99 47.01,988.73 40.31,986.53 35.66,987.3 28.63,986.58" fill="none" stroke="#1e1e1e" stroke-width="1.07" stroke-linecap="round" stroke-linejoin="round"/>
<polyline points="929.81,244.57 935.13,250.98" fill="none" stroke="#1e1e1e" stroke-width="1.07" stroke-linecap="round" stroke-linejoin="round"/>
<polyline points="462.77,93.29 467.18,92.76 474.11,89.15 478.24,88.05 495.95,89.34 506.51,85.22 509.23,84.81 513.05,86.13 515.77,84.43 522.27,83.5 530.59,85.48 533.96,84.23 539.13,87.84 540.94,88.19 544.98,87.28 548.42,84.55 553.61,85.56 569.63,85.45 576.15,86.91 583.24,83.09 591.24,85.76 596.41,82.7 600.32,81.62 606.47,82.27 608.92,84.52 613.25,83.69 619.36,84.27 621.43,82.05 627.48,85.5 636.01,84.33 637.07,86.88 640.57,86.16 643.71,88.54 651.64,89.01 655.41,90.07 659.69,93.04 666.93,94.39 670.58,97.45 677.29,97.61 681.33,98.96 682.97,100.96 684.59,101.57 689.27,99.02 696.77,99.34 699.01,100.46 700.04,99.47 701.52,101.21 703.96,100.76 711.5,97.69 715.56,94.31 717.8,95.94 719.08,95.26 724.66,96.21 726.3,97.19 728.64,101.14 730.66,101.83 735.49,98.31 743.97,95.76 747.54,95.89 750.92,93.02 761.29,92.19 762.42,91.06 763.08,91.74 762.3,93.89 763.05,95.68 768.68,97.74 772.82,95.25 774.93,94.9 776.61,95.87 777.66,93.67 779.12,93.24 782.84,94.05 784.73,96.12 786.07,95.11 789.63,95.21 796.23,97.56 798.97,96.75 805.3,97.67 807.16,101.09 810.59,101.61 823.48,113.35 825.24,117.54 830.15,121.89 837.5,125.39 838.51,127.9 837.01,136.38 839.61,139.96 838.22,141.12 838.2,142.18 840.86,148.59 842.67,149.69 845.66,147.64 846.46,149.77 845.29,152.2 847.87,154.04 851.5,151.99 853.38,152.72 856.98,157.49 855.17,159.27 854.34,161.68 854.46,162.6 855.62,162.69 858.24,169.1 859.62,170.7 862.95,172.37 864.11,176.75 869.18,179.92 870.07,181.71 869.02,184.18 870.89,187 873.56,188.6 878.18,187.51 877.4,191.96 878.07,193.96 880.92,195.61 879.99,198.22 881.2,199.08 883.94,198.28 887.2,203.63 889.16,204.61 891.55,204.68 895.86,202.8 896.45,203.76 893.77,205.94 899.55,210.62 900.12,214.73 902.39,216.25 900.89,220.85 904.83,222.93 907.69,229.41 912.19,233.03 915.82,234.03 917.04,237.64 919.99,238.01 925.26,240.16 927.99,242.02 929.81,244.57" fill="none" stroke="#1e1e1e" stroke-width="1.07" stroke-linecap="round" stroke-linejoin="round"/>
<polyline points="1562.04,254.37 1556.16,257.07 1554.61,258.59 1552.38,268.47 1541.42,284.64 1542.2,287.78 1538.08,293.94 1537.79,296.92 1534.79,305.36 1532.47,319.29 1535.8,327.74 1539.7,333.65 1541.33,337.84 1546.85,340.63 1552.16,347.67 1554.33,349.22 1556,356.82 1560.03,362 1560.92,365.67 1559.23,370.09 1559.66,375.84 1558.06,394.36 1559.38,400.44 1564.65,405.88 1566.17,410.09 1574.29,418.12 1576.46,421.96 1572.75,432.4 1566.95,435.28 1554.78,428.91 1550.02,430.9 1550.46,433.46 1547.06,438.34 1545.18,439.74 1541.56,439.81 1539.35,441.05 1536.65,445.74 1533.77,453.76 1531.93,455.61 1527.85,456.94 1524.72,461.4 1520.42,459.97 1518.08,460.37 1517.2,462.45 1516.4,471.27 1516.57,473.62 1517.73,475.46 1521.94,478.93 1530.44,481.19 1537.86,485.74 1541.62,483.06 1548,489.54 1552.94,490.24 1556.46,492.74 1559.83,493.78 1562.48,497.69 1564.67,498.92 1566.62,498 1569.65,494.41 1573.58,497.58 1579.14,497.84 1584.72,500.32 1591.79,501.15 1595.49,504.11 1597.8,507.11 1600.99,508.08 1601.4,511.31 1599.85,513.16 1597.69,513.89 1595.78,516.81 1586.89,513.63 1582.31,513.11 1581.97,516.9 1579.58,517.75 1578.86,520.03 1579.4,522.36 1581.92,524.44 1578.8,530.83 1579.76,533.05 1581.76,533.83 1587.48,533.61 1590.6,534.27 1594.25,531.77 1597.95,535.72 1602.42,534.41 1606.79,537.03 1609.73,534.8 1613.43,533.31 1614.34,524.48 1615.66,524.66 1618.33,528.9 1619.7,537.08 1621.47,538.2 1625.66,537.86 1629.54,538.69 1631.62,540.98 1637.02,544.44 1638.06,548.61 1640.4,551.12 1643.18,552.11 1645.84,551.37 1648.43,548.42 1652.67,547.55 1654.48,548.76 1655.97,551.29 1652.46,553.75 1654.11,556.8 1652.23,559.08 1652.32,560.14 1663.1,560.17 1667.28,564.16 1668.8,569.23 1669.97,570.29 1672.84,568.31 1681.47,569.82 1685.2,568.95 1687.66,564.49 1688.77,564.37 1692,566.22 1693.88,565.76 1697.06,560.57 1709.79,560.26 1713.85,561.15 1715.59,556.64 1717.57,555.3 1715.8,547.42 1716.4,545.62 1718.65,544.58 1722.49,545.38 1726.3,548.3 1745.39,567.72 1751.61,572.15 1759.97,581.08 1766.63,581.8 1768.86,579.74 1776.2,581.69 1784.93,580.8 1789.34,582.47 1793.7,580.96 1795.22,582.91 1797.16,588.11 1799.15,589 1801.3,594.93 1802.54,595.62 1805.13,595.83 1809.25,594.34 1811.92,589.7 1814.03,588.94 1816.78,586 1818.77,584.83 1821.83,585.17 1823.74,577.07 1829.24,573.95 1834.49,580.92 1835.82,586.1 1839.52,587.92 1845.67,589.05 1850.89,591.99 1854.16,599.07 1856.13,597.8 1861.91,598.55 1869.29,596.57 1881.57,596.73 1884.43,598 1886.73,600.46 1889.02,607.38 1888.73,608.73 1886.43,609.38 1886.96,611.75 1889.23,613.62 1896.95,627.32" fill="none" stroke="#1e1e1e" stroke-width="1.07" stroke-linecap="round" stroke-linejoin="round"/>
<polyline points="1928.66,628.8 1925.37,627.29 1919.91,629 1914.25,626.47 1897.09,628.47" fill="none" stroke="#1e1e1e" stroke-width="1.07" stroke-linecap="round" stroke-linejoin="round"/>
<polyline points="1214.11,55.64 1211.33,58" fill="none" stroke="#1e1e1e" stroke-width="1.07" stroke-linecap="round" stroke-linejoin="round"/>
<polyline points="1211.98,57.98 1209.85,61.89 1208.79,68.02 1207.18,70.93 1206.68,76.15 1203.36,80.39 1202.89,82.23 1203.8,91.16 1201.23,94.51 1202.83,97.5 1202.22,101.56 1198.39,109.41 1200.61,111.64 1207.1,115.52 1209.65,121.04 1208.67,122.89 1199.75,125.92 1195.35,129.62 1189.2,130.01 1189.94,133.03 1187.56,133.72 1185.67,138.39 1182.59,140.81 1181.08,143.83 1180.2,147.51 1182.61,155.45 1189.34,162.76 1189.32,164.48 1187.55,167.08 1181.02,171.92 1177.87,173.02 1174.76,176.45 1172.52,177.04 1163.84,176.35 1162.72,177.77 1162.1,181.05 1160.46,182.84 1158.3,183.05 1156.16,181.57 1155.53,182.74 1154.79,181.6 1150.24,184.97 1149.08,182.18 1144.76,185.13 1144.2,184.15 1141.91,183.21 1141.54,185.05 1140.4,186.12 1135.81,187.27 1136.17,189.3 1132.63,192.62 1133.36,195.52 1132.97,198.07 1130.8,201.22 1129.04,202.1 1126.02,201.93 1124.47,199.12 1109.97,203.67 1106.94,201.6 1104.8,203.42 1087.94,208.92 1082.67,213.65 1083.37,216.73 1077.66,215.73 1071.03,218 1069.52,217.39 1066.03,212.77 1059.04,207.67 1057.68,207.44 1056.33,204.28 1052.14,202.82 1051.97,200.52 1049.21,195.12 1048.02,193.66 1046.26,193.08 1042.8,193.27 1035.38,191.62 1022.92,195.65 1018.02,195.96 1017.22,194.79 1015.3,197.07 1013.39,197.9 1011.96,201.54 1009.63,202.91 1010.32,206.7 1009.4,207.97 1005.26,207.89 1003.36,214.11 997.7,218.35 997.31,220.9 995.07,221.52 995.85,224.81 990.11,228.34 987.23,231.55 986.36,233.64 987.1,236.42 980.17,241.77 977.24,242.31 971.76,249.07 972.74,251 974.47,251.2 972.51,255.37 972.45,257.54 970.96,256.72 969.94,257.16 969.86,258.36 971.12,259.75 968.1,264.2 968.04,266.49 970.42,268.21 970.41,269.27 967.03,270.21 969.23,274.04 970.38,278.26 965.63,283.09 966.96,286.17 964.5,286.11 963.56,286.85 962.88,288.27 964.08,290.48 963.8,292.07 959.5,298.34 955.78,300.86 953.29,304.42 951.76,305.23 953.32,311.59 950.69,314.74 955.04,317.4 955.12,318.89 952.65,324.37 953.24,327.72 951.93,330.71 953.19,332.83 949.84,333.96 946.17,333.84 944.41,335.69 940.92,336.75 938.25,345.84 939.66,347.64 939.65,348.7 938.16,350.12 938.02,352.36 939.07,359.36" fill="none" stroke="#1e1e1e" stroke-width="1.07" stroke-linecap="round" stroke-linejoin="round"/>
<polyline points="321.13,662.53 321.73,655.64 320.55,650.95 320.88,649.65 324.77,646.91 326.13,643.78 319.95,641.86 320.04,638.72 326.69,629.8 328.27,625.69 330.27,624.37 336.99,623.66 349.84,620.14 357.26,620.48 362.83,622.99 365.24,625.36 369.09,630.52 369.5,633.79 371.4,635.33 378.92,635.11 385.96,638.3 389.28,640.82 395.43,642.37 397.43,641.87 400.95,643.94 413.57,643.1 422.21,646.22 426.03,650.05 431,658.05 433.83,660.25 438.19,660.25 441.98,658.64 444.74,658.57 449.26,661.95 453.9,663.27 457.55,667.23 464.57,671.21 473.78,680.72 476.08,681.65 480.98,681.46 489.81,686.28 494.15,686.74 499.64,688.87 506.72,686.58 511.61,686.65 526.5,684.21 534.79,680.84 537.14,680.9 540.48,683.42 541.67,681.79 542.68,684.19 544.67,684.76 548.96,684.13 550.65,685.13 552.84,688.25 553.98,687.6 558.08,692.32 558.92,696.15 562.2,693.18 563.43,694.39 564.53,697.89 568.01,699.44 567.93,700.77 566.69,701.87 564.66,701.89 564.61,702.85 569.24,705.47 570.57,704.46 572.33,705.77 572.72,707.46 571.25,709.67 571.8,713.5 573.45,716.57 578.43,720.64 578.37,721.79 576.2,722.64 576.79,724.87 579.52,723.85 581.6,728.04 583.04,727.33 584.17,728.77 584.18,730.21 582.12,732.57 584.83,734.83 584.77,735.8 582.82,738.2 587.92,743.47 587.59,749.89 590.97,751.83 591.69,753.19 588.02,755.21 590.52,758.63 592.35,763.08 594.63,765.09 595.13,770.4 592.71,770.78 593.49,774.23 602,787.79 604.76,790.9 607.96,792.32 609.05,799.25 610.84,799.86 611.96,806.35 615.42,808.66 619.66,809.43 622.48,811.72 623.15,813.25 621.62,815.07 620.75,818.43 622.54,820.15 621.47,824.88 624.27,827.26 627.75,835.8 631.34,837.02 637.64,841.06 639.61,844.91 639.39,846.83 642.92,852.37 644.67,858.94 643.24,859.89 644.41,861.69 648.88,864.37 648.14,866.54 657.75,875.21 657.68,877.46 660.25,878.06 664.9,880.91 667.01,879.96 667.86,882.56 671.07,887.02 674.24,895.43 674.47,898.14 673.47,900.43 675.19,901.72 675,905.34 676.09,906.89 675.65,911.12 681.19,923.07 681.04,925.98 686.53,938.19 687.59,946.8 685.05,952.54 685.87,955.11 684.43,956.91 683.98,962.7 685.42,966.73 686.67,967.16 686.4,974.56 684.19,976.41 684.87,978.54 682.63,980.48 681.83,985.19 679.99,986.21 680.02,992.4 678.25,996.08 673.59,998.63 673.08,1003.19 670.57,1003.97 674.08,1012.01 668.74,1027.5 667.53,1028.79 668.18,1030.93 666.36,1037.84 670.32,1052.94 669.34,1056.49 670.67,1060.25 668.35,1062.81 668.47,1067.31 672.59,1077.33 672.59,1095.38 673.19,1097.43 666.61,1098.41 661.48,1102.98 669.81,1108.49 672.28,1113.56 672.12,1118.78 676.96,1125.85" fill="none" stroke="#1e1e1e" stroke-width="1.07" stroke-linecap="round" stroke-linejoin="round"/>
<polyline points="1983.71,1089.98 1977.46,1090.37 1974.32,1092.49 1966.76,1093.71 1963.66,1095.29 1960.19,1100.39 1954.32,1102.83 1951.87,1106.78 1950.84,1111.69 1947.42,1111.03 1944.08,1115.08 1936.06,1118.19" fill="none" stroke="#1e1e1e" stroke-width="1.07" stroke-linecap="round" stroke-linejoin="round"/>
<polyline points="1678.5,1143.3 1675.97,1140.33 1675.52,1126.73" fill="none" stroke="#1e1e1e" stroke-width="1.07" stroke-linecap="round" stroke-linejoin="round"/>
<polyline points="902.22,996.77 900.6,998.77 900.07,1000.92 900.71,1003.32 903.33,1006 909.76,1008.95 924.32,1030.93" fill="none" stroke="#1e1e1e" stroke-width="1.07" stroke-linecap="round" stroke-linejoin="round"/>
<polyline points="926.46,1033.58 924.32,1030.93" fill="none" stroke="#1e1e1e" stroke-width="1.07" stroke-linecap="round" stroke-linejoin="round"/>
<polyline points="164.51,502.87 159.34,497.1 160.11,493.14 163.55,489.95 172.28,487.78 173.81,485.27 177.57,483.06 177.5,481.01 174.77,476.38 177.91,473.52 180.2,468.97 186.37,467.68 196.16,463.11 199.74,462.59 207.24,459.77 215.52,458.82 225.28,452.76 229.17,452.75 233.12,454.09 244.07,461.43 251.68,464.44 255.27,468.63 261.64,470.16 263.97,468.56 266.33,468.34 274.71,469.92 275.98,471.31 276.94,475.63 282.04,478.63 282.59,480.81 284.64,481 288.22,483.45 292.55,481.74 294.63,482.66 297.59,486.09 301.1,493.9 302.45,499.76 301.32,503.77 304.06,506.82 305.06,511.11 306.14,512.37 313.86,515.8 315.74,516.14 318.66,514.79 321.47,516.74 323.04,516.43 324.99,517.86 327.17,516.8 330.12,521.87 334.53,523.58 334.95,525.95 338.37,529.59 345.78,533.55 347.87,535.66 349.06,539.94 348.95,543.27 352.16,545 354.97,550.91 358.15,552.05 361.69,551.98 363.96,550.89 367.93,553.23 368.97,557.66 371.56,561.48 379.14,561.65 384.21,565.33 385.07,566.49 384,572.11 387.81,578.95 388.72,578.08 390.06,573.22 391.69,571.15 394.07,569.52 396.76,569.43 394.28,576.17 393.6,583.06 396.33,580.57 398.72,580.82 404.01,583.87 401.68,585.82 395.83,587.02 394.5,589.49 395.4,593.58 398.14,592.83 403.68,588.09 406.35,588.42 407.05,582.15 409.1,582.04 412.88,583.78 414.56,583.52 414.85,580.8 415.78,580.44 418.81,581.82 416.36,585.77 417.37,587.47 421.65,590.98 427.62,593.2 433.73,598.83 434.65,601.22 433.08,605.27 434.75,608.64 433.5,611.52 436.95,613.46 441.39,614.22 442.71,618.86 443.79,619.78 444.95,619.42 446.57,615.65 449.46,613.92 455.64,622.33 455.79,625.12 462.27,627.74 465.67,626.49 468.55,622.48 471.97,623.88 473.64,619.75 475.28,619.2 476.2,620.15 476.44,622.27 474.85,630.95 477.38,634.91 479.29,636.04 481.15,635.99 482.56,634.12 480.39,629.9 480.29,625.9 480.61,625.22 483.47,625.7 484.64,627.78 484.44,636.57 487.51,638.77 495.33,638.24 502.27,642.09 505.16,642.49 507.85,641.57 510.42,639.1 512.25,639.89 517.26,638.91 521.61,642.78 525,650.6 526.31,651.98 530.28,653.12 532.01,652.18 530.8,646.83 531.82,644.65 533.02,644.48 534.54,647.02 535.6,647.27 541.28,646.75 540.99,645.16 539.38,643.31 532.01,639.48 531.91,637.81 534.08,636.16 536.32,636.85 539.88,639.93 542.94,640.9 544.26,640.05 544.93,637.53 542.75,634.29 543.02,631.67 545.35,632.72 546.04,637 546.94,638.75 548.3,638.77 549.97,636.18 550.27,631.01 551.35,630.11 553.51,630.44 554.53,631.25 553.68,634.39 554.04,637.5 555.28,639.9 557.05,640.92 559.72,640.56 564.06,635.92 566.21,635.07 572.12,636.37 574.03,638.69 575.57,637.62 584.2,639.24 586.84,636.11 590.36,636.29 594.86,638.65 597.04,638.42 598.46,636.71 598.7,634.59 596.15,632.94 596.09,630.93 598.19,630.63 602.22,631.63 604.89,634.11 606.24,634.04 610.07,629.89 614.03,631.48 616.79,634.45 618.67,638.45 621.63,653.33 622.51,654.85 626.73,655.05 630.72,653.13 632.94,653.52 632.97,657.6 634.99,658.72 647.79,659.19 651.15,660.96 659.03,667.91 664.95,677.39 669.05,679.19 678.16,680.72 680.22,681.82 681.83,683.88 682.29,686.68 680.01,692.66 681.46,693.88 685.37,693.71 688.69,691.11 690.38,690.92 691.28,696.5 692.29,698.3 694.05,698.91 696.46,698.48 702.19,694.84 708.72,694.76 709.76,696.03 709.84,698.98 709.04,702.14 704.63,706.29 703.97,710.58 705.08,711.91 707.25,711.58 711.52,705.71 713.9,705.47 715.47,706.66 716.39,708.79 716.18,711.13 714.39,712.99 717.1,719.21 720.33,722.08 721.41,722.04 722.8,714.75 724.57,713.61 728.46,714.54 731.27,716.77 736.01,718.48 735.62,722.92 732.5,722.18 725.61,729.27 725.07,730.91 725.99,733.31 728.27,732.7 734.6,727.59 735.86,727.49 737.92,729.78 741.08,728.1 742.74,729.44 744.81,733.18 748.3,736.36 751.53,735.9 754.37,738.68 756.04,742.51 755.79,746.21 759.03,749 771.31,753.11 775.14,756.63 774.96,760.75 770.82,770.12 770.22,773.54 770.47,782.22 771.88,787.92 770.82,792.33 771.42,795.06 773.69,798.64 775.22,808.51 776.8,810.49 781.34,813.52 783.09,817.19 780.84,821.26 779.91,826.02 785.71,830.89 788.29,835.32 785.53,838.12 783.8,838.08 780.26,834.53 779.27,835.07 779.34,837.46 787.65,853.45 789.18,858.71 787.48,859.46 785.4,863.9 781.92,865.82 779.99,868.1 777.2,873.19 780.27,874.71 782.91,877.59 785.49,874.19 786.42,871.57 789.9,871.95 790.44,870.09 789.01,865.05 789.95,864.03 792.56,864.83 793.35,866.23 794,866.25 795.08,864.23 800.72,867.78 801.09,870.64 804.64,872.85 808.96,877.54 809.96,883.28 809.77,885.28 808.01,884.57 809.38,887.77 808.57,889.29 803.71,891.42 800.59,890.74 802.68,895.98 806.16,899.43 808.9,899.78 815.32,896.48 817.83,897.17 818.97,899.02 819.38,907.07 821.13,911.42 821.35,920.76 822.78,923.03 824.75,923.75 826.75,922.11 828.15,923.15 833.21,915.09 834.2,915.4 834,917.07 833.44,917.06 834.35,918.94 837.73,919.27 839.02,921.2 842.33,932.62 838.82,940.54 841.92,940.67 842.71,942.39 845.34,941.63 847.56,942.36 850.3,948.07 847.3,949.8 845.12,953.37 850.16,955.57 855.3,952.49 857.03,955.42 859.94,955.74 863.17,960.04 863.45,963.5 864.93,965.38 869.6,967.44 870.66,969.67 872.67,968.63 874.13,969.35 876.06,973.03 875.23,974.35 881.86,980.52 884.56,979.34 889.23,981.37 890.69,979.6 891.6,980.31 895.45,977.54 898.94,978.62 900.33,980.12 901.13,985.27 903.77,989.28 904.36,991.81 903.75,996.16 902.22,996.77" fill="none" stroke="#1e1e1e" stroke-width="1.07" stroke-linecap="round" stroke-linejoin="round"/>
<polyline points="1729.29,21.84 1727.56,25.28 1725.28,25.73 1719.17,23.02 1717.54,24.07 1718.38,25.99 1722.04,29.13 1726.27,30.09 1738.35,28.53 1741.97,30.97 1742.69,32.64 1741.12,33.57 1735.23,34.6 1734.56,36.46 1747.33,49.84 1750.62,51.93 1755.57,53.36 1756.87,55.45 1756.25,59.23 1757.5,62.2 1759.81,64.72 1759.97,67.82 1759.56,69.04 1756.25,67.49 1754.41,69.06 1753.62,72.26 1754.38,76.04" fill="none" stroke="#1e1e1e" stroke-width="1.07" stroke-linecap="round" stroke-linejoin="round"/>
<polyline points="1754.49,77.08 1755.35,78.32 1755.04,82.35 1755.88,85.61 1760.99,91.78 1760.84,93.72 1758.37,99.07 1754.86,113.19 1754.8,115.56 1756.15,117.55 1754.51,121.85 1752.5,124.32 1755.49,130.88 1755.63,134.3 1754.25,138.06 1751.96,141.24 1751.52,143.67 1753.74,146.85 1758.51,150.27 1759.76,152.29 1759.57,153.34 1757.3,154.68 1754.71,162.1 1757.08,165.43 1757.89,167.99 1757.64,170.79 1760.67,172.39 1763.97,178.35 1768.97,180.51 1772.09,180.74 1772.87,182.45 1770.77,186.63 1771.51,188.5 1773.54,185.87 1774.55,185.29 1775.93,185.8 1773.28,194.23 1773.59,198.21 1782.51,201.35 1786.77,206.12 1785.08,209.42 1779.15,212.88 1773.34,217.47 1772.21,223.97 1775.07,228.74 1774.72,231.96 1778.35,234.11 1786.08,235.31 1787.17,235 1789.36,230.41 1796.42,231.53 1799.49,232.99 1823.5,235.19 1827.39,234.7 1831.63,233.07 1835.28,230.53 1837.35,227.25 1838.86,228.15 1835.68,235.81 1838.55,237.85 1836.92,241.14 1846.17,252.13 1847.35,254.95 1845.91,256.46 1839.44,256.92 1837.72,264.04 1838.78,269.83 1840.08,271.93 1850.99,281.34 1853.06,282.11 1856.84,280.87 1856.58,285.33 1852.95,286.53 1851.82,288.6 1855.82,292.24 1862.96,293.51 1870.52,298.25 1869.11,303.06 1869.96,304.37 1875.74,306.07 1877.11,308.04 1874.06,310.6 1870.63,324.74 1867.25,328.7 1867.76,332.83 1868.91,334.61 1874.31,338.93 1876.33,343.43 1875.11,354.52 1874.38,357.38 1872.35,359.35 1872.52,360.61 1874.78,363.46 1885.45,363.86 1896.41,358.67" fill="none" stroke="#1e1e1e" stroke-width="1.07" stroke-linecap="round" stroke-linejoin="round"/>
<polyline points="1949.09,799.99 1945.49,801.73 1942.04,800.46 1940.27,800.66 1932.07,804.59 1925.82,802.18 1917.83,806.34 1911.22,805.57 1903.97,807.91 1899.84,810.68 1895.65,811.25 1882.4,816.95 1877.79,822.84 1872.44,824.35 1869.48,827.48 1865.88,829.41 1862.24,828.4" fill="none" stroke="#1e1e1e" stroke-width="1.07" stroke-linecap="round" stroke-linejoin="round"/>
<polyline points="287.86,654.92 291.79,657.49 296.38,657.9 298.58,661.66 296.43,666.64 289.78,675.45 286.01,683.23 284.34,688.95 276.22,698.46 275.13,704.45 276.08,707.14 275.76,710.24 273.55,713.24 273.35,715.44 271,717.01" fill="none" stroke="#1e1e1e" stroke-width="1.07" stroke-linecap="round" stroke-linejoin="round"/>
<polyline points="271,717.01 274.33,720.55 276.45,727.38 283.99,741.46 285.86,743.91 289.59,745.76 297.11,748.75 299.42,748.7 305.76,745.74 309.28,744.99 318.29,739.22 323.36,738.6 328.07,740.15 335.78,746.94 342.98,750.46" fill="none" stroke="#1e1e1e" stroke-width="1.07" stroke-linecap="round" stroke-linejoin="round"/>
<polyline points="72.14,622.11 75.8,618.93 79.3,618 82.75,618.87 86.16,621.11 84.1,625.57 82.5,638.59 80.82,641.86 83.08,643.97 84.46,647.61 83.01,653.92 87.42,658.7 86.82,663.33 91.81,668.11 93.16,670.98 95.5,673.52 96.96,674.28 98.52,673.81 100.1,675.74 102.31,676.23 109.05,675.77 113.34,671.77 123.99,672.46 129.63,670.83 131.51,672.33 133.28,670.45 135.4,671.59 138.95,676.15 141.07,675.54 145.15,677.99 147.04,678.22 163.18,672.54 170.41,667.28 175.02,666.24 179.58,666.52 183.17,668.13 211.96,696.75 226.83,701.44 234.04,701.78 240.52,708.29 240.99,710.74 243.22,710.92 254.02,707.62 257.26,708.09 258.83,709.48 265.78,712.52 269.21,716.47 271,717.01" fill="none" stroke="#1e1e1e" stroke-width="1.07" stroke-linecap="round" stroke-linejoin="round"/>
<polyline points="934.33,334.8 931.24,325.41 930.02,303.26 934.09,281.64 934.67,255.58 936.66,245.67 936.65,243.23 935.19,241.63 934.49,238.64" fill="none" stroke="#1e1e1e" stroke-width="1.07" stroke-linecap="round" stroke-linejoin="round"/>
<polyline points="1203.9,565.08 1198.47,559.62 1187.76,551.88 1162.26,540.1 1133.29,528.95 1120.67,520.32 1095.11,508.16 1081.14,499.49 1074.55,496.6 1070.71,496.11" fill="none" stroke="#1e1e1e" stroke-width="1.07" stroke-linecap="round" stroke-linejoin="round"/>
<polyline points="1028.49,465.5 1026.79,462.31 1030.95,441.29 1028.54,430.63 1025.62,427.44" fill="none" stroke="#1e1e1e" stroke-width="1.07" stroke-linecap="round" stroke-linejoin="round"/>
<polyline points="1249.81,914.28 1252.85,913.49 1256.41,910.63 1260.36,899.97 1263.35,888.66 1266.34,883.23 1275.88,871.32 1282.53,860.35 1290.31,851.23 1292.42,847.14 1295.48,837.36 1296.21,828.83 1295.35,819.58 1295.79,814.77 1300.88,811.89 1311.31,812.54 1316.11,811.66 1328.05,807.01 1341.16,803.73 1356.36,795.97 1361.6,796.51 1370.7,799.88 1381.52,801.43 1388.4,801.51 1398.84,804.04 1405.76,803.5 1410.89,800.19 1414.23,795.32 1415.49,788.82 1415.31,780.94 1412.66,762.95 1407.78,753.46 1407.55,751.17" fill="none" stroke="#1e1e1e" stroke-width="1.07" stroke-linecap="round" stroke-linejoin="round"/>
<polyline points="1239.11,578.31 1251.64,585.72 1262.8,588.7 1267.05,592.68 1274.06,593.37 1275.73,594.19 1279.56,598.97 1291.29,606.63 1294.21,606.56 1296.73,608.45 1303.83,609.77 1307.02,611.33 1315.3,619.93 1320.16,621.51 1327.23,627.51 1334.68,629.53 1337.11,633.75 1343.77,638.73 1347.01,642.37" fill="none" stroke="#1e1e1e" stroke-width="1.07" stroke-linecap="round" stroke-linejoin="round"/>
<polyline points="926.08,58.44 929.31,58.63 929.59,62.88 931.73,64.98 934.55,66.34 940.62,67.31 938.77,70.55 938.4,76.18 936.6,76.8 936.59,77.77 940.49,82.14 941.63,79.78 942.45,81.2 942.74,85.33 944.18,86.21 946.91,92.77 950.77,95.62 953.97,96.2 953.41,100.13 956.8,105.86 956.45,109.13 957.81,111.52 957.04,112.3 959.2,114.13 962.51,113.09 962.69,114.2 961.3,116.32 964.39,129.07 964.38,130.13 962.23,132.87 957.78,133.27 957.07,137.02 955.1,138.05 950.07,145.4 950.86,149.88 945.8,154.37 948.48,155.45 946.4,162.93 941.14,163.86 941.66,165.95 940.52,169.21 941.08,171.36 939.08,173.56 939.72,175.67 935.7,178.72 935.69,179.88 938.37,182.02 938.36,182.97 936.37,184.11 936.36,185.08 937.47,186.55 942.26,188.3 940.2,191.46 942.35,193.4 942.65,197.68 945.47,199.97 945.46,201.12 943.07,201.22 942.34,202.32 942.48,206.11 945.41,207.47 948,215.43 946.73,215.94 947.25,220.33 941.56,225.27 941.29,227.55 939.27,230.89 938.64,235.61 935.49,236.07 934.49,238.64" fill="none" stroke="#1e1e1e" stroke-width="1.07" stroke-linecap="round" stroke-linejoin="round"/>
<polyline points="934.33,334.8 932.98,342.29 935.6,343.85 934.95,347.6 935.66,353.51 940.64,362.5 940.85,372.01 944.6,375.77 946.69,379.54 949.48,387.99 951.54,390.04 956.86,399.94 964.92,405.65 971.41,408.58 973.48,410.61 978.65,419.24 983.3,424.3 985.8,426.14 994.83,428.23 999.66,431.84 1002.45,432.39 1005.23,431.84 1014.03,426.6 1018.1,425.6 1022.22,425.97 1025.62,427.44" fill="none" stroke="#1e1e1e" stroke-width="1.07" stroke-linecap="round" stroke-linejoin="round"/>
<polyline points="1070.86,496.15 1064.42,494.91 1062.05,492.99 1059.42,488.52 1055.71,484.49 1052.9,483.09 1046.78,481.9 1042.74,477.99 1037.89,475.25 1032.28,467.96 1028,465.11" fill="none" stroke="#1e1e1e" stroke-width="1.07" stroke-linecap="round" stroke-linejoin="round"/>
<polyline points="1203.9,565.08 1206.5,566.34 1217.74,566.84 1221.32,567.69 1239.11,578.31" fill="none" stroke="#1e1e1e" stroke-width="1.07" stroke-linecap="round" stroke-linejoin="round"/>
<polyline points="1347.01,642.37 1362.27,647.71 1370.75,653.21 1373.87,653.42 1378.62,651.85 1390.8,653.7 1394.09,653.19 1400.47,657.11 1402.51,664.48 1403.73,666.05 1406.66,667.67 1408.02,678.5 1412.93,687.22 1414.03,691.71 1413.52,694.44 1410.97,699.64 1411.3,702.26 1413.16,705.52 1413.01,706.83 1411.4,707.96 1406.52,706.67 1402.7,707.38 1400.97,708.69 1400.34,711.08 1402.54,716.17 1409.52,724.04 1409.71,726.87 1407.03,733.84 1408.4,741.91 1407.51,751.4" fill="none" stroke="#1e1e1e" stroke-width="1.07" stroke-linecap="round" stroke-linejoin="round"/>
<polyline points="1249.81,914.28 1243.52,913.21 1239.04,914.28 1232.16,922.29 1226.45,925.16 1220.68,924.91 1215.34,922.07 1212.54,921.53 1209.36,922.37 1198.92,928.46 1192.88,927.22 1171.31,939.07 1165.54,940.02 1155.58,944.79" fill="none" stroke="#1e1e1e" stroke-width="1.07" stroke-linecap="round" stroke-linejoin="round"/>
<polyline points="645.48,1163.45 646.03,1159.71 655.14,1141.63 657.3,1132.58 660.97,1129.54 665.33,1128.57 672.08,1131.17 673.78,1131.13 675.74,1126.94 676.96,1125.85 679.65,1125.67 682.76,1127.59 684.77,1130.57 684.1,1133.64 687,1142.13 688.97,1146.08 691.41,1147.79 696.98,1150.68 706.6,1153.55 715.48,1158.63 729.88,1162.39 733.99,1161.98" fill="none" stroke="#1e1e1e" stroke-width="1.07" stroke-linecap="round" stroke-linejoin="round"/>
<polyline points="833.51,1166.77 834.34,1164.56 833.59,1162.45 835.11,1158.01 834.66,1151.96 832.92,1146.61 824.33,1138.86 809.3,1133.04 800.96,1131.97 797.55,1130.66 793.08,1133.9 787.23,1133.52 783.2,1136.13 781.25,1138.76 778.61,1138.86 776.09,1140.87 769.72,1142.82 762.49,1148 759.11,1148.28 757.61,1150.15 756.67,1154.2 754.12,1155.05 748.91,1150.69 746.45,1150.17 743.63,1148.04 741.95,1147.39 739.05,1148.03 738.95,1152.58 735.79,1154.06 735.52,1155.24 736.28,1157.81 740.08,1160.05 737.4,1162 733.99,1161.98 739.2,1166.91" fill="none" stroke="#1e1e1e" stroke-width="1.07" stroke-linecap="round" stroke-linejoin="round"/>
<text x="543.08" y="645.97" font-family="sans-serif" font-size="14" stroke="#ffffff" stroke-opacity="0.784" stroke-width="2.33" stroke-linejoin="round" paint-order="stroke" fill="#141414">Dniester</text>
<text x="1566.78" y="542.29" font-family="sans-serif" font-size="14" stroke="#ffffff" stroke-opacity="0.784" stroke-width="2.33" stroke-linejoin="round" paint-order="stroke" fill="#141414">Donets</text>
<text x="766.69" y="665.95" font-family="sans-serif" font-size="14" stroke="#ffffff" stroke-opacity="0.784" stroke-width="2.33" stroke-linejoin="round" paint-order="stroke" fill="#141414">Southern Bug</text>
<text x="568.86" y="750.83" font-family="sans-serif" font-size="14" stroke="#ffffff" stroke-opacity="0.784" stroke-width="2.33" stroke-linejoin="round" paint-order="stroke" fill="#141414">Prut</text>
<text x="922.25" y="151.47" font-family="sans-serif" font-size="14" stroke="#ffffff" stroke-opacity="0.784" stroke-width="2.33" stroke-linejoin="round" paint-order="stroke" fill="#141414">Dnipro</text>
<text x="1798.38" y="241.36" font-family="sans-serif" font-size="14" stroke="#ffffff" stroke-opacity="0.784" stroke-width="2.33" stroke-linejoin="round" paint-order="stroke" fill="#141414">Don</text>
<text x="1324.89" y="172.51" font-family="sans-serif" font-size="14" stroke="#ffffff" stroke-opacity="0.784" stroke-width="2.33" stroke-linejoin="round" paint-order="stroke" fill="#141414">Seym</text>
<text x="696.95" y="108.42" font-family="sans-serif" font-size="14" stroke="#ffffff" stroke-opacity="0.784" stroke-width="2.33" stroke-linejoin="round" paint-order="stroke" fill="#141414">Pripyat</text>
<text x="1300.04" y="813.89" font-family="sans-serif" font-size="14" stroke="#ffffff" stroke-opacity="0.784" stroke-width="2.33" stroke-linejoin="round" paint-order="stroke" fill="#141414">Dnipro</text>
<text x="1047.9" y="223.79" font-family="sans-serif" font-size="14" stroke="#ffffff" stroke-opacity="0.784" stroke-width="2.33" stroke-linejoin="round" paint-order="stroke" fill="#141414">Desna</text>
<text x="280.44" y="252.93" font-family="sans-serif" font-size="14" stroke="#ffffff" stroke-opacity="0.784" stroke-width="2.33" stroke-linejoin="round" paint-order="stroke" fill="#141414">Bug</text>
<text x="204.73" y="951.37" font-family="sans-serif" font-size="14" stroke="#ffffff" stroke-opacity="0.784" stroke-width="2.33" stroke-linejoin="round" paint-order="stroke" fill="#141414">Mureș</text>
<text x="134.91" y="681.67" font-family="sans-serif" font-size="14" stroke="#ffffff" stroke-opacity="0.784" stroke-width="2.33" stroke-linejoin="round" paint-order="stroke" fill="#141414">Tisza</text>
<text x="361.62" y="1032.49" font-family="sans-serif" font-size="14" stroke="#ffffff" stroke-opacity="0.784" stroke-width="2.33" stroke-linejoin="round" paint-order="stroke" fill="#141414">Olt</text>
<text x="307.58" y="95.29" font-family="sans-serif" font-size="14" stroke="#ffffff" stroke-opacity="0.784" stroke-width="2.33" stroke-linejoin="round" paint-order="stroke" fill="#141414">Mukhavyets</text>
<text x="721.9" y="1145.82" font-family="sans-serif" font-size="14" stroke="#ffffff" stroke-opacity="0.784" stroke-width="2.33" stroke-linejoin="round" paint-order="stroke" fill="#141414">Bratul Chillia</text>
<text x="651.8" y="1139.73" font-family="sans-serif" font-size="14" stroke="#ffffff" stroke-opacity="0.784" stroke-width="2.33" stroke-linejoin="round" paint-order="stroke" fill="#141414">Danube</text>
<text x="1931.16" y="1108.22" font-family="sans-serif" font-size="14" stroke="#ffffff" stroke-opacity="0.784" stroke-width="2.33" stroke-linejoin="round" paint-order="stroke" fill="#141414">Kuban</text>
<text x="874.49" y="1018.58" font-family="sans-serif" font-size="14" stroke="#ffffff" stroke-opacity="0.784" stroke-width="2.33" stroke-linejoin="round" paint-order="stroke" fill="#141414">Dniester</text>
<text x="577.64" y="518.14" font-family="sans-serif" font-size="14" stroke="#ffffff" stroke-opacity="0.784" stroke-width="2.33" stroke-linejoin="round" paint-order="stroke" fill="#141414">Southern Bug</text>
<text x="335.96" y="1143.8" font-family="sans-serif" font-size="14" stroke="#ffffff" stroke-opacity="0.784" stroke-width="2.33" stroke-linejoin="round" paint-order="stroke" fill="#141414">Ialomița</text>
<text x="899.9" y="254.91" font-family="sans-serif" font-size="14" stroke="#ffffff" stroke-opacity="0.784" stroke-width="2.33" stroke-linejoin="round" paint-order="stroke" fill="#141414">Pripyat</text>
</svg>
