<?xml version="1.0" encoding="UTF-8" standalone="no"?>
<svg xmlns="http://www.w3.org/2000/svg" width="1216" height="2000" viewBox="0 0 1216 2000">
<rect width="1216" height="2000" fill="#ffffff"/>
<polyline points="135.2,1265.33 131.15,1257.95" fill="none" stroke="#1e1e1e" stroke-width="1.09" stroke-linecap="round" stroke-linejoin="round"/>
<polyline points="128.88,1333.77 128.95,1320.41 123.65,1305.53 123.11,1301.84 126.44,1295.71" fill="none" stroke="#1e1e1e" stroke-width="1.09" stroke-linecap="round" stroke-linejoin="round"/>
<polyline points="98.79,1398.94 92.31,1404.37 87.01,1411.86 85.05,1422.23 83.21,1425.2 77.53,1427.18 75.32,1429.18 69.23,1440.7 68.64,1443.67" fill="none" stroke="#1e1e1e" stroke-width="1.09" stroke-linecap="round" stroke-linejoin="round"/>
<polyline points="126.44,1295.71 130.67,1287.44 132.9,1286.06 133,1283.82 134.19,1282.83 135.94,1282.9 135.39,1280.43 139.92,1278.17 140.1,1274.73 139.51,1274.01 138.72,1274.43 137.3,1272.79 135.2,1265.34" fill="none" stroke="#1e1e1e" stroke-width="1.09" stroke-linecap="round" stroke-linejoin="round"/>
<polyline points="131.15,1257.97 130.31,1251.54 127.57,1246.75 126.07,1249.42 123.54,1251.48 122.79,1250.54 120.11,1249.92 120.44,1245.78 119.02,1244.1 123.57,1237.7 123.92,1236.21 122.12,1234.16 121.76,1228.84 122.02,1226.85 124.37,1224.55" fill="none" stroke="#1e1e1e" stroke-width="1.09" stroke-linecap="round" stroke-linejoin="round"/>
<polyline points="98.79,1398.94 106.19,1386.21 110.94,1384.75 117.2,1380.87 121.95,1379.32 123.99,1377.62 124.99,1374.61 124.26,1372.43 118.81,1367.55 117.31,1363.83 121.53,1356.64 127.19,1352.01 130.59,1347.97 130.9,1344.01 128.88,1333.77" fill="none" stroke="#1e1e1e" stroke-width="1.09" stroke-linecap="round" stroke-linejoin="round"/>
<polyline points="45.01,1470.58 46.55,1469.75 47.67,1466.56 48.52,1466.5 49.78,1468.05 53.99,1467.73 55.85,1466.13 56.74,1463.99 60.98,1462.16 61.23,1456.12 64.83,1454.46 66.92,1451.67 68.6,1447.84 68.64,1443.67" fill="none" stroke="#1e1e1e" stroke-width="1.09" stroke-linecap="round" stroke-linejoin="round"/>
<polyline points="488.76,689.78 505.11,671.41 516.08,654.75 520.09,650.15 521.45,646.3" fill="none" stroke="#1e1e1e" stroke-width="1.09" stroke-linecap="round" stroke-linejoin="round"/>
<polyline points="532.99,628.6 532.57,633.88 530.99,634.48 529.05,637.85 526.72,638.91 521.46,646.29" fill="none" stroke="#1e1e1e" stroke-width="1.09" stroke-linecap="round" stroke-linejoin="round"/>
<polyline points="459.57,728.37 467.25,721.66 472.81,714.01" fill="none" stroke="#1e1e1e" stroke-width="1.09" stroke-linecap="round" stroke-linejoin="round"/>
<polyline points="472.81,714.01 478.91,703.27 481.16,701.89 485.02,693.26 488.82,689.74" fill="none" stroke="#1e1e1e" stroke-width="1.09" stroke-linecap="round" stroke-linejoin="round"/>
<polyline points="745.24,1421.96 742.13,1429.52 741.97,1432.88 743.53,1437.64 747.41,1444.29 752.15,1449.34 758.04,1453.48 763.81,1461.9 774.54,1469.61 776.76,1470.33 786.09,1470.21 793,1472.16 794.87,1471.02 808.1,1453.92 810.92,1451.66 813.99,1450.8 827.21,1452.15 830.16,1451.44 839.17,1445.66 842.69,1445.3 855.02,1432.72 859.68,1430.82 864.94,1431.53 866.36,1430.4 867.26,1426.97 871.98,1424.26 879.38,1415.03 887.84,1407.74 890.61,1402.61 891.71,1396.86 893.26,1375.19 895.45,1367.23 893.25,1360.2 891.42,1358.42 891.66,1353.36 888.63,1346.59 889.28,1342.77 893.65,1332.1 894.53,1327.96 895.25,1306.17 897.05,1301.27" fill="none" stroke="#1e1e1e" stroke-width="1.09" stroke-linecap="round" stroke-linejoin="round"/>
<polyline points="581.16,1514.39 586.13,1516.25 587.64,1519.91 592.42,1524.32 600.77,1528.12 605.68,1527.62 607.77,1525.79 610.43,1517.7 613.02,1515.26 616.02,1514.51 625.99,1514.87 629.21,1513.5 631.43,1511.55 639.15,1499.91 647.98,1478.97 651.38,1475.56 663.72,1476.4 669.92,1478.57 678.46,1476.05 678.84,1479.77 685.39,1480.2 692.61,1491.11 695.82,1494.16 698.64,1495.29 708.59,1492.59 712.06,1493.67 713.98,1495.9 715.3,1499.25 716.99,1507.03 717.61,1514.88 724.46,1531.22 735.29,1548.71 735.98,1555.7 739.03,1565.37 740.9,1575.71 740.35,1588.51 745.85,1603.82 749.86,1609.3 742.7,1620.29 738.3,1625.28 739.1,1629.1 738.11,1631.41 735.16,1635.5 731.33,1635.47 729.94,1636.31 728.4,1641.19 724.27,1647.68" fill="none" stroke="#1e1e1e" stroke-width="1.09" stroke-linecap="round" stroke-linejoin="round"/>
<polyline points="444.43,747.59 445.71,744.92 453.65,735.07 457.86,731.23 459.57,728.37" fill="none" stroke="#1e1e1e" stroke-width="1.09" stroke-linecap="round" stroke-linejoin="round"/>
<polyline points="761.67,1635.54 764.85,1636.81 767.59,1639.26 769.67,1643.43 771.04,1654.44 774.7,1662.43 784.76,1667.92 786.95,1668.36 796.78,1667.28 798.91,1666.27 801.84,1662.54 807.64,1663.72 816.27,1659.61 824.93,1659.37 829.76,1656.79 833.7,1658.32 835.13,1657.97 836.83,1655.39 838.14,1648.26 840.05,1645.51 842,1644.26 844.67,1644.15 846.68,1648.28 849.68,1650.6 851.73,1658.16 853.94,1660.4 853.18,1662.95 846.72,1666.04 848.56,1668.11 850.83,1668.72 854.84,1668.33 855.85,1665.97 856.88,1665.48 857.76,1669.14 864.49,1672.98 865.48,1679.64 862.81,1687.33 864.28,1691.33 868.26,1694.78 875.2,1696.74 881.43,1701.73 883.95,1701.36 890.22,1697.24 892.33,1694.53 893.75,1691.56 892.47,1687.9 891.95,1684.36 892.48,1683.82 896.52,1685.2 910.5,1680.94 912.99,1681.59 914.31,1683.29 912.87,1690.89 915.46,1693.13 917.38,1693.49 923.81,1692.79 926.67,1696 927.47,1698.57 927.27,1701.31 932.27,1703.24 939.49,1710.83 944.47,1710.35 949.99,1706.22 952.85,1708.65 955.66,1708.1 957.25,1704.78 955.75,1701.8 957.03,1700.03 955.22,1696.7 956.6,1695.22 962.19,1694.41 964.67,1692.23 967.75,1695.07 969.07,1695.59 971.17,1695.01 975.89,1691.73 979.4,1687.65 981.31,1687.09 986.68,1689.36 990.16,1689.8 993.11,1688.17 996.28,1690.02 1007.28,1686.95 1009.55,1687.86 1013.65,1691.75 1021.73,1694.28 1026.95,1692.74 1028.83,1695.9 1030.94,1696.21 1034.01,1694.84" fill="none" stroke="#1e1e1e" stroke-width="1.09" stroke-linecap="round" stroke-linejoin="round"/>
<text x="854.86" y="1705.13" font-family="sans-serif" font-size="14" stroke="#ffffff" stroke-opacity="0.784" stroke-width="2.33" stroke-linejoin="round" paint-order="stroke" fill="#141414">Thames</text>
<text x="665.38" y="1501.18" font-family="sans-serif" font-size="14" stroke="#ffffff" stroke-opacity="0.784" stroke-width="2.33" stroke-linejoin="round" paint-order="stroke" fill="#141414">Severn</text>
<text x="820.32" y="1450.89" font-family="sans-serif" font-size="14" stroke="#ffffff" stroke-opacity="0.784" stroke-width="2.33" stroke-linejoin="round" paint-order="stroke" fill="#141414">Trent</text>
<text x="85.81" y="1378.58" font-family="sans-serif" font-size="14" stroke="#ffffff" stroke-opacity="0.784" stroke-width="2.33" stroke-linejoin="round" paint-order="stroke" fill="#141414">Shannon</text>
<text x="47.14" y="1429.9" font-family="sans-serif" font-size="14" stroke="#ffffff" stroke-opacity="0.784" stroke-width="2.33" stroke-linejoin="round" paint-order="stroke" fill="#141414">Shannon</text>
<text x="484.98" y="676.99" font-family="sans-serif" font-size="14" stroke="#ffffff" stroke-opacity="0.784" stroke-width="2.33" stroke-linejoin="round" paint-order="stroke" fill="#141414">Ness</text>
<text x="461.97" y="709.01" font-family="sans-serif" font-size="14" stroke="#ffffff" stroke-opacity="0.784" stroke-width="2.33" stroke-linejoin="round" paint-order="stroke" fill="#141414">Oich</text>
<text x="374.29" y="744.38" font-family="sans-serif" font-size="14" stroke="#ffffff" stroke-opacity="0.784" stroke-width="2.33" stroke-linejoin="round" paint-order="stroke" fill="#141414">Caledonian Canal</text>
<text x="507.29" y="645.19" font-family="sans-serif" font-size="14" stroke="#ffffff" stroke-opacity="0.784" stroke-width="2.33" stroke-linejoin="round" paint-order="stroke" fill="#141414">Ness</text>
</svg>
