<?xml version="1.0" encoding="UTF-8" standalone="no"?>
<svg xmlns="http://www.w3.org/2000/svg" width="1850" height="2000" viewBox="0 0 1850 2000">
<rect width="1850" height="2000" fill="#ffffff"/>
<path d="M252.75,1764.06L249.33,1765.41L249.65,1764.07L252.75,1764.06Z" fill-rule="evenodd" fill="#4682b4" fill-opacity="0.471"/>
<polyline points="252.75,1764.06 249.33,1765.41 249.65,1764.07 252.75,1764.06" fill="none" stroke="#1e1e1e" stroke-width="1.56" stroke-linecap="round" stroke-linejoin="round"/>
<path d="M748.86,1884.28L743.87,1886.89L741.37,1883.3L742.78,1881.22L744.35,1881.78L743.1,1882.95L744.31,1881.35L746.47,1882.37L745.46,1883.58L746.52,1882.41L748.86,1884.28Z" fill-rule="evenodd" fill="#4682b4" fill-opacity="0.471"/>
<polyline points="748.86,1884.28 743.87,1886.89 741.37,1883.3 742.78,1881.22 744.35,1881.78 743.1,1882.95 744.31,1881.35 746.47,1882.37 745.46,1883.58 746.52,1882.41 748.86,1884.28" fill="none" stroke="#1e1e1e" stroke-width="1.56" stroke-linecap="round" stroke-linejoin="round"/>
<path d="M898.82,1943.56L894.03,1947.09L898.14,1942.87L898.82,1943.56Z" fill-rule="evenodd" fill="#4682b4" fill-opacity="0.471"/>
<polyline points="898.82,1943.56 894.03,1947.09 898.14,1942.87 898.82,1943.56" fill="none" stroke="#1e1e1e" stroke-width="1.56" stroke-linecap="round" stroke-linejoin="round"/>
<path d="M1236.88,1982.03L1235.7,1980.16L1237.12,1978.82L1238.13,1981.4L1236.88,1982.03Z" fill-rule="evenodd" fill="#4682b4" fill-opacity="0.471"/>
<polyline points="1236.88,1982.03 1235.7,1980.16 1237.12,1978.82 1238.13,1981.4 1236.88,1982.03" fill="none" stroke="#1e1e1e" stroke-width="1.56" stroke-linecap="round" stroke-linejoin="round"/>
<path d="M1806.94,1424.62L1746.1,1474.06L1726.61,1493.55L1711.18,1512.18L1699.12,1530.67L1696.05,1538.37L1694.76,1545.1L1696.06,1550.64L1694.74,1554.48L1696.43,1556.32L1688.39,1566.04L1687.36,1571.04L1688.54,1572.04L1686.39,1576.6L1688.39,1578.98L1683.63,1587.05L1683.95,1589.88L1685.88,1590.36L1684.63,1594.45L1686.5,1595.49L1680.91,1600.67L1680.32,1605.01L1677.66,1605.67L1668.76,1612.87L1633.15,1646.96L1616.17,1668.09L1603.89,1686.42L1599.79,1697.81L1599.38,1708.36L1601.27,1713.55L1603.1,1714.35L1606.02,1713.24L1605.99,1715.91L1608.62,1719.12L1603.76,1724.82L1601.88,1729.63L1603.37,1737.95L1600.4,1738.57L1600.29,1737.15L1598.41,1736.68L1594.63,1737.3L1574.64,1747.25L1530.2,1774.68L1501.44,1795.83L1491,1805.48L1488.84,1811.04L1480.26,1820.84L1477.71,1830.53L1479.4,1833.57L1482.4,1834.44L1480.91,1836.52L1480.36,1835.22L1478.59,1835.93L1478.19,1840.54L1466.79,1837.1L1458.13,1838.18L1432.91,1847.49L1383.75,1869.17L1326.53,1899.9L1320.68,1905.17L1319.03,1910.08L1314.84,1906.2L1303.1,1908.65L1283.76,1918.06L1262.28,1932.05L1253.57,1933.42L1247.86,1937.39L1244.58,1936.63L1236.94,1940.52L1224.59,1948.96L1214.66,1959.08L1213.9,1955.86L1215.15,1953.39L1214.93,1955.02L1216.6,1954.83L1218.29,1949.57L1210.73,1939.95L1205.54,1936.04L1198.66,1933.61L1195.25,1933.38L1194.34,1934.48L1186.66,1933.57L1183.78,1936.24L1184.16,1930.61L1185.99,1926.58L1178.87,1921.57L1170.87,1920.35L1145.94,1921.95L1131.48,1925.4L1121.79,1930.68L1119.24,1929.18L1113.89,1930.69L1113.94,1926.54L1106.98,1924.42L1108.08,1921.8L1106.77,1919L1107.71,1919.72L1109.16,1917.37L1108.38,1915.2L1103.49,1911.46L1100.42,1911.11L1100.55,1906.34L1097.67,1904L1094.85,1898.07L1085.53,1891.87L1073.47,1889.73L1072.05,1886.25L1063.89,1884.86L1038.16,1888.23L1034.71,1886.38L1026.64,1887.75L1015.4,1882.52L1010.31,1881.78L1002.74,1877.41L994.78,1877.9L986.57,1880.4L982.44,1875.47L975.38,1873.28L964.85,1875.88L953.3,1881.04L950,1881.18L949.38,1879.04L946.79,1877.5L940.53,1877.35L918.81,1886.8L911.3,1888.42L851.01,1928.32L847.34,1927.59L845.23,1928.66L844.24,1926.83L842.54,1926.71L839.28,1928.46L837.88,1927.4L833.15,1927.97L831.43,1930.76L829.06,1930.7L828.88,1932.41L830.39,1932.12L829.59,1933L824.43,1933.72L823.65,1935.8L824.85,1936.31L820.57,1939.59L819.72,1943.72L818.54,1941.2L819.75,1941.54L819.63,1940.57L815.87,1938.27L816.05,1934.47L811.58,1934.98L806.3,1932.84L799.22,1933.97L800.41,1933.47L799.2,1930.99L802.42,1930.44L801.91,1929.16L804.61,1929.16L804.27,1928.21L807.27,1928.3L807.21,1925.57L805.03,1924.09L806.54,1923.72L806.69,1921.77L801.82,1918.31L800.78,1918.78L799.64,1921.57L798.29,1921.1L799.88,1921.39L800.4,1919.35L798.36,1917.75L796.92,1920.55L791.38,1919.6L792.08,1927.07L787.67,1928.46L788.29,1931.1L783.6,1927.92L781.92,1929.54L780.05,1926.53L779.07,1928.72L777.54,1928.56L777.3,1926.44L775.08,1925.97L770.89,1927.57L771,1930.15L768.86,1930.66L768.63,1927.74L763.53,1924.98L763.57,1921.19L760.84,1917.09L757.1,1915.38L756.84,1917.14L755.74,1915.26L751.86,1914.95L748.74,1913.06L744.24,1906.99L733.04,1904.07L730.93,1900.93L738.15,1895.7L739.23,1892.2L744.73,1888.16L753.17,1888.47L755.83,1885.38L755.31,1881.67L748.23,1881.99L746.55,1879.51L737.26,1877.4L722.66,1869.74L707.14,1869.32L688.77,1873.11L667.51,1860.55L651.83,1854.66L602.81,1845.43L600.61,1842.15L595.16,1839.1L578.41,1832.63L573.3,1821.74L558.48,1809.66L548.87,1798.86L542.31,1793.82L543.33,1792.88L545.29,1792.93L543.09,1792.74L542.16,1793.55L524.24,1782.26L513.67,1763.1L506.95,1757.04L507.65,1755.95L506.79,1756.61L498.96,1751.43L471.79,1746.87L454.04,1746.25L436.64,1749.35L430.53,1748.93L427.33,1747.74L427.61,1745.4L426.07,1744.47L414.85,1743.44L397.67,1749.86L396.42,1749.42L397.39,1748.7L396.05,1745.73L389.34,1743.89L375.08,1749.53L366.39,1755.46L360.45,1751.65L359.89,1749.09L356.12,1745.69L348.41,1743.71L328.14,1749.86L323.04,1753.6L318.95,1752.94L306.11,1759.24L304.69,1759.44L303.43,1757.02L298.78,1757.56L294.12,1760.21L293.26,1762.08L288.84,1763.42L287.02,1763.67L286.17,1761.72L283.6,1761.37L272.42,1764.88L267.27,1764.1L266.04,1765.55L262.33,1764.45L262.35,1762.23L264.32,1762.53L265.55,1760.83L264.87,1757.41L259.62,1752.71L251.76,1750L248.53,1745.87L248.74,1733.98L246.99,1725.56L239.86,1714.34L234.83,1709.89L227.25,1697.22L217.76,1688.05L216.89,1683.89L214.44,1683.74L213.82,1680.98L211.18,1678.76L201.74,1675.15L201.36,1672.84L198.88,1670.87L192.14,1670.27L190.65,1667.18L192,1665.49L191.54,1662.68L187.41,1659.46L189.09,1658.38L187.82,1654.53L180.56,1649.15L175.52,1647.22L154.84,1645.1L144.45,1678.05L142.92,1687.28L139.35,1692.84L127.83,1696.16L93.65,1725.15L63.84,1742.39L53.15,1766.12L56.72,1772.63L56.86,1777.99L58.66,1781.68L57.78,1781.83L60.8,1784.88L59.52,1785.64L60.63,1785.63L61.14,1788.74L62.87,1790.22L66.41,1791.38L67.04,1793.42L65.84,1794.93L69.16,1793.78L75.22,1798.64L74.93,1799.83L80.53,1801.6L82.28,1804.21L84.76,1804.91L83.83,1806.54L84.94,1805.6L87.82,1808.7L86.93,1806.55L89.96,1806.09L90.98,1807.79L89.23,1808.09L95.3,1810.47L94.11,1811.29L96.52,1811.01L95.05,1812L97.12,1812.17L95.89,1813.06L97.29,1813.76L94.55,1814.75L95.92,1816.72L98.62,1816.56L101.54,1819.26L104.02,1824.49L102.26,1825.44L104.5,1825.8L104.99,1827.25L103,1827.42L105.63,1828.86L105.42,1832.03L107.6,1830.83L106.58,1832.33L107.33,1836.73L112.11,1841.38L137.88,1857.72L139.6,1858.63L141.54,1857.38L141.1,1860.24L147.09,1864.25L152.15,1871.34L157.97,1874.78L164.63,1876.45L177.33,1876.65L199.17,1886.89L208.34,1887.24L215.45,1889.76L225.98,1901.48L232.41,1906.74L234.79,1907.08L234.48,1908.67L235.1,1907.39L241.5,1908.14L250.75,1906.27L257.3,1907.18L258.64,1905.19L262,1910.74L277.6,1921.24L287.45,1931.53L299.38,1939.98L309.1,1944.8L324.28,1947.95L351.63,1970.71L360.95,1975.17L372.46,1978.56L379.73,1982.61L380.23,1984.72L381.92,1984.89L57.21,1991.47L8,19.97L1842,19.97L1806.94,1424.62Z" fill-rule="evenodd" fill="#4682b4" fill-opacity="0.471"/>
<polyline points="1806.94,1424.62 1746.1,1474.06 1726.61,1493.55 1711.18,1512.18 1699.12,1530.67 1696.05,1538.37 1694.76,1545.1 1696.06,1550.64 1694.74,1554.48 1696.43,1556.32 1688.39,1566.04 1687.36,1571.04 1688.54,1572.04 1686.39,1576.6 1688.39,1578.98 1683.63,1587.05 1683.95,1589.88 1685.88,1590.36 1684.63,1594.45 1686.5,1595.49 1680.91,1600.67 1680.32,1605.01 1677.66,1605.67 1668.76,1612.87 1633.15,1646.96 1616.17,1668.09 1603.89,1686.42 1599.79,1697.81 1599.38,1708.36 1601.27,1713.55 1603.1,1714.35 1606.02,1713.24 1605.99,1715.91 1608.62,1719.12 1603.76,1724.82 1601.88,1729.63 1603.37,1737.95 1600.4,1738.57 1600.29,1737.15 1598.41,1736.68 1594.63,1737.3 1574.64,1747.25 1530.2,1774.68 1501.44,1795.83 1491,1805.48 1488.84,1811.04 1480.26,1820.84 1477.71,1830.53 1479.4,1833.57 1482.4,1834.44 1480.91,1836.52 1480.36,1835.22 1478.59,1835.93 1478.19,1840.54 1466.79,1837.1 1458.13,1838.18 1432.91,1847.49 1383.75,1869.17 1326.53,1899.9 1320.68,1905.17 1319.03,1910.08 1314.84,1906.2 1303.1,1908.65 1283.76,1918.06 1262.28,1932.05 1253.57,1933.42 1247.86,1937.39 1244.58,1936.63 1236.94,1940.52 1224.59,1948.96 1214.66,1959.08 1213.9,1955.86 1215.15,1953.39 1214.93,1955.02 1216.6,1954.83 1218.29,1949.57 1210.73,1939.95 1205.54,1936.04 1198.66,1933.61 1195.25,1933.38 1194.34,1934.48 1186.66,1933.57 1183.78,1936.24 1184.16,1930.61 1185.99,1926.58 1178.87,1921.57 1170.87,1920.35 1145.94,1921.95 1131.48,1925.4 1121.79,1930.68 1119.24,1929.18 1113.89,1930.69 1113.94,1926.54 1106.98,1924.42 1108.08,1921.8 1106.77,1919 1107.71,1919.72 1109.16,1917.37 1108.38,1915.2 1103.49,1911.46 1100.42,1911.11 1100.55,1906.34 1097.67,1904 1094.85,1898.07 1085.53,1891.87 1073.47,1889.73 1072.05,1886.25 1063.89,1884.86 1038.16,1888.23 1034.71,1886.38 1026.64,1887.75 1015.4,1882.52 1010.31,1881.78 1002.74,1877.41 994.78,1877.9 986.57,1880.4 982.44,1875.47 975.38,1873.28 964.85,1875.88 953.3,1881.04 950,1881.18 949.38,1879.04 946.79,1877.5 940.53,1877.35 918.81,1886.8 911.3,1888.42 851.01,1928.32 847.34,1927.59 845.23,1928.66 844.24,1926.83 842.54,1926.71 839.28,1928.46 837.88,1927.4 833.15,1927.97 831.43,1930.76 829.06,1930.7 828.88,1932.41 830.39,1932.12 829.59,1933 824.43,1933.72 823.65,1935.8 824.85,1936.31 820.57,1939.59 819.72,1943.72 818.54,1941.2 819.75,1941.54 819.63,1940.57 815.87,1938.27 816.05,1934.47 811.58,1934.98 806.3,1932.84 799.22,1933.97 800.41,1933.47 799.2,1930.99 802.42,1930.44 801.91,1929.16 804.61,1929.16 804.27,1928.21 807.27,1928.3 807.21,1925.57 805.03,1924.09 806.54,1923.72 806.69,1921.77 801.82,1918.31 800.78,1918.78 799.64,1921.57 798.29,1921.1 799.88,1921.39 800.4,1919.35 798.36,1917.75 796.92,1920.55 791.38,1919.6 792.08,1927.07 787.67,1928.46 788.29,1931.1 783.6,1927.92 781.92,1929.54 780.05,1926.53 779.07,1928.72 777.54,1928.56 777.3,1926.44 775.08,1925.97 770.89,1927.57 771,1930.15 768.86,1930.66 768.63,1927.74 763.53,1924.98 763.57,1921.19 760.84,1917.09 757.1,1915.38 756.84,1917.14 755.74,1915.26 751.86,1914.95 748.74,1913.06 744.24,1906.99 733.04,1904.07 730.93,1900.93 738.15,1895.7 739.23,1892.2 744.73,1888.16 753.17,1888.47 755.83,1885.38 755.31,1881.67 748.23,1881.99 746.55,1879.51 737.26,1877.4 722.66,1869.74 707.14,1869.32 688.77,1873.11 667.51,1860.55 651.83,1854.66 602.81,1845.43 600.61,1842.15 595.16,1839.1 578.41,1832.63 573.3,1821.74 558.48,1809.66 548.87,1798.86 542.31,1793.82 543.33,1792.88 545.29,1792.93 543.09,1792.74 542.16,1793.55 524.24,1782.26 513.67,1763.1 506.95,1757.04 507.65,1755.95 506.79,1756.61 498.96,1751.43 471.79,1746.87 454.04,1746.25 436.64,1749.35 430.53,1748.93 427.33,1747.74 427.61,1745.4 426.07,1744.47 414.85,1743.44 397.67,1749.86 396.42,1749.42 397.39,1748.7 396.05,1745.73 389.34,1743.89 375.08,1749.53 366.39,1755.46 360.45,1751.65 359.89,1749.09 356.12,1745.69 348.41,1743.71 328.14,1749.86 323.04,1753.6 318.95,1752.94 306.11,1759.24 304.69,1759.44 303.43,1757.02 298.78,1757.56 294.12,1760.21 293.26,1762.08 288.84,1763.42 287.02,1763.67 286.17,1761.72 283.6,1761.37 272.42,1764.88 267.27,1764.1 266.04,1765.55 262.33,1764.45 262.35,1762.23 264.32,1762.53 265.55,1760.83 264.87,1757.41 259.62,1752.71 251.76,1750 248.53,1745.87 248.74,1733.98 246.99,1725.56 239.86,1714.34 234.83,1709.89 227.25,1697.22 217.76,1688.05 216.89,1683.89 214.44,1683.74 213.82,1680.98 211.18,1678.76 201.74,1675.15 201.36,1672.84 198.88,1670.87 192.14,1670.27 190.65,1667.18 192,1665.49 191.54,1662.68 187.41,1659.46 189.09,1658.38 187.82,1654.53 180.56,1649.15 175.52,1647.22 154.84,1645.1 144.45,1678.05 142.92,1687.28 139.35,1692.84 127.83,1696.16 93.65,1725.15 63.84,1742.39 53.15,1766.12 56.72,1772.63 56.86,1777.99 58.66,1781.68 57.78,1781.83 60.8,1784.88 59.52,1785.64 60.63,1785.63 61.14,1788.74 62.87,1790.22 66.41,1791.38 67.04,1793.42 65.84,1794.93 69.16,1793.78 75.22,1798.64 74.93,1799.83 80.53,1801.6 82.28,1804.21 84.76,1804.91 83.83,1806.54 84.94,1805.6 87.82,1808.7 86.93,1806.55 89.96,1806.09 90.98,1807.79 89.23,1808.09 95.3,1810.47 94.11,1811.29 96.52,1811.01 95.05,1812 97.12,1812.17 95.89,1813.06 97.29,1813.76 94.55,1814.75 95.92,1816.72 98.62,1816.56 101.54,1819.26 104.02,1824.49 102.26,1825.44 104.5,1825.8 104.99,1827.25 103,1827.42 105.63,1828.86 105.42,1832.03 107.6,1830.83 106.58,1832.33 107.33,1836.73 112.11,1841.38 137.88,1857.72 139.6,1858.63 141.54,1857.38 141.1,1860.24 147.09,1864.25 152.15,1871.34 157.97,1874.78 164.63,1876.45 177.33,1876.65 199.17,1886.89 208.34,1887.24 215.45,1889.76 225.98,1901.48 232.41,1906.74 234.79,1907.08 234.48,1908.67 235.1,1907.39 241.5,1908.14 250.75,1906.27 257.3,1907.18 258.64,1905.19 262,1910.74 277.6,1921.24 287.45,1931.53 299.38,1939.98 309.1,1944.8 324.28,1947.95 351.63,1970.71 360.95,1975.17 372.46,1978.56 379.73,1982.61 380.23,1984.72 381.92,1984.89 57.21,1991.47 8,19.97 1842,19.97 1806.94,1424.62" fill="none" stroke="#1e1e1e" stroke-width="1.56" stroke-linecap="round" stroke-linejoin="round"/>
<path d="M1207.81,1954.05L1206.52,1949.1L1208.23,1948.53L1209.48,1951.89L1207.81,1954.05Z" fill-rule="evenodd" fill="#4682b4" fill-opacity="0.471"/>
<polyline points="1207.81,1954.05 1206.52,1949.1 1208.23,1948.53 1209.48,1951.89 1207.81,1954.05" fill="none" stroke="#1e1e1e" stroke-width="1.56" stroke-linecap="round" stroke-linejoin="round"/>
<path d="M90.26,1806.9L94.23,1805.49L93.66,1806.73L96.28,1806.83L91.62,1807.4L93.35,1808.59L90.26,1806.9Z" fill-rule="evenodd" fill="#4682b4" fill-opacity="0.471"/>
<polyline points="90.26,1806.9 94.23,1805.49 93.66,1806.73 96.28,1806.83 91.62,1807.4 93.35,1808.59 90.26,1806.9" fill="none" stroke="#1e1e1e" stroke-width="1.56" stroke-linecap="round" stroke-linejoin="round"/>
</svg>
