<?xml version="1.0" encoding="UTF-8" standalone="no"?>
<svg xmlns="http://www.w3.org/2000/svg" width="1850" height="2000" viewBox="0 0 1850 2000">
<rect width="1850" height="2000" fill="#ffffff"/>
<path d="M228.13,1698.69L234.83,1709.89L239.86,1714.34L246.99,1725.56L248.74,1733.98L248.53,1745.87L251.76,1750L259.62,1752.71L264.87,1757.41L265.55,1760.83L264.32,1762.53L262.35,1762.23L262.33,1764.45L266.04,1765.55L267.27,1764.1L272.42,1764.88L283.6,1761.37L286.17,1761.72L287.02,1763.67L288.84,1763.42L293.26,1762.08L294.12,1760.21L298.78,1757.56L303.43,1757.02L304.69,1759.44L306.11,1759.24L318.95,1752.94L323.04,1753.6L328.14,1749.86L348.41,1743.71L356.12,1745.69L359.89,1749.09L360.45,1751.65L366.39,1755.46L375.08,1749.53L389.34,1743.89L396.05,1745.73L397.39,1748.7L396.42,1749.42L397.67,1749.86L414.85,1743.44L426.07,1744.47L427.61,1745.4L427.33,1747.74L430.53,1748.93L436.64,1749.35L454.04,1746.25L471.79,1746.87L498.96,1751.43L506.79,1756.61L507.65,1755.95L506.95,1757.04L513.67,1763.1L524.24,1782.26L542.16,1793.55L543.09,1792.74L545.29,1792.93L543.33,1792.88L542.31,1793.82L548.87,1798.86L558.48,1809.66L573.3,1821.74L578.41,1832.63L595.16,1839.1L600.61,1842.15L602.81,1845.43L651.83,1854.66L667.51,1860.55L688.77,1873.11L707.14,1869.32L722.66,1869.74L737.26,1877.4L746.55,1879.51L748.23,1881.99L755.31,1881.67L755.83,1885.38L753.17,1888.47L744.73,1888.16L739.23,1892.2L738.15,1895.7L730.93,1900.93L733.04,1904.07L744.24,1906.99L748.74,1913.06L751.86,1914.95L755.74,1915.26L756.84,1917.14L757.1,1915.38L760.84,1917.09L763.57,1921.19L763.53,1924.98L768.63,1927.74L768.86,1930.66L771,1930.15L770.89,1927.57L775.08,1925.97L777.3,1926.44L777.54,1928.56L779.07,1928.72L780.05,1926.53L781.92,1929.54L783.6,1927.92L788.29,1931.1L787.67,1928.46L790.5,1927.57L790.71,1980.9L380.23,1984.72L379.73,1982.61L372.46,1978.56L360.95,1975.17L351.63,1970.71L324.28,1947.95L309.1,1944.8L299.38,1939.98L287.45,1931.53L277.6,1921.24L262,1910.74L258.64,1905.19L257.3,1907.18L250.75,1906.27L241.5,1908.14L235.1,1907.39L234.48,1908.67L234.79,1907.08L232.41,1906.74L225.98,1901.48L215.45,1889.76L208.34,1887.24L199.17,1886.89L177.33,1876.65L164.63,1876.45L157.97,1874.78L152.15,1871.34L147.09,1864.25L141.1,1860.24L141.54,1857.38L139.6,1858.63L137.88,1857.72L112.11,1841.38L107.33,1836.73L106.58,1832.33L107.6,1830.83L105.42,1832.03L105.63,1828.86L103,1827.42L104.99,1827.25L104.5,1825.8L102.26,1825.44L104.02,1824.49L101.54,1819.26L98.62,1816.56L95.92,1816.72L94.55,1814.75L97.29,1813.76L95.89,1813.06L97.12,1812.17L95.05,1812L96.52,1811.01L94.11,1811.29L95.3,1810.47L89.23,1808.09L90.98,1807.79L90.54,1807.05L93.35,1808.59L91.62,1807.4L96.28,1806.83L93.66,1806.73L94.23,1805.49L90.41,1806.84L89.96,1806.09L86.93,1806.55L87.82,1808.7L84.94,1805.6L83.83,1806.54L84.76,1804.91L82.28,1804.21L80.53,1801.6L74.93,1799.83L75.22,1798.64L69.16,1793.78L65.84,1794.93L67.04,1793.42L66.41,1791.38L62.87,1790.22L61.14,1788.74L60.63,1785.63L59.52,1785.64L60.8,1784.88L57.78,1781.83L58.66,1781.68L56.86,1777.99L56.72,1772.63L53.15,1766.12L63.84,1742.39L93.65,1725.15L122.17,1700.96L228.13,1698.69ZM742.78,1881.22L741.37,1883.3L743.87,1886.89L748.86,1884.28L746.52,1882.41L745.46,1883.58L746.47,1882.37L744.6,1881.41L743.1,1882.95L744.35,1881.78L742.78,1881.22ZM249.33,1765.41L252.75,1764.06L249.65,1764.07L249.33,1765.41Z" fill-rule="evenodd" fill="#4682b4" fill-opacity="0.471"/>
<polyline points="228.13,1698.69 234.83,1709.89 239.86,1714.34 246.99,1725.56 248.74,1733.98 248.53,1745.87 251.76,1750 259.62,1752.71 264.87,1757.41 265.55,1760.83 264.32,1762.53 262.35,1762.23 262.33,1764.45 266.04,1765.55 267.27,1764.1 272.42,1764.88 283.6,1761.37 286.17,1761.72 287.02,1763.67 288.84,1763.42 293.26,1762.08 294.12,1760.21 298.78,1757.56 303.43,1757.02 304.69,1759.44 306.11,1759.24 318.95,1752.94 323.04,1753.6 328.14,1749.86 348.41,1743.71 356.12,1745.69 359.89,1749.09 360.45,1751.65 366.39,1755.46 375.08,1749.53 389.34,1743.89 396.05,1745.73 397.39,1748.7 396.42,1749.42 397.67,1749.86 414.85,1743.44 426.07,1744.47 427.61,1745.4 427.33,1747.74 430.53,1748.93 436.64,1749.35 454.04,1746.25 471.79,1746.87 498.96,1751.43 506.79,1756.61 507.65,1755.95 506.95,1757.04 513.67,1763.1 524.24,1782.26 542.16,1793.55 543.09,1792.74 545.29,1792.93 543.33,1792.88 542.31,1793.82 548.87,1798.86 558.48,1809.66 573.3,1821.74 578.41,1832.63 595.16,1839.1 600.61,1842.15 602.81,1845.43 651.83,1854.66 667.51,1860.55 688.77,1873.11 707.14,1869.32 722.66,1869.74 737.26,1877.4 746.55,1879.51 748.23,1881.99 755.31,1881.67 755.83,1885.38 753.17,1888.47 744.73,1888.16 739.23,1892.2 738.15,1895.7 730.93,1900.93 733.04,1904.07 744.24,1906.99 748.74,1913.06 751.86,1914.95 755.74,1915.26 756.84,1917.14 757.1,1915.38 760.84,1917.09 763.57,1921.19 763.53,1924.98 768.63,1927.74 768.86,1930.66 771,1930.15 770.89,1927.57 775.08,1925.97 777.3,1926.44 777.54,1928.56 779.07,1928.72 780.05,1926.53 781.92,1929.54 783.6,1927.92 788.29,1931.1 787.67,1928.46 790.5,1927.57 790.71,1980.9 380.23,1984.72 379.73,1982.61 372.46,1978.56 360.95,1975.17 351.63,1970.71 324.28,1947.95 309.1,1944.8 299.38,1939.98 287.45,1931.53 277.6,1921.24 262,1910.74 258.64,1905.19 257.3,1907.18 250.75,1906.27 241.5,1908.14 235.1,1907.39 234.48,1908.67 234.79,1907.08 232.41,1906.74 225.98,1901.48 215.45,1889.76 208.34,1887.24 199.17,1886.89 177.33,1876.65 164.63,1876.45 157.97,1874.78 152.15,1871.34 147.09,1864.25 141.1,1860.24 141.54,1857.38 139.6,1858.63 137.88,1857.72 112.11,1841.38 107.33,1836.73 106.58,1832.33 107.6,1830.83 105.42,1832.03 105.63,1828.86 103,1827.42 104.99,1827.25 104.5,1825.8 102.26,1825.44 104.02,1824.49 101.54,1819.26 98.62,1816.56 95.92,1816.72 94.55,1814.75 97.29,1813.76 95.89,1813.06 97.12,1812.17 95.05,1812 96.52,1811.01 94.11,1811.29 95.3,1810.47 89.23,1808.09 90.98,1807.79 90.54,1807.05 93.35,1808.59 91.62,1807.4 96.28,1806.83 93.66,1806.73 94.23,1805.49 90.41,1806.84 89.96,1806.09 86.93,1806.55 87.82,1808.7 84.94,1805.6 83.83,1806.54 84.76,1804.91 82.28,1804.21 80.53,1801.6 74.93,1799.83 75.22,1798.64 69.16,1793.78 65.84,1794.93 67.04,1793.42 66.41,1791.38 62.87,1790.22 61.14,1788.74 60.63,1785.63 59.52,1785.64 60.8,1784.88 57.78,1781.83 58.66,1781.68 56.86,1777.99 56.72,1772.63 53.15,1766.12 63.84,1742.39 93.65,1725.15 122.17,1700.96 228.13,1698.69" fill="none" stroke="#1e1e1e" stroke-width="1.56" stroke-linecap="round" stroke-linejoin="round"/>
<polyline points="742.78,1881.22 741.37,1883.3 743.87,1886.89 748.86,1884.28 746.52,1882.41 745.46,1883.58 746.47,1882.37 744.6,1881.41 743.1,1882.95 744.35,1881.78 742.78,1881.22" fill="none" stroke="#1e1e1e" stroke-width="1.56" stroke-linecap="round" stroke-linejoin="round"/>
<polyline points="249.33,1765.41 252.75,1764.06 249.65,1764.07 249.33,1765.41" fill="none" stroke="#1e1e1e" stroke-width="1.56" stroke-linecap="round" stroke-linejoin="round"/>
<path d="M121.81,1701.26L127.83,1696.16L139.35,1692.84L142.92,1687.28L144.45,1678.05L154.84,1645.1L175.52,1647.22L180.56,1649.15L187.82,1654.53L189.09,1658.38L187.41,1659.46L191.54,1662.68L192,1665.49L190.65,1667.18L192.14,1670.27L198.88,1670.87L201.36,1672.84L201.74,1675.15L211.18,1678.76L213.82,1680.98L214.44,1683.74L216.89,1683.89L217.76,1688.05L228.31,1698.98L121.81,1701.26Z" fill-rule="evenodd" fill="#4682b4" fill-opacity="0.471"/>
<polyline points="121.81,1701.26 127.83,1696.16 139.35,1692.84 142.92,1687.28 144.45,1678.05 154.84,1645.1 175.52,1647.22 180.56,1649.15 187.82,1654.53 189.09,1658.38 187.41,1659.46 191.54,1662.68 192,1665.49 190.65,1667.18 192.14,1670.27 198.88,1670.87 201.36,1672.84 201.74,1675.15 211.18,1678.76 213.82,1680.98 214.44,1683.74 216.89,1683.89 217.76,1688.05 228.31,1698.98 121.81,1701.26" fill="none" stroke="#1e1e1e" stroke-width="1.56" stroke-linecap="round" stroke-linejoin="round"/>
<path d="M1716.01,1700.69L1709.49,1989.49L790.42,1980.91L790.21,1927.66L792.08,1927.07L791.38,1919.6L796.92,1920.55L798.36,1917.75L800.4,1919.35L799.88,1921.39L798.29,1921.1L800.02,1921.39L800.78,1918.78L801.82,1918.31L806.69,1921.77L806.54,1923.72L805.03,1924.09L807.21,1925.57L807.27,1928.3L804.27,1928.21L804.61,1929.16L801.91,1929.16L802.42,1930.44L799.2,1930.99L800.41,1933.47L799.22,1933.97L806.3,1932.84L811.58,1934.98L816.05,1934.47L815.87,1938.27L819.63,1940.57L819.75,1941.54L818.54,1941.2L819.72,1943.72L820.57,1939.59L824.85,1936.31L823.65,1935.8L824.43,1933.72L829.59,1933L830.39,1932.12L828.88,1932.41L829.06,1930.7L831.43,1930.76L833.15,1927.97L837.88,1927.4L839.28,1928.46L842.54,1926.71L844.24,1926.83L845.23,1928.66L847.34,1927.59L851.01,1928.32L911.3,1888.42L918.81,1886.8L940.53,1877.35L946.79,1877.5L949.38,1879.04L950,1881.18L953.3,1881.04L964.85,1875.88L975.38,1873.28L982.44,1875.47L986.57,1880.4L994.78,1877.9L1002.74,1877.41L1010.31,1881.78L1015.4,1882.52L1026.64,1887.75L1034.71,1886.38L1038.16,1888.23L1063.89,1884.86L1072.05,1886.25L1073.47,1889.73L1085.53,1891.87L1094.85,1898.07L1097.67,1904L1100.55,1906.34L1100.42,1911.11L1103.49,1911.46L1108.38,1915.2L1109.16,1917.37L1107.71,1919.72L1106.77,1919L1108.08,1921.8L1106.98,1924.42L1113.94,1926.54L1113.89,1930.69L1119.24,1929.18L1121.79,1930.68L1131.48,1925.4L1145.94,1921.95L1170.87,1920.35L1178.87,1921.57L1185.99,1926.58L1184.16,1930.61L1183.78,1936.24L1186.66,1933.57L1194.34,1934.48L1195.25,1933.38L1198.66,1933.61L1205.54,1936.04L1210.73,1939.95L1218.29,1949.57L1216.6,1954.83L1214.93,1955.02L1215.15,1953.39L1213.9,1955.86L1214.66,1959.08L1224.59,1948.96L1236.94,1940.52L1244.58,1936.63L1247.86,1937.39L1253.57,1933.42L1262.28,1932.05L1283.76,1918.06L1303.1,1908.65L1314.84,1906.2L1319.03,1910.08L1320.68,1905.17L1326.53,1899.9L1383.75,1869.17L1432.91,1847.49L1458.13,1838.18L1466.79,1837.1L1478.19,1840.54L1478.59,1835.93L1480.36,1835.22L1480.91,1836.52L1482.4,1834.44L1479.4,1833.57L1477.71,1830.53L1480.26,1820.84L1488.84,1811.04L1491,1805.48L1501.44,1795.83L1530.2,1774.68L1574.64,1747.25L1594.63,1737.3L1598.41,1736.68L1600.29,1737.15L1600.4,1738.57L1603.37,1737.95L1601.88,1729.63L1603.76,1724.82L1608.62,1719.12L1605.99,1715.91L1606.02,1713.24L1603.1,1714.35L1601.27,1713.55L1599.38,1708.36L1599.78,1698.26L1716.01,1700.69ZM1237.12,1978.82L1235.7,1980.16L1236.88,1982.03L1238.13,1981.4L1237.12,1978.82ZM1208.23,1948.53L1206.52,1949.1L1207.81,1954.05L1209.48,1951.89L1208.23,1948.53ZM894.03,1947.09L898.82,1943.56L898.14,1942.87L894.03,1947.09Z" fill-rule="evenodd" fill="#4682b4" fill-opacity="0.471"/>
<polyline points="1716.01,1700.69 1709.49,1989.49 790.42,1980.91 790.21,1927.66 792.08,1927.07 791.38,1919.6 796.92,1920.55 798.36,1917.75 800.4,1919.35 799.88,1921.39 798.29,1921.1 800.02,1921.39 800.78,1918.78 801.82,1918.31 806.69,1921.77 806.54,1923.72 805.03,1924.09 807.21,1925.57 807.27,1928.3 804.27,1928.21 804.61,1929.16 801.91,1929.16 802.42,1930.44 799.2,1930.99 800.41,1933.47 799.22,1933.97 806.3,1932.84 811.58,1934.98 816.05,1934.47 815.87,1938.27 819.63,1940.57 819.75,1941.54 818.54,1941.2 819.72,1943.72 820.57,1939.59 824.85,1936.31 823.65,1935.8 824.43,1933.72 829.59,1933 830.39,1932.12 828.88,1932.41 829.06,1930.7 831.43,1930.76 833.15,1927.97 837.88,1927.4 839.28,1928.46 842.54,1926.71 844.24,1926.83 845.23,1928.66 847.34,1927.59 851.01,1928.32 911.3,1888.42 918.81,1886.8 940.53,1877.35 946.79,1877.5 949.38,1879.04 950,1881.18 953.3,1881.04 964.85,1875.88 975.38,1873.28 982.44,1875.47 986.57,1880.4 994.78,1877.9 1002.74,1877.41 1010.31,1881.78 1015.4,1882.52 1026.64,1887.75 1034.71,1886.38 1038.16,1888.23 1063.89,1884.86 1072.05,1886.25 1073.47,1889.73 1085.53,1891.87 1094.85,1898.07 1097.67,1904 1100.55,1906.34 1100.42,1911.11 1103.49,1911.46 1108.38,1915.2 1109.16,1917.37 1107.71,1919.72 1106.77,1919 1108.08,1921.8 1106.98,1924.42 1113.94,1926.54 1113.89,1930.69 1119.24,1929.18 1121.79,1930.68 1131.48,1925.4 1145.94,1921.95 1170.87,1920.35 1178.87,1921.57 1185.99,1926.58 1184.16,1930.61 1183.78,1936.24 1186.66,1933.57 1194.34,1934.48 1195.25,1933.38 1198.66,1933.61 1205.54,1936.04 1210.73,1939.95 1218.29,1949.57 1216.6,1954.83 1214.93,1955.02 1215.15,1953.39 1213.9,1955.86 1214.66,1959.08 1224.59,1948.96 1236.94,1940.52 1244.58,1936.63 1247.86,1937.39 1253.57,1933.42 1262.28,1932.05 1283.76,1918.06 1303.1,1908.65 1314.84,1906.2 1319.03,1910.08 1320.68,1905.17 1326.53,1899.9 1383.75,1869.17 1432.91,1847.49 1458.13,1838.18 1466.79,1837.1 1478.19,1840.54 1478.59,1835.93 1480.36,1835.22 1480.91,1836.52 1482.4,1834.44 1479.4,1833.57 1477.71,1830.53 1480.26,1820.84 1488.84,1811.04 1491,1805.48 1501.44,1795.83 1530.2,1774.68 1574.64,1747.25 1594.63,1737.3 1598.41,1736.68 1600.29,1737.15 1600.4,1738.57 1603.37,1737.95 1601.88,1729.63 1603.76,1724.82 1608.62,1719.12 1605.99,1715.91 1606.02,1713.24 1603.1,1714.35 1601.27,1713.55 1599.38,1708.36 1599.78,1698.26 1716.01,1700.69" fill="none" stroke="#1e1e1e" stroke-width="1.56" stroke-linecap="round" stroke-linejoin="round"/>
<polyline points="1237.12,1978.82 1235.7,1980.16 1236.88,1982.03 1238.13,1981.4 1237.12,1978.82" fill="none" stroke="#1e1e1e" stroke-width="1.56" stroke-linecap="round" stroke-linejoin="round"/>
<polyline points="1208.23,1948.53 1206.52,1949.1 1207.81,1954.05 1209.48,1951.89 1208.23,1948.53" fill="none" stroke="#1e1e1e" stroke-width="1.56" stroke-linecap="round" stroke-linejoin="round"/>
<polyline points="894.03,1947.09 898.82,1943.56 898.14,1942.87 894.03,1947.09" fill="none" stroke="#1e1e1e" stroke-width="1.56" stroke-linecap="round" stroke-linejoin="round"/>
<path d="M1716,1700.98L1599.76,1698.55L1603.89,1686.42L1616.17,1668.09L1633.15,1646.96L1668.76,1612.87L1677.66,1605.67L1680.32,1605.01L1680.91,1600.67L1686.5,1595.49L1684.63,1594.45L1685.88,1590.36L1683.95,1589.88L1683.63,1587.05L1688.39,1578.98L1686.39,1576.6L1688.54,1572.04L1687.36,1571.04L1688.39,1566.04L1696.43,1556.32L1694.74,1554.48L1696.06,1550.64L1694.76,1545.1L1696.05,1538.37L1699.12,1530.67L1711.18,1512.18L1720.51,1500.91L1716,1700.98Z" fill-rule="evenodd" fill="#4682b4" fill-opacity="0.471"/>
<polyline points="1716,1700.98 1599.76,1698.55 1603.89,1686.42 1616.17,1668.09 1633.15,1646.96 1668.76,1612.87 1677.66,1605.67 1680.32,1605.01 1680.91,1600.67 1686.5,1595.49 1684.63,1594.45 1685.88,1590.36 1683.95,1589.88 1683.63,1587.05 1688.39,1578.98 1686.39,1576.6 1688.54,1572.04 1687.36,1571.04 1688.39,1566.04 1696.43,1556.32 1694.74,1554.48 1696.06,1550.64 1694.76,1545.1 1696.05,1538.37 1699.12,1530.67 1711.18,1512.18 1720.51,1500.91 1716,1700.98" fill="none" stroke="#1e1e1e" stroke-width="1.56" stroke-linecap="round" stroke-linejoin="round"/>
<path d="M1799.99,1702.98L1715.7,1700.98L1720.21,1501.28L1726.61,1493.55L1746.1,1474.06L1806.94,1424.62L1799.99,1702.98Z" fill-rule="evenodd" fill="#4682b4" fill-opacity="0.471"/>
<polyline points="1799.99,1702.98 1715.7,1700.98 1720.21,1501.28 1726.61,1493.55 1746.1,1474.06 1806.94,1424.62 1799.99,1702.98" fill="none" stroke="#1e1e1e" stroke-width="1.56" stroke-linecap="round" stroke-linejoin="round"/>
<path d="M1715.71,1700.68L1800,1702.68L1792.79,1991.47L1709.2,1989.49L1715.71,1700.68Z" fill-rule="evenodd" fill="#4682b4" fill-opacity="0.471"/>
<polyline points="1715.71,1700.68 1800,1702.68 1792.79,1991.47 1709.2,1989.49 1715.71,1700.68" fill="none" stroke="#1e1e1e" stroke-width="1.56" stroke-linecap="round" stroke-linejoin="round"/>
</svg>
