<?xml version="1.0" encoding="UTF-8" standalone="no"?>
<svg xmlns="http://www.w3.org/2000/svg" width="1338" height="2000" viewBox="0 0 1338 2000">
<rect width="1338" height="2000" fill="#ffffff"/>
<path d="M469.05,1971.95L481.79,1958.59L499.63,1937.21L502.18,1931.87L517.47,1910.48L520.02,1897.12L522.57,1889.1L520.02,1881.08L520.02,1873.06L504.76,1819.58L494.59,1798.19L494.59,1790.17L502.23,1784.83L499.69,1779.48L507.33,1755.42L525.16,1744.74L525.16,1736.72L540.44,1731.37L553.17,1728.7L558.26,1734.05L568.44,1739.4L583.71,1742.08L591.35,1747.43L604.08,1747.43L609.17,1744.75L616.81,1747.43L619.35,1750.1L624.45,1750.1L632.08,1752.78L642.27,1752.78L655,1750.1L655,1747.43L685.55,1739.41L688.09,1734.06L708.46,1723.37L713.55,1710L723.73,1707.33L739.01,1710L754.28,1704.65L759.37,1699.3L782.28,1693.95L789.92,1693.95L805.19,1701.96L815.38,1704.63L833.2,1701.96L840.84,1709.97L835.75,1723.34L838.3,1728.69L843.38,1717.99L848.48,1717.99L856.12,1726.01L856.11,1712.64L851.01,1701.95L866.29,1693.92L868.84,1704.62L891.76,1728.67L896.85,1739.36L907.04,1750.04L927.42,1760.73L929.97,1766.07L937.61,1774.09L950.34,1779.43L955.44,1784.77L965.63,1792.79L983.45,1792.77L988.54,1795.44L993.64,1795.44L993.63,1787.42L998.72,1784.74L1003.81,1774.05L1008.9,1771.37L1021.63,1774.03L1026.72,1771.36L1034.35,1766L1034.35,1757.98L1039.44,1755.31L1054.72,1760.64L1057.26,1755.29L1064.9,1755.29L1064.9,1760.63L1072.54,1760.63L1077.62,1755.27L1092.9,1757.93L1097.99,1749.91L1103.08,1749.9L1115.81,1755.24L1123.45,1752.56L1131.1,1760.57L1143.82,1760.56L1148.91,1757.88L1161.65,1760.54L1164.19,1755.19L1176.92,1760.52L1192.2,1760.51L1199.83,1755.15L1207.47,1757.82L1215.11,1755.14L1215.12,1765.83L1220.21,1768.5L1232.95,1771.15L1240.59,1771.15L1243.12,1763.12L1255.85,1765.78L1263.5,1768.44L1268.58,1763.09L1281.31,1760.4L1286.39,1752.37L1299.13,1760.38L1309.31,1757.69L1316.96,1763.03L1329.69,1765.68L1324.62,1781.73L1319.52,1779.06L1306.81,1789.77L1306.81,1795.12L1299.18,1797.8L1291.53,1792.47L1278.81,1797.83L1271.16,1792.49L1253.35,1795.19L1248.26,1797.87L1238.07,1795.21L1227.9,1811.26L1220.27,1819.29L1220.28,1824.64L1210.09,1824.65L1194.82,1827.34L1189.74,1835.37L1179.55,1835.38L1174.46,1840.73L1166.82,1840.74L1159.19,1846.09L1156.65,1854.11L1146.47,1859.47L1141.38,1859.48L1136.28,1856.81L1115.91,1854.15L1098.09,1859.52L1085.36,1867.55L1080.27,1872.9L1077.73,1880.92L1067.55,1883.61L1062.45,1880.94L1052.27,1883.62L1039.54,1888.97L1031.9,1888.98L1026.81,1891.66L1024.27,1899.68L1006.45,1905.04L993.71,1902.38L986.07,1907.73L978.43,1910.41L975.88,1905.06L965.7,1907.74L958.06,1913.09L947.88,1918.45L942.79,1923.79L932.6,1915.78L930.05,1915.78L919.86,1910.44L904.58,1905.1L896.94,1907.78L886.75,1915.8L886.76,1926.5L879.12,1931.85L871.47,1913.14L863.83,1918.49L871.48,1939.87L858.74,1915.82L848.55,1921.17L856.2,1937.2L856.2,1939.88L846.01,1921.17L835.82,1923.84L828.18,1934.54L823.09,1926.52L825.63,1923.85L817.99,1910.48L812.89,1910.49L807.8,1902.47L802.71,1907.82L805.25,1915.83L812.9,1915.83L817.99,1923.85L817.99,1929.2L823.09,1934.54L825.64,1942.56L820.55,1945.24L805.26,1939.9L800.17,1934.55L787.43,1929.21L772.15,1929.21L767.06,1931.88L761.96,1929.21L746.68,1937.24L736.49,1937.24L731.4,1934.56L705.93,1942.59L698.29,1947.93L683.01,1950.61L677.91,1953.28L667.73,1953.28L649.9,1966.65L644.8,1966.65L634.61,1971.99L634.61,1963.97L629.52,1955.95L624.43,1953.28L596.41,1953.28L578.58,1958.62L565.85,1955.94L535.28,1961.28L522.55,1955.93L517.45,1958.6L481.78,1982.65L479.23,1988L469.05,1971.95Z" fill-rule="evenodd" fill="#4682b4" fill-opacity="0.471"/>
<polyline points="469.05,1971.95 481.79,1958.59 499.63,1937.21 502.18,1931.87 517.47,1910.48 520.02,1897.12 522.57,1889.1 520.02,1881.08 520.02,1873.06 504.76,1819.58 494.59,1798.19 494.59,1790.17 502.23,1784.83 499.69,1779.48 507.33,1755.42 525.16,1744.74 525.16,1736.72 540.44,1731.37 553.17,1728.7 558.26,1734.05 568.44,1739.4 583.71,1742.08 591.35,1747.43 604.08,1747.43 609.17,1744.75 616.81,1747.43 619.35,1750.1 624.45,1750.1 632.08,1752.78 642.27,1752.78 655,1750.1 655,1747.43 685.55,1739.41 688.09,1734.06 708.46,1723.37 713.55,1710 723.73,1707.33 739.01,1710 754.28,1704.65 759.37,1699.3 782.28,1693.95 789.92,1693.95 805.19,1701.96 815.38,1704.63 833.2,1701.96 840.84,1709.97 835.75,1723.34 838.3,1728.69 843.38,1717.99 848.48,1717.99 856.12,1726.01 856.11,1712.64 851.01,1701.95 866.29,1693.92 868.84,1704.62 891.76,1728.67 896.85,1739.36 907.04,1750.04 927.42,1760.73 929.97,1766.07 937.61,1774.09 950.34,1779.43 955.44,1784.77 965.63,1792.79 983.45,1792.77 988.54,1795.44 993.64,1795.44 993.63,1787.42 998.72,1784.74 1003.81,1774.05 1008.9,1771.37 1021.63,1774.03 1026.72,1771.36 1034.35,1766 1034.35,1757.98 1039.44,1755.31 1054.72,1760.64 1057.26,1755.29 1064.9,1755.29 1064.9,1760.63 1072.54,1760.63 1077.62,1755.27 1092.9,1757.93 1097.99,1749.91 1103.08,1749.9 1115.81,1755.24 1123.45,1752.56 1131.1,1760.57 1143.82,1760.56 1148.91,1757.88 1161.65,1760.54 1164.19,1755.19 1176.92,1760.52 1192.2,1760.51 1199.83,1755.15 1207.47,1757.82 1215.11,1755.14 1215.12,1765.83 1220.21,1768.5 1232.95,1771.15 1240.59,1771.15 1243.12,1763.12 1255.85,1765.78 1263.5,1768.44 1268.58,1763.09 1281.31,1760.4 1286.39,1752.37 1299.13,1760.38 1309.31,1757.69 1316.96,1763.03 1329.69,1765.68 1324.62,1781.73 1319.52,1779.06 1306.81,1789.77 1306.81,1795.12 1299.18,1797.8 1291.53,1792.47 1278.81,1797.83 1271.16,1792.49 1253.35,1795.19 1248.26,1797.87 1238.07,1795.21 1227.9,1811.26 1220.27,1819.29 1220.28,1824.64 1210.09,1824.65 1194.82,1827.34 1189.74,1835.37 1179.55,1835.38 1174.46,1840.73 1166.82,1840.74 1159.19,1846.09 1156.65,1854.11 1146.47,1859.47 1141.38,1859.48 1136.28,1856.81 1115.91,1854.15 1098.09,1859.52 1085.36,1867.55 1080.27,1872.9 1077.73,1880.92 1067.55,1883.61 1062.45,1880.94 1052.27,1883.62 1039.54,1888.97 1031.9,1888.98 1026.81,1891.66 1024.27,1899.68 1006.45,1905.04 993.71,1902.38 986.07,1907.73 978.43,1910.41 975.88,1905.06 965.7,1907.74 958.06,1913.09 947.88,1918.45 942.79,1923.79 932.6,1915.78 930.05,1915.78 919.86,1910.44 904.58,1905.1 896.94,1907.78 886.75,1915.8 886.76,1926.5 879.12,1931.85 871.47,1913.14 863.83,1918.49 871.48,1939.87 858.74,1915.82 848.55,1921.17 856.2,1937.2 856.2,1939.88 846.01,1921.17 835.82,1923.84 828.18,1934.54 823.09,1926.52 825.63,1923.85 817.99,1910.48 812.89,1910.49 807.8,1902.47 802.71,1907.82 805.25,1915.83 812.9,1915.83 817.99,1923.85 817.99,1929.2 823.09,1934.54 825.64,1942.56 820.55,1945.24 805.26,1939.9 800.17,1934.55 787.43,1929.21 772.15,1929.21 767.06,1931.88 761.96,1929.21 746.68,1937.24 736.49,1937.24 731.4,1934.56 705.93,1942.59 698.29,1947.93 683.01,1950.61 677.91,1953.28 667.73,1953.28 649.9,1966.65 644.8,1966.65 634.61,1971.99 634.61,1963.97 629.52,1955.95 624.43,1953.28 596.41,1953.28 578.58,1958.62 565.85,1955.94 535.28,1961.28 522.55,1955.93 517.45,1958.6 481.78,1982.65 479.23,1988 469.05,1971.95" fill="none" stroke="#1e1e1e" stroke-width="3.05" stroke-linecap="round" stroke-linejoin="round"/>
<path d="M1174.3,1685.67L1171.75,1683L1181.92,1677.64L1199.75,1682.97L1207.39,1682.96L1209.94,1688.31L1192.12,1691L1187.03,1693.68L1181.94,1691.01L1174.3,1691.02L1174.3,1685.67Z" fill-rule="evenodd" fill="#4682b4" fill-opacity="0.471"/>
<polyline points="1174.3,1685.67 1171.75,1683 1181.92,1677.64 1199.75,1682.97 1207.39,1682.96 1209.94,1688.31 1192.12,1691 1187.03,1693.68 1181.94,1691.01 1174.3,1691.02 1174.3,1685.67" fill="none" stroke="#1e1e1e" stroke-width="3.05" stroke-linecap="round" stroke-linejoin="round"/>
<path d="M1111.85,250.15L1109.31,244.8L1111.84,239.45L1116.91,239.45L1111.85,250.15Z" fill-rule="evenodd" fill="#4682b4" fill-opacity="0.471"/>
<polyline points="1111.85,250.15 1109.31,244.8 1111.84,239.45 1116.91,239.45 1111.85,250.15" fill="none" stroke="#1e1e1e" stroke-width="3.05" stroke-linecap="round" stroke-linejoin="round"/>
<path d="M957.02,218.19L967.17,220.85L972.26,231.55L982.41,234.21L987.48,231.54L990.03,242.23L987.49,247.58L995.11,255.59L982.43,268.97L987.52,279.66L982.44,285.01L984.99,301.04L987.53,306.39L985,317.08L979.93,317.09L979.92,306.39L972.3,303.73L969.76,298.38L974.83,293.03L972.29,290.36L964.68,290.36L949.45,293.05L946.91,285.03L941.83,282.36L936.76,293.05L931.69,293.06L934.22,285.04L931.68,279.69L934.22,277.02L934.21,271.67L936.75,266.32L931.67,263.65L918.98,260.98L906.29,269.01L906.3,274.36L901.22,274.36L898.68,271.69L888.53,269.02L883.45,263.67L865.68,250.32L845.38,266.36L845.39,269.04L837.77,271.71L830.16,269.04L830.16,263.7L827.62,258.35L820,255.68L820.01,266.37L822.55,282.41L814.93,282.41L814.93,277.07L820.01,271.72L812.39,261.03L799.7,261.03L797.16,269.05L784.48,271.73L781.94,277.08L784.48,285.1L776.87,285.1L776.86,279.75L771.79,274.41L776.86,269.06L771.78,266.39L766.71,274.41L756.56,277.08L754.02,266.39L759.1,266.39L766.71,258.37L761.63,250.35L754.02,255.7L748.94,261.04L746.4,255.7L743.86,245L738.79,239.66L736.25,231.64L743.86,234.31L751.48,228.96L738.79,220.94L738.78,215.6L756.55,207.57L759.08,202.23L766.7,202.23L766.69,178.17L769.23,172.82L774.3,172.82L774.3,180.84L771.77,183.51L776.84,188.86L784.46,191.53L792.07,186.18L792.07,180.83L786.99,175.49L792.06,172.81L804.75,178.16L812.36,175.48L819.97,164.78L827.59,167.46L827.59,170.13L832.66,172.8L842.81,172.8L852.96,167.45L860.57,159.42L865.64,164.77L870.72,164.77L875.79,156.74L873.25,154.07L875.79,146.05L875.78,135.36L870.71,132.68L858.02,132.69L855.48,124.67L860.55,119.32L880.85,119.31L898.61,124.65L903.69,130L898.62,138.02L888.47,135.35L893.55,143.37L903.7,146.04L918.92,143.36L929.07,146.02L936.68,146.02L934.14,140.67L934.14,135.33L944.29,137.99L951.9,135.32L956.97,135.31L969.66,140.65L972.2,151.34L974.74,151.34L979.81,148.67L1002.65,148.65L1020.42,156.66L1020.43,167.35L1030.58,175.36L1038.19,175.36L1038.2,183.38L1040.74,188.72L1050.89,186.04L1053.42,180.69L1058.5,183.36L1066.11,183.35L1063.58,191.38L1068.66,196.72L1071.19,191.37L1081.35,194.03L1083.89,202.05L1083.89,207.4L1071.21,215.43L1066.15,223.46L1066.15,231.48L1063.62,234.15L1053.47,234.16L1050.92,228.81L1045.85,226.15L1053.45,215.45L1050.91,210.1L1053.44,202.08L1048.36,196.74L1038.21,196.74L1038.21,191.4L1028.05,188.73L1020.44,191.41L1017.91,196.76L1012.84,202.11L1002.68,194.1L1010.29,191.42L1005.21,183.4L1010.29,180.72L1010.27,164.68L1002.66,164.69L1000.13,170.04L987.44,170.05L982.36,167.38L977.29,170.05L977.3,178.07L974.76,186.1L982.38,194.11L979.85,202.13L969.7,207.49L967.16,204.81L964.62,194.12L959.54,188.78L951.93,188.78L946.86,194.13L951.94,204.82L957.02,218.19Z" fill-rule="evenodd" fill="#4682b4" fill-opacity="0.471"/>
<polyline points="957.02,218.19 967.17,220.85 972.26,231.55 982.41,234.21 987.48,231.54 990.03,242.23 987.49,247.58 995.11,255.59 982.43,268.97 987.52,279.66 982.44,285.01 984.99,301.04 987.53,306.39 985,317.08 979.93,317.09 979.92,306.39 972.3,303.73 969.76,298.38 974.83,293.03 972.29,290.36 964.68,290.36 949.45,293.05 946.91,285.03 941.83,282.36 936.76,293.05 931.69,293.06 934.22,285.04 931.68,279.69 934.22,277.02 934.21,271.67 936.75,266.32 931.67,263.65 918.98,260.98 906.29,269.01 906.3,274.36 901.22,274.36 898.68,271.69 888.53,269.02 883.45,263.67 865.68,250.32 845.38,266.36 845.39,269.04 837.77,271.71 830.16,269.04 830.16,263.7 827.62,258.35 820,255.68 820.01,266.37 822.55,282.41 814.93,282.41 814.93,277.07 820.01,271.72 812.39,261.03 799.7,261.03 797.16,269.05 784.48,271.73 781.94,277.08 784.48,285.1 776.87,285.1 776.86,279.75 771.79,274.41 776.86,269.06 771.78,266.39 766.71,274.41 756.56,277.08 754.02,266.39 759.1,266.39 766.71,258.37 761.63,250.35 754.02,255.7 748.94,261.04 746.4,255.7 743.86,245 738.79,239.66 736.25,231.64 743.86,234.31 751.48,228.96 738.79,220.94 738.78,215.6 756.55,207.57 759.08,202.23 766.7,202.23 766.69,178.17 769.23,172.82 774.3,172.82 774.3,180.84 771.77,183.51 776.84,188.86 784.46,191.53 792.07,186.18 792.07,180.83 786.99,175.49 792.06,172.81 804.75,178.16 812.36,175.48 819.97,164.78 827.59,167.46 827.59,170.13 832.66,172.8 842.81,172.8 852.96,167.45 860.57,159.42 865.64,164.77 870.72,164.77 875.79,156.74 873.25,154.07 875.79,146.05 875.78,135.36 870.71,132.68 858.02,132.69 855.48,124.67 860.55,119.32 880.85,119.31 898.61,124.65 903.69,130 898.62,138.02 888.47,135.35 893.55,143.37 903.7,146.04 918.92,143.36 929.07,146.02 936.68,146.02 934.14,140.67 934.14,135.33 944.29,137.99 951.9,135.32 956.97,135.31 969.66,140.65 972.2,151.34 974.74,151.34 979.81,148.67 1002.65,148.65 1020.42,156.66 1020.43,167.35 1030.58,175.36 1038.19,175.36 1038.2,183.38 1040.74,188.72 1050.89,186.04 1053.42,180.69 1058.5,183.36 1066.11,183.35 1063.58,191.38 1068.66,196.72 1071.19,191.37 1081.35,194.03 1083.89,202.05 1083.89,207.4 1071.21,215.43 1066.15,223.46 1066.15,231.48 1063.62,234.15 1053.47,234.16 1050.92,228.81 1045.85,226.15 1053.45,215.45 1050.91,210.1 1053.44,202.08 1048.36,196.74 1038.21,196.74 1038.21,191.4 1028.05,188.73 1020.44,191.41 1017.91,196.76 1012.84,202.11 1002.68,194.1 1010.29,191.42 1005.21,183.4 1010.29,180.72 1010.27,164.68 1002.66,164.69 1000.13,170.04 987.44,170.05 982.36,167.38 977.29,170.05 977.3,178.07 974.76,186.1 982.38,194.11 979.85,202.13 969.7,207.49 967.16,204.81 964.62,194.12 959.54,188.78 951.93,188.78 946.86,194.13 951.94,204.82 957.02,218.19" fill="none" stroke="#1e1e1e" stroke-width="3.05" stroke-linecap="round" stroke-linejoin="round"/>
<path d="M713.4,154.11L708.33,159.46L700.72,148.77L703.25,146.09L713.4,148.77L733.7,140.74L738.77,146.09L731.16,151.44L715.94,151.44L713.4,154.11Z" fill-rule="evenodd" fill="#4682b4" fill-opacity="0.471"/>
<polyline points="713.4,154.11 708.33,159.46 700.72,148.77 703.25,146.09 713.4,148.77 733.7,140.74 738.77,146.09 731.16,151.44 715.94,151.44 713.4,154.11" fill="none" stroke="#1e1e1e" stroke-width="3.05" stroke-linecap="round" stroke-linejoin="round"/>
<path d="M670.27,154.12L675.34,151.44L680.42,151.44L695.64,154.11L693.1,159.46L682.96,156.79L675.34,156.79L670.27,154.12Z" fill-rule="evenodd" fill="#4682b4" fill-opacity="0.471"/>
<polyline points="670.27,154.12 675.34,151.44 680.42,151.44 695.64,154.11 693.1,159.46 682.96,156.79 675.34,156.79 670.27,154.12" fill="none" stroke="#1e1e1e" stroke-width="3.05" stroke-linecap="round" stroke-linejoin="round"/>
<path d="M677.88,322.54L667.73,317.19L662.65,319.86L660.12,311.84L670.27,309.17L677.88,317.19L677.88,322.54Z" fill-rule="evenodd" fill="#4682b4" fill-opacity="0.471"/>
<polyline points="677.88,322.54 667.73,317.19 662.65,319.86 660.12,311.84 670.27,309.17 677.88,317.19 677.88,322.54" fill="none" stroke="#1e1e1e" stroke-width="3.05" stroke-linecap="round" stroke-linejoin="round"/>
<path d="M660.12,293.13L660.12,301.15L649.96,298.48L655.04,293.13L655.04,274.42L660.12,274.42L662.66,279.76L670.27,277.09L675.34,279.76L672.81,285.11L670.27,285.11L660.12,293.13Z" fill-rule="evenodd" fill="#4682b4" fill-opacity="0.471"/>
<polyline points="660.12,293.13 660.12,301.15 649.96,298.48 655.04,293.13 655.04,274.42 660.12,274.42 662.66,279.76 670.27,277.09 675.34,279.76 672.81,285.11 670.27,285.11 660.12,293.13" fill="none" stroke="#1e1e1e" stroke-width="3.05" stroke-linecap="round" stroke-linejoin="round"/>
<path d="M637.28,164.81L642.36,156.79L665.19,151.44L665.19,154.12L655.04,156.79L647.43,162.13L644.9,159.46L637.28,164.81Z" fill-rule="evenodd" fill="#4682b4" fill-opacity="0.471"/>
<polyline points="637.28,164.81 642.36,156.79 665.19,151.44 665.19,154.12 655.04,156.79 647.43,162.13 644.9,159.46 637.28,164.81" fill="none" stroke="#1e1e1e" stroke-width="3.05" stroke-linecap="round" stroke-linejoin="round"/>
<path d="M226.25,143.21L233.86,148.57L241.47,145.9L246.56,135.21L246.56,127.19L249.11,121.85L256.72,121.85L261.79,124.53L269.4,121.86L271.94,119.19L287.16,121.88L292.24,119.21L309.99,129.92L320.14,124.58L322.68,127.25L330.29,124.59L330.29,127.26L340.44,129.94L350.59,127.27L348.06,113.9L353.14,111.23L355.67,119.26L360.74,119.26L365.81,124.61L373.42,129.96L373.42,135.31L375.95,140.66L386.1,148.68L396.24,148.69L398.78,154.04L403.85,154.04L408.93,156.72L416.54,151.37L424.16,138.01L416.55,127.31L406.41,121.96L401.34,116.61L388.66,105.91L393.73,105.91L406.42,108.59L414.02,113.95L426.7,127.32L434.31,127.32L441.92,132.67L446.99,140.7L452.07,138.02L469.83,140.71L485.05,148.73L487.58,151.41L495.2,146.06L500.27,146.06L505.35,151.41L505.34,164.78L512.95,167.46L520.56,164.79L530.71,167.46L538.32,178.16L548.47,175.49L558.62,178.16L563.7,183.51L563.69,191.53L576.38,194.21L578.92,199.55L594.14,212.92L599.22,207.58L604.29,218.27L619.51,231.64L616.98,239.66L611.9,239.66L609.36,245.01L596.67,250.35L601.75,253.03L611.9,247.68L616.97,253.03L622.05,253.03L624.59,250.35L624.59,255.7L629.66,261.05L637.28,263.72L642.35,271.74L634.74,274.42L629.66,266.4L624.59,269.07L622.05,266.39L619.51,274.41L622.05,279.76L616.97,282.43L614.43,274.41L606.82,271.74L599.21,263.72L586.52,263.72L578.9,266.39L576.37,269.06L566.21,269.06L568.75,261.04L561.14,261.04L550.99,266.38L543.37,271.73L525.61,269.05L525.61,271.72L528.14,277.07L538.29,279.75L543.37,290.44L540.83,293.11L543.37,297.12L543.37,293.11L550.98,293.12L556.06,301.14L544.34,298.67L545.9,301.13L533.21,306.48L535.75,301.13L530.68,295.78L515.45,290.43L505.3,279.74L497.69,282.41L490.07,279.73L482.46,287.75L474.84,287.74L474.84,282.4L464.69,285.07L462.16,277.04L452.01,274.37L434.25,260.99L421.56,260.99L426.64,255.64L424.1,247.62L419.03,242.27L421.57,239.6L416.5,231.58L431.73,220.89L426.66,215.54L413.97,212.86L411.44,207.51L401.29,204.83L383.52,210.17L378.44,215.51L378.44,220.86L373.36,223.53L368.29,223.53L360.68,218.18L345.45,220.84L340.37,231.53L340.36,236.87L335.28,242.22L327.67,239.54L325.14,231.52L322.59,250.23L314.98,247.55L312.44,242.2L317.52,234.18L315,220.82L307.39,218.14L302.31,220.81L302.3,228.83L297.22,234.17L289.62,218.12L269.32,220.78L266.79,212.76L279.48,212.77L284.56,207.43L284.56,199.41L282.03,194.06L261.73,191.37L261.74,186.02L256.67,180.67L246.52,177.99L236.37,177.98L226.21,188.66L200.83,196.66L198.28,202L193.21,199.32L190.68,193.97L180.53,196.64L172.91,196.63L170.37,201.97L157.68,204.63L152.61,201.95L147.54,191.25L139.93,191.24L124.72,177.86L122.19,172.51L139.95,172.53L145.04,159.17L145.05,151.15L155.2,153.83L157.74,148.49L162.82,148.5L180.57,151.19L198.34,145.86L208.49,145.87L216.11,135.18L223.72,137.86L226.25,143.21Z" fill-rule="evenodd" fill="#4682b4" fill-opacity="0.471"/>
<polyline points="226.25,143.21 233.86,148.57 241.47,145.9 246.56,135.21 246.56,127.19 249.11,121.85 256.72,121.85 261.79,124.53 269.4,121.86 271.94,119.19 287.16,121.88 292.24,119.21 309.99,129.92 320.14,124.58 322.68,127.25 330.29,124.59 330.29,127.26 340.44,129.94 350.59,127.27 348.06,113.9 353.14,111.23 355.67,119.26 360.74,119.26 365.81,124.61 373.42,129.96 373.42,135.31 375.95,140.66 386.1,148.68 396.24,148.69 398.78,154.04 403.85,154.04 408.93,156.72 416.54,151.37 424.16,138.01 416.55,127.31 406.41,121.96 401.34,116.61 388.66,105.91 393.73,105.91 406.42,108.59 414.02,113.95 426.7,127.32 434.31,127.32 441.92,132.67 446.99,140.7 452.07,138.02 469.83,140.71 485.05,148.73 487.58,151.41 495.2,146.06 500.27,146.06 505.35,151.41 505.34,164.78 512.95,167.46 520.56,164.79 530.71,167.46 538.32,178.16 548.47,175.49 558.62,178.16 563.7,183.51 563.69,191.53 576.38,194.21 578.92,199.55 594.14,212.92 599.22,207.58 604.29,218.27 619.51,231.64 616.98,239.66 611.9,239.66 609.36,245.01 596.67,250.35 601.75,253.03 611.9,247.68 616.97,253.03 622.05,253.03 624.59,250.35 624.59,255.7 629.66,261.05 637.28,263.72 642.35,271.74 634.74,274.42 629.66,266.4 624.59,269.07 622.05,266.39 619.51,274.41 622.05,279.76 616.97,282.43 614.43,274.41 606.82,271.74 599.21,263.72 586.52,263.72 578.9,266.39 576.37,269.06 566.21,269.06 568.75,261.04 561.14,261.04 550.99,266.38 543.37,271.73 525.61,269.05 525.61,271.72 528.14,277.07 538.29,279.75 543.37,290.44 540.83,293.11 543.37,297.12 543.37,293.11 550.98,293.12 556.06,301.14 544.34,298.67 545.9,301.13 533.21,306.48 535.75,301.13 530.68,295.78 515.45,290.43 505.3,279.74 497.69,282.41 490.07,279.73 482.46,287.75 474.84,287.74 474.84,282.4 464.69,285.07 462.16,277.04 452.01,274.37 434.25,260.99 421.56,260.99 426.64,255.64 424.1,247.62 419.03,242.27 421.57,239.6 416.5,231.58 431.73,220.89 426.66,215.54 413.97,212.86 411.44,207.51 401.29,204.83 383.52,210.17 378.44,215.51 378.44,220.86 373.36,223.53 368.29,223.53 360.68,218.18 345.45,220.84 340.37,231.53 340.36,236.87 335.28,242.22 327.67,239.54 325.14,231.52 322.59,250.23 314.98,247.55 312.44,242.2 317.52,234.18 315,220.82 307.39,218.14 302.31,220.81 302.3,228.83 297.22,234.17 289.62,218.12 269.32,220.78 266.79,212.76 279.48,212.77 284.56,207.43 284.56,199.41 282.03,194.06 261.73,191.37 261.74,186.02 256.67,180.67 246.52,177.99 236.37,177.98 226.21,188.66 200.83,196.66 198.28,202 193.21,199.32 190.68,193.97 180.53,196.64 172.91,196.63 170.37,201.97 157.68,204.63 152.61,201.95 147.54,191.25 139.93,191.24 124.72,177.86 122.19,172.51 139.95,172.53 145.04,159.17 145.05,151.15 155.2,153.83 157.74,148.49 162.82,148.5 180.57,151.19 198.34,145.86 208.49,145.87 216.11,135.18 223.72,137.86 226.25,143.21" fill="none" stroke="#1e1e1e" stroke-width="3.05" stroke-linecap="round" stroke-linejoin="round"/>
<path d="M624.59,250.35L627.13,247.68L637.28,242.34L647.43,242.34L652.5,247.68L649.97,250.36L637.28,247.68L624.59,250.35Z" fill-rule="evenodd" fill="#4682b4" fill-opacity="0.471"/>
<polyline points="624.59,250.35 627.13,247.68 637.28,242.34 647.43,242.34 652.5,247.68 649.97,250.36 637.28,247.68 624.59,250.35" fill="none" stroke="#1e1e1e" stroke-width="3.05" stroke-linecap="round" stroke-linejoin="round"/>
<path d="M566.24,156.78L551.02,151.43L558.63,146.08L561.17,151.43L589.08,154.11L599.23,148.76L609.37,151.44L611.91,162.13L604.3,167.48L596.69,162.13L576.39,162.13L566.24,156.78Z" fill-rule="evenodd" fill="#4682b4" fill-opacity="0.471"/>
<polyline points="566.24,156.78 551.02,151.43 558.63,146.08 561.17,151.43 589.08,154.11 599.23,148.76 609.37,151.44 611.91,162.13 604.3,167.48 596.69,162.13 576.39,162.13 566.24,156.78" fill="none" stroke="#1e1e1e" stroke-width="3.05" stroke-linecap="round" stroke-linejoin="round"/>
<path d="M502.73,375.98L490.04,378.64L497.65,367.95L502.73,375.98Z" fill-rule="evenodd" fill="#4682b4" fill-opacity="0.471"/>
<polyline points="502.73,375.98 490.04,378.64 497.65,367.95 502.73,375.98" fill="none" stroke="#1e1e1e" stroke-width="3.05" stroke-linecap="round" stroke-linejoin="round"/>
<path d="M469.86,71.2L467.32,79.22L459.71,81.89L457.17,71.19L452.1,71.19L449.57,63.17L447.03,52.47L449.57,47.13L444.5,41.78L439.43,41.78L436.9,31.08L447.05,31.09L464.8,39.12L477.47,55.16L482.54,65.86L469.86,71.2Z" fill-rule="evenodd" fill="#4682b4" fill-opacity="0.471"/>
<polyline points="469.86,71.2 467.32,79.22 459.71,81.89 457.17,71.19 452.1,71.19 449.57,63.17 447.03,52.47 449.57,47.13 444.5,41.78 439.43,41.78 436.9,31.08 447.05,31.09 464.8,39.12 477.47,55.16 482.54,65.86 469.86,71.2" fill="none" stroke="#1e1e1e" stroke-width="3.05" stroke-linecap="round" stroke-linejoin="round"/>
<path d="M469.88,28.42L467.34,31.1L457.19,25.75L452.13,15.05L457.2,12.38L467.34,15.06L472.42,20.4L469.88,28.42Z" fill-rule="evenodd" fill="#4682b4" fill-opacity="0.471"/>
<polyline points="469.88,28.42 467.34,31.1 457.19,25.75 452.13,15.05 457.2,12.38 467.34,15.06 472.42,20.4 469.88,28.42" fill="none" stroke="#1e1e1e" stroke-width="3.05" stroke-linecap="round" stroke-linejoin="round"/>
<path d="M391.12,228.89L391.12,234.23L398.73,234.24L398.73,239.59L403.8,244.94L396.18,252.95L388.58,242.25L386.04,234.23L386.05,228.88L380.97,226.21L383.52,218.19L388.59,218.19L391.12,228.89Z" fill-rule="evenodd" fill="#4682b4" fill-opacity="0.471"/>
<polyline points="391.12,228.89 391.12,234.23 398.73,234.24 398.73,239.59 403.8,244.94 396.18,252.95 388.58,242.25 386.04,234.23 386.05,228.88 380.97,226.21 383.52,218.19 388.59,218.19 391.12,228.89" fill="none" stroke="#1e1e1e" stroke-width="3.05" stroke-linecap="round" stroke-linejoin="round"/>
<path d="M378.41,266.31L370.8,266.3L373.34,260.96L363.19,258.28L350.5,263.62L350.49,268.96L345.4,293.02L340.32,298.36L327.63,293.01L327.64,287.66L335.26,279.65L327.64,279.64L327.65,274.29L335.26,271.63L337.81,260.93L340.35,255.59L347.96,252.92L353.04,247.58L355.59,242.23L360.66,236.89L373.35,242.24L373.34,250.26L378.41,266.31Z" fill-rule="evenodd" fill="#4682b4" fill-opacity="0.471"/>
<polyline points="378.41,266.31 370.8,266.3 373.34,260.96 363.19,258.28 350.5,263.62 350.49,268.96 345.4,293.02 340.32,298.36 327.63,293.01 327.64,287.66 335.26,279.65 327.64,279.64 327.65,274.29 335.26,271.63 337.81,260.93 340.35,255.59 347.96,252.92 353.04,247.58 355.59,242.23 360.66,236.89 373.35,242.24 373.34,250.26 378.41,266.31" fill="none" stroke="#1e1e1e" stroke-width="3.05" stroke-linecap="round" stroke-linejoin="round"/>
<path d="M294.79,97.83L294.8,95.15L287.19,84.45L292.27,81.78L302.41,87.14L310.02,87.14L307.48,97.84L312.55,100.51L315.08,108.53L310.01,111.2L304.94,103.18L294.79,97.83Z" fill-rule="evenodd" fill="#4682b4" fill-opacity="0.471"/>
<polyline points="294.79,97.83 294.8,95.15 287.19,84.45 292.27,81.78 302.41,87.14 310.02,87.14 307.48,97.84 312.55,100.51 315.08,108.53 310.01,111.2 304.94,103.18 294.79,97.83" fill="none" stroke="#1e1e1e" stroke-width="3.05" stroke-linecap="round" stroke-linejoin="round"/>
<path d="M297.37,49.71L310.04,65.76L302.43,68.42L294.82,68.42L289.75,63.07L292.29,55.05L289.76,44.35L294.83,47.03L297.37,49.71Z" fill-rule="evenodd" fill="#4682b4" fill-opacity="0.471"/>
<polyline points="297.37,49.71 310.04,65.76 302.43,68.42 294.82,68.42 289.75,63.07 292.29,55.05 289.76,44.35 294.83,47.03 297.37,49.71" fill="none" stroke="#1e1e1e" stroke-width="3.05" stroke-linecap="round" stroke-linejoin="round"/>
<path d="M226.1,303.62L221.03,300.94L226.11,295.6L233.72,300.95L226.1,303.62Z" fill-rule="evenodd" fill="#4682b4" fill-opacity="0.471"/>
<polyline points="226.1,303.62 221.03,300.94 226.11,295.6 233.72,300.95 226.1,303.62" fill="none" stroke="#1e1e1e" stroke-width="3.05" stroke-linecap="round" stroke-linejoin="round"/>
<path d="M101.92,153.77L104.46,148.43L114.6,153.79L117.14,156.46L109.52,161.8L106.99,153.78L101.92,153.77Z" fill-rule="evenodd" fill="#4682b4" fill-opacity="0.471"/>
<polyline points="101.92,153.77 104.46,148.43 114.6,153.79 117.14,156.46 109.52,161.8 106.99,153.78 101.92,153.77" fill="none" stroke="#1e1e1e" stroke-width="3.05" stroke-linecap="round" stroke-linejoin="round"/>
<path d="M96.85,145.75L101.92,148.43L96.84,156.44L81.63,145.73L89.24,143.06L96.85,145.75Z" fill-rule="evenodd" fill="#4682b4" fill-opacity="0.471"/>
<polyline points="96.85,145.75 101.92,148.43 96.84,156.44 81.63,145.73 89.24,143.06 96.85,145.75" fill="none" stroke="#1e1e1e" stroke-width="3.05" stroke-linecap="round" stroke-linejoin="round"/>
<path d="M66.54,36.1L76.7,30.77L76.69,38.79L66.54,36.1Z" fill-rule="evenodd" fill="#4682b4" fill-opacity="0.471"/>
<polyline points="66.54,36.1 76.7,30.77 76.69,38.79 66.54,36.1" fill="none" stroke="#1e1e1e" stroke-width="3.05" stroke-linecap="round" stroke-linejoin="round"/>
<path d="M63.92,102.93L69,97.59L71.53,105.61L68.99,105.61L63.92,102.93Z" fill-rule="evenodd" fill="#4682b4" fill-opacity="0.471"/>
<polyline points="63.92,102.93 69,97.59 71.53,105.61 68.99,105.61 63.92,102.93" fill="none" stroke="#1e1e1e" stroke-width="3.05" stroke-linecap="round" stroke-linejoin="round"/>
<path d="M10.49,212.47L18.11,209.8L18.11,204.46L33.36,188.44L38.42,201.81L38.41,207.16L30.79,209.82L28.25,217.84L23.17,215.16L10.48,217.81L10.49,212.47Z" fill-rule="evenodd" fill="#4682b4" fill-opacity="0.471"/>
<polyline points="10.49,212.47 18.11,209.8 18.11,204.46 33.36,188.44 38.42,201.81 38.41,207.16 30.79,209.82 28.25,217.84 23.17,215.16 10.48,217.81 10.49,212.47" fill="none" stroke="#1e1e1e" stroke-width="3.05" stroke-linecap="round" stroke-linejoin="round"/>
<text x="687.35" y="1837.27" font-family="sans-serif" font-size="14" stroke="#ffffff" stroke-opacity="0.784" stroke-width="2.33" stroke-linejoin="round" paint-order="stroke" fill="#141414">United States Virgin Islands</text>
</svg>
