<?xml version="1.0" encoding="UTF-8" standalone="no"?>
<svg xmlns="http://www.w3.org/2000/svg" width="2000" height="1275" viewBox="0 0 2000 1275">
<rect width="2000" height="1275" fill="#ffffff"/>
<polyline points="554.06,1257.05 553.04,1253.45 550.35,1251.85 548.11,1248.37 545.71,1248.11 544.75,1245.07 544.88,1242.11 542.49,1241.1 541.51,1234.58 539.89,1231.6 538.22,1230.25 536.87,1224.45 531.38,1216.33 534.53,1207.88 534.42,1202.03 531.85,1196.38 531.07,1191.31 528.52,1186.82 525.06,1177.14 522.26,1174.48 516.34,1161.89 515.8,1153.54 514.07,1146.35 509.43,1140.35 508.15,1135.5 496.14,1122.48 494.99,1119.57" fill="none" stroke="#1e1e1e" stroke-width="1.09" stroke-linecap="round" stroke-linejoin="round"/>
<polyline points="1658.1,913.35 1642.49,917.77 1636.86,917.74 1623,914.24 1618.23,914.09 1601.56,920.59 1589.27,917.77 1579.43,917.41 1537.1,926.86 1486.61,930.44 1476.2,935.98 1459.57,933.48 1456.21,934.98 1456.16,933.9 1446.28,934.36 1441.9,930.84 1438.94,925.81 1436.94,926.95 1432.05,925.98 1428.26,927.27 1417.71,928.72 1406.59,926.17 1400.67,926.09 1397.02,929.59 1394.9,928.09 1390.67,927.5 1387.69,925.03 1385.95,924.77 1380.34,925.32 1377.68,924.44 1374.79,926.62 1372.14,926.58 1363.1,923.92 1357.95,920.25 1353.16,921.4 1351.56,920.49 1350.84,921.5 1346.32,920.11 1336.46,923.29 1331.7,923.17 1325.78,920.9 1318.63,919.57 1315.04,916.72 1310.45,915.79 1301.62,911.32 1294.76,909.91 1284.29,906.39 1279.66,902.43 1277.11,901.52 1271.68,895.03 1268.19,892.8 1262.94,886.03 1258.24,883.28 1255.45,876.89 1250.81,874.59 1247.33,871.62 1245.61,866.74 1235.08,863.65 1231.11,861.18 1223.49,860.17 1219.56,857.66 1211.29,857.68 1184.22,851.24 1169.8,850.18 1144.88,855.96 1140.16,855.07 1135.33,852.06 1133.02,852.87 1128.73,850.14 1124.21,848.58 1119.28,842.41 1108.66,834.54 1096.96,831.27 1094.48,831.57 1090.51,834.4 1084.75,834.98 1075.95,833.24 1050.25,831.65 1038.26,835.94 1030.44,836.29 1028.74,837.67 1023.54,848.41 1020.07,852.45 1004.97,859.93 1000.8,863.3 998.62,863.8 992.38,862.68 986.3,863.38 985.2,866.01 979.82,868.92 973.83,874.88 971.91,884.38 965.04,892.29 959.29,894.55 957.76,897.5 955.48,897.49 949.81,901.21 945.82,904.99 937.58,909.92 933.18,911.27 928.61,919.14 924.67,921.08 917.79,926.12 917.71,928.83 920.13,934.95 926.9,944.64 925.97,952.14 928.21,957.76 926.84,961.64 923.64,964.69 909.47,972.54 902.27,974.32 901.04,975.98 898.85,988.24" fill="none" stroke="#1e1e1e" stroke-width="1.09" stroke-linecap="round" stroke-linejoin="round"/>
<polyline points="337.07,1245 330.71,1243 327.5,1242.9 324.38,1244.15" fill="none" stroke="#1e1e1e" stroke-width="1.09" stroke-linecap="round" stroke-linejoin="round"/>
<polyline points="282.36,1241.21 279.19,1236.93 271.11,1228.82 264.46,1225.9 262.77,1221.74 260.78,1219.27 249.94,1210.11 194.58,1190.28 192.72,1188.95 190.71,1185.33 187.75,1183.62 181.81,1177.14 177.16,1168.95 175.07,1167.65 170.79,1166.76 168.4,1164.66 164.63,1164.8 161.85,1160.5 158.02,1159.32 137.2,1159.47 134.17,1158.54 127.92,1152.61 123.29,1150.75 98.78,1148.05 94.75,1144.82 87.91,1142.05 81.13,1132.34 76.29,1129.64 66.27,1126.3 65.07,1125.42 64.18,1123.13 59.54,1121.12 56.76,1115.03 51.81,1112.66 46.09,1111.87 41.85,1112.86 39.85,1111.4 22.97,1111.69" fill="none" stroke="#1e1e1e" stroke-width="1.09" stroke-linecap="round" stroke-linejoin="round"/>
<polyline points="1368.75,671.52 1371.81,677.5 1378.06,685.16 1381.79,687.27 1402.04,691.11 1411.98,690.8 1420.7,689.09 1422.95,689.9" fill="none" stroke="#1e1e1e" stroke-width="1.09" stroke-linecap="round" stroke-linejoin="round"/>
<polyline points="1579.34,802.33 1582.39,802.86 1587.92,801.87 1601.18,796.48 1631.33,787.86 1635.59,785.01 1636.88,783.01 1637.06,779.41 1635.86,775.16" fill="none" stroke="#1e1e1e" stroke-width="1.09" stroke-linecap="round" stroke-linejoin="round"/>
<polyline points="1422.95,689.9 1423.74,691.62 1425.84,693.26 1428.66,694.34 1430.15,698.48 1432.77,701.47 1434.53,702.04 1440.79,700.41 1440.77,703.9 1444.07,703.99 1446.09,705.12 1447.08,706.37 1446.63,707.42 1444.29,707.94 1443.19,709.01 1451.74,717.38 1452.79,723.29 1454.8,722.82 1455.65,726.26 1457.38,725.44 1462.24,726.7 1463.95,727.82 1467.23,732.51 1472.25,735.28 1474.11,738.28 1474.26,741.24 1477.36,741.97 1480.22,744.98 1480.56,746.91 1479.21,748.88 1480.95,749.82 1485.57,747.48 1486.64,748.05 1484.7,752.56 1491.31,751.48 1492.79,755.02 1495.47,757.93 1493.45,762.07 1494.32,762.55 1497.48,759.79 1499.24,761.18 1499.33,762.2 1496.64,763.6 1494.72,770.9 1497.14,770.73 1499.27,771.74 1497.27,773 1499.5,776.08 1500.5,779.76 1497.73,785.56 1500.51,785.42 1503.05,786.27 1499.43,790.41 1504.01,790.17 1502.37,792.21 1502.58,796.08 1500.67,798.34 1507.7,803.25 1507.86,805.86 1513.99,809.08 1519.07,810.14 1523.49,813.97 1526.16,814.75 1531.14,813.79 1541.11,809.02 1550.94,807 1552.11,805.96 1553.81,801.02 1558.09,797.97 1560.14,799.03 1568.76,798.47 1572.7,801.29 1574.05,800.76 1576.28,798.02 1579.34,802.33" fill="none" stroke="#1e1e1e" stroke-width="1.09" stroke-linecap="round" stroke-linejoin="round"/>
<polyline points="934.5,50.7 933.64,52.49 928.23,56.06 928.77,60.18 931.01,64.31 933.88,66.2 940.91,65.46 944.12,66.22 946.76,69.26 952.3,67.33 953.77,68.22 955.66,74.25 957.9,73.27 957.99,75.85 959.27,77.23 959.55,75.53 961.02,74.28 961.75,77.23 963.54,77.69 962.74,79.23 966.16,92.1 964.91,93.51 965.61,95.05 968.98,97.15 974.23,98.09 975.94,99.14 977.34,98.15 975.23,103.25 975.58,104.08 980.1,105.17 979.55,108.08 980.5,110.81 982.45,112.7 984.97,113.1 983.63,115.96 989.73,118.49 992.24,121.29 994.07,125.49 999.28,123.89 1000.52,124.61 1001.49,127.13 1004.2,125.96 1007.15,126.66 1013.63,131.87 1019.51,131.24 1021.34,132.33 1020.77,136.8 1031.26,139.74 1036.9,138.82 1040.31,133.78 1043.37,132.96 1047.66,136.61 1050.18,137.68 1057.47,135.94 1057.17,137.63 1058.2,138.22 1061.74,137.6 1062.99,138.07 1064.57,140.64 1072.17,137.93 1075.69,138.76 1076.5,139.16 1077.08,142.65 1079.46,147.36 1084.3,151.12 1085.41,152.82 1093.23,157.1 1096.78,162 1096.83,167.12 1101.27,170.64 1108.22,173.76 1110.38,173.53 1112.33,171.79 1116.03,173.41 1124.36,174.78 1126.44,172.68 1127.56,174.45 1127.84,177.14 1127.36,179.6 1125.42,181.2 1125.85,183.65 1127.5,184.53 1130.09,182.6 1133.68,184.61 1135.86,187.9 1135.05,189.11 1135.52,189.93 1138.53,189.34 1138.75,192.35 1140.25,195.29 1139.91,197.72 1142.66,198.53 1143.08,199.65 1141.71,202.68 1143.23,209.07 1141.21,208.17 1138.99,208.25 1142.09,210.42 1149.32,212.11 1152.53,213.95 1152.47,210.89 1153.47,210.49 1155.71,211.92 1159.84,211.02 1160.97,211.83 1159.55,214.73 1163.18,217.72 1165.93,215.56 1167.04,216.17 1168.58,219.48 1171.62,220.33 1172.54,223.56 1176.67,221.42 1176.66,225 1174.65,226.39 1174.67,227.38 1177.75,230.8 1179.81,234.73 1184.66,236.04 1184.22,239.14 1189.18,239.49 1189.58,241.63 1192.12,244.9 1191.64,255.77 1194.49,255.71 1194.08,257.33 1194.98,258.69 1198.13,260.67 1199.64,257.83 1202.38,257.52 1200.28,261.52 1203.9,262.94 1204.67,264.46 1201.88,266.6 1202.51,267.99 1201.23,269.4 1204.58,277.81 1208.01,277.31 1208.67,284.22 1209.98,280.92 1212.48,279.11 1214.63,283.92 1219.01,283.09 1224.41,284.79 1227.11,282.69 1232.43,286.3 1234.68,286.01 1235.71,282.47 1236.93,283.22 1239.32,282.38 1241.5,283.4 1244.87,277.3 1245.2,273.6 1246.64,276.95 1249.14,277.8 1251.63,277.33 1253.73,274.82 1255.72,275.29 1256.94,277.26 1255.64,281.04 1258.65,282.67 1262.3,286.35 1265.08,285.7 1267.27,287.53 1270.57,288.51 1271.38,291.94 1273.78,292.4 1274.71,293.52 1274,296.31 1275.9,299.79 1274.89,304.27 1276.52,305.03 1279.91,303.04 1282.48,304.18 1284.24,306.95 1285.2,312.75 1287.41,314.44 1289.48,312.61 1290.28,315.93 1291.85,318.31 1296.22,322.36 1294.86,324.38 1298.53,327.22 1301.61,332.06 1306.88,338.07 1307.69,340.93 1305.66,345.85 1305.82,347.32 1308.61,348.71 1311.71,353.54 1309.7,359.54 1315.68,355.47 1316.78,356.28 1314.17,362.35 1319.86,359.18 1321.63,359.88 1322.19,361.3 1321.62,362.92 1320.03,364.21 1321.63,365.64 1324.59,365.78 1325.43,372.98 1326.09,375 1327.57,375.79 1329.5,367.73 1332.27,365.39 1333.76,365.42 1335.2,366.62 1331.65,367.65 1333.96,370.08 1340.45,371.79 1340.66,376.39 1339.93,377.38 1338.12,377.49 1337.82,378.92 1339.07,380.58 1342.75,381.4 1342.98,382.68 1340.12,384.31 1340.15,385.29 1345.99,386.15 1346.6,387.69 1345.11,390.78 1345.53,393 1347.25,391.74 1346.37,395.93 1348.14,399.68 1344.97,406.07 1344.77,408.73 1346.25,411.82 1350.25,410.03 1354.61,412.5 1357.8,410.3 1359.01,413.52 1362.38,412.78 1364.42,413.18 1363.09,416.1 1365.36,417 1364.69,419.99 1368.61,417.86 1370.23,418.26 1372.76,421.65 1378.93,421.39 1380.57,422.14 1379.65,426.58 1380.01,430.67 1374,434.52 1380.76,440.25 1382.54,440.42 1385.03,437.65 1384.97,443.21 1388.31,445.87 1388.21,447.79 1384.86,451.94 1389.24,450.68 1389.07,456.48 1390.4,459.39 1390.58,465.03 1392.3,469.3 1392.29,471.38 1389.5,474.65 1388.88,476.56 1389.47,481.21 1385.54,485.75 1391.26,493.84 1392.6,497.14 1391.34,500.15 1395.05,501.97 1395.6,505.87 1393.91,509.14 1394.06,512.96 1392.84,517.23 1396.19,519.11 1397.54,523.57 1394.95,525.35 1391.43,536.86 1390.32,537.56 1386.97,537.04 1384.61,538.43 1383.87,540.14 1384.84,541.55 1391.31,542.08 1393.39,544 1393.41,544.88 1390.26,552.71 1385.78,552.4 1387.12,559.63 1384.25,568.35 1380.69,569.52 1380.8,577.03 1380.29,579.85 1378.48,582.01 1380.07,585.02 1379.96,589.36 1377.3,596.46 1375.9,597.89 1373.33,598.1 1375.1,605.24 1374.57,612.87 1377.62,619.31 1376.37,620.69 1381.05,628.14 1378.35,631.56 1379.04,634.46 1382.91,637.97 1383.9,640.76 1381.12,648.6 1383.17,654.3 1376.4,658.38 1377.2,660.79 1376.29,662.36 1370.65,664.17 1369.26,665.66 1368.54,667.86 1368.75,671.52" fill="none" stroke="#1e1e1e" stroke-width="1.09" stroke-linecap="round" stroke-linejoin="round"/>
<polyline points="1871.28,577.7 1880.1,563.1 1886.32,557.91 1906.75,553.15 1912.28,553.87 1921.95,556.78" fill="none" stroke="#1e1e1e" stroke-width="1.09" stroke-linecap="round" stroke-linejoin="round"/>
<polyline points="1635.86,775.16 1635.48,772.15 1637.02,769.23 1640.15,766.9 1648.6,764.11 1653.3,756.32 1657.97,754.07 1662.79,747.71 1672.06,738.79 1674.71,737.74 1675.53,735.84 1679.86,732.65 1682.95,728.29 1684.73,727.27 1690.69,726.84 1699.56,717.54 1704.22,715.17 1707.61,720.72 1709.32,719.16 1709.51,717.19 1706.47,711.38 1707.81,709.26 1711.51,707.98 1714.46,708.21 1721.41,710.82 1729.32,706.12 1735.64,704.64 1739.12,701.31 1744.15,702.9 1749.31,701.59 1756.92,701.91 1771.89,699.19 1784.04,694.84 1786.13,693.1 1798.49,682.43 1813.85,663.67 1815.23,659.79 1822.71,652.59 1823.63,648.29 1825.99,645.94 1827.4,637.35 1825.75,635.52 1829.62,624.73 1829.5,619.25 1830.55,614.29 1838.14,605.79 1843.31,602.4 1847.4,602.79 1862.23,587.69 1869.27,582.76 1871.28,577.7" fill="none" stroke="#1e1e1e" stroke-width="1.09" stroke-linecap="round" stroke-linejoin="round"/>
<polyline points="1984.62,1188.16 1982.18,1191.39 1979.5,1197.9 1977.33,1199.71 1969.16,1201.36 1961.46,1207.12 1959.25,1210.4 1951.19,1213.21 1946.89,1216.45 1943.6,1222.38" fill="none" stroke="#1e1e1e" stroke-width="1.09" stroke-linecap="round" stroke-linejoin="round"/>
<polyline points="1792.82,1235.52 1793.57,1233.89 1792.88,1230.44 1796.55,1222.83 1796.85,1216.93 1796.23,1207.79 1794.92,1202.31 1796.79,1191.01 1794.24,1179.5 1794.24,1173.14 1796.25,1169.01 1797.58,1158.43 1795.67,1151.12 1796.41,1148.45 1800.39,1145.37 1801.97,1142.68 1802.02,1136.61 1801.08,1131.75 1801.86,1130.69 1798.04,1126.68 1794.42,1124.6 1790.3,1124.67 1776.81,1130.58 1772.69,1133.74 1770.18,1132.89 1765.59,1129.7 1762.88,1129.7 1762.34,1126.34 1763.72,1119.25 1766.59,1112.59 1767.68,1106.56 1769.47,1102.3 1771.44,1091.63 1771.77,1088.31 1770.56,1081.95 1767.56,1077.92 1763.47,1075.63 1753.84,1072.42 1746.29,1065.7 1741.68,1062.8 1736.98,1061.17 1733.93,1061.92 1728.73,1055.07 1724.68,1053.17 1722.05,1053.46 1721.3,1054.55 1721.91,1057.8 1720.84,1059.37 1713.24,1056.99 1710.24,1059.1 1702.72,1058.72 1700.94,1059.28 1698.99,1062.91 1692.43,1064.09 1690.45,1065.56 1690.52,1066.54 1692.88,1068.1 1692.09,1069.86 1687.3,1073.79 1683.7,1074.49 1683.69,1079.98 1682.49,1085.02 1678.56,1087.09 1671.25,1108.21 1665.26,1112.39 1655.92,1125.08 1652.39,1127.52 1651.38,1129.65 1648.08,1131.1 1647.79,1133.7 1649.25,1135.97 1644.01,1137.77 1641.42,1137.41 1638.99,1135.65 1637.91,1139.41 1638.74,1143.82 1642.72,1150.81 1647.89,1152.26 1648.76,1153.43 1650.08,1157.31 1652.37,1159.72 1651.85,1161.43 1653.95,1169.68 1653.31,1173.98 1651.03,1177.15 1651.33,1180.59 1649.95,1182.66 1647.14,1182.85 1645.56,1188.44 1641.14,1194.23 1637.96,1195.75 1630.96,1194.32 1627.77,1194 1628.55,1195.03 1623.86,1194.25 1621.62,1191.7 1617.63,1190.77 1615.07,1186.55 1613.09,1185.01 1610.37,1185.03 1600.04,1190.98 1594.43,1189.12 1584.37,1192.68 1568.67,1192.17 1566.45,1193.31 1564.79,1199.5 1557.58,1206.11 1556.19,1209.34 1553.22,1212.29 1552.65,1214.62 1552.95,1222.84 1554.67,1224.2 1553.97,1225.76 1554.34,1228.45 1558.57,1238.92 1557.82,1242.15 1561.97,1243.27 1561.71,1245.14 1558.45,1251.39" fill="none" stroke="#1e1e1e" stroke-width="1.09" stroke-linecap="round" stroke-linejoin="round"/>
<polyline points="1524.02,1253.26 1521.96,1248.82 1514.7,1243.61 1512.75,1238.44 1508.38,1233.96 1506.02,1232.81 1497.04,1231.96 1497.43,1234.15 1500.73,1236.95 1501.23,1239.03 1500.69,1240.35 1499.43,1240.75 1497.73,1240.07 1493.56,1234.05 1491.11,1233.56 1488.63,1234.51 1488.3,1236.17 1489.88,1240.46 1489.9,1244.96 1488.52,1244.93 1482.74,1241.78 1472.26,1241.84 1471.03,1243.44 1472.75,1246.33 1470.16,1246.86 1467.92,1252.49 1459.31,1254.88 1458.28,1256.49" fill="none" stroke="#1e1e1e" stroke-width="1.09" stroke-linecap="round" stroke-linejoin="round"/>
<polyline points="1370.38,1260.14 1369.83,1256.41 1368.38,1254.54 1363.91,1252.86 1358.34,1253.06 1353.11,1250.29 1348.43,1251.44 1346.25,1255 1345.02,1255.51 1343.06,1253.9 1340.68,1247.98 1337.99,1246.77 1335.62,1247.5 1329.9,1253.15 1325.39,1256.23 1317.18,1258.1 1312.88,1261.1 1310.33,1261.69 1307.71,1260.71 1304.16,1253.43 1301.78,1251.37 1294.23,1248.15 1291.02,1239.75 1280.3,1233.71 1274.75,1233.74 1264.23,1236.52 1249.21,1237.59 1244.57,1240.58 1240.03,1240.3 1232.36,1237.25 1226.63,1237.28 1222.52,1239.33 1218.82,1243.16 1216.67,1244.21 1212.25,1240.42 1201.63,1243.62 1198.59,1243.38 1194.3,1239.75 1189.75,1237.24 1183.35,1237.05 1181.02,1235.91 1173.59,1227.96 1147.64,1218.67 1144.61,1216.14 1140.78,1209.87 1130.92,1206.05 1123.79,1205.14 1118.32,1200.17 1112.59,1196.43 1104.95,1194.85 1101.85,1192.33 1095.44,1189.9 1084.48,1190.38 1079.66,1187.72 1076.6,1179 1073.62,1174.11 1065.83,1156.51 1062.6,1151.07 1058.95,1147.26 1049.95,1141.28 1041.75,1133.42 1037.37,1131.14 1032.4,1130.49 1012.12,1122.54 1004.38,1118.28 999.93,1116.92 994.2,1111.76 986.59,1109.21 977.41,1101.18 967.34,1084.65 955.66,1075.02 953.03,1071.47 946.66,1054.52 943.83,1049.78 933.25,1040.23 932.36,1037.59 931.67,1026.13 925.93,1017.7 925.05,1013.13 922.38,1009.8 920.21,1008.28 914.84,1007.25 911.74,1004.51 908.46,1002.92 904.22,994.31 900.86,990.22 896.58,987.35 886.58,983.17 882.59,980.08 876.7,971.28 872.23,968.09 866.82,967.03 863.99,963.68 860.18,962.14 853.22,955.97 850.88,955.69 844.06,956.91 837.94,954.56 834.49,955.67 830.06,954.53 827.05,951.71 822.78,943.53 824.05,939.57 824.58,932.86 823.98,922.74 816.79,917.66 815.23,912.14 811.97,907.67 809.7,906.76 800.2,906.57 797.97,905.34 792.5,894.14 783.11,888.55 782.39,883.98 776.21,877.56 775.4,875.69 775.22,870.09 773.36,865.32 765.66,855.09 762.58,839.71 764.78,831.4 764.45,828.32 761.24,820.85 760.53,811.19 756.99,802.77 756.2,793.96 755.18,792.64 746.21,787.16 741.05,785.44 738.73,783.59 736.65,777.61 732.71,772.03 729.31,760 724.62,753.88 722.7,748.83 721.64,742.2 717.43,727.08 718.27,726.03 717.54,710.73 709.1,694.57 707.05,692.17 683.34,673.42 674.04,669 659.59,665.22 657.11,666.34 655.53,669.32 654.3,674.38 651.28,673.86 646.26,670.03 643.63,669.03 642.69,667.91 640.66,660.12 633.87,651.33 631.87,650.06 623.24,647.51 616.32,639.79 611.03,637.58 586.44,613.28 583.11,609.14 577.88,595.93 576.22,594.87 568.84,593.79 567.02,592.47 562.85,584.89 561.84,581.13 558.38,574.2 558.53,564.7 557.06,563.37 546.46,560.88 542.24,557.53 539.49,552.51 538.77,542.77 537.61,540.14 517.15,519.26 512.26,515.98 508.46,514.49 504.43,510.99 502.08,509.93 492.84,511.49 490.04,511.15 487.63,510.43 474.23,502.41 470.56,499.48 461.31,485.31 453.28,478.32 452.18,472.33 449.8,471.97 446.33,473.02 443.99,470.76 442.96,468.33 438.71,466.58 438.5,463.89 442.89,457.44 444.02,448.02 442.97,445.09 438.63,442.16 434,441.43 431.31,439.13 434.54,426.69 428.98,411.42 426.21,409.45 425.28,406.87 425.8,403.88 428.67,401.96 429.68,394.49 427.64,376.83 423.42,372.41 422.98,368.71 424.51,366.61 424.95,360.63 423.64,357.49 419.42,352.37 418.88,346.56 414.64,342.09 413.19,339.35 414.53,331.6 414.23,328.79 416.9,324.76 417.74,320.65 423.6,314.4 423.62,305.98 421.53,303.48 417.97,295.89 414.84,291.22 410.85,287.73 400.09,283.58 395.17,279.35 391.67,278.25 377.6,277.31 374.94,275.71 373.05,267.78 374.92,259.45 374.11,250.76 377.94,243.84 378.37,241.34 373.34,231.98 370.58,228.92 368.67,221.22 355.87,203.92 354.4,201.12 354.34,196.63" fill="none" stroke="#1e1e1e" stroke-width="1.09" stroke-linecap="round" stroke-linejoin="round"/>
<polyline points="424.51,366.61 427.67,363.2 427.59,357.98 422.62,344.49 419.62,340.73 419.16,337.84 419.58,335.77 422.36,332.6 422.67,327.77 426.78,328.13 430.61,330.02 432.87,329.84 437.13,326.61 443.59,323.25 444.68,321.64 445.76,315.67 444.73,309.18 446.05,299.28 442.2,292.13 435.5,286.19 433.09,285.99 431.55,284.72 431.14,281.76 426.24,270.44 427.29,267.98 431.64,262.87 434.15,262.12 436.55,258.86 443.02,256.74 448.41,253.11 451.54,252.59 460.69,253.14 466.81,252.25 475.32,248.07 478.37,244.65" fill="none" stroke="#1e1e1e" stroke-width="1.09" stroke-linecap="round" stroke-linejoin="round"/>
<text x="714.54" y="833.2" font-family="sans-serif" font-size="14" stroke="#ffffff" stroke-opacity="0.784" stroke-width="2.33" stroke-linejoin="round" paint-order="stroke" fill="#141414">Amu Darya</text>
<text x="1210.77" y="283.19" font-family="sans-serif" font-size="14" stroke="#ffffff" stroke-opacity="0.784" stroke-width="2.33" stroke-linejoin="round" paint-order="stroke" fill="#141414">Syr Darya</text>
<text x="1200.77" y="875.28" font-family="sans-serif" font-size="14" stroke="#ffffff" stroke-opacity="0.784" stroke-width="2.33" stroke-linejoin="round" paint-order="stroke" fill="#141414">Zarafshon</text>
<text x="1666.21" y="1080.81" font-family="sans-serif" font-size="14" stroke="#ffffff" stroke-opacity="0.784" stroke-width="2.33" stroke-linejoin="round" paint-order="stroke" fill="#141414">Panj</text>
<text x="1735.06" y="708.07" font-family="sans-serif" font-size="14" stroke="#ffffff" stroke-opacity="0.784" stroke-width="2.33" stroke-linejoin="round" paint-order="stroke" fill="#141414">Naryn</text>
<text x="133.14" y="1166.32" font-family="sans-serif" font-size="14" stroke="#ffffff" stroke-opacity="0.784" stroke-width="2.33" stroke-linejoin="round" paint-order="stroke" fill="#141414">Atrek</text>
<text x="392.81" y="298.78" font-family="sans-serif" font-size="14" stroke="#ffffff" stroke-opacity="0.784" stroke-width="2.33" stroke-linejoin="round" paint-order="stroke" fill="#141414">Amu Darya</text>
<text x="496.45" y="1195.44" font-family="sans-serif" font-size="14" stroke="#ffffff" stroke-opacity="0.784" stroke-width="2.33" stroke-linejoin="round" paint-order="stroke" fill="#141414">Harirud</text>
<text x="1566.15" y="800.79" font-family="sans-serif" font-size="14" stroke="#ffffff" stroke-opacity="0.784" stroke-width="2.33" stroke-linejoin="round" paint-order="stroke" fill="#141414">Syr Darya</text>
<text x="1866.77" y="563.31" font-family="sans-serif" font-size="14" stroke="#ffffff" stroke-opacity="0.784" stroke-width="2.33" stroke-linejoin="round" paint-order="stroke" fill="#141414">Naryn</text>
<text x="1939.32" y="1211.98" font-family="sans-serif" font-size="14" stroke="#ffffff" stroke-opacity="0.784" stroke-width="2.33" stroke-linejoin="round" paint-order="stroke" fill="#141414">Pamir</text>
</svg>
