<?xml version="1.0" encoding="UTF-8" standalone="no"?>
<svg xmlns="http://www.w3.org/2000/svg" width="2000" height="1706" viewBox="0 0 2000 1706">
<rect width="2000" height="1706" fill="#ffffff"/>
<path d="M842.61,299.91L850.18,305.72L851.72,308.39L850.59,315.55L849.19,317.87L847.18,317.61L846.45,315.42L845.33,314.73L840.66,315.71L836.37,315.22L835.63,315.69L835.2,318.14L833.04,318.86L826.71,316.23L817.95,319L813.71,316.46L814.17,310.28L817.21,305.3L819.32,303.38L825.41,302.1L827,300.13L830.93,299.63L836.18,296.93L838.6,297.2L837.57,298.91L837.84,299.9L840.92,299.39L842.61,299.91Z" fill-rule="evenodd" fill="#4682b4" fill-opacity="0.471"/>
<polyline points="842.61,299.91 850.18,305.72 851.72,308.39 850.59,315.55 849.19,317.87 847.18,317.61 846.45,315.42 845.33,314.73 840.66,315.71 836.37,315.22 835.63,315.69 835.2,318.14 833.04,318.86 826.71,316.23 817.95,319 813.71,316.46 814.17,310.28 817.21,305.3 819.32,303.38 825.41,302.1 827,300.13 830.93,299.63 836.18,296.93 838.6,297.2 837.57,298.91 837.84,299.9 840.92,299.39 842.61,299.91" fill="none" stroke="#1e1e1e" stroke-width="1.17" stroke-linecap="round" stroke-linejoin="round"/>
<path d="M1516.37,683.62L1514.2,683.38L1509.6,684.49L1506.51,683.69L1510.46,683.67L1508.83,681.23L1515.34,676.13L1519.49,675.2L1520.25,674.21L1519.6,672.93L1514.31,671.73L1519.78,670.57L1518.68,669.13L1517.22,668.66L1515.29,669.71L1516.18,657.7L1522.93,662.54L1531.09,663.55L1528.87,665.58L1525.21,666.68L1529.05,669.39L1535.28,668.54L1545.86,663.44L1545.89,666.53L1553.26,661.68L1555.78,661.4L1555.33,663.55L1555.92,664.91L1559.76,665.31L1556.83,668.33L1562.74,669.36L1562.63,670.65L1561.4,671.6L1558.84,672.39L1550.8,668.08L1546.99,669.48L1550.01,669.63L1550.27,671.12L1547.03,675.43L1555.02,678.37L1553.41,679.24L1548.48,678.42L1547.06,678.86L1544.03,682.44L1543.3,680.99L1540.55,680.62L1538.49,683.04L1538.91,685.48L1541.09,684.43L1545.24,685.6L1545.16,688.47L1546.05,688.47L1546.04,687.48L1548.02,688.45L1548.98,686.39L1549.88,686.51L1549.99,687.45L1551.04,686.37L1550.47,688.86L1549.01,690.42L1551.5,690.74L1553.85,689.69L1557.95,686.32L1557.98,690.35L1563.89,688.33L1562.42,690.74L1552,694.38L1552,695.36L1557.04,696.23L1554.86,696.29L1553.1,697.37L1555.09,698.56L1555.18,700.31L1549.67,698.68L1549.06,699.16L1549.1,701.39L1547.55,701.53L1546.68,704.53L1547.26,708.25L1550.16,710.37L1551.22,710.37L1548.76,716.47L1549.57,719.12L1554.66,721.65L1553.39,724.88L1549.31,730.26L1542.86,742.95L1538.6,748.25L1536.5,754.22L1534.87,763.96L1528.89,769.36L1528.93,774.32L1526.99,779.82L1527.84,782.26L1535.99,783.31L1538.83,784.54L1539.95,786.46L1539.42,796.44L1537.85,797.22L1531.85,793.2L1529.04,790.22L1524.61,789.44L1521.99,782.86L1522.73,778.7L1520.76,776.78L1518.19,776.84L1516.57,773.43L1519.48,770.88L1519.96,768.48L1517.97,758.42L1519.49,756.57L1524.68,754.13L1534.6,740.78L1536.5,740L1538.55,741.35L1542.96,736.22L1546.36,730.28L1544.39,728.76L1545.43,726.31L1542.28,725.34L1544.48,721.26L1544.3,719.37L1542.25,720.29L1542.19,718.75L1542.52,717.59L1544.28,716.42L1535.49,714.38L1537.41,712.74L1541.91,712.84L1542.17,710.43L1539.28,706.64L1540.08,703.51L1538.24,698.38L1536.84,701.99L1535.71,700.63L1535.34,696.9L1536.23,693.42L1531.26,693.5L1527.47,694.56L1526.57,696.96L1524.35,698.48L1525.44,699.54L1523.81,700.97L1523.9,703.71L1522.45,705.52L1518.03,700.11L1514.5,699.62L1514.49,698.55L1517.27,697.63L1519.04,695.48L1519.49,692.69L1518.38,689.74L1520.9,688.73L1520.34,686.6L1523.37,686.57L1523.37,685.63L1517.47,686.62L1515.89,685.77L1516.37,683.62Z" fill-rule="evenodd" fill="#4682b4" fill-opacity="0.471"/>
<polyline points="1516.37,683.62 1514.2,683.38 1509.6,684.49 1506.51,683.69 1510.46,683.67 1508.83,681.23 1515.34,676.13 1519.49,675.2 1520.25,674.21 1519.6,672.93 1514.31,671.73 1519.78,670.57 1518.68,669.13 1517.22,668.66 1515.29,669.71 1516.18,657.7 1522.93,662.54 1531.09,663.55 1528.87,665.58 1525.21,666.68 1529.05,669.39 1535.28,668.54 1545.86,663.44 1545.89,666.53 1553.26,661.68 1555.78,661.4 1555.33,663.55 1555.92,664.91 1559.76,665.31 1556.83,668.33 1562.74,669.36 1562.63,670.65 1561.4,671.6 1558.84,672.39 1550.8,668.08 1546.99,669.48 1550.01,669.63 1550.27,671.12 1547.03,675.43 1555.02,678.37 1553.41,679.24 1548.48,678.42 1547.06,678.86 1544.03,682.44 1543.3,680.99 1540.55,680.62 1538.49,683.04 1538.91,685.48 1541.09,684.43 1545.24,685.6 1545.16,688.47 1546.05,688.47 1546.04,687.48 1548.02,688.45 1548.98,686.39 1549.88,686.51 1549.99,687.45 1551.04,686.37 1550.47,688.86 1549.01,690.42 1551.5,690.74 1553.85,689.69 1557.95,686.32 1557.98,690.35 1563.89,688.33 1562.42,690.74 1552,694.38 1552,695.36 1557.04,696.23 1554.86,696.29 1553.1,697.37 1555.09,698.56 1555.18,700.31 1549.67,698.68 1549.06,699.16 1549.1,701.39 1547.55,701.53 1546.68,704.53 1547.26,708.25 1550.16,710.37 1551.22,710.37 1548.76,716.47 1549.57,719.12 1554.66,721.65 1553.39,724.88 1549.31,730.26 1542.86,742.95 1538.6,748.25 1536.5,754.22 1534.87,763.96 1528.89,769.36 1528.93,774.32 1526.99,779.82 1527.84,782.26 1535.99,783.31 1538.83,784.54 1539.95,786.46 1539.42,796.44 1537.85,797.22 1531.85,793.2 1529.04,790.22 1524.61,789.44 1521.99,782.86 1522.73,778.7 1520.76,776.78 1518.19,776.84 1516.57,773.43 1519.48,770.88 1519.96,768.48 1517.97,758.42 1519.49,756.57 1524.68,754.13 1534.6,740.78 1536.5,740 1538.55,741.35 1542.96,736.22 1546.36,730.28 1544.39,728.76 1545.43,726.31 1542.28,725.34 1544.48,721.26 1544.3,719.37 1542.25,720.29 1542.19,718.75 1542.52,717.59 1544.28,716.42 1535.49,714.38 1537.41,712.74 1541.91,712.84 1542.17,710.43 1539.28,706.64 1540.08,703.51 1538.24,698.38 1536.84,701.99 1535.71,700.63 1535.34,696.9 1536.23,693.42 1531.26,693.5 1527.47,694.56 1526.57,696.96 1524.35,698.48 1525.44,699.54 1523.81,700.97 1523.9,703.71 1522.45,705.52 1518.03,700.11 1514.5,699.62 1514.49,698.55 1517.27,697.63 1519.04,695.48 1519.49,692.69 1518.38,689.74 1520.9,688.73 1520.34,686.6 1523.37,686.57 1523.37,685.63 1517.47,686.62 1515.89,685.77 1516.37,683.62" fill="none" stroke="#1e1e1e" stroke-width="1.17" stroke-linecap="round" stroke-linejoin="round"/>
<path d="M923.48,357.22L921.33,354.9L922.7,354.55L924.84,351.68L928.67,351.51L929.13,352.5L926.04,354.21L925.94,356.14L931.54,356.79L934.73,355.38L938.24,357.53L941.33,356.29L942.43,357.66L946.55,355.39L947.29,357.02L943.9,361.1L946.95,360.11L948.07,360.24L948.28,361.57L941.26,367.53L936.16,369.33L934.51,362.8L933.5,362.42L930.48,363.32L928.09,362.71L928.11,361.77L930.18,360.53L930.08,358.64L928.68,357.99L925.32,358.68L923.48,357.22Z" fill-rule="evenodd" fill="#4682b4" fill-opacity="0.471"/>
<polyline points="923.48,357.22 921.33,354.9 922.7,354.55 924.84,351.68 928.67,351.51 929.13,352.5 926.04,354.21 925.94,356.14 931.54,356.79 934.73,355.38 938.24,357.53 941.33,356.29 942.43,357.66 946.55,355.39 947.29,357.02 943.9,361.1 946.95,360.11 948.07,360.24 948.28,361.57 941.26,367.53 936.16,369.33 934.51,362.8 933.5,362.42 930.48,363.32 928.09,362.71 928.11,361.77 930.18,360.53 930.08,358.64 928.68,357.99 925.32,358.68 923.48,357.22" fill="none" stroke="#1e1e1e" stroke-width="1.17" stroke-linecap="round" stroke-linejoin="round"/>
<path d="M894.53,468.72L894.95,469.71L892.62,473.3L889.92,475.4L891.76,478.02L888.68,482.6L888.26,486.42L883.85,487.91L881.27,486.75L880.34,485.38L877.22,472.59L881.05,462.95L882.13,463.08L882.76,466.64L883.86,465.4L883.72,461.71L882.52,457.85L885.29,460.21L889.78,460.86L892.52,464.04L892.67,468.76L894.53,468.72Z" fill-rule="evenodd" fill="#4682b4" fill-opacity="0.471"/>
<polyline points="894.53,468.72 894.95,469.71 892.62,473.3 889.92,475.4 891.76,478.02 888.68,482.6 888.26,486.42 883.85,487.91 881.27,486.75 880.34,485.38 877.22,472.59 881.05,462.95 882.13,463.08 882.76,466.64 883.86,465.4 883.72,461.71 882.52,457.85 885.29,460.21 889.78,460.86 892.52,464.04 892.67,468.76 894.53,468.72" fill="none" stroke="#1e1e1e" stroke-width="1.17" stroke-linecap="round" stroke-linejoin="round"/>
<text x="1460.81" y="718.94" font-family="sans-serif" font-size="14" stroke="#ffffff" stroke-opacity="0.784" stroke-width="2.33" stroke-linejoin="round" paint-order="stroke" fill="#141414">Embalse de Guri</text>
<text x="754.69" y="316.08" font-family="sans-serif" font-size="14" stroke="#ffffff" stroke-opacity="0.784" stroke-width="2.33" stroke-linejoin="round" paint-order="stroke" fill="#141414">Lago de Valencia</text>
<text x="795.39" y="480.48" font-family="sans-serif" font-size="14" stroke="#ffffff" stroke-opacity="0.784" stroke-width="2.33" stroke-linejoin="round" paint-order="stroke" fill="#141414">Embalse de Guárico</text>
<text x="886.91" y="367.37" font-family="sans-serif" font-size="14" stroke="#ffffff" stroke-opacity="0.784" stroke-width="2.33" stroke-linejoin="round" paint-order="stroke" fill="#141414">Camatague</text>
</svg>
