<?xml version="1.0" encoding="UTF-8" standalone="no"?>
<svg xmlns="http://www.w3.org/2000/svg" width="1003" height="2000" viewBox="0 0 1003 2000">
<rect width="1003" height="2000" fill="#ffffff"/>
<path d="M398.98,903.94L389.52,897.67L386.62,892.75L377.95,890.31L376.36,884.3L377.92,877.73L392.36,874.96L395.5,871.67L411.53,871.64L430.95,856.02L434.61,845.62L444.07,845.06L450.39,855.72L450.13,861.47L456.98,878.15L458.3,884.99L462.76,885.53L479.58,897.01L480.37,907.95L474.07,913.42L463.57,915.89L454.38,913.99L449.4,916.18L441.79,915.64L435.23,919.2L409.49,909.94L406.6,905.84L398.98,903.94Z" fill-rule="evenodd" fill="#4682b4" fill-opacity="0.471"/>
<polyline points="398.98,903.94 389.52,897.67 386.62,892.75 377.95,890.31 376.36,884.3 377.92,877.73 392.36,874.96 395.5,871.67 411.53,871.64 430.95,856.02 434.61,845.62 444.07,845.06 450.39,855.72 450.13,861.47 456.98,878.15 458.3,884.99 462.76,885.53 479.58,897.01 480.37,907.95 474.07,913.42 463.57,915.89 454.38,913.99 449.4,916.18 441.79,915.64 435.23,919.2 409.49,909.94 406.6,905.84 398.98,903.94" fill="none" stroke="#1e1e1e" stroke-width="1.44" stroke-linecap="round" stroke-linejoin="round"/>
<path d="M487.47,963.48L479.86,956.09L484.06,950.62L491.4,950.35L496.12,958.83L492.72,964.02L487.47,963.48Z" fill-rule="evenodd" fill="#4682b4" fill-opacity="0.471"/>
<polyline points="487.47,963.48 479.86,956.09 484.06,950.62 491.4,950.35 496.12,958.83 492.72,964.02 487.47,963.48" fill="none" stroke="#1e1e1e" stroke-width="1.44" stroke-linecap="round" stroke-linejoin="round"/>
<path d="M454.68,954.2L459.13,936.69L466.21,935.86L465.7,951.18L462.03,957.47L454.68,954.2Z" fill-rule="evenodd" fill="#4682b4" fill-opacity="0.471"/>
<polyline points="454.68,954.2 459.13,936.69 466.21,935.86 465.7,951.18 462.03,957.47 454.68,954.2" fill="none" stroke="#1e1e1e" stroke-width="1.44" stroke-linecap="round" stroke-linejoin="round"/>
<path d="M183.71,818.63L186.3,813.15L181.75,798.68L183.02,791.83L195.09,785.46L205.09,787.32L215.39,793.28L223.56,795.98L222.26,799.26L227.06,810.46L234.18,814.52L242.92,827.34L238.22,834.47L248.01,846.73L257.23,852.71L268.27,853.21L265.68,860.6L270.41,861.4L287.29,877.47L293.6,877.99L298.34,881.8L300.2,887.27L308.63,892.43L319.17,903.07L340.73,915.3L344.72,932.25L352.34,935.79L356.04,945.35L350.28,950.29L344.51,951.13L343.48,956.33L338.25,961.27L338.27,967.29L333.29,967.3L326.18,958.85L312.79,955.88L300.73,955.93L295.73,951.3L287.64,962L289.76,968.28L285.05,970.49L279.01,968.05L277.21,977.09L271.96,973.83L257.53,973.07L253.31,966.8L247.78,962.72L247.23,956.43L253.24,952.03L252.41,943.55L243.18,934.57L242.86,921.99L239.18,920.64L236.51,911.08L237.48,896.3L241.14,893L236.62,881.53L238.66,870.03L229.7,863.51L225.72,856.7L223.31,848.5L213.87,852.38L211.01,857.87L202.9,863.93L194.46,858.78L185.77,856.1L182.3,846.82L177.02,842.75L178.52,830.43L181.91,826.3L183.71,818.63Z" fill-rule="evenodd" fill="#4682b4" fill-opacity="0.471"/>
<polyline points="183.71,818.63 186.3,813.15 181.75,798.68 183.02,791.83 195.09,785.46 205.09,787.32 215.39,793.28 223.56,795.98 222.26,799.26 227.06,810.46 234.18,814.52 242.92,827.34 238.22,834.47 248.01,846.73 257.23,852.71 268.27,853.21 265.68,860.6 270.41,861.4 287.29,877.47 293.6,877.99 298.34,881.8 300.2,887.27 308.63,892.43 319.17,903.07 340.73,915.3 344.72,932.25 352.34,935.79 356.04,945.35 350.28,950.29 344.51,951.13 343.48,956.33 338.25,961.27 338.27,967.29 333.29,967.3 326.18,958.85 312.79,955.88 300.73,955.93 295.73,951.3 287.64,962 289.76,968.28 285.05,970.49 279.01,968.05 277.21,977.09 271.96,973.83 257.53,973.07 253.31,966.8 247.78,962.72 247.23,956.43 253.24,952.03 252.41,943.55 243.18,934.57 242.86,921.99 239.18,920.64 236.51,911.08 237.48,896.3 241.14,893 236.62,881.53 238.66,870.03 229.7,863.51 225.72,856.7 223.31,848.5 213.87,852.38 211.01,857.87 202.9,863.93 194.46,858.78 185.77,856.1 182.3,846.82 177.02,842.75 178.52,830.43 181.91,826.3 183.71,818.63" fill="none" stroke="#1e1e1e" stroke-width="1.44" stroke-linecap="round" stroke-linejoin="round"/>
<path d="M312.54,665.9L313.57,659.33L331.19,644.22L336.99,642.56L345.15,634.6L368.87,624.69L387.87,619.44L396.85,623.25L389.48,634.49L382.64,642.71L380.55,651.75L360.55,672.04L353.44,674.52L350.01,672.07L339.72,671.55L332.08,673.77L321.79,672.71L312.54,665.9Z" fill-rule="evenodd" fill="#4682b4" fill-opacity="0.471"/>
<polyline points="312.54,665.9 313.57,659.33 331.19,644.22 336.99,642.56 345.15,634.6 368.87,624.69 387.87,619.44 396.85,623.25 389.48,634.49 382.64,642.71 380.55,651.75 360.55,672.04 353.44,674.52 350.01,672.07 339.72,671.55 332.08,673.77 321.79,672.71 312.54,665.9" fill="none" stroke="#1e1e1e" stroke-width="1.44" stroke-linecap="round" stroke-linejoin="round"/>
<path d="M413.87,544.14L414.38,533.47L408.8,517.06L410.39,514.86L420.18,517.86L432.66,557.8L432.94,567.37L437.98,584.88L438.25,590.35L443,592.81L442.22,598.01L445.4,607.58L443.29,612.78L446.74,630.84L446.75,638.23L443.6,650.27L434.89,649.73L433.56,641.25L430.38,635.51L427.73,620.47L429.82,610.61L427.42,592.01L424.24,581.34L419.47,572.59L419.46,565.75L416.54,558.64L416.79,551.8L413.87,544.14Z" fill-rule="evenodd" fill="#4682b4" fill-opacity="0.471"/>
<polyline points="413.87,544.14 414.38,533.47 408.8,517.06 410.39,514.86 420.18,517.86 432.66,557.8 432.94,567.37 437.98,584.88 438.25,590.35 443,592.81 442.22,598.01 445.4,607.58 443.29,612.78 446.74,630.84 446.75,638.23 443.6,650.27 434.89,649.73 433.56,641.25 430.38,635.51 427.73,620.47 429.82,610.61 427.42,592.01 424.24,581.34 419.47,572.59 419.46,565.75 416.54,558.64 416.79,551.8 413.87,544.14" fill="none" stroke="#1e1e1e" stroke-width="1.44" stroke-linecap="round" stroke-linejoin="round"/>
<path d="M452.19,817.7L447.72,812.78L450.08,804.02L448.75,794.45L444.8,785.7L442.68,771.75L443.46,764.36L441.61,758.07L436.07,753.15L434.48,741.12L428.41,729.91L430.51,726.07L427.86,720.06L431.55,715.95L432.06,703.91L435.2,690.23L435.97,669.16L443.35,667.78L441.26,681.46L449.43,684.74L451.03,703.62L447.61,707.72L452.37,720.3L454.48,731.24L457.91,736.71L458.45,744.92L464.25,759.69L464.25,766.25L469,775.01L470.85,787.59L469.8,802.09L470.86,807.01L463.5,819.33L452.19,817.7Z" fill-rule="evenodd" fill="#4682b4" fill-opacity="0.471"/>
<polyline points="452.19,817.7 447.72,812.78 450.08,804.02 448.75,794.45 444.8,785.7 442.68,771.75 443.46,764.36 441.61,758.07 436.07,753.15 434.48,741.12 428.41,729.91 430.51,726.07 427.86,720.06 431.55,715.95 432.06,703.91 435.2,690.23 435.97,669.16 443.35,667.78 441.26,681.46 449.43,684.74 451.03,703.62 447.61,707.72 452.37,720.3 454.48,731.24 457.91,736.71 458.45,744.92 464.25,759.69 464.25,766.25 469,775.01 470.85,787.59 469.8,802.09 470.86,807.01 463.5,819.33 452.19,817.7" fill="none" stroke="#1e1e1e" stroke-width="1.44" stroke-linecap="round" stroke-linejoin="round"/>
<path d="M159.67,721.12L167.81,716.69L182.3,716.32L201.29,720.59L201.07,728.25L196.64,735.12L201.15,741.66L198.03,748.51L190.14,751.02L182.49,747.79L170.86,740.47L164.52,738.32L158.69,731.79L159.67,721.12Z" fill-rule="evenodd" fill="#4682b4" fill-opacity="0.471"/>
<polyline points="159.67,721.12 167.81,716.69 182.3,716.32 201.29,720.59 201.07,728.25 196.64,735.12 201.15,741.66 198.03,748.51 190.14,751.02 182.49,747.79 170.86,740.47 164.52,738.32 158.69,731.79 159.67,721.12" fill="none" stroke="#1e1e1e" stroke-width="1.44" stroke-linecap="round" stroke-linejoin="round"/>
<path d="M188.54,702.33L195.66,703.38L192.02,711.34L175.68,711.99L168.02,709.02L177.69,695.83L183.99,691.42L189.3,696.86L188.54,702.33Z" fill-rule="evenodd" fill="#4682b4" fill-opacity="0.471"/>
<polyline points="188.54,702.33 195.66,703.38 192.02,711.34 175.68,711.99 168.02,709.02 177.69,695.83 183.99,691.42 189.3,696.86 188.54,702.33" fill="none" stroke="#1e1e1e" stroke-width="1.44" stroke-linecap="round" stroke-linejoin="round"/>
<path d="M135.05,704.32L127.93,704.1L114.51,706.38L103.51,715.77L96.42,718.28L96.2,724.58L92.28,728.44L87.28,728.75L75.91,723.64L75.09,719.55L77.36,707.21L65.66,694.72L58.98,684.66L55.74,675.11L42.12,654.98L41.81,650.33L46.98,637.97L45.57,627.31L48.65,617.16L47.8,610.33L38.9,589.06L38,576.75L31.78,560.66L30.03,542.89L22.81,533.37L12.49,504.19L14.55,498.14L15.41,475.97L17.19,467.74L20.85,463.33L20.8,457.58L31.05,448.73L36.67,455.52L42.61,468.88L49.54,474.57L53.33,484.39L58.69,492.28L70.38,498.21L70.97,505.04L77.49,527.16L77.01,532.36L79.99,541.92L79.01,551.78L84.62,559.4L83.91,570.08L87.49,587.83L90.15,590L101.79,592.65L113.94,592.29L121.05,589.5L122.6,584.56L128.63,579.04L131.22,571.91L130.62,561.24L128.75,557.97L132.09,545.09L129.14,538.27L130.67,531.41L140.69,526.14L145.73,529.67L154.61,552.32L155.27,571.75L160.32,577.19L162.48,584.29L169.32,580.69L175.15,583.66L174.39,588.59L180.03,602.79L179.83,613.73L176.16,618.68L185.17,623.28L189.17,630.37L190,637.48L185.54,641.88L184.53,649L189.06,656.09L192.55,667.56L197.06,671.37L195.77,676.02L203.74,686.65L199.79,688.59L183.17,685.67L176.33,689L173.49,698.32L160.65,710.44L150.37,708.87L145.06,703.7L135.05,704.32Z" fill-rule="evenodd" fill="#4682b4" fill-opacity="0.471"/>
<polyline points="135.05,704.32 127.93,704.1 114.51,706.38 103.51,715.77 96.42,718.28 96.2,724.58 92.28,728.44 87.28,728.75 75.91,723.64 75.09,719.55 77.36,707.21 65.66,694.72 58.98,684.66 55.74,675.11 42.12,654.98 41.81,650.33 46.98,637.97 45.57,627.31 48.65,617.16 47.8,610.33 38.9,589.06 38,576.75 31.78,560.66 30.03,542.89 22.81,533.37 12.49,504.19 14.55,498.14 15.41,475.97 17.19,467.74 20.85,463.33 20.8,457.58 31.05,448.73 36.67,455.52 42.61,468.88 49.54,474.57 53.33,484.39 58.69,492.28 70.38,498.21 70.97,505.04 77.49,527.16 77.01,532.36 79.99,541.92 79.01,551.78 84.62,559.4 83.91,570.08 87.49,587.83 90.15,590 101.79,592.65 113.94,592.29 121.05,589.5 122.6,584.56 128.63,579.04 131.22,571.91 130.62,561.24 128.75,557.97 132.09,545.09 129.14,538.27 130.67,531.41 140.69,526.14 145.73,529.67 154.61,552.32 155.27,571.75 160.32,577.19 162.48,584.29 169.32,580.69 175.15,583.66 174.39,588.59 180.03,602.79 179.83,613.73 176.16,618.68 185.17,623.28 189.17,630.37 190,637.48 185.54,641.88 184.53,649 189.06,656.09 192.55,667.56 197.06,671.37 195.77,676.02 203.74,686.65 199.79,688.59 183.17,685.67 176.33,689 173.49,698.32 160.65,710.44 150.37,708.87 145.06,703.7 135.05,704.32" fill="none" stroke="#1e1e1e" stroke-width="1.44" stroke-linecap="round" stroke-linejoin="round"/>
<path d="M497.98,1313.91L490.17,1305.43L484.7,1304.88L475.57,1298.05L481.83,1293.94L474.26,1283.27L465.14,1278.63L453.94,1288.49L451.86,1292.86L444.56,1291.78L441.95,1286.58L448.71,1273.99L450.01,1267.7L460.17,1261.39L463.82,1256.47L464.59,1247.71L471.38,1246.07L473.2,1240.05L481.28,1234.02L484.93,1234.57L488.59,1241.41L501.63,1237.85L504.76,1235.39L515.98,1236.48L521.19,1246.06L529.79,1254L531.87,1265.76L541.52,1273.16L542.55,1278.36L555.06,1280.83L546.45,1293.95L544.88,1307.36L529.5,1315.01L518.56,1311.72L512.57,1316.37L500.33,1316.92L497.98,1313.91Z" fill-rule="evenodd" fill="#4682b4" fill-opacity="0.471"/>
<polyline points="497.98,1313.91 490.17,1305.43 484.7,1304.88 475.57,1298.05 481.83,1293.94 474.26,1283.27 465.14,1278.63 453.94,1288.49 451.86,1292.86 444.56,1291.78 441.95,1286.58 448.71,1273.99 450.01,1267.7 460.17,1261.39 463.82,1256.47 464.59,1247.71 471.38,1246.07 473.2,1240.05 481.28,1234.02 484.93,1234.57 488.59,1241.41 501.63,1237.85 504.76,1235.39 515.98,1236.48 521.19,1246.06 529.79,1254 531.87,1265.76 541.52,1273.16 542.55,1278.36 555.06,1280.83 546.45,1293.95 544.88,1307.36 529.5,1315.01 518.56,1311.72 512.57,1316.37 500.33,1316.92 497.98,1313.91" fill="none" stroke="#1e1e1e" stroke-width="1.44" stroke-linecap="round" stroke-linejoin="round"/>
<path d="M477.11,1231.02L479.72,1234.85L468.24,1240.87L460.16,1241.42L461.72,1234.31L466.67,1233.76L473.19,1229.38L477.11,1231.02Z" fill-rule="evenodd" fill="#4682b4" fill-opacity="0.471"/>
<polyline points="477.11,1231.02 479.72,1234.85 468.24,1240.87 460.16,1241.42 461.72,1234.31 466.67,1233.76 473.19,1229.38 477.11,1231.02" fill="none" stroke="#1e1e1e" stroke-width="1.44" stroke-linecap="round" stroke-linejoin="round"/>
<path d="M511.57,1107.64L502.94,1108.73L494.83,1117.48L486.73,1115.57L486.99,1111.74L494.83,1107.91L501.63,1100.25L507.65,1101.62L511.57,1107.64Z" fill-rule="evenodd" fill="#4682b4" fill-opacity="0.471"/>
<polyline points="511.57,1107.64 502.94,1108.73 494.83,1117.48 486.73,1115.57 486.99,1111.74 494.83,1107.91 501.63,1100.25 507.65,1101.62 511.57,1107.64" fill="none" stroke="#1e1e1e" stroke-width="1.44" stroke-linecap="round" stroke-linejoin="round"/>
<path d="M549.52,1069.09L544.02,1073.46L538.27,1073.18L537.49,1064.15L539.06,1058.14L546.4,1053.49L555.81,1059.52L549.52,1069.09Z" fill-rule="evenodd" fill="#4682b4" fill-opacity="0.471"/>
<polyline points="549.52,1069.09 544.02,1073.46 538.27,1073.18 537.49,1064.15 539.06,1058.14 546.4,1053.49 555.81,1059.52 549.52,1069.09" fill="none" stroke="#1e1e1e" stroke-width="1.44" stroke-linecap="round" stroke-linejoin="round"/>
<path d="M479.1,1003.69L482.77,1006.15L486.96,1017.91L496.65,1027.76L507.39,1030.77L514.73,1025.57L524.15,1032.96L520.74,1046.91L495.61,1035.15L493.51,1032.14L481.2,1032.14L462.09,1042.55L457.12,1039.54L446.12,1037.64L440.08,1030.26L439.02,1018.77L433.78,1012.48L432.98,1004.55L434.54,992.51L441.6,985.39L439.76,974.18L449.46,972.8L457.59,985.1L457.86,990.85L461.53,994.13L461.01,999.05L465.73,1006.16L474.9,1002.87L479.1,1003.69Z" fill-rule="evenodd" fill="#4682b4" fill-opacity="0.471"/>
<polyline points="479.1,1003.69 482.77,1006.15 486.96,1017.91 496.65,1027.76 507.39,1030.77 514.73,1025.57 524.15,1032.96 520.74,1046.91 495.61,1035.15 493.51,1032.14 481.2,1032.14 462.09,1042.55 457.12,1039.54 446.12,1037.64 440.08,1030.26 439.02,1018.77 433.78,1012.48 432.98,1004.55 434.54,992.51 441.6,985.39 439.76,974.18 449.46,972.8 457.59,985.1 457.86,990.85 461.53,994.13 461.01,999.05 465.73,1006.16 474.9,1002.87 479.1,1003.69" fill="none" stroke="#1e1e1e" stroke-width="1.44" stroke-linecap="round" stroke-linejoin="round"/>
<path d="M494.85,1223.08L490.41,1220.62L484.14,1209.13L487.8,1204.48L492.76,1208.85L501.11,1222.53L494.85,1223.08Z" fill-rule="evenodd" fill="#4682b4" fill-opacity="0.471"/>
<polyline points="494.85,1223.08 490.41,1220.62 484.14,1209.13 487.8,1204.48 492.76,1208.85 501.11,1222.53 494.85,1223.08" fill="none" stroke="#1e1e1e" stroke-width="1.44" stroke-linecap="round" stroke-linejoin="round"/>
<path d="M875.22,1951.55L887.01,1958.21L890.3,1964.27L889.73,1971.66L884.27,1980.12L876.29,1980.61L856.77,1977.73L849.4,1965.07L849.96,1957.67L857.21,1951.42L875.22,1951.55Z" fill-rule="evenodd" fill="#4682b4" fill-opacity="0.471"/>
<polyline points="875.22,1951.55 887.01,1958.21 890.3,1964.27 889.73,1971.66 884.27,1980.12 876.29,1980.61 856.77,1977.73 849.4,1965.07 849.96,1957.67 857.21,1951.42 875.22,1951.55" fill="none" stroke="#1e1e1e" stroke-width="1.44" stroke-linecap="round" stroke-linejoin="round"/>
<path d="M659.72,1578.78L656.36,1574.66L660.29,1559.89L658.76,1552.5L665.53,1541.84L670.22,1537.75L688.38,1535.35L697.44,1538.67L704.67,1549.1L704.11,1558.13L708.74,1566.63L714.18,1569.67L726.38,1565.34L732.81,1576.59L716.21,1578.43L714.11,1585.27L721.85,1592.69L730.64,1596.84L741.23,1604L745.87,1610.32L748.67,1619.09L748.13,1625.39L739.8,1634.11L734.09,1637.64L726.33,1635.42L704.63,1623.28L696.86,1624.07L676.69,1615.79L673.6,1611.4L665.58,1609.46L657.82,1604.5L657.07,1596.29L663.57,1590.01L659.72,1578.78Z" fill-rule="evenodd" fill="#4682b4" fill-opacity="0.471"/>
<polyline points="659.72,1578.78 656.36,1574.66 660.29,1559.89 658.76,1552.5 665.53,1541.84 670.22,1537.75 688.38,1535.35 697.44,1538.67 704.67,1549.1 704.11,1558.13 708.74,1566.63 714.18,1569.67 726.38,1565.34 732.81,1576.59 716.21,1578.43 714.11,1585.27 721.85,1592.69 730.64,1596.84 741.23,1604 745.87,1610.32 748.67,1619.09 748.13,1625.39 739.8,1634.11 734.09,1637.64 726.33,1635.42 704.63,1623.28 696.86,1624.07 676.69,1615.79 673.6,1611.4 665.58,1609.46 657.82,1604.5 657.07,1596.29 663.57,1590.01 659.72,1578.78" fill="none" stroke="#1e1e1e" stroke-width="1.44" stroke-linecap="round" stroke-linejoin="round"/>
<path d="M771.18,1772.27L778.37,1779.7L785.08,1779.74L788.39,1787.98L784,1789.05L779.05,1797.24L780.03,1806.28L777.93,1813.12L772.74,1818.84L764.75,1817.71L747.25,1809.4L739.04,1798.95L733.11,1797.01L731.34,1790.7L724.91,1783.55L715.71,1761.33L723.79,1744.66L723.06,1734.8L729.8,1729.35L744.55,1725.58L753.06,1728.63L749.14,1737.11L748.33,1745.04L750.59,1758.47L757,1768.09L770.16,1769.53L771.18,1772.27Z" fill-rule="evenodd" fill="#4682b4" fill-opacity="0.471"/>
<polyline points="771.18,1772.27 778.37,1779.7 785.08,1779.74 788.39,1787.98 784,1789.05 779.05,1797.24 780.03,1806.28 777.93,1813.12 772.74,1818.84 764.75,1817.71 747.25,1809.4 739.04,1798.95 733.11,1797.01 731.34,1790.7 724.91,1783.55 715.71,1761.33 723.79,1744.66 723.06,1734.8 729.8,1729.35 744.55,1725.58 753.06,1728.63 749.14,1737.11 748.33,1745.04 750.59,1758.47 757,1768.09 770.16,1769.53 771.18,1772.27" fill="none" stroke="#1e1e1e" stroke-width="1.44" stroke-linecap="round" stroke-linejoin="round"/>
<path d="M404.89,400.46L404.08,393.89L408.58,390.6L416.54,392.78L413.63,400.45L404.89,400.46Z" fill-rule="evenodd" fill="#4682b4" fill-opacity="0.471"/>
<polyline points="404.89,400.46 404.08,393.89 408.58,390.6 416.54,392.78 413.63,400.45 404.89,400.46" fill="none" stroke="#1e1e1e" stroke-width="1.44" stroke-linecap="round" stroke-linejoin="round"/>
<path d="M243.04,367.06L248.03,356.63L245.08,350.35L244.51,342.14L248.18,332.54L264.61,328.08L272.03,324.49L288.51,329.62L290.67,338.1L294.4,344.38L289.14,355.63L285.22,368.24L277.81,372.65L264.54,371.34L262.15,369.71L248.1,370.87L243.04,367.06Z" fill-rule="evenodd" fill="#4682b4" fill-opacity="0.471"/>
<polyline points="243.04,367.06 248.03,356.63 245.08,350.35 244.51,342.14 248.18,332.54 264.61,328.08 272.03,324.49 288.51,329.62 290.67,338.1 294.4,344.38 289.14,355.63 285.22,368.24 277.81,372.65 264.54,371.34 262.15,369.71 248.1,370.87 243.04,367.06" fill="none" stroke="#1e1e1e" stroke-width="1.44" stroke-linecap="round" stroke-linejoin="round"/>
<path d="M296.46,189.65L304.95,182.23L306.25,175.1L320.89,173.95L322.51,181.34L310.82,187.13L296.46,189.65Z" fill-rule="evenodd" fill="#4682b4" fill-opacity="0.471"/>
<polyline points="296.46,189.65 304.95,182.23 306.25,175.1 320.89,173.95 322.51,181.34 310.82,187.13 296.46,189.65" fill="none" stroke="#1e1e1e" stroke-width="1.44" stroke-linecap="round" stroke-linejoin="round"/>
<path d="M233.32,227.73L234.32,215.68L236.4,206.35L241.16,200.85L252.57,193.13L258.69,192.83L265.09,196.36L277.42,217.12L275.33,226.44L276.43,234.11L283.07,233.8L286.81,237.62L276.2,243.69L257.88,248.43L262.7,256.9L255.55,262.13L250.21,256.95L251.23,247.64L245.89,243.55L234.13,230.19L233.32,227.73Z" fill-rule="evenodd" fill="#4682b4" fill-opacity="0.471"/>
<polyline points="233.32,227.73 234.32,215.68 236.4,206.35 241.16,200.85 252.57,193.13 258.69,192.83 265.09,196.36 277.42,217.12 275.33,226.44 276.43,234.11 283.07,233.8 286.81,237.62 276.2,243.69 257.88,248.43 262.7,256.9 255.55,262.13 250.21,256.95 251.23,247.64 245.89,243.55 234.13,230.19 233.32,227.73" fill="none" stroke="#1e1e1e" stroke-width="1.44" stroke-linecap="round" stroke-linejoin="round"/>
<path d="M225.94,139.02L228.91,146.13L225.21,150.8L217.23,152.49L211.35,149.51L209.19,144.59L211.56,138.55L215.8,134.96L222.46,135.48L225.94,139.02Z" fill-rule="evenodd" fill="#4682b4" fill-opacity="0.471"/>
<polyline points="225.94,139.02 228.91,146.13 225.21,150.8 217.23,152.49 211.35,149.51 209.19,144.59 211.56,138.55 215.8,134.96 222.46,135.48 225.94,139.02" fill="none" stroke="#1e1e1e" stroke-width="1.44" stroke-linecap="round" stroke-linejoin="round"/>
<path d="M49.19,121.05L43.78,112.33L49.59,105.7L55.24,111.96L49.19,121.05Z" fill-rule="evenodd" fill="#4682b4" fill-opacity="0.471"/>
<polyline points="49.19,121.05 43.78,112.33 49.59,105.7 55.24,111.96 49.19,121.05" fill="none" stroke="#1e1e1e" stroke-width="1.44" stroke-linecap="round" stroke-linejoin="round"/>
<path d="M19.58,29.78L21.02,41.28L19.25,51.71L10.13,46.59L8.95,34.81L13.43,29.02L9.37,22.2L17.36,20.76L19.58,29.78Z" fill-rule="evenodd" fill="#4682b4" fill-opacity="0.471"/>
<polyline points="19.58,29.78 21.02,41.28 19.25,51.71 10.13,46.59 8.95,34.81 13.43,29.02 9.37,22.2 17.36,20.76 19.58,29.78" fill="none" stroke="#1e1e1e" stroke-width="1.44" stroke-linecap="round" stroke-linejoin="round"/>
<path d="M26.51,58.5L38.79,59.76L36.23,71.29L29.31,73.82L22.87,68.94L21.49,63.48L26.51,58.5Z" fill-rule="evenodd" fill="#4682b4" fill-opacity="0.471"/>
<polyline points="26.51,58.5 38.79,59.76 36.23,71.29 29.31,73.82 22.87,68.94 21.49,63.48 26.51,58.5" fill="none" stroke="#1e1e1e" stroke-width="1.44" stroke-linecap="round" stroke-linejoin="round"/>
<text x="72.39" y="618.63" font-family="sans-serif" font-size="14" stroke="#ffffff" stroke-opacity="0.784" stroke-width="2.33" stroke-linejoin="round" paint-order="stroke" fill="#141414">Sanma</text>
<text x="224.21" y="898.15" font-family="sans-serif" font-size="14" stroke="#ffffff" stroke-opacity="0.784" stroke-width="2.33" stroke-linejoin="round" paint-order="stroke" fill="#141414">Malampa</text>
<text x="672.13" y="1595.01" font-family="sans-serif" font-size="14" stroke="#ffffff" stroke-opacity="0.784" stroke-width="2.33" stroke-linejoin="round" paint-order="stroke" fill="#141414">Tafea</text>
<text x="432.43" y="1283.28" font-family="sans-serif" font-size="14" stroke="#ffffff" stroke-opacity="0.784" stroke-width="2.33" stroke-linejoin="round" paint-order="stroke" fill="#141414">Shefa Province</text>
<text x="415.09" y="757.79" font-family="sans-serif" font-size="14" stroke="#ffffff" stroke-opacity="0.784" stroke-width="2.33" stroke-linejoin="round" paint-order="stroke" fill="#141414">Penama</text>
<text x="231.11" y="231.02" font-family="sans-serif" font-size="14" stroke="#ffffff" stroke-opacity="0.784" stroke-width="2.33" stroke-linejoin="round" paint-order="stroke" fill="#141414">Torba</text>
</svg>
