<?xml version="1.0" encoding="UTF-8" standalone="no"?>
<svg xmlns="http://www.w3.org/2000/svg" width="2000" height="1697" viewBox="0 0 2000 1697">
<rect width="2000" height="1697" fill="#ffffff"/>
<path d="M1500.57,60.52L1498.13,56.21L1487.87,55.54L1486.44,54.37L1484.54,50.67L1479.27,50.05L1478.7,47.68L1479.55,43.11L1478.16,42.54L1471.72,43.42L1470.65,45.88L1472.74,46.56L1475.03,45.93L1472.55,49.83L1465.71,55.59L1458.55,58.94L1453.57,59.69L1453.18,58.83L1455.14,56.94L1460.05,53.92L1458.78,51.59L1460.81,48.29L1459.64,45.96L1456.76,45.12L1450.36,47.87L1446.17,48.28L1443.29,46.84L1443.88,43.12L1439.28,39.65L1438.64,33.95L1440.35,27.57L1442.95,22.21L1446.38,18.26L1451.1,15.24L1460.51,11.87L1459.52,10.48L1536.66,11.39L1538.57,16.41L1540.49,18.65L1541.7,17.41L1544.63,22.08L1554.66,28.56L1557.68,34.09L1555.7,44.69L1555.77,51.04L1560.9,54.73L1560.76,61.63L1561.63,63.65L1565.58,66.02L1566.44,68.75L1564.18,73.96L1566.3,79.23L1565.27,85.1L1563.84,87.8L1561.69,89.24L1561.11,87.52L1558.7,85.52L1557.7,82.34L1556.65,82.67L1552.9,87.41L1550.55,88.28L1549.84,89.43L1549.85,92.61L1539.63,98.01L1536.55,97.62L1508.66,66.26L1500.57,60.52Z" fill-rule="evenodd" fill="#4682b4" fill-opacity="0.471"/>
<polyline points="1500.57,60.52 1498.13,56.21 1487.87,55.54 1486.44,54.37 1484.54,50.67 1479.27,50.05 1478.7,47.68 1479.55,43.11 1478.16,42.54 1471.72,43.42 1470.65,45.88 1472.74,46.56 1475.03,45.93 1472.55,49.83 1465.71,55.59 1458.55,58.94 1453.57,59.69 1453.18,58.83 1455.14,56.94 1460.05,53.92 1458.78,51.59 1460.81,48.29 1459.64,45.96 1456.76,45.12 1450.36,47.87 1446.17,48.28 1443.29,46.84 1443.88,43.12 1439.28,39.65 1438.64,33.95 1440.35,27.57 1442.95,22.21 1446.38,18.26 1451.1,15.24 1460.51,11.87 1459.52,10.48 1536.66,11.39 1538.57,16.41 1540.49,18.65 1541.7,17.41 1544.63,22.08 1554.66,28.56 1557.68,34.09 1555.7,44.69 1555.77,51.04 1560.9,54.73 1560.76,61.63 1561.63,63.65 1565.58,66.02 1566.44,68.75 1564.18,73.96 1566.3,79.23 1565.27,85.1 1563.84,87.8 1561.69,89.24 1561.11,87.52 1558.7,85.52 1557.7,82.34 1556.65,82.67 1552.9,87.41 1550.55,88.28 1549.84,89.43 1549.85,92.61 1539.63,98.01 1536.55,97.62 1508.66,66.26 1500.57,60.52" fill="none" stroke="#1e1e1e" stroke-width="1.23" stroke-linecap="round" stroke-linejoin="round"/>
<path d="M1215.93,64.37L1218.65,67.8L1219.63,70.63L1219.21,73.7L1208.83,99.47L1202.01,111.02L1198.13,122.33L1195.42,127.05L1186.25,133.04L1180.52,135.28L1175.61,145.63L1165.34,155L1162.93,162.19L1155.85,167.84L1152.5,174.22L1146.37,180.74L1145.36,185.72L1147.29,188.24L1147.82,191.16L1145.62,196.84L1145.61,199.55L1148.73,200.57L1146.63,204.99L1143.61,203.67L1137.33,197.06L1134.35,198.21L1130.59,195.63L1113.05,201.62L1114,198.9L1113.61,195.73L1112.13,193.41L1109.6,193.36L1109.6,191.04L1106.67,194.81L1106.54,204.72L1102.56,208.63L1106.23,209.65L1110.65,209.71L1113.87,211.03L1114.15,215.75L1110.09,214.79L1101.79,218.24L1096.78,219.18L1092.12,218.92L1085.43,216.64L1080.81,219L1078.28,217.89L1080.67,215.68L1079.53,213.41L1080.13,212L1083.56,209.14L1084.55,206.93L1084.02,201L1082.54,196.72L1078.33,190.42L1080.72,186.4L1078.99,182.83L1080.24,177.39L1078.36,175.78L1082.5,168.49L1083.45,164.12L1082.51,161.1L1080.18,157.87L1079.39,154.1L1080.8,146.4L1082.94,142.78L1093,135.45L1096.69,130.83L1104,126.72L1107.49,122.65L1116.73,107.98L1129,96.84L1137.84,85.69L1153.32,69.94L1172.35,42.56L1176.05,40.21L1179.13,40.58L1184.1,44.88L1191.06,46.87L1194.69,48.95L1212.46,61.08L1215.93,64.37Z" fill-rule="evenodd" fill="#4682b4" fill-opacity="0.471"/>
<polyline points="1215.93,64.37 1218.65,67.8 1219.63,70.63 1219.21,73.7 1208.83,99.47 1202.01,111.02 1198.13,122.33 1195.42,127.05 1186.25,133.04 1180.52,135.28 1175.61,145.63 1165.34,155 1162.93,162.19 1155.85,167.84 1152.5,174.22 1146.37,180.74 1145.36,185.72 1147.29,188.24 1147.82,191.16 1145.62,196.84 1145.61,199.55 1148.73,200.57 1146.63,204.99 1143.61,203.67 1137.33,197.06 1134.35,198.21 1130.59,195.63 1113.05,201.62 1114,198.9 1113.61,195.73 1112.13,193.41 1109.6,193.36 1109.6,191.04 1106.67,194.81 1106.54,204.72 1102.56,208.63 1106.23,209.65 1110.65,209.71 1113.87,211.03 1114.15,215.75 1110.09,214.79 1101.79,218.24 1096.78,219.18 1092.12,218.92 1085.43,216.64 1080.81,219 1078.28,217.89 1080.67,215.68 1079.53,213.41 1080.13,212 1083.56,209.14 1084.55,206.93 1084.02,201 1082.54,196.72 1078.33,190.42 1080.72,186.4 1078.99,182.83 1080.24,177.39 1078.36,175.78 1082.5,168.49 1083.45,164.12 1082.51,161.1 1080.18,157.87 1079.39,154.1 1080.8,146.4 1082.94,142.78 1093,135.45 1096.69,130.83 1104,126.72 1107.49,122.65 1116.73,107.98 1129,96.84 1137.84,85.69 1153.32,69.94 1172.35,42.56 1176.05,40.21 1179.13,40.58 1184.1,44.88 1191.06,46.87 1194.69,48.95 1212.46,61.08 1215.93,64.37" fill="none" stroke="#1e1e1e" stroke-width="1.23" stroke-linecap="round" stroke-linejoin="round"/>
<path d="M1366.26,467.71L1367.16,471.68L1362.52,478.07L1360.02,488L1357.91,492.7L1354.29,495.48L1357.03,485.21L1356.06,483.85L1349.03,486.9L1345.07,489.88L1342.82,493.08L1343.04,496.5L1347.39,500.85L1351.4,511.08L1351.81,514.2L1350.94,518.81L1349,521.26L1343.15,525.18L1339.39,533.23L1334.5,535.05L1329.96,543.05L1328.13,544.29L1323.85,543.35L1318.21,540.55L1313.92,541.87L1310.45,545.46L1308.09,544.24L1305.77,545.43L1301.65,543.29L1293.3,541.02L1289.82,539.39L1286.83,536.71L1284.83,533.53L1283.88,529.51L1284.11,524.18L1292.62,503.75L1296.36,497.95L1303.82,489.36L1309.66,478.71L1307.72,481.81L1297.28,493.03L1285.85,514.65L1276.5,512.53L1274.85,509.66L1272.73,501.96L1276.45,498.97L1278.37,499.18L1279.74,500.75L1279.86,503.76L1277.86,508.77L1278.38,511.34L1284.87,499.83L1289.51,498.5L1291.59,496.86L1298.21,487.46L1300.48,480.75L1304.11,475.3L1311.46,468.27L1313.26,464.77L1310.76,462.84L1313.5,459.55L1316.67,458.31L1315.55,462.47L1316.78,462.48L1319.09,457.73L1320.27,457.74L1315.27,467.4L1314.45,470.6L1315.49,470.61L1322.94,457.21L1325.96,455.42L1325.95,456.73L1322.12,461.12L1313.23,475.62L1311.97,480.03L1320.17,470.65L1323.95,460.63L1329.61,455.3L1332.91,450.25L1340.27,449.71L1342.1,448.97L1345.33,445.73L1347.8,445.15L1348.03,447.51L1349.98,449.99L1354.64,453.44L1358.64,459.3L1361.34,460.38L1363.69,462.86L1361.4,465.15L1362.6,468.63L1364.83,467.39L1366.26,467.71Z" fill-rule="evenodd" fill="#4682b4" fill-opacity="0.471"/>
<polyline points="1366.26,467.71 1367.16,471.68 1362.52,478.07 1360.02,488 1357.91,492.7 1354.29,495.48 1357.03,485.21 1356.06,483.85 1349.03,486.9 1345.07,489.88 1342.82,493.08 1343.04,496.5 1347.39,500.85 1351.4,511.08 1351.81,514.2 1350.94,518.81 1349,521.26 1343.15,525.18 1339.39,533.23 1334.5,535.05 1329.96,543.05 1328.13,544.29 1323.85,543.35 1318.21,540.55 1313.92,541.87 1310.45,545.46 1308.09,544.24 1305.77,545.43 1301.65,543.29 1293.3,541.02 1289.82,539.39 1286.83,536.71 1284.83,533.53 1283.88,529.51 1284.11,524.18 1292.62,503.75 1296.36,497.95 1303.82,489.36 1309.66,478.71 1307.72,481.81 1297.28,493.03 1285.85,514.65 1276.5,512.53 1274.85,509.66 1272.73,501.96 1276.45,498.97 1278.37,499.18 1279.74,500.75 1279.86,503.76 1277.86,508.77 1278.38,511.34 1284.87,499.83 1289.51,498.5 1291.59,496.86 1298.21,487.46 1300.48,480.75 1304.11,475.3 1311.46,468.27 1313.26,464.77 1310.76,462.84 1313.5,459.55 1316.67,458.31 1315.55,462.47 1316.78,462.48 1319.09,457.73 1320.27,457.74 1315.27,467.4 1314.45,470.6 1315.49,470.61 1322.94,457.21 1325.96,455.42 1325.95,456.73 1322.12,461.12 1313.23,475.62 1311.97,480.03 1320.17,470.65 1323.95,460.63 1329.61,455.3 1332.91,450.25 1340.27,449.71 1342.1,448.97 1345.33,445.73 1347.8,445.15 1348.03,447.51 1349.98,449.99 1354.64,453.44 1358.64,459.3 1361.34,460.38 1363.69,462.86 1361.4,465.15 1362.6,468.63 1364.83,467.39 1366.26,467.71" fill="none" stroke="#1e1e1e" stroke-width="1.23" stroke-linecap="round" stroke-linejoin="round"/>
<path d="M864.97,476.73L859.24,475.49L856.87,473.99L856.96,470.63L858.72,464.99L856.39,461.54L857.01,457.41L856.37,455.71L855.13,455.71L853.56,458.18L852.98,461.55L850.6,457.89L850.59,453.27L849.41,454.43L848.79,447.7L849.37,445.03L852.33,443.97L857.85,443.65L858.55,444.55L856.34,447.42L862.36,447.65L865.02,446.99L866.54,445.08L864.86,444.08L860.9,439.27L854.42,436.32L853.92,433.46L857.73,436.06L863.71,438.6L868.15,439.29L870.63,442.35L876.95,445.04L878.68,444.49L880.25,441.52L886.26,439.49L888.13,437.73L887.19,434.41L890.94,435.36L894.11,437.91L892.09,439.73L887.1,439.64L885.19,443.56L881.2,446.04L879.09,450.97L871.01,453.2L870.47,455.56L871.04,464.96L869.05,473L869.5,474.4L864.97,476.73Z" fill-rule="evenodd" fill="#4682b4" fill-opacity="0.471"/>
<polyline points="864.97,476.73 859.24,475.49 856.87,473.99 856.96,470.63 858.72,464.99 856.39,461.54 857.01,457.41 856.37,455.71 855.13,455.71 853.56,458.18 852.98,461.55 850.6,457.89 850.59,453.27 849.41,454.43 848.79,447.7 849.37,445.03 852.33,443.97 857.85,443.65 858.55,444.55 856.34,447.42 862.36,447.65 865.02,446.99 866.54,445.08 864.86,444.08 860.9,439.27 854.42,436.32 853.92,433.46 857.73,436.06 863.71,438.6 868.15,439.29 870.63,442.35 876.95,445.04 878.68,444.49 880.25,441.52 886.26,439.49 888.13,437.73 887.19,434.41 890.94,435.36 894.11,437.91 892.09,439.73 887.1,439.64 885.19,443.56 881.2,446.04 879.09,450.97 871.01,453.2 870.47,455.56 871.04,464.96 869.05,473 869.5,474.4 864.97,476.73" fill="none" stroke="#1e1e1e" stroke-width="1.23" stroke-linecap="round" stroke-linejoin="round"/>
<path d="M1341.8,56.33L1346.14,56.42L1346.47,58.63L1344.03,64L1339.21,69.6L1337.62,75.73L1336,78.59L1333.45,79.83L1330.03,78.6L1330.35,82.27L1329.59,83.58L1323.55,86.15L1322.32,90.67L1316.33,92.74L1309.68,97.42L1305.57,95.73L1305.13,93.51L1307.25,89.4L1306.27,87.18L1304.54,86.46L1297.62,86.56L1297.63,85.3L1299.13,84.66L1302.56,84.68L1306.25,83.45L1311.22,77.7L1311.84,75.18L1313.93,74.9L1315.04,72.14L1314.3,71.33L1311.52,71.36L1311.52,70.2L1315.86,70.18L1319.73,71.42L1331.4,61.74L1341.8,56.33Z" fill-rule="evenodd" fill="#4682b4" fill-opacity="0.471"/>
<polyline points="1341.8,56.33 1346.14,56.42 1346.47,58.63 1344.03,64 1339.21,69.6 1337.62,75.73 1336,78.59 1333.45,79.83 1330.03,78.6 1330.35,82.27 1329.59,83.58 1323.55,86.15 1322.32,90.67 1316.33,92.74 1309.68,97.42 1305.57,95.73 1305.13,93.51 1307.25,89.4 1306.27,87.18 1304.54,86.46 1297.62,86.56 1297.63,85.3 1299.13,84.66 1302.56,84.68 1306.25,83.45 1311.22,77.7 1311.84,75.18 1313.93,74.9 1315.04,72.14 1314.3,71.33 1311.52,71.36 1311.52,70.2 1315.86,70.18 1319.73,71.42 1331.4,61.74 1341.8,56.33" fill="none" stroke="#1e1e1e" stroke-width="1.23" stroke-linecap="round" stroke-linejoin="round"/>
<path d="M778.32,47.43L780.62,49.68L782.96,48.46L781.18,51.09L776.52,54.69L774.84,57.87L773.79,66.74L768.71,74.37L765.82,75.29L758.98,79.41L751.97,80.76L751.39,83.23L749.65,85L747.47,85.21L744.97,84.37L741.42,81.62L743.21,80.46L744.92,76.06L747.3,74.49L742.38,75.58L738.08,80.84L735.57,76.78L734.52,76.78L732.11,80.52L728.73,73.8L728.26,69.62L729.72,65.23L730.98,66.94L732.22,66.68L734.94,63.44L736.38,62.77L742.5,62.84L740.13,57.01L744.76,56.48L750.24,49.7L755.16,48.11L760.99,47.42L767.99,43.9L771.13,44.09L778.32,47.43Z" fill-rule="evenodd" fill="#4682b4" fill-opacity="0.471"/>
<polyline points="778.32,47.43 780.62,49.68 782.96,48.46 781.18,51.09 776.52,54.69 774.84,57.87 773.79,66.74 768.71,74.37 765.82,75.29 758.98,79.41 751.97,80.76 751.39,83.23 749.65,85 747.47,85.21 744.97,84.37 741.42,81.62 743.21,80.46 744.92,76.06 747.3,74.49 742.38,75.58 738.08,80.84 735.57,76.78 734.52,76.78 732.11,80.52 728.73,73.8 728.26,69.62 729.72,65.23 730.98,66.94 732.22,66.68 734.94,63.44 736.38,62.77 742.5,62.84 740.13,57.01 744.76,56.48 750.24,49.7 755.16,48.11 760.99,47.42 767.99,43.9 771.13,44.09 778.32,47.43" fill="none" stroke="#1e1e1e" stroke-width="1.23" stroke-linecap="round" stroke-linejoin="round"/>
<path d="M1184.04,1425.6L1186.78,1426.67L1188.27,1428.49L1181.03,1430.01L1177.65,1432.26L1176.63,1433.66L1177.26,1434.52L1180.34,1434.38L1176.76,1438.74L1175.78,1441.51L1175.81,1445.08L1170.45,1437.51L1168.57,1436.55L1166.02,1437.64L1163.45,1440.1L1162.58,1442.51L1165.22,1443.67L1166.66,1446.5L1165.81,1452.13L1162.28,1456.14L1155.69,1454.2L1156.31,1457.27L1152.2,1462.38L1141.56,1461.29L1139.51,1456.3L1137.1,1454.94L1136.58,1453.53L1141.08,1447.05L1137.42,1446.89L1137.92,1440.91L1135.52,1438.89L1131.56,1439.88L1128.8,1445.56L1125.48,1444.89L1123.89,1446.19L1119.65,1446.08L1120.84,1449.35L1115.16,1448.68L1114.25,1446.97L1111.94,1448.12L1113.04,1450.59L1109.71,1452.79L1106.43,1452.43L1103.59,1455.29L1099.52,1462.22L1096.73,1462.22L1096.53,1464.53L1100.28,1468.11L1101.8,1476.11L1099.16,1474.29L1098.02,1468.2L1095.66,1466.89L1090.22,1466.07L1087.34,1464.81L1084.9,1458.07L1088.18,1454.5L1088.37,1452.74L1086.55,1451.03L1084.19,1451.78L1082.21,1454.24L1081.53,1457.51L1079.07,1456.7L1077.38,1457.85L1075.98,1462.73L1067.12,1464.47L1066.93,1461.05L1061.54,1461.75L1051.47,1465.6L1043.52,1467.61L1039.81,1474.6L1039.47,1476.86L1042.41,1478.42L1036.72,1482.24L1034.5,1488.93L1032.62,1491.64L1033.01,1492.25L1036.28,1492.45L1044.65,1490.09L1042.92,1492.15L1039.17,1494.21L1040.99,1496.93L1040.17,1498.29L1041.33,1498.29L1041.32,1499.55L1035.17,1501.5L1033.1,1503.97L1032.28,1507.74L1027.95,1502.71L1026.07,1503.06L1025.11,1499.69L1017.61,1497.72L1017.27,1500.69L1018.09,1500.59L1018.38,1502.1L1016.74,1503.3L1013.81,1501.84L1012.37,1502.35L1013.33,1505.37L1009.33,1511.8L1003.27,1515.07L996.4,1517.04L999.81,1521.82L997.5,1522.57L993.03,1518.29L991.01,1518.75L985.25,1522.88L974.43,1528.21L977.41,1528.72L972.85,1534.76L969.44,1533.3L969.29,1535.56L971.27,1540.6L967.62,1542.41L966.37,1544.12L967.77,1547.9L966.9,1549.3L963.97,1551.12L961.05,1556L955.16,1575.64L954.06,1575.64L954.53,1569.65L952.94,1568.65L951.71,1578.61L950.51,1579.87L936.25,1581.96L936.11,1585.03L930.61,1592.14L933.2,1591.93L938.37,1587.34L934.83,1592.93L932,1594.6L929.5,1593.3L928.26,1594.46L924.75,1591.94L918.52,1596.69L896.32,1621.16L895.99,1623.27L899.25,1624.98L899.3,1627.45L896.52,1626.4L894.17,1626.96L887.38,1632.21L887.24,1633.67L889.36,1637.85L887.02,1641.73L877.41,1649.92L877.04,1653.19L875.26,1652.19L873.82,1652.8L871.54,1656.94L874.32,1657.68L875.95,1660.2L872.6,1659.05L870.4,1661.37L868.05,1660.68L865.76,1662.35L864.93,1660.23L865.35,1656.25L870.42,1651.25L871.51,1647.27L874.58,1648.31L875.2,1647.61L874.66,1645.04L877.77,1643.82L878.59,1642.76L878.1,1641.5L881.88,1638.77L883.22,1636.86L883.64,1634.39L877.8,1637.88L875.89,1637.88L874.64,1636.48L875.01,1634.66L876.97,1632.09L875.87,1632.09L875.87,1630.99L879.22,1629.82L875.86,1627.51L884.17,1618.57L888.04,1611.56L890.34,1612.16L891.2,1610.4L890.33,1608.69L894.64,1604.55L898.52,1602.98L898.8,1599.4L901.49,1599.19L901.48,1595.67L904.61,1597.93L908.01,1597.32L909.92,1591.37L909.77,1589.41L911.54,1588.55L917.12,1590.9L918.22,1589.79L918.22,1588.53L915.72,1587.18L915.91,1585.77L917.83,1585.26L920.47,1586.31L921.81,1583.84L921.7,1576.85L923.47,1572.77L923.18,1571.91L918.28,1571.17L913.77,1573.39L912.23,1571.58L912.56,1569.22L913.9,1567.2L917.5,1565.08L924.3,1556.41L932.07,1550.15L934.52,1547.18L931.54,1546.48L932.73,1544.16L929.32,1541.25L931.72,1539.54L938.3,1538.77L945.6,1532.37L945.06,1528.75L946.07,1524.77L946.74,1523.11L950.63,1521.85L951.21,1520.28L950.62,1516.56L953.99,1514.75L955.62,1509.46L959.56,1507.75L965.04,1500.6L968.69,1504.47L968.89,1506.18L967.25,1508.9L972.54,1507.49L977.4,1504.06L973.21,1500.49L968.45,1498.28L970.8,1495.81L977.63,1494.05L980.76,1491.33L981.48,1488.77L980.32,1486.7L977.73,1485.45L974.02,1485.45L979.6,1479.51L980.75,1479.51L982.44,1482.78L987.11,1482.17L995.34,1478.4L1002.12,1476.74L1003.18,1475.43L994.23,1472.56L987.97,1467.59L988.02,1466.78L989.8,1466.13L989.75,1462.1L990.81,1460.54L1001.59,1462.65L1003.18,1461.5L1003.47,1457.83L1000.92,1454.96L1005.06,1454.31L1008.77,1454.96L1011.32,1453.6L1012.19,1453.91L1012.19,1456.27L1010.98,1459.74L1016.14,1457.98L1018.45,1458.13L1020.03,1459.74L1020.23,1462.51L1018.92,1465.83L1021.14,1467.94L1025.52,1468.9L1031.01,1467.8L1036.02,1465.03L1039.1,1460.96L1036.98,1460.26L1035.78,1460.96L1034.91,1459.1L1036.89,1456.89L1036.89,1453.32L1037.91,1450.25L1040.36,1449.7L1043.35,1450.76L1045.8,1452.67L1047.4,1445.98L1051.5,1444.73L1057.33,1440.82L1058.05,1438.71L1053.23,1441.11L1053.72,1434.93L1051.51,1432.76L1051.51,1431.71L1054.89,1430.81L1057.05,1431.77L1060.37,1436.25L1061.39,1434.03L1064.47,1435.35L1065.1,1433.34L1064.82,1426.95L1067.9,1428.66L1078.31,1424.61L1077.31,1422.04L1074.42,1419.57L1070.47,1418.81L1070.47,1417.61L1072.78,1417.61L1072.79,1416.45L1069.32,1415.29L1072.55,1414.69L1075.44,1414.95L1077.56,1416.41L1078.37,1419.38L1079.09,1419.73L1083.97,1417.63L1085.36,1418.04L1085.6,1419.95L1083.96,1421L1085.45,1422.71L1088.63,1424.23L1089.54,1425.84L1095.48,1418.41L1096.36,1415.9L1103.11,1414L1104.23,1410.69L1107.21,1412.1L1108.11,1418.89L1114.19,1415.84L1116.6,1416.55L1118,1414.95L1118.73,1413.04L1115.07,1413.08L1112.03,1411.66L1126.17,1408.84L1130.37,1405.63L1132.83,1404.94L1135.92,1405.5L1136.72,1411.74L1138.83,1414.26L1143.7,1413.97L1145.67,1415.49L1148.57,1414.24L1152.33,1413.91L1163.22,1414.7L1170.33,1419.1L1169.22,1420.26L1164.98,1418.98L1161.41,1420.23L1168.39,1422.97L1173.89,1421.63L1180.41,1417.94L1181.61,1419.15L1178.16,1424.92L1184.04,1425.6Z" fill-rule="evenodd" fill="#4682b4" fill-opacity="0.471"/>
<polyline points="1184.04,1425.6 1186.78,1426.67 1188.27,1428.49 1181.03,1430.01 1177.65,1432.26 1176.63,1433.66 1177.26,1434.52 1180.34,1434.38 1176.76,1438.74 1175.78,1441.51 1175.81,1445.08 1170.45,1437.51 1168.57,1436.55 1166.02,1437.64 1163.45,1440.1 1162.58,1442.51 1165.22,1443.67 1166.66,1446.5 1165.81,1452.13 1162.28,1456.14 1155.69,1454.2 1156.31,1457.27 1152.2,1462.38 1141.56,1461.29 1139.51,1456.3 1137.1,1454.94 1136.58,1453.53 1141.08,1447.05 1137.42,1446.89 1137.92,1440.91 1135.52,1438.89 1131.56,1439.88 1128.8,1445.56 1125.48,1444.89 1123.89,1446.19 1119.65,1446.08 1120.84,1449.35 1115.16,1448.68 1114.25,1446.97 1111.94,1448.12 1113.04,1450.59 1109.71,1452.79 1106.43,1452.43 1103.59,1455.29 1099.52,1462.22 1096.73,1462.22 1096.53,1464.53 1100.28,1468.11 1101.8,1476.11 1099.16,1474.29 1098.02,1468.2 1095.66,1466.89 1090.22,1466.07 1087.34,1464.81 1084.9,1458.07 1088.18,1454.5 1088.37,1452.74 1086.55,1451.03 1084.19,1451.78 1082.21,1454.24 1081.53,1457.51 1079.07,1456.7 1077.38,1457.85 1075.98,1462.73 1067.12,1464.47 1066.93,1461.05 1061.54,1461.75 1051.47,1465.6 1043.52,1467.61 1039.81,1474.6 1039.47,1476.86 1042.41,1478.42 1036.72,1482.24 1034.5,1488.93 1032.62,1491.64 1033.01,1492.25 1036.28,1492.45 1044.65,1490.09 1042.92,1492.15 1039.17,1494.21 1040.99,1496.93 1040.17,1498.29 1041.33,1498.29 1041.32,1499.55 1035.17,1501.5 1033.1,1503.97 1032.28,1507.74 1027.95,1502.71 1026.07,1503.06 1025.11,1499.69 1017.61,1497.72 1017.27,1500.69 1018.09,1500.59 1018.38,1502.1 1016.74,1503.3 1013.81,1501.84 1012.37,1502.35 1013.33,1505.37 1009.33,1511.8 1003.27,1515.07 996.4,1517.04 999.81,1521.82 997.5,1522.57 993.03,1518.29 991.01,1518.75 985.25,1522.88 974.43,1528.21 977.41,1528.72 972.85,1534.76 969.44,1533.3 969.29,1535.56 971.27,1540.6 967.62,1542.41 966.37,1544.12 967.77,1547.9 966.9,1549.3 963.97,1551.12 961.05,1556 955.16,1575.64 954.06,1575.64 954.53,1569.65 952.94,1568.65 951.71,1578.61 950.51,1579.87 936.25,1581.96 936.11,1585.03 930.61,1592.14 933.2,1591.93 938.37,1587.34 934.83,1592.93 932,1594.6 929.5,1593.3 928.26,1594.46 924.75,1591.94 918.52,1596.69 896.32,1621.16 895.99,1623.27 899.25,1624.98 899.3,1627.45 896.52,1626.4 894.17,1626.96 887.38,1632.21 887.24,1633.67 889.36,1637.85 887.02,1641.73 877.41,1649.92 877.04,1653.19 875.26,1652.19 873.82,1652.8 871.54,1656.94 874.32,1657.68 875.95,1660.2 872.6,1659.05 870.4,1661.37 868.05,1660.68 865.76,1662.35 864.93,1660.23 865.35,1656.25 870.42,1651.25 871.51,1647.27 874.58,1648.31 875.2,1647.61 874.66,1645.04 877.77,1643.82 878.59,1642.76 878.1,1641.5 881.88,1638.77 883.22,1636.86 883.64,1634.39 877.8,1637.88 875.89,1637.88 874.64,1636.48 875.01,1634.66 876.97,1632.09 875.87,1632.09 875.87,1630.99 879.22,1629.82 875.86,1627.51 884.17,1618.57 888.04,1611.56 890.34,1612.16 891.2,1610.4 890.33,1608.69 894.64,1604.55 898.52,1602.98 898.8,1599.4 901.49,1599.19 901.48,1595.67 904.61,1597.93 908.01,1597.32 909.92,1591.37 909.77,1589.41 911.54,1588.55 917.12,1590.9 918.22,1589.79 918.22,1588.53 915.72,1587.18 915.91,1585.77 917.83,1585.26 920.47,1586.31 921.81,1583.84 921.7,1576.85 923.47,1572.77 923.18,1571.91 918.28,1571.17 913.77,1573.39 912.23,1571.58 912.56,1569.22 913.9,1567.2 917.5,1565.08 924.3,1556.41 932.07,1550.15 934.52,1547.18 931.54,1546.48 932.73,1544.16 929.32,1541.25 931.72,1539.54 938.3,1538.77 945.6,1532.37 945.06,1528.75 946.07,1524.77 946.74,1523.11 950.63,1521.85 951.21,1520.28 950.62,1516.56 953.99,1514.75 955.62,1509.46 959.56,1507.75 965.04,1500.6 968.69,1504.47 968.89,1506.18 967.25,1508.9 972.54,1507.49 977.4,1504.06 973.21,1500.49 968.45,1498.28 970.8,1495.81 977.63,1494.05 980.76,1491.33 981.48,1488.77 980.32,1486.7 977.73,1485.45 974.02,1485.45 979.6,1479.51 980.75,1479.51 982.44,1482.78 987.11,1482.17 995.34,1478.4 1002.12,1476.74 1003.18,1475.43 994.23,1472.56 987.97,1467.59 988.02,1466.78 989.8,1466.13 989.75,1462.1 990.81,1460.54 1001.59,1462.65 1003.18,1461.5 1003.47,1457.83 1000.92,1454.96 1005.06,1454.31 1008.77,1454.96 1011.32,1453.6 1012.19,1453.91 1012.19,1456.27 1010.98,1459.74 1016.14,1457.98 1018.45,1458.13 1020.03,1459.74 1020.23,1462.51 1018.92,1465.83 1021.14,1467.94 1025.52,1468.9 1031.01,1467.8 1036.02,1465.03 1039.1,1460.96 1036.98,1460.26 1035.78,1460.96 1034.91,1459.1 1036.89,1456.89 1036.89,1453.32 1037.91,1450.25 1040.36,1449.7 1043.35,1450.76 1045.8,1452.67 1047.4,1445.98 1051.5,1444.73 1057.33,1440.82 1058.05,1438.71 1053.23,1441.11 1053.72,1434.93 1051.51,1432.76 1051.51,1431.71 1054.89,1430.81 1057.05,1431.77 1060.37,1436.25 1061.39,1434.03 1064.47,1435.35 1065.1,1433.34 1064.82,1426.95 1067.9,1428.66 1078.31,1424.61 1077.31,1422.04 1074.42,1419.57 1070.47,1418.81 1070.47,1417.61 1072.78,1417.61 1072.79,1416.45 1069.32,1415.29 1072.55,1414.69 1075.44,1414.95 1077.56,1416.41 1078.37,1419.38 1079.09,1419.73 1083.97,1417.63 1085.36,1418.04 1085.6,1419.95 1083.96,1421 1085.45,1422.71 1088.63,1424.23 1089.54,1425.84 1095.48,1418.41 1096.36,1415.9 1103.11,1414 1104.23,1410.69 1107.21,1412.1 1108.11,1418.89 1114.19,1415.84 1116.6,1416.55 1118,1414.95 1118.73,1413.04 1115.07,1413.08 1112.03,1411.66 1126.17,1408.84 1130.37,1405.63 1132.83,1404.94 1135.92,1405.5 1136.72,1411.74 1138.83,1414.26 1143.7,1413.97 1145.67,1415.49 1148.57,1414.24 1152.33,1413.91 1163.22,1414.7 1170.33,1419.1 1169.22,1420.26 1164.98,1418.98 1161.41,1420.23 1168.39,1422.97 1173.89,1421.63 1180.41,1417.94 1181.61,1419.15 1178.16,1424.92 1184.04,1425.6" fill="none" stroke="#1e1e1e" stroke-width="1.23" stroke-linecap="round" stroke-linejoin="round"/>
<path d="M1797.94,1257.84L1798.98,1261.73L1797.58,1263.87L1795.01,1264.02L1792.2,1261.95L1787.85,1256.6L1785.49,1255.9L1779.16,1257.64L1770.43,1256.37L1771.48,1259.25L1770.72,1261.25L1765.8,1263.27L1762.7,1263.31L1755.72,1258.31L1747.08,1264.98L1747.64,1268.76L1739.79,1269.78L1736.41,1272.03L1734.76,1272.25L1731.79,1270.79L1728.05,1274.19L1725.48,1274.6L1721.49,1272.97L1719.16,1273.43L1706.95,1277.44L1705.82,1278.53L1705.11,1283.24L1702.81,1284.25L1694.49,1281.8L1685.51,1280.5L1679.81,1277.44L1660.88,1271.95L1656.57,1272.14L1652.86,1274.74L1644.06,1277.57L1625.6,1278.99L1620.78,1278.37L1617.37,1276.56L1613.7,1272.43L1611.29,1272.34L1608.87,1275.57L1607.26,1276.51L1604.43,1274.55L1606.71,1271.12L1603.29,1270.07L1601.73,1270.55L1600.62,1273.95L1599.41,1274.03L1596.66,1273.29L1588.97,1273.13L1585.31,1271.87L1582.15,1269.66L1579.9,1275.26L1578.45,1274.94L1572.94,1270.84L1571.56,1272.88L1570.61,1278.75L1565.81,1275.72L1560.52,1276.9L1559.59,1278.04L1559.76,1279.4L1562.97,1281.71L1562.08,1283.2L1558,1288.57L1549.02,1294.53L1543.25,1302.95L1541.88,1300.72L1541.01,1296.54L1540.93,1292.22L1541.74,1289.41L1543.63,1288.58L1548.23,1288.74L1550.27,1287.77L1552.4,1284.13L1552.55,1279.66L1548.85,1281.47L1545.27,1281.87L1532.05,1279.74L1523.34,1275.66L1516.34,1274.41L1510.91,1272.13L1502.17,1270.87L1493.11,1267.25L1486.59,1266.87L1484.19,1264.83L1487.75,1262.66L1489.3,1262.83L1517.83,1271.82L1524.25,1273.01L1533.3,1276.44L1540.69,1277.24L1545.78,1275.95L1549.99,1272.13L1554.76,1273.96L1556.1,1271.56L1559.13,1272.41L1562.25,1267.58L1568.19,1267.96L1570.49,1266.23L1571.84,1263.29L1572.08,1260.12L1574.53,1261.47L1577.62,1261.76L1588.57,1260.86L1591,1263.36L1595.72,1261.61L1601.22,1262.85L1606.91,1260.62L1613.25,1260.97L1615.69,1262.31L1617,1265.44L1619.47,1262.17L1620.93,1261.94L1621.53,1263.7L1621.12,1268.12L1621.88,1269.19L1627.52,1264.25L1629.13,1263.72L1654.24,1260.94L1663.28,1258.12L1665.7,1258.01L1667.81,1259.2L1671.29,1263.03L1673.26,1263.66L1678.67,1258.32L1691.38,1265.32L1693.61,1265L1697.59,1261.45L1701.44,1259.66L1710.79,1259.47L1727.5,1255.84L1735.6,1249.3L1740.19,1247.42L1738.86,1251.02L1747.29,1253.58L1749.57,1253.12L1752.52,1250.81L1754.81,1250.15L1758.15,1252.52L1762.58,1251.45L1770.47,1254.01L1771.72,1251.97L1776.12,1252.25L1778.5,1249.38L1781.84,1251.81L1787.87,1252.98L1791.21,1252.74L1794.2,1250.89L1794.02,1257.67L1797.94,1257.84Z" fill-rule="evenodd" fill="#4682b4" fill-opacity="0.471"/>
<polyline points="1797.94,1257.84 1798.98,1261.73 1797.58,1263.87 1795.01,1264.02 1792.2,1261.95 1787.85,1256.6 1785.49,1255.9 1779.16,1257.64 1770.43,1256.37 1771.48,1259.25 1770.72,1261.25 1765.8,1263.27 1762.7,1263.31 1755.72,1258.31 1747.08,1264.98 1747.64,1268.76 1739.79,1269.78 1736.41,1272.03 1734.76,1272.25 1731.79,1270.79 1728.05,1274.19 1725.48,1274.6 1721.49,1272.97 1719.16,1273.43 1706.95,1277.44 1705.82,1278.53 1705.11,1283.24 1702.81,1284.25 1694.49,1281.8 1685.51,1280.5 1679.81,1277.44 1660.88,1271.95 1656.57,1272.14 1652.86,1274.74 1644.06,1277.57 1625.6,1278.99 1620.78,1278.37 1617.37,1276.56 1613.7,1272.43 1611.29,1272.34 1608.87,1275.57 1607.26,1276.51 1604.43,1274.55 1606.71,1271.12 1603.29,1270.07 1601.73,1270.55 1600.62,1273.95 1599.41,1274.03 1596.66,1273.29 1588.97,1273.13 1585.31,1271.87 1582.15,1269.66 1579.9,1275.26 1578.45,1274.94 1572.94,1270.84 1571.56,1272.88 1570.61,1278.75 1565.81,1275.72 1560.52,1276.9 1559.59,1278.04 1559.76,1279.4 1562.97,1281.71 1562.08,1283.2 1558,1288.57 1549.02,1294.53 1543.25,1302.95 1541.88,1300.72 1541.01,1296.54 1540.93,1292.22 1541.74,1289.41 1543.63,1288.58 1548.23,1288.74 1550.27,1287.77 1552.4,1284.13 1552.55,1279.66 1548.85,1281.47 1545.27,1281.87 1532.05,1279.74 1523.34,1275.66 1516.34,1274.41 1510.91,1272.13 1502.17,1270.87 1493.11,1267.25 1486.59,1266.87 1484.19,1264.83 1487.75,1262.66 1489.3,1262.83 1517.83,1271.82 1524.25,1273.01 1533.3,1276.44 1540.69,1277.24 1545.78,1275.95 1549.99,1272.13 1554.76,1273.96 1556.1,1271.56 1559.13,1272.41 1562.25,1267.58 1568.19,1267.96 1570.49,1266.23 1571.84,1263.29 1572.08,1260.12 1574.53,1261.47 1577.62,1261.76 1588.57,1260.86 1591,1263.36 1595.72,1261.61 1601.22,1262.85 1606.91,1260.62 1613.25,1260.97 1615.69,1262.31 1617,1265.44 1619.47,1262.17 1620.93,1261.94 1621.53,1263.7 1621.12,1268.12 1621.88,1269.19 1627.52,1264.25 1629.13,1263.72 1654.24,1260.94 1663.28,1258.12 1665.7,1258.01 1667.81,1259.2 1671.29,1263.03 1673.26,1263.66 1678.67,1258.32 1691.38,1265.32 1693.61,1265 1697.59,1261.45 1701.44,1259.66 1710.79,1259.47 1727.5,1255.84 1735.6,1249.3 1740.19,1247.42 1738.86,1251.02 1747.29,1253.58 1749.57,1253.12 1752.52,1250.81 1754.81,1250.15 1758.15,1252.52 1762.58,1251.45 1770.47,1254.01 1771.72,1251.97 1776.12,1252.25 1778.5,1249.38 1781.84,1251.81 1787.87,1252.98 1791.21,1252.74 1794.2,1250.89 1794.02,1257.67 1797.94,1257.84" fill="none" stroke="#1e1e1e" stroke-width="1.23" stroke-linecap="round" stroke-linejoin="round"/>
<text x="1098.3" y="136.24" font-family="sans-serif" font-size="14" stroke="#ffffff" stroke-opacity="0.784" stroke-width="2.33" stroke-linejoin="round" paint-order="stroke" fill="#141414">Lac Moeru</text>
<text x="976.38" y="1497.7" font-family="sans-serif" font-size="14" stroke="#ffffff" stroke-opacity="0.784" stroke-width="2.33" stroke-linejoin="round" paint-order="stroke" fill="#141414">Lake Kariba</text>
<text x="1434.69" y="51.28" font-family="sans-serif" font-size="14" stroke="#ffffff" stroke-opacity="0.784" stroke-width="2.33" stroke-linejoin="round" paint-order="stroke" fill="#141414">Lake Tanganyika</text>
<text x="1250.75" y="506.1" font-family="sans-serif" font-size="14" stroke="#ffffff" stroke-opacity="0.784" stroke-width="2.33" stroke-linejoin="round" paint-order="stroke" fill="#141414">Lake Bangweulu</text>
<text x="1555.72" y="1275.27" font-family="sans-serif" font-size="14" stroke="#ffffff" stroke-opacity="0.784" stroke-width="2.33" stroke-linejoin="round" paint-order="stroke" fill="#141414">Lago de Cahora Bassa</text>
<text x="700.69" y="71.17" font-family="sans-serif" font-size="14" stroke="#ffffff" stroke-opacity="0.784" stroke-width="2.33" stroke-linejoin="round" paint-order="stroke" fill="#141414">Lac Upemba</text>
<text x="1269.57" y="84.03" font-family="sans-serif" font-size="14" stroke="#ffffff" stroke-opacity="0.784" stroke-width="2.33" stroke-linejoin="round" paint-order="stroke" fill="#141414">Lake Cheshi</text>
<text x="797.71" y="461.43" font-family="sans-serif" font-size="14" stroke="#ffffff" stroke-opacity="0.784" stroke-width="2.33" stroke-linejoin="round" paint-order="stroke" fill="#141414">Lake Rentenue</text>
</svg>
